<svg height="22" viewBox="0 0 22 22" width="22" xmlns="http://www.w3.org/2000/svg" xmlns:xlink="http://www.w3.org/1999/xlink"><linearGradient id="a"><stop offset="0" stop-color="#dbdee0"/><stop offset="1" stop-color="#dbdee0" stop-opacity="0"/></linearGradient><linearGradient id="b" gradientTransform="matrix(-.5 -.8660254 -.8660254 .5 524.43806 384.22155)" gradientUnits="userSpaceOnUse" x1="5.875" x2="3.875" xlink:href="#a" y1="31.125" y2="4.125"/><linearGradient id="c" gradientTransform="matrix(.5 .8660254 -.8660254 .5 512.39231 363.6077)" gradientUnits="userSpaceOnUse" x1="12" x2="23" xlink:href="#a" y1="6" y2="10"/><g transform="translate(-497.00001 -369.00003)"><path d="m514.9282 376c-2.20321-3.81608-7.11212-5.13142-10.9282-2.9282-3.81608 2.20321-5.13142 7.11212-2.9282 10.9282l1.73205-1c-1.66278-2.88001-.68386-6.53338 2.19615-8.19615 2.88001-1.66278 6.53338-.68386 8.19615 2.19615.27614.47829.88773.64217 1.36603.36603.47829-.27615.64217-.88774.36602-1.36603z" fill="url(#c)"/><path d="m514.9282 376c2.20322 3.81608.88788 8.72499-2.9282 10.9282-3.81608 2.20322-8.72499.88788-10.9282-2.9282l1.73205-1c1.66277 2.88001 5.31614 3.85893 8.19615 2.19615 2.88001-1.66277 3.85893-5.31614 2.19615-8.19615z" fill="url(#b)"/><path d="m497 369.00003h22v22h-22z" fill="none"/></g></svg>