<svg height="22" viewBox="0 0 22 22" width="22" xmlns="http://www.w3.org/2000/svg" xmlns:xlink="http://www.w3.org/1999/xlink"><linearGradient id="a"><stop offset="0" stop-color="#dbdee0"/><stop offset="1" stop-color="#dbdee0" stop-opacity="0"/></linearGradient><linearGradient id="b" gradientTransform="matrix(.8660254 -.49999999 -.49999999 -.8660254 575.77844 396.43806)" gradientUnits="userSpaceOnUse" x1="5.875" x2="3.875" xlink:href="#a" y1="31.125" y2="4.125"/><linearGradient id="c" gradientTransform="matrix(-.8660254 .49999999 -.49999999 -.8660254 596.3923 384.39231)" gradientUnits="userSpaceOnUse" x1="12" x2="23" xlink:href="#a" y1="6" y2="10"/><g transform="translate(-569.00001 -369.00003)"><path d="m584 386.92821c3.81608-2.20322 5.13142-7.11212 2.9282-10.92821-2.20322-3.81608-7.11212-5.13142-10.9282-2.9282l1 1.73205c2.88001-1.66277 6.53337-.68386 8.19615 2.19615 1.66277 2.88002.68386 6.53338-2.19615 8.19616-.4783.27614-.64217.88773-.36603 1.36602.27614.4783.88773.64217 1.36603.36603z" fill="url(#c)"/><path d="m584 386.92821c-3.81609 2.20321-8.72499.88788-10.92821-2.92821-2.20321-3.81608-.88788-8.72498 2.92821-10.9282l1 1.73205c-2.88002 1.66278-3.85893 5.31614-2.19616 8.19615 1.66278 2.88002 5.31614 3.85893 8.19616 2.19616z" fill="url(#b)"/><path d="m569 369.00003h22v22h-22z" fill="none"/></g></svg>