<svg height="48" width="48" xmlns="http://www.w3.org/2000/svg" xmlns:xlink="http://www.w3.org/1999/xlink"><linearGradient id="a"><stop offset="0" stop-color="#2971c3"/><stop offset="1" stop-color="#83bbff"/></linearGradient><linearGradient id="b" gradientUnits="userSpaceOnUse" x1="407.025654025405" x2="405.398208185405" xlink:href="#a" y1="544.332086718472" y2="505.273386558472"/><linearGradient id="c" gradientTransform="matrix(0 -.65097834 -.65097834 0 389.77473 509.17926)" gradientUnits="userSpaceOnUse" x1="-42" x2="-6" y1="-24" y2="-24"><stop offset="0" stop-color="#d0d0d0"/><stop offset="1" stop-color="#f1eeee"/></linearGradient><clipPath id="d"><rect height="47" ry="1.355769" width="47" x=".500011" y=".499989"/></clipPath><linearGradient id="e" gradientUnits="userSpaceOnUse" x1="25.807685343956" x2="23.999993043956" xlink:href="#a" y1="45.692306162316" y2="2.307690962316"/><g transform="matrix(1.1107542 0 0 1.1107542 -426.297764 -558.926847)"><rect fill="url(#b)" fill-rule="evenodd" height="42.313591" ry="1.220584" width="42.313591" x="384.24142" y="503.64594"/><text opacity=".8" x="960.83002" y="516.21802"><tspan x="960.83002" y="516.21802"/></text><text opacity=".8" x="976.4281" y="489.69608"><tspan x="976.4281" y="489.69608"/></text><text opacity=".8" x="19.12644" y="470.11584"><tspan x="19.12644" y="470.11584"/></text><text opacity=".8" x="-1168.0536" y="955.45502"><tspan x="-1168.0536" y="955.45502"/></text><text opacity=".8" x="93.657661" y="219.28024"><tspan x="93.657661" y="219.28024"/></text><text opacity=".8" x="619.38916" y="-49.879856"><tspan x="619.38916" y="-49.879856"/></text><text opacity=".8" x="634.98718" y="-76.401825"><tspan x="634.98718" y="-76.401825"/></text><text opacity=".8" x="-335.923" y="-81.095306"><tspan x="-335.923" y="-81.095306"/></text><text opacity=".8" x="614.8587" y="-258.96484"><tspan x="614.8587" y="-258.96484"/></text><text opacity=".8" x="1582.293" y="148.99768"><tspan x="1582.293" y="148.99768"/></text><text opacity=".8" x="1597.8909" y="122.47568"><tspan x="1597.8909" y="122.47568"/></text><text opacity=".8" x="626.98065" y="117.78219"><tspan x="626.98065" y="117.78219"/></text><text opacity=".8" x="1577.7625" y="-60.087234"><tspan x="1577.7625" y="-60.087234"/></text><text opacity=".8" x="16.482557" y="86.475792"><tspan x="16.482557" y="86.475792"/></text><text opacity=".8" x="-1170.6973" y="571.815"><tspan x="-1170.6973" y="571.815"/></text><text opacity=".8" x="-54.428669" y="632.27277"><tspan x="-54.428669" y="632.27277"/></text><text opacity=".8" x="667.52216" y="515.62903"><tspan x="667.52216" y="515.62903"/></text><text opacity=".8" x="683.12018" y="489.10709"><tspan x="683.12018" y="489.10709"/></text><text opacity=".8" x="-287.79001" y="484.41354"><tspan x="-287.79001" y="484.41354"/></text><text opacity=".8" x="662.9917" y="306.5441"><tspan x="662.9917" y="306.5441"/></text><text opacity=".8" x="-6.041278" y="482.64664"><tspan x="-6.041278" y="482.64664"/></text><text opacity=".8" x="-1193.2213" y="967.98578"><tspan x="-1193.2213" y="967.98578"/></text><text opacity=".8" x="92.317024" y="-78.191055"><tspan x="92.317024" y="-78.191055"/></text><text opacity=".8" x="618.04852" y="-347.35123"><tspan x="618.04852" y="-347.35123"/></text><text opacity=".8" x="633.64655" y="-373.87317"><tspan x="633.64655" y="-373.87317"/></text><text opacity=".8" x="-337.26367" y="-378.56671"><tspan x="-337.26367" y="-378.56671"/></text><text opacity=".8" x="613.51807" y="-556.43622"><tspan x="613.51807" y="-556.43622"/></text><text opacity=".8" x="1580.9521" y="-148.47375"><tspan x="1580.9521" y="-148.47375"/></text><text opacity=".8" x="1596.5502" y="-174.99564"><tspan x="1596.5502" y="-174.99564"/></text><text opacity=".8" x="625.64001" y="-179.68916"><tspan x="625.64001" y="-179.68916"/></text><text opacity=".8" x="1576.4218" y="-357.55865"><tspan x="1576.4218" y="-357.55865"/></text><text opacity=".8" x="15.1419" y="-210.99556"><tspan x="15.1419" y="-210.99556"/></text><text opacity=".8" x="-1172.038" y="274.34363"><tspan x="-1172.038" y="274.34363"/></text><text opacity=".8" x="-55.769325" y="334.80139"><tspan x="-55.769325" y="334.80139"/></text><text opacity=".8" x="491.06195" y="491.63132"><tspan x="491.06195" y="491.63132"/></text><text opacity=".8" x="506.66" y="465.10934"><tspan x="506.66" y="465.10934"/></text><text opacity=".8" x="-319.96313" y="338.8009"><tspan x="-319.96313" y="338.8009"/></text><text opacity=".8" x="205.76828" y="69.640785"><tspan x="205.76828" y="69.640785"/></text><text opacity=".8" x="221.36633" y="43.11882"><tspan x="221.36633" y="43.11882"/></text><text opacity=".8" x="-749.54382" y="38.425331"><tspan x="-749.54382" y="38.425331"/></text><text opacity=".8" x="201.23782" y="-139.44417"><tspan x="201.23782" y="-139.44417"/></text><text opacity=".8" x="1168.672" y="268.51834"><tspan x="1168.672" y="268.51834"/></text><text opacity=".8" x="1184.2699" y="241.99635"><tspan x="1184.2699" y="241.99635"/></text><text opacity=".8" x="213.35977" y="237.30283"><tspan x="213.35977" y="237.30283"/></text><text opacity=".8" x="1164.1415" y="59.433369"><tspan x="1164.1415" y="59.433369"/></text><text opacity=".8" x="-397.13834" y="205.99644"><tspan x="-397.13834" y="205.99644"/></text><text opacity=".8" x="-1584.3182" y="691.33569"><tspan x="-1584.3182" y="691.33569"/></text><text opacity=".8" x="-468.0531" y="751.79309"><tspan x="-468.0531" y="751.79309"/></text><text opacity=".8" x="960.83002" y="520.92981"><tspan x="960.83002" y="520.92981"/></text><text opacity=".8" x="976.4281" y="494.40784"><tspan x="976.4281" y="494.40784"/></text><text opacity=".8" x="19.12644" y="474.82761"><tspan x="19.12644" y="474.82761"/></text><text opacity=".8" x="-1168.0536" y="960.16675"><tspan x="-1168.0536" y="960.16675"/></text><text opacity=".8" x="93.657661" y="223.99202"><tspan x="93.657661" y="223.99202"/></text><text opacity=".8" x="619.38916" y="-45.168053"><tspan x="619.38916" y="-45.168053"/></text><text opacity=".8" x="634.98718" y="-71.690056"><tspan x="634.98718" y="-71.690056"/></text><text opacity=".8" x="-335.923" y="-76.383545"><tspan x="-335.923" y="-76.383545"/></text><text opacity=".8" x="614.8587" y="-254.25305"><tspan x="614.8587" y="-254.25305"/></text><text opacity=".8" x="1582.293" y="153.70944"><tspan x="1582.293" y="153.70944"/></text><text opacity=".8" x="1597.8909" y="127.18745"><tspan x="1597.8909" y="127.18745"/></text><text opacity=".8" x="626.98065" y="122.49396"><tspan x="626.98065" y="122.49396"/></text><text opacity=".8" x="1577.7625" y="-55.375427"><tspan x="1577.7625" y="-55.375427"/></text><text opacity=".8" x="16.482557" y="91.187553"><tspan x="16.482557" y="91.187553"/></text><text opacity=".8" x="-1170.6973" y="576.52679"><tspan x="-1170.6973" y="576.52679"/></text><text opacity=".8" x="-54.428669" y="636.9845"><tspan x="-54.428669" y="636.9845"/></text><text opacity=".8" x="667.52216" y="520.34082"><tspan x="667.52216" y="520.34082"/></text><text opacity=".8" x="683.12018" y="493.81885"><tspan x="683.12018" y="493.81885"/></text><text opacity=".8" x="-287.79001" y="489.12534"><tspan x="-287.79001" y="489.12534"/></text><text opacity=".8" x="662.9917" y="311.25589"><tspan x="662.9917" y="311.25589"/></text><text opacity=".8" x="-6.041278" y="487.3584"><tspan x="-6.041278" y="487.3584"/></text><text opacity=".8" x="-1193.2213" y="972.69763"><tspan x="-1193.2213" y="972.69763"/></text><text opacity=".8" x="92.317024" y="-73.479294"><tspan x="92.317024" y="-73.479294"/></text><text opacity=".8" x="618.04852" y="-342.6394"><tspan x="618.04852" y="-342.6394"/></text><text opacity=".8" x="633.64655" y="-369.16144"><tspan x="633.64655" y="-369.16144"/></text><text opacity=".8" x="-337.26367" y="-373.85489"><tspan x="-337.26367" y="-373.85489"/></text><text opacity=".8" x="613.51807" y="-551.72443"><tspan x="613.51807" y="-551.72443"/></text><text opacity=".8" x="1580.9521" y="-143.76199"><tspan x="1580.9521" y="-143.76199"/></text><text opacity=".8" x="1596.5502" y="-170.28391"><tspan x="1596.5502" y="-170.28391"/></text><text opacity=".8" x="625.64001" y="-174.97736"><tspan x="625.64001" y="-174.97736"/></text><text opacity=".8" x="1576.4218" y="-352.84686"><tspan x="1576.4218" y="-352.84686"/></text><text opacity=".8" x="15.1419" y="-206.28377"><tspan x="15.1419" y="-206.28377"/></text><text opacity=".8" x="-1172.038" y="279.05542"><tspan x="-1172.038" y="279.05542"/></text><text opacity=".8" x="-55.769325" y="339.51318"><tspan x="-55.769325" y="339.51318"/></text><text opacity=".8" x="491.06195" y="496.34308"><tspan x="491.06195" y="496.34308"/></text><text opacity=".8" x="506.66" y="469.82111"><tspan x="506.66" y="469.82111"/></text><text opacity=".8" x="-319.96313" y="343.5127"><tspan x="-319.96313" y="343.5127"/></text><text opacity=".8" x="205.76828" y="74.352547"><tspan x="205.76828" y="74.352547"/></text><text opacity=".8" x="221.36633" y="47.830585"><tspan x="221.36633" y="47.830585"/></text><text opacity=".8" x="-749.54382" y="43.137054"><tspan x="-749.54382" y="43.137054"/></text><text opacity=".8" x="201.23782" y="-134.73236"><tspan x="201.23782" y="-134.73236"/></text><text opacity=".8" x="1168.672" y="273.2301"><tspan x="1168.672" y="273.2301"/></text><text opacity=".8" x="1184.2699" y="246.70813"><tspan x="1184.2699" y="246.70813"/></text><text opacity=".8" x="213.35977" y="242.01462"><tspan x="213.35977" y="242.01462"/></text><text opacity=".8" x="1164.1415" y="64.145134"><tspan x="1164.1415" y="64.145134"/></text><text opacity=".8" x="-397.13834" y="210.70824"><tspan x="-397.13834" y="210.70824"/></text><text opacity=".8" x="-1584.3182" y="696.04742"><tspan x="-1584.3182" y="696.04742"/></text><text opacity=".8" x="-468.0531" y="756.50616"><tspan x="-468.0531" y="756.50616"/></text><text x="673.53894" y="274.0293"><tspan x="673.53894" y="274.0293"/><tspan x="673.53894" y="284.3363"/></text><text opacity=".8" x="976.36365" y="-39.771259"><tspan x="976.36365" y="-39.771259"/></text><text opacity=".8" x="-210.81644" y="445.5679"><tspan x="-210.81644" y="445.5679"/></text><text opacity=".8" x="1449.6766" y="-225.29738"><tspan x="1449.6766" y="-225.29738"/></text><text opacity=".8" x="1465.2747" y="-251.81935"><tspan x="1465.2747" y="-251.81935"/></text><text opacity=".8" x="494.36444" y="-256.51288"><tspan x="494.36444" y="-256.51288"/></text><text opacity=".8" x="1445.1462" y="-434.38239"><tspan x="1445.1462" y="-434.38239"/></text><g fill="#fff" fill-opacity=".77551"><path d="m420.45208 542.62327v.81372h-.81372v-.81372h.81372zm-.81372.81372v.81373h-.81372v-.81373h.81372zm-.81372 0h-.81373v-.81372h.81373v.81372zm-.81373 0v .81373h-.81372v-.81373h.81372zm-.81372 0h-.81372v-.81372h.81372v.81372zm-.81372 0v .81373h-.81373v-.81373h.81373zm-.81373 0h-.81372v-.81372h.81372v.81372zm-.81372 0v .81373h-.81372v-.81373h.81372zm-.81372 0h-.81372v-.81372h.81372v.81372zm-.81372 0v .81373h-.81373v-.81373h.81373zm-.81373 0h-.81372v-.81372h.81372v.81372zm-.81372 0v .81373h-.81372v-.81373h.81372zm-.81372 0h-.81373v-.81372h.81373v.81372zm-.81373 0v .81373h-.81372v-.81373h.81372zm-.81372 0h-.81372v-.81372h.81372v.81372zm-.81372 0v .81373h-.81373v-.81373h.81373z"/><path d="m423.70697 542.62327-1.62744 1.62745h1.62744z" fill-rule="evenodd"/><path d="m387.90316 542.62327v.81372h.81373v-.81372h-.81373zm.81373.81372v.81373h.81372v-.81373h-.81372zm.81372 0h .81372v-.81372h-.81372v.81372zm.81372 0v .81373h.81373v-.81373h-.81373zm.81373 0h .81372v-.81372h-.81372v.81372zm.81372 0v .81373h.81372v-.81373h-.81372zm.81372 0h .81373v-.81372h-.81373v.81372zm.81373 0v .81373h.81372v-.81373h-.81372zm.81372 0h .81372v-.81372h-.81372v.81372zm.81372 0v .81373h.81372v-.81373h-.81372zm.81372 0h .81373v-.81372h-.81373v.81372zm.81373 0v .81373h.81372v-.81373h-.81372zm.81372 0h .81372v-.81372h-.81372v.81372zm.81372 0v .81373h.81373v-.81373h-.81373zm.81373 0h .81372v-.81372h-.81372v.81372zm.81372 0v .81373h.81372v-.81373h-.81372z"/><path d="m424.5207 524.72137h-.81373v-.81373h.81373v.81373zm-.81373-.81373h-.81372v-.81372h.81372v.81372zm0-.81372v-.81372h.81373v.81372h-.81373zm0-.81372h-.81372v-.81372h.81372v.81372zm0-.81372v-.81373h.81373v.81373h-.81373zm0-.81373h-.81372v-.81372h.81372v.81372zm0-.81372v-.81372h.81373v.81372h-.81373zm0-.81372h-.81372v-.81373h.81372v.81373zm0-.81373v-.81372h.81373v.81372h-.81373zm0-.81372h-.81372v-.81372h.81372v.81372zm0-.81372v-.81372h.81373v.81372h-.81373zm0-.81372h-.81372v-.81373h.81372v.81373zm0-.81373v-.81372h.81373v.81372h-.81373zm0-.81372h-.81372v-.81372h.81372v.81372zm0-.81372v-.81373h.81373v.81373h-.81373zm0-.81373h-.81372v-.81372h.81372v.81372z"/><path d="m422.89326 532.8586v.81372h.81372v-.81372zm.81372.81372v.81372h.81372v-.81372zm0 .81372h-.81372v.81373h.81372zm0 .81373v.81372h.81372v-.81372zm0 .81372h-.81372v.81372h.81372zm0 .81372v.81372h.81372v-.81372zm0 .81372h-.81372v.81373h.81372zm0 .81373v.81372h.81372v-.81372zm0 .81372h-.81372v.81372h.81372z"/></g><circle cx="-566.94696" cy="321.78568" fill="#04a" r="0" transform="matrix(-.06432928 -.99792873 .99792873 -.06432928 0 0)"/><text x="352.71121" y="557.0304"><tspan fill="#fff" x="352.71121" y="557.0304"/></text><path clip-path="url(#d)" d="m12.611328 10.984375c-.90131 0-1.626953.579724-1.626953 1.300781v23.427735c0 .308756.132551.591535.355469.814453l70.710937 70.710936c.297671.29768.756117.48828 1.271485.48828h22.777344c.90132 0 1.62695-.58167 1.62695-1.30273v-23.427736c0-.308335-.1331-.590127-.35547-.8125l-70.710934-70.710938c-.297649-.297649-.755583-.488281-1.271484-.488281z" fill-opacity=".078431" transform="matrix(.90028919 0 0 .90028919 383.79127 503.1958)"/><path d="m395.14511 513.08491c-.81144 0-1.46473.52192-1.46473 1.17108v21.09174c0 .64916.65329 1.17284 1.46473 1.17284h20.5062c.81145 0 1.46473-.52368 1.46473-1.17284v-21.09174c0-.64916-.65328-1.17108-1.46473-1.17108zm10.13881 3.91767c.69059 0 1.24669.5561 1.24669 1.24669s-.5561 1.24669-1.24669 1.24669-1.24669-.5561-1.24669-1.24669.5561-1.24669 1.24669-1.24669zm-.004 4.98676h.007c.68843 0 1.24317.553 1.24317 1.24141v8.73386c0 .68847-.55474 1.24317-1.24317 1.24317h-.007c-.68843 0-1.24318-.5547-1.24318-1.24317v-8.73386c0-.68841.55475-1.24141 1.24318-1.24141z" fill="url(#c)"/></g></svg>