<svg height="64" width="64" xmlns="http://www.w3.org/2000/svg" xmlns:xlink="http://www.w3.org/1999/xlink"><linearGradient id="a" gradientUnits="userSpaceOnUse" x1="449.42804" x2="449.54932" y1="540.74573" y2="518.40662"><stop offset="0" stop-color="#bec1c7"/><stop offset="1" stop-color="#dddfe2"/></linearGradient><linearGradient id="b" gradientTransform="matrix(.24841536 0 0 .24427878 433.38377 517.17091)" gradientUnits="userSpaceOnUse" x1="10.09375" x2="122.719" y1="107.36093" y2="107.36093"><stop offset="0" stop-color="#1a1a1a"/><stop offset=".11054216" stop-color="#2c2c2e"/><stop offset=".29001436" stop-color="#2b2b2d"/><stop offset=".5118711" stop-color="#2a2b2d"/><stop offset=".75173318" stop-color="#2b2b2d"/><stop offset=".89659214" stop-color="#323232"/><stop offset="1" stop-color="#171717"/></linearGradient><linearGradient id="c" gradientTransform="matrix(.50539571 0 0 1 229.14839 2.166555)" gradientUnits="userSpaceOnUse" x1="451.02078" x2="451.02078" y1="544.14978" y2="543.0885"><stop offset="0" stop-color="#197cf1"/><stop offset="1" stop-color="#20bcfa"/></linearGradient><linearGradient id="d" gradientUnits="userSpaceOnUse" x1="467.17453" x2="467.17453" y1="546.953375" y2="544.830825"><stop offset="0" stop-color="#040404"/><stop offset="1" stop-color="#121212" stop-opacity=".908163"/></linearGradient><g fill="#a1a7ae" stroke="#909296" stroke-width="2.042204" transform="matrix(.03864044 -.03102609 .03850751 .0311332 13.21163 26.5309)"><g stroke="none"><path d="m435.89128 541.07281.24841 3.91531c0 .40601.33238.73288.74525.73288h25.99045c.41287 0 .74526-.32687.74526-.73288l.24841-3.91531z" fill="url(#b)" transform="matrix(24.469326 24.385142 -30.26521 30.369685 5246.5277 -26793.469)"/><path d="m438.12877 518.12187h23.25963c.41287 0 .74526.32687.74526.73287l1.739 22.0998c0 .406-.33237.73288-.74524.73288h-26.48903c-.41287 0-.74524-.32688-.74524-.73288l1.49038-22.09974c0-.406.33238-.73293.74524-.73293z" fill="url(#a)" transform="matrix(24.469326 24.385142 -30.26521 30.369685 5246.5277 -26793.469)"/><rect fill="url(#c)" height=".768874" ry=".384437" transform="matrix(24.469326 24.385142 -30.26521 30.369685 5147.0474 -27020.537)" width="11.463281" x="450.87326" y="545.61273"/><ellipse cx="467.08929" cy="546.02448" fill="url(#d)" opacity=".452" rx="1.06128" ry="1.061274" transform="matrix(24.469326 24.385142 -30.26521 30.369685 5147.0474 -27020.537)"/></g><path d="m63 73.215c2.824 0 5.27-1.031 7.332-3.096 2.064-2.063 3.098-4.508 3.098-7.332v-52.144c0-2.825-1.033-5.269-3.098-7.332-2.062-2.065-4.507-3.097-7.332-3.097s-5.269 1.033-7.333 3.097c-2.064 2.063-3.096 4.508-3.096 7.332v52.144c0 2.824 1.032 5.269 3.096 7.332 2.064 2.065 4.509 3.096 7.333 3.096z" fill="#e3e8ea" opacity=".668" transform="matrix(.2075148 .20680086 -.25666742 .25755343 55.689598 920.98858)"/><path d="m119.014 45.269c-4.373-8.744-10.523-16.077-18.453-21.997-2.281-1.738-4.861-2.417-7.74-2.037s-5.16 1.738-6.844 4.073c-1.738 2.281-2.403 4.847-1.996 7.699.406 2.853 1.752 5.147 4.033 6.885 5.321 4.019 9.438 8.935 12.342 14.747 2.906 5.811 4.358 12.004 4.358 18.575 0 5.65-1.1 11.04-3.299 16.173-2.2 5.133-5.174 9.573-8.922 13.321-3.748 3.747-8.187 6.721-13.32 8.921s-10.524 3.301-16.173 3.301c-5.648 0-11.039-1.101-16.172-3.301s-9.573-5.174-13.321-8.921c-3.747-3.748-6.721-8.188-8.921-13.321s-3.3-10.523-3.3-16.173c0-6.571 1.453-12.763 4.359-18.575 2.906-5.811 7.02-10.727 12.343-14.747 2.281-1.739 3.625-4.033 4.033-6.885.407-2.851-.258-5.418-1.996-7.699-1.684-2.335-3.951-3.693-6.803-4.073s-5.446.299-7.781 2.037c-7.931 5.92-14.081 13.253-18.454 21.997-4.373 8.745-6.559 18.06-6.559 27.945 0 8.474 1.657 16.566 4.97 24.279 3.314 7.713 7.767 14.366 13.362 19.961 5.594 5.594 12.248 10.049 19.961 13.36 7.713 3.314 15.806 4.972 24.279 4.972s16.566-1.658 24.279-4.972c7.713-3.312 14.367-7.766 19.961-13.36s10.047-12.248 13.361-19.961c3.313-7.713 4.969-15.806 4.969-24.279 0-9.885-2.183-19.2-6.556-27.945z" fill="#e3e8ea" opacity=".668" transform="matrix(.2075148 .20680086 -.25666742 .25755343 55.689598 920.98858)"/><path d="m481.095 209.443-47.955-47.979c-1.832-1.823-4.301-2.852-6.881-2.852-2.582 0-5.051 1.02-6.883 2.844l-47.971 47.986c-3.809 3.791-3.809 9.956 0 13.749l6.691 6.683-36.563 36.548-84.964-16.617 139.673-139.672 17.684 17.684c1.897 1.897 4.65 2.669 7.248 2.031 2.614-.638 4.7-2.581 5.514-5.139l32.533-102.519c.859-2.732.127-5.727-1.898-7.759-2.039-2.023-5.018-2.757-7.757-1.888l-102.52 32.525c-2.55.813-4.509 2.9-5.146 5.504-.638 2.614.143 5.361 2.039 7.257l17.699 17.701-193.456 193.449-17.923-91.67 29.027-29.027c14.099 2.868 29.314-1.141 40.244-12.069 17.35-17.334 17.35-45.444-.017-62.794-17.317-17.334-45.422-17.31-62.771.024-10.945 10.929-14.943 26.151-12.075 40.251l-38.221 38.219c-5.768 5.761-8.284 14.004-6.707 22.003l26.75 136.765-59.664 59.655c-17.699-5.313-37.631-1.202-51.618 12.785-20.265 20.282-20.282 53.14-.017 73.422 20.297 20.296 53.164 20.296 73.444.016 13.989-13.98 18.082-33.895 12.777-51.603l113.448-113.44 130.066 25.441c1.562.304 3.139.455 4.7.455 6.42 0 12.667-2.533 17.301-7.17l45.756-45.756 6.692 6.692c1.832 1.823 4.301 2.843 6.883 2.843 2.58 0 5.049-1.027 6.881-2.852l47.955-47.978c3.809-3.799 3.809-9.949.002-13.748z" fill="#a1a7ae" stroke="#909296" stroke-width="2.042204"/></g></svg>