<svg viewBox="0 0 16 16" xmlns="http://www.w3.org/2000/svg"><path d="m8 .5c-4.1226865 0-7.5 3.5323269-7.5 7.8442387 0 3.1835993 1.8258175 5.9288773 4.4065126 7.1557613l.3641456-.840454c-2.2718831-1.080072-3.8883053-3.500821-3.8883053-6.3153073 0-3.8085756 2.9762081-6.9213871 6.6176471-6.9213871s6.617647 3.1128115 6.617647 6.9213871c0 2.7261143-1.533644 5.1055493-3.723739 6.2292483l.388654.827636c2.486028-1.275536 4.217438-3.969469 4.217438-7.0568843 0-4.3119118-3.377313-7.8442387-7.5-7.8442387zm0 2.3071289c-2.927216 0-5.2941176 2.4755387-5.2941176 5.5371098 0 2.2608173 1.2995715 4.1778093 3.1285014 5.0335683l.3606442-.840453c-1.5237608-.712972-2.6067927-2.301412-2.6067927-4.1931153 0-2.5674035 1.9570301-4.6142582 4.4117647-4.6142582 2.454734 0 4.411765 2.0468547 4.411765 4.6142582 0 1.8051483-1.004849 3.3983123-2.4877462 4.1528313l.3869062.829468c1.781566-.906488 2.983193-2.819483 2.983193-4.9822993 0-3.0615711-2.366902-5.5371098-5.294118-5.5371098zm0 2.3071289c-1.6963974 0-3.0882353 1.455721-3.0882353 3.229981 0 1.32573.7224514 2.4724442 1.8119748 2.9608152l.3466386-.847778c-.7632792-.342134-1.2762605-1.1318122-1.2762605-2.1130373 0-1.2709237.9907328-2.3071293 2.2058824-2.3071293 1.2151498 0 2.205883 1.0362056 2.205883 2.3071294 0 .9279084-.5115005 1.6883872-1.2570032 2.0782462l.3956585.825806c1.0190707-.532923 1.7436967-1.6172838 1.7436967-2.9040523 0-1.7742599-1.3918375-3.2299809-3.088235-3.2299809zm0 2.3071284a.88228699.92278258 0 0 0 -.8823529.9228525.88228699.92278258 0 0 0  .8823529.9228507.88228699.92278258 0 0 0  .8823529-.9228507.88228699.92278258 0 0 0 -.8823529-.9228525z" fill="#4d4d4d"/></svg>