<svg height="64" width="64" xmlns="http://www.w3.org/2000/svg" xmlns:xlink="http://www.w3.org/1999/xlink"><linearGradient id="a"><stop offset="0" stop-color="#1f1f1f"/><stop offset="1" stop-color="#444"/></linearGradient><linearGradient id="b"><stop offset="0" stop-color="#060606"/><stop offset="1" stop-color="#343434"/></linearGradient><linearGradient id="c" gradientUnits="userSpaceOnUse" x1="747.80255" x2="746.38837" y1="499.836619" y2="417.812199"><stop offset="0" stop-color="#a8a8a8"/><stop offset="1" stop-color="#ccc"/></linearGradient><linearGradient id="d" gradientTransform="matrix(.99806114 0 0 1 1.4832 0)" gradientUnits="userSpaceOnUse" x1="744.57147" x2="744.57147" y1="408.86908" y2="301.798"><stop offset="0" stop-color="#cbcbcb"/><stop offset=".60000002" stop-color="#e9e9e9"/><stop offset="1" stop-color="#bebebe"/></linearGradient><linearGradient id="e" gradientUnits="userSpaceOnUse" x1="744.57147" x2="744.57147" y1="380.99801" y2="310.99801"><stop offset="0" stop-color="#333"/><stop offset=".64285713" stop-color="#4e4e4e"/><stop offset="1" stop-color="#333"/></linearGradient><linearGradient id="f" gradientUnits="userSpaceOnUse" x1="735.7807" x2="736.69702" xlink:href="#b" y1="464.760454" y2="504.260454"/><linearGradient id="g" gradientUnits="userSpaceOnUse" x1="745.90625" x2="742.22821" xlink:href="#b" y1="499.56796" y2="438.56796"/><linearGradient id="h" gradientTransform="matrix(.99867048 0 0 1 .185367 0)" gradientUnits="userSpaceOnUse" x1="736.45404" x2="736.62952" xlink:href="#a" y1="501.81488" y2="571.81488"/><linearGradient id="i" gradientUnits="userSpaceOnUse" x1="743.7807" x2="748.19672" y1="547.50397" y2="463.91818"><stop offset="0" stop-color="#f4f4f4"/><stop offset="1" stop-color="#b0b0b0"/></linearGradient><linearGradient id="j" gradientUnits="userSpaceOnUse" x1="754.57147" x2="752.57147" xlink:href="#a" y1="302.79797" y2="258.79797"/><linearGradient id="k" gradientUnits="userSpaceOnUse" x1="736.81683" x2="738.93817" y1="307.46643" y2="233.2202"><stop offset="0" stop-color="#cbcbcb"/><stop offset="1" stop-color="#f3f3f3"/></linearGradient><g fill-rule="evenodd" transform="translate(-85.57145 -604.79799)"><path d="m94.55645 662.31116h46.311l.3.50383v.82199h-46.911003v-.8494z" fill="#2a2a2a"/><g transform="matrix(.15590772 0 0 .15590772 2.306184 574.43716)"><path d="m588.94957 310.33196h298.63015l31.84975 30.50885v75.55717h-360.339v-75.91072z" fill="url(#d)"/><path d="m919.62949 416.34827v74.73071c0 7.6452-6.1548 13.8-13.8 13.8h-333.02448c-7.64521 0-13.80001-6.1548-13.80001-13.8v-75.48071z" fill="url(#c)"/><path d="m629.20947 309.62056h220.41632l10 21.37742v38.72667s.0574 15.55634-15.55638 15.55634h-209.30362s-15.05632-.61359-15.55632-14.84924v-39.68377z" fill="url(#e)"/><path d="m621.58398 443.13195h235.4665c9.79345 0 17.6777 7.88426 17.6777 17.6777v44.19433h-270.8219v-44.19433c0-9.79344 7.88426-17.6777 17.6777-17.6777z" fill="url(#g)"/><path d="m638.45834 461.5169h205.06099c9.79343 0 17.67767 7.88424 17.67767 17.67767v25.80941h-240.41632v-25.80941c0-9.79343 7.88424-17.67767 17.67766-17.67767z" fill="url(#f)"/><path d="m603.83585 504.87898h270.81488l15.97874 61.87185h-300.775z" fill="url(#h)"/><path d="m636.33246 461.51691h210.36427l10 89.80256h-230.36427z" fill="url(#i)"/><path d="m616.57147 248.99797h243v61.000015h-243z" fill="url(#j)"/><path d="m633.9328 233.2202h211.07138v77.074646h-211.07138z" fill="url(#k)"/><path d="m897.29645 369.54797h22.12492v14.75h-22.12492c-4.08575 0-7.375-3.28925-7.375-7.375s3.28925-7.375 7.375-7.375z" fill="#3b3b3b"/><rect fill="#d5d5d5" height="8.957553" ry="4.478777" width="19.982233" x="895.28961" y="372.54044"/></g><path d="m94.55645 662.31116h46.311l.3.50383v.82199h-46.911003v-.8494z" fill="#2a2a2a"/><g transform="matrix(.15590772 0 0 .15590772 2.306184 574.43716)"><path d="m588.94957 310.33196h298.63015l31.84975 30.50885v75.55717h-360.339v-75.91072z" fill="url(#d)"/><path d="m919.62949 416.34827v74.73071c0 7.6452-6.1548 13.8-13.8 13.8h-333.02448c-7.64521 0-13.80001-6.1548-13.80001-13.8v-75.48071z" fill="url(#c)"/><path d="m629.20947 309.62056h220.41632l10 21.37742v38.72667s.0574 15.55634-15.55638 15.55634h-209.30362s-15.05632-.61359-15.55632-14.84924v-39.68377z" fill="url(#e)"/><path d="m621.58398 443.13195h235.4665c9.79345 0 17.6777 7.88426 17.6777 17.6777v44.19433h-270.8219v-44.19433c0-9.79344 7.88426-17.6777 17.6777-17.6777z" fill="url(#g)"/><path d="m638.45834 461.5169h205.06099c9.79343 0 17.67767 7.88424 17.67767 17.67767v25.80941h-240.41632v-25.80941c0-9.79343 7.88424-17.67767 17.67766-17.67767z" fill="url(#f)"/><path d="m603.83585 504.87898h270.81488l15.97874 61.87185h-300.775z" fill="url(#h)"/><path d="m636.33246 461.51691h210.36427l10 89.80256h-230.36427z" fill="url(#i)"/><path d="m616.57147 248.99797h243v61.000015h-243z" fill="url(#j)"/><path d="m633.9328 233.2202h211.07138v77.074646h-211.07138z" fill="url(#k)"/><path d="m897.29645 369.54797h22.12492v14.75h-22.12492c-4.08575 0-7.375-3.28925-7.375-7.375s3.28925-7.375 7.375-7.375z" fill="#3b3b3b"/><rect fill="#d5d5d5" height="8.957553" ry="4.478777" width="19.982233" x="895.28961" y="372.54044"/></g></g></svg>