<svg height="64" viewBox="0 0 64 64" width="64" xmlns="http://www.w3.org/2000/svg" xmlns:xlink="http://www.w3.org/1999/xlink"><linearGradient id="a" gradientTransform="matrix(1.0749904 0 0 1.1792904 56.688954 -.257355)" gradientUnits="userSpaceOnUse" x1="-74.929466" x2="-75.259552" y1="52.199436" y2="2.356489"><stop offset="0" stop-color="#f06"/><stop offset="1" stop-color="#ff2a7f"/></linearGradient><g transform="translate(56.391766 -.176777)"><rect fill="url(#a)" height="60.531002" ry="2.864331" width="44" x="-46.391766" y="1.645775"/><g fill="#fff"><path d="m-34.991119 26.1742c2.300294-5.2663 8.665203-3.991 10.571927-.3783 1.745425-3.5882 8.507941-5.4462 10.572561.372 2.500023 7.728-5.90604 11.9558-10.585671 17.0849-4.581665-4.9366-13.060114-9.2225-10.558817-17.0786z"/><circle cx="-30.490461" cy="18.176777" r="2"/><circle cx="-18.490461" cy="18.176777" r="2"/></g><g><path d="m-46.391766 51.264668v5.71289 2.199219.5c0 1.385 1.115 2.5 2.5 2.5h39c1.385 0 2.5-1.115 2.5-2.5v-.5-2.199219-5.71289z" fill-opacity=".588235"/><g fill="#fff"><path d="m-31.720078 59.923729h-.903321v-7.5h.903321z"/><path d="m-30.518907 57.233299q0-.776367.302735-1.396484.307617-.620117.849609-.957031.546875-.336914 1.245117-.336914 1.079102 0 1.743164.74707.668946.74707.668946 1.987305v.06348q0 .771485-.297852 1.386719-.292969.610351-.844726.952148-.546875.341797-1.259766.341797-1.074219 0-1.743164-.74707-.664063-.74707-.664063-1.977539v-.06348zm.908204.107422q0 .878906.405273 1.411133.410156.532227 1.09375.532227.688477 0 1.09375-.53711.405273-.541992.405273-1.513672 0-.86914-.415039-1.40625-.410156-.541992-1.09375-.541992-.668945 0-1.079101.532227-.410156.532226-.410156 1.523437z"/><path d="m-22.911485 58.698143 1.308594-4.057617h.922852l-1.894532 5.283203h-.688476l-1.914063-5.283203h.922852z"/><path d="m-17.67711 60.021385q-1.074218 0-1.748047-.703125-.673828-.708008-.673828-1.889648v-.166016q0-.786133.297852-1.401367.302734-.620117.839844-.966797.541992-.351562 1.171875-.351562 1.030273 0 1.601562.678711.571289.67871.571289 1.943359v.375976h-3.579101q.01953.78125.454101 1.264649.439453.478516 1.113281.478516.478516 0 .810547-.195313.332032-.195312.581055-.517578l.551758.429687q-.664063 1.020508-1.992188 1.020508zm-.112304-4.736328q-.546875 0-.917969.400391-.371094.395508-.458985 1.113281h2.646485v-.06836q-.03906-.688477-.371094-1.064454-.332031-.380859-.898437-.380859z"/></g></g></g></svg>