<svg height="64" viewBox="0 0 64 64" width="64" xmlns="http://www.w3.org/2000/svg" xmlns:xlink="http://www.w3.org/1999/xlink"><linearGradient id="a" gradientTransform="matrix(1.0749904 0 0 1.0292896 56.688954 -.015285)" gradientUnits="userSpaceOnUse" x1="-74.929466" x2="-75.259552" y1="52.199436" y2="2.356489"><stop offset="0" stop-color="#8798a9"/><stop offset="1" stop-color="#aeb6be"/></linearGradient><g transform="translate(56.391766 -.176777)"><rect fill="#3d434a" height="7.69929" ry="2.5" width="44" x="-46.391766" y="54.477486"/><rect fill="url(#a)" height="52.831711" ry="2.5" width="44" x="-46.391766" y="1.645775"/><path d="m-46.391766 51.264462h44v7.911841h-44z" fill="#3d434a"/><g fill="#fff" transform="matrix(.81954967 0 0 .81954967 -4.634283 10.221831)"><path d="m-38.518632 59.820313q-.95 0-1.64-.75-.69-.75-.69-1.86 0-1.11.69-1.86.69-.75 1.64-.75.56 0 1 .24.45.24.67.6h.04l-.04-.68v-2.26h.92v7.16h-.88v-.68h-.04q-.22.36-.67.6-.44.24-1 .24zm.15-.84q.65 0 1.1-.48.46-.48.46-1.29 0-.81-.46-1.29-.45-.48-1.1-.48-.64 0-1.1.49-.46.48-.46 1.28 0 .8.46 1.29.46.48 1.1.48z"/><path d="m-32.645507 59.820313q-1.11 0-1.81-.74-.69-.74-.69-1.87 0-1.07.67-1.84.68-.77 1.73-.77 1.09 0 1.74.71.66.71.66 1.9l-.01.17h-3.87q.04.74.49 1.17.46.43 1.07.43.99 0 1.34-.84l.82.34q-.24.57-.79.96-.55.38-1.35.38zm1.32-3.2q-.03-.42-.39-.8-.35-.38-1.05-.38-.51 0-.89.32-.37.32-.51.86z"/><path d="m-27.63535 59.820313q-.82 0-1.36-.4-.53-.4-.78-1l .82-.34q.39.92 1.33.92.43 0 .7-.19.28-.19.28-.5 0-.48-.67-.65l-.99-.24q-.47-.12-.89-.45-.42-.34-.42-.91 0-.65.57-1.05.58-.41 1.37-.41.65 0 1.16.3.51.29.73.84l-.8.33q-.27-.65-1.12-.65-.41 0-.69.17-.28.17-.28.46 0 .42.65.57l.97.23q.69.16 1.02.55.33.39.33.88 0 .66-.54 1.1-.54.44-1.39.44z"/><path d="m-23.984569 52.500313v4.41l2.12-2.15h1.18v.04l-1.91 1.91 2 2.91v.04h-1.11l-1.54-2.31-.74.74v1.57h-.92v-7.16z"/><path d="m-17.96035 59.740313q-.77 0-1.18-.41-.4-.41-.4-1.16v-2.57h-.86v-.84h.86v-1.5h.92v1.5h1.2v.84h-1.2v2.5q0 .8.66.8.25 0 .42-.08l.32.79q-.3.13-.74.13z"/><path d="m-16.173788 55.350313q.71-.75 1.81-.75 1.1 0 1.81.75.71.74.71 1.86 0 1.12-.71 1.87-.71.74-1.81.74-1.1 0-1.81-.74-.71-.75-.71-1.87 0-1.12.71-1.86zm.68 3.15q.48.48 1.13.48.65 0 1.12-.48.48-.49.48-1.29 0-.8-.48-1.28-.47-.49-1.12-.49-.65 0-1.13.49-.47.48-.47 1.28 0 .8.47 1.29z"/><path d="m-8.5069128 59.820313q-.56 0-1.01-.24-.44-.24-.6600002-.6h-.04l.04.68v2.16h-.92v-7.06h.88v.68h.04q.2200002-.36.6600002-.6.45-.24 1.01-.24.95 0 1.64.75.69.75.69 1.86 0 1.11-.69 1.86-.69.75-1.64.75zm-.15-.84q.64 0 1.1-.48.46-.49.46-1.29 0-.8-.46-1.28-.46-.49-1.1-.49-.65 0-1.11.48-.4500002.48-.4500002 1.29 0 .81.4500002 1.29.46.48 1.11.48z"/></g><g fill="#3d434a" stroke-width="1.299897" transform="matrix(1.0814668 0 0 1.0814668 -401.493282126415 -397.988142989413)"><g fill="#3d434a" transform="translate(.446429 -.044643)"><path d="m355.83984 380.40234c-.0604.037-.0851.0689-.0703.0449-.6791 1.14846-.68514 2.65218-.99219 4.00195a.4982215.4982215 0 0 1 0 .0703c-.1505 1.47805-.63371 2.98202-.24609 4.40039a.4982215.4982215 0 0 1  .0391.0899c.0721.0932.16294.17837.2168.18945.0403.008.10045-.0102.24023-.10742.15127-.1053.24855-.2987.29297-.57618a.4982215.4982215 0 0 1  .0859-.20898c.60561-2.40329 1.03769-4.92777.87695-7.39844a.4982215.4982215 0 0 1 0-.0254c-.021-.11401-.0566-.18236-.16601-.31445-.0753-.0907-.12141-.13888-.14063-.15234-.0192-.0135-.003-.0158-.0723-.0117a.4982215.4982215 0 0 1 -.0645-.002z" fill="#3d434a"/><path d="m361.90234 381.83789a.46681363.46681363 0 0 1 -.0508.004c-1.04198.5071-1.57789 1.73208-2.29883 2.71679a.46681363.46681363 0 0 1 -.0527.13868c-.90784 1.60892-2.06389 3.20366-2.18555 5.06445.006.29418.17347.46224.34766.5.16423.0345.4648-.0716.58789-.25586.0107-.0266.002-.0534.0176-.0762a.46681363.46681363 0 0 1  .0117-.0176c1.64599-2.26173 2.89002-4.94442 3.91211-7.55078a.46681363.46681363 0 0 1  .002-.008c.0707-.17114.0746-.23837.0117-.36719-.0185-.0381-.20261-.1609-.30274-.14844z" fill="#3d434a" transform="translate(-.491071 -.267857)"/></g><path d="m345.66985 382.2774c-.16726.0311-.4161.1809-.59375.25-.62832.23837-.975.77698-1.125 1.40625-.15274.64382-.10183 1.36084 0 2.09375.10181.73145.24752 1.48649.40625 2.0625.13645.49836.23415.7408.28125.90625v.125c0 .0545-.0261.05-.0625.0937-.02.0109.02.0625 0 .0625-.0453.0346-.0999.0625-.15625.0625-.11101.007-.19778-.0334-.3125-.0625-.0782-.0181-.17995-.0807-.15625-.0625-.0363-.0218-.1013-.0243-.125-.0625 0 .0146.0219.0143 0-.0312-.0254-.0473-.0537-.1664-.0937-.25-.0891-.18946-.15908-.40895-.28125-.6875-.24381-.55472-.55754-1.23609-.90625-1.875-.34999-.64145-.76223-1.22354-1.21875-1.625-.22817-.20054-.50982-.40155-.78125-.46875-.26199-.0655-.57287-.01-.84375.125-.69997.38836-1.09619 1.02422-1.25 1.6875-.15456.67346-.0815 1.44899.0312 2.125.11454.67454.29189 1.23077.40625 1.6875.049.19254.1087.37235.125.46875 0 .0955-.0389.3448-.0625.4375-.11818.40928-.40559 1.09375-.40625 1.09375 0 0-5.45294 14.48293 6.25 13.46875.0964-.007.31535-.0625.40625-.0625 2.29827-.46272 4.47308-1.15769 6.40625-1.9375.3798-.182.87805-.36282 1.4375-.625 1.11885-.52418 2.52451-1.19587 3.875-1.9375 1.35103-.74219 2.60454-1.533 3.5625-2.375.9596-.84327 1.65997-1.76731 1.53125-2.6875-.20364-1.48345-1.18879-2.58587-2.5-3.4375-1.31613-.85473-2.95728-1.44464-4.59375-1.875-1.63576-.43018-3.2241-.78002-4.4375-.96875-.60652-.0945-1.1749-.122-1.53125-.1875-.10544-.0181-.16175-.0443-.21875-.0625-.0307-.004-.0334-.0131-.0625-.0312-.0363-.0218-.1031-.0243-.125-.0625-.02-.0363 0-.0832 0-.125 0-.0163-.00017-.0407 0-.0625v-.90625c-.02-.748-.064-1.73553-.21875-2.65625-.15637-.92455-.39754-1.80879-.90625-2.40625-.30235-.35545-.73038-.5887-1.25-.625-.15636-.0182-.3311-.0309-.5 0z" fill="#3d434a"/></g></g></svg>