<svg height="64" viewBox="0 0 64 64" width="64" xmlns="http://www.w3.org/2000/svg" xmlns:xlink="http://www.w3.org/1999/xlink"><linearGradient id="a" gradientTransform="matrix(1.0749904 0 0 1.0292896 56.688954 -.015285)" gradientUnits="userSpaceOnUse" x1="-74.929466" x2="-75.259552" y1="52.199436" y2="2.356489"><stop offset="0" stop-color="#8798a9"/><stop offset="1" stop-color="#aeb6be"/></linearGradient><g transform="translate(56.391766 -.176777)"><rect fill="#3d434a" height="7.69929" ry="2.5" width="44" x="-46.391766" y="54.477486"/><rect fill="url(#a)" height="52.831711" ry="2.5" width="44" x="-46.391766" y="1.645775"/><path d="m-46.391766 51.264462h44v7.911841h-44z" fill="#3d434a"/><g transform="matrix(.86557708693 0 0 .86557708693 -43.839835132721 -859.68183310948)"><path d="m11.447345 1036.9442h11.636697l-.000321-24.4983-11.533282.0003c-1.268259-.094-1.7825661.023-1.7825661 1.1721v22.0916c-.07966 1.261.4462081 1.2343 1.6794721 1.2343z" fill="#3d434a" fill-rule="evenodd"/><path d="m33.843953 1036.9367h-5.282394l-2.708421-2.2737v-19.9506l1.855796-2.2737h6.135019c.848365-.094.916631.023.916631 1.1721v22.0916c.05328 1.261-.09168 1.2343-.916631 1.2343z" fill="none" stroke="#3d434a" stroke-width=".811708"/><path d="m31.841628 1038.1035-10.029586-1.1715-.00002-24.4861 9.945926-.9324c1.230149-.094 1.296492.2446 1.296492 1.3937l-.08368 23.3688c.07726 1.261.06707 1.8275-1.129132 1.8275z" fill="#3d434a" fill-rule="evenodd"/></g><g fill="#9ca8b4" transform="matrix(-.00073528 -.8933959 1.2269177 -.0005354 -1284.347928 25.892955)"><rect height="2.230492" rx="0" ry=".312" transform="matrix(.9999997 -.00076878 -.00033677 .99999994 0 0)" width="5.212101" x="-7.661656" y="1021.9603"/><rect height="2.230492" rx="0" ry=".312" transform="matrix(.99999996 -.00028909 -.00019502 .99999998 0 0)" width="8.026417" x="-7.788025" y="1025.1064"/><rect height="2.230492" rx="0" ry=".312" transform="matrix(1 -.00005846 -.00005327 1 0 0)" width="10.840734" x="-7.957212" y="1028.3694"/></g></g></svg>