<svg height="64" viewBox="0 0 64 64" width="64" xmlns="http://www.w3.org/2000/svg" xmlns:xlink="http://www.w3.org/1999/xlink"><linearGradient id="a" gradientTransform="matrix(1.0749904 0 0 1.0292896 113.08072 -.192062)" gradientUnits="userSpaceOnUse" x1="30.601027" x2="31.877569" y1="62.523117" y2="1.97774"><stop offset="0" stop-color="#924db1"/><stop offset="1" stop-color="#be6ce0"/></linearGradient><rect fill="url(#a)" height="60.531002" ry="2.864331" width="44" x="10" y="1.734499"/><path d="m10.000001 51.353392v5.71289 2.199219.5c0 1.385 1.115 2.5 2.5 2.5h38.999998c1.385 0 2.5-1.115 2.5-2.5v-.5-2.199219-5.71289z" fill="#3f224b"/><g fill="#fff" stroke-width=".81955"><path d="m26.531634 59.070773q-.458948 0-.827746-.196692-.360601-.196692-.540902-.49173h-.03278v.557294h-.721206v-5.867975h.753986v1.852182l-.03278.557294h.03278q.180301-.295038.540902-.49173.368798-.196692.827746-.196692.778572 0 1.344061.614662.565489.614662.565489 1.524363 0 .9097-.565489 1.524362-.565489.614662-1.344061.614662zm-.122933-.688422q.524512 0 .901505-.393383.376993-.40158.376993-1.057219 0-.65564-.376993-1.049024-.376993-.401579-.901505-.401579-.532707 0-.9097.393383-.368797.393384-.368797 1.05722 0 .663835.368797 1.057219.376993.393383.9097.393383z"/><path d="m29.082994 58.939645v-4.015793h.721204v.557294h.03278q.172105-.286843.524512-.483535.360602-.204887.713008-.204887.934287 0 1.270302.770377.49173-.770377 1.40143-.770377.713008 0 1.07361.458948.360602.450752.360602 1.229324v2.458649h-.753986v-2.343912q0-.606467-.221278-.860527-.221279-.25406-.672031-.25406-.442557 0-.737595.376992-.286842.376993-.286842.860528v2.220979h-.753986v-2.343912q0-.606467-.221278-.860527-.221279-.25406-.672031-.25406-.442557 0-.737595.376992-.286842.376993-.286842.860528v2.220979z"/><path d="m38.151824 59.070773q-.458948 0-.827746-.196692-.360602-.196692-.540902-.49173h-.03278l.03278.557294v1.770228h-.753986v-5.786021h.721204v.557294h.03278q.1803-.295038.540902-.49173.368798-.196692.827746-.196692.778572 0 1.344061.614662.565489.614662.565489 1.524363 0 .9097-.565489 1.524362-.565489.614662-1.344061.614662zm-.122933-.688422q.524512 0 .901505-.393383.376993-.40158.376993-1.057219 0-.65564-.376993-1.049024-.376993-.401579-.901505-.401579-.532707 0-.9097.393383-.368797.393384-.368797 1.05722 0 .663835.368797 1.057219.376993.393383.9097.393383z"/></g><path d="m23.957031 19c-.52985 0-.957031.464509-.957031 1.042969v15.912109c0 .57846.427181 1.044922.957031 1.044922h16.085939c.52985 0 .95703-.466462.95703-1.044922v-15.912109c0-.57846-.42718-1.042969-.95703-1.042969zm10.181641 6.431641 3.861328 5.136718h-12l3-3.849609 2.138672 2.574219z" fill="#3f224b"/></svg>