<svg height="64" viewBox="0 0 64 64" width="64" xmlns="http://www.w3.org/2000/svg" xmlns:xlink="http://www.w3.org/1999/xlink">
  <linearGradient id="a" gradientUnits="userSpaceOnUse" x1="-599.06584" x2="-599.06584" y1="-437.61242" y2="-486.41219">
    <stop offset="0" stop-color="#00a199" />
    <stop offset="1" stop-color="#00f89a" stop-opacity=".988235" />
  </linearGradient>
  <linearGradient id="b" gradientTransform="matrix(1.0749904 0 0 1.0292896 56.688954 -.015285)" gradientUnits="userSpaceOnUse" x1="-74.929466" x2="-75.259552" y1="52.199436" y2="2.356489">
    <stop offset="0" stop-color="#0074e3" />
    <stop offset="1" stop-color="#03b8ff" />
  </linearGradient>
  <g transform="translate(56.391766 -.176777)">
    <rect fill="#003564" height="7.69929" ry="2.5" width="44" x="-46.391766" y="54.477486" />
    <rect fill="url(#b)" height="52.831711" ry="2.5" width="44" x="-46.391766" y="1.645775" />
    <path d="m-46.391766 51.264462h44v7.911841h-44z" fill="#003564" />
    <text opacity=".8" x="698.3075" y="16.194937">
      <tspan x="698.3075" y="16.194937" />
    </text>
    <text opacity=".8" x="722.26843" y="-24.546762">
      <tspan x="722.26843" y="-24.546762" />
    </text>
    <text opacity=".8" x="-748.28998" y="-54.624916">
      <tspan x="-748.28998" y="-54.624916" />
    </text>
    <text opacity=".8" x="-2571.9761" y="690.92859">
      <tspan x="-2571.9761" y="690.92859" />
    </text>
    <text opacity=".8" x="-633.79889" y="-439.94589">
      <tspan x="-633.79889" y="-439.94589" />
    </text>
    <text opacity=".8" x="173.80324" y="-853.41608">
      <tspan x="173.80324" y="-853.41608" />
    </text>
    <text opacity=".8" x="197.76419" y="-894.15771">
      <tspan x="197.76419" y="-894.15771" />
    </text>
    <text opacity=".8" x="-1293.699" y="-901.36761">
      <tspan x="-1293.699" y="-901.36761" />
    </text>
    <text opacity=".8" x="166.84375" y="-1174.6017">
      <tspan x="166.84375" y="-1174.6017" />
    </text>
    <text opacity=".8" x="1652.9672" y="-547.9104">
      <tspan x="1652.9672" y="-547.9104" />
    </text>
    <text opacity=".8" x="1676.9281" y="-588.65216">
      <tspan x="1676.9281" y="-588.65216" />
    </text>
    <text opacity=".8" x="185.46492" y="-595.86206">
      <tspan x="185.46492" y="-595.86206" />
    </text>
    <text opacity=".8" x="1646.0079" y="-869.09607">
      <tspan x="1646.0079" y="-869.09607" />
    </text>
    <text opacity=".8" x="-752.35138" y="-643.95337">
      <tspan x="-752.35138" y="-643.95337" />
    </text>
    <text opacity=".8" x="-2576.0371" y="101.60017">
      <tspan x="-2576.0371" y="101.60017" />
    </text>
    <text opacity=".8" x="-861.28156" y="194.47231">
      <tspan x="-861.28156" y="194.47231" />
    </text>
    <text opacity=".8" x="247.74271" y="15.290214">
      <tspan x="247.74271" y="15.290214" />
    </text>
    <text opacity=".8" x="271.70364" y="-25.451517">
      <tspan x="271.70364" y="-25.451517" />
    </text>
    <text opacity=".8" x="-1219.7595" y="-32.661507">
      <tspan x="-1219.7595" y="-32.661507" />
    </text>
    <text opacity=".8" x="240.78323" y="-305.89554">
      <tspan x="240.78323" y="-305.89554" />
    </text>
    <text opacity=".8" x="-786.95135" y="-35.37574">
      <tspan x="-786.95135" y="-35.37574" />
    </text>
    <text opacity=".8" x="-2610.6375" y="710.17773">
      <tspan x="-2610.6375" y="710.17773" />
    </text>
    <text opacity=".8" x="-635.85828" y="-896.90625">
      <tspan x="-635.85828" y="-896.90625" />
    </text>
    <text opacity=".8" x="171.74385" y="-1310.3763">
      <tspan x="171.74385" y="-1310.3763" />
    </text>
    <text opacity=".8" x="195.70474" y="-1351.118">
      <tspan x="195.70474" y="-1351.118" />
    </text>
    <text opacity=".8" x="-1295.7584" y="-1358.328">
      <tspan x="-1295.7584" y="-1358.328" />
    </text>
    <text opacity=".8" x="164.78432" y="-1631.5621">
      <tspan x="164.78432" y="-1631.5621" />
    </text>
    <text opacity=".8" x="1650.9078" y="-1004.871">
      <tspan x="1650.9078" y="-1004.871" />
    </text>
    <text opacity=".8" x="1674.8685" y="-1045.6124">
      <tspan x="1674.8685" y="-1045.6124" />
    </text>
    <text opacity=".8" x="183.40547" y="-1052.8224">
      <tspan x="183.40547" y="-1052.8224" />
    </text>
    <text opacity=".8" x="1643.9484" y="-1326.0565">
      <tspan x="1643.9484" y="-1326.0565" />
    </text>
    <text opacity=".8" x="-754.41083" y="-1100.9137">
      <tspan x="-754.41083" y="-1100.9137" />
    </text>
    <text opacity=".8" x="-2578.0967" y="-355.36029">
      <tspan x="-2578.0967" y="-355.36029" />
    </text>
    <text opacity=".8" x="-863.341" y="-262.48813">
      <tspan x="-863.341" y="-262.48813" />
    </text>
    <text opacity=".8" x="-23.326517" y="-21.573954">
      <tspan x="-23.326517" y="-21.573954" />
    </text>
    <text opacity=".8" x=".634424" y="-62.315655">
      <tspan x=".634424" y="-62.315655" />
    </text>
    <text opacity=".8" x="-1269.1823" y="-256.3443">
      <tspan x="-1269.1823" y="-256.3443" />
    </text>
    <text opacity=".8" x="-461.58023" y="-669.81445">
      <tspan x="-461.58023" y="-669.81445" />
    </text>
    <text opacity=".8" x="-437.61929" y="-710.55615">
      <tspan x="-437.61929" y="-710.55615" />
    </text>
    <text opacity=".8" x="-1929.0824" y="-717.76605">
      <tspan x="-1929.0824" y="-717.76605" />
    </text>
    <text opacity=".8" x="-468.53964" y="-991.00031">
      <tspan x="-468.53964" y="-991.00031" />
    </text>
    <text opacity=".8" x="1017.5838" y="-364.30878">
      <tspan x="1017.5838" y="-364.30878" />
    </text>
    <text opacity=".8" x="1041.5447" y="-405.05051">
      <tspan x="1041.5447" y="-405.05051" />
    </text>
    <text opacity=".8" x="-449.91855" y="-412.2605">
      <tspan x="-449.91855" y="-412.2605" />
    </text>
    <text opacity=".8" x="1010.6245" y="-685.49457">
      <tspan x="1010.6245" y="-685.49457" />
    </text>
    <text opacity=".8" x="-1387.7349" y="-460.35178">
      <tspan x="-1387.7349" y="-460.35178" />
    </text>
    <text opacity=".8" x="-3211.4207" y="285.20181">
      <tspan x="-3211.4207" y="285.20181" />
    </text>
    <text opacity=".8" stroke-width=".90475" x="-1496.6705" y="378.07343">
      <tspan stroke-width=".90475" x="-1496.6705" y="378.07343" />
    </text>
    <text opacity=".8" x="698.3075" y="23.432882">
      <tspan x="698.3075" y="23.432882" />
    </text>
    <text opacity=".8" x="722.26843" y="-17.308786">
      <tspan x="722.26843" y="-17.308786" />
    </text>
    <text opacity=".8" x="-748.28998" y="-47.38694">
      <tspan x="-748.28998" y="-47.38694" />
    </text>
    <text opacity=".8" x="-2571.9761" y="698.1665">
      <tspan x="-2571.9761" y="698.1665" />
    </text>
    <text opacity=".8" x="-633.79889" y="-432.70789">
      <tspan x="-633.79889" y="-432.70789" />
    </text>
    <text opacity=".8" x="173.80324" y="-846.17804">
      <tspan x="173.80324" y="-846.17804" />
    </text>
    <text opacity=".8" x="197.76419" y="-886.91974">
      <tspan x="197.76419" y="-886.91974" />
    </text>
    <text opacity=".8" x="-1293.699" y="-894.12964">
      <tspan x="-1293.699" y="-894.12964" />
    </text>
    <text opacity=".8" x="166.84375" y="-1167.3638">
      <tspan x="166.84375" y="-1167.3638" />
    </text>
    <text opacity=".8" x="1652.9672" y="-540.67242">
      <tspan x="1652.9672" y="-540.67242" />
    </text>
    <text opacity=".8" x="1676.9281" y="-581.41418">
      <tspan x="1676.9281" y="-581.41418" />
    </text>
    <text opacity=".8" x="185.46492" y="-588.62408">
      <tspan x="185.46492" y="-588.62408" />
    </text>
    <text opacity=".8" x="1646.0079" y="-861.85803">
      <tspan x="1646.0079" y="-861.85803" />
    </text>
    <text opacity=".8" x="-752.35138" y="-636.71539">
      <tspan x="-752.35138" y="-636.71539" />
    </text>
    <text opacity=".8" x="-2576.0371" y="108.83821">
      <tspan x="-2576.0371" y="108.83821" />
    </text>
    <text opacity=".8" x="-861.28156" y="201.71028">
      <tspan x="-861.28156" y="201.71028" />
    </text>
    <text opacity=".8" x="247.74271" y="22.528219">
      <tspan x="247.74271" y="22.528219" />
    </text>
    <text opacity=".8" x="271.70364" y="-18.213541">
      <tspan x="271.70364" y="-18.213541" />
    </text>
    <text opacity=".8" x="-1219.7595" y="-25.423502">
      <tspan x="-1219.7595" y="-25.423502" />
    </text>
    <text opacity=".8" x="240.78323" y="-298.65756">
      <tspan x="240.78323" y="-298.65756" />
    </text>
    <text opacity=".8" x="-786.95135" y="-28.137735">
      <tspan x="-786.95135" y="-28.137735" />
    </text>
    <text opacity=".8" x="-2610.6375" y="717.41577">
      <tspan x="-2610.6375" y="717.41577" />
    </text>
    <text opacity=".8" x="-635.85828" y="-889.66827">
      <tspan x="-635.85828" y="-889.66827" />
    </text>
    <text opacity=".8" x="171.74385" y="-1303.1384">
      <tspan x="171.74385" y="-1303.1384" />
    </text>
    <text opacity=".8" x="195.70474" y="-1343.8801">
      <tspan x="195.70474" y="-1343.8801" />
    </text>
    <text opacity=".8" x="-1295.7584" y="-1351.09">
      <tspan x="-1295.7584" y="-1351.09" />
    </text>
    <text opacity=".8" x="164.78432" y="-1624.3241">
      <tspan x="164.78432" y="-1624.3241" />
    </text>
    <text opacity=".8" x="1650.9078" y="-997.63293">
      <tspan x="1650.9078" y="-997.63293" />
    </text>
    <text opacity=".8" x="1674.8685" y="-1038.3745">
      <tspan x="1674.8685" y="-1038.3745" />
    </text>
    <text opacity=".8" x="183.40547" y="-1045.5844">
      <tspan x="183.40547" y="-1045.5844" />
    </text>
    <text opacity=".8" x="1643.9484" y="-1318.8185">
      <tspan x="1643.9484" y="-1318.8185" />
    </text>
    <text opacity=".8" x="-754.41083" y="-1093.6757">
      <tspan x="-754.41083" y="-1093.6757" />
    </text>
    <text opacity=".8" x="-2578.0967" y="-348.12225">
      <tspan x="-2578.0967" y="-348.12225" />
    </text>
    <text opacity=".8" x="-863.341" y="-255.25008">
      <tspan x="-863.341" y="-255.25008" />
    </text>
    <text opacity=".8" x="-23.326517" y="-14.335947">
      <tspan x="-23.326517" y="-14.335947" />
    </text>
    <text opacity=".8" x=".634424" y="-55.077644">
      <tspan x=".634424" y="-55.077644" />
    </text>
    <text opacity=".8" x="-1269.1823" y="-249.10625">
      <tspan x="-1269.1823" y="-249.10625" />
    </text>
    <text opacity=".8" x="-461.58023" y="-662.57648">
      <tspan x="-461.58023" y="-662.57648" />
    </text>
    <text opacity=".8" x="-437.61929" y="-703.31818">
      <tspan x="-437.61929" y="-703.31818" />
    </text>
    <text opacity=".8" x="-1929.0824" y="-710.52814">
      <tspan x="-1929.0824" y="-710.52814" />
    </text>
    <text opacity=".8" x="-468.53964" y="-983.76215">
      <tspan x="-468.53964" y="-983.76215" />
    </text>
    <text opacity=".8" x="1017.5838" y="-357.0708">
      <tspan x="1017.5838" y="-357.0708" />
    </text>
    <text opacity=".8" x="1041.5447" y="-397.81256">
      <tspan x="1041.5447" y="-397.81256" />
    </text>
    <text opacity=".8" x="-449.91855" y="-405.02246">
      <tspan x="-449.91855" y="-405.02246" />
    </text>
    <text opacity=".8" x="1010.6245" y="-678.25659">
      <tspan x="1010.6245" y="-678.25659" />
    </text>
    <text opacity=".8" x="-1387.7349" y="-453.11377">
      <tspan x="-1387.7349" y="-453.11377" />
    </text>
    <text opacity=".8" x="-3211.4207" y="292.43979">
      <tspan x="-3211.4207" y="292.43979" />
    </text>
    <text opacity=".8" stroke-width=".90475" x="-1496.6705" y="385.31342">
      <tspan stroke-width=".90475" x="-1496.6705" y="385.31342" />
    </text>
    <text x="256.98544" y="-355.84314">
      <tspan x="256.98544" y="-355.84314" />
      <tspan x="256.98544" y="-340.01004" />
    </text>
    <text opacity=".8" x="722.16943" y="-837.8877">
      <tspan x="722.16943" y="-837.8877" />
    </text>
    <text opacity=".8" x="-1101.5166" y="-92.334213">
      <tspan x="-1101.5166" y="-92.334213" />
    </text>
    <text opacity=".8" x="1449.249" y="-1122.8834">
      <tspan x="1449.249" y="-1122.8834" />
    </text>
    <text opacity=".8" x="1473.2097" y="-1163.6251">
      <tspan x="1473.2097" y="-1163.6251" />
    </text>
    <text opacity=".8" x="-18.253397" y="-1170.8351">
      <tspan x="-18.253397" y="-1170.8351" />
    </text>
    <text opacity=".8" x="1442.2894" y="-1444.0692">
      <tspan x="1442.2894" y="-1444.0692" />
    </text>
    <text opacity=".8" x="698.3075" y="16.194937">
      <tspan x="698.3075" y="16.194937" />
    </text>
    <text opacity=".8" x="722.26843" y="-24.546762">
      <tspan x="722.26843" y="-24.546762" />
    </text>
    <text opacity=".8" x="-748.28998" y="-54.624916">
      <tspan x="-748.28998" y="-54.624916" />
    </text>
    <text opacity=".8" x="-2571.9761" y="690.92859">
      <tspan x="-2571.9761" y="690.92859" />
    </text>
    <text opacity=".8" x="-633.79889" y="-439.94589">
      <tspan x="-633.79889" y="-439.94589" />
    </text>
    <text opacity=".8" x="173.80324" y="-853.41608">
      <tspan x="173.80324" y="-853.41608" />
    </text>
    <text opacity=".8" x="197.76419" y="-894.15771">
      <tspan x="197.76419" y="-894.15771" />
    </text>
    <text opacity=".8" x="-1293.699" y="-901.36761">
      <tspan x="-1293.699" y="-901.36761" />
    </text>
    <text opacity=".8" x="166.84375" y="-1174.6017">
      <tspan x="166.84375" y="-1174.6017" />
    </text>
    <text opacity=".8" x="1652.9672" y="-547.9104">
      <tspan x="1652.9672" y="-547.9104" />
    </text>
    <text opacity=".8" x="1676.9281" y="-588.65216">
      <tspan x="1676.9281" y="-588.65216" />
    </text>
    <text opacity=".8" x="185.46492" y="-595.86206">
      <tspan x="185.46492" y="-595.86206" />
    </text>
    <text opacity=".8" x="1646.0079" y="-869.09607">
      <tspan x="1646.0079" y="-869.09607" />
    </text>
    <text opacity=".8" x="-752.35138" y="-643.95337">
      <tspan x="-752.35138" y="-643.95337" />
    </text>
    <text opacity=".8" x="-2576.0371" y="101.60017">
      <tspan x="-2576.0371" y="101.60017" />
    </text>
    <text opacity=".8" x="-861.28156" y="194.47231">
      <tspan x="-861.28156" y="194.47231" />
    </text>
    <text opacity=".8" x="247.74271" y="15.290214">
      <tspan x="247.74271" y="15.290214" />
    </text>
    <text opacity=".8" x="271.70364" y="-25.451517">
      <tspan x="271.70364" y="-25.451517" />
    </text>
    <text opacity=".8" x="-1219.7595" y="-32.661507">
      <tspan x="-1219.7595" y="-32.661507" />
    </text>
    <text opacity=".8" x="240.78323" y="-305.89554">
      <tspan x="240.78323" y="-305.89554" />
    </text>
    <text opacity=".8" x="-786.95135" y="-35.37574">
      <tspan x="-786.95135" y="-35.37574" />
    </text>
    <text opacity=".8" x="-2610.6375" y="710.17773">
      <tspan x="-2610.6375" y="710.17773" />
    </text>
    <text opacity=".8" x="-635.85828" y="-896.90625">
      <tspan x="-635.85828" y="-896.90625" />
    </text>
    <text opacity=".8" x="171.74385" y="-1310.3763">
      <tspan x="171.74385" y="-1310.3763" />
    </text>
    <text opacity=".8" x="195.70474" y="-1351.118">
      <tspan x="195.70474" y="-1351.118" />
    </text>
    <text opacity=".8" x="-1295.7584" y="-1358.328">
      <tspan x="-1295.7584" y="-1358.328" />
    </text>
    <text opacity=".8" x="164.78432" y="-1631.5621">
      <tspan x="164.78432" y="-1631.5621" />
    </text>
    <text opacity=".8" x="1650.9078" y="-1004.871">
      <tspan x="1650.9078" y="-1004.871" />
    </text>
    <text opacity=".8" x="1674.8685" y="-1045.6124">
      <tspan x="1674.8685" y="-1045.6124" />
    </text>
    <text opacity=".8" x="183.40547" y="-1052.8224">
      <tspan x="183.40547" y="-1052.8224" />
    </text>
    <text opacity=".8" x="1643.9484" y="-1326.0565">
      <tspan x="1643.9484" y="-1326.0565" />
    </text>
    <text opacity=".8" x="-754.41083" y="-1100.9137">
      <tspan x="-754.41083" y="-1100.9137" />
    </text>
    <text opacity=".8" x="-2578.0967" y="-355.36029">
      <tspan x="-2578.0967" y="-355.36029" />
    </text>
    <text opacity=".8" x="-863.341" y="-262.48813">
      <tspan x="-863.341" y="-262.48813" />
    </text>
    <text opacity=".8" x="-23.326517" y="-21.573954">
      <tspan x="-23.326517" y="-21.573954" />
    </text>
    <text opacity=".8" x=".634424" y="-62.315655">
      <tspan x=".634424" y="-62.315655" />
    </text>
    <text opacity=".8" x="-1269.1823" y="-256.3443">
      <tspan x="-1269.1823" y="-256.3443" />
    </text>
    <text opacity=".8" x="-461.58023" y="-669.81445">
      <tspan x="-461.58023" y="-669.81445" />
    </text>
    <text opacity=".8" x="-437.61929" y="-710.55615">
      <tspan x="-437.61929" y="-710.55615" />
    </text>
    <text opacity=".8" x="-1929.0824" y="-717.76605">
      <tspan x="-1929.0824" y="-717.76605" />
    </text>
    <text opacity=".8" x="-468.53964" y="-991.00031">
      <tspan x="-468.53964" y="-991.00031" />
    </text>
    <text opacity=".8" x="1017.5838" y="-364.30878">
      <tspan x="1017.5838" y="-364.30878" />
    </text>
    <text opacity=".8" x="1041.5447" y="-405.05051">
      <tspan x="1041.5447" y="-405.05051" />
    </text>
    <text opacity=".8" x="-449.91855" y="-412.2605">
      <tspan x="-449.91855" y="-412.2605" />
    </text>
    <text opacity=".8" x="1010.6245" y="-685.49457">
      <tspan x="1010.6245" y="-685.49457" />
    </text>
    <text opacity=".8" x="-1387.7349" y="-460.35178">
      <tspan x="-1387.7349" y="-460.35178" />
    </text>
    <text opacity=".8" x="-3211.4207" y="285.20181">
      <tspan x="-3211.4207" y="285.20181" />
    </text>
    <text opacity=".8" x="-1496.665" y="378.07388">
      <tspan x="-1496.665" y="378.07388" />
    </text>
    <text opacity=".8" x="698.3075" y="23.432882">
      <tspan x="698.3075" y="23.432882" />
    </text>
    <text opacity=".8" x="722.26843" y="-17.308786">
      <tspan x="722.26843" y="-17.308786" />
    </text>
    <text opacity=".8" x="-748.28998" y="-47.38694">
      <tspan x="-748.28998" y="-47.38694" />
    </text>
    <text opacity=".8" x="-2571.9761" y="698.1665">
      <tspan x="-2571.9761" y="698.1665" />
    </text>
    <text opacity=".8" x="-633.79889" y="-432.70789">
      <tspan x="-633.79889" y="-432.70789" />
    </text>
    <text opacity=".8" x="173.80324" y="-846.17804">
      <tspan x="173.80324" y="-846.17804" />
    </text>
    <text opacity=".8" x="197.76419" y="-886.91974">
      <tspan x="197.76419" y="-886.91974" />
    </text>
    <text opacity=".8" x="-1293.699" y="-894.12964">
      <tspan x="-1293.699" y="-894.12964" />
    </text>
    <text opacity=".8" x="166.84375" y="-1167.3638">
      <tspan x="166.84375" y="-1167.3638" />
    </text>
    <text opacity=".8" x="1652.9672" y="-540.67242">
      <tspan x="1652.9672" y="-540.67242" />
    </text>
    <text opacity=".8" x="1676.9281" y="-581.41418">
      <tspan x="1676.9281" y="-581.41418" />
    </text>
    <text opacity=".8" x="185.46492" y="-588.62408">
      <tspan x="185.46492" y="-588.62408" />
    </text>
    <text opacity=".8" x="1646.0079" y="-861.85803">
      <tspan x="1646.0079" y="-861.85803" />
    </text>
    <text opacity=".8" x="-752.35138" y="-636.71539">
      <tspan x="-752.35138" y="-636.71539" />
    </text>
    <text opacity=".8" x="-2576.0371" y="108.83821">
      <tspan x="-2576.0371" y="108.83821" />
    </text>
    <text opacity=".8" x="-861.28156" y="201.71028">
      <tspan x="-861.28156" y="201.71028" />
    </text>
    <text opacity=".8" x="247.74271" y="22.528219">
      <tspan x="247.74271" y="22.528219" />
    </text>
    <text opacity=".8" x="271.70364" y="-18.213541">
      <tspan x="271.70364" y="-18.213541" />
    </text>
    <text opacity=".8" x="-1219.7595" y="-25.423502">
      <tspan x="-1219.7595" y="-25.423502" />
    </text>
    <text opacity=".8" x="240.78323" y="-298.65756">
      <tspan x="240.78323" y="-298.65756" />
    </text>
    <text opacity=".8" x="-786.95135" y="-28.137735">
      <tspan x="-786.95135" y="-28.137735" />
    </text>
    <text opacity=".8" x="-2610.6375" y="717.41577">
      <tspan x="-2610.6375" y="717.41577" />
    </text>
    <text opacity=".8" x="-635.85828" y="-889.66827">
      <tspan x="-635.85828" y="-889.66827" />
    </text>
    <text opacity=".8" x="171.74385" y="-1303.1384">
      <tspan x="171.74385" y="-1303.1384" />
    </text>
    <text opacity=".8" x="195.70474" y="-1343.8801">
      <tspan x="195.70474" y="-1343.8801" />
    </text>
    <text opacity=".8" x="-1295.7584" y="-1351.09">
      <tspan x="-1295.7584" y="-1351.09" />
    </text>
    <text opacity=".8" x="164.78432" y="-1624.3241">
      <tspan x="164.78432" y="-1624.3241" />
    </text>
    <text opacity=".8" x="1650.9078" y="-997.63293">
      <tspan x="1650.9078" y="-997.63293" />
    </text>
    <text opacity=".8" x="1674.8685" y="-1038.3745">
      <tspan x="1674.8685" y="-1038.3745" />
    </text>
    <text opacity=".8" x="183.40547" y="-1045.5844">
      <tspan x="183.40547" y="-1045.5844" />
    </text>
    <text opacity=".8" x="1643.9484" y="-1318.8185">
      <tspan x="1643.9484" y="-1318.8185" />
    </text>
    <text opacity=".8" x="-754.41083" y="-1093.6757">
      <tspan x="-754.41083" y="-1093.6757" />
    </text>
    <text opacity=".8" x="-2578.0967" y="-348.12225">
      <tspan x="-2578.0967" y="-348.12225" />
    </text>
    <text opacity=".8" x="-863.341" y="-255.25008">
      <tspan x="-863.341" y="-255.25008" />
    </text>
    <text opacity=".8" x="-23.326517" y="-14.335947">
      <tspan x="-23.326517" y="-14.335947" />
    </text>
    <text opacity=".8" x=".634424" y="-55.077644">
      <tspan x=".634424" y="-55.077644" />
    </text>
    <text opacity=".8" x="-1269.1823" y="-249.10625">
      <tspan x="-1269.1823" y="-249.10625" />
    </text>
    <text opacity=".8" x="-461.58023" y="-662.57648">
      <tspan x="-461.58023" y="-662.57648" />
    </text>
    <text opacity=".8" x="-437.61929" y="-703.31818">
      <tspan x="-437.61929" y="-703.31818" />
    </text>
    <text opacity=".8" x="-1929.0824" y="-710.52814">
      <tspan x="-1929.0824" y="-710.52814" />
    </text>
    <text opacity=".8" x="-468.53964" y="-983.76215">
      <tspan x="-468.53964" y="-983.76215" />
    </text>
    <text opacity=".8" x="1017.5838" y="-357.0708">
      <tspan x="1017.5838" y="-357.0708" />
    </text>
    <text opacity=".8" x="1041.5447" y="-397.81256">
      <tspan x="1041.5447" y="-397.81256" />
    </text>
    <text opacity=".8" x="-449.91855" y="-405.02246">
      <tspan x="-449.91855" y="-405.02246" />
    </text>
    <text opacity=".8" x="1010.6245" y="-678.25659">
      <tspan x="1010.6245" y="-678.25659" />
    </text>
    <text opacity=".8" x="-1387.7349" y="-453.11377">
      <tspan x="-1387.7349" y="-453.11377" />
    </text>
    <text opacity=".8" x="-3211.4207" y="292.43979">
      <tspan x="-3211.4207" y="292.43979" />
    </text>
    <text opacity=".8" x="-1496.665" y="385.31192">
      <tspan x="-1496.665" y="385.31192" />
    </text>
    <text x="256.98544" y="-355.84314">
      <tspan x="256.98544" y="-355.84314" />
      <tspan x="256.98544" y="-340.01004" />
    </text>
    <text opacity=".8" x="722.16943" y="-837.8877">
      <tspan x="722.16943" y="-837.8877" />
    </text>
    <text opacity=".8" x="-1101.5166" y="-92.334213">
      <tspan x="-1101.5166" y="-92.334213" />
    </text>
    <text opacity=".8" x="1449.249" y="-1122.8834">
      <tspan x="1449.249" y="-1122.8834" />
    </text>
    <text opacity=".8" x="1473.2097" y="-1163.6251">
      <tspan x="1473.2097" y="-1163.6251" />
    </text>
    <text opacity=".8" x="-18.253397" y="-1170.8351">
      <tspan x="-18.253397" y="-1170.8351" />
    </text>
    <text opacity=".8" x="1442.2894" y="-1444.0692">
      <tspan x="1442.2894" y="-1444.0692" />
    </text>
    <circle cx="-95.740295" cy="30.838156" fill="url(#a)" r="0" stroke="url(#a)" stroke-width="2.261995" />
    <path d="m45.304688 11.3125c-.830796.0019-1.52212.638926-1.591797 1.466797-.263011.0485-.538089.117046-.833985.220703-1.037966.363618-2.299404 1.05095-3.740234 2.005859-1.480396 1.020515-2.870479 2.064552-4.033202 3.015622-.385218-.135837-.715508-.227401-1.113467-.313333-.653603-.141132-1.321151-.214387-1.992003-.217914-1.055911.0067-2.103608.186168-3.101562.53125l-.05273-.04687c-1.419901-1.160809-2.764423-2.163475-3.982427-2.970708-1.44084-.954915-2.702306-1.640301-3.740234-2.003906-.381112-.133509-.725316-.20642-1.052735-.246094-.215641-.656685-.828346-1.100857-1.519531-1.101562-.883866-.000267-1.60075.715743-1.601562 1.599609-.000292.774673.554077 1.438434 1.316406 1.576172.04826.255327.118282.521806.21875.808594.363597 1.03791 1.050937 2.299385 2.005859 3.740234.696144 1.050387 1.578783 2.216187 2.541016 3.421875-1.533372.171814-2.981424.37248-4.216797.623047-1.694112.343611-3.071541.751732-4.0625 1.228516-.495165.238243-.898142.493018-1.197265.791015-.30012.298991-.50586.66653-.50586 1.074219 0 .40769.205768.773303.50586 1.072266.298985.297859.701932.554646 1.197265.792968.990975.476791 2.368401.884908 4.0625 1.228516 1.419883.269253 2.81712.478457 4.017569.607381.03076.08312.03142.07987.06445.162109-.85596 1.093878-1.721936 2.247241-2.406248 3.275353-.954922 1.440848-1.642262 2.702324-2.005859 3.740234-.07522.214716-.127326.414571-.173828.611328-.766211.133543-1.325623.79841-1.326172 1.576172-.000267.884629.716934 1.60183 1.601563 1.601563.612551-.000062 1.171379-.349614 1.439453-.900391.339624-.03648.697187-.112345 1.095703-.251953 1.037862-.363579 2.301308-1.048965 3.742187-2.003906 2.091126-1.385892 4.554973-3.352929 7.138672-5.712891 2.583088 2.358081 5.04646 4.32562 7.136719 5.710938 1.440837.954915 2.702288 1.64225 3.740234 2.005859.388681.136164.739318.209706 1.072266.248047.253289.584913.829398.963872 1.466797.964844.883866-.000812 1.599876-.717696 1.599609-1.601563-.000725-.770134-.549641-1.430638-1.30664-1.572266-.04784-.215626-.110169-.43831-.19336-.675781-.363611-1.037952-1.050949-2.301353-2.005859-3.742187-.80829-1.185184-1.639842-2.311119-2.390628-3.24806.02929-.08878.03525-.09564.06195-.185237.973179-.124834 2.86857-.38227 4.004462-.609689 1.694101-.343608 3.071531-.751729 4.0625-1.228516.495381-.238345.89641-.495192 1.195312-.792968.299983-.298853.507813-.664338.507813-1.072266 0-.407927-.207802-.775338-.507813-1.074219-.299039-.297915-.700099-.552749-1.195312-.791015-.990953-.47678-2.368387-.884904-4.0625-1.228516-1.235138-.25052-2.683439-.45125-4.216797-.623047.962348-1.205122 1.844996-2.369724 2.541016-3.419922.954938-1.440877 1.640314-2.704295 2.003906-3.742187.15294-.436576.235901-.826769.263672-1.19336.670158-.207772 1.126966-.827669 1.126953-1.529297.000267-.884629-.716933-1.601829-1.601562-1.601562zm-25.205079 2.337891c.214119.03702.451216.09231.728516.189453.917964.321579 2.141004.975804 3.544922 1.90625 1.094483.725369 2.303936 1.621469 3.583984 2.654297-1.557119.719386-2.895096 1.839646-3.876953 3.246093.09817.123953.199794.249511.300781.375 2.342744-.21471 4.881417-.353515 7.617188-.353515 2.737263 0 5.278708.136739 7.623047.351562.101548-.126197.20404-.25231.302734-.376953-.981578-1.405462-2.31883-2.525006-3.875-3.24414 1.278308-1.031272 2.486929-1.927859 3.580078-2.652344 1.403954-.93047 2.625048-1.584686 3.542969-1.90625.270759-.09485.504072-.150022.714844-.1875.205665.396273.567449.688674.998047.80664-.02766.246016-.08601.533728-.208985.884766-.321582.917976-.975799 2.139043-1.90625 3.542969-.762109 1.149921-1.749695 2.444484-2.849609 3.796875-2.411544-.230208-5.074071-.367188-7.919922-.367188-2.845233 0-5.507362.137075-7.917969.367188-1.099914-1.352391-2.087499-2.646954-2.849609-3.796875-.93048-1.40397-1.586655-2.625094-1.908203-3.542969-.07807-.22284-.132944-.426181-.171875-.609375.469549-.191001.820911-.593075.947265-1.083984zm11.900391 9.55664c2.582858 0 5.033985.108044 7.257812.300781-2.470677 2.881004-4.705491 5.21647-7.257812 7.59375-.773282-.719707-1.552158-1.460361-2.337891-2.246093-1.826582-1.826583-3.481738-3.63865-4.917968-5.347657 2.223289-.192626 4.673788-.300781 7.255859-.300781zm-8.308594.416016c1.542008 1.868518 3.327141 3.848627 5.339844 5.861328.777915.777915 1.550074 1.508457 2.316406 2.222656-2.536935 2.312282-4.952114 4.237718-6.974609 5.578125-1.403918.930446-2.626958 1.584671-3.544922 1.90625-.24328.08523-.460772.142925-.65625.181641-.0747-.563605-.442681-1.045324-.966797-1.265625.03504-.135464.06532-.266293.119141-.419922.32155-.917882.977727-2.139005 1.908203-3.542969.580122-.875326 1.268698-1.823068 2.048828-2.822265.702614 1.480934 1.769826 2.759169 3.101562 3.714843 1.256922-.962387 2.610508-2.095732 4.007813-3.345703-.60476-.57278-1.20734-1.135074-1.818359-1.746094-1.92599-1.925989-3.656907-3.829065-5.16211-5.632812-.222379.02435-.458941.04434-.675781.07031-.273047.903239-.412544 1.841551-.414063 2.785157.0035.717283.08666 1.431958.248047 2.130859-1.308873-.158102-2.513581-.346582-3.578125-.5625-1.650696-.334804-2.977082-.736521-3.853515-1.158203-.437958-.210717-.761711-.428448-.953125-.619141-.192937-.192211-.244139-.329243-.244141-.443359 0-.114113.05109-.249078.244141-.441406.191414-.190693.515166-.410377.953125-.621094.876506-.421717 2.20287-.823407 3.853515-1.158203 1.352238-.27427 2.966763-.493413 4.701172-.671875zm16.619141 0c1.733632.178435 3.347492.397709 4.699219.671875 1.650653.334797 2.977037.736499 3.853515 1.158203.437975.210726.763706.430441.955078.621094.193058.192327.244141.32729.244141.441406 0 .114115-.0512.251148-.244141.443359-.191372.190653-.517104.408416-.955078.619141-.876405.421669-2.202813.823397-3.853515 1.158203-1.065187.216048-2.270303.404328-3.580078.5625.162042-.698827.24589-1.413503.25-2.130859-.0028-.943799-.143599-1.882115-.417969-2.785157-.214956-.02573-.449505-.04617-.669922-.07031-1.505109 1.803886-3.235338 3.704087-5.162109 5.630859-.605334.605333-1.207221 1.189772-1.804688 1.753907 1.392189 1.245814 2.74489 2.383936 3.996094 3.341796 1.333323-.95197 2.403188-2.226803 3.109375-3.705078.775506.9939 1.461762 1.939477 2.039062 2.810547.930447 1.403918 1.584666 2.624987 1.90625 3.542969.06085.173693.09787.324407.134766.474609-.511173.209722-.878091.668185-.970703 1.212891-.198685-.03856-.419217-.09645-.667969-.183594-.917921-.321562-2.139015-.975778-3.542969-1.90625-2.022495-1.340407-4.437674-3.265843-6.974609-5.578125 2.717186-2.526409 5.439414-5.409493 7.65625-8.083984zm-8.3125.234375c-2.08432 0-4.053399.0824-5.900391.214844 1.222154 1.404433 2.551657 2.854391 4.023438 4.326172.635041.63504 1.26092 1.222521 1.888672 1.814453.619847-.58449 1.243678-1.188991 1.871093-1.816407 1.471781-1.471781 2.799331-2.919785 4.021485-4.324218-1.848579-.132679-3.818591-.214844-5.904297-.214844zm.0059 9.328125c-1.216137 1.089447-2.403882 2.091043-3.541015 2.990234 1.126639.443206 2.326429.671106 3.537109.671875 1.209082-.0034 2.40683-.233244 3.53125-.677734-1.133187-.896316-2.310958-1.889124-3.527344-2.984375z" fill="#0b3969" transform="translate(-56.391766 .176777)" />
    <g fill="#fff">
      <path d="m-27.395672 58.867104h-.722656v-6h.722656z" />
      <path d="m-24.856609 57.80851.984375-3.167969h.773437l-1.699219 4.878906q-.394531 1.054688-1.253906 1.054688l-.136719-.01172-.269531-.05078v-.585938l.195313.01563q.367187 0 .570312-.148437.207031-.148438.339844-.542969l.160156-.429687-1.507812-4.179688h.789062z" />
      <path d="m-21.473797 53.617104v1.023437h.789063v.558594h-.789063v2.621094q0 .253906.105469.382812.105469.125.359375.125.125 0 .34375-.04687v.585938q-.285156.07813-.554688.07813-.484375 0-.730468-.292969-.246094-.292969-.246094-.832031v-2.621094h-.769531v-.558594h.769531v-1.023437z" />
    </g>
  </g>
</svg>
