<?xml version="1.0" encoding="UTF-8" standalone="no"?>
<svg
   xmlns:osb="http://www.openswatchbook.org/uri/2009/osb"
   xmlns:dc="http://purl.org/dc/elements/1.1/"
   xmlns:cc="http://creativecommons.org/ns#"
   xmlns:rdf="http://www.w3.org/1999/02/22-rdf-syntax-ns#"
   xmlns:svg="http://www.w3.org/2000/svg"
   xmlns="http://www.w3.org/2000/svg"
   xmlns:xlink="http://www.w3.org/1999/xlink"
   xmlns:sodipodi="http://sodipodi.sourceforge.net/DTD/sodipodi-0.dtd"
   xmlns:inkscape="http://www.inkscape.org/namespaces/inkscape"
   width="64"
   viewBox="0 0 64 64"
   height="64"
   id="svg2"
   version="1.1"
   inkscape:version="0.91 r13725"
   sodipodi:docname="application-x-desktop-lxde.svg"
   inkscape:export-filename="E:\Usuarios\David\Desktop\android.png"
   inkscape:export-xdpi="90"
   inkscape:export-ydpi="90">
  <metadata
     id="metadata14">
    <rdf:RDF>
      <cc:Work
         rdf:about="">
        <dc:format>image/svg+xml</dc:format>
        <dc:type
           rdf:resource="http://purl.org/dc/dcmitype/StillImage" />
        <dc:title></dc:title>
      </cc:Work>
    </rdf:RDF>
  </metadata>
  <defs
     id="defs12">
    <linearGradient
       osb:paint="gradient"
       id="linearGradient4207">
      <stop
         id="stop3371"
         offset="0"
         style="stop-color:#3498db;stop-opacity:1;" />
      <stop
         id="stop3373"
         offset="1"
         style="stop-color:#3498db;stop-opacity:0;" />
    </linearGradient>
    <linearGradient
       inkscape:collect="always"
       xlink:href="#linearGradient4422-1"
       id="linearGradient4182"
       x1="-74.929466"
       y1="52.199436"
       x2="-75.259552"
       y2="2.3564887"
       gradientUnits="userSpaceOnUse"
       gradientTransform="matrix(1.0749904,0,0,1.0292896,56.688954,-0.01528455)" />
    <linearGradient
       id="linearGradient4422-8">
      <stop
         style="stop-color:#259ee1;stop-opacity:1"
         offset="0"
         id="stop4424-9" />
      <stop
         style="stop-color:#19b4fd;stop-opacity:1"
         offset="1"
         id="stop4426-0" />
    </linearGradient>
    <linearGradient
       id="linearGradient4422-1">
      <stop
         id="stop4424-78"
         offset="0"
         style="stop-color:#8798a9;stop-opacity:1" />
      <stop
         id="stop4426-8"
         offset="1"
         style="stop-color:#aeb6be;stop-opacity:1" />
    </linearGradient>
    <linearGradient
       id="linearGradient4422">
      <stop
         style="stop-color:#798695;stop-opacity:1"
         offset="0"
         id="stop4424" />
      <stop
         style="stop-color:#8f9fb0;stop-opacity:1"
         offset="1"
         id="stop4426" />
    </linearGradient>
  </defs>
  <sodipodi:namedview
     pagecolor="#747474"
     bordercolor="#666666"
     borderopacity="1"
     objecttolerance="10"
     gridtolerance="10"
     guidetolerance="10"
     inkscape:pageopacity="1"
     inkscape:pageshadow="2"
     inkscape:window-width="1366"
     inkscape:window-height="712"
     id="namedview10"
     showgrid="false"
     inkscape:zoom="7.4552197"
     inkscape:cx="37.258207"
     inkscape:cy="28.724175"
     inkscape:window-x="0"
     inkscape:window-y="28"
     inkscape:window-maximized="1"
     inkscape:current-layer="g4186"
     inkscape:snap-bbox="true"
     inkscape:bbox-nodes="true"
     inkscape:object-nodes="true"
     borderlayer="false"
     showguides="true"
     inkscape:snap-nodes="true"
     inkscape:object-paths="false"
     inkscape:showpageshadow="false"
     showborder="true">
    <inkscape:grid
       type="xygrid"
       id="grid4160"
       visible="true" />
    <sodipodi:guide
       position="28.888657,63.404975"
       orientation="0,35.2"
       id="guide6108" />
    <sodipodi:guide
       position="54,55.679691"
       orientation="51.200004,0"
       id="guide6112" />
    <sodipodi:guide
       position="58.527669,62"
       orientation="0,1"
       id="guide6114"
       inkscape:label=""
       inkscape:color="rgb(0,0,255)" />
    <sodipodi:guide
       position="10,4"
       orientation="-56,0"
       id="guide6116" />
    <sodipodi:guide
       position="11,4"
       orientation="-2.8421709e-014,0"
       id="guide6118" />
    <sodipodi:guide
       position="12,62"
       orientation="0,35.2"
       id="guide6120" />
    <sodipodi:guide
       position="52,2"
       orientation="0,-40"
       id="guide6126" />
    <sodipodi:guide
       position="12,62"
       orientation="0,35.2"
       id="guide6138" />
    <sodipodi:guide
       position="55,3"
       orientation="0,-40"
       id="guide6156" />
    <sodipodi:guide
       position="53,4.3973202"
       orientation="-56,0"
       id="guide6158" />
    <sodipodi:guide
       position="21,48"
       orientation="0,22"
       id="guide4238" />
    <sodipodi:guide
       position="43,48"
       orientation="22,0"
       id="guide4240" />
    <sodipodi:guide
       position="43,26"
       orientation="0,-22"
       id="guide4242" />
    <sodipodi:guide
       position="21,26"
       orientation="-22,0"
       id="guide4244" />
  </sodipodi:namedview>
  <g
     id="g4186"
     transform="translate(56.391766,-0.17677665)">
    <rect
       ry="2.5"
       y="54.477486"
       x="-46.391766"
       height="7.6992903"
       width="44"
       id="rect4162"
       style="opacity:1;fill:#3d434a;fill-opacity:1;stroke:none;stroke-width:0.185;stroke-linecap:round;stroke-linejoin:round;stroke-miterlimit:4;stroke-dasharray:none;stroke-dashoffset:0;stroke-opacity:1" />
    <rect
       ry="2.5"
       y="1.6457753"
       x="-46.391766"
       height="52.831711"
       width="44"
       id="rect4174"
       style="opacity:1;fill:url(#linearGradient4182);fill-opacity:1.0;stroke:none;stroke-width:0.30000001;stroke-linecap:round;stroke-linejoin:round;stroke-miterlimit:4;stroke-dasharray:none;stroke-dashoffset:0;stroke-opacity:1" />
    <rect
       ry="0"
       y="51.264462"
       x="-46.391766"
       height="7.9118414"
       width="44"
       id="rect4184"
       style="opacity:1;fill:#3d434a;fill-opacity:1;stroke:none;stroke-width:0.185;stroke-linecap:round;stroke-linejoin:round;stroke-miterlimit:4;stroke-dasharray:none;stroke-dashoffset:0;stroke-opacity:1" />
    <g
       style="font-style:normal;font-weight:normal;font-size:9.36996746px;line-height:125%;font-family:sans-serif;letter-spacing:0px;word-spacing:0px;fill:#ffffff;fill-opacity:1;stroke:none;stroke-width:1px;stroke-linecap:butt;stroke-linejoin:miter;stroke-opacity:1"
       id="text4161"
       transform="matrix(0.81954967,0,0,0.81954967,-4.6342827,10.221831)">
      <g
         style="font-style:normal;font-weight:normal;font-size:13.75px;line-height:125%;font-family:sans-serif;letter-spacing:0px;word-spacing:0px;fill:#ffffff;fill-opacity:1;stroke:none;stroke-width:1px;stroke-linecap:butt;stroke-linejoin:miter;stroke-opacity:1"
         id="text4269">
        <path
           d="m -38.518632,59.820313 q -0.95,0 -1.64,-0.75 -0.69,-0.75 -0.69,-1.86 0,-1.11 0.69,-1.86 0.69,-0.75 1.64,-0.75 0.56,0 1,0.24 0.45,0.24 0.67,0.6 l 0.04,0 -0.04,-0.68 0,-2.26 0.92,0 0,7.16 -0.88,0 0,-0.68 -0.04,0 q -0.22,0.36 -0.67,0.6 -0.44,0.24 -1,0.24 z m 0.15,-0.84 q 0.65,0 1.1,-0.48 0.46,-0.48 0.46,-1.29 0,-0.81 -0.46,-1.29 -0.45,-0.48 -1.1,-0.48 -0.64,0 -1.1,0.49 -0.46,0.48 -0.46,1.28 0,0.8 0.46,1.29 0.46,0.48 1.1,0.48 z"
           style="font-style:normal;font-variant:normal;font-weight:normal;font-stretch:normal;font-size:10px;font-family:'Product Sans';-inkscape-font-specification:'Product Sans';fill:#ffffff;fill-opacity:1"
           id="path4185" />
        <path
           d="m -32.645507,59.820313 q -1.11,0 -1.81,-0.74 -0.69,-0.74 -0.69,-1.87 0,-1.07 0.67,-1.84 0.68,-0.77 1.73,-0.77 1.09,0 1.74,0.71 0.66,0.71 0.66,1.9 l -0.01,0.17 -3.87,0 q 0.04,0.74 0.49,1.17 0.46,0.43 1.07,0.43 0.99,0 1.34,-0.84 l 0.82,0.34 q -0.24,0.57 -0.79,0.96 -0.55,0.38 -1.35,0.38 z m 1.32,-3.2 q -0.03,-0.42 -0.39,-0.8 -0.35,-0.38 -1.05,-0.38 -0.51,0 -0.89,0.32 -0.37,0.32 -0.51,0.86 l 2.84,0 z"
           style="font-style:normal;font-variant:normal;font-weight:normal;font-stretch:normal;font-size:10px;font-family:'Product Sans';-inkscape-font-specification:'Product Sans';fill:#ffffff;fill-opacity:1"
           id="path4187" />
        <path
           d="m -27.63535,59.820313 q -0.82,0 -1.36,-0.4 -0.53,-0.4 -0.78,-1 l 0.82,-0.34 q 0.39,0.92 1.33,0.92 0.43,0 0.7,-0.19 0.28,-0.19 0.28,-0.5 0,-0.48 -0.67,-0.65 l -0.99,-0.24 q -0.47,-0.12 -0.89,-0.45 -0.42,-0.34 -0.42,-0.91 0,-0.65 0.57,-1.05 0.58,-0.41 1.37,-0.41 0.65,0 1.16,0.3 0.51,0.29 0.73,0.84 l -0.8,0.33 q -0.27,-0.65 -1.12,-0.65 -0.41,0 -0.69,0.17 -0.28,0.17 -0.28,0.46 0,0.42 0.65,0.57 l 0.97,0.23 q 0.69,0.16 1.02,0.55 0.33,0.39 0.33,0.88 0,0.66 -0.54,1.1 -0.54,0.44 -1.39,0.44 z"
           style="font-style:normal;font-variant:normal;font-weight:normal;font-stretch:normal;font-size:10px;font-family:'Product Sans';-inkscape-font-specification:'Product Sans';fill:#ffffff;fill-opacity:1"
           id="path4189" />
        <path
           d="m -23.984569,52.500313 0,4.41 2.12,-2.15 1.18,0 0,0.04 -1.91,1.91 2,2.91 0,0.04 -1.11,0 -1.54,-2.31 -0.74,0.74 0,1.57 -0.92,0 0,-7.16 0.92,0 z"
           style="font-style:normal;font-variant:normal;font-weight:normal;font-stretch:normal;font-size:10px;font-family:'Product Sans';-inkscape-font-specification:'Product Sans';fill:#ffffff;fill-opacity:1"
           id="path4191" />
        <path
           d="m -17.96035,59.740313 q -0.77,0 -1.18,-0.41 -0.4,-0.41 -0.4,-1.16 l 0,-2.57 -0.86,0 0,-0.84 0.86,0 0,-1.5 0.92,0 0,1.5 1.2,0 0,0.84 -1.2,0 0,2.5 q 0,0.8 0.66,0.8 0.25,0 0.42,-0.08 l 0.32,0.79 q -0.3,0.13 -0.74,0.13 z"
           style="font-style:normal;font-variant:normal;font-weight:normal;font-stretch:normal;font-size:10px;font-family:'Product Sans';-inkscape-font-specification:'Product Sans';fill:#ffffff;fill-opacity:1"
           id="path4193" />
        <path
           d="m -16.173788,55.350313 q 0.71,-0.75 1.81,-0.75 1.1,0 1.81,0.75 0.71,0.74 0.71,1.86 0,1.12 -0.71,1.87 -0.71,0.74 -1.81,0.74 -1.1,0 -1.81,-0.74 -0.71,-0.75 -0.71,-1.87 0,-1.12 0.71,-1.86 z m 0.68,3.15 q 0.48,0.48 1.13,0.48 0.65,0 1.12,-0.48 0.48,-0.49 0.48,-1.29 0,-0.8 -0.48,-1.28 -0.47,-0.49 -1.12,-0.49 -0.65,0 -1.13,0.49 -0.47,0.48 -0.47,1.28 0,0.8 0.47,1.29 z"
           style="font-style:normal;font-variant:normal;font-weight:normal;font-stretch:normal;font-size:10px;font-family:'Product Sans';-inkscape-font-specification:'Product Sans';fill:#ffffff;fill-opacity:1"
           id="path4195" />
        <path
           d="m -8.5069128,59.820313 q -0.56,0 -1.01,-0.24 -0.44,-0.24 -0.6600002,-0.6 l -0.04,0 0.04,0.68 0,2.16 -0.92,0 0,-7.06 0.88,0 0,0.68 0.04,0 q 0.2200002,-0.36 0.6600002,-0.6 0.45,-0.24 1.01,-0.24 0.95,0 1.64,0.75 0.69,0.75 0.69,1.86 0,1.11 -0.69,1.86 -0.69,0.75 -1.64,0.75 z m -0.15,-0.84 q 0.64,0 1.1,-0.48 0.46,-0.49 0.46,-1.29 0,-0.8 -0.46,-1.28 -0.46,-0.49 -1.1,-0.49 -0.65,0 -1.11,0.48 -0.4500002,0.48 -0.4500002,1.29 0,0.81 0.4500002,1.29 0.46,0.48 1.11,0.48 z"
           style="font-style:normal;font-variant:normal;font-weight:normal;font-stretch:normal;font-size:10px;font-family:'Product Sans';-inkscape-font-specification:'Product Sans';fill:#ffffff;fill-opacity:1"
           id="path4197" />
      </g>
    </g>
    <g
       inkscape:transform-center-y="-9.4924686"
       inkscape:transform-center-x="5.4653607"
       inkscape:label="Capa 1"
       id="layer1"
       transform="translate(-498.44021,-512.80124)">
      <g
         id="layer1-3"
         inkscape:label="Capa 1"
         transform="translate(0.41988239,0.03484499)">
        <g
           style="fill:#104563;fill-opacity:1"
           inkscape:label="Capa 1"
           id="layer1-34"
           transform="matrix(1.8038299,0,0,1.8038299,-589.54623,-575.79303)" />
      </g>
    </g>
    <g
       transform="matrix(0.77730166,0,0,0.77730166,-354.20287,-380.72225)"
       id="layer1-0"
       inkscape:label="Capa 1"
       style="fill:#3d434a">
      <path
         inkscape:connector-curvature="0"
         style="color:#000000;display:inline;overflow:visible;visibility:visible;fill:#3d434a;fill-opacity:1;fill-rule:evenodd;stroke:none;stroke-width:1.41732287;marker:none;enable-background:accumulate"
         d="m 424.56681,504.42203 c -10.93241,0 -19.81914,8.65795 -20.23862,19.48761 6.72229,-4.744 18.15647,-12.52821 20.99221,-12.7337 0.94097,-1.19189 4.17516,-2.15551 4.76066,-2.13471 l -1.69748,2.13471 c 0,0 -0.0283,2.15371 -0.65585,2.57195 5.8566,3.91393 8.65464,17.96313 9.85055,26.49102 l -0.5041,0.40379 c 4.7251,-3.7128 7.77241,-9.46548 7.77241,-15.9409 0,-11.19993 -9.07986,-20.27977 -20.27978,-20.27977 z m -0.28805,16.66104 c -1.57542,0.047 -4.77687,4.75505 -8.42826,9.79654 -1.75466,2.42265 -4.02875,5.73785 -5.69943,8.03475 l -1.20367,-1.31427 c 3.43536,-5.62524 7.71174,-12.48862 7.50493,-12.7414 -0.0442,-0.0211 -0.10192,-0.0632 -0.1646,-0.054 -1.16366,0.17633 -5.83495,5.99784 -9.17669,10.18233 3.52836,5.97403 10.01514,9.99457 17.45577,9.99457 4.51674,0 8.67388,-1.49482 12.04441,-3.99166 -2.49619,-7.62828 -7.31742,-19.82415 -12.16786,-19.85283 -0.0472,-0.009 -0.11377,-0.054 -0.1646,-0.054 z m -11.76665,1.97012 c -1.44093,-0.0105 -5.12438,1.29217 -8.18392,2.47163 0.12168,3.02356 0.89693,5.87374 2.20158,8.41539 0.61519,-0.92938 1.67911,-2.45571 2.31476,-3.38981 2.43119,-3.57279 4.82261,-6.73467 4.26942,-7.38662 -0.0988,-0.10891 -0.31832,-0.10928 -0.60184,-0.11059 z m -8.20707,1.28082 c -0.003,0.12365 -0.018,0.24361 -0.018,0.36779 0,0.17023 0.0216,0.33488 0.0257,0.5041 l -0.008,-0.87189 z m 2.26331,9.6885 c 0.12695,0.24447 0.25967,0.4842 0.39608,0.72272 l -0.39608,-0.72272 z"
         id="path4664" />
    </g>
  </g>
</svg>
