<svg height="64" viewBox="0 0 64 64" width="64" xmlns="http://www.w3.org/2000/svg" xmlns:xlink="http://www.w3.org/1999/xlink"><linearGradient id="a" gradientTransform="matrix(1.0749904 0 0 1.0292896 56.688954 -.015285)" gradientUnits="userSpaceOnUse" x1="30.601027" x2="31.877569" y1="62.523117" y2="1.97774"><stop offset="0" stop-color="#37baab"/><stop offset="1" stop-color="#50d5cb"/></linearGradient><rect fill="url(#a)" height="60.531002" ry="2.864331" width="44" x="10" y="1.734499"/><path d="m10.000001 51.353392v5.71289 2.199219.5c0 1.385 1.115 2.5 2.5 2.5h38.999999c1.385 0 2.5-1.115 2.5-2.5v-.5-2.199219-5.71289z" fill="#19524b"/><path d="m23.957031 19c-.52985 0-.957031.464509-.957031 1.042969v15.912109c0 .57846.427181 1.044922.957031 1.044922h16.085939c.52985 0 .95703-.466462.95703-1.044922v-15.912109c0-.57846-.42718-1.042969-.95703-1.042969zm10.181641 6.431641 3.861328 5.136718h-12l3-3.849609 2.138672 2.574219z" fill="#19524b"/><g fill="#fff" transform="matrix(.81954967 0 0 .81954967 51.957477 10.144827)"><path d="m-27.456984 61.858567q-.87 0-1.42-.44-.55-.43-.79-.99l.84-.35q.14.4.51.67.38.27.86.27.76 0 1.19-.46.44-.45.44-1.23v-.47h-.04q-.24.36-.68.6-.44.24-.99.24-.95 0-1.64-.75-.69-.75-.69-1.86 0-1.11.69-1.86.69-.75 1.64-.75.55 0 .99.24.44.24.68.6h.04v-.68h.88v4.65q0 1.26-.73 1.91-.73.66-1.78.66zm.07-3q .65 0 1.1-.48.46-.48.46-1.29 0-.81-.46-1.29-.45-.48-1.1-.48-.64 0-1.1.49-.46.48-.46 1.28 0 .8.46 1.29.46.48 1.1.48z"/><path d="m-22.825265 53.408567q-.19.19-.46.19-.27 0-.46-.19-.19-.19-.19-.46 0-.27.19-.46.19-.19.46-.19.27 0 .46.19.19.19.19.46 0 .27-.19.46zm0 6.13h-.92v-4.9h.92z"/><path d="m-19.278234 52.338567q.44 0 .74.13l-.32.79q-.16-.08-.42-.08-.36 0-.59.22-.23.21-.23.62v.62h1.28v.84h-1.28v4.06h-.92v-4.06h-.92v-.84h.92v-.65q0-.75.48-1.2.48-.45 1.26-.45z"/></g></svg>