<svg height="64" viewBox="0 0 64 64" width="64" xmlns="http://www.w3.org/2000/svg" xmlns:xlink="http://www.w3.org/1999/xlink"><linearGradient id="a" gradientTransform="matrix(1.0749904 0 0 1.0292896 56.688954 -.015285)" gradientUnits="userSpaceOnUse" x1="-74.929466" x2="-75.259552" y1="52.199436" y2="2.356489"><stop offset="0" stop-color="#04a47f"/><stop offset="1" stop-color="#40ca85"/></linearGradient><g transform="translate(56.391766 -.176777)"><rect fill="#024837" height="7.69929" ry="2.5" width="44" x="-46.391766" y="54.477486"/><rect fill="url(#a)" height="52.831711" ry="2.5" width="44" x="-46.391766" y="1.645775"/><path d="m-46.391766 51.264462h44v7.911841h-44z" fill="#044937"/><g fill="#fff" transform="matrix(.81954967 0 0 .81954967 -3.03385 10.121829)"><path d="m-32.023582 59.90451v-.8l2.79-3.26h-2.71v-.84h3.84v.8l-2.79 3.26h2.83v.84z"/><path d="m-26.076551 53.77451q-.19.19-.46.19-.27 0-.46-.19-.19-.19-.19-.46 0-.27.19-.46.19-.19.46-.19.27 0 .46.19.19.19.19.46 0 .27-.19.46zm0 6.13h-.92v-4.9h.92z"/><path d="m-22.31952 60.06451q-.56 0-1.01-.24-.44-.24-.66-.6h-.04l.04.68v2.16h-.92v-7.06h.88v.68h.04q.22-.36.66-.6.45-.24 1.01-.24.95 0 1.64.75.69.75.69 1.86 0 1.11-.69 1.86-.69.75-1.64.75zm-.15-.84q.64 0 1.1-.48.46-.49.46-1.29 0-.8-.46-1.28-.46-.49-1.1-.49-.65 0-1.11.48-.45.48-.45 1.29 0 .81.45 1.29.46.48 1.11.48z"/></g><g transform="matrix(.550000420695 0 0 .550000420695 -249.006223012622 -260.912332799023)"><rect fill="#044937" height="39.999969" ry="1.999996" width="36" x="390.57144" y="503.798"/><g fill="#fff"><g><rect height="2" opacity=".929" ry=".888648" width="4" x="406.643184" y="504.90935"/><rect height="2" opacity=".929" ry=".888648" width="4" x="406.634814" y="507.80199"/><rect height="2" opacity=".929" ry=".888648" width="4" x="406.609734" y="510.65978"/><rect height="2" opacity=".929" ry=".888648" width="4" x="406.653554" y="513.63469"/><rect height="2" opacity=".929" ry=".888648" width="4" x="406.653554" y="516.55742"/></g><rect height="2" opacity=".929" ry=".888648" width="4" x="406.6535" y="519.54907"/><path d="m410.11783 524.47214v-1.26212c0-.35164-.28416-.63683-.63453-.63683h-1.76295c-.35037 0-.6346.28526-.6346.63683v1.2615l-.98056 2.89118c-.27435.80579-.14271 1.70105.35164 2.39489.49436.69257 1.29597 1.10622 2.14496 1.10622.84916 0 1.65084-.41365 2.14519-1.10622.49435-.69384.62583-1.5891.35156-2.39426zm-.40955 4.53977c-.50867.71448-1.70431.71448-2.21306 0-.25497-.35792-.32285-.8196-.18195-1.23564l.32909-.96974h1.91878l.32918.97037c.14096.41541.0729.87709-.18204 1.23501z"/></g></g></g></svg>