<svg height="64" viewBox="0 0 64 64" width="64" xmlns="http://www.w3.org/2000/svg" xmlns:xlink="http://www.w3.org/1999/xlink">
  <linearGradient id="a" gradientTransform="matrix(1.0749904 0 0 1.0292896 176.53834 -1.011306)" gradientUnits="userSpaceOnUse" x1="32.915253" x2="32.305084" y1="62.242973" y2="1.226024">
    <stop offset="0" stop-color="#8294a4" />
    <stop offset="1" stop-color="#aeb6be" />
  </linearGradient>
  <rect fill="url(#a)" height="60.531002" ry="2.864331" width="44" x="10" y="1.468998" />
  <path d="m10 51.087891v5.71289 2.199219.5c0 1.385 1.115 2.5 2.5 2.5h39c1.385 0 2.5-1.115 2.5-2.5v-.5-2.199219-5.71289z" fill="#3a4148" />
  <g fill="#3a4148" transform="translate(-69.264678 -11.398021)">
    <path d="m105.36468 34.054236c.072-.594.126-1.188.126-1.799999 0-.612001-.054-1.206001-.126-1.800001h3.042c.144.576.234 1.179.234 1.800001 0 .620999-.09 1.223999-.234 1.799999m-4.635 5.004c.54-.999.954-2.079 1.242-3.204h2.655c-.864 1.485-2.241 2.637001-3.897 3.204m-.225-5.004h-4.212004c-.09-.594-.144-1.188-.144-1.799999 0-.612001.054-1.215001.144-1.800001h4.212004c.0809.585.144 1.188.144 1.800001 0 .611999-.063 1.205999-.144 1.799999m-2.106 5.364c-.747-1.08-1.35-2.277-1.719004-3.564h3.438004c-.369 1.287-.972 2.484-1.719 3.564m-3.600004-10.764h-2.628001c.855-1.494 2.241001-2.646 3.888001-3.204-.54.999-.945 2.079-1.26 3.204m-2.628001 7.2h2.628001c.315 1.125.72 2.205 1.26 3.204-1.647-.566999-3.033001-1.719-3.888001-3.204m-.738-1.8c-.144-.576-.234-1.179-.234-1.799999 0-.621001.09-1.224001.234-1.800001h3.042001c-.072.594-.126 1.188-.126 1.800001 0 .611999.054 1.205999.126 1.799999m3.924004-8.973c.747 1.08 1.35 2.286 1.719 3.573h-3.438004c.369004-1.287.972004-2.493 1.719004-3.573m6.228 3.573h-2.655c-.288-1.125-.702-2.205-1.242-3.204 1.656.567 3.033 1.71 3.897 3.204m-6.228-5.4c-4.977005 0-9.000005 4.05-9.000005 9.000001a9.0000001 9.0000001 0 0 0 9.000005 8.999999 9.0000001 9.0000001 0 0 0 9-8.999999 9.0000001 9.0000001 0 0 0 -9-9.000001z" stroke-width="1.5" />
    <path d="m93.423729 45.14125c-.00007-.41113.14791-.82218.44404-1.1329.59211-.62146 1.56655-.62124 2.15899.0003h.00007l5.397521 5.66523 5.39588-5.66351c.59206-.62147 1.56645-.62132 2.1588.00023.00002.00002.00003.00003.00006.00007.00003.00002.00004.00003.00007.00006.59268.62159.59274 1.64478.0003 2.26628l-6.47509 6.7963c-.29601.31063-.68934.46913-1.07939.46906-.38975-.00007-.78312-.15854-1.07928-.46923h-.00007l-6.477501-6.79864c-.29621-.3109-.44434-.7221-.4444-1.13325z" />
  </g>
  <g fill="#fff" transform="translate(-6.34895 .205509)">
    <path d="m31.971994 58.247616q-.761718 0-1.207031-.488281v2.035156h-.726562v-5.851563h.664062l.03516.464844q.445313-.542969 1.222657-.542969.800781 0 1.226562.59375.425781.59375.425781 1.5625v.08203q0 .925781-.429687 1.535156-.425781.609375-1.210938.609375zm-.222656-3.773438q-.367187 0-.605469.167969-.238281.164063-.378906.414063v2.023437q.144531.25.378906.414063.238282.160156.613282.160156.585937 0 .855468-.460938.273438-.460937.273438-1.089843v-.08203q0-.628906-.273438-1.085937-.269531-.460938-.863281-.460938z" />
    <path d="m36.233713 57.653866q.386719 0 .675781-.230469.292969-.230469.320313-.589844h.6875q-.02734.566407-.519531.992188-.492188.421875-1.164063.421875-.953125 0-1.417969-.628906-.460937-.628907-.460937-1.480469v-.164063q0-.851562.460937-1.480468.464844-.628907 1.417969-.628907.742188 0 1.199219.441407.457031.4375.484375 1.089843h-.6875q-.02734-.390625-.296875-.664062-.265625-.273438-.699219-.273438-.445312 0-.699219.226563-.25.226562-.355468.574219-.101563.347656-.101563.714843v.164063q0 .371094.101563.71875.101562.347656.351562.574219.253906.222656.703125.222656z" />
    <path d="m41.339182 58.169491q-.07031-.152344-.101563-.445313-.203125.214844-.507812.371094-.304688.152344-.695313.152344-.648437 0-1.039062-.363281-.390625-.363282-.390625-.890625 0-.679688.515625-1.03125.515625-.355469 1.386719-.355469h.714843v-.335938q0-.375-.226562-.597656-.222656-.226562-.664063-.226562-.410156 0-.664062.203125-.25.199218-.25.464843h-.722656q0-.453125.457031-.851562.457031-.398438 1.222656-.398438.6875 0 1.128906.351563.441407.351562.441407 1.0625v1.96875q0 .210937.03516.449219.03906.238281.113281.410156v.0625zm-1.199219-.554688q.390625 0 .675781-.195312.289063-.195313.40625-.433594v-.871094h-.597656q-1.292969 0-1.292969.78125 0 .300782.203125.511719.203125.207031.605469.207031z" />
    <path d="m45.018869 58.247616q-.761718 0-1.207031-.488281v2.035156h-.726562v-5.851563h.664062l.03516.464844q.445313-.542969 1.222657-.542969.800781 0 1.226562.59375.425781.59375.425781 1.5625v.08203q0 .925781-.429687 1.535156-.425781.609375-1.210938.609375zm-.222656-3.773438q-.367187 0-.605469.167969-.238281.164063-.378906.414063v2.023437q.144531.25.378906.414063.238282.160156.613282.160156.585937 0 .855468-.460938.273438-.460937.273438-1.089843v-.08203q0-.628906-.273438-1.085937-.269531-.460938-.863281-.460938z" />
  </g>
</svg>
