<?xml version="1.0" encoding="UTF-8" standalone="no"?>
<svg
   xmlns:osb="http://www.openswatchbook.org/uri/2009/osb"
   xmlns:dc="http://purl.org/dc/elements/1.1/"
   xmlns:cc="http://creativecommons.org/ns#"
   xmlns:rdf="http://www.w3.org/1999/02/22-rdf-syntax-ns#"
   xmlns:svg="http://www.w3.org/2000/svg"
   xmlns="http://www.w3.org/2000/svg"
   xmlns:xlink="http://www.w3.org/1999/xlink"
   xmlns:sodipodi="http://sodipodi.sourceforge.net/DTD/sodipodi-0.dtd"
   xmlns:inkscape="http://www.inkscape.org/namespaces/inkscape"
   width="64"
   viewBox="0 0 64 64"
   height="64"
   id="svg2"
   version="1.1"
   inkscape:version="0.91 r13725"
   sodipodi:docname="application-x-desktop-xfce.svg"
   inkscape:export-filename="E:\Usuarios\David\Desktop\android.png"
   inkscape:export-xdpi="90"
   inkscape:export-ydpi="90">
  <metadata
     id="metadata14">
    <rdf:RDF>
      <cc:Work
         rdf:about="">
        <dc:format>image/svg+xml</dc:format>
        <dc:type
           rdf:resource="http://purl.org/dc/dcmitype/StillImage" />
        <dc:title></dc:title>
      </cc:Work>
    </rdf:RDF>
  </metadata>
  <defs
     id="defs12">
    <linearGradient
       osb:paint="gradient"
       id="linearGradient4207">
      <stop
         id="stop3371"
         offset="0"
         style="stop-color:#3498db;stop-opacity:1;" />
      <stop
         id="stop3373"
         offset="1"
         style="stop-color:#3498db;stop-opacity:0;" />
    </linearGradient>
    <linearGradient
       inkscape:collect="always"
       xlink:href="#linearGradient4422-1"
       id="linearGradient4182"
       x1="-74.929466"
       y1="52.199436"
       x2="-75.259552"
       y2="2.3564887"
       gradientUnits="userSpaceOnUse"
       gradientTransform="matrix(1.0749904,0,0,1.0292896,56.688954,-0.01528455)" />
    <linearGradient
       id="linearGradient4422-8">
      <stop
         style="stop-color:#259ee1;stop-opacity:1"
         offset="0"
         id="stop4424-9" />
      <stop
         style="stop-color:#19b4fd;stop-opacity:1"
         offset="1"
         id="stop4426-0" />
    </linearGradient>
    <linearGradient
       id="linearGradient4422-1">
      <stop
         id="stop4424-78"
         offset="0"
         style="stop-color:#8798a9;stop-opacity:1" />
      <stop
         id="stop4426-8"
         offset="1"
         style="stop-color:#aeb6be;stop-opacity:1" />
    </linearGradient>
    <linearGradient
       id="linearGradient4422">
      <stop
         style="stop-color:#798695;stop-opacity:1"
         offset="0"
         id="stop4424" />
      <stop
         style="stop-color:#8f9fb0;stop-opacity:1"
         offset="1"
         id="stop4426" />
    </linearGradient>
  </defs>
  <sodipodi:namedview
     pagecolor="#747474"
     bordercolor="#666666"
     borderopacity="1"
     objecttolerance="10"
     gridtolerance="10"
     guidetolerance="10"
     inkscape:pageopacity="1"
     inkscape:pageshadow="2"
     inkscape:window-width="1366"
     inkscape:window-height="712"
     id="namedview10"
     showgrid="false"
     inkscape:zoom="7.4552197"
     inkscape:cx="37.258207"
     inkscape:cy="28.724175"
     inkscape:window-x="0"
     inkscape:window-y="28"
     inkscape:window-maximized="1"
     inkscape:current-layer="g4186"
     inkscape:snap-bbox="true"
     inkscape:bbox-nodes="true"
     inkscape:object-nodes="true"
     borderlayer="false"
     showguides="true"
     inkscape:snap-nodes="true"
     inkscape:object-paths="false"
     inkscape:showpageshadow="false"
     showborder="true">
    <inkscape:grid
       type="xygrid"
       id="grid4160"
       visible="true" />
    <sodipodi:guide
       position="28.888657,63.404975"
       orientation="0,35.2"
       id="guide6108" />
    <sodipodi:guide
       position="54,55.679691"
       orientation="51.200004,0"
       id="guide6112" />
    <sodipodi:guide
       position="58.527669,62"
       orientation="0,1"
       id="guide6114"
       inkscape:label=""
       inkscape:color="rgb(0,0,255)" />
    <sodipodi:guide
       position="10,4"
       orientation="-56,0"
       id="guide6116" />
    <sodipodi:guide
       position="11,4"
       orientation="-2.8421709e-014,0"
       id="guide6118" />
    <sodipodi:guide
       position="12,62"
       orientation="0,35.2"
       id="guide6120" />
    <sodipodi:guide
       position="52,2"
       orientation="0,-40"
       id="guide6126" />
    <sodipodi:guide
       position="12,62"
       orientation="0,35.2"
       id="guide6138" />
    <sodipodi:guide
       position="55,3"
       orientation="0,-40"
       id="guide6156" />
    <sodipodi:guide
       position="53,4.3973202"
       orientation="-56,0"
       id="guide6158" />
    <sodipodi:guide
       position="21,48"
       orientation="0,22"
       id="guide4238" />
    <sodipodi:guide
       position="43,48"
       orientation="22,0"
       id="guide4240" />
    <sodipodi:guide
       position="43,26"
       orientation="0,-22"
       id="guide4242" />
    <sodipodi:guide
       position="21,26"
       orientation="-22,0"
       id="guide4244" />
  </sodipodi:namedview>
  <g
     id="g4186"
     transform="translate(56.391766,-0.17677665)">
    <rect
       ry="2.5"
       y="54.477486"
       x="-46.391766"
       height="7.6992903"
       width="44"
       id="rect4162"
       style="opacity:1;fill:#3d434a;fill-opacity:1;stroke:none;stroke-width:0.185;stroke-linecap:round;stroke-linejoin:round;stroke-miterlimit:4;stroke-dasharray:none;stroke-dashoffset:0;stroke-opacity:1" />
    <rect
       ry="2.5"
       y="1.6457753"
       x="-46.391766"
       height="52.831711"
       width="44"
       id="rect4174"
       style="opacity:1;fill:url(#linearGradient4182);fill-opacity:1.0;stroke:none;stroke-width:0.30000001;stroke-linecap:round;stroke-linejoin:round;stroke-miterlimit:4;stroke-dasharray:none;stroke-dashoffset:0;stroke-opacity:1" />
    <rect
       ry="0"
       y="51.264462"
       x="-46.391766"
       height="7.9118414"
       width="44"
       id="rect4184"
       style="opacity:1;fill:#3d434a;fill-opacity:1;stroke:none;stroke-width:0.185;stroke-linecap:round;stroke-linejoin:round;stroke-miterlimit:4;stroke-dasharray:none;stroke-dashoffset:0;stroke-opacity:1" />
    <g
       style="font-style:normal;font-weight:normal;font-size:9.36996746px;line-height:125%;font-family:sans-serif;letter-spacing:0px;word-spacing:0px;fill:#ffffff;fill-opacity:1;stroke:none;stroke-width:1px;stroke-linecap:butt;stroke-linejoin:miter;stroke-opacity:1"
       id="text4161"
       transform="matrix(0.81954967,0,0,0.81954967,-4.6342827,10.221831)">
      <g
         style="font-style:normal;font-weight:normal;font-size:13.75px;line-height:125%;font-family:sans-serif;letter-spacing:0px;word-spacing:0px;fill:#ffffff;fill-opacity:1;stroke:none;stroke-width:1px;stroke-linecap:butt;stroke-linejoin:miter;stroke-opacity:1"
         id="text4269">
        <path
           d="m -38.518632,59.820313 q -0.95,0 -1.64,-0.75 -0.69,-0.75 -0.69,-1.86 0,-1.11 0.69,-1.86 0.69,-0.75 1.64,-0.75 0.56,0 1,0.24 0.45,0.24 0.67,0.6 l 0.04,0 -0.04,-0.68 0,-2.26 0.92,0 0,7.16 -0.88,0 0,-0.68 -0.04,0 q -0.22,0.36 -0.67,0.6 -0.44,0.24 -1,0.24 z m 0.15,-0.84 q 0.65,0 1.1,-0.48 0.46,-0.48 0.46,-1.29 0,-0.81 -0.46,-1.29 -0.45,-0.48 -1.1,-0.48 -0.64,0 -1.1,0.49 -0.46,0.48 -0.46,1.28 0,0.8 0.46,1.29 0.46,0.48 1.1,0.48 z"
           style="font-style:normal;font-variant:normal;font-weight:normal;font-stretch:normal;font-size:10px;font-family:'Product Sans';-inkscape-font-specification:'Product Sans';fill:#ffffff;fill-opacity:1"
           id="path4185" />
        <path
           d="m -32.645507,59.820313 q -1.11,0 -1.81,-0.74 -0.69,-0.74 -0.69,-1.87 0,-1.07 0.67,-1.84 0.68,-0.77 1.73,-0.77 1.09,0 1.74,0.71 0.66,0.71 0.66,1.9 l -0.01,0.17 -3.87,0 q 0.04,0.74 0.49,1.17 0.46,0.43 1.07,0.43 0.99,0 1.34,-0.84 l 0.82,0.34 q -0.24,0.57 -0.79,0.96 -0.55,0.38 -1.35,0.38 z m 1.32,-3.2 q -0.03,-0.42 -0.39,-0.8 -0.35,-0.38 -1.05,-0.38 -0.51,0 -0.89,0.32 -0.37,0.32 -0.51,0.86 l 2.84,0 z"
           style="font-style:normal;font-variant:normal;font-weight:normal;font-stretch:normal;font-size:10px;font-family:'Product Sans';-inkscape-font-specification:'Product Sans';fill:#ffffff;fill-opacity:1"
           id="path4187" />
        <path
           d="m -27.63535,59.820313 q -0.82,0 -1.36,-0.4 -0.53,-0.4 -0.78,-1 l 0.82,-0.34 q 0.39,0.92 1.33,0.92 0.43,0 0.7,-0.19 0.28,-0.19 0.28,-0.5 0,-0.48 -0.67,-0.65 l -0.99,-0.24 q -0.47,-0.12 -0.89,-0.45 -0.42,-0.34 -0.42,-0.91 0,-0.65 0.57,-1.05 0.58,-0.41 1.37,-0.41 0.65,0 1.16,0.3 0.51,0.29 0.73,0.84 l -0.8,0.33 q -0.27,-0.65 -1.12,-0.65 -0.41,0 -0.69,0.17 -0.28,0.17 -0.28,0.46 0,0.42 0.65,0.57 l 0.97,0.23 q 0.69,0.16 1.02,0.55 0.33,0.39 0.33,0.88 0,0.66 -0.54,1.1 -0.54,0.44 -1.39,0.44 z"
           style="font-style:normal;font-variant:normal;font-weight:normal;font-stretch:normal;font-size:10px;font-family:'Product Sans';-inkscape-font-specification:'Product Sans';fill:#ffffff;fill-opacity:1"
           id="path4189" />
        <path
           d="m -23.984569,52.500313 0,4.41 2.12,-2.15 1.18,0 0,0.04 -1.91,1.91 2,2.91 0,0.04 -1.11,0 -1.54,-2.31 -0.74,0.74 0,1.57 -0.92,0 0,-7.16 0.92,0 z"
           style="font-style:normal;font-variant:normal;font-weight:normal;font-stretch:normal;font-size:10px;font-family:'Product Sans';-inkscape-font-specification:'Product Sans';fill:#ffffff;fill-opacity:1"
           id="path4191" />
        <path
           d="m -17.96035,59.740313 q -0.77,0 -1.18,-0.41 -0.4,-0.41 -0.4,-1.16 l 0,-2.57 -0.86,0 0,-0.84 0.86,0 0,-1.5 0.92,0 0,1.5 1.2,0 0,0.84 -1.2,0 0,2.5 q 0,0.8 0.66,0.8 0.25,0 0.42,-0.08 l 0.32,0.79 q -0.3,0.13 -0.74,0.13 z"
           style="font-style:normal;font-variant:normal;font-weight:normal;font-stretch:normal;font-size:10px;font-family:'Product Sans';-inkscape-font-specification:'Product Sans';fill:#ffffff;fill-opacity:1"
           id="path4193" />
        <path
           d="m -16.173788,55.350313 q 0.71,-0.75 1.81,-0.75 1.1,0 1.81,0.75 0.71,0.74 0.71,1.86 0,1.12 -0.71,1.87 -0.71,0.74 -1.81,0.74 -1.1,0 -1.81,-0.74 -0.71,-0.75 -0.71,-1.87 0,-1.12 0.71,-1.86 z m 0.68,3.15 q 0.48,0.48 1.13,0.48 0.65,0 1.12,-0.48 0.48,-0.49 0.48,-1.29 0,-0.8 -0.48,-1.28 -0.47,-0.49 -1.12,-0.49 -0.65,0 -1.13,0.49 -0.47,0.48 -0.47,1.28 0,0.8 0.47,1.29 z"
           style="font-style:normal;font-variant:normal;font-weight:normal;font-stretch:normal;font-size:10px;font-family:'Product Sans';-inkscape-font-specification:'Product Sans';fill:#ffffff;fill-opacity:1"
           id="path4195" />
        <path
           d="m -8.5069128,59.820313 q -0.56,0 -1.01,-0.24 -0.44,-0.24 -0.6600002,-0.6 l -0.04,0 0.04,0.68 0,2.16 -0.92,0 0,-7.06 0.88,0 0,0.68 0.04,0 q 0.2200002,-0.36 0.6600002,-0.6 0.45,-0.24 1.01,-0.24 0.95,0 1.64,0.75 0.69,0.75 0.69,1.86 0,1.11 -0.69,1.86 -0.69,0.75 -1.64,0.75 z m -0.15,-0.84 q 0.64,0 1.1,-0.48 0.46,-0.49 0.46,-1.29 0,-0.8 -0.46,-1.28 -0.46,-0.49 -1.1,-0.49 -0.65,0 -1.11,0.48 -0.4500002,0.48 -0.4500002,1.29 0,0.81 0.4500002,1.29 0.46,0.48 1.11,0.48 z"
           style="font-style:normal;font-variant:normal;font-weight:normal;font-stretch:normal;font-size:10px;font-family:'Product Sans';-inkscape-font-specification:'Product Sans';fill:#ffffff;fill-opacity:1"
           id="path4197" />
      </g>
    </g>
    <g
       inkscape:transform-center-y="-9.4924686"
       inkscape:transform-center-x="5.4653607"
       inkscape:label="Capa 1"
       id="layer1"
       transform="translate(-498.44021,-512.80124)">
      <g
         id="layer1-3"
         inkscape:label="Capa 1"
         transform="translate(0.41988239,0.03484499)">
        <g
           style="fill:#104563;fill-opacity:1"
           inkscape:label="Capa 1"
           id="layer1-34"
           transform="matrix(1.8038299,0,0,1.8038299,-589.54623,-575.79303)" />
      </g>
    </g>
    <g
       style="fill:#3d434a;stroke:none;stroke-width:1.29989684;stroke-miterlimit:4;stroke-dasharray:none;stroke-opacity:1"
       id="g3637"
       transform="matrix(0.67591675,0,0,0.67591675,-279.33013,-230.07491)">
      <g
         inkscape:export-ydpi="92.220436"
         inkscape:export-xdpi="92.220436"
         inkscape:export-filename="/ssh/nebula/public_html/temp/xubuntu/precise_logo/logo_bigsizes.png"
         transform="matrix(1.6,0,0,1.6,-180.73698,-248.42295)"
         id="g3372"
         style="fill:#3d434a;fill-opacity:1">
        <g
           id="g3368"
           transform="translate(0.44642857,-0.04464286)"
           style="fill:#3d434a;fill-opacity:1">
          <path
             d="m 355.83984,380.40234 c -0.0604,0.037 -0.0851,0.0689 -0.0703,0.0449 -0.6791,1.14846 -0.68514,2.65218 -0.99219,4.00195 a 0.4982215,0.4982215 0 0 1 0,0.0703 c -0.1505,1.47805 -0.63371,2.98202 -0.24609,4.40039 a 0.4982215,0.4982215 0 0 1 0.0391,0.0899 c 0.0721,0.0932 0.16294,0.17837 0.2168,0.18945 0.0403,0.008 0.10045,-0.0102 0.24023,-0.10742 0.15127,-0.1053 0.24855,-0.2987 0.29297,-0.57618 a 0.4982215,0.4982215 0 0 1 0.0859,-0.20898 c 0.60561,-2.40329 1.03769,-4.92777 0.87695,-7.39844 a 0.4982215,0.4982215 0 0 1 0,-0.0254 c -0.021,-0.11401 -0.0566,-0.18236 -0.16601,-0.31445 -0.0753,-0.0907 -0.12141,-0.13888 -0.14063,-0.15234 -0.0192,-0.0135 -0.003,-0.0158 -0.0723,-0.0117 a 0.4982215,0.4982215 0 0 1 -0.0645,-0.002 z"
             id="path3366"
             style="fill:#3d434a;fill-opacity:1;stroke:none"
             inkscape:original="M 355.71875 379.90625 C 355.68125 379.91125 355.65195 379.93505 355.59375 379.96875 C 355.47738 380.03605 355.39105 380.1111 355.34375 380.1875 C 354.55632 381.51387 354.58195 383.13517 354.28125 384.40625 A 0.41364053 0.41365909 0 0 0 354.28125 384.46875 C 354.13756 385.87984 353.5878 387.50263 354.0625 389.125 A 0.41364053 0.41365909 0 0 0 354.09375 389.15625 A 0.41364053 0.41365909 0 0 0 354.09375 389.21875 C 354.22466 389.44765 354.44007 389.6366 354.6875 389.6875 C 354.93495 389.7377 355.14523 389.6164 355.3125 389.5 C 355.61157 389.29182 355.7553 388.95103 355.8125 388.59375 L 355.875 388.59375 L 355.875 388.5 C 356.49625 386.05054 356.94871 383.449 356.78125 380.875 A 0.41364053 0.41365909 0 0 0 356.78125 380.8125 C 356.74305 380.58377 356.63856 380.41727 356.5 380.25 C 356.36183 380.08363 356.21445 379.88625 355.875 379.90625 A 0.41364053 0.41365909 0 0 0 355.8125 379.90625 C 355.7934 379.90825 355.75625 379.90125 355.71875 379.90625 z "
             inkscape:radius="-0.49817169"
             sodipodi:type="inkscape:offset" />
          <path
             transform="translate(-0.49107143,-0.26785714)"
             d="m 361.90234,381.83789 a 0.46681363,0.46681363 0 0 1 -0.0508,0.004 c -1.04198,0.5071 -1.57789,1.73208 -2.29883,2.71679 a 0.46681363,0.46681363 0 0 1 -0.0527,0.13868 c -0.90784,1.60892 -2.06389,3.20366 -2.18555,5.06445 0.006,0.29418 0.17347,0.46224 0.34766,0.5 0.16423,0.0345 0.4648,-0.0716 0.58789,-0.25586 0.0107,-0.0266 0.002,-0.0534 0.0176,-0.0762 a 0.46681363,0.46681363 0 0 1 0.0117,-0.0176 c 1.64599,-2.26173 2.89002,-4.94442 3.91211,-7.55078 a 0.46681363,0.46681363 0 0 1 0.002,-0.008 c 0.0707,-0.17114 0.0746,-0.23837 0.0117,-0.36719 -0.0185,-0.0381 -0.20261,-0.1609 -0.30274,-0.14844 z"
             id="path3364"
             style="fill:#3d434a;fill-opacity:1;stroke:none"
             inkscape:original="M 361.71875 381.375 C 360.36735 381.97973 359.80389 383.48371 359.09375 384.40625 A 0.35934087 0.35935699 0 0 0 359.09375 384.46875 C 358.2047 386.04438 356.96957 387.70963 356.84375 389.75 C 356.84375 390.25018 357.15979 390.63145 357.5625 390.71875 C 357.94157 390.80055 358.42044 390.62675 358.65625 390.25 C 358.67445 390.23 358.64175 390.2093 358.65625 390.1875 C 360.33963 387.8744 361.59578 385.15579 362.625 382.53125 C 362.72864 382.28034 362.74863 382.0347 362.625 381.78125 C 362.50136 381.52707 362.16517 381.335 361.84375 381.375 A 0.35934087 0.35935699 0 0 0 361.78125 381.375 L 361.71875 381.375 z "
             inkscape:radius="-0.46676695"
             sodipodi:type="inkscape:offset" />
        </g>
        <path
           inkscape:connector-curvature="0"
           style="fill:#3d434a;fill-opacity:1;stroke:none"
           d="m 345.66985,382.2774 c -0.16726,0.0311 -0.4161,0.1809 -0.59375,0.25 -0.62832,0.23837 -0.975,0.77698 -1.125,1.40625 -0.15274,0.64382 -0.10183,1.36084 0,2.09375 0.10181,0.73145 0.24752,1.48649 0.40625,2.0625 0.13645,0.49836 0.23415,0.7408 0.28125,0.90625 l 0,0.125 c 0,0.0545 -0.0261,0.05 -0.0625,0.0937 -0.02,0.0109 0.02,0.0625 0,0.0625 -0.0453,0.0346 -0.0999,0.0625 -0.15625,0.0625 -0.11101,0.007 -0.19778,-0.0334 -0.3125,-0.0625 -0.0782,-0.0181 -0.17995,-0.0807 -0.15625,-0.0625 -0.0363,-0.0218 -0.1013,-0.0243 -0.125,-0.0625 0,0.0146 0.0219,0.0143 0,-0.0312 -0.0254,-0.0473 -0.0537,-0.1664 -0.0937,-0.25 -0.0891,-0.18946 -0.15908,-0.40895 -0.28125,-0.6875 -0.24381,-0.55472 -0.55754,-1.23609 -0.90625,-1.875 -0.34999,-0.64145 -0.76223,-1.22354 -1.21875,-1.625 -0.22817,-0.20054 -0.50982,-0.40155 -0.78125,-0.46875 -0.26199,-0.0655 -0.57287,-0.01 -0.84375,0.125 -0.69997,0.38836 -1.09619,1.02422 -1.25,1.6875 -0.15456,0.67346 -0.0815,1.44899 0.0312,2.125 0.11454,0.67454 0.29189,1.23077 0.40625,1.6875 0.049,0.19254 0.1087,0.37235 0.125,0.46875 0,0.0955 -0.0389,0.3448 -0.0625,0.4375 -0.11818,0.40928 -0.40559,1.09375 -0.40625,1.09375 0,0 -5.45294,14.48293 6.25,13.46875 0.0964,-0.007 0.31535,-0.0625 0.40625,-0.0625 2.29827,-0.46272 4.47308,-1.15769 6.40625,-1.9375 0.3798,-0.182 0.87805,-0.36282 1.4375,-0.625 1.11885,-0.52418 2.52451,-1.19587 3.875,-1.9375 1.35103,-0.74219 2.60454,-1.533 3.5625,-2.375 0.9596,-0.84327 1.65997,-1.76731 1.53125,-2.6875 -0.20364,-1.48345 -1.18879,-2.58587 -2.5,-3.4375 -1.31613,-0.85473 -2.95728,-1.44464 -4.59375,-1.875 -1.63576,-0.43018 -3.2241,-0.78002 -4.4375,-0.96875 -0.60652,-0.0945 -1.1749,-0.122 -1.53125,-0.1875 -0.10544,-0.0181 -0.16175,-0.0443 -0.21875,-0.0625 -0.0307,-0.004 -0.0334,-0.0131 -0.0625,-0.0312 -0.0363,-0.0218 -0.1031,-0.0243 -0.125,-0.0625 -0.02,-0.0363 0,-0.0832 0,-0.125 0,-0.0163 -1.7e-4,-0.0407 0,-0.0625 l 0,-0.90625 c -0.02,-0.748 -0.064,-1.73553 -0.21875,-2.65625 -0.15637,-0.92455 -0.39754,-1.80879 -0.90625,-2.40625 -0.30235,-0.35545 -0.73038,-0.5887 -1.25,-0.625 -0.15636,-0.0182 -0.3311,-0.0309 -0.5,0 z"
           id="path3302" />
      </g>
    </g>
  </g>
</svg>
