<svg height="64" viewBox="0 0 64 64" width="64" xmlns="http://www.w3.org/2000/svg" xmlns:xlink="http://www.w3.org/1999/xlink"><linearGradient id="a" gradientTransform="matrix(1.0749904 0 0 1.1792904 56.688954 -.257355)" gradientUnits="userSpaceOnUse" x1="-74.929466" x2="-75.259552" y1="52.199436" y2="2.356489"><stop offset="0" stop-color="#de2b5b"/><stop offset="1" stop-color="#f73667"/></linearGradient><g transform="translate(56.391766 -.176777)"><rect fill="url(#a)" height="60.531002" ry="2.864331" width="44" x="-46.391766" y="1.645775"/><path d="m-46.391766 51.264668v5.71289 2.199219.5c0 1.385 1.115 2.5 2.5 2.5h39c1.385 0 2.5-1.115 2.5-2.5v-.5-2.199219-5.71289z" fill-opacity=".470588"/><g fill="#fff" transform="matrix(.81954967 0 0 .81954967 -4.734283 10.221831)"><path d="m-31.415087 57.88517 1.197542-3.713275h.844535l-1.733755 4.834853h-.63005l-1.751629-4.834853h.844535z"/><path d="m-24.484535 56.642943q0 1.108173-.509402 1.782908-.509403.670266-1.367343.670266-.916031 0-1.416496-.647924l-.04022.558555h-.759635v-6.863525h.826661v2.560417q.500466-.621114 1.380749-.621114.880283 0 1.380748.665798.504934.665798.504934 1.823124v.0715zm-.826662-.09384q0-.844536-.326196-1.304785-.326196-.46025-.938373-.46025-.817724 0-1.1752.759635v2.091231q.379818.759635 1.184137.759635.594303 0 .924968-.46025.330664-.460249.330664-1.385216z"/><path d="m-23.666811 56.544637q0-.710482.277044-1.277974.281512-.567492.777509-.875814.500465-.308323 1.139452-.308323.987525 0 1.595233.683672.612177.683671.612177 1.818655v.05809q0 .706014-.272575 1.269037-.268106.558555-.77304.871346-.500466.312791-1.152858.312791-.983057 0-1.595234-.683671-.607708-.683672-.607708-1.809719zm.831131.09831q0 .804319.37088 1.291379.375349.48706 1.000931.48706.63005 0 1.000931-.491528.37088-.495997.37088-1.385217 0-.795382-.379817-1.286911-.375349-.495997-1.000931-.495997-.612176 0-.987525.48706-.375349.48706-.375349 1.394154z"/><path d="m-16.696043 55.936929 1.072426-1.765034h.965184l-1.581829 2.390616 1.630981 2.444237h-.956246l-1.11711-1.809718-1.11711 1.809718h-.960715l1.630981-2.444237-1.581828-2.390616h.956246z"/></g><g fill-opacity=".470588" fill-rule="evenodd" transform="matrix(.96619295 0 0 .96619295 -1.995698 1.832038)"><path d="m-22.507006 38.651429 9.899608-5.594836-.06738-10.525372-9.832219 5.387803z"/><path d="m-23.593813 38.603813-9.935792-5.615289.06762-10.563842 9.868159 5.407495z"/><path d="m-22.910856 15.88165-10.086339 5.616701 10.032161 5.50928 10.051775-5.507412zm-3.845661 2.687386c.05754-.0031.117169.01011.165334.03923l1.455317.879916c.08027.04853.106794.12949.06258.19616l-.439957.66881 1.406744-.40633c.08503-.02515.18527-.0102.248469.03923.06492.04831.08333.119613.04764.18028l-.842552 1.385259 3.698074-2.560348c.08056-.05614.207032-.05931.297042-.0065.0917.06547.112184.144769.05324.213907l-1.758897 2.056873.920082.556719c.09647.0584.111106.160861.03269.228853-.07851.06808-.220761.07629-.317591.01775l-1.073273-.648261c-.08758-.05295-.10899-.142968-.04951-.211105l.917279-1.074207-3.231028 2.238087c-.07626.0526-.196719.05861-.285832.01214-.0052-.0028-.0097-.0043-.01494-.0075-.0782-.04728-.104918-.125141-.06352-.191489l1.079812-1.776645-1.430097.413803c-.08597.02496-.188481.0099-.251271-.0411-.06538-.04993-.0813-.12263-.04203-.183082l.615567-.936896-1.318939-.797715c-.09638-.0582-.111107-.160861-.03269-.228853.03938-.03415.09472-.05383.152257-.05698zm5.695165 3.535541c.05758-.0032.1172.0092.165334.0383l.553917.33534c.09608.05809.111158.16175.03269.229787-.07851.06808-.221512.0749-.317592.01681l-.553917-.334405c-.09627-.0582-.111208-.161707-.03269-.229787.03921-.034.09468-.05286.152258-.05605zm1.157341.699636c.0576-.0032.117294.0093.165335.0383l.589412.356823c.09602.05805.111157.161751.03269.229787-.07851.06808-.221574.0758-.317591.01775l-.589413-.356823c-.09608-.05809-.111208-.161707-.03269-.229787.03921-.034.09466-.05287.152257-.05605z"/></g></g></svg>