<svg height="64" viewBox="0 0 64 64" width="64" xmlns="http://www.w3.org/2000/svg" xmlns:xlink="http://www.w3.org/1999/xlink">
  <linearGradient id="a" gradientTransform="matrix(1.0749904 0 0 1.1792904 113.08072 -.434132)" gradientUnits="userSpaceOnUse" x1="-74.929466" x2="-75.259552" y1="52.199436" y2="2.356489">
    <stop offset="0" stop-color="#808080" />
    <stop offset="1" stop-color="#ccc" />
  </linearGradient>
  <rect fill="url(#a)" height="60.531002" ry="2.864331" width="44" x="10" y="1.468998" />
  <path d="m10 51.087891v5.71289 2.199219.5c0 1.385 1.115 2.5 2.5 2.5h39c1.385 0 2.5-1.115 2.5-2.5v-.5-2.199219-5.71289z" fill-opacity=".235294" />
  <g fill="#fff">
    <path d="m42.990905 22.67635c-.06186-.325887-.346728-.48162-.855308-.467237l-6.813774.294242-4.11276-5.446223c-.235686-.329348-.485895-.468815-.750012-.41869-.26412.05012-.445668.27154-.544461.664368l-1.831544 6.574387-6.448103 2.222721c-.478003.172852-.686172.422167-.624321.748054.03509.184997.185322.375524.450609.571424l5.695706 3.763544.117588 6.820254c.0058.126739.01369.216603.02368.269298.03509.184999.110945.332359.227643.442742.116673.110227.267382.14763.452377.112508.158565-.0301.324674-.116048.498332-.258687l5.339145-4.243276 6.52303 1.991961c.205219.07056.391296.08985.558296.05815.176566-.0335.298583-.12253.366723-.267976.06801-.14527.08454-.31034.04944-.495331-.02175-.11447-.04283-.201672-.06344-.261757l-2.389565-6.389058 3.907466-5.58612c.185808-.272446.259987-.505562.223213-.699311z" stroke-width=".217412" />
    <text font-family="Noto Sans" font-size="8" letter-spacing="0" word-spacing="0" x="24.669922" y="59.504883">
      <tspan fill="#fff" font-family="roboto" x="24.669922" y="59.504883">anki</tspan>
    </text>
  </g>
</svg>
