<svg height="64" viewBox="0 0 64 64" width="64" xmlns="http://www.w3.org/2000/svg" xmlns:xlink="http://www.w3.org/1999/xlink">
  <linearGradient id="a" gradientTransform="matrix(1.0749904 0 0 1.0292896 113.08072 -.192062)" gradientUnits="userSpaceOnUse" x1="-74.929466" x2="-75.259552" y1="52.199436" y2="2.356489">
    <stop offset="0" stop-color="#1b92f4" />
    <stop offset="1" stop-color="#20b9fa" />
  </linearGradient>
  <rect fill="#0c426b" height="7.69929" ry="2.5" width="44" x="10" y="54.300709" />
  <rect fill="url(#a)" height="52.831711" ry="2.5" width="44" x="10" y="1.468998" />
  <path d="m10 51.087685h44v7.911841h-44z" fill="#0c426b" />
  <path clip-rule="evenodd" d="m181.378 254.252c4.032 1.57 8.63 1.47 12.699-.488l52.706-25.362c5.539-2.665 9.061-8.27 9.061-14.419v-171.9651c0-6.1492-3.522-11.7543-9.06-14.4193l-52.707-25.36195c-5.34-2.569949-11.591-1.940473-16.279 1.46736-.669.48682-1.307 1.03036-1.906 1.62936l-100.8993 92.05263-43.9498-33.3615c-4.0912-3.1056-9.8139-2.8511-13.6137.6053l-14.09609 12.8225c-4.64789 4.228-4.65322 11.5402-.01151 15.775l38.1148 34.7727-38.1148 34.773c-4.64171 4.235-4.63638 11.547.01151 15.775l14.09609 12.822c3.7998 3.457 9.5225 3.711 13.6137.606l43.9498-33.362 100.8993 92.053c1.596 1.597 3.471 2.8 5.486 3.585zm10.505-184.3669-76.56 58.1149 76.56 58.115z" fill="#0c426b" fill-rule="evenodd" transform="matrix(.1015624 0 0 .1015624 18.841523 14.148988)" />
  <g fill="#fff">
    <path d="m16.196033 58.072002-.736-2.416q-.104-.328-.184-.64-.08-.312-.112-.496h-.032q-.032.184-.104.496-.072.312-.184.648l-.768 2.408h-.8l-1.176-4.288h.728l.592 2.288q.088.344.168.696.08.352.112.584h.032q.024-.136.072-.336.048-.2.104-.416.056-.224.112-.4l.76-2.416h.768l.736 2.416q.08.28.168.6.088.32.12.544h.032q.024-.2.104-.552.088-.352.184-.72l.6-2.288h.72l-1.192 4.288z" />
    <path d="m22.708028 55.928002q0 1.064-.544 1.648-.536.584-1.456.584-.568 0-1.016-.256-.44-.264-.696-.76-.256-.504-.256-1.216 0-1.064.528-1.64.536-.576 1.464-.576.576 0 1.024.264.448.256.696.752.256.488.256 1.2zm-3.24 0q0 .76.296 1.208.304.44.96.44.648 0 .952-.44.304-.448.304-1.208 0-.76-.304-1.192-.304-.432-.96-.432-.656 0-.952.432-.296.432-.296 1.192z" />
    <path d="m25.820024 53.712002q.12 0 .256.016.136.008.248.032l-.088.648q-.104-.024-.232-.04-.128-.016-.232-.016-.328 0-.616.184-.288.176-.464.504-.168.32-.168.752v2.288h-.704v-4.288h.576l.08.784h.032q.2-.352.528-.608.336-.256.784-.256z" />
    <path d="m27.82001 52.000002v3.176q0 .128-.016.336-.008.208-.016.36h.032q.048-.064.144-.184.096-.12.192-.24.104-.128.176-.208l1.368-1.448h.824l-1.736 1.832 1.856 2.456h-.848l-1.488-2-.488.424v1.576h-.696v-6.08z" />
    <path d="m34.187998 56.896002q0 .624-.464.944-.464.32-1.248.32-.448 0-.776-.072-.32-.072-.568-.2v-.64q.256.128.616.24.368.104.744.104.536 0 .776-.168.24-.176.24-.464 0-.16-.088-.288-.088-.128-.32-.256-.224-.128-.648-.288-.416-.16-.712-.32-.296-.16-.456-.384-.16-.224-.16-.576 0-.544.44-.84.448-.296 1.168-.296.392 0 .728.08.344.08.64.208l-.24.56q-.272-.112-.568-.192-.296-.08-.608-.08-.432 0-.664.144-.224.136-.224.376 0 .184.104.304.104.12.344.24.248.12.656.272.408.152.696.312.288.16.44.392.152.224.152.568z" />
    <path d="m37.267983 53.712002q.792 0 1.272.552.488.552.488 1.664 0 1.096-.488 1.664-.48.568-1.28.568-.496 0-.824-.184-.32-.184-.504-.44h-.048q.008.136.024.344.024.208.024.36v1.76h-.704v-6.208h.576l.096.584h.032q.192-.28.504-.472.312-.192.832-.192zm-.128.592q-.656 0-.928.368-.272.368-.28 1.12v.136q0 .792.256 1.224.264.424.968.424.384 0 .64-.208.256-.216.376-.592.128-.376.128-.856 0-.736-.288-1.176-.28-.44-.872-.44z" />
    <path d="m41.771981 53.720002q.784 0 1.16.344.376.344.376 1.096v2.92h-.512l-.136-.608h-.032q-.28.352-.592.52-.312.168-.848.168-.584 0-.968-.304-.384-.312-.384-.968 0-.64.504-.984.504-.352 1.552-.384l.728-.024v-.256q0-.536-.232-.744-.232-.208-.656-.208-.336 0-.64.104-.304.096-.568.224l-.216-.528q.28-.152.664-.256.384-.112.8-.112zm.84 2.264-.632.024q-.8.032-1.112.256-.304.224-.304.632 0 .36.216.528.224.168.568.168.536 0 .896-.296.368-.304.368-.928z" />
    <path d="m46.355973 58.160002q-.576 0-1.016-.232-.44-.232-.696-.72-.248-.488-.248-1.248 0-.792.256-1.288.264-.496.72-.728.456-.232 1.032-.232.32 0 .624.072.312.064.504.16l-.216.584q-.192-.072-.448-.136-.256-.064-.48-.064-1.264 0-1.264 1.624 0 .776.304 1.192.312.408.92.408.344 0 .616-.072.272-.072.496-.176v.624q-.216.112-.48.168-.256.064-.624.064z" />
    <path d="m50.131969 53.712002q.544 0 .944.24.4.24.608.68.216.432.216 1.016v.424h-2.936q.016.728.368 1.112.36.376 1 .376.408 0 .72-.072.32-.08.656-.224v.616q-.328.144-.648.208-.32.072-.76.072-.616 0-1.08-.248-.464-.248-.728-.736-.256-.488-.256-1.208 0-.704.232-1.208.24-.504.664-.776.432-.272 1-.272zm-.008.576q-.504 0-.8.328-.288.32-.344.896h2.184q-.008-.544-.256-.88-.248-.344-.784-.344z" />
  </g>
</svg>
