<svg height="64" viewBox="0 0 64 64" width="64" xmlns="http://www.w3.org/2000/svg" xmlns:xlink="http://www.w3.org/1999/xlink"><linearGradient id="a" gradientTransform="matrix(1.0749904 0 0 1.0292896 56.688954 -.015285)" gradientUnits="userSpaceOnUse" x1="-74.929466" x2="-75.259552" y1="52.199436" y2="2.356489"><stop offset="0" stop-color="#0cb096"/><stop offset="1" stop-color="#34d6b6"/></linearGradient><g transform="translate(56.391766 -.176777)"><rect fill="#075447" height="7.69929" ry="2.5" width="44" x="-46.391766" y="54.477486"/><rect fill="url(#a)" height="52.831711" ry="2.5" width="44" x="-46.391766" y="1.645775"/><path d="m-46.391766 51.264462h44v7.911841h-44z" fill="#075447"/><g fill="#fff" transform="matrix(.81954967 0 0 .81954967 -4.934687 10.121731)"><path d="m-26.911276 60.270805h-.94l-1.22-3.76-1.21 3.76h-.93l-1.58-4.9h.96l1.09 3.7h.01l1.21-3.7h.95l1.21 3.7h.01l1.08-3.7h.94z"/><path d="m-22.60987 60.430805q-1.11 0-1.81-.74-.69-.74-.69-1.87 0-1.07.67-1.84.68-.77 1.73-.77 1.09 0 1.74.71.66.71.66 1.9l-.01.17h-3.87q.04.74.49 1.17.46.43 1.07.43.99 0 1.34-.84l.82.34q-.24.57-.79.96-.55.38-1.35.38zm1.32-3.2q-.03-.42-.39-.8-.35-.38-1.05-.38-.51 0-.89.32-.37.32-.51.86z"/><path d="m-16.888307 60.430805q-.56 0-1.01-.24-.44-.24-.66-.6h-.04v.68h-.88v-7.16h.92v2.26l-.04.68h.04q.22-.36.66-.6.45-.24 1.01-.24.95 0 1.64.75.69.75.69 1.86 0 1.11-.69 1.86-.69.75-1.64.75zm-.15-.84q.64 0 1.1-.48.46-.49.46-1.29 0-.8-.46-1.28-.46-.49-1.1-.49-.65 0-1.11.48-.45.48-.45 1.29 0 .81.45 1.29.46.48 1.11.48z"/></g><path d="m86.785793 18.105574c-7.207305 0-13.009575 5.802271-13.009575 13.009576s5.80227 13.009575 13.009575 13.009575 13.009577-5.80227 13.009577-13.009575-5.802272-13.009576-13.009577-13.009576zm0 1.182688c1.965182 0 3.810083.482423 5.437596 1.323596.0051.04699.0038.0816 0 .133977.06859.03074.108164.15791.224064.221754.04258.02365.07067.03416.110877.05543.06859.03784.125072.100097.110877.166316-.01892.09694-.15553.09308-.221754.164006.0095.137144-.0754.131845-.110878.224063.0213.05912.101431.03994.110878.110878-.01187.07566-.139263.08598-.110878.164005.127718.09931.267446.01655.38807 0 .2649-.0331.499754.01682.662953-.110877-.02129-.125318.180507-.163693.166316-.277193-.01187-.08513-.157895-.104891-.221755-.164005-.01432-.0133-.03267-.04661-.04851-.07162.195162.128224.381426.267291.568243.406549-.04603.03743-.08407.08474-.131666.106258-.04968.02127-.121375.02707-.166316.05543-.06623.04494-.09063.114343-.166316.164005-.05439.03784-.220428.166317-.277192.166317-.06859 0-.172086-.06969-.221754-.05313-.07095.02127-.03046.135631-.110877.164006-.156102.05675-.444548-.123217-.498947.110877.06623.134781.269811.09302.38807.166315.07333.04728.202833.252236.221754.332631.01892.06622.02838.317133 0 .388071-.07333.189165-.28135.171043-.498946.166315-.05913 0-.111918.0047-.166316 0-.366604-.02365-.719145-.151593-.884707.110877.01187.200988.04495.323968 0 .498947-.03312.127693-.173411.221497-.166317.33263.0023.05675.09668.143725.110878.221756.0095.04257-.01892.128486 0 .166315.06149.115856.223833-.01891.332631 0 .104065.01656.224065.161329.224065.277192 0 .08275-.06116.252235-.113183.332631-.104065.156062-.294503.136631-.443508.221754-.122995.07094-.148435.211983-.221754.334942-.07804.132416-.141628.198904-.110878.388069-.106434.210446-.225855.341831-.445817.443509-.06386.02837-.162624.06831-.221755.110877-.04729.03311-.100086.09064-.166316.166316-.08277.09223-.176816.150818-.221753.221754-.03312.05438-.01998.148452-.05544.221754-.05205.09931-.155529.177881-.221755.277192-.03075.04728-.07776.104836-.110877.166316-.07569.137144-.180505.267476-.166315.388069.01187.115857.15922.12008.166315.221755.0071.05675-.0578.102521-.05544.164006.0023.08985.04835.153127.05544.224064.01655.174978-.07778.212037-.110877.33263-.01655.05675.0142.121391 0 .166317-.02838.08748-.163951.170841-.166315.274882-.0023.07329.103778.120027.110877.224063.0047.07094-.06732.155547-.05313.221755.02601.127692.288731.288757.388069.38807.134816.134781.273501.246196.332632.38807.04968.120595.07409.298216.166316.38807.06859.06621.189682.09544.277192.164005.08277.06384.187372.09774.274883.166315.144277.113503.324963.349186.554385.332632.120621-.0095.253255-.08722.388069-.110877.139546-.02365.301597-.06732.443509-.05313.108805.01187.221412.06022.334942.05313.118257-.0071.253255-.05176.388069-.110877.234152-.101674.59956-.271411.940145-.221754.260169.03784.263699.327643.445819.443508.208136.01891.386513-.0402.552075 0 .125357.03075.265368.235628.277192.334941.01187.101673-.09668.21104-.110876.274882-.03312.137146-.03179.300583-.05543.38807-.01892.06858-.05551.153181-.05312.221755 0 .06148.102466.196797.166315.277192.07805.09931.180276.168423.274883.277193.17266.198625.267446.458233.388069.7207.03075.06621-.02838.08355 0 .166317-.05203.397248-.183338.668959-.443507 1.10877-.122983.141873-.279558.321603-.277193.498947-.0095.425622.240676.639586.221754 1.051021-.04258.55331-.01069.646882-.05312.942456.186848.09458.107547.355817.05312.552074-.08042.234094-.176816.289758-.221754.44582.146498.06338.307386.04789.471228.007-2.154778 2.296699-5.212982 3.73514-8.625327 3.73514-1.452006 0-2.835581-.27152-4.118622-.74611-.04712-.01865-.09909-.02933-.145525-.05544-.07333-.04257-.120339-.1319-.110877-.221753.122996-.05202.355942.117168.445817-.05543.04495-.08276-.05913-.249873 0-.332631.04258-.05675.300558-.09668.388071-.110877.125355-.02127.261674-.01047.33263-.05543.07805-.04966.180507-.186028.166316-.332631-.0071-.06858-.05648-.104837-.110877-.166317-.04495-.05202-.02469-.116719-.05543-.164005-.05677-.08275-.142665-.101155-.166317-.221754.170293-.0331.419284.179447.665263.110877.115904-.0331.278233-.279299.332632-.38807.01656-.03311-.01892-.126113 0-.166315.02128-.04494.106082-.08722.113183-.110877.01656-.06384-.0142-.07068 0-.110878.04258-.120595.150797-.189704.221754-.277193.05439-.06622.116661-.153179.166314-.221752.05678-.07329.07304-.102468.110877-.166317.03548-.215177-.107481-.362909-.05544-.552075.05678-.212812.348614-.348871.554386-.445818.07095-.0331.162621-.08959.221754-.110878.14191-.04966.311056-.06358.443507-.110877.222327-.08039.279271-.295594.38807-.498946.05205-.09457.103734-.208622.113182-.277193.0095-.06148-.01187-.09308 0-.164006.01187-.07093.03421-.146032.05312-.224063.02602-.101684.05544-.272262.05544-.385761 0-.09458-.05308-.138939-.05544-.224064-.01655-.307394.108243-.331062.221754-.498947.05678-.08275.07067-.215767.110877-.274882.19158-.283748.522599-.403535.498946-.833888-.0095-.141875-.05992-.454019-.164005-.498947-.05913-.02601-.189682-.02003-.277193-.05313-.279091-.104043-.485223-.422172-.77614-.445818-.06149-.0023-.09773.0023-.166315 0-.113525-.0023-.25804-.09668-.385759-.110878-.08043-.0095-.229889.02365-.277193 0-.07333-.03547-.05176-.181556-.110877-.221754-.04729-.0331-.150743-.02942-.224064-.05543-.115904-.04491-.197814-.10142-.332632-.110877-.04258-.0023-.119011.0071-.166314 0-.07333-.01187-.153166-.06831-.221755-.110877-.08516-.05203-.130838-.09072-.166316-.164006.07805-.255374-.169719-.296849-.221754-.445818-.02365-.06858.02365-.160274 0-.221754-.03075-.08748-.124784-.148453-.221754-.221754-.170293-.132418-.310772-.246453-.554385-.277193-.108804-.01187-.257985.0095-.38807 0-.13718-.0095-.284001-.103524-.38807-.221754-.09934-.115856-.134244-.222808-.221754-.277192-.08277-.05202-.220426-.05649-.277193-.110878-.02601-.02365-.02948-.0565-.05313-.110877-.04258-.08513-.107481-.120028-.05544-.224064-.09462-.04728-.0623.07435-.164006.05543-.09225-.13005-.179934-.206514-.38807-.166315-.09462.01891-.16603.163951-.277193.166315-.09224.0023-.156568-.149765-.277193-.166315-.09224-.01187-.213333.06963-.277192.05544-.101706-.01891-.129512-.104835-.221754-.166315-.06859-.04494-.183912-.16637-.221754-.164006-.118257.0023-.224873.251494-.388069.164006-.08043-.101684.147742-.127177.05312-.221754-.07095-.07094-.10725.01761-.164005.05543-.06623.04494-.148435.08487-.221754.110877-.163198.06148-.26035.04467-.38807.110877-.118257.06148-.155475.1566-.224064.277193-.05439.09932-.138973.270154-.221754.274881-.09934.0071-.187315-.126176-.277193-.164003-.271996-.118235-.438261.05078-.662952.05312-.208136.0023-.508408-.302686-.498948-.498945.0071-.120595.09668-.294541.110877-.443509.01187-.118233.10853-.22617.110878-.334942.0023-.144239-.240334-.258326-.334941-.274882-.222325-.0402-.520754.09932-.773829 0-.04729-.08039.08249-.146033.110877-.224065.01655-.04492-.01656-.06121 0-.110877.02838-.07566.128529-.141358.164005-.221753.02601-.06148.02944-.146088.05543-.221755.03075-.08513.103779-.160275.110877-.221754.0095-.08039-.04701-.172044-.110877-.224064-.196309.01187-.332288.0034-.445818.05543-.255439.115856-.185704.473991-.443508.554384-.08752.02837-.233294.03658-.332631.05312-.04325.0084-.09242.01552-.140906.02772.165184-.858629.420882-1.683981.759969-2.464705.05688-.000016.115856-.0076.154766 0 .08987.01656.146014.103778.224065.110876.217597.01656.263755-.182611.443508-.277193.184484.02601.277889-.01891.445817 0 .113528.01187.242755.159222.332632.166317.07569.0023.09537-.06728.166316-.05543.07096.01187.209927.136627.221754.221753.01187.106412-.08619.216712-.05544.33494.111161.113504.34048.155547.498947.221755.104065-.08513.01656-.265113 0-.38807-.0023-.05438.0071-.116647 0-.166315-.01187-.08513-.05313-.148453-.05313-.221755 0-.338133.271889-.477407.498946-.609823.09697-.05676.192046-.179193.277193-.221754.120621-.05912.177855-.05411.277192-.110878.179754-.101673.359402-.219076.498947-.33494.06387-.153698-.0071-.347614 0-.498947.06387-.0402.09541.0071.164007 0 .108804-.02365.162568-.160275.224063-.221754.03548-.03547.121437-.07541.164005-.110877.108804-.08513.127145-.18392.221755-.221755.03311-.01187.114283-.04125.166315-.05543.07097-.01891.163665-.07068.277193-.110877.07333-.02601.248811-.02476.277192-.05312.03548-.03547-.0095-.16968 0-.224065.05678-.267196.481819-.295906.720702-.38576.16556-.06384.314464-.201784.498947-.166315-.03548.127693-.197063.123493-.166316.277192.0402.215175.312383-.08014.388069-.110877.144277-.06148.420611-.09774.609825-.166315.165563-.05911.433294-.1411.277192-.332631-.130085-.0095-.163665.116719-.277192.164006-.07805.01187-.09777-.04841-.164006-.05313-.06387-.0023-.102467.06496-.166316.05313-.06387-.01187-.156855-.146088-.166315-.221755-.02602-.198624.196776-.241467.277192-.388068-.05439-.179709-.292138-.03994-.443508-.110878.01656-.106412.09641-.200473.221754-.221754.101706-.01656.326576.0034.38807.05312.03548.03074-.0013.116649.05312.166316.06149.05438.143649.01187.224064 0 .02838-.134782-.189969-.07883-.166315-.166316.160831-.104042.468952-.02713.665262-.05312.113526-.01656.230928-.111931.332631-.166316.09462-.05438.177856-.142988.277193-.05312.02838.09695-.05649.1721-.110877.221754-.18212.160793-.357037.312147-.498947.498948.08752.08513.241428.03657.38807.05313.05677.0071.10487.04598.164006.05543.07096.01187.167298-.01187.224063 0 .09934.02365.12241.166315.221754.166315.160833 0 .145379-.168421.05313-.277192.02838-.111138.09567-.199159.05544-.277192-.07333-.146603-.373877.02048-.388069-.166316-.0095-.118233.123748-.1319.166315-.221755-.01892-.226997.187658-.237789.164006-.443508-.01187-.08513-.104868-.08592-.164006-.166315-.03075-.04257-.01996-.135576-.05544-.166315-.122984-.104043-.373879-.07626-.38807-.274884-.0071-.118232.01656-.207253 0-.33494-.01655-.120596-.11769-.475302-.221755-.498948-.132448-.02837-.229601.203891-.388068.277193-.08514.0402-.24512.07199-.332632.05543-.05678-.01187-.159222-.05754-.166315-.166316-.01187-.125318.08724-.144775.110877-.277193 1.018959-.284381 2.089468-.448131 3.201572-.448131zm-4.770023 1.002514c-.03405.486443-.46797.738489-.979415.725321-.108804.104044-.05176.299268-.110877.443508-.04968.120595-.212008.233524-.332631.224065-.08752-.0071-.221754-.141305-.221754-.224065 0-.101684.140648-.159019.05313-.274881.0037-.02429.03549-.04876.06006-.07393.489072-.307912.997125-.5853 1.531489-.820029zm9.872678.563625c-.0435.008-.06772.03047-.106247.05312-.08987.05438-.09773.140307-.166317.166315-.09697.03547-.207562.0234-.221753.110877-.01187.0733.0578.09779.05543.164005-.03548.0875-.09195.115337-.110878.221755.120622.196259.403071-.01069.552075-.05313.06623-.01891.130839-.0034.166316-.05544.0402-.06384.02239-.185027.05313-.274882.03311-.09932.122712-.07882.110877-.166315-.0095-.0875-.185991-.180504-.332631-.166316zm-12.947207 1.411372c.115053.05893.309238.325207.08777.42041-.02365.01187-.331306.06496-.388069.05313-.04581-.0066-.08389-.04865-.122426-.09009.135961-.132774.280468-.257335.422718-.383451zm.418099.528977c.05678.0023.100086.106149.166316.110877.06387.0047.12847-.06727.166315-.05543.09934.02601.147743.203891.05313.277194-.07806.0095-.10725-.06495-.164006-.05312-.160832.02837-.214318.342091-.334942.332631-.113526-.01187-.169029-.24987-.05312-.332631.0023-.07094-.06019-.09537-.05543-.166316.03548-.04494.127145-.117973.221754-.110877v-.0023zm-.552076.05543c.03312 0 .04131-.0142.05313 0-.01655.125317-.06702.164948-.164006.224063-.167928.101674-.280542.225969-.334941.443508-.01655.06385-.194467.238308-.274883.221755-.186849-.0402.0683-.389124.110876-.443508.04729-.05911.109598-.100108.164007-.166316.05439-.06622.05886-.18392.110877-.221754.05678-.0402.235603-.06017.334941-.05543v-.0023zm16.733198.316461c.07469.08226.151694.162803.224064.247163-.07457-.08726-.196284-.120726-.224064-.247163zm-.723011.0231c.186849-.01187.302925.219133.38807.332632.07096.09223.272176.213347.38807.277193.06623.03547.148432.07777.221753.110877.15374.06858.436414.292175.443504.443507.0027.07566-.06491.153126-.05311.224064.115895.01891.219388-.161328.221758-.277193 0-.02749-.0094-.04459-.02083-.06236.334738.468342.636349.959805.900873 1.476051-.104263.0306-.193406.08093-.210206.182484-.02361.132419.0878.308986-.110879.332631-.125355.01656-.273161-.128488-.445814-.166315-.07099-.01656-.164991.01891-.221758 0-.130085-.04494-.110593-.196852-.221749-.274882-.06384-.04494-.233242-.09905-.334945-.110878-.06387-.0071-.09777.0095-.164005 0-.08042-.0095-.210968-.01525-.277193-.05544-.06387-.0402-.205198-.11193-.221754-.166316-.02601-.08749.159274-.201584.164006-.274883.0047-.05676-.04131-.0812-.05313-.166315-.0095-.05202.01187-.133211 0-.166316-.01655-.06148-.127093-.108495-.224063-.110877-.08516 0-.148436.05543-.221755.05543-.104065.0023-.313422-.06726-.443508-.05543-.07805.0071-.150744.05072-.224064.05543-.205772.01656-.338116-.01187-.498946 0-.115904.0071-.334711.06121-.443508.110877-.05439.02601-.09537.07541-.166317.110878-.0331.01655-.0683.03421-.110877.05312-.06623.03075-.157894.09663-.221754.113184-.09224.02365-.220141-.0071-.388069 0-.120622.0071-.330266-.02207-.332632-.166316-.0023-.219906.401688-.128487.609824-.166316.07805-.01655.127145-.109619.221754-.164006.04495-.02601.0683-.02705.110877-.05543.07097-.04966.209929-.165005.221754-.221754.0095-.05201-.06022-.128488-.05312-.166315.0095-.04966.100151-.100175.164004-.164006.09934-.09932.154205-.21335.277193-.277193.08279-.04494.239349-.04467.277193-.110878.0095-.07566-.0023-.09774 0-.166315.05205-.04728.0683-.10142.110877-.110877.127717-.02837.239063.06022.38807.05313.06387-.0023.153165-.0081.221755-.05313.05678-.03783.109564-.0825.166315-.110877.06149-.03311.09063-.106148.166315-.110876zm-14.799779.113184h.0023c.05439-.0023.107184 0 .166315 0 .05913 0 .140353-.02365.164005 0-.03785.156062-.375956.109884-.498945.05313.0071-.05911.09063-.04603.166314-.05313zm15.746854.113183c.06756.07879.137771.155036.20327.235614-.011-.0062-.02736-.0089-.03693-.01617-.06579-.05168-.100954-.139467-.166312-.219444zm-16.301239.164007c.0402 0 .0706-.01656.113184 0-.108804.09222-.256604.162641-.445818.221754-.08987.02837-.205199.04387-.221754-.05544-.01893-.122956.08591-.09905.166315-.110877.104065-.01187.265136-.05077.38576-.05313l.0023-.0023zm15.409603.0023c-.07805.02601-.115903.200472 0 .221754.05439-.03311.06963-.12244.05544-.221754-.03075-.03311-.0318-.0095-.05544 0zm-.05313.332631c-.03785.01187-.07068.01069-.110877.05312.0023.132414.02602.219076 0 .334941.07569.146602.23704.04387.274882-.05543.04495-.245914-.05048-.363369-.164005-.332631zm1.051022.665263c-.104064-.0047-.213387.0034-.274884.05313.08752.141872.2472.186287.443511.221754.0709-.05202.07779-.185029.110879-.274882-.08512 0-.173127.0047-.277197 0h-.0023zm-20.782522 4.87162c.133332.121151.226192.32297.385759.401929.05913.03074.146068.03889.221755.05543.06149.01187.107184.03421.166315.05313.125357.04257.288733.06827.38807.113184.151373.06621.257984.310092.38807.38576.0071.07566-.02365.167313 0 .224063.06149.08275.177854.10962.277193.164006.120621.06621.161354.225173.274882.277193.0402.01655.104825-.01891.166316 0 .156102.04728.200126.261952.334941.221753.08752-.02601.09668-.136628.110878-.221753.05913-.06385.129512-.166316.221753-.166316.146642-.0023.167354.190703.221755.334941.03075.0804.08958.136629.110877.221754.03548.146603.03075.577773 0 .665262-.03785.108771-.187316.156656-.277193.274883-.04258.05676-.07776.128488-.110877.166316-.05678.07094-.121426.102478-.164007.166315-.02365.03547-.03415.114343-.05544.164006-.07096.151331-.170008.263747-.110877.445819.02365.07329.110877.134265.110877.221753 0 .104043-.205197.163695-.221753.277193-.01187.08276.08485.221495.110876.332631.01892.08275.172086.167369.221754.221755.08279.09223.148378.216713.224064.334941.149006.229363.239119.496067.38576.7207.07805.115857.22516.209673.277193.332632.02601.06148-.02365.165005 0 .221753.08514.19153.473681.404366.665263.498947.08987.04492.19441.06589.277192.113183.125357.07094.379648.221496.443508.332632.05678.09931.08249.340521.110877.498947.03548.208081-.0095.385189 0 .609823.0071.122957.05543.209674.05543.332631 0 .04257.0023.123753 0 .166317-.0023.146602.01187.29454 0 .443507-.0071.0804-.0047.155491 0 .224064.0071.07329.04841.100163.05313.164006.0047.06858-.06022.169677-.05313.224064.01656.148968.137933.248615.166315.385759.02365.108772.06732.368897.05312.498948-.0095.06858-.04368.148398-.05312.224064-.0071.05911.0095.10962 0 .164005-.0076.05282-.02056.09736-.03466.143217-3.290227-2.095771-5.472242-5.765664-5.472242-9.971991 0-.566403.0531-1.118425.129357-1.663155zm4.601398 1.295876c.113526-.05201.09224.152127 0 .166315-.08752.01187-.08516-.126113 0-.166315z" fill="#075347" transform="matrix(.84553102 0 0 .84553102 -97.671848 .867955)"/></g></svg>