<?xml version="1.0" encoding="UTF-8" standalone="no"?>
<svg
   xmlns:osb="http://www.openswatchbook.org/uri/2009/osb"
   xmlns:dc="http://purl.org/dc/elements/1.1/"
   xmlns:cc="http://creativecommons.org/ns#"
   xmlns:rdf="http://www.w3.org/1999/02/22-rdf-syntax-ns#"
   xmlns:svg="http://www.w3.org/2000/svg"
   xmlns="http://www.w3.org/2000/svg"
   xmlns:xlink="http://www.w3.org/1999/xlink"
   xmlns:sodipodi="http://sodipodi.sourceforge.net/DTD/sodipodi-0.dtd"
   xmlns:inkscape="http://www.inkscape.org/namespaces/inkscape"
   width="64"
   viewBox="0 0 64 64"
   height="64"
   id="svg2"
   version="1.1"
   inkscape:version="0.91 r13725"
   sodipodi:docname="application-x-revelation.svg"
   inkscape:export-filename="E:\Usuarios\David\Desktop\android.png"
   inkscape:export-xdpi="90"
   inkscape:export-ydpi="90">
  <metadata
     id="metadata14">
    <rdf:RDF>
      <cc:Work
         rdf:about="">
        <dc:format>image/svg+xml</dc:format>
        <dc:type
           rdf:resource="http://purl.org/dc/dcmitype/StillImage" />
        <dc:title></dc:title>
      </cc:Work>
    </rdf:RDF>
  </metadata>
  <defs
     id="defs12">
    <linearGradient
       inkscape:collect="always"
       id="linearGradient3334">
      <stop
         style="stop-color:#0055d4;stop-opacity:1"
         offset="0"
         id="stop3336" />
      <stop
         style="stop-color:#1b92f4;stop-opacity:1"
         offset="1"
         id="stop3338" />
    </linearGradient>
    <linearGradient
       osb:paint="gradient"
       id="linearGradient4207">
      <stop
         id="stop3371"
         offset="0"
         style="stop-color:#3498db;stop-opacity:1;" />
      <stop
         id="stop3373"
         offset="1"
         style="stop-color:#3498db;stop-opacity:0;" />
    </linearGradient>
    <linearGradient
       inkscape:collect="always"
       xlink:href="#linearGradient3334"
       id="linearGradient4182"
       x1="-74.929466"
       y1="52.199436"
       x2="-75.259552"
       y2="2.3564887"
       gradientUnits="userSpaceOnUse"
       gradientTransform="matrix(1.0749904,0,0,1.1789657,56.688954,-0.25683073)" />
    <linearGradient
       id="linearGradient8311-06">
      <stop
         offset="0"
         style="stop-color:#a9a3d4;stop-opacity:1"
         id="stop8313-6" />
      <stop
         id="stop4462"
         style="stop-color:#87baff;stop-opacity:1"
         offset="0.47001833" />
      <stop
         offset="1"
         style="stop-color:#89ec85;stop-opacity:1"
         id="stop8315-2" />
    </linearGradient>
    <style
       type="text/css"
       id="current-color-scheme">.ColorScheme-Text {
        color:#31363b;
      }
      .ColorScheme-Background{
        color:#eff0f1;
      }
      .ColorScheme-ViewText {
        color:#31363b;
      }
      .ColorScheme-ViewBackground{
        color:#fcfcfc;
      }
      .ColorScheme-ViewHover {
        color:#3daee9;
      }
      .ColorScheme-ViewFocus{
        color:#3daee9;
      }
      .ColorScheme-ButtonText {
        color:#31363b;
      }
      .ColorScheme-ButtonBackground{
        color:#eff0f1;
      }
      .ColorScheme-ButtonHover {
        color:#3daee9;
      }
      .ColorScheme-ButtonFocus{
        color:#3daee9;
      }</style>
    <style
       type="text/css"
       id="current-color-scheme-8">.ColorScheme-Text {
        color:#31363b;
      }
      .ColorScheme-Background{
        color:#eff0f1;
      }
      .ColorScheme-ViewText {
        color:#31363b;
      }
      .ColorScheme-ViewBackground{
        color:#fcfcfc;
      }
      .ColorScheme-ViewHover {
        color:#3daee9;
      }
      .ColorScheme-ViewFocus{
        color:#3daee9;
      }
      .ColorScheme-ButtonText {
        color:#31363b;
      }
      .ColorScheme-ButtonBackground{
        color:#eff0f1;
      }
      .ColorScheme-ButtonHover {
        color:#3daee9;
      }
      .ColorScheme-ButtonFocus{
        color:#3daee9;
      }</style>
    <style
       type="text/css"
       id="current-color-scheme-7">.ColorScheme-Text {
        color:#31363b;
      }
      .ColorScheme-Background{
        color:#eff0f1;
      }
      .ColorScheme-ViewText {
        color:#31363b;
      }
      .ColorScheme-ViewBackground{
        color:#fcfcfc;
      }
      .ColorScheme-ViewHover {
        color:#3daee9;
      }
      .ColorScheme-ViewFocus{
        color:#3daee9;
      }
      .ColorScheme-ButtonText {
        color:#31363b;
      }
      .ColorScheme-ButtonBackground{
        color:#eff0f1;
      }
      .ColorScheme-ButtonHover {
        color:#3daee9;
      }
      .ColorScheme-ButtonFocus{
        color:#3daee9;
      }</style>
    <style
       type="text/css"
       id="current-color-scheme-0">.ColorScheme-Text {
        color:#31363b;
      }
      .ColorScheme-Background{
        color:#eff0f1;
      }
      .ColorScheme-ViewText {
        color:#31363b;
      }
      .ColorScheme-ViewBackground{
        color:#fcfcfc;
      }
      .ColorScheme-ViewHover {
        color:#3daee9;
      }
      .ColorScheme-ViewFocus{
        color:#3daee9;
      }
      .ColorScheme-ButtonText {
        color:#31363b;
      }
      .ColorScheme-ButtonBackground{
        color:#eff0f1;
      }
      .ColorScheme-ButtonHover {
        color:#3daee9;
      }
      .ColorScheme-ButtonFocus{
        color:#3daee9;
      }</style>
    <style
       type="text/css"
       id="current-color-scheme-8-6">.ColorScheme-Text {
        color:#31363b;
      }
      .ColorScheme-Background{
        color:#eff0f1;
      }
      .ColorScheme-ViewText {
        color:#31363b;
      }
      .ColorScheme-ViewBackground{
        color:#fcfcfc;
      }
      .ColorScheme-ViewHover {
        color:#3daee9;
      }
      .ColorScheme-ViewFocus{
        color:#3daee9;
      }
      .ColorScheme-ButtonText {
        color:#31363b;
      }
      .ColorScheme-ButtonBackground{
        color:#eff0f1;
      }
      .ColorScheme-ButtonHover {
        color:#3daee9;
      }
      .ColorScheme-ButtonFocus{
        color:#3daee9;
      }</style>
    <style
       type="text/css"
       id="current-color-scheme-7-6">.ColorScheme-Text {
        color:#31363b;
      }
      .ColorScheme-Background{
        color:#eff0f1;
      }
      .ColorScheme-ViewText {
        color:#31363b;
      }
      .ColorScheme-ViewBackground{
        color:#fcfcfc;
      }
      .ColorScheme-ViewHover {
        color:#3daee9;
      }
      .ColorScheme-ViewFocus{
        color:#3daee9;
      }
      .ColorScheme-ButtonText {
        color:#31363b;
      }
      .ColorScheme-ButtonBackground{
        color:#eff0f1;
      }
      .ColorScheme-ButtonHover {
        color:#3daee9;
      }
      .ColorScheme-ButtonFocus{
        color:#3daee9;
      }</style>
    <style
       type="text/css"
       id="current-color-scheme-4">.ColorScheme-Text {
        color:#31363b;
      }
      .ColorScheme-Background{
        color:#eff0f1;
      }
      .ColorScheme-ViewText {
        color:#31363b;
      }
      .ColorScheme-ViewBackground{
        color:#fcfcfc;
      }
      .ColorScheme-ViewHover {
        color:#3daee9;
      }
      .ColorScheme-ViewFocus{
        color:#3daee9;
      }
      .ColorScheme-ButtonText {
        color:#31363b;
      }
      .ColorScheme-ButtonBackground{
        color:#eff0f1;
      }
      .ColorScheme-ButtonHover {
        color:#3daee9;
      }
      .ColorScheme-ButtonFocus{
        color:#3daee9;
      }</style>
    <style
       type="text/css"
       id="current-color-scheme-8-0">.ColorScheme-Text {
        color:#31363b;
      }
      .ColorScheme-Background{
        color:#eff0f1;
      }
      .ColorScheme-ViewText {
        color:#31363b;
      }
      .ColorScheme-ViewBackground{
        color:#fcfcfc;
      }
      .ColorScheme-ViewHover {
        color:#3daee9;
      }
      .ColorScheme-ViewFocus{
        color:#3daee9;
      }
      .ColorScheme-ButtonText {
        color:#31363b;
      }
      .ColorScheme-ButtonBackground{
        color:#eff0f1;
      }
      .ColorScheme-ButtonHover {
        color:#3daee9;
      }
      .ColorScheme-ButtonFocus{
        color:#3daee9;
      }</style>
    <style
       type="text/css"
       id="current-color-scheme-7-7">.ColorScheme-Text {
        color:#31363b;
      }
      .ColorScheme-Background{
        color:#eff0f1;
      }
      .ColorScheme-ViewText {
        color:#31363b;
      }
      .ColorScheme-ViewBackground{
        color:#fcfcfc;
      }
      .ColorScheme-ViewHover {
        color:#3daee9;
      }
      .ColorScheme-ViewFocus{
        color:#3daee9;
      }
      .ColorScheme-ButtonText {
        color:#31363b;
      }
      .ColorScheme-ButtonBackground{
        color:#eff0f1;
      }
      .ColorScheme-ButtonHover {
        color:#3daee9;
      }
      .ColorScheme-ButtonFocus{
        color:#3daee9;
      }</style>
    <linearGradient
       id="linearGradient4422-1">
      <stop
         style="stop-color:#8798a9;stop-opacity:1"
         offset="0"
         id="stop4424-78" />
      <stop
         style="stop-color:#aeb6be;stop-opacity:1"
         offset="1"
         id="stop4426-8" />
    </linearGradient>
    <linearGradient
       id="linearGradient5002"
       inkscape:collect="always">
      <stop
         id="stop5004"
         offset="0"
         style="stop-color:#2e5d89;stop-opacity:1" />
      <stop
         id="stop5006"
         offset="1"
         style="stop-color:#1b92f4;stop-opacity:1" />
    </linearGradient>
    <linearGradient
       y2="527.79797"
       x2="415.57144"
       y1="512.79797"
       x1="400.57144"
       gradientUnits="userSpaceOnUse"
       id="linearGradient4525"
       xlink:href="#linearGradient5002"
       inkscape:collect="always"
       gradientTransform="matrix(1.1818182,0,0,1.1818182,-74.285714,-95.732083)" />
    <linearGradient
       y2="527.79797"
       x2="415.57144"
       y1="512.79797"
       x1="400.57144"
       gradientUnits="userSpaceOnUse"
       id="linearGradient4527"
       xlink:href="#linearGradient5002"
       inkscape:collect="always"
       gradientTransform="translate(78.999997,3.6562389)" />
    <linearGradient
       gradientTransform="matrix(1.1818182,0,0,1.1818182,6.714285,-89.23598)"
       inkscape:collect="always"
       xlink:href="#linearGradient5002"
       id="linearGradient4529"
       gradientUnits="userSpaceOnUse"
       x1="400.57144"
       y1="512.79797"
       x2="415.57144"
       y2="527.79797" />
    <linearGradient
       gradientTransform="matrix(1.1818182,0,0,1.1818182,3.714275,-96.23596)"
       inkscape:collect="always"
       xlink:href="#linearGradient5002"
       id="linearGradient4531"
       gradientUnits="userSpaceOnUse"
       x1="400.57144"
       y1="512.79797"
       x2="415.57144"
       y2="527.79797" />
  </defs>
  <sodipodi:namedview
     pagecolor="#747474"
     bordercolor="#dcdcdc"
     borderopacity="1"
     objecttolerance="10"
     gridtolerance="10"
     guidetolerance="10"
     inkscape:pageopacity="1"
     inkscape:pageshadow="2"
     inkscape:window-width="1366"
     inkscape:window-height="642"
     id="namedview10"
     showgrid="false"
     inkscape:zoom="7.4552197"
     inkscape:cx="2.1495416"
     inkscape:cy="31.344973"
     inkscape:window-x="0"
     inkscape:window-y="33"
     inkscape:window-maximized="1"
     inkscape:current-layer="g4186"
     inkscape:snap-bbox="true"
     inkscape:bbox-nodes="true"
     inkscape:object-nodes="true"
     borderlayer="false"
     showguides="true"
     inkscape:snap-nodes="true"
     inkscape:object-paths="false"
     inkscape:showpageshadow="false"
     showborder="true">
    <inkscape:grid
       type="xygrid"
       id="grid4160"
       visible="true" />
    <sodipodi:guide
       position="28.888657,63.404975"
       orientation="0,35.2"
       id="guide6108" />
    <sodipodi:guide
       position="54,55.679691"
       orientation="51.200004,0"
       id="guide6112" />
    <sodipodi:guide
       position="58.527669,62"
       orientation="0,1"
       id="guide6114"
       inkscape:label=""
       inkscape:color="rgb(0,0,255)" />
    <sodipodi:guide
       position="10,4"
       orientation="-56,0"
       id="guide6116" />
    <sodipodi:guide
       position="11,4"
       orientation="-2.8421709e-014,0"
       id="guide6118" />
    <sodipodi:guide
       position="12,62"
       orientation="0,35.2"
       id="guide6120" />
    <sodipodi:guide
       position="49.093121,3"
       orientation="0,-40"
       id="guide6126" />
    <sodipodi:guide
       position="12,62"
       orientation="0,35.2"
       id="guide6138" />
    <sodipodi:guide
       position="55,3"
       orientation="0,-40"
       id="guide6156" />
    <sodipodi:guide
       position="53,4.3973202"
       orientation="-56,0"
       id="guide6158" />
    <sodipodi:guide
       position="21,48"
       orientation="0,22"
       id="guide4238" />
    <sodipodi:guide
       position="43,48"
       orientation="22,0"
       id="guide4240" />
    <sodipodi:guide
       position="43,26"
       orientation="0,-22"
       id="guide4242" />
    <sodipodi:guide
       position="21,26"
       orientation="-22,0"
       id="guide4244" />
  </sodipodi:namedview>
  <g
     id="g4186"
     transform="translate(56.391766,-0.17677665)">
    <rect
       ry="2.8635421"
       y="1.6457753"
       x="-46.391766"
       height="60.514336"
       width="44"
       id="rect4174"
       style="opacity:1;fill:url(#linearGradient4182);fill-opacity:1.0;stroke:none;stroke-width:0.30000001;stroke-linecap:round;stroke-linejoin:round;stroke-miterlimit:4;stroke-dasharray:none;stroke-dashoffset:0;stroke-opacity:1" />
    <path
       inkscape:connector-curvature="0"
       style="opacity:1;fill:#000000;fill-opacity:0.66666669;stroke:none;stroke-width:0.185;stroke-linecap:round;stroke-linejoin:round;stroke-miterlimit:4;stroke-dasharray:none;stroke-dashoffset:0;stroke-opacity:1"
       d="m -46.391766,51.264668 0,5.71289 0,2.199219 0,0.5 c 0,1.385 1.115,2.5 2.5,2.5 l 39,0 c 1.385,0 2.5,-1.115 2.5,-2.5 l 0,-0.5 0,-2.199219 0,-5.71289 -44,0 z"
       id="rect4162" />
    <path
       style="fill:#000000;fill-opacity:0.66666669"
       inkscape:connector-curvature="0"
       id="path5-1"
       d="m -20.013684,16.108533 c -3.829615,0 -6.925918,3.096302 -6.925918,6.925918 0,0.814817 0.162963,1.629633 0.407387,2.444449 l -8.555551,8.555594 0,4.074082 4.074082,0 0,-2.444449 2.444449,0 0,-2.444449 2.44445,0 3.666652,-3.666653 c 0.733356,0.244424 1.548173,0.407387 2.444449,0.407387 3.829659,0 6.925919,-3.096302 6.925919,-6.925918 0,-3.829616 -3.09626,-6.925961 -6.925919,-6.925961 z m 2.037063,7.333348 c -1.385209,0 -2.444449,-1.05924 -2.444449,-2.444449 0,-1.38521 1.05924,-2.44445 2.444449,-2.44445 1.385209,0 2.444449,1.05924 2.444449,2.44445 0,1.385209 -1.05924,2.444449 -2.444449,2.444449 z" />
    <g
       style="font-style:normal;font-weight:normal;font-size:40px;line-height:125%;font-family:sans-serif;text-align:end;letter-spacing:0px;word-spacing:0px;text-anchor:end;fill:#000000;fill-opacity:1;stroke:none;stroke-width:1px;stroke-linecap:butt;stroke-linejoin:miter;stroke-opacity:1"
       id="text4169">
      <path
         d="m -38.043008,56.010387 q -0.153808,-0.02563 -0.333252,-0.02563 -0.666504,0 -0.904541,0.567627 l 0,2.8125 -0.67749,0 0,-3.962403 0.65918,0 0.01099,0.457764 q 0.333252,-0.531006 0.944824,-0.531006 0.197754,0 0.300293,0.05127 l 0,0.629882 z"
         style="font-style:normal;font-variant:normal;font-weight:normal;font-stretch:normal;font-size:7.5px;font-family:Roboto;-inkscape-font-specification:Roboto;fill:#ffffff"
         id="path3314" />
      <path
         d="m -35.853066,59.438122 q -0.805665,0 -1.311036,-0.527344 -0.505371,-0.531006 -0.505371,-1.417236 l 0,-0.124512 q 0,-0.5896 0.223389,-1.051025 0.227051,-0.465088 0.629883,-0.725098 0.406494,-0.263672 0.878906,-0.263672 0.772705,0 1.201172,0.509033 0.428467,0.509033 0.428467,1.45752 l 0,0.281982 -2.684326,0 q 0.01465,0.585938 0.340576,0.948487 0.32959,0.358886 0.834961,0.358886 0.358886,0 0.60791,-0.146484 0.249023,-0.146484 0.435791,-0.388184 l 0.413818,0.322266 q -0.498047,0.765381 -1.49414,0.765381 z m -0.08423,-3.552246 q -0.410156,0 -0.688477,0.300293 -0.27832,0.296631 -0.344238,0.834961 l 1.984863,0 0,-0.05127 q -0.0293,-0.516357 -0.27832,-0.79834 -0.249023,-0.285644 -0.673828,-0.285644 z"
         style="font-style:normal;font-variant:normal;font-weight:normal;font-stretch:normal;font-size:7.5px;font-family:Roboto;-inkscape-font-specification:Roboto;fill:#ffffff"
         id="path3316" />
      <path
         d="m -32.264199,58.44569 0.981445,-3.043213 0.692139,0 -1.420899,3.962403 -0.516357,0 -1.435547,-3.962403 0.692139,0 1.00708,3.043213 z"
         style="font-style:normal;font-variant:normal;font-weight:normal;font-stretch:normal;font-size:7.5px;font-family:Roboto;-inkscape-font-specification:Roboto;fill:#ffffff"
         id="path3318" />
      <path
         d="m -28.338418,59.438122 q -0.805664,0 -1.311035,-0.527344 -0.505371,-0.531006 -0.505371,-1.417236 l 0,-0.124512 q 0,-0.5896 0.223388,-1.051025 0.227051,-0.465088 0.629883,-0.725098 0.406494,-0.263672 0.878906,-0.263672 0.772706,0 1.201172,0.509033 0.428467,0.509033 0.428467,1.45752 l 0,0.281982 -2.684326,0 q 0.01465,0.585938 0.340576,0.948487 0.32959,0.358886 0.834961,0.358886 0.358887,0 0.60791,-0.146484 0.249024,-0.146484 0.435791,-0.388184 l 0.413819,0.322266 q -0.498047,0.765381 -1.494141,0.765381 z m -0.08423,-3.552246 q -0.410156,0 -0.688476,0.300293 -0.27832,0.296631 -0.344238,0.834961 l 1.984863,0 0,-0.05127 q -0.0293,-0.516357 -0.27832,-0.79834 -0.249024,-0.285644 -0.673829,-0.285644 z"
         style="font-style:normal;font-variant:normal;font-weight:normal;font-stretch:normal;font-size:7.5px;font-family:Roboto;-inkscape-font-specification:Roboto;fill:#ffffff"
         id="path3320" />
      <path
         d="m -25.276895,59.36488 -0.67749,0 0,-5.625 0.67749,0 0,5.625 z"
         style="font-style:normal;font-variant:normal;font-weight:normal;font-stretch:normal;font-size:7.5px;font-family:Roboto;-inkscape-font-specification:Roboto;fill:#ffffff"
         id="path3322" />
      <path
         d="m -21.750283,59.36488 q -0.05859,-0.117188 -0.09521,-0.417481 -0.472412,0.490723 -1.12793,0.490723 -0.585937,0 -0.963135,-0.32959 -0.373535,-0.333252 -0.373535,-0.842285 0,-0.618897 0.46875,-0.959473 0.472412,-0.344238 1.325684,-0.344238 l 0.65918,0 0,-0.311279 q 0,-0.355225 -0.212403,-0.563965 -0.212402,-0.212403 -0.62622,-0.212403 -0.362549,0 -0.607911,0.183106 -0.245361,0.183105 -0.245361,0.443115 l -0.681152,0 q 0,-0.296631 0.20874,-0.571289 0.212402,-0.27832 0.571289,-0.439453 0.362549,-0.161133 0.794678,-0.161133 0.684814,0 1.072998,0.344238 0.388183,0.340577 0.402832,0.941162 l 0,1.823731 q 0,0.545654 0.13916,0.86792 l 0,0.05859 -0.710449,0 z m -1.124268,-0.516358 q 0.318604,0 0.604248,-0.164795 0.285645,-0.164795 0.413819,-0.428467 l 0,-0.812988 -0.531006,0 q -1.245117,0 -1.245117,0.72876 0,0.318603 0.212402,0.498047 0.212402,0.179443 0.545654,0.179443 z"
         style="font-style:normal;font-variant:normal;font-weight:normal;font-stretch:normal;font-size:7.5px;font-family:Roboto;-inkscape-font-specification:Roboto;fill:#ffffff"
         id="path3324" />
      <path
         d="m -19.190469,54.443005 0,0.959472 0.739746,0 0,0.523682 -0.739746,0 0,2.457275 q 0,0.238037 0.09888,0.358887 0.09888,0.117188 0.336914,0.117188 0.117188,0 0.322266,-0.04395 l 0,0.549317 q -0.267334,0.07324 -0.52002,0.07324 -0.454101,0 -0.684814,-0.274658 -0.230713,-0.274659 -0.230713,-0.78003 l 0,-2.457275 -0.721436,0 0,-0.523682 0.721436,0 0,-0.959472 0.67749,0 z"
         style="font-style:normal;font-variant:normal;font-weight:normal;font-stretch:normal;font-size:7.5px;font-family:Roboto;-inkscape-font-specification:Roboto;fill:#ffffff"
         id="path3326" />
      <path
         d="m -16.927285,59.36488 -0.67749,0 0,-3.962403 0.67749,0 0,3.962403 z m -0.732422,-5.013428 q 0,-0.164795 0.09888,-0.27832 0.102539,-0.113526 0.300293,-0.113526 0.197754,0 0.300293,0.113526 0.102539,0.113525 0.102539,0.27832 0,0.164795 -0.102539,0.274658 -0.102539,0.109863 -0.300293,0.109863 -0.197754,0 -0.300293,-0.109863 -0.09888,-0.109863 -0.09888,-0.274658 z"
         style="font-style:normal;font-variant:normal;font-weight:normal;font-stretch:normal;font-size:7.5px;font-family:Roboto;-inkscape-font-specification:Roboto;fill:#ffffff"
         id="path3328" />
      <path
         d="m -16.026406,57.347057 q 0,-0.582275 0.22705,-1.047363 0.230713,-0.465088 0.637208,-0.717773 0.410156,-0.252686 0.933837,-0.252686 0.809327,0 1.307373,0.560303 0.501709,0.560303 0.501709,1.490478 l 0,0.04761 q 0,0.578613 -0.223388,1.040039 -0.219727,0.457763 -0.633545,0.714111 -0.410156,0.256348 -0.944824,0.256348 -0.805664,0 -1.307373,-0.560303 -0.498047,-0.560303 -0.498047,-1.483154 l 0,-0.04761 z m 0.681152,0.08057 q 0,0.659179 0.303955,1.058349 0.307617,0.39917 0.820313,0.39917 0.516357,0 0.820312,-0.402832 0.303955,-0.406494 0.303955,-1.135254 0,-0.651855 -0.311279,-1.054687 -0.307617,-0.406494 -0.820313,-0.406494 -0.501709,0 -0.809326,0.39917 -0.307617,0.39917 -0.307617,1.142578 z"
         style="font-style:normal;font-variant:normal;font-weight:normal;font-stretch:normal;font-size:7.5px;font-family:Roboto;-inkscape-font-specification:Roboto;fill:#ffffff"
         id="path3330" />
      <path
         d="m -10.92875,55.402477 0.02197,0.498047 q 0.454101,-0.571289 1.1865231,-0.571289 1.2561035,0 1.2670898,1.417236 l 0,2.618409 -0.6774902,0 0,-2.622071 q -0.00366,-0.428467 -0.1977539,-0.633545 -0.1904297,-0.205078 -0.5969239,-0.205078 -0.3295899,0 -0.5786129,0.175781 -0.249024,0.175782 -0.388184,0.461426 l 0,2.823487 -0.67749,0 0,-3.962403 0.640869,0 z"
         style="font-style:normal;font-variant:normal;font-weight:normal;font-stretch:normal;font-size:7.5px;font-family:Roboto;-inkscape-font-specification:Roboto;fill:#ffffff"
         id="path3332" />
    </g>
  </g>
</svg>
