<svg height="64" viewBox="0 0 64 64" width="64" xmlns="http://www.w3.org/2000/svg" xmlns:xlink="http://www.w3.org/1999/xlink"><linearGradient id="a" gradientTransform="matrix(1.0749904 0 0 1.1677349 113.08072 -.415484)" gradientUnits="userSpaceOnUse" x1="-74.929466" x2="-75.259552" y1="52.199436" y2="2.356489"><stop offset="0" stop-color="#269de0"/><stop offset="1" stop-color="#1ab4fd"/></linearGradient><rect fill="url(#a)" height="59.937874" ry="2.836264" stroke-width="1.065132" width="44" x="10" y="1.468998"/><g fill="#fff" opacity=".8" transform="matrix(.97803305 0 0 1.1293968 -438.38298 -578.36345)"><g fill="#fff"><circle cx="497.14267" cy="518.38727" opacity="1" r="2.037385"/><circle cx="492.13748" cy="518.43048" opacity="1" r="2.037385"/><circle cx="487.21747" cy="518.4787" opacity="1" r="2.037385"/></g><path d="m480.69335 513.40009v53.36271h22.74872v-51.0834s-.18548-2.27931-2.527-2.27931z" fill="#fff" fill-rule="evenodd"/></g><g fill="#fff"><circle cx="26.00161" cy="6.547614" r="2.037385"/><circle cx="20.996416" cy="6.590834" r="2.037385"/><circle cx="16.076386" cy="6.639079" r="2.037385"/></g><path d="m48.140486 24.32205c2.06939-1.43019.36874-4.00838-1.84712-2.41393-.32462.0742-2.18885 2.80973-3.30547 4.03281 1.81581-.72538 4.91732-1.37369 5.15259-1.61888z" fill="#ffd600"/><path d="m48.089846 29.20934c2.47343.45817 3.10149-2.56589.40829-3.01199-.28158-.17777-3.53562.43021-5.19022.50136 1.79498.77552 4.44217 2.5168 4.78193 2.51063z" fill="#78be16"/><path d="m44.286846 32.60111c1.33469 2.13223 3.98747.55052 2.49536-1.7355-.0594-.32766-2.70734-2.31429-3.8784-3.48534.6421 1.8469 1.14878 4.97467 1.38304 5.22084z" fill="#19b271"/><path d="m44.671996 20.93183c.44349-2.4761-2.58422-3.08622-3.01436-.39044-.17609.28264.45114 3.53302.5321 5.18716.76488-1.79954 2.49045-4.45699 2.48226-4.79672z" fill="#ffa31e"/><path d="m39.678776 20.83475c-1.51395-2.00891-4.02013-.2038-2.33602 1.94471.0875.32129 2.89726 2.07162 4.16515 3.13706-.79934-1.78449-1.57447-4.85676-1.82913-5.08177z" fill="#fb5336"/><path d="m36.295866 23.96889c-2.46488-.50215-3.14671 2.51023-.46189 3.00425.27836.18274 3.54272-.36716 5.19832-.40883-1.78087-.80737-4.39662-2.59554-4.73643-2.59542z" fill="#eb60a4"/><path d="m10 51.087891v5.71289 2.199219.5c0 1.385 1.115 2.5 2.5 2.5h39c1.385 0 2.5-1.115 2.5-2.5v-.5-2.199219-5.71289z" fill="#3d434a"/><g fill="#fff"><path d="m22.402344 54.254883v1.023437h.789062v.558594h-.789062v2.621094q0 .253906.105468.382812.105469.125.359375.125.125 0 .34375-.04687v.585938q-.285156.07813-.554687.07813-.484375 0-.730469-.292969-.246094-.292969-.246094-.832031v-2.621104h-.769531v-.558594h.769531v-1.023437z"/><path d="m24.753906 55.790039q.480469-.589844 1.25-.589844 1.339844 0 1.351563 1.511719v2.792969h-.722657v-2.796875q-.0039-.457031-.210937-.675781-.203125-.21875-.636719-.21875-.351562 0-.617187.1875-.265625.1875-.414063.492187v3.011719h-.722656v-6h .722656z"/><path d="m30.191406 59.583008q-.859375 0-1.398437-.5625-.539063-.566406-.539063-1.511719v-.132812q0-.628907.238281-1.121094.242188-.496094.671875-.773438.433594-.28125.9375-.28125.824219 0 1.28125.542969.457032.542969.457032 1.554688v.300781h-2.863282q.01563.625.363282 1.011719.351562.382812.890625.382812.382812 0 .648437-.15625.265625-.15625.464844-.414062l.441406.34375q-.53125.816406-1.59375.816406zm-.08984-3.789063q-.4375 0-.734375.320313-.296879.316406-.367191.890625h2.117187v-.05469q-.03125-.550781-.296875-.851562-.265625-.304688-.71875-.304688z"/><path d="m33.351562 55.27832.01953.46875q.464843-.546875 1.253906-.546875.886719 0 1.207031.679688.210938-.304688.546875-.492188.339844-.1875.800781-.1875 1.390625 0 1.414063 1.472657v2.832031h-.722654v-2.789063q0-.453125-.207032-.675781-.207031-.226562-.695312-.226562-.402344 0-.667969.242187-.265625.238281-.308594.644531v2.804688h-.726562v-2.769531q0-.921875-.902344-.921875-.710937 0-.972656.605468v3.085938h-.722656v-4.226563z"/><path d="m41.441406 59.583008q-.859375 0-1.398437-.5625-.539063-.566406-.539063-1.511719v-.132812q0-.628907.238281-1.121094.242188-.496094.671875-.773438.433594-.28125.9375-.28125.824219 0 1.28125.542969.457032.542969.457032 1.554688v.300781h-2.863282q.01563.625.363282 1.011719.351562.382812.890625.382812.382812 0 .648437-.15625.265625-.15625.464844-.414062l.441406.34375q-.53125.816406-1.59375.816406zm-.08984-3.789063q-.4375 0-.734375.320313-.296875.316406-.367187.890625h2.117187v-.05469q-.03125-.550781-.296875-.851562-.265625-.304688-.71875-.304688z"/></g></svg>