<?xml version="1.0" encoding="UTF-8" standalone="no"?>
<svg
   xmlns:osb="http://www.openswatchbook.org/uri/2009/osb"
   xmlns:dc="http://purl.org/dc/elements/1.1/"
   xmlns:cc="http://creativecommons.org/ns#"
   xmlns:rdf="http://www.w3.org/1999/02/22-rdf-syntax-ns#"
   xmlns:svg="http://www.w3.org/2000/svg"
   xmlns="http://www.w3.org/2000/svg"
   xmlns:xlink="http://www.w3.org/1999/xlink"
   xmlns:sodipodi="http://sodipodi.sourceforge.net/DTD/sodipodi-0.dtd"
   xmlns:inkscape="http://www.inkscape.org/namespaces/inkscape"
   width="64"
   viewBox="0 0 64 64"
   height="64"
   id="svg2"
   version="1.1"
   inkscape:version="0.91 r13725"
   sodipodi:docname="application-ascii.svg"
   inkscape:export-filename="E:\Usuarios\David\Desktop\android.png"
   inkscape:export-xdpi="90"
   inkscape:export-ydpi="90">
  <metadata
     id="metadata14">
    <rdf:RDF>
      <cc:Work
         rdf:about="">
        <dc:format>image/svg+xml</dc:format>
        <dc:type
           rdf:resource="http://purl.org/dc/dcmitype/StillImage" />
        <dc:title />
      </cc:Work>
    </rdf:RDF>
  </metadata>
  <defs
     id="defs12">
    <linearGradient
       osb:paint="gradient"
       id="linearGradient4207">
      <stop
         id="stop3371"
         offset="0"
         style="stop-color:#3498db;stop-opacity:1;" />
      <stop
         id="stop3373"
         offset="1"
         style="stop-color:#3498db;stop-opacity:0;" />
    </linearGradient>
    <linearGradient
       inkscape:collect="always"
       xlink:href="#linearGradient4422-4"
       id="linearGradient4182"
       x1="-74.929466"
       y1="52.199436"
       x2="-75.259552"
       y2="2.3564887"
       gradientUnits="userSpaceOnUse"
       gradientTransform="matrix(1.0749904,0,0,1.0292896,56.688954,-0.01528455)" />
    <linearGradient
       id="linearGradient4422-4">
      <stop
         style="stop-color:#d1d7df;stop-opacity:1"
         offset="0"
         id="stop4424-3" />
      <stop
         style="stop-color:#e0e5e7;stop-opacity:1"
         offset="1"
         id="stop4426-4" />
    </linearGradient>
  </defs>
  <sodipodi:namedview
     pagecolor="#747474"
     bordercolor="#666666"
     borderopacity="1"
     objecttolerance="10"
     gridtolerance="10"
     guidetolerance="10"
     inkscape:pageopacity="1"
     inkscape:pageshadow="2"
     inkscape:window-width="1366"
     inkscape:window-height="642"
     id="namedview10"
     showgrid="false"
     inkscape:zoom="7.4552197"
     inkscape:cx="7.8941779"
     inkscape:cy="23.425873"
     inkscape:window-x="0"
     inkscape:window-y="33"
     inkscape:window-maximized="1"
     inkscape:current-layer="g4186"
     inkscape:snap-bbox="true"
     inkscape:bbox-nodes="true"
     inkscape:object-nodes="true"
     borderlayer="false"
     showguides="true"
     inkscape:snap-nodes="true"
     inkscape:object-paths="false"
     inkscape:showpageshadow="false"
     showborder="true">
    <inkscape:grid
       type="xygrid"
       id="grid4160"
       visible="true" />
    <sodipodi:guide
       position="28.888657,63.404975"
       orientation="0,35.2"
       id="guide6108" />
    <sodipodi:guide
       position="54,55.679691"
       orientation="51.200004,0"
       id="guide6112" />
    <sodipodi:guide
       position="58.527669,62"
       orientation="0,1"
       id="guide6114"
       inkscape:label=""
       inkscape:color="rgb(0,0,255)" />
    <sodipodi:guide
       position="10,4"
       orientation="-56,0"
       id="guide6116" />
    <sodipodi:guide
       position="11,4"
       orientation="-2.8421709e-014,0"
       id="guide6118" />
    <sodipodi:guide
       position="12,62"
       orientation="0,35.2"
       id="guide6120" />
    <sodipodi:guide
       position="52,2"
       orientation="0,-40"
       id="guide6126" />
    <sodipodi:guide
       position="12,62"
       orientation="0,35.2"
       id="guide6138" />
    <sodipodi:guide
       position="55,3"
       orientation="0,-40"
       id="guide6156" />
    <sodipodi:guide
       position="53,4.3973202"
       orientation="-56,0"
       id="guide6158" />
    <sodipodi:guide
       position="43,48"
       orientation="22,0"
       id="guide4240" />
    <sodipodi:guide
       position="43,26"
       orientation="0,-22"
       id="guide4242" />
    <sodipodi:guide
       position="21,26"
       orientation="-22,0"
       id="guide4244" />
  </sodipodi:namedview>
  <g
     id="g4186"
     transform="translate(56.391766,-0.17677665)">
    <rect
       ry="2.5"
       y="54.477486"
       x="-46.391766"
       height="7.6992903"
       width="44"
       id="rect4162"
       style="opacity:1;fill:#3d434a;fill-opacity:1;stroke:none;stroke-width:0.185;stroke-linecap:round;stroke-linejoin:round;stroke-miterlimit:4;stroke-dasharray:none;stroke-dashoffset:0;stroke-opacity:1" />
    <rect
       ry="2.5"
       y="1.6457753"
       x="-46.391766"
       height="52.831711"
       width="44"
       id="rect4174"
       style="opacity:1;fill:url(#linearGradient4182);fill-opacity:1.0;stroke:none;stroke-width:0.30000001;stroke-linecap:round;stroke-linejoin:round;stroke-miterlimit:4;stroke-dasharray:none;stroke-dashoffset:0;stroke-opacity:1" />
    <rect
       ry="0"
       y="51.264462"
       x="-46.391766"
       height="7.9118414"
       width="44"
       id="rect4184"
       style="opacity:1;fill:#3d434a;fill-opacity:1;stroke:none;stroke-width:0.185;stroke-linecap:round;stroke-linejoin:round;stroke-miterlimit:4;stroke-dasharray:none;stroke-dashoffset:0;stroke-opacity:1" />
    <g
       inkscape:transform-center-y="-9.4924686"
       inkscape:transform-center-x="5.4653607"
       inkscape:label="Capa 1"
       id="layer1-4"
       transform="translate(-509.70748,-515.64674)">
      <g
         id="layer1-3-65"
         inkscape:label="Capa 1"
         transform="translate(0.41988239,0.03484499)" />
    </g>
    <g
       style="font-style:normal;font-weight:normal;font-size:9.06203079px;line-height:125%;font-family:sans-serif;letter-spacing:0px;word-spacing:0px;fill:#000000;fill-opacity:1;stroke:none;stroke-width:1px;stroke-linecap:butt;stroke-linejoin:miter;stroke-opacity:1"
       id="text4180">
      <path
         d="m -31.033415,60.176777 q -0.706838,0 -1.187126,-0.407792 -0.471225,-0.407791 -0.471225,-1.078381 0,-0.724963 0.561846,-1.132754 0.561845,-0.416854 1.38649,-0.416854 0.734025,0 1.20525,0.271861 l 0,-0.126868 q 0,-0.48935 -0.335295,-0.779335 -0.335295,-0.299047 -0.824645,-0.299047 -0.362481,0 -0.661528,0.172179 -0.289985,0.172178 -0.398729,0.471225 l -0.761211,-0.326233 q 0.154055,-0.398729 0.607156,-0.734024 0.453102,-0.344358 1.196188,-0.344358 0.851831,0 1.413677,0.498412 0.561846,0.498412 0.561846,1.404615 l 0,2.682361 -0.797459,0 0,-0.616218 -0.03625,0 q -0.498411,0.761211 -1.458987,0.761211 z m 0.135931,-0.761211 q 0.516535,0 0.933389,-0.380605 0.425915,-0.389668 0.425915,-0.915265 -0.353419,-0.289985 -1.060257,-0.289985 -0.607156,0 -0.915265,0.262798 -0.308109,0.262799 -0.308109,0.616219 0,0.326233 0.280923,0.516535 0.280922,0.190303 0.643404,0.190303 z"
         style="font-style:normal;font-variant:normal;font-weight:normal;font-stretch:normal;font-family:'Product Sans';-inkscape-font-specification:'Product Sans';fill:#ffffff;fill-opacity:1"
         id="path4164" />
      <path
         d="m -26.204627,60.176777 q -0.743086,0 -1.232436,-0.362482 -0.480288,-0.362481 -0.706838,-0.906203 l 0.743086,-0.308109 q 0.353419,0.833707 1.20525,0.833707 0.389668,0 0.634342,-0.172179 0.253737,-0.172178 0.253737,-0.453101 0,-0.434978 -0.607156,-0.589032 l -0.897141,-0.217489 q -0.425915,-0.108744 -0.806521,-0.407791 -0.380605,-0.308109 -0.380605,-0.824645 0,-0.589032 0.516536,-0.951513 0.525598,-0.371544 1.241498,-0.371544 0.589032,0 1.051196,0.271861 0.462163,0.262799 0.661528,0.761211 l -0.724963,0.299047 q -0.244674,-0.589032 -1.014947,-0.589032 -0.371543,0 -0.62528,0.154055 -0.253737,0.154054 -0.253737,0.416853 0,0.380605 0.589032,0.516536 l 0.879017,0.208426 q 0.62528,0.144993 0.924327,0.498412 0.299047,0.353419 0.299047,0.797459 0,0.598094 -0.48935,0.996823 -0.489349,0.39873 -1.259622,0.39873 z"
         style="font-style:normal;font-variant:normal;font-weight:normal;font-stretch:normal;font-family:'Product Sans';-inkscape-font-specification:'Product Sans';fill:#ffffff;fill-opacity:1"
         id="path4166" />
      <path
         d="m -21.646992,60.176777 q -0.996823,0 -1.640227,-0.670591 -0.643405,-0.679652 -0.643405,-1.694599 0,-1.014948 0.643405,-1.685538 0.643404,-0.679653 1.640227,-0.679653 0.743087,0 1.232436,0.362482 0.48935,0.362481 0.715901,0.915265 l -0.761211,0.317171 q -0.344357,-0.833707 -1.241498,-0.833707 -0.552784,0 -0.978699,0.453102 -0.416854,0.453101 -0.416854,1.150878 0,0.697776 0.416854,1.150877 0.425915,0.453102 0.978699,0.453102 0.933389,0 1.286808,-0.833707 l 0.743087,0.317171 q -0.226551,0.543722 -0.734025,0.915265 -0.498411,0.362482 -1.241498,0.362482 z"
         style="font-style:normal;font-variant:normal;font-weight:normal;font-stretch:normal;font-family:'Product Sans';-inkscape-font-specification:'Product Sans';fill:#ffffff;fill-opacity:1"
         id="path4168" />
      <path
         d="m -18.044976,54.476759 q -0.172178,0.172179 -0.416853,0.172179 -0.244675,0 -0.416854,-0.172179 -0.172178,-0.172178 -0.172178,-0.416853 0,-0.244675 0.172178,-0.416854 0.172179,-0.172178 0.416854,-0.172178 0.244675,0 0.416853,0.172178 0.172179,0.172179 0.172179,0.416854 0,0.244675 -0.172179,0.416853 z m 0,5.555025 -0.833707,0 0,-4.440395 0.833707,0 0,4.440395 z"
         style="font-style:normal;font-variant:normal;font-weight:normal;font-stretch:normal;font-family:'Product Sans';-inkscape-font-specification:'Product Sans';fill:#ffffff;fill-opacity:1"
         id="path4170" />
      <path
         d="m -16.044958,54.476759 q -0.172178,0.172179 -0.416853,0.172179 -0.244675,0 -0.416853,-0.172179 -0.172179,-0.172178 -0.172179,-0.416853 0,-0.244675 0.172179,-0.416854 0.172178,-0.172178 0.416853,-0.172178 0.244675,0 0.416853,0.172178 0.172179,0.172179 0.172179,0.416854 0,0.244675 -0.172179,0.416853 z m 0,5.555025 -0.833706,0 0,-4.440395 0.833706,0 0,4.440395 z"
         style="font-style:normal;font-variant:normal;font-weight:normal;font-stretch:normal;font-family:'Product Sans';-inkscape-font-specification:'Product Sans';fill:#ffffff;fill-opacity:1"
         id="path4172" />
    </g>
    <g
       id="g3"
       transform="matrix(0.275,0,0,0.275,-35.391766,16.176777)"
       style="fill:#3d434a;fill-opacity:1">
      <path
         d="m 64,48 0,0 -8,0 0,-16 8,0 C 72.836,32 80,24.836 80,16 80,7.164 72.836,0 64,0 55.163,0 48,7.164 48,16 l 0,8 -16,0 0,-8 C 32,7.164 24.836,0 16,0 7.164,0 0,7.164 0,16 0,24.836 7.164,32 16,32 l 8,0 0,16 -8,0 0,0 0,0 C 7.164,48 0,55.164 0,64 c 0,8.836 7.164,16 16,16 8.837,0 16,-7.164 16,-16 l 0,0 0,-8 16,0 0,7.98 c 0,0.008 -10e-4,0.014 -10e-4,0.02 0,8.836 7.164,16 16,16 8.836,0 16,-7.164 16,-16 C 79.999,55.164 72.836,48.002 64,48 Z M 64,8 c 4.418,0 8,3.582 8,8 0,4.418 -3.582,8 -8,8 l -8,0 0,-8 c 0,-4.418 3.582,-8 8,-8 z M 8,16 c 0,-4.418 3.582,-8 8,-8 4.418,0 8,3.582 8,8 l 0,8 -8,0 C 11.582,24 8,20.417 8,16 Z m 8,56 c -4.418,0 -8,-3.582 -8,-8 0,-4.418 3.582,-8 8,-8 l 0,0 8,0 0,8 c 0,4.418 -3.582,8 -8,8 z m 16,-24 0,-16 16,0 0,16 -16,0 z m 32,24 c -4.418,0 -8,-3.582 -8,-8 l 0,0 0,-8 7.999,0 c 4.418,0 8,3.582 8,8 0,4.418 -3.581,8 -7.999,8 z"
         id="path5"
         inkscape:connector-curvature="0"
         style="fill:#3d434a;fill-opacity:1" />
    </g>
  </g>
</svg>
