<svg height="64" viewBox="0 0 64 64" width="64" xmlns="http://www.w3.org/2000/svg" xmlns:xlink="http://www.w3.org/1999/xlink">
  <linearGradient id="a" gradientTransform="matrix(1.0749904 0 0 1.1798656 113.08072 -.43506)" gradientUnits="userSpaceOnUse" x1="-74.929466" x2="-75.259552" y1="52.199436" y2="2.356489">
    <stop offset="0" stop-color="#d1d7df" />
    <stop offset="1" stop-color="#e0e5e7" />
  </linearGradient>
  <rect fill="url(#a)" height="60.560524" ry="2.865728" stroke-width="1.07065" width="44" x="10" y="1.468998" />
  <path d="m10 51.087891v5.71289 2.199219.5c0 1.385 1.115 2.5 2.5 2.5h39c1.385 0 2.5-1.115 2.5-2.5v-.5-2.199219-5.71289z" fill="#3d434a" />
  <path d="m32.00243 30.962154a3.85 3.85 0 0 1 -3.85-3.85 3.85 3.85 0 0 1 3.85-3.85 3.85 3.85 0 0 1 3.85 3.85 3.85 3.85 0 0 1 -3.85 3.85m8.173-2.783c.044-.352.077-.704.077-1.067s-.033-.726-.077-1.1l2.321-1.793c.209-.165.264-.462.132-.704l-2.2-3.806c-.132-.242-.429-.341-.671-.242l-2.739 1.1c-.572-.429-1.166-.803-1.859-1.078l-.407-2.915c-.044-.264-.275-.462-.55-.462h-4.4c-.275 0-.506.198-.55.462l-.407 2.915c-.693.275-1.287.649-1.859 1.078l-2.739-1.1c-.242-.099-.539 0-.671.242l-2.2 3.806c-.143.242-.077.539.132.704l2.321 1.793c-.044.374-.077.737-.077 1.1s.033.715.077 1.067l-2.321 1.826c-.209.165-.275.462-.132.704l2.2 3.806c.132.242.429.33.671.242l2.739-1.111c.572.44 1.166.814 1.859 1.089l.407 2.915c.044.264.275.462.55.462h4.4c.275 0 .506-.198.55-.462l.407-2.915c.693-.286 1.287-.649 1.859-1.089l2.739 1.111c.242.088.539 0 .671-.242l2.2-3.806c.132-.242.077-.539-.132-.704z" fill="#3d434a" stroke-width="1.1" />
  <g fill="#fff">
    <path d="m23.283203 58.235352q.386719 0 .675781-.230469.292969-.230469.320313-.589844h.6875q-.02734.566406-.519531.992188-.492188.421875-1.164063.421875-.953125 0-1.417969-.628907-.460937-.628906-.460937-1.480468v-.164063q0-.851562.460937-1.480469.464844-.628906 1.417969-.628906.742188 0 1.199219.441406.457031.4375.484375 1.089844h-.6875q-.02734-.390625-.296875-.664062-.265625-.273438-.699219-.273438-.445312 0-.699219.226563-.25.226562-.355468.574218-.101563.347657-.101563.714844v.164063q0 .371093.101563.71875.101562.347656.351562.574218.253906.222657.703125.222657z" />
    <path d="m25.587891 56.68457v-.08984q0-.917969.515625-1.53125.515625-.617188 1.402343-.617188.894532 0 1.410157.617188.519531.613281.519531 1.53125v.08984q0 .917969-.519531 1.53125-.515625.613282-1.402344.613282-.890625 0-1.410156-.613282-.515625-.613281-.515625-1.53125zm.722656-.08984v.08984q0 .628907.296875 1.089844.300781.460938.90625.460938.59375 0 .894531-.460938.300781-.460937.300781-1.089844v-.08984q0-.621094-.300781-1.085938-.300781-.46875-.902344-.46875-.597656 0-.898437.46875-.296875.464844-.296875 1.085938z" />
    <path d="m32.095703 55.055664q-.347656 0-.613281.1875-.265625.1875-.417969.488281v3.019532h-.722656v-4.226563h.683594l.02344.527344q.480469-.605469 1.261719-.605469.625 0 .988281.351563.367188.351562.367188 1.183593v2.769532h-.726563v-2.777344q0-.496094-.21875-.707031-.214844-.210938-.625-.210938z" />
    <path d="m36.591797 55.079102h-.863281v3.671875h-.722657v-3.671875h-.667968v-.554688h.667968v-.367187q0-.71875.414063-1.101563.414062-.386719 1.132812-.386719.28125 0 .550782.07031.269531.06641.554687.167969l-.121094.609375q-.179687-.07031-.417968-.132813-.234375-.06641-.515625-.06641-.464844 0-.671875.210937-.203125.207032-.203125.628907v.367187h.863281zm1.421875-.554688v4.226563h-.722656v-4.226563z" />
    <path d="m42.595703 58.661133q0 .839844-.5 1.296875-.5.460937-1.289062.460937-.328125 0-.804688-.160156-.476562-.160156-.761719-.574219l.378907-.429687q.265625.324219.554687.445312.289063.125.578125.125.511719 0 .816406-.289062.304688-.285156.304688-.839844v-.371094q-.429688.503907-1.183594.503907-.761719 0-1.210937-.609375-.449219-.609375-.449219-1.535157v-.08203q0-.96875.445312-1.5625.449219-.59375 1.222657-.59375.777343 0 1.207031.546875l.03516-.46875h.65625zm-2.84375-1.976563q0 .628907.261719 1.082032.265625.449218.851562.449218.386719 0 .625-.175781.242188-.175781.382813-.449219v-1.925781q-.136719-.261719-.378906-.433594-.242188-.175781-.621094-.175781-.589844 0-.855469.460938-.265625.457031-.265625 1.085937z" />
  </g>
</svg>
