<?xml version="1.0" encoding="UTF-8" standalone="no"?>
<svg
   xmlns:osb="http://www.openswatchbook.org/uri/2009/osb"
   xmlns:dc="http://purl.org/dc/elements/1.1/"
   xmlns:cc="http://creativecommons.org/ns#"
   xmlns:rdf="http://www.w3.org/1999/02/22-rdf-syntax-ns#"
   xmlns:svg="http://www.w3.org/2000/svg"
   xmlns="http://www.w3.org/2000/svg"
   xmlns:xlink="http://www.w3.org/1999/xlink"
   xmlns:sodipodi="http://sodipodi.sourceforge.net/DTD/sodipodi-0.dtd"
   xmlns:inkscape="http://www.inkscape.org/namespaces/inkscape"
   width="64"
   viewBox="0 0 64 64"
   height="64"
   id="svg2"
   version="1.1"
   inkscape:version="0.91 r13725"
   sodipodi:docname="video-x-generic.svg"
   inkscape:export-filename="E:\Usuarios\David\Desktop\android.png"
   inkscape:export-xdpi="90"
   inkscape:export-ydpi="90">
  <metadata
     id="metadata14">
    <rdf:RDF>
      <cc:Work
         rdf:about="">
        <dc:format>image/svg+xml</dc:format>
        <dc:type
           rdf:resource="http://purl.org/dc/dcmitype/StillImage" />
        <dc:title />
      </cc:Work>
    </rdf:RDF>
  </metadata>
  <defs
     id="defs12">
    <linearGradient
       osb:paint="gradient"
       id="linearGradient4207">
      <stop
         id="stop3371"
         offset="0"
         style="stop-color:#3498db;stop-opacity:1;" />
      <stop
         id="stop3373"
         offset="1"
         style="stop-color:#3498db;stop-opacity:0;" />
    </linearGradient>
    <linearGradient
       inkscape:collect="always"
       xlink:href="#linearGradient4531-8"
       id="linearGradient4182"
       x1="-74.929466"
       y1="52.199436"
       x2="-75.259552"
       y2="2.3564887"
       gradientUnits="userSpaceOnUse"
       gradientTransform="matrix(1.0749904,0,0,1.0292896,56.688954,-0.01528455)" />
    <linearGradient
       id="linearGradient4422-1">
      <stop
         id="stop4424-78"
         offset="0"
         style="stop-color:#8798a9;stop-opacity:1" />
      <stop
         id="stop4426-8"
         offset="1"
         style="stop-color:#aeb6be;stop-opacity:1" />
    </linearGradient>
    <linearGradient
       id="linearGradient4351">
      <stop
         style="stop-color:#ffd6af;stop-opacity:1"
         offset="0"
         id="stop4353" />
      <stop
         style="stop-color:#fffcf9;stop-opacity:1"
         offset="1"
         id="stop4355" />
    </linearGradient>
    <linearGradient
       id="linearGradient4300">
      <stop
         style="stop-color:#f62459;stop-opacity:1"
         offset="0"
         id="stop4302" />
      <stop
         style="stop-color:#f73768;stop-opacity:1"
         offset="1"
         id="stop4304" />
    </linearGradient>
    <linearGradient
       id="linearGradient4422">
      <stop
         id="stop4424"
         offset="0"
         style="stop-color:#1a85f2;stop-opacity:1" />
      <stop
         id="stop4426"
         offset="1"
         style="stop-color:#1fb0f9;stop-opacity:1" />
    </linearGradient>
    <linearGradient
       id="linearGradient4256">
      <stop
         style="stop-color:#8cbdf8;stop-opacity:1;"
         offset="0"
         id="stop4258" />
      <stop
         style="stop-color:#d5e8ff;stop-opacity:1;"
         offset="1"
         id="stop4260" />
    </linearGradient>
    <linearGradient
       id="linearGradient4300-2">
      <stop
         style="stop-color:#3a539b;stop-opacity:1"
         offset="0"
         id="stop4302-4" />
      <stop
         style="stop-color:#3f5aa9;stop-opacity:1"
         offset="1"
         id="stop4304-1" />
    </linearGradient>
    <linearGradient
       id="linearGradient4422-4">
      <stop
         style="stop-color:#d1d7df;stop-opacity:1"
         offset="0"
         id="stop4424-3" />
      <stop
         style="stop-color:#e0e5e7;stop-opacity:1"
         offset="1"
         id="stop4426-4" />
    </linearGradient>
    <linearGradient
       id="linearGradient4422-41">
      <stop
         id="stop4424-2"
         offset="0"
         style="stop-color:#13b89f;stop-opacity:1" />
      <stop
         id="stop4426-43"
         offset="1"
         style="stop-color:#3aedca;stop-opacity:1" />
    </linearGradient>
    <linearGradient
       id="linearGradient4351-9">
      <stop
         style="stop-color:#fddda3;stop-opacity:1"
         offset="0"
         id="stop4353-1" />
      <stop
         style="stop-color:#fde3a7;stop-opacity:1"
         offset="1"
         id="stop4355-7" />
    </linearGradient>
    <linearGradient
       id="linearGradient4300-0">
      <stop
         style="stop-color:#f39c12;stop-opacity:1;"
         offset="0"
         id="stop4302-9" />
      <stop
         style="stop-color:#f89406;stop-opacity:1"
         offset="1"
         id="stop4304-7" />
    </linearGradient>
    <clipPath
       clipPathUnits="userSpaceOnUse"
       id="clipPath4157">
      <path
         d="m 27.642964,3.2951379 13.085584,13.0855841 -11.072418,0 c -0.977824,0 -2.013166,-1.035372 -2.013166,-2.013167 l 0,-11.0724171 z"
         id="path4159"
         inkscape:connector-curvature="0"
         style="fill:#f9f8f2;fill-opacity:1;stroke-width:1.00658333" />
    </clipPath>
    <linearGradient
       id="linearGradient4422-3">
      <stop
         style="stop-color:#ff721a;stop-opacity:1"
         offset="0"
         id="stop4424-7" />
      <stop
         style="stop-color:#fbb521;stop-opacity:1"
         offset="1"
         id="stop4426-91" />
    </linearGradient>
    <linearGradient
       id="linearGradient8467">
      <stop
         id="stop8469"
         style="stop-color:#d3d3d3;stop-opacity:1"
         offset="0" />
      <stop
         id="stop8471"
         style="stop-color:#fcf9f9;stop-opacity:1"
         offset="1" />
    </linearGradient>
    <linearGradient
       id="linearGradient4300-3">
      <stop
         style="stop-color:#f39c12;stop-opacity:1;"
         offset="0"
         id="stop4302-0" />
      <stop
         style="stop-color:#f9a11f;stop-opacity:1"
         offset="1"
         id="stop4304-0" />
    </linearGradient>
    <linearGradient
       id="linearGradient4422-0">
      <stop
         style="stop-color:#ffa400;stop-opacity:1"
         offset="0"
         id="stop4424-8" />
      <stop
         style="stop-color:#ffdd00;stop-opacity:1"
         offset="1"
         id="stop4426-6" />
    </linearGradient>
    <linearGradient
       id="linearGradient4422-04">
      <stop
         style="stop-color:#db733d;stop-opacity:1"
         offset="0"
         id="stop4424-0" />
      <stop
         style="stop-color:#ff8f65;stop-opacity:1"
         offset="1"
         id="stop4426-9" />
    </linearGradient>
    <linearGradient
       id="linearGradient4422-4-7">
      <stop
         style="stop-color:#14b59e;stop-opacity:1"
         offset="0"
         id="stop4424-5" />
      <stop
         style="stop-color:#33d6b6;stop-opacity:1"
         offset="1"
         id="stop4426-7" />
    </linearGradient>
    <linearGradient
       id="linearGradient4351-3">
      <stop
         style="stop-color:#c8e3fe;stop-opacity:1"
         offset="0"
         id="stop4353-5" />
      <stop
         style="stop-color:#ffffff;stop-opacity:1"
         offset="1"
         id="stop4355-4" />
    </linearGradient>
    <linearGradient
       id="linearGradient4300-2-8">
      <stop
         id="stop4302-4-2"
         offset="0"
         style="stop-color:#7fcc74;stop-opacity:1" />
      <stop
         id="stop4304-1-2"
         offset="1"
         style="stop-color:#87d37c;stop-opacity:1" />
    </linearGradient>
    <linearGradient
       id="linearGradient4351-2">
      <stop
         style="stop-color:#036b53;stop-opacity:1"
         offset="0"
         id="stop4353-0" />
      <stop
         style="stop-color:#036b53;stop-opacity:1"
         offset="1"
         id="stop4355-48" />
    </linearGradient>
    <clipPath
       clipPathUnits="userSpaceOnUse"
       id="clipPath4157-0">
      <path
         d="m 27.642964,3.2951379 13.085584,13.0855841 -11.072418,0 c -0.977824,0 -2.013166,-1.035372 -2.013166,-2.013167 l 0,-11.0724171 z"
         id="path4159-9"
         inkscape:connector-curvature="0"
         style="fill:#f9f8f2;fill-opacity:1;stroke-width:1.00658333" />
    </clipPath>
    <linearGradient
       id="linearGradient4531-8"
       inkscape:collect="always">
      <stop
         id="stop4533-5"
         offset="0"
         style="stop-color:#1b92f4;stop-opacity:1" />
      <stop
         id="stop4535-9"
         offset="1"
         style="stop-color:#20b9fa;stop-opacity:1" />
    </linearGradient>
  </defs>
  <sodipodi:namedview
     pagecolor="#747474"
     bordercolor="#666666"
     borderopacity="1"
     objecttolerance="10"
     gridtolerance="10"
     guidetolerance="10"
     inkscape:pageopacity="1"
     inkscape:pageshadow="2"
     inkscape:window-width="1366"
     inkscape:window-height="642"
     id="namedview10"
     showgrid="false"
     inkscape:zoom="7.4552197"
     inkscape:cx="-10.410592"
     inkscape:cy="34.022476"
     inkscape:window-x="0"
     inkscape:window-y="33"
     inkscape:window-maximized="1"
     inkscape:current-layer="g4186"
     inkscape:snap-bbox="true"
     inkscape:bbox-nodes="true"
     inkscape:object-nodes="true"
     borderlayer="false"
     showguides="true"
     inkscape:snap-nodes="true"
     inkscape:object-paths="false"
     inkscape:showpageshadow="false"
     showborder="true">
    <inkscape:grid
       type="xygrid"
       id="grid4160"
       visible="true" />
    <sodipodi:guide
       position="28.888657,63.404975"
       orientation="0,35.2"
       id="guide6108" />
    <sodipodi:guide
       position="54,55.679691"
       orientation="51.200004,0"
       id="guide6112" />
    <sodipodi:guide
       position="58.527669,62"
       orientation="0,1"
       id="guide6114"
       inkscape:label=""
       inkscape:color="rgb(0,0,255)" />
    <sodipodi:guide
       position="10,4"
       orientation="-56,0"
       id="guide6116" />
    <sodipodi:guide
       position="11,4"
       orientation="-2.8421709e-014,0"
       id="guide6118" />
    <sodipodi:guide
       position="12,62"
       orientation="0,35.2"
       id="guide6120" />
    <sodipodi:guide
       position="52,2"
       orientation="0,-40"
       id="guide6126" />
    <sodipodi:guide
       position="12,62"
       orientation="0,35.2"
       id="guide6138" />
    <sodipodi:guide
       position="55,3"
       orientation="0,-40"
       id="guide6156" />
    <sodipodi:guide
       position="53,4.3973202"
       orientation="-56,0"
       id="guide6158" />
    <sodipodi:guide
       position="21,48"
       orientation="0,22"
       id="guide4238" />
    <sodipodi:guide
       position="43,48"
       orientation="22,0"
       id="guide4240" />
    <sodipodi:guide
       position="43,26"
       orientation="0,-22"
       id="guide4242" />
    <sodipodi:guide
       position="21,26"
       orientation="-22,0"
       id="guide4244" />
  </sodipodi:namedview>
  <g
     id="g4186"
     transform="translate(56.391766,-0.17677665)">
    <rect
       ry="2.5"
       y="54.477486"
       x="-46.391766"
       height="7.6992903"
       width="44"
       id="rect4162"
       style="opacity:1;fill:#0c426b;fill-opacity:1;stroke:none;stroke-width:0.185;stroke-linecap:round;stroke-linejoin:round;stroke-miterlimit:4;stroke-dasharray:none;stroke-dashoffset:0;stroke-opacity:1" />
    <rect
       ry="2.5"
       y="1.6457753"
       x="-46.391766"
       height="52.831711"
       width="44"
       id="rect4174"
       style="opacity:1;fill:url(#linearGradient4182);fill-opacity:1.0;stroke:none;stroke-width:0.30000001;stroke-linecap:round;stroke-linejoin:round;stroke-miterlimit:4;stroke-dasharray:none;stroke-dashoffset:0;stroke-opacity:1" />
    <rect
       ry="0"
       y="51.264462"
       x="-46.391766"
       height="7.9118414"
       width="44"
       id="rect4184"
       style="opacity:1;fill:#0c426b;fill-opacity:1;stroke:none;stroke-width:0.185;stroke-linecap:round;stroke-linejoin:round;stroke-miterlimit:4;stroke-dasharray:none;stroke-dashoffset:0;stroke-opacity:1" />
    <g
       style="font-style:normal;font-weight:normal;font-size:9.36996746px;line-height:125%;font-family:sans-serif;letter-spacing:0px;word-spacing:0px;fill:#ffffff;fill-opacity:1;stroke:none;stroke-width:1px;stroke-linecap:butt;stroke-linejoin:miter;stroke-opacity:1"
       id="text4161"
       transform="matrix(0.81954967,0,0,0.81954967,-4.5342875,10.621959)">
      <g
         style="font-style:normal;font-weight:normal;font-size:13.75px;line-height:125%;font-family:sans-serif;letter-spacing:0px;word-spacing:0px;fill:#ffffff;fill-opacity:1;stroke:none;stroke-width:1px;stroke-linecap:butt;stroke-linejoin:miter;stroke-opacity:1"
         id="text4269">
        <path
           d="m -33.740201,59.538418 -1.98,-4.9 1,0 1.44,3.8 0.02,0 1.46,-3.8 0.98,0 -2,4.9 -0.92,0 z"
           style="font-style:normal;font-variant:normal;font-weight:normal;font-stretch:normal;font-size:10px;font-family:'Product Sans';-inkscape-font-specification:'Product Sans';fill:#ffffff;fill-opacity:1"
           id="path4236" />
        <path
           d="m -29.219732,53.408418 q -0.19,0.19 -0.46,0.19 -0.27,0 -0.46,-0.19 -0.19,-0.19 -0.19,-0.46 0,-0.27 0.19,-0.46 0.19,-0.19 0.46,-0.19 0.27,0 0.46,0.19 0.19,0.19 0.19,0.46 0,0.27 -0.19,0.46 z m 0,6.13 -0.92,0 0,-4.9 0.92,0 0,4.9 z"
           style="font-style:normal;font-variant:normal;font-weight:normal;font-stretch:normal;font-size:10px;font-family:'Product Sans';-inkscape-font-specification:'Product Sans';fill:#ffffff;fill-opacity:1"
           id="path4238" />
        <path
           d="m -26.021294,59.698418 q -0.95,0 -1.64,-0.75 -0.69,-0.75 -0.69,-1.86 0,-1.11 0.69,-1.86 0.69,-0.75 1.64,-0.75 0.56,0 1,0.24 0.45,0.24 0.67,0.6 l 0.04,0 -0.04,-0.68 0,-2.26 0.92,0 0,7.16 -0.88,0 0,-0.68 -0.04,0 q -0.22,0.36 -0.67,0.6 -0.44,0.24 -1,0.24 z m 0.15,-0.84 q 0.65,0 1.1,-0.48 0.46,-0.48 0.46,-1.29 0,-0.81 -0.46,-1.29 -0.45,-0.48 -1.1,-0.48 -0.64,0 -1.1,0.49 -0.46,0.48 -0.46,1.28 0,0.8 0.46,1.29 0.46,0.48 1.1,0.48 z"
           style="font-style:normal;font-variant:normal;font-weight:normal;font-stretch:normal;font-size:10px;font-family:'Product Sans';-inkscape-font-specification:'Product Sans';fill:#ffffff;fill-opacity:1"
           id="path4240" />
        <path
           d="m -20.148169,59.698418 q -1.11,0 -1.81,-0.74 -0.69,-0.74 -0.69,-1.87 0,-1.07 0.67,-1.84 0.68,-0.77 1.73,-0.77 1.09,0 1.74,0.71 0.66,0.71 0.66,1.9 l -0.01,0.17 -3.87,0 q 0.04,0.74 0.49,1.17 0.46,0.43 1.07,0.43 0.99,0 1.34,-0.84 l 0.82,0.34 q -0.24,0.57 -0.79,0.96 -0.55,0.38 -1.35,0.38 z m 1.32,-3.2 q -0.03,-0.42 -0.39,-0.8 -0.35,-0.38 -1.05,-0.38 -0.51,0 -0.89,0.32 -0.37,0.32 -0.51,0.86 l 2.84,0 z"
           style="font-style:normal;font-variant:normal;font-weight:normal;font-stretch:normal;font-size:10px;font-family:'Product Sans';-inkscape-font-specification:'Product Sans';fill:#ffffff;fill-opacity:1"
           id="path4242" />
        <path
           d="m -16.528013,55.228418 q 0.71,-0.75 1.81,-0.75 1.1,0 1.81,0.75 0.71,0.74 0.71,1.86 0,1.12 -0.71,1.87 -0.71,0.74 -1.81,0.74 -1.1,0 -1.81,-0.74 -0.71,-0.75 -0.71,-1.87 0,-1.12 0.71,-1.86 z m 0.68,3.15 q 0.48,0.48 1.13,0.48 0.65,0 1.12,-0.48 0.48,-0.49 0.48,-1.29 0,-0.8 -0.48,-1.28 -0.47,-0.49 -1.12,-0.49 -0.65,0 -1.13,0.49 -0.47,0.48 -0.47,1.28 0,0.8 0.47,1.29 z"
           style="font-style:normal;font-variant:normal;font-weight:normal;font-stretch:normal;font-size:10px;font-family:'Product Sans';-inkscape-font-specification:'Product Sans';fill:#ffffff;fill-opacity:1"
           id="path4244" />
      </g>
    </g>
    <g
       inkscape:transform-center-y="-9.4924686"
       inkscape:transform-center-x="5.4653607"
       inkscape:label="Capa 1"
       id="layer1"
       transform="translate(-512.39016,-513.11533)"
       style="fill-opacity:1;fill:#0c426b">
      <g
         id="layer1-3"
         inkscape:label="Capa 1"
         transform="translate(0.41988239,0.03484499)"
         style="fill-opacity:1;fill:#0c426b">
        <g
           inkscape:transform-center-y="-9.4924686"
           inkscape:transform-center-x="5.4653607"
           inkscape:label="Capa 1"
           id="layer1-1"
           transform="translate(-1.0905561,2.3014428)"
           style="fill-opacity:1;fill:#0c426b">
          <g
             id="layer1-3-2"
             inkscape:label="Capa 1"
             transform="translate(0.41988239,0.03484499)"
             style="fill-opacity:1;fill:#0c426b">
            <g
               style="fill:#0c426b;fill-opacity:1"
               transform="matrix(0.99296619,0,0,0.99296619,401.92095,506.77574)"
               id="g8884">
              <g
                 style="fill:#0c426b;fill-opacity:1"
                 inkscape:label="Capa 1"
                 id="layer1-34"
                 transform="translate(32.081072,-981.7279)">
                <g
                   transform="matrix(0.90537551,0,0,0.90537551,-365.91682,562.06022)"
                   id="layer1-0"
                   inkscape:label="Capa 1"
                   style="fill:#0c426b;fill-opacity:1;stroke:#4f96d1;stroke-opacity:1" />
                <g
                   style="fill:#0c426b;fill-opacity:1"
                   transform="translate(-401.01229,510.63371)"
                   id="layer1-00"
                   inkscape:label="Capa 1">
                  <g
                     style="fill:#0c426b;fill-opacity:1"
                     transform="translate(5.05585,-5.251147)"
                     id="layer1-4"
                     inkscape:label="Capa 1">
                    <g
                       transform="translate(-11.317,5.8824915)"
                       id="layer1-9"
                       inkscape:label="Capa 1"
                       style="fill:#0c426b;fill-opacity:1;stroke:#000000;stroke-opacity:0.8">
                      <g
                         style="fill:#0c426b;fill-opacity:1"
                         transform="translate(1.8733025,-0.28410538)"
                         id="layer1-79"
                         inkscape:label="Capa 1">
                        <g
                           style="fill:#0c426b;fill-opacity:1"
                           transform="translate(-2.0518724,-0.97858527)"
                           id="layer1-2-8"
                           inkscape:label="Capa 1">
                          <path
                             style="display:inline;fill:#0c426b;fill-opacity:1;stroke:none;stroke-width:46.76432037;stroke-miterlimit:4;stroke-dasharray:none;stroke-opacity:1"
                             inkscape:connector-curvature="0"
                             d="m 472.46517,492.17042 -1.09633,0 c -0.26036,0 -0.4714,0.21106 -0.4714,0.4714 l 0,0.58667 c 0,0.26032 -0.21105,0.47139 -0.47141,0.47139 l -1.02223,0 c -0.26034,0 -0.4714,-0.21107 -0.4714,-0.47139 l 0,-0.58667 c 0,-0.26034 -0.21101,-0.4714 -0.4714,-0.4714 l -12.30814,0 c -0.26036,0 -0.4714,0.21106 -0.4714,0.4714 l 0,0.58667 c 0,0.26032 -0.21105,0.47139 -0.47139,0.47139 l -1.02225,0 c -0.26034,0 -0.4714,-0.21107 -0.4714,-0.47139 l 0,-0.58667 c 0,-0.26034 -0.21103,-0.4714 -0.47139,-0.4714 l -1.05947,0 c -0.26037,0 -0.4714,0.21106 -0.4714,0.4714 l 0,21.21304 c 0,0.26037 0.21103,0.4714 0.4714,0.4714 l 1.05947,0 c 0.26036,0 0.47139,-0.21103 0.47139,-0.4714 l 0,-0.43098 c 0,-0.26034 0.21106,-0.47139 0.4714,-0.47139 l 1.02225,0 c 0.26034,0 0.47139,0.21105 0.47139,0.47139 l 0,0.43098 c 0,0.26037 0.21104,0.4714 0.4714,0.4714 l 12.30814,0 c 0.26039,0 0.4714,-0.21103 0.4714,-0.4714 l 0,-0.43098 c 0,-0.26034 0.21106,-0.47139 0.4714,-0.47139 l 1.02223,0 c 0.26036,0 0.47141,0.21105 0.47141,0.47139 l 0,0.43098 c 0,0.26037 0.21104,0.4714 0.4714,0.4714 l 1.09633,0 c 0.26036,0 0.47141,-0.21103 0.47141,-0.4714 l 0,-21.21304 c 0,-0.26032 -0.21105,-0.4714 -0.47141,-0.4714 z m -16.78371,18.0398 c 0,0.26034 -0.21105,0.47139 -0.47139,0.47139 l -1.02225,0 c -0.26034,0 -0.4714,-0.21105 -0.4714,-0.47139 l 0,-1.02226 c 0,-0.26032 0.21106,-0.47139 0.4714,-0.47139 l 1.02225,0 c 0.26034,0 0.47139,0.21107 0.47139,0.47139 l 0,1.02226 z m 0,-4.23592 c 0,0.26032 -0.21105,0.47139 -0.47139,0.47139 l -1.02225,0 c -0.26034,0 -0.4714,-0.21107 -0.4714,-0.47139 l 0,-1.02227 c 0,-0.26032 0.21106,-0.4714 0.4714,-0.4714 l 1.02225,0 c 0.26034,0 0.47139,0.21108 0.47139,0.4714 l 0,1.02227 z m 0,-4.23594 c 0,0.26036 -0.21105,0.4714 -0.47139,0.4714 l -1.02225,0 c -0.26034,0 -0.4714,-0.21104 -0.4714,-0.4714 l 0,-1.02225 c 0,-0.26034 0.21106,-0.47139 0.4714,-0.47139 l 1.02225,0 c 0.26034,0 0.47139,0.21105 0.47139,0.47139 l 0,1.02225 z m 0,-4.23591 c 0,0.26034 -0.21105,0.47139 -0.47139,0.47139 l -1.02225,0 c -0.26034,0 -0.4714,-0.21105 -0.4714,-0.47139 l 0,-1.02223 c 0,-0.26035 0.21106,-0.47142 0.4714,-0.47142 l 1.02225,0 c 0.26034,0 0.47139,0.21107 0.47139,0.47142 l 0,1.02223 z m 11.21262,14.33168 c 0,0.26038 -0.21103,0.4714 -0.47139,0.4714 l -8.19465,0 c -0.26036,0 -0.4714,-0.21102 -0.4714,-0.4714 l 0,-3.78823 c 0,-0.26034 0.21104,-0.47139 0.4714,-0.47139 l 8.19465,0 c 0.26036,0 0.47139,0.21105 0.47139,0.47139 l 0,3.78823 0,0 z m 0,-6.69166 c 0,0.26034 -0.21103,0.47139 -0.47139,0.47139 l -8.19465,0 c -0.26036,0 -0.4714,-0.21105 -0.4714,-0.47139 l 0,-3.78823 c 0,-0.26035 0.21104,-0.4714 0.4714,-0.4714 l 8.19465,0 c 0.26036,0 0.47139,0.21105 0.47139,0.4714 l 0,3.78823 0,0 z m 0,-6.69171 c 0,0.26036 -0.21103,0.47139 -0.47139,0.47139 l -8.19465,0 c -0.26036,0 -0.4714,-0.21103 -0.4714,-0.47139 l 0,-3.78823 c 0,-0.26032 0.21104,-0.4714 0.4714,-0.4714 l 8.19465,0 c 0.26036,0 0.47139,0.21108 0.47139,0.4714 l 0,3.78823 0,0 z m 4.00338,11.75946 c 0,0.26034 -0.21105,0.47139 -0.47139,0.47139 l -1.02225,0 c -0.26034,0 -0.4714,-0.21105 -0.4714,-0.47139 l 0,-1.02226 c 0,-0.26032 0.21106,-0.47139 0.4714,-0.47139 l 1.02225,0 c 0.26034,0 0.47139,0.21107 0.47139,0.47139 l 0,1.02226 z m 0,-4.23592 c 0,0.26032 -0.21105,0.47139 -0.47139,0.47139 l -1.02225,0 c -0.26034,0 -0.4714,-0.21107 -0.4714,-0.47139 l 0,-1.02227 c 0,-0.26032 0.21106,-0.4714 0.4714,-0.4714 l 1.02225,0 c 0.26034,0 0.47139,0.21108 0.47139,0.4714 l 0,1.02227 z m 0,-4.23594 c 0,0.26036 -0.21105,0.4714 -0.47139,0.4714 l -1.02225,0 c -0.26034,0 -0.4714,-0.21104 -0.4714,-0.4714 l 0,-1.02225 c 0,-0.26034 0.21106,-0.47139 0.4714,-0.47139 l 1.02225,0 c 0.26034,0 0.47139,0.21105 0.47139,0.47139 l 0,1.02225 z m 0,-4.23591 c 0,0.26034 -0.21105,0.47139 -0.47139,0.47139 l -1.02225,0 c -0.26034,0 -0.4714,-0.21105 -0.4714,-0.47139 l 0,-1.02223 c 0,-0.26035 0.21106,-0.47142 0.4714,-0.47142 l 1.02225,0 c 0.26034,0 0.47139,0.21107 0.47139,0.47142 l 0,1.02223 z"
                             id="path14795" />
                        </g>
                      </g>
                    </g>
                  </g>
                </g>
              </g>
            </g>
          </g>
        </g>
      </g>
    </g>
  </g>
</svg>
