<svg height="64" viewBox="0 0 64 64" width="64" xmlns="http://www.w3.org/2000/svg" xmlns:xlink="http://www.w3.org/1999/xlink"><linearGradient id="a" gradientTransform="matrix(1.0749904 0 0 1.0292896 56.688954 -.015285)" gradientUnits="userSpaceOnUse" x1="-74.929466" x2="-75.259552" y1="52.199436" y2="2.356489"><stop offset="0" stop-color="#197cf1"/><stop offset="1" stop-color="#20bcfa"/></linearGradient><g transform="translate(56.391766 -.176777)"><rect fill="#0b3969" height="7.69929" ry="2.5" width="44" x="-46.391766" y="54.477486"/><rect fill="url(#a)" height="52.831711" ry="2.5" width="44" x="-46.391766" y="1.645775"/><path d="m-46.391766 51.264462h44v7.911841h-44z" fill="#0b3969"/><path d="m178.6098-7.441627c1.25649 0 2.27488-1.0185802 2.27488-2.2748679 0-1.2562881-1.01859-2.2746751-2.27488-2.2746751-1.25628 0-2.27524 1.018581-2.27524 2.2748687s1.01896 2.2746743 2.27524 2.2746743zm.96496.1550519h-1.9303c-1.60607 0-2.91269 1.3068102-2.91269 2.9128838v2.3606207l.006.036972.1626.05091c1.53272.4788992 2.86431.6385968 3.96031.6385968 2.14072 0 3.38153-.6103351 3.45799-.6492433l.15196-.076849h.0163v-2.3610078c.00058-1.6060737-1.30603-2.9128838-2.91211-2.9128838z" fill="#0c3e6a" transform="matrix(2.055195434541 0 0 2.055195434541 -391.39970120989 40.820977898003)"/></g></svg>