<svg height="64" viewBox="0 0 64 64" width="64" xmlns="http://www.w3.org/2000/svg" xmlns:xlink="http://www.w3.org/1999/xlink"><linearGradient id="a" gradientTransform="matrix(1.0749904 0 0 1.1792904 56.688954 -.257355)" gradientUnits="userSpaceOnUse" x1="-74.929466" x2="-75.259552" y1="52.199436" y2="2.356489"><stop offset="0" stop-color="#ffa400"/><stop offset="1" stop-color="#fd0"/></linearGradient><g transform="translate(56.391766 -.176777)"><rect fill="url(#a)" height="60.531002" ry="2.864331" width="44" x="-46.391766" y="1.645775"/><path d="m10 51.087891v5.71289 2.199219.5c0 1.385 1.115 2.5 2.5 2.5h39c1.385 0 2.5-1.115 2.5-2.5v-.5-2.199219-5.71289z" fill-opacity=".588235" transform="translate(-56.391766 .176777)"/><g fill="#fff" transform="matrix(.81954967 0 0 .81954967 -4.13638 10.799899)"><path d="m-45.067563 53.323821h.835332v5.511155q0 .753837-.305609 1.202064-.305609.448227-1.049259.448227-.2343 0-.417666-.04075-.183366-.04075-.315796-.09168l.173178-.631593q.09168.03056.213927.05093.122244.03056.254674.03056.366732 0 .488975-.254674.122244-.254675.122244-.713089v-5.511155zm.427853-1.018698q-.244487 0-.417666-.152804-.162992-.152805-.162992-.387106 0-.244487.162992-.387105.173179-.152804.417666-.152804.234301 0 .397292.152804.173179.142618.173179.387105 0 .234301-.173179.387106-.162991.152804-.397292.152804z"/><path d="m-42.815286 56.991133q0-.814958.723276-1.242811.733462-.43804 2.322631-.611219 0-.2343-.05094-.458414-.04075-.224113-.162992-.397292-.112056-.173179-.305609-.275048-.193553-.112057-.499162-.112057-.43804 0-.814958.162992-.366731.162991-.662154.366731l-.33617-.580658q.346357-.224114.845519-.427853.499162-.213927 1.100194-.213927.906641 0 1.31412.560284.407479.550097.407479 1.477112v3.03572h-.692714l-.07131-.590845h-.02037q-.356544.295422-.774211.509349-.407479.203739-.865893.203739-.631592 0-1.049258-.366731-.40748-.366731-.40748-1.039072zm.825146-.06112q0 .427853.244487.611219.254675.183366.621406.183366.356544 0 .67234-.162992.325984-.173179.682528-.499162v-1.375242q-.621406.0815-1.049259.193553-.427853.112056-.692714.264861-.254675.152805-.366732.356544-.112056.193553-.112056.427853z"/><path d="m-38.071019 53.323821h.865893l.937202 2.811606q.112057.366731.224114.733463.122244.366731.2343.723275h.04075q.112057-.356544.224114-.723275.112057-.366732.224113-.733463l.937202-2.811606h.825146l-1.752161 4.950872h-.97795l-1.782721-4.950872z"/><path d="m-33.046132 56.991133q0-.814958.723275-1.242811.733462-.43804 2.322631-.611219 0-.2343-.05093-.458414-.04075-.224113-.162991-.397292-.112057-.173179-.30561-.275048-.193552-.112057-.499162-.112057-.43804 0-.814958.162992-.366731.162991-.662154.366731l-.33617-.580658q.346357-.224114.845519-.427853.499162-.213927 1.100194-.213927.906641 0 1.31412.560284.407479.550097.407479 1.477112v3.03572h-.692714l-.07131-.590845h-.02037q-.356544.295422-.77421.509349-.40748.203739-.865894.203739-.631592 0-1.049258-.366731-.407479-.366731-.407479-1.039072zm.825145-.06112q0 .427853.244487.611219.254675.183366.621406.183366.356544 0 .672341-.162992.325983-.173179.682527-.499162v-1.375242q-.621406.0815-1.049259.193553-.427853.112056-.692714.264861-.254675.152805-.366731.356544-.112057.193553-.112057.427853z"/><path d="m-27.721209 57.154125q.325983.264861.662154.427853.346357.162992.794584.162992.488975 0 .733462-.224114.244488-.224113.244488-.550097 0-.193552-.10187-.33617-.10187-.142618-.264861-.244487-.152805-.112057-.356545-.193553-.203739-.0815-.407479-.162992-.264861-.09168-.529723-.203739-.264861-.122244-.478788-.285236-.203739-.173178-.33617-.397292-.132431-.224113-.132431-.53991 0-.295422.112057-.550096.122244-.264862.336171-.448228.224113-.193552.539909-.295422.315797-.112057.713089-.112057.468601 0 .855706.162992.397292.162992.682528.397292l-.397293.529723q-.254674-.193553-.529722-.315796-.275049-.122244-.601032-.122244-.468601 0-.692715.213926-.213926.213927-.213926.499162 0 .173179.09168.30561.09168.122244.244487.224113.152805.09168.346357.173179.20374.07131.417666.152805.264862.101869.529723.213926.275049.112057.488975.285236.213927.162991.346358.407479.142617.244487.142617.590844 0 .30561-.122244.570471-.112056.264862-.346357.468601-.224113.20374-.570471.315797-.33617.122243-.77421.122243-.529723 0-1.008511-.193552-.478788-.193553-.835332-.488975l.417666-.560284z"/><path d="m-23.677773 55.809444q0-.621406.193553-1.100194.193552-.488975.519536-.825145.325983-.33617.753836-.509349.43804-.173179.916828-.173179.488975 0 .835332.183366.356545.173179.611219.407479l-.417666.53991q-.224114-.193553-.468601-.315796-.234301-.122244-.529723-.122244-.33617 0-.621406.142618-.285235.13243-.488975.387105-.203739.254674-.325983.611218-.112057.346358-.112057.774211 0 .427853.112057.77421.112057.346357.30561.601032.203739.244487.488974.387105.285236.132431.621406.132431.356544 0 .64178-.142618.295422-.152805.519536-.356544l.376918.550097q-.33617.295422-.753837.468601-.407479.173178-.855706.173178-.488975 0-.916828-.173178-.427853-.173179-.743649-.499162-.30561-.336171-.488975-.814959-.173179-.488975-.173179-1.100193z"/><path d="m-18.675172 53.323821h.692715l.07131.896454h.03056q.254674-.468601.611218-.743649.366732-.275049.794585-.275049.295422 0 .529723.10187l-.162992.733463q-.122244-.04075-.224114-.06112-.101869-.02037-.254674-.02037-.315796 0-.662154.254674-.33617.254675-.590844.886267v3.178338h-.835333v-4.950872z"/><path d="m-14.705752 52.305123q-.244487 0-.417666-.152804-.162991-.152805-.162991-.387106 0-.244487.162991-.387105.173179-.152804.417666-.152804.244488 0 .40748.152804.173178.142618.173178.387105 0 .234301-.173178.387106-.162992.152804-.40748.152804zm-.427853 1.018698h.835333v4.950872h-.835333z"/><path d="m-11.791322 58.692359v1.670664h-.835332v-7.039202h.692714l.07131.570471h.03056q.33617-.285236.733462-.488975.40748-.20374.84552-.20374.4787876 0 .8455188.183366.3667313.173179.6112187.509349.2444875.325983.3667313.794584.1324307.458414.1324307 1.039072 0 .631593-.1731787 1.130755-.1731786.488975-.468601.835332-.2954223.346357-.6825275.529723-.3871053.173178-.8149583.173178-.346357 0-.692715-.152804-.33617-.152805-.682527-.417667l.02037.865894zm0-1.51786q.33617.285235.651967.407479.315796.112057.560283.112057.30561 0 .560284-.132431.2648616-.142618.4482272-.387105.1935526-.254675.2954224-.621406.1120567-.366731.1120567-.825145 0-.407479-.071309-.743649-.071309-.336171-.2343005-.570471-.1528047-.244488-.4074792-.376918-.2444878-.132431-.5908448-.132431-.315796 0-.64178.173178-.315796.173179-.682527.499162v2.59768z"/><path d="m-6.8334438 54.006349h-.7334625v-.631593l.7742104-.05093.1018698-1.385429h.7029015v1.385429h1.3344941v.682528h-1.3344941v2.750484q0 .458414.1629916.713088.1731787.244488.6010318.244488.1324307 0 .2852354-.04075.1528046-.04075.2750484-.09168l.1629916.631593q-.2037395.07131-.448227.122243-.2343005.06112-.468601.06112-.3972922 0-.6723406-.122243-.2648614-.122244-.4380401-.336171-.1629916-.213926-.2343005-.519536-.071309-.305609-.071309-.67234v-2.740297z"/></g><g fill-opacity=".588235"><path d="m-28.187435 21.910658h1.915201v10.230943q0 2.073974-1.250339 3.244926-1.240415 1.170952-3.314389 1.170952-2.15336 0-3.354082-1.101489-1.200722-1.101488-1.200722-3.086152h1.905278q0 1.240415.674786 1.935047.684709.694633 1.97474.694633 1.180875 0 1.905278-.744249.734325-.744249.744249-2.083898z"/><path d="m-18.750358 29.918778q-2.45106-.704556-3.572395-1.726658-1.111412-1.032025-1.111412-2.54037 0-1.706811 1.359495-2.818223 1.369418-1.121335 3.552548-1.121335 1.488498 0 2.649527.575552 1.170952.575553 1.806044 1.587732.645016 1.012178.645016 2.2129h-1.915201q0-1.309878-.833559-2.054127-.833559-.754173-2.351827-.754173-1.409111 0-2.202977.62517-.783942.615246-.783942 1.716734 0 .883176.744249 1.498421.754172.605323 2.550293 1.111412 1.806045.50609 2.818223 1.121335 1.022102.605323 1.508345 1.419035.496166.813713.496166 1.915201 0 1.756428-1.369418 2.818223-1.369418 1.051872-3.661705 1.051872-1.488499 0-2.77853-.565629-1.290032-.575553-1.994588-1.567885-.694632-.992332-.694632-2.252594h1.915201q0 1.309879.962562 2.073974.972485.754173 2.589987.754173 1.508344 0 2.312133-.615246.803789-.615246.803789-1.677041 0-1.061796-.744249-1.637348-.744249-.585476-2.699143-1.151105z"/></g></g></svg>