<svg height="64" viewBox="0 0 64 64" width="64" xmlns="http://www.w3.org/2000/svg" xmlns:xlink="http://www.w3.org/1999/xlink"><linearGradient id="a" gradientTransform="matrix(1.0749904 0 0 1.0292896 56.688954 -.015285)" gradientUnits="userSpaceOnUse" x1="-74.929466" x2="-75.259552" y1="52.199436" y2="2.356489"><stop offset="0" stop-color="#cd2619"/><stop offset="1" stop-color="#ff5c4d"/></linearGradient><g transform="translate(56.391766 -.176777)"><rect fill="#5b130d" height="7.69929" ry="2.5" width="44" x="-46.391766" y="54.477486"/><rect fill="url(#a)" height="52.831711" ry="2.5" width="44" x="-46.391766" y="1.645775"/><path d="m-46.391766 51.264462h44v7.911841h-44z" fill="#5b130d"/><g transform="matrix(.550000420695 0 0 .550000420695 -249.006223012622 -260.912332799023)"><rect fill="#5b130d" height="39.999969" ry="1.999996" width="36" x="390.57144" y="503.798"/><g fill="#fff"><g><rect height="2" opacity=".929" ry=".888648" width="4" x="406.643184" y="504.90935"/><rect height="2" opacity=".929" ry=".888648" width="4" x="406.634814" y="507.80199"/><rect height="2" opacity=".929" ry=".888648" width="4" x="406.609734" y="510.65978"/><rect height="2" opacity=".929" ry=".888648" width="4" x="406.653554" y="513.63469"/><rect height="2" opacity=".929" ry=".888648" width="4" x="406.653554" y="516.55742"/></g><rect height="2" opacity=".929" ry=".888648" width="4" x="406.6535" y="519.54907"/><path d="m410.11783 524.47214v-1.26212c0-.35164-.28416-.63683-.63453-.63683h-1.76295c-.35037 0-.6346.28526-.6346.63683v1.2615l-.98056 2.89118c-.27435.80579-.14271 1.70105.35164 2.39489.49436.69257 1.29597 1.10622 2.14496 1.10622.84916 0 1.65084-.41365 2.14519-1.10622.49435-.69384.62583-1.5891.35156-2.39426zm-.40955 4.53977c-.50867.71448-1.70431.71448-2.21306 0-.25497-.35792-.32285-.8196-.18195-1.23564l.32909-.96974h1.91878l.32918.97037c.14096.41541.0729.87709-.18204 1.23501z"/></g></g><g fill="#fff" transform="matrix(.59731534 0 0 .59731534 53.282085 30.0676)"><path d="m-135.46757 49.800281q-1.05875 0-1.6225-.56375-.55-.56375-.55-1.595v-3.53375h-1.1825v-1.155h1.1825v-2.0625h1.265v2.0625h1.65v1.155h-1.65v3.4375q0 1.1.9075 1.1.34375 0 .5775-.11l.44 1.08625q-.4125.17875-1.0175.17875z"/><path d="m-132.17617 39.845281v3.1075l-.055.935h.055q.275-.48125.86625-.81125.59125-.34375 1.265-.34375 1.25125 0 1.91125.77.66.77.66 2.0625v4.125h-1.265v-3.9325q0-1.87-1.66375-1.87-.78375 0-1.27875.6325-.495.61875-.495 1.44375v3.72625h-1.265v-9.845z"/><path d="m-123.92466 49.910281q-1.0725 0-1.80125-.61875-.715-.61875-.715-1.63625 0-1.1.8525-1.71875.8525-.6325 2.10375-.6325 1.11375 0 1.82875.4125v-.1925q0-.7425-.50875-1.1825-.50875-.45375-1.25125-.45375-.55 0-1.00375.26125-.44.26125-.605.715l-1.155-.495q.23375-.605.92125-1.11375.6875-.5225 1.815-.5225 1.2925 0 2.145.75625.8525.75625.8525 2.13125v4.07h-1.21v-.935h-.055q-.75625 1.155-2.21375 1.155zm.20625-1.155q.78375 0 1.41625-.5775.64625-.59125.64625-1.38875-.53625-.44-1.60875-.44-.92125 0-1.38875.39875-.4675.39875-.4675.935 0 .495.42625.78375.42625.28875.97625.28875z"/></g></g></svg>