<svg xmlns="http://www.w3.org/2000/svg" height="64" width="64"><linearGradient id="a" gradientTransform="matrix(1.07499 0 0 1.17929 56.689 -.257)" gradientUnits="userSpaceOnUse" x1="-74.929" x2="-75.26" y1="52.199" y2="2.356"><stop offset="0" stop-color="#007acc"/><stop offset="1" stop-color="#59f"/></linearGradient><g transform="translate(56.392 -.177)"><rect height="60.531" ry="2.864" width="44" x="-46.392" y="1.646" fill="url(#a)"/><path d="M-46.392 51.265V59.677c0 1.385 1.115 2.5 2.5 2.5h39c1.385 0 2.5-1.115 2.5-2.5V51.265z" fill-opacity=".588"/><g fill="#fff"><path d="M-40.164 57.569q0 .344.08.496.088.152.304.152.048 0 .152-.008.112-.016.16-.016l.104.552q-.248.048-.536.048-.328 0-.536-.072-.2-.08-.296-.264-.088-.184-.12-.376-.024-.2-.024-.552v-2.392h-.512V54.6h.512v-1.032l.712-.424V54.6h.696v.536h-.696zM-38.81 60.337l-.087-.552q.256.064.408.064.224 0 .392-.128t.24-.312q.232-.608.248-.664l-1.568-4.144h.744l.872 2.392q.184.504.296.968.16-.584.296-.944l.88-2.416h.712l-1.584 4.216-.128.344q-.024.064-.128.304-.104.248-.16.32-.056.08-.176.24-.12.168-.224.224-.104.064-.256.12-.152.056-.32.056-.24 0-.456-.088zM-31.209 56.633q0 .952-.488 1.584-.48.624-1.312.624-.664 0-1.08-.528v2.024h-.712V54.6h.712v.536q.344-.632 1.128-.632.84 0 1.296.584.456.584.456 1.544zm-1.816-1.552q-.504 0-.784.44-.28.432-.28 1.176 0 1.568 1.04 1.568.552 0 .84-.448.288-.448.288-1.184 0-.696-.288-1.12-.28-.432-.816-.432zM-29.86 56.84q.04.649.36 1.04.328.385.904.385.768 0 1.096-.856l.72.088q-.368 1.344-1.824 1.344-.936 0-1.456-.56-.52-.56-.52-1.584 0-1 .504-1.592.512-.6 1.432-.6.832 0 1.32.504.488.496.552 1.368v.464zm.04-.575h2.32q-.096-1.184-1.128-1.184-.52 0-.84.336-.312.328-.352.848zM-24.47 56.969q-.4-.096-.633-.176-.232-.08-.48-.224-.248-.144-.36-.36-.112-.216-.112-.52 0-.2.064-.384.072-.192.232-.376.16-.192.472-.304.32-.12.752-.12.448 0 .768.096.32.088.496.264.176.176.264.36.088.184.128.44l-.696.088q-.096-.672-.912-.672-.856 0-.856.536 0 .24.184.352.184.112.688.248.072.016.264.072.2.048.264.072.072.016.24.072.168.048.232.08.072.032.2.096.136.064.192.12.056.056.136.144.08.088.112.184.04.088.064.208.032.12.032.256 0 .376-.176.648-.168.272-.44.416-.264.136-.528.192-.264.064-.52.064-1.536 0-1.776-1.336l.696-.112q.112.872 1.08.872.952 0 .952-.664 0-.072-.016-.128-.008-.064-.048-.112t-.072-.08q-.032-.04-.104-.072-.072-.04-.12-.056-.04-.024-.144-.048l-.16-.048q-.048-.016-.176-.04-.128-.032-.184-.048zM-22.134 56.68q0-.623.176-1.071.176-.448.464-.672.296-.232.608-.328.312-.104.656-.104 1.392 0 1.656 1.312l-.688.104q-.184-.84-.944-.84-1.216 0-1.216 1.592t1.176 1.592q.888 0 1.048-1.04l.68.088q-.112.696-.56 1.112-.44.416-1.152.416-.904 0-1.408-.584-.496-.592-.496-1.576zM-17.942 58.745V54.6h.712v.624q.296-.72.824-.72.36 0 .72.216l-.232.52q-.24-.16-.512-.16-.352 0-.576.376-.224.376-.224 1.12v2.168zM-15.27 53.825v-.808h.712v.808zm0 4.92V54.6h.712v4.144zM-9.897 56.633q0 .952-.488 1.584-.48.624-1.312.624-.664 0-1.08-.528v2.024h-.712V54.6h.712v.536q.344-.632 1.128-.632.84 0 1.296.584.456.584.456 1.544zm-1.816-1.552q-.504 0-.784.44-.28.432-.28 1.176 0 1.568 1.04 1.568.552 0 .84-.448.288-.448.288-1.184 0-.696-.288-1.12-.28-.432-.816-.432zM-8.195 57.569q0 .344.08.496.088.152.304.152.048 0 .152-.008.112-.016.16-.016l.104.552q-.248.048-.536.048-.328 0-.536-.072-.2-.08-.296-.264-.088-.184-.12-.376-.024-.2-.024-.552v-2.392h-.512V54.6h.512v-1.032l.712-.424V54.6h.696v.536h-.696z"/></g><g fill-opacity=".588"><path d="M-30.405 23.263h-4.483v12.432h-1.829V23.263h-4.473V21.75h10.785zM-24.853 29.39q-2.366-.68-3.448-1.666-1.073-.996-1.073-2.451 0-1.648 1.313-2.72 1.321-1.083 3.428-1.083 1.437 0 2.558.556 1.13.555 1.743 1.532.622.977.622 2.136h-1.848q0-1.264-.805-1.983-.804-.728-2.27-.728-1.36 0-2.126.604-.757.594-.757 1.657 0 .852.719 1.446.728.584 2.461 1.073 1.743.488 2.72 1.082.987.584 1.456 1.37.479.785.479 1.848 0 1.695-1.322 2.72-1.321 1.015-3.534 1.015-1.437 0-2.682-.546-1.245-.555-1.925-1.513-.67-.958-.67-2.174h1.848q0 1.264.93 2.002.938.728 2.5.728 1.455 0 2.23-.594.777-.594.777-1.619t-.719-1.58q-.718-.565-2.605-1.111zM-18.985 21.706l4.417 6.915-4.522 7.03h2.174l3.45-5.44 3.427 5.44h2.184l-4.51-7.03 4.405-6.915h-2.165l-3.342 5.344-3.361-5.344z"/></g></g></svg>