<svg height="64" viewBox="0 0 64 64" width="64" xmlns="http://www.w3.org/2000/svg" xmlns:xlink="http://www.w3.org/1999/xlink"><linearGradient id="a" gradientTransform="matrix(1.0749904 0 0 1.1792904 56.688954 -.257355)" gradientUnits="userSpaceOnUse" x1="-74.929466" x2="-75.259552" y1="52.199436" y2="2.356489"><stop offset="0" stop-color="#37abc8"/><stop offset="1" stop-color="#2ad4ff"/></linearGradient><g transform="translate(56.391766 -.176777)"><rect fill="url(#a)" height="60.531002" ry="2.864331" width="44" x="-46.391766" y="1.645775"/><path d="m10 51.087891v5.71289 2.199219.134766c0 1.586839 1.278395 2.865234 2.865234 2.865234h38.269532c1.586839 0 2.865234-1.278395 2.865234-2.865234v-.134766-2.199219-5.71289z" fill-opacity=".588235" transform="translate(-56.391766 .176777)"/><g fill="#fff" transform="translate(.086963 -.698351)"><path d="m-30.840104 54.523073v-.808h.712v.808zm.712 5.152q0 .832-.264 1.136-.264.312-.776.312-.28 0-.552-.072l.136-.552q.272.048.328.048.144 0 .232-.08.088-.08.12-.24.04-.152.048-.272.016-.12.016-.304v-4.352h.712z"/><path d="m-27.618854 57.667073q-.4-.096-.632-.176-.232-.08-.48-.224-.248-.144-.36-.36-.112-.216-.112-.52 0-.2.064-.384.072-.192.232-.376.16-.192.472-.304.32-.12.752-.12.448 0 .768.096.32.088.496.264.176.176.264.36.088.184.128.44l-.696.088q-.096-.672-.912-.672-.856 0-.856.536 0 .24.184.352.184.112.688.248.072.016.264.072.2.048.264.072.072.016.24.072.168.048.232.08.072.032.2.096.136.064.192.12.056.056.136.144.08.088.112.184.04.088.064.208.032.12.032.256 0 .376-.176.648-.168.272-.44.416-.264.136-.528.192-.264.064-.52.064-1.536 0-1.776-1.336l.696-.112q.112.872 1.08.872.952 0 .952-.664 0-.072-.016-.128-.008-.064-.048-.112-.04-.048-.072-.08-.032-.04-.104-.072-.072-.04-.12-.056-.04-.024-.144-.048-.104-.032-.16-.048-.048-.016-.176-.04-.128-.032-.184-.048z"/><path d="m-22.426479 59.331073q-.4.208-.952.208-.552 0-.96-.208-.4-.208-.608-.544-.2-.344-.296-.696-.088-.352-.088-.72 0-.976.512-1.568.52-.6 1.44-.6.92 0 1.432.6.52.592.52 1.568 0 .368-.096.72-.088.352-.296.696-.2.336-.608.544zm-.04-3.112q-.32-.44-.912-.44-.592 0-.92.44-.32.432-.32 1.152 0 .288.056.552.064.264.192.512.136.24.384.384.256.144.608.144.352 0 .6-.144.256-.144.384-.384.136-.248.192-.512.064-.264.064-.552 0-.72-.328-1.152z"/><path d="m-20.605354 59.443073v-4.144h.704v.576q.32-.672 1.256-.672 1.408 0 1.408 1.504v2.736h-.712v-2.528q0-1.136-.856-1.136-1.088 0-1.088 1.392v2.272z"/></g><g fill-opacity=".784314"><path d="m-31.765136 38.081909q-1.84934 0-2.93013-1.08079-1.05676-1.08078-1.05676-2.88209v-4.10698q0-.98472-.50437-1.48909-.50437-.52838-1.27293-.52838v-1.82533q.76856 0 1.27293-.50436.50437-.52839.50437-1.5131v-4.10698q0-1.80131 1.05676-2.8821 1.08079-1.08078 2.93013-1.08078h.52838v1.82532h-.52838q-.84061 0-1.41703.60044-.5524.60044-.5524 1.60917v4.10698q0 2.18559-1.6572 2.81004v.0961q1.6572.57642 1.6572 2.81004v4.10699q0 1.00873.5524 1.60916.57642.60044 1.41703.60044h.52838v1.82533h-.52838z"/><path d="m-17.018406 38.08191h-.52838v-1.82533h.52838q.84061 0 1.39301-.60044.57642-.60043.57642-1.60916v-4.10699q0-2.23362 1.65721-2.81004v-.0961q-1.65721-.62445-1.65721-2.81004v-4.10698q0-1.00873-.57642-1.60917-.5524-.60044-1.39301-.60044h-.52838v-1.82532h.52838q1.84934 0 2.90611 1.08078 1.08079 1.08079 1.08079 2.8821v4.10698q0 .98471.50436 1.5131.50437.50436 1.27293.50436v1.82533q-.76856 0-1.27293.52838-.50436.50437-.50436 1.48909v4.10698q0 1.80131-1.08079 2.88209-1.05677 1.08079-2.90611 1.08079z"/><circle cx="-24.416041" cy="27.060911" r="1.25"/><circle cx="-18.416041" cy="27.060911" r="1.25"/><circle cx="-30.416041" cy="27.060911" r="1.25"/></g></g></svg>