<svg height="64" viewBox="0 0 64 64" width="64" xmlns="http://www.w3.org/2000/svg" xmlns:xlink="http://www.w3.org/1999/xlink"><linearGradient id="a" gradientTransform="matrix(1.0749904 0 0 1.0292896 56.688954 -.015285)" gradientUnits="userSpaceOnUse" x1="-74.929466" x2="-75.259552" y1="52.199436" y2="2.356489"><stop offset="0" stop-color="#309bd5"/><stop offset="1" stop-color="#1ab4fd"/></linearGradient><g transform="translate(56.391766 -.176777)"><rect fill="#154a65" height="7.69929" ry="2.5" width="44" x="-46.391766" y="54.477486"/><rect fill="url(#a)" height="52.831711" ry="2.5" width="44" x="-46.391766" y="1.645775"/><path d="m-46.391766 51.264462h44v7.911841h-44z" fill="#154a65"/><g fill="#fff" transform="matrix(.81954967 0 0 .81954967 -4.834378 10.121731)"><path d="m-32.471641 60.430805q-1.1 0-1.81-.74-.71-.75-.71-1.87 0-1.12.71-1.86.71-.75 1.81-.75.82 0 1.36.4.54.4.79 1.01l-.84.35q-.38-.92-1.37-.92-.61 0-1.08.5-.46.5-.46 1.27 0 .77.46 1.27.47.5 1.08.5 1.03 0 1.42-.92l.82.35q-.25.6-.81 1.01-.55.4-1.37.4z"/><path d="m-28.576797 53.110805v2.26l-.04.68h.04q.2-.35.63-.59.43-.25.92-.25.91 0 1.39.56.48.56.48 1.5v3h-.92v-2.86q0-1.36-1.21-1.36-.57 0-.93.46-.36.45-.36 1.05v2.71h-.92v-7.16z"/><path d="m-22.575703 60.430805q-.78 0-1.31-.45-.52-.45-.52-1.19 0-.8.62-1.25.62-.46 1.53-.46.81 0 1.33.3v-.14q0-.54-.37-.86-.37-.33-.91-.33-.4 0-.73.19-.32.19-.44.52l-.84-.36q.17-.44.67-.81.5-.38 1.32-.38.94 0 1.56.55.62.55.62 1.55v2.96h-.88v-.68h-.04q-.55.84-1.61.84zm.15-.84q.57 0 1.03-.42.47-.43.47-1.01-.39-.32-1.17-.32-.67 0-1.01.29-.34.29-.34.68 0 .36.31.57.31.21.71.21z"/><path d="m-13.088516 60.350805q-.77 0-1.18-.41-.4-.41-.4-1.16v-2.57h-.86v-.84h.86v-1.5h.92v1.5h1.2v.84h-1.2v2.5q0 .8.66.8.25 0 .42-.08l.32.79q-.3.13-.74.13zm-5.04-4.98v.8h.04q.16-.43.59-.67.44-.25.96-.25.15 0 .33.02v.9q-.19-.02-.37-.02-.66 0-1.09.39-.42.38-.42 1.05v2.68h-.92v-4.9z"/></g><path d="m31.834 1.553c.306-.461.179-1.08-.282-1.386-.462-.305-1.08-.179-1.386.283l-3.699 5.599c-.154-.025-.307-.048-.467-.048-1.652 0-3 1.347-3 3 0 .318.063.619.155.907l-3.572 4.555c-.461-.288-1-.462-1.582-.462-1.613 0-2.924 1.283-2.988 2.88l-5.651 3.291c-.55-.706-1.399-1.171-2.362-1.171-1.654 0-3 1.347-3 3 0 .65.214 1.25.566 1.742l-4.402 6.709c-.303.463-.175 1.082.287 1.385.169.111.36.164.548.164.326 0 .646-.158.837-.451l4.375-6.666c.253.068.516.117.789.117 1.613 0 2.924-1.281 2.988-2.881l5.651-3.289c.549.707 1.398 1.17 2.361 1.17 1.654 0 3-1.346 3-3 0-.317-.062-.619-.153-.906l3.57-4.554c.461.287 1 .461 1.582.461 1.653 0 3-1.346 3-3 0-.767-.298-1.459-.771-1.99zm-24.834 21.448c-.552 0-1-.447-1-1 0-.551.448-1 1-1s1 .449 1 1c0 .553-.448 1-1 1zm11-5c-.552 0-1-.447-1-1 0-.551.448-1 1-1s1 .449 1 1c0 .553-.448 1-1 1zm8-8c-.552 0-1-.448-1-1 0-.551.448-1 1-1s1 .449 1 1c0 .552-.449 1-1 1zm-20 20c-.553 0-1 .449-1 1 0 .553.447 1 1 1s1-.447 1-1c0-.551-.446-1-1-1zm5 0c-.553 0-1 .449-1 1 0 .553.447 1 1 1s1-.447 1-1c0-.551-.446-1-1-1zm5 0c-.553 0-1 .449-1 1 0 .553.447 1 1 1s1-.447 1-1c0-.551-.446-1-1-1zm5 0c-.553 0-1 .449-1 1 0 .553.447 1 1 1 .554 0 1-.447 1-1 0-.551-.446-1-1-1zm5 0c-.553 0-1 .449-1 1 0 .553.447 1 1 1 .554 0 1-.447 1-1 0-.551-.446-1-1-1zm5 0c-.553 0-1 .449-1 1 0 .553.447 1 1 1 .554 0 1-.447 1-1 0-.551-.446-1-1-1zm-30-3c .553 0 1-.447 1-1 0-.551-.447-1-1-1s-1 .449-1 1c0 .553.447 1 1 1zm0-5c .553 0 1-.447 1-1 0-.551-.447-1-1-1s-1 .449-1 1c0 .553.447 1 1 1zm0-5c .553 0 1-.447 1-1 0-.551-.447-1-1-1s-1 .448-1 1c0 .553.447 1 1 1zm0-5c .553 0 1-.446 1-1 0-.552-.447-1-1-1s-1 .448-1 1c0 .555.447 1 1 1zm0-5c .553 0 1-.446 1-1 0-.552-.447-1-1-1s-1 .448-1 1c0 .555.447 1 1 1zm0-5c .553 0 1-.446 1-1 0-.552-.447-1-1-1s-1 .448-1 1c0 .555.447 1 1 1z" fill="#fff" transform="matrix(.68747662 0 0 .68747662 -35.391597 16.288935)"/></g></svg>