<svg height="64" viewBox="0 0 64 64" width="64" xmlns="http://www.w3.org/2000/svg" xmlns:xlink="http://www.w3.org/1999/xlink"><linearGradient id="a" gradientUnits="userSpaceOnUse" x1="30.601029" x2="31.877571" y1="62.523117" y2="1.97774"><stop offset="0" stop-color="#197cf1"/><stop offset="1" stop-color="#20bcfa"/></linearGradient><rect fill="url(#a)" height="60.531002" ry="2.864331" width="44" x="10" y="1.734499"/><path d="m10.000002 51.353392v5.71289 2.199219.5c0 1.385 1.115 2.5 2.5 2.5h38.999998c1.385 0 2.5-1.115 2.5-2.5v-.5-2.199219-5.71289z" fill="#0b3969"/><path d="m23.957035 19c-.52985 0-.957031.464509-.957031 1.042969v15.912109c0 .57846.427181 1.044922.957031 1.044922h16.085935c.52985 0 .95703-.466462.95703-1.044922v-15.912109c0-.57846-.42718-1.042969-.95703-1.042969zm10.181641 6.431641 3.861328 5.136718h-12l3-3.849609 2.138672 2.574219z" fill="#0b3969"/></svg>