<svg xmlns="http://www.w3.org/2000/svg" height="64" width="64"><linearGradient id="a" gradientTransform="matrix(1.07499 0 0 1.17929 56.689 -.257)" gradientUnits="userSpaceOnUse" x1="-74.929" x2="-75.26" y1="52.199" y2="2.356"><stop offset="0" stop-color="#c8ab37"/><stop offset="1" stop-color="#ffd42a"/></linearGradient><g transform="translate(56.392 -.177)"><rect height="60.531" ry="2.864" width="44" x="-46.392" y="1.646" fill="url(#a)"/><path d="M-46.392 51.265v8.047a2.86 2.86 0 0 0 2.865 2.865h38.27a2.86 2.86 0 0 0 2.865-2.865v-8.047z" fill-opacity=".588"/><path d="M-24.416 27.06l5.586-10.47h2.636l-6.99 12.82v8.12h-2.464v-8.006l-6.975-12.933h2.664z" fill-opacity=".784"/><g fill="#fff"><path d="M-24.411 58.633v-4.016h.72v.557h.034q.172-.287.524-.483.36-.205.713-.205.934 0 1.27.77.492-.77 1.402-.77.713 0 1.073.459.361.45.361 1.23v2.458h-.754v-2.344q0-.607-.221-.86-.221-.255-.672-.255-.443 0-.738.377-.287.377-.287.86v2.222h-.754v-2.344q0-.607-.22-.86-.222-.255-.673-.255-.443 0-.738.377-.286.377-.286.86v2.222zM-27.292 58.764q-.64 0-1.074-.369-.426-.369-.426-.975 0-.656.508-1.025.509-.377 1.254-.377.664 0 1.09.246v-.114q0-.443-.303-.705-.303-.27-.746-.27-.327 0-.598.155-.262.156-.36.426l-.689-.295q.14-.36.55-.664.409-.311 1.08-.311.771 0 1.28.45.508.451.508 1.27v2.427h-.722v-.558h-.032q-.451.689-1.32.689zm.123-.689q.467 0 .844-.344.385-.352.385-.827-.32-.263-.959-.263-.549 0-.827.238-.279.238-.279.557 0 .295.254.467.254.172.582.172zM-16.709 58.745h-.754v-5.868h.754zM-31.097 59.8h-.713l.855-1.852-1.515-3.442h.75l1.095 2.64h.015l1.065-2.64h.75z"/></g></g></svg>