<svg height="64" viewBox="0 0 64 64" width="64" xmlns="http://www.w3.org/2000/svg" xmlns:xlink="http://www.w3.org/1999/xlink"><linearGradient id="a" gradientTransform="matrix(1.0749904 0 0 1.0292896 56.688954 -.015285)" gradientUnits="userSpaceOnUse" x1="-74.929466" x2="-75.259552" y1="52.199436" y2="2.356489"><stop offset="0" stop-color="#8798a9"/><stop offset="1" stop-color="#aeb6be"/></linearGradient><g transform="translate(56.391766 -.176777)"><rect fill="#3d434a" height="7.69929" ry="2.5" width="44" x="-46.391766" y="54.477486"/><rect fill="url(#a)" height="52.831711" ry="2.5" width="44" x="-46.391766" y="1.645775"/><path d="m-46.391766 51.264462h44v7.911841h-44z" fill="#3d434a"/><g fill="#fff" transform="matrix(.81954967 0 0 .81954967 -4.334283 11.021831)"><path d="m-28.026896 59.454537-.82-.42 3.17-5.7h-3.46l.02-.88h4.41v.94z" fill="#fff"/><path d="m-23.982521 59.294537v-.8l2.79-3.26h-2.71v-.84h3.84v.8l-2.79 3.26h2.83v.84z" fill="#fff"/></g><g transform="matrix(.550000420695 0 0 .550000420695 -249.006223012622 -260.912332799023)"><rect fill="#3d434a" height="39.999969" ry="1.999996" width="36" x="390.57144" y="503.798"/><g fill="#fff"><g><rect height="2" opacity=".929" ry=".888648" width="4" x="406.643184" y="504.90935"/><rect height="2" opacity=".929" ry=".888648" width="4" x="406.634814" y="507.80199"/><rect height="2" opacity=".929" ry=".888648" width="4" x="406.609734" y="510.65978"/><rect height="2" opacity=".929" ry=".888648" width="4" x="406.653554" y="513.63469"/><rect height="2" opacity=".929" ry=".888648" width="4" x="406.653554" y="516.55742"/></g><rect height="2" opacity=".929" ry=".888648" width="4" x="406.6535" y="519.54907"/><path d="m410.11783 524.47214v-1.26212c0-.35164-.28416-.63683-.63453-.63683h-1.76295c-.35037 0-.6346.28526-.6346.63683v1.2615l-.98056 2.89118c-.27435.80579-.14271 1.70105.35164 2.39489.49436.69257 1.29597 1.10622 2.14496 1.10622.84916 0 1.65084-.41365 2.14519-1.10622.49435-.69384.62583-1.5891.35156-2.39426zm-.40955 4.53977c-.50867.71448-1.70431.71448-2.21306 0-.25497-.35792-.32285-.8196-.18195-1.23564l.32909-.96974h1.91878l.32918.97037c.14096.41541.0729.87709-.18204 1.23501z"/></g></g></g></svg>