<svg height="64" viewBox="0 0 64 64" width="64" xmlns="http://www.w3.org/2000/svg" xmlns:xlink="http://www.w3.org/1999/xlink"><linearGradient id="a" gradientTransform="matrix(1.0749904 0 0 1.0292896 56.688954 -.015285)" gradientUnits="userSpaceOnUse" x1="-74.929466" x2="-75.259552" y1="52.199436" y2="2.356489"><stop offset="0" stop-color="#f4a01c"/><stop offset="1" stop-color="#fac632"/></linearGradient><g transform="translate(56.391766 -.176777)"><rect fill="#6b470d" height="7.69929" ry="2.5" width="44" x="-46.391766" y="54.477486"/><rect fill="url(#a)" height="52.831711" ry="2.5" width="44" x="-46.391766" y="1.645775"/><path d="m-46.391766 51.264462h44v7.911841h-44z" fill="#6b470d"/><g fill="#fff" transform="matrix(.81954967 0 0 .81954967 -4.334287 10.321731)"><g fill="#fff"><path d="m-35.94394 59.454537q-.56 0-1.01-.24-.44-.24-.66-.6h-.04l.04.68v2.16h-.92v-7.06h.88v.68h.04q.22-.36.66-.6.45-.24 1.01-.24.95 0 1.64.75.69.75.69 1.86 0 1.11-.69 1.86-.69.75-1.64.75zm-.15-.84q.64 0 1.1-.48.46-.49.46-1.29 0-.8-.46-1.28-.46-.49-1.1-.49-.65 0-1.11.48-.45.48-.45 1.29 0 .81.45 1.29.46.48 1.11.48z"/><path d="m-31.656596 61.454537h-.95l1.14-2.47-2.02-4.59h1l1.46 3.52h.02l1.42-3.52h1z"/><path d="m-25.866127 59.374537q-.77 0-1.18-.41-.4-.41-.4-1.16v-2.57h-.86v-.84h.86v-1.5h.92v1.5h1.2v.84h-1.2v2.5q0 .8.66.8.25 0 .42-.08l.32.79q-.3.13-.74.13z"/><path d="m-23.472377 52.134537v2.26l-.04.68h.04q.2-.35.63-.59.43-.25.92-.25.91 0 1.39.56.48.56.48 1.5v3h-.92v-2.86q0-1.36-1.21-1.36-.57 0-.93.46-.36.45-.36 1.05v2.71h-.92v-7.16z"/><path d="m-18.53269 54.984537q.71-.75 1.81-.75 1.1 0 1.81.75.71.74.71 1.86 0 1.12-.71 1.87-.71.74-1.81.74-1.1 0-1.81-.74-.71-.75-.71-1.87 0-1.12.71-1.86zm.68 3.15q.48.48 1.13.48.65 0 1.12-.48.48-.49.48-1.29 0-.8-.48-1.28-.47-.49-1.12-.49-.65 0-1.13.49-.47.48-.47 1.28 0 .8.47 1.29z"/><path d="m-12.574877 54.394537v.68h.04q.2-.35.63-.59.43-.25.92-.25.91 0 1.3899997.56.48.56.48 1.5v3h-.9199997v-2.86q0-1.36-1.21-1.36-.57 0-.93.46-.36.45-.36 1.05v2.71h-.92v-4.9z"/></g><path d="m75.623397 16.694814c-1.886114 0-3.404538 1.518424-3.404538 3.404538v2.269691h5.674229v1.134846h-5.674229-2.269692c-2.514818 0-4.539383 2.024565-4.539383 4.539384v2.269691c0 2.514819 2.024565 4.539384 4.539383 4.539384v-2.269692c0-2.08943 1.405155-3.822825 3.320311-4.355415.166643-.04635.33748-.08205.509794-.113042.232462-.03642.466278-.07093.709279-.07093h4.539383 3.659434c.541527-.602464.87995-1.392119.87995-2.269692v-5.674229c0-1.886114-1.518424-3.404538-3.404538-3.404538zm10.213612 6.809075v2.269692c0 2.08943-1.405154 3.822825-3.32031 4.355415-.166643.04635-.337481.08205-.509794.113042-.232462.03642-.466278.07093-.709279.07093h-4.539383-3.659435c-.541527.602464-.879949 1.392119-.879949 2.269692v5.674229c0 1.886114 1.518424 3.404538 3.404538 3.404538h4.539383c1.886114 0 3.404538-1.518424 3.404538-3.404538v-2.269691h-5.67423v-1.134846h5.67423 2.269691c2.514819 0 4.539384-2.024565 4.539384-4.539384v-2.269691c0-2.514819-2.024565-4.539384-4.539384-4.539388z" fill="#6b470d" transform="matrix(1.075196151503 0 0 1.075196151503 -108.224139928619 -10.805972810795)"/></g></g></svg>