<svg height="64" viewBox="0 0 64 64" width="64" xmlns="http://www.w3.org/2000/svg" xmlns:xlink="http://www.w3.org/1999/xlink"><linearGradient id="a" gradientTransform="matrix(1.0749904 0 0 1.0292896 56.688954 -.015285)" gradientUnits="userSpaceOnUse" x1="-74.929466" x2="-75.259552" y1="52.199436" y2="2.356489"><stop offset="0" stop-color="#197cf1"/><stop offset="1" stop-color="#20bcfa"/></linearGradient><g transform="translate(56.391766 -.176777)"><rect fill="#0b3969" height="7.69929" ry="2.5" width="44" x="-46.391766" y="54.477486"/><rect fill="url(#a)" height="52.831711" ry="2.5" width="44" x="-46.391766" y="1.645775"/><path d="m-46.391766 51.264462h44v7.911841h-44z" fill="#0b3969"/><g fill="#fff" transform="matrix(.81954967 0 0 .81954967 -4.634288 10.721775)"><path d="m-29.855332 59.454537q-.95 0-1.64-.75-.69-.75-.69-1.86 0-1.11.69-1.86.69-.75 1.64-.75.56 0 1 .24.45.24.67.6h.04l-.04-.68v-2.26h.92v7.16h-.88v-.68h-.04q-.22.36-.67.6-.44.24-1 .24zm.15-.84q.65 0 1.1-.48.46-.48.46-1.29 0-.81-.46-1.29-.45-.48-1.1-.48-.64 0-1.1.49-.46.48-.46 1.28 0 .8.46 1.29.46.48 1.1.48z"/><path d="m-25.772207 54.984537q.71-.75 1.81-.75 1.1 0 1.81.75.71.74.71 1.86 0 1.12-.71 1.87-.71.74-1.81.74-1.1 0-1.81-.74-.71-.75-.71-1.87 0-1.12.71-1.86zm.68 3.15q.48.48 1.13.48.65 0 1.12-.48.48-.49.48-1.29 0-.8-.48-1.28-.47-.49-1.12-.49-.65 0-1.13.49-.47.48-.47 1.28 0 .8.47 1.29z"/><path d="m-18.356738 59.454537q-1.1 0-1.81-.74-.71-.75-.71-1.87 0-1.12.71-1.86.71-.75 1.81-.75.82 0 1.36.4.54.4.79 1.01l-.84.35q-.38-.92-1.37-.92-.61 0-1.08.5-.46.5-.46 1.27 0 .77.46 1.27.47.5 1.08.5 1.03 0 1.42-.92l.82.35q-.25.6-.81 1.01-.55.4-1.37.4z"/></g><g transform="matrix(.86557708693 0 0 .86557708693 -43.839835132721 -859.68183310948)"><path d="m11.447345 1036.9442h11.636697l-.000321-24.4983-11.533282.0003c-1.268259-.094-1.7825661.023-1.7825661 1.1721v22.0916c-.07966 1.261.4462081 1.2343 1.6794721 1.2343z" fill="#0b3969" fill-rule="evenodd"/><path d="m33.843953 1036.9367h-5.282394l-2.708421-2.2737v-19.9506l1.855796-2.2737h6.135019c.848365-.094.916631.023.916631 1.1721v22.0916c.05328 1.261-.09168 1.2343-.916631 1.2343z" fill="none" stroke="#0b3969" stroke-width=".811708"/><path d="m31.841628 1038.1035-10.029586-1.1715-.00002-24.4861 9.945926-.9324c1.230149-.094 1.296492.2446 1.296492 1.3937l-.08368 23.3688c.07726 1.261.06707 1.8275-1.129132 1.8275z" fill="#0b3969" fill-rule="evenodd"/><g fill="#1d9df6"><rect height="2.230492" rx="0" ry=".312" width="11.898284" x="15.751422" y="1018.794492"/><rect height="2.230492" rx="0" ry=".312" width="11.898284" x="15.763586" y="1022.102492"/><rect height="2.230492" rx="0" ry=".312" width="11.898284" x="15.78151" y="1025.245192"/><rect height="2.230492" rx="0" ry=".312" width="11.898284" x="15.757503" y="1028.506292"/></g></g></g></svg>