<svg height="64" viewBox="0 0 64 64" width="64" xmlns="http://www.w3.org/2000/svg" xmlns:xlink="http://www.w3.org/1999/xlink"><linearGradient id="a" gradientTransform="matrix(1.0749904 0 0 1.3326655 113.08072 -.416023)" gradientUnits="userSpaceOnUse" x1="-74.929466" x2="-75.259552" y1="46.82893" y2="2.356489"><stop offset="0" stop-color="#ff5722"/><stop offset="1" stop-color="#ff7b51"/></linearGradient><path d="m13.236328 1.734375c-1.793219 0-3.236328 1.4431091-3.236328 3.2363281v46.3828129 8.412109c0 .6925.278594 1.317656.730469 1.769531s1.077031.730469 1.769531.730469h39c .6925 0 1.317656-.278594 1.769531-.730469s.730469-1.077031.730469-1.769531v-8.412109-46.3828129c0-1.793219-1.443109-3.2363281-3.236328-3.2363281z" fill="url(#a)" stroke-width="1.137868"/><path d="m54 51.353516h-44v8.412109c0 .6925.278594 1.317656.730469 1.769531s1.077031.730469 1.769531.730469h39c .6925 0 1.317656-.278594 1.769531-.730469s.730469-1.077031.730469-1.769531z" fill-opacity=".470588" stroke-width="1.137868"/><g fill="#fff" transform="matrix(.81954967 0 0 .81954967 52.057483 10.255431)"><path d="m-31.149042 53.164537q-.19.19-.46.19-.27 0-.46-.19-.19-.19-.19-.46 0-.27.19-.46.19-.19.46-.19.27 0 .46.19.19.19.19.46 0 .27-.19.46zm-1.47 8.39q-.27 0-.54-.1l.24-.8q.13.06.27.06.58 0 .58-.76v-5.56h.92v5.56q0 .81-.39 1.2-.39.4-1.08.4z"/><path d="m-28.450604 59.454537q-.78 0-1.31-.45-.52-.45-.52-1.19 0-.8.62-1.25.62-.46 1.53-.46.81 0 1.33.3v-.14q0-.54-.37-.86-.37-.33-.91-.33-.4 0-.73.19-.32.19-.44.52l-.84-.36q.17-.44.67-.81.5-.38 1.32-.38.94 0 1.56.55.62.55.62 1.55v2.96h-.88v-.68h-.04q-.55.84-1.61.84zm.15-.84q.57 0 1.03-.42.47-.43.47-1.01-.39-.32-1.17-.32-.67 0-1.01.29-.34.29-.34.68 0 .36.31.57.31.21.71.21z"/><path d="m-23.521073 59.294537-1.98-4.9h1l1.44 3.8h.02l1.46-3.8h.98l-2 4.9z"/><path d="m-18.54826 59.454537q-.78 0-1.31-.45-.52-.45-.52-1.19 0-.8.62-1.25.62-.46 1.53-.46.81 0 1.33.3v-.14q0-.54-.37-.86-.37-.33-.91-.33-.4 0-.73.19-.32.19-.44.52l-.84-.36q.17-.44.67-.81.5-.38 1.32-.38.94 0 1.56.55.62.55.62 1.55v2.96h-.88v-.68h-.04q-.55.84-1.61.84zm.15-.84q.57 0 1.03-.42.47-.43.47-1.01-.39-.32-1.17-.32-.67 0-1.01.29-.34.29-.34.68 0 .36.31.57.31.21.71.21z"/></g><path d="m31.140625 29.046874c.752244 0 .63969.02399 1.296875.05664.207023-.460553.313826-1.018803.125-1.628907-.990121-.05044-1.010452-.0625-1.421875-.0625v.000002c-.176618.000005-.314053.01972-.620305.02539.367796.533065.718873 1.065807.959359 1.609501m-2.62264-1.589969c-2.987705.106358-7.855774.579411-7.857039 2.75586 0 3.111862 1.334381 5.903901 3.435547 7.820312-1.949629.520494-3.427735 1.353932-3.427735 2.646485 0 2.686472 6.372494 3.402343 10.138672 3.402343 3.76597 0 10.140625-.715871 10.140625-3.402343 0-1.292553-1.480167-2.125991-3.429687-2.646485.409731-.373491.795687-.774369 1.142578-1.210937.04637.000797.08985.002.15625.002.903273 0 3.140722-.160962 4.416016-1.65625 1.633024-1.915298 1.902637-4.276432.615234-5.375-.414861-.353847-.951764-.541016-1.552734-.541016-.486852 0-1.006629.129509-1.521485.359375-.693404-1.233945-3.030576-1.769381-5.541015-2.007812-.240307.601871-.683133 1.113094-1.144532 1.541015 2.972332.204439 4.375739.699504 5.033204 1.06836-.845751.474077-3.692492 1.166015-8.320313 1.166015-4.628858 0-7.476419-.691938-8.322266-1.166015.845891-.474513 3.084025-1.122946 7.724602-1.165938-.589002-.584989-1.158048-1.069528-1.685922-1.589969zm13.777727 3.429688c.209793 0 .375504.05108.492187.15039.498044.424047.260935 1.827309-.798828 3.070313-.553221.647596-1.487723.906795-2.226563 1.011719.585012-1.129735.973341-2.381631 1.121094-3.708985.533772-.355887 1.044997-.523437 1.41211-.523437zm-6.083985 8.513672c1.987058.41316 3.010954.979641 3.103516 1.261718-.156306.508789-2.916731 1.78711-8.507813 1.78711-5.591334 0-8.35023-1.277876-8.505859-1.751953.09262-.302934 1.115148-.878271 3.101563-1.294922-.03437.101782-.05859.208462-.05859.324218 0 1.492124 2.970404 1.804688 5.46289 1.804688 2.491364 0 5.462891-.312562 5.462891-1.804688 0-.116388-.02434-.223429-.05859-.326171z" fill-opacity=".666667" stroke-width="1.090909"/><path d="m32.786571 26.473094c1.762145 2.028791-.462988 3.854449-.462988 3.854449s4.474394-2.309813 2.419505-5.202248c-1.919197-2.697376-3.390969-4.037597 4.576596-8.658504 0 0-12.506455 3.123538-6.533113 10.006303" fill-opacity=".470588" stroke-width=".098466"/><path d="m34.743088 9.0052406s3.795859 3.7971424-3.600212 9.6360704c-5.930899 4.68383-1.352428 7.354419-.0028 10.405682-3.461963-3.123534-6.002585-5.873197-4.298132-8.432325 2.501723-3.756572 9.432341-5.577897 7.9008-11.6094274" fill-opacity=".470588" stroke-width=".098466"/></svg>