<svg height="64" viewBox="0 0 64 64" width="64" xmlns="http://www.w3.org/2000/svg" xmlns:xlink="http://www.w3.org/1999/xlink">
  <linearGradient id="a" gradientTransform="matrix(1.0749904 0 0 1.0292896 113.08072 -.192062)" gradientUnits="userSpaceOnUse" x1="-74.929466" x2="-75.259552" y1="52.199436" y2="2.356489">
    <stop offset="0" stop-color="#a04c9b" />
    <stop offset="1" stop-color="#d663cc" />
  </linearGradient>
  <rect fill="#472244" height="7.69929" ry="2.5" width="44" x="10" y="54.300709" />
  <rect fill="url(#a)" height="52.831711" ry="2.5" width="44" x="10" y="1.468998" />
  <path d="m10 51.087685h44v7.911841h-44z" fill="#472244" />
  <path d="m40.901133 18.965328c-2.354007-1.912258-5.479633-2.965324-8.801045-2.965324-3.321471 0-6.447102 1.053139-8.801046 2.965324-2.37448 1.92886-3.682166 4.499518-3.682166 7.238523 0 2.614204 1.192001 5.074634 3.36497 6.970368-.03919.08796-.07028.180508-.09013.277811l-.714006 3.505673c-.08489.416633.02923.665068.139746.800203.127812.156082.317259.242098.533494.242098.163259 0 .338724-.04808.521558-.142954l4.152938-2.153547c1.437821.461952 2.983567.704181 4.57456.704181 3.321485 0 6.447033-1.05312 8.801055-2.965305 2.374407-1.928801 3.682093-4.499464 3.682093-7.238464 0-2.739069-1.307623-5.309727-3.68203-7.238587z" fill="#472244" stroke-width=".487593" />
  <g fill="#fff" stroke-width=".81955" transform="translate(9.180244 11.382588)">
    <path d="m27.007981 46.529441h-.753986v-4.015793h.721204v.65564h.03278q.114737-.32782.467143-.540903.360602-.213083.696618-.213083.336015 0 .565489.09835l-.286843.704813q-.147519-.05737-.401579-.05737-.409775 0-.729399.32782-.311429.319624-.311429.844136z" />
    <path d="m18.967548 46.660569q-.901505 0-1.483385-.606467-.58188-.614662-.58188-1.532557 0-.917896.58188-1.524363.58188-.614662 1.483385-.614662.672031 0 1.114588.32782.442556.32782.647444.827745l-.688422.286842q-.311429-.753985-1.122783-.753985-.499925 0-.885114.409774-.376992.409775-.376992 1.040829 0 .631053.376992 1.040828.385189.409774.885114.409774.844136 0 1.163761-.753985l.67203.286842q-.204887.49173-.663835.827745-.450752.32782-1.122783.32782z" opacity=".95" />
    <path d="m23.63134 46.660569q-.458948 0-.827745-.196692-.360602-.196692-.540903-.49173h-.03278v.557294h-.721204v-5.867976h.753986v1.852182l-.03278.557294h.03278q.180301-.295038.540903-.49173.368797-.196692.827745-.196692.778572 0 1.344061.614663.56549.614662.56549 1.524362 0 .9097-.56549 1.524362-.565489.614663-1.344061.614663zm-.122932-.688422q.524511 0 .901504-.393384.376993-.401579.376993-1.057219 0-.65564-.376993-1.049024-.376993-.401579-.901504-.401579-.532708 0-.909701.393384-.368797.393384-.368797 1.057219 0 .663835.368797 1.057219.376993.393384.909701.393384z" opacity=".95" />
  </g>
</svg>
