<svg height="64" viewBox="0 0 64 64" width="64" xmlns="http://www.w3.org/2000/svg" xmlns:xlink="http://www.w3.org/1999/xlink"><linearGradient id="a" gradientTransform="matrix(1.0749904 0 0 1.1789657 56.688954 -.256831)" gradientUnits="userSpaceOnUse" x1="-74.929466" x2="-75.259552" y1="52.199436" y2="2.356489"><stop offset="0" stop-color="#0055d4"/><stop offset="1" stop-color="#1b92f4"/></linearGradient><g transform="translate(56.391766 -.176777)"><rect fill="url(#a)" height="60.514336" ry="2.863542" width="44" x="-46.391766" y="1.645775"/><path d="m-46.391766 51.264668v5.71289 2.199219.5c0 1.385 1.115 2.5 2.5 2.5h39c1.385 0 2.5-1.115 2.5-2.5v-.5-2.199219-5.71289z" fill-opacity=".666667"/><path d="m-20.013684 16.108533c-3.829615 0-6.925918 3.096302-6.925918 6.925918 0 .814817.162963 1.629633.407387 2.444449l-8.555551 8.555594v4.074082h4.074082v-2.444449h2.444449v-2.444449h2.44445l3.666652-3.666653c.733356.244424 1.548173.407387 2.444449.407387 3.829659 0 6.925919-3.096302 6.925919-6.925918s-3.09626-6.925961-6.925919-6.925961zm2.037063 7.333348c-1.385209 0-2.444449-1.05924-2.444449-2.444449 0-1.38521 1.05924-2.44445 2.444449-2.44445s2.444449 1.05924 2.444449 2.44445c0 1.385209-1.05924 2.444449-2.444449 2.444449z" fill-opacity=".666667"/><g fill="#fff"><path d="m-38.043008 56.010387q-.153808-.02563-.333252-.02563-.666504 0-.904541.567627v2.8125h-.67749v-3.962403h.65918l.01099.457764q.333252-.531006.944824-.531006.197754 0 .300293.05127v.629882z"/><path d="m-35.853066 59.438122q-.805665 0-1.311036-.527344-.505371-.531006-.505371-1.417236v-.124512q0-.5896.223389-1.051025.227051-.465088.629883-.725098.406494-.263672.878906-.263672.772705 0 1.201172.509033.428467.509033.428467 1.45752v.281982h-2.684326q.01465.585938.340576.948487.32959.358886.834961.358886.358886 0 .60791-.146484.249023-.146484.435791-.388184l.413818.322266q-.498047.765381-1.49414.765381zm-.08423-3.552246q-.410156 0-.688477.300293-.27832.296631-.344238.834961h1.984863v-.05127q-.0293-.516357-.27832-.79834-.249023-.285644-.673828-.285644z"/><path d="m-32.264199 58.44569.981445-3.043213h.692139l-1.420899 3.962403h-.516357l-1.435547-3.962403h.692139z"/><path d="m-28.338418 59.438122q-.805664 0-1.311035-.527344-.505371-.531006-.505371-1.417236v-.124512q0-.5896.223388-1.051025.227051-.465088.629883-.725098.406494-.263672.878906-.263672.772706 0 1.201172.509033.428467.509033.428467 1.45752v.281982h-2.684326q.01465.585938.340576.948487.32959.358886.834961.358886.358887 0 .60791-.146484.249024-.146484.435791-.388184l.413819.322266q-.498047.765381-1.494141.765381zm-.08423-3.552246q-.410156 0-.688476.300293-.27832.296631-.344238.834961h1.984863v-.05127q-.0293-.516357-.27832-.79834-.249024-.285644-.673829-.285644z"/><path d="m-25.276895 59.36488h-.67749v-5.625h.67749z"/><path d="m-21.750283 59.36488q-.05859-.117188-.09521-.417481-.472412.490723-1.12793.490723-.585937 0-.963135-.32959-.373535-.333252-.373535-.842285 0-.618897.46875-.959473.472412-.344238 1.325684-.344238h.65918v-.311279q0-.355225-.212403-.563965-.212402-.212403-.62622-.212403-.362549 0-.607911.183106-.245361.183105-.245361.443115h-.681152q0-.296631.20874-.571289.212402-.27832.571289-.439453.362549-.161133.794678-.161133.684814 0 1.072998.344238.388183.340577.402832.941162v1.823731q0 .545654.13916.86792v.05859h-.710449zm-1.124268-.516358q.318604 0 .604248-.164795.285645-.164795.413819-.428467v-.812988h-.531006q-1.245117 0-1.245117.72876 0 .318603.212402.498047.212402.179443.545654.179443z"/><path d="m-19.190469 54.443005v.959472h.739746v.523682h-.739746v2.457275q0 .238037.09888.358887.09888.117188.336914.117188.117188 0 .322266-.04395v.549317q-.267334.07324-.52002.07324-.454101 0-.684814-.274658-.230713-.274659-.230713-.78003v-2.457275h-.721436v-.523682h.721436v-.959472h.67749z"/><path d="m-16.927285 59.36488h-.67749v-3.962403h.67749zm-.732422-5.013428q0-.164795.09888-.27832.102539-.113526.300293-.113526.197754 0 .300293.113526.102539.113525.102539.27832 0 .164795-.102539.274658-.102539.109863-.300293.109863-.197754 0-.300293-.109863-.09888-.109863-.09888-.274658z"/><path d="m-16.026406 57.347057q0-.582275.22705-1.047363.230713-.465088.637208-.717773.410156-.252686.933837-.252686.809327 0 1.307373.560303.501709.560303.501709 1.490478v.04761q0 .578613-.223388 1.040039-.219727.457763-.633545.714111-.410156.256348-.944824.256348-.805664 0-1.307373-.560303-.498047-.560303-.498047-1.483154zm.681152.08057q0 .659179.303955 1.058349.307617.39917.820313.39917.516357 0 .820312-.402832.303955-.406494.303955-1.135254 0-.651855-.311279-1.054687-.307617-.406494-.820313-.406494-.501709 0-.809326.39917-.307617.39917-.307617 1.142578z"/><path d="m-10.92875 55.402477.02197.498047q.454101-.571289 1.1865231-.571289 1.2561035 0 1.2670898 1.417236v2.618409h-.6774902v-2.622071q-.00366-.428467-.1977539-.633545-.1904297-.205078-.5969239-.205078-.3295899 0-.5786129.175781-.249024.175782-.388184.461426v2.823487h-.67749v-3.962403h.640869z"/></g></g></svg>