<svg height="64" viewBox="0 0 64 64" width="64" xmlns="http://www.w3.org/2000/svg" xmlns:xlink="http://www.w3.org/1999/xlink"><linearGradient id="a" gradientTransform="matrix(1.0749904 0 0 1.0292896 56.688954 -.015285)" gradientUnits="userSpaceOnUse" x1="-74.929466" x2="-75.259552" y1="52.199436" y2="2.356489"><stop offset="0" stop-color="#259ee1"/><stop offset="1" stop-color="#19b4fd"/></linearGradient><g transform="translate(56.391766 -.176777)"><rect fill="#104663" height="7.69929" ry="2.5" width="44" x="-46.391766" y="54.477486"/><rect fill="url(#a)" height="52.831711" ry="2.5" width="44" x="-46.391766" y="1.645775"/><path d="m-46.391766 51.264462h44v7.911841h-44z" fill="#104663"/><g fill="#fff" transform="matrix(.81954967 0 0 .81954967 -4.534283 10.221831)"><path d="m-35.95625 59.820313q-.95 0-1.64-.75-.69-.75-.69-1.86 0-1.11.69-1.86.69-.75 1.64-.75.56 0 1 .24.45.24.67.6h.04l-.04-.68v-2.26h.92v7.16h-.88v-.68h-.04q-.22.36-.67.6-.44.24-1 .24zm.15-.84q.65 0 1.1-.48.46-.48.46-1.29 0-.81-.46-1.29-.45-.48-1.1-.48-.64 0-1.1.49-.46.48-.46 1.28 0 .8.46 1.29.46.48 1.1.48z"/><path d="m-30.083125 59.820313q-1.11 0-1.81-.74-.69-.74-.69-1.87 0-1.07.67-1.84.68-.77 1.73-.77 1.09 0 1.74.71.66.71.66 1.9l-.01.17h-3.87q.04.74.49 1.17.46.43 1.07.43.99 0 1.34-.84l.82.34q-.24.57-.79.96-.55.38-1.35.38zm1.32-3.2q-.03-.42-.39-.8-.35-.38-1.05-.38-.51 0-.89.32-.37.32-.51.86z"/><path d="m-25.072969 59.820313q-.82 0-1.36-.4-.53-.4-.78-1l .82-.34q.39.92 1.33.92.43 0 .7-.19.28-.19.28-.5 0-.48-.67-.65l-.99-.24q-.47-.12-.89-.45-.42-.34-.42-.91 0-.65.57-1.05.58-.41 1.37-.41.65 0 1.16.3.51.29.73.84l-.8.33q-.27-.65-1.12-.65-.41 0-.69.17-.28.17-.28.46 0 .42.65.57l.97.23q.69.16 1.02.55.33.39.33.88 0 .66-.54 1.1-.54.44-1.39.44z"/><path d="m-21.400781 53.530313q-.19.19-.46.19-.27 0-.46-.19-.19-.19-.19-.46 0-.27.19-.46.19-.19.46-.19.27 0 .46.19.19.19.19.46 0 .27-.19.46zm0 6.13h-.92v-4.9h.92z"/><path d="m-18.122344 61.980313q-.87 0-1.42-.44-.55-.43-.79-.99l.84-.35q.14.4.51.67.38.27.86.27.76 0 1.19-.46.44-.45.44-1.23v-.47h-.04q-.24.36-.68.6-.44.24-.99.24-.95 0-1.64-.75-.69-.75-.69-1.86 0-1.11.69-1.86.69-.75 1.64-.75.55 0 .99.24.44.24.68.6h.04v-.68h.88v4.65q0 1.26-.73 1.91-.73.66-1.78.66zm.07-3q .65 0 1.1-.48.46-.48.46-1.29 0-.81-.46-1.29-.45-.48-1.1-.48-.64 0-1.1.49-.46.48-.46 1.28 0 .8.46 1.29.46.48 1.1.48z"/><path d="m-13.610625 54.760313v.68h.04q.2-.35.63-.59.43-.25.92-.25.91 0 1.39.56.48.56.48 1.5v3h-.92v-2.86q0-1.36-1.21-1.36-.57 0-.93.46-.36.45-.36 1.05v2.71h-.92v-4.9z"/></g><path d="m-24.342028 26.797389c.955083 0 .595894 1.129157 0 1.392176-1.000925.441785-2.025377-.432145-2.235231-1.392176-.316639-1.448616.846324-2.766698 2.235231-2.971045 1.814409-.266942 3.412333 1.198517 3.606056 2.971045.236447 2.163508-1.500506 4.040659-3.606056 4.226534-2.468776.217929-4.592749-1.79129-4.770185-4.226534-.202573-2.780261 2.046383-5.159302 4.770185-5.331054 3.051203-.192392 5.652326 2.306795 5.817586 5.331054.182516 3.339953-2.533571 6.179426-5.817586 6.34048-3.58697.175913-6.630086-2.775105-6.785958-6.34048-.168741-3.860033 2.981926-7.129452 6.785958-7.28209 4.08875-.164062 7.54732 3.210352 7.695652 7.28209.158485 4.350229-3.401861 8.025985-7.695652 8.171763-4.564173.154972-8.4172-3.620581-8.559315-8.171763-.150409-4.816701 3.799705-8.879774 8.559315-9.019823 5.018262-.147667 9.24856 4.010927 9.385419 9.019823.14381 5.263655-4.179683 9.698271-9.385419 9.833422-5.454565.141627-10.047697-4.384908-10.180023-9.833422-.138294-5.69415 4.544728-10.486901 10.180023-10.617818 5.875688-.136491 10.819292 4.745098 10.947662 10.617818.133565 6.110471-4.897058 11.249787-10.947662 11.376969-4.919654.103356-9.438976-3.109757-11.049738-7.7694" fill="#104563" fill-rule="evenodd"/></g></svg>