<svg height="64" viewBox="0 0 64 64" width="64" xmlns="http://www.w3.org/2000/svg" xmlns:xlink="http://www.w3.org/1999/xlink">
  <linearGradient id="a" gradientTransform="matrix(1.0749904 0 0 1.0292896 56.688954 -.015285)" gradientUnits="userSpaceOnUse" x1="-74.929466" x2="-75.259552" y1="52.199436" y2="2.356489">
    <stop offset="0" stop-color="#8798a9" />
    <stop offset="1" stop-color="#aeb6be" />
  </linearGradient>
  <g transform="translate(56.391766 -.176777)">
    <rect fill="url(#a)" height="52.831711" ry="2.5" width="44" x="-46.391766" y="1.645775" />
    <g fill="#3d434a">
      <rect height="7.69929" ry="2.5" width="44" x="-46.391766" y="54.477486" />
      <path d="m-46.391766 51.264462h44v7.911841h-44z" />
      <path d="m-28.789622 16.165528v2.195711h-7.706432v2.189278h12.290837c-.737759 2.123252-1.904488 4.138967-3.488694 5.89883-1.023201-1.132987-1.870145-2.376223-2.540935-3.685965h-2.195711c.80363 1.793896 1.902944 3.488231 3.278557 5.017544l-5.60078 5.521441 1.563158 1.561014 5.5-5.5 3.422222 3.422221.836257-2.247172-2.793957-2.763938.03217-.03217c1.91466-2.13423 3.280118-4.587852 4.082651-7.185378h3.222806v-2.195709h-7.706434v-2.195711zm9.357504 8.793565-4.951072 13.206431h2.195712l1.232943-3.304288h5.227679l1.243666 3.304288h2.195711l-4.948928-13.206431zm1.095711 2.941911 1.784016 4.764521h-3.565887z" fill-rule="evenodd" stroke-width="1.097856" />
    </g>
    <g fill="#fff">
      <path d="m-32.915203 58.792469q0 .839844-.5 1.296875-.5.460938-1.289063.460938-.328125 0-.804687-.160157-.476563-.160156-.761719-.574218l.378906-.429688q.265625.324219.554688.445313.289062.125.578125.125.511719 0 .816406-.289063.304688-.285156.304688-.839844v-.371093q-.429688.503906-1.183594.503906-.761719 0-1.210938-.609375-.449218-.609375-.449218-1.535156v-.08203q0-.96875.445312-1.5625.449219-.59375 1.222656-.59375.777344 0 1.207032.546875l.03516-.46875h.65625zm-2.84375-1.976562q0 .628906.261719 1.082031.265625.449219.851562.449219.386719 0 .625-.175782.242188-.175781.382813-.449218v-1.925782q-.136719-.261718-.378907-.433593-.242187-.175782-.621093-.175782-.589844 0-.855469.460938-.265625.457031-.265625 1.085937z" />
      <path d="m-28.465984 58.144032q-.207032.3125-.585938.566406-.378906.25-1.003906.25-.882813 0-1.414063-.574219-.527343-.574219-.527343-1.46875v-.164062q0-.691407.261718-1.175782.265625-.488281.6875-.742187.421875-.257813.898438-.257813.90625 0 1.320312.59375.417969.589844.417969 1.476563v.324219h-2.859375q.01563.582031.34375.992187.332031.40625.910156.40625.382813 0 .648438-.15625.265625-.15625.464844-.417969zm-1.683594-2.972657q-.429688 0-.726563.3125-.296875.3125-.371093.898438h2.113281v-.05469q-.02734-.421875-.246094-.789062-.214844-.367188-.769531-.367188z" />
      <path d="m-25.770672 58.882313q-.08594.02734-.226562.05078-.136719.02734-.332032.02734-.402343 0-.6875-.246094-.285156-.246094-.285156-.882812v-2.621094h-.773437v-.554683h.773437v-1.027343h.722656v1.027343h.789063v.554688h-.789063v2.625q0 .324219.140625.414062.140625.08984.324219.08984.08984 0 .1875-.01563.101563-.01953.152344-.03125z" />
      <path d="m-23.145672 58.882313q-.08594.02734-.226562.05078-.136719.02734-.332032.02734-.402343 0-.6875-.246094-.285156-.246094-.285156-.882812v-2.621094h-.773437v-.554683h.773437v-1.027343h.722656v1.027343h.789063v.554688h-.789063v2.625q0 .324219.140625.414062.140625.08984.324219.08984.08984 0 .1875-.01563.101563-.01953.152344-.03125z" />
      <path d="m-18.965984 58.144032q-.207032.3125-.585938.566406-.378906.25-1.003906.25-.882813 0-1.414063-.574219-.527343-.574219-.527343-1.46875v-.164062q0-.691407.261718-1.175782.265625-.488281.6875-.742187.421875-.257813.898438-.257813.90625 0 1.320312.59375.417969.589844.417969 1.476563v.324219h-2.859375q.01563.582031.34375.992187.332031.40625.910156.40625.382813 0 .648438-.15625.265625-.15625.464844-.417969zm-1.683594-2.972657q-.429688 0-.726563.3125-.296875.3125-.371093.898438h2.113281v-.05469q-.02734-.421875-.246094-.789062-.214844-.367188-.769531-.367188z" />
      <path d="m-17.571453 54.65575.925781 1.539063.9375-1.539063h.847656l-1.382812 2.085938 1.425781 2.140625h-.835937l-.976563-1.585938-.976562 1.585938h-.839844l1.421875-2.140625-1.378906-2.085938z" />
      <path d="m-12.301922 58.882313q-.08594.02734-.226562.05078-.136719.02734-.332032.02734-.402343 0-.6875-.246094-.285156-.246094-.285156-.882812v-2.621094h-.773437v-.554683h.773437v-1.027343h.722656v1.027343h.789063v.554688h-.789063v2.625q0 .324219.140625.414062.140625.08984.324219.08984.08984 0 .1875-.01563.101563-.01953.152344-.03125z" />
    </g>
  </g>
</svg>
