<svg height="64" viewBox="0 0 64 64" width="64" xmlns="http://www.w3.org/2000/svg" xmlns:xlink="http://www.w3.org/1999/xlink"><linearGradient id="a" gradientTransform="matrix(1.0749904 0 0 1.0292896 56.688954 -.015285)" gradientUnits="userSpaceOnUse" x1="-74.929466" x2="-75.259552" y1="52.199436" y2="2.356489"><stop offset="0" stop-color="#197cf1"/><stop offset="1" stop-color="#20bcfa"/></linearGradient><g transform="translate(56.391766 -.176777)"><rect fill="#0b3969" height="7.69929" ry="2.5" width="44" x="-46.391766" y="54.477486"/><rect fill="url(#a)" height="52.831711" ry="2.5" width="44" x="-46.391766" y="1.645775"/><path d="m-46.391766 51.264462h44v7.911841h-44z" fill="#0b3969"/><g fill="#fff" transform="matrix(.81954967 0 0 .81954967 -3.834285 10.221831)"><path d="m-30.785783 53.1927q.44 0 .74.13l-.32.79q-.16-.08-.42-.08-.36 0-.59.22-.23.21-.23.62v.62h1.28v.84h-1.28v4.06h-.92v-4.06h-.92v-.84h.92v-.65q0-.75.48-1.2.48-.45 1.26-.45z"/><path d="m-29.316877 56.0827q.71-.75 1.81-.75 1.1 0 1.81.75.71.74.71 1.86 0 1.12-.71 1.87-.71.74-1.81.74-1.1 0-1.81-.74-.71-.75-.71-1.87 0-1.12.71-1.86zm.68 3.15q.48.48 1.13.48.65 0 1.12-.48.48-.49.48-1.29 0-.8-.48-1.28-.47-.49-1.12-.49-.65 0-1.13.49-.47.48-.47 1.28 0 .8.47 1.29z"/><path d="m-23.359065 55.4927v.68h.04q.2-.35.63-.59.43-.25.92-.25.91 0 1.39.56.48.56.48 1.5v3h-.92v-2.86q0-1.36-1.21-1.36-.57 0-.93.46-.36.45-.36 1.05v2.71h-.92v-4.9z"/><path d="m-16.943283 60.4727q-.77 0-1.18-.41-.4-.41-.4-1.16v-2.57h-.86v-.84h.86v-1.5h.92v1.5h1.2v.84h-1.2v2.5q0 .8.66.8.25 0 .42-.08l.32.79q-.3.13-.74.13z"/></g><path d="m422.66629 552.97347q-3.73759 0-6.27723-2.1563-2.49173-2.1563-2.49173-5.70222 0-3.83342 2.97091-5.98972 2.9709-2.20422 7.33142-2.20422 3.88134 0 6.37307 1.43753v-.67085q0-2.58756-1.77296-4.12093-1.77296-1.58129-4.36052-1.58129-1.91671 0-3.498.91044-1.53337.91044-2.10838 2.49173l-4.0251-1.72504q.8146-2.10839 3.21049-3.88135 2.39589-1.82087 6.32515-1.82087 4.50428 0 7.47518 2.63548 2.9709 2.63548 2.9709 7.42726v14.18367h-4.21676v-3.25841h-.19167q-2.63548 4.02509-7.71477 4.02509zm.71877-4.02509q2.73131 0 4.93553-2.01255 2.25214-2.06047 2.25214-4.8397-1.8688-1.53337-5.60639-1.53337-3.21049 0-4.83969 1.38962-1.62921 1.38961-1.62921 3.25841 0 1.72504 1.48545 2.73131 1.48546 1.00628 3.40217 1.00628z" fill="#0b3969" transform="matrix(.87953947 0 0 .87953947 -397.647804 -447.510891)"/></g></svg>