<svg height="64" viewBox="0 0 64 64" width="64" xmlns="http://www.w3.org/2000/svg" xmlns:xlink="http://www.w3.org/1999/xlink"><linearGradient id="a" gradientTransform="matrix(1.0749904 0 0 1.0292896 56.688954 -.015285)" gradientUnits="userSpaceOnUse" x1="-74.929466" x2="-75.259552" y1="52.199436" y2="2.356489"><stop offset="0" stop-color="#f15f19"/><stop offset="1" stop-color="#fbb521"/></linearGradient><g transform="translate(56.391766 -.176777)"><rect fill="#222425" height="7.69929" ry="2.5" width="44" x="-46.391766" y="54.477486"/><rect fill="url(#a)" height="52.831711" ry="2.5" width="44" x="-46.391766" y="1.645775"/><path d="m-46.391766 51.264462h44v7.911841h-44z" fill="#222425"/><g fill="#fff" transform="matrix(.93906002 0 0 .93906002 -1.65684 3.642795)"><path d="m-34.848403 59.563798q-.47251 0-.852206-.202504-.371259-.202505-.556888-.506262h-.03375v.573763h-.742516v-6.041386h.776267v1.906918l-.03375.573763h.03375q.185629-.303757.556888-.506262.379696-.202504.852206-.202504.801581 0 1.383782.632827.5822.632826.5822 1.56941 0 .936584-.5822 1.56941-.582201.632827-1.383782.632827zm-.126565-.708766q.540012 0 .928146-.405009.388134-.413447.388134-1.088462 0-.675015-.388134-1.080024-.388134-.413447-.928146-.413447-.54845 0-.936584.405009-.379696.405009-.379696 1.088462 0 .683453.379696 1.088462.388134.405009.936584.405009z"/><path d="m-31.445377 59.428795h-.776267v-6.041386h.776267z"/><path d="m-28.68401 59.563798q-.936584 0-1.527222-.624389-.582201-.624389-.582201-1.577848 0-.902833.565325-1.552535.573763-.649702 1.459721-.649702.919708 0 1.468158.599076.556888.599076.556888 1.603161l-.0084.143441h-3.265386q.03375.624389.413446.98721.388134.36282.902833.36282.835332 0 1.130651-.708766l.69189.286882q-.202504.480948-.666577.810018-.464073.320632-1.139088.320632zm1.113775-2.700061q-.02531-.354383-.32907-.675015-.295319-.320632-.885958-.320632-.430322 0-.750954.270006-.312195.270006-.430322.725641z"/><path d="m-25.299178 55.294327v.573763h.03375q.168754-.295319.531575-.497824.362821-.210942.776267-.210942.76783 0 1.172839.47251.40501.472511.40501 1.265654v2.531307h-.776268v-2.413179q0-1.147526-1.020961-1.147526-.480948 0-.784705.388134-.303757.379696-.303757.885957v2.286614h-.776267v-4.134468z"/><path d="m-19.730566 59.563798q-.80158 0-1.383781-.632827-.582201-.632826-.582201-1.56941 0-.936584.582201-1.56941.582201-.632827 1.383781-.632827.472511 0 .843769.202504.379696.202505.565325.506262h.03375l-.03375-.573763v-1.906918h.776268v6.041386h-.742517v-.573763h-.03375q-.185629.303757-.565325.506262-.371258.202504-.843769.202504zm.126565-.708766q.54845 0 .928146-.405009.388134-.405009.388134-1.088462 0-.683453-.388134-1.088462-.379696-.405009-.928146-.405009-.540012 0-.928145.413447-.388134.405009-.388134 1.080024 0 .675015.388134 1.088462.388133.405009.928145.405009z"/><path d="m-14.775004 59.563798q-.936583 0-1.527222-.624389-.5822-.624389-.5822-1.577848 0-.902833.565325-1.552535.573763-.649702 1.45972-.649702.919709 0 1.468159.599076.556887.599076.556887 1.603161l-.0084.143441h-3.265386q.03375.624389.413447.98721.388134.36282.902833.36282.835331 0 1.13065-.708766l.691891.286882q-.202504.480948-.666577.810018-.464073.320632-1.139089.320632zm1.113775-2.700061q-.02531-.354383-.32907-.675015-.295319-.320632-.885957-.320632-.430322 0-.750955.270006-.312194.270006-.430322.725641z"/><path d="m-11.356422 59.428795h-.776267v-4.134468h.742517v.675015h.03375q.118128-.337508.480949-.556888.371258-.21938.717203-.21938.3459458 0 .5822012.101253l-.2953192.725641q-.151878-.05906-.413447-.05906-.421884 0-.750954.337508-.320633.32907-.320633.869082v2.261301z"/></g><g transform="matrix(.549632180841 0 0 .549632180841 -249.498025177998 -260.712105227674)"><path d="m407.44643 503.77261a3.0003 3.0003 0 0 0 -1.70508 5.40234l3.41016 2.62305h-16.58008a3.0003 3.0003 0 1 0 0 6h7.51953l-12.2832 8.92383a3.0003 3.0003 0 1 0 3.52539 4.85351l6.27734-4.56054a15.999973 15.999973 0 0 0 -.0391.7832 15.999973 15.999973 0 0 0 16 16 15.999973 15.999973 0 0 0 16-16 15.999973 15.999973 0 0 0 -6.95508-13.19727 3.0003 3.0003 0 0 0 -.21679-.18164l-13-10a3.0003 3.0003 0 0 0 -1.95313-.64648z" fill="#fff"/><circle cx="413.57144" cy="527.79797" fill="#f7921e" r="9.999989"/><circle cx="-413.57144" cy="-527.79797" fill="#fff" r="3.999988" transform="scale(-1)"/></g></g></svg>