<svg height="64" viewBox="0 0 64 64" width="64" xmlns="http://www.w3.org/2000/svg" xmlns:xlink="http://www.w3.org/1999/xlink">
  <linearGradient id="a" gradientTransform="matrix(1.0749904 0 0 1.0292896 113.08072 -.192062)" gradientUnits="userSpaceOnUse" x1="-74.929466" x2="-75.259552" y1="52.199436" y2="2.356489">
    <stop offset="0" stop-color="#d1d7df" />
    <stop offset="1" stop-color="#e0e5e7" />
  </linearGradient>
  <rect fill="#3d434a" height="7.69929" ry="2.5" width="44" x="10" y="54.300709" />
  <rect fill="url(#a)" height="52.831711" ry="2.5" width="44" x="10" y="1.468998" />
  <path d="m10 51.087685h44v7.911841h-44z" fill="#3d434a" />
  <g fill="#fff" transform="matrix(.81954967 0 0 .81954967 52.057483 10.544998)">
    <path d="m-27.215356 59.416779h-1.08l-1.21-1.81-1.19 1.81h-1.08l1.73-2.49-1.69-2.41h1.04l1.21 1.73 1.15-1.73h1.08l-1.71 2.41z" />
    <path d="m-26.568794 59.416779v-4.9h.88v.68h.04q.21-.35.64-.59.44-.25.87-.25 1.14 0 1.55.94.6-.94 1.71-.94.87 0 1.31.56.44.55.44 1.5v3h-.92v-2.86q0-.74-.27-1.05-.27-.31-.82-.31-.54 0-.9.46-.35.46-.35 1.05v2.71h-.92v-2.86q0-.74-.27-1.05-.27-.31-.82-.31-.54 0-.9.46-.35.46-.35 1.05v2.71z" />
    <path d="m-17.133169 59.416779h-.92v-7.16h.92z" />
  </g>
  <path d="m32.923902 28.196479h.107079c.04687-.01084.08726-.01623.121143-.01623 1.314367 0 2.394199.4633 3.239135 1.389902.845118.915784 1.267677 1.982997 1.267677 3.203437 0 1.516096-.627169 2.749159-1.881684 3.699195-.328637.257785-.757685.470507-1.287146.632752.06003.762554.09013 1.379089.09013 1.847796 0 .09374-.01226.434458-.03677 1.022141-.04687 1.092453-.422378 2.037084-1.126703 2.833888-.679627.787791-1.524744 1.180783-2.53499 1.180783-.950217 0-1.75946-.335309-2.428091-1.002315-.670434-.681431-1.00556-1.50347-1.00556-2.466126 0-.504762.194333-.933812.583002-1.287143.398221-.349732.86098-.526399 1.388819-.526399.469429 0 .862784.182078 1.180063.546224.328637.340718.493045.762556.493045 1.267318 0 .457894-.164408.849084-.493045 1.178981-.328456.328097-.721991.492142-1.180063.492142-.187844 0-.369019-.03424-.543701-.104557.51648.762555 1.202777 1.144733 2.059072 1.144733.809242 0 1.472104-.329897 1.988584-.986091.540817-.679629.834662-1.472823.881713-2.377789.02253-.564255.03371-.88514.03371-.966266 0-.657995-.02344-1.197006-.07031-1.618844-.585885.09374-1.107954.140611-1.566207.140611-1.631827 0-3.02245-.647174-4.171686-1.937928-1.126703-1.303367-1.690054-2.853714-1.690054-4.647422 0-.37677.03479-.757145.10438-1.144731.07122-.317279.159541-.663401.26464-1.038369.05822-.212722.216868-.553437.4761-1.023947.09393-.140612.199561-.315477.316918-.528199.117358-.210918.199562-.351531.246432-.420034.116457-.234355.344502-.551635.684496-.951839.09393-.10636.191089-.221735.2915-.351531.100409-.127995.185861-.234354.256348-.31728.07049-.08113.122946-.14602.157738-.192891.03479-.04687.299072-.358744.792838-.933812.116456-.117176.230568-.243367.342338-.378571.111769-.133403.202807-.239763.273113-.315477.07049-.07752.123486-.133403.15918-.167655-.422559-1.397111-.6872-2.511194-.79428-3.345856-.08076-.668811-.121144-1.584595-.121144-2.74555 0-1.022145.234716-1.979392.704145-2.871739.456451-.924799 1.095697-1.681943 1.91828-2.269631.04687-.03606.105099-.05408.174683-.05408.08257 0 .141694.01803.177389.05408.632756.762552 1.17844 1.754051 1.636513 2.974496.469429 1.220444.704144 2.330923.704144 3.329632 0 1.126703-.269328 2.1831-.808343 3.169189-.610222 1.043777-1.397109 2.12361-2.360487 3.239497.246072.773369.574709 1.986602.985912 3.641504m1.495718 8.187972c.610223-.223537 1.086323-.603913 1.428119-1.142926.375506-.517384.563352-1.097863.563352-1.743236 0-.834661-.281767-1.573776-.845118-2.220955-.576511-.667008-1.310761-1.043777-2.20257-1.126702.505124 2.476939.857197 4.555484 1.056217 6.233819m-6.810874-4.066944c0 1.162758.46943 2.183097 1.408289 3.064628.961574.856296 2.041225 1.283542 3.239316 1.283542.491964 0 .97275-.03424 1.44218-.10636-.187843-1.784696-.557763-3.919123-1.109758-6.408684-.66863.07211-1.201876.306463-1.599918.704865-.388848.411022-.583181.874321-.583181 1.391704 0 .892346.476099 1.613433 1.428119 2.165074.08076.08292.121143.171256.121143.264996s-.04039.182076-.121143.263201c-.07139.08113-.159541.122586-.264821.122586-.01117 0-.06382-.01084-.157739-.03247-.670252-.364146-1.186733-.83466-1.54908-1.409729-.341797-.611124-.512695-1.227653-.512695-1.849593 0-.809423.25256-1.543133.757684-2.201126.527658-.656193 1.213955-1.07803 2.059073-1.267315-.328636-1.314186-.598144-2.341741-.808342-3.080857-.187844.212722-.413726.466905-.677464.766157-.263918.299253-.419313.477724-.466185.537213-.422559.551633-.745607.978879-.968964 1.285343-.400025.551633-.693869 1.027552-.881713 1.425954-.199021.445274-.374606.933812-.526756 1.460208-.15197.506565-.228045 1.045579-.228045 1.620649m5.878512-17.902856c-.880632.432653-1.572698 1.054593-2.076019 1.864015-.5163.834663-.77445 1.730616-.77445 2.69327 0 .84548.211098 1.982999.633656 3.416164.845119-1.022145 1.478776-1.966772 1.901336-2.833883.445092-.915784.667547-1.87303.667547-2.869937 0-.751737-.117356-1.507078-.35207-2.269629" stroke-width=".180272" />
</svg>
