<?xml version="1.0" encoding="UTF-8" standalone="no"?>
<!-- Created with Inkscape (http://www.inkscape.org/) -->

<svg
   xmlns:dc="http://purl.org/dc/elements/1.1/"
   xmlns:cc="http://creativecommons.org/ns#"
   xmlns:rdf="http://www.w3.org/1999/02/22-rdf-syntax-ns#"
   xmlns:svg="http://www.w3.org/2000/svg"
   xmlns="http://www.w3.org/2000/svg"
   xmlns:xlink="http://www.w3.org/1999/xlink"
   xmlns:sodipodi="http://sodipodi.sourceforge.net/DTD/sodipodi-0.dtd"
   xmlns:inkscape="http://www.inkscape.org/namespaces/inkscape"
   width="64"
   height="64"
   viewBox="0 0 64 64.000001"
   id="svg2"
   version="1.1"
   inkscape:version="0.91 r13725"
   sodipodi:docname="application-x-solus-package.svg"
   inkscape:export-filename="/tmp/eopkg.png"
   inkscape:export-xdpi="180"
   inkscape:export-ydpi="180">
  <defs
     id="defs4">
    <linearGradient
       inkscape:collect="always"
       xlink:href="#linearGradient3652"
       id="linearGradient4182"
       x1="-74.996246"
       y1="2.0640645"
       x2="-74.861557"
       y2="52.94212"
       gradientUnits="userSpaceOnUse"
       gradientTransform="matrix(1.0749904,0,0,1.1792904,113.08072,987.92807)" />
    <linearGradient
       id="linearGradient3652"
       inkscape:collect="always">
      <stop
         id="stop3654"
         offset="0"
         style="stop-color:#5293e0;stop-opacity:1;" />
      <stop
         id="stop3656"
         offset="1"
         style="stop-color:#2c5aa0;stop-opacity:1" />
    </linearGradient>
    <linearGradient
       gradientUnits="userSpaceOnUse"
       y2="517.79797"
       x2="399.57144"
       y1="545.79797"
       x1="399.57144"
       id="linearGradient3426-2"
       xlink:href="#linearGradient4232"
       inkscape:collect="always"
       gradientTransform="matrix(1.6609885,0,0,1.6609885,-697.53667,134.04294)" />
    <linearGradient
       id="linearGradient4232">
      <stop
         id="stop4234-0"
         offset="0"
         style="stop-color:#3889e9;stop-opacity:1" />
      <stop
         id="stop4236"
         offset="1"
         style="stop-color:#5ea5fb;stop-opacity:1" />
    </linearGradient>
    <linearGradient
       gradientUnits="userSpaceOnUse"
       y2="517.79797"
       x2="399.57144"
       y1="545.79797"
       x1="399.57144"
       id="linearGradient3426"
       xlink:href="#linearGradient4232"
       inkscape:collect="always"
       gradientTransform="matrix(1.6609885,0,0,1.6609885,-811.25472,176.54671)" />
    <linearGradient
       gradientTransform="matrix(1.6609885,0,0,1.6609885,-651.96902,135.65387)"
       inkscape:collect="always"
       xlink:href="#linearGradient4232"
       id="linearGradient3426-6"
       x1="399.57144"
       y1="545.79797"
       x2="399.57144"
       y2="517.79797"
       gradientUnits="userSpaceOnUse" />
  </defs>
  <sodipodi:namedview
     id="base"
     pagecolor="#dcdcdc"
     bordercolor="#666666"
     borderopacity="1.0"
     inkscape:pageopacity="0"
     inkscape:pageshadow="2"
     inkscape:zoom="3.959798"
     inkscape:cx="2.5736123"
     inkscape:cy="23.833208"
     inkscape:document-units="px"
     inkscape:current-layer="layer1"
     showgrid="false"
     units="px" />
  <metadata
     id="metadata7">
    <rdf:RDF>
      <cc:Work
         rdf:about="">
        <dc:format>image/svg+xml</dc:format>
        <dc:type
           rdf:resource="http://purl.org/dc/dcmitype/StillImage" />
        <dc:title></dc:title>
      </cc:Work>
    </rdf:RDF>
  </metadata>
  <g
     inkscape:label="Layer 1"
     inkscape:groupmode="layer"
     id="layer1"
     transform="translate(0,-988.3622)">
    <rect
       ry="2.864331"
       y="989.83118"
       x="10"
       height="60.531002"
       width="44"
       id="rect4174"
       style="opacity:1;fill:url(#linearGradient4182);fill-opacity:1;stroke:none;stroke-width:0.30000001;stroke-linecap:round;stroke-linejoin:round;stroke-miterlimit:4;stroke-dasharray:none;stroke-dashoffset:0;stroke-opacity:1" />
    <path
       inkscape:connector-curvature="0"
       style="opacity:1;fill:#000000;fill-opacity:0.47058824;stroke:none;stroke-width:0.185;stroke-linecap:round;stroke-linejoin:round;stroke-miterlimit:4;stroke-dasharray:none;stroke-dashoffset:0;stroke-opacity:1"
       d="m 10,1039.4501 0,5.7129 0,2.1992 0,0.5 c 0,1.385 1.115,2.5 2.5,2.5 l 39,0 c 1.385,0 2.5,-1.115 2.5,-2.5 l 0,-0.5 0,-2.1992 0,-5.7129 -44,0 z"
       id="rect4162" />
    <g
       id="g3514"
       transform="translate(56.391766,987.18542)">
      <path
         d="m -31.590496,57.39748 0,0.32959 -3.098145,0 q 0.04395,0.695801 0.417481,1.062012 0.377197,0.362548 1.047363,0.362548 0.388184,0 0.750733,-0.09521 0.366211,-0.09521 0.725097,-0.285645 l 0,0.637207 q -0.362549,0.153809 -0.743408,0.234375 -0.380859,0.08057 -0.772705,0.08057 -0.981445,0 -1.556397,-0.571289 -0.571289,-0.571289 -0.571289,-1.54541 0,-1.00708 0.541993,-1.596679 0.545654,-0.593262 1.468505,-0.593262 0.827637,0 1.307373,0.534668 0.483399,0.531006 0.483399,1.446533 z m -0.673828,-0.197754 q -0.0073,-0.552978 -0.311279,-0.882568 -0.300293,-0.32959 -0.79834,-0.32959 -0.563965,0 -0.904541,0.318603 -0.336914,0.318604 -0.388184,0.897217 l 2.402344,-0.0037 z"
         style="font-style:normal;font-variant:normal;font-weight:normal;font-stretch:normal;font-size:7.5px;line-height:125%;font-family:'DejaVu Sans';-inkscape-font-specification:'DejaVu Sans';text-align:start;letter-spacing:0px;word-spacing:0px;text-anchor:start;fill:#ffffff;fill-opacity:1;stroke:none;stroke-width:1px;stroke-linecap:butt;stroke-linejoin:miter;stroke-opacity:1"
         id="path3499"
         inkscape:connector-curvature="0" />
      <path
         d="m -28.895184,55.987568 q -0.541992,0 -0.856933,0.424805 -0.314942,0.421142 -0.314942,1.157226 0,0.736084 0.31128,1.160889 0.314941,0.421142 0.860595,0.421142 0.538331,0 0.853272,-0.424804 0.314941,-0.424805 0.314941,-1.157227 0,-0.72876 -0.314941,-1.153564 -0.314941,-0.428467 -0.853272,-0.428467 z m 0,-0.571289 q 0.878907,0 1.380616,0.571289 0.501709,0.571289 0.501709,1.582031 0,1.00708 -0.501709,1.582031 -0.501709,0.571289 -1.380616,0.571289 -0.882568,0 -1.384277,-0.571289 -0.498047,-0.574951 -0.498047,-1.582031 0,-1.010742 0.498047,-1.582031 0.501709,-0.571289 1.384277,-0.571289 z"
         style="font-style:normal;font-variant:normal;font-weight:normal;font-stretch:normal;font-size:7.5px;line-height:125%;font-family:'DejaVu Sans';-inkscape-font-specification:'DejaVu Sans';text-align:start;letter-spacing:0px;word-spacing:0px;text-anchor:start;fill:#ffffff;fill-opacity:1;stroke:none;stroke-width:1px;stroke-linecap:butt;stroke-linejoin:miter;stroke-opacity:1"
         id="path3501"
         inkscape:connector-curvature="0" />
      <path
         d="m -25.247723,59.001484 0,2.175293 -0.67749,0 0,-5.661621 0.67749,0 0,0.622558 q 0.212403,-0.366211 0.534668,-0.541992 0.325928,-0.179443 0.776368,-0.179443 0.74707,0 1.212158,0.593262 0.46875,0.593261 0.46875,1.560058 0,0.966797 -0.46875,1.560059 -0.465088,0.593261 -1.212158,0.593261 -0.45044,0 -0.776368,-0.175781 -0.322265,-0.179443 -0.534668,-0.545654 z m 2.292481,-1.431885 q 0,-0.743408 -0.307617,-1.164551 -0.303955,-0.424804 -0.838623,-0.424804 -0.534668,0 -0.842286,0.424804 -0.303955,0.421143 -0.303955,1.164551 0,0.743408 0.303955,1.168213 0.307618,0.421143 0.842286,0.421143 0.534668,0 0.838623,-0.421143 0.307617,-0.424805 0.307617,-1.168213 z"
         style="font-style:normal;font-variant:normal;font-weight:normal;font-stretch:normal;font-size:7.5px;line-height:125%;font-family:'DejaVu Sans';-inkscape-font-specification:'DejaVu Sans';text-align:start;letter-spacing:0px;word-spacing:0px;text-anchor:start;fill:#ffffff;fill-opacity:1;stroke:none;stroke-width:1px;stroke-linecap:butt;stroke-linejoin:miter;stroke-opacity:1"
         id="path3503"
         inkscape:connector-curvature="0" />
      <path
         d="m -21.164471,53.918476 0.677491,0 0,3.365479 2.010498,-1.768799 0.860595,0 -2.175293,1.918945 2.266846,2.182617 -0.878906,0 -2.08374,-2.003174 0,2.003174 -0.677491,0 0,-5.698242 z"
         style="font-style:normal;font-variant:normal;font-weight:normal;font-stretch:normal;font-size:7.5px;line-height:125%;font-family:'DejaVu Sans';-inkscape-font-specification:'DejaVu Sans';text-align:start;letter-spacing:0px;word-spacing:0px;text-anchor:start;fill:#ffffff;fill-opacity:1;stroke:none;stroke-width:1px;stroke-linecap:butt;stroke-linejoin:miter;stroke-opacity:1"
         id="path3505"
         inkscape:connector-curvature="0" />
      <path
         d="m -14.089275,57.51833 q 0,-0.732422 -0.303955,-1.135254 -0.300293,-0.402832 -0.845948,-0.402832 -0.541992,0 -0.845947,0.402832 -0.300293,0.402832 -0.300293,1.135254 0,0.728759 0.300293,1.131591 0.303955,0.402832 0.845947,0.402832 0.545655,0 0.845948,-0.402832 0.303955,-0.402832 0.303955,-1.131591 z m 0.673828,1.589355 q 0,1.047363 -0.465088,1.556397 -0.465088,0.512695 -1.424561,0.512695 -0.355224,0 -0.670166,-0.05493 -0.314941,-0.05127 -0.611572,-0.161133 l 0,-0.655517 q 0.296631,0.161133 0.585938,0.238037 0.289306,0.0769 0.589599,0.0769 0.662842,0 0.992432,-0.3479 0.32959,-0.344238 0.32959,-1.043701 l 0,-0.333252 q -0.208741,0.362549 -0.534668,0.541992 -0.325928,0.179443 -0.78003,0.179443 -0.754394,0 -1.21582,-0.574951 -0.461426,-0.574951 -0.461426,-1.523437 0,-0.952149 0.461426,-1.5271 0.461426,-0.574951 1.21582,-0.574951 0.454102,0 0.78003,0.179443 0.325927,0.179444 0.534668,0.541992 l 0,-0.622558 0.673828,0 0,3.592529 z"
         style="font-style:normal;font-variant:normal;font-weight:normal;font-stretch:normal;font-size:7.5px;line-height:125%;font-family:'DejaVu Sans';-inkscape-font-specification:'DejaVu Sans';text-align:start;letter-spacing:0px;word-spacing:0px;text-anchor:start;fill:#ffffff;fill-opacity:1;stroke:none;stroke-width:1px;stroke-linecap:butt;stroke-linejoin:miter;stroke-opacity:1"
         id="path3507"
         inkscape:connector-curvature="0" />
    </g>
    <circle
       style="opacity:1;fill:url(#linearGradient3426-2);fill-opacity:1;stroke:none;stroke-width:1.29989684;stroke-miterlimit:4;stroke-dasharray:none;stroke-dashoffset:0;stroke-opacity:1"
       id="ellipse4233-6"
       cx="-32.192219"
       cy="1017.3531"
       r="0" />
    <path
       style="opacity:1;fill:#000000;fill-opacity:0.47058824;stroke:none;stroke-width:0.94059104;stroke-miterlimit:4;stroke-dasharray:none;stroke-dashoffset:0;stroke-opacity:1"
       d="m 27.919211,1004.3624 c 0.02604,-0.01 0.205457,0.2485 0.398677,0.5716 0.193219,0.3232 0.68765,1.0942 1.098481,1.7124 0.836574,1.2589 1.491494,2.2968 1.859784,2.9466 l 0.247052,0.4347 0.09331,1.2152 c 0.05099,0.6682 0.21275,2.924 0.359445,5.013 0.215425,3.0681 0.254562,3.8059 0.204639,3.8374 -0.034,0.021 -0.07273,0.04 -0.08589,0.035 -0.01315,0 -0.723827,-0.077 -1.578801,-0.1644 -5.947536,-0.6108 -7.133736,-0.7583 -8.226946,-1.0242 -0.43406,-0.1056 -0.83677,-0.2038 -0.89596,-0.2174 -0.0592,-0.013 -0.10815,-0.052 -0.10815,-0.086 0,-0.034 0.30834,-0.6095 0.68496,-1.2788 3.115,-5.5356 4.78556,-9.1248 5.671596,-12.1829 0.126856,-0.4378 0.251764,-0.8035 0.2778,-0.8122 z m 4.578419,6.1319 c 0.01337,-0.01 0.03728,0.01 0.06998,0.023 0.194083,0.1039 1.45975,1.2771 2.278607,2.1122 1.881223,1.9186 3.244295,3.7314 4.200948,5.5868 0.286369,0.5554 0.368393,0.7548 0.332938,0.8111 -0.06708,0.1063 -0.944026,0.4632 -1.611672,0.6563 -0.671258,0.1941 -1.421598,0.3324 -2.182118,0.4008 l 0,-0.01 c -0.708999,0.067 -2.376462,0.068 -2.415386,0.01 -0.01605,-0.026 0.0383,-0.2574 0.120875,-0.5142 0.83122,-2.5853 0.615889,-5.6557 -0.596954,-8.4952 -0.184057,-0.431 -0.237326,-0.5701 -0.197218,-0.5831 z m 3.528712,2.1386 c 0.06845,-0.018 0.342868,0.052 0.849308,0.2068 1.813538,0.5512 3.02968,1.0186 4.110822,1.5819 0.933072,0.4863 2.013528,1.2301 2.013528,1.3848 0,0.038 -0.06878,0.1827 -0.152684,0.3213 -0.515367,0.8508 -1.287743,1.665 -2.070785,2.1821 -0.284604,0.188 -0.536767,0.3414 -0.559844,0.3414 -0.0666,0 -0.07848,-0.082 -0.10285,-0.7168 -0.0267,-0.6951 -0.136744,-1.1655 -0.413521,-1.7569 -0.511634,-1.0933 -1.449839,-2.0087 -3.290142,-3.2116 -0.314937,-0.2059 -0.452277,-0.3144 -0.383832,-0.333 z m 6.297181,6.5517 c 0.03056,0.084 -0.699996,1.4921 -1.030621,1.987 -1.466541,2.1952 -3.562957,3.8114 -5.969546,4.6017 -1.446659,0.4752 -2.722092,0.6458 -4.280471,0.5726 -2.268069,-0.1066 -4.48445,-0.9328 -6.43396,-2.3994 -0.45023,-0.3388 -1.69756,-1.5754 -1.69756,-1.6828 0,-0.052 0.0321,-0.067 0.10709,-0.052 0.0592,0.013 0.50577,0.045 0.99245,0.073 0.48668,0.028 1.01486,0.061 1.17271,0.073 0.15784,0.012 1.03455,0.046 1.948846,0.073 3.009491,0.09 6.057809,-0.083 8.118795,-0.4612 2.377068,-0.4358 4.585152,-1.2816 6.529389,-2.5013 0.289376,-0.1815 0.53368,-0.3095 0.542878,-0.2842 z"
       id="path3377"
       inkscape:connector-curvature="0"
       sodipodi:nodetypes="ccccccscccccsccccccssccccccccccccsccssccccccccscscccccc" />
    <circle
       style="opacity:1;fill:url(#linearGradient3426);fill-opacity:1;stroke:none;stroke-width:1.29989684;stroke-miterlimit:4;stroke-dasharray:none;stroke-dashoffset:0;stroke-opacity:1"
       id="ellipse4233"
       cx="-145.91026"
       cy="1059.8569"
       r="0" />
    <circle
       style="opacity:1;fill:url(#linearGradient3426-6);fill-opacity:1;stroke:none;stroke-width:1.29989684;stroke-miterlimit:4;stroke-dasharray:none;stroke-dashoffset:0;stroke-opacity:1"
       id="ellipse4233-0"
       cx="13.375435"
       cy="1018.9641"
       r="0" />
  </g>
</svg>
