<svg height="64" viewBox="0 0 64 64" width="64" xmlns="http://www.w3.org/2000/svg" xmlns:xlink="http://www.w3.org/1999/xlink"><linearGradient id="a" gradientTransform="matrix(1.0749904 0 0 1.0292896 56.688954 -.015285)" gradientUnits="userSpaceOnUse" x1="-74.929466" x2="-75.259552" y1="52.199436" y2="2.356489"><stop offset="0" stop-color="#e67940"/><stop offset="1" stop-color="#ffa482"/></linearGradient><g transform="translate(56.391766 -.176777)"><rect fill="#62341d" height="7.69929" ry="2.5" width="44" x="-46.391766" y="54.477486"/><rect fill="url(#a)" height="52.831711" ry="2.5" width="44" x="-46.391766" y="1.645775"/><path d="m-46.391766 51.264462h44v7.911841h-44z" fill="#61331c"/><g fill="#fff" transform="matrix(.81954967 0 0 .81954967 -4.334283 10.721775)"><g fill="#fff"><path d="m-31.149042 53.164537q-.19.19-.46.19-.27 0-.46-.19-.19-.19-.19-.46 0-.27.19-.46.19-.19.46-.19.27 0 .46.19.19.19.19.46 0 .27-.19.46zm-1.47 8.39q-.27 0-.54-.1l.24-.8q.13.06.27.06.58 0 .58-.76v-5.56h.92v5.56q0 .81-.39 1.2-.39.4-1.08.4z"/><path d="m-28.450604 59.454537q-.78 0-1.31-.45-.52-.45-.52-1.19 0-.8.62-1.25.62-.46 1.53-.46.81 0 1.33.3v-.14q0-.54-.37-.86-.37-.33-.91-.33-.4 0-.73.19-.32.19-.44.52l-.84-.36q.17-.44.67-.81.5-.38 1.32-.38.94 0 1.56.55.62.55.62 1.55v2.96h-.88v-.68h-.04q-.55.84-1.61.84zm.15-.84q.57 0 1.03-.42.47-.43.47-1.01-.39-.32-1.17-.32-.67 0-1.01.29-.34.29-.34.68 0 .36.31.57.31.21.71.21z"/><path d="m-23.521073 59.294537-1.98-4.9h1l1.44 3.8h.02l1.46-3.8h.98l-2 4.9z"/><path d="m-18.54826 59.454537q-.78 0-1.31-.45-.52-.45-.52-1.19 0-.8.62-1.25.62-.46 1.53-.46.81 0 1.33.3v-.14q0-.54-.37-.86-.37-.33-.91-.33-.4 0-.73.19-.32.19-.44.52l-.84-.36q.17-.44.67-.81.5-.38 1.32-.38.94 0 1.56.55.62.55.62 1.55v2.96h-.88v-.68h-.04q-.55.84-1.61.84zm.15-.84q.57 0 1.03-.42.47-.43.47-1.01-.39-.32-1.17-.32-.67 0-1.01.29-.34.29-.34.68 0 .36.31.57.31.21.71.21z"/></g><path d="m348.74142 544.28726c.0425.00073.0812.002.14207.002.828 0 2.87925-.148 4.04827-1.51868 1.49694-1.75569 1.7442-3.91961.56408-4.92663-.38029-.32436-.87261-.49562-1.4235-.49562-.44628 0-.92172.11921-1.39367.32992-1.07382-1.91091-7.71705-2.01653-9.14282-2.01653-1.55242.00004-9.29376.1238-9.29518 2.56666v.0004.0004.00041c0 2.85254 1.22392 5.41092 3.14999 7.16763-1.78716.47712-3.1434 1.24117-3.1434 2.42601 0 2.4626 5.84282 3.11995 9.29515 3.11995 3.45214 0 9.29433-.65735 9.29433-3.11995 0-1.18484-1.35633-1.94889-3.14339-2.42601.37592-.34267.72987-.70981 1.04807-1.11041zm3.78149-5.30299c.45654.38871.2407 1.67529-.73075 2.81471-.50712.59363-1.36449.8321-2.04176.92828.53626-1.03559.89168-2.18362 1.02712-3.40036.48929-.32623.95835-.47976 1.29487-.47976.19231 0 .34356.0461.45052.13713zm-10.98714-1.82374c4.24212 0 6.85171.63413 7.62702 1.0691-.77527.43457-3.38485 1.0687-7.62702 1.0687-4.24312 0-6.85247-.63413-7.62783-1.0687.7754-.43497 3.38471-1.0691 7.62783-1.0691zm7.80484 10.64688c-.14328.46639-2.67304 1.63786-7.7982 1.63786-5.12539 0-7.65582-1.17147-7.79848-1.60604.0849-.27769 1.02285-.80393 2.84373-1.18586-.0315.0933-.0529.19052-.0529.29663 0 1.36778 2.72282 1.65475 5.0076 1.65475 2.28375 0 5.00657-.28697 5.00657-1.65475 0-.10669-.0218-.20473-.0532-.29891 1.82147.37873 2.76004.89775 2.84489 1.15632z" fill="#61331c" transform="matrix(1.4420334 0 0 1.4420334 -516.835646131941 -760.853902346177)"/></g></g></svg>