<svg height="64" viewBox="0 0 64 64" width="64" xmlns="http://www.w3.org/2000/svg" xmlns:xlink="http://www.w3.org/1999/xlink"><linearGradient id="a" gradientTransform="matrix(1.0749904 0 0 1.1792904 113.08072 -.168631)" gradientUnits="userSpaceOnUse" x1="-74.929466" x2="-75.259552" y1="52.199436" y2="2.356489"><stop offset="0" stop-color="#259ee1"/><stop offset="1" stop-color="#19b4fd"/></linearGradient><rect fill="url(#a)" height="60.531002" ry="2.864331" width="44" x="10" y="1.734499"/><path d="m10 51.353392v5.71289 2.199219.5c0 1.385 1.115 2.5 2.5 2.5h39c1.385 0 2.5-1.115 2.5-2.5v-.5-2.199219-5.71289z" fill="#104563"/><path d="m32.44 22.746927c-3.08-2.915001-5.61-2.101001-6.699-1.606001.825-.792 1.793-1.43 2.871-1.87 3.058-.11 6.501.484 8.404 3.201001 0 0 2.684 4.609 3.63 2.574.242.825.374 1.683.374 2.585 0 .33-.022.649-.055.968-2.233-.253-5.302-2.816-8.525-5.852m7.37 9.394c-1.034.407-2.31 1.1-4.356 1.1-2.068 0-3.883-.825-6.138-1.54-2.046-.649-2.816-1.65-4.224-1.65-.726 0-1.089.726-1.287 1.331-.528-1.144-.825-2.409-.825-3.751 0-.891.132-1.738.374-2.552 1.386-1.738 3.509-2.816 6.545-.462 0 0 6.853 5.126 10.769 5.467-.198.726-.495 1.397-.858 2.057m-7.81 4.51c-1.232 0-2.409-.253-3.487-.704-.682-1.628-.671-2.904 1.232-2.266 0 0 4.312 1.65 8.855.088-1.65 1.771-3.993 2.882-6.6 2.882m0-20.020001a11 11 0 0 0 -11 11.000001 11 11 0 0 0 11 11 11 11 0 0 0 11-11c0-6.083001-4.95-11.000001-11-11.000001z" fill="#104563" stroke-width="1.1"/><g fill="#fff" transform="matrix(.74035987 0 0 .74035987 52.211822 27.83816)"><path d="m-36.461455 43.18344q-1.145833 0-1.864583-.75-.71875-.755208-.71875-2.015625v-.177084q0-.838541.317708-1.494791.322917-.661459.895833-1.03125.578125-.375 1.25-.375 1.098959 0 1.708334.723958.609375.723958.609375 2.072917v.401041h-3.817709q.02083.833334.484375 1.348959.46875.510417 1.1875.510417.510417 0 .864584-.208334.354166-.208333.619791-.552083l.588542.458333q-.708333 1.088542-2.125 1.088542zm-.119792-5.052084q-.583333 0-.979166.427084-.395834.421875-.489584 1.1875h2.822917v-.07292q-.04167-.734375-.395833-1.135417-.354167-.40625-.958334-.40625z"/><path d="m-29.674996 43.079273q-.08333-.166666-.135417-.59375-.671875.697917-1.604167.697917-.833333 0-1.369792-.46875-.53125-.473958-.53125-1.197917 0-.880208.666667-1.364583.671875-.489584 1.885417-.489584h.9375v-.442708q0-.505208-.302083-.802083-.302084-.302084-.890625-.302084-.515625 0-.864584.260417-.348958.260417-.348958.630208h-.96875q0-.421875.296875-.8125.302083-.395833.8125-.625.515625-.229166 1.130208-.229166.973959 0 1.526042.489583.552083.484375.572917 1.338542v2.59375q0 .776042.197916 1.234375v.08333zm-1.598959-.734375q.453125 0 .859375-.234375.40625-.234375.588542-.609375v-1.15625h-.755208q-1.770834 0-1.770834 1.036459 0 .453125.302084.708333.302083.255208.776041.255208z"/><path d="m-24.617704 38.30844q-.21875-.03646-.473959-.03646-.947916 0-1.286458.807292v4h-.963542v-5.635417h.9375l.01563.651042q.473959-.755208 1.34375-.755208.28125 0 .427084.07292z"/><path d="m-22.159371 36.079273v1.364583h1.052083v.744792h-1.052083v3.494792q0 .338542.140625.510417.140625.166666.479167.166666.166666 0 .458333-.0625v.78125q-.380208.104167-.739583.104167-.645834 0-.973959-.390625-.328125-.390625-.328125-1.109375v-3.494792h-1.026041v-.744792h1.026041v-1.364583z"/><path d="m-19.023955 38.126148q.640625-.786458 1.666667-.786458 1.786458 0 1.802083 2.015625v3.723958h-.963542v-3.729167q-.0052-.609375-.28125-.901041-.270833-.291667-.848958-.291667-.46875 0-.822917.25-.354166.25-.552083.65625v4.015625h-.963542v-8h .963542z"/></g></svg>