<?xml version="1.0" encoding="UTF-8" standalone="no"?>
<svg
   xmlns:dc="http://purl.org/dc/elements/1.1/"
   xmlns:cc="http://creativecommons.org/ns#"
   xmlns:rdf="http://www.w3.org/1999/02/22-rdf-syntax-ns#"
   xmlns:svg="http://www.w3.org/2000/svg"
   xmlns="http://www.w3.org/2000/svg"
   xmlns:sodipodi="http://sodipodi.sourceforge.net/DTD/sodipodi-0.dtd"
   xmlns:inkscape="http://www.inkscape.org/namespaces/inkscape"
   height="64"
   viewBox="0 0 64 64"
   width="64"
   version="1.1"
   id="svg53"
   sodipodi:docname="application-x-wine-extension-musx.svg"
   inkscape:version="0.92.4 (5da689c313, 2019-01-14)">
  <metadata
     id="metadata59">
    <rdf:RDF>
      <cc:Work
         rdf:about="">
        <dc:format>image/svg+xml</dc:format>
        <dc:type
           rdf:resource="http://purl.org/dc/dcmitype/StillImage" />
        <dc:title />
      </cc:Work>
    </rdf:RDF>
  </metadata>
  <defs
     id="defs57">
    <linearGradient
       id="paint0_linear"
       x1="239.48399"
       y1="-58.026699"
       x2="1107.04"
       y2="1029.03"
       gradientUnits="userSpaceOnUse"
       gradientTransform="matrix(0.18114468,0,0,-0.21761189,50.668044,250.83998)">
      <stop
         stop-color="#208EBB"
         id="stop10" />
      <stop
         offset="1"
         stop-color="#2162B2"
         id="stop12" />
    </linearGradient>
  </defs>
  <sodipodi:namedview
     pagecolor="#ffffff"
     bordercolor="#666666"
     borderopacity="1"
     objecttolerance="10"
     gridtolerance="10"
     guidetolerance="10"
     inkscape:pageopacity="0"
     inkscape:pageshadow="2"
     inkscape:window-width="1366"
     inkscape:window-height="713"
     id="namedview55"
     showgrid="false"
     inkscape:zoom="5.3937038"
     inkscape:cx="2.3273384"
     inkscape:cy="25.019655"
     inkscape:window-x="0"
     inkscape:window-y="32"
     inkscape:window-maximized="1"
     inkscape:current-layer="svg53" />
  <linearGradient
     id="a"
     gradientTransform="matrix(1.0749904,0,0,1.0292896,113.08072,-0.192062)"
     gradientUnits="userSpaceOnUse"
     x1="-74.929466"
     x2="-75.259552"
     y1="52.199436"
     y2="2.356489">
    <stop
       offset="0"
       stop-color="#d1d7df"
       id="stop2" />
    <stop
       offset="1"
       stop-color="#e0e5e7"
       id="stop4" />
  </linearGradient>
  <rect
     style="fill:#206774;fill-opacity:1"
     id="rect7"
     y="54.300709"
     x="10"
     width="44"
     ry="2.5"
     height="7.6992898" />
  <rect
     style="fill:url(#a)"
     id="rect9"
     y="1.468998"
     x="10"
     width="44"
     ry="2.5"
     height="52.831711" />
  <path
     style="fill:#206774;fill-opacity:1"
     inkscape:connector-curvature="0"
     id="path11"
     d="m 10,51.087685 h 44 v 7.911841 H 10 Z" />
  <g
     id="g885"
     transform="matrix(0.14166169,0,0,0.14166169,18.038933,-22.260746)">
    <g
       transform="matrix(0.52122799,0,0,1,-101.37204,-8.867136)"
       id="g906">
      <polyline
         class="StaffLines"
         points="141.732,316.732 2835.47,316.732"
         id="polyline6"
         transform="matrix(0.17955112,0,0,1,116.28386,0)"
         style="fill:none;stroke:#000000;stroke-width:2;stroke-linejoin:bevel" />
      <polyline
         class="StaffLines"
         points="141.732,341.732 2835.47,341.732"
         id="polyline8"
         transform="matrix(0.17955112,0,0,1,116.28386,0)"
         style="fill:none;stroke:#000000;stroke-width:2;stroke-linejoin:bevel" />
      <polyline
         class="StaffLines"
         points="141.732,366.732 2835.47,366.732"
         id="polyline10"
         transform="matrix(0.17955112,0,0,1,116.28386,0)"
         style="fill:none;stroke:#000000;stroke-width:2;stroke-linejoin:bevel" />
      <polyline
         class="StaffLines"
         points="141.732,391.732 2835.47,391.732"
         id="polyline12"
         transform="matrix(0.17955112,0,0,1,116.28386,0)"
         style="fill:none;stroke:#000000;stroke-width:2;stroke-linejoin:bevel" />
      <polyline
         class="StaffLines"
         points="141.732,416.732 2835.47,416.732"
         id="polyline14"
         transform="matrix(0.17955112,0,0,1,116.28386,0)"
         style="fill:none;stroke:#000000;stroke-width:2;stroke-linejoin:bevel" />
    </g>
    <g
       id="g899"
       transform="translate(-342.23402,-8.867136)">
      <polyline
         class="Stem"
         points="371.193,387.037 371.193,307.357"
         id="polyline38"
         style="fill:none;stroke:#000000;stroke-width:3.25;stroke-linecap:round;stroke-linejoin:bevel" />
      <polyline
         transform="translate(-26)"
         class="Stem"
         points="459.712,333.928 459.712,410.482"
         id="polyline40"
         style="fill:none;stroke:#000000;stroke-width:3.25;stroke-linecap:round;stroke-linejoin:bevel" />
      <polyline
         transform="translate(-26)"
         class="Stem"
         points="533.576,358.928 533.576,422.982"
         id="polyline42"
         style="fill:none;stroke:#000000;stroke-width:3.25;stroke-linecap:round;stroke-linejoin:bevel" />
      <path
         class="Note"
         d="m 361.873,377.967 c 3.125,0 5.766,0.812 7.922,2.437 2.01,1.761 3.016,3.974 3.016,6.641 0,4.49 -2.308,8.687 -6.922,12.594 -4.688,3.906 -9.703,5.859 -15.047,5.859 -3.125,0 -5.761,-0.812 -7.906,-2.437 -2.021,-1.761 -3.032,-3.974 -3.032,-6.641 0,-4.49 2.344,-8.688 7.032,-12.594 4.562,-3.906 9.541,-5.859 14.937,-5.859"
         id="path44"
         inkscape:connector-curvature="0" />
      <path
         class="Note"
         d="m 454.056,315.467 c 3.125,0 5.765,0.812 7.922,2.437 2.01,1.761 3.015,3.974 3.015,6.641 0,4.489 -2.307,8.687 -6.922,12.594 -4.687,3.906 -9.703,5.859 -15.046,5.859 -3.125,0 -5.761,-0.812 -7.907,-2.437 -2.021,-1.761 -3.031,-3.974 -3.031,-6.641 0,-4.49 2.344,-8.688 7.031,-12.594 4.563,-3.906 9.542,-5.859 14.938,-5.859"
         id="path46"
         inkscape:connector-curvature="0" />
      <path
         class="Note"
         d="m 527.92,340.467 c 3.125,0 5.766,0.812 7.922,2.437 2.01,1.761 3.015,3.974 3.015,6.641 0,4.49 -2.307,8.687 -6.921,12.594 -4.688,3.906 -9.704,5.859 -15.047,5.859 -3.125,0 -5.761,-0.812 -7.907,-2.437 -2.02,-1.761 -3.031,-3.974 -3.031,-6.641 0,-4.49 2.344,-8.688 7.031,-12.594 4.563,-3.906 9.542,-5.859 14.938,-5.859"
         id="path48"
         inkscape:connector-curvature="0" />
      <path
         class="Beam"
         d="m 432.087,404.144 77.114,13.05 v 12.677 l -77.114,-13.05 v -12.677"
         id="path74"
         inkscape:connector-curvature="0"
         style="fill-rule:evenodd" />
    </g>
  </g>
  <g
     aria-label="musx"
     style="font-style:normal;font-variant:normal;font-weight:500;font-stretch:normal;font-size:8px;line-height:1.25;font-family:roboto;-inkscape-font-specification:'roboto, Medium';font-variant-ligatures:normal;font-variant-caps:normal;font-variant-numeric:normal;font-feature-settings:normal;text-align:center;letter-spacing:0px;word-spacing:0px;writing-mode:lr-tb;text-anchor:middle;fill:#ffffff;fill-opacity:1;stroke:none"
     id="text889">
    <path
       d="m 24.265625,55.325218 q -0.574219,0 -0.8125,0.46875 v 3.0625 h -0.945313 v -4.226562 h 0.890625 l 0.02734,0.441406 q 0.449219,-0.519531 1.222656,-0.519531 0.839844,0 1.15625,0.644531 0.464844,-0.644531 1.300782,-0.644531 0.644531,0 1.015625,0.359375 0.371093,0.359375 0.375,1.1875 v 2.757812 h -0.949219 v -2.742187 q 0,-0.46875 -0.207031,-0.628907 -0.203125,-0.160156 -0.554688,-0.160156 -0.324219,0 -0.53125,0.175781 -0.203125,0.175782 -0.28125,0.457032 v 2.898437 h -0.949219 v -2.734375 q 0,-0.445312 -0.203125,-0.621094 -0.203125,-0.175781 -0.554687,-0.175781 z"
       style=""
       id="path840" />
    <path
       d="m 32.058594,58.856468 -0.02344,-0.414062 q -0.414062,0.492187 -1.1875,0.492187 -0.617187,0 -1.003906,-0.363281 -0.386719,-0.363281 -0.390625,-1.195313 v -2.746093 h 0.949219 v 2.738281 q 0,0.457031 0.199218,0.625 0.203125,0.164062 0.472657,0.164062 0.679687,0 0.929687,-0.488281 v -3.039062 h 0.949219 v 4.226562 z"
       style=""
       id="path842" />
    <path
       d="m 36.300781,57.708031 q 0,-0.203125 -0.167969,-0.351563 -0.164062,-0.152344 -0.71875,-0.269531 -0.6875,-0.144531 -1.113281,-0.429688 -0.421875,-0.289062 -0.421875,-0.824218 0,-0.519532 0.4375,-0.898438 0.4375,-0.382812 1.191406,-0.382812 0.792969,0 1.242188,0.386718 0.453125,0.386719 0.453125,0.957032 h -0.949219 q 0,-0.246094 -0.1875,-0.4375 -0.1875,-0.195313 -0.558594,-0.195313 -0.359375,0 -0.53125,0.160156 -0.171875,0.160157 -0.171875,0.371094 0,0.203125 0.171875,0.328125 0.171875,0.125 0.695313,0.238281 0.734375,0.160157 1.144531,0.445313 0.414063,0.28125 0.414063,0.847656 0,0.5625 -0.464844,0.921875 -0.464844,0.359375 -1.242188,0.359375 -0.871093,0 -1.328125,-0.445312 -0.457031,-0.445313 -0.457031,-0.96875 h 0.921875 q 0.01563,0.390625 0.285156,0.546875 0.273438,0.15625 0.585938,0.15625 0.375,0 0.570312,-0.144532 0.199219,-0.144531 0.199219,-0.371093 z"
       style=""
       id="path844" />
    <path
       d="m 38.800781,54.629906 0.789063,1.390625 0.804687,-1.390625 h 1.050781 l -1.289062,2.078125 1.335937,2.148437 h -1.050781 l -0.84375,-1.445312 -0.839844,1.445312 H 37.703125 L 39.039062,56.708031 37.75,54.629906 Z"
       style=""
       id="path846" />
  </g>
</svg>
