<?xml version="1.0" encoding="UTF-8" standalone="no"?>
<svg
   xmlns:osb="http://www.openswatchbook.org/uri/2009/osb"
   xmlns:dc="http://purl.org/dc/elements/1.1/"
   xmlns:cc="http://creativecommons.org/ns#"
   xmlns:rdf="http://www.w3.org/1999/02/22-rdf-syntax-ns#"
   xmlns:svg="http://www.w3.org/2000/svg"
   xmlns="http://www.w3.org/2000/svg"
   xmlns:xlink="http://www.w3.org/1999/xlink"
   xmlns:sodipodi="http://sodipodi.sourceforge.net/DTD/sodipodi-0.dtd"
   xmlns:inkscape="http://www.inkscape.org/namespaces/inkscape"
   width="64"
   viewBox="0 0 64 64"
   height="64"
   id="svg2"
   version="1.1"
   inkscape:version="0.91 r13725"
   sodipodi:docname="application-x-mono-develop.svg"
   inkscape:export-filename="E:\Usuarios\David\Desktop\android.png"
   inkscape:export-xdpi="90"
   inkscape:export-ydpi="90">
  <metadata
     id="metadata14">
    <rdf:RDF>
      <cc:Work
         rdf:about="">
        <dc:format>image/svg+xml</dc:format>
        <dc:type
           rdf:resource="http://purl.org/dc/dcmitype/StillImage" />
        <dc:title></dc:title>
      </cc:Work>
    </rdf:RDF>
  </metadata>
  <defs
     id="defs12">
    <linearGradient
       osb:paint="gradient"
       id="linearGradient4207">
      <stop
         id="stop3371"
         offset="0"
         style="stop-color:#3498db;stop-opacity:1;" />
      <stop
         id="stop3373"
         offset="1"
         style="stop-color:#3498db;stop-opacity:0;" />
    </linearGradient>
    <linearGradient
       inkscape:collect="always"
       xlink:href="#linearGradient4422-8"
       id="linearGradient4182"
       x1="-74.929466"
       y1="52.199436"
       x2="-75.259552"
       y2="2.3564887"
       gradientUnits="userSpaceOnUse"
       gradientTransform="matrix(1.0749904,0,0,1.0292896,56.688954,-0.01528455)" />
    <linearGradient
       id="linearGradient4422-8">
      <stop
         style="stop-color:#259ee1;stop-opacity:1"
         offset="0"
         id="stop4424-9" />
      <stop
         style="stop-color:#19b4fd;stop-opacity:1"
         offset="1"
         id="stop4426-0" />
    </linearGradient>
  </defs>
  <sodipodi:namedview
     pagecolor="#747474"
     bordercolor="#666666"
     borderopacity="1"
     objecttolerance="10"
     gridtolerance="10"
     guidetolerance="10"
     inkscape:pageopacity="1"
     inkscape:pageshadow="2"
     inkscape:window-width="1366"
     inkscape:window-height="642"
     id="namedview10"
     showgrid="false"
     inkscape:zoom="7.4552197"
     inkscape:cx="38.67216"
     inkscape:cy="34.15661"
     inkscape:window-x="0"
     inkscape:window-y="33"
     inkscape:window-maximized="1"
     inkscape:current-layer="g4186"
     inkscape:snap-bbox="true"
     inkscape:bbox-nodes="true"
     inkscape:object-nodes="true"
     borderlayer="false"
     showguides="true"
     inkscape:snap-nodes="true"
     inkscape:object-paths="false"
     inkscape:showpageshadow="false"
     showborder="true">
    <inkscape:grid
       type="xygrid"
       id="grid4160"
       visible="true" />
    <sodipodi:guide
       position="28.888657,63.404975"
       orientation="0,35.2"
       id="guide6108" />
    <sodipodi:guide
       position="54,55.679691"
       orientation="51.200004,0"
       id="guide6112" />
    <sodipodi:guide
       position="58.527669,62"
       orientation="0,1"
       id="guide6114"
       inkscape:label=""
       inkscape:color="rgb(0,0,255)" />
    <sodipodi:guide
       position="10,4"
       orientation="-56,0"
       id="guide6116" />
    <sodipodi:guide
       position="11,4"
       orientation="-2.8421709e-014,0"
       id="guide6118" />
    <sodipodi:guide
       position="12,62"
       orientation="0,35.2"
       id="guide6120" />
    <sodipodi:guide
       position="52,2"
       orientation="0,-40"
       id="guide6126" />
    <sodipodi:guide
       position="12,62"
       orientation="0,35.2"
       id="guide6138" />
    <sodipodi:guide
       position="53,4.3973202"
       orientation="-56,0"
       id="guide6158" />
    <sodipodi:guide
       position="21,48"
       orientation="0,22"
       id="guide4238" />
    <sodipodi:guide
       position="43,48"
       orientation="22,0"
       id="guide4240" />
    <sodipodi:guide
       position="43,26"
       orientation="0,-22"
       id="guide4242" />
    <sodipodi:guide
       position="21,26"
       orientation="-22,0"
       id="guide4244" />
  </sodipodi:namedview>
  <g
     id="g4186"
     transform="translate(56.391766,-0.17677665)">
    <rect
       ry="2.5"
       y="54.477486"
       x="-46.391766"
       height="7.6992903"
       width="44"
       id="rect4162"
       style="opacity:1;fill:#104663;fill-opacity:1;stroke:none;stroke-width:0.185;stroke-linecap:round;stroke-linejoin:round;stroke-miterlimit:4;stroke-dasharray:none;stroke-dashoffset:0;stroke-opacity:1" />
    <rect
       ry="2.5"
       y="1.6457753"
       x="-46.391766"
       height="52.831711"
       width="44"
       id="rect4174"
       style="opacity:1;fill:url(#linearGradient4182);fill-opacity:1.0;stroke:none;stroke-width:0.30000001;stroke-linecap:round;stroke-linejoin:round;stroke-miterlimit:4;stroke-dasharray:none;stroke-dashoffset:0;stroke-opacity:1" />
    <rect
       ry="0"
       y="51.264462"
       x="-46.391766"
       height="7.9118414"
       width="44"
       id="rect4184"
       style="opacity:1;fill:#104663;fill-opacity:1;stroke:none;stroke-width:0.185;stroke-linecap:round;stroke-linejoin:round;stroke-miterlimit:4;stroke-dasharray:none;stroke-dashoffset:0;stroke-opacity:1" />
    <g
       inkscape:transform-center-y="-9.4924686"
       inkscape:transform-center-x="5.4653607"
       inkscape:label="Capa 1"
       id="layer1"
       transform="translate(-498.44021,-512.80124)">
      <g
         id="layer1-3"
         inkscape:label="Capa 1"
         transform="translate(0.41988239,0.03484499)">
        <g
           style="fill:#104563;fill-opacity:1"
           inkscape:label="Capa 1"
           id="layer1-34"
           transform="matrix(1.8038299,0,0,1.8038299,-589.54623,-575.79303)" />
      </g>
    </g>
    <g
       transform="translate(-390.02484,-477.20031)"
       id="layer1-5"
       inkscape:label="Capa 1">
      <g
         id="g63687"
         transform="matrix(0.06488556,-0.04557628,-0.04557629,-0.06488558,307.06482,572.09937)" />
      <g
         style="opacity:0.91300001"
         transform="matrix(0.51711642,0,0,0.51711642,209.87057,254.15025)"
         id="g4393" />
      <g
         transform="matrix(0.97468474,-0.11344733,0.11344733,0.97468474,-48.817551,59.404662)"
         id="g6423">
        <g
           transform="matrix(0.99259176,0,0,0.99259176,363.87624,-536.28136)"
           id="layer1-6"
           inkscape:label="Capa 1"
           style="fill:#104663;fill-opacity:1">
          <g
             style="fill:#104663;fill-opacity:1;stroke:#4f96d1;stroke-opacity:1"
             inkscape:label="Capa 1"
             id="layer1-0"
             transform="matrix(0.90537551,0,0,0.90537551,-365.91682,562.06022)" />
          <g
             inkscape:label="Capa 1"
             id="layer1-00"
             transform="translate(-401.01229,510.63371)"
             style="fill:#104663;fill-opacity:1">
            <g
               id="g3"
               transform="matrix(0.04915848,0,0,0.04915848,393.00515,521.11862)"
               style="opacity:0.88500001;fill:#104663;fill-opacity:1">
              <path
                 d="m 469.4,218.45 c 0,-33.8 -27.5,-61.4 -61.4,-61.4 -3.3,0 -6.5,0.3 -9.6,0.8 -12.3,-86.8 -81,-153.2 -163.9,-153.2 -82.9,0 -151.6,66.4 -163.9,153.2 -3,-0.5 -6.1,-0.7 -9.2,-0.7 -33.8,0 -61.4,27.5 -61.4,61.4 0,33 26.2,60.1 59,61.3 -2.4,10.2 -3.7,20.601 -3.7,31.2 0,21.199 4.9,41.8 14.7,61.1 9.3,18.4 22.4,34.8 39.1,48.8 33.6,28.2 78.2,43.801 125.3,43.801 47.1,0 91.8,-15.601 125.5,-43.9 16.7,-14 29.899,-30.4 39.1,-48.8 9.7,-19.301 14.7,-39.9 14.7,-61.1 0,-10.601 -1.2,-21 -3.7,-31.201 32.9,-1 59.4,-28.1 59.4,-61.3 z m -76.7,92.501 c 0,4.399 -0.3,8.699 -0.8,13 l -50.4,0 -214,0 -50.4,0 c -0.5,-4.301 -0.8,-8.601 -0.8,-13 0,-12 1.9,-23.601 5.4,-34.601 1.2,-3.601 2.5,-7.101 4,-10.601 8,-18.5 20.8,-35.1 37,-48.699 1.8,-1.5 3.7,-3 5.6,-4.5 -2.8,-4.6 -5.4,-9.4 -7.7,-14.4 -19.3,-43.1 -8.1,-85.1 25,-93.8 4.1,-1.1 8.4,-1.6 12.7,-1.6 27.3,0 57.8,20.7 76.1,51.8 18.3,-31.2 48.8,-51.8 76.1,-51.8 4.3,0 8.601,0.5 12.7,1.6 33.1,8.7 44.3,50.7 25,93.8 -2.3,5 -4.8,9.9 -7.7,14.4 2,1.6 4,3.2 6,4.8 16.101,13.6 28.7,30 36.7,48.399 1.5,3.4 2.8,6.9 3.9,10.5 3.7,11.101 5.6,22.702 5.6,34.702 z m -237.2,34 158.101,0 73.899,0 c -17.899,56.8 -79.6,98.699 -153,98.699 -73.4,0 -135.1,-41.899 -153,-98.699 l 74,0 0,0 z M 61.4,258.85 c -22.3,0 -40.4,-18.101 -40.4,-40.4 0,-22.3 18.1,-40.4 40.4,-40.4 2.5,0 5,0.2 7.4,0.7 -0.1,2.3 -0.1,4.6 -0.1,7 0,6 0.3,11.8 0.8,17.6 -4.3,-2.9 -9.4,-5.2 -15.3,-6.6 -5.6,-1.3 -11.3,2.2 -12.6,7.8 -1.3,5.6 2.2,11.3 7.8,12.6 17.3,4.1 23,24.1 23.1,24.5 0.2,0.801 0.5,1.5 0.8,2.2 -0.5,0.8 -0.9,1.601 -1.4,2.399 -2.2,4.101 -4.2,8.201 -5.9,12.301 -1.5,0.2 -3,0.3 -4.6,0.3 z m 346.6,0 c -1.7,0 -3.3,-0.101 -5,-0.3 -1.8,-4.1 -3.7,-8.2 -5.899,-12.301 -0.7,-1.299 -1.5,-2.6 -2.2,-4 0.1,-0.199 0.1,-0.399 0.2,-0.6 0.1,-0.199 5.699,-20.5 23.1,-24.5 5.6,-1.3 9.1,-7 7.8,-12.6 -1.3,-5.6 -7,-9.1 -12.6,-7.8 -5.2,1.2 -9.8,3.2 -13.8,5.6 0.5,-5.5 0.699,-11 0.699,-16.6 0,-2.3 -0.1,-4.6 -0.1,-6.9 2.5,-0.5 5.1,-0.8 7.8,-0.8 22.3,0 40.4,18.1 40.4,40.4 0,22.301 -18.1,40.401 -40.4,40.401 z"
                 id="path5"
                 inkscape:connector-curvature="0"
                 style="fill:#104663;fill-opacity:1" />
              <path
                 d="m 214.5,263.35 c -4.7,-5.5 -13,-6.101 -18.5,-1.399 -5.5,4.699 -6.1,13 -1.4,18.5 l 12.1,14.1 c 2.6,3 6.3,4.6 10,4.6 3,0 6,-1 8.5,-3.1 5.5,-4.7 6.1,-13 1.4,-18.5 L 214.5,263.35 Z"
                 id="path7"
                 inkscape:connector-curvature="0"
                 style="fill:#104663;fill-opacity:1" />
              <path
                 d="m 273,261.85 c -5.5,-4.7 -13.8,-4.101 -18.5,1.399 l -12.1,14.101 c -4.7,5.5 -4.1,13.8 1.4,18.5 2.5,2.101 5.5,3.101 8.5,3.101 3.699,0 7.399,-1.601 10,-4.601 l 12.1,-14.101 c 4.8,-5.399 4.1,-13.699 -1.4,-18.399 z"
                 id="path9"
                 inkscape:connector-curvature="0"
                 style="fill:#104663;fill-opacity:1" />
              <circle
                 cx="191.2"
                 cy="199.25"
                 r="21.299999"
                 id="circle11"
                 style="fill:#104663;fill-opacity:1" />
              <circle
                 cx="277.80099"
                 cy="199.25"
                 r="21.299999"
                 id="circle13"
                 style="fill:#104663;fill-opacity:1" />
            </g>
          </g>
        </g>
      </g>
    </g>
    <g
       style="font-style:normal;font-weight:normal;font-size:11.54103184px;line-height:125%;font-family:sans-serif;letter-spacing:0px;word-spacing:0px;fill:#000000;fill-opacity:1;stroke:none;stroke-width:1px;stroke-linecap:butt;stroke-linejoin:miter;stroke-opacity:1"
       id="text4817"
       transform="translate(-0.199999,0.19996365)">
      <path
         d="m -34.214764,59.239517 0,-4.112804 0.738626,0 0,0.570757 0.03357,0 q 0.176263,-0.293772 0.537183,-0.495215 0.369313,-0.209837 0.730233,-0.209837 0.956856,0 1.300989,0.788987 0.503608,-0.788987 1.435284,-0.788987 0.730233,0 1.099546,0.470034 0.369313,0.461642 0.369313,1.259022 l 0,2.518043 -0.7722,0 0,-2.400534 q 0,-0.621118 -0.226624,-0.881315 -0.226624,-0.260198 -0.688265,-0.260198 -0.453248,0 -0.755413,0.3861 -0.293772,0.3861 -0.293772,0.881315 l 0,2.274632 -0.7722,0 0,-2.400534 q 0,-0.621118 -0.226624,-0.881315 -0.226624,-0.260198 -0.688265,-0.260198 -0.453248,0 -0.755413,0.3861 -0.293772,0.3861 -0.293772,0.881315 l 0,2.274632 -0.772199,0 z"
         style="font-style:normal;font-variant:normal;font-weight:normal;font-stretch:normal;font-size:8.39347744px;font-family:'Product Sans';-inkscape-font-specification:'Product Sans';fill:#ffffff;fill-opacity:1"
         id="path4822"
         inkscape:connector-curvature="0" />
      <path
         d="m -26.706274,55.621928 q 0.595937,-0.62951 1.519219,-0.62951 0.923283,0 1.51922,0.62951 0.595936,0.621118 0.595936,1.561187 0,0.94007 -0.595936,1.569581 -0.595937,0.621117 -1.51922,0.621117 -0.923282,0 -1.519219,-0.621117 -0.595937,-0.629511 -0.595937,-1.569581 0,-0.940069 0.595937,-1.561187 z m 0.570756,2.643946 q 0.402887,0.402887 0.948463,0.402887 0.545576,0 0.94007,-0.402887 0.402886,-0.411281 0.402886,-1.082759 0,-0.671478 -0.402886,-1.074365 -0.394494,-0.41128 -0.94007,-0.41128 -0.545576,0 -0.948463,0.41128 -0.394493,0.402887 -0.394493,1.074365 0,0.671478 0.394493,1.082759 z"
         style="font-style:normal;font-variant:normal;font-weight:normal;font-stretch:normal;font-size:8.39347744px;font-family:'Product Sans';-inkscape-font-specification:'Product Sans';fill:#ffffff;fill-opacity:1"
         id="path4824"
         inkscape:connector-curvature="0" />
      <path
         d="m -21.705598,55.126713 0,0.570757 0.03357,0 q 0.167869,-0.293772 0.528789,-0.495215 0.360919,-0.209837 0.7722,-0.209837 0.763806,0 1.166693,0.470034 0.402887,0.470035 0.402887,1.259022 l 0,2.518043 -0.7722,0 0,-2.400534 q 0,-1.141513 -1.015611,-1.141513 -0.478428,0 -0.780593,0.3861 -0.302165,0.377706 -0.302165,0.881315 l 0,2.274632 -0.7722,0 0,-4.112804 0.738626,0 z"
         style="font-style:normal;font-variant:normal;font-weight:normal;font-stretch:normal;font-size:8.39347744px;font-family:'Product Sans';-inkscape-font-specification:'Product Sans';fill:#ffffff;fill-opacity:1"
         id="path4826"
         inkscape:connector-curvature="0" />
      <path
         d="m -17.525909,55.621928 q 0.595937,-0.62951 1.51922,-0.62951 0.923282,0 1.519219,0.62951 0.595937,0.621118 0.595937,1.561187 0,0.94007 -0.595937,1.569581 -0.595937,0.621117 -1.519219,0.621117 -0.923283,0 -1.51922,-0.621117 -0.595937,-0.629511 -0.595937,-1.569581 0,-0.940069 0.595937,-1.561187 z m 0.570757,2.643946 q 0.402887,0.402887 0.948463,0.402887 0.545576,0 0.940069,-0.402887 0.402887,-0.411281 0.402887,-1.082759 0,-0.671478 -0.402887,-1.074365 -0.394493,-0.41128 -0.940069,-0.41128 -0.545576,0 -0.948463,0.41128 -0.394494,0.402887 -0.394494,1.074365 0,0.671478 0.394494,1.082759 z"
         style="font-style:normal;font-variant:normal;font-weight:normal;font-stretch:normal;font-size:8.39347744px;font-family:'Product Sans';-inkscape-font-specification:'Product Sans';fill:#ffffff;fill-opacity:1"
         id="path4828"
         inkscape:connector-curvature="0" />
    </g>
  </g>
</svg>
