<svg height="64" viewBox="0 0 64 64" width="64" xmlns="http://www.w3.org/2000/svg" xmlns:xlink="http://www.w3.org/1999/xlink"><linearGradient id="a" gradientTransform="matrix(1.0749904 0 0 1.0292896 56.688954 -.015285)" gradientUnits="userSpaceOnUse" x1="-74.929466" x2="-75.259552" y1="52.199436" y2="2.356489"><stop offset="0" stop-color="#197cf1"/><stop offset="1" stop-color="#20bcfa"/></linearGradient><g transform="translate(56.391766 -.176777)"><rect fill="#0b3969" height="7.69929" ry="2.5" width="44" x="-46.391766" y="54.477486"/><rect fill="url(#a)" height="52.831711" ry="2.5" width="44" x="-46.391766" y="1.645775"/><path d="m-46.391766 51.264462h44v7.911841h-44z" fill="#0b3969"/><g fill="#fff" transform="matrix(.81954967 0 0 .81954967 -4.634288 10.521604)"><path d="m-35.786062 53.164537q-.19.19-.46.19-.27 0-.46-.19-.19-.19-.19-.46 0-.27.19-.46.19-.19.46-.19.27 0 .46.19.19.19.19.46 0 .27-.19.46zm0 6.13h-.92v-4.9h.92z"/><path d="m-34.57903 59.294537v-4.9h.88v.68h.04q.21-.35.64-.59.44-.25.87-.25 1.14 0 1.55.94.6-.94 1.71-.94.87 0 1.31.56.44.55.44 1.5v3h-.92v-2.86q0-.74-.27-1.05-.27-.31-.82-.31-.54 0-.9.46-.35.46-.35 1.05v2.71h-.92v-2.86q0-.74-.27-1.05-.27-.31-.82-.31-.54 0-.9.46-.35.46-.35 1.05v2.71z"/><path d="m-24.571999 59.454537q-.78 0-1.31-.45-.52-.45-.52-1.19 0-.8.62-1.25.62-.46 1.53-.46.81 0 1.33.3v-.14q0-.54-.37-.86-.37-.33-.91-.33-.4 0-.73.19-.32.19-.44.52l-.84-.36q.17-.44.67-.81.5-.38 1.32-.38.94 0 1.56.55.62.55.62 1.55v2.96h-.88v-.68h-.04q-.55.84-1.61.84zm.15-.84q.57 0 1.03-.42.47-.43.47-1.01-.39-.32-1.17-.32-.67 0-1.01.29-.34.29-.34.68 0 .36.31.57.31.21.71.21z"/><path d="m-18.933405 61.614537q-.87 0-1.42-.44-.55-.43-.79-.99l.84-.35q.14.4.51.67.38.27.86.27.76 0 1.19-.46.44-.45.44-1.23v-.47h-.04q-.24.36-.68.6-.44.24-.99.24-.95 0-1.64-.75-.69-.75-.69-1.86 0-1.11.69-1.86.69-.75 1.64-.75.55 0 .99.24.44.24.68.6h.04v-.68h.88v4.65q0 1.26-.73 1.91-.73.66-1.78.66zm.07-3q .65 0 1.1-.48.46-.48.46-1.29 0-.81-.46-1.29-.45-.48-1.1-.48-.64 0-1.1.49-.46.48-.46 1.28 0 .8.46 1.29.46.48 1.1.48z"/><path d="m-13.14028 59.454537q-1.11 0-1.81-.74-.69-.74-.69-1.87 0-1.07.67-1.84.68-.77 1.73-.77 1.09 0 1.74.71.66.71.66 1.9l-.01.17h-3.87q.04.74.49 1.17.46.43 1.07.43.99 0 1.34-.84l.82.34q-.24.57-.79.96-.55.38-1.35.38zm1.32-3.2q-.03-.42-.39-.8-.35-.38-1.05-.38-.51 0-.89.32-.37.32-.51.86z"/></g><g transform="matrix(.28177325 -.04866765 .04866765 .28177325 -214.25058 -71.478955)"><rect fill="#0b3969" height="58.986568" ry="2.3" transform="matrix(.89537973 .14886638 -.14886638 .89537973 181.38928 -47.050156)" width="76.809471" x="504.25668" y="426.46411"/><g transform="matrix(.90765278 -.0056985 .0056985 .90765278 95.981015 47.52327)"><rect fill="#1da1f6" height="58.986568" ry="2.3" stroke="#0b3969" stroke-linecap="round" stroke-linejoin="round" stroke-width="1.903151" width="76.809471" x="504.25668" y="426.46411"/><path d="m504.2304 479.41184 14.55149-4.65732 4.59402 3.09494 10.68866-3.70865 10.51696 3.49583 7.58063 1.61197 5.83015-2.02302 7.18039-1.82153 11.56837 4.36341-.0451 5.71285-69.41559.56851s-3.10616.57841-3.08552-2.07338z" fill="#0b3969" fill-rule="evenodd"/><circle cx="521.2431" cy="443.27579" fill="#0b3969" r="7.594486"/></g><circle cx="610.99548" cy="479.66388" fill="#1da1f6" r="19.134081" stroke="#0b3969" stroke-linecap="round" stroke-linejoin="round" stroke-width="2"/><path d="m598.67943 493.65621 11.44601-23.18859c5.60266 5.88152 18.98364 10.6085 18.98364 10.6085l1.39585 2.23337c-7.31195 19.73788-19.37 17.06139-31.8255 10.34672z" fill="#0b3969" fill-rule="evenodd"/><path d="m600.64547 495.6202 3.71848-4.56822 3.76154 1.7885 3.2785-4.84896 12.61021 4.76417c-4.44546 7.04228-11.85513 8.97599-23.36873 2.86451z" fill="#1da1f6" fill-rule="evenodd"/><circle cx="610.91852" cy="479.44278" fill="none" r="19.134081" stroke="#0b3969" stroke-linecap="round" stroke-linejoin="round" stroke-width="2"/></g></g></svg>