<?xml version="1.0" encoding="UTF-8" standalone="no"?>
<svg
   xmlns:ns2="http://ns.adobe.com/AdobeIllustrator/10.0/"
   xmlns:osb="http://www.openswatchbook.org/uri/2009/osb"
   xmlns:dc="http://purl.org/dc/elements/1.1/"
   xmlns:cc="http://creativecommons.org/ns#"
   xmlns:rdf="http://www.w3.org/1999/02/22-rdf-syntax-ns#"
   xmlns:svg="http://www.w3.org/2000/svg"
   xmlns="http://www.w3.org/2000/svg"
   xmlns:xlink="http://www.w3.org/1999/xlink"
   xmlns:sodipodi="http://sodipodi.sourceforge.net/DTD/sodipodi-0.dtd"
   xmlns:inkscape="http://www.inkscape.org/namespaces/inkscape"
   width="64"
   viewBox="0 0 64 64"
   height="64"
   id="svg2"
   version="1.1"
   inkscape:version="0.91 r13725"
   sodipodi:docname="application-x-deb-debian.svg"
   inkscape:export-filename="E:\Usuarios\David\Desktop\android.png"
   inkscape:export-xdpi="90"
   inkscape:export-ydpi="90">
  <metadata
     id="metadata14">
    <rdf:RDF>
      <cc:Work
         rdf:about="">
        <dc:format>image/svg+xml</dc:format>
        <dc:type
           rdf:resource="http://purl.org/dc/dcmitype/StillImage" />
        <dc:title />
      </cc:Work>
    </rdf:RDF>
  </metadata>
  <defs
     id="defs12">
    <linearGradient
       osb:paint="gradient"
       id="linearGradient4207">
      <stop
         id="stop3371"
         offset="0"
         style="stop-color:#3498db;stop-opacity:1;" />
      <stop
         id="stop3373"
         offset="1"
         style="stop-color:#3498db;stop-opacity:0;" />
    </linearGradient>
    <linearGradient
       inkscape:collect="always"
       xlink:href="#linearGradient4422"
       id="linearGradient4182"
       x1="-74.929466"
       y1="52.199436"
       x2="-75.259552"
       y2="2.3564887"
       gradientUnits="userSpaceOnUse"
       gradientTransform="matrix(1.0749904,0,0,1.1792904,56.688954,-0.25735472)" />
    <linearGradient
       id="linearGradient4422">
      <stop
         style="stop-color:#de2b5b;stop-opacity:1"
         offset="0"
         id="stop4424" />
      <stop
         style="stop-color:#f73667;stop-opacity:1"
         offset="1"
         id="stop4426" />
    </linearGradient>
  </defs>
  <sodipodi:namedview
     pagecolor="#747474"
     bordercolor="#666666"
     borderopacity="1"
     objecttolerance="10"
     gridtolerance="10"
     guidetolerance="10"
     inkscape:pageopacity="1"
     inkscape:pageshadow="2"
     inkscape:window-width="1366"
     inkscape:window-height="642"
     id="namedview10"
     showgrid="false"
     inkscape:zoom="7.4552197"
     inkscape:cx="17.75432"
     inkscape:cy="34.089543"
     inkscape:window-x="0"
     inkscape:window-y="33"
     inkscape:window-maximized="1"
     inkscape:current-layer="g4186"
     inkscape:snap-bbox="true"
     inkscape:bbox-nodes="true"
     inkscape:object-nodes="true"
     borderlayer="false"
     showguides="true"
     inkscape:snap-nodes="true"
     inkscape:object-paths="false"
     inkscape:showpageshadow="false"
     showborder="true">
    <inkscape:grid
       type="xygrid"
       id="grid4160"
       visible="true" />
    <sodipodi:guide
       position="28.888657,63.404975"
       orientation="0,35.2"
       id="guide6108" />
    <sodipodi:guide
       position="54,55.679691"
       orientation="51.200004,0"
       id="guide6112" />
    <sodipodi:guide
       position="58.527669,62"
       orientation="0,1"
       id="guide6114"
       inkscape:label=""
       inkscape:color="rgb(0,0,255)" />
    <sodipodi:guide
       position="10,4"
       orientation="-56,0"
       id="guide6116" />
    <sodipodi:guide
       position="11,4"
       orientation="-2.8421709e-014,0"
       id="guide6118" />
    <sodipodi:guide
       position="12,62"
       orientation="0,35.2"
       id="guide6120" />
    <sodipodi:guide
       position="52,2"
       orientation="0,-40"
       id="guide6126" />
    <sodipodi:guide
       position="12,62"
       orientation="0,35.2"
       id="guide6138" />
    <sodipodi:guide
       position="55,3"
       orientation="0,-40"
       id="guide6156" />
    <sodipodi:guide
       position="53,4.3973202"
       orientation="-56,0"
       id="guide6158" />
    <sodipodi:guide
       position="21,48"
       orientation="0,22"
       id="guide4238" />
    <sodipodi:guide
       position="43,48"
       orientation="22,0"
       id="guide4240" />
    <sodipodi:guide
       position="43,26"
       orientation="0,-22"
       id="guide4242" />
    <sodipodi:guide
       position="21,26"
       orientation="-22,0"
       id="guide4244" />
  </sodipodi:namedview>
  <g
     id="g4186"
     transform="translate(56.391766,-0.17677665)">
    <g
       id="g3353">
      <rect
         style="opacity:1;fill:url(#linearGradient4182);fill-opacity:1;stroke:none;stroke-width:0.30000001;stroke-linecap:round;stroke-linejoin:round;stroke-miterlimit:4;stroke-dasharray:none;stroke-dashoffset:0;stroke-opacity:1"
         id="rect4174"
         width="44"
         height="60.531002"
         x="-46.391766"
         y="1.6457753"
         ry="2.864331" />
      <path
         id="rect4162"
         transform="translate(-56.391766,0.17677665)"
         d="M 10 51.087891 L 10 56.800781 L 10 59 L 10 59.5 C 10 60.885 11.115 62 12.5 62 L 51.5 62 C 52.885 62 54 60.885 54 59.5 L 54 59 L 54 56.800781 L 54 51.087891 L 10 51.087891 z "
         style="opacity:1;fill:#000000;fill-opacity:0.47058824;stroke:none;stroke-width:0.185;stroke-linecap:round;stroke-linejoin:round;stroke-miterlimit:4;stroke-dasharray:none;stroke-dashoffset:0;stroke-opacity:1" />
      <g
         transform="matrix(0.81954967,0,0,0.81954967,-4.7342825,10.221831)"
         id="text4161"
         style="font-style:normal;font-weight:normal;font-size:9.36996746px;line-height:125%;font-family:sans-serif;letter-spacing:0px;word-spacing:0px;fill:#ffffff;fill-opacity:1;stroke:none;stroke-width:1px;stroke-linecap:butt;stroke-linejoin:miter;stroke-opacity:1">
        <g
           id="text4269"
           style="font-style:normal;font-weight:normal;font-size:13.75px;line-height:125%;font-family:sans-serif;letter-spacing:0px;word-spacing:0px;fill:#ffffff;fill-opacity:1;stroke:none;stroke-width:1px;stroke-linecap:butt;stroke-linejoin:miter;stroke-opacity:1">
          <path
             inkscape:connector-curvature="0"
             id="path4170"
             style="font-style:normal;font-variant:normal;font-weight:normal;font-stretch:normal;font-size:10px;font-family:'Product Sans';-inkscape-font-specification:'Product Sans';fill:#ffffff;fill-opacity:1"
             d="m -29.611302,60.186646 q -0.95,0 -1.64,-0.75 -0.69,-0.75 -0.69,-1.86 0,-1.11 0.69,-1.86 0.69,-0.75 1.64,-0.75 0.56,0 1,0.24 0.45,0.24 0.67,0.6 l 0.04,0 -0.04,-0.68 0,-2.26 0.92,0 0,7.16 -0.88,0 0,-0.68 -0.04,0 q -0.22,0.36 -0.67,0.6 -0.44,0.24 -1,0.24 z m 0.15,-0.84 q 0.65,0 1.1,-0.48 0.46,-0.48 0.46,-1.29 0,-0.81 -0.46,-1.29 -0.45,-0.48 -1.1,-0.48 -0.64,0 -1.1,0.49 -0.46,0.48 -0.46,1.28 0,0.8 0.46,1.29 0.46,0.48 1.1,0.48 z" />
          <path
             inkscape:connector-curvature="0"
             id="path4172"
             style="font-style:normal;font-variant:normal;font-weight:normal;font-stretch:normal;font-size:10px;font-family:'Product Sans';-inkscape-font-specification:'Product Sans';fill:#ffffff;fill-opacity:1"
             d="m -23.738177,60.186646 q -1.11,0 -1.81,-0.74 -0.69,-0.74 -0.69,-1.87 0,-1.07 0.67,-1.84 0.68,-0.77 1.73,-0.77 1.09,0 1.74,0.71 0.66,0.71 0.66,1.9 l -0.01,0.17 -3.87,0 q 0.04,0.74 0.49,1.17 0.46,0.43 1.07,0.43 0.99,0 1.34,-0.84 l 0.82,0.34 q -0.24,0.57 -0.79,0.96 -0.55,0.38 -1.35,0.38 z m 1.32,-3.2 q -0.03,-0.42 -0.39,-0.8 -0.35,-0.38 -1.05,-0.38 -0.51,0 -0.89,0.32 -0.37,0.32 -0.51,0.86 l 2.84,0 z" />
          <path
             inkscape:connector-curvature="0"
             id="path4174"
             style="font-style:normal;font-variant:normal;font-weight:normal;font-stretch:normal;font-size:10px;font-family:'Product Sans';-inkscape-font-specification:'Product Sans';fill:#ffffff;fill-opacity:1"
             d="m -18.016615,60.186646 q -0.56,0 -1.01,-0.24 -0.44,-0.24 -0.66,-0.6 l -0.04,0 0,0.68 -0.88,0 0,-7.16 0.92,0 0,2.26 -0.04,0.68 0.04,0 q 0.22,-0.36 0.66,-0.6 0.45,-0.24 1.01,-0.24 0.95,0 1.64,0.75 0.69,0.75 0.69,1.86 0,1.11 -0.69,1.86 -0.69,0.75 -1.64,0.75 z m -0.15,-0.84 q 0.64,0 1.1,-0.48 0.46,-0.49 0.46,-1.29 0,-0.8 -0.46,-1.28 -0.46,-0.49 -1.1,-0.49 -0.65,0 -1.11,0.48 -0.45,0.48 -0.45,1.29 0,0.81 0.45,1.29 0.46,0.48 1.11,0.48 z" />
        </g>
      </g>
      <g
         transform="matrix(0.41997322,0,0,0.41997322,-198.63808,-189.55125)"
         id="layer1-1"
         inkscape:label="Capa 1"
         style="fill:#000000;fill-opacity:0.47058824">
        <g
           transform="translate(342.20643,439.87015)"
           id="g4165"
           style="overflow:visible;fill:#000000;fill-opacity:0.47058824">
          <g
             style="fill:#000000;fill-opacity:0.47058824"
             id="Layer_1"
             ns2:layer="yes"
             ns2:dimmedPercent="50"
             ns2:rgbTrio="#4F008000FFFF">
            <g
               style="fill:#000000;fill-opacity:0.47058824"
               id="g4153">
              <path
                 style="fill:#000000;fill-opacity:0.47058824"
                 inkscape:connector-curvature="0"
                 ns2:knockout="Off"
                 d="M 76.133,102.374 C 68.136,99.497 63.386,95.966 58.178,88.086 56.9,85.915 54.55,81.07 54.639,74.746 c -0.208,-6.305 2.978,-13.57 8.924,-17.447 5.742,-4.092 13.152,-4.153 17.56,-2.537 4.547,1.688 6.391,4.5 6.443,4.366 -0.139,0.035 2.436,2.201 3.584,6.916 1.279,4.532 -0.02,12.044 -6.271,15.12 -2.875,1.541 -6.609,1.82 -9.537,0.718 -2.928,-1.181 -5.053,-3.774 -5.761,-6.483 -1.543,-5.981 2.995,-9.296 4.997,-9.636 8.145,-2.716 12.27,10.03 2.744,11.114 4.342,1.45 8.818,-3.006 7.967,-7.545 -0.172,-4.54 -5.668,-9.046 -11.73,-7.199 -1.583,0.437 -3.98,1.548 -5.856,4.047 -1.924,2.484 -2.797,6.377 -1.797,10.161 0.975,3.805 3.94,7.447 8.07,9.084 4.172,1.539 8.817,1.099 12.653,-0.897 8.189,-4.051 9.828,-13.922 8.201,-19.353 -1.436,-5.837 -4.607,-8.51 -4.443,-8.551 -0.059,0.159 -2.34,-3.309 -7.977,-5.414 -5.512,-2.01 -14.106,-1.868 -20.987,2.957 -7.042,4.516 -10.857,13.39 -10.58,20.542 -0.095,7.263 2.612,12.822 4.089,15.293 5.954,9.08 12.776,11.918 21.201,12.372"
                 id="path4159" />
            </g>
          </g>
        </g>
      </g>
    </g>
  </g>
</svg>
