<svg height="64" viewBox="0 0 64 64" width="64" xmlns="http://www.w3.org/2000/svg" xmlns:xlink="http://www.w3.org/1999/xlink"><linearGradient id="a" gradientTransform="matrix(1.0749904 0 0 1.0292896 56.688954 -.015285)" gradientUnits="userSpaceOnUse" x1="-74.929466" x2="-75.259552" y1="52.199436" y2="2.356489"><stop offset="0" stop-color="#0074e3"/><stop offset="1" stop-color="#03b8ff"/></linearGradient><g transform="translate(56.391766 -.176777)"><rect fill="#003564" height="7.69929" ry="2.5" width="44" x="-46.391766" y="54.477486"/><rect fill="url(#a)" height="52.831711" ry="2.5" width="44" x="-46.391766" y="1.645775"/><path d="m-46.391766 51.264462h44v7.911841h-44z" fill="#003564"/><g fill="#fff" transform="matrix(.81954967 0 0 .81954967 -4.234289 11.121832)"><path d="m-29.196252 52.554444q-.19.19-.46.19-.27 0-.46-.19-.19-.19-.19-.46 0-.27.19-.46.19-.19.46-.19.27 0 .46.19.19.19.19.46 0 .27-.19.46zm0 6.13h-.92v-4.9h.92z"/><path d="m-25.807815 58.844444q-1.1 0-1.81-.74-.71-.75-.71-1.87 0-1.12.71-1.86.71-.75 1.81-.75.82 0 1.36.4.54.4.79 1.01l-.84.35q-.38-.92-1.37-.92-.61 0-1.08.5-.46.5-.46 1.27 0 .77.46 1.27.47.5 1.08.5 1.03 0 1.42-.92l.82.35q-.25.6-.81 1.01-.55.4-1.37.4z"/><path d="m-22.461565 54.374444q.71-.75 1.81-.75 1.1 0 1.81.75.71.74.71 1.86 0 1.12-.71 1.87-.71.74-1.81.74-1.1 0-1.81-.74-.71-.75-.71-1.87 0-1.12.71-1.86zm.68 3.15q.48.48 1.13.48.65 0 1.12-.48.48-.49.48-1.29 0-.8-.48-1.28-.47-.49-1.12-.49-.65 0-1.13.49-.47.48-.47 1.28 0 .8.47 1.29z"/></g><path d="m .176 224-.175-156.037 192-26.072v182.109h-191.825zm223.825-186.759 255.936-37.241v224h-255.936zm255.998 218.759-.062 224-255.936-36.008v-187.992zm-287.998 183.918-191.844-26.297-.01-157.621h191.854z" fill="#0b3969" transform="matrix(.04177363 0 0 .04583333 -34.742808 16.176775)"/></g></svg>