<svg height="64" viewBox="0 0 64 64" width="64" xmlns="http://www.w3.org/2000/svg" xmlns:xlink="http://www.w3.org/1999/xlink"><linearGradient id="a" gradientTransform="matrix(1.0749904 0 0 1.0292896 56.688954 -.015285)" gradientUnits="userSpaceOnUse" x1="-74.929466" x2="-75.259552" y1="52.199436" y2="2.356489"><stop offset="0" stop-color="#f10614"/><stop offset="1" stop-color="#ff433e"/></linearGradient><g transform="translate(56.391766 -.176777)"><rect fill="#69040a" height="7.69929" ry="2.5" width="44" x="-46.391766" y="54.477486"/><rect fill="url(#a)" height="52.831711" ry="2.5" width="44" x="-46.391766" y="1.645775"/><path d="m-46.391766 51.264462h44v7.911841h-44z" fill="#69050a"/><g fill="#fff" transform="matrix(.81954967 0 0 .81954967 -5.034288 9.421604)"><path d="m-28.257434 61.163071q-.56 0-1.01-.24-.44-.24-.66-.6h-.04l.04.68v2.16h-.92v-7.06h.88v.68h.04q.22-.36.66-.6.45-.24 1.01-.24.95 0 1.64.75.69.75.69 1.86 0 1.11-.69 1.86-.69.75-1.64.75zm-.15-.84q.64 0 1.1-.48.46-.49.46-1.29 0-.8-.46-1.28-.46-.49-1.1-.49-.65 0-1.11.48-.45.48-.45 1.29 0 .81.45 1.29.46.48 1.11.48z"/><path d="m-23.034777 61.163071q-.95 0-1.64-.75-.69-.75-.69-1.86 0-1.11.69-1.86.69-.75 1.64-.75.56 0 1 .24.45.24.67.6h.04l-.04-.68v-2.26h.92v7.16h-.88v-.68h-.04q-.22.36-.67.6-.44.24-1 .24zm.15-.84q.65 0 1.1-.48.46-.48.46-1.29 0-.81-.46-1.29-.45-.48-1.1-.48-.64 0-1.1.49-.46.48-.46 1.28 0 .8.46 1.29.46.48 1.1.48z"/><path d="m-16.924465 53.803071q.44 0 .74.13l-.32.79q-.16-.08-.42-.08-.36 0-.59.22-.23.21-.23.62v.62h1.28v.84h-1.28v4.06h-.92v-4.06h-.92v-.84h.92v-.65q0-.75.48-1.2.48-.45 1.26-.45z"/></g><path d="m68.517279 1026.7252c-.309087-.3045-.994584-.4658-2.037707-.4795-.706106-.011-1.555981.054-2.449902.1795-.400274-.2309-.812771-.4822-1.136651-.7849-.871132-.8134-1.59829-1.9426-2.051404-3.1842.02952-.116.05465-.2179.07805-.3219 0 0 .490684-2.7872.360794-3.7294-.01787-.1292-.02887-.1668-.06362-.2673l-.04262-.109c-.133456-.3078-.395148-.6339-.805429-.6162l-.240602-.011-.0066-.0001c-.457506 0-.830389.234-.928274.5837-.297524 1.0969.0094 2.7379.565827 4.8634l-.142413.3462c-.398366.9711-.897574 1.9492-1.338033 2.8119l-.05727.1124c-.463377.9069-.883832 1.6767-1.264978 2.3288l-.393539.2081c-.02866.015-.70311.3718-.861308.4675-1.342033.8013-2.231344 1.711-2.378889 2.4328-.04697.2303-.012.5251.226774.6617l.380625.1915c.165111.083.339225.1246.5176.1246.955844 0 2.065538-1.1907 3.594209-3.8585 1.764968-.5747 3.774449-1.0522 5.535592-1.3156 1.342123.7557 2.99281 1.2805 4.034666 1.2805.184987 0 .344446-.018.474032-.052.199816-.053.368229-.1669.470902-.3214.202115-.3043.243121-.7232.188242-1.1523-.01635-.1272-.118063-.2847-.228077-.3921zm-14.276771 5.0861c.174288-.4766.864263-1.4188 1.884421-2.2548.06414-.052.222122-.2.366796-.3375-1.066816 1.7015-1.781231 2.3797-2.251217 2.5923zm6.042325-13.9144c.307265 0 .482032.7746.496555 1.5006.01449.7261-.155328 1.2357-.365969 1.6127-.174462-.5582-.25878-1.438-.25878-2.0135 0 0-.01282-1.0998.128194-1.0998zm-1.802452 9.9157c.214033-.3831.436719-.7871.664277-1.2157.554693-1.049.905009-1.8697 1.165919-2.5445.518906.9442 1.165137 1.7467 1.924823 2.3898.09475.08.195155.1608.300605.2412-1.544845.3056-2.880051.6774-4.055624 1.1292zm9.740071-.086c-.0941.058-.36362.093-.536995.093-.559519 0-1.251805-.2558-2.222304-.6719.372883-.028.71481-.042 1.021423-.042.561213 0 .727461 0 1.276237.1375.548783.14.555697.4243.461639.4831z" fill="#fff" transform="matrix(1.422766226246 0 0 1.422766226246 -111.231944838633 -1431.177441538843)"/></g></svg>