<?xml version="1.0" encoding="UTF-8" standalone="no"?>
<svg
   xmlns:osb="http://www.openswatchbook.org/uri/2009/osb"
   xmlns:dc="http://purl.org/dc/elements/1.1/"
   xmlns:cc="http://creativecommons.org/ns#"
   xmlns:rdf="http://www.w3.org/1999/02/22-rdf-syntax-ns#"
   xmlns:svg="http://www.w3.org/2000/svg"
   xmlns="http://www.w3.org/2000/svg"
   xmlns:xlink="http://www.w3.org/1999/xlink"
   xmlns:sodipodi="http://sodipodi.sourceforge.net/DTD/sodipodi-0.dtd"
   xmlns:inkscape="http://www.inkscape.org/namespaces/inkscape"
   width="64"
   viewBox="0 0 64 64"
   height="64"
   id="svg2"
   version="1.1"
   inkscape:version="0.91 r13725"
   sodipodi:docname="application-x-deb-ubuntu.svg"
   inkscape:export-filename="E:\Usuarios\David\Desktop\android.png"
   inkscape:export-xdpi="90"
   inkscape:export-ydpi="90">
  <metadata
     id="metadata14">
    <rdf:RDF>
      <cc:Work
         rdf:about="">
        <dc:format>image/svg+xml</dc:format>
        <dc:type
           rdf:resource="http://purl.org/dc/dcmitype/StillImage" />
        <dc:title />
      </cc:Work>
    </rdf:RDF>
  </metadata>
  <defs
     id="defs12">
    <linearGradient
       osb:paint="gradient"
       id="linearGradient4207">
      <stop
         id="stop3371"
         offset="0"
         style="stop-color:#3498db;stop-opacity:1;" />
      <stop
         id="stop3373"
         offset="1"
         style="stop-color:#3498db;stop-opacity:0;" />
    </linearGradient>
    <linearGradient
       inkscape:collect="always"
       xlink:href="#linearGradient4422"
       id="linearGradient4182"
       x1="-74.929466"
       y1="52.199436"
       x2="-75.259552"
       y2="2.3564887"
       gradientUnits="userSpaceOnUse"
       gradientTransform="matrix(1.0749904,0,0,1.1792904,56.688954,-0.25735472)" />
    <linearGradient
       id="linearGradient4422">
      <stop
         style="stop-color:#ff6835;stop-opacity:1"
         offset="0"
         id="stop4424" />
      <stop
         style="stop-color:#ff956f;stop-opacity:1"
         offset="1"
         id="stop4426" />
    </linearGradient>
  </defs>
  <sodipodi:namedview
     pagecolor="#747474"
     bordercolor="#666666"
     borderopacity="1"
     objecttolerance="10"
     gridtolerance="10"
     guidetolerance="10"
     inkscape:pageopacity="1"
     inkscape:pageshadow="2"
     inkscape:window-width="1366"
     inkscape:window-height="712"
     id="namedview10"
     showgrid="false"
     inkscape:zoom="5.2716364"
     inkscape:cx="1.5149492"
     inkscape:cy="34.328505"
     inkscape:window-x="0"
     inkscape:window-y="28"
     inkscape:window-maximized="1"
     inkscape:current-layer="g4186"
     inkscape:snap-bbox="true"
     inkscape:bbox-nodes="true"
     inkscape:object-nodes="true"
     borderlayer="false"
     showguides="true"
     inkscape:snap-nodes="true"
     inkscape:object-paths="false"
     inkscape:showpageshadow="false"
     showborder="true">
    <inkscape:grid
       type="xygrid"
       id="grid4160"
       visible="true" />
    <sodipodi:guide
       position="28.888657,63.404975"
       orientation="0,35.2"
       id="guide6108" />
    <sodipodi:guide
       position="54,55.679691"
       orientation="51.200004,0"
       id="guide6112" />
    <sodipodi:guide
       position="58.527669,62"
       orientation="0,1"
       id="guide6114"
       inkscape:label=""
       inkscape:color="rgb(0,0,255)" />
    <sodipodi:guide
       position="10,4"
       orientation="-56,0"
       id="guide6116" />
    <sodipodi:guide
       position="11,4"
       orientation="-2.8421709e-014,0"
       id="guide6118" />
    <sodipodi:guide
       position="12,62"
       orientation="0,35.2"
       id="guide6120" />
    <sodipodi:guide
       position="52,2"
       orientation="0,-40"
       id="guide6126" />
    <sodipodi:guide
       position="12,62"
       orientation="0,35.2"
       id="guide6138" />
    <sodipodi:guide
       position="55,3"
       orientation="0,-40"
       id="guide6156" />
    <sodipodi:guide
       position="53,4.3973202"
       orientation="-56,0"
       id="guide6158" />
    <sodipodi:guide
       position="21,48"
       orientation="0,22"
       id="guide4238" />
    <sodipodi:guide
       position="43,48"
       orientation="22,0"
       id="guide4240" />
    <sodipodi:guide
       position="43,26"
       orientation="0,-22"
       id="guide4242" />
    <sodipodi:guide
       position="21,26"
       orientation="-22,0"
       id="guide4244" />
  </sodipodi:namedview>
  <g
     id="g4186"
     transform="translate(56.391766,-0.17677665)">
    <rect
       ry="2.8640001"
       y="1.6457753"
       x="-46.391766"
       height="60.531002"
       width="44"
       id="rect4174"
       style="opacity:1;fill:url(#linearGradient4182);fill-opacity:1;stroke:none;stroke-width:0.30000001;stroke-linecap:round;stroke-linejoin:round;stroke-miterlimit:4;stroke-dasharray:none;stroke-dashoffset:0;stroke-opacity:1" />
    <path
       style="opacity:1;fill:#000000;fill-opacity:0.69942194;stroke:none;stroke-width:0.185;stroke-linecap:round;stroke-linejoin:round;stroke-miterlimit:4;stroke-dasharray:none;stroke-dashoffset:0;stroke-opacity:1"
       d="M 10 51.087891 L 10 57.164062 L 10 59 L 10 59.136719 C 10 60.723375 11.276625 62 12.863281 62 L 51.136719 62 C 52.723375 62 54 60.723375 54 59.136719 L 54 59 L 54 57.164062 L 54 51.087891 L 10 51.087891 z "
       transform="translate(-56.391766,0.17677665)"
       id="rect4162" />
    <g
       style="font-style:normal;font-weight:normal;font-size:9.36996746px;line-height:125%;font-family:sans-serif;letter-spacing:0px;word-spacing:0px;fill:#ffffff;fill-opacity:1;stroke:none;stroke-width:1px;stroke-linecap:butt;stroke-linejoin:miter;stroke-opacity:1"
       id="text4161"
       transform="matrix(0.81954967,0,0,0.81954967,-4.7342825,10.221831)">
      <g
         style="font-style:normal;font-weight:normal;font-size:13.75px;line-height:125%;font-family:sans-serif;letter-spacing:0px;word-spacing:0px;fill:#ffffff;fill-opacity:1;stroke:none;stroke-width:1px;stroke-linecap:butt;stroke-linejoin:miter;stroke-opacity:1"
         id="text4269">
        <path
           d="m -29.611302,60.186646 q -0.95,0 -1.64,-0.75 -0.69,-0.75 -0.69,-1.86 0,-1.11 0.69,-1.86 0.69,-0.75 1.64,-0.75 0.56,0 1,0.24 0.45,0.24 0.67,0.6 l 0.04,0 -0.04,-0.68 0,-2.26 0.92,0 0,7.16 -0.88,0 0,-0.68 -0.04,0 q -0.22,0.36 -0.67,0.6 -0.44,0.24 -1,0.24 z m 0.15,-0.84 q 0.65,0 1.1,-0.48 0.46,-0.48 0.46,-1.29 0,-0.81 -0.46,-1.29 -0.45,-0.48 -1.1,-0.48 -0.64,0 -1.1,0.49 -0.46,0.48 -0.46,1.28 0,0.8 0.46,1.29 0.46,0.48 1.1,0.48 z"
           style="font-style:normal;font-variant:normal;font-weight:normal;font-stretch:normal;font-size:10px;font-family:'Product Sans';-inkscape-font-specification:'Product Sans';fill:#ffffff;fill-opacity:1"
           id="path4170"
           inkscape:connector-curvature="0" />
        <path
           d="m -23.738177,60.186646 q -1.11,0 -1.81,-0.74 -0.69,-0.74 -0.69,-1.87 0,-1.07 0.67,-1.84 0.68,-0.77 1.73,-0.77 1.09,0 1.74,0.71 0.66,0.71 0.66,1.9 l -0.01,0.17 -3.87,0 q 0.04,0.74 0.49,1.17 0.46,0.43 1.07,0.43 0.99,0 1.34,-0.84 l 0.82,0.34 q -0.24,0.57 -0.79,0.96 -0.55,0.38 -1.35,0.38 z m 1.32,-3.2 q -0.03,-0.42 -0.39,-0.8 -0.35,-0.38 -1.05,-0.38 -0.51,0 -0.89,0.32 -0.37,0.32 -0.51,0.86 l 2.84,0 z"
           style="font-style:normal;font-variant:normal;font-weight:normal;font-stretch:normal;font-size:10px;font-family:'Product Sans';-inkscape-font-specification:'Product Sans';fill:#ffffff;fill-opacity:1"
           id="path4172"
           inkscape:connector-curvature="0" />
        <path
           d="m -18.016615,60.186646 q -0.56,0 -1.01,-0.24 -0.44,-0.24 -0.66,-0.6 l -0.04,0 0,0.68 -0.88,0 0,-7.16 0.92,0 0,2.26 -0.04,0.68 0.04,0 q 0.22,-0.36 0.66,-0.6 0.45,-0.24 1.01,-0.24 0.95,0 1.64,0.75 0.69,0.75 0.69,1.86 0,1.11 -0.69,1.86 -0.69,0.75 -1.64,0.75 z m -0.15,-0.84 q 0.64,0 1.1,-0.48 0.46,-0.49 0.46,-1.29 0,-0.8 -0.46,-1.28 -0.46,-0.49 -1.1,-0.49 -0.65,0 -1.11,0.48 -0.45,0.48 -0.45,1.29 0,0.81 0.45,1.29 0.46,0.48 1.11,0.48 z"
           style="font-style:normal;font-variant:normal;font-weight:normal;font-stretch:normal;font-size:10px;font-family:'Product Sans';-inkscape-font-specification:'Product Sans';fill:#ffffff;fill-opacity:1"
           id="path4174"
           inkscape:connector-curvature="0" />
      </g>
    </g>
    <path
       inkscape:connector-curvature="0"
       style="fill:#ffffff;fill-opacity:0.85"
       id="rect4244"
       d="m -16.084682,14.285155 c -0.123784,-0.0082 -0.245796,-0.0064 -0.365995,0.0016 -0.801372,0.05658 -1.543493,0.500538 -1.975683,1.248962 -0.688991,1.196196 -0.276548,2.716143 0.922119,3.407661 1.196196,0.688975 2.718687,0.2885 3.407662,-0.911479 0.691422,-1.192461 0.295445,-2.740611 -0.900767,-3.430762 -0.337117,-0.193896 -0.716001,-0.293006 -1.087313,-0.31625 z m -6.564808,2.650831 c -1.72926,0 -3.346529,0.408461 -4.796975,1.128158 l 1.737619,3.137581 c 0.935851,-0.436997 1.96149,-0.694673 3.059451,-0.694673 3.822004,0 6.976511,2.92463 7.305626,6.664323 l 3.548022,-0.04442 c -0.176875,-2.75598 -1.382678,-5.23507 -3.233552,-7.055198 -0.953048,0.357492 -2.035449,0.3027 -2.98477,-0.248736 -0.949312,-0.54898 -1.549866,-1.466546 -1.714518,-2.474902 -0.926029,-0.25425 -1.915003,-0.41218 -2.920808,-0.41218 z m -6.022923,1.833503 c -2.190987,1.462724 -3.804545,3.707572 -4.482514,6.328476 0.793393,0.644769 1.270337,1.608822 1.270337,2.712957 0,1.096682 -0.475705,2.096574 -1.270337,2.744982 0.677961,2.619624 2.291527,4.855104 4.482514,6.317828 l 1.832954,-3.082822 c -1.880244,-1.321458 -3.103825,-3.50681 -3.103825,-5.980258 0,-2.47599 1.223581,-4.658713 3.103825,-5.980258 z m -6.719353,6.545251 c -1.384124,0 -2.49619,1.11205 -2.49619,2.496182 0,1.379222 1.112066,2.496191 2.49619,2.496191 1.385309,0 2.508643,-1.116969 2.508643,-2.496191 0,-1.384132 -1.123334,-2.496182 -2.508643,-2.496182 z m 20.047902,3.158958 c -0.329139,3.733589 -3.483607,6.664322 -7.305626,6.664322 -1.099216,0 -2.123592,-0.246741 -3.059443,-0.684016 l -1.737628,3.11448 c 1.450447,0.722176 3.067811,1.11751 4.796976,1.11751 1.0059,0 1.994786,-0.134257 2.920815,-0.390868 0.164581,-1.007076 0.763919,-1.921741 1.714535,-2.473169 0.951847,-0.548893 2.031793,-0.602167 2.984753,-0.239851 1.850874,-1.822585 3.056535,-4.296763 3.233552,-7.055198 z m -1.096229,7.890175 c -0.362188,0.03083 -0.727778,0.151326 -1.064203,0.346454 -1.198565,0.686607 -1.611087,2.203272 -0.92212,3.397013 0.691478,1.199931 2.23157,1.602178 3.428951,0.913203 1.19765,-0.690246 1.592173,-2.213189 0.900767,-3.409385 -0.432158,-0.748376 -1.184825,-1.190833 -1.986324,-1.24723 -0.12035,-0.01001 -0.236489,-0.01001 -0.357102,0 z" />
  </g>
</svg>
