<svg height="64" viewBox="0 0 64 64" width="64" xmlns="http://www.w3.org/2000/svg" xmlns:xlink="http://www.w3.org/1999/xlink"><linearGradient id="a" gradientTransform="matrix(1.0749904 0 0 1.0292896 56.688954 -.015285)" gradientUnits="userSpaceOnUse" x1="-74.929466" x2="-75.259552" y1="52.199436" y2="2.356489"><stop offset="0" stop-color="#8798a9"/><stop offset="1" stop-color="#aeb6be"/></linearGradient><g transform="translate(56.391766 -.176777)"><rect fill="#3d434a" height="7.69929" ry="2.5" width="44" x="-46.391766" y="54.477486"/><rect fill="url(#a)" height="52.831711" ry="2.5" width="44" x="-46.391766" y="1.645775"/><path d="m-46.391766 51.264462h44v7.911841h-44z" fill="#3d434a"/><g fill="#fff" transform="matrix(.81954967 0 0 .81954967 -4.034288 10.721773)"><path d="m-30.253801 59.294537h-.92v-4.9h.88v.8h.04q.14-.4.57-.66.44-.26.85-.26.41 0 .69.12l-.35.86q-.18-.07-.49-.07-.5 0-.89.4-.38.39-.38 1.03z"/><path d="m-23.240988 59.294537h-.88v-.68h-.04q-.21.35-.64.6-.43.24-.91.24-.92 0-1.4-.56-.47-.56-.47-1.5v-3h .92v2.85q0 1.37 1.21 1.37.57 0 .93-.46.36-.46.36-1.06v-2.7h.92z"/><path d="m-21.231301 54.394537v.68h.04q.2-.35.63-.59.43-.25.92-.25.91 0 1.39.56.48.56.48 1.5v3h-.92v-2.86q0-1.36-1.21-1.36-.57 0-.93.46-.36.45-.36 1.05v2.71h-.92v-4.9z"/></g><rect fill="#373e44" height="16.600670892684" ry=".781208254422" width="21.999999871254" x="-35.391767121471" y="18.93410466433"/><path d="m76.988 55.667-53.119-53.039c-1.956-2.064-4.399-3.096-7.333-3.096s-5.377 1.033-7.333 3.096l-6.192 6.111c-2.01 2.01-3.015 4.453-3.015 7.332 0 2.824 1.005 5.296 3.015 7.414l39.596 39.515-39.597 39.596c-2.01 2.01-3.015 4.454-3.015 7.333 0 2.824 1.005 5.296 3.015 7.414l6.192 6.11c2.01 2.01 4.455 3.015 7.333 3.015 2.879 0 5.324-1.005 7.333-3.015l53.12-53.039c2.01-2.118 3.016-4.59 3.016-7.414 0-2.879-1.006-5.323-3.016-7.333z" fill="#9ba8b4" transform="matrix(.066818097817 0 0 .066818097817 -26.838433267599 23.084424193103)"/></g></svg>