<?xml version="1.0" encoding="UTF-8" standalone="no"?>
<svg
   xmlns:dc="http://purl.org/dc/elements/1.1/"
   xmlns:cc="http://creativecommons.org/ns#"
   xmlns:rdf="http://www.w3.org/1999/02/22-rdf-syntax-ns#"
   xmlns:svg="http://www.w3.org/2000/svg"
   xmlns="http://www.w3.org/2000/svg"
   xmlns:sodipodi="http://sodipodi.sourceforge.net/DTD/sodipodi-0.dtd"
   xmlns:inkscape="http://www.inkscape.org/namespaces/inkscape"
   height="64"
   viewBox="0 0 64 64"
   width="64"
   version="1.1"
   id="svg31"
   sodipodi:docname="application-x-sqlite.svg"
   inkscape:version="0.92.4 (unknown)">
  <metadata
     id="metadata37">
    <rdf:RDF>
      <cc:Work
         rdf:about="">
        <dc:format>image/svg+xml</dc:format>
        <dc:type
           rdf:resource="http://purl.org/dc/dcmitype/StillImage" />
      </cc:Work>
    </rdf:RDF>
  </metadata>
  <defs
     id="defs35" />
  <sodipodi:namedview
     pagecolor="#ffffff"
     bordercolor="#666666"
     borderopacity="1"
     objecttolerance="10"
     gridtolerance="10"
     guidetolerance="10"
     inkscape:pageopacity="0"
     inkscape:pageshadow="2"
     inkscape:window-width="1920"
     inkscape:window-height="1024"
     id="namedview33"
     showgrid="false"
     inkscape:zoom="10.429825"
     inkscape:cx="35.4092"
     inkscape:cy="40.749663"
     inkscape:window-x="0"
     inkscape:window-y="27"
     inkscape:window-maximized="1"
     inkscape:current-layer="svg31" />
  <linearGradient
     id="a"
     gradientTransform="matrix(1.0749904 0 0 1.1719405 113.08072 -.422271)"
     gradientUnits="userSpaceOnUse"
     x1="-74.929466"
     x2="-75.259552"
     y1="52.199436"
     y2="2.356489">
    <stop
       offset="0"
       stop-color="#8cbdf8"
       id="stop2" />
    <stop
       offset="1"
       stop-color="#d5e8ff"
       id="stop4" />
  </linearGradient>
  <rect
     height="60.153744"
     ry="2.846479"
     width="44"
     x="10"
     y="1.468998"
     id="rect7"
     stroke-width="1.067048"
     fill="url(#a)" />
  <path
     d="m10 51.087891v5.71289 2.199219.5c0 1.385 1.115 2.5 2.5 2.5h39c1.385 0 2.5-1.115 2.5-2.5v-.5-2.199219-5.71289z"
     fill="#003b57"
     id="path9" />
  <g
     id="g859"
     transform="translate(-2.343286)">
    <path
       d="m 44.003817,12.717797 c -1.313292,-1.171051 -2.903442,-0.700727 -4.472608,0.692137 -0.232983,0.206825 -0.46542,0.436402 -0.696633,0.681645 -2.68463,2.847989 -5.1766,8.123095 -5.950761,12.15194 0.301653,0.61162 0.537227,1.392041 0.692277,1.988265 0.03978,0.15287 0.07561,0.296475 0.104376,0.418551 0.06812,0.289116 0.104769,0.476455 0.104769,0.476455 0,0 -0.02411,-0.09101 -0.122894,-0.377402 -0.01881,-0.05491 -0.03979,-0.114853 -0.06459,-0.185434 a 2.1499896,2.1499896 0 0 0 -0.04143,-0.102474 c -0.175087,-0.407105 -0.659448,-1.266286 -0.872676,-1.640419 a 40.972837,40.972837 0 0 0 -0.478366,1.496412 c 0.615433,1.126083 0.990521,3.055898 0.990521,3.055898 0,0 -0.03259,-0.125065 -0.187203,-0.561614 -0.137339,-0.385991 -0.821164,-1.584284 -0.983165,-1.864411 -0.277124,1.023082 -0.387216,1.713721 -0.28789,1.881849 0.19279,0.325768 0.376316,0.888066 0.537635,1.509762 0.364184,1.400628 0.617197,3.105902 0.617197,3.105902 0,0 0.0082,0.113095 0.02206,0.286942 -0.0507,1.176229 -0.02029,2.39578 0.07086,3.498026 0.120579,1.459214 0.347705,2.71269 0.637232,3.383574 l 0.196609,-0.1071 c -0.425086,-1.321737 -0.597846,-3.053852 -0.522231,-5.05152 0.114441,-3.053309 0.817077,-6.73568 2.115382,-10.573638 2.193592,-5.793664 5.236821,-10.442162 8.022134,-12.662185 -2.538704,2.292777 -5.9746,9.714055 -7.003134,12.46217 -1.151704,3.077568 -1.967827,5.96547 -2.459682,8.732391 0.848686,-2.594018 3.592578,-3.708933 3.592578,-3.708933 0,0 1.345724,-1.659773 2.91843,-4.03103 -0.942017,0.214863 -2.488976,0.582734 -3.007128,0.800457 -0.764346,0.320594 -0.970216,0.43 -0.970216,0.43 0,0 2.475617,-1.507716 4.599723,-2.190322 2.921153,-4.600812 6.103764,-11.136889 2.898811,-13.995912"
       id="path11"
       inkscape:connector-curvature="0"
       style="fill:#003b57;stroke-width:0.13624749" />
    <path
       sodipodi:nodetypes="csccssccssccssccscsccssccccscccccc"
       inkscape:connector-curvature="0"
       id="path855"
       d="m 31.075103,22.39021 c -3.657626,0 -7.545933,0.970532 -7.545933,2.770972 0,0.147748 0.03354,0.28717 0.08331,0.423017 l -0.01923,0.03418 c -0.167349,0.303471 -0.249965,0.610689 -0.249965,0.912263 v 2.228315 c 0,0.3431 0.107735,0.671446 0.299104,0.982766 l -0.02564,0.04273 c -0.182458,0.316512 -0.273465,0.638105 -0.273465,0.954992 v 2.226179 c 0,0.332084 0.10104,0.650143 0.282012,0.952855 l -0.0085,0.01923 c -0.182459,0.315876 -0.273465,0.636722 -0.273465,0.952854 v 2.228316 c 0,1.979964 3.395913,3.52941 7.731804,3.52941 0.125046,-0.247997 0.272425,-0.779775 -1.25e-4,-0.833218 -4.069138,0 -6.904998,-1.42365 -6.904998,-2.702606 V 35.01661 c 1.269883,1.162861 3.882476,1.905712 6.904998,1.905712 0.07683,0 0.150192,-0.0055 0.226463,-0.0064 -0.0289,-0.408671 -0.05258,-0.826142 -0.05982,-1.256231 -0.05728,5.68e-4 -0.10885,0.0064 -0.166642,0.0064 -4.069139,0 -6.904999,-1.424917 -6.904999,-2.702607 v -2.093719 c 1.258895,1.152422 3.838821,1.888723 6.828086,1.901438 -0.07921,-0.406406 -0.157844,-0.827666 -0.267055,-1.247686 -0.0075,-0.02916 -0.01581,-0.05237 -0.0235,-0.08119 -3.864877,-0.08506 -6.53753,-1.447075 -6.53753,-2.685516 v -1.854436 c 1.198261,1.015608 3.924156,1.546892 6.618715,1.583107 -0.03994,-0.08651 -0.07253,-0.186532 -0.115369,-0.264919 1.837351,-5.779135 0,0 1.837351,-5.779135 -0.47659,-0.03278 -0.957746,-0.05127 -1.435692,-0.05127 z"
       style="fill:#003b57;stroke-width:1.2660414" />
  </g>
  <g
     fill="#fff"
     id="g29">
    <path
       d="m25.25 57.610352q0-.234375-.175781-.417969-.171875-.1875-.796875-.3125-.707032-.148438-1.117188-.421875-.40625-.273438-.40625-.796875 0-.5.425781-.867188.429688-.367187 1.140625-.367187.757813 0 1.183594.386719.425781.386718.425781.933593h-.722656q0-.261718-.230469-.492187-.230468-.234375-.65625-.234375-.449218 0-.644531.195312-.195312.195313-.195312.425782 0 .234375.1875.378906.1875.140625.785156.273437.777344.179688 1.148437.464844.371094.285156.371094.796875 0 .558594-.449219.90625-.445312.347656-1.183593.347656-.839844 0-1.285157-.429687-.445312-.429688-.445312-.953125h.726562q.02344.449219.34375.621094.324219.167968.660157.167968.441406 0 .675781-.171875.234375-.171875.234375-.433593z"
       id="path17" />
    <path
       d="m30.300781 54.504883v5.851562h-.726562v-2.015625q-.433594.46875-1.164063.46875-.78125 0-1.230469-.609375-.445312-.609375-.445312-1.535156v-.08203q0-.96875.445312-1.5625.445313-.59375 1.238282-.59375.75 0 1.1875.503906l.03125-.425781zm-2.839844 2.160156q0 .628906.269532 1.089844.273437.460937.859375.460937.359375 0 .597656-.160156.238281-.160156.386719-.40625v-2.074219q-.148438-.242187-.386719-.398437-.238281-.15625-.589844-.15625-.59375 0-.867187.46875-.269532.464844-.269532 1.09375z"
       id="path19" />
    <path
       d="m32.246094 52.731445v6h-.726563v-6z"
       id="path21" />
    <path
       d="m33.417969 53.383789q0-.175781.105468-.296875.109375-.121094.320313-.121094.207031 0 .316406.121094.113281.121094.113281.296875 0 .167969-.113281.289063-.109375.117187-.316406.117187-.210938 0-.320313-.117187-.105468-.121094-.105468-.289063zm.78125 1.121094v4.226562h-.726563v-4.226562z"
       id="path23" />
    <path
       d="m37.15625 58.731445q-.08594.02734-.226563.05078-.136718.02734-.332031.02734-.402344 0-.6875-.246093-.285156-.246089-.285156-.882808v-2.621094h-.773438v-.554687h.773438v-1.027344h.722656v1.027344h.789063v.554687h-.789063v2.625q0 .324219.140625.414063.140625.08984.324219.08984.08984 0 .1875-.01563.101562-.01953.152344-.03125z"
       id="path25" />
    <path
       d="m41.335937 57.993164q-.207031.3125-.585937.566406-.378906.25-1.003906.25-.882813 0-1.414063-.574218-.527344-.574219-.527344-1.46875v-.164063q0-.691406.261719-1.175781.265625-.488281.6875-.742188.421875-.257812.898438-.257812.90625 0 1.320312.59375.417969.589844.417969 1.476562v.324219h-2.859375q.01563.582031.34375.992188.332031.40625.910156.40625.382813 0 .648438-.15625.265625-.15625.464843-.417969zm-1.683593-2.972656q-.429688 0-.726563.3125-.296875.3125-.371094.898437h2.113282v-.05469q-.02734-.421875-.246094-.789063-.214844-.367187-.769531-.367187z"
       id="path27" />
  </g>
</svg>
