<svg height="64" viewBox="0 0 64 64" width="64" xmlns="http://www.w3.org/2000/svg" xmlns:xlink="http://www.w3.org/1999/xlink"><linearGradient id="a" gradientTransform="matrix(1.0749904 0 0 1.0292896 56.688954 -.015285)" gradientUnits="userSpaceOnUse" x1="-74.929466" x2="-75.259552" y1="52.199436" y2="2.356489"><stop offset="0" stop-color="#197cf1"/><stop offset="1" stop-color="#20bcfa"/></linearGradient><linearGradient gradientUnits="userSpaceOnUse" x1="404.33393" x2="412.17143" y1="516.973" y2="516.973"><stop offset="0"/><stop offset="1" stop-opacity="0"/></linearGradient><linearGradient id="b" gradientUnits="userSpaceOnUse" x1="3.364533" x2="36.073566" y1="1046.2201" y2="1007.7176"><stop offset="0" stop-color="#235ea2"/><stop offset="1" stop-color="#1992f1"/></linearGradient><g transform="translate(56.391766 -.176777)"><rect fill="#0b3969" height="7.69929" ry="2.5" width="44" x="-46.391766" y="54.477486"/><rect fill="url(#a)" height="52.831711" ry="2.5" width="44" x="-46.391766" y="1.645775"/><path d="m-46.391766 51.264462h44v7.911841h-44z" fill="#0b3969"/><g fill="#fff" transform="matrix(.81954967 0 0 .81954967 -4.634288 10.721775)"><path d="m-36.252564 59.374537q-.77 0-1.18-.41-.4-.41-.4-1.16v-2.57h-.86v-.84h.86v-1.5h.92v1.5h1.2v.84h-1.2v2.5q0 .8.66.8.25 0 .42-.08l.32.79q-.3.13-.74.13z"/><path d="m-34.466001 54.984537q.71-.75 1.81-.75 1.1 0 1.81.75.71.74.71 1.86 0 1.12-.71 1.87-.71.74-1.81.74-1.1 0-1.81-.74-.71-.75-.71-1.87 0-1.12.71-1.86zm.68 3.15q.48.48 1.13.48.65 0 1.12-.48.48-.49.48-1.29 0-.8-.48-1.28-.47-.49-1.12-.49-.65 0-1.13.49-.47.48-.47 1.28 0 .8.47 1.29z"/><path d="m-28.468189 59.294537h-.92v-4.9h.88v.8h.04q.14-.4.57-.66.44-.26.85-.26.41 0 .69.12l-.35.86q-.18-.07-.49-.07-.5 0-.89.4-.38.39-.38 1.03z"/><path d="m-24.835376 59.294537h-.92v-4.9h.88v.8h.04q.14-.4.57-.66.44-.26.85-.26.41 0 .69.12l-.35.86q-.18-.07-.49-.07-.5 0-.89.4-.38.39-.38 1.03z"/><path d="m-20.195533 59.454537q-1.11 0-1.81-.74-.69-.74-.69-1.87 0-1.07.67-1.84.68-.77 1.73-.77 1.09 0 1.74.71.66.71.66 1.9l-.01.17h-3.87q.04.74.49 1.17.46.43 1.07.43.99 0 1.34-.84l.82.34q-.24.57-.79.96-.55.38-1.35.38zm1.32-3.2q-.03-.42-.39-.8-.35-.38-1.05-.38-.51 0-.89.32-.37.32-.51.86z"/><path d="m-16.18397 54.394537v.68h.04q.2-.35.63-.59.43-.25.92-.25.91 0 1.39.56.48.56.48 1.5v3h-.92v-2.86q0-1.36-1.21-1.36-.57 0-.93.46-.36.45-.36 1.05v2.71h-.92v-4.9z"/><path d="m-9.7681888 59.374537q-.7700002 0-1.1800002-.41-.4-.41-.4-1.16v-2.57h-.86v-.84h.86v-1.5h.92v1.5h1.2000002v.84h-1.2000002v2.5q0 .8.6600002.8.25 0 .42-.08l.32.79q-.3.13-.74.13z"/></g><g fill="url(#b)" stroke-width="1.3" transform="matrix(.7857149227 0 0 .7857149227 -339.126700598232 -390.664798414593)"><circle cx="400.57138" cy="531.79791" fill="url(#b)" r="13.999958"/><circle cx="400.57144" cy="531.79797" fill="#0b3969" r="13.999958"/><circle cx="400.57138" cy="531.79791" fill="url(#b)" r="0"/></g><g fill="#1c98f5" transform="matrix(.48936619931 0 0 .48936619931 -233.785726552045 -222.687330113149)"><path d="m416.51125 503.96117c-3.645 3.65517-5.64798 8.53043-5.63781 13.73613.0152 10.85875 8.14696 15.80603 18.1323 15.30028l.11973-.10815c-8.84562 0-14.86122-6.32065-14.87647-15.20185-.005-4.3008 1.64203-8.32751 4.65157-11.34214 3.0248-3.02988 7.08158-4.70241 11.42305-4.70241v-3.37557c-5.24636 0-10.14704 2.0233-13.81238 5.69373"/><path d="m426.59451 503.35086c-3.88394 1.04724-7.08666 3.48232-9.01846 6.85789-4.05679 7.09175-1.9013 15.74927 5.12435 20.58386 5.40001 4.74257 14.71367.67754 16.83911-1.08381-.17793.0457-5.75158 4.60186-14.92256-1.69683-5.5463-3.81276-7.27475-10.59441-4.10762-16.12546 1.48444-2.5876 3.95511-4.46348 6.96466-5.27178 3.0858-.83373 6.27835-.42703 8.99304 1.13874l1.68779-2.9282c-3.49758-2.01823-7.6052-2.54185-11.56031-1.47427"/><path d="m425.7034 508.96637c-3.37048 1.94705-5.25653 5.49039-5.25653 9.13031 0 1.68778.42195 3.39082 1.27092 4.96676l-.0102.0102c0 .005.0305.0559.0407.0763h-.005s.0203.0305.0356.0559c.0203.0407.0712.13218.0763.13726.5287.90998 2.56726 3.97544 7.03582 5.60223 5.41611 1.97683 7.23934 1.82836 9.76869 1.37607 2.7532-1.57322 4.22759-2.97515 4.22759-2.97515-2.89677.31368-7.00282.55615-12.84228-1.57316-3.51792-1.28109-4.9871-3.61959-5.25654-4.10254s-.0102-.0153-.0102-.0203c-.64563-1.12349-.95574-2.34866-.95574-3.55858 0-2.47067 1.28109-4.87526 3.56875-6.2021 1.6522-.95065 3.57892-1.20483 5.4243-.71171 1.84029.49311 3.38065 1.67761 4.33638 3.32981l2.97904-1.58611-.0559-.10167c-1.40309-2.43509-3.67042-4.17371-6.38511-4.90576-2.71469-.72697-5.55139-.35078-7.98648 1.05232"/></g><circle cx="-24.391766" cy="27.176777" fill="none" r="10.747507" stroke="#0b3969" stroke-width=".504985"/></g></svg>