<?xml version="1.0" encoding="UTF-8" standalone="no"?>
<svg
   xmlns:osb="http://www.openswatchbook.org/uri/2009/osb"
   xmlns:dc="http://purl.org/dc/elements/1.1/"
   xmlns:cc="http://creativecommons.org/ns#"
   xmlns:rdf="http://www.w3.org/1999/02/22-rdf-syntax-ns#"
   xmlns:svg="http://www.w3.org/2000/svg"
   xmlns="http://www.w3.org/2000/svg"
   xmlns:xlink="http://www.w3.org/1999/xlink"
   xmlns:sodipodi="http://sodipodi.sourceforge.net/DTD/sodipodi-0.dtd"
   xmlns:inkscape="http://www.inkscape.org/namespaces/inkscape"
   width="64"
   viewBox="0 0 64 64"
   height="64"
   id="svg2"
   version="1.1"
   inkscape:version="0.91 r13725"
   sodipodi:docname="application-x-shar.svg"
   inkscape:export-filename="E:\Usuarios\David\Desktop\android.png"
   inkscape:export-xdpi="90"
   inkscape:export-ydpi="90">
  <metadata
     id="metadata14">
    <rdf:RDF>
      <cc:Work
         rdf:about="">
        <dc:format>image/svg+xml</dc:format>
        <dc:type
           rdf:resource="http://purl.org/dc/dcmitype/StillImage" />
        <dc:title></dc:title>
      </cc:Work>
    </rdf:RDF>
  </metadata>
  <defs
     id="defs12">
    <linearGradient
       osb:paint="gradient"
       id="linearGradient4207">
      <stop
         id="stop3371"
         offset="0"
         style="stop-color:#3498db;stop-opacity:1;" />
      <stop
         id="stop3373"
         offset="1"
         style="stop-color:#3498db;stop-opacity:0;" />
    </linearGradient>
    <linearGradient
       inkscape:collect="always"
       xlink:href="#linearGradient4422-35"
       id="linearGradient4182"
       x1="-74.929466"
       y1="52.199436"
       x2="-75.259552"
       y2="2.3564887"
       gradientUnits="userSpaceOnUse"
       gradientTransform="matrix(1.0749904,0,0,1.0292896,56.688954,-0.01528455)" />
    <linearGradient
       id="linearGradient4422-35">
      <stop
         id="stop4424-8"
         offset="0"
         style="stop-color:#ff1526;stop-opacity:1" />
      <stop
         id="stop4426-2"
         offset="1"
         style="stop-color:#ff461c;stop-opacity:1" />
    </linearGradient>
  </defs>
  <sodipodi:namedview
     pagecolor="#747474"
     bordercolor="#666666"
     borderopacity="1"
     objecttolerance="10"
     gridtolerance="10"
     guidetolerance="10"
     inkscape:pageopacity="1"
     inkscape:pageshadow="2"
     inkscape:window-width="1366"
     inkscape:window-height="642"
     id="namedview10"
     showgrid="false"
     inkscape:zoom="7.4552197"
     inkscape:cx="14.370557"
     inkscape:cy="28.724175"
     inkscape:window-x="0"
     inkscape:window-y="33"
     inkscape:window-maximized="1"
     inkscape:current-layer="g4186"
     inkscape:snap-bbox="true"
     inkscape:bbox-nodes="true"
     inkscape:object-nodes="true"
     borderlayer="false"
     showguides="true"
     inkscape:snap-nodes="true"
     inkscape:object-paths="false"
     inkscape:showpageshadow="false"
     showborder="true">
    <inkscape:grid
       type="xygrid"
       id="grid4160"
       visible="true" />
    <sodipodi:guide
       position="28.888657,63.404975"
       orientation="0,35.2"
       id="guide6108" />
    <sodipodi:guide
       position="54,55.679691"
       orientation="51.200004,0"
       id="guide6112" />
    <sodipodi:guide
       position="58.527669,62"
       orientation="0,1"
       id="guide6114"
       inkscape:label=""
       inkscape:color="rgb(0,0,255)" />
    <sodipodi:guide
       position="10,4"
       orientation="-56,0"
       id="guide6116" />
    <sodipodi:guide
       position="11,4"
       orientation="-2.8421709e-014,0"
       id="guide6118" />
    <sodipodi:guide
       position="12,62"
       orientation="0,35.2"
       id="guide6120" />
    <sodipodi:guide
       position="52,2"
       orientation="0,-40"
       id="guide6126" />
    <sodipodi:guide
       position="12,62"
       orientation="0,35.2"
       id="guide6138" />
    <sodipodi:guide
       position="55,3"
       orientation="0,-40"
       id="guide6156" />
    <sodipodi:guide
       position="53,4.3973202"
       orientation="-56,0"
       id="guide6158" />
    <sodipodi:guide
       position="43,48"
       orientation="22,0"
       id="guide4240" />
    <sodipodi:guide
       position="43,26"
       orientation="0,-22"
       id="guide4242" />
    <sodipodi:guide
       position="21,26"
       orientation="-22,0"
       id="guide4244" />
  </sodipodi:namedview>
  <g
     id="g4186"
     transform="translate(56.391766,-0.17677665)">
    <rect
       ry="2.5"
       y="54.477486"
       x="-46.391766"
       height="7.6992903"
       width="44"
       id="rect4162"
       style="opacity:1;fill:#6f0a10;fill-opacity:1;stroke:none;stroke-width:0.185;stroke-linecap:round;stroke-linejoin:round;stroke-miterlimit:4;stroke-dasharray:none;stroke-dashoffset:0;stroke-opacity:1" />
    <rect
       ry="2.5"
       y="1.6457753"
       x="-46.391766"
       height="52.831711"
       width="44"
       id="rect4174"
       style="opacity:1;fill:url(#linearGradient4182);fill-opacity:1.0;stroke:none;stroke-width:0.30000001;stroke-linecap:round;stroke-linejoin:round;stroke-miterlimit:4;stroke-dasharray:none;stroke-dashoffset:0;stroke-opacity:1" />
    <rect
       ry="0"
       y="51.264462"
       x="-46.391766"
       height="7.9118414"
       width="44"
       id="rect4184"
       style="opacity:1;fill:#6f0a10;fill-opacity:1;stroke:none;stroke-width:0.185;stroke-linecap:round;stroke-linejoin:round;stroke-miterlimit:4;stroke-dasharray:none;stroke-dashoffset:0;stroke-opacity:1" />
    <g
       inkscape:transform-center-y="-9.4924686"
       inkscape:transform-center-x="5.4653607"
       inkscape:label="Capa 1"
       id="layer1-4"
       transform="translate(-509.70748,-515.64674)">
      <g
         id="layer1-3-65"
         inkscape:label="Capa 1"
         transform="translate(0.41988239,0.03484499)" />
    </g>
    <g
       inkscape:label="Capa 1"
       id="layer1-5"
       transform="matrix(0.84688321,0,0,0.84688321,-416.84979,-419.33873)">
      <g
         transform="matrix(1.5263052,0,0,1.5263052,376.49864,-1040.1735)"
         id="g4414">
        <g
           inkscape:label="Capa 1"
           id="layer1-0"
           transform="matrix(0.42549858,0,0,0.42549858,-116.82388,804.06163)">
          <rect
             style="opacity:1;fill:#6f0a10;fill-opacity:1;stroke:none;stroke-width:2.79999995;stroke-miterlimit:4;stroke-dasharray:none;stroke-opacity:0.55026455"
             id="rect4319"
             width="36"
             height="39.999969"
             x="390.57144"
             y="503.798"
             ry="1.9999958" />
          <g
             style="fill:#ffffff;fill-opacity:1"
             id="layer1-7"
             inkscape:label="Capa 1"
             transform="translate(-0.71741557,0.01714041)">
            <rect
               style="opacity:0.92900002;fill:#ffffff;fill-opacity:1;stroke:none;stroke-width:1.02600002;stroke-linecap:round;stroke-linejoin:round;stroke-miterlimit:4;stroke-dasharray:none;stroke-opacity:1"
               id="rect4199"
               width="4"
               height="2"
               x="407.3606"
               y="504.89221"
               ry="0.88864768" />
            <rect
               style="opacity:0.92900002;fill:#ffffff;fill-opacity:1;stroke:none;stroke-width:1.02600002;stroke-linecap:round;stroke-linejoin:round;stroke-miterlimit:4;stroke-dasharray:none;stroke-opacity:1"
               id="rect4199-5"
               width="4"
               height="2"
               x="407.35223"
               y="507.78485"
               ry="0.88864768" />
            <rect
               style="opacity:0.92900002;fill:#ffffff;fill-opacity:1;stroke:none;stroke-width:1.02600002;stroke-linecap:round;stroke-linejoin:round;stroke-miterlimit:4;stroke-dasharray:none;stroke-opacity:1"
               id="rect4199-5-3"
               width="4"
               height="2"
               x="407.32715"
               y="510.64264"
               ry="0.88864768" />
            <rect
               style="opacity:0.92900002;fill:#ffffff;fill-opacity:1;stroke:none;stroke-width:1.02600002;stroke-linecap:round;stroke-linejoin:round;stroke-miterlimit:4;stroke-dasharray:none;stroke-opacity:1"
               id="rect4199-5-3-9"
               width="4"
               height="2"
               x="407.37097"
               y="513.61755"
               ry="0.88864768" />
            <rect
               style="opacity:0.92900002;fill:#ffffff;fill-opacity:1;stroke:none;stroke-width:1.02600002;stroke-linecap:round;stroke-linejoin:round;stroke-miterlimit:4;stroke-dasharray:none;stroke-opacity:1"
               id="rect4199-5-3-9-2"
               width="4"
               height="2"
               x="407.37097"
               y="516.54028"
               ry="0.88864768" />
          </g>
          <rect
             style="opacity:0.92900002;fill:#ffffff;fill-opacity:1;stroke:none;stroke-width:1.02600002;stroke-linecap:round;stroke-linejoin:round;stroke-miterlimit:4;stroke-dasharray:none;stroke-opacity:1"
             id="rect4199-5-3-9-8"
             width="4"
             height="2"
             x="406.6535"
             y="519.54907"
             ry="0.88864768" />
          <path
             inkscape:connector-curvature="0"
             d="m 410.11783,524.47214 0,-1.26212 c 0,-0.35164 -0.28416,-0.63683 -0.63453,-0.63683 l -1.76295,0 c -0.35037,0 -0.6346,0.28526 -0.6346,0.63683 l 0,1.2615 -0.98056,2.89118 c -0.27435,0.80579 -0.14271,1.70105 0.35164,2.39489 0.49436,0.69257 1.29597,1.10622 2.14496,1.10622 0.84916,0 1.65084,-0.41365 2.14519,-1.10622 0.49435,-0.69384 0.62583,-1.5891 0.35156,-2.39426 z m -0.40955,4.53977 c -0.50867,0.71448 -1.70431,0.71448 -2.21306,0 -0.25497,-0.35792 -0.32285,-0.8196 -0.18195,-1.23564 l 0.32909,-0.96974 1.91878,0 0.32918,0.97037 c 0.14096,0.41541 0.0729,0.87709 -0.18204,1.23501 z"
             id="path7"
             style="opacity:1;fill:#ffffff;fill-opacity:1"
             sodipodi:nodetypes="csssscccscccccccccc" />
        </g>
      </g>
    </g>
    <g
       style="font-style:normal;font-weight:normal;font-size:13.75px;line-height:125%;font-family:sans-serif;letter-spacing:0px;word-spacing:0px;fill:#000000;fill-opacity:1;stroke:none;stroke-width:1px;stroke-linecap:butt;stroke-linejoin:miter;stroke-opacity:1"
       id="text4212"
       transform="matrix(0.55765978,0,0,0.55765978,11.982622,31.095735)">
      <path
         d="m -74.044204,50.446818 q -1.1275,0 -1.87,-0.55 -0.72875,-0.55 -1.0725,-1.375 l 1.1275,-0.4675 q 0.53625,1.265 1.82875,1.265 0.59125,0 0.9625,-0.26125 0.385,-0.26125 0.385,-0.6875 0,-0.66 -0.92125,-0.89375 l -1.36125,-0.33 q -0.64625,-0.165 -1.22375,-0.61875 -0.5775,-0.4675 -0.5775,-1.25125 0,-0.89375 0.78375,-1.44375 0.7975,-0.56375 1.88375,-0.56375 0.89375,0 1.595,0.4125 0.70125,0.39875 1.00375,1.155 l -1.1,0.45375 q -0.37125,-0.89375 -1.54,-0.89375 -0.56375,0 -0.94875,0.23375 -0.385,0.23375 -0.385,0.6325 0,0.5775 0.89375,0.78375 l 1.33375,0.31625 q 0.94875,0.22 1.4025,0.75625 0.45375,0.53625 0.45375,1.21 0,0.9075 -0.7425,1.5125 -0.7425,0.605 -1.91125,0.605 z"
         style="font-style:normal;font-variant:normal;font-weight:normal;font-stretch:normal;font-family:'Product Sans';-inkscape-font-specification:'Product Sans';fill:#ffffff;fill-opacity:1"
         id="path4217"
         inkscape:connector-curvature="0" />
      <path
         d="m -69.02438,40.381818 0,3.1075 -0.055,0.935 0.055,0 q 0.275,-0.48125 0.86625,-0.81125 0.59125,-0.34375 1.265,-0.34375 1.25125,0 1.91125,0.77 0.66,0.77 0.66,2.0625 l 0,4.125 -1.265,0 0,-3.9325 q 0,-1.87 -1.66375,-1.87 -0.78375,0 -1.27875,0.6325 -0.495,0.61875 -0.495,1.44375 l 0,3.72625 -1.265,0 0,-9.845 1.265,0 z"
         style="font-style:normal;font-variant:normal;font-weight:normal;font-stretch:normal;font-family:'Product Sans';-inkscape-font-specification:'Product Sans';fill:#ffffff;fill-opacity:1"
         id="path4219"
         inkscape:connector-curvature="0" />
      <path
         d="m -60.772876,50.446818 q -1.0725,0 -1.80125,-0.61875 -0.715,-0.61875 -0.715,-1.63625 0,-1.1 0.8525,-1.71875 0.8525,-0.6325 2.10375,-0.6325 1.11375,0 1.82875,0.4125 l 0,-0.1925 q 0,-0.7425 -0.50875,-1.1825 -0.50875,-0.45375 -1.25125,-0.45375 -0.55,0 -1.00375,0.26125 -0.44,0.26125 -0.605,0.715 l -1.155,-0.495 q 0.23375,-0.605 0.92125,-1.11375 0.6875,-0.5225 1.815,-0.5225 1.2925,0 2.145,0.75625 0.8525,0.75625 0.8525,2.13125 l 0,4.07 -1.21,0 0,-0.935 -0.055,0 q -0.75625,1.155 -2.21375,1.155 z m 0.20625,-1.155 q 0.78375,0 1.41625,-0.5775 0.64625,-0.59125 0.64625,-1.38875 -0.53625,-0.44 -1.60875,-0.44 -0.92125,0 -1.38875,0.39875 -0.4675,0.39875 -0.4675,0.935 0,0.495 0.42625,0.78375 0.42625,0.28875 0.97625,0.28875 z"
         style="font-style:normal;font-variant:normal;font-weight:normal;font-stretch:normal;font-family:'Product Sans';-inkscape-font-specification:'Product Sans';fill:#ffffff;fill-opacity:1"
         id="path4221"
         inkscape:connector-curvature="0" />
      <path
         d="m -54.602993,50.226818 -1.265,0 0,-6.7375 1.21,0 0,1.1 0.055,0 q 0.1925,-0.55 0.78375,-0.9075 0.605,-0.3575 1.16875,-0.3575 0.56375,0 0.94875,0.165 l -0.48125,1.1825 q -0.2475,-0.09625 -0.67375,-0.09625 -0.6875,0 -1.22375,0.55 -0.5225,0.53625 -0.5225,1.41625 l 0,3.685 z"
         style="font-style:normal;font-variant:normal;font-weight:normal;font-stretch:normal;font-family:'Product Sans';-inkscape-font-specification:'Product Sans';fill:#ffffff;fill-opacity:1"
         id="path4223"
         inkscape:connector-curvature="0" />
    </g>
  </g>
</svg>
