<svg height="64" viewBox="0 0 64 64" width="64" xmlns="http://www.w3.org/2000/svg" xmlns:xlink="http://www.w3.org/1999/xlink"><linearGradient id="a" gradientTransform="matrix(1.0749904 0 0 1.0292896 56.688954 -.015285)" gradientUnits="userSpaceOnUse" x1="-74.929466" x2="-75.259552" y1="52.199436" y2="2.356489"><stop offset="0" stop-color="#8294a4"/><stop offset="1" stop-color="#aeb6be"/></linearGradient><g transform="translate(56.391766 -.176777)"><rect fill="#3a4148" height="7.69929" ry="2.5" width="44" x="-46.391766" y="54.477486"/><rect fill="url(#a)" height="52.831711" ry="2.5" width="44" x="-46.391766" y="1.645775"/><path d="m-46.391766 51.264462h44v7.911841h-44z" fill="#3a4148"/><g fill="#fff" transform="matrix(.81954967 0 0 .81954967 -5.334287 9.321375)"><path d="m-29.597526 61.163071q-.82 0-1.36-.4-.53-.4-.78-1l .82-.34q.39.92 1.33.92.43 0 .7-.19.28-.19.28-.5 0-.48-.67-.65l-.99-.24q-.47-.12-.89-.45-.42-.34-.42-.91 0-.65.57-1.05.58-.41 1.37-.41.65 0 1.16.3.51.29.73.84l-.8.33q-.27-.65-1.12-.65-.41 0-.69.17-.28.17-.28.46 0 .42.65.57l.97.23q.69.16 1.02.55.33.39.33.88 0 .66-.54 1.1-.54.44-1.39.44z"/><path d="m-25.925338 54.873071q-.19.19-.46.19-.27 0-.46-.19-.19-.19-.19-.46 0-.27.19-.46.19-.19.46-.19.27 0 .46.19.19.19.19.46 0 .27-.19.46zm0 6.13h-.92v-4.9h.92z"/><path d="m-22.646901 63.323071q-.87 0-1.42-.44-.55-.43-.79-.99l.84-.35q.14.4.51.67.38.27.86.27.76 0 1.19-.46.44-.45.44-1.23v-.47h-.04q-.24.36-.68.6-.44.24-.99.24-.95 0-1.64-.75-.69-.75-.69-1.86 0-1.11.69-1.86.69-.75 1.64-.75.55 0 .99.24.44.24.68.6h.04v-.68h.88v4.65q0 1.26-.73 1.91-.73.66-1.78.66zm.07-3q .65 0 1.1-.48.46-.48.46-1.29 0-.81-.46-1.29-.45-.48-1.1-.48-.64 0-1.1.49-.46.48-.46 1.28 0 .8.46 1.29.46.48 1.1.48z"/><path d="m-18.135182 56.103071v.68h.04q.2-.35.63-.59.43-.25.92-.25.91 0 1.39.56.48.56.48 1.5v3h-.92v-2.86q0-1.36-1.21-1.36-.57 0-.93.46-.36.45-.36 1.05v2.71h-.92v-4.9z"/></g><g fill="#3a4148" transform="matrix(.06470664 0 0 .06470664 -35.087877 16.108391)"><path d="m192.511 64.521c-2.746-2.745-7.162-2.862-10.046-.268-14.862 13.354-93 81.184-171.942 105.162l-.855.259c-2.051.623-3.727 2.114-4.582 4.082-.854 1.969-.801 4.209.146 6.133l.395.799c.004.011.008.019.015.027.271.564 11.653 24.328 13.133 57.811.916 20.82-2.101 40.832-8.945 59.519-2.442.19-4.834 1.215-6.703 3.084-4.168 4.167-4.166 10.921 0 15.087s10.92 4.167 15.086 0c2.408-2.409 3.416-5.682 3.039-8.82l76.486-76.489c1.908-1.907 2.609-4.71 1.824-7.289-2.703-8.89-.291-18.509 6.299-25.097 4.756-4.758 11.078-7.377 17.809-7.377s13.058 2.619 17.813 7.377c4.758 4.756 7.375 11.08 7.375 17.808s-2.617 13.051-7.377 17.81c-4.754 4.754-11.074 7.371-17.799 7.372-2.494 0-4.953-.362-7.31-1.075-2.582-.783-5.379-.08-7.283 1.824l-76.479 76.489c-3.142-.378-6.416.628-8.826 3.038-4.166 4.166-4.164 10.921 0 15.087 4.166 4.166 10.922 4.167 15.088 0 1.869-1.869 2.892-4.258 3.084-6.702 16.48-6.036 34.014-9.105 52.15-9.105 2.276 0 4.604.049 6.922.145 33.588 1.385 58.088 13.064 58.315 13.173l.775.382c1.014.498 2.117.749 3.221.748.99.001 1.98-.2 2.91-.603 1.963-.855 3.457-2.529 4.08-4.579l.258-.854c23.979-78.943 91.807-157.083 105.16-171.944 2.594-2.888 2.477-7.3-.271-10.046z" fill="#3a4148"/><path d="m337.857 86.974-84.837-84.835c-1.37-1.37-3.228-2.139-5.165-2.139-1.937-.001-3.796.768-5.164 2.137l-36.295 36.299c-2.854 2.853-2.854 7.477 0 10.329l84.84 84.834c1.369 1.371 3.225 2.14 5.164 2.14 1.936 0 3.793-.771 5.162-2.14l36.297-36.297c2.852-2.851 2.852-7.475-.002-10.328z" fill="#3a4148"/></g></g></svg>