<svg height="64" viewBox="0 0 64 64" width="64" xmlns="http://www.w3.org/2000/svg" xmlns:xlink="http://www.w3.org/1999/xlink">
  <linearGradient id="a" gradientTransform="matrix(.62392597 .36862722 -.36862722 .62392597 -29.404239 -446.02534)" gradientUnits="userSpaceOnUse" x1="408.30597" x2="413.58856" y1="529.15729" y2="496.34988">
    <stop offset="0" stop-color="#2a2c2f" />
    <stop offset="1" stop-color="#424649" />
  </linearGradient>
  <linearGradient id="b" gradientTransform="matrix(1.0749904 0 0 1.1689452 113.08072 -.417437)" gradientUnits="userSpaceOnUse" x1="-74.929466" x2="-75.259552" y1="52.199436" y2="2.356489">
    <stop offset="0" stop-color="#ff1526" />
    <stop offset="1" stop-color="#ff461c" />
  </linearGradient>
  <rect fill="url(#b)" height="60" ry="2.839204" stroke-width="1.06569" width="44" x="10" y="1.468998" />
  <path d="m10 50.556684h44v7.911841h-44zm2.5 3.213024h39c1.385 0 2.5 1.115 2.5 2.5v2.69929c0 1.385-1.115 2.5-2.5 2.5h-39c-1.385 0-2.5-1.115-2.5-2.5v-2.69929c0-1.385 1.115-2.5 2.5-2.5z" fill="#6f0a10" />
  <g fill="#fff" transform="matrix(.81954967 0 0 .81954967 52.85748 9.652202)">
    <path d="m-32.694168 59.172398h-.92v-4.9h.88v.8h.04q.14-.4.57-.66.44-.26.85-.26.41 0 .69.12l-.35.86q-.18-.07-.49-.07-.5 0-.89.4-.38.39-.38 1.03z" />
    <path d="m-27.431355 59.332398q-.56 0-1.01-.24-.44-.24-.66-.6h-.04l.04.68v2.16h-.92v-7.06h.88v.68h.04q.22-.36.66-.6.45-.24 1.01-.24.95 0 1.64.75.69.75.69 1.86 0 1.11-.69 1.86-.69.75-1.64.75zm-.15-.84q.64 0 1.1-.48.46-.49.46-1.29 0-.8-.46-1.28-.46-.49-1.1-.49-.65 0-1.11.48-.45.48-.45 1.29 0 .81.45 1.29.46.48 1.11.48z" />
    <path d="m-24.317293 59.172398v-4.9h.88v.68h.04q.21-.35.64-.59.44-.25.87-.25 1.14 0 1.55.94.6-.94 1.71-.94.87 0 1.31.56.44.55.44 1.5v3h-.92v-2.86q0-.74-.27-1.05-.27-.31-.82-.31-.54 0-.9.46-.35.46-.35 1.05v2.71h-.92v-2.86q0-.74-.27-1.05-.27-.31-.82-.31-.54 0-.9.46-.35.46-.35 1.05v2.71z" />
  </g>
  <g transform="translate(0 4)">
    <path d="m46 26.806227c0 7.731986-6.268014 6-14 6s-14 1.731986-14-6 6.268014-14 14-14 14 6.268014 14 14z" fill="none" stroke="#fff" stroke-miterlimit="10" stroke-width="2" />
    <path d="m34 31.737469a2 2 0 0 1 -2 2 2 2 0 0 1 -2-2 2 2 0 0 1 2-2 2 2 0 0 1 2 2z" fill="#fff" />
    <path d="m32 12.806641c-7.731986 0-14 6.268014-14 14 0 7.067805 5.255051 6.237494 12.060547 6.041015l8.351562-8.300781 5.34961-5.316406c-2.49245-3.861469-6.823878-6.423828-11.761719-6.423828z" fill="#fff" fill-opacity=".6" />
    <path d="m41.7422 20.703747c-.16692-.0014-.334535.05803-.466359.179131l-8.970679 8.405489c-.08558-.01025-.171695-.01541-.257887-.01544-1.200804.000047-2.174237.973479-2.174284 2.174283.000047 1.200805.973479 2.174237 2.174284 2.174284 1.200804-.000047 2.174236-.97348 2.174283-2.174284.000141-.103332-.0071-.206543-.02162-.308847l8.071934-9.307323c.228904-.275315.205269-.681297-.05405-.928085l-.01236-.01081c-.129625-.123437-.29635-.186956-.46327-.188397zm-9.673306 9.671762c.597014-.000032 1.080997.483951 1.080965 1.080965.000032.597014-.483951 1.080997-1.080965 1.080965-.597014.000032-1.080997-.483951-1.080965-1.080965-.000032-.597014.483951-1.080997 1.080965-1.080965z" fill="url(#a)" stroke-width=".724686" />
  </g>
</svg>
