<?xml version="1.0" encoding="UTF-8" standalone="no"?>
<svg
   xmlns:osb="http://www.openswatchbook.org/uri/2009/osb"
   xmlns:dc="http://purl.org/dc/elements/1.1/"
   xmlns:cc="http://creativecommons.org/ns#"
   xmlns:rdf="http://www.w3.org/1999/02/22-rdf-syntax-ns#"
   xmlns:svg="http://www.w3.org/2000/svg"
   xmlns="http://www.w3.org/2000/svg"
   xmlns:xlink="http://www.w3.org/1999/xlink"
   xmlns:sodipodi="http://sodipodi.sourceforge.net/DTD/sodipodi-0.dtd"
   xmlns:inkscape="http://www.inkscape.org/namespaces/inkscape"
   width="64"
   viewBox="0 0 64 64"
   height="64"
   id="svg2"
   version="1.1"
   inkscape:version="0.91 r13725"
   sodipodi:docname="application-x-rpm-fedora.svg"
   inkscape:export-filename="E:\Usuarios\David\Desktop\android.png"
   inkscape:export-xdpi="90"
   inkscape:export-ydpi="90">
  <metadata
     id="metadata14">
    <rdf:RDF>
      <cc:Work
         rdf:about="">
        <dc:format>image/svg+xml</dc:format>
        <dc:type
           rdf:resource="http://purl.org/dc/dcmitype/StillImage" />
        <dc:title></dc:title>
      </cc:Work>
    </rdf:RDF>
  </metadata>
  <defs
     id="defs12">
    <linearGradient
       osb:paint="gradient"
       id="linearGradient4207">
      <stop
         id="stop3371"
         offset="0"
         style="stop-color:#3498db;stop-opacity:1;" />
      <stop
         id="stop3373"
         offset="1"
         style="stop-color:#3498db;stop-opacity:0;" />
    </linearGradient>
    <linearGradient
       inkscape:collect="always"
       xlink:href="#linearGradient4422-79"
       id="linearGradient4182"
       x1="-74.929466"
       y1="52.199436"
       x2="-75.259552"
       y2="2.3564887"
       gradientUnits="userSpaceOnUse"
       gradientTransform="matrix(1.0749904,0,0,1.0292896,56.688954,-0.01528455)" />
    <linearGradient
       id="linearGradient4422-4">
      <stop
         style="stop-color:#d1d7df;stop-opacity:1"
         offset="0"
         id="stop4424-3" />
      <stop
         style="stop-color:#e0e5e7;stop-opacity:1"
         offset="1"
         id="stop4426-4" />
    </linearGradient>
    <linearGradient
       id="linearGradient4422">
      <stop
         style="stop-color:#debf85;stop-opacity:1"
         offset="0"
         id="stop4424" />
      <stop
         style="stop-color:#fde2a6;stop-opacity:1"
         offset="1"
         id="stop4426" />
    </linearGradient>
    <linearGradient
       id="linearGradient4422-45">
      <stop
         style="stop-color:#e2a041;stop-opacity:1"
         offset="0"
         id="stop4424-1" />
      <stop
         style="stop-color:#ffc352;stop-opacity:1"
         offset="1"
         id="stop4426-3" />
    </linearGradient>
    <linearGradient
       id="linearGradient4422-8">
      <stop
         style="stop-color:#e0494c;stop-opacity:1"
         offset="0"
         id="stop4424-7" />
      <stop
         style="stop-color:#ff705c;stop-opacity:1"
         offset="1"
         id="stop4426-9" />
    </linearGradient>
    <linearGradient
       id="linearGradient4351">
      <stop
         style="stop-color:#ffd6af;stop-opacity:1"
         offset="0"
         id="stop4353" />
      <stop
         style="stop-color:#fffcf9;stop-opacity:1"
         offset="1"
         id="stop4355" />
    </linearGradient>
    <linearGradient
       id="linearGradient4300">
      <stop
         style="stop-color:#f62459;stop-opacity:1"
         offset="0"
         id="stop4302" />
      <stop
         style="stop-color:#f73768;stop-opacity:1"
         offset="1"
         id="stop4304" />
    </linearGradient>
    <linearGradient
       id="linearGradient4422-79">
      <stop
         id="stop4424-5"
         offset="0"
         style="stop-color:#4469b9;stop-opacity:1" />
      <stop
         id="stop4426-5"
         offset="1"
         style="stop-color:#5d91ff;stop-opacity:1" />
    </linearGradient>
    <linearGradient
       id="linearGradient4256">
      <stop
         style="stop-color:#8cbdf8;stop-opacity:1;"
         offset="0"
         id="stop4258" />
      <stop
         style="stop-color:#d5e8ff;stop-opacity:1;"
         offset="1"
         id="stop4260" />
    </linearGradient>
    <linearGradient
       id="linearGradient4300-2">
      <stop
         style="stop-color:#3a539b;stop-opacity:1"
         offset="0"
         id="stop4302-4" />
      <stop
         style="stop-color:#3f5aa9;stop-opacity:1"
         offset="1"
         id="stop4304-1" />
    </linearGradient>
    <linearGradient
       id="linearGradient4422-1">
      <stop
         id="stop4424-33"
         offset="0"
         style="stop-color:#54b60f;stop-opacity:1" />
      <stop
         id="stop4426-3-4"
         offset="1"
         style="stop-color:#92dc41;stop-opacity:1" />
    </linearGradient>
    <linearGradient
       id="linearGradient4422-3">
      <stop
         id="stop4424-4"
         offset="0"
         style="stop-color:#e3473a;stop-opacity:1" />
      <stop
         id="stop4426-9-5"
         offset="1"
         style="stop-color:#ff3e29;stop-opacity:1" />
    </linearGradient>
    <linearGradient
       id="linearGradient4422-7">
      <stop
         id="stop4424-1-2"
         offset="0"
         style="stop-color:#cd2619;stop-opacity:1" />
      <stop
         id="stop4426-90"
         offset="1"
         style="stop-color:#ff5c4d;stop-opacity:1" />
    </linearGradient>
    <linearGradient
       id="linearGradient4422-35">
      <stop
         id="stop4424-8"
         offset="0"
         style="stop-color:#ff1526;stop-opacity:1" />
      <stop
         id="stop4426-2"
         offset="1"
         style="stop-color:#ff461c;stop-opacity:1" />
    </linearGradient>
  </defs>
  <sodipodi:namedview
     pagecolor="#747474"
     bordercolor="#666666"
     borderopacity="1"
     objecttolerance="10"
     gridtolerance="10"
     guidetolerance="10"
     inkscape:pageopacity="1"
     inkscape:pageshadow="2"
     inkscape:window-width="1366"
     inkscape:window-height="712"
     id="namedview10"
     showgrid="false"
     inkscape:zoom="5.2716364"
     inkscape:cx="10.57912"
     inkscape:cy="28.154807"
     inkscape:window-x="0"
     inkscape:window-y="28"
     inkscape:window-maximized="1"
     inkscape:current-layer="g4186"
     inkscape:snap-bbox="true"
     inkscape:bbox-nodes="true"
     inkscape:object-nodes="true"
     borderlayer="false"
     showguides="true"
     inkscape:snap-nodes="true"
     inkscape:object-paths="false"
     inkscape:showpageshadow="false"
     showborder="true">
    <inkscape:grid
       type="xygrid"
       id="grid4160"
       visible="true" />
    <sodipodi:guide
       position="28.888657,63.404975"
       orientation="0,35.2"
       id="guide6108" />
    <sodipodi:guide
       position="54,55.679691"
       orientation="51.200004,0"
       id="guide6112" />
    <sodipodi:guide
       position="58.527669,62"
       orientation="0,1"
       id="guide6114"
       inkscape:label=""
       inkscape:color="rgb(0,0,255)" />
    <sodipodi:guide
       position="10,4"
       orientation="-56,0"
       id="guide6116" />
    <sodipodi:guide
       position="11,4"
       orientation="-2.8421709e-014,0"
       id="guide6118" />
    <sodipodi:guide
       position="12,62"
       orientation="0,35.2"
       id="guide6120" />
    <sodipodi:guide
       position="52,2"
       orientation="0,-40"
       id="guide6126" />
    <sodipodi:guide
       position="12,62"
       orientation="0,35.2"
       id="guide6138" />
    <sodipodi:guide
       position="55,3"
       orientation="0,-40"
       id="guide6156" />
    <sodipodi:guide
       position="53,4.3973202"
       orientation="-56,0"
       id="guide6158" />
    <sodipodi:guide
       position="43,48"
       orientation="22,0"
       id="guide4240" />
    <sodipodi:guide
       position="43,26"
       orientation="0,-22"
       id="guide4242" />
    <sodipodi:guide
       position="21,26"
       orientation="-22,0"
       id="guide4244" />
  </sodipodi:namedview>
  <g
     id="g4186"
     transform="translate(56.391766,-0.17677665)">
    <rect
       ry="2.5"
       y="54.477486"
       x="-46.391766"
       height="7.6992903"
       width="44"
       id="rect4162"
       style="opacity:1;fill:#00112b;fill-opacity:1;stroke:none;stroke-width:0.185;stroke-linecap:round;stroke-linejoin:round;stroke-miterlimit:4;stroke-dasharray:none;stroke-dashoffset:0;stroke-opacity:1" />
    <rect
       ry="2.5"
       y="1.6457753"
       x="-46.391766"
       height="52.831711"
       width="44"
       id="rect4174"
       style="opacity:1;fill:url(#linearGradient4182);fill-opacity:1.0;stroke:none;stroke-width:0.30000001;stroke-linecap:round;stroke-linejoin:round;stroke-miterlimit:4;stroke-dasharray:none;stroke-dashoffset:0;stroke-opacity:1" />
    <rect
       ry="0"
       y="51.264462"
       x="-46.391766"
       height="7.9118414"
       width="44"
       id="rect4184"
       style="opacity:1;fill:#00112b;fill-opacity:1;stroke:none;stroke-width:0.185;stroke-linecap:round;stroke-linejoin:round;stroke-miterlimit:4;stroke-dasharray:none;stroke-dashoffset:0;stroke-opacity:1" />
    <g
       style="font-style:normal;font-weight:normal;font-size:9.36996746px;line-height:125%;font-family:sans-serif;letter-spacing:0px;word-spacing:0px;fill:#ffffff;fill-opacity:1;stroke:none;stroke-width:1px;stroke-linecap:butt;stroke-linejoin:miter;stroke-opacity:1"
       id="text4161"
       transform="matrix(0.81954967,0,0,0.81954967,-3.534286,10.121829)">
      <g
         style="font-style:normal;font-weight:normal;font-size:13.75px;line-height:125%;font-family:sans-serif;letter-spacing:0px;word-spacing:0px;fill:#ffffff;fill-opacity:1;stroke:none;stroke-width:1px;stroke-linecap:butt;stroke-linejoin:miter;stroke-opacity:1"
         id="text4269">
        <path
           d="m -32.694168,59.172398 -0.92,0 0,-4.9 0.88,0 0,0.8 0.04,0 q 0.14,-0.4 0.57,-0.66 0.44,-0.26 0.85,-0.26 0.41,0 0.69,0.12 l -0.35,0.86 q -0.18,-0.07 -0.49,-0.07 -0.5,0 -0.89,0.4 -0.38,0.39 -0.38,1.03 l 0,2.68 z"
           style="font-style:normal;font-variant:normal;font-weight:normal;font-stretch:normal;font-size:10px;font-family:'Product Sans';-inkscape-font-specification:'Product Sans';fill:#ffffff;fill-opacity:1"
           id="path4204" />
        <path
           d="m -27.431355,59.332398 q -0.56,0 -1.01,-0.24 -0.44,-0.24 -0.66,-0.6 l -0.04,0 0.04,0.68 0,2.16 -0.92,0 0,-7.06 0.88,0 0,0.68 0.04,0 q 0.22,-0.36 0.66,-0.6 0.45,-0.24 1.01,-0.24 0.95,0 1.64,0.75 0.69,0.75 0.69,1.86 0,1.11 -0.69,1.86 -0.69,0.75 -1.64,0.75 z m -0.15,-0.84 q 0.64,0 1.1,-0.48 0.46,-0.49 0.46,-1.29 0,-0.8 -0.46,-1.28 -0.46,-0.49 -1.1,-0.49 -0.65,0 -1.11,0.48 -0.45,0.48 -0.45,1.29 0,0.81 0.45,1.29 0.46,0.48 1.11,0.48 z"
           style="font-style:normal;font-variant:normal;font-weight:normal;font-stretch:normal;font-size:10px;font-family:'Product Sans';-inkscape-font-specification:'Product Sans';fill:#ffffff;fill-opacity:1"
           id="path4206" />
        <path
           d="m -24.317293,59.172398 0,-4.9 0.88,0 0,0.68 0.04,0 q 0.21,-0.35 0.64,-0.59 0.44,-0.25 0.87,-0.25 1.14,0 1.55,0.94 0.6,-0.94 1.71,-0.94 0.87,0 1.31,0.56 0.44,0.55 0.44,1.5 l 0,3 -0.92,0 0,-2.86 q 0,-0.74 -0.27,-1.05 -0.27,-0.31 -0.82,-0.31 -0.54,0 -0.9,0.46 -0.35,0.46 -0.35,1.05 l 0,2.71 -0.92,0 0,-2.86 q 0,-0.74 -0.27,-1.05 -0.27,-0.31 -0.82,-0.31 -0.54,0 -0.9,0.46 -0.35,0.46 -0.35,1.05 l 0,2.71 -0.92,0 z"
           style="font-style:normal;font-variant:normal;font-weight:normal;font-stretch:normal;font-size:10px;font-family:'Product Sans';-inkscape-font-specification:'Product Sans';fill:#ffffff;fill-opacity:1"
           id="path4208" />
      </g>
    </g>
    <g
       inkscape:transform-center-y="-9.4924686"
       inkscape:transform-center-x="5.4653607"
       inkscape:label="Capa 1"
       id="layer1-4"
       transform="translate(-509.70748,-515.64674)">
      <g
         id="layer1-3-65"
         inkscape:label="Capa 1"
         transform="translate(0.41988239,0.03484499)" />
    </g>
    <path
       d="m -17.034954,10.965194 c -4.719088,0 -8.544298,3.825476 -8.544298,8.544387 l 0,4.531191 -4.509452,0 c -4.718999,0 -8.544209,3.806771 -8.544209,8.525504 0,4.719355 3.825388,8.544653 8.544209,8.544653 4.718393,0 8.543766,-3.825298 8.543766,-8.544653 l 0,-4.549911 4.509984,0 c 4.718393,0 8.5437658,-3.78814 8.5437658,-8.506784 0,-4.718911 -3.8253728,-8.544387 -8.5437658,-8.544387 z m -8.544298,21.606424 c -0.003,2.486472 -2.021648,4.502245 -4.509452,4.502245 -2.490467,0 -4.528068,-2.019073 -4.528068,-4.509555 0,-2.491355 2.037601,-4.547854 4.528068,-4.547854 l 3.872965,0 c 0.351792,0 0.637079,0.284754 0.637079,0.635968 0,6.22e-4 -4.44e-4,6.22e-4 -4.44e-4,0 l 0,3.917687 -1.33e-4,0 z m 8.543854,-8.53351 -3.873216,0 c -0.351807,0 -0.636354,-0.284577 -0.636354,-0.636679 l 0,-3.898893 c 0.0044,-2.487966 2.021649,-4.50294 4.50963,-4.50294 2.490467,0 4.528512,2.019162 4.528512,4.510162 0,2.490645 -2.038045,4.52835 -4.528512,4.52835 z"
       id="path4070"
       style="opacity:0.2;fill:#ffffff;fill-opacity:1;stroke:none;stroke-width:1.29989684;stroke-miterlimit:4;stroke-dasharray:none;stroke-opacity:1"
       inkscape:connector-curvature="0" />
    <path
       d="m -26.622571,23.945925 0,-4.531369 c 0,-4.719014 3.82521,-8.544476 8.544298,-8.544476 0.715866,0 1.224523,0.0811 1.887129,0.254092 0.966318,0.253485 1.755526,1.04509 1.75597,1.966597 4.29e-4,1.114052 -0.80821,1.92383 -2.01675,1.92383 -0.575754,0 -0.783822,-0.110249 -1.626793,-0.110249 -2.487966,0 -4.505441,2.014959 -4.509629,4.50294 l 0,3.898715 c 0,0.352102 0.284547,0.636664 0.636353,0.636664 l 2.963563,0 c 1.103619,0 1.99476,0.883564 1.995647,1.990024 0,1.107007 -0.892472,1.988514 -1.995647,1.988514 l -3.59996,0 0,4.55 c 0,4.718467 -3.825388,8.543765 -8.543766,8.543765 -0.716014,0 -1.2247,-0.0811 -1.887307,-0.254195 -0.966317,-0.253292 -1.755792,-1.045356 -1.756236,-1.966597 0,-1.113682 0.808077,-1.923815 2.017106,-1.923815 0.575176,0 0.783821,0.110397 1.626348,0.110397 2.487966,0 4.505974,-2.015152 4.509896,-4.502245 l 0,-3.919107 c 0,-0.351303 -0.285287,-0.635865 -0.637079,-0.635865 l -2.962763,0 c -1.103885,0 -1.99581,-0.880707 -1.99581,-1.987981 -2.96e-4,-1.113416 0.9011,-1.990468 2.01675,-1.990468 l 3.578414,0 0,-8.9e-5 z"
       id="path4072"
       style="fill:#ffffff;fill-opacity:0.85;stroke:none;stroke-width:1.29989684;stroke-miterlimit:4;stroke-dasharray:none;stroke-opacity:1"
       inkscape:connector-curvature="0" />
  </g>
</svg>
