<svg height="64" viewBox="0 0 64 64" width="64" xmlns="http://www.w3.org/2000/svg" xmlns:xlink="http://www.w3.org/1999/xlink"><linearGradient id="a" gradientTransform="matrix(1.0749904 0 0 1.2428384 113.08072 -.536685)" gradientUnits="userSpaceOnUse" x1="-74.929466" x2="-75.259552" y1="52.199436" y2="2.356489"><stop offset="0" stop-color="#197df1"/><stop offset="1" stop-color="#20bcfa"/></linearGradient><linearGradient id="b"><stop offset="0" stop-color="#3889e9"/><stop offset="1" stop-color="#5ea5fb"/></linearGradient><linearGradient id="c" gradientUnits="userSpaceOnUse" x1="399.57144" x2="399.57144" xlink:href="#b" y1="545.79797" y2="517.79797"/><linearGradient id="d" gradientUnits="userSpaceOnUse" x1="-165.13341264324" x2="-165.13341264324" xlink:href="#b" y1="33.171751643005" y2="-12.677310356995"/><g transform="translate(56.391766 -.176777)"><path d="m-34.284634 37.053788c.769109-.694492 1.571785-1.415516 1.78372-1.602274.211936-.186751.386591-.358654.388112-.381997.0026-.04262-2.250918-1.559143-2.353073-1.58338-.03024-.0068-.07439.04953-.09909.127329-.055.173292-.756909 2.798689-1.148072 4.294442-.08344.319156-.08472.408602-.0059.408602.01964 0 .664973-.568224 1.43409-1.262722zm21.292754 1.122989c.409531-.536924.639027-1.698739.541297-2.740321-.111191-1.184935-.433626-2.004988-1.051821-2.675129-.458521-.497039-.846974-.605368-1.290934-.360013-.692192.382535-1.348882.788076-1.446518.893297-.291244.313886-.271234.824924.05791 1.477795.332795.660235.694481 1.037191 1.49929 1.562617.830347.542092 1.16736.956518 1.349299 1.659241.05842.225475.11852.319701.205277.321597.01631.000453.07763-.06226.136247-.139084zm-17.978579-4.871855c1.570664-2.800243 3.574645-6.274869 4.819254-8.355923.271448-.453866.493529-.838357.493529-.854422 0-.05193-2.336939-1.48828-2.399002-1.47454-.06243.01384-2.151803 3.530877-3.635181 6.119072-.470249.820464-1.169145 1.988352-1.553124 2.595301-.383977.606955-.756161 1.195397-.827083 1.307646-.07439.117776-.112942.219428-.0911.240368.10517.100814 2.463032 1.609977 2.498475 1.599166.02272-.0068.335119-.53643.694235-1.176668zm15.26599-.994694c.606958-.345145 1.140037-.661736 1.184627-.703544.07935-.07438.07627-.08429-.147769-.471246-.125871-.217384-.431711-.748595-.679656-1.180468-.247942-.431874-.479411-.790845-.514375-.797722-.09261-.01819-2.386791 1.320315-2.402463 1.401697-.01307.06773 1.191793 2.191766 1.325592 2.336846.03843.04168.08353.06824.100206.05893.01666-.0093.52688-.299314 1.133838-.64446zm4.571363-2.244777c.01709-.03058.02699-.683942.02186-1.451881l-.0092-1.396265-2.581671-.01093c-2.252668-.0096-2.579909-.0034-2.567883.05141.0077.03433.367041.692534.798804 1.462734l.785027 1.400365.169969.01256c.0935.0068.885929.0068 1.760983 0 1.257764-.0098 1.597527-.02409 1.622139-.06807zm-8.167694-.05987c.0068-.02127-.320283-.638275-.727515-1.371046l-.740433-1.332301h-3.14792-3.147915l-.743298 1.345772c-.408806.740164-.733922 1.360915-.722478 1.379439.02963.04791 9.213562.02613 9.229559-.02186zm-13.521883-.230963c.08421-.145908.431951-.747338.772817-1.336531.340863-.589186.619759-1.090707.619759-1.114483 0-.02904-.869718-.03963-2.642164-.03228l-2.642158.01093-.01417.297111c-.0077.163408-.000896.779384.01537 1.368833l.02955 1.071711h1.853939 1.85394zm15.568995-.541127c1.077913-.59329 1.061114-.582863 1.061114-.658719 0-.07388-.567961-1.078119-2.496119-4.413424-2.119435-3.666192-3.05285-5.282276-3.673223-6.359745-.611499-1.062078-.756127-1.260016-1.018426-1.393831-.206598-.105399-.536838-.121779-.750389-.03724-.20342.08053-.920209.497928-1.10977.6462-.303995.23779-.419241.707994-.264376 1.078649.08353.199944.02673.100301 2.031663 3.561725 3.156386 5.449289 4.778841 8.197372 4.879201 8.264289.02477.01657.140759-.02374.257671-.08946.116898-.06576.604097-.335058 1.082654-.598467zm-7.796186-6.271196c.502625-.838619.576254-.985374.607035-1.209966.06397-.466515-.181551-.779119-.957303-1.219014-.439783-.249378-.511259-.276416-.769135-.290989-.352394-.0199-.526376.05415-.768921.327388-.181652.204627-.884664 1.455829-.883418 1.572282.000454.04159.437946.335046 1.156607.775768.635739.389873 1.169076.709804 1.185183.710948.01614.000726.209588-.298741.429952-.666417z" fill="#fff"/><path d="m54 51.087891h-44v8.412109c0 .6925.278594 1.317656.730469 1.769531s1.077031.730469 1.769531.730469h39c .6925 0 1.317656-.278594 1.769531-.730469s.730469-1.077031.730469-1.769531z" fill="url(#a)" transform="translate(-56.391766 .176777)"/><path d="m13.019531 1.46875c-1.672348 0-3.019531 1.3471826-3.019531 3.0195312v46.5996098h44v-46.5996098c0-1.6723486-1.347183-3.0195312-3.019531-3.0195312z" fill="url(#a)" transform="translate(-56.391766 .176777)"/><path d="m-46.391766 51.264668v5.71289 2.199219.5c0 1.385 1.115 2.5 2.5 2.5h39c1.385 0 2.5-1.115 2.5-2.5v-.5-2.199219-5.71289z" fill="#0b3969"/><g fill="#fff"><path d="m-36.699764 59.565778q-.615 0-1.02-.3-.3975-.3-.585-.75l.615-.255q.2925.69.9975.69.3225 0 .525-.1425.21-.1425.21-.375 0-.36-.5025-.4875l-.7425-.18q-.3525-.09-.6675-.3375-.315-.255-.315-.6825 0-.4875.4275-.7875.435-.3075 1.0275-.3075.4875 0 .87.225.3825.2175.5475.63l-.6.2475q-.2025-.4875-.84-.4875-.3075 0-.5175.1275-.21.1275-.21.345 0 .315.4875.4275l.7275.1725q.5175.12.765.4125.2475.2925.2475.66 0 .495-.405.825-.405.33-1.0425.33z"/><path d="m-34.285233 56.213278q.5325-.5625 1.3575-.5625.825 0 1.3575.5625.5325.555.5325 1.395 0 .84-.5325 1.4025-.5325.555-1.3575.555-.825 0-1.3575-.555-.5325-.5625-.5325-1.4025 0-.84.5325-1.395zm.51 2.3625q.36.36.8475.36.4875 0 .84-.36.36-.3675.36-.9675 0-.6-.36-.96-.3525-.3675-.84-.3675-.4875 0-.8475.3675-.3525.36-.3525.96 0 .6.3525.9675z"/><path d="m-26.545819 59.505778q-.5775 0-.885-.3075-.3-.3075-.3-.87v-1.9275h-1.65v3.045h-.69v-3.045h-.69v-.63h.69v-.4875q0-.5625.36-.9.36-.3375.945-.3375.33 0 .555.0975l-.24.5925q-.12-.06-.315-.06-.27 0-.4425.165-.1725.1575-.1725.465v.465h1.65v-1.125h.69v1.125h.9v.63h-.9v1.875q0 .6.495.6.1875 0 .315-.06l.24.5925q-.225.0975-.555.0975z"/><path d="m-21.344569 59.445778h-.705l-.915-2.82-.9075 2.82h-.6975l-1.185-3.675h.72l.8175 2.775h.0075l.9075-2.775h.7125l.9075 2.775h.0075l.81-2.775h.705z"/><path d="m-18.621014 59.565778q-.585 0-.9825-.3375-.39-.3375-.39-.8925 0-.6.465-.9375.465-.345 1.1475-.345.6075 0 .9975.225v-.105q0-.405-.2775-.645-.2775-.2475-.6825-.2475-.3 0-.5475.1425-.24.1425-.33.39l-.63-.27q.1275-.33.5025-.6075.375-.285.99-.285.705 0 1.17.4125.465.4125.465 1.1625v2.22h-.66v-.51h-.03q-.4125.63-1.2075.63zm.1125-.63q.4275 0 .7725-.315.3525-.3225.3525-.7575-.2925-.24-.8775-.24-.5025 0-.7575.2175-.255.2175-.255.51 0 .27.2325.4275.2325.1575.5325.1575z"/><path d="m-15.255623 59.445778h-.69v-3.675h.66v.6h.03q.105-.3.4275-.495.33-.195.6375-.195.3075 0 .5175.09l-.2625.645q-.135-.0525-.3675-.0525-.375 0-.6675.3-.285.2925-.285.7725z"/><path d="m-11.775741 59.565778q-.8325 0-1.3575-.555-.5175-.555-.5175-1.4025 0-.8025.5025-1.38.51-.5775 1.2975-.5775.8175 0 1.305.5325.495.5325.495 1.425l-.0075.1275h-2.9025q.03.555.3675.8775.345.3225.8025.3225.7425 0 1.005-.63l.615.255q-.18.4275-.5925.72-.4125.285-1.0125.285zm.99-2.4q-.0225-.315-.2925-.6-.2625-.285-.7875-.285-.3825 0-.6675.24-.2775.24-.3825.645z"/></g><circle cx="400.57138" cy="531.79791" fill="url(#c)" r="0" transform="matrix(1.637466544097 0 0 1.637466544097 -693.298687175317 -838.967244054169)"/><circle cx="400.57138" cy="531.79791" fill="url(#c)" r="0" transform="matrix(1.5558699465 0 0 1.5558699465 -774.28922590333 -815.263608554056)"/><circle cx="-163.49606" cy="10.247132" fill="url(#d)" r="0"/><path d="m-31.201349 32.670152c-.40185 1.125891-.79885 2.253723-1.18755 3.384229h3.696745c.331998-1.124792.743585-2.22373 1.125038-3.332141-1.211154-.0272-2.425633.06027-3.634233-.05207zm13.609835-.0013c-1.243743.117118-2.493245.02913-3.739708.05467.363472 1.100477.765826 2.186835 1.115925 3.291779 1.27157.08979 2.546067.0172 3.819137.0404-.394254-1.130165-.77594-2.26563-1.195354-3.386835zm-13.130435-3.944271c-.923 0-1.66672.742417-1.66672 1.665422s.74372 1.666724 1.66672 1.666724h12.661896c.922998 0 1.665421-.743719 1.665421-1.666724s-.742423-1.665422-1.665421-1.665422zm-.0221.713567h7.996371c.553792 0 1.000034.444926 1.000034.998732 0 .553799-.446242 1.000034-1.000034 1.000034h-7.996371c-.5538 0-1.00003-.446235-1.00003-1.000034 0-.553806.44623-.998732 1.00003-.998732zm4.654887-9.376535c-.532372 1.107838-1.048883 2.244777-1.550833 3.414184-.486764 1.153953-.993328 2.373054-1.510473 3.665485-.114317.294337-.227887.613568-.343758.916698h3.38423c.0364-.10095.07859-.213087.114584-.31251.243368-.630869.458515-1.204835.656275-1.72792.197754-.523171.368733-.985447.520852-1.385467.152098-.400034.267709-.717085.343758-.947946.09126.230861.212474.547819.364599.947946.152112.40002.333532.862323.531265 1.385467.212954.523085.426781 1.097051.654976 1.72792.036.09942.07824.21156.114583.31251h3.509234c-.118604-.303217-.236368-.622274-.354179-.916698-.503157-1.292537-1.008641-2.511566-1.510465-3.665485-.50215-1.169247-1.014161-2.306253-1.531305-3.414184z" fill="#fff" stroke-width=".66669"/></g></svg>