<svg height="64" viewBox="0 0 64 64" width="64" xmlns="http://www.w3.org/2000/svg" xmlns:xlink="http://www.w3.org/1999/xlink">
  <linearGradient id="a" gradientTransform="matrix(1.0749904 0 0 1.0292896 113.08072 -.192062)" gradientUnits="userSpaceOnUse" x1="-74.929466" x2="-75.259552" y1="52.199436" y2="2.356489">
    <stop offset="0" stop-color="#197df1" />
    <stop offset="1" stop-color="#20bcfa" />
  </linearGradient>
  <rect fill="#0b3969" height="7.69929" ry="2.5" width="44" x="10" y="54.300709" />
  <rect fill="url(#a)" height="52.831711" ry="2.5" width="44" x="10" y="1.468998" />
  <path d="m10 51.087685h44v7.911841h-44z" fill="#0b3969" />
  <g fill="#fff" stroke-width=".198432">
    <path d="m16.571143 58.047944q0-.251916-.209284-.383687-.205408-.131771-.685986-.232538-.480578-.100766-.802255-.255791-.705363-.341055-.705363-.988285 0-.542587.457323-.906896.457324-.364309 1.162688-.364309.751872 0 1.213071.37206.465075.37206.465075.965031h-.941777q0-.271294-.201532-.449573-.201533-.182154-.534837-.182154-.31005 0-.507707.143398-.193781.143398-.193781.383687 0 .217035.182154.337179.182155.120145.736369.244165.554215.120144.868141.290672.317801.166652.46895.403065.155025.236413.155025.573593 0 .565841-.46895.918523-.468951.348806-1.228574.348806-.515458 0-.918523-.18603-.403065-.18603-.627852-.511582-.224786-.325553-.224786-.701489h.914648q.01938.333304.251915.515459.232538.178278.616225.178278.37206 0 .565841-.139522.193782-.143398.193782-.37206z" />
    <path d="m18.136896 57.051908q0-.616225.244164-1.108429.244165-.49608.685986-.759623.441822-.267418 1.015414-.267418.848762 0 1.375848.546463.53096.546463.573592 1.449484l.0039.220911q0 .6201-.240289 1.108429-.236413.488329-.68211.755747-.441822.267418-1.023166.267418-.887518 0-1.422354-.589095-.530961-.592971-.530961-1.57738zm.941777.08139q0 .64723.267418 1.015414.267418.364309.74412.364309.476703 0 .740245-.37206.267418-.37206.267418-1.089051 0-.635603-.275169-1.007663-.271294-.37206-.740245-.37206-.461199 0-.732493.368184-.271294.364309-.271294 1.092927z" />
    <path d="m25.380441 58.776562q-.414692.488328-1.178191.488328-.68211 0-1.034792-.399189-.348806-.39919-.348806-1.154937v-2.716814h.941777v2.705187q0 .798379.662732.798379.685986 0 .926275-.492204v-3.011362h.941777v4.193428h-.887518z" />
    <path d="m28.132136 54.99395.02713.484454q.465075-.561966 1.220822-.561966 1.309962 0 1.333215 1.499867v2.771073h-.941777v-2.716814q0-.39919-.174403-.589095-.170527-.193782-.561966-.193782-.569717 0-.848762.515459v2.984232h-.941777v-4.193428z" />
    <path d="m31.500055 57.059659q0-.968906.449572-1.554126.449573-.589095 1.20532-.589095.666608 0 1.077424.465075v-2.147097h.941777v5.952962h-.852638l-.04651-.43407q-.422443.511582-1.127807.511582-.736369 0-1.193693-.59297-.453448-.592971-.453448-1.612261zm.941777.08139q0 .639479.244164.999912.24804.356557.701489.356557.577468 0 .844886-.515458v-1.790539q-.259667-.503832-.837135-.503832-.457324 0-.705364.364309-.24804.360434-.24804 1.089051z" />
    <path d="m36.487986 59.187378v-3.495815h-.639478v-.697613h.639478v-.383687q0-.697612.387563-1.077424.387562-.379811 1.085175-.379811.24804 0 .527085.06976l-.02325.736369q-.155025-.03101-.360434-.03101-.674359 0-.674359.693737v.37206h.852638v.697613h-.852638v3.495815z" />
    <path d="m38.801734 57.051908q0-.616225.244165-1.108429.244164-.49608.685985-.759623.441822-.267418 1.015415-.267418.848762 0 1.375847.546463.530961.546463.573593 1.449484l.0039.220911q0 .6201-.240289 1.108429-.236413.488329-.68211.755747-.441821.267418-1.023165.267418-.887519 0-1.422355-.589095-.530961-.592971-.530961-1.57738zm.941777.08139q0 .64723.267419 1.015414.267418.364309.74412.364309.476702 0 .740244-.37206.267419-.37206.267419-1.089051 0-.635603-.27517-1.007663-.271294-.37206-.740244-.37206-.4612 0-.732494.368184-.271294.364309-.271294 1.092927z" />
    <path d="m44.378762 54.99395.02713.484454q.465075-.561966 1.220822-.561966 1.309962 0 1.333215 1.499867v2.771073h-.941777v-2.716814q0-.39919-.174403-.589095-.170528-.193782-.561966-.193782-.569717 0-.848762.515459v2.984232h-.941777v-4.193428z" />
    <path d="m49.10315 53.974661v1.019289h.740244v.697613h-.740244v2.340878q0 .240289.09302.348807.09689.104642.341055.104642.162776 0 .329428-.03876v.728618q-.321677.08914-.6201.08914-1.085176 0-1.085176-1.197568v-2.375757h-.689866v-.697613h.689861v-1.019289z" />
  </g>
  <g transform="matrix(.57851659 0 0 .57851659 -14.544846 20.052246)">
    <rect fill="#fff" height="36.242218" rx="2" width="36.242218" x="62.417156" y="-5.512192" />
    <path d="m62.693885 31.74621c-.546019-.189134-.968341-.499536-1.242237-.91304-.488453-.737429-.457228.593759-.435633-18.573164l.01966-17.4542974.199275-.424937c.253305-.540139.661213-.948051 1.201352-1.201352l.424939-.199277h17.609104 17.609104l.424937.199277c.540139.253301.94805.661213 1.201351 1.201352l.199278.424937v17.6091034 17.609104l-.199278.424937c-.253301.540139-.661212.94805-1.201351 1.201352l-.424937.199277-17.495006.01687c-16.679199.01608-17.513453.01048-17.890561-.120142zm10.474199-7.769481v-5.476698h-1.334169c-1.498348 0-1.757655-.06784-2.101378-.549751l-.177552-.248934-.02001-11.1653786-.02-11.1653798-2.655833.02182c-2.545767.02092-2.664535.02832-2.865773.178652-.11546.08626-.280506.251354-.366764.366883l-.156831.210052-.02169 16.0632104c-.01193 8.834765-.002 16.173447.02204 16.308182.05445.304991.374234.693659.680465.827045.183766.08004 1.144721.101658 4.624736.104016l4.392768.003zm12.170439 0v-5.476698h-1.334169c-1.498348 0-1.757655-.06784-2.101378-.549751l-.177552-.248934-.02001-11.1625736-.02-11.1625748h-1.216055-1.216047v11.0513758 11.0513746l-.171147.339395c-.125028.247938-.2626.385514-.510542.510542-.312925.157798-.441962.171146-1.654419.171146h-1.315024v5.476698 5.476698h4.868176 4.868175zm11.60874 5.281834c.115503-.08626.28058-.251356.366836-.366887l.156831-.210058v-16.266806-16.2668064l-.156831-.210057c-.08626-.115532-.251302-.280631-.366767-.366888-.201242-.150333-.319995-.157735-2.866763-.178655l-2.656826-.02182v11.0541838 11.0541826l-.171147.339395c-.125028.247938-.262603.385514-.510541.510542-.312924.157798-.441962.171146-1.654419.171146h-1.315025v5.478465 5.478465l4.482323-.02078c4.391928-.02036 4.486559-.02395 4.692329-.177614z" fill="#0b3969" stroke-width=".076065" />
  </g>
</svg>
