<svg height="64" viewBox="0 0 64 64" width="64" xmlns="http://www.w3.org/2000/svg" xmlns:xlink="http://www.w3.org/1999/xlink">
  <linearGradient id="a" gradientUnits="userSpaceOnUse" x1="-637.295922" x2="-637.295922" y1="-771.082342" y2="-856.361079">
    <stop offset="0" stop-color="#3889e9" />
    <stop offset="1" stop-color="#5ea5fb" />
  </linearGradient>
  <rect fill="#0b3969" height="7.69929" ry="2.5" width="44" x="10" y="54.300709" />
  <rect fill="url(#a)" height="52.831711" ry="2.5" width="44" x="10" y="1.468998" />
  <path d="m10 51.087685h44v7.911841h-44z" fill="#0b3969" />
  <path d="m32.418169 15.262438c-3.56419 0-6.84152.76783-9.233438 2.32421-2.3919 1.556379-3.894957 3.915397-3.89193 7.050137.01575 3.542665 2.310805 8.11377 5.080513 11.848953 1.384827 1.867583 2.889582 3.526477 4.29744 4.735028 1.407804 1.20855 2.71061 1.976695 3.738104 2.041671h.0088.0087c1.027495-.0651 2.330283-.833122 3.738088-2.041671 1.407822-1.208551 2.912595-2.867446 4.297457-4.735028 2.769725-3.735183 5.063556-8.306287 5.080495-11.848953.0013-3.13474-1.500065-5.493758-3.891947-7.050137-2.3919-1.55638-5.669265-2.32421-9.233455-2.32421z" fill="#fff" fill-opacity=".842742" fill-rule="evenodd" stroke-width="1.75" />
  <path d="m37.218483 24.285137c-.71093-1.0548-1.98642-1.667-3.78802-1.8194l-.003-.0002c-.1328-.015-.26036-.023-.37909-.023-.908273 0-1.230577.4547-1.230577.844v6.7762h-.000034c-.357225-.1076-.740404-.1387-1.118819-.091-.659425.083-1.250224.3928-1.663495.8718-.413303.4789-.599603 1.07-.524603 1.6641.139191 1.103 1.17148 1.9348 2.401304 1.9348.115472 0 .232588-.01.348191-.022 1.274798-.160901 2.200023-1.172001 2.200023-2.4041v-6.649001c.0957-.01.19156-.01.28505-.01 1.12395 0 2.15728.4702 2.98836 1.3597.34257.366701.58304.7313.7245.9727.0348.059.1025.091.17037.079.0676-.012.12066-.065.13295-.1323.1363-.7486.24711-2.1794-.5431-3.3518z" fill="#4d98f3" stroke-width="1.31742" />
  <g fill="#fff" stroke-width=".173849">
    <path d="m19.83672 59.27718q-.246094.07813-.558594.07813-.402344 0-.6875-.246094-.285156-.246094-.285156-.882813v-2.621093h-.773438v-.554688h.773438v-1.027344h.722656v1.027344h.789062v.554688h-.789062v2.625q0 .324218.140625.414062.140625.08984.324219.08984.136718 0 .339843-.04687z" />
    <path d="m22.97422 59.27718q-.07031-.152344-.101563-.445313-.203125.214844-.507812.371094-.304688.152344-.695313.152344-.648437 0-1.039062-.363282-.390625-.363281-.390625-.890625 0-.679687.515625-1.03125.515625-.355468 1.386718-.355468h.714844v-.335938q0-.375-.226562-.597656-.222657-.226563-.664063-.226563-.410156 0-.664062.203125-.25.199219-.25.464844h-.722657q0-.453125.457032-.851562.457031-.398438 1.222656-.398438.6875 0 1.128906.351563.441406.351562.441406 1.0625v1.898437q0 .585938.148438.929688v.0625zm-1.199219-.554688q.390625 0 .675781-.195312.289063-.195313.40625-.433594v-.871094h-.671875q-1.21875.02344-1.21875.78125 0 .300781.203125.511719.203125.207031.605469.207031z" />
    <path d="m27.994532 57.210773q0 .925782-.429687 1.535157-.429688.609375-1.214844.609375-.800781 0-1.234375-.566407l-.03906.488282h-.664062v-6h.726562v2.230468q.429688-.535156 1.203125-.535156.796875 0 1.222657.59375.429687.59375.429687 1.5625zm-1.832031-1.628906q-.394531 0-.640625.191406-.246094.1875-.382813.464844v1.839844q.140625.28125.390625.472656.25.191406.640625.191406.585938 0 .839844-.449218.257813-.453125.257813-1.082032v-.08203q0-.628906-.246094-1.085937-.242188-.460938-.859375-.460938z" />
    <path d="m29.393751 53.27718v6h-.726562v-6z" />
    <path d="m32.863282 59.27718q-.07031-.152344-.101562-.445313-.203125.214844-.507813.371094-.304687.152344-.695312.152344-.648438 0-1.039063-.363282-.390625-.363281-.390625-.890625 0-.679687.515625-1.03125.515625-.355468 1.386719-.355468h.714844v-.335938q0-.375-.226563-.597656-.222656-.226563-.664062-.226563-.410157 0-.664063.203125-.25.199219-.25.464844h-.722656q0-.453125.457031-.851562.457031-.398438 1.222656-.398438.6875 0 1.128907.351563.441406.351562.441406 1.0625v1.898437q0 .585938.148437.929688v.0625zm-1.199219-.554688q.390625 0 .675782-.195312.289062-.195313.40625-.433594v-.871094h-.671875q-1.21875.02344-1.21875.78125 0 .300781.203125.511719.203125.207031.605468.207031z" />
    <path d="m36.094532 59.27718q-.246094.07813-.558594.07813-.402343 0-.6875-.246094-.285156-.246094-.285156-.882813v-2.621093h-.773437v-.554688h.773437v-1.027344h.722656v1.027344h.789063v.554688h-.789063v2.625q0 .324218.140625.414062.140625.08984.324219.08984.136719 0 .339844-.04687z" />
    <path d="m39.243752 59.27718-.01563-.417969q-.414063.496094-1.234375.496094-.621094 0-1.003907-.367188-.382812-.367187-.382812-1.210937v-2.726563h.722656v2.734375q0 .570313.238281.765625.242188.191406.539063.191406.816406 0 1.101562-.613281v-3.078125h.726563v4.226563z" />
    <path d="m42.420313 55.667805q-.707031 0-.964844.609375v3h-.722656v-4.226563h.703125l.01563.484375q.347656-.5625 1.003906-.5625.203125 0 .320313.05469l-.0039.671875q-.160156-.03125-.351562-.03125z" />
    <path d="m46.413282 58.538898q-.207031.3125-.585937.566407-.378906.25-1.003906.25-.882813 0-1.414063-.574219-.527344-.574219-.527344-1.46875v-.164063q0-.691406.261719-1.175781.265625-.488281.6875-.742187.421875-.257813.898438-.257813.90625 0 1.320312.59375.417969.589844.417969 1.476563v.324218h-2.859375q.01563.582032.34375.992188.332031.40625.910156.40625.382813 0 .648438-.15625.265625-.15625.464843-.417969zm-1.683593-2.972656q-.429688 0-.726563.3125-.296875.3125-.371094.898438h2.113282v-.05469q-.027344-.421873-.246094-.78906-.214844-.367188-.769531-.367188z" />
  </g>
</svg>
