<svg height="64" viewBox="0 0 64 64" width="64" xmlns="http://www.w3.org/2000/svg" xmlns:xlink="http://www.w3.org/1999/xlink">
  <linearGradient id="a" gradientTransform="matrix(1.0749904 0 0 1.1792904 113.08072 -.434132)" gradientUnits="userSpaceOnUse" x1="-74.929466" x2="-75.259552" y1="52.199436" y2="2.356489">
    <stop offset="0" stop-color="#808080" />
    <stop offset="1" stop-color="#b3b3b3" />
  </linearGradient>
  <rect fill="url(#a)" height="60.531002" ry="2.864331" width="44" x="10" y="1.468998" />
  <path d="m10 51.087891v5.71289 2.199219.5c0 1.385 1.115 2.5 2.5 2.5h39c1.385 0 2.5-1.115 2.5-2.5v-.5-2.199219-5.71289z" fill-opacity=".470588" />
  <g fill="#fff">
    <g stroke-width="1.22018" transform="matrix(.81954967 0 0 .81954967 51.657483 10.045054)">
      <path d="m-34.836281 58.982071q0-.28598-.214485-.509998-.209719-.228784-.972333-.381307-.862707-.181121-1.363173-.514765-.495699-.333643-.495699-.972333 0-.610091.519531-1.058127.524297-.448036 1.391771-.448036.924669 0 1.4442.471868.519531.471867.519531 1.139155h-.881773q0-.319345-.281214-.600559-.281213-.28598-.800744-.28598-.548129 0-.786446.238317-.238317.238317-.238317.519531 0 .28598.228784.462334.228784.171588.958034.333644.948501.219252 1.401304.567194.452802.347943.452802.972333 0 .681587-.548129 1.105791-.543363.424204-1.444201.424204-1.024762 0-1.568125-.524298-.543362-.524297-.543362-1.162986h.886539q.0286.548129.419437.757848.395606.204952.805511.204952.538597 0 .824577-.209719.28598-.209718.28598-.529063z" />
      <path d="m-33.034605 57.828617v-.109626q0-1.120089.629156-1.868404.629157-.753082 1.711116-.753082 1.091491 0 1.720648.753082.633923.748315.633923 1.868404v.109626q0 1.12009-.633923 1.868405-.629157.748315-1.711116.748315-1.086725 0-1.720648-.748315-.629156-.748315-.629156-1.868405zm.881772-.109626v.109626q0 .767381.362242 1.329808.367008.562428 1.10579.562428.724484 0 1.091492-.562428.367008-.562427.367008-1.329808v-.109626q0-.757847-.367008-1.325042-.367008-.57196-1.101024-.57196-.72925 0-1.096258.57196-.362242.567195-.362242 1.325042z" />
      <path d="m-25.170147 59.720853q.471868 0 .824577-.281214.357475-.281214.390839-.719717h.838876q-.03336.691119-.633923 1.21065-.600559.514765-1.420369.514765-1.162986 0-1.730181-.767381-.562427-.76738-.562427-1.806442v-.200186q0-1.039062.562427-1.806442.567195-.767381 1.730181-.767381.905604 0 1.463266.538597.557661.533829.591026 1.329808h-.838876q-.03336-.476634-.362241-.810278-.324111-.333643-.853175-.333643-.543362 0-.853174.276447-.305046.276448-.433737.700652-.123925.424204-.123925.87224v.200186q0 .452802.123925.877006.123925.424204.42897.700652.309812.271681.857941.271681z" />
      <path d="m-18.89288 60.35001-1.787377-2.392702-.557661.576727v1.815975h-.886539v-7.321095h.886539v4.423161l.471867-.562427 1.60149-1.696817h1.077192l-2.011394 2.149619 2.244945 3.007559z" />
      <path d="m-13.192339 59.449172q-.252616.381307-.714951.691119-.462334.305046-1.224948.305046-1.077193 0-1.725415-.700652-.643455-.700652-.643455-1.792143v-.200186q0-.843642.319344-1.434668.324111-.595792.838876-.905604.514764-.314579 1.096257-.314579 1.105791 0 1.611023.724484.509998.719717.509998 1.801676v.395606h-3.48896q.01907.710184.419438 1.210649.405139.4957 1.110557.4957.467101 0 .791212-.190654.324111-.190653.567194-.509998zm-2.054292-3.627183q-.524297 0-.886538.381307-.362242.381307-.452803 1.096258h2.578589v-.06673q-.03336-.514765-.300279-.9628-.262149-.448036-.938969-.448036z" />
      <path d="m-9.9130986 60.35001q-.1048594.03336-.2764474.06196-.166822.03337-.405139.03337-.490933 0-.838875-.30028-.347943-.300279-.347943-1.077192v-3.198213h-.943735v-.67682h.943735v-1.253547h.881772v1.253547h.9628007v.67682h-.9628007v3.202979q0 .395606.171589.505232.171588.109626.395606.109626.109625 0 .228784-.01906.1239247-.02383.1858871-.03813z" />
    </g>
    <path d="m32.056641 15.169922a12 12 0 0 0 -12 12 12 12 0 0 0 12 12 12 12 0 0 0 12-12 12 12 0 0 0 -12-12zm-6.654297 6.013672h2.652344v7.734375h-2.652344zm10.65625.240234h2.654297v7.734375h-2.654297zm-7.175782 11.058594h6.347657v2.576172h-6.347657z" fill-opacity=".6" stroke-miterlimit="10" />
  </g>
</svg>
