<svg height="64" viewBox="0 0 64 64" width="64" xmlns="http://www.w3.org/2000/svg" xmlns:xlink="http://www.w3.org/1999/xlink"><linearGradient id="a" gradientTransform="matrix(1.0749904 0 0 1.0292896 56.688954 -.015285)" gradientUnits="userSpaceOnUse" x1="-74.929466" x2="-75.259552" y1="52.199436" y2="2.356489"><stop offset="0" stop-color="#269de0"/><stop offset="1" stop-color="#1ab4fd"/></linearGradient><linearGradient gradientUnits="userSpaceOnUse" x1="-.5" x2="536" y1="267.75" y2="267.75"><stop offset="0" stop-color="#3889e9"/><stop offset="1" stop-color="#5ea5fb"/></linearGradient><g transform="translate(56.391766 -.176777)"><rect fill="url(#a)" height="52.831711" ry="2.5" width="44" x="-46.391766" y="1.645775"/><g fill="#0b3a6a"><rect height="7.69929" ry="2.5" width="44" x="-46.391766" y="54.477486"/><path d="m-46.391766 51.264462h44v7.911841h-44z"/><path d="m471.75 255h-38.25v-102c0-28.05-22.95-51-51-51h-102v-38.25c0-35.7-28.05-63.75-63.75-63.75s-63.75 28.05-63.75 63.75v38.25h-102c-28.05 0-51 22.95-51 51v96.9h38.25c38.25 0 68.85 30.6 68.85 68.85s-30.6 68.85-68.85 68.85h-38.25v96.9c0 28.05 22.95 51 51 51h96.9v-38.25c0-38.25 30.6-68.85 68.85-68.85s68.85 30.6 68.85 68.85v38.25h96.9c28.05 0 51-22.95 51-51v-102h38.25c35.7 0 63.75-28.05 63.75-63.75s-28.05-63.75-63.75-63.75z" transform="matrix(.041083099881 0 0 .041083099881 -35.391763376349 16.288877666927)"/></g></g></svg>