<svg height="64" viewBox="0 0 64 64" width="64" xmlns="http://www.w3.org/2000/svg" xmlns:xlink="http://www.w3.org/1999/xlink"><linearGradient id="a" gradientTransform="matrix(1.0749904 0 0 1.0292896 56.688954 -.015285)" gradientUnits="userSpaceOnUse" x1="-74.929466" x2="-75.259552" y1="52.199436" y2="2.356489"><stop offset="0" stop-color="#2db07b"/><stop offset="1" stop-color="#43d38b"/></linearGradient><g transform="translate(56.391766 -.176777)"><rect fill="url(#a)" height="52.831711" ry="2.5" width="44" x="-46.391766" y="1.645775"/><path d="m10 51.087891v5.71289 2.199219.5c0 1.385 1.115 2.5 2.5 2.5h39c1.385 0 2.5-1.115 2.5-2.5v-.5-2.199219-5.71289z" fill="#144d36" transform="translate(-56.391766 .176777)"/><g fill="#fff" transform="matrix(.81954967 0 0 .81954967 22.728285 -.489291)"><path d="m-73.542585 70.104369q0-.761393.214752-1.308035.214752-.546642.566164-.819963.361174-.283082.741871-.400219.380697-.126899.80044-.126899 1.698493 0 2.020622 1.600879l-.839486.126899q-.224513-1.024953-1.151852-1.024953-1.483742 0-1.483742 1.94253 0 1.94253 1.434935 1.94253 1.083522 0 1.278751-1.268989l.829724.107376q-.136661.849246-.683302 1.356842-.53688.507596-1.40565.507596-1.103045 0-1.718017-.712586-.60521-.722348-.60521-1.923008z"/><path d="m-66.601731 71.490496v-1.923007h-1.913246v-.790678h1.913246v-1.903484h.810201v1.903484h1.903484v.790678h-1.903484v1.923007z"/><path d="m-60.901192 71.490496v-1.923007h-1.913246v-.790678h1.913246v-1.903484h.810201v1.903484h1.903484v.790678h-1.903484v1.923007z"/><path d="m-51.951613 70.455782q-.488072-.117138-.771155-.214752-.283082-.09761-.585687-.273321-.302605-.175706-.439266-.439266-.13666-.263559-.13666-.634494 0-.244037.07809-.46855.08785-.234275.283083-.458789.195229-.234275.575926-.370935.390458-.146422.917577-.146422.546641 0 .9371.117137.390458.107376.60521.322128.214752.214752.322128.439266.107376.224513.156184.53688l-.849247.107376q-.117138-.819962-1.112806-.819962-1.044476 0-1.044476.654017 0 .292844.224513.429505.224514.13666.839485.302605.08785.01952.322129.08785.244036.05857.322128.08785.08785.01952.292843.08785.204991.05857.283083.09761.08785.03905.244036.117137.165945.07809.234275.146422.06833.06833.165945.175706.09761.107376.13666.224514.04881.107376.07809.253798.03905.146422.03905.312366 0 .458789-.214752.790679-.204991.331889-.53688.507595-.322128.165945-.644257.234275-.322128.07809-.634494.07809-1.8742 0-2.167044-1.630163l.849247-.136661q.13666 1.063999 1.317797 1.063999 1.161613 0 1.161613-.810201 0-.08785-.01952-.156183-.0098-.07809-.05857-.136661-.04881-.05857-.08785-.09761-.03905-.04881-.126899-.08785-.08785-.04881-.146421-.06833-.04881-.02928-.175707-.05857-.126899-.03905-.195229-.05857-.05857-.01952-.214752-.04881-.156183-.03905-.224514-.05857z"/><path d="m-48.847011 72.622826v-5.056436h.86877v.761394q.361174-.878531 1.00543-.878531.439265 0 .878531.263559l-.283082.634495q-.292844-.195229-.624734-.195229-.429504 0-.702825.458788-.27332.458789-.27332 1.366604v2.645356z"/><path d="m-45.859699 70.104369q0-.761393.214752-1.308035.214752-.546642.566164-.819963.361174-.283082.741871-.400219.380697-.126899.80044-.126899 1.698494 0 2.020622 1.600879l-.839486.126899q-.224513-1.024953-1.151852-1.024953-1.483741 0-1.483741 1.94253 0 1.94253 1.434934 1.94253 1.083522 0 1.278751-1.268989l.829724.107376q-.13666.849246-.683302 1.356842-.53688.507596-1.40565.507596-1.103045 0-1.718017-.712586-.60521-.722348-.60521-1.923008z"/></g><path d="m424.65333 552.00509q-4.9919 0-8.21394-3.35819-3.22204-3.40356-3.22204-8.48622 0-5.08266 3.22204-8.44084 3.22204-3.40357 8.21394-3.40357 3.72123 0 6.17179 1.81524 2.45057 1.81523 3.58509 4.58347l-3.81199 1.58833q-1.72447-4.17504-6.21718-4.17504-2.76823 0-4.90113 2.26904-2.08752 2.26904-2.08752 5.76337 0 3.49433 2.08752 5.76337 2.1329 2.26904 4.90113 2.26904 4.67423 0 6.44408-4.17504l3.72124 1.58833q-1.13453 2.72286-3.67585 4.58347-2.49595 1.81524-6.21718 1.81524z" fill="#144d36" transform="matrix(.92870814 0 0 .92870814 -421.671711 -474.474843)"/><g fill="#144d36" stroke="#144d36" transform="translate(-497.70449 -513.18647)"><path d="m491.33527 527.93109v3.75437h3.75438v1.57642h-3.75438v3.75437h-1.57642v-3.75437h-3.75437v-1.57642h3.75437v-3.75437z" fill="#144d36" stroke="#144d36" stroke-width=".605678" transform="matrix(.66041692 0 0 .66041692 159.826597177203 180.708622227577)"/><path d="m491.33527 527.93109v3.75437h3.75438v1.57642h-3.75438v3.75437h-1.57642v-3.75437h-3.75437v-1.57642h3.75437v-3.75437z" fill="#144d36" stroke="#144d36" stroke-width=".605678" transform="matrix(.66041692 0 0 .66041692 159.826597177203 188.956622227577)"/></g></g></svg>