<svg height="64" viewBox="0 0 64 64" width="64" xmlns="http://www.w3.org/2000/svg" xmlns:xlink="http://www.w3.org/1999/xlink"><linearGradient id="a" gradientTransform="matrix(1.0749904 0 0 1.1792904 56.688954 -.257355)" gradientUnits="userSpaceOnUse" x1="-74.929466" x2="-75.259552" y1="52.199436" y2="2.356489"><stop offset="0" stop-color="#cc499c"/><stop offset="1" stop-color="#f5d"/></linearGradient><g transform="translate(56.391766 -.176777)"><rect fill="url(#a)" height="60.531002" ry="2.864331" width="44" x="-46.391766" y="1.645775"/><path d="m10 51.087891v5.71289 2.199219.5c0 1.385 1.115 2.5 2.5 2.5h39c1.385 0 2.5-1.115 2.5-2.5v-.5-2.199219-5.71289z" fill-opacity=".588235" transform="translate(-56.391766 .176777)"/><g fill="#fff"><path d="m-30.618702 57.016721q-.4-.096-.632-.176-.232-.08-.48-.224-.248-.144-.36-.36-.112-.216-.112-.52 0-.2.064-.384.072-.192.232-.376.16-.192.472-.304.32-.12.752-.12.448 0 .768.096.32.088.496.264.176.176.264.36.088.184.128.44l-.696.088q-.096-.672-.912-.672-.856 0-.856.536 0 .24.184.352.184.112.688.248.072.016.264.072.2.048.264.072.072.016.24.072.168.048.232.08.072.032.2.096.136.064.192.12.056.056.136.144.08.088.112.184.04.088.064.208.032.12.032.256 0 .376-.176.648-.168.272-.44.416-.264.136-.528.192-.264.064-.52.064-1.536 0-1.776-1.336l.696-.112q.112.872 1.08.872.952 0 .952-.664 0-.072-.016-.128-.008-.064-.048-.112-.04-.048-.072-.08-.032-.04-.104-.072-.072-.04-.12-.056-.04-.024-.144-.048-.104-.032-.16-.048-.048-.016-.176-.04-.128-.032-.184-.048z"/><path d="m-26.402327 55.128721q-.512 0-.744.184-.224.176-.352.608l-.672-.096q.264-1.272 1.864-1.272.88 0 1.24.328.368.32.368 1.24v1.824q0 .44.216.848h-.728q-.104-.224-.136-.512-.728.608-1.536.608-.624 0-1.024-.312-.4-.32-.4-.872 0-.64.6-1.024.256-.168 1.104-.288.848-.128 1.192-.248v-.176q0-.84-.992-.84zm-.304 3.184q1.296 0 1.296-1.344v-.248q-.264.112-.88.208-.608.088-.96.248-.344.152-.344.504 0 .632.888.632z"/><path d="m-22.181202 57.016721q-.4-.096-.632-.176-.232-.08-.48-.224-.248-.144-.36-.36-.112-.216-.112-.52 0-.2.064-.384.072-.192.232-.376.16-.192.472-.304.32-.12.752-.12.448 0 .768.096.32.088.496.264.176.176.264.36.088.184.128.44l-.696.088q-.096-.672-.912-.672-.856 0-.856.536 0 .24.184.352.184.112.688.248.072.016.264.072.2.048.264.072.072.016.24.072.168.048.232.08.072.032.2.096.136.064.192.12.056.056.136.144.08.088.112.184.04.088.064.208.032.12.032.256 0 .376-.176.648-.168.272-.44.416-.264.136-.528.192-.264.064-.52.064-1.536 0-1.776-1.336l.696-.112q.112.872 1.08.872.952 0 .952-.664 0-.072-.016-.128-.008-.064-.048-.112-.04-.048-.072-.08-.032-.04-.104-.072-.072-.04-.12-.056-.04-.024-.144-.048-.104-.032-.16-.048-.048-.016-.176-.04-.128-.032-.184-.048z"/><path d="m-18.196827 57.016721q-.4-.096-.632-.176-.232-.08-.48-.224-.248-.144-.36-.36-.112-.216-.112-.52 0-.2.064-.384.072-.192.232-.376.16-.192.472-.304.32-.12.752-.12.448 0 .768.096.32.088.496.264.176.176.264.36.088.184.128.44l-.696.088q-.096-.672-.912-.672-.856 0-.856.536 0 .24.184.352.184.112.688.248.072.016.264.072.2.048.264.072.072.016.24.072.168.048.232.08.072.032.2.096.136.064.192.12.056.056.136.144.08.088.112.184.04.088.064.208.032.12.032.256 0 .376-.176.648-.168.272-.44.416-.264.136-.528.192-.264.064-.52.064-1.536 0-1.776-1.336l.696-.112q.112.872 1.08.872.952 0 .952-.664 0-.072-.016-.128-.008-.064-.048-.112-.04-.048-.072-.08-.032-.04-.104-.072-.072-.04-.12-.056-.04-.024-.144-.048-.104-.032-.16-.048-.048-.016-.176-.04-.128-.032-.184-.048z"/></g><path d="m-27.20652 32.038481c.211718.783122.188491 1.513399-.03016 2.174762-.02429.07342-.05106.146133-.08011.217953-.02906.07168-.0605.142585-.0942.212571-.168654.349922-.394966.677441-.672134.979753-.845454.92237-2.026724 1.271165-2.533246.977269-.546975-.317033-.272988-1.617531.70726-2.653658 1.054551-1.114831 2.571856-1.831588 2.571856-1.831588l-.0028-.0046c.04372-.02356.08809-.04776.133097-.07251zm12.019555-13.170438c-.658952-2.584395-4.944175-3.433956-8.999897-1.993082-2.413615.857425-5.026555 2.203243-6.905313 3.960591-2.233823 2.089413-2.590061 3.907966-2.443223 4.66786.517908 2.681286 4.191798 4.433894 5.702081 5.734237v.0083c-.445318.219226-3.704818 1.868766-4.4676 3.555156-.804865 1.779091.128102 3.055756.745787 3.227609 1.91382.532465 3.877717-.42527 4.933121-1.999517 1.0185-1.51922.93371-3.481.491077-4.456857.610581-.161074 1.322379-.233251 2.226976-.12757 2.552589.298132 3.053447 1.892004 2.957675 2.558895-.09569.667101-.631114 1.033872-.810108 1.144576-.179059.110786-.233673.149102-.218585.231426.02163.119697.104544.115242.257194.08937.210087-.03538 1.340354-.542566 1.388662-1.773857.06151-1.563265-1.436548-3.311978-4.089153-3.266292-1.092446.01888-1.779384.122758-2.275557.307417-.03667-.0418-.07407-.08332-.112629-.124527-1.639916-1.749629-4.671472-2.987282-4.542912-5.339417.04675-.855088.343964-3.106786 5.825196-5.838084 4.490068-2.237306 8.084521-1.621638 8.705726-.257121.887318 1.949387-1.921043 5.572604-6.584019 6.095205-1.776542.199179-2.711957-.489381-2.944639-.745796-.245012-.269945-.281495-.282127-.37294-.231482-.149029.0825-.05463.320874 0 .462964.139194.362306.710524 1.004823 1.684538 1.324422.856794.281201 2.942661.435694 5.46522-.540026 2.825154-1.092877 5.031294-4.132857 4.383322-6.673969" fill="#fff"/></g></svg>