<?xml version="1.0" encoding="UTF-8" standalone="no"?>
<svg
   xmlns:osb="http://www.openswatchbook.org/uri/2009/osb"
   xmlns:dc="http://purl.org/dc/elements/1.1/"
   xmlns:cc="http://creativecommons.org/ns#"
   xmlns:rdf="http://www.w3.org/1999/02/22-rdf-syntax-ns#"
   xmlns:svg="http://www.w3.org/2000/svg"
   xmlns="http://www.w3.org/2000/svg"
   xmlns:xlink="http://www.w3.org/1999/xlink"
   xmlns:sodipodi="http://sodipodi.sourceforge.net/DTD/sodipodi-0.dtd"
   xmlns:inkscape="http://www.inkscape.org/namespaces/inkscape"
   width="64"
   viewBox="0 0 64 64"
   height="64"
   id="svg2"
   version="1.1"
   inkscape:version="0.92.1 r15371"
   sodipodi:docname="text-x-octave.svg"
   inkscape:export-filename="E:\Usuarios\David\Desktop\android.png"
   inkscape:export-xdpi="90"
   inkscape:export-ydpi="90">
  <metadata
     id="metadata14">
    <rdf:RDF>
      <cc:Work
         rdf:about="">
        <dc:format>image/svg+xml</dc:format>
        <dc:type
           rdf:resource="http://purl.org/dc/dcmitype/StillImage" />
        <dc:title />
      </cc:Work>
    </rdf:RDF>
  </metadata>
  <defs
     id="defs12">
    <linearGradient
       id="linearGradient6527">
      <stop
         id="stop6529"
         offset="0"
         style="stop-color:#ef6f29;stop-opacity:1" />
      <stop
         id="stop6531"
         offset="1"
         style="stop-color:#ff9b65;stop-opacity:1" />
    </linearGradient>
    <linearGradient
       osb:paint="gradient"
       id="linearGradient4207">
      <stop
         id="stop3371"
         offset="0"
         style="stop-color:#3498db;stop-opacity:1;" />
      <stop
         id="stop3373"
         offset="1"
         style="stop-color:#3498db;stop-opacity:0;" />
    </linearGradient>
    <linearGradient
       inkscape:collect="always"
       xlink:href="#linearGradient6527"
       id="linearGradient4182"
       x1="-74.929466"
       y1="52.199436"
       x2="-75.259552"
       y2="2.3564887"
       gradientUnits="userSpaceOnUse"
       gradientTransform="matrix(1.0749904,0,0,1.1792904,56.688954,-0.25735474)" />
    <clipPath
       id="clipPath-883211809-3-2">
      <g
         id="g17-2-9"
         transform="translate(0,-1004.3622)">
        <path
           id="path19-9-8"
           transform="matrix(15.333333,0,0,11.5,414.99999,878.8622)"
           d="m -24,13 c 0,1.105 -0.672,2 -1.5,2 -0.828,0 -1.5,-0.895 -1.5,-2 0,-1.105 0.672,-2 1.5,-2 0.828,0 1.5,0.895 1.5,2 z"
           inkscape:connector-curvature="0"
           style="fill:#1890d0" />
      </g>
    </clipPath>
  </defs>
  <sodipodi:namedview
     pagecolor="#747474"
     bordercolor="#666666"
     borderopacity="1"
     objecttolerance="10"
     gridtolerance="10"
     guidetolerance="10"
     inkscape:pageopacity="1"
     inkscape:pageshadow="2"
     inkscape:window-width="1366"
     inkscape:window-height="642"
     id="namedview10"
     showgrid="false"
     inkscape:zoom="5.2716364"
     inkscape:cx="17.045199"
     inkscape:cy="15.163449"
     inkscape:window-x="0"
     inkscape:window-y="33"
     inkscape:window-maximized="1"
     inkscape:current-layer="g4186"
     inkscape:snap-bbox="true"
     inkscape:bbox-nodes="true"
     inkscape:object-nodes="true"
     borderlayer="false"
     showguides="true"
     inkscape:snap-nodes="true"
     inkscape:object-paths="false"
     inkscape:showpageshadow="false"
     showborder="true">
    <inkscape:grid
       type="xygrid"
       id="grid4160"
       visible="true" />
    <sodipodi:guide
       position="28.888657,63.404975"
       orientation="0,35.2"
       id="guide6108"
       inkscape:locked="false" />
    <sodipodi:guide
       position="54,55.679691"
       orientation="51.200004,0"
       id="guide6112"
       inkscape:locked="false" />
    <sodipodi:guide
       position="58.527669,62"
       orientation="0,1"
       id="guide6114"
       inkscape:label=""
       inkscape:color="rgb(0,0,255)"
       inkscape:locked="false" />
    <sodipodi:guide
       position="10,4"
       orientation="-56,0"
       id="guide6116"
       inkscape:locked="false" />
    <sodipodi:guide
       position="11,4"
       orientation="-2.8421709e-014,0"
       id="guide6118"
       inkscape:locked="false" />
    <sodipodi:guide
       position="12,62"
       orientation="0,35.2"
       id="guide6120"
       inkscape:locked="false" />
    <sodipodi:guide
       position="52,2"
       orientation="0,-40"
       id="guide6126"
       inkscape:locked="false" />
    <sodipodi:guide
       position="12,62"
       orientation="0,35.2"
       id="guide6138"
       inkscape:locked="false" />
    <sodipodi:guide
       position="55,3"
       orientation="0,-40"
       id="guide6156"
       inkscape:locked="false" />
    <sodipodi:guide
       position="53,4.3973202"
       orientation="-56,0"
       id="guide6158"
       inkscape:locked="false" />
    <sodipodi:guide
       position="21,48"
       orientation="0,22"
       id="guide4238"
       inkscape:locked="false" />
    <sodipodi:guide
       position="43,48"
       orientation="22,0"
       id="guide4240"
       inkscape:locked="false" />
    <sodipodi:guide
       position="43,26"
       orientation="0,-22"
       id="guide4242"
       inkscape:locked="false" />
    <sodipodi:guide
       position="21,26"
       orientation="-22,0"
       id="guide4244"
       inkscape:locked="false" />
  </sodipodi:namedview>
  <g
     id="g4186"
     transform="translate(56.391766,-0.17677665)">
    <rect
       ry="2.864331"
       y="1.6457753"
       x="-46.391766"
       height="60.531002"
       width="44"
       id="rect4174"
       style="opacity:1;fill:url(#linearGradient4182);fill-opacity:1;stroke:none;stroke-width:0.32111669;stroke-linecap:round;stroke-linejoin:round;stroke-miterlimit:4;stroke-dasharray:none;stroke-dashoffset:0;stroke-opacity:1" />
    <g
       style="font-style:normal;font-weight:normal;font-size:9.36996746px;line-height:125%;font-family:sans-serif;letter-spacing:0px;word-spacing:0px;fill:#ffffff;fill-opacity:1;stroke:none;stroke-width:1px;stroke-linecap:butt;stroke-linejoin:miter;stroke-opacity:1"
       id="text4161"
       transform="matrix(0.81954967,0,0,0.81954967,-10.173724,5.7588093)">
      <g
         id="g4213"
         transform="matrix(1.2201823,0,0,1.2201823,-115.97793,-13.101352)">
        <g
           id="surface1" />
        <g
           transform="matrix(0.91662855,0,0,0.91676102,58.83209,10.154327)"
           style="font-style:normal;font-weight:normal;font-size:9.36996746px;line-height:125%;font-family:sans-serif;letter-spacing:0px;word-spacing:0px;fill:#ffffff;fill-opacity:1;stroke:none;stroke-width:1px;stroke-linecap:butt;stroke-linejoin:miter;stroke-opacity:1"
           id="g64">
          <g
             style="fill:#ffffff"
             id="g66"
             clip-path="url(#clipPath-883211809-3-2)">
            <!-- color: #eeeeee -->
            <g
               style="fill:#ffffff"
               id="g68">
              <path
                 sodipodi:nodetypes="cccccccccc"
                 inkscape:connector-curvature="0"
                 style="fill:#ffffff;fill-rule:nonzero;stroke:none"
                 id="path70"
                 d="m 15.988,14.492 c -3.766,4.04 -2.852,11.574 2.031,16.828 4.887,5.25 11.898,6.227 15.66,2.184 3.762,-4.04 2.852,-11.578 -2.035,-16.824 -4.887,-5.254 -11.898,-6.23 -15.66,-2.187 m 3.414,1.68 c 2.957,-3.18 8.219948,-2.488 11.969948,1.543 3.75,4.03 4.479921,9.875 1.518921,13.05 -2.953,3.18 -8.308869,2.488 -12.054869,-1.539 -3.75,-4.03 -4.391,-9.871 -1.438,-13.05" />
              <path
                 inkscape:connector-curvature="0"
                 style="fill:#ffffff;fill-opacity:1;fill-rule:nonzero;stroke:none"
                 id="path72"
                 d="m 30.606276,15.427414 2.216162,0 c 0.334537,0 0.606276,0.271739 0.606276,0.606276 l 0,2.216162 c 0,0.334536 -0.271739,0.606276 -0.606276,0.606276 l -2.216162,0 C 30.27174,18.856128 30,18.584388 30,18.249852 l 0,-2.216162 c 0,-0.334537 0.27174,-0.606276 0.606276,-0.606276 m 0,0" />
              <path
                 inkscape:connector-curvature="0"
                 style="fill:#ffffff;fill-opacity:1;fill-rule:nonzero;stroke:none"
                 id="path74"
                 d="m 13.216009,20.574141 4.425411,0 c 0.673602,0 1.216009,0.543385 1.216009,1.212092 l 0,4.428348 c 0,0.669686 -0.543386,1.212093 -1.216009,1.212093 l -4.425411,0 C 12.542407,27.426674 12,26.883288 12,26.214581 l 0,-4.428348 c 0,-0.669686 0.543386,-1.212092 1.216009,-1.212092 m 0,0" />
              <path
                 inkscape:connector-curvature="0"
                 style="fill:#ffffff;fill-opacity:1;fill-rule:nonzero;stroke:none"
                 id="path76"
                 d="m 31.770127,29.145183 3.318675,0 c 0.501863,0 0.912198,0.406221 0.912198,0.908084 l 0,3.32176 c 0,0.501864 -0.409306,0.908085 -0.912198,0.908085 l -3.318675,0 c -0.501863,0 -0.912198,-0.406221 -0.912198,-0.908085 l 0,-3.32176 c 0,-0.501863 0.409307,-0.908084 0.912198,-0.908084 m 0,0" />
            </g>
          </g>
        </g>
      </g>
    </g>
    <path
       style="opacity:1;fill:#000000;fill-opacity:0.66666669;stroke:none;stroke-width:0.185;stroke-linecap:round;stroke-linejoin:round;stroke-miterlimit:4;stroke-dasharray:none;stroke-dashoffset:0;stroke-opacity:1"
       d="M 10 51.087891 L 10 56.800781 L 10 59 L 10 59.5 C 10 60.885 11.115 62 12.5 62 L 51.5 62 C 52.885 62 54 60.885 54 59.5 L 54 59 L 54 56.800781 L 54 51.087891 L 10 51.087891 z "
       transform="translate(-56.391766,0.17677665)"
       id="rect4162" />
    <g
       aria-label="octave"
       style="font-style:normal;font-weight:normal;font-size:15px;line-height:125%;font-family:sans-serif;text-align:start;letter-spacing:0px;word-spacing:0px;text-anchor:start;fill:#ffffff;fill-opacity:1;stroke:none;stroke-width:1px;stroke-linecap:butt;stroke-linejoin:miter;stroke-opacity:1"
       id="text4523">
      <path
         d="m -32.958641,59.360721 q -0.4,0.208 -0.952,0.208 -0.552,0 -0.96,-0.208 -0.4,-0.208 -0.608,-0.544 -0.2,-0.344 -0.296,-0.696 -0.088,-0.352 -0.088,-0.72 0,-0.976 0.512,-1.568 0.52,-0.6 1.44,-0.6 0.92,0 1.432,0.6 0.52,0.592 0.52,1.568 0,0.368 -0.096,0.72 -0.088,0.352 -0.296,0.696 -0.2,0.336 -0.608,0.544 z m -0.04,-3.112 q -0.32,-0.44 -0.912,-0.44 -0.592,0 -0.92,0.44 -0.32,0.432 -0.32,1.152 0,0.288 0.056,0.552 0.064,0.264 0.192,0.512 0.136,0.24 0.384,0.384 0.256,0.144 0.608,0.144 0.352,0 0.6,-0.144 0.256,-0.144 0.384,-0.384 0.136,-0.248 0.192,-0.512 0.064,-0.264 0.064,-0.552 0,-0.72 -0.328,-1.152 z"
         style="font-style:normal;font-variant:normal;font-weight:normal;font-stretch:normal;font-size:8px;font-family:Garuda;-inkscape-font-specification:Garuda;fill:#ffffff;fill-opacity:1"
         id="path4525" />
      <path
         d="m -31.361516,57.408721 q 0,-0.624 0.176,-1.072 0.176,-0.448 0.464,-0.672 0.296,-0.232 0.608,-0.328 0.312,-0.104 0.656,-0.104 1.392,0 1.656,1.312 l -0.688,0.104 q -0.184,-0.84 -0.944,-0.84 -1.216,0 -1.216,1.592 0,1.592 1.176,1.592 0.888,0 1.048,-1.04 l 0.68,0.088 q -0.112,0.696 -0.56,1.112 -0.44,0.416 -1.152,0.416 -0.904,0 -1.408,-0.584 -0.496,-0.592 -0.496,-1.576 z"
         style="font-style:normal;font-variant:normal;font-weight:normal;font-stretch:normal;font-size:8px;font-family:Garuda;-inkscape-font-specification:Garuda;fill:#ffffff;fill-opacity:1"
         id="path4527" />
      <path
         d="m -26.313141,58.296721 q 0,0.344 0.08,0.496 0.088,0.152 0.304,0.152 0.048,0 0.152,-0.008 0.112,-0.016 0.16,-0.016 l 0.104,0.552 q -0.248,0.048 -0.536,0.048 -0.328,0 -0.536,-0.072 -0.2,-0.08 -0.296,-0.264 -0.088,-0.184 -0.12,-0.376 -0.024,-0.2 -0.024,-0.552 v -2.392 h -0.512 v -0.536 h 0.512 v -1.032 l 0.712,-0.424 v 1.456 h 0.696 v 0.536 h -0.696 z"
         style="font-style:normal;font-variant:normal;font-weight:normal;font-stretch:normal;font-size:8px;font-family:Garuda;-inkscape-font-specification:Garuda;fill:#ffffff;fill-opacity:1"
         id="path4529" />
      <path
         d="m -23.278391,55.808721 q -0.512,0 -0.744,0.184 -0.224,0.176 -0.352,0.608 l -0.672,-0.096 q 0.264,-1.272 1.864,-1.272 0.88,0 1.24,0.328 0.368,0.32 0.368,1.24 v 1.824 q 0,0.44 0.216,0.848 h -0.728 q -0.104,-0.224 -0.136,-0.512 -0.728,0.608 -1.536,0.608 -0.624,0 -1.024,-0.312 -0.4,-0.32 -0.4,-0.872 0,-0.64 0.6,-1.024 0.256,-0.168 1.104,-0.288 0.848,-0.128 1.192,-0.248 v -0.176 q 0,-0.84 -0.992,-0.84 z m -0.304,3.184 q 1.296,0 1.296,-1.344 v -0.248 q -0.264,0.112 -0.88,0.208 -0.608,0.088 -0.96,0.248 -0.344,0.152 -0.344,0.504 0,0.632 0.888,0.632 z"
         style="font-style:normal;font-variant:normal;font-weight:normal;font-stretch:normal;font-size:8px;font-family:Garuda;-inkscape-font-specification:Garuda;fill:#ffffff;fill-opacity:1"
         id="path4531" />
      <path
         d="m -19.329266,59.472721 -1.584,-4.144 h 0.752 l 1.152,3.2 1.192,-3.2 h 0.72 l -1.584,4.144 z"
         style="font-style:normal;font-variant:normal;font-weight:normal;font-stretch:normal;font-size:8px;font-family:Garuda;-inkscape-font-specification:Garuda;fill:#ffffff;fill-opacity:1"
         id="path4533" />
      <path
         d="m -16.008891,57.568721 q 0.04,0.648 0.36,1.04 0.328,0.384 0.904,0.384 0.768,0 1.096,-0.856 l 0.72,0.088 q -0.368,1.344 -1.824,1.344 -0.936,0 -1.456,-0.56 -0.52,-0.56 -0.52,-1.584 0,-1 0.504,-1.592 0.512,-0.6 1.432,-0.6 0.832,0 1.32,0.504 0.488,0.496 0.552,1.368 v 0.464 z m 0.04,-0.576 h 2.32 q -0.096,-1.184 -1.128,-1.184 -0.52,0 -0.84,0.336 -0.312,0.328 -0.352,0.848 z"
         style="font-style:normal;font-variant:normal;font-weight:normal;font-stretch:normal;font-size:8px;font-family:Garuda;-inkscape-font-specification:Garuda;fill:#ffffff;fill-opacity:1"
         id="path4535" />
    </g>
  </g>
</svg>
