<svg height="64" viewBox="0 0 64 64" width="64" xmlns="http://www.w3.org/2000/svg" xmlns:xlink="http://www.w3.org/1999/xlink">
  <linearGradient id="a" gradientTransform="matrix(1.0749904 0 0 1.1792904 113.08072 -.434132)" gradientUnits="userSpaceOnUse" x1="-74.929466" x2="-75.259552" y1="52.199436" y2="2.356489">
    <stop offset="0" stop-color="#2c89a0" />
    <stop offset="1" stop-color="#4797b6" />
  </linearGradient>
  <rect fill="url(#a)" height="60.531002" ry="2.864331" width="44" x="10" y="1.468998" />
  <path d="m10 51.087891v5.71289 2.199219.5c0 1.385 1.115 2.5 2.5 2.5h39c1.385 0 2.5-1.115 2.5-2.5v-.5-2.199219-5.71289z" fill="#216778" />
  <g fill="#fff">
    <g transform="translate(56.391766 -.176777)">
      <path d="m-34.399578 59.681656q-.07031-.152344-.101563-.445313-.203125.214844-.507812.371094-.304688.152344-.695313.152344-.648437 0-1.039062-.363281-.390625-.363282-.390625-.890625 0-.679688.515625-1.03125.515625-.355469 1.386719-.355469h.714843v-.335938q0-.375-.226562-.597656-.222656-.226562-.664063-.226562-.410156 0-.664062.203125-.25.199218-.25.464843h-.722656q0-.453125.457031-.851562.457031-.398438 1.222656-.398438.6875 0 1.128906.351563.441407.351562.441407 1.0625v1.96875q0 .210937.03516.449219.03906.238281.113281.410156v.0625zm-1.199219-.554688q.390625 0 .675781-.195312.289063-.195313.40625-.433594v-.871094h-.597656q-1.292969 0-1.292969.78125 0 .300782.203125.511719.203125.207031.605469.207031z" />
      <path d="m-29.923016 59.681656-.03516-.453125q-.433594.53125-1.207031.53125-.746094 0-1.207031-.609375-.457032-.609375-.457032-1.535156v-.08203q0-.96875.457032-1.5625.460937-.59375 1.214843-.59375.746094 0 1.171875.5v-2.195312h.726563v6zm-2.179687-2.066406q0 .628906.265625 1.082031.265625.449219.851562.449219.378907 0 .617188-.171875.238281-.171875.382812-.441407v-1.945312q-.140625-.261719-.382812-.429688-.238281-.171875-.609375-.171875-.589844 0-.859375.460938-.265625.457031-.265625 1.085937z" />
      <path d="m-25.524578 59.681656q-.07031-.152344-.101563-.445313-.203125.214844-.507812.371094-.304688.152344-.695313.152344-.648437 0-1.039062-.363281-.390625-.363282-.390625-.890625 0-.679688.515625-1.03125.515625-.355469 1.386719-.355469h.714843v-.335938q0-.375-.226562-.597656-.222656-.226562-.664063-.226562-.410156 0-.664062.203125-.25.199218-.25.464843h-.722656q0-.453125.457031-.851562.457031-.398438 1.222656-.398438.6875 0 1.128906.351563.441407.351562.441407 1.0625v1.96875q0 .210937.03516.449219.03906.238281.113281.410156v.0625zm-1.199219-.554688q.390625 0 .675781-.195312.289063-.195313.40625-.433594v-.871094h-.597656q-1.292969 0-1.292969.78125 0 .300782.203125.511719.203125.207031.605469.207031z" />
      <path d="m-19.329266 58.560562q0-.234375-.175781-.417969-.171875-.1875-.796875-.3125-.707031-.148437-1.117187-.421875-.40625-.273437-.40625-.796875 0-.5.425781-.867187.429687-.367188 1.140625-.367188.757812 0 1.183594.386719.425781.386719.425781.933594h-.722656q0-.261719-.230469-.492188-.230469-.234375-.65625-.234375-.449219 0-.644531.195313-.195313.195312-.195313.425781 0 .234375.1875.378906.1875.140625.785156.273438.777344.179687 1.148438.464844.371094.285156.371094.796875 0 .558593-.449219.90625-.445313.347656-1.183594.347656-.839844 0-1.285156-.429688-.445313-.429687-.445313-.953125h.726563q.02344.449219.34375.621094.324219.167969.660156.167969.441406 0 .675781-.171875.234375-.171875.234375-.433594z" />
      <path d="m-15.977703 56.072281q-.371094 0-.609375.167969-.238281.164062-.355469.441406v3h-.722656v-4.226563h.703125l.01563.484375q.160156-.257812.40625-.410156.25-.152344.597656-.152344.203125 0 .320313.05469l-.0039.671875q-.160156-.03125-.351562-.03125z" />
      <path d="m-13.333172 59.166031q.386719 0 .675781-.230469.292969-.230469.320313-.589844h.6875q-.02734.566407-.519531.992188-.492188.421875-1.164063.421875-.953125 0-1.417969-.628906-.460937-.628907-.460937-1.480469v-.164063q0-.851562.460937-1.480468.464844-.628907 1.417969-.628907.742188 0 1.199219.441407.457031.4375.484375 1.089843h-.6875q-.02734-.390625-.296875-.664062-.265625-.273438-.699219-.273438-.445312 0-.699219.226563-.25.226562-.355468.574219-.101563.347656-.101563.714843v.164063q0 .371094.101563.71875.101562.347656.351562.574219.253906.222656.703125.222656z" />
    </g>
    <path d="m25.118972 38h-3.225387l8.207037-22h3.762837l8.242956 22h-3.332696l-2.5804-6.919966-5.83267-.000226c.05535-.169775.69514-2.175339.722702-2.218179l4.464755-.000453-3.727596-10.347195z" fill-rule="evenodd" />
  </g>
</svg>
