<svg xmlns="http://www.w3.org/2000/svg" height="64" width="64"><linearGradient id="a" gradientTransform="matrix(1.07499 0 0 1.17929 56.689 -.257)" gradientUnits="userSpaceOnUse" x1="-74.929" x2="-75.26" y1="52.199" y2="2.356"><stop offset="0" stop-color="#b7410e" stop-opacity=".941"/><stop offset="1" stop-color="#ffa349"/></linearGradient><g transform="translate(56.392 -.177)"><rect height="60.531" ry="2.864" width="44" x="-46.392" y="1.646" fill="url(#a)"/><path d="M-46.392 51.265V59.677c0 1.385 1.115 2.5 2.5 2.5h39c1.385 0 2.5-1.115 2.5-2.5V51.265z" fill-opacity=".588"/><g fill-opacity=".588"><path d="M-29.937 29.858h-3.266v5.623h-1.842v-13.9h4.602q2.348 0 3.608 1.069 1.27 1.069 1.27 3.112 0 1.298-.706 2.263-.697.964-1.948 1.441l3.265 5.9v.115h-1.966zm-3.266-1.5h2.817q1.365 0 2.167-.706.812-.706.812-1.89 0-1.289-.774-1.976-.764-.688-2.215-.697h-2.807zM-18.564 29.48q-2.365-.68-3.448-1.667-1.072-.996-1.072-2.452 0-1.647 1.312-2.72 1.321-1.082 3.429-1.082 1.436 0 2.557.555 1.13.556 1.743 1.532.623.977.623 2.136h-1.849q0-1.264-.805-1.982-.804-.728-2.27-.728-1.36 0-2.126.603-.756.594-.756 1.657 0 .853.718 1.446.728.585 2.461 1.073 1.744.489 2.72 1.082.987.585 1.456 1.37.48.785.48 1.849 0 1.695-1.322 2.72-1.322 1.015-3.535 1.015-1.436 0-2.681-.546-1.246-.556-1.926-1.513-.67-.958-.67-2.175h1.849q0 1.265.929 2.002.938.728 2.5.728 1.455 0 2.23-.594.777-.594.777-1.618 0-1.025-.719-1.58-.718-.566-2.605-1.112z"/></g></g><g fill="#fff"><path d="M27.531 55.067q-.164-.028-.355-.028-.711 0-.965.606v3h-.723v-4.227h.703l.012.488q.356-.566 1.008-.566.21 0 .32.055zM30.8 58.227q-.421.496-1.238.496-.675 0-1.03-.39-.352-.395-.356-1.165v-2.75h.722v2.73q0 .962.782.962.828 0 1.101-.618v-3.074h.723v4.227h-.688zM35.059 57.524q0-.293-.223-.453-.219-.165-.77-.282-.546-.117-.87-.281-.321-.164-.477-.39-.153-.227-.153-.54 0-.52.438-.879.441-.359 1.125-.359.719 0 1.164.371.45.371.45.95h-.727q0-.298-.254-.512-.25-.215-.633-.215-.395 0-.617.172-.223.172-.223.449 0 .262.207.394.207.133.746.254.543.121.88.29.335.167.495.406.164.234.164.574 0 .566-.453.91-.453.34-1.176.34-.507 0-.898-.18-.39-.18-.613-.5-.22-.324-.22-.7h.724q.02.364.289.58.273.21.718.21.41 0 .657-.164.25-.168.25-.445zM37.703 53.395v1.023h.79v.559h-.79v2.62q0 .255.106.384.105.125.359.125.125 0 .344-.047v.586q-.285.078-.555.078-.484 0-.73-.293-.247-.293-.247-.832v-2.621h-.77v-.559h.77v-1.023z"/></g></svg>