<svg height="64" viewBox="0 0 64 64" width="64" xmlns="http://www.w3.org/2000/svg" xmlns:xlink="http://www.w3.org/1999/xlink"><linearGradient id="a" gradientTransform="matrix(1.0749904 0 0 1.1792904 56.688954 -.257355)" gradientUnits="userSpaceOnUse" x1="-74.929466" x2="-75.259552" y1="52.199436" y2="2.356489"><stop offset="0" stop-color="#ef6f29"/><stop offset="1" stop-color="#ff9b65"/></linearGradient><g transform="translate(56.391766 -.176777)"><rect fill="url(#a)" height="60.531002" ry="2.864331" width="44" x="-46.391766" y="1.645775"/><path d="m10 51.087891v5.71289 2.199219.5c0 1.385 1.115 2.5 2.5 2.5h39c1.385 0 2.5-1.115 2.5-2.5v-.5-2.199219-5.71289z" fill-opacity=".666667" transform="translate(-56.391766 .176777)"/><g fill="#fff"><path d="m-32.958641 59.360721q-.4.208-.952.208-.552 0-.96-.208-.4-.208-.608-.544-.2-.344-.296-.696-.088-.352-.088-.72 0-.976.512-1.568.52-.6 1.44-.6.92 0 1.432.6.52.592.52 1.568 0 .368-.096.72-.088.352-.296.696-.2.336-.608.544zm-.04-3.112q-.32-.44-.912-.44-.592 0-.92.44-.32.432-.32 1.152 0 .288.056.552.064.264.192.512.136.24.384.384.256.144.608.144.352 0 .6-.144.256-.144.384-.384.136-.248.192-.512.064-.264.064-.552 0-.72-.328-1.152z"/><path d="m-31.361516 57.408721q0-.624.176-1.072.176-.448.464-.672.296-.232.608-.328.312-.104.656-.104 1.392 0 1.656 1.312l-.688.104q-.184-.84-.944-.84-1.216 0-1.216 1.592 0 1.592 1.176 1.592.888 0 1.048-1.04l.68.088q-.112.696-.56 1.112-.44.416-1.152.416-.904 0-1.408-.584-.496-.592-.496-1.576z"/><path d="m-26.313141 58.296721q0 .344.08.496.088.152.304.152.048 0 .152-.008.112-.016.16-.016l.104.552q-.248.048-.536.048-.328 0-.536-.072-.2-.08-.296-.264-.088-.184-.12-.376-.024-.2-.024-.552v-2.392h-.512v-.536h.512v-1.032l.712-.424v1.456h.696v.536h-.696z"/><path d="m-23.278391 55.808721q-.512 0-.744.184-.224.176-.352.608l-.672-.096q.264-1.272 1.864-1.272.88 0 1.24.328.368.32.368 1.24v1.824q0 .44.216.848h-.728q-.104-.224-.136-.512-.728.608-1.536.608-.624 0-1.024-.312-.4-.32-.4-.872 0-.64.6-1.024.256-.168 1.104-.288.848-.128 1.192-.248v-.176q0-.84-.992-.84zm-.304 3.184q1.296 0 1.296-1.344v-.248q-.264.112-.88.208-.608.088-.96.248-.344.152-.344.504 0 .632.888.632z"/><path d="m-19.329266 59.472721-1.584-4.144h.752l1.152 3.2 1.192-3.2h.72l-1.584 4.144z"/><path d="m-16.008891 57.568721q.04.648.36 1.04.328.384.904.384.768 0 1.096-.856l.72.088q-.368 1.344-1.824 1.344-.936 0-1.456-.56-.52-.56-.52-1.584 0-1 .504-1.592.512-.6 1.432-.6.832 0 1.32.504.488.496.552 1.368v.464zm.04-.576h2.32q-.096-1.184-1.128-1.184-.52 0-.84.336-.312.328-.352.848z"/></g></g></svg>