<svg height="64" viewBox="0 0 64 64" width="64" xmlns="http://www.w3.org/2000/svg" xmlns:xlink="http://www.w3.org/1999/xlink"><linearGradient id="a" gradientTransform="matrix(1.0749904 0 0 1.0292896 56.688954 -.015285)" gradientUnits="userSpaceOnUse" x1="-74.929466" x2="-75.259552" y1="52.199436" y2="2.356489"><stop offset="0" stop-color="#8798a9"/><stop offset="1" stop-color="#aeb6be"/></linearGradient><g transform="translate(56.391766 -.176777)"><rect fill="#3d434a" height="7.69929" ry="2.5" width="44" x="-46.391766" y="54.477486"/><rect fill="url(#a)" height="52.831711" ry="2.5" width="44" x="-46.391766" y="1.645775"/><path d="m-46.391766 51.264462h44v7.911841h-44z" fill="#3d434a"/><g fill="#fff" transform="matrix(.81954967 0 0 .81954967 -4.834685 9.521731)"><path d="m-37.797959 60.918877q-.78 0-1.31-.45-.52-.45-.52-1.19 0-.8.62-1.25.62-.46 1.53-.46.81 0 1.33.3v-.14q0-.54-.37-.86-.37-.33-.91-.33-.4 0-.73.19-.32.19-.44.52l-.84-.36q.17-.44.67-.81.5-.38 1.32-.38.94 0 1.56.55.62.55.62 1.55v2.96h-.88v-.68h-.04q-.55.84-1.61.84zm.15-.84q.57 0 1.03-.42.47-.43.47-1.01-.39-.32-1.17-.32-.67 0-1.01.29-.34.29-.34.68 0 .36.31.57.31.21.71.21z"/><path d="m-29.930771 60.758877h-.88v-.68h-.04q-.21.35-.64.6-.43.24-.91.24-.92 0-1.4-.56-.47-.56-.47-1.5v-3h .92v2.85q0 1.37 1.21 1.37.57 0 .93-.46.36-.46.36-1.06v-2.7h.92z"/><path d="m-26.62249 60.838877q-.77 0-1.18-.41-.4-.41-.4-1.16v-2.57h-.86v-.84h.86v-1.5h.92v1.5h1.2v.84h-1.2v2.5q0 .8.66.8.25 0 .42-.08l.32.79q-.3.13-.74.13z"/><path d="m-24.22874 53.598877v2.26l-.04.68h.04q.2-.35.63-.59.43-.25.92-.25.91 0 1.39.56.48.56.48 1.5v3h-.92v-2.86q0-1.36-1.21-1.36-.57 0-.93.46-.36.45-.36 1.05v2.71h-.92v-7.16z"/><path d="m-19.289053 56.448877q.71-.75 1.81-.75 1.1 0 1.81.75.71.74.71 1.86 0 1.12-.71 1.87-.71.74-1.81.74-1.1 0-1.81-.74-.71-.75-.71-1.87 0-1.12.71-1.86zm.68 3.15q.48.48 1.13.48.65 0 1.12-.48.48-.49.48-1.29 0-.8-.48-1.28-.47-.49-1.12-.49-.65 0-1.13.49-.47.48-.47 1.28 0 .8.47 1.29z"/><path d="m-13.29124 60.758877h-.92v-4.9h.88v.8h.04q.14-.4.57-.66.44-.26.85-.26.41 0 .69.12l-.35.86q-.18-.07-.49-.07-.5 0-.89.4-.38.39-.38 1.03z"/><path d="m-8.9537402 60.918877q-.82 0-1.3599998-.4-.53-.4-.78-1l .82-.34q.3899998.92 1.3299998.92.43 0 .7-.19.28-.19.28-.5 0-.48-.67-.65l-.99-.24q-.4699998-.12-.8899998-.45-.42-.34-.42-.91 0-.65.57-1.05.5799998-.41 1.3699998-.41.65 0 1.16.3.51.29.73.84l-.8.33q-.27-.65-1.12-.65-.41 0-.69.17-.28.17-.28.46 0 .42.65.57l.97.23q.69.16 1.02.55.33.39.33.88 0 .66-.54 1.1-.54.44-1.39.44z"/></g><g stroke="#2c3137" transform="matrix(.02244898 0 0 .02244898 -35.391766 16.176777)"><circle cx="490" cy="490" fill="#3d434a" r="440" stroke="#3d434a" stroke-width="100"/><path d="m486 215c-130 0-239 91-267 213h131c24-52 76-88 136-88 83 0 150 67 150 150s-67 150-150 150c-60 0-112-36-136-87h-131c28 121 137 212 267 212 152 0 275-123 275-275s-123-275-275-275z" fill="#9ba8b4" stroke="none"/></g></g></svg>