<svg height="64" viewBox="0 0 64 64" width="64" xmlns="http://www.w3.org/2000/svg" xmlns:xlink="http://www.w3.org/1999/xlink">
  <linearGradient id="a" gradientTransform="matrix(.62392597 .36862722 -.36862722 .62392597 -29.404239 -446.02534)" gradientUnits="userSpaceOnUse" x1="408.30597" x2="413.58856" y1="529.15729" y2="496.34988">
    <stop offset="0" stop-color="#2a2c2f" />
    <stop offset="1" stop-color="#424649" />
  </linearGradient>
  <linearGradient id="b" gradientTransform="matrix(1.0749904 0 0 1.1689452 113.08072 -.417437)" gradientUnits="userSpaceOnUse" x1="-74.929466" x2="-75.259552" y1="52.199436" y2="2.356489">
    <stop offset="0" stop-color="#ff1526" />
    <stop offset="1" stop-color="#ff461c" />
  </linearGradient>
  <rect fill="url(#b)" height="60" ry="2.839204" stroke-width="1.06569" width="44" x="10" y="1.468998" />
  <path d="m10 50.556684h44v7.911841h-44zm2.5 3.213024h39c1.385 0 2.5 1.115 2.5 2.5v2.69929c0 1.385-1.115 2.5-2.5 2.5h-39c-1.385 0-2.5-1.115-2.5-2.5v-2.69929c0-1.385 1.115-2.5 2.5-2.5z" fill="#6f0a10" />
  <g fill="#fff">
    <path d="m27.116811 54.699871-.602272.170455q-.05682-.150568-.167614-.292614-.107955-.144886-.295455-.238636-.1875-.09375-.480113-.09375-.400568 0-.667614.184659-.264204.181818-.264204.463068 0 .25.181818.394887.181818.144886.568182.241477l.647727.159091q.585227.142045.872159.434659.286932.289773.286932.747159 0 .375-.215909.670455-.213069.295454-.596591.465909-.383523.170454-.892046.170454-.667613 0-1.105113-.289773-.4375-.289772-.553978-.84659l.636364-.159091q.09091.352272.34375.528409.255682.176136.667614.176136.46875 0 .744318-.198864.278409-.201704.278409-.482954 0-.227273-.159091-.380682-.159091-.15625-.488636-.232954l-.727273-.170455q-.599432-.142045-.880682-.440341-.278409-.301136-.278409-.752841 0-.369318.207386-.653409.210228-.284091.571023-.446023.363636-.161931.823864-.161931.647727 0 1.017045.28409.372159.284091.528409.75z" />
    <path d="m28.207711 59.722599v-6h.647727v.693182h.07954q.07386-.113637.204546-.289773.133523-.178977.380682-.318182.25-.142045.676136-.142045.551136 0 .971591.275568.420454.275568.65625.78125.235795.505682.235795 1.193182 0 .693181-.235795 1.201704-.235796.505682-.653409.784091-.417614.275568-.963068.275568-.420455 0-.673296-.139204-.252841-.142046-.389204-.321023-.136364-.181818-.210228-.301136h-.05682v2.306818zm.659091-3.818182q0 .494318.144886.872159.144886.375.423295.588068.278409.210227.681819.210227.420454 0 .701704-.22159.284091-.224432.426136-.602273.144887-.380682.144887-.846591 0-.460227-.142046-.829546-.139204-.372159-.423295-.588068-.28125-.21875-.707386-.21875-.409091 0-.6875.207387-.27841.204545-.420455.573863-.142045.366478-.142045.855114z" />
    <path d="m34.912241 58.177144q-.630682 0-1.088068-.278409-.454546-.28125-.701705-.784091-.244318-.505682-.244318-1.176136 0-.670455.244318-1.181818.247159-.514205.6875-.801137.443182-.289772 1.034091-.289772.340909 0 .673295.113636.332387.113636.605114.369318.272727.252841.434659.670455.161932.417613.161932 1.028409v.284091h-3.363636v-.579546h2.681818q0-.369318-.147727-.659091-.144887-.289772-.414773-.457386-.267046-.167614-.630682-.167614-.400568 0-.693182.198864-.289773.196023-.446023.511364-.15625.31534-.15625.676136v.386364q0 .494318.170455.838068.173295.340909.480114.519886.306818.176136.713068.176136.264204 0 .477273-.07386.215909-.0767.372159-.227273.15625-.153409.241477-.380682l.647727.181818q-.102273.329546-.34375.579546-.241477.247159-.596591.386364-.355113.136363-.798295.136363z" />
    <path d="m39.514511 58.177144q-.613637 0-1.056818-.289773-.443182-.289772-.681819-.798295-.238636-.508523-.238636-1.161932 0-.664773.244318-1.173295.247159-.511364.6875-.798296.443182-.289772 1.034091-.289772.460227 0 .829546.170454.369318.170455.605113.477273.235796.306818.292614.715909h-.670455q-.0767-.298296-.340909-.528409-.261363-.232955-.704545-.232955-.392046 0-.6875.204546-.292614.201704-.457387.571022-.161931.366478-.161931.860796 0 .505682.15909.880682.161932.375.454546.582386.295454.207386.693182.207386.261363 0 .474432-.09091.213068-.09091.360795-.261363.147727-.170455.210227-.409091h.670455q-.05682.386363-.28125.696023-.221591.306818-.588068.488636-.363637.178977-.846591.178977z" />
  </g>
  <g transform="matrix(.70314345 0 0 .70314345 9.49941 9.901389)">
    <path d="m46 26.806227c0 7.731986-6.268014 6-14 6s-14 1.731986-14-6 6.268014-14 14-14 14 6.268014 14 14z" fill="none" stroke="#fff" stroke-miterlimit="10" stroke-width="2" />
    <path d="m34 31.737469a2 2 0 0 1 -2 2 2 2 0 0 1 -2-2 2 2 0 0 1 2-2 2 2 0 0 1 2 2z" fill="#fff" />
    <path d="m32 12.806641c-7.731986 0-14 6.268014-14 14 0 7.067805 5.255051 6.237494 12.060547 6.041015l8.351562-8.300781 5.34961-5.316406c-2.49245-3.861469-6.823878-6.423828-11.761719-6.423828z" fill="#fff" fill-opacity=".6" />
    <path d="m41.7422 20.703747c-.16692-.0014-.334535.05803-.466359.179131l-8.970679 8.405489c-.08558-.01025-.171695-.01541-.257887-.01544-1.200804.000047-2.174237.973479-2.174284 2.174283.000047 1.200805.973479 2.174237 2.174284 2.174284 1.200804-.000047 2.174236-.97348 2.174283-2.174284.000141-.103332-.0071-.206543-.02162-.308847l8.071934-9.307323c.228904-.275315.205269-.681297-.05405-.928085l-.01236-.01081c-.129625-.123437-.29635-.186956-.46327-.188397zm-9.673306 9.671762c.597014-.000032 1.080997.483951 1.080965 1.080965.000032.597014-.483951 1.080997-1.080965 1.080965-.597014.000032-1.080997-.483951-1.080965-1.080965-.000032-.597014.483951-1.080997 1.080965-1.080965z" fill="url(#a)" stroke-width=".724686" />
  </g>
  <g fill="#fff">
    <path d="m20.626635 36.999989q-1.84934 0-2.93013-1.080789-1.05676-1.080781-1.05676-2.882091v-4.106979q0-.98472-.50437-1.48909-.50437-.52838-1.27293-.52838v-1.82533q.76856 0 1.27293-.50436.50437-.52839.50437-1.5131v-4.10698q0-1.80131 1.05676-2.8821 1.08079-1.080781 2.93013-1.080781h.52838v1.825321h-.52838q-.84061 0-1.41703.600439-.5524.60044-.5524 1.60917v4.10698q0 2.185591-1.6572 2.81004v.0961q1.6572.57642 1.6572 2.810041v4.10699q0 1.00873.5524 1.60916.57642.600439 1.41703.600439h.52838v1.825331h-.52838z" />
    <path d="m43.373362 36.99999h-.52838v-1.825329h.52838q.84061 0 1.39301-.600441.57642-.60043.57642-1.60916v-4.10699q0-2.23362 1.65721-2.81004v-.0961q-1.65721-.62445-1.65721-2.81004v-4.10698q0-1.00873-.57642-1.60917-.5524-.60044-1.39301-.60044h-.52838v-1.82532h.52838q1.84934 0 2.90611 1.08078 1.08079 1.08079 1.08079 2.8821v4.10698q0 .98471.50436 1.5131.50437.50436 1.27293.50436v1.82533q-.76856 0-1.27293.52838-.50436.50437-.50436 1.48909v4.106981q0 1.80131-1.08079 2.882089-1.05677 1.08079-2.90611 1.08079z" />
  </g>
</svg>
