<svg height="64" viewBox="0 0 64 64" width="64" xmlns="http://www.w3.org/2000/svg" xmlns:xlink="http://www.w3.org/1999/xlink">
  <linearGradient id="a" gradientTransform="matrix(1.0749904 0 0 1.1793198 113.08072 -.169434)" gradientUnits="userSpaceOnUse" x1="-74.929466" x2="-75.259552" y1="52.199436" y2="2.356489">
    <stop offset="0" stop-color="#187ced" />
    <stop offset="1" stop-color="#42d6fc" />
  </linearGradient>
  <rect fill="url(#a)" height="60.532513" ry="2.864403" stroke-width="1.070402" width="44" x="10" y="1.733744" />
  <path d="m10.000003 51.352637v5.71289 2.199219.5c0 1.385 1.115 2.5 2.5 2.5h38.999997c1.385 0 2.5-1.115 2.5-2.5v-.5-2.199219-5.71289z" fill-opacity=".705882" />
  <g fill="#fff" transform="translate(-3.962896 15.429514)">
    <path d="m27.017584 44.340115-.03516-.453125q-.433594.53125-1.207032.53125-.746093 0-1.207031-.609375-.457031-.609375-.457031-1.535157v-.08203q0-.96875.457031-1.5625.460938-.59375 1.214844-.59375.746094 0 1.171875.5v-2.195312h.726562v6zm-2.179688-2.066407q0 .628907.265625 1.082032.265625.449218.851563.449218.378906 0 .617187-.171875.238282-.171875.382813-.441406v-1.945312q-.140625-.261719-.382813-.429688-.238281-.171875-.609375-.171875-.589843 0-.859375.460938-.265625.457031-.265625 1.085937z" />
    <path d="m28.611334 42.273708v-.08984q0-.917969.515625-1.53125.515625-.617188 1.402344-.617188.894531 0 1.410156.617188.519531.613281.519531 1.53125v.08984q0 .917969-.519531 1.53125-.515625.613282-1.402344.613282-.890625 0-1.410156-.613282-.515625-.613281-.515625-1.53125zm.722656-.08984v.08984q0 .628907.296875 1.089844.300781.460938.90625.460938.59375 0 .894531-.460938.300782-.460937.300782-1.089844v-.08984q0-.621094-.300782-1.085938-.300781-.46875-.902343-.46875-.597657 0-.898438.46875-.296875.464844-.296875 1.085938z" />
    <path d="m35.056646 43.82449q.386719 0 .675782-.230469.292968-.230469.320312-.589844h.6875q-.02734.566406-.519531.992188-.492188.421875-1.164063.421875-.953125 0-1.417968-.628907-.460938-.628906-.460938-1.480468v-.164063q0-.851562.460938-1.480469.464843-.628906 1.417968-.628906.742188 0 1.199219.441406.457031.4375.484375 1.089844h-.6875q-.02734-.390625-.296875-.664062-.265625-.273438-.699219-.273438-.445312 0-.699218.226563-.25.226562-.355469.574218-.101563.347657-.101563.714844v.164063q0 .371093.101563.71875.101562.347656.351562.574218.253907.222657.703125.222657z" />
    <path d="m40.201178 44.340115-1.464844-1.960938-.457031.472656v1.488282h-.726563v-6h.726563v3.625l.386718-.460938 1.3125-1.390625h.882813l-1.648438 1.761719 1.839844 2.464844z" />
    <path d="m44.873053 43.601833q-.207032.3125-.585938.566407-.378906.25-1.003906.25-.882813 0-1.414063-.574219-.527343-.574219-.527343-1.46875v-.164063q0-.691406.261718-1.175781.265625-.488281.6875-.742187.421875-.257813.898438-.257813.90625 0 1.320312.59375.417969.589844.417969 1.476563v.324218h-2.859375q.01563.582032.34375.992188.332031.40625.910156.40625.382813 0 .648438-.15625.265625-.15625.464844-.417969zm-1.683594-2.972656q-.429688 0-.726563.3125-.296875.3125-.371093.898438h2.113281v-.05469q-.02734-.421873-.246094-.78906-.214844-.367188-.769531-.367188z" />
    <path d="m47.45899 40.73074q-.371094 0-.609375.167968-.238281.164063-.355469.441407v3h-.722656v-4.226563h.703125l.01563.484375q.160156-.257812.40625-.410156.25-.152344.597656-.152344.203125 0 .320313.05469l-.0039.671875q-.160168-.031252-.351574-.031252z" />
  </g>
  <g opacity=".7" stroke-width="1.317422" transform="matrix(.03498749 0 0 .03498749 21.000001 19.060538)">
    <path d="m707.494 193.557c-1.938-1.539-20.029-15.199-58.181-15.199-10.074.044-20.127.908-30.061 2.584-7.384-50.612-49.228-75.288-51.104-76.395l-10.245-5.908-6.738 9.723c-8.438 13.061-14.598 27.459-18.214 42.582-6.831 28.891-2.677 56.027 11.999 79.226-17.722 9.876-46.151 12.307-51.904 12.522h-470.679c-12.294.017-22.27 9.952-22.337 22.245-.549 41.234 6.437 82.222 20.614 120.946 16.214 42.521 40.336 73.842 71.719 93.01 35.167 21.537 92.302 33.844 157.067 33.844 29.258.092 58.461-2.556 87.226-7.907 39.986-7.342 78.463-21.318 113.839-41.352 29.149-16.88 55.383-38.354 77.688-63.596 37.29-42.213 59.505-89.226 76.026-131.007h6.584c40.828 0 65.935-16.338 79.78-30.029 9.201-8.732 16.384-19.369 21.045-31.167l2.923-8.553z" />
    <path d="m65.995 228.909h63.073c3.042 0 5.507-2.466 5.507-5.507v-56.182c.017-3.042-2.435-5.521-5.476-5.538-.01 0-.021 0-.031 0h-63.073c-3.042 0-5.507 2.466-5.507 5.507v.031 56.181c0 3.042 2.465 5.508 5.507 5.508z" />
    <path d="m152.913 228.909h63.073c3.042 0 5.507-2.466 5.507-5.507v-56.182c.017-3.042-2.435-5.521-5.477-5.538-.01 0-.021 0-.031 0h-63.073c-3.059 0-5.538 2.479-5.538 5.538v56.181c.018 3.047 2.492 5.508 5.539 5.508" />
    <path d="m241.153 228.909h63.073c3.042 0 5.507-2.466 5.507-5.507v-56.182c.017-3.042-2.435-5.521-5.477-5.538-.01 0-.021 0-.031 0h-63.073c-3.042 0-5.507 2.466-5.507 5.507v.031 56.181c.001 3.042 2.467 5.508 5.508 5.508z" />
    <path d="m328.348 228.909h63.073c3.047 0 5.521-2.46 5.538-5.507v-56.182c0-3.059-2.479-5.538-5.538-5.538h-63.073c-3.042 0-5.507 2.466-5.507 5.507v.031 56.181c0 3.042 2.466 5.508 5.507 5.508z" />
    <path d="m152.913 148.083h63.073c3.046-.017 5.507-2.492 5.507-5.538v-56.181c0-3.042-2.466-5.507-5.507-5.507h-63.073c-3.046 0-5.521 2.46-5.538 5.507v56.181c.017 3.052 2.486 5.521 5.538 5.538" />
    <path d="m241.153 148.083h63.073c3.046-.017 5.507-2.492 5.507-5.538v-56.181c0-3.042-2.466-5.507-5.507-5.507h-63.073c-3.042 0-5.507 2.466-5.507 5.507v56.181c0 3.046 2.461 5.521 5.507 5.538" />
    <path d="m328.348 148.083h63.073c3.052-.017 5.521-2.486 5.538-5.538v-56.181c-.017-3.047-2.491-5.507-5.538-5.507h-63.073c-3.042 0-5.507 2.466-5.507 5.507v56.181c0 3.046 2.461 5.521 5.507 5.538" />
    <path d="m328.348 67.227h63.073c3.047 0 5.521-2.461 5.538-5.507v-56.213c-.017-3.047-2.491-5.507-5.538-5.507h-63.073c-3.042 0-5.507 2.465-5.507 5.507v56.212c0 3.042 2.466 5.508 5.507 5.508" />
    <path d="m416.312 228.909h63.073c3.047 0 5.521-2.46 5.538-5.507v-56.182c0-3.059-2.479-5.538-5.538-5.538h-63.073c-3.041 0-5.507 2.466-5.507 5.507v.031 56.181c0 3.042 2.466 5.508 5.507 5.508" />
  </g>
</svg>
