<svg height="64" viewBox="0 0 64 64" width="64" xmlns="http://www.w3.org/2000/svg" xmlns:xlink="http://www.w3.org/1999/xlink"><linearGradient id="a" gradientTransform="matrix(1.0749904 0 0 1.1792904 56.688954 -.257355)" gradientUnits="userSpaceOnUse" x1="-74.929466" x2="-75.259552" y1="52.199436" y2="2.356489"><stop offset="0" stop-color="#2db07b"/><stop offset="1" stop-color="#43d38b"/></linearGradient><g transform="translate(56.391766 -.176777)"><rect fill="url(#a)" height="60.531002" ry="2.864331" width="44" x="-46.391766" y="1.645775"/><path d="m-46.391766 51.264668v5.71289 2.199219.5c0 1.385 1.115 2.5 2.5 2.5h39c1.385 0 2.5-1.115 2.5-2.5v-.5-2.199219-5.71289z" fill="#144d36"/><g fill="#fff" transform="translate(-2.206869 .195147)"><path d="m-31.221585 57.277576q0-.624.176-1.072.176-.448.464-.672.296-.232.608-.328.312-.104.656-.104 1.392 0 1.656 1.312l-.688.104q-.184-.84-.944-.84-1.216 0-1.216 1.592 0 1.592 1.176 1.592.888 0 1.048-1.04l.68.088q-.112.696-.56 1.112-.44.416-1.152.416-.904 0-1.408-.584-.496-.592-.496-1.576z"/><path d="m-22.49446 55.677576q-.608 0-.848.36-.24.36-.24 1.032v2.272h-.712v-5.728h.712v2.048q.48-.56 1.24-.56.784 0 1.104.392.328.392.328 1.224v2.624h-.712v-2.624q0-1.04-.872-1.04z"/><path d="m-18.305335 59.437576q-.824 0-1.312-.608-.48-.616-.48-1.56 0-.968.448-1.568.448-.6 1.312-.6.728 0 1.144.56v-2.048h.712v5.728h-.712v-.512q-.416.608-1.112.608zm1.112-2.104q0-.304-.048-.56-.04-.264-.152-.528-.104-.264-.328-.416-.224-.152-.552-.152-1.112 0-1.112 1.592 0 .848.352 1.224.352.368.784.368.32 0 .536-.144.224-.152.328-.4.104-.256.144-.488.048-.24.048-.496z"/><path d="m-15.40421 59.341576v-4.144h.712v.624q.296-.72.824-.72.36 0 .72.216l-.232.52q-.24-.16-.512-.16-.352 0-.576.376-.224.376-.224 1.12v2.168z"/></g><path d="m-32.585096 15.328876h2.905v9.625h10.675v-9.625h2.94v22.96h-2.94v-10.815h-10.675v10.815h-2.905z" fill="#144d36"/></g></svg>