<svg height="64" viewBox="0 0 64 64" width="64" xmlns="http://www.w3.org/2000/svg" xmlns:xlink="http://www.w3.org/1999/xlink"><linearGradient id="a" gradientTransform="matrix(1.0749904 0 0 1.0292896 56.688954 -.015285)" gradientUnits="userSpaceOnUse" x1="-74.929466" x2="-75.259552" y1="52.199436" y2="2.356489"><stop offset="0" stop-color="#197cf1"/><stop offset="1" stop-color="#20bcfa"/></linearGradient><g transform="translate(56.391766 -.176777)"><rect fill="#0b3969" height="7.69929" ry="2.5" width="44" x="-46.391766" y="54.477486"/><rect fill="url(#a)" height="52.831711" ry="2.5" width="44" x="-46.391766" y="1.645775"/><path d="m-46.391766 51.264462h44v7.911841h-44z" fill="#0b3969"/><g transform="matrix(.6021918 0 0 .6021918 27.056226 35.857853)"><g fill="#fff"><path d="m-94.391064 39.361946-2.7225-6.7375h1.375l1.98 5.225h.0275l2.0075-5.225h1.3475l-2.75 6.7375z"/><path d="m-87.553447 39.581946q-1.0725 0-1.80125-.61875-.715-.61875-.715-1.63625 0-1.1.8525-1.71875.8525-.6325 2.10375-.6325 1.11375 0 1.82875.4125v-.1925q0-.7425-.50875-1.1825-.50875-.45375-1.25125-.45375-.55 0-1.00375.26125-.44.26125-.605.715l-1.155-.495q.23375-.605.92125-1.11375.6875-.5225 1.815-.5225 1.2925 0 2.145.75625.8525.75625.8525 2.13125v4.07h-1.21v-.935h-.055q-.75625 1.155-2.21375 1.155zm.20625-1.155q.78375 0 1.41625-.5775.64625-.59125.64625-1.38875-.53625-.44-1.60875-.44-.92125 0-1.38875.39875-.4675.39875-.4675.935 0 .495.42625.78375.42625.28875.97625.28875z"/><path d="m-81.383564 39.361946h-1.265v-9.845h1.265z"/><path d="m-77.804911 39.581946q-1.0725 0-1.80125-.61875-.715-.61875-.715-1.63625 0-1.1.8525-1.71875.8525-.6325 2.10375-.6325 1.11375 0 1.82875.4125v-.1925q0-.7425-.50875-1.1825-.50875-.45375-1.25125-.45375-.55 0-1.00375.26125-.44.26125-.605.715l-1.155-.495q.23375-.605.92125-1.11375.6875-.5225 1.815-.5225 1.2925 0 2.145.75625.8525.75625.8525 2.13125v4.07h-1.21v-.935h-.055q-.75625 1.155-2.21375 1.155zm.20625-1.155q.78375 0 1.41625-.5775.64625-.59125.64625-1.38875-.53625-.44-1.60875-.44-.92125 0-1.38875.39875-.4675.39875-.4675.935 0 .495.42625.78375.42625.28875.97625.28875z"/></g><path d="m-88.610512 3.3641273-14.369088-35.5598543h7.25712l10.450242 27.57703h.145137l10.595389-27.57703h7.111969l-14.514222 35.5598543z" fill="#0b3969" stroke="#0b3969" stroke-width=".973357"/></g></g></svg>