<svg height="64" viewBox="0 0 64 64" width="64" xmlns="http://www.w3.org/2000/svg" xmlns:xlink="http://www.w3.org/1999/xlink"><linearGradient id="a" gradientTransform="matrix(1.0749904 0 0 1.0292896 56.688954 -.015285)" gradientUnits="userSpaceOnUse" x1="-74.929466" x2="-75.259552" y1="52.199436" y2="2.356489"><stop offset="0" stop-color="#8549a0"/><stop offset="1" stop-color="#c16fe3"/></linearGradient><g transform="translate(56.391766 -.176777)"><rect fill="#3d2248" height="7.69929" ry="2.5" width="44" x="-46.391766" y="54.477486"/><rect fill="url(#a)" height="52.831711" ry="2.5" width="44" x="-46.391766" y="1.645775"/><path d="m-46.391766 51.264462h44v7.911841h-44z" fill="#3d2248"/><g fill="#fff" transform="matrix(.81954967 0 0 .81954967 -4.634377 10.721775)"><path d="m-28.32127 59.374605q-.77 0-1.18-.41-.4-.41-.4-1.16v-2.57h-.86v-.84h.86v-1.5h.92v1.5h1.2v.84h-1.2v2.5q0 .8.66.8.25 0 .42-.08l.32.79q-.3.13-.74.13z"/><path d="m-24.744708 59.454605q-1.11 0-1.81-.74-.69-.74-.69-1.87 0-1.07.67-1.84.68-.77 1.73-.77 1.09 0 1.74.71.66.71.66 1.9l-.01.17h-3.87q.04.74.49 1.17.46.43 1.07.43.99 0 1.34-.84l.82.34q-.24.57-.79.96-.55.38-1.35.38zm1.32-3.2q-.03-.42-.39-.8-.35-.38-1.05-.38-.51 0-.89.32-.37.32-.51.86z"/><path d="m-17.630802 59.294605h-1.08l-1.21-1.81-1.19 1.81h-1.08l1.73-2.49-1.69-2.41h1.04l1.21 1.73 1.15-1.73h1.08l-1.71 2.41z"/></g><path d="m69.679821 15.282824v1.150299 1.1503 1.1503h25.306598v-1.1503-1.1503-1.150299zm9.741603 5.751499.03595 1.006512 6.901799 9.346187-7.476949 9.202399v1.1503h16.104198v-5.751499h-1.1503c0 1.150299.298287 1.863522-.68299 2.552227-1.075795.755023-2.492547.898672-3.738475.898672h-5.931234l5.7515-8.052099-5.7515-9.202399h3.379006c2.397333 0 5.809423-.221334 6.758012 2.660068.162158.492548.174857 1.423955.215681 1.941131h1.1503v-5.751499h-15.564995zm-9.741603 1.1503v1.1503h8.0521v-1.1503zm0 3.4509v1.150299h10.352699v-1.150299zm0 3.450899v1.1503h12.653299v-1.1503zm0 3.4509v1.1503h12.653299v-1.1503zm0 3.4509v1.150299h10.352699v-1.150299zm0 3.450899v1.1503h6.9018v-1.1503z" fill="#3d2248" transform="matrix(.8315412 0 0 .8315412 -92.733408 3.468475)"/></g></svg>