<svg height="64" viewBox="0 0 64 64" width="64" xmlns="http://www.w3.org/2000/svg" xmlns:xlink="http://www.w3.org/1999/xlink"><linearGradient id="a" gradientTransform="matrix(1.0749904 0 0 1.0292896 56.688954 -.015285)" gradientUnits="userSpaceOnUse" x1="-74.929466" x2="-75.259552" y1="52.199436" y2="2.356489"><stop offset="0" stop-color="#2db07b"/><stop offset="1" stop-color="#43d38b"/></linearGradient><g transform="translate(56.391766 -.176777)"><rect fill="#144d36" height="7.69929" ry="2.5" width="44" x="-46.391766" y="54.477486"/><rect fill="url(#a)" height="52.831711" ry="2.5" width="44" x="-46.391766" y="1.645775"/><path d="m-46.391766 51.264462h44v7.911841h-44z" fill="#144d36"/><g fill="#fff" transform="matrix(.81954967 0 0 .81954967 -4.534687 9.62173)"><path d="m-32.349246 60.79686q-1.1 0-1.81-.74-.71-.75-.71-1.87 0-1.12.71-1.86.71-.75 1.81-.75.82 0 1.36.4.54.4.79 1.01l-.84.35q-.38-.92-1.37-.92-.61 0-1.08.5-.46.5-.46 1.27 0 .77.46 1.27.47.5 1.08.5 1.03 0 1.42-.92l.82.35q-.25.6-.81 1.01-.55.4-1.37.4z"/><path d="m-29.002996 56.32686q.71-.75 1.81-.75 1.1 0 1.81.75.71.74.71 1.86 0 1.12-.71 1.87-.71.74-1.81.74-1.1 0-1.81-.74-.71-.75-.71-1.87 0-1.12.71-1.86zm.68 3.15q.48.48 1.13.48.65 0 1.12-.48.48-.49.48-1.29 0-.8-.48-1.28-.47-.49-1.12-.49-.65 0-1.13.49-.47.48-.47 1.28 0 .8.47 1.29z"/><path d="m-21.777527 60.79686q-.95 0-1.64-.75-.69-.75-.69-1.86 0-1.11.69-1.86.69-.75 1.64-.75.56 0 1 .24.45.24.67.6h.04l-.04-.68v-2.26h.92v7.16h-.88v-.68h-.04q-.22.36-.67.6-.44.24-1 .24zm.15-.84q.65 0 1.1-.48.46-.48.46-1.29 0-.81-.46-1.29-.45-.48-1.1-.48-.64 0-1.1.49-.46.48-.46 1.28 0 .8.46 1.29.46.48 1.1.48z"/><path d="m-15.904402 60.79686q-1.11 0-1.81-.74-.69-.74-.69-1.87 0-1.07.67-1.84.68-.77 1.73-.77 1.09 0 1.74.71.66.71.66 1.9l-.01.17h-3.87q.04.74.49 1.17.46.43 1.07.43.99 0 1.34-.84l.82.34q-.24.57-.79.96-.55.38-1.35.38zm1.32-3.2q-.03-.42-.39-.8-.35-.38-1.05-.38-.51 0-.89.32-.37.32-.51.86z"/></g><path d="m-101.4098 49.28788v-9.845h3.011247q2.26875 0 3.63 1.375 1.36125 1.36125 1.36125 3.5475 0 2.18625-1.36125 3.56125-1.36125 1.36125-3.63 1.36125zm1.265-1.21h1.746247q1.705 0 2.695-.97625 1.00375-.97625 1.00375-2.73625 0-1.74625-1.00375-2.7225-.99-.99-2.695-.99h-1.746247z" fill="#144d36" stroke="#144d36" stroke-width=".418412" transform="matrix(2.1435366 0 0 2.1435366 184.62729 -67.922039)"/></g></svg>