<svg height="64" viewBox="0 0 64 64" width="64" xmlns="http://www.w3.org/2000/svg" xmlns:xlink="http://www.w3.org/1999/xlink">
  <linearGradient id="a" gradientUnits="userSpaceOnUse" x1="32.2439" x2="32.619007" y1="61.648712" y2="1.53265">
    <stop offset="0" stop-color="#253183" />
    <stop offset="1" stop-color="#5f5fd3" />
  </linearGradient>
  <rect fill="url(#a)" height="60.531002" ry="2.864331" width="44" x="10" y="1.468998" />
  <path d="m10 51.087891v5.71289 2.199219.5c0 1.385 1.115 2.5 2.5 2.5h39c1.385 0 2.5-1.115 2.5-2.5v-.5-2.199219-5.71289z" opacity=".5" />
  <g fill="#fff">
    <g>
      <path d="m22.773437 58.953125q-.761718 0-1.207031-.488281v2.035156h-.726562v-5.851563h.664062l.03516.464844q.445313-.542969 1.222657-.542969.800781 0 1.226562.59375.425781.59375.425781 1.5625v.08203q0 .925781-.429687 1.535156-.425781.609375-1.210938.609375zm-.222656-3.773438q-.367187 0-.605469.167969-.238281.164063-.378906.414063v2.023437q.144531.25.378906.414063.238282.160156.613282.160156.585937 0 .855468-.460938.273438-.460937.273438-1.089843v-.08203q0-.628906-.273438-1.085937-.269531-.460938-.863281-.460938z" />
      <path d="m27.953125 58.875q-.07031-.152344-.101563-.445313-.203125.214844-.507812.371094-.304688.152344-.695313.152344-.648437 0-1.039062-.363281-.390625-.363282-.390625-.890625 0-.679688.515625-1.03125.515625-.355469 1.386719-.355469h.714843v-.335938q0-.375-.226562-.597656-.222656-.226562-.664063-.226562-.410156 0-.664062.203125-.25.199218-.25.464843h-.722656q0-.453125.457031-.851562.457031-.398438 1.222656-.398438.6875 0 1.128906.351563.441407.351562.441407 1.0625v1.96875q0 .210937.03516.449219.03906.238281.113281.410156v.0625zm-1.199219-.554688q.390625 0 .675781-.195312.289063-.195313.40625-.433594v-.871094h-.597656q-1.292969 0-1.292969.78125 0 .300782.203125.511719.203125.207031.605469.207031z" />
      <path d="m32.164062 57.753906q0-.234375-.175781-.417969-.171875-.1875-.796875-.3125-.707031-.148437-1.117187-.421875-.40625-.273437-.40625-.796875 0-.5.425781-.867187.429687-.367188 1.140625-.367188.757812 0 1.183594.386719.425781.386719.425781.933594h-.722656q0-.261719-.230469-.492188-.230469-.234375-.65625-.234375-.449219 0-.644531.195313-.195313.195312-.195313.425781 0 .234375.1875.378906.1875.140625.785156.273438.777344.179687 1.148438.464844.371094.285156.371094.796875 0 .558593-.449219.90625-.445313.347656-1.183594.347656-.839844 0-1.285156-.429688-.445313-.429687-.445313-.953125h.726563q.02344.449219.34375.621094.324219.167969.660156.167969.441406 0 .675781-.171875.234375-.171875.234375-.433594z" />
      <path d="m35.519531 58.359375q.386719 0 .675781-.230469.292969-.230469.320313-.589844h.6875q-.02734.566407-.519531.992188-.492188.421875-1.164063.421875-.953125 0-1.417969-.628906-.460937-.628907-.460937-1.480469v-.164063q0-.851562.460937-1.480468.464844-.628907 1.417969-.628907.742188 0 1.199219.441407.457031.4375.484375 1.089843h-.6875q-.02734-.390625-.296875-.664062-.265625-.273438-.699219-.273438-.445312 0-.699219.226563-.25.226562-.355468.574219-.101563.347656-.101563.714843v.164063q0 .371094.101563.71875.101562.347656.351562.574219.253906.222656.703125.222656z" />
      <path d="m40.625 58.875q-.07031-.152344-.101563-.445313-.203125.214844-.507812.371094-.304688.152344-.695313.152344-.648437 0-1.039062-.363281-.390625-.363282-.390625-.890625 0-.679688.515625-1.03125.515625-.355469 1.386719-.355469h.714843v-.335938q0-.375-.226562-.597656-.222656-.226562-.664063-.226562-.410156 0-.664062.203125-.25.199218-.25.464843h-.722656q0-.453125.457031-.851562.457031-.398438 1.222656-.398438.6875 0 1.128906.351563.441407.351562.441407 1.0625v1.96875q0 .210937.03516.449219.03906.238281.113281.410156v.0625zm-1.199219-.554688q.390625 0 .675781-.195312.289063-.195313.40625-.433594v-.871094h-.597656q-1.292969 0-1.292969.78125 0 .300782.203125.511719.203125.207031.605469.207031z" />
      <path d="m43.160156 52.875v6h-.726562v-6z" />
    </g>
    <path d="m-5.1664494 24.087417h-3.1354166v5.204426h-1.759115v-13.270832h4.8945316q2.2604165 0 3.4544269 1.139322 1.20312498 1.139323 1.20312498 2.907552 0 1.923177-1.20312498 2.971354-1.1940104 1.048178-3.4544269 1.048178zm-3.1354166-6.626302v5.195312h3.1354166q1.5494791 0 2.2239582-.720052.6744792-.720052.6744792-1.85026 0-1.020834-.6744792-1.822917-.6744791-.802083-2.2239582-.802083z" transform="matrix(1.6577535 0 0 1.657771 40.761127 -10.559168)" />
  </g>
</svg>
