<svg height="64" viewBox="0 0 64 64" width="64" xmlns="http://www.w3.org/2000/svg" xmlns:xlink="http://www.w3.org/1999/xlink"><linearGradient id="a" gradientTransform="matrix(1.0749904 0 0 1.0292896 56.688954 -.015285)" gradientUnits="userSpaceOnUse" x1="-74.929466" x2="-75.259552" y1="52.199436" y2="2.356489"><stop offset="0" stop-color="#1b92f4"/><stop offset="1" stop-color="#20b9fa"/></linearGradient><g transform="translate(56.391766 -.176777)"><rect fill="#0c426b" height="7.69929" ry="2.5" width="44" x="-46.391766" y="54.477486"/><rect fill="url(#a)" height="52.831711" ry="2.5" width="44" x="-46.391766" y="1.645775"/><path d="m-46.391766 51.264462h44v7.911841h-44z" fill="#0c426b"/><g fill="#fff" transform="matrix(.81954967 0 0 .81954967 -4.834287 10.621959)"><path d="m-26.60526 59.782608h-1.08l-1.21-1.81-1.19 1.81h-1.08l1.73-2.49-1.69-2.41h1.04l1.21 1.73 1.15-1.73h1.08l-1.71 2.41z"/><path d="m-25.958698 59.782608v-4.9h.88v.68h.04q.21-.35.64-.59.44-.25.87-.25 1.14 0 1.55.94.6-.94 1.71-.94.87 0 1.31.56.44.55.44 1.5v3h-.92v-2.86q0-.74-.27-1.05-.27-.31-.82-.31-.54 0-.9.46-.35.46-.35 1.05v2.71h-.92v-2.86q0-.74-.27-1.05-.27-.31-.82-.31-.54 0-.9.46-.35.46-.35 1.05v2.71z"/><path d="m-16.523073 59.782608h-.92v-7.16h.92z"/></g><g fill="#0c426b" stroke-opacity=".8" transform="matrix(.156052359569 0 0 .156052338369 -49.970812019691 -3.69023831789)"><path d="m129.532 225.558c-.133-.919-.625-1.747-1.368-2.303l-37.7-28.193 37.7-28.193c.743-.556 1.235-1.384 1.368-2.303.132-.919-.105-1.852-.662-2.597l-5.989-8.008c-1.159-1.548-3.351-1.865-4.899-.706l-52.157 39.004c-.883.66-1.404 1.699-1.404 2.803s.521 2.143 1.404 2.803l52.157 39.004c.628.471 1.364.697 2.093.697 1.066 0 2.119-.484 2.806-1.403l5.989-8.008c.556-.745.794-1.678.662-2.597z"/><path d="m259.766 192.259-52.155-39.004c-1.548-1.158-3.74-.841-4.898.706l-5.989 8.008c-.556.744-.794 1.678-.662 2.597.133.918.624 1.747 1.368 2.303l37.699 28.193-37.699 28.193c-.744.556-1.235 1.385-1.368 2.303-.132.919.105 1.853.662 2.597l5.989 8.008c.688.919 1.74 1.403 2.806 1.403.729 0 1.464-.227 2.093-.697l52.155-39.004c.883-.66 1.404-1.699 1.404-2.803s-.522-2.143-1.405-2.803z"/><path d="m196.264 132.436-9.211-3.895c-.854-.362-1.818-.368-2.679-.02-.86.349-1.547 1.025-1.908 1.88l-55 130.084c-.753 1.78.08 3.834 1.861 4.587l9.211 3.895c.435.185.899.276 1.363.276.447 0 .894-.086 1.316-.257.86-.349 1.546-1.025 1.908-1.88l55-130.084c.752-1.78-.081-3.833-1.861-4.586z"/></g></g></svg>