<svg height="64" viewBox="0 0 64 64" width="64" xmlns="http://www.w3.org/2000/svg" xmlns:xlink="http://www.w3.org/1999/xlink"><linearGradient id="a" gradientTransform="matrix(1.0749904 0 0 1.0292896 56.688954 -.015285)" gradientUnits="userSpaceOnUse" x1="-74.929466" x2="-75.259552" y1="52.199436" y2="2.356489"><stop offset="0" stop-color="#13b89f"/><stop offset="1" stop-color="#34e1bf"/></linearGradient><g transform="translate(56.391766 -.176777)"><rect fill="#0a5146" height="7.69929" ry="2.5" width="44" x="-46.391766" y="54.477486"/><rect fill="url(#a)" height="52.831711" ry="2.5" width="44" x="-46.391766" y="1.645775"/><path d="m-46.391766 51.264462h44v7.911841h-44z" fill="#0a5146"/><g fill="#fff" transform="matrix(.81954967 0 0 .81954967 -3.957284 10.453828)"><path d="m-36.620376 59.698456q-1.1 0-1.81-.74-.71-.75-.71-1.87 0-1.12.71-1.86.71-.75 1.81-.75.82 0 1.36.4.54.4.79 1.01l-.84.35q-.38-.92-1.37-.92-.61 0-1.08.5-.46.5-.46 1.27 0 .77.46 1.27.47.5 1.08.5 1.03 0 1.42-.92l.82.35q-.25.6-.81 1.01-.55.4-1.37.4z"/><path d="m-31.825532 59.698456q-.82 0-1.36-.4-.53-.4-.78-1l .82-.34q.39.92 1.33.92.43 0 .7-.19.28-.19.28-.5 0-.48-.67-.65l-.99-.24q-.47-.12-.89-.45-.42-.34-.42-.91 0-.65.57-1.05.58-.41 1.37-.41.65 0 1.16.3.51.29.73.84l-.8.33q-.27-.65-1.12-.65-.41 0-.69.17-.28.17-.28.46 0 .42.65.57l.97.23q.69.16 1.02.55.33.39.33.88 0 .66-.54 1.1-.54.44-1.39.44z"/><path d="m-28.174751 52.378456v2.26l-.04.68h.04q.2-.35.63-.59.43-.25.92-.25.91 0 1.39.56.48.56.48 1.5v3h-.92v-2.86q0-1.36-1.21-1.36-.57 0-.93.46-.36.45-.36 1.05v2.71h-.92v-7.16z"/><path d="m-22.173657 59.698456q-.78 0-1.31-.45-.52-.45-.52-1.19 0-.8.62-1.25.62-.46 1.53-.46.81 0 1.33.3v-.14q0-.54-.37-.86-.37-.33-.91-.33-.4 0-.73.19-.32.19-.44.52l-.84-.36q.17-.44.67-.81.5-.38 1.32-.38.94 0 1.56.55.62.55.62 1.55v2.96h-.88v-.68h-.04q-.55.84-1.61.84zm.15-.84q.57 0 1.03-.42.47-.43.47-1.01-.39-.32-1.17-.32-.67 0-1.01.29-.34.29-.34.68 0 .36.31.57.31.21.71.21z"/><path d="m-17.68647 59.538456h-.92v-4.9h.88v.8h.04q.14-.4.57-.66.44-.26.85-.26.41 0 .69.12l-.35.86q-.18-.07-.49-.07-.5 0-.89.4-.38.39-.38 1.03z"/><path d="m-12.423657 59.698456q-.56 0-1.01-.24-.44-.24-.66-.6h-.04l.04.68v2.16h-.92v-7.06h.88v.68h.04q.22-.36.66-.6.45-.24 1.01-.24.95 0 1.64.75.69.75.69 1.86 0 1.11-.69 1.86-.69.75-1.64.75zm-.15-.84q.64 0 1.1-.48.46-.49.46-1.29 0-.8-.46-1.28-.46-.49-1.1-.49-.65 0-1.11.48-.45.48-.45 1.29 0 .81.45 1.29.46.48 1.11.48z"/></g><path d="m105.37296 35.281223h-7.360704l-2.12474 8.448371h7.411294zm-3.79418-14.392585-2.630626 10.497228h7.386006l2.65592-10.497228h4.04712l-2.60533 10.497228h7.89189v3.895357h-8.87838l-2.07415 8.448371h8.04366v3.870063h-9.03015l-2.63063 10.471933h-4.04712l2.60534-10.471933h-7.4113l-2.605336 10.471933h-4.072419l2.630631-10.471933h-7.967776v-3.870063h8.903673l2.12474-8.448371h-8.144837v-3.895357h9.131324l2.580041-10.497228z" fill="#0a5146" transform="matrix(.591668998178 -.000000001197 .000000001197 .591668998178 -83.8329176685 3.929711463165)"/></g></svg>