<svg height="64" viewBox="0 0 64 64" width="64" xmlns="http://www.w3.org/2000/svg" xmlns:xlink="http://www.w3.org/1999/xlink"><linearGradient id="a" gradientTransform="matrix(1.0749904 0 0 1.0292896 56.688954 -.015285)" gradientUnits="userSpaceOnUse" x1="-74.929466" x2="-75.259552" y1="52.199436" y2="2.356489"><stop offset="0" stop-color="#d1d7df"/><stop offset="1" stop-color="#e0e5e7"/></linearGradient><g transform="translate(56.391766 -.176777)"><rect fill="#3d434a" height="7.69929" ry="2.5" width="44" x="-46.391766" y="54.477486"/><rect fill="url(#a)" height="52.831711" ry="2.5" width="44" x="-46.391766" y="1.645775"/><path d="m-46.391766 51.264462h44v7.911841h-44z" fill="#3d434a"/><g fill="#3d434a" transform="matrix(1.659751 0 0 1.659751 42.528827 -18.868467)"><path d="m-44.258811 24.49726q.275-.275.67375-.275.39875 0 .66.275.275.275.275.66 0 .385-.275.66-.26125.275-.66.275-.39875 0-.67375-.275-.26125-.275-.26125-.66 0-.385.26125-.66zm.0275 2.86h1.2925v.64625q0 .61875-.26125 1.0725-.26125.44-.92125 1.045-.37125.34375-.53625.5225-.15125.165-.31625.48125-.15125.3025-.15125.6325 0 .6325.39875 1.0175.4125.385 1.1275.385 1.1825 0 1.6225-1.32l1.1825.495q-.28875.78375-1.00375 1.4025-.70125.6325-1.80125.6325-1.25125 0-2.035-.7425-.78375-.72875-.78375-1.87 0-.495.26125-1.00375.26125-.50875.45375-.715.20625-.22.56375-.55.04125-.04125.06875-.06875.83875-.75625.83875-1.5125z" fill="#3d434a"/><path d="m-36.346761 30.98726q-.26125.275-.66.275-.39875 0-.67375-.275-.26125-.275-.26125-.66 0-.385.26125-.66.275-.275.67375-.275.39875 0 .66.275.275.275.275.66 0 .385-.275.66zm-.01375-2.86h-1.2925v-.64625q0-.61875.26125-1.05875.26125-.45375.92125-1.05875.37125-.34375.5225-.50875.165-.17875.31625-.48125.165-.31625.165-.64625 0-.6325-.4125-1.0175-.39875-.385-1.11375-.385-1.1825 0-1.6225 1.32l-1.1825-.495q.28875-.78375.99-1.4025.715-.6325 1.815-.6325 1.25125 0 2.035.7425.78375.72875.78375 1.87 0 .495-.26125 1.00375-.26125.50875-.4675.72875-.1925.20625-.55.53625-.04125.04125-.06875.06875-.83875.75625-.83875 1.5125z" fill="#3d434a"/></g></g></svg>