<?xml version="1.0" encoding="UTF-8" standalone="no"?>
<!-- Created with Inkscape (http://www.inkscape.org/) -->

<svg
   xmlns:dc="http://purl.org/dc/elements/1.1/"
   xmlns:cc="http://creativecommons.org/ns#"
   xmlns:rdf="http://www.w3.org/1999/02/22-rdf-syntax-ns#"
   xmlns:svg="http://www.w3.org/2000/svg"
   xmlns="http://www.w3.org/2000/svg"
   xmlns:xlink="http://www.w3.org/1999/xlink"
   xmlns:sodipodi="http://sodipodi.sourceforge.net/DTD/sodipodi-0.dtd"
   xmlns:inkscape="http://www.inkscape.org/namespaces/inkscape"
   id="svg7384"
   style="enable-background:new"
   height="16"
   width="16"
   version="1.1"
   inkscape:version="0.91 r13725"
   sodipodi:docname="airplane-mode-symbolic.svg">
  <sodipodi:namedview
     pagecolor="#ffffff"
     bordercolor="#666666"
     borderopacity="1"
     objecttolerance="10"
     gridtolerance="10"
     guidetolerance="10"
     inkscape:pageopacity="0"
     inkscape:pageshadow="2"
     inkscape:window-width="1366"
     inkscape:window-height="633"
     id="namedview10"
     showgrid="false"
     inkscape:zoom="29.5"
     inkscape:cx="6.2579855"
     inkscape:cy="9.231698"
     inkscape:window-x="0"
     inkscape:window-y="33"
     inkscape:window-maximized="1"
     inkscape:current-layer="g3" />
  <metadata
     id="metadata90">
    <rdf:RDF>
      <cc:Work
         rdf:about="">
        <dc:format>image/svg+xml</dc:format>
        <dc:type
           rdf:resource="http://purl.org/dc/dcmitype/StillImage" />
        <dc:title>Paper Symbolic Icon Theme</dc:title>
      </cc:Work>
    </rdf:RDF>
  </metadata>
  <title
     id="title8473">Paper Symbolic Icon Theme</title>
  <defs
     id="defs7386">
    <filter
       id="filter7554"
       color-interpolation-filters="sRGB">
      <feBlend
         id="feBlend7556"
         in2="BackgroundImage"
         mode="darken" />
    </filter>
    <linearGradient
       gradientTransform="translate(-1,-2)"
       gradientUnits="userSpaceOnUse"
       xlink:href="#linearGradient3678"
       id="linearGradient2868"
       y2="19"
       x2="8.9254236"
       y1="5.9997859"
       x1="8.9254236" />
    <linearGradient
       id="linearGradient3678">
      <stop
         offset="0"
         style="stop-color:#ffffff;stop-opacity:1"
         id="stop3680" />
      <stop
         offset="1"
         style="stop-color:#e6e6e6;stop-opacity:1"
         id="stop3682" />
    </linearGradient>
    <linearGradient
       gradientTransform="translate(-2,-1)"
       gradientUnits="userSpaceOnUse"
       xlink:href="#linearGradient3678"
       id="linearGradient2393"
       y2="21"
       x2="9"
       y1="3"
       x1="9" />
    <linearGradient
       x1="14"
       y1="3"
       x2="14"
       y2="21"
       id="linearGradient2398"
       xlink:href="#linearGradient3587-6-5-3"
       gradientUnits="userSpaceOnUse"
       gradientTransform="translate(-1.0001235,-5)" />
    <linearGradient
       id="linearGradient3587-6-5-3">
      <stop
         id="stop3589-9-2-0"
         style="stop-color:#000000;stop-opacity:1"
         offset="0" />
      <stop
         id="stop3591-7-4-7"
         style="stop-color:#363636;stop-opacity:1"
         offset="1" />
    </linearGradient>
    <linearGradient
       x1="66.09668"
       y1="9.3638258"
       x2="66.09668"
       y2="27.363825"
       id="linearGradient2395"
       xlink:href="#linearGradient3587-6-5-3"
       gradientUnits="userSpaceOnUse"
       gradientTransform="translate(-52.096803,-11.363826)" />
    <linearGradient
       x1="4.9554448"
       y1="2.6841583"
       x2="4.9554448"
       y2="13.496136"
       id="linearGradient7390"
       xlink:href="#linearGradient3587-6-5-3"
       gradientUnits="userSpaceOnUse" />
    <linearGradient
       x1="7.9109159"
       y1="4.5762329"
       x2="7.9109159"
       y2="11.649005"
       id="linearGradient7392"
       xlink:href="#linearGradient3587-6-5-3"
       gradientUnits="userSpaceOnUse" />
    <linearGradient
       x1="10.186814"
       y1="2.7742527"
       x2="10.186814"
       y2="13.317288"
       id="linearGradient7394"
       xlink:href="#linearGradient3587-6-5-3"
       gradientUnits="userSpaceOnUse" />
    <linearGradient
       x1="13.917011"
       y1="0.88217813"
       x2="13.917011"
       y2="15.183488"
       id="linearGradient7396"
       xlink:href="#linearGradient3587-6-5-3"
       gradientUnits="userSpaceOnUse" />
    <linearGradient
       id="linearGradient5263">
      <stop
         id="stop5265"
         style="stop-color:#a0d5ff;stop-opacity:1"
         offset="0" />
      <stop
         id="stop5267"
         style="stop-color:#a0d5ff;stop-opacity:1"
         offset="1" />
    </linearGradient>
  </defs>
  <g
     id="g3"
     transform="matrix(0.01960784,0,0,0.01960784,1.9999895,1.9999617)"
     style="fill:#bebebe;fill-opacity:1">
    <path
       d="m 571.771,123.555 c 25.121,-33.626 40.157,-68.538 40.23,-93.48 -0.031,-8.077 -1.651,-14.389 -4.733,-19.091 -0.324,-0.575 -1.212,-2.08 -2.779,-3.563 -1.558,-1.546 -2.958,-2.372 -3.261,-2.539 -4.932,-3.292 -11.274,-4.88 -19.353,-4.88 -24.88,0.042 -59.802,15.068 -93.438,40.23 -27.188,20.345 -54.378,48.997 -92.017,88.673 -6.385,6.729 -13.104,13.804 -20.21,21.223 C 240.52143,110.44911 239.16427,109.05194 107.233,69.532 105.572,69.041 103.816,68.78 101.935,68.78 96.669,68.843 91.789,70.797 88.226,74.329 L 62.165,100.4 c -2.958,2.957 -4.619,6.959 -4.587,10.752 -0.094,5.59 2.999,10.752 7.952,13.406 l 155.884,87.085 c 0.763,0.428 2.968,2.059 3.783,2.874 l 44.441,44.431 c -41.568,43.793 -78.601,86.208 -107.461,123.104 -2.696,3.428 -5.246,6.771 -7.754,10.084 L 33.827,381.185 c -0.585,-0.073 -1.244,-0.126 -2.08,-0.126 -5.528,0.115 -10.93,2.3 -14.942,6.176 L 4.652,399.377 c -2.999,2.937 -4.692,6.907 -4.65,10.742 -0.094,5.852 3.448,11.264 8.767,13.636 l 84.838,40.293 c 0.731,0.366 2.633,1.714 3.25,2.33 l 7.043,6.991 c -2.205,6.207 -3.323,11.588 -3.386,16.312 -0.021,6.321 2.017,11.734 5.915,15.632 l 0.303,0.262 0.083,0.062 c 4.002,3.877 9.185,5.852 15.601,5.852 4.619,-0.073 9.948,-1.17 16.176,-3.364 l 7.147,7.137 c 0.554,0.585 1.881,2.445 2.226,3.187 l 40.209,84.651 c 2.456,5.402 7.753,8.902 13.521,8.902 l 0.083,0 c 3.992,0 7.806,-1.599 10.721,-4.524 l 12.445,-12.487 c 3.688,-3.887 5.862,-9.247 5.945,-14.9 0,-0.689 -0.031,-1.223 -0.052,-1.516 L 219.855,457.54 c 3.302,-2.487 6.646,-5.047 10.083,-7.722 36.949,-28.903 79.374,-65.968 123.083,-107.473 l 44.473,44.515 c 0.721,0.689 2.403,2.895 2.895,3.814 l 86.918,155.602 c 2.654,5.026 7.764,8.13 13.428,8.13 4.044,0 7.889,-1.599 10.836,-4.566 l 26.248,-26.229 c 3.407,-3.562 5.319,-8.401 5.371,-13.688 0,-1.776 -0.25,-3.5 -0.71,-5.12 -43.20914,-145.95226 -43.25808,-144.30536 -80.63,-269.041 7.545,-7.189 14.702,-14.034 21.547,-20.481 39.535,-37.515 68.082,-64.6 88.374,-91.726 z"
       id="path5"
       inkscape:connector-curvature="0"
       style="fill:#bebebe;fill-opacity:1"
       sodipodi:nodetypes="ccccccccccccccccccccccccccccccccccccccssccccccccccsccccccc" />
  </g>
</svg>
