<?xml version="1.0" encoding="UTF-8" standalone="no"?>
<svg
   xmlns:osb="http://www.openswatchbook.org/uri/2009/osb"
   xmlns:dc="http://purl.org/dc/elements/1.1/"
   xmlns:cc="http://creativecommons.org/ns#"
   xmlns:rdf="http://www.w3.org/1999/02/22-rdf-syntax-ns#"
   xmlns:svg="http://www.w3.org/2000/svg"
   xmlns="http://www.w3.org/2000/svg"
   xmlns:sodipodi="http://sodipodi.sourceforge.net/DTD/sodipodi-0.dtd"
   xmlns:inkscape="http://www.inkscape.org/namespaces/inkscape"
   height="16"
   version="1.1"
   width="16"
   enable-background="new"
   id="svg2"
   inkscape:version="0.91 r13725"
   sodipodi:docname="mail-attachment-symbolic.svg">
  <sodipodi:namedview
     pagecolor="#ffffff"
     bordercolor="#666666"
     borderopacity="1"
     objecttolerance="10"
     gridtolerance="10"
     guidetolerance="10"
     inkscape:pageopacity="0"
     inkscape:pageshadow="2"
     inkscape:window-width="640"
     inkscape:window-height="480"
     id="namedview12"
     showgrid="false"
     inkscape:zoom="41.1875"
     inkscape:cx="3.6783005"
     inkscape:cy="8"
     inkscape:current-layer="layer9" />
  <metadata
     id="metadata90">
    <rdf:RDF>
      <cc:Work
         rdf:about="">
        <dc:format>image/svg+xml</dc:format>
        <dc:type
           rdf:resource="http://purl.org/dc/dcmitype/StillImage" />
        <dc:title></dc:title>
      </cc:Work>
    </rdf:RDF>
  </metadata>
  <defs
     id="defs7386">
    <linearGradient
       id="linearGradient5606"
       osb:paint="solid">
      <stop
         id="stop5608" />
    </linearGradient>
  </defs>
  <g
     inkscape:groupmode="layer"
     id="layer9"
     inkscape:label="status"
     transform="translate(-321.00021,223)">
    <path
       inkscape:connector-curvature="0"
       d="m 329.67996,-220.99977 c -1.26068,0 -2.28621,0.99625 -2.32006,2.2211 a 0.46405863,0.46157574 0 0 0 0,0.0289 c -1.4e-4,0.0103 0,0.0185 0,0.0288 0,0.007 -7e-5,0.0214 0,0.0289 a 0.46932916,0.45639226 0 0 0 0,0.11539 l 0,4.8749 a 0.46405881,0.46157556 0 0 0 0,0.0289 0.46405863,0.46157574 0 0 0 0,0.0287 0.46405881,0.46157556 0 0 0 0,0.0289 c -0.002,0.75921 0.62874,1.38273 1.39203,1.38458 0.76244,9.2e-4 1.39018,-0.62601 1.39204,-1.38458 a 0.46405881,0.46157556 0 0 0 0,-0.0577 l 0,-3.17273 a 0.46405863,0.46157574 0 0 0 -0.55102,-0.46154 0.46405863,0.46157574 0 0 0 -0.37701,0.46154 l 0,3.20186 a 0.46405863,0.46157574 0 0 0 0,0.0865 c -0.03,0.22937 -0.22347,0.40446 -0.46401,0.40383 -0.26176,-6.6e-4 -0.46468,-0.20117 -0.46401,-0.46152 a 0.46405881,0.46157556 0 0 0 0,-0.0865 l 0,-4.84606 a 0.46932916,0.45639226 0 0 0 0,-0.0577 l 0,-0.0865 a 0.46405863,0.46157574 0 0 0 0,-0.0577 c 0.0167,-0.75118 0.63439,-1.3269 1.39204,-1.3269 0.74712,0 1.35929,0.56184 1.39203,1.29806 a 0.46405863,0.46157574 0 0 0 0,0.0289 c 2.3e-4,0.0104 0,0.0184 0,0.0287 a 0.46932916,0.45639226 0 0 0 0,0.14424 l 0,5.88449 0,0.28846 a 0.46405863,0.46157574 0 0 0 0,0.0865 l 0,0.0865 c 0,1.27993 -1.03323,2.30765 -2.32006,2.30765 -1.25712,0 -2.27388,-0.9825 -2.32006,-2.22113 -7.2e-4,-0.0195 2.4e-4,-0.038 0,-0.0577 a 0.46405863,0.46157574 0 0 0 0,-0.0285 c 0,-0.007 -7e-5,-0.0213 0,-0.0289 l 0,-0.46152 0,-5.04804 a 0.46405863,0.46157574 0 0 0 -0.55101,-0.46162 0.46405863,0.46157574 0 0 0 -0.37701,0.46153 l 0,5.04799 0,0.46152 0,0.0289 a 0.46405863,0.46157574 0 0 0 0,0.11537 c 7e-4,0.0199 0.028,0.0379 0.029,0.0577 0.0915,1.69846 1.48944,3.05763 3.21908,3.05763 1.78837,0 3.2481,-1.45191 3.2481,-3.2307 l 0,-0.0865 0,-0.0577 a 0.46405863,0.46157574 0 0 0 0,-0.0287 l 0,-0.28851 0,-5.99987 a 0.46932916,0.45639226 0 0 0 0,-0.0289 0.46405863,0.46157574 0 0 0 0,-0.0287 c -0.0172,-1.23909 -1.04876,-2.25004 -2.32007,-2.25004 z"
       id="path35480"
       style="color:#000000;fill:#bebebe;stroke-width:7.75500011" />
  </g>
</svg>
