<?xml version="1.0" encoding="UTF-8" standalone="no"?>
<svg
   xmlns:osb="http://www.openswatchbook.org/uri/2009/osb"
   xmlns:dc="http://purl.org/dc/elements/1.1/"
   xmlns:cc="http://creativecommons.org/ns#"
   xmlns:rdf="http://www.w3.org/1999/02/22-rdf-syntax-ns#"
   xmlns:svg="http://www.w3.org/2000/svg"
   xmlns="http://www.w3.org/2000/svg"
   xmlns:sodipodi="http://sodipodi.sourceforge.net/DTD/sodipodi-0.dtd"
   xmlns:inkscape="http://www.inkscape.org/namespaces/inkscape"
   height="16"
   version="1.1"
   width="16"
   enable-background="new"
   id="svg6341"
   inkscape:version="0.91 r13725"
   sodipodi:docname="network-cellular-umts-symbolic.svg">
  <sodipodi:namedview
     pagecolor="#ffffff"
     bordercolor="#666666"
     borderopacity="1"
     objecttolerance="10"
     gridtolerance="10"
     guidetolerance="10"
     inkscape:pageopacity="0"
     inkscape:pageshadow="2"
     inkscape:window-width="640"
     inkscape:window-height="480"
     id="namedview6352"
     showgrid="false"
     inkscape:zoom="41.1875"
     inkscape:cx="3.6783005"
     inkscape:cy="8"
     inkscape:current-layer="layer9" />
  <metadata
     id="metadata90">
    <rdf:RDF>
      <cc:Work
         rdf:about="">
        <dc:format>image/svg+xml</dc:format>
        <dc:type
           rdf:resource="http://purl.org/dc/dcmitype/StillImage" />
      </cc:Work>
    </rdf:RDF>
  </metadata>
  <defs
     id="defs7386">
    <linearGradient
       id="linearGradient5606"
       osb:paint="solid">
      <stop
         id="stop5608" />
    </linearGradient>
  </defs>
  <g
     inkscape:groupmode="layer"
     id="layer9"
     inkscape:label="status"
     transform="translate(-381.0002,283)">
    <g
       id="g16124"
       transform="matrix(0.85714286,0,0,0.85714286,329.85751,-484.99998)"
       style="fill:#bebebe">
      <path
         inkscape:connector-curvature="0"
         d="m -77.0002,20.99998 c 0,0 -2,0 -2,2.0625 l 0,9.9375 c 0,2 2,2 2,2 l 10,0 c 2,0 2,-2 2,-2 l 0,-10 c 0,0 1.3e-5,-2 -2,-2 z M -76,23 l 2,0 0,8 4,0 0,-8 2,0 0,8 c 0,0 0,2 -2,2 l -4,0 c 0,0 -2,0 -2,-2 z"
         id="path16126"
         sodipodi:nodetypes="csscsccscccccccccccc"
         transform="translate(141,217)"
         style="color:#bebebe" />
    </g>
  </g>
</svg>
