<svg xmlns="http://www.w3.org/2000/svg" viewBox="0 0 16 16">
  <defs id="defs3051">
    <style type="text/css" id="current-color-scheme">
      .ColorScheme-Text {
        color:#bebebe;
      }
      </style>
  </defs>
 <path 
     style="fill:currentColor;fill-opacity:1;stroke:none" 
     class="ColorScheme-Text"
     d="M 8 1 C 4.13401 1 1 4.13401 1 8 C 1 11.86599 4.13401 15 8 15 C 11.86599 15 15 11.86599 15 8 C 15 4.13401 11.86599 1 8 1 z M 5 5.0351562 C 5.55407 5.0351562 6 5.4846063 6 6.0351562 C 6 6.5857962 5.55407 7.0351562 5 7.0351562 C 4.44576 7.0351562 4 6.5857962 4 6.0351562 C 4 5.4846063 4.44576 5.0351562 5 5.0351562 z M 11 5.0351562 C 11.55415 5.0351562 12 5.4846063 12 6.0351562 C 12 6.5857962 11.55415 7.0351562 11 7.0351562 C 10.44593 7.0351562 10 6.5857962 10 6.0351562 C 10 5.4846063 10.44593 5.0351562 11 5.0351562 z M 3.4238281 10.035156 L 12.580078 10.035156 C 11.785198 11.856456 9.9872 13.034166 8 13.035156 C 6.01421 13.032156 4.2181381 11.855156 3.4238281 10.035156 z "
     />
</svg>
