<svg xmlns="http://www.w3.org/2000/svg" viewBox="0 0 16 16">
  <defs id="defs3051">
    <style type="text/css" id="current-color-scheme">
      .ColorScheme-Text {
        color:#bebebe;
      }
      </style>
  </defs>
 <path 
     style="fill:currentColor;fill-opacity:1;stroke:none" 
     class="ColorScheme-Text"
     d="M 8 1 C 4.13401 1 1 4.13401 1 8 C 1 11.86599 4.13401 15 8 15 C 11.86599 15 15 11.86599 15 8 C 15 4.13401 11.86599 1 8 1 z M 5 5.0039062 C 5.55407 5.0039062 6 5.4533563 6 6.0039062 C 6 6.5545462 5.55407 7.0039062 5 7.0039062 C 4.44576 7.0039062 4 6.5545462 4 6.0039062 C 4 5.4533563 4.44576 5.0039062 5 5.0039062 z M 11 5.0039062 C 11.55415 5.0039062 12 5.4533563 12 6.0039062 C 12 6.5545462 11.55415 7.0039062 11 7.0039062 C 10.44593 7.0039062 10 6.5545462 10 6.0039062 C 10 5.4533563 10.44593 5.0039062 11 5.0039062 z M 12.103516 6.9003906 L 12.308594 7.1074219 L 13.152344 7.9511719 C 13.424244 8.2230719 13.603516 8.58755 13.603516 9 C 13.603516 9.82487 12.928396 10.5 12.103516 10.5 C 11.278646 10.5 10.603516 9.82487 10.603516 9 C 10.603516 8.58757 10.780844 8.2230719 11.052734 7.9511719 L 11.896484 7.1074219 L 12.103516 6.9003906 z M 8 10.003906 C 9.32561 10.004906 10.596473 10.532733 11.533203 11.470703 L 10.826172 12.177734 C 10.076952 11.427314 9.06041 11.005106 8 11.003906 C 6.93959 11.004906 5.9230481 11.427314 5.1738281 12.177734 L 4.4667969 11.470703 C 5.4035269 10.532733 6.67439 10.005146 8 10.003906 z "
     />
</svg>
