<svg enable-background="new" height="16" width="16" xmlns="http://www.w3.org/2000/svg" xmlns:xlink="http://www.w3.org/1999/xlink"><filter id="a" color-interpolation-filters="sRGB"><feBlend in2="BackgroundImage" mode="darken"/></filter><g filter="url(#a)" transform="translate(-785.00017 159.00341)"/><path d="m793.0002-158.00391c-3.86599 0-7 3.13401-7 7s3.13401 7 7 7 7-3.13401 7-7-3.13401-7-7-7zm-3 4.00391c.55407 0 1 .44945 1 1 0 .55064-.44593 1-1 1-.55424 0-1-.44936-1-1 0-.55055.44576-1 1-1zm4.5.99609h3c .277 0 .5.223.5.5s-.223.5-.5.5h-3c-.277 0-.5-.223-.5-.5s.223-.5.5-.5zm-4.32617 3.83008c.74922.75042 1.76576 1.17283 2.82617 1.17383 1.06041-.001 2.07695-.42341 2.82617-1.17383l.70703.70703c-.93673.93797-2.20759 1.4658-3.5332 1.4668-1.32561-.001-2.59647-.52883-3.5332-1.4668l.70703-.70703z" fill="#bebebe" transform="translate(-785.00017 159.00341)"/></svg>