<svg enable-background="new" height="16" width="16" xmlns="http://www.w3.org/2000/svg" xmlns:xlink="http://www.w3.org/1999/xlink"><filter id="a" color-interpolation-filters="sRGB"><feBlend in2="BackgroundImage" mode="darken"/></filter><g filter="url(#a)" transform="translate(-665.0004 159.00336)"/><g transform="translate(-665.0004 159.00336)"><path d="m667.09395-154.75391c-.69214 1.08566-1.09375 2.36704-1.09375 3.75 0 3.86599 3.13401 7 7 7s7-3.13401 7-7c0-1.38296-.40161-2.66434-1.09375-3.75-.30705.1072-.61945.20124-.96875.28125-1.33744.30637-3.04479.46875-4.9375.46875s-3.60006-.16238-4.9375-.46875c-.3493-.08-.6617-.17405-.96875-.28125zm2.90625 1.75391c.55407 0 1 .44945 1 1 0 .55064-.44593 1-1 1-.55424 0-1-.44936-1-1 0-.55055.44576-1 1-1zm6 0c .55415 0 1 .44945 1 1 0 .55064-.44585 1-1 1-.55407 0-1-.44936-1-1 0-.55055.44593-1 1-1zm-5.82617 4.82617c.74922.75042 1.76576 1.17283 2.82617 1.17383 1.06041-.001 2.07695-.42341 2.82617-1.17383l.70703.70703c-.93673.93797-2.20759 1.4658-3.5332 1.4668-1.32561-.001-2.59647-.52883-3.5332-1.4668l.70703-.70703z" fill="#bebebe"/><path d="m673-159.00391c-1.83124 0-3.48187.16768-4.71094.44922-.61453.14077-1.12217.30468-1.51758.51953-.1977.10743-.37116.22834-.51367.38868-.1425.16033-.25781.38326-.25781.63281v.0215c0 .24955.11531.47248.25781.63281.14251.16034.31597.2793.51367.38672.39541.21486.90305.38072 1.51758.52149 1.22907.28154 2.8797.44726 4.71094.44726s3.48383-.16572 4.71289-.44726c.61453-.14077 1.12218-.30663 1.51758-.52149.1977-.10742.36921-.22638.51172-.38672.1425-.16033.25781-.38326.25781-.63281v-.0215c0-.24955-.11531-.47248-.25781-.63281-.14251-.16034-.31402-.28125-.51172-.38868-.3954-.21485-.90305-.37876-1.51758-.51953-1.22906-.28154-2.88165-.44922-4.71289-.44922zm0 1c1.76977 0 3.36759.16712 4.48828.42383.56035.12836 1.00298.28217 1.26367.42383.11447.0622.17536.11571.21289.15234-.0374.0366-.098.0899-.21289.15235-.26069.14165-.70332.29742-1.26367.42578-1.12069.25671-2.71851.42187-4.48828.42187s-3.36759-.16516-4.48828-.42187c-.56035-.12836-1.00298-.28413-1.26367-.42578-.1149-.0624-.17553-.11575-.21289-.15235.0375-.0366.0984-.0901.21289-.15234.26069-.14166.70332-.29547 1.26367-.42383 1.12069-.25671 2.71851-.42383 4.48828-.42383zm-6 .99024c0 .0136.004.001.002.01.003.008-.002-.004-.002.0117v-.0215zm12 0v .0215c0-.0162-.005-.003-.002-.0117-.002-.008.002.004.002-.01z" fill="#bebebe"/></g></svg>