<svg xmlns="http://www.w3.org/2000/svg" viewBox="0 0 16 16">
  <defs id="defs3051">
    <style type="text/css" id="current-color-scheme">
      .ColorScheme-Text {
        color:#bebebe;
      }
      </style>
  </defs>
 <path 
     style="fill:currentColor;fill-opacity:1;stroke:none" 
     class="ColorScheme-Text"
     d="M 8 1 C 4.13401 1 1 4.13401 1 8 C 1 11.86599 4.13401 15 8 15 C 11.86599 15 15 11.86599 15 8 C 15 4.13401 11.86599 1 8 1 z M 5 5.0039062 C 5.55407 5.0039062 6 5.4533563 6 6.0039062 C 6 6.5545462 5.55407 7.0039062 5 7.0039062 C 4.44576 7.0039062 4 6.5545462 4 6.0039062 C 4 5.4533563 4.44576 5.0039062 5 5.0039062 z M 11 5.0039062 C 11.55415 5.0039062 12 5.4533563 12 6.0039062 C 12 6.5545462 11.55415 7.0039062 11 7.0039062 C 10.44593 7.0039062 10 6.5545462 10 6.0039062 C 10 5.4533563 10.44593 5.0039062 11 5.0039062 z M 8 9 C 9.10826 9 10 9.89889 10 11 C 10 12.10129 9.10826 13 8 13 C 6.89165 13 6 12.10129 6 11 C 6 9.89889 6.89165 9 8 9 z "
     />
</svg>
