<svg enable-background="new 0 0 64 64" height="16" viewBox="0 0 16 16" width="16" xmlns="http://www.w3.org/2000/svg"><path d="m7.9995333 11.135659c-1.0941 0-2.2071-.296566-2.2971666-.2198-.3325.283267.6869333 1.6191 2.2971666 1.627967 1.6099997-.0082 2.6301337-1.344467 2.2969337-1.627967-.09007-.07653-1.2026.220034-2.2969337.2198m-1.2086664-3.1950329a.81666667 1.05 0 0 1 -.8166667 1.05.81666667 1.05 0 0 1 -.8166666-1.05.81666667 1.05 0 0 1  .8166666-1.05.81666667 1.05 0 0 1  .8166667 1.05m4.0515991 0a .81666667 1.05 0 0 1 -.816666 1.05.81666667 1.05 0 0 1 -.816667-1.05.81666667 1.05 0 0 1  .816667-1.05.81666667 1.05 0 0 1  .816666 1.05m-3.3434327 2.1132999c.1290334 0 .2333334-.2144333.2333334-.4799666 0-.2643667-.1043-.4804333-.2333334-.4804333-.1292666 0-.2333333.2160666-.2333333.4804333 0 .2655333.1040667.4799666.2333333.4799666m1.0014667 0c .1290333 0 .2333333-.2144333.2333333-.4799666 0-.2643667-.1043-.4804333-.2333333-.4804333-.1292667 0-.2333333.2160666-.2333333.4804333 0 .2655333.1040666.4799666.2333333.4799666m4.886467-3.7216666c-.227967-1.5733667-1.165034-2.6614-2.732567-3.283.267167-.1411667.439833-.2118667.439833-.2118667-.755066-.266-1.4105-.4209333-1.977966-.4914.298433-.2247.4977-.3101.4977-.3101-4.6088003-.6500666-6.881467 1.9133334-7.024267 4.2998667-.903.1584333-1.5897.9431333-1.5897 1.8902333 0 .9373.6727 1.7159334 1.5624 1.8853333.1017333 2.196833 2.4966667 3.955233 5.4373667 3.955233 2.9411663 0 5.3361003-1.7584 5.4378333-3.955233.889467-.1696333 1.5624-.9484999 1.5624-1.8853333 0-.9548-.698833-1.7448666-1.613033-1.8937333m-10.7767337 3.0996c-.539-.14-.9387-.6241667-.9387-1.2058667 0-.5637333.3763667-1.0355333.8904-1.1914.011433.5044667.1442.9867667.3766 1.4312667-.1598333.3059-.2685666.6297667-.3283.966m8.3176337.4169667c.309866.3863999.4914.8376669.4914 1.3218329 0 1.419134-1.531134 2.569-3.4195003 2.569-1.8883667 0-3.4192667-1.149866-3.4192667-2.569 0-.484166.1813-.935433.4916333-1.3218329-1.0633-.6435334-1.7439333-1.6286667-1.7439333-2.7344334 0-3.9512666 4.6715667-1.4340666 4.6715667-1.4340666s4.6718003-2.5169667 4.6718003 1.4340666c0 1.1055334-.680634 2.0909-1.7437 2.7344334m2.4619-.4169667c-.05973-.336-.168467-.6601-.328067-.9662333.2324-.4445.364933-.9268.376367-1.4312667.514033.1561.890166.6276667.890166 1.1914 0 .5819333-.399466 1.0661-.938466 1.2061" fill="#bebebe" stroke-width=".233333"/></svg>