<svg enable-background="new" height="16" width="16" xmlns="http://www.w3.org/2000/svg" xmlns:xlink="http://www.w3.org/1999/xlink"><filter id="a" color-interpolation-filters="sRGB"><feBlend in2="BackgroundImage" mode="darken"/></filter><g filter="url(#a)" transform="translate(-845.00018 159.00336)"/><path d="m853.0002-158.00391c-3.86599 0-7 3.13401-7 7s3.13401 7 7 7 7-3.13401 7-7-3.13401-7-7-7zm-3 4.00391c.55407 0 1 .44945 1 1 0 .55064-.44593 1-1 1-.55424 0-1-.44936-1-1 0-.55055.44576-1 1-1zm6 0c .55415 0 1 .44945 1 1 0 .55064-.44585 1-1 1-.55407 0-1-.44936-1-1 0-.55055.44593-1 1-1zm1.10352 1.89648.20507.20704.84375.84375c.2719.2719.45118.63637.45118 1.04882 0 .82487-.67512 1.5-1.5 1.5-.82487 0-1.5-.67513-1.5-1.5 0-.41243.17732-.77692.44921-1.04882l.84375-.84375.20704-.20704zm-4.10352 3.10352c1.32561.001 2.59647.52883 3.5332 1.4668l-.70703.70703c-.74922-.75042-1.76576-1.17263-2.82617-1.17383-1.06041.001-2.07695.42341-2.82617 1.17383l-.70703-.70703c.93673-.93797 2.20759-1.46556 3.5332-1.4668z" fill="#bebebe" transform="translate(-845.00018 159.00336)"/></svg>