<svg xmlns="http://www.w3.org/2000/svg" viewBox="0 0 16 16">
  <defs id="defs3051">
    <style type="text/css" id="current-color-scheme">
      .ColorScheme-Text {
        color:#bebebe;
      }
      </style>
  </defs>
 <path 
     style="fill:currentColor;fill-opacity:1;stroke:none" 
     class="ColorScheme-Text"
     d="M 8 1 C 4.13401 1 1 4.13401 1 8 C 1 11.86599 4.13401 15 8 15 C 11.86599 15 15 11.86599 15 8 C 15 4.13401 11.86599 1 8 1 z M 5 5.0039062 C 5.55407 5.0039062 6 5.4533563 6 6.0039062 C 6 6.5545462 5.55407 7.0039062 5 7.0039062 C 4.44576 7.0039062 4 6.5545462 4 6.0039062 C 4 5.4533563 4.44576 5.0039062 5 5.0039062 z M 11 5.0039062 C 11.55415 5.0039062 12 5.4533563 12 6.0039062 C 12 6.5545462 11.55415 7.0039062 11 7.0039062 C 10.44593 7.0039062 10 6.5545462 10 6.0039062 C 10 5.4533563 10.44593 5.0039062 11 5.0039062 z M 4 9 L 8 10 L 12 9 C 12.0206 9.14762 12.0192 9.27798 12 9.40625 C 11.9424 9.79106 11.72663 10.07085 11.34375 10.15625 L 10 10.5 L 11.3125 10.8125 C 11.84851 10.95613 11.9731 11.31172 12 11.65625 C 12.009 11.77109 12 11.8941 12 12 L 8 11 L 4 12 C 3.9345 11.36875 4.0484 11.02182 4.53125 10.875 L 6 10.5 L 4.5 10.15625 C 4.0255 10.02829 3.9169 9.48377 4 9 z "
     />
</svg>
