<svg enable-background="new" height="16" width="16" xmlns="http://www.w3.org/2000/svg" xmlns:xlink="http://www.w3.org/1999/xlink"><filter id="a" color-interpolation-filters="sRGB"><feBlend in2="BackgroundImage" mode="darken"/></filter><g filter="url(#a)" transform="translate(-665.00017 139.00336)"/><path d="m666.0002-138.00391.90625 3.59375c-.17544.31076-.3421.62736-.46875.96875v.0312c-.0154.0421-.0479.0825-.0625.125-.0417.12169-.0587.25038-.0937.375-.0384.1348-.0632.26821-.0937.40625-.0113.0516-.0211.10425-.0312.15625-.0123.0626-.0206.1244-.0312.1875-.0246.14763-.0784.2869-.0937.4375-.003.0306.003.0634 0 .0937-.0181.20546-.0312.41483-.0312.625 0 3.86599 3.13401 7 7 7 .24162 0 .48363-.007.71875-.0312 3.52949-.35842 6.28125-3.34438 6.28125-6.96875 0-.39665-.061-.77692-.125-1.15625-.0104-.0627-.019-.1253-.0312-.1875-.0104-.0532-.0195-.10345-.0312-.15625-.0293-.13406-.0568-.27519-.0937-.40625-.0347-.12169-.0528-.25621-.0937-.375-.0154-.0448-.0463-.0806-.0625-.125-.12937-.35332-.29014-.67806-.46875-1l .90575-3.5937-2.8125 1.40625c-.20531-.1bebebe2-.4295-.30443-.65625-.4375-.26073-.15301-.53162-.28745-.8125-.40625-.24827-.10627-.48817-.20365-.75-.28125-.33157-.0966-.68132-.17195-1.03125-.21875-.31045-.0432-.61484-.0625-.9375-.0625-.48325 0-.95027.0629-1.40625.15625-.18504.0388-.38316.0718-.5625.125-.26121.0761-.50238.17652-.75.28125-.28088.1188-.55177.25324-.8125.40625-.22675.13307-.45094.28198-.65625.4375l-2.8125-1.40625zm1.875 4.4375c.0413-.0146.0913-.005.0937 0 .004.0214 3.69975.53125 3.71875.53125.3278.2889.2495.74705.0625 1.03125-.002.004-.42875.001-.77734 0 .00089.001.0009.003.002.004l-.97461-.00009c.55407 0 1 .44945 1 1 0 .55064-.44593 1-1 1-.55424 0-1-.44936-1-1 0-.55055.44576-1 1-1h-.97461c.00089-.001.0009-.003.002-.004-.54001-.00043-1.15234 0-1.15234 0s-.47225-.44095-.40625-.96875c.0494-.3957.28242-.54989.40625-.59375zm10.15625 0c .01-.022.4341.0661.5.59375.066.5278-.40625.96875-.40625.96875s-.61233-.00043-1.15234 0c .00089.001.0009.003.002.004l-.97466-.00009c.55415 0 1 .44945 1 1 0 .55064-.44585 1-1 1-.55407 0-1-.44936-1-1 0-.55055.44593-1 1-1h-.97461c.00089-.001.0009-.003.002-.004-.34859.001-.77521.004-.77734 0-.1871-.2842-.2654-.74235.0625-1.03125.019 0 3.71435-.50985 3.71875-.53125zm-7.85742 5.39258c.74922.75042 1.76576 1.17283 2.82617 1.17383 1.06041-.001 2.07695-.42341 2.82617-1.17383l.70703.70703c-.93673.93797-2.20759 1.4658-3.5332 1.4668-1.32561-.001-2.59647-.52883-3.5332-1.4668l.70703-.70703z" fill="#bebebe" transform="translate(-665.00017 139.00336)"/></svg>