<svg xmlns="http://www.w3.org/2000/svg" viewBox="0 0 16 16">
  <defs id="defs3051">
    <style type="text/css" id="current-color-scheme">
      .ColorScheme-Text {
        color:#bebebe;
      }
      </style>
  </defs>
 <path 
     style="fill:currentColor;fill-opacity:1;stroke:none" 
     class="ColorScheme-Text"
     d="M 8 1 C 4.13401 1 1 4.13401 1 8 C 1 11.86599 4.13401 15 8 15 C 11.86599 15 15 11.86599 15 8 C 15 4.13401 11.86599 1 8 1 z M 5 5.0039062 C 5.55407 5.0039062 6 5.4533563 6 6.0039062 C 6 6.5545462 5.55407 7.0039062 5 7.0039062 C 4.44576 7.0039062 4 6.5545462 4 6.0039062 C 4 5.4533563 4.44576 5.0039062 5 5.0039062 z M 11 5.0039062 C 11.55415 5.0039062 12 5.4533563 12 6.0039062 C 12 6.5545462 11.55415 7.0039062 11 7.0039062 C 10.44593 7.0039062 10 6.5545462 10 6.0039062 C 10 5.4533563 10.44593 5.0039062 11 5.0039062 z M 5.1738281 9.8300781 C 5.9230481 10.580498 6.93959 11.002906 8 11.003906 C 9.06041 11.002906 10.076952 10.580498 10.826172 9.8300781 L 11.533203 10.537109 C 10.596473 11.475079 9.32561 12.002906 8 12.003906 C 6.67439 12.002906 5.4035269 11.475079 4.4667969 10.537109 L 5.1738281 9.8300781 z "
     />
</svg>
