<svg xmlns="http://www.w3.org/2000/svg" viewBox="0 0 16 16">
  <defs id="defs3051">
    <style type="text/css" id="current-color-scheme">
      .ColorScheme-Text {
        color:#bebebe;
      }
      </style>
  </defs>
 <path 
     style="fill:currentColor;fill-opacity:1;stroke:none" 
     class="ColorScheme-Text"
     d="M 8 1 C 4.13401 1 1 4.13401 1 8 C 1 11.86599 4.13401 15 8 15 C 11.86599 15 15 11.86599 15 8 C 15 4.13401 11.86599 1 8 1 z M 5.53125 4 C 6.26562 4 7 4.44603 7 5.3125 C 5.5 4.97402 3.875 7.04544 4 5.3125 C 4.0625 4.44603 4.79688 4 5.53125 4 z M 10.46875 4 C 11.20312 4 11.9375 4.44603 12 5.3125 C 12.125 7.04544 10.5 4.97402 9 5.3125 C 9 4.44603 9.73438 4 10.46875 4 z M 8 7 C 9.38071 7 10.5 8.34315 10.5 10 C 10.5 11.65685 9.38071 13 8 13 C 6.61929 13 5.5 11.65685 5.5 10 C 5.5 8.34315 6.61929 7 8 7 z "
     />
</svg>
