<svg enable-background="new" height="16" width="16" xmlns="http://www.w3.org/2000/svg" xmlns:xlink="http://www.w3.org/1999/xlink"><filter id="a" color-interpolation-filters="sRGB"><feBlend in2="BackgroundImage" mode="darken"/></filter><g filter="url(#a)" transform="translate(-845.00035 139.00336)"/><path d="m853.00019-138.00336c3.86599 0 7 3.13401 7 7s-3.13401 7-7 7-7-3.13401-7-7 3.13401-7 7-7zm-2.46875 3c-.73437 0-1.46875.44603-1.53125 1.3125-.125 1.73294 1.5-.33848 3 0 0-.86647-.73438-1.3125-1.46875-1.3125zm4.9375 0c-.73437 0-1.46875.44603-1.46875 1.3125 1.5-.33848 3.125 1.73294 3 0-.0625-.86647-.79688-1.3125-1.53125-1.3125zm-2.46875 3c-1.38071 0-2.5 1.34315-2.5 3s1.11929 3 2.5 3 2.5-1.34315 2.5-3-1.11929-3-2.5-3z" fill="#bebebe" transform="translate(-845.00035 139.00336)"/></svg>