<svg enable-background="new" height="16" width="16" xmlns="http://www.w3.org/2000/svg" xmlns:xlink="http://www.w3.org/1999/xlink"><filter id="a" color-interpolation-filters="sRGB"><feBlend in2="BackgroundImage" mode="darken"/></filter><g filter="url(#a)" transform="translate(-865.00029 139.00336)"/><path d="m873.0002-138.00391c-3.86599 0-7 3.13401-7 7s3.13401 7 7 7 7-3.13401 7-7-3.13401-7-7-7zm-3 4.00391c.55407 0 1 .44945 1 1 0 .55064-.44593 1-1 1-.55424 0-1-.44936-1-1 0-.55055.44576-1 1-1zm6 0c .55415 0 1 .44945 1 1 0 .55064-.44585 1-1 1-.55407 0-1-.44936-1-1 0-.55055.44593-1 1-1zm-6.71289 2.98438c.097-.003.19274.0233.27539.0742.72245.44361 1.1725 1.16626 1.34375 1.9375h4.1875c.17125-.77124.6213-1.46264 1.34375-1.90625.1119-.0694.24665-.0918.375-.0625.4282.1017.52567.66703.15625.90625-.94633.58108-1.26858 1.80367-.6875 2.75.0962.15658.23992.31293.375.4375.5.45833-.1875 1.20833-.6875.75-.20262-.18685-.38703-.42138-.53125-.65625-.23297-.37941-.35813-.80247-.40625-1.21875h-4.0625c-.0481.41628-.17328.80809-.40625 1.1875-.14827.24146-.32148.46577-.53125.65625-.5.45833-1.1875-.29167-.6875-.75.13985-.12699.2762-.27652.375-.4375.58108-.94633.25883-2.16892-.6875-2.75-.37143-.21672-.31413-.77015.0937-.90625.0208-.001.0417-.001.0625 0 .0327-.007.0661-.0111.0996-.0117z" fill="#bebebe" transform="translate(-865.00029 139.00336)"/></svg>