<svg xmlns="http://www.w3.org/2000/svg" viewBox="0 0 16 16">
  <defs id="defs3051">
    <style type="text/css" id="current-color-scheme">
      .ColorScheme-Text {
        color:#bebebe;
      }
      </style>
  </defs>
 <path 
     style="fill:currentColor;fill-opacity:1;stroke:none" 
     class="ColorScheme-Text"
     d="M 1 1 L 1.90625 4.59375 C 1.73081 4.90451 1.56415 5.22111 1.4375 5.5625 L 1.4375 5.59375 C 1.4221 5.63585 1.3896 5.67625 1.375 5.71875 C 1.3333 5.84044 1.31625 5.96913 1.28125 6.09375 C 1.24285 6.22855 1.218 6.36196 1.1875 6.5 C 1.1762 6.5516 1.16635 6.60425 1.15625 6.65625 C 1.14395 6.71885 1.1356 6.78065 1.125 6.84375 C 1.1004 6.99138 1.04655 7.13065 1.03125 7.28125 C 1.02825 7.31185 1.03425 7.3447 1.03125 7.375 C 1.01315 7.58046 1 7.78983 1 8 C 1 11.86599 4.13401 15 8 15 C 8.24162 15 8.48363 14.99295 8.71875 14.96875 C 12.24824 14.61033 15 11.62437 15 8 C 15 7.60335 14.939 7.22308 14.875 6.84375 C 14.8646 6.78105 14.85595 6.71845 14.84375 6.65625 C 14.83335 6.60305 14.8242 6.5528 14.8125 6.5 C 14.7832 6.36594 14.75565 6.22481 14.71875 6.09375 C 14.68405 5.97206 14.6659 5.83754 14.625 5.71875 C 14.6096 5.67395 14.5787 5.63815 14.5625 5.59375 C 14.43313 5.24043 14.27236 4.91569 14.09375 4.59375 L 15 1 L 12.1875 2.40625 C 11.98219 2.25073 11.758 2.10182 11.53125 1.96875 C 11.27052 1.81574 10.99963 1.6813 10.71875 1.5625 C 10.47048 1.45623 10.23058 1.35885 9.96875 1.28125 C 9.63718 1.18465 9.28743 1.1093 8.9375 1.0625 C 8.62705 1.0193 8.32266 1 8 1 C 7.51675 1 7.04973 1.0629 6.59375 1.15625 C 6.40871 1.19505 6.21059 1.22805 6.03125 1.28125 C 5.77004 1.35735 5.52887 1.45777 5.28125 1.5625 C 5.00037 1.6813 4.72948 1.81574 4.46875 1.96875 C 4.242 2.10182 4.01781 2.25073 3.8125 2.40625 L 1 1 z M 2.875 5.4375 C 2.9163 5.4229 2.96635 5.4325 2.96875 5.4375 C 2.97275 5.4589 6.6685 5.96875 6.6875 5.96875 C 7.0153 6.25765 6.937 6.7158 6.75 7 C 6.748 7.004 6.3212462 7.001 5.9726562 7 C 5.9735463 7.001 5.9735094 7.0029062 5.9746094 7.0039062 L 5 7.0039062 C 5.55407 7.0039062 6 7.4533563 6 8.0039062 C 6 8.5545462 5.55407 9.0039062 5 9.0039062 C 4.44576 9.0039062 4 8.5545462 4 8.0039062 C 4 7.4533563 4.44576 7.0039062 5 7.0039062 L 4.0253906 7.0039062 C 4.0262806 7.0029062 4.0262438 7.001 4.0273438 7 C 3.4873337 6.99957 2.875 7 2.875 7 C 2.875 7 2.40275 6.55905 2.46875 6.03125 C 2.51815 5.63555 2.75117 5.48136 2.875 5.4375 z M 13.03125 5.4375 C 13.04125 5.4155 13.46535 5.5036 13.53125 6.03125 C 13.59725 6.55905 13.125 7 13.125 7 C 13.125 7 12.512666 6.99957 11.972656 7 C 11.973546 7.001 11.973509 7.0029062 11.974609 7.0039062 L 11 7.0039062 C 11.55415 7.0039062 12 7.4533563 12 8.0039062 C 12 8.5545462 11.55415 9.0039062 11 9.0039062 C 10.44593 9.0039062 10 8.5545462 10 8.0039062 C 10 7.4533563 10.44593 7.0039062 11 7.0039062 L 10.025391 7.0039062 C 10.026281 7.0029062 10.026244 7.001 10.027344 7 C 9.6787538 7.001 9.25213 7.004 9.25 7 C 9.0629 6.7158 8.9846 6.25765 9.3125 5.96875 C 9.3315 5.96875 13.02685 5.4589 13.03125 5.4375 z M 5.1738281 10.830078 C 5.9230481 11.580498 6.93959 12.002906 8 12.003906 C 9.06041 12.002906 10.076952 11.580498 10.826172 10.830078 L 11.533203 11.537109 C 10.596473 12.475079 9.32561 13.002906 8 13.003906 C 6.67439 13.002906 5.4035269 12.475079 4.4667969 11.537109 L 5.1738281 10.830078 z "
     />
</svg>
