<svg xmlns="http://www.w3.org/2000/svg" viewBox="0 0 16 16">
  <path fill="#555" d="M8 1.003a6.96 6.96 0 0 0-5.125 2.25c.351-.144.72-.25 1.125-.25 1.39 0 2.535.966 2.875 2.25.351-.144.72-.25 1.125-.25.404 0 .773.106 1.125.25.34-1.284 1.484-2.25 2.875-2.25.404 0 .773.106 1.125.25A6.962 6.962 0 0 0 8 1.003zm-4 3a2 2 0 1 0 2 2 1 1 0 1 1-2 0 1 1 0 0 1 2 0 2 2 0 0 0-2-2zm8 0a2 2 0 0 0-2 2 1 1 0 1 1 2 0 1 1 0 0 1-2 0 2 2 0 1 0 2-2zm-4 2c-.375 0-.732.102-1.031.282-.147 1.52-1.41 2.718-2.97 2.718-1.38 0-2.525-.949-2.874-2.218-.07.397-.125.8-.125 1.218a7 7 0 0 0 14 0c0-.417-.055-.821-.125-1.218-.35 1.27-1.495 2.218-2.875 2.218-1.559 0-2.823-1.198-2.969-2.718-.3-.18-.657-.282-1.031-.282zM5.174 9.83A4 4 0 0 0 8 11.003a4 4 0 0 0 2.826-1.173l.707.707A4.999 4.999 0 0 1 8 12.003a4.999 4.999 0 0 1-3.533-1.466z"/>
</svg>
