<svg enable-background="new" height="16" width="16" xmlns="http://www.w3.org/2000/svg" xmlns:xlink="http://www.w3.org/1999/xlink"><filter id="a" color-interpolation-filters="sRGB"><feBlend in2="BackgroundImage" mode="darken"/></filter><g filter="url(#a)" transform="translate(-865.00035 159.00336)"/><path d="m873.0002-158.00391c-3.86599 0-7 3.13401-7 7s3.13401 7 7 7 7-3.13401 7-7-3.13401-7-7-7zm4.09375 3.375c.01-.023.4323.0833.5.625.067.542-.40625 1-.40625 1s-3.1765.017-3.1875 0c-.192-.2918-.2751-.7658.0625-1.0625.019 0 3.02675-.5406 3.03125-.5625zm-8.40625.0312c.0424-.015.06-.006.0625 0 .005.0219 2.981.5625 3 .5625.3376.2967.2858.7707.0937 1.0625-.0109.017-3.1875 0-3.1875 0s-.47325-.458-.40625-1c .0506-.40627.31042-.58006.4375-.625zm5.6875 3.89712c.5281.091.85134.57183 1.27734.85157.4234.32227.90238.5632 1.33008.87695-.2021.20917-.64509.33301-.90039.56445-.4147.33204-.69441.79757-1.06641 1.17383-.4026.44495-.9266.83412-1.5332.92188-.3271.0289-.65612.0255-.98242-.0137-.182.0454-.49171-.1335-.69531-.23242-.9209-.48261-1.33201-1.54103-2.22461-2.06054-.162-.1364-.45796-.20554-.56446-.34766.72011-.41719 1.4058-.89669 2.0254-1.45313.2525-.19094.59664-.33773.90234-.17578.4851.23862 1.05038.41984 1.58398.22852.2971-.073.54976-.27266.84766-.33399zm-1.90625 1.71875c-.271.11558-.bebebe7.25709-.8125.375.1567.13071.46757.2025.66797.33594.316.21175.72878.22632 1.08398.12109.3204-.1413.62723-.31646.95703-.43554-.1945-.13166-.53614-.24101-.77734-.37891-.3745.0118-.73954.0937-1.11914-.0176z" fill="#bebebe" transform="translate(-865.00035 159.00336)"/></svg>