<svg xmlns="http://www.w3.org/2000/svg" viewBox="0 0 16 16">
  <g fill="#555">
    <path d="M8 1a7 7 0 1 0 0 14A7 7 0 0 0 8 1zM5 5.002a1 1 0 1 1 0 2 1 1 0 0 1 0-2zm6 0a1 1 0 1 1 0 2 1 1 0 0 1 0-2zM4 7.5a1.5 1.5 0 1 1 0 3 1.5 1.5 0 0 1 0-3zm8 0a1.5 1.5 0 1 1 0 3 1.5 1.5 0 0 1 0-3zM6.5 12h3c.277 0 .5.188.5.438v.125c0 .25-.223.437-.5.437h-3c-.277 0-.5-.187-.5-.437v-.125c0-.25.223-.438.5-.438z"/>
    <path d="M4 7.5a1.5 1.5 0 1 0 0 3 1.5 1.5 0 0 0 0-3zm8 0a1.5 1.5 0 1 0 0 3 1.5 1.5 0 0 0 0-3z" opacity=".35"/>
  </g>
</svg>
