<svg xmlns="http://www.w3.org/2000/svg" viewBox="0 0 16 16">
  <defs id="defs3051">
    <style type="text/css" id="current-color-scheme">
      .ColorScheme-Text {
        color:#bebebe;
      }
      </style>
  </defs>
 <path 
     style="fill:currentColor;fill-opacity:1;stroke:none" 
     class="ColorScheme-Text"
     d="M 8 1 C 5.62438 1 3.51548 2.19054 2.25 4 L 13.75 4 C 12.48452 2.19054 10.37562 1 8 1 z M 13.96875 4.34375 L 14 5.7539062 C 14 7.2603063 13.2938 8.0039062 11.9375 8.0039062 L 11.09375 8.0039062 C 9.73745 8.0039062 9 7.2604062 9 5.7539062 L 9 5.0039062 L 7 5.0039062 L 7 5.7539062 C 6.9819 7.2603063 6.20015 8.0039062 4.84375 8.0039062 L 4 8.0039062 C 2.6439 8.0039062 2.011 7.2603063 2 5.7539062 L 1.96875 4.4375 C 1.35085 5.48086 1 6.69957 1 8 C 1 11.86599 4.13401 15 8 15 C 11.86599 15 15 11.86599 15 8 C 15 6.65831 14.62329 5.40871 13.96875 4.34375 z M 5.1738281 9.8300781 C 5.9230481 10.580498 6.93959 11.002906 8 11.003906 C 9.06041 11.002906 10.076952 10.580498 10.826172 9.8300781 L 11.533203 10.537109 C 10.596473 11.475079 9.32561 12.002906 8 12.003906 C 6.67439 12.002906 5.4035269 11.475079 4.4667969 10.537109 L 5.1738281 9.8300781 z "
     />
</svg>
