<svg xmlns="http://www.w3.org/2000/svg" viewBox="0 0 16 16">
  <defs id="defs3051">
    <style type="text/css" id="current-color-scheme">
      .ColorScheme-Text {
        color:#bebebe;
      }
      </style>
  </defs>
 <path 
     style="fill:currentColor;fill-opacity:1;stroke:none" 
     class="ColorScheme-Text"
     d="M 8 1.0039062 C 5.97036 1.0039062 4.15356 1.8738663 2.875 3.2539062 C 3.22667 3.1092062 3.59614 3.0039062 4 3.0039062 C 5.39107 3.0039062 6.53544 3.9695863 6.875 5.2539062 C 7.22667 5.1092062 7.59614 5.0039062 8 5.0039062 C 8.40386 5.0039062 8.77333 5.1092062 9.125 5.2539062 C 9.46456 3.9695863 10.60893 3.0039062 12 3.0039062 C 12.40386 3.0039062 12.77333 3.1092062 13.125 3.2539062 C 11.84644 1.8738663 10.02964 1.0039062 8 1.0039062 z M 4 4.0039062 C 2.89543 4.0039062 2 4.8993363 2 6.0039062 C 2 7.1084762 2.89543 8.0039062 4 8.0039062 C 5.10457 8.0039062 6 7.1084762 6 6.0039062 C 6 6.5545463 5.55407 7.0039062 5 7.0039062 C 4.44576 7.0039062 4 6.5545463 4 6.0039062 C 4 5.4533562 4.44576 5.0039062 5 5.0039062 C 5.55407 5.0039062 6 5.4533562 6 6.0039062 C 6 4.8993363 5.10457 4.0039062 4 4.0039062 z M 12 4.0039062 C 10.89543 4.0039062 10 4.8993363 10 6.0039062 C 10 5.4533562 10.44593 5.0039062 11 5.0039062 C 11.55415 5.0039062 12 5.4533562 12 6.0039062 C 12 6.5545463 11.55415 7.0039062 11 7.0039062 C 10.44593 7.0039062 10 6.5545463 10 6.0039062 C 10 7.1084762 10.89543 8.0039062 12 8.0039062 C 13.10457 8.0039062 14 7.1084762 14 6.0039062 C 14 4.8993363 13.10457 4.0039062 12 4.0039062 z M 8 6.0039062 C 7.62536 6.0039062 7.26849 6.1059163 6.96875 6.2851562 C 6.82243 7.8054762 5.55869 9.0039062 4 9.0039062 C 2.61929 9.0039062 1.47427 8.0548962 1.125 6.7851562 C 1.0549 7.1825862 1 7.5863763 1 8.0039062 C 1 11.869896 4.13401 15.003906 8 15.003906 C 11.86599 15.003906 15 11.869896 15 8.0039062 C 15 7.5863763 14.9451 7.1825862 14.875 6.7851562 C 14.52573 8.0548962 13.38071 9.0039062 12 9.0039062 C 10.44131 9.0039062 9.17757 7.8054762 9.03125 6.2851562 C 8.73151 6.1059163 8.37464 6.0039062 8 6.0039062 z M 5.1738281 9.8300781 C 5.9230481 10.580498 6.93959 11.002906 8 11.003906 C 9.06041 11.002906 10.076952 10.580498 10.826172 9.8300781 L 11.533203 10.537109 C 10.596473 11.475079 9.32561 12.002906 8 12.003906 C 6.67439 12.002906 5.4035269 11.475079 4.4667969 10.537109 L 5.1738281 9.8300781 z "
     />
</svg>
