<svg xmlns="http://www.w3.org/2000/svg" viewBox="0 0 16 16">
  <defs id="defs3051">
    <style type="text/css" id="current-color-scheme">
      .ColorScheme-Text {
        color:#bebebe;
      }
      </style>
  </defs>
 <path 
     style="fill:currentColor;fill-opacity:1;stroke:none" 
     class="ColorScheme-Text"
     d="M 8 1 C 4.13401 1 1 4.13401 1 8 C 1 11.86599 4.13401 15 8 15 C 11.86599 15 15 11.86599 15 8 C 15 4.13401 11.86599 1 8 1 z M 5 5.0039062 C 5.55407 5.0039062 6 5.4533563 6 6.0039062 C 6 6.5545462 5.55407 7.0039062 5 7.0039062 C 4.44576 7.0039062 4 6.5545462 4 6.0039062 C 4 5.4533563 4.44576 5.0039062 5 5.0039062 z M 11 5.0039062 C 11.55415 5.0039062 12 5.4533563 12 6.0039062 C 12 6.5545462 11.55415 7.0039062 11 7.0039062 C 10.44593 7.0039062 10 6.5545462 10 6.0039062 C 10 5.4533563 10.44593 5.0039062 11 5.0039062 z M 4.2871094 7.9882812 C 4.3841094 7.9852813 4.47985 8.0116 4.5625 8.0625 C 5.28495 8.50611 5.735 9.22876 5.90625 10 L 10.09375 10 C 10.265 9.22876 10.71505 8.53736 11.4375 8.09375 C 11.5494 8.02435 11.68415 8.00195 11.8125 8.03125 C 12.2407 8.13295 12.33817 8.69828 11.96875 8.9375 C 11.02242 9.51858 10.70017 10.74117 11.28125 11.6875 C 11.37745 11.84408 11.52117 12.00043 11.65625 12.125 C 12.15625 12.58333 11.46875 13.33333 10.96875 12.875 C 10.76613 12.68815 10.58172 12.45362 10.4375 12.21875 C 10.20453 11.83934 10.07937 11.41628 10.03125 11 L 5.96875 11 C 5.92065 11.41628 5.79547 11.80809 5.5625 12.1875 C 5.41423 12.42896 5.24102 12.65327 5.03125 12.84375 C 4.53125 13.30208 3.84375 12.55208 4.34375 12.09375 C 4.4836 11.96676 4.61995 11.81723 4.71875 11.65625 C 5.29983 10.70992 4.97758 9.48733 4.03125 8.90625 C 3.65982 8.68953 3.71717 8.1361 4.125 8 C 4.1458 7.999 4.1667 7.999 4.1875 8 C 4.2202 7.993 4.2536094 7.9888812 4.2871094 7.9882812 z "
     />
</svg>
