<svg xmlns="http://www.w3.org/2000/svg" viewBox="0 0 16 16">
  <defs id="defs3051">
    <style type="text/css" id="current-color-scheme">
      .ColorScheme-Text {
        color:#bebebe;
      }
      </style>
  </defs>
 <path 
     style="fill:currentColor;fill-opacity:1;stroke:none" 
     class="ColorScheme-Text"
     d="M 7.84375 0.0625 C 6.61649 0.79635 6.78138 1.69497 6.9375 2.09375 C 5.13021 2.36223 3.38872 3.40498 2.8125 5.28125 C 2.52903 5.06957 2.22453 4.9375 1.875 4.9375 C 0.84115 4.9375 0 6.02019 0 7.3125 C 0 8.60481 0.84115 9.65625 1.875 9.65625 C 2.34167 9.65625 2.76074 9.44461 3.09375 9.09375 C 5.81275 7.82014 10.18627 7.62765 12.96875 9.125 C 13.28837 9.44725 13.67987 9.65625 14.125 9.65625 C 15.15885 9.65625 16 8.60481 16 7.3125 C 16 6.02019 15.15885 4.9375 14.125 4.9375 C 13.69661 4.9375 13.31389 5.13061 13 5.4375 C 12.49255 3.73551 11.16022 2.52729 9.1875 2.15625 C 9.01714 1.51751 8.90318 0.24038 10.8125 0.375 C 8.64302 -0.41811 8.09375 2 8.09375 2 C 7.82824 1.88278 7.12838 1.3617 7.84375 0.0625 z M 6.09375 5.0039062 C 6.64782 5.0039062 7.09375 5.4533562 7.09375 6.0039062 C 7.09375 6.5545463 6.64782 7.0039062 6.09375 7.0039062 C 5.53951 7.0039062 5.09375 6.5545463 5.09375 6.0039062 C 5.09375 5.4533562 5.53951 5.0039062 6.09375 5.0039062 z M 10.09375 5.0039062 C 10.6479 5.0039062 11.09375 5.4533562 11.09375 6.0039062 C 11.09375 6.5545463 10.6479 7.0039062 10.09375 7.0039062 C 9.53968 7.0039062 9.09375 6.5545463 9.09375 6.0039062 C 9.09375 5.4533562 9.53968 5.0039062 10.09375 5.0039062 z M 2 6 C 2.25587 6 2.47396 6.14945 2.65625 6.34375 C 2.62305 6.87283 2.63775 7.46204 2.78125 8.09375 C 2.58957 8.38749 2.32916 8.59375 2 8.59375 C 1.42824 8.59375 0.96875 8.0272 0.96875 7.3125 C 0.96875 6.5978 1.42824 6 2 6 z M 14.03125 6 C 14.60307 6 15.09375 6.59772 15.09375 7.3125 C 15.09375 8.02728 14.60307 8.59375 14.03125 8.59375 C 13.65878 8.59375 13.37204 8.33182 13.1875 7.96875 C 13.2425 7.48874 13.2243 7.03363 13.1875 6.59375 C 13.37526 6.24351 13.67182 6 14.03125 6 z M 8.09375 9.0039062 C 4.7828 9.0039062 2.09375 10.340744 2.09375 11.990234 C 2.09375 13.639734 4.7828 14.976562 8.09375 14.976562 C 11.4047 14.976562 14.09375 13.639734 14.09375 11.990234 C 14.09375 10.340744 11.4047 9.0039062 8.09375 9.0039062 z M 5.2675781 10.816406 C 6.0167981 11.566826 7.03334 11.989234 8.09375 11.990234 C 9.15416 11.989234 10.170702 11.566826 10.919922 10.816406 L 11.626953 11.523438 C 10.690223 12.461408 9.41936 12.989234 8.09375 12.990234 C 6.76814 12.989234 5.4972769 12.461408 4.5605469 11.523438 L 5.2675781 10.816406 z "
     />
</svg>
