<svg xmlns="http://www.w3.org/2000/svg" viewBox="0 0 16 16">
  <defs id="defs3051">
    <style type="text/css" id="current-color-scheme">
      .ColorScheme-Text {
        color:#4d4d4d;
      }
      </style>
  </defs>
 <path 
     style="fill:#bebebe;fill-opacity:1;stroke:none" 
     class="ColorScheme-Text"
     d="M 8,0.5 C 3.845,0.5 0.5,3.845 0.5,8 c 0,4.155 3.345,7.5 7.5,7.5 4.155,0 7.5,-3.345 7.5,-7.5 C 15.5,3.845 12.155,0.5 8,0.5 Z m 4.074097,5.15625 c 0.04638,0 0.09643,0.00326 0.148315,0.00916 l 0.0019,0 c 0.703752,0.059505 1.201782,0.2984077 1.479492,0.7104492 0.308676,0.4579693 0.265645,1.0168021 0.212403,1.3092037 -0.0048,0.026381 -0.02669,0.046584 -0.0531,0.051272 -0.02651,0.00469 -0.05234,-0.00619 -0.06592,-0.029297 -0.05528,-0.094281 -0.148185,-0.2376232 -0.282004,-0.38086 -0.324638,-0.3474551 -0.729171,-0.5310058 -1.168212,-0.5310058 -0.03652,-2e-7 -0.07432,0.00116 -0.111695,0.00367 l 0,2.5964353 c 0,0.4812726 -0.360795,0.8764766 -0.858765,0.9393306 -0.04516,0.0057 -0.09039,0.0092 -0.135498,0.0092 -0.4804,0 -0.884958,-0.325358 -0.93933,-0.756226 -0.0293,-0.2320885 0.04363,-0.4629244 0.205078,-0.6500232 0.161433,-0.1870987 0.392434,-0.3080709 0.650025,-0.3405759 0.147817,-0.018675 0.29808,-0.00544 0.437621,0.036619 l 0,-2.6477048 C 11.59436,5.8337608 11.719302,5.65625 12.074097,5.65625 Z M 5.2241211,5.66541 C 5.5025313,5.631222 5.7939209,5.689357 6.0023193,5.8521735 6.4191128,6.1778062 6.5092299,6.9203657 6.1835937,7.337159 L 5.9675292,7.6154788 4.2298584,9.838379 C 3.7956747,10.394106 2.8062118,10.516089 2.2504883,10.081909 1.6947648,9.647727 1.5727776,8.6582666 2.006958,8.1025391 L 3.7446289,5.8796386 4.0211182,6.0957031 2.2852783,8.3186037 C 1.9596422,8.7353966 2.0497626,9.4779528 2.4665527,9.803589 2.8833494,10.129222 3.6259019,10.039108 3.9515381,9.622315 L 5.6892089,7.3994141 5.9052734,7.1210937 C 6.1223652,6.8432317 6.0622839,6.3475828 5.7844239,6.1304932 5.5065604,5.9134035 5.0109117,5.9753084 4.7938232,6.2531739 L 4.5777588,6.5296631 3.2740479,8.1977544 3.0579834,8.4760737 c -0.1085476,0.1389319 -0.078505,0.3858385 0.060425,0.494385 0.13893,0.10854 0.3858404,0.078506 0.4943847,-0.060422 L 5.1325683,6.963623 5.4108886,7.1815184 3.8911133,9.1260988 C 3.6740215,9.4039644 3.1802038,9.4658722 2.9023438,9.2487791 2.6244804,9.0316897 2.5625745,8.5360409 2.7796631,8.2581791 L 2.9975586,7.9798588 4.5173339,6.0352783 C 4.6801504,5.8268802 4.9457109,5.6995891 5.2241211,5.6654052 Z M 8,7.0625 C 8.5193741,7.0625 8.9375,7.4806259 8.9375,8 8.9375,8.5193741 8.5193741,8.9375 8,8.9375 7.4806259,8.9375 7.0625,8.5193741 7.0625,8 7.0625,7.4806259 7.4806259,7.0625 8,7.0625 Z"
     />
</svg>
