<svg xmlns="http://www.w3.org/2000/svg" viewBox="0 0 16 16">
  <defs id="defs3051">
    <style type="text/css" id="current-color-scheme">
      .ColorScheme-Text {
        color:#4d4d4d;
      }
      </style>
  </defs>
 <path 
     style="fill:#bebebe;fill-opacity:1;stroke:none" 
     class="ColorScheme-Text"
     d="M 3.0039062 1.0078125 C 3.0039062 1.0078125 2.0048863 1.0048125 2.0039062 2.0078125 L 2 6.0039062 L 0 6.0039062 L 0 8.0039062 L 16 8.0039062 L 16 6.0039062 L 14 6.0039062 L 14.003906 2.0078125 C 14.004886 1.0044525 13.003906 1.0078125 13.003906 1.0078125 L 3.0039062 1.0078125 z M 4 3.0039062 L 12 3.0039062 L 11.996094 6.0039062 L 3.9960938 6.0039062 L 4 3.0039062 z M 2.0039062 9.0039062 L 2.0039062 14.007812 C 2.0039062 14.007812 2.0039062 15.007812 3.0039062 15.007812 L 13.003906 15.007812 C 14.003906 15.007812 14.003906 14.007812 14.003906 14.007812 L 14.003906 9.0039062 L 12 9.0039062 L 12 13.003906 L 4 13.003906 L 4 9.0039062 L 2.0039062 9.0039062 z "
     />
</svg>
