<svg height="24" viewBox="0 0 24 24" width="24" xmlns="http://www.w3.org/2000/svg"><path d="m9.4298664 5.0637164c-.07408-.00186-.1350769.0068-.1971795.0068h-5.382775c-.4614988 0-.8499119.3884431-.8499119.8499119v12.9775867l18 .03853v-11.2165705c0-.461499-.388412-.849912-.849912-.8499121h-9.19038l-.02493.00227c-.01191.00105-.0064-.0005581-.01586 0l-.0023-.00227c-.046936-.0628521-.196991-.3346842-.333138-.6028708-.135024-.2659742-.256516-.5259425-.426089-.7524553-.09817-.1414375-.221166-.3073293-.4487535-.3920926-.1169066-.0435412-.2046911-.0570714-.2787711-.0589273zm-5.3397128 1.0969529h5.1425333c.02667 0 .02998.00145.049861.00227v.00227c.042435.056271.192516.3279447.3286325.5960714.1361168.2681269.2599696.5331358.4306216.7615208.07983.10656.175445.258059.39436.362629.199641.09536.378821.08841.546209.07479h8.476455c-2.54008 1.536494-13.9527033 8.8399985-15.3686724 9.8340395z" fill="#bebebe"/></svg>