<?xml version="1.0" encoding="UTF-8" standalone="no"?>
<svg
   xmlns:dc="http://purl.org/dc/elements/1.1/"
   xmlns:cc="http://creativecommons.org/ns#"
   xmlns:rdf="http://www.w3.org/1999/02/22-rdf-syntax-ns#"
   xmlns:svg="http://www.w3.org/2000/svg"
   xmlns="http://www.w3.org/2000/svg"
   xmlns:sodipodi="http://sodipodi.sourceforge.net/DTD/sodipodi-0.dtd"
   xmlns:inkscape="http://www.inkscape.org/namespaces/inkscape"
   height="24"
   width="24"
   version="1.1"
   id="svg4"
   sodipodi:docname="folder-mixer-symbolic.svg"
   inkscape:version="0.92.4 (5da689c313, 2019-01-14)">
  <metadata
     id="metadata10">
    <rdf:RDF>
      <cc:Work
         rdf:about="">
        <dc:format>image/svg+xml</dc:format>
        <dc:type
           rdf:resource="http://purl.org/dc/dcmitype/StillImage" />
        <dc:title></dc:title>
      </cc:Work>
    </rdf:RDF>
  </metadata>
  <defs
     id="defs8" />
  <sodipodi:namedview
     pagecolor="#ffffff"
     bordercolor="#666666"
     borderopacity="1"
     objecttolerance="10"
     gridtolerance="10"
     guidetolerance="10"
     inkscape:pageopacity="0"
     inkscape:pageshadow="2"
     inkscape:window-width="1920"
     inkscape:window-height="1022"
     id="namedview6"
     showgrid="false"
     inkscape:zoom="19.666667"
     inkscape:cx="2.3421894"
     inkscape:cy="8.8643921"
     inkscape:window-x="0"
     inkscape:window-y="32"
     inkscape:window-maximized="1"
     inkscape:current-layer="svg4" />
  <path
     inkscape:connector-curvature="0"
     style="fill:#bebebe;stroke-width:0.03123734"
     d="M 3.8113315,1 C 2.2538373,1 0.99996995,2.2538671 0.99996995,3.8113611 V 20.188639 C 0.99996995,21.746132 2.2538373,23 3.8113315,23 H 20.188669 c 1.557494,0 2.811361,-1.253866 2.811361,-2.811361 V 3.8113611 C 23.00003,2.2538671 21.746163,1 20.188669,1 Z m 2.1551932,2.6105153 h 0.2231151 c 0.3955542,0 0.7140051,0.3184516 0.7140051,0.7140053 V 8.983338 h 0.7362746 c 0.5686094,0 1.0263784,0.45777 1.0263784,1.026379 v 2.097355 c 0,0.568611 -0.457769,1.026379 -1.0263784,1.026379 H 6.9036449 v 6.542028 c 0,0.395556 -0.3184509,0.714006 -0.7140051,0.714006 H 5.9665247 c -0.3955542,0 -0.7140049,-0.31845 -0.7140049,-0.714006 V 13.133451 H 4.5161845 c -0.5686079,0 -1.0263179,-0.457768 -1.0263179,-1.026379 v -2.097355 c 0,-0.568609 0.45771,-1.026379 1.0263179,-1.026379 H 5.2525198 V 4.3245206 c 0,-0.3955537 0.3184507,-0.7140053 0.7140049,-0.7140053 z m 6.1136123,0 h 0.223116 c 0.395554,0 0.714005,0.3184516 0.714005,0.7140053 v 9.6567944 h 0.736274 c 0.568609,0 1.026377,0.457709 1.026377,1.026318 v 2.097417 c 0,0.568607 -0.457768,1.026315 -1.026377,1.026315 h -0.736274 v 1.544114 c 0,0.395556 -0.318451,0.714006 -0.714005,0.714006 h -0.223116 c -0.395554,0 -0.714005,-0.31845 -0.714005,-0.714006 v -1.544114 h -0.736336 c -0.568607,0 -1.026378,-0.457708 -1.026378,-1.026315 v -2.097417 c 0,-0.568609 0.457771,-1.026318 1.026378,-1.026318 h 0.736336 V 4.3245206 c 0,-0.3955537 0.318451,-0.7140053 0.714005,-0.7140053 z m 6.113551,0 h 0.223115 c 0.395554,0 0.714007,0.3184516 0.714007,0.7140053 v 0.9728101 h 0.736335 c 0.568607,0 1.026379,0.4577697 1.026379,1.0263783 v 2.097358 c 0,0.568609 -0.457772,1.026378 -1.026379,1.026378 H 19.13081 v 10.228034 c 0,0.395556 -0.318453,0.714006 -0.714007,0.714006 h -0.223115 c -0.395555,0 -0.714005,-0.31845 -0.714005,-0.714006 V 9.447445 h -0.736274 c -0.568609,0 -1.026379,-0.457769 -1.026379,-1.026378 V 6.323709 c 0,-0.5686086 0.45777,-1.0263783 1.026379,-1.0263783 h 0.736274 V 4.3245206 c 0,-0.3955537 0.31845,-0.7140053 0.714005,-0.7140053 z"
     id="rect678" />
</svg>
