<svg height="24" viewBox="0 0 24 24" width="24" xmlns="http://www.w3.org/2000/svg"><path d="m11.998873 3.0000185c-.09387 0-.186406.00225-.279582.00448-.915293.027653-1.7970125.1900351-2.624464.4682603-.1402481.047166-.2800334.098652-.4171185.1523525-.042435.016614-.084177.034359-.1262628.051531-.094099.038469-.1871602.077266-.2795821.1187453-.1337645.060212-.2644199.1241403-.3945714.1904407-.1301852.066234-.2591382.1338805-.3855526.206124-.5085958.2906467-.9869147.6306616-1.4272212 1.0104558-.0522274.0450483-.1021387.0904068-.1533192.1366699-.1072683.0967856-.2132963.1962361-.3156571.2979836-.1023159.1018033-.2024437.2048621-.2998744.3114265-.1461685.1597743-.287199.3251131-.4216277.4951457-.26888.3399427-.5124047.7008087-.7305208 1.0776697-.072713.125588-.1430631.251548-.2096866.380882-.033317.06467-.065098.129368-.096952.194921-.09545.196738-.1848991.398369-.2660538.602689-.027014.06813-.053476.137215-.078914.206124-.1016404.27565-.1892854.557147-.2637992.844661-.036807.143517-.071296.2882705-.1014612.4346525v.0022c-.030166.146471-.056065.292483-.078914.441375-.022849.148992-.040834.299024-.056367.450336-.030954.302488-.047349.610141-.047349.920836 0 .310651.016395.618293.047349.920837.015421.151256.033405.301378.056367.450336.022849.148903.048861.297232.078914.443615.030166.146383.064317.290946.1014612.434653.074514.287513.1621926.569011.2637992.84466.050764.137786.1050906.273236.1623379.407768.05718.134517.1191134.267653.1826302.398805.031741.06556.063635.132466.096952.197162.066634.1293.1369399.25526.2096865.380881.2181049.376861.4616635.737638.7305209 1.07767.1344512.169977.2754592.335304.4216277.495145.097476.106602.1973897.209679.2998744.311427.1024279.101807.208445.201131.315657.297984.4824373.435735 1.0116245.819794 1.5805405 1.144884.1264257.07214.2553674.142153.3855525.208363.260337.132512.5262125.253205.8004164.360717.1370513.05374.2768704.105203.4171184.152354.9117128.306602 1.8881368.47274 2.9040458.47274.692606 0 1.367617-.07781 2.015696-.224046.302489-.06836.598162-.151127.888349-.248694.140282-.04706.279943-.09869.417119-.152354.274169-.107382.542334-.228148.80267-.360717.130185-.06623.25694-.133913.383298-.206123.568949-.325034 1.100358-.711445 1.582795-1.147125.107268-.0969.211008-.196236.313403-.297984.102427-.101693.202422-.204895.299873-.311426.146135-.159775.287234-.325114.42163-.495146.212735-.26896.409464-.550134.590729-.84242.04795-.07727.09646-.156361.142045-.23525.07272-.125554.140808-.251514.207432-.380881.03331-.06467.06735-.131609.0992-.197161.06371-.131096.123117-.264221.180376-.398805.05729-.134588.111615-.269904.162337-.407768.101636-.27565.189297-.557191.2638-.844661.03726-.143808.07129-.28827.101463-.434653.03006-.146505.05821-.29469.08117-.443615.02285-.148958.04084-.299047.05637-.450336.03095-.302477.04735-.610141.04735-.920837 0-.31065-.01639-.618359-.04735-.920836-.01554-.151319-.03341-.301341-.05637-.450333-.02285-.148902-.051-.294991-.08117-.441374s-.0642-.2932195-.101462-.4368925c-.07451-.28748-.162227-.569011-.2638-.844661-.02533-.06891-.05201-.137961-.07891-.206124-.08104-.204323-.168393-.403713-.263798-.600451-.03174-.06556-.06589-.130227-.09921-.194922-.06663-.129293-.134692-.257483-.207428-.383082-.218116-.376895-.463918-.7376378-.732774-1.0776697-.134451-.1699657-.275426-.3353045-.42163-.4951457-.097362-.1064864-.197422-.2096789-.299873-.3114265-.102315-.1018032-.20619-.2011646-.313403-.2979836-.20767-.1875834-.424741-.3653086-.649351-.5332338-.297178-.2222057-.609455-.4264981-.933443-.6116507-.126416-.0721431-.25317-.1421645-.383299-.2083645-.0592-.030106-.118238-.05861-.178121-.087379-.07192-.034566-.145778-.070391-.218705-.1030619-.0305-.013715-.06183-.024708-.09245-.038088-.103896-.045382-.207496-.090709-.313402-.1321883-.0011-.0006021-.0034-.00108-.0045-.00224-.112808-.044044-.227723-.085693-.342712-.1254668-.02318-.00781-.04648-.01684-.0699-.024645-.26817-.090207-.54198-.1678691-.820743-.2330098-.08712-.020405-.173512-.03806-.261544-.056012-.06348-.012934-.127749-.026603-.191649-.038088-.476337-.086081-.96411-.1345149-1.463296-.1433906-.05504-.001-.111525-.00224-.166847-.00224zm0 .4839433c.585653 0 1.158289.058505 1.711312.1702764-.02319.060658-.09848.033408-.162338.062733-.05988.027653-.08289.08441-.146555.096341-.176942.033117-.322605-.043663-.475741-.038088-.0068.065787.0739.1043034.11499.1254667.138796.072255.253012.062601.448684.058252.10029-.00223.215965.029748.302129-.029127.05459-.037019.05125-.1204801.09695-.1657954.01947-.019179.04672-.03738.07892-.053772.09612.022524.191391.045938.286346.071695-.01598.065118-.120392.049506-.121754.1366691.06765.040365.225509-.020822.286347-.089619.02353.00669.04648.013139.06989.020164.137625.041591.273446.086292.408099.1344287.191936.068686.380578.1446673.56593.2262883-.03557.020851-.07468.047162-.105972.047051-.08048-.0005018-.113221-.1066872-.202922-.067215-.0079.103364.110228.144935.184885.1926811.08081.051738.165167.102764.193904.1926812-.07913.1666987-.206129-.00785-.331441-.00896-.138098-.0009813-.337756.2596216-.455448.047051.02926-.1126305.154337-.1307797.184885-.2419717-.0269.00446-.05302.014275-.07891.024645-.04626.018175-.0926.042015-.139791.067215-.06191.033116-.12692.066507-.200668.082898-.06788.01483-.133268.01162-.193904.029127-.11642.033894-.199261.1184147-.322423.1635515-.04806.017506-.105541.012512-.155573.029126-.117467.038915-.25762.1095609-.378789.1747574-.123882.066456-.263536.1353426-.340459.201643-.04153.03557-.150292.1614124-.146555.2016431.0045.057425.11452.077951.117244.1366692-.0022.03557-.06408.1118837-.02029.1635549.03985.047055.120601.0098.205178.020164.148667.018286.246706.1391226.360751.201643.08622.047278.213784.104284.311147.1165049.133664.016614.283908-.039049.30213.067215.01768.1021377-.127215.1375505-.137537.2016431.07204.094333-.04769.1391159-.04735.2218074.000316.066903.0831.1686915.155573.1747573.09805.0078.241103-.095505.281837-.1926811.0484-.115786.02831-.2741572.117244-.3584766.453387.012377.836401-.2038507.807181-.6654221-.0033-.045605-.02998-.1044939-.02029-.1545931.01418-.074596.143439-.1364366.126263-.2307693.04885-.014941.07873-.054425.103712-.09858.03726-.065788.06595-.1409858.135281-.1657955.0045-.00223.0083-.00336.01352-.00449.03962-.00892.08267-.00154.126263.011207.07766.022746.162099.062257.25478.056012.04716-.00335.108173-.044778.155573-.038088.09511.013158.151752.1275665.223215.1814787.06315.047946.130436.032449.146555.09634-.01869.1071552-.09401.1122358-.08793.2106049v.00224c.0068.088423.100339.1570424.146556.1657954.07092.013158.172708-.024801.243507-.058252.07642-.035904.145183-.114124.211941-.1680358.09534.0727.189606.1476452.281837.2240479.01009.042929.01692.081339.02029.107543.01362.1043677-.01307.1839989-.0091.2800597.01249.1627292.218459.1455021.320166.2307693.03062.025869.0422.091859.06764.1254669.04942.065341.109584.066979.117245.1366691.01823.1666987-.151209.1791645-.135283.365198-.03511.072143-.124403.069589-.117243.1657954.01124.1523593.230941.035696.290855.1545931.03242.063891-.0056.1105446-.02931.2016436.07553.0892.07679.23058-.05637.230769-.08093 0-.103058-.08523-.184884-.105303-.04547-.01126-.108908-.0098-.166849-.02016-.04952-.0089-.108644-.02355-.155573-.02913-.12011-.01416-.249141.02164-.320167-.04705.115778-.152548.268261-.3032787.417119-.4346528.04423-.039249.139778-.067009.117244-.1456312-.08285-.072143-.183395.00559-.261544.049291-.08205.045829-.180227.1118183-.272819.1254668-.160913.023639-.375825-.047101-.507305.038088-.01812.072813.149652.044694.126262.1545931-.06439.010037-.124052.015587-.173611-.029127-.04524-.040365-.02034-.1011145-.0496-.1254668-.04987-.041034-.236412-.051803-.320166-.038088-.102209.016503-.19337.076838-.205177.1635549.122778.05709.325231-.058358.369769.087379-.06731.120113-.224195.186229-.202922.347275.0079.06222.08173.145349.135282.154592.0538.0089.08329-.04299.135281-.03809.05504.0056.04361.06549.10822.05601.09365-.0397.145224-.16962.252526-.163554.128754.155057-.115983.230875-.252526.280059-.155736.05597-.359359.08711-.477995.13667-.06224.02576-.295914.250624-.329186.07618-.02375-.12581.114834-.08914.144301-.192681-.150604-.0291-.289086.06478-.426138.116505-.195547.07337-.52775.118171-.574946.336072-.0091.0436.01799.125524-.01124.154593-.0233.02342-.162252.02877-.223215.04929-.09387.032-.176497.09873-.234487.114264-.04379.01193-.107531.0096-.135283.02016-.07733.02977-.10518.132633-.193902.201643-.03636.02821-.117628.04998-.146555.07842-.05043.04973-.05768.174027-.146556.192681-.0565.0045-.102378-.04107-.155573-.009-.0068.123101.0449.290028-.009.414489-.115249.09322-.242633.157541-.390062.239731-.08149.04561-.154048.05859-.252526.107543-.06987.03457-.133805.116512-.214172.163556-.185766.1084935-.409529.2361275-.408099.5108285.000315.05943.03068.125444.03833.194922.0045.04092-.0045.08081 0 .125467.01159.100911.08521.228293 0 .297983-.130958-.0533-.298446-.07104-.390047-.163553-.0251-.09522.05218-.173145.04059-.259895-.009-.06969-.109386-.194952-.166847-.203884-.05921-.0089-.112492.0542-.173611.04929-.07271-.0056-.14111-.105767-.234489-.116505-.13686-.01583-.238479.02993-.390062.009-.146742.07772-.187669.217565-.367515.203884-.06337-.0045-.12295-.05227-.196158-.06722-.07935-.01628-.199219-.04601-.281837-.04033-.16563.01115-.2861177.130569-.4283917.203883-.1255366.0649-.3031794.14563-.3404588.28006-.020485.07237-.00342.172762-.029311.239731-.017222.04404-.053585.08355-.07666.125467-.1090686.197674-.2000422.459503-.1172441.743839.012269.04215.1199294.281292.1645926.32935.050202.05341.1975868.132957.2818368.134429.071249.0011.1564035-.03702.2254695-.04929.080029-.01416.1797907-.01501.2525257-.03809.210361-.06679.168203-.348524.378789-.443615.09196-.04126.199105-.05.360751-.05825.05133.04282.07473.118456.06764.183719-.0056.04928-.05359.09328-.07891.163555-.02206.06155-.02551.134033-.04735.18372-.02893.06501-.09405.113585-.117244.174757-.0152.03981-.0054.08954-.01804.125467-.0224.06356-.109629.107119-.0699.172516.208334.08218.460783-.02225.642587.01121.07676.01383.235918.104483.234488.221808-.000945.08775-.06935.143648-.07891.239731-.01182.120781-.06224.269649-.06764.367438-.009.160154.236291.43685.4081.434653.184967-.0022.29347-.183149.516325-.08738.07395.03167.152827.151519.234488.145632.06731-.0045.166941-.122921.211941-.203884.05482-.09868.05879-.181005.155574-.230769.104455-.05363.18878-.02902.322421-.07842.05966-.02197.110824-.05943.164593-.09634.04716-.03211.09676-.11667.155574-.05825.07766.07694-.09516.121504-.02931.203883.134969.07092.204395-.13134.302129-.134429.03118-.00097.138424.05999.193904.09634.07586.0494.101851.118328.184884.134429.05335.01004.13921-.01911.214197-.009.09927.01405.159253.09857.234488.09634.09162-.0022.135732-.102054.214195-.116505.171742-.03122.235531.01904.311149.125467.08476.01461.08701-.09773.164593-.05825-.04255.08407.0155.122512.0496.192681.02206.04505.01774.07683.03833.09634.04638.04393.137124.04467.205177.08738.07181.04483.111523.127922.193903.221808.08476.096.227271.19687.34046.203883.106935.0067.193433-.03098.281836-.02017.201277.02454.325899.123257.466721.23077.07868.06.150609.102897.175866.174758.01778.05017.0091.11625.02931.172516.04299.120213.219473.179861.155573.387603.02926.06099.09405.08282.164592.125467.05639.03411.105753.104491.166847.114265.03951.0067.08303-.0109.117245-.0089.110641.0078.18596.05058.281838.08738.05943.02275.134046.0316.17361.05825.04941.03312.05634.143202.117244.172516.03984.01918.12985-.0078.196159 0 .104457.01193.246112.07663.340458.07842.0573.0011.104767-.02407.155574-.02017.11813.0089.210496.08302.302129.165795-1.172106 1.877685-3.057943 3.271777-5.278238 3.804332-.0079-.08463-.03236-.171095-.03608-.255414-.0079-.183436.0216-.312206-.009-.481703-.02262-.128221-.0526-.324866-.0992-.405539-.05211-.08976-.25537-.240961-.358496-.297983-.0681-.03747-.14905-.05114-.223215-.08738-.15845-.07711-.467068-.240791-.536618-.396518-.02015-.04482-.01672-.10455-.03833-.154593-.04221-.0989-.13078-.184666-.193903-.28006-.120179-.182019-.217117-.410256-.340459-.598208-.06236-.09545-.116517-.204035-.184885-.280059-.04007-.04483-.168429-.08713-.184885-.154593-.02195-.08931-.08949-.211741-.07891-.28006.01407-.0921.194185-.164641.193904-.248694-.000315-.07136-.09483-.114138-.11499-.174756-.04908-.147476.02703-.233415.08568-.356236.01936-.04037.03847-.106912.05862-.13667.03568-.05308.108063-.06799.155574-.125467.02656-.03222.04425-.09781.07891-.14339.07395-.09746.192791-.133842.223215-.221807.02476-.0717.04043-.431258.01128-.551159-.0169-.06952-.08337-.126996-.108242-.192728-.04401-.116465-.05272-.24448-.173611-.241971-.07463.0011-.127917.08493-.175867.136669-.01148.0688-.0067.142547-.07891.163555-.110647.03245-.152791-.115779-.281839-.154593-.05133-.0155-.132468-.01485-.164593-.02913-.09421-.04193-.123926-.177649-.223214-.230769-.08307-.04405-.154853-.02866-.205177-.09634-.02094-.04661-.0056-.13249-.01127-.194922-.106593-.06188-.195992-.292804-.320167-.347274-.08228-.03635-.208179-.03254-.311148-.06721-.0484-.01628-.08695-.03623-.137536-.04705-.06236-.01383-.125313-.01624-.173611-.04033-.1926603-.09478-.2958109-.400893-.5343789-.394325-.1017529.0022-.2009022.0969-.2931102.09634-.091623-.000502-.2457837-.07256-.3607509-.125467-.1194247-.05508-.2509776-.08448-.3494776-.134429-.079579-.04036-.1356384-.115001-.2051772-.145631-.05324-.02342-.1299274-.02653-.1736114-.04705-.062132-.02921-.1278268-.09225-.2051772-.145631-.073388-.0504-.1526923-.127384-.1555739-.192681-.00338-.0756.071035-.14019.078914-.212846.0251-.229821-.1473545-.395214-.2547804-.530993-.079579-.100911-.1726991-.186675-.2525257-.28006.0045-.062.0045-.07255 0-.134429-.060444-.0582-.1119892-.145824-.1758662-.233009-.057743-.07861-.16811-.162745-.1826301-.250934-.017896-.108494.041534-.201674 0-.306945-.069223-.174694-.3155516-.09656-.2840916.134428.00901.06367.098934.149723.1262629.212846.028028.06434.02349.144301.049603.221807.0251.07426.1001715.138146.1262628.221808.041309.132132.040982.273644.078914.356235.03343.07337.1547331.144186.085679.23301-.092073.01896-.1253716-.07233-.1826301-.125467-.031967-.02955-.1492433-.08584-.1668474-.154593-.014745-.05676.037289-.134405.020292-.203883-.03343-.136191-.3101686-.13991-.3111479-.28006-.0005064-.08798.1139427-.09865.1149894-.183719.0007543-.09311-.1278732-.171989-.1555737-.250934-.025326-.07237-.028875-.187207-.03833-.289022-.009-.09556.00166-.2063325-.020292-.2800585-.019923-.06635-.1204789-.157078-.1848849-.192681-.085207-.04706-.1521895-.02743-.1939037-.09634-.036244-.06021-.059762-.186038-.067641-.250933-.01407-.116054-.00452-.24358-.011273-.367439-.00676-.124048-.019135-.243097 0-.3764.048175-.09333.1380527-.138299.1871395-.23077.034218-.06434.038052-.144404.07666-.212845.07125-.126055.2270532-.240938.33144-.365198.1125581-.133861.215967-.263712.2818363-.416729.023637-.0543.085777-.173141.07666-.239731-.0128315-.0927718-.1875347-.1695706-.1736112-.2800601.009005-.0684639.1060506-.0691085.1352816-.1366692.01497-.0349012.0285233-.13087.0293114-.1725168.0011253-.0931061-.0482212-.1896047-.0293114-.2890218.0159833-.0848546.1442883-.1197171.0789143-.2128453-.0648337-.0922141-.1830244.0485637-.2547803-.0112025-.0658473-.0548601.014214-.1208738.0202926-.2218073.0022484-.0401413-.0245691-.0845374-.0202926-.114264.0056323-.0431525.0924077-.1166622.0698954-.1456311-.0351183-.0441561-.0734877-.1326774-.1285175-.203884 1.0852333-.8626183 2.386147-1.4709047 3.8081778-1.7274089h.0023c.01767.029883.03107.065371.07441.078417.08476-.043598.170421.00334.263799 0 .09095-.00334.172574-.044737.272818-.029126.177156.027542.42409.2009054.563674.107543.03512-.023639.02688-.066547.05862-.1277073.02521-.04895.06373-.1010129.08793-.1613144.07057-.00223.14104-.00224.211941-.00224z" fill="#bebebe"/></svg>