<svg height="24" width="24" xmlns="http://www.w3.org/2000/svg">
  <path d="m3.8113315 1c-1.5574942 0-2.81136155 1.2538671-2.81136155 2.8113611v16.3772779c0 1.557493 1.25386735 2.811361 2.81136155 2.811361h16.3773375c1.557494 0 2.811361-1.253866 2.811361-2.811361v-16.3772779c0-1.557494-1.253867-2.8113611-2.811361-2.8113611zm2.1551932 2.6105153h.2231151c.3955542 0 .7140051.3184516.7140051.7140053v4.6588174h.7362746c.5686094 0 1.0263784.45777 1.0263784 1.026379v2.097355c0 .568611-.457769 1.026379-1.0263784 1.026379h-.7362746v6.542028c0 .395556-.3184509.714006-.7140051.714006h-.2231151c-.3955542 0-.7140049-.31845-.7140049-.714006v-6.542028h-.7363353c-.5686079 0-1.0263179-.457768-1.0263179-1.026379v-2.097355c0-.568609.45771-1.026379 1.0263179-1.026379h.7363353v-4.6588174c0-.3955537.3184507-.7140053.7140049-.7140053zm6.1136123 0h.223116c.395554 0 .714005.3184516.714005.7140053v9.6567944h.736274c.568609 0 1.026377.457709 1.026377 1.026318v2.097417c0 .568607-.457768 1.026315-1.026377 1.026315h-.736274v1.544114c0 .395556-.318451.714006-.714005.714006h-.223116c-.395554 0-.714005-.31845-.714005-.714006v-1.544114h-.736336c-.568607 0-1.026378-.457708-1.026378-1.026315v-2.097417c0-.568609.457771-1.026318 1.026378-1.026318h.736336v-9.6567944c0-.3955537.318451-.7140053.714005-.7140053zm6.113551 0h.223115c.395554 0 .714007.3184516.714007.7140053v.9728101h.736335c.568607 0 1.026379.4577697 1.026379 1.0263783v2.097358c0 .568609-.457772 1.026378-1.026379 1.026378h-.736335v10.228034c0 .395556-.318453.714006-.714007.714006h-.223115c-.395555 0-.714005-.31845-.714005-.714006v-10.228034h-.736274c-.568609 0-1.026379-.457769-1.026379-1.026378v-2.097358c0-.5686086.45777-1.0263783 1.026379-1.0263783h.736274v-.9728101c0-.3955537.31845-.7140053.714005-.7140053z" fill="#bebebe" stroke-width=".031237" />
</svg>
