<?xml version="1.0" encoding="UTF-8" standalone="no"?>
<svg
   xmlns:dc="http://purl.org/dc/elements/1.1/"
   xmlns:cc="http://creativecommons.org/ns#"
   xmlns:rdf="http://www.w3.org/1999/02/22-rdf-syntax-ns#"
   xmlns:svg="http://www.w3.org/2000/svg"
   xmlns="http://www.w3.org/2000/svg"
   xmlns:sodipodi="http://sodipodi.sourceforge.net/DTD/sodipodi-0.dtd"
   xmlns:inkscape="http://www.inkscape.org/namespaces/inkscape"
   height="24"
   width="24"
   version="1.1"
   id="svg4"
   sodipodi:docname="folder-appimage-symbolic.svg"
   inkscape:version="0.92.4 (5da689c313, 2019-01-14)">
  <metadata
     id="metadata10">
    <rdf:RDF>
      <cc:Work
         rdf:about="">
        <dc:format>image/svg+xml</dc:format>
        <dc:type
           rdf:resource="http://purl.org/dc/dcmitype/StillImage" />
        <dc:title></dc:title>
      </cc:Work>
    </rdf:RDF>
  </metadata>
  <defs
     id="defs8" />
  <sodipodi:namedview
     pagecolor="#ffffff"
     bordercolor="#666666"
     borderopacity="1"
     objecttolerance="10"
     gridtolerance="10"
     guidetolerance="10"
     inkscape:pageopacity="0"
     inkscape:pageshadow="2"
     inkscape:window-width="1366"
     inkscape:window-height="713"
     id="namedview6"
     showgrid="false"
     inkscape:zoom="9.8333333"
     inkscape:cx="12"
     inkscape:cy="12"
     inkscape:window-x="0"
     inkscape:window-y="32"
     inkscape:window-maximized="1"
     inkscape:current-layer="svg4" />
  <path
     inkscape:connector-curvature="0"
     style="display:inline;overflow:visible;visibility:visible;fill:#bebebe;fill-opacity:1;fill-rule:nonzero;stroke:none;stroke-width:0.55868149;marker:none;enable-background:accumulate"
     id="path2317"
     d="M 10.152672,3.0770454 V 6.4231539 H 8.3750513 L 11.825723,10.326947 15.276399,6.4231539 H 13.498778 V 3.0770454 Z m 1.237362,7.8075866 c -0.09642,0 -0.156849,0.164472 -0.156849,0.365981 v 1.272217 c -0.388178,0.08839 -0.753737,0.246703 -1.080513,0.453118 L 9.246434,12.069711 C 9.1039471,11.927224 8.9486312,11.86211 8.8804535,11.930289 l -0.8539547,0.853956 c -0.068174,0.06817 -0.00304,0.223493 0.1394208,0.36598 l 0.9062365,0.906237 C 8.8657407,14.38324 8.70743,14.7488 8.6190375,15.136977 h -1.272218 c -0.2015057,0 -0.3659805,0.06042 -0.3659805,0.156849 v 1.219935 c 0,0.09642 0.1644739,0.156848 0.3659805,0.156848 h 1.272218 c 0.088394,0.388177 0.2467032,0.753738 0.4531186,1.080513 l -0.9062365,0.906239 c -0.1424868,0.142487 -0.2076003,0.297802 -0.1394208,0.365981 l 0.8539547,0.853954 c 0.068174,0.06817 0.2234936,0.0031 0.3659805,-0.139422 l 0.906237,-0.906237 c 0.326776,0.206416 0.692337,0.364728 1.080514,0.45312 v 1.272218 c 0,0.201506 0.06042,0.36598 0.156848,0.36598 h 1.219936 c 0.09642,0 0.156849,-0.164474 0.156849,-0.36598 v -1.272218 c 0.388177,-0.08839 0.753736,-0.246704 1.080514,-0.45312 l 0.906237,0.906237 c 0.142487,0.142488 0.297802,0.207602 0.365981,0.139422 l 0.853953,-0.853954 c 0.06817,-0.06817 0.0031,-0.223494 -0.139421,-0.365981 l -0.906237,-0.906239 c 0.206414,-0.326775 0.364728,-0.692336 0.453118,-1.080513 h 1.272218 c 0.201509,0 0.36598,-0.06042 0.36598,-0.156848 v -1.219935 c 0,-0.09642 -0.164471,-0.156849 -0.36598,-0.156849 H 15.380964 C 15.292574,14.7488 15.13426,14.38324 14.927845,14.056462 l 0.906237,-0.906237 c 0.142488,-0.142487 0.207601,-0.297801 0.139421,-0.36598 L 15.11955,11.930289 c -0.06817,-0.06817 -0.223495,-0.0031 -0.365981,0.139422 l -0.906237,0.906237 C 13.520554,12.769533 13.154995,12.611221 12.766818,12.52283 v -1.272217 c 0,-0.201509 -0.06042,-0.365981 -0.156848,-0.365981 z m 0.60997,3.468101 c 0.852483,0 1.551059,0.698575 1.551059,1.551059 0,0.852488 -0.698576,1.551062 -1.551059,1.551062 -0.852487,0 -1.551062,-0.698574 -1.551062,-1.551062 0,-0.852484 0.698575,-1.551059 1.551062,-1.551059 z" />
</svg>
