<svg height="24" width="24" xmlns="http://www.w3.org/2000/svg">
  <path d="m10.152672 3.0770454v3.3461085h-1.7776207l3.4506717 3.9037931 3.450676-3.9037931h-1.777621v-3.3461085zm1.237362 7.8075866c-.09642 0-.156849.164472-.156849.365981v1.272217c-.388178.08839-.753737.246703-1.080513.453118l-.906238-.906237c-.1424869-.142487-.2978028-.207601-.3659805-.139422l-.8539547.853956c-.068174.06817-.00304.223493.1394208.36598l.9062365.906237c-.2064154.326778-.3647261.692338-.4531186 1.080515h-1.272218c-.2015057 0-.3659805.06042-.3659805.156849v1.219935c0 .09642.1644739.156848.3659805.156848h1.272218c.088394.388177.2467032.753738.4531186 1.080513l-.9062365.906239c-.1424868.142487-.2076003.297802-.1394208.365981l.8539547.853954c.068174.06817.2234936.0031.3659805-.139422l.906237-.906237c.326776.206416.692337.364728 1.080514.45312v1.272218c0 .201506.06042.36598.156848.36598h1.219936c.09642 0 .156849-.164474.156849-.36598v-1.272218c.388177-.08839.753736-.246704 1.080514-.45312l.906237.906237c.142487.142488.297802.207602.365981.139422l.853953-.853954c.06817-.06817.0031-.223494-.139421-.365981l-.906237-.906239c.206414-.326775.364728-.692336.453118-1.080513h1.272218c.201509 0 .36598-.06042.36598-.156848v-1.219935c0-.09642-.164471-.156849-.36598-.156849h-1.272217c-.08839-.388177-.246704-.753737-.453119-1.080515l.906237-.906237c.142488-.142487.207601-.297801.139421-.36598l-.853953-.853956c-.06817-.06817-.223495-.0031-.365981.139422l-.906237.906237c-.326778-.206415-.692337-.364727-1.080514-.453118v-1.272217c0-.201509-.06042-.365981-.156848-.365981zm.60997 3.468101c.852483 0 1.551059.698575 1.551059 1.551059 0 .852488-.698576 1.551062-1.551059 1.551062-.852487 0-1.551062-.698574-1.551062-1.551062 0-.852484.698575-1.551059 1.551062-1.551059z" fill="#bebebe" />
</svg>
