<svg height="24" viewBox="0 0 24 24" width="24" xmlns="http://www.w3.org/2000/svg"><path d="m8.7272727 6.2727274a2.4545455 2.4545455 0 0 0 -2.4545454 2.4545452 2.4545455 2.4545455 0 0 0 2.4545454 2.4545454 2.4545455 2.4545455 0 0 0 2.4545453-2.4545454 2.4545455 2.4545455 0 0 0 -2.4545453-2.4545452zm6.5454543 0a2.4545455 2.4545455 0 0 0 -2.454545 2.4545452 2.4545455 2.4545455 0 0 0 2.454545 2.4545454 2.4545455 2.4545455 0 0 0 2.454546-2.4545454 2.4545455 2.4545455 0 0 0 -2.454546-2.4545452zm-6.5454543 6.5454556c-1.9063636 0-5.7272727.957272-5.7272727 2.863635v2.045455h11.454545v-2.045455c0-1.906363-3.820909-2.863635-5.7272723-2.863635zm6.5454543 0c-.237272 0-.507847.000639-.794211.04155.94909.687272 1.612394 1.594816 1.612394 2.822088v2.045452h4.90909v-2.045455c0-1.906363-3.82091-2.863635-5.727273-2.863635z" fill="#bebebe"/></svg>