<svg height="24" width="24" xmlns="http://www.w3.org/2000/svg">
  <path d="m9.5156281.0000001v4.5000006h-2.390626l4.6406219 5.2500005 4.640628-5.2500005h-2.390626v-4.5000006zm1.6640619 10.5000019c-.12967 0-.210938.221189-.210938.492188v1.710936c-.52204.118871-1.0136605.331777-1.4531239.609374l-1.2187505-1.21875c-.1916229-.191623-.4004989-.279191-.4921874-.187501l-1.1484376 1.14844c-.091684.09168-.00409.300563.1874995.492186l1.2187486 1.21875c-.277597.439466-.4905005.931088-.6093748 1.453126h-1.7109372c-.2709942 0-.4921875.08125-.4921875.210938v1.640624c0 .12967.2211921.210937.4921875.210937h1.7109372c.1188763.522038.3317778 1.013661.6093748 1.453123l-1.2187486 1.218752c-.1916228.191623-.2791904.400498-.1874995.492188l1.1484376 1.148437c.091684.09168.3005645.0042.4921874-.187501l1.2187492-1.218749c.4394634.277597.9310872.490503 1.4531252.609376v1.710937c0 .270995.08126.492187.210936.492187h1.640626c.12967 0 .210938-.221192.210938-.492187v-1.710937c.522038-.118871 1.013659-.331779 1.453125-.609376l1.218749 1.218749c.191623.191624.400498.279192.492188.187501l1.148436-1.148437c.09168-.09168.0042-.300565-.1875-.492188l-1.218749-1.218752c.277595-.439462.490503-.931085.609374-1.453123h1.710937c.270998 0 .492187-.08126.492187-.210937v-1.640624c0-.12967-.221189-.210938-.492187-.210938h-1.710936c-.118871-.522038-.331779-1.01366-.609375-1.453126l1.218749-1.21875c.191624-.191623.279191-.400496.1875-.492186l-1.148436-1.14844c-.09168-.09168-.300566-.0042-.492188.187501l-1.218749 1.21875c-.439466-.277597-.931087-.490502-1.453125-.609374v-1.710936c0-.270999-.08126-.492188-.210936-.492188zm.820315 4.664061c1.146459 0 2.085936.939476 2.085936 2.085936 0 1.146465-.939477 2.085939-2.085936 2.085939-1.146463 0-2.0859393-.939474-2.0859393-2.085939 0-1.14646.9394763-2.085936 2.0859393-2.085936z" fill="#bebebe" stroke-width="1.344846" />
</svg>
