<svg height="24" viewBox="0 0 24 24" width="24" xmlns="http://www.w3.org/2000/svg"><path d="m10.285714 3a2.1428571 2.1428571 0 0 0 -2.1428568 2.1428571v1.2857143h-3.4285715a1.7142857 1.7142857 0 0 0 -1.7142857 1.7142866v3.257812h1.2857142c1.2857144 0 2.3136161 1.027901 2.3136162 2.313616 0 1.285714-1.0279018 2.313616-2.3136162 2.313616h-1.2857142v3.257812a1.7142857 1.7142857 0 0 0 1.7142857 1.714286h3.2578124v-1.285714c0-1.285714 1.0279019-2.313617 2.3136159-2.313617 1.285715 0 2.313616 1.027903 2.313616 2.313617v1.285714h3.257812a1.7142857 1.7142857 0 0 0 1.714287-1.714286v-3.428572h1.285714a2.1428571 2.1428571 0 0 0 2.142857-2.142856 2.1428571 2.1428571 0 0 0 -2.142857-2.142857h-1.285714v-3.428571c0-.95143-.771429-1.7142866-1.714287-1.7142866h-3.428571v-1.2857143a2.1428571 2.1428571 0 0 0 -2.142857-2.1428571z" fill="#bebebe"/></svg>