<svg height="24" width="24" xmlns="http://www.w3.org/2000/svg"><path d="m20.394053 9.551665-5.430063-.796013-2.433873-4.9618549c-.136889-.2980838-.313744-.4470611-.530039-.4470611-.216284 0-.393007.1489773-.530029.4470611l-2.4340201 4.9618549-5.4303145.796013c-.4037688.06545-.6057157.232634-.6057157.501674 0 .152724.090158.327265.2704651.523492l3.9375405 3.860397-.9302112 5.452549c-.014479.101858-.021645.174678-.021645.218179 0 .152723.037834.281621.1135217.387229.075679.105481.1891995.158079.3407001.158079.1298478 0 .2740437-.04337.4327095-.13077l4.8568686-2.57382 4.85727 2.57382c.151624.08727.295818.13077.432577.13077.14459 0 .254396-.05247.330071-.158079.07556-.10548.113391-.234506.113391-.387229 0-.0945-.0036-.167179-.01091-.218179l-.930352-5.452549 3.926656-3.860397c.187745-.188999.28135-.363539.28135-.523492 0-.26904-.201815-.43622-.605977-.501674z" fill="#bebebe"/></svg>
