<svg height="22" viewBox="0 0 22 22" width="22" xmlns="http://www.w3.org/2000/svg" xmlns:xlink="http://www.w3.org/1999/xlink"><linearGradient id="a"><stop offset="0" stop-color="#dbdee0"/><stop offset="1" stop-color="#dbdee0" stop-opacity="0"/></linearGradient><linearGradient id="b" gradientTransform="matrix(-.86602539 .5 .5 .86602539 584.22156 387.56195)" gradientUnits="userSpaceOnUse" x1="5.875" x2="3.875" xlink:href="#a" y1="31.125" y2="4.125"/><linearGradient id="c" gradientTransform="matrix(.86602539 -.5 .5 .86602539 563.6077 399.6077)" gradientUnits="userSpaceOnUse" x1="12" x2="23" xlink:href="#a" y1="6" y2="10"/><g transform="translate(-569.00001 -393.00003)"><path d="m575.99999 397.0718c-3.81607 2.20323-5.13141 7.11213-2.92819 10.92822 2.20321 3.81606 7.11212 5.13141 10.92819 2.92819l-.99999-1.73204c-2.88002 1.66276-6.53338.68384-8.19615-2.19616-1.66278-2.88002-.68386-6.53337 2.19614-8.19616.4783-.27613.64218-.88772.36604-1.36601-.27614-.47831-.88773-.64217-1.36604-.36604z" fill="url(#c)"/><path d="m575.99999 397.0718c3.8161-2.20321 8.72499-.88788 10.92821 2.92821 2.20322 3.81608.88788 8.72498-2.92821 10.9282l-.99999-1.73204c2.88002-1.66278 3.85893-5.31614 2.19615-8.19617-1.66278-2.88002-5.31613-3.85892-8.19616-2.19615z" fill="url(#b)"/><path d="m569 393.00003h22v22h-22z" fill="none"/></g></svg>