<svg height="22" viewBox="0 0 22 22" width="22" xmlns="http://www.w3.org/2000/svg" xmlns:xlink="http://www.w3.org/1999/xlink"><linearGradient id="a"><stop offset="0" stop-color="#dbdee0"/><stop offset="1" stop-color="#dbdee0" stop-opacity="0"/></linearGradient><linearGradient id="b" gradientTransform="matrix(-.49999999 .8660254 .8660254 .49999999 551.43695 387.65345)" gradientUnits="userSpaceOnUse" x1="5.875" x2="3.875" xlink:href="#a" y1="31.125" y2="4.125"/><linearGradient id="c" gradientTransform="matrix(.49999999 -.8660254 .8660254 .49999999 539.6077 408.39231)" gradientUnits="userSpaceOnUse" x1="12" x2="23" xlink:href="#a" y1="6" y2="10"/><g transform="translate(-545.00001 -393.00003)"><path d="m549.07179 400.00001c-2.2032 3.81608-.88787 8.72499 2.92822 10.92821 3.81607 2.2032 8.72498.88787 10.92818-2.92821l-1.73203-1c-1.66279 2.88001-5.31615 3.85892-8.19616 2.19615-2.88002-1.66278-3.85892-5.31614-2.19616-8.19615.27615-.47829.11228-1.08988-.36601-1.36602-.4783-.27616-1.08988-.11227-1.36604.36602z" fill="url(#c)"/><path d="m549.07179 400.00001c2.20323-3.81609 7.11212-5.13143 10.92821-2.9282 3.81608 2.20321 5.13141 7.11211 2.92819 10.9282l-1.73203-1c1.66278-2.88002.68386-6.53337-2.19617-8.19616-2.88001-1.66278-6.53336-.68386-8.19615 2.19616z" fill="url(#b)"/><path d="m545 393.00003h22v22h-22z" fill="none"/></g></svg>