<svg height="22" viewBox="0 0 22 22" width="22" xmlns="http://www.w3.org/2000/svg" xmlns:xlink="http://www.w3.org/1999/xlink"><linearGradient id="a"><stop offset="0" stop-color="#dbdee0"/><stop offset="1" stop-color="#dbdee0" stop-opacity="0"/></linearGradient><linearGradient id="b" gradientTransform="matrix(.99999999 0 0 -.99999999 448.12499 416.125)" gradientUnits="userSpaceOnUse" x1="5.875" x2="3.875" xlink:href="#a" y1="31.125" y2="4.125"/><linearGradient id="c" gradientTransform="matrix(-.99999999 0 0 -.99999999 471.99999 416)" gradientUnits="userSpaceOnUse" x1="12" x2="23" xlink:href="#a" y1="6" y2="10"/><g transform="translate(-449.00001 -393.00003)"><path d="m460 412.00001c4.40643-.00001 8-3.59357 8-8.00001-.00001-4.40643-3.59357-8-8-8v2c3.32555.00001 5.99999 2.67445 6 6-.00001 3.32556-2.67445 6-6 6.00001-.55229-.00001-1 .44771-1 .99999-.00001.55229.44771 1 1 1.00001z" fill="url(#c)"/><path d="m460 412.00001c-4.40644-.00001-8.00001-3.59357-8-8.00001 0-4.40643 3.59356-8 8-8v2c-3.32556 0-6 2.67445-6.00001 6 0 3.32556 2.67445 6 6.00001 6.00001z" fill="url(#b)"/><path d="m449 393.00003h22v22h-22z" fill="none"/></g></svg>