<svg height="22" viewBox="0 0 22 22" width="22" xmlns="http://www.w3.org/2000/svg" xmlns:xlink="http://www.w3.org/1999/xlink"><linearGradient id="a"><stop offset="0" stop-color="#dbdee0"/><stop offset="1" stop-color="#dbdee0" stop-opacity="0"/></linearGradient><linearGradient id="b" gradientTransform="matrix(-.8660254 -.5 -.5 .8660254 500.34655 375.43694)" gradientUnits="userSpaceOnUse" x1="5.875" x2="3.875" xlink:href="#a" y1="31.125" y2="4.125"/><linearGradient id="c" gradientTransform="matrix(.8660254 .5 -.5 .8660254 479.6077 363.6077)" gradientUnits="userSpaceOnUse" x1="12" x2="23" xlink:href="#a" y1="6" y2="10"/><g transform="translate(-473.00001 -369.00003)"><path d="m488 373.0718c-3.81608-2.20322-8.72499-.88788-10.9282 2.9282-2.20322 3.81608-.88788 8.72499 2.9282 10.9282l1-1.73205c-2.88001-1.66277-3.85893-5.31614-2.19615-8.19615 1.66277-2.88001 5.31614-3.85893 8.19615-2.19615.47829.27614 1.08988.11226 1.36602-.36603.27615-.47829.11227-1.08988-.36602-1.36602z" fill="url(#c)"/><path d="m488 373.0718c3.81608 2.20321 5.13142 7.11212 2.9282 10.9282-2.20321 3.81608-7.11212 5.13142-10.9282 2.9282l1-1.73205c2.88001 1.66278 6.53338.68386 8.19615-2.19615 1.66278-2.88001.68386-6.53338-2.19615-8.19615z" fill="url(#b)"/><path d="m473 369.00003h22v22h-22z" fill="none"/></g></svg>