<svg height="22" viewBox="0 0 22 22" width="22" xmlns="http://www.w3.org/2000/svg" xmlns:xlink="http://www.w3.org/1999/xlink"><linearGradient id="a"><stop offset="0" stop-color="#dbdee0"/><stop offset="1" stop-color="#dbdee0" stop-opacity="0"/></linearGradient><linearGradient id="b" gradientTransform="matrix(0 .99999999 .99999999 0 519.875 392.12499)" gradientUnits="userSpaceOnUse" x1="5.875" x2="3.875" xlink:href="#a" y1="31.125" y2="4.125"/><linearGradient id="c" gradientTransform="matrix(0 -.99999999 .99999999 0 520 416)" gradientUnits="userSpaceOnUse" x1="12" x2="23" xlink:href="#a" y1="6" y2="10"/><g transform="translate(-521.00001 -393.00003)"><path d="m523.99999 404.00001c.00001 4.40642 3.59358 8 8.00002 8 4.40641-.00001 7.99999-3.59358 7.99998-8l-1.99999-.00001c-.00001 3.32556-2.67445 6-6 6-3.32556 0-6-2.67445-6.00001-5.99999.00001-.55229-.4477-1-.99998-1-.5523-.00002-1 .44771-1.00002 1z" fill="url(#c)"/><path d="m523.99999 404.00001c.00001-4.40645 3.59357-8.00001 8.00001-8 4.40643-.00001 7.99999 3.59356 7.99999 8l-1.99999-.00001c0-3.32556-2.67444-5.99999-6.00001-6-3.32556 0-5.99999 2.67444-6 6.00001z" fill="url(#b)"/><path d="m521 393.00003h22v22h-22z" fill="none"/></g></svg>