<svg xmlns="http://www.w3.org/2000/svg" viewBox="0 0 22 22"><g transform="translate(0-1030.36)"><path d="m11.00102 1033.3622a8.00033 8.00031 0 0 0 -8.00102 8.001 8.00033 8.00031 0 0 0 8.00102 7.999 8.00033 8.00031 0 0 0 7.99898 -7.999 8.00033 8.00031 0 0 0 -7.99898 -8.001" fill="#2ecc71" fill-rule="evenodd"/><g transform="matrix(.29167 0 0 .29167 5.75 1036.41)"><path d="m31.2 7h-26.4c-1 0-1.8.8-1.8 1.8v17.5c0 1 .8 1.8 1.8 1.8h26.5c1 0 1.8-.8 1.8-1.8v-17.5c-.1-1-.9-1.8-1.9-1.8" stroke-miterlimit="10" fill="none" stroke="#fff" stroke-linejoin="round" fill-opacity=".12" stroke-width="2"/><path d="m33 30h-30c-1.7 0-3-1.3-3-3v-1h36v1c0 1.7-1.3 3-3 3" fill="#fff"/></g></g></svg>