<svg xmlns="http://www.w3.org/2000/svg" viewBox="0 0 22 22"><defs><clipPath><path d="m69.63 12.145h-.052c-22.727-.292-46.47 4.077-46.709 4.122-2.424.451-4.946 2.974-5.397 5.397-.044.237-4.414 23.983-4.122 46.71-.292 22.777 4.078 46.523 4.122 46.761.451 2.423 2.974 4.945 5.398 5.398.237.044 23.982 4.413 46.709 4.121 22.779.292 46.524-4.077 46.761-4.121 2.423-.452 4.946-2.976 5.398-5.399.044-.236 4.413-23.981 4.121-46.709.292-22.777-4.077-46.523-4.121-46.761-.453-2.423-2.976-4.946-5.398-5.397-.238-.045-23.984-4.414-46.71-4.122"/></clipPath></defs><g transform="translate(0-1030.36)" fill="#4d4d4d"><g transform="matrix(.07909 0 0 .07909 7.424 1038.56)"><path d="m47 94.07c7.17 0 13.307-2.553 18.412-7.657 5.105-5.104 7.658-11.243 7.658-18.413v-41.714c0-7.17-2.551-13.307-7.658-18.413-5.105-5.105-11.242-7.659-18.412-7.659-7.17 0-13.307 2.554-18.413 7.659-5.106 5.105-7.659 11.243-7.659 18.413v41.714c0 7.17 2.554 13.309 7.659 18.413 5.105 5.104 11.243 7.657 18.413 7.657"/><path d="m92.38 53.905c-1.03-1.032-2.254-1.548-3.666-1.548-1.412 0-2.634.516-3.666 1.548-1.032 1.032-1.548 2.254-1.548 3.666v10.429c0 10.05-3.572 18.643-10.714 25.786-7.141 7.143-15.737 10.714-25.786 10.714-10.05 0-18.644-3.571-25.787-10.714-7.142-7.141-10.713-15.737-10.713-25.786v-10.429c0-1.412-.516-2.634-1.548-3.666-1.032-1.032-2.253-1.548-3.666-1.548-1.413 0-2.635.516-3.667 1.548-1.032 1.032-1.548 2.254-1.548 3.666v10.429c0 12 4.01 22.446 12.02 31.33 8.01 8.88 17.91 13.972 29.697 15.275v10.756h-20.857c-1.412 0-2.634.516-3.666 1.548-1.032 1.032-1.548 2.254-1.548 3.666 0 1.411.516 2.635 1.548 3.666 1.032 1.032 2.254 1.549 3.666 1.549h52.14c1.412 0 2.636-.517 3.666-1.549 1.033-1.031 1.55-2.255 1.55-3.666 0-1.412-.517-2.634-1.55-3.666-1.03-1.032-2.254-1.548-3.666-1.548h-20.855v-10.756c11.785-1.303 21.684-6.395 29.696-15.275 8.01-8.88 12.02-19.322 12.02-31.33v-10.429c0-1.412-.517-2.633-1.55-3.666"/></g><path d="m121.36 2.114l-11.08-11.08c-1.52-1.521-3.368-2.281-5.54-2.281-2.173 0-4.02.76-5.541 2.281l-53.45 53.53-23.953-24.04c-1.521-1.521-3.368-2.281-5.54-2.281-2.173 0-4.02.76-5.541 2.281l-11.08 11.08c-1.521 1.521-2.281 3.368-2.281 5.541 0 2.172.76 4.02 2.281 5.54l29.493 29.493 11.08 11.08c1.52 1.521 3.367 2.281 5.54 2.281 2.172 0 4.02-.761 5.54-2.281l11.08-11.08 58.986-58.986c1.52-1.521 2.281-3.368 2.281-5.541.0001-2.172-.761-4.02-2.281-5.54" transform="matrix(.04002 0 0 .04002 8.913 1034.25)"/></g></svg>