<?xml version="1.0" encoding="UTF-8" standalone="no"?>
<svg
   xmlns:dc="http://purl.org/dc/elements/1.1/"
   xmlns:cc="http://creativecommons.org/ns#"
   xmlns:rdf="http://www.w3.org/1999/02/22-rdf-syntax-ns#"
   xmlns:svg="http://www.w3.org/2000/svg"
   xmlns="http://www.w3.org/2000/svg"
   xmlns:sodipodi="http://sodipodi.sourceforge.net/DTD/sodipodi-0.dtd"
   xmlns:inkscape="http://www.inkscape.org/namespaces/inkscape"
   viewBox="0 0 22 22"
   id="svg2"
   version="1.1"
   inkscape:version="0.91 r13725"
   sodipodi:docname="microphone-sensitivity-medium.svg">
  <metadata
     id="metadata26">
    <rdf:RDF>
      <cc:Work
         rdf:about="">
        <dc:format>image/svg+xml</dc:format>
        <dc:type
           rdf:resource="http://purl.org/dc/dcmitype/StillImage" />
        <dc:title></dc:title>
      </cc:Work>
    </rdf:RDF>
  </metadata>
  <sodipodi:namedview
     pagecolor="#ffffff"
     bordercolor="#666666"
     borderopacity="1"
     objecttolerance="10"
     gridtolerance="10"
     guidetolerance="10"
     inkscape:pageopacity="0"
     inkscape:pageshadow="2"
     inkscape:window-width="847"
     inkscape:window-height="480"
     id="namedview24"
     showgrid="false"
     inkscape:zoom="21.454545"
     inkscape:cx="12.122152"
     inkscape:cy="12.761915"
     inkscape:window-x="0"
     inkscape:window-y="26"
     inkscape:window-maximized="0"
     inkscape:current-layer="svg2" />
  <defs
     id="defs4">
    <clipPath
       id="clipPath6">
      <path
         d="m69.63 12.145h-.052c-22.727-.292-46.47 4.077-46.709 4.122-2.424.451-4.946 2.974-5.397 5.397-.044.237-4.414 23.983-4.122 46.71-.292 22.777 4.078 46.523 4.122 46.761.451 2.423 2.974 4.945 5.398 5.398.237.044 23.982 4.413 46.709 4.121 22.779.292 46.524-4.077 46.761-4.121 2.423-.452 4.946-2.976 5.398-5.399.044-.236 4.413-23.981 4.121-46.709.292-22.777-4.077-46.523-4.121-46.761-.453-2.423-2.976-4.946-5.398-5.397-.238-.045-23.984-4.414-46.71-4.122"
         id="path8" />
    </clipPath>
  </defs>
  <g
     style="fill:#4d4d4d"
     id="g12"
     transform="matrix(0.07909,0,0,0.07909,7.424,8.2)">
    <path
       inkscape:connector-curvature="0"
       id="path14"
       d="m 47,94.07 c 7.17,0 13.307,-2.553 18.412,-7.657 C 70.517,81.309 73.07,75.17 73.07,68 l 0,-41.714 C 73.07,19.116 70.519,12.979 65.412,7.873 60.307,2.768 54.17,0.214 47,0.214 c -7.17,0 -13.307,2.554 -18.413,7.659 -5.106,5.105 -7.659,11.243 -7.659,18.413 l 0,41.714 c 0,7.17 2.554,13.309 7.659,18.413 C 33.692,91.517 39.83,94.07 47,94.07" />
    <path
       inkscape:connector-curvature="0"
       id="path16"
       d="m 92.38,53.905 c -1.03,-1.032 -2.254,-1.548 -3.666,-1.548 -1.412,0 -2.634,0.516 -3.666,1.548 -1.032,1.032 -1.548,2.254 -1.548,3.666 L 83.5,68 C 83.5,78.05 79.928,86.643 72.786,93.786 65.645,100.929 57.049,104.5 47,104.5 36.95,104.5 28.356,100.929 21.213,93.786 14.071,86.645 10.5,78.049 10.5,68 l 0,-10.429 C 10.5,56.159 9.984,54.937 8.952,53.905 7.92,52.873 6.699,52.357 5.286,52.357 c -1.413,0 -2.635,0.516 -3.667,1.548 -1.032,1.032 -1.548,2.254 -1.548,3.666 l 0,10.429 c 0,12 4.01,22.446 12.02,31.33 8.01,8.88 17.91,13.972 29.697,15.275 l 0,10.756 -20.857,0 c -1.412,0 -2.634,0.516 -3.666,1.548 -1.032,1.032 -1.548,2.254 -1.548,3.666 0,1.411 0.516,2.635 1.548,3.666 1.032,1.032 2.254,1.549 3.666,1.549 l 52.14,0 c 1.412,0 2.636,-0.517 3.666,-1.549 1.033,-1.031 1.55,-2.255 1.55,-3.666 0,-1.412 -0.517,-2.634 -1.55,-3.666 -1.03,-1.032 -2.254,-1.548 -3.666,-1.548 l -20.855,0 0,-10.756 C 64.001,113.302 73.9,108.21 81.912,99.33 89.922,90.45 93.932,80.008 93.932,68 l 0,-10.429 c 0,-1.412 -0.517,-2.633 -1.55,-3.666" />
  </g>
  <path
     style="fill:#4d4d4d"
     d="M 12.854309,6.4929797 C 12.342193,6.1425459 11.779626,5.9614651 11.166754,5.9497373 10.553882,5.9380094 9.9851186,6.0972573 9.4592098,6.4280709 8.9340386,6.7586632 8.547905,7.2021821 8.300809,7.7587013 c -0.020948,0.051632 -0.032012,0.103559 -0.032971,0.1555598 -0.00199,0.1041491 0.034372,0.1950215 0.1090173,0.2726907 0.074645,0.077522 0.1640423,0.1172784 0.2681914,0.11927 0.1562974,0.00302 0.2759361,-0.072875 0.3590637,-0.2276234 0.12045,-0.2220176 0.2114699,-0.372488 0.2730595,-0.451485 0.2220176,-0.2923108 0.4978062,-0.5185328 0.8274399,-0.6783707 0.329633,-0.1599854 0.678739,-0.2364745 1.047244,-0.2293936 0.368505,0.00708 0.71444,0.096773 1.037803,0.2692978 0.323364,0.1724509 0.59008,0.4089992 0.800813,0.7094974 0.05856,0.08121 0.143758,0.2351469 0.255652,0.4615901 0.07715,0.1577726 0.193841,0.238171 0.350065,0.2411214 0.104149,0.00199 0.195021,-0.034372 0.272543,-0.1089435 0.07767,-0.074719 0.117426,-0.1660337 0.119491,-0.2742397 8.85e-4,-0.048091 -0.0083,-0.098396 -0.02714,-0.1507654 C 13.735372,7.3016843 13.366572,6.8437085 12.85394,6.4933485"
     id="path20"
     inkscape:connector-curvature="0" />
  <path
     style="fill:#d2d2d2;fill-opacity:1"
     d="M 8.6426128,5.1262069 C 7.8618632,5.6201776 7.281077,6.2863042 6.9004016,7.1243653 c -0.020948,0.051632 -0.032012,0.103559 -0.032971,0.1555598 -0.00199,0.1041491 0.034446,0.1950215 0.1090173,0.2725432 0.074645,0.077669 0.164116,0.1174259 0.2682651,0.1194175 0.1442008,0.00273 0.2639133,-0.073096 0.3589899,-0.2276234 0.016449,-0.027808 0.038355,-0.072285 0.065646,-0.1338744 C 7.6964933,7.2487984 7.7184,7.2040998 7.7349222,7.1763661 7.8384813,6.9940314 7.9438843,6.8317594 8.0507626,6.6894763 8.424652,6.2038405 8.8866109,5.8278858 9.436713,5.5619072 c 0.5500283,-0.2659786 1.131478,-0.393067 1.74435,-0.3813392 0.612946,0.011728 1.189011,0.1609443 1.728492,0.4477232 0.539481,0.2867789 0.986835,0.6800672 1.341694,1.1797174 0.101347,0.1463399 0.200333,0.3125212 0.297253,0.4986176 0.01542,0.028398 0.03555,0.07376 0.06041,0.136456 0.02478,0.062622 0.04492,0.1079109 0.06048,0.1363085 0.0891,0.1579939 0.205864,0.2383923 0.349991,0.2411215 0.104149,0.00199 0.195022,-0.034372 0.272543,-0.1090911 0.0776,-0.074571 0.117426,-0.1640422 0.119418,-0.2681913 0.001,-0.052001 -0.008,-0.1042967 -0.02707,-0.1566663 C 15.035982,6.4344142 14.481086,5.7465285 13.719735,5.2230538 12.958458,4.699579 12.117078,4.4291749 11.195668,4.4116938 10.274405,4.3940651 9.4232149,4.6320886 8.6428341,5.1261331"
     id="path22"
     inkscape:connector-curvature="0" />
</svg>
