<?xml version="1.0" encoding="UTF-8" standalone="no"?>
<svg
   xmlns:dc="http://purl.org/dc/elements/1.1/"
   xmlns:cc="http://creativecommons.org/ns#"
   xmlns:rdf="http://www.w3.org/1999/02/22-rdf-syntax-ns#"
   xmlns:svg="http://www.w3.org/2000/svg"
   xmlns="http://www.w3.org/2000/svg"
   xmlns:sodipodi="http://sodipodi.sourceforge.net/DTD/sodipodi-0.dtd"
   xmlns:inkscape="http://www.inkscape.org/namespaces/inkscape"
   viewBox="0 0 22 22"
   id="svg2"
   version="1.1"
   inkscape:version="0.91 r13725"
   sodipodi:docname="microphone-sensitivity-low.svg">
  <metadata
     id="metadata26">
    <rdf:RDF>
      <cc:Work
         rdf:about="">
        <dc:format>image/svg+xml</dc:format>
        <dc:type
           rdf:resource="http://purl.org/dc/dcmitype/StillImage" />
        <dc:title></dc:title>
      </cc:Work>
    </rdf:RDF>
  </metadata>
  <sodipodi:namedview
     pagecolor="#ffffff"
     bordercolor="#666666"
     borderopacity="1"
     objecttolerance="10"
     gridtolerance="10"
     guidetolerance="10"
     inkscape:pageopacity="0"
     inkscape:pageshadow="2"
     inkscape:window-width="1366"
     inkscape:window-height="707"
     id="namedview24"
     showgrid="false"
     inkscape:zoom="21.454545"
     inkscape:cx="12.122152"
     inkscape:cy="9.0331013"
     inkscape:window-x="0"
     inkscape:window-y="26"
     inkscape:window-maximized="1"
     inkscape:current-layer="svg2" />
  <defs
     id="defs4">
    <clipPath
       id="clipPath6">
      <path
         d="m69.63 12.145h-.052c-22.727-.292-46.47 4.077-46.709 4.122-2.424.451-4.946 2.974-5.397 5.397-.044.237-4.414 23.983-4.122 46.71-.292 22.777 4.078 46.523 4.122 46.761.451 2.423 2.974 4.945 5.398 5.398.237.044 23.982 4.413 46.709 4.121 22.779.292 46.524-4.077 46.761-4.121 2.423-.452 4.946-2.976 5.398-5.399.044-.236 4.413-23.981 4.121-46.709.292-22.777-4.077-46.523-4.121-46.761-.453-2.423-2.976-4.946-5.398-5.397-.238-.045-23.984-4.414-46.71-4.122"
         id="path8" />
    </clipPath>
  </defs>
  <g
     style="fill:#4d4d4d"
     id="g12"
     transform="matrix(0.07909,0,0,0.07909,7.424,8.2)">
    <path
       inkscape:connector-curvature="0"
       id="path14"
       d="m 47,94.07 c 7.17,0 13.307,-2.553 18.412,-7.657 C 70.517,81.309 73.07,75.17 73.07,68 l 0,-41.714 C 73.07,19.116 70.519,12.979 65.412,7.873 60.307,2.768 54.17,0.214 47,0.214 c -7.17,0 -13.307,2.554 -18.413,7.659 -5.106,5.105 -7.659,11.243 -7.659,18.413 l 0,41.714 c 0,7.17 2.554,13.309 7.659,18.413 C 33.692,91.517 39.83,94.07 47,94.07" />
    <path
       inkscape:connector-curvature="0"
       id="path16"
       d="m 92.38,53.905 c -1.03,-1.032 -2.254,-1.548 -3.666,-1.548 -1.412,0 -2.634,0.516 -3.666,1.548 -1.032,1.032 -1.548,2.254 -1.548,3.666 L 83.5,68 C 83.5,78.05 79.928,86.643 72.786,93.786 65.645,100.929 57.049,104.5 47,104.5 36.95,104.5 28.356,100.929 21.213,93.786 14.071,86.645 10.5,78.049 10.5,68 l 0,-10.429 C 10.5,56.159 9.984,54.937 8.952,53.905 7.92,52.873 6.699,52.357 5.286,52.357 c -1.413,0 -2.635,0.516 -3.667,1.548 -1.032,1.032 -1.548,2.254 -1.548,3.666 l 0,10.429 c 0,12 4.01,22.446 12.02,31.33 8.01,8.88 17.91,13.972 29.697,15.275 l 0,10.756 -20.857,0 c -1.412,0 -2.634,0.516 -3.666,1.548 -1.032,1.032 -1.548,2.254 -1.548,3.666 0,1.411 0.516,2.635 1.548,3.666 1.032,1.032 2.254,1.549 3.666,1.549 l 52.14,0 c 1.412,0 2.636,-0.517 3.666,-1.549 1.033,-1.031 1.55,-2.255 1.55,-3.666 0,-1.412 -0.517,-2.634 -1.55,-3.666 -1.03,-1.032 -2.254,-1.548 -3.666,-1.548 l -20.855,0 0,-10.756 C 64.001,113.302 73.9,108.21 81.912,99.33 89.922,90.45 93.932,80.008 93.932,68 l 0,-10.429 c 0,-1.412 -0.517,-2.633 -1.55,-3.666" />
  </g>
  <g
     style="fill:#d2d2d2;fill-opacity:1"
     id="g18"
     transform="matrix(0.07376,0,0,0.07376,-15.516,5.14)">
    <path
       inkscape:connector-curvature="0"
       id="path20"
       d="m 384.63,18.343 c -6.943,-4.751 -14.57,-7.206 -22.879,-7.365 -8.309,-0.159 -16.02,2 -23.15,6.485 -7.12,4.482 -12.355,10.495 -15.705,18.04 -0.284,0.7 -0.434,1.404 -0.447,2.109 -0.027,1.412 0.466,2.644 1.478,3.697 1.012,1.051 2.224,1.59 3.636,1.617 2.119,0.041 3.741,-0.988 4.868,-3.086 1.633,-3.01 2.867,-5.05 3.702,-6.121 3.01,-3.963 6.749,-7.03 11.218,-9.197 4.469,-2.169 9.202,-3.206 14.198,-3.11 4.996,0.096 9.686,1.312 14.07,3.651 4.384,2.338 8,5.545 10.857,9.619 0.794,1.101 1.949,3.188 3.466,6.258 1.046,2.139 2.628,3.229 4.746,3.269 1.412,0.027 2.644,-0.466 3.695,-1.477 1.053,-1.013 1.592,-2.251 1.62,-3.718 0.012,-0.652 -0.112,-1.334 -0.368,-2.044 -3.06,-7.663 -8.06,-13.872 -15.01,-18.622"
       style="fill:#d2d2d2;fill-opacity:1" />
    <path
       inkscape:connector-curvature="0"
       id="path22"
       d="m 327.53,-0.187 c -10.585,6.697 -18.459,15.728 -23.62,27.09 -0.284,0.7 -0.434,1.404 -0.447,2.109 -0.027,1.412 0.467,2.644 1.478,3.695 1.012,1.053 2.225,1.592 3.637,1.619 1.955,0.037 3.578,-0.991 4.867,-3.086 0.223,-0.377 0.52,-0.98 0.89,-1.815 0.368,-0.835 0.665,-1.441 0.889,-1.817 1.404,-2.472 2.833,-4.672 4.282,-6.601 5.069,-6.584 11.332,-11.681 18.79,-15.287 7.457,-3.606 15.34,-5.329 23.649,-5.17 8.31,0.159 16.12,2.182 23.434,6.07 7.314,3.888 13.379,9.22 18.19,15.994 1.374,1.984 2.716,4.237 4.03,6.76 0.209,0.385 0.482,1 0.819,1.85 0.336,0.849 0.609,1.463 0.82,1.848 1.208,2.142 2.791,3.232 4.745,3.269 1.412,0.027 2.644,-0.466 3.695,-1.479 1.052,-1.011 1.592,-2.224 1.619,-3.636 0.014,-0.705 -0.109,-1.414 -0.367,-2.124 -4.722,-11.553 -12.245,-20.879 -22.567,-27.976 -10.321,-7.097 -21.728,-10.763 -34.22,-11 -12.49,-0.239 -24.03,2.988 -34.61,9.686"
       style="fill:#d2d2d2;fill-opacity:1" />
  </g>
</svg>
