<svg xmlns="http://www.w3.org/2000/svg" viewBox="0 0 22 22"><g transform="translate(-421.71-525.79)"><path d="m440.21 540.29l-2.25 2.25-.75-.75-.75.75.75.75.75.75 3-3-.75-.75" fill="#fff" fill-rule="evenodd"/><path d="m391.84 540.91c-.421-.329-.949-.524-1.523-.524-1.351 0-2.451 1.084-2.485 2.435-1.395.526-2.388 1.88-2.388 3.466 0 1.874 1.385 3.423 3.182 3.667v.034h12.73v-.006c1.775-.104 3.182-1.584 3.182-3.395 0-1.747-1.309-3.186-2.994-3.379.007-.106.011-.214.011-.322 0-2.707-2.271-4.901-5.072-4.901-2.073 0-3.856 1.202-4.643 2.925" transform="matrix(.94268 0 0 .94774 60.36 21.23)" fill="#4d4d4d"/><rect width="8" height="8" x="433.71" y="536.79" fill="#ffa85c" rx="4" stroke-width="1"/></g></svg>