<svg xmlns="http://www.w3.org/2000/svg" viewBox="0 0 22 22"><defs><clipPath><path d="m69.63 12.145h-.052c-22.727-.292-46.47 4.077-46.709 4.122-2.424.451-4.946 2.974-5.397 5.397-.044.237-4.414 23.983-4.122 46.71-.292 22.777 4.078 46.523 4.122 46.761.451 2.423 2.974 4.945 5.398 5.398.237.044 23.982 4.413 46.709 4.121 22.779.292 46.524-4.077 46.761-4.121 2.423-.452 4.946-2.976 5.398-5.399.044-.236 4.413-23.981 4.121-46.709.292-22.777-4.077-46.523-4.121-46.761-.453-2.423-2.976-4.946-5.398-5.397-.238-.045-23.984-4.414-46.71-4.122"/></clipPath><linearGradient y2="-2.623" x2="0" y1="986.67" gradientUnits="userSpaceOnUse"><stop stop-color="#ffce3b"/><stop offset="1" stop-color="#fef4ab"/></linearGradient><linearGradient gradientUnits="userSpaceOnUse" y2="-2.623" x2="0" y1="986.67" id="0"><stop stop-color="#ffce3b"/><stop offset="1" stop-color="#ffd762"/></linearGradient></defs><path d="m11.09 2.545c-.104 0-.21.031-.299.096-.847.617-3.423 2.304-6.578 2.6-.38.035-.671.349-.678.73-.038 2.489.363 10.94 7.365 12.82.124.033.255.033.379 0 7-1.879 7.402-10.331 7.365-12.82-.005-.381-.298-.696-.678-.73-3.156-.295-5.731-1.983-6.58-2.6-.089-.065-.192-.096-.297-.096m-1.98 5.277c.143 0 .264.051.363.15l1.572 1.572 1.572-1.572c.1-.1.223-.15.365-.15.143 0 .263.051.363.15l.727.729c.1.1.15.221.15.363 0 .143-.051.264-.15.363l-1.572 1.572 1.572 1.572c.1.1.15.221.15.363 0 .143-.051.264-.15.363l-.727.729c-.1.1-.221.148-.363.148-.143 0-.263-.049-.363-.148l-1.574-1.572-1.572 1.572c-.1.1-.221.148-.363.148-.143 0-.263-.049-.363-.148l-.727-.729c-.1-.1-.15-.221-.15-.363 0-.143.051-.263.15-.363l1.572-1.572-1.572-1.572c-.1-.1-.15-.221-.15-.363 0-.143.051-.264.15-.363l.727-.729c.1-.1.221-.15.363-.15" transform="matrix(.99986 0 0 .99986 0 .008)" stroke-width="9.512" fill="#cc5851" stroke="none" fill-opacity=".8"/></svg>