<?xml version="1.0" encoding="UTF-8" standalone="no"?>
<!-- Created with Inkscape (http://www.inkscape.org/) -->

<svg
   xmlns:osb="http://www.openswatchbook.org/uri/2009/osb"
   xmlns:dc="http://purl.org/dc/elements/1.1/"
   xmlns:cc="http://creativecommons.org/ns#"
   xmlns:rdf="http://www.w3.org/1999/02/22-rdf-syntax-ns#"
   xmlns:svg="http://www.w3.org/2000/svg"
   xmlns="http://www.w3.org/2000/svg"
   xmlns:xlink="http://www.w3.org/1999/xlink"
   xmlns:sodipodi="http://sodipodi.sourceforge.net/DTD/sodipodi-0.dtd"
   xmlns:inkscape="http://www.inkscape.org/namespaces/inkscape"
   width="64"
   height="64"
   id="svg5453"
   version="1.1"
   inkscape:version="0.91 r13725"
   sodipodi:docname="drive-removable-media.svg">
  <defs
     id="defs5455">
    <linearGradient
       id="linearGradient4207"
       osb:paint="gradient">
      <stop
         style="stop-color:#3498db;stop-opacity:1;"
         offset="0"
         id="stop3371" />
      <stop
         style="stop-color:#3498db;stop-opacity:0;"
         offset="1"
         id="stop3373" />
    </linearGradient>
    <linearGradient
       id="linearGradient3687">
      <stop
         id="stop3689"
         offset="0"
         style="stop-color:#1a1a1a;stop-opacity:1" />
      <stop
         style="stop-color:#2c2c2e;stop-opacity:1"
         offset="0.11054216"
         id="stop3691" />
      <stop
         style="stop-color:#2b2b2d;stop-opacity:1"
         offset="0.29001436"
         id="stop3693" />
      <stop
         style="stop-color:#2a2b2d;stop-opacity:1"
         offset="0.5118711"
         id="stop3695" />
      <stop
         style="stop-color:#2b2b2d;stop-opacity:1"
         offset="0.75173318"
         id="stop3699" />
      <stop
         id="stop3701"
         offset="0.89659214"
         style="stop-color:#323232;stop-opacity:1" />
      <stop
         id="stop3703"
         offset="1"
         style="stop-color:#171717;stop-opacity:1" />
    </linearGradient>
    <linearGradient
       id="linearGradient4143-0"
       inkscape:collect="always">
      <stop
         id="stop4145-9"
         offset="0"
         style="stop-color:#197cf1;stop-opacity:1" />
      <stop
         id="stop4147-0"
         offset="1"
         style="stop-color:#20bcfa;stop-opacity:1" />
    </linearGradient>
    <linearGradient
       inkscape:collect="always"
       id="linearGradient4957">
      <stop
         style="stop-color:#040404;stop-opacity:1"
         offset="0"
         id="stop4959" />
      <stop
         style="stop-color:#121212;stop-opacity:0.90816325"
         offset="1"
         id="stop4961" />
    </linearGradient>
    <linearGradient
       inkscape:collect="always"
       xlink:href="#linearGradient4992-7"
       id="linearGradient4998-8"
       x1="449.42804"
       y1="540.74573"
       x2="449.54932"
       y2="518.40662"
       gradientUnits="userSpaceOnUse" />
    <linearGradient
       inkscape:collect="always"
       id="linearGradient4992-7">
      <stop
         style="stop-color:#bec1c7;stop-opacity:1"
         offset="0"
         id="stop4994-0" />
      <stop
         style="stop-color:#dddfe2;stop-opacity:1"
         offset="1"
         id="stop4996-1" />
    </linearGradient>
    <linearGradient
       inkscape:collect="always"
       xlink:href="#linearGradient3687"
       id="linearGradient4242"
       gradientUnits="userSpaceOnUse"
       gradientTransform="matrix(0.24841536,0,0,0.24427878,433.38377,517.17091)"
       x1="10.09375"
       y1="107.36093"
       x2="122.719"
       y2="107.36093" />
    <linearGradient
       inkscape:collect="always"
       xlink:href="#linearGradient4143-0"
       id="linearGradient4244"
       gradientUnits="userSpaceOnUse"
       gradientTransform="matrix(0.50539571,0,0,1,229.14839,2.1665552)"
       x1="451.02078"
       y1="544.14978"
       x2="451.02078"
       y2="543.0885" />
    <linearGradient
       inkscape:collect="always"
       xlink:href="#linearGradient4957"
       id="linearGradient4246"
       gradientUnits="userSpaceOnUse"
       gradientTransform="translate(0,0.10639487)"
       x1="467.17453"
       y1="546.84698"
       x2="467.17453"
       y2="544.72443" />
  </defs>
  <sodipodi:namedview
     id="base"
     pagecolor="#ffffff"
     bordercolor="#666666"
     borderopacity="1.0"
     inkscape:pageopacity="0"
     inkscape:pageshadow="2"
     inkscape:zoom="3.2578125"
     inkscape:cx="-53.620594"
     inkscape:cy="38.106416"
     inkscape:document-units="px"
     inkscape:current-layer="layer1"
     showgrid="false"
     fit-margin-top="0"
     fit-margin-left="0"
     fit-margin-right="0"
     fit-margin-bottom="0"
     inkscape:window-width="1366"
     inkscape:window-height="646"
     inkscape:window-x="0"
     inkscape:window-y="27"
     inkscape:window-maximized="0"
     inkscape:showpageshadow="false"
     borderlayer="true"
     showguides="false">
    <inkscape:grid
       type="xygrid"
       id="grid4063"
       originx="8"
       originy="8"
       empspacing="2" />
    <sodipodi:guide
       position="64,64"
       orientation="0,-64"
       id="guide4200" />
    <sodipodi:guide
       position="6,58"
       orientation="52,0"
       id="guide4202" />
    <sodipodi:guide
       position="6,6"
       orientation="0,52"
       id="guide4204" />
    <sodipodi:guide
       position="58,6"
       orientation="-52,0"
       id="guide4206" />
  </sodipodi:namedview>
  <metadata
     id="metadata5458">
    <rdf:RDF>
      <cc:Work
         rdf:about="">
        <dc:format>image/svg+xml</dc:format>
        <dc:type
           rdf:resource="http://purl.org/dc/dcmitype/StillImage" />
        <dc:title></dc:title>
      </cc:Work>
    </rdf:RDF>
  </metadata>
  <g
     inkscape:label="Capa 1"
     inkscape:groupmode="layer"
     id="layer1"
     transform="translate(-376.57144,-491.79797)">
    <g
       transform="matrix(0.03864044,-0.03102609,0.03850751,0.0311332,389.78307,518.32887)"
       style="fill:#a1a7ae;fill-opacity:1;stroke:#909296;stroke-width:2.0422039;stroke-miterlimit:4;stroke-dasharray:none;stroke-opacity:1"
       id="g3462">
      <path
         inkscape:connector-curvature="0"
         style="fill:url(#linearGradient4242);fill-opacity:1;stroke:none"
         d="m 435.89128,541.07281 0.24841,3.91531 c 0,0.40601 0.33238,0.73288 0.74525,0.73288 l 25.99045,0 c 0.41287,0 0.74526,-0.32687 0.74526,-0.73288 l 0.24841,-3.91531 -27.97778,0 z"
         id="rect3001-8"
         sodipodi:nodetypes="ccccccc"
         transform="matrix(24.469326,24.385142,-30.26521,30.369685,5246.5277,-26793.469)" />
      <path
         inkscape:connector-curvature="0"
         style="fill:url(#linearGradient4998-8);fill-opacity:1;stroke:none"
         d="m 438.12877,518.12187 23.25963,0 c 0.41287,0 0.74526,0.32687 0.74526,0.73287 l 1.739,22.0998 c 0,0.406 -0.33237,0.73288 -0.74524,0.73288 l -26.48903,0 c -0.41287,0 -0.74524,-0.32688 -0.74524,-0.73288 l 1.49038,-22.09974 c 0,-0.406 0.33238,-0.73293 0.74524,-0.73293 z"
         id="path3778-0"
         sodipodi:nodetypes="ccccccccc"
         transform="matrix(24.469326,24.385142,-30.26521,30.369685,5246.5277,-26793.469)" />
      <rect
         style="opacity:1;fill:url(#linearGradient4244);fill-opacity:1;stroke:none;stroke-width:0.2;stroke-linecap:round;stroke-linejoin:round;stroke-miterlimit:4;stroke-dasharray:none;stroke-opacity:1"
         id="rect4727-6"
         width="11.463281"
         height="0.76887441"
         x="450.87326"
         y="545.61273"
         ry="0.3844372"
         transform="matrix(24.469326,24.385142,-30.26521,30.369685,5147.0474,-27020.537)" />
      <ellipse
         ry="1.0612739"
         rx="1.06128"
         cy="546.02448"
         cx="467.08929"
         id="path4955-9"
         style="opacity:0.45199998;fill:url(#linearGradient4246);fill-opacity:1;stroke:none;stroke-width:1.70000005;stroke-linecap:round;stroke-linejoin:round;stroke-miterlimit:4;stroke-dasharray:none;stroke-opacity:1"
         transform="matrix(24.469326,24.385142,-30.26521,30.369685,5147.0474,-27020.537)" />
      <path
         d="m 63,73.215 c 2.824,0 5.27,-1.031 7.332,-3.096 2.064,-2.063 3.098,-4.508 3.098,-7.332 l 0,-52.144 C 73.43,7.818 72.397,5.374 70.332,3.311 68.27,1.246 65.825,0.214 63,0.214 c -2.825,0 -5.269,1.033 -7.333,3.097 -2.064,2.063 -3.096,4.508 -3.096,7.332 l 0,52.144 c 0,2.824 1.032,5.269 3.096,7.332 2.064,2.065 4.509,3.096 7.333,3.096 l 0,0 z"
         id="path955-2"
         inkscape:connector-curvature="0"
         style="opacity:0.66799999;fill:#e3e8ea;fill-opacity:1"
         transform="matrix(0.2075148,0.20680086,-0.25666742,0.25755343,55.689598,920.98858)" />
      <path
         d="M 119.014,45.269 C 114.641,36.525 108.491,29.192 100.561,23.272 98.28,21.534 95.7,20.855 92.821,21.235 c -2.879,0.38 -5.16,1.738 -6.844,4.073 -1.738,2.281 -2.403,4.847 -1.996,7.699 0.406,2.853 1.752,5.147 4.033,6.885 5.321,4.019 9.438,8.935 12.342,14.747 2.906,5.811 4.358,12.004 4.358,18.575 0,5.65 -1.1,11.04 -3.299,16.173 -2.2,5.133 -5.174,9.573 -8.922,13.321 -3.748,3.747 -8.187,6.721 -13.32,8.921 -5.133,2.2 -10.524,3.301 -16.173,3.301 -5.648,0 -11.039,-1.101 -16.172,-3.301 -5.133,-2.2 -9.573,-5.174 -13.321,-8.921 -3.747,-3.748 -6.721,-8.188 -8.921,-13.321 -2.2,-5.133 -3.3,-10.523 -3.3,-16.173 0,-6.571 1.453,-12.763 4.359,-18.575 2.906,-5.811 7.02,-10.727 12.343,-14.747 2.281,-1.739 3.625,-4.033 4.033,-6.885 0.407,-2.851 -0.258,-5.418 -1.996,-7.699 -1.684,-2.335 -3.951,-3.693 -6.803,-4.073 -2.852,-0.38 -5.446,0.299 -7.781,2.037 -7.931,5.92 -14.081,13.253 -18.454,21.997 -4.373,8.745 -6.559,18.06 -6.559,27.945 0,8.474 1.657,16.566 4.97,24.279 3.314,7.713 7.767,14.366 13.362,19.961 5.594,5.594 12.248,10.049 19.961,13.36 7.713,3.314 15.806,4.972 24.279,4.972 8.473,0 16.566,-1.658 24.279,-4.972 7.713,-3.312 14.367,-7.766 19.961,-13.36 5.594,-5.594 10.047,-12.248 13.361,-19.961 3.313,-7.713 4.969,-15.806 4.969,-24.279 0,-9.885 -2.183,-19.2 -6.556,-27.945 l 0,0 z"
         id="path957-2"
         inkscape:connector-curvature="0"
         style="opacity:0.66799999;fill:#e3e8ea;fill-opacity:1"
         transform="matrix(0.2075148,0.20680086,-0.25666742,0.25755343,55.689598,920.98858)" />
      <path
         id="path4744"
         d="M 481.095,209.443 433.14,161.464 c -1.832,-1.823 -4.301,-2.852 -6.881,-2.852 -2.582,0 -5.051,1.02 -6.883,2.844 l -47.971,47.986 c -3.809,3.791 -3.809,9.956 0,13.749 l 6.691,6.683 -36.563,36.548 -84.964,-16.617 139.673,-139.672 17.684,17.684 c 1.897,1.897 4.65,2.669 7.248,2.031 2.614,-0.638 4.7,-2.581 5.514,-5.139 L 459.221,22.19 c 0.859,-2.732 0.127,-5.727 -1.898,-7.759 -2.039,-2.023 -5.018,-2.757 -7.757,-1.888 l -102.52,32.525 c -2.55,0.813 -4.509,2.9 -5.146,5.504 -0.638,2.614 0.143,5.361 2.039,7.257 l 17.699,17.701 -193.456,193.449 -17.923,-91.67 29.027,-29.027 c 14.099,2.868 29.314,-1.141 40.244,-12.069 17.35,-17.334 17.35,-45.444 -0.017,-62.794 -17.317,-17.334 -45.422,-17.31 -62.771,0.024 -10.945,10.929 -14.943,26.151 -12.075,40.251 l -38.221,38.219 c -5.768,5.761 -8.284,14.004 -6.707,22.003 l 26.75,136.765 -59.664,59.655 c -17.699,-5.313 -37.631,-1.202 -51.618,12.785 -20.265,20.282 -20.282,53.14 -0.017,73.422 20.297,20.296 53.164,20.296 73.444,0.016 13.989,-13.98 18.082,-33.895 12.777,-51.603 l 113.448,-113.44 130.066,25.441 c 1.562,0.304 3.139,0.455 4.7,0.455 6.42,0 12.667,-2.533 17.301,-7.17 l 45.756,-45.756 6.692,6.692 c 1.832,1.823 4.301,2.843 6.883,2.843 2.58,0 5.049,-1.027 6.881,-2.852 l 47.955,-47.978 c 3.809,-3.799 3.809,-9.949 0.002,-13.748 z"
         inkscape:connector-curvature="0"
         style="fill:#a1a7ae;fill-opacity:1;stroke:#909296;stroke-width:2.0422039;stroke-miterlimit:4;stroke-dasharray:none;stroke-opacity:1" />
    </g>
  </g>
</svg>
