<?xml version="1.0" encoding="UTF-8" standalone="no"?>
<!-- Created with Inkscape (http://www.inkscape.org/) -->

<svg
   xmlns:osb="http://www.openswatchbook.org/uri/2009/osb"
   xmlns:dc="http://purl.org/dc/elements/1.1/"
   xmlns:cc="http://creativecommons.org/ns#"
   xmlns:rdf="http://www.w3.org/1999/02/22-rdf-syntax-ns#"
   xmlns:svg="http://www.w3.org/2000/svg"
   xmlns="http://www.w3.org/2000/svg"
   xmlns:xlink="http://www.w3.org/1999/xlink"
   xmlns:sodipodi="http://sodipodi.sourceforge.net/DTD/sodipodi-0.dtd"
   xmlns:inkscape="http://www.inkscape.org/namespaces/inkscape"
   width="64"
   height="64"
   id="svg5453"
   version="1.1"
   inkscape:version="0.91 r13725"
   sodipodi:docname="input-gaming.svg">
  <defs
     id="defs5455">
    <linearGradient
       inkscape:collect="always"
       xlink:href="#linearGradient4408"
       id="linearGradient4278"
       x1="469.57144"
       y1="555.79797"
       x2="469.57144"
       y2="502.798"
       gradientUnits="userSpaceOnUse" />
    <linearGradient
       inkscape:collect="always"
       xlink:href="#linearGradient4303-1"
       id="linearGradient4295"
       x1="504.57144"
       y1="549.79797"
       x2="504.57144"
       y2="537.79797"
       gradientUnits="userSpaceOnUse"
       gradientTransform="translate(-37.749998,-4.4999997)" />
    <linearGradient
       inkscape:collect="always"
       xlink:href="#linearGradient5322"
       id="linearGradient4295-9"
       x1="504.57144"
       y1="549.79797"
       x2="504.57144"
       y2="537.79797"
       gradientUnits="userSpaceOnUse"
       gradientTransform="translate(-37.5,-15.999999)" />
    <linearGradient
       inkscape:collect="always"
       xlink:href="#linearGradient4350"
       id="linearGradient4295-3"
       x1="504.57144"
       y1="549.79797"
       x2="504.57144"
       y2="537.79797"
       gradientUnits="userSpaceOnUse"
       gradientTransform="matrix(1.8249999,0,0,1.8249999,-439.60266,-472.3333)" />
    <linearGradient
       inkscape:collect="always"
       xlink:href="#linearGradient4303-1"
       id="linearGradient4295-0"
       x1="504.57144"
       y1="549.79797"
       x2="504.57144"
       y2="537.79797"
       gradientUnits="userSpaceOnUse"
       gradientTransform="matrix(1.75,0,0,1.75,-432.11605,-431.34845)" />
    <linearGradient
       osb:paint="gradient"
       id="linearGradient4207">
      <stop
         id="stop3371"
         offset="0"
         style="stop-color:#3498db;stop-opacity:1;" />
      <stop
         id="stop3373"
         offset="1"
         style="stop-color:#3498db;stop-opacity:0;" />
    </linearGradient>
    <linearGradient
       inkscape:collect="always"
       id="linearGradient4350">
      <stop
         style="stop-color:#f0a23a;stop-opacity:1"
         offset="0"
         id="stop4352" />
      <stop
         style="stop-color:#fde46a;stop-opacity:1"
         offset="1"
         id="stop4354" />
    </linearGradient>
    <linearGradient
       inkscape:collect="always"
       id="linearGradient4408">
      <stop
         style="stop-color:#4e4e4f;stop-opacity:1"
         offset="0"
         id="stop4410" />
      <stop
         id="stop4414"
         offset="0.49668527"
         style="stop-color:#3f3f40;stop-opacity:1" />
      <stop
         style="stop-color:#5a5a5c;stop-opacity:1"
         offset="1"
         id="stop4412" />
    </linearGradient>
    <linearGradient
       id="linearGradient5322">
      <stop
         id="stop5324"
         style="stop-color:#0088ff;stop-opacity:1"
         offset="0" />
      <stop
         id="stop5326"
         style="stop-color:#02c3ff;stop-opacity:1"
         offset="1" />
    </linearGradient>
    <linearGradient
       inkscape:collect="always"
       id="linearGradient4303-1">
      <stop
         style="stop-color:#bfc1c1;stop-opacity:1"
         offset="0"
         id="stop4305-2" />
      <stop
         style="stop-color:#f1f2f3;stop-opacity:1"
         offset="1"
         id="stop4307-2" />
    </linearGradient>
  </defs>
  <sodipodi:namedview
     id="base"
     pagecolor="#ffffff"
     bordercolor="#666666"
     borderopacity="1.0"
     inkscape:pageopacity="0"
     inkscape:pageshadow="2"
     inkscape:zoom="4.0000003"
     inkscape:cx="-1.1177568"
     inkscape:cy="23.224321"
     inkscape:document-units="px"
     inkscape:current-layer="g4343"
     showgrid="false"
     fit-margin-top="0"
     fit-margin-left="0"
     fit-margin-right="0"
     fit-margin-bottom="0"
     inkscape:window-width="1366"
     inkscape:window-height="630"
     inkscape:window-x="0"
     inkscape:window-y="36"
     inkscape:window-maximized="1"
     inkscape:showpageshadow="false"
     borderlayer="true"
     showguides="false">
    <inkscape:grid
       type="xygrid"
       id="grid4063"
       originx="7.9999866px"
       originy="7.9999772px" />
    <sodipodi:guide
       position="0,0"
       orientation="0,64"
       id="guide4196" />
    <sodipodi:guide
       position="107.99999,17.999977"
       orientation="-64,0"
       id="guide4198" />
    <sodipodi:guide
       position="64,64"
       orientation="0,-64"
       id="guide4200" />
    <sodipodi:guide
       position="6,58"
       orientation="52,0"
       id="guide4202" />
    <sodipodi:guide
       position="157.99999,7.9999772"
       orientation="0,52"
       id="guide4204" />
    <sodipodi:guide
       position="58,6"
       orientation="-52,0"
       id="guide4206" />
    <sodipodi:guide
       position="58,58"
       orientation="0,-52"
       id="guide4208" />
  </sodipodi:namedview>
  <metadata
     id="metadata5458">
    <rdf:RDF>
      <cc:Work
         rdf:about="">
        <dc:format>image/svg+xml</dc:format>
        <dc:type
           rdf:resource="http://purl.org/dc/dcmitype/StillImage" />
        <dc:title />
      </cc:Work>
    </rdf:RDF>
  </metadata>
  <g
     inkscape:label="Capa 1"
     inkscape:groupmode="layer"
     id="layer1"
     transform="translate(-376.57144,-491.79797)">
    <g
       id="g4343"
       transform="translate(-58.613753,-4.629)">
      <circle
         r="5"
         cy="540.29797"
         cx="467.07144"
         id="path4287"
         style="opacity:1;fill:url(#linearGradient4295);fill-opacity:1.0;fill-rule:evenodd;stroke:none;stroke-width:3;stroke-linecap:round;stroke-linejoin:miter;stroke-miterlimit:4;stroke-dasharray:none;stroke-dashoffset:0;stroke-opacity:1" />
      <circle
         r="5"
         cy="528.79797"
         cx="467.32144"
         id="path4287-2"
         style="opacity:1;fill:url(#linearGradient4295-9);fill-opacity:1.0;fill-rule:evenodd;stroke:none;stroke-width:3;stroke-linecap:round;stroke-linejoin:miter;stroke-miterlimit:4;stroke-dasharray:none;stroke-dashoffset:0;stroke-opacity:1" />
      <circle
         r="9.125"
         cy="521.92297"
         cx="481.69644"
         id="path4287-8"
         style="opacity:1;fill:url(#linearGradient4295-3);fill-opacity:1.0;fill-rule:evenodd;stroke:none;stroke-width:3;stroke-linecap:round;stroke-linejoin:miter;stroke-miterlimit:4;stroke-dasharray:none;stroke-dashoffset:0;stroke-opacity:1" />
      <circle
         r="8.75"
         cy="522.04797"
         cx="451.32144"
         id="path4287-3"
         style="opacity:1;fill:url(#linearGradient4295-0);fill-opacity:1.0;fill-rule:evenodd;stroke:none;stroke-width:3;stroke-linecap:round;stroke-linejoin:miter;stroke-miterlimit:4;stroke-dasharray:none;stroke-dashoffset:0;stroke-opacity:1" />
      <path
         style="fill:url(#linearGradient4278);fill-opacity:1.0"
         inkscape:connector-curvature="0"
         id="path3"
         d="m 493.63423,518.79364 c -1.8491,-7.73513 -5.19775,-9.77128 -8.89746,-9.43115 l -6.06622,0 c -0.0506,-6.25711 -5.17413,-6.93552 -11.48615,-6.93552 -6.31586,0 -11.43578,0.67841 -11.48638,6.93552 0,0 -5.82497,0 -7.84646,0 -3.00502,0 -5.57033,2.96151 -7.11536,9.43115 -2.09327,8.7417 -1.47989,21.43937 2.78063,22.4607 2.63045,0.62874 6.03354,-3.34783 8.74553,-8.5365 l 7.00148,2.61068 c 2.06232,10.05338 4.84842,19.09845 7.92056,19.09845 3.08458,0 5.88324,-9.13266 7.94755,-19.24315 l 6.91458,-2.57811 c 2.7227,5.24462 6.15835,9.28272 8.80695,8.64863 4.26051,-1.02133 4.87401,-13.719 2.78075,-22.4607 z M 482.96747,515.492 c 1.15069,0 2.08047,0.93164 2.08047,2.0814 0,1.14975 -0.92978,2.0814 -2.08047,2.0814 -1.15069,0 -2.0807,-0.93165 -2.0807,-2.0814 0,-1.14976 0.93001,-2.0814 2.0807,-2.0814 z m -12.2753,13.37224 c 0,1.84095 -1.49268,3.33247 -3.33422,3.33247 -1.84002,0 -3.33247,-1.49152 -3.33247,-3.33247 0,-1.84073 1.49245,-3.33341 3.33247,-3.33341 1.84166,1.2e-4 3.33422,1.49268 3.33422,3.33341 z m -12.9373,-5.63373 c 0,0.45494 -0.3691,0.82311 -0.82311,0.82311 l -2.8495,0 0,2.84856 c 0,0.45495 -0.36909,0.82323 -0.82334,0.82323 l -2.73166,0 c -0.45413,0 -0.82311,-0.36828 -0.82311,-0.82323 l 0,-2.84856 -1.85259,0 -0.99691,0 c -0.45401,0 -0.82311,-0.36817 -0.82311,-0.82311 l 0,-2.73178 c 0,-0.45494 0.36898,-0.82311 0.82311,-0.82311 l 0.99691,0 1.85259,0 0,-2.84949 c 0,-0.45495 0.3691,-0.82324 0.82311,-0.82324 l 2.73177,0 c 0.45425,0 0.82335,0.36829 0.82335,0.82324 l 0,2.84949 2.84949,0 c 0.45402,0 0.82312,0.36817 0.82312,0.82311 l 0,2.73178 z m 12.47421,16.74926 c 0,1.58493 -1.28457,2.86927 -2.87113,2.86927 -1.58492,0 -2.86926,-1.28434 -2.86926,-2.86927 0,-0.93257 0.45215,-1.75313 1.14149,-2.27775 0.48112,-0.36631 1.07636,-0.59245 1.72777,-0.59245 0.54278,0 1.04577,0.15914 1.47814,0.42075 0.83219,0.50276 1.39299,1.4073 1.39299,2.44945 z m 8.44705,-16.03375 c -1.15069,0 -2.08059,-0.93258 -2.08059,-2.08233 0,-1.14789 0.93002,-2.08047 2.08059,-2.08047 1.15057,0 2.08047,0.93258 2.08047,2.08047 -1.2e-4,1.14975 -0.9299,2.08233 -2.08047,2.08233 z m 2.21064,2.20994 c 0,-1.14975 0.93001,-2.0814 2.0807,-2.0814 1.15069,0 2.08047,0.93165 2.08047,2.0814 0,1.14975 -0.92978,2.0814 -2.08047,2.0814 -1.15069,0 -2.0807,-0.93165 -2.0807,-2.0814 z m 6.37192,-2.20994 c -0.41423,0 -0.77623,-0.15099 -1.10008,-0.35909 -0.57709,-0.36992 -0.98062,-0.9869 -0.98062,-1.72324 0,-0.73552 0.40353,-1.35146 0.98062,-1.72138 0.32385,-0.20798 0.68585,-0.35897 1.10008,-0.35897 1.15069,0 2.08047,0.93257 2.08047,2.08047 0,1.14963 -0.92978,2.08221 -2.08047,2.08221 z" />
    </g>
  </g>
</svg>
