<svg height="48" width="48" xmlns="http://www.w3.org/2000/svg" xmlns:xlink="http://www.w3.org/1999/xlink">
  <linearGradient id="a" gradientUnits="userSpaceOnUse" spreadMethod="pad" x1="409.51599" x2="409.51599" y1="547.28601" y2="500.51901">
    <stop offset="0" stop-opacity="0" />
    <stop offset="1" stop-opacity=".182222" />
  </linearGradient>
  <linearGradient id="b" gradientUnits="userSpaceOnUse" x1="434.28864" x2="434.28864" y1="448.30441" y2="399.50464">
    <stop offset="0" stop-color="#ccc" />
    <stop offset="1" stop-color="#fff" />
  </linearGradient>
  <linearGradient id="c" gradientUnits="userSpaceOnUse" x1="24.95976875784" x2="24.95976875784" xlink:href="#b" y1="48.07097434695" y2="-.95313495945" />
  <linearGradient id="d">
    <stop offset="0" stop-color="#197cf1" />
    <stop offset="1" stop-color="#21c9fb" />
  </linearGradient>
  <linearGradient id="e" gradientUnits="userSpaceOnUse" x1="11.96033346443" x2="11.91145094562" xlink:href="#b" y1="16.14490584096" y2="9.77879694924" />
  <linearGradient id="f" gradientUnits="userSpaceOnUse" x1="11.96033346443" x2="11.91145094562" xlink:href="#b" y1="39.96305184096" y2="33.59694294924" />
  <linearGradient id="g" gradientUnits="userSpaceOnUse" x1="36.03966246443" x2="35.99077994562" xlink:href="#b" y1="39.96305284096" y2="33.59694394924" />
  <linearGradient id="h" gradientUnits="userSpaceOnUse" x1="36.03966446443" x2="35.99078194562" xlink:href="#b" y1="16.14490684096" y2="9.77879794924" />
  <linearGradient id="i" gradientUnits="userSpaceOnUse" x1="24" x2="24" xlink:href="#d" y1="45" y2="3" />
  <linearGradient id="j" gradientUnits="userSpaceOnUse" x1="35.37956482854" x2="23.30974885373" xlink:href="#a" y1="34.12767644737" y2="22.05786095633" />
  <linearGradient id="k" gradientUnits="userSpaceOnUse" x1="23.93658793616" x2="23.93658793616" xlink:href="#d" y1="38.00063876112" y2="9.94178705531" />
  <linearGradient id="l" gradientUnits="userSpaceOnUse" x1="17.208984" x2="12.628323" xlink:href="#a" y1="40.748047" y2="36.030888" />
  <linearGradient id="m" gradientUnits="userSpaceOnUse" x1="41.287668" x2="36.707007" xlink:href="#a" y1="40.748909" y2="36.03175" />
  <linearGradient id="n" gradientUnits="userSpaceOnUse" x1="17.208338" x2="12.627677" xlink:href="#a" y1="16.930726" y2="12.213567" />
  <linearGradient id="o" gradientUnits="userSpaceOnUse" x1="41.287668" x2="36.707007" xlink:href="#a" y1="16.930726" y2="12.213567" />
  <linearGradient id="p" gradientUnits="userSpaceOnUse" x1="23.93658793616" x2="23.93658793616" xlink:href="#b" y1="38.00063876112" y2="9.94178705531" />
  <path d="m32.383983 23.999996a8.4111509 8.4111509 0 0 1 -8.411151 8.411151 8.4111509 8.4111509 0 0 1 -8.411151-8.411151 8.4111509 8.4111509 0 0 1 8.411151-8.411151 8.4111509 8.4111509 0 0 1 8.411151 8.411151z" fill="url(#k)" />
  <circle cx="24" cy="24" fill="url(#c)" r="23" />
  <circle cx="24" cy="24" fill="url(#i)" r="21" />
  <path d="m23.972656 15.589844a8.4111509 8.4111509 0 0 0 -8.410156 8.410156 8.4111509 8.4111509 0 0 0 2.464844 5.943359l-.003906.003907 13.613281 13.613281a21 21 0 0 0 11.892578-11.896485l-13.523438-13.523437-.085937-.087891-.003906.001954a8.4111509 8.4111509 0 0 0 -5.94336-2.464844z" fill="url(#j)" />
  <path d="m36.039062 34.09375a1.8144978 1.8144978 0 0 0 -1.814453 1.816406 1.8144978 1.8144978 0 0 0 .65625 1.394532l2.691407 2.691406a21 21 0 0 0 2.560546-2.558594l-2.791015-2.791016-.033203-.033203h-.001953a1.8144978 1.8144978 0 0 0 -1.267579-.519531z" fill="url(#m)" />
  <path d="m36.039062 10.277344a1.8144978 1.8144978 0 0 0 -1.814453 1.816406 1.8144978 1.8144978 0 0 0 .65625 1.394531l6.623047 6.623047a21 21 0 0 0 2.837891.720703 1.8144978 1.8144978 0 0 0 .361328-.33789 21 21 0 0 0 -.796875-3.09961l-6.564453-6.564453-.033203-.033203h-.001953a1.8144978 1.8144978 0 0 0 -1.267579-.519531z" fill="url(#o)" />
  <circle cx="23.972832" cy="23.999996" fill="url(#p)" r="8.411151" />
  <path d="m23.972656 20.439453c-4.771263 0-9.088999.352968-12.238281.931641-1.574541.289319-2.8559419.631815-3.7753906 1.03125-.4595735.199652-.8322921.411548-1.1113282.662109-.2800663.251487-.4804687.570121-.4804687.935547.0000002.365425.2004024.68406.4804687.935547.279036.250561.6517547.462457 1.1113282.662109.9194487.399435 2.2008496.741932 3.7753906 1.03125 1.288513.236761 2.810394.421587 4.439453.574219l.021484-.029297a8.4111509 8.4111509 0 0 1 -.28125-.798828c-1.477757-.1457-2.866269-.318423-4.035156-.533203-1.538985-.282786-2.7798616-.621546-3.6015622-.978516-.4106065-.178379-.7142261-.365238-.8925782-.52539-.179752-.161409-.21875-.266382-.21875-.337891 0-.07151.038998-.176482.21875-.337891.1783521-.160152.4819717-.347011.8925782-.52539.8217006-.35697 2.0625772-.69573 3.6015622-.978516 3.078141-.5656 7.362204-.919921 12.09375-.919922 4.731547 0 9.015611.354322 12.09375.919922 1.538986.282786 2.779861.621546 3.601563.978516.410684.178413.716371.365411.894531.52539.179561.161236.216797.265393.216797.337891 0 .0725-.03724.176655-.216797.337891-.17816.159979-.483847.346977-.894531.52539-.821702.35697-2.062577.69573-3.601563.978516-1.167312.214491-2.553913.385624-4.029297.53125a8.4111509 8.4111509 0 0 1 -.28125.802734l.021485.027344c1.62791-.152586 3.148085-.337652 4.435547-.574219 1.57455-.289321 2.854025-.631831 3.773437-1.03125.459574-.199652.832293-.411548 1.111328-.662109.280058-.251482.480469-.570121.480469-.935547s-.200403-.68406-.480469-.935547c-.279035-.250561-.651754-.462457-1.111328-.662109-.919412-.399419-2.198887-.74193-3.773437-1.03125-3.149288-.578674-7.468971-.931641-12.240235-.931641z" fill="#324856" />
  <path d="m11.960938 34.09375a1.8144978 1.8144978 0 0 0 -1.814454 1.816406 1.8144978 1.8144978 0 0 0 .65625 1.394532l6.623047 6.623046a21 21 0 0 0 2.837891.720704 1.8144978 1.8144978 0 0 0 .769531-1.482422 1.8144978 1.8144978 0 0 0 -.417969-1.154297l.007813-.00586-7.359375-7.359375-.033203-.033203h-.001953a1.8144978 1.8144978 0 0 0 -1.267578-.519531z" fill="url(#l)" />
  <path d="m11.960938 10.277344a1.8144978 1.8144978 0 0 0 -1.814454 1.816406 1.8144978 1.8144978 0 0 0 .65625 1.394531l6.050782 6.050781a8.4111509 8.4111509 0 0 1 2.53125-2.58789l-6.121094-6.121094-.033203-.033203h-.001953a1.8144978 1.8144978 0 0 0 -1.267578-.519531z" fill="url(#n)" />
  <path d="m35.419922 11.230469c-.374456.02013-.787749.130654-1.253906.314453-.932644.367726-2.078581 1.032645-3.396485 1.941406-1.07941.744306-2.289428 1.688957-3.550781 2.734375l.005859.035156a8.4111509 8.4111509 0 0 1 .765625.369141c1.148869-.94274 2.253303-1.803363 3.232422-2.478516 1.288176-.88826 2.404817-1.524893 3.238282-1.853515.416527-.16423.764737-.250813 1.003906-.263672.240941-.01296.338892.036161.390625.087891.05174.051728.100845.149683.08789.390624-.01286.23917-.09944.587378-.263671 1.003907-.328624.833465-.965255 1.950104-1.853516 3.238281-1.776645 2.576529-4.554691 5.857426-7.900391 9.203125-3.345699 3.345699-6.626596 6.123747-9.203125 7.900391-1.288177.888261-2.404815 1.524893-3.238281 1.853515-.416602.164259-.762806.250814-1.001953.263672-.241285.01297-.344281-.035687-.394531-.085937s-.098908-.153245-.085938-.394532c.01286-.239147.09942-.585351.263672-1.001953.328623-.833466.965254-1.950103 1.853516-3.238281.674773-.978572 1.534634-2.082414 2.476562-3.230469a8.4111509 8.4111509 0 0 1 -.365234-.757812l-.044922-.00586c-1.041777 1.257492-1.984147 2.462395-2.726563 3.539063-.908808 1.317974-1.571774 2.465914-1.939453 3.398437-.183731.465988-.296259.879183-.316406 1.253907-.02021.37594.061898.743547.320313 1.001953.258403.258406.626012.340526 1.001953.320312.374722-.02015.787918-.132674 1.253906-.316406.932524-.367678 2.080463-1.030644 3.398437-1.939453 2.636075-1.817702 5.938714-4.622307 9.3125-7.996094 3.373788-3.373787 6.178391-6.676426 7.996094-9.3125.908781-1.317933 1.573694-2.465828 1.941406-3.398437.183799-.466159.29432-.879451.314454-1.253907.020209-.37594-.0619-.743548-.320313-1.001953-.258406-.258406-.626013-.340525-1.001953-.320312z" fill="#324856" />
  <path d="m12.525391 11.230469c-.375941-.02021-.74355.0619-1.001953.320312-.258405.258405-.340527.626013-.320313 1.001953.02013.374456.130655.787748.314453 1.253907.367713.932609 1.032627 2.080504 1.941406 3.398437 1.817703 2.636074 4.622308 5.938713 7.996094 9.3125 3.373787 3.373787 6.676428 6.178392 9.3125 7.996094 1.317934.90878 2.465828 1.573693 3.398438 1.941406.466157.183798.879449.294321 1.253906.314453.375939.02021.743547-.0619 1.001953-.320312.258406-.258405.340525-.626013.320313-1.001953-.020134-.374456-.130655-.787748-.314454-1.253907-.367712-.932609-1.032625-2.080504-1.941406-3.398437-.744557-1.079774-1.690827-2.289328-2.736328-3.550781l-.019531.003906a8.4111509 8.4111509 0 0 1 -.373047.777344c.939092 1.145357 1.795607 2.248402 2.46875 3.224609.888311 1.288249 1.526899 2.402993 1.855469 3.236328.164231.416528.250813.764737.263671 1.003906.01293.240517-.038613.343293-.089843.394532-.05124.05124-.149297.098907-.390625.085937-.23917-.01286-.587379-.09944-1.003906-.263672-.833465-.328622-1.950106-.965253-3.238282-1.853515-2.57653-1.776644-5.857424-4.554692-9.203125-7.900391-3.345699-3.345699-6.123746-6.626596-7.90039-9.203125-.888262-1.288178-1.524894-2.404815-1.853516-3.238281-.164258-.416601-.250814-.762806-.263672-1.001953-.01298-.241305.035198-.341836.085938-.392578.05025-.050252.155602-.100843.396484-.087891.239534.01288.585538.09753 1.001953.261719.833335.328571 1.948079.967157 3.236328 1.855468.977086.67375 2.080045 1.532498 3.226563 2.472657a8.4111509 8.4111509 0 0 1 .771484-.371094l.003906-.029297c-1.259868-1.044011-2.468344-1.988722-3.546875-2.732422-1.317933-.90878-2.465827-1.573692-3.398437-1.941406-.466157-.183799-.879451-.29432-1.253906-.314453z" fill="#324856" />
  <ellipse cx="13.591211" cy="12.494149" fill="#043f64" rx=".01477" ry=".042877" />
  <circle cx="36.039665" cy="12.090927" fill="url(#h)" r="1.814498" />
  <circle cx="11.960335" cy="12.090927" fill="url(#e)" r="1.814498" />
  <circle cx="11.960335" cy="35.909073" fill="url(#f)" r="1.814498" />
  <circle cx="36.039665" cy="35.909073" fill="url(#g)" r="1.814498" />
</svg>
