<svg viewBox="0 0 48 48" xmlns="http://www.w3.org/2000/svg" xmlns:xlink="http://www.w3.org/1999/xlink"><linearGradient id="a" gradientUnits="userSpaceOnUse" x1="399.57144" x2="399.57144" y1="545.79797" y2="517.79797"><stop offset="0" stop-color="#3889e9"/><stop offset="1" stop-color="#5ea5fb"/></linearGradient><linearGradient id="b" gradientUnits="userSpaceOnUse" x1="399.9939" x2="399.9939" y1="545.13873" y2="518.13873"><stop offset="0" stop-color="#2a2c2f"/><stop offset="1" stop-color="#424649"/></linearGradient><linearGradient gradientUnits="userSpaceOnUse" x1="0" x2="47" y1="23.5" y2="23.5"><stop offset="0" stop-color="#a9a3d4"/><stop offset=".47001833" stop-color="#87baff"/><stop offset="1" stop-color="#89ec85"/></linearGradient><linearGradient id="c" gradientUnits="userSpaceOnUse" x1="516.322811983602" x2="516.322811983602" y1="540.995868817013" y2="500.995827617013"><stop offset="0" stop-color="#e1e1e1"/><stop offset="1" stop-color="#ebebeb"/></linearGradient><g enable-background="new" transform="matrix(1.642857099163 0 0 1.642857099163 -113.737135089568 12.31036459889)"><g enable-background="new" stroke-width="1.3" transform="matrix(.956522549224 0 0 .956522549224 -299.315593526187 -501.561290913166)"><circle cx="400.57138" cy="531.79791" fill="url(#b)" r="13.999958"/><circle cx="400.57144" cy="531.79797" fill="none" r="13.999958"/><circle cx="400.57138" cy="531.79791" fill="url(#a)" r="0"/></g><rect fill="url(#c)" height="40" ry="20" transform="matrix(.436672988903 0 0 .436672988903 -141.624261027126 -220.389337290871)" width="40" x="496.32288" y="500.99576"/><path d="m93.21742 13.546351q-7.34087 6.464349-18.078262 6.464349-10.737391 0-18.078261-6.464349-7.34087-6.4643477-7.34087-15.9965222 0-6.2452177 3.396521-10.9565228 3.396522-4.820869 8.874784-7.56v-.438261q-4.273044-2.73913-7.012175-6.902609-2.73913-4.273044-2.73913-8.874783 0-9.093914 6.464348-15.120001 6.464348-6.135652 16.434783-6.135652 9.970436 0 16.434784 6.135652 6.464348 6.026087 6.464348 15.120001 0 4.601739-2.73913 8.874783-2.739131 4.163479-7.012175 6.902609v.438261q5.478261 2.739131 8.874783 7.56 3.396522 4.7113051 3.396522 10.9565228 0 9.5321745-7.34087 15.9965222zm-27.172175-42.401741q3.615652 3.177391 9.093913 3.177391 5.478262 0 8.984349-3.177391 3.615652-3.286957 3.615652-8.546088 0-5.25913-3.615652-8.326957-3.506087-3.067826-8.984349-3.067826-5.478261 0-9.093913 3.067826-3.506087 3.067827-3.506087 8.326957 0 5.259131 3.506087 8.546088zm-1.643478 35.4991324q4.382608 3.7252176 10.737391 3.7252176 6.354783 0 10.737392-3.7252176 4.382609-3.7252176 4.382609-9.6417397 0-5.8069569-4.382609-9.5321747-4.382609-3.725217-10.737392-3.725217-6.354783 0-10.737391 3.725217-4.382609 3.7252178-4.382609 9.5321747 0 5.9165221 4.382609 9.6417397z" fill="#36393c" transform="matrix(.13359242 0 0 .13359242 73.801974 9.682231)"/></g></svg>