<?xml version="1.0" encoding="UTF-8" standalone="no"?>
<!-- Created with Inkscape (http://www.inkscape.org/) -->

<svg
   xmlns:dc="http://purl.org/dc/elements/1.1/"
   xmlns:cc="http://creativecommons.org/ns#"
   xmlns:rdf="http://www.w3.org/1999/02/22-rdf-syntax-ns#"
   xmlns:svg="http://www.w3.org/2000/svg"
   xmlns="http://www.w3.org/2000/svg"
   xmlns:xlink="http://www.w3.org/1999/xlink"
   xmlns:sodipodi="http://sodipodi.sourceforge.net/DTD/sodipodi-0.dtd"
   xmlns:inkscape="http://www.inkscape.org/namespaces/inkscape"
   width="48"
   height="48"
   id="svg3070"
   version="1.1"
   inkscape:version="0.91 r13725"
   sodipodi:docname="abiword.svg">
  <defs
     id="defs3072">
    <linearGradient
       id="linearGradient4252"
       x1="1"
       x2="47"
       gradientUnits="userSpaceOnUse"
       gradientTransform="matrix(0,-1,1,0,-1.5e-6,47.999998)">
      <stop
         stop-color="#97b2d3"
         stop-opacity="1"
         id="stop4254" />
      <stop
         offset="1"
         stop-color="#a5bcd9"
         stop-opacity="1"
         id="stop4256"
         style="stop-color:#b1c9e8;stop-opacity:1" />
    </linearGradient>
    <linearGradient
       id="linearGradient4246"
       x1="1"
       x2="47"
       gradientUnits="userSpaceOnUse"
       gradientTransform="matrix(0,-1,1,0,-1.5e-6,47.999998)">
      <stop
         stop-color="#97b2d3"
         stop-opacity="1"
         id="stop4248" />
      <stop
         offset="1"
         stop-color="#a5bcd9"
         stop-opacity="1"
         id="stop4250"
         style="stop-color:#c2ddff;stop-opacity:1" />
    </linearGradient>
    <linearGradient
       inkscape:collect="always"
       id="linearGradient4320">
      <stop
         style="stop-color:#f6fbff;stop-opacity:1"
         offset="0"
         id="stop4322" />
      <stop
         style="stop-color:#eaeff2;stop-opacity:1"
         offset="1"
         id="stop4324" />
    </linearGradient>
    <linearGradient
       y2="1010.814"
       x2="16.048658"
       y1="1036.3622"
       x1="17"
       gradientTransform="matrix(1.0309825,0,0,1,-0.512598,0)"
       gradientUnits="userSpaceOnUse"
       id="linearGradient4537"
       xlink:href="#linearGradient4246"
       inkscape:collect="always" />
    <linearGradient
       gradientUnits="userSpaceOnUse"
       y2="1037.2084"
       x2="34.116894"
       y1="1013.622"
       x1="33.461716"
       id="linearGradient4308-5"
       xlink:href="#linearGradient4320"
       inkscape:collect="always"
       gradientTransform="matrix(0.84231232,0,0,1,5.5011448,0)" />
    <linearGradient
       y2="1010.814"
       x2="29.336485"
       y1="1037.0211"
       x1="29.336485"
       gradientTransform="translate(-0.199659,0)"
       gradientUnits="userSpaceOnUse"
       id="linearGradient4539"
       xlink:href="#linearGradient4252"
       inkscape:collect="always" />
    <clipPath
       id="clipPath-183935099">
      <g
         id="g4170"
         transform="translate(0,-1004.3622)">
        <path
           id="path4172"
           fill="#1890d0"
           transform="matrix(15.333333,0,0,11.5,414.99999,878.8622)"
           d="m -24 13 c 0 1.105 -0.672 2 -1.5 2 -0.828 0 -1.5 -0.895 -1.5 -2 0 -1.105 0.672 -2 1.5 -2 0.828 0 1.5 0.895 1.5 2 z" />
      </g>
    </clipPath>
  </defs>
  <sodipodi:namedview
     id="base"
     pagecolor="#5a5a5a"
     bordercolor="#ffffff"
     borderopacity="1"
     inkscape:pageopacity="0"
     inkscape:pageshadow="2"
     inkscape:zoom="3.4082547"
     inkscape:cx="-25.593013"
     inkscape:cy="35.196893"
     inkscape:document-units="px"
     inkscape:current-layer="g4225"
     showgrid="false"
     inkscape:window-width="1366"
     inkscape:window-height="633"
     inkscape:window-x="0"
     inkscape:window-y="33"
     inkscape:window-maximized="1"
     inkscape:showpageshadow="false"
     showborder="false">
    <inkscape:grid
       type="xygrid"
       id="grid3078"
       empspacing="5"
       visible="true"
       enabled="true"
       snapvisiblegridlinesonly="true" />
  </sodipodi:namedview>
  <metadata
     id="metadata3075">
    <rdf:RDF>
      <cc:Work
         rdf:about="">
        <dc:format>image/svg+xml</dc:format>
        <dc:type
           rdf:resource="http://purl.org/dc/dcmitype/StillImage" />
        <dc:title></dc:title>
      </cc:Work>
    </rdf:RDF>
  </metadata>
  <g
     inkscape:label="Layer 1"
     inkscape:groupmode="layer"
     id="layer1"
     transform="translate(0,-1004.3622)">
    <g
       transform="translate(-384.28833,504.67735)"
       id="layer1-8"
       inkscape:label="Capa 1">
      <g
         transform="matrix(1.5263052,0,0,1.5263052,376.31698,-1040.1258)"
         id="g4231">
        <g
           transform="translate(-1.1140237,0)"
           id="g4178">
          <g
             id="g4179"
             transform="matrix(1.1526351,0,0,1.1526351,-3.7868504,-156.53865)">
            <path
               sodipodi:nodetypes="ccccccc"
               inkscape:connector-curvature="0"
               id="path4248-6-8"
               d="m 33.754827,1036.9362 -9.759758,0 0,-24.498 9.759758,0 c 1.03617,-0.094 1.119548,0.023 1.119548,1.1721 l 0,22.0916 c 0.06508,1.261 -0.111972,1.2343 -1.119548,1.2343 z"
               style="opacity:1;fill:url(#linearGradient4308-5);fill-opacity:1;fill-rule:evenodd;stroke:none;stroke-width:1px;stroke-linecap:butt;stroke-linejoin:miter;stroke-opacity:1" />
            <path
               sodipodi:nodetypes="ccccccc"
               inkscape:connector-curvature="0"
               id="path4248-0"
               d="m 11.563303,1036.9442 11.636697,0 0,-24.498 -11.533603,0 c -1.268259,-0.094 -1.782566,0.023 -1.782566,1.1721 l 0,22.0916 c -0.07966,1.261 0.446208,1.2343 1.679472,1.2343 z"
               style="opacity:1;fill:url(#linearGradient4537);fill-opacity:1.0;fill-rule:evenodd;stroke:none;stroke-width:1px;stroke-linecap:butt;stroke-linejoin:miter;stroke-opacity:1" />
            <path
               sodipodi:nodetypes="ccccccc"
               inkscape:connector-curvature="0"
               id="path4248-6-0-3"
               d="M 31.957586,1038.1035 21.928,1036.932 l 0,-24.498 9.945906,-0.9205 c 1.230149,-0.094 1.296492,0.2446 1.296492,1.3937 l -0.08368,23.3688 c 0.07726,1.261 0.06707,1.8275 -1.129132,1.8275 z"
               style="opacity:1;fill:url(#linearGradient4539);fill-opacity:1.0;fill-rule:evenodd;stroke:none;stroke-width:1px;stroke-linecap:butt;stroke-linejoin:miter;stroke-opacity:1" />
          </g>
        </g>
        <g
           id="g4225"
           transform="matrix(0.65517696,0,0,0.65517696,-95.376268,1007.6618)">
          <g
             id="g4186" />
          <g
             id="g4200"
             transform="translate(152.07469,4.1493776)">
            <g
               id="g4202"
               clip-path="url(#clipPath-183935099)">
              <!-- color: #a5bcd9 -->
              <g
                 id="g4204">
                <path
                   id="path4206"
                   d="m 12,32.48 c -0.012,-5.758 8.316,-22.395 12.195,-22.477 1.938,-0.047 4.844,3.637 7.285,8.398 2.445,4.758 4.426,10.598 4.52,14.863 0,0 -9.383,-18.328 -11.723,-18.379 -2.379,-0.066 -8.852,12.91 -8.08,14.352 0.754,1.41 14.695,-3.133 14.695,-3.133 -0.301,0.461 -9.402,6.48 -16.227,7.895 -1.031,-0.043 -2.578,0 -2.664,-1.52 m 0,0"
                   inkscape:connector-curvature="0"
                   style="fill:#3d4f66;fill-opacity:0.80241936;fill-rule:evenodd;stroke:none" />
              </g>
            </g>
          </g>
        </g>
      </g>
    </g>
  </g>
</svg>
