<?xml version="1.0" encoding="UTF-8" standalone="no"?>
<!-- Created with Inkscape (http://www.inkscape.org/) -->

<svg
   xmlns:osb="http://www.openswatchbook.org/uri/2009/osb"
   xmlns:dc="http://purl.org/dc/elements/1.1/"
   xmlns:cc="http://creativecommons.org/ns#"
   xmlns:rdf="http://www.w3.org/1999/02/22-rdf-syntax-ns#"
   xmlns:svg="http://www.w3.org/2000/svg"
   xmlns="http://www.w3.org/2000/svg"
   xmlns:xlink="http://www.w3.org/1999/xlink"
   xmlns:sodipodi="http://sodipodi.sourceforge.net/DTD/sodipodi-0.dtd"
   xmlns:inkscape="http://www.inkscape.org/namespaces/inkscape"
   sodipodi:docname="accessories-painting.svg"
   inkscape:version="0.91 r13725"
   version="1.1"
   id="svg5453"
   height="48"
   width="48">
  <defs
     id="defs5455">
    <linearGradient
       id="linearGradient3249">
      <stop
         offset="0"
         style="stop-color:#ffffff;stop-opacity:1"
         id="stop3251" />
      <stop
         offset="1"
         style="stop-color:#ececec;stop-opacity:1"
         id="stop3253" />
    </linearGradient>
    <linearGradient
       inkscape:collect="always"
       xlink:href="#linearGradient3249"
       id="linearGradient4276"
       x1="408.24762"
       y1="547.60199"
       x2="407.93527"
       y2="498.89407"
       gradientUnits="userSpaceOnUse"
       gradientTransform="matrix(0.92725312,0,0,0.92725312,29.585097,38.03234)" />
    <linearGradient
       inkscape:collect="always"
       xlink:href="#linearGradient4237-67"
       id="linearGradient4318"
       x1="408.24762"
       y1="547.60199"
       x2="407.93527"
       y2="498.89407"
       gradientUnits="userSpaceOnUse"
       gradientTransform="matrix(0.92725312,0,0,0.92725312,29.585097,38.03234)" />
    <linearGradient
       osb:paint="gradient"
       id="linearGradient4207">
      <stop
         id="stop3371"
         offset="0"
         style="stop-color:#3498db;stop-opacity:1;" />
      <stop
         id="stop3373"
         offset="1"
         style="stop-color:#3498db;stop-opacity:0;" />
    </linearGradient>
    <linearGradient
       id="linearGradient4237-67">
      <stop
         id="stop4239-85"
         style="stop-color:#833cfc;stop-opacity:1"
         offset="0" />
      <stop
         id="stop4241-07"
         style="stop-color:#f461d4;stop-opacity:1"
         offset="1" />
    </linearGradient>
    <linearGradient
       inkscape:collect="always"
       xlink:href="#linearGradient3249"
       id="linearGradient3257"
       gradientUnits="userSpaceOnUse"
       gradientTransform="matrix(0.92725313,0,0,0.92725313,29.585097,38.03234)"
       x1="408.24762"
       y1="547.60199"
       x2="407.93527"
       y2="498.89407" />
    <linearGradient
       inkscape:collect="always"
       xlink:href="#linearGradient3249"
       id="linearGradient3267"
       gradientUnits="userSpaceOnUse"
       x1="408.69336"
       y1="501.94531"
       x2="408.58951"
       y2="547.05353"
       gradientTransform="matrix(0.91666663,0,0,0.91666663,33.935818,43.646187)" />
    <linearGradient
       inkscape:collect="always"
       xlink:href="#linearGradient3249"
       id="linearGradient3269"
       gradientUnits="userSpaceOnUse"
       x1="408.69336"
       y1="501.94531"
       x2="408.58951"
       y2="547.05353"
       gradientTransform="matrix(0.91666663,0,0,0.91666663,33.935818,43.646187)" />
  </defs>
  <sodipodi:namedview
     showborder="true"
     inkscape:object-nodes="true"
     inkscape:snap-global="true"
     inkscape:snap-nodes="true"
     inkscape:snap-center="true"
     inkscape:bbox-nodes="true"
     inkscape:snap-bbox="true"
     showguides="false"
     borderlayer="true"
     inkscape:showpageshadow="false"
     inkscape:window-maximized="0"
     inkscape:window-y="33"
     inkscape:window-x="0"
     inkscape:window-height="642"
     inkscape:window-width="1366"
     fit-margin-bottom="0"
     fit-margin-right="0"
     fit-margin-left="0"
     fit-margin-top="0"
     showgrid="false"
     inkscape:current-layer="svg5453"
     inkscape:document-units="px"
     inkscape:cy="5.2403449"
     inkscape:cx="19.783016"
     inkscape:zoom="8.6496985"
     inkscape:pageshadow="2"
     inkscape:pageopacity="0"
     borderopacity="1.0"
     bordercolor="#666666"
     pagecolor="#5a5a5a"
     id="base">
    <inkscape:grid
       type="xygrid"
       id="grid4063" />
    <sodipodi:guide
       position="1.1650391e-05,43.999996"
       orientation="0,48"
       id="guide4148" />
    <sodipodi:guide
       position="48.000012,43.999996"
       orientation="-4,0"
       id="guide4150" />
    <sodipodi:guide
       position="48.000012,47.999996"
       orientation="0,-48"
       id="guide4152" />
    <sodipodi:guide
       position="1.1650391e-05,4.0000264"
       orientation="4,0"
       id="guide4154" />
    <sodipodi:guide
       position="1.1650391e-05,2.6367188e-05"
       orientation="0,48"
       id="guide4156" />
    <sodipodi:guide
       position="48.000012,2.6367188e-05"
       orientation="-4,0"
       id="guide4158" />
    <sodipodi:guide
       position="48.000012,48.000026"
       orientation="0,-4"
       id="guide4162" />
    <sodipodi:guide
       position="44.000012,48.000026"
       orientation="48,0"
       id="guide4164" />
    <sodipodi:guide
       position="44.000012,2.6367188e-05"
       orientation="0,4"
       id="guide4166" />
    <sodipodi:guide
       position="48.000012,2.6367188e-05"
       orientation="-48,0"
       id="guide4168" />
    <sodipodi:guide
       position="4.0000422,48.000026"
       orientation="0,-4"
       id="guide4170" />
    <sodipodi:guide
       position="4.2167969e-05,48.000026"
       orientation="48,0"
       id="guide4172" />
    <sodipodi:guide
       position="4.2167969e-05,2.6367188e-05"
       orientation="0,4"
       id="guide4174" />
    <sodipodi:guide
       position="4.0000422,2.6367188e-05"
       orientation="-48,0"
       id="guide4176" />
    <sodipodi:guide
       position="4.0000117,47.999996"
       orientation="43.999969,0"
       id="guide4638" />
    <sodipodi:guide
       position="4.0000117,4.0000264"
       orientation="0,20"
       id="guide4640" />
    <sodipodi:guide
       position="24.000012,4.0000264"
       orientation="-43.999969,0"
       id="guide4642" />
    <sodipodi:guide
       position="24.000012,47.999996"
       orientation="0,-20"
       id="guide4644" />
    <sodipodi:guide
       position="4.0000422,24.000026"
       orientation="20,0"
       id="guide4666" />
    <sodipodi:guide
       position="4.0000422,4.0000264"
       orientation="0,39.999969"
       id="guide4668" />
    <sodipodi:guide
       position="44.000012,4.0000264"
       orientation="-20,0"
       id="guide4670" />
    <sodipodi:guide
       position="44.000012,24.000026"
       orientation="0,-39.999969"
       id="guide4672" />
  </sodipodi:namedview>
  <metadata
     id="metadata5458">
    <rdf:RDF>
      <cc:Work
         rdf:about="">
        <dc:format>image/svg+xml</dc:format>
        <dc:type
           rdf:resource="http://purl.org/dc/dcmitype/StillImage" />
        <dc:title></dc:title>
      </cc:Work>
    </rdf:RDF>
  </metadata>
  <g
     inkscape:label="Layer 1"
     inkscape:groupmode="layer"
     id="layer1"
     transform="translate(-384.57143,-499.798)">
    <g
       id="g4204"
       transform="matrix(1.1552259,0,0,1.1552259,-64.264989,-83.022331)"
       style="opacity:0.856;fill:#ffffff;fill-opacity:1" />
    <rect
       style="opacity:1;fill:url(#linearGradient4318);fill-opacity:1;stroke:url(#linearGradient4276);stroke-width:2.09523845;stroke-miterlimit:4;stroke-dasharray:none;stroke-opacity:1"
       id="rect4166"
       width="41.904762"
       height="41.904739"
       x="387.61905"
       y="502.84564"
       ry="20.95237" />
    <path
       style="fill:url(#linearGradient3267);fill-opacity:1"
       inkscape:connector-curvature="0"
       d="m 411.51518,523.19852 a 1.8333324,1.8333324 0 0 1 -1.83335,-1.83334 1.8333324,1.8333324 0 0 1 1.83335,-1.83332 1.8333324,1.8333324 0 0 1 1.83333,1.83332 1.8333324,1.8333324 0 0 1 -1.83333,1.83334 m -3.66668,-4.8889 a 1.8333324,1.8333324 0 0 1 -1.83333,-1.83333 1.8333324,1.8333324 0 0 1 1.83333,-1.83332 1.8333324,1.8333324 0 0 1 1.83333,1.83332 1.8333324,1.8333324 0 0 1 -1.83333,1.83333 m -6.1111,0 a 1.8333324,1.8333324 0 0 1 -1.83333,-1.83333 1.8333324,1.8333324 0 0 1 1.83333,-1.83332 1.8333324,1.8333324 0 0 1 1.83333,1.83332 1.8333324,1.8333324 0 0 1 -1.83333,1.83333 m -3.66667,4.8889 a 1.8333324,1.8333324 0 0 1 -1.83332,-1.83334 1.8333324,1.8333324 0 0 1 1.83332,-1.83332 1.8333324,1.8333324 0 0 1 1.83334,1.83332 1.8333324,1.8333324 0 0 1 -1.83334,1.83334 m 6.72223,-11 a 10.999994,10.999994 0 0 0 -11.00001,11 10.999994,10.999994 0 0 0 11.00001,10.99998 1.8333324,1.8333324 0 0 0 1.83331,-1.83332 c 0,-0.47667 -0.18331,-0.90445 -0.47665,-1.22223 -0.28112,-0.32999 -0.46445,-0.75777 -0.46445,-1.22222 a 1.8333324,1.8333324 0 0 1 1.83333,-1.83332 l 2.16333,0 a 6.1111078,6.1111078 0 0 0 6.11112,-6.11112 c 0,-5.40222 -4.92556,-9.77777 -10.99999,-9.77777 z"
       id="path4190" />
    <path
       style="fill:url(#linearGradient3269);fill-opacity:1"
       inkscape:connector-curvature="0"
       d="m 426.64253,520.15556 -1.22833,-1.22833 c -0.33917,-0.3575 -0.935,-0.3575 -1.2925,0 l -8.21333,8.21333 2.52083,2.52083 8.21333,-8.21333 c 0.3575,-0.35751 0.3575,-0.95333 0,-1.2925 m -12.5675,8.58917 a 2.7499999,2.7499999 0 0 0 -2.75,2.75 c 0,1.20082 -1.06333,1.83333 -1.83333,1.83333 0.84333,1.11834 2.29167,1.83334 3.66667,1.83334 a 3.6666665,3.6666665 0 0 0 3.66666,-3.66667 2.7499999,2.7499999 0 0 0 -2.75,-2.75 z"
       id="path4201" />
    <g
       id="g6973"
       transform="matrix(0.06038192,-0.01362191,0.01362191,0.06038192,304.95892,582.40245)">
      <g
         id="g6937" />
      <g
         id="g6939" />
      <g
         id="g6941" />
      <g
         id="g6943" />
      <g
         id="g6945" />
      <g
         id="g6947" />
      <g
         id="g6949" />
      <g
         id="g6951" />
      <g
         id="g6953" />
      <g
         id="g6955" />
      <g
         id="g6957" />
      <g
         id="g6959" />
      <g
         id="g6961" />
      <g
         id="g6963" />
      <g
         id="g6965" />
    </g>
    <path
       style="color:#000000;font-style:normal;font-variant:normal;font-weight:normal;font-stretch:normal;font-size:medium;line-height:normal;font-family:sans-serif;text-indent:0;text-align:start;text-decoration:none;text-decoration-line:none;text-decoration-style:solid;text-decoration-color:#000000;letter-spacing:normal;word-spacing:normal;text-transform:none;direction:ltr;block-progression:tb;writing-mode:lr-tb;baseline-shift:baseline;text-anchor:start;white-space:normal;clip-rule:nonzero;display:inline;overflow:visible;visibility:visible;opacity:1;isolation:auto;mix-blend-mode:normal;color-interpolation:sRGB;color-interpolation-filters:linearRGB;solid-color:#000000;solid-opacity:1;fill:url(#linearGradient3257);fill-opacity:1;fill-rule:nonzero;stroke:none;stroke-width:2;stroke-linecap:butt;stroke-linejoin:miter;stroke-miterlimit:4;stroke-dasharray:none;stroke-dashoffset:0;stroke-opacity:1;color-rendering:auto;image-rendering:auto;shape-rendering:auto;text-rendering:auto;enable-background:accumulate"
       d="m 408.57138,501.92937 c -12.09958,0 -21.8693,9.76971 -21.8693,21.8693 0,12.0996 9.76972,21.86751 21.8693,21.86751 12.09959,0 21.8693,-9.76791 21.8693,-21.86751 0,-12.09959 -9.76971,-21.8693 -21.8693,-21.8693 z m 0,1.83333 c 11.11564,0 20.03597,8.92034 20.03597,20.03597 0,11.11564 -8.92033,20.03418 -20.03597,20.03418 -11.11563,0 -20.03596,-8.91854 -20.03596,-20.03418 0,-11.11563 8.92033,-20.03597 20.03596,-20.03597 z"
       id="rect3247"
       inkscape:connector-curvature="0" />
  </g>
</svg>
