<svg height="48" viewBox="0 0 48 48.000001" width="48" xmlns="http://www.w3.org/2000/svg" xmlns:xlink="http://www.w3.org/1999/xlink"><linearGradient id="a" gradientTransform="matrix(1.0375832 -.00328006 .004608 .94269312 -2.13811 58.763097)" gradientUnits="userSpaceOnUse" x1="30.892857" x2="31.071428" y1="1050.2194" y2="1014.2372"><stop offset="0" stop-color="#d45500"/><stop offset="1" stop-color="#ff7f2a"/></linearGradient><linearGradient id="b" gradientTransform="matrix(.92392399 -.00371496 .00379012 .94261775 2.176575 58.860432)" gradientUnits="userSpaceOnUse" x1="14.285714" x2="14.285714" y1="1050.13" y2="1014.4158"><stop offset="0" stop-color="#999"/><stop offset="1" stop-color="#999"/></linearGradient><radialGradient id="c" cx="95.560387" cy="1008.8624" gradientTransform="matrix(2.0948851 -.11670113 .00142255 .58853571 -177.73062 428.17435)" gradientUnits="userSpaceOnUse" r="16.731913"><stop offset="0" stop-color="#f9f9f9" stop-opacity=".156863"/><stop offset="1" stop-color="#f9f9f9" stop-opacity=".039216"/></radialGradient><linearGradient id="d" gradientTransform="matrix(1.0111276 .09318631 -.09318631 1.0111276 95.43949 -14.181516)" gradientUnits="userSpaceOnUse" x1="24.919453" x2="23.731018" y1="1051.3431" y2="1006.9681"><stop offset="0" stop-color="#1a1a1a"/><stop offset="1" stop-color="#333"/></linearGradient><g transform="translate(0 -1004.3622)"><path d="m7.8929087 1007.0018 32.0489993-.1289c.522186 0 .944311.4166.946415.9388l.166761 41.4752c.0021.5223-.416614.9443-.938827.9465l-32.0489998.1288c-.5221866 0-.9443106-.4166-.9464063-.9389l-.16677-41.4751c-.0021-.5223.4166225-.9444.9388278-.9464z" fill-opacity=".666667"/><path d="m7.8833354 1006.491 32.0489996-.1288c.522187 0 .944311.4166.946415.9388l.166761 41.4752c.0021.5223-.416614.9443-.938827.9464l-32.0489997.1289c-.5221866 0-.9443109-.4166-.9464067-.9389l-.16677-41.4751c-.0021-.5223.4166225-.9444.9388278-.9465z" fill="url(#d)"/><path d="m8.8199809 1007.5004 30.3182191.016c.490949-.0006.673378.2522.687712.6208l.01159 5.4526c-.000821.3846-.336732.4578-.827652.4578l-30.2363066-.04c-.4908647-.0003-.8454274-.1472-.8518507-.6006l.0114-5.2889c.0004398-.3464.2222659-.6335.7131837-.6335z" fill="url(#c)"/><g fill="#fff"><path d="m17.81852 1008.9065 2.064332-.01.0013.3157-1.121974 1.1121-.000033.01.14136-.0002q.499577 0 .764489.2373.269612.2392.271447.6965.0022.5372-.312446.8308-.31462.2887-.908468.2911-.480703 0-.853798-.1756l-.0015-.3629q.396804.2247.85398.2228.414741 0 .630735-.2052.215986-.2035.214394-.5994-.0013-.3347-.228216-.494-.22218-.164-.712301-.1625h-.344107l-.0012-.2922 1.122027-1.0979.000033-.01-1.578882.01-.0013-.3157z"/><path d="m20.81081 1012.335-.0026-.6456h.438286l.0026.6457h-.438285z"/><path d="m23.233849 1012.3253-.01215-3.0211-.0094.0001-.963037.7862-.0017-.4148.972445-.791h.377088l.01383 3.4406h-.377088z"/><path d="m26.410509 1011.2049-.0072-1.7815h-.0094l-1.246559 1.7772-.000033.01h1.263104zm.372323 0h .584411l.0012.3064h-.584412l.0032.8012h-.372323l-.0032-.8012-1.649582.01-.0012-.3063 1.640209-2.3397h.372323z"/><path d="m29.143618 1012.3016-.01215-3.0211h-.0094l-.963038.7863-.0017-.4148.972445-.791h.377088l.01383 3.4406h-.377087z"/><path d="m33.004999 1009.1611-1.489338.01-.06151 1.1126.0094-.0001q.277406-.166.626175-.1674.50434 0 .783469.2702.279176.2722.28118.7719.0023.5749-.321675.8779-.319275.3029-.941404.3054-.452487 0-.839691-.1753l-.0014-.3582q.429782.2198.839813.2182.890773 0 .887314-.8662-.0015-.3628-.195459-.5506-.194014-.1924-.556919-.191-.372323 0-.616546.2193h-.329904l.09652-1.7819 1.82868-.01.0013.3157z"/><path d="m34.076189 1011.8858q.354031.1255.740462.1244.457158 0 .724523-.3234.267345-.3264.27421-.9626h-.0094q-.281134.4111-.907981.4137-.513684 0-.81663-.3125-.302908-.3146-.30511-.8612-.0022-.5374.331226-.8498.333358-.3171.875361-.3193 1.225405 0 1.231467 1.5033.0042 1.051-.351997 1.5426-.356245.4869-1.044356.4897-.377088 0-.740342-.106l-.0013-.3346zm.907898-2.7798q-.381759 0-.607086.2288-.225338.2224-.223726.623.0017.41.22413.6495.227183.2347.599516.2332.377087 0 .607035-.238.234712-.2367.233153-.6231-.000573-.1414-.04827-.2826-.043-.1459-.137819-.2822-.09009-.1364-.26011-.2205-.165339-.089-.386864-.088z"/><path d="m37.937696 1008.7784q.504341 0 .783417.2561.279092.2534.280957.7152.0019.4619-.330859.9393-.332735.4726-1.248667 1.2541l-.000033.01 1.602455-.01.0013.3158-2.120895.01-.0013-.3158q1.000557-.8336 1.356889-1.2969.356319-.468.354674-.8781-.0013-.3299-.185841-.5035-.184533-.1784-.538011-.177-.447722 0-.927375.2771l-.0015-.3676q.451551-.2281.9747-.2301z"/></g><path d="m28.939072 1014.7906 10.43055-.046c.287401-.001.519911.2278.521303.5126l.160857 32.9086c.0014.2849-.228867.5149-.51628.5159l-10.324849.041z" fill="url(#a)"/><path d="m36.729878 1019.0716-3.770471.015-.0022-.5437 3.770471-.015zm-2.235597-1.6289c-.000433-.1076.03061-.1975.0931-.2695.06474-.072.161022-.1083.288842-.1088s.224389.035.289709.1065c.06756.071.10156.1611.101993.2687.000423.1054-.03286.193-.09986.2627-.06475.07-.161036.105-.288856.1056-.12782.0005-.224385-.034-.289695-.1032-.06307-.069-.09482-.1566-.09524-.262zm.01105 2.7481c-.000432-.1076.03061-.1974.09311-.2694.06474-.072.161023-.1083.288842-.1088.12782-.0005.224389.035.289709.1065.06756.071.101559.161.101992.2686.000415.1031-.03287.1908-.09986.2628-.06475.07-.161037.105-.288857.1055s-.224384-.034-.289694-.1031c-.06308-.071-.09483-.1589-.09524-.2621z" fill="#fff"/><path d="m37.124779 1024.1975-1.394654 1.4008 1.394654 1.3946-.363159.3693-1.400757-1.4008-1.400757 1.4008-.360108-.3693 1.391602-1.3946-1.391602-1.4008.360108-.3693 1.400757 1.4008 1.400757-1.4008z" fill="#fff" transform="matrix(1.0697036 -.00430111 .00430111 1.0697036 -7.368965 -71.666518)"/><path d="m31.348675 1036.3576v1.7897h1.789657v.5462h-1.789657v1.7897h-.539789v-1.7897h-1.789656v-.5462h1.789656v-1.7897z" fill="#fff" transform="matrix(.99999192 -.00402081 .00402081 .99999192 0 0)"/><path d="m31.065874 1105.4698v-.4282h3.83342v.4282zm0 1.5387v-.4281h3.83342v.4281z" fill="#fff" transform="matrix(.98357892 -.00395482 .00429466 1.0680989 -2.243044 -136.44587)"/><path d="m36.783433 1032.3909-3.770471.015-.0022-.5438 3.770471-.015z" fill="#fff"/><path d="m29.11904 1014.7883-20.788412.084c-.255915.0009-.460822.2208-.459731.4934l.131831 32.9517c.000566.1418.0563.2688.146249.3581l1.687878 1.6751 30.222351-.1224c.522186 0 .941799-.4248.939702-.9471l-.0025-.4703-.08918-22.3284-11.788226-11.6939z" fill-opacity=".078431"/><path d="m8.3303874 1014.8724 20.7893556-.084.136445 33.9342-20.7893561.084c-.2559132.0009-.462839-.2175-.4639392-.4899l-.1324853-32.9506c-.0011-.2725.2040575-.4927.45998-.4937z" fill="url(#b)"/><g transform="matrix(.94261775 -.00379012 .00379012 .94261775 1.754529 59.597382)"><path d="m4.0112065 1019.5322 1.285-3.65h.45l1.28 3.65h-.425l-.35-1.065h-1.475l-.35 1.065zm.87-1.385h1.265l-.63-1.905h-.01z"/><path d="m8.8795659 1019.2472q.425 0 .84-.145v.355q-.43.125-.875.125-.72 0-1.155-.49-.435-.495-.435-1.385 0-.885.42-1.38.42-.495 1.155-.495.455 0 .865.125v.355q-.41-.145-.83-.145-.565 0-.885.405-.32.405-.32 1.135 0 .725.33 1.135.335.405.89.405z"/></g><g transform="matrix(.94261775 -.00379012 .00379012 .94261775 1.845141 59.588722)"><path d="m12.855043 1015.9272v.8385h.82225v.208h-.82225v.8385h-.21775v-.8385h-.82225v-.208h.82225v-.8385z"/><path d="m15.064484 1016.0298-1.595625 3.5612h-.356125l1.591-3.5612z"/><path d="m14.6224 1019.6061v-.2363h1.15125v.2363z"/></g><g transform="matrix(.94261775 -.00379012 .00379012 .94261775 1.709992 59.589266)"><path d="m21.425496 1018.1774c-.254797 0-.382196.1813-.382196.5442 0 .3656.127399.5484.382196.5484.252028 0 .378042-.1828.378042-.5484 0-.3629-.126014-.5442-.378042-.5442zm.515133 1.1341c-.121859.1385-.293569.2077-.515133.2077-.221563 0-.394659-.069-.519287-.2077-.121861-.1386-.18279-.3351-.18279-.5899 0-.252.06092-.4473.18279-.5859.124628-.1384.297724-.2076.519287-.2076.221564 0 .393274.069.515133.2076.121861.1386.18279.3339.18279.5859 0 .2548-.06092.4513-.18279.5899z"/><path d="m19.781505 1015.8974c-.252027 0-.378041.1828-.378041.5483 0 .363.126014.5444.378041.5444.254799 0 .382197-.1814.382197-.5444 0-.3655-.1274-.5483-.382197-.5483zm.515135 1.1341c-.121856.1386-.293571.2078-.515135.2078-.221563 0-.393273-.069-.515132-.2078-.121856-.1386-.18279-.3338-.18279-.5858 0-.2548.06092-.4512.18279-.5897.121856-.1386.293569-.2078.515132-.2078.221564 0 .393274.069.515135.2078.124628.1386.186943.3349.186943.5897 0 .252-.06231.4473-.186943.5858z"/><path d="m21.358419 1015.8192h.405l-2.005 3.65h-.405z"/></g><path d="m10.732264 1023.8109 2.215151-.01.0013.3158q-.824027 1.3654-1.349518 3.1302h-.3959q.549133-1.746 1.382548-3.1209l-.000038-.01-1.852244.01z"/><path d="m17.750583 1023.9147q.300729-.2275.819168-.2296.51844 0 .816274.223.302548.225.304045.5973.0023.5609-.656592.8086l.000038.01q.783301.2278.786068.9159.0018.4477-.327055.713-.328855.2652-.908565.2676-.57971 0-.910687-.2603-.330978-.2626-.332778-.7104-.0012-.3016.200503-.5381.201715-.2364.578288-.3558l-.000038-.01q-.31625-.1166-.491506-.3327-.170543-.2161-.17168-.4989-.0015-.3723.294517-.5997zm.825232 1.2786q.362624-.072.559873-.2473.201942-.1799.201033-.4061-.001-.2593-.204293-.4046-.198556-.15-.561464-.1485-.358195 0-.555538.153-.197362.1469-.19632.4062.000929.2309.19958.4045.19865.1736.557129.2428zm-.01294.297q-.42855.087-.649288.2807-.216025.1941-.214945.4628.0013.3204.237682.5033.236394.1829.646432.1812.410039 0 .640241-.1864.230184-.1894.228914-.5052-.0023-.5703-.889036-.7364z"/><path d="m24.233157 1026.7495q.353994.1258.740467.1243.45717 0 .724527-.3234.267338-.3263.274206-.9626h-.0094q-.281137.4112-.907977.4137-.513727 0-.816634-.3125-.302908-.3146-.305106-.8613-.0022-.5373.331218-.8497.33336-.3171.875365-.3193 1.225403 0 1.231467 1.5033.0042 1.051-.351998 1.5426-.356242.4869-1.044353.4897-.377048 0-.740391-.1055l-.0013-.3346zm.907891-2.7797q-.38176 0-.607079.2287-.225338.2224-.223727.623.0016.41.22413.6495.227176.2348.59951.2333.377047 0 .607041-.2381.234707-.2366.233153-.6231-.000568-.1414-.04827-.2826-.04301-.1459-.137816-.2822-.0901-.1364-.260111-.2205-.165318-.089-.386833-.088z"/><path d="m12.417756 1032.7356-.0072-1.7816-.0094.0001-1.246557 1.7771.000038.01zm.372334 0h .584423l.0012.3064h-.584423l.0032.8013h-.372334l-.0032-.8013-1.649581.01-.0012-.3064 1.640201-2.3396h.372334z"/><path d="m19.323557 1030.6435-1.489336.01-.06151 1.1126h.0094q.277409-.1661.626178-.1675.5043 0 .783472.2702.279171.2722.28118.7718.0023.575-.321679.878-.319277.3029-.941404.3054-.452457 0-.83965-.1757l-.0014-.3582q.429782.2198.839821.2181.890774 0 .887306-.8661-.0015-.3629-.195454-.5506-.194014-.1925-.556922-.191-.372334 0-.616543.2193h-.329916l.09652-1.782 1.828678-.01z"/><path d="m26.052805 1030.3572.0013.3346q-.325715-.1259-.693336-.1245-.433604 0-.705637.3328-.267338.3263-.297828.9485l.0095.01q.285869-.4065.912709-.409.509014 0 .811902.3078.30287.3052.304935.8189.0023.5703-.321621.8921-.323914.3218-.880059.324-1.225403 0-1.231657-1.5504-.004-.9944.356939-1.4861.365631-.4963 1.039602-.499.381761 0 .69326.1056zm-.859414 3.1141q.3959 0 .611792-.2287.215874-.2318.214111-.6701-.0015-.3818-.228672-.6071-.222444-.23-.590065-.2286-.372334 0-.611773.2335-.234745.2271-.233324.5806.0014.3535.209954.6402.208512.2819.627977.2802z"/><path d="m10.973659 1036.9597 2.064333-.01.0013.3158-1.121975 1.1121.000038.01.141393-.0006q.499587 0 .764487.2373.269612.2393.27145.6965.0022.5373-.312441.8307-.314621.2888-.90847.2912-.480736 0-.85379-.1757l-.0015-.3629q.396809.2247.853979.2228.414752 0 .630739-.2052.215987-.2035.214395-.5994-.0013-.3346-.228218-.494-.222178-.164-.71234-.1621h-.344055l-.0012-.2922 1.122032-1.098-.000038-.01-1.578885.01z"/><path d="m18.429766 1036.9297q.5043 0 .783415.2561.279095.2534.280953.7152.0019.4619-.330859.9393-.332734.4727-1.248659 1.254l.000038.01 1.60245-.01.0013.3158-2.120889.01-.0013-.3158q1.000552-.8335 1.35689-1.2968.356319-.4681.35467-.8781-.0013-.3299-.185838-.5036-.184531-.1783-.538012-.1769-.447744 0-.92738.2771l-.0015-.3676q.451547-.2281.9747-.2302z"/><path d="m25.348464 1040.3896-.01215-3.0211-.0094.0001-.963038.7862-.0017-.4147.972444-.791h.377047l.01383 3.4405z"/><path d="m10.3025 1045.0473q.345-.435.97-.435.625 0 .97.435.345.435.345 1.44 0 1.005-.345 1.44-.345.435-.97.435-.625 0-.97-.435-.345-.435-.345-1.44 0-1.005.345-1.44zm.28 2.625q.23.365.69.365.46 0 .685-.365.23-.37.23-1.185 0-.815-.23-1.18-.225-.37-.685-.37-.46 0-.69.37-.225.365-.225 1.18 0 .815.225 1.185z" transform="matrix(.94261775 -.00379012 .00379012 .94261775 -2.573906 58.879532)"/><path d="m25.366562 1048.1254q0-.1172.06836-.1953.0708-.078.209961-.078.13916 0 .209961.078.07324.078.07324.1953 0 .1123-.07324.188-.0708.076-.209961.076-.13916 0-.209961-.076-.06836-.076-.06836-.188z" transform="matrix(.94261775 -.00379012 .00379012 .94261775 -2.573906 58.879532)"/></g></svg>