<?xml version="1.0" encoding="UTF-8" standalone="no"?>
<!-- Created with Inkscape (http://www.inkscape.org/) -->

<svg
   xmlns:dc="http://purl.org/dc/elements/1.1/"
   xmlns:cc="http://creativecommons.org/ns#"
   xmlns:rdf="http://www.w3.org/1999/02/22-rdf-syntax-ns#"
   xmlns:svg="http://www.w3.org/2000/svg"
   xmlns="http://www.w3.org/2000/svg"
   xmlns:xlink="http://www.w3.org/1999/xlink"
   xmlns:sodipodi="http://sodipodi.sourceforge.net/DTD/sodipodi-0.dtd"
   xmlns:inkscape="http://www.inkscape.org/namespaces/inkscape"
   width="48"
   height="48"
   id="svg3070"
   version="1.1"
   inkscape:version="0.91 r13725"
   sodipodi:docname="accessories-document-viewer.svg">
  <defs
     id="defs3072">
    <linearGradient
       inkscape:collect="always"
       id="linearGradient4179">
      <stop
         style="stop-color:#e02d2d;stop-opacity:1"
         offset="0"
         id="stop4181" />
      <stop
         style="stop-color:#f75151;stop-opacity:1"
         offset="1"
         id="stop4183" />
    </linearGradient>
    <linearGradient
       inkscape:collect="always"
       id="linearGradient4320">
      <stop
         style="stop-color:#f6fbff;stop-opacity:1"
         offset="0"
         id="stop4322" />
      <stop
         style="stop-color:#eaeff2;stop-opacity:1"
         offset="1"
         id="stop4324" />
    </linearGradient>
    <linearGradient
       inkscape:collect="always"
       xlink:href="#linearGradient4320"
       id="linearGradient4714"
       x1="14.986583"
       y1="1023.7546"
       x2="28.745298"
       y2="1023.7546"
       gradientUnits="userSpaceOnUse"
       gradientTransform="matrix(1.1428573,0,0,1.1428573,-4.0427289,-145.26419)" />
    <linearGradient
       inkscape:collect="always"
       xlink:href="#linearGradient4179"
       id="linearGradient4537-5"
       gradientUnits="userSpaceOnUse"
       gradientTransform="matrix(1.1044366,0,0,1.071234,-3.5780035,-73.39288)"
       x1="17"
       y1="1036.3622"
       x2="17"
       y2="1012.3622" />
    <linearGradient
       inkscape:collect="always"
       xlink:href="#linearGradient4320"
       id="linearGradient4308-5-4"
       x1="33.461716"
       y1="1013.622"
       x2="34.116894"
       y2="1037.2084"
       gradientUnits="userSpaceOnUse"
       gradientTransform="matrix(0.70485401,0,0,1.071234,9.7532155,-73.39288)" />
  </defs>
  <sodipodi:namedview
     id="base"
     pagecolor="#5a5a5a"
     bordercolor="#ffffff"
     borderopacity="1"
     inkscape:pageopacity="0"
     inkscape:pageshadow="2"
     inkscape:zoom="8"
     inkscape:cx="9.2524182"
     inkscape:cy="17.83208"
     inkscape:document-units="px"
     inkscape:current-layer="g4231"
     showgrid="false"
     inkscape:window-width="1366"
     inkscape:window-height="642"
     inkscape:window-x="0"
     inkscape:window-y="33"
     inkscape:window-maximized="1"
     inkscape:showpageshadow="false"
     showborder="true">
    <inkscape:grid
       type="xygrid"
       id="grid3078"
       empspacing="5"
       visible="true"
       enabled="true"
       snapvisiblegridlinesonly="true" />
  </sodipodi:namedview>
  <metadata
     id="metadata3075">
    <rdf:RDF>
      <cc:Work
         rdf:about="">
        <dc:format>image/svg+xml</dc:format>
        <dc:type
           rdf:resource="http://purl.org/dc/dcmitype/StillImage" />
        <dc:title />
      </cc:Work>
    </rdf:RDF>
  </metadata>
  <g
     inkscape:label="Layer 1"
     inkscape:groupmode="layer"
     id="layer1"
     transform="translate(0,-1004.3622)">
    <g
       transform="translate(-384.28833,504.67735)"
       id="layer1-8"
       inkscape:label="Layer 1">
      <g
         transform="matrix(1.5263052,0,0,1.5263052,376.31698,-1040.1258)"
         id="g4231">
        <path
           style="opacity:1;fill:#000000;fill-opacity:0.66666667;fill-rule:evenodd;stroke:none;stroke-width:1px;stroke-linecap:butt;stroke-linejoin:miter;stroke-opacity:1"
           d="m 31.553279,1010.488 c -0.128058,0 -0.273432,0 -0.438153,0.015 l -10.654372,0.9987 -10.9923925,0 c -1.3586,-0.1007 -1.909481,0.025 -1.909481,1.2557 l 0,23.6651 c -0.08534,1.3508 0.477816,1.3223 1.798928,1.3223 l 11.2143665,0 10.632666,1.2418 c 1.030849,0 1.239266,-0.3937 1.238353,-1.2505 l 0.906701,0 c 0.883714,0 1.03902,0.029 0.981943,-1.322 l 0,-23.6654 c 0,-1.2309 -0.07315,-1.3564 -0.981943,-1.2557 l -0.855766,0 c -0.0355,-0.7042 -0.200946,-0.9901 -0.94085,-1.0057 z"
           id="path5880"
           inkscape:connector-curvature="0" />
        <path
           sodipodi:nodetypes="ccccccc"
           inkscape:connector-curvature="0"
           id="path4248-6-8-0"
           d="m 33.396134,1037.4084 -8.167048,0 0,-26.2431 8.167048,0 c 0.867074,-0.1007 0.936846,0.025 0.936846,1.2556 l 0,23.6652 c 0.05445,1.3509 -0.0937,1.3223 -0.936846,1.3223 z"
           style="opacity:1;fill:url(#linearGradient4308-5-4);fill-opacity:1;fill-rule:evenodd;stroke:none;stroke-width:1px;stroke-linecap:butt;stroke-linejoin:miter;stroke-opacity:1" />
        <path
           inkscape:connector-curvature="0"
           style="opacity:1;fill:url(#linearGradient4537-5);fill-opacity:1;fill-rule:evenodd;stroke:none;stroke-width:1px;stroke-linecap:butt;stroke-linejoin:miter;stroke-opacity:1"
           d="m 31.553908,1010.1589 c -0.128061,0 -0.272934,0 -0.437657,0.016 l -10.654814,0.9991 -10.9925675,0 c -1.358622,-0.1007 -1.909994,0.025 -1.909994,1.2558 l 0,23.6654 c -0.08534,1.3507 0.47826,1.3224 1.799391,1.3224 l 11.2149615,0 10.632217,1.2416 c 1.281429,0 1.292268,-0.6068 1.209505,-1.9575 l 0.09038,-25.033 c 0,-1.0772 -0.05498,-1.4904 -0.951429,-1.5092 z"
           id="path4248-0-7" />
        <path
           sodipodi:nodetypes="ccccccc"
           inkscape:connector-curvature="0"
           id="path4248-6-0-3-8"
           d="m 31.205577,1038.6588 -10.744161,-1.2549 0,-26.2301 10.654519,-0.9991 c 1.317793,-0.1007 1.388863,0.2621 1.388863,1.493 l -0.08964,25.0335 c 0.08276,1.3507 0.07185,1.9576 -1.20958,1.9576 z"
           style="opacity:1;fill:#000000;fill-opacity:0.03921569;fill-rule:evenodd;stroke:none;stroke-width:1px;stroke-linecap:butt;stroke-linejoin:miter;stroke-opacity:1" />
        <path
           style="fill:url(#linearGradient4714);fill-opacity:1"
           sodipodi:nodetypes="cccccccccccccccccccccccsccsccccccccscccscccccccscssc"
           inkscape:connector-curvature="0"
           id="path5"
           d="m 28.554553,1026.5288 c -0.314313,-0.3097 -1.011399,-0.4736 -2.072157,-0.4876 -0.718043,-0.012 -1.582285,0.055 -2.49132,0.1826 -0.40704,-0.2349 -0.826511,-0.4904 -1.155866,-0.7982 -0.88586,-0.8272 -1.625312,-1.9755 -2.086084,-3.238 0.03002,-0.118 0.05558,-0.2216 0.07937,-0.3273 0,0 0.49898,-2.8344 0.366895,-3.7925 -0.01817,-0.1314 -0.02937,-0.1696 -0.0647,-0.2718 l -0.04334,-0.1109 c -0.135712,-0.313 -0.401829,-0.6446 -0.819046,-0.6266 l -0.24467,-0.012 -0.0068,-2e-4 c -0.46524,0 -0.844427,0.238 -0.943966,0.5937 -0.302555,1.1153 0.0096,2.7842 0.575392,4.9455 l -0.144822,0.3522 c -0.405099,0.9874 -0.912747,1.982 -1.360651,2.8594 l -0.05824,0.1143 c -0.471211,0.9221 -0.898774,1.705 -1.286364,2.3681 l -0.400192,0.2117 c -0.02914,0.014 -0.714996,0.378 -0.875868,0.4753 -1.364723,0.8149 -2.269069,1.7399 -2.419108,2.474 -0.04776,0.2342 -0.0122,0.5339 0.230609,0.6728 l 0.387059,0.1947 c 0.167902,0.084 0.34496,0.1268 0.526351,0.1268 0.972003,0 2.100457,-1.2108 3.654971,-3.9238 1.794808,-0.5843 3.838261,-1.0699 5.629178,-1.3379 1.364813,0.7686 3.043406,1.3022 4.102876,1.3022 0.188114,0 0.350268,-0.018 0.482045,-0.053 0.203195,-0.054 0.374454,-0.1697 0.478864,-0.3269 0.205531,-0.3093 0.24723,-0.7355 0.191423,-1.1718 -0.01664,-0.1293 -0.120058,-0.2894 -0.231932,-0.3987 z m -14.518133,5.1721 c 0.177234,-0.4846 0.878874,-1.4427 1.916279,-2.2928 0.06523,-0.053 0.225877,-0.2035 0.372996,-0.3432 -1.084851,1.7302 -1.811343,2.4198 -2.289275,2.636 z m 6.144477,-14.1496 c 0.312459,0 0.490181,0.7876 0.504948,1.526 0.01473,0.7384 -0.157953,1.2566 -0.372156,1.6399 -0.177411,-0.5676 -0.263154,-1.4623 -0.263154,-2.0475 0,0 -0.01304,-1.1184 0.130362,-1.1184 z m -1.832925,10.0833 c 0.217651,-0.3896 0.444103,-0.8005 0.675507,-1.2362 0.564071,-1.0668 0.920309,-1.9014 1.18563,-2.5875 0.527679,0.9601 1.184835,1.7762 1.957363,2.4301 0.09636,0.081 0.198455,0.1636 0.305687,0.2453 -1.570961,0.3109 -2.92874,0.6889 -4.124187,1.1483 z m 9.904736,-0.088 c -0.09569,0.059 -0.369768,0.095 -0.546073,0.095 -0.56898,0 -1.272968,-0.2601 -2.259875,-0.6831 0.379188,-0.028 0.726894,-0.042 1.038691,-0.042 0.570701,0 0.739759,0 1.297813,0.1397 0.558061,0.1423 0.565091,0.4315 0.469444,0.4913 z" />
      </g>
    </g>
  </g>
</svg>
