<svg height="48" width="48" xmlns="http://www.w3.org/2000/svg" xmlns:xlink="http://www.w3.org/1999/xlink"><linearGradient id="a"><stop offset="0" stop-color="#f6fbff"/><stop offset="1" stop-color="#eaeff2"/></linearGradient><linearGradient id="b" gradientTransform="matrix(1.0309825 0 0 1 -.512598 0)" gradientUnits="userSpaceOnUse" x1="17" x2="16.048658" y1="1036.3622" y2="1010.814"><stop offset="0" stop-color="#e53838"/><stop offset="1" stop-color="#f77"/></linearGradient><linearGradient id="c" gradientTransform="matrix(.84231232 0 0 1 5.501145 0)" gradientUnits="userSpaceOnUse" x1="33.461716" x2="34.116894" xlink:href="#a" y1="1013.622" y2="1037.2084"/><linearGradient id="d" gradientUnits="userSpaceOnUse" x1="29.136826" x2="29.136826" y1="1037.0211" y2="1010.814"><stop offset="0" stop-color="#e02d2d"/><stop offset="1" stop-color="#f75151"/></linearGradient><linearGradient id="e" gradientUnits="userSpaceOnUse" x1="15.122512" x2="28.881227" xlink:href="#a" y1="1024.706102" y2="1024.706102"/><g transform="matrix(1.653832805186 0 0 1.653832805186 -13.33325283703 -1670.849623946411)"><g fill-rule="evenodd"><path d="m33.754827 1036.9362h-9.759758v-24.498h9.759758c1.03617-.094 1.119548.023 1.119548 1.1721v22.0916c.06508 1.261-.111972 1.2343-1.119548 1.2343z" fill="url(#c)"/><path d="m11.563303 1036.9442h11.636697v-24.498h-11.533603c-1.268259-.094-1.782566.023-1.782566 1.1721v22.0916c-.07966 1.261.446208 1.2343 1.679472 1.2343z" fill="url(#b)"/><path d="m31.957586 1038.1035-10.029586-1.1715v-24.498l9.945906-.9205c1.230149-.094 1.296492.2446 1.296492 1.3937l-.08368 23.3688c.07726 1.261.06707 1.8275-1.129132 1.8275z" fill="url(#d)"/></g><path d="m28.658546 1026.2703c-.275024-.2709-.884974-.4144-1.813137-.4266-.628288-.01-1.3845.048-2.179905.1597-.35616-.2055-.723197-.4291-1.011383-.6984-.775127-.7238-1.422147-1.7285-1.825324-2.8333.02627-.1032.04863-.1939.06945-.2864 0 0 .436607-2.48.321032-3.3184-.0159-.115-.02569-.1484-.05661-.2378l-.03792-.097c-.118748-.2739-.3516-.5641-.716665-.5483l-.214086-.01-.0059-.0001c-.407085 0-.738874.2082-.825971.5194-.264735.976.0084 2.4362.503468 4.3274l-.126718.3081c-.354463.864-.798654 1.7343-1.190571 2.502l-.05096.1c-.412309.8069-.786427 1.4919-1.125568 2.0721l-.350168.1852c-.0255.013-.625622.3308-.766385.416-1.194131.713-1.985434 1.5224-2.116718 2.1647-.04179.2049-.01068.4672.201782.5887l.338677.1704c.146915.074.30184.1109.460557.1109.850503 0 1.8379-1.0595 3.1981-3.4333 1.570456-.5113 3.358477-.9362 4.925529-1.1706 1.194211.6724 2.66298 1.1394 3.590016 1.1394.1646 0 .306485-.016.42179-.046.177795-.047.327647-.1485.419005-.286.17984-.2707.216327-.6435.167496-1.0253-.01455-.1132-.105051-.2533-.202941-.3489zm-12.703365 4.5256c.15508-.4241.769015-1.2624 1.676744-2.0063.05707-.046.197642-.178.326372-.3003-.949245 1.514-1.584926 2.1174-2.003116 2.3066zm5.376416-12.3809c.273402 0 .428908.6892.441831 1.3352.01289.6461-.13821 1.0995-.325637 1.435-.155235-.4967-.23026-1.2796-.23026-1.7916 0 0-.01141-.9786.114066-.9786zm-1.603809 8.8229c.190445-.3409.38859-.7004.591069-1.0817.493562-.9334.80527-1.6637 1.037426-2.2641.461719.8401 1.03673 1.5542 1.712693 2.1264.08431.071.173648.1431.267476.2146-1.374591.272-2.562648.6028-3.608664 1.0048zm8.666643-.077c-.08373.052-.323546.083-.477814.083-.497856 0-1.113847-.2276-1.97739-.5978.331789-.025.636033-.037.908855-.037.499363 0 .647289 0 1.135586.1223.488303.1246.494455.3776.410763.4299z" fill="url(#e)"/></g></svg>