<svg viewBox="0 0 48 48" xmlns="http://www.w3.org/2000/svg" xmlns:xlink="http://www.w3.org/1999/xlink"><linearGradient id="a" gradientTransform="matrix(.9997764 0 0 .9863347 -.832882 5.995869)" gradientUnits="userSpaceOnUse" x1="-989.66583" x2="-1003.6364" y1="433.28394" y2="317.35452"><stop offset="0" stop-color="#1584d8"/><stop offset="1" stop-color="#1cb2ff"/></linearGradient><linearGradient id="b" gradientTransform="matrix(.99833895 0 0 .98513314 -2.169195 6.701717)" gradientUnits="userSpaceOnUse" x1="-1092.9117" x2="-1060.2551" y1="203.09911" y2="104.85291"><stop offset="0" stop-color="#6c7482"/><stop offset="1" stop-color="#868d97"/></linearGradient><g transform="translate(-384.897446 -499.850299)"><text x="300.29187" y="516.21832"><tspan x="300.29187" y="516.21832"/></text><rect fill="url(#b)" height="112.93296" ry="2.756285" transform="matrix(.309805053318 -.102797187855 .100276918558 .310629958209 716.940777695648 361.133657929255)" width="89.616432" x="-1100.9037" y="117.57415"/><rect fill="url(#a)" height="121.23898" ry="2.959004" transform="matrix(.323837268734 -.040937205262 .044984020552 .323299967707 716.940777695648 361.133657929255)" width="99.802742" x="-1046.2986" y="317.97363"/><g fill="#fff" fill-opacity=".842742" transform="matrix(.726662080357 -.125872909078 .125872909078 .726662080357 390.806782293542 510.711520511223)"><g fill="#fff" fill-opacity=".842742" transform="matrix(1.5511965 0 0 1.552208 -597.389819 -801.619437)"><circle cx="400.57138" cy="531.79791" fill="#fff" fill-opacity=".842742" r="0"/><circle cx="-354.848036793512" cy="481.913416979601" fill="#fff" fill-opacity=".842742" r="0" transform="matrix(.108621329564 0 0 .108621329564 396.375174935975 479.506408870929)"/></g><g fill="#fff" fill-opacity=".842742" transform="matrix(.03003808 0 0 .03003808 10.000002 10.000002)"><path d="m466.075 161.525c-205.6 0-382.8 121.2-464.2 296.1-2.5 5.3-2.5 11.5 0 16.9 81.4 174.899 258.601 296.1 464.2 296.1s382.8-121.2 464.2-296.1c2.5-5.3 2.5-11.5 0-16.9-81.4-174.9-258.6-296.1-464.2-296.1zm0 514.701c-116.1 0-210.1-94.101-210.1-210.101 0-116.1 94.1-210.1 210.1-210.1 116.1 0 210.1 94.1 210.1 210.1s-94.1 210.101-210.1 210.101z" fill="#fff" fill-opacity=".842742"/><circle cx="466.07501" cy="466.02499" fill="#fff" fill-opacity=".842742" r="134.5"/></g></g></g></svg>