<svg height="48" width="48" xmlns="http://www.w3.org/2000/svg" xmlns:xlink="http://www.w3.org/1999/xlink"><linearGradient id="a" gradientTransform="matrix(.9997764 0 0 .9863347 -.832882 5.995869)" gradientUnits="userSpaceOnUse" x1="-989.66583" x2="-1003.6364" y1="433.28394" y2="317.35452"><stop offset="0" stop-color="#f2b333"/><stop offset="1" stop-color="#fcde3f"/></linearGradient><linearGradient id="b" gradientTransform="matrix(.99833895 0 0 .98513314 -2.169195 6.701717)" gradientUnits="userSpaceOnUse" x1="-1092.9117" x2="-1060.2551" y1="203.09911" y2="104.85291"><stop offset="0" stop-color="#e53838"/><stop offset="1" stop-color="#f77"/></linearGradient><g transform="translate(-384.57143 -499.798)"><text x="300.29187" y="516.21832"><tspan x="300.29187" y="516.21832"/></text><rect fill="url(#b)" height="112.93296" ry="2.756285" transform="matrix(.337970107118 -.112142707714 .109393315233 .338870005937 744.854826091344 346.340728859107)" width="89.616432" x="-1100.9037" y="117.57415"/><rect fill="url(#a)" height="121.23898" ry="2.959004" transform="matrix(.353278022467 -.044658898987 .049073619097 .352691874194 744.854826091344 346.340728859107)" width="99.802742" x="-1046.2986" y="317.97363"/><path d="m15.926846 1040.1714v-1.9983c0-2.7121-2.206463-4.9187-4.918609-4.9187-2.7121476 0-4.9186118 2.2066-4.9186118 4.9187v1.9983c-.387614.081-.6796621.4259-.6796621.8373v7.4883c0 .4717.3838071.8555.8555666.8555h9.4853693c.471759 0 .855566-.3838.855566-.8555v-7.4883c0-.4114-.292003-.7559-.679619-.8373zm-3.769499 6.3834c.01745.093-.04526.1682-.139371.1682h-1.996764c-.094111 0-.1568262-.076-.1393725-.1682l.3179295-1.6849c-.2406715-.2195-.3917217-.5357-.3917217-.887 0-.6628.5373387-1.2002 1.2001897-1.2002.66285 0 1.200189.5374 1.200189 1.2002 0 .3418-.143137.6499-.372472.8686zm2.058366-6.4016h-6.4149539v-1.9801c0-1.7686 1.4388492-3.2074 3.2074779-3.2074 1.768626 0 3.207476 1.4389 3.207476 3.2074z" fill-opacity=".685484" transform="matrix(1.4302134 -.2058376 .2058376 1.4302134 181.388003220462 -962.435051676924)"/></g></svg>