<svg height="48" viewBox="0 0 48 48.000001" width="48" xmlns="http://www.w3.org/2000/svg" xmlns:xlink="http://www.w3.org/1999/xlink"><linearGradient id="a" gradientUnits="userSpaceOnUse" x1="-71.940626" x2="-71.691559" y1="1046.885971" y2="1004.544293"><stop offset="0" stop-color="#808080"/><stop offset="1" stop-color="#8a8a8e"/></linearGradient><g transform="translate(0 -1004.3622)"><rect fill-opacity=".490196" height="43.435341" rx="2.171767" transform="matrix(.99565147 -.09315658 .09315658 .99565147 0 0)" width="43.435341" x="-93.625572" y="1004.9566"/><rect fill="url(#a)" height="43.3955" rx="2.169775" transform="matrix(.99565147 -.09315658 .09315658 .99565147 0 0)" width="43.3955" x="-93.629623" y="1004.0086"/><path d="m37.291016 5.9199219-.527344.0507812c-.218778.02-.303489 1.0013188-.191406 2.1992188l.40039 4.2714841 2.226563 2.226563-.998047.957031c-.111873.107329.140678.549608.564453.994141l-.083984-.083985.144531 1.539063-1.464844-1.464844.007813.089844-9.816407-9.8164065c-.0307-.031-.060333-.0459689-.089843-.0429687l-.527344.0488281c-.218778.02-.305442 1.0032718-.193359 2.2011719l.798828 8.5292972-9.816407-9.8164066c-.03082-.031-.062227-.0459688-.091797-.0429688l-.52539.0488282c-.218778.0199999-.305442 1.0013202-.19336 2.1992182l.798829 8.53125-9.8164066-9.8164058c-.030819-.0309998-.0622319-.0459687-.0917969-.0429687l-.5273437.0488281c-.2187774.021-.3034885 1.00132-.1914063 2.1992184l.09375.994141 2.6347656 2.634766-1.078125 1.033203c-.0651348.062489.0150013.24892.1582031.472656l.1464844 1.554688-1.4667968-1.466797 2.2011718 23.537109c.096936 1.036.3086244 1.884831.5058594 2.082031l4.466797 4.466797 30.648437-2.867187c1.196829-.11198 2.070964-1.166453 1.958985-2.363282l-2.587891-27.65625-7.386719-7.3867184c-.03076-.031-.060343-.0459687-.089843-.0429687z" fill-opacity=".078431" transform="translate(0 1004.3622)"/><g fill="#2ad4ff"><path d="m37.291016 1010.2821-.527344.051c-.218778.02-.303489 1.0013-.191406 2.1992l.40039 4.2715a2.2211254 2.2211254 0 0 0 -1.283203 2.2227 2.2211254 2.2211254 0 0 0 1.671875 1.9453l1.900391 20.3203c.112082 1.1979.378879 2.1455.597656 2.125l.527344-.049c.218777-.02.303488-1.0013.191406-2.1993l-1.896484-20.2714a2.2211254 2.2211254 0 0 0 1.429687-2.2852 2.2211254 2.2211254 0 0 0 -1.828125-1.9785l-.394531-4.2246c-.112082-1.198-.378879-2.1474-.597656-2.127z"/><path d="m27.462891 1011.202-.527344.049c-.218778.02-.305442 1.0032-.193359 2.2011l1.755859 18.7696a2.2211254 2.2211254 0 0 0 -1.363281 2.2578 2.2211254 2.2211254 0 0 0 1.759765 1.9668l.539063 5.7637c.112082 1.1979.378879 2.1474.597656 2.1269l.525391-.051c.218777-.02.305441-1.0013.193359-2.1992l-.539062-5.7715a2.2211254 2.2211254 0 0 0 1.347656-2.25 2.2211254 2.2211254 0 0 0 -1.742188-1.9629l-1.757812-18.7754c-.112082-1.1979-.376926-2.1454-.595703-2.125z"/><path d="m17.632812 1012.122-.52539.049c-.218778.02-.305442 1.0013-.19336 2.1992l2.498047 26.7031a2.2211254 2.2211254 0 0 0 -1.373047 2.2598 2.2211254 2.2211254 0 0 0 2.417969 2.0059 2.2211254 2.2211254 0 0 0 2.00586-2.42 2.2211254 2.2211254 0 0 0 -1.732422-1.9609l-2.5-26.7109c-.112082-1.198-.378879-2.1455-.597657-2.125z"/><path d="m7.8046875 1013.0419-.5273437.049c-.2187774.021-.3034885 1.0013-.1914063 2.1992l.09375.9942a2.2211254 2.2211254 0 0 0 -1.3691406 2.2597 2.2211254 2.2211254 0 0 0 1.7636719 1.9688l2.2011718 23.5371c.1120822 1.1979.3788784 2.1455.5976564 2.125l.527344-.049c.218777-.021.303488-1.0013.191406-2.1992l-2.201172-23.5469a2.2211254 2.2211254 0 0 0 1.341797-2.25 2.2211254 2.2211254 0 0 0 -1.7363282-1.961l-.09375-1.0019c-.1120822-1.1979-.3788789-2.1455-.5976563-2.125z"/></g></g></svg>