<svg height="48" width="48" xmlns="http://www.w3.org/2000/svg" xmlns:xlink="http://www.w3.org/1999/xlink"><linearGradient id="a" gradientUnits="userSpaceOnUse" x1="364.678704598488" x2="362.143154831232" y1="702.884346496584" y2="537.212941731432"><stop offset="0" stop-color="#00a199"/><stop offset="1" stop-color="#00f89a" stop-opacity=".988235"/></linearGradient><g fill="#fff" fill-opacity=".854839" transform="matrix(.248537059565 -.000000000325 .000000000325 .248537059565 -66.616602303774 -130.794604675482)"><circle cx="364.59995" cy="622.82306" fill="url(#a)" fill-opacity="1" fill-rule="evenodd" r="88.517982"/><path d="m407.6962 653.47423c-1.33883-1.7593-8.87392-.83724-12.24498-.41677-1.0364.12908-1.195-.79298-.25818-1.45686 5.9934-4.32263 15.84841-3.08338 16.98439-1.62652 1.15442 1.45686-.28769 11.57004-5.9344 16.39427-.86305.74871-1.68553.34669-1.29826-.63438 1.254-3.24197 4.10502-10.50414 2.75143-12.25974m-4.36688 5.11929c-10.50414 7.92236-25.71817 12.16016-38.8262 12.16016-18.36749 0-34.90928-6.95973-47.4272-18.5519-.98108-.90731-.0996-2.14656 1.08066-1.4421 13.49899 8.05513 30.21045 12.89412 47.4567 12.89412 11.62536 0 24.43465-2.46376 36.19279-7.59411 1.78511-.76347 3.27148 1.19499 1.52693 2.52276m-31.87016-42.50707c0 5.04184.12909 9.23538-2.30515 13.70185-1.95846 3.62923-5.07135 5.86431-8.54199 5.86431-4.7394 0-7.49083-3.77308-7.49083-9.34971 0-11.00574 9.42347-13.00846 18.34166-13.00846v2.7957m12.44784 31.46445c-.80772.76347-1.98796.82248-2.91003.31719-4.09026-3.55916-4.82791-5.21518-7.08881-8.61575-6.77163 7.23266-11.55529 9.39397-20.34438 9.39397-10.38611 0-18.47813-6.69786-18.47813-20.11202 0-10.47463 5.43279-17.61877 13.15229-21.10785 6.6868-3.08338 16.05126-3.62924 23.21016-4.48122v-1.67078c0-3.06862.23236-6.69786-1.48268-9.34971-1.51218-2.37892-4.39271-3.35631-6.93022-3.35631-4.70989 0-8.90343 2.52276-9.92508 7.7527-.21761 1.16549-1.02164 2.30516-2.14656 2.36417l-11.97206-1.33884c-1.00689-.24342-2.11705-1.09541-1.84412-2.70717 2.76618-15.15502 15.87791-19.73951 27.60286-19.73951 6.00815 0 13.86044 1.67077 18.58877 6.42493 6.00816 5.86431 5.43279 13.68709 5.43279 22.20326v20.11202c0 6.05242 2.38999 8.70058 4.65457 11.97206.79298 1.15442.96633 2.56333-.0295 3.43007-2.52276 2.22033-7.0003 6.28109-9.46405 8.57149l-.0443-.0443" fill="#fff" fill-opacity=".85" fill-rule="evenodd"/></g></svg>