<svg height="48" width="48" xmlns="http://www.w3.org/2000/svg" xmlns:xlink="http://www.w3.org/1999/xlink"><linearGradient id="a" gradientUnits="userSpaceOnUse" x1="310.860038" x2="310.860038" y1="536.521347" y2="515.737944"><stop offset="0" stop-color="#3889e9"/><stop offset="1" stop-color="#5ea5fb"/></linearGradient><linearGradient id="b"><stop offset="0" stop-color="#cdd0d1"/><stop offset="1" stop-color="#f6f6f7"/></linearGradient><linearGradient id="c" gradientTransform="matrix(1.0406604 0 0 1.0496705 -19.536164 -28.090853)" gradientUnits="userSpaceOnUse" x1="304.47058" x2="304.57773" xlink:href="#b" y1="535.11115" y2="529.00409"/><linearGradient id="d" gradientUnits="userSpaceOnUse" x1="287.997887" x2="290.430107" xlink:href="#b" y1="530.170872" y2="524.277562"/><linearGradient id="e" gradientUnits="userSpaceOnUse" x1="197.273929" x2="197.089768" y1="573.6777" y2="561.418728"><stop offset="0" stop-color="#30cf41"/><stop offset="1" stop-color="#47f383"/></linearGradient><g fill="#3de467" opacity=".9" transform="matrix(2.1390318 0 0 2.1390318 -596.94089 -1101.089)"><circle cx="311.60226" cy="526.12958" fill="url(#a)" opacity="1" r="0"/><rect fill="#16a085" height="12.57857" opacity="1" ry=".519836" transform="matrix(.99990504 -.01378077 .01378077 .99990504 0 0)" width="16.715227" x="275.5434" y="521.71875"/><rect fill="url(#e)" height="12.57857" opacity="1" ry=".519836" transform="matrix(.9859804 -.16686119 .16686119 .9859804 0 0)" width="16.715227" x="188.90208" y="561.38007"/><path d="m285.47541 524.57728c-.0272.009-.0528.0219-.0762.0395-.0935.0702-.10696.18574-.0296.25888l1.32236 1.24904c-1.04273.78119-1.65104 2.04445-1.18288 3.7107 2.27497.68478 5.6783-.0401 7.60395-1.44166-.0673-1.76508-1.19774-2.74776-2.5752-3.0615l.7304-1.59996c.0442-.0969-.0115-.19892-.12463-.22883-.11305-.03-.23969.0243-.28395.12119l-.74596 1.63394c-1.04108-.13146-2.16834.0922-3.06691.62875l-1.33909-1.26562c-.058-.0549-.15055-.0699-.23233-.0444z" fill="url(#d)" fill-rule="evenodd" opacity="1"/><path d="m300.57566 530.39429a3.2473972 3.2473972 0 0 1 -3.2474 3.24739 3.2473972 3.2473972 0 0 1 -3.2474-3.24739 3.2473972 3.2473972 0 0 1 3.2474-3.2474 3.2473972 3.2473972 0 0 1 3.2474 3.2474z" fill="url(#c)" opacity="1"/><path d="m297.0831 528.69791c-.0427 0-.0692.0214-.0795.0626-.0191.0736-.0408.20994-.0643.41015-.0692.0221-.13565.0499-.20043.0837l-.30529-.23594c-.0191-.0147-.0384-.022-.0575-.022-.0324 0-.10131.0529-.20804.15814-.10674.10527-.17904.1838-.21734.23679-.0132.0191-.0203.036-.0203.0507 0 .0177.007.0356.022.0533.0986.11925.17789.22051.23678.30444-.0368.0677-.0657.13611-.0863.20381l-.411.0617c-.0162.003-.0305.0126-.0423.0288s-.0178.033-.0178.0507v.48965c0 .0192.006.0369.0178.0524s.0273.0242.0465.0271l.40424.06c.0206.0721.0508.14461.0905.21819-.0265.0368-.0662.0886-.11924.1556-.053.067-.0905.11622-.11247.14715-.0118.0162-.0178.033-.0178.0507 0 .0191.005.0359.0152.0507.0574.0795.179.20345.36449.37125.0162.0162.0344.0245.055.0245.0221 0 .0411-.008.0558-.0203l.31121-.23594c.0604.0309.12661.0577.19873.0812l.0617.40677c.00099.0191.01.0349.0254.0474.0154.0126.0335.0186.0541.0186h.49049c.0427 0 .0692-.0205.0795-.0617.0191-.0736.0398-.21079.0634-.411.0692-.0221.13652-.0499.20127-.0837l.30445.23848c.0206.0132.0399.0203.0575.0203.0324 0 .10207-.0527.20804-.1573.10603-.10451.17847-.184.21818-.23848.0133-.0147.0203-.0315.0203-.0507 0-.0191-.008-.0374-.0228-.055-.10597-.12956-.1844-.23083-.23595-.30444.0294-.0545.0584-.12177.0863-.20127l.40846-.0617c.0176-.003.0322-.0125.044-.0288.0118-.0162.0178-.033.0178-.0507v-.49049c.00003-.0191-.006-.0361-.0178-.0516s-.0273-.025-.0465-.0279l-.40339-.0617c-.0221-.0707-.0522-.14288-.0905-.21649.0265-.0368.0654-.0886.1184-.15561.053-.067.0912-.11537.11332-.1463.0118-.0162.0169-.033.0169-.0507 0-.0206-.005-.0373-.0152-.0491-.053-.0751-.17457-.20029-.36449-.37548-.0176-.0147-.0359-.022-.055-.022-.0221 0-.0401.007-.0533.0195l-.3129.23679c-.0604-.0309-.12661-.0585-.19873-.082l-.0617-.40592c-.00099-.0191-.01-.0349-.0254-.0474-.0155-.0125-.0335-.0195-.0541-.0195zm.24356 1.26344a.43298628.43298628 0 0 1  .43468.43129v.002a.43298628.43298628 0 0 1 -.43299.43299.43298628.43298628 0 0 1 -.43299-.43214.43298628.43298628 0 0 1  .4313-.43383z" fill="#818181" opacity="1" stroke-width=".027103"/></g></svg>