<?xml version="1.0" encoding="UTF-8" standalone="no"?>
<!-- Created with Inkscape (http://www.inkscape.org/) -->

<svg
   xmlns:dc="http://purl.org/dc/elements/1.1/"
   xmlns:cc="http://creativecommons.org/ns#"
   xmlns:rdf="http://www.w3.org/1999/02/22-rdf-syntax-ns#"
   xmlns:svg="http://www.w3.org/2000/svg"
   xmlns="http://www.w3.org/2000/svg"
   xmlns:xlink="http://www.w3.org/1999/xlink"
   xmlns:sodipodi="http://sodipodi.sourceforge.net/DTD/sodipodi-0.dtd"
   xmlns:inkscape="http://www.inkscape.org/namespaces/inkscape"
   width="48"
   height="48"
   id="svg5453"
   version="1.1"
   inkscape:version="0.92.1 r15371"
   sodipodi:docname="android-sdk.svg">
  <defs
     id="defs5455">
    <linearGradient
       id="linearGradient4422">
      <stop
         style="stop-color:#30cf41;stop-opacity:1"
         offset="0"
         id="stop4424" />
      <stop
         style="stop-color:#47f383;stop-opacity:1"
         offset="1"
         id="stop4426" />
    </linearGradient>
    <linearGradient
       id="linearGradient4232">
      <stop
         id="stop4234-0"
         offset="0"
         style="stop-color:#3889e9;stop-opacity:1" />
      <stop
         id="stop4236"
         offset="1"
         style="stop-color:#5ea5fb;stop-opacity:1" />
    </linearGradient>
    <linearGradient
       inkscape:collect="always"
       xlink:href="#linearGradient4232"
       id="linearGradient3426"
       x1="399.57144"
       y1="545.79797"
       x2="399.57144"
       y2="517.79797"
       gradientUnits="userSpaceOnUse"
       gradientTransform="matrix(0.74226439,0,0,0.74226439,14.272387,131.39495)" />
    <linearGradient
       inkscape:collect="always"
       id="linearGradient5461">
      <stop
         style="stop-color:#cdd0d1;stop-opacity:1"
         offset="0"
         id="stop5463" />
      <stop
         style="stop-color:#f6f6f7;stop-opacity:1"
         offset="1"
         id="stop5465" />
    </linearGradient>
    <linearGradient
       id="linearGradient4303"
       inkscape:collect="always">
      <stop
         id="stop4305"
         offset="0"
         style="stop-color:#989a9b;stop-opacity:1" />
      <stop
         id="stop4307"
         offset="1"
         style="stop-color:#f6f6f7;stop-opacity:1" />
    </linearGradient>
    <clipPath
       id="clipPath4458-7">
      <path
         d="m 69.626,12.145 -0.052,0 c -22.727,-0.292 -46.472,4.077 -46.709,4.122 -2.424,0.451 -4.946,2.974 -5.397,5.397 -0.044,0.237 -4.414,23.983 -4.122,46.71 -0.292,22.777 4.078,46.523 4.122,46.761 0.451,2.423 2.974,4.945 5.398,5.398 0.237,0.044 23.982,4.413 46.709,4.121 22.779,0.292 46.524,-4.077 46.761,-4.121 2.423,-0.452 4.946,-2.976 5.398,-5.399 0.044,-0.236 4.413,-23.981 4.121,-46.709 0.292,-22.777 -4.077,-46.523 -4.121,-46.761 -0.453,-2.423 -2.976,-4.946 -5.398,-5.397 -0.238,-0.045 -23.984,-4.414 -46.71,-4.122 z"
         id="use4460-2"
         inkscape:connector-curvature="0"
         style="fill:url(#linearGradient3441);fill-opacity:1" />
    </clipPath>
    <linearGradient
       y2="1044.3799"
       x2="13.377196"
       y1="1044.3799"
       x1="2.3531249"
       gradientUnits="userSpaceOnUse"
       id="linearGradient3441"
       xlink:href="#linearGradient4303"
       inkscape:collect="always" />
    <filter
       id="filter3653"
       style="color-interpolation-filters:sRGB;"
       inkscape:menu-tooltip="Blend an image with its hue opposite"
       inkscape:menu="Color"
       inkscape:label="Blend Opposites">
      <feColorMatrix
         id="feColorMatrix3655"
         in="SourceGraphic"
         result="fbSourceGraphic"
         values="180"
         type="hueRotate" />
      <feColorMatrix
         id="feColorMatrix3657"
         result="result1"
         in="SourceGraphic"
         values="1 0 0 0 0 0 1 0 0 0 0 0 1 0 0 -0.2125 -0.7154 -0.0721 1 0 " />
      <feColorMatrix
         id="feColorMatrix3659"
         values="0"
         type="hueRotate" />
      <feColorMatrix
         id="feColorMatrix3661"
         result="result3"
         values="1 0 0 0 0 0 1 0 0 0 0 0 1 0 0 0 0 0 1 0 " />
      <feComposite
         id="feComposite3663"
         operator="atop"
         result="result6"
         in2="result3" />
      <feComposite
         id="feComposite3665"
         result="result4"
         in="result6"
         k3="0.5"
         k1="0.5"
         k2="0.5"
         operator="arithmetic"
         in2="result6" />
      <feBlend
         id="feBlend3667"
         in="result4"
         result="result2"
         mode="normal"
         in2="fbSourceGraphic" />
      <feComposite
         id="feComposite3669"
         result="result5"
         k2="1"
         operator="arithmetic"
         in2="result2" />
      <feComposite
         id="feComposite3671"
         result="result5"
         operator="in"
         in2="SourceGraphic" />
    </filter>
    <filter
       id="filter3673"
       inkscape:label="Greyscale"
       style="color-interpolation-filters:sRGB;">
      <feColorMatrix
         id="feColorMatrix3675"
         values="0.21 0.72 0.072 0 0 0.21 0.72 0.072 0 0 0.21 0.72 0.072 0 0 0 0 0 1 0 " />
    </filter>
    <linearGradient
       inkscape:collect="always"
       xlink:href="#linearGradient5461"
       id="linearGradient6446"
       gradientUnits="userSpaceOnUse"
       x1="304.47058"
       y1="535.11115"
       x2="304.57773"
       y2="529.00409"
       gradientTransform="matrix(1.0406604,0,0,1.0496705,1.3914036,-28.062593)" />
    <linearGradient
       inkscape:collect="always"
       xlink:href="#linearGradient5461"
       id="linearGradient6473"
       gradientUnits="userSpaceOnUse"
       gradientTransform="matrix(1.0406604,0,0,1.0496705,-19.536164,-28.090853)"
       x1="304.47058"
       y1="535.11115"
       x2="304.57773"
       y2="529.00409" />
    <linearGradient
       id="linearGradient4853">
      <stop
         id="stop4855"
         offset="0"
         style="stop-color:#3771c8;stop-opacity:1;" />
      <stop
         id="stop4857"
         offset="1"
         style="stop-color:#28a7c8;stop-opacity:1;" />
    </linearGradient>
    <clipPath
       id="clipPath4458-7-1">
      <path
         d="m 69.626,12.145 -0.052,0 c -22.727,-0.292 -46.472,4.077 -46.709,4.122 -2.424,0.451 -4.946,2.974 -5.397,5.397 -0.044,0.237 -4.414,23.983 -4.122,46.71 -0.292,22.777 4.078,46.523 4.122,46.761 0.451,2.423 2.974,4.945 5.398,5.398 0.237,0.044 23.982,4.413 46.709,4.121 22.779,0.292 46.524,-4.077 46.761,-4.121 2.423,-0.452 4.946,-2.976 5.398,-5.399 0.044,-0.236 4.413,-23.981 4.121,-46.709 0.292,-22.777 -4.077,-46.523 -4.121,-46.761 -0.453,-2.423 -2.976,-4.946 -5.398,-5.397 -0.238,-0.045 -23.984,-4.414 -46.71,-4.122 z"
         id="use4460-2-2"
         inkscape:connector-curvature="0"
         style="fill:url(#linearGradient3441);fill-opacity:1" />
    </clipPath>
    <filter
       id="filter3653-1"
       style="color-interpolation-filters:sRGB;"
       inkscape:menu-tooltip="Blend an image with its hue opposite"
       inkscape:menu="Color"
       inkscape:label="Blend Opposites">
      <feColorMatrix
         id="feColorMatrix3655-9"
         in="SourceGraphic"
         result="fbSourceGraphic"
         values="180"
         type="hueRotate" />
      <feColorMatrix
         id="feColorMatrix3657-4"
         result="result1"
         in="SourceGraphic"
         values="1 0 0 0 0 0 1 0 0 0 0 0 1 0 0 -0.2125 -0.7154 -0.0721 1 0 " />
      <feColorMatrix
         id="feColorMatrix3659-7"
         values="0"
         type="hueRotate" />
      <feColorMatrix
         id="feColorMatrix3661-8"
         result="result3"
         values="1 0 0 0 0 0 1 0 0 0 0 0 1 0 0 0 0 0 1 0 " />
      <feComposite
         id="feComposite3663-4"
         operator="atop"
         result="result6"
         in2="result3" />
      <feComposite
         id="feComposite3665-5"
         result="result4"
         in="result6"
         k3="0.5"
         k1="0.5"
         k2="0.5"
         operator="arithmetic"
         in2="result6" />
      <feBlend
         id="feBlend3667-0"
         in="result4"
         result="result2"
         mode="normal"
         in2="fbSourceGraphic" />
      <feComposite
         id="feComposite3669-3"
         result="result5"
         k2="1"
         operator="arithmetic"
         in2="result2" />
      <feComposite
         id="feComposite3671-6"
         result="result5"
         operator="in"
         in2="SourceGraphic" />
    </filter>
    <filter
       id="filter3673-1"
       inkscape:label="Greyscale"
       style="color-interpolation-filters:sRGB;">
      <feColorMatrix
         id="feColorMatrix3675-0"
         values="0.21 0.72 0.072 0 0 0.21 0.72 0.072 0 0 0.21 0.72 0.072 0 0 0 0 0 1 0 " />
    </filter>
    <linearGradient
       gradientUnits="userSpaceOnUse"
       y2="36.947357"
       x2="63.682938"
       y1="22.802521"
       x1="45.32296"
       id="linearGradient6058"
       xlink:href="#linearGradient6056"
       inkscape:collect="always" />
    <linearGradient
       id="linearGradient6056"
       inkscape:collect="always">
      <stop
         id="stop6052"
         offset="0"
         style="stop-color:#000000;stop-opacity:1;" />
      <stop
         id="stop6054"
         offset="1"
         style="stop-color:#000000;stop-opacity:0;" />
    </linearGradient>
    <clipPath
       id="clipPath6129"
       clipPathUnits="userSpaceOnUse">
      <rect
         ry="2.6726952"
         rx="2.6726952"
         style="fill:#5fbcd3;stroke:#4bbbdb;stroke-width:0.26189262;stroke-opacity:0;display:inline"
         y="6.9476247"
         x="6.9476585"
         height="39.021347"
         width="39.021347"
         id="rect6131" />
    </clipPath>
    <clipPath
       id="clipPath6125"
       clipPathUnits="userSpaceOnUse">
      <rect
         ry="2.6726952"
         rx="2.6726952"
         style="fill:#5fbcd3;stroke:#4bbbdb;stroke-width:0.26189262;stroke-opacity:0;display:inline"
         y="6.9476247"
         x="6.9476585"
         height="39.021347"
         width="39.021347"
         id="rect6127" />
    </clipPath>
    <linearGradient
       y2="24.813152"
       x2="47.023422"
       y1="22.802521"
       x1="45.32296"
       gradientUnits="userSpaceOnUse"
       id="linearGradient3837"
       xlink:href="#linearGradient6056"
       inkscape:collect="always" />
    <linearGradient
       inkscape:collect="always"
       xlink:href="#linearGradient5461"
       id="linearGradient6653"
       x1="309.27487"
       y1="530.19916"
       x2="311.70709"
       y2="524.30585"
       gradientUnits="userSpaceOnUse"
       gradientTransform="translate(-21.276983,-0.02828793)" />
    <linearGradient
       gradientTransform="matrix(0.34655752,0,0,0.34655752,193.97075,558.29971)"
       gradientUnits="userSpaceOnUse"
       y2="9"
       x2="9.0000019"
       y1="44.373558"
       x1="9.5314026"
       id="linearGradient4859"
       xlink:href="#linearGradient4422"
       inkscape:collect="always" />
    <clipPath
       id="clipPath4458-7-9">
      <path
         d="m 69.626,12.145 -0.052,0 c -22.727,-0.292 -46.472,4.077 -46.709,4.122 -2.424,0.451 -4.946,2.974 -5.397,5.397 -0.044,0.237 -4.414,23.983 -4.122,46.71 -0.292,22.777 4.078,46.523 4.122,46.761 0.451,2.423 2.974,4.945 5.398,5.398 0.237,0.044 23.982,4.413 46.709,4.121 22.779,0.292 46.524,-4.077 46.761,-4.121 2.423,-0.452 4.946,-2.976 5.398,-5.399 0.044,-0.236 4.413,-23.981 4.121,-46.709 0.292,-22.777 -4.077,-46.523 -4.121,-46.761 -0.453,-2.423 -2.976,-4.946 -5.398,-5.397 -0.238,-0.045 -23.984,-4.414 -46.71,-4.122 z"
         id="use4460-2-1"
         inkscape:connector-curvature="0"
         style="fill:url(#linearGradient3441);fill-opacity:1" />
    </clipPath>
    <filter
       id="filter3653-2"
       style="color-interpolation-filters:sRGB;"
       inkscape:menu-tooltip="Blend an image with its hue opposite"
       inkscape:menu="Color"
       inkscape:label="Blend Opposites">
      <feColorMatrix
         id="feColorMatrix3655-7"
         in="SourceGraphic"
         result="fbSourceGraphic"
         values="180"
         type="hueRotate" />
      <feColorMatrix
         id="feColorMatrix3657-0"
         result="result1"
         in="SourceGraphic"
         values="1 0 0 0 0 0 1 0 0 0 0 0 1 0 0 -0.2125 -0.7154 -0.0721 1 0 " />
      <feColorMatrix
         id="feColorMatrix3659-9"
         values="0"
         type="hueRotate" />
      <feColorMatrix
         id="feColorMatrix3661-3"
         result="result3"
         values="1 0 0 0 0 0 1 0 0 0 0 0 1 0 0 0 0 0 1 0 " />
      <feComposite
         id="feComposite3663-6"
         operator="atop"
         result="result6"
         in2="result3" />
      <feComposite
         id="feComposite3665-0"
         result="result4"
         in="result6"
         k3="0.5"
         k1="0.5"
         k2="0.5"
         operator="arithmetic"
         in2="result6" />
      <feBlend
         id="feBlend3667-6"
         in="result4"
         result="result2"
         mode="normal"
         in2="fbSourceGraphic" />
      <feComposite
         id="feComposite3669-2"
         result="result5"
         k2="1"
         operator="arithmetic"
         in2="result2" />
      <feComposite
         id="feComposite3671-61"
         result="result5"
         operator="in"
         in2="SourceGraphic" />
    </filter>
    <filter
       id="filter3673-8"
       inkscape:label="Greyscale"
       style="color-interpolation-filters:sRGB;">
      <feColorMatrix
         id="feColorMatrix3675-7"
         values="0.21 0.72 0.072 0 0 0.21 0.72 0.072 0 0 0.21 0.72 0.072 0 0 0 0 0 1 0 " />
    </filter>
    <clipPath
       id="clipPath6129-0"
       clipPathUnits="userSpaceOnUse">
      <rect
         ry="2.6726952"
         rx="2.6726952"
         style="fill:#5fbcd3;stroke:#4bbbdb;stroke-width:0.26189262;stroke-opacity:0;display:inline"
         y="6.9476247"
         x="6.9476585"
         height="39.021347"
         width="39.021347"
         id="rect6131-2" />
    </clipPath>
    <clipPath
       id="clipPath6125-3"
       clipPathUnits="userSpaceOnUse">
      <rect
         ry="2.6726952"
         rx="2.6726952"
         style="fill:#5fbcd3;stroke:#4bbbdb;stroke-width:0.26189262;stroke-opacity:0;display:inline"
         y="6.9476247"
         x="6.9476585"
         height="39.021347"
         width="39.021347"
         id="rect6127-7" />
    </clipPath>
  </defs>
  <sodipodi:namedview
     id="base"
     pagecolor="#5a5a5a"
     bordercolor="#666666"
     borderopacity="1.0"
     inkscape:pageopacity="0"
     inkscape:pageshadow="2"
     inkscape:zoom="7.9999996"
     inkscape:cx="3.0973668"
     inkscape:cy="20.60583"
     inkscape:document-units="px"
     inkscape:current-layer="g4559"
     showgrid="false"
     fit-margin-top="0"
     fit-margin-left="0"
     fit-margin-right="0"
     fit-margin-bottom="0"
     inkscape:window-width="1362"
     inkscape:window-height="642"
     inkscape:window-x="0"
     inkscape:window-y="33"
     inkscape:window-maximized="0"
     inkscape:showpageshadow="false"
     borderlayer="true"
     showguides="false"
     inkscape:snap-bbox="true"
     inkscape:bbox-paths="false"
     inkscape:bbox-nodes="true"
     inkscape:object-nodes="true"
     inkscape:snap-center="true"
     showborder="true">
    <inkscape:grid
       type="xygrid"
       id="grid4063" />
    <sodipodi:guide
       position="1.1650391e-05,47.999996"
       orientation="4,0"
       id="guide4146"
       inkscape:locked="false" />
    <sodipodi:guide
       position="1.1650391e-05,43.999996"
       orientation="0,48"
       id="guide4148"
       inkscape:locked="false" />
    <sodipodi:guide
       position="48.000012,43.999996"
       orientation="-4,0"
       id="guide4150"
       inkscape:locked="false" />
    <sodipodi:guide
       position="48.000012,47.999996"
       orientation="0,-48"
       id="guide4152"
       inkscape:locked="false" />
    <sodipodi:guide
       position="1.1650391e-05,4.0000264"
       orientation="4,0"
       id="guide4154"
       inkscape:locked="false" />
    <sodipodi:guide
       position="1.1650391e-05,2.6367188e-05"
       orientation="0,48"
       id="guide4156"
       inkscape:locked="false" />
    <sodipodi:guide
       position="48.000012,2.6367188e-05"
       orientation="-4,0"
       id="guide4158"
       inkscape:locked="false" />
    <sodipodi:guide
       position="48.000012,4.0000264"
       orientation="0,-48"
       id="guide4160"
       inkscape:locked="false" />
    <sodipodi:guide
       position="48.000012,48.000026"
       orientation="0,-4"
       id="guide4162"
       inkscape:locked="false" />
    <sodipodi:guide
       position="44.000012,48.000026"
       orientation="48,0"
       id="guide4164"
       inkscape:locked="false" />
    <sodipodi:guide
       position="44.000012,2.6367188e-05"
       orientation="0,4"
       id="guide4166"
       inkscape:locked="false" />
    <sodipodi:guide
       position="48.000012,2.6367188e-05"
       orientation="-48,0"
       id="guide4168"
       inkscape:locked="false" />
    <sodipodi:guide
       position="4.0000422,48.000026"
       orientation="0,-4"
       id="guide4170"
       inkscape:locked="false" />
    <sodipodi:guide
       position="4.2167969e-05,48.000026"
       orientation="48,0"
       id="guide4172"
       inkscape:locked="false" />
    <sodipodi:guide
       position="4.2167969e-05,2.6367188e-05"
       orientation="0,4"
       id="guide4174"
       inkscape:locked="false" />
    <sodipodi:guide
       position="4.0000422,43.999996"
       orientation="39.999969,0"
       id="guide4175"
       inkscape:locked="false" />
    <sodipodi:guide
       position="4.0000422,4.0000264"
       orientation="0,20"
       id="guide4177"
       inkscape:locked="false" />
    <sodipodi:guide
       position="24.000042,4.0000264"
       orientation="-39.999969,0"
       id="guide4179"
       inkscape:locked="false" />
    <sodipodi:guide
       position="24.000042,43.999996"
       orientation="0,-20"
       id="guide4181"
       inkscape:locked="false" />
    <sodipodi:guide
       position="4.0000422,23.999843"
       orientation="20,0"
       id="guide4185"
       inkscape:locked="false" />
    <sodipodi:guide
       position="44.000012,3.9998433"
       orientation="-20,0"
       id="guide4189"
       inkscape:locked="false" />
    <sodipodi:guide
       position="44.000012,23.999843"
       orientation="0,-39.999969"
       id="guide4191"
       inkscape:locked="false" />
  </sodipodi:namedview>
  <metadata
     id="metadata5458">
    <rdf:RDF>
      <cc:Work
         rdf:about="">
        <dc:format>image/svg+xml</dc:format>
        <dc:type
           rdf:resource="http://purl.org/dc/dcmitype/StillImage" />
        <dc:title />
      </cc:Work>
    </rdf:RDF>
  </metadata>
  <g
     inkscape:label="Layer 1"
     inkscape:groupmode="layer"
     id="layer1"
     transform="translate(-384.57143,-499.798)">
    <g
       id="g4471"
       transform="matrix(1.0931221,0,0,1.0931221,33.310366,-50.486049)">
      <g
         inkscape:label="Layer 1"
         id="layer1-39"
         transform="matrix(1.5444819,0,0,1.5444819,-275.38426,-295.80854)" />
      <g
         id="g4541"
         transform="matrix(1.9805395,0,0,1.9805395,-273.6842,-523.02827)"
         style="opacity:0.9">
        <g
           id="g4567"
           transform="translate(-0.04626873,-0.12047652)">
          <g
             id="g4626"
             transform="matrix(1.0665866,0,0,1.0665866,-20.750224,-35.260032)">
            <g
               style="fill:#3de467;fill-opacity:1"
               id="g4559"
               transform="matrix(1.0001786,0,0,1.0001786,-0.05342985,3.2506536)">
              <g
                 id="g5423"
                 transform="translate(21.276986,0.14520825)">
                <circle
                   style="opacity:1;fill:url(#linearGradient3426);fill-opacity:1;stroke:none;stroke-width:0.96486712;stroke-miterlimit:4;stroke-dasharray:none;stroke-dashoffset:0;stroke-opacity:1"
                   id="ellipse4233"
                   cx="311.60226"
                   cy="526.12958"
                   r="0" />
                <rect
                   transform="rotate(-0.78960504)"
                   ry="0.51983631"
                   y="521.71875"
                   x="275.5434"
                   height="12.57857"
                   width="16.715227"
                   id="rect4851"
                   style="opacity:1;fill:#16a085;fill-opacity:1;stroke:none;stroke-width:0.51983631;stroke-linecap:round;stroke-linejoin:round;stroke-miterlimit:4;stroke-dasharray:none;stroke-opacity:1" />
                <rect
                   transform="rotate(-9.6053719)"
                   ry="0.51983631"
                   y="561.38007"
                   x="188.90208"
                   height="12.57857"
                   width="16.715227"
                   id="rect4851-2-2"
                   style="opacity:1;fill:url(#linearGradient4859);fill-opacity:1;stroke:none;stroke-width:0.51983631;stroke-linecap:round;stroke-linejoin:round;stroke-miterlimit:4;stroke-dasharray:none;stroke-opacity:1" />
                <path
                   style="opacity:1;fill:url(#linearGradient6653);fill-opacity:1;fill-rule:evenodd;stroke:none;stroke-width:0.95849049px;stroke-linecap:butt;stroke-linejoin:miter;stroke-opacity:1"
                   d="m 285.47541,524.57728 c -0.0272,0.009 -0.0528,0.0219 -0.0762,0.0395 -0.0935,0.0702 -0.10696,0.18574 -0.0296,0.25888 l 1.32236,1.24904 c -1.04273,0.78119 -1.65104,2.04445 -1.18288,3.7107 2.27497,0.68478 5.6783,-0.0401 7.60395,-1.44166 -0.0673,-1.76508 -1.19774,-2.74776 -2.5752,-3.0615 l 0.7304,-1.59996 c 0.0442,-0.0969 -0.0115,-0.19892 -0.12463,-0.22883 -0.11305,-0.03 -0.23969,0.0243 -0.28395,0.12119 l -0.74596,1.63394 c -1.04108,-0.13146 -2.16834,0.0922 -3.06691,0.62875 l -1.33909,-1.26562 c -0.058,-0.0549 -0.15055,-0.0699 -0.23233,-0.0444 z"
                   id="path4517-3"
                   inkscape:connector-curvature="0" />
                <path
                   id="path6436"
                   d="m 300.57566,530.39429 a 3.2473972,3.2473972 0 0 1 -3.2474,3.24739 3.2473972,3.2473972 0 0 1 -3.2474,-3.24739 3.2473972,3.2473972 0 0 1 3.2474,-3.2474 3.2473972,3.2473972 0 0 1 3.2474,3.2474 z"
                   style="opacity:1;fill:url(#linearGradient6473);fill-opacity:1;fill-rule:nonzero;stroke:none;stroke-width:0.90507627;stroke-linecap:butt;stroke-linejoin:round;stroke-miterlimit:4;stroke-dasharray:none;stroke-dashoffset:0;stroke-opacity:1"
                   inkscape:connector-curvature="0" />
                <path
                   id="path4463-0-2-3-6"
                   d="m 297.0831,528.69791 c -0.0427,0 -0.0692,0.0214 -0.0795,0.0626 -0.0191,0.0736 -0.0408,0.20994 -0.0643,0.41015 -0.0692,0.0221 -0.13565,0.0499 -0.20043,0.0837 l -0.30529,-0.23594 c -0.0191,-0.0147 -0.0384,-0.022 -0.0575,-0.022 -0.0324,0 -0.10131,0.0529 -0.20804,0.15814 -0.10674,0.10527 -0.17904,0.1838 -0.21734,0.23679 -0.0132,0.0191 -0.0203,0.036 -0.0203,0.0507 0,0.0177 0.007,0.0356 0.022,0.0533 0.0986,0.11925 0.17789,0.22051 0.23678,0.30444 -0.0368,0.0677 -0.0657,0.13611 -0.0863,0.20381 l -0.411,0.0617 c -0.0162,0.003 -0.0305,0.0126 -0.0423,0.0288 -0.0118,0.0162 -0.0178,0.033 -0.0178,0.0507 v 0.48965 c 0,0.0192 0.006,0.0369 0.0178,0.0524 0.0118,0.0155 0.0273,0.0242 0.0465,0.0271 l 0.40424,0.06 c 0.0206,0.0721 0.0508,0.14461 0.0905,0.21819 -0.0265,0.0368 -0.0662,0.0886 -0.11924,0.1556 -0.053,0.067 -0.0905,0.11622 -0.11247,0.14715 -0.0118,0.0162 -0.0178,0.033 -0.0178,0.0507 0,0.0191 0.005,0.0359 0.0152,0.0507 0.0574,0.0795 0.179,0.20345 0.36449,0.37125 0.0162,0.0162 0.0344,0.0245 0.055,0.0245 0.0221,0 0.0411,-0.008 0.0558,-0.0203 l 0.31121,-0.23594 c 0.0604,0.0309 0.12661,0.0577 0.19873,0.0812 l 0.0617,0.40677 c 9.9e-4,0.0191 0.01,0.0349 0.0254,0.0474 0.0154,0.0126 0.0335,0.0186 0.0541,0.0186 h 0.49049 c 0.0427,0 0.0692,-0.0205 0.0795,-0.0617 0.0191,-0.0736 0.0398,-0.21079 0.0634,-0.411 0.0692,-0.0221 0.13652,-0.0499 0.20127,-0.0837 l 0.30445,0.23848 c 0.0206,0.0132 0.0399,0.0203 0.0575,0.0203 0.0324,0 0.10207,-0.0527 0.20804,-0.1573 0.10603,-0.10451 0.17847,-0.184 0.21818,-0.23848 0.0133,-0.0147 0.0203,-0.0315 0.0203,-0.0507 0,-0.0191 -0.008,-0.0374 -0.0228,-0.055 -0.10597,-0.12956 -0.1844,-0.23083 -0.23595,-0.30444 0.0294,-0.0545 0.0584,-0.12177 0.0863,-0.20127 l 0.40846,-0.0617 c 0.0176,-0.003 0.0322,-0.0125 0.044,-0.0288 0.0118,-0.0162 0.0178,-0.033 0.0178,-0.0507 v -0.49049 c 3e-5,-0.0191 -0.006,-0.0361 -0.0178,-0.0516 -0.0118,-0.0155 -0.0273,-0.025 -0.0465,-0.0279 l -0.40339,-0.0617 c -0.0221,-0.0707 -0.0522,-0.14288 -0.0905,-0.21649 0.0265,-0.0368 0.0654,-0.0886 0.1184,-0.15561 0.053,-0.067 0.0912,-0.11537 0.11332,-0.1463 0.0118,-0.0162 0.0169,-0.033 0.0169,-0.0507 0,-0.0206 -0.005,-0.0373 -0.0152,-0.0491 -0.053,-0.0751 -0.17457,-0.20029 -0.36449,-0.37548 -0.0176,-0.0147 -0.0359,-0.022 -0.055,-0.022 -0.0221,0 -0.0401,0.007 -0.0533,0.0195 l -0.3129,0.23679 c -0.0604,-0.0309 -0.12661,-0.0585 -0.19873,-0.082 l -0.0617,-0.40592 c -9.9e-4,-0.0191 -0.01,-0.0349 -0.0254,-0.0474 -0.0155,-0.0125 -0.0335,-0.0195 -0.0541,-0.0195 z m 0.24356,1.26344 a 0.43298628,0.43298628 0 0 1 0.43468,0.43129 v 0.002 a 0.43298628,0.43298628 0 0 1 -0.43299,0.43299 0.43298628,0.43298628 0 0 1 -0.43299,-0.43214 0.43298628,0.43298628 0 0 1 0.4313,-0.43383 z"
                   style="opacity:1;fill:#818181;fill-opacity:1;stroke-width:0.02710313"
                   inkscape:connector-curvature="0" />
              </g>
            </g>
          </g>
        </g>
      </g>
    </g>
  </g>
</svg>
