<svg height="48" width="48" xmlns="http://www.w3.org/2000/svg" xmlns:xlink="http://www.w3.org/1999/xlink">
  <linearGradient id="a" gradientTransform="matrix(.34053124 0 0 .3359529 361.89188 -99.294265)" gradientUnits="userSpaceOnUse" x1="-1062.4796" x2="-940.04919" y1="430.95441" y2="315.57651">
    <stop offset="0" stop-color="#e7f0f4" />
    <stop offset="1" stop-color="#f4faff" />
  </linearGradient>
  <linearGradient id="b" gradientUnits="userSpaceOnUse" x1="-4.74805" x2="43.39045" y1="46.589491" y2="16.234104">
    <stop offset="0" stop-color="#a9a3d4" />
    <stop offset=".47001833" stop-color="#87baff" />
    <stop offset="1" stop-color="#89ec85" />
  </linearGradient>
  <text stroke-width=".956522" x="-130.07805" y="4.989956">
    <tspan stroke-width=".956522" x="-130.07805" y="4.989956" />
  </text>
  <rect fill="url(#b)" height="38.465801" ry=".938811" stroke-width=".340607" transform="matrix(.94911544 -.31492838 .30720731 .95164262 0 0)" width="30.524019" x="-1.525046" y="10.433114" />
  <rect fill="url(#a)" height="41.294895" ry="1.007859" stroke-width=".340607" transform="matrix(.99210439 -.12541482 .1378126 .99045832 0 0)" width="33.993553" x="5.798525" y="6.967673" />
  <path d="m34.870229 22.060669c-.06813-.266445-.311953-.380492-.732039-.34214l-5.622867.597851-3.686421-4.292668c-.212153-.260267-.426445-.362658-.642387-.307444-.21594.05522-.354652.247867-.41597.578057l-1.173617 5.535342-5.21999 2.174585c-.386541.16789-.545829.385015-.4777.65146.03867.151251.172879.301095.402584.449399l4.908743 2.817981.452013 5.637417c.01134.104573.02263.178515.03364.221599.03868.15125.109093.269245.211394.354515.102269.08514.228927.108253.380178.06957.129642-.03315.262621-.11291.398898-.239974l4.197278-3.788851 5.50119 1.309028c.173482.04772.328458.054.464994.01908.144359-.03692.240697-.116911.289515-.240814.04872-.123744.05381-.261192.01515-.412441-.02393-.09359-.04592-.164649-.06612-.213294l-2.309572-5.162455 2.942772-4.825551c.13958-.235102.188836-.431856.148332-.590264z" fill="#4d4d4d" stroke-width=".180256" />
  <text stroke-width=".876809" x="-41.655247" y="57.968491">
    <tspan stroke-width=".876809" x="-41.655247" y="57.968491" />
  </text>
  <g transform="matrix(.9565217 0 0 .9565217 49.096538 1.789242)">
    <g stroke-width=".129339">
      <path d="m-39.473488 10.861005q-.144743.01839-.256937-.04844-.112441-.06868-.173741-.209857l.147629-.08475q.08602.202145.269731.178805.118762-.01509.172185-.09918.05505-.08619.03831-.217941l-.11552-.9092732.170713-.02169.115049.9055622q.02758.217112-.07794.351197-.103909.131994-.28948.155571z" />
      <path d="m-38.878043 9.9424878q.114077-.155915.318201-.181848.204111-.02593.353552.0965.149192.12058.175596.3284142.02641.207834-.08766.363746-.114313.154058-.318425.17999-.204124.02593-.353328-.09465-.149428-.122435-.175833-.33027-.0264-.207834.0879-.3618902zm.200453.5685002q.100387.07776.221009.06243.120609-.01532.196516-.115476.07752-.102244.05866-.250697-.01886-.148453-.119247-.2262072-.09878-.07985-.219385-.06452-.120621.01532-.19814.1175692-.07591.100152-.05705.248605.01886.148453.117636.228299z" />
      <path d="m-37.793117 9.4614688q-.03078.03974-.08088.0461-.05009.0064-.08983-.02441-.03974-.03078-.0461-.08088-.0064-.0501.02441-.08984.03078-.03974.08087-.0461.0501-.0064.08984.02441.03974.03078.0461.08088.0064.0501-.02441.08984zm.144519 1.1375192-.170713.02169-.115521-.9092732.170713-.02169z" />
      <path d="m-37.376836 9.6405118.01603.126185.0074-.000945q.02886-.06966.102992-.124336.0739-.05653.164831-.06808.168866-.02145.271139.07115.102273.0926.124434.267033l.07073.5566972-.170726.02169-.06743-.5307172q-.03206-.252371-.256601-.223844-.105763.01344-.161728.107286-.05619.09199-.04204.2033312l.06389.502883-.170725.02169-.115521-.9092732.163297-.02075z" />
      <path d="m-35.209566 10.289116-.163297.02075-.01603-.126183-.0074.000945q-.03073.0699-.104616.126427-.07414.05467-.163207.06599-.170726.02169-.272999-.07091-.100413-.09284-.122574-.267269l-.07073-.5566992.170713-.02169.06719.528863q.0323.2542262.256836.2256992.105777-.01344.161729-.107285.05597-.09385.04182-.2051892l-.06365-.501028.170713-.02169.115521.9092732z" />
      <path d="m-34.669302 10.250647q-.15216.01933-.261798-.04216-.107778-.06173-.168319-.167176l.144144-.08242q.09407.161525.268501.139364.0798-.01014.125406-.05176.04748-.04186.04018-.09938-.01132-.08907-.139654-.104822l-.189368-.0212q-.09004-.01119-.175767-.06252-.08595-.05319-.09939-.158964-.01533-.120618.08102-.208282.09796-.08976.244549-.10838.120622-.01532.222334.02832.101476.04179.15527.138664l-.140671.0801q-.06543-.114252-.223157-.09421-.07609.0097-.124042.04781-.04794.03815-.04111.09196.0099.07794.13406.09045l.185411.01981q.131823.01342.202246.07801.07044.06459.08199.155517.01556.122473-.07428.216854-.08984.09438-.247563.114419z" />
      <path d="m-33.709004 9.1745238.01603.126186.0074-.000946q.02887-.06966.103004-.124337.0739-.05653.164819-.06808.168865-.02145.271139.07115.102273.0926.124434.267032l.07073.5566982-.170713.02169-.06743-.5307172q-.03206-.252371-.256601-.223844-.105776.01344-.161728.107285-.0562.09199-.04206.203333l.06389.5028832-.170713.02169-.11552-.9092732.163296-.02075z" />
      <path d="m-32.771038 9.1666098q.114064-.155913.318188-.181846.204125-.02593.353565.0965.149192.12058.175597.328414.0264.207835-.08766.363746-.114313.154058-.318437.179992-.204124.02593-.353316-.09465-.149427-.122436-.175832-.330271-.02641-.207833.08789-.36189zm.200454.5685q.100387.07776.220996.06243.120621-.01532.196516-.115476.07753-.102246.05867-.250698-.01886-.148453-.119261-.226206-.09876-.07985-.219384-.06452-.120609.01532-.198128.117567-.07591.100153-.05705.248606.01886.148452.117636.228298z" />
      <path d="m-30.732525 9.7203208-.174434.02216-.31503-.668966-.135893.726255-.172574.02192-.408715-.872024.178142-.02263.289493.660897.0018-.000228.137308-.715121.176282-.0224.311767.658067.0018-.000228.113173-.712055.174434-.02216-.177675.946522z" />
      <path d="m-29.627222 9.6100648q-.144731.01839-.2537-.05262-.107096-.07125-.124542-.208565-.01886-.148453.08558-.246575.104208-.09998.273073-.121431.150299-.0191.253872.02431l-.0033-.02598q-.01273-.100205-.08893-.150863-.07645-.05251-.176645-.03978-.07423.0094-.130988.05247-.0549.0428-.0694.106869l-.164355-.047q.02116-.08566.105234-.166104.08382-.0823.23598-.101633.174433-.02216.302453.06528.12802.08744.151596.273009l.06978.549275-.163296.02075-.01603-.126184-.0074.000945q-.08225.16884-.27896.193831zm.008-.159412q.105777-.01344.181225-.10222.07709-.09088.06341-.198503-.07992-.05019-.224653-.0318-.12433.0158-.180594.07763-.05625.06183-.04706.1342.0085.06681.07096.09846.06248.03166.136709.02223z" />
      <path d="m-28.921267 8.5662558.01603.126185.0074-.000945q.02886-.06966.102991-.124335.0739-.05653.164832-.06808.168865-.02145.271138.07115.102274.0926.124435.267032l.07073.556697-.170726.02169-.06743-.530717q-.03206-.25237-.256588-.223845-.105777.01344-.161742.107287-.05619.09199-.04204.203331l.06389.502883-.170726.02169-.11552-.909273.163296-.02075z" />
      <path d="m-27.577294 9.3496268q-.176282.0224-.322014-.100509-.14572-.122908-.171889-.328886-.02617-.205978.08419-.361419.110369-.155443.28665-.177839.103916-.0132.191229.02096.08916.03393.138475.09554l.0074-.000945-.02347-.12524-.05328-.419379.170713-.02169.168801 1.328652-.163296.02075-.01603-.126184-.0074.000945q-.03234.07199-.110184.127135-.076.05491-.179913.06811zm.008-.159411q.120609-.01532.192795-.115004.07405-.09992.05495-.250226-.0191-.150308-.115775-.228534-.09482-.07846-.215428-.06314-.118774.01509-.192572.116861-.07405.09992-.05519.248369.01886.148452.115776.228535.09667.07823.21544.06314z" />
      <path d="m-26.14124 9.1671808q-.152173.01933-.261811-.04216-.107778-.06173-.168306-.167178l.144144-.08242q.09405.161527.268489.139365.07979-.01014.125419-.05176.04748-.04186.04018-.09938-.01132-.08907-.139654-.104822l-.189368-.0212q-.09005-.01119-.175767-.06252-.08595-.05319-.09939-.158964-.01532-.120618.08101-.208281.09797-.08976.244562-.108381.120622-.01532.222334.02832.101477.04179.155258.138666l-.140672.0801q-.06543-.114253-.223156-.09421-.07607.0097-.12403.04781-.04794.03815-.04111.09196.0099.07794.134047.09045l.185425.01981q.13181.01342.202245.07801.07042.06459.08197.155519.01556.122473-.07426.216852-.08984.09438-.247563.114419z" />
      <path d="m-25.636364 7.7227698.05328.419379.0086.127131.0074-.000946q.02887-.06966.103004-.124336.0739-.05653.164831-.06808.168866-.02145.271139.07115.102273.0926.124434.267032l.07073.556697-.170725.02169-.06743-.530717q-.03206-.25237-.2566-.223843-.105764.01344-.161729.107285-.0562.09199-.04205.203333l.06389.502882-.170713.02169-.168802-1.328652z" />
      <path d="m-24.350185 8.9396318q-.144744.01839-.2537-.05262-.107109-.07124-.124555-.208564-.01886-.148453.08558-.246575.104209-.09998.273074-.121431.150312-.0191.253872.02431l-.0033-.02598q-.01273-.100205-.08893-.150863-.07644-.05251-.176645-.03978-.07423.0094-.130988.05247-.0549.0428-.06938.106867l-.164368-.047q.02118-.08566.105233-.166104.08383-.0823.235993-.101636.174434-.02216.302454.06528.128007.08744.151582.273011l.06978.549274-.163297.02075-.01603-.126184-.0074.000945q-.08226.168842-.27896.193832zm.008-.15941q.105777-.01344.181238-.102221.07707-.09087.0634-.198502-.07991-.05019-.224653-.0318-.12433.0158-.180582.07763-.05625.06183-.04706.1342.0085.0668.07096.09846.06247.03166.136697.02223z" />
      <path d="m-23.521294 8.8041538-.170713.02169-.115521-.909273.163297-.02075.01886.148453.0074-.000946q.01655-.07753.09022-.135912.07553-.05862.151599-.06829.07609-.0097.13088.006l-.04468.167839q-.03506-.0087-.09258-.0014-.09278.01179-.155727.09521-.06132.08133-.04624.200093l.06318.497316z" />
      <path d="m-22.656516 8.7244558q-.205984.02617-.353329-.09464-.145483-.121051-.172124-.330742-.02523-.198555.08095-.357237.108037-.158917.302872-.18367.202276-.0257.339624.09073.139221.11619.167275.337014l.0022.03178-.718136.09124q.02489.136373.118502.20556.0955.06895.208693.05457.183711-.02334.228856-.187467l.160188.04376q-.0311.111431-.123971.19677-.0931.08348-.241549.10234zm.169497-.624929q-.01542-.07724-.09123-.139259-.07391-.06226-.203806-.04576-.09464.01202-.157613.08036-.06111.06811-.07436.171612z" />
      <path d="m-21.274351 8.5337708q-.142883.01815-.228622-.04826-.0839-.06665-.101586-.205825l-.06059-.476905-.159575.02027-.0198-.155875.159576-.02027-.03536-.278349.170726-.02169.03536.278349.222677-.02829.0198.155876-.222677.02829.05894.463916q.01886.148451.14133.132892.0464-.0059.07606-.02475l.07801.139053q-.05261.0312-.134263.04157z" />
      <path d="m-21.000838 7.1338398.05328.419379.0086.127131.0074-.000946q.02887-.06966.103004-.124337.0739-.05653.164819-.06808.168866-.02145.271139.07115.102286.0926.124447.267031l.07073.556697-.170726.02169-.06743-.530717q-.03206-.252371-.256601-.223844-.105776.01344-.161728.107285-.0562.09199-.04205.203333l.06389.502883-.170712.02169-.168802-1.328652z" />
      <path d="m-19.579462 8.3335258q-.205972.02617-.353316-.09465-.145484-.121052-.172124-.330742-.02523-.198556.08095-.357237.108024-.158916.302872-.183671.202264-.0257.339624.09073.139208.116191.167263.337015l.0022.03178-.718149.09124q.02489.136373.118515.205559.0955.06895.208693.05457.18371-.02334.228856-.187467l.160175.04376q-.0311.111431-.123958.196768-.09311.08348-.241562.102342zm.16951-.624931q-.01542-.07724-.09124-.139257-.07391-.06226-.203794-.04576-.09464.01202-.157613.08036-.06111.06811-.07436.171611z" />
      <path d="m-39.057099 13.245422-.170726.02169-.07851-.617935-.53751-.6539.200416-.02546.397059.498268.0074-.000946.252433-.580784.200403-.02546-.349491.766591.07851.617934z" />
      <path d="m-38.698254 12.387134q.114077-.155914.318202-.181848.204124-.02593.353551.0965.149205.120579.17561.328412.0264.207834-.08767.363748-.1143.154057-.318424.17999-.204124.02593-.353329-.09464-.149427-.122437-.175832-.330271-.02641-.207833.08789-.36189zm.200454.568501q.100387.07775.221009.06243.120621-.01533.196516-.115476.07752-.102244.05866-.250696-.01886-.148453-.119248-.226208-.09876-.07985-.219384-.06452-.120622.01532-.19814.117568-.07589.100151-.05703.248604.01886.148453.117623.228301z" />
      <path d="m-36.849187 12.964913-.163296.02075-.01603-.126185-.0074.000945q-.03072.0699-.104616.126428-.07414.05467-.163207.06599-.170713.02169-.272986-.07091-.100426-.09284-.122587-.267268l-.07073-.556697.170726-.02169.06719.528864q.0323.254224.256836.225697.105764-.01344.161729-.107285.05595-.09385.04181-.205185l-.06365-.501029.170726-.02169.11552.909273z" />
      <path d="m-36.621472 12.012033-.155868.0198-.05328-.419379.155868-.0198z" />
      <path d="m-36.149886 12.876069-.170726.02169-.168801-1.328651.170725-.02169z" />
      <path d="m-35.772958 12.828182-.170725.02169-.168802-1.328652.170726-.02169z" />
      <path d="m-34.672812 12.718581q-.103916.0132-.193077-.02073-.08731-.03416-.136628-.09578l-.0074.000946.01603.126185-.163297.02075-.168801-1.328652.170713-.02169.05328.419379.0086.12713.0074-.000945q.03234-.07199.108337-.126901.07784-.05514.18176-.06835.176282-.0224.322014.100511.14572.122907.171889.328885.02617.205978-.08419.36142-.11037.155442-.286651.177838zm-.04763-.15234q.118762-.01509.192795-.115003.07381-.101772.05495-.250225-.01886-.148453-.11554-.226679-.0969-.08008-.215663-.065-.120622.01532-.194669.115241-.07219.09968-.05309.249989.0191.150308.113915.228772.09668.07823.217301.0629z" />
      <path d="m-33.672297 12.591468q-.205972.02617-.353316-.09465-.145484-.121051-.172125-.330741-.02523-.198556.08095-.357237.108024-.158916.302872-.183671.202263-.0257.339624.09073.139208.116192.167263.337016l.0022.03177-.718149.09124q.02489.136373.118515.205559.0955.06895.208693.05457.183711-.02334.228856-.187467l.160176.04376q-.0311.11143-.123959.196767-.09311.08348-.241561.102343zm.169509-.62493q-.01542-.07724-.09124-.139258-.0739-.06226-.203794-.04576-.09464.01202-.157613.08036-.06111.0681-.07436.171611z" />
      <path d="m-29.339578 12.222027-.08639-.04182.08783-.169551q-.04177-.0022-.07523-.02815-.0337-.02777-.03959-.07417-.0066-.05196.02579-.09379.0324-.04183.08436-.04843.05196-.0066.09379.0258.04184.0324.04844.08436.0068.05381-.03823.144392z" />
      <path d="m-28.580742 10.564333.05328.419379.0086.127131.0074-.000945q.02887-.06966.103004-.124339.0739-.05653.164819-.06808.168866-.02145.271139.07115.102273.0926.124434.267033l.07073.556697-.170713.02169-.06743-.530719q-.03206-.252369-.256601-.223842-.105776.01344-.161728.107285-.0562.09199-.04205.203331l.06389.502884-.170712.02169-.168802-1.328652z" />
      <path d="m-27.294563 11.781195q-.144744.01839-.2537-.05262-.107109-.07124-.124556-.208565-.01886-.148451.08558-.246574.104209-.09998.273074-.121431.150299-.0191.253872.02431l-.0033-.02598q-.01273-.100205-.08893-.150863-.07644-.05251-.176645-.03978-.07423.0094-.130988.05247-.0549.0428-.0694.106867l-.164355-.047q.02118-.08566.105233-.166104.08382-.0823.23598-.101634.174434-.02216.302454.06528.12802.08744.151595.273011l.06978.549274-.163297.02075-.01603-.126185-.0074.000945q-.08225.168841-.278947.193831zm.008-.159411q.105776-.01344.181225-.10222.07709-.09087.06341-.198502-.07992-.05018-.224653-.0318-.12433.0158-.180595.07763-.05625.06183-.04706.134201.0085.0668.07097.09846.06247.03166.136697.02223z" />
      <path d="m-26.227829 11.64567q-.204124.02593-.353316-.09465-.149441-.122436-.175845-.330269-.02641-.207834.08791-.361892.114064-.155912.318188-.181846.152173-.01933.261798.04216.109638.0615.170415.168797l-.147629.08475q-.09221-.161761-.275905-.138423-.113205.01438-.188628.118245-.07357.103628-.05542.246514.01815.142885.115304.224823.099.0817.212204.06732.191127-.02428.241802-.204197l.160424.04561q-.03225.117234-.1265.206519-.09263.08719-.244798.106525z" />
      <path d="m-25.677647 10.195504.103968.818345.342716-.448947.218969-.02782.000944.0074-.309407.399461.439734.492846.000942.0074-.205972.02617-.340238-.39235-.119869.154764.03701.291339-.170726.02169-.168801-1.328652z" />
      <path d="m-24.397628 11.413148q-.205971.02617-.353316-.09465-.145484-.121052-.172124-.330742-.02523-.198555.08095-.357237.108024-.158916.302871-.183671.202264-.0257.339625.09073.139207.116192.167262.337015l.0022.03178-.718149.09124q.02489.136373.118515.205559.0955.06895.208693.05457.18371-.02334.228856-.187467l.160175.04376q-.0311.111431-.123958.196767-.09311.08348-.241561.102343zm.16951-.624931q-.01542-.07724-.09123-.139259-.07391-.06226-.203806-.04576-.09464.01202-.157613.08036-.06111.06811-.07437.171611z" />
      <path d="m-23.64957 11.28794-.170713.02169-.115521-.909273.163297-.02075.01886.148453.0074-.000946q.01655-.07753.09022-.135911.07553-.05862.151599-.06829.07609-.0097.130879.006l-.04467.167839q-.03506-.0087-.09258-.0014-.09278.01179-.155727.09521-.06132.08133-.04624.200092l.06318.497317z" />
      <path d="m-22.840901 11.21537q-.152159.01933-.261797-.04216-.107778-.06173-.16832-.167177l.144144-.08242q.09407.161526.268502.139364.07979-.01014.125419-.05176.04747-.04186.04016-.09938-.01132-.08907-.139654-.104822l-.189369-.02119q-.09004-.01119-.175766-.06252-.08595-.05319-.09939-.158964-.01532-.120617.08102-.208282.09796-.08976.244562-.108381.120608-.01532.222321.02832.101476.04179.15527.138665l-.140672.0801q-.06543-.114252-.223156-.09421-.07609.0097-.124043.04781-.04794.03815-.04111.09196.0099.07794.13406.09045l.185412.01981q.131823.01342.202246.07801.07043.06459.08199.155518.01556.122473-.07428.216854-.08983.09438-.247563.114418z" />
      <path d="m-22.253998 11.321824-.08639-.04182.08782-.169549q-.04177-.0022-.07523-.02815-.0337-.02777-.03959-.07416-.0066-.05196.0258-.09379.03239-.04183.08436-.04843.05195-.0066.09379.0258.04182.0324.04842.08436.0068.05381-.03821.14439z" />
      <path d="m-21.203072 11.384411-.176282.0224.153309-.485223-.483062-.804124.185571-.02358.35392.61877.0037-.000472.180518-.68667.185559-.02358-.403241 1.382472z" />
      <path d="m-20.630939 10.091734q.114064-.1559132.318188-.1818472.204124-.02593.353552.0965.149205.120579.175609.328412.02641.207834-.08767.363748-.1143.154057-.318424.17999-.204124.02593-.353316-.09465-.149441-.122435-.175845-.330269-.0264-.207833.08791-.361891zm.20044.568501q.100388.07775.221009.06243.120622-.01532.196516-.115476.07752-.102244.05866-.250697-.01886-.148452-.119248-.226207-.09876-.07985-.219384-.06452-.120622.01532-.198141.117568-.07589.100151-.05703.248604.01886.148453.117623.2283z" />
      <path d="m-18.781885 10.669514-.163297.02075-.01603-.126185-.0074.000945q-.03072.0699-.104616.126428-.07414.05467-.163207.06599-.170726.02169-.272999-.07091-.100413-.09284-.122574-.26727l-.07073-.5566972.170713-.02169.06719.5288642q.0323.254224.256836.225697.105776-.01344.161728-.107285.05597-.09385.04182-.205187l-.06365-.5010292.170713-.02169.11552.9092732z" />
      <path d="m-18.554158 9.7166328-.155881.0198-.05328-.419379.15588-.0198z" />
      <path d="m-18.082585 10.58067-.170725.02169-.168802-1.3286522.170726-.02169z" />
      <path d="m-17.705656 10.532783-.170726.02169-.168801-1.3286522.170725-.02169z" />
      <path d="m-16.605511 10.423182q-.103916.0132-.193076-.02072-.08731-.03416-.136615-.09578l-.0074.000945.01603.126185-.163296.02075-.168802-1.3286522.170726-.02169.05328.419379.0086.127131.0074-.000945q.03233-.07199.108324-.1269.07784-.05514.181761-.06835.176294-.0224.322014.10051.145719.122907.171888.328885.02617.2059782-.08419.3614202-.110356.155441-.286651.177838zm-.04763-.15234q.118761-.01509.192808-.115004.0738-.101771.05494-.2502242-.01886-.148453-.115527-.226681-.09691-.08008-.215676-.06499-.120621.01533-.194668.115241-.07219.09968-.05309.249989.0191.1503082.113915.2287722.09668.07823.217301.0629z" />
      <path d="m-15.604996 10.296069q-.205972.02617-.353316-.09465-.145484-.121051-.172124-.3307412-.02523-.198556.08095-.357237.108024-.158916.302871-.183671.202264-.0257.339624.09073.139208.116192.167263.337015l.0022.03178-.718136.09124q.02489.1363732.118502.2055602.0955.06895.208693.05457.18371-.02334.228856-.1874672l.160175.04376q-.0311.1114312-.123958.1967682-.0931.08348-.241562.102343zm.16951-.6249302q-.01542-.07724-.09123-.139259-.07391-.06226-.203806-.04576-.09464.01202-.157613.08036-.06111.0681-.07437.171611z" />
      <path d="m-14.389868 8.7538808q.08165-.01037.140392.0067l-.04076.154142q-.03158-.01107-.07983-.0049-.0668.0085-.104297.05474-.03772.04439-.02806.120472l.01462.115051.237522-.03018.0198.155876-.237522.03018.09572.7533982-.170726.02169-.09572-.7533972-.170713.02169-.0198-.155875.170713-.02169-.01532-.120618q-.01768-.139173.06078-.233995.07846-.09482.223205-.11321z" />
      <path d="m-13.802252 10.036866-.170713.02169-.11552-.9092732.163296-.02075.01886.148453.0074-.000945q.01655-.07753.09022-.135912.07551-.05862.151599-.06829.07609-.0097.130867.006l-.04467.167839q-.03505-.0087-.09257-.0014-.09279.01179-.155727.09521-.06132.08133-.04624.200092l.06318.4973172z" />
      <path d="m-12.937473 9.9571678q-.205985.02617-.353329-.09464-.145484-.121052-.172125-.330742-.02523-.198556.08095-.357237.108037-.158918.302872-.183671.202277-.0257.339624.09073.139221.11619.167276.337013l.0022.03178-.718136.09124q.02489.136373.118502.20556.0955.06895.208693.05457.18371-.02334.228856-.187467l.160188.04376q-.0311.111431-.123971.196769-.0931.08348-.241549.102341zm.169496-.624929q-.01542-.07724-.09123-.139259-.07391-.06226-.203806-.04576-.09464.01202-.157613.08036-.06111.06811-.07436.171611z" />
      <path d="m-11.933546 9.8296218q-.205971.02617-.353316-.09465-.145483-.121052-.172124-.330742-.02523-.198555.08095-.357237.108024-.158916.302872-.183671.202263-.0257.339624.09073.139208.116192.167263.337015l.0022.03178-.718136.09124q.02489.136373.118502.205561.0955.06895.208693.05457.18371-.02334.228856-.187467l.160175.04376q-.0311.111431-.123958.196767-.0931.08348-.241562.102343zm.16951-.624931q-.01542-.07724-.09123-.139259-.07391-.06226-.203806-.04576-.09464.01202-.157613.08036-.06111.0681-.07436.171611z" />
    </g>
    <g fill="none" stroke="#000" stroke-width=".3">
      <path d="m-18.251081 8.1647598 6.556166-.8427259" />
      <path d="m-32.769777 12.789177 3.30452-.409877" />
    </g>
  </g>
</svg>
