<svg height="48" width="48" xmlns="http://www.w3.org/2000/svg" xmlns:xlink="http://www.w3.org/1999/xlink"><linearGradient id="a" gradientUnits="userSpaceOnUse" x1="11.660663" x2="10.415977" y1="56.928329" y2="32.880904"><stop offset="0" stop-color="#cdd0d1"/><stop offset="1" stop-color="#f6f6f7"/></linearGradient><linearGradient id="b" gradientUnits="userSpaceOnUse" x1="14.428456" x2="5.505778" y1="47.467573" y2="39.642166"><stop offset="0" stop-color="#16a085"/><stop offset="1" stop-color="#2dcb72"/></linearGradient><filter id="c" color-interpolation-filters="sRGB"><feColorMatrix values="0.21 0.72 0.072 0 0 0.21 0.72 0.072 0 0 0.21 0.72 0.072 0 0 0 0 0 1 0"/></filter><linearGradient id="d" gradientUnits="userSpaceOnUse" x1="-19.0871" x2="-9.020397" y1="55.375499" y2="10.980507"><stop offset="0" stop-color="#247ce6"/><stop offset="1" stop-color="#02d6f0"/></linearGradient><g transform="matrix(.69654364 -.00959983 .00959983 .69654364 29.521126 1.36487)"><rect fill="#1ecf9d" height="37.355316" ry="1.543778" transform="matrix(.99999416 -.00341659 .00341659 .99999416 0 0)" width="49.639671" x="-31.653305" y="7.985796"/><rect fill="url(#d)" height="37.355072" ry="1.543778" transform="matrix(.98818625 -.15325775 .15325775 .98818625 0 0)" width="49.639862" x="-42.623764" y="13.684669"/><circle cx="11.184063" cy="45.12323" fill="url(#a)" filter="url(#c)" r="12.348694" transform="matrix(.78017865 0 0 .78017865 2.581938 10.521665)"/><path d="m14.428456 47.271288-8.9226783.196284 4.2913527-7.825408z" fill="url(#b)" filter="url(#c)" transform="matrix(-.0138427 .90747861 -.90747861 -.0138427 51.546127 37.320471)"/><path d="m-20.02478 44.226249c.07011-.126395.04745-.51839-.05346-.924641l-.175157-.705227-4.871882.881846c-3.484401.630654-4.915818.934896-5.026169 1.068083-.192007.231802.0087 1.387578.27221 1.56751.141208.09642 1.429243-.103199 4.961732-.768972 3.956446-.745659 4.791788-.936682 4.892718-1.118619zm6.976429-10.381796c.769333-.444866 1.797331-1.467488 1.944298-1.934131.08104-.257322-.02065-.376608-.75262-.883189-.465476-.322125-.908743-.573917-.98504-.559537-.0763.0143-.388903.285989-.694679.603573-1.315927 1.366746-3.230893 1.546019-4.575512.428345-.545886-.453754-1.103956-1.39907-1.234338-2.090855-.150079-.796301.06006-1.887297.498773-2.589508.907612-1.45274 2.664948-1.868084 4.392615-1.038186.348284.167302.678516.240557.761226.168862.301182-.261072 1.111434-1.832988 1.039108-2.015906-.118007-.298445-1.283722-.823521-2.16929-.977118-1.064957-.184714-2.587599-.0211-3.609991.387895-3.534134 1.413806-4.804036 5.807222-2.581755 8.931985 1.027639 1.444972 2.862557 2.417569 4.636071 2.457348.87069.01952 2.521208-.421245 3.331134-.88958zm-16.408902 3.104976c.07901-.07394.242912-.612208.364223-1.196131.121309-.583923.272386-1.155108.335728-1.269299.08719-.157197.606588-.299727 2.138498-.586844 1.112822-.208629 2.105568-.3464 2.206079-.306283.100503.04011.449098.481784.774641.981488.325542.499704.674174.976708.774738 1.060008.254112.210492 2.417415-.193318 2.466037-.460281.01882-.10333-1.453394-2.41415-3.271575-5.135163l-3.305785-4.947297-1.198763.265554-1.198765.265554-1.261384 5.756525c-.693763 3.166089-1.213308 5.834471-1.154547 5.929739.07893.127952.378636.121432 1.14703-.02495.572106-.108971 1.104833-.258669 1.183846-.332617zm1.322802-5.197401c-.130622-.211771.399459-2.977953.577079-3.011429.0616-.01161.493103.553746.958895 1.256344.676519 1.020465.814853 1.307362.687644 1.426135-.08758.08178-.59724.232185-1.132568.334245-.754029.143718-.99985.142562-1.09105-.0053z" fill="#fff"/></g></svg>