<?xml version="1.0" encoding="UTF-8" standalone="no"?>
<!-- Created with Inkscape (http://www.inkscape.org/) -->

<svg
   xmlns:dc="http://purl.org/dc/elements/1.1/"
   xmlns:cc="http://creativecommons.org/ns#"
   xmlns:rdf="http://www.w3.org/1999/02/22-rdf-syntax-ns#"
   xmlns:svg="http://www.w3.org/2000/svg"
   xmlns="http://www.w3.org/2000/svg"
   xmlns:xlink="http://www.w3.org/1999/xlink"
   xmlns:sodipodi="http://sodipodi.sourceforge.net/DTD/sodipodi-0.dtd"
   xmlns:inkscape="http://www.inkscape.org/namespaces/inkscape"
   width="48px"
   height="48px"
   id="svg2985"
   version="1.1"
   inkscape:version="0.91 r13725"
   sodipodi:docname="appcode.svg"
   inkscape:export-filename="/home/spooky/Downloads/icon-requests/intellij/appcode.svg.png"
   inkscape:export-xdpi="90"
   inkscape:export-ydpi="90">
  <defs
     id="defs2987">
    <linearGradient
       inkscape:collect="always"
       id="linearGradient4190">
      <stop
         style="stop-color:#247ce6;stop-opacity:1"
         offset="0"
         id="stop4192" />
      <stop
         style="stop-color:#02d6f0;stop-opacity:1"
         offset="1"
         id="stop4194" />
    </linearGradient>
    <linearGradient
       id="linearGradient5461"
       inkscape:collect="always">
      <stop
         id="stop5463"
         offset="0"
         style="stop-color:#cdd0d1;stop-opacity:1" />
      <stop
         id="stop5465"
         offset="1"
         style="stop-color:#f6f6f7;stop-opacity:1" />
    </linearGradient>
    <linearGradient
       inkscape:collect="always"
       id="linearGradient5358">
      <stop
         style="stop-color:#16a085;stop-opacity:1"
         offset="0"
         id="stop5360" />
      <stop
         style="stop-color:#2dcb72;stop-opacity:1"
         offset="1"
         id="stop5362" />
    </linearGradient>
    <linearGradient
       inkscape:collect="always"
       id="linearGradient4303">
      <stop
         style="stop-color:#989a9b;stop-opacity:1"
         offset="0"
         id="stop4305" />
      <stop
         style="stop-color:#f6f6f7;stop-opacity:1"
         offset="1"
         id="stop4307" />
    </linearGradient>
    <clipPath
       id="clipPath4458-7">
      <path
         style="fill:url(#linearGradient3441);fill-opacity:1"
         inkscape:connector-curvature="0"
         id="use4460-2"
         d="m 69.626,12.145 -0.052,0 c -22.727,-0.292 -46.472,4.077 -46.709,4.122 -2.424,0.451 -4.946,2.974 -5.397,5.397 -0.044,0.237 -4.414,23.983 -4.122,46.71 -0.292,22.777 4.078,46.523 4.122,46.761 0.451,2.423 2.974,4.945 5.398,5.398 0.237,0.044 23.982,4.413 46.709,4.121 22.779,0.292 46.524,-4.077 46.761,-4.121 2.423,-0.452 4.946,-2.976 5.398,-5.399 0.044,-0.236 4.413,-23.981 4.121,-46.709 0.292,-22.777 -4.077,-46.523 -4.121,-46.761 -0.453,-2.423 -2.976,-4.946 -5.398,-5.397 -0.238,-0.045 -23.984,-4.414 -46.71,-4.122 z" />
    </clipPath>
    <linearGradient
       inkscape:collect="always"
       xlink:href="#linearGradient5461"
       id="linearGradient5459"
       x1="31.190088"
       y1="56.636845"
       x2="29.945402"
       y2="32.58942"
       gradientUnits="userSpaceOnUse"
       gradientTransform="translate(-19.529425,0.29148396)" />
    <linearGradient
       inkscape:collect="always"
       xlink:href="#linearGradient5358"
       id="linearGradient5475"
       x1="37.455688"
       y1="27.792406"
       x2="28.53301"
       y2="19.966999"
       gradientUnits="userSpaceOnUse"
       gradientTransform="translate(-23.027232,19.675167)" />
    <linearGradient
       inkscape:collect="always"
       xlink:href="#linearGradient4303"
       id="linearGradient3441"
       gradientUnits="userSpaceOnUse"
       x1="2.3531249"
       y1="1044.3799"
       x2="13.377196"
       y2="1044.3799" />
    <filter
       inkscape:label="Blend Opposites"
       inkscape:menu="Color"
       inkscape:menu-tooltip="Blend an image with its hue opposite"
       style="color-interpolation-filters:sRGB;"
       id="filter3653">
      <feColorMatrix
         type="hueRotate"
         values="180"
         result="fbSourceGraphic"
         in="SourceGraphic"
         id="feColorMatrix3655" />
      <feColorMatrix
         values="1 0 0 0 0 0 1 0 0 0 0 0 1 0 0 -0.2125 -0.7154 -0.0721 1 0 "
         in="SourceGraphic"
         result="result1"
         id="feColorMatrix3657" />
      <feColorMatrix
         type="hueRotate"
         values="0"
         id="feColorMatrix3659" />
      <feColorMatrix
         values="1 0 0 0 0 0 1 0 0 0 0 0 1 0 0 0 0 0 1 0 "
         result="result3"
         id="feColorMatrix3661" />
      <feComposite
         in2="result3"
         result="result6"
         operator="atop"
         id="feComposite3663" />
      <feComposite
         in2="result6"
         operator="arithmetic"
         k2="0.5"
         k1="0.5"
         k3="0.5"
         in="result6"
         result="result4"
         id="feComposite3665" />
      <feBlend
         in2="fbSourceGraphic"
         mode="normal"
         result="result2"
         in="result4"
         id="feBlend3667" />
      <feComposite
         in2="result2"
         operator="arithmetic"
         k2="1"
         result="result5"
         id="feComposite3669" />
      <feComposite
         in2="SourceGraphic"
         operator="in"
         result="result5"
         id="feComposite3671" />
    </filter>
    <filter
       style="color-interpolation-filters:sRGB;"
       inkscape:label="Greyscale"
       id="filter3673">
      <feColorMatrix
         values="0.21 0.72 0.072 0 0 0.21 0.72 0.072 0 0 0.21 0.72 0.072 0 0 0 0 0 1 0 "
         id="feColorMatrix3675" />
    </filter>
    <linearGradient
       inkscape:collect="always"
       xlink:href="#linearGradient4190"
       id="linearGradient4211"
       gradientUnits="userSpaceOnUse"
       x1="70.805199"
       y1="47.673012"
       x2="80.586433"
       y2="4.5369625"
       gradientTransform="matrix(1.0291854,0,0,1.0291854,-91.958777,6.3111308)" />
  </defs>
  <sodipodi:namedview
     id="base"
     pagecolor="#5a5a5a"
     bordercolor="#e3e3e3"
     borderopacity="1"
     inkscape:pageopacity="0"
     inkscape:pageshadow="2"
     inkscape:zoom="9.7035431"
     inkscape:cx="13.51717"
     inkscape:cy="18.337699"
     inkscape:current-layer="g5481"
     showgrid="false"
     inkscape:grid-bbox="true"
     inkscape:document-units="px"
     inkscape:snap-global="true"
     inkscape:window-width="1440"
     inkscape:window-height="832"
     inkscape:window-x="0"
     inkscape:window-y="32"
     inkscape:window-maximized="1"
     inkscape:snap-bbox="true"
     inkscape:bbox-nodes="true"
     showguides="true"
     inkscape:showpageshadow="false"
     showborder="true">
    <inkscape:grid
       type="xygrid"
       id="grid2993" />
  </sodipodi:namedview>
  <metadata
     id="metadata2990">
    <rdf:RDF>
      <cc:Work
         rdf:about="">
        <dc:format>image/svg+xml</dc:format>
        <dc:type
           rdf:resource="http://purl.org/dc/dcmitype/StillImage" />
        <dc:title />
      </cc:Work>
    </rdf:RDF>
  </metadata>
  <g
     id="layer1"
     inkscape:label="Layer 1"
     inkscape:groupmode="layer">
    <g
       id="g5481"
       transform="matrix(0.77761806,-0.01071721,0.01071721,0.77761806,30.946456,-1.6787268)">
      <rect
         ry="1.5437782"
         transform="matrix(0.99999416,-0.00341659,0.00341659,0.99999416,0,0)"
         y="7.9857955"
         x="-31.653305"
         height="37.355316"
         width="49.639671"
         id="rect4209"
         style="opacity:1;fill:#1ecf9d;fill-opacity:1;fill-rule:nonzero;stroke:none;stroke-width:2;stroke-miterlimit:4;stroke-dasharray:4, 2;stroke-dashoffset:0;stroke-opacity:1" />
      <g
         transform="matrix(0.9857059,-0.16847515,0.16847515,0.9857059,-48.699083,-8.9827573)"
         id="g5405">
        <g
           id="g5366"
           transform="matrix(1.0962056,0,0,1.0962056,0.51279347,-1.9879883)" />
      </g>
      <rect
         transform="matrix(0.98818625,-0.15325775,0.15325775,0.98818625,0,0)"
         ry="1.5437782"
         y="13.684669"
         x="-42.623764"
         height="37.355072"
         width="49.639862"
         id="rect4851-2"
         style="opacity:1;fill:url(#linearGradient4211);fill-opacity:1;stroke:none;stroke-width:1.5;stroke-linecap:round;stroke-linejoin:round;stroke-miterlimit:4;stroke-dasharray:none;stroke-opacity:1" />
      <circle
         transform="matrix(0.78017865,0,0,0.78017865,2.5819378,10.521665)"
         r="12.348694"
         cy="45.12323"
         cx="11.184063"
         id="path5451"
         style="opacity:1;fill:url(#linearGradient5459);fill-opacity:1;stroke:none;stroke-width:0.30261195;stroke-linecap:round;stroke-linejoin:round;stroke-miterlimit:4;stroke-dasharray:none;stroke-opacity:1;filter:url(#filter3673)" />
      <path
         transform="matrix(-0.0138427,0.90747861,-0.90747861,-0.0138427,51.546127,37.320471)"
         inkscape:transform-center-y="0.020206899"
         inkscape:transform-center-x="-1.4810216"
         d="M 14.428456,47.271288 5.5057777,47.467572 9.7971304,39.642164 Z"
         inkscape:randomized="0"
         inkscape:rounded="0"
         inkscape:flatsided="true"
         sodipodi:arg2="1.5488016"
         sodipodi:arg1="0.50160405"
         sodipodi:r2="2.5763786"
         sodipodi:r1="5.1527572"
         sodipodi:cy="44.793674"
         sodipodi:cx="9.9104548"
         sodipodi:sides="3"
         id="path5467"
         style="opacity:1;fill:url(#linearGradient5475);fill-opacity:1;stroke:none;stroke-width:0.30000001;stroke-linecap:round;stroke-linejoin:round;stroke-miterlimit:4;stroke-dasharray:none;stroke-opacity:1;filter:url(#filter3673)"
         sodipodi:type="star" />
      <path
         inkscape:connector-curvature="0"
         id="path4225"
         d="m -20.02478,44.226249 c 0.07011,-0.126395 0.04745,-0.51839 -0.05346,-0.924641 l -0.175157,-0.705227 -4.871882,0.881846 c -3.484401,0.630654 -4.915818,0.934896 -5.026169,1.068083 -0.192007,0.231802 0.0087,1.387578 0.27221,1.56751 0.141208,0.09642 1.429243,-0.103199 4.961732,-0.768972 3.956446,-0.745659 4.791788,-0.936682 4.892718,-1.118619 z m 6.976429,-10.381796 c 0.769333,-0.444866 1.797331,-1.467488 1.944298,-1.934131 0.08104,-0.257322 -0.02065,-0.376608 -0.75262,-0.883189 -0.465476,-0.322125 -0.908743,-0.573917 -0.98504,-0.559537 -0.0763,0.0143 -0.388903,0.285989 -0.694679,0.603573 -1.315927,1.366746 -3.230893,1.546019 -4.575512,0.428345 -0.545886,-0.453754 -1.103956,-1.39907 -1.234338,-2.090855 -0.150079,-0.796301 0.06006,-1.887297 0.498773,-2.589508 0.907612,-1.45274 2.664948,-1.868084 4.392615,-1.038186 0.348284,0.167302 0.678516,0.240557 0.761226,0.168862 0.301182,-0.261072 1.111434,-1.832988 1.039108,-2.015906 -0.118007,-0.298445 -1.283722,-0.823521 -2.16929,-0.977118 -1.064957,-0.184714 -2.587599,-0.0211 -3.609991,0.387895 -3.534134,1.413806 -4.804036,5.807222 -2.581755,8.931985 1.027639,1.444972 2.862557,2.417569 4.636071,2.457348 0.87069,0.01952 2.521208,-0.421245 3.331134,-0.88958 z m -16.408902,3.104976 c 0.07901,-0.07394 0.242912,-0.612208 0.364223,-1.196131 0.121309,-0.583923 0.272386,-1.155108 0.335728,-1.269299 0.08719,-0.157197 0.606588,-0.299727 2.138498,-0.586844 1.112822,-0.208629 2.105568,-0.3464 2.206079,-0.306283 0.100503,0.04011 0.449098,0.481784 0.774641,0.981488 0.325542,0.499704 0.674174,0.976708 0.774738,1.060008 0.254112,0.210492 2.417415,-0.193318 2.466037,-0.460281 0.01882,-0.10333 -1.453394,-2.41415 -3.271575,-5.135163 l -3.305785,-4.947297 -1.198763,0.265554 -1.198765,0.265554 -1.261384,5.756525 c -0.693763,3.166089 -1.213308,5.834471 -1.154547,5.929739 0.07893,0.127952 0.378636,0.121432 1.14703,-0.02495 0.572106,-0.108971 1.104833,-0.258669 1.183846,-0.332617 z m 1.322802,-5.197401 c -0.130622,-0.211771 0.399459,-2.977953 0.577079,-3.011429 0.0616,-0.01161 0.493103,0.553746 0.958895,1.256344 0.676519,1.020465 0.814853,1.307362 0.687644,1.426135 -0.08758,0.08178 -0.59724,0.232185 -1.132568,0.334245 -0.754029,0.143718 -0.99985,0.142562 -1.09105,-0.0053 z"
         style="fill:#ffffff"
         sodipodi:nodetypes="cscccssccssscsssssssssssscsscssscscccsscccssccc" />
    </g>
  </g>
</svg>
