<svg height="48" width="48" xmlns="http://www.w3.org/2000/svg" xmlns:xlink="http://www.w3.org/1999/xlink">
  <linearGradient id="a" gradientUnits="userSpaceOnUse" x1="22.397217" x2="24.105999" y1="45.022221" y2="2.155178">
    <stop offset="0" stop-color="#3166d1" />
    <stop offset="1" stop-color="#3166d1" stop-opacity="0" />
  </linearGradient>
  <linearGradient id="b" gradientUnits="userSpaceOnUse" spreadMethod="pad" x1="32.821968" x2="45.668236" y1="35.986328" y2="32.713432">
    <stop offset="0" stop-color="#80a8ff" />
    <stop offset="1" stop-color="#5f86d3" />
  </linearGradient>
  <linearGradient id="c" gradientTransform="matrix(1.2361374 0 0 1.0987888 -530.07919 -558.50109)" gradientUnits="userSpaceOnUse" x1="17.605272" x2="45.353985" y1="11.389279" y2="23.51111">
    <stop offset="0" stop-color="#3166d1" />
    <stop offset="1" stop-color="#4b82f0" />
  </linearGradient>
  <path d="m4.28732 2.9777778c-1.083377 0-1.955555.8721778-1.955555 1.9555555v.026736 39.0576387.02674c0 1.083374.872178 1.955552 1.955555 1.955552h39.111112c1.083377 0 1.955555-.872178 1.955555-1.955556.249046-13.570226.299807-25.554702.299807-39.0843745.000007-1.0979008-.884384-1.9822917-1.982285-1.9822917h-.27309z" fill-opacity=".666667" />
  <path d="m4.287321 2h39.111109c1.083378 0 1.955556.872178 1.955556 1.955556v39.111109c0 1.083378-.872178 1.955556-1.955556 1.955556h-39.111109c-1.0833781 0-1.9555561-.872178-1.9555561-1.955556v-39.111109c0-1.083378.872178-1.955556 1.9555561-1.955556z" fill="url(#c)" />
  <path d="m4.3140565 2c-1.0979008 0-1.9822917.884391-1.9822917 1.9822917v39.0576383c0 1.097901.8843909 1.982292 1.9822917 1.982292h18.0831595c15.217331-1.100459 23.173758-8.998305 23.252778-23.965104.0069-.152402.01024-.303637.01146-.454513-.000374-.0679.0045-.130428.0038-.198612-.0019.01091-.0038.02156-.0057.03247-.001-.166378.0024-.334119-.0057-.498438v-15.9557333c-.00004-1.0979008-.884431-1.9822917-1.982332-1.9822917z" fill="url(#a)" />
  <path d="m22.397194 45.022222c7.082158-1.763948 10.262001-5.535669 13.016592-10.934729 7.313974-2.123707 9.183364-7.652642 10.252186-13.682852.156716 15.400467-7.826599 23.500861-23.268778 24.617581z" fill="url(#b)" fill-rule="evenodd" opacity=".9" stroke-width="1.220157" />
  <path d="m4.3140565 2c-1.0979008 0-1.9556135.8847152-1.9822917 1.9822917l-.0976563 4.0177083c43.4311445-.016235 0 0 43.4311445-.016235-.0019.01091-.0038.02156-.0057.03247-.01234-5.4396002-.0057 1.4399367-.0057-4.0339433-.00004-1.0979008-.88443-1.9822917-1.982331-1.9822917z" fill="#101010" opacity=".3" />
  <path d="m31.390584 14.09162h-8.347155c-.07885 0-.142666.06341-.142666.142563v2.65071c0 .08897.0722.161483.161504.161483h1.144441c.46288 0 .838248.355999.87844.808437v1.81732 1.012463 9.643354.06852h-.000307c.0031.101247-.001.200448-.01094.298217-.001.01432-.0031.02864-.0051.04295-.0061.05727-.01391.11403-.02506.169766-.0061.0317-.01463.06238-.02229.09409-.01023.04193-.01851.08386-.03129.124461-.07547.24156-.194792.465631-.359824.662908-.0061.01023-.0136.01329-.01953.02045-.05032.05829-.103189.115052-.161677.168334-.05901.0542-.121536.103599-.187234.149927-.46696.33084-1.095485.476369-1.797736.409178-.895416-.08386-1.783766-.490278-2.501786-1.143572-.717908-.653192-1.164302-1.461526-1.256682-2.276099-.08314-.728769.135272-1.370098.614422-1.805968h.0031c.01851-.01636.03896-.03068.05799-.04704.342898-.287274.789895-.461438 1.299992-.509402.0061-.000511.01125 0 .01677 0 .05369 0 .108395-.01023.16359-.01023.02884-.001.05737 0 .08662 0 .01023-.000102.01892 0 .02864 0h.05287c.08038 0 .161381 0 .243983.01125.01043.00092.02035.000511.03109 0 .0072.000715.01514 0 .02281 0 .467922.04704.931231.186641 1.370906.398337.0092.000409.01984 0 .03303.01023.134023.07363.159693-.01023.163651-.05829v-2.293076-1.696643c0-.114234-.07946-.215378-.190947-.239923-2.368192-.521163-4.691744.02148-6.33129 1.513888-1.432277 1.302805-2.125109 3.182919-1.900629 5.157938.200315 1.759027 1.103289 3.449022 2.542889 4.75919 1.40312 1.276522 3.189637 2.074834 5.032494 2.248487.253934.02352.509075.03579.758038.03579 1.760009 0 3.393133-.603489 4.598526-1.700018 1.141864-1.039666 1.825809-2.46724 1.926176-4.020297l.0092-10.185891h.001v-2.723423h.000358v-.04704c.01033-.480664.402244-.867344.885526-.867344h1.144442c.08918 0 .161493-.07261.161493-.161482v-2.650711c0-.07875-.06382-.142563-.142655-.142563" fill="#fff" opacity=".65" />
</svg>
