<svg height="48" width="48" xmlns="http://www.w3.org/2000/svg" xmlns:xlink="http://www.w3.org/1999/xlink">
  <linearGradient id="a" gradientUnits="userSpaceOnUse" x1="22.397217" x2="24.105999" y1="45.022221" y2="2.155178">
    <stop offset="0" stop-color="#3166d1" />
    <stop offset="1" stop-color="#3166d1" stop-opacity="0" />
  </linearGradient>
  <linearGradient id="b" gradientUnits="userSpaceOnUse" spreadMethod="pad" x1="32.821968" x2="45.668236" y1="35.986328" y2="32.713432">
    <stop offset="0" stop-color="#80a8ff" />
    <stop offset="1" stop-color="#5f86d3" />
  </linearGradient>
  <linearGradient id="c" gradientTransform="matrix(1.2361374 0 0 1.0987888 -530.07919 -558.50109)" gradientUnits="userSpaceOnUse" x1="17.605272" x2="45.353985" y1="11.389279" y2="23.51111">
    <stop offset="0" stop-color="#3166d1" />
    <stop offset="1" stop-color="#4b82f0" />
  </linearGradient>
  <path d="m4.28732 2.9777778c-1.083377 0-1.955555.8721778-1.955555 1.9555555v.026736 39.0576387.02674c0 1.083374.872178 1.955552 1.955555 1.955552h39.111112c1.083377 0 1.955555-.872178 1.955555-1.955556.249046-13.570226.299807-25.554702.299807-39.0843745.000007-1.0979008-.884384-1.9822917-1.982285-1.9822917h-.27309z" fill-opacity=".666667" />
  <path d="m4.287321 2h39.111109c1.083378 0 1.955556.872178 1.955556 1.955556v39.111109c0 1.083378-.872178 1.955556-1.955556 1.955556h-39.111109c-1.0833781 0-1.9555561-.872178-1.9555561-1.955556v-39.111109c0-1.083378.872178-1.955556 1.9555561-1.955556z" fill="url(#c)" />
  <path d="m4.3140565 2c-1.0979008 0-1.9822917.884391-1.9822917 1.9822917v39.0576383c0 1.097901.8843909 1.982292 1.9822917 1.982292h18.0831595c15.217331-1.100459 23.173758-8.998305 23.252778-23.965104.0069-.152402.01024-.303637.01146-.454513-.000374-.0679.0045-.130428.0038-.198612-.0019.01091-.0038.02156-.0057.03247-.001-.166378.0024-.334119-.0057-.498438v-15.9557333c-.00004-1.0979008-.884431-1.9822917-1.982332-1.9822917z" fill="url(#a)" />
  <path d="m22.397194 45.022222c7.082158-1.763948 10.262001-5.535669 13.016592-10.934729 7.313974-2.123707 9.183364-7.652642 10.252186-13.682852.156716 15.400467-7.826599 23.500861-23.268778 24.617581z" fill="url(#b)" fill-rule="evenodd" opacity=".9" stroke-width="1.220157" />
  <path d="m4.3140565 2c-1.0979008 0-1.9556135.8847152-1.9822917 1.9822917l-.0976563 4.0177083c43.4311445-.016235 0 0 43.4311445-.016235-.0019.01091-.0038.02156-.0057.03247-.01234-5.4396002-.0057 1.4399367-.0057-4.0339433-.00004-1.0979008-.88443-1.9822917-1.982331-1.9822917z" fill="#101010" opacity=".3" />
  <path d="m20.017448 36.557796c-1.428302-.191924-2.220066-.41349-3.169312-.886896-1.753687-.874572-3.106473-2.394474-3.633688-4.082558-.209724-.671531-.233499-.836122-.232841-1.611844.000509-.639755.01558-.801305.102842-1.10612.182999-.639164.427998-1.058879.891538-1.527319.558989-.564897 1.142303-.819121 1.955103-.852104.777697-.03158 1.295036.102841 1.785359.463798.312382.229957.630981.68028.80923 1.143795.112983.29379.121775.374765.154516 1.423902.03425 1.098029.06242 1.309662.238916 1.796701.241049.665164.650281 1.126054 1.257937 1.416753.549222.26274.967521.343523 1.648818.318432.443056-.01633.618347-.04367.884346-.137925.791722-.280557 1.452336-.911879 1.769818-1.691309.328032-.805347.327398-.790989.326415-7.400853-.000833-5.797518-.0017-5.859192-.0935-6.061433-.224282-.494723-.460281-.583148-1.659376-.621723l-.87943-.02833v-1.514038-1.514044l5.391728.0115 5.391728.0115.012 1.502527.012 1.502535-.874629.03075c-.485232.01708-.962013.05683-1.070904.08925-.296699.08839-.485473.264065-.605031.563039l-.104783.262033-.02875 5.970625c-.02917 6.051366-.03325 6.193099-.203341 7.021137-.311107 1.514561-1.424602 3.070404-2.910379 4.066575-1.19297.799855-2.486515 1.237645-4.260357 1.441886-.470732.05425-2.501665.05392-2.905855-.000359z" fill="#fff" opacity=".649" stroke-width=".045404" />
</svg>
