<svg viewBox="0 0 48 48" xmlns="http://www.w3.org/2000/svg" xmlns:xlink="http://www.w3.org/1999/xlink">
  <linearGradient id="a" gradientUnits="userSpaceOnUse" x1="17.38679" x2="17.38679" y1="1045.86888" y2="1006.86891">
    <stop offset="0" stop-color="#00ccb3" />
    <stop offset="1" stop-color="#00f4d7" />
  </linearGradient>
  <g stroke-width="1.317422" transform="matrix(1.1499997 0 0 1.1499997 4.0052 -1156.8989)">
    <circle cx="17.386787" cy="1026.8689" fill="url(#a)" opacity=".97" r="20.000006" />
    <g stroke-width=".120882">
      <path d="m10.167725 1037.585c-.164904-.083-.3683441-.2867-.4520898-.4515-.1180259-.2324-.1457429-1.7926-.1232648-6.9383.019704-4.5107.069742-6.6521.156119-6.6809.069918-.023 1.5166366 1.0063 3.2149356 2.288 2.506803 1.8919 3.2406 2.3843 3.899797 2.617.64229.2268.970547.2739 1.570762.2258 1.46917-.118 2.803127-.9862 3.443375-2.2412.350077-.6862.499666-1.765.355046-2.5607-.151448-.8333-.471361-1.4599-1.085392-2.126-.476235-.5167-1.528001-1.1423-1.920487-1.1423-.109612 0-.289324-.099-.399355-.221-.168063-.1857-.200058-.521-.200058-2.0967 0-1.7279.01922-1.8931.244015-2.0965.233357-.2112.284796-.2119 1.177779-.019 1.09775.2381 2.409872.8344 3.326573 1.5117.80272.5929 1.704821 1.5918 2.246527 2.4872.22374.3699.575067 1.1491.780724 1.7316.348529.9872.373638 1.17.369685 2.691-.0037 1.4341-.04306 1.7492-.324326 2.599-.176045.5319-.525462 1.3206-.776483 1.7527-.251021.4322-.891578 1.221-1.423464 1.7528-1.677588 1.6776-3.629977 2.4781-6.044118 2.4781-1.326929 0-2.680715-.2736-3.551436-.7178-.268671-.1371-.51786-.2492-.55375-.2492s-.06699 1.1016-.0691 2.4479c-.004 2.5619-.02776 2.6873-.562399 2.9721-.363992.1938-2.909856.1826-3.29961-.015z" fill="#fff" />
      <path d="m11.579916 1023.72c-.971576-.7302-1.8233089-1.4338-1.8927424-1.5636-.1658432-.3099-.1698904-4.3205-.00444-4.4227.066982-.042.5512384.2273 1.0761274.5972.52489.3699 1.070214.6726 1.211834.6726.159121 0 .590806-.3358 1.129976-.8789.89914-.9057 2.092419-1.6409 3.048372-1.8781 1.113851-.2764 1.136724-.2767 1.388307-.025.222241.2223.243606.4003.243606 2.03 0 1.4211-.03847 1.8413-.188177 2.055-.103497.1478-.253092.2692-.332428.2698-.314379 0-1.414393.6047-1.890384 1.0348-.698513.631-1.072847 1.3249-1.26842 2.3514-.156328.8204-.305049 1.079-.623074 1.0834-.07262 0-.92696-.5955-1.898536-1.3257z" fill="#a9ff8a" />
    </g>
  </g>
</svg>
