<svg height="48" width="48" xmlns="http://www.w3.org/2000/svg" xmlns:xlink="http://www.w3.org/1999/xlink"><linearGradient id="a" gradientUnits="userSpaceOnUse" x1="399.57144" x2="399.57144" y1="545.79797" y2="517.79797"><stop offset="0" stop-color="#3889e9"/><stop offset="1" stop-color="#5ea5fb"/></linearGradient><linearGradient id="b" gradientUnits="userSpaceOnUse" x1="-313.933148216374" x2="-313.933148216374" y1="648.753943947038" y2="247.078515114352"><stop offset="0" stop-color="#4965b6"/><stop offset="1" stop-color="#8d9dcc"/></linearGradient><circle cx="400.57138" cy="531.79791" fill="url(#a)" r="0" transform="matrix(1.637466544097 0 0 1.637466544097 -644.580187175317 -848.719334054169)"/><g transform="matrix(.111361506212 0 0 .111361506212 59.887097814307 -26.022587445081)"><circle cx="-322.25766" cy="449.19101" fill="url(#b)" r="197.55479"/><g fill="#fff" fill-opacity=".846774"><path d="m-453.90776 510.06881 20.21411-98.78084h46.75718c20.21412 1.2548 30.30745 10.98175 30.30745 28.05431 0 29.2633-24.00599 46.25342-45.47491 45.1177h-22.75119l-5.08329 25.61798h-24.00599m34.13594-43.89954 6.32894-36.5631h16.42225c8.87517 0 15.16746 3.64532 15.16746 10.98175-1.29142 20.71788-11.37559 24.36319-22.75119 25.58135m-15.16746 0" fill-rule="evenodd"/><path d="m-364.17611 484.41419 20.21412-98.74421h24.00599l-5.04666 25.58135h22.75119c20.21412 1.2548 27.79785 10.98176 25.26078 23.18167l-8.83853 49.98119h-25.29742l8.87517-45.11771c1.25479-6.08164 1.25479-9.7636-7.62037-9.7636h-18.92269l-11.37559 54.84467h-24.00599m0 .0367"/><path d="m-287.85338 510.06881 20.25076-98.78084h46.75718c20.21412 1.2548 30.30743 10.98175 30.30743 28.05431 0 29.2633-24.00597 46.25342-45.51153 45.1177h-22.75119l-5.04666 25.61798m10.12079-43.89954 6.32894-36.5631h16.42225c8.83853 0 15.13083 3.64532 15.13083 10.98175-1.25479 20.71788-11.33896 24.36319-22.75119 25.58135m-15.13083 0" fill-rule="evenodd"/></g></g></svg>