<svg height="32" viewBox="0 0 32 32" width="32" xmlns="http://www.w3.org/2000/svg" xmlns:xlink="http://www.w3.org/1999/xlink"><linearGradient id="a" gradientUnits="userSpaceOnUse" x1="399.57144" x2="399.57144" y1="545.79797" y2="517.79797"><stop offset="0" stop-color="#3889e9"/><stop offset="1" stop-color="#5ea5fb"/></linearGradient><linearGradient id="b" gradientUnits="userSpaceOnUse" x1="399.91146554973" x2="399.91146554973" y1="547.044707564911" y2="516.187468664911"><stop offset="0" stop-color="#97a9b1"/><stop offset="1" stop-color="#cfdce1"/></linearGradient><g transform="translate(-384.57143 -515.798)"><ellipse cx="400.57138" cy="531.79791" fill="url(#a)"/><circle cx="400.63797" cy="531.84351" fill="none" r="15.645466"/><circle cx="400.57144" cy="531.79803" fill="url(#b)" r="16.000002"/><path d="m410.46739 530.07283c-.0697-.0913-.16061-.1456-.27345-.16286l-2.38276-.36455c-.13024-.41665-.30829-.84193-.53395-1.276.15614-.21703.39044-.52292.70289-.918.31244-.39508.5338-.68355.66405-.86591.0695-.0956.10404-.19529.10404-.2995 0-.12146-.0302-.21687-.0911-.28639-.31245-.44287-1.02861-1.18059-2.14847-2.21367-.10388-.0868-.21255-.13009-.32523-.13009-.13025 0-.23446.039-.31261.11699l-1.84879 1.39331c-.35608-.18236-.74668-.34298-1.17196-.48186l-.36455-2.3957c-.009-.11283-.0586-.20616-.14975-.28-.0913-.0738-.19737-.1106-.31916-.1106h-2.89051c-.25171 0-.40802.12146-.46874.36455-.11284.43391-.23877 1.24117-.37766 2.42175-.40802.13041-.80293.29534-1.1849.49497l-1.79686-1.39332c-.11284-.0868-.22566-.13009-.3385-.13009-.19098 0-.60108.31021-1.23045.93095s-1.05673 1.08725-1.28255 1.3997c-.0781.11284-.11715.21272-.11715.2995 0 .10421.0433.2084.13009.31245.58158.70321 1.04603 1.30205 1.39331 1.79701-.21704.39923-.38629.79862-.50775 1.19785l-2.4219.36455c-.0954.0174-.17789.0738-.24741.16941-.0695.0954-.1042.19529-.1042.29934v2.89065c0 .113.0347.2148.1042.3059.0695.0913.16062.14576.27346.16302l2.38291.3516c.12146.42528.29934.85488.5338 1.28879-.15614.21703-.3906.52293-.70305.918-.31245.39508-.53396.68355-.66406.86591-.0695.0958-.10419.19529-.10419.2995 0 .11283.0304.21256.0911.29934.33849.46892 1.05464 1.19817 2.14845 2.18761.0956.0956.20409.1432.32555.1432.13026 0 .23877-.039.32556-.11699l1.836-1.39346c.35609.18235.74669.34297 1.17196.48201l.36455 2.3957c.009.11283.0586.20616.14976.28.0911.074.19753.1106.319.1106h2.89066c.25203 0 .40818-.12146.46907-.36455.11267-.43407.23845-1.24117.37733-2.42175.40802-.13025.8031-.29534 1.1849-.49496l1.79702 1.40641c.12146.0779.23446.11699.3385.11699.19083 0 .59885-.30797 1.22374-.9244.62522-.61626 1.05482-1.08517 1.28895-1.40641.0781-.0868.11731-.18651.11731-.29934s-.0433-.22167-.13025-.32555c-.6249-.76394-1.08934-1.36278-1.39331-1.79686.17356-.32123.34297-.71615.5079-1.1849l2.40881-.36439c.10404-.0175.19114-.074.2605-.16957.0693-.0956.10389-.19546.10389-.2995v-2.89049c.00016-.11284-.0344-.21465-.10405-.3059zm-7.53886 4.08195c-.65094.65111-1.43662.97666-2.35686.97666-.92025 0-1.70576-.32555-2.35686-.97666-.65095-.65094-.97651-1.43646-.97651-2.3567s.32539-1.70575.97651-2.35686c.6511-.65094 1.43678-.9765 2.35686-.9765.92024 0 1.70592.32556 2.35686.9765.65095.65111.9765 1.43662.9765 2.35686s-.32555 1.70576-.9765 2.3567z" fill="#fff" fill-opacity=".851852" stroke-width="1.317422"/></g></svg>