<svg height="32" viewBox="0 0 32 32" width="32" xmlns="http://www.w3.org/2000/svg" xmlns:xlink="http://www.w3.org/1999/xlink"><linearGradient id="a" gradientUnits="userSpaceOnUse" x1="399.57144" x2="399.57144" y1="545.79797" y2="517.79797"><stop offset="0" stop-color="#3889e9"/><stop offset="1" stop-color="#5ea5fb"/></linearGradient><linearGradient id="b" gradientUnits="userSpaceOnUse" x1="400.5119" x2="400.5119" y1="546.07446" y2="518.33484"><stop offset="0" stop-color="#ff9300"/><stop offset="1" stop-color="#ffd702"/></linearGradient><linearGradient id="c" gradientUnits="userSpaceOnUse" x1="43.52227" x2="43.52227" y1="98.865776" y2="-4.869186"><stop offset="0" stop-color="#e3e3e3"/><stop offset="1" stop-color="#fffcff"/></linearGradient><g transform="translate(-384.57143 -515.798)"><ellipse cx="400.57138" cy="531.79791" fill="url(#a)"/><g transform="matrix(1.117536624128 0 0 1.117536624128 -47.015292188816 -62.460177851153)"><circle cx="400.57138" cy="531.79791" fill="url(#b)" r="13.999958"/><circle cx="400.57144" cy="531.79797" fill="none" r="13.999958"/><path d="m80.578 9.423c-8.377-8.376-18.895-11.44-22.244-8.09l-13.482 13.482c-2.045 2.045-3.828 8.89-3.01 15.818l-40.805 40.806c-2.42 2.42-.459 8.305 4.381 13.144 4.84 4.841 10.725 6.801 13.145 4.383l40.805-40.805c6.93.818 13.773-.967 15.818-3.011l13.482-13.482c3.35-3.351.287-13.868-8.09-22.245zm-44.873 40.779c-1.863-1.863-1.256-5.484 1.348-8.09 2.605-2.604 6.229-3.211 8.09-1.348 1.859 1.86 1.256 5.484-1.348 8.089-2.606 2.605-6.231 3.209-8.09 1.349zm33.752-29.657c-6.49-6.489-8.119-15.051-7.543-15.63.578-.578 8.803 1.389 15.295 7.878 6.488 6.491 8.436 14.734 7.877 15.294-.559.559-9.141-1.051-15.629-7.542z" fill="url(#c)" transform="matrix(.17252144 0 0 .17252144 392.91389 524.00695)"/></g></g></svg>