<svg height="48" width="48" xmlns="http://www.w3.org/2000/svg" xmlns:xlink="http://www.w3.org/1999/xlink"><linearGradient id="a" gradientTransform="matrix(1.3776904 0 0 1.2950473 -483.56204 -664.74396)" gradientUnits="userSpaceOnUse" x1="368.96432" x2="368.96432" y1="545.75293" y2="517.39703"><stop offset="0" stop-color="#ff3069"/><stop offset="1" stop-color="#ffa548"/></linearGradient><rect fill="url(#a)" height="36.342266" opacity=".988" ry="2.590095" stroke-width="1.295047" width="44" x="2" y="5.828867"/><g fill="#fff" transform="matrix(.91666667 0 0 .91666667 1.96425 1.959715)"><g transform="matrix(1.0015158 0 0 1.0015158 -292.11673 -499.3199)"><path d="m294.90044 506.26511v1 4h1v-4h4v-1z" opacity=".75"/><path d="m294.90044 538.56511h1 4v-1h-4v-4h-1z" opacity=".75"/><path d="m336.2007 538.06511v-1-4h-1v4h-4v1z" opacity=".75"/><path d="m336.3007 506.56472h-1-4v1h4v4h1z" opacity=".75"/></g><path d="m401.93651 543.63887c-.42228-.4126-.93162-.61895-1.52845-.61895h-1.89163l-.43056-1.12246c-.10697-.26957-.30255-.50207-.58698-.69748-.28431-.19533-.57567-.29308-.87408-.29308h-4.32381c-.29841 0-.58978.0978-.8741.29308-.2843.19541-.4799.42791-.58687.69748l-.43067 1.12246h-1.89163c-.59683 0-1.10627.20635-1.52854.61895-.42217.41272-.63331.91063-.63331 1.49394v7.39521c0 .58331.21114 1.08133.63331 1.49383.42227.41272.93171.61907 1.52854.61907h11.89024c.59681 0 1.10616-.20635 1.52844-.61907.42216-.4125.63331-.91052.63331-1.49383v-7.39521c.00007-.58331-.21104-1.08122-.63321-1.49394zm-4.80092 7.80387c-.74027.72362-1.63116 1.08538-2.67274 1.08538-1.04159 0-1.93237-.36176-2.67275-1.08538-.74039-.72352-1.11051-1.59431-1.11051-2.61222 0-1.018.37023-1.88862 1.11051-2.61223.74027-.72362 1.63116-1.08538 2.67275-1.08538 1.04158 0 1.93237.36186 2.67274 1.08538.74038.72351 1.11053 1.59423 1.11053 2.61223 0 1.01791-.37025 1.8886-1.11053 2.61222zm-2.67274-4.98933c-.67 0-1.24278.23249-1.71854.69749-.47576.46498-.71363 1.02478-.71363 1.67962 0 .65482.23787 1.21463.71363 1.67961.47576.46489 1.04854.69739 1.71854.69739.66989 0 1.24278-.2325 1.71854-.69739.47575-.46498.71363-1.02479.71363-1.67961 0-.65484-.23788-1.21464-.71363-1.67962-.47576-.465-1.04865-.69749-1.71854-.69749z" opacity=".795" transform="matrix(1.2989443 0 0 1.2949407 -488.6671 -685.93328)"/></g></svg>