<svg height="32" viewBox="0 0 32 32" width="32" xmlns="http://www.w3.org/2000/svg" xmlns:xlink="http://www.w3.org/1999/xlink"><linearGradient id="a" gradientUnits="userSpaceOnUse" x1="396.666626104264" x2="396.666626104264" y1="518.079462948004" y2="545.15430677234"><stop offset="0" stop-color="#db50c8"/><stop offset="1" stop-color="#981fe7"/></linearGradient><linearGradient id="b" gradientUnits="userSpaceOnUse" x1="403.435326899056" x2="402.468378352336" y1="545.15430677234" y2="518.079462948004"><stop offset="0" stop-color="#981fe7"/><stop offset="1" stop-color="#db50c8"/></linearGradient><linearGradient id="c" gradientUnits="userSpaceOnUse" x1="18.245573" x2="16.811239" y1="29.791063" y2="1.104376"><stop offset="0" stop-color="#d3d3d3"/><stop offset="1" stop-color="#fcf9f9"/></linearGradient><g transform="matrix(1.0508504 0 0 1.0508504 -404.951596 -542.701903)"><circle cx="400.52377" cy="531.74243" fill="url(#b)" r="14.225764" stroke="url(#a)" stroke-width="1.524194"/><path d="m31.821 4.074c-.31-1.174-1.511-1.875-2.685-1.566-1.176.309-1.877 1.511-1.568 2.686.146.551.488.996.933 1.284-.107 1.614-.588 3.58-2.009 5.299-4.005-4.569-5.696-6.434-6.479-7.189.418-.265.771-.43 1.004-.523.529.44 1.254.629 1.97.44 1.173-.309 1.875-1.512 1.565-2.685-.311-1.175-1.514-1.877-2.687-1.569-.881.232-1.495.966-1.618 1.813-1.656.703-7.309 3.832-6.466 13.582-6.191.18-9.447 1.819-10.928 2.889-.381-.12-.798-.139-1.213-.03-1.174.312-1.875 1.512-1.567 2.688.31 1.175 1.512 1.877 2.686 1.565.968-.254 1.614-1.117 1.637-2.069l6.472 6.794c-.152.094-.301.181-.446.257-.516-.376-1.19-.525-1.856-.353-1.174.31-1.876 1.513-1.567 2.688.31 1.175 1.512 1.877 2.687 1.566.916-.24 1.541-1.026 1.627-1.918 3.028-1.504 5.535-5.198 4.881-11.935 1.943-.009 3.734-.228 5.343-.651 2.406-.633 4.406-1.716 5.921-3.229 1.911-1.911 3.002-4.414 3.188-7.291.932-.448 1.449-1.506 1.175-2.543zm-20.091 22.749-6.753-7.088c.433-.235.97-.487 1.632-.729l6.326 6.303c-.362.623-.777 1.119-1.205 1.514zm1.701-2.539-5.667-5.647c.871-.244 1.902-.461 3.11-.612l3.242 3.094c-.095 1.261-.342 2.304-.685 3.165zm-1.148-6.406c.552-.043 1.135-.072 1.751-.086.073.666.111 1.289.121 1.872zm3.66-2.239c-.141-1.48-.119-2.781.019-3.92l3.165 3.712c-.996.144-2.06.214-3.184.208zm4.411-.427-4.154-4.87c.222-.963.531-1.787.892-2.491 1.349 1.457 3.855 4.284 5.838 6.54-.788.344-1.649.618-2.576.821zm3.572-1.316c-3.516-4.011-5.31-6.012-6.267-7.007.479-.703.997-1.25 1.491-1.667.847.837 4.134 4.537 6.602 7.345-.535.502-1.148.946-1.826 1.329z" fill="url(#c)" opacity=".9" transform="matrix(.59673654 0 0 .59673654 390.64486 522.80536)"/></g></svg>