<svg height="48" viewBox="0 0 48 48.000001" width="48" xmlns="http://www.w3.org/2000/svg" xmlns:xlink="http://www.w3.org/1999/xlink"><linearGradient id="a" gradientUnits="userSpaceOnUse" x1="24" x2="24" xlink:href="#b" y1="1010.36219" y2="1046.36219"/><linearGradient id="b"><stop offset="0" stop-color="#fffce4"/><stop offset="1" stop-color="#fafacd"/></linearGradient><linearGradient id="c" gradientUnits="userSpaceOnUse" x1="23.716213" x2="24.283766" xlink:href="#f" y1="1047.5164" y2="1012.1548"/><linearGradient gradientUnits="userSpaceOnUse" x1="0" x2="47" y1="23.5" y2="23.5"><stop offset="0" stop-color="#a9a3d4"/><stop offset=".47001833" stop-color="#87baff"/><stop offset="1" stop-color="#89ec85"/></linearGradient><linearGradient id="d" gradientUnits="userSpaceOnUse" x1="24.193117107384" x2="24.193117107384" xlink:href="#b" y1="1007.529858430917" y2="1049.718118030917"/><linearGradient id="e" gradientUnits="userSpaceOnUse" x1="24.229177107384" x2="24.229177107384" xlink:href="#f" y1="1050.890144130917" y2="1005.1862313878"/><linearGradient id="f"><stop offset="0" stop-color="#ff7a01"/><stop offset="1" stop-color="#feb600"/></linearGradient><g transform="matrix(1.0239813 0 0 1.0239813 -.719223 -1029.191891)"><circle cx="24.229177" cy="1028.6241" fill="url(#e)" r="23.437929"/><circle cx="24.19313" cy="1028.624" fill="url(#d)" r="21.09413"/><g transform="matrix(1.1718961 0 0 1.1718961 -3.798086 -176.44407)"><circle cx="24.000002" cy="1028.3622" fill="url(#a)" r="0"/><path d="m23.99999 1012.3622c-3 0-5 2-5 2s1.19323 4.0523 2 6c .85571 2.0659 3 6 3 6s2.14429-3.9341 3-6c .80677-1.9477 2-6 2-6s-2-2-5-2zm-6.363281 2.5645s-2.829852-.0003-4.951172 2.121c-2.12132 2.1214-2.121094 4.9512-2.121094 4.9512s3.710492 2.0214 5.658203 2.8281c2.065862.8557 6.363282 2.1211 6.363282 2.1211s-1.265389-4.2974-2.121094-6.3632c-.806767-1.9478-2.828125-5.6582-2.828125-5.6582zm12.726562 0s-2.021358 3.7104-2.828125 5.6582c-.855705 2.0658-2.121094 6.3632-2.121094 6.3632s4.29742-1.2654 6.363282-2.1211c1.947711-.8067 5.658203-2.8281 5.658203-2.8281s.000226-2.8298-2.121094-4.9512c-2.12132-2.1213-4.951172-2.121-4.951172-2.121zm-20.363281 8.4355s-2 2-2 5 2 5 2 5 4.05229-1.1932 6-2c2.06586-.8557 6-3 6-3s-3.93414-2.1443-6-3c-1.94771-.8068-6-2-6-2zm28 0s-4.05229 1.1932-6 2c-2.06586.8557-6 3-6 3s3.93414 2.1443 6 3c1.94771.8068 6 2 6 2s2-2 2-5-2-5-2-5zm-15.414062 6.4141s-4.29742 1.2654-6.363282 2.1211c-1.947711.8067-5.658203 2.8281-5.658203 2.8281s-.000226 2.8298 2.121094 4.9512c2.12132 2.1213 4.951172 2.121 4.951172 2.121s2.021358-3.7104 2.828125-5.6582c.855705-2.0658 2.121094-6.3632 2.121094-6.3632zm2.828124 0s1.265389 4.2974 2.121094 6.3632c.806767 1.9478 2.828125 5.6582 2.828125 5.6582s2.829852.0003 4.951172-2.121c2.12132-2.1214 2.121094-4.9512 2.121094-4.9512s-3.710492-2.0214-5.658203-2.8281c-2.065862-.8557-6.363282-2.1211-6.363282-2.1211zm-1.414062.5859s-2.14429 3.9341-3 6c-.80677 1.9477-2 6-2 6s2 2 5 2 5-2 5-2-1.19323-4.0523-2-6c-.85571-2.0659-3-6-3-6z" fill="url(#c)"/></g></g></svg>