<svg height="48" width="48" xmlns="http://www.w3.org/2000/svg" xmlns:xlink="http://www.w3.org/1999/xlink"><linearGradient id="a"><stop offset="0" stop-color="#c52828"/><stop offset="1" stop-color="#ff5454"/></linearGradient><linearGradient id="b" gradientTransform="matrix(.95323403 0 0 .95323401 12.503542 5.484169)" gradientUnits="userSpaceOnUse" x1="223.75114" x2="223.75114" xlink:href="#a" y1="308.28076" y2="-118.49677"/><linearGradient id="c" gradientUnits="userSpaceOnUse" x1="220.51286" x2="217.88428" xlink:href="#a" y1="314.41678" y2="-128.3981"/><g stroke="url(#c)" transform="matrix(.096856311854 0 0 .097376585563 1.802227560821 14.428500347276)"><path d="m317.90518-120.47228h-179.87527l-128.8295321 128.8295822v182.3059978l128.8295321 126.39883h182.30602l128.82862-128.82958v-179.8752478z" fill="url(#b)" stroke="url(#c)" stroke-width="14.317011"/><g fill="#fff" fill-opacity=".852041" stroke="url(#c)" transform="matrix(1.6171928 0 0 1.6171928 -39.055967 -194.0582)"><path d="m147.281 131.031 7.25 83c .423 4.886 4.301 8.913 9.355 9.355 5.661.495 10.651-3.694 11.145-9.355l7.25-83c .078-.97.088-2.057 0-3.057-.844-9.666-9.363-16.816-19.028-15.973-9.665.845-16.816 9.366-15.972 19.03z" fill="#fff" fill-opacity=".852041" stroke="url(#c)"/><circle cx="164.78101" cy="243.03101" fill="#fff" fill-opacity=".852041" r="14.5" stroke="url(#c)"/></g></g></svg>