<svg height="48" width="48" xmlns="http://www.w3.org/2000/svg" xmlns:xlink="http://www.w3.org/1999/xlink"><linearGradient id="a" gradientTransform="matrix(1.3125 0 0 1.1666667 -127.62762 -87.212987)" gradientUnits="userSpaceOnUse" x1="409.57144" x2="409.57144" y1="543.79797" y2="503.798"><stop offset="0" stop-color="#ccc"/><stop offset="1" stop-color="#f9f9f9"/></linearGradient><g transform="translate(-384.57143 -499.798)"><rect fill-opacity=".666667" height="46.666634" ry="2.333329" width="42" x="387.62244" y="501.13138"/><rect fill="url(#a)" height="46.666634" ry="2.333329" width="42" x="387.62244" y="500.55136"/><path d="m405.49721 500.54901v16.68698h-.0176v5.46392c-.35785 3.5188 6.64281 3.5188 6.27149 0v-2.70363h.002v-19.44727h-6.25586z" fill-opacity=".666667" fill-rule="evenodd"/><g fill="#fff"><rect height="2.333334" opacity=".929" ry="1.036756" width="4.666667" x="406.3728" y="501.84793"/><rect height="2.333334" opacity=".929" ry="1.036756" width="4.666667" x="406.36304" y="505.22269"/><rect height="2.333334" opacity=".929" ry="1.036756" width="4.666667" x="406.33377" y="508.55676"/><rect height="2.333334" opacity=".929" ry="1.036756" width="4.666667" x="406.38489" y="512.02753"/><rect height="2.333334" opacity=".929" ry="1.036756" width="4.666667" x="406.38489" y="515.43738"/><rect height="2.333334" opacity=".929" ry="1.036756" width="4.666667" x="406.38483" y="518.92761"/></g><path d="m410.42655 525.17105v-1.47247c0-.41025-.33152-.74297-.74028-.74297h-2.05678c-.40876 0-.74037.33281-.74037.74297v1.47175l-1.14398 3.37304c-.32008.94009-.1665 1.98456.41024 2.79404.57676.808 1.51197 1.29059 2.50246 1.29059.99068 0 1.92598-.48259 2.50272-1.29059.57674-.80948.73013-1.85395.41015-2.7933zm-.47781 5.2964c-.59345.83356-1.98836.83356-2.5819 0-.29747-.41757-.37666-.9562-.21228-1.44158l.38394-1.13136h2.23858l.38404 1.1321c.16446.48464.0851 1.02327-.21238 1.44084z" fill-opacity=".666667"/><path d="m23.058594 22.658203c-.40876 0-.740235.332028-.740235.742188v1.472656l-1.144531 3.373047c-.32008.94009-.166584 1.983488.410156 2.792968.0993.139171.209065.269612.328125.388672l15.992188 15.992188h4.8125c1.292664 0 2.333984-1.041321 2.333984-2.333984v-2.796876l-19.414062-19.414062c-.1339-.13389-.317595-.216797-.521485-.216797z" fill-opacity=".078431" transform="translate(384.57143 499.798)"/><path d="m410.42655 524.67119v-1.47247c0-.41025-.33152-.74297-.74028-.74297h-2.05678c-.40876 0-.74037.33281-.74037.74297v1.47175l-1.14398 3.37304c-.32008.94009-.1665 1.98456.41024 2.79404.57676.808 1.51197 1.29059 2.50246 1.29059.99068 0 1.92598-.48259 2.50272-1.29059.57674-.80948.73013-1.85395.41015-2.7933zm-.47781 5.2964c-.59345.83356-1.98836.83356-2.5819 0-.29747-.41757-.37666-.9562-.21228-1.44158l.38394-1.13136h2.23858l.38404 1.1321c.16446.48464.0851 1.02327-.21238 1.44084z" fill="#f0f5f1"/></g></svg>