<svg height="48" width="48" xmlns="http://www.w3.org/2000/svg" xmlns:xlink="http://www.w3.org/1999/xlink"><linearGradient id="a" gradientUnits="userSpaceOnUse" x1="409.41952892626" x2="409.41952892626" y1="542.4102326176" y2="504.60335657278"><stop offset="0" stop-color="#2e3e46"/><stop offset="1" stop-color="#435a64"/></linearGradient><g transform="matrix(1.1638089 0 0 1.1638089 -451.386094 -585.261857)"><rect fill="url(#a)" height="37.806877" ry="18.903439" width="37.806892" x="389.57092" y="504.60333"/><path d="m408.4721 511.51973c-6.56751 0-11.88975 5.32392-11.88975 11.88975 0 6.56752 5.32392 11.88976 11.88975 11.88976 6.56752 0 11.88976-5.32392 11.88976-11.88976 0-6.56499-5.32392-11.88975-11.88976-11.88975m-.0689 6.33476c3.04932 0 5.52391 2.47122 5.52391 5.5239 0 3.04933-2.47122 5.52391-5.52391 5.52391-3.04932 0-5.5239-2.47458-5.5239-5.52391 0-3.04932 2.47458-5.5239 5.5239-5.5239m0 0" fill="#b9d543" fill-opacity=".388"/><path d="m23.96875 9.2285156c-8.101972 0-14.6699219 6.5659964-14.6699219 14.6679684 0 8.09805 6.5679499 14.664063 14.6699219 14.664063 8.09805 0 14.664062-6.566013 14.664062-14.664063 0-8.101972-6.566012-14.6679684-14.664062-14.6679684zm.025391.8203124c7.643338 0 13.83789 6.196519 13.83789 13.837891 0 7.643338-6.196507 13.83789-13.83789 13.83789-7.643327 0-13.837891-6.196507-13.837891-13.83789 0-7.640394 6.196519-13.837891 13.837891-13.837891zm.003906 4.455078c-5.160422 0-9.347656 4.182351-9.347656 9.34375 0 5.160422 4.186257 9.34375 9.347656 9.34375 5.160422 0 9.339844-4.18235 9.339844-9.34375 0-5.160422-4.178445-9.34375-9.339844-9.34375zm0 1.023438c4.614758 0 8.357422 3.744624 8.357422 8.363281 0 4.614758-3.742664 8.357422-8.357422 8.357422-4.614747 0-8.363281-3.742664-8.363281-8.357422 0-4.614747 3.744624-8.363281 8.363281-8.363281z" fill="#ffce02" fill-opacity=".846774" transform="matrix(.8592476 0 0 .8592476 387.85242 502.88484)"/></g></svg>