<svg height="48" width="48" xmlns="http://www.w3.org/2000/svg" xmlns:xlink="http://www.w3.org/1999/xlink"><linearGradient id="a" gradientUnits="userSpaceOnUse" x1="355.734639754972" x2="355.690693977712" y1="546.998390330562" y2="505.3274713404"><stop offset="0" stop-color="#1297ca"/><stop offset="1" stop-color="#70e2ec"/></linearGradient><linearGradient id="b" gradientTransform="matrix(-.56777405 0 0 .61822428 579.27321 212.13023)" gradientUnits="userSpaceOnUse" x1="374.54285" x2="374.54285" y1="507.15387" y2="548.64636"><stop offset="0" stop-color="#fdcc59"/><stop offset="1" stop-color="#f5a844"/></linearGradient><g transform="matrix(.97459608 0 0 .97459608 -322.303984 -489.311121)"><path d="m372.72396 511.00526c-4.64376-3.77923-10.8097-5.86043-17.36188-5.86043-6.5523 0-12.71825 2.08134-17.3619 5.86043-4.68415 3.81204-7.26383 8.89248-7.26383 14.30562 0 5.1665 2.35146 10.0291 6.6381 13.77566-.0773.17385-.13864.35675-.1778.54904l-1.40852 6.92833c-.16748.8234.0576 1.31439.27567 1.58146.25214.30847.62586.47846 1.05242.47846.32207 0 .66821-.095 1.02889-.28251l8.19253-4.25611c2.83641.91297 5.88571 1.3917 9.02427 1.3917 6.55233 0 12.71811-2.0813 17.36192-5.8604 4.68401-3.81192 7.26369-8.89237 7.26369-14.3055 0-5.41327-2.57956-10.49371-7.26357-14.30575z" fill="url(#a)"/><path d="m325.55443 521.87526 2.00286.47687q-.28612.76299-.66762 1.43061h9.63281v7.53458h-14.30615v1.23986h16.88126v1.52599h-16.88126v1.23987h17.07201q-.28612 6.19933-.95374 7.4392-.57225 1.33524-2.19361 1.33524-.763 0-2.38436-.28612l-.3815-1.90749q1.81211.28612 2.57511.28612.57224 0 .76299-.57224.28612-.66762.47687-4.67335h-16.88126v-13.16166h4.4826q.47687-.95374.76299-1.90748zm-3.3381 3.43347v1.52599h12.39867v-1.52599zm0 2.95661v1.52599h12.39867v-1.52599zm4.1011 9.25131h1.90748v2.57511h4.67335v-2.38436h1.81211v3.91035h-12.97091v1.62136h-1.90749v-5.43634h1.90749v2.28899h4.57797z" fill="#fff" opacity=".8" transform="matrix(1.160208943913 0 0 1.160208943913 -26.182377225773 -92.589986556927)"/><path d="m358.65242 529.1544c2.32189-2.05752 5.40486-3.19058 8.68093-3.19058 3.27614 0 6.35912 1.13313 8.68094 3.19058 2.34206 2.07537 3.63191 4.8413 3.63191 7.78837 0 2.81279-1.17574 5.46009-3.31906 7.49984.0388.0947.0694.19423.0889.29891l.70425 3.77197c.0837.44829-.0287.7156-.13788.861-.12614.16793-.31294.26049-.52621.26049-.16104 0-.3341-.0517-.51444-.15382l-4.09627-2.31712c-1.4182.49704-2.94284.75766-4.51213.75766-3.27614 0-6.35905-1.13311-8.68093-3.19056-2.342-2.07531-3.63185-4.84125-3.63185-7.7883 0-2.94714 1.28978-5.71307 3.63178-7.78844z" fill="url(#b)"/></g><g fill="#fff" fill-opacity=".85" transform="matrix(.084035882948 0 0 .084035882948 18.909939543578 15.737715180821)"><path d="m120.31878 192.70649h59.117c-1.666 10.675-7.326 22.046-16.84 33.827-6.064-9.714-9.964-19.135-12.188-25.408-.562-1.583-2.058-2.641-3.736-2.641h-9.728c-1.264 0-2.453.603-3.2 1.623-.746 1.021-.961 2.335-.579 3.542 2.305 7.258 7.614 21.507 17.429 35.986-11.594 11.271-23.143 19.394-27.611 22.387-1.778 1.192-2.289 3.581-1.153 5.396l4.882 7.808c.565.903 1.473 1.542 2.515 1.771.28.063.564.093.846.093.769 0 1.527-.224 2.178-.651 4.601-3.024 16.538-11.28 29.038-23.255 4.625 4.82 15.499 13.268 21.942 17.954.983.715 2.242.938 3.415.607 1.172-.334 2.124-1.188 2.586-2.312l3.642-8.903c.732-1.789.065-3.85-1.579-4.867-4.198-2.604-12.101-7.952-18.552-14.902 14.163-16.575 22.24-32.734 24.018-48.049h3.121c2.189 0 3.964-1.775 3.964-3.965v-10.567c0-2.189-1.774-3.964-3.964-3.964h-30.872v-5.426c0-2.19-1.774-3.965-3.964-3.965h-9.89c-2.189 0-3.964 1.774-3.964 3.965v5.426h-30.872c-2.189 0-3.964 1.774-3.964 3.964v10.567c-.001 2.184 1.774 3.959 3.963 3.959z" fill="#fff" fill-opacity=".85"/><path d="m256.10311 180.09731c-.516-1.66-2.049-2.791-3.787-2.791h-22.026c-1.743 0-3.281 1.139-3.791 2.805l-26.318 86.05c-.369 1.202-.145 2.508.604 3.521.748 1.009 1.93 1.604 3.188 1.604h13.664c1.779 0 3.342-1.188 3.819-2.901l5.9-21.229h26.923l6.389 21.307c.502 1.678 2.047 2.825 3.797 2.825h14.523c1.262 0 2.444-.599 3.19-1.61.748-1.015.969-2.323.594-3.526zm-25.697 51.186 9.917-38.067h.27l10.604 38.067z" fill="#fff" fill-opacity=".85"/></g></svg>