<svg viewBox="0 0 48 48" xmlns="http://www.w3.org/2000/svg" xmlns:xlink="http://www.w3.org/1999/xlink"><linearGradient id="a" gradientUnits="userSpaceOnUse" x1="399.57144" x2="399.57144" y1="545.79797" y2="517.79797"><stop offset="0" stop-color="#3889e9"/><stop offset="1" stop-color="#5ea5fb"/></linearGradient><linearGradient gradientUnits="userSpaceOnUse" x1="-318.57867" x2="-318.57867" y1="653.95679" y2="301.29816"><stop offset="0" stop-color="#0a80fd"/><stop offset="1" stop-color="#56c5fa"/></linearGradient><linearGradient id="b" gradientUnits="userSpaceOnUse" x1="-318.57867" x2="-318.57867" y1="653.95679" y2="301.29816"><stop offset="0" stop-color="#833cfc"/><stop offset="1" stop-color="#eb60ff"/></linearGradient><circle cx="400.57138" cy="531.79791" fill="url(#a)" r="0" transform="matrix(1.637466544097 0 0 1.637466544097 -644.578187175317 -848.879334054169)"/><circle cx="-325.88733" cy="478.74667" fill="url(#b)" r="173.44701" transform="matrix(.138370791844 0 0 .138370791844 69.093287331483 -42.244555934903)"/><path d="m46.907 20.12c-.163-.347-.511-.569-.896-.569h-2.927c-1.861-10.099-10.729-17.776-21.358-17.776-11.979 0-21.726 9.747-21.726 21.726s9.746 21.725 21.726 21.725c7.731 0 14.941-4.161 18.816-10.857.546-.945.224-2.152-.722-2.699-.944-.547-2.152-.225-2.697.72-3.172 5.481-9.072 8.887-15.397 8.887-9.801 0-17.776-7.974-17.776-17.774 0-9.802 7.975-17.776 17.776-17.776 8.442 0 15.515 5.921 17.317 13.825h-2.904c-.385 0-.732.222-.896.569-.163.347-.11.756.136 1.051l4.938 5.925c.188.225.465.355.759.355.293 0 .571-.131.758-.355l4.938-5.925c.246-.296.298-.705.135-1.052z" fill="#fff" fill-opacity=".862903" transform="matrix(-.782490593895 0 0 .782490593895 41.588730140161 5.611079721446)"/></svg>