<svg height="48" width="48" xmlns="http://www.w3.org/2000/svg" xmlns:xlink="http://www.w3.org/1999/xlink"><linearGradient id="a" gradientUnits="userSpaceOnUse" x1="409.55754494262" x2="409.55754494262" y1="548.307177203" y2="499.507414336505"><stop offset="0" stop-color="#00a199"/><stop offset="1" stop-color="#00f89a" stop-opacity=".988235"/></linearGradient><clipPath id="b"><circle cx="433.30255" cy="423.79526" r="22.868952"/></clipPath><linearGradient id="c" gradientUnits="userSpaceOnUse" x1="434.28862494262" x2="434.28862494262" y1="448.304407203" y2="399.504644336505"><stop offset="0" stop-color="#ccc"/><stop offset="1" stop-color="#fff"/></linearGradient><linearGradient id="d" gradientUnits="userSpaceOnUse" x1="363.20563" x2="362.79865" y1="547.39105" y2="515.85101"><stop offset="0" stop-color="#d4ff2a"/><stop offset="1" stop-color="#ff0"/></linearGradient><g transform="translate(-384.57143 -499.798)"><text opacity=".8" x="1202.6191" y="509.15475"><tspan x="1202.6191" y="509.15475"/></text><text opacity=".8" x="1226.5801" y="468.41306"><tspan x="1226.5801" y="468.41306"/></text><text opacity=".8" x="-243.97829" y="438.3349"><tspan x="-243.97829" y="438.3349"/></text><text opacity=".8" x="-2067.6643" y="1183.8884"><tspan x="-2067.6643" y="1183.8884"/></text><text opacity=".8" x="-129.4872" y="53.013943"><tspan x="-129.4872" y="53.013943"/></text><text opacity=".8" x="678.11493" y="-360.45621"><tspan x="678.11493" y="-360.45621"/></text><text opacity=".8" x="702.07587" y="-401.19788"><tspan x="702.07587" y="-401.19788"/></text><text opacity=".8" x="-789.38727" y="-408.40778"><tspan x="-789.38727" y="-408.40778"/></text><text opacity=".8" x="671.15546" y="-681.64197"><tspan x="671.15546" y="-681.64197"/></text><text opacity=".8" x="2157.2788" y="-54.950565"><tspan x="2157.2788" y="-54.950565"/></text><text opacity=".8" x="2181.2397" y="-95.692329"><tspan x="2181.2397" y="-95.692329"/></text><text opacity=".8" x="689.77661" y="-102.90223"><tspan x="689.77661" y="-102.90223"/></text><text opacity=".8" x="2150.3196" y="-376.13623"><tspan x="2150.3196" y="-376.13623"/></text><text opacity=".8" x="-248.03969" y="-150.99353"><tspan x="-248.03969" y="-150.99353"/></text><text opacity=".8" x="-2071.7253" y="594.56"><tspan x="-2071.7253" y="594.56"/></text><text opacity=".8" x="-356.96991" y="687.43213"><tspan x="-356.96991" y="687.43213"/></text><text opacity=".8" x="752.05438" y="508.25003"><tspan x="752.05438" y="508.25003"/></text><text opacity=".8" x="776.01532" y="467.5083"><tspan x="776.01532" y="467.5083"/></text><text opacity=".8" x="-715.44781" y="460.29831"><tspan x="-715.44781" y="460.29831"/></text><text opacity=".8" x="745.09491" y="187.06427"><tspan x="745.09491" y="187.06427"/></text><text opacity=".8" x="-282.63968" y="457.58408"><tspan x="-282.63968" y="457.58408"/></text><text opacity=".8" x="-2106.3257" y="1203.1376"><tspan x="-2106.3257" y="1203.1376"/></text><text opacity=".8" x="-131.54662" y="-403.94641"><tspan x="-131.54662" y="-403.94641"/></text><text opacity=".8" x="676.05554" y="-817.41663"><tspan x="676.05554" y="-817.41663"/></text><text opacity=".8" x="700.01642" y="-858.15833"><tspan x="700.01642" y="-858.15833"/></text><text opacity=".8" x="-791.44672" y="-865.36829"><tspan x="-791.44672" y="-865.36829"/></text><text opacity=".8" x="669.09601" y="-1138.6024"><tspan x="669.09601" y="-1138.6024"/></text><text opacity=".8" x="2155.2195" y="-511.91116"><tspan x="2155.2195" y="-511.91116"/></text><text opacity=".8" x="2179.1802" y="-552.65271"><tspan x="2179.1802" y="-552.65271"/></text><text opacity=".8" x="687.71716" y="-559.86267"><tspan x="687.71716" y="-559.86267"/></text><text opacity=".8" x="2148.26" y="-833.0968"><tspan x="2148.26" y="-833.0968"/></text><text opacity=".8" x="-250.09914" y="-607.95398"><tspan x="-250.09914" y="-607.95398"/></text><text opacity=".8" x="-2073.7849" y="137.59953"><tspan x="-2073.7849" y="137.59953"/></text><text opacity=".8" x="-359.02936" y="230.47168"><tspan x="-359.02936" y="230.47168"/></text><text opacity=".8" x="480.98517" y="471.38586"><tspan x="480.98517" y="471.38586"/></text><text opacity=".8" x="504.94611" y="430.64417"><tspan x="504.94611" y="430.64417"/></text><text opacity=".8" x="-764.87061" y="236.61552"><tspan x="-764.87061" y="236.61552"/></text><text opacity=".8" x="42.731461" y="-176.85461"><tspan x="42.731461" y="-176.85461"/></text><text opacity=".8" x="66.692398" y="-217.59633"><tspan x="66.692398" y="-217.59633"/></text><text opacity=".8" x="-1424.7708" y="-224.80621"><tspan x="-1424.7708" y="-224.80621"/></text><text opacity=".8" x="35.772015" y="-498.04034"><tspan x="35.772015" y="-498.04034"/></text><text opacity=".8" x="1521.8954" y="128.65103"><tspan x="1521.8954" y="128.65103"/></text><text opacity=".8" x="1545.8563" y="87.909302"><tspan x="1545.8563" y="87.909302"/></text><text opacity=".8" x="54.393139" y="80.699333"><tspan x="54.393139" y="80.699333"/></text><text opacity=".8" x="1514.936" y="-192.53474"><tspan x="1514.936" y="-192.53474"/></text><text opacity=".8" x="-883.42316" y="32.608059"><tspan x="-883.42316" y="32.608059"/></text><text opacity=".8" x="-2707.1089" y="778.16162"><tspan x="-2707.1089" y="778.16162"/></text><text opacity=".8" transform="matrix(.90475 0 0 .90475 -391.35714 -177.94785)" x="-664.2738" y="1159.4154"><tspan x="-664.2738" y="1159.4154"/></text><text opacity=".8" x="1202.6191" y="516.3927"><tspan x="1202.6191" y="516.3927"/></text><text opacity=".8" x="1226.5801" y="475.65103"><tspan x="1226.5801" y="475.65103"/></text><text opacity=".8" x="-243.97829" y="445.57288"><tspan x="-243.97829" y="445.57288"/></text><text opacity=".8" x="-2067.6643" y="1191.1263"><tspan x="-2067.6643" y="1191.1263"/></text><text opacity=".8" x="-129.4872" y="60.251945"><tspan x="-129.4872" y="60.251945"/></text><text opacity=".8" x="678.11493" y="-353.21817"><tspan x="678.11493" y="-353.21817"/></text><text opacity=".8" x="702.07587" y="-393.9599"><tspan x="702.07587" y="-393.9599"/></text><text opacity=".8" x="-789.38727" y="-401.1698"><tspan x="-789.38727" y="-401.1698"/></text><text opacity=".8" x="671.15546" y="-674.40399"><tspan x="671.15546" y="-674.40399"/></text><text opacity=".8" x="2157.2788" y="-47.712589"><tspan x="2157.2788" y="-47.712589"/></text><text opacity=".8" x="2181.2397" y="-88.454353"><tspan x="2181.2397" y="-88.454353"/></text><text opacity=".8" x="689.77661" y="-95.664253"><tspan x="689.77661" y="-95.664253"/></text><text opacity=".8" x="2150.3196" y="-368.89819"><tspan x="2150.3196" y="-368.89819"/></text><text opacity=".8" x="-248.03969" y="-143.75557"><tspan x="-248.03969" y="-143.75557"/></text><text opacity=".8" x="-2071.7253" y="601.79803"><tspan x="-2071.7253" y="601.79803"/></text><text opacity=".8" x="-356.96991" y="694.6701"><tspan x="-356.96991" y="694.6701"/></text><text opacity=".8" x="752.05438" y="515.48804"><tspan x="752.05438" y="515.48804"/></text><text opacity=".8" x="776.01532" y="474.74628"><tspan x="776.01532" y="474.74628"/></text><text opacity=".8" x="-715.44781" y="467.53632"><tspan x="-715.44781" y="467.53632"/></text><text opacity=".8" x="745.09491" y="194.30226"><tspan x="745.09491" y="194.30226"/></text><text opacity=".8" x="-282.63968" y="464.82208"><tspan x="-282.63968" y="464.82208"/></text><text opacity=".8" x="-2106.3257" y="1210.3756"><tspan x="-2106.3257" y="1210.3756"/></text><text opacity=".8" x="-131.54662" y="-396.70844"><tspan x="-131.54662" y="-396.70844"/></text><text opacity=".8" x="676.05554" y="-810.17865"><tspan x="676.05554" y="-810.17865"/></text><text opacity=".8" x="700.01642" y="-850.92041"><tspan x="700.01642" y="-850.92041"/></text><text opacity=".8" x="-791.44672" y="-858.13025"><tspan x="-791.44672" y="-858.13025"/></text><text opacity=".8" x="669.09601" y="-1131.3644"><tspan x="669.09601" y="-1131.3644"/></text><text opacity=".8" x="2155.2195" y="-504.67316"><tspan x="2155.2195" y="-504.67316"/></text><text opacity=".8" x="2179.1802" y="-545.41479"><tspan x="2179.1802" y="-545.41479"/></text><text opacity=".8" x="687.71716" y="-552.62463"><tspan x="687.71716" y="-552.62463"/></text><text opacity=".8" x="2148.26" y="-825.85876"><tspan x="2148.26" y="-825.85876"/></text><text opacity=".8" x="-250.09914" y="-600.71594"><tspan x="-250.09914" y="-600.71594"/></text><text opacity=".8" x="-2073.7849" y="144.83755"><tspan x="-2073.7849" y="144.83755"/></text><text opacity=".8" x="-359.02936" y="237.70972"><tspan x="-359.02936" y="237.70972"/></text><text opacity=".8" x="480.98517" y="478.62387"><tspan x="480.98517" y="478.62387"/></text><text opacity=".8" x="504.94611" y="437.88217"><tspan x="504.94611" y="437.88217"/></text><text opacity=".8" x="-764.87061" y="243.85356"><tspan x="-764.87061" y="243.85356"/></text><text opacity=".8" x="42.731461" y="-169.61664"><tspan x="42.731461" y="-169.61664"/></text><text opacity=".8" x="66.692398" y="-210.35834"><tspan x="66.692398" y="-210.35834"/></text><text opacity=".8" x="-1424.7708" y="-217.5683"><tspan x="-1424.7708" y="-217.5683"/></text><text opacity=".8" x="35.772015" y="-490.80231"><tspan x="35.772015" y="-490.80231"/></text><text opacity=".8" x="1521.8954" y="135.88901"><tspan x="1521.8954" y="135.88901"/></text><text opacity=".8" x="1545.8563" y="95.14727"><tspan x="1545.8563" y="95.14727"/></text><text opacity=".8" x="54.393139" y="87.937347"><tspan x="54.393139" y="87.937347"/></text><text opacity=".8" x="1514.936" y="-185.29675"><tspan x="1514.936" y="-185.29675"/></text><text opacity=".8" x="-883.42316" y="39.846062"><tspan x="-883.42316" y="39.846062"/></text><text opacity=".8" x="-2707.1089" y="785.3996"><tspan x="-2707.1089" y="785.3996"/></text><text opacity=".8" transform="matrix(.90475 0 0 .90475 -391.35714 -170.70784)" x="-664.2738" y="1159.4154"><tspan x="-664.2738" y="1159.4154"/></text><text x="761.29712" y="137.11668"><tspan x="761.29712" y="137.11668"/><tspan x="761.29712" y="152.94977"/></text><text opacity=".8" x="1226.4811" y="-344.92786"><tspan x="1226.4811" y="-344.92786"/></text><text opacity=".8" x="-597.2049" y="400.62561"><tspan x="-597.2049" y="400.62561"/></text><text opacity=".8" x="1953.5607" y="-629.92371"><tspan x="1953.5607" y="-629.92371"/></text><text opacity=".8" x="1977.5214" y="-670.66541"><tspan x="1977.5214" y="-670.66541"/></text><text opacity=".8" x="486.05829" y="-677.87537"><tspan x="486.05829" y="-677.87537"/></text><text opacity=".8" x="1946.6011" y="-951.1095"><tspan x="1946.6011" y="-951.1095"/></text><text opacity=".8" x="1202.6191" y="509.15475"><tspan x="1202.6191" y="509.15475"/></text><text opacity=".8" x="1226.5801" y="468.41306"><tspan x="1226.5801" y="468.41306"/></text><text opacity=".8" x="-243.97829" y="438.3349"><tspan x="-243.97829" y="438.3349"/></text><text opacity=".8" x="-2067.6643" y="1183.8884"><tspan x="-2067.6643" y="1183.8884"/></text><text opacity=".8" x="-129.4872" y="53.013943"><tspan x="-129.4872" y="53.013943"/></text><text opacity=".8" x="678.11493" y="-360.45621"><tspan x="678.11493" y="-360.45621"/></text><text opacity=".8" x="702.07587" y="-401.19788"><tspan x="702.07587" y="-401.19788"/></text><text opacity=".8" x="-789.38727" y="-408.40778"><tspan x="-789.38727" y="-408.40778"/></text><text opacity=".8" x="671.15546" y="-681.64197"><tspan x="671.15546" y="-681.64197"/></text><text opacity=".8" x="2157.2788" y="-54.950565"><tspan x="2157.2788" y="-54.950565"/></text><text opacity=".8" x="2181.2397" y="-95.692329"><tspan x="2181.2397" y="-95.692329"/></text><text opacity=".8" x="689.77661" y="-102.90223"><tspan x="689.77661" y="-102.90223"/></text><text opacity=".8" x="2150.3196" y="-376.13623"><tspan x="2150.3196" y="-376.13623"/></text><text opacity=".8" x="-248.03969" y="-150.99353"><tspan x="-248.03969" y="-150.99353"/></text><text opacity=".8" x="-2071.7253" y="594.56"><tspan x="-2071.7253" y="594.56"/></text><text opacity=".8" x="-356.96991" y="687.43213"><tspan x="-356.96991" y="687.43213"/></text><text opacity=".8" x="752.05438" y="508.25003"><tspan x="752.05438" y="508.25003"/></text><text opacity=".8" x="776.01532" y="467.5083"><tspan x="776.01532" y="467.5083"/></text><text opacity=".8" x="-715.44781" y="460.29831"><tspan x="-715.44781" y="460.29831"/></text><text opacity=".8" x="745.09491" y="187.06427"><tspan x="745.09491" y="187.06427"/></text><text opacity=".8" x="-282.63968" y="457.58408"><tspan x="-282.63968" y="457.58408"/></text><text opacity=".8" x="-2106.3257" y="1203.1376"><tspan x="-2106.3257" y="1203.1376"/></text><text opacity=".8" x="-131.54662" y="-403.94641"><tspan x="-131.54662" y="-403.94641"/></text><text opacity=".8" x="676.05554" y="-817.41663"><tspan x="676.05554" y="-817.41663"/></text><text opacity=".8" x="700.01642" y="-858.15833"><tspan x="700.01642" y="-858.15833"/></text><text opacity=".8" x="-791.44672" y="-865.36829"><tspan x="-791.44672" y="-865.36829"/></text><text opacity=".8" x="669.09601" y="-1138.6024"><tspan x="669.09601" y="-1138.6024"/></text><text opacity=".8" x="2155.2195" y="-511.91116"><tspan x="2155.2195" y="-511.91116"/></text><text opacity=".8" x="2179.1802" y="-552.65271"><tspan x="2179.1802" y="-552.65271"/></text><text opacity=".8" x="687.71716" y="-559.86267"><tspan x="687.71716" y="-559.86267"/></text><text opacity=".8" x="2148.26" y="-833.0968"><tspan x="2148.26" y="-833.0968"/></text><text opacity=".8" x="-250.09914" y="-607.95398"><tspan x="-250.09914" y="-607.95398"/></text><text opacity=".8" x="-2073.7849" y="137.59953"><tspan x="-2073.7849" y="137.59953"/></text><text opacity=".8" x="-359.02936" y="230.47168"><tspan x="-359.02936" y="230.47168"/></text><text opacity=".8" x="480.98517" y="471.38586"><tspan x="480.98517" y="471.38586"/></text><text opacity=".8" x="504.94611" y="430.64417"><tspan x="504.94611" y="430.64417"/></text><text opacity=".8" x="-764.87061" y="236.61552"><tspan x="-764.87061" y="236.61552"/></text><text opacity=".8" x="42.731461" y="-176.85461"><tspan x="42.731461" y="-176.85461"/></text><text opacity=".8" x="66.692398" y="-217.59633"><tspan x="66.692398" y="-217.59633"/></text><text opacity=".8" x="-1424.7708" y="-224.80621"><tspan x="-1424.7708" y="-224.80621"/></text><text opacity=".8" x="35.772015" y="-498.04034"><tspan x="35.772015" y="-498.04034"/></text><text opacity=".8" x="1521.8954" y="128.65103"><tspan x="1521.8954" y="128.65103"/></text><text opacity=".8" x="1545.8563" y="87.909302"><tspan x="1545.8563" y="87.909302"/></text><text opacity=".8" x="54.393139" y="80.699333"><tspan x="54.393139" y="80.699333"/></text><text opacity=".8" x="1514.936" y="-192.53474"><tspan x="1514.936" y="-192.53474"/></text><text opacity=".8" x="-883.42316" y="32.608059"><tspan x="-883.42316" y="32.608059"/></text><text opacity=".8" x="-2707.1089" y="778.16162"><tspan x="-2707.1089" y="778.16162"/></text><text opacity=".8" x="-992.35333" y="871.03369"><tspan x="-992.35333" y="871.03369"/></text><text opacity=".8" x="1202.6191" y="516.3927"><tspan x="1202.6191" y="516.3927"/></text><text opacity=".8" x="1226.5801" y="475.65103"><tspan x="1226.5801" y="475.65103"/></text><text opacity=".8" x="-243.97829" y="445.57288"><tspan x="-243.97829" y="445.57288"/></text><text opacity=".8" x="-2067.6643" y="1191.1263"><tspan x="-2067.6643" y="1191.1263"/></text><text opacity=".8" x="-129.4872" y="60.251945"><tspan x="-129.4872" y="60.251945"/></text><text opacity=".8" x="678.11493" y="-353.21817"><tspan x="678.11493" y="-353.21817"/></text><text opacity=".8" x="702.07587" y="-393.9599"><tspan x="702.07587" y="-393.9599"/></text><text opacity=".8" x="-789.38727" y="-401.1698"><tspan x="-789.38727" y="-401.1698"/></text><text opacity=".8" x="671.15546" y="-674.40399"><tspan x="671.15546" y="-674.40399"/></text><text opacity=".8" x="2157.2788" y="-47.712589"><tspan x="2157.2788" y="-47.712589"/></text><text opacity=".8" x="2181.2397" y="-88.454353"><tspan x="2181.2397" y="-88.454353"/></text><text opacity=".8" x="689.77661" y="-95.664253"><tspan x="689.77661" y="-95.664253"/></text><text opacity=".8" x="2150.3196" y="-368.89819"><tspan x="2150.3196" y="-368.89819"/></text><text opacity=".8" x="-248.03969" y="-143.75557"><tspan x="-248.03969" y="-143.75557"/></text><text opacity=".8" x="-2071.7253" y="601.79803"><tspan x="-2071.7253" y="601.79803"/></text><text opacity=".8" x="-356.96991" y="694.6701"><tspan x="-356.96991" y="694.6701"/></text><text opacity=".8" x="752.05438" y="515.48804"><tspan x="752.05438" y="515.48804"/></text><text opacity=".8" x="776.01532" y="474.74628"><tspan x="776.01532" y="474.74628"/></text><text opacity=".8" x="-715.44781" y="467.53632"><tspan x="-715.44781" y="467.53632"/></text><text opacity=".8" x="745.09491" y="194.30226"><tspan x="745.09491" y="194.30226"/></text><text opacity=".8" x="-282.63968" y="464.82208"><tspan x="-282.63968" y="464.82208"/></text><text opacity=".8" x="-2106.3257" y="1210.3756"><tspan x="-2106.3257" y="1210.3756"/></text><text opacity=".8" x="-131.54662" y="-396.70844"><tspan x="-131.54662" y="-396.70844"/></text><text opacity=".8" x="676.05554" y="-810.17865"><tspan x="676.05554" y="-810.17865"/></text><text opacity=".8" x="700.01642" y="-850.92041"><tspan x="700.01642" y="-850.92041"/></text><text opacity=".8" x="-791.44672" y="-858.13025"><tspan x="-791.44672" y="-858.13025"/></text><text opacity=".8" x="669.09601" y="-1131.3644"><tspan x="669.09601" y="-1131.3644"/></text><text opacity=".8" x="2155.2195" y="-504.67316"><tspan x="2155.2195" y="-504.67316"/></text><text opacity=".8" x="2179.1802" y="-545.41479"><tspan x="2179.1802" y="-545.41479"/></text><text opacity=".8" x="687.71716" y="-552.62463"><tspan x="687.71716" y="-552.62463"/></text><text opacity=".8" x="2148.26" y="-825.85876"><tspan x="2148.26" y="-825.85876"/></text><text opacity=".8" x="-250.09914" y="-600.71594"><tspan x="-250.09914" y="-600.71594"/></text><text opacity=".8" x="-2073.7849" y="144.83755"><tspan x="-2073.7849" y="144.83755"/></text><text opacity=".8" x="-359.02936" y="237.70972"><tspan x="-359.02936" y="237.70972"/></text><text opacity=".8" x="480.98517" y="478.62387"><tspan x="480.98517" y="478.62387"/></text><text opacity=".8" x="504.94611" y="437.88217"><tspan x="504.94611" y="437.88217"/></text><text opacity=".8" x="-764.87061" y="243.85356"><tspan x="-764.87061" y="243.85356"/></text><text opacity=".8" x="42.731461" y="-169.61664"><tspan x="42.731461" y="-169.61664"/></text><text opacity=".8" x="66.692398" y="-210.35834"><tspan x="66.692398" y="-210.35834"/></text><text opacity=".8" x="-1424.7708" y="-217.5683"><tspan x="-1424.7708" y="-217.5683"/></text><text opacity=".8" x="35.772015" y="-490.80231"><tspan x="35.772015" y="-490.80231"/></text><text opacity=".8" x="1521.8954" y="135.88901"><tspan x="1521.8954" y="135.88901"/></text><text opacity=".8" x="1545.8563" y="95.14727"><tspan x="1545.8563" y="95.14727"/></text><text opacity=".8" x="54.393139" y="87.937347"><tspan x="54.393139" y="87.937347"/></text><text opacity=".8" x="1514.936" y="-185.29675"><tspan x="1514.936" y="-185.29675"/></text><text opacity=".8" x="-883.42316" y="39.846062"><tspan x="-883.42316" y="39.846062"/></text><text opacity=".8" x="-2707.1089" y="785.3996"><tspan x="-2707.1089" y="785.3996"/></text><text opacity=".8" x="-992.35333" y="878.27173"><tspan x="-992.35333" y="878.27173"/></text><text x="761.29712" y="137.11668"><tspan x="761.29712" y="137.11668"/><tspan x="761.29712" y="152.94977"/></text><text opacity=".8" x="1226.4811" y="-344.92786"><tspan x="1226.4811" y="-344.92786"/></text><text opacity=".8" x="-597.2049" y="400.62561"><tspan x="-597.2049" y="400.62561"/></text><text opacity=".8" x="1953.5607" y="-629.92371"><tspan x="1953.5607" y="-629.92371"/></text><text opacity=".8" x="1977.5214" y="-670.66541"><tspan x="1977.5214" y="-670.66541"/></text><text opacity=".8" x="486.05829" y="-677.87537"><tspan x="486.05829" y="-677.87537"/></text><text opacity=".8" x="1946.6011" y="-951.1095"><tspan x="1946.6011" y="-951.1095"/></text><circle cx="408.57138" cy="523.79797" fill="#1a1a1a" r="22.868952" stroke="#1a1a1a" stroke-width="2.261995"/><g clip-path="url(#b)" transform="translate(-24.731171 100.00278)"><path d="m422.09705 436.44916c.1457.51848.35926.91916.6415 1.2014l35.35534 35.35534c-.28224-.28224-.4958-.68292-.6415-1.2014z" fill-opacity=".078431"/><g fill-opacity=".078431"><path d="m419.61152 421.1101c-1.51899 1.14166-1.62995 2.38835-.35735 3.66095l35.35533 35.35534c-1.27259-1.2726-1.16163-2.51929.35736-3.66095z"/><path d="m439.58564 410.52846c-1.74634.5975-3.74592 2.02992-5.89982 4.21943l35.35534 35.35534c2.1539-2.18951 4.15348-3.62193 5.89982-4.21943z"/><path d="m442.57972 411.30667c-.093-.17795-.23226-.36114-.38846-.51734l35.35534 35.35534c.1562.1562.29541.33939.38846.51734z"/><path d="m442.19126 410.78933c-.14715-.14715-.30937-.27034-.46229-.34264l35.35534 35.35534c.15292.0723.31514.19549.46229.34264z"/><path d="m441.72897 410.44669c-.23213-.11871-.36008-.13454-.8969-.13454l35.35534 35.35534c.53682 0 .66477.0158.8969.13454z"/><path d="m440.83207 410.31215c-.57771 0-.68982.0211-1.24643.21632l35.35534 35.35534c.55661-.19521.66872-.21632 1.24643-.21632z"/><path d="m433.68582 414.74789c-.41679.42207-1.02484 1.08156-1.36514 1.47858l35.35534 35.35534c.3403-.39702.94835-1.05651 1.36514-1.47858z"/><path d="m431.23727 416.58618-.57489.64499 32.10421 32.07596.57489-.64499z"/><path d="m430.69527 417.26987-1.09951 1.39676 35.35534 35.35534 1.09951-1.39676z"/><path d="m423.46553 428.98359c-.67005 1.64872-1.13829 3.21567-1.40605 4.72459l35.35534 35.35534c.26776-1.50892.736-3.07587 1.40605-4.72459z"/><path d="m422.14792 433.77843c.1457.51848.35926.91916.6415 1.2014l35.35534 35.35534c-.28224-.28224-.4958-.68292-.6415-1.2014z"/><path d="m422.44979 438.02215c-.00055-.00056-.001-.001-.002-.002l35.35534 35.35534.002.002z"/><path d="m449.48889 421.47998c.0599.0539.11911.11021.17738.16849l35.35534 35.35534c-.0583-.0583-.11748-.11456-.17738-.16849z"/><path d="m429.32373 418.38231c-1.11916.0556-1.11024.0479-2.70015.29103l35.35534 35.35534c1.58991-.24313 1.58099-.23543 2.70015-.29103z"/><path d="m426.62358 418.67334c-1.00798.21727-2.19283.46918-2.51434.54007l35.35534 35.35534c.32151-.0709 1.50636-.3228 2.51434-.54007z"/><path d="m424.10924 419.21341c-1.97847.48406-3.4465 1.10794-4.49772 1.89669l35.35534 35.35534c1.05122-.78875 2.51925-1.41263 4.49772-1.89669z"/><path d="m433.566 416.67841 35.35534 35.35534z"/><path d="m421.99531 434.15996c.1457.51848.35926.91916.6415 1.2014l35.35534 35.35534c-.28224-.28224-.4958-.68292-.6415-1.2014z"/><path d="m421.89357 434.6178c.1457.51848.35926.91916.6415 1.2014l35.35534 35.35534c-.28224-.28224-.4958-.68292-.6415-1.2014z"/><path d="m422.14792 435.4063c.1457.51848.35926.91916.6415 1.2014l35.35534 35.35534c-.28224-.28224-.4958-.68292-.6415-1.2014z"/><path d="m422.17336 435.99132c.1457.51848.35926.91916.6415 1.2014l35.35534 35.35534c-.28224-.28224-.4958-.68292-.6415-1.2014z"/><path d="m442.28891 409.43085c-.57771 0-.68982.0211-1.24643.21632l35.35534 35.35534c.55661-.19521.66872-.21632 1.24643-.21632z"/><path d="m432.28156 416.19344c-.57431 0-.68575.0209-1.23908.21413l35.14686 34.99782c.55333-.19324.66478-.21413 1.23908-.21413z"/></g></g><circle cx="408.57138" cy="523.79797" fill="url(#a)" r="0" stroke="url(#a)" stroke-width="2.261995"/><g fill="url(#d)" transform="translate(45.376924 -8.139359)"><path d="m365.29044 531.7992c0 1.09212-.88636 1.97847-1.97847 1.97847-1.09212 0-1.97847-.88635-1.97847-1.97847 0-1.09211.88635-1.98374 1.97847-1.98374 1.09211 0 1.97847.89163 1.97847 1.98374"/><path d="m368.52256 547.8884c-1.30118-.21367-2.79657-1.06639-4.35247-2.43846-1.55591-1.37207-3.17231-3.26349-4.71552-5.55456-1.29261-1.92176-2.61686-4.29725-3.6133-6.61845-1.25868-2.5971-2.22239-5.60078-2.6479-8.09089-.2142-1.42341-.23057-1.47991-.26492-2.8134.0256-1.76513.0151-1.71371.23856-2.81338.41679-1.47858 1.16993-2.36493 2.3702-2.77645.48935-.16488 1.47331-.13851 2.14335.062.68059.20048 1.51419.61332 2.25677 1.11322.88636.59222 1.14884.84019 1.18445 1.12772.0831.65949-.59222 1.01562-1.14883.59751-1.74106-1.29261-2.98353-1.7925-3.98333-1.58147-.72676.15432-1.27809.89691-1.5564 2.09191-.11342.47352-.12926.70039-.12926 1.88086.22727 5.33021 2.94435 11.06023 4.80485 14.39532.88698 1.58904 2.03211 3.21812 3.09601 4.75925 1.06389 1.54112 2.22643 2.92234 3.50793 3.87179 1.28149.94944 2.32586 1.64516 3.86563 1.45918.43526-.21369 1.12441-.77556 1.35737-1.33662.23297-.56106.36586-1.29937.40081-2.22199.11343-3.09697-.99979-7.37838-3.07587-11.80356-.21631-.45902-.34556-.80854-.34556-.9378 0-.37064.30864-.66477.68982-.65949.34029 0 .48934.13453.75182.68587 1.68434 3.52432 2.80811 7.06315 3.23019 10.14957.13849 1.0354.13849 3.15368 0 3.91077-.22687 1.21083-.62915 2.08136-1.2372 2.69996-.74656.74655-1.71073 1.03013-2.85428.84547"/><path d="m-14.482422 16.460938c-.459049-.01016-.957871.05643-1.496094.199218-1.225253.499631-2.327689 1.119054-3.488281 1.902344-.289569.208052-.580453.418915-.878906.658203-1.56564 1.25699-3.626958 3.390694-5.048828 5.214844l-.138672.164062-1.138672 1.47461c0 .02639-.235177.391588-.529297.824219-.29414.427349-.711424 1.054026-.927734 1.410156v.002c-.21104.34557-.418185.658878-.458985.705078l-.927734 1.699219-.449219.865234c-1.79248 3.46233-2.941578 6.992969-3.080078 9.574219-.11343 1.98903.247237 3.409936 1.123047 4.291015.170292.170527.357627.308803.552734.431641.195276.129529.401344.244316.63086.330078 1.16473.43216 2.607733.171321 4.371093-.755859 2.292-1.19532 5.028721-3.703831 7.4375-6.769531l.601563-.765625 1.162109-1.548828c.0251-.0563.226025-.375698.453125-.710938.23454-.3444.633281-.982984.900391-1.427734.27193-.44691.50723-.813289.53125-.824219l.869141-1.646485.0918-.193359c1.07128-2.04978 2.158786-4.810169 2.654296-6.755859.09392-.369808.167033-.721421.236328-1.070313.298465-1.230915.4738-2.697624.285154-3.964843-.225413-1.330886-.767977-2.263815-1.615235-2.783204-.487532-.334253-1.061189-.514651-1.722656-.529296zm-.09766 1.457031c.252554 0 .404314.0035.529297.01953.0285.0081.05577.01039.08398.01953.06126.01225.118846.03397.173828.05664.05952.0247.119292.04942.173828.07813.03636.02015.07268.04337.109375.06836.02842.01794.05632.03576.08203.05469.0476.0367.09253.08038.138672.123047.04754.04379.09538.08922.134765.144531.01806.01987.02951.04206.04687.0625.0667.107243.135087.243586.240234.474609.23931.52581.267413.63714.320313 1.22461.17958 1.83697-.295904 4.249787-1.396484 7.117187-.2115.55419-.56086 1.381279-.78125 1.855469l-.384766.871094-.814453 1.580078-.316406.574219c-.86627 1.48468-1.793774 2.924775-2.783204 4.328124l-1.179687 1.478516c-.0558.13845-1.234627 1.506678-1.960937 2.273438-1.039796 1.09912-2.086351 2.030846-3.152344 2.822265-1.167157.933503-2.475232 1.557227-3.791016 1.796875-.468237.08024-.872394.05185-1.216797-.08008-.01823-.0074-.0349-.01743-.05273-.02539-.08247-.03496-.16118-.07548-.236328-.123047-.06847-.04476-.132023-.09558-.19336-.150391-.02236-.01926-.04678-.03604-.06836-.05664-.259733-.258357-.450284-.614335-.570312-1.070312-.286517-1.613126-.249196-2.756092.06441-4.195313.278745-1.297625.694227-2.635939 1.263671-4.037109.397011-.97869 1.154913-2.618422 1.257813-2.726563l.855469-1.685546c.86742-1.48187 1.794649-2.922702 2.787109-4.326172l.392578-.525391 1.09961-1.396484.632812-.710938c.3403-.39702.948445-1.056445 1.365235-1.478515 2.153899-2.18951 4.152097-3.623204 5.898437-4.220704.55661-.195209.670337-.214843 1.248047-.214843z" transform="translate(384.57143 499.798)"/><path d="m-22.279297 24.427734s-1.173263-.000809-3.189453.08789c-.70566.04088-1.85268.154863-3.1875.314453-.97059.15323-.97246.172706-2.3125.447266-2.7725.63311-4.797572 1.576074-6.013672 2.802734-.54607.54605-.84996 1.026126-1.02539 1.628906-.01669.05629-.02491.133984-.03711.203125-.10838.432799-.151064 1.055994-.07813 1.414063.12217.61579.382546 1.119327.878906 1.710937 1.10445 1.32807 3.037431 2.443847 5.744141 3.316407 1.31098.39042 1.312105.411127 2.265625.648437 1.31581.27543 2.449037.489517 3.148437.591797 2.00077.26425 3.169922.365234 3.169922.365234 5.716579.363464 10.831542-.222164 14.384766-1.578125.00485.0016.00877.0044.013672.0059 1.6651076-.388251 4.2060473-2.015618 4.6386719-3.689456.073971-.317692.068104-.845185.013672-1.22461-.00305-.04414.00545-.108196 0-.146484-.9719476-2.289988-2.4596505-3.274862-4.2402344-4.082031-3.4210585-1.655406-8.4578475-2.680035-14.1738285-2.816407zm-1.638672 1.38086h1.029297c6.26121 0 12.459194 1.416207 15.7460939 3.585937.67004.44317 1.4782931 1.253053 1.7207031 1.726563.087195.163865.1341651.267925.1601562.384765.00802.107314.0054.22459-.011719.419922-.0382.43624-.062035.522758-.265625.835938-.28279.45056-1.1590744 1.187292-1.8652344 1.570312-3.4636498 1.87472-9.7607068 2.745429-15.9980468 2.199219l-1.027344-.08984-1.832031-.232422c-1.11004-.15302-1.103385-.14449-2.666015-.52539-.98519-.30438-2.142932-.659143-2.457032-.757813-.745204-.253003-1.389382-.525388-1.984375-.808593-1.401355-.779904-3.557931-2.318895-3.304687-3.888672.284555-.871411.522759-1.709098 2.660634-2.626306 1.876953-.790544 2.154928-.720828 3.032725-.891272.32151-.07089 1.507645-.323746 2.515625-.541016 1.58991-.24313 1.580059-.235416 2.699219-.291016z" transform="translate(384.57143 499.798)"/></g></g></svg>