<?xml version="1.0" standalone="no"?><!-- Generator: Gravit.io --><svg xmlns="http://www.w3.org/2000/svg" xmlns:xlink="http://www.w3.org/1999/xlink" style="isolation:isolate" viewBox="0 0 48 48" width="48" height="48"><defs><clipPath id="_clipPath_Ty6LvCVtyceXoZFOcAKjUOFierC2DR1V"><rect width="48" height="48"/></clipPath></defs><g clip-path="url(#_clipPath_Ty6LvCVtyceXoZFOcAKjUOFierC2DR1V)"><defs><linearGradient id="_lgradient_0" x1="0.08523197380739528" y1="0.7899144487105847" x2="0.44903084928379355" y2="-0.06710364821273429"><stop offset="0%" style="stop-color:#37C871"/><stop offset="100%" style="stop-color:#03F19B"/></linearGradient></defs><path d="M 3.538 10.692 L 29.594 2.046 C 30.065 1.89 30.572 2.147 30.724 2.619 L 41.496 35.987 C 41.649 36.46 41.39 36.97 40.919 37.127 L 14.863 45.772 C 14.392 45.929 13.885 45.672 13.733 45.199 L 2.961 11.831 C 2.808 11.359 3.067 10.848 3.538 10.692 Z" style="stroke:none;fill:url(#_lgradient_0);stroke-miterlimit:10;"/><defs><linearGradient id="_lgradient_1" x1="0.42136831837381805" y1="0.008576379300740566" x2="0.5613188518777227" y2="0.9517153450040636"><stop offset="0%" style="stop-color:#484B4D"/><stop offset="100%" style="stop-color:#292926"/></linearGradient></defs><path d="M 8.392 6.796 L 38.795 2.952 C 39.324 2.885 39.813 3.26 39.886 3.788 L 45.074 41.071 C 45.147 41.599 44.778 42.082 44.249 42.149 L 13.845 45.992 C 13.317 46.059 12.828 45.685 12.754 45.157 L 7.566 7.873 C 7.493 7.345 7.863 6.863 8.392 6.796 Z" style="stroke:none;fill:url(#_lgradient_1);stroke-miterlimit:10;"/><g id="g126"><g id="g36"><g opacity="0.8"><path d=" M 12.104 10.479 L 13.346 10.304 L 13.443 10.992 L 12.201 11.167 L 12.104 10.479 Z " fill-rule="evenodd" fill="rgb(255,255,255)"/></g><g opacity="0.8"><path d=" M 12.492 13.233 L 13.734 13.058 L 13.831 13.747 L 12.589 13.922 L 12.492 13.233 Z " fill-rule="evenodd" fill="rgb(255,255,255)"/></g><g opacity="0.8"><path d=" M 12.298 11.856 L 13.54 11.681 L 13.637 12.369 L 12.395 12.544 L 12.298 11.856 Z " fill-rule="evenodd" fill="rgb(255,255,255)"/></g><g opacity="0.8"><path d=" M 12.686 14.61 L 13.928 14.435 L 14.025 15.124 L 12.783 15.299 L 12.686 14.61 Z " fill-rule="evenodd" fill="rgb(255,255,255)"/></g><g opacity="0.8"><path d=" M 13.075 17.364 L 14.316 17.189 L 14.413 17.878 L 13.172 18.053 L 13.075 17.364 Z " fill-rule="evenodd" fill="rgb(255,255,255)"/></g><g opacity="0.8"><path d=" M 12.881 15.987 L 14.122 15.812 L 14.219 16.501 L 12.978 16.676 L 12.881 15.987 Z " fill-rule="evenodd" fill="rgb(255,255,255)"/></g><g opacity="0.8"><path d=" M 13.269 18.742 L 14.511 18.567 L 14.608 19.255 L 13.366 19.43 L 13.269 18.742 Z " fill-rule="evenodd" fill="rgb(255,255,255)"/></g><g opacity="0.8"><path d=" M 13.657 21.496 L 14.899 21.321 L 14.996 22.009 L 13.754 22.184 L 13.657 21.496 Z " fill-rule="evenodd" fill="rgb(255,255,255)"/></g><g opacity="0.8"><path d=" M 13.463 20.119 L 14.705 19.944 L 14.802 20.632 L 13.56 20.807 L 13.463 20.119 Z " fill-rule="evenodd" fill="rgb(255,255,255)"/></g></g><g opacity="0.8"><path d=" M 13.967 10.216 L 19.554 9.428 L 19.651 10.117 L 14.064 10.905 L 13.967 10.216 Z " fill-rule="evenodd" fill="rgb(249,38,114)"/></g><g opacity="0.8"><path d=" M 20.175 9.341 L 23.9 8.816 L 23.998 9.504 L 20.272 10.03 L 20.175 9.341 Z " fill-rule="evenodd" fill="rgb(255,255,255)"/></g><g opacity="0.8"><path d=" M 24.521 8.728 L 27.005 8.378 L 27.102 9.067 L 24.618 9.417 L 24.521 8.728 Z " fill-rule="evenodd" fill="rgb(255,255,255)"/></g><g opacity="0.8"><path d=" M 14.161 11.593 L 17.265 11.156 L 17.362 11.844 L 14.258 12.282 L 14.161 11.593 Z " fill-rule="evenodd" fill="rgb(253,151,31)"/></g><g opacity="0.8"><path d=" M 17.886 11.068 L 19.128 10.893 L 19.225 11.582 L 17.983 11.757 L 17.886 11.068 Z " fill-rule="evenodd" fill="rgb(255,255,255)"/></g><g opacity="0.8"><path d=" M 19.749 10.806 L 25.336 10.018 L 25.433 10.707 L 19.846 11.494 L 19.749 10.806 Z " fill-rule="evenodd" fill="rgb(166,226,46)"/></g><g opacity="0.8"><path d=" M 14.355 12.97 L 18.701 12.358 L 18.798 13.046 L 14.452 13.659 L 14.355 12.97 Z " fill-rule="evenodd" fill="rgb(249,38,114)"/></g><g opacity="0.8"><path d=" M 19.322 12.27 L 22.426 11.833 L 22.523 12.521 L 19.419 12.959 L 19.322 12.27 Z " fill-rule="evenodd" fill="rgb(253,151,31)"/></g><g opacity="0.8"><path d=" M 23.047 11.745 L 24.289 11.57 L 24.386 12.259 L 23.144 12.434 L 23.047 11.745 Z " fill-rule="evenodd" fill="rgb(255,255,255)"/></g><g opacity="0.8"><path d=" M 15.791 14.173 L 18.274 13.822 L 18.371 14.511 L 15.888 14.861 L 15.791 14.173 Z " fill-rule="evenodd" fill="rgb(249,38,114)"/></g><g opacity="0.8"><path d=" M 18.895 13.735 L 25.104 12.86 L 25.201 13.548 L 18.992 14.424 L 18.895 13.735 Z " fill-rule="evenodd" fill="rgb(166,226,46)"/></g><g opacity="0.8"><path d=" M 25.725 12.772 L 28.208 12.422 L 28.305 13.111 L 25.822 13.461 L 25.725 12.772 Z " fill-rule="evenodd" fill="rgb(255,255,255)"/></g><g opacity="0.8"><path d=" M 15.985 15.55 L 19.71 15.025 L 19.807 15.713 L 16.082 16.238 L 15.985 15.55 Z " fill-rule="evenodd" fill="rgb(249,38,114)"/></g><g opacity="0.8"><path d=" M 20.331 14.937 L 24.056 14.412 L 24.153 15.1 L 20.428 15.626 L 20.331 14.937 Z " fill-rule="evenodd" fill="rgb(102,217,239)"/></g><g opacity="0.8"><path d=" M 24.677 14.324 L 27.16 13.974 L 27.258 14.663 L 24.774 15.013 L 24.677 14.324 Z " fill-rule="evenodd" fill="rgb(166,226,46)"/></g><g opacity="0.8"><path d=" M 16.179 16.927 L 17.421 16.752 L 17.518 17.44 L 16.276 17.615 L 16.179 16.927 Z " fill-rule="evenodd" fill="rgb(249,38,114)"/></g><g opacity="0.8"><path d=" M 18.042 16.664 L 26.113 15.527 L 26.21 16.215 L 18.139 17.353 L 18.042 16.664 Z " fill-rule="evenodd" fill="rgb(102,217,239)"/></g><g opacity="0.8"><path d=" M 26.734 15.439 L 30.149 14.958 L 30.246 15.646 L 26.831 16.128 L 26.734 15.439 Z " fill-rule="evenodd" fill="rgb(255,255,255)"/></g><g opacity="0.8"><path d=" M 16.373 18.304 L 18.236 18.041 L 18.333 18.73 L 16.47 18.992 L 16.373 18.304 Z " fill-rule="evenodd" fill="rgb(249,38,114)"/></g><g opacity="0.8"><path d=" M 18.857 17.954 L 25.686 16.991 L 25.783 17.68 L 18.954 18.642 L 18.857 17.954 Z " fill-rule="evenodd" fill="rgb(102,217,239)"/></g><g opacity="0.8"><path d=" M 26.307 16.904 L 28.791 16.554 L 28.888 17.242 L 26.404 17.592 L 26.307 16.904 Z " fill-rule="evenodd" fill="rgb(255,255,255)"/></g><g style="mix-blend-mode:normal;" opacity="0.8"><path d="M 15.326 19.856 L 16.567 19.681 C 16.567 19.681 16.567 19.681 16.567 19.681 L 16.664 20.37 C 16.664 20.37 16.664 20.37 16.664 20.37 L 15.423 20.545 C 15.423 20.545 15.423 20.545 15.423 20.545 L 15.326 19.856 C 15.326 19.856 15.326 19.856 15.326 19.856 Z" style="stroke:none;fill:#FFFFFF;stroke-miterlimit:10;"/></g><g opacity="0.8"><path d=" M 17.188 19.594 L 22.155 18.893 L 22.252 19.582 L 17.285 20.282 L 17.188 19.594 Z " fill-rule="evenodd" fill="rgb(102,217,239)"/></g><g opacity="0.8"><path d=" M 22.776 18.806 L 24.639 18.543 L 24.736 19.232 L 22.873 19.494 L 22.776 18.806 Z " fill-rule="evenodd" fill="rgb(253,151,31)"/></g><g opacity="0.8"><path d=" M 15.52 21.233 L 18.003 20.883 L 18.1 21.572 L 15.617 21.922 L 15.52 21.233 Z " fill-rule="evenodd" fill="rgb(249,38,114)"/></g><g opacity="0.8"><path d=" M 18.624 20.796 L 25.454 19.833 L 25.551 20.521 L 18.721 21.484 L 18.624 20.796 Z " fill-rule="evenodd" fill="rgb(166,226,46)"/></g><g opacity="0.8"><path d=" M 26.074 19.745 L 27.627 19.527 L 27.724 20.215 L 26.171 20.434 L 26.074 19.745 Z " fill-rule="evenodd" fill="rgb(255,255,255)"/></g><g opacity="0.67889901"><path d=" M 14.549 14.348 L 15.17 14.26 L 15.849 19.08 L 15.228 19.168 L 14.549 14.348 Z " fill-rule="evenodd" fill="rgb(250,255,235)"/></g><g opacity="0.8"><path d=" M 13.836 22.887 L 15.078 22.712 L 15.175 23.4 L 13.933 23.575 L 13.836 22.887 Z " fill-rule="evenodd" fill="rgb(255,255,255)"/></g><g opacity="0.8"><path d=" M 14.03 24.264 L 15.272 24.089 L 15.369 24.777 L 14.127 24.953 L 14.03 24.264 Z " fill-rule="evenodd" fill="rgb(255,255,255)"/></g><g opacity="0.8"><path d=" M 14.419 27.018 L 15.66 26.843 L 15.757 27.532 L 14.516 27.707 L 14.419 27.018 Z " fill-rule="evenodd" fill="rgb(255,255,255)"/></g><g opacity="0.8"><path d=" M 14.225 25.641 L 15.466 25.466 L 15.563 26.155 L 14.322 26.33 L 14.225 25.641 Z " fill-rule="evenodd" fill="rgb(255,255,255)"/></g><g opacity="0.8"><path d=" M 16.941 22.449 L 18.182 22.274 L 18.279 22.963 L 17.038 23.138 L 16.941 22.449 Z " fill-rule="evenodd" fill="rgb(249,38,114)"/></g><g opacity="0.8"><path d=" M 18.803 22.187 L 26.875 21.049 L 26.972 21.737 L 18.9 22.875 L 18.803 22.187 Z " fill-rule="evenodd" fill="rgb(102,217,239)"/></g><g opacity="0.8"><path d=" M 27.495 20.961 L 30.91 20.48 L 31.007 21.169 L 27.592 21.65 L 27.495 20.961 Z " fill-rule="evenodd" fill="rgb(255,255,255)"/></g><g opacity="0.8"><path d=" M 17.135 23.826 L 18.997 23.564 L 19.094 24.252 L 17.232 24.515 L 17.135 23.826 Z " fill-rule="evenodd" fill="rgb(249,38,114)"/></g><g opacity="0.8"><path d=" M 19.618 23.476 L 26.448 22.514 L 26.545 23.202 L 19.715 24.165 L 19.618 23.476 Z " fill-rule="evenodd" fill="rgb(102,217,239)"/></g><g opacity="0.8"><path d=" M 27.069 22.426 L 29.552 22.076 L 29.649 22.765 L 27.166 23.115 L 27.069 22.426 Z " fill-rule="evenodd" fill="rgb(255,255,255)"/></g><g style="mix-blend-mode:normal;" opacity="0.8"><path d="M 16.087 25.379 L 17.329 25.203 C 17.329 25.203 17.329 25.203 17.329 25.204 L 17.426 25.892 C 17.426 25.892 17.426 25.892 17.426 25.892 L 16.184 26.067 C 16.184 26.067 16.184 26.067 16.184 26.067 L 16.087 25.379 C 16.087 25.379 16.087 25.379 16.087 25.379 Z" style="stroke:none;fill:#FFFFFF;stroke-miterlimit:10;"/></g><g opacity="0.8"><path d=" M 17.95 25.116 L 22.917 24.416 L 23.014 25.104 L 18.047 25.805 L 17.95 25.116 Z " fill-rule="evenodd" fill="rgb(102,217,239)"/></g><g opacity="0.8"><path d=" M 23.538 24.328 L 25.4 24.066 L 25.497 24.754 L 23.635 25.017 L 23.538 24.328 Z " fill-rule="evenodd" fill="rgb(253,151,31)"/></g><g opacity="0.8"><path d=" M 16.281 26.756 L 18.765 26.406 L 18.862 27.094 L 16.378 27.444 L 16.281 26.756 Z " fill-rule="evenodd" fill="rgb(249,38,114)"/></g><g opacity="0.8"><path d=" M 19.386 26.318 L 26.215 25.355 L 26.312 26.044 L 19.483 27.007 L 19.386 26.318 Z " fill-rule="evenodd" fill="rgb(166,226,46)"/></g><g opacity="0.8"><path d=" M 26.836 25.268 L 28.388 25.049 L 28.485 25.738 L 26.933 25.956 L 26.836 25.268 Z " fill-rule="evenodd" fill="rgb(255,255,255)"/></g></g><linearGradient id="_lgradient_2" x1="-2.852096683434313%" y1="47.481919681512295%" x2="97.14482347468412%" y2="47.481919681512295%"><stop offset="0%" stop-opacity="1" style="stop-color:rgb(55,200,113)"/><stop offset="100%" stop-opacity="1" style="stop-color:rgb(3,241,155)"/></linearGradient><path d=" M 37.465 27.95 C 36.841 27.945 36.063 28.301 35.192 29 C 34.584 29.488 33.784 30.316 33.232 31.024 L 33.206 31.055 C 33.204 31.055 33.205 31.055 33.204 31.055 C 32.93 31.071 32.484 31.115 31.966 31.177 C 31.741 31.213 31.621 31.235 31.474 31.266 C 31.408 30.905 31.356 30.544 31.341 30.186 C 31.341 29.728 31.347 29.64 31.391 29.456 C 31.499 28.993 31.713 28.704 31.995 28.645 C 32.383 28.563 32.865 28.756 33.541 29.258 C 33.757 29.42 34.02 29.282 33.987 29.026 C 33.974 28.914 33.871 28.818 33.527 28.588 C 33.239 28.394 32.916 28.234 32.652 28.156 C 32.392 28.079 32.009 28.068 31.819 28.132 C 31.354 28.292 31.062 28.636 30.9 29.21 C 30.813 29.637 30.817 29.617 30.807 30.302 C 30.821 30.819 30.827 30.842 30.91 31.394 L 30.91 31.395 C 29.92 31.64 29.182 31.988 28.735 32.439 C 28.523 32.651 28.405 32.837 28.337 33.071 C 28.289 33.233 28.289 33.554 28.337 33.714 C 28.469 34.155 28.842 34.569 29.429 34.935 C 29.837 35.187 29.959 35.215 30.091 35.083 C 30.153 35.021 30.167 34.991 30.167 34.917 C 30.167 34.773 30.122 34.715 29.93 34.605 C 28.727 33.927 28.515 33.247 29.319 32.643 C 29.719 32.343 30.277 32.106 31.022 31.919 C 31.148 32.469 31.326 33.051 31.548 33.625 L 31.459 33.797 C 30.763 35.141 30.317 36.511 30.263 37.513 C 30.219 38.285 30.359 38.837 30.699 39.179 C 31.071 39.551 31.595 39.63 32.269 39.414 C 32.523 39.332 33.027 39.077 33.32 38.877 C 33.532 38.735 33.579 38.693 33.607 38.618 C 33.635 38.544 33.635 38.52 33.607 38.442 C 33.565 38.326 33.477 38.262 33.357 38.262 C 33.279 38.262 33.226 38.287 33.026 38.423 C 32.571 38.731 32.145 38.923 31.791 38.983 C 31.301 39.067 30.987 38.851 30.843 38.339 C 30.781 38.116 30.786 37.405 30.854 37.037 C 30.958 36.451 31.139 35.843 31.399 35.203 C 31.529 34.884 31.73 34.449 31.823 34.273 C 31.862 34.359 31.897 34.45 31.938 34.534 C 32.324 35.435 32.838 36.357 33.34 37.103 C 33.939 37.992 34.566 38.726 35.17 39.259 C 35.774 39.791 36.355 40.122 36.86 40.205 L 36.849 40.206 C 37.293 40.278 37.667 40.168 37.957 39.878 C 38.193 39.638 38.349 39.301 38.437 38.831 C 38.491 38.537 38.491 37.715 38.437 37.313 C 38.273 36.115 37.837 34.741 37.183 33.373 C 37.082 33.159 37.024 33.107 36.892 33.107 C 36.744 33.105 36.624 33.22 36.624 33.363 C 36.624 33.414 36.674 33.549 36.758 33.727 C 37.564 35.445 37.996 37.106 37.952 38.308 C 37.939 38.666 37.886 38.953 37.796 39.171 C 37.706 39.389 37.438 39.606 37.269 39.689 C 36.671 39.762 36.266 39.492 35.769 39.123 C 35.272 38.755 34.82 38.219 34.407 37.621 C 33.995 37.023 33.55 36.39 33.206 35.773 C 32.886 35.2 32.504 34.439 32.167 33.595 L 32.22 33.491 C 32.556 32.916 32.916 32.356 33.301 31.812 L 33.454 31.608 L 33.484 31.569 L 33.806 31.557 L 34.205 31.557 C 36.635 31.557 39.041 32.107 40.316 32.949 C 40.577 33.121 40.89 33.435 40.984 33.619 C 41.052 33.747 41.059 33.781 41.059 33.951 C 41.059 34.117 41.052 34.157 40.996 34.259 C 40.84 34.559 40.429 34.87 39.899 35.093 C 39.653 35.197 39.587 35.265 39.587 35.406 C 39.587 35.526 39.665 35.627 39.783 35.663 C 39.859 35.685 39.885 35.681 40.021 35.627 C 40.877 35.289 41.463 34.763 41.583 34.231 C 41.617 34.087 41.615 33.816 41.581 33.677 C 41.517 33.402 41.289 33.051 41.027 32.815 C 39.859 31.767 37.381 31.091 34.442 31.021 C 34.442 31.021 34.067 31.033 33.907 31.035 L 34.126 30.79 C 34.258 30.636 34.494 30.38 34.656 30.216 C 35.492 29.366 36.268 28.81 36.945 28.578 C 37.161 28.502 37.206 28.494 37.43 28.494 C 37.638 28.494 37.688 28.5 37.778 28.546 C 37.9 28.604 38.037 28.746 38.107 28.88 C 38.245 29.154 38.292 29.634 38.226 30.146 C 38.204 30.322 38.186 30.526 38.186 30.596 C 38.186 30.714 38.189 30.732 38.258 30.79 C 38.313 30.842 38.351 30.857 38.424 30.857 C 38.54 30.857 38.648 30.794 38.68 30.71 C 38.776 30.462 38.825 29.585 38.763 29.215 C 38.667 28.646 38.424 28.263 38.035 28.077 C 37.864 27.994 37.673 27.952 37.465 27.95 L 37.465 27.95 Z  M 32.78 31.604 L 32.737 31.66 C 32.737 31.67 32.645 31.812 32.531 31.98 C 32.417 32.146 32.255 32.39 32.171 32.528 C 32.089 32.662 32.009 32.784 31.993 32.802 L 31.92 32.934 C 31.792 32.563 31.674 32.183 31.581 31.797 C 31.753 31.76 31.856 31.737 32.041 31.697 C 32.449 31.635 32.608 31.617 32.78 31.604 L 32.78 31.604 Z  M 34.837 33.191 C 34.413 33.191 34.069 33.537 34.069 33.961 C 34.069 34.385 34.413 34.729 34.837 34.729 C 35.261 34.729 35.605 34.385 35.605 33.961 C 35.605 33.537 35.261 33.191 34.837 33.191 Z " fill="url(#_lgradient_2)"/></g></svg>