<svg height="48" width="48" xmlns="http://www.w3.org/2000/svg" xmlns:xlink="http://www.w3.org/1999/xlink"><linearGradient id="a"><stop offset="0" stop-color="#00cafe"/><stop offset="1" stop-color="#1460f3"/></linearGradient><linearGradient id="b" gradientTransform="matrix(1.538492 .2161125 -.2161125 1.538492 361.65488 -58.161593)" gradientUnits="userSpaceOnUse" x1="29.444031" x2="29.444031" xlink:href="#a" y1="201.7325" y2="18.617405"/><linearGradient id="c" gradientUnits="userSpaceOnUse" x1="384.794754962357" x2="383.945510031923" xlink:href="#a" y1="295.234340238601" y2="-31.718983183976"/><linearGradient id="d" gradientTransform="matrix(1.6137412 0 0 1.6439989 438.86899 -124.99883)" gradientUnits="userSpaceOnUse" x1="-30.874136" x2="-32.125168" y1="251.80434" y2="55.392136"><stop offset="0" stop-color="#d5dbff"/><stop offset="1" stop-color="#f9ffff"/></linearGradient><g transform="matrix(.13396277406 0 0 .13396277406 -27.712021330276 6.228734269509)"><circle cx="386.01785" cy="132.65823" fill="url(#d)" r="164.53577"/><path d="m28.378906 7.84375c-1.18558.1495371-3.954449.4830389-3.458984 2.0605469l-.21875-.21875-3.091797 22.0195311c-1.018054-.926099-3.912847-1.683313-4.367187-.966797l-.21875-.21875c-2.721564.265511-5.558422 2.573709-5.234376 5.515625.129324 1.026558.656676 1.828239 1.310547 2.552735-.02401-.02649-.05274-.04479-.07617-.07227l.09961.09961c.232766.255949.486811.497675.740234.740235l7.47461 7.474609a23.000001 23.000001 0 0 0 2.662107.169925 23.000001 23.000001 0 0 0 23-23 23.000001 23.000001 0 0 0 -.273438-3.416016l-8.925781-8.925781c-.199212-.187694-.53179-.53102-.8125-.8125l-.496093-.496094c-1.112309-.7848775-.450169-.134264.08594.390625l-.822269-.8203121z" fill-opacity=".078431" transform="matrix(7.1537288 0 0 7.1537288 214.32836 -39.031252)"/><path d="m475.62723 43.643619s1.61531-5.38132.48073-7.68318c-1.0649-2.15964-5.99432-4.03163-5.99432-4.03163l-52.77184-14.845915-.00008-.000072h-.00007c-9.45258 1.292822-24.90563 3.239853-26.30097 13.172737l-22.12662 157.518301c-8.50314-6.39185-20.05405-10.1143-32.80207-8.47294-23.0041 2.96371-39.64246 20.64637-37.44219 39.45224 2.20092 18.8015 22.59828 31.99877 45.60202 29.0372 18.35275-2.36581 32.46026-14.36583 36.43437-28.55368l21.42249-148.782391 59.71904-8.17092" fill="url(#b)"/><circle cx="386.01785" cy="132.65823" fill="none" r="164.82191" stroke="url(#c)" stroke-width="13.73516"/></g></svg>