<svg height="48" width="48" xmlns="http://www.w3.org/2000/svg" xmlns:xlink="http://www.w3.org/1999/xlink"><linearGradient id="a" gradientTransform="matrix(1.0309825 0 0 1 -.512598 0)" gradientUnits="userSpaceOnUse" x1="17" x2="17" y1="1036.3622" y2="1012.3622"><stop offset="0" stop-color="#374c63"/><stop offset="1" stop-color="#6a94be"/></linearGradient><linearGradient id="b" gradientTransform="matrix(.68964436 0 0 1 10.82717 0)" gradientUnits="userSpaceOnUse" x1="33.461716" x2="34.116894" xlink:href="#d" y1="1013.622" y2="1037.2084"/><linearGradient id="c" gradientUnits="userSpaceOnUse" x1="27.800341" x2="27.800341" y1="1037.3622" y2="1011.3622"><stop offset="0" stop-color="#394f67"/><stop offset="1" stop-color="#507090"/></linearGradient><linearGradient id="d"><stop offset="0" stop-color="#f6fbff"/><stop offset="1" stop-color="#eaeff2"/></linearGradient><linearGradient id="e" gradientUnits="userSpaceOnUse" x1="13.762" x2="314.96957" xlink:href="#d" y1="165.66499" y2="165.66499"/><g transform="matrix(1.1526351 0 0 1.1526351 -48.368775 -4.055065)"><g fill-rule="evenodd" transform="matrix(1.5263052 0 0 1.5263052 28.55821 -1539.67317)"><path d="m11.563303 1036.9442h11.636697l-.000321-24.4983-11.533282.0003c-1.268259-.094-1.782566.023-1.782566 1.1721v22.0916c-.07966 1.261.446208 1.2343 1.679472 1.2343z" fill="url(#a)"/><path d="m33.959911 1036.9362h-7.990815v-24.498h7.990815c.848365-.094.916631.023.916631 1.1721v22.0916c.05328 1.261-.09168 1.2343-.916631 1.2343z" fill="url(#b)"/><path d="m31.957586 1038.1035-10.029586-1.1715-.00002-24.4861 9.945926-.9324c1.230149-.094 1.296492.2446 1.296492 1.3937l-.08368 23.3688c.07726 1.261.06707 1.8275-1.129132 1.8275z" fill="url(#c)"/></g><path d="m46.964616 5.6287298.000155 8.1590642 2.689929-2.719324 2.748994 2.719324v-8.1590642z" fill="#fff" fill-rule="evenodd" opacity=".965"/><g fill="url(#e)" transform="matrix(.05631124 -.01239685 .01239685 .05631124 50.795956 17.325212)"><path d="m30.421 317.462 4.422-17.661-12.194-4.814-8.376 13.804s4.618 12.526-.511 22.539c.004.001 6.422-10.931 16.659-13.868zm-8.192-8.104c1.501-.615 3.231.087 3.851 1.561.625 1.474-.087 3.171-1.588 3.786s-3.231-.087-3.851-1.561c-.631-1.48.082-3.177 1.588-3.786z"/><path d="m158.353 112.621c-35.115 28.8-81.086 88.124-120.073 157.423l-.022-.027-6.815 12.026 7.267 2.796 3.84-10.117c20.799-37.491 77.224-135.4 180.397-200.451 0 0 38.411-22.877 76.256-54.516-9.214 7.702-27.391 17.356-37.247 23.584-25.868 16.344-57.79 31.704-103.603 69.282z"/><path d="m33.2 215.365c-7.985 28.223-7.528 49.718-4.438 55.625h4.83c13.337-27.625 77.572-127.693 117.554-159.016 41.424-32.455 73.378-51.339 100.253-65.111 9.437-4.835 19.118-11.384 27.848-17.949 10.601-8.36 21.348-17.302 30.758-26.053l-27.277 17.889 12.162-18.602-23.22 23.611 15.11-25.759c-35.746 3.225-68.918 21.109-68.918 21.109-13.271 15.741-23.959 40.782-23.959 40.782-.37-12.521 8.11-31.481 8.11-31.481-6.266 2.861-30.073 16.459-30.073 16.459-11.645 9.66-15.262 35.06-15.262 35.06-2.214-10.019 5.526-29.333 5.526-29.333-33.543 19.32-57.502 52.231-57.502 52.231-16.584 32.553-2.948 57.953-8.11 51.872s-4.052-28.261-4.052-28.261c-35.017 33.63-38.699 49.724-38.699 49.724-5.896 14.31-11.058 52.59-11.058 52.59-3.318-3.579 0-23.611 0-23.611-8.479 17.889-4.422 34.701-4.422 34.701-4.052-1.435-5.161-26.477-5.161-26.477z"/><path d="m310.01 14.191s-13.483 13.065-30.758 26.053c-27.081 21.359-53.156 38.819-53.156 38.819-102.151 60.362-159.071 158.869-177.884 192.645h10.002c3.535-2.834 8.844-4.971 31.014-11.389 28.011-8.11 44.72-25.041 44.72-25.041s-25.553 14.31-37.595 12.88-28.223 3.1-28.223 3.1-6.179-2.861 24.291-7.392 80.596-38.634 80.596-38.634-19.167 7.87-28.011 7.152-30.714 0-30.714 0c14.495-3.34 28.011-1.43 50.126-9.779s20.886-7.631 20.886-7.631c25.063-8.349 35.474-34.342 35.474-34.342-4.335 1.67-37.443 5.722-51.176 1.67-13.734-4.052-37.132 0-37.132 0 22.115-7.392 27.032-4.052 32.433-4.291 5.406-.239 22.855 1.191 57.502-10.731s44.475-26.711 44.475-26.711l-23.366 3.122c15.257-2.567 32.455-12.662 32.455-12.662-10.568 2.861-27.032 4.291-27.032 4.291 19.412-4.291 30.225-10.253 30.225-10.253 18.183-13.832 22.36-34.342 22.36-34.342-25.803 8.822-46.194 4.77-46.194 4.77 35.387-2.382 45.215-11.449 50.126-13.592 4.917-2.148 6.94-11.03 6.94-11.03-17.878 6.44-38.15 7.511-38.15 7.511 21.93-3.399 40.722-14.49 40.722-14.49v-11.102c-8.479 4.83-23.399 8.588-23.399 8.588l23.219-15.023c1.305-7.516-4.776-12.166-4.776-12.166z"/><path d="m26.124 284.458-2.573 6.113 13.81 5.532 2.572-6.114z"/></g></g></svg>