<svg height="48" width="48" xmlns="http://www.w3.org/2000/svg" xmlns:xlink="http://www.w3.org/1999/xlink"><linearGradient id="a" gradientUnits="userSpaceOnUse" x1="399.57144" x2="399.57144" y1="545.79797" y2="517.79797"><stop offset="0" stop-color="#3889e9"/><stop offset="1" stop-color="#5ea5fb"/></linearGradient><linearGradient id="b" gradientUnits="userSpaceOnUse" x1="400.55615" x2="400.55615" y1="546.92657" y2="516.4751"><stop offset="0" stop-color="#197cf1"/><stop offset="1" stop-color="#20bcfa"/></linearGradient><g transform="matrix(1.48656175 0 0 1.48753111 -571.497943 -767.217804)"><circle cx="400.57138" cy="531.79791" fill="url(#a)" r="0"/><g transform="matrix(1.0508504 0 0 1.0508504 -20.353166 -26.940048)"><circle cx="400.57138" cy="531.79791" fill="url(#b)" r="13.999958" stroke="url(#b)" stroke-width="1.427415"/><circle cx="400.57138" cy="531.79791" fill="url(#a)" r="0" transform="matrix(1.55822993 0 0 1.55822993 -264.298285 -296.910725)"/></g></g><path d="m-90.962113 1061.1381 4.153839-11.0154h1.599997l4.153839 11.0154h-1.569228l-1.061537-2.9846h-4.630761l-1.076921 2.9846zm3.123071-4.3077h3.661532l-1.799997-4.9692h-.06154l-1.799997 4.9692z" fill="#fff" fill-opacity=".846774" transform="matrix(2.17876795 0 0 2.17876795 211.392074 -2275.973677)"/></svg>