<svg height="48" width="48" xmlns="http://www.w3.org/2000/svg" xmlns:xlink="http://www.w3.org/1999/xlink"><linearGradient id="a" gradientUnits="userSpaceOnUse" x1="24.061004" x2="24.061004" y1="46.962829" y2="1.015124"><stop offset="0" stop-color="#729fcf"/><stop offset="1" stop-color="#00f89a" stop-opacity=".988235"/></linearGradient><g stroke-width="1.026129"><path d="m47.034874 23.988997a22.973869 22.973869 0 0 1 -22.973869 22.973869 22.973869 22.973869 0 0 1 -22.9738697-22.973869 22.973869 22.973869 0 0 1 22.9738697-22.9738698 22.973869 22.973869 0 0 1 22.973869 22.9738698z" fill="url(#a)"/><path d="m31.739757 24.64152-13.034645-7.820789v15.641567zm-7.739746-15.6415272c8.309986 0 14.999991 6.6900052 14.999991 15.0000112 0 8.309986-6.690005 14.999991-14.999991 14.999991-8.310006 0-15.0000091-6.690005-15.0000091-14.999991 0-8.310006 6.6900031-15.0000112 15.0000091-15.0000112z" fill="#fff" fill-opacity=".827411" fill-rule="evenodd"/></g></svg>