<svg height="48" width="48" xmlns="http://www.w3.org/2000/svg" xmlns:xlink="http://www.w3.org/1999/xlink"><linearGradient id="a"><stop offset="0" stop-color="#333538"/><stop offset="1" stop-color="#566069"/></linearGradient><linearGradient id="b" gradientUnits="userSpaceOnUse" x1="400.95444" x2="400.95444" xlink:href="#a" y1="545.22272" y2="517.22266"/><linearGradient gradientUnits="userSpaceOnUse" x1="2.819" x2="11.758417" xlink:href="#a" y1="1044.2982" y2="1044.2982"/><linearGradient id="c" gradientUnits="userSpaceOnUse" x1="400.39636" x2="400.39636" y1="545.61945" y2="517.61945"><stop offset="0" stop-color="#d3d3d3"/><stop offset="1" stop-color="#fcf9f9"/></linearGradient><linearGradient id="d" gradientUnits="userSpaceOnUse" x1="404.71429" x2="404.71429" y1="546.29791" y2="517.29797"><stop offset="0" stop-color="#00cafe"/><stop offset="1" stop-color="#1460f3"/></linearGradient><linearGradient id="e" gradientUnits="userSpaceOnUse" x1="400.39636" x2="400.39636" y1="545.61945" y2="517.61945"><stop offset="0" stop-color="#e3e3e3"/><stop offset="1" stop-color="#fcf9f9"/></linearGradient><linearGradient id="f" gradientUnits="userSpaceOnUse" x1="401.20834" x2="401.20834" y1="545.81091" y2="518.42188"><stop offset="0" stop-color="#ec396c"/><stop offset="1" stop-color="#ff709a"/></linearGradient><g fill="url(#b)" transform="matrix(1.569970343761 0 0 1.569970343761 -605.097515035022 -810.977878778761)"><g fill="url(#c)" stroke-width="1.3" transform="translate(.135243 .045175)"><circle cx="400.57138" cy="531.79791" fill="url(#f)" r="13.999958" stroke="url(#f)" stroke-width="1.3"/><circle cx="400.57144" cy="531.79797" fill="url(#e)" r="0" stroke="url(#d)" stroke-width="1"/><circle cx="400.57138" cy="531.79791" fill="url(#c)" r="0"/></g><path d="m333.227 39.545-54.916 83.015-56.76-83.015zm-63.641 102h-121.829l60.908 231.669zm-117.763-13.6h113.688l-56.847-83.15zm-12.79-5.385 56.753-83.015h-111.67zm56.725 255.02-62.057-236.035h-133.701zm-195.568-249.635h126.1l-54.931-83.035zm345.699-82.885-54.836 82.885h125.883zm-62.248 96.485-62.063 236.015 195.547-236.015z" fill="#fff" fill-opacity=".846774" transform="matrix(.045222871636 0 0 .045222871636 391.274830235329 523.685202885563)"/></g></svg>