<svg height="48" width="48" xmlns="http://www.w3.org/2000/svg" xmlns:xlink="http://www.w3.org/1999/xlink"><linearGradient id="a"><stop offset="0" stop-color="#197cf1"/><stop offset="1" stop-color="#20bcfa"/></linearGradient><linearGradient gradientUnits="userSpaceOnUse" x1="487.74164" x2="493.5094" xlink:href="#a" y1="985.34576" y2="11.610633"/><linearGradient id="b" gradientUnits="userSpaceOnUse" x1="34.902462" x2="946.34857" xlink:href="#a" y1="490.62549" y2="490.62549"/><linearGradient id="c" gradientUnits="userSpaceOnUse" x1="487.74164" x2="493.5094" y1="985.34576" y2="11.610633"><stop offset="0" stop-color="#ff3069"/><stop offset="1" stop-color="#ffa548"/></linearGradient><g fill="url(#b)" stroke-width="9.512438" transform="matrix(.941519888215 0 0 .941519901286 -436.740346924009 -486.317978637946)"><path d="m946.23 206.651c-.3-23-18-42-40.899-44.101-190.3-17.8-345.601-119.5-396.8-156.7-10.7-7.8-25.2-7.8-35.9 0-51.1 37.2-206.4 138.9-396.7 156.7-22.9 2.101-40.5 21.101-40.9 44.101-2.3 150.1 21.8 659.699 444.1 773.1 7.5 2 15.4 2 22.9 0 422.3-113.3 446.399-623.001 444.199-773.1z" fill="url(#c)" transform="matrix(.05185606 0 0 .05185606 464.01918 516.71536)"/><path d="m946.23 206.651c-.3-23-18-42-40.899-44.101-190.3-17.8-345.601-119.5-396.8-156.7-10.7-7.8-25.2-7.8-35.9 0-51.1 37.2-206.4 138.9-396.7 156.7-22.9 2.101-40.5 21.101-40.9 44.101-2.3 150.1 21.8 659.699 444.1 773.1 7.5 2 15.4 2 22.9 0 422.3-113.3 446.399-623.001 444.199-773.1z" fill="#fff" opacity=".675" transform="matrix(.03985431 0 0 .04023645 469.87887 522.85863)"/><path d="m494.95602 541.07091v-2.27474c0-3.08705-2.51167-5.59941-5.599-5.59941s-5.59902 2.51236-5.59902 5.59941v2.27474c-.44123.0918-.77368.48473-.77368.95336v8.52389c0 .53676.4369.97388.97392.97388h10.79751c.53701 0 .97392-.43712.97392-.97388v-8.52389c0-.46863-.3324-.86046-.77365-.95336zm-10.53045 9.39373c-.33838 0-.61274-.27435-.61274-.61274 0-.3384.2743-.61263.61274-.61263s.61275.27423.61275.61263c0 .33818-.27436.61274-.61275.61274zm0-7.13187c-.33838 0-.61274-.27414-.61274-.61254 0-.33849.2743-.61273.61274-.61273s.61275.27444.61275.61273c0 .3384-.27436.61254-.61275.61254zm6.23951 5.00442c.0199.10689-.0515.19142-.15864.19142h-2.27298c-.10711 0-.17852-.0846-.15867-.19142l.36193-1.91798c-.27397-.24977-.44591-.60937-.44591-1.00947 0-.7549.61166-1.36663 1.36621-1.36663.75453 0 1.36622.61173 1.36622 1.36663 0 .38908-.16294.73972-.42401.98866zm2.34311-7.2869h-7.30234v-2.25412c0-2.01332 1.63788-3.65113 3.65117-3.65113 2.01328 0 3.65117 1.63791 3.65117 3.65113zm1.28027 9.41435c-.33838 0-.61274-.27435-.61274-.61274 0-.3384.27429-.61263.61274-.61263.33843 0 .61274.27423.61274.61263 0 .33818-.27434.61274-.61274.61274zm0-7.13187c-.33838 0-.61274-.27414-.61274-.61254 0-.33849.27429-.61273.61274-.61273.33843 0 .61274.27444.61274.61273 0 .3384-.27434.61254-.61274.61254z" fill="#ff5e5c"/></g></svg>