<svg height="48" width="48" xmlns="http://www.w3.org/2000/svg" xmlns:xlink="http://www.w3.org/1999/xlink"><linearGradient id="a" gradientUnits="userSpaceOnUse" x1="408.571387983602" x2="408.571387983602" y1="543.798108817013" y2="503.798067617013"><stop offset="0" stop-color="#2e3e46"/><stop offset="1" stop-color="#47606a"/></linearGradient><rect fill="url(#a)" height="40" ry="20" transform="matrix(1.15 0 0 1.15 -445.857158 -578.367705)" width="40" x="388.57144" y="503.798"/><g fill="#fff" fill-opacity=".846774" transform="matrix(1.011437 0 0 1.011437 8.79608 9.35009)"><path d="m16.963 7.376c-.282-2.796-2.735-5.198-5.341-5.198-2.662 0-5.109.921-7.057 2.451-.517-.016-1.108.041-1.725.189-1.737.415-3.001 1.357-2.823 2.104.118.495.844.774 1.819.79-1.05 1.73-1.666 3.751-1.666 5.918 0 4.196 2.277 7.855 5.652 9.846-.336.364-.645.874-.861 1.484-.48 1.355-.318 2.646.359 2.885.677.24 1.613-.664 2.093-2.018.102-.292.17-.579.215-.855.266.088.551.162.857.206 1.422.205 2.657-.205 2.76-.916.102-.71-.966-1.454-2.389-1.659-.609-.088-1.179-.058-1.645.056-.021-.074-.858-1.596-.931-2.777-.094-1.537.364-3.055 1.361-4.227.39-.456.859-.823 1.359-1.135-.09 1.204.189 2.143.757 2.285.745.187 1.701-1.068 2.135-2.799.037-.149.064-.295.091-.441l.396-.069c2.811-.597 4.881-3.182 4.584-6.12z" fill="#fff" fill-opacity=".846774"/><path d="m13.1 22.686c.282 2.796 2.735 5.198 5.341 5.198 2.662 0 5.109-.921 7.057-2.451.518.016 1.108-.041 1.726-.188 1.737-.415 3.001-1.358 2.823-2.105-.118-.495-.844-.774-1.819-.79 1.05-1.73 1.666-3.75 1.666-5.917 0-4.196-2.277-7.855-5.652-9.846.336-.364.646-.874.861-1.484.479-1.355.318-2.646-.359-2.885-.677-.24-1.613.664-2.093 2.018-.102.292-.17.579-.215.854-.266-.088-.551-.162-.857-.206-1.422-.205-2.657.205-2.76.916-.102.71.966 1.454 2.389 1.659.609.088 1.179.058 1.646-.056.021.074.858 1.596.931 2.777.094 1.537-.364 3.055-1.361 4.227-.39.457-.858.825-1.358 1.137.09-1.204-.188-2.143-.757-2.285-.745-.186-1.701 1.068-2.135 2.799-.037.149-.064.295-.091.441l-.396.069c-2.815.595-4.884 3.181-4.587 6.118z" fill="#fff" fill-opacity=".846774"/></g></svg>