<svg height="48" width="48" xmlns="http://www.w3.org/2000/svg" xmlns:xlink="http://www.w3.org/1999/xlink"><linearGradient id="a" gradientUnits="userSpaceOnUse" x1="3.364533" x2="36.073566" y1="1046.2201" y2="1007.7176"><stop offset="0" stop-color="#235ea2"/><stop offset="1" stop-color="#1992f1"/></linearGradient><linearGradient id="b" gradientUnits="userSpaceOnUse" x1="400.57144" x2="400.79395" y1="545.79791" y2="517.62671"><stop offset="0" stop-color="#69159f"/><stop offset="1" stop-color="#b92ff5"/></linearGradient><linearGradient id="c" gradientUnits="userSpaceOnUse" x1="399.57144" x2="399.57144" y1="545.79797" y2="517.79797"><stop offset="0" stop-color="#3889e9"/><stop offset="1" stop-color="#5ea5fb"/></linearGradient><linearGradient id="d" gradientUnits="userSpaceOnUse" x1="412.03708" x2="412.03708" y1="542.20105" y2="526.20105"><stop offset="0" stop-color="#d0d0d0"/><stop offset="1" stop-color="#f1eeee"/></linearGradient><g fill="url(#a)" stroke-width="1.3" transform="matrix(1.714287116541 0 0 1.714287116541 -662.708408306749 -887.564362964219)"><circle cx="400.57138" cy="531.79791" fill="url(#a)" r="13.999958"/><circle cx="400.57144" cy="531.79797" fill="url(#b)" r="13.999958"/><circle cx="400.57138" cy="531.79791" fill="url(#a)" r="0"/></g><g transform="matrix(1.533889305728 0 0 1.533889305728 -590.532698267794 -791.827457466128)"><circle cx="400.57138" cy="531.79791" fill="url(#c)" r="0"/><g transform="matrix(1.117536624128 0 0 1.117536624128 -47.015292188816 -62.460177851153)"><circle cx="400.57144" cy="531.79797" fill="none" r="13.999958"/><g fill="url(#d)" transform="matrix(.9034943 0 0 .9034943 38.629082 51.259005)"><circle cx="400.57138" cy="531.79791" fill="url(#c)" r="0"/><path d="m400.54101 517.03368c-1.86199 0-3.63428.35521-5.27216.9789-.1191.10948-.27395.19353-.39646.18312-.0173-.002-.0333-.0116-.0512-.0188-.80736.33778-1.57323.75163-2.29943 1.22108.0943.15317.12239.32371-.0715.40657-.0326.0131-.4433.0555-.58675.0525-2.06511 1.5006-3.72172 3.51882-4.78056 5.87487.0171-.003.0318-.01.0498-.0108.16071-.003.39197.043.54634.076.14243.0293.25732.12485.3806.13411.34985.0268.43397-.24552.71937-.39791.29494.0412.49062-.0504.75691-.0206.18153.0206.31267.21403.45412.22491.11899.0116.22369-.11151.33881-.0939.11188.0176.30475.26116.32296.3979.0236.17018-.12521.32343-.0761.51037.17829.18154.5022.21834.75688.32293.1659-.1367.0223-.39034 0-.5882-.003-.0874.0116-.16482 0-.2451-.0147-.13627-.0733-.26107-.0742-.37771-.003-.53863.43452-.79072.79579-1.00338.15638-.0927.27951-.25513.41519-.32298.19167-.096.33439-.11846.49304-.20761.28679-.16107.53267-.29033.75692-.47285.10349-.24425.01-.57174.0193-.81313.10354-.0635.19277.0274.30273.0189.173-.0357.18739-.2802.28545-.37767.0569-.0561.21319-.0957.28396-.15141.17244-.13524.22859-.33957.37924-.39788.0541-.0222.17861-.0149.26381-.0384.11206-.0298.27157-.16227.4541-.22484.11895-.0412.39143-.05.43683-.095.0561-.0571-.00078-.21727.0193-.30275.0918-.42729.73536-.51785 1.11582-.66174.26667-.10055.54027-.28605.83329-.22924-.0575.20308-.3303.13111-.28404.37774.0638.34221.52214-.0977.64304-.1485.23089-.0971.62684-.15677.92985-.26671.2657-.0971.74206-.24539.49165-.54927-.2089-.0116-.30958.24509-.49165.32292-.12574.0207-.10145-.10524-.20903-.11528-.10165-.0116-.15909.094-.26387.0757-.10412-.0172-.25039-.18095-.26669-.30274-.0412-.31597.26705-.44623.39793-.68194-.0869-.28578-.48192-.0583-.72085-.17008.0235-.17018.1991-.28754.3979-.32005.16294-.0274.52864-.0131.62569.0728.0563.0485.004.16714.095.24651.0964.0874.21512.0779.34028.0579.0445-.21569-.28047-.16157-.24508-.3042.25569-.16726.67164-.0301.98469-.0761.18018-.0268.36936-.15378.52907-.24362.15188-.0865.34919-.23672.51035-.0951.0427.15455-.14035.2057-.22636.28256-.28958.25764-.58796.55279-.81306.85201.13807.13472.38907.0668.6228.095.0914.0116.2061.0387.30271.0566.11311.0207.23315.014.32148.0374.15905.0386.20155.20904.359.20904.25897-.00046.26206-.28059.11528-.45558.0463-.17864.11897-.27133.0566-.39647-.11665-.2333-.54459-.0116-.56657-.30274-.0134-.18874.15792-.18031.22633-.32147-.0311-.36468.29908-.3911.2638-.71796-.0149-.13674-.13056-.13864-.22633-.26673-.0487-.0625-.0725-.18368-.12831-.23787-.44169-.0385-.88841-.0633-1.34071-.0633zm-7.61777 2.9785h.002c.0883.0116.19459.10722.30131.11542.10055.003.18432-.0559.24652-.0385.15828.0413.22502.28075.0758.39789-.12373.0149-.17198-.0545-.26525-.0375-.25708.0431-.35571.54724-.54786.53056-.18117-.0145-.27923-.45677-.0949-.58819.0116-.11479-.0841-.13314-.0777-.24654.0547-.0696.20986-.14476.36043-.13261zm-.85203.0593c.0527.002.0921.014.11244.0372-.0253.20176-.18297.18852-.33881.28255-.26914.16242-.4247.40995-.51033.7569-.025.10054-.28999.36846-.41808.34168-.30017-.0632.0834-.61658.15136-.70068.0761-.0932.17748-.17493.26672-.28256.0865-.10418.14293-.24492.22634-.30274.0914-.0632.35222-.13871.51034-.13259zm2.24034.68046c.096.002.18259.0176.22204.0566-.0617.24998-.60031.18397-.79724.0935.0116-.0942.1601-.1203.284-.13259.0874-.003.19524-.0207.2912-.0175zm-1.22537.46137c.0638-.002.12881.0116.19604.0301-.17419.14571-.36259.22824-.66174.32292-.14384.0449-.39223.10144-.41663-.0593-.0298-.19687.21034-.15107.34167-.16868.16537-.0232.34691-.1192.54066-.12547zm18.79941 1.12162c-.0228.0544-.0384.10672-.036.15855.0116.0914.11176.17923.13406.30279.0116.0656-.0307.20697 0 .26672.0912.17672.32965.0503.50028.0593-.19382-.26689-.3874-.53428-.59832-.78713zm.96736 1.30183c-.0273.13043-.11577.30051-.18741.40944-.16499.25094-.38911.26264-.62568.39645-.19729.11186-.28224.29853-.39792.49305-.12535.21015-.20299.33711-.15134.64159-.16916.33551-.42528.54105-.77563.70064-.10348.0468-.24517.0642-.34025.13258-.0754.0547-.11871.20063-.22633.32148-.13272.14774-.27191.21007-.34169.32294-.0541.0874-.0723.2607-.1326.37772-.0812.15898-.25288.23686-.35902.39792-.0484.0742-.0811.22541-.13404.32295-.11997.2179-.32478.37489-.30279.56656.0222.18526.2322.21768.24652.37916.003.0913-.0603.14709-.0566.24654.003.14526.101.24722.11243.359.0283.28102-.0954.39318-.14848.5853-.0253.0918-.0141.19506-.0385.26673-.0473.14064-.24263.2676-.24656.43391-.002.11824.12134.21327.13126.3792.003.11454-.0565.23651-.0357.3417.0399.20592.40794.44548.56806.60545.21412.21418.49444.37989.58674.60555.0774.19162.0767.44085.22635.58532.1104.1066.29397.1731.43539.28397.13193.10336.27565.19294.41663.30274.23039.18028.57872.53955.94574.51185.19168-.0131.3881-.17042.60553-.20907.22366-.0397.51391-.0609.73954-.0372.17284.0172.35088.12069.53055.11242.18969-.0116.40725-.15237.62281-.24649.17344-.0753.38631-.15918.6199-.22062.10724-.72006.16436-1.45778.16436-2.20866 0-3.02286-.90388-5.82462-2.45081-8.15992zm-24.4162 4.96082c-.31446.0175-.52045.0315-.69922.11245-.40954.18637-.33045.73981-.73962.87078-.14143.0448-.33576.0475-.4915.0758-.13455.0249-.29835.0977-.43684.0949-.0385-.00048-.093-.0294-.14133-.0441-.036.25949-.0663.52192-.0897.78566.3893.0741.59021.59053.93427.76122.0942.047.2174.0499.33875.0764.0976.0222.17236.0632.26666.0952.20025.0677.44541.0598.60557.13125.24125.10708.41819.56053.62568.68191.0116.12232-.0242.28656.0193.37768.0977.13301.23637.10348.39785.19031.19323.10418.25235.37334.43542.45558.0631.0282.22161.0245.32149.0552.25089.0756.33278.36622.54786.30277.14103-.0412.12991-.18667.15279-.32151.0932-.10056.19494-.26097.34024-.26383.23519-.0116.25613.24304.34165.47142.0486.12912.17463.24157.20762.37773.0587.23521.0295.93926-.0207 1.07983-.0593.17248-.29285.24561-.43682.43684-.0677.0898-.0999.22099-.15138.284-.0927.11295-.23049.1424-.29984.24654-.0389.0587-.0772.18453-.11542.26381-.11366.24088-.26573.41152-.17013.70068.0397.11897.22586.19874.22635.33878.00053.16481-.35052.31237-.37769.49304-.0207.13446.10858.37438.15134.54931.0313.13219.28105.21483.359.30274.13284.14918.23903.36049.36039.54785.24.36851.42808.81794.66176 1.17498.12345.18701.29686.35514.37913.54926.0417.0977.036.21473.0745.30276.13523.30531.7326.62408 1.04087.77564.14429.0699.30441.095.43683.16865.2006.11187.59794.41232.69923.58824.0904.15809.14641.54294.19028.79433.0588.33226.00067.58738.0193.9472.0116.19461.0737.39024.0761.58534.00076.0681-.036.11911-.0387.18884-.00011.0108.004.0245.004.0357 1.85917.84134 3.91934 1.32058 6.09974 1.32058.39391 0 .7832-.0209 1.16915-.0512.0174-.0291.0324-.0594.0539-.0866.0891-.11667.16781-.21881.22642-.32151.0561-.34564-.13787-.58705-.0566-.88949.0905-.33985.56023-.54738.88961-.70074.11317-.0527.2292-.13803.32141-.1701.22794-.0794.51252-.0359.72086-.11243.35465-.12979.39169-.5102.56657-.83333.0829-.15292.19145-.30621.20762-.41516.0138-.0977-.0358-.19009-.0206-.30564.0168-.1143.11967-.21318.15136-.33882.0412-.16393.0593-.40413.0593-.58673 0-.14992-.0699-.28142-.0754-.41667-.0248-.49096.17733-.54587.359-.81309.0912-.1327.12522-.28404.18884-.37918.30497-.45495.83407-.6746.79581-1.36236-.0116-.22759-.1555-.74192-.32294-.81453-.0957-.0413-.31554-.003-.45413-.0566-.44739-.16683-.70993-.72144-1.17352-.75691-.0987-.0116-.18987.0403-.30129.0385-.18347-.0116-.46009-.12848-.66317-.15138-.12911-.0132-.30171.0381-.37921 0-.11809-.0576-.13019-.2753-.22635-.34025-.0757-.053-.22455-.07-.34022-.11526-.18639-.0709-.33419-.15512-.54924-.17009-.0662-.003-.14906.0315-.22635.0207-.11898-.0207-.21314-.16096-.3229-.22779-.13759-.0841-.26469-.12428-.32153-.24365.12427-.40767-.21918-.52131-.30277-.75688-.0397-.1104-.0219-.24321-.0566-.34166-.0499-.14108-.1888-.22256-.3417-.34023-.27388-.21081-.51682-.40875-.90825-.45703-.17208-.0222-.3428.052-.55074.0385-.22029-.0131-.49689-.20669-.66167-.39504-.16023-.1839-.23815-.34893-.37774-.43683-.1322-.0851-.30768-.0831-.39792-.16867-.0401-.0374-.0329-.10155-.0762-.19035-.0663-.13762-.1781-.21419-.0949-.37911-.15085-.0776-.155.14391-.32004.11525-.14717-.20879-.27144-.30772-.60554-.24652-.15297.0283-.23838.22156-.41662.22638-.14621.0116-.26105-.16291-.45412-.19035-.14576-.0207-.31149.039-.41523.0203-.16153-.0322-.21139-.16677-.35899-.26384-.10821-.0708-.31845-.19225-.37913-.19029-.19026.0116-.32584.40429-.58819.26531-.12754-.16165.20768-.24678.0566-.39799-.11464-.11465-.21101.0525-.30272.11541-.10513.0722-.20391.14443-.32008.18743-.26001.0971-.42251.0466-.62568.15139-.18814.0972-.19617.26049-.30275.4541-.0874.15863-.28567.38975-.41666.39933-.15862.0116-.31024-.22175-.45411-.28396-.43347-.18779-.64346.1667-1.00337.17152-.33405.0116-.81117-.5394-.7944-.85347.003-.1916.1102-.48231.1326-.71942.0207-.18854.14923-.30215.15143-.4743.003-.22988-.30496-.40664-.45419-.43394-.35361-.0649-.84456.1423-1.24985-.0207-.0772-.12826.0908-.21692.13404-.34167.0249-.0706.01-.16561.0359-.24366.0445-.12056.17123-.21398.22771-.34167.0416-.0972.053-.23807.0949-.35898.0503-.13767.14069-.22637.1514-.32292.0131-.1275-.0341-.27494-.13412-.35898zm5.06027 4.00645c.12831.0116.14437.27711.0129.29846-.14155.0223-.21349-.22197-.0757-.28551.0234-.0116.0451-.0116.0633-.0108v-.002z" fill="#000" fill-opacity=".318548" transform="matrix(1.0508504 0 0 1.0508504 -20.353166 -26.940048)"/></g></g></g><g transform="matrix(1.486561746536 0 0 1.487531099682 -571.497940914045 -767.217801319842)"><circle cx="400.57138" cy="531.79791" fill="url(#c)" r="0"/><circle cx="400.57138" cy="531.79791" fill="url(#c)" r="0" transform="matrix(1.637466546304 0 0 1.637466546304 -298.091124770527 -338.94880206143)"/></g><g fill="#fff" fill-opacity=".83871" transform="matrix(.047852966191 -.006567845982 .006567845982 .047852966191 10.455865481317 13.671782493854)"><path d="m306.668 92.094 90.873 90.87 13.057-13.046-90.868-90.872z"/><path d="m294.878 103.885-256.004 256.017c-1.824 1.826-3.211 4.043-4.038 6.482l-33.957 101.262c-2.002 6.01-.457 12.619 4.025 17.1 3.173 3.18 7.44 4.887 11.79 4.887 1.774 0 3.567-.277 5.309-.863l101.246-33.973c2.456-.83 4.673-2.196 6.494-4.021l256.003-256.018z"/><path d="m331.52 67.257 90.868 90.874 13.03-13.045-90.873-90.871z"/><path d="m484.732 72.193-67.274-67.306c-3.129-3.127-7.382-4.887-11.795-4.887-4.414 0-8.663 1.76-11.79 4.887l-37.533 37.537 90.868 90.872 37.524-37.522c6.512-6.514 6.512-17.067 0-23.581z"/></g></svg>