<svg height="48" width="48" xmlns="http://www.w3.org/2000/svg" xmlns:xlink="http://www.w3.org/1999/xlink"><linearGradient id="a" gradientUnits="userSpaceOnUse" x1="399.57144" x2="399.57144" y1="545.79797" y2="517.79797"><stop offset="0" stop-color="#3889e9"/><stop offset="1" stop-color="#5ea5fb"/></linearGradient><linearGradient id="b" gradientUnits="userSpaceOnUse" x1="-318.57867" x2="-318.57867" y1="653.95679" y2="301.29816"><stop offset="0" stop-color="#0a80fd"/><stop offset="1" stop-color="#56c5fa"/></linearGradient><linearGradient id="c" gradientUnits="userSpaceOnUse" x1="-315.387521" x2="-315.387521" y1="617.485803" y2="285.983891"><stop offset="0" stop-color="#ecf5ff"/><stop offset="1" stop-color="#fefeff"/></linearGradient><circle cx="400.57138" cy="531.79791" fill="url(#a)" r="0" transform="matrix(1.63746654 0 0 1.63746654 -644.580187 -848.719334)"/><g transform="matrix(.11136151 0 0 .11136151 59.887098 -26.022587)"><circle cx="-325.88733" cy="478.74667" fill="url(#b)" r="173.44701" transform="matrix(1.242537 0 0 1.242537 82.651446 -144.23268)"/><circle cx="-322.25766" cy="452.78693" fill="url(#c)" r="163.04156"/><g fill="#32a4fb" stroke="#30a2fc" transform="matrix(.88692965 0 0 .88692965 -22.17395 82.712193)"><path d="m345.441 248.292-194.287 194.281c-12.359 12.365-32.397 12.365-44.75 0-12.354-12.354-12.354-32.391 0-44.744l171.914-171.909-171.909-171.903c-12.354-12.359-12.354-32.394 0-44.748 12.354-12.359 32.391-12.359 44.75 0l194.287 194.284c6.177 6.18 9.262 14.271 9.262 22.366 0 8.099-3.091 16.196-9.267 22.373z" transform="matrix(-.35772194 -.00129333 -.00129333 .35772194 -328.79122 340.647118)"/><path d="m345.441 248.292-194.287 194.281c-12.359 12.365-32.397 12.365-44.75 0-12.354-12.354-12.354-32.391 0-44.744l171.914-171.909-171.909-171.903c-12.354-12.359-12.354-32.394 0-44.748 12.354-12.359 32.391-12.359 44.75 0l194.287 194.284c6.177 6.18 9.262 14.271 9.262 22.366 0 8.099-3.091 16.196-9.267 22.373z" transform="matrix(.35772194 -.00129333 .00129333 .35772194 -351.94838 340.648718)"/></g></g></svg>