<?xml version="1.0" encoding="UTF-8" standalone="no"?>
<!-- Created with Inkscape (http://www.inkscape.org/) -->

<svg
   xmlns:osb="http://www.openswatchbook.org/uri/2009/osb"
   xmlns:dc="http://purl.org/dc/elements/1.1/"
   xmlns:cc="http://creativecommons.org/ns#"
   xmlns:rdf="http://www.w3.org/1999/02/22-rdf-syntax-ns#"
   xmlns:svg="http://www.w3.org/2000/svg"
   xmlns="http://www.w3.org/2000/svg"
   xmlns:xlink="http://www.w3.org/1999/xlink"
   xmlns:sodipodi="http://sodipodi.sourceforge.net/DTD/sodipodi-0.dtd"
   xmlns:inkscape="http://www.inkscape.org/namespaces/inkscape"
   width="48"
   height="48"
   id="svg5453"
   version="1.1"
   inkscape:version="0.91 r13725"
   sodipodi:docname="brasero.svg"
   viewBox="0 0 48 48">
  <defs
     id="defs5455">
    <linearGradient
       id="linearGradient4787-3"
       inkscape:collect="always">
      <stop
         id="stop4237"
         offset="0"
         style="stop-color:#ff433a;stop-opacity:1" />
      <stop
         id="stop4239"
         offset="1"
         style="stop-color:#ff9436;stop-opacity:1" />
    </linearGradient>
    <linearGradient
       inkscape:collect="always"
       id="linearGradient4787">
      <stop
         style="stop-color:#ff433a;stop-opacity:1"
         offset="0"
         id="stop4789" />
      <stop
         style="stop-color:#ff9436;stop-opacity:1"
         offset="1"
         id="stop4791" />
    </linearGradient>
    <linearGradient
       id="linearGradient4179">
      <stop
         offset="0"
         style="stop-color:#fef15e;stop-opacity:1"
         id="stop4181" />
      <stop
         offset="1"
         style="stop-color:#e6c12b;stop-opacity:1"
         id="stop4183" />
    </linearGradient>
    <linearGradient
       gradientTransform="matrix(1.0392269,-0.18753873,0.174819,1.1148404,-109.44957,16.915701)"
       gradientUnits="userSpaceOnUse"
       y2="509.78397"
       x2="410.33771"
       y1="509.78397"
       x1="389.95786"
       id="linearGradient4830-8"
       xlink:href="#linearGradient4787"
       inkscape:collect="always" />
    <linearGradient
       gradientTransform="matrix(1.1509558,0,0,1.1544499,-61.695339,-80.989596)"
       gradientUnits="userSpaceOnUse"
       y2="505.35291"
       x2="413.20642"
       y1="548.15637"
       x1="412.34464"
       id="linearGradient4822"
       xlink:href="#linearGradient4787-3"
       inkscape:collect="always" />
    <linearGradient
       inkscape:collect="always"
       xlink:href="#linearGradient4422-1"
       id="linearGradient3834"
       gradientUnits="userSpaceOnUse"
       gradientTransform="matrix(1.5292812,0,0,1.529412,-592.82053,-769.10295)"
       x1="408.75406"
       y1="540.96143"
       x2="408.57138"
       y2="506.798" />
    <linearGradient
       osb:paint="gradient"
       id="linearGradient4207">
      <stop
         id="stop3371"
         offset="0"
         style="stop-color:#3498db;stop-opacity:1;" />
      <stop
         id="stop3373"
         offset="1"
         style="stop-color:#3498db;stop-opacity:0;" />
    </linearGradient>
    <linearGradient
       y2="506.798"
       x2="409.57144"
       y1="540.79797"
       x1="409.57144"
       gradientTransform="matrix(0.52941243,0,0,0.52941244,-184.30279,-245.30519)"
       gradientUnits="userSpaceOnUse"
       id="linearGradient3862"
       xlink:href="#linearGradient4355"
       inkscape:collect="always" />
    <linearGradient
       id="linearGradient4355"
       inkscape:collect="always">
      <stop
         id="stop4357"
         offset="0"
         style="stop-color:#3d434a;stop-opacity:1" />
      <stop
         id="stop4359"
         offset="1"
         style="stop-color:#5f6974;stop-opacity:1" />
    </linearGradient>
    <linearGradient
       id="linearGradient4422-1">
      <stop
         style="stop-color:#8798a9;stop-opacity:1"
         offset="0"
         id="stop4424-78" />
      <stop
         style="stop-color:#bfc8d1;stop-opacity:1"
         offset="1"
         id="stop4426-8" />
    </linearGradient>
  </defs>
  <sodipodi:namedview
     id="base"
     pagecolor="#5a5a5a"
     bordercolor="#ffffff"
     borderopacity="1"
     inkscape:pageopacity="0"
     inkscape:pageshadow="2"
     inkscape:zoom="9.1743808"
     inkscape:cx="11.231056"
     inkscape:cy="26.843059"
     inkscape:document-units="px"
     inkscape:current-layer="layer1"
     showgrid="false"
     fit-margin-top="0"
     fit-margin-left="0"
     fit-margin-right="0"
     fit-margin-bottom="0"
     inkscape:window-width="1366"
     inkscape:window-height="712"
     inkscape:window-x="0"
     inkscape:window-y="28"
     inkscape:window-maximized="1"
     inkscape:showpageshadow="false"
     borderlayer="true"
     showguides="false"
     inkscape:snap-bbox="true"
     inkscape:bbox-paths="false"
     inkscape:bbox-nodes="true"
     inkscape:guide-bbox="true"
     inkscape:snap-bbox-edge-midpoints="false"
     inkscape:object-paths="true"
     inkscape:object-nodes="true"
     inkscape:snap-others="true"
     inkscape:snap-nodes="true"
     inkscape:snap-global="true"
     inkscape:snap-center="true"
     showborder="true">
    <inkscape:grid
       type="xygrid"
       id="grid4063" />
    <sodipodi:guide
       position="2,9"
       orientation="4,0"
       id="guide4146" />
    <sodipodi:guide
       position="1.1650391e-05,43.999996"
       orientation="0,48"
       id="guide4148" />
    <sodipodi:guide
       position="48.000012,43.999996"
       orientation="-4,0"
       id="guide4150" />
    <sodipodi:guide
       position="48.000012,47.999996"
       orientation="0,-48"
       id="guide4152" />
    <sodipodi:guide
       position="1.1650391e-05,4.0000264"
       orientation="4,0"
       id="guide4154" />
    <sodipodi:guide
       position="1.1650391e-05,2.6367188e-05"
       orientation="0,48"
       id="guide4156" />
    <sodipodi:guide
       position="48.000012,2.6367188e-05"
       orientation="-4,0"
       id="guide4158" />
    <sodipodi:guide
       position="-5,4"
       orientation="0,-48"
       id="guide4160" />
    <sodipodi:guide
       position="48.000012,48.000026"
       orientation="0,-4"
       id="guide4162" />
    <sodipodi:guide
       position="46,12"
       orientation="48,0"
       id="guide4164" />
    <sodipodi:guide
       position="44.000012,2.6367188e-05"
       orientation="0,4"
       id="guide4166" />
    <sodipodi:guide
       position="48.000012,2.6367188e-05"
       orientation="-48,0"
       id="guide4168" />
    <sodipodi:guide
       position="4.0000422,48.000026"
       orientation="0,-4"
       id="guide4170" />
    <sodipodi:guide
       position="4.2167969e-05,48.000026"
       orientation="48,0"
       id="guide4172" />
    <sodipodi:guide
       position="4.2167969e-05,2.6367188e-05"
       orientation="0,4"
       id="guide4174" />
    <sodipodi:guide
       position="2.6332556e-06,24.000019"
       orientation="24.000006,0"
       id="guide4316" />
    <sodipodi:guide
       position="2.6332556e-06,1.3122102e-05"
       orientation="0,24.000006"
       id="guide4318" />
    <sodipodi:guide
       position="24.000008,24.000019"
       orientation="0,-24.000006"
       id="guide4322" />
  </sodipodi:namedview>
  <metadata
     id="metadata5458">
    <rdf:RDF>
      <cc:Work
         rdf:about="">
        <dc:format>image/svg+xml</dc:format>
        <dc:type
           rdf:resource="http://purl.org/dc/dcmitype/StillImage" />
        <dc:title></dc:title>
      </cc:Work>
    </rdf:RDF>
  </metadata>
  <g
     inkscape:label="Capa 1"
     inkscape:groupmode="layer"
     id="layer1"
     transform="translate(-384.57143,-499.798)"
     style="display:inline">
    <path
       style="display:inline;fill:url(#linearGradient4830-8);fill-opacity:1;fill-rule:evenodd;stroke:none;stroke-width:1px;stroke-linecap:butt;stroke-linejoin:miter;stroke-opacity:1"
       d="m 407.19364,501.71819 c -10.53061,0.43133 -11.11527,1.45077 -12.39918,2.21774 -2.97313,1.77606 -3.76827,0.0129 -2.40382,-1.71267 -1.31721,0.13559 -2.68943,2.60084 -2.53702,4.06963 0.14413,1.38895 -0.34841,2.72458 -1.11394,2.25019 -1.26882,-0.78628 -3.96801,-0.31558 -4.10924,1.65349 0.91986,-0.48131 2.58759,-0.73973 2.34403,0.79292 -0.20187,1.2703 -0.45372,4.03365 1.86843,5.59047 2.32213,1.55682 11.33172,-0.0183 11.33172,-0.0183 z"
       id="path4680-8"
       inkscape:connector-curvature="0"
       sodipodi:nodetypes="cscsscsscc"
       inkscape:transform-center-x="9.9999645"
       inkscape:transform-center-y="6.8791785" />
    <g
       transform="matrix(0.88468184,0,0,0.8846154,47.115697,60.438249)"
       id="layer1-7"
       inkscape:label="Capa 1">
      <path
         id="rect4146"
         transform="translate(376.57144,491.79797)"
         d="M 32,6 C 17.59725,6 6.0019531,17.59602 6.0019531,32 6.0019531,46.40398 17.59725,58 32,58 46.40275,58 57.998047,46.40398 57.998047,32 57.998047,17.59602 46.40275,6 32,6 Z m 0,23 c 1.662,0 3,1.338 3,3 0,1.662 -1.338,3 -3,3 -1.662,0 -3,-1.338 -3,-3 0,-1.662 1.338,-3 3,-3 z"
         style="fill:url(#linearGradient3834);fill-opacity:1;stroke:none"
         inkscape:connector-curvature="0" />
      <g
         inkscape:label="Capa 1"
         id="layer1-31">
        <path
           inkscape:connector-curvature="0"
           style="fill:url(#linearGradient3862);fill-opacity:1;stroke:none"
           d="m 32,23 c -4.986,0 -9,4.014 -9,9 0,4.986 4.014,9 9,9 4.986,0 9,-4.014 9,-9 0,-4.986 -4.014,-9 -9,-9 z m 0,6 c 1.662,0 3,1.338 3,3 0,1.662 -1.338,3 -3,3 -1.662,0 -3,-1.338 -3,-3 0,-1.662 1.338,-3 3,-3 z"
           transform="translate(376.57144,491.79797)"
           id="rect4270-6" />
        <path
           inkscape:connector-curvature="0"
           style="opacity:1;fill:#9da9b5;fill-opacity:1;stroke-linecap:round"
           d="m 32,24 a 8,8 0 0 0 -8,8 8,8 0 0 0 8,8 8,8 0 0 0 8,-8 8,8 0 0 0 -8,-8 z m 0,1 a 7,7 0 0 1 7,7 7,7 0 0 1 -7,7 7,7 0 0 1 -7,-7 7,7 0 0 1 7,-7 z"
           transform="translate(376.57144,491.79797)"
           id="path4558" />
      </g>
    </g>
    <path
       sodipodi:nodetypes="csscssscsssccsccsssscsscscscsscc"
       inkscape:connector-curvature="0"
       style="display:inline;fill:url(#linearGradient4822);fill-opacity:1.0;fill-rule:evenodd;stroke:none;stroke-width:1px;stroke-linecap:butt;stroke-linejoin:miter;stroke-opacity:1"
       clip-path="none"
       d="m 418.29723,502.79808 c 0.72064,0.66388 1.65454,1.62141 2.23222,2.65614 1.00709,1.80383 0.86322,4.94248 -2.22997,5.51971 -3.09326,0.57722 -3.21146,-0.47959 -3.2011,-1.73168 -1.64435,0.22705 -2.37974,3.88306 0.50355,5.15895 2.44578,1.0823 3.34495,0.64938 7.94878,0.36077 4.60382,-0.28861 5.14333,5.33933 2.98529,6.20516 -2.15804,0.86584 -2.98207,-0.67753 -2.84141,-1.51521 -1.72966,0.67752 -1.94081,2.56775 -1.07903,3.46334 6.72947,6.99364 3.50196,12.39765 1.6545,12.9515 -2.28929,0.6863 -3.90316,-0.67414 -2.73352,-2.48928 0.95314,-1.47914 0.13053,-3.91852 -1.02733,-4.78241 -1.15784,-0.86393 -3.40624,-0.65736 -4.36778,-0.0157 1.38595,0.52557 3.41691,1.33483 2.87739,3.13866 -0.41662,1.39296 -1.78159,2.27022 -3.48883,2.23674 -3.19565,-1.4253 -5.00971,-5.80346 -2.99965,-7.22684 -2.53308,0.0488 -2.82586,4.95232 -1.8611,7.09071 0.76385,1.69309 2.99728,3.00224 1.85489,4.97039 -1.19822,2.06436 -2.02958,3.17474 -4.90697,2.59752 -2.87739,-0.57723 -4.45995,-2.41713 -4.10027,-4.11274 0.35967,-1.69559 1.19975,-1.92192 2.66158,-1.94813 -0.91202,-1.93824 -3.98251,-1.13713 -6.17098,1.40698 -1.00473,1.168 -1.52373,1.03705 -3.2165,0.0723 -2.25069,-1.28272 1.68432,-4.86821 3.02642,-2.77789 0.10301,-2.44979 -3.67383,-1.26269 -4.21335,-3.96843 -0.53951,-2.70574 2.33636,-3.51214 2.33636,-3.51214 -3.40898,0.89505 -5.09701,2.0974 -8.58448,1.05545 -1.23815,-0.36993 0.19673,-3.74706 -3.78451,-2.585 0.67245,12.17735 10.66654,21.78121 22.98089,21.78121 12.75257,0 23.01911,-10.29771 23.01911,-23.089 0,-9.28836 -5.42638,-17.24032 -13.2742,-20.91086 z"
       id="path4648" />
  </g>
</svg>
