<svg height="48" width="48" xmlns="http://www.w3.org/2000/svg" xmlns:xlink="http://www.w3.org/1999/xlink"><linearGradient gradientUnits="userSpaceOnUse" x1="404.33393" x2="412.17143" y1="516.973" y2="516.973"><stop offset="0"/><stop offset="1" stop-opacity="0"/></linearGradient><linearGradient id="a" gradientUnits="userSpaceOnUse" x1="406.829629723328" x2="406.829629723328" y1="550.066486003864" y2="503.984332403864"><stop offset="0" stop-color="#3889e9"/><stop offset="1" stop-color="#5ea5fb"/></linearGradient><linearGradient id="b" gradientUnits="userSpaceOnUse" x1="409.0076" x2="409.0076" y1="545.32062" y2="502.24442"><stop offset="0" stop-color="#69159f"/><stop offset="1" stop-color="#b92ff5"/></linearGradient><linearGradient id="c" gradientUnits="userSpaceOnUse" x1="404.43521" x2="403.96951" y1="545.32062" y2="502.97845"><stop offset="0" stop-color="#faf7f7"/><stop offset="1" stop-color="#fcf9f9"/></linearGradient><linearGradient id="d" gradientUnits="userSpaceOnUse" x1="407.55769891276" x2="408.555657519816" y1="514.06259866828" y2="501.266299871392"><stop offset="0" stop-color="#abcd03"/><stop offset="1" stop-color="#b3ff80"/></linearGradient><g transform="matrix(1.021445582807 0 0 1.021445582807 -393.778990059974 -511.015325259519)"><circle cx="408.47528" cy="527.02527" fill="url(#a)" r="0"/><path d="m409.97084 503.74439-1.36653 3.776c1.93571-2.6669 5.01002-4.67372 8.54012-6.44311-2.58102 2.08609-4.93414 4.17238-6.37652 6.25846 2.42927-2.37669 5.69339-3.69691 9.37496-4.56835-4.89634 3.03679-8.78281 6.29542-11.74344 9.56985l-2.35313-.71288c.41715-2.61432 1.83683-5.29193 3.92454-7.87998z" fill="url(#d)"/><path d="m405.01848 508.40243 4.49176 1.86347c0 1.14218-.0928 4.62585.62137 5.65347 7.47036 9.62097 6.21353 28.90641-1.51328 29.40113-11.76639 0-16.25383-7.99325-16.25383-15.3399 0-6.69947 8.03145-11.15303 12.82785-15.11162 1.21799-1.06582 1.00648-3.42132-.17387-6.46655z" fill="#fffcdb"/><path d="m409.51158 510.19888 1.61878.82577c-.15217 1.06552.0761 3.42597 1.14162 4.03468 4.72033 2.93096 9.17363 6.12837 10.92479 9.3258 6.24264 11.26733-4.37749 21.69683-13.55112 20.7071 4.9865-3.69241 6.43302-11.26704 4.56787-19.52731-.76118-3.2356-1.94154-6.16657-4.03524-9.47826-.90699-1.62559-.59033-3.64162-.6667-5.88778z" fill="url(#b)"/><path d="m406.99866 509.22529v.0209.0272.0147c0 .004-.003.004-.003.009v35.95232c.52901.0356 1.06009.0712 1.62201.0712 7.72679-.4947 8.98338-19.78044 1.51303-29.40142-.7142-1.02761-.6224-4.5118-.6224-5.65397l-2.51055-1.03941zm-13.24846 27.53633c.0184.0416.0398.082.0586.12373-.0189-.0415-.0401-.082-.0586-.12373zm.6308 1.25318c.0277.0493.0576.0976.086.14668-.0282-.0491-.0582-.0972-.086-.14668zm.75861 1.19868c.0354.0502.073.099.10884.14879-.0362-.0498-.0737-.0987-.10884-.14879zm.88853 1.12747c.0459.0522.0936.10333.1404.15504-.0468-.0515-.0946-.10271-.1404-.15504zm.9996 1.01845c.0721.0663.14593.13186.22004.197-.074-.0651-.14785-.13062-.22004-.197zm1.16306.9535c.0786.0574.15849.1136.23891.16975-.0805-.0562-.16027-.11222-.23891-.16975zm1.31395.84663c.0824.0469.16532.0927.24937.13832-.0839-.0456-.16709-.0913-.24937-.13832zm1.46484.72508c.0846.0363.1676.074.25356.10886-.0858-.0352-.16913-.0727-.25356-.10886zm1.64295.60145c.0723.022.14261.0458.21585.0671-.0732-.0213-.14357-.0449-.21585-.0671zm1.84833.45684c.0395.007.0775.0158.11735.023-.0397-.007-.0778-.0154-.11735-.023z" fill-opacity=".156863"/><path d="m405.0199 508.43791c1.18035 3.04523 1.39193 5.40123.17394 6.46705-4.79639 3.95859-12.82934 8.41198-12.82934 15.11146 0 6.9958 4.08515 14.56039 14.63366 15.26862v-36.02566z" fill="url(#c)"/></g></svg>