<svg height="48" width="48" xmlns="http://www.w3.org/2000/svg" xmlns:xlink="http://www.w3.org/1999/xlink"><linearGradient id="a" gradientUnits="userSpaceOnUse" x1="409.57144" x2="409.57144" y1="543.79797" y2="503.798"><stop offset="0" stop-color="#c52828"/><stop offset="1" stop-color="#ff5454"/></linearGradient><g transform="matrix(1.200000330887 0 0 1.200000330887 -466.248858881076 -604.442748595101)"><rect fill="url(#a)" height="39.999969" ry="19.999985" width="39.999989" x="388.57144" y="503.798"/><g fill="#fff" fill-opacity=".854839" transform="matrix(.581428995533 0 0 .581428995533 395.207274511785 510.368816125951)"><path d="m6.144 22.375c-3.393 0-6.144 2.75-6.144 6.144 0 3.395 2.75 6.145 6.144 6.145 1.198 0 2.312-.349 3.256-.94-.997-1.489-1.581-3.277-1.581-5.202 0-1.924.584-3.713 1.581-5.202-.945-.597-2.058-.945-3.256-.945z"/><path d="m19.696 21.627c-.78-.283-1.618-.444-2.496-.444-4.052 0-7.336 3.284-7.336 7.336s3.285 7.337 7.336 7.337c1.637 0 3.143-.543 4.363-1.448-2.042-1.871-3.331-4.552-3.331-7.532.001-1.922.542-3.713 1.464-5.249z"/><path d="m25.402 19.283c-3.003 1.214-5.125 4.151-5.125 7.59 0 4.521 3.667 8.188 8.188 8.188 3.244 0 6.039-1.893 7.364-4.629-5.798-.423-10.393-5.25-10.427-11.149z"/><path d="m36.654 10.008c-5.086 0-9.21 4.124-9.21 9.21 0 5.087 4.124 9.211 9.21 9.211 5.087 0 9.21-4.124 9.21-9.211 0-5.086-4.123-9.21-9.21-9.21zm3.91 7.714c-1.107 0-2.007-.899-2.007-2.008s.897-2.007 2.007-2.007c1.108 0 2.008.898 2.008 2.007s-.898 2.008-2.008 2.008z"/></g></g></svg>