<svg height="48" width="48" xmlns="http://www.w3.org/2000/svg" xmlns:xlink="http://www.w3.org/1999/xlink"><linearGradient id="a" gradientUnits="userSpaceOnUse" x1="72.093157" x2="71.561756" xlink:href="#c" y1="42.649616" y2="7.276058"/><linearGradient id="b" gradientUnits="userSpaceOnUse" x1="16.2781330214" x2="15.897293873492" xlink:href="#c" y1="42.547191718261" y2="17.196119768743"/><linearGradient id="c" gradientUnits="userSpaceOnUse" x1="72.093157" x2="71.561756" y1="42.649616" y2="7.276058"><stop offset="0" stop-color="#6a82d4"/><stop offset="1" stop-color="#90b0e0"/></linearGradient><linearGradient id="d" gradientUnits="userSpaceOnUse" x1="11.660663" x2="10.415977" y1="56.928329" y2="32.880904"><stop offset="0" stop-color="#cdd0d1"/><stop offset="1" stop-color="#f6f6f7"/></linearGradient><linearGradient id="e" gradientUnits="userSpaceOnUse" x1="14.428456" x2="5.505778" y1="47.467573" y2="39.642166"><stop offset="0" stop-color="#16a085"/><stop offset="1" stop-color="#2dcb72"/></linearGradient><filter id="f" color-interpolation-filters="sRGB"><feColorMatrix in="SourceGraphic" result="fbSourceGraphic" type="hueRotate" values="180"/><feColorMatrix in="SourceGraphic" result="result1" values="1 0 0 0 0 0 1 0 0 0 0 0 1 0 0 -0.2125 -0.7154 -0.0721 1 0"/><feColorMatrix type="hueRotate" values="0"/><feColorMatrix result="result3" values="1 0 0 0 0 0 1 0 0 0 0 0 1 0 0 0 0 0 1 0"/><feComposite in2="result3" operator="atop" result="result6"/><feComposite in="result6" in2="result6" k1="0.5" k2="0.5" k3="0.5" operator="arithmetic" result="result4"/><feBlend in="result4" in2="fbSourceGraphic" mode="normal" result="result2"/><feComposite in2="result2" k2="1" operator="arithmetic" result="result5"/><feComposite in2="SourceGraphic" operator="in" result="result5"/></filter><filter id="g" color-interpolation-filters="sRGB"><feColorMatrix values="0.21 0.72 0.072 0 0 0.21 0.72 0.072 0 0 0.21 0.72 0.072 0 0 0 0 0 1 0"/></filter><g filter="url(#f)" transform="matrix(.71659923 -.00987625 .00987625 .71659923 -26.835417 3.873742)"><rect fill="url(#a)" height="36.295765" ry="1.5" width="48.232185" x="47.935978" y="7.164441"/></g><rect fill="url(#b)" height="26.011988" ry="1.075001" stroke-width=".716667" transform="matrix(.9859804 -.16686119 .16686119 .9859804 0 0)" width="34.566429" x="-1.034526" y="17.116127"/><g filter="url(#g)" transform="matrix(.54322129 -.00748673 .00748673 .54322129 31.409348 10.001796)"><circle cx="11.184063" cy="45.12323" fill="url(#d)" r="12.348694"/><path d="m14.428456 47.271288-8.9226783.196284 4.2913527-7.825408z" fill="url(#e)" transform="matrix(-.01774298 1.1631677 -1.1631677 -.01774298 62.760227 34.349575)"/></g><path d="m17.467448 21.538025a1.2565347 1.3415347 0 0 0 -1.020712 1.553014l.433901 2.642774a1.2565347 1.3415347 0 0 1 -1.020714 1.553013l-.618832.115813.216948 1.321388.618832-.115813a1.2565347 1.3415347 0 0 1 1.454614 1.089762l.433903 2.642774a1.2565347 1.3415347 0 0 0 1.454614 1.089761l1.237665-.231624-.216949-1.321388-1.237663.231629-.542376-3.303469a1.2565347 1.3415347 0 0 0 -1.454614-1.08976 1.2565347 1.3415347 0 0 0 1.020714-1.553014l-.542376-3.303469 1.237663-.231629-.216948-1.321388m3.712992-.694879a1.2565347 1.3415347 0 0 1 1.454614 1.089761l.433901 2.642774a1.2565347 1.3415347 0 0 0 1.454615 1.089761l.618833-.115812.216948 1.321388-.618832.115813a1.2565347 1.3415347 0 0 0 -1.020714 1.553013l.433901 2.642775a1.2565347 1.3415347 0 0 1 -1.020713 1.553013l-1.237665.231625-.216947-1.321388 1.237662-.231629-.542375-3.303468a1.2565347 1.3415347 0 0 1 1.020713-1.553014 1.2565347 1.3415347 0 0 1 -1.454614-1.089761l-.542375-3.30347-1.237665.231624-.216948-1.321387 1.237664-.231629z" fill="#f9f9f9" stroke-width=".716667"/></svg>