<svg height="48" width="48" xmlns="http://www.w3.org/2000/svg" xmlns:xlink="http://www.w3.org/1999/xlink"><linearGradient gradientUnits="userSpaceOnUse" x1="0" x2="47" y1="23.5" y2="23.5"><stop offset="0" stop-color="#a9a3d4"/><stop offset=".47001833" stop-color="#87baff"/><stop offset="1" stop-color="#89ec85"/></linearGradient><linearGradient id="a"><stop offset="0" stop-color="#8645a3"/><stop offset="1" stop-color="#d164ff"/></linearGradient><linearGradient id="b" gradientTransform="matrix(.29592944 0 0 .29100166 -2.30115 1012.7314)" gradientUnits="userSpaceOnUse" x1="10.09375" x2="122.719" y1="107.36093" y2="107.36093"><stop offset="0" stop-color="#1a1a1a"/><stop offset=".11054216" stop-color="#2c2c2e"/><stop offset=".29001436" stop-color="#2b2b2d"/><stop offset=".5118711" stop-color="#2a2b2d"/><stop offset=".75173318" stop-color="#2b2b2d"/><stop offset=".89659214" stop-color="#323232"/><stop offset="1" stop-color="#171717"/></linearGradient><linearGradient id="c" gradientUnits="userSpaceOnUse" x1="16.811886954348" x2="16.956364022284" y1="1040.815362807651" y2="1014.203480278794"><stop offset="0" stop-color="#b6b9bf"/><stop offset="1" stop-color="#dddfe2"/></linearGradient><linearGradient id="d" gradientTransform="matrix(.60206209 0 0 1.1912687 -253.55755 396.70515)" gradientUnits="userSpaceOnUse" x1="451.02078" x2="451.02078" xlink:href="#a" y1="544.14978" y2="543.0885"/><linearGradient id="e" gradientUnits="userSpaceOnUse" x1="29.995545026211" x2="29.995545026211" y1="1045.692630963526" y2="1043.164103584341"><stop offset="0" stop-color="#040404"/><stop offset="1" stop-color="#121212" stop-opacity=".908163"/></linearGradient><linearGradient id="f" gradientUnits="userSpaceOnUse" x1="70.337623" x2="69.495489" y1="81.701629" y2="16.72187"><stop offset="0" stop-color="#974eb7"/><stop offset="1" stop-color="#d164ff"/></linearGradient><linearGradient id="g" gradientUnits="userSpaceOnUse" x1="209.5549" x2="202.58337" xlink:href="#a" y1="385.20599" y2=".062832"/><g stroke-width="1.317422" transform="matrix(1.199999650171 0 0 1.199999650171 3.176860870631 -1208.208316863007)"><path d="m .68596847 1041.205.29592305 4.6642c0 .4837.39595388.873.88779298.873h30.9616095c.491839 0 .887805-.3893.887805-.873l.295923-4.6642h-33.32905353z" fill="url(#b)"/><path d="m3.3514203 1013.8643h27.7084687c.49184 0 .887805.3894.887805.873l2.071617 26.3268c0 .4837-.395942.8731-.887781.8731h-31.5555528c-.4918391 0-.88778106-.3894-.88778106-.8731l1.77544306-26.3267c0-.4837.3959539-.8731.8877811-.8731z" fill="url(#c)"/><rect fill="url(#d)" height=".915936" ry=".457968" width="13.655848" x="10.576353" y="1044.0956"/><ellipse cx="29.894007" cy="1044.5861" fill="url(#e)" opacity=".452" rx="1.26427" ry="1.264262"/><path d="m29.891232 1044.619c.02853 0 .05324-.01.07407-.031.02085-.021.0313-.046.0313-.074v-.5268c0-.028-.01044-.053-.0313-.074-.02083-.021-.04553-.031-.07407-.031s-.05323.01-.07408.031-.03128.046-.03128.074v.5268c0 .028.01043.053.03128.074s.04555.031.07408.031z" fill="#e3e8ea" opacity=".668"/><path d="m30.457123 1044.3366c-.04418-.088-.10631-.1624-.186424-.2222-.02304-.017-.04911-.024-.0782-.021-.02909 0-.05213.018-.06914.041-.01756.023-.02428.049-.02016.078.0041.029.0177.052.04074.07.05376.041.09535.09.124688.149.02936.059.04403.1213.04403.1877 0 .057-.01111.1115-.03333.1633-.02223.052-.05227.097-.09014.1346-.03787.038-.08271.068-.134568.09-.05186.022-.10632.033-.16339.033-.05706 0-.111524-.011-.163381-.033-.05186-.022-.09671-.052-.134578-.09-.03785-.038-.0679-.083-.09013-.1346-.02222-.052-.03334-.1063-.03334-.1633 0-.066.01468-.129.04404-.1877.02936-.059.07092-.1084.124698-.149.02304-.018.03662-.041.04074-.07.0041-.029-.0026-.055-.02016-.078-.01701-.024-.03992-.037-.06873-.041-.02881 0-.05502 0-.07861.021-.08012.06-.142256.1339-.186435.2222-.04418.088-.06626.1825-.06626.2824 0 .086.01674.1673.05021.2452.03348.078.07847.1452.134992.2017.05651.056.123738.1015.20166.135.07792.034.159683.05.245283.05s.167361-.017.245283-.05c.07792-.034.145145-.079.201659-.135.05652-.057.101502-.1237.134982-.2017.03347-.078.0502-.1596.0502-.2452 0-.1-.02206-.194-.06623-.2824z" fill="#e3e8ea" opacity=".668"/><path d="m24.621977 1019.0923h-3.083793c-.117491 0-.230017.037-.313092.1039-.08317.067-.129916.157-.130375.2517l-.005 2.4853c-.000833.1968.196834.3568.441201.3567l.429908.0004-.0042 1.8935-3.269101 1.7657.0155-7.235h1.136909c.121958.0002.235375-.051.298558-.1347.06367-.084.0685-.1885.01267-.2759l-2.242226-3.501c-.06-.093-.179683-.1518-.3101-.1522-.130566.0003-.25005.058-.310358.1516l-2.257468 3.4945c-.056.087-.05217.1918.01092.2759.06333.084.176634.1353.298534.1355h1.137925l-.02167 10.0207-3.518784-1.9149.0033-1.5036c.546025-.2901.907309-.7875.908584-1.3536.0025-.8983-.899601-1.6276-2.015585-1.6287-1.11385 0-2.0180744.7253-2.0204744 1.6235-.0017.5666.3580004 1.0649.9028154 1.3565l-.0042 1.9798c-.000833.2986.182634.5775.490101.7443l5.250093 2.8566-.0067 3.0903c-.7404.3198-1.2503.9418-1.25185 1.6663-.0017 1.0502 1.05215 1.9031 2.355534 1.9053 1.304867 0 2.363192-.8479 2.365442-1.8984.0017-.7244-.505433-1.3469-1.2445-1.6692l.01283-5.8763 5.004569-2.7028c.06008-.033.115675-.069.165941-.1098.206725-.1659.3266-.3932.327017-.6333l.005-2.3701.430234.0006c.117483-.0001.229716-.037.312858-.1042.08308-.067.129625-.1572.130058-.2519l.0042-2.4847c.00075-.197-.1966-.3566-.4411-.3567z" fill="#a1a7ae" stroke="#909296" stroke-width=".083333"/><g fill="url(#g)" stroke-width="1.317422" transform="matrix(.30527986 0 0 .30527988 -4.420671 1002.1444)"><g fill-rule="evenodd"><path d="m3002.1818-2197.0995 39.3048-129.1575c14.1356-55.5677 27.6067-44.3228 83.7808-44.3228h1023.7081l205.7436 238.2305-1282.836 10.121c-84.7668 1.0471-98.712 20.4591-69.7013-74.8712z" fill="#9d50bf" transform="matrix(.01621738 0 0 .01399082 -5.336407 84.10625)"/><path d="m6383.4495-2185.7915-34.2791-112.6428c-15.6733-76.792-25.9295-72.1455-99.058-72.1455h-1016.8978l-205.7436 238.2304 1274.6062 10.0561c77.2452-3.1881 109.8966 30.2339 81.3723-63.4982z" fill="#9d50bf" transform="matrix(.01621738 0 0 .01399082 -5.336407 84.10625)"/><path d="m3963.8055-4807.7305 34.554-106.6029c15.6733-76.792 25.9295-72.1455 99.058-72.1455l1016.8978.036 205.7436 238.2276-1318.0111-.0003c-61.5899 3.1273-58.9883 4.4886-38.2423-59.5149z" fill="#b25ad8" transform="matrix(.01621738 0 0 .01399082 -5.336407 84.10625)"/><path d="m5444.5468-4805.8007-34.554-106.6029c-15.6733-76.792-25.9295-72.1455-99.058-72.1455l-1016.8978.036-205.7436 238.2276 1318.0111-.0003c61.5899 3.1273 58.9883 4.4886 38.2423-59.5149z" fill="#b25ad8" transform="matrix(.01621738 0 0 .01399082 -5.336407 84.10625)"/></g><path d="m69.2374 82.349706-24.810192-25.484535s-3.680059-3.794297.818804-3.794297h13.480205v-4.416371-29.916957c-.08772-1.776285.01054-1.925522 1.737783-1.916546h21.003c1.493491-.165868 1.842105.04934 1.84128 1.631126v29.986478 4.632248l12.90441-.000027c4.15825-.000009 1.226724 3.172303 1.226724 3.172303s-21.108465 23.819718-24.052633 26.318775c-2.117733 1.811199-4.149381-.212197-4.149381-.212197z" fill="url(#f)"/></g></g></svg>