<svg height="48" width="48" xmlns="http://www.w3.org/2000/svg" xmlns:xlink="http://www.w3.org/1999/xlink"><linearGradient id="a" gradientTransform="matrix(.94189217 0 0 .96200617 183.0841 324.66927)" gradientUnits="userSpaceOnUse" x1="423.80746" x2="548.63843" y1="119.98457" y2="-37.068489"><stop offset="0" stop-color="#178b6f"/><stop offset="1" stop-color="#4dd7c4"/></linearGradient><g fill="#fff" fill-opacity=".854839" transform="matrix(.248537059565 -.000000000325 .000000000325 .248537059565 -66.616602303774 -130.794604675482)"><rect fill="url(#a)" fill-opacity="1" height="177.12633" ry="10.939935" transform="matrix(.00420848 .99999114 .99999186 -.00403434 0 0)" width="173.62801" x="537.56891" y="273.77591"/><path d="m364.43579 537.38454.62245 172.57195 70.42143 4.39657s11.51165 2.05763 11.50293-10.3611l-.10259-160.74314c.20685-13.69924-12.14584-11.55937-12.14584-11.55937z" fill="#000" fill-opacity=".588235" fill-rule="evenodd"/><g fill-opacity="1"><path d="m291.75732 536.38146 71.96618-.26603 2.56804 173.77858-73.73636.26997c-5.59441.0203-10.12132-4.74235-10.14852-10.68167l-.69603-152.3422c-.0272-5.93931 4.45228-10.73838 10.04669-10.75865z" fill="#fff"/><path d="m363.03381 536.22208.62668 173.74087 70.42142 4.39656s11.51166 2.05764 11.50296-10.3611l-.10259-160.74314c.20684-13.69923-12.14586-11.55938-12.14586-11.55938z" fill="#b3b3b3" fill-rule="evenodd"/><path d="m363.03381 536.22208.63535 173.74087 59.27306 9.28449s9.6829 2.21128 9.63258-10.90102l-.64284-169.72034c.12642-14.46358-10.24886-12.24579-10.24886-12.24579z" fill="#fff" fill-rule="evenodd"/></g><path d="m363.03381 536.22208.63535 173.74087 59.27306 9.28449s9.6829 2.21128 9.63258-10.90102l-.64284-169.72034c.12642-14.46358-10.24886-12.24579-10.24886-12.24579z" fill="#000" fill-opacity=".078431" fill-rule="evenodd"/><g fill="#4d4d4d" fill-opacity=".873096" transform="matrix(.10166446717 0 0 .10166446717 311.3710252 574.71028825672)"><path d="m466.075 161.525c-205.6 0-382.8 121.2-464.2 296.1-2.5 5.3-2.5 11.5 0 16.9 81.4 174.899 258.601 296.1 464.2 296.1s382.8-121.2 464.2-296.1c2.5-5.3 2.5-11.5 0-16.9-81.4-174.9-258.6-296.1-464.2-296.1zm0 514.701c-116.1 0-210.1-94.101-210.1-210.101 0-116.1 94.1-210.1 210.1-210.1 116.1 0 210.1 94.1 210.1 210.1s-94.1 210.101-210.1 210.101z" fill="#4d4d4d" fill-opacity=".873096"/><circle cx="466.07501" cy="466.02499" fill="#4d4d4d" fill-opacity=".873096" r="134.5"/></g></g></svg>