<?xml version="1.0" encoding="UTF-8" standalone="no"?>
<!-- Created with Inkscape (http://www.inkscape.org/) -->

<svg
   xmlns:dc="http://purl.org/dc/elements/1.1/"
   xmlns:cc="http://creativecommons.org/ns#"
   xmlns:rdf="http://www.w3.org/1999/02/22-rdf-syntax-ns#"
   xmlns:svg="http://www.w3.org/2000/svg"
   xmlns="http://www.w3.org/2000/svg"
   xmlns:xlink="http://www.w3.org/1999/xlink"
   xmlns:sodipodi="http://sodipodi.sourceforge.net/DTD/sodipodi-0.dtd"
   xmlns:inkscape="http://www.inkscape.org/namespaces/inkscape"
   width="48px"
   height="48px"
   id="svg2985"
   version="1.1"
   inkscape:version="0.91 r13725"
   sodipodi:docname="author.svg">
  <defs
     id="defs2987">
    <linearGradient
       id="linearGradient4419"
       inkscape:collect="always">
      <stop
         id="stop4421"
         offset="0"
         style="stop-color:#394f67;stop-opacity:1" />
      <stop
         id="stop4423"
         offset="1"
         style="stop-color:#507090;stop-opacity:1" />
    </linearGradient>
    <linearGradient
       id="linearGradient4413"
       inkscape:collect="always">
      <stop
         id="stop4415"
         offset="0"
         style="stop-color:#374c63;stop-opacity:1" />
      <stop
         id="stop4417"
         offset="1"
         style="stop-color:#6a94be;stop-opacity:1" />
    </linearGradient>
    <linearGradient
       gradientTransform="matrix(1.0309825,0,0,1,-0.512598,0)"
       gradientUnits="userSpaceOnUse"
       y2="1012.3622"
       x2="17"
       y1="1036.3622"
       x1="17"
       id="linearGradient4300-2"
       xlink:href="#linearGradient4413"
       inkscape:collect="always" />
    <linearGradient
       gradientTransform="matrix(0.68964436,0,0,1,10.82717,0)"
       gradientUnits="userSpaceOnUse"
       y2="1037.2084"
       x2="34.116894"
       y1="1013.622"
       x1="33.461716"
       id="linearGradient4308"
       xlink:href="#linearGradient4320"
       inkscape:collect="always" />
    <linearGradient
       gradientTransform="translate(-0.199659,0)"
       gradientUnits="userSpaceOnUse"
       y2="1011.3622"
       x2="28"
       y1="1037.3622"
       x1="28"
       id="linearGradient4286"
       xlink:href="#linearGradient4419"
       inkscape:collect="always" />
    <linearGradient
       id="linearGradient4320"
       inkscape:collect="always">
      <stop
         id="stop4322"
         offset="0"
         style="stop-color:#f6fbff;stop-opacity:1" />
      <stop
         id="stop4324"
         offset="1"
         style="stop-color:#eaeff2;stop-opacity:1" />
    </linearGradient>
    <linearGradient
       inkscape:collect="always"
       xlink:href="#linearGradient4320"
       id="linearGradient4431"
       x1="13.762"
       y1="165.66499"
       x2="314.96957"
       y2="165.66499"
       gradientUnits="userSpaceOnUse" />
    <linearGradient
       inkscape:collect="always"
       xlink:href="#linearGradient4320"
       id="linearGradient4449"
       gradientUnits="userSpaceOnUse"
       x1="13.762"
       y1="165.66499"
       x2="314.96957"
       y2="165.66499" />
    <linearGradient
       inkscape:collect="always"
       xlink:href="#linearGradient4320"
       id="linearGradient4451"
       gradientUnits="userSpaceOnUse"
       x1="13.762"
       y1="165.66499"
       x2="314.96957"
       y2="165.66499" />
    <linearGradient
       inkscape:collect="always"
       xlink:href="#linearGradient4320"
       id="linearGradient4453"
       gradientUnits="userSpaceOnUse"
       x1="13.762"
       y1="165.66499"
       x2="314.96957"
       y2="165.66499" />
    <linearGradient
       inkscape:collect="always"
       xlink:href="#linearGradient4320"
       id="linearGradient4455"
       gradientUnits="userSpaceOnUse"
       x1="13.762"
       y1="165.66499"
       x2="314.96957"
       y2="165.66499" />
    <linearGradient
       inkscape:collect="always"
       xlink:href="#linearGradient4320"
       id="linearGradient4457"
       gradientUnits="userSpaceOnUse"
       x1="13.762"
       y1="165.66499"
       x2="314.96957"
       y2="165.66499" />
  </defs>
  <sodipodi:namedview
     id="base"
     pagecolor="#5a5a5a"
     bordercolor="#666666"
     borderopacity="1.0"
     inkscape:pageopacity="0"
     inkscape:pageshadow="2"
     inkscape:zoom="6.5498916"
     inkscape:cx="14.124194"
     inkscape:cy="25.712124"
     inkscape:current-layer="g4389"
     showgrid="false"
     inkscape:grid-bbox="true"
     inkscape:document-units="px"
     inkscape:snap-global="true"
     inkscape:window-width="1366"
     inkscape:window-height="642"
     inkscape:window-x="0"
     inkscape:window-y="33"
     inkscape:window-maximized="0"
     inkscape:snap-bbox="true"
     inkscape:bbox-nodes="true"
     inkscape:object-nodes="true"
     inkscape:snap-nodes="true"
     inkscape:snap-others="false"
     inkscape:snap-smooth-nodes="true"
     showguides="true"
     showborder="false">
    <inkscape:grid
       type="xygrid"
       id="grid2993" />
  </sodipodi:namedview>
  <metadata
     id="metadata2990">
    <rdf:RDF>
      <cc:Work
         rdf:about="">
        <dc:format>image/svg+xml</dc:format>
        <dc:type
           rdf:resource="http://purl.org/dc/dcmitype/StillImage" />
        <dc:title></dc:title>
      </cc:Work>
    </rdf:RDF>
  </metadata>
  <g
     id="layer1"
     inkscape:label="Layer 1"
     inkscape:groupmode="layer">
    <g
       id="g4389"
       transform="translate(-39.084616,0)">
      <g
         id="g4261"
         transform="matrix(1.1526351,0,0,1.1526351,-9.2841589,-4.0550653)">
        <g
           transform="matrix(-1,0,0,1,473.37783,-499.49967)"
           id="layer1-9"
           inkscape:label="Capa 1">
          <g
             id="g4414"
             transform="matrix(-1.5263052,0,0,1.5263052,444.81962,-1040.1735)">
            <path
               style="opacity:1;fill:url(#linearGradient4300-2);fill-opacity:1;fill-rule:evenodd;stroke:none;stroke-width:1px;stroke-linecap:butt;stroke-linejoin:miter;stroke-opacity:1"
               d="m 11.563303,1036.9442 11.636697,0 -3.21e-4,-24.4983 -11.533282,3e-4 c -1.268259,-0.094 -1.782566,0.023 -1.782566,1.1721 l 0,22.0916 c -0.07966,1.261 0.446208,1.2343 1.679472,1.2343 z"
               id="path4248"
               inkscape:connector-curvature="0"
               sodipodi:nodetypes="ccccccc" />
            <path
               style="opacity:1;fill:url(#linearGradient4308);fill-opacity:1;fill-rule:evenodd;stroke:none;stroke-width:1px;stroke-linecap:butt;stroke-linejoin:miter;stroke-opacity:1"
               d="m 33.959911,1036.9362 -7.990815,0 0,-24.498 7.990815,0 c 0.848365,-0.094 0.916631,0.023 0.916631,1.1721 l 0,22.0916 c 0.05328,1.261 -0.09168,1.2343 -0.916631,1.2343 z"
               id="path4248-6"
               inkscape:connector-curvature="0"
               sodipodi:nodetypes="ccccccc" />
            <path
               style="opacity:1;fill:url(#linearGradient4286);fill-opacity:1;fill-rule:evenodd;stroke:none;stroke-width:1px;stroke-linecap:butt;stroke-linejoin:miter;stroke-opacity:1"
               d="M 31.957586,1038.1035 21.928,1036.932 l -2e-5,-24.4861 9.945926,-0.9324 c 1.230149,-0.094 1.296492,0.2446 1.296492,1.3937 l -0.08368,23.3688 c 0.07726,1.261 0.06707,1.8275 -1.129132,1.8275 z"
               id="path4248-6-0"
               inkscape:connector-curvature="0"
               sodipodi:nodetypes="ccccccc" />
          </g>
        </g>
        <path
           style="opacity:0.96499999;fill:#ffffff;fill-opacity:1;fill-rule:evenodd;stroke:none;stroke-width:1px;stroke-linecap:butt;stroke-linejoin:miter;stroke-opacity:1"
           d="m 46.964616,5.6287298 1.55e-4,8.1590642 2.689929,-2.719324 2.748994,2.719324 0,-8.1590642 z"
           id="path4313"
           inkscape:connector-curvature="0"
           sodipodi:nodetypes="cccccc" />
        <g
           id="g3"
           transform="matrix(0.05631124,-0.01239685,0.01239685,0.05631124,50.795956,17.325212)"
           inkscape:transform-center-x="7.4410288"
           inkscape:transform-center-y="1.1693385"
           style="fill:url(#linearGradient4431);fill-opacity:1">
          <path
             style="fill:url(#linearGradient4449);fill-opacity:1"
             d="m 30.421,317.462 4.422,-17.661 -12.194,-4.814 -8.376,13.804 c 0,0 4.618,12.526 -0.511,22.539 0.004,0.001 6.422,-10.931 16.659,-13.868 z m -8.192,-8.104 c 1.501,-0.615 3.231,0.087 3.851,1.561 0.625,1.474 -0.087,3.171 -1.588,3.786 -1.501,0.615 -3.231,-0.087 -3.851,-1.561 -0.631,-1.48 0.082,-3.177 1.588,-3.786 z"
             id="path5"
             inkscape:connector-curvature="0" />
          <path
             style="fill:url(#linearGradient4451);fill-opacity:1"
             d="m 158.353,112.621 c -35.115,28.8 -81.086,88.124 -120.073,157.423 l -0.022,-0.027 -6.815,12.026 7.267,2.796 3.84,-10.117 c 20.799,-37.491 77.224,-135.4 180.397,-200.451 0,0 38.411,-22.877 76.256,-54.516 -9.214,7.702 -27.391,17.356 -37.247,23.584 -25.868,16.344 -57.79,31.704 -103.603,69.282 z"
             id="path7"
             inkscape:connector-curvature="0" />
          <path
             style="fill:url(#linearGradient4453);fill-opacity:1"
             d="m 33.2,215.365 c -7.985,28.223 -7.528,49.718 -4.438,55.625 l 4.83,0 C 46.929,243.365 111.164,143.297 151.146,111.974 192.57,79.519 224.524,60.635 251.399,46.863 c 9.437,-4.835 19.118,-11.384 27.848,-17.949 10.601,-8.36 21.348,-17.302 30.758,-26.053 L 282.728,20.75 294.89,2.148 271.67,25.759 286.78,0 c -35.746,3.225 -68.918,21.109 -68.918,21.109 -13.271,15.741 -23.959,40.782 -23.959,40.782 -0.37,-12.521 8.11,-31.481 8.11,-31.481 -6.266,2.861 -30.073,16.459 -30.073,16.459 -11.645,9.66 -15.262,35.06 -15.262,35.06 -2.214,-10.019 5.526,-29.333 5.526,-29.333 -33.543,19.32 -57.502,52.231 -57.502,52.231 -16.584,32.553 -2.948,57.953 -8.11,51.872 -5.162,-6.081 -4.052,-28.261 -4.052,-28.261 -35.017,33.63 -38.699,49.724 -38.699,49.724 -5.896,14.31 -11.058,52.59 -11.058,52.59 -3.318,-3.579 0,-23.611 0,-23.611 -8.479,17.889 -4.422,34.701 -4.422,34.701 C 34.309,240.407 33.2,215.365 33.2,215.365 Z"
             id="path9"
             inkscape:connector-curvature="0" />
          <path
             style="fill:url(#linearGradient4455);fill-opacity:1"
             d="m 310.01,14.191 c 0,0 -13.483,13.065 -30.758,26.053 C 252.171,61.603 226.096,79.063 226.096,79.063 123.945,139.425 67.025,237.932 48.212,271.708 l 10.002,0 c 3.535,-2.834 8.844,-4.971 31.014,-11.389 28.011,-8.11 44.72,-25.041 44.72,-25.041 0,0 -25.553,14.31 -37.595,12.88 -12.042,-1.43 -28.223,3.1 -28.223,3.1 0,0 -6.179,-2.861 24.291,-7.392 30.47,-4.531 80.596,-38.634 80.596,-38.634 0,0 -19.167,7.87 -28.011,7.152 -8.844,-0.718 -30.714,0 -30.714,0 14.495,-3.34 28.011,-1.43 50.126,-9.779 22.115,-8.349 20.886,-7.631 20.886,-7.631 25.063,-8.349 35.474,-34.342 35.474,-34.342 -4.335,1.67 -37.443,5.722 -51.176,1.67 -13.734,-4.052 -37.132,0 -37.132,0 22.115,-7.392 27.032,-4.052 32.433,-4.291 5.406,-0.239 22.855,1.191 57.502,-10.731 34.647,-11.922 44.475,-26.711 44.475,-26.711 l -23.366,3.122 c 15.257,-2.567 32.455,-12.662 32.455,-12.662 -10.568,2.861 -27.032,4.291 -27.032,4.291 19.412,-4.291 30.225,-10.253 30.225,-10.253 18.183,-13.832 22.36,-34.342 22.36,-34.342 -25.803,8.822 -46.194,4.77 -46.194,4.77 35.387,-2.382 45.215,-11.449 50.126,-13.592 4.917,-2.148 6.94,-11.03 6.94,-11.03 -17.878,6.44 -38.15,7.511 -38.15,7.511 21.93,-3.399 40.722,-14.49 40.722,-14.49 l 0,-11.102 c -8.479,4.83 -23.399,8.588 -23.399,8.588 l 23.219,-15.023 c 1.305,-7.516 -4.776,-12.166 -4.776,-12.166 z"
             id="path11"
             inkscape:connector-curvature="0" />
          <polygon
             style="fill:url(#linearGradient4457);fill-opacity:1"
             points="26.124,284.458 23.551,290.571 37.361,296.103 39.933,289.989 "
             id="polygon13" />
        </g>
      </g>
    </g>
  </g>
</svg>
