<?xml version="1.0" encoding="UTF-8" standalone="no"?>
<!-- Created with Inkscape (http://www.inkscape.org/) -->

<svg
   xmlns:dc="http://purl.org/dc/elements/1.1/"
   xmlns:cc="http://creativecommons.org/ns#"
   xmlns:rdf="http://www.w3.org/1999/02/22-rdf-syntax-ns#"
   xmlns:svg="http://www.w3.org/2000/svg"
   xmlns="http://www.w3.org/2000/svg"
   xmlns:xlink="http://www.w3.org/1999/xlink"
   xmlns:sodipodi="http://sodipodi.sourceforge.net/DTD/sodipodi-0.dtd"
   xmlns:inkscape="http://www.inkscape.org/namespaces/inkscape"
   width="48px"
   height="48px"
   id="svg2985"
   version="1.1"
   inkscape:version="0.91 r13725"
   sodipodi:docname="flow.svg">
  <defs
     id="defs2987">
    <linearGradient
       inkscape:collect="always"
       id="linearGradient4560">
      <stop
         style="stop-color:#e5e5e6;stop-opacity:1"
         offset="0"
         id="stop4562" />
      <stop
         style="stop-color:#f6f6f7;stop-opacity:1"
         offset="1"
         id="stop4564" />
    </linearGradient>
    <linearGradient
       inkscape:collect="always"
       id="linearGradient4281">
      <stop
         style="stop-color:#fa2a4b;stop-opacity:1"
         offset="0"
         id="stop4283" />
      <stop
         style="stop-color:#ff698e;stop-opacity:1"
         offset="1"
         id="stop4285" />
    </linearGradient>
    <linearGradient
       inkscape:collect="always"
       id="linearGradient4260">
      <stop
         style="stop-color:#ff2d4f;stop-opacity:1"
         offset="0"
         id="stop4262" />
      <stop
         style="stop-color:#ff4967;stop-opacity:1"
         offset="1"
         id="stop4264" />
    </linearGradient>
    <linearGradient
       gradientTransform="matrix(1.0309825,0,0,1,-0.512598,0)"
       gradientUnits="userSpaceOnUse"
       y2="1012.3622"
       x2="17"
       y1="1036.3622"
       x1="17"
       id="linearGradient4300-2"
       xlink:href="#linearGradient4281"
       inkscape:collect="always" />
    <linearGradient
       gradientTransform="matrix(0.68964436,0,0,1,10.82717,0)"
       gradientUnits="userSpaceOnUse"
       y2="1037.2084"
       x2="34.116894"
       y1="1013.622"
       x1="33.461716"
       id="linearGradient4308"
       xlink:href="#linearGradient4320"
       inkscape:collect="always" />
    <linearGradient
       gradientTransform="translate(-0.199659,0)"
       gradientUnits="userSpaceOnUse"
       y2="1011.3622"
       x2="28"
       y1="1037.3622"
       x1="28"
       id="linearGradient4286"
       xlink:href="#linearGradient4260"
       inkscape:collect="always" />
    <linearGradient
       id="linearGradient4320"
       inkscape:collect="always">
      <stop
         id="stop4322"
         offset="0"
         style="stop-color:#f6fbff;stop-opacity:1" />
      <stop
         id="stop4324"
         offset="1"
         style="stop-color:#eaeff2;stop-opacity:1" />
    </linearGradient>
    <linearGradient
       inkscape:collect="always"
       xlink:href="#linearGradient4560"
       id="linearGradient4558"
       x1="25.177879"
       y1="58.290043"
       x2="26.183626"
       y2="-1.7141991"
       gradientUnits="userSpaceOnUse" />
    <linearGradient
       inkscape:collect="always"
       xlink:href="#linearGradient4560"
       id="linearGradient4275"
       gradientUnits="userSpaceOnUse"
       x1="25.177879"
       y1="58.290043"
       x2="26.183626"
       y2="-1.7141991" />
    <linearGradient
       inkscape:collect="always"
       xlink:href="#linearGradient4560"
       id="linearGradient4277"
       gradientUnits="userSpaceOnUse"
       x1="25.177879"
       y1="58.290043"
       x2="26.183626"
       y2="-1.7141991" />
  </defs>
  <sodipodi:namedview
     id="base"
     pagecolor="#5a5a5a"
     bordercolor="#666666"
     borderopacity="1.0"
     inkscape:pageopacity="0"
     inkscape:pageshadow="2"
     inkscape:zoom="6.5465402"
     inkscape:cx="-1.9239728"
     inkscape:cy="28.03239"
     inkscape:current-layer="layer1"
     showgrid="false"
     inkscape:grid-bbox="true"
     inkscape:document-units="px"
     inkscape:snap-global="true"
     inkscape:window-width="1366"
     inkscape:window-height="642"
     inkscape:window-x="0"
     inkscape:window-y="33"
     inkscape:window-maximized="0"
     inkscape:snap-bbox="true"
     inkscape:bbox-nodes="true"
     inkscape:object-nodes="true"
     inkscape:snap-nodes="true"
     inkscape:snap-others="true"
     inkscape:snap-center="true"
     inkscape:showpageshadow="false"
     showborder="false">
    <inkscape:grid
       type="xygrid"
       id="grid2993" />
  </sodipodi:namedview>
  <metadata
     id="metadata2990">
    <rdf:RDF>
      <cc:Work
         rdf:about="">
        <dc:format>image/svg+xml</dc:format>
        <dc:type
           rdf:resource="http://purl.org/dc/dcmitype/StillImage" />
        <dc:title></dc:title>
      </cc:Work>
    </rdf:RDF>
  </metadata>
  <g
     id="layer1"
     inkscape:label="Layer 1"
     inkscape:groupmode="layer">
    <g
       id="g4257"
       transform="matrix(1.1526351,0,0,1.1526351,-3.7402432,-3.841136)">
      <g
         transform="translate(-0.60861714,0.309)"
         id="layer1-2"
         inkscape:label="Layer 1">
        <g
           inkscape:label="Layer 1"
           id="layer1-88"
           transform="translate(-48.140973,-1.4123161)">
          <g
             inkscape:label="Capa 1"
             id="layer1-5"
             transform="translate(-384.14389,-499.44752)">
            <g
               id="g4231"
               transform="matrix(1.5263052,0,0,1.5263052,376.31698,-1040.1258)">
              <g
                 transform="translate(61.491819,-0.00433837)"
                 id="g4495">
                <g
                   inkscape:label="Layer 1"
                   id="layer1-8"
                   transform="matrix(0.65517696,0,0,0.65517696,-24.348086,1009.4167)">
                  <g
                     transform="translate(0.24974411,-0.18030063)"
                     id="layer1-4"
                     inkscape:label="Layer 1">
                    <g
                       id="g4389"
                       transform="translate(-39.084616,0)">
                      <g
                         inkscape:label="Capa 1"
                         id="layer1-9"
                         transform="matrix(-1,0,0,1,473.37783,-499.49967)">
                        <g
                           transform="matrix(-1.5263052,0,0,1.5263052,444.81962,-1040.1735)"
                           id="g4414">
                          <path
                             sodipodi:nodetypes="ccccccc"
                             inkscape:connector-curvature="0"
                             id="path4248"
                             d="m 11.563303,1036.9442 11.636697,0 -3.21e-4,-24.4983 -11.533282,3e-4 c -1.268259,-0.094 -1.782566,0.023 -1.782566,1.1721 l 0,22.0916 c -0.07966,1.261 0.446208,1.2343 1.679472,1.2343 z"
                             style="opacity:1;fill:url(#linearGradient4300-2);fill-opacity:1;fill-rule:evenodd;stroke:none;stroke-width:1px;stroke-linecap:butt;stroke-linejoin:miter;stroke-opacity:1" />
                          <path
                             sodipodi:nodetypes="ccccccc"
                             inkscape:connector-curvature="0"
                             id="path4248-6"
                             d="m 33.959911,1036.9362 -7.990815,0 0,-24.498 7.990815,0 c 0.848365,-0.094 0.916631,0.023 0.916631,1.1721 l 0,22.0916 c 0.05328,1.261 -0.09168,1.2343 -0.916631,1.2343 z"
                             style="opacity:1;fill:url(#linearGradient4308);fill-opacity:1;fill-rule:evenodd;stroke:none;stroke-width:1px;stroke-linecap:butt;stroke-linejoin:miter;stroke-opacity:1" />
                          <path
                             sodipodi:nodetypes="ccccccc"
                             inkscape:connector-curvature="0"
                             id="path4248-6-0"
                             d="M 31.957586,1038.1035 21.928,1036.932 l -2e-5,-24.4861 9.945926,-0.9324 c 1.230149,-0.094 1.296492,0.2446 1.296492,1.3937 l -0.08368,23.3688 c 0.07726,1.261 0.06707,1.8275 -1.129132,1.8275 z"
                             style="opacity:1;fill:url(#linearGradient4286);fill-opacity:1;fill-rule:evenodd;stroke:none;stroke-width:1px;stroke-linecap:butt;stroke-linejoin:miter;stroke-opacity:1" />
                        </g>
                      </g>
                    </g>
                  </g>
                </g>
              </g>
            </g>
          </g>
        </g>
      </g>
      <g
         style="fill:url(#linearGradient4558);fill-opacity:1"
         transform="matrix(0.52100445,0,0,0.52100445,10.190544,12.446562)"
         id="g3">
        <g
           style="fill:url(#linearGradient4277);fill-opacity:1"
           id="Layer_1_157_">
          <path
             style="fill:url(#linearGradient4275);fill-opacity:1"
             sodipodi:nodetypes="sssssccccccssccsccccsccsccccssscccccscccsccccccssccs"
             id="path6"
             d="M 47,14.955 47,2.136 C 47,0.956 46.043,0 44.863,0 L 32.046,0 c -1.181,0 -2.137,0.957 -2.137,2.136 l 0,5.341 C 19.473,7.477 10.705,14.65 8.211,24.318 L 5.99,23.927 c -0.399,-0.069 -0.803,0.091 -1.044,0.416 -0.24,0.325 -0.278,0.759 -0.095,1.12 l 2.314,4.569 C 3.109,30.693 0,34.213 0,38.455 0,43.167 3.834,47 8.546,47 c 4.35,0 7.942,-3.27 8.471,-7.477 l 7.551,0 0,2.136 c 0,0.405 0.229,0.774 0.591,0.956 0.362,0.18 0.795,0.142 1.12,-0.102 l 3.734,-2.802 c 0.61,4.116 4.158,7.288 8.44,7.288 C 43.166,47 47,43.167 47,38.455 c 0,-4.35 -3.27,-7.943 -7.479,-8.471 l 0,-7.552 2.138,0 c 0.403,0 0.774,-0.229 0.954,-0.59 0.182,-0.361 0.144,-0.795 -0.1,-1.119 l -2.725,-3.631 5.072,0 C 46.043,17.091 47,16.134 47,14.955 Z m -12.705,6.886 c 0.182,0.362 0.551,0.59 0.955,0.59 l 2.137,0 0,7.551 c -3.794,0.478 -6.814,3.447 -7.373,7.215 l -3.736,-2.803 c -0.323,-0.242 -0.756,-0.28 -1.118,-0.101 -0.361,0.183 -0.591,0.551 -0.591,0.956 l 0,2.136 -7.551,0 C 16.534,33.523 13.465,30.458 9.6,29.98 9.603,29.956 9.615,29.935 9.615,29.909 l 0,-0.011 3.233,-3.027 c 0.295,-0.276 0.408,-0.696 0.294,-1.084 -0.117,-0.389 -0.44,-0.678 -0.839,-0.748 L 10.32,24.689 C 12.632,16.024 20.526,9.613 29.91,9.613 l 0,5.341 c 0,1.18 0.956,2.136 2.137,2.136 l 5.073,0 -2.724,3.632 c -0.244,0.324 -0.283,0.757 -0.101,1.119 z"
             inkscape:connector-curvature="0" />
        </g>
      </g>
    </g>
  </g>
</svg>
