<?xml version="1.0" encoding="UTF-8" standalone="no"?>
<!-- Created with Inkscape (http://www.inkscape.org/) -->

<svg
   xmlns:osb="http://www.openswatchbook.org/uri/2009/osb"
   xmlns:dc="http://purl.org/dc/elements/1.1/"
   xmlns:cc="http://creativecommons.org/ns#"
   xmlns:rdf="http://www.w3.org/1999/02/22-rdf-syntax-ns#"
   xmlns:svg="http://www.w3.org/2000/svg"
   xmlns="http://www.w3.org/2000/svg"
   xmlns:xlink="http://www.w3.org/1999/xlink"
   xmlns:sodipodi="http://sodipodi.sourceforge.net/DTD/sodipodi-0.dtd"
   xmlns:inkscape="http://www.inkscape.org/namespaces/inkscape"
   width="48"
   height="48"
   id="svg5453"
   version="1.1"
   inkscape:version="0.91 r13725"
   sodipodi:docname="camera-web.svg">
  <defs
     id="defs5455">
    <linearGradient
       id="linearGradient4332"
       inkscape:collect="always">
      <stop
         id="stop4334"
         offset="0"
         style="stop-color:#222c35;stop-opacity:1" />
      <stop
         id="stop4336"
         offset="1"
         style="stop-color:#555f68;stop-opacity:1" />
    </linearGradient>
    <linearGradient
       gradientTransform="matrix(3.0666675,0,0,3.0666675,-798.9146,-1115.583)"
       inkscape:collect="always"
       xlink:href="#linearGradient4303-1"
       id="linearGradient4174"
       x1="409.57144"
       y1="543.79797"
       x2="409.57144"
       y2="503.798"
       gradientUnits="userSpaceOnUse" />
    <linearGradient
       id="linearGradient5002"
       inkscape:collect="always">
      <stop
         id="stop5004"
         offset="0"
         style="stop-color:#2e5d89;stop-opacity:1" />
      <stop
         id="stop5006"
         offset="1"
         style="stop-color:#1b92f4;stop-opacity:1" />
    </linearGradient>
    <linearGradient
       gradientTransform="matrix(1.1818182,0,0,1.1818182,-74.285714,-95.732083)"
       inkscape:collect="always"
       xlink:href="#linearGradient5002"
       id="linearGradient4352"
       gradientUnits="userSpaceOnUse"
       x1="400.57144"
       y1="512.79797"
       x2="415.57144"
       y2="527.79797" />
    <linearGradient
       inkscape:collect="always"
       id="linearGradient4191">
      <stop
         style="stop-color:#18222a;stop-opacity:1"
         offset="0"
         id="stop4193" />
      <stop
         style="stop-color:#566069;stop-opacity:1"
         offset="1"
         id="stop4195" />
    </linearGradient>
    <linearGradient
       gradientTransform="translate(78.999997,3.6562389)"
       inkscape:collect="always"
       xlink:href="#linearGradient5002"
       id="linearGradient4352-6"
       gradientUnits="userSpaceOnUse"
       x1="400.57144"
       y1="512.79797"
       x2="415.57144"
       y2="527.79797" />
    <linearGradient
       y2="527.79797"
       x2="415.57144"
       y1="512.79797"
       x1="400.57144"
       gradientUnits="userSpaceOnUse"
       id="linearGradient4352-5"
       xlink:href="#linearGradient5002"
       inkscape:collect="always"
       gradientTransform="matrix(1.1818182,0,0,1.1818182,6.714285,-89.23598)" />
    <linearGradient
       y2="527.79797"
       x2="415.57144"
       y1="512.79797"
       x1="400.57144"
       gradientUnits="userSpaceOnUse"
       id="linearGradient4352-9"
       xlink:href="#linearGradient5002"
       inkscape:collect="always"
       gradientTransform="matrix(1.1818182,0,0,1.1818182,3.714275,-96.23596)" />
    <linearGradient
       inkscape:collect="always"
       id="linearGradient4303-1">
      <stop
         style="stop-color:#bfc1c1;stop-opacity:1"
         offset="0"
         id="stop4305-2" />
      <stop
         style="stop-color:#f1f2f3;stop-opacity:1"
         offset="1"
         id="stop4307-2" />
    </linearGradient>
    <linearGradient
       gradientTransform="translate(6.6997715,4.027329)"
       inkscape:collect="always"
       xlink:href="#linearGradient5322"
       id="linearGradient4327-2-6"
       x1="407.37982"
       y1="529.56152"
       x2="407.50513"
       y2="509.97705"
       gradientUnits="userSpaceOnUse" />
    <linearGradient
       inkscape:collect="always"
       xlink:href="#linearGradient8311-1"
       id="linearGradient4510-5-5"
       x1="408.52423"
       y1="506.48495"
       x2="409.26617"
       y2="533.19501"
       gradientUnits="userSpaceOnUse"
       gradientTransform="matrix(-1,0,0,-1,823.84266,1043.6233)" />
    <linearGradient
       inkscape:collect="always"
       xlink:href="#linearGradient4191"
       id="linearGradient4510-8-2-3"
       x1="398.30478"
       y1="509.53143"
       x2="419.77139"
       y2="530.99805"
       gradientUnits="userSpaceOnUse"
       gradientTransform="matrix(0.78571495,0,0,0.78571495,94.250535,115.4122)" />
    <linearGradient
       y2="527.79797"
       x2="415.57144"
       y1="512.79797"
       x1="400.57144"
       gradientUnits="userSpaceOnUse"
       id="linearGradient4352-2"
       xlink:href="#linearGradient5002"
       inkscape:collect="always" />
    <linearGradient
       osb:paint="gradient"
       id="linearGradient4207">
      <stop
         id="stop3371"
         offset="0"
         style="stop-color:#3498db;stop-opacity:1;" />
      <stop
         id="stop3373"
         offset="1"
         style="stop-color:#3498db;stop-opacity:0;" />
    </linearGradient>
    <linearGradient
       id="linearGradient5322">
      <stop
         offset="0"
         style="stop-color:#0088ff;stop-opacity:1"
         id="stop5324" />
      <stop
         offset="1"
         style="stop-color:#02c3ff;stop-opacity:1"
         id="stop5326" />
    </linearGradient>
    <linearGradient
       inkscape:collect="always"
       xlink:href="#linearGradient5002"
       id="linearGradient4276"
       gradientUnits="userSpaceOnUse"
       gradientTransform="matrix(1.1818182,0,0,1.1818182,-74.285714,-95.732083)"
       x1="400.57144"
       y1="512.79797"
       x2="415.57144"
       y2="527.79797" />
    <linearGradient
       inkscape:collect="always"
       xlink:href="#linearGradient5002"
       id="linearGradient4278"
       gradientUnits="userSpaceOnUse"
       gradientTransform="translate(78.999997,3.6562389)"
       x1="400.57144"
       y1="512.79797"
       x2="415.57144"
       y2="527.79797" />
    <linearGradient
       inkscape:collect="always"
       xlink:href="#linearGradient5002"
       id="linearGradient4280"
       gradientUnits="userSpaceOnUse"
       gradientTransform="matrix(1.1818182,0,0,1.1818182,6.714285,-89.23598)"
       x1="400.57144"
       y1="512.79797"
       x2="415.57144"
       y2="527.79797" />
    <linearGradient
       inkscape:collect="always"
       xlink:href="#linearGradient5002"
       id="linearGradient4282"
       gradientUnits="userSpaceOnUse"
       gradientTransform="matrix(1.1818182,0,0,1.1818182,3.714275,-96.23596)"
       x1="400.57144"
       y1="512.79797"
       x2="415.57144"
       y2="527.79797" />
    <linearGradient
       inkscape:collect="always"
       xlink:href="#linearGradient4191"
       id="linearGradient4290"
       x1="384.61444"
       y1="523.89801"
       x2="406.76828"
       y2="498.25186"
       gradientUnits="userSpaceOnUse" />
    <linearGradient
       inkscape:collect="always"
       xlink:href="#linearGradient4332"
       id="linearGradient4330"
       x1="595.57654"
       y1="557.29376"
       x2="594.14966"
       y2="433.7688"
       gradientUnits="userSpaceOnUse"
       gradientTransform="translate(-142.2969,-3.8596843)" />
    <linearGradient
       id="linearGradient5263">
      <stop
         offset="0"
         style="stop-color:#a0d5ff;stop-opacity:1"
         id="stop5265" />
      <stop
         offset="1"
         style="stop-color:#a0d5ff;stop-opacity:1"
         id="stop5267" />
    </linearGradient>
    <linearGradient
       id="linearGradient5146"
       inkscape:collect="always">
      <stop
         id="stop5148"
         offset="0"
         style="stop-color:#d5dbff;stop-opacity:1" />
      <stop
         id="stop5150"
         offset="1"
         style="stop-color:#ebedff;stop-opacity:1" />
    </linearGradient>
    <linearGradient
       gradientUnits="userSpaceOnUse"
       y2="174.93361"
       x2="767.85718"
       y1="200.93361"
       x1="767.85718"
       id="linearGradient5152"
       xlink:href="#linearGradient5146"
       inkscape:collect="always" />
    <clipPath
       id="clipPath4458">
      <path
         inkscape:connector-curvature="0"
         id="use4460"
         d="m 69.626,12.145 -0.052,0 c -22.727,-0.292 -46.472,4.077 -46.709,4.122 -2.424,0.451 -4.946,2.974 -5.397,5.397 -0.044,0.237 -4.414,23.983 -4.122,46.71 -0.292,22.777 4.078,46.523 4.122,46.761 0.451,2.423 2.974,4.945 5.398,5.398 0.237,0.044 23.982,4.413 46.709,4.121 22.779,0.292 46.524,-4.077 46.761,-4.121 2.423,-0.452 4.946,-2.976 5.398,-5.399 0.044,-0.236 4.413,-23.981 4.121,-46.709 0.292,-22.777 -4.077,-46.523 -4.121,-46.761 -0.453,-2.423 -2.976,-4.946 -5.398,-5.397 -0.238,-0.045 -23.984,-4.414 -46.71,-4.122 z" />
    </clipPath>
    <linearGradient
       id="linearGradient4237">
      <stop
         id="stop4239"
         style="stop-color:#ff594d;stop-opacity:1"
         offset="0" />
      <stop
         id="stop4241"
         style="stop-color:#ff7f76;stop-opacity:1"
         offset="1" />
    </linearGradient>
    <linearGradient
       id="linearGradient4210">
      <stop
         offset="0"
         style="stop-color:#ff584c;stop-opacity:1"
         id="stop4212" />
      <stop
         offset="1"
         style="stop-color:#ff8077;stop-opacity:1"
         id="stop4214" />
    </linearGradient>
    <linearGradient
       id="linearGradient4179">
      <stop
         id="stop4181"
         style="stop-color:#ffee5e;stop-opacity:1"
         offset="0" />
      <stop
         id="stop4183"
         style="stop-color:#feff8b;stop-opacity:1"
         offset="1" />
    </linearGradient>
    <linearGradient
       id="linearGradient4210-3">
      <stop
         id="stop4212-1"
         style="stop-color:#ffce69;stop-opacity:1"
         offset="0" />
      <stop
         id="stop4214-6"
         style="stop-color:#ffce54;stop-opacity:1"
         offset="1" />
    </linearGradient>
    <linearGradient
       id="linearGradient4237-0">
      <stop
         offset="0"
         style="stop-color:#ffee5e;stop-opacity:1"
         id="stop4239-8" />
      <stop
         offset="1"
         style="stop-color:#feff9f;stop-opacity:1"
         id="stop4241-9" />
    </linearGradient>
    <linearGradient
       id="linearGradient4237-2">
      <stop
         offset="0"
         style="stop-color:#ffa0a6;stop-opacity:1"
         id="stop4239-7" />
      <stop
         offset="1"
         style="stop-color:#ffa0a5;stop-opacity:1"
         id="stop4241-2" />
    </linearGradient>
    <linearGradient
       id="linearGradient8311">
      <stop
         id="stop8313"
         style="stop-color:#ce89ff;stop-opacity:1"
         offset="0" />
      <stop
         id="stop8315"
         style="stop-color:#e898ff;stop-opacity:1"
         offset="1" />
    </linearGradient>
    <linearGradient
       id="linearGradient4237-8">
      <stop
         offset="0"
         style="stop-color:#cf8aff;stop-opacity:1"
         id="stop4239-2" />
      <stop
         offset="1"
         style="stop-color:#eaa0ff;stop-opacity:1"
         id="stop4241-3" />
    </linearGradient>
    <linearGradient
       id="linearGradient8311-3">
      <stop
         id="stop8313-0"
         style="stop-color:#ffcc6b;stop-opacity:1"
         offset="0" />
      <stop
         id="stop8315-1"
         style="stop-color:#ffcf98;stop-opacity:1"
         offset="1" />
    </linearGradient>
    <linearGradient
       id="linearGradient4237-3">
      <stop
         offset="0"
         style="stop-color:#ffcc6e;stop-opacity:1"
         id="stop4239-0" />
      <stop
         offset="1"
         style="stop-color:#ffe4a0;stop-opacity:1"
         id="stop4241-7" />
    </linearGradient>
    <linearGradient
       id="linearGradient8311-31">
      <stop
         id="stop8313-2"
         style="stop-color:#f089ff;stop-opacity:1"
         offset="0" />
      <stop
         id="stop8315-6"
         style="stop-color:#ffadea;stop-opacity:1"
         offset="1" />
    </linearGradient>
    <linearGradient
       id="linearGradient4237-6">
      <stop
         offset="0"
         style="stop-color:#f18bfe;stop-opacity:1"
         id="stop4239-22" />
      <stop
         offset="1"
         style="stop-color:#fcc3ff;stop-opacity:1"
         id="stop4241-0" />
    </linearGradient>
    <linearGradient
       id="linearGradient8467">
      <stop
         offset="0"
         style="stop-color:#b9b9b9;stop-opacity:1"
         id="stop8469" />
      <stop
         offset="1"
         style="stop-color:#d1d1d1;stop-opacity:1"
         id="stop8471" />
    </linearGradient>
    <linearGradient
       id="linearGradient8311-5">
      <stop
         id="stop8313-7"
         style="stop-color:#b9b9b9;stop-opacity:1"
         offset="0" />
      <stop
         id="stop8315-3"
         style="stop-color:#d2d2d2;stop-opacity:1"
         offset="1" />
    </linearGradient>
    <linearGradient
       id="linearGradient4237-4">
      <stop
         offset="0"
         style="stop-color:#bababa;stop-opacity:1"
         id="stop4239-9" />
      <stop
         offset="1"
         style="stop-color:#c8c8c8;stop-opacity:1"
         id="stop4241-37" />
    </linearGradient>
    <linearGradient
       id="linearGradient8467-7">
      <stop
         offset="0"
         style="stop-color:#3ec896;stop-opacity:1"
         id="stop8469-4" />
      <stop
         offset="1"
         style="stop-color:#66d9af;stop-opacity:1"
         id="stop8471-7" />
    </linearGradient>
    <linearGradient
       id="linearGradient8311-1">
      <stop
         id="stop8313-9"
         style="stop-color:#222c35;stop-opacity:1"
         offset="0" />
      <stop
         id="stop8315-5"
         style="stop-color:#545e67;stop-opacity:1"
         offset="1" />
    </linearGradient>
    <linearGradient
       gradientUnits="userSpaceOnUse"
       gradientTransform="scale(1.1288018,0.8858951)"
       x1="209.95714"
       y1="0"
       x2="209.95714"
       y2="116.69431"
       id="linearGradient-1">
      <stop
         stop-color="#A7A7A7"
         offset="0%"
         id="stop4884" />
      <stop
         stop-color="#8D8D8D"
         offset="100%"
         id="stop4886" />
    </linearGradient>
    <linearGradient
       gradientUnits="userSpaceOnUse"
       gradientTransform="scale(1.2279807,0.81434507)"
       x1="192.9998"
       y1="411.58423"
       x2="192.9998"
       y2="105.40025"
       id="linearGradient-2">
      <stop
         stop-color="#707070"
         offset="0%"
         id="stop4889" />
      <stop
         stop-color="#ABABAB"
         offset="100%"
         id="stop4891" />
    </linearGradient>
    <linearGradient
       gradientUnits="userSpaceOnUse"
       gradientTransform="scale(1.2279807,0.81434507)"
       x1="192.99979"
       y1="70.608887"
       x2="192.99979"
       y2="457.42279"
       id="linearGradient-3">
      <stop
         stop-color="#000000"
         stop-opacity="0"
         offset="0%"
         id="stop4894" />
      <stop
         stop-color="#000000"
         stop-opacity="0.19"
         offset="100%"
         id="stop4896" />
    </linearGradient>
    <linearGradient
       id="linearGradient4232">
      <stop
         id="stop4234"
         offset="0"
         style="stop-color:#333333;stop-opacity:1" />
      <stop
         id="stop4236-6"
         offset="1"
         style="stop-color:#353535;stop-opacity:1" />
    </linearGradient>
    <linearGradient
       id="linearGradient4172">
      <stop
         style="stop-color:#3dc796;stop-opacity:1"
         offset="0"
         id="stop4174" />
      <stop
         style="stop-color:#57d68d;stop-opacity:1"
         offset="1"
         id="stop4176" />
    </linearGradient>
    <linearGradient
       id="linearGradient4233">
      <stop
         id="stop4235"
         offset="0"
         style="stop-color:#212121;stop-opacity:1" />
      <stop
         id="stop4237"
         offset="1"
         style="stop-color:#1d2022;stop-opacity:0" />
    </linearGradient>
    <linearGradient
       id="linearGradient8467-6">
      <stop
         offset="0"
         style="stop-color:#56d8d1;stop-opacity:1"
         id="stop8469-5" />
      <stop
         offset="1"
         style="stop-color:#9df7ee;stop-opacity:1"
         id="stop8471-8" />
    </linearGradient>
    <linearGradient
       id="linearGradient8311-10">
      <stop
         id="stop8313-3"
         style="stop-color:#55d8d1;stop-opacity:1"
         offset="0" />
      <stop
         id="stop8315-8"
         style="stop-color:#66efe7;stop-opacity:1"
         offset="1" />
    </linearGradient>
    <linearGradient
       id="linearGradient8467-8">
      <stop
         offset="0"
         style="stop-color:#dea679;stop-opacity:1"
         id="stop8469-9" />
      <stop
         offset="1"
         style="stop-color:#f7d19d;stop-opacity:1"
         id="stop8471-2" />
    </linearGradient>
    <linearGradient
       id="linearGradient8311-0">
      <stop
         id="stop8313-90"
         style="stop-color:#dda579;stop-opacity:1"
         offset="0" />
      <stop
         id="stop8315-88"
         style="stop-color:#f3bc87;stop-opacity:1"
         offset="1" />
    </linearGradient>
    <linearGradient
       id="linearGradient8467-2">
      <stop
         offset="0"
         style="stop-color:#5fa4d5;stop-opacity:1"
         id="stop8469-6" />
      <stop
         offset="1"
         style="stop-color:#9dc9f7;stop-opacity:1"
         id="stop8471-5" />
    </linearGradient>
    <linearGradient
       id="linearGradient8311-06">
      <stop
         id="stop8313-6"
         style="stop-color:#5fa3d4;stop-opacity:1"
         offset="0" />
      <stop
         id="stop8315-2"
         style="stop-color:#6bb9ff;stop-opacity:1"
         offset="1" />
    </linearGradient>
    <clipPath
       id="clipPath4458-7">
      <path
         d="m 69.626,12.145 -0.052,0 c -22.727,-0.292 -46.472,4.077 -46.709,4.122 -2.424,0.451 -4.946,2.974 -5.397,5.397 -0.044,0.237 -4.414,23.983 -4.122,46.71 -0.292,22.777 4.078,46.523 4.122,46.761 0.451,2.423 2.974,4.945 5.398,5.398 0.237,0.044 23.982,4.413 46.709,4.121 22.779,0.292 46.524,-4.077 46.761,-4.121 2.423,-0.452 4.946,-2.976 5.398,-5.399 0.044,-0.236 4.413,-23.981 4.121,-46.709 0.292,-22.777 -4.077,-46.523 -4.121,-46.761 -0.453,-2.423 -2.976,-4.946 -5.398,-5.397 -0.238,-0.045 -23.984,-4.414 -46.71,-4.122 z"
         id="use4460-2"
         inkscape:connector-curvature="0" />
    </clipPath>
    <clipPath
       id="clipPath4458-9">
      <path
         inkscape:connector-curvature="0"
         id="use4460-27"
         d="m 69.626,12.145 -0.052,0 c -22.727,-0.292 -46.472,4.077 -46.709,4.122 -2.424,0.451 -4.946,2.974 -5.397,5.397 -0.044,0.237 -4.414,23.983 -4.122,46.71 -0.292,22.777 4.078,46.523 4.122,46.761 0.451,2.423 2.974,4.945 5.398,5.398 0.237,0.044 23.982,4.413 46.709,4.121 22.779,0.292 46.524,-4.077 46.761,-4.121 2.423,-0.452 4.946,-2.976 5.398,-5.399 0.044,-0.236 4.413,-23.981 4.121,-46.709 0.292,-22.777 -4.077,-46.523 -4.121,-46.761 -0.453,-2.423 -2.976,-4.946 -5.398,-5.397 -0.238,-0.045 -23.984,-4.414 -46.71,-4.122 z" />
    </clipPath>
    <clipPath
       id="clipPath4458-5">
      <path
         inkscape:connector-curvature="0"
         id="use4460-5"
         d="m 69.626,12.145 -0.052,0 c -22.727,-0.292 -46.472,4.077 -46.709,4.122 -2.424,0.451 -4.946,2.974 -5.397,5.397 -0.044,0.237 -4.414,23.983 -4.122,46.71 -0.292,22.777 4.078,46.523 4.122,46.761 0.451,2.423 2.974,4.945 5.398,5.398 0.237,0.044 23.982,4.413 46.709,4.121 22.779,0.292 46.524,-4.077 46.761,-4.121 2.423,-0.452 4.946,-2.976 5.398,-5.399 0.044,-0.236 4.413,-23.981 4.121,-46.709 0.292,-22.777 -4.077,-46.523 -4.121,-46.761 -0.453,-2.423 -2.976,-4.946 -5.398,-5.397 -0.238,-0.045 -23.984,-4.414 -46.71,-4.122 z" />
    </clipPath>
    <clipPath
       id="clipPath4458-2">
      <path
         d="m 69.626,12.145 -0.052,0 c -22.727,-0.292 -46.472,4.077 -46.709,4.122 -2.424,0.451 -4.946,2.974 -5.397,5.397 -0.044,0.237 -4.414,23.983 -4.122,46.71 -0.292,22.777 4.078,46.523 4.122,46.761 0.451,2.423 2.974,4.945 5.398,5.398 0.237,0.044 23.982,4.413 46.709,4.121 22.779,0.292 46.524,-4.077 46.761,-4.121 2.423,-0.452 4.946,-2.976 5.398,-5.399 0.044,-0.236 4.413,-23.981 4.121,-46.709 0.292,-22.777 -4.077,-46.523 -4.121,-46.761 -0.453,-2.423 -2.976,-4.946 -5.398,-5.397 -0.238,-0.045 -23.984,-4.414 -46.71,-4.122 z"
         id="use4460-4"
         inkscape:connector-curvature="0" />
    </clipPath>
    <clipPath
       id="clipPath4458-7-6">
      <path
         inkscape:connector-curvature="0"
         id="use4460-2-9"
         d="m 69.626,12.145 -0.052,0 c -22.727,-0.292 -46.472,4.077 -46.709,4.122 -2.424,0.451 -4.946,2.974 -5.397,5.397 -0.044,0.237 -4.414,23.983 -4.122,46.71 -0.292,22.777 4.078,46.523 4.122,46.761 0.451,2.423 2.974,4.945 5.398,5.398 0.237,0.044 23.982,4.413 46.709,4.121 22.779,0.292 46.524,-4.077 46.761,-4.121 2.423,-0.452 4.946,-2.976 5.398,-5.399 0.044,-0.236 4.413,-23.981 4.121,-46.709 0.292,-22.777 -4.077,-46.523 -4.121,-46.761 -0.453,-2.423 -2.976,-4.946 -5.398,-5.397 -0.238,-0.045 -23.984,-4.414 -46.71,-4.122 z" />
    </clipPath>
    <clipPath
       id="clipPath4458-9-1">
      <path
         d="m 69.626,12.145 -0.052,0 c -22.727,-0.292 -46.472,4.077 -46.709,4.122 -2.424,0.451 -4.946,2.974 -5.397,5.397 -0.044,0.237 -4.414,23.983 -4.122,46.71 -0.292,22.777 4.078,46.523 4.122,46.761 0.451,2.423 2.974,4.945 5.398,5.398 0.237,0.044 23.982,4.413 46.709,4.121 22.779,0.292 46.524,-4.077 46.761,-4.121 2.423,-0.452 4.946,-2.976 5.398,-5.399 0.044,-0.236 4.413,-23.981 4.121,-46.709 0.292,-22.777 -4.077,-46.523 -4.121,-46.761 -0.453,-2.423 -2.976,-4.946 -5.398,-5.397 -0.238,-0.045 -23.984,-4.414 -46.71,-4.122 z"
         id="use4460-27-5"
         inkscape:connector-curvature="0" />
    </clipPath>
    <clipPath
       id="clipPath4458-0">
      <path
         inkscape:connector-curvature="0"
         id="use4460-56"
         d="m 69.626,12.145 -0.052,0 c -22.727,-0.292 -46.472,4.077 -46.709,4.122 -2.424,0.451 -4.946,2.974 -5.397,5.397 -0.044,0.237 -4.414,23.983 -4.122,46.71 -0.292,22.777 4.078,46.523 4.122,46.761 0.451,2.423 2.974,4.945 5.398,5.398 0.237,0.044 23.982,4.413 46.709,4.121 22.779,0.292 46.524,-4.077 46.761,-4.121 2.423,-0.452 4.946,-2.976 5.398,-5.399 0.044,-0.236 4.413,-23.981 4.121,-46.709 0.292,-22.777 -4.077,-46.523 -4.121,-46.761 -0.453,-2.423 -2.976,-4.946 -5.398,-5.397 -0.238,-0.045 -23.984,-4.414 -46.71,-4.122 z" />
    </clipPath>
    <clipPath
       id="clipPath4458-7-3">
      <path
         d="m 69.626,12.145 -0.052,0 c -22.727,-0.292 -46.472,4.077 -46.709,4.122 -2.424,0.451 -4.946,2.974 -5.397,5.397 -0.044,0.237 -4.414,23.983 -4.122,46.71 -0.292,22.777 4.078,46.523 4.122,46.761 0.451,2.423 2.974,4.945 5.398,5.398 0.237,0.044 23.982,4.413 46.709,4.121 22.779,0.292 46.524,-4.077 46.761,-4.121 2.423,-0.452 4.946,-2.976 5.398,-5.399 0.044,-0.236 4.413,-23.981 4.121,-46.709 0.292,-22.777 -4.077,-46.523 -4.121,-46.761 -0.453,-2.423 -2.976,-4.946 -5.398,-5.397 -0.238,-0.045 -23.984,-4.414 -46.71,-4.122 z"
         id="use4460-2-4"
         inkscape:connector-curvature="0" />
    </clipPath>
    <clipPath
       id="clipPath4458-9-5">
      <path
         inkscape:connector-curvature="0"
         id="use4460-27-3"
         d="m 69.626,12.145 -0.052,0 c -22.727,-0.292 -46.472,4.077 -46.709,4.122 -2.424,0.451 -4.946,2.974 -5.397,5.397 -0.044,0.237 -4.414,23.983 -4.122,46.71 -0.292,22.777 4.078,46.523 4.122,46.761 0.451,2.423 2.974,4.945 5.398,5.398 0.237,0.044 23.982,4.413 46.709,4.121 22.779,0.292 46.524,-4.077 46.761,-4.121 2.423,-0.452 4.946,-2.976 5.398,-5.399 0.044,-0.236 4.413,-23.981 4.121,-46.709 0.292,-22.777 -4.077,-46.523 -4.121,-46.761 -0.453,-2.423 -2.976,-4.946 -5.398,-5.397 -0.238,-0.045 -23.984,-4.414 -46.71,-4.122 z" />
    </clipPath>
    <clipPath
       id="clipPath4458-5-5">
      <path
         inkscape:connector-curvature="0"
         id="use4460-5-3"
         d="m 69.626,12.145 -0.052,0 c -22.727,-0.292 -46.472,4.077 -46.709,4.122 -2.424,0.451 -4.946,2.974 -5.397,5.397 -0.044,0.237 -4.414,23.983 -4.122,46.71 -0.292,22.777 4.078,46.523 4.122,46.761 0.451,2.423 2.974,4.945 5.398,5.398 0.237,0.044 23.982,4.413 46.709,4.121 22.779,0.292 46.524,-4.077 46.761,-4.121 2.423,-0.452 4.946,-2.976 5.398,-5.399 0.044,-0.236 4.413,-23.981 4.121,-46.709 0.292,-22.777 -4.077,-46.523 -4.121,-46.761 -0.453,-2.423 -2.976,-4.946 -5.398,-5.397 -0.238,-0.045 -23.984,-4.414 -46.71,-4.122 z" />
    </clipPath>
    <linearGradient
       inkscape:collect="always"
       xlink:href="#linearGradient4191"
       id="linearGradient5106"
       gradientUnits="userSpaceOnUse"
       x1="384.61444"
       y1="523.89801"
       x2="406.76828"
       y2="498.25186" />
  </defs>
  <sodipodi:namedview
     id="base"
     pagecolor="#ffffff"
     bordercolor="#666666"
     borderopacity="1.0"
     inkscape:pageopacity="0"
     inkscape:pageshadow="2"
     inkscape:zoom="5.734375"
     inkscape:cx="-10.872245"
     inkscape:cy="21.206532"
     inkscape:document-units="px"
     inkscape:current-layer="g5076"
     showgrid="false"
     fit-margin-top="0"
     fit-margin-left="0"
     fit-margin-right="0"
     fit-margin-bottom="0"
     inkscape:window-width="1366"
     inkscape:window-height="630"
     inkscape:window-x="0"
     inkscape:window-y="36"
     inkscape:window-maximized="1"
     inkscape:showpageshadow="false"
     borderlayer="true"
     showguides="false">
    <inkscape:grid
       type="xygrid"
       id="grid4063"
       originx="15.999988"
       originy="15.999974"
       empspacing="2" />
    <sodipodi:guide
       position="1.6503906e-06,63.999996"
       orientation="64,0"
       id="guide4171" />
    <sodipodi:guide
       position="1.6503906e-06,-3.6328124e-06"
       orientation="0,64"
       id="guide4173" />
    <sodipodi:guide
       position="64.000002,-3.6328124e-06"
       orientation="-64,0"
       id="guide4175" />
    <sodipodi:guide
       position="64.000002,63.999996"
       orientation="0,-64"
       id="guide4177" />
    <sodipodi:guide
       position="6.0000017,57.999996"
       orientation="52,0"
       id="guide4181" />
    <sodipodi:guide
       position="6.0000017,5.9999964"
       orientation="0,52"
       id="guide4183" />
    <sodipodi:guide
       position="58.000002,5.9999964"
       orientation="-52,0"
       id="guide4185" />
    <sodipodi:guide
       position="58.000002,57.999996"
       orientation="0,-52"
       id="guide4187" />
  </sodipodi:namedview>
  <metadata
     id="metadata5458">
    <rdf:RDF>
      <cc:Work
         rdf:about="">
        <dc:format>image/svg+xml</dc:format>
        <dc:type
           rdf:resource="http://purl.org/dc/dcmitype/StillImage" />
        <dc:title></dc:title>
      </cc:Work>
    </rdf:RDF>
  </metadata>
  <g
     inkscape:label="Capa 1"
     inkscape:groupmode="layer"
     id="layer1"
     transform="translate(-368.57144,-515.79797)">
    <g
       id="g5076"
       transform="translate(2.8230724e-6,-2.1425376e-7)">
      <g
         id="g4320"
         transform="matrix(0.88073434,0,0,0.88073434,39.774417,71.425236)">
        <g
           style="display:inline;stroke:url(#linearGradient4290);stroke-width:2.30769229;stroke-miterlimit:4;stroke-dasharray:none"
           transform="matrix(1.0833333,0,0,1.0833333,-42.09418,-35.974845)"
           id="layer1-2"
           inkscape:label="Capa 1">
          <g
             transform="matrix(0.32608687,0,0,0.32608687,260.51556,363.77696)"
             id="g4907"
             style="stroke:url(#linearGradient5106);stroke-width:7.07692528;stroke-miterlimit:4;stroke-dasharray:none">
            <g
               transform="matrix(1.0212766,0,0,1.0212766,-9.6631698,-10.760785)"
               id="g4170"
               style="stroke:none;stroke-width:6.92948914;stroke-miterlimit:4;stroke-dasharray:none">
              <g
                 id="g4236"
                 transform="matrix(1.1750004,0,0,1.1750004,-79.325021,-85.264894)"
                 style="stroke:none;stroke-width:5.89743567;stroke-miterlimit:4;stroke-dasharray:none">
                <rect
                   ry="61.333302"
                   y="429.39798"
                   x="392.7048"
                   height="122.6666"
                   width="122.66666"
                   id="rect4166"
                   style="opacity:1;fill:url(#linearGradient4174);fill-opacity:1;stroke:none;stroke-width:5.89743567;stroke-miterlimit:4;stroke-dasharray:none;stroke-opacity:0.55026455" />
                <rect
                   ry="61.333298"
                   y="429.90915"
                   x="392.7048"
                   height="122.6666"
                   width="122.66665"
                   id="rect4166-5"
                   style="display:inline;opacity:1;fill:none;fill-opacity:1;stroke:url(#linearGradient4330);stroke-width:5.89743567;stroke-miterlimit:4;stroke-dasharray:none;stroke-opacity:1" />
              </g>
            </g>
          </g>
        </g>
        <g
           transform="matrix(0.92857342,0,0,0.92857342,80.654457,39.988409)"
           id="layer1-81"
           inkscape:label="Capa 1">
          <path
             inkscape:connector-curvature="0"
             d=""
             cx="408.57144"
             cy="519.79797"
             r="9.9999886"
             style="opacity:1;fill:url(#linearGradient4276);fill-opacity:1;stroke:none;stroke-width:2;stroke-linecap:round;stroke-linejoin:round;stroke-miterlimit:4;stroke-dasharray:none;stroke-opacity:1"
             id="circle4309-6" />
          <path
             inkscape:connector-curvature="0"
             d=""
             cx="408.57144"
             cy="519.79797"
             r="9.9999886"
             style="opacity:1;fill:url(#linearGradient4278);fill-opacity:1;stroke:none;stroke-width:2;stroke-linecap:round;stroke-linejoin:round;stroke-miterlimit:4;stroke-dasharray:none;stroke-opacity:1"
             id="circle4309-6-0" />
          <path
             inkscape:connector-curvature="0"
             d=""
             cx="408.57144"
             cy="519.79797"
             r="9.9999886"
             style="opacity:1;fill:url(#linearGradient4280);fill-opacity:1;stroke:none;stroke-width:2;stroke-linecap:round;stroke-linejoin:round;stroke-miterlimit:4;stroke-dasharray:none;stroke-opacity:1"
             id="circle4309-6-7" />
          <path
             inkscape:connector-curvature="0"
             d=""
             cx="408.57144"
             cy="519.79797"
             r="9.9999886"
             style="opacity:1;fill:url(#linearGradient4282);fill-opacity:1;stroke:none;stroke-width:2;stroke-linecap:round;stroke-linejoin:round;stroke-miterlimit:4;stroke-dasharray:none;stroke-opacity:1"
             id="circle4309-6-4" />
          <g
             inkscape:label="Capa 1"
             id="layer1-1"
             transform="matrix(1.9111821,0,0,1.9111821,-359.29648,-477.74796)">
            <g
               transform="translate(-112.5209,-0.17284439)"
               id="layer1-8"
               inkscape:label="Capa 1"
               style="stroke:none">
              <path
                 inkscape:connector-curvature="0"
                 d=""
                 cx="408.57144"
                 cy="519.79797"
                 r="9.9999886"
                 style="opacity:1;fill:url(#linearGradient4352);fill-opacity:1;stroke:none;stroke-width:2;stroke-linecap:round;stroke-linejoin:round;stroke-miterlimit:4;stroke-dasharray:none;stroke-opacity:1"
                 id="circle4309-6-6" />
              <path
                 inkscape:connector-curvature="0"
                 d=""
                 cx="408.57144"
                 cy="519.79797"
                 r="9.9999886"
                 style="opacity:1;fill:url(#linearGradient4352-6);fill-opacity:1;stroke:none;stroke-width:2;stroke-linecap:round;stroke-linejoin:round;stroke-miterlimit:4;stroke-dasharray:none;stroke-opacity:1"
                 id="circle4309-6-0-6" />
              <path
                 inkscape:connector-curvature="0"
                 d=""
                 cx="408.57144"
                 cy="519.79797"
                 r="9.9999886"
                 style="opacity:1;fill:url(#linearGradient4352-5);fill-opacity:1;stroke:none;stroke-width:2;stroke-linecap:round;stroke-linejoin:round;stroke-miterlimit:4;stroke-dasharray:none;stroke-opacity:1"
                 id="circle4309-6-7-5" />
              <path
                 inkscape:connector-curvature="0"
                 d=""
                 cx="408.57144"
                 cy="519.79797"
                 r="9.9999886"
                 style="opacity:1;fill:url(#linearGradient4352-9);fill-opacity:1;stroke:none;stroke-width:2;stroke-linecap:round;stroke-linejoin:round;stroke-miterlimit:4;stroke-dasharray:none;stroke-opacity:1"
                 id="circle4309-6-4-7" />
              <g
                 id="g4823"
                 transform="matrix(0.87053099,0,0,0.87053099,103.47199,117.2361)">
                <g
                   id="g4418"
                   transform="matrix(1.0600475,0,0,1.0623934,-96.041653,-44.862294)">
                  <g
                     id="g4533"
                     transform="matrix(0.65423877,0,0,0.65423877,227.6703,142.8795)">
                    <path
                       inkscape:connector-curvature="0"
                       style="opacity:1;fill:url(#linearGradient4510-5-5);fill-opacity:1;stroke:none;stroke-width:2;stroke-linecap:round;stroke-linejoin:round;stroke-miterlimit:4;stroke-dasharray:none;stroke-opacity:1"
                       d="m 401.27124,523.8253 a 13.999973,13.999973 0 0 1 13.99997,-13.99997 13.999973,13.999973 0 0 1 13.99997,13.99997 13.999973,13.999973 0 0 1 -13.99997,13.99998 13.999973,13.999973 0 0 1 -13.99997,-13.99998 z"
                       id="path4286-9-6-6" />
                    <circle
                       style="opacity:1;fill:url(#linearGradient4510-8-2-3);fill-opacity:1;stroke:none;stroke-width:2;stroke-linecap:round;stroke-linejoin:round;stroke-miterlimit:4;stroke-dasharray:none;stroke-opacity:1"
                       id="path4286-9-4-4-0"
                       cx="415.27127"
                       cy="523.82532"
                       r="10.999989" />
                    <circle
                       id="circle4309-9-9"
                       style="opacity:1;fill:url(#linearGradient4327-2-6);fill-opacity:1;stroke:none;stroke-width:2;stroke-linecap:round;stroke-linejoin:round;stroke-miterlimit:4;stroke-dasharray:none;stroke-opacity:1"
                       r="9.9999886"
                       cy="523.82532"
                       cx="415.27127" />
                    <g
                       style="opacity:0.72399998"
                       transform="translate(16.25074,37.425365)"
                       id="layer1-5"
                       inkscape:label="Capa 1">
                      <path
                         inkscape:connector-curvature="0"
                         d=""
                         cx="408.57144"
                         cy="519.79797"
                         r="9.9999886"
                         style="opacity:1;fill:url(#linearGradient4352-2);fill-opacity:1;stroke:none;stroke-width:2;stroke-linecap:round;stroke-linejoin:round;stroke-miterlimit:4;stroke-dasharray:none;stroke-opacity:1"
                         id="circle4309-6-3" />
                      <g
                         transform="matrix(1.1849521,0,0,1.1849521,-124.25812,-101.31636)"
                         id="g4378">
                        <g
                           id="g4355"
                           transform="matrix(0.77069343,0,0,0.77069343,131.26392,125.60999)" />
                      </g>
                    </g>
                  </g>
                </g>
              </g>
            </g>
          </g>
        </g>
      </g>
    </g>
  </g>
</svg>
