<svg height="48" width="48" xmlns="http://www.w3.org/2000/svg" xmlns:xlink="http://www.w3.org/1999/xlink"><linearGradient id="a" gradientUnits="userSpaceOnUse" x1="457.1048239762" x2="457.1048239762" y1="552.064561164975" y2="429.397953165"><stop offset="0" stop-color="#bfc1c1"/><stop offset="1" stop-color="#f1f2f3"/></linearGradient><linearGradient id="b"><stop offset="0" stop-color="#18222a"/><stop offset="1" stop-color="#566069"/></linearGradient><linearGradient id="c" gradientUnits="userSpaceOnUse" x1="414.079592" x2="414.204902" y1="533.588849" y2="514.004379"><stop offset="0" stop-color="#08f"/><stop offset="1" stop-color="#02c3ff"/></linearGradient><linearGradient id="d" gradientTransform="matrix(-1 0 0 -1 823.84266 1043.6233)" gradientUnits="userSpaceOnUse" x1="408.52423" x2="409.26617" y1="506.48495" y2="533.19501"><stop offset="0" stop-color="#222c35"/><stop offset="1" stop-color="#545e67"/></linearGradient><linearGradient id="e" gradientUnits="userSpaceOnUse" x1="407.204555302461" x2="424.071191705281" xlink:href="#b" y1="515.758662045879" y2="532.625306305848"/><linearGradient id="f" gradientUnits="userSpaceOnUse" x1="453.27964" x2="451.85276" y1="553.434076" y2="429.909116"><stop offset="0" stop-color="#222c35"/><stop offset="1" stop-color="#555f68"/></linearGradient><g stroke-width="5.897436" transform="matrix(.373354792669 0 0 .373354792669 -145.517310822977 -159.407723026598)"><rect fill="url(#a)" height="122.6666" ry="61.333302" width="122.66666" x="392.7048" y="429.39798"/><rect fill="none" height="122.6666" ry="61.333298" stroke="url(#f)" stroke-width="5.897436" width="122.66665" x="392.7048" y="429.90915"/></g><g transform="matrix(.943645962631 0 0 .945734264395 -368.045147471281 -471.399538891534)"><path d="m401.27124 523.8253a13.999973 13.999973 0 0 1 13.99997-13.99997 13.999973 13.999973 0 0 1 13.99997 13.99997 13.999973 13.999973 0 0 1 -13.99997 13.99998 13.999973 13.999973 0 0 1 -13.99997-13.99998z" fill="url(#d)"/><circle cx="415.27127" cy="523.82532" fill="url(#e)" r="10.999989"/><circle cx="415.27127" cy="523.82532" fill="url(#c)" r="9.999989"/></g></svg>