<svg height="48" width="48" xmlns="http://www.w3.org/2000/svg" xmlns:xlink="http://www.w3.org/1999/xlink"><linearGradient id="a" gradientUnits="userSpaceOnUse" x1="457.104824" x2="457.104824" y1="552.064561" y2="429.397953"><stop offset="0" stop-color="#bfc1c1"/><stop offset="1" stop-color="#f1f2f3"/></linearGradient><linearGradient id="b" gradientUnits="userSpaceOnUse" x1="414.079592" x2="414.204902" y1="533.588849" y2="514.004379"><stop offset="0" stop-color="#08f"/><stop offset="1" stop-color="#02c3ff"/></linearGradient><linearGradient id="c" gradientTransform="matrix(-1 0 0 -1 823.84266 1043.6233)" gradientUnits="userSpaceOnUse" x1="408.52423" x2="409.26617" y1="506.48495" y2="533.19501"><stop offset="0" stop-color="#222c35"/><stop offset="1" stop-color="#545e67"/></linearGradient><linearGradient id="d" gradientUnits="userSpaceOnUse" x1="407.204555" x2="424.071192" y1="515.758662" y2="532.625306"><stop offset="0" stop-color="#18222a"/><stop offset="1" stop-color="#566069"/></linearGradient><linearGradient id="e" gradientUnits="userSpaceOnUse" x1="453.27964" x2="451.85276" y1="553.434076" y2="429.909116"><stop offset="0" stop-color="#222c35"/><stop offset="1" stop-color="#555f68"/></linearGradient><g stroke-width="5.897436" transform="matrix(.37335479 0 0 .37335479 -145.517311 -159.407723)"><rect fill="url(#a)" height="122.6666" ry="61.333302" width="122.66666" x="392.7048" y="429.39798"/><rect fill="none" height="122.6666" ry="61.333298" stroke="url(#e)" stroke-width="5.897436" width="122.66665" x="392.7048" y="429.90915"/></g><g transform="matrix(.94364596 0 0 .94573426 -368.045147 -471.399539)"><path d="m401.27124 523.8253a13.999973 13.999973 0 0 1 13.99997-13.99997 13.999973 13.999973 0 0 1 13.99997 13.99997 13.999973 13.999973 0 0 1 -13.99997 13.99998 13.999973 13.999973 0 0 1 -13.99997-13.99998z" fill="url(#c)"/><circle cx="415.27127" cy="523.82532" fill="url(#d)" r="10.999989"/><circle cx="415.27127" cy="523.82532" fill="url(#b)" r="9.999989"/></g></svg>