<svg height="48" width="48" xmlns="http://www.w3.org/2000/svg" xmlns:xlink="http://www.w3.org/1999/xlink"><linearGradient id="a"><stop offset="0" stop-color="#18222a"/><stop offset="1" stop-color="#566069"/></linearGradient><linearGradient id="b" gradientUnits="userSpaceOnUse" x1="414.079592" x2="414.204902" y1="533.588849" y2="514.004379"><stop offset="0" stop-color="#974eb7"/><stop offset="1" stop-color="#d164ff"/></linearGradient><linearGradient id="c" gradientTransform="matrix(-1 0 0 -1 823.84266 1043.6233)" gradientUnits="userSpaceOnUse" x1="408.52423" x2="409.26617" xlink:href="#f" y1="506.48495" y2="533.19501"/><linearGradient id="d" gradientUnits="userSpaceOnUse" x1="407.204555302461" x2="424.071191705281" xlink:href="#a" y1="515.758662045879" y2="532.625306305848"/><linearGradient id="e"><stop offset="0" stop-color="#ffce69"/><stop offset="1" stop-color="#ffce54"/></linearGradient><linearGradient id="f"><stop offset="0" stop-color="#222c35"/><stop offset="1" stop-color="#545e67"/></linearGradient><linearGradient id="g" gradientTransform="matrix(1.0833321 0 0 1.5347235 -49.73149 -271.24808)" gradientUnits="userSpaceOnUse" x1="391.57144" x2="390.87775" y1="531.79797" y2="507.6731"><stop offset="0" stop-color="#d3d3d3"/><stop offset="1" stop-color="#fcf9f9"/></linearGradient><linearGradient id="h" gradientTransform="matrix(3.3333417 0 0 3.3892711 -1032.6704 -1179.5016)" gradientUnits="userSpaceOnUse" x1="428.57144" x2="428.36069" xlink:href="#f" y1="504.798" y2="501.38693"/><linearGradient id="i" gradientUnits="userSpaceOnUse" x1="371.605608627101" x2="371.605608627101" xlink:href="#f" y1="532.525692552102" y2="527.742861643372"/><linearGradient id="j" gradientUnits="userSpaceOnUse" x1="376.399845692308" x2="376.205307225096" xlink:href="#f" y1="525.8466292061" y2="522.697949114263"/><linearGradient id="k" gradientTransform="matrix(-.8571447 0 0 -.85714434 742.77629 988.3398)" gradientUnits="userSpaceOnUse" x1="408.52423" x2="409.26617" xlink:href="#f" y1="506.48495" y2="533.19501"/><linearGradient id="l" gradientTransform="matrix(.67347141 0 0 .67347112 117.541 193.03414)" gradientUnits="userSpaceOnUse" x1="398.30478" x2="419.77139" xlink:href="#a" y1="509.53143" y2="530.99805"/><linearGradient id="m" gradientTransform="matrix(.8571447 0 0 .85714434 42.533876 97.571084)" gradientUnits="userSpaceOnUse" x1="407.37982" x2="407.50513" xlink:href="#e" y1="529.56152" y2="509.97705"/><clipPath id="n"><ellipse cx="342.05759" cy="547.28412" rx="8.571437" ry="8.571434"/></clipPath><linearGradient id="o" gradientTransform="matrix(.8571447 0 0 .85714434 -8.147323 101.74237)" gradientUnits="userSpaceOnUse" x1="407.37982" x2="407.50513" xlink:href="#e" y1="529.56152" y2="509.97705"/><clipPath id="p"><ellipse cx="342.05759" cy="547.28412" rx="8.571437" ry="8.571434"/></clipPath><g transform="translate(-368.571437 -515.79797)"><rect fill="url(#j)" height="2.769241" ry=".923077" width="5.538447" x="372.70758" y="523.07739"/><rect fill="url(#h)" height="10.167851" ry="3.389271" width="20" x="382.57144" y="521.22772"/><rect fill="url(#g)" height="36.833332" ry="1.723617" transform="matrix(.923076946513 .000000007508 -.000000007508 .923076946513 29.90647073138 55.799695224378)" width="52" x="366.88705" y="508.08145"/><g transform="matrix(.857144686744 0 0 .857144361866 -36.992245320131 74.814279801414)"><path d="m401.27124 523.8253a13.999973 13.999973 0 0 1 13.99997-13.99997 13.999973 13.999973 0 0 1 13.99997 13.99997 13.999973 13.999973 0 0 1 -13.99997 13.99998 13.999973 13.999973 0 0 1 -13.99997-13.99998z" fill="url(#c)"/><circle cx="415.27127" cy="523.82532" fill="url(#d)" r="10.999989"/><circle cx="415.27127" cy="523.82532" fill="url(#b)" r="9.999989"/></g><path d="m380.57144 542.79797a12.000003 11.999998 0 0 1 12-12 12.000003 11.999998 0 0 1 12 12 12.000003 11.999998 0 0 1 -12 12 12.000003 11.999998 0 0 1 -12-12z" fill="url(#k)"/><circle cx="373.99707" cy="530.13428" fill="url(#i)" fill-rule="evenodd" r="2.391408"/><ellipse cx="392.70227" cy="543.10309" fill="url(#l)" rx="9.428582" ry="9.428578"/><ellipse cx="392.7388" cy="543.11285" fill="url(#m)" rx="8.571437" ry="8.571434"/><g fill="#ff7f2a"><ellipse clip-path="url(#n)" cx="334.12454" cy="546.82513" rx="3.775797" ry="3.775795" transform="translate(50.681199 -4.171285)"/><ellipse cx="393.12317" cy="548.51648" rx="2.171499" ry="2.171498"/><ellipse clip-path="url(#p)" cx="347.6087" cy="545.97968" rx="3.836187" ry="3.836185" transform="translate(50.681199 -4.171285)"/></g></g></svg>