<svg height="48" width="48" xmlns="http://www.w3.org/2000/svg" xmlns:xlink="http://www.w3.org/1999/xlink"><linearGradient id="a"><stop offset="0" stop-color="#222c35"/><stop offset="1" stop-color="#545e67"/></linearGradient><linearGradient id="b" gradientTransform="matrix(.91666565 0 0 1.2986122 -350.52339 -649.37967)" gradientUnits="userSpaceOnUse" x1="391.57144" x2="390.87775" y1="531.79797" y2="507.6731"><stop offset="0" stop-color="#d3d3d3"/><stop offset="1" stop-color="#fcf9f9"/></linearGradient><linearGradient id="c" gradientTransform="matrix(3.0555632 0 0 3.1068319 -1282.4717 -1552.2216)" gradientUnits="userSpaceOnUse" x1="428.57144" x2="428.36069" xlink:href="#a" y1="504.798" y2="501.38693"/><linearGradient id="d" gradientUnits="userSpaceOnUse" x1="4.781316155352" x2="4.781316155352" xlink:href="#a" y1="17.136773691752" y2="12.75251192581"/><linearGradient id="e" gradientUnits="userSpaceOnUse" x1="9.176033421333" x2="8.997706004018" xlink:href="#a" y1="11.014298336155" y2="8.12800832566"/><linearGradient id="f" gradientTransform="matrix(-.78571598 0 0 -.78571565 345.0211 434.96637)" gradientUnits="userSpaceOnUse" x1="408.52423" x2="409.26617" xlink:href="#a" y1="506.48495" y2="533.19501"/><linearGradient id="g" gradientTransform="matrix(.61734879 0 0 .61734853 -228.11125 -294.06382)" gradientUnits="userSpaceOnUse" x1="398.30478" x2="419.77139" y1="509.53143" y2="530.99805"><stop offset="0" stop-color="#18222a"/><stop offset="1" stop-color="#566069"/></linearGradient><linearGradient id="h" gradientTransform="matrix(.78571598 0 0 .78571565 -296.86777 -381.57163)" gradientUnits="userSpaceOnUse" x1="407.37982" x2="407.50513" y1="529.56152" y2="509.97705"><stop offset="0" stop-color="#ffce69"/><stop offset="1" stop-color="#ffce54"/></linearGradient><clipPath id="i"><ellipse cx="342.05759" cy="547.28412" rx="8.571437" ry="8.571434"/></clipPath><clipPath id="j"><ellipse cx="342.05759" cy="547.28412" rx="8.571437" ry="8.571434"/></clipPath><rect fill="url(#e)" height="2.538471" ry=".846154" stroke-width=".916667" width="5.07691" x="5.79145" y="8.475832"/><rect fill="url(#c)" height="9.320531" ry="3.106832" stroke-width=".916667" width="18.333334" x="14.833323" y="6.780301"/><rect fill="url(#b)" height="31.166666" ry="1.458445" stroke-width=".846154" width="44" x="2" y="10.053034"/><g stroke-width=".916667"><path d="m12.999988 26.553028a11.000003 10.999998 0 0 1 11-11 11.000003 10.999998 0 0 1 11 11 11.000003 10.999998 0 0 1 -11 11 11.000003 10.999998 0 0 1 -11-11z" fill="url(#f)"/><circle cx="6.973482" cy="14.944643" fill="url(#d)" fill-rule="evenodd" r="2.192124"/><ellipse cx="24.119915" cy="26.83272" fill="url(#g)" rx="8.642867" ry="8.642863"/><ellipse cx="24.1534" cy="26.841671" fill="url(#h)" rx="7.857151" ry="7.857148"/></g><g fill="#ff7f2a" transform="matrix(.91666667 0 0 .91666667 -335.85716 -471.01178)"><ellipse clip-path="url(#i)" cx="334.12454" cy="546.82513" rx="3.775797" ry="3.775795" transform="translate(50.681199 -4.171285)"/><ellipse cx="393.12317" cy="548.51648" rx="2.171499" ry="2.171498"/><ellipse clip-path="url(#j)" cx="347.6087" cy="545.97968" rx="3.836187" ry="3.836185" transform="translate(50.681199 -4.171285)"/></g></svg>