<svg height="48" width="48" xmlns="http://www.w3.org/2000/svg" xmlns:xlink="http://www.w3.org/1999/xlink"><linearGradient id="a" gradientTransform="matrix(1.1116156 0 0 1.0544497 138.15869 -17.382178)" gradientUnits="userSpaceOnUse" x1="206.5988" x2="206.5988" y1="531.92383" y2="364.96884"><stop offset="0" stop-color="#45ac03"/><stop offset="1" stop-color="#98e046"/></linearGradient><linearGradient id="b" gradientUnits="userSpaceOnUse" x1="367.817242266701" x2="367.817242266701" y1="498.550532866547" y2="402.114837378669"><stop offset="0" stop-color="#dcdfe0"/><stop offset="1" stop-color="#fefeff"/></linearGradient><g transform="matrix(.202154947618 0 0 .202154947618 -50.356076890148 -71.036978267372)"><g transform="translate(.000005 -5.555687)"><path d="m264.48866 372.40344c-3.04635 0-5.49883 2.3299-5.49883 5.21959v165.60928c0 2.88968 2.45248 5.21959 5.49883 5.21959h84.51228c8.80663 15.66789 21.26844 35.46358 23.21966 35.44167 1.93098-.0217 13.70879-19.66062 22.14567-35.44167h76.77956c3.04635 0 5.49883-2.32991 5.49883-5.21959v-165.60928c0-2.88969-2.45248-5.21959-5.49883-5.21959z" fill-opacity=".666667"/><path d="m264.48866 367.45674c-3.04635 0-5.49883 2.3299-5.49883 5.21959v165.60928c0 2.88968 2.45248 5.21959 5.49883 5.21959h84.51228c8.80663 15.66789 21.26844 35.46358 23.21966 35.44167 1.93098-.0217 13.70879-19.66062 22.14567-35.44167h76.77956c3.04635 0 5.49883-2.32991 5.49883-5.21959v-165.60928c0-2.88969-2.45248-5.21959-5.49883-5.21959z" fill="url(#a)"/></g><path d="m427.17765 413.52469c-4.36959 1.93622-9.05811 3.24933-13.98425 3.83556 5.02993-3.01205 8.88022-7.78961 10.70508-13.46494-4.7182 2.78934-9.92622 4.81477-15.47546 5.91277-4.44369-4.74054-10.76442-7.69324-17.77517-7.69324-13.45 0-24.35545 10.90545-24.35545 24.3481 0 1.90653.21512 3.76861.63065 5.54926-20.23806-1.0165-38.18374-10.7126-50.19455-25.44626-2.09953 3.59076-3.29393 7.77466-3.29393 12.24088 0 8.44995 4.30288 15.90568 10.83135 20.26772-3.99131-.13357-7.74518-1.23143-11.03154-3.05647v.30394c0 11.79568 8.39797 21.64018 19.5333 23.88073-2.04019.54908-4.19152.85319-6.41715.85319-1.57265 0-3.09353-.15552-4.58472-.45233 3.10091 9.68139 12.09247 16.72159 22.74573 16.91465-8.33122 6.52851-18.83608 10.40841-30.24591 10.40841-1.96589 0-3.90229-.11868-5.80879-.33359 10.77936 6.92171 23.5766 10.95745 37.33076 10.95745 44.80129 0 69.29039-37.10827 69.29039-69.29039l-.0817-3.15287c4.78491-3.41286 8.92445-7.70077 12.18132-12.58234z" fill="url(#b)" stroke-width=".838657"/></g></svg>