<svg height="48" width="48" xmlns="http://www.w3.org/2000/svg" xmlns:xlink="http://www.w3.org/1999/xlink"><linearGradient id="a"><stop offset="0" stop-color="#d6c240"/><stop offset="1" stop-color="#fff360"/></linearGradient><linearGradient id="b"><stop offset="0" stop-color="#258e52"/><stop offset="1" stop-color="#00c253"/></linearGradient><linearGradient id="c"><stop offset="0" stop-color="#ff4c39"/><stop offset="1" stop-color="#cf3d2e"/></linearGradient><linearGradient id="d" gradientUnits="userSpaceOnUse" x1="399.57144" x2="399.57144" y1="545.79797" y2="517.79797"><stop offset="0" stop-color="#3889e9"/><stop offset="1" stop-color="#5ea5fb"/></linearGradient><linearGradient id="e" gradientUnits="userSpaceOnUse" x1="399.9939" x2="399.9939" y1="545.13873" y2="518.13873"><stop offset="0" stop-color="#dbdada"/><stop offset="1" stop-color="#fff"/></linearGradient><linearGradient id="f" gradientUnits="userSpaceOnUse" x1="314.93378" x2="314.93378" xlink:href="#c" y1="487.85406" y2="492.4281"/><linearGradient id="g" gradientUnits="userSpaceOnUse" x1="315.574167" x2="315.574167" xlink:href="#c" y1="487.85406" y2="492.4281"/><linearGradient id="h" gradientUnits="userSpaceOnUse" x1="315.299701" x2="315.299701" xlink:href="#c" y1="487.85406" y2="492.4281"/><linearGradient id="i" gradientUnits="userSpaceOnUse" x1="309.444917" x2="309.444917" xlink:href="#b" y1="498.831786" y2="494.257726"/><linearGradient id="j" gradientUnits="userSpaceOnUse" x1="309.444917" x2="309.444917" xlink:href="#b" y1="505.235476" y2="499.746586"/><linearGradient id="k" gradientUnits="userSpaceOnUse" x1="322.252256" x2="322.252256" xlink:href="#a" y1="497.916986" y2="494.257746"/><linearGradient id="l" gradientUnits="userSpaceOnUse" x1="322.252256" x2="322.252256" xlink:href="#a" y1="504.320646" y2="499.779196"/><linearGradient id="m" gradientUnits="userSpaceOnUse" x1="309.53641" x2="309.53641" xlink:href="#a" y1="492.97681" y2="487.52054"/><linearGradient id="n" gradientUnits="userSpaceOnUse" x1="310.4512" x2="309.53641" y1="491.78754" y2="489.04309"><stop offset="0" stop-color="#2574a8"/><stop offset="1" stop-color="#329ee4"/></linearGradient><g stroke-width="1.299897" transform="matrix(1.714290829385 0 0 1.714290829385 -662.615844059147 -887.447283489445)"><circle cx="400.57138" cy="531.79791" fill="url(#e)" r="13.999958"/><circle cx="400.57138" cy="531.79791" fill="url(#d)" r="0"/></g><g transform="matrix(1.393499798173 0 0 1.393499798173 -416.114183610664 -667.075918495612)"><g fill="url(#f)"><ellipse cx="309.90231" cy="490.23276" fill="url(#f)" rx="2.287027" ry="2.286832"/><ellipse cx="316.03156" cy="490.23276" fill="url(#h)" rx="2.287027" ry="2.286832"/><ellipse cx="321.97781" cy="490.23276" fill="url(#g)" rx="2.287027" ry="2.286832"/></g><ellipse cx="309.90231" cy="496.54495" fill="url(#i)" rx="2.287027" ry="2.286832"/><ellipse cx="309.90231" cy="502.5827" fill="url(#j)" rx="2.287027" ry="2.286832"/><ellipse cx="321.97781" cy="496.362" fill="url(#k)" rx="2.287027" ry="2.286832"/><ellipse cx="321.97781" cy="502.39975" fill="url(#l)" rx="2.287027" ry="2.286832"/><ellipse cx="309.71936" cy="490.32404" fill="url(#m)" rx="2.287027" ry="2.286832" transform="translate(6.312183 12.25867)"/><ellipse cx="309.71936" cy="490.32404" fill="url(#n)" rx="2.287027" ry="2.286832" transform="translate(6.312183 6.129437)"/></g></svg>