<?xml version="1.0" encoding="UTF-8" standalone="no"?>
<!-- Created with Inkscape (http://www.inkscape.org/) -->

<svg
   xmlns:dc="http://purl.org/dc/elements/1.1/"
   xmlns:cc="http://creativecommons.org/ns#"
   xmlns:rdf="http://www.w3.org/1999/02/22-rdf-syntax-ns#"
   xmlns:svg="http://www.w3.org/2000/svg"
   xmlns="http://www.w3.org/2000/svg"
   xmlns:xlink="http://www.w3.org/1999/xlink"
   xmlns:sodipodi="http://sodipodi.sourceforge.net/DTD/sodipodi-0.dtd"
   xmlns:inkscape="http://www.inkscape.org/namespaces/inkscape"
   width="48"
   height="48"
   id="svg5453"
   version="1.1"
   inkscape:version="0.91 r13725"
   sodipodi:docname="chromium.svg">
  <defs
     id="defs5455">
    <linearGradient
       id="linearGradient3606"
       inkscape:collect="always">
      <stop
         id="stop3608"
         offset="0"
         style="stop-color:#5599ff;stop-opacity:1" />
      <stop
         id="stop3610"
         offset="1"
         style="stop-color:#80b3ff;stop-opacity:1" />
    </linearGradient>
    <linearGradient
       id="linearGradient3514"
       inkscape:collect="always">
      <stop
         id="stop3516"
         offset="0"
         style="stop-color:#3b6bd4;stop-opacity:1" />
      <stop
         id="stop3518"
         offset="1"
         style="stop-color:#4270d5;stop-opacity:1" />
    </linearGradient>
    <linearGradient
       inkscape:collect="always"
       id="linearGradient4189">
      <stop
         style="stop-color:#649af5;stop-opacity:1"
         offset="0"
         id="stop4191" />
      <stop
         style="stop-color:#80b3ff;stop-opacity:1"
         offset="1"
         id="stop4193" />
    </linearGradient>
    <linearGradient
       inkscape:collect="always"
       id="linearGradient4249">
      <stop
         style="stop-color:#79a8ca;stop-opacity:1"
         offset="0"
         id="stop4251" />
      <stop
         style="stop-color:#9ecbda;stop-opacity:1"
         offset="1"
         id="stop4253" />
    </linearGradient>
    <linearGradient
       inkscape:collect="always"
       id="linearGradient4230">
      <stop
         style="stop-color:#a2c2f8;stop-opacity:1"
         offset="0"
         id="stop4232" />
      <stop
         style="stop-color:#87aade;stop-opacity:1"
         offset="1"
         id="stop4234" />
    </linearGradient>
    <linearGradient
       inkscape:collect="always"
       id="linearGradient5338">
      <stop
         style="stop-color:#ffcd40;stop-opacity:1"
         offset="0"
         id="stop5340" />
      <stop
         style="stop-color:#fee145;stop-opacity:1"
         offset="1"
         id="stop5342" />
    </linearGradient>
    <linearGradient
       inkscape:collect="always"
       id="linearGradient5332">
      <stop
         style="stop-color:#db4437;stop-opacity:1"
         offset="0"
         id="stop5334" />
      <stop
         style="stop-color:#fd5757;stop-opacity:1"
         offset="1"
         id="stop5336" />
    </linearGradient>
    <linearGradient
       id="linearGradient5326"
       inkscape:collect="always">
      <stop
         id="stop5328"
         offset="0"
         style="stop-color:#0f9d58;stop-opacity:1" />
      <stop
         id="stop5330"
         offset="1"
         style="stop-color:#00d455;stop-opacity:1" />
    </linearGradient>
    <linearGradient
       id="linearGradient4185"
       inkscape:collect="always">
      <stop
         id="stop4187"
         offset="0"
         style="stop-color:#f2f6f7;stop-opacity:1" />
      <stop
         id="stop4189"
         offset="1"
         style="stop-color:#ecf0f1;stop-opacity:1" />
    </linearGradient>
    <linearGradient
       inkscape:collect="always"
       id="linearGradient4158">
      <stop
         style="stop-color:#11aa43;stop-opacity:1"
         offset="0"
         id="stop4160" />
      <stop
         style="stop-color:#5be654;stop-opacity:1"
         offset="1"
         id="stop4162" />
    </linearGradient>
    <linearGradient
       id="linearGradient4401"
       inkscape:collect="always">
      <stop
         id="stop4403"
         offset="0"
         style="stop-color:#2566d3;stop-opacity:1" />
      <stop
         id="stop4405"
         offset="1"
         style="stop-color:#429aff;stop-opacity:1" />
    </linearGradient>
    <linearGradient
       id="linearGradient4257-1"
       inkscape:collect="always">
      <stop
         id="stop4259-8"
         offset="0"
         style="stop-color:#f23b2a;stop-opacity:1" />
      <stop
         id="stop4261-7"
         offset="1"
         style="stop-color:#fd5757;stop-opacity:1" />
    </linearGradient>
    <linearGradient
       id="linearGradient4230-0"
       inkscape:collect="always">
      <stop
         id="stop4232-2"
         offset="0"
         style="stop-color:#f3b200;stop-opacity:1" />
      <stop
         id="stop4234-3"
         offset="1"
         style="stop-color:#fee145;stop-opacity:1" />
    </linearGradient>
    <linearGradient
       gradientTransform="matrix(1.1876289,0,0,1.1876289,380.02091,495.04748)"
       gradientUnits="userSpaceOnUse"
       y2="15"
       x2="36"
       y1="44"
       x1="36"
       id="linearGradient4236-7"
       xlink:href="#linearGradient5338"
       inkscape:collect="always" />
    <linearGradient
       gradientTransform="matrix(1.1876289,0,0,1.1876289,380.02091,495.12171)"
       gradientUnits="userSpaceOnUse"
       y2="13.9375"
       x2="12"
       y1="40.934803"
       x1="12.08334"
       id="linearGradient4255-5"
       xlink:href="#linearGradient5326"
       inkscape:collect="always" />
    <linearGradient
       gradientTransform="matrix(1.1876289,0,0,1.1876289,380.01627,495.04748)"
       gradientUnits="userSpaceOnUse"
       y2="4.0000038"
       x2="23.00391"
       y1="20"
       x1="23.00391"
       id="linearGradient4263-9"
       xlink:href="#linearGradient5332"
       inkscape:collect="always" />
    <linearGradient
       gradientTransform="matrix(1.2142861,0,0,1.2142861,-87.551147,-112.24253)"
       gradientUnits="userSpaceOnUse"
       y2="516.79797"
       x2="408.57144"
       y1="530.79797"
       x1="408.57144"
       id="linearGradient4407-2"
       xlink:href="#linearGradient4401"
       inkscape:collect="always" />
    <linearGradient
       gradientTransform="matrix(1.2222222,0,0,1.2222222,-90.793655,-116.39951)"
       gradientUnits="userSpaceOnUse"
       y2="514.79797"
       x2="408.57144"
       y1="531.79797"
       x1="408.57144"
       id="linearGradient4191"
       xlink:href="#linearGradient4185"
       inkscape:collect="always" />
    <clipPath
       clipPathUnits="userSpaceOnUse"
       id="clipPath4643">
      <g
         id="g4645">
        <rect
           ry="22.799994"
           y="501.11798"
           x="385.79544"
           height="45.599987"
           width="45.599995"
           id="rect4647"
           style="opacity:1;fill:url(#linearGradient4661);fill-opacity:1;stroke:none" />
        <path
           sodipodi:nodetypes="sssscccs"
           inkscape:connector-curvature="0"
           id="path4649"
           d="m 409.16262,512.75706 c -0.31394,0 -0.56719,0.25325 -0.56719,0.56719 0,0.31394 0.25325,0.56719 0.56719,0.56719 l 20.46562,0 c 0.0413,0 0.0784,-0.0151 0.11719,-0.0234 l 0.2784,-0.75 -1.0284,-0.36094 z"
           style="opacity:0.8;fill:#649cc1;fill-opacity:1" />
        <path
           sodipodi:nodetypes="cscccc"
           inkscape:connector-curvature="0"
           id="path4651"
           d="m 389.40012,509.518 c -3.00535,4.00811 -4.80469,9.05754 -4.80469,14.475 0,13.296 10.70401,23.925 24,23.925 l 8.4,-17.205 -15.6,-3.195 z"
           style="opacity:1;fill:url(#linearGradient4663);fill-opacity:1;fill-rule:evenodd;stroke:none;stroke-width:1px;stroke-linecap:butt;stroke-linejoin:miter;stroke-opacity:1" />
        <path
           sodipodi:nodetypes="cccscc"
           inkscape:connector-curvature="0"
           id="path4653"
           d="m 409.79543,513.118 7.2,17.52 -8.4,17.28 c 13.29599,0 24,-10.70401 24,-24 0,-3.89433 -0.93838,-7.55422 -2.57109,-10.8 z"
           style="fill:url(#linearGradient4665);fill-opacity:1;fill-rule:evenodd;stroke:none;stroke-width:1px;stroke-linecap:butt;stroke-linejoin:miter;stroke-opacity:1" />
        <path
           sodipodi:nodetypes="scccccs"
           inkscape:connector-curvature="0"
           id="path4655"
           d="m 408.59074,499.918 c -7.87853,0 -14.82468,3.77575 -19.19531,9.60469 l 11.99531,17.99531 15.6,3.12 -7.2,-17.52 20.22891,0 c -3.94167,-7.83594 -12.02725,-13.2 -21.42891,-13.2 z"
           style="fill:url(#linearGradient4667);fill-opacity:1;fill-rule:evenodd;stroke:none;stroke-width:1px;stroke-linecap:butt;stroke-linejoin:miter;stroke-opacity:1" />
        <path
           inkscape:connector-curvature="0"
           style="opacity:1;fill:url(#linearGradient4669);fill-opacity:1;stroke:none"
           d="m 408.59544,513.11798 0,0 c 5.9832,0 10.8,4.8168 10.8,10.8 0,5.98319 -4.8168,10.79999 -10.8,10.79999 l 0,0 c -5.9832,0 -10.8,-4.8168 -10.8,-10.79999 0,-5.9832 4.8168,-10.8 10.8,-10.8 z"
           id="path4657" />
        <path
           id="path4659"
           d="m 408.59543,515.51794 10e-6,0 c 4.65359,0 8.39999,3.7464 8.39999,8.4 l 0,0 c 0,4.6536 -3.7464,8.4 -8.39999,8.4 l -10e-6,0 c -4.6536,0 -8.4,-3.7464 -8.4,-8.4 l 0,0 c 0,-4.6536 3.7464,-8.4 8.4,-8.4 z"
           style="opacity:1;fill:url(#linearGradient4671);fill-opacity:1;stroke:none"
           inkscape:connector-curvature="0" />
      </g>
    </clipPath>
    <linearGradient
       inkscape:collect="always"
       xlink:href="#linearGradient4249"
       id="linearGradient4661"
       gradientUnits="userSpaceOnUse"
       gradientTransform="matrix(1.14,0,0,1.14,-57.175997,-73.211719)"
       x1="409.57144"
       y1="543.79797"
       x2="409.57144"
       y2="502.798" />
    <linearGradient
       inkscape:collect="always"
       xlink:href="#linearGradient4158"
       id="linearGradient4663"
       gradientUnits="userSpaceOnUse"
       gradientTransform="matrix(1.2,0,0,1.2,379.79543,495.193)"
       x1="12.08334"
       y1="40.934803"
       x2="12"
       y2="13.9375" />
    <linearGradient
       inkscape:collect="always"
       xlink:href="#linearGradient4230-0"
       id="linearGradient4665"
       gradientUnits="userSpaceOnUse"
       gradientTransform="matrix(1.2,0,0,1.2,379.79543,495.118)"
       x1="36"
       y1="44"
       x2="36"
       y2="15" />
    <linearGradient
       inkscape:collect="always"
       xlink:href="#linearGradient4257-1"
       id="linearGradient4667"
       gradientUnits="userSpaceOnUse"
       gradientTransform="matrix(1.2,0,0,1.2,379.79074,495.118)"
       x1="23.00391"
       y1="20"
       x2="23.00391"
       y2="4.0000038" />
    <linearGradient
       inkscape:collect="always"
       xlink:href="#linearGradient4185"
       id="linearGradient4669"
       gradientUnits="userSpaceOnUse"
       gradientTransform="matrix(1.2,0,0,1.2,-81.690286,-104.6396)"
       x1="408.57144"
       y1="531.79797"
       x2="408.57144"
       y2="514.79797" />
    <linearGradient
       inkscape:collect="always"
       xlink:href="#linearGradient4401"
       id="linearGradient4671"
       gradientUnits="userSpaceOnUse"
       gradientTransform="matrix(1.2,0,0,1.2,-81.690286,-104.6396)"
       x1="408.57144"
       y1="530.79797"
       x2="408.57144"
       y2="516.79797" />
    <circle
       r="88"
       cx="96"
       cy="96"
       id="a" />
    <defs
       id="defs4774">
      <path
         d="m 21.97,8 0,40.34 L 61.36,116 96,56 l 88,0 0,-48 z"
         id="m"
         inkscape:connector-curvature="0" />
    </defs>
    <clipPath
       id="n">
      <use
         id="use4778"
         height="100%"
         xlink:href="#m"
         overflow="visible"
         width="100%"
         style="overflow:visible"
         x="0"
         y="0" />
    </clipPath>
    <defs
       id="defs4753">
      <path
         d="m 96,56 34.65,60 -38.88,68 92.23,0 0,-128 z"
         id="i"
         inkscape:connector-curvature="0" />
    </defs>
    <clipPath
       id="j">
      <use
         id="use4757"
         height="100%"
         xlink:href="#i"
         overflow="visible"
         width="100%"
         style="overflow:visible"
         x="0"
         y="0" />
    </clipPath>
    <defs
       id="defs4728">
      <path
         d="m 8,184 83.77,0 38.88,-38.88 0,-29.12 -69.29,0 L 8,24.48 Z"
         id="e"
         inkscape:connector-curvature="0" />
    </defs>
    <clipPath
       id="f">
      <use
         id="use4732"
         height="100%"
         xlink:href="#e"
         overflow="visible"
         width="100%"
         style="overflow:visible"
         x="0"
         y="0" />
    </clipPath>
    <linearGradient
       x1="110.87"
       x2="52.537998"
       y1="164.5"
       gradientUnits="userSpaceOnUse"
       y2="130.33"
       id="d">
      <stop
         id="stop4718"
         offset="0"
         stop-opacity=".4"
         stop-color="#055524" />
      <stop
         id="stop4720"
         offset=".33"
         stop-opacity="0"
         stop-color="#055524" />
    </linearGradient>
    <linearGradient
       x1="29.337"
       x2="81.836998"
       y1="75.021004"
       gradientUnits="userSpaceOnUse"
       y2="44.354"
       id="c">
      <stop
         id="stop4705"
         offset="0"
         stop-opacity=".6"
         stop-color="#A52714" />
      <stop
         id="stop4707"
         offset=".66"
         stop-opacity="0"
         stop-color="#A52714" />
    </linearGradient>
    <linearGradient
       id="g"
       y2="114.13"
       gradientUnits="userSpaceOnUse"
       y1="49.804001"
       x2="136.55"
       x1="121.86">
      <stop
         stop-color="#EA6100"
         stop-opacity=".3"
         offset="0"
         id="stop4739" />
      <stop
         stop-color="#EA6100"
         stop-opacity="0"
         offset=".66"
         id="stop4741" />
    </linearGradient>
    <clipPath
       id="clipPath5672"
       clipPathUnits="userSpaceOnUse">
      <g
         id="g5674">
        <path
           style="opacity:1;fill:#000000;fill-opacity:0.35294118;fill-rule:evenodd;stroke:none;stroke-width:1px;stroke-linecap:butt;stroke-linejoin:miter;stroke-opacity:1"
           d="m 389.52659,509.79388 c -2.97437,3.96679 -4.75516,8.96416 -4.75516,14.32577 0,13.15893 10.59366,23.67835 23.75258,23.67835 l 8.3134,-17.02763 -15.43918,-3.16206 z"
           id="path5676"
           inkscape:connector-curvature="0"
           sodipodi:nodetypes="cscccc" />
        <rect
           ry="22.564941"
           y="500.98563"
           x="385.95911"
           height="45.129883"
           width="45.12989"
           id="rect5678"
           style="opacity:1;fill:url(#linearGradient5696);fill-opacity:1;stroke:none" />
        <path
           sodipodi:nodetypes="sssscccs"
           inkscape:connector-curvature="0"
           id="path5680"
           d="m 409.08535,512.5047 c -0.3107,0 -0.56134,0.25064 -0.56134,0.56134 0,0.3107 0.25064,0.56134 0.56134,0.56134 l 20.25463,0 c 0.0409,0 0.0776,-0.0149 0.11599,-0.0231 l 0.27553,-0.74227 -1.0178,-0.35722 z"
           style="opacity:0.8;fill:#649cc1;fill-opacity:1" />
        <path
           sodipodi:nodetypes="cscccc"
           inkscape:connector-curvature="0"
           id="path5682"
           d="m 389.52659,509.29903 c -2.97437,3.96679 -4.75516,8.96416 -4.75516,14.32577 0,13.15893 10.59366,23.67835 23.75258,23.67835 l 8.3134,-17.02762 -15.43918,-3.16207 z"
           style="opacity:1;fill:url(#linearGradient4255-5);fill-opacity:1;fill-rule:evenodd;stroke:none;stroke-width:1px;stroke-linecap:butt;stroke-linejoin:miter;stroke-opacity:1" />
        <path
           style="fill:#000000;fill-opacity:0.35294118;fill-rule:evenodd;stroke:none;stroke-width:1px;stroke-linecap:butt;stroke-linejoin:miter;stroke-opacity:1"
           d="m 409.71164,513.35676 7.12577,17.33938 -8.3134,17.10186 c 13.15892,0 23.75257,-10.59366 23.75257,-23.75258 0,-3.85418 -0.9287,-7.47634 -2.54458,-10.68866 z"
           id="path5684"
           inkscape:connector-curvature="0"
           sodipodi:nodetypes="cccscc" />
        <path
           sodipodi:nodetypes="cccscc"
           inkscape:connector-curvature="0"
           id="path5686"
           d="m 409.71164,512.86192 7.12577,17.33938 -8.3134,17.10185 c 13.15892,0 23.75257,-10.59365 23.75257,-23.75257 0,-3.85418 -0.9287,-7.47634 -2.54458,-10.68866 z"
           style="fill:url(#linearGradient4236-7);fill-opacity:1;fill-rule:evenodd;stroke:none;stroke-width:1px;stroke-linecap:butt;stroke-linejoin:miter;stroke-opacity:1" />
        <path
           style="fill:#1a1a1a;fill-opacity:0.35294118;fill-rule:evenodd;stroke:none;stroke-width:1px;stroke-linecap:butt;stroke-linejoin:miter;stroke-opacity:1"
           d="m 408.57492,499.79902 c -7.8201,0 -14.71475,3.79752 -19.05297,9.66007 l 11.90636,18.09906 15.48433,3.13799 -7.14662,-17.62101 20.07891,0 c -3.91243,-7.88112 -11.93806,-13.27611 -21.27001,-13.27611 z"
           id="path5688"
           inkscape:connector-curvature="0"
           sodipodi:nodetypes="scccccs" />
        <path
           sodipodi:nodetypes="scccccs"
           inkscape:connector-curvature="0"
           id="path5690"
           d="m 408.51937,499.798 c -7.79731,0 -14.67185,3.73682 -18.99742,9.50567 l 11.87164,17.80979 15.43918,3.08784 -7.12578,-17.33938 20.02037,0 C 425.82632,505.10676 417.8241,499.798 408.51937,499.798 Z"
           style="fill:url(#linearGradient4263-9);fill-opacity:1;fill-rule:evenodd;stroke:none;stroke-width:1px;stroke-linecap:butt;stroke-linejoin:miter;stroke-opacity:1" />
        <path
           id="path5692"
           d="m 408.57143,512.79801 0,0 c 6.09399,0 11,4.906 11,11 0,6.09399 -4.90601,10.99999 -11,10.99999 l 0,0 c -6.094,0 -11,-4.906 -11,-10.99999 0,-6.094 4.906,-11 11,-11 z"
           style="opacity:1;fill:url(#linearGradient4191);fill-opacity:1;stroke:none"
           inkscape:connector-curvature="0" />
        <path
           id="path5694"
           d="m 408.57143,515.298 10e-6,0 c 4.70899,0 8.49999,3.79099 8.49999,8.5 l 0,0 c 0,4.709 -3.791,8.5 -8.49999,8.5 l -10e-6,0 c -4.70901,0 -8.5,-3.791 -8.5,-8.5 l 0,0 c 0,-4.70901 3.79099,-8.5 8.5,-8.5 z"
           style="opacity:1;fill:url(#linearGradient4407-2);fill-opacity:1;stroke:none"
           inkscape:connector-curvature="0" />
      </g>
    </clipPath>
    <linearGradient
       y2="502.798"
       x2="409.57144"
       y1="543.79797"
       x1="409.57144"
       gradientTransform="matrix(1.1282474,0,0,1.1282474,-52.445652,-67.423165)"
       gradientUnits="userSpaceOnUse"
       id="linearGradient5696"
       xlink:href="#linearGradient4249"
       inkscape:collect="always" />
    <linearGradient
       inkscape:collect="always"
       xlink:href="#linearGradient4189"
       id="linearGradient3470"
       gradientUnits="userSpaceOnUse"
       gradientTransform="matrix(1.1876289,0,0,1.1876289,307.55042,485.47033)"
       x1="12.08334"
       y1="40.934803"
       x2="12"
       y2="7.3503809" />
    <linearGradient
       inkscape:collect="always"
       xlink:href="#linearGradient4230"
       id="linearGradient3472"
       gradientUnits="userSpaceOnUse"
       gradientTransform="matrix(1.1876289,0,0,1.1876289,307.55042,485.3961)"
       x1="36"
       y1="44"
       x2="36"
       y2="8.4128809" />
    <linearGradient
       inkscape:collect="always"
       xlink:href="#linearGradient3514"
       id="linearGradient3474"
       gradientUnits="userSpaceOnUse"
       gradientTransform="matrix(1.1876289,0,0,1.1876289,307.54578,485.3961)"
       x1="22.866678"
       y1="29.194521"
       x2="23.00391"
       y2="4.0000038" />
    <linearGradient
       inkscape:collect="always"
       xlink:href="#linearGradient4185"
       id="linearGradient3476"
       gradientUnits="userSpaceOnUse"
       gradientTransform="matrix(1.2222222,0,0,1.2222222,-163.26415,-126.05089)"
       x1="408.57144"
       y1="531.79797"
       x2="408.57144"
       y2="514.79797" />
    <linearGradient
       inkscape:collect="always"
       xlink:href="#linearGradient3606"
       id="linearGradient3478"
       gradientUnits="userSpaceOnUse"
       gradientTransform="matrix(1.2142861,0,0,1.2142861,-160.02164,-121.89391)"
       x1="408.57144"
       y1="530.79797"
       x2="408.43723"
       y2="504.44983" />
  </defs>
  <sodipodi:namedview
     id="base"
     pagecolor="#dedede"
     bordercolor="#141414"
     borderopacity="1"
     inkscape:pageopacity="0"
     inkscape:pageshadow="2"
     inkscape:zoom="5.6568543"
     inkscape:cx="-13.442266"
     inkscape:cy="29.571566"
     inkscape:document-units="px"
     inkscape:current-layer="g3612"
     showgrid="false"
     fit-margin-top="0"
     fit-margin-left="0"
     fit-margin-right="0"
     fit-margin-bottom="0"
     inkscape:window-width="1366"
     inkscape:window-height="630"
     inkscape:window-x="0"
     inkscape:window-y="36"
     inkscape:window-maximized="1"
     inkscape:showpageshadow="false"
     borderlayer="true"
     showguides="false"
     showborder="true">
    <inkscape:grid
       type="xygrid"
       id="grid4063" />
    <sodipodi:guide
       position="1.1650391e-05,47.999996"
       orientation="4,0"
       id="guide4146" />
    <sodipodi:guide
       position="1.1650391e-05,43.999996"
       orientation="0,48"
       id="guide4148" />
    <sodipodi:guide
       position="48.000012,43.999996"
       orientation="-4,0"
       id="guide4150" />
    <sodipodi:guide
       position="48.000012,47.999996"
       orientation="0,-48"
       id="guide4152" />
    <sodipodi:guide
       position="1.1650391e-05,4.0000264"
       orientation="4,0"
       id="guide4154" />
    <sodipodi:guide
       position="1.1650391e-05,2.6367188e-05"
       orientation="0,48"
       id="guide4156" />
    <sodipodi:guide
       position="48.000012,2.6367188e-05"
       orientation="-4,0"
       id="guide4158" />
    <sodipodi:guide
       position="48.000012,4.0000264"
       orientation="0,-48"
       id="guide4160" />
    <sodipodi:guide
       position="48.000012,48.000026"
       orientation="0,-4"
       id="guide4162" />
    <sodipodi:guide
       position="44.000012,48.000026"
       orientation="48,0"
       id="guide4164" />
    <sodipodi:guide
       position="44.000012,2.6367188e-05"
       orientation="0,4"
       id="guide4166" />
    <sodipodi:guide
       position="48.000012,2.6367188e-05"
       orientation="-48,0"
       id="guide4168" />
    <sodipodi:guide
       position="4.0000422,48.000026"
       orientation="0,-4"
       id="guide4170" />
    <sodipodi:guide
       position="4.2167969e-05,48.000026"
       orientation="48,0"
       id="guide4172" />
    <sodipodi:guide
       position="4.2167969e-05,2.6367188e-05"
       orientation="0,4"
       id="guide4174" />
    <sodipodi:guide
       position="4.0000422,2.6367188e-05"
       orientation="-48,0"
       id="guide4176" />
  </sodipodi:namedview>
  <metadata
     id="metadata5458">
    <rdf:RDF>
      <cc:Work
         rdf:about="">
        <dc:format>image/svg+xml</dc:format>
        <dc:type
           rdf:resource="http://purl.org/dc/dcmitype/StillImage" />
        <dc:title />
      </cc:Work>
    </rdf:RDF>
  </metadata>
  <g
     inkscape:label="Layer 1"
     inkscape:groupmode="layer"
     id="layer1"
     transform="translate(-384.57143,-499.798)">
    <g
       id="g3612"
       transform="translate(72.27049,9.65138)">
      <g
         id="g3379">
        <path
           style="opacity:0.8;fill:#649cc1;fill-opacity:1"
           d="m 336.61486,502.85332 c -0.3107,0 -0.56134,0.25064 -0.56134,0.56134 0,0.3107 0.25064,0.56134 0.56134,0.56134 l 20.25463,0 c 0.0409,0 0.0776,-0.0149 0.11599,-0.0231 l 0.27553,-0.74227 -1.0178,-0.35722 z"
           id="rect3345-3"
           inkscape:connector-curvature="0"
           sodipodi:nodetypes="sssscccs" />
        <g
           id="g3369">
          <path
             style="opacity:1;fill:#000000;fill-opacity:0.35294118;fill-rule:evenodd;stroke:none;stroke-width:1px;stroke-linecap:butt;stroke-linejoin:miter;stroke-opacity:1"
             d="M 4.7558594 9.9960938 C 1.7814894 13.962884 0 18.960656 0 24.322266 C 0 37.481196 10.593033 48 23.751953 48 C 36.910873 48 47.505859 37.406967 47.505859 24.248047 C 47.505859 20.393867 46.576818 16.770914 44.960938 13.558594 L 24.939453 13.558594 L 32.066406 30.898438 L 32.033203 30.966797 L 16.626953 27.810547 L 4.7558594 9.9960938 z "
             transform="translate(312.30094,490.14662)"
             id="path5352" />
          <g
             id="g3360">
            <g
               id="g3342">
              <path
                 sodipodi:nodetypes="cscccc"
                 inkscape:connector-curvature="0"
                 id="path4217-6"
                 d="m 317.0561,499.64765 c -2.97437,3.96679 -4.75516,8.96416 -4.75516,14.32577 0,13.15893 10.59366,23.67835 23.75258,23.67835 l 8.3134,-17.02762 -15.43918,-3.16207 z"
                 style="opacity:1;fill:url(#linearGradient3470);fill-opacity:1;fill-rule:evenodd;stroke:none;stroke-width:1px;stroke-linecap:butt;stroke-linejoin:miter;stroke-opacity:1" />
              <path
                 sodipodi:nodetypes="cccscc"
                 inkscape:connector-curvature="0"
                 id="path4209-1"
                 d="m 337.24115,503.21054 7.12577,17.33938 -8.3134,17.10185 c 13.15892,0 23.75257,-10.59365 23.75257,-23.75257 0,-3.85418 -0.9287,-7.47634 -2.54458,-10.68866 z"
                 style="fill:url(#linearGradient3472);fill-opacity:1;fill-rule:evenodd;stroke:none;stroke-width:1px;stroke-linecap:butt;stroke-linejoin:miter;stroke-opacity:1" />
            </g>
            <g
               id="g3356">
              <path
                 style="fill:#1a1a1a;fill-opacity:0.35294118;fill-rule:evenodd;stroke:none;stroke-width:1px;stroke-linecap:butt;stroke-linejoin:miter;stroke-opacity:1"
                 d="m 336.03306,490.15916 c -7.94719,0 -14.95389,3.92882 -19.36262,9.99406 l 12.09986,18.72482 c 10.42064,-0.007 12.79619,-9.04933 8.47322,-14.98376 l 20.40523,0 c -3.97602,-8.15361 -12.13208,-13.73512 -21.61569,-13.73512 z"
                 id="path5344"
                 inkscape:connector-curvature="0"
                 sodipodi:nodetypes="sccccs" />
              <path
                 sodipodi:nodetypes="scccccs"
                 inkscape:connector-curvature="0"
                 id="path4219-2"
                 d="m 336.04888,490.14662 c -7.79731,0 -14.67185,3.73682 -18.99742,9.50567 l 11.87164,17.80979 15.43918,3.08784 -7.12578,-17.33938 20.02037,0 c -3.90104,-7.75516 -11.90326,-13.06392 -21.20799,-13.06392 z"
                 style="fill:url(#linearGradient3474);fill-opacity:1;fill-rule:evenodd;stroke:none;stroke-width:1px;stroke-linecap:butt;stroke-linejoin:miter;stroke-opacity:1" />
            </g>
          </g>
        </g>
        <g
           id="g3350">
          <path
             style="fill:#000000;fill-opacity:0.07843137;stroke:none"
             clip-path="none"
             d="M 23.798828 13 C 17.704828 13 12.798828 17.906 12.798828 24 C 12.798828 27.04699 14.025422 29.798859 16.013672 31.787109 L 31.078125 46.851562 C 38.470798 44.471666 44.259138 38.584656 46.498047 31.128906 L 31.583984 16.214844 C 29.595734 14.226594 26.845828 13 23.798828 13 z "
             transform="translate(312.30094,490.14662)"
             id="path5485" />
          <g
             id="g3346">
            <path
               inkscape:connector-curvature="0"
               style="opacity:1;fill:url(#linearGradient3476);fill-opacity:1;stroke:none"
               d="m 336.10094,503.14663 0,0 c 6.09399,0 11,4.906 11,11 0,6.09399 -4.90601,10.99999 -11,10.99999 l 0,0 c -6.094,0 -11,-4.906 -11,-10.99999 0,-6.094 4.906,-11 11,-11 z"
               id="rect4211-9" />
            <path
               inkscape:connector-curvature="0"
               style="opacity:1;fill:url(#linearGradient3478);fill-opacity:1;stroke:none"
               d="m 336.10094,505.64662 1e-5,0 c 4.70899,0 8.49999,3.79099 8.49999,8.5 l 0,0 c 0,4.709 -3.791,8.5 -8.49999,8.5 l -1e-5,0 c -4.70901,0 -8.5,-3.791 -8.5,-8.5 l 0,0 c 0,-4.70901 3.79099,-8.5 8.5,-8.5 z"
               id="rect4213-3" />
          </g>
        </g>
      </g>
    </g>
  </g>
</svg>
