<svg height="48" viewBox="0 0 48 48" width="48" xmlns="http://www.w3.org/2000/svg" xmlns:xlink="http://www.w3.org/1999/xlink"><linearGradient id="a" gradientUnits="userSpaceOnUse" x1="23.284152842867" x2="23.569862714283" y1="45.857149607168" y2="2.000795842849"><stop offset="0" stop-color="#5a2ca0"/><stop offset="1" stop-color="#95f"/></linearGradient><linearGradient id="b" gradientTransform="matrix(1.068336 -.00401428 .00301042 .80117315 2.978343 7.267314)" gradientUnits="userSpaceOnUse" x1="19.79948" x2="19.871304" y1="36.466614" y2="3.225252"><stop offset="0" stop-color="#aaa"/><stop offset="1" stop-color="#c8c8c8"/></linearGradient><rect fill-opacity=".666667" height="44" rx="4.000321" width="44" x="2" y="3"/><rect fill="url(#a)" height="44" rx="4.000321" width="44" x="2" y="2"/><path d="m23.972319 9.6971973-6.412549 12.6773757.02674 7.1132c.001.29593-.205529.534946-.461218.535907l-.922275.0035c-.255686.000927-.462031-.236506-.463145-.532435l-.01314-3.497132-3.666088 7.248098 7.19594-.02766.0114 3.03182c.000829.221925.239744.399731.535674.398619l3.207093-.01205c.295929-.001.533499-.180709.532664-.402634l-.0114-3.03182 1.325614-.0024.0114 3.031822c.000829.221926.239744.399732.535673.398619l3.205007-.01205c.29593-.001.571231-.184083.532662-.402632l-.0114-3.031822 6.929673-.02801-3.718351-7.216177.01312 3.49296c.001.295929-.203443.534939-.459131.535899l-.92436.0035c-.255688.000927-.462035-.236507-.463145-.532435l-.02671-7.10902-6.50974-12.6329948zm6.50974 12.6329957 1.860224 3.609126-.03104-8.205586c-.001-.295928-.207455-.533395-.463144-.532434l-.924361.0035c-.255687.000927-.460241.239971-.45913.535901.0058 1.548221.01165 3.041367.01745 4.589493zm-14.755338 3.667386 1.833049-3.623006-.01715-4.640846c-.001-.295928-.209543-.533387-.465231-.532427l-.922559.0035c-.255688.000927-.460244.239972-.459132.5359l.03103 8.256913zm8.281279-6.685359c1.534127-.0058 2.773341 1.049257 2.778266 2.359965l.02232 5.94262c.005 1.31071-1.225457 2.375008-2.759586 2.380773-1.534125.0058-2.773306-1.049254-2.77823-2.359965l-.02232-5.94262c-.005-1.310708 1.225426-2.375007 2.75955-2.380773zm.0044 1.070423c-1.021947.0039-1.841379.850904-1.837438 1.89947l.01789 4.761607c.004 1.048567.829713 1.889451 1.851659 1.885611l.0021-.000008c1.021948-.0039 1.841378-.850906 1.837438-1.899472l-.01789-4.761607c-.004-1.048568-.829713-1.889449-1.851659-1.885609z" fill="url(#b)"/></svg>