<?xml version="1.0" encoding="UTF-8" standalone="no"?>
<!-- Created with Inkscape (http://www.inkscape.org/) -->

<svg
   xmlns:dc="http://purl.org/dc/elements/1.1/"
   xmlns:cc="http://creativecommons.org/ns#"
   xmlns:rdf="http://www.w3.org/1999/02/22-rdf-syntax-ns#"
   xmlns:svg="http://www.w3.org/2000/svg"
   xmlns="http://www.w3.org/2000/svg"
   xmlns:xlink="http://www.w3.org/1999/xlink"
   xmlns:sodipodi="http://sodipodi.sourceforge.net/DTD/sodipodi-0.dtd"
   xmlns:inkscape="http://www.inkscape.org/namespaces/inkscape"
   inkscape:export-ydpi="90"
   inkscape:export-xdpi="90"
   inkscape:export-filename="/home/spooky/chromium-bsu-new.png"
   sodipodi:docname="chromium-bsu-new.svg"
   viewBox="0 0 48 48"
   inkscape:version="0.91 r13725"
   version="1.1"
   id="svg4468"
   height="48"
   width="48">
  <sodipodi:namedview
     inkscape:window-maximized="1"
     inkscape:window-y="28"
     inkscape:window-x="0"
     inkscape:window-height="712"
     inkscape:window-width="1366"
     inkscape:document-units="px"
     inkscape:grid-bbox="true"
     showgrid="true"
     inkscape:current-layer="layer1"
     inkscape:cy="14.550224"
     inkscape:cx="3.4556902"
     inkscape:zoom="7"
     inkscape:pageshadow="2"
     inkscape:pageopacity="0"
     borderopacity="1.0"
     bordercolor="#666666"
     pagecolor="#282828"
     id="base" />
  <defs
     id="defs4470">
    <linearGradient
       id="0">
      <stop
         id="stop4168"
         stop-color="#aaa" />
      <stop
         id="stop4170"
         stop-color="#c8c8c8"
         offset="1" />
    </linearGradient>
    <linearGradient
       gradientUnits="userSpaceOnUse"
       y2="1006.36"
       x2="0"
       y1="1050.36"
       id="1"
       xlink:href="#0"
       gradientTransform="translate(-40.714286,-1003.7908)" />
    <linearGradient
       inkscape:collect="always"
       xlink:href="#linearGradient4247"
       id="linearGradient4253"
       x1="-17.428572"
       y1="46.42857"
       x2="-17.142857"
       y2="2.5714285"
       gradientUnits="userSpaceOnUse"
       gradientTransform="matrix(0.99998205,0,0,0.99998205,40.712412,-0.570587)" />
    <linearGradient
       inkscape:collect="always"
       id="linearGradient4247">
      <stop
         style="stop-color:#5a2ca0;stop-opacity:1"
         offset="0"
         id="stop4249" />
      <stop
         style="stop-color:#9955ff;stop-opacity:1"
         offset="1"
         id="stop4251" />
    </linearGradient>
    <linearGradient
       inkscape:collect="always"
       xlink:href="#0"
       id="linearGradient4310"
       x1="19.79948"
       y1="36.466614"
       x2="19.871304"
       y2="3.2252517"
       gradientUnits="userSpaceOnUse"
       gradientTransform="matrix(1.068336,-0.00401428,0.00301042,0.80117315,2.9783427,7.2673142)" />
  </defs>
  <metadata
     id="metadata4473">
    <rdf:RDF>
      <cc:Work
         rdf:about="">
        <dc:format>image/svg+xml</dc:format>
        <dc:type
           rdf:resource="http://purl.org/dc/dcmitype/StillImage" />
        <dc:title />
      </cc:Work>
    </rdf:RDF>
  </metadata>
  <g
     id="layer1"
     inkscape:label="Layer 1"
     inkscape:groupmode="layer">
    <rect
       id="rect4292"
       rx="4.0003214"
       y="3"
       x="2"
       height="44"
       width="44"
       style="fill:#000000;fill-opacity:0.66666669;opacity:1" />
    <g
       id="g4158"
       style="opacity:1;fill:#ffffff;fill-opacity:1;stroke:none;stroke-width:2;stroke-linejoin:miter;stroke-miterlimit:4;stroke-dasharray:none;stroke-opacity:0.07843137"
       transform="matrix(1.2092221,0,0,1.2092221,-2.6737772,-7.0825872)" />
    <g
       style="opacity:1;fill:#ffffff;fill-opacity:1;stroke:none;stroke-width:2;stroke-linejoin:miter;stroke-miterlimit:4;stroke-dasharray:none;stroke-opacity:0.07843137"
       id="g4189"
       transform="matrix(1.2092221,0,0,1.2092221,-2.6737772,-7.0825872)" />
    <g
       id="g4222"
       style="opacity:1;fill:#ffffff;fill-opacity:1;stroke:none;stroke-width:2;stroke-linejoin:miter;stroke-miterlimit:4;stroke-dasharray:none;stroke-opacity:0.07843137"
       transform="matrix(1.2092221,0,0,1.2092221,-2.6737772,-7.0825872)" />
    <g
       style="opacity:1;fill:#ffffff;fill-opacity:1;stroke:none;stroke-width:2;stroke-linejoin:miter;stroke-miterlimit:4;stroke-dasharray:none;stroke-opacity:0.07843137"
       id="g4258"
       transform="matrix(1.2092221,0,0,1.2092221,-2.6737772,-7.0825872)" />
    <g
       transform="translate(-40.714286,-1003.7908)"
       id="g4173" />
    <rect
       style="fill:url(#linearGradient4253);fill-opacity:1"
       width="44"
       height="44"
       x="2"
       y="2"
       rx="4.0003214"
       id="rect4187-3" />
    <path
       style="fill:url(#linearGradient4310);fill-opacity:1"
       d="m 23.972319,9.6971973 -6.412549,12.6773757 0.02674,7.1132 c 0.001,0.29593 -0.205529,0.534946 -0.461218,0.535907 l -0.922275,0.0035 c -0.255686,9.27e-4 -0.462031,-0.236506 -0.463145,-0.532435 l -0.01314,-3.497132 -3.666088,7.248098 7.19594,-0.02766 0.0114,3.03182 c 8.29e-4,0.221925 0.239744,0.399731 0.535674,0.398619 l 3.207093,-0.01205 c 0.295929,-10e-4 0.533499,-0.180709 0.532664,-0.402634 l -0.0114,-3.03182 1.325614,-0.0024 0.0114,3.031822 c 8.29e-4,0.221926 0.239744,0.399732 0.535673,0.398619 l 3.205007,-0.01205 c 0.29593,-0.001 0.571231,-0.184083 0.532662,-0.402632 l -0.0114,-3.031822 6.929673,-0.02801 -3.718351,-7.216177 0.01312,3.49296 c 0.001,0.295929 -0.203443,0.534939 -0.459131,0.535899 l -0.92436,0.0035 c -0.255688,9.27e-4 -0.462035,-0.236507 -0.463145,-0.532435 l -0.02671,-7.10902 -6.50974,-12.6329948 z m 6.50974,12.6329957 1.860224,3.609126 -0.03104,-8.205586 c -10e-4,-0.295928 -0.207455,-0.533395 -0.463144,-0.532434 l -0.924361,0.0035 c -0.255687,9.27e-4 -0.460241,0.239971 -0.45913,0.535901 0.0058,1.548221 0.01165,3.041367 0.01745,4.589493 z M 15.726721,25.997579 17.55977,22.374573 17.54262,17.733727 C 17.54162,17.437799 17.333077,17.20034 17.077389,17.2013 l -0.922559,0.0035 c -0.255688,9.27e-4 -0.460244,0.239972 -0.459132,0.5359 l 0.03103,8.256913 z M 24.008,19.31222 c 1.534127,-0.0058 2.773341,1.049257 2.778266,2.359965 l 0.02232,5.94262 c 0.005,1.31071 -1.225457,2.375008 -2.759586,2.380773 -1.534125,0.0058 -2.773306,-1.049254 -2.77823,-2.359965 l -0.02232,-5.94262 c -0.005,-1.310708 1.225426,-2.375007 2.75955,-2.380773 z m 0.0044,1.070423 c -1.021947,0.0039 -1.841379,0.850904 -1.837438,1.89947 l 0.01789,4.761607 c 0.004,1.048567 0.829713,1.889451 1.851659,1.885611 l 0.0021,-8e-6 c 1.021948,-0.0039 1.841378,-0.850906 1.837438,-1.899472 l -0.01789,-4.761607 c -0.004,-1.048568 -0.829713,-1.889449 -1.851659,-1.885609 z"
       id="rect4191"
       inkscape:connector-curvature="0"
       sodipodi:nodetypes="cccccsccccscscccscsccccccscccccccccccccccscccsccsccssccssccs" />
  </g>
</svg>
