<svg height="48" width="48" xmlns="http://www.w3.org/2000/svg" xmlns:xlink="http://www.w3.org/1999/xlink"><linearGradient id="a" gradientUnits="userSpaceOnUse" x1="330.19919" x2="348.2099" y1="524.4726" y2="515.18555"><stop offset="0" stop-color="#db4437"/><stop offset="1" stop-color="#fd5757"/></linearGradient><linearGradient id="b" gradientUnits="userSpaceOnUse" x1="326.44437" x2="338.64713" y1="541.48792" y2="529.99591"><stop offset="0" stop-color="#0f9d58"/><stop offset="1" stop-color="#00d455"/></linearGradient><linearGradient id="c" gradientUnits="userSpaceOnUse" x1="346.4606" x2="348.2099" y1="536.75958" y2="522.99902"><stop offset="0" stop-color="#ffcd40"/><stop offset="1" stop-color="#fee145"/></linearGradient><linearGradient id="d" gradientUnits="userSpaceOnUse" x1="405.660176" x2="409.447054" y1="529.884295" y2="521.181095"><stop offset="0" stop-color="#3889e9"/><stop offset="1" stop-color="#5ea5fb"/></linearGradient><linearGradient id="e" gradientUnits="userSpaceOnUse" x1="409.421042" x2="410.708332" y1="545.646726" y2="502.361236"><stop offset="0" stop-color="#dbdada"/><stop offset="1" stop-color="#fff"/></linearGradient><g transform="matrix(.97777778 0 0 .97777778 -375.49205 -488.64694)"><rect fill-opacity=".666667" height="44" rx="2" width="44" x="386.57141" y="502.798"/><rect fill="url(#e)" height="44" rx="2" width="44" x="386.57141" y="501.798"/><g fill="url(#a)" transform="matrix(1.0931221 0 0 1.0931221 33.310366 -50.486049)"><ellipse cx="335.73166" cy="518.10077" rx="2.915477" ry="2.915228"/><ellipse cx="343.54514" cy="518.10077" rx="2.915477" ry="2.915228"/><ellipse cx="351.12537" cy="518.10077" rx="2.915477" ry="2.915228"/></g><g fill="url(#b)" transform="matrix(1.0931221 0 0 1.0931221 33.310366 -50.486049)"><ellipse cx="335.73166" cy="526.14746" fill="url(#b)" rx="2.915477" ry="2.915228"/><ellipse cx="335.73166" cy="533.84436" fill="url(#b)" rx="2.915477" ry="2.915228"/></g><g fill="url(#c)" transform="matrix(1.0931221 0 0 1.0931221 33.310366 -50.486049)"><ellipse cx="351.12537" cy="525.91425" rx="2.915477" ry="2.915228"/><ellipse cx="351.12537" cy="533.61108" rx="2.915477" ry="2.915228"/><ellipse cx="343.54514" cy="533.84436" rx="2.915477" ry="2.915228"/></g><ellipse cx="408.84714" cy="524.52991" fill="url(#d)" rx="3.186972" ry="3.1867"/></g></svg>