<?xml version="1.0" encoding="UTF-8" standalone="no"?>
<!-- Created with Inkscape (http://www.inkscape.org/) -->

<svg
   xmlns:dc="http://purl.org/dc/elements/1.1/"
   xmlns:cc="http://creativecommons.org/ns#"
   xmlns:rdf="http://www.w3.org/1999/02/22-rdf-syntax-ns#"
   xmlns:svg="http://www.w3.org/2000/svg"
   xmlns="http://www.w3.org/2000/svg"
   xmlns:xlink="http://www.w3.org/1999/xlink"
   xmlns:sodipodi="http://sodipodi.sourceforge.net/DTD/sodipodi-0.dtd"
   xmlns:inkscape="http://www.inkscape.org/namespaces/inkscape"
   width="48"
   height="48"
   viewBox="0 0 48 48.000001"
   id="svg4242"
   version="1.1"
   inkscape:version="0.91 r13725"
   sodipodi:docname="clementine.svg">
  <defs
     id="defs4244">
    <linearGradient
       inkscape:collect="always"
       xlink:href="#linearGradient3819"
       id="linearGradient4305"
       x1="408.57144"
       y1="505.79797"
       x2="408.57144"
       y2="541.79797"
       gradientUnits="userSpaceOnUse"
       gradientTransform="translate(-384.57144,504.56422)" />
    <linearGradient
       id="linearGradient3819">
      <stop
         style="stop-color:#fffce4;stop-opacity:1"
         offset="0"
         id="stop3821" />
      <stop
         style="stop-color:#fafacd;stop-opacity:1"
         offset="1"
         id="stop3823" />
    </linearGradient>
    <linearGradient
       inkscape:collect="always"
       xlink:href="#linearGradient4377"
       id="linearGradient4165"
       x1="23.716213"
       y1="1047.5164"
       x2="24.283766"
       y2="1012.1548"
       gradientUnits="userSpaceOnUse" />
    <linearGradient
       id="linearGradient8311-06">
      <stop
         offset="0"
         style="stop-color:#a9a3d4;stop-opacity:1"
         id="stop8313-6" />
      <stop
         id="stop4462"
         style="stop-color:#87baff;stop-opacity:1"
         offset="0.47001833" />
      <stop
         offset="1"
         style="stop-color:#89ec85;stop-opacity:1"
         id="stop8315-2" />
    </linearGradient>
    <linearGradient
       inkscape:collect="always"
       xlink:href="#linearGradient8311-06"
       id="linearGradient4460"
       x1="0"
       y1="23.5"
       x2="47"
       y2="23.5"
       gradientUnits="userSpaceOnUse" />
    <linearGradient
       inkscape:collect="always"
       xlink:href="#linearGradient3819"
       id="linearGradient4305-1"
       x1="408.57144"
       y1="505.79797"
       x2="408.57144"
       y2="541.79797"
       gradientUnits="userSpaceOnUse"
       gradientTransform="matrix(1.1718961,0,0,1.1718961,-454.61016,414.78719)" />
    <linearGradient
       inkscape:collect="always"
       xlink:href="#linearGradient4377"
       id="linearGradient4489"
       x1="408.57144"
       y1="542.79797"
       x2="408.57144"
       y2="503.798"
       gradientUnits="userSpaceOnUse"
       gradientTransform="matrix(1.1718961,0,0,1.1718961,-454.5741,414.78732)" />
    <linearGradient
       id="linearGradient4377"
       inkscape:collect="always">
      <stop
         id="stop4379"
         offset="0"
         style="stop-color:#ff7a01;stop-opacity:1" />
      <stop
         id="stop4381"
         offset="1"
         style="stop-color:#feb600;stop-opacity:1" />
    </linearGradient>
  </defs>
  <sodipodi:namedview
     id="base"
     pagecolor="#5a5a5a"
     bordercolor="#666666"
     borderopacity="1.0"
     inkscape:pageopacity="0"
     inkscape:pageshadow="2"
     inkscape:zoom="6.1083378"
     inkscape:cx="-44.908195"
     inkscape:cy="12.235685"
     inkscape:document-units="px"
     inkscape:current-layer="layer1"
     showgrid="false"
     units="px"
     inkscape:window-width="1366"
     inkscape:window-height="630"
     inkscape:window-x="0"
     inkscape:window-y="36"
     inkscape:window-maximized="1"
     showborder="false" />
  <metadata
     id="metadata4247">
    <rdf:RDF>
      <cc:Work
         rdf:about="">
        <dc:format>image/svg+xml</dc:format>
        <dc:type
           rdf:resource="http://purl.org/dc/dcmitype/StillImage" />
        <dc:title></dc:title>
      </cc:Work>
    </rdf:RDF>
  </metadata>
  <g
     inkscape:label="Layer 1"
     inkscape:groupmode="layer"
     id="layer1"
     transform="translate(0,-1004.3622)">
    <g
       id="g4248"
       transform="matrix(1.0239813,0,0,1.0239813,-0.71922348,-24.829691)">
      <circle
         style="opacity:1;fill:url(#linearGradient4489);fill-opacity:1;stroke:none;stroke-width:0.5;stroke-linecap:butt;stroke-linejoin:round;stroke-miterlimit:4;stroke-dasharray:none;stroke-opacity:1"
         id="path4173"
         cx="24.229177"
         cy="1028.6241"
         r="23.437929" />
      <circle
         style="opacity:1;fill:url(#linearGradient4305-1);fill-opacity:1;stroke:none;stroke-width:2;stroke-linecap:round;stroke-linejoin:round;stroke-miterlimit:4;stroke-dasharray:none;stroke-opacity:1"
         id="path4297-8"
         cx="24.19313"
         cy="1028.624"
         r="21.09413" />
      <g
         transform="matrix(1.1718961,0,0,1.1718961,-3.7980864,-176.44407)"
         id="g4413">
        <circle
           r="0"
           style="opacity:1;fill:url(#linearGradient4305);fill-opacity:1;stroke:none;stroke-width:2;stroke-linecap:round;stroke-linejoin:round;stroke-miterlimit:4;stroke-dasharray:none;stroke-opacity:1"
           id="path4297"
           cx="24.000002"
           cy="1028.3622" />
        <path
           inkscape:connector-curvature="0"
           id="path4206"
           d="m 23.99999,1012.3622 c -3,0 -5,2 -5,2 0,0 1.19323,4.0523 2,6 0.85571,2.0659 3,6 3,6 0,0 2.14429,-3.9341 3,-6 0.80677,-1.9477 2,-6 2,-6 0,0 -2,-2 -5,-2 z m -6.363281,2.5645 c 0,0 -2.829852,-3e-4 -4.951172,2.121 -2.12132,2.1214 -2.121094,4.9512 -2.121094,4.9512 0,0 3.710492,2.0214 5.658203,2.8281 2.065862,0.8557 6.363282,2.1211 6.363282,2.1211 0,0 -1.265389,-4.2974 -2.121094,-6.3632 -0.806767,-1.9478 -2.828125,-5.6582 -2.828125,-5.6582 z m 12.726562,0 c 0,0 -2.021358,3.7104 -2.828125,5.6582 -0.855705,2.0658 -2.121094,6.3632 -2.121094,6.3632 0,0 4.29742,-1.2654 6.363282,-2.1211 1.947711,-0.8067 5.658203,-2.8281 5.658203,-2.8281 0,0 2.26e-4,-2.8298 -2.121094,-4.9512 -2.12132,-2.1213 -4.951172,-2.121 -4.951172,-2.121 z m -20.363281,8.4355 c 0,0 -2,2 -2,5 0,3 2,5 2,5 0,0 4.05229,-1.1932 6,-2 2.06586,-0.8557 6,-3 6,-3 0,0 -3.93414,-2.1443 -6,-3 -1.94771,-0.8068 -6,-2 -6,-2 z m 28,0 c 0,0 -4.05229,1.1932 -6,2 -2.06586,0.8557 -6,3 -6,3 0,0 3.93414,2.1443 6,3 1.94771,0.8068 6,2 6,2 0,0 2,-2 2,-5 0,-3 -2,-5 -2,-5 z m -15.414062,6.4141 c 0,0 -4.29742,1.2654 -6.363282,2.1211 -1.947711,0.8067 -5.658203,2.8281 -5.658203,2.8281 0,0 -2.26e-4,2.8298 2.121094,4.9512 2.12132,2.1213 4.951172,2.121 4.951172,2.121 0,0 2.021358,-3.7104 2.828125,-5.6582 0.855705,-2.0658 2.121094,-6.3632 2.121094,-6.3632 z m 2.828124,0 c 0,0 1.265389,4.2974 2.121094,6.3632 0.806767,1.9478 2.828125,5.6582 2.828125,5.6582 0,0 2.829852,3e-4 4.951172,-2.121 2.12132,-2.1214 2.121094,-4.9512 2.121094,-4.9512 0,0 -3.710492,-2.0214 -5.658203,-2.8281 -2.065862,-0.8557 -6.363282,-2.1211 -6.363282,-2.1211 z m -1.414062,0.5859 c 0,0 -2.14429,3.9341 -3,6 -0.80677,1.9477 -2,6 -2,6 0,0 2,2 5,2 3,0 5,-2 5,-2 0,0 -1.19323,-4.0523 -2,-6 -0.85571,-2.0659 -3,-6 -3,-6 z"
           style="opacity:1;fill:url(#linearGradient4165);fill-opacity:1;stroke:none;stroke-width:2;stroke-linecap:round;stroke-linejoin:round;stroke-miterlimit:4;stroke-dasharray:none;stroke-opacity:1" />
      </g>
    </g>
    <g
       id="g3"
       transform="matrix(0.48796879,0,0,0.48796879,21.356721,1026.8977)"
       style="fill:url(#linearGradient4460);fill-opacity:1" />
  </g>
</svg>
