<svg height="48" width="48" xmlns="http://www.w3.org/2000/svg" xmlns:xlink="http://www.w3.org/1999/xlink"><linearGradient id="a" gradientUnits="userSpaceOnUse" x1="11.660663" x2="10.415977" y1="56.928329" y2="32.880904"><stop offset="0" stop-color="#cdd0d1"/><stop offset="1" stop-color="#f6f6f7"/></linearGradient><linearGradient id="b" gradientUnits="userSpaceOnUse" x1="14.428456" x2="5.505778" y1="47.467573" y2="39.642166"><stop offset="0" stop-color="#16a085"/><stop offset="1" stop-color="#2dcb72"/></linearGradient><filter id="c" color-interpolation-filters="sRGB"><feColorMatrix values="0.21 0.72 0.072 0 0 0.21 0.72 0.072 0 0 0.21 0.72 0.072 0 0 0 0 0 1 0"/></filter><linearGradient id="d" gradientUnits="userSpaceOnUse" x1="-19.0871" x2="7.741871" y1="55.375499" y2="-10.240048"><stop offset="0" stop-color="#019ce1"/><stop offset="1" stop-color="#2aff80"/></linearGradient><g transform="matrix(.69654364 -.00959983 .00959983 .69654364 29.521126 1.36487)"><rect fill="#d6478b" height="37.355316" ry="1.543778" transform="matrix(.99999416 -.00341659 .00341659 .99999416 0 0)" width="49.639671" x="-31.653305" y="7.985796"/><rect fill="url(#d)" height="37.355072" ry="1.543778" transform="matrix(.98818625 -.15325775 .15325775 .98818625 0 0)" width="49.639862" x="-42.623764" y="13.684669"/><circle cx="11.184063" cy="45.12323" fill="url(#a)" filter="url(#c)" r="12.348694" transform="matrix(.78017865 0 0 .78017865 2.581938 10.521665)"/><path d="m14.428456 47.271288-8.9226783.196284 4.2913527-7.825408z" fill="url(#b)" filter="url(#c)" transform="matrix(-.0138427 .90747861 -.90747861 -.0138427 51.546127 37.320471)"/><path d="m-20.144089 43.437071-.148674-.802948-5.018427.929159-5.018425.929157.07932.65979c.04359.362891.12685.73752.185016.83251.08817.143937.935586.01303 5.087821-.786008l4.982046-.958714zm-3.523316-7.763806c.876465-.622028 1.722094-1.590892 1.663723-1.906174-.02361-.126352-.432399-.49427-.908873-.817506l-.866323-.5877-.520995.542785c-.743587.774684-1.280816 1.088856-2.131137 1.246291-1.726389.319639-3.163328-.618164-3.660024-2.388668-.828764-2.954227 1.716724-5.214812 4.500436-3.996724.363384.15901.756807.272448.874277.252084.117481-.02034.457658-.4644.755977-.986749.638022-1.117187.597279-1.214895-.719324-1.72511-1.804945-.699457-4.3101-.393499-5.861548.715878-.884448.632436-1.722334 1.658531-2.076514 2.542969-1.008067 2.517255-.08985 5.661566 2.091244 7.161181 1.4582 1.002585 2.635604 1.19681 4.668045.770048 1.274807-.267676 1.559983-.374744 2.191036-.822605zm10.920538-1.970628c.04983-.156476.03897-.563414-.02415-.904307-.213622-1.153584-.17458-1.144182-2.757987-.665867l-2.270313.420345-.788166-4.256809c-.597691-3.228011-.839598-4.305335-1.000954-4.457601-.178527-.168448-.394432-.1606-1.340501.04866l-1.127695.249511.968455 5.426206c.532659 2.984412 1.011319 5.496208 1.063725 5.581765.07294.11912.925899.0018 3.641113-.500951 3.368713-.623713 3.550372-.670722 3.636452-.941012z" fill="#fff"/></g></svg>