<svg height="48" width="48" xmlns="http://www.w3.org/2000/svg" xmlns:xlink="http://www.w3.org/1999/xlink">
  <linearGradient id="a" gradientUnits="userSpaceOnUse" x1="28.46799222182" x2="26.98413473218" y1="44.58149895336" y2="3.03313629114">
    <stop offset="0" stop-color="#d3d3d3" />
    <stop offset="1" stop-color="#fcf9f9" />
  </linearGradient>
  <linearGradient id="b" gradientUnits="userSpaceOnUse" x1="18.08091306558" x2="18.08091306558" y1="3.03313629114" y2="44.58149895336">
    <stop offset="0" stop-color="#faf7f7" />
    <stop offset="1" stop-color="#d4d4d4" />
  </linearGradient>
  <linearGradient id="c" gradientUnits="userSpaceOnUse" x1="24.367676" x2="24.43692" y1="43" y2="5.000001">
    <stop offset="0" stop-color="#0388c5" />
    <stop offset="1" stop-color="#30bcfc" />
  </linearGradient>
  <linearGradient id="d" gradientUnits="userSpaceOnUse" x1="36.288616" x2="36.134148" y1="38.520325" y2="9.479598">
    <stop offset="0" />
    <stop offset="1" stop-color="#323232" />
  </linearGradient>
  <linearGradient id="e" gradientTransform="matrix(1.4865646 0 0 1.4875339 -571.51404 -767.21928)" gradientUnits="userSpaceOnUse" x1="399.57144" x2="399.57144" xlink:href="#g" y1="545.79797" y2="517.79797" />
  <linearGradient id="f" gradientTransform="matrix(2.4341997 0 0 2.435787 -1014.6458 -1271.4171)" gradientUnits="userSpaceOnUse" x1="399.57144" x2="399.57144" xlink:href="#g" y1="545.79797" y2="517.79797" />
  <linearGradient id="g" gradientUnits="userSpaceOnUse" x1="399.57144" x2="399.57144" y1="545.79797" y2="517.79797">
    <stop offset="0" stop-color="#3889e9" />
    <stop offset="1" stop-color="#5ea5fb" />
  </linearGradient>
  <circle cx="23.961195" cy="23.848143" fill="url(#e)" r="0" stroke-width="1.487049" />
  <circle cx="-39.575066" cy="23.929342" fill="url(#f)" r="0" stroke-width="2.434993" />
  <circle cx="24" cy="24" fill="url(#a)" r="21.830505" stroke="url(#b)" stroke-width="2.33899" />
  <g stroke-width="1.544715">
    <path d="m27.48374 18.130004 8.650406-8.650406 2.471545 2.471545-8.650407 8.650483zm-3.552846 8.959427c-1.699187 0-3.089431-1.390244-3.089431-3.089431s1.390244-3.089431 3.089431-3.089431 3.089431 1.390244 3.089431 3.089431-1.390244 3.089431-3.089431 3.089431zm14.829268 8.959349-2.471545 2.471545-8.650406-8.650406 2.471545-2.4717z" fill="url(#d)" />
    <path d="m24.085366 37.284552c1.699187 0 3.398374-.308943 4.943089-.926829l4.325203 4.325203c-2.780488 1.544716-5.869918 2.317073-9.113821 2.317073-10.504064 0-18.9999991-8.495934-18.9999991-18.999999s8.4959351-18.9999994 18.9999991-18.9999994c3.398374 0 6.487805.9268293 9.113821 2.3170731l-4.170731 4.1707313c-1.544716-.617886-3.243903-.926829-4.94309-.926829-7.414634 0-13.284552 6.02439-13.284552 13.284552-.154472 7.414634 5.715447 13.439024 13.130081 13.439024z" fill="url(#c)" />
  </g>
</svg>
