<svg viewBox="0 0 48 48" xmlns="http://www.w3.org/2000/svg" xmlns:xlink="http://www.w3.org/1999/xlink"><linearGradient id="a" gradientTransform="matrix(0 -1 1 0 -.000002 47.999998)" gradientUnits="userSpaceOnUse" x1="399.9939" x2="399.9939" y1="545.13873" y2="518.13873"><stop offset="0" stop-color="#8e3456"/><stop offset="1" stop-color="#d36b91"/></linearGradient><circle cx="400.57138" cy="531.79791" fill="url(#a)" r="13.999958" transform="matrix(1.64285849 0 0 1.64285849 -634.082092 -849.668711)"/><path clip-rule="evenodd" d="m39.89947 22.223368c-.0506-.449821-.575075-.787841-1.028587-.787841-1.466263 0-2.767386-.860946-3.313053-2.19243-.557453-1.36375-.198002-2.954196.89476-3.95659.343974-.314446.385765-.840824.09728-1.206467-.750455-.952982-1.603424-1.813809-2.534737-2.559858-.36469-.292657-.89976-.251938-1.215992.09823-.953696 1.056209-2.666778 1.44876-3.990523.896426-1.377561-.57948-2.246246-1.975377-2.161235-3.4737873.02798-.470657-.315994-.879878-.785222-.934528-1.195156-.138232-2.40079-.142518-3.599519-.0095-.46387.0512-.807844.450774-.792246.915478.05215 1.4836463-.827014 2.8551353-2.190883 3.4137793-1.307909.534237-3.008965.145019-3.960756-.901784-.314565-.344807-.840944-.387193-1.20742-.101561-.958935.75236-1.831073 1.613901-2.588435 2.559025-.295395.367429-.251937.899999.09549 1.216111 1.113598 1.008466 1.473169 2.612724.894641 3.99219-.552334 1.315172-1.917989 2.162783-3.4814081 2.162783-.507329-.01631-.868685.324209-.924169.78546-.140733 1.202062-.142399 2.426865-.0069 3.638691.05024.451726.590673.78677 1.049185.78677 1.3932781-.0356 2.7309531.827013 3.2920981 2.192549.559359 1.36375.199788 2.953243-.894641 3.95647-.342306.314446-.385764.839991-.09727 1.205634.74343.94691 1.596518 1.80857 2.531164 2.560812.366596.295395.899999.253723 1.217779-.09644.957268-1.058829 2.670231-1.450666 3.988737-.89726 1.381014.577695 2.249699 1.973473 2.164688 3.472717-.02774.470895.317899.880829.785222.934646.611389.07132 1.22647.106919 1.843217.106919.585434 0 1.170987-.03215 1.756421-.09727.463989-.0512.807725-.450773.792127-.91631-.0537-1.482814.827013-2.854303 2.189096-3.411995 1.31672-.537808 3.010633-.144185 3.962543.901547.316351.344092.839039.385646 1.207539.100965.957149-.750574 1.827501-1.611401 2.588434-2.559144.295277-.366596.253605-.899999-.09561-1.215993-1.113599-1.008465-1.474955-2.612961-.896427-3.991475.54388-1.29767 1.858815-2.168974 3.273166-2.168974l.197883.0051c.458751.03727.88083-.316112.936433-.784388.14097-1.203134.142637-2.426865.0071-3.638691zm-15.874102 7.147365c-2.943004 0-5.336889-2.393885-5.336889-5.33689 0-2.942885 2.393885-5.336889 5.336889-5.336889 2.942885 0 5.33677 2.394004 5.33677 5.336889 0 2.943005-2.393885 5.33689-5.33677 5.33689z" fill="#fff" fill-opacity=".846939" fill-rule="evenodd" stroke-width="1.317422"/></svg>