<svg height="48" viewBox="0 0 48 48" width="48" xmlns="http://www.w3.org/2000/svg" xmlns:xlink="http://www.w3.org/1999/xlink">
  <linearGradient id="a" gradientUnits="userSpaceOnUse" x1="54.757053" x2="54.810017" y1="-1.581648" y2="14.075164">
    <stop offset="0" stop-color="#737373" />
    <stop offset="1" stop-color="#404040" />
  </linearGradient>
  <linearGradient id="b" gradientUnits="userSpaceOnUse" x1="54.711636" x2="54.821854" xlink:href="#j" y1="1.341996" y2="9.719453" />
  <linearGradient id="c" gradientTransform="matrix(.60697722 -.7924111 1.1573458 .88651278 -86.493096 13.0619)" gradientUnits="userSpaceOnUse" x1="5.751735" x2="43.945366" y1="43.663082" y2="9.625736">
    <stop offset="0" stop-color="#0079e5" />
    <stop offset="1" stop-color="#0db9f5" />
  </linearGradient>
  <linearGradient id="d" gradientTransform="matrix(.36824634 0 0 .36824634 -57.29573 2.000137)" gradientUnits="userSpaceOnUse" x1="243.74538" x2="196.62212" xlink:href="#c" y1="54.914543" y2="7.408946" />
  <linearGradient id="e" gradientUnits="userSpaceOnUse" x1="27.067293" x2="40.332458" y1="7.391122" y2="21.672005">
    <stop offset="0" stop-color="#007ae6" />
    <stop offset="1" stop-color="#0fbaf5" />
  </linearGradient>
  <linearGradient id="f" gradientTransform="matrix(.36824634 0 0 .36824634 -57.29573 2.000137)" gradientUnits="userSpaceOnUse" x1="259.37405" x2="248.6653" xlink:href="#c" y1="47.040424" y2="127.36504" />
  <linearGradient id="g" gradientTransform="matrix(.36824634 0 0 .36824634 -57.29573 2.000137)" gradientUnits="userSpaceOnUse" x1="188.70857" x2="178.09871" xlink:href="#c" y1="13.376336" y2="110.83438" />
  <linearGradient id="h" gradientTransform="matrix(.36824634 0 0 .36824634 -57.29573 2.000137)" gradientUnits="userSpaceOnUse" x1="177.06761" x2="193.20412" xlink:href="#c" y1="96.85965" y2="90.134377" />
  <linearGradient id="i" gradientUnits="userSpaceOnUse" x1="15.68611" x2="20.66856" y1="40.48065" y2="15.899916">
    <stop offset="0" stop-color="#fff" />
    <stop offset="1" stop-color="#b4b4b4" />
  </linearGradient>
  <linearGradient id="j" gradientUnits="userSpaceOnUse" x1="16.367502" x2="20.907445" y1="29.493935" y2="15.630177">
    <stop offset="0" stop-color="#fff" />
    <stop offset="1" stop-color="#dcdcdc" stop-opacity=".843137" />
  </linearGradient>
  <g fill-rule="evenodd" stroke-width=".368246">
    <path d="m3.622474 18.697002s-.3314696 2.266986.025924 3.452921c-.1427912 1.894191.1613177 7.062885.1613177 7.062885s1.9637325 10.628102 9.5154123 12.475837c.119993.0288-1.577825-2.64919-2.32883-5.878947 1.462111 1.487193 3.204674 2.663723 5.16071 2.867506.239982.0248-2.306032-3.485412-2.306032-3.485412z" fill="url(#h)" />
    <path d="m5.7349854 13.28519-2.5625453 14.570388 1.4207865 4.9872 28.2182164 9.405152 5.406368-22.925329z" fill="url(#i)" />
    <path d="m5.3653508 13.243992s.7455846 1.879741 1.3837261 2.668369c.6341497.795754 9.1531601 13.694546 9.5806801 13.580826 4.435578-1.177535 22.592318-7.791019 22.592318-7.791019l3.344619-2.545729z" fill="url(#j)" />
    <path d="m6.7729982 25.708012c-.8527554-.014822-2.2233794-.718515-2.6677128-1.570416-.5554885 9.259757 3.222347 14.667292 9.2201406 17.551045-1.960028-.22459-11.7017416-5.365354-11.7017416-17.736303 0-10.518941 8.346863-19.9212049 21.4089696-20.3518582.08009.5896901-6.475763 2.0683328-6.685531 2.7637623-.325482 1.0821909-1.07364 2.2601457-1.704373 3.2046759-.855035 1.279419 1.188217 3.846566-.313226 4.191431-2.259291.518437-5.2730082-.505063-7.4952496 2.383819-3.340624 4.342444-1.1115479 8.573712-.061276 9.563844z" fill="url(#g)" />
    <path d="m26.881171 3.5639983c-2.59304-.3360292-4.760557-.2699064-6.603445.085219.579428-.5554885 1.250063-.8291001 1.250063-.8291001-.869002.076668-1.953473.6441273-2.884322 1.2446477-.469131.1496314-.916031.3186436-1.339272.5070365.259076-.3414444.560619-.7065449.855319-.9867118 1.094163-1.0405791 2.719304-1.579252 2.719304-1.579252-1.386871-.1017493-6.028579 1.0864661-8.821695 6.7433858-.45773.5577687-.884962 1.1297882-1.291963 1.7032316-1.0505511 1.479498-.9354079 2.837581-.573157 4.47868.154476.700845.182978 1.819518.03049 2.542308-.03049.144786-.4280898.518722-.5301235 1.527095-.1091593 1.069935.2727563 1.595497.6492585 2.030141 1.337563-1.955753 2.656883-2.343369 2.656883-2.343369 1.871958-.766968 2.651182-1.586093 4.655101-2.608431 2.737827-1.396844 12.311669 3.162209 18.395536 1.16855 1.872243-.613346-.720797-8.5822844.301256-8.8268246-2.844983-3.1453935-6.975948-4.5334024-9.469233-4.8566061z" fill="url(#d)" />
    <path d="m30.908353 5.3432999c-.408208.0004897-.710892.048509-.945785.1287424-.234673.080157-.401868.1928837-.539426.3222155-.229609.2158819-.376801.4786643-.617818.718512-.09635.095884-.207606.1879699-.345231.2718693-.137625.083899-.30131.1593615-.502745.2222425-1.735935.5418079-3.044885 1.0273127-4.031288 1.4506892-2.959217 1.2701295-3.018615 1.9814812-3.018615 1.9814812.239511.01126.468185.02964.70197.04459 11.746881.933463 13.7624 10.99424 11.829914 16.367543-.446109.749349-.94927 1.51391-1.527648 2.295066.0969-.0226.182967-.05113.270432-.07911-.08854.09895-.177078.197717-.270432.284815.773063-.180307 1.590964-.903437 2.390007-2.039739.01462.174368.303232 4.000884-2.779111 7.708719 0 0 1.289245-.362855 2.74387-1.070216-.798929 3.746192-2.953421 8.222642-9.924674 11.614147 0 0 5.866507-.479601 8.77534-3.754389-1.183083 2.720441-4.429024 4.189523-4.429024 4.189523 2.388969-.349425 8.664052-2.20068 12.661344-7.199504 4.523998-5.658346 5.884599-10.966729 4.522525-18.08291-.0092-.04833-.02125-.09629-.03093-.144566-1.29495-6.559176-6.600901-12.5895823-11.690382-14.5586765-.000213-.0000825-.000368.0000825-.000736 0-.929502-.3595591-1.851164-.5823774-2.740269-.6494657-.0186-.0014-.03754-.00449-.0561-.00575-.000258-.0000176-.000368.0000177-.000736 0-.160961-.010955-.308414-.015987-.444485-.015823z" fill="url(#f)" />
    <path d="m30.956542 4.7024649s-2.994789.5568986-2.480625 1.3902739c.02651.042752.08799.096817.175491.1589499-2.627242-1.2101611-4.117598 1.5729587-4.117598 1.5729587-1.50116-.091204-3.3293.6476569-3.862271 2.6273506-.0553.205494.672694.08966 1.047201.171178 2.188893.47597 4.248915 1.507557 5.195724 2.017443 2.202573 1.186506 3.509608 3.162012 4.264322 4.644075.907893 1.783745 1.279991 4.905201 1.283828 4.937522.28876 5.557301-1.054392 7.610185-1.054392 7.610185s3.634841-1.394805 5.377689-5.88403c.71994 1.908726-.02228 3.917652-.02228 3.917652s2.93724-2.194445 3.568826-6.194019c.699992 1.128933.494113 3.382544.494113 3.382544s1.874746-2.609631 1.920346-5.451772c.868719.605651.948665 2.971863.948665 2.971863s2.778813-3.553806-.663849-8.794039c-2.96454-4.5129569-5.333425-5.9025981-5.684102-6.0918874-.355413-.2479598-.713175-.4770672-1.058708-.6911811-3.245432-2.0124703-5.33238-2.2950666-5.33238-2.2950666z" fill="url(#e)" />
  </g>
  <g transform="matrix(1.25 0 0 1.25 -32.446188 28.129356)">
    <circle cx="54.75695" cy="6.296515" fill="url(#a)" r="8" stroke-width=".046124" />
    <path d="m52.296417 2.0865832-.71329-.7150436c-1.195779.9100536-1.986724 2.3252859-2.061331 3.9246232h1.00035c.07461-1.3240586.755178-2.4849472 1.774271-3.2095796zm6.695336 3.2095796h1.000351c-.074613-1.5993373-.865553-3.0145696-2.06526-3.9246232l-.715024.7150436c1.024755.7246324 1.705326 1.885521 1.779933 3.2095796zm-.98466.250855c0-1.5351973-1.06449-2.8204372-2.500657-3.1598546v-.340715c0-.4144436-.334175-.7499336-.749497-.7499336-.41532 0-.749495.33549-.749495.7499336v.340715c-1.436167.3394174-2.500658 1.625076-2.500658 3.1598546v2.7497602l-.999912.9990349v.4999551h8.500131v-.4999551l-.999912-.9990349zm-3.250154 5.7494962c.07024 0 .134799-.0044.200672-.02009.323708-.06456.59462-.289674.718952-.590692.05017-.118662.08071-.249101.08071-.389581h-2.000682c0 .550139.450232 1.000349 1.000352 1.000349z" fill="url(#b)" stroke-width=".625" />
  </g>
</svg>
