<svg height="48" width="48" xmlns="http://www.w3.org/2000/svg" xmlns:xlink="http://www.w3.org/1999/xlink"><linearGradient id="a" gradientUnits="userSpaceOnUse" x1="399.57144" x2="399.57144" y1="545.79797" y2="517.79797"><stop offset="0" stop-color="#3889e9"/><stop offset="1" stop-color="#5ea5fb"/></linearGradient><linearGradient id="b" gradientUnits="userSpaceOnUse" x1="399.9939" x2="399.9939" y1="545.13873" y2="518.13873"><stop offset="0" stop-color="#ec396c"/><stop offset="1" stop-color="#ff709a"/></linearGradient><g transform="matrix(1.0320907 0 0 1.0320907 -397.944051 -516.758263)"><g stroke-width="1.299897" transform="matrix(1.660988544306 0 0 1.660988544306 -256.539274085407 -359.357010226905)"><circle cx="400.57138" cy="531.79791" fill="url(#b)" r="13.999958"/><circle cx="400.57138" cy="531.79791" fill="url(#a)" r="0"/></g><path d="m405.78188 509.4131c-.31248.0341-.58887.28972-.64636.59883l-.62131 3.15542c-1.11881.43646-2.1698 1.03639-3.09256 1.77342l-3.06866-1.03626c-.31884-.11012-.7054.0324-.87669.32208l-2.95383 5.11347c-.16635.29408-.0939.70091.16261.92127l2.44574 2.14179c-.0862.57414-.13969 1.15197-.13969 1.75042 0 .59847.0535 1.1763.13969 1.75043l-2.44574 2.1418c-.25647.22036-.32899.6272-.16261.92128l2.95383 5.11345c.17129.28967.55785.43189.87669.32209l3.06866-1.03626c.92276.73701 1.97375 1.33696 3.09256 1.77329l.62131 3.15593c.0634.33017.37882.59403.71564.59845h5.90797c.33683-.005.65227-.26828.71565-.59845l.62131-3.15593c1.11879-.43633 2.1698-1.03628 3.09254-1.77329l3.06898 1.03626c.31838.10979.70532-.0324.87632-.32209l2.95399-5.11345c.16654-.29408.0937-.70092-.16295-.92128l-2.44544-2.1418c.0862-.57413.13936-1.15196.13936-1.75043 0-.59845-.0532-1.17628-.13936-1.75042l2.44544-2.14179c.25649-.22036.32944-.62719.16295-.92127l-2.95399-5.11347c-.171-.28964-.55794-.43219-.87632-.32208l-3.06898 1.03626c-.92274-.73703-1.97375-1.33696-3.09254-1.77342l-.62131-3.15542c-.0634-.33025-.37882-.59426-.71565-.59883h-5.90797c-.0229-.00073-.0457-.00073-.0693 0zm3.02326 7.37022a7.3702244 7.3702244 0 0 1 7.37022 7.37022 7.3702244 7.3702244 0 0 1 -7.37022 7.37022 7.3702244 7.3702244 0 0 1 -7.37022-7.37022 7.3702244 7.3702244 0 0 1 7.37022-7.37022z" fill="#fff" fill-opacity=".85"/></g></svg>