<svg height="48" width="48" xmlns="http://www.w3.org/2000/svg" xmlns:xlink="http://www.w3.org/1999/xlink">
  <linearGradient id="a" gradientUnits="userSpaceOnUse" x1="23.61899" x2="24.378834" xlink:href="#b" y1="37.227291" y2="-3.519649" />
  <linearGradient id="b" gradientUnits="userSpaceOnUse" x1="556.43549" x2="555.29846" y1="470.48056" y2="421.86777">
    <stop offset="0" stop-color="#30cf41" />
    <stop offset="1" stop-color="#47f383" />
  </linearGradient>
  <linearGradient id="c" gradientUnits="userSpaceOnUse" x1="408.57138" x2="408.57138" y1="543.7981" y2="503.79807">
    <stop offset="0" stop-color="#e4e4e4" />
    <stop offset="1" stop-color="#eee" />
  </linearGradient>
  <linearGradient id="d" gradientUnits="userSpaceOnUse" x1="23.61899" x2="24.025999" xlink:href="#b" y1="37.227291" y2="12.005066" />
  <linearGradient id="e" gradientUnits="userSpaceOnUse" x1="543.94849" x2="543.74268" y1="484.80768" y2="427.53772">
    <stop offset="0" stop-color="#86d0fb" />
    <stop offset="1" stop-color="#2794f5" />
  </linearGradient>
  <linearGradient id="f" gradientUnits="userSpaceOnUse" x1="520.21163" x2="522.040305" y1="450.541801" y2="434.368866">
    <stop offset="0" stop-color="#eefefe" />
    <stop offset="1" stop-color="#d6fefe" />
  </linearGradient>
  <linearGradient id="g" gradientTransform="matrix(.96522503 -.00790318 -.00790388 1.0083274 20.41848 1.480547)" gradientUnits="userSpaceOnUse" x1="542.83392" x2="543.25458" y1="484.29376" y2="463.62488">
    <stop offset="0" stop-color="#132e51" />
    <stop offset="1" stop-color="#2767b9" />
  </linearGradient>
  <rect fill="url(#b)" height="58.986568" ry="2.3" transform="matrix(.48547139 -.00304792 .00304792 .48547139 -239.260211 -203.272065)" width="76.809471" x="504.25668" y="426.46411" />
  <rect fill="url(#e)" height="58.986568" ry="2.3" transform="matrix(.47786945 -.08563027 .08563027 .47786945 -275.666209 -145.651105)" width="76.809471" x="504.25668" y="426.46411" />
  <path d="m504.2304 479.41184 14.55149-4.65732 4.59402 3.09494 10.68866-3.70865 10.51696 3.49583 7.58063 1.61197 5.83015-2.02302 7.18039-1.82153 11.56837 4.36341-.0451 5.71285-69.41559.56851s-3.10616.57841-3.08552-2.07338z" fill="url(#g)" fill-rule="evenodd" transform="matrix(.47786945 -.08563027 .08563027 .47786945 -275.666209 -145.651105)" />
  <circle cx="521.2431" cy="443.27579" fill="url(#f)" opacity=".811" r="7.594486" transform="matrix(.47786945 -.08563027 .08563027 .47786945 -275.666209 -145.651105)" />
  <g stroke-width="1.317422" transform="matrix(.48956818 0 0 .48956818 -214.995504 -222.747853)">
    <rect fill="url(#c)" height="40" ry="20" transform="matrix(1.1 0 0 1.1 61.33177 -49.451947)" width="40" x="388.57144" y="503.798" />
    <g fill="url(#d)" transform="matrix(1.1774571 0 0 1.1774571 482.50139 497.28683)">
      <text opacity=".8" x="877.22626" y="10.812601">
        <tspan fill="url(#d)" x="877.22626" y="10.812601" />
      </text>
      <text opacity=".8" x="901.18719" y="-29.929106">
        <tspan fill="url(#d)" x="901.18719" y="-29.929106" />
      </text>
      <text opacity=".8" x="-569.37115" y="-60.007248">
        <tspan fill="url(#d)" x="-569.37115" y="-60.007248" />
      </text>
      <text opacity=".8" x="-2393.0571" y="685.5462">
        <tspan fill="url(#d)" x="-2393.0571" y="685.5462" />
      </text>
      <text opacity=".8" x="-454.88007" y="-445.32822">
        <tspan fill="url(#d)" x="-454.88007" y="-445.32822" />
      </text>
      <text opacity=".8" x="352.72208" y="-858.79834">
        <tspan fill="url(#d)" x="352.72208" y="-858.79834" />
      </text>
      <text opacity=".8" x="376.68301" y="-899.54004">
        <tspan fill="url(#d)" x="376.68301" y="-899.54004" />
      </text>
      <text opacity=".8" x="-1114.7802" y="-906.74994">
        <tspan fill="url(#d)" x="-1114.7802" y="-906.74994" />
      </text>
      <text opacity=".8" x="345.7626" y="-1179.9841">
        <tspan fill="url(#d)" x="345.7626" y="-1179.9841" />
      </text>
      <text opacity=".8" x="1831.8861" y="-553.29272">
        <tspan fill="url(#d)" x="1831.8861" y="-553.29272" />
      </text>
      <text opacity=".8" x="1855.8469" y="-594.03448">
        <tspan fill="url(#d)" x="1855.8469" y="-594.03448" />
      </text>
      <text opacity=".8" x="364.38376" y="-601.24438">
        <tspan fill="url(#d)" x="364.38376" y="-601.24438" />
      </text>
      <text opacity=".8" x="1824.9266" y="-874.47839">
        <tspan fill="url(#d)" x="1824.9266" y="-874.47839" />
      </text>
      <text opacity=".8" x="-573.43256" y="-649.33569">
        <tspan fill="url(#d)" x="-573.43256" y="-649.33569" />
      </text>
      <text opacity=".8" x="-2397.1182" y="96.217857">
        <tspan fill="url(#d)" x="-2397.1182" y="96.217857" />
      </text>
      <text opacity=".8" x="-682.36279" y="189.09">
        <tspan fill="url(#d)" x="-682.36279" y="189.09" />
      </text>
      <text opacity=".8" x="426.66153" y="9.907852">
        <tspan fill="url(#d)" x="426.66153" y="9.907852" />
      </text>
      <text opacity=".8" x="450.62247" y="-30.833855">
        <tspan fill="url(#d)" x="450.62247" y="-30.833855" />
      </text>
      <text opacity=".8" x="-1040.8407" y="-38.043827">
        <tspan fill="url(#d)" x="-1040.8407" y="-38.043827" />
      </text>
      <text opacity=".8" x="419.70206" y="-311.27789">
        <tspan fill="url(#d)" x="419.70206" y="-311.27789" />
      </text>
      <text opacity=".8" x="-608.03253" y="-40.758072">
        <tspan fill="url(#d)" x="-608.03253" y="-40.758072" />
      </text>
      <text opacity=".8" x="-2431.7185" y="704.79541">
        <tspan fill="url(#d)" x="-2431.7185" y="704.79541" />
      </text>
      <text opacity=".8" x="-456.93948" y="-902.28857">
        <tspan fill="url(#d)" x="-456.93948" y="-902.28857" />
      </text>
      <text opacity=".8" x="350.66266" y="-1315.7588">
        <tspan fill="url(#d)" x="350.66266" y="-1315.7588" />
      </text>
      <text opacity=".8" x="374.62357" y="-1356.5005">
        <tspan fill="url(#d)" x="374.62357" y="-1356.5005" />
      </text>
      <text opacity=".8" x="-1116.8396" y="-1363.7104">
        <tspan fill="url(#d)" x="-1116.8396" y="-1363.7104" />
      </text>
      <text opacity=".8" x="343.70316" y="-1636.9446">
        <tspan fill="url(#d)" x="343.70316" y="-1636.9446" />
      </text>
      <text opacity=".8" x="1829.8265" y="-1010.2533">
        <tspan fill="url(#d)" x="1829.8265" y="-1010.2533" />
      </text>
      <text opacity=".8" x="1853.7874" y="-1050.9949">
        <tspan fill="url(#d)" x="1853.7874" y="-1050.9949" />
      </text>
      <text opacity=".8" x="362.32431" y="-1058.2048">
        <tspan fill="url(#d)" x="362.32431" y="-1058.2048" />
      </text>
      <text opacity=".8" x="1822.8671" y="-1331.439">
        <tspan fill="url(#d)" x="1822.8671" y="-1331.439" />
      </text>
      <text opacity=".8" x="-575.492" y="-1106.2961">
        <tspan fill="url(#d)" x="-575.492" y="-1106.2961" />
      </text>
      <text opacity=".8" x="-2399.1777" y="-360.74261">
        <tspan fill="url(#d)" x="-2399.1777" y="-360.74261" />
      </text>
      <text opacity=".8" x="-684.42224" y="-267.87045">
        <tspan fill="url(#d)" x="-684.42224" y="-267.87045" />
      </text>
      <text opacity=".8" x="155.5923" y="-26.956278">
        <tspan fill="url(#d)" x="155.5923" y="-26.956278" />
      </text>
      <text opacity=".8" x="179.55324" y="-67.697998">
        <tspan fill="url(#d)" x="179.55324" y="-67.697998" />
      </text>
      <text opacity=".8" x="-1090.2634" y="-261.72662">
        <tspan fill="url(#d)" x="-1090.2634" y="-261.72662" />
      </text>
      <text opacity=".8" x="-282.66141" y="-675.19678">
        <tspan fill="url(#d)" x="-282.66141" y="-675.19678" />
      </text>
      <text opacity=".8" x="-258.70047" y="-715.93848">
        <tspan fill="url(#d)" x="-258.70047" y="-715.93848" />
      </text>
      <text opacity=".8" x="-1750.1636" y="-723.14838">
        <tspan fill="url(#d)" x="-1750.1636" y="-723.14838" />
      </text>
      <text opacity=".8" x="-289.62085" y="-996.38251">
        <tspan fill="url(#d)" x="-289.62085" y="-996.38251" />
      </text>
      <text opacity=".8" x="1196.5026" y="-369.69113">
        <tspan fill="url(#d)" x="1196.5026" y="-369.69113" />
      </text>
      <text opacity=".8" x="1220.4634" y="-410.43286">
        <tspan fill="url(#d)" x="1220.4634" y="-410.43286" />
      </text>
      <text opacity=".8" x="-270.99973" y="-417.64282">
        <tspan fill="url(#d)" x="-270.99973" y="-417.64282" />
      </text>
      <text opacity=".8" x="1189.5431" y="-690.87689">
        <tspan fill="url(#d)" x="1189.5431" y="-690.87689" />
      </text>
      <text opacity=".8" x="-1208.816" y="-465.7341">
        <tspan fill="url(#d)" x="-1208.816" y="-465.7341" />
      </text>
      <text opacity=".8" x="-3032.5017" y="279.81946">
        <tspan fill="url(#d)" x="-3032.5017" y="279.81946" />
      </text>
      <text opacity=".8" transform="matrix(.90475 0 0 .90475 -716.75 -676.29)" x="-664.2738" y="1159.4154">
        <tspan fill="url(#d)" x="-664.2738" y="1159.4154" />
      </text>
      <text opacity=".8" x="877.22626" y="18.050589">
        <tspan fill="url(#d)" x="877.22626" y="18.050589" />
      </text>
      <text opacity=".8" x="901.18719" y="-22.691116">
        <tspan fill="url(#d)" x="901.18719" y="-22.691116" />
      </text>
      <text opacity=".8" x="-569.37115" y="-52.76926">
        <tspan fill="url(#d)" x="-569.37115" y="-52.76926" />
      </text>
      <text opacity=".8" x="-2393.0571" y="692.78418">
        <tspan fill="url(#d)" x="-2393.0571" y="692.78418" />
      </text>
      <text opacity=".8" x="-454.88007" y="-438.09021">
        <tspan fill="url(#d)" x="-454.88007" y="-438.09021" />
      </text>
      <text opacity=".8" x="352.72208" y="-851.5603">
        <tspan fill="url(#d)" x="352.72208" y="-851.5603" />
      </text>
      <text opacity=".8" x="376.68301" y="-892.30206">
        <tspan fill="url(#d)" x="376.68301" y="-892.30206" />
      </text>
      <text opacity=".8" x="-1114.7802" y="-899.51196">
        <tspan fill="url(#d)" x="-1114.7802" y="-899.51196" />
      </text>
      <text opacity=".8" x="345.7626" y="-1172.7461">
        <tspan fill="url(#d)" x="345.7626" y="-1172.7461" />
      </text>
      <text opacity=".8" x="1831.8861" y="-546.05475">
        <tspan fill="url(#d)" x="1831.8861" y="-546.05475" />
      </text>
      <text opacity=".8" x="1855.8469" y="-586.79651">
        <tspan fill="url(#d)" x="1855.8469" y="-586.79651" />
      </text>
      <text opacity=".8" x="364.38376" y="-594.00641">
        <tspan fill="url(#d)" x="364.38376" y="-594.00641" />
      </text>
      <text opacity=".8" x="1824.9266" y="-867.24036">
        <tspan fill="url(#d)" x="1824.9266" y="-867.24036" />
      </text>
      <text opacity=".8" x="-573.43256" y="-642.09772">
        <tspan fill="url(#d)" x="-573.43256" y="-642.09772" />
      </text>
      <text opacity=".8" x="-2397.1182" y="103.45585">
        <tspan fill="url(#d)" x="-2397.1182" y="103.45585" />
      </text>
      <text opacity=".8" x="-682.36279" y="196.32799">
        <tspan fill="url(#d)" x="-682.36279" y="196.32799" />
      </text>
      <text opacity=".8" x="426.66153" y="17.14584">
        <tspan fill="url(#d)" x="426.66153" y="17.14584" />
      </text>
      <text opacity=".8" x="450.62247" y="-23.595865">
        <tspan fill="url(#d)" x="450.62247" y="-23.595865" />
      </text>
      <text opacity=".8" x="-1040.8407" y="-30.805836">
        <tspan fill="url(#d)" x="-1040.8407" y="-30.805836" />
      </text>
      <text opacity=".8" x="419.70206" y="-304.03989">
        <tspan fill="url(#d)" x="419.70206" y="-304.03989" />
      </text>
      <text opacity=".8" x="-608.03253" y="-33.520081">
        <tspan fill="url(#d)" x="-608.03253" y="-33.520081" />
      </text>
      <text opacity=".8" x="-2431.7185" y="712.03345">
        <tspan fill="url(#d)" x="-2431.7185" y="712.03345" />
      </text>
      <text opacity=".8" x="-456.93948" y="-895.0506">
        <tspan fill="url(#d)" x="-456.93948" y="-895.0506" />
      </text>
      <text opacity=".8" x="350.66266" y="-1308.5208">
        <tspan fill="url(#d)" x="350.66266" y="-1308.5208" />
      </text>
      <text opacity=".8" x="374.62357" y="-1349.2626">
        <tspan fill="url(#d)" x="374.62357" y="-1349.2626" />
      </text>
      <text opacity=".8" x="-1116.8396" y="-1356.4724">
        <tspan fill="url(#d)" x="-1116.8396" y="-1356.4724" />
      </text>
      <text opacity=".8" x="343.70316" y="-1629.7065">
        <tspan fill="url(#d)" x="343.70316" y="-1629.7065" />
      </text>
      <text opacity=".8" x="1829.8265" y="-1003.0153">
        <tspan fill="url(#d)" x="1829.8265" y="-1003.0153" />
      </text>
      <text opacity=".8" x="1853.7874" y="-1043.757">
        <tspan fill="url(#d)" x="1853.7874" y="-1043.757" />
      </text>
      <text opacity=".8" x="362.32431" y="-1050.9668">
        <tspan fill="url(#d)" x="362.32431" y="-1050.9668" />
      </text>
      <text opacity=".8" x="1822.8671" y="-1324.2009">
        <tspan fill="url(#d)" x="1822.8671" y="-1324.2009" />
      </text>
      <text opacity=".8" x="-575.492" y="-1099.0581">
        <tspan fill="url(#d)" x="-575.492" y="-1099.0581" />
      </text>
      <text opacity=".8" x="-2399.1777" y="-353.50461">
        <tspan fill="url(#d)" x="-2399.1777" y="-353.50461" />
      </text>
      <text opacity=".8" x="-684.42224" y="-260.63245">
        <tspan fill="url(#d)" x="-684.42224" y="-260.63245" />
      </text>
      <text opacity=".8" x="155.5923" y="-19.71829">
        <tspan fill="url(#d)" x="155.5923" y="-19.71829" />
      </text>
      <text opacity=".8" x="179.55324" y="-60.460011">
        <tspan fill="url(#d)" x="179.55324" y="-60.460011" />
      </text>
      <text opacity=".8" x="-1090.2634" y="-254.4886">
        <tspan fill="url(#d)" x="-1090.2634" y="-254.4886" />
      </text>
      <text opacity=".8" x="-282.66141" y="-667.9588">
        <tspan fill="url(#d)" x="-282.66141" y="-667.9588" />
      </text>
      <text opacity=".8" x="-258.70047" y="-708.7005">
        <tspan fill="url(#d)" x="-258.70047" y="-708.7005" />
      </text>
      <text opacity=".8" x="-1750.1636" y="-715.91046">
        <tspan fill="url(#d)" x="-1750.1636" y="-715.91046" />
      </text>
      <text opacity=".8" x="-289.62085" y="-989.14447">
        <tspan fill="url(#d)" x="-289.62085" y="-989.14447" />
      </text>
      <text opacity=".8" x="1196.5026" y="-362.45316">
        <tspan fill="url(#d)" x="1196.5026" y="-362.45316" />
      </text>
      <text opacity=".8" x="1220.4634" y="-403.19489">
        <tspan fill="url(#d)" x="1220.4634" y="-403.19489" />
      </text>
      <text opacity=".8" x="-270.99973" y="-410.40482">
        <tspan fill="url(#d)" x="-270.99973" y="-410.40482" />
      </text>
      <text opacity=".8" x="1189.5431" y="-683.63892">
        <tspan fill="url(#d)" x="1189.5431" y="-683.63892" />
      </text>
      <text opacity=".8" x="-1208.816" y="-458.49609">
        <tspan fill="url(#d)" x="-1208.816" y="-458.49609" />
      </text>
      <text opacity=".8" x="-3032.5017" y="287.05743">
        <tspan fill="url(#d)" x="-3032.5017" y="287.05743" />
      </text>
      <text opacity=".8" transform="matrix(.90475 0 0 .90475 -716.75 -669.05)" x="-664.2738" y="1159.4154">
        <tspan fill="url(#d)" x="-664.2738" y="1159.4154" />
      </text>
      <text x="435.90427" y="-361.22546">
        <tspan fill="url(#d)" x="435.90427" y="-361.22546" />
        <tspan fill="url(#d)" x="435.90427" y="-345.3924" />
      </text>
      <text opacity=".8" x="901.0882" y="-843.27002">
        <tspan fill="url(#d)" x="901.0882" y="-843.27002" />
      </text>
      <text opacity=".8" x="-922.59778" y="-97.716553">
        <tspan fill="url(#d)" x="-922.59778" y="-97.716553" />
      </text>
      <text opacity=".8" x="1628.1677" y="-1128.2659">
        <tspan fill="url(#d)" x="1628.1677" y="-1128.2659" />
      </text>
      <text opacity=".8" x="1652.1285" y="-1169.0076">
        <tspan fill="url(#d)" x="1652.1285" y="-1169.0076" />
      </text>
      <text opacity=".8" x="160.66542" y="-1176.2175">
        <tspan fill="url(#d)" x="160.66542" y="-1176.2175" />
      </text>
      <text opacity=".8" x="1621.2083" y="-1449.4517">
        <tspan fill="url(#d)" x="1621.2083" y="-1449.4517" />
      </text>
      <text opacity=".8" x="808.48047" y="9.592262">
        <tspan fill="url(#d)" x="808.48047" y="9.592262" />
      </text>
      <text opacity=".8" x="832.44141" y="-31.149445">
        <tspan fill="url(#d)" x="832.44141" y="-31.149445" />
      </text>
      <text opacity=".8" x="-638.11694" y="-61.227589">
        <tspan fill="url(#d)" x="-638.11694" y="-61.227589" />
      </text>
      <text opacity=".8" x="-2461.803" y="684.32587">
        <tspan fill="url(#d)" x="-2461.803" y="684.32587" />
      </text>
      <text opacity=".8" x="-523.62585" y="-446.54855">
        <tspan fill="url(#d)" x="-523.62585" y="-446.54855" />
      </text>
      <text opacity=".8" x="283.97632" y="-860.01868">
        <tspan fill="url(#d)" x="283.97632" y="-860.01868" />
      </text>
      <text opacity=".8" x="307.93726" y="-900.76038">
        <tspan fill="url(#d)" x="307.93726" y="-900.76038" />
      </text>
      <text opacity=".8" x="-1183.5259" y="-907.97028">
        <tspan fill="url(#d)" x="-1183.5259" y="-907.97028" />
      </text>
      <text opacity=".8" x="277.01685" y="-1181.2045">
        <tspan fill="url(#d)" x="277.01685" y="-1181.2045" />
      </text>
      <text opacity=".8" x="1763.1404" y="-554.51306">
        <tspan fill="url(#d)" x="1763.1404" y="-554.51306" />
      </text>
      <text opacity=".8" x="1787.1012" y="-595.25482">
        <tspan fill="url(#d)" x="1787.1012" y="-595.25482" />
      </text>
      <text opacity=".8" x="295.638" y="-602.46472">
        <tspan fill="url(#d)" x="295.638" y="-602.46472" />
      </text>
      <text opacity=".8" x="1756.1809" y="-875.69873">
        <tspan fill="url(#d)" x="1756.1809" y="-875.69873" />
      </text>
      <text opacity=".8" x="-642.17834" y="-650.55603">
        <tspan fill="url(#d)" x="-642.17834" y="-650.55603" />
      </text>
      <text opacity=".8" x="-2465.864" y="94.99752">
        <tspan fill="url(#d)" x="-2465.864" y="94.99752" />
      </text>
      <text opacity=".8" x="-751.10858" y="187.86966">
        <tspan fill="url(#d)" x="-751.10858" y="187.86966" />
      </text>
      <text opacity=".8" x="357.91577" y="8.687513">
        <tspan fill="url(#d)" x="357.91577" y="8.687513" />
      </text>
      <text opacity=".8" x="381.87671" y="-32.054195">
        <tspan fill="url(#d)" x="381.87671" y="-32.054195" />
      </text>
      <text opacity=".8" x="-1109.5864" y="-39.264168">
        <tspan fill="url(#d)" x="-1109.5864" y="-39.264168" />
      </text>
      <text opacity=".8" x="350.9563" y="-312.49823">
        <tspan fill="url(#d)" x="350.9563" y="-312.49823" />
      </text>
      <text opacity=".8" x="-676.77832" y="-41.978413">
        <tspan fill="url(#d)" x="-676.77832" y="-41.978413" />
      </text>
      <text opacity=".8" x="-2500.4644" y="703.57507">
        <tspan fill="url(#d)" x="-2500.4644" y="703.57507" />
      </text>
      <text opacity=".8" x="-525.68524" y="-903.50891">
        <tspan fill="url(#d)" x="-525.68524" y="-903.50891" />
      </text>
      <text opacity=".8" x="281.9169" y="-1316.9791">
        <tspan fill="url(#d)" x="281.9169" y="-1316.9791" />
      </text>
      <text opacity=".8" x="305.87781" y="-1357.7208">
        <tspan fill="url(#d)" x="305.87781" y="-1357.7208" />
      </text>
      <text opacity=".8" x="-1185.5853" y="-1364.9308">
        <tspan fill="url(#d)" x="-1185.5853" y="-1364.9308" />
      </text>
      <text opacity=".8" x="274.9574" y="-1638.1649">
        <tspan fill="url(#d)" x="274.9574" y="-1638.1649" />
      </text>
      <text opacity=".8" x="1761.0808" y="-1011.4736">
        <tspan fill="url(#d)" x="1761.0808" y="-1011.4736" />
      </text>
      <text opacity=".8" x="1785.0416" y="-1052.2152">
        <tspan fill="url(#d)" x="1785.0416" y="-1052.2152" />
      </text>
      <text opacity=".8" x="293.57855" y="-1059.4252">
        <tspan fill="url(#d)" x="293.57855" y="-1059.4252" />
      </text>
      <text opacity=".8" x="1754.1213" y="-1332.6593">
        <tspan fill="url(#d)" x="1754.1213" y="-1332.6593" />
      </text>
      <text opacity=".8" x="-644.23779" y="-1107.5165">
        <tspan fill="url(#d)" x="-644.23779" y="-1107.5165" />
      </text>
      <text opacity=".8" x="-2467.9236" y="-361.96295">
        <tspan fill="url(#d)" x="-2467.9236" y="-361.96295" />
      </text>
      <text opacity=".8" x="-753.16803" y="-269.09079">
        <tspan fill="url(#d)" x="-753.16803" y="-269.09079" />
      </text>
      <text opacity=".8" x="86.846535" y="-28.176617">
        <tspan fill="url(#d)" x="86.846535" y="-28.176617" />
      </text>
      <text opacity=".8" x="110.80747" y="-68.918335">
        <tspan fill="url(#d)" x="110.80747" y="-68.918335" />
      </text>
      <text opacity=".8" x="-1159.0092" y="-262.94696">
        <tspan fill="url(#d)" x="-1159.0092" y="-262.94696" />
      </text>
      <text opacity=".8" x="-351.40717" y="-676.41711">
        <tspan fill="url(#d)" x="-351.40717" y="-676.41711" />
      </text>
      <text opacity=".8" x="-327.44623" y="-717.15881">
        <tspan fill="url(#d)" x="-327.44623" y="-717.15881" />
      </text>
      <text opacity=".8" x="-1818.9093" y="-724.36871">
        <tspan fill="url(#d)" x="-1818.9093" y="-724.36871" />
      </text>
      <text opacity=".8" x="-358.36661" y="-997.60284">
        <tspan fill="url(#d)" x="-358.36661" y="-997.60284" />
      </text>
      <text opacity=".8" x="1127.7568" y="-370.91147">
        <tspan fill="url(#d)" x="1127.7568" y="-370.91147" />
      </text>
      <text opacity=".8" x="1151.7177" y="-411.6532">
        <tspan fill="url(#d)" x="1151.7177" y="-411.6532" />
      </text>
      <text opacity=".8" x="-339.74548" y="-418.86316">
        <tspan fill="url(#d)" x="-339.74548" y="-418.86316" />
      </text>
      <text opacity=".8" x="1120.7974" y="-692.09723">
        <tspan fill="url(#d)" x="1120.7974" y="-692.09723" />
      </text>
      <text opacity=".8" x="-1277.5618" y="-466.95444">
        <tspan fill="url(#d)" x="-1277.5618" y="-466.95444" />
      </text>
      <text opacity=".8" x="-3101.2476" y="278.59912">
        <tspan fill="url(#d)" x="-3101.2476" y="278.59912" />
      </text>
      <text opacity=".8" transform="matrix(.90475 0 0 .90475 -785.49576 -677.51034)" x="-664.2738" y="1159.4154">
        <tspan fill="url(#d)" x="-664.2738" y="1159.4154" />
      </text>
      <text opacity=".8" x="808.48047" y="16.83025">
        <tspan fill="url(#d)" x="808.48047" y="16.83025" />
      </text>
      <text opacity=".8" x="832.44141" y="-23.911455">
        <tspan fill="url(#d)" x="832.44141" y="-23.911455" />
      </text>
      <text opacity=".8" x="-638.11694" y="-53.989601">
        <tspan fill="url(#d)" x="-638.11694" y="-53.989601" />
      </text>
      <text opacity=".8" x="-2461.803" y="691.56384">
        <tspan fill="url(#d)" x="-2461.803" y="691.56384" />
      </text>
      <text opacity=".8" x="-523.62585" y="-439.31055">
        <tspan fill="url(#d)" x="-523.62585" y="-439.31055" />
      </text>
      <text opacity=".8" x="283.97632" y="-852.78064">
        <tspan fill="url(#d)" x="283.97632" y="-852.78064" />
      </text>
      <text opacity=".8" x="307.93726" y="-893.5224">
        <tspan fill="url(#d)" x="307.93726" y="-893.5224" />
      </text>
      <text opacity=".8" x="-1183.5259" y="-900.7323">
        <tspan fill="url(#d)" x="-1183.5259" y="-900.7323" />
      </text>
      <text opacity=".8" x="277.01685" y="-1173.9664">
        <tspan fill="url(#d)" x="277.01685" y="-1173.9664" />
      </text>
      <text opacity=".8" x="1763.1404" y="-547.27509">
        <tspan fill="url(#d)" x="1763.1404" y="-547.27509" />
      </text>
      <text opacity=".8" x="1787.1012" y="-588.01685">
        <tspan fill="url(#d)" x="1787.1012" y="-588.01685" />
      </text>
      <text opacity=".8" x="295.638" y="-595.22675">
        <tspan fill="url(#d)" x="295.638" y="-595.22675" />
      </text>
      <text opacity=".8" x="1756.1809" y="-868.46069">
        <tspan fill="url(#d)" x="1756.1809" y="-868.46069" />
      </text>
      <text opacity=".8" x="-642.17834" y="-643.31805">
        <tspan fill="url(#d)" x="-642.17834" y="-643.31805" />
      </text>
      <text opacity=".8" x="-2465.864" y="102.23551">
        <tspan fill="url(#d)" x="-2465.864" y="102.23551" />
      </text>
      <text opacity=".8" x="-751.10858" y="195.10765">
        <tspan fill="url(#d)" x="-751.10858" y="195.10765" />
      </text>
      <text opacity=".8" x="357.91577" y="15.925501">
        <tspan fill="url(#d)" x="357.91577" y="15.925501" />
      </text>
      <text opacity=".8" x="381.87671" y="-24.816204">
        <tspan fill="url(#d)" x="381.87671" y="-24.816204" />
      </text>
      <text opacity=".8" x="-1109.5864" y="-32.026176">
        <tspan fill="url(#d)" x="-1109.5864" y="-32.026176" />
      </text>
      <text opacity=".8" x="350.9563" y="-305.26022">
        <tspan fill="url(#d)" x="350.9563" y="-305.26022" />
      </text>
      <text opacity=".8" x="-676.77832" y="-34.740421">
        <tspan fill="url(#d)" x="-676.77832" y="-34.740421" />
      </text>
      <text opacity=".8" x="-2500.4644" y="710.81311">
        <tspan fill="url(#d)" x="-2500.4644" y="710.81311" />
      </text>
      <text opacity=".8" x="-525.68524" y="-896.27094">
        <tspan fill="url(#d)" x="-525.68524" y="-896.27094" />
      </text>
      <text opacity=".8" x="281.9169" y="-1309.7411">
        <tspan fill="url(#d)" x="281.9169" y="-1309.7411" />
      </text>
      <text opacity=".8" x="305.87781" y="-1350.4829">
        <tspan fill="url(#d)" x="305.87781" y="-1350.4829" />
      </text>
      <text opacity=".8" x="-1185.5853" y="-1357.6927">
        <tspan fill="url(#d)" x="-1185.5853" y="-1357.6927" />
      </text>
      <text opacity=".8" x="274.9574" y="-1630.9269">
        <tspan fill="url(#d)" x="274.9574" y="-1630.9269" />
      </text>
      <text opacity=".8" x="1761.0808" y="-1004.2357">
        <tspan fill="url(#d)" x="1761.0808" y="-1004.2357" />
      </text>
      <text opacity=".8" x="1785.0416" y="-1044.9773">
        <tspan fill="url(#d)" x="1785.0416" y="-1044.9773" />
      </text>
      <text opacity=".8" x="293.57855" y="-1052.1871">
        <tspan fill="url(#d)" x="293.57855" y="-1052.1871" />
      </text>
      <text opacity=".8" x="1754.1213" y="-1325.4213">
        <tspan fill="url(#d)" x="1754.1213" y="-1325.4213" />
      </text>
      <text opacity=".8" x="-644.23779" y="-1100.2784">
        <tspan fill="url(#d)" x="-644.23779" y="-1100.2784" />
      </text>
      <text opacity=".8" x="-2467.9236" y="-354.72495">
        <tspan fill="url(#d)" x="-2467.9236" y="-354.72495" />
      </text>
      <text opacity=".8" x="-753.16803" y="-261.85278">
        <tspan fill="url(#d)" x="-753.16803" y="-261.85278" />
      </text>
      <text opacity=".8" x="86.846535" y="-20.938629">
        <tspan fill="url(#d)" x="86.846535" y="-20.938629" />
      </text>
      <text opacity=".8" x="110.80747" y="-61.680351">
        <tspan fill="url(#d)" x="110.80747" y="-61.680351" />
      </text>
      <text opacity=".8" x="-1159.0092" y="-255.70894">
        <tspan fill="url(#d)" x="-1159.0092" y="-255.70894" />
      </text>
      <text opacity=".8" x="-351.40717" y="-669.17914">
        <tspan fill="url(#d)" x="-351.40717" y="-669.17914" />
      </text>
      <text opacity=".8" x="-327.44623" y="-709.92084">
        <tspan fill="url(#d)" x="-327.44623" y="-709.92084" />
      </text>
      <text opacity=".8" x="-1818.9093" y="-717.1308">
        <tspan fill="url(#d)" x="-1818.9093" y="-717.1308" />
      </text>
      <text opacity=".8" x="-358.36661" y="-990.36481">
        <tspan fill="url(#d)" x="-358.36661" y="-990.36481" />
      </text>
      <text opacity=".8" x="1127.7568" y="-363.67349">
        <tspan fill="url(#d)" x="1127.7568" y="-363.67349" />
      </text>
      <text opacity=".8" x="1151.7177" y="-404.41522">
        <tspan fill="url(#d)" x="1151.7177" y="-404.41522" />
      </text>
      <text opacity=".8" x="-339.74548" y="-411.62515">
        <tspan fill="url(#d)" x="-339.74548" y="-411.62515" />
      </text>
      <text opacity=".8" x="1120.7974" y="-684.85925">
        <tspan fill="url(#d)" x="1120.7974" y="-684.85925" />
      </text>
      <text opacity=".8" x="-1277.5618" y="-459.71643">
        <tspan fill="url(#d)" x="-1277.5618" y="-459.71643" />
      </text>
      <text opacity=".8" x="-3101.2476" y="285.8371">
        <tspan fill="url(#d)" x="-3101.2476" y="285.8371" />
      </text>
      <text opacity=".8" transform="matrix(.90475 0 0 .90475 -785.49576 -670.27034)" x="-664.2738" y="1159.4154">
        <tspan fill="url(#d)" x="-664.2738" y="1159.4154" />
      </text>
      <text x="367.15851" y="-362.4458">
        <tspan fill="url(#d)" x="367.15851" y="-362.4458" />
        <tspan fill="url(#d)" x="367.15851" y="-346.61273" />
      </text>
      <text opacity=".8" x="832.34241" y="-844.49036">
        <tspan fill="url(#d)" x="832.34241" y="-844.49036" />
      </text>
      <text opacity=".8" x="-991.34357" y="-98.93689">
        <tspan fill="url(#d)" x="-991.34357" y="-98.93689" />
      </text>
      <text opacity=".8" x="1559.422" y="-1129.4862">
        <tspan fill="url(#d)" x="1559.422" y="-1129.4862" />
      </text>
      <text opacity=".8" x="1583.3828" y="-1170.2279">
        <tspan fill="url(#d)" x="1583.3828" y="-1170.2279" />
      </text>
      <text opacity=".8" x="91.919655" y="-1177.4379">
        <tspan fill="url(#d)" x="91.919655" y="-1177.4379" />
      </text>
      <text opacity=".8" x="1552.4625" y="-1450.672">
        <tspan fill="url(#d)" x="1552.4625" y="-1450.672" />
      </text>
      <text opacity=".8" x="747.22797" y="8.597213">
        <tspan fill="url(#d)" x="747.22797" y="8.597213" />
      </text>
      <text opacity=".8" x="771.1889" y="-32.144497">
        <tspan fill="url(#d)" x="771.1889" y="-32.144497" />
      </text>
      <text opacity=".8" x="-699.36945" y="-62.222637">
        <tspan fill="url(#d)" x="-699.36945" y="-62.222637" />
      </text>
      <text opacity=".8" x="-2523.0554" y="683.33081">
        <tspan fill="url(#d)" x="-2523.0554" y="683.33081" />
      </text>
      <text opacity=".8" x="-584.87836" y="-447.54361">
        <tspan fill="url(#d)" x="-584.87836" y="-447.54361" />
      </text>
      <text opacity=".8" x="222.72385" y="-861.01373">
        <tspan fill="url(#d)" x="222.72385" y="-861.01373" />
      </text>
      <text opacity=".8" x="246.68478" y="-901.75543">
        <tspan fill="url(#d)" x="246.68478" y="-901.75543" />
      </text>
      <text opacity=".8" x="-1244.7783" y="-908.96533">
        <tspan fill="url(#d)" x="-1244.7783" y="-908.96533" />
      </text>
      <text opacity=".8" x="215.76437" y="-1182.1995">
        <tspan fill="url(#d)" x="215.76437" y="-1182.1995" />
      </text>
      <text opacity=".8" x="1701.8879" y="-555.50812">
        <tspan fill="url(#d)" x="1701.8879" y="-555.50812" />
      </text>
      <text opacity=".8" x="1725.8488" y="-596.24988">
        <tspan fill="url(#d)" x="1725.8488" y="-596.24988" />
      </text>
      <text opacity=".8" x="234.38553" y="-603.45978">
        <tspan fill="url(#d)" x="234.38553" y="-603.45978" />
      </text>
      <text opacity=".8" x="1694.9285" y="-876.69379">
        <tspan fill="url(#d)" x="1694.9285" y="-876.69379" />
      </text>
      <text opacity=".8" x="-703.43085" y="-651.55109">
        <tspan fill="url(#d)" x="-703.43085" y="-651.55109" />
      </text>
      <text opacity=".8" x="-2527.1165" y="94.002472">
        <tspan fill="url(#d)" x="-2527.1165" y="94.002472" />
      </text>
      <text opacity=".8" x="-812.36108" y="186.8746">
        <tspan fill="url(#d)" x="-812.36108" y="186.8746" />
      </text>
      <text opacity=".8" x="296.6633" y="7.692464">
        <tspan fill="url(#d)" x="296.6633" y="7.692464" />
      </text>
      <text opacity=".8" x="320.62424" y="-33.049244">
        <tspan fill="url(#d)" x="320.62424" y="-33.049244" />
      </text>
      <text opacity=".8" x="-1170.8389" y="-40.259216">
        <tspan fill="url(#d)" x="-1170.8389" y="-40.259216" />
      </text>
      <text opacity=".8" x="289.70383" y="-313.49329">
        <tspan fill="url(#d)" x="289.70383" y="-313.49329" />
      </text>
      <text opacity=".8" x="-738.03082" y="-42.973461">
        <tspan fill="url(#d)" x="-738.03082" y="-42.973461" />
      </text>
      <text opacity=".8" x="-2561.7168" y="702.58002">
        <tspan fill="url(#d)" x="-2561.7168" y="702.58002" />
      </text>
      <text opacity=".8" x="-586.93774" y="-904.50397">
        <tspan fill="url(#d)" x="-586.93774" y="-904.50397" />
      </text>
      <text opacity=".8" x="220.66443" y="-1317.9741">
        <tspan fill="url(#d)" x="220.66443" y="-1317.9741" />
      </text>
      <text opacity=".8" x="244.62534" y="-1358.7158">
        <tspan fill="url(#d)" x="244.62534" y="-1358.7158" />
      </text>
      <text opacity=".8" x="-1246.8378" y="-1365.9258">
        <tspan fill="url(#d)" x="-1246.8378" y="-1365.9258" />
      </text>
      <text opacity=".8" x="213.70493" y="-1639.1599">
        <tspan fill="url(#d)" x="213.70493" y="-1639.1599" />
      </text>
      <text opacity=".8" x="1699.8284" y="-1012.4688">
        <tspan fill="url(#d)" x="1699.8284" y="-1012.4688" />
      </text>
      <text opacity=".8" x="1723.7892" y="-1053.2102">
        <tspan fill="url(#d)" x="1723.7892" y="-1053.2102" />
      </text>
      <text opacity=".8" x="232.32608" y="-1060.4202">
        <tspan fill="url(#d)" x="232.32608" y="-1060.4202" />
      </text>
      <text opacity=".8" x="1692.8689" y="-1333.6543">
        <tspan fill="url(#d)" x="1692.8689" y="-1333.6543" />
      </text>
      <text opacity=".8" x="-705.4903" y="-1108.5115">
        <tspan fill="url(#d)" x="-705.4903" y="-1108.5115" />
      </text>
      <text opacity=".8" x="-2529.176" y="-362.95801">
        <tspan fill="url(#d)" x="-2529.176" y="-362.95801" />
      </text>
      <text opacity=".8" x="-814.42053" y="-270.08585">
        <tspan fill="url(#d)" x="-814.42053" y="-270.08585" />
      </text>
      <text opacity=".8" x="25.594065" y="-29.171667">
        <tspan fill="url(#d)" x="25.594065" y="-29.171667" />
      </text>
      <text opacity=".8" x="49.555012" y="-69.913383">
        <tspan fill="url(#d)" x="49.555012" y="-69.913383" />
      </text>
      <text opacity=".8" x="-1220.2616" y="-263.94202">
        <tspan fill="url(#d)" x="-1220.2616" y="-263.94202" />
      </text>
      <text opacity=".8" x="-412.65964" y="-677.41217">
        <tspan fill="url(#d)" x="-412.65964" y="-677.41217" />
      </text>
      <text opacity=".8" x="-388.6987" y="-718.15387">
        <tspan fill="url(#d)" x="-388.6987" y="-718.15387" />
      </text>
      <text opacity=".8" x="-1880.1617" y="-725.36377">
        <tspan fill="url(#d)" x="-1880.1617" y="-725.36377" />
      </text>
      <text opacity=".8" x="-419.61908" y="-998.5979">
        <tspan fill="url(#d)" x="-419.61908" y="-998.5979" />
      </text>
      <text opacity=".8" x="1066.5044" y="-371.90652">
        <tspan fill="url(#d)" x="1066.5044" y="-371.90652" />
      </text>
      <text opacity=".8" x="1090.4652" y="-412.64825">
        <tspan fill="url(#d)" x="1090.4652" y="-412.64825" />
      </text>
      <text opacity=".8" x="-400.99796" y="-419.85822">
        <tspan fill="url(#d)" x="-400.99796" y="-419.85822" />
      </text>
      <text opacity=".8" x="1059.5449" y="-693.09229">
        <tspan fill="url(#d)" x="1059.5449" y="-693.09229" />
      </text>
      <text opacity=".8" x="-1338.8142" y="-467.94949">
        <tspan fill="url(#d)" x="-1338.8142" y="-467.94949" />
      </text>
      <text opacity=".8" x="-3162.5" y="277.60406">
        <tspan fill="url(#d)" x="-3162.5" y="277.60406" />
      </text>
      <text opacity=".8" x="-1447.7445" y="370.47617">
        <tspan fill="url(#d)" x="-1447.7445" y="370.47617" />
      </text>
      <text opacity=".8" x="747.22797" y="15.835199">
        <tspan fill="url(#d)" x="747.22797" y="15.835199" />
      </text>
      <text opacity=".8" x="771.1889" y="-24.906506">
        <tspan fill="url(#d)" x="771.1889" y="-24.906506" />
      </text>
      <text opacity=".8" x="-699.36945" y="-54.98465">
        <tspan fill="url(#d)" x="-699.36945" y="-54.98465" />
      </text>
      <text opacity=".8" x="-2523.0554" y="690.56879">
        <tspan fill="url(#d)" x="-2523.0554" y="690.56879" />
      </text>
      <text opacity=".8" x="-584.87836" y="-440.3056">
        <tspan fill="url(#d)" x="-584.87836" y="-440.3056" />
      </text>
      <text opacity=".8" x="222.72385" y="-853.7757">
        <tspan fill="url(#d)" x="222.72385" y="-853.7757" />
      </text>
      <text opacity=".8" x="246.68478" y="-894.51746">
        <tspan fill="url(#d)" x="246.68478" y="-894.51746" />
      </text>
      <text opacity=".8" x="-1244.7783" y="-901.72736">
        <tspan fill="url(#d)" x="-1244.7783" y="-901.72736" />
      </text>
      <text opacity=".8" x="215.76437" y="-1174.9614">
        <tspan fill="url(#d)" x="215.76437" y="-1174.9614" />
      </text>
      <text opacity=".8" x="1701.8879" y="-548.27014">
        <tspan fill="url(#d)" x="1701.8879" y="-548.27014" />
      </text>
      <text opacity=".8" x="1725.8488" y="-589.0119">
        <tspan fill="url(#d)" x="1725.8488" y="-589.0119" />
      </text>
      <text opacity=".8" x="234.38553" y="-596.2218">
        <tspan fill="url(#d)" x="234.38553" y="-596.2218" />
      </text>
      <text opacity=".8" x="1694.9285" y="-869.45575">
        <tspan fill="url(#d)" x="1694.9285" y="-869.45575" />
      </text>
      <text opacity=".8" x="-703.43085" y="-644.31311">
        <tspan fill="url(#d)" x="-703.43085" y="-644.31311" />
      </text>
      <text opacity=".8" x="-2527.1165" y="101.24046">
        <tspan fill="url(#d)" x="-2527.1165" y="101.24046" />
      </text>
      <text opacity=".8" x="-812.36108" y="194.11259">
        <tspan fill="url(#d)" x="-812.36108" y="194.11259" />
      </text>
      <text opacity=".8" x="296.6633" y="14.93045">
        <tspan fill="url(#d)" x="296.6633" y="14.93045" />
      </text>
      <text opacity=".8" x="320.62424" y="-25.811255">
        <tspan fill="url(#d)" x="320.62424" y="-25.811255" />
      </text>
      <text opacity=".8" x="-1170.8389" y="-33.021225">
        <tspan fill="url(#d)" x="-1170.8389" y="-33.021225" />
      </text>
      <text opacity=".8" x="289.70383" y="-306.25528">
        <tspan fill="url(#d)" x="289.70383" y="-306.25528" />
      </text>
      <text opacity=".8" x="-738.03082" y="-35.73547">
        <tspan fill="url(#d)" x="-738.03082" y="-35.73547" />
      </text>
      <text opacity=".8" x="-2561.7168" y="709.81805">
        <tspan fill="url(#d)" x="-2561.7168" y="709.81805" />
      </text>
      <text opacity=".8" x="-586.93774" y="-897.26599">
        <tspan fill="url(#d)" x="-586.93774" y="-897.26599" />
      </text>
      <text opacity=".8" x="220.66443" y="-1310.7361">
        <tspan fill="url(#d)" x="220.66443" y="-1310.7361" />
      </text>
      <text opacity=".8" x="244.62534" y="-1351.4779">
        <tspan fill="url(#d)" x="244.62534" y="-1351.4779" />
      </text>
      <text opacity=".8" x="-1246.8378" y="-1358.6877">
        <tspan fill="url(#d)" x="-1246.8378" y="-1358.6877" />
      </text>
      <text opacity=".8" x="213.70493" y="-1631.9219">
        <tspan fill="url(#d)" x="213.70493" y="-1631.9219" />
      </text>
      <text opacity=".8" x="1699.8284" y="-1005.2307">
        <tspan fill="url(#d)" x="1699.8284" y="-1005.2307" />
      </text>
      <text opacity=".8" x="1723.7892" y="-1045.9723">
        <tspan fill="url(#d)" x="1723.7892" y="-1045.9723" />
      </text>
      <text opacity=".8" x="232.32608" y="-1053.1821">
        <tspan fill="url(#d)" x="232.32608" y="-1053.1821" />
      </text>
      <text opacity=".8" x="1692.8689" y="-1326.4163">
        <tspan fill="url(#d)" x="1692.8689" y="-1326.4163" />
      </text>
      <text opacity=".8" x="-705.4903" y="-1101.2734">
        <tspan fill="url(#d)" x="-705.4903" y="-1101.2734" />
      </text>
      <text opacity=".8" x="-2529.176" y="-355.72">
        <tspan fill="url(#d)" x="-2529.176" y="-355.72" />
      </text>
      <text opacity=".8" x="-814.42053" y="-262.84784">
        <tspan fill="url(#d)" x="-814.42053" y="-262.84784" />
      </text>
      <text opacity=".8" x="25.594065" y="-21.93368">
        <tspan fill="url(#d)" x="25.594065" y="-21.93368" />
      </text>
      <text opacity=".8" x="49.555012" y="-62.6754">
        <tspan fill="url(#d)" x="49.555012" y="-62.6754" />
      </text>
      <text opacity=".8" x="-1220.2616" y="-256.70401">
        <tspan fill="url(#d)" x="-1220.2616" y="-256.70401" />
      </text>
      <text opacity=".8" x="-412.65964" y="-670.17419">
        <tspan fill="url(#d)" x="-412.65964" y="-670.17419" />
      </text>
      <text opacity=".8" x="-388.6987" y="-710.91589">
        <tspan fill="url(#d)" x="-388.6987" y="-710.91589" />
      </text>
      <text opacity=".8" x="-1880.1617" y="-718.12585">
        <tspan fill="url(#d)" x="-1880.1617" y="-718.12585" />
      </text>
      <text opacity=".8" x="-419.61908" y="-991.35986">
        <tspan fill="url(#d)" x="-419.61908" y="-991.35986" />
      </text>
      <text opacity=".8" x="1066.5044" y="-364.66855">
        <tspan fill="url(#d)" x="1066.5044" y="-364.66855" />
      </text>
      <text opacity=".8" x="1090.4652" y="-405.41028">
        <tspan fill="url(#d)" x="1090.4652" y="-405.41028" />
      </text>
      <text opacity=".8" x="-400.99796" y="-412.62021">
        <tspan fill="url(#d)" x="-400.99796" y="-412.62021" />
      </text>
      <text opacity=".8" x="1059.5449" y="-685.85431">
        <tspan fill="url(#d)" x="1059.5449" y="-685.85431" />
      </text>
      <text opacity=".8" x="-1338.8142" y="-460.71149">
        <tspan fill="url(#d)" x="-1338.8142" y="-460.71149" />
      </text>
      <text opacity=".8" x="-3162.5" y="284.84204">
        <tspan fill="url(#d)" x="-3162.5" y="284.84204" />
      </text>
      <text opacity=".8" x="-1447.7445" y="377.71417">
        <tspan fill="url(#d)" x="-1447.7445" y="377.71417" />
      </text>
      <text x="305.90604" y="-363.44086">
        <tspan fill="url(#d)" x="305.90604" y="-363.44086" />
        <tspan fill="url(#d)" x="305.90604" y="-347.60779" />
      </text>
      <text opacity=".8" x="771.0899" y="-845.48541">
        <tspan fill="url(#d)" x="771.0899" y="-845.48541" />
      </text>
      <text opacity=".8" x="-1052.5961" y="-99.931938">
        <tspan fill="url(#d)" x="-1052.5961" y="-99.931938" />
      </text>
      <text opacity=".8" x="1498.1696" y="-1130.4812">
        <tspan fill="url(#d)" x="1498.1696" y="-1130.4812" />
      </text>
      <text opacity=".8" x="1522.1304" y="-1171.2229">
        <tspan fill="url(#d)" x="1522.1304" y="-1171.2229" />
      </text>
      <text opacity=".8" x="30.667185" y="-1178.4329">
        <tspan fill="url(#d)" x="30.667185" y="-1178.4329" />
      </text>
      <text opacity=".8" x="1491.2101" y="-1451.667">
        <tspan fill="url(#d)" x="1491.2101" y="-1451.667" />
      </text>
      <path d="m24.026 12.005066c2.735.006 5.5083.85839 7.6746 2.5456 1.5229 1.7544-1.3789 3.6333-2.6858 1.9226-3.9343-2.3806-9.4829-1.5424-12.443 2.0167-1.5749 1.7662-2.4622 4.1231-2.4518 6.4891h2.6l-4.16 6.24-4.1599998-6.24h2.5999998c-.083-5.649 3.98-11.023 9.435-12.486 1.17-.321 2.376-.501 3.591-.488zm11.414 6.76 4.16 6.24h-2.6c.0737 5.7169-4.093 11.151-9.6433 12.537-3.7452 1.0459-7.9801.2827-11.058-2.1101-1.5705-1.7837 1.3716-3.6445 2.6907-1.9181 3.8119 2.3127 9.1499 1.5792 12.159-1.724 1.742-1.795 2.744-4.283 2.731-6.785h-2.6l4.16-6.24z" fill="url(#a)" />
    </g>
  </g>
</svg>
