<svg height="48" width="48" xmlns="http://www.w3.org/2000/svg" xmlns:xlink="http://www.w3.org/1999/xlink"><linearGradient gradientUnits="userSpaceOnUse" x1="0" x2="47" y1="23.5" y2="23.5"><stop offset="0" stop-color="#a9a3d4"/><stop offset=".47001833" stop-color="#87baff"/><stop offset="1" stop-color="#89ec85"/></linearGradient><linearGradient id="a" gradientTransform="matrix(.87828159 0 0 .85765084 -341.46518 576.28148)" gradientUnits="userSpaceOnUse" x1="409.57144" x2="409.93887" y1="542.79797" y2="501.2316"><stop offset="0" stop-color="#197cf1"/><stop offset="1" stop-color="#20bcfa"/></linearGradient><g stroke-width="1.317422" transform="matrix(1.138587 0 0 1.138587 4.216376 -1145.11732)"><rect fill-opacity=".666667" height="29.160128" ry="1.372241" width="38.644394" x="-1.946605" y="1012.6734"/><rect fill="url(#a)" height="29.160128" ry="1.372241" width="38.644394" x="-1.946605" y="1011.7949"/><g fill="#fff"><path d="m26.169789 1026.3396c-.05971-.078-.13763-.1247-.234314-.1395l-2.041724-.3124c-.111611-.3571-.264169-.7214-.457536-1.0933.133796-.1861.334558-.4482.602288-.7867.267728-.3385.457398-.5857.569009-.742.05957-.082.08915-.1673.08915-.2566 0-.1043-.02589-.1858-.07806-.2454-.267729-.3795-.881383-1.0116-1.840962-1.8968-.08902-.075-.182138-.1115-.278685-.1115-.111611 0-.200899.034-.267865.1001l-1.58419 1.1939c-.305115-.1562-.63981-.2939-1.004223-.4128l-.312373-2.0529c-.0074-.097-.05026-.1766-.128318-.2399-.07819-.063-.169128-.095-.273481-.095h-2.476793c-.21569 0-.349623.1043-.401662.3124-.09669.3718-.204597 1.0635-.323603 2.0752-.349623.1117-.688016.253-1.015316.4241l-1.539681-1.1939c-.09669-.075-.193368-.1115-.290052-.1115-.16365 0-.515053.2658-1.054345.7977-.539293.5319-.905486.9317-1.09899 1.1994-.06697.097-.100377.1822-.100377.2566 0 .09.03711.1785.111474.2677.498345.6026.89631 1.1157 1.193893 1.5398-.185972.3421-.330998.6843-.435077 1.0264l-2.0752757.3124c-.081757.015-.1524206.063-.211992.1451-.059572.082-.089289.1674-.089289.2566v2.4769c0 .097.029717.1841.089289.2621s.1376305.1249.2343142.1397l2.0418615.3013c.104076.3645.2565.7325.457399 1.1043-.133796.1861-.334696.4482-.602424.7867-.26773.3385-.457537.5857-.569011.742-.05957.082-.08929.1672-.08929.2566 0 .097.02602.1821.07805.2564.290052.4019.903705 1.0268 1.840963 1.8746.08189.082.17488.1226.278958.1226.111611 0 .204598-.034.278959-.1001l1.573233-1.194c.305115.1563.639811.2939 1.004223.413l.312374 2.0529c.0075.097.05026.1766.128318.2399.07805.063.169265.095.273344.095h2.476938c.215963 0 .349759-.1043.401936-.3124.09655-.3719.204323-1.0635.323329-2.0751.349622-.1116.688152-.253 1.015316-.4241l1.539818 1.2051c.104077.066.2009.1001.290051.1001.163513 0 .513136-.2638 1.048593-.792.535733-.5281.903843-.9299 1.104469-1.2052.06697-.074.100514-.1598.100514-.2564 0-.097-.03711-.19-.11161-.279-.535458-.6546-.933423-1.1677-1.193893-1.5397.148722-.2753.293885-.6137.435213-1.0153l2.064047-.3122c.08915-.015.163787-.063.223221-.1453.05943-.082.08902-.1675.08902-.2567v-2.4767c.000137-.097-.02945-.1839-.08915-.2622zm-6.459868 3.4978c-.557781.5579-1.231007.8368-2.01954.8368-.788534 0-1.461622-.2789-2.019539-.8368-.557781-.5578-.836739-1.2309-.836739-2.0195 0-.7884.278821-1.4616.836739-2.0194.557917-.5579 1.231142-.8369 2.019539-.8369.788533 0 1.461759.279 2.01954.8369.557779.5578.836738 1.231.836738 2.0194 0 .7886-.278959 1.4617-.836738 2.0195z" fill-opacity=".851852" stroke-width=".180415"/><circle cx="8.913999" cy="1014.8691" fill-opacity=".852041" r="1.564593"/><circle cx="5.070295" cy="1014.9023" fill-opacity=".852041" r="1.564593"/><circle cx="1.291986" cy="1014.9395" fill-opacity=".852041" r="1.564593"/></g></g></svg>