<svg height="48" width="48" xmlns="http://www.w3.org/2000/svg" xmlns:xlink="http://www.w3.org/1999/xlink"><linearGradient id="a" gradientUnits="userSpaceOnUse" x1="11.660663" x2="10.415977" y1="56.928329" y2="32.880904"><stop offset="0" stop-color="#cdd0d1"/><stop offset="1" stop-color="#f6f6f7"/></linearGradient><linearGradient id="b" gradientUnits="userSpaceOnUse" x1="14.428456" x2="5.505778" y1="47.467573" y2="39.642166"><stop offset="0" stop-color="#16a085"/><stop offset="1" stop-color="#2dcb72"/></linearGradient><filter id="c" color-interpolation-filters="sRGB"><feColorMatrix values="0.21 0.72 0.072 0 0 0.21 0.72 0.072 0 0 0.21 0.72 0.072 0 0 0 0 0 1 0"/></filter><linearGradient id="d" gradientUnits="userSpaceOnUse" x1="-19.0871" x2="4.887772" y1="55.375499" y2="-2.360071"><stop offset="0" stop-color="#9d77f8"/><stop offset="1" stop-color="#ff58e7"/></linearGradient><g transform="matrix(.69654364 -.00959983 .00959983 .69654364 29.521126 1.36487)"><rect fill="#1dd591" height="37.355316" ry="1.543778" transform="matrix(.99999416 -.00341659 .00341659 .99999416 0 0)" width="49.639671" x="-31.653305" y="7.985796"/><rect fill="url(#d)" height="37.355072" ry="1.543778" transform="matrix(.98818625 -.15325775 .15325775 .98818625 0 0)" width="49.639862" x="-42.623764" y="13.684669"/><circle cx="11.184063" cy="45.12323" fill="url(#a)" filter="url(#c)" r="12.348694" transform="matrix(.78017865 0 0 .78017865 2.581938 10.521665)"/><path d="m14.428456 47.271288-8.9226783.196284 4.2913527-7.825408z" fill="url(#b)" filter="url(#c)" transform="matrix(-.0138427 .90747861 -.90747861 -.0138427 51.546127 37.320471)"/><path d="m-20.211826 43.439983-.159513-.856916-5.046296.939246-5.046295.939257.0575.648384c.111464 1.255984-.12893 1.248402 5.360044.169006l4.994006-.982034-.159514-.856917zm-6.869567-18.514566c-.655955-.101929-1.677925.0091-3.913469.425208l-3.025673.563166 1.122554 5.751019 1.122554 5.751019 3.139962-.59594c2.779514-.527488 3.23342-.661287 3.953995-1.165469 1.593193-1.114697 2.663013-2.674952 1.934868-6.023899-.728139-3.348948-2.303547-4.389441-4.334857-4.705084zm10.300907 9.640017c1.147389.184043 3.098904-.192006 4.351335-.838461l.000032-.000013c.363555-.187663 1.022866-.694315 1.465139-1.125894l.804129-.78469-.478492-2.570754-.478492-2.570755-2.475543.460765-2.475544.460766.212637 1.142563.212636 1.142563 1.160281-.117449 1.160281-.117449.123566.66393c.101732.54659.03364.729631-.385329 1.035725-.684661.500205-2.296498.778045-3.102277.534753-2.45784-.742101-3.198751-4.371304-1.238248-6.065354.962656-.831821 2.443745-.939346 4.09199-.297068.464307.180926.522333.137675 1.080158-.805129.77306-1.306573.643663-1.648896-.796761-2.10782-.952388-.303436-1.434834-.328256-2.784997-.143278-1.913039.262095-2.815442.651933-3.86869 1.671289-1.025701.992697-2.097272 1.9976-1.426744 5.528423.670527 3.530823 2.602458 4.542982 4.848933 4.903337zm-12.622717-.279947c-.08552-.139389-.386365-1.625471-.668513-3.302411l-.513025-3.048976 1.349231-.240153c1.501976-.267341 2.391236-.0683 3.252513.727996.402797.372412.551838.737123.761455 1.863313.29049 1.560533.09879 2.243998-.862949 3.077059-.706097.611624-3.101007 1.277825-3.318667.923163z" fill="#fff"/></g></svg>