<svg height="48" viewBox="0 0 48 48" width="48" xmlns="http://www.w3.org/2000/svg" xmlns:xlink="http://www.w3.org/1999/xlink">
  <linearGradient id="a" gradientUnits="userSpaceOnUse" x1="408.64954" x2="408.64954" y1="549.92224" y2="500.92224">
    <stop offset="0" stop-color="#197cf1" />
    <stop offset="1" stop-color="#59d0ff" />
  </linearGradient>
  <linearGradient id="b" gradientUnits="userSpaceOnUse" x1="405.57144" x2="406.57144" y1="543.79797" y2="501.798">
    <stop offset="0" stop-color="#1673db" />
    <stop offset="1" stop-color="#42d6fc" />
  </linearGradient>
  <g stroke="url(#a)" transform="matrix(1.0666667 0 0 1.0666667 -409.07877 -533.43556)">
    <path d="m399.57144 514.79797h18v1h-18z" fill="#fff" fill-opacity=".235294" stroke="url(#a)" stroke-opacity=".550265" stroke-width="2.8" />
    <circle cx="406.01132" cy="522.59583" fill="url(#b)" r="21.542326" stroke="url(#b)" stroke-linecap="round" stroke-linejoin="round" stroke-width="1.915347" />
  </g>
  <path d="m26.291013 10.154451c-1.436378.537427-2.70264 1.547035-4.2059 1.985632-1.234059.333446-3.383985.790593-2.176174 2.477777.530225 1.237404 1.920642 1.554392 2.918745 2.254283.562884 1.168516-.947399 2.222192-1.836243 2.756507-1.089055.717992-3.133941.566396-2.575204-1.200349.259827-1.381255-.232461-2.941756-1.588628-3.546544-1.507388.49237-2.708554 1.74373-4.186693 2.380211-.999725.639732-2.251283.934038-3.1182482 1.729478.2232721 1.269927 1.6851452 2.055644 2.3715982 3.165441 1.138079 1.54766 2.690995 3.04513 2.860157 5.060206.03921 1.845156-2.088789 1.941891-3.428704 1.699365-1.4087734.208256-1.4642383 1.977836-.953156 3.002918.408136 1.190611 1.538208 2.55791 2.935519 2.220904 1.397279-.573073 1.45888-2.836435 3.145716-2.89269 1.543959.129983 2.305172 1.810019 2.948529 3.022425.641375 1.154098 1.08573 2.415026 1.784314 3.533986 1.175483.29755 2.167368-1.086384 3.262008-1.489918 1.228132-.866139 2.82243-1.09915 4.043371-1.881908.162011-1.691464-1.623699-2.565227-2.933357-3.157928-1.798779-.852698.14264-2.84685 1.314271-3.262862 1.310777-.867424 3.271157-.190091 2.703311 1.58798-.122789 1.386582.774621 3.548791 2.31471 3.456387 1.258662-1.466892 2.633308-2.87732 4.320884-3.864116 1.185246-.40513 1.356545-1.495838.265629-2.181814-1.249079-1.557386-2.714488-3.19557-2.963975-5.253813.02475-1.367523 1.50597-2.474532 2.844145-2.196573 1.549099.440476 2.529968-1.188224 1.952057-2.527031-.40048-1.157672-1.173483-2.35876-2.355231-2.810251-1.803588-.503744-1.669453 1.940008-2.931321 2.516263-1.432091.972476-2.985085-.240624-3.799388-1.42158-1.165334-1.513329-1.743332-3.359451-2.649364-5.017345l-.131691-.104288-.151762-.040766z" fill="#fff" fill-opacity=".85098" stroke-width=".065571" />
</svg>
