<svg height="48" width="48" xmlns="http://www.w3.org/2000/svg" xmlns:xlink="http://www.w3.org/1999/xlink">
  <linearGradient id="a" gradientUnits="userSpaceOnUse" x1="23.999993" x2="23.999993" y1="46.969325" y2="1.034351">
    <stop offset="0" stop-opacity=".128889" />
    <stop offset="1" stop-color="#fbfaea" stop-opacity=".173333" />
  </linearGradient>
  <g transform="translate(-.023828 -.01467)">
    <path d="m18.157494 18.122753c-2.403395 1.456745-4.966409 2.729314-5.891636 5.891636 1.021682 1.688228 2.868315 4.618697 5.891636 5.891635-1.54362 3.389286-.960678 7.520395-.000001 11.783272 9.659565-8.563001 11.55292-9.990494 11.782969-11.783043-3.358434-3.897733-7.395852-10.061072-11.782968-11.7835z" fill="#14a4ff" stroke-width=".378089" />
    <path d="m18.156529 18.12213 5.891635 5.891636c5.436751-2.507529 9.177274-6.611506 11.783272-11.783272l-5.891635-5.8916358c-5.603815 2.922123-9.51277 6.8611618-11.783272 11.7832718z" fill="#00c13f" />
    <path d="m17.710566 17.676767 6.337454 6.337456.0014-11.781891-.447199-.447198z" fill="#0d6035" />
    <path d="m12.265037 12.231238c.94146 2.577329 3.304612 4.301644 5.891636 5.891636l11.783262-11.7832621-4.922128-4.9221269c-.536996-.53699593-1.402022-.53699622-1.939016-.0000014z" fill="#f9c600" />
    <path d="m1.4512644 23.045008c-.5369961.536997-.53699617 1.402024.0000001 1.93902l16.7053965 16.705397.000002-11.783273-5.891634-5.891634 5.891634-5.891634-5.891636-5.891636z" fill="#6e00cc" />
    <path d="m24.048164 24.013766 5.893017 5.893016c1.245468 4.835218 3.782698 4.50339 5.890255 5.890255 2.570558-7.420497 4.926619-14.877293 0-23.566543z" fill="#ff7819" />
    <path d="m35.83157 12.231247-.000002 23.566542 10.813762-10.813762c.536996-.536996.536998-1.402022.000002-1.939018z" fill="#ff2a2a" />
    <path d="m18.156985 41.689731 4.922127 4.922126c.536994.536994 1.402023.536995 1.939018-.000001l10.813762-10.813762-5.89143-5.891841z" fill="#124684" />
    <path d="m24.220683 1.0355375c-.475202-.04042801-1.012112.1605505-1.431641.5800787l-13.5175757 13.5156248-7.869141 7.869141c-.53699701.536996-.53699701 1.402457-.000001 1.939453l13.7617307 13.759752 2.94336 2.943358v.002l4.923843 4.921863c.536995.536995 1.400504.536995 1.937499-.000001l10.81445-10.81445 4.166019-4.166017 6.64845-6.64647c.536996-.536996.536996-1.402456 0-1.939452l-6.648438-6.648514-1.220702-1.220703-2.945315-2.945312-5.890625-5.8906253-4.92384-4.9218606c-.201373-.2013741-.462926-.3136339-.748047-.337891z" fill="url(#a)" stroke-width=".378089" />
  </g>
</svg>
