<svg xmlns="http://www.w3.org/2000/svg" height="48" width="48" version="1.1">
  <defs>
    <linearGradient gradientUnits="userSpaceOnUse" id="a" x1="23" x2="23" y1="1" y2="47">
      <stop id="top" offset="0" stop-color="#c3f907" />
      <stop id="bottom" offset="1" stop-color="#72c003" />
    </linearGradient>
  </defs>
  <circle cx="24" cy="24" r="23" fill="url(#a)" />
  <path style="opacity:0.765;" fill="#fff" d="m 20.73229,15.057279 c -0.774637,0.217394 -1.398203,1.081841 -1.398203,1.921626 V 30.29247 c -0.785495,-0.430654 -1.794277,-0.604796 -2.840142,-0.320193 -1.887226,0.513409 -3.069888,2.172771 -2.665349,3.705848 0.404567,1.53298 2.263687,2.389238 4.150983,1.875704 1.505607,-0.409587 2.543505,-1.56861 2.708989,-2.790776 l 0.04412,-12.581599 9.787489,-2.745089 v 9.928062 c -0.785495,-0.430682 -1.794263,-0.60481 -2.840156,-0.320304 -1.887212,0.513437 -3.069846,2.172882 -2.665321,3.705862 0.40458,1.533063 2.263701,2.389211 4.150941,1.875787 1.505635,-0.409587 2.543519,-1.568583 2.70903,-2.790762 l 0.04426,-16.379027 c 0,-0.629735 -0.371716,-1.100874 -0.873866,-1.189494 z" />
</svg>
