<svg viewBox="0 0 48 48" xmlns="http://www.w3.org/2000/svg" xmlns:xlink="http://www.w3.org/1999/xlink"><linearGradient id="a" gradientUnits="userSpaceOnUse" x1="10.89777672584" x2="10.89777672584" y1="43.10935674767" y2="1.08104874767"><stop offset="0" stop-color="#3889e9"/><stop offset="1" stop-color="#5ea5fb"/></linearGradient><linearGradient id="b" gradientUnits="userSpaceOnUse" x1="24.927030540854" x2="24.927030540854" y1="46.223629308353" y2="1.492447471602"><stop offset="0" stop-color="#00a661"/><stop offset="1" stop-color="#37ce97"/></linearGradient><circle cx="12.39871" cy="22.095125" fill="url(#a)" r="0" stroke-width="1.501011"/><circle cx="24" cy="24" fill="url(#b)" r="22" stroke-width=".12684"/><path d="m6.4774069 21.575224c.1169172-.248897.3665317-.408134.6426857-.408134h2.0994875c1.3348639-7.243841 7.6957299-12.750423 15.3197319-12.750423 8.592333 0 15.583691 6.991357 15.583691 15.583691s-6.99064 15.582975-15.583691 15.582975c-5.545316 0-10.716927-2.984615-13.496398-7.787543-.391637-.677832-.160672-1.543593.517878-1.935947.677115-.392353 1.543593-.161388 1.934512.516444 2.275222 3.931429 6.507192 6.374495 11.044008 6.374495 7.030091 0 12.750423-5.719615 12.750423-12.748989 0-7.030809-5.720332-12.750424-12.750423-12.750424-6.055304 0-11.128647 4.247033-12.421191 9.916438h2.08299c.276154 0 .525051.159237.642686.408134.116917.248898.0789.542266-.09755.753865l-3.541944 4.249902c-.134849.161389-.333536.254636-.544418.254636-.210164 0-.409568-.09397-.5437-.254636l-3.5419449-4.249902c-.1764516-.212316-.2137503-.505685-.0968332-.754582z" fill="#fff" fill-opacity=".862903" stroke-width=".717283"/></svg>