<svg viewBox="0 0 48 48" xmlns="http://www.w3.org/2000/svg" xmlns:xlink="http://www.w3.org/1999/xlink"><linearGradient id="a" gradientUnits="userSpaceOnUse" x1="471.241107194176" x2="471.241107194176" y1="470.245925754488" y2="427.700194554488"><stop offset="0" stop-color="#3889e9"/><stop offset="1" stop-color="#5ea5fb"/></linearGradient><linearGradient id="b" gradientUnits="userSpaceOnUse" x1="473.46545" x2="473.20233" y1="471.32092" y2="427.24612"><stop offset="0" stop-color="#404552"/><stop offset="1" stop-color="#4d4d4d"/></linearGradient><linearGradient id="c" gradientUnits="userSpaceOnUse" x1="41.012192" x2="41.012192" y1="23.604816" y2="16.622137"><stop offset="0" stop-color="#5894db"/><stop offset="1" stop-color="#669fe7"/></linearGradient><linearGradient id="d" gradientUnits="userSpaceOnUse" x1="470.86841" x2="471.19186" y1="453.00577" y2="439.90665"><stop offset="0" stop-color="#5894db"/><stop offset="1" stop-color="#80b3ff"/></linearGradient><g transform="matrix(1.0931221 0 0 1.0931221 -492.531184 -466.636039)"><circle cx="472.7605" cy="448.97296" fill="url(#a)" r="0"/><circle cx="472.52835" cy="448.83917" fill="url(#b)" r="21.955462"/><path d="m39.986328 23.427775c0-1.209572.154655-1.233223.900831-1.694422.852974-.527158.860858-.729119-.136442-1.071146-.5941-.203757-.871114-.380065-1.289779-1.830135.52539 4.595703 0 0 .52539 4.595703z" fill="url(#c)" transform="matrix(.91481089 0 0 .91481089 450.57289 426.88373)"/><path d="m29.554688 12.078125c-1.759912-.06112-3.77288.227101-4.958985.781291-4.865162 2.027546-7.316148 10.576545-12.458984 10.076172-1.78943-.211935-3.1775123-1.147189-4.2402346-2.857422-1.670375.535687-1.4384963 4.633731-.4023438 6.763672 4.1680984 8.568048 11.9045924 12.268867 20.6445314 10.175781 6.756339-2.020637 11.263194-7.140791 11.847656-13.589844.270674-2.071331.226559-2.513826-.52539-4.595703-2.296947-4.618438-6.212127-6.603866-9.90625-6.753947zm2.544921 4.679687c.828427 0 1.5.671573 1.5 1.5s-.671573 1.5-1.5 1.5-1.5-.671573-1.5-1.5.671573-1.5 1.5-1.5zm.509766.597657c-.276142 0-.5.223858-.5.5s.223858.5.5.5.5-.223858.5-.5-.223858-.5-.5-.5z" fill="#fff" transform="matrix(.91481089 0 0 .91481089 450.57289 426.88373)"/><path d="m468.29939 453.39161c-1.03774-.0984-3.42239-.59369-4.099-.85136l-.59015-.22474 1.63286-.79456c1.36492-.66418 1.78372-.99062 2.55226-1.9894 1.01599-1.32035 1.92531-1.76179 3.15422-1.53124.95748.17962 1.96866 1.27323 2.0853 2.2553.11377.95787-.54329 2.199-1.42724 2.69597-.6309.3547-2.11969.55272-3.30825.44003z" fill="url(#d)"/></g></svg>