<svg height="48" width="48" xmlns="http://www.w3.org/2000/svg" xmlns:xlink="http://www.w3.org/1999/xlink"><linearGradient id="a" gradientUnits="userSpaceOnUse" x1="362.06183" x2="361.14743" y1="550.13135" y2="518.27979"><stop offset="0" stop-color="#3676ad"/><stop offset="1" stop-color="#1dbbfa"/></linearGradient><g transform="matrix(1.415058506691 0 0 1.415058506691 -487.694177201378 -733.95022119983)"><g fill="url(#a)" transform="matrix(.96822689 0 0 .96822689 10.977276 17.265308)"><path d="m358.58638 540.86322-3.268 7.43142h6.10381l-.14193 4.01913 6.67062-7.71013h-4.96629l1.8935-3.92798z" fill="url(#a)" fill-rule="evenodd"/><rect fill="url(#a)" height="23.63118" ry="1.987036" width="33.577694" x="345.3934" y="518.90289"/></g><g fill="#fff" opacity=".9"><path d="m365.19595 536.52507q-.18235.18234-.43763.18234-.25529 0-.43763-.18234-.18235-.18235-.18235-.43763 0-.25528.18235-.43763.18234-.18234.43763-.18234.25528 0 .43763.18234.18234.18235.18234.43763 0 .25528-.18234.43763z"/><path d="m367.24206 531.06383q-.17323.17323-.4194.17323-.24616 0-.41939-.17323-.17323-.17323-.17323-.4194 0-.24616.17323-.41939.17323-.17323.41939-.17323.24617 0 .4194.17323.17323.17323.17323.41939 0 .24617-.17323.4194zm0 5.58888h-.83879v-4.46746h.83879z"/><path d="m368.68116 532.72317q.64733-.68379 1.65023-.68379 1.00289 0 1.65022.68379.64733.67468.64733 1.69581 0 1.02113-.64733 1.70493-.64733.67468-1.65022.67468-1.0029 0-1.65023-.67468-.64732-.6838-.64732-1.70493 0-1.02113.64732-1.69581zm.61997 2.87194q.43763.43763 1.03026.43763.59262 0 1.02113-.43763.43763-.44675.43763-1.17613 0-.72938-.43763-1.16701-.42851-.44674-1.02113-.44674-.59263 0-1.03026.44674-.42851.43763-.42851 1.16701 0 .72938.42851 1.17613z"/></g><g opacity=".9" transform="matrix(.62925539 0 0 .62925539 105.02963 175.94852)"><circle cx="400.2735" cy="564.21936" r="9.505532" style="opacity:1;fill:#279fdb;stroke:#fff;stroke-width:1.806051;stroke-linecap:round;stroke-linejoin:round"/><path d="m345.441 248.292-194.287 194.281c-12.359 12.365-32.397 12.365-44.75 0-12.354-12.354-12.354-32.391 0-44.744l171.914-171.909-171.909-171.903c-12.354-12.359-12.354-32.394 0-44.748 12.354-12.359 32.391-12.359 44.75 0l194.287 194.284c6.177 6.18 9.262 14.271 9.262 22.366 0 8.099-3.091 16.196-9.267 22.373z" fill="#fff" transform="matrix(.038116939937 .000149971221 .00013781051 -.041480464793 392.012238380589 573.49294408821)"/></g></g></svg>