<svg height="48" width="48" xmlns="http://www.w3.org/2000/svg" xmlns:xlink="http://www.w3.org/1999/xlink"><linearGradient id="a" gradientUnits="userSpaceOnUse" x1="23.900049" x2="23.589315" y1="52.718941" y2="-9.238505"><stop offset="0" stop-color="#ff9300"/><stop offset="1" stop-color="#ffd702"/></linearGradient><linearGradient id="b" gradientUnits="userSpaceOnUse" x1="23.647836" x2="23.841529" y1="34.889154" y2="9.016814"><stop offset="0" stop-color="#dcdfe0"/><stop offset="1" stop-color="#fefeff"/></linearGradient><path d="m25.015735 45.36257 4.09643-5.74479h10.379224s5.204309.0857 5.204309-7.33904v-23.3520303c-.327846-5.08114-4.937431-5.47097-4.937431-5.47097h-30.691145s-5.681091.33343-5.762819 5.872v22.9510003c.0097 7.23013 5.762819 7.33904 5.762819 7.33904h10.602948l3.691104 5.72209c.803249.93699.814449.81435 1.654561.0227z" fill-opacity=".666667" fill-rule="evenodd"/><path d="m25.015735 43.90683 4.09643-5.74478h10.379224s5.204309.0857 5.204309-7.33905v-23.3520203c-.327846-5.08115-4.937431-5.47098-4.937431-5.47098h-30.691145s-5.681091.33343-5.762819 5.872v22.9510003c.0097 7.23013 5.762819 7.33905 5.762819 7.33905h10.602948l3.691104 5.72208c.803249.937.814449.81435 1.654561.0227z" fill="url(#a)" fill-rule="evenodd"/><path d="m20.386699 13.195936c-1.306529 0-4.550705 1.386974-5.058593 2.16211-.525707.802326-1.483875 3.324739-1.951173 5.142578-.582411 2.265641-.970185 5.578091-.710937 6.0625.490901.917258 2.544014 2.276476 3.931641 2.603515 1.283064.302395 1.79158.224907 2.398437-.363281.311727-.302138.566408-.647871.566406-.769531 0-.12166-.368433-.408725-.818359-.636719-.914391-.463358-1.718837-1.066021-1.587891-1.189453.04727-.04455.627344.138912 1.289063.408203 3.632206 1.47815 7.539668 1.47815 11.171875 0 .661718-.269291 1.241796-.452757 1.289062-.408203.146462.138055-.729891.769651-1.675781 1.207031-.496289.229486-.902343.486002-.902343.570313 0 .08431.239817.425617.533203.759765.401269.457022.667412.606677 1.074218.603516 1.598924-.01243 3.556453-.89016 4.691407-2.103516l.789062-.84375-.11914-1.402344c-.344598-4.048989-1.969075-9.216061-3.166016-10.068358-1.482536-1.055658-4.591952-2.044766-5.035156-1.601563-.144905.144905-.06671.24804.304687.402344 1.611266.669437 2.344342 1.028706 2.265625 1.107422-.04907.04907-.698152-.08882-1.443359-.304688-1.183353-.342775-1.736343-.39091-4.363281-.388672-2.606053.0022-3.191476.05392-4.382813.392578-.75625.214979-1.529688.432763-1.71875.482422-.691304.181576.832276-.685444 1.857422-1.05664 1.097253-.397306 1.469654-.767579.771484-.767579zm7.091797 7.306641c.128317.000242.261332.01285.398438.03906.247935.0474.683064.350672.966796.673828.870854.991846.608349 2.65813-.509765 3.236327-.678674.350957-1.183075.326816-1.863281-.08789-1.797914-1.096158-.916946-3.864953 1.007812-3.861328zm-7.335937.0332c1.165704-.124063 2.261407.947923 2.117187 2.263672-.141979 1.295312-1.52987 2.230311-2.611328 1.757812-1.644157-.718349-1.648092-3.2064-.0059-3.892578.165991-.06935.33347-.111182.5-.128906z" fill="url(#b)" stroke-width=".171875"/></svg>