<svg height="48" width="48" xmlns="http://www.w3.org/2000/svg" xmlns:xlink="http://www.w3.org/1999/xlink"><linearGradient id="a" gradientUnits="userSpaceOnUse" x1="399.57144" x2="399.57144" y1="545.79797" y2="517.79797"><stop offset="0" stop-color="#3889e9"/><stop offset="1" stop-color="#5ea5fb"/></linearGradient><linearGradient id="b" gradientUnits="userSpaceOnUse" x1="399.9939" x2="399.9939" y1="545.13873" y2="518.13873"><stop offset="0" stop-color="#007aac"/><stop offset="1" stop-color="#00a0e2"/></linearGradient><g stroke-width="1.299897" transform="matrix(1.714290829385 0 0 1.714290829385 -662.715843961977 -887.647284388227)"><circle cx="400.57138" cy="531.79791" fill="url(#b)" r="13.999958"/><circle cx="400.57138" cy="531.79791" fill="url(#a)" r="0"/></g><path d="m674.86424 786.86016c-3.34274.10837 8.90473 17.00542-.528 15.92622 7.86598 2.17939 9.66748-7.97286 8.06098-12.93986-1.59075-4.91939-2.41799-1.84971-7.15948-2.94241-.14175-.0326-.26625-.0475-.3735-.0439zm-9.37273 2.35534c-5.17026-.007-2.50626 1.72911-5.01088 5.90176-2.39197 3.98455 18.8947-3.1521 14.82671 5.76346 4.50299-6.80666-4.59599-11.65817-9.81598-11.66492zm3.6375 7.62787c-4.13699-.01-8.30023 4.69102-9.46423 8.2571-1.6044 4.91526.86917 2.91885 4.06349 6.58992 3.05024 3.50683 2.84249-18.94556 10.06497-12.32114-1.42949-1.79616-3.04499-2.52138-4.66423-2.52588zm17.7817.79834c-2.79284.26727-12.98097 13.21735-14.68646 4.81326.35829 8.1536 10.57272 6.73025 14.79896 3.66777 4.18716-3.03367 1.01077-2.87303.58447-7.72087-.0509-.57873-.29829-.79841-.69726-.76024zm-15.02321 2.69957c-7.64398 2.86043-3.13327 12.13515 1.08547 15.2085 4.17899 3.04477 3.04469.0739 7.52323-1.82954 4.27739-1.81783-17.14045-8.55708-8.60923-13.37934z" fill="#fff" fill-opacity=".85" fill-rule="evenodd" transform="matrix(1.032090701218 0 0 1.032090701218 -671.301166048143 -803.004610139914)"/></svg>