<svg height="48" width="48" xmlns="http://www.w3.org/2000/svg" xmlns:xlink="http://www.w3.org/1999/xlink"><linearGradient id="a" gradientUnits="userSpaceOnUse" x1="399.57144" x2="399.57144" y1="545.79797" y2="517.79797"><stop offset="0" stop-color="#3889e9"/><stop offset="1" stop-color="#5ea5fb"/></linearGradient><linearGradient id="b" gradientUnits="userSpaceOnUse" x1="399.9939" x2="399.9939" y1="545.13873" y2="518.13873"><stop offset="0" stop-color="#0a80fd"/><stop offset="1" stop-color="#56c5fa"/></linearGradient><g stroke-width="1.299897" transform="matrix(1.714290900232 0 0 1.714290900232 -662.71587129361 -887.647322756789)"><circle cx="400.57138" cy="531.79791" fill="url(#b)" r="13.999958"/><circle cx="400.57138" cy="531.79791" fill="url(#a)" r="0"/></g><path d="m673.99096 786.06661c-1.20204 2.94701-1.92701 4.87468-3.26527 7.73381.82049.86979 1.82767 1.88264 3.46336 3.02662-1.75849-.72364-2.95796-1.4501-3.85435-2.20396-1.71272 3.57396-4.39615 8.66484-9.84162 18.44905 4.27996-2.47084 7.59744-3.99415 10.6896-4.57546-.13276-.57103-.20827-1.18872-.20314-1.83321l.004-.13713c.0679-2.74205 1.4943-4.85066 3.18399-4.70747 1.6897.14313 3.00312 2.48339 2.9352 5.22544-.0127.51602-.071 1.01231-.17264 1.4727 3.05841.5983 6.34064 2.11771 10.56267 4.55513-.83252-1.53265-1.57559-2.91428-2.28517-4.23012-1.11779-.86634-2.28362-1.99383-4.66176-3.21451 1.63461.42475 2.80496.91477 3.71723 1.46252-7.21462-13.43273-7.79862-15.21782-10.27303-21.02409z" fill="#fff" fill-opacity=".85" fill-rule="evenodd" transform="matrix(1.032090743871 0 0 1.032090743871 -671.404401580361 -802.591813627318)"/></svg>