<?xml version="1.0" encoding="UTF-8" standalone="no"?>
<!-- Created with Inkscape (http://www.inkscape.org/) -->

<svg
   xmlns:osb="http://www.openswatchbook.org/uri/2009/osb"
   xmlns:dc="http://purl.org/dc/elements/1.1/"
   xmlns:cc="http://creativecommons.org/ns#"
   xmlns:rdf="http://www.w3.org/1999/02/22-rdf-syntax-ns#"
   xmlns:svg="http://www.w3.org/2000/svg"
   xmlns="http://www.w3.org/2000/svg"
   xmlns:xlink="http://www.w3.org/1999/xlink"
   xmlns:sodipodi="http://sodipodi.sourceforge.net/DTD/sodipodi-0.dtd"
   xmlns:inkscape="http://www.inkscape.org/namespaces/inkscape"
   width="48"
   height="48"
   id="svg5453"
   version="1.1"
   inkscape:version="0.91 r13725"
   sodipodi:docname="distributor-logo-xubuntu.svg">
  <defs
     id="defs5455">
    <linearGradient
       inkscape:collect="always"
       id="linearGradient4581">
      <stop
         style="stop-color:#4469b9;stop-opacity:1"
         offset="0"
         id="stop4583" />
      <stop
         style="stop-color:#5d91ff;stop-opacity:1"
         offset="1"
         id="stop4585" />
    </linearGradient>
    <linearGradient
       id="linearGradient4232">
      <stop
         id="stop4234-0"
         offset="0"
         style="stop-color:#3889e9;stop-opacity:1" />
      <stop
         id="stop4236"
         offset="1"
         style="stop-color:#5ea5fb;stop-opacity:1" />
    </linearGradient>
    <linearGradient
       inkscape:collect="always"
       xlink:href="#linearGradient4232"
       id="linearGradient3426"
       x1="399.57144"
       y1="545.79797"
       x2="399.57144"
       y2="517.79797"
       gradientUnits="userSpaceOnUse" />
    <linearGradient
       inkscape:collect="always"
       xlink:href="#linearGradient4581"
       id="linearGradient4181"
       gradientUnits="userSpaceOnUse"
       x1="399.9939"
       y1="545.13873"
       x2="399.9939"
       y2="518.13873" />
    <style
       type="text/css"
       id="current-color-scheme">.ColorScheme-Text {
        color:#31363b;
      }
      .ColorScheme-Background{
        color:#eff0f1;
      }
      .ColorScheme-ViewText {
        color:#31363b;
      }
      .ColorScheme-ViewBackground{
        color:#fcfcfc;
      }
      .ColorScheme-ViewHover {
        color:#3daee9;
      }
      .ColorScheme-ViewFocus{
        color:#3daee9;
      }
      .ColorScheme-ButtonText {
        color:#31363b;
      }
      .ColorScheme-ButtonBackground{
        color:#eff0f1;
      }
      .ColorScheme-ButtonHover {
        color:#3daee9;
      }
      .ColorScheme-ButtonFocus{
        color:#3daee9;
      }</style>
    <style
       type="text/css"
       id="current-color-scheme-8">.ColorScheme-Text {
        color:#31363b;
      }
      .ColorScheme-Background{
        color:#eff0f1;
      }
      .ColorScheme-ViewText {
        color:#31363b;
      }
      .ColorScheme-ViewBackground{
        color:#fcfcfc;
      }
      .ColorScheme-ViewHover {
        color:#3daee9;
      }
      .ColorScheme-ViewFocus{
        color:#3daee9;
      }
      .ColorScheme-ButtonText {
        color:#31363b;
      }
      .ColorScheme-ButtonBackground{
        color:#eff0f1;
      }
      .ColorScheme-ButtonHover {
        color:#3daee9;
      }
      .ColorScheme-ButtonFocus{
        color:#3daee9;
      }</style>
    <style
       type="text/css"
       id="current-color-scheme-7">.ColorScheme-Text {
        color:#31363b;
      }
      .ColorScheme-Background{
        color:#eff0f1;
      }
      .ColorScheme-ViewText {
        color:#31363b;
      }
      .ColorScheme-ViewBackground{
        color:#fcfcfc;
      }
      .ColorScheme-ViewHover {
        color:#3daee9;
      }
      .ColorScheme-ViewFocus{
        color:#3daee9;
      }
      .ColorScheme-ButtonText {
        color:#31363b;
      }
      .ColorScheme-ButtonBackground{
        color:#eff0f1;
      }
      .ColorScheme-ButtonHover {
        color:#3daee9;
      }
      .ColorScheme-ButtonFocus{
        color:#3daee9;
      }</style>
    <linearGradient
       id="linearGradient4207"
       osb:paint="gradient">
      <stop
         style="stop-color:#3498db;stop-opacity:1;"
         offset="0"
         id="stop3371" />
      <stop
         style="stop-color:#3498db;stop-opacity:0;"
         offset="1"
         id="stop3373" />
    </linearGradient>
  </defs>
  <sodipodi:namedview
     id="base"
     pagecolor="#6b6b6b"
     bordercolor="#666666"
     borderopacity="1.0"
     inkscape:pageopacity="0"
     inkscape:pageshadow="2"
     inkscape:zoom="5.14"
     inkscape:cx="-8.5001675"
     inkscape:cy="17.149901"
     inkscape:document-units="px"
     inkscape:current-layer="g5657"
     showgrid="false"
     fit-margin-top="0"
     fit-margin-left="0"
     fit-margin-right="0"
     fit-margin-bottom="0"
     inkscape:window-width="1362"
     inkscape:window-height="642"
     inkscape:window-x="0"
     inkscape:window-y="33"
     inkscape:window-maximized="0"
     inkscape:showpageshadow="false"
     borderlayer="true"
     showguides="false"
     inkscape:snap-bbox="true"
     inkscape:bbox-paths="false"
     inkscape:bbox-nodes="true"
     inkscape:object-nodes="true"
     inkscape:snap-center="true"
     inkscape:guide-bbox="true">
    <inkscape:grid
       type="xygrid"
       id="grid4063" />
    <sodipodi:guide
       position="1.1650391e-05,47.999996"
       orientation="4,0"
       id="guide4146" />
    <sodipodi:guide
       position="2,38"
       orientation="0,48"
       id="guide4148" />
    <sodipodi:guide
       position="48.000012,43.999996"
       orientation="-4,0"
       id="guide4150" />
    <sodipodi:guide
       position="48.000012,47.999996"
       orientation="0,-48"
       id="guide4152" />
    <sodipodi:guide
       position="1.1650391e-05,4.0000264"
       orientation="4,0"
       id="guide4154" />
    <sodipodi:guide
       position="1.1650391e-05,2.6367188e-05"
       orientation="0,48"
       id="guide4156" />
    <sodipodi:guide
       position="48.000012,2.6367188e-05"
       orientation="-4,0"
       id="guide4158" />
    <sodipodi:guide
       position="48.000012,4.0000264"
       orientation="0,-48"
       id="guide4160" />
    <sodipodi:guide
       position="48.000012,48.000026"
       orientation="0,-4"
       id="guide4162" />
    <sodipodi:guide
       position="44.000012,48.000026"
       orientation="48,0"
       id="guide4164" />
    <sodipodi:guide
       position="44.000012,2.6367188e-05"
       orientation="0,4"
       id="guide4166" />
    <sodipodi:guide
       position="48.000012,2.6367188e-05"
       orientation="-48,0"
       id="guide4168" />
    <sodipodi:guide
       position="4.0000422,48.000026"
       orientation="0,-4"
       id="guide4170" />
    <sodipodi:guide
       position="4.2167969e-05,48.000026"
       orientation="48,0"
       id="guide4172" />
    <sodipodi:guide
       position="4.2167969e-05,2.6367188e-05"
       orientation="0,4"
       id="guide4174" />
    <sodipodi:guide
       position="4.0000422,43.999996"
       orientation="39.999969,0"
       id="guide4175" />
    <sodipodi:guide
       position="4.0000422,4.0000264"
       orientation="0,20"
       id="guide4177" />
    <sodipodi:guide
       position="24.000042,4.0000264"
       orientation="-39.999969,0"
       id="guide4179" />
    <sodipodi:guide
       position="24.000042,43.999996"
       orientation="0,-20"
       id="guide4181" />
    <sodipodi:guide
       position="4.0000422,23.999843"
       orientation="20,0"
       id="guide4185" />
    <sodipodi:guide
       position="44.000012,3.9998433"
       orientation="-20,0"
       id="guide4189" />
    <sodipodi:guide
       position="44.000012,23.999843"
       orientation="0,-39.999969"
       id="guide4191" />
    <sodipodi:guide
       position="-5.3201604,51.964357"
       orientation="0,1"
       id="guide4537" />
  </sodipodi:namedview>
  <metadata
     id="metadata5458">
    <rdf:RDF>
      <cc:Work
         rdf:about="">
        <dc:format>image/svg+xml</dc:format>
        <dc:type
           rdf:resource="http://purl.org/dc/dcmitype/StillImage" />
        <dc:title></dc:title>
      </cc:Work>
    </rdf:RDF>
  </metadata>
  <g
     inkscape:label="Capa 1"
     inkscape:groupmode="layer"
     id="layer1"
     transform="translate(-384.57143,-499.798)">
    <g
       id="g4471"
       transform="matrix(1.0931221,0,0,1.0931221,33.310366,-50.486049)">
      <g
         inkscape:label="Capa 1"
         id="layer1-39"
         transform="matrix(1.5444819,0,0,1.5444819,-275.38426,-295.80854)" />
      <g
         id="g4320"
         transform="matrix(0.98381885,0,0,0.98381885,5.5651187,8.3948576)"
         style="stroke:none">
        <g
           style="stroke:none;stroke-width:1.29989684;stroke-miterlimit:4;stroke-dasharray:none;stroke-opacity:1"
           transform="matrix(1.5444819,0,0,1.5444819,-275.17538,-295.73877)"
           inkscape:label="Capa 1"
           id="layer1-3">
          <circle
             style="opacity:1;fill:url(#linearGradient4181);fill-opacity:1.0;stroke:none;stroke-width:0.94059104;stroke-miterlimit:4;stroke-dasharray:none;stroke-dashoffset:0;stroke-opacity:1"
             id="path3377"
             cx="400.57138"
             cy="531.79791"
             r="13.999958" />
          <circle
             r="0"
             cy="531.79791"
             cx="400.57138"
             id="ellipse4233"
             style="opacity:1;fill:url(#linearGradient3426);fill-opacity:1;stroke:none;stroke-width:1.29989684;stroke-miterlimit:4;stroke-dasharray:none;stroke-dashoffset:0;stroke-opacity:1" />
        </g>
      </g>
      <g
         transform="matrix(0.91481089,0,0,0.91481089,-163.16748,-245.05342)"
         id="layer1-2">
        <g
           transform="translate(-120.10595,41.912995)"
           id="layer1-6">
          <g
             style="stroke:none;stroke-width:1.29989684;stroke-miterlimit:4;stroke-dasharray:none;stroke-opacity:1"
             id="g5657"
             transform="matrix(1.4798576,0,0,1.4798576,22.783781,14.417625)">
            <g
               id="g3637"
               transform="matrix(0.45674445,0,0,0.45674445,266.99155,357.48822)">
              <g
                 inkscape:export-ydpi="92.220436"
                 inkscape:export-xdpi="92.220436"
                 inkscape:export-filename="/ssh/nebula/public_html/temp/xubuntu/precise_logo/logo_bigsizes.png"
                 transform="matrix(1.6,0,0,1.6,-180.73698,-248.42295)"
                 id="g3372"
                 style="fill:#eaeff9;fill-opacity:1">
                <g
                   id="g3368"
                   transform="translate(0.44642857,-0.04464286)"
                   style="fill:#eaeff9;fill-opacity:1">
                  <path
                     d="m 355.83984,380.40234 c -0.0604,0.037 -0.0851,0.0689 -0.0703,0.0449 -0.6791,1.14846 -0.68514,2.65218 -0.99219,4.00195 a 0.4982215,0.4982215 0 0 1 0,0.0703 c -0.1505,1.47805 -0.63371,2.98202 -0.24609,4.40039 a 0.4982215,0.4982215 0 0 1 0.0391,0.0899 c 0.0721,0.0932 0.16294,0.17837 0.2168,0.18945 0.0403,0.008 0.10045,-0.0102 0.24023,-0.10742 0.15127,-0.1053 0.24855,-0.2987 0.29297,-0.57618 a 0.4982215,0.4982215 0 0 1 0.0859,-0.20898 c 0.60561,-2.40329 1.03769,-4.92777 0.87695,-7.39844 a 0.4982215,0.4982215 0 0 1 0,-0.0254 c -0.021,-0.11401 -0.0566,-0.18236 -0.16601,-0.31445 -0.0753,-0.0907 -0.12141,-0.13888 -0.14063,-0.15234 -0.0192,-0.0135 -0.003,-0.0158 -0.0723,-0.0117 a 0.4982215,0.4982215 0 0 1 -0.0645,-0.002 z"
                     id="path3366"
                     style="fill:#eaeff9;fill-opacity:1;stroke:none"
                     inkscape:original="M 355.71875 379.90625 C 355.68125 379.91125 355.65195 379.93505 355.59375 379.96875 C 355.47738 380.03605 355.39105 380.1111 355.34375 380.1875 C 354.55632 381.51387 354.58195 383.13517 354.28125 384.40625 A 0.41364053 0.41365909 0 0 0 354.28125 384.46875 C 354.13756 385.87984 353.5878 387.50263 354.0625 389.125 A 0.41364053 0.41365909 0 0 0 354.09375 389.15625 A 0.41364053 0.41365909 0 0 0 354.09375 389.21875 C 354.22466 389.44765 354.44007 389.6366 354.6875 389.6875 C 354.93495 389.7377 355.14523 389.6164 355.3125 389.5 C 355.61157 389.29182 355.7553 388.95103 355.8125 388.59375 L 355.875 388.59375 L 355.875 388.5 C 356.49625 386.05054 356.94871 383.449 356.78125 380.875 A 0.41364053 0.41365909 0 0 0 356.78125 380.8125 C 356.74305 380.58377 356.63856 380.41727 356.5 380.25 C 356.36183 380.08363 356.21445 379.88625 355.875 379.90625 A 0.41364053 0.41365909 0 0 0 355.8125 379.90625 C 355.7934 379.90825 355.75625 379.90125 355.71875 379.90625 z "
                     inkscape:radius="-0.49817169"
                     sodipodi:type="inkscape:offset" />
                  <path
                     transform="translate(-0.49107143,-0.26785714)"
                     d="m 361.90234,381.83789 a 0.46681363,0.46681363 0 0 1 -0.0508,0.004 c -1.04198,0.5071 -1.57789,1.73208 -2.29883,2.71679 a 0.46681363,0.46681363 0 0 1 -0.0527,0.13868 c -0.90784,1.60892 -2.06389,3.20366 -2.18555,5.06445 0.006,0.29418 0.17347,0.46224 0.34766,0.5 0.16423,0.0345 0.4648,-0.0716 0.58789,-0.25586 0.0107,-0.0266 0.002,-0.0534 0.0176,-0.0762 a 0.46681363,0.46681363 0 0 1 0.0117,-0.0176 c 1.64599,-2.26173 2.89002,-4.94442 3.91211,-7.55078 a 0.46681363,0.46681363 0 0 1 0.002,-0.008 c 0.0707,-0.17114 0.0746,-0.23837 0.0117,-0.36719 -0.0185,-0.0381 -0.20261,-0.1609 -0.30274,-0.14844 z"
                     id="path3364"
                     style="fill:#eaeff9;fill-opacity:1;stroke:none"
                     inkscape:original="M 361.71875 381.375 C 360.36735 381.97973 359.80389 383.48371 359.09375 384.40625 A 0.35934087 0.35935699 0 0 0 359.09375 384.46875 C 358.2047 386.04438 356.96957 387.70963 356.84375 389.75 C 356.84375 390.25018 357.15979 390.63145 357.5625 390.71875 C 357.94157 390.80055 358.42044 390.62675 358.65625 390.25 C 358.67445 390.23 358.64175 390.2093 358.65625 390.1875 C 360.33963 387.8744 361.59578 385.15579 362.625 382.53125 C 362.72864 382.28034 362.74863 382.0347 362.625 381.78125 C 362.50136 381.52707 362.16517 381.335 361.84375 381.375 A 0.35934087 0.35935699 0 0 0 361.78125 381.375 L 361.71875 381.375 z "
                     inkscape:radius="-0.46676695"
                     sodipodi:type="inkscape:offset" />
                </g>
                <path
                   inkscape:connector-curvature="0"
                   style="fill:#eaeff9;fill-opacity:1;stroke:none"
                   d="m 345.66985,382.2774 c -0.16726,0.0311 -0.4161,0.1809 -0.59375,0.25 -0.62832,0.23837 -0.975,0.77698 -1.125,1.40625 -0.15274,0.64382 -0.10183,1.36084 0,2.09375 0.10181,0.73145 0.24752,1.48649 0.40625,2.0625 0.13645,0.49836 0.23415,0.7408 0.28125,0.90625 l 0,0.125 c 0,0.0545 -0.0261,0.05 -0.0625,0.0937 -0.02,0.0109 0.02,0.0625 0,0.0625 -0.0453,0.0346 -0.0999,0.0625 -0.15625,0.0625 -0.11101,0.007 -0.19778,-0.0334 -0.3125,-0.0625 -0.0782,-0.0181 -0.17995,-0.0807 -0.15625,-0.0625 -0.0363,-0.0218 -0.1013,-0.0243 -0.125,-0.0625 0,0.0146 0.0219,0.0143 0,-0.0312 -0.0254,-0.0473 -0.0537,-0.1664 -0.0937,-0.25 -0.0891,-0.18946 -0.15908,-0.40895 -0.28125,-0.6875 -0.24381,-0.55472 -0.55754,-1.23609 -0.90625,-1.875 -0.34999,-0.64145 -0.76223,-1.22354 -1.21875,-1.625 -0.22817,-0.20054 -0.50982,-0.40155 -0.78125,-0.46875 -0.26199,-0.0655 -0.57287,-0.01 -0.84375,0.125 -0.69997,0.38836 -1.09619,1.02422 -1.25,1.6875 -0.15456,0.67346 -0.0815,1.44899 0.0312,2.125 0.11454,0.67454 0.29189,1.23077 0.40625,1.6875 0.049,0.19254 0.1087,0.37235 0.125,0.46875 0,0.0955 -0.0389,0.3448 -0.0625,0.4375 -0.11818,0.40928 -0.40559,1.09375 -0.40625,1.09375 0,0 -5.45294,14.48293 6.25,13.46875 0.0964,-0.007 0.31535,-0.0625 0.40625,-0.0625 2.29827,-0.46272 4.47308,-1.15769 6.40625,-1.9375 0.3798,-0.182 0.87805,-0.36282 1.4375,-0.625 1.11885,-0.52418 2.52451,-1.19587 3.875,-1.9375 1.35103,-0.74219 2.60454,-1.533 3.5625,-2.375 0.9596,-0.84327 1.65997,-1.76731 1.53125,-2.6875 -0.20364,-1.48345 -1.18879,-2.58587 -2.5,-3.4375 -1.31613,-0.85473 -2.95728,-1.44464 -4.59375,-1.875 -1.63576,-0.43018 -3.2241,-0.78002 -4.4375,-0.96875 -0.60652,-0.0945 -1.1749,-0.122 -1.53125,-0.1875 -0.10544,-0.0181 -0.16175,-0.0443 -0.21875,-0.0625 -0.0307,-0.004 -0.0334,-0.0131 -0.0625,-0.0312 -0.0363,-0.0218 -0.1031,-0.0243 -0.125,-0.0625 -0.02,-0.0363 0,-0.0832 0,-0.125 0,-0.0163 -1.7e-4,-0.0407 0,-0.0625 l 0,-0.90625 c -0.02,-0.748 -0.064,-1.73553 -0.21875,-2.65625 -0.15637,-0.92455 -0.39754,-1.80879 -0.90625,-2.40625 -0.30235,-0.35545 -0.73038,-0.5887 -1.25,-0.625 -0.15636,-0.0182 -0.3311,-0.0309 -0.5,0 z"
                   id="path3302" />
              </g>
            </g>
          </g>
        </g>
      </g>
    </g>
  </g>
</svg>
