<svg height="48" width="48" xmlns="http://www.w3.org/2000/svg" xmlns:xlink="http://www.w3.org/1999/xlink"><linearGradient id="a" gradientUnits="userSpaceOnUse" x1="399.57144" x2="399.57144" y1="545.79797" y2="517.79797"><stop offset="0" stop-color="#3889e9"/><stop offset="1" stop-color="#5ea5fb"/></linearGradient><linearGradient id="b" gradientUnits="userSpaceOnUse" x1="399.9939" x2="399.9939" y1="545.13873" y2="518.13873"><stop offset="0" stop-color="#007aac"/><stop offset="1" stop-color="#00a8ee"/></linearGradient><g fill="#fff" transform="matrix(1.032090701218 0 0 1.032090701218 -547.340940431207 -845.849811607559)"><g stroke-width="1.299897" transform="matrix(1.660988502093 0 0 1.660988502093 -111.787567132458 -40.497877950057)"><circle cx="400.57138" cy="531.79791" fill="url(#b)" r="13.999958"/><circle cx="400.57138" cy="531.79791" fill="url(#a)" r="0"/></g><g enable-background="new" fill="#fff" fill-opacity=".85" transform="matrix(.149589999836 0 0 .149589998202 524.6860328773 748.8216668642)"><g fill="#fff" fill-opacity=".85" transform="translate(-.20836 7.0001)"><path d="m177.89 597.13h-.01c-6.6729 0-12.107-5.4267-12.114-12.095-.01-6.6905 5.4251-12.125 12.104-12.132 6.683 0 12.116 5.4267 12.124 12.095 0 6.6905-5.4251 12.126-12.104 12.133z"/><path d="m210.61 588.24c-6.2309 0-11.302-5.0662-11.307-11.292-.01-6.242 5.0612-11.316 11.296-11.321 6.2392 0 11.311 5.0651 11.317 11.291 0 6.242-5.0622 11.316-11.296 11.323h-.01z"/><circle cx="191.2026" cy="555.9560178" r="10.0954" stroke-width="1.4422"/><circle cx="207.357825" cy="538.99666838761" r="9.287515" stroke-width=".80761"/><circle cx="187.19" cy="522.43995446915" r="8.076075" stroke-width=".76915"/></g><path d="m143.93 615.04c-10.45 13.55-18.93 28.78-18.93 47.24 0 40.006 30.358 73 68 73 37.64 0 68-32.993 68-73 0-18.461-8.4889-33.212-19.53-47.238-4.1402-4.3446-10.118-3.6986-14.469-.91856-12.733 6.5886-19.606 9.2209-34.001 9.1565-13.922-.0624-21.237-2.336-33.97-9.2774-4.3514-2.6592-10.964-3.3052-15.104 1.0394zm9.07 11.24c13.198 7.2975 24.969 11 40 11 15.044 0 26.795-3.7025 40-11 7.2055 10.16 14 22.758 14 36 0 32.801-24.175 59-54 59-29.826 0-54-26.199-54-59 0-13.225 6.7788-25.832 14-36z" fill="#fff" fill-opacity=".85"/></g></g><rect fill="none" height="60.00000007078" ry="10.000000011797" stroke-width="1.00000000118" width="20.000000023593" x="387.661938717454" y="-186.230444997694"/></svg>