<svg height="48" width="48" xmlns="http://www.w3.org/2000/svg" xmlns:xlink="http://www.w3.org/1999/xlink"><linearGradient id="a" gradientTransform="matrix(-1.382991 0 0 1.382991 8.395848 984.39486)" gradientUnits="userSpaceOnUse" spreadMethod="pad" x1="10.789665" x2="10.29653" y1="43.786892" y2="4.535699"><stop offset="0" stop-color="#e9c6af"/><stop offset="1" stop-color="#d38d5f"/></linearGradient><linearGradient id="b" gradientUnits="userSpaceOnUse" x1="49.21504490915" x2="49.21504490915" y1="1015.59266284442" y2="979.59267623074"><stop offset="0" stop-color="#0bac83"/><stop offset="1" stop-color="#10da96"/></linearGradient><linearGradient id="c" gradientTransform="translate(.34384 -2.403684)" gradientUnits="userSpaceOnUse" x1="77.16452" x2="59.601452" xlink:href="#a" y1="1006.8183" y2="1017.2236"/><linearGradient id="d" gradientTransform="translate(.34384 -2.403684)" gradientUnits="userSpaceOnUse" x1="47.810841" x2="80.809265" xlink:href="#a" y1="986.39215" y2="986.39215"/><linearGradient id="e" gradientTransform="translate(-26.889 2.1215)" gradientUnits="userSpaceOnUse" x1="37.776417" x2="37.74617" xlink:href="#a" y1="982.18915" y2="1028.6414"/><linearGradient id="f" gradientTransform="matrix(-.99999372 0 0 .99999372 68.922854 2.127843)" gradientUnits="userSpaceOnUse" x1="37.776417" x2="37.74617" xlink:href="#a" y1="982.18915" y2="1028.6414"/><linearGradient id="g" gradientTransform="translate(.34384 -2.403684)" gradientUnits="userSpaceOnUse" x1="18.422693" x2="36.782009" xlink:href="#a" y1="1006.5843" y2="1016.6179"/><linearGradient id="h" gradientTransform="translate(.34384 -2.403684)" gradientUnits="userSpaceOnUse" x1="14.809262" x2="47.80714" xlink:href="#a" y1="986.39703" y2="986.39703"/><g transform="matrix(.66666667 0 0 .66666667 -8.102068 -645.268444)"><g fill-opacity=".666667" transform="translate(27.133919 -3.742021)"><path d="m-.3850029 999.59628.0011 25.72792 21.4005049 13.3173v-25.867z" stroke-width=".998574"/><path d="m42.419024 999.59637-.0011 25.72773-21.401322 13.3172v-25.8668z" stroke-width=".998568"/></g><g stroke-width=".998574"><path d="m48.15098 981.85975 21.34406 13.21137-21.19853 13.29908-21.448673-13.29908z" fill="#6c5d53"/><path d="m48.15098 981.85975 21.302664 13.21135 11.699458-8.86615-21.448683-13.2991z" fill="url(#d)"/><path d="m48.15098 981.85975-.000459 26.42265-21.199072 12.548-.103048-25.75928z" fill="#917c6f"/></g><path d="m48.150979 981.85975-21.302677 13.21135-11.6952-8.85649 21.44833-13.29906z" fill="url(#h)" stroke-width=".998558"/><rect fill="url(#b)" height="35.999985" ry="17.999992" width="36" x="30.315039" y="979.59253"/><g transform="translate(27.133919 -4.492084)"><path d="m-.3850029 999.59628.0011 25.72792 21.4005049 13.3173v-25.867z" fill="url(#e)" stroke-width=".998574"/><path d="m42.419024 999.59637-.0011 25.72773-21.401322 13.3172v-25.8668z" fill="url(#f)" stroke-width=".998568"/></g><path d="m40.667734 994.27652c.542316.5466 1.42405.5484 1.969332 0l5.510438-6.0636 5.484675 6.0869c.542953.5466 1.424037.5484 1.969305 0 .545281-.5443.547156-1.4277.0042-1.9743l-6.380009-7.0812c-.293742-.2954-.685487-.4261-1.071014-.4027-.384746-.025-.77772.1042-1.072686.3981l-6.41004 7.0541c-.544604.5443-.546479 1.4277-.0042 1.9743zm7.462595 5.89448c-1.267196 0-2.296644 1.0237-2.299337 2.2924-.0027 1.2687 1.022389 2.2994 2.289585 2.3021 1.267196 0 2.296658-1.0236 2.299351-2.2923.0027-1.2688-1.022403-2.2995-2.289599-2.3022zm.01393-6.56348c-1.267196 0-2.296644 1.0236-2.299337 2.2924-.0027 1.2687 1.022389 2.2994 2.289585 2.3021 1.267196 0 2.296658-1.0237 2.299351-2.2924.0027-1.2687-1.022403-2.2994-2.289599-2.3021z" fill="#fff" fill-opacity=".850806" stroke-width="1.353073"/><g transform="translate(27.133919 -4.492084)"><path d="m-.3850029 999.59628.0011 25.72792 21.4005049 13.3173v-25.867z" fill="url(#e)" stroke-width=".998574"/><path d="m42.419024 999.59637-.0011 25.72773-21.401322 13.3172v-25.8668z" fill="url(#f)" stroke-width=".998568"/></g><path d="m15.298097 1004.0153 21.389541 13.2387 11.462883-8.9716-21.302684-13.2113z" fill="url(#g)" stroke-width=".998574"/><path d="m81.00365 1004.0153-21.302672 13.2113-11.550457-8.9442 21.303588-13.2113z" fill="url(#c)" stroke-width=".998558"/><path d="m27.086786 995.31148 16.523438 16.52342-6.922853 5.4199-9.937499-6.1494v4.3623l14.203124 14.2031 7.198242 4.4795v-25.8691z" fill-opacity=".078431" stroke-width=".998574"/><path d="m15.298097 1004.0153 21.389541 13.2387 11.462883-8.9716-21.302684-13.2113z" fill="url(#g)" stroke-width=".998574"/></g></svg>