<svg height="48" width="48" xmlns="http://www.w3.org/2000/svg" xmlns:xlink="http://www.w3.org/1999/xlink"><linearGradient id="a"><stop offset="0" stop-color="#d3d3d3"/><stop offset="1" stop-color="#fcf9f9"/></linearGradient><linearGradient id="b" gradientUnits="userSpaceOnUse" x1="3.71884735676" x2="3.71884735676" y1="50.955491643" y2="5.106429643"><stop offset="0" stop-color="#3889e9"/><stop offset="1" stop-color="#5ea5fb"/></linearGradient><linearGradient id="c" gradientUnits="userSpaceOnUse" x1="22.23461" x2="30.69695" xlink:href="#a" y1="35.42228" y2="17.20646"/><linearGradient id="d" gradientUnits="userSpaceOnUse" x1="23.25158" x2="9.06921" xlink:href="#a" y1="35.01551" y2="11.75556"/><linearGradient id="e" gradientUnits="userSpaceOnUse" x1="-93.857531" x2="-93.857531" y1="72.440592" y2="26.570152"><stop offset="0" stop-color="#8d3aff"/><stop offset="1" stop-color="#ff3680"/></linearGradient><circle cx="5.356216" cy="28.030867" fill="url(#b)" r="0" stroke-width="1.637467"/><circle cx="17.479734" cy="30.563732" fill="#fff" fill-opacity=".846774" r="0"/><circle cx="-93.570801" cy="49.79768" fill="none" r="0" stroke="url(#e)" stroke-width="2.129699"/><circle cx="24.000042" cy="24.000158" fill="#bb2fec" fill-opacity=".935345" r="24.000002" stroke-width=".138371"/><path d="m20.909051 14.827401c-.77464.21739-1.3982 1.08184-1.3982 1.92163v13.31356c-.7855-.43065-1.79428-.6048-2.84014-.32019-1.88723.51341-3.06989 2.17277-2.66535 3.70584.40456 1.53298 2.26368 2.38924 4.15098 1.87571 1.50561-.40959 2.5435-1.56861 2.70899-2.79078l.0441-12.5816 9.78749-2.74509v9.92807c-.78549-.43068-1.79426-.60481-2.84016-.32031-1.88721.51344-3.06984 2.17288-2.66532 3.70586.40458 1.53307 2.2637 2.38922 4.15094 1.87579 1.50564-.40959 2.54352-1.56858 2.70903-2.79076l.0443-16.37903c0-.62973-.37172-1.10087-.87387-1.18949l-10.31181 2.79079z" fill="url(#c)" opacity=".9"/><circle cx="23.999998" cy="24.000011" fill="none" r="22.935152" stroke="url(#d)" stroke-width="2.129699"/></svg>