<svg height="48" width="48" xmlns="http://www.w3.org/2000/svg" xmlns:xlink="http://www.w3.org/1999/xlink"><linearGradient id="a" gradientUnits="userSpaceOnUse" x1="355.73464" x2="355.690694" y1="546.99839" y2="505.327471"><stop offset="0" stop-color="#2f74c8"/><stop offset="1" stop-color="#4aa2e4"/></linearGradient><linearGradient id="b" gradientTransform="matrix(-.56777405 0 0 .61822428 579.27321 212.13023)" gradientUnits="userSpaceOnUse" x1="373.44516" x2="373.44516" y1="546.79541" y2="507.86609"><stop offset="0" stop-color="#b1d7fc"/><stop offset="1" stop-color="#f4fcff"/></linearGradient><g transform="matrix(.89337979 0 0 .89337979 -293.47317 -447.15948)"><path d="m372.72396 511.00526c-4.64376-3.77923-10.8097-5.86043-17.36188-5.86043-6.5523 0-12.71825 2.08134-17.3619 5.86043-4.68415 3.81204-7.26383 8.89248-7.26383 14.30562 0 5.1665 2.35146 10.0291 6.6381 13.77566-.0773.17385-.13864.35675-.1778.54904l-1.40852 6.92833c-.16748.8234.0576 1.31439.27567 1.58146.25214.30847.62586.47846 1.05242.47846.32207 0 .66821-.095 1.02889-.28251l8.19253-4.25611c2.83641.91297 5.88571 1.3917 9.02427 1.3917 6.55233 0 12.71811-2.0813 17.36192-5.8604 4.68401-3.81192 7.26369-8.89237 7.26369-14.3055 0-5.41327-2.57956-10.49371-7.26357-14.30575z" fill="url(#a)"/><path d="m391.16596 520.8313c0-1.79082 1.45598-3.24421 3.25118-3.24421 1.7947 0 3.25069 1.45287 3.25069 3.24421 0 1.7924-1.45599 3.24525-3.25069 3.24525-1.7952-.00052-3.25118-1.45285-3.25118-3.24525zm14.74178 0c0-1.79082 1.45756-3.24421 3.25226-3.24421 1.79467 0 3.25118 1.45287 3.25118 3.24421 0 1.7924-1.45597 3.24525-3.25118 3.24525-1.79417-.00052-3.25226-1.45285-3.25226-3.24525zm7.68679 13.28759c-2.01488 4.64945-6.7336 7.65352-12.02171 7.65352-5.40083 0-10.14734-3.01924-12.09249-7.69223-.33347-.80046.0467-1.71916.84937-2.0519.19713-.0811.4016-.1198.60294-.1198.61658 0 1.20171.36412 1.45285.96838 1.45598 3.49743 5.06213 5.75703 9.18733 5.75703 4.03188 0 7.61705-2.26116 9.13386-5.7612.34499-.79575 1.27091-1.1625 2.06732-.8172.79851.34373 1.16553 1.26765.82053 2.0634z" fill="#fff" fill-opacity=".85" transform="matrix(.88904791 0 0 .88904791 -1.958243 55.684538)"/><path d="m358.65242 529.1544c2.32189-2.05752 5.40486-3.19058 8.68093-3.19058 3.27614 0 6.35912 1.13313 8.68094 3.19058 2.34206 2.07537 3.63191 4.8413 3.63191 7.78837 0 2.81279-1.17574 5.46009-3.31906 7.49984.0388.0947.0694.19423.0889.29891l.70425 3.77197c.0837.44829-.0287.7156-.13788.861-.12614.16793-.31294.26049-.52621.26049-.16104 0-.3341-.0517-.51444-.15382l-4.09627-2.31712c-1.4182.49704-2.94284.75766-4.51213.75766-3.27614 0-6.35905-1.13311-8.68093-3.19056-2.342-2.07531-3.63185-4.84125-3.63185-7.7883 0-2.94714 1.28978-5.71307 3.63178-7.78844z" fill="url(#b)"/><g fill="#3c8bd6"><circle cx="362.20261" cy="536.91565" opacity=".837" r="2.237091"/><circle cx="367.30313" cy="536.91565" opacity=".837" r="2.237091"/><circle cx="372.66302" cy="536.91565" opacity=".837" r="2.237091"/></g></g></svg>