<svg height="48" width="48" xmlns="http://www.w3.org/2000/svg" xmlns:xlink="http://www.w3.org/1999/xlink"><linearGradient id="a" gradientUnits="userSpaceOnUse" x1="543.94849" x2="543.74268" y1="484.80768" y2="427.53772"><stop offset="0" stop-color="#86d0fb"/><stop offset="1" stop-color="#2794f5"/></linearGradient><linearGradient id="b" gradientUnits="userSpaceOnUse" x1="520.21163" x2="522.040305" y1="450.541801" y2="434.368866"><stop offset="0" stop-color="#eefefe"/><stop offset="1" stop-color="#d6fefe"/></linearGradient><linearGradient id="c" gradientTransform="matrix(.96522503 -.00790318 -.00790388 1.0083274 20.41848 1.480547)" gradientUnits="userSpaceOnUse" x1="542.83392" x2="543.25458" y1="484.29376" y2="463.62488"><stop offset="0" stop-color="#132e51"/><stop offset="1" stop-color="#2767b9"/></linearGradient><linearGradient id="d" gradientUnits="userSpaceOnUse" x1="610.68256" x2="609.35425" y1="499.79797" y2="460.12192"><stop offset="0" stop-color="#cfd6da"/><stop offset="1" stop-color="#f2f7f9"/></linearGradient><linearGradient id="e" gradientUnits="userSpaceOnUse" x1="615.838159" x2="609.846279" y1="495.434046" y2="469.368336"><stop offset="0" stop-color="#215394"/><stop offset="1" stop-color="#388eff"/></linearGradient><linearGradient id="f" gradientUnits="userSpaceOnUse" x1="610.605636" x2="609.277326" y1="499.576885" y2="459.900835"><stop offset="0" stop-color="#c2c9cc"/><stop offset="1" stop-color="#edf3f5"/></linearGradient><linearGradient id="g" gradientTransform="matrix(.92451065 0 0 .91612595 45.929638 40.021923)" gradientUnits="userSpaceOnUse" x1="610.68256" x2="609.35425" y1="499.79797" y2="460.12192"><stop offset="0" stop-color="#122a49"/><stop offset="1" stop-color="#5ca4d4"/></linearGradient><linearGradient id="h" gradientUnits="userSpaceOnUse" x1="556.43549" x2="555.29846" y1="470.48056" y2="421.86777"><stop offset="0" stop-color="#fe3f3c"/><stop offset="1" stop-color="#ff8729"/></linearGradient><linearGradient id="i" gradientUnits="userSpaceOnUse" x1="611.29034" x2="610.82434" y1="502.11029" y2="485.02814"><stop offset="0" stop-color="#163660"/><stop offset="1" stop-color="#1a4275"/></linearGradient><g transform="matrix(.5284141 -.09126726 .09126726 .5284141 -331.43419 -162.43874)"><rect fill="url(#h)" height="58.986568" ry="2.3" transform="matrix(.89537973 .14886638 -.14886638 .89537973 181.38928 -47.050156)" width="76.809471" x="504.25668" y="426.46411"/><rect fill="url(#a)" height="58.986568" ry="2.3" transform="matrix(.90765278 -.0056985 .0056985 .90765278 95.981015 47.52327)" width="76.809471" x="504.25668" y="426.46411"/><path d="m504.2304 479.41184 14.55149-4.65732 4.59402 3.09494 10.68866-3.70865 10.51696 3.49583 7.58063 1.61197 5.83015-2.02302 7.18039-1.82153 11.56837 4.36341-.0451 5.71285-69.41559.56851s-3.10616.57841-3.08552-2.07338z" fill="url(#c)" fill-rule="evenodd" transform="matrix(.90765278 -.0056985 .0056985 .90765278 95.981015 47.52327)"/><circle cx="521.2431" cy="443.27579" fill="url(#b)" opacity=".811" r="7.594486" transform="matrix(.90765278 -.0056985 .0056985 .90765278 95.981015 47.52327)"/><circle cx="610.99548" cy="479.66388" fill="#99d5fd" r="19.134081" stroke="url(#d)" stroke-linecap="round" stroke-linejoin="round" stroke-width="2"/><ellipse cx="610.80139" cy="479.45447" rx="17.689661" ry="17.529226" style="opacity:.385;fill:none;stroke-width:2.341;stroke-linecap:round;stroke-linejoin:round;stroke:url(#g)"/><path d="m598.67943 493.65621 11.44601-23.18859c5.60266 5.88152 18.98364 10.6085 18.98364 10.6085l1.39585 2.23337c-7.31195 19.73788-19.37 17.06139-31.8255 10.34672z" fill="url(#e)" fill-rule="evenodd"/><path d="m600.64547 495.6202 3.71848-4.56822 3.76154 1.7885 3.2785-4.84896 12.61021 4.76417c-4.44546 7.04228-11.85513 8.97599-23.36873 2.86451z" fill="url(#i)" fill-rule="evenodd"/><circle cx="610.91852" cy="479.44278" fill="none" r="19.134081" stroke="url(#f)" stroke-linecap="round" stroke-linejoin="round" stroke-width="2"/></g></svg>