<svg height="48" width="48" xmlns="http://www.w3.org/2000/svg" xmlns:xlink="http://www.w3.org/1999/xlink"><linearGradient id="a" gradientUnits="userSpaceOnUse" x1="-3.605455509776" x2="-3.782902871904" y1="1057.822893568513" y2="1035.781226128513"><stop offset="0" stop-color="#2e3e46"/><stop offset="1" stop-color="#47606a"/></linearGradient><g transform="matrix(2.0000001 0 0 2.0000001 30.4734 -2069.6146)"><ellipse cx="-3.231477" cy="1046.802" fill="url(#a)" rx="11.020832" ry="11.020841"/><g transform="matrix(.95833334 0 0 .95833334 -.129639 43.611739)"><path d="m1.9244333 1041.441c.204306.2043.3310435.4859.3310545.7959v3.3818c0 .6199-.3585075 1.4856-.796875 1.9239l-5.2382813 5.2382c-.4383829.4384-1.1553794.4384-1.5937499 0l5.52832028 5.5284a11.999999 12.000008 0 0 0 8.52050762-10.1172z" fill-opacity=".078431"/><path d="m1.2360935 1041.2072h-3.3815945c-.62001 0-1.4859.3587-1.924268.797l-5.238182 5.2382c-.438368.4384-.438368 1.1558 0 1.5941l4.041924 4.0419c.438368.4384 1.155713.4384 1.594103 0l5.2381825-5.2382c.438368-.4383.79704-1.3043.79704-1.9242v-3.3816c-.000022-.62-.50724-1.1272-1.127205-1.1272zm-1.4978035 3.75c-.621315 0-1.125-.5037-1.125-1.125s.503685-1.125 1.125-1.125c.6213155 0 1.1250005.5037 1.1250005 1.125s-.503685 1.125-1.1250005 1.125z" fill="#fff" fill-opacity=".850807"/></g><g fill="none" fill-opacity=".83871" stroke="#fff" stroke-width="1.217365"><circle cx="-3.236698733713" cy="1046.807250897885" fill="none" r="11.020841524022" stroke="#fff" stroke-width=".958316213655"/><circle cx="-3.236698733713" cy="1046.807250897885" fill="none" r="0" stroke="#fff" stroke-width=".958316213655"/></g></g></svg>