<svg height="48" width="48" xmlns="http://www.w3.org/2000/svg" xmlns:xlink="http://www.w3.org/1999/xlink"><linearGradient id="a" gradientUnits="userSpaceOnUse" x1="399.57144" x2="399.57144" y1="545.79797" y2="517.79797"><stop offset="0" stop-color="#3889e9"/><stop offset="1" stop-color="#5ea5fb"/></linearGradient><linearGradient id="b" gradientUnits="userSpaceOnUse" x1="400.5119" x2="400.69922" y1="546.07446" y2="517.77289"><stop offset="0" stop-color="#4c93dd"/><stop offset="1" stop-color="#56c5fd"/></linearGradient><g transform="matrix(1.40615515 0 0 1.40615515 -539.359089 -723.854482)"><circle cx="400.57138" cy="531.79791" fill="url(#a)" r="0"/><g transform="matrix(1.11753662 0 0 1.11753662 -47.015292 -62.460178)"><circle cx="400.57138" cy="531.79791" fill="url(#b)" r="13.999958"/><circle cx="400.57144" cy="531.79797" fill="none" r="13.999958"/></g></g><path d="m471.75 255h-38.25v-102c0-28.05-22.95-51-51-51h-102v-38.25c0-35.7-28.05-63.75-63.75-63.75s-63.75 28.05-63.75 63.75v38.25h-102c-28.05 0-51 22.95-51 51v96.9h38.25c38.25 0 68.85 30.6 68.85 68.85s-30.6 68.85-68.85 68.85h-38.25v96.9c0 28.05 22.95 51 51 51h96.9v-38.25c0-38.25 30.6-68.85 68.85-68.85s68.85 30.6 68.85 68.85v38.25h96.9c28.05 0 51-22.95 51-51v-102h38.25c35.7 0 63.75-28.05 63.75-63.75s-28.05-63.75-63.75-63.75z" fill="#fff" fill-opacity=".85" transform="matrix(.0410831 0 0 .0410831 13.000009 13)"/></svg>