<?xml version="1.0" encoding="UTF-8" standalone="no"?>
<!-- Created with Inkscape (http://www.inkscape.org/) -->

<svg
   xmlns:osb="http://www.openswatchbook.org/uri/2009/osb"
   xmlns:dc="http://purl.org/dc/elements/1.1/"
   xmlns:cc="http://creativecommons.org/ns#"
   xmlns:rdf="http://www.w3.org/1999/02/22-rdf-syntax-ns#"
   xmlns:svg="http://www.w3.org/2000/svg"
   xmlns="http://www.w3.org/2000/svg"
   xmlns:xlink="http://www.w3.org/1999/xlink"
   xmlns:sodipodi="http://sodipodi.sourceforge.net/DTD/sodipodi-0.dtd"
   xmlns:inkscape="http://www.inkscape.org/namespaces/inkscape"
   width="48"
   height="48"
   id="svg5453"
   version="1.1"
   inkscape:version="0.91 r13725"
   sodipodi:docname="feedback.svg">
  <defs
     id="defs5455">
    <linearGradient
       id="linearGradient4207"
       osb:paint="gradient">
      <stop
         style="stop-color:#3498db;stop-opacity:1;"
         offset="0"
         id="stop3371" />
      <stop
         style="stop-color:#3498db;stop-opacity:0;"
         offset="1"
         id="stop3373" />
    </linearGradient>
    <linearGradient
       gradientTransform="matrix(-0.56777405,0,0,0.61822428,579.27321,212.13023)"
       gradientUnits="userSpaceOnUse"
       y2="548.64636"
       x2="374.54285"
       y1="507.15387"
       x1="374.54285"
       id="linearGradient4182-3"
       xlink:href="#linearGradient4496"
       inkscape:collect="always" />
    <linearGradient
       id="linearGradient4496"
       inkscape:collect="always">
      <stop
         id="stop4498"
         offset="0"
         style="stop-color:#fdcc59;stop-opacity:1" />
      <stop
         id="stop4500"
         offset="1"
         style="stop-color:#f5a844;stop-opacity:1" />
    </linearGradient>
  </defs>
  <sodipodi:namedview
     id="base"
     pagecolor="#5a5a5a"
     bordercolor="#ffffff"
     borderopacity="1"
     inkscape:pageopacity="0"
     inkscape:pageshadow="2"
     inkscape:zoom="6.3197668"
     inkscape:cx="10.632926"
     inkscape:cy="23.340115"
     inkscape:document-units="px"
     inkscape:current-layer="g4166"
     showgrid="false"
     fit-margin-top="0"
     fit-margin-left="0"
     fit-margin-right="0"
     fit-margin-bottom="0"
     inkscape:window-width="1366"
     inkscape:window-height="642"
     inkscape:window-x="0"
     inkscape:window-y="33"
     inkscape:window-maximized="1"
     inkscape:showpageshadow="false"
     borderlayer="true"
     showguides="false"
     showborder="false">
    <inkscape:grid
       type="xygrid"
       id="grid4063" />
    <sodipodi:guide
       position="1.1650391e-05,47.999996"
       orientation="4,0"
       id="guide4146" />
    <sodipodi:guide
       position="1.1650391e-05,43.999996"
       orientation="0,48"
       id="guide4148" />
    <sodipodi:guide
       position="48.000012,43.999996"
       orientation="-4,0"
       id="guide4150" />
    <sodipodi:guide
       position="48.000012,47.999996"
       orientation="0,-48"
       id="guide4152" />
    <sodipodi:guide
       position="1.1650391e-05,4.0000264"
       orientation="4,0"
       id="guide4154" />
    <sodipodi:guide
       position="1.1650391e-05,2.6367188e-05"
       orientation="0,48"
       id="guide4156" />
    <sodipodi:guide
       position="48.000012,2.6367188e-05"
       orientation="-4,0"
       id="guide4158" />
    <sodipodi:guide
       position="15,5"
       orientation="0,-48"
       id="guide4160" />
    <sodipodi:guide
       position="48.000012,48.000026"
       orientation="0,-4"
       id="guide4162" />
    <sodipodi:guide
       position="44.000012,48.000026"
       orientation="48,0"
       id="guide4164" />
    <sodipodi:guide
       position="44.000012,2.6367188e-05"
       orientation="0,4"
       id="guide4166" />
    <sodipodi:guide
       position="48.000012,2.6367188e-05"
       orientation="-48,0"
       id="guide4168" />
    <sodipodi:guide
       position="4.0000422,48.000026"
       orientation="0,-4"
       id="guide4170" />
    <sodipodi:guide
       position="4.2167969e-05,48.000026"
       orientation="48,0"
       id="guide4172" />
    <sodipodi:guide
       position="4.2167969e-05,2.6367188e-05"
       orientation="0,4"
       id="guide4174" />
    <sodipodi:guide
       position="4,7"
       orientation="-48,0"
       id="guide4176" />
    <sodipodi:guide
       position="4.0000422,43.999996"
       orientation="29.999969,0"
       id="guide4437" />
    <sodipodi:guide
       position="35,15"
       orientation="0,39.999969"
       id="guide4439" />
    <sodipodi:guide
       position="44.000012,14.000026"
       orientation="-29.999969,0"
       id="guide4441" />
    <sodipodi:guide
       position="44.000012,43.999996"
       orientation="0,-39.999969"
       id="guide4443" />
  </sodipodi:namedview>
  <metadata
     id="metadata5458">
    <rdf:RDF>
      <cc:Work
         rdf:about="">
        <dc:format>image/svg+xml</dc:format>
        <dc:type
           rdf:resource="http://purl.org/dc/dcmitype/StillImage" />
        <dc:title></dc:title>
      </cc:Work>
    </rdf:RDF>
  </metadata>
  <g
     inkscape:label="Capa 1"
     inkscape:groupmode="layer"
     id="layer1"
     transform="translate(-384.57143,-499.798)">
    <g
       id="g4206"
       transform="matrix(0.63218236,0,0,0.63218236,390.20772,511.19976)">
      <g
         id="g4166">
        <g
           id="g4236"
           inkscape:export-xdpi="562"
           inkscape:export-ydpi="562">
          <g
             transform="matrix(3.1636398,0,0,3.1636398,-1300.3802,-1671.2856)"
             id="g5919"
             style="">
            <g
               id="g4388"
               transform="matrix(0.97459608,0,0,0.97459608,62.267446,10.486879)">
              <g
                 transform="matrix(0.92897512,0,0,0.92897512,-64.753654,37.398668)"
                 id="layer1-0"
                 inkscape:label="Capa 1"
                 style="fill:none;fill-opacity:1;stroke:#4f96d1;stroke-opacity:1" />
              <path
                 style="fill:url(#linearGradient4182-3);fill-opacity:1"
                 sodipodi:nodetypes="csssccccccccscscc"
                 inkscape:connector-curvature="0"
                 id="path3-6"
                 d="m 358.65242,529.1544 c 2.32189,-2.05752 5.40486,-3.19058 8.68093,-3.19058 3.27614,0 6.35912,1.13313 8.68094,3.19058 2.34206,2.07537 3.63191,4.8413 3.63191,7.78837 0,2.81279 -1.17574,5.46009 -3.31906,7.49984 0.0388,0.0947 0.0694,0.19423 0.0889,0.29891 l 0.70425,3.77197 c 0.0837,0.44829 -0.0287,0.7156 -0.13788,0.861 -0.12614,0.16793 -0.31294,0.26049 -0.52621,0.26049 l 0,0 c -0.16104,0 -0.3341,-0.0517 -0.51444,-0.15382 l -4.09627,-2.31712 c -1.4182,0.49704 -2.94284,0.75766 -4.51213,0.75766 -3.27614,0 -6.35905,-1.13311 -8.68093,-3.19056 -2.342,-2.07531 -3.63185,-4.84125 -3.63185,-7.7883 0,-2.94714 1.28978,-5.71307 3.63178,-7.78844 z" />
            </g>
          </g>
          <path
             sodipodi:nodetypes="ssssssssss"
             inkscape:connector-curvature="0"
             d="m 6.711,6.1971089 c 0,-3.2569752 2.6415363,-5.89851151 5.899462,-5.89851151 3.256025,0 5.897561,2.64153631 5.897561,5.89851151 0,3.2588776 -2.641536,5.9004141 -5.897561,5.9004141 C 9.3525363,12.097523 6.711,9.4550353 6.711,6.1971089 Z m 26.745436,0 c 0,-3.2569752 2.64439,-5.89851151 5.900414,-5.89851151 3.256023,0 5.898511,2.64153631 5.898511,5.89851151 0,3.2588776 -2.641536,5.9004141 -5.898511,5.9004141 -3.256024,0 -5.900414,-2.6424877 -5.900414,-5.9004141 z"
             id="path4168" />
          <g
             id="text4225"
             style="font-style:normal;font-weight:normal;font-size:27.72269821px;line-height:125%;font-family:sans-serif;letter-spacing:0px;word-spacing:0px;fill:#000000;fill-opacity:1;stroke:none;stroke-width:1px;stroke-linecap:butt;stroke-linejoin:miter;stroke-opacity:1"
             transform="scale(-1,1)">
            <path
               id="path4230"
               style="font-style:normal;font-variant:normal;font-weight:normal;font-stretch:normal;font-family:'Product Sans';-inkscape-font-specification:'Product Sans'"
               d="m -24.805194,39.496431 q -1.912866,0 -3.714842,-1.192076 -1.801975,-1.192076 -2.495043,-3.548505 l 2.328707,-0.970295 q 0.443563,1.552471 1.469303,2.411875 1.02574,0.859404 2.411875,0.859404 1.552471,0 2.661379,-0.970295 1.13663,-0.970294 1.13663,-2.411875 0,-1.413857 -1.164353,-2.384152 -1.136631,-0.970294 -2.744547,-0.970294 l -1.635639,0 0,-2.384152 1.44158,0 q 1.497026,0 2.46732,-0.831681 0.998017,-0.831681 0.998017,-2.217816 0,-1.302967 -0.970294,-2.05148 -0.942572,-0.748512 -2.35643,-0.748512 -2.439597,0 -3.299001,2.46732 l -2.356429,-0.998017 q 0.554454,-1.524749 1.968312,-2.716825 1.413857,-1.192076 3.687118,-1.192076 2.550489,0 4.241573,1.497026 1.691085,1.469303 1.691085,3.742564 0,2.744547 -2.550488,4.075237 l 0,0.110891 q 1.386135,0.582176 2.273261,1.774252 0.914849,1.192076 0.914849,2.827715 0,2.522766 -1.857421,4.186128 -1.857421,1.635639 -4.546522,1.635639 z" />
          </g>
        </g>
      </g>
      <g
         id="g4170" />
      <g
         id="g4172" />
      <g
         id="g4174" />
      <g
         id="g4176" />
      <g
         id="g4178" />
      <g
         id="g4180" />
      <g
         id="g4182" />
      <g
         id="g4184" />
      <g
         id="g4186" />
      <g
         id="g4188" />
      <g
         id="g4190" />
      <g
         id="g4192" />
      <g
         id="g4194" />
      <g
         id="g4196" />
      <g
         id="g4198" />
    </g>
  </g>
</svg>
