<svg height="48" viewBox="0 0 48 48" width="48" xmlns="http://www.w3.org/2000/svg" xmlns:xlink="http://www.w3.org/1999/xlink"><linearGradient id="a" gradientUnits="userSpaceOnUse" x1="396.548245852527" x2="396.093578365994" y1="542.030199513303" y2="505.840837037021"><stop offset="0" stop-color="#fd415a"/><stop offset="1" stop-color="#fc593d"/></linearGradient><linearGradient id="b" gradientTransform="matrix(.93683695 0 0 .95455629 26.09394 24.029518)" gradientUnits="userSpaceOnUse" x1="421.13245" x2="421.33725" y1="543.39435" y2="509.2738"><stop offset="0" stop-color="#f99fa5"/><stop offset="1" stop-color="#fff"/></linearGradient><g transform="translate(-384.57143 -500.298221)"><path d="m401.77172 506.5146c-.11773-.003-.25993.002-.44479.002h-13.95956c-.43765 0-.79054.35537-.79054.79594v4.85127c-.00065.0184-.005.0355-.005.054v29.33993c0 .84441.68084 1.52526 1.52525 1.52526h40.9513c.8444 0 1.52345-.68085 1.52345-1.52526v-29.33993c0-.8444-.67905-1.52525-1.52345-1.52525h-24.45265c-.0145-.0194-.0242-.0298-.0396-.0504-.56424-.76017-1.41637-2.8096-1.97184-3.55112-.3344-.48691-.45896-.56699-.81215-.57624z" fill-opacity=".666667"/><path d="m401.77172 505.5144c-.11773-.003-.25993.002-.44479.002h-13.95956c-.43765 0-.79054.35537-.79054.79594v4.85127c-.00065.0184-.005.0355-.005.054v29.33993c0 .84441.68084 1.52526 1.52525 1.52526h40.9513c.8444 0 1.52345-.68085 1.52345-1.52526v-29.33993c0-.8444-.67905-1.52525-1.52345-1.52525h-24.45265c-.0145-.0194-.0242-.0298-.0396-.0504-.56424-.76017-1.41637-2.8096-1.97184-3.55112-.3344-.48691-.45896-.56699-.81215-.57624z" fill="url(#a)"/><path d="m408.68128 509.69218c-2.99788 6.02106-4.2348 11.92173-4.00852 17.53409h6.27748c-1.08419 5.94415-.60915 10.05226.95621 14.85635h17.14153c.8444 0 1.52345-.68084 1.52345-1.52525v-29.33994c0-.8444-.67905-1.52525-1.52345-1.52525z" fill="url(#b)" fill-rule="evenodd" opacity=".83"/><path d="m401.47652 535.82753s-1.67916-2.48639 1.42883-2.56319c0 0 5.7268.60995 11.33622-4.0396 2.66093-1.60749 2.77499 2.064 2.77499 2.064-.17008 5.54371-6.41218 6.9201-6.41218 6.9201s-6.00134 2.19956-9.12786-2.38131z" fill="#19384b" opacity=".997" stroke-width=".381683"/><path d="m396.85152 519.86279c0-1.52704 1.24152-2.76633 2.77228-2.76633 1.53033 0 2.77187 1.23885 2.77187 2.76633 0 1.52838-1.24154 2.76721-2.77187 2.76721-1.53076-.00043-2.77228-1.23883-2.77228-2.76721zm12.5703 0c0-1.52704 1.24288-2.76633 2.7732-2.76633 1.53031 0 2.77228 1.23885 2.77228 2.76633 0 1.52838-1.24151 2.76721-2.77228 2.76721-1.52988-.00043-2.7732-1.23883-2.7732-2.76721z" fill="#19384b" stroke-width=".79572"/><g fill="#fff" fill-opacity=".852041"><circle cx="398.571667" cy="508.795368" r="1.781426"/><circle cx="394.195297" cy="508.833148" r="1.781426"/><circle cx="389.893357" cy="508.875328" r="1.781426"/></g></g></svg>