<?xml version="1.0" encoding="UTF-8" standalone="no"?>
<!-- Created with Inkscape (http://www.inkscape.org/) -->

<svg
   xmlns:dc="http://purl.org/dc/elements/1.1/"
   xmlns:cc="http://creativecommons.org/ns#"
   xmlns:rdf="http://www.w3.org/1999/02/22-rdf-syntax-ns#"
   xmlns:svg="http://www.w3.org/2000/svg"
   xmlns="http://www.w3.org/2000/svg"
   xmlns:sodipodi="http://sodipodi.sourceforge.net/DTD/sodipodi-0.dtd"
   xmlns:inkscape="http://www.inkscape.org/namespaces/inkscape"
   id="svg2"
   version="1.1"
   inkscape:version="0.91 r13725"
   width="512"
   height="512"
   sodipodi:docname="filezilla.svg"
   viewBox="0 0 512 512">
  <metadata
     id="metadata8">
    <rdf:RDF>
      <cc:Work
         rdf:about="">
        <dc:format>image/svg+xml</dc:format>
        <dc:type
           rdf:resource="http://purl.org/dc/dcmitype/StillImage" />
        <dc:title></dc:title>
      </cc:Work>
    </rdf:RDF>
  </metadata>
  <defs
     id="defs6">
    <filter
       inkscape:collect="always"
       style="color-interpolation-filters:sRGB"
       id="filter4166"
       x="-0.028206532"
       width="1.0564131"
       y="-0.049744378"
       height="1.0994888">
      <feGaussianBlur
         inkscape:collect="always"
         stdDeviation="5.8998423"
         id="feGaussianBlur4168" />
    </filter>
  </defs>
  <sodipodi:namedview
     pagecolor="#ffffff"
     bordercolor="#666666"
     borderopacity="1"
     objecttolerance="10"
     gridtolerance="10"
     guidetolerance="10"
     inkscape:pageopacity="0"
     inkscape:pageshadow="2"
     inkscape:window-width="1366"
     inkscape:window-height="712"
     id="namedview4"
     showgrid="false"
     inkscape:zoom="0.921875"
     inkscape:cx="104.39984"
     inkscape:cy="238.29898"
     inkscape:window-x="0"
     inkscape:window-y="28"
     inkscape:window-maximized="1"
     inkscape:current-layer="svg2"
     inkscape:document-units="px" />
  <path
     style="fill:#c83737;fill-opacity:1;fill-rule:evenodd;stroke:#000000;stroke-width:0;stroke-linecap:butt;stroke-linejoin:miter;stroke-miterlimit:4;stroke-dasharray:none;stroke-opacity:1"
     d="m 55.067312,48.716827 c -7.824258,0 -14.123784,7.712984 -14.123784,17.295382 l 0,45.716491 0,147.12644 0,148.85702 0,8.94899 c 0,7.33299 4.819785,13.23582 10.807351,13.23582 l 408.498391,0 c 5.98755,0 10.80904,-5.90283 10.80904,-13.23582 l 0,-157.806 -0.002,0 0,-147.12643 c 0,-14.431019 -9.48583,-26.048372 -21.26909,-26.048372 l -218.96782,0 c -5.81616,0 -8.11395,-0.839153 -11.83857,-5.130142 L 197.01316,53.889797 c -0.0748,-0.09332 -0.15164,-0.183999 -0.22814,-0.275227 l -0.0443,-0.05217 -0.002,0.0025 c -2.53734,-2.999222 -5.98806,-4.847714 -9.80971,-4.847714 z"
     id="rect2982-2"
     inkscape:connector-curvature="0"
     sodipodi:nodetypes="sscccssssccssccccccss" />
  <path
     style="opacity:0.3;fill:#000000;fill-opacity:1;fill-rule:evenodd;stroke:#000000;stroke-width:0;stroke-linecap:butt;stroke-linejoin:miter;stroke-miterlimit:4;stroke-dasharray:none;stroke-opacity:1;filter:url(#filter4166)"
     d="m 28.241425,148.07206 c -12.87594,0 -23.24141,9.6069 -23.24141,21.54052 l 16,244.76159 0,7.4003 c 0,6.06398 5.26673,10.94526 11.80953,10.94526 l 446.379045,0 c 6.54281,0 11.81139,-4.88128 11.81139,-10.94526 l 15.998,-252.16189 c 0,-11.93362 -10.36547,-21.54052 -23.24141,-21.54052 l -455.515295,0 z"
     id="rect2982-5"
     inkscape:connector-curvature="0"
     sodipodi:nodetypes="cccsssccscc"
     transform="matrix(0.88626001,0,0,1.0564915,29.118329,-33.58482)" />
  <path
     style="fill:#ff2a2a;fill-opacity:1;fill-rule:evenodd;stroke:#000000;stroke-width:0;stroke-linecap:butt;stroke-linejoin:miter;stroke-miterlimit:4;stroke-dasharray:none;stroke-opacity:1"
     d="m 47.570418,125.81685 c -11.783258,0 -21.269095,10.76716 -21.269095,24.14206 l 14.642205,274.32236 0,8.29407 c 0,6.79634 4.819785,12.26715 10.807351,12.26715 l 408.498391,0 c 5.98755,0 10.80904,-5.47081 10.80904,-12.26715 L 485.69869,149.9589 c 0,-13.3749 -9.48583,-24.14205 -21.26909,-24.14205 l -416.859318,0 z"
     id="rect2982"
     inkscape:connector-curvature="0"
     sodipodi:nodetypes="cccsssccscc" />
  <path
     inkscape:connector-curvature="0"
     d="m 194.22237,186.5909 -35.83233,158.94739 29.11395,0 16.91191,-71.13435 79.4703,0 -74.42521,66.62642 19.40523,22.34252 9.93786,-5.1207 c 18.79329,-9.6625 26.67504,-4.01275 40.93318,-0.0543 13.87127,3.84949 26.91167,7.96946 53.9661,-7.62542 l -5.37281,-27.52496 c -29.52599,20.99353 -38.86688,2.26322 -59.89645,1.51964 l 60.20106,-50.94041 6.53414,-27.19722 -126.11355,0 8.11838,-32.63939 82.65916,0 5.66873,-27.19519 -111.28427,0 z"
     style="fill:#f2f2f2;enable-background:new"
     id="path4112" />
</svg>
