<svg height="48" width="48" xmlns="http://www.w3.org/2000/svg" xmlns:xlink="http://www.w3.org/1999/xlink">
  <radialGradient id="a" cx="42.067257" cy="30.945194" gradientTransform="matrix(.60601812 0 0 .60569719 -5.874129 -43.632239)" gradientUnits="userSpaceOnUse" r="22.6548">
    <stop offset=".1" stop-color="#0df" stop-opacity=".4" />
    <stop offset=".9" stop-color="#7542e5" stop-opacity=".25" />
  </radialGradient>
  <linearGradient id="b" gradientUnits="userSpaceOnUse" x1="18.725574" x2="18.733512" y1="-12.561115" y2="-34.933999">
    <stop offset="0" stop-color="#7542e5" />
    <stop offset="1" stop-color="#4385fc" />
  </linearGradient>
  <linearGradient id="c" gradientTransform="matrix(.60697722 -.7924111 1.1573458 .88651278 -21.748372 25.614253)" gradientUnits="userSpaceOnUse" x1="5.751735" x2="43.945366" y1="43.663082" y2="9.625736">
    <stop offset="0" stop-color="#0079e5" />
    <stop offset="1" stop-color="#0db9f5" />
  </linearGradient>
  <linearGradient id="d" gradientUnits="userSpaceOnUse" x1="11.633488" x2="18.195122" y1="13.400601" y2="13.400601">
    <stop offset="0" stop-color="#0090ed" />
    <stop offset="1" stop-color="#00a2f1" />
  </linearGradient>
  <linearGradient id="e" gradientTransform="matrix(.07938069 0 0 .07926049 .68737 6.701533)" gradientUnits="userSpaceOnUse" x1="268.82791" x2="436.70218" y1="221.90524" y2="-22.281492">
    <stop offset="0" stop-color="#0171d5" />
    <stop offset="1" stop-color="#5de8ff" />
  </linearGradient>
  <radialGradient id="f" cx="25.47691" cy="30.837393" gradientTransform="matrix(.60697722 -.7924111 1.1573458 .88651278 -21.748372 25.614253)" gradientUnits="userSpaceOnUse" r="9.229017">
    <stop offset="0" stop-color="#5e87fc" />
    <stop offset="1" stop-color="#00bff7" />
  </radialGradient>
  <linearGradient id="g" gradientUnits="userSpaceOnUse" x1="10.041243" x2="25.512799" y1="26.201873" y2="26.201873">
    <stop offset="0" stop-color="#61ddfc" />
    <stop offset="1" stop-color="#80ebff" />
  </linearGradient>
  <linearGradient id="h" gradientUnits="userSpaceOnUse" x1="-108.418393" x2="-108.418393" xlink:href="#l" y1="24.550879" y2="-15.888411" />
  <linearGradient id="i" gradientUnits="userSpaceOnUse" x1="-11.907744" x2="-11.907744" xlink:href="#l" y1="23.710861" y2="-18.149419" />
  <linearGradient id="j" gradientUnits="userSpaceOnUse" x1="-54.778905" x2="-54.778905" xlink:href="#l" y1="21.300417" y2="-20.559863" />
  <linearGradient id="k" gradientTransform="matrix(.07938069 0 0 .07926049 .566512 9.412915)" gradientUnits="userSpaceOnUse" x1="276.07495" x2="263.67963" y1="521.2981" y2="24.895563">
    <stop offset="0" stop-color="#0060df" />
    <stop offset="1" stop-color="#00cbfb" />
  </linearGradient>
  <linearGradient id="l">
    <stop offset="0" stop-color="#3889e9" />
    <stop offset="1" stop-color="#5ea5fb" />
  </linearGradient>
  <linearGradient id="m" gradientUnits="userSpaceOnUse" x1="-57.062461" x2="-57.062461" xlink:href="#l" y1="37.669523" y2="-2.769767" />
  <linearGradient id="n" gradientUnits="userSpaceOnUse" x1="-3.422973" x2="-3.422973" xlink:href="#l" y1="34.419061" y2="-7.441219" />
  <linearGradient id="o" gradientUnits="userSpaceOnUse" x1="-143.429249" x2="-143.429249" xlink:href="#l" y1="37.532383" y2="-9.837746" />
  <linearGradient id="p" gradientUnits="userSpaceOnUse" x1="39.448188" x2="39.448188" xlink:href="#l" y1="36.829505" y2="-5.030775" />
  <linearGradient id="q" gradientUnits="userSpaceOnUse" x1="-14.719568" x2="-14.719568" xlink:href="#l" y1="40.330214" y2="-1.530066" />
  <g stroke-width=".086813">
    <path d="m29.051532 5.3717504c-3.071962 6.9257106-3.125221 10.7096006-2.136719 13.4121096-.235226-.0195-.471031-.03122-.707031-.03516-11.388503 2.296827-22.289479-15.4952815-20.9140673 11.355469 1.36422 10.270458 10.0370983 16.470647 19.6699223 16.33789 9.34257-.128756 14.154623-5.43827 16.699219-10.207031 2.542131-4.764143 2.233729-10.446662.646484-14.998047.01887.124649.02837.248627.04297.373047-1.206172-3.685986-3.953845-6.642317-7.404294-12.1230434-.630433.4610013-.984375 1.5957034-.984375 1.5957034-3.714125-2.9399092-3.351293-3.6396656-4.912109-5.7109376zm13.257812 15.8652346c-.000986-.0065-.000955-.01301-.002-.01953l-.002-.0332c-.0032-.0048 0 .0041 0 .01953v.01953c.0015.0044.0024.0093.0039.01367z" fill="url(#k)" />
    <circle cx="-55.618298" cy="17.449772" fill="url(#m)" r="0" />
    <circle cx="-141.73755" cy="13.847256" fill="url(#o)" r="0" />
    <circle cx="-13.22464" cy="19.399971" fill="url(#q)" r="0" />
    <circle cx="40.9431" cy="15.899279" fill="url(#p)" r="0" />
    <circle cx="-1.928067" cy="13.488821" fill="url(#n)" r="0" />
    <path d="m35.06929 6.7763445c-.630433.461001-.984184 1.595084-.984184 1.595084-3.714125-2.939909-3.351218-3.639599-4.912034-5.710871-9.810892 22.1185675 11.160699 12.1855785-1.436929 37.3577115 8.287846-3.020508 14.607213-6.773629 15.326349-15.058683.652644-7.519006-2.911618-10.111605-7.993202-18.1832415z" fill="url(#e)" />
  </g>
  <path d="m17.638934 16.324415c.218304.139047.39837.260018.556188.36917a12.491993 12.491993 0 0 1 -.07578-6.585967 19.956737 19.956737 0 0 0 -6.485853 5.012649c.1314-.0035 4.040014-.07369 6.005445 1.204148z" fill="url(#d)" stroke-width=".695236" />
  <path d="m17.867387 20.191886a10.725556 10.725556 0 0 0 -2.263672 6.570313 10.725556 10.725556 0 0 0 .128907 1.609375c.413348.948507.992657 1.853986 1.777343 2.638672l6.119141 6.11914a10.725556 10.725556 0 0 0 2.699219.359376 10.725556 10.725556 0 0 0 9.818359-6.423829l-10.634765-10.634765c-2.487633.901231-5.220452.810287-7.644532-.238282z" fill-opacity=".078431" stroke-width=".537188" />
  <g transform="translate(6.19241 46.113611)">
    <circle cx="18.475306" cy="-19.171284" fill="url(#b)" r="11.444648" stroke-width=".049773" />
    <path d="m29.916304-17.955387v-.0048l-.105419-3.474012v-.01212l-.522249-1.733358v-.0036l-1.494045-2.819662-1.721848-1.819995h-.0036l-1.813937-1.294719h-.0073l-1.57523-.617974h-.01091l-1.890275-.672502h-.01272l-3.11229-.198115h-.01332l-1.962979.354426h-.0073l-1.600071.491957h-.0103l-2.841472 1.652779-1.7751626 1.980548-1.6358168 2.65911v.0067l-.6446327 2.263484v.0085l-.1211196 3.43461v.01636l.6137337 2.339822v.0078l1.3540912 2.665773v.0043l.9366567 1.319558v.003l1.3207701 1.211716h.0036l1.649751 1.1159901h.0036l2.03447.8845526h.01272l3.404314.3992597h.0048l1.777585.049675h.01394l2.630633-.7415702h.009l2.350727-1.2904765.0043-.003h.003l1.514645-1.2904777 1.17294-1.400136.0043-.006 1.658839-3.247397v-.01272l.363514-2.220469v-.0055zm-18.579836 7.698026-.342309-.313833.769439.6028287zm4.99348 1.3044128-1.202628-.562235 2.847531.2562764zm.438034-10.2389948-3.156519.332011 1.946622-3.271631zm-1.101449-2.946285 3.85689 1.93208-2.653051.989971zm1.130531 3.046252.367149 2.908116-3.513974-2.579135zm.321104 3.003842-3.816904 1.20081.256279-3.816903zm-.21205-2.955373 2.957191 1.963584-2.590647.940291zm.04726-.09209 2.653657-.992395.30717 2.959009zm4.076816-3.417642 2.459176-1.160824-.277482 2.762105zm2.09748 1.666713-3.380687.617976 1.20081-2.219257zm-3.477018.579806-2.199264-4.044099 3.411586 1.809091zm-.121171-.01151-3.882336-1.944802 1.668532-2.120502zm-5.994961 1.388627-.494986-1.889064 2.388896-1.292901zm-.327163 3.948979-1.887852-3.096537 2.138676-.650086zm3.852648-.980883-1.919357 2.050223-1.756987-.893035zm2.842078-1.022082-.684619 2.46584-1.887246-1.534031zm-.185392-3.099567 2.85359 2.250761-2.544602.700977zm.05696-.08604 3.417643-.624032-.545272 2.890546zm3.541238-.76035.273848-2.731812 1.578865 2.144736zm1.887247-.490746.08724 3.128043-1.948439-2.537937zm-4.216164-1.224438.06543-2.321646 2.381626 1.166276zm-.103 0-3.398862-1.803031 3.4649-.538002zm-5.292774.288995-.636756-2.318012 2.272571.242344zm-.083.08664-2.411919 1.3032 1.773951-3.623634zm-2.054463 3.436425-2.093238.63615 1.60007-2.520973zm-.378661 3.830838-2.614882-1.851501.779739-1.157795zm.210838.262942 1.756987.893034-2.160488 1.193539zm3.950798-1.260184 1.88664 1.536455-3.833867.545271zm2.76877-.969372 2.786944 2.692431-3.477017-.199327zm.07392-.0715 2.555506-.702795.229621 3.396438zm3.206198-3.695731 1.964796 2.559748-2.504615.302928zm2.020535-.666444 1.658233.939685-1.57523 2.174424zm.01757-.107842 1.029958-1.690949.610705 2.619729zm-.07573-.07392-1.580077-2.145947 2.621546.433188zm-4.154365-3.478834 1.855742-1.680043.532548 2.85056zm-3.67271.517402 1.177788-2.089603 2.268331 1.554631zm-2.458569-.232649 1.332886-2.714242.953621 2.956585zm-1.987217 3.825993-1.61764-2.700913 3.428549-.999666zm-1.712153 2.716059-.782768-3.14743 2.417372.572535zm-.862135 1.28563-.7173351-1.781221 1.4813211.648267zm2.789974 2.156853-.403501 2.092027-2.241674-3.964732zm1.929656 1.02087.613734 2.073246-2.794215-.868801zm4.059246-.595558-.608887 2.694855-3.277084-2.143525zm3.619394.19448-1.57523 1.426795-1.832719-1.622487zm-.05695-3.502462 2.42343 2.4513-2.197446.931809zm.04967-.09573 2.500375-.302929-.08482 2.746959zm4.228886-2.592465.998454 3.363115-2.595495-1.154764zm-.566477-2.842684 1.629151 1.235343-1.018446 1.372874zm-2.803908-.628274 1.514643-1.732147 1.116595 2.166546zm-.06846-.07816-.528914-2.831173 2.039316 1.100844zm-2.583983-1.199599-2.258638-1.547359 4.105292-.124806zm-3.661198.508922-.946956-2.935986 2.117473.8585zm-2.462206-.229012-1.095997-1.486774 2.415555-1.19657zm-.07573.07028-3.358875.979066 2.256213-2.473717zm-1.926022 3.840531-2.393138-.567083.809426-2.077486zm-1.706095 2.72636-1.5146441-.663415.7530811-2.403437zm-.844565 1.32501-1.3032007.47681.5810176-2.271966zm2.344063 4.167089-2.8669191-1.77698.6058581-2.225921zm2.919627 1.066309-2.712424.430159-.01151-1.277148zm-.345338-2.090814 3.189235 2.085361-2.580348-.02908zm4.036829-.605857 1.850895 1.639449-2.4513 1.017841zm3.627875.207202.97846 2.711819-2.566412-1.272301zm.08724-.06058 2.181088-.925751-1.203234 3.644234zm2.405255-3.867795 2.594889 1.154765-2.677286 1.603099zm1.736994-2.293776 1.6964 1.207474-.727028 2.067792zm-.01878-.139954 1.019658-1.374086.671895 2.578531zm-.680984-2.862072.468933-1.469204 1.127501 2.682737zm-.07088-.114507-1.082061-2.093843 1.553418.621003zm-3.19711-3.332216 2.259243-.14783-.284753 1.211716zm-4.473047.03938 1.590376-1.973278 2.549449 1.84726zm-.09391-.04726-.819119-2.145341 2.393137.192662zm-.106631.0097-2.092026-.848201 1.2826-1.272301zm-4.700244.359274.899699-2.595495 1.527367 1.393473zm-2.413131 2.573077.658567-2.696672 1.563719.259912zm-.977854 2.302259-.8445656-1.326223 1.6321806-.696736zm-.04483.121171-.7221831 2.30226-.096937-3.590313zm-.8318431 2.665773-.5888935 2.30226-.9239336-2.30226zm-1.5364548-.100576.049072-2.259244 1.459511 2.257426zm2.3277049 2.120501-.5882871 2.142919-.7149127-1.67035zm2.348302 4.173153-1.77698.251431-1.0154161-1.982366zm.09694.08967.01151 1.258972-1.756987-1.011177zm2.96325.94029-.902122 1.8793717-1.874524-1.4431527zm.105419.01878 2.373751 2.1919937-3.284355-.295658zm.116325-.03211 2.605187.02968-.237495 2.1550368zm5.23158-1.029958.09936 2.434337-2.553084-1.421948zm.103604.009 2.574894 1.278359-2.475534 1.157189zm3.993813-2.494922 1.278359 1.99933-2.484015 1.650356zm.08906-.05211 2.460994.363514-1.201416 1.605522zm.04544-.09694 2.633057-1.575229-.171458 1.938744zm3.477622-3.756317.464694 1.626728-1.166276.376844zm-.62161-2.774828 1.332887 1.679437-.68462.808214zm-1.248067-3.058974 1.732147 1.268665-.595558 1.434065zm-1.784856-.87183.279301-1.190509 1.246854 1.800607zm-2.20714-1.203233-.302928-1.817573 2.605187 1.668531zm-.114506-.06058-2.484017-1.798792 2.181087-.01394zm-5.049824-2.095056 1.62067-.994818.69613 1.181423zm-1.556446 1.35228-1.500708-1.369239 2.775433.104207zm-2.639721 1.301987-1.558266-.259307 2.442212-2.290142zm-2.417372 2.621546-1.5946181-1.294718 2.2628781-1.440728zm-.06786.07755-1.6473262.702795.079972-1.975702zm-1.6479326 4.684491-1.480111-2.289536 1.3777213-1.485563zm-.6416043 2.704549-.2805115 1.400742-.5543591-3.478229zm.071496.167216.6937068 1.619458-.9887597-.138135zm1.7993959 3.792068-1.0457091-.202964.06665-1.709729zm1.975703 1.211714-.742782.714307-.997848-1.715184zm.08845.05696 1.784251 1.3759037-2.52582-.6603867zm5.821081-.427735 2.544602 1.41286-2.786945.7482342zm5.266721.278088-.139349 1.7769803-2.296805-.6379663zm2.555507-1.681255-1.414072 2.479775-.999059-.876069zm1.393472-1.750929.0073 1.296536-1.131135.216291zm.283542-2.20835 1.151128-.371996-1.311075 2.206533zm.797914-2.280449.653114-.770045-.209626 2.310136zm-.732482-2.839049.586471-1.412253.759744 3.107444zm-1.24746-2.992936.411983-.719153 1.241402 1.930263zm-.07149-.08179-1.218985-1.756987 1.630968 1.039652zm-4.088933-3.719359 1.233526-.131471 1.248066 1.721241zm-2.505221-.0727-.679167-1.154157 2.777252 1.141435zm-2.582167-.226594-.545272-.958467 2.143524-.02181zm-.109054.01636-2.699702-.10118 2.1514-.859713zm-5.45272 2.22713.969373-2.093238 1.401954-.127837zm-.173881.130865-.88334-.848202 1.86483-1.275934zm-.06604.07877-2.1974451 1.398925 1.3128941-2.250761zm-2.4840166 3.630904-1.1026599-.593134 1.1814218-1.339551zm-.034531.09754-1.3401574 1.443758.2326496-2.038711zm-1.5164622 4.048944-.5664761.462875.6100986-2.456752zm.013937.121172.5779889 3.626664-1.1844523-3.129861zm1.7897037 4.319159-.06603 1.704277-.9233267-1.843018zm1.1371951 2.181087.942714 1.618246-1.9351091-1.807879zm3.965944 2.6778915-.04059.9360499-2.467053-1.5915874zm.10118.039981 1.280784.5985882-1.32077.3229212zm3.410374.2980817.03999 1.3128935-1.86059-.9736134zm2.941439-.7876152-.754899 1.7769812-1.995696-1.0378353zm.121171-.01576 2.295594.6373623-3.048675 1.137194zm2.65608-1.190511.972401.848201-1.108114.8627411zm2.639115-1.820602 1.120837-.214474-2.457359 2.554296zm1.320164-.495592-.0078-1.264425 1.0342-.63191zm.09088-1.44497 1.254125-2.107173-.230832 1.483746zm1.600676-4.556049.146617 1.550995-.33201.458635zm-.764593-3.884154.286571.269002.287177 2.078091zm-1.454058-2.370115.269607-.135712.780345 1.768499zm-1.888458-1.238373.47378-.677955 1.159612 1.72003zm-.07392-.07392-1.234739-1.703671 1.709731 1.024505zm-2.781492-1.783644-.0078-.740359 1.189905.61434zm-.103-.02-2.719696-1.117201 2.71182.35685zm-5.37941-1.248672.433188-.371391 1.435276.353215zm-2.362845.886975.841537-.908787 1.164457.104813zm-.217501.08362-1.272301.115719 2.093239-.997242zm-3.505492 1.464964.140559-.315652 1.169911-.581018zm-1.5358491 2.473111-.085423-.825785 1.2723011-1.211715zm-.08846.145405-1.0554044 1.196569.972402-1.999331zm-1.5722006 3.739354-.6737127.125412.8900037-2.020535zm-.022414.109053-.6440263 2.596101-.041198-2.46887zm.5676723 6.463981-.7658044-.630092-.36715-2.362844zm1.07358 2.181087-.4889273-.160551-.3271637-1.465571zm2.0908154 2.016294-1.622487-.879705-.2611251-.877282zm.29687.278696.703401.8966691-2.150795-1.6848911zm.262942.169034 2.237432 1.4437588-1.464358-.4580279zm4.104686 1.2856297 1.738811.9087877-3.022624-.5955581zm2.08718-.3459439 1.946014 1.0123873-1.906634.3029285zm5.166753-.047262-.787615.6821959-1.778192.2756647zm1.460117-1.0214768.06604.4241007-1.021476.3156519zm2.650627-2.736054-1.048134 1.869678-1.337128.614945zm.293235-.31141.7034-1.299565-.751869 1.78304zm1.486775-4.004718.265365-.36715-.4241 1.404378zm.255672-2.769982-.0036-.02726.02666-.347762.02666.90091zm-.07088-.511949-.265366-1.925416.32898 1.090543zm-.787615-3.002631-.484686-1.099631.678561 1.281389zm-1.46254-2.270754-.969372-1.436489 1.235949 1.302594zm-3.236491-3.100174.06483-.04666.742782.531337zm-.09815-.05635-.503467-.259912.559813.219925zm-4.250696-1.100843.943926-.193874 1.42013.505285zm-.307776-.0412-1.285024-.316258 2.154429.136924zm-2.434336.02363-1.002089-.09027 1.402561-.253249zm-3.536392.895457.573142-.429552.924539-.284753zm-.470751.224168-.497409.24719.764593-.447122zm-2.086573 1.431036-.590105.563447.674319-.752474zm-2.7639239 3.976244-.2623359.09694 1.0196583-1.655809zm-.3417031.235678.2829349-.104813-.715517 1.625515zm-.7046127 4.218587.01454.904545-.052109.164793zm.049072 1.135983.2580954 1.663079-.3556383-1.357121zm1.346822 3.440059.3314041 1.484351-1.0584328-2.082332zm1.0632796 2.120502.230226.774286-.6852241-.923932zm5.1400971 3.984726.09572.1532813-1.005723-.4374289zm.258094.2181092-.12117-.1878155 2.187751.430764zm5.359417.1817569-.230225.2605188-1.20081-.033324zm.159341-.024848 1.431641-.2223496-1.644297.4628748zm3.307982-1.236556.83972-.2593064-1.478293.8160902zm1.345005-.5567834-.06603-.4241007 1.226862-.564054zm2.657291-3.1855997-.05756.572535-.807002.962707zm1.328645-2.441606.207204-.09996-.949378 1.86483zm.275666-.247191-.23265.11269.467723-1.538878z" fill="url(#a)" stroke-width=".605858" />
  </g>
  <path d="m34.255753 22.345929c-.08427-.07729-.183512-.157081-.289728-.237367-.03939-.02942-.0783-.05884-.120179-.08826-1.359466-.941637-3.020181-1.344865-4.660089-1.131486 6.951485 3.475742 4.214524 13.618924-2.067581 13.550147-4.445711-.04867-4.926287-.313606-6.767728-.852268 8.977236 5.031849 14.755251.903732 16.576679-2.532869 1.495945-4.131458-.838875-6.909196-2.671368-8.707867z" fill="url(#f)" stroke-width=".498672" />
  <path d="m25.084054 43.730259c9.034116-.278322 14.154422-5.437667 16.699018-10.206428s2.233678-10.458898.642413-15.012496v-.01971c0-.01545-.0032-.0245 0-.01971l.0037.03462c.732436 4.781874-1.699784 9.414597-5.502058 12.547291l-.01172.02663c-4.583369 3.790693-12.586881 3.405192-13.80975 3.048367-1.376673-.401704-7.270253-3.719997-6.949945-7.100622.356616-3.76383 2.034103-5.337286 6.944502-5.096907l2.412585-1.500391c-.008-.167794-3.702616-.886177-5.103566-2.26582-.748416-.737763-1.103714-1.093061-1.418528-1.359933-.170127-.144109-.347938-.278894-.532651-.403762-.122516-.08363-.26048-.174187-.426144-.282854-1.505888-.979067-4.500618-.925266-4.599697-.922603h-.0096c-.818197-1.037129-.760668-4.456938-.713792-5.171262-.242051.09728-.473106.219948-.689289.365951-.722291.515507-1.397524 1.093948-2.017794 1.728548-.7093435.714612-1.3575743 1.487393-1.9378916 2.310236v.0032-.0037c-2.2341529 3.501178-3.0209761 6.432842-2.6485069 12.964845 1.36422 10.270458 8.6122245 16.677137 19.6687145 16.33651z" fill="url(#c)" stroke-width=".532681" />
  <path d="m16.451174 26.873633s.637439-4.138729 6.55779-4.138729c.639792 0 2.471067-1.786152 2.503835-2.304001-2.545867.922329-5.351548.812046-7.817164-.307271-2.431767-1.233459-5.329321-1.117143-7.654393.307271.886644 1.917696 2.819408 3.133437 4.931924 3.102262-.385702 3.404162 1.193873 8.0232 6.058408 9.596331.09724.04674-.09992-.04459 0 0-2.542512-1.313426-4.318252-3.240087-4.5804-6.255863z" fill="url(#g)" stroke-width=".537188" />
  <circle cx="-106.97423" cy="4.331128" fill="url(#h)" r="0" stroke-width=".086813" />
  <circle cx="-10.412835" cy="2.780634" fill="url(#i)" r="0" stroke-width=".086813" />
  <circle cx="-53.284" cy=".370177" fill="url(#j)" r="0" stroke-width=".086813" />
</svg>
