<svg height="48" width="48" xmlns="http://www.w3.org/2000/svg" xmlns:xlink="http://www.w3.org/1999/xlink"><linearGradient id="a" gradientTransform="matrix(1.1131785 0 0 1.4405839 -27.025544 -245.98389)" gradientUnits="userSpaceOnUse" x1="409.57144" x2="409.57144" y1="542.79797" y2="507.798"><stop offset="0" stop-color="#0bac83"/><stop offset="1" stop-color="#10da96"/></linearGradient><rect fill="url(#a)" height="48.979847" ry="2.304934" transform="matrix(.939161673122 0 0 .939161673122 -377.761516077473 -455.002152976328)" width="48.979851" x="403.29745" y="485.54169"/><path d="m43.183 37.582-11.974-22.153v-13.197c0-1.242-1.039-2.232-2.28-2.232h-12.222c-1.242 0-2.264.99-2.264 2.232v13.197l-11.984 22.153c-.914 1.689-.868 3.74.115 5.391.983 1.649 2.766 2.668 4.686 2.668h31.115c1.92 0 3.707-1.019 4.69-2.668.982-1.651 1.032-3.702.118-5.391zm-18.386-9.268c1.073 0 1.942.869 1.942 1.942 0 1.072-.871 1.942-1.942 1.942-1.072 0-1.942-.87-1.942-1.942 0-1.07.869-1.942 1.942-1.942zm-5.461-11.677c1.073 0 1.942.87 1.942 1.943 0 1.072-.869 1.942-1.942 1.942s-1.942-.87-1.942-1.942c.001-1.073.869-1.943 1.942-1.943zm0 6.78c1.738 0 3.148 1.41 3.148 3.147 0 1.738-1.41 3.147-3.148 3.147-1.739 0-3.148-1.409-3.148-3.147s1.409-3.147 3.148-3.147zm18.078 16.145c-.404.688-1.143 1.094-1.938 1.094h-25.317c-.796 0-1.534-.406-1.938-1.094s-.415-1.528-.028-2.226l3.043-5.47c.434-.782 1.29-1.23 2.18-1.145 4.041.385 8.583 3.842 12.642 3.688 2.174-.083 4.192-.875 6.114-1.934 1.085-.6 2.45-.207 3.052.877l2.219 3.982c.385.699.375 1.541-.029 2.228z" fill="#fff" fill-opacity=".850806" transform="matrix(.70112399 0 0 .70112399 8.00027 7.999995)"/></svg>