<svg height="48" width="48" xmlns="http://www.w3.org/2000/svg" xmlns:xlink="http://www.w3.org/1999/xlink">
  <linearGradient id="a" gradientUnits="userSpaceOnUse" x1="24.813559" x2="24.813559" y1="46.500004" y2="1.500003">
    <stop offset="0" stop-color="#e02d2d" />
    <stop offset="1" stop-color="#f75151" />
  </linearGradient>
  <rect fill="url(#a)" height="45" ry="1.850878" stroke-width=".378089" width="45" x="1.5" y="1.500003" />
  <g stroke-width=".340412">
    <path d="m32.632177 7.376005c-.545-.3135187-1.237392-.4718105-2.059489-.4718105h-3.428981c-.56304 0-1.097139.012251-1.582909.042208-.494619.029957-.974943.09906-1.424958.203226-.475896.1123361-.945671.3022856-1.398756.5688277-.44322.2597342-.89698.6222728-1.349733 1.0716153-.945318.8850703-1.560783 1.8477545-1.838563 2.8703505-.265862.97596-.401687 2.064937-.401687 3.238676v1.914817h-1.716015c-.822429 0-1.518576.160336-2.059832.471808-.637248.365609-.960981 1.036559-.960981 1.993454 0 1.160123.524918 1.702396.960981 1.95498.541256.310798 1.237403.470792 2.059832.470792h1.716015v8.945336c-1.810991.905496-3.06302 2.774691-3.06302 4.931542 0 3.044297 2.477171 5.513979 5.513304 5.513979 3.040553 0 5.513989-2.469682 5.513989-5.513979 0-2.161954-1.255099-4.033535-3.072554-4.936655v-8.940223h2.946604c.825831 0 1.522652-.159994 2.061865-.472835.437441-.250541.958948-.792814.958948-1.952937 0-.956895-.320673-1.628188-.958948-1.993454-.539203-.311472-1.236034-.471808-2.061865-.471808h-2.946604v-1.914817c0-.610358.05172-1.152634.155565-1.608786.09396-.39794.29446-.733927.615123-1.037233l.0068-.0058.0088-.0058c.227046-.228415.492907-.354027.81358-.384664.42041-.04051.957579-.06162 1.589039-.06162h3.344546c.822429 0 1.518575-.161695 2.059489-.473513.436063-.2485.957921-.793839.957921-1.9519188 0-.9562161-.324075-1.6281883-.957921-1.9937911z" fill="#fff" fill-opacity=".847059" />
    <path d="m21.595009 33.576122c-1.107356 0-2.004678.89698-2.004678 2.005705 0 1.109057.897322 2.007063 2.004678 2.007063 1.107698 0 2.010134-.898006 2.010134-2.007063 0-1.108725-.902436-2.005705-2.010134-2.005705z" fill="#4b1100" />
  </g>
</svg>
