<?xml version="1.0" encoding="UTF-8" standalone="no"?>
<!-- Created with Inkscape (http://www.inkscape.org/) -->

<svg
   xmlns:dc="http://purl.org/dc/elements/1.1/"
   xmlns:cc="http://creativecommons.org/ns#"
   xmlns:rdf="http://www.w3.org/1999/02/22-rdf-syntax-ns#"
   xmlns:svg="http://www.w3.org/2000/svg"
   xmlns="http://www.w3.org/2000/svg"
   xmlns:xlink="http://www.w3.org/1999/xlink"
   xmlns:sodipodi="http://sodipodi.sourceforge.net/DTD/sodipodi-0.dtd"
   xmlns:inkscape="http://www.inkscape.org/namespaces/inkscape"
   width="48"
   height="48"
   id="svg3018"
   version="1.1"
   inkscape:version="0.91 r13725"
   sodipodi:docname="ktorrent.svg">
  <defs
     id="defs3020">
    <linearGradient
       id="linearGradient4398"
       inkscape:collect="always">
      <stop
         id="stop4400"
         offset="0"
         style="stop-color:#000000;stop-opacity:1;" />
      <stop
         id="stop4402"
         offset="1"
         style="stop-color:#000000;stop-opacity:0;" />
    </linearGradient>
    <linearGradient
       y2="516.973"
       x2="412.17143"
       y1="516.973"
       x1="404.33393"
       gradientUnits="userSpaceOnUse"
       id="linearGradient4491"
       xlink:href="#linearGradient4398"
       inkscape:collect="always" />
    <linearGradient
       id="linearGradient4422">
      <stop
         id="stop4424"
         offset="0"
         style="stop-color:#197ff1;stop-opacity:1" />
      <stop
         id="stop4426"
         offset="1"
         style="stop-color:#21c6fb;stop-opacity:1" />
    </linearGradient>
    <linearGradient
       id="linearGradient4422-5">
      <stop
         id="stop4424-7"
         offset="0"
         style="stop-color:#235ea2;stop-opacity:1" />
      <stop
         id="stop4426-6"
         offset="1"
         style="stop-color:#1992f1;stop-opacity:1" />
    </linearGradient>
    <linearGradient
       inkscape:collect="always"
       xlink:href="#linearGradient4422-5"
       id="linearGradient4582"
       x1="3.3645334"
       y1="1046.2201"
       x2="36.073566"
       y2="1007.7176"
       gradientUnits="userSpaceOnUse" />
    <linearGradient
       inkscape:collect="always"
       xlink:href="#linearGradient4422-5"
       id="linearGradient4596"
       gradientUnits="userSpaceOnUse"
       x1="3.3645334"
       y1="1046.2201"
       x2="36.073566"
       y2="1007.7176" />
    <linearGradient
       inkscape:collect="always"
       xlink:href="#linearGradient4422"
       id="linearGradient4598"
       gradientUnits="userSpaceOnUse"
       x1="400.57144"
       y1="545.79791"
       x2="400.79395"
       y2="517.62671" />
    <linearGradient
       inkscape:collect="always"
       xlink:href="#linearGradient4422-5"
       id="linearGradient4600"
       gradientUnits="userSpaceOnUse"
       x1="3.3645334"
       y1="1046.2201"
       x2="36.073566"
       y2="1007.7176" />
    <linearGradient
       inkscape:collect="always"
       xlink:href="#linearGradient4422-5"
       id="linearGradient4602"
       gradientUnits="userSpaceOnUse"
       x1="3.3645334"
       y1="1046.2201"
       x2="36.073566"
       y2="1007.7176" />
    <linearGradient
       inkscape:collect="always"
       xlink:href="#linearGradient4422-5"
       id="linearGradient4604"
       gradientUnits="userSpaceOnUse"
       x1="3.3645334"
       y1="1046.2201"
       x2="36.073566"
       y2="1007.7176" />
    <linearGradient
       inkscape:collect="always"
       xlink:href="#linearGradient4422-5"
       id="linearGradient4606"
       gradientUnits="userSpaceOnUse"
       x1="3.3645334"
       y1="1046.2201"
       x2="36.073566"
       y2="1007.7176" />
  </defs>
  <sodipodi:namedview
     id="base"
     pagecolor="#5a5a5a"
     bordercolor="#666666"
     borderopacity="1.0"
     inkscape:pageopacity="0"
     inkscape:pageshadow="2"
     inkscape:zoom="6.5711219"
     inkscape:cx="16.317853"
     inkscape:cy="24.235188"
     inkscape:document-units="px"
     inkscape:current-layer="g5003"
     showgrid="false"
     inkscape:snap-bbox="true"
     inkscape:window-width="1366"
     inkscape:window-height="642"
     inkscape:window-x="0"
     inkscape:window-y="33"
     inkscape:window-maximized="1"
     inkscape:bbox-nodes="true"
     inkscape:snap-bbox-edge-midpoints="true"
     inkscape:snap-grids="true"
     showborder="false"
     inkscape:showpageshadow="false">
    <inkscape:grid
       type="xygrid"
       id="grid3026"
       empspacing="5"
       visible="true"
       enabled="true"
       snapvisiblegridlinesonly="true" />
  </sodipodi:namedview>
  <metadata
     id="metadata3023">
    <rdf:RDF>
      <cc:Work
         rdf:about="">
        <dc:format>image/svg+xml</dc:format>
        <dc:type
           rdf:resource="http://purl.org/dc/dcmitype/StillImage" />
        <dc:title></dc:title>
      </cc:Work>
    </rdf:RDF>
  </metadata>
  <g
     inkscape:label="Layer 1"
     inkscape:groupmode="layer"
     id="layer1"
     transform="translate(0,-1004.3622)">
    <g
       transform="translate(-384.55629,504.6672)"
       id="layer1-5"
       inkscape:label="Capa 1">
      <g
         style="fill:url(#linearGradient4491);fill-opacity:1"
         transform="matrix(0.39473753,0,0,2.1052628,251.8719,-571.56602)"
         id="g4434-2-3" />
      <g
         transform="matrix(0.9818807,0,0,0.9818807,6.729627,9.1366244)"
         id="g5003">
        <g
           id="g4325"
           transform="matrix(1.040295,0,0,1.040295,-16.246706,-20.834455)">
          <g
             style="fill:url(#linearGradient4582);fill-opacity:1"
             inkscape:label="Layer 1"
             id="layer1-22"
             transform="translate(384.92777,-504.49547)">
            <g
               style="fill:url(#linearGradient4606);fill-opacity:1"
               transform="matrix(1.6782951,0,0,1.6782951,-648.25122,135.72394)"
               id="layer1-6"
               inkscape:label="Capa 1">
              <g
                 style="fill:url(#linearGradient4604);fill-opacity:1;stroke:none"
                 transform="translate(-0.11123528,0.03124873)"
                 inkscape:label="Capa 1"
                 id="layer1-39">
                <g
                   id="layer1-3"
                   inkscape:label="Capa 1"
                   transform="translate(0.13524268,0.04517549)"
                   style="fill:url(#linearGradient4602);fill-opacity:1;stroke:none;stroke-width:1.29999995;stroke-miterlimit:4;stroke-dasharray:none;stroke-opacity:1">
                  <circle
                     r="13.999958"
                     cy="531.79791"
                     cx="400.57138"
                     id="path3377"
                     style="opacity:1;fill:url(#linearGradient4596);fill-opacity:1;stroke:none;stroke-width:1.29999995;stroke-miterlimit:4;stroke-dasharray:none;stroke-dashoffset:0;stroke-opacity:1" />
                  <circle
                     style="opacity:1;fill:url(#linearGradient4598);fill-opacity:1;stroke:none;stroke-width:1.29999995;stroke-miterlimit:4;stroke-dasharray:none;stroke-dashoffset:0;stroke-opacity:1"
                     id="circle4174"
                     cx="400.57144"
                     cy="531.79797"
                     r="13.999958" />
                  <circle
                     style="opacity:1;fill:url(#linearGradient4600);fill-opacity:1;stroke:none;stroke-width:1.29999995;stroke-miterlimit:4;stroke-dasharray:none;stroke-dashoffset:0;stroke-opacity:1"
                     id="ellipse4233"
                     cx="400.57138"
                     cy="531.79791"
                     r="0" />
                </g>
              </g>
            </g>
          </g>
          <g
             style="opacity:1;fill:#ffffff;fill-opacity:0.85185188"
             transform="matrix(1.0452912,0,0,1.0452912,-38.273761,-9.8416801)"
             id="g4497">
            <path
               style="fill:#ffffff;fill-opacity:0.85185188;fill-rule:nonzero;stroke:none"
               id="path3942-4"
               d="m 416.51125,503.96117 c -3.645,3.65517 -5.64798,8.53043 -5.63781,13.73613 0.0152,10.85875 8.14696,15.80603 18.1323,15.30028 l 0.11973,-0.10815 c -8.84562,0 -14.86122,-6.32065 -14.87647,-15.20185 -0.005,-4.3008 1.64203,-8.32751 4.65157,-11.34214 3.0248,-3.02988 7.08158,-4.70241 11.42305,-4.70241 l 0,-3.37557 c -5.24636,0 -10.14704,2.0233 -13.81238,5.69373"
               inkscape:connector-curvature="0"
               sodipodi:nodetypes="cccccsccc" />
            <path
               sodipodi:nodetypes="cccccccccc"
               style="fill:#ffffff;fill-opacity:0.85185188;fill-rule:nonzero;stroke:none"
               id="path3946-2"
               d="m 426.59451,503.35086 c -3.88394,1.04724 -7.08666,3.48232 -9.01846,6.85789 -4.05679,7.09175 -1.9013,15.74927 5.12435,20.58386 5.40001,4.74257 14.71367,0.67754 16.83911,-1.08381 -0.17793,0.0457 -5.75158,4.60186 -14.92256,-1.69683 -5.5463,-3.81276 -7.27475,-10.59441 -4.10762,-16.12546 1.48444,-2.5876 3.95511,-4.46348 6.96466,-5.27178 3.0858,-0.83373 6.27835,-0.42703 8.99304,1.13874 l 1.68779,-2.9282 c -3.49758,-2.01823 -7.6052,-2.54185 -11.56031,-1.47427"
               inkscape:connector-curvature="0" />
            <path
               sodipodi:nodetypes="csccccccccccccccsccccccc"
               style="fill:#ffffff;fill-opacity:0.85185188;fill-rule:nonzero;stroke:none"
               id="path3950-4"
               d="m 425.7034,508.96637 c -3.37048,1.94705 -5.25653,5.49039 -5.25653,9.13031 0,1.68778 0.42195,3.39082 1.27092,4.96676 l -0.0102,0.0102 c 0,0.005 0.0305,0.0559 0.0407,0.0763 l -0.005,0 c 0,0 0.0203,0.0305 0.0356,0.0559 0.0203,0.0407 0.0712,0.13218 0.0763,0.13726 l 0,0 c 0.5287,0.90998 2.56726,3.97544 7.03582,5.60223 5.41611,1.97683 7.23934,1.82836 9.76869,1.37607 2.7532,-1.57322 4.22759,-2.97515 4.22759,-2.97515 -2.89677,0.31368 -7.00282,0.55615 -12.84228,-1.57316 -3.51792,-1.28109 -4.9871,-3.61959 -5.25654,-4.10254 l 0,0 c 0,0 -0.0102,-0.0153 -0.0102,-0.0203 -0.64563,-1.12349 -0.95574,-2.34866 -0.95574,-3.55858 0,-2.47067 1.28109,-4.87526 3.56875,-6.2021 1.6522,-0.95065 3.57892,-1.20483 5.4243,-0.71171 1.84029,0.49311 3.38065,1.67761 4.33638,3.32981 l 2.97904,-1.58611 -0.0559,-0.10167 c -1.40309,-2.43509 -3.67042,-4.17371 -6.38511,-4.90576 -2.71469,-0.72697 -5.55139,-0.35078 -7.98648,1.05232"
               inkscape:connector-curvature="0" />
          </g>
        </g>
      </g>
    </g>
  </g>
</svg>
