<svg height="48" width="48" xmlns="http://www.w3.org/2000/svg" xmlns:xlink="http://www.w3.org/1999/xlink"><linearGradient id="a" gradientUnits="userSpaceOnUse" x1="400.355637364059" x2="400.40303455671" y1="546.679033762206" y2="516.781498750875"><stop offset="0" stop-color="#d8d8d8"/><stop offset="1" stop-color="#fff"/></linearGradient><linearGradient id="b" gradientUnits="userSpaceOnUse" x1="383.53833" x2="416.79535" y1="531.66302" y2="531.39801"><stop offset="0" stop-color="#ac92ec"/><stop offset=".20237894" stop-color="#64a9ff"/><stop offset=".32345149" stop-color="#4cdbb7"/><stop offset=".53399092" stop-color="#aee672"/><stop offset=".76312304" stop-color="#ffce53"/><stop offset=".89940798" stop-color="#fb6e51"/><stop offset="1" stop-color="#ed5565"/></linearGradient><linearGradient id="c" gradientUnits="userSpaceOnUse" x1="384.65826" x2="415.93533" y1="531.63562" y2="531.46417"><stop offset="0" stop-color="#ac92ec"/><stop offset=".1366801" stop-color="#64a9ff"/><stop offset=".26767892" stop-color="#4cdbb7"/><stop offset=".49417827" stop-color="#aee672"/><stop offset=".74118012" stop-color="#ffce53"/><stop offset=".93032265" stop-color="#fb6e51"/><stop offset="1" stop-color="#ed5565"/></linearGradient><g stroke-width="1.079655" transform="matrix(-.480310518527 .089410983686 -.089410983686 -.480310518527 6.701862447804 -39.112201696865)"><circle cx="235.78929" cy="426.28171" fill="none" r="67.570946" transform="matrix(-.596773725366 -.111090891165 .111090891165 -.596773725366 80.811448706061 146.641989140801)"/><ellipse cx="400.61902" cy="531.72919" fill="url(#a)" stroke="url(#b)" stroke-linecap="round" stroke-linejoin="round" stroke-width="1.759135" transform="matrix(-3.06547218122 -.570645175746 .570645175746 -3.06547218122 913.404953134824 1724.654570717852)"/><g stroke-width="1.079655" transform="matrix(.999999993845 .00000000499 -.00000000499 .999999993845 -.080103005952 .374398114954)"><circle cx="235.78929" cy="426.28171" fill="none" r="67.570946" transform="matrix(-.596773725366 -.111090891165 .111090891165 -.596773725366 80.811448706061 146.641989140801)"/><circle cx="400.61902" cy="531.72919" fill="url(#a)" r="14.874661" stroke="url(#c)" stroke-linecap="round" stroke-linejoin="round" stroke-width="1.759135" transform="matrix(-3.06547218122 -.570645175746 .570645175746 -3.06547218122 913.404953134824 1724.654570717852)"/><path d="m402.86796 10.052-232.65 405.741c-48.889 85.779-52.665 194.85 0 286.697 79.169 138.07 255.277 185.82 393.348 106.65 138.071-79.169 185.821-255.276 106.651-393.348l-232.65-405.74c-7.685-13.4030001-27.015-13.4030001-34.699 0z" fill="#3d4245" opacity=".9" transform="matrix(-.059338619415 -.011046026871 .011046026871 -.059338619415 9.918615170246 -105.904885837178)"/></g></g></svg>