<svg height="48" width="48" xmlns="http://www.w3.org/2000/svg" xmlns:xlink="http://www.w3.org/1999/xlink">
  <linearGradient id="a" gradientTransform="matrix(.39506127 0 0 .37017552 -112.75514 -302.05747)" gradientUnits="userSpaceOnUse" x1="265.45438" x2="265.65161" y1="913.03589" y2="791.88153">
    <stop offset="0" stop-color="#197ff1" />
    <stop offset="1" stop-color="#21c6fb" />
  </linearGradient>
  <g transform="translate(30.508474 10.372881)">
    <rect fill="url(#a)" height="45" ry="1.850878" stroke-width=".378089" width="45" x="-29.008474" y="-8.872881" />
    <g fill="#fff" transform="matrix(.37808933 0 0 .37808933 -108.19076 -308.78753)">
      <path d="m19.166016 10.599609c-3.119189 1.027714-5.795694 3.021445-7.689454 5.625.66646.178743 1.272897.491515 1.796876.91211 1.575326-2.066329 3.731294-3.65709 6.230468-4.539063-.219718-.553349-.349541-1.152262-.349609-1.78125.000008-.07319.0085-.144366.01172-.216797zm9.724609.01953c.0027.06595.0098.130684.0098.197265-.00007.635468-.131434 1.240798-.355469 1.798828 2.505525.894771 4.660845 2.502784 6.230469 4.587891.509113-.436203 1.103332-.764821 1.759765-.962891-1.882995-2.595791-4.542854-4.585983-7.644531-5.621093zm-20.375 14.84375c.033199 3.348869 1.1391894 6.437282 2.982422 8.958984.391895-.545016.89439-.998801 1.472656-1.345703-1.464565-2.077883-2.347802-4.588279-2.439453-7.306641-.103923.0067-.206993.0156-.3125.01563-.5999355.000104-1.170131-.123512-1.703125-.322265zm30.96875.01563c-.493068.168904-1.012179.281482-1.560547.28125-.152956-.000017-.303653-.0094-.453125-.02344-.08255 2.638425-.90463 5.086875-2.287109 7.13086.572773.356354 1.071776.818808 1.455078 1.371093 1.759615-2.483347 2.810113-5.498753 2.845703-8.759765zm-11.603516 12.75195c-1.229056.367385-2.530699.570312-3.880859.570312-1.297947 0-2.547374-.192711-3.734375-.533203-.148588.679142-.447607 1.297578-.849609 1.839844 1.449591.449868 2.988177.693359 4.583984.693359 1.677693 0 3.290624-.276241 4.804688-.771484-.425815-.52436-.744877-1.130103-.923829-1.798828z" fill-opacity=".729412" transform="matrix(2.6448776 0 0 2.6448776 205.46013 789.27024)" />
      <g fill-opacity=".795455">
        <circle cx="305.76596" cy="844.51196" r="10.244818" />
        <circle cx="269.00958" cy="817.87817" r="10.244843" />
        <ellipse cx="232.48523" cy="844.58002" rx="10.319422" ry="10.244843" />
        <ellipse cx="246.40265" cy="887.75732" rx="10.319422" ry="10.244843" />
        <ellipse cx="291.69269" cy="887.10797" rx="10.319422" ry="10.244843" />
      </g>
    </g>
  </g>
</svg>
