<svg width="48" height="48" version="1.1" xmlns="http://www.w3.org/2000/svg" xmlns:xlink="http://www.w3.org/1999/xlink">
	<defs>
		<linearGradient id="w" gradientUnits="userSpaceOnUse" x1="0" y1="2" x2="0" y2="46">
			<stop offset="0" stop-color="#FFF" />
			<stop offset="1" stop-color="#DDD" />
		</linearGradient>
		<linearGradient id="p" gradientUnits="userSpaceOnUse" x1="0" y1="2" x2="0" y2="46">
			<stop offset="0" stop-color="#FF0066" />
			<stop offset="1" stop-color="#AA00D4" />
		</linearGradient>
		<clipPath id="clip">
			<path id="c" d="M 20.25,14 a 3.75,3.75 0 1 0 7.5,0 a 3.75,3.75 0 1 0 -7.5,0 m 1.5,0 a 2.25,2.25 0 1 1 4.5,0 a 2.25,2.25 0 1 1 -4.5,0" />
			<path id="d" d="m 13.25,24 c 0,2.5 1,5 2.6,7 l 1.141,-1 c -1.427835,-1.673416 -2.212,-3.8 -2.213,-6 z" />
			<use xlink:href="#c" transform="rotate(72,24,24)" />
			<use xlink:href="#c" transform="rotate(-72,24,24)" />
			<use xlink:href="#c" transform="rotate(-144,24,24)" />
			<use xlink:href="#c" transform="rotate(144,24,24)" />
			<use xlink:href="#d" transform="rotate(72,24,24)" />
			<use xlink:href="#d" transform="rotate(-72,24,24)" />
			<use xlink:href="#d" transform="rotate(-144,24,24)" />
			<use xlink:href="#d" transform="rotate(144,24,24)" />
		</clipPath>
	</defs>
	<rect x="5" y="5" width="38" height="38" rx="2" fill="url(#w)" />
	<circle cx="24" cy="24" r="14" fill="url(#p)" clip-path="url(#clip)" />
</svg>
