<?xml version="1.0" encoding="UTF-8" standalone="no"?>
<!-- Created with Inkscape (http://www.inkscape.org/) -->

<svg
   xmlns:dc="http://purl.org/dc/elements/1.1/"
   xmlns:cc="http://creativecommons.org/ns#"
   xmlns:rdf="http://www.w3.org/1999/02/22-rdf-syntax-ns#"
   xmlns:svg="http://www.w3.org/2000/svg"
   xmlns="http://www.w3.org/2000/svg"
   xmlns:xlink="http://www.w3.org/1999/xlink"
   xmlns:sodipodi="http://sodipodi.sourceforge.net/DTD/sodipodi-0.dtd"
   xmlns:inkscape="http://www.inkscape.org/namespaces/inkscape"
   width="48"
   height="48"
   id="svg4186"
   version="1.1"
   inkscape:version="0.91 r13725"
   viewBox="0 0 48 48"
   sodipodi:docname="git-gui.svg">
  <sodipodi:namedview
     id="base"
     pagecolor="#3c3c3c"
     bordercolor="#666666"
     borderopacity="1.0"
     inkscape:pageopacity="0"
     inkscape:pageshadow="2"
     inkscape:zoom="11.313708"
     inkscape:cx="16.720645"
     inkscape:cy="26.417768"
     inkscape:current-layer="layer1"
     showgrid="true"
     inkscape:grid-bbox="true"
     inkscape:document-units="px"
     inkscape:window-width="1366"
     inkscape:window-height="712"
     inkscape:window-x="0"
     inkscape:window-y="28"
     inkscape:window-maximized="1" />
  <defs
     id="defs4188">
    <linearGradient
       id="linearGradient4749"
       inkscape:collect="always">
      <stop
         id="stop4751"
         offset="0"
         style="stop-color:#ff6600;stop-opacity:1" />
      <stop
         id="stop4753"
         offset="1"
         style="stop-color:#ff7f2a;stop-opacity:1" />
    </linearGradient>
    <linearGradient
       gradientUnits="userSpaceOnUse"
       y2="2.0380592"
       x2="23.940615"
       y1="45.979694"
       x1="23.435539"
       id="linearGradient4755"
       xlink:href="#linearGradient4749"
       inkscape:collect="always" />
    <clipPath
       clipPathUnits="userSpaceOnUse"
       id="clipPath4985">
      <g
         id="g4987"
         transform="translate(-1.875,1.25)">
        <path
           sodipodi:nodetypes="ccccccccc"
           style="fill:url(#linearGradient4993);fill-opacity:1"
           id="path4989"
           d="M 3.304478,20.895672 20.103078,4.0750563 C 22.61296,1.565174 25.38704,1.565174 27.104328,3.304478 l 17.591194,17.591194 c 1.739304,1.717288 1.739304,4.491368 0,6.208656 L 27.104328,44.695522 c -1.717288,1.739304 -4.491368,1.739304 -6.208656,0 L 3.304478,27.104328 c -1.739304,-1.717288 -1.739304,-4.491368 0,-6.208656 z"
           inkscape:connector-curvature="0" />
        <path
           inkscape:connector-curvature="0"
           d="M 3.304478,20.895672 20.103078,4.0750563 C 22.61296,1.565174 25.38704,1.565174 27.104328,3.304478 l 17.591194,17.591194 c 1.739304,1.717288 1.739304,4.491368 0,6.208656 L 27.104328,44.695522 c -1.717288,1.739304 -4.491368,1.739304 -6.208656,0 L 3.304478,27.104328 c -1.739304,-1.717288 -1.739304,-4.491368 0,-6.208656 z"
           id="path4991"
           style="fill:none;fill-opacity:1;stroke:#ffffff;stroke-opacity:1"
           sodipodi:nodetypes="ccccccccc" />
      </g>
    </clipPath>
    <linearGradient
       inkscape:collect="always"
       xlink:href="#linearGradient4749"
       id="linearGradient4993"
       gradientUnits="userSpaceOnUse"
       x1="23.435539"
       y1="45.979694"
       x2="23.940615"
       y2="2.0380592" />
  </defs>
  <metadata
     id="metadata4191">
    <rdf:RDF>
      <cc:Work
         rdf:about="">
        <dc:format>image/svg+xml</dc:format>
        <dc:type
           rdf:resource="http://purl.org/dc/dcmitype/StillImage" />
        <dc:title />
      </cc:Work>
    </rdf:RDF>
  </metadata>
  <g
     inkscape:groupmode="layer"
     inkscape:label="Layer 1"
     id="layer1">
    <path
       sodipodi:nodetypes="ccccccccc"
       style="fill:none;fill-opacity:0.35294119;stroke:#000000;stroke-opacity:0.35294119"
       id="path4997"
       d="M 3.304478,21.400703 20.103078,4.5800874 C 22.61296,2.0702051 25.38704,2.0702051 27.104328,3.8095091 L 44.695522,21.400703 c 1.739304,1.717288 1.739304,4.491368 0,6.208656 L 27.104328,45.200553 c -1.717288,1.739304 -4.491368,1.739304 -6.208656,0 L 3.304478,27.609359 c -1.739304,-1.717288 -1.739304,-4.491368 0,-6.208656 z"
       inkscape:connector-curvature="0" />
    <g
       id="g3264"
       transform="matrix(1.0004664,0,0,1.0020694,-0.0108618,-0.08619294)">
      <path
         inkscape:connector-curvature="0"
         d="M 3.304478,20.895672 20.103078,4.0750563 C 22.61296,1.565174 25.38704,1.565174 27.104328,3.304478 l 17.591194,17.591194 c 1.739304,1.717288 1.739304,4.491368 0,6.208656 L 27.104328,44.695522 c -1.717288,1.739304 -4.491368,1.739304 -6.208656,0 L 3.304478,27.104328 c -1.739304,-1.717288 -1.739304,-4.491368 0,-6.208656 z"
         id="path4"
         style="fill:url(#linearGradient4755);fill-opacity:1"
         sodipodi:nodetypes="ccccccccc" />
      <g
         id="g3258">
        <g
           id="g3246">
          <path
             id="path4815"
             d="m 17.619141,6.5625 -0.002,0.00195 23.808593,23.808594 0.01172,-0.0098 1.539062,-1.542969 -18.048828,-18.048828 c 1.089673,1.089671 1.550295,2.703665 1.128907,4.210938 L 20.707031,9.6328125 17.619141,6.5625 Z m 6.027343,12.205078 0,10.75586 5.152344,5.152343 -3.451172,-3.435547 c 0.78731,0.783765 1.272531,1.874659 1.277344,3.074219 l -0.529297,-0.529297 c 0,2.431876 -1.972421,4.404297 -4.404297,4.404297 l 5.958985,5.958985 4.404297,-4.404297 -3.617188,-3.617188 3.625,3.609375 9.361328,-9.361328 -5.791016,-5.791016 c 10e-7,1.692091 -1.372362,3.0625 -3.064453,3.0625 l -8.533203,-8.53125 4.173828,4.214844 -4.5625,-4.5625 z m -4.183593,18.945313 7.28125,7.28125 c 0.120551,-0.09874 0.247246,-0.185262 0.359375,-0.298829 l 0.542968,-0.542968 -5.205078,-5.205078 c -1.163291,0 -2.216175,-0.472036 -2.978515,-1.234375 z"
             style="fill:#000000;fill-opacity:0.07843137"
             inkscape:connector-curvature="0" />
          <path
             sodipodi:nodetypes="ccccssscccssssccccc"
             inkscape:connector-curvature="0"
             d="m 14.773549,10.029584 3.72079,3.742808 c -0.528396,1.871404 0.330248,3.918939 2.047536,4.909683 l 0,12.197147 c -1.320991,0.748562 -2.201651,2.179635 -2.201651,3.808857 0,2.431876 1.971426,4.403302 4.403303,4.403302 2.431876,0 4.403302,-1.971426 4.403302,-4.403302 0,-1.629222 -0.88066,-3.060295 -2.201651,-3.808857 l 0,-10.700025 4.557418,4.601451 c -0.154115,0.330248 -0.154115,0.704529 -0.154115,1.100826 0,2.431876 1.971426,4.403302 4.403302,4.403302 2.431877,0 4.403303,-1.971425 4.403303,-4.403302 0,-2.431877 -1.971426,-4.403303 -4.403303,-4.403303 -0.396297,0 -0.770578,0 -1.100825,0.154116 L 26.992714,15.974043 C 27.565143,13.926508 26.508351,11.680823 24.460815,10.822179 23.514105,10.469914 22.523361,10.381848 21.6427,10.62403 L 17.899893,6.9032392"
             id="path4774"
             style="fill:#ffffff;fill-opacity:1" />
        </g>
        <path
           style="color:#000000;font-style:normal;font-variant:normal;font-weight:normal;font-stretch:normal;font-size:medium;line-height:normal;font-family:sans-serif;text-indent:0;text-align:start;text-decoration:none;text-decoration-line:none;text-decoration-style:solid;text-decoration-color:#000000;letter-spacing:normal;word-spacing:normal;text-transform:none;direction:ltr;block-progression:tb;writing-mode:lr-tb;baseline-shift:baseline;text-anchor:start;white-space:normal;clip-rule:nonzero;display:inline;overflow:visible;visibility:visible;opacity:1;isolation:auto;mix-blend-mode:normal;color-interpolation:sRGB;color-interpolation-filters:linearRGB;solid-color:#000000;solid-opacity:1;fill:#ffffff;fill-opacity:1;fill-rule:nonzero;stroke:none;stroke-width:2;stroke-linecap:butt;stroke-linejoin:miter;stroke-miterlimit:4;stroke-dasharray:none;stroke-dashoffset:0;stroke-opacity:1;color-rendering:auto;image-rendering:auto;shape-rendering:auto;text-rendering:auto;enable-background:accumulate"
           d="m 23.822266,1.0996094 c -1.504805,0.118622 -3.040584,0.8823804 -4.425782,2.2675781 l 0,0.00195 L 2.5976562,20.189453 c -2.1172184,2.096059 -2.11679221,5.533098 0.00391,7.626953 L 20.189453,45.402344 c 2.094337,2.11548 5.526757,2.11548 7.621094,0 l 17.587891,-17.585938 0.0039,-0.0059 c 2.11548,-2.094337 2.11548,-5.526757 0,-7.621094 l -0.0039,-0.0059 -17.582032,-17.5820315 -0.0059,-0.00391 C 26.763185,1.5397652 25.324641,0.9811788 23.822266,1.0996094 Z M 23.980469,3.09375 c 0.939028,-0.074023 1.742608,0.2359785 2.412109,0.9140625 l 0.002,0.00195 17.595703,17.5957035 0.002,0.002 c 1.356168,1.339002 1.356168,3.446154 0,4.785156 l -0.002,0.002 -17.595703,17.595703 -0.002,0.002 c -1.339002,1.356168 -3.446154,1.356168 -4.785156,0 l -0.002,-0.002 -17.5957034,-17.595703 -0.00195,-0.002 c -1.356168,-1.339002 -1.356168,-3.446154 0,-4.785156 l 0.00195,-0.002 0.00195,-0.0039 L 20.810547,4.78125 c 1.124684,-1.1246846 2.230893,-1.6134774 3.169922,-1.6875 z"
           id="path4778"
           inkscape:connector-curvature="0" />
      </g>
    </g>
  </g>
</svg>
