<svg height="48" viewBox="0 0 48 48" width="48" xmlns="http://www.w3.org/2000/svg" xmlns:xlink="http://www.w3.org/1999/xlink"><linearGradient id="a" gradientUnits="userSpaceOnUse" x1="23.435539" x2="23.940615" y1="45.979694" y2="2.038059"><stop offset="0" stop-color="#f60"/><stop offset="1" stop-color="#ff7f2a"/></linearGradient><path d="m3.304478 21.400703 16.7986-16.8206156c2.509882-2.5098823 5.283962-2.5098823 7.00125-.7705783l17.591194 17.5911939c1.739304 1.717288 1.739304 4.491368 0 6.208656l-17.591194 17.591194c-1.717288 1.739304-4.491368 1.739304-6.208656 0l-17.591194-17.591194c-1.739304-1.717288-1.739304-4.491368 0-6.208656z" fill="none" stroke="#000" stroke-opacity=".352941"/><g transform="matrix(1.0004664 0 0 1.0020694 -.010862 -.086193)"><path d="m3.304478 20.895672 16.7986-16.8206157c2.509882-2.5098823 5.283962-2.5098823 7.00125-.7705783l17.591194 17.591194c1.739304 1.717288 1.739304 4.491368 0 6.208656l-17.591194 17.591194c-1.717288 1.739304-4.491368 1.739304-6.208656 0l-17.591194-17.591194c-1.739304-1.717288-1.739304-4.491368 0-6.208656z" fill="url(#a)"/><path d="m17.619141 6.5625-.002.00195 23.808593 23.808594.01172-.0098 1.539062-1.542969-18.048828-18.048828c1.089673 1.089671 1.550295 2.703665 1.128907 4.210938l-5.349564-5.3495725zm6.027343 12.205078v10.75586l5.152344 5.152343-3.451172-3.435547c.78731.783765 1.272531 1.874659 1.277344 3.074219l-.529297-.529297c0 2.431876-1.972421 4.404297-4.404297 4.404297l5.958985 5.958985 4.404297-4.404297-3.617188-3.617188 3.625 3.609375 9.361328-9.361328-5.791016-5.791016c.000001 1.692091-1.372362 3.0625-3.064453 3.0625l-8.533203-8.53125 4.173828 4.214844zm-4.183593 18.945313 7.28125 7.28125c.120551-.09874.247246-.185262.359375-.298829l.542968-.542968-5.205078-5.205078c-1.163291 0-2.216175-.472036-2.978515-1.234375z" fill-opacity=".078431"/><path d="m14.773549 10.029584 3.72079 3.742808c-.528396 1.871404.330248 3.918939 2.047536 4.909683v12.197147c-1.320991.748562-2.201651 2.179635-2.201651 3.808857 0 2.431876 1.971426 4.403302 4.403303 4.403302 2.431876 0 4.403302-1.971426 4.403302-4.403302 0-1.629222-.88066-3.060295-2.201651-3.808857v-10.700025l4.557418 4.601451c-.154115.330248-.154115.704529-.154115 1.100826 0 2.431876 1.971426 4.403302 4.403302 4.403302 2.431877 0 4.403303-1.971425 4.403303-4.403302s-1.971426-4.403303-4.403303-4.403303c-.396297 0-.770578 0-1.100825.154116l-5.658244-5.658244c.572429-2.047535-.484363-4.29322-2.531899-5.151864-.94671-.352265-1.937454-.440331-2.818115-.198149l-3.742807-3.7207908" fill="#fff"/><path d="m23.822266 1.0996094c-1.504805.118622-3.040584.8823804-4.425782 2.2675781v.00195l-16.7988278 16.8203155c-2.1172184 2.096059-2.11679221 5.533098.00391 7.626953l17.5878868 17.585938c2.094337 2.11548 5.526757 2.11548 7.621094 0l17.587891-17.585938.0039-.0059c2.11548-2.094337 2.11548-5.526757 0-7.621094l-.0039-.0059-17.582032-17.5820315-.0059-.00391c-1.047321-1.0578053-2.485865-1.6163917-3.98824-1.4979611zm.158203 1.9941406c.939028-.074023 1.742608.2359785 2.412109.9140625l.002.00195 17.595703 17.5957035.002.002c1.356168 1.339002 1.356168 3.446154 0 4.785156l-.002.002-17.595703 17.595703-.002.002c-1.339002 1.356168-3.446154 1.356168-4.785156 0l-.002-.002-17.5957034-17.595703-.00195-.002c-1.356168-1.339002-1.356168-3.446154 0-4.785156l.00195-.002.00195-.0039 16.7988784-16.820316c1.124684-1.1246846 2.230893-1.6134774 3.169922-1.6875z" fill="#fff"/></g></svg>