<svg height="48" width="48" xmlns="http://www.w3.org/2000/svg" xmlns:xlink="http://www.w3.org/1999/xlink"><linearGradient id="a"><stop offset="0"/><stop offset="1" stop-color="#333"/></linearGradient><linearGradient id="b" gradientUnits="userSpaceOnUse" x1="411.565483" x2="410.841243" xlink:href="#a" y1="548.177776" y2="511.534156"/><linearGradient id="c" gradientUnits="userSpaceOnUse" x1="408.68436" x2="408.59042" xlink:href="#a" y1="548.53137" y2="499.70847"/><linearGradient id="d" gradientUnits="userSpaceOnUse" x1="409.24765" x2="409.24765" y1="547.16254" y2="499.50464"><stop offset="0" stop-color="#d3d3d3"/><stop offset="1" stop-color="#fcf9f9"/></linearGradient><g transform="translate(-384.57143 -499.798)"><text opacity=".8" x="1111.1042" y="505.6438"><tspan x="1111.1042" y="505.6438"/></text><text opacity=".8" x="1133.1484" y="468.16129"><tspan x="1133.1484" y="468.16129"/></text><text opacity=".8" x="-219.77052" y="440.48929"><tspan x="-219.77052" y="440.48929"/></text><text opacity=".8" x="-1897.5681" y="1126.4011"><tspan x="-1897.5681" y="1126.4011"/></text><text opacity=".8" x="-114.43831" y="85.992607"><tspan x="-114.43831" y="85.992607"/></text><text opacity=".8" x="628.55853" y="-294.40137"><tspan x="628.55853" y="-294.40137"/></text><text opacity=".8" x="650.60272" y="-331.88391"><tspan x="650.60272" y="-331.88391"/></text><text opacity=".8" x="-721.54877" y="-338.517"><tspan x="-721.54877" y="-338.517"/></text><text opacity=".8" x="622.15582" y="-589.89343"><tspan x="622.15582" y="-589.89343"/></text><text opacity=".8" x="1989.3949" y="-13.335124"><tspan x="1989.3949" y="-13.335124"/></text><text opacity=".8" x="2011.4386" y="-50.81768"><tspan x="2011.4386" y="-50.81768"/></text><text opacity=".8" x="639.28735" y="-57.450813"><tspan x="639.28735" y="-57.450813"/></text><text opacity=".8" x="1982.9921" y="-308.82709"><tspan x="1982.9921" y="-308.82709"/></text><text opacity=".8" x="-223.50702" y="-101.695"><tspan x="-223.50702" y="-101.695"/></text><text opacity=".8" x="-1901.3043" y="584.21692"><tspan x="-1901.3043" y="584.21692"/></text><text opacity=".8" x="-323.72324" y="669.65961"><tspan x="-323.72324" y="669.65961"/></text><text opacity=".8" x="696.58307" y="504.8114"><tspan x="696.58307" y="504.8114"/></text><text opacity=".8" x="718.6272" y="467.32889"><tspan x="718.6272" y="467.32889"/></text><text opacity=".8" x="-653.52417" y="460.69574"><tspan x="-653.52417" y="460.69574"/></text><text opacity=".8" x="690.18036" y="209.31938"><tspan x="690.18036" y="209.31938"/></text><text opacity=".8" x="-255.3391" y="458.19858"><tspan x="-255.3391" y="458.19858"/></text><text opacity=".8" x="-1933.1368" y="1144.1105"><tspan x="-1933.1368" y="1144.1105"/></text><text opacity=".8" x="-116.33298" y="-334.41254"><tspan x="-116.33298" y="-334.41254"/></text><text opacity=".8" x="626.66382" y="-714.80664"><tspan x="626.66382" y="-714.80664"/></text><text opacity=".8" x="648.70795" y="-752.28912"><tspan x="648.70795" y="-752.28912"/></text><text opacity=".8" x="-723.44348" y="-758.9223"><tspan x="-723.44348" y="-758.9223"/></text><text opacity=".8" x="620.26111" y="-1010.2988"><tspan x="620.26111" y="-1010.2988"/></text><text opacity=".8" x="1987.5" y="-433.74048"><tspan x="1987.5" y="-433.74048"/></text><text opacity=".8" x="2009.5439" y="-471.2229"><tspan x="2009.5439" y="-471.2229"/></text><text opacity=".8" x="637.39264" y="-477.85608"><tspan x="637.39264" y="-477.85608"/></text><text opacity=".8" x="1981.0972" y="-729.23242"><tspan x="1981.0972" y="-729.23242"/></text><text opacity=".8" x="-225.40172" y="-522.10028"><tspan x="-225.40172" y="-522.10028"/></text><text opacity=".8" x="-1903.1992" y="163.81166"><tspan x="-1903.1992" y="163.81166"/></text><text opacity=".8" x="-325.61795" y="249.25438"><tspan x="-325.61795" y="249.25438"/></text><text opacity=".8" x="447.19843" y="470.8963"><tspan x="447.19843" y="470.8963"/></text><text opacity=".8" x="469.24258" y="433.41376"><tspan x="469.24258" y="433.41376"/></text><text opacity=".8" x="-698.99335" y="254.90672"><tspan x="-698.99335" y="254.90672"/></text><text opacity=".8" x="44.003471" y="-125.48728"><tspan x="44.003471" y="-125.48728"/></text><text opacity=".8" x="66.047615" y="-162.96982"><tspan x="66.047615" y="-162.96982"/></text><text opacity=".8" x="-1306.1036" y="-169.60294"><tspan x="-1306.1036" y="-169.60294"/></text><text opacity=".8" x="37.600758" y="-420.97931"><tspan x="37.600758" y="-420.97931"/></text><text opacity=".8" x="1404.8397" y="155.57899"><tspan x="1404.8397" y="155.57899"/></text><text opacity=".8" x="1426.8838" y="118.09646"><tspan x="1426.8838" y="118.09646"/></text><text opacity=".8" x="54.732258" y="111.46327"><tspan x="54.732258" y="111.46327"/></text><text opacity=".8" x="1398.437" y="-139.91306"><tspan x="1398.437" y="-139.91306"/></text><text opacity=".8" x="-808.06213" y="67.219124"><tspan x="-808.06213" y="67.219124"/></text><text opacity=".8" x="-2485.8596" y="753.13104"><tspan x="-2485.8596" y="753.13104"/></text><text opacity=".8" x="-908.27832" y="838.57367"><tspan x="-908.27832" y="838.57367"/></text><text opacity=".8" x="1111.1042" y="512.3028"><tspan x="1111.1042" y="512.3028"/></text><text opacity=".8" x="1133.1484" y="474.82022"><tspan x="1133.1484" y="474.82022"/></text><text opacity=".8" x="-219.77052" y="447.14828"><tspan x="-219.77052" y="447.14828"/></text><text opacity=".8" x="-1897.5681" y="1133.0601"><tspan x="-1897.5681" y="1133.0601"/></text><text opacity=".8" x="-114.43831" y="92.651604"><tspan x="-114.43831" y="92.651604"/></text><text opacity=".8" x="628.55853" y="-287.74237"><tspan x="628.55853" y="-287.74237"/></text><text opacity=".8" x="650.60272" y="-325.22495"><tspan x="650.60272" y="-325.22495"/></text><text opacity=".8" x="-721.54877" y="-331.85803"><tspan x="-721.54877" y="-331.85803"/></text><text opacity=".8" x="622.15582" y="-583.23444"><tspan x="622.15582" y="-583.23444"/></text><text opacity=".8" x="1989.3949" y="-6.676161"><tspan x="1989.3949" y="-6.676161"/></text><text opacity=".8" x="2011.4386" y="-44.158726"><tspan x="2011.4386" y="-44.158726"/></text><text opacity=".8" x="639.28735" y="-50.791862"><tspan x="639.28735" y="-50.791862"/></text><text opacity=".8" x="1982.9921" y="-302.16806"><tspan x="1982.9921" y="-302.16806"/></text><text opacity=".8" x="-223.50702" y="-95.036034"><tspan x="-223.50702" y="-95.036034"/></text><text opacity=".8" x="-1901.3043" y="590.87592"><tspan x="-1901.3043" y="590.87592"/></text><text opacity=".8" x="-323.72324" y="676.3186"><tspan x="-323.72324" y="676.3186"/></text><text opacity=".8" x="696.58307" y="511.47046"><tspan x="696.58307" y="511.47046"/></text><text opacity=".8" x="718.6272" y="473.98788"><tspan x="718.6272" y="473.98788"/></text><text opacity=".8" x="-653.52417" y="467.35471"><tspan x="-653.52417" y="467.35471"/></text><text opacity=".8" x="690.18036" y="215.97838"><tspan x="690.18036" y="215.97838"/></text><text opacity=".8" x="-255.3391" y="464.85757"><tspan x="-255.3391" y="464.85757"/></text><text opacity=".8" x="-1933.1368" y="1150.7694"><tspan x="-1933.1368" y="1150.7694"/></text><text opacity=".8" x="-116.33298" y="-327.75357"><tspan x="-116.33298" y="-327.75357"/></text><text opacity=".8" x="626.66382" y="-708.14758"><tspan x="626.66382" y="-708.14758"/></text><text opacity=".8" x="648.70795" y="-745.63019"><tspan x="648.70795" y="-745.63019"/></text><text opacity=".8" x="-723.44348" y="-752.26331"><tspan x="-723.44348" y="-752.26331"/></text><text opacity=".8" x="620.26111" y="-1003.6396"><tspan x="620.26111" y="-1003.6396"/></text><text opacity=".8" x="1987.5" y="-427.08151"><tspan x="1987.5" y="-427.08151"/></text><text opacity=".8" x="2009.5439" y="-464.56396"><tspan x="2009.5439" y="-464.56396"/></text><text opacity=".8" x="637.39264" y="-471.19705"><tspan x="637.39264" y="-471.19705"/></text><text opacity=".8" x="1981.0972" y="-722.57343"><tspan x="1981.0972" y="-722.57343"/></text><text opacity=".8" x="-225.40172" y="-515.44122"><tspan x="-225.40172" y="-515.44122"/></text><text opacity=".8" x="-1903.1992" y="170.47066"><tspan x="-1903.1992" y="170.47066"/></text><text opacity=".8" x="-325.61795" y="255.91338"><tspan x="-325.61795" y="255.91338"/></text><text opacity=".8" x="447.19843" y="477.55527"><tspan x="447.19843" y="477.55527"/></text><text opacity=".8" x="469.24258" y="440.07272"><tspan x="469.24258" y="440.07272"/></text><text opacity=".8" x="-698.99335" y="261.56573"><tspan x="-698.99335" y="261.56573"/></text><text opacity=".8" x="44.003471" y="-118.82833"><tspan x="44.003471" y="-118.82833"/></text><text opacity=".8" x="66.047615" y="-156.31085"><tspan x="66.047615" y="-156.31085"/></text><text opacity=".8" x="-1306.1036" y="-162.94403"><tspan x="-1306.1036" y="-162.94403"/></text><text opacity=".8" x="37.600758" y="-414.32028"><tspan x="37.600758" y="-414.32028"/></text><text opacity=".8" x="1404.8397" y="162.23795"><tspan x="1404.8397" y="162.23795"/></text><text opacity=".8" x="1426.8838" y="124.75543"><tspan x="1426.8838" y="124.75543"/></text><text opacity=".8" x="54.732258" y="118.12227"><tspan x="54.732258" y="118.12227"/></text><text opacity=".8" x="1398.437" y="-133.25409"><tspan x="1398.437" y="-133.25409"/></text><text opacity=".8" x="-808.06213" y="73.878113"><tspan x="-808.06213" y="73.878113"/></text><text opacity=".8" x="-2485.8596" y="759.79004"><tspan x="-2485.8596" y="759.79004"/></text><text opacity=".8" x="-908.27832" y="845.23273"><tspan x="-908.27832" y="845.23273"/></text><text x="705.08643" y="163.36743"><tspan x="705.08643" y="163.36743"/><tspan x="705.08643" y="177.93391"/></text><text opacity=".8" x="1133.0574" y="-280.11526"><tspan x="1133.0574" y="-280.11526"/></text><text opacity=".8" x="-544.7403" y="405.7966"><tspan x="-544.7403" y="405.7966"/></text><text opacity=".8" x="1801.9733" y="-542.31244"><tspan x="1801.9733" y="-542.31244"/></text><text opacity=".8" x="1824.0172" y="-579.79498"><tspan x="1824.0172" y="-579.79498"/></text><text opacity=".8" x="451.86572" y="-586.42816"><tspan x="451.86572" y="-586.42816"/></text><text opacity=".8" x="1795.5704" y="-837.8045"><tspan x="1795.5704" y="-837.8045"/></text><g transform="matrix(.92000358 0 0 .92000358 32.672281 41.751942)"><ellipse cx="408.58444" cy="523.96106" fill="url(#d)" rx="23.999903" ry="23.99991"/><path d="m12.376953 12.005859c-.258822.01189-.382812.05274-.382812.05274-1.29649 3.28219-.480205 5.705712-.234375 6.308594-1.52477 1.666709-2.4531254 3.792771-2.4531254 6.394531 0 4.15374 1.1515274 6.842943 2.9042974 8.595703l6.392578 6.392573c-.901383.397446-2.650635.952726-4.347657.302734l-3.40039-3.40039c-.61336-.61336-1.550489-1.271175-2.792969-1.359375 0 0-1.7626287-.02239-.7929688.947265l2.5761719 2.576172c.2412939.401846.4821069.85602.7011719 1.41211 0 0 .275659.918237 1.167969 1.810546l4.964844 4.964844a23.999903 23.99991 0 0 0 7.333984 1.158203 23.999903 23.99991 0 0 0 24-24 23.999903 23.99991 0 0 0 -.041016-1.162109l-10.941406-10.941406s-1.995985-.641301-6.546875 2.443359c-1.90375-.52826-3.945-.793734-5.96875-.802734-2.02668.0088-4.065967.274474-5.966797.802734-3.415365-2.313495-5.395408-2.531765-6.171875-2.496094z" fill-opacity=".078431" fill-rule="evenodd" transform="translate(384.57143 499.798)"/><path d="m403.1788 547.27556c0-.56484-.0205-2.06473-.0322-4.05336-6.63025 1.4399-8.02917-3.19587-8.02917-3.19587-1.08431-2.75248-2.64712-3.48558-2.64712-3.48558-2.16424-1.47941.16388-1.45015.16388-1.45015 2.39252.16975 3.65096 2.45689 3.65096 2.45689 2.12618 3.64218 5.57959 2.59005 6.93753 1.98132.21658-1.54087.83117-2.59151 1.51307-3.18708-5.29278-.60142-10.85775-2.64712-10.85775-11.78108 0-2.60176.92921-4.72941 2.45398-6.39612-.24583-.60288-1.06383-3.02612.23266-6.30831 0 0 2.0018-.64094 6.55562 2.44372 1.90083-.52826 3.94068-.79312 5.96736-.80189 2.02375.009 4.06361.27363 5.96736.80189 4.55089-3.08466 6.54831-2.44372 6.54831-2.44372 1.30087 3.28219.48288 5.70543.23705 6.30831 1.5277 1.66671 2.45104 3.79436 2.45104 6.39612 0 9.15737-5.57374 11.17235-10.88407 11.76206.85603.73604 1.61841 2.19057 1.61841 4.41479 0 3.18562-.0292 5.75665-.0292 6.53806" fill="url(#b)" fill-rule="evenodd"/><ellipse cx="408.58444" cy="523.96106" fill="none" rx="23.999903" ry="23.99991" stroke="url(#c)" stroke-linecap="round" stroke-linejoin="round" stroke-width="2"/></g></g></svg>