<svg height="48" width="48" xmlns="http://www.w3.org/2000/svg" xmlns:xlink="http://www.w3.org/1999/xlink"><linearGradient id="a"><stop offset="0" stop-color="#197cf1"/><stop offset="1" stop-color="#21c9fb"/></linearGradient><linearGradient gradientUnits="userSpaceOnUse" x1="392.15164" x2="392.15164" y1="555.29919" y2="507.29926"><stop offset="0" stop-color="#333"/><stop offset="1" stop-color="#515151"/></linearGradient><linearGradient gradientUnits="userSpaceOnUse" x1="367.68365" x2="414.68088" xlink:href="#a" y1="531.39362" y2="531.39362"/><linearGradient id="b" gradientUnits="userSpaceOnUse" x1="392.15164" x2="392.15164" xlink:href="#a" y1="555.29919" y2="507.29926"/><linearGradient id="c" gradientUnits="userSpaceOnUse" x1="387.1813" x2="387.1813" xlink:href="#a" y1="555.63666" y2="507.63669"/><circle cx="391.21191" cy="531.73108" fill="url(#b)" r="22.49843" stroke="url(#c)" stroke-linecap="round" stroke-linejoin="round" stroke-width="2.000355" transform="matrix(1.0213371 0 0 1.0213371 -375.527241709546 -518.983679493139)"/><path d="m47 14.955v-12.819c0-1.18-.957-2.136-2.137-2.136h-12.817c-1.181 0-2.137.957-2.137 2.136v5.341c-10.436 0-19.204 7.173-21.698 16.841l-2.221-.391c-.399-.069-.803.091-1.044.416-.24.325-.278.759-.095 1.12l2.314 4.569c-4.056.661-7.165 4.181-7.165 8.423 0 4.712 3.834 8.545 8.546 8.545 4.35 0 7.942-3.27 8.471-7.477h7.551v2.136c0 .405.229.774.591.956.362.18.795.142 1.12-.102l3.734-2.802c.61 4.116 4.158 7.288 8.44 7.288 4.713.001 8.547-3.832 8.547-8.544 0-4.35-3.27-7.943-7.479-8.471v-7.552h2.138c.403 0 .774-.229.954-.59.182-.361.144-.795-.1-1.119l-2.725-3.631h5.072c1.183-.001 2.14-.958 2.14-2.137zm-12.705 6.886c.182.362.551.59.955.59h2.137v7.551c-3.794.478-6.814 3.447-7.373 7.215l-3.736-2.803c-.323-.242-.756-.28-1.118-.101-.361.183-.591.551-.591.956v2.136h-7.551c-.484-3.862-3.553-6.927-7.418-7.405.003-.024.015-.045.015-.071v-.011l3.233-3.027c.295-.276.408-.696.294-1.084-.117-.389-.44-.678-.839-.748l-1.983-.35c2.312-8.665 10.206-15.076 19.59-15.076v5.341c0 1.18.956 2.136 2.137 2.136h5.073l-2.724 3.632c-.244.324-.283.757-.101 1.119z" fill="#fff" fill-opacity=".854839" transform="matrix(.531914892 0 0 .531914892 10.387995675626 12.011997964598)"/></svg>