<svg height="48" width="48" xmlns="http://www.w3.org/2000/svg" xmlns:xlink="http://www.w3.org/1999/xlink"><linearGradient id="a" gradientUnits="userSpaceOnUse" x1="17.35261272381" x2="17.35261272381" y1="1045.04883153532" y2="1007.67386002532"><stop offset="0" stop-color="#e42238"/><stop offset="1" stop-color="#fd6820"/></linearGradient><linearGradient gradientUnits="userSpaceOnUse" x1="0" x2="47" y1="23.5" y2="23.5"><stop offset="0" stop-color="#a9a3d4"/><stop offset=".47001833" stop-color="#87baff"/><stop offset="1" stop-color="#89ec85"/></linearGradient><linearGradient id="b"><stop offset="0" stop-color="#d3d3d3"/><stop offset="1" stop-color="#fcf9f9"/></linearGradient><linearGradient gradientUnits="userSpaceOnUse" x1="2.819" x2="11.758417" y1="1044.2982" y2="1044.2982"><stop offset="0" stop-color="#333538"/><stop offset="1" stop-color="#566069"/></linearGradient><linearGradient id="c" gradientUnits="userSpaceOnUse" x1="15.881459005136" x2="17.175310426136" xlink:href="#b" y1="1036.698093797212" y2="1016.663395276972"/><linearGradient id="d" gradientUnits="userSpaceOnUse" x1="17.113677540756" x2="17.113677540756" xlink:href="#b" y1="1045.709722746345" y2="1007.484343946345"/><linearGradient id="e" gradientUnits="userSpaceOnUse" x1="-85.28799864476" x2="-85.28799864476" y1="1062.62453701005" y2="1025.99188501005"><stop offset="0" stop-color="#8d3aff"/><stop offset="1" stop-color="#ff3680"/></linearGradient><g stroke-width="1.317422" transform="matrix(1.199999650171 0 0 1.199999650171 3.176860870631 -1208.208316863007)"><circle cx="-85.059036" cy="1044.5416" fill="none" r="0" stroke="url(#e)" stroke-width="1.700802"/><circle cx="65.410431" cy="1026.9817" r="0"/><g transform="matrix(.95833325 0 0 .95833325 .723025 42.785097)"><circle cx="17.352621" cy="1026.8406" fill="url(#a)" r="19.166672"/><path d="m31.294922 12.472656-10.3125 2.791016c-.774641.21744-1.398438 1.081995-1.398438 1.921875v13.3125c-.7855-.43068-1.793984-.604953-2.839843-.320313-1.88723.51336-3.070556 2.173912-2.666016 3.707032.112476.42612.337833.798748.644531 1.105468l11.839844 11.839844a22.999999 22.999999 0 0 0 20.089844-19z" fill-opacity=".078431" transform="matrix(.83333358 0 0 .83333358 -2.647385 1006.8406)"/><path d="m14.776838 1019.5357c-.645534.1811-1.165167.9015-1.165167 1.6013v11.0947c-.654584-.3589-1.495234-.504-2.366784-.2669-1.5726924.4279-2.5582434 1.8107-2.2211264 3.0882.337133 1.2775 1.8864014 1.9911 3.4591514 1.5631 1.254675-.3413 2.119584-1.3071 2.257492-2.3256l.03675-10.4847 8.156244-2.2876v8.2734c-.654575-.3589-1.495217-.504-2.3668-.2669-1.572676.4279-2.558201 1.8107-2.221101 3.0882.33715 1.2776 1.886417 1.991 3.459118 1.5632 1.2547-.3413 2.1196-1.3072 2.257525-2.3257l.03692-13.6491c0-.5248-.309767-.9174-.728225-.9913l-8.593178 2.3257z" fill="url(#c)" opacity=".9"/><circle cx="17.352623" cy="1026.8406" fill="none" r="19.112633" stroke="url(#d)" stroke-width="1.77475"/></g></g></svg>