<svg height="48" width="48" xmlns="http://www.w3.org/2000/svg" xmlns:xlink="http://www.w3.org/1999/xlink"><linearGradient id="a"><stop offset="0" stop-color="#e3e3e3"/><stop offset="1" stop-color="#fcf9f9"/></linearGradient><linearGradient id="b" gradientTransform="matrix(.21506155 .03020977 -.03020977 .21506155 20.485106 -2.786526)" gradientUnits="userSpaceOnUse" x1="29.444031" x2="29.444031" xlink:href="#a" y1="201.7325" y2="18.617405"/><linearGradient id="c" gradientUnits="userSpaceOnUse" x1="23.829035078817" x2="23.710321473871" xlink:href="#a" y1="46.72604982624" y2="1.02214712191"/><linearGradient id="d" gradientUnits="userSpaceOnUse" x1="23.710816893844" x2="23.592309394256" y1="46.805087130735" y2=".943518540253"><stop offset="0" stop-color="#178b6f"/><stop offset="1" stop-color="#489acf"/></linearGradient><g transform="matrix(.9583333 0 0 .9583333 1.000001 1.000001)"><circle cx="24" cy="24" fill="url(#d)" r="23"/><path d="m28.269531 7.7324219c-1.185085.1494745-3.951514.4808332-3.458984 2.0566406l-.216797-.2167969-3.09375 22.0195314c-1.018053-.926098-3.912845-1.683313-4.367188-.966797l-.21875-.216797c-2.721562.265511-5.558422 2.571756-5.234374 5.513672.128766 1.02215.652802 1.822849 1.302734 2.544922-.02143-.02379-.04739-.03986-.06836-.06445l.08984.08984c.227462.250917.47678.486833.72461.724609l1.507812 1.507812c.0018.002.0041.0038.0059.0059l6.099609 6.099609a23 23 0 0 0 2.658167.169883 23 23 0 0 0 23-23 23 23 0 0 0 -.275391-3.421875l-9.033203-9.033203c-.189887-.178907-.511326-.509353-.787109-.78711l-.521485-.521484c-1.111845-.7845517-.450059-.134165.08594.390625l-.822268-.8203124z" fill-opacity=".078431"/><path d="m36.416986 11.444544s.2258-.75224.0672-1.07401c-.14886-.30189-.83793-.56357-.83793-.56357l-7.37683-2.07527-.00001-.00001h-.00001c-1.32135.18072-3.48149.45289-3.67654 1.84138l-3.09302 22.01905c-1.18863-.8935-2.8033-1.41385-4.58531-1.18441-3.21568.41429-5.54151 2.8861-5.23394 5.51492.30766 2.62821 3.15895 4.47302 6.37458 4.05903 2.56548-.33071 4.53753-2.00816 5.09306-3.99144l2.99459-20.79788 8.34796-1.14219" fill="url(#b)"/><circle cx="24" cy="24" fill="none" r="23.040001" stroke="url(#c)" stroke-width="1.92"/></g></svg>