<?xml version="1.0" encoding="UTF-8" standalone="no"?>
<!-- Created with Inkscape (http://www.inkscape.org/) -->

<svg
   xmlns:dc="http://purl.org/dc/elements/1.1/"
   xmlns:cc="http://creativecommons.org/ns#"
   xmlns:rdf="http://www.w3.org/1999/02/22-rdf-syntax-ns#"
   xmlns:svg="http://www.w3.org/2000/svg"
   xmlns="http://www.w3.org/2000/svg"
   xmlns:xlink="http://www.w3.org/1999/xlink"
   xmlns:sodipodi="http://sodipodi.sourceforge.net/DTD/sodipodi-0.dtd"
   xmlns:inkscape="http://www.inkscape.org/namespaces/inkscape"
   width="48"
   height="48"
   viewBox="0 0 48 48.000001"
   id="svg2"
   version="1.1"
   inkscape:version="0.91 r13725"
   sodipodi:docname="gnash.svg">
  <sodipodi:namedview
     id="base"
     pagecolor="#dcdcdc"
     bordercolor="#666666"
     borderopacity="1.0"
     inkscape:pageopacity="0"
     inkscape:pageshadow="2"
     inkscape:zoom="7.919596"
     inkscape:cx="-18.061506"
     inkscape:cy="26.649164"
     inkscape:document-units="px"
     inkscape:current-layer="layer1"
     showgrid="false"
     units="px" />
  <defs
     id="defs4">
    <linearGradient
       inkscape:collect="always"
       id="linearGradient5048">
      <stop
         style="stop-color:#f2f2f2;stop-opacity:1"
         offset="0"
         id="stop5050" />
      <stop
         style="stop-color:#f9f9f9;stop-opacity:1"
         offset="1"
         id="stop5052" />
    </linearGradient>
    <linearGradient
       gradientUnits="userSpaceOnUse"
       y2="1"
       x2="0"
       y1="47"
       id="linearGradient3864"
       gradientTransform="translate(0,1004.3622)">
      <stop
         id="stop7"
         style="stop-color:#eaeaea;stop-opacity:1" />
      <stop
         id="stop9"
         style="stop-color:#f4f4f4;stop-opacity:1"
         offset="1" />
    </linearGradient>
    <linearGradient
       gradientUnits="userSpaceOnUse"
       y2="1.048422"
       x2="23.809927"
       y1="47.209225"
       x1="23.72323"
       id="linearGradient4168"
       xlink:href="#linearGradient4162"
       inkscape:collect="always"
       gradientTransform="translate(0,1004.3622)" />
    <linearGradient
       id="linearGradient4162"
       inkscape:collect="always">
      <stop
         id="stop4164"
         offset="0"
         style="stop-color:#5783a3;stop-opacity:1;" />
      <stop
         id="stop4166"
         offset="1"
         style="stop-color:#91b9d5;stop-opacity:1" />
    </linearGradient>
    <clipPath
       clipPathUnits="userSpaceOnUse"
       id="clipPath5040">
      <path
         inkscape:connector-curvature="0"
         id="path5042"
         style="fill:url(#linearGradient5044);fill-opacity:1"
         d="M 24,1 C 36.703,1 47,11.297 47,24 47,36.703 36.703,47 24,47 11.297,47 1,36.703 1,24 1,11.297 11.297,1 24,1 Z" />
    </clipPath>
    <linearGradient
       inkscape:collect="always"
       xlink:href="#linearGradient3864"
       id="linearGradient5044"
       gradientUnits="userSpaceOnUse"
       y1="47"
       x2="0"
       y2="1" />
    <linearGradient
       inkscape:collect="always"
       xlink:href="#linearGradient5048"
       id="linearGradient5046"
       gradientUnits="userSpaceOnUse"
       gradientTransform="matrix(0.97826087,0,0,0.97826087,0.52173913,1004.8839)"
       y1="46.660713"
       x2="23.125"
       y2="1.3928574"
       x1="23.303572" />
  </defs>
  <metadata
     id="metadata7">
    <rdf:RDF>
      <cc:Work
         rdf:about="">
        <dc:format>image/svg+xml</dc:format>
        <dc:type
           rdf:resource="http://purl.org/dc/dcmitype/StillImage" />
        <dc:title />
      </cc:Work>
    </rdf:RDF>
  </metadata>
  <g
     transform="translate(0,-1004.3622)"
     id="layer1"
     inkscape:groupmode="layer"
     inkscape:label="Layer 1">
    <path
       d="m 24,1005.8622 c 12.426848,0 22.5,10.0732 22.5,22.5 0,12.4268 -10.073152,22.5 -22.5,22.5 -12.426848,0 -22.5,-10.0732 -22.5,-22.5 0,-12.4268 10.073152,-22.5 22.5,-22.5 z"
       style="fill:url(#linearGradient5046);fill-opacity:1"
       id="path21"
       inkscape:connector-curvature="0" />
    <path
       style="fill:#000000;fill-opacity:0.07843137;fill-rule:nonzero;stroke:none"
       d="M 24 15 C 22.34325 15 21 16.3433 21 18 C 21 18.8276 21.339831 19.568375 21.880859 20.109375 L 22.003906 20.232422 L 22 20.232422 L 25.767578 24 L 27.767578 26 L 92.710938 90.943359 L 96.478516 94.710938 L 98.478516 96.710938 L 98.478516 96.705078 L 98.601562 96.828125 C 99.14304 97.369625 99.884717 97.710938 100.71094 97.710938 C 102.37094 97.710938 103.71094 96.367737 103.71094 94.710938 C 103.71094 93.882537 103.37494 93.130791 102.83203 92.587891 L 96.832031 86.589844 L 64.476562 54.234375 L 32.121094 21.878906 L 26.123047 15.878906 C 25.580078 15.335906 24.828781 15 24 15 z M 18 21 C 16.719579 20.98 15.496599 21.878322 15.134766 23.107422 C 14.797424 24.148722 15.104072 25.352094 15.873047 26.121094 L 86.583984 96.832031 C 86.592444 96.84049 86.602757 96.847119 86.611328 96.855469 L 92.587891 102.83203 C 93.13086 103.37493 93.882156 103.71094 94.710938 103.71094 C 96.367688 103.71094 97.710938 102.36764 97.710938 100.71094 C 97.710938 99.883337 97.371106 99.142562 96.830078 98.601562 L 96.707031 98.478516 L 96.710938 98.478516 L 94.710938 96.478516 L 92.943359 94.710938 L 90.943359 92.710938 L 24 25.767578 L 20.232422 22 C 20.096888 21.8783 19.901921 21.669928 19.714844 21.548828 C 19.218271 21.193828 18.610813 20.9979 18 21 z "
       transform="translate(0,1004.3622)"
       id="path4784"
       clip-path="url(#clipPath5040)" />
    <path
       inkscape:connector-curvature="0"
       id="path4142"
       d="m 24,1005.3622 c -12.68419,0 -23,10.3158 -23,23 0,12.6842 10.31581,23 23,23 12.68419,0 23,-10.3158 23,-23 0,-12.6842 -10.31581,-23 -23,-23 z m 0,3.0996 c 11.008801,0 19.900391,8.8916 19.900391,19.9004 0,11.0088 -8.89159,19.9004 -19.900391,19.9004 -11.008801,0 -19.90039,-8.8916 -19.90039,-19.9004 0,-11.0088 8.891589,-19.9004 19.90039,-19.9004 z"
       style="color:#000000;font-style:normal;font-variant:normal;font-weight:normal;font-stretch:normal;font-size:medium;line-height:normal;font-family:sans-serif;text-indent:0;text-align:start;text-decoration:none;text-decoration-line:none;text-decoration-style:solid;text-decoration-color:#000000;letter-spacing:normal;word-spacing:normal;text-transform:none;direction:ltr;block-progression:tb;writing-mode:lr-tb;baseline-shift:baseline;text-anchor:start;white-space:normal;clip-rule:nonzero;display:inline;overflow:visible;visibility:visible;opacity:1;isolation:auto;mix-blend-mode:normal;color-interpolation:sRGB;color-interpolation-filters:linearRGB;solid-color:#000000;solid-opacity:1;fill:url(#linearGradient4168);fill-opacity:1;fill-rule:nonzero;stroke:none;stroke-width:3.1000452;stroke-linecap:butt;stroke-linejoin:miter;stroke-miterlimit:4;stroke-dasharray:none;stroke-dashoffset:0;stroke-opacity:1;color-rendering:auto;image-rendering:auto;shape-rendering:auto;text-rendering:auto;enable-background:accumulate" />
    <path
       style="fill:#d8541f;fill-opacity:1;fill-rule:nonzero;stroke:none"
       d="m 18,1025.3622 c -1.280421,-0.02 -2.503563,0.8788 -2.865396,2.1079 -0.382311,1.1801 0.0632,2.5677 1.070529,3.2961 0.988161,0.764 2.461136,0.7951 3.477999,0.07 0.205574,-0.131 0.41061,-0.3446 0.56258,-0.4874 0.662236,-0.6622 1.324473,-1.3245 1.98671,-1.9867 -0.666667,-0.6667 -1.333333,-1.3333 -2,-2 -0.135534,-0.1217 -0.330869,-0.3297 -0.517946,-0.4508 -0.496573,-0.355 -1.103663,-0.5513 -1.714476,-0.5492 z"
       id="path47"
       inkscape:connector-curvature="0" />
    <path
       inkscape:connector-curvature="0"
       style="fill:#d8541f;fill-opacity:1;fill-rule:nonzero;stroke:none"
       d="m 24,1019.3622 c -1.65675,0 -3,1.3433 -3,3 0,0.8922 0.395598,1.6835 1.011719,2.2324 l -0.01172,0 2,2 2,-2 -0.01367,0 C 26.603479,1024.0451 27,1023.2534 27,1022.3622 c 0,-1.66 -1.34325,-3 -3,-3 z"
       id="path51" />
    <path
       inkscape:connector-curvature="0"
       style="fill:#d8541f;fill-opacity:1;fill-rule:nonzero;stroke:none"
       d="m 24,1030.1298 -2,2 0.01367,0 C 21.396521,1032.6793 21,1033.471 21,1034.3622 c 0,1.66 1.34325,3 3,3 1.65675,0 3,-1.3433 3,-3 0,-0.8922 -0.395598,-1.6835 -1.011719,-2.2324 l 0.01172,0 -2,-2 z"
       id="path39" />
    <path
       inkscape:connector-curvature="0"
       style="fill:#d8541f;fill-opacity:1;fill-rule:nonzero;stroke:none"
       d="m 30,1025.3622 c -0.892151,0 -1.68347,0.3956 -2.232422,1.0117 l 0,-0.012 -2,2 2,2 0,-0.014 c 0.549506,0.6172 1.341208,1.0137 2.232422,1.0137 1.66,0 3,-1.3432 3,-3 0,-1.6567 -1.343333,-3 -3,-3 z"
       id="path43" />
  </g>
</svg>
