<svg height="48" width="48" xmlns="http://www.w3.org/2000/svg" xmlns:xlink="http://www.w3.org/1999/xlink"><linearGradient id="a" gradientUnits="userSpaceOnUse" x1="543.94849" x2="543.74268" y1="484.80768" y2="427.53772"><stop offset="0" stop-color="#0ba97d"/><stop offset="1" stop-color="#11e19b"/></linearGradient><linearGradient id="b" gradientUnits="userSpaceOnUse" x1="556.43549" x2="555.29846" xlink:href="#d" y1="470.48056" y2="421.86777"/><linearGradient id="c"><stop offset="0" stop-color="#222c35"/><stop offset="1" stop-color="#545e67"/></linearGradient><linearGradient id="d"><stop offset="0" stop-color="#197ff1"/><stop offset="1" stop-color="#21c6fb"/></linearGradient><linearGradient id="e" gradientUnits="userSpaceOnUse" x1="376.208908" x2="375.998158" xlink:href="#c" y1="509.103761" y2="505.692691"/><linearGradient id="f" gradientTransform="matrix(1.0833321 0 0 1.3356131 -49.731502 -170.45106)" gradientUnits="userSpaceOnUse" x1="391.57144" x2="390.87775" y1="531.79797" y2="507.6731"><stop offset="0" stop-color="#d3d3d3"/><stop offset="1" stop-color="#fcf9f9"/></linearGradient><linearGradient id="g" gradientTransform="matrix(-1 0 0 -1 823.84266 1043.6233)" gradientUnits="userSpaceOnUse" x1="408.52423" x2="409.26617" xlink:href="#c" y1="506.48495" y2="533.19501"/><linearGradient id="h" gradientUnits="userSpaceOnUse" x1="407.204555302461" x2="424.071191705281" xlink:href="#c" y1="515.758662045879" y2="532.625306305848"/><linearGradient id="i" gradientUnits="userSpaceOnUse" x1="414.545322" x2="414.204902" xlink:href="#d" y1="535.917529" y2="514.004379"/><linearGradient id="j" gradientUnits="userSpaceOnUse" x1="370.115247" x2="370.115247" xlink:href="#c" y1="515.901424" y2="510.720024"/><rect fill="url(#b)" height="58.986568" ry="2.3" transform="matrix(-.509677450509 -.003199904882 -.003199904882 .509677450509 301.289673051759 -214.941505876909)" width="76.809471" x="504.25668" y="426.46411"/><rect fill="url(#a)" height="58.986568" ry="2.3" transform="matrix(-.501696468872 -.089899887755 -.089899887755 .501696468872 339.510907222012 -154.447510206971)" width="76.809471" x="504.25668" y="426.46411"/><path d="m19.472 14.653-.147-4.695-.075-1.652c.01-.051.024-.153-.021-.252-.053-.11-.172-.182-.252-.225-.016-.32-.042-.551-.077-.551-.034 0-.062.227-.075.547-.08.041-.203.117-.257.229-.046.099-.028.201-.019.252l-.223 6.349h-1.185l-.151-4.75s.004-.183-.031-.254c-.035-.074-.104-.121-.164-.154-.01-.375-.041-.662-.076-.662-.039 0-.068.279-.079.65-.062.03-.146.084-.187.166-.031.071-.031.254-.031.254l-.147 4.748h-1.028v-3.4l-.09-.01v-.646h-.638v.576l-.606-.004h-.07v-.988h-.209c-.002-.08-.024-.25-.174-.436-.141-.174-.362-.303-.494-.369-.006-.432-.049-.773-.104-.773-.053 0-.095.338-.104.767-.129.06-.363.191-.514.376-.031.037-.056.078-.076.112v-.167h-.275c.1-.09 1.001-.967.85-1.92-.147-.93-1.057-1.502-1.777-2.014-.498-.351-.765-.595-.905-.79h-.02c.007-.104.011-.219.011-.338 0-.428-.05-.771-.107-.85v-.005c-.011-.009-.016-.028-.024-.028h-.002-.002c-.005 0-.013.02-.021.028v.005c-.062.079-.107.422-.107.85 0 .119.003.232.011.338h-.022c-.138.195-.407.439-.906.79-.719.511-1.627 1.084-1.775 2.013-.151.953.751 1.83.85 1.92h-.276v.168c-.023-.033-.045-.075-.077-.111-.148-.186-.386-.318-.512-.377-.005-.429-.051-.768-.104-.768-.055 0-.096.343-.105.773-.131.068-.353.198-.492.372-.15.186-.172.354-.174.436h-.21v.978l-.676.013v-.576h-.64v.646l-.087.01v3.4h-1.031l-.146-4.748s0-.183-.032-.254c-.04-.082-.126-.136-.187-.166-.009-.371-.04-.65-.078-.65-.039 0-.068.287-.076.662-.061.033-.131.08-.165.154-.034.072-.033.254-.033.254l-.149 4.748h-1.184l-.223-6.348c.01-.051.027-.153-.02-.252-.052-.111-.175-.187-.256-.228-.013-.32-.04-.547-.075-.547-.034 0-.063.229-.074.551-.083.043-.202.113-.255.224-.046.099-.031.201-.02.252l-.075 1.654-.147 4.695h-.368l.03679469 3.801206 19.11050831-.110764c.881341.02493.734759-.936206.734759-.936206l-.042062-2.754236h-.368zm-8.752-.017h-1.601v-1.695s-.009-.455.378-.719c.166-.111.294-.162.422-.164.128.002.258.053.424.164.386.264.377.719.377.719z" fill-opacity=".66129" transform="matrix(1.966416688104 .377135569899 -.377135569899 1.966416688104 10.706573855404 .264291391588)"/><g fill-opacity="1" transform="matrix(.647023983793 .000000002895 -.000000002895 .647023983793 -237.384721214127 -303.338388292188)"><rect fill="url(#e)" height="3.000011" ry="1" width="5.999985" x="372.20895" y="506.10376"/><rect fill="url(#f)" height="32.054688" ry="1.5" width="52" x="366.88705" y="507.77063"/><g transform="matrix(1.3014262 0 0 1.3014262 -145.97345 -157.80734)"><path d="m401.27124 523.8253a13.999973 13.999973 0 0 1 13.99997-13.99997 13.999973 13.999973 0 0 1 13.99997 13.99997 13.999973 13.999973 0 0 1 -13.99997 13.99998 13.999973 13.999973 0 0 1 -13.99997-13.99998z" fill="url(#g)"/><circle cx="415.27127" cy="523.82532" fill="url(#h)" r="10.999989"/><circle cx="415.27127" cy="523.82532" fill="url(#i)" r="9.999989"/></g><circle cx="372.70599" cy="513.31073" fill="url(#j)" fill-rule="evenodd" r="2.590692"/></g></svg>