<svg height="48" width="48" xmlns="http://www.w3.org/2000/svg" xmlns:xlink="http://www.w3.org/1999/xlink"><linearGradient id="a" gradientUnits="userSpaceOnUse" x1="-70.5413" x2="-70.5413" xlink:href="#b" y1="-30.06505" y2="-34.84789"/><linearGradient id="b"><stop offset="0" stop-color="#222c35"/><stop offset="1" stop-color="#545e67"/></linearGradient><linearGradient id="c" gradientTransform="matrix(-.85714469 0 0 -.85714436 300.62938 425.24892)" gradientUnits="userSpaceOnUse" x1="408.52423" x2="409.26617" xlink:href="#b" y1="506.48495" y2="533.19501"/><linearGradient id="d" gradientTransform="matrix(.85714469 0 0 .85714436 -405.52298 -469.28691)" gradientUnits="userSpaceOnUse" x1="407.20456" x2="424.0712" y1="515.75867" y2="532.62531"><stop offset="0" stop-color="#18222a"/><stop offset="1" stop-color="#566069"/></linearGradient><linearGradient id="e" gradientTransform="matrix(3.3333417 0 0 3.3892711 -1474.8173 -1742.0924)" gradientUnits="userSpaceOnUse" x1="428.57144" x2="428.36069" xlink:href="#b" y1="504.798" y2="501.38693"/><linearGradient id="f" gradientUnits="userSpaceOnUse" x1="-65.74708" x2="-65.9416" xlink:href="#b" y1="-36.74413" y2="-39.89281"/><linearGradient id="g" gradientUnits="userSpaceOnUse" x1="-48.595272" x2="-48.765965" y1="-9.140591" y2="-32.147224"><stop offset="0" stop-color="#197ff1"/><stop offset="1" stop-color="#21c6fb"/></linearGradient><linearGradient id="h" gradientUnits="userSpaceOnUse" x1="2.251100859791" x2="8.662768220017" y1="21.540155533512" y2="21.540155533512"><stop offset="0" stop-color="#ffce69"/><stop offset="1" stop-color="#ffce54"/></linearGradient><linearGradient id="i" gradientTransform="matrix(.83420655 .13705122 -.13705122 .83420655 -35.048654 -45.986196)" gradientUnits="userSpaceOnUse" x1="87.866982" x2="81.025726" y1="79.972733" y2="49.376141"><stop offset="0" stop-color="#132e51"/><stop offset="1" stop-color="#2767b9"/></linearGradient><linearGradient id="j" gradientUnits="userSpaceOnUse" spreadMethod="pad" x1="3.648036509468" x2="11.265395164179" y1="5.984481200857" y2="27.074040698005"><stop offset="0" stop-color="#86d0fb"/><stop offset="1" stop-color="#2794f5"/></linearGradient><linearGradient id="k" gradientTransform="matrix(.99999889 0 0 1.4166679 -458.14644 -757.1739)" gradientUnits="userSpaceOnUse" x1="391.57144" x2="390.87775" y1="531.79797" y2="507.6731"><stop offset="0" stop-color="#d3d3d3"/><stop offset="1" stop-color="#fcf9f9"/></linearGradient><linearGradient id="l" gradientUnits="userSpaceOnUse" x1="15.127484094252" x2="4.044093092542" y1="40.288084912184" y2="28.020247257138"><stop offset="0" stop-color="#0ba97d"/><stop offset="1" stop-color="#11e19b"/></linearGradient><g stroke-width="1.278674"><path d="m8.4355493 6.2185269c-.7317507-.0010145-1.3232097.5858939-1.3242234 1.3176191l-.00991 6.720187-3.9924852.650554c-.722235.117621-1.2090272.793546-1.0914107 1.515757l4.0733907 25.011644.013213.08421c.1176191.722225.7935309 1.209031 1.5157574 1.091412l12.4579409-2.029266v1.102969c0 .476006.384244.86025.86025.86025h24.202575c.476005 0 .858603-.384244.858603-.86025v-16.641958c0-.476006-.382598-.86025-.858603-.86025h-.855298l.02308-16.5924221c.000845-.7317261-.585864-1.3215579-1.317625-1.3225723z" fill-opacity=".670588"/><path d="m8.4348163 5.3725691 34.5554047.048213c.731761.00101 1.320025.5909882 1.319002 1.3227144l-.035337 25.3414535c-.000845.731726-.590936 1.319956-1.32268 1.318933l-34.5554095-.048187c-.7317506-.000845-1.3200285-.590902-1.3190081-1.32262l.0353542-25.3414598c.0010144-.7317253.5909425-1.3200489 1.3226932-1.3190285z" fill="url(#i)"/><path d="m3.109041 14.061331 34.106113-5.5544122c.722242-.1176216 1.398367.369174 1.515987 1.0913861l4.073365 25.0119621c.117619.722212-.369131 1.398293-1.091364 1.515914l-34.1061151 5.554416c-.7222366.117619-1.3983598-.36908-1.5159772-1.091288l-4.0733687-25.011967c-.1176165-.722212.3691242-1.398389 1.09136-1.516011z" fill="url(#j)"/><circle cx="5.456945" cy="21.540173" fill="url(#h)" opacity=".811" r="3.205836" transform="matrix(.9600166 -.27994307 .27994307 .9600166 0 0)"/></g><path d="m38.439468 26.899793h-10.800752l-4.52298 4.748487-9.585595-3.409836-4.8547048 1.25473-4.6313436-1.472927 2.0606025 12.652848c.1176191.722225.7935402 1.208823 1.5157667 1.091204l34.1057832-5.554359c.722225-.11762 1.208823-.79354 1.091204-1.515766l-1.981889-7.784132z" fill="url(#l)" fill-rule="evenodd" stroke-width="1.065562"/><g transform="matrix(.54003761 0 0 .54003761 59.811716 43.746363)"><rect fill="url(#f)" height="2.769241" ry=".923077" width="5.538447" x="-69.439346" y="-39.513359"/><rect fill="url(#e)" height="10.167851" ry="3.389271" width="20" x="-59.575481" y="-41.363029"/><rect fill="url(#k)" height="34" ry="1.591031" stroke-width=".923077" width="48" x="-73.57547" y="-37.792774"/><g stroke-width=".857145"><path d="m-61.575467-20.293003a12.000003 11.999998 0 0 1 12-11.999996 12.000003 11.999998 0 0 1 12 11.999996 12.000003 11.999998 0 0 1 -12 12.000003 12.000003 11.999998 0 0 1 -12-12.000003z" fill="url(#c)"/><ellipse cx="-49.575417" cy="-20.292988" fill="url(#d)" rx="9.428582" ry="9.428578"/><ellipse cx="-49.575417" cy="-20.292988" fill="url(#g)" rx="8.571437" ry="8.571434"/></g><circle cx="-68.149857" cy="-32.456474" fill="url(#a)" fill-rule="evenodd" r="2.391408"/></g></svg>