<?xml version="1.0" encoding="UTF-8" standalone="no"?>
<svg
   xmlns:dc="http://purl.org/dc/elements/1.1/"
   xmlns:cc="http://creativecommons.org/ns#"
   xmlns:rdf="http://www.w3.org/1999/02/22-rdf-syntax-ns#"
   xmlns:svg="http://www.w3.org/2000/svg"
   xmlns="http://www.w3.org/2000/svg"
   xmlns:sodipodi="http://sodipodi.sourceforge.net/DTD/sodipodi-0.dtd"
   xmlns:inkscape="http://www.inkscape.org/namespaces/inkscape"
   width="48"
   height="48"
   id="svg2"
   version="1.1"
   inkscape:version="0.91 r13725"
   sodipodi:docname="gnome-software.svg">
  <metadata
     id="metadata26">
    <rdf:RDF>
      <cc:Work
         rdf:about="">
        <dc:format>image/svg+xml</dc:format>
        <dc:type
           rdf:resource="http://purl.org/dc/dcmitype/StillImage" />
        <dc:title />
      </cc:Work>
    </rdf:RDF>
  </metadata>
  <defs
     id="defs24" />
  <sodipodi:namedview
     pagecolor="#ffffff"
     bordercolor="#666666"
     borderopacity="1"
     objecttolerance="10"
     gridtolerance="10"
     guidetolerance="10"
     inkscape:pageopacity="0"
     inkscape:pageshadow="2"
     inkscape:window-width="1366"
     inkscape:window-height="712"
     id="namedview22"
     showgrid="false"
     inkscape:zoom="8"
     inkscape:cx="18.100532"
     inkscape:cy="29.051842"
     inkscape:window-x="0"
     inkscape:window-y="28"
     inkscape:window-maximized="1"
     inkscape:current-layer="svg2" />
  <rect
     x="3.7600002"
     width="40.479996"
     height="8.7999926"
     id="rect6"
     style="fill:#80b3ff;fill-opacity:1"
     y="2.4400063" />
  <polygon
     points="4,20 12,20 12,8 4,0 "
     id="polygon10"
     style="fill:#3771c8;fill-opacity:0.26011562"
     transform="matrix(0.43765921,0,0,0.35011354,2.0093632,2.3650946)" />
  <polygon
     points="12,8 12,20 0,20 "
     id="polygon12"
     style="fill:#aaccff"
     transform="matrix(0.44,0,0,0.28318982,1.9945151,2.8883075)" />
  <polygon
     points="4,20 12,20 12,8 4,0 "
     id="polygon10-3"
     style="fill:#3771c8;fill-opacity:0.26011562"
     transform="matrix(-0.43027019,0,0,0.34459317,45.962266,2.4551256)" />
  <path
     d="M 46,43.155195 C 46,44.726002 44.81772,46 43.36,46 L 4.64,46 C 3.18228,46 2,44.726002 2,43.155195 l 0,-34.6117887 44,0 0,34.6117887 z"
     id="path4"
     style="fill:#5599ff;fill-opacity:1"
     inkscape:connector-curvature="0" />
  <circle
     cx="34.796993"
     cy="17.271484"
     r="2.1999981"
     id="circle16"
     style="opacity:0.3" />
  <circle
     cx="14.125817"
     cy="17.535149"
     r="2.1999981"
     id="circle18"
     style="opacity:0.3" />
  <path
     stroke-miterlimit="10"
     d="M 13.877086,16.025233 C 13.823043,10.193725 18.506797,5.4218656 24.338747,5.3678036 30.170696,5.3137606 34.942117,9.9975146 34.996175,15.829473"
     id="path20"
     inkscape:connector-curvature="0"
     style="clip-rule:evenodd;fill:none;stroke:#ffffff;stroke-width:2.64000034;stroke-linecap:round;stroke-miterlimit:10" />
  <g
     id="g4214"
     transform="matrix(0.6372271,0,0,0.6372271,8.5343085,11.507433)">
    <path
       inkscape:connector-curvature="0"
       d="m 34.384946,13.324538 c -6.493823,0 -7.711975,9.249251 -4.058837,9.249251 3.652611,0 10.552925,-9.249251 4.058837,-9.249251 z"
       style="fill:#ffffff;fill-opacity:0.85;fill-rule:nonzero;stroke:none;stroke-width:1.29989684;stroke-miterlimit:4;stroke-dasharray:none;stroke-opacity:1"
       id="path3775" />
    <path
       inkscape:connector-curvature="0"
       d="m 23.602117,21.427696 c 1.945085,0.11878 4.079162,-7.422945 0.423384,-6.948618 -3.654458,0.474327 -2.369261,6.829838 -0.423384,6.948618 z"
       style="fill:#ffffff;fill-opacity:0.85;fill-rule:nonzero;stroke:none;stroke-width:1.29989684;stroke-miterlimit:4;stroke-dasharray:none;stroke-opacity:1"
       id="path3777" />
    <path
       inkscape:connector-curvature="0"
       d="m 14.687825,26.113955 c 1.383389,-0.608944 0.17817,-6.565091 -2.174198,-4.940712 -2.351312,1.624644 0.790809,5.549392 2.174198,4.940712 z"
       style="fill:#ffffff;fill-opacity:0.85;fill-rule:nonzero;stroke:none;stroke-width:1.29989684;stroke-miterlimit:4;stroke-dasharray:none;stroke-opacity:1"
       id="path3779" />
    <path
       inkscape:connector-curvature="0"
       d="m 18.58565,22.996381 c 1.646816,-0.335751 1.737089,-7.09089 -1.199676,-5.879072 -2.937292,1.212082 -0.44582,6.215351 1.199676,5.879072 l 0,0 z"
       style="fill:#ffffff;fill-opacity:0.85;fill-rule:nonzero;stroke:none;stroke-width:1.29989684;stroke-miterlimit:4;stroke-dasharray:none;stroke-opacity:1"
       id="path3781" />
    <path
       inkscape:connector-curvature="0"
       d="m 27.185044,38.113354 c 0.292197,2.231477 -1.63705,3.333489 -3.52644,1.894934 -6.014745,-4.579357 9.958761,-6.863889 8.905844,-13.120153 -0.873955,-5.193052 -16.807605,-3.594276 -18.622032,4.531318 -1.228183,5.495809 5.055532,13.120416 11.612177,13.120416 3.225531,0 6.945978,-2.91248 7.642028,-6.602045 0.531605,-2.813497 -6.255472,-1.686145 -6.011577,0.17553 l 0,0 z"
       style="fill:#ffffff;fill-opacity:0.85;fill-rule:nonzero;stroke:none;stroke-width:1.29989684;stroke-miterlimit:4;stroke-dasharray:none;stroke-opacity:1"
       id="path3783" />
  </g>
  <polygon
     points="0,20 12,8 12,20 "
     id="polygon12-5"
     style="fill:#aaccff"
     transform="matrix(-0.43306235,0,0,0.27872466,45.998365,2.9700888)" />
</svg>
