<svg height="48" width="48" xmlns="http://www.w3.org/2000/svg" xmlns:xlink="http://www.w3.org/1999/xlink"><linearGradient id="a" x1="0" x2="0" y1="1" y2="0"><stop offset="0" stop-color="#ececec"/><stop offset="1" stop-color="#fff"/></linearGradient><linearGradient id="b" x1="0" x2="1" y1="0" y2="0"><stop offset="0" stop-color="#d9d9d9"/><stop offset="1" stop-color="#eee"/></linearGradient><linearGradient id="c" x1="0" x2="1" xlink:href="#a" y1="0" y2="0"/><linearGradient id="d" x1="1" x2="0" xlink:href="#a" y1="0" y2="0"/><linearGradient id="e" x1="1" x2="0" xlink:href="#b" y1="0" y2="0"/><linearGradient id="f" x1="0" x2="1" xlink:href="#b" y1="0" y2="0"/><linearGradient id="g" x1="0" x2="0" y1="1" y2="0"><stop offset="0" stop-color="#e6e6e6"/><stop offset="1" stop-color="#fff"/></linearGradient><clipPath id="h"><path d="m2 9h44v37h-44z"/></clipPath><path d="m4 3h40v10h-40z" fill="url(#b)"/><path d="m4 3v27l3.5-24.5z" fill="url(#f)"/><path d="m44 3v5l-3.5-2.5z" fill="url(#e)"/><path d="m7.5 5.5 7.7 5.5h-11.2z" opacity=".08"/><rect clip-path="url(#h)" fill="url(#a)" height="40" rx="3" width="44" x="2" y="6"/><path d="m46 9h-5.5v-3.5z" fill="url(#d)"/><path d="m7.5 5.5-5.5 3.5h5.5z" fill="url(#c)"/><circle cx="14" cy="14" opacity=".3" r="2"/><circle cx="34" cy="14" opacity=".3" r="2"/><path d="m34 13a10 10 0 1 0 -20 0" fill="none" stroke="url(#g)" stroke-linecap="round" stroke-width="2.4"/><path d="m29.802734 18.873047c-3.760887 0-4.465318 5.355469-2.349609 5.355469 2.115404 0 6.11065-5.355469 2.349609-5.355469zm-5.998046.667969c-2.116473.274706-1.373046 3.954645-.246094 4.023437 1.126492.06879 2.363333-4.298143.246094-4.023437zm-3.546876 1.449218c-.092813.009851-.192526.034262-.298828.078125-1.701128.701976-.259626 3.601006.69336 3.40625.894141-.182296.997667-3.632136-.394532-3.484375zm-2.642578 2.265625c-.147904-.004977-.308219.044515-.478515.16211-1.361759.940909.458577 3.213845 1.259765 2.861328.701039-.308584.25408-2.988594-.78125-3.023438zm7.775391 1.740235c-2.91943-.04939-6.769017 1.414265-7.425781 4.355468-.7113 3.182891 2.927338 7.59961 6.724609 7.59961 1.868061 0 4.022664-1.687414 4.425781-3.824219.307878-1.629433-3.623672-.976624-3.482422.101563.169226 1.292355-.946778 1.930793-2.041015 1.097656-3.483431-2.652128 5.767998-3.974351 5.158203-7.597656-.189806-1.127831-1.607717-1.702788-3.359375-1.732422z" opacity=".8"/></svg>