<svg viewBox="0 0 48 48" xmlns="http://www.w3.org/2000/svg" xmlns:xlink="http://www.w3.org/1999/xlink"><linearGradient id="a" gradientUnits="userSpaceOnUse" x1="400.39636" x2="400.39636" y1="545.61945" y2="517.61945"><stop offset="0" stop-color="#d3d3d3"/><stop offset="1" stop-color="#fcf9f9"/></linearGradient><linearGradient id="b" gradientUnits="userSpaceOnUse" x1="404.71429" x2="404.71429" xlink:href="#e" y1="546.29791" y2="517.29797"/><linearGradient id="c" gradientUnits="userSpaceOnUse" x1="400.39636" x2="400.39636" y1="545.61945" y2="517.61945"><stop offset="0" stop-color="#e3e3e3"/><stop offset="1" stop-color="#fcf9f9"/></linearGradient><linearGradient id="d" gradientUnits="userSpaceOnUse" x1="398.02356" x2="398.02356" xlink:href="#e" y1="515.23712" y2="545.81091"/><linearGradient id="e"><stop offset="0" stop-color="#00cafe"/><stop offset="1" stop-color="#1460f3"/></linearGradient><g fill="url(#a)" stroke-width="1.3" transform="matrix(1.56997042 0 0 1.56997042 -604.885221 -810.90691)"><circle cx="400.57138" cy="531.79791" fill="url(#d)" r="13.999958" stroke="url(#d)" stroke-width="1.3"/><circle cx="400.57144" cy="531.79797" fill="url(#c)" r="0" stroke="url(#b)" stroke-width="1"/><circle cx="400.57138" cy="531.79791" fill="url(#a)" r="0"/></g><path d="m24 15c0 1.656-1.344 3-3 3s-3-1.344-3-3 1.344-3 3-3 3 1.344 3 3m-6 0c0 1.656-1.344 3-3 3s-3-1.344-3-3 1.344-3 3-3 3 1.344 3 3m6 6c0 1.656-1.344 3-3 3s-3-1.344-3-3 1.344-3 3-3 3 1.344 3 3m12 6c0 1.656-1.344 3-3 3s-3-1.344-3-3 1.344-3 3-3 3 1.344 3 3m0 6c0 1.656-1.344 3-3 3s-3-1.344-3-3 1.344-3 3-3 3 1.344 3 3m-6 0c0 1.656-1.344 3-3 3s-3-1.344-3-3 1.344-3 3-3 3 1.344 3 3m0 0" fill-opacity=".810484"/><path d="m36 15c0 1.656-1.344 3-3 3s-3-1.344-3-3 1.344-3 3-3 3 1.344 3 3m-6 6c0 1.656-1.344 3-3 3s-3-1.344-3-3 1.344-3 3-3 3 1.344 3 3m-6 6c0 1.656-1.344 3-3 3s-3-1.344-3-3 1.344-3 3-3 3 1.344 3 3m-6 6c0 1.656-1.344 3-3 3s-3-1.344-3-3 1.344-3 3-3 3 1.344 3 3m0 0" fill="#fff" fill-opacity=".850807"/></svg>