<svg height="48" width="48" xmlns="http://www.w3.org/2000/svg" xmlns:xlink="http://www.w3.org/1999/xlink"><linearGradient id="a" gradientUnits="userSpaceOnUse" x1="35.972491" x2="43.794485" y1="36.729761" y2="43.933185"><stop offset="0" stop-color="#59f"/><stop offset="1" stop-color="#59f"/></linearGradient><linearGradient id="b" gradientUnits="userSpaceOnUse" x1="35.806943" x2="37.290214" y1="39.864843" y2="25.025538"><stop offset="0" stop-color="#80b3ff"/><stop offset="1" stop-color="#acf"/></linearGradient><linearGradient id="c" gradientUnits="userSpaceOnUse" x1="23.441276" x2="22.247825" y1="4.186982" y2="42.940265"><stop offset="0" stop-color="#59f"/><stop offset="1" stop-color="#06f"/></linearGradient><path d="m4.2873204 2.9777778c-1.0833778 0-1.9555556.8721778-1.9555556 1.9555555v.026736 39.0576387.02674c0 1.083374.8721778 1.955552 1.9555556 1.955552h39.1111116c1.083377 0 1.955555-.872178 1.955555-1.955556v-17.309722c.199097-1.476016.28731-3.052581.296007-4.699827.0012-.02497.000965-.04956.002-.07448.00045-.128889.01027-.250097.0096-.380034-.000375-.0679.0045-.130427.0038-.198611-.0018.0097-.004.01898-.0058.02865-.000927-.165123.0023-.331557-.0058-.494618v-15.9557325c.000007-1.0979008-.884384-1.9822917-1.982285-1.9822917h-.27309z" fill-opacity=".666667"/><path d="m4.287321 2h39.111109c1.083378 0 1.955556.872178 1.955556 1.955556v39.111109c0 1.083378-.872178 1.955556-1.955556 1.955556h-39.111109c-1.0833781 0-1.9555561-.872178-1.9555561-1.955556v-39.111109c0-1.083378.872178-1.955556 1.9555561-1.955556z" fill="url(#a)"/><path d="m4.3140565 2c-1.0979008 0-1.9822917.884391-1.9822917 1.9822917v39.0576383c0 1.097901.8843909 1.982292 1.9822917 1.982292h18.0831595c15.217331-1.100459 23.173758-8.998305 23.252778-23.965104.0069-.152402.01024-.303637.01146-.454513-.000374-.0679.0045-.130428.0038-.198612-.0019.01091-.0038.02156-.0057.03247-.001-.166378.0024-.334119-.0057-.498438v-15.9557333c-.00004-1.0979008-.884431-1.9822917-1.982332-1.9822917z" fill="url(#c)"/><path d="m22.397194 45.022222c7.082158-1.763948 10.262001-5.535669 13.016592-10.934729 7.313974-2.123707 9.183364-7.652642 10.252186-13.682852.156716 15.400467-7.826599 23.500861-23.268778 24.617581z" fill="url(#b)" fill-rule="evenodd" opacity=".9" stroke-width="1.220157"/><path d="m35.829326 17.190685-.990883-1.21037c-.408244-.498616-1.148429-.57242-1.650992-.164621l-12.692179 10.394223-5.442879-6.648514c-.408188-.498661-1.148424-.57247-1.650941-.164616l-1.21042.990879c-.498616.408243-.572421 1.148429-.164616 1.65094l7.173486 8.762405c.205875.251478.488766.397104.7872.426861.298436.02975.608412-.05675.85604-.263013l14.809912-12.124345c.511035-.414782.584455-1.151117.176272-1.649829z" fill="#d7eef4" opacity=".7"/></svg>