<svg height="48" width="48" xmlns="http://www.w3.org/2000/svg" xmlns:xlink="http://www.w3.org/1999/xlink"><linearGradient id="a" gradientUnits="userSpaceOnUse" x1="399.57144" x2="399.57144" y1="545.79797" y2="517.79797"><stop offset="0" stop-color="#3889e9"/><stop offset="1" stop-color="#5ea5fb"/></linearGradient><linearGradient id="b" gradientUnits="userSpaceOnUse" x1="1.205646682312" x2="46.808073882312" y1="27.589593500672" y2="27.589593500672"><stop offset="0" stop-color="#ececec"/><stop offset="1" stop-color="#fff"/></linearGradient><linearGradient id="c" gradientUnits="userSpaceOnUse" x1="23.945479734739" x2="24.192385887242" y1="13.740192557643" y2="1.387997157812"><stop offset="0" stop-color="#e6e6e6"/><stop offset="1" stop-color="#fff"/></linearGradient><circle cx="400.57138" cy="531.79791" fill="url(#a)" r="0" transform="matrix(1.555869863893 0 0 1.555869863893 -655.799252856041 -800.713588238068)"/><path d="m3.02977 1.853611h41.954231v9.120479h-41.954231z" fill="#ececec"/><path d="m3.02977 1.853611h41.954231v9.120479h-41.954231z" fill-opacity=".078431"/><path d="m4 20h8v-12l-8-8z" fill="#808080" fill-opacity=".260116" transform="matrix(.45359826 0 0 .36286428 1.215383 1.775958)"/><path d="m4 20h8v-12l-8-8z" fill="#666" fill-opacity=".260116" transform="matrix(-.44594015 0 0 .35714287 46.769011 1.869274)"/><path d="m6.671875 4.6660156-3.6425781 2.34375v2.3554688l2.5 1.6093746h10.9453121z" fill-opacity=".078431"/><path d="m46.80811 44.051588c0 1.62801-1.225338 2.948412-2.736145 2.948412h-40.1301385c-1.5108066 0-2.7361445-1.320402-2.7361445-2.948412v-35.8723084h45.602428z" fill="url(#b)"/><path d="m0 20 12-12v12z" fill="#b3b3b3" transform="matrix(-.44883399 0 0 .28887549 46.806409 2.402994)"/><path d="m1.2 8.1882966 5.4722891-3.5220387v3.5220387z" fill="#999"/><circle cx="33.67556" cy="13.565169" opacity=".3" r="2.09037"/><circle cx="14.034451" cy="13.815694" opacity=".3" r="2.09037"/><path d="m13.798114 12.38102c-.051348-5.5409181 4.399007-10.0749914 9.940345-10.1263594 5.541337-.0513471 10.074993 4.3990077 10.126357 9.9403534" style="clip-rule:evenodd;fill:none;stroke-width:2.508446;stroke-linecap:round;stroke-miterlimit:10;stroke:url(#c)"/><g fill-opacity=".85"><path d="m25.253016 33.648322c.176918 1.351099-.99119 2.018339-2.135166 1.147332-3.641768-2.772679 6.029765-4.155903 5.392252-7.943904-.529157-3.144255-10.176558-2.176239-11.275145 2.743592-.743632 3.327567 3.06099 7.944063 7.030864 7.944063 1.952973 0 4.205605-1.763429 4.627045-3.997362.321873-1.703498-3.787522-1.020916-3.63985.106279z"/><path d="m20.046311 24.495396c.997104-.203288 1.051761-4.293345-.726372-3.559622-1.778452.733884-.269931 3.763231.726372 3.559622z"/><path d="m17.686282 26.383004c.837605-.368698.107878-3.974987-1.316419-2.991469-1.423657.983678.478814 3.360009 1.316419 2.991469z"/><path d="m23.083649 23.5456c1.177697.07192 2.469824-4.494397.256347-4.207204-2.212676.287192-1.434524 4.135286-.256347 4.207204z"/><path d="m29.612365 18.639353c-3.931837 0-4.669396 5.600175-2.457518 5.600175 2.211559 0 6.389515-5.600175 2.457518-5.600175z"/></g></svg>