<svg height="48" width="48" xmlns="http://www.w3.org/2000/svg" xmlns:xlink="http://www.w3.org/1999/xlink"><linearGradient gradientUnits="userSpaceOnUse" x1="0" x2="47" y1="23.5" y2="23.5"><stop offset="0" stop-color="#a9a3d4"/><stop offset=".47001833" stop-color="#87baff"/><stop offset="1" stop-color="#89ec85"/></linearGradient><linearGradient id="a" gradientUnits="userSpaceOnUse" x1="480.884030966176" x2="546.511100499622" y1="543.21638294793" y2="542.931987094278"><stop offset="0" stop-color="#4e4e4f"/><stop offset=".49668527" stop-color="#3f3f40"/><stop offset="1" stop-color="#5a5a5c"/></linearGradient><linearGradient id="b" gradientUnits="userSpaceOnUse" x1="510.359434827923" x2="510.114983107168" y1="545.220999429427" y2="505.881827564038"><stop offset="0" stop-color="#363636"/><stop offset="1" stop-color="#656567"/></linearGradient><g stroke-width="1.317422" transform="matrix(1.000000004476 0 0 1.000000004476 -486.760340300875 -502.725834528142)"><path d="m487.85173 541.05658 45.82322.2132c.0514 2.28413.41362 5.90656-2.73572 5.81091h-40.69538c-2.59966.0233-2.26278-2.56263-2.39212-6.02411z" fill="url(#a)" fill-rule="evenodd"/><path d="m490.76042 545.09691h40.15076s2.97968.12141 2.8447-2.78682l-.0978-1.95035-1.57769-31.45716s-.2156-2.54322-2.81345-2.53345l-36.94854.14313c-2.75108-.16884-2.97601 2.49957-2.97601 2.49957l-1.49064 31.6786-.0762 1.61966c-.26332 3.4746 2.9849 2.78682 2.9849 2.78682z" fill="url(#b)" fill-rule="evenodd"/><g transform="translate(128.92377 -36.7713)"><path d="m365.42218 569.0977 7.36863-19.54049h2.83829l7.36863 19.54049h-2.78371l-1.8831-5.29449h-8.21465l-1.91038 5.29449zm5.54011-7.64153h6.49531l-3.19306-8.81507h-.10909l-3.19307 8.81507z" fill="#fff" fill-opacity=".856482"/><path d="m389.08281 569.53437q-2.12872 0-3.57516-1.2281-1.41913-1.22812-1.41913-3.24767 0-2.1833 1.69205-3.4114 1.69206-1.25539 4.17555-1.25539 2.2106 0 3.62973.81874v-.38208q0-1.47373-1.00976-2.34704-1.00979-.90062-2.48351-.90062-1.09165 0-1.99226.51854-.87332.51853-1.20082 1.41913l-2.29244-.98248q.46394-1.20081 1.8285-2.21058 1.36456-1.03707 3.60244-1.03707 2.56537 0 4.25742 1.50102 1.69206 1.50101 1.69206 4.23014v8.07819h-2.40163v-1.85579h-.10925q-1.50101 2.29246-4.39387 2.29246zm.40937-2.29246q1.55559 0 2.811-1.14624 1.28267-1.17353 1.28267-2.75641-1.06436-.87332-3.19307-.87332-1.8285 0-2.75641.79144-.9279.79145-.9279 1.85581 0 .98248.84602 1.55559.84604.57313 1.93769.57313z" fill="#fff" fill-opacity=".856482"/></g></g></svg>