<svg height="48" width="48" xmlns="http://www.w3.org/2000/svg" xmlns:xlink="http://www.w3.org/1999/xlink"><linearGradient id="a"><stop offset="0" stop-color="#b3b3b3"/><stop offset="1" stop-color="#fff"/></linearGradient><linearGradient id="b" gradientUnits="userSpaceOnUse" x1="408.571346661144" x2="408.571346661144" y1="546.798098036636" y2="500.798051636636"><stop offset="0" stop-color="#2a2c2f"/><stop offset="1" stop-color="#424649"/></linearGradient><linearGradient id="c" gradientUnits="userSpaceOnUse" x1="412.177806483712" x2="411.36190136009" xlink:href="#a" y1="529.713948610458" y2="508.094220282419"/><linearGradient id="d" gradientUnits="userSpaceOnUse" x1="408.571346661144" x2="408.571346661144" xlink:href="#a" y1="546.798098036636" y2="500.798051636636"/><linearGradient gradientUnits="userSpaceOnUse" x1="0" x2="47" y1="23.5" y2="23.5"><stop offset="0" stop-color="#a9a3d4"/><stop offset=".47001833" stop-color="#87baff"/><stop offset="1" stop-color="#89ec85"/></linearGradient><linearGradient id="e" gradientTransform="matrix(1.0485199 0 0 -1.0485199 -20.062017 1077.2645)" gradientUnits="userSpaceOnUse" x1="400.21506" x2="400.21506" xlink:href="#a" y1="516.41034" y2="541.20715"/><g transform="matrix(.95833333 0 0 .95833333 -367.54763 -477.973085)"><rect fill="url(#b)" height="46" ry="23" width="46" x="385.57144" y="500.798"/><path d="m27.705078 8.5175781c.20654.20651.311419.50443.261719.8125l-2.111328 13.1093749c.30767.40112.506812.881493.570312 1.408203l15.085938 15.085938c2.699858-3.166182 4.556913-7.075316 5.21875-11.390625zm-6.191406 17.7246099 16.226562 16.226562c1.380242-1.026644 2.635911-2.208207 3.751954-3.513672l-8.00586-8.005859c-.205084.315899-.611272.424914-.949219.265625l-.08594-.08594-8.039063-4.177734c-.27055.08372-.551759.140625-.849609.140625-.79898 0-1.524108-.324899-2.048828-.849609z" fill-opacity=".078431" transform="translate(384.57143 499.798)"/><path d="m411.04033 523.82005c-.0635-.52672-.26365-1.00708-.57132-1.4082l2.11232-13.10924c.0787-.48776-.23428-.9528-.71558-1.06398l-.0237-.005c-.48129-.11132-.96632.16974-1.10954.64255l-3.84809 12.70827c-.94832.47684-1.60662 1.44885-1.60662 2.58091 0 1.59844 1.29982 2.89904 2.89818 2.89904.29785 0 .57951-.0582.85006-.14191l8.03911 4.17771c.4423.22977.98673.0863 1.25815-.33178l.0115-.0184c.2715-.41791.18124-.97374-.20884-1.28424zm-4.29579.34496c0-.78925.64239-1.43162 1.43161-1.43162.78994 0 1.43231.64237 1.43231 1.43162 0 .78982-.64237 1.4323-1.43231 1.4323-.78922 0-1.43161-.64239-1.43161-1.4323z" fill="url(#c)"/><path d="m401.32946 537.86334c-.1125 0-.18175-.0551-.20888-.16384-.0505-.19393-.10591-.55368-.16793-1.08128-.18233-.0583-.35969-.13196-.53041-.22118l-.80277.62256c-.0505.0388-.10114.0574-.15155.0574-.0853 0-.26755-.1383-.54883-.41572-.28126-.27741-.47247-.48498-.57341-.62461-.0349-.0505-.0533-.0964-.0533-.13515 0-.0466.0206-.0927.0593-.13926.2599-.31427.46735-.58158.62255-.80279-.097-.17841-.17305-.35812-.22731-.53654l-1.08333-.16178c-.0426-.008-.0795-.0331-.1106-.0758-.0311-.0426-.045-.0866-.045-.13311v-1.03829h-1.61169c-.15704 0-.25292-.0756-.2908-.22731-.0704-.2707-.14888-.77484-.23551-1.51135-.25453-.0813-.501-.18468-.73929-.30923l-1.12224.87036c-.0704.0541-.14053.0799-.21093.0799-.11914 0-.37533-.19231-.76797-.57955-.39262-.38725-.65778-.67953-.79868-.87444-.0487-.0704-.0737-.13224-.0737-.18637 0-.065.0278-.12964.0819-.19454.36282-.43869.65164-.81141.8683-1.1202-.13541-.24906-.24166-.49842-.31742-.74747l-1.5093-.22733c-.0595-.0109-.11226-.0469-.15564-.10644-.0433-.0595-.0655-.12146-.0655-.18636v-1.80419c0-.0705.0222-.13363.0655-.19045.0434-.057.10168-.0916.17203-.10244l1.48472-.21913c.0757-.2653.18754-.53208.3338-.80278-.0974-.13538-.24333-.32694-.43825-.5734-.19493-.24646-.33251-.42687-.41367-.54065-.0434-.0598-.0655-.12134-.0655-.18635 0-.0705.0195-.1322.0574-.18636.21118-.29253.65697-.74867 1.33934-1.36594.0598-.0598.12696-.088.20274-.088.0812 0 .14859.0231.20274.0717l1.14681.87035c.22216-.11378.4658-.21431.73109-.30104l.22733-1.49496c.005-.0704.0353-.12801.0922-.17407.0568-.0462.12492-.0696.20069-.0696h1.80215c.15724 0 .25486.0756.29284.22732.0704.2708.14886.77483.2355 1.51134.25456.0812.50112.1847.7393.30924l1.1202-.87855c.0757-.0487.14601-.0717.21093-.0717.11903 0 .37402.19089.76386.57544.39005.38445.65877.67815.80481.87855.0487.0541.0738.11598.0738.18636 0 .0704-.0277.13794-.0819.20275-.38984.47657-.68072.85144-.87035 1.12224.10828.20039.21452.44686.31743.73928l1.50314.22733c.065.0108.11854.0448.16179.10439.0432.0597.0655.12145.0655.18634v1.80419c.0001.0704-.022.13352-.0655.19046-.0434.057-.0996.0916-.16998.10244l-1.48677.22732c-.0812.25993-.19302.5238-.3338.79458.0291.0405.0932.12159.13106.17202l.009-.0492c.004-.0505.027-.0919.0677-.12492.0407-.0331.0871-.0492.14129-.0492h1.29222c.11265 0 .18372.0551.21094.16382.0505.19401.1059.55369.16793 1.0813.18235.0582.35978.13196.5304.22117l.80278-.6287c.0543-.0349.10503-.0511.15154-.0511.0852 0 .26751.13818.54678.41367.27941.2754.47083.48309.57546.62666.0349.0388.0512.0847.0512.13516 0 .0505-.0185.099-.0574.1454-.27927.34141-.48671.60877-.62256.80276.0776.14356.15362.32093.22733.53041l1.07513.16179c.0466.008.0858.0331.11674.0758.031.0428.0471.0866.0471.13311v1.29222c.00008.0505-.0159.0965-.0471.1372-.0312.0408-.0705.066-.12083.0738l-1.0649.16179c-.0582.1862-.13875.37738-.23961.57136.0699.097.17573.23303.31538.40957.13964.17658.23669.30558.29489.38706.0312.0428.0471.0865.0471.13312 0 .0543-.0139.0979-.041.12901-.13963.19793-.45998.52742-.96046.98912-.0464.0388-.095.0574-.14539.0574-.0582 0-.10428-.0162-.13927-.0512l-.8253-.62255c-.15911.0814-.3342.15297-.52425.21503l-.16384 1.07106c-.004.0505-.0248.0919-.0655.12491-.0408.033-.0889.0492-.14335.0492h-1.29221zm.64714-2.97968c.41125 0 .76169-.1453 1.05261-.4362.29092-.291.4362-.64136.4362-1.05263 0-.41125-.14528-.76376-.4362-1.05465-.29092-.29099-.64136-.4362-1.05261-.4362-.41127 0-.76369.14521-1.05467.4362-.29091.29089-.4362.6434-.4362 1.05465 0 .41127.1452.76163.4362 1.05263.29098.2909.64346.4362 1.05467.4362zm-3.9422-2.38785.70653-.10243c.0543-.19007.13277-.38361.23756-.57752-.0698-.097-.17369-.23302-.31333-.40957-.0862-.10896-.12711-.16689-.18227-.23962-.0897.0347-.16693.0775-.26213.10855l-.18636 1.22054zm-1.23487-3.64114c.57408 0 1.06428-.20214 1.47037-.60822.4061-.4062.60823-.8963.60823-1.4704 0-.57408-.20213-1.06431-.60823-1.47038-.40609-.40619-.89629-.61026-1.47037-.61026s-1.0642.20407-1.47038.61026c-.40609.40607-.61028.8963-.61028 1.47038 0 .5741.20407 1.0642.61028 1.4704.40618.40608.89639.60822 1.47038.60822z" fill="url(#e)" stroke-width="1.317422"/><rect fill="none" height="46" ry="23" stroke="url(#d)" stroke-width="2" width="46" x="385.57144" y="500.798"/></g></svg>