<svg height="48" width="48" xmlns="http://www.w3.org/2000/svg" xmlns:xlink="http://www.w3.org/1999/xlink"><linearGradient id="a" gradientUnits="userSpaceOnUse" x1="386.571431" x2="437.094071" y1="524.446076" y2="524.446076"><stop offset="0" stop-color="#d3d3d3"/><stop offset="1" stop-color="#fcf9f9"/></linearGradient><g transform="translate(-384.57143 -499.798)"><rect fill="url(#a)" height="44" rx="2" width="44" x="386.57144" y="501.798"/><path d="m392.55844 505.79773c-1.09753 0-1.98701.88948-1.98701 1.98701v32.02625c0 1.09725.88934 1.98701 1.98701 1.98701h17.24167v-13.94126h-4.69128v-5.43311h4.69128v-4.00676c0-4.6498 2.83992-7.18194 6.98796-7.18194 1.98693 0 3.69472.14796 4.19228.21417v4.85963l-2.87697.001c-2.25569 0-2.69255 1.07205-2.69255 2.64508v3.46874h5.38018l-.70062 5.4331h-4.67956v13.94127h9.17386c1.09711 0 1.98674-.88962 1.98674-1.98701v-32.02625c0-1.09753-.88949-1.98701-1.98674-1.98701h-32.02625z" fill="#3c5a99"/></g></svg>