<svg height="48" width="48" xmlns="http://www.w3.org/2000/svg" xmlns:xlink="http://www.w3.org/1999/xlink"><linearGradient id="a"><stop offset="0" stop-color="#d3d3d3"/><stop offset="1" stop-color="#fcf9f9"/></linearGradient><linearGradient id="b"><stop offset="0" stop-color="#3889e9"/><stop offset="1" stop-color="#5ea5fb"/></linearGradient><linearGradient id="c" gradientTransform="matrix(2.5791466 0 0 2.5791468 -691.90567 -847.86168)" gradientUnits="userSpaceOnUse" x1="399.57144" x2="399.57144" xlink:href="#b" y1="545.79797" y2="517.79797"/><linearGradient id="d" gradientTransform="matrix(1.5750835 0 0 1.5750837 -222.38723 -313.989)" gradientUnits="userSpaceOnUse" x1="399.57144" x2="399.57144" xlink:href="#b" y1="545.79797" y2="517.79797"/><linearGradient gradientUnits="userSpaceOnUse" x1="-254.42256" x2="-119.54357" xlink:href="#a" y1="1033.0268" y2="1033.0268"/><linearGradient id="e" gradientUnits="userSpaceOnUse" x1="-254.42256" x2="-119.54357" y1="1033.0269" y2="1033.0269"><stop offset="0" stop-color="#eaeaea"/><stop offset="1" stop-color="#fcf9f9"/></linearGradient><linearGradient id="f" gradientTransform="matrix(1.5750835 0 0 1.5750837 -222.38723 -313.989)" gradientUnits="userSpaceOnUse" x1="408.43881" x2="408.55585" xlink:href="#a" y1="547.21936" y2="500.61078"/><linearGradient id="g" gradientTransform="matrix(1.6433716 0 0 1.6433718 -249.71619 -350.14368)" gradientUnits="userSpaceOnUse" x1="408.43881" x2="408.55585" xlink:href="#a" y1="547.21936" y2="500.61078"/><linearGradient id="h" gradientTransform="matrix(2.5791466 0 0 2.5791468 -691.90567 -847.86168)" gradientUnits="userSpaceOnUse" x1="408.43881" x2="408.55585" xlink:href="#a" y1="547.21936" y2="500.61078"/><g transform="translate(-384.57143 -499.798)"><circle cx="408.54614" cy="523.63721" fill="url(#d)" r="0" stroke="url(#f)" stroke-width="6.300334"/><ellipse cx="408.57144" cy="523.79797" fill="#1d2d44" rx="23.007132" ry="23.007135" stroke="url(#g)" stroke-width="1.985735"/><circle cx="341.22665" cy="523.72321" fill="url(#c)" r="0" stroke="url(#h)" stroke-width="10.316586"/><g fill="url(#e)" stroke="#1d2d44" stroke-width="2" transform="matrix(.28633582 0 0 .28633582 462.41676 226.14423)"><circle cx="-216.16006" cy="1014.9605" r="10.166"/><circle cx="-234.80156" cy="1050.2936" r="18.621"/><circle cx="-213.79456" cy="1037.9031" r="20.130501"/><circle cx="-172.74007" cy="1029.7411" r="18.621"/><circle cx="-193.16057" cy="1015.257" r="18.620501"/><circle cx="-131.19357" cy="1057.484" r="10.65"/><circle cx="-153.82558" cy="1049.2865" r="20.130501"/><circle cx="-215.02606" cy="1058.5105" r="10.6495"/><path d="m-161.35357 1043.3395c0 14.174-11.492 25.664-25.667 25.664s-25.6665-11.49-25.6665-25.664c0-14.1755 11.492-25.6665 25.6665-25.6665s25.667 11.491 25.667 25.6665z"/></g></g></svg>