<svg viewBox="0 0 48 48" xmlns="http://www.w3.org/2000/svg" xmlns:xlink="http://www.w3.org/1999/xlink">
  <linearGradient id="a" gradientUnits="userSpaceOnUse" x1="-3.2719" x2="10.501" y1="12.834" y2="39.025">
    <stop offset="0" stop-color="#078efc" />
    <stop offset="1" stop-color="#bb4efc" />
  </linearGradient>
  <linearGradient id="b" gradientUnits="userSpaceOnUse" x1="11.661" x2="10.416" y1="56.928" y2="32.881">
    <stop offset="0" stop-color="#cdd0d1" />
    <stop offset="1" stop-color="#f6f6f7" />
  </linearGradient>
  <linearGradient id="c" gradientUnits="userSpaceOnUse" x1="14.428" x2="5.5058" y1="47.468" y2="39.642">
    <stop offset="0" stop-color="#16a085" />
    <stop offset="1" stop-color="#2dcb72" />
  </linearGradient>
  <filter id="d" color-interpolation-filters="sRGB">
    <feColorMatrix values="0.21 0.72 0.072 0 0 0.21 0.72 0.072 0 0 0.21 0.72 0.072 0 0 0 0 0 1 0" />
  </filter>
  <linearGradient id="e" gradientUnits="userSpaceOnUse" x1="-36.27" x2="-9.4046" xlink:href="#c" y1="51.897" y2="7.4571">
    <stop offset="0" stop-color="#078efc" />
    <stop offset="1" stop-color="#3bea62" />
  </linearGradient>
  <rect fill="url(#a)" height="37.355" ry="1.5438" transform="matrix(.69650313305 -.01197957733 .01197957733 .69650313305 29.521 1.1477)" width="49.64" x="-33.839" y="8.5719" />
  <rect fill="url(#e)" height="37.355" ry="1.5438" transform="matrix(.68683993838 -.11623696061 .11623696061 .68683993838 29.521 1.1477)" width="49.64" x="-42.624" y="13.685" />
  <circle cx="11.184" cy="45.123" fill="url(#b)" filter="url(#d)" r="12.349" transform="matrix(.5434265772 -.00748957196 .00748957196 .5434265772 31.4204057216 8.45190815638)" />
  <path d="m14.428 47.271-8.9227.19628 4.2914-7.8254z" fill="url(#c)" filter="url(#d)" transform="matrix(-.00093057672 .63222900923 -.63222900923 -.00093057672 65.783115376 26.6477415092)" />
  <path d="m18.414 17.201c-.22806.01058-.4548.04064-.67773.08984-2.1622.47491-3.5294 2.6135-3.0527 4.7754.47582 2.1614 2.6142 3.5275 4.7754 3.0508 2.1605-.47585 3.5263-2.6129 3.0508-4.7734-.41834-1.9048-2.1475-3.2316-4.0957-3.1426zm-7.1702 1.4987c-.26854-.0022-.56836.03394-1.0137.09766-2.8963.5527-3.7279 2.9587-3.3301 4.8516.51733 2.3091 1.8107 2.8093 3.2969 2.998 1.8522.01691 3.1373-.57368 4.2969-1.8262l-.36914-1.6816-.37109-1.6816-1.6191.35547-1.6191.35742.16602.74805.16406.74805 1.4941-.31641.12305.54492c.07868.35752.03865.48095-.23047.69141-.43979.34392-1.4957.56072-2.0312.41797-1.6335-.43542-2.199-2.8097-.94531-3.9668.61559-.56814 1.587-.66842 2.6855-.28125.30945.10906.34852.07973.69531-.55273.48059-.87649.3875-1.1001-.57031-1.3711-.31664-.08959-.55373-.13065-.82226-.13281zm7.3558.23178c1.0848-.01816 2.0318.73116 2.2637 1.791.26933 1.2286-.50791 2.4429-1.7363 2.7129-1.2286.27065-2.444-.50581-2.7148-1.7344-.27188-1.2293.50488-2.446 1.7344-2.7168.1489-.03269.3007-.05036.45312-.05273zm-3.0882 12.063-6.8262 1.3125.21289.9707 6.8027-1.3457z" fill="#fff" stroke-width=".69661" transform="matrix(1.00000342884 .0000000979 -.0000000979 1.00000342884 -.00028211374 .0000810276)" />
</svg>
