<svg height="48" width="48" xmlns="http://www.w3.org/2000/svg" xmlns:xlink="http://www.w3.org/1999/xlink"><linearGradient id="a" gradientTransform="matrix(.47905294 0 0 .48334284 385.58708 500.39691)" gradientUnits="userSpaceOnUse" spreadMethod="pad" x1="24.888578" x2="46.545601" y1="76.079758" y2="65.251244"><stop offset="0" stop-color="#32a071"/><stop offset="1" stop-color="#00f076"/></linearGradient><linearGradient id="b" gradientTransform="matrix(.47905294 0 0 .48334284 385.58234 500.79321)" gradientUnits="userSpaceOnUse" x1="73.616875" x2="71.007561" xlink:href="#g" y1="95.872185" y2="4.147007"/><linearGradient id="c" gradientTransform="matrix(.47905294 0 0 .48334284 385.57736 500.79815)" gradientUnits="userSpaceOnUse" spreadMethod="pad" x1="53.740494" x2="53.851391" y1="13.396761" y2="94.399582"><stop offset="0" stop-color="#ff3a44"/><stop offset="1" stop-color="#c31162"/></linearGradient><linearGradient id="d" gradientTransform="matrix(.47905294 0 0 .48334284 385.57143 500.78954)" gradientUnits="userSpaceOnUse" spreadMethod="pad" x1="36.891426" x2="37.935154" y1=".785004" y2="94.2286"><stop offset="0" stop-color="#ffe000"/><stop offset="1" stop-color="#ff9c00"/></linearGradient><clipPath id="e"><path d="m24.480469 1c-.26346 0-.480469.218585-.480469.484375v22.314453h-.0059v-11.689453h-11.976563l-10.8730058 11.255859c-.0910999.0865-.1445312.2083-.1445312.34375 0 .26579.2150256.482422.4785156.482422h10.5546874v11.691406l8.810547 8.664063 2.347656 2.308594c.0862.0927.205714.144531.339844.144531.26349 0 .478516-.218425.478516-.484375v-10.236328h11.972656l10.873047-11.257813c.0911-.0865.144531-.206507.144531-.341796 0-.26595-.215026-.484376-.478516-.484376h-10.544922v-12.078124l-11.15625-10.9726568c-.0862-.0926999-.205693-.1445312-.339843-.1445312z"/></clipPath><linearGradient id="f" gradientTransform="matrix(.47905294 0 0 .48334284 1.01091 .99521)" gradientUnits="userSpaceOnUse" x1="73.616875" x2="73.616875" y1="73.372627" y2="46.30135"><stop offset="0" stop-color="#0976da"/><stop offset="1" stop-color="#5de5f0"/></linearGradient><linearGradient id="g"><stop offset="0" stop-color="#3889e9"/><stop offset="1" stop-color="#5ea5fb"/></linearGradient><linearGradient id="h" gradientUnits="userSpaceOnUse" x1="399.57144" x2="399.57144" xlink:href="#g" y1="545.79797" y2="517.79797"/><g transform="translate(-384.57143 -499.798)"><g stroke-width="1.317422"><path d="m431.42771 524.82025c.0911-.0865.14372-.20788.14372-.34317 0-.26595-.21558-.48341-.47907-.48341h-22.51548v12.08364h11.97632z" fill="url(#b)"/><path d="m407.76244 546.65282c.0862.0927.20599.14518.34012.14518.26349 0 .47907-.21746.47907-.48341v-12.87625-9.84082h-11.97633v12.08365l8.80979 8.66349z" fill="url(#a)"/><path d="m385.71515 523.16357c-.0911.0865-.14372.20773-.14372.34318 0 .26579.21558.48325.47907.48325h22.51548v-12.08349h-11.97634z" fill="url(#d)"/><path d="m409.39109 500.94317c-.0862-.0927-.20599-.14517-.34014-.14517-.26346 0-.47904.21761-.47904.4834v22.71706h11.97632v-12.08349l-11.15714-10.97195z" fill="url(#c)"/></g><circle cx="400.57138" cy="531.79791" fill="url(#h)" r="0" transform="matrix(1.637466540969 0 0 1.637466540969 -312.88376066624 -361.623435836084)"/><path clip-path="url(#e)" d="m24 19.361328-1.4375 3.382813-3.353516 1.451171 4.791016 4.832032 12.146484 12.255859 4.791016 4.833985 1.435547-3.382813 3.353515-1.451172-4.789062-4.833984z" fill-opacity=".078431" stroke-width="1.317422" transform="translate(384.57143 499.798)"/><path d="m403.78052 523.9927 3.35337-1.45003 1.43716-3.3834 1.43716 3.3834 3.35337 1.45003-3.35337 1.45002-1.43716 3.3834-1.43716-3.3834z" fill="#eaf0ff" stroke-width="1.317422"/></g></svg>