<svg height="48" width="48" xmlns="http://www.w3.org/2000/svg" xmlns:xlink="http://www.w3.org/1999/xlink"><linearGradient id="a" gradientTransform="matrix(.26231459 0 0 .26155514 -44.879062 141.03167)" gradientUnits="userSpaceOnUse" x1="371.47604" x2="371.47604" y1="473.93784" y2="253.9286"><stop offset="0" stop-color="#cdd7dc"/><stop offset="1" stop-color="#ecf0f3"/></linearGradient><linearGradient gradientUnits="userSpaceOnUse" x1="0" x2="459" y1="229.4995" y2="229.4995"><stop offset="0" stop-color="#e3203a"/><stop offset="1" stop-color="#fd5420"/></linearGradient><linearGradient id="b" gradientUnits="userSpaceOnUse" x1="18.60014" x2="20.03328" y1="261.261087" y2="155.588167"><stop offset="0" stop-color="#8347a1"/><stop offset="1" stop-color="#b768d6"/></linearGradient><rect fill="url(#b)" height="110.05058" ry="8.629757" transform="matrix(.407803211756 .000000001841 .00000000198 .408987284887 13.352109677682 -62.674209266369)" width="110.71331" x="-31.272705" y="154.67915"/><g fill="#e7ecf0" stroke="#e7ecf0" transform="matrix(.358700046292 -.000273114242 .000272323309 .359741546397 13.999880098079 -52.191802376262)"><g transform="translate(13.563732 99.752249)"><ellipse cx="-19.113722" cy="136.58519" fill="#e7ecf0" rx="5.635648" ry="5.609696" stroke="#e7ecf0" stroke-linecap="round" stroke-linejoin="round" stroke-width="6.65674" transform="matrix(.99999971 .00075919 -.00075919 .99999971 0 0)"/><rect fill="#e7ecf0" height="8.775607" ry="4.387804" stroke="#e7ecf0" stroke-linecap="round" stroke-linejoin="round" stroke-width="6.393595" transform="matrix(.99999971 .00075919 -.00075919 .99999971 0 0)" width="52.073101" x="-3.611648" y="132.08824"/></g><g transform="translate(13.583728 73.413797)"><ellipse cx="-19.113722" cy="136.58519" fill="#e7ecf0" rx="5.635648" ry="5.609696" stroke="#e7ecf0" stroke-linecap="round" stroke-linejoin="round" stroke-width="6.65674" transform="matrix(.99999971 .00075919 -.00075919 .99999971 0 0)"/><rect fill="#e7ecf0" height="8.775607" ry="4.387804" stroke="#e7ecf0" stroke-linecap="round" stroke-linejoin="round" stroke-width="6.393595" transform="matrix(.99999971 .00075919 -.00075919 .99999971 0 0)" width="52.073101" x="-3.611648" y="132.08824"/></g><g transform="translate(13.606012 45.745155)"><ellipse cx="-19.113722" cy="136.58519" fill="#e7ecf0" rx="5.635648" ry="5.609696" stroke="#e7ecf0" stroke-linecap="round" stroke-linejoin="round" stroke-width="6.65674" transform="matrix(.99999971 .00075919 -.00075919 .99999971 0 0)"/><rect fill="#e7ecf0" height="8.775607" ry="4.387804" stroke="#e7ecf0" stroke-linecap="round" stroke-linejoin="round" stroke-width="6.393595" transform="matrix(.99999971 .00075919 -.00075919 .99999971 0 0)" width="52.073101" x="-3.611648" y="132.08824"/></g></g><ellipse cx="51.669277" cy="236.94432" fill="url(#a)" rx="32.309681" ry="32.216141" transform="matrix(.407803211756 .000000001841 .00000000198 .408987284887 13.352109677682 -62.674209266369)"/><path d="m0 362.1v96.9h96.9l280.5-283.05-96.9-96.9zm451.35-260.1c10.2-10.2 10.2-25.5 0-35.7l-58.65-58.651c-10.2-10.2-25.5-10.2-35.7 0l-45.9 45.9 96.9 96.9z" fill="#9754b6" transform="matrix(.032050372932 .000000001122 .000000001821 .032050375581 27.40429498761 27.36109139954)"/></svg>