<svg height="48" width="48" xmlns="http://www.w3.org/2000/svg" xmlns:xlink="http://www.w3.org/1999/xlink"><linearGradient id="a" gradientTransform="matrix(.85244295 0 0 .9351562 88.74066 -1.50915)" gradientUnits="userSpaceOnUse" x1="-74.929466" x2="-75.259552" y1="52.199436" y2="2.356489"><stop offset="0" stop-color="#276ad6"/><stop offset="1" stop-color="#41aaff"/></linearGradient><linearGradient id="b" gradientTransform="matrix(-.69130201 0 0 -.75837962 304.39438 418.34651)" gradientUnits="userSpaceOnUse" x1="391.29813" x2="386.59229" y1="556.10773" y2="528.29919"><stop offset="0" stop-color="#acf"/><stop offset="1" stop-color="#41aaff"/></linearGradient><path d="m9.2713745.00000415h30.3482725c1.258335 0 2.271363 1.01302795 2.271363 2.27136305v43.4572738c0 1.258335-1.013028 2.271363-2.271363 2.271363h-30.3482725c-1.2583351 0-2.2713631-1.013028-2.2713631-2.271363v-43.4572738c0-1.2583351 1.013028-2.27136305 2.2713631-2.27136305z" fill="url(#a)"/><g fill="#f3f3f3" transform="matrix(1.3038347 0 0 1 -507.65973 -498.85866)"><path d="m401.06277 515.68124h14.53584c.22257 0 .40177.12477.40177.27976v1.44048c0 .15498-.1792.27976-.40177.27976h-14.53584c-.22258 0-.40176-.12478-.40176-.27976v-1.44048c0-.15499.17918-.27976.40176-.27976z"/><path d="m401.07913 520.1133h14.53584c.22258 0 .40177.12477.40177.27976v1.44048c0 .15499-.17919.27976-.40177.27976h-14.53584c-.22258 0-.40176-.12477-.40176-.27976v-1.44048c0-.15499.17918-.27976.40176-.27976z"/><path d="m401.10316 524.32375h14.53583c.22257 0 .40177.12477.40177.27976v1.44048c0 .15499-.1792.27976-.40177.27976h-14.53583c-.22259 0-.40177-.12477-.40177-.27976v-1.44048c0-.15499.17918-.27976.40177-.27976z"/><path d="m401.02626 528.69289h10.02342c.19782 0 .35707.12477.35707.27976v1.44048c0 .15499-.15925.27976-.35707.27976h-10.02342c-.19782 0-.35707-.12477-.35707-.27976v-1.44048c0-.15499.15925-.27976.35707-.27976z"/></g><path d="m28.447266.00976563c.5624 3.38394997 1.140716 6.60196937 1.066406 9.81835937-.0113.48932.178166.904982.492187 1.216797l10.745871 10.670396s-.52691-.0659 0 0l.129129-10.381334z" fill-opacity=".078431" transform="translate(.99999)"/><path d="m41.88039 11.61164c-.0816-1.18672-8.30099-11.07769-13.11884-11.60269 1.18863 3.38395 1.82666 6.73621 1.75235 9.9526-.0236 1.02019.82953 1.71536 1.8421 1.84209 3.62778.45405 6.3514-.24211 9.52439-.192z" fill="url(#b)"/></svg>