<svg viewBox="0 0 48 48" xmlns="http://www.w3.org/2000/svg" xmlns:xlink="http://www.w3.org/1999/xlink"><linearGradient id="a" gradientUnits="userSpaceOnUse" x1="399.9939" x2="399.9939" y1="545.13873" y2="518.13873"><stop offset="0" stop-color="#e52823"/><stop offset="1" stop-color="#ff3a2f"/></linearGradient><linearGradient id="b" gradientUnits="userSpaceOnUse" x1="399.57144" x2="399.57144" y1="545.79797" y2="517.79797"><stop offset="0" stop-color="#3889e9"/><stop offset="1" stop-color="#5ea5fb"/></linearGradient><g fill="#fff" fill-opacity=".852041" transform="matrix(1.64285850568 0 0 1.64285850568 -634.121588467032 -849.794333041499)"><g stroke-width="1.3" transform="translate(.024008 .076424)"><circle cx="400.57138" cy="531.79791" fill="url(#a)" fill-opacity="1" r="13.999958"/><circle cx="400.57144" cy="531.79797" fill="none" r="13.999958"/><circle cx="400.57138" cy="531.79791" fill="url(#b)" fill-opacity="1" r="0"/></g><path d="m324.46375 540.83843q0 2.0625-1.22375 3.28625-1.38875 1.4575-3.61625 1.4575-2.13125 0-3.63-1.47125-1.485-1.485-1.485-3.67125 0-2.18625 1.485-3.6575 1.49875-1.485 3.63-1.485 1.05875 0 2.02125.4125.9625.4125 1.54 1.1l-.86625.86625q-.97625-1.16875-2.695-1.16875-1.55375 0-2.695 1.1-1.1275 1.08625-1.1275 2.8325 0 1.74625 1.1275 2.84625 1.14125 1.08625 2.695 1.08625 1.65 0 2.75-1.1.715-.715.825-1.99375h-3.575v-1.1825h4.77125q.0688.385.0688.7425z" fill="#fee1de" fill-opacity="1" stroke="#fee0de" stroke-width=".7" transform="matrix(1.551521540431 0 0 1.551521540431 -95.09441657096 -306.629435620656)"/></g></svg>