<svg height="48" width="48" xmlns="http://www.w3.org/2000/svg" xmlns:xlink="http://www.w3.org/1999/xlink"><linearGradient id="a" gradientTransform="matrix(.26231459 0 0 .26155514 -44.879062 141.03167)" gradientUnits="userSpaceOnUse" x1="371.47604" x2="371.47604" y1="473.93784" y2="253.9286"><stop offset="0" stop-color="#cdd7dc"/><stop offset="1" stop-color="#ecf0f3"/></linearGradient><linearGradient id="b" gradientUnits="userSpaceOnUse" x1="18.60014" x2="20.03328" y1="261.261087" y2="155.588167"><stop offset="0" stop-color="#8347a1"/><stop offset="1" stop-color="#b768d6"/></linearGradient><rect fill="url(#b)" height="110.05058" ry="8.629757" transform="matrix(.40780321 0 0 .40898728 13.35211 -62.674209)" width="110.71331" x="-31.272705" y="154.67915"/><g fill="#e7ecf0" stroke="#e7ecf0" stroke-linecap="round" stroke-linejoin="round" transform="matrix(.35870005 -.00027311 .00027232 .35974155 13.99988 -52.191802)"><ellipse cx="-19.113722" cy="136.58519" rx="5.635648" ry="5.609696" stroke-width="6.65674" transform="matrix(.99999971 .00075919 -.00075919 .99999971 13.563732 99.752249)"/><rect height="8.775607" ry="4.387804" stroke-width="6.393595" transform="matrix(.99999971 .00075919 -.00075919 .99999971 13.563732 99.752249)" width="52.073101" x="-3.611648" y="132.08824"/><ellipse cx="-19.113722" cy="136.58519" rx="5.635648" ry="5.609696" stroke-width="6.65674" transform="matrix(.99999971 .00075919 -.00075919 .99999971 13.583728 73.413797)"/><rect height="8.775607" ry="4.387804" stroke-width="6.393595" transform="matrix(.99999971 .00075919 -.00075919 .99999971 13.583728 73.413797)" width="52.073101" x="-3.611648" y="132.08824"/><g transform="matrix(.99999971 .00075919 -.00075919 .99999971 13.606012 45.745155)"><ellipse cx="-19.113722" cy="136.58519" rx="5.635648" ry="5.609696" stroke-width="6.65674"/><rect height="8.775607" ry="4.387804" stroke-width="6.393595" width="52.073101" x="-3.611648" y="132.08824"/></g></g><ellipse cx="51.669277" cy="236.94432" fill="url(#a)" rx="32.309681" ry="32.216141" transform="matrix(.40780321 0 0 .40898728 13.35211 -62.674209)"/><path d="m0 362.1v96.9h96.9l280.5-283.05-96.9-96.9zm451.35-260.1c10.2-10.2 10.2-25.5 0-35.7l-58.65-58.651c-10.2-10.2-25.5-10.2-35.7 0l-45.9 45.9 96.9 96.9z" fill="#9754b6" transform="matrix(.03205037 0 0 .03205038 27.404295 27.361091)"/></svg>