<svg height="48" width="48" xmlns="http://www.w3.org/2000/svg" xmlns:xlink="http://www.w3.org/1999/xlink"><clipPath id="a"><path d="m23 12c0 6.1-4.9 11-11 11s-11-4.9-11-11 4.9-11 11-11 11 4.9 11 11z"/></clipPath><linearGradient id="b" gradientTransform="matrix(1.1000003 0 0 1.0992529 -425.42871 -551.7715)" gradientUnits="userSpaceOnUse" x1="11.635497" x2="11.230096" y1="23.040079" y2="1.148391"><stop offset="0" stop-color="#0d5ec2"/><stop offset="1" stop-color="#38b2fa"/></linearGradient><linearGradient id="c" gradientUnits="userSpaceOnUse" x1="13.437283" x2="12.671524" y1="19.076153" y2="1.103347"><stop offset="0" stop-color="#2a7fff"/><stop offset="1" stop-color="#80b3ff"/></linearGradient><linearGradient id="d" gradientUnits="userSpaceOnUse" x1="19.968754" x2="19.067862" y1="12.409548" y2="3.08531"><stop offset="0" stop-color="#acf"/><stop offset="1" stop-color="#afc6e9"/></linearGradient><linearGradient id="e" gradientUnits="userSpaceOnUse" x1="20.869646" x2="20.193975" y1="8.760933" y2="1.193436"><stop offset="0" stop-color="#d5e5ff"/><stop offset="1" stop-color="#ebebeb"/></linearGradient><linearGradient id="f" gradientUnits="userSpaceOnUse" x1="35.162776" x2="32.640278" y1="32.47668" y2="2.47696"><stop offset="0" stop-color="#80b3ff"/><stop offset="1" stop-color="#80b3ff"/></linearGradient><path d="m45.793932 38.186244-14.05229 4.845801-6.512854-8.779349 14.05229-4.845801z" fill="#1a1a1a" stroke-width=".976468"/><path d="m46 24.000001c0 12.199999-9.799999 21.999999-22 21.999999-12.199999 0-22-9.8-22-21.999999 0-12.200001 9.800001-22.0000014 22-22.0000014 12.200001 0 22 9.8000004 22 22.0000014z" fill="url(#f)" stroke-width="2"/><path clip-path="url(#a)" d="m1 12c .3-4.6 5.8-7.7 11 .2 4.5 6.9 10.1 5 10.9 1.3v9.5h-21.9z" fill="url(#c)" transform="scale(2)"/><path clip-path="url(#a)" d="m23 11.5c-1.5 1.6-4.5 2.2-7.6-2.7-3.8-6.4-7.9-7.3-11.9-3.8v-4h19.5z" fill="url(#d)" transform="scale(2)"/><path clip-path="url(#a)" d="m8 1.7c4.8-1.5 8.3 1.3 10.7 5 1.6 2.5 2.6 2.6 3.9 2.2v-7.9h-14.6z" fill="url(#e)" transform="scale(2)"/><path clip-path="url(#a)" d="m21.2 18c-2.6 3.2-8.2 3.9-12.7-2-3.8-5-7.2-2.6-6.5.6v6.4h19.2z" fill="url(#b)" transform="scale(2)"/><path d="m23.99671 28.339346h21.80329v9.838417h-21.80329z" fill="#333"/><path d="m23.996094 28.339844 9.83789 9.83789h-9.83789l6.769531 6.769532c7.52239-2.408718 13.248711-8.734179 14.808594-16.607422z" fill="#333" fill-opacity=".078431"/><g fill="#fff" stroke-width=".173724"><path d="m29.320184 33.794656v1.934037h-.651466v-4.940278h1.822067q.810939 0 1.269.413952.461455.413952.461455 1.095955 0 .719326-.451276 1.109526-.447882.386808-1.285965.386808zm0-.532709h1.170601q.52253 0 .80076-.244299.27823-.247693.27823-.71254 0-.441097-.27823-.705754-.27823-.264658-.763436-.274837h-1.207925z"/><path d="m34.864424 33.730188h-1.160422v1.998505h-.654859v-4.940278h1.63545q.83469 0 1.282572.380022.451275.380021.451275 1.106133 0 .461455-.251085.804153-.247693.342698-.692182.51235l1.160422 2.096904v.04072h-.698968zm-1.160422-.532709h1.000949q.485206 0 .770222-.251085.288409-.251086.288409-.671824 0-.458061-.274837-.702361-.271444-.244299-.787187-.247692h-.997556z"/><path d="m41.127992 33.418028q0 .726112-.2443 1.269-.244299.539494-.692181.82451-.447883.285016-1.045059.285016-.583604 0-1.03488-.285016-.451275-.288409-.702361-.817724-.247692-.532709-.254478-1.231677v-.35627q0-.71254.247692-1.258821.247692-.546281.698968-.83469.454668-.291802 1.038273-.291802.593783 0 1.045059.288409.454668.285016.698967.831297.2443.542888.2443 1.265607zm-.648072-.318947q0-.8788-.352877-1.34704-.352877-.471634-.987377-.471634-.617535 0-.973805.471634-.352877.46824-.363056 1.30293v.363057q0 .851655.35627 1.340254.359663.485205.987377.485205.631107 0 .977198-.458061.346091-.461455.35627-1.319896z"/></g></svg>