<svg height="48" width="48" xmlns="http://www.w3.org/2000/svg" xmlns:xlink="http://www.w3.org/1999/xlink"><linearGradient id="a" gradientTransform="matrix(.85244295 0 0 .9351562 88.74066 -1.50915)" gradientUnits="userSpaceOnUse" x1="-74.929466" x2="-75.259552" y1="52.199436" y2="2.356489"><stop offset="0" stop-color="#ffa11b"/><stop offset="1" stop-color="#ffbb3a"/></linearGradient><linearGradient id="b" gradientTransform="matrix(-.69130201 0 0 -.75837962 304.39438 418.34651)" gradientUnits="userSpaceOnUse" x1="391.29813" x2="386.59229" y1="556.10773" y2="528.29919"><stop offset="0" stop-color="#efa"/><stop offset="1" stop-color="#ffbb3a"/></linearGradient><path d="m9.2713745.00000415h30.3482725c1.258335 0 2.271363 1.01302795 2.271363 2.27136305v43.4572738c0 1.258335-1.013028 2.271363-2.271363 2.271363h-30.3482725c-1.2583351 0-2.2713631-1.013028-2.2713631-2.271363v-43.4572738c0-1.2583351 1.013028-2.27136305 2.2713631-2.27136305z" fill="url(#a)"/><path d="m28.447266.00976563c.5624 3.38394997 1.140716 6.60196937 1.066406 9.81835937-.0113.48932.178227.904921.492187 1.216797l10.834444 10.762535c.340618.338358-.543574-.01422-.01666.05168l.05722-10.525153z" fill-opacity=".078431" transform="translate(.99999)"/><path d="m41.88039 11.61164c-.0816-1.18672-8.30099-11.07769-13.11884-11.60269 1.18863 3.38395 1.82666 6.73621 1.75235 9.9526-.0236 1.02019.82953 1.71536 1.8421 1.84209 3.62778.45405 6.3514-.24211 9.52439-.192z" fill="url(#b)"/><g fill="#ffaf29" stroke="#f1f6fa" stroke-linecap="round" stroke-linejoin="round" stroke-width="1.587118" transform="scale(-1 1)"><path d="m-27.300201 23.987074h10.611986c.409976 0 .740029.330053.740029.740029v8.982829c0 .409976-.330053.740029-.740029.740029h-10.611986c-.409976 0-.740029-.330053-.740029-.740029v-8.982829c0-.409976.330053-.740029.740029-.740029z"/><path d="m-33.62104 18.845852h10.611986c.409976 0 .740029.330053.740029.740029v8.982829c0 .409976-.330053.740029-.740029.740029h-10.611986c-.409976 0-.740029-.330053-.740029-.740029v-8.982829c0-.409976.330053-.740029.740029-.740029z"/></g></svg>