<svg height="48" width="48" xmlns="http://www.w3.org/2000/svg" xmlns:xlink="http://www.w3.org/1999/xlink"><linearGradient id="a" gradientTransform="matrix(.41831521 0 0 .32874875 306.01047 -436.85118)" gradientUnits="userSpaceOnUse" x1="467.87598" x2="468.52365" y1="139.74503" y2="-52.903351"><stop offset="0" stop-color="#3889e9"/><stop offset="1" stop-color="#5ea5fb"/></linearGradient><g fill="#fff" fill-opacity=".854839" transform="matrix(.559612116182 -.000000000731 .000000000731 .559612116182 -212.922802887087 -258.184270114641)"><rect fill="url(#a)" fill-opacity="1" height="60.529819" ry="3.738531" transform="matrix(-.00323822 .99999476 -.99998625 -.00524313 0 0)" width="77.112045" x="463.44507" y="-454.24307"/><g fill="#000"><path d="m410.55081 473.91205h30.579027v6.188613h-30.579027z" fill-opacity=".352941"/><path d="m416.89212 484.24213h20.539946v6.188613h-20.539946z" fill-opacity=".352941"/><path d="m8.5722656 2.3378906c-1.1208039.0369646-2.0139139.9426873-2.0175781 2.0742188l-.1269531 38.9667966c-.0037532 1.159033.9269148 2.097439 2.0859375 2.103516l4.2187501.021484v-42.6503904c0-.1774586.088098-.3277961.109375-.5z" fill-opacity=".352941" transform="matrix(1.786952 0 0 1.786952 380.48283 461.3629)"/><path d="m445.90203 465.8233v34.24526l-6.8337-6.83369-5.47603 6.19499 18.9724 18.97241.15007-45.76622-6.81275-6.81275z" fill-opacity=".078431"/></g><path d="m433.59187 465.82428v34.11264l5.92623-6.70361 6.38412 6.85837h.0421v-34.2674z" fill="#fff" fill-opacity="1"/></g></svg>