<svg height="48" width="48" xmlns="http://www.w3.org/2000/svg" xmlns:xlink="http://www.w3.org/1999/xlink"><linearGradient id="a" gradientUnits="userSpaceOnUse" x1="411.596787" x2="412.134847" y1="562.550216" y2="524.269266"><stop offset="0" stop-color="#11aa43"/><stop offset="1" stop-color="#65ff5d"/></linearGradient><linearGradient id="b" gradientUnits="userSpaceOnUse" x1="429.054667" x2="429.509382" y1="563.25049" y2="550.78133"><stop offset="0" stop-color="#276ad6"/><stop offset="1" stop-color="#41aaff"/></linearGradient><linearGradient id="c" gradientUnits="userSpaceOnUse" x1="413.16705" x2="412.85822" y1="539.22534" y2="530.6181"><stop offset="0" stop-color="#ffcc06"/><stop offset="1" stop-color="#fff834"/></linearGradient><g transform="matrix(1.0358892 0 0 1.0358892 -417.982628 -539.32054)"><path d="m406.28883 530.49897h5.75273l5.24323 9.2554h-5.72837z" fill="url(#c)" transform="matrix(2.85338908 0 0 2.84459428 -740.820911 -985.14449)"/><path d="m411.79019 563.88515 14.9186-25.79419s-4.28898-7.60385-6.50652-11.38495c-.29316-.49979-.70687-1.314-1.08512-1.89979-.31718-.49126-.52034-.88208-.52034-.88208s-.0462-.041-.0699 0c-4.96558 8.68785-14.89723 26.18668-14.89723 26.18668l8.16061 13.77433z" fill="url(#a)"/><path d="m411.71468 563.86309h29.68736l8.56464-13.66307-30.3232-.0314-7.9288 13.69453z" fill="url(#b)"/></g></svg>