<svg height="48" width="48" xmlns="http://www.w3.org/2000/svg" xmlns:xlink="http://www.w3.org/1999/xlink"><linearGradient id="a" gradientTransform="matrix(.39059512 -.00028268 .00029654 .3723401 14.552457 -53.93201)" gradientUnits="userSpaceOnUse" x1="21.978271" x2="22.373133" y1="263.04718" y2="150.15643"><stop offset="0" stop-color="#4f4f4f"/><stop offset="1" stop-color="#808080"/></linearGradient><linearGradient id="b" gradientTransform="matrix(.39059512 -.00028268 .00029654 .3723401 14.596668 -53.931977)" gradientUnits="userSpaceOnUse" x1="21.978271" x2="22.373133" y1="263.04718" y2="150.15643"><stop offset="0" stop-color="#00b167"/><stop offset="1" stop-color="#44ffbc"/></linearGradient><linearGradient id="c" gradientUnits="userSpaceOnUse" x1="14.79865318454" x2="15.24010732429" y1="45.02285725078" y2="2.20093057609"><stop offset="0" stop-color="#232323"/><stop offset="1" stop-color="#4f4f4f"/></linearGradient><linearGradient id="d"><stop offset="0" stop-color="#dfe9f0"/><stop offset="1" stop-color="#ecf0f3"/></linearGradient><linearGradient id="e" gradientTransform="matrix(.10304403 0 0 .10304168 19.965103 -1.9977)" gradientUnits="userSpaceOnUse" x1="95.461777" x2="191.54518" xlink:href="#d" y1="143.5246" y2="143.5246"/><linearGradient id="f" gradientTransform="matrix(.10304403 0 0 .10304168 -1.531575 -3.843152)" gradientUnits="userSpaceOnUse" x1="98.40519" x2="188.64264" y1="368.49139" y2="368.49139"><stop offset="0" stop-color="#cdd7dc"/><stop offset="1" stop-color="#ecf0f3"/></linearGradient><linearGradient id="g" gradientTransform="matrix(.08527746 0 0 .12450919 -25.956398 -2.621155)" gradientUnits="userSpaceOnUse" x1="455.96185" x2="459.02536" xlink:href="#d" y1="150.23126" y2="91.673157"/><g fill-rule="evenodd"><path d="m5.4489217 2.9546443c-.1572675-.0000055-2.9681689-.2045601-2.9682472 2.7833155v18.6781022.117684 18.67997c-.0000031 2.987874 2.8109814 2.783321 2.9682472 2.783315h18.6556863v-.0019h18.44647c.157265.000006 2.968284.206428 2.968247-2.781447v-18.797622-18.6781022c.000042-2.9878747-2.810986-2.7833213-2.968247-2.7833155h-18.44647-.207348z" fill-opacity=".666667" stroke-width=".381359"/><path d="m42.551509 2.0029777-18.654536.0000219v21.5795674l21.622182-.00001.00001-18.7968448c.000042-2.9878747-2.810383-2.7827254-2.967644-2.7827195z" fill="url(#a)" stroke-width=".381359"/><path d="m5.4489219 2.0031638c-.1572675-.0000055-2.9681689-.2045601-2.9682472 2.7833156v18.6781016.117684 18.679971c-.0000003.222858.019623.422159.048568.610835.00869.0566.020714.108814.031756.162515.026915.131069.061246.255337.1008718.369863.015957.046.030761.0929.048568.136364.055659.136142.1171657.262794.1886677.375467.00525.0083.00962.01799.014944.02615.077807.119122.1643699.222587.2559156.317559.8429781.875705 2.1721384.784563 2.2789564.784559h18.6556858v-.0019h18.446471c.157265.000006 2.968283.206428 2.968246-2.781447v-18.797606-.0467l-21.414717-21.4147312z" fill-opacity=".078431" stroke-width=".390595"/><path d="m42.551509 45.044369-18.654537-.000015v-21.579568l21.622183.000027.00001 18.796845c.000036 2.987875-2.810383 2.782724-2.967648 2.782718z" fill="url(#b)" stroke-width=".381359"/></g><path d="m35.671311 7.8332959v4.0467321h4.03138v1.822575h-4.03138v4.046733h-1.838062v-4.046733h-4.03138v-1.822575h4.03138v-4.0467321z" fill="url(#e)" stroke-width=".103043"/><path d="m5.4489219 2.0031638c-.1572675-.0000055-2.9681689-.2045601-2.9682472 2.7833156v18.6781016.117684 18.679971c-.0000031 2.987874 2.8109814 2.783321 2.9682472 2.783315h18.6556861v-21.463286-.117684-21.4614172z" fill="url(#c)" fill-rule="evenodd" stroke-width=".390595"/><path d="m8.4581807 11.795061h9.6690163v1.992475h-9.6690163z" fill="url(#g)" stroke-width=".103043"/><path d="m17.906923 30.782858-3.35176 3.351682 3.35176 3.336238-1.297455 1.297426-3.35176-3.336239-3.3517601 3.336239-1.2974551-1.297426 3.3517602-3.336238-3.3517602-3.351682 1.2974551-1.297426 3.3517601 3.351682 3.35176-3.351682z" fill="url(#f)" stroke-width=".103043"/><path d="m29.777237 31.707574h9.90082v1.814851h-9.90082zm0 3.513862h9.90082v1.830297h-9.90082z" fill="#e5ecf1" stroke-width=".103043"/></svg>