<svg height="48" width="48" xmlns="http://www.w3.org/2000/svg" xmlns:xlink="http://www.w3.org/1999/xlink"><linearGradient id="a" gradientUnits="userSpaceOnUse" x1="399.57144" x2="399.57144" y1="545.79797" y2="517.79797"><stop offset="0" stop-color="#06f"/><stop offset="1" stop-color="#59f"/></linearGradient><linearGradient id="b" gradientUnits="userSpaceOnUse" x1="399.9939" x2="399.9939" y1="545.13873" y2="518.13873"><stop offset="0" stop-color="#0bac83"/><stop offset="1" stop-color="#10da96"/></linearGradient><linearGradient id="c" gradientUnits="userSpaceOnUse" x1="23.313869" x2="23.576643" xlink:href="#a" y1="42.148563" y2="11.550023"/><linearGradient id="d" gradientUnits="userSpaceOnUse" x1="28.321167" x2="28.905109" xlink:href="#a" y1="42.670598" y2="18.320233"/><linearGradient id="e" gradientTransform="matrix(-1.000006 0 0 1.000006 48.000278 2.67036)" gradientUnits="userSpaceOnUse" x1="28.321167" x2="28.905109" y1="40" y2="15.649635"><stop offset="0" stop-color="#2a7fff"/><stop offset="1" stop-color="#5df"/></linearGradient><linearGradient id="f" gradientTransform="matrix(1.069692 0 0 1.2711864 -1.828771 2.083787)" gradientUnits="userSpaceOnUse" x1="23.532846" x2="23.357664" y1="29.89781" y2="2.277372"><stop offset="0" stop-color="#f2f2f2"/><stop offset="1" stop-color="#f9f9f9"/></linearGradient><path d="m4.7304687 5.9333832v6.4511718h-1.1035157c-.9009217 0-1.6269531.726032-1.6269531 1.626953v1.275391 26.257812c0 .112616.011611.222072.033203.328125.043109.212753.1270432.408691.2441407.582032.058615.0869.1253121.166464.1992187.240234.073198.07306.1522101.141166.2382813.199219.086891.05862.1794952.10726.2773437.148437.097344.04104.1986343.07411.3046875.0957.1066453.0218.2168085.03125.3300781.03125h.904297 39.8417971c.450461 0 .856268-.180974 1.150391-.474609.07391-.07377.140603-.15333.199218-.240234.175002-.259461.277344-.572308.277344-.910154v-26.257812-1.275391c0-.900921-.726031-1.626953-1.626953-1.626953h-1.103516v-6.4511718z" fill-opacity=".666667" stroke-width=".428482"/><path d="m3.6262125 11.28114h40.7475755c.900921 0 1.626212.725291 1.626212 1.626213v27.533517c0 .900922-.725291 1.626212-1.626212 1.626212h-40.7475755c-.9009217 0-1.6262125-.72529-1.6262125-1.626212v-27.533517c0-.900922.7252908-1.626213 1.6262125-1.626213z" fill="url(#c)" stroke-width=".428482"/><path d="m4.7299252 4.8302917h38.5401498v35.0364953h-38.5401498z" fill="url(#f)"/><g transform="matrix(.43478355 0 0 .43478355 26.792794 7.699433)"><path d="m414.57134 531.79791a13.999958 13.999958 0 0 1 -13.99996 13.99996 13.999958 13.999958 0 0 1 -13.99996-13.99996 13.999958 13.999958 0 0 1 13.99996-13.99996 13.999958 13.999958 0 0 1 13.99996 13.99996z" fill="url(#b)" stroke-width="1.3" transform="matrix(1.6428585 0 0 1.6428585 -664.50551 -843.88775)"/><path d="m6.8708947 23.546143-2.456704-2.456704c-.337021-.337243-.746767-.505753-1.228352-.505753-.481807 0-.891553.16851-1.228574.505753l-11.850273 11.868454-5.3109597-5.329141c-.337243-.337243-.746767-.505753-1.228352-.505753-.481807 0-.891332.16851-1.228574.505753l-2.456705 2.456704c-.337243.337243-.505753.746767-.505753 1.228574 0 .481585.16851.891331.505753 1.228352l6.539313 6.539313 2.456926 2.456704c.337021.337243.746546.505753 1.2283517.505753.481585 0 .89111-.168732 1.228353-.505753l2.456926-2.456704 13.078624-13.078626c.337021-.337242.505753-.746767.505753-1.228574.000222-.481585-.168732-.891109-.505753-1.228352z" fill="#fff" fill-opacity=".850806" stroke-width=".221724"/></g><g fill-rule="evenodd"><path d="m46 14.18427-41.4687499 27.882812h39.8417969c.900922 0 1.626953-.724078 1.626953-1.625z" fill="url(#d)" stroke-width=".57295"/><path d="m2.0000001 14.184102 41.4689999 27.88298h-39.8420369c-.900928 0-1.626963-.724081-1.626963-1.625009z" fill="url(#e)" stroke-width=".572953"/></g></svg>