<svg height="48" width="48" xmlns="http://www.w3.org/2000/svg" xmlns:xlink="http://www.w3.org/1999/xlink"><clipPath id="a"><path d="m23 12c0 6.1-4.9 11-11 11s-11-4.9-11-11 4.9-11 11-11 11 4.9 11 11z"/></clipPath><linearGradient id="b" gradientTransform="matrix(1.1000003 0 0 1.0992529 -425.42871 -551.7715)" gradientUnits="userSpaceOnUse" x1="11.635497" x2="11.230096" y1="23.040079" y2="1.148391"><stop offset="0" stop-color="#0d5ec2"/><stop offset="1" stop-color="#38b2fa"/></linearGradient><linearGradient id="c" gradientUnits="userSpaceOnUse" x1="13.437283" x2="12.671524" y1="19.076153" y2="1.103347"><stop offset="0" stop-color="#2a7fff"/><stop offset="1" stop-color="#80b3ff"/></linearGradient><linearGradient id="d" gradientUnits="userSpaceOnUse" x1="19.968754" x2="19.067862" y1="12.409548" y2="3.08531"><stop offset="0" stop-color="#acf"/><stop offset="1" stop-color="#afc6e9"/></linearGradient><linearGradient id="e" gradientUnits="userSpaceOnUse" x1="20.869646" x2="20.193975" y1="8.760933" y2="1.193436"><stop offset="0" stop-color="#d5e5ff"/><stop offset="1" stop-color="#ebebeb"/></linearGradient><linearGradient id="f" gradientUnits="userSpaceOnUse" x1="35.162776" x2="32.640278" y1="32.47668" y2="2.47696"><stop offset="0" stop-color="#80b3ff"/><stop offset="1" stop-color="#80b3ff"/></linearGradient><path d="m46 24.000001c0 12.199999-9.799999 21.999999-22 21.999999-12.199999 0-22-9.8-22-21.999999 0-12.200001 9.800001-22.0000014 22-22.0000014 12.200001 0 22 9.8000004 22 22.0000014z" fill="url(#f)" stroke-width="2"/><path clip-path="url(#a)" d="m1 12c .3-4.6 5.8-7.7 11 .2 4.5 6.9 10.1 5 10.9 1.3v9.5h-21.9z" fill="url(#c)" transform="scale(2)"/><path clip-path="url(#a)" d="m23 11.5c-1.5 1.6-4.5 2.2-7.6-2.7-3.8-6.4-7.9-7.3-11.9-3.8v-4h19.5z" fill="url(#d)" transform="scale(2)"/><path clip-path="url(#a)" d="m8 1.7c4.8-1.5 8.3 1.3 10.7 5 1.6 2.5 2.6 2.6 3.9 2.2v-7.9h-14.6z" fill="url(#e)" transform="scale(2)"/><path clip-path="url(#a)" d="m21.2 18c-2.6 3.2-8.2 3.9-12.7-2-3.8-5-7.2-2.6-6.5.6v6.4h19.2z" fill="url(#b)" transform="scale(2)"/></svg>