<svg height="48" width="48" xmlns="http://www.w3.org/2000/svg" xmlns:xlink="http://www.w3.org/1999/xlink"><linearGradient id="a" gradientUnits="userSpaceOnUse" x1="422.7755504" x2="422.7755504" y1="547.3031516" y2="512.8619135"><stop offset="0" stop-color="#ffcd40"/><stop offset="1" stop-color="#fee145"/></linearGradient><linearGradient id="b" gradientUnits="userSpaceOnUse" x1="394.371433792526" x2="394.2724568" y1="543.737065058607" y2="511.67428779375"><stop offset="0" stop-color="#0f9d58"/><stop offset="1" stop-color="#00d455"/></linearGradient><linearGradient id="c" gradientUnits="userSpaceOnUse" x1="407.336378328999" x2="407.336378328999" y1="518.800058" y2="499.798000350516"><stop offset="0" stop-color="#db4437"/><stop offset="1" stop-color="#fd5757"/></linearGradient><linearGradient id="d" gradientUnits="userSpaceOnUse" x1="408.571473448984" x2="408.571473448984" y1="532.298066879217" y2="515.298061479217"><stop offset="0" stop-color="#2566d3"/><stop offset="1" stop-color="#429aff"/></linearGradient><linearGradient id="e" gradientUnits="userSpaceOnUse" x1="409.652260294256" x2="409.652260294256" y1="546.115480777778" y2="499.8573712252"><stop offset="0" stop-color="#79a8ca"/><stop offset="1" stop-color="#9ecbda"/></linearGradient><linearGradient id="f" gradientUnits="userSpaceOnUse" x1="408.571429253968" x2="408.571429253968" y1="533.575774848934" y2="512.797997448934"><stop offset="0" stop-color="#f2f6f7"/><stop offset="1" stop-color="#ecf0f1"/></linearGradient><g transform="translate(-384.57143 -499.798)"><rect fill="url(#e)" height="45.129883" ry="22.564941" width="45.12989" x="385.95911" y="500.98563"/><path d="m409.08535 512.5047c-.3107 0-.56134.25064-.56134.56134s.25064.56134.56134.56134h20.25463c.0409 0 .0776-.0149.11599-.0231l.27553-.74227-1.0178-.35722z" fill="#649cc1" opacity=".8"/><g fill-rule="evenodd"><path d="m4.9550781 9.9960938c-2.97437 3.9667902-4.75585935 8.9645622-4.75585935 14.3261722 0 13.15893 10.59498625 23.677734 23.75390625 23.677734s23.751953-10.593033 23.751953-23.751953c0-3.85418-.929042-7.477133-2.544922-10.689453h-20.019531l7.125 17.339844-.033203.068359-15.40625-3.15625z" fill-opacity=".352941" transform="translate(384.57143 499.798)"/><path d="m389.52659 509.29903c-2.97437 3.96679-4.75516 8.96416-4.75516 14.32577 0 13.15893 10.59366 23.67835 23.75258 23.67835l8.3134-17.02762-15.43918-3.16207z" fill="url(#b)"/><path d="m409.71164 512.86192 7.12577 17.33938-8.3134 17.10185c13.15892 0 23.75257-10.59365 23.75257-23.75257 0-3.85418-.9287-7.47634-2.54458-10.68866z" fill="url(#a)"/><path d="m408.50355 499.81054c-7.94719 0-14.95389 3.92882-19.36262 9.99406l12.09986 18.72482c10.42064-.007 12.79619-9.04933 8.47322-14.98376h20.40523c-3.97602-8.15361-12.13208-13.73512-21.61569-13.73512z" fill="#1a1a1a" fill-opacity=".352941"/><path d="m408.51937 499.798c-7.79731 0-14.67185 3.73682-18.99742 9.50567l11.87164 17.80979 15.43918 3.08784-7.12578-17.33938h20.02037c-3.90104-7.75516-11.90326-13.06392-21.20799-13.06392z" fill="url(#c)"/></g><path d="m408.57143 512.798c-6.094 0-11 4.906-11 11 0 3.04699 1.22659 5.79691 3.21484 7.78516l15.06641 15.0664c7.39204-2.38045 13.17804-8.2686 15.41602-15.72461l-14.91211-14.91211c-1.98825-1.98825-4.73816-3.21484-7.78516-3.21484z" fill-opacity=".078431"/><path d="m408.57143 512.79801c6.09399 0 11 4.906 11 11 0 6.09399-4.90601 10.99999-11 10.99999-6.094 0-11-4.906-11-10.99999 0-6.094 4.906-11 11-11z" fill="url(#f)"/><path d="m408.57143 515.298h.00001c4.70899 0 8.49999 3.79099 8.49999 8.5 0 4.709-3.791 8.5-8.49999 8.5h-.00001c-4.70901 0-8.5-3.791-8.5-8.5 0-4.70901 3.79099-8.5 8.5-8.5z" fill="url(#d)"/></g></svg>