<svg height="48" width="48" xmlns="http://www.w3.org/2000/svg" xmlns:xlink="http://www.w3.org/1999/xlink"><linearGradient id="a" gradientTransform="matrix(.85244295 0 0 .9351562 88.74066 -1.50915)" gradientUnits="userSpaceOnUse" x1="-74.929466" x2="-75.259552" y1="52.199436" y2="2.356489"><stop offset="0" stop-color="#14cc50"/><stop offset="1" stop-color="#5be654"/></linearGradient><linearGradient id="b" gradientTransform="matrix(-.69130201 0 0 -.75837962 304.39438 418.34651)" gradientUnits="userSpaceOnUse" x1="391.29813" x2="386.59229" y1="556.10773" y2="528.29919"><stop offset="0" stop-color="#afe9af"/><stop offset="1" stop-color="#afc"/></linearGradient><path d="m9.2713745.00000415h30.3482725c1.258335 0 2.271363 1.01302795 2.271363 2.27136305v43.4572738c0 1.258335-1.013028 2.271363-2.271363 2.271363h-30.3482725c-1.2583351 0-2.2713631-1.013028-2.2713631-2.271363v-43.4572738c0-1.2583351 1.013028-2.27136305 2.2713631-2.27136305z" fill="url(#a)"/><path d="m28.447266.00976563c.5624 3.38394997 1.140716 6.60196937 1.066406 9.81835937-.0113.48932.175027.908175.492187 1.216797l10.81778 10.526578c-25.832099-25.4073711-.52691-.0659 0 0l.05722-10.237516z" fill-opacity=".078431" transform="translate(.99999)"/><path d="m41.88039 11.61164c-.0816-1.18672-8.30099-11.07769-13.11884-11.60269 1.18863 3.38395 1.82666 6.73621 1.75235 9.9526-.0236 1.02019.82953 1.71536 1.8421 1.84209 3.62778.45405 6.3514-.24211 9.52439-.192z" fill="url(#b)"/><g fill="#f2f3f3"><path d="m-34.453576 14.544236h7.340477c.400089 0 .722182.322093.722182.722182v3.718526c0 .400089-.322093.722182-.722182.722182h-7.340477c-.400089 0-.722182-.322093-.722182-.722182v-3.718526c0-.400089.322093-.722182.722182-.722182z" transform="matrix(-.0018788 -.99999824 .99999998 -.00019116 0 0)"/><path d="m-34.423608 21.841532h12.083917c.400089 0 .722182.322093.722182.722182v3.718526c0 .400089-.322093.722182-.722182.722182h-12.083917c-.400089 0-.722182-.322093-.722182-.722182v-3.718526c0-.400089.322093-.722182.722182-.722182z" transform="matrix(-.00122003 -.99999926 .99999996 -.00029438 0 0)"/><path d="m-34.466108 29.401146h16.827359c.400089 0 .722182.322093.722182.722182v3.718527c0 .400089-.322093.722182-.722182.722182h-16.827359c-.400088 0-.722182-.322093-.722182-.722182v-3.718527c0-.400089.322094-.722182.722182-.722182z" transform="matrix(-.00090331 -.99999959 .99999992 -.0003976 0 0)"/></g></svg>