<?xml version="1.0" encoding="UTF-8" standalone="no"?>
<!-- Created with Inkscape (http://www.inkscape.org/) -->

<svg
   xmlns:dc="http://purl.org/dc/elements/1.1/"
   xmlns:cc="http://creativecommons.org/ns#"
   xmlns:rdf="http://www.w3.org/1999/02/22-rdf-syntax-ns#"
   xmlns:svg="http://www.w3.org/2000/svg"
   xmlns="http://www.w3.org/2000/svg"
   xmlns:xlink="http://www.w3.org/1999/xlink"
   xmlns:sodipodi="http://sodipodi.sourceforge.net/DTD/sodipodi-0.dtd"
   xmlns:inkscape="http://www.inkscape.org/namespaces/inkscape"
   width="48"
   height="48"
   id="svg5453"
   version="1.1"
   inkscape:version="0.91 r13725"
   sodipodi:docname="google-hangouts.svg">
  <defs
     id="defs5455">
    <linearGradient
       inkscape:collect="always"
       id="linearGradient4362">
      <stop
         style="stop-color:#279a2d;stop-opacity:1"
         offset="0"
         id="stop4364" />
      <stop
         style="stop-color:#6fe135;stop-opacity:1"
         offset="1"
         id="stop4366" />
    </linearGradient>
    <linearGradient
       id="linearGradient3819">
      <stop
         id="stop3821"
         offset="0"
         style="stop-color:#cdddf3;stop-opacity:1" />
      <stop
         id="stop3823"
         offset="1"
         style="stop-color:#fbfdf8;stop-opacity:1" />
    </linearGradient>
    <linearGradient
       id="linearGradient8311-06">
      <stop
         id="stop8313-6"
         style="stop-color:#a9a3d4;stop-opacity:1"
         offset="0" />
      <stop
         offset="0.47001833"
         style="stop-color:#87baff;stop-opacity:1"
         id="stop4462" />
      <stop
         id="stop8315-2"
         style="stop-color:#89ec85;stop-opacity:1"
         offset="1" />
    </linearGradient>
    <linearGradient
       gradientUnits="userSpaceOnUse"
       y2="23.5"
       x2="47"
       y1="23.5"
       x1="0"
       id="linearGradient4460"
       xlink:href="#linearGradient8311-06"
       inkscape:collect="always" />
    <clipPath
       clipPathUnits="userSpaceOnUse"
       id="clipPath16">
      <path
         d="m 73.338,184.027 c -0.086,-0.2 -0.248,-0.192 -0.405,-0.185 l 0,0 c -0.048,0.003 -0.097,0.006 -0.142,0.002 l 0,0 c -2.686,-0.239 -5.363,-0.543 -8.014,-1.046 l 0,0 C 45.39,179.124 29.47,169.606 17.146,154.229 l 0,0 C 7.01,141.584 1.428,127.078 0.222,110.904 l 0,0 C 0.077,108.957 0.003,107.014 0,105.076 l 0,0 0,-0.255 C 0.009,99.045 0.65,93.312 1.922,87.637 l 0,0 c 1.277,-5.7 3.182,-11.206 5.744,-16.47 l 0,0 c 0.225,-0.449 0.448,-0.898 0.676,-1.344 l 0,0 C 12.551,61.535 17.965,54.149 24.751,47.77 l 0,0 c 3.573,-3.358 7.389,-6.395 11.524,-9.02 l 0,0 C 48.939,30.712 62.763,26.497 77.781,26.308 l 0,0 c 0.92,-0.012 1.171,-0.24 1.167,-1.181 l 0,0 C 78.906,17.089 78.923,9.049 78.925,1.011 l 0,0 C 78.926,0.699 78.951,0.388 78.967,0 l 0,0 c 0.26,0.106 0.423,0.166 0.58,0.24 l 0,0 c 15.097,7.093 28.96,16.056 41.319,27.291 l 0,0 c 2.458,2.236 4.811,4.577 7.075,7.015 l 0,0 c 0.969,1.044 1.929,2.106 2.901,3.146 l 0,0 c 1.5,1.605 2.798,3.398 4.212,5.085 l 0,0 c 1.633,1.948 3.099,4.019 4.545,6.103 l 0,0 c 3.198,4.606 6.052,9.411 8.452,14.487 l 0,0 c 1.214,2.567 2.37,5.153 3.393,7.799 l 0,0 c 0.034,0.05 0.08,0.094 0.101,0.148 l 0,0 c 2.788,7.249 4.574,14.749 5.527,22.444 l 0,0 c 0.332,2.68 0.547,5.378 0.682,8.073 l 0,0 c 0.061,1.218 0.092,2.434 0.094,3.648 l 0,0 0,0.265 c -0.008,4.482 -0.415,8.942 -1.226,13.367 l 0,0 c -2.793,15.227 -9.461,28.529 -19.995,39.879 l 0,0 c -4.446,4.792 -9.426,8.956 -14.925,12.491 l 0,0 c -10.241,6.584 -21.399,10.618 -33.498,12.047 l 0,0 c -1.475,0.175 -2.971,0.153 -4.425,0.499 l 0,0 -10.441,0 z m 43.699,-53.638 c 2.435,0.004 4.453,-2.453 3.673,-4.856 l 0,0 c 0.185,-0.454 0.153,-0.932 0.153,-1.407 l 0,0 c 0,-10.335 0.004,-20.67 -0.003,-31.006 l 0,0 C 120.852,83.886 115.066,75.247 106.537,71.7 l 0,0 c -0.217,-0.09 -0.422,-0.208 -0.631,-0.315 l 0,0 c 0.146,-0.182 0.321,-0.237 0.505,-0.246 l 0,0 c 0.006,0 0.012,0 0.018,0 l 0,0 c -0.006,0 -0.012,0 -0.018,0 l 0,0 c -0.184,0.009 -0.36,0.064 -0.506,0.246 l 0,0 c -0.116,-0.031 -0.233,-0.065 -0.351,-0.097 l 0,0 c -0.066,-0.038 -0.132,-0.076 -0.199,-0.113 l 0,0 c -1.782,-0.504 -3.58,-0.922 -5.418,-1.192 l 0,0 c -1.403,-0.206 -2.462,0.586 -2.479,1.996 l 0,0 c -0.012,0.989 -0.02,1.978 -0.028,2.968 l 0,0 c 0.016,1.77 0.034,3.541 0.05,5.311 l 0,0 c -0.008,0.39 -0.024,0.78 -0.023,1.169 l 0,0 c 0.002,1.36 0.527,1.933 2.216,2.32 l 0,0 c 2.144,0.491 4.162,1.182 5.83,2.732 l 0,0 c 2.003,1.861 3.015,4.182 3.474,6.806 l 0,0 c -5.784,0.012 -11.567,0.022 -17.352,0.033 l 0,0 c -0.209,0 -0.42,-0.001 -0.63,-0.002 l 0,0 c -0.419,-0.001 -0.838,-0.002 -1.257,0.005 l 0,0 c -2.363,0.04 -3.98,1.672 -3.979,4.047 l 0,0 c 0.003,9.35 0.016,18.701 0.024,28.053 l 0,0 c 0,0.089 -0.01,0.179 -0.016,0.268 l 0,0 c -0.182,1.75 0.322,3.184 1.876,4.158 l 0,0 c 0.605,0.378 1.261,0.536 1.957,0.536 l 0,0 c 3.834,0.002 7.669,10e-4 11.504,10e-4 l 0,0 c 5.311,0 10.622,0 15.933,0.005 m -48.782,0 c 2.437,0.004 4.454,-2.453 3.674,-4.856 l 0,0 c 0.189,-0.454 0.154,-0.933 0.154,-1.408 l 0,0 c 0.002,-10.318 0.059,-20.638 -0.018,-30.955 l 0,0 C 72.014,86.324 69.348,80.564 64.337,75.894 l 0,0 C 64.076,75.651 63.823,75.398 63.566,75.15 l 0,0 c -2.601,-1.99 -5.412,-3.56 -8.597,-4.423 l 0,0 c -1.355,-0.368 -2.737,-0.578 -4.118,-0.781 l 0,0 c -1.068,-0.156 -1.763,0.437 -2.162,1.402 l 0,0 c 0.004,2.97 0.006,5.938 0.011,8.908 l 0,0 c 0.05,0.874 -0.3,1.81 0.4,2.582 l 0,0 c 0.347,0.381 0.74,0.642 1.271,0.777 l 0,0 c 1.555,0.391 3.131,0.704 4.548,1.549 l 0,0 c 2.609,1.556 4.232,3.804 4.951,6.733 l 0,0 c 0.113,0.461 0.219,0.925 0.327,1.388 l 0,0 c -6.262,0.012 -12.524,0.023 -18.785,0.031 l 0,0 c -0.542,10e-4 -1.077,0.02 -1.603,0.166 l 0,0 c -1.596,0.444 -2.818,1.9 -2.82,3.545 l 0,0 c -0.012,9.468 0.006,18.937 0.013,28.406 l 0,0 c -0.132,1.512 10e-4,2.93 1.274,4.011 l 0,0 c 0.691,0.585 1.45,0.941 2.358,0.941 l 0,0 c 3.187,0 6.374,0 9.561,0 l 0,0 c 2.128,-0.001 4.257,-0.001 6.385,-0.001 l 0,0 c 3.892,0 7.783,0.001 11.675,0.005"
         id="path18"
         inkscape:connector-curvature="0" />
    </clipPath>
    <linearGradient
       inkscape:collect="always"
       xlink:href="#linearGradient4362"
       id="linearGradient4368"
       x1="72.591591"
       y1="4.6072965"
       x2="76.367653"
       y2="183.86407"
       gradientUnits="userSpaceOnUse" />
    <linearGradient
       inkscape:collect="always"
       xlink:href="#linearGradient3819"
       id="linearGradient4378"
       x1="84.531227"
       y1="1041.3085"
       x2="85.18969"
       y2="1016.9452"
       gradientUnits="userSpaceOnUse"
       gradientTransform="translate(-66.505028,-5.267725)" />
    <linearGradient
       inkscape:collect="always"
       xlink:href="#linearGradient4362"
       id="linearGradient4292"
       gradientUnits="userSpaceOnUse"
       x1="72.591591"
       y1="4.6072965"
       x2="76.367653"
       y2="183.86407" />
    <linearGradient
       inkscape:collect="always"
       xlink:href="#linearGradient4362"
       id="linearGradient4294"
       gradientUnits="userSpaceOnUse"
       x1="72.591591"
       y1="4.6072965"
       x2="76.367653"
       y2="183.86407" />
  </defs>
  <sodipodi:namedview
     id="base"
     pagecolor="#5a5a5a"
     bordercolor="#666666"
     borderopacity="1.0"
     inkscape:pageopacity="0"
     inkscape:pageshadow="2"
     inkscape:zoom="2.6676612"
     inkscape:cx="-71.389395"
     inkscape:cy="23.718654"
     inkscape:document-units="px"
     inkscape:current-layer="g4413"
     showgrid="false"
     fit-margin-top="0"
     fit-margin-left="0"
     fit-margin-right="0"
     fit-margin-bottom="0"
     inkscape:window-width="1366"
     inkscape:window-height="642"
     inkscape:window-x="0"
     inkscape:window-y="33"
     inkscape:window-maximized="1"
     inkscape:showpageshadow="false"
     borderlayer="true"
     showguides="false"
     showborder="false">
    <inkscape:grid
       type="xygrid"
       id="grid4063" />
    <sodipodi:guide
       position="1.1650391e-05,47.999996"
       orientation="4,0"
       id="guide4146" />
    <sodipodi:guide
       position="1.1650391e-05,43.999996"
       orientation="0,48"
       id="guide4148" />
    <sodipodi:guide
       position="48.000012,43.999996"
       orientation="-4,0"
       id="guide4150" />
    <sodipodi:guide
       position="48.000012,47.999996"
       orientation="0,-48"
       id="guide4152" />
    <sodipodi:guide
       position="1.1650391e-05,4.0000264"
       orientation="4,0"
       id="guide4154" />
    <sodipodi:guide
       position="1.1650391e-05,2.6367188e-05"
       orientation="0,48"
       id="guide4156" />
    <sodipodi:guide
       position="48.000012,2.6367188e-05"
       orientation="-4,0"
       id="guide4158" />
    <sodipodi:guide
       position="48.000012,4.0000264"
       orientation="0,-48"
       id="guide4160" />
    <sodipodi:guide
       position="48.000012,48.000026"
       orientation="0,-4"
       id="guide4162" />
    <sodipodi:guide
       position="44.000012,48.000026"
       orientation="48,0"
       id="guide4164" />
    <sodipodi:guide
       position="44.000012,2.6367188e-05"
       orientation="0,4"
       id="guide4166" />
    <sodipodi:guide
       position="48.000012,2.6367188e-05"
       orientation="-48,0"
       id="guide4168" />
    <sodipodi:guide
       position="4.0000422,48.000026"
       orientation="0,-4"
       id="guide4170" />
    <sodipodi:guide
       position="4.2167969e-05,48.000026"
       orientation="48,0"
       id="guide4172" />
    <sodipodi:guide
       position="4.2167969e-05,2.6367188e-05"
       orientation="0,4"
       id="guide4174" />
    <sodipodi:guide
       position="4.0000422,2.6367188e-05"
       orientation="-48,0"
       id="guide4176" />
    <sodipodi:guide
       position="20,30"
       orientation="39.999969,0"
       id="guide4153" />
    <sodipodi:guide
       position="20.000012,4.0000264"
       orientation="0,8"
       id="guide4155" />
    <sodipodi:guide
       position="25,30"
       orientation="-39.999969,0"
       id="guide4157" />
    <sodipodi:guide
       position="28.000012,43.999996"
       orientation="0,-8"
       id="guide4159" />
    <sodipodi:guide
       position="22,6"
       orientation="-2.5,4"
       id="guide4338" />
    <sodipodi:guide
       position="22,11"
       orientation="5,0"
       id="guide4342" />
  </sodipodi:namedview>
  <metadata
     id="metadata5458">
    <rdf:RDF>
      <cc:Work
         rdf:about="">
        <dc:format>image/svg+xml</dc:format>
        <dc:type
           rdf:resource="http://purl.org/dc/dcmitype/StillImage" />
        <dc:title></dc:title>
      </cc:Work>
    </rdf:RDF>
  </metadata>
  <g
     inkscape:label="Capa 1"
     inkscape:groupmode="layer"
     id="layer1"
     transform="translate(-384.57143,-499.798)">
    <g
       transform="translate(392.24401,-502.51656)"
       id="layer1-4"
       inkscape:label="Layer 1">
      <g
         transform="matrix(1.138587,0,0,1.138587,-3.4562036,-142.80276)"
         id="g4413"
         style="stroke-width:1.31742239;stroke-miterlimit:4;stroke-dasharray:none">
        <g
           id="g4284"
           transform="translate(-0.35131264,0)">
          <ellipse
             ry="13.498546"
             rx="13.992394"
             cy="1023.8591"
             cx="19.178513"
             id="path4370"
             style="opacity:1;fill:url(#linearGradient4378);fill-opacity:1;stroke:none;stroke-width:0.1;stroke-linecap:round;stroke-linejoin:round;stroke-miterlimit:4;stroke-dasharray:none;stroke-dashoffset:0;stroke-opacity:1" />
          <g
             transform="matrix(0.22223522,0,0,-0.22223522,0.4774546,1047.3476)"
             id="g12">
            <g
               clip-path="url(#clipPath16)"
               id="g14">
              <g
                 style="fill:url(#linearGradient4368);fill-opacity:1"
                 id="g20">
                <g
                   style="fill:url(#linearGradient4294);fill-opacity:1"
                   id="g22">
                  <path
                     inkscape:connector-curvature="0"
                     id="path32"
                     style="fill:url(#linearGradient4292);fill-opacity:1;stroke:none"
                     d="m 73.338,184.027 c -0.086,-0.2 -0.248,-0.192 -0.405,-0.185 l 0,0 c -0.048,0.003 -0.097,0.006 -0.142,0.002 l 0,0 c -2.686,-0.239 -5.363,-0.543 -8.014,-1.046 l 0,0 C 45.39,179.124 29.47,169.606 17.146,154.229 l 0,0 C 7.01,141.584 1.428,127.078 0.222,110.904 l 0,0 C 0.077,108.957 0.003,107.014 0,105.076 l 0,0 0,-0.255 C 0.009,99.045 0.65,93.312 1.922,87.637 l 0,0 c 1.277,-5.7 3.182,-11.206 5.744,-16.47 l 0,0 c 0.225,-0.449 0.448,-0.898 0.676,-1.344 l 0,0 C 12.551,61.535 17.965,54.149 24.751,47.77 l 0,0 c 3.573,-3.358 7.389,-6.395 11.524,-9.02 l 0,0 C 48.939,30.712 62.763,26.497 77.781,26.308 l 0,0 c 0.92,-0.012 1.171,-0.24 1.167,-1.181 l 0,0 C 78.906,17.089 78.923,9.049 78.925,1.011 l 0,0 C 78.926,0.699 78.951,0.388 78.967,0 l 0,0 c 0.26,0.106 0.423,0.166 0.58,0.24 l 0,0 c 15.097,7.093 28.96,16.056 41.319,27.291 l 0,0 c 2.458,2.236 4.811,4.577 7.075,7.015 l 0,0 c 0.969,1.044 1.929,2.106 2.901,3.146 l 0,0 c 1.5,1.605 2.798,3.398 4.212,5.085 l 0,0 c 1.633,1.948 3.099,4.019 4.545,6.103 l 0,0 c 3.198,4.606 6.052,9.411 8.452,14.487 l 0,0 c 1.214,2.567 2.37,5.153 3.393,7.799 l 0,0 c 0.034,0.05 0.08,0.094 0.101,0.148 l 0,0 c 2.788,7.249 4.574,14.749 5.527,22.444 l 0,0 c 0.332,2.68 0.547,5.378 0.682,8.073 l 0,0 c 0.061,1.218 0.092,2.434 0.094,3.648 l 0,0 0,0.265 c -0.008,4.482 -0.415,8.942 -1.226,13.367 l 0,0 c -2.793,15.227 -9.461,28.529 -19.995,39.879 l 0,0 c -4.446,4.792 -9.426,8.956 -14.925,12.491 l 0,0 c -10.241,6.584 -21.399,10.618 -33.498,12.047 l 0,0 c -1.475,0.175 -2.971,0.153 -4.425,0.499 l 0,0 -10.441,0 z m 43.699,-53.638 c 2.435,0.004 4.453,-2.453 3.673,-4.856 l 0,0 c 0.185,-0.454 0.153,-0.932 0.153,-1.407 l 0,0 c 0,-10.335 0.004,-20.67 -0.003,-31.006 l 0,0 C 120.852,83.886 115.066,75.247 106.537,71.7 l 0,0 c -0.217,-0.09 -0.422,-0.208 -0.631,-0.315 l 0,0 c 0.146,-0.182 0.321,-0.237 0.505,-0.246 l 0,0 c 0.006,0 0.012,0 0.018,0 l 0,0 c -0.006,0 -0.012,0 -0.018,0 l 0,0 c -0.184,0.009 -0.36,0.064 -0.506,0.246 l 0,0 c -0.116,-0.031 -0.233,-0.065 -0.351,-0.097 l 0,0 c -0.066,-0.038 -0.132,-0.076 -0.199,-0.113 l 0,0 c -1.782,-0.504 -3.58,-0.922 -5.418,-1.192 l 0,0 c -1.403,-0.206 -2.462,0.586 -2.479,1.996 l 0,0 c -0.012,0.989 -0.02,1.978 -0.028,2.968 l 0,0 c 0.016,1.77 0.034,3.541 0.05,5.311 l 0,0 c -0.008,0.39 -0.024,0.78 -0.023,1.169 l 0,0 c 0.002,1.36 0.527,1.933 2.216,2.32 l 0,0 c 2.144,0.491 4.162,1.182 5.83,2.732 l 0,0 c 2.003,1.861 3.015,4.182 3.474,6.806 l 0,0 c -5.784,0.012 -11.567,0.022 -17.352,0.033 l 0,0 c -0.209,0 -0.42,-0.001 -0.63,-0.002 l 0,0 c -0.419,-0.001 -0.838,-0.002 -1.257,0.005 l 0,0 c -2.363,0.04 -3.98,1.672 -3.979,4.047 l 0,0 c 0.003,9.35 0.016,18.701 0.024,28.053 l 0,0 c 0,0.089 -0.01,0.179 -0.016,0.268 l 0,0 c -0.182,1.75 0.322,3.184 1.876,4.158 l 0,0 c 0.605,0.378 1.261,0.536 1.957,0.536 l 0,0 c 3.834,0.002 7.669,10e-4 11.504,10e-4 l 0,0 c 5.311,0 10.622,0 15.933,0.005 m -48.782,0 c 2.437,0.004 4.454,-2.453 3.674,-4.856 l 0,0 c 0.189,-0.454 0.154,-0.933 0.154,-1.408 l 0,0 c 0.002,-10.318 0.059,-20.638 -0.018,-30.955 l 0,0 C 72.014,86.324 69.348,80.564 64.337,75.894 l 0,0 C 64.076,75.651 63.823,75.398 63.566,75.15 l 0,0 c -2.601,-1.99 -5.412,-3.56 -8.597,-4.423 l 0,0 c -1.355,-0.368 -2.737,-0.578 -4.118,-0.781 l 0,0 c -1.068,-0.156 -1.763,0.437 -2.162,1.402 l 0,0 c 0.004,2.97 0.006,5.938 0.011,8.908 l 0,0 c 0.05,0.874 -0.3,1.81 0.4,2.582 l 0,0 c 0.347,0.381 0.74,0.642 1.271,0.777 l 0,0 c 1.555,0.391 3.131,0.704 4.548,1.549 l 0,0 c 2.609,1.556 4.232,3.804 4.951,6.733 l 0,0 c 0.113,0.461 0.219,0.925 0.327,1.388 l 0,0 c -6.262,0.012 -12.524,0.023 -18.785,0.031 l 0,0 c -0.542,10e-4 -1.077,0.02 -1.603,0.166 l 0,0 c -1.596,0.444 -2.818,1.9 -2.82,3.545 l 0,0 c -0.012,9.468 0.006,18.937 0.013,28.406 l 0,0 c -0.132,1.512 10e-4,2.93 1.274,4.011 l 0,0 c 0.691,0.585 1.45,0.941 2.358,0.941 l 0,0 c 3.187,0 6.374,0 9.561,0 l 0,0 c 2.128,-0.001 4.257,-0.001 6.385,-0.001 l 0,0 c 3.892,0 7.783,0.001 11.675,0.005" />
                </g>
              </g>
            </g>
          </g>
        </g>
      </g>
      <g
         style="fill:url(#linearGradient4460);fill-opacity:1"
         transform="matrix(0.48796879,0,0,0.48796879,21.356721,1026.8977)"
         id="g3" />
    </g>
  </g>
</svg>
