<svg height="48" width="48" xmlns="http://www.w3.org/2000/svg" xmlns:xlink="http://www.w3.org/1999/xlink"><linearGradient id="a"><stop offset="0" stop-color="#dfe9f0"/><stop offset="1" stop-color="#ecf0f3"/></linearGradient><linearGradient id="b" gradientTransform="matrix(.26231459 0 0 .26155514 -44.879062 141.03167)" gradientUnits="userSpaceOnUse" x1="371.47604" x2="371.47604" y1="473.93784" y2="253.9286"><stop offset="0" stop-color="#00b167"/><stop offset="1" stop-color="#44ffbc"/></linearGradient><linearGradient gradientUnits="userSpaceOnUse" x1="23.802246" x2="23.892494" y1="265.83694" y2="146.96394"><stop offset="0" stop-color="#fe9501"/><stop offset="1" stop-color="#feb600"/></linearGradient><linearGradient id="c" gradientUnits="userSpaceOnUse" x1="95.461777" x2="191.54518" xlink:href="#a" y1="143.5246" y2="143.5246"/><linearGradient id="d" gradientTransform="matrix(1.0014519 .00003763 .00003763 .95188387 .292469 11.945264)" gradientUnits="userSpaceOnUse" x1=".967325" x2="1.189513" y1="204.54808" y2="148.80922"><stop offset="0" stop-color="#232323"/><stop offset="1" stop-color="#4f4f4f"/></linearGradient><linearGradient gradientUnits="userSpaceOnUse" x1="148.6194" x2="136.14597" xlink:href="#a" y1="409.57669" y2="327.4061"/><linearGradient id="e" gradientUnits="userSpaceOnUse" x1="98.40519" x2="188.64264" y1="368.49139" y2="368.49139"><stop offset="0" stop-color="#cdd7dc"/><stop offset="1" stop-color="#ecf0f3"/></linearGradient><linearGradient id="f" gradientUnits="userSpaceOnUse" x1="455.96185" x2="459.02536" xlink:href="#a" y1="150.23126" y2="91.673157"/><linearGradient id="g" gradientUnits="userSpaceOnUse" x1="21.978271" x2="22.373133" y1="263.04718" y2="150.15643"><stop offset="0" stop-color="#4f4f4f"/><stop offset="1" stop-color="#808080"/></linearGradient><g transform="matrix(.407803134014 -.000310501337 .000309602131 .408987206923 13.29610967396 -62.474216941796)"><path d="m-23.525211 154.66937 47.828584.0363-.0419 55.16792-55.437374-.0422.0365-48.05392c.006-7.63847 7.21097-7.10853 7.61419-7.10821z" fill="url(#d)" fill-rule="evenodd"/><g fill="url(#g)" fill-rule="evenodd" transform="matrix(1.0014519 .00003763 .00003763 .95188387 .036529586238 11.689947414352)"><path d="m-23.87675 265.80577 47.759246.0362.044-57.95657-55.356996-.042-.03833 50.48297c-.0061 8.02458 7.189449 7.47907 7.59208 7.47936z"/><path d="m71.568966 150.27986-47.759241-.0362-.044 57.95657 55.356991.042.03835-50.48297c.0062-8.02458-7.189452-7.47907-7.592072-7.47936z"/><path d="m71.368015 265.8766-47.75924-.0363.044-57.95657 55.35699.0421-.0383 50.48297c-.006 8.02458-7.2008 7.46814-7.60343 7.46782z"/></g><ellipse cx="51.669277" cy="236.94432" fill="url(#b)" rx="32.309681" ry="32.216141" transform="matrix(.99999971 .0007592 -.00075919 .99999971 0 0)"/><path d="m152.4223 95.407954v39.272776h39.12288v17.68774h-39.12288v39.27278h-17.83764v-39.27278h-39.122882v-17.68774h39.122882v-39.272776z" fill="url(#c)" transform="matrix(.26419577 .00020058 -.00019999 .26342488 -41.138552 144.43714)"/><path d="m403.56007 115.78436h113.38303v16.00263h-113.38303z" fill="url(#f)" transform="matrix(.21864388 .00016599 -.00024166 .31830636 -49.449139 142.57978)"/><path d="m188.64264 336.03888-32.52745 32.52745 32.52745 32.37756-12.59127 12.59127-32.52745-32.37756-32.52746 32.37756-12.591269-12.59127 32.527459-32.37756-32.527459-32.52745 12.591269-12.59127 32.52746 32.52745 32.52745-32.52745z" fill="url(#e)" transform="matrix(.26419577 .00020058 -.00019999 .26342488 -41.412076 139.71007)"/><path d="m320.01727 340.77341h96.0834v17.61279h-96.0834zm0 34.10136h96.0834v17.76269h-96.0834z" fill="#e5ecf1" transform="matrix(.26419577 .00020058 -.00019999 .26342488 -45.687111 140.82366)"/></g></svg>