<svg height="48" width="48" xmlns="http://www.w3.org/2000/svg" xmlns:xlink="http://www.w3.org/1999/xlink"><linearGradient id="a" gradientUnits="userSpaceOnUse" x1="409.571423" x2="409.571423" y1="543.79797" y2="503.798"><stop offset="0" stop-color="#2a2c2f"/><stop offset="1" stop-color="#424649"/></linearGradient><linearGradient id="b" gradientUnits="userSpaceOnUse" x1="25" x2="25" y1="40" y2="8"><stop offset="0" stop-color="#d5d5d6"/><stop offset="1" stop-color="#f4f5f5"/></linearGradient><linearGradient id="c" gradientUnits="userSpaceOnUse" x1="6" x2="32" y1="7" y2="33"><stop offset="0" stop-color="#292c2f"/><stop offset="1" stop-opacity="0"/></linearGradient><g transform="translate(-384.57143 -499.798)"><rect fill="url(#a)" height="39.999969" ry="1.999996" width="40.000011" x="388.57141" y="503.798"/><path d="m40 8v32h-32l3 3 1 1h32v-32z" fill="url(#c)" fill-rule="evenodd" opacity=".2" transform="translate(384.57143 499.798)"/><path d="m8 8v32h32v-32zm1 1h30v21h-30zm1 3v2h22v-2zm-1 19h30v8h-30zm2 3v1h1v-1zm2 0v1h1v-1zm2 0v1h1v-1zm16 0v1h1v-1zm2 0v1h1v-1zm2 0v1h1v-1z" fill="url(#b)" transform="translate(384.57143 499.798)"/><text fill="#fff" font-family="sans-serif" font-size="7.787494" letter-spacing="0" word-spacing="0" x="393.89819" y="519.93311"><tspan fill="#fff" font-family="Oxygen Mono" x="393.89819" y="519.93311">grub</tspan></text></g></svg>