<svg height="48" width="48" xmlns="http://www.w3.org/2000/svg" xmlns:xlink="http://www.w3.org/1999/xlink"><linearGradient id="a" gradientTransform="matrix(1 0 0 .97651015 -384.57147 -488.97072)" gradientUnits="userSpaceOnUse" x1="409.57144" x2="409.57144" y1="542.79797" y2="507.798"><stop offset="0" stop-color="#2a2c2f"/><stop offset="1" stop-color="#424649"/></linearGradient><rect fill-opacity=".666667" height="33.201344" ry="1.562416" width="44" x="2.000002" y="7.899492"/><rect fill="url(#a)" height="33.201344" ry="1.562416" width="44" x="2.000002" y="6.899157"/><path d="m27.37259 13.7294c-.0537-.051-.11552-.0767-.18535-.0767-.0698 0-.13155.0256-.18525.0767l-.40294.38339c-.0537.0511-.0805.10983-.0805.17636 0 .0666.0268.12525.0805.17636l3.16695 3.01318-3.16695 3.01329c-.0537.0511-.0805.10991-.0805.17626 0 .0666.0268.12525.0805.17635l.40294.38329c.0537.0512.11542.0766.18525.0766.0699 0 .13165-.0255.18535-.0766l3.75515-3.57283c.0537-.0511.0805-.11001.0805-.17645 0-.0665-.0268-.12525-.0805-.17636z" fill="#fff" stroke-width=".096476"/><g fill="#fff" stroke-width=".855615" transform="translate(0 .458685)"><path d="m14.339098 18.79798q-.180481 1.544118-1.143048 2.386364-.955882.835561-2.546791.835561-1.7245992 0-2.76738-1.236631-1.0360962-1.236631-1.0360962-3.308823v-.935829q0-1.356952.4812834-2.386364.4879679-1.029412 1.3770053-1.57754.8890374-.554813 2.0588235-.554813 1.550802 0 2.486631.868984.935829.8623 1.089572 2.393048h-1.290107q-.167112-1.163101-.728609-1.684492-.554813-.52139-1.557487-.52139-1.2299465 0-1.9318181.909091-.6951872.909091-.6951872 2.586898v.942514q0 1.584224.6617647 2.520053.6617647.935829 1.8516046.935829 1.069518 0 1.6377-.481284.574866-.487967.762032-1.691176z" fill="#fff" stroke-width=".855615"/><path d="m20.067707 19.145574h-1.764706l-.534759 2.740641h-.955882l.534759-2.740641h-1.597593v-.915776h1.77139l.46123-2.36631h-1.724599v-.929144h1.90508l.548128-2.780749h.955883l-.548129 2.780749h1.764706l.548129-2.780749h.962567l-.548129 2.780749h1.363637v.929144h-1.544118l-.46123 2.36631h1.504011v.915776h-1.677808l-.534759 2.740641h-.962567zm-1.590909-.915776h1.764706l.46123-2.36631h-1.764706z" fill="#fff" stroke-width=".855615"/></g></svg>