<?xml version="1.0" encoding="UTF-8" standalone="no"?>
<!-- Created with Inkscape (http://www.inkscape.org/) -->

<svg
   xmlns:dc="http://purl.org/dc/elements/1.1/"
   xmlns:cc="http://creativecommons.org/ns#"
   xmlns:rdf="http://www.w3.org/1999/02/22-rdf-syntax-ns#"
   xmlns:svg="http://www.w3.org/2000/svg"
   xmlns="http://www.w3.org/2000/svg"
   xmlns:xlink="http://www.w3.org/1999/xlink"
   xmlns:sodipodi="http://sodipodi.sourceforge.net/DTD/sodipodi-0.dtd"
   xmlns:inkscape="http://www.inkscape.org/namespaces/inkscape"
   width="48"
   height="48"
   id="svg2"
   version="1.1"
   inkscape:version="0.91 r13725"
   sodipodi:docname="gummi.svg">
  <defs
     id="defs4">
    <linearGradient
       inkscape:collect="always"
       id="linearGradient4143">
      <stop
         style="stop-color:#51cd51;stop-opacity:1;"
         offset="0"
         id="stop4145" />
      <stop
         style="stop-color:#80ff80;stop-opacity:1"
         offset="1"
         id="stop4147" />
    </linearGradient>
    <linearGradient
       inkscape:collect="always"
       xlink:href="#linearGradient4143"
       id="linearGradient4149"
       x1="24.415178"
       y1="1052.8817"
       x2="24.025576"
       y2="1004.1812"
       gradientUnits="userSpaceOnUse"
       gradientTransform="matrix(0.91666667,0,0,0.91666667,2,85.696866)" />
  </defs>
  <sodipodi:namedview
     id="base"
     pagecolor="#ffffff"
     bordercolor="#666666"
     borderopacity="1.0"
     inkscape:pageopacity="0.0"
     inkscape:pageshadow="2"
     inkscape:zoom="7.7001279"
     inkscape:cx="11.440734"
     inkscape:cy="18.286241"
     inkscape:document-units="px"
     inkscape:current-layer="layer1"
     showgrid="false"
     inkscape:window-width="1366"
     inkscape:window-height="712"
     inkscape:window-x="0"
     inkscape:window-y="28"
     inkscape:window-maximized="1" />
  <metadata
     id="metadata7">
    <rdf:RDF>
      <cc:Work
         rdf:about="">
        <dc:format>image/svg+xml</dc:format>
        <dc:type
           rdf:resource="http://purl.org/dc/dcmitype/StillImage" />
        <dc:title />
      </cc:Work>
    </rdf:RDF>
  </metadata>
  <g
     inkscape:label="Layer 1"
     inkscape:groupmode="layer"
     id="layer1"
     transform="translate(0,-1004.3622)"
     style="display:inline">
    <rect
       style="fill:url(#linearGradient4149);fill-opacity:1"
       id="rect2985"
       width="44"
       height="44"
       x="2"
       y="1006.3622"
       ry="3.9111114" />
    <path
       inkscape:connector-curvature="0"
       id="path4145"
       style="font-style:normal;font-variant:normal;font-weight:normal;font-stretch:normal;font-size:medium;line-height:125%;font-family:'DejaVu Serif';-inkscape-font-specification:'DejaVu Serif';letter-spacing:0px;word-spacing:0px;display:inline;fill:#1a1a1a;fill-opacity:1;stroke:none"
       d="m 34.815363,1022.9789 q -0.74816,-3.7673 -3.120894,-5.5603 -2.372735,-1.8132 -6.605181,-1.8132 -5.515005,0 -8.229757,3.3443 -2.71475,3.3443 -2.71475,10.1134 0,6.6281 2.800254,10.0328 2.800256,3.4048 8.229757,3.4048 2.415486,0 4.617213,-0.5641 2.201727,-0.5642 4.189694,-1.6923 l 0,-7.7564 -6.006653,0 0,-2.1556 10.345979,0 0,11.2215 q -2.843006,1.5512 -6.134909,2.3369 -3.270527,0.7656 -7.011324,0.7656 -7.225085,0 -11.585787,-4.2508 -4.3393247,-4.2711 -4.3393247,-11.3424 0,-7.1318 4.3607017,-11.3625 4.360701,-4.2508 11.735418,-4.2508 2.736126,0 5.643261,0.6043 2.928511,0.5843 6.220412,1.7931 l 0,7.1317 -2.39411,0 z" />
  </g>
</svg>
