<?xml version="1.0" encoding="UTF-8" standalone="no"?>
<!-- Created with Inkscape (http://www.inkscape.org/) -->

<svg
   xmlns:dc="http://purl.org/dc/elements/1.1/"
   xmlns:cc="http://creativecommons.org/ns#"
   xmlns:rdf="http://www.w3.org/1999/02/22-rdf-syntax-ns#"
   xmlns:svg="http://www.w3.org/2000/svg"
   xmlns="http://www.w3.org/2000/svg"
   xmlns:xlink="http://www.w3.org/1999/xlink"
   xmlns:sodipodi="http://sodipodi.sourceforge.net/DTD/sodipodi-0.dtd"
   xmlns:inkscape="http://www.inkscape.org/namespaces/inkscape"
   width="48"
   height="48"
   id="svg2"
   version="1.1"
   inkscape:version="0.91 r13725"
   sodipodi:docname="gummi.svg">
  <defs
     id="defs4">
    <linearGradient
       inkscape:collect="always"
       id="linearGradient5709">
      <stop
         style="stop-color:#ffffff;stop-opacity:1;"
         offset="0"
         id="stop5711" />
      <stop
         style="stop-color:#ffffff;stop-opacity:0;"
         offset="1"
         id="stop5713" />
    </linearGradient>
    <linearGradient
       inkscape:collect="always"
       xlink:href="#linearGradient5709"
       id="linearGradient5715"
       x1="246.15234"
       y1="572.11847"
       x2="246.63446"
       y2="812.53479"
       gradientUnits="userSpaceOnUse"
       gradientTransform="matrix(0.10666667,0,0,0.10666667,-3.413333,943.52357)" />
  </defs>
  <sodipodi:namedview
     id="base"
     pagecolor="#ffffff"
     bordercolor="#666666"
     borderopacity="1.0"
     inkscape:pageopacity="0.0"
     inkscape:pageshadow="2"
     inkscape:zoom="7.7001279"
     inkscape:cx="24.167795"
     inkscape:cy="18.286241"
     inkscape:document-units="px"
     inkscape:current-layer="svg2"
     showgrid="false"
     inkscape:window-width="1366"
     inkscape:window-height="712"
     inkscape:window-x="0"
     inkscape:window-y="28"
     inkscape:window-maximized="1" />
  <metadata
     id="metadata7">
    <rdf:RDF>
      <cc:Work
         rdf:about="">
        <dc:format>image/svg+xml</dc:format>
        <dc:type
           rdf:resource="http://purl.org/dc/dcmitype/StillImage" />
        <dc:title></dc:title>
      </cc:Work>
    </rdf:RDF>
  </metadata>
  <g
     inkscape:groupmode="layer"
     id="layer3"
     inkscape:label="Layer#1"
     transform="translate(0,-464)" />
  <g
     inkscape:groupmode="layer"
     id="layer4"
     inkscape:label="Layer#2"
     transform="translate(0,-464)" />
  <g
     inkscape:label="Layer 1"
     inkscape:groupmode="layer"
     id="layer1"
     transform="translate(0,-1004.3622)">
    <rect
       style="fill:#51cd51;fill-opacity:1"
       id="rect2985"
       width="48"
       height="48"
       x="0"
       y="1004.3622"
       ry="4.2666669" />
    <rect
       style="opacity:0.33082706;fill:url(#linearGradient5715);fill-opacity:1"
       id="rect2985-8"
       width="48"
       height="48"
       x="0"
       y="1004.3622"
       ry="4.2666669" />
  </g>
  <g
     inkscape:groupmode="layer"
     id="layer2"
     inkscape:label="Layer"
     transform="translate(0,-464)">
    <path
       inkscape:connector-curvature="0"
       id="path4145"
       style="font-style:normal;font-variant:normal;font-weight:normal;font-stretch:normal;font-size:medium;line-height:125%;font-family:'DejaVu Serif';-inkscape-font-specification:'DejaVu Serif';letter-spacing:0px;word-spacing:0px;fill:#1a1a1a;fill-opacity:1;stroke:none"
       d="m 35.676504,481.09864 q -0.816175,-4.10983 -3.404612,-6.06585 -2.588438,-1.97799 -7.205652,-1.97799 -6.016369,0 -8.977915,3.6483 -2.961546,3.6483 -2.961546,11.03281 0,7.23067 3.054823,10.9449 3.054823,3.71424 8.977915,3.71424 2.635076,0 5.03696,-0.61538 2.401884,-0.61538 4.570575,-1.84613 l 0,-8.46141 -6.552712,0 0,-2.35162 11.286522,0 0,12.24158 q -3.101461,1.69228 -6.692628,2.54941 -3.567847,0.83516 -7.648717,0.83516 -7.88191,0 -12.639039,-4.6373 -4.7338096,-4.65928 -4.7338096,-12.37345 0,-7.7801 4.7571296,-12.39543 4.757129,-4.63729 12.802273,-4.63729 2.984865,0 6.156285,0.65933 3.194739,0.63735 6.785904,1.95602 l 0,7.7801 -2.611756,0 z" />
  </g>
</svg>
