<svg height="48" width="48" xmlns="http://www.w3.org/2000/svg" xmlns:xlink="http://www.w3.org/1999/xlink"><linearGradient id="a" gradientTransform="matrix(1.0454545 0 0 1.3529412 -18.571449 -186.22284)" gradientUnits="userSpaceOnUse" x1="409.57144" x2="409.57144" y1="542.79797" y2="507.798"><stop offset="0" stop-color="#3ec896"/><stop offset="1" stop-color="#66d9af"/></linearGradient><clipPath id="b"><rect height="46" ry="2.164706" width="46" x="1.000012" y="1.000004"/></clipPath><g transform="matrix(.94623656 0 0 .94623656 -362.60524 -471.87338)"><rect fill="#1a1a1a" fill-opacity=".666667" height="46" ry="2.164706" width="46" x="385.57144" y="501.298"/><rect fill="url(#a)" height="46" ry="2.164706" width="46" x="385.57144" y="500.798"/><path clip-path="url(#b)" clip-rule="evenodd" d="m24.042969 13c-.412941-.0013-.826222.02091-1.238281.06641-.31892.0352-.553699.309427-.542969.628906.0358 1.02001-.570153 1.963587-1.507813 2.347657-.857465.350237-1.958989.120532-2.626953-.525391l-.0957-.0957-.01953-.01953c-.21801-.21801-.566067-.239428-.810547-.04883-.65927.51724-1.258607 1.108032-1.779297 1.757812-.19689.24491-.174278.597156.04492.816406l.02148.01953.111328.111328.01172.01367c.665765.696109.867241 1.726819.492188 2.621093-.37973.90419-1.319682 1.486329-2.394532 1.486329-.34879-.0112-.596615.223905-.634765.541015-.0968.82642-.09876 1.66687-.0059 2.5.0128.11518.07269.219228.158203.304688l2.978516 2.978515c-.07415.557706-.332471 1.08927-.765625 1.486328-.23533.21618-.266669.576745-.06836.828125.26822.34163.558284.66766.865234.97461l70.710938 70.710939c.27796.27796.56964.53938.875.78515.25204.20308.61941.17433.83789-.0664.361504-.39986.879859-.65271 1.423828-.74414l2.984375 2.98437c.09435.0944.219448.15753.361329.17383.42034.049.843558.0742 1.267578.0742.40248 0 .804541-.0236 1.207031-.0684.31899-.0352.555622-.30886.544922-.62891-.0369-1.01944.569429-1.96229 1.505859-2.3457.863293-.35261 1.959332-.12215 2.626954.52344l.0957.0957.0195.0195c.21892.21887.56416.24113.81054.0508.65804-.51602 1.25811-1.10819 1.78125-1.75976.19647-.24399.17437-.59517-.0449-.81446l-.0215-.0215-.11133-.11133c-.67586-.696229-.88324-1.733589-.50586-2.63281.37392-.89215 1.27958-1.492187 2.25195-1.492187l.13477.0039c.31539.0256.60633-.217123.64453-.539063.0968-.826507.0968-1.667504.004-2.5v-.002c-.0136-.116815-.0738-.224209-.16015-.310547l-2.97461-2.974609c.0748-.556707.33392-1.086419.76562-1.482422.23648-.21618.26472-.578698.0664-.830078-.26894-.34152-.55645-.665813-.86133-.970703l-70.710945-70.710797c-.28002-.28001-.574329-.543512-.880859-.789062-.25072-.2012-.618528-.172341-.835938.06836-.359993.39869-.877833.652538-1.421875.744141l-2.984375-2.984375c-.0942-.0942-.220881-.159201-.363281-.175781-.410835-.047501-.823387-.071017-1.236328-.072267z" fill-opacity=".078431" fill-rule="evenodd" stroke-width="1.317422" transform="translate(384.57143 499.798)"/><path clip-rule="evenodd" d="m419.50232 522.57658c-.0348-.30925-.39537-.54164-.70715-.54164-1.00806 0-1.90258-.5919-2.27773-1.50729-.38325-.93758-.13613-2.03101.61515-2.72016.23648-.21618.26521-.57806.0669-.82944-.51594-.65518-1.10236-1.247-1.74264-1.75991-.25072-.2012-.61858-.1732-.83599.0675-.65567.72615-1.83341.99603-2.74349.6163-.94707-.39839-1.54429-1.35807-1.48585-2.38823.0192-.32358-.21724-.60492-.53984-.64249-.82167-.095-1.65054-.098-2.47466-.007-.31892.0352-.5554.30991-.54467.62939.0358 1.02001-.56858 1.96291-1.50624 2.34698-.89918.36728-2.06866.0997-2.72302-.61998-.21626-.23705-.57814-.2662-.8301-.0698-.65927.51724-1.25886 1.10955-1.77955 1.75933-.20308.2526-.1732.61875.0657.83607.7656.69332 1.01281 1.79625.61507 2.74463-.37973.90419-1.31862 1.48692-2.39347 1.48692-.34879-.0112-.59722.22289-.63537.54-.0968.82642-.0979 1.66847-.005 2.5016.0345.31056.40608.54091.72131.54091.95788-.0245 1.87753.56857 2.26332 1.50737.38456.93758.13735 2.03036-.61507 2.72008-.23533.21618-.26521.57749-.0669.82887.51111.651 1.0976 1.24339 1.74017 1.76056.25204.20308.61875.17443.83723-.0663.65812-.72794 1.83578-.99733 2.74225-.61686.94945.39716 1.54667 1.35676 1.48822 2.38749-.0191.32374.21856.60557.53984.64257.42034.049.8432.0735 1.26722.0735.40248 0 .80505-.0221 1.20754-.0669.31899-.0352.55531-.30991.54458-.62996-.0369-1.01944.56858-1.96234 1.50501-2.34575.90524-.36974 2.06981-.0991 2.72425.61981.21749.23657.57683.26514.83018.0694.65804-.51602 1.25641-1.10784 1.77955-1.75941.203-.25204.17435-.61875-.0657-.836-.7656-.69332-1.01403-1.79641-.6163-2.74414.37392-.89215 1.27794-1.49117 2.25031-1.49117l.13604.004c.31539.0256.60557-.21733.6438-.53927.0969-.82715.0981-1.66847.005-2.5016zm-10.91345 4.91382c-2.02331 0-3.66911-1.6458-3.66911-3.66911 0-2.02324 1.6458-3.66911 3.66911-3.66911 2.02324 0 3.66903 1.64587 3.66903 3.66911 0 2.02331-1.64579 3.66911-3.66903 3.66911z" fill="#fff" fill-opacity=".846939" fill-rule="evenodd" stroke-width="1.317422"/></g></svg>