<?xml version="1.0" encoding="UTF-8" standalone="no"?>
<!-- Created with Inkscape (http://www.inkscape.org/) -->

<svg
   xmlns:dc="http://purl.org/dc/elements/1.1/"
   xmlns:cc="http://creativecommons.org/ns#"
   xmlns:rdf="http://www.w3.org/1999/02/22-rdf-syntax-ns#"
   xmlns:svg="http://www.w3.org/2000/svg"
   xmlns="http://www.w3.org/2000/svg"
   xmlns:xlink="http://www.w3.org/1999/xlink"
   xmlns:sodipodi="http://sodipodi.sourceforge.net/DTD/sodipodi-0.dtd"
   xmlns:inkscape="http://www.inkscape.org/namespaces/inkscape"
   width="48"
   height="48"
   viewBox="0 0 48 48"
   id="svg2"
   version="1.1"
   inkscape:version="0.91 r13725"
   sodipodi:docname="imagemagick.svg">
  <defs
     id="defs4">
    <linearGradient
       inkscape:collect="always"
       id="linearGradient4890">
      <stop
         style="stop-color:#2d2d2d;stop-opacity:1;"
         offset="0"
         id="stop4892" />
      <stop
         style="stop-color:#3c3c3c;stop-opacity:1"
         offset="1"
         id="stop4894" />
    </linearGradient>
    <linearGradient
       inkscape:collect="always"
       id="linearGradient4874">
      <stop
         style="stop-color:#00aad4;stop-opacity:1"
         offset="0"
         id="stop4876" />
      <stop
         style="stop-color:#2ad4ff;stop-opacity:1"
         offset="1"
         id="stop4878" />
    </linearGradient>
    <linearGradient
       inkscape:collect="always"
       xlink:href="#linearGradient4874"
       id="linearGradient4880"
       x1="23.738585"
       y1="1049.9631"
       x2="23.738585"
       y2="1006.4003"
       gradientUnits="userSpaceOnUse"
       gradientTransform="matrix(0.98458222,0,0,0.98458222,-113.45487,11.711596)" />
    <linearGradient
       inkscape:collect="always"
       xlink:href="#linearGradient4890"
       id="linearGradient4896"
       x1="22.86278"
       y1="35.870255"
       x2="22.736509"
       y2="12.005401"
       gradientUnits="userSpaceOnUse"
       gradientTransform="translate(0.37072957,1003.6125)" />
  </defs>
  <sodipodi:namedview
     id="base"
     pagecolor="#ffffff"
     bordercolor="#666666"
     borderopacity="1.0"
     inkscape:pageopacity="0.0"
     inkscape:pageshadow="2"
     inkscape:zoom="5.6"
     inkscape:cx="36.775446"
     inkscape:cy="11.636703"
     inkscape:document-units="px"
     inkscape:current-layer="layer1"
     showgrid="false"
     units="px"
     inkscape:window-width="1366"
     inkscape:window-height="712"
     inkscape:window-x="0"
     inkscape:window-y="28"
     inkscape:window-maximized="1" />
  <metadata
     id="metadata7">
    <rdf:RDF>
      <cc:Work
         rdf:about="">
        <dc:format>image/svg+xml</dc:format>
        <dc:type
           rdf:resource="http://purl.org/dc/dcmitype/StillImage" />
        <dc:title></dc:title>
      </cc:Work>
    </rdf:RDF>
  </metadata>
  <g
     inkscape:label="Layer 1"
     inkscape:groupmode="layer"
     id="layer1"
     transform="translate(0,-1004.3622)">
    <rect
       ry="3.938329"
       y="1003.5425"
       x="-111.48572"
       height="43.321617"
       width="43.321617"
       id="rect5299"
       style="opacity:1;fill:#006680;fill-opacity:1;stroke:none"
       rx="3.938329"
       transform="matrix(0.99387958,-0.11046892,0.11046892,0.99387958,0,0)" />
    <rect
       style="opacity:1;fill:url(#linearGradient4880);fill-opacity:1;stroke:none"
       id="rect4136"
       width="43.321617"
       height="43.321617"
       x="-111.48572"
       y="1002.5577"
       ry="3.938329"
       rx="3.938329"
       transform="matrix(0.99387958,-0.11046892,0.11046892,0.99387958,0,0)" />
    <path
       id="path4270"
       style="fill:#ff7036;fill-opacity:0;fill-rule:nonzero;stroke:none"
       d="m 22.65573,1024.0695 2.656,-0.141 1.406,-2.113 0.965,2.41 2.559,0.914 -1.973,1.574 -0.043,2.555 -2.094,-1.34 -2.801,0.902 0.785,-2.477 m -1.461,-2.285"
       inkscape:connector-curvature="0" />
    <path
       id="path4272"
       style="fill:#ffe236;fill-opacity:0;fill-rule:nonzero;stroke:none"
       d="m 22.25773,1031.7525 2.496,-0.918 0.715,-2.438 1.633,2.01 2.715,0.117 -1.414,2.086 0.715,2.453 -2.395,-0.656 -2.406,1.691 0.016,-2.598 m -2.074,-1.746"
       inkscape:connector-curvature="0" />
    <path
       id="path4274"
       style="fill:#ff2fbf;fill-opacity:0;fill-rule:nonzero;stroke:none"
       d="m 15.79673,1028.5225 2.652,0.199 1.66,-1.922 0.652,2.512 2.422,1.234 -2.156,1.309 -0.367,2.527 -1.902,-1.59 -2.895,0.539 1.09,-2.355 m -1.156,-2.453"
       inkscape:connector-curvature="0" />
    <path
       id="path4276"
       style="fill:url(#linearGradient4896);fill-opacity:1;fill-rule:nonzero;stroke:none"
       d="m 26.72973,1015.7025 c -2.48,0.32 -5.145,1.527 -7.313,5.098 -4.957,8.16 -4.605,11 -5.395,11.918 -0.793,0.914 -2.93,1.41 -2.621,2.449 0.309,1.035 0.621,0.902 0.621,0.902 0,0 3.121,4.52 12.172,3.348 9.05,-1.172 10.305,-3.082 10.223,-4.03 -0.082,-0.949 -1.992,-1.641 -1.992,-1.641 0,0 -1.414,-4.984 -1.051,-7.03 0.363,-2.047 1.742,-5.03 3.105,-5.672 1.359,-0.648 2.039,2.168 2.742,1.473 0.699,-0.695 -1.18,-6.06 -3.258,-6.102 -1.164,-0.023 -4.059,-1.121 -7.234,-0.707 m 0.008,6.848 0.691,2.043 2.098,0.594 -1.773,1.262 0.078,2.145 -1.773,-1.262 -2.09,0.73 0.672,-2.02 -1.348,-1.695 2.203,-0.02 m -5.84,4.227 0.074,1.48 1.324,0.793 -1.43,0.516 -0.359,1.465 -0.973,-1.141 -1.523,0.098 0.816,-1.234 -0.582,-1.387 1.477,0.383 m 7.082,-0.664 1.418,1.898 2.395,-0.094 -1.391,1.922 0.816,2.188 -2.297,-0.711 -1.887,1.457 -0.016,-2.359 -1.988,-1.297 2.277,-0.746 m 0.672,-2.258"
       inkscape:connector-curvature="0" />
  </g>
</svg>
