<svg height="48" width="48" xmlns="http://www.w3.org/2000/svg">
	<defs>
		<linearGradient id="bg" x1="0" x2="0" y1="1" y2="0">
			<stop offset="0" stop-color="#95A9BB"/>
			<stop offset="1" stop-color="#CAD3DC"/>
		</linearGradient>
	</defs>
	<g transform="rotate(-8 24 24)">
		<rect x="5.8" y="5.8" width="37" height="37" rx="2" fill="url(#bg)" />
		<path d="m 23.542234,11.540918 c -0.779729,0.02036 -1.542164,0.32362 -2.081138,0.902919 l -9.061962,9.77807 c -3.433717,3.616661 2.36645,3.170884 4.503123,4.449046 0.988351,0.607257 -3.080117,1.52755 -2.222064,2.34169 0.83545,0.814727 4.946441,1.475814 5.781302,2.267949 0.835451,0.814728 -1.605637,1.759653 -0.770185,2.574383 0.812852,0.81532 2.690544,-0.0242 3.079101,1.864831 0.285176,1.394322 3.499241,0.609246 4.914434,-0.62598 0.883981,-0.791787 -1.580017,-0.727406 -0.788211,-1.584614 1.980402,-2.109128 3.818311,-1.027385 4.514595,-2.944729 0.380273,-1.027338 -3.120123,-1.659004 -2.210595,-2.338412 2.174184,-1.616786 10.291336,-2.620286 6.441696,-6.27291 l -9.909166,-9.620755 c -0.613666,-0.54921 -1.411202,-0.811842 -2.19093,-0.791488 z m 0.09177,0.485053 c 0.559443,-0.01178 1.122937,0.184028 1.540369,0.580096 l 3.7821,3.654282 c 0.347859,0.330056 0.366883,1.030197 0.168784,1.238851 l -1.869746,-1.443687 -0.304796,2.200761 -1.535454,-0.773462 -2.421985,1.622304 -0.899642,-3.25444 -1.237212,2.880819 -3.277382,0.06391 c -0.632823,0.01652 -0.559658,-0.641903 0.07866,-1.31423 1.25109,-1.457035 3.696225,-3.939834 4.465433,-4.79645 0.395903,-0.428603 0.95143,-0.646975 1.510874,-0.658753 z m 10.749814,17.319326 c -0.781817,0.04867 -1.567228,0.459742 -1.751761,1.188052 0.01238,0.474468 3.703121,0.650054 3.477302,-0.203199 -0.165778,-0.719164 -0.943725,-1.033523 -1.725541,-0.984853 z m -2.177821,2.194208 c -1.014865,0.976077 0.230722,1.938645 1.230657,1.256876 0.26649,-0.187829 -0.04953,-1.061616 -1.230657,-1.256876 z m -13.669961,0.2753 c -1.129262,-0.04895 -2.551736,0.832396 -1.546925,1.637052 0.855104,0.701171 2.097428,-0.21315 2.477701,-1.240489 -0.210337,-0.260167 -0.554356,-0.380247 -0.930776,-0.396563 z" fill="#444D54" />
	</g>
</svg>
