<?xml version="1.0" encoding="UTF-8" standalone="no"?>
<!-- Created with Inkscape (http://www.inkscape.org/) -->

<svg
   xmlns:osb="http://www.openswatchbook.org/uri/2009/osb"
   xmlns:dc="http://purl.org/dc/elements/1.1/"
   xmlns:cc="http://creativecommons.org/ns#"
   xmlns:rdf="http://www.w3.org/1999/02/22-rdf-syntax-ns#"
   xmlns:svg="http://www.w3.org/2000/svg"
   xmlns="http://www.w3.org/2000/svg"
   xmlns:xlink="http://www.w3.org/1999/xlink"
   xmlns:sodipodi="http://sodipodi.sourceforge.net/DTD/sodipodi-0.dtd"
   xmlns:inkscape="http://www.inkscape.org/namespaces/inkscape"
   width="48"
   height="48"
   id="svg5453"
   version="1.1"
   inkscape:version="0.91 r13725"
   sodipodi:docname="input-mouse.svg">
  <defs
     id="defs5455">
    <linearGradient
       gradientTransform="matrix(4.5260695,0,0,3.909163,169.40049,-131.99168)"
       gradientUnits="userSpaceOnUse"
       xlink:href="#linearGradient3600-8"
       id="linearGradient4146"
       y2="49.956139"
       x2="18.601307"
       y1="0.85446119"
       x1="18.601307" />
    <linearGradient
       id="linearGradient3600-8">
      <stop
         offset="0"
         style="stop-color:#f4f4f4;stop-opacity:1"
         id="stop3602-2" />
      <stop
         offset="1"
         style="stop-color:#dbdbdb;stop-opacity:1"
         id="stop3604-5" />
    </linearGradient>
    <linearGradient
       gradientTransform="matrix(2.1270816,0,0,2.1291811,305.645,-60.46459)"
       gradientUnits="userSpaceOnUse"
       xlink:href="#linearGradient3104-5"
       id="linearGradient4148"
       y2="2.103905"
       x2="-74.784531"
       y1="54.702854"
       x1="-74.784531" />
    <linearGradient
       id="linearGradient3104-5">
      <stop
         offset="0"
         style="stop-color:#aaaaaa;stop-opacity:1"
         id="stop3106-2" />
      <stop
         offset="1"
         style="stop-color:#c8c8c8;stop-opacity:1"
         id="stop3108-2" />
    </linearGradient>
    <linearGradient
       osb:paint="gradient"
       id="linearGradient4207">
      <stop
         id="stop3371"
         offset="0"
         style="stop-color:#3498db;stop-opacity:1;" />
      <stop
         id="stop3373"
         offset="1"
         style="stop-color:#3498db;stop-opacity:0;" />
    </linearGradient>
  </defs>
  <sodipodi:namedview
     id="base"
     pagecolor="#757575"
     bordercolor="#666666"
     borderopacity="1.0"
     inkscape:pageopacity="0"
     inkscape:pageshadow="2"
     inkscape:zoom="11.313708"
     inkscape:cx="30.044196"
     inkscape:cy="22.696816"
     inkscape:document-units="px"
     inkscape:current-layer="layer1-8"
     showgrid="false"
     fit-margin-top="0"
     fit-margin-left="0"
     fit-margin-right="0"
     fit-margin-bottom="0"
     inkscape:window-width="1366"
     inkscape:window-height="630"
     inkscape:window-x="0"
     inkscape:window-y="36"
     inkscape:window-maximized="1"
     inkscape:showpageshadow="false"
     borderlayer="true"
     showguides="false"
     inkscape:snap-bbox="true">
    <inkscape:grid
       type="xygrid"
       id="grid4063" />
    <sodipodi:guide
       position="4.2167969e-05,32.000026"
       orientation="32,0"
       id="guide4625" />
    <sodipodi:guide
       position="4.2167969e-05,2.6367188e-05"
       orientation="0,31.999969"
       id="guide4627" />
    <sodipodi:guide
       position="32.000012,2.6367188e-05"
       orientation="-32,0"
       id="guide4629" />
    <sodipodi:guide
       position="32.000012,32.000026"
       orientation="0,-31.999969"
       id="guide4631" />
    <sodipodi:guide
       position="2.0000422,30.000026"
       orientation="28,0"
       id="guide4633" />
    <sodipodi:guide
       position="2.0000422,2.0000264"
       orientation="0,27.999969"
       id="guide4635" />
    <sodipodi:guide
       position="30,17"
       orientation="-28,0"
       id="guide4637" />
    <sodipodi:guide
       position="30.000012,30.000026"
       orientation="0,-27.999969"
       id="guide4639" />
    <sodipodi:guide
       position="2.0000422,16.000271"
       orientation="14,0"
       id="guide4277" />
    <sodipodi:guide
       position="2.0000422,2.0002705"
       orientation="0,13.999969"
       id="guide4279" />
    <sodipodi:guide
       position="16.000012,2.0002705"
       orientation="-14,0"
       id="guide4281" />
    <sodipodi:guide
       position="16.000012,16.000271"
       orientation="0,-13.999969"
       id="guide4283" />
    <sodipodi:guide
       position="7.0000117,29.999721"
       orientation="28,0"
       id="guide4252" />
    <sodipodi:guide
       position="7.0000117,1.9997212"
       orientation="0,18"
       id="guide4254" />
    <sodipodi:guide
       position="25.000012,1.9997212"
       orientation="-28,0"
       id="guide4256" />
    <sodipodi:guide
       position="25.000012,29.999721"
       orientation="0,-18"
       id="guide4258" />
  </sodipodi:namedview>
  <metadata
     id="metadata5458">
    <rdf:RDF>
      <cc:Work
         rdf:about="">
        <dc:format>image/svg+xml</dc:format>
        <dc:type
           rdf:resource="http://purl.org/dc/dcmitype/StillImage" />
        <dc:title />
      </cc:Work>
    </rdf:RDF>
  </metadata>
  <g
     inkscape:label="Capa 1"
     inkscape:groupmode="layer"
     id="layer1"
     transform="translate(-384.57143,-499.798)">
    <g
       id="g4283">
      <g
         id="layer1-8"
         transform="matrix(0.24561402,0,0,0.24561402,359.72548,531.8371)">
        <path
           d="m 194.25614,-124.3297 c -11.91121,0.13229 -24.71739,1.21786 -33.444,9.39879 -13.36599,12.53019 -11.67828,21.197392 -12.9911,38.347077 -2.67995,35.008675 -1.64247,82.9878676 5.47558,117.458048 2.08793,10.111034 11.6248,17.226083 21.7413,19.173544 7.76443,1.494659 15.79434,2.626878 23.83489,2.900195 8.04053,-0.273317 16.07045,-1.405536 23.83488,-2.900195 10.1165,-1.947461 19.65339,-9.06251 21.7413,-19.173544 7.11807,-34.4701718 8.15553,-82.449373 5.47559,-117.458048 -1.31282,-17.149685 0.37488,-25.816887 -12.99111,-38.347077 -8.72661,-8.18093 -21.53279,-9.2665 -33.444,-9.39879 -1.55677,-0.0173 -3.10124,-0.002 -4.61666,0 -1.51543,-0.002 -3.05988,-0.0173 -4.61667,0 z"
           inkscape:connector-curvature="0"
           id="path4188"
           style="color:#000000;display:inline;overflow:visible;visibility:visible;fill:#000000;fill-opacity:0.66666669;fill-rule:nonzero;stroke:none;stroke-width:0.81428576;stroke-linecap:butt;stroke-linejoin:round;stroke-miterlimit:4;stroke-dasharray:none;stroke-dashoffset:0;stroke-opacity:1;marker:none;enable-background:accumulate" />
        <path
           style="color:#000000;display:inline;overflow:visible;visibility:visible;fill:url(#linearGradient4146);fill-opacity:1;fill-rule:nonzero;stroke:none;stroke-width:0.81428576;stroke-linecap:butt;stroke-linejoin:round;stroke-miterlimit:4;stroke-dasharray:none;stroke-dashoffset:0;stroke-opacity:1;marker:none;enable-background:accumulate"
           id="path4487"
           inkscape:connector-curvature="0"
           d="m 194.25614,-126.36541 c -11.91121,0.13229 -24.71739,1.21786 -33.444,9.39879 -13.36599,12.53019 -11.67828,21.197389 -12.9911,38.347074 -2.67995,35.008675 -1.64247,82.9878677 5.47558,117.458048 2.08793,10.111034 11.6248,17.226083 21.7413,19.173544 7.76443,1.494659 15.79434,2.626878 23.83489,2.900195 8.04053,-0.273317 16.07045,-1.405536 23.83488,-2.900195 10.1165,-1.947461 19.65339,-9.06251 21.7413,-19.173544 7.11807,-34.4701717 8.15553,-82.449373 5.47559,-117.458048 -1.31282,-17.149685 0.37488,-25.816884 -12.99111,-38.347074 -8.72661,-8.18093 -21.53279,-9.2665 -33.444,-9.39879 -1.55677,-0.0173 -3.10124,-0.002 -4.61666,0 -1.51543,-0.002 -3.05988,-0.0173 -4.61667,0 z" />
        <path
           style="opacity:1;fill:#808080;fill-opacity:0.78431373;stroke:none;stroke-opacity:0.07843137"
           d="m 198.87281,-101.94491 c 2.25557,0 4.07143,2.237389 4.07143,5.016579 l 0,14.395409 c 0,2.779186 -1.81586,5.016582 -4.07143,5.016582 -2.25557,0 -4.07143,-2.237396 -4.07143,-5.016582 l 0,-14.395409 c 0,-2.77919 1.81586,-5.016579 4.07143,-5.016579 z"
           id="rect4183"
           inkscape:connector-curvature="0" />
        <path
           inkscape:connector-curvature="0"
           id="path4186"
           d="m 198.87281,-97.873482 c 2.25557,0 4.07143,2.237389 4.07143,5.016579 l 0,14.395409 c 0,2.779186 -1.81586,5.016582 -4.07143,5.016582 -2.25557,0 -4.07143,-2.237396 -4.07143,-5.016582 l 0,-14.395409 c 0,-2.77919 1.81586,-5.016579 4.07143,-5.016579 z"
           style="opacity:1;fill:#808080;fill-opacity:0.78431373;stroke:none;stroke-opacity:0.07843137" />
      </g>
    </g>
  </g>
</svg>
