<?xml version="1.0" encoding="UTF-8" standalone="no"?>
<!-- Created with Inkscape (http://www.inkscape.org/) -->

<svg
   xmlns:dc="http://purl.org/dc/elements/1.1/"
   xmlns:cc="http://creativecommons.org/ns#"
   xmlns:rdf="http://www.w3.org/1999/02/22-rdf-syntax-ns#"
   xmlns:svg="http://www.w3.org/2000/svg"
   xmlns="http://www.w3.org/2000/svg"
   xmlns:xlink="http://www.w3.org/1999/xlink"
   xmlns:sodipodi="http://sodipodi.sourceforge.net/DTD/sodipodi-0.dtd"
   xmlns:inkscape="http://www.inkscape.org/namespaces/inkscape"
   width="48"
   height="48"
   id="svg5453"
   version="1.1"
   inkscape:version="0.91 r13725"
   sodipodi:docname="akregator.svg">
  <defs
     id="defs5455">
    <linearGradient
       id="linearGradient4422">
      <stop
         style="stop-color:#f15f19;stop-opacity:1"
         offset="0"
         id="stop4424" />
      <stop
         style="stop-color:#fbb521;stop-opacity:1"
         offset="1"
         id="stop4426" />
    </linearGradient>
    <linearGradient
       id="linearGradient4232">
      <stop
         id="stop4234-0"
         offset="0"
         style="stop-color:#3889e9;stop-opacity:1" />
      <stop
         id="stop4236"
         offset="1"
         style="stop-color:#5ea5fb;stop-opacity:1" />
    </linearGradient>
    <linearGradient
       inkscape:collect="always"
       xlink:href="#linearGradient4232"
       id="linearGradient3426"
       x1="399.57144"
       y1="545.79797"
       x2="399.57144"
       y2="517.79797"
       gradientUnits="userSpaceOnUse" />
    <linearGradient
       inkscape:collect="always"
       xlink:href="#linearGradient4422"
       id="linearGradient4181"
       gradientUnits="userSpaceOnUse"
       x1="399.9939"
       y1="545.13873"
       x2="399.9939"
       y2="518.13873" />
  </defs>
  <sodipodi:namedview
     id="base"
     pagecolor="#5a5a5a"
     bordercolor="#666666"
     borderopacity="1.0"
     inkscape:pageopacity="0"
     inkscape:pageshadow="2"
     inkscape:zoom="3.52"
     inkscape:cx="-81.557693"
     inkscape:cy="22.217104"
     inkscape:document-units="px"
     inkscape:current-layer="g4471"
     showgrid="false"
     fit-margin-top="0"
     fit-margin-left="0"
     fit-margin-right="0"
     fit-margin-bottom="0"
     inkscape:window-width="1362"
     inkscape:window-height="642"
     inkscape:window-x="0"
     inkscape:window-y="33"
     inkscape:window-maximized="0"
     inkscape:showpageshadow="false"
     borderlayer="true"
     showguides="false"
     inkscape:snap-bbox="true"
     inkscape:bbox-paths="false"
     inkscape:bbox-nodes="true"
     inkscape:object-nodes="true"
     inkscape:snap-center="true"
     showborder="false">
    <inkscape:grid
       type="xygrid"
       id="grid4063" />
    <sodipodi:guide
       position="1.1650391e-05,47.999996"
       orientation="4,0"
       id="guide4146" />
    <sodipodi:guide
       position="1.1650391e-05,43.999996"
       orientation="0,48"
       id="guide4148" />
    <sodipodi:guide
       position="48.000012,43.999996"
       orientation="-4,0"
       id="guide4150" />
    <sodipodi:guide
       position="48.000012,47.999996"
       orientation="0,-48"
       id="guide4152" />
    <sodipodi:guide
       position="1.1650391e-05,4.0000264"
       orientation="4,0"
       id="guide4154" />
    <sodipodi:guide
       position="1.1650391e-05,2.6367188e-05"
       orientation="0,48"
       id="guide4156" />
    <sodipodi:guide
       position="48.000012,2.6367188e-05"
       orientation="-4,0"
       id="guide4158" />
    <sodipodi:guide
       position="48.000012,4.0000264"
       orientation="0,-48"
       id="guide4160" />
    <sodipodi:guide
       position="48.000012,48.000026"
       orientation="0,-4"
       id="guide4162" />
    <sodipodi:guide
       position="44.000012,48.000026"
       orientation="48,0"
       id="guide4164" />
    <sodipodi:guide
       position="44.000012,2.6367188e-05"
       orientation="0,4"
       id="guide4166" />
    <sodipodi:guide
       position="48.000012,2.6367188e-05"
       orientation="-48,0"
       id="guide4168" />
    <sodipodi:guide
       position="4.0000422,48.000026"
       orientation="0,-4"
       id="guide4170" />
    <sodipodi:guide
       position="4.2167969e-05,48.000026"
       orientation="48,0"
       id="guide4172" />
    <sodipodi:guide
       position="4.2167969e-05,2.6367188e-05"
       orientation="0,4"
       id="guide4174" />
    <sodipodi:guide
       position="4.0000422,43.999996"
       orientation="39.999969,0"
       id="guide4175" />
    <sodipodi:guide
       position="4.0000422,4.0000264"
       orientation="0,20"
       id="guide4177" />
    <sodipodi:guide
       position="24.000042,4.0000264"
       orientation="-39.999969,0"
       id="guide4179" />
    <sodipodi:guide
       position="24.000042,43.999996"
       orientation="0,-20"
       id="guide4181" />
    <sodipodi:guide
       position="4.0000422,23.999843"
       orientation="20,0"
       id="guide4185" />
    <sodipodi:guide
       position="44.000012,3.9998433"
       orientation="-20,0"
       id="guide4189" />
    <sodipodi:guide
       position="44.000012,23.999843"
       orientation="0,-39.999969"
       id="guide4191" />
  </sodipodi:namedview>
  <metadata
     id="metadata5458">
    <rdf:RDF>
      <cc:Work
         rdf:about="">
        <dc:format>image/svg+xml</dc:format>
        <dc:type
           rdf:resource="http://purl.org/dc/dcmitype/StillImage" />
        <dc:title></dc:title>
      </cc:Work>
    </rdf:RDF>
  </metadata>
  <g
     inkscape:label="Capa 1"
     inkscape:groupmode="layer"
     id="layer1"
     transform="translate(-384.57143,-499.798)">
    <g
       id="g4471"
       transform="matrix(1.0931221,0,0,1.0931221,33.310366,-50.486049)">
      <g
         inkscape:label="Capa 1"
         id="layer1-39"
         transform="matrix(1.5444819,0,0,1.5444819,-275.38426,-295.80854)" />
      <g
         id="g4317"
         transform="matrix(1.0749621,0,0,1.0749621,-25.666825,-39.659158)">
        <g
           transform="matrix(0.9445804,0,0,0.9445804,18.835253,29.227482)"
           id="g4320">
          <g
             id="layer1-3"
             inkscape:label="Capa 1"
             transform="matrix(1.5444819,0,0,1.5444819,-275.17538,-295.73877)"
             style="stroke:none;stroke-width:1.29989684;stroke-miterlimit:4;stroke-dasharray:none;stroke-opacity:1">
            <circle
               r="13.999958"
               cy="531.79791"
               cx="400.57138"
               id="path3377"
               style="opacity:1;fill:url(#linearGradient4181);fill-opacity:1;stroke:none;stroke-width:0.94059104;stroke-miterlimit:4;stroke-dasharray:none;stroke-dashoffset:0;stroke-opacity:1" />
            <circle
               style="opacity:1;fill:#5ea5fb;fill-opacity:0;stroke:none;stroke-width:1.29989684;stroke-miterlimit:4;stroke-dasharray:none;stroke-dashoffset:0;stroke-opacity:1"
               id="circle4174"
               cx="400.57144"
               cy="531.79797"
               r="13.999958" />
            <circle
               style="opacity:1;fill:url(#linearGradient3426);fill-opacity:1;stroke:none;stroke-width:1.29989684;stroke-miterlimit:4;stroke-dasharray:none;stroke-dashoffset:0;stroke-opacity:1"
               id="ellipse4233"
               cx="400.57138"
               cy="531.79791"
               r="0" />
          </g>
        </g>
        <g
           style="fill:#692c0b;fill-opacity:1"
           transform="matrix(0.03654726,0,0,0.03654726,333.61054,515.50588)"
           id="g4347">
          <g
             style="fill:#692c0b;fill-opacity:1"
             id="g4305">
            <g
               style="fill:#692c0b;fill-opacity:1"
               id="g4307">
              <path
                 inkscape:connector-curvature="0"
                 style="fill:#692c0b;fill-opacity:1"
                 d="m 53.244,0.002 c 46.512,0 91.29,6.018 134.334,18.054 43.044,12.036 83.334,29.07 120.869,51.102 37.537,22.032 71.707,48.45 102.514,79.254 30.803,30.804 57.221,64.974 79.254,102.51 22.029,37.539 39.063,77.828 51.102,120.873 12.037,43.043 18.055,87.818 18.055,134.334 0,14.688 -5.201,27.23 -15.605,37.637 -10.404,10.407 -22.949,15.604 -37.637,15.604 -14.689,0 -27.234,-5.199 -37.641,-15.604 -10.402,-10.404 -15.604,-22.949 -15.604,-37.637 0,-36.723 -4.795,-72.115 -14.383,-106.186 -9.588,-34.064 -23.055,-65.891 -40.395,-95.471 -17.34,-29.581 -38.145,-56.509 -62.424,-80.785 -24.277,-24.276 -51.203,-45.084 -80.784,-62.424 -29.58,-17.34 -61.404,-30.804 -95.472,-40.392 -34.068,-9.588 -69.462,-14.382 -106.182,-14.382 -14.688,0 -27.234,-5.202 -37.638,-15.606 C 5.203,80.479 0.001,67.933 0.001,53.245 0.001,38.557 5.203,26.011 15.607,15.607 26.01,5.204 38.556,0.002 53.244,0.002 Z m 0,201.348 c 42.024,0 81.498,8.058 118.422,24.174 36.924,16.116 69.156,37.944 96.696,65.484 27.541,27.541 49.369,59.771 65.484,96.693 16.117,36.928 24.174,76.398 24.174,118.426 0,14.688 -5.201,27.23 -15.604,37.637 -10.404,10.404 -22.949,15.604 -37.641,15.604 -14.688,0 -27.233,-5.199 -37.637,-15.604 -10.404,-10.404 -15.606,-22.949 -15.606,-37.637 0,-27.338 -5.202,-53.041 -15.606,-77.113 C 225.522,404.942 211.344,383.93 193.392,365.979 175.44,348.026 154.428,333.848 130.356,323.444 106.284,313.042 80.58,307.84 53.244,307.84 38.556,307.84 26.01,302.639 15.606,292.235 5.202,281.83 0,269.284 0,254.596 0,239.908 5.202,227.362 15.606,216.958 26.01,206.552 38.556,201.35 53.244,201.35 Z m 97.92,279.683 c 0,10.609 -1.938,20.4 -5.814,29.377 -3.876,8.979 -9.18,16.83 -15.912,23.563 -6.732,6.729 -14.688,12.035 -23.868,15.912 -9.18,3.875 -18.87,5.811 -29.07,5.811 -10.608,0 -20.4,-1.938 -29.376,-5.811 C 38.148,546.01 30.294,540.701 23.562,533.973 16.83,527.241 11.526,519.387 7.65,510.41 3.774,501.433 1.836,491.642 1.836,481.033 c 0,-10.197 1.938,-19.889 5.814,-29.066 3.876,-9.184 9.18,-17.139 15.912,-23.869 6.732,-6.732 14.586,-12.035 23.562,-15.912 8.976,-3.875 18.768,-5.814 29.376,-5.814 10.2,0 19.89,1.939 29.07,5.814 9.18,3.877 17.136,9.18 23.868,15.912 6.732,6.73 12.036,14.688 15.912,23.869 3.876,9.178 5.814,18.867 5.814,29.066 z"
                 id="path4309" />
            </g>
          </g>
          <g
             style="fill:#692c0b;fill-opacity:1"
             id="g4311" />
          <g
             style="fill:#692c0b;fill-opacity:1"
             id="g4313" />
          <g
             style="fill:#692c0b;fill-opacity:1"
             id="g4315" />
          <g
             style="fill:#692c0b;fill-opacity:1"
             id="g4331" />
          <g
             style="fill:#692c0b;fill-opacity:1"
             id="g4319" />
          <g
             style="fill:#692c0b;fill-opacity:1"
             id="g4321" />
          <g
             style="fill:#692c0b;fill-opacity:1"
             id="g4323" />
          <g
             style="fill:#692c0b;fill-opacity:1"
             id="g4325" />
          <g
             style="fill:#692c0b;fill-opacity:1"
             id="g4327" />
          <g
             style="fill:#692c0b;fill-opacity:1"
             id="g4329" />
          <g
             style="fill:#692c0b;fill-opacity:1"
             id="g4339" />
          <g
             style="fill:#692c0b;fill-opacity:1"
             id="g4333" />
          <g
             style="fill:#692c0b;fill-opacity:1"
             id="g4335" />
          <g
             style="fill:#692c0b;fill-opacity:1"
             id="g4337" />
          <g
             style="fill:#692c0b;fill-opacity:1"
             id="g4344" />
        </g>
      </g>
    </g>
  </g>
</svg>
