<svg height="48" width="48" xmlns="http://www.w3.org/2000/svg" xmlns:xlink="http://www.w3.org/1999/xlink"><linearGradient id="a" gradientUnits="userSpaceOnUse" x1="23" x2="23" y1="1" y2="47"><stop offset="0" stop-color="#8d3aff"/><stop offset="1" stop-color="#ff3680"/></linearGradient><circle cx="24" cy="24" fill="url(#a)" r="22"/><path d="m20.73229 15.057279c-.774637.217394-1.398203 1.081841-1.398203 1.921626v13.313565c-.785495-.430654-1.794277-.604796-2.840142-.320193-1.887226.513409-3.069888 2.172771-2.665349 3.705848.404567 1.53298 2.263687 2.389238 4.150983 1.875704 1.505607-.409587 2.543505-1.56861 2.708989-2.790776l.04412-12.581599 9.787489-2.745089v9.928062c-.785495-.430682-1.794263-.60481-2.840156-.320304-1.887212.513437-3.069846 2.172882-2.665321 3.705862.40458 1.533063 2.263701 2.389211 4.150941 1.875787 1.505635-.409587 2.543519-1.568583 2.70903-2.790762l.04426-16.379027c0-.629735-.371716-1.100874-.873866-1.189494z" fill="#fff" opacity=".75"/></svg>