<?xml version="1.0" encoding="UTF-8" standalone="no"?>
<svg
   xmlns:dc="http://purl.org/dc/elements/1.1/"
   xmlns:cc="http://creativecommons.org/ns#"
   xmlns:rdf="http://www.w3.org/1999/02/22-rdf-syntax-ns#"
   xmlns:svg="http://www.w3.org/2000/svg"
   xmlns="http://www.w3.org/2000/svg"
   xmlns:xlink="http://www.w3.org/1999/xlink"
   xmlns:sodipodi="http://sodipodi.sourceforge.net/DTD/sodipodi-0.dtd"
   xmlns:inkscape="http://www.inkscape.org/namespaces/inkscape"
   viewBox="0 0 48 48"
   id="svg2"
   version="1.1"
   inkscape:version="0.91 r13725"
   sodipodi:docname="jitsi.svg">
  <metadata
     id="metadata19">
    <rdf:RDF>
      <cc:Work
         rdf:about="">
        <dc:format>image/svg+xml</dc:format>
        <dc:type
           rdf:resource="http://purl.org/dc/dcmitype/StillImage" />
      </cc:Work>
    </rdf:RDF>
  </metadata>
  <sodipodi:namedview
     pagecolor="#ffffff"
     bordercolor="#666666"
     borderopacity="1"
     objecttolerance="10"
     gridtolerance="10"
     guidetolerance="10"
     inkscape:pageopacity="0"
     inkscape:pageshadow="2"
     inkscape:window-width="640"
     inkscape:window-height="480"
     id="namedview17"
     showgrid="false"
     inkscape:zoom="6.3229167"
     inkscape:cx="-17.316036"
     inkscape:cy="7.3877997"
     inkscape:current-layer="svg2" />
  <defs
     id="defs4">
    <linearGradient
       id="0"
       x1="355.57001"
       y1="551.71997"
       x2="354.94"
       y2="503.10001"
       gradientUnits="userSpaceOnUse"
       xlink:href="#linearGradient3764">
      <stop
         stop-color="#197cf1"
         id="stop7" />
      <stop
         offset="1"
         stop-color="#21c9fb"
         id="stop9" />
    </linearGradient>
    <linearGradient
       gradientTransform="matrix(0,-1,1,0,-48.854849,48.725698)"
       gradientUnits="userSpaceOnUse"
       x2="47"
       x1="1"
       id="linearGradient3764">
      <stop
         id="stop4152"
         style="stop-color:#225a86;stop-opacity:1" />
      <stop
         id="stop4154"
         style="stop-color:#266597;stop-opacity:1"
         offset="1" />
    </linearGradient>
    <linearGradient
       inkscape:collect="always"
       xlink:href="#linearGradient3764"
       id="linearGradient4392"
       x1="355.88489"
       y1="548.30951"
       x2="356.61118"
       y2="505.30618"
       gradientUnits="userSpaceOnUse" />
  </defs>
  <path
     style="fill:#000000;fill-opacity:0.66666669"
     id="path4415"
     d="M 40.922912,8.3374972 C 36.39687,4.6544838 30.387486,2.6263412 24.001907,2.6263412 c -6.385579,0 -12.394963,2.0281426 -16.9210054,5.711156 C 2.5158752,12.052672 0.0014072,17.00364 0.0014072,22.280125 c 0,5.035758 2.2912846,9.775238 6.4693948,13.426089 -0.075044,0.169581 -0.1354694,0.347933 -0.1734788,0.535056 l -1.3732114,6.752029 c -0.1627582,0.802095 0.056527,1.280624 0.2689896,1.540842 C 5.4387006,44.834318 5.803201,45 6.2183806,45 6.5322018,45 6.8694134,44.907413 7.221244,44.724188 l 7.984898,-4.147897 c 2.763965,0.889809 5.736495,1.356643 8.790892,1.356643 6.385579,0 12.394963,-2.028143 16.921005,-5.711156 4.565026,-3.715175 7.079494,-8.666143 7.079494,-13.942628 0,-5.27551 -2.514468,-10.227452 -7.079494,-13.9426274"
     inkscape:connector-curvature="0" />
  <path
     d="m372.72 511.01c-4.644-3.779-10.81-5.86-17.362-5.86-6.552 0-12.718 2.081-17.362 5.86-4.684 3.812-7.264 8.892-7.264 14.306 0 5.167 2.351 10.03 6.638 13.776-.077.174-.139.357-.178.549l-1.409 6.928c-.167.823.058 1.314.276 1.581.252.308.626.478 1.052.478.322 0 .668-.095 1.029-.283l8.193-4.256c2.836.913 5.886 1.392 9.02 1.392 6.552 0 12.718-2.081 17.362-5.86 4.684-3.812 7.264-8.892 7.264-14.306 0-5.413-2.58-10.494-7.264-14.306"
     fill="url(#0)"
     transform="matrix(.9746 0 0 .9746-322.33-489.99)"
     id="path11"
     style="fill-opacity:1;fill:url(#linearGradient4392)" />
  <path
     id="path4204"
     style="fill:#f9f9f9;fill-opacity:1;fill-rule:nonzero;stroke:none"
     d="m 31.007075,15.713448 c -0.645,0.152 -1.25,0.461 -1.781,0.844 -0.871,1.191 -2.078,2.152 -3.684,2.531 -0.609,-0.445 -1.352,-0.961 -1.859,-1.547 -2.324,0.266 -5.523,0.781 -6.074,3.02 -0.574,2.324 0.949,5.359 2.188,5.535 1.176,0.164 4.957,-0.887 6.785,-1.379 -1.531,-1.195 -3.293,-1.719 -4.254,-1.781 -1.133,-0.09 -2.109,0.113 -3.125,0.375 1.484,-0.957 2.828,-1.672 4.156,-1.938 0.996,-0.188 2.543,-0.195 4.402,0.5 2.305,0.863 2.855,2.094 4.473,2.648 1.07,-0.168 0.527,-1.355 0.305,-2.18 -0.148,-0.449 -0.266,-0.789 -0.313,-0.938 -0.082,-0.25 -1.238,-3.207 -1.406,-3.969 -0.113,-0.52 -0.016,-1.195 0.188,-1.723 m 0,0"
     inkscape:connector-curvature="0" />
  <path
     id="path4206"
     style="fill:#f9f9f9;fill-opacity:1;fill-rule:nonzero;stroke:none"
     d="m 25.425075,11.060448 c -1.613,0.68 -1.668,1.965 -1.758,3.359 0.676,-0.613 2.801,-1.063 3.375,-1.559 1.695,-1.469 2.352,-4.5039999 1.996,-4.0549999 -1.152,1.4569999 -3.02,1.9259999 -3.613,2.2539999 m 0,0"
     inkscape:connector-curvature="0" />
  <path
     id="path4208"
     style="fill:#f9f9f9;fill-opacity:1;fill-rule:nonzero;stroke:none"
     d="m 16.543075,31.454448 c 0,0 -1.602,-1.063 -1.57,-1.402 1.051,-5.699 -2.574,-1.645 -2.848,0.906 -0.289,2.449 0.613,5.273 0.746,5.445 0.215,-2 0.406,-3.109 3.672,-4.953 m 0,0.004"
     inkscape:connector-curvature="0" />
  <path
     id="path4210"
     style="fill:#f9f9f9;fill-opacity:1;fill-rule:nonzero;stroke:none"
     d="m 34.054075,18.896448 c -0.082,-2.121 -1.414,-3.586 -2.32,-3.242 -0.387,0.145 -0.641,1.133 -0.508,1.746 0.445,2.18 2.277,4.699 1.824,6.855 -0.34,1.031 -3.348,1.672 -3.348,1.672 0,0 -0.059,0.883 -0.172,1.484 -0.137,0.73 -0.414,1.309 -0.414,1.309 0,0 0.715,0.641 0.742,0.641 0.031,0 4.5,-2.32 4.195,-10.465 m 0,0"
     inkscape:connector-curvature="0" />
  <path
     id="path4212"
     style="fill:#f9f9f9;fill-opacity:1;fill-rule:nonzero;stroke:none"
     d="m 32.066075,24.736448 c -0.742,-0.301 -1,-0.43 -1.969,-1.148 -5.355,-4 -10.285,-0.535 -10.188,-0.57 0.887,-0.281 1.891,-0.535 3.191,-0.453 1.051,0.07 2.449,0.734 4.176,2.168 1.16,1.02 2.918,1.148 4.785,0.004 m 0.004,0"
     inkscape:connector-curvature="0" />
  <path
     id="path4214"
     style="fill:#f9f9f9;fill-opacity:1;fill-rule:nonzero;stroke:none"
     d="m 27.039075,13.306448 c -1.98,0.637 -3.051,1.184 -3.371,1.438 -0.656,1.672 0.668,2.93 1.875,3.813 1.586,-0.375 2.906,-1.551 3.496,-2.844 -0.309,0.043 -0.637,-0.016 -1,-0.219 -0.707,-0.398 -1.137,-1.355 -1,-2.188 m 0,0"
     inkscape:connector-curvature="0" />
  <path
     id="path4216"
     style="fill:#f9f9f9;fill-opacity:1;fill-rule:nonzero;stroke:none"
     d="m 29.921075,12.990448 c -0.129,-0.508 -0.543,-1.16 -0.656,-1.16 -0.102,0 -1.203,0.82 -1.488,1.102 -0.645,0.645 -0.332,1.82 0.383,2.219 1.211,0.68 2.105,-0.813 1.762,-2.16 m 0,0"
     inkscape:connector-curvature="0" />
  <path
     id="path4218"
     style="fill:#f9f9f9;fill-opacity:1;fill-rule:nonzero;stroke:none"
     d="m 28.980075,11.271448 c 0.484,-0.465 1.129,-1.227 1.297,-2.3869999 0.098,-1.039 -0.156,-1.68 -0.469,-2.477 -0.152,1.555 -0.379,3.285 -1.438,5.1209999 -0.332,0.578 -0.152,0.473 0.609,-0.258 m 0,0"
     inkscape:connector-curvature="0" />
  <path
     id="path4220"
     style="fill:#f9f9f9;fill-opacity:1;fill-rule:nonzero;stroke:none"
     d="m 15.394075,27.373448 c 0.168,0.422 0.156,1.223 -0.094,2.594 -0.004,0.012 0,0.02 0,0.031 0.176,0.246 0.539,0.543 0.902,0.813 1.25,-0.582 2.82,-1.672 2.719,-1.688 -0.668,-0.113 -2.734,-0.617 -3.527,-1.75 m 0,0"
     inkscape:connector-curvature="0" />
  <path
     id="path4222"
     style="fill:#f9f9f9;fill-opacity:1;fill-rule:nonzero;stroke:none"
     d="m 26.820075,24.931448 c -0.055,0 -0.098,0 -0.219,0.031 -1.555,0.434 -5.527,1.449 -6.148,2.125 -0.242,0.516 -0.48,2.574 -3.969,3.879 -0.098,0.035 2.93,1.992 3.094,2 9.883,0.414 9.871,-6.676 9.742,-7 -0.961,0.016 -1.777,-0.32 -2.406,-0.938 -0.031,-0.031 -0.059,-0.063 -0.094,-0.094 m 0,0"
     inkscape:connector-curvature="0" />
</svg>
