<?xml version="1.0" encoding="UTF-8" standalone="no"?>
<!-- Created with Inkscape (http://www.inkscape.org/) -->

<svg
   xmlns:dc="http://purl.org/dc/elements/1.1/"
   xmlns:cc="http://creativecommons.org/ns#"
   xmlns:rdf="http://www.w3.org/1999/02/22-rdf-syntax-ns#"
   xmlns:svg="http://www.w3.org/2000/svg"
   xmlns="http://www.w3.org/2000/svg"
   xmlns:xlink="http://www.w3.org/1999/xlink"
   xmlns:sodipodi="http://sodipodi.sourceforge.net/DTD/sodipodi-0.dtd"
   xmlns:inkscape="http://www.inkscape.org/namespaces/inkscape"
   width="48"
   height="48"
   id="svg5453"
   version="1.1"
   inkscape:version="0.91 r13725"
   sodipodi:docname="juk.svg">
  <defs
     id="defs5455">
    <linearGradient
       inkscape:collect="always"
       id="linearGradient4177">
      <stop
         style="stop-color:#2a2c2f;stop-opacity:1"
         offset="0"
         id="stop4179" />
      <stop
         style="stop-color:#5e6468;stop-opacity:1"
         offset="1"
         id="stop4181" />
    </linearGradient>
    <linearGradient
       inkscape:collect="always"
       id="linearGradient4274">
      <stop
         style="stop-color:#ee643a;stop-opacity:1"
         offset="0"
         id="stop4276" />
      <stop
         style="stop-color:#fe9473;stop-opacity:1"
         offset="1"
         id="stop4278" />
    </linearGradient>
    <linearGradient
       inkscape:collect="always"
       xlink:href="#linearGradient4177"
       id="linearGradient4189"
       x1="409.57144"
       y1="540.79797"
       x2="409.57144"
       y2="506.798"
       gradientUnits="userSpaceOnUse"
       gradientTransform="matrix(1.1764708,0,0,1.1764708,-72.100932,-92.435052)" />
    <linearGradient
       inkscape:collect="always"
       xlink:href="#linearGradient4274"
       id="linearGradient4190"
       x1="412.57144"
       y1="543.79797"
       x2="412.57144"
       y2="503.798"
       gradientUnits="userSpaceOnUse" />
    <linearGradient
       inkscape:collect="always"
       xlink:href="#linearGradient4274"
       id="linearGradient4618"
       x1="444.38504"
       y1="538.05713"
       x2="443.65051"
       y2="511.84964"
       gradientUnits="userSpaceOnUse"
       gradientTransform="translate(45.871533,-3.599724)" />
  </defs>
  <sodipodi:namedview
     id="base"
     pagecolor="#5a5a5a"
     bordercolor="#666666"
     borderopacity="1.0"
     inkscape:pageopacity="0"
     inkscape:pageshadow="2"
     inkscape:zoom="6.0669762"
     inkscape:cx="-20.697343"
     inkscape:cy="24.115344"
     inkscape:document-units="px"
     inkscape:current-layer="g4172"
     showgrid="false"
     fit-margin-top="0"
     fit-margin-left="0"
     fit-margin-right="0"
     fit-margin-bottom="0"
     inkscape:window-width="1366"
     inkscape:window-height="630"
     inkscape:window-x="0"
     inkscape:window-y="36"
     inkscape:window-maximized="1"
     inkscape:showpageshadow="false"
     borderlayer="true"
     showguides="false"
     showborder="false">
    <inkscape:grid
       type="xygrid"
       id="grid4063" />
    <sodipodi:guide
       position="1.1650391e-05,47.999996"
       orientation="4,0"
       id="guide4146" />
    <sodipodi:guide
       position="1.1650391e-05,43.999996"
       orientation="0,48"
       id="guide4148" />
    <sodipodi:guide
       position="48.000012,43.999996"
       orientation="-4,0"
       id="guide4150" />
    <sodipodi:guide
       position="48.000012,47.999996"
       orientation="0,-48"
       id="guide4152" />
    <sodipodi:guide
       position="1.1650391e-05,4.0000264"
       orientation="4,0"
       id="guide4154" />
    <sodipodi:guide
       position="1.1650391e-05,2.6367188e-05"
       orientation="0,48"
       id="guide4156" />
    <sodipodi:guide
       position="48.000012,2.6367188e-05"
       orientation="-4,0"
       id="guide4158" />
    <sodipodi:guide
       position="48.000012,4.0000264"
       orientation="0,-48"
       id="guide4160" />
    <sodipodi:guide
       position="48.000012,48.000026"
       orientation="0,-4"
       id="guide4162" />
    <sodipodi:guide
       position="44.000012,48.000026"
       orientation="48,0"
       id="guide4164" />
    <sodipodi:guide
       position="44.000012,2.6367188e-05"
       orientation="0,4"
       id="guide4166" />
    <sodipodi:guide
       position="48.000012,2.6367188e-05"
       orientation="-48,0"
       id="guide4168" />
    <sodipodi:guide
       position="4.0000422,48.000026"
       orientation="0,-4"
       id="guide4170" />
    <sodipodi:guide
       position="4.2167969e-05,48.000026"
       orientation="48,0"
       id="guide4172" />
    <sodipodi:guide
       position="4.2167969e-05,2.6367188e-05"
       orientation="0,4"
       id="guide4174" />
    <sodipodi:guide
       position="4.0000422,2.6367188e-05"
       orientation="-48,0"
       id="guide4176" />
    <sodipodi:guide
       position="14.000012,34.000026"
       orientation="20,0"
       id="guide4173" />
    <sodipodi:guide
       position="34.000012,14.000026"
       orientation="-20,0"
       id="guide4177" />
  </sodipodi:namedview>
  <metadata
     id="metadata5458">
    <rdf:RDF>
      <cc:Work
         rdf:about="">
        <dc:format>image/svg+xml</dc:format>
        <dc:type
           rdf:resource="http://purl.org/dc/dcmitype/StillImage" />
        <dc:title />
      </cc:Work>
    </rdf:RDF>
  </metadata>
  <g
     inkscape:label="Capa 1"
     inkscape:groupmode="layer"
     id="layer1"
     transform="translate(-384.57143,-499.798)">
    <g
       id="g4172"
       transform="matrix(1.1566277,0,0,1.1566277,-63.943627,-81.991257)">
      <rect
         ry="19.999979"
         y="503.798"
         x="388.57147"
         height="39.999958"
         width="39.999958"
         id="rect4146"
         style="opacity:1;fill:url(#linearGradient4189);fill-opacity:1;stroke:url(#linearGradient4190);stroke-width:1.5;stroke-miterlimit:4;stroke-dasharray:none" />
      <path
         inkscape:connector-curvature="0"
         id="path4463"
         d="m 425.02591,514.298 c -0.56048,-0.97078 -1.2067,-1.85668 -1.90084,-2.6869 l -7.68484,6.38089 c 0.33872,0.40258 0.65281,0.83382 0.92543,1.30601 0.27262,0.47219 0.48904,0.95982 0.66832,1.45444 l 9.36843,-3.46481 c -0.37191,-1.01625 -0.81602,-2.01884 -1.3765,-2.98963 z"
         style="fill:#4c5053;fill-opacity:0.19774014;stroke:none" />
      <g
         transform="matrix(0.86458244,0,0,0.86458244,57.912193,64.881325)"
         id="layer1-6"
         inkscape:label="Capa 1"
         style="fill:none;fill-opacity:1">
        <g
           inkscape:label="Layer 1"
           id="layer1-4"
           transform="translate(392.24401,-502.51656)"
           style="fill:none;fill-opacity:1">
          <g
             style="fill:none;fill-opacity:1;stroke-width:1.31742239;stroke-miterlimit:4;stroke-dasharray:none"
             id="g4413"
             transform="matrix(1.138587,0,0,1.138587,-3.4562036,-142.80276)">
            <g
               transform="matrix(1.0203324,0,0,1.0203324,-0.28478646,-20.859612)"
               id="g4325"
               style="fill:none;fill-opacity:1">
              <g
                 id="g4436"
                 transform="matrix(0.06299069,0,0,0.06299069,6.458529,1015.677)"
                 style="fill:none;fill-opacity:1">
                <g
                   id="g4396"
                   style="fill:none;fill-opacity:1">
                  <path
                     id="path4398"
                     d="M 305.685,56.082 C 284.044,23.973 245.218,5.336 190.377,0.699 L 190.286,0.691 C 186.243,0.232 182.36,0 178.746,0 151.098,0 141.287,13.84 141.287,25.691 l 0,206.27 -0.001,0 c -10.874,-3.277 -22.538,-4.223 -34.057,-2.768 -20.073,2.533 -38.057,11.957 -50.637,26.537 -12.581,14.58 -18.252,32.57 -15.969,50.656 4.237,33.576 35.66,58.895 73.096,58.895 3.515,0 7.08,-0.225 10.599,-0.668 38.805,-4.898 66.969,-35.676 66.969,-73.18 l 0,-202.396 c 2.913,-0.195 5.831,-0.293 8.677,-0.293 34.213,0 65.668,14.313 90.966,41.389 10.428,11.162 17.748,22.262 22.054,29.609 1.058,1.803 3.12,2.764 5.186,2.396 2.058,-0.365 3.673,-1.971 4.047,-4.027 4.149,-22.786 7.522,-66.341 -16.532,-102.029 z"
                     inkscape:connector-curvature="0"
                     style="fill:none;fill-opacity:1" />
                </g>
                <g
                   id="g4400"
                   style="fill:none;fill-opacity:1" />
                <g
                   id="g4402"
                   style="fill:none;fill-opacity:1" />
                <g
                   id="g4404"
                   style="fill:none;fill-opacity:1" />
                <g
                   id="g4406"
                   style="fill:none;fill-opacity:1" />
                <g
                   id="g4408"
                   style="fill:none;fill-opacity:1" />
                <g
                   id="g4410"
                   style="fill:none;fill-opacity:1" />
                <g
                   id="g4412"
                   style="fill:none;fill-opacity:1" />
                <g
                   id="g4414"
                   style="fill:none;fill-opacity:1" />
                <g
                   id="g4416"
                   style="fill:none;fill-opacity:1" />
                <g
                   id="g4418"
                   style="fill:none;fill-opacity:1" />
                <g
                   id="g4420"
                   style="fill:none;fill-opacity:1" />
                <g
                   id="g4422"
                   style="fill:none;fill-opacity:1" />
                <g
                   id="g4424"
                   style="fill:none;fill-opacity:1" />
                <g
                   id="g4426"
                   style="fill:none;fill-opacity:1" />
                <g
                   id="g4428"
                   style="fill:none;fill-opacity:1" />
              </g>
            </g>
          </g>
          <g
             id="g3"
             transform="matrix(0.48796879,0,0,0.48796879,21.356721,1026.8977)"
             style="fill:none;fill-opacity:1" />
        </g>
      </g>
      <g
         transform="matrix(0.90563453,0,0,0.90563453,-38.491081,50.479373)"
         id="layer1-40"
         inkscape:label="Capa 1">
        <path
           id="path4398-5-4"
           d="m 502.60237,513.32847 c -1.58365,-2.3497 -4.42489,-3.71353 -8.43808,-4.05286 l -0.007,-5.8e-4 c -0.29582,-0.0336 -0.57997,-0.0506 -0.84444,-0.0506 -2.02324,0 -2.7412,1.01279 -2.7412,1.88003 l 0,15.09456 -7e-5,0 c -0.79574,-0.23981 -1.6493,-0.30903 -2.49224,-0.20256 -1.46892,0.18536 -2.78496,0.875 -3.70555,1.94194 -0.92066,1.06695 -1.33566,2.38343 -1.16859,3.70694 0.31006,2.45705 2.60955,4.30986 5.34907,4.30986 0.25722,0 0.5181,-0.0165 0.77562,-0.0489 2.83969,-0.35843 4.9007,-2.61073 4.9007,-5.35522 l 0,-14.81106 c 0.21317,-0.0143 0.4267,-0.0214 0.63497,-0.0214 2.50366,0 4.80549,1.04741 6.65676,3.02879 0.76311,0.81682 1.29878,1.6291 1.61389,2.16675 0.0774,0.13194 0.22831,0.20226 0.3795,0.17533 0.1506,-0.0267 0.26879,-0.14423 0.29615,-0.29469 0.30362,-1.66745 0.55045,-4.85474 -1.20979,-7.46634 z"
           inkscape:connector-curvature="0"
           style="fill:url(#linearGradient4618);fill-opacity:1;fill-rule:evenodd;stroke-width:1.31742239;stroke-miterlimit:4;stroke-dasharray:none" />
      </g>
    </g>
  </g>
</svg>
