<svg height="48" width="48" xmlns="http://www.w3.org/2000/svg" xmlns:xlink="http://www.w3.org/1999/xlink">
  <linearGradient id="a">
    <stop offset="0" stop-color="#69f" />
    <stop offset="1" stop-color="#039" />
  </linearGradient>
  <linearGradient id="b" gradientTransform="matrix(.90982026 -.11182478 .11182478 .90982026 1.853332 2.201219)" gradientUnits="userSpaceOnUse" x1="16.722538" x2="41.395714" xlink:href="#a" y1="10.661999" y2="60.006538" />
  <linearGradient id="c" gradientUnits="userSpaceOnUse" x1="34.274033" x2="46.983051" xlink:href="#a" y1="31.263571" y2="46.779659" />
  <linearGradient id="d" gradientTransform="matrix(.65404479 0 0 .80635549 -234.76111 -383.71624)" gradientUnits="userSpaceOnUse" x1="391.57144" x2="391.57144" y1="531.79797" y2="501.69922">
    <stop offset="0" stop-color="#c2c3c3" />
    <stop offset="1" stop-color="#e9eaeb" />
  </linearGradient>
  <linearGradient id="e" gradientTransform="matrix(-.60373434 0 0 -.60373434 283.1764 349.26214)" gradientUnits="userSpaceOnUse" x1="408.52423" x2="409.26617" y1="506.48495" y2="533.19501">
    <stop offset="0" stop-color="#1e1e1e" />
    <stop offset="1" stop-color="#6b6969" />
  </linearGradient>
  <linearGradient id="f" gradientUnits="userSpaceOnUse" x1="31.637673" x2="41.820641" y1="30.572135" y2="40.755108">
    <stop offset="0" stop-color="#18222a" />
    <stop offset="1" stop-color="#566069" />
  </linearGradient>
  <linearGradient id="g" gradientUnits="userSpaceOnUse" x1="21.590152" x2="21.590152" y1="26.554343" y2="23.535671">
    <stop offset="0" stop-color="#2f3943" />
    <stop offset="1" stop-color="#808c9b" />
  </linearGradient>
  <linearGradient id="h" gradientTransform="matrix(.90982026 -.11182478 .11182478 .90982026 1.853332 2.201219)" gradientUnits="userSpaceOnUse" x1="8.643182" x2="9.560498" y1="19.665473" y2="11.552669">
    <stop offset="0" stop-color="#eefefe" />
    <stop offset="1" stop-color="#d6fefe" />
  </linearGradient>
  <g stroke-width=".500597">
    <path d="m3.0111123 8.8737754 35.8778537-4.4096991c.633095-.077813 1.205417.3692201 1.28323 1.0023165l3.321287 27.0224012c.07781.633095-.369221 1.205417-1.002317 1.28323l-35.8778533 4.409698c-.6330964.077813-1.2054171-.369221-1.2832301-1.002316l-3.321287-27.022401c-.077813-.6330966.3692202-1.2054166 1.0023167-1.2832296z" fill="url(#b)" />
    <path d="m5.0706265 35.120446 7.3641755-3.15474 2.626714 1.25148 5.39026-2.458917 5.775989 1.097958 4.103304.344502 2.940124-1.34124 3.66535-1.322119 5.444553-6.033217 1.296536 10.311181-36.4765562 4.381731s-1.6770279.530401-1.8542272-.879224z" fill="#661844" fill-rule="evenodd" />
    <path d="m15.445401 15.326703a3.492142 3.492142 0 0 1 -3.040051 3.892069 3.492142 3.492142 0 0 1 -3.8920694-3.040051 3.492142 3.492142 0 0 1 3.0400514-3.892069 3.492142 3.492142 0 0 1 3.892069 3.040051z" fill="url(#h)" opacity=".811" />
  </g>
  <g stroke-width=".603734" transform="matrix(.91666661 0 0 .91666661 1.853332 2.201219)">
    <path d="m19.778943 24.743139h2.414929c.334469 0 .603734.269266.603734.603735v.603741c0 .334468-.269265.603734-.603734.603734h-2.414929c-.334468 0-.603734-.269266-.603734-.603734v-.603741c0-.334469.269266-.603735.603734-.603735z" fill="url(#g)" />
    <path d="m17.671419 25.749487h29.582983c.501703 0 .905602.403898.905602.905601v17.541314c0 .501703-.403899.905601-.905602.905601h-29.582983c-.501703 0-.905601-.403898-.905601-.905601v-17.541314c0-.501703.403898-.905601.905601-.905601z" fill="url(#d)" />
    <path d="m28.055527 35.442242a8.4522645 8.4522645 0 0 1 8.452263-8.452263 8.4522645 8.4522645 0 0 1 8.452263 8.452263 8.4522645 8.4522645 0 0 1 -8.452263 8.452268 8.4522645 8.4522645 0 0 1 -8.452263-8.452268z" fill="url(#e)" />
    <path d="m43.148899 35.442253a6.6410708 6.6410708 0 0 1 -6.641071 6.641071 6.6410708 6.6410708 0 0 1 -6.641071-6.641071 6.6410708 6.6410708 0 0 1 6.641071-6.641071 6.6410708 6.6410708 0 0 1 6.641071 6.641071z" fill="url(#f)" />
    <path d="m42.545164 35.442253a6.0373363 6.0373363 0 0 1 -6.037336 6.037336 6.0373363 6.0373363 0 0 1 -6.037337-6.037336 6.0373363 6.0373363 0 0 1 6.037337-6.037336 6.0373363 6.0373363 0 0 1 6.037336 6.037336z" fill="url(#c)" />
  </g>
</svg>
