<svg viewBox="0 0 48 48" xmlns="http://www.w3.org/2000/svg" xmlns:xlink="http://www.w3.org/1999/xlink"><linearGradient id="a" gradientUnits="userSpaceOnUse" x1="24.276772" x2="23.802307" y1="46.576607" y2="1.581549"><stop offset="0" stop-color="#333"/><stop offset="1" stop-color="#4d4d4d"/></linearGradient><path d="m3.8575119 1.5h40.2849761c1.583035 0 2.857512 1.2744771 2.857512 2.8575118v40.2849762c0 1.583035-1.274477 2.857512-2.857512 2.857512h-40.2849761c-1.5830348 0-2.8575119-1.274477-2.8575119-2.857512v-40.2849762c0-1.5830347 1.2744771-2.8575118 2.8575119-2.8575118" fill-opacity=".666667" fill-rule="evenodd"/><path d="m3.8575119 1h40.2849761c1.583035 0 2.857512 1.2744771 2.857512 2.8575118v40.2849762c0 1.583035-1.274477 2.857512-2.857512 2.857512h-40.2849761c-1.5830348 0-2.8575119-1.274477-2.8575119-2.857512v-40.2849762c0-1.5830347 1.2744771-2.8575118 2.8575119-2.8575118" fill="url(#a)" fill-rule="evenodd"/><g fill="#fff"><path d="m14.91588 17.111708v.07491l-4.9810827 5.749108 5.3181927 7.510872v.07491h-2.116138l-4.3632109-6.253632-2.05979 2.378334v3.876275h-1.7226802v-13.409481h1.7226802v6.911566h.074913l5.8986076-6.911566h2.228508"/><path d="m21.785104 30.573303h-1.72268v-11.761389h-3.745339v-1.647766h9.214336v1.647766h-3.74534v11.761389"/><path d="m29.670543 30.872956q-2.078681 0-3.389338-1.385896-1.292092-1.385896-1.292092-3.501709 0-2.003767 1.254635-3.445686 1.273526-1.441918 3.239512-1.441918 2.041225 0 3.2571 1.329548 1.23607 1.329549 1.23607 3.558056l-.01889.318219h-7.247047q.07491 1.385896.917525 2.191051.861503.805155 2.003768.805155 1.853941 0 2.50927-1.573179l1.535722.636763q-.449479 1.067352-1.479375 1.797594-1.029895.711676-2.528161.711676m2.471814-5.992413q-.05602-.786589-.730242-1.498266-.654677-.711676-1.967289-.711676-.954981 0-1.666658.599306-.692785.599307-.954981 1.610311h5.318193"/><path d="m42.992082 30.573303h-2.022333l-2.265965-3.389339-2.228507 3.389339h-2.022334l3.239512-4.662865-3.164598-4.513038h1.94742l2.265964 3.239512 2.153595-3.239512h2.022333l-3.202055 4.513038 3.276643 4.662865"/></g></svg>