<svg xmlns="http://www.w3.org/2000/svg" viewBox="0 0 48 48"><defs><linearGradient id="0" x1="61.57" y1="22.939" x2="60.753" y2="-27.706" gradientUnits="userSpaceOnUse"><stop stop-color="#197cf1"/><stop offset="1" stop-color="#21c9fb"/></linearGradient></defs><path d="m41.36-25.875h42.04c1.652 0 2.982 1.33 2.982 2.982v42.04c0 1.652-1.33 2.982-2.982 2.982h-42.04c-1.652 0-2.982-1.33-2.982-2.982v-42.04c0-1.652 1.33-2.982 2.982-2.982" transform="matrix(.99999 0 0 .99999-38.38 25.875)" fill="url(#0)" fill-rule="evenodd"/><g transform="matrix(.32571 0 0 .32571-85.38-152.72)" fill="#daeffe"><path d="m307.93 521.42v.23l-15.293 17.651 16.328 23.06v.23h-6.497l-13.396-19.2-6.324 7.302v11.901h-5.289v-41.17h5.289v21.22h.23l18.11-21.22h6.842"/><path d="m329.02 562.75h-5.289v-36.11h-11.499v-5.059h28.29v5.059h-11.499v36.11"/><path d="m353.23 563.67q-6.382 0-10.406-4.255-3.967-4.255-3.967-10.751 0-6.152 3.852-10.579 3.91-4.427 9.946-4.427 6.267 0 10 4.082 3.795 4.082 3.795 10.924l-.058.977h-22.25q.23 4.255 2.817 6.727 2.645 2.472 6.152 2.472 5.692 0 7.704-4.83l4.715 1.955q-1.38 3.277-4.542 5.519-3.162 2.185-7.762 2.185m7.589-18.398q-.172-2.415-2.242-4.6-2.01-2.185-6.04-2.185-2.932 0-5.117 1.84-2.127 1.84-2.932 4.944h16.328"/><path d="m394.13 562.75h-6.209l-6.957-10.406-6.842 10.406h-6.209l9.946-14.316-9.716-13.856h5.979l6.957 9.946 6.612-9.946h6.209l-9.831 13.856 10.06 14.316"/></g></svg>