<svg height="48" width="48" xmlns="http://www.w3.org/2000/svg" xmlns:xlink="http://www.w3.org/1999/xlink"><linearGradient id="a"><stop offset="0" stop-color="#f15400"/><stop offset="1" stop-color="#fa8c00"/></linearGradient><linearGradient id="b"><stop offset="0" stop-color="#dfe9f0"/><stop offset="1" stop-color="#ecf0f3"/></linearGradient><linearGradient id="c" gradientTransform="matrix(.26231459 0 0 .26155514 -44.879062 141.03167)" gradientUnits="userSpaceOnUse" x1="371.47604" x2="371.47604" y1="473.93784" y2="253.9286"><stop offset="0" stop-color="#cdd7dc"/><stop offset="1" stop-color="#ecf0f3"/></linearGradient><linearGradient gradientUnits="userSpaceOnUse" x1="23.802246" x2="23.892494" y1="265.83694" y2="146.96394"><stop offset="0" stop-color="#fe9501"/><stop offset="1" stop-color="#feb600"/></linearGradient><linearGradient gradientUnits="userSpaceOnUse" x1="95.461777" x2="191.54518" xlink:href="#b" y1="143.5246" y2="143.5246"/><linearGradient id="d" gradientTransform="matrix(1.0014519 .00003763 .00003763 .95188387 .292469 11.945264)" gradientUnits="userSpaceOnUse" x1=".967325" x2="3.419102" xlink:href="#a" y1="204.54808" y2="147.64192"/><linearGradient gradientUnits="userSpaceOnUse" x1="148.6194" x2="136.14597" xlink:href="#b" y1="409.57669" y2="327.4061"/><linearGradient gradientUnits="userSpaceOnUse" x1="455.96185" x2="459.02536" xlink:href="#b" y1="150.23126" y2="91.673157"/><linearGradient gradientUnits="userSpaceOnUse" x1="363.38409" x2="359.03906" y1="400.94318" y2="332.46771"><stop offset="0" stop-color="#d73b00"/><stop offset="1" stop-color="#e05800"/></linearGradient><linearGradient gradientUnits="userSpaceOnUse" x1="22.547663" x2="21.170237" xlink:href="#a" y1="266.99716" y2="148.12303"/><linearGradient id="e" gradientUnits="userSpaceOnUse" x1="23.689587" x2="24.303373" y1="264.73993" y2="154.70567"><stop offset="0" stop-color="#f16319"/><stop offset="1" stop-color="#feb600"/></linearGradient><g transform="matrix(.407803132991 -.000310500328 .00030960112 .408987205897 13.253109580871 -62.672570451941)"><path d="m-23.525211 154.66937 47.828584.0363-.0419 55.16792-55.437374-.0422.0365-48.05392c.006-7.63847 7.21097-7.10853 7.61419-7.10821z" fill="url(#d)" fill-rule="evenodd"/><g fill="url(#e)" fill-rule="evenodd"><path d="m-23.87675 265.80577 47.759246.0362.044-57.95657-55.356996-.042-.03833 50.48297c-.0061 8.02458 7.189449 7.47907 7.59208 7.47936z" transform="matrix(1.0014519 .00003763 .00003763 .95188386 .036531 11.689948)"/><path d="m71.568966 150.27986-47.759241-.0362-.044 57.95657 55.356991.042.03835-50.48297c.0062-8.02458-7.189452-7.47907-7.592072-7.47936z" transform="matrix(1.0014519 .00003763 .00003763 .95188386 .036531 11.689948)"/><path d="m71.368015 265.8766-47.75924-.0363.044-57.95657 55.35699.0421-.0383 50.48297c-.006 8.02458-7.2008 7.46814-7.60343 7.46782z" transform="matrix(1.0014519 .00003763 .00003763 .95188386 .036531 11.689948)"/></g><ellipse cx="51.669277" cy="236.94432" fill="url(#c)" rx="32.309681" ry="32.216141" transform="matrix(.99999971 .0007592 -.00075919 .99999971 0 0)"/></g><path d="m2641.5542 517.89813c46.512 0 91.29 6.018 134.334 18.054s83.334 29.07 120.869 51.102c37.537 22.032 71.707 48.45 102.514 79.254 30.803 30.804 57.221 64.974 79.254 102.51 22.029 37.539 39.063 77.828 51.102 120.873 12.037 43.043 18.055 87.818 18.055 134.33397 0 14.688-5.201 27.23-15.605 37.637s-22.949 15.604-37.637 15.604c-14.689 0-27.234-5.199-37.641-15.604-10.402-10.404-15.604-22.949-15.604-37.637 0-36.72297-4.795-72.11497-14.383-106.18597-9.588-34.064-23.055-65.891-40.395-95.471-17.34-29.581-38.145-56.509-62.424-80.785-24.277-24.276-51.203-45.084-80.784-62.424-29.58-17.34-61.404-30.804-95.472-40.392s-69.462-14.382-106.182-14.382c-14.688 0-27.234-5.202-37.638-15.606s-15.606-22.95-15.606-37.638 5.202-27.234 15.606-37.638c10.403-10.403 22.949-15.605 37.637-15.605zm0 201.348c42.024 0 81.498 8.058 118.422 24.174s69.156 37.944 96.696 65.484c27.541 27.541 49.369 59.771 65.484 96.693 16.117 36.928 24.174 76.398 24.174 118.42597 0 14.688-5.201 27.23-15.604 37.637-10.404 10.404-22.949 15.604-37.641 15.604-14.688 0-27.233-5.199-37.637-15.604-10.404-10.404-15.606-22.949-15.606-37.637 0-27.33797-5.202-53.04097-15.606-77.11297s-24.582-45.084-42.534-63.035c-17.952-17.953-38.964-32.131-63.036-42.535-24.072-10.402-49.776-15.604-77.112-15.604-14.688 0-27.234-5.201-37.638-15.605-10.404-10.405-15.606-22.951-15.606-37.639s5.202-27.234 15.606-37.638c10.404-10.406 22.95-15.608 37.638-15.608zm97.92 279.683c0 10.60897-1.938 20.39997-5.814 29.37697-3.876 8.979-9.18 16.83-15.912 23.563-6.732 6.729-14.688 12.035-23.868 15.912-9.18 3.875-18.87 5.811-29.07 5.811-10.608 0-20.4-1.938-29.376-5.811-8.976-3.875-16.83-9.184-23.562-15.912-6.732-6.732-12.036-14.586-15.912-23.563s-5.814-18.768-5.814-29.37697c0-10.197 1.938-19.889 5.814-29.066 3.876-9.184 9.18-17.139 15.912-23.869 6.732-6.732 14.586-12.035 23.562-15.912 8.976-3.875 18.768-5.814 29.376-5.814 10.2 0 19.89 1.939 29.07 5.814 9.18 3.877 17.136 9.18 23.868 15.912 6.732 6.73 12.036 14.688 15.912 23.869 3.876 9.178 5.814 18.867 5.814 29.066z" fill="#f47713" transform="matrix(.02476743014 .000047002102 -.000047002102 .02476743014 -36.349107138348 14.925336593644)"/><g fill="#e9eef1" transform="matrix(.601855670294 .000000005409 -.000000005392 .600000615602 284.943141905997 113.09687010749)"><ellipse cx="-462.60782" cy="-130.50694" rx="2.499993" ry="2.5"/><ellipse cx="-458.10782" cy="-123.00694" rx="2.999992" ry="3"/><ellipse cx="-460.60788" cy="-138.50693" rx="1.500003" ry="1.499995"/><path d="m-452.10784-140.00692-2.84375 2.84374 4.375 4.375-4.53125 5.15625 3 2.625 7.00002-8 0 0-7.00002-6.99999z"/></g><path d="m408.99594 530.99649-5.24403 6.7328c-.98326 1.2624-.708 3.5111.5505 4.4974 1.25852.98629 3.50028.71019 4.48354-.55221l5.24403-6.73281.65549-.8416c.65551-.8416.47201-2.34073-.36699-2.99826-.83901-.65753-2.33352-.47347-2.98902.36814l-.65551.8416-3.93302 5.0496-.6555.8416c-.32776.4208-.236 1.17037.1835 1.49914.4195.32875 1.16676.23673 1.49451-.18407l4.58852-5.89121.83901.65753-4.58852 5.8912c-.65551.84161-2.15002 1.02568-2.98902.36814-.83901-.65753-1.02252-2.15666-.36702-2.99826l.65551-.8416 4.58853-5.8912c.98325-1.26241 3.22501-1.5385 4.48353-.55221 1.25851.98629 1.53377 3.23499.55051 4.49739l-.6555.84161-5.24403 6.73279c-1.31102 1.68321-4.30004 2.05135-5.97805.73629-1.67801-1.31507-2.04502-4.31332-.73401-5.99653l5.24403-6.7328z" fill="#ecf0f3" transform="matrix(.84782098951 .000000001948 -.000000001942 .845207811019 -312.666496308549 -442.037394830304)"/><g fill="#ebf0f3" transform="matrix(.02450987411 .000000000061 -.000000000061 .02450987411 6.061776235639 6.073799668652)"><path d="m306.668 92.094 90.873 90.87 13.057-13.046-90.868-90.872z"/><path d="m294.878 103.885-256.004 256.017c-1.824 1.826-3.211 4.043-4.038 6.482l-33.957 101.262c-2.002 6.01-.457 12.619 4.025 17.1 3.173 3.18 7.44 4.887 11.79 4.887 1.774 0 3.567-.277 5.309-.863l101.246-33.973c2.456-.83 4.673-2.196 6.494-4.021l256.003-256.018z"/><path d="m331.52 67.257 90.868 90.874 13.03-13.045-90.873-90.871z"/><path d="m484.732 72.193-67.274-67.306c-3.129-3.127-7.382-4.887-11.795-4.887-4.414 0-8.663 1.76-11.79 4.887l-37.533 37.537 90.868 90.872 37.524-37.522c6.512-6.514 6.512-17.067 0-23.581z"/></g></svg>