<svg height="48" viewBox="0 0 48 48" width="48" xmlns="http://www.w3.org/2000/svg" xmlns:xlink="http://www.w3.org/1999/xlink"><linearGradient id="a" gradientUnits="userSpaceOnUse" x1="10.071" x2="396.74799" y1="267.10501" y2="267.10501"><stop offset="0" stop-color="#161719"/><stop offset="1" stop-color="#4c535b"/></linearGradient><linearGradient id="b" gradientUnits="userSpaceOnUse" x1="402.58145" x2="384.43344" y1="515.52502" y2="506.07001"><stop offset="0" stop-color="#3ee818"/><stop offset="1" stop-color="#018dcb"/></linearGradient><g transform="matrix(2.4256883 0 0 2.4247716 -930.38451 -1214.39924)"><g fill="url(#a)" transform="matrix(-.000166888074 -.039299926111 .037033283027 -.000177103237 383.614954172537 518.883077117027)"><path d="m36.01 406.819h334.816c14.258 0 25.922-11.656 25.922-25.906v-355.007c0-14.217-2.57782-25.906-25.922-25.906h-334.816c-23.381317 0-25.939 11.689-25.939 25.906v355.007c0 14.25 11.649 25.906 25.939 25.906zm297.505-375.126c0-4.3 3.52-7.771 7.779-7.771h24.304c4.292 0 7.763 3.471 7.763 7.771v25.028c0 4.3-3.471 7.771-7.763 7.771h-24.304c-4.259 0-7.779-3.463-7.779-7.771zm0 63.671c0-4.3 3.52-7.779 7.779-7.779h24.304c4.292 0 7.763 3.479 7.763 7.779v25.028c0 4.292-3.471 7.795-7.763 7.795h-24.304c-4.259 0-7.779-3.503-7.779-7.795zm0 63.72c0-4.292 3.52-7.795 7.779-7.795h24.304c4.292 0 7.763 3.503 7.763 7.795v25.036c0 4.259-3.471 7.763-7.763 7.763h-24.304c-4.259 0-7.779-3.503-7.779-7.763zm0 63.671c0-4.3 3.52-7.795 7.779-7.795h24.304c4.292 0 7.763 3.495 7.763 7.795v25.036c0 4.292-3.471 7.771-7.763 7.771h-24.304c-4.259 0-7.779-3.479-7.779-7.771zm0 63.672c0-4.3 3.52-7.771 7.779-7.771h24.304c4.292 0 7.763 3.463 7.763 7.771v25.052c0 4.276-3.471 7.755-7.763 7.755h-24.304c-4.259 0-7.779-3.479-7.779-7.755zm0 63.671c0-4.276 3.52-7.771 7.779-7.771h24.304c4.292 0 7.763 3.495 7.763 7.771v25.077c0 4.243-3.471 7.755-7.763 7.755h-24.304c-4.259 0-7.779-3.503-7.779-7.755zm-300.058-318.405c0-4.3 3.495-7.771 7.779-7.771h24.313c4.268 0 7.755 3.471 7.755 7.771v25.028c0 4.3-3.487 7.771-7.755 7.771h-24.313c-4.284 0-7.779-3.463-7.779-7.771zm0 63.671c0-4.3 3.495-7.779 7.779-7.779h24.313c4.268 0 7.755 3.479 7.755 7.779v25.028c0 4.292-3.487 7.795-7.755 7.795h-24.313c-4.284 0-7.779-3.503-7.779-7.795zm0 63.72c0-4.292 3.495-7.795 7.779-7.795h24.313c4.268 0 7.755 3.503 7.755 7.795v25.036c0 4.259-3.487 7.763-7.755 7.763h-24.313c-4.284 0-7.779-3.503-7.779-7.763zm0 63.671c0-4.3 3.495-7.795 7.779-7.795h24.313c4.268 0 7.755 3.495 7.755 7.795v25.036c0 4.292-3.487 7.771-7.755 7.771h-24.313c-4.284 0-7.779-3.479-7.779-7.771zm0 63.672c0-4.3 3.495-7.771 7.779-7.771h24.313c4.268 0 7.755 3.463 7.755 7.771v25.052c0 4.276-3.487 7.755-7.755 7.755h-24.313c-4.284 0-7.779-3.479-7.779-7.755zm0 63.671c0-4.276 3.495-7.771 7.779-7.771h24.313c4.268 0 7.755 3.495 7.755 7.771v25.077c0 4.243-3.487 7.755-7.755 7.755h-24.313c-4.284 0-7.779-3.503-7.779-7.755z" fill="url(#a)"/><path d="m36.01016 534.21001 334.81599.00001c23.34546 0 25.922-11.656 25.922-25.906v-355.00702c0-14.21699-11.673-25.90599-25.922-25.90599h-334.81599c-14.29002 0-25.939 11.689-25.93901 25.90599l.00004 355.00701c.00023 14.25 4.375155 25.906 25.93897 25.906zm297.50499-375.12601c0-4.3 3.52-7.771 7.779-7.771h24.304c4.292 0 7.763 3.471 7.763 7.771v25.02801c0 4.29999-3.471 7.771-7.763 7.77099l-24.304.00004c-4.259-.00003-7.779-3.46303-7.779-7.77103zm-.00015 63.671c.00015-4.29999 3.52015-7.77899 7.77915-7.779l24.30401-.00003c4.29199.00003 7.76299 3.47904 7.76299 7.77903v25.028c0 4.292-3.471 7.79501-7.763 7.795l-24.304.00004c-4.259-.00003-7.779-3.50303-7.779-7.79503zm.00015 63.72c0-4.29199 3.52-7.79499 7.779-7.795l24.304-.00003c4.292.00003 7.763 3.50303 7.763 7.79503l-.00001 25.036c.00001 4.259-3.47099 7.76301-7.76299 7.763l-24.304.00004c-4.259 0-7.779-3.503-7.779-7.763zm-.00015 63.671c.00015-4.29999 3.52015-7.79499 7.77915-7.795l24.304-.00003c4.292.00004 7.763 3.49504 7.763 7.79503l-.00001 25.036c0 4.292-3.471 7.771-7.763 7.771l-24.304.00004c-4.25899-.00004-7.77899-3.47904-7.77899-7.77104zm-.00015 63.672c.0003-4.29999 3.5203-7.77099 7.7793-7.77099l24.304-.00004c4.292.00003 7.763 3.46303 7.763 7.77104l.00002 25.052c-.00002 4.276-3.47102 7.755-7.76302 7.75499l-24.304.00004c-4.259-.00003-7.779-3.47903-7.779-7.75503zm-.00015 63.67102c.00045-4.27601 3.52046-7.77102 7.77945-7.771l24.304-.00003c4.292-.00003 7.763 3.49497 7.763 7.77098v25.077c0 4.24299-3.471 7.755-7.763 7.75499l-24.304.00004c-4.259.00001-7.779-3.50301-7.779-7.75498zm-300.05755-318.40502c.00002-4.3 3.49501-7.771 7.77902-7.771l24.31298.00001c4.26799 0 7.755 3.471 7.75499 7.771l-.00001 25.028c-.00001 4.3-3.48702 7.771-7.75501 7.771h-24.31301c-4.28397 0-7.77898-3.463-7.779-7.771zm-.00014 63.671c-.00002-4.29999 3.49498-7.779 7.77898-7.779l24.31301.00001c4.268 0 7.755 3.479 7.75499 7.779l-.00001 25.028c.00003 4.292-3.487 7.795-7.75499 7.795l-24.31301-.00001c-4.28397 0-7.77899-3.503-7.77898-7.79499zm-.00037 63.72c0-4.292 3.49498-7.795 7.77899-7.795l24.31301.00001c4.26799 0 7.75499 3.503 7.75501 7.795l-.00004 25.036c.00001 4.259-3.48702 7.763-7.75501 7.763l-24.31301-.00001c-4.28397 0-7.77899-3.503-7.779-7.763zm-.00015 63.671c.00065-4.29999 3.49566-7.79499 7.77967-7.795l24.31298.00001c4.26802 0 7.75502 3.49499 7.75501 7.795l-.00005 25.036c0 4.292-3.48701 7.77099-7.755 7.77099h-24.31302c-4.284-.00001-7.779-3.47901-7.77899-7.77101zm-.00016 63.672c.00082-4.29999 3.49582-7.77099 7.77982-7.77099l24.31302.00001c4.26799-.00001 7.75497 3.463 7.75499 7.77099l-.00012 25.052c0 4.276-3.48701 7.75501-7.755 7.75501l-24.31301-.00001c-4.28401 0-7.77901-3.479-7.77901-7.755zm-.00015 63.67101c.00001-4.27602 3.49501-7.77101 7.77902-7.771l24.31298.00001c4.26802.00003 7.75502 3.495 7.75502 7.77101l-.00023 25.077c-.00001 4.24302-3.48701 7.75499-7.755 7.755l-24.31301-.00001c-4.28401.00003-7.77899-3.50297-7.779-7.75498z" fill="url(#a)" transform="translate(-.00015)"/></g><path d="m384.43344 506.07001h18.148001v9.455h-18.148001z" fill="url(#b)" opacity=".865"/><g fill="#fff" opacity=".83" transform="matrix(.01086843 -.00472505 .00472505 .01086843 385.97892 508.8931)"><path d="m65.459 55.53-61.277 8.903 44.331 43.222-10.458 61.028 54.806-28.82 54.806 28.82-10.46-61.028 44.331-43.222-61.275-8.903-27.402-55.53z"/><path d="m326.207 248.92-35.937 72.82-80.344 11.676 58.133 56.669-13.724 80.028 71.872-37.792 71.874 37.792-13.727-80.028 58.134-56.669-80.345-11.676z"/><path d="m388.514 38.901-33.748 23.645 38.108 15.658 23.66 33.741 15.649-38.116 33.748-23.644-38.108-15.658-23.659-33.741z"/><path d="m127.18 272.417 23.797-21.132-30.637-8.65-21.15-23.821-8.641 30.652-23.814 21.135 30.639 8.648 21.148 23.822z"/><path d="m93.353 401.482 43.576-14.354-43.576-14.365-14.371-43.576-14.356 43.576-43.577 14.365 43.577 14.354 14.356 43.577z"/><path d="m282.801 148.458-42.652-16.936 24.228 38.971-16.927 42.645 38.955-24.23 42.652 16.936-24.23-38.971 16.928-42.644z"/></g><g fill="#fff" opacity=".766" transform="matrix(-.01718434 .00462631 .00462631 .01718434 399.50836 506.79276)"><g fill="#fff"><g><path d="m264.407 48.53c4.334-3.385 7.922-1.652 7.972 3.848l.562 64.615c.046 5.5 3.815 12.518 8.373 15.597l53.548 36.167c4.56 3.078 4.021 7.025-1.194 8.77l-61.276 20.504c-5.218 1.744-10.729 7.498-12.246 12.783l-17.851 62.104c-1.521 5.286-5.439 5.993-8.711 1.571l-38.438-51.942c-3.271-4.421-10.445-7.885-15.942-7.695l-64.579 2.217c-5.498.188-7.381-3.322-4.188-7.799l37.523-52.607c3.194-4.478 4.27-12.371 2.393-17.541l-22.063-60.732c-1.879-5.169.877-8.045 6.122-6.393l61.626 19.431c5.246 1.654 13.087.239 17.421-3.145z" fill="#fff"/><path d="m280.698 4.524c1.922-3.979 6.703-5.647 10.685-3.727 3.979 1.92 5.646 6.703 3.727 10.682l-7.827 16.211c-1.92 3.979-6.702 5.647-10.682 3.728-3.979-1.92-5.647-6.703-3.727-10.682z" fill="#fff"/></g><g><path d="m93.899 168.534c-4.294 1.042-8.618-1.589-9.665-5.884-1.042-4.293 1.59-8.62 5.882-9.664l17.492-4.253c4.293-1.045 8.621 1.588 9.664 5.881 1.043 4.294-1.589 8.62-5.883 9.665z" fill="#fff"/><path d="m149.993 29.229c-2.031-3.925-.499-8.75 3.424-10.783 3.925-2.031 8.751-.5 10.784 3.422l8.279 15.986c2.03 3.922.499 8.75-3.423 10.781-3.924 2.032-8.752.5-10.784-3.424z" fill="#fff"/></g><g><path d="m286.278 261.398c1.854 4.011 6.604 5.76 10.618 3.907 4.01-1.854 5.763-6.606 3.908-10.616l-7.552-16.343c-1.854-4.011-6.604-5.762-10.615-3.907-4.011 1.854-5.761 6.605-3.908 10.616z" fill="#fff"/><path d="m360.459 130.824c4.335-.851 7.16-5.053 6.312-9.389-.852-4.336-5.053-7.164-9.389-6.314l-17.665 3.462c-4.337.849-7.163 5.051-6.314 9.386.853 4.336 5.054 7.164 9.392 6.313z" fill="#fff"/></g></g><path d="m99.487 434.422c-1.912 3.963-6.72 5.641-10.682 3.728l-12.269-5.923c-3.962-1.911-5.64-6.719-3.727-10.682l89.863-186.162c1.913-3.963 6.721-5.641 10.683-3.728l12.27 5.922c3.961 1.912 5.64 6.72 3.727 10.683z" fill="#fff"/></g></g></svg>