<svg height="48" viewBox="0 0 48 48" width="48" xmlns="http://www.w3.org/2000/svg" xmlns:xlink="http://www.w3.org/1999/xlink">
  <linearGradient id="a" gradientUnits="userSpaceOnUse" x1="10.071" x2="396.74799" y1="267.10501" y2="267.10501">
    <stop offset="0" stop-color="#161719" />
    <stop offset="1" stop-color="#4c535b" />
  </linearGradient>
  <linearGradient id="b" gradientTransform="matrix(2.4256883 0 0 2.4247716 -930.38451 -1214.3992)" gradientUnits="userSpaceOnUse" x1="402.58145" x2="384.43344" y1="515.52502" y2="506.07001">
    <stop offset="0" stop-color="#424242" />
    <stop offset="1" stop-color="#1b1b1b" />
  </linearGradient>
  <g fill="url(#a)" transform="matrix(-.00040482 -.09529335 .08983119 -.00042943 .145786 43.773716)">
    <path d="m36.01 406.819h334.816c14.258 0 25.922-11.656 25.922-25.906v-355.007c0-14.217-2.57782-25.906-25.922-25.906h-334.816c-23.381317 0-25.939 11.689-25.939 25.906v355.007c0 14.25 11.649 25.906 25.939 25.906zm297.505-375.126c0-4.3 3.52-7.771 7.779-7.771h24.304c4.292 0 7.763 3.471 7.763 7.771v25.028c0 4.3-3.471 7.771-7.763 7.771h-24.304c-4.259 0-7.779-3.463-7.779-7.771zm0 63.671c0-4.3 3.52-7.779 7.779-7.779h24.304c4.292 0 7.763 3.479 7.763 7.779v25.028c0 4.292-3.471 7.795-7.763 7.795h-24.304c-4.259 0-7.779-3.503-7.779-7.795zm0 63.72c0-4.292 3.52-7.795 7.779-7.795h24.304c4.292 0 7.763 3.503 7.763 7.795v25.036c0 4.259-3.471 7.763-7.763 7.763h-24.304c-4.259 0-7.779-3.503-7.779-7.763zm0 63.671c0-4.3 3.52-7.795 7.779-7.795h24.304c4.292 0 7.763 3.495 7.763 7.795v25.036c0 4.292-3.471 7.771-7.763 7.771h-24.304c-4.259 0-7.779-3.479-7.779-7.771zm0 63.672c0-4.3 3.52-7.771 7.779-7.771h24.304c4.292 0 7.763 3.463 7.763 7.771v25.052c0 4.276-3.471 7.755-7.763 7.755h-24.304c-4.259 0-7.779-3.479-7.779-7.755zm0 63.671c0-4.276 3.52-7.771 7.779-7.771h24.304c4.292 0 7.763 3.495 7.763 7.771v25.077c0 4.243-3.471 7.755-7.763 7.755h-24.304c-4.259 0-7.779-3.503-7.779-7.755zm-300.058-318.405c0-4.3 3.495-7.771 7.779-7.771h24.313c4.268 0 7.755 3.471 7.755 7.771v25.028c0 4.3-3.487 7.771-7.755 7.771h-24.313c-4.284 0-7.779-3.463-7.779-7.771zm0 63.671c0-4.3 3.495-7.779 7.779-7.779h24.313c4.268 0 7.755 3.479 7.755 7.779v25.028c0 4.292-3.487 7.795-7.755 7.795h-24.313c-4.284 0-7.779-3.503-7.779-7.795zm0 63.72c0-4.292 3.495-7.795 7.779-7.795h24.313c4.268 0 7.755 3.503 7.755 7.795v25.036c0 4.259-3.487 7.763-7.755 7.763h-24.313c-4.284 0-7.779-3.503-7.779-7.763zm0 63.671c0-4.3 3.495-7.795 7.779-7.795h24.313c4.268 0 7.755 3.495 7.755 7.795v25.036c0 4.292-3.487 7.771-7.755 7.771h-24.313c-4.284 0-7.779-3.479-7.779-7.771zm0 63.672c0-4.3 3.495-7.771 7.779-7.771h24.313c4.268 0 7.755 3.463 7.755 7.771v25.052c0 4.276-3.487 7.755-7.755 7.755h-24.313c-4.284 0-7.779-3.479-7.779-7.755zm0 63.671c0-4.276 3.495-7.771 7.779-7.771h24.313c4.268 0 7.755 3.495 7.755 7.771v25.077c0 4.243-3.487 7.755-7.755 7.755h-24.313c-4.284 0-7.779-3.503-7.779-7.755z" />
    <path d="m36.01016 534.21001 334.81599.00001c23.34546 0 25.922-11.656 25.922-25.906v-355.00702c0-14.21699-11.673-25.90599-25.922-25.90599h-334.81599c-14.29002 0-25.939 11.689-25.93901 25.90599l.00004 355.00701c.00023 14.25 4.375155 25.906 25.93897 25.906zm297.50499-375.12601c0-4.3 3.52-7.771 7.779-7.771h24.304c4.292 0 7.763 3.471 7.763 7.771v25.02801c0 4.29999-3.471 7.771-7.763 7.77099l-24.304.00004c-4.259-.00003-7.779-3.46303-7.779-7.77103zm-.00015 63.671c.00015-4.29999 3.52015-7.77899 7.77915-7.779l24.30401-.00003c4.29199.00003 7.76299 3.47904 7.76299 7.77903v25.028c0 4.292-3.471 7.79501-7.763 7.795l-24.304.00004c-4.259-.00003-7.779-3.50303-7.779-7.79503zm.00015 63.72c0-4.29199 3.52-7.79499 7.779-7.795l24.304-.00003c4.292.00003 7.763 3.50303 7.763 7.79503l-.00001 25.036c.00001 4.259-3.47099 7.76301-7.76299 7.763l-24.304.00004c-4.259 0-7.779-3.503-7.779-7.763zm-.00015 63.671c.00015-4.29999 3.52015-7.79499 7.77915-7.795l24.304-.00003c4.292.00004 7.763 3.49504 7.763 7.79503l-.00001 25.036c0 4.292-3.471 7.771-7.763 7.771l-24.304.00004c-4.25899-.00004-7.77899-3.47904-7.77899-7.77104zm-.00015 63.672c.0003-4.29999 3.5203-7.77099 7.7793-7.77099l24.304-.00004c4.292.00003 7.763 3.46303 7.763 7.77104l.00002 25.052c-.00002 4.276-3.47102 7.755-7.76302 7.75499l-24.304.00004c-4.259-.00003-7.779-3.47903-7.779-7.75503zm-.00015 63.67102c.00045-4.27601 3.52046-7.77102 7.77945-7.771l24.304-.00003c4.292-.00003 7.763 3.49497 7.763 7.77098v25.077c0 4.24299-3.471 7.755-7.763 7.75499l-24.304.00004c-4.259.00001-7.779-3.50301-7.779-7.75498zm-300.05755-318.40502c.00002-4.3 3.49501-7.771 7.77902-7.771l24.31298.00001c4.26799 0 7.755 3.471 7.75499 7.771l-.00001 25.028c-.00001 4.3-3.48702 7.771-7.75501 7.771h-24.31301c-4.28397 0-7.77898-3.463-7.779-7.771zm-.00014 63.671c-.00002-4.29999 3.49498-7.779 7.77898-7.779l24.31301.00001c4.268 0 7.755 3.479 7.75499 7.779l-.00001 25.028c.00003 4.292-3.487 7.795-7.75499 7.795l-24.31301-.00001c-4.28397 0-7.77899-3.503-7.77898-7.79499zm-.00037 63.72c0-4.292 3.49498-7.795 7.77899-7.795l24.31301.00001c4.26799 0 7.75499 3.503 7.75501 7.795l-.00004 25.036c.00001 4.259-3.48702 7.763-7.75501 7.763l-24.31301-.00001c-4.28397 0-7.77899-3.503-7.779-7.763zm-.00015 63.671c.00065-4.29999 3.49566-7.79499 7.77967-7.795l24.31298.00001c4.26802 0 7.75502 3.49499 7.75501 7.795l-.00005 25.036c0 4.292-3.48701 7.77099-7.755 7.77099h-24.31302c-4.284-.00001-7.779-3.47901-7.77899-7.77101zm-.00016 63.672c.00082-4.29999 3.49582-7.77099 7.77982-7.77099l24.31302.00001c4.26799-.00001 7.75497 3.463 7.75499 7.77099l-.00012 25.052c0 4.276-3.48701 7.75501-7.755 7.75501l-24.31301-.00001c-4.28401 0-7.77901-3.479-7.77901-7.755zm-.00015 63.67101c.00001-4.27602 3.49501-7.77101 7.77902-7.771l24.31298.00001c4.26802.00003 7.75502 3.495 7.75502 7.77101l-.00023 25.077c-.00001 4.24302-3.48701 7.75499-7.755 7.755l-24.31301-.00001c-4.28401.00003-7.77899-3.50297-7.779-7.75498z" transform="translate(-.00015)" />
  </g>
  <path d="m2.1311875 12.704988h44.0213915v22.926215h-44.0213915z" fill="url(#b)" opacity=".865" stroke-width="2.42523" />
  <g transform="matrix(.13790615 0 0 .13790615 -120.46651 231.68857)">
    <g fill="#83b9f5" fill-rule="evenodd" transform="matrix(1.0048356 0 0 1.0048356 -4.816092 7.011219)">
      <path d="m1024.0723-1553.3262v7.5h10.3086v-7.5z" />
      <path d="m1015.9238-1541.2715v7.5h18.4571v-7.5z" />
      <path d="m994.25586-1529.2148v7.5h40.12504v-7.5z" />
      <path d="m972.14844-1517.1602v7.5h62.23246v-7.5z" />
      <path d="m957.5625-1505.1035v7.5h76.8184v-7.5z" />
      <path d="m981.85742-1493.0488v7.5h52.52348v-7.5z" />
      <path d="m1003.2227-1480.9941v7.5h31.1582v-7.5z" />
      <path d="m994.78125-1468.9375v7.5h39.59965v-7.5z" />
      <path d="m1015.2461-1457.4258v7.5h19.1348v-7.5z" />
    </g>
    <g fill="#f38577" transform="matrix(-3.5139599 0 0 3.5139599 1727.6665 -3255.5496)">
      <path d="m188.32192 478.62102h9.27502l-4.63751 7.09692z" />
      <path d="m192.36328 479.92773v37.21431h1.19336v-37.21431z" fill-rule="evenodd" />
    </g>
    <path d="m1067.1502-1553.8776c-1.5308-.043-2.795 1.1863-2.7946 2.7177v98.6917c.001 2.2199 2.5193 3.5021 4.3153 2.1974l67.9725-49.3445c1.4962-1.0852 1.4962-3.315 0-4.4002l-67.9725-49.3446c-.4432-.3217-.9732-.5022-1.5207-.5175z" fill="#527eb2" />
  </g>
</svg>
