<svg height="48" width="48" xmlns="http://www.w3.org/2000/svg" xmlns:xlink="http://www.w3.org/1999/xlink"><linearGradient id="a" gradientUnits="userSpaceOnUse" x1="34.902462" x2="946.34857" y1="490.62549" y2="490.62549"><stop offset="0" stop-color="#197cf1"/><stop offset="1" stop-color="#20bcfa"/></linearGradient><linearGradient id="b" gradientUnits="userSpaceOnUse" x1="487.74164" x2="493.5094" y1="985.34576" y2="11.610633"><stop offset="0" stop-color="#14a102"/><stop offset="1" stop-color="#80e950"/></linearGradient><g stroke-width="1.317422" transform="translate(-486.76034 -502.725835)"><g fill="url(#a)" stroke-width="9.512438" transform="matrix(.94151989 0 0 .9415199 49.922993 16.273977)"><path d="m946.23 206.651c-.3-23-18-42-40.899-44.101-190.3-17.8-345.601-119.5-396.8-156.7-10.7-7.8-25.2-7.8-35.9 0-51.1 37.2-206.4 138.9-396.7 156.7-22.9 2.101-40.5 21.101-40.9 44.101-2.3 150.1 21.8 659.699 444.1 773.1 7.5 2 15.4 2 22.9 0 422.3-113.3 446.399-623.001 444.199-773.1z" fill="url(#b)" transform="matrix(.05185606 0 0 .05185606 464.01918 516.71536)"/><path d="m946.23 206.651c-.3-23-18-42-40.899-44.101-190.3-17.8-345.601-119.5-396.8-156.7-10.7-7.8-25.2-7.8-35.9 0-51.1 37.2-206.4 138.9-396.7 156.7-22.9 2.101-40.5 21.101-40.9 44.101-2.3 150.1 21.8 659.699 444.1 773.1 7.5 2 15.4 2 22.9 0 422.3-113.3 446.399-623.001 444.199-773.1z" fill="#fff" opacity=".675" transform="matrix(.03985431 0 0 .04023645 469.87887 522.85863)"/></g><path d="m353.812 0c-89.887 0-162.562 72.675-162.562 162.562 0 19.125 3.825 38.25 9.562 57.375l-200.812 200.813v95.625h95.625v-57.375h57.375v-57.375h57.375l86.062-86.062c17.213 5.737 36.338 9.562 57.375 9.562 89.888 0 162.562-72.675 162.562-162.562s-72.674-162.563-162.562-162.563zm47.813 172.125c-32.513 0-57.375-24.862-57.375-57.375s24.862-57.375 57.375-57.375 57.375 24.862 57.375 57.375-24.862 57.375-57.375 57.375z" fill="#50c92d" stroke="#1f2a47" transform="matrix(.0309254 0 0 .0309254 502.775802 518.741276)"/></g></svg>