<svg height="48" width="48" xmlns="http://www.w3.org/2000/svg" xmlns:xlink="http://www.w3.org/1999/xlink">
  <linearGradient id="a" gradientTransform="matrix(1.1112089 0 0 1.1112089 -1.233257 -.436928)" gradientUnits="userSpaceOnUse" x1="6.927541" x2="36.050793" xlink:href="#c" y1="21.494612" y2="21.494612" />
  <linearGradient id="b" gradientTransform="matrix(1.1170861 0 0 1.0835162 -2.486525 -85.742483)" gradientUnits="userSpaceOnUse" x1="17" x2="17" y1="1036.3622" y2="1012.3622">
    <stop offset="0" stop-color="#f39e18" />
    <stop offset="1" stop-color="#f0c953" />
  </linearGradient>
  <linearGradient id="c" gradientTransform="matrix(.77469186 0 0 1.0835162 8.842632 -85.742483)" gradientUnits="userSpaceOnUse" x1="33.461716" x2="34.116894" y1="1013.622" y2="1037.2084">
    <stop offset="0" stop-color="#f6fbff" />
    <stop offset="1" stop-color="#eaeff2" />
  </linearGradient>
  <g fill-rule="evenodd" transform="matrix(1.5253978 0 0 1.5253978 -9.824832 -1538.9809)">
    <path d="m32.78596 1010.5461c-.128128 0-.273391 0-.438202.015l-10.660177.9996v.0003h-10.998356c-1.3593394-.1007-1.9107704.024-1.9107704 1.2561v23.6782c-.08538 1.3515.478245 1.3228 1.8000754 1.3228h11.21883l10.640051 1.2426c1.031473 0 1.239895-.3937 1.238981-1.2511h.934648c.859837 0 1.010915.029.955385-1.3229v-23.6781c0-1.2317-.07115-1.3568-.955385-1.2561h-.885248c-.036-.7015-.201046-.9911-.939832-1.0066z" fill-opacity=".666667" />
    <g transform="matrix(.98921844 0 0 .98921844 .094555 10.87514)">
      <path d="m27.758934 1018.9413c-.06477 0-.138387 0-.221693.01l-5.388604.5056h-5.559269c-.687087-.051-.96535.013-.96535.6352v11.9677c-.04316.6832.241503.6692.909633.6692h5.675393l5.373356.6282c.517152 0 .621602-.2066.622845-.6329h.443383c.463343 0 .544869.015.514931-.6686v-11.9683c0-.6226-.03844-.6861-.514931-.6351h-.417577c-.01901-.3485-.101723-.5008-.472117-.5086z" fill-opacity=".666667" />
      <path d="m34.82812 1037.7945h-8.976252v-26.5439h8.976252c.952984-.1018 1.029669.025 1.029669 1.27v23.9365c.05988 1.3664-.102984 1.3374-1.029669 1.3374z" fill="url(#c)" />
      <path d="m33.048383 1010.2331c-.129528 0-.276773 0-.443386.016l-10.777207 1.0111h-11.118539c-1.3741735-.1019-1.9306995.026-1.9306995 1.2703v23.9356c-.08631 1.3663.483005 1.3384 1.8192655 1.3384h11.350788l10.74671 1.2562c1.296101 0 1.307121-.6149 1.223404-1.9812l.09032-25.3196c0-1.0894-.05399-1.507-.960654-1.526z" fill="url(#b)" />
      <path d="m32.695447 1039.0594-10.867218-1.2694v-26.5309l10.776546-1.0105c1.332885-.1018 1.404772.2651 1.404772 1.5102l-.09067 25.3204c.08372 1.3663.07267 1.9802-1.223428 1.9802z" fill-opacity=".039216" />
    </g>
  </g>
  <path d="m17.945949 7.1809303c-.675818-.00933-.791945.029097-.78783.5165385v6.4089852h-1.291346c-.242007.0096-.349301.100542-.347253.360274v7.615688c.0126.183825-.0182.238576.225714.234395l1.57566-.0087v4.160523c.000946.124379-.05623.258316-.19533.373297l-1.892528 1.721071-.03256-2.691209c-.0021-.504719.03107-.465594-.865961-.453599-.84608.01131-.810655.005-.798682.470962l.03473 3.711264-6.5305237.07596c-.5950012.0064-.5645319.269944-.5729671.835577-.00778.517934-.028924.828348.5447529.822556l6.5717589-.06511.06728 3.622281c.02083.471607.151893.432231.835576.410192.683682-.02204.806804-.05133.794342-.53173l-.01954-2.365659 2.063984 1.988021.01737 3.574534c.000602.08259-.06445.133333-.132391.154093h-1.395522c-.119454.0017-.186988.101109-.190989.219203v1.208874s.02807.163201.214863.167116h4.850688c.12311-.0017.220922-.044.219202-.167116v-1.208855c-.01376-.171907-.11484-.221269-.240901-.219203h-1.608214c-.135457-.0016-.104509-.07901-.106343-.154093l.03256-3.958682c-.01208-.263214-.104198-.348664-.221372-.499176l-3.034122-2.925604s-.05859-.02675-.05643-.136731c.0023-.115713.06728-.138901.06728-.138901l3.09489-2.75415c.08151-.06951.155724-.174964.141071-.310357l-.0217-1.024396c-.0098-.115694.06563-.346639.26044-.347252h8.410028c.164753-.0047.149753.156263.149753.156263v1.295688c.00064.12312.100431.180781.223544.180137h7.980303c.122575.000978.225534-.0056.319039-.09332l2.443791-2.359148s.0859-.08941.08464-.145412c-.0013-.06221-.09983-.156264-.09983-.156264l-2.528434-2.432941c-.09556-.07406-.210522-.0738-.210522-.0738h-8.01937s-.201092.01883-.193159.258269v1.603875c.01811.125445-.07991.13988-.173626.141071h-8.383985c-.280007.01668-.249589-.264781-.249587-.264781v-1.677659l1.597362.0066c.134617.000112.226437-.08303.219203-.227885v-7.711182c.0032-.241431-.02539-.275184-.219203-.271291l-1.738435-.0043v-6.4134556c-.0032-.5558001-.20535-.4920267-.881169-.5013461zm1.022226 8.5879957c.113383.0036.174266.02708.167115.154093v4.542501c.0094.188675-.138902.169286-.138902.169286l-1.703708.02605c-.111558-.0041-.156495-.05566-.156264-.164945v-4.579396c-.01423-.145574-.06952-.146057.05426-.145412zm10.656319 8.140907h5.875084l.959285.811704s.141226.08386.138902.190989c-.0019.08777-.162775.206182-.162775.206182l-.954946.831236h-5.931511s-.153417.01418-.158434-.164946l.0217-1.638598c.000603-.213087.212692-.236567.212692-.236567z" fill="url(#a)" stroke-width="1.11121" />
</svg>
