<svg height="48" width="48" xmlns="http://www.w3.org/2000/svg" xmlns:xlink="http://www.w3.org/1999/xlink">
  <linearGradient id="a" gradientTransform="matrix(1.6856289 0 0 1.6349735 -65.829806 -1656.7016)" gradientUnits="userSpaceOnUse" x1="17" x2="17" y1="1036.3622" y2="1012.3622">
    <stop offset="0" stop-color="#f39e18" />
    <stop offset="1" stop-color="#f0c953" />
  </linearGradient>
  <linearGradient id="b" gradientTransform="matrix(.31785146 0 0 .3152682 47.980574 -55.843602)" gradientUnits="userSpaceOnUse" x1="10.582439" x2="21.587189" xlink:href="#a" y1="232.03078" y2="95.014526" />
  <linearGradient id="c" gradientTransform="translate(41.530684 -29.295932)" gradientUnits="userSpaceOnUse" x1="14.474062" x2="11.884538" xlink:href="#a" y1="4.555018" y2="47.730804" />
  <linearGradient id="d" gradientTransform="matrix(.99998629 -.00523596 .00523596 .99998629 46.561477 6.189174)" gradientUnits="userSpaceOnUse" x1="24.602203" x2="35.794106" y1="29.820848" y2="39.830612">
    <stop offset="0" stop-color="#feecce" />
    <stop offset="1" stop-color="#fbba96" />
  </linearGradient>
  <linearGradient id="e" gradientTransform="matrix(.99998629 -.00523596 .00523596 .99998629 46.561477 6.189174)" gradientUnits="userSpaceOnUse" x1="38.135265" x2="24.232813" y1="32.263538" y2="38.538151">
    <stop offset="0" stop-color="#d46626" />
    <stop offset="1" stop-color="#ca6125" />
  </linearGradient>
  <linearGradient id="f" gradientTransform="matrix(.99998629 -.00523596 .00523596 .99998629 43.994157 6.751708)" gradientUnits="userSpaceOnUse" x1="39.307037" x2="13.621126" y1="40.206718" y2="6.914502">
    <stop offset="0" stop-color="#fef4d8" />
    <stop offset="1" stop-color="#e5e0cf" />
  </linearGradient>
  <g stroke-width=".336588" transform="matrix(1.0325536 -.14511595 .14511595 1.0325536 -38.535734 38.19061)">
    <rect fill="url(#c)" height="37" rx="3" width="37" x="42.785149" y="-23.35355" />
    <rect fill="url(#b)" height="37" rx="3" width="37" x="42.785149" y="-23.906755" />
  </g>
  <g transform="matrix(.99026807 -.1391731 .1391731 .99026807 -48.532729 4.279584)">
    <path d="m26.115816 6.2598025-17.4444265 2.4525972c-2.4430428.3433472-3.126457 1.3410933-2.7831097 3.7841363l3.7756291 26.861143c.3433471 2.443042 1.2406291 3.180644 3.6836721 2.837296l25.834989-3.629861c2.443041-.343347 3.272645-1.318058 2.929298-3.7611l-2.76519-19.673449z" fill="#fff" fill-opacity=".150812" transform="matrix(.99026807 .1391731 -.1391731 .99026807 48.607231 2.884707)" />
    <g stroke-width=".304229">
      <path d="m74.954587 37.728996c-.01133-.0015-.02234-.0012-.03341-.0012l-3.555511.01905c-.110798.000577-.199252.08998-.198671.200775.0026.475225.0048.950452.0071 1.425679.000576.109483.08987.196862.198843.198376l3.557441-.01875c.110799-.000577.199252-.08998.198672-.200774l-.0074-1.423749c-.0069-.136456-.0877-.188949-.167071-.199435zm8.623291 4.218135c-.01602-.0016-.03421-.0013-.0533-.000265l-3.833799.0041c-.184749.000743-.243473.163926-.234817.307867l.01807 2.154476c.00087.166198.08732.268353.257395.254755l3.793097-.02221c.197555-.0084.211621-.0829.199083-.242204l.008-2.247306c-.0036-.123973-.04155-.198184-.153711-.209252z" fill="url(#e)" />
      <path d="m83.308318 37.666h-5.690075s-.289987-.02527-.280796.303l.02464 1.292c.004.170191.08368.298603.262872.296l5.664495.000001c.155317-.0032.300599-.150449.308223-.296001l.000159-1.292c.01684-.231859-.289521-.303-.289521-.303zm-8.160389 4.32123-4.16047.02132c-.184077.000957-.332731.150461-.331762.334527l.01033 1.766022c.000958.184076.148826.330496.332892.329537l4.108209.0016c.184057-.000961.384696-.171403.383727-.355469l-.01033-1.766024s.0041-.331466-.332596-.331465z" fill="url(#d)" />
      <path d="m64.5371 14.22064c-.608184-.0084-.712802.02579-.7091.464449v5.767647l-1.163.000643c-.217786.0086-.314844.08916-.313.322901v6.85372c.01134.165429-.01574.214662.203764.210901l1.418236-.0068v3.743169c.000849.111931-.05119.233154-.176368.336628l-1.703159 1.549266-.02838-2.422795c-.0019-.454207.02793-.418523-.779324-.407729-.761406.01018-.729588.0042-.718813.423489l.03031 3.339889-5.876202.06767c-.535455.0058-.509076.243085-.516668.752111-.007.466099-.02438.745034.491884.739822l5.912294-.0582.0619 3.259591c.01875.42441.136675.389998.751935.370165.61526-.01983.724787-.04729.713571-.479614l-.01612-2.128491 1.856125 1.789632.0166 3.217262c.000545.07432-.05859.119317-.119731.138h-1.255349c-.107498.0015-.167873.09073-.171473.197v1.089001s.02447.146478.192572.15h4.3661c.110791-.0015.198875-.03921.197328-.15v-1.089001c-.01239-.154705-.10498-.19886-.218425-.196999l-1.447349-.000001c-.121899-.0014-.09286-.07043-.09451-.137999l.02959-3.563422c-.01087-.236872-.09449-.314027-.199937-.449476l-2.730871-2.632781s-.05239-.02334-.05044-.122319c.0021-.104132.06064-.125079.06064-.125079l2.785818-2.478224c.07335-.06255.138885-.157276.125696-.27912l-.01901-.921683c-.0088-.104117.05927-.312312.234583-.312863h7.567382c.148265-.0042.134801.13954.134801.13954v1.16658c.000577.110798.0904.16246.20119.16188h7.182002c.110307.000885.203416-.0058.287563-.08476l2.199525-2.122402s.0774-.08019.07627-.130584c-.0012-.05597-.09109-.141099-.09109-.141099l-2.273635-2.189685c-.086-.06665-.189382-.06647-.189382-.06647h-7.217049s-.182533.01853-.175394.234v1.442919c.0163.112891-.07028.125009-.154617.126081h-7.546463c-.251986.01501-.22292-.238-.22292-.238v-1.509901l1.437.0059c.121144.000105.20351-.07464.197-.204999v-6.94c.0029-.217269-.02258-.247503-.197-.244l-1.564-.0026v-5.77133c-.0029-.500176-.184716-.443082-.7929-.451469zm.919758 7.728043c.102038.0032.155574.02341.149142.13768v4.087876c.0085.169791-.123677.152899-.123677.152899l-1.534957.02396c-.10039-.0037-.139573-.04944-.139366-.147791v-4.122307c-.01281-.131004-.06329-.130866.0481-.130285zm14.875437 7.326317.863353.730938s.127798.07566.125706.172062c-.0017.07899-.146654.18434-.146654.18434l-.858875.74866h-5.338505s-.138751.01319-.143266-.148005l.0202-1.474853c.000542-.191762.190968-.213142.190968-.213142zm3.472663 5.894116c-.01306-.0026-.02728-.0025-.04114-.0023l-14.883818.073184s-.173384.03814-.162.293l.000001 9.29525c-.004732.177621.161999.18175.161999.18175h1.149116s.154855.0046.156884-.185656l.000001-7.749344c-.01399-.201309.186519-.247.186519-.247h13.399648c.110798-.000578.199522-.09016.198941-.200961l-.0065-1.261595c-.00051-.09695-.06824-.178217-.15964-.196328z" fill="url(#f)" />
    </g>
  </g>
</svg>
