<svg height="48" width="48" xmlns="http://www.w3.org/2000/svg" xmlns:xlink="http://www.w3.org/1999/xlink"><linearGradient id="a" gradientUnits="userSpaceOnUse" x1="31.640032" x2="15.820016" y1="10.463416" y2="33.47435"><stop offset="0" stop-color="#f9f9f9"/><stop offset="1" stop-color="#e6e6e6"/></linearGradient><linearGradient id="b" gradientUnits="userSpaceOnUse" x1="11.81289920065" x2="37.36020095015" y1="10.47631911034" y2="38.83985718141"><stop offset="0" stop-color="#008066"/><stop offset="1" stop-color="#00d4aa"/></linearGradient><linearGradient id="c" gradientTransform="matrix(.95652176 0 0 .95652175 1.52945 .997508)" gradientUnits="userSpaceOnUse" x1="23.836159" x2="23.722391" y1="45.779131" y2="1.979559"><stop offset="0" stop-color="#e3e3e3"/><stop offset="1" stop-color="#fcf9f9"/></linearGradient><path d="m46.285971 23.954029a21.8 21.8 0 0 1 -21.8 21.8 21.8 21.8 0 0 1 -21.8000003-21.8 21.8 21.8 0 0 1 21.8000003-21.7999997 21.8 21.8 0 0 1 21.8 21.7999997z" fill="url(#b)" stroke-width=".947826"/><path d="m45.605971 23.954029a21.12 21.12 0 0 1 -21.12 21.12 21.12 21.12 0 0 1 -21.1200003-21.12 21.12 21.12 0 0 1 21.1200003-21.1199995 21.12 21.12 0 0 1 21.12 21.1199995z" fill="none" stroke="url(#c)" stroke-width="1.76"/><g transform="matrix(1.0570064 0 0 1.0570064 -.940492 .26853)"><path d="m35.306624 10.652314s.185022-.616387.05506-.8800466c-.121976-.247369-.686601-.46179-.686601-.46179l-6.044592-1.700481-.000007-.000008h-.000009c-1.082717.148082-2.852741.371099-3.012566 1.508831l-2.534427 18.0424596.445609 1.463683.581494 1.403061.647183-1.806718 2.130183-14.498043 6.840337-.935914" fill="#f9f9f9" stroke-width=".819402"/><path d="m24.084815 27.072475-2.884436-1.014532c-.528855-.186014-1.37506-.139829-1.880476.102514l-6.039611 2.896548c-.505447.24243-.720677.854359-.478256 1.359737l2.235052 4.660305c.242392.505464.854273.720678 1.359738.478256l6.039614-2.896548c.505415-.242344 1.07117-.873419 1.257149-1.402182l1.014534-2.884441c.185991-.528853-.09447-1.113661-.623308-1.299659zm-2.402656 2.749314c-.529971-.186401-.808486-.767164-.622086-1.297122.186402-.529955.767151-.808489 1.297121-.622085.529971.186401.808485.767164.622086 1.29712-.186397.52996-.767152.808491-1.297121.622087z" fill="#fff" fill-opacity=".850807" stroke-width=".904204"/><g fill-rule="evenodd"><path d="m15.486121 35.462504c-.315737-.183457-2.680119-5.037788-2.680119-5.502573 0-.175045.0809-.424311.179773-.553924.245543-.321877 6.439327-3.266262 7.094554-3.37259.37018-.06007.904504.03558 1.80332.322825 1.198894.383143 1.277272.432481 1.277272.804021 0 .403392.657201 2.399617.862294 2.619189.189258.202619-.551127 1.86378-1.045102 2.344833-.436389.424974-6.652278 3.508579-7.052034 3.498403-.09449-.0024-.292472-.07449-.439958-.160184zm7.316934-5.877668c.610138-.674195.14267-1.723964-.767691-1.723964-.278138 0-.624058.107108-.768711.238017-.332509.300916-.346653 1.156998-.02499 1.512433.330838.365571 1.220237.350484 1.561391-.02649z" fill="#f9f9f9"/><path d="m15.503877 35.453701c-.246615-.183369-2.192094-4.005895-2.555921-5.021936-.33845-.945168-.227831-1.031775 3.711338-2.905735 3.571676-1.699136 3.580648-1.70112 5.20428-1.150573 1.294707.439013 1.301606.4397 1.368684.13637.03708-.167676.612794-4.218613 1.279365-9.002083 1.186504-8.5146221 1.21982-8.7039874 1.58689-9.0197279.421533-.3625872 1.634061-.7642817 2.301926-.7625974.417303.00105 5.604686 1.4036842 6.44094 1.7415842.432903.1749212.600779.519747.454532.9336361-.121738.344529-1.609427 2.357308-1.742338 2.357308-.442923 0-6.601611.906029-6.670573.981335-.04901.05352-.556884 3.333215-1.128611 7.288219-.91877 6.355725-1.096724 7.346847-1.532167 8.533469-.984996 2.684203-.813147 2.528058-5.032721 4.572848-3.077025 1.491114-3.33067 1.58181-3.685624 1.317883zm7.193589-5.803255c.237074-.166054.319637-.368264.319637-.782846 0-.630809-.375919-1.006728-1.006728-1.006728-.886378 0-1.316856.931413-.782846 1.693819.268568.383434.991941.430556 1.469937.09576z" fill="url(#a)"/></g></g></svg>