<svg height="48" width="48" xmlns="http://www.w3.org/2000/svg" xmlns:xlink="http://www.w3.org/1999/xlink"><linearGradient id="a"><stop offset="0" stop-color="#e7f0f4"/><stop offset="1" stop-color="#f4faff"/></linearGradient><linearGradient id="b" gradientUnits="userSpaceOnUse" x1="-989.66583" x2="-1003.6364" y1="433.28394" y2="317.35452"><stop offset="0" stop-color="#a0d5ff"/><stop offset="1" stop-color="#a0d5ff"/></linearGradient><linearGradient id="c" gradientTransform="matrix(.99785327 0 0 .98074826 -3.688387 11.350053)" gradientUnits="userSpaceOnUse" x1="-1092.9117" x2="-1060.2551" xlink:href="#a" y1="203.09911" y2="104.85291"/><linearGradient id="d" gradientUnits="userSpaceOnUse" x1="215.66" x2="576.341" xlink:href="#a" y1="396" y2="396"/><linearGradient gradientUnits="userSpaceOnUse" x1="215.66" x2="576.341" y1="396" y2="396"><stop offset="0" stop-color="#646464"/><stop offset="1" stop-color="#8c8c8c"/></linearGradient><g transform="translate(-384.57143 -499.798)"><text x="300.29187" y="516.21832"><tspan x="300.29187" y="516.21832"/></text><g fill="url(#d)" transform="matrix(.0321219803 .011819602985 -.011819602985 .0321219803 403.915181782318 507.449070181325)"><rect fill="url(#c)" height="112.43027" ry="2.744016" transform="matrix(8.1448921 -6.4726732 6.4301474 8.1785065 7713.6743 -7881.8571)" width="89.57283" x="-1101.8882" y="121.72899"/><rect fill="url(#b)" height="122.91869" ry="3" transform="matrix(9.2275174 -4.8049646 4.8864291 9.184638 7713.6743 -7881.8571)" width="99.825066" x="-1045.6995" y="316.30011"/><path d="m507.4253 185.73451c-13.46503 2.44385-22.43355 14.8397-19.98792 28.31456l64.09391 353.14172c6.5442 36.05694-1.12472 67.95519-21.74885 97.72577-20.62412 29.77057-48.22779 48.23887-84.71077 54.86039-35.62204 6.46527-68.31213-.61071-98.08155-21.23403-29.76923-20.62234-47.88192-48.7418-54.34719-84.36384l-24.20279-133.35144-12.92875-71.23424-31.85186-175.49593-15.29349-84.26339-.15822-.87175-.15804-.87078c-4.33589-23.8897.69435-46.22502 14.4375-66.332469 13.91809-20.35873 32.97218-33.351235 57.74251-37.846957 24.76147-4.494115 47.1759.972007 67.34986 15.143159 19.93269 13.995411 32.49208 33.138273 36.82797 57.027977l.15804.87077.31466 1.73368 71.50779 393.99038c4.49232 24.75163-11.14671 47.33749-35.9072 51.83142-23.89069 4.33608-47.06948-12.0948-51.40538-35.98451l-37.44941-206.33707c-2.44385-13.46503-14.76157-21.9975-28.22561-19.55382-13.46403 2.44367-21.99767 14.76058-19.55382 28.2256l37.44941 206.33708c4.65037 25.6224 17.28468 45.76598 38.31966 60.34696 21.04365 14.57838 43.90586 19.39815 69.5381 14.746 25.62241-4.65037 45.51372-17.45944 60.34598-38.31948 14.48194-20.36553 19.47825-43.47016 14.66966-69.96432l-71.82244-395.72406-.15804-.87077c-6.77974-37.354725-26.1703-66.926328-57.38205-88.743264-31.47546-21.9987661-65.97334-29.750784-103.32808-22.9710385-37.36359 6.7813525-66.93698 26.1620665-88.6732 57.8185545-21.55322 31.393582-29.31508 65.893248-22.53534 103.247968l.15805.87077 15.45171 85.13515 31.85185 175.49592 12.92875 71.23425 24.20243 133.34947c8.90912 49.08706 33.85279 87.63428 74.39612 115.72057s85.39696 37.89505 134.48402 28.98593c49.08707-8.90912 88.65343-33.13729 117.0973-74.19677 28.44324-41.05733 37.65852-86.69458 28.90584-134.91972l-64.09373-353.14074c-2.44564-13.47486-14.76336-22.00733-28.22739-19.56366z" fill="#6b8fab"/></g></g></svg>