<svg height="48" viewBox="0 0 48 48" width="48" xmlns="http://www.w3.org/2000/svg" xmlns:xlink="http://www.w3.org/1999/xlink"><linearGradient id="a"><stop offset="0" stop-color="#1584d8"/><stop offset="1" stop-color="#1cb2ff"/></linearGradient><linearGradient id="b" gradientUnits="userSpaceOnUse" x1="347.754449" x2="347.96899" y1="540.870221" y2="501.647236"><stop offset="0" stop-color="#2e3e46"/><stop offset="1" stop-color="#435a64"/></linearGradient><linearGradient id="c" gradientUnits="userSpaceOnUse" x1="342.95013" x2="343.58224" xlink:href="#a" y1="538.62598" y2="506.25388"/><linearGradient id="d" gradientUnits="userSpaceOnUse" x1="348.905568" x2="348.621237" xlink:href="#a" y1="506.907611" y2="503.04989"/><linearGradient id="e" gradientUnits="userSpaceOnUse" x1="348.905301" x2="348.62097" xlink:href="#a" y1="537.412195" y2="533.554474"/><linearGradient id="f" gradientUnits="userSpaceOnUse" x1="363.986899" x2="363.702568" xlink:href="#a" y1="522.387155" y2="518.529434"/><linearGradient id="g" gradientUnits="userSpaceOnUse" x1="333.480534" x2="333.196203" xlink:href="#a" y1="522.387115" y2="518.529394"/><linearGradient id="h" gradientUnits="userSpaceOnUse" x1="359.293509" x2="359.009178" xlink:href="#a" y1="533.053465" y2="529.195744"/><linearGradient id="i" gradientUnits="userSpaceOnUse" x1="338.023262" x2="337.738931" xlink:href="#a" y1="533.075615" y2="529.217894"/><linearGradient id="j" gradientUnits="userSpaceOnUse" x1="338.05617" x2="337.771839" xlink:href="#a" y1="511.338531" y2="507.48081"/><linearGradient id="k" gradientUnits="userSpaceOnUse" x1="353.10199" x2="352.75418" xlink:href="#a" y1="543.11346" y2="500.26346"/><g transform="matrix(1.20191915 0 0 1.20191915 -394.839025 -601.50065)"><circle cx="348.54926" cy="520.43738" fill="url(#b)" r="19.218065" stroke="url(#k)" stroke-linecap="round" stroke-linejoin="round" stroke-width="1.5"/><circle cx="348.69913" cy="505.23593" fill="url(#d)" r="1.336628"/><g fill="url(#c)" transform="matrix(.74282756 0 0 .74282756 95.269977 131.88911)"><circle cx="341.12109" cy="523.32257" r="15.06076"/><path d="m344.09095 508.55029c4.11188 1.72061 10.23474-3.24089 12.1749-.98515 2.08128 1.62899-1.93547 6.43387-.73761 11.21903z" fill-rule="evenodd"/></g><circle cx="348.69888" cy="535.74048" fill="url(#e)" r="1.336628"/><circle cx="363.78049" cy="520.71545" fill="url(#f)" r="1.336628"/><circle cx="333.2742" cy="520.71545" fill="url(#g)" r="1.336628"/><circle cx="359.08716" cy="531.38171" fill="url(#h)" r="1.336628"/><circle cx="337.81696" cy="531.40387" fill="url(#i)" r="1.336628"/><circle cx="337.84991" cy="509.66687" fill="url(#j)" r="1.336628"/></g></svg>