<svg height="48" viewBox="0 0 48 48" width="48" xmlns="http://www.w3.org/2000/svg" xmlns:xlink="http://www.w3.org/1999/xlink"><linearGradient id="a"><stop offset="0" stop-color="#1584d8"/><stop offset="1" stop-color="#1cb2ff"/></linearGradient><linearGradient id="b" gradientUnits="userSpaceOnUse" x1="347.754448961581" x2="347.968989832441" y1="540.870220773739" y2="501.647235521223"><stop offset="0" stop-color="#2e3e46"/><stop offset="1" stop-color="#435a64"/></linearGradient><linearGradient id="c" gradientUnits="userSpaceOnUse" x1="342.95013" x2="343.58224" xlink:href="#a" y1="538.62598" y2="506.25388"/><linearGradient id="d" gradientUnits="userSpaceOnUse" x1="348.905567768671" x2="348.62123748048" xlink:href="#a" y1="506.907610853474" y2="503.049890454463"/><linearGradient id="e" gradientUnits="userSpaceOnUse" x1="348.905300768671" x2="348.62097048048" xlink:href="#a" y1="537.412194853474" y2="533.554474454463"/><linearGradient id="f" gradientUnits="userSpaceOnUse" x1="363.986898768671" x2="363.70256848048" xlink:href="#a" y1="522.387154853474" y2="518.529434454463"/><linearGradient id="g" gradientUnits="userSpaceOnUse" x1="333.480533768671" x2="333.19620348048" xlink:href="#a" y1="522.387114853474" y2="518.529394454463"/><linearGradient id="h" gradientUnits="userSpaceOnUse" x1="359.293508768671" x2="359.00917848048" xlink:href="#a" y1="533.053464853474" y2="529.195744454463"/><linearGradient id="i" gradientUnits="userSpaceOnUse" x1="338.023261768671" x2="337.73893148048" xlink:href="#a" y1="533.075614853474" y2="529.217894454463"/><linearGradient id="j" gradientUnits="userSpaceOnUse" x1="338.056169768671" x2="337.77183948048" xlink:href="#a" y1="511.338530853474" y2="507.480810454463"/><linearGradient id="k" gradientUnits="userSpaceOnUse" x1="353.10199" x2="352.75418" xlink:href="#a" y1="543.11346" y2="500.26346"/><g transform="matrix(1.201919148651 0 0 1.201919148651 -394.839024622206 -601.50064996502)"><circle cx="348.54926" cy="520.43738" fill="url(#b)" r="19.218065" stroke="url(#k)" stroke-linecap="round" stroke-linejoin="round" stroke-width="1.5"/><circle cx="348.69913" cy="505.23593" fill="url(#d)" r="1.336628"/><g fill="url(#c)" transform="matrix(.74282756 0 0 .74282756 95.269977 131.88911)"><circle cx="341.12109" cy="523.32257" fill="url(#c)" r="15.06076"/><path d="m344.09095 508.55029c4.11188 1.72061 10.23474-3.24089 12.1749-.98515 2.08128 1.62899-1.93547 6.43387-.73761 11.21903z" fill="url(#c)" fill-rule="evenodd"/></g><circle cx="348.69888" cy="535.74048" fill="url(#e)" r="1.336628"/><circle cx="363.78049" cy="520.71545" fill="url(#f)" r="1.336628"/><circle cx="333.2742" cy="520.71545" fill="url(#g)" r="1.336628"/><circle cx="359.08716" cy="531.38171" fill="url(#h)" r="1.336628"/><circle cx="337.81696" cy="531.40387" fill="url(#i)" r="1.336628"/><circle cx="337.84991" cy="509.66687" fill="url(#j)" r="1.336628"/></g></svg>