<svg height="48" width="48" xmlns="http://www.w3.org/2000/svg" xmlns:xlink="http://www.w3.org/1999/xlink"><linearGradient id="a" gradientUnits="userSpaceOnUse" x1="355.734639754972" x2="355.690693977712" y1="546.998390330562" y2="505.3274713404"><stop offset="0" stop-color="#42a603"/><stop offset="1" stop-color="#78da06"/></linearGradient><g transform="matrix(.97459608 0 0 .97459608 -322.303984 -489.311121)"><path d="m372.72396 511.00526c-4.64376-3.77923-10.8097-5.86043-17.36188-5.86043-6.5523 0-12.71825 2.08134-17.3619 5.86043-4.68415 3.81204-7.26383 8.89248-7.26383 14.30562 0 5.1665 2.35146 10.0291 6.6381 13.77566-.0773.17385-.13864.35675-.1778.54904l-1.40852 6.92833c-.16748.8234.0576 1.31439.27567 1.58146.25214.30847.62586.47846 1.05242.47846.32207 0 .66821-.095 1.02889-.28251l8.19253-4.25611c2.83641.91297 5.88571 1.3917 9.02427 1.3917 6.55233 0 12.71811-2.0813 17.36192-5.8604 4.68401-3.81192 7.26369-8.89237 7.26369-14.3055 0-5.41327-2.57956-10.49371-7.26357-14.30575z" fill="url(#a)"/><g fill="#fff" fill-opacity=".85" opacity=".856" transform="matrix(.196776853511 0 0 .196776853511 343.849062256153 514.777809193247)"><path d="m57.572 8.464c-1.412 0-2.634.517-3.666 1.548l-27.131 27.131h-21.346c-1.413 0-2.635.517-3.667 1.548-1.032 1.032-1.548 2.255-1.548 3.667v31.285c0 1.412.516 2.635 1.548 3.666 1.033 1.032 2.255 1.549 3.667 1.549h21.345l27.131 27.131c1.032 1.031 2.254 1.548 3.666 1.548 1.413 0 2.635-.517 3.667-1.548s1.548-2.254 1.548-3.666v-88.644c0-1.412-.516-2.635-1.547-3.667-1.033-1.031-2.254-1.548-3.667-1.548z"/><path d="m90.609 69.527c2.309-3.557 3.463-7.399 3.463-11.527s-1.154-7.988-3.463-11.573c-2.31-3.585-5.363-6.11-9.166-7.577-.543-.271-1.223-.407-2.037-.407-1.412 0-2.635.503-3.666 1.507-1.031 1.005-1.549 2.241-1.549 3.707 0 1.141.326 2.105.979 2.893.652.788 1.439 1.467 2.363 2.037.922.57 1.846 1.195 2.77 1.874s1.711 1.643 2.363 2.892c.65 1.25.977 2.798.977 4.645s-.326 3.395-.977 4.645c-.652 1.25-1.439 2.213-2.363 2.893-.924.679-1.848 1.304-2.77 1.874-.924.569-1.711 1.249-2.363 2.036-.652.789-.979 1.752-.979 2.893 0 1.467.518 2.702 1.549 3.707s2.254 1.508 3.666 1.508c.814 0 1.494-.136 2.037-.406 3.803-1.523 6.857-4.063 9.166-7.621z"/><path d="m108.004 81.016c4.617-7.033 6.926-14.705 6.926-23.016s-2.309-15.982-6.926-23.019c-4.617-7.033-10.729-12.152-18.332-15.357-.705-.271-1.412-.407-2.117-.407-1.412 0-2.635.516-3.668 1.548-1.031 1.032-1.547 2.254-1.547 3.666 0 2.119 1.059 3.721 3.178 4.808 3.041 1.575 5.105 2.77 6.191 3.584 4.02 2.934 7.156 6.613 9.41 11.04s3.381 9.139 3.381 14.136-1.127 9.709-3.381 14.136c-2.254 4.428-5.391 8.106-9.41 11.039-1.086.815-3.15 2.01-6.191 3.585-2.119 1.087-3.178 2.689-3.178 4.808 0 1.412.516 2.635 1.547 3.666 1.033 1.033 2.281 1.549 3.748 1.549.652 0 1.332-.137 2.037-.407 7.603-3.206 13.715-8.325 18.332-15.359z"/></g></g></svg>