<svg height="48" width="48" xmlns="http://www.w3.org/2000/svg" xmlns:xlink="http://www.w3.org/1999/xlink">
  <linearGradient id="a" gradientUnits="userSpaceOnUse" spreadMethod="pad" x1="-545.79788" x2="-517.79794" y1="400.5714" y2="400.5714">
    <stop offset="0" stop-color="#fc7816" />
    <stop offset="1" stop-color="#ffac01" />
  </linearGradient>
  <linearGradient id="b" gradientUnits="userSpaceOnUse" x1="399.57144" x2="399.57144" y1="545.79797" y2="517.79797">
    <stop offset="0" stop-color="#3889e9" />
    <stop offset="1" stop-color="#5ea5fb" />
  </linearGradient>
  <g stroke-width="1.3" transform="matrix(1.64285852 0 0 1.64285852 -634.082154 -849.668782)">
    <circle cx="-531.79791" cy="400.57138" fill="url(#a)" r="13.999958" transform="rotate(-90)" />
    <circle cx="400.57144" cy="531.79797" fill="none" r="13.999958" />
    <circle cx="400.57138" cy="531.79791" fill="url(#b)" r="0" />
  </g>
  <g fill="#fff" fill-opacity=".85098" transform="translate(58.607422 -16.705078)">
    <path d="m-47.107422 30.705078c0 7.190045 2.379879 13.475161 5.939453 17h-10.939453c0 1.656854 7.835018 3 17.5 3 9.664983 0 17.5-1.343146 17.5-3h-10.9375c.855039-.846695 1.646139-1.839308 2.347656-2.980469a5 6 20 0 0 .634766.300782 5 6 20 0 0 6.751953-3.927735 5 6 20 0 0 -2.648437-7.349609 5 6 20 0 0 -.828125-.207031 5 6 20 0 0 -.457032-.03906c.08035-.916275.136719-1.845157.136719-2.796875zm12.5 2.294922a6.5 6.5 0 0 1 6.5 6.5 6.5 6.5 0 0 1 -6.5 6.5 6.5 6.5 0 0 1 -6.5-6.5 6.5 6.5 0 0 1 6.5-6.5zm12.160156 2.269531a3.5 4.1999998 20 0 1 .292969.02539 3.5 4.1999998 20 0 1 .580078.146484 3.5 4.1999998 20 0 1 1.851563 5.142578 3.5 4.1999998 20 0 1 -4.72461 2.75 3.5 4.1999998 20 0 1 -.386718-.179687c1.13401-2.27615 1.958756-4.956345 2.386718-7.884765z" opacity=".92" />
    <path d="m-35.357091 34.249382v4.5 1.5h1.5 3v-1.5h-3v-4.5z" opacity=".92" />
  </g>
</svg>
