<svg height="48" width="48" xmlns="http://www.w3.org/2000/svg" xmlns:xlink="http://www.w3.org/1999/xlink"><linearGradient id="a"><stop offset="0" stop-color="#f6fbff"/><stop offset="1" stop-color="#eaeff2"/></linearGradient><linearGradient id="b" gradientTransform="matrix(1.6856954 0 0 1.635038 -13.432752 -1651.8387)" gradientUnits="userSpaceOnUse" x1="17" x2="17" y1="1036.3622" y2="1012.3622"><stop offset="0" stop-color="#c23b16"/><stop offset="1" stop-color="#ff6a44"/></linearGradient><linearGradient id="c" gradientTransform="matrix(.67770905 0 0 1.0712392 11.868223 -73.324037)" gradientUnits="userSpaceOnUse" x1="33.461716" x2="34.116894" xlink:href="#a" y1="1013.622" y2="1037.2084"/><linearGradient id="d" gradientUnits="userSpaceOnUse" x1="20.92002489618" x2="20.860920416766" xlink:href="#a" y1="1031.624860989" y2="1016.873613291126"/><linearGradient id="e" gradientUnits="userSpaceOnUse" x1="28.115517452278" x2="28.19570004926" xlink:href="#a" y1="1030.647052295592" y2="1018.913393688854"/><linearGradient id="f" gradientTransform="matrix(.47839534 0 0 .30468853 18.102817 710.28769)" gradientUnits="userSpaceOnUse" x1="20.734341" x2="20.836763" xlink:href="#a" y1="1032.5204" y2="1017.5323"/><linearGradient id="g" gradientUnits="userSpaceOnUse" x1="13.652462724108" x2="13.747651973347" xlink:href="#a" y1="1031.994288709936" y2="1018.064605765732"/><linearGradient id="h" gradientTransform="matrix(.20522356 0 0 1.073322 15.976861 -75.978884)" gradientUnits="userSpaceOnUse" x1="20.734341" x2="20.836763" xlink:href="#a" y1="1032.5204" y2="1017.5323"/><g transform="matrix(1.5263052 0 0 1.5263052 -9.754789695938 -1539.9238)"><g fill-rule="evenodd"><path d="m32.721748 1010.5621c-.128059 0-.273433 0-.438153.015l-10.654373.9987h-10.992391c-1.3586002-.1007-1.9094812.025-1.9094812 1.2557v23.6651c-.08534 1.3508.477817 1.3223 1.7989282 1.3223h11.214366l10.632665 1.2418c1.030849 0 1.239266-.3937 1.238354-1.2505h.9067c.883714 0 1.039021.029.981944-1.322v-23.6654c0-1.2309-.07315-1.3564-.981944-1.2557h-.855766c-.0355-.7042-.200946-.9901-.940849-1.0057z" fill-opacity=".666667"/><path d="m34.600617 1037.4827h-7.852522v-26.2433h7.852522c.833683-.1007.900769.025.900769 1.2556v23.6654c.05236 1.3509-.09009 1.3223-.900769 1.3223z" fill="url(#c)"/><path d="m40.189453 2.0019531c-.195458-.0040972-.418504.002272-.669922.0214844l-16.261719 1.5253906h-16.7773432c-2.0736516-.1536989-2.9140625.0377445-2.9140626 1.9160157v36.1210942c-.1302472 2.061733.7296598 2.017578 2.7460938 2.017578h17.113281l16.232422 1.896484c1.95584 0 1.97202-.926396 1.845703-2.988281l.136719-38.2089846c0-1.643888-.082968-2.272101-1.451172-2.3007813z" fill="url(#b)" transform="matrix(.65517696 0 0 .65517696 6.391114 1008.9226)"/><path d="m32.373618 1038.7331-10.744086-1.2549v-26.2303l10.654445-.999c1.317784-.1007 1.388853.262 1.388853 1.4929l-.08964 25.0336c.08276 1.3509.07185 1.9577-1.209573 1.9577z" fill-opacity=".039216"/></g><g transform="matrix(1.0759829 0 0 1.0759829 -1.730431 -77.569113)"><path d="m13.348131 1017.7039c-.514878 0-.928825.4152-.928825.9301v9.5368c0 .5149.413947.9288.928825.9288h6.287712v1.332h-1.684017v1.2559h5.879789v-1.2559h-1.738724v-1.332h6.447075c.514878 0 .928826-.4139.928826-.9288v-9.5368c0-.5149-.413948-.9301-.928826-.9301zm.220017.6815h14.604331c.313241 0 .564907.2529.564907.5661v8.9208c0 .3132-.251666.5649-.564907.5649h-14.604331c-.313241 0-.564907-.2517-.564907-.5649v-8.9208c0-.3132.251666-.5661.564907-.5661z" fill="url(#d)"/><path d="m25.37907 1021.2144c1.155255 0 2.091947.9348 2.091947 2.0901h-2.091947c.000434 0 .000434-2.0901 0-2.0901zm-.588033.5683v2.0921h2.091946c0 1.1565-.93626 2.092-2.091946 2.092-1.155691 0-2.091082-.9355-2.091082-2.092 0-1.1557.935825-2.0921 2.091082-2.0921z" fill="url(#e)"/><g fill="url(#f)"><rect height=".679605" rx="0" ry=".095063" width="5.692083" x="14.267001" y="1020.4894"/><rect height=".679605" rx="0" ry=".095063" width="5.692083" x="14.27282" y="1021.669"/><rect height=".679605" rx="0" ry=".095063" width="5.692083" x="14.281395" y="1022.7639"/></g><path d="m17.794582 1024.7866c-.03888.024-.03772.1315-.03772.1315l.000001 2.1697s-.0054.1195.03772.1441c.0431.024.143106-.041.143106-.041.331157-.2037 1.407318-.8746 1.738432-1.0784 0 0 .103348-.055.105222-.1036.0022-.06-.11785-.1353-.11785-.1353-.331127-.2037-1.363106-.8495-1.694233-1.0532 0 0-.124064-.065-.174677-.034z" fill="url(#g)"/><rect fill="url(#h)" height="2.394036" rx="0" ry=".334876" width="2.441808" x="14.337536" y="1024.7766"/></g></g></svg>