<svg height="48" width="48" xmlns="http://www.w3.org/2000/svg" xmlns:xlink="http://www.w3.org/1999/xlink"><linearGradient id="a"><stop offset="0" stop-color="#f6fbff"/><stop offset="1" stop-color="#eaeff2"/></linearGradient><linearGradient id="b" gradientUnits="userSpaceOnUse" x1="-8.074407655036" x2="-8.074407655036" xlink:href="#a" y1="1040.75873257757" y2="1026.78602967757"/><linearGradient id="c" gradientTransform="matrix(1.1883467 0 0 1.1526352 -34.754767 -148.5491)" gradientUnits="userSpaceOnUse" x1="17" x2="17" y1="1036.3622" y2="1012.3622"><stop offset="0" stop-color="#ec2e5b"/><stop offset="1" stop-color="#f56c8c"/></linearGradient><linearGradient id="d" gradientTransform="matrix(.75840566 0 0 1.1526352 -20.410702 -148.5491)" gradientUnits="userSpaceOnUse" x1="33.461716" x2="34.116894" xlink:href="#a" y1="1013.622" y2="1037.2084"/><g transform="matrix(1.5263052 0 0 1.5263052 -9.854790160031 -1539.9238)"><path d="m32.787265 1010.5621c-.128058 0-.273432 0-.438153.015l-10.654372.9987h-10.992392c-1.3586001-.1007-1.9094812.025-1.9094812 1.2557v23.6651c-.085338 1.3508.4778167 1.3223 1.7989282 1.3223h11.214366l10.632666 1.2418c1.030849 0 1.239266-.3937 1.238353-1.2505h.906701c.883714 0 1.03902.029.981943-1.322v-23.6654c0-1.2309-.07315-1.3564-.981943-1.2557h-.855766c-.0355-.7042-.200946-.9901-.94085-1.0057z" fill-opacity=".666667" fill-rule="evenodd"/><g transform="matrix(.92938917 0 0 .92937816 29.956687 64.739539)"><g fill-rule="evenodd"><path d="m5.0284994 1046.66h-8.787544v-28.2372h8.787544c.932951-.1084 1.008023.027 1.008023 1.351v25.4635c.05859 1.4535-.10082 1.4227-1.008023 1.4227z" fill="url(#d)"/><path d="m3.0463094 1017.3399c-.13779 0-.29367 0-.470908.017l-11.464319 1.075h-11.8277334c-1.461844-.1083-2.055107.027-2.055107 1.3513v25.4636c-.09182 1.4534.514596 1.4229 1.936101 1.4229h12.0670234l11.440005 1.336c1.378787 0 1.390449-.6529 1.301398-2.1063l.09725-26.9352c0-1.159-.05916-1.6036-1.023714-1.6239z" fill="url(#c)"/><path d="m2.6715134 1048.0055-11.560454-1.3503v-28.2233l11.464002-1.075c1.417913-.1083 1.494382.282 1.494382 1.6065l-.09645 26.9357c.08905 1.4534.07731 2.1064-1.301478 2.1064z" fill-opacity=".039216"/></g><path d="m-9.1486836 1026.7927-4.7743464 8.2665-1.671212-2.8972h-.0038-2.1498v1.0749h1.534286l2.291843 3.9695.619344-1.0723 4.7769094-8.2704h6.899833v1.0736h1.07489598v-2.1446h-8.59791298zm2.257289 3.5459-1.974487.348v.2662c.147847-.01.279497-.015.39285-.015.354836 0 .622542.067.804892.1996.182347.1331.330687.3605.444039.6808.02464.069.18966.7015.495222 1.899-.123212.2761-.383948.7253-.783146 1.3462-.399193.6209-.715302 1.0245-.946934 1.2118-.09364.079-.169914.119-.229057.119-.069 0-.167456-.057-.295596-.1702-.177422-.1577-.345192-.2367-.5029-.2367s-.290826.054-.399246.1625c-.108424.1084-.1625164.2443-.1625164.4069 0 .1824.05959.3281.1778684.4364.16264.143.341595.2137.538731.2137.280915 0 .572087-.1221.872716-.3685.463268-.3844 1.078985-1.2454 1.847801-2.5811.325277 1.4638.540169 2.2928.643666 2.4851.162636.3105.381746.4645.657733.4645.187275 0 .41611-.1082.687169-.325.47805-.3844.87318-.8669 1.183669-1.4486l-.259764-.1331c-.192211.3647-.423788.6613-.694849.8881-.137994.1133-.258643.1702-.362142.1702-.06407 0-.127878-.037-.19194-.1113-.06407-.079-.143099-.3132-.236735-.7026l-.605274-2.5426c.423841-.7343.78854-1.2293 1.094095-1.4857.162634-.1379.302724-.2073.421003-.2073.07886 0 .23416.04.465792.119.118278.044.229206.065.332705.065.177421 0 .335476-.061.47347-.1843.07392-.069.11005-.1978.11005-.3852 0-.1626-.06381-.2999-.191947-.4133-.123212-.1134-.290984-.1702-.502901-.1702-.14292 0-.273295.025-.391573.074-.187275.079-.403642.2259-.65006.4427-.246412.212-.455806.4366-.628301.6731l-.651338.9764c-.202064-.754-.34765-1.2199-.436361-1.3974-.123206-.2563-.30492-.5127-.546404-.7691z" fill="url(#b)"/></g></g></svg>