<svg height="48" width="48" xmlns="http://www.w3.org/2000/svg" xmlns:xlink="http://www.w3.org/1999/xlink"><linearGradient id="a"><stop offset="0" stop-color="#f6fbff"/><stop offset="1" stop-color="#eaeff2"/></linearGradient><linearGradient id="b" gradientTransform="matrix(.71880413 0 0 1.0718124 10.500129 -73.903689)" gradientUnits="userSpaceOnUse" x1="33.461716" x2="34.116894" xlink:href="#a" y1="1013.622" y2="1037.2084"/><linearGradient id="c" gradientTransform="matrix(1.1050208 0 0 1.0718124 -2.364478 -73.903689)" gradientUnits="userSpaceOnUse" x1="17" x2="17" y1="1036.3622" y2="1012.3622"><stop offset="0" stop-color="#3bd450"/><stop offset="1" stop-color="#53f086"/></linearGradient><linearGradient id="d" gradientTransform="matrix(.0916145 0 0 .07484028 7.521032 976.91759)" gradientUnits="userSpaceOnUse" x1="95.896271" x2="95.693985" xlink:href="#a" y1="528.65894" y2="602.02802"/><g transform="matrix(1.5263052 0 0 1.5263052 -9.854790160031 -1539.9238)"><path d="m32.800374 1010.5607c-.128128 0-.273391 0-.438202.015l-10.660177.9991v.0003h-10.998357c-1.3593384-.1007-1.9107695.024-1.9107695 1.2554v23.6659c-.08538 1.3508.4782449 1.3221 1.8000745 1.3221h11.218831l10.640051 1.242c1.031473 0 1.239895-.3935 1.238981-1.2504h.934648c.859837 0 1.010915.029.955385-1.3223v-23.6658c0-1.231-.07115-1.3561-.955385-1.2554h-.885248c-.036-.7011-.201046-.9906-.939832-1.0061z" fill-opacity=".666667" fill-rule="evenodd"/><g fill-rule="evenodd" transform="matrix(1 0 0 .99948032 .014414 .524633)"><path d="m34.610975 1037.4974h-8.328685v-26.2573h8.328685c.884237-.1007.955389.025.955389 1.2563v23.678c.05553 1.3516-.09555 1.323-.955389 1.323z" fill="url(#b)"/><path d="m32.78596 1010.2336c-.128128 0-.273391 0-.438202.015l-10.660177.9996v.0003h-10.998357c-1.3593382-.1008-1.9107693.024-1.9107693 1.256v23.6782c-.08538 1.3515.4782449 1.3228 1.8000743 1.3228h11.218831l10.640051 1.2427c1.282105 0 1.293124-.6071 1.210316-1.9587l.08965-25.047c0-1.0777-.05452-1.4904-.95142-1.5092z" fill="url(#c)"/><path d="m32.437499 1038.7485-10.749844-1.2556v-26.2443l10.660154-.9996c1.31849-.1007 1.389598.2622 1.389598 1.4938l-.08969 25.047c.08281 1.3515.07189 1.9587-1.210218 1.9587z" fill-opacity=".039216"/></g><path d="m24.668231 1023.8517h5.230208c.08008 0 .144563.1.144563.2242v1.1548c0 .1241-.06448.2241-.144563.2241h-5.230208c-.08009 0-.14456-.1-.14456-.2241v-1.1548c0-.1242.06447-.2242.14456-.2242z" fill="#f3f3f3" opacity=".8"/><path d="m24.668231 1027.3787h5.230208c.08008 0 .144563.1.144563.2243v1.1547c0 .1242-.06448.2242-.144563.2242h-5.230208c-.08009 0-.14456-.1-.14456-.2242v-1.1547c0-.1243.06447-.2243.14456-.2243z" fill="#f3f3f3" opacity=".8"/><path d="m11.996017 1016.4097c-.149354 0-.269312.098-.269312.2202v5.1162c0 .1221.119958.2201.269312.2201h7.863835c.149355 0 .269622-.098.269622-.2201v-5.1162c0-.122-.120267-.2202-.269622-.2202zm3.554483.6355.855165.0003c.116258.0001.209979.077.209877.1717l-.0046 3.9945c-.000106.094-.09362.1711-.209878.1711l-.855476-.0003c-.116253 0-.209673-.076-.209566-.1715l.0043-3.9943c.000103-.094.09394-.1715.210191-.1715zm-1.891862 1.1172.855164.0003c.116257.0001.209677.076.209568.1715l-.0043 2.8686c-.000112.094-.09362.1712-.20988.1712l-.855476-.0003c-.116256-.0001-.209675-.076-.209567-.1715l.0043-2.8684c.000111-.095.09392-.1714.210185-.1714zm3.818395 1.1341.855476.0003c.116257.0001.209416.077.209259.1715l-.0037 1.7423c-.00032.095-.09423.1715-.210499.1715l-.855165-.0003c-.116259-.0001-.209726-.077-.209567-.1715l.004-1.7423c.000321-.094.09392-.1715.21019-.1715z" fill="url(#d)"/><g fill="#f3f3f3"><path d="m24.668231 1030.9058h5.230208c.08008 0 .144563.1.144563.2243v1.1546c0 .1243-.06448.2243-.144563.2243h-5.230208c-.08009 0-.14456-.1-.14456-.2243v-1.1546c0-.1243.06447-.2243.14456-.2243z" opacity=".7"/><path d="m24.668231 1016.4769h5.230208c.08008 0 .144563.1.144563.2243v1.1548c0 .1241-.06448.2241-.144563.2241h-5.230208c-.08009 0-.14456-.1-.14456-.2241v-1.1548c0-.1243.06447-.2243.14456-.2243z"/><path d="m24.668231 1020.3247h5.230208c.08008 0 .144563.1.144563.2242v1.1547c0 .1243-.06448.2243-.144563.2243h-5.230208c-.08009 0-.14456-.1-.14456-.2243v-1.1547c0-.1242.06447-.2242.14456-.2242z" opacity=".9"/><path d="m18.255418 1023.8517h5.23021c.08008 0 .144562.1.144562.2242v1.1548c0 .1241-.06447.2241-.144562.2241h-5.23021c-.08009 0-.144559-.1-.144559-.2241v-1.1548c0-.1242.06447-.2242.144559-.2242z" opacity=".8"/><path d="m18.255418 1027.3787h5.23021c.08008 0 .144562.1.144562.2243v1.1547c0 .1242-.06447.2242-.144562.2242h-5.23021c-.08009 0-.144559-.1-.144559-.2242v-1.1547c0-.1243.06447-.2243.144559-.2243z" opacity=".8"/><path d="m18.255418 1030.9058h5.23021c.08008 0 .144562.1.144562.2243v1.1546c0 .1243-.06447.2243-.144562.2243h-5.23021c-.08009 0-.144559-.1-.144559-.2243v-1.1546c0-.1243.06447-.2243.144559-.2243z" opacity=".7"/><path d="m11.842607 1023.8517h5.230208c.08008 0 .144563.1.144563.2242v1.1548c0 .1241-.06448.2241-.144563.2241h-5.230208c-.08008 0-.14456-.1-.14456-.2241v-1.1548c0-.1242.06447-.2242.14456-.2242z" opacity=".8"/><path d="m11.842607 1027.3787h5.230208c.08008 0 .144563.1.144563.2243v1.1547c0 .1242-.06448.2242-.144563.2242h-5.230208c-.08008 0-.14456-.1-.14456-.2242v-1.1547c0-.1243.06447-.2243.14456-.2243z" opacity=".8"/><path d="m11.842607 1030.9058h5.230208c.08008 0 .144563.1.144563.2243v1.1546c0 .1243-.06448.2243-.144563.2243h-5.230208c-.08008 0-.14456-.1-.14456-.2243v-1.1546c0-.1243.06447-.2243.14456-.2243z" opacity=".7"/><path d="m21.782464 1020.3247h1.703164c.08008 0 .144562.1.144562.2242v1.1547c0 .1243-.06447.2243-.144562.2243h-1.703164c-.08008 0-.144558-.1-.144558-.2243v-1.1547c0-.1242.06447-.2242.144558-.2242z" opacity=".8"/><path d="m21.782464 1016.4769h1.703164c.08008 0 .144562.1.144562.2243v1.1548c0 .1241-.06447.2241-.144562.2241h-1.703164c-.08008 0-.144558-.1-.144558-.2241v-1.1548c0-.1243.06447-.2243.144558-.2243z" opacity=".8"/></g></g></svg>