<svg viewBox="0 0 48 48" xmlns="http://www.w3.org/2000/svg" xmlns:xlink="http://www.w3.org/1999/xlink"><linearGradient id="a" gradientTransform="matrix(.97630543 0 0 1.5118743 8.238586 -258.9449)" gradientUnits="userSpaceOnUse" x1="409.57144" x2="409.57144" y1="542.79797" y2="507.798"><stop offset="0" stop-color="#292926"/><stop offset="1" stop-color="#484b4d"/></linearGradient><linearGradient id="b" gradientUnits="userSpaceOnUse" x1="-2.589929" x2="-2.702996" y1="1046.659084" y2="1024.295684"><stop offset="0" stop-color="#00859f"/><stop offset="1" stop-color="#00caf6"/></linearGradient><g transform="matrix(.88203063675 0 0 .88203061246 38.78403331829 -877.60978986874)"><path d="m44.117789-36.697398c-1.235956 0-2.230866 1.051557-2.230866 2.357753v96.207066l73.286947.282863-7.41131-62.05772609c-.15479-1.29604861 21.72423 38.76457409 1.1378.47151253l-12.548421-23.34148944c-2.273939.212529-2.56686-.106641-3.690531-1.691769-1.593476-2.253748-3.99962-8.328213-5.568351-10.526652-1.259149-1.924793-1.463371-1.701564-3.551628-1.701564z" fill="#46494b" transform="matrix(.35217401193 -.08739827027 .08408649366 .33882912053 -54.9412069012 1017.97814507585)"/><rect fill="url(#a)" height="51.403732" ry="1.879988" transform="matrix(.85094059889 -.21117610591 .20182518793 .8132608217 -473.15139281537 673.49907295122)" width="42.957439" x="385.65039" y="508.78186"/><g fill-rule="evenodd" transform="matrix(1.06750746879 -.26492104218 .29380790608 1.18390802241 -296.12324673863 -189.45486509459)"><g fill="#fff"><path d="m-34.260591 1005.781314h2v.999863h-2z" opacity=".8"/><path d="m-34.260591 1009.781214h2v.999863h-2z" opacity=".8"/><path d="m-34.260591 1007.781314h2v.999863h-2z" opacity=".8"/><path d="m-34.260591 1011.781214h2v.999863h-2z" opacity=".8"/><path d="m-34.260591 1015.781214h2v.999863h-2z" opacity=".8"/><path d="m-34.260591 1013.781214h2v.999863h-2z" opacity=".8"/><path d="m-34.260591 1017.781214h2v.999863h-2z" opacity=".8"/><path d="m-34.260591 1021.781214h2v.999863h-2z" opacity=".8"/><path d="m-34.260591 1019.781214h2v.999863h-2z" opacity=".8"/></g><path d="m-31.260591 1005.781114h9v.999863h-9z" fill="#f92672" opacity=".8"/><path d="m-21.260591 1005.781314h6v.999863h-6z" fill="#fff" opacity=".8"/><path d="m-14.260591 1005.781314h4v.999863h-4z" fill="#fff" opacity=".8"/><path d="m-31.260591 1007.781114h5v1.000017h-5z" fill="#fd971f" opacity=".8"/><path d="m-25.260591 1007.781114h2v1.000105h-2z" fill="#fff" opacity=".8"/><path d="m-22.260591 1007.781314h9v.999863h-9z" fill="#a6e22e" opacity=".8"/><path d="m-31.260591 1009.781114h7v.999863h-7z" fill="#f92672" opacity=".8"/><path d="m-23.260591 1009.781314h5v.999863h-5z" fill="#fd971f" opacity=".8"/><path d="m-17.260591 1009.781214h2v.999863h-2z" fill="#fff" opacity=".8"/><path d="m-29.260591 1011.781114h4v.999863h-4z" fill="#f92672" opacity=".8"/><path d="m-24.260591 1011.781314h10v.999863h-10z" fill="#a6e22e" opacity=".8"/><path d="m-13.260591 1011.781314h4v.999863h-4z" fill="#fff" opacity=".8"/><path d="m-29.260591 1013.781114h6v.999863h-6z" fill="#f92672" opacity=".8"/><path d="m-22.260591 1013.781314h6v.999863h-6z" fill="#66d9ef" opacity=".8"/><path d="m-15.260591 1013.781314h4v.999863h-4z" fill="#a6e22e" opacity=".8"/><path d="m-29.260591 1015.781114h2v.999863h-2z" fill="#f92672" opacity=".8"/><path d="m-26.260591 1015.781314h13v.999863h-13z" fill="#66d9ef" opacity=".8"/><path d="m-12.260591 1015.781314h5.5v.999863h-5.5z" fill="#fff" opacity=".8"/><path d="m-29.260591 1017.781114h3v.999863h-3z" fill="#f92672" opacity=".8"/><path d="m-25.260591 1017.781314h11v.999863h-11z" fill="#66d9ef" opacity=".8"/><path d="m-13.260591 1017.781314h4v.999863h-4z" fill="#fff" opacity=".8"/><rect fill="#fff" height="1.000017" opacity=".8" ry=".000017" width="2" x="-31.260591" y="1019.781114"/><path d="m-28.260591 1019.781314h8v.999863h-8z" fill="#66d9ef" opacity=".8"/><path d="m-19.260591 1019.781314h3v.999863h-3z" fill="#fd971f" opacity=".8"/><path d="m-31.260591 1021.781114h4v.999863h-4z" fill="#f92672" opacity=".8"/><path d="m-26.260591 1021.781314h11v.999863h-11z" fill="#a6e22e" opacity=".8"/><path d="m-14.260591 1021.781314h2.5v.999863h-2.5z" fill="#fff" opacity=".8"/><path d="m-31.260591 1011.781114h1v7h-1z" fill="#faffeb" opacity=".678899"/><path d="m-34.28725 1023.798019h2v.999863h-2z" fill="#fff" opacity=".8"/><path d="m-34.28725 1025.798019h2v.999863h-2z" fill="#fff" opacity=".8"/><path d="m-34.28725 1029.798019h2v.999863h-2z" fill="#fff" opacity=".8"/><path d="m-34.28725 1027.798019h2v.999863h-2z" fill="#fff" opacity=".8"/><path d="m-29.28725 1023.797819h2v.999863h-2z" fill="#f92672" opacity=".8"/><path d="m-26.28725 1023.798119h13v.999863h-13z" fill="#66d9ef" opacity=".8"/><path d="m-12.28725 1023.798119h5.5v.999863h-5.5z" fill="#fff" opacity=".8"/><path d="m-29.28725 1025.797819h3v.999863h-3z" fill="#f92672" opacity=".8"/><path d="m-25.28725 1025.798119h11v.999863h-11z" fill="#66d9ef" opacity=".8"/><path d="m-13.28725 1025.798119h4v.999863h-4z" fill="#fff" opacity=".8"/><rect fill="#fff" height="1.000017" opacity=".8" ry=".000017" width="2" x="-31.28725" y="1027.797819"/><path d="m-28.28725 1027.798119h8v.999863h-8z" fill="#66d9ef" opacity=".8"/><path d="m-19.28725 1027.798119h3v.999863h-3z" fill="#fd971f" opacity=".8"/><path d="m-31.28725 1029.797819h4v.999863h-4z" fill="#f92672" opacity=".8"/><path d="m-26.28725 1029.798119h11v.999863h-11z" fill="#a6e22e" opacity=".8"/><path d="m-14.28725 1029.798119h2.5v.999863h-2.5z" fill="#fff" opacity=".8"/></g><circle cx="-2.188196" cy="1035.2941" fill="url(#b)" r="11.767713"/></g></svg>