<svg height="48" width="48" xmlns="http://www.w3.org/2000/svg" xmlns:xlink="http://www.w3.org/1999/xlink"><linearGradient gradientUnits="userSpaceOnUse" x1="0" x2="47" y1="23.5" y2="23.5"><stop offset="0" stop-color="#a9a3d4"/><stop offset=".47001833" stop-color="#87baff"/><stop offset="1" stop-color="#89ec85"/></linearGradient><linearGradient id="a" gradientUnits="userSpaceOnUse" x1="-101.729188670129" x2="-100.933864047935" y1="1023.738751407543" y2="1016.704843896308"><stop offset="0" stop-color="#eefefe"/><stop offset="1" stop-color="#d6fefe"/></linearGradient><linearGradient id="b" gradientTransform="matrix(.8710074 0 0 .85054752 -338.51413 580.38113)" gradientUnits="userSpaceOnUse" x1="409.57144" x2="409.93887" y1="542.79797" y2="504.1911"><stop offset="0" stop-color="#86d0fb"/><stop offset="1" stop-color="#2794f5"/></linearGradient><linearGradient id="c" gradientTransform="matrix(-.59425646 .00304159 .00318127 .56816821 347.38866 -241.4212)" gradientUnits="userSpaceOnUse" x1="542.83392" x2="543.25458" y1="484.29376" y2="463.62488"><stop offset="0" stop-color="#132e51"/><stop offset="1" stop-color="#2767b9"/></linearGradient><g stroke-width="1.317422" transform="matrix(1.148095945302 0 0 1.148095945302 4.075229808735 -1154.803747231725)"><rect fill-opacity=".666667" height="28.918613" ry="1.360876" width="38.324322" x="-1.80754" y="1013.1587"/><path d="m-.44666433 1012.2874h35.60256933c.753926 0 1.360876.607 1.360876 1.3609v26.1094c0 .7539-.60695 1.3608-1.360876 1.3608h-35.60256933c-.75392527 0-1.36087597-.6069-1.36087597-1.3608v-26.1094c0-.7539.6069507-1.3609 1.36087597-1.3609z" fill="url(#b)"/><path d="m41.120535 21.927394-6.040364 6.992497-11.520493 3.053355-11.01953-6.065942-6.1734872.566345-5.3588483-2.71779v15.84961c0 .904697.7281149 1.632812 1.6328125 1.632812h42.722656c.904698 0 1.632813-.728115 1.632813-1.632812v-15.244141z" fill="url(#c)" fill-rule="evenodd" transform="matrix(.83333358 0 0 .83333358 -2.647385 1006.8406)"/><circle cx="-101.28056" cy="1020.5787" fill="url(#a)" opacity=".811" r="3.302982" transform="matrix(.99253125 -.12199067 .12199067 .99253125 0 0)"/><g fill="#fff" fill-opacity=".852041"><circle cx="8.963117634561" cy="1015.407604932102" r="1.551634900122"/><circle cx="5.151246853887" cy="1015.440517932762" r="1.551634900122"/><circle cx="1.404234045104" cy="1015.477262955255" r="1.551634900122"/></g></g></svg>