<?xml version="1.0" encoding="UTF-8" standalone="no"?>
<!-- Created with Inkscape (http://www.inkscape.org/) -->

<svg
   xmlns:dc="http://purl.org/dc/elements/1.1/"
   xmlns:cc="http://creativecommons.org/ns#"
   xmlns:rdf="http://www.w3.org/1999/02/22-rdf-syntax-ns#"
   xmlns:svg="http://www.w3.org/2000/svg"
   xmlns="http://www.w3.org/2000/svg"
   xmlns:xlink="http://www.w3.org/1999/xlink"
   xmlns:sodipodi="http://sodipodi.sourceforge.net/DTD/sodipodi-0.dtd"
   xmlns:inkscape="http://www.inkscape.org/namespaces/inkscape"
   width="48"
   height="48"
   viewBox="0 0 48 48.000001"
   id="svg2"
   version="1.1"
   inkscape:version="0.91 r13725"
   sodipodi:docname="love-app.svg"
   enable-background="new">
  <sodipodi:namedview
     id="base"
     pagecolor="#dcdcdc"
     bordercolor="#666666"
     borderopacity="1.0"
     inkscape:pageopacity="0"
     inkscape:pageshadow="2"
     inkscape:zoom="7.919596"
     inkscape:cx="6.712414"
     inkscape:cy="21.965098"
     inkscape:document-units="px"
     inkscape:current-layer="layer1"
     showgrid="false"
     units="px" />
  <defs
     id="defs4">
    <linearGradient
       inkscape:collect="always"
       id="linearGradient146110">
      <stop
         style="stop-color:#ececec;stop-opacity:1"
         offset="0"
         id="stop146112" />
      <stop
         style="stop-color:#ececec;stop-opacity:1"
         offset="1"
         id="stop146114" />
    </linearGradient>
    <linearGradient
       id="linearGradient145362"
       inkscape:collect="always">
      <stop
         id="stop145364"
         offset="0"
         style="stop-color:#ff4085;stop-opacity:1;" />
      <stop
         id="stop145366"
         offset="1"
         style="stop-color:#ff40a3;stop-opacity:1" />
    </linearGradient>
    <linearGradient
       id="linearGradient145033"
       inkscape:collect="always">
      <stop
         id="stop145035"
         offset="0"
         style="stop-color:#5fbcd3;stop-opacity:1" />
      <stop
         id="stop145037"
         offset="1"
         style="stop-color:#87cdde;stop-opacity:1" />
    </linearGradient>
    <symbol
       id="emoji-1f49f"
       viewBox="0 0 64 64">
      <title
         id="title56961">1f49f</title>
      <path
         id="path56963"
         d="m32 2c-16.568 0-30 13.432-30 30s13.432 30 30 30 30-13.432 30-30-13.432-30-30-30m0 48c-1.372-1.813-20.53-12.883-16.602-25.22 3.53-11.07 15.09-6.597 16.602-.594 1.094-5.635 12.949-10.694 16.603.584 3.926 12.136-15.236 23.786-16.603 25.23"
         fill="#ff4085" />
    </symbol>
    <linearGradient
       gradientUnits="userSpaceOnUse"
       y2="-16.989727"
       x2="126.50414"
       y1="41.938843"
       x1="125.10662"
       id="linearGradient145039"
       xlink:href="#linearGradient145033"
       inkscape:collect="always" />
    <linearGradient
       gradientTransform="matrix(0.73472223,0,0,0.73472223,-67.279012,1018.884)"
       y2="-16.989727"
       x2="126.50414"
       y1="41.938843"
       x1="125.10662"
       gradientUnits="userSpaceOnUse"
       id="linearGradient146075"
       xlink:href="#linearGradient146110"
       inkscape:collect="always" />
    <linearGradient
       gradientTransform="matrix(0.63678622,0,0,0.63678622,-40.552149,983.6628)"
       y2="55.132896"
       x2="101.53939"
       y1="84.588905"
       x1="101.59349"
       gradientUnits="userSpaceOnUse"
       id="linearGradient146143"
       xlink:href="#linearGradient145362"
       inkscape:collect="always" />
    <clipPath
       clipPathUnits="userSpaceOnUse"
       id="clipPath146308">
      <g
         id="g146310"
         style="fill:#000000;fill-opacity:1"
         transform="matrix(0.76666667,0,0,0.76666667,-71.247619,1018.4717)">
        <title
           id="title146312">1f49f</title>
        <path
           id="path146314"
           d="m 124.23602,-17.099379 c -16.568,0 -29.999996,13.4320003 -29.999996,30 0,16.568 13.431996,30 29.999996,30 16.568,0 30,-13.432 30,-30 0,-16.5679997 -13.432,-30 -30,-30"
           inkscape:connector-curvature="0"
           style="fill:url(#linearGradient146316);fill-opacity:1"
           sodipodi:nodetypes="csssc" />
      </g>
    </clipPath>
    <linearGradient
       inkscape:collect="always"
       xlink:href="#linearGradient145033"
       id="linearGradient146316"
       gradientUnits="userSpaceOnUse"
       x1="125.10662"
       y1="41.938843"
       x2="126.50414"
       y2="-16.989727" />
  </defs>
  <metadata
     id="metadata7">
    <rdf:RDF>
      <cc:Work
         rdf:about="">
        <dc:format>image/svg+xml</dc:format>
        <dc:type
           rdf:resource="http://purl.org/dc/dcmitype/StillImage" />
        <dc:title></dc:title>
      </cc:Work>
    </rdf:RDF>
  </metadata>
  <g
     style=""
     transform="translate(0,-1004.3622)"
     id="layer1"
     inkscape:groupmode="layer"
     inkscape:label="Layer 1">
    <g
       transform="matrix(0.76666667,0,0,0.76666667,-71.247619,1018.4717)"
       style="fill:#000000;fill-opacity:1"
       id="use114375">
      <title
         id="title145019">1f49f</title>
      <path
         sodipodi:nodetypes="csssc"
         style="fill:url(#linearGradient145039);fill-opacity:1"
         inkscape:connector-curvature="0"
         d="m 124.23602,-17.099379 c -16.568,0 -29.999996,13.4320003 -29.999996,30 0,16.568 13.431996,30 29.999996,30 16.568,0 30,-13.432 30,-30 0,-16.5679997 -13.432,-30 -30,-30"
         id="path145021" />
    </g>
    <path
       style="fill:#000000;fill-opacity:0.07843137"
       d="m 29.466802,1018.5406 c -2.162545,0.096 -4.321179,1.3936 -5.290149,3.1472 l -1.080417,-1.0804 c -2.544808,-2.5449 -7.612809,-2.9073 -9.611817,1.6693 -1.23726,3.886 1.122424,7.5735 3.929084,10.4489 l 58.731849,58.7318 c 2.673802,2.7393 5.730606,4.7281 6.492234,5.4589 l 0.150869,0.1508 c 0.870486,-0.9195 13.072207,-8.3371 10.572187,-16.0651 -0.350883,-0.9888 -0.836787,-1.7566 -1.411357,-2.3311 L 33.217438,1019.939 c -1.052348,-1.0523 -2.400869,-1.4584 -3.750636,-1.3984 z"
       id="path146177"
       clip-path="url(#clipPath146308)"
       inkscape:connector-curvature="0" />
    <path
       inkscape:connector-curvature="0"
       id="path146073"
       d="m 24,1005.3622 c -12.690835,0 -23,10.3091 -23,23 0,12.6908 10.30916,23 23,23 12.690839,0 23,-10.3092 23,-23 0,-12.6909 -10.309165,-23 -23,-23 z m 0,1.9167 c 11.654921,0 21.083333,9.4283 21.083333,21.0833 0,11.6549 -9.428416,21.0833 -21.083333,21.0833 -11.654917,0 -21.0833329,-9.4284 -21.0833329,-21.0833 0,-11.655 9.4284109,-21.0833 21.0833329,-21.0833 z"
       style="color:#000000;font-style:normal;font-variant:normal;font-weight:normal;font-stretch:normal;font-size:medium;line-height:normal;font-family:sans-serif;text-indent:0;text-align:start;text-decoration:none;text-decoration-line:none;text-decoration-style:solid;text-decoration-color:#000000;letter-spacing:normal;word-spacing:normal;text-transform:none;direction:ltr;block-progression:tb;writing-mode:lr-tb;baseline-shift:baseline;text-anchor:start;white-space:normal;clip-rule:nonzero;display:inline;overflow:visible;visibility:visible;opacity:1;isolation:auto;mix-blend-mode:normal;color-interpolation:sRGB;color-interpolation-filters:linearRGB;solid-color:#000000;solid-opacity:1;fill:url(#linearGradient146075);fill-opacity:1;fill-rule:nonzero;stroke:none;stroke-width:2;stroke-linecap:butt;stroke-linejoin:miter;stroke-miterlimit:4;stroke-dasharray:none;stroke-dashoffset:0;stroke-opacity:1;color-rendering:auto;image-rendering:auto;shape-rendering:auto;text-rendering:auto;enable-background:accumulate" />
    <path
       sodipodi:nodetypes="ccccc"
       id="path145027"
       d="m 13.452377,1022.2836 c 2.300294,-5.2663 8.665203,-3.991 10.571927,-0.3783 1.745425,-3.5882 8.507941,-5.4462 10.572561,0.372 2.500023,7.728 -5.90604,11.9558 -10.585671,17.0849 -4.581665,-4.9366 -13.060114,-9.2225 -10.558817,-17.0786 z"
       inkscape:connector-curvature="0"
       style="fill:url(#linearGradient146143);fill-opacity:1" />
  </g>
</svg>
