<svg height="48" width="48" xmlns="http://www.w3.org/2000/svg" xmlns:xlink="http://www.w3.org/1999/xlink">
  <linearGradient id="a" gradientTransform="matrix(.92342938 0 0 .80600398 -410.20208 -395.14291)" gradientUnits="userSpaceOnUse" x1="466.37592" x2="466.48874" y1="542.6795" y2="502.37723">
    <stop offset="0" stop-color="#5ac9fa" />
    <stop offset="1" stop-color="#53ecc9" />
  </linearGradient>
  <linearGradient id="b" gradientTransform="matrix(.08613342 -.00985021 -.00806038 -.07069639 6.846887 47.661928)" gradientUnits="userSpaceOnUse" x1="258.65744" x2="257.50476" y1="1.707616" y2="564.00525">
    <stop offset="0" stop-color="#e9e9e9" />
    <stop offset="1" stop-color="#f9f9f9" />
  </linearGradient>
  <path d="m39.082427 10.493979c-.08044-.705479.556724-1.373491 1.47436-1.609565l-.223756-1.9625317c-.947153-.0228165-1.718276-.529778-1.79871-1.2352573-.080435-.7054792.556724-1.3734917 1.47436-1.6095653l-.236814-2.0770598-2.086841.2386509c-.035733.8146609-.699093 1.5123116-1.584889 1.6136112-.885796.1012995-1.689116-.4286218-1.907304-1.2142443l-2.364879.2704473c-.035733.814661-.699093 1.5123117-1.584889 1.6136112-.885796.1012996-1.689116-.4286218-1.907305-1.2142443l-2.033437.2325438c-.070543.783334-.720332 1.4431223-1.579857 1.5414176-.859526.0982952-1.641102-.3978024-1.886152-1.1450452l-2.391064.2734419c-.070456.7833241-.720332 1.4431223-1.579857 1.5414175-.859525.0982953-1.641188-.3977924-1.886152-1.1450451l-1.874263.2143406c-.070456.7833241-.720332 1.4431223-1.579857 1.5414175-.859525.0982953-1.641188-.3977924-1.886151-1.1450451l-2.3910638.2734418c-.0704567.7833241-.7203318 1.4431223-1.5798572 1.5414176-.8595254.0982952-1.6411877-.3977925-1.8861516-1.1450451l-2.0999328.2401481.2609952 2.2891492c.9471609.02289 1.7182753.529778 1.7987099 1.235257.080434.705479-.5567324 1.373421-1.4743601 1.609565l.2049433 1.797527c1.0630811-.07316 1.9720892.460001 2.0598023 1.229319.087713.769318-.6778847 1.493987-1.7300681 1.662729l.2028234 1.778933c1.0254105-.03927 1.8877774.485828 1.9730966 1.23415.085319.748321-.636652 1.454608-1.644507 1.647859l.1705819 1.496147c.042591-.0068.085418-.01306.1288293-.01803 1.1179257-.127846 2.0981136.417371 2.1893732 1.217796.09126.800424-.7409718 1.55291-1.8588975 1.680756-.043411.005-.086545.0085-.1295709.01152l.2108758 1.849559c1.0254185-.0392 1.8877855.485899 1.9731046 1.234221.085319.748321-.636652 1.454608-1.6444989 1.647929l.2284635 2.003819c.986739-.0073 1.8031755.509111 1.8860685 1.236153.082893.727041-.5962913 1.41447-1.5592683 1.630161l.2198388 1.928173c1.0630811-.07316 1.9720893.460001 2.0598024 1.229319.087713.769318-.6778848 1.493987-1.7300682 1.662729l.2022511 1.773914c1.0630811-.07316 1.9720893.460001 2.0598023 1.229319s-.6778847 1.493987-1.7300681 1.662728l.2180011 1.912061 1.9145733-.218951c-.02205-.07934-.03827-.161133-.04785-.245191-.1046153-.917568.601114-1.75177 1.576316-1.863294.975203-.111525 1.850539.541867 1.955154 1.459435.0096.08406.01219.16741.0086.249684l2.364879-.270448c-.02205-.07934-.03827-.161133-.04785-.245191-.104616-.917569.601113-1.751771 1.576316-1.863295.975202-.111524 1.850538.541868 1.955154 1.459436.0096.08406.01219.16741.0086.249683l1.848078-.211346c-.02205-.07934-.03827-.161133-.04785-.245191-.104616-.917569.601113-1.751771 1.576316-1.863295.975202-.111524 1.850538.541868 1.955154 1.459436.0096.08406.01219.16741.0086.249683l2.364879-.270447c-.02205-.07934-.03827-.161134-.04785-.245192-.104616-.917568.601114-1.75177 1.576316-1.863294.975203-.111524 1.850539.541867 1.955154 1.459436.0096.08406.01219.167409.0086.249683l2.010699-.229943c-.01308-.0573-.02333-.11586-.03014-.175599-.104615-.917568.601114-1.75177 1.576317-1.863294.975202-.111524 1.850538.541867 1.955154 1.459436.0068.05974.01.119103.01016.177883l2.345585-.268241c-.01308-.0573-.02333-.115859-.03014-.175598-.104616-.917568.601113-1.75177 1.576316-1.863294s1.850538.541867 1.955154 1.459436c.0068.05974.01.119103.01016.177883l2.24946-.257248-.218565-1.917003c-1.025419.0392-1.887786-.4859-1.973105-1.234221-.08532-.748321.636652-1.454608 1.644499-1.64793l-.2195-1.925204c-1.025419.0392-1.887786-.485899-1.973105-1.23422-.08532-.748322.636652-1.454609 1.644499-1.64793l-.195319-1.713115c-1.025419.0392-1.887786-.485899-1.973105-1.23422-.08532-.748322.636652-1.454609 1.644499-1.64793l-.2195-1.925204c-1.025419.0392-1.887786-.485899-1.973105-1.234221-.08532-.748321.636652-1.454608 1.644499-1.647929l-.187267-1.642489c-1.02541.03927-1.887777-.485829-1.973097-1.23415-.08532-.748322.636652-1.454609 1.644507-1.647859l-.219516-1.925346c-1.025411.03927-1.887777-.485828-1.973097-1.23415-.08532-.748321.636652-1.454608 1.644507-1.647859l-.205515-1.802545c-.947153-.02282-1.718276-.529778-1.79871-1.235258" fill="url(#b)" stroke-width=".078541" />
  <rect fill="url(#a)" height="32.804363" ry=".483602" stroke-width=".909319" transform="matrix(.99352435 -.11361939 .11328018 .99356308 0 0)" width="28.256941" x="6.884598" y="9.711288" />
</svg>
