<svg height="48" width="48" xmlns="http://www.w3.org/2000/svg" xmlns:xlink="http://www.w3.org/1999/xlink"><linearGradient gradientUnits="userSpaceOnUse" x1="0" x2="47" y1="23.5" y2="23.5"><stop offset="0" stop-color="#a9a3d4"/><stop offset=".47001833" stop-color="#87baff"/><stop offset="1" stop-color="#89ec85"/></linearGradient><linearGradient id="a" gradientUnits="userSpaceOnUse" x1="219.99991" x2="234.28575" y1="961.89673" y2="139.03957"><stop offset="0" stop-color="#28b162"/><stop offset="1" stop-color="#35e981"/></linearGradient><linearGradient id="b" gradientUnits="userSpaceOnUse" x1="186.872288359748" x2="191.300472712448" y1="-42.343035824329" y2="-645.023009568007"><stop offset="0" stop-color="#2a2c2f"/><stop offset="1" stop-color="#41474e"/></linearGradient><g stroke-width="1.317422" transform="matrix(.033982988869 0 0 .033982988869 18.714657128814 30.658914261775)"><g fill-rule="evenodd" transform="matrix(1.5026287 0 0 1.5026287 -134.17522 -1024.1756)"><path d="m-277.14286 975.21935-.00014-770s-.28078-27.07338 33.64111-35.46379l285.01589-71.536213 334.457 68.428583 242.13309-62.1651c44.53427-13.715366 44.75291 27.87938 44.75291 27.87938l.00014 768.57143s.192 27.09439-24.53904 33.33836l-264.03239 66.6617-334.285709-65.71435-278.699251 65.53195c-38.55798 10.6629-38.44361-25.53195-38.44361-25.53195z" fill="url(#a)"/><path d="m39.017 98.687205v643.015735l335.477-85.02867v-490.56607z" fill="#2dca6f"/><path d="m36.810263 935.4355 2.206737-212.20032 336.077-75.58198-.2065 352.9069z" fill="#3c9bd8"/><path d="m662.857 522.1585-288.809 126.2072v352.2903l251.50823-61.92815s37.30077-.8737 37.30077-39.9852z" fill="#43adf1"/><path d="m-277.143 861.29057 317.143-137.14285-2.857143 211.42857-276.005937 67.74691s-38.27992 13.1263-38.27992-25.98514z" fill="#43adf1"/><path d="m-277.143 863.80039 317.143-137.99342v-109.34612l-317.143 135.74493z" fill="#efefef"/><path d="m-242.30744 169.5522 115.9744-29.013 166.33304 215.97689.1 186.66348z" fill="#efefef"/><path d="m36.756573 617.28326 42.56025-9.60734-42.56025-73.51316 1.93456-181.84834 135.418967 232.14681 200.9839-56.23303v120.00797l-336.402867 79.38227z" fill="#e0e0e0"/><path d="m373.43162 650.15974 289.42538-129.99342v-125.34612l-289.42538 133.74493z" fill="#efefef"/></g><path d="m191.30047-645.02303c-117.168242 0-212.159471 94.99122-212.159471 212.15821 0 8.96965.719564 17.71149 1.81634 26.37739 18.12854011 165.72389 196.566831 356.72715 196.566831 356.72715 3.17953 3.557985 6.24453 5.75278 9.19624 7.3413l.15188.07594 5.942 1.89228 5.94201-1.89228.15188-.07594c2.95171-1.589764 6.01795-3.897848 9.19623-7.3413 0 0 175.86503-191.34437 193.57652-357.10437 1.05943-8.5526 1.77899-17.21974 1.77899-26.03752-.0386-117.12964-94.99121-212.12086-212.15945-212.12086zm0 348.6277c-75.23556 0-136.468257-61.23269-136.468257-136.46825s61.232697-136.46825 136.468257-136.46825 136.4309 61.23269 136.4309 136.46825-61.19534 136.46825-136.4309 136.46825z" fill="url(#b)"/></g></svg>