<?xml version="1.0" encoding="utf-8"?>
<svg width="48" height="48" version="1.1" xmlns="http://www.w3.org/2000/svg">
<path d="m24.045 5.001a1.1383 1.143 0 0 0-1.0304 0.56548l-3.4088 5.8602-6.1891-2.7281a1.1383 1.143 0 0 0-1.5899 1.1604l0.67286 6.7534-6.6041 1.4457a1.1383 1.143 0 0 0-0.60728 1.8772l4.4977 5.0666-4.497 5.0674a1.1383 1.143 0 0 0 0.60765 1.8769l6.6045 1.4442-0.67138 6.7534a1.1383 1.143 0 0 0 1.5903 1.16l6.1887-2.7292 3.4102 5.8594a1.1383 1.143 0 0 0 1.9656-3.81e-4l3.4091-5.8602 6.1887 2.7277a1.1383 1.143 0 0 0 1.5903-1.1604l-0.67286-6.7527 6.6041-1.4461a1.1383 1.143 0 0 0 0.60728-1.8772l-4.4977-5.0662 4.497-5.0677a1.1383 1.143 0 0 0-0.60765-1.8769l-6.6048-1.4442 0.67138-6.7534a1.1383 1.143 0 0 0-1.5903-1.16l-6.1884 2.7296-3.4106-5.8598a1.1383 1.143 0 0 0-0.93518-0.56511z" fill-rule="evenodd" opacity=".2" />
<path d="m24.045 4.001a1.1383 1.143 0 0 0-1.0304 0.56548l-3.4088 5.8602-6.1891-2.7281a1.1383 1.143 0 0 0-1.5899 1.1604l0.67286 6.7534-6.6041 1.4457a1.1383 1.143 0 0 0-0.60728 1.8772l4.4977 5.0666-4.497 5.0674a1.1383 1.143 0 0 0 0.60765 1.8769l6.6045 1.4442-0.67138 6.7534a1.1383 1.143 0 0 0 1.5903 1.16l6.1887-2.7292 3.4102 5.8594a1.1383 1.143 0 0 0 1.9656-3.81e-4l3.4091-5.8602 6.1887 2.7277a1.1383 1.143 0 0 0 1.5903-1.1604l-0.67286-6.7527 6.6041-1.4461a1.1383 1.143 0 0 0 0.60728-1.8772l-4.4977-5.0662 4.497-5.0677a1.1383 1.143 0 0 0-0.60765-1.8769l-6.6048-1.4442 0.67138-6.7534a1.1383 1.143 0 0 0-1.5903-1.16l-6.1884 2.7296-3.4106-5.8598a1.1383 1.143 0 0 0-0.93518-0.56511z" fill="#d6342a" fill-rule="evenodd" />
<path d="m23.932 4.002a1.1383 1.143 0 0 0-0.91602 0.56445l-3.4102 5.8594-6.1895-2.7266a1.1383 1.143 0 0 0-1.5898 1.1602l0.052734 0.53125a1.1383 1.143 0 0 1 1.5371-0.69141l6.1895 2.7266 3.4102-5.8594a1.1383 1.143 0 0 1 1.0293-0.56445 1.1383 1.143 0 0 1 0.93555 0.56445l3.4102 5.8594 6.1895-2.7285a1.1383 1.143 0 0 1 1.5371 0.68555l0.052734-0.52734a1.1383 1.143 0 0 0-1.5898-1.1582l-6.1895 2.7285-3.4102-5.8594a1.1383 1.143 0 0 0-0.93555-0.56445 1.1383 1.143 0 0 0-0.11328 0zm11.664 11.629-0.097656 0.97852 6.6055 1.4453a1.1383 1.143 0 0 1 0.7793 0.61523 1.1383 1.143 0 0 0-0.7793-1.6152l-6.5078-1.4238zm-23.193 0.003907-6.5059 1.4238a1.1383 1.143 0 0 0-0.78125 1.6172 1.1383 1.143 0 0 1 0.78125-0.61719l6.6035-1.4453-0.097656-0.97852zm26.254 8.8633-0.44336 0.5 4.498 5.0664a1.1383 1.143 0 0 1 0.17383 0.25977 1.1383 1.143 0 0 0-0.17383-1.2598l-4.0547-4.5664zm-29.312 0.003906-4.0547 4.5664a1.1383 1.143 0 0 0-0.17188 1.2617 1.1383 1.143 0 0 1 0.17188-0.26172l4.498-5.0664-0.44336-0.5zm26.254 8.8652-0.097656 0.021484 0.62109 6.2227a1.1383 1.143 0 0 0 0.052734-0.4707l-0.57617-5.7734zm-23.193 0.001953-0.57422 5.7754a1.1383 1.143 0 0 0 0.052734 0.47266l0.61914-6.2266-0.097656-0.021484z" fill="#fff" fill-rule="evenodd" opacity=".2" />
<path d="m15 13s1.9552 5.3507 0.97266 8.7812c-0.98257 3.4306-5.9727 7.293-5.9727 7.293s6.5215 0.36696 8.998 2c2.4766 1.633 4.9961 7.9258 4.9961 7.9258s3.345-6.9334 4.7441-7.9258c1.3991-0.99235 9.2617-2.0078 9.2617-2.0078s-5.7477-5.5833-6.2363-7.1406c-0.48866-1.5573 1.2363-8.9219 1.2363-8.9219s-5.5166 2.9961-9.1504 2.9961c-3.6338 0-8.8496-3-8.8496-3zm15.244 3.459c-0.0062 0.03389-0.0075 0.03045-0.01367 0.06445-0.19055 1.048-0.36678 2.1513-0.46875 3.1484-0.10197 0.9971-0.26386 1.7138 0.09375 2.8535 0.35527 1.1322 0.88328 1.6357 1.541 2.4395 0.65774 0.80375 1.4453 1.6713 2.2129 2.4863 0.11699 0.12421 0.11299 0.11119 0.22852 0.23242-0.1498 0.02559-0.13875 0.01804-0.29102 0.04492-1.098 0.19385-2.2457 0.41942-3.2578 0.67383-1.0121 0.25441-1.7675 0.37465-2.707 1.041-0.93944 0.66633-1.2992 1.3425-1.8555 2.2031-0.55627 0.86061-1.1208 1.8518-1.6406 2.8066-0.01164 0.02138-0.0099 0.01968-0.02148 0.04102-0.96792-1.8267-2.0765-3.8447-3.9648-5.0898-1.6748-1.1043-3.7218-1.4999-5.6113-1.8008 1.3541-1.4214 2.7912-3.124 3.4062-5.2715 0.57161-1.9957 0.35542-3.9973 0.04102-5.7539 1.7569 0.7167 3.7978 1.4219 5.9141 1.4219 2.2555 0 4.5062-0.7819 6.3945-1.541z" fill-rule="evenodd" opacity=".2" />
<path d="m15 12s1.9552 5.3507 0.97266 8.7812c-0.98257 3.4306-5.9727 7.293-5.9727 7.293s6.5215 0.36696 8.998 2c2.4766 1.633 4.9961 7.9258 4.9961 7.9258s3.345-6.9334 4.7441-7.9258c1.3991-0.99235 9.2617-2.0078 9.2617-2.0078s-5.7477-5.5833-6.2363-7.1406c-0.48866-1.5573 1.2363-8.9219 1.2363-8.9219s-5.5166 2.9961-9.1504 2.9961c-3.6338 0-8.8496-3-8.8496-3zm15.244 3.459c-0.0062 0.03389-0.007502 0.030453-0.013672 0.064454-0.19055 1.048-0.36678 2.1513-0.46875 3.1484-0.10197 0.9971-0.26386 1.7138 0.09375 2.8535 0.35527 1.1322 0.88328 1.6357 1.541 2.4395 0.65774 0.80375 1.4453 1.6713 2.2129 2.4863 0.11699 0.12421 0.11299 0.11119 0.22852 0.23242-0.1498 0.02559-0.13875 0.018042-0.29102 0.044922-1.098 0.19385-2.2457 0.41942-3.2578 0.67383-1.0121 0.25441-1.7675 0.37465-2.707 1.041-0.93944 0.66633-1.2992 1.3425-1.8555 2.2031-0.55627 0.86061-1.1208 1.8518-1.6406 2.8066-0.01164 0.02138-0.009905 0.019676-0.021485 0.041016-0.96792-1.8267-2.0765-3.8447-3.9648-5.0898-1.6748-1.1043-3.7218-1.4999-5.6113-1.8008 1.3541-1.4214 2.7912-3.124 3.4062-5.2715 0.57161-1.9957 0.35542-3.9973 0.041016-5.7539 1.7569 0.7167 3.7978 1.4219 5.9141 1.4219 2.2555 0 4.5062-0.7819 6.3945-1.541z" fill="#fff" fill-rule="evenodd" />
</svg>
