<svg height="48" viewBox="0 0 48 48.000001" width="48" xmlns="http://www.w3.org/2000/svg" xmlns:xlink="http://www.w3.org/1999/xlink"><linearGradient id="a"><stop offset="0" stop-color="#fff"/><stop offset="1" stop-color="#f9f9f9"/></linearGradient><linearGradient id="b"><stop offset="0" stop-color="#d9272e"/><stop offset="1" stop-color="#f55"/></linearGradient><linearGradient id="c" gradientUnits="userSpaceOnUse" x1="23.738585" x2="24.496199" xlink:href="#b" y1="1050.0894" y2="1006.4003"/><linearGradient id="d" gradientUnits="userSpaceOnUse" x1="23.738585" x2="24.524107" xlink:href="#a" y1="1050.0894" y2="1000.4566"/><linearGradient id="e" gradientUnits="userSpaceOnUse" x1="24.117392" x2="24.24366" xlink:href="#a" y1="1038.2201" y2="1020.0373"/><clipPath id="f"><circle cx="24" cy="1028.3622" r="21"/></clipPath><linearGradient id="g" gradientUnits="userSpaceOnUse" x1="23.750467538574" x2="24.473644542707" xlink:href="#b" y1="1049.101839364124" y2="1007.398607307638"/><g transform="translate(0 -1004.3622)"><circle cx="24" cy="1028.3622" fill="url(#c)" r="22" stroke="url(#d)" stroke-width="2"/><g clip-path="url(#f)" fill-opacity=".078431"><path d="m24.631924 1033.8666 6.393181-6.3932 70.710685 70.7107-6.393191 6.3932z"/><path d="m35.583552 1031.9072v-11.8743l51.342088 51.3421v11.8743z"/><path d="m23.391696 1028.1383c-.000017 0-.000033 0-.000049 0l70.710682 70.7107h.00005z"/><path d="m11.837573 1037.3397c.129462.1295.308471.2094.506658.2094l70.710678 70.7107c-.19819 0-.3772-.08-.50666-.2094z"/><path d="m12.344231 1037.5491h3.017582l70.710676 70.7107h-3.01758z"/><path d="m15.361813 1037.5491c.396376 0 .716036-.3197.716036-.716l70.71068 70.7107c0 .3963-.31966.716-.71604.716z"/><path d="m16.077849 1036.8331v-9.2957l70.71068 70.7107v9.2957z"/><path d="m16.077849 1027.5374c0-.077.08951-.1152.153436-.064l70.710674 70.7107c-.0639-.051-.15343-.013-.15343.064z"/><path d="m16.231285 1027.4734 6.393181 6.3932 70.710683 70.7107-6.39319-6.3932z"/><path d="m22.624466 1033.8666c.000026 0 .000053.0001.000079.0001l70.710674 70.7107c-.00002-.0001-.00005-.0001-.00007-.0001z"/><path d="m22.624545 1033.8667c.549821.5498 1.457592.5498 2.007379-.0001l70.710675 70.7107c-.54978.5499-1.45756.5499-2.00738.0001z"/><path d="m31.025105 1027.4734c.03536-.036.09519-.028.128736.01l70.710679 70.7107c-.0335-.034-.0934-.041-.12873-.01z"/></g><path d="m32.215237 1020.4932-7.953116 7.9531c-.140651.1407-.358019.1407-.498669 0l-7.965903-7.9531c-.268513-.2685-.626531-.4219-1.010122-.4219h-2.071391c-.396376 0-.716036.3197-.716036.716v16.3538c0 .3963.31966.716.716036.716h3.017582c.396376 0 .716036-.3197.716036-.716v-9.2957c0-.077.08951-.1152.153436-.064l6.393181 6.3932c.549813.5499 1.457645.5499 2.007458 0l6.393181-6.3932c.05114-.052.153436-.013.153436.064v9.2957c0 .3963.31966.716.716036.716h3.017582c.396376 0 .716036-.3197.716036-.716v-16.3538c0-.3963-.31966-.716-.716036-.716h-2.071391c-.370804.013-.728823.1534-.997336.4219z" fill="url(#e)"/></g></svg>