<svg height="48" width="48" xmlns="http://www.w3.org/2000/svg" xmlns:xlink="http://www.w3.org/1999/xlink"><linearGradient id="a" gradientTransform="matrix(.22782561 0 0 .22771447 -59.065216 -117.82753)" gradientUnits="userSpaceOnUse" x1="164.182181" x2="149.496766" y1="1219.686837" y2="518.534728"><stop offset="0" stop-color="#b3b3b3"/><stop offset="1" stop-color="#eee"/></linearGradient><path d="m45.999993 23.998293a21.999998 21.989266 0 0 1 -21.999996 21.989266 21.999998 21.989266 0 0 1 -21.9999984-21.989266 21.999998 21.989266 0 0 1 21.9999984-21.989266 21.999998 21.989266 0 0 1 21.999996 21.989266z" fill="#005c94" stroke-width=".22777"/><path d="m24.003045 2.0019178c-2.166059 0-4.257525.3185292-6.23519.9020202-1.421088 3.0226751-1.364667 8.226267-.670377 10.663536.678029 2.383704 1.6353 4.671756 2.620309 6.933025-1.696508-.407489-3.310773-.974719-4.800712-1.813607-2.607881-1.506557-6.3088283-5.837777-7.303401-9.3578581-2.5619741 2.8600621-4.387584 6.3935321-5.1755895 10.3029231 1.7749255 2.414313 5.8545759 4.74158 8.8650655 5.494379 2.42522.606451 4.879132.867585 7.317738 1.078025-1.126538 1.163157-2.351581 2.200048-3.752588 3.028414-2.610745 1.511336-8.2252861 2.552057-11.7694005 1.646209 1.1992216 3.646339 3.3434866 6.880873 6.1177646 9.406145 3.3566779-.265921 7.7019799-2.874873 9.4128339-4.707608 1.715634-1.833691 3.195056-3.880691 4.638137-5.939173.436084 1.6156.716284 3.23694.73063 4.88315 0 3.036067-1.808397 8.470188-4.226923 11.067199 1.368489.266876 2.780012.411311 4.226923.411311 2.281772 0 4.481305-.345308 6.550775-.990018 1.188703-2.721366 1.17627-7.539469.362443-10.569798-.660815-2.465965-1.626697-4.77793-2.626045-7.050673 1.699376.398876 3.327028.966106 4.850441 1.825082 2.616484 1.507508 6.33082 5.860735 7.312001 9.386554 2.481648-2.795976 4.273052-6.229008 5.076358-10.023613-1.922199-2.761536-6.341564-5.225594-8.776346-5.796647-2.426181-.564361-4.919301-.82454-7.403815-1.044544 1.139935-1.171767 2.364978-2.208658 3.744941-3.022676 2.613615-1.509423 8.256336-2.532248 11.799491-1.622577-1.211563-3.723036-3.464544-7.0963113-6.413289-9.6502771-3.349109.7213266-6.896912 2.6602701-9.148269 4.9242821-1.753885 1.814559-3.218961 3.826168-4.632398 5.854997-.412175-1.549599-.677075-3.11929-.693333-4.737759-.00287-3.036065 1.804573-8.4701814 4.223099-11.0671966-1.368492-.2668746-2.780015-.4113116-4.226926-.4113116v-.00383z" fill="#ffd42a" stroke-width=".22777"/><path d="m29.7175 23.993682a5.7175125 5.7149712 0 0 1 -5.717513 5.714972 5.7175125 5.7149712 0 0 1 -5.71751-5.714972 5.7175125 5.7149712 0 0 1 5.71751-5.714971 5.7175125 5.7149712 0 0 1 5.717513 5.714971z" fill="#005c94" stroke-width=".088794"/><path d="m45.119998 23.998293a21.119997 21.109694 0 0 1 -21.119994 21.109694 21.119997 21.109694 0 0 1 -21.1199971-21.109694 21.119997 21.109694 0 0 1 21.1199971-21.1096938 21.119997 21.109694 0 0 1 21.119994 21.1096938z" fill="none" stroke="url(#a)" stroke-linecap="round" stroke-linejoin="round" stroke-width="1.75957"/></svg>