<svg height="48" width="48" xmlns="http://www.w3.org/2000/svg" xmlns:xlink="http://www.w3.org/1999/xlink"><linearGradient id="a" gradientUnits="userSpaceOnUse" x1="399.57144" x2="399.57144" y1="545.79797" y2="517.79797"><stop offset="0" stop-color="#3889e9"/><stop offset="1" stop-color="#5ea5fb"/></linearGradient><linearGradient id="b" gradientUnits="userSpaceOnUse" x1="400.55615" x2="400.55615" y1="546.92657" y2="516.4751"><stop offset="0" stop-color="#981fe7"/><stop offset="1" stop-color="#db50c8"/></linearGradient><g transform="matrix(1.48656175 0 0 1.48753111 -571.497943 -767.217804)"><circle cx="400.57138" cy="531.79791" fill="url(#a)" r="0"/><g transform="matrix(1.0508504 0 0 1.0508504 -20.353166 -26.940048)"><circle cx="400.57138" cy="531.79791" fill="url(#b)" r="13.999958" stroke="url(#b)" stroke-width="1.427415"/><circle cx="400.57138" cy="531.79791" fill="url(#a)" r="0" transform="matrix(1.55822993 0 0 1.55822993 -264.298285 -296.910725)"/></g></g><g fill="#fff" fill-opacity=".83871" transform="matrix(.04785297 -.00656785 .00656785 .04785297 10.455865 13.671784)"><path d="m306.668 92.094 90.873 90.87 13.057-13.046-90.868-90.872z"/><path d="m294.878 103.885-256.004 256.017c-1.824 1.826-3.211 4.043-4.038 6.482l-33.957 101.262c-2.002 6.01-.457 12.619 4.025 17.1 3.173 3.18 7.44 4.887 11.79 4.887 1.774 0 3.567-.277 5.309-.863l101.246-33.973c2.456-.83 4.673-2.196 6.494-4.021l256.003-256.018z"/><path d="m331.52 67.257 90.868 90.874 13.03-13.045-90.873-90.871z"/><path d="m484.732 72.193-67.274-67.306c-3.129-3.127-7.382-4.887-11.795-4.887-4.414 0-8.663 1.76-11.79 4.887l-37.533 37.537 90.868 90.872 37.524-37.522c6.512-6.514 6.512-17.067 0-23.581z"/></g></svg>