<svg height="48" viewBox="0 0 48 48" width="48" xmlns="http://www.w3.org/2000/svg" xmlns:xlink="http://www.w3.org/1999/xlink"><linearGradient id="a" gradientTransform="matrix(.21184108 0 0 .2134677 -67 998.3622)" gradientUnits="userSpaceOnUse" x1="25.25" x2="24.5" y1="1004.1122" y2="1053.3622"><stop offset="0" stop-color="#00c6ff"/><stop offset="1" stop-color="#0068ff"/></linearGradient><linearGradient id="b" gradientUnits="userSpaceOnUse" x1="23.28" x2="23.4" y1="1052.243064" y2="1004.003064"><stop offset="0" stop-color="#e6e6e6"/><stop offset="1" stop-color="#fff"/></linearGradient><g transform="matrix(.95833333 0 0 .95833333 1 -961.513771)"><circle cx="24" cy="1028.3622" fill="url(#a)" r="24"/><path d="m39.390625 17.685547-11.552734 6.296875-6.078125-6.078125-12.8437504 13.599609 16.4472654 16.447266a24 24 0 0 0 22.527344-21.765625z" fill-opacity=".078431" transform="translate(0 1004.3622)"/><path d="m21.627343 1021.9121-12.8444437 13.5995 11.6895267-6.4136 6.107602 6.4136 12.771929-13.5995-11.559808 6.3013z" fill="#fff"/><path d="m24 1004.3622c-13.243463 0-24 10.7566-24 24 0 13.2435 10.756537 24 24 24s24-10.7565 24-24c0-13.2434-10.756537-24-24-24zm0 1.92c12.205818 0 22.08 9.8742 22.08 22.08s-9.874182 22.08-22.08 22.08-22.08-9.8742-22.08-22.08 9.874182-22.08 22.08-22.08z" fill="url(#b)"/></g></svg>