<svg height="48" width="48" xmlns="http://www.w3.org/2000/svg" xmlns:xlink="http://www.w3.org/1999/xlink">
  <linearGradient id="a" gradientTransform="matrix(.9162883 -.07639964 .07639964 .9162883 .12699 3.844689)" gradientUnits="userSpaceOnUse" x1="27.3748" x2="23.996687" y1="43.918037" y2="4.081495">
    <stop offset="0" stop-color="#95a9bb" />
    <stop offset="1" stop-color="#cad3dc" />
  </linearGradient>
  <path d="m32.90648 4.1888454-10.53749.8805672-10.537491.8805672a1.8524531 1.8524531 0 0 0 -1.521046 1.0558242l-9.0118285 19.131366a1.8524531 1.8524531 0 0 0 .1538485 1.845161l12.063152 17.370225a1.8524531 1.8524531 0 0 0 1.674895.789342l21.074981-1.761134a1.8524531 1.8524531 0 0 0 1.521047-1.055818l9.011827-19.131373a1.8524531 1.8524531 0 0 0 -.153848-1.84516l-12.063152-17.3702257a1.8524531 1.8524531 0 0 0 -1.674895-.7893419z" fill="#444d54" />
  <path d="m32.80948 3.0254921-10.53749.8805704-10.53749.8805703a1.8524531 1.8524531 0 0 0 -1.521047 1.0558179l-9.0118283 19.1313663a1.8524531 1.8524531 0 0 0 .1538485 1.84516l12.0631518 17.370226a1.8524531 1.8524531 0 0 0 1.674895.789342l21.07498-1.761141a1.8524531 1.8524531 0 0 0 1.521047-1.055818l9.011828-19.131366a1.8524531 1.8524531 0 0 0 -.153848-1.845161l-12.063152-17.370225a1.8524531 1.8524531 0 0 0 -1.674895-.7893419z" fill="url(#a)" />
  <path d="m14.369849 10.203921-7.1551654 15.190271 9.5718694 13.794128-1.208292-14.491479 9.579355 13.802805 8.370159-.699505 7.16448-15.197318-9.582081-13.7978406 1.208672 14.4960376-9.578834-13.7965683z" fill="#444d54" stroke="#444d54" stroke-linecap="round" stroke-linejoin="round" stroke-width=".800611" />
</svg>
