<svg height="48" width="48" xmlns="http://www.w3.org/2000/svg" xmlns:xlink="http://www.w3.org/1999/xlink"><linearGradient id="a" gradientUnits="userSpaceOnUse" x1="11.660663" x2="10.415977" y1="56.928329" y2="32.880905"><stop offset="0" stop-color="#cdd0d1"/><stop offset="1" stop-color="#f6f6f7"/></linearGradient><filter id="b" color-interpolation-filters="sRGB"><feColorMatrix values="0.21 0.72 0.072 0 0 0.21 0.72 0.072 0 0 0.21 0.72 0.072 0 0 0 0 0 1 0"/></filter><linearGradient id="c" gradientUnits="userSpaceOnUse" x1="14.428456" x2="5.505778" y1="47.467571" y2="39.642166"><stop offset="0" stop-color="#16a085"/><stop offset="1" stop-color="#2dcb72"/></linearGradient><linearGradient id="d" gradientUnits="userSpaceOnUse" x1="14.857237" x2="19.651524" y1="41.908375" y2="11.422807"><stop offset="0" stop-color="#4588ca"/><stop offset="1" stop-color="#5aceed"/></linearGradient><linearGradient id="e" gradientUnits="userSpaceOnUse" x1="11.660663" x2="10.415977" xlink:href="#a" y1="56.928329" y2="32.880905"/><linearGradient id="f" gradientTransform="matrix(.85003887 0 0 -.85003887 11.703939 910.78096)" gradientUnits="userSpaceOnUse" x1="11" x2="11.325557" xlink:href="#a" y1="1030.9364" y2="1056.204"/><rect fill="#5b74f5" height="26.022079" ry="1.075411" stroke-width=".69661" transform="matrix(.99985212 -.01719697 .01719697 .99985212 0 0)" width="34.579483" x="5.924501" y="7.626444"/><rect fill="url(#d)" height="26.02191" ry="1.075411" stroke-width=".69661" transform="matrix(.9859804 -.16686118 .16686118 .9859804 0 0)" width="34.579613" x="-.77638" y="15.590375"/><path d="m20.390274 34.030082-6.986257-4.648608v-1.036026-6.454941-.34537c.976539-.638975.188783-.122661.637529-.42502l6.242473-4.170461c.761084-.506794.0068 0 .770347-.504753 6.820127 4.525777 5.145944 3.411886 7.119076 4.728341.536894.392378.09961.08075.531275.398498v.292158.02635 6.45494 1.036028c-1.975322 1.314755-.288939.192618-.478148.318764l-6.50811 4.329843-.345327.212509c-.240361.154708 1.039914-.67221-.318766.202565-.630306-.400029-.0056 0-.664092-.415074zm.239073-.87656v-6.587802l-.05312-.0799-.185946-.106254-6.136219-4.090643v6.614407zm.850039 0 6.375292-4.250195v-6.481545l-6.375292 4.250194zm-.318764-7.305064 6.215909-4.143939-6.322165-4.223588-6.242472 4.143939 6.056527 4.037684z" fill="url(#f)" opacity=".986928" stroke-width=".850039"/><circle cx="11.184063" cy="45.12323" fill="url(#e)" filter="url(#b)" r="12.348694" transform="matrix(.54342848 -.00748958 .00748958 .54342848 31.420565 8.451673)"/><path d="m14.428456 47.271288-8.9226783.196284 4.2913527-7.825408z" fill="url(#c)" filter="url(#b)" transform="matrix(-.0009304 .63223134 -.63223134 -.0009304 65.783523 26.648163)"/></svg>