<svg xmlns="http://www.w3.org/2000/svg" version="1.1" width="48" height="48">
	<defs>
		<linearGradient y2="0" y1="1" x2="0" x1="0" id="b">
			<stop stop-color="#0164c2" offset="0" />
			<stop stop-color="#00a9f3" offset="1" />
		</linearGradient>
		<linearGradient y2="0" y1="1" x2="0" x1="0" id="c">
			<stop stop-color="#187ced" offset="0" />
			<stop stop-color="#42d6fc" offset="1" />
		</linearGradient>
	</defs>
	<circle cx="24" cy="24" r="22" fill="url(#c)" />
	<path fill="url(#b)" d="M 23.958984 2.0019531 C 23.360449 2.0030881 22.770958 2.0370478 22.185547 2.0859375 A 22 22 0 0 0 21.021484 2.2285156 C 20.706823 2.2719385 20.388292 2.3047602 20.078125 2.3613281 A 22 22 0 0 0 18.933594 2.6171875 C 18.628251 2.6898368 18.317902 2.7490502 18.017578 2.8339844 A 22 22 0 0 0 16.115234 3.4667969 C 15.93885 3.6252144 15.714463 3.7476394 15.535156 3.7324219 C 15.528514 3.7316487 15.522104 3.726635 15.515625 3.7246094 A 22 22 0 0 0 12.035156 5.5449219 C 12.165608 5.7675975 12.198704 6.0092054 11.917969 6.1289062 C 11.873405 6.1468901 11.368788 6.195548 11.117188 6.2011719 A 22 22 0 0 0 3.9707031 14.947266 C 3.973437 14.94695 3.9756846 14.945439 3.9785156 14.945312 C 4.2184967 14.940812 4.5624705 15.011353 4.7929688 15.060547 C 5.0056693 15.104197 5.1772262 15.245967 5.3613281 15.259766 C 5.8837466 15.299666 6.0093666 14.893119 6.4355469 14.666016 C 6.8759742 14.727516 7.1687648 14.592319 7.5664062 14.636719 C 7.837473 14.667319 8.0329231 14.954488 8.2441406 14.970703 C 8.4218306 14.988103 8.5780927 14.805798 8.75 14.832031 C 8.9170535 14.858281 9.2052313 15.220049 9.2324219 15.423828 C 9.2676269 15.677434 9.0460332 15.906967 9.1191406 16.185547 C 9.3853834 16.456087 9.869692 16.510145 10.25 16.666016 C 10.497727 16.462297 10.28326 16.083916 10.25 15.789062 C 10.2455 15.658869 10.26738 15.543461 10.25 15.423828 C 10.22813 15.220754 10.14002 15.035138 10.138672 14.861328 C 10.134172 14.058646 10.786705 13.682137 11.326172 13.365234 C 11.559696 13.227091 11.744662 12.985876 11.947266 12.884766 C 12.233478 12.741674 12.446684 12.707082 12.683594 12.574219 C 13.111827 12.334187 13.477659 12.143089 13.8125 11.871094 C 13.967059 11.507109 13.828017 11.017929 13.841797 10.658203 C 13.996431 10.563553 14.130745 10.70025 14.294922 10.6875 C 14.553255 10.63425 14.574293 10.268299 14.720703 10.123047 C 14.805643 10.039507 15.038854 9.9814429 15.144531 9.8984375 C 15.402054 9.6969084 15.485983 9.3915778 15.710938 9.3046875 C 15.791688 9.2716895 15.97822 9.2829949 16.105469 9.2480469 C 16.272777 9.2036489 16.510638 9.0073124 16.783203 8.9140625 C 16.960848 8.8525655 17.367758 8.8386807 17.435547 8.7714844 C 17.519287 8.6864394 17.432931 8.4477006 17.462891 8.3203125 C 17.599968 7.6835522 18.562734 7.5484127 19.130859 7.3339844 C 19.52907 7.1841425 19.937434 6.9075322 20.375 6.9921875 C 20.28916 7.2948261 19.880141 7.1871625 19.949219 7.5546875 C 20.044499 8.0646598 20.729619 7.4096402 20.910156 7.3339844 C 21.254899 7.1892422 21.846356 7.1013361 22.298828 6.9375 C 22.650252 6.7927626 23.362192 6.571996 22.988281 6.1191406 C 22.676301 6.1017416 22.525796 6.4836207 22.253906 6.5996094 C 22.066118 6.6303578 22.102032 6.4427036 21.941406 6.4277344 C 21.789633 6.4103353 21.703367 6.5681642 21.546875 6.5410156 C 21.391432 6.515517 21.172751 6.2713339 21.148438 6.0898438 C 21.086866 5.6189744 21.548668 5.4235315 21.744141 5.0722656 C 21.614405 4.6463937 21.022789 4.9869234 20.666016 4.8203125 C 20.701066 4.5667063 20.964885 4.3921974 21.261719 4.34375 C 21.505056 4.302952 22.050401 4.3229288 22.195312 4.4511719 C 22.279353 4.5234679 22.202021 4.7000758 22.337891 4.8183594 C 22.481859 4.9485523 22.658785 4.9341456 22.845703 4.9042969 C 22.912223 4.5828794 22.425648 4.6637253 22.478516 4.4511719 C 22.860308 4.2019154 23.481751 4.4064365 23.949219 4.3378906 C 24.218264 4.2979926 24.501721 4.1084921 24.740234 3.9746094 C 24.967032 3.8457664 25.261298 3.6229609 25.501953 3.8339844 C 25.565773 4.0643119 25.292479 4.1393724 25.164062 4.2539062 C 24.731665 4.6378553 24.285334 5.0775268 23.949219 5.5234375 C 24.155373 5.7242016 24.529863 5.6240183 24.878906 5.6660156 C 25.015383 5.6834146 25.187764 5.723452 25.332031 5.75 C 25.500927 5.780748 25.680592 5.7718426 25.8125 5.8066406 C 26.050025 5.8642376 26.112543 6.1171875 26.347656 6.1171875 C 26.734361 6.1164975 26.738703 5.7002289 26.519531 5.4394531 C 26.588741 5.1732326 26.698624 5.0341411 26.605469 4.8476562 C 26.431287 4.4999908 25.790621 4.8302458 25.757812 4.3964844 C 25.737737 4.1152197 25.993547 4.1283323 26.095703 3.9179688 C 26.049262 3.3745183 26.542922 3.3347548 26.490234 2.8476562 C 26.468212 2.6438773 26.295353 2.6401134 26.152344 2.4492188 C 26.080174 2.3566995 26.044964 2.1791786 25.962891 2.0976562 A 22 22 0 0 0 25.314453 2.0644531 C 24.864559 2.0356993 24.416268 2.0019531 23.958984 2.0019531 z M 12.580078 6.4394531 L 12.625 6.4394531 L 12.626953 6.4394531 C 12.758787 6.4568521 12.918802 6.5991038 13.078125 6.6113281 C 13.228295 6.6158281 13.352429 6.5269364 13.445312 6.5527344 C 13.681667 6.6143814 13.781631 6.9719089 13.558594 7.1464844 C 13.373832 7.1688334 13.301388 7.0646447 13.162109 7.0898438 C 12.732864 7.1541926 12.58576 7.9057131 12.298828 7.8808594 C 12.028286 7.8591106 11.882956 7.1997506 12.158203 7.0039062 C 12.175581 6.8328406 12.031428 6.8057145 12.041016 6.6367188 C 12.122663 6.5329244 12.355258 6.4213491 12.580078 6.4394531 z M 11.306641 6.5273438 L 11.351562 6.5273438 C 11.430212 6.5303438 11.489164 6.5475333 11.519531 6.5820312 C 11.481781 6.8827048 11.246343 6.8637689 11.013672 7.0039062 C 10.611776 7.2459331 10.379832 7.6138375 10.251953 8.1308594 C 10.169299 8.2807037 9.7733089 8.6805228 9.5820312 8.640625 C 9.1337988 8.5464301 9.7070524 7.7210363 9.8085938 7.5957031 C 9.9222997 7.4568106 10.07376 7.3361825 10.207031 7.1757812 C 10.336168 7.0205247 10.420355 6.8107798 10.544922 6.7246094 C 10.6814 6.6304146 11.070525 6.5182243 11.306641 6.5273438 z M 14.697266 7.5410156 C 14.840634 7.5440156 14.970392 7.566954 15.029297 7.625 C 14.937167 7.9975198 14.131938 7.9004377 13.837891 7.765625 C 13.855271 7.6252327 14.078656 7.5847203 14.263672 7.5664062 C 14.394156 7.5619062 14.553987 7.5362166 14.697266 7.5410156 z M 12.822266 8.2285156 C 12.917546 8.2255156 13.014832 8.2459885 13.115234 8.2734375 C 12.855134 8.4905807 12.573672 8.6128239 12.126953 8.7539062 C 11.91217 8.8209522 11.542292 8.9055374 11.505859 8.6660156 C 11.461369 8.3726316 11.819553 8.440296 12.015625 8.4140625 C 12.262602 8.3795645 12.532923 8.2378601 12.822266 8.2285156 z M 40.886719 9.9316406 C 40.859936 10.001217 40.838676 10.069745 40.841797 10.136719 C 40.859177 10.272911 41.007743 10.403761 41.041016 10.587891 C 41.058396 10.685681 40.995176 10.895325 41.041016 10.984375 C 41.174017 11.24159 41.516232 11.071841 41.769531 11.076172 A 22 22 0 0 0 41.458984 10.640625 C 41.347871 10.490609 41.234377 10.34193 41.119141 10.195312 A 22 22 0 0 0 40.886719 9.9316406 z M 42.332031 11.861328 C 42.286801 12.052787 42.163895 12.294375 42.060547 12.451172 C 41.814169 12.825131 41.478268 12.841616 41.125 13.041016 C 40.830398 13.207717 40.703966 13.485516 40.53125 13.775391 C 40.344047 14.088559 40.227536 14.278666 40.304688 14.732422 C 40.052062 15.232404 39.669651 15.537564 39.146484 15.775391 C 38.991984 15.845141 38.780647 15.870762 38.638672 15.972656 C 38.526015 16.054106 38.461512 16.27303 38.300781 16.453125 C 38.102612 16.673283 37.895209 16.765393 37.791016 16.933594 C 37.710266 17.063787 37.681788 17.321714 37.591797 17.496094 C 37.4706 17.733021 37.215155 17.849827 37.056641 18.089844 C 36.984431 18.200538 36.936507 18.424955 36.857422 18.570312 C 36.678279 18.895029 36.371458 19.130371 36.404297 19.416016 C 36.437407 19.692091 36.750106 19.739822 36.771484 19.980469 C 36.775984 20.116512 36.68195 20.199464 36.6875 20.347656 C 36.692 20.564124 36.838406 20.716247 36.855469 20.882812 C 36.897719 21.301604 36.714015 21.469554 36.634766 21.755859 C 36.597016 21.892651 36.612732 22.045535 36.576172 22.152344 C 36.505762 22.361942 36.214856 22.550996 36.208984 22.798828 C 36.205984 22.975038 36.38948 23.117942 36.404297 23.365234 C 36.408797 23.535925 36.320553 23.716291 36.351562 23.873047 C 36.411183 24.179931 36.960092 24.536979 37.199219 24.775391 C 37.518929 25.094559 37.938347 25.341452 38.076172 25.677734 C 38.191826 25.963289 38.190665 26.335497 38.414062 26.550781 C 38.578899 26.709637 38.853296 26.807425 39.064453 26.972656 C 39.261484 27.126682 39.475004 27.260202 39.685547 27.423828 C 40.029557 27.692493 40.54962 28.228777 41.097656 28.1875 C 41.383883 28.16785 41.677254 27.932596 42.001953 27.875 C 42.33591 27.81575 42.770514 27.785062 43.107422 27.820312 C 43.365531 27.845813 43.630143 28.000611 43.898438 27.988281 C 44.181714 27.970881 44.506243 27.761367 44.828125 27.621094 C 45.078324 27.51271 45.387718 27.393325 45.722656 27.302734 A 22 22 0 0 0 45.837891 26.539062 C 45.859122 26.354775 45.883667 26.172013 45.900391 25.986328 A 22 22 0 0 0 46 24 C 46 23.461891 45.977308 22.930426 45.939453 22.402344 A 22 22 0 0 0 45.693359 20.365234 C 45.675789 20.259492 45.651883 20.155997 45.632812 20.050781 A 22 22 0 0 0 45.242188 18.308594 C 45.214179 18.203752 45.187713 18.09835 45.158203 17.994141 A 22 22 0 0 0 43.658203 14.134766 C 43.613019 14.044862 43.565904 13.956378 43.519531 13.867188 A 22 22 0 0 0 42.574219 12.220703 C 42.543065 12.171643 42.513951 12.121061 42.482422 12.072266 A 22 22 0 0 0 42.332031 11.861328 z M 5.8828125 19.230469 L 5.8789062 19.232422 C 5.409326 19.258372 5.1028844 19.27977 4.8359375 19.400391 C 4.2243819 19.678131 4.341485 20.502112 3.7304688 20.697266 C 3.5192962 20.764166 3.2306124 20.768103 2.9980469 20.810547 C 2.7971363 20.847597 2.5525162 20.957325 2.3457031 20.953125 C 2.3179089 20.952784 2.2793335 20.932882 2.2441406 20.919922 A 22 22 0 0 0 2.0957031 22.089844 C 2.6139194 22.262458 2.9106659 22.951843 3.3945312 23.191406 C 3.5352032 23.261456 3.7191801 23.267197 3.9003906 23.306641 C 4.046156 23.339641 4.1580064 23.399564 4.2988281 23.447266 C 4.5978494 23.548211 4.9639678 23.536073 5.203125 23.642578 C 5.5633588 23.802169 5.8288343 24.479265 6.1386719 24.660156 C 6.1560499 24.842426 6.1011476 25.086853 6.1660156 25.222656 C 6.3119308 25.42087 6.5186309 25.376462 6.7597656 25.505859 C 7.0483152 25.661116 7.1367825 26.063003 7.4101562 26.185547 C 7.5043872 26.227547 7.7414589 26.221828 7.890625 26.267578 C 8.2652706 26.380372 8.3878211 26.813289 8.7089844 26.71875 C 8.9195877 26.65725 8.9033283 26.439225 8.9375 26.238281 C 9.0766737 26.088439 9.2283573 25.849963 9.4453125 25.845703 C 9.7965128 25.828303 9.8273649 26.208481 9.9550781 26.548828 C 10.027586 26.741252 10.216353 26.908419 10.265625 27.111328 C 10.353265 27.461844 10.309285 28.511209 10.234375 28.720703 C 10.145835 28.977729 9.7970241 29.086125 9.5820312 29.371094 C 9.4809093 29.504887 9.4323065 29.701027 9.3554688 29.794922 C 9.2170441 29.963243 9.0117519 30.006913 8.9082031 30.162109 C 8.8500771 30.249559 8.7933459 30.436538 8.7363281 30.554688 C 8.566623 30.913663 8.3396827 31.168712 8.4824219 31.599609 C 8.5417469 31.776914 8.8195635 31.894818 8.8203125 32.103516 C 8.8211065 32.349128 8.2964131 32.570593 8.2558594 32.839844 C 8.2249984 33.040203 8.4185878 33.397532 8.4824219 33.658203 C 8.5291629 33.855217 8.9011905 33.978373 9.0175781 34.109375 C 9.2159569 34.331678 9.3754301 34.646556 9.5566406 34.925781 C 9.9150318 35.474946 10.195984 36.1437 10.544922 36.675781 C 10.729279 36.954481 10.988484 37.204852 11.111328 37.494141 C 11.173648 37.639783 11.165127 37.814129 11.222656 37.945312 C 11.42457 38.400298 12.315024 38.875705 12.775391 39.101562 C 12.990833 39.205807 13.229999 39.243782 13.427734 39.353516 C 13.72728 39.520232 14.321407 39.968314 14.472656 40.230469 C 14.607635 40.466062 14.690377 41.039428 14.755859 41.414062 C 14.843649 41.9092 14.757396 42.287998 14.785156 42.824219 C 14.802536 43.114228 14.894692 43.406522 14.898438 43.697266 C 14.899537 43.79881 14.845847 43.874602 14.841797 43.978516 A 22 22 0 0 0 21.792969 45.888672 A 22 22 0 0 0 21.826172 45.892578 A 22 22 0 0 0 23.978516 45.998047 C 24.558654 45.997226 25.132585 45.968371 25.701172 45.923828 C 25.727092 45.880478 25.751143 45.835415 25.783203 45.794922 C 25.916234 45.621051 26.033574 45.469457 26.121094 45.316406 C 26.204834 44.801334 25.913776 44.440929 26.035156 43.990234 C 26.170284 43.483756 26.873392 43.173855 27.365234 42.945312 C 27.534235 42.866863 27.706059 42.741147 27.84375 42.693359 C 28.184134 42.575016 28.608841 42.639396 28.919922 42.525391 C 29.449532 42.331976 29.506459 41.764737 29.767578 41.283203 C 29.891321 41.055306 30.052052 40.826414 30.076172 40.664062 C 30.096992 40.51842 30.024105 40.381189 30.046875 40.208984 C 30.072195 40.038653 30.224129 39.89036 30.271484 39.703125 C 30.333054 39.458833 30.361328 39.102193 30.361328 38.830078 C 30.361328 38.606665 30.256436 38.410543 30.248047 38.208984 C 30.211047 37.477354 30.511957 37.394293 30.783203 36.996094 C 30.919381 36.79833 30.971441 36.573413 31.066406 36.431641 C 31.521844 35.753663 32.311059 35.427268 32.253906 34.402344 C 32.236526 34.063197 32.021517 33.295719 31.771484 33.1875 C 31.628565 33.12585 31.300727 33.183316 31.09375 33.103516 C 30.425701 32.85489 30.034085 32.027466 29.341797 31.974609 C 29.194383 31.957209 29.058958 32.035903 28.892578 32.033203 C 28.618605 32.015803 28.203637 31.840779 27.900391 31.806641 C 27.707601 31.786991 27.451667 31.863491 27.335938 31.806641 C 27.159612 31.720841 27.141656 31.397571 26.998047 31.300781 C 26.884941 31.221891 26.661012 31.196267 26.488281 31.128906 C 26.209963 31.023161 25.989088 30.897304 25.667969 30.875 C 25.569099 30.8705 25.445492 30.92245 25.330078 30.90625 C 25.152403 30.8755 25.013516 30.666001 24.849609 30.566406 C 24.644174 30.441163 24.454039 30.381015 24.369141 30.203125 C 24.554711 29.595598 24.040838 29.427228 23.916016 29.076172 C 23.856686 28.911646 23.883861 28.713128 23.832031 28.566406 C 23.757571 28.356177 23.550562 28.233949 23.322266 28.058594 C 22.913269 27.744436 22.549344 27.450842 21.964844 27.378906 C 21.707875 27.345906 21.453074 27.455487 21.142578 27.435547 C 20.813624 27.415897 20.40033 27.128335 20.154297 26.847656 C 19.915005 26.57359 19.800243 26.326301 19.591797 26.195312 C 19.394377 26.068569 19.130848 26.072926 18.996094 25.945312 C 18.936174 25.889512 18.947679 25.792479 18.882812 25.660156 C 18.783783 25.455057 18.615997 25.341479 18.740234 25.095703 C 18.51498 24.980059 18.510124 25.310296 18.263672 25.267578 C 18.0439 24.956435 17.858288 24.809181 17.359375 24.900391 C 17.130944 24.942541 17.002496 25.231081 16.736328 25.238281 C 16.51801 25.255681 16.346874 24.994013 16.058594 24.953125 C 15.840935 24.922375 15.594357 25.012425 15.439453 24.984375 C 15.198229 24.936375 15.12273 24.736434 14.902344 24.591797 C 14.740759 24.486203 14.426572 24.303731 14.335938 24.306641 C 14.051853 24.324041 13.850768 24.910249 13.458984 24.703125 C 13.268561 24.462238 13.768602 24.334708 13.542969 24.109375 C 13.371781 23.93852 13.22677 24.187404 13.089844 24.28125 C 12.932858 24.388944 12.786761 24.49647 12.613281 24.560547 C 12.225018 24.705289 11.98113 24.630956 11.677734 24.787109 C 11.396795 24.932001 11.385721 25.174351 11.226562 25.462891 C 11.096077 25.699278 10.799123 26.044315 10.603516 26.058594 C 10.366666 26.075994 10.140624 25.727461 9.9257812 25.634766 C 9.278481 25.354912 8.9651638 25.883455 8.4277344 25.890625 C 7.9288961 25.908025 7.2171542 25.08716 7.2421875 24.619141 C 7.2466775 24.333616 7.4060155 23.900211 7.4394531 23.546875 C 7.4703141 23.26591 7.6627347 23.096406 7.6660156 22.839844 C 7.6705056 22.497263 7.209156 22.234051 6.9863281 22.193359 C 6.4582918 22.096619 5.7262974 22.404917 5.1210938 22.162109 C 5.0060395 21.970975 5.2557293 21.840212 5.3203125 21.654297 C 5.3574655 21.549003 5.336349 21.407334 5.375 21.291016 C 5.441516 21.111356 5.6305156 20.971529 5.7148438 20.78125 C 5.7770148 20.636357 5.7948014 20.426264 5.8574219 20.246094 C 5.9324769 20.040935 6.0660316 19.909512 6.0820312 19.765625 C 6.1016562 19.57563 6.0321738 19.355712 5.8828125 19.230469 z M 13.4375 25.205078 C 13.626434 25.2262 13.650312 25.61677 13.455078 25.648438 C 13.24371 25.681587 13.136257 25.317331 13.341797 25.222656 C 13.376707 25.205256 13.41039 25.205831 13.4375 25.207031 L 13.4375 25.205078 z" />
	<path fill="#FFF" opacity="0.85" d="m 30.901615,28.253569 c -1.388166,0 -2.612663,0.66196 -3.412595,1.675662 l -7.41997,-3.798114 c 0.09717,-0.362646 0.167045,-0.737329 0.167045,-1.131675 0,-0.429275 -0.08293,-0.83346 -0.198605,-1.22669 l 7.387205,-3.780615 c 0.795591,1.059569 2.051699,1.752113 3.478056,1.752113 2.416229,0 4.370821,-1.956395 4.370821,-4.372683 C 35.273572,14.957494 33.318981,13 30.902751,13 c -2.410734,0 -4.367479,1.957494 -4.367479,4.371567 0,0.395445 0.06987,0.77121 0.168062,1.134955 l -7.417783,3.798096 C 18.484517,21.289852 17.25785,20.625694 15.867513,20.625694 13.45349,20.625694 11.5,22.58427 11.5,24.999442 c 0,2.415189 1.95349,4.372683 4.367513,4.372683 1.428545,0 2.683584,-0.694742 3.482431,-1.755393 l 7.383967,3.780615 c -0.11566,0.392148 -0.199725,0.799596 -0.199725,1.22997 0,2.415189 1.956763,4.372683 4.367514,4.372683 2.416212,0 4.370787,-1.957494 4.370787,-4.372683 0,-2.417353 -1.954575,-4.373748 -4.370787,-4.373748 z" />
</svg>
