<svg height="48" width="48" xmlns="http://www.w3.org/2000/svg" xmlns:xlink="http://www.w3.org/1999/xlink"><linearGradient id="a" gradientTransform="matrix(.99321303 .1163094 -.1163094 .99321303 337.512661 501.960048)" gradientUnits="userSpaceOnUse" x1="72.439186" x2="72.45697" y1="35.398048" y2="1.921124"><stop offset="0" stop-color="#f6fbff"/><stop offset="1" stop-color="#eaeff2"/></linearGradient><linearGradient id="b" gradientUnits="userSpaceOnUse" x1="404.99783" x2="409.62817" y1="542.64532" y2="502.04681"><stop offset="0" stop-color="#0082c9"/><stop offset="1" stop-color="#0cf"/></linearGradient><g transform="matrix(.99321303 -.1163094 .1163094 .99321303 -442.779253 -448.718907)"><rect fill-opacity=".352941" height="39.229546" rx="1.705632" width="39.229546" x="389.0148" y="504.61301"/><rect fill="url(#b)" height="39.229546" rx="1.705632" width="39.229546" x="389.0148" y="503.76022"/><path d="m409.4777 516.33406c-3.21207-.37615-6.18884 1.48545-7.37317 4.33985-.54702-1.65263-1.99987-2.94005-3.83098-3.15449-2.51379-.29437-4.82199 1.52991-5.11637 4.04369-.29437 2.51379 1.52968 4.82394 4.04346 5.11831 1.83111.21444 3.54226-.70387 4.45637-2.18597.49299 3.05057 2.95912 5.54981 6.171 5.92594 3.19099.37367 6.1509-1.46086 7.35084-4.28348.56304 1.62263 1.99882 2.8829 3.80653 3.0946 2.51378.29437 4.82221-1.53185 5.11659-4.04563.29437-2.51378-1.5299-4.82199-4.04369-5.11637-1.8077-.21169-3.49565.68139-4.41828 2.12947-.51522-3.02365-2.97121-5.49223-6.1623-5.86592zm-.31485 2.68865c2.42132.28355 4.1305 2.44391 3.84695 4.86523-.28354 2.42131-2.44584 4.13028-4.86716 3.84673s-4.12833-2.44562-3.84479-4.86694c.28355-2.42131 2.44368-4.12857 4.865-3.84502zm-11.20415 1.18537c1.06083.12423 1.79411 1.05203 1.66989 2.11286-.12423 1.06083-1.05226 1.79605-2.11309 1.67183-1.06083-.12423-1.79389-1.05397-1.66966-2.1148.12423-1.06084 1.05203-1.79412 2.11286-1.66989zm21.78473 2.55108c1.06083.12423 1.79412 1.05203 1.66989 2.11286-.12423 1.06084-1.05226 1.79606-2.11309 1.67183-1.06082-.12423-1.79583-1.0542-1.6716-2.11503s1.05398-1.79389 2.1148-1.66966z" fill="url(#a)"/></g></svg>