<svg height="48" width="48" xmlns="http://www.w3.org/2000/svg" xmlns:xlink="http://www.w3.org/1999/xlink"><linearGradient id="a" gradientUnits="userSpaceOnUse" x1="400.39636" x2="400.39636" y1="545.61945" y2="517.61945"><stop offset="0" stop-color="#d3d3d3"/><stop offset="1" stop-color="#fcf9f9"/></linearGradient><linearGradient id="b" gradientUnits="userSpaceOnUse" x1="404.71429" x2="404.71429" xlink:href="#e" y1="546.29791" y2="517.29797"/><linearGradient id="c" gradientUnits="userSpaceOnUse" x1="400.39636" x2="400.39636" y1="545.61945" y2="517.61945"><stop offset="0" stop-color="#e3e3e3"/><stop offset="1" stop-color="#fcf9f9"/></linearGradient><linearGradient id="d" gradientUnits="userSpaceOnUse" x1="398.02356" x2="398.02356" xlink:href="#e" y1="515.23712" y2="545.81091"/><linearGradient id="e"><stop offset="0" stop-color="#00cafe"/><stop offset="1" stop-color="#1460f3"/></linearGradient><g fill="url(#a)" stroke-width="1.3" transform="matrix(1.56997034 0 0 1.56997034 -604.885188 -810.906955)"><circle cx="400.57138" cy="531.79791" fill="url(#d)" r="13.999958" stroke="url(#d)" stroke-width="1.3"/><circle cx="400.57144" cy="531.79797" fill="url(#c)" r="0" stroke="url(#b)" stroke-width="1"/><circle cx="400.57138" cy="531.79791" fill="url(#a)" r="0"/></g><path d="m391.84218 540.91306c-.42081-.32855-.94932-.52413-1.52328-.52413-1.35134 0-2.45088 1.08433-2.48542 2.43509-1.39488.52618-2.38765 1.87965-2.38765 3.46634 0 1.87433 1.38537 3.42322 3.18243 3.66739v.0335h12.72968v-.006c1.77487-.10355 3.18242-1.58396 3.18242-3.39503 0-1.74659-1.30911-3.18565-2.9943-3.37879.007-.10647.0108-.21389.0108-.32212 0-2.70685-2.27081-4.90117-5.07199-4.90117-2.07343 0-3.85626 1.20226-4.64268 2.9247z" fill="#fff" fill-opacity=".846774" transform="matrix(1.67587264 0 0 1.6848759 -637.958124 -892.555122)"/><path d="m-23.992884 537.974-42.138728 24.32881v-48.65762z" style="fill:#0c8af7;fill-rule:evenodd;stroke:#0c8bf7;stroke-width:4.791507;stroke-linecap:round;stroke-linejoin:round" transform="matrix(.16247772 0 0 .19590113 31.898309 -79.389718)"/></svg>