<?xml version="1.0" encoding="UTF-8" standalone="no"?>
<!-- Created with Inkscape (http://www.inkscape.org/) -->

<svg
   xmlns:dc="http://purl.org/dc/elements/1.1/"
   xmlns:cc="http://creativecommons.org/ns#"
   xmlns:rdf="http://www.w3.org/1999/02/22-rdf-syntax-ns#"
   xmlns:svg="http://www.w3.org/2000/svg"
   xmlns="http://www.w3.org/2000/svg"
   xmlns:xlink="http://www.w3.org/1999/xlink"
   xmlns:sodipodi="http://sodipodi.sourceforge.net/DTD/sodipodi-0.dtd"
   xmlns:inkscape="http://www.inkscape.org/namespaces/inkscape"
   width="48"
   height="48"
   viewBox="0 0 48 48.000001"
   id="svg2"
   version="1.1"
   inkscape:version="0.91 r13725"
   sodipodi:docname="octave.svg">
  <sodipodi:namedview
     id="base"
     pagecolor="#dcdcdc"
     bordercolor="#666666"
     borderopacity="1.0"
     inkscape:pageopacity="0"
     inkscape:pageshadow="2"
     inkscape:zoom="7.919596"
     inkscape:cx="18.610134"
     inkscape:cy="17.641821"
     inkscape:document-units="px"
     inkscape:current-layer="layer1"
     showgrid="false"
     units="px" />
  <defs
     id="defs4">
    <linearGradient
       id="linearGradient4773"
       inkscape:collect="always">
      <stop
         id="stop4775"
         offset="0"
         style="stop-color:#e6e6e6;stop-opacity:1" />
      <stop
         id="stop4777"
         offset="1"
         style="stop-color:#f9f9f9;stop-opacity:1" />
    </linearGradient>
    <linearGradient
       gradientUnits="userSpaceOnUse"
       y2="1005.2639"
       x2="24.117392"
       y1="1050.5945"
       x1="23.107239"
       id="linearGradient4779"
       xlink:href="#linearGradient4773"
       inkscape:collect="always" />
    <clipPath
       clipPathUnits="userSpaceOnUse"
       id="clipPath5076">
      <circle
         style="opacity:1;fill:url(#linearGradient5080);fill-opacity:1;stroke:none;stroke-width:3.04045701;stroke-miterlimit:4;stroke-dasharray:none;stroke-opacity:1"
         id="circle5078"
         cx="24"
         cy="23.999983"
         r="23" />
    </clipPath>
    <linearGradient
       inkscape:collect="always"
       xlink:href="#linearGradient4773"
       id="linearGradient5080"
       gradientUnits="userSpaceOnUse"
       x1="23.107239"
       y1="1050.5945"
       x2="24.117392"
       y2="1005.2639"
       gradientTransform="translate(0,-1004.3622)" />
  </defs>
  <metadata
     id="metadata7">
    <rdf:RDF>
      <cc:Work
         rdf:about="">
        <dc:format>image/svg+xml</dc:format>
        <dc:type
           rdf:resource="http://purl.org/dc/dcmitype/StillImage" />
        <dc:title></dc:title>
      </cc:Work>
    </rdf:RDF>
  </metadata>
  <g
     transform="translate(0,-1004.3622)"
     id="layer1"
     inkscape:groupmode="layer"
     inkscape:label="Layer 1">
    <circle
       r="23"
       cy="1028.3622"
       cx="24"
       id="path4768"
       style="opacity:1;fill:url(#linearGradient4779);fill-opacity:1;stroke:none;stroke-width:3.04045701;stroke-miterlimit:4;stroke-dasharray:none;stroke-opacity:1" />
    <path
       style="fill:#000000;fill-opacity:0.07843138;fill-rule:nonzero;stroke:none"
       d="M 21.611328 12.136719 C 19.25234 12.099466 17.06695 12.911325 15.46875 14.628906 L 15.470703 14.630859 C 14.10478 16.097193 13.364853 18.026441 13.197266 20.136719 L 12.728516 20.136719 C 12.041516 20.136719 11.486328 20.691 11.486328 21.375 L 11.486328 25.898438 C 11.486328 26.239537 11.62359 26.547384 11.847656 26.771484 L 82.558594 97.482422 C 82.783151 97.706922 83.093124 97.845703 83.4375 97.845703 L 83.876953 97.845703 L 88.640625 102.60938 C 93.282035 107.25079 99.611586 108.18645 103.35547 104.84375 L 105.31055 104.84375 C 105.79955 104.84375 106.19727 104.44894 106.19727 103.96094 L 106.19727 100.73047 C 106.19727 100.50266 106.10528 100.29914 105.96289 100.14258 C 106.65909 96.738302 105.68551 92.658235 103.19922 89.203125 L 103.19922 87.378906 C 103.19922 87.232406 103.13904 87.100006 103.04297 87.003906 L 32.332031 16.292969 C 32.235903 16.196269 32.103556 16.136719 31.957031 16.136719 L 30.445312 16.136719 C 27.760246 13.560642 24.552631 12.183167 21.611328 12.136719 z "
       transform="translate(0,1004.3622)"
       id="path4819"
       clip-path="url(#clipPath5076)" />
    <g
       id="g5101">
      <path
         d="m 15.473546,1018.9909 c -3.766,4.04 -2.852,11.574 2.031,16.828 4.887,5.25 11.898,6.227 15.66,2.184 3.762,-4.04 2.852,-11.578 -2.035,-16.824 -4.887,-5.254 -11.898,-6.23 -15.66,-2.187 m 3.414,1.68 c 2.957,-3.18 8.391,-2.488 12.141,1.543 3.75,4.03 4.395,9.875 1.434,13.05 -2.953,3.18 -8.395,2.488 -12.141,-1.539 -3.75,-4.03 -4.391,-9.871 -1.438,-13.05 m 0.004,0"
         style="fill:#00aad4;fill-rule:nonzero;stroke:none"
         id="path46"
         inkscape:connector-curvature="0" />
      <path
         d="m 31.372546,1033.4989 3.227,0 c 0.488,0 0.887,0.395 0.887,0.883 l 0,3.23 c 0,0.488 -0.398,0.883 -0.887,0.883 l -3.227,0 c -0.488,0 -0.887,-0.395 -0.887,-0.883 l 0,-3.23 c 0,-0.488 0.398,-0.883 0.887,-0.883 m 0,0"
         style="fill:#ff6212;fill-opacity:1;fill-rule:nonzero;stroke:none"
         id="path52"
         inkscape:connector-curvature="0" />
      <path
         d="m 30.016546,1020.4989 1.941,0 c 0.293,0 0.531,0.238 0.531,0.531 l 0,1.941 c 0,0.293 -0.238,0.531 -0.531,0.531 l -1.941,0 c -0.293,0 -0.531,-0.238 -0.531,-0.531 l 0,-1.941 c 0,-0.293 0.238,-0.531 0.531,-0.531 m 0,0"
         style="fill:#ff6212;fill-opacity:1;fill-rule:nonzero;stroke:none"
         id="path48"
         inkscape:connector-curvature="0" />
      <path
         d="m 12.727546,1024.4989 4.52,0 c 0.688,0 1.242,0.555 1.242,1.238 l 0,4.523 c 0,0.684 -0.555,1.238 -1.242,1.238 l -4.52,0 c -0.688,0 -1.242,-0.555 -1.242,-1.238 l 0,-4.523 c 0,-0.684 0.555,-1.238 1.242,-1.238 m 0,0"
         style="fill:#ff6212;fill-opacity:1;fill-rule:nonzero;stroke:none"
         id="path50"
         inkscape:connector-curvature="0" />
    </g>
  </g>
</svg>
