<svg height="48" width="48" xmlns="http://www.w3.org/2000/svg" xmlns:xlink="http://www.w3.org/1999/xlink"><linearGradient id="a" gradientUnits="userSpaceOnUse" x1="399.57144" x2="399.57144" y1="545.79797" y2="517.79797"><stop offset="0" stop-color="#3889e9"/><stop offset="1" stop-color="#5ea5fb"/></linearGradient><linearGradient gradientUnits="userSpaceOnUse" x1="-318.57867" x2="-318.57867" y1="653.95679" y2="301.29816"><stop offset="0" stop-color="#0a80fd"/><stop offset="1" stop-color="#56c5fa"/></linearGradient><linearGradient id="b" gradientUnits="userSpaceOnUse" x1="-318.57867" x2="-318.57867" y1="653.95679" y2="301.29816"><stop offset="0" stop-color="#00a661"/><stop offset="1" stop-color="#37ce97"/></linearGradient><circle cx="400.57138" cy="531.79791" fill="url(#a)" r="0" transform="matrix(1.637466544097 0 0 1.637466544097 -644.580187175317 -848.719334054169)"/><g transform="matrix(.111361506212 0 0 .111361506212 59.887097814307 -26.022587445081)"><circle cx="-325.88733" cy="478.74667" fill="url(#b)" r="173.44701" transform="matrix(1.242537 0 0 1.242537 82.651446 -144.23268)"/><path d="m-265.44229 435.24542a20.204468 20.204468 0 0 1 -20.20447 20.20447 20.204468 20.204468 0 0 1 -20.20447-20.20447 20.204468 20.204468 0 0 1 20.20447-20.20447 20.204468 20.204468 0 0 1 20.20447 20.20447zm-73.5426.004a20.204468 20.204468 0 0 1 -20.20447 20.20446 20.204468 20.204468 0 0 1 -20.20447-20.20446 20.204468 20.204468 0 0 1 20.20447-20.20447 20.204468 20.204468 0 0 1 20.20447 20.20447zm107.02225 120.28235c.0328-.0463.0648-.0934.0951-.1414.0295-.0463.0581-.093.085-.14013.0269-.0471.0526-.0951.077-.14351.0252-.0497.0497-.0993.0724-.15023.0219-.0492.0425-.0993.0623-.14982.0202-.0513.0391-.1031.0568-.15486.0172-.0518.0328-.10395.048-.15697.0152-.0535.029-.1069.0412-.16076.0118-.0522.0223-.10479.032-.15781.0101-.0572.0189-.11447.0261-.1717.006-.0505.0118-.10142.0156-.15276.005-.0614.008-.12289.009-.18475.00084-.0286.004-.0568.004-.0854v-121.22815c0-24.28569-9.45732-47.11741-26.62972-64.29023-17.1724-17.1724-40.00412-26.62972-64.28982-26.62972-24.28569 0-47.11783 9.45732-64.29065 26.62972-17.1724 17.17282-26.62972 40.00454-26.62972 64.29023v121.22815c0 .0295.004.0577.004.0867.002.0614.004.12288.009.18432.004.0513.01.10268.016.1536.007.0572.016.11447.0261.17128.01.053.0202.10563.032.15781.0122.0539.0261.10731.0412.16076.0147.0526.0307.10478.048.15655.0177.0522.0366.10352.0568.15486.0198.0505.0404.10058.0627.14982.0227.0505.0467.10016.072.14939.0248.0488.0505.0968.0779.14435.0269.0471.0551.093.0846.13929.0311.0484.0631.096.0964.14266.0299.0421.0606.0833.0926.12415.0379.0484.0774.0955.11825.14182.0194.0219.0358.045.0555.0665.0139.0151.029.0273.0434.0421.0471.0492.096.096.14602.14224.0358.0332.0711.0665.10774.0981.0484.0408.0985.0791.14897.11699.0408.0307.0808.0627.12246.0917.0509.0349.10437.0665.15697.0985.0429.0261.0854.0543.1292.0783.0619.0341.12625.0635.19063.0934.0366.0173.072.0366.109.0526.30594.13045.63503.21714.97969.25165.0728.008.14645.008.21967.0109.04.001.0791.006.11952.006h.00042.00042c.10858 0 .21673-.006.32488-.0164.0404-.004.0795-.0109.11952-.0164.0665-.009.13298-.0177.19905-.0303.0471-.009.093-.021.1393-.0324.0576-.0139.1153-.0274.17212-.0442.0476-.0139.0938-.0303.14055-.0467.0547-.0189.109-.0379.16286-.0598.0459-.0185.0905-.0387.13509-.0589.0526-.024.10479-.0484.15655-.0753.0442-.0227.0871-.0476.13004-.0724.0492-.0286.0981-.0576.14602-.0888.0438-.0282.0863-.0581.12836-.0884.0442-.0316.088-.064.13088-.0976.0433-.0345.0854-.0703.12709-.10689.0231-.0202.048-.0383.0707-.0593l19.59554-18.0957 19.59554 18.0957c1.289 1.19095 3.27784 1.19095 4.56769 0l19.59638-18.0957 19.60143 18.0957c1.29027 1.19137 3.27911 1.19095 4.56811-.00042l19.59049-18.0957 19.60859 18.09654c1.289 1.18969 3.27574 1.19011 4.56601.00084l19.62541-18.09948 19.62542 18.09948c.0219.0202.045.0366.0673.056.0455.04.0917.0787.13929.11615.0417.0324.0833.064.12583.0943.0463.0328.0934.0648.1414.0955.0463.0295.0926.0576.13971.085.0476.0269.0955.0526.14435.0774.0492.0252.0989.0492.14897.072.0497.0223.10016.0429.1515.0627.0505.0198.10142.0387.15276.056.0526.0177.10563.0337.1595.0488.0522.0147.10436.0282.15739.0404.0534.0122.10731.0232.1616.0328.0556.0101.1111.0185.16665.0252.0526.007.1052.0122.15823.0164.0593.005.11909.008.17843.009.0299.00084.0589.005.0892.005.0227 0 .0442-.003.0669-.003.0581-.001.11615-.005.17422-.009.0547-.004.10942-.008.1637-.0143.0518-.006.10311-.0152.15487-.0236.0585-.01.11657-.0198.17422-.0324.0471-.0105.0939-.0236.14056-.0362.0589-.016.11783-.0316.17549-.0505.0467-.0152.0926-.0333.13887-.0509.0551-.0206.10984-.0412.1637-.0648.0488-.0215.0964-.0455.14393-.0694.0488-.0244.0985-.0484.14603-.0749.0488-.0274.0964-.0572.14392-.0875.045-.0282.0901-.056.1334-.0863.0454-.0316.0896-.0661.13383-.10015.0438-.0337.0875-.0678.12961-.10353.0396-.0341.0783-.0699.11657-.10605.0438-.0412.0871-.0829.12878-.12625.0152-.0156.0316-.0294.0463-.0454.0198-.0219.0366-.045.056-.0673.04-.0454.0787-.0917.11615-.13929.0328-.0404.0644-.0821.0947-.12457z" fill="#fff" fill-opacity=".851852"/></g></svg>