<svg viewBox="0 0 48 48" xmlns="http://www.w3.org/2000/svg" xmlns:xlink="http://www.w3.org/1999/xlink"><linearGradient id="a" gradientTransform="matrix(0 -.93478259 .9347826 0 1.565216 46.43478)" gradientUnits="userSpaceOnUse" x1=".86985" x2="47.130146" y1="23.644154" y2="24.039539"><stop offset="0" stop-color="#52b8d2"/><stop offset="1" stop-color="#5df"/></linearGradient><linearGradient id="b" gradientUnits="userSpaceOnUse" x1="24.037891461535" x2="23.810544128992" y1="1.606259872891" y2="46.696868466054"><stop offset="0" stop-color="#fff"/><stop offset="1" stop-color="#ececec"/></linearGradient><path d="m24 2.5c11.874543 0 21.5 9.625457 21.5 21.5s-9.625457 21.5-21.5 21.5-21.5-9.625457-21.5-21.5 9.625457-21.5 21.5-21.5z" fill="url(#a)"/><path d="m23.947266 14.4375c-3.040139.000316-6.077778.740924-8.394532 2.195312-4.624056 2.904-5.338426 7.731926-1.929687 11.140626l1.912109 1.912109-1.136718 1.996094 13.464843 13.464843c8.446222-1.533217 15.168632-7.995354 17.082031-16.302734l-10.748046-10.748047c-.525411-.5254-1.144361-1.01639-1.855469-1.462891-2.316754-1.454388-5.351482-2.192099-8.392578-2.195312z" fill-opacity=".078431"/><path d="m24 14.435833c-3.040792.0029-6.07775.738875-8.395 2.193625-5.093542 3.198917-5.443333 8.733292-.763792 12.1325.430292.306667.819375.595125.86825.6325l-1.29375 2.276042h1.4375l8.145834-13.298792 8.145833 13.298792h1.4375l-1.29375-2.276042c.04887-.03738.437958-.325833.86825-.6325 4.679542-3.399208 4.32975-8.934541-.763792-12.1325-2.31725-1.45475-5.35325-2.19075-8.395-2.193625m-.924791 1.608084-5.611042 10.369166c-.131292.119792-1.478708-.830875-2.15625-1.52375-3.43275-3.515166 0-7.928291 6.79075-8.766833.520375-.05654.9775-.07858.9775-.07858zm1.849583 0s .457125.02204.9775.07858c6.79075.838542 10.2235 5.251667 6.79075 8.766833-.677542.692875-2.024958 1.643542-2.15625 1.52375zm-.924792 7.002541-2.395833 4.310584 2.395833 4.314416 2.395834-4.314416" fill="#fff"/><path d="m24 1.958333c12.173708 0 22.041667 9.867959 22.041667 22.041667s-9.867959 22.041667-22.041667 22.041667-22.0416667-9.867959-22.0416667-22.041667 9.8679587-22.041667 22.0416667-22.041667z" fill="none" stroke="url(#b)" stroke-width="1.916667"/></svg>