<svg height="48" width="48" xmlns="http://www.w3.org/2000/svg" xmlns:xlink="http://www.w3.org/1999/xlink"><linearGradient id="a"><stop offset="0" stop-color="#ccc"/><stop offset="1" stop-color="#fff"/></linearGradient><linearGradient id="b" gradientUnits="userSpaceOnUse" x1="399.57144" x2="399.57144" y1="545.79797" y2="517.79797"><stop offset="0" stop-color="#3889e9"/><stop offset="1" stop-color="#5ea5fb"/></linearGradient><linearGradient id="c" gradientUnits="userSpaceOnUse" x1="400.55615" x2="400.55615" y1="546.92657" y2="516.4751"><stop offset="0" stop-color="#197cf1"/><stop offset="1" stop-color="#20bcfa"/></linearGradient><linearGradient id="d" gradientUnits="userSpaceOnUse" x1="40.533142" x2="37.577614" xlink:href="#a" y1="107.50206" y2="15.159376"/><linearGradient id="e" gradientUnits="userSpaceOnUse" x1="74.642996552107" x2="83.932296290929" xlink:href="#a" y1="18.268514361169" y2="101.95936567027"/><g fill="#ff5061" fill-opacity=".898477" transform="translate(-64.2329 -9.9427)"><text opacity=".8" x="877.22626" y="10.812601"><tspan fill="#ff5061" fill-opacity=".898477" x="877.22626" y="10.812601"/></text><text opacity=".8" x="901.18719" y="-29.929106"><tspan fill="#ff5061" fill-opacity=".898477" x="901.18719" y="-29.929106"/></text><text opacity=".8" x="-569.37115" y="-60.007248"><tspan fill="#ff5061" fill-opacity=".898477" x="-569.37115" y="-60.007248"/></text><text opacity=".8" x="-2393.0571" y="685.5462"><tspan fill="#ff5061" fill-opacity=".898477" x="-2393.0571" y="685.5462"/></text><text opacity=".8" x="-454.88007" y="-445.32822"><tspan fill="#ff5061" fill-opacity=".898477" x="-454.88007" y="-445.32822"/></text><text opacity=".8" x="352.72208" y="-858.79834"><tspan fill="#ff5061" fill-opacity=".898477" x="352.72208" y="-858.79834"/></text><text opacity=".8" x="376.68301" y="-899.54004"><tspan fill="#ff5061" fill-opacity=".898477" x="376.68301" y="-899.54004"/></text><text opacity=".8" x="-1114.7802" y="-906.74994"><tspan fill="#ff5061" fill-opacity=".898477" x="-1114.7802" y="-906.74994"/></text><text opacity=".8" x="345.7626" y="-1179.9841"><tspan fill="#ff5061" fill-opacity=".898477" x="345.7626" y="-1179.9841"/></text><text opacity=".8" x="1831.8861" y="-553.29272"><tspan fill="#ff5061" fill-opacity=".898477" x="1831.8861" y="-553.29272"/></text><text opacity=".8" x="1855.8469" y="-594.03448"><tspan fill="#ff5061" fill-opacity=".898477" x="1855.8469" y="-594.03448"/></text><text opacity=".8" x="364.38376" y="-601.24438"><tspan fill="#ff5061" fill-opacity=".898477" x="364.38376" y="-601.24438"/></text><text opacity=".8" x="1824.9266" y="-874.47839"><tspan fill="#ff5061" fill-opacity=".898477" x="1824.9266" y="-874.47839"/></text><text opacity=".8" x="-573.43256" y="-649.33569"><tspan fill="#ff5061" fill-opacity=".898477" x="-573.43256" y="-649.33569"/></text><text opacity=".8" x="-2397.1182" y="96.217857"><tspan fill="#ff5061" fill-opacity=".898477" x="-2397.1182" y="96.217857"/></text><text opacity=".8" x="-682.36279" y="189.09"><tspan fill="#ff5061" fill-opacity=".898477" x="-682.36279" y="189.09"/></text><text opacity=".8" x="426.66153" y="9.907852"><tspan fill="#ff5061" fill-opacity=".898477" x="426.66153" y="9.907852"/></text><text opacity=".8" x="450.62247" y="-30.833855"><tspan fill="#ff5061" fill-opacity=".898477" x="450.62247" y="-30.833855"/></text><text opacity=".8" x="-1040.8407" y="-38.043827"><tspan fill="#ff5061" fill-opacity=".898477" x="-1040.8407" y="-38.043827"/></text><text opacity=".8" x="419.70206" y="-311.27789"><tspan fill="#ff5061" fill-opacity=".898477" x="419.70206" y="-311.27789"/></text><text opacity=".8" x="-608.03253" y="-40.758072"><tspan fill="#ff5061" fill-opacity=".898477" x="-608.03253" y="-40.758072"/></text><text opacity=".8" x="-2431.7185" y="704.79541"><tspan fill="#ff5061" fill-opacity=".898477" x="-2431.7185" y="704.79541"/></text><text opacity=".8" x="-456.93948" y="-902.28857"><tspan fill="#ff5061" fill-opacity=".898477" x="-456.93948" y="-902.28857"/></text><text opacity=".8" x="350.66266" y="-1315.7588"><tspan fill="#ff5061" fill-opacity=".898477" x="350.66266" y="-1315.7588"/></text><text opacity=".8" x="374.62357" y="-1356.5005"><tspan fill="#ff5061" fill-opacity=".898477" x="374.62357" y="-1356.5005"/></text><text opacity=".8" x="-1116.8396" y="-1363.7104"><tspan fill="#ff5061" fill-opacity=".898477" x="-1116.8396" y="-1363.7104"/></text><text opacity=".8" x="343.70316" y="-1636.9446"><tspan fill="#ff5061" fill-opacity=".898477" x="343.70316" y="-1636.9446"/></text><text opacity=".8" x="1829.8265" y="-1010.2533"><tspan fill="#ff5061" fill-opacity=".898477" x="1829.8265" y="-1010.2533"/></text><text opacity=".8" x="1853.7874" y="-1050.9949"><tspan fill="#ff5061" fill-opacity=".898477" x="1853.7874" y="-1050.9949"/></text><text opacity=".8" x="362.32431" y="-1058.2048"><tspan fill="#ff5061" fill-opacity=".898477" x="362.32431" y="-1058.2048"/></text><text opacity=".8" x="1822.8671" y="-1331.439"><tspan fill="#ff5061" fill-opacity=".898477" x="1822.8671" y="-1331.439"/></text><text opacity=".8" x="-575.492" y="-1106.2961"><tspan fill="#ff5061" fill-opacity=".898477" x="-575.492" y="-1106.2961"/></text><text opacity=".8" x="-2399.1777" y="-360.74261"><tspan fill="#ff5061" fill-opacity=".898477" x="-2399.1777" y="-360.74261"/></text><text opacity=".8" x="-684.42224" y="-267.87045"><tspan fill="#ff5061" fill-opacity=".898477" x="-684.42224" y="-267.87045"/></text><text opacity=".8" x="155.5923" y="-26.956278"><tspan fill="#ff5061" fill-opacity=".898477" x="155.5923" y="-26.956278"/></text><text opacity=".8" x="179.55324" y="-67.697998"><tspan fill="#ff5061" fill-opacity=".898477" x="179.55324" y="-67.697998"/></text><text opacity=".8" x="-1090.2634" y="-261.72662"><tspan fill="#ff5061" fill-opacity=".898477" x="-1090.2634" y="-261.72662"/></text><text opacity=".8" x="-282.66141" y="-675.19678"><tspan fill="#ff5061" fill-opacity=".898477" x="-282.66141" y="-675.19678"/></text><text opacity=".8" x="-258.70047" y="-715.93848"><tspan fill="#ff5061" fill-opacity=".898477" x="-258.70047" y="-715.93848"/></text><text opacity=".8" x="-1750.1636" y="-723.14838"><tspan fill="#ff5061" fill-opacity=".898477" x="-1750.1636" y="-723.14838"/></text><text opacity=".8" x="-289.62085" y="-996.38251"><tspan fill="#ff5061" fill-opacity=".898477" x="-289.62085" y="-996.38251"/></text><text opacity=".8" x="1196.5026" y="-369.69113"><tspan fill="#ff5061" fill-opacity=".898477" x="1196.5026" y="-369.69113"/></text><text opacity=".8" x="1220.4634" y="-410.43286"><tspan fill="#ff5061" fill-opacity=".898477" x="1220.4634" y="-410.43286"/></text><text opacity=".8" x="-270.99973" y="-417.64282"><tspan fill="#ff5061" fill-opacity=".898477" x="-270.99973" y="-417.64282"/></text><text opacity=".8" x="1189.5431" y="-690.87689"><tspan fill="#ff5061" fill-opacity=".898477" x="1189.5431" y="-690.87689"/></text><text opacity=".8" x="-1208.816" y="-465.7341"><tspan fill="#ff5061" fill-opacity=".898477" x="-1208.816" y="-465.7341"/></text><text opacity=".8" x="-3032.5017" y="279.81946"><tspan fill="#ff5061" fill-opacity=".898477" x="-3032.5017" y="279.81946"/></text><text opacity=".8" transform="matrix(.90475 0 0 .90475 -716.75 -676.29)" x="-664.2738" y="1159.4154"><tspan fill="#ff5061" fill-opacity=".898477" x="-664.2738" y="1159.4154"/></text><text opacity=".8" x="877.22626" y="18.050589"><tspan fill="#ff5061" fill-opacity=".898477" x="877.22626" y="18.050589"/></text><text opacity=".8" x="901.18719" y="-22.691116"><tspan fill="#ff5061" fill-opacity=".898477" x="901.18719" y="-22.691116"/></text><text opacity=".8" x="-569.37115" y="-52.76926"><tspan fill="#ff5061" fill-opacity=".898477" x="-569.37115" y="-52.76926"/></text><text opacity=".8" x="-2393.0571" y="692.78418"><tspan fill="#ff5061" fill-opacity=".898477" x="-2393.0571" y="692.78418"/></text><text opacity=".8" x="-454.88007" y="-438.09021"><tspan fill="#ff5061" fill-opacity=".898477" x="-454.88007" y="-438.09021"/></text><text opacity=".8" x="352.72208" y="-851.5603"><tspan fill="#ff5061" fill-opacity=".898477" x="352.72208" y="-851.5603"/></text><text opacity=".8" x="376.68301" y="-892.30206"><tspan fill="#ff5061" fill-opacity=".898477" x="376.68301" y="-892.30206"/></text><text opacity=".8" x="-1114.7802" y="-899.51196"><tspan fill="#ff5061" fill-opacity=".898477" x="-1114.7802" y="-899.51196"/></text><text opacity=".8" x="345.7626" y="-1172.7461"><tspan fill="#ff5061" fill-opacity=".898477" x="345.7626" y="-1172.7461"/></text><text opacity=".8" x="1831.8861" y="-546.05475"><tspan fill="#ff5061" fill-opacity=".898477" x="1831.8861" y="-546.05475"/></text><text opacity=".8" x="1855.8469" y="-586.79651"><tspan fill="#ff5061" fill-opacity=".898477" x="1855.8469" y="-586.79651"/></text><text opacity=".8" x="364.38376" y="-594.00641"><tspan fill="#ff5061" fill-opacity=".898477" x="364.38376" y="-594.00641"/></text><text opacity=".8" x="1824.9266" y="-867.24036"><tspan fill="#ff5061" fill-opacity=".898477" x="1824.9266" y="-867.24036"/></text><text opacity=".8" x="-573.43256" y="-642.09772"><tspan fill="#ff5061" fill-opacity=".898477" x="-573.43256" y="-642.09772"/></text><text opacity=".8" x="-2397.1182" y="103.45585"><tspan fill="#ff5061" fill-opacity=".898477" x="-2397.1182" y="103.45585"/></text><text opacity=".8" x="-682.36279" y="196.32799"><tspan fill="#ff5061" fill-opacity=".898477" x="-682.36279" y="196.32799"/></text><text opacity=".8" x="426.66153" y="17.14584"><tspan fill="#ff5061" fill-opacity=".898477" x="426.66153" y="17.14584"/></text><text opacity=".8" x="450.62247" y="-23.595865"><tspan fill="#ff5061" fill-opacity=".898477" x="450.62247" y="-23.595865"/></text><text opacity=".8" x="-1040.8407" y="-30.805836"><tspan fill="#ff5061" fill-opacity=".898477" x="-1040.8407" y="-30.805836"/></text><text opacity=".8" x="419.70206" y="-304.03989"><tspan fill="#ff5061" fill-opacity=".898477" x="419.70206" y="-304.03989"/></text><text opacity=".8" x="-608.03253" y="-33.520081"><tspan fill="#ff5061" fill-opacity=".898477" x="-608.03253" y="-33.520081"/></text><text opacity=".8" x="-2431.7185" y="712.03345"><tspan fill="#ff5061" fill-opacity=".898477" x="-2431.7185" y="712.03345"/></text><text opacity=".8" x="-456.93948" y="-895.0506"><tspan fill="#ff5061" fill-opacity=".898477" x="-456.93948" y="-895.0506"/></text><text opacity=".8" x="350.66266" y="-1308.5208"><tspan fill="#ff5061" fill-opacity=".898477" x="350.66266" y="-1308.5208"/></text><text opacity=".8" x="374.62357" y="-1349.2626"><tspan fill="#ff5061" fill-opacity=".898477" x="374.62357" y="-1349.2626"/></text><text opacity=".8" x="-1116.8396" y="-1356.4724"><tspan fill="#ff5061" fill-opacity=".898477" x="-1116.8396" y="-1356.4724"/></text><text opacity=".8" x="343.70316" y="-1629.7065"><tspan fill="#ff5061" fill-opacity=".898477" x="343.70316" y="-1629.7065"/></text><text opacity=".8" x="1829.8265" y="-1003.0153"><tspan fill="#ff5061" fill-opacity=".898477" x="1829.8265" y="-1003.0153"/></text><text opacity=".8" x="1853.7874" y="-1043.757"><tspan fill="#ff5061" fill-opacity=".898477" x="1853.7874" y="-1043.757"/></text><text opacity=".8" x="362.32431" y="-1050.9668"><tspan fill="#ff5061" fill-opacity=".898477" x="362.32431" y="-1050.9668"/></text><text opacity=".8" x="1822.8671" y="-1324.2009"><tspan fill="#ff5061" fill-opacity=".898477" x="1822.8671" y="-1324.2009"/></text><text opacity=".8" x="-575.492" y="-1099.0581"><tspan fill="#ff5061" fill-opacity=".898477" x="-575.492" y="-1099.0581"/></text><text opacity=".8" x="-2399.1777" y="-353.50461"><tspan fill="#ff5061" fill-opacity=".898477" x="-2399.1777" y="-353.50461"/></text><text opacity=".8" x="-684.42224" y="-260.63245"><tspan fill="#ff5061" fill-opacity=".898477" x="-684.42224" y="-260.63245"/></text><text opacity=".8" x="155.5923" y="-19.71829"><tspan fill="#ff5061" fill-opacity=".898477" x="155.5923" y="-19.71829"/></text><text opacity=".8" x="179.55324" y="-60.460011"><tspan fill="#ff5061" fill-opacity=".898477" x="179.55324" y="-60.460011"/></text><text opacity=".8" x="-1090.2634" y="-254.4886"><tspan fill="#ff5061" fill-opacity=".898477" x="-1090.2634" y="-254.4886"/></text><text opacity=".8" x="-282.66141" y="-667.9588"><tspan fill="#ff5061" fill-opacity=".898477" x="-282.66141" y="-667.9588"/></text><text opacity=".8" x="-258.70047" y="-708.7005"><tspan fill="#ff5061" fill-opacity=".898477" x="-258.70047" y="-708.7005"/></text><text opacity=".8" x="-1750.1636" y="-715.91046"><tspan fill="#ff5061" fill-opacity=".898477" x="-1750.1636" y="-715.91046"/></text><text opacity=".8" x="-289.62085" y="-989.14447"><tspan fill="#ff5061" fill-opacity=".898477" x="-289.62085" y="-989.14447"/></text><text opacity=".8" x="1196.5026" y="-362.45316"><tspan fill="#ff5061" fill-opacity=".898477" x="1196.5026" y="-362.45316"/></text><text opacity=".8" x="1220.4634" y="-403.19489"><tspan fill="#ff5061" fill-opacity=".898477" x="1220.4634" y="-403.19489"/></text><text opacity=".8" x="-270.99973" y="-410.40482"><tspan fill="#ff5061" fill-opacity=".898477" x="-270.99973" y="-410.40482"/></text><text opacity=".8" x="1189.5431" y="-683.63892"><tspan fill="#ff5061" fill-opacity=".898477" x="1189.5431" y="-683.63892"/></text><text opacity=".8" x="-1208.816" y="-458.49609"><tspan fill="#ff5061" fill-opacity=".898477" x="-1208.816" y="-458.49609"/></text><text opacity=".8" x="-3032.5017" y="287.05743"><tspan fill="#ff5061" fill-opacity=".898477" x="-3032.5017" y="287.05743"/></text><text opacity=".8" transform="matrix(.90475 0 0 .90475 -716.75 -669.05)" x="-664.2738" y="1159.4154"><tspan fill="#ff5061" fill-opacity=".898477" x="-664.2738" y="1159.4154"/></text><text x="435.90427" y="-361.22546"><tspan fill="#ff5061" fill-opacity=".898477" x="435.90427" y="-361.22546"/><tspan fill="#ff5061" fill-opacity=".898477" x="435.90427" y="-345.3924"/></text><text opacity=".8" x="901.0882" y="-843.27002"><tspan fill="#ff5061" fill-opacity=".898477" x="901.0882" y="-843.27002"/></text><text opacity=".8" x="-922.59778" y="-97.716553"><tspan fill="#ff5061" fill-opacity=".898477" x="-922.59778" y="-97.716553"/></text><text opacity=".8" x="1628.1677" y="-1128.2659"><tspan fill="#ff5061" fill-opacity=".898477" x="1628.1677" y="-1128.2659"/></text><text opacity=".8" x="1652.1285" y="-1169.0076"><tspan fill="#ff5061" fill-opacity=".898477" x="1652.1285" y="-1169.0076"/></text><text opacity=".8" x="160.66542" y="-1176.2175"><tspan fill="#ff5061" fill-opacity=".898477" x="160.66542" y="-1176.2175"/></text><text opacity=".8" x="1621.2083" y="-1449.4517"><tspan fill="#ff5061" fill-opacity=".898477" x="1621.2083" y="-1449.4517"/></text><text opacity=".8" x="877.22626" y="10.812601"><tspan fill="#ff5061" fill-opacity=".898477" x="877.22626" y="10.812601"/></text><text opacity=".8" x="901.18719" y="-29.929106"><tspan fill="#ff5061" fill-opacity=".898477" x="901.18719" y="-29.929106"/></text><text opacity=".8" x="-569.37115" y="-60.007248"><tspan fill="#ff5061" fill-opacity=".898477" x="-569.37115" y="-60.007248"/></text><text opacity=".8" x="-2393.0571" y="685.5462"><tspan fill="#ff5061" fill-opacity=".898477" x="-2393.0571" y="685.5462"/></text><text opacity=".8" x="-454.88007" y="-445.32822"><tspan fill="#ff5061" fill-opacity=".898477" x="-454.88007" y="-445.32822"/></text><text opacity=".8" x="352.72208" y="-858.79834"><tspan fill="#ff5061" fill-opacity=".898477" x="352.72208" y="-858.79834"/></text><text opacity=".8" x="376.68301" y="-899.54004"><tspan fill="#ff5061" fill-opacity=".898477" x="376.68301" y="-899.54004"/></text><text opacity=".8" x="-1114.7802" y="-906.74994"><tspan fill="#ff5061" fill-opacity=".898477" x="-1114.7802" y="-906.74994"/></text><text opacity=".8" x="345.7626" y="-1179.9841"><tspan fill="#ff5061" fill-opacity=".898477" x="345.7626" y="-1179.9841"/></text><text opacity=".8" x="1831.8861" y="-553.29272"><tspan fill="#ff5061" fill-opacity=".898477" x="1831.8861" y="-553.29272"/></text><text opacity=".8" x="1855.8469" y="-594.03448"><tspan fill="#ff5061" fill-opacity=".898477" x="1855.8469" y="-594.03448"/></text><text opacity=".8" x="364.38376" y="-601.24438"><tspan fill="#ff5061" fill-opacity=".898477" x="364.38376" y="-601.24438"/></text><text opacity=".8" x="1824.9266" y="-874.47839"><tspan fill="#ff5061" fill-opacity=".898477" x="1824.9266" y="-874.47839"/></text><text opacity=".8" x="-573.43256" y="-649.33569"><tspan fill="#ff5061" fill-opacity=".898477" x="-573.43256" y="-649.33569"/></text><text opacity=".8" x="-2397.1182" y="96.217857"><tspan fill="#ff5061" fill-opacity=".898477" x="-2397.1182" y="96.217857"/></text><text opacity=".8" x="-682.36279" y="189.09"><tspan fill="#ff5061" fill-opacity=".898477" x="-682.36279" y="189.09"/></text><text opacity=".8" x="426.66153" y="9.907852"><tspan fill="#ff5061" fill-opacity=".898477" x="426.66153" y="9.907852"/></text><text opacity=".8" x="450.62247" y="-30.833855"><tspan fill="#ff5061" fill-opacity=".898477" x="450.62247" y="-30.833855"/></text><text opacity=".8" x="-1040.8407" y="-38.043827"><tspan fill="#ff5061" fill-opacity=".898477" x="-1040.8407" y="-38.043827"/></text><text opacity=".8" x="419.70206" y="-311.27789"><tspan fill="#ff5061" fill-opacity=".898477" x="419.70206" y="-311.27789"/></text><text opacity=".8" x="-608.03253" y="-40.758072"><tspan fill="#ff5061" fill-opacity=".898477" x="-608.03253" y="-40.758072"/></text><text opacity=".8" x="-2431.7185" y="704.79541"><tspan fill="#ff5061" fill-opacity=".898477" x="-2431.7185" y="704.79541"/></text><text opacity=".8" x="-456.93948" y="-902.28857"><tspan fill="#ff5061" fill-opacity=".898477" x="-456.93948" y="-902.28857"/></text><text opacity=".8" x="350.66266" y="-1315.7588"><tspan fill="#ff5061" fill-opacity=".898477" x="350.66266" y="-1315.7588"/></text><text opacity=".8" x="374.62357" y="-1356.5005"><tspan fill="#ff5061" fill-opacity=".898477" x="374.62357" y="-1356.5005"/></text><text opacity=".8" x="-1116.8396" y="-1363.7104"><tspan fill="#ff5061" fill-opacity=".898477" x="-1116.8396" y="-1363.7104"/></text><text opacity=".8" x="343.70316" y="-1636.9446"><tspan fill="#ff5061" fill-opacity=".898477" x="343.70316" y="-1636.9446"/></text><text opacity=".8" x="1829.8265" y="-1010.2533"><tspan fill="#ff5061" fill-opacity=".898477" x="1829.8265" y="-1010.2533"/></text><text opacity=".8" x="1853.7874" y="-1050.9949"><tspan fill="#ff5061" fill-opacity=".898477" x="1853.7874" y="-1050.9949"/></text><text opacity=".8" x="362.32431" y="-1058.2048"><tspan fill="#ff5061" fill-opacity=".898477" x="362.32431" y="-1058.2048"/></text><text opacity=".8" x="1822.8671" y="-1331.439"><tspan fill="#ff5061" fill-opacity=".898477" x="1822.8671" y="-1331.439"/></text><text opacity=".8" x="-575.492" y="-1106.2961"><tspan fill="#ff5061" fill-opacity=".898477" x="-575.492" y="-1106.2961"/></text><text opacity=".8" x="-2399.1777" y="-360.74261"><tspan fill="#ff5061" fill-opacity=".898477" x="-2399.1777" y="-360.74261"/></text><text opacity=".8" x="-684.42224" y="-267.87045"><tspan fill="#ff5061" fill-opacity=".898477" x="-684.42224" y="-267.87045"/></text><text opacity=".8" x="155.5923" y="-26.956278"><tspan fill="#ff5061" fill-opacity=".898477" x="155.5923" y="-26.956278"/></text><text opacity=".8" x="179.55324" y="-67.697998"><tspan fill="#ff5061" fill-opacity=".898477" x="179.55324" y="-67.697998"/></text><text opacity=".8" x="-1090.2634" y="-261.72662"><tspan fill="#ff5061" fill-opacity=".898477" x="-1090.2634" y="-261.72662"/></text><text opacity=".8" x="-282.66141" y="-675.19678"><tspan fill="#ff5061" fill-opacity=".898477" x="-282.66141" y="-675.19678"/></text><text opacity=".8" x="-258.70047" y="-715.93848"><tspan fill="#ff5061" fill-opacity=".898477" x="-258.70047" y="-715.93848"/></text><text opacity=".8" x="-1750.1636" y="-723.14838"><tspan fill="#ff5061" fill-opacity=".898477" x="-1750.1636" y="-723.14838"/></text><text opacity=".8" x="-289.62085" y="-996.38251"><tspan fill="#ff5061" fill-opacity=".898477" x="-289.62085" y="-996.38251"/></text><text opacity=".8" x="1196.5026" y="-369.69113"><tspan fill="#ff5061" fill-opacity=".898477" x="1196.5026" y="-369.69113"/></text><text opacity=".8" x="1220.4634" y="-410.43286"><tspan fill="#ff5061" fill-opacity=".898477" x="1220.4634" y="-410.43286"/></text><text opacity=".8" x="-270.99973" y="-417.64282"><tspan fill="#ff5061" fill-opacity=".898477" x="-270.99973" y="-417.64282"/></text><text opacity=".8" x="1189.5431" y="-690.87689"><tspan fill="#ff5061" fill-opacity=".898477" x="1189.5431" y="-690.87689"/></text><text opacity=".8" x="-1208.816" y="-465.7341"><tspan fill="#ff5061" fill-opacity=".898477" x="-1208.816" y="-465.7341"/></text><text opacity=".8" x="-3032.5017" y="279.81946"><tspan fill="#ff5061" fill-opacity=".898477" x="-3032.5017" y="279.81946"/></text><text opacity=".8" x="-1317.7462" y="372.69156"><tspan fill="#ff5061" fill-opacity=".898477" x="-1317.7462" y="372.69156"/></text><text opacity=".8" x="877.22626" y="18.050589"><tspan fill="#ff5061" fill-opacity=".898477" x="877.22626" y="18.050589"/></text><text opacity=".8" x="901.18719" y="-22.691116"><tspan fill="#ff5061" fill-opacity=".898477" x="901.18719" y="-22.691116"/></text><text opacity=".8" x="-569.37115" y="-52.76926"><tspan fill="#ff5061" fill-opacity=".898477" x="-569.37115" y="-52.76926"/></text><text opacity=".8" x="-2393.0571" y="692.78418"><tspan fill="#ff5061" fill-opacity=".898477" x="-2393.0571" y="692.78418"/></text><text opacity=".8" x="-454.88007" y="-438.09021"><tspan fill="#ff5061" fill-opacity=".898477" x="-454.88007" y="-438.09021"/></text><text opacity=".8" x="352.72208" y="-851.5603"><tspan fill="#ff5061" fill-opacity=".898477" x="352.72208" y="-851.5603"/></text><text opacity=".8" x="376.68301" y="-892.30206"><tspan fill="#ff5061" fill-opacity=".898477" x="376.68301" y="-892.30206"/></text><text opacity=".8" x="-1114.7802" y="-899.51196"><tspan fill="#ff5061" fill-opacity=".898477" x="-1114.7802" y="-899.51196"/></text><text opacity=".8" x="345.7626" y="-1172.7461"><tspan fill="#ff5061" fill-opacity=".898477" x="345.7626" y="-1172.7461"/></text><text opacity=".8" x="1831.8861" y="-546.05475"><tspan fill="#ff5061" fill-opacity=".898477" x="1831.8861" y="-546.05475"/></text><text opacity=".8" x="1855.8469" y="-586.79651"><tspan fill="#ff5061" fill-opacity=".898477" x="1855.8469" y="-586.79651"/></text><text opacity=".8" x="364.38376" y="-594.00641"><tspan fill="#ff5061" fill-opacity=".898477" x="364.38376" y="-594.00641"/></text><text opacity=".8" x="1824.9266" y="-867.24036"><tspan fill="#ff5061" fill-opacity=".898477" x="1824.9266" y="-867.24036"/></text><text opacity=".8" x="-573.43256" y="-642.09772"><tspan fill="#ff5061" fill-opacity=".898477" x="-573.43256" y="-642.09772"/></text><text opacity=".8" x="-2397.1182" y="103.45585"><tspan fill="#ff5061" fill-opacity=".898477" x="-2397.1182" y="103.45585"/></text><text opacity=".8" x="-682.36279" y="196.32799"><tspan fill="#ff5061" fill-opacity=".898477" x="-682.36279" y="196.32799"/></text><text opacity=".8" x="426.66153" y="17.14584"><tspan fill="#ff5061" fill-opacity=".898477" x="426.66153" y="17.14584"/></text><text opacity=".8" x="450.62247" y="-23.595865"><tspan fill="#ff5061" fill-opacity=".898477" x="450.62247" y="-23.595865"/></text><text opacity=".8" x="-1040.8407" y="-30.805836"><tspan fill="#ff5061" fill-opacity=".898477" x="-1040.8407" y="-30.805836"/></text><text opacity=".8" x="419.70206" y="-304.03989"><tspan fill="#ff5061" fill-opacity=".898477" x="419.70206" y="-304.03989"/></text><text opacity=".8" x="-608.03253" y="-33.520081"><tspan fill="#ff5061" fill-opacity=".898477" x="-608.03253" y="-33.520081"/></text><text opacity=".8" x="-2431.7185" y="712.03345"><tspan fill="#ff5061" fill-opacity=".898477" x="-2431.7185" y="712.03345"/></text><text opacity=".8" x="-456.93948" y="-895.0506"><tspan fill="#ff5061" fill-opacity=".898477" x="-456.93948" y="-895.0506"/></text><text opacity=".8" x="350.66266" y="-1308.5208"><tspan fill="#ff5061" fill-opacity=".898477" x="350.66266" y="-1308.5208"/></text><text opacity=".8" x="374.62357" y="-1349.2626"><tspan fill="#ff5061" fill-opacity=".898477" x="374.62357" y="-1349.2626"/></text><text opacity=".8" x="-1116.8396" y="-1356.4724"><tspan fill="#ff5061" fill-opacity=".898477" x="-1116.8396" y="-1356.4724"/></text><text opacity=".8" x="343.70316" y="-1629.7065"><tspan fill="#ff5061" fill-opacity=".898477" x="343.70316" y="-1629.7065"/></text><text opacity=".8" x="1829.8265" y="-1003.0153"><tspan fill="#ff5061" fill-opacity=".898477" x="1829.8265" y="-1003.0153"/></text><text opacity=".8" x="1853.7874" y="-1043.757"><tspan fill="#ff5061" fill-opacity=".898477" x="1853.7874" y="-1043.757"/></text><text opacity=".8" x="362.32431" y="-1050.9668"><tspan fill="#ff5061" fill-opacity=".898477" x="362.32431" y="-1050.9668"/></text><text opacity=".8" x="1822.8671" y="-1324.2009"><tspan fill="#ff5061" fill-opacity=".898477" x="1822.8671" y="-1324.2009"/></text><text opacity=".8" x="-575.492" y="-1099.0581"><tspan fill="#ff5061" fill-opacity=".898477" x="-575.492" y="-1099.0581"/></text><text opacity=".8" x="-2399.1777" y="-353.50461"><tspan fill="#ff5061" fill-opacity=".898477" x="-2399.1777" y="-353.50461"/></text><text opacity=".8" x="-684.42224" y="-260.63245"><tspan fill="#ff5061" fill-opacity=".898477" x="-684.42224" y="-260.63245"/></text><text opacity=".8" x="155.5923" y="-19.71829"><tspan fill="#ff5061" fill-opacity=".898477" x="155.5923" y="-19.71829"/></text><text opacity=".8" x="179.55324" y="-60.460011"><tspan fill="#ff5061" fill-opacity=".898477" x="179.55324" y="-60.460011"/></text><text opacity=".8" x="-1090.2634" y="-254.4886"><tspan fill="#ff5061" fill-opacity=".898477" x="-1090.2634" y="-254.4886"/></text><text opacity=".8" x="-282.66141" y="-667.9588"><tspan fill="#ff5061" fill-opacity=".898477" x="-282.66141" y="-667.9588"/></text><text opacity=".8" x="-258.70047" y="-708.7005"><tspan fill="#ff5061" fill-opacity=".898477" x="-258.70047" y="-708.7005"/></text><text opacity=".8" x="-1750.1636" y="-715.91046"><tspan fill="#ff5061" fill-opacity=".898477" x="-1750.1636" y="-715.91046"/></text><text opacity=".8" x="-289.62085" y="-989.14447"><tspan fill="#ff5061" fill-opacity=".898477" x="-289.62085" y="-989.14447"/></text><text opacity=".8" x="1196.5026" y="-362.45316"><tspan fill="#ff5061" fill-opacity=".898477" x="1196.5026" y="-362.45316"/></text><text opacity=".8" x="1220.4634" y="-403.19489"><tspan fill="#ff5061" fill-opacity=".898477" x="1220.4634" y="-403.19489"/></text><text opacity=".8" x="-270.99973" y="-410.40482"><tspan fill="#ff5061" fill-opacity=".898477" x="-270.99973" y="-410.40482"/></text><text opacity=".8" x="1189.5431" y="-683.63892"><tspan fill="#ff5061" fill-opacity=".898477" x="1189.5431" y="-683.63892"/></text><text opacity=".8" x="-1208.816" y="-458.49609"><tspan fill="#ff5061" fill-opacity=".898477" x="-1208.816" y="-458.49609"/></text><text opacity=".8" x="-3032.5017" y="287.05743"><tspan fill="#ff5061" fill-opacity=".898477" x="-3032.5017" y="287.05743"/></text><text opacity=".8" x="-1317.7462" y="379.92953"><tspan fill="#ff5061" fill-opacity=".898477" x="-1317.7462" y="379.92953"/></text><text x="435.90427" y="-361.22546"><tspan fill="#ff5061" fill-opacity=".898477" x="435.90427" y="-361.22546"/><tspan fill="#ff5061" fill-opacity=".898477" x="435.90427" y="-345.3924"/></text><text opacity=".8" x="901.0882" y="-843.27002"><tspan fill="#ff5061" fill-opacity=".898477" x="901.0882" y="-843.27002"/></text><text opacity=".8" x="-922.59778" y="-97.716553"><tspan fill="#ff5061" fill-opacity=".898477" x="-922.59778" y="-97.716553"/></text><text opacity=".8" x="1628.1677" y="-1128.2659"><tspan fill="#ff5061" fill-opacity=".898477" x="1628.1677" y="-1128.2659"/></text><text opacity=".8" x="1652.1285" y="-1169.0076"><tspan fill="#ff5061" fill-opacity=".898477" x="1652.1285" y="-1169.0076"/></text><text opacity=".8" x="160.66542" y="-1176.2175"><tspan fill="#ff5061" fill-opacity=".898477" x="160.66542" y="-1176.2175"/></text><text opacity=".8" x="1621.2083" y="-1449.4517"><tspan fill="#ff5061" fill-opacity=".898477" x="1621.2083" y="-1449.4517"/></text></g><g transform="matrix(1.5511965 0 0 1.552208 -597.389819 -801.619437)"><circle cx="400.57138" cy="531.79791" fill="url(#b)" r="0"/><g transform="matrix(1.0508504 0 0 1.0508504 -20.353166 -26.940048)"><circle cx="400.57138" cy="531.79791" fill="url(#c)" r="13.999958" stroke="url(#c)" stroke-width="1.427415"/><circle cx="400.57138" cy="531.79791" fill="url(#b)" r="0" transform="matrix(1.55822993102 0 0 1.55822993102 -264.298285246431 -296.910724934234)"/></g></g><g transform="matrix(.43781095 0 0 .43781095 -2.151819 -2.127537)"><path d="m42.840478 31.57135c4.646234-5.482756 10.653076-8.798615 17.204164-8.798615 14.74499 0 26.698206 16.720393 26.698206 37.331122 0 20.620809-11.953216 37.331124-26.698206 37.331124-6.561166 0-12.55793-3.30578-17.204164-8.788537 7.266668 9.433567 18.060845 15.420256 30.124928 15.420256 7.417847 0 14.362001-2.26768 20.298296-6.198339 10.370868-9.27231 16.891728-22.747394 16.891728-37.754424 0-14.996953-6.52086-28.482116-16.891728-37.754423-5.936295-3.940733-12.880449-6.198339-20.298296-6.198339-12.064083 0-22.85826 5.986688-30.124928 15.420253" fill="url(#e)"/><path d="m60 9.75c-27.75 0-50.25 22.5-50.25 50.25 0 26.95 21.22 48.94 47.86 50.19.8.04 1.59.06 2.39.06 12.87 0 24.6-4.84 33.49-12.79-5.89 3.91-12.78 6.15-20.14 6.15-11.97 0-22.68-5.94-29.89-15.3-5.56-6.56-9.15-16.25-9.4-27.13 0-.03 0-2.34 0-2.37.25-10.88 3.84-20.58 9.4-27.13 7.21-9.36 17.93-15.3 29.89-15.3 7.36 0 14.25 2.25 20.14 6.16-8.84-7.91-20.51-12.74-33.3-12.79-.06 0-.13 0-.19 0z" fill="url(#d)"/></g></svg>