<svg height="48" width="48" xmlns="http://www.w3.org/2000/svg" xmlns:xlink="http://www.w3.org/1999/xlink">
  <linearGradient id="a" gradientUnits="userSpaceOnUse" x1="2.48888950474" x2="45.51111170474" y1="23.51111042791" y2="23.51111042791">
    <stop offset="0" stop-color="#893b9d" />
    <stop offset="1" stop-color="#b163c5" />
  </linearGradient>
  <rect fill-opacity=".470588" height="43.022221" rx="2.151112" stroke-width="1.122319" width="43.022221" x="2.48889" y="2.977778" />
  <rect fill="url(#a)" height="43.022221" rx="2.151112" stroke-width="1.122319" width="43.022221" x="2.48889" y="2.000001" />
  <path d="m8.064863 5.8049979c-.9809483 0-1.7718901.7891152-1.7718901 1.7700634v31.8721017c0 .980949.7909418 1.770063 1.7718901 1.770063h31.872101c.980949 0 1.770065-.789114 1.770065-1.770063v-31.8721017c0-.9809482-.789116-1.7700634-1.770065-1.7700634zm15.630993 9.0750011a8.4173914 8.4173914 0 0 1 8.547087 8.285869 8.4173914 8.4173914 0 0 1 -8.28587 8.54526 8.4173914 8.4173914 0 0 1 -8.54526-8.28587 8.4173914 8.4173914 0 0 1 8.284043-8.545259zm.02923 1.802944a6.6136646 6.6136646 0 0 0 -6.512153 6.714915 6.6136646 6.6136646 0 0 0 6.716743 6.510325 6.6136646 6.6136646 0 0 0 6.510326-6.714914 6.6136646 6.6136646 0 0 0 -6.714916-6.510326zm.93344 2.27971.07672 4.869957-.887771.915172.916998.887772.03471 2.345471-1.802943.0274-.07673-4.869959.887772-.915171-.915172-.887772-.03471-2.345471z" fill="#fff" fill-opacity=".85098" stroke-width=".923825" />
</svg>
