<svg height="48" width="48" xmlns="http://www.w3.org/2000/svg" xmlns:xlink="http://www.w3.org/1999/xlink">
  <linearGradient id="a" gradientTransform="matrix(-.56818263 .02072482 .02007625 .54323084 324.54932 -233.10829)" gradientUnits="userSpaceOnUse" x1="542.83392" x2="543.25458" y1="484.29376" y2="463.62488">
    <stop offset="0" stop-color="#132e51" />
    <stop offset="1" stop-color="#2767b9" />
  </linearGradient>
  <linearGradient id="b" gradientUnits="userSpaceOnUse" x1="25.87408405068" x2="26.78719916283" y1="34.84311895092" y2="26.76741239032">
    <stop offset="0" stop-color="#eefefe" />
    <stop offset="1" stop-color="#d6fefe" />
  </linearGradient>
  <linearGradient id="c" gradientTransform="matrix(.99964123 0 0 .97798234 -1.353561 9.662993)" gradientUnits="userSpaceOnUse" x1="-944.62836" x2="-1044.4879" y1="333.10245" y2="318.90646">
    <stop offset="0" stop-color="#13ff41" />
    <stop offset="1" stop-color="#2bff54" />
  </linearGradient>
  <linearGradient id="d" gradientTransform="matrix(1.0100531 0 0 .98999298 10.490468 8.733101)" gradientUnits="userSpaceOnUse" x1="-1099.6381" x2="-1013.6206" y1="114.76767" y2="144.74232">
    <stop offset="0" stop-color="#ff4e4e" />
    <stop offset="1" stop-color="#ff4e4e" />
  </linearGradient>
  <linearGradient id="e" gradientTransform="matrix(.39633248 0 0 .39182502 823.28066 472.00672)" gradientUnits="userSpaceOnUse" x1="-1099.8922" x2="-1009.0798" y1="115.61841" y2="118.50387">
    <stop offset="0" stop-color="#2990ff" />
    <stop offset="1" stop-color="#82beff" />
  </linearGradient>
  <g transform="matrix(0 .98887449 -.98887449 0 541.94787 -380.15042)">
    <text x="300.29187" y="516.21832">
      <tspan x="300.29187" y="516.21832" />
    </text>
    <rect fill="url(#d)" height="113.49006" ry="2.769882" transform="matrix(.33587294 -.11051872 .10945021 .33622265 742.13368 347.56055)" width="90.667969" x="-1101.136" y="120.15247" />
    <rect fill="url(#c)" height="120.21231" ry="2.933947" transform="matrix(.35084441 -.04396839 .04914515 .35015678 742.13368 347.56055)" width="99.789253" x="-1046.6779" y="318.9989" />
    <path d="m388.18808 516.10516h18.24054c7.21789 17.98121 18.82823 43.04126.20397 44.91774h-18.44451c-.60734 0-1.09628-.48894-1.09628-1.09628v-42.72518c0-.60734.48894-1.09628 1.09628-1.09628z" fill="url(#e)" transform="matrix(.99941434 -.03421947 .01692355 .99985679 -.199608 0)" />
  </g>
  <path d="m39.568359 27.908203-5.568359 6.867188-10.923828 3.265625-10.720703-5.470704-5.886719.726563-5.4628906-2.390625.5058594 14.773438c.0205515.600229.5205981 1.074617 1.1210937 1.064453l42.2441405-.714844c.600496-.010164 1.067427-.501333 1.046875-1.101563l-.513672-14.976562z" fill="url(#a)" fill-rule="evenodd" stroke-width=".956747" />
  <circle cx="26.389145" cy="31.215078" fill="url(#b)" opacity=".811" r="3.79214" stroke-width="1.148096" transform="matrix(.99253125 -.12199067 .12199067 .99253125 0 0)" />
</svg>
