<?xml version="1.0" encoding="UTF-8" standalone="no"?>
<svg
   xmlns:dc="http://purl.org/dc/elements/1.1/"
   xmlns:cc="http://creativecommons.org/ns#"
   xmlns:rdf="http://www.w3.org/1999/02/22-rdf-syntax-ns#"
   xmlns:svg="http://www.w3.org/2000/svg"
   xmlns="http://www.w3.org/2000/svg"
   xmlns:xlink="http://www.w3.org/1999/xlink"
   xmlns:sodipodi="http://sodipodi.sourceforge.net/DTD/sodipodi-0.dtd"
   xmlns:inkscape="http://www.inkscape.org/namespaces/inkscape"
   viewBox="0 0 48 48"
   id="svg2"
   version="1.1"
   inkscape:version="0.91 r13725"
   sodipodi:docname="palemoon.svg">
  <metadata
     id="metadata45">
    <rdf:RDF>
      <cc:Work
         rdf:about="">
        <dc:format>image/svg+xml</dc:format>
        <dc:type
           rdf:resource="http://purl.org/dc/dcmitype/StillImage" />
        <dc:title></dc:title>
      </cc:Work>
    </rdf:RDF>
  </metadata>
  <sodipodi:namedview
     pagecolor="#dcdcdc"
     bordercolor="#666666"
     borderopacity="1"
     objecttolerance="10"
     gridtolerance="10"
     guidetolerance="10"
     inkscape:pageopacity="0"
     inkscape:pageshadow="2"
     inkscape:window-width="640"
     inkscape:window-height="480"
     id="namedview43"
     showgrid="false"
     inkscape:zoom="12.645833"
     inkscape:cx="13.087315"
     inkscape:cy="24"
     inkscape:current-layer="svg2" />
  <defs
     id="defs4">
    <linearGradient
       gradientUnits="userSpaceOnUse"
       y2="1"
       x2="0"
       y1="47"
       id="linearGradient4148">
      <stop
         id="stop4150"
         style="stop-color:#e6e6e6;stop-opacity:1" />
      <stop
         id="stop4152"
         style="stop-color:#f2f2f2;stop-opacity:1"
         offset="1" />
    </linearGradient>
    <linearGradient
       id="linearGradient3764"
       x1="1"
       x2="47"
       gradientUnits="userSpaceOnUse"
       gradientTransform="matrix(0,-1,1,0,-1.5e-6,47.999998)">
      <stop
         style="stop-color:#3b568d;stop-opacity:1"
         id="stop7" />
      <stop
         offset="1"
         style="stop-color:#41609c;stop-opacity:1"
         id="stop9" />
    </linearGradient>
    <linearGradient
       id="linearGradient4247"
       y1="47"
       x2="0"
       y2="1"
       gradientUnits="userSpaceOnUse">
      <stop
         style="stop-color:#8597bb;stop-opacity:1"
         id="stop12" />
      <stop
         offset="1"
         style="stop-color:#92a2c2;stop-opacity:1"
         id="stop14" />
    </linearGradient>
    <linearGradient
       id="linearGradient4255"
       y1="47"
       x2="0"
       y2="1"
       gradientUnits="userSpaceOnUse">
      <stop
         style="stop-color:#7786a2;stop-opacity:1"
         id="stop17" />
      <stop
         offset="1"
         style="stop-color:#8290aa;stop-opacity:1"
         id="stop19" />
    </linearGradient>
    <linearGradient
       inkscape:collect="always"
       xlink:href="#linearGradient4247"
       id="linearGradient4187"
       x1="24.830313"
       y1="46.813839"
       x2="23.485996"
       y2="0.86985171"
       gradientUnits="userSpaceOnUse" />
    <linearGradient
       inkscape:collect="always"
       xlink:href="#linearGradient4148"
       id="linearGradient4146"
       gradientUnits="userSpaceOnUse"
       x1="24.830313"
       y1="46.813839"
       x2="23.485996"
       y2="0.86985171" />
    <linearGradient
       inkscape:collect="always"
       xlink:href="#linearGradient4148"
       id="linearGradient4160"
       x1="22.922447"
       y1="47.020569"
       x2="26.99441"
       y2="1.1556576"
       gradientUnits="userSpaceOnUse" />
  </defs>
  <circle
     style="opacity:0.98999999;fill:url(#linearGradient4187);fill-opacity:1.0"
     id="path4177"
     cx="24"
     cy="24"
     r="23" />
  <path
     inkscape:connector-curvature="0"
     id="path33"
     style="opacity:0.361;fill:url(#linearGradient4160);fill-opacity:1"
     d="m 18.1,1.98 c -0.353,0.004 -0.716,0.048 -1.082,0.104 -1.492,0.475 -2.915,1.1 -4.258,1.854 0.118,0.091 0.299,0.156 0.547,0.18 -1.74,0.099 -2.476,1.908 -4.174,2.344 -0.464,0.394 -0.915,0.802 -1.346,1.23 -0.659,1.523 -0.391,3.373 -1.535,4.887 -0.093,1.602 -2.01,1.761 -2.633,0.773 -0.421,0.805 -0.796,1.637 -1.121,2.494 0.33,-0.252 2.067,2.188 1.449,3.068 1.849,-2.612 1.843,1.992 0.479,2.391 1.806,1.784 3.908,3.388 4.979,5.781 0.244,2.386 4.826,0.206 3.41,-0.365 -1.187,0.655 -1.272,0.29 -0.559,-0.582 -1.538,0.417 -1.462,0.435 -1.17,-0.725 -0.901,-1.241 -0.932,-2.345 -0.855,-3.646 1.553,0.253 2.188,-3.143 3.57,-0.885 1.094,-1.26 2.821,-0.817 2.803,-2.719 0.555,0.28 3.794,1.103 2.707,-1.184 0.135,-1.226 1.466,2.143 2.072,-0.244 1.7,-1.325 1.733,-4.377 -0.928,-3.197 -3.103,-0.512 -0.738,-2.991 -0.01,-4.498 1.74,-0.279 1.63,-1.699 0.066,-1.592 C 19.399,6.261 19.908,4.215 21.159,3.594 20.408,2.336 19.31,1.969 18.098,1.981 Z M 31.741,2.337 C 29.649,3.013 25.899,1.91 26.544,5.669 26.232,8.13 25.33,6.338 24.458,5.636 23.484,4.851 22.096,4.28 21.192,6.079 c 0.5,0.622 1.787,-0.918 2.213,0.926 1.822,-0.34 0.908,2.446 3.141,1.678 0.656,2.119 0.79,4.585 0.502,6.191 -2.353,-1.848 -1.01,3.379 -3.725,3.078 -1.637,-0.297 -4.464,0.704 -2.379,2.301 -0.924,1.068 1.234,1.55 0.201,2.391 1.316,0.97 -1.119,1.397 -1.764,0.871 -1.678,0.873 0.061,4.368 -2,1.826 0.063,1.617 3.079,3.367 3.75,4.143 0.995,-1.147 3.337,0.221 3.273,-2.33 1,-3.665 4.12,1.384 5.213,-2.234 0.432,-3.459 -4.97,0.322 -5.02,-3.602 0.872,-2.047 3.038,-2.88 4.523,-1.547 0.913,-1.912 2.042,1.962 2.645,-0.145 -2.02,-1.315 2.79,-0.419 0.965,-2.498 -0.634,-1.219 2.63,-1.686 0.238,-2.199 1.852,-1.243 0.89,-1.306 -0.223,-2.234 1.053,-0.366 5.244,-1.492 2.883,0.076 -1.543,3.321 3.159,8.89 5.461,7.818 3.413,-1.25 0.905,3.607 3.379,3.572 1.028,-0.489 1.662,1.01 2.512,0.676 0.01,-0.279 0.021,-0.557 0.021,-0.838 0,-0.188 -0.009,-0.374 -0.014,-0.561 -1.132,-0.854 -1.391,-4.051 -1.191,-5.838 0.005,-0.24 0.061,-0.406 0.143,-0.527 -1.01,-3.201 -2.699,-6.099 -4.9,-8.525 C 40.845,8.538 40.621,8.475 40.34,8.308 39.878,7.849 39.591,7.368 39.365,6.886 37.164,4.909 34.58,3.352 31.738,2.337 Z M 23.368,9.8 c -1.252,-0.006 -2.52,0.445 -1.023,1.033 0.728,-0.03 1.263,1.503 1.951,0.67 C 25.857,10.267 24.621,9.805 23.368,9.8 Z M 2.446,15.978 c -0.832,2.235 -1.325,4.635 -1.42,7.137 -0.004,0.492 -0.004,0.984 -0.008,1.477 0.18,7.124 3.597,13.439 8.838,17.535 0.379,-0.858 1.185,-1.432 1.699,-0.631 -0.101,-1.321 0.046,-2.089 1.527,-0.967 1.02,0.119 3.732,1.09 2.594,1.787 -0.965,-1.565 -2.546,-0.538 -0.848,0.643 -0.224,0.483 -0.774,1.01 -1.154,1.59 1.87,0.942 3.885,1.636 6,2.039 0.201,-0.768 2.75,-0.608 0.693,-1.402 -2.475,-0.278 -3.994,-3.043 -1.426,-4.182 -1.615,-2.289 2.37,-4.856 1.818,-1.084 -0.216,2.64 3.136,3.975 5.05,5.188 1.178,-0.053 2.31,-2.132 3,-0.66 2.01,0.039 -0.752,-1.948 1.516,-1.973 2.227,-0.473 0.569,-3.593 -0.852,-3.475 -1.252,-1.944 1,-6.689 -2.652,-4.932 -0.561,-1.458 -0.469,-2.518 -2.281,-2.631 -1.091,-1.039 -3.781,-3.395 -2.529,-0.182 0.493,1.707 3.813,4 1.959,5.238 -1.024,-1.741 -3.778,-2.5 -4.719,-3.48 -0.291,2.179 -1.712,-1.475 0.104,-1.291 0.303,-1.832 -1.727,-3.086 -2.146,-1.018 -0.877,-0.124 -4.32,-1.21 -1.771,0.436 2.329,1.901 -4.642,-0.024 -1.506,-0.773 0.884,-2.366 -5.313,-2.02 -3.875,0.953 -0.421,1.353 -2.438,-1.694 -3.848,-1 C 6.39,28.968 7.552,26.748 6.512,26.121 4.892,25.776 8.328,24.97 6.207,24.795 5.694,22.645 3.601,22.233 2.177,23.488 0.333,22.062 3.058,18.793 2.583,16.658 2.47,16.324 2.432,16.11 2.44,15.978 Z m 13.518,18.06 c 0.391,0.01 0.719,0.444 0.766,1.598 0.043,0.514 0.087,2.02 -0.787,1.766 -2.616,-0.179 -1.06,-3.391 0.021,-3.363 z m 3.205,8.182 c -0.055,0.013 0.067,0.231 0.477,0.908 -2.041,2.054 4.893,1.318 2.344,3.605 -0.023,0.051 -0.034,0.115 -0.053,0.172 0.43,0.038 0.863,0.064 1.299,0.078 -0.087,-0.469 0.312,-1.275 1.025,-1.707 -0.924,-1.057 -2.436,-2.484 -3.59,-2.623 -0.641,0.268 -1.396,-0.458 -1.502,-0.434 z m 5.904,4.488 c -0.176,0.128 -0.31,0.192 -0.459,0.279 0.202,-0.005 0.405,-0.005 0.605,-0.016 -0.052,-0.09 -0.072,-0.157 -0.146,-0.264 z" />
  <circle
     r="23"
     cy="24"
     cx="24"
     id="circle4144"
     style="opacity:0.98999999;fill-opacity:1;stroke:url(#linearGradient4146);fill:none" />
</svg>
