<svg viewBox="0 0 48 48" xmlns="http://www.w3.org/2000/svg" xmlns:xlink="http://www.w3.org/1999/xlink"><linearGradient id="a" gradientUnits="userSpaceOnUse" x2="0" y1="47" y2="1"><stop offset="0" stop-color="#e6e6e6"/><stop offset="1" stop-color="#f2f2f2"/></linearGradient><linearGradient id="b" gradientUnits="userSpaceOnUse" x1="24.830313" x2="23.485996" y1="46.813839" y2=".869852"><stop offset="0" stop-color="#8597bb"/><stop offset="1" stop-color="#92a2c2"/></linearGradient><linearGradient id="c" gradientUnits="userSpaceOnUse" x1="24.830313" x2="23.485996" xlink:href="#a" y1="46.813839" y2=".869852"/><linearGradient id="d" gradientUnits="userSpaceOnUse" x1="22.922447" x2="26.99441" xlink:href="#a" y1="47.020569" y2="1.155658"/><circle cx="24" cy="24" fill="url(#b)" opacity=".99" r="23"/><path d="m18.1 1.98c-.353.004-.716.048-1.082.104-1.492.475-2.915 1.1-4.258 1.854.118.091.299.156.547.18-1.74.099-2.476 1.908-4.174 2.344-.464.394-.915.802-1.346 1.23-.659 1.523-.391 3.373-1.535 4.887-.093 1.602-2.01 1.761-2.633.773-.421.805-.796 1.637-1.121 2.494.33-.252 2.067 2.188 1.449 3.068 1.849-2.612 1.843 1.992.479 2.391 1.806 1.784 3.908 3.388 4.979 5.781.244 2.386 4.826.206 3.41-.365-1.187.655-1.272.29-.559-.582-1.538.417-1.462.435-1.17-.725-.901-1.241-.932-2.345-.855-3.646 1.553.253 2.188-3.143 3.57-.885 1.094-1.26 2.821-.817 2.803-2.719.555.28 3.794 1.103 2.707-1.184.135-1.226 1.466 2.143 2.072-.244 1.7-1.325 1.733-4.377-.928-3.197-3.103-.512-.738-2.991-.01-4.498 1.74-.279 1.63-1.699.066-1.592-1.112-1.188-.603-3.234.648-3.855-.751-1.258-1.849-1.625-3.061-1.613zm13.641.357c-2.092.676-5.842-.427-5.197 3.332-.312 2.461-1.214.669-2.086-.033-.974-.785-2.362-1.356-3.266.443.5.622 1.787-.918 2.213.926 1.822-.34.908 2.446 3.141 1.678.656 2.119.79 4.585.502 6.191-2.353-1.848-1.01 3.379-3.725 3.078-1.637-.297-4.464.704-2.379 2.301-.924 1.068 1.234 1.55.201 2.391 1.316.97-1.119 1.397-1.764.871-1.678.873.061 4.368-2 1.826.063 1.617 3.079 3.367 3.75 4.143.995-1.147 3.337.221 3.273-2.33 1-3.665 4.12 1.384 5.213-2.234.432-3.459-4.97.322-5.02-3.602.872-2.047 3.038-2.88 4.523-1.547.913-1.912 2.042 1.962 2.645-.145-2.02-1.315 2.79-.419.965-2.498-.634-1.219 2.63-1.686.238-2.199 1.852-1.243.89-1.306-.223-2.234 1.053-.366 5.244-1.492 2.883.076-1.543 3.321 3.159 8.89 5.461 7.818 3.413-1.25.905 3.607 3.379 3.572 1.028-.489 1.662 1.01 2.512.676.01-.279.021-.557.021-.838 0-.188-.009-.374-.014-.561-1.132-.854-1.391-4.051-1.191-5.838.005-.24.061-.406.143-.527-1.01-3.201-2.699-6.099-4.9-8.525-.194-.01-.418-.073-.699-.24-.462-.459-.749-.94-.975-1.422-2.201-1.977-4.785-3.534-7.627-4.549zm-8.373 7.463c-1.252-.006-2.52.445-1.023 1.033.728-.03 1.263 1.503 1.951.67 1.561-1.236.325-1.698-.928-1.703zm-20.922 6.178c-.832 2.235-1.325 4.635-1.42 7.137-.004.492-.004.984-.008 1.477.18 7.124 3.597 13.439 8.838 17.535.379-.858 1.185-1.432 1.699-.631-.101-1.321.046-2.089 1.527-.967 1.02.119 3.732 1.09 2.594 1.787-.965-1.565-2.546-.538-.848.643-.224.483-.774 1.01-1.154 1.59 1.87.942 3.885 1.636 6 2.039.201-.768 2.75-.608.693-1.402-2.475-.278-3.994-3.043-1.426-4.182-1.615-2.289 2.37-4.856 1.818-1.084-.216 2.64 3.136 3.975 5.05 5.188 1.178-.053 2.31-2.132 3-.66 2.01.039-.752-1.948 1.516-1.973 2.227-.473.569-3.593-.852-3.475-1.252-1.944 1-6.689-2.652-4.932-.561-1.458-.469-2.518-2.281-2.631-1.091-1.039-3.781-3.395-2.529-.182.493 1.707 3.813 4 1.959 5.238-1.024-1.741-3.778-2.5-4.719-3.48-.291 2.179-1.712-1.475.104-1.291.303-1.832-1.727-3.086-2.146-1.018-.877-.124-4.32-1.21-1.771.436 2.329 1.901-4.642-.024-1.506-.773.884-2.366-5.313-2.02-3.875.953-.421 1.353-2.438-1.694-3.848-1 .181-1.352 1.343-3.572.303-4.199-1.62-.345 1.816-1.151-.305-1.326-.513-2.15-2.606-2.562-4.03-1.307-1.844-1.426.881-4.695.406-6.83-.113-.334-.151-.548-.143-.68zm13.518 18.06c.391.01.719.444.766 1.598.043.514.087 2.02-.787 1.766-2.616-.179-1.06-3.391.021-3.363zm3.205 8.182c-.055.013.067.231.477.908-2.041 2.054 4.893 1.318 2.344 3.605-.023.051-.034.115-.053.172.43.038.863.064 1.299.078-.087-.469.312-1.275 1.025-1.707-.924-1.057-2.436-2.484-3.59-2.623-.641.268-1.396-.458-1.502-.434zm5.904 4.488c-.176.128-.31.192-.459.279.202-.005.405-.005.605-.016-.052-.09-.072-.157-.146-.264z" fill="url(#d)" opacity=".361"/><circle cx="24" cy="24" fill="none" opacity=".99" r="23" stroke="url(#c)"/></svg>