<svg height="48" width="48" xmlns="http://www.w3.org/2000/svg" xmlns:xlink="http://www.w3.org/1999/xlink"><linearGradient id="a" gradientUnits="userSpaceOnUse" x1="399.57144" x2="399.57144" y1="545.79797" y2="517.79797"><stop offset="0" stop-color="#3889e9"/><stop offset="1" stop-color="#5ea5fb"/></linearGradient><linearGradient id="b" gradientUnits="userSpaceOnUse" x1="-318.57867" x2="-318.57867" y1="653.95679" y2="301.29816"><stop offset="0" stop-color="#00a661"/><stop offset="1" stop-color="#37ce97"/></linearGradient><circle cx="400.57138" cy="531.79791" fill="url(#a)" r="0" transform="matrix(1.63746654 0 0 1.63746654 -644.580187 -848.719334)"/><circle cx="-325.88733" cy="478.74667" fill="url(#b)" r="173.44701" transform="matrix(.13837079 0 0 .13837079 69.091287 -42.084556)"/><g fill="#fff" fill-opacity=".850806" transform="matrix(.03283533 0 0 .03283533 8.696271 8.696275)"><path d="m466.075 161.525c-205.6 0-382.8 121.2-464.2 296.1-2.5 5.3-2.5 11.5 0 16.9 81.4 174.899 258.601 296.1 464.2 296.1s382.8-121.2 464.2-296.1c2.5-5.3 2.5-11.5 0-16.9-81.4-174.9-258.6-296.1-464.2-296.1zm0 514.701c-116.1 0-210.1-94.101-210.1-210.101 0-116.1 94.1-210.1 210.1-210.1 116.1 0 210.1 94.1 210.1 210.1s-94.1 210.101-210.1 210.101z"/><circle cx="466.07501" cy="466.02499" r="134.5"/></g></svg>