<svg height="48" width="48" xmlns="http://www.w3.org/2000/svg" xmlns:xlink="http://www.w3.org/1999/xlink">
  <linearGradient id="a" gradientUnits="userSpaceOnUse" x1="4.819659" x2="30.33243" y1="41.261051" y2="15.457908">
    <stop offset="0" stop-color="#f95" />
    <stop offset="1" stop-color="#ffb380" />
  </linearGradient>
  <linearGradient id="b" gradientUnits="userSpaceOnUse" x1="11.660663" x2="10.415977" y1="56.928329" y2="32.880904">
    <stop offset="0" stop-color="#cdd0d1" />
    <stop offset="1" stop-color="#f6f6f7" />
  </linearGradient>
  <filter id="c" color-interpolation-filters="sRGB">
    <feColorMatrix values="0.21 0.72 0.072 0 0 0.21 0.72 0.072 0 0 0.21 0.72 0.072 0 0 0 0 0 1 0" />
  </filter>
  <rect fill="#8159f7" height="26.022079" ry="1.075411" stroke-width=".69661" transform="matrix(.99985212 -.01719697 .01719697 .99985212 0 0)" width="34.579483" x="5.924501" y="7.626444" />
  <rect fill="url(#a)" height="26.02191" ry="1.075411" stroke-width=".69661" transform="matrix(.9859804 -.16686118 .16686118 .9859804 0 0)" width="34.579613" x="-.77638" y="15.590375" />
  <circle cx="11.184063" cy="45.12323" fill="url(#b)" filter="url(#c)" r="12.348694" transform="matrix(.54342848 -.00748958 .00748958 .54342848 31.420565 8.451674)" />
  <path d="m26.871613 20.679316c.03837-.109065.0655-.219928.0655-.337741 0-1.445047-3.031434-2.22456-5.884382-2.22456-2.850123 0-5.880745.779513-5.880745 2.22456 0 .118653.02661.229634.06539.338699l-.01518.02876c-.130403.243539-.19487.489474-.19487.731574v1.787941c0 .275298.08408.539571.233196.78946l-.01948.03476c-.142178.253965-.213597.511166-.213597.76549v1.787462c0 .26655.07937.522432.220369.76537l-.0071.01558c-.142178.253485-.213597.511166-.213597.764891v1.787821c0 1.589108 2.646783 2.833404 6.025432 2.833404 3.382293 0 6.029067-1.244296 6.029067-2.833404v-1.787821c0-.254085-.07152-.512245-.215366-.765371l-.006-.01558c.139924-.243418.221261-.499061.221261-.766209v-1.787702c0-.254324-.07152-.512604-.215364-.766089l-.01869-.03356c.148971-.25013.23401-.514042.23401-.7903v-1.787821c0-.24198-.0655-.488514-.194872-.732292l-.01536-.02876zm-.435653 9.253837c0 1.026526-2.209352 2.168828-5.383132 2.168828-3.170787 0-5.38054-1.142302-5.38054-2.168828v-1.681394c.989529.933402 3.025307 1.529063 5.38054 1.529063 2.358469 0 4.394166-.595901 5.383132-1.530022zm0-3.32887c0 1.025568-2.209352 2.16859-5.383132 2.16859-3.170787 0-5.38054-1.143022-5.38054-2.16859v-1.681872c.989529.933042 3.025307 1.529062 5.38054 1.529062 2.358469 0 4.394166-.59602 5.383132-1.530022zm0-3.377169c0 1.025567-2.209352 2.168709-5.383132 2.168709-3.170787 0-5.38054-1.142542-5.38054-2.168709v-1.487834c.967017.844233 3.209279 1.28193 5.38054 1.28193 2.174163 0 4.415472-.437697 5.383132-1.28193z" fill="#fff" stroke-width="1.180912" />
  <circle cx="22.186262" cy="42.147499" fill="none" opacity=".9" r="0" stroke-width="2.139032" />
  <path d="m37.312769 29.26156c-.09134 0-.148021.04577-.170053.133903-.04085.157433-.08727.449069-.13754.877324-.148021.04727-.29016.106738-.428726.179037l-.653025-.504683c-.04086-.03144-.08214-.04706-.122994-.04706-.0693 0-.216705.113155-.445004.338267-.228321.225176-.382973.393154-.464897.506501-.02824.04086-.04342.077-.04342.108449 0 .03786.01497.07615.04706.114011.210908.255079.380512.471678.50648.651206-.07872.144813-.140535.291144-.184599.435957l-.879142.131978c-.03465.0064-.06524.02695-.09048.0616s-.03807.07059-.03807.108449v1.047377c0 .04107.01283.07893.03807.112085.02524.03316.0584.05176.09947.05797l.864682.128342c.04406.154224.108663.309325.193583.466715-.05668.07872-.141604.189518-.255058.332833-.113369.143315-.193583.248599-.240577.314759-.02524.03465-.03808.07059-.03808.108449 0 .04086.0107.07679.03251.108449.122781.170053.382887.435186.779656.794115.03465.03465.07358.05241.117647.05241.04727 0 .08791-.01711.119358-.04342l.665687-.504683c.129198.0661.270823.123422.42509.173689l.131979.870094c.0021.04086.02139.07465.05433.10139.03294.02695.07166.03979.115721.03979h1.049174c.09134 0 .148021-.04385.170053-.131978.04086-.157433.08513-.450886.135615-.879142.148021-.04727.292021-.106738.430523-.179037l.651228.510116c.04406.02824.08535.04342.122994.04342.0693 0 .218331-.112727.445005-.33647.226801-.22355.381753-.393582.466694-.510116.02845-.03144.04342-.06738.04342-.108449 0-.04086-.01711-.08-.04877-.117647-.226674-.277133-.394438-.493753-.504705-.651207.06289-.116577.12492-.26047.184599-.430523l.873708-.131978c.03765-.0064.06888-.02674.09412-.0616.02524-.03465.03807-.07059.03807-.108449v-1.049174c.000065-.04086-.01283-.07722-.03807-.110374-.02524-.03316-.0584-.05347-.09947-.05968l-.86286-.131978c-.04727-.151229-.111657-.305625-.193582-.463079.05668-.07872.139893-.189518.253261-.332855.113369-.143315.19508-.24678.242396-.31294.02524-.03465.03615-.07059.03615-.108449 0-.04406-.01069-.07979-.03251-.105026-.113369-.160642-.373411-.428427-.779656-.803164-.03765-.03144-.07679-.04706-.117647-.04706-.04727 0-.08577.01497-.11401.04171l-.669303.506502c-.129198-.0661-.270823-.125134-.42509-.175401l-.13198-.868281c-.0021-.04086-.02139-.07465-.05433-.10139-.03316-.02674-.07166-.04171-.115722-.04171zm.520982 2.702538a.92617142.92617142 0 0 1 .929795.922543v.0043a.92617142.92617142 0 0 1 -.92618.926179.92617142.92617142 0 0 1 -.926179-.924361.92617142.92617142 0 0 1 .922564-.927976z" fill="#818181" opacity=".9" stroke-width=".057974" />
</svg>
