<svg height="48" width="48" xmlns="http://www.w3.org/2000/svg" xmlns:xlink="http://www.w3.org/1999/xlink"><linearGradient id="a" gradientUnits="userSpaceOnUse" x1="468.212956005111" x2="468.859868535616" y1="138.863792995064" y2="-53.559279943905"><stop offset="0" stop-color="#0c8cdb"/><stop offset="1" stop-color="#0977da"/></linearGradient><linearGradient id="b" gradientUnits="userSpaceOnUse" x1="468.80545" x2="469.16412" y1="121.34766" y2="38.70599"><stop offset="0" stop-color="#097ada"/><stop offset="1" stop-color="#0a99f7"/></linearGradient><linearGradient id="c" gradientUnits="userSpaceOnUse" x1="469.047127" x2="469.393927" y1="76.872622" y2="-3.038027"><stop offset="0" stop-color="#fefffe"/><stop offset="1" stop-color="#f1f1f0"/></linearGradient><g transform="matrix(.242302515702 -.001051646929 .001051646929 .242302515702 -89.640351335907 14.751248471544)"><rect fill="url(#a)" height="183.90648" ry="11.3587" transform="matrix(.99999058 .00434018 -.00434018 .99999058 0 0)" width="184.12398" x="376.79791" y="-53.55928"/><path d="m377.99004 39.711723 183.00252.794269 4.69943 70.610628s2.18806 11.54391-10.98127 11.52293l-170.4585-.26137c-14.5271.19388-12.26442-12.18913-12.26442-12.18913z" fill="#075fad" fill-rule="evenodd"/><path d="m376.75658 38.304923 184.24209.799648 4.69943 70.610639s2.18806 11.54391-10.98127 11.52293l-170.45851-.26137c-14.5271.19388-12.26442-12.18913-12.26442-12.18913z" fill="url(#b)" fill-rule="evenodd"/><g fill="url(#c)"><path d="m463.01357 75.106071h-48.5251v-10.239242q21.81403-21.925334 27.93532-28.603101 5.45351-6.121286 7.34554-9.237577 1.89204-3.227587 1.89204-7.902024 0-4.785733-3.78407-8.458504-3.78407-3.6727721-10.12795-3.6727721-5.78739 0-9.34887 3.4501791-3.56148 3.338884-4.56314 7.234248l-9.34887-3.784068q1.89203-6.0099902 7.90202-11.3522036 6.00999-5.3422134 15.58146-5.3422134 10.57313 0 17.36219 6.4551745 6.78906 6.4551745 6.78906 15.4701595 0 11.129611-12.13127 23.817368l-22.25923 22.370519h35.28087z" fill="url(#c)"/><path d="m496.79542 76.886809q-7.67943 0-14.91368-4.785733-7.23425-4.785732-10.01665-14.245902l9.34887-3.895364q1.78074 6.232582 5.8987 9.682762 4.11795 3.450179 9.68276 3.450179 6.23258 0 10.68442-3.895364 4.56315-3.895363 4.56315-9.682761 0-5.676102-4.67444-9.571466-4.56314-3.895364-11.01832-3.895364h-6.56647v-9.571465h5.7874q6.00999 0 9.90535-3.338884 4.00666-3.338883 4.00666-8.903689 0-5.230917-3.89536-8.2359121-3.78407-3.004995-9.46017-3.004995-9.79406 0-13.24424 9.9053541l-9.46017-4.00666q2.22593-6.1212863 7.90203-10.9070192 5.6761-4.7857328 14.80238-4.7857328 10.23924 0 17.02831 6.0099901 6.78906 5.8986939 6.78906 15.0249749 0 11.018315-10.23924 16.360529v.445184q5.5648 2.337218 9.12628 7.122951 3.67277 4.785733 3.67277 11.352204 0 10.127946-7.45684 16.805713-7.45684 6.56647-18.25256 6.56647z" fill="url(#c)"/></g><g fill="#fff" transform="matrix(.99999058 .00434018 -.00434018 .99999058 0 0)"><path d="m452.68377 95.697441h-1.43701v-9.511593h-.0599l-3.93465 9.426057h-1.30015l-3.93465-9.426057h-.0599v9.511593h-1.437v-12.342831h1.7877l4.25969 10.298523h.0684l4.25969-10.298523h1.7877v12.342831z"/><path d="m458.7055 95.782977q-.97511 0-1.76204-.33359-.77838-.33359-1.33436-.940895-.55599-.615859-.85536-1.479771-.29938-.872466-.29938-1.941665 0-1.077753.29938-1.941665.29937-.872467.85536-1.479771.55598-.615859 1.33436-.940895.78693-.33359 1.76204-.33359.9751 0 1.75348.33359.78693.325036 1.34292.940895.55598.607304.85535 1.479771.29938.863912.29938 1.941665 0 1.069199-.29938 1.941665-.29937.863912-.85535 1.479771-.55599.607305-1.34292.940895-.77838.33359-1.75348.33359zm0-1.325807q.64151 0 1.14618-.230946.51321-.230947.86391-.658627.35925-.436233.53888-1.060645.18817-.624412.18817-1.419896 0-.795484-.18817-1.419896-.17963-.624412-.53888-1.060646-.3507-.436233-.86391-.658626-.50467-.230947-1.14618-.230947-.64152 0-1.15474.230947-.50466.230947-.86391.66718-.3507.42768-.53888 1.052092-.17962.624412-.17962 1.419896 0 .795484.18818 1.419896.18817.624412.53887 1.060645.3507.42768.85536.658627.51322.230946 1.15474.230946z"/><path d="m464.52194 86.47667h1.40279v1.496879h.0342q.88102-1.582414 3.01086-1.582414.76127 0 1.36858.2395.6073.230947 1.03498.675734.42768.436233.65008 1.069199.23094.624412.23094 1.411342v5.910531h-1.48832v-5.653923q0-1.137628-.57309-1.727826-.57309-.598751-1.66795-.598751-.56454 0-1.03499.188179-.46189.188179-.79548.530323-.32504.342143-.50466.829698-.17963.487555-.17963 1.077752v5.354548h-1.48832v-9.220771z"/><path d="m477.73723 95.782977q-.87246 0-1.59952-.33359-.7185-.342144-1.24882-.958002-.52177-.615859-.81259-1.479771-.29082-.872467-.29082-1.924558 0-1.052092.29082-1.916005.29082-.872466.80404-1.488324.52176-.615859 1.24027-.949449.7185-.342143 1.58241-.342143.99222 0 1.75349.410572.76127.410572 1.18895 1.171842h.0342v-5.157815h1.48832v12.881707h-1.41989v-1.556753h-.0257q-.45334.804037-1.21461 1.223163-.76127.419126-1.7706.419126zm.26517-8.066036q-.60731 0-1.10342.239501-.49611.2395-.85536.684287-.35069.436233-.54743 1.060645-.18818.624412-.18818 1.385682 0 .769823.18818 1.394235.19674.615859.54743 1.060645.35925.436233.85536.675734.49611.2395 1.10342.2395.59875 0 1.09486-.2395.4961-.248054.8468-.692841.3507-.444787.54743-1.060645.19673-.624412.19673-1.377128 0-.752716-.19673-1.368575-.19673-.624412-.54743-1.069199-.3507-.444786-.8468-.684287-.49611-.248054-1.09486-.248054z"/><path d="m487.27449 94.491385q.56453 0 1.04353-.171072.47901-.171072.82115-.479001.3507-.307929.54743-.727055.19673-.42768.19673-.923788v-.744162l-2.41211.153964q-1.04354.06843-1.57386.444787-.53032.367804-.53032 1.034984 0 .325037.1283.581645.13686.256607.38491.444786.25661.188179.60731.290822.35069.09409.78693.09409zm-.31649 1.291592q-.70139 0-1.27448-.188179-.57309-.196733-.98366-.54743-.41058-.359251-.63297-.855359-.22239-.504662-.22239-1.12052 0-1.197503.88102-1.873237.88102-.675733 2.57463-.778376l2.58318-.153965v-.769823q0-.863913-.54743-1.317253-.53887-.461894-1.5653-.461894-.40202 0-.74417.102643-.34214.09409-.61586.282269-.26516.179625-.44478.444786-.17107.265162-.2395.590198h-1.42845q.0171-.581644.29082-1.086306.27371-.504662.74416-.872466.47045-.367805 1.09486-.573091.63297-.213839 1.36002-.213839.82115 0 1.47977.213839.65863.205286 1.12908.598752.47044.384911.7185.940895.25661.547429.25661 1.223163v6.329657h-1.41135v-1.599521h-.0342q-.19673.384911-.50466.701394-.30793.307929-.69284.530323-.38491.213839-.83825.33359-.44479.11975-.93235.11975z"/><path d="m494.15157 99.041895q-.14541 0-.33359-.01711-.17962-.01711-.31648-.04277v-1.257378q.1283.02566.29082.03421.17108.01711.31649.01711.31648 0 .56453-.08554.25661-.07698.4619-.256608.20528-.179625.35925-.470447.16252-.290823.30793-.709949l.17962-.547429-3.41288-9.229325h1.58241l2.58319 7.706786h.0342l2.58319-7.706786h1.5653l-3.60961 9.785308q-.29938.804038-.59875 1.33436-.29938.538876-.66718.855359-.35925.325037-.82115.453341-.45334.136857-1.0692.136857z"/></g></g></svg>