<svg height="48" width="48" xmlns="http://www.w3.org/2000/svg" xmlns:xlink="http://www.w3.org/1999/xlink"><linearGradient gradientUnits="userSpaceOnUse" x1="0" x2="47" y1="23.5" y2="23.5"><stop offset="0" stop-color="#a9a3d4"/><stop offset=".47001833" stop-color="#87baff"/><stop offset="1" stop-color="#89ec85"/></linearGradient><linearGradient id="a" gradientUnits="userSpaceOnUse" x1="399.9939" x2="399.9939" y1="545.13873" y2="518.13873"><stop offset="0" stop-color="#ac5dd3"/><stop offset="1" stop-color="#c972eb"/></linearGradient><g fill="#fff" fill-opacity=".85" stroke-width="1.317422" transform="matrix(.169651546542 0 0 .169651546542 16.026355124694 12.463727281692)"><circle cx="400.57138" cy="531.79791" fill="url(#a)" fill-opacity="1" r="13.999958" transform="matrix(9.6837221 0 0 9.6837221 -3832.0218 -5081.7835)"/><path d="m47 94.07c7.17 0 13.307-2.553 18.412-7.657s7.658-11.243 7.658-18.413v-41.714c0-7.17-2.551-13.307-7.658-18.413-5.105-5.105-11.242-7.659-18.412-7.659s-13.307 2.554-18.413 7.659-7.659 11.243-7.659 18.413v41.714c0 7.17 2.554 13.309 7.659 18.413s11.243 7.657 18.413 7.657z" fill="#fff" fill-opacity=".85"/><path d="m92.38 53.905c-1.03-1.032-2.254-1.548-3.666-1.548s-2.634.516-3.666 1.548-1.548 2.254-1.548 3.666v10.429c0 10.049-3.572 18.643-10.714 25.786-7.141 7.143-15.737 10.714-25.786 10.714s-18.644-3.571-25.787-10.714c-7.142-7.141-10.713-15.737-10.713-25.786v-10.429c0-1.412-.516-2.634-1.548-3.666s-2.253-1.548-3.666-1.548-2.635.516-3.667 1.548-1.548 2.254-1.548 3.666v10.429c0 12.004 4.006 22.446 12.017 31.326s17.91 13.972 29.697 15.275v10.756h-20.857c-1.412 0-2.634.516-3.666 1.548s-1.548 2.254-1.548 3.666c0 1.411.516 2.635 1.548 3.666 1.032 1.032 2.254 1.549 3.666 1.549h52.142c1.412 0 2.636-.517 3.666-1.549 1.033-1.031 1.55-2.255 1.55-3.666 0-1.412-.517-2.634-1.55-3.666-1.03-1.032-2.254-1.548-3.666-1.548h-20.855v-10.756c11.785-1.303 21.684-6.395 29.696-15.275s12.019-19.322 12.019-31.326v-10.429c0-1.412-.517-2.633-1.55-3.666z" fill="#fff" fill-opacity=".85"/></g></svg>