<svg height="48" width="48" xmlns="http://www.w3.org/2000/svg" xmlns:xlink="http://www.w3.org/1999/xlink">
  <linearGradient id="a" gradientTransform="matrix(.35549809 0 0 .35079564 601.39047 565.54586)" gradientUnits="userSpaceOnUse" x1="-988.59155" x2="-1086.1893" y1="116.49829" y2="208.20566">
    <stop offset="0" stop-color="#a05a2c" />
    <stop offset="1" stop-color="#784421" />
  </linearGradient>
  <linearGradient id="b" gradientTransform="matrix(.35600995 0 0 .3512235 689.45922 439.09838)" gradientUnits="userSpaceOnUse" x1="-989.66583" x2="-1003.6364" y1="433.28394" y2="317.35452">
    <stop offset="0" stop-color="#e7f0f4" />
    <stop offset="1" stop-color="#f4faff" />
  </linearGradient>
  <g transform="translate(-384.57143 -499.798)">
    <text x="300.29187" y="516.21832">
      <tspan x="300.29187" y="516.21832" />
    </text>
    <text x="299.96585" y="516.16595">
      <tspan x="299.96585" y="516.16595" />
    </text>
    <rect fill="url(#a)" height="40.214249" ry=".981484" transform="matrix(.94911544 -.31492838 .30720731 .95164262 0 0)" width="31.911476" x="210.14258" y="605.02637" />
    <rect fill="url(#b)" height="43.171936" ry="1.053671" transform="matrix(.99210439 -.12541482 .1378126 .99045832 0 0)" width="35.538715" x="317.17978" y="550.19043" />
    <path d="m394.49568 533.88842 35.19686-4.8973" fill="none" stroke="#c8c8c8" />
    <path d="m392.51246 519.63508 35.19687-4.8973" fill="none" stroke="#c8c8c8" />
    <g stroke-width=".225" transform="matrix(.99144486 -.13052619 .13052619 .99144486 1.112338 39.925005)">
      <path d="m328.22404 552.0615c-.2619-.2619.0241-.90203.40455-.9054.13387-.001.43582-.65408 1.01137-2.18723l.82058-2.18542-.48398-.0702c-.5859-.0848-.75982-.23895-.70537-.62393.0405-.2871.0623-.2916 1.45125-.2916h1.4103l1.05412 2.62395c.85253 2.12175 1.1133 2.65298 1.36238 2.77605.22545.11138.30802.25065.30802.51818v.36607l-1.2303.0356c-1.0503.0304-1.25302.005-1.38622-.17752-.0857-.11723-.15593-.25403-.15593-.30398 0-.19732.40343-.47812.68648-.47812.35145 0 .35235-.005.12082-.55845l-.17865-.42728h-1.2186c-1.18642 0-1.22265.008-1.3617.31365-.22095.48488-.1773.67208.15615.67208.52808 0 .86018.51637.53865.8379-.1575.1575-2.45407.21555-2.60392.0657zm4.10737-2.91555c0-.0693-.63562-1.61123-.7623-1.84928-.0662-.12442-.1404-.2061-.16492-.1818-.0245.0245-.21263.50063-.41805 1.05795l-.37373 1.0134h.8595c.47273 0 .8595-.0182.8595-.0403zm-1.59705-4.509c-.70897-.25763-1.3428-.5535-1.40872-.6579-.13433-.2133.19552-.83048.44392-.83048.10665 0 2.56568 1.3608 2.78033 1.53855.0184.0153-.001.11903-.0441.2304-.10845.28305-.30713.25155-1.77143-.28057z" fill="#f22c42" />
      <path d="m333.32074 537.24612c-1.12365-.3042-2.04278-1.64835-2.04278-2.98755 0-.3447-.0367-.37057-.52582-.37057h-.52583v1.25212c0 1.22378.008 1.25505.33773 1.3806.24772.0943.32647.207.29565.4239-.0403.28395-.0936.29565-1.35653.29565-1.25707 0-1.31647-.0128-1.35607-.29115-.0313-.22005.0414-.31185.29835-.37642l.33952-.0853-.0353-2.91015c-.0353-2.90565-.0358-2.91015-.33098-2.95222-.2142-.0304-.29587-.13028-.29587-.36135 0-.31815.006-.31973 1.38037-.31973h1.38038v.32873c0 .24007-.0702.32872-.26033.32872-.33502 0-.42097.351-.3708 1.51448l.0396.91755.49298.0407c.40927.034.49297-.0009.49297-.2061 0-.1359.0952-.5679.21173-.96007.3681-1.23953 1.4886-2.09385 2.74612-2.09385 1.15358 0 2.07765.62392 2.57648 1.73947.26055.58253.30937.90788.3105 2.07135.001 1.15853-.0466 1.48523-.29745 2.03288-.36608.79897-.61358 1.08225-1.20915 1.38195-.6606.33255-1.53788.41152-2.29545.20632zm1.59795-.79447c.51615-.36135.76342-1.3005.76162-2.89238-.002-2.15977-.40792-2.95785-1.50322-2.95785-.97088 0-1.4436.95153-1.4499 2.91848-.004 1.40737.21217 2.31277.6606 2.7612.4194.41917 1.07212.49207 1.5309.17055z" fill="#2b898f" />
      <path d="m329.88004 523.45857c-.0477-.0477-.0866-.69322-.0866-1.4346v-1.34797l-.70402.75285c-.55148.5895-.73868.71887-.86378.59692-.12555-.12285-.0614-.34335.30173-1.03882.35865-.68648 1.00642-2.42978 1.00642-2.7081 0-.0245-.30645-.0621-.68062-.0837-.52605-.0304-.6903-.0909-.72383-.26663-.0376-.19777.0675-.22725.81045-.22725h.85365v-1.29352l-.61695.0833c-.91575.12397-.97335.12082-1.03567-.0558-.0333-.0947.17707-.26393.50557-.40658 1.09598-.47542 1.9971-.91215 2.47028-1.19745l.47925-.2889.59287.44325c.39713.297.5751.51795.53933.66983-.0799.34132.94095.74722 1.87942.74722.6291 0 .7884-.0472.95378-.2835.17505-.24975.23512-.26392.50535-.11947.16875.0902.477.30532.68535.4779.35257.29205.36315.3258.15142.49072-.2043.1593-.22725.468-.22725 3.04785 0 2.70518-.0146 2.8782-.25132 3.00488-.13815.074-.4266.13455-.64103.13455-.34492 0-.39465-.0486-.43065-.4221-.0398-.41355-.0533-.4221-.68175-.4221-.6111 0-.64597.0194-.7479.41242-.0815.315-.2133.44753-.55755.56115-.24795.0819-.5103.11205-.5832.067-.0747-.0463-.1323-.61222-.1323-1.29982v-1.2177l-.4581.0743c-.43897.0713-.46687.052-.66757-.459-.1152-.2934-.25988-.50243-.32108-.4644-.0614.038-.1116.7938-.1116 1.68007 0 1.4598-.0236 1.6236-.25132 1.74533-.28328.15165-.8298.17887-.96075.0479zm5.46772-4.10152.0353-2.43495h-1.43415v2.38095c0 1.30927.0416 2.42235.0927 2.4732.0509.0508.35752.0754.68175.0542l.58905-.0385zm-2.6973-.4221v-.71415h-.77917c-.7443 0-.77918.0146-.77918.324 0 .25672.12128.38115.5859.5994.32243.15165.61808.32715.657.39037.1845.29835.31545.0495.31545-.59962zm-1.11172-1.6515c.19575-.27945.21285-.28148.57937-.0648.20768.12262.41243.22297.45495.22297.0425 0 .0774-.3438.0774-.76387 0-.69413-.0274-.76928-.29857-.82125-.16425-.0313-.50018.0104-.74678.0934-.43312.14513-.44955.17505-.48712.88605-.0416.7866.0873.92385.42075.44753z" fill="#8c59d9" />
    </g>
  </g>
</svg>
