<svg height="48" width="48" xmlns="http://www.w3.org/2000/svg" xmlns:xlink="http://www.w3.org/1999/xlink">
  <linearGradient id="a" gradientUnits="userSpaceOnUse" x1="24" x2="24" y1="1.000011" y2="46.999989">
    <stop offset="0" stop-color="#fafafa" />
    <stop offset="1" stop-color="#dcdcdc" />
  </linearGradient>
  <linearGradient id="b" gradientUnits="userSpaceOnUse" x1="23.99998857143" x2="23.99998857143" y1="46.99996863939" y2=".9999911394">
    <stop offset="0" stop-color="#c52828" />
    <stop offset="1" stop-color="#ff5454" />
  </linearGradient>
  <g stroke-width="1.15">
    <rect fill="url(#b)" height="45.999977" ry="22.999989" width="46" x="1" y="1.000011" />
    <path d="m24 1c-1.018023 0-2.017654.0722252-3 .1992188v5.0683593c.977231-.1630007 1.975094-.2675781 3-.2675781s2.022769.1045774 3 .2675781v-5.0683593c-.982346-.1269936-1.981977-.1992188-3-.1992188zm-14.0136719 4.7441406c-1.5931803 1.2227736-3.0194139 2.6490072-4.2421875 4.2421875l3.5839844 3.5839839c1.167009-1.642182 2.600006-3.075178 4.242187-4.242187zm28.0273439 0-3.583984 3.5839844c1.642181 1.167009 3.075178 2.600006 4.242187 4.242187l3.583984-3.5839839c-1.222773-1.5931803-2.649007-3.0194139-4.242187-4.2421875zm-14.013672 2.2558594c-8.863996 0-16 7.136004-16 16s7.136004 16 16 16 16-7.136004 16-16-7.136004-16-16-16zm0 1c8.309996 0 15 6.690004 15 15s-6.690004 15-15 15-15-6.690004-15-15 6.690004-15 15-15zm-10.71875 9.3125v2.515625h1.320312l.109376-1.304687h2.53125v8.960937l-1.273438.21875v.984375h4.085938v-.984375l-1.273438-.21875v-8.960937h2.523438l.117187 1.304687h1.3125v-2.515625zm10.296875 0v.992188l1.273437.21875v8.960937l-1.273437.21875v.984375h4.085937v-.984375l-1.273437-.21875v-3.820313h5.515625v3.820313l-1.273438.21875v.984375h4.085938v-.984375l-1.273438-.21875v-8.960937l1.273438-.21875v-.992188h-1.273438-1.539062-1.273438v.992188l1.273438.21875v3.929687h-5.515625v-3.929687l1.273437-.21875v-.992188zm-22.3789062 2.6875c-.1269936.982346-.1992188 1.981977-.1992188 3s.0722252 2.017654.1992188 3h5.0683593c-.1630007-.977231-.2675781-1.975094-.2675781-3s.1045774-2.022769.2675781-3zm40.5332032 0c.163001.977231.267578 1.975094.267578 3s-.104577 2.022769-.267578 3h5.068359c.126994-.982346.199219-1.981977.199219-3s-.072225-2.017654-.199219-3zm-32.404297 13.429688-3.5839844 3.583984c1.2227736 1.59318 2.6490072 3.019414 4.2421875 4.242187l3.5839839-3.583984c-1.642182-1.167009-3.075178-2.600006-4.242187-4.242187zm29.34375 0c-1.167009 1.642181-2.600006 3.075178-4.242187 4.242187l3.583984 3.583984c1.59318-1.222773 3.019414-2.649007 4.242187-4.242187zm-17.671875 7.302734v5.068359c.982346.126994 1.981977.199219 3 .199219s2.017654-.072225 3-.199219v-5.068359c-.977231.163001-1.975094.267578-3 .267578s-2.022769-.104577-3-.267578z" fill="url(#a)" />
  </g>
</svg>
