<svg height="48" width="48" xmlns="http://www.w3.org/2000/svg" xmlns:xlink="http://www.w3.org/1999/xlink"><linearGradient id="a"><stop offset="0" stop-color="#d22900"/><stop offset="1" stop-color="#ff6443"/></linearGradient><linearGradient id="b"><stop offset="0" stop-color="#2c2e31"/><stop offset="1" stop-color="#40464d"/></linearGradient><linearGradient id="c" gradientUnits="userSpaceOnUse" x1="-631.89373990604" x2="-633.627232581565" y1="584.394860697855" y2="463.448698019195"><stop offset="0" stop-color="#1584d8"/><stop offset="1" stop-color="#1cb2ff"/></linearGradient><linearGradient id="d" gradientTransform="matrix(0 -100 -100 0 96 146)" gradientUnits="userSpaceOnUse" spreadMethod="pad" x1="0" x2="1" y1="0" y2="0"><stop offset="0" stop-color="#fafafa"/><stop offset="1" stop-color="#e0e0e0"/></linearGradient><linearGradient id="e" gradientUnits="userSpaceOnUse" x1="-411.01224" x2="-411.40463" xlink:href="#a" y1="569.61719" y2="530.08228"/><linearGradient id="f" gradientUnits="userSpaceOnUse" x1="-391.23114" x2="-388.25281" xlink:href="#a" y1="568.70831" y2="529.75482"/><linearGradient id="g" gradientUnits="userSpaceOnUse" x1="-433.01196" x2="-435.26627" xlink:href="#a" y1="569.86591" y2="529.74963"/><linearGradient id="h" gradientUnits="userSpaceOnUse" x1="-567.92572" x2="-567.01282" y1="551.27698" y2="541.88757"><stop offset="0" stop-color="#d81d00"/><stop offset="1" stop-color="#da4831"/></linearGradient><linearGradient id="i" gradientUnits="userSpaceOnUse" x1="-377.21274" x2="-381.87454" xlink:href="#d" y1="526.34644" y2="569.36975"/><linearGradient id="j" gradientTransform="translate(-.20021)" gradientUnits="userSpaceOnUse" x1="-398.51883" x2="-401.11365" xlink:href="#d" y1="529.98279" y2="569.22699"/><linearGradient id="k" gradientUnits="userSpaceOnUse" x1="-421.42114" x2="-423.43454" y1="568.34967" y2="530.84967"><stop offset="0" stop-color="#e1e1e1"/><stop offset="1" stop-color="#f9f9f9"/></linearGradient><linearGradient id="l" gradientUnits="userSpaceOnUse" x1="-442.87866" x2="-446.66837" y1="567.62036" y2="526.63196"><stop offset="0" stop-color="#e3e3e3"/><stop offset="1" stop-color="#f8f8f8"/></linearGradient><linearGradient id="m" gradientUnits="userSpaceOnUse" x1="-412.10229" x2="-408.3233" y1="535.99384" y2="462.85916"><stop offset="0" stop-color="#e7ddd5"/><stop offset="1" stop-color="#f1e9e0"/></linearGradient><linearGradient id="n" gradientUnits="userSpaceOnUse" x1="-591.3689" x2="-580.18695" xlink:href="#b" y1="535.05603" y2="522.82245"/><linearGradient id="o" gradientUnits="userSpaceOnUse" x1="-553.4361" x2="-538.45752" xlink:href="#b" y1="535.69482" y2="525.5705"/><linearGradient id="p" gradientUnits="userSpaceOnUse" x1="-632.53171" x2="-634.27649" y1="589.779565" y2="442.424005"><stop offset="0" stop-color="#eaeaea"/><stop offset="1" stop-color="#fff"/></linearGradient><g transform="matrix(.368577473821 0 0 .368577473821 256.056391097201 -167.788290277789)"><circle cx="-630.61719" cy="522.86707" fill="url(#c)" r="62.515213"/><path d="m-449.36992 526.00777c19.21202 18.02163 60.18942 11.93771 75.35611.6202 6.62792-6.41239 4.34432-15.64854-1.66031-17.87573 17.61103-39.10589-42.72944-63.53712-55.39999-19.13701-7.44338-13.87381-35.5539-.12963-17.98576 18.006-8.69599 1.39617-11.20672 14.7292-.31005 18.38654z" fill="url(#m)" fill-rule="evenodd" transform="translate(-216.67067 16.415884)"/><path d="m-428.10584 564.9502 10.75695.40044-.61769-30.39103c-.0211-5.65172-9.85702-7.42098-11.30341-1.35827z" fill="url(#k)" fill-rule="evenodd" transform="translate(-216.67067 16.415884)"/><path d="m-396.15642 565.37411-10.12077-.0725.92738-30.62749c.0211-5.65172 9.85702-7.42098 11.30342-1.35828z" fill="url(#j)" fill-rule="evenodd" transform="translate(-216.67067 16.415884)"/><circle cx="-585.14514" cy="535.05603" fill="url(#n)" r="6.223773" transform="matrix(1.0443826 0 0 1.0443826 -36.989453 -34.259662)"/><circle cx="-547.21234" cy="535.69482" fill="url(#o)" r="6.223773" transform="matrix(1.0443826 0 0 1.0443826 -36.989453 -34.259662)"/><g fill-rule="evenodd"><path d="m-556.81221 542.83567c-1.47453 11.30987-17.85679 10.65795-18.58539-.13982-.12844-1.06233.094-.97034 1.12492-.976l16.13171-.0886c1.41368-.13111 1.43846.022 1.32876 1.20446z" fill="url(#h)" opacity=".848" transform="matrix(1.0443826 0 0 1.0443826 -36.989453 -34.259662)"/><path d="m-417.56994 565.33917 11.44159-.18466.82836-29.17359c-.0706-8.11549-12.65213-8.14302-12.689-.13145z" fill="url(#e)" transform="translate(-216.67067 16.415884)"/><path d="m-386.44769 563.18717-10.01599 1.83517 1.83553-31.93678c.15345-5.64982 10.25462-7.19911 11.60788-1.10535z" fill="url(#f)" transform="translate(-216.67067 16.415884)"/><path d="m-376.31715 558.03841-10.06991 4.70035 3.41418-31.67486c.43448-5.63504 10.27381-6.68724 11.27276-.53497z" fill="url(#i)" transform="translate(-216.67067 16.415884)"/><path d="m-438.87536 558.97843 11.36473 5.44393-1.7423-31.05131c-.15344-5.64982-10.25462-7.19911-11.60786-1.10534z" fill="url(#g)" transform="translate(-216.67067 16.415884)"/><path d="m-447.69377 557.43793 9.11633 1.45065-2.33079-27.53918c-.43447-5.63504-10.27381-6.68725-11.27276-.53498z" fill="url(#l)" transform="translate(-216.67067 16.415884)"/></g><circle cx="-629.28802" cy="520.62946" fill="none" r="62.515213" stroke="url(#p)" stroke-linecap="round" stroke-linejoin="round" stroke-width="5.2"/></g></svg>