<svg height="48" width="48" xmlns="http://www.w3.org/2000/svg" xmlns:xlink="http://www.w3.org/1999/xlink">
  <linearGradient id="a">
    <stop offset="0" stop-color="#c2765a" />
    <stop offset="1" stop-color="#fa531a" />
  </linearGradient>
  <linearGradient id="b" gradientUnits="userSpaceOnUse" x1="11.660663" x2="10.415977" y1="56.928329" y2="32.880905">
    <stop offset="0" stop-color="#cdd0d1" />
    <stop offset="1" stop-color="#f6f6f7" />
  </linearGradient>
  <filter id="c" color-interpolation-filters="sRGB">
    <feColorMatrix values="0.21 0.72 0.072 0 0 0.21 0.72 0.072 0 0 0.21 0.72 0.072 0 0 0 0 0 1 0" />
  </filter>
  <linearGradient id="d" gradientUnits="userSpaceOnUse" x1="14.428456" x2="5.505778" y1="47.467571" y2="39.642166">
    <stop offset="0" stop-color="#16a085" />
    <stop offset="1" stop-color="#2dcb72" />
  </linearGradient>
  <filter id="e" color-interpolation-filters="sRGB">
    <feColorMatrix values="0.21 0.72 0.072 0 0 0.21 0.72 0.072 0 0 0.21 0.72 0.072 0 0 0 0 0 1 0" />
  </filter>
  <linearGradient id="f" gradientTransform="matrix(1.13834 0 0 1.138339 26.125023 -.512948)" gradientUnits="userSpaceOnUse" x1="30.248758" x2="21.298958" y1="24.96496" y2="14.535133">
    <stop offset="0" stop-color="#ec7b00" />
    <stop offset="1" stop-color="#b99f83" />
  </linearGradient>
  <linearGradient id="g" gradientTransform="matrix(1.13834 0 0 1.138339 26.125023 -.512948)" gradientUnits="userSpaceOnUse" x1="34.890392" x2="18.77293" y1="37.160549" y2="9.671772">
    <stop offset="0" stop-color="#848381" />
    <stop offset="1" stop-color="#c2c2c2" />
  </linearGradient>
  <linearGradient id="h" gradientTransform="matrix(1.13834 0 0 1.138339 26.125023 -.512948)" gradientUnits="userSpaceOnUse" x1="34.754807" x2="24.917271" y1="28.54948" y2="10.87181">
    <stop offset="0" stop-color="#5a5a5a" />
    <stop offset="1" stop-color="#818181" />
  </linearGradient>
  <linearGradient id="i" gradientTransform="matrix(1.13834 0 0 1.138339 26.125023 -.512948)" gradientUnits="userSpaceOnUse" x1="9.678732" x2="40.686417" xlink:href="#a" y1="51.138325" y2="-1.323205" />
  <linearGradient id="j" gradientUnits="userSpaceOnUse" x1="76.480995" x2="71.561756" y1="31.293434" y2="7.276058">
    <stop offset="0" stop-color="#39f05f" />
    <stop offset="1" stop-color="#6de586" />
  </linearGradient>
  <linearGradient id="k" gradientUnits="userSpaceOnUse" x1=".990498" x2="33.634384" xlink:href="#a" y1="50.134968" y2="11.494108" />
  <rect fill="url(#j)" height="36.295765" ry="1.5" transform="matrix(.71659923 -.00987625 .00987625 .71659923 -26.835417 3.873742)" visibility="hidden" width="48.232185" x="47.935978" y="7.164441" />
  <rect fill="url(#k)" height="26.011988" ry="1.075001" stroke-width=".716667" transform="matrix(.9859804 -.16686119 .16686119 .9859804 0 0)" width="34.566429" x="-1.034526" y="17.116127" />
  <g transform="matrix(.729 0 0 .729 -17.781491 7.157025)">
    <path d="m48.509629 25.878434c4.330022-4.839346 9.076583-9.868325 12.048218-7.489109l-9.655802 9.580261z" fill="url(#f)" />
    <path d="m53.303189 30.440489 8.033003-8.684656c.829046-.8963-.272252 3.106666-2.23703 5.182343l-4.596368 4.855804m-5.35167-.447219 3.580859-.650091 1.595412 1.395765c-2.611101 2.855522-5.761572 4.751369-8.987808 6.819894l.301786 3.259232-3.594902-3.231067m17.54902-21.258916c-.478962-1.957816-.47395-2.965487.566622-4.141362 1.960647-2.215588 4.143724-1.406084 5.594688-.413328l-3.057646 3.592406 2.47189 2.556906c-.824261.629027-1.513305 1.479493-2.508363.726479z" fill="url(#g)" />
    <path d="m49.650023 30.330467 1.359041-1.356623 1.544893 1.391287s-1.859964.399155-2.569059.491363c-.709095.0922-.498122-.309381-.334875-.526027zm1.706484-1.773292 8.861087-9.266292c.676587-.707529 3.711402-.09971.575493 2.94054l-8.037481 7.792337zm11.448237-12.158145 3.212217-2.715841c.390212.587818.937322 1.366951.999077 2.726781l-1.135175.533373c.02069-.618578.0071-1.721387.02778-1.476686l.166119 1.957117c.02256.265795-.170767.01775-.18806-.490029l1.098524-.526725c-.01544.874561-1.287822 2.427542-2.033644 3.240264z" fill="url(#h)" />
    <path d="m63.319119 11.102494c-2.516716 0-4.624535 1.887535-4.902639 4.389105-.03717.346944-.03855.689757-.0054 1.025684-2.074775.279482-4.671343 2.337734-10.664375 8.330764-.09361.095-.173472.201007-.235425.316653-.101886.06884-.194123.151444-.275353.246441l-2.231729 2.625477c-.395129.463967-.484619 1.120681-.229918 1.674136.256078.552081.81504.911415 1.422192.911415.09775 0 .23818-.01652.333174-.03718l1.753992-.37723c-.0358.143181-.05094.291871-.04681.439185-.0041.0054-.0097.01104-.01376.01515l-6.824596 7.360147c-.06333.07021-.118401.141805-.165211.22028-.139053.06471-.268467.154199-.382739.268469l-2.143614 2.132598c-.448824.447446-.58237 1.116551-.341435 1.700297.242309.585121.808156.965106 1.441467.965106l4.484103-.0179c.300134-.0014.583745-.09913.813664-.269845.03442.0027.07022.0027.104637.0027.480488 0 .926557-.216151 1.225315-.592005.29738-.374478.404766-.856344.296002-1.323066l-.382781-1.630056c2.852645-1.612183 5.143572-3.615366 7.017341-5.250955.502518-.437809.980253-.856342 1.433206-1.234951.128039-.107391.234049-.235426.315278-.378608.04957-.03029.09638-.06608.141807-.103262 5.6158-4.682355 6.988428-8.469817 7.181175-9.082474.0537-.140429.539553-1.470975.65933-1.962478 1.181049-.208929 1.387605-.504155 2.149259-.888787.828937-.278371 1.013583-.734863 1.507552-1.148215.223034-.19963.410273-.396509.575485-.609905l.119778-.159705c.0041-.0068.0413-.05921.04543-.06471l.08399-.126662.05232-.08536.06608-.110146.06884-.128037c.0027-.0054.03305-.06471.0358-.06884.0413-.08261.07573-.154197.107392-.228541.04543-.110146.06884-.167965.08949-.225789.0041-.0097.02203-.06057.02616-.07022l.0537-.165213c.0027-.0083.02341-.07572.02616-.08674l.0413-.158325c.0014-.0054.01652-.06746.0179-.07297l.03717-.183107c.0014-.0068.01239-.06334.01239-.06884.01376-.08261.02616-.166589.0358-.250572.0083-.07986.01514-.162457.02065-.245061.0054-.118402.0068-.189994.0068-.258832-.228007-1.541074-.837558-3.005959-1.913715-3.908573-.720045-.565848-1.583274-.918298-2.497441-1.020179-.18311-.01927-.364842-.03029-.545197-.03029m-21.498093 28.384613 2.4644 2.427223-4.477221.0179h-.0014c-.162459 0-.243686-.198254-.128037-.312524l2.142236-2.132598m11.0953-8.549669.998151.999528c-.459837.384115-.944456.808156-1.455235 1.254227-1.990793 1.740221-4.470335 3.904486-7.552898 5.504277-.08123.0413-.123909.134924-.103263.223035l.5865 2.502947c.02891.12666-.07159.225787-.180357.225787-.04406 0-.08811-.01653-.12666-.0537l-2.673665-2.635115 6.823217-7.358771 3.684206-.662222m-1.88203-1.886157 1.2914 1.292774-2.485048.440563c-.01104.0027-.0234.0041-.0358.0041-.163835 0-.258829-.205136-.137675-.329046l1.367121-1.408423m-2.749389-2.748007 2.055503 2.054122-4.101365.8825c-.01515.0027-.02891.0054-.04268.0054-.155573 0-.253322-.188617-.144559-.316656l2.233103-2.625477m13.120514-4.210127c-.126661.520416-.271223.889388-.271223.889388s-1.013293 3.680073-6.761263 8.469813c-.0027-.0041-.0041-.01104-.0097-.01376l-.951341-.94308s7.663041-7.862666 7.993464-8.402355m-.571355-3.02336c.793013.791636.634685 2.021081-.831564 3.487328l-7.201834 7.31061-1.323065-1.310675zm-1.917836-1.211522c.505272 0 .925183.194124 1.295531.564471.0054.0027.0097.0054.01376.0083l-9.389493 9.472096-2.116078-2.081659c5.563483-5.563479 8.416128-7.963167 10.196277-7.963167m6.806697-.532806c.09087 0 .181733-.03442.235428-.09775.68287-.784753.176224-1.756743.155572-1.796669-.04543-.08537-.151442-.136299-.261584-.136299-.0358 0-.07159.0054-.107391.01652-.144559.04543-.214775.172096-.155573.282237.0041.0083.413027.802649-.101886 1.394655-.08675.100507-.05094.234049.07986.300133.04681.02478.101886.03718.155573.03718m.251948-3.454242c.5865.578238.916922 1.365744.923806 2.18216v.01376c0 .04957-.0014.09913-.0041.148691 0 .0097 0 .01927-.0014.02754-.0027.05645-.0068.112889-.01376.170719-.0054.05783-.01376.114269-.02478.172094-.0027.01652-.0054.03442-.0083.05094-.0083.03992-.01652.07986-.02478.118403-.0041.01927-.0083.03855-.01376.05645-.0097.03856-.01927.07572-.03029.112889-.0041.01789-.01104.03718-.01652.05645-.01104.03718-.02341.07297-.0358.111523-.0068.01652-.01239.03442-.01927.05094-.01376.03992-.03029.07986-.04681.119779-.0054.01104-.01104.02478-.01515.03855-.02203.04957-.04543.100507-.07022.148688-.0097.01927-.01927.03718-.02892.0537-.01514.03167-.03167.06058-.04819.09087-.01376.02478-.02891.04957-.04406.07435-.01239.02065-.02478.0413-.03855.06057-.0179.02892-.0358.05645-.05508.08399-.0097.01514-.02065.03029-.03167.04543-.02203.03167-.04268.06058-.06608.09087-.0054.0068-.01104.01376-.01652.02065-.115646.148689-.245062.284987-.384116.408896-.0054.0054-.01104.0097-.01652.01376-.03167.02891-.06608.05783-.100508.08399-.0054.0054-.01239.0097-.01652.01515-.106014.08261-.214774.158328-.329044.227167-.01104.0054-.02065.01239-.03029.01927-.0097.0054-.01927.0097-.02892.01514l-2.171174-2.295059 2.807211-2.588303m-2.655738-1.391902c.129415 0 .260206.0083.393753.0234.666351.07297 1.28314.327669 1.798048.732434l-3.349655 3.088069c-.03993.0358-.06333.08674-.06471.140429-.0027.0537.0179.106014.0537.14456l2.555266 2.7012c-.428172.183108-.897648.283611-1.38502.283611-.129416 0-.260208-.0083-.392376-.02203-1.948116-.217529-3.357915-1.978402-3.141764-3.926514.201006-1.81732 1.747106-3.165168 3.532763-3.165168" fill="#fff" fill-rule="evenodd" />
    <path d="m63.318562 11.102494c-2.516717 0-4.624535 1.887535-4.902639 4.389105-.03718.346944-.03856.689757-.0054 1.025684-4.996646 1.62695-8.964782 6.768925-13.406884 11.519335-.39513.463967-.484618 1.120681-.229918 1.674136.256077.552081.815042.911415 1.422193.911415.09775 0 .23818-.01652.333176-.03718l1.75399-.37723c-.0358.143181-.05094.291871-.04681.439185-.0041.0054-.0097.01104-.01376.01515l-6.824595 7.360147c-.06333.07021-.118401.141805-.165212.22028-.139051.06471-.268467.154199-.382739.268469l-2.143612 2.132598c-.448825.447446-.58237 1.116551-.341436 1.700297.242309.585121.808157.965106 1.441466.965106l4.484104-.0179c.300134-.0014.583746-.09913.813665-.269845.03442.0027.07022.0027.104635.0027.480491 0 .926559-.21615 1.225317-.592005.29738-.374478.404766-.856344.296002-1.323066l-.382782-1.630056c2.852645-1.612183 5.143573-3.615366 7.017342-5.250955.502517-.437809.980251-.856342 1.433206-1.234951 2.772143-2.79394 6.332917-5.616456 7.63826-9.564338.328662-1.593307.201759-1.90047.181469-2.528126.521386.110863 0 0 .702408.06923 1.87053-.07432 3.175834-1.191001 4.007749-2.150495l.119776-.159705c.0041-.0068.0413-.05921.04543-.06471l.08399-.126662.05232-.08536.06608-.110146.06884-.128038c.0027-.0054.03305-.06471.0358-.06884.0413-.08261.07573-.154197.107391-.228541.04543-.110146.06884-.167965.08949-.225789.0041-.0097.02203-.06057.02616-.07022l.0537-.165212c.0027-.0083.0234-.07572.02616-.08674l.0413-.158325c.0014-.0054.01652-.06746.0179-.07297l.03717-.183107c.0014-.0068.01239-.06334.01239-.06884.01376-.08261.02616-.166589.0358-.250571.0083-.07986.01514-.162458.02065-.245062.0054-.118402.0068-.189994.0068-.258832-.04149-1.727596-.837558-3.005963-1.913716-3.908577-.720046-.565848-1.583273-.918298-2.497441-1.020179-.18311-.01927-.36484-.03029-.545196-.03029" fill="none" stroke="url(#i)" stroke-width="1.39267" />
  </g>
  <circle cx="11.184063" cy="45.12323" fill="url(#b)" filter="url(#c)" r="12.348694" transform="matrix(.54342848 -.00748958 .00748958 .54342848 33.296172 11.155736)" />
  <path d="m14.428456 47.271288-8.9226783.196284 4.2913527-7.825408z" fill="url(#d)" filter="url(#e)" transform="matrix(-.0009304 .63223134 -.63223134 -.0009304 67.817208 29.33222)" />
</svg>
