<svg height="48" width="48" xmlns="http://www.w3.org/2000/svg" xmlns:xlink="http://www.w3.org/1999/xlink">
  <linearGradient id="a" gradientTransform="scale(.827952 1.2077995)" gradientUnits="userSpaceOnUse" x1=".998772" x2="49.767002" xlink:href="#e" y1="11.33993" y2="34.346684" />
  <linearGradient id="b" gradientUnits="userSpaceOnUse" x1="-1.164631" x2="23.532757" y1="45.12323" y2="45.12323">
    <stop offset="0" stop-color="#cdd0d1" />
    <stop offset="1" stop-color="#f6f6f7" />
  </linearGradient>
  <linearGradient id="c" gradientUnits="userSpaceOnUse" x1="5.505778" x2="14.428456" xlink:href="#i" y1="43.554867" y2="43.554867" />
  <linearGradient id="d" gradientTransform="matrix(1.13834 0 0 1.138339 26.125023 -.512948)" gradientUnits="userSpaceOnUse" x1="12.107648" x2="-15.341549" xlink:href="#i" y1="41.987919" y2="7.93479" />
  <linearGradient id="e">
    <stop offset="0" stop-color="#c2765a" />
    <stop offset="1" stop-color="#fa531a" />
  </linearGradient>
  <linearGradient id="f" gradientUnits="userSpaceOnUse" x1="14.428456" x2="5.505778" y1="47.467571" y2="39.642166">
    <stop offset="0" stop-color="#16a085" />
    <stop offset="1" stop-color="#2dcb72" />
  </linearGradient>
  <linearGradient id="g" gradientTransform="matrix(1.13834 0 0 1.138339 26.125023 -.512948)" gradientUnits="userSpaceOnUse" x1="30.248758" x2="21.298958" y1="24.96496" y2="14.535133">
    <stop offset="0" stop-color="#ec7b00" />
    <stop offset="1" stop-color="#b99f83" />
  </linearGradient>
  <linearGradient id="h" gradientTransform="matrix(1.13834 0 0 1.138339 26.125023 -.512948)" gradientUnits="userSpaceOnUse" x1="14.084895" x2="-8.506506" y1="41.790291" y2="8.911002">
    <stop offset="0" stop-color="#848381" />
    <stop offset="1" stop-color="#c2c2c2" />
  </linearGradient>
  <linearGradient id="i" gradientTransform="matrix(1.13834 0 0 1.138339 26.125023 -.512948)" gradientUnits="userSpaceOnUse" x1="34.754807" x2="24.917271" y1="28.54948" y2="10.87181">
    <stop offset="0" stop-color="#5a5a5a" />
    <stop offset="1" stop-color="#818181" />
  </linearGradient>
  <linearGradient id="j" gradientTransform="matrix(1.13834 0 0 1.138339 26.125023 -.512948)" gradientUnits="userSpaceOnUse" x1="9.678732" x2="40.686417" xlink:href="#e" y1="51.138325" y2="-1.323205" />
  <linearGradient id="k" gradientUnits="userSpaceOnUse" x1="76.480995" x2="71.561756" y1="31.293434" y2="7.276058">
    <stop offset="0" stop-color="#39f05f" />
    <stop offset="1" stop-color="#6de586" />
  </linearGradient>
  <linearGradient id="l" gradientUnits="userSpaceOnUse" x1="-1.634877" x2="37.922558" xlink:href="#e" y1="9.211418" y2="51.262928" />
  <path d="m49.435978 7.1644411h45.232185c.831 0 1.5.669 1.5 1.5v33.2957649c0 .831-.669 1.5-1.5 1.5h-45.232185c-.831 0-1.5-.669-1.5-1.5v-33.2957649c0-.831.669-1.5 1.5-1.5z" fill="url(#k)" transform="matrix(.71659923 -.00987625 .00987625 .71659923 -26.835417 3.873742)" />
  <path d="m.04047501 17.116127h32.41642699c.595551 0 1.075001.47945 1.075001 1.075001v23.861986c0 .59555-.47945 1.075001-1.075001 1.075001h-32.41642699c-.59555055 0-1.07500101-.479451-1.07500101-1.075001v-23.861986c0-.595551.47945046-1.075001 1.07500101-1.075001z" fill="url(#l)" stroke-width=".716667" transform="matrix(.9859804 -.16686119 .16686119 .9859804 0 0)" />
  <g stroke-width=".729">
    <path d="m25.167969 20.175781c-1.297729 0-3.377815 1.748912-7.433594 5.804688l1.542969 1.517578 6.845703-6.904297c-.003-.0022-.0059-.0039-.0098-.0059-.269983-.269983-.576969-.41211-.945312-.41211z" fill="url(#h)" />
    <path d="m28.378906 16.253906c-1.301744 0-2.429638.983768-2.576172 2.308594-.157574 1.420174.870839 2.702749 2.291016 2.861328.09635.01003.190816.01563.285156.01563.355294 0 .697628-.07159 1.009766-.205078l-1.863281-1.970703c-.0261-.0281-.04106-.06632-.03906-.105469.001-.03914.01777-.07546.04687-.101562l2.443359-2.251953c-.375366-.295074-.824776-.480004-1.310546-.533204-.09736-.01098-.19277-.01758-.28711-.01758zm-1.396484 7.009766c-.240878.393433-5.826172 6.125-5.826172 6.125l.693359.6875c.0041.002.0039.0068.0059.0098 4.19027-3.491721 4.929687-6.173829 4.929687-6.173829s.104926-.269054.197266-.648437zm-6.1875 6.447266-2.685547.482421-4.974609 5.365235 1.949218 1.919922c.02811.02709.05968.03906.0918.03906.07929 0 .15193-.07173.13086-.164062l-.425782-1.824219c-.01505-.06423.015-.133953.07422-.164063 2.247189-1.166247 4.054571-2.743097 5.50586-4.011718.372356-.325186.725325-.634043 1.060546-.914063z" fill="url(#d)" />
    <path d="m30.314453 17.269531-2.046875 1.886719 1.582031 1.671875c.293413-.197518.450642-.300089.650751-.562847.368589-.457405.452564-.724055.488023-1.406018.0287-.552048-.246269-1.168308-.673828-1.589844zm-.08984 1.03711c.08029 0 .158287.03737.191407.09961.01506.02911.384531.738462-.113282 1.310547-.03914.04616-.105635.07031-.171875.07031-.03914 0-.07916-.0093-.113281-.02734-.09535-.04818-.121834-.14548-.05859-.21875.375373-.431573.07722-1.009525.07422-1.015625-.04316-.08029.0079-.173912.113281-.207032.0261-.0081.05203-.01172.07813-.01172zm-3.658203 2.751953-6.820312 6.916015.964844.955079 5.25-5.328126c1.068894-1.068893 1.183575-1.965866.605468-2.542968zm-7.144531 7.277343-.996094 1.02539c-.08832.09033-.01983.240234.09961.240234.009.000001.01934.000047.02734-.002l1.810547-.322265z" fill="url(#j)" />
  </g>
  <path d="m28.376953 15.757812c-1.580399.000001-2.893018 1.177185-3.068359 2.748047-.02331.218517-.02458.433121-.0039.642579l.04102.40625-.388672.126953c-3.412631 1.111182-6.291574 4.763052-9.544922 8.24414-.158946.186636-.194056.4541-.0918.677735.103411.222945.335375.41006.574219.36914.789291-.135226 1.557474-.321608 2.212938-.462895l-.197266.792968c-.03445.124288-.04109.197957-.01563.361328-1.662163 1.859919-3.41357 3.709065-5.121095 5.550777l-.0039.0059c-.02579.02918-.04364.05438-.05664.07617l-.08008.132813-.140624.06641c-.04829.02247-.09326.0542-.134766.0957l-1.564453 1.554687c-.183653.183089-.236883.447597-.138672.685547.09948.240225.325353.390625.583984.390625l3.265625-.01367c.110097-.000513.211328-.03509.292969-.0957l.152344-.115234.189453.01563c-.0023-.000146.01202 0 .03711 0 .19804 0 .372462-.0847.496094-.240234.121934-.153524.164142-.340105.119141-.533204l-.365235-1.558593.330078-.185547c2.02412-1.143939 3.665007-2.576955 5.03125-3.769532h.002c.353186-.307706.689527-.601509 1.015626-.875.0014-.0015.0025-.0025.0039-.0039 2.045385-2.060789 4.534044-4.073236 5.429687-6.742187.217508-1.071532.137642-1.183372.121094-1.695313l-.02148-.648437c.328251.136252.718686.169423 1.027341.173835 1.217287.0174 1.991981-.658056 2.589236-1.380224.374899-.475812.525692-1.2014.528316-1.676624v-.002c-.02695-1.103765-.512311-1.878525-1.205078-2.462891-.448668-.351192-.984557-.572581-1.554688-.636718-.118754-.01249-.234901-.01953-.345703-.01953zm.002.496094c.09434 0 .189754.0066.28711.01758.48577.0532.935179.23813 1.310546.533204l-2.443359 2.251953c-.02911.0261-.04587.06242-.04687.101562-.002.03915.01296.07737.03906.105469l1.863281 1.970703c-.312138.133486-.654472.205078-1.009766.205078-.09434 0-.188806-.0056-.285156-.01563-1.420177-.158579-2.44859-1.441154-2.291016-2.861328.146534-1.324826 1.274428-2.308594 2.576172-2.308594zm1.935547 1.015625c.438454.517575.628426.874211.661178 1.442459.03235.561304-.08424.887802-.245215 1.2059-.160977.318098-.51172.648479-.859429.90055-.0071.0039-.01445.0058-.02148.0098l-1.581976-1.67199zm-.08984 1.03711c-.0261 0-.05203.0036-.07813.01172-.105383.03312-.156439.126739-.113281.207032.003.0061.301153.584052-.07422 1.015625-.06324.07327-.03676.170574.05859.21875.03412.01806.07414.02734.113281.02734.06624 0 .132732-.02415.171875-.07031.497813-.572085.128337-1.281441.113282-1.310547-.03312-.06224-.111113-.09961-.191407-.09961zm-5.05664 1.86914c.368343 0 .675329.142127.945312.41211.0039.002.0068.0037.0098.0059l-6.845703 6.904297-1.542969-1.517578c4.055779-4.055776 6.135865-5.804688 7.433594-5.804688zm1.398437.882813c.578107.577102.463427 1.474074-.605468 2.542968l-5.25 5.328126-.964844-.955079zm.416016 2.205078c-.09234.379383-.197266.648437-.197266.648437s-.739417 2.682108-4.929687 6.173829c-.002-.003-.0018-.0078-.0059-.0098l-.693359-.6875s5.585294-5.731567 5.826172-6.125zm-9.564453 3.068359 1.498047 1.498047-2.990235.642578c-.01104.002-.01926.0039-.0293.0039-.113412 0-.184757-.137128-.105468-.230468zm2.003906 2.003907.941406.941406c-.611239.110493-1.228073.217597-1.837887.324265-.119436 0-.187931-.149903-.09961-.240234zm1.373047 1.375.726562.728515c-.335221.28002-.688189.588877-1.060546.914063-1.451289 1.268621-3.258671 2.845471-5.50586 4.011718-.05922.03011-.08927.09983-.07422.164063l.425782 1.824219c.02107.09233-.05157.164062-.13086.164062-.03212 0-.06369-.01197-.0918-.03906l-1.949218-1.919922 4.974609-5.365235zm-8.089844 6.232421 1.796875 1.769532-3.263672.01367c-.118432 0-.178058-.145212-.09375-.228515z" fill="#fff" />
  <path d="m17.417969 26.332031-1.626953 1.914063c-.07929.09334-.0079.230468.105468.230468.01004 0 .01826-.0019.0293-.0039l2.990235-.642578zm-4.712891 9.611328-1.560547 1.554688c-.08431.0833-.02468.228515.09375.228515l3.263672-.01367z" fill="url(#a)" />
  <circle cx="11.184063" cy="45.12323" fill="url(#b)" filter="url(#f)" r="12.348694" transform="matrix(.54342848 -.00748958 .00748958 .54342848 33.296172 11.155736)" />
  <path d="m14.428456 47.271288-8.9226783.196284 4.2913527-7.825408z" fill="url(#c)" filter="url(#g)" transform="matrix(-.0009304 .63223134 -.63223134 -.0009304 67.817208 29.33222)" />
</svg>
