<svg height="48" width="48" xmlns="http://www.w3.org/2000/svg" xmlns:xlink="http://www.w3.org/1999/xlink"><linearGradient gradientUnits="userSpaceOnUse" x1="0" x2="47" y1="23.5" y2="23.5"><stop offset="0" stop-color="#a9a3d4"/><stop offset=".47001833" stop-color="#87baff"/><stop offset="1" stop-color="#89ec85"/></linearGradient><linearGradient id="a" gradientUnits="userSpaceOnUse" x1="220.53835" x2="220.53835" y1="502.54337" y2="82.94986"><stop offset="0" stop-color="#e8d800"/><stop offset="1" stop-color="#feff68"/></linearGradient><linearGradient id="b" gradientUnits="userSpaceOnUse" x1="401.57144" x2="401.57144" y1="546.79797" y2="517.79797"><stop offset="0" stop-color="#ff9300"/><stop offset="1" stop-color="#ffd702"/></linearGradient><g fill="url(#a)" stroke-width="1.317422" transform="matrix(.041326907952 0 0 .041326907952 12.908984033483 13.39408701047)"><rect fill="url(#b)" height="28" ry="14" transform="matrix(39.752722 0 0 39.752722 -15655.434 -20883.783)" width="27.999958" x="386.5715" y="517.79797"/><path d="m139.165 51.421-35.776-35.864c-59.976 45.645-99.647 116.628-103.389 196.845h50.174c3.742-66.41 37.877-124.636 88.991-160.981zm335.814 160.981h50.174c-3.742-80.217-43.413-151.2-103.586-196.845l-35.863 35.864c51.398 36.345 85.533 94.571 89.275 160.981zm-49.387 12.582c0-77-53.391-141.463-125.424-158.487v-17.089c0-20.787-16.761-37.614-37.592-37.614s-37.592 16.827-37.592 37.614v17.089c-72.033 17.024-125.424 81.508-125.424 158.487v137.918l-50.152 50.108v25.076h426.336v-25.076l-50.152-50.108zm-163.016 288.374c3.523 0 6.761-.219 10.065-1.007 16.236-3.238 29.824-14.529 36.06-29.627 2.516-5.952 4.048-12.494 4.048-19.54h-100.347c0 27.593 22.582 50.174 50.174 50.174z" fill="#342300"/></g></svg>