<svg height="48" width="48" xmlns="http://www.w3.org/2000/svg" xmlns:xlink="http://www.w3.org/1999/xlink"><linearGradient id="a" gradientUnits="userSpaceOnUse" x1="385.12604" x2="415.93533" y1="531.72919" y2="531.46417"><stop offset="0" stop-color="#ac92ec"/><stop offset=".16060895" stop-color="#64a9ff"/><stop offset=".26767892" stop-color="#4cdbb7"/><stop offset=".49417827" stop-color="#aee672"/><stop offset=".74118012" stop-color="#ffce53"/><stop offset=".90938491" stop-color="#fb6e51"/><stop offset="1" stop-color="#ed5565"/></linearGradient><linearGradient id="b" gradientUnits="userSpaceOnUse" x1="400.355637" x2="400.403035" y1="546.679034" y2="516.781499"><stop offset="0" stop-color="#e5e5e5"/><stop offset="1" stop-color="#fff"/></linearGradient><g stroke-width="1.079655" transform="matrix(-.45601702 .08488869 -.08488869 -.45601702 7.497029 -36.131784)"><circle cx="235.78929" cy="426.28171" fill="none" r="67.570946" transform="matrix(-.59677373 -.11109089 .11109089 -.59677373 80.811449 146.641989)"/><circle cx="400.61902" cy="531.72919" fill="url(#b)" r="14.874661" stroke="url(#a)" stroke-linecap="round" stroke-linejoin="round" stroke-width="2.054899" transform="matrix(-3.06547218 -.57064518 .57064518 -3.06547218 913.404953 1724.654571)"/><path d="m406.269 10.052-232.65 405.741c-48.889 85.779-52.665 194.85 0 286.697 79.169 138.07 255.277 185.82 393.348 106.65 138.071-79.169 185.821-255.276 106.651-393.348l-232.65-405.74c-7.685-13.403-27.015-13.403-34.699 0z" fill="#3d4245" opacity=".9" transform="matrix(-.05933862 -.01104603 .01104603 -.05933862 9.918615 -105.904886)"/></g></svg>