<svg height="48" viewBox="0 0 48 48" width="48" xmlns="http://www.w3.org/2000/svg" xmlns:xlink="http://www.w3.org/1999/xlink"><linearGradient id="a"><stop offset="0" stop-color="#d3d3d3"/><stop offset="1" stop-color="#fcf9f9"/></linearGradient><linearGradient id="b"><stop offset="0" stop-color="#8d3aff"/><stop offset="1" stop-color="#ff3680"/></linearGradient><linearGradient id="c" gradientUnits="userSpaceOnUse" x1="406.878759207844" x2="408.366687848094" xlink:href="#b" y1="535.133337552323" y2="512.093441901863"/><linearGradient gradientUnits="userSpaceOnUse" x1="2.819" x2="11.758417" y1="1044.2982" y2="1044.2982"><stop offset="0" stop-color="#333538"/><stop offset="1" stop-color="#566069"/></linearGradient><linearGradient id="d" gradientUnits="userSpaceOnUse" x1="408.295813467744" x2="408.295813467744" xlink:href="#b" y1="545.49670616428" y2="501.53753496428"/><linearGradient id="e" gradientUnits="userSpaceOnUse" x1="293.258713467744" x2="293.258713467744" xlink:href="#b" y1="571.76060616428" y2="527.80143496428"/><linearGradient id="f" gradientUnits="userSpaceOnUse" x1="408.304474525384" x2="408.304474525384" xlink:href="#a" y1="544.80757096233" y2="502.24422776233"/><linearGradient id="g" gradientUnits="userSpaceOnUse" x1="344.814904525384" x2="344.814904525384" xlink:href="#a" y1="549.83880096233" y2="507.27545776233"/><g transform="translate(-384.57143 -499.798)"><circle cx="408.5705" cy="523.79712" fill="url(#f)" r="21.281607"/><circle cx="345.08093" cy="528.82837" fill="url(#g)" r="0"/><circle cx="293.53348" cy="550.06116" fill="none" r="0" stroke="url(#e)" stroke-width="2.040961"/><path d="m415.56159 512.75017-9.88281 2.67472c-.74236.20833-1.34017 1.037-1.34017 1.8418v12.75781c-.75277-.41271-1.71923-.57971-2.72152-.30697-1.80859.49202-2.94261 2.08338-2.55493 3.55258.10779.40844.32376.76549.61768 1.0594l10.66333 10.66333a21.281607 21.281607 0 0 0 19.26961-18.19148z" fill-opacity=".078431"/><path d="m405.60846 515.39663c-.74236.20833-1.33994 1.03676-1.33994 1.84156v12.75883c-.75277-.41271-1.71952-.5796-2.7218-.30685-1.80859.49202-2.94198 2.08224-2.55429 3.55143.3877 1.4691 2.16936 2.28969 3.97802 1.79755 1.44288-.39252 2.43752-1.50325 2.59612-2.67449l.0423-12.05737 9.37968-2.63071v9.5144c-.75276-.41274-1.7195-.57961-2.72182-.30696-1.80858.49204-2.94193 2.08234-2.55427 3.55144.38772 1.4692 2.16938 2.28967 3.97799 1.79764 1.4429-.39253 2.43754-1.50323 2.59615-2.67448l.0425-15.69657c0-.60349-.35623-1.055-.83745-1.13993l-9.88216 2.67451z" fill="url(#c)" opacity=".9"/><path d="m408.57143 500.798c-12.69047 0-23 10.30954-23 23s10.30953 23 23 23c12.69046 0 23-10.30954 23-23s-10.30954-23-23-23zm0 2.0402c11.58744 0 20.95793 9.37235 20.95793 20.9598s-9.37049 20.95793-20.95793 20.95793c-11.58745 0-20.9598-9.37048-20.9598-20.95793s9.37235-20.9598 20.9598-20.9598z" fill="url(#d)"/></g></svg>