<svg height="48" width="48" xmlns="http://www.w3.org/2000/svg" xmlns:xlink="http://www.w3.org/1999/xlink"><linearGradient gradientUnits="userSpaceOnUse" x1="499.14545" x2="499.14545" y1="986.67102" y2="-2.62256"><stop offset="0" stop-color="#f4ffb5"/><stop offset="1" stop-color="#fdffd8"/></linearGradient><linearGradient gradientUnits="userSpaceOnUse" x1="537.19519" x2="537.19519" y1="986.67102" y2="-2.62256"><stop offset="0" stop-color="#ffce3b"/><stop offset="1" stop-color="#ffd762"/></linearGradient><linearGradient id="a" gradientUnits="userSpaceOnUse" x1="499.14545" x2="499.14545" y1="986.67102" y2="-2.62256"><stop offset="0" stop-color="#ffcc32"/><stop offset="1" stop-color="#ffda6d"/></linearGradient><linearGradient gradientUnits="userSpaceOnUse" x1="499.14545" x2="499.14545" y1="986.67102" y2="-2.62256"><stop offset="0" stop-color="#ffc20b"/><stop offset="1" stop-color="#ffd351"/></linearGradient><linearGradient gradientUnits="userSpaceOnUse" x1="537.19519" x2="537.19519" y1="986.67102" y2="-2.62256"><stop offset="0" stop-color="#ffce3b"/><stop offset="1" stop-color="#fef4ab"/></linearGradient><path d="m946.23 206.651c-.3-23-18-42-40.899-44.101-190.3-17.8-345.601-119.5-396.8-156.7-10.7-7.8-25.2-7.8-35.9 0-51.1 37.2-206.4 138.9-396.7 156.7-22.9 2.101-40.5 21.101-40.9 44.101-2.3 150.1 21.8 659.699 444.1 773.1 7.5 2 15.4 2 22.9 0 422.3-113.3 446.399-623.001 444.199-773.1z" fill="url(#a)" transform="matrix(.046878934396 0 0 .046878934396 .999996608714 .999997657821)"/><g fill="#fff" fill-opacity=".852041" transform="matrix(.153714259956 0 0 .153714259956 -3.801140614469 -7.738754365804)"><path d="m164.894 143.085v90.351c0 8.65 7.014 15.665 15.665 15.665 8.65 0 15.665-7.015 15.665-15.665v-90.351c0-8.651-7.015-15.665-15.665-15.665-8.651 0-15.665 7.015-15.665 15.665z" fill="#fff" fill-opacity=".852041"/><path d="m180.559 265.364c-9.097 0-16.5 7.399-16.5 16.5 0 9.098 7.403 16.5 16.5 16.5s16.5-7.402 16.5-16.5c0-9.1-7.404-16.5-16.5-16.5z" fill="#fff" fill-opacity=".852041"/></g></svg>