<svg height="48" width="48" xmlns="http://www.w3.org/2000/svg" xmlns:xlink="http://www.w3.org/1999/xlink"><linearGradient id="a" gradientTransform="matrix(.35549809 0 0 .35079564 601.70072 565.64853)" gradientUnits="userSpaceOnUse" x1="-1092.9117" x2="-1060.2551" y1="203.09911" y2="104.85291"><stop offset="0" stop-color="#f2b333"/><stop offset="1" stop-color="#fcde3f"/></linearGradient><linearGradient id="b" gradientTransform="matrix(.35600995 0 0 .3512235 689.78214 439.13927)" gradientUnits="userSpaceOnUse" x1="-989.66583" x2="-1003.6364" y1="433.28394" y2="317.35452"><stop offset="0" stop-color="#e7f0f4"/><stop offset="1" stop-color="#f4faff"/></linearGradient><g transform="translate(-384.57143 -499.798)"><text x="300.29187" y="516.21832"><tspan x="300.29187" y="516.21832"/></text><text x="300.29184" y="516.16595"><tspan x="300.29184" y="516.16595"/></text><rect fill="url(#a)" height="40.214249" ry=".981484" transform="matrix(.94911544 -.31492838 .30720731 .95164262 0 0)" width="31.911476" x="210.45282" y="605.12903"/><rect fill="url(#b)" height="43.171936" ry="1.053671" transform="matrix(.99210439 -.12541482 .1378126 .99045832 0 0)" width="35.538715" x="317.50269" y="550.23132"/><g fill="#4d4d4d" fill-opacity=".839216" transform="matrix(.047852968039 -.006567846276 .006567846276 .047852968039 398.617492812831 514.78750535579)"><path d="m306.668 92.094 90.873 90.87 13.057-13.046-90.868-90.872z"/><path d="m294.878 103.885-256.004 256.017c-1.824 1.826-3.211 4.043-4.038 6.482l-33.957 101.262c-2.002 6.01-.457 12.619 4.025 17.1 3.173 3.18 7.44 4.887 11.79 4.887 1.774 0 3.567-.277 5.309-.863l101.246-33.973c2.456-.83 4.673-2.196 6.494-4.021l256.003-256.018z"/><path d="m331.52 67.257 90.868 90.874 13.03-13.045-90.873-90.871z"/><path d="m484.732 72.193-67.274-67.306c-3.129-3.127-7.382-4.887-11.795-4.887-4.414 0-8.663 1.76-11.79 4.887l-37.533 37.537 90.868 90.872 37.524-37.522c6.512-6.514 6.512-17.067 0-23.581z"/></g></g></svg>