<svg height="48" width="48" xmlns="http://www.w3.org/2000/svg" xmlns:xlink="http://www.w3.org/1999/xlink"><linearGradient id="a" gradientTransform="matrix(1.5206174 0 0 1.4848982 -250.09828 -256.09816)" gradientUnits="userSpaceOnUse" x1="409.57144" x2="409.57144" y1="542.79797" y2="507.798"><stop offset="0" stop-color="#566069"/><stop offset="1" stop-color="#6c7884"/></linearGradient><g transform="matrix(.65762761 0 0 .65762761 -221.099912 -319.29874)"><g transform="translate(1.52061 -1.907534)"><rect fill-opacity=".666667" height="50.486542" ry="2.375837" width="66.907166" x="337.729" y="499.45044"/><rect fill="url(#a)" height="50.486542" ry="2.375837" width="66.907166" x="337.729" y="497.93018"/></g><path d="m124.023 1.977c-1.032-1.032-2.254-1.548-3.666-1.548h-114.714c-1.413 0-2.635.516-3.667 1.548s-1.548 2.254-1.548 3.666v114.714c0 1.412.516 2.635 1.548 3.666 1.033 1.032 2.255 1.549 3.667 1.549h114.714c1.412 0 2.634-.517 3.666-1.549 1.031-1.031 1.547-2.254 1.547-3.666v-114.714c0-1.413-.515-2.634-1.547-3.666zm-66.237 97.523c0 .761-.244 1.385-.733 1.874-.489.488-1.114.733-1.874.733h-39.107c-.761 0-1.385-.245-1.874-.733-.488-.489-.733-1.113-.733-1.874v-83.429c0-.761.244-1.385.733-1.874.489-.488 1.113-.733 1.874-.733h39.107c.76 0 1.385.245 1.874.733.489.489.733 1.113.733 1.874zm54.75-31.286c0 .761-.244 1.386-.733 1.874-.488.489-1.113.733-1.873.733h-39.106c-.763 0-1.386-.244-1.875-.733-.488-.488-.732-1.113-.732-1.874v-52.143c0-.761.244-1.385.732-1.874.489-.488 1.112-.733 1.875-.733h39.106c.76 0 1.385.245 1.873.733.489.489.733 1.113.733 1.874z" fill="#fff" fill-opacity=".846939" transform="matrix(.263374392473 0 0 .263374392473 356.506971006943 508.020052418109)"/><g fill="#fff" fill-opacity=".852041" stroke-width="1.317422"><circle cx="358.05319" cy="501.345041" r="2.708867"/><circle cx="351.39837" cy="501.402501" r="2.708867"/><circle cx="344.85678" cy="501.466651" r="2.708867"/></g></g></svg>