<svg height="48" width="48" xmlns="http://www.w3.org/2000/svg" xmlns:xlink="http://www.w3.org/1999/xlink"><linearGradient gradientUnits="userSpaceOnUse" x1="0" x2="47" y1="23.5" y2="23.5"><stop offset="0" stop-color="#a9a3d4"/><stop offset=".47001833" stop-color="#87baff"/><stop offset="1" stop-color="#89ec85"/></linearGradient><linearGradient id="a" gradientUnits="userSpaceOnUse" x1="400.57144" x2="400.57144" y1="545.79797" y2="517.79797"><stop offset="0" stop-color="#ff9300"/><stop offset="1" stop-color="#ffd702"/></linearGradient><g stroke-width="1.317422" transform="matrix(1.000000004476 0 0 1.000000004476 -486.760340300875 -502.725834528142)"><rect fill="url(#a)" height="28.000027" ry="14.000006" transform="matrix(1.634735284396 0 0 1.634735284396 -144.067942974664 -342.623101459356)" width="28.000011" x="386.57144" y="517.79797"/><path d="m-1.7259783 1033.5359h-6.4149539v-1.9801c0-1.7686 1.4388492-3.2074 3.2074779-3.2074 1.768626 0 3.207476 1.4389 3.207476 3.2074zm1.71113302.018v-1.9983c0-2.7121-2.20646302-4.9187-4.91860902-4.9187-2.7121476 0-4.9186118 2.2066-4.9186118 4.9187v1.9983c-.3876139.081-.6796619.4259-.6796619.8373v7.4883c0 .4717.383807.8555.8555664.8555h9.48536932c.471759 0 .855566-.3838.855566-.8555v-7.4883c0-.4114-.292003-.7559-.679619-.8373z" fill-opacity=".796296" transform="matrix(1.490859132737 0 0 1.490859132737 518.115458362882 -1015.845164371647)"/></g></svg>