<?xml version="1.0" encoding="UTF-8" standalone="no"?>
<!-- Created with Inkscape (http://www.inkscape.org/) -->

<svg
   xmlns:dc="http://purl.org/dc/elements/1.1/"
   xmlns:cc="http://creativecommons.org/ns#"
   xmlns:rdf="http://www.w3.org/1999/02/22-rdf-syntax-ns#"
   xmlns:svg="http://www.w3.org/2000/svg"
   xmlns="http://www.w3.org/2000/svg"
   xmlns:xlink="http://www.w3.org/1999/xlink"
   xmlns:sodipodi="http://sodipodi.sourceforge.net/DTD/sodipodi-0.dtd"
   xmlns:inkscape="http://www.inkscape.org/namespaces/inkscape"
   width="48"
   height="48"
   id="svg5453"
   version="1.1"
   inkscape:version="0.91 r13725"
   sodipodi:docname="amarok_change_language.svg">
  <defs
     id="defs5455">
    <linearGradient
       id="linearGradient4143"
       inkscape:collect="always">
      <stop
         id="stop4145"
         offset="0"
         style="stop-color:#197cf1;stop-opacity:1" />
      <stop
         id="stop4147"
         offset="1"
         style="stop-color:#20bcfa;stop-opacity:1" />
    </linearGradient>
    <linearGradient
       inkscape:collect="always"
       xlink:href="#linearGradient4143"
       id="linearGradient4183"
       x1="770.85718"
       y1="216.93361"
       x2="770.85718"
       y2="164.93361"
       gradientUnits="userSpaceOnUse"
       gradientTransform="matrix(-0.53740105,0,0,0.53740105,1202.0726,86.002266)" />
  </defs>
  <sodipodi:namedview
     id="base"
     pagecolor="#ffffff"
     bordercolor="#666666"
     borderopacity="1.0"
     inkscape:pageopacity="0"
     inkscape:pageshadow="2"
     inkscape:zoom="5.037199"
     inkscape:cx="-24.180651"
     inkscape:cy="14.555247"
     inkscape:document-units="px"
     inkscape:current-layer="layer1"
     showgrid="true"
     fit-margin-top="0"
     fit-margin-left="0"
     fit-margin-right="0"
     fit-margin-bottom="0"
     inkscape:window-width="1366"
     inkscape:window-height="630"
     inkscape:window-x="0"
     inkscape:window-y="36"
     inkscape:window-maximized="1"
     inkscape:showpageshadow="false"
     borderlayer="true"
     showguides="false">
    <inkscape:grid
       type="xygrid"
       id="grid4063" />
    <sodipodi:guide
       position="1.1650391e-05,32.000026"
       orientation="32,0"
       id="guide4806" />
    <sodipodi:guide
       position="1.1650391e-05,2.6367188e-05"
       orientation="0,32"
       id="guide4808" />
    <sodipodi:guide
       position="32.000012,2.6367188e-05"
       orientation="-32,0"
       id="guide4810" />
    <sodipodi:guide
       position="32.000012,32.000026"
       orientation="0,-32"
       id="guide4812" />
    <sodipodi:guide
       position="2.0000117,30.000026"
       orientation="28,0"
       id="guide4814" />
    <sodipodi:guide
       position="2.0000117,2.0000264"
       orientation="0,28"
       id="guide4816" />
    <sodipodi:guide
       position="30.000012,2.0000264"
       orientation="-28,0"
       id="guide4818" />
    <sodipodi:guide
       position="30.000012,30.000026"
       orientation="0,-28"
       id="guide4820" />
    <sodipodi:guide
       position="13.000012,27.100124"
       orientation="14,0"
       id="guide4159" />
    <sodipodi:guide
       position="13.000012,13.100124"
       orientation="0,14"
       id="guide4161" />
    <sodipodi:guide
       position="27.000012,13.100124"
       orientation="-14,0"
       id="guide4163" />
    <sodipodi:guide
       position="27.000012,27.100124"
       orientation="0,-14"
       id="guide4165" />
  </sodipodi:namedview>
  <metadata
     id="metadata5458">
    <rdf:RDF>
      <cc:Work
         rdf:about="">
        <dc:format>image/svg+xml</dc:format>
        <dc:type
           rdf:resource="http://purl.org/dc/dcmitype/StillImage" />
        <dc:title></dc:title>
      </cc:Work>
    </rdf:RDF>
  </metadata>
  <g
     inkscape:label="Capa 1"
     inkscape:groupmode="layer"
     id="layer1"
     transform="translate(-384.57143,-499.798)">
    <g
       id="layer1-0"
       inkscape:label="Capa 1"
       transform="matrix(1.5327611,0,0,1.5327611,-205.40274,-290.71617)">
      <g
         inkscape:label="Layer 1"
         id="layer1-1"
         transform="translate(-387.2873,342.96031)">
        <path
           d="m 802.8603,186.85095 c 0,-6.93885 -6.73161,-12.58395 -15.0055,-12.58395 -8.27412,0 -15.00567,5.64515 -15.00567,12.58395 0,6.93882 6.73155,12.58396 15.00567,12.58396 0.69567,0 1.39378,-0.0404 2.08009,-0.11975 3.18694,2.02453 5.53955,3.13266 6.99769,3.29464 0.0508,0.006 0.10183,0.009 0.15175,0.009 0.46837,0 0.90187,-0.23341 1.16001,-0.62478 0.28855,-0.43783 0.30737,-0.9933 0.0504,-1.4468 -0.0114,-0.0216 -1.13723,-2.07466 -0.81259,-4.03577 3.42345,-2.39575 5.37818,-5.89684 5.37818,-9.65979 z"
           id="path7"
           inkscape:connector-curvature="0"
           sodipodi:nodetypes="ssssccscccs"
           style="fill:url(#linearGradient4183);fill-opacity:1;stroke:none;stroke-width:0.5;stroke-miterlimit:4;stroke-dasharray:none" />
      </g>
      <g
         transform="translate(189.06654,331.78791)"
         id="g4300">
        <g
           style="fill:#ffffff;fill-opacity:0.84962404"
           id="g4248">
          <g
             style="fill:#ffffff;fill-opacity:0.84962404"
             transform="matrix(0.08537198,0,0,0.08537198,194.52599,178.92036)"
             id="g4250">
            <g
               style="fill:#ffffff;fill-opacity:0.84962404"
               id="g4252">
              <g
                 transform="matrix(1.1098657,0,0,1.1098657,-21.935083,-20.142357)"
                 style="fill:#ffffff;fill-opacity:0.84962404"
                 id="g4337">
                <path
                   id="path4256"
                   d="m 120.31878,192.70649 59.117,0 c -1.666,10.675 -7.326,22.046 -16.84,33.827 -6.064,-9.714 -9.964,-19.135 -12.188,-25.408 -0.562,-1.583 -2.058,-2.641 -3.736,-2.641 l -9.728,0 c -1.264,0 -2.453,0.603 -3.2,1.623 -0.746,1.021 -0.961,2.335 -0.579,3.542 2.305,7.258 7.614,21.507 17.429,35.986 -11.594,11.271 -23.143,19.394 -27.611,22.387 -1.778,1.192 -2.289,3.581 -1.153,5.396 l 4.882,7.808 c 0.565,0.903 1.473,1.542 2.515,1.771 0.28,0.063 0.564,0.093 0.846,0.093 0.769,0 1.527,-0.224 2.178,-0.651 4.601,-3.024 16.538,-11.28 29.038,-23.255 4.625,4.82 15.499,13.268 21.942,17.954 0.983,0.715 2.242,0.938 3.415,0.607 1.172,-0.334 2.124,-1.188 2.586,-2.312 l 3.642,-8.903 c 0.732,-1.789 0.065,-3.85 -1.579,-4.867 -4.198,-2.604 -12.101,-7.952 -18.552,-14.902 14.163,-16.575 22.24,-32.734 24.018,-48.049 l 3.121,0 c 2.189,0 3.964,-1.775 3.964,-3.965 l 0,-10.567 c 0,-2.189 -1.774,-3.964 -3.964,-3.964 l -30.872,0 0,-5.426 c 0,-2.19 -1.774,-3.965 -3.964,-3.965 l -9.89,0 c -2.189,0 -3.964,1.774 -3.964,3.965 l 0,5.426 -30.872,0 c -2.189,0 -3.964,1.774 -3.964,3.964 l 0,10.567 c -10e-4,2.184 1.774,3.959 3.963,3.959 z"
                   inkscape:connector-curvature="0"
                   style="fill:#ffffff;fill-opacity:0.85" />
                <path
                   id="path4258"
                   d="m 256.10311,180.09731 c -0.516,-1.66 -2.049,-2.791 -3.787,-2.791 l -22.026,0 c -1.743,0 -3.281,1.139 -3.791,2.805 l -26.318,86.05 c -0.369,1.202 -0.145,2.508 0.604,3.521 0.748,1.009 1.93,1.604 3.188,1.604 l 13.664,0 c 1.779,0 3.342,-1.188 3.819,-2.901 l 5.9,-21.229 26.923,0 6.389,21.307 c 0.502,1.678 2.047,2.825 3.797,2.825 l 14.523,0 c 1.262,0 2.444,-0.599 3.19,-1.61 0.748,-1.015 0.969,-2.323 0.594,-3.526 l -26.669,-86.055 z m -25.697,51.186 9.917,-38.067 0.27,0 10.604,38.067 -20.791,0 z"
                   inkscape:connector-curvature="0"
                   style="fill:#ffffff;fill-opacity:0.85" />
              </g>
            </g>
          </g>
        </g>
        <g
           id="g4264" />
        <g
           id="g4266" />
        <g
           id="g4268" />
        <g
           id="g4270" />
        <g
           id="g4272" />
        <g
           id="g4274" />
        <g
           id="g4276" />
        <g
           id="g4278" />
        <g
           id="g4280" />
        <g
           id="g4282" />
        <g
           id="g4284" />
        <g
           id="g4286" />
        <g
           id="g4288" />
        <g
           id="g4290" />
        <g
           id="g4292" />
      </g>
    </g>
  </g>
</svg>
