<svg height="48" width="48" xmlns="http://www.w3.org/2000/svg" xmlns:xlink="http://www.w3.org/1999/xlink"><linearGradient id="a" gradientUnits="userSpaceOnUse" x1="474.0148" x2="474.0148" y1="-4.22199" y2="977.10907"><stop offset="0" stop-color="#ff857d"/><stop offset="1" stop-color="#da4756"/></linearGradient><path d="m946.23 206.651c-.3-23-18-42-40.899-44.101-190.3-17.8-345.601-119.5-396.8-156.7-10.7-7.8-25.2-7.8-35.9 0-51.1 37.2-206.4 138.9-396.7 156.7-22.9 2.101-40.5 21.101-40.9 44.101-2.3 150.1 21.8 659.699 444.1 773.1 7.5 2 15.4 2 22.9 0 422.3-113.3 446.399-623.001 444.199-773.1z" fill="url(#a)" transform="matrix(.048083024243 0 0 .046878933963 .409240530245 .999995818424)"/><g fill="#fff" transform="matrix(.814290043967 0 0 .814290043967 12.251294665718 14.139580733991)"><circle cx="21.732" cy="5.5" r="1.5"/><circle cx="17.732" cy="2.5" r="1.5"/><circle cx="13.732" cy="1.5" r="1.5"/><circle cx="9.732" cy="3.5" r="1.5"/><path d="m20.232 5.5v6.5c0 .276-.224.5-.5.5s-.5-.224-.5-.5v-9.5h-3v8.5c0 .276-.224.5-.5.5s-.5-.224-.5-.5v-9.5h-3v9.5c0 .276-.224.5-.5.5s-.5-.224-.5-.5v-7.5h-3v12.5l-2.025-2.771c-.6-.925-1.771-1.235-2.629-.705-.855.542-1.067 1.724-.475 2.646 0 0 3.266 4.943 4.658 7.059s3.647 3.771 7.864 3.771c6.982 0 7.607-5.392 7.607-7s0-13.5 0-13.5z"/></g></svg>