<svg height="48" width="48" xmlns="http://www.w3.org/2000/svg" xmlns:xlink="http://www.w3.org/1999/xlink"><linearGradient id="a" gradientUnits="userSpaceOnUse" x1="68.524796" x2="68.524796" y1="118.85679" y2="-1.675092"><stop offset="0" stop-color="#ffd435"/><stop offset="1" stop-color="#fff360"/></linearGradient><path d="m135.785 50.457c0-2.01-1.52-3.259-4.564-3.748l-40.897-5.947-18.331-37.07c-1.031-2.227-2.363-3.34-3.992-3.34s-2.96 1.113-3.992 3.34l-18.332 37.07-40.899 5.947c-3.041.489-4.562 1.738-4.562 3.748 0 1.141.679 2.445 2.037 3.911l29.656 28.841-7.006 40.736c-.109.761-.163 1.305-.163 1.63 0 1.141.285 2.104.855 2.893.57.788 1.425 1.181 2.566 1.181.978 0 2.064-.324 3.259-.977l36.58-19.229 36.583 19.229c1.142.652 2.228.977 3.258.977 1.089 0 1.916-.392 2.486-1.181.569-.788.854-1.752.854-2.893 0-.706-.027-1.249-.082-1.63l-7.007-40.736 29.574-28.841c1.414-1.412 2.119-2.716 2.119-3.911z" fill="url(#a)" transform="matrix(.355770057291 0 0 .355770057291 -.192544202488 .874766382438)"/></svg>