<?xml version="1.0" encoding="UTF-8" standalone="no"?>
<!-- Created with Inkscape (http://www.inkscape.org/) -->

<svg
   xmlns:dc="http://purl.org/dc/elements/1.1/"
   xmlns:cc="http://creativecommons.org/ns#"
   xmlns:rdf="http://www.w3.org/1999/02/22-rdf-syntax-ns#"
   xmlns:svg="http://www.w3.org/2000/svg"
   xmlns="http://www.w3.org/2000/svg"
   xmlns:xlink="http://www.w3.org/1999/xlink"
   xmlns:sodipodi="http://sodipodi.sourceforge.net/DTD/sodipodi-0.dtd"
   xmlns:inkscape="http://www.inkscape.org/namespaces/inkscape"
   width="48"
   height="48"
   id="svg5453"
   version="1.1"
   inkscape:version="0.91 r13725"
   sodipodi:docname="preferences-system-time.svg">
  <sodipodi:namedview
     id="base"
     pagecolor="#616161"
     bordercolor="#ffffff"
     borderopacity="1"
     inkscape:pageopacity="0"
     inkscape:pageshadow="2"
     inkscape:zoom="5.7452426"
     inkscape:cx="-0.096754979"
     inkscape:cy="16.549123"
     inkscape:document-units="px"
     inkscape:current-layer="layer1"
     showgrid="false"
     fit-margin-top="0"
     fit-margin-left="0"
     fit-margin-right="0"
     fit-margin-bottom="0"
     inkscape:window-width="1366"
     inkscape:window-height="712"
     inkscape:window-x="0"
     inkscape:window-y="28"
     inkscape:window-maximized="1"
     inkscape:showpageshadow="false"
     borderlayer="true"
     showguides="false">
    <inkscape:grid
       id="grid4063"
       type="xygrid" />
    <sodipodi:guide
       id="guide4148"
       orientation="-2.5000018e-07,1"
       position="1.1650391e-05,43.999996" />
    <sodipodi:guide
       id="guide4150"
       orientation="-4,0"
       position="48.000012,43.999996" />
    <sodipodi:guide
       id="guide4152"
       orientation="0,-48"
       position="48.000012,47.999996" />
    <sodipodi:guide
       id="guide4154"
       orientation="4,0"
       position="1.1650391e-05,4.0000264" />
    <sodipodi:guide
       id="guide4156"
       orientation="0,48"
       position="1.1650391e-05,2.6367188e-05" />
    <sodipodi:guide
       id="guide4158"
       orientation="-4,0"
       position="48.000012,2.6367188e-05" />
    <sodipodi:guide
       id="guide4160"
       orientation="0,-48"
       position="48.000012,4.0000264" />
    <sodipodi:guide
       id="guide4162"
       orientation="0,-4"
       position="48.000012,48.000026" />
    <sodipodi:guide
       id="guide4164"
       orientation="48,0"
       position="44.000012,48.000026" />
    <sodipodi:guide
       id="guide4166"
       orientation="0,4"
       position="44.000012,2.6367188e-05" />
    <sodipodi:guide
       id="guide4168"
       orientation="-48,0"
       position="48.000012,2.6367188e-05" />
    <sodipodi:guide
       id="guide4170"
       orientation="0,-4"
       position="4.0000422,48.000026" />
    <sodipodi:guide
       id="guide4172"
       orientation="48,0"
       position="4.2167969e-05,48.000026" />
    <sodipodi:guide
       id="guide4174"
       orientation="0,4"
       position="4.2167969e-05,2.6367188e-05" />
    <sodipodi:guide
       id="guide4176"
       orientation="-48,0"
       position="4.0000422,2.6367188e-05" />
  </sodipodi:namedview>
  <defs
     id="defs5455">
    <linearGradient
       id="linearGradient4172"
       inkscape:collect="always">
      <stop
         id="stop4174"
         offset="0"
         style="stop-color:#b3b3b3;stop-opacity:1" />
      <stop
         id="stop4176"
         offset="1"
         style="stop-color:#ffffff;stop-opacity:1" />
    </linearGradient>
    <linearGradient
       inkscape:collect="always"
       id="linearGradient4159">
      <stop
         style="stop-color:#2a2c2f;stop-opacity:1"
         offset="0"
         id="stop4161" />
      <stop
         style="stop-color:#424649;stop-opacity:1"
         offset="1"
         id="stop4163" />
    </linearGradient>
    <linearGradient
       y2="517.79797"
       x2="400.57138"
       y1="545.79797"
       x1="400.57138"
       gradientTransform="matrix(1.6428588,0,0,1.6428588,-249.51086,-349.8709)"
       gradientUnits="userSpaceOnUse"
       id="linearGradient4224"
       xlink:href="#linearGradient4159"
       inkscape:collect="always" />
    <linearGradient
       gradientTransform="matrix(0.66069472,0,0,0.66069472,119.96602,171.58168)"
       gradientUnits="userSpaceOnUse"
       y2="509.33136"
       x2="441.04468"
       y1="542.05408"
       x1="442.2796"
       id="linearGradient4278"
       xlink:href="#linearGradient4172"
       inkscape:collect="always" />
    <linearGradient
       y2="517.79797"
       x2="400.57138"
       y1="545.79797"
       x1="400.57138"
       gradientTransform="matrix(1.6428588,0,0,1.6428588,-249.51086,-349.8709)"
       gradientUnits="userSpaceOnUse"
       id="linearGradient4170"
       xlink:href="#linearGradient4172"
       inkscape:collect="always" />
    <clipPath
       clipPathUnits="userSpaceOnUse"
       id="clipPath4436">
      <rect
         ry="22"
         y="453.23608"
         x="426.29868"
         height="44"
         width="44"
         id="rect4438"
         style="opacity:1;fill:url(#linearGradient4440);fill-opacity:1;stroke:none" />
    </clipPath>
    <linearGradient
       inkscape:collect="always"
       xlink:href="#linearGradient4159"
       id="linearGradient4440"
       gradientUnits="userSpaceOnUse"
       gradientTransform="matrix(1.5714302,0,0,1.5714302,-181.17136,-360.44722)"
       x1="400.57138"
       y1="545.79797"
       x2="400.57138"
       y2="517.79797" />
  </defs>
  <metadata
     id="metadata5458">
    <rdf:RDF>
      <cc:Work
         rdf:about="">
        <dc:format>image/svg+xml</dc:format>
        <dc:type
           rdf:resource="http://purl.org/dc/dcmitype/StillImage" />
        <dc:title />
      </cc:Work>
    </rdf:RDF>
  </metadata>
  <g
     transform="translate(-384.57143,-499.798)"
     id="layer1"
     inkscape:groupmode="layer"
     inkscape:label="Layer 1">
    <g
       id="g3249"
       transform="matrix(0.95833333,0,0,0.95833333,17.0238,21.824915)">
      <rect
         ry="23"
         y="500.798"
         x="385.57144"
         height="46"
         width="46"
         id="rect4222"
         style="opacity:1;fill:url(#linearGradient4224);fill-opacity:1;stroke:none" />
      <rect
         style="opacity:1;fill:none;fill-opacity:1;stroke:url(#linearGradient4170);stroke-width:2;stroke-miterlimit:4;stroke-dasharray:none"
         id="rect4168"
         width="46"
         height="46"
         x="385.57144"
         y="500.798"
         ry="23" />
      <path
         id="path4217"
         transform="translate(384.57143,499.798)"
         d="m 27.705078,8.5175781 c 0.20654,0.20651 0.311419,0.50443 0.261719,0.8125 L 25.855469,22.439453 c 0.30767,0.40112 0.506812,0.881483 0.570312,1.408203 l 15.085938,15.085938 c 2.699858,-3.166182 4.556913,-7.075316 5.21875,-11.390625 L 27.705078,8.5175781 Z M 21.513672,26.242188 37.740234,42.46875 c 1.380242,-1.026644 2.635911,-2.208207 3.751954,-3.513672 l -8.00586,-8.005859 c -0.205084,0.31589 -0.611272,0.424923 -0.949219,0.265625 l -0.08594,-0.08594 -8.039063,-4.177734 c -0.27055,0.08371 -0.551759,0.140625 -0.849609,0.140625 -0.79898,0 -1.524108,-0.324889 -2.048828,-0.849609 z"
         style="fill:#000000;fill-opacity:0.07843137"
         inkscape:connector-curvature="0" />
      <path
         style="fill:url(#linearGradient4278);fill-opacity:1"
         sodipodi:nodetypes="cccccccssccccccsssss"
         inkscape:connector-curvature="0"
         id="path5"
         d="m 411.04034,523.82005 c -0.0635,-0.52672 -0.26365,-1.00708 -0.57132,-1.4082 l 2.11232,-13.10924 c 0.0787,-0.48776 -0.23428,-0.9528 -0.71558,-1.06398 l -0.0237,-0.005 c -0.48129,-0.11132 -0.96632,0.16974 -1.10954,0.64255 l -3.84809,12.70827 c -0.94832,0.47684 -1.60662,1.44885 -1.60662,2.58091 0,1.59844 1.29982,2.89904 2.89818,2.89904 0.29785,0 0.57951,-0.0582 0.85006,-0.14191 l 8.03911,4.17771 c 0.4423,0.22977 0.98673,0.0863 1.25815,-0.33178 l 0.0115,-0.0184 c 0.2715,-0.41791 0.18124,-0.97374 -0.20884,-1.28424 z m -4.29579,0.34496 c 0,-0.78925 0.64239,-1.43162 1.43161,-1.43162 0.78994,0 1.43231,0.64237 1.43231,1.43162 0,0.78982 -0.64237,1.4323 -1.43231,1.4323 -0.78922,0 -1.43161,-0.64239 -1.43161,-1.4323 z" />
      <path
         id="path3243"
         transform="translate(384.57143,499.798)"
         d="m 27.705078,8.5175781 c 0.20654,0.20651 0.311419,0.50443 0.261719,0.8125 L 25.855469,22.439453 c 0.30767,0.40112 0.506812,0.881483 0.570312,1.408203 l 15.085938,15.085938 c 2.699858,-3.166182 4.556913,-7.075316 5.21875,-11.390625 L 27.705078,8.5175781 Z M 21.513672,26.242188 37.740234,42.46875 c 1.380242,-1.026644 2.635911,-2.208207 3.751954,-3.513672 l -8.00586,-8.005859 c -0.205084,0.31589 -0.611272,0.424923 -0.949219,0.265625 l -0.08594,-0.08594 -8.039063,-4.177734 c -0.27055,0.08371 -0.551759,0.140625 -0.849609,0.140625 -0.79898,0 -1.524108,-0.324889 -2.048828,-0.849609 z"
         style="fill:#000000;fill-opacity:0.07843137"
         inkscape:connector-curvature="0" />
    </g>
  </g>
</svg>
