<svg height="48" width="48" xmlns="http://www.w3.org/2000/svg" xmlns:xlink="http://www.w3.org/1999/xlink"><linearGradient id="a" gradientUnits="userSpaceOnUse" x1="399.57144" x2="399.57144" y1="545.79797" y2="517.79797"><stop offset="0" stop-color="#3889e9"/><stop offset="1" stop-color="#5ea5fb"/></linearGradient><linearGradient id="b" gradientTransform="matrix(1.1037577 0 0 1.1001895 382.90055 514.18825)" gradientUnits="userSpaceOnUse" x1="16.038231" x2="16.038231" y1="29.505291" y2="2.319564"><stop offset="0" stop-color="#0164c2"/><stop offset="1" stop-color="#00a9f3"/></linearGradient><linearGradient id="c" gradientUnits="userSpaceOnUse" x1="400.55615" x2="400.55615" y1="546.92657" y2="516.4751"><stop offset="0" stop-color="#187ced"/><stop offset="1" stop-color="#42d6fc"/></linearGradient><g transform="matrix(1.487531072623 0 0 1.487531072623 -571.901205407812 -767.217779650879)"><circle cx="400.57138" cy="531.79791" fill="url(#a)" r="0"/><g transform="matrix(1.0508504 0 0 1.0508504 -20.353166 -26.940048)"><circle cx="400.57138" cy="531.79791" fill="url(#c)" r="13.999958" stroke="url(#c)" stroke-width="1.427415"/><path d="m400.58867 517.1292c-1.85598 0-3.62255.35291-5.25513.97257-.11873.10877-.27308.19228-.39518.18193-.0172-.002-.0332-.0116-.051-.0186-.80476.3356-1.56814.74678-2.292 1.2132.094.15218.122.32162-.0713.40394-.0325.0131-.44189.0551-.58485.0521-2.05845 1.4909-3.7097 3.49609-4.76512 5.83692.017-.003.0317-.01.0496-.0108.16019-.003.3907.0428.54456.0756.14198.0291.2565.12404.37939.13324.34872.0266.43256-.24393.71704-.39534.29399.041.48904-.05.75447-.0204.18094.0204.31166.21264.45265.22345.11861.0116.22297-.11079.33772-.0933.11151.0175.30376.25947.32191.39533.0235.16908-.1248.32134-.076.50707.17772.18037.50058.21693.75444.32085.16536-.13582.0222-.38782 0-.5844-.003-.0868.0116-.16376 0-.24352-.0146-.13539-.0731-.25939-.074-.37527-.003-.53515.43312-.78562.79322-.9969.15588-.0921.27861-.25349.41385-.3209.19105-.0954.33331-.11769.49145-.20627.28585-.16003.53095-.28845.75446-.46979.10317-.24267.01-.56804.0192-.80787.10322-.0631.19216.0272.30175.0187.17244-.0355.1868-.27839.28453-.37523.0567-.0557.2125-.0951.28304-.15044.1719-.13436.22786-.33737.37802-.3953.0539-.022.17803-.0149.26297-.0382.11168-.0296.27068-.16121.45262-.22338.11858-.041.39017-.0496.43542-.0944.0559-.0567-.00078-.21586.0192-.30079.0915-.42453.73299-.51451 1.11222-.65747.26581-.0999.53852-.2842.8306-.22776-.0573.20177-.32924.13027-.28313.3753.0636.34.52046-.0971.64097-.14754.23012-.0965.62481-.15576.92684-.26499.26485-.0965.73966-.2438.49007-.54572-.20825-.0116-.30858.24351-.49007.32084-.12535.0205-.10114-.10456-.20836-.11454-.10131-.0116-.15857.0934-.26303.0753-.10376-.017-.24958-.17978-.26581-.30078-.0411-.31393.26617-.44335.39665-.67754-.0866-.28393-.48037-.0579-.71852-.16898.0234-.16908.19845-.28568.39659-.31798.16243-.0272.52695-.0131.62368.0724.0561.0482.004.16606.0947.24492.0961.0868.21442.0774.33919.0575.0444-.21429-.27958-.16053-.24429-.30224.25485-.16618.66947-.0299.98151-.0756.17959-.0266.36814-.15279.52735-.24205.15139-.0859.34806-.23519.5087-.0945.0426.15356-.13991.20438-.22563.28074-.28863.25598-.58606.54922-.81042.84651.13761.13385.3878.0664.62079.0944.0911.0116.20542.0385.30172.0562.11274.0205.23239.014.32044.0372.15855.0384.2009.20769.35784.20769.25813-.00046.26121-.27878.11491-.45264.0462-.17749.11858-.26958.0564-.39391-.11627-.23179-.54284-.0116-.56474-.30079-.0134-.18752.15741-.17914.2256-.31939-.031-.36232.29812-.38857.26295-.71332-.0147-.13586-.13015-.13774-.22561-.26501-.0485-.0621-.0723-.1825-.12788-.23633-.44028-.0383-.88553-.0629-1.33637-.0629zm-7.59319 2.95925h.002c.088.0116.19396.10653.30031.11468.10024.003.18375-.0555.24575-.0383.15777.0411.22428.27893.0754.39532-.12333.0149-.17141-.0541-.26438-.0373-.25625.0429-.35456.5437-.54609.52713-.18059-.0145-.27833-.45382-.0946-.58439.0116-.11405-.0838-.13228-.0774-.24495.0545-.0692.20918-.14382.35925-.13175zm-.84925.0589c.0525.002.0918.014.11207.037-.0252.20046-.1824.1873-.33771.28073-.26827.16136-.42333.4073-.50869.752-.0249.0999-.28905.36608-.41673.33948-.2992-.0628.0831-.6126.15088-.69616.0759-.0926.17689-.17379.26585-.28073.0862-.10351.14246-.24334.22561-.30079.0911-.0628.35109-.13781.5087-.13173zm2.23309.67606c.0957.002.182.0175.22132.0562-.0615.24836-.59837.18278-.79465.0929.0116-.0936.15957-.11953.28307-.13174.0871-.003.19462-.0205.29026-.0173zm-1.2214.45839c.0636-.002.12838.0116.1954.0299-.17362.14477-.36141.22677-.6596.32083-.14337.0447-.39096.10079-.41528-.0589-.0297-.1956.20966-.1501.34054-.16759.16486-.023.3458-.11843.53894-.12466zm18.73867 1.11438c-.0227.054-.0383.10603-.0359.15753.0116.0908.1114.17807.13361.30083.0116.0652-.0306.20563 0 .265.0909.17558.32859.0499.49867.0589-.1932-.26517-.38615-.53084-.59638-.78205zm.96424 1.29343c-.0272.12957-.1154.29857-.18681.40678-.16446.24932-.38786.26095-.62367.39389-.19665.11114-.28133.29661-.39662.48987-.12496.20879-.20235.33493-.15085.63745-.16863.33334-.42392.53755-.77314.69611-.10313.0465-.24438.0638-.33915.13173-.0752.0543-.11831.19933-.2256.3194-.13228.14678-.27102.20871-.34057.32085-.0539.0868-.0721.25902-.13217.37528-.0809.15796-.25207.23533-.35788.39535-.0482.0738-.0808.22396-.13359.32087-.11958.21649-.32373.37246-.30181.5629.0221.18406.23145.21627.24572.37671.003.0907-.0601.14614-.0564.24494.003.14432.10068.24563.11207.35668.0282.27921-.0951.39064-.148.58152-.0252.0912-.014.1938-.0384.26501-.047.13974-.24183.26588-.24575.43111-.002.11748.12095.21189.13084.37676.003.1138-.0563.23497-.0356.33948.0398.2046.40661.4426.56623.60155.21341.21279.49284.37743.58484.60163.0772.19038.0765.43801.22562.58154.11003.10591.29302.17198.43397.28214.13152.10269.27476.19169.4153.30078.22963.17912.57685.53607.94267.50855.19106-.0131.38685-.16932.60359-.20772.22292-.0395.51225-.0605.73714-.037.17229.017.34974.11991.52883.11169.18909-.0116.40595-.15138.62081-.2449.17288-.0748.38504-.15815.6179-.21919.10687-.71541.16383-1.44837.16383-2.19439 0-3.00334-.90096-5.78701-2.44289-8.10721zm-24.33732 4.92877c-.31345.0173-.51877.0313-.69696.11172-.40822.18517-.32939.73504-.73725.86515-.14096.0446-.33466.0471-.4899.0754-.13411.0247-.29738.0971-.43543.0943-.0384-.00047-.0927-.0292-.14087-.0438-.0359.25782-.0661.51855-.0894.78059.38804.0737.5883.58671.93125.7563.0939.0467.2167.0495.33766.0758.0973.022.1718.0628.2658.0946.1996.0673.44397.0594.60361.13041.24046.1064.41684.55691.62366.67751.0116.12152-.0241.2847.0192.37524.0974.13215.2356.10281.39656.18908.19261.10351.25154.37093.43402.45263.0629.028.22088.0243.32045.0548.25008.0752.3317.36385.54608.30082.14058-.041.12949-.18547.1523-.31944.0929-.0999.19431-.25928.33913-.26212.23443-.0116.25531.24146.34056.46837.0484.12829.17406.24001.20695.37529.0585.23369.0294.93319-.0206 1.07286-.0591.17136-.2919.24402-.43541.43401-.0675.0892-.0996.21957-.15089.28217-.0924.11222-.22974.14148-.29886.24495-.0388.0583-.077.18333-.11506.2621-.11328.23933-.26486.40887-.16958.69615.0396.11821.22513.19746.22563.3366.00053.16375-.3494.31035-.37647.48986-.0206.13358.10823.37196.15084.54575.0312.13135.28015.21345.35784.30079.13242.14821.23827.35816.35923.54432.23923.36613.4267.81264.65962 1.16738.12306.18581.29591.35285.37791.54572.0416.0971.0359.21334.0743.3008.13478.30334.73021.62005 1.03751.77063.14381.0695.30343.0944.43542.16756.19995.11115.59601.40966.69697.58444.0901.15707.14594.53943.18965.7892.0586.33011.00067.58358.0192.94108.0116.19335.0735.38772.076.58156.00075.0677-.0359.11834-.0386.18762-.00011.0108.004.0243.004.0355 1.85316.83591 3.90667 1.31205 6.08001 1.31205.39265 0 .78068-.0207 1.16539-.0508.0173-.0289.0323-.059.0537-.086.0888-.11592.16728-.2174.2257-.31944.0559-.3434-.13742-.58325-.0564-.88373.0902-.33767.55841-.54385.88672-.69622.11281-.0523.22846-.13714.32037-.169.22721-.0789.51087-.0357.71852-.11171.35352-.12895.39044-.5069.56474-.82794.0826-.15194.19085-.30424.20695-.41248.0139-.0971-.0357-.18886-.0205-.30367.0169-.11356.11926-.2118.15087-.33663.0411-.16287.0591-.40152.0591-.58294 0-.14895-.0697-.2796-.0753-.41398-.0247-.48778.17678-.54235.35784-.80783.0909-.13185.12484-.28222.18823-.37674.30401-.45201.83139-.67024.79324-1.35356-.0116-.22611-.15498-.73712-.32188-.80927-.0954-.0411-.31452-.003-.45268-.0562-.44593-.16576-.70762-.71678-1.16973-.75202-.0984-.0116-.18924.0401-.3003.0383-.18288-.0116-.45861-.12765-.66103-.15041-.12869-.0131-.30074.0379-.37799 0-.1177-.0572-.12975-.27352-.22561-.33805-.0755-.0526-.22383-.0696-.33913-.11451-.18578-.0705-.33311-.15412-.54746-.16899-.066-.003-.14858.0313-.22562.0205-.1186-.0205-.21245-.15993-.32186-.22633-.13713-.0835-.26382-.12347-.32049-.24207.12387-.40504-.21847-.51794-.30179-.75199-.0396-.10969-.0218-.24164-.0564-.33946-.0497-.14016-.18819-.22112-.34058-.33803-.27301-.20945-.51516-.40611-.90532-.45407-.17153-.022-.3417.0516-.54896.0383-.21958-.0131-.49531-.20535-.65954-.39248-.15973-.18272-.23738-.34668-.37652-.43401-.13178-.0845-.30668-.0825-.39663-.16758-.04-.0372-.0328-.1009-.0761-.18912-.0661-.13674-.17753-.21281-.0946-.37667-.15036-.0771-.1545.14299-.31901.11451-.1467-.20744-.27055-.30573-.60358-.24492-.15248.0281-.23761.22012-.41528.22492-.14573.0116-.26021-.16187-.45264-.18913-.14529-.0205-.31049.0388-.41389.0201-.16102-.032-.21072-.1657-.35783-.26213-.10786-.0704-.31742-.19101-.37792-.18907-.18963.0116-.32477.40169-.58629.2636-.12711-.1606.20701-.24519.0564-.39542-.11427-.11391-.21034.0521-.30174.11467-.10479.0718-.20325.14349-.31905.18621-.25917.0965-.42114.0463-.62366.15041-.18753.0966-.19553.25881-.30177.45118-.0871.1576-.28475.38723-.41532.39675-.1581.0116-.30923-.22033-.45264-.28213-.43208-.18658-.64138.16563-1.00012.17041-.33298.0116-.80855-.53592-.79184-.84795.003-.19036.10985-.47921.13217-.71478.0206-.18732.14875-.30019.15094-.47124.003-.2284-.30398-.40401-.45272-.43114-.35247-.0645-.84183.14138-1.24581-.0205-.0768-.12743.0905-.21552.13361-.33947.0248-.0702.01-.16453.0358-.24208.0444-.11978.17068-.2126.22697-.33946.0415-.0966.0528-.23654.0946-.35666.0501-.13678.14023-.22491.15091-.32084.0131-.12667-.034-.27316-.1337-.35666zm5.04392 3.98057c.1279.0116.14389.27532.0129.29654-.14109.0221-.2128-.22055-.0756-.28367.0233-.0116.045-.0116.0631-.0108v-.002z" fill="url(#b)"/><circle cx="400.57138" cy="531.79791" fill="url(#a)" r="0" transform="matrix(1.55822993102 0 0 1.55822993102 -264.298285246431 -296.910724934234)"/></g></g><path d="m124.918 52.205c-.436-.571-1.005-.911-1.711-1.019l-14.909-2.281c-.815-2.607-1.929-5.268-3.341-7.984.977-1.358 2.443-3.272 4.398-5.744s3.34-4.277 4.155-5.418c.435-.598.651-1.222.651-1.874 0-.76-.189-1.357-.57-1.792-1.955-2.771-6.436-7.387-13.443-13.851-.65-.543-1.33-.814-2.035-.814-.815 0-1.467.244-1.956.732l-11.568 8.718c-2.228-1.141-4.672-2.146-7.333-3.015l-2.281-14.99c-.054-.706-.367-1.29-.937-1.752-.571-.462-1.235-.692-1.997-.692h-18.086c-1.575 0-2.553.76-2.933 2.281-.706 2.715-1.494 7.766-2.363 15.153-2.553.816-5.024 1.848-7.414 3.097l-11.243-8.718c-.706-.543-1.412-.814-2.118-.814-1.195 0-3.761 1.941-7.699 5.825s-6.612 6.803-8.025 8.758c-.489.706-.733 1.331-.733 1.874 0 .652.271 1.304.814 1.955 3.639 4.4 6.545 8.147 8.718 11.244-1.358 2.498-2.417 4.997-3.177 7.495l-15.154 2.281c-.597.109-1.113.462-1.548 1.06-.435.597-.652 1.222-.652 1.873v18.087c0 .707.217 1.344.652 1.914.435.571 1.005.912 1.711 1.02l14.91 2.2c.76 2.661 1.873 5.349 3.34 8.064-.977 1.358-2.444 3.272-4.399 5.744s-3.341 4.277-4.155 5.418c-.435.599-.652 1.222-.652 1.874 0 .706.19 1.33.57 1.873 2.118 2.934 6.599 7.497 13.443 13.688.598.598 1.277.896 2.037.896.815 0 1.494-.244 2.037-.732l11.488-8.719c2.228 1.141 4.672 2.146 7.333 3.016l2.281 14.99c.055.706.367 1.29.937 1.752.57.463 1.236.692 1.996.692h18.087c1.577 0 2.554-.76 2.935-2.281.705-2.716 1.492-7.766 2.361-15.153 2.553-.815 5.025-1.848 7.414-3.097l11.244 8.8c.76.488 1.467.732 2.118.732 1.194 0 3.747-1.927 7.657-5.784 3.912-3.856 6.6-6.79 8.065-8.8.489-.543.734-1.167.734-1.873s-.271-1.387-.815-2.037c-3.91-4.78-6.816-8.527-8.718-11.243 1.086-2.01 2.146-4.481 3.178-7.414l15.072-2.28c.651-.109 1.196-.463 1.63-1.061s.65-1.223.65-1.874v-18.086c.001-.706-.215-1.343-.651-1.914zm-47.171 25.541c-4.073 4.074-8.989 6.111-14.747 6.111s-10.673-2.037-14.747-6.111c-4.073-4.073-6.11-8.988-6.11-14.746s2.036-10.673 6.11-14.747c4.074-4.073 8.99-6.11 14.747-6.11 5.758 0 10.674 2.037 14.747 6.11 4.073 4.074 6.11 8.989 6.11 14.747s-2.037 10.673-6.11 14.746z" fill="#fff" fill-opacity=".85" transform="matrix(.183792676674 0 0 .183792676674 12.42134113303 12.421151215385)"/></svg>