<svg height="48" viewBox="0 0 48 48.000001" width="48" xmlns="http://www.w3.org/2000/svg" xmlns:xlink="http://www.w3.org/1999/xlink">
  <linearGradient id="a" gradientUnits="userSpaceOnUse" x1="-71.941" x2="-71.692" y1="1046.9" y2="1004.5">
    <stop offset="0" stop-color="#3d4d00" stop-opacity=".996078" />
    <stop offset="1" stop-color="#84a600" />
  </linearGradient>
  <g transform="translate(0 -1004.4)">
    <rect fill-opacity=".4902" height="43.435" rx="2.1718" transform="matrix(.99565 -.093157 .093157 .99565 0 0)" width="43.435" x="-93.626" y="1005" />
    <rect fill="url(#a)" height="43.396" rx="2.1698" transform="matrix(.99565 -.093157 .093157 .99565 0 0)" width="43.396" x="-93.63" y="1004" />
    <path d="m37.291 5.9199-.52734.050781c-.21878.02-.30349 1.0013-.19141 2.1992l.40039 4.2715 2.2266 2.2266-.99805.95703c-.11187.10733.14068.54961.56445.99414l-.083984-.083985.14453 1.5391-1.4648-1.4648.007813.089844-9.8164-9.8164c-.0307-.031-.060333-.045969-.089843-.042969l-.52734.048828c-.21878.02-.30544 1.0033-.19336 2.2012l.79883 8.5293-9.8164-9.8164c-.03082-.031-.062227-.045969-.091797-.042969l-.52539.048828c-.21878.02-.30544 1.0013-.19336 2.1992l.79883 8.5312-9.8164-9.8164c-.030819-.031-.062232-.045969-.091797-.042969l-.52734.048828c-.21878.021-.30349 1.0013-.19141 2.1992l.09375.99414 2.6348 2.6348-1.0781 1.0332c-.065135.062489.015001.24892.1582.47266l.14648 1.5547-1.4668-1.4668 2.2012 23.537c.096936 1.036.30862 1.8848.50586 2.082l4.4668 4.4668 30.648-2.8672c1.1968-.11198 2.071-1.1665 1.959-2.3633l-2.5879-27.656-7.3867-7.3867c-.03076-.031-.060343-.045969-.089843-.042969z" fill-opacity=".078431" transform="translate(0 1004.4)" />
    <g fill="#94ad8f" fill-opacity=".99171">
      <path d="m37.291 1010.3-.52734.051c-.21878.02-.30349 1.0013-.19141 2.1992l.40039 4.2715a2.2211 2.2211 0 0 0 -1.2832 2.2227 2.2211 2.2211 0 0 0 1.6719 1.9453l1.9004 20.32c.11208 1.1979.37888 2.1455.59766 2.125l.52734-.049c.21878-.02.30349-1.0013.19141-2.1993l-1.8965-20.271a2.2211 2.2211 0 0 0 1.4297-2.2852 2.2211 2.2211 0 0 0 -1.8281-1.9785l-.39453-4.2246c-.11208-1.198-.37888-2.1474-.59766-2.127z" />
      <path d="m27.463 1011.2-.52734.049c-.21878.02-.30544 1.0032-.19336 2.2011l1.7559 18.77a2.2211 2.2211 0 0 0 -1.3633 2.2578 2.2211 2.2211 0 0 0 1.7598 1.9668l.53906 5.7637c.11208 1.1979.37888 2.1474.59766 2.1269l.52539-.051c.21878-.02.30544-1.0013.19336-2.1992l-.53906-5.7715a2.2211 2.2211 0 0 0 1.3477-2.25 2.2211 2.2211 0 0 0 -1.7422-1.9629l-1.7578-18.775c-.11208-1.1979-.37693-2.1454-.5957-2.125z" />
      <path d="m17.633 1012.1-.52539.049c-.21878.02-.30544 1.0013-.19336 2.1992l2.498 26.703a2.2211 2.2211 0 0 0 -1.373 2.2598 2.2211 2.2211 0 0 0 2.418 2.0059 2.2211 2.2211 0 0 0 2.0059-2.42 2.2211 2.2211 0 0 0 -1.7324-1.9609l-2.5-26.711c-.11208-1.198-.37888-2.1455-.59766-2.125z" />
      <path d="m7.8047 1013-.52734.049c-.21878.021-.30349 1.0013-.19141 2.1992l.09375.9942a2.2211 2.2211 0 0 0 -1.3691 2.2597 2.2211 2.2211 0 0 0 1.7637 1.9688l2.2012 23.537c.11208 1.1979.37888 2.1455.59766 2.125l.52734-.049c.21878-.021.30349-1.0013.19141-2.1992l-2.2012-23.547a2.2211 2.2211 0 0 0 1.3418-2.25 2.2211 2.2211 0 0 0 -1.7363-1.961l-.09375-1.0019c-.11208-1.1979-.37888-2.1455-.59766-2.125z" fill="#94ad8e" fill-opacity="1" />
    </g>
  </g>
</svg>
