<?xml version="1.0" encoding="UTF-8" standalone="no"?>
<svg
   xmlns:dc="http://purl.org/dc/elements/1.1/"
   xmlns:cc="http://creativecommons.org/ns#"
   xmlns:rdf="http://www.w3.org/1999/02/22-rdf-syntax-ns#"
   xmlns:svg="http://www.w3.org/2000/svg"
   xmlns="http://www.w3.org/2000/svg"
   xmlns:sodipodi="http://sodipodi.sourceforge.net/DTD/sodipodi-0.dtd"
   xmlns:inkscape="http://www.inkscape.org/namespaces/inkscape"
   height="48"
   width="48"
   version="1.1"
   id="svg32"
   sodipodi:docname="pycharm.svg"
   inkscape:version="0.92.2 (5c3e80d, 2017-08-06)">
  <metadata
     id="metadata38">
    <rdf:RDF>
      <cc:Work
         rdf:about="">
        <dc:format>image/svg+xml</dc:format>
        <dc:type
           rdf:resource="http://purl.org/dc/dcmitype/StillImage" />
      </cc:Work>
    </rdf:RDF>
  </metadata>
  <defs
     id="defs36" />
  <sodipodi:namedview
     pagecolor="#ffffff"
     bordercolor="#666666"
     borderopacity="1"
     objecttolerance="10"
     gridtolerance="10"
     guidetolerance="10"
     inkscape:pageopacity="0"
     inkscape:pageshadow="2"
     inkscape:window-width="640"
     inkscape:window-height="480"
     id="namedview34"
     showgrid="false"
     inkscape:zoom="5.875"
     inkscape:cx="-7.7446809"
     inkscape:cy="24"
     inkscape:current-layer="svg32" />
  <linearGradient
     id="a"
     gradientUnits="userSpaceOnUse"
     x1="11.660663"
     x2="10.415977"
     y1="56.928329"
     y2="32.880904">
    <stop
       offset="0"
       stop-color="#cdd0d1"
       id="stop2" />
    <stop
       offset="1"
       stop-color="#f6f6f7"
       id="stop4" />
  </linearGradient>
  <linearGradient
     id="b"
     gradientUnits="userSpaceOnUse"
     x1="14.428456"
     x2="5.505778"
     y1="47.467573"
     y2="39.642166">
    <stop
       offset="0"
       stop-color="#16a085"
       id="stop7" />
    <stop
       offset="1"
       stop-color="#2dcb72"
       id="stop9" />
  </linearGradient>
  <filter
     id="c"
     color-interpolation-filters="sRGB">
    <feColorMatrix
       values="0.21 0.72 0.072 0 0 0.21 0.72 0.072 0 0 0.21 0.72 0.072 0 0 0 0 0 1 0"
       id="feColorMatrix12" />
  </filter>
  <linearGradient
     id="d"
     gradientUnits="userSpaceOnUse"
     x1="-36.269841119541"
     x2="-9.404565898507"
     y1="51.897396711501"
     y2="7.457087775484">
    <stop
       offset="0"
       stop-color="#38da82"
       id="stop15" />
    <stop
       offset="1"
       stop-color="#e4f451"
       id="stop17" />
  </linearGradient>
  <g
     transform="matrix(0.69654364,-0.00959983,0.00959983,0.69654364,29.521126,1.1476606)"
     id="g30">
    <rect
       height="37.355316"
       ry="1.5437779"
       transform="rotate(-0.19575657)"
       width="49.639671"
       x="-33.838921"
       y="8.5719137"
       id="rect20"
       style="fill:#07c3f2" />
    <rect
       height="37.355072"
       ry="1.5437779"
       transform="rotate(-8.8157654)"
       width="49.639862"
       x="-42.623764"
       y="13.684669"
       id="rect22"
       style="fill:url(#d)" />
    <circle
       cx="11.184063"
       cy="45.12323"
       r="12.348694"
       transform="matrix(0.78017865,0,0,0.78017865,2.581938,10.521665)"
       id="circle24"
       style="fill:url(#a);filter:url(#c)" />
    <path
       d="M 14.428456,47.271288 5.5057777,47.467572 9.7971304,39.642164 Z"
       transform="matrix(-0.0138427,0.90747861,-0.90747861,-0.0138427,51.546127,37.320471)"
       id="path26"
       style="fill:url(#b);filter:url(#c)"
       inkscape:connector-curvature="0" />
    <path
       d="m -20.607197,43.945891 c 0.152945,-0.159931 0.166602,-0.356907 0.05528,-0.79749 l -0.147831,-0.5851 -4.912273,0.875389 -4.912278,0.87539 0.07474,0.658328 c 0.04942,0.435769 0.140206,0.685169 0.268444,0.737701 0.106552,0.04365 2.258573,-0.287654 4.782269,-0.736235 3.53288,-0.627964 4.635271,-0.864468 4.791647,-1.02799 z m 6.050544,-10.340371 c 0.768861,-0.466326 1.716872,-1.407544 1.859973,-1.84664 0.08127,-0.249366 -0.0043,-0.368987 -0.57259,-0.800793 -1.010494,-0.767745 -1.095525,-0.772175 -1.783683,-0.0929 -0.326018,0.321806 -0.801546,0.685255 -1.056729,0.807666 -2.037673,0.977458 -4.161115,-0.169339 -4.570847,-2.468551 -0.505998,-2.839311 2.118527,-4.808855 4.663153,-3.499424 0.26973,0.138803 0.579077,0.236569 0.687428,0.21726 0.21954,-0.03916 1.285412,-1.713588 1.245217,-1.956227 -0.07074,-0.426952 -1.862539,-1.091066 -3.0485,-1.129888 -4.393052,-0.143809 -7.366292,3.66676 -6.032624,7.731543 0.719047,2.191537 2.667844,3.711198 4.994986,3.895074 0.987668,0.07804 2.7688,-0.344356 3.614215,-0.857114 z m -15.081613,2.777037 c 0.155181,-0.166046 0.149022,-0.486707 -0.03211,-1.672285 l -0.224082,-1.466852 1.447235,-0.33415 c 1.748418,-0.403686 2.564131,-0.825178 3.240716,-1.674538 0.746611,-0.937265 0.936365,-1.761696 0.704692,-3.061722 -0.231481,-1.29881 -0.69449,-2.008133 -1.715265,-2.627577 -1.098634,-0.666698 -1.65807,-0.700106 -4.509023,-0.269269 -1.372356,0.207388 -2.640373,0.442297 -2.817809,0.522024 l -0.32261,0.144944 0.967606,5.429737 c 0.751926,4.219569 1.00725,5.438069 1.145492,5.467126 0.373063,0.07841 1.928837,-0.258046 2.115188,-0.457442 z m -0.710513,-5.635816 c -0.05409,-0.08963 -0.192237,-0.789294 -0.306994,-1.55481 l -0.20874,-1.391835 1.122151,-0.236679 c 1.694583,-0.357417 2.453781,-0.02766 2.670322,1.159853 0.113842,0.625164 -0.283065,1.338824 -0.912937,1.640968 -0.69082,0.331378 -2.243119,0.582568 -2.363805,0.382503 z"
       id="path28"
       inkscape:connector-curvature="0"
       style="fill:#ffffff" />
  </g>
</svg>
