<svg height="48" width="48" xmlns="http://www.w3.org/2000/svg" xmlns:xlink="http://www.w3.org/1999/xlink"><linearGradient id="a" gradientUnits="userSpaceOnUse" x1="-593.11644338295" x2="-542.30058267075" y1="823.29493555127" y2="763.47850266952"><stop offset="0" stop-color="#235ea2"/><stop offset="1" stop-color="#1992f1"/></linearGradient><linearGradient id="b" gradientUnits="userSpaceOnUse" x1="40.070004" x2="9.478926" y1="28.995392" y2="17.09"><stop offset="0" stop-color="#d5e5ff"/><stop offset="1" stop-color="#fff"/></linearGradient><linearGradient id="c" gradientTransform="matrix(.9166666 0 0 .91666668 -350.50685 -456.1651)" gradientUnits="userSpaceOnUse" x1="408.2847" x2="408.2847" y1="546.44092" y2="500.5705"><stop offset="0" stop-color="#d3d3d3"/><stop offset="1" stop-color="#fcf9f9"/></linearGradient><linearGradient id="d" gradientUnits="userSpaceOnUse" x1="23.97336358369" x2="24.31904904517" y1="45.85268269306" y2="2.08667544682"><stop offset="0" stop-color="#197ff1"/><stop offset="1" stop-color="#21c6fb"/></linearGradient><g stroke-width="2.019645"><path d="m45.723223 24.102669a21.749952 21.749952 0 0 1 -21.749953 21.749952 21.749952 21.749952 0 0 1 -21.7499519-21.749952 21.749952 21.749952 0 0 1 21.7499519-21.7499526 21.749952 21.749952 0 0 1 21.749953 21.7499526z" fill="url(#a)"/><path d="m45.723318 24.102764a21.749952 21.749952 0 0 1 -21.749952 21.749952 21.749952 21.749952 0 0 1 -21.7499525-21.749952 21.749952 21.749952 0 0 1 21.7499525-21.7499522 21.749952 21.749952 0 0 1 21.749952 21.7499522z" fill="url(#d)"/><circle cx="23.97327" cy="24.102669" fill="url(#a)" r="0"/></g><g fill="url(#b)" stroke-width=".761968" transform="scale(.94411045 1.0591981)"><path d="m8.387845 23.069254q0-3.984375 1.828125-6.296875 1.828125-2.328125 4.90625-2.328125 3 0 4.734375 2.015625l.125-1.703125h2.65625v23.40625h-2.890625v-8.0625q-1.75 1.875-4.65625 1.875-3.0625 0-4.890625-2.375-1.8125-2.390625-1.8125-6.328125zm2.890625.328125q0 2.90625 1.21875 4.5625 1.234375 1.65625 3.3125 1.65625 2.578125 0 3.9375-2.28125v-8.28125q-1.375-2.234375-3.90625-2.234375-2.09375 0-3.328125 1.671875-1.234375 1.65625-1.234375 4.90625z"/><path d="m41.59097 23.397379q0 3.875-1.78125 6.234375-1.78125 2.34375-4.78125 2.34375-3.203125 0-4.953125-2.265625l-.140625 1.953125h-2.65625v-24.0000001h2.890625v8.9531251q1.75-2.171875 4.828125-2.171875 3.078125 0 4.828125 2.328125 1.765625 2.328125 1.765625 6.375zm-2.890625-.328125q0-2.953125-1.140625-4.5625-1.140625-1.609375-3.28125-1.609375-2.859375 0-4.109375 2.65625v7.3125q1.328125 2.65625 4.140625 2.65625 2.078125 0 3.234375-1.609375 1.15625-1.609375 1.15625-4.84375z"/></g><path d="m45.040836 23.983051a21.023888 21.023888 0 0 1 -21.023887 21.023888 21.023888 21.023888 0 0 1 -21.0238879-21.023888 21.023888 21.023888 0 0 1 21.0238879-21.0238873 21.023888 21.023888 0 0 1 21.023887 21.0238873z" fill="none" stroke="url(#c)" stroke-width="1.952224"/></svg>