<?xml version="1.0" encoding="UTF-8" standalone="no"?>
<!-- Created with Inkscape (http://www.inkscape.org/) -->

<svg
   xmlns:dc="http://purl.org/dc/elements/1.1/"
   xmlns:cc="http://creativecommons.org/ns#"
   xmlns:rdf="http://www.w3.org/1999/02/22-rdf-syntax-ns#"
   xmlns:svg="http://www.w3.org/2000/svg"
   xmlns="http://www.w3.org/2000/svg"
   xmlns:xlink="http://www.w3.org/1999/xlink"
   xmlns:sodipodi="http://sodipodi.sourceforge.net/DTD/sodipodi-0.dtd"
   xmlns:inkscape="http://www.inkscape.org/namespaces/inkscape"
   width="48"
   height="48"
   id="svg3209"
   version="1.1"
   inkscape:version="0.91 r13725"
   sodipodi:docname="qelectrotech.svg">
  <defs
     id="defs3211">
    <linearGradient
       id="linearGradient4853"
       inkscape:collect="always">
      <stop
         id="stop4855"
         offset="0"
         style="stop-color:#6a82d4;stop-opacity:1" />
      <stop
         id="stop4857"
         offset="1"
         style="stop-color:#90b0e0;stop-opacity:1" />
    </linearGradient>
    <linearGradient
       gradientTransform="translate(62.561754,-1.7239424)"
       gradientUnits="userSpaceOnUse"
       y2="9"
       x2="9.0000019"
       y1="44.373558"
       x1="9.5314026"
       id="linearGradient4859"
       xlink:href="#linearGradient4853"
       inkscape:collect="always" />
  </defs>
  <sodipodi:namedview
     id="base"
     pagecolor="#5a5a5a"
     bordercolor="#666666"
     borderopacity="1.0"
     inkscape:pageopacity="0"
     inkscape:pageshadow="2"
     inkscape:zoom="5.6"
     inkscape:cx="-12.265183"
     inkscape:cy="26.393846"
     inkscape:document-units="px"
     inkscape:current-layer="g4416"
     showgrid="false"
     inkscape:snap-bbox="true"
     inkscape:window-width="1366"
     inkscape:window-height="642"
     inkscape:window-x="0"
     inkscape:window-y="33"
     inkscape:window-maximized="1"
     inkscape:snap-global="true"
     showborder="false">
    <inkscape:grid
       type="xygrid"
       id="grid3310"
       empspacing="5"
       visible="true"
       enabled="true"
       snapvisiblegridlinesonly="true" />
  </sodipodi:namedview>
  <metadata
     id="metadata3214">
    <rdf:RDF>
      <cc:Work
         rdf:about="">
        <dc:format>image/svg+xml</dc:format>
        <dc:type
           rdf:resource="http://purl.org/dc/dcmitype/StillImage" />
        <dc:title></dc:title>
      </cc:Work>
    </rdf:RDF>
  </metadata>
  <g
     inkscape:label="Layer 1"
     inkscape:groupmode="layer"
     id="layer1"
     transform="translate(0,-1004.3622)">
    <g
       id="g4416"
       transform="matrix(1.0574229,0,0,1.0574229,-1.3818846,-59.033964)">
      <g
         transform="matrix(1.2093215,0,0,1.3053519,-12.069313,1009.1204)"
         id="layer1-7"
         inkscape:label="Layer 1">
        <g
           id="g5481"
           transform="matrix(0.77761806,-0.01071721,0.01071721,0.77761806,30.946456,-1.6787268)">
          <g
             transform="matrix(0.99989043,0.01480318,-0.01480318,0.99989043,-73.27595,-4.8876133)"
             id="g4942">
            <rect
               style="opacity:1;fill:url(#linearGradient4859);fill-opacity:1;stroke:none;stroke-width:1.5;stroke-linecap:round;stroke-linejoin:round;stroke-miterlimit:4;stroke-dasharray:none;stroke-opacity:1"
               id="rect4851"
               width="48.232185"
               height="36.295765"
               x="47.935978"
               y="7.1644406"
               ry="1.5" />
            <g
               id="g4901"
               transform="matrix(0.02134781,0,0,0.02213552,49.523905,9.0531626)"
               style="opacity:1;fill:none;fill-opacity:1;stroke:#97b9ee;stroke-width:5.61226654;stroke-miterlimit:4;stroke-dasharray:none;stroke-opacity:1">
              <g
                 id="layer1-3"
                 transform="translate(0,435.82681)"
                 style="fill:none;fill-opacity:1;stroke:#97b9ee;stroke-width:5.61226654;stroke-miterlimit:4;stroke-dasharray:none;stroke-opacity:1" />
              <g
                 id="g3962"
                 transform="translate(0,435.82681)"
                 style="fill:none;fill-opacity:1;stroke:#97b9ee;stroke-width:5.61226654;stroke-miterlimit:4;stroke-dasharray:none;stroke-opacity:1" />
            </g>
          </g>
        </g>
      </g>
      <path
         id="rect6279"
         d="m 19.471161,1017.4693 c -1.765265,0 -3.228659,1.301 -3.46875,3 l -0.03125,0 -0.6875,0 -4.3125,0 -1.0000036,0 0,8 -1.9999998,0 0,1 5.0000034,0 0,-1 -2,0 0,-7 4.3125,0 0.6875,0 0.03125,0 c 0.240091,1.699 1.703485,3 3.46875,3 1.765265,0 3.228659,-1.301 3.46875,-3 l 0.03125,0 0.3125,0 3.6875,0 0,2 9,0 0,-2 2,0 0,16 -3.03125,0 c -0.24009,-1.699 -1.70348,-3 -3.46875,-3 -1.76527,0 -3.22866,1.301 -3.46875,3 l -3.125,0 c -0.20384,-0.5864 -0.75041,-1 -1.40625,-1 -0.82843,0 -1.5,0.6716 -1.5,1.5 0,0.8284 0.67157,1.5 1.5,1.5 0.65584,0 1.20241,-0.4136 1.40625,-1 l 3.125,0 c 0.24009,1.699 1.70348,3 3.46875,3 1.76527,0 3.22866,-1.301 3.46875,-3 l 3.03125,0 1,0 0,-18 -3,0 0,-2 -9,0 0,2 -3.6875,0 -0.3125,0 -0.03125,0 c -0.240091,-1.699 -1.703485,-3 -3.46875,-3 z m 0,1 c 0.503163,0 0.982791,0.1505 1.375,0.4063 l -1.375,1.375 -1.375,-1.375 c 0.392209,-0.2559 0.871837,-0.4063 1.375,-0.4063 z m -2.09375,1.125 1.375,1.375 -1.375,1.375 c -0.255774,-0.3922 -0.40625,-0.8718 -0.40625,-1.375 0,-0.5032 0.150476,-0.9828 0.40625,-1.375 z m 4.1875,0 c 0.255774,0.3922 0.40625,0.8718 0.40625,1.375 0,0.5032 -0.150476,0.9828 -0.40625,1.375 l -1.375,-1.375 1.375,-1.375 z m -2.09375,2.0938 1.375,1.375 c -0.392209,0.2557 -0.871837,0.4062 -1.375,0.4062 -0.503163,0 -0.982791,-0.1505 -1.375,-0.4062 l 1.375,-1.375 z m -10.5000034,8.7812 0,1 0.9999998,0 0,7 1.0000036,0 3.09375,0 c 0.20384,0.5864 0.75041,1 1.40625,1 0.82843,0 1.5,-0.6716 1.5,-1.5 0,-0.1035 -0.01135,-0.2148 -0.03125,-0.3125 l 5.3125,-3.0625 -0.5,-0.875 -5.34375,3.0938 c -0.25793,-0.2096 -0.57933,-0.3438 -0.9375,-0.3438 -0.65584,0 -1.20241,0.4136 -1.40625,1 l -3.09375,0 0,-6 1,0 0,-1 -3.0000034,0 z m 22.5000034,5 c 1.38071,0 2.5,1.1193 2.5,2.5 0,1.3807 -1.11929,2.5 -2.5,2.5 -1.38071,0 -2.5,-1.1193 -2.5,-2.5 0,-1.3807 1.11929,-2.5 2.5,-2.5 z m -16,2 c 0.27614,0 0.5,0.2239 0.5,0.5 0,0.2761 -0.22386,0.5 -0.5,0.5 -0.27614,0 -0.5,-0.2239 -0.5,-0.5 0,-0.2761 0.22386,-0.5 0.5,-0.5 z m 8,0 c 0.27614,0 0.5,0.2239 0.5,0.5 0,0.2761 -0.22386,0.5 -0.5,0.5 -0.27614,0 -0.5,-0.2239 -0.5,-0.5 0,-0.2761 0.22386,-0.5 0.5,-0.5 z"
         style="color:#000000;display:inline;overflow:visible;visibility:visible;opacity:0.85100002;fill:#ffffff;fill-opacity:1;fill-rule:evenodd;stroke:none;stroke-width:2;marker:none;enable-background:accumulate"
         inkscape:connector-curvature="0" />
    </g>
  </g>
</svg>
