<svg height="48" width="48" xmlns="http://www.w3.org/2000/svg" xmlns:xlink="http://www.w3.org/1999/xlink"><linearGradient gradientUnits="userSpaceOnUse" x1="0" x2="47" y1="23.5" y2="23.5"><stop offset="0" stop-color="#a9a3d4"/><stop offset=".47001833" stop-color="#87baff"/><stop offset="1" stop-color="#89ec85"/></linearGradient><linearGradient id="a" gradientUnits="userSpaceOnUse" x1="219.99991" x2="234.28575" y1="961.89673" y2="139.03957"><stop offset="0" stop-color="#28b162"/><stop offset="1" stop-color="#35e981"/></linearGradient><g stroke-width="1.317422" transform="matrix(.277277951503 0 0 .277277951503 -158.506335729252 -129.466065685351)"><g fill-rule="evenodd" transform="matrix(.18416112 0 0 .18416112 623.06187 451.96679)"><path d="m-277.14286 975.21935-.00014-770s-.28078-27.07338 33.64111-35.46379l285.01589-71.536213 334.457 68.428583 242.13309-62.1651c44.53427-13.715366 44.75291 27.87938 44.75291 27.87938l.00014 768.57143s.192 27.09439-24.53904 33.33836l-264.03239 66.6617-334.285709-65.71435-278.699251 65.53195c-38.55798 10.6629-38.44361-25.53195-38.44361-25.53195z" fill="url(#a)"/><path d="m39.017 98.687205v643.015735l335.477-85.02867v-490.56607z" fill="#2dca6f"/><path d="m36.810263 935.4355 2.206737-212.20032 336.077-75.58198-.2065 352.9069z" fill="#3c9bd8"/><path d="m662.857 522.1585-288.809 126.2072v352.2903l251.50823-61.92815s37.30077-.8737 37.30077-39.9852z" fill="#43adf1"/><path d="m-277.143 861.29057 317.143-137.14285-2.857143 211.42857-276.005937 67.74691s-38.27992 13.1263-38.27992-25.98514z" fill="#43adf1"/><path d="m-277.143 863.80039 317.143-137.99342v-109.34612l-317.143 135.74493z" fill="#ffed3c"/><path d="m-242.30744 169.5522 115.9744-29.013 166.33304 215.97689.1 186.66348z" fill="#ffed3c"/><path d="m36.756573 617.28326 42.56025-9.60734-42.56025-73.51316 1.93456-181.84834 135.418967 232.14681 200.9839-56.23303v120.00797l-336.402867 79.38227z" fill="#e9db36"/><path d="m373.43162 650.15974 289.42538-129.99342v-125.34612l-289.42538 133.74493z" fill="#ffed3c"/></g><path d="m196.69675-542.60138c-94.117 0-170.420013 76.303-170.420013 170.419 0 7.205.578 14.227 1.459 21.188 14.562 133.12 157.895013 286.545999 157.895013 286.545999 2.554 2.858 5.016 4.621 7.387 5.897l.122.061 4.773 1.52 4.773-1.52.122-.061c2.371-1.277 4.834-3.131 7.387-5.897 0 0 141.266-153.699999 155.493-286.848999.851-6.87 1.429-13.832 1.429-20.915-.031-94.086-76.303-170.389-170.42-170.389zm0 280.04c-60.434 0-109.620003-49.186-109.620003-109.62s49.186003-109.62 109.620003-109.62 109.59 49.186 109.59 109.62-49.156 109.62-109.59 109.62z" fill="#fff" stroke-width="1.317422" transform="matrix(.12255929 0 0 .12255929 639.50629 577.48902)"/></g></svg>