<?xml version="1.0" encoding="UTF-8" standalone="no"?>
<svg
   xmlns:dc="http://purl.org/dc/elements/1.1/"
   xmlns:cc="http://creativecommons.org/ns#"
   xmlns:rdf="http://www.w3.org/1999/02/22-rdf-syntax-ns#"
   xmlns:svg="http://www.w3.org/2000/svg"
   xmlns="http://www.w3.org/2000/svg"
   xmlns:sodipodi="http://sodipodi.sourceforge.net/DTD/sodipodi-0.dtd"
   xmlns:inkscape="http://www.inkscape.org/namespaces/inkscape"
   height="48"
   width="48"
   version="1.1"
   id="svg27"
   sodipodi:docname="qt4-logo.svg"
   inkscape:version="0.92.2 (5c3e80d, 2017-08-06)">
  <metadata
     id="metadata33">
    <rdf:RDF>
      <cc:Work
         rdf:about="">
        <dc:format>image/svg+xml</dc:format>
        <dc:type
           rdf:resource="http://purl.org/dc/dcmitype/StillImage" />
      </cc:Work>
    </rdf:RDF>
  </metadata>
  <defs
     id="defs31" />
  <sodipodi:namedview
     pagecolor="#ffffff"
     bordercolor="#666666"
     borderopacity="1"
     objecttolerance="10"
     gridtolerance="10"
     guidetolerance="10"
     inkscape:pageopacity="0"
     inkscape:pageshadow="2"
     inkscape:window-width="640"
     inkscape:window-height="480"
     id="namedview29"
     showgrid="false"
     inkscape:zoom="6"
     inkscape:cx="-8.25"
     inkscape:cy="24"
     inkscape:current-layer="svg27" />
  <linearGradient
     id="a"
     gradientTransform="matrix(0.3142624,0,0,0.31170831,6.6754602,-25.997759)"
     gradientUnits="userSpaceOnUse"
     x1="41.749325"
     x2="41.357147"
     y1="226.20387"
     y2="102.25676">
    <stop
       offset="0"
       stop-color="#49b202"
       id="stop2" />
    <stop
       offset="1"
       stop-color="#8cd958"
       id="stop4" />
  </linearGradient>
  <g
     transform="matrix(0.36345517,-0.03253152,0.03337611,0.35850044,8.3735595,-49.703797)"
     id="g17"
     style="fill:#687681">
    <path
       d="m -23.525211,154.66937 47.828584,0.0363 -0.0419,55.16792 -55.437374,-0.0422 0.0365,-48.05392 c 0.006,-7.63847 7.21097,-7.10853 7.61419,-7.10821 z"
       id="path7"
       inkscape:connector-curvature="0"
       style="fill:#687681;fill-rule:evenodd" />
    <g
       transform="matrix(1.0014519,3.763e-5,3.763e-5,0.95188387,0.03652959,11.689947)"
       id="g15"
       style="fill:#687681;fill-rule:evenodd">
      <path
         d="m -23.87675,265.80577 47.759246,0.0362 0.044,-57.95657 -55.356996,-0.042 -0.03833,50.48297 c -0.0061,8.02458 7.189449,7.47907 7.59208,7.47936 z"
         id="path9"
         inkscape:connector-curvature="0"
         style="fill:#347d02" />
      <path
         d="m 71.568966,150.27986 -47.759241,-0.0362 -0.044,57.95657 55.356991,0.042 0.03835,-50.48297 c 0.0062,-8.02458 -7.189452,-7.47907 -7.592072,-7.47936 z"
         id="path11"
         inkscape:connector-curvature="0"
         style="fill:#687681" />
      <path
         d="m 71.368015,265.8766 -47.75924,-0.0363 0.044,-57.95657 55.35699,0.0421 -0.0383,50.48297 c -0.006,8.02458 -7.2008,7.46814 -7.60343,7.46782 z"
         id="path13"
         inkscape:connector-curvature="0"
         style="fill:#347d02" />
    </g>
  </g>
  <rect
     height="40.232357"
     ry="2.6541033"
     transform="matrix(0.99595127,-0.0898948,0.08824411,0.99609888,0,0)"
     width="40.558155"
     x="1.5387014"
     y="5.5784745"
     id="rect19"
     style="fill:url(#a);stroke-width:0.33278725" />
  <g
     transform="matrix(0.15846816,-0.01562451,0.01562451,0.15846816,-0.94381658,-1.6642135)"
     id="g25"
     style="fill:#ffffff;fill-opacity:0.85;enable-background:new">
    <path
       d="m 169.38,209.42 c 0,-11.268 0.0413,-47.099 0.0413,-47.099 h -9.2023 l -0.0413,-16 c 13.531,0 9.0207,0.37559 15.786,-26.667 h 17.457 v 26.667 h 18.625 l 0.0413,16 h -18.625 l -0.0413,40.338 c -9e-5,4.196 0.87209,7.3592 2.6164,9.4894 1.7442,2.1303 4.0375,3.1954 6.88,3.1954 3.6152,0.35253 9.129,-1.4172 9.129,-1.4172 v 15.775 c -0.45223,0.32276 -22.225,6.9566 -33.828,0 -11.276,-6.7606 -8.8391,-20.282 -8.8391,-20.282 z"
       id="path21"
       inkscape:connector-curvature="0"
       style="fill:#ffffff;fill-opacity:0.85" />
    <path
       d="m 106.27,99 c -15.242,1.35e-4 -26.627,5.7792 -34.109,17.324 -7.4826,11.48 -11.205,28.069 -11.205,49.789 0,22.176 3.7229,39.094 11.205,50.704 5.2336,8.1205 12.23,13.385 20.99,15.819 0,0 1.7799,-0.0942 1.9247,1.8062 3.015,24.51 18.331,24.558 35.79,24.558 0,0 2.2552,0 2.2552,-2.2535 v -13.521 c 0,-2.2535 -2.2552,-2.2535 -2.2552,-2.2535 -8.723,0 -10.984,0.57341 -13.32,-8.169 2.9545,-0.73167 5.6982,-1.728 8.2455,-3.0282 5.7504,-3.0003 10.494,-7.3588 14.236,-13.099 3.7412,-5.805 6.5144,-12.929 8.316,-21.408 1.8705,-8.4792 2.8189,-18.197 2.8189,-29.155 0,-21.981 -3.7957,-38.651 -11.417,-50 C 132.1238,104.699 120.9581,99 106.2701,99 Z m -0.14094,10.986 c 3.1951,1.3e-4 5.6415,1.1248 7.6817,3.4507 1.2032,1.3229 2.2614,3.0622 3.2418,5.1409 0.55407,1.5313 1.1063,3.1555 1.5505,5 1.1986,4.9784 2.049,11.015 2.5371,18.169 0.4871,7.142 0.70463,15.28 0.70472,24.366 -9e-5,9.1515 -0.21771,17.376 -0.70472,24.648 -0.488,7.2183 -1.34,13.346 -2.5371,18.451 -0.45033,1.8953 -0.97887,3.6211 -1.5505,5.2113 -0.0943,0.20575 -0.18526,0.43498 -0.28189,0.6338 -0.8968,1.8452 -1.8788,3.3984 -2.9599,4.6479 -2.0471,2.4535 -4.5009,3.5916 -7.6817,3.5916 -3.1809,2e-5 -5.6347,-1.1381 -7.6816,-3.5916 -2.002,-2.4917 -3.6488,-6.1311 -4.8627,-10.986 -1.2181,-4.9351 -2.0445,-10.97 -2.5371,-18.099 -0.49366,-7.2077 -0.77528,-15.396 -0.77519,-24.507 -9e-5,-9.0457 0.28162,-17.079 0.77519,-24.155 0.49249,-7.0624 1.3206,-13.016 2.5371,-17.817 1.2129,-4.7866 2.875,-8.3508 4.8627,-10.704 2.0401,-2.3258 4.4866,-3.4506 7.6816,-3.4507 z"
       id="path23"
       inkscape:connector-curvature="0"
       style="fill:#ffffff;fill-opacity:0.85" />
  </g>
</svg>
