<svg height="48" width="48" xmlns="http://www.w3.org/2000/svg" xmlns:xlink="http://www.w3.org/1999/xlink"><linearGradient id="a" gradientTransform="matrix(.37437436 0 0 .37750075 36.100591 18.42013)" gradientUnits="userSpaceOnUse" x1="-32.177738" x2="-32.226566" y1="47.365234" y2="-.242188"><stop offset="0" stop-color="#e4fcfc"/><stop offset="1" stop-color="#b0fcfc"/></linearGradient><linearGradient id="b"><stop offset="0" stop-color="#3889e9"/><stop offset="1" stop-color="#5ea5fb"/></linearGradient><linearGradient id="c" gradientUnits="userSpaceOnUse" x1="-43.60670264324" x2="-43.60670264324" xlink:href="#b" y1="42.225471643" y2="-3.623590357"/><linearGradient id="d" gradientUnits="userSpaceOnUse" x1="-30.87921688598" x2="-30.87921688598" xlink:href="#b" y1="41.7329959146" y2=".5710010051"/><linearGradient id="e" gradientUnits="userSpaceOnUse" x1="23.94615460768" x2="24.05379938076" y1="46.51330631952" y2="-.41592194817"><stop offset="0" stop-color="#3ec896"/><stop offset="1" stop-color="#66d9af"/></linearGradient><linearGradient id="f" gradientUnits="userSpaceOnUse" x1="6.89959326932" x2="41.10035991912" y1="24.00011194782" y2="24.00011194782"><stop offset="0" stop-color="#f6fbff"/><stop offset="1" stop-color="#eaeff2"/></linearGradient><linearGradient id="g" gradientUnits="userSpaceOnUse" x1="15.99997539422" x2="31.99997699422" y1="24.00011194782" y2="24.00011194782"><stop offset="0" stop-color="#3dc796"/><stop offset="1" stop-color="#57d68d"/></linearGradient><g stroke-width="1.580906"><path d="m46.244187 10.135555c-.01464-1.1229593-.878823-2.0506791-1.996832-2.153159-9.291114-.8691598-16.873455-5.8345186-19.37317-7.65071814-.522411-.3807599-1.230352-.3807599-1.752764 0-2.494882 1.81619954-10.077173 6.78155834-19.3682874 7.65071814-1.1180584.1019999-1.9773523 1.0301997-1.9968817 2.153159-.1122935 7.328399 1.0643526 32.208832 21.6825211 37.745391.366176.0972.751883.0972 1.118059 0 20.618169-5.531639 21.794767-30.417112 21.687355-37.745391z" fill="url(#e)"/><path d="m41.095911 13.242235c-.01128-.87132-.675425-1.59108-1.534679-1.67076-7.140747-.67428-12.968204-4.5269988-14.889377-5.9362785-.401503-.2955599-.945595-.2955599-1.347098 0-1.917458 1.4092797-7.744877 5.2619985-14.8856246 5.9362785-.8592911.0792-1.5197071.79944-1.5347165 1.67076-.086304 5.686318.8180151 24.991673 16.6642451 29.287672.281427.0756.577863.0756.859291 0 15.846228-4.292279 16.750511-23.601474 16.667959-29.287672z" fill="url(#f)"/><path d="m23.999976 29.500071a2.0000001 2.0000001 0 0 0 2.000005-1.99992c0-1.11012-.899999-2.000039-2.000005-2.000039a2.0000001 2.0000001 0 0 0 -1.999996 2.000039 2.0000001 2.0000001 0 0 0 1.999996 1.99992m6.000005-8.999998a2.0000001 2.0000001 0 0 1 1.999996 2.000039v9.999958a2.0000001 2.0000001 0 0 1 -1.999996 2.000039h-12.000001a2.0000001 2.0000001 0 0 1 -2.000005-2.000039v-9.999958c0-1.109999.899999-2.000039 2.000005-2.000039h.999998v-2.00004a5.0000003 5.0000002 0 0 1 4.999998-4.999918 5.0000003 5.0000002 0 0 1 4.999998 4.999918v2.00004zm-6.000005-5.000039a3.0000002 3.0000001 0 0 0 -3.000003 2.999999v2.00004h6.000006v-2.00004a3.0000002 3.0000001 0 0 0 -3.000003-2.999999z" fill="url(#g)"/></g><circle cx="-41.969334" cy="19.300846" fill="url(#c)" r="0" stroke-width="2.157234"/><circle cx="-29.409233" cy="21.151842" fill="url(#d)" r="0" stroke-width="1.580906"/><path d="m22.175402 23.951692c-.168082.0041-.333974.02317-.448956.05603-.590945.168888-1.079329.60285-1.301536 1.157571-.110615.276142-.140636.441752-.139659.767536.0014.475715.08614.826556.304179 1.26448.319268.641232.68852 1.062307 1.839699 2.097636.916885.824612 1.242265 1.165962 1.453625 1.524749.101482.172265.117491.172459.221554.0059.258548-.413827.506787-.67289 1.523821-1.592582 1.112565-1.006079 1.474458-1.422288 1.788515-2.057084.603067-1.218965.266471-2.51358-.787502-3.028854-.323077-.157947-.481385-.194165-.842343-.193174-.352993.000979-.54802.04126-.821869.168844-.359068.167284-.685471.459248-.863547.772697-.04677.08233-.09187.150007-.100174.150409-.0083.000409-.05755-.07329-.10968-.163681-.113944-.197585-.383119-.480153-.581304-.61049-.181466-.119342-.467192-.240777-.673436-.286074-.123372-.0271-.293303-.03798-.461387-.03391z" fill="url(#a)" stroke-width=".375934"/></svg>