<svg height="48" width="48" xmlns="http://www.w3.org/2000/svg" xmlns:xlink="http://www.w3.org/1999/xlink"><linearGradient id="a" gradientTransform="matrix(.95833336 0 0 .95833329 .602407 1.40678)" gradientUnits="userSpaceOnUse" x1="24.000471" x2="24.000471" y1="45.850719" y2="1.000628"><stop offset="0" stop-color="#ececec"/><stop offset="1" stop-color="#fefefe"/></linearGradient><radialGradient id="b" cx="30.58606" cy="-1.016735" gradientTransform="matrix(-.95819198 1.8440676 -.88736054 -.46107614 51.810208 -34.295284)" gradientUnits="userSpaceOnUse" r="22.5"><stop offset="0" stop-color="#00d8fc"/><stop offset="1" stop-color="#007cfc"/></radialGradient><g transform="translate(.40678 -.20339)"><path d="m46.102406 24.462866a22.5 22.5 0 0 1 -22.499999 22.5 22.5 22.5 0 0 1 -22.5000006-22.5 22.5 22.5 0 0 1 22.5000006-22.5 22.5 22.5 0 0 1 22.499999 22.5z" fill="url(#b)" stroke-width="1.004964"/><path d="m23.602406 1.4067799c-12.691198 0-22.99999951 10.3087991-22.99999951 23.0000001 0 12.6912 10.30880151 23 22.99999951 23 12.691201 0 23-10.3088 23-23 0-12.691201-10.308799-23.0000001-23-23.0000001zm0 1.9166665c11.655428 0 21.083335 9.4279006 21.083335 21.0833336 0 11.655422-9.427907 21.083333-21.083335 21.083333-11.655422 0-21.0833325-9.427911-21.0833325-21.083333 0-11.655433 9.4279105-21.0833336 21.0833325-21.0833336z" fill="url(#a)" stroke-width=".958333"/><g fill="#fff"><path d="m23.602407 25.228797a2 2 0 0 0 2.000004-1.999995c0-1.110005-.899998-2.000005-2.000004-2.000005a2 2 0 0 0 -1.999996 2.000005 2 2 0 0 0 1.999996 1.999995m6.000005-8.999988a2 2 0 0 1 1.999995 2.000004v9.999996a2 2 0 0 1 -1.999995 2.000005h-12.000001a2 2 0 0 1 -2.000005-2.000005v-9.999996c0-1.110005.899999-2.000004 2.000005-2.000004h.999998v-1.999996a5 5 0 0 1 4.999998-4.9999982 5 5 0 0 1 4.999997 4.9999982v1.999996zm-6.000005-4.999998a3 3 0 0 0 -3.000003 3.000002v1.999996h6.000005v-1.999996a3 3 0 0 0 -3.000002-3.000002z" stroke-width="8.956149"/><g fill-opacity=".85098" stroke-width=".803866" transform="translate(-.283774)"><path d="m12.618741 35.595311.265275-.856118q1.02493.373798 1.362554.578784-.108522-1.049046-.108522-1.459018h.832001q0 .373798-.132638 1.459018.494378-.24116 1.38667-.578784l.277334.856118q-.78377.229101-1.459018.313507.373798.337624 1.012872 1.133452l-.711422.494378q-.42203-.578784-.795827-1.278148-.470262.868176-.78377 1.278148l-.699364-.494378q.66319-.832002 1.000814-1.133452-.675248-.12058-1.446959-.313507z"/><path d="m17.281792 35.595311.265276-.856118q1.024929.373798 1.362553.578784-.108522-1.049046-.108522-1.459018h.832002q0 .373798-.132638 1.459018.494377-.24116 1.386669-.578784l.277334.856118q-.78377.229101-1.459017.313507.373797.337624 1.012871 1.133452l-.711422.494378q-.422029-.578784-.795827-1.278148-.470262.868176-.78377 1.278148l-.699363-.494378q.663189-.832002 1.000813-1.133452-.675248-.12058-1.446959-.313507z"/><path d="m21.944843 35.595311.265276-.856118q1.024929.373798 1.362553.578784-.108522-1.049046-.108522-1.459018h.832002q0 .373798-.132638 1.459018.494378-.24116 1.386669-.578784l.277334.856118q-.78377.229101-1.459017.313507.373798.337624 1.012871 1.133452l-.711421.494378q-.42203-.578784-.795828-1.278148-.470262.868176-.78377 1.278148l-.699363-.494378q.663189-.832002 1.000813-1.133452-.675247-.12058-1.446959-.313507z"/><path d="m26.607894 35.595311.265276-.856118q1.02493.373798 1.362553.578784-.108522-1.049046-.108522-1.459018h.832002q0 .373798-.132638 1.459018.494378-.24116 1.386669-.578784l.277334.856118q-.783769.229101-1.459017.313507.373798.337624 1.012871 1.133452l-.711421.494378q-.42203-.578784-.795828-1.278148-.470262.868176-.783769 1.278148l-.699364-.494378q.66319-.832002 1.000813-1.133452-.675247-.12058-1.446959-.313507z"/><path d="m31.270945 35.595311.265276-.856118q1.02493.373798 1.362554.578784-.108522-1.049046-.108522-1.459018h.832001q0 .373798-.132638 1.459018.494378-.24116 1.38667-.578784l.277333.856118q-.783769.229101-1.459017.313507.373798.337624 1.012872 1.133452l-.711422.494378q-.42203-.578784-.795828-1.278148-.470261.868176-.783769 1.278148l-.699364-.494378q.66319-.832002 1.000814-1.133452-.675248-.12058-1.44696-.313507z"/></g></g></g></svg>