<svg height="48" width="48" xmlns="http://www.w3.org/2000/svg" xmlns:xlink="http://www.w3.org/1999/xlink"><linearGradient id="a" gradientUnits="userSpaceOnUse" x1="355.734639754972" x2="355.690693977712" y1="546.998390330562" y2="505.3274713404"><stop offset="0" stop-color="#2e5378"/><stop offset="1" stop-color="#387898"/></linearGradient><linearGradient id="b" gradientTransform="matrix(-.56777405 0 0 .61822428 579.27321 212.13023)" gradientUnits="userSpaceOnUse" x1="373.44516" x2="373.44516" y1="546.79541" y2="507.86609"><stop offset="0" stop-color="#b1d7fc"/><stop offset="1" stop-color="#f4fcff"/></linearGradient><linearGradient id="c" gradientUnits="userSpaceOnUse" x1="399.57144" x2="399.57144" y1="547.79797" y2="542.79797"><stop offset="0" stop-color="#0d305a"/><stop offset="1" stop-color="#115570"/></linearGradient><linearGradient id="d" gradientUnits="userSpaceOnUse" x1="354.741322735136" x2="354.741322735136" y1="530.587982041468" y2="519.044738041468"><stop offset="0" stop-color="#c2d4e7"/><stop offset="1" stop-color="#e0e3f7"/></linearGradient><g transform="matrix(.97459608 0 0 .97459608 -322.303984 -489.311121)"><path d="m372.72396 511.00526c-4.64376-3.77923-10.8097-5.86043-17.36188-5.86043-6.5523 0-12.71825 2.08134-17.3619 5.86043-4.68415 3.81204-7.26383 8.89248-7.26383 14.30562 0 5.1665 2.35146 10.0291 6.6381 13.77566-.0773.17385-.13864.35675-.1778.54904l-1.40852 6.92833c-.16748.8234.0576 1.31439.27567 1.58146.25214.30847.62586.47846 1.05242.47846.32207 0 .66821-.095 1.02889-.28251l8.19253-4.25611c2.83641.91297 5.88571 1.3917 9.02427 1.3917 6.55233 0 12.71811-2.0813 17.36192-5.8604 4.68401-3.81192 7.26369-8.89237 7.26369-14.3055 0-5.41327-2.57956-10.49371-7.26357-14.30575z" fill="url(#a)"/><path d="m350.80151 516.43664v4.6173h-4.6173v2.30865h4.6173v4.61729h-4.6173v2.30865h4.6173v4.6173h2.30865v-4.6173h4.61729v4.6173h2.30865v-4.6173h4.6173v-2.30865h-4.6173v-4.61729h4.6173v-2.30865h-4.6173v-4.6173h-2.30865v4.6173h-4.61729v-4.6173zm2.30865 6.92595h4.61729v4.61729h-4.61729z" fill="url(#d)"/><path d="m358.65242 529.1544c2.32189-2.05752 5.40486-3.19058 8.68093-3.19058 3.27614 0 6.35912 1.13313 8.68094 3.19058 2.34206 2.07537 3.63191 4.8413 3.63191 7.78837 0 2.81279-1.17574 5.46009-3.31906 7.49984.0388.0947.0694.19423.0889.29891l.70425 3.77197c.0837.44829-.0287.7156-.13788.861-.12614.16793-.31294.26049-.52621.26049-.16104 0-.3341-.0517-.51444-.15382l-4.09627-2.31712c-1.4182.49704-2.94284.75766-4.51213.75766-3.27614 0-6.35905-1.13311-8.68093-3.19056-2.342-2.07531-3.63185-4.84125-3.63185-7.7883 0-2.94714 1.28978-5.71307 3.63178-7.78844z" fill="url(#b)"/><g fill="url(#c)" transform="matrix(1.0732672 0 0 1.0732672 -59.631031 -48.551177)"><circle cx="393.03693" cy="545.49957" opacity=".837" r="2.084375"/><circle cx="397.78925" cy="545.49957" opacity=".837" r="2.084375"/><circle cx="402.78326" cy="545.49957" opacity=".837" r="2.084375"/></g></g></svg>