<?xml version="1.0" encoding="UTF-8" standalone="no"?>
<svg
   xmlns:dc="http://purl.org/dc/elements/1.1/"
   xmlns:cc="http://creativecommons.org/ns#"
   xmlns:rdf="http://www.w3.org/1999/02/22-rdf-syntax-ns#"
   xmlns:svg="http://www.w3.org/2000/svg"
   xmlns="http://www.w3.org/2000/svg"
   xmlns:xlink="http://www.w3.org/1999/xlink"
   xmlns:sodipodi="http://sodipodi.sourceforge.net/DTD/sodipodi-0.dtd"
   xmlns:inkscape="http://www.inkscape.org/namespaces/inkscape"
   height="48"
   viewBox="0 0 12.7 12.7"
   width="48"
   version="1.1"
   id="svg20"
   sodipodi:docname="qv4l2.svg"
   inkscape:version="0.92.2 (5c3e80d, 2017-08-06)">
  <metadata
     id="metadata26">
    <rdf:RDF>
      <cc:Work
         rdf:about="">
        <dc:format>image/svg+xml</dc:format>
        <dc:type
           rdf:resource="http://purl.org/dc/dcmitype/StillImage" />
        <dc:title></dc:title>
      </cc:Work>
    </rdf:RDF>
  </metadata>
  <defs
     id="defs24">
    <linearGradient
       inkscape:collect="always"
       xlink:href="#a"
       id="linearGradient51"
       gradientUnits="userSpaceOnUse"
       gradientTransform="matrix(3.0478324,0,0,3.0477565,-0.32138395,-385.923)"
       x1="0.324673"
       y1="23.551788"
       x2="14.282913"
       y2="1.789076"
       spreadMethod="pad" />
  </defs>
  <sodipodi:namedview
     pagecolor="#ffffff"
     bordercolor="#666666"
     borderopacity="1"
     objecttolerance="10"
     gridtolerance="10"
     guidetolerance="10"
     inkscape:pageopacity="0"
     inkscape:pageshadow="2"
     inkscape:window-width="1366"
     inkscape:window-height="717"
     id="namedview22"
     showgrid="false"
     showguides="true"
     inkscape:guide-bbox="true"
     inkscape:zoom="7.3588208"
     inkscape:cx="52.659089"
     inkscape:cy="15.410986"
     inkscape:window-x="0"
     inkscape:window-y="25"
     inkscape:window-maximized="1"
     inkscape:current-layer="svg20">
    <sodipodi:guide
       position="26.067073,-3.5235491"
       orientation="0,1"
       id="guide28"
       inkscape:locked="false" />
  </sodipodi:namedview>
  <linearGradient
     id="a"
     gradientTransform="matrix(3.0478324,0,0,3.0477565,-0.32138395,-385.923)"
     gradientUnits="userSpaceOnUse"
     spreadMethod="pad"
     x1="0.324673"
     x2="14.282913"
     y1="23.551788"
     y2="1.789076">
    <stop
       offset="0"
       stop-color="#252525"
       id="stop2" />
    <stop
       offset="1"
       stop-color="#252525"
       stop-opacity=".812"
       id="stop4" />
  </linearGradient>
  <linearGradient
     id="b"
     gradientTransform="matrix(0.02094268,0,0,0.02094219,7.6274185,7.4199253)"
     gradientUnits="userSpaceOnUse"
     x1="3.1466999"
     x2="18.771702"
     y1="1041.4948"
     y2="1041.4948">
    <stop
       offset="0"
       stop-color="#e6f3ff"
       id="stop7" />
    <stop
       offset="1"
       stop-color="#dcffe7"
       id="stop9" />
  </linearGradient>
  <g
     id="g3757">
    <g
       id="g3750">
      <path
         d="M 0.66868587,1.4239074 10.702279,0.24896257 c 0.264695,-0.031863 0.502745,0.15708432 0.533742,0.42183324 L 12.410997,10.704137 c 0.03101,0.264781 -0.157143,0.502733 -0.421839,0.533704 L 1.9555644,12.412786 C 1.6908685,12.444648 1.4528201,12.255701 1.4218231,11.990985 L 0.24684699,1.9576428 C 0.21585001,1.6928621 0.40399017,1.45491 0.66868587,1.4239074 Z"
         id="path12"
         inkscape:connector-curvature="0"
         style="fill-opacity:0.66666697;stroke-width:3.18633032" />
      <path
         d="M 0.92036795,1.7115441 10.517718,0.58768408 c 0.253186,-0.0304777 0.480885,0.15025429 0.510535,0.4034924 l 1.123891,9.59711052 c 0.02966,0.25327 -0.150311,0.480876 -0.403499,0.5105 L 2.1512953,12.222646 C 1.8981079,12.253124 1.6704095,12.072392 1.6407602,11.819185 L 0.51686988,2.2220433 C 0.48722059,1.9687748 0.66718076,1.7411988 0.92036795,1.7115441 Z"
         id="path14"
         inkscape:connector-curvature="0"
         style="fill:url(#linearGradient51);stroke-width:3.04779458" />
      <path
         d="M 3.2790131,4.55303 6.5179617,6.297044 3.2790131,8.0410285 Z"
         id="path16"
         inkscape:connector-curvature="0"
         style="fill:#b836d8;stroke:#b836d8;stroke-width:0.24914768;stroke-linecap:round;stroke-linejoin:round" />
      <path
         d="m 10.243538,8.5131849 c -0.0092,-0.011958 -0.02092,-0.017934 -0.03584,-0.020923 L 9.8954651,8.4444364 c -0.01703,-0.0547 -0.040394,-0.1102975 -0.069982,-0.1670902 0.020435,-0.029891 0.051174,-0.06845 0.092101,-0.1201612 0.040954,-0.051711 0.069961,-0.089673 0.087017,-0.1132867 0.009,-0.011957 0.01362,-0.026902 0.01362,-0.039157 0,-0.017934 -0.0039,-0.029891 -0.01192,-0.037662 C 9.9653471,7.9090904 9.8715192,7.8122441 9.724771,7.6771372 9.711149,7.6651797 9.696917,7.6592034 9.682166,7.6592034 c -0.01703,0 -0.03071,0.00598 -0.040954,0.014944 L 9.398948,7.8564824 C 9.352277,7.8325698 9.301103,7.811646 9.2453793,7.7934125 L 9.1976103,7.4794982 c -0.00112,-0.014944 -0.00779,-0.026902 -0.019704,-0.036467 -0.011921,-0.00897 -0.025878,-0.014944 -0.041827,-0.014944 h -0.378775 c -0.032996,0 -0.053461,0.017934 -0.061419,0.047826 -0.01484,0.056793 -0.031293,0.1626064 -0.049496,0.3173217 -0.053461,0.017934 -0.1052162,0.038858 -0.1552714,0.064863 L 8.2556653,7.6757628 c -0.01484,-0.011955 -0.029557,-0.017934 -0.04436,-0.017934 -0.025026,0 -0.078767,0.040652 -0.1612347,0.1219549 -0.082465,0.081303 -0.1384831,0.1425795 -0.1680705,0.1835302 -0.010217,0.014944 -0.015326,0.026902 -0.015326,0.039157 0,0.014944 0.0056,0.026902 0.01703,0.040951 0.076213,0.092064 0.137072,0.170677 0.1825753,0.2352413 -0.028432,0.052309 -0.050612,0.1049171 -0.066528,0.1569273 l -0.3173672,0.047825 c -0.012408,0.00186 -0.023353,0.00897 -0.032412,0.020923 -0.009,0.011957 -0.013622,0.026902 -0.013622,0.039157 v 0.3788074 c 0,0.014944 0.00462,0.026902 0.013622,0.040054 0.009,0.011957 0.020921,0.017934 0.035842,0.020923 l 0.3122573,0.046032 c 0.015812,0.055597 0.039224,0.1120907 0.069958,0.1688836 -0.020435,0.029891 -0.051174,0.06845 -0.092125,0.1204602 -0.04093,0.051711 -0.069961,0.089673 -0.087017,0.1132864 -0.009,0.011958 -0.013622,0.026902 -0.013622,0.039157 0,0.014947 0.00386,0.026902 0.011921,0.039157 0.04436,0.061575 0.1381881,0.1569273 0.2815335,0.2866538 0.012408,0.011957 0.026759,0.017934 0.042657,0.017934 0.01703,0 0.031293,-0.00598 0.042657,-0.014944 L 8.494617,9.6172662 c 0.046671,0.023912 0.097845,0.045135 0.1535686,0.06307 l 0.047766,0.313914 c 0.00115,0.014947 0.00779,0.026902 0.019704,0.036467 0.011921,0.009 0.025908,0.01495 0.041806,0.01495 H 9.13625 c 0.03302,0 0.053485,-0.01793 0.061467,-0.047826 0.01484,-0.057092 0.031245,-0.1626064 0.049447,-0.3173517 0.053461,-0.017934 0.1052436,-0.038858 0.1552714,-0.064863 l 0.2354745,0.1841279 c 0.015813,0.00897 0.030734,0.014944 0.04436,0.014944 0.025026,0 0.078475,-0.040353 0.1603589,-0.121058 0.081929,-0.081004 0.1382125,-0.1419817 0.1688972,-0.1841279 0.01022,-0.011957 0.01533,-0.023913 0.01533,-0.039157 0,-0.014944 -0.0056,-0.029891 -0.01703,-0.042445 C 9.927945,9.3277731 9.8670856,9.24916 9.8272536,9.1926662 9.8498766,9.15052 9.8721976,9.0988088 9.8938056,9.0375325 L 10.209454,8.989707 c 0.01362,-0.00186 0.02503,-0.00897 0.03414,-0.020923 0.009,-0.011957 0.01362,-0.026902 0.01362,-0.039157 V 8.5508793 c 2.2e-5,-0.014944 -0.0044,-0.026902 -0.01362,-0.040353 z M 9.2556505,9.0480826 c -0.08529,0.085488 -0.1882433,0.1279329 -0.3088401,0.1279329 -0.1205968,0 -0.2235263,-0.042445 -0.3088437,-0.1279329 C 8.5526777,8.9625947 8.509996,8.8597698 8.509996,8.7392498 c 0,-0.1204602 0.042632,-0.223584 0.1279707,-0.3088028 0.085314,-0.085488 0.1882677,-0.1279331 0.3088437,-0.1279331 0.1205968,0 0.2235537,0.042744 0.3088401,0.1279331 0.08529,0.085488 0.127971,0.1883125 0.127971,0.3088028 0,0.1204604 -0.042657,0.223285 -0.127971,0.3088328 z"
         id="path18"
         inkscape:connector-curvature="0"
         style="fill:url(#b);stroke-width:0.02094125" />
    </g>
  </g>
</svg>
