<svg height="48" width="48" xmlns="http://www.w3.org/2000/svg">
	<defs>
		<linearGradient id="a" x1="0" x2="0" y1="1" y2="0" gradientTransform="rotate(-45 0.5 0.5)">
			<stop offset="0" stop-color="#DDD"/>
			<stop offset="1" stop-color="#FFF"/>
		</linearGradient>
		<linearGradient id="bg" gradientUnits="userSpaceOnUse" x1="24" x2="24" y1="4" y2="44" gradientTransform="rotate(-45 24 24)">
			<stop offset="0" stop-color="#009CF0"/>
			<stop offset="1" stop-color="#7B00FE"/>
		</linearGradient>
	</defs>
	<circle cx="24" cy="24" r="21" fill="url(#bg)" />	
	<path d="m 37.098711,18.910306 c -0.148289,-1.794433 -1.206124,-4.057295 -3.380091,-4.138201 -6.070429,-0.412824 -13.262024,-0.525691 -19.442417,0 -1.917441,0.217361 -3.231803,2.579628 -3.375058,4.374061 -0.303161,3.769167 -0.303161,5.914126 0,9.683292 0.144936,1.794434 1.426007,4.170218 3.37841,4.419551 6.25368,0.412823 13.410301,0.471775 19.442428,0 1.892437,-0.331929 3.233473,-2.625117 3.378399,-4.419551 0.30149,-3.770855 0.30149,-6.149986 -0.0022,-9.919152 z" fill="#FFF" />
	<path d="m 29.607201,23.023719 c -0.0398,-0.05218 -0.0905,-0.07827 -0.15497,-0.09132 l -1.3501,-0.208728 c -0.0736,-0.23873 -0.17467,-0.481377 -0.30261,-0.72924 0.0884,-0.130456 0.22128,-0.29874 0.39825,-0.524426 0.17708,-0.225685 0.30251,-0.391365 0.37626,-0.494423 0.0389,-0.05218 0.0589,-0.117411 0.0589,-0.170895 0,-0.07827 -0.0169,-0.130455 -0.0516,-0.164371 -0.17708,-0.253085 -0.5828,-0.675755 -1.21734,-1.265409 -0.0589,-0.05218 -0.12044,-0.07827 -0.18422,-0.07827 -0.0736,0 -0.13279,0.0261 -0.17709,0.06522 l -1.047545,0.795779 C 25.75333,20.05327 25.532052,19.961954 25.291103,19.882376 l -0.206554,-1.370032 c -0.0048,-0.06521 -0.03368,-0.11741 -0.0852,-0.159155 -0.05155,-0.03915 -0.111902,-0.06522 -0.18086,-0.06522 h -1.63783 c -0.142676,0 -0.231167,0.07827 -0.265577,0.20873 -0.06417,0.247865 -0.135312,0.709674 -0.214022,1.384905 -0.231167,0.07827 -0.454957,0.16959 -0.671396,0.283085 l -1.0181,-0.795775 c -0.06417,-0.05217 -0.127806,-0.07827 -0.191814,-0.07827 -0.108217,0 -0.34059,0.177422 -0.697181,0.532255 -0.356581,0.354835 -0.598805,0.622267 -0.72674,0.800991 -0.04418,0.06521 -0.06626,0.117409 -0.06626,0.170894 0,0.06521 0.0242,0.11741 0.07363,0.178725 0.329546,0.4018 0.592701,0.744895 0.789458,1.026676 -0.12294,0.228295 -0.218847,0.457896 -0.287667,0.684887 l -1.372302,0.208726 c -0.05365,0.008 -0.100975,0.03915 -0.140149,0.09132 -0.03892,0.05218 -0.0589,0.11741 -0.0589,0.170894 v 1.653251 c 0,0.06521 0.01998,0.11741 0.0589,0.174809 0.03892,0.05218 0.09046,0.07827 0.154981,0.09132 l 1.350205,0.2009 c 0.06837,0.242645 0.169606,0.489203 0.3025,0.737069 -0.08837,0.130454 -0.221278,0.298739 -0.39835,0.52573 -0.176983,0.225684 -0.302513,0.391365 -0.376263,0.494422 -0.03892,0.05219 -0.0589,0.117409 -0.0589,0.170894 0,0.06523 0.01669,0.11741 0.05155,0.170896 0.191815,0.268735 0.597529,0.684886 1.217356,1.251059 0.05366,0.05218 0.115708,0.07827 0.18445,0.07827 0.07363,0 0.135312,-0.0261 0.18445,-0.06521 l 1.040285,-0.797077 c 0.201805,0.104365 0.423082,0.196985 0.664033,0.27526 l 0.206541,1.370031 c 0.005,0.06523 0.03368,0.11741 0.0852,0.159155 0.05155,0.03928 0.112026,0.06524 0.180769,0.06524 h 1.637887 c 0.142779,0 0.231271,-0.07826 0.265784,-0.208729 0.06417,-0.249169 0.135104,-0.709672 0.21381,-1.385035 0.231167,-0.07827 0.455074,-0.16959 0.671396,-0.283085 l 1.018198,0.803599 c 0.0684,0.03915 0.13289,0.06522 0.19181,0.06522 0.10822,0 0.33933,-0.176115 0.6934,-0.52834 0.35426,-0.35353 0.59763,-0.619658 0.73031,-0.803599 0.0442,-0.05218 0.0663,-0.104364 0.0663,-0.170895 0,-0.06521 -0.0242,-0.130455 -0.0736,-0.185245 -0.35405,-0.437035 -0.61721,-0.780131 -0.78944,-1.02669 0.0978,-0.18394 0.19433,-0.409626 0.28777,-0.677059 l 1.36487,-0.208726 c 0.0589,-0.008 0.10822,-0.03915 0.14762,-0.09132 0.0389,-0.05218 0.0589,-0.11741 0.0589,-0.170895 v -1.652988 c 9e-5,-0.06522 -0.019,-0.11741 -0.0589,-0.176115 z m -4.271643,2.334483 c -0.368794,0.3731 -0.813967,0.558344 -1.335428,0.558344 -0.521463,0 -0.966532,-0.185244 -1.335447,-0.558344 -0.36879,-0.373099 -0.553348,-0.821864 -0.553348,-1.347856 0,-0.525731 0.184343,-0.975799 0.553348,-1.347724 0.3689,-0.3731 0.814073,-0.558346 1.335447,-0.558346 0.521461,0 0.966649,0.18655 1.335428,0.558346 0.368796,0.373099 0.553349,0.821862 0.553349,1.347724 0,0.525731 -0.184449,0.974496 -0.553349,1.347856 z" fill="url(#bg)" />
	<circle cx="24" cy="24" r="21" fill="none" stroke="url(#a)" stroke-width="2" />
</svg>
