<svg height="48" viewBox="0 0 12.7 12.7" width="48" xmlns="http://www.w3.org/2000/svg" xmlns:xlink="http://www.w3.org/1999/xlink"><linearGradient id="a" gradientTransform="matrix(3.0478324 0 0 3.0477565 -.321384 -385.923)" gradientUnits="userSpaceOnUse" spreadMethod="pad" x1=".324673" x2="14.282913" y1="23.551788" y2="1.789076"><stop offset="0" stop-color="#252525"/><stop offset="1" stop-color="#252525" stop-opacity=".812"/></linearGradient><linearGradient id="b" gradientTransform="matrix(.02094268 0 0 .02094219 7.627419 7.419925)" gradientUnits="userSpaceOnUse" x1="3.1467" x2="18.771702" y1="1041.4948" y2="1041.4948"><stop offset="0" stop-color="#e6f3ff"/><stop offset="1" stop-color="#dcffe7"/></linearGradient><path d="m.66868587 1.4239074 10.03359313-1.17494483c.264695-.031863.502745.15708432.533742.42183324l1.174976 10.03334119c.03101.264781-.157143.502733-.421839.533704l-10.0335936 1.174945c-.2646959.031862-.5027443-.157085-.5337413-.421801l-1.17497611-10.0333422c-.03099698-.2647807.15714318-.5027328.42183888-.5337354z" fill-opacity=".666667" stroke-width="3.18633"/><path d="m.92036795 1.7115441 9.59735005-1.12386002c.253186-.0304777.480885.15025429.510535.4034924l1.123891 9.59711052c.02966.25327-.150311.480876-.403499.5105l-9.5973497 1.123859c-.2531874.030478-.4808858-.150254-.5105351-.403461l-1.12389032-9.5971417c-.02964929-.2532685.15031088-.4808445.40349807-.5104992z" fill="url(#a)" stroke-width="3.047795"/><path d="m3.2790131 4.55303 3.2389486 1.744014-3.2389486 1.7439845z" fill="#b836d8" stroke="#b836d8" stroke-linecap="round" stroke-linejoin="round" stroke-width=".249148"/><path d="m10.243538 8.5131849c-.0092-.011958-.02092-.017934-.03584-.020923l-.3122329-.0478255c-.01703-.0547-.040394-.1102975-.069982-.1670902.020435-.029891.051174-.06845.092101-.1201612.040954-.051711.069961-.089673.087017-.1132867.009-.011957.01362-.026902.01362-.039157 0-.017934-.0039-.029891-.01192-.037662-.040954-.0579889-.1347819-.1548352-.2815301-.2899421-.013622-.0119575-.027854-.0179338-.042605-.0179338-.01703 0-.03071.00598-.040954.014944l-.242264.182335c-.046671-.0239126-.097845-.0448364-.1535687-.0630699l-.047769-.3139143c-.00112-.014944-.00779-.026902-.019704-.036467-.011921-.00897-.025878-.014944-.041827-.014944h-.378775c-.032996 0-.053461.017934-.061419.047826-.01484.056793-.031293.1626064-.049496.3173217-.053461.017934-.1052162.038858-.1552714.064863l-.2354526-.1823351c-.01484-.011955-.029557-.017934-.04436-.017934-.025026 0-.078767.040652-.1612347.1219549-.082465.081303-.1384831.1425795-.1680705.1835302-.010217.014944-.015326.026902-.015326.039157 0 .014944.0056.026902.01703.040951.076213.092064.137072.170677.1825753.2352413-.028432.052309-.050612.1049171-.066528.1569273l-.3173672.047825c-.012408.00186-.023353.00897-.032412.020923-.009.011957-.013622.026902-.013622.039157v.3788074c0 .014944.00462.026902.013622.040054.009.011957.020921.017934.035842.020923l.3122573.046032c.015812.055597.039224.1120907.069958.1688836-.020435.029891-.051174.06845-.092125.1204602-.04093.051711-.069961.089673-.087017.1132864-.009.011958-.013622.026902-.013622.039157 0 .014947.00386.026902.011921.039157.04436.061575.1381881.1569273.2815335.2866538.012408.011957.026759.017934.042657.017934.01703 0 .031293-.00598.042657-.014944l.240583-.1826337c.046671.023912.097845.045135.1535686.06307l.047766.313914c.00115.014947.00779.026902.019704.036467.011921.009.025908.01495.041806.01495h.3787884c.03302 0 .053485-.01793.061467-.047826.01484-.057092.031245-.1626064.049447-.3173517.053461-.017934.1052436-.038858.1552714-.064863l.2354745.1841279c.015813.00897.030734.014944.04436.014944.025026 0 .078475-.040353.1603589-.121058.081929-.081004.1382125-.1419817.1688972-.1841279.01022-.011957.01533-.023913.01533-.039157 0-.014944-.0056-.029891-.01703-.042445-.081881-.1001374-.1427404-.1787505-.1825724-.2352443.022623-.0421462.044944-.0938574.066552-.1551337l.3156484-.0478255c.01362-.00186.02503-.00897.03414-.020923.009-.011957.01362-.026902.01362-.039157v-.3787477c.000022-.014944-.0044-.026902-.01362-.040353zm-.9878875.5348977c-.08529.085488-.1882433.1279329-.3088401.1279329s-.2235263-.042445-.3088437-.1279329c-.085289-.0854879-.1279707-.1883128-.1279707-.3088328 0-.1204602.042632-.223584.1279707-.3088028.085314-.085488.1882677-.1279331.3088437-.1279331.1205968 0 .2235537.042744.3088401.1279331.08529.085488.127971.1883125.127971.3088028 0 .1204604-.042657.223285-.127971.3088328z" fill="url(#b)" stroke-width=".020941"/></svg>