<?xml version="1.0" encoding="UTF-8" standalone="no"?>
<!-- Created with Inkscape (http://www.inkscape.org/) -->

<svg
   xmlns:dc="http://purl.org/dc/elements/1.1/"
   xmlns:cc="http://creativecommons.org/ns#"
   xmlns:rdf="http://www.w3.org/1999/02/22-rdf-syntax-ns#"
   xmlns:svg="http://www.w3.org/2000/svg"
   xmlns="http://www.w3.org/2000/svg"
   xmlns:xlink="http://www.w3.org/1999/xlink"
   xmlns:sodipodi="http://sodipodi.sourceforge.net/DTD/sodipodi-0.dtd"
   xmlns:inkscape="http://www.inkscape.org/namespaces/inkscape"
   width="48px"
   height="48px"
   id="svg2985"
   version="1.1"
   inkscape:version="0.91 r13725"
   sodipodi:docname="resharper-c++.svg"
   inkscape:export-filename="/home/spooky/Downloads/icon-requests/intellij/resharper-c++.svg.png"
   inkscape:export-xdpi="90"
   inkscape:export-ydpi="90">
  <defs
     id="defs2987">
    <linearGradient
       inkscape:collect="always"
       id="linearGradient4190">
      <stop
         style="stop-color:#c01e55;stop-opacity:1"
         offset="0"
         id="stop4192" />
      <stop
         style="stop-color:#b55197;stop-opacity:1"
         offset="1"
         id="stop4194" />
    </linearGradient>
    <linearGradient
       id="linearGradient5461"
       inkscape:collect="always">
      <stop
         id="stop5463"
         offset="0"
         style="stop-color:#cdd0d1;stop-opacity:1" />
      <stop
         id="stop5465"
         offset="1"
         style="stop-color:#f6f6f7;stop-opacity:1" />
    </linearGradient>
    <linearGradient
       inkscape:collect="always"
       id="linearGradient5358">
      <stop
         style="stop-color:#16a085;stop-opacity:1"
         offset="0"
         id="stop5360" />
      <stop
         style="stop-color:#2dcb72;stop-opacity:1"
         offset="1"
         id="stop5362" />
    </linearGradient>
    <linearGradient
       inkscape:collect="always"
       id="linearGradient4303">
      <stop
         style="stop-color:#989a9b;stop-opacity:1"
         offset="0"
         id="stop4305" />
      <stop
         style="stop-color:#f6f6f7;stop-opacity:1"
         offset="1"
         id="stop4307" />
    </linearGradient>
    <clipPath
       id="clipPath4458-7">
      <path
         style="fill:url(#linearGradient3441);fill-opacity:1"
         inkscape:connector-curvature="0"
         id="use4460-2"
         d="m 69.626,12.145 -0.052,0 c -22.727,-0.292 -46.472,4.077 -46.709,4.122 -2.424,0.451 -4.946,2.974 -5.397,5.397 -0.044,0.237 -4.414,23.983 -4.122,46.71 -0.292,22.777 4.078,46.523 4.122,46.761 0.451,2.423 2.974,4.945 5.398,5.398 0.237,0.044 23.982,4.413 46.709,4.121 22.779,0.292 46.524,-4.077 46.761,-4.121 2.423,-0.452 4.946,-2.976 5.398,-5.399 0.044,-0.236 4.413,-23.981 4.121,-46.709 0.292,-22.777 -4.077,-46.523 -4.121,-46.761 -0.453,-2.423 -2.976,-4.946 -5.398,-5.397 -0.238,-0.045 -23.984,-4.414 -46.71,-4.122 z" />
    </clipPath>
    <linearGradient
       inkscape:collect="always"
       xlink:href="#linearGradient5461"
       id="linearGradient5459"
       x1="31.190088"
       y1="56.636845"
       x2="29.945402"
       y2="32.58942"
       gradientUnits="userSpaceOnUse"
       gradientTransform="translate(-19.529425,0.29148396)" />
    <linearGradient
       inkscape:collect="always"
       xlink:href="#linearGradient5358"
       id="linearGradient5475"
       x1="37.455688"
       y1="27.792406"
       x2="28.53301"
       y2="19.966999"
       gradientUnits="userSpaceOnUse"
       gradientTransform="translate(-23.027232,19.675167)" />
    <linearGradient
       inkscape:collect="always"
       xlink:href="#linearGradient4303"
       id="linearGradient3441"
       gradientUnits="userSpaceOnUse"
       x1="2.3531249"
       y1="1044.3799"
       x2="13.377196"
       y2="1044.3799" />
    <filter
       inkscape:label="Blend Opposites"
       inkscape:menu="Color"
       inkscape:menu-tooltip="Blend an image with its hue opposite"
       style="color-interpolation-filters:sRGB;"
       id="filter3653">
      <feColorMatrix
         type="hueRotate"
         values="180"
         result="fbSourceGraphic"
         in="SourceGraphic"
         id="feColorMatrix3655" />
      <feColorMatrix
         values="1 0 0 0 0 0 1 0 0 0 0 0 1 0 0 -0.2125 -0.7154 -0.0721 1 0 "
         in="SourceGraphic"
         result="result1"
         id="feColorMatrix3657" />
      <feColorMatrix
         type="hueRotate"
         values="0"
         id="feColorMatrix3659" />
      <feColorMatrix
         values="1 0 0 0 0 0 1 0 0 0 0 0 1 0 0 0 0 0 1 0 "
         result="result3"
         id="feColorMatrix3661" />
      <feComposite
         in2="result3"
         result="result6"
         operator="atop"
         id="feComposite3663" />
      <feComposite
         in2="result6"
         operator="arithmetic"
         k2="0.5"
         k1="0.5"
         k3="0.5"
         in="result6"
         result="result4"
         id="feComposite3665" />
      <feBlend
         in2="fbSourceGraphic"
         mode="normal"
         result="result2"
         in="result4"
         id="feBlend3667" />
      <feComposite
         in2="result2"
         operator="arithmetic"
         k2="1"
         result="result5"
         id="feComposite3669" />
      <feComposite
         in2="SourceGraphic"
         operator="in"
         result="result5"
         id="feComposite3671" />
    </filter>
    <filter
       style="color-interpolation-filters:sRGB;"
       inkscape:label="Greyscale"
       id="filter3673">
      <feColorMatrix
         values="0.21 0.72 0.072 0 0 0.21 0.72 0.072 0 0 0.21 0.72 0.072 0 0 0 0 0 1 0 "
         id="feColorMatrix3675" />
    </filter>
    <linearGradient
       inkscape:collect="always"
       xlink:href="#linearGradient4190"
       id="linearGradient4211"
       gradientUnits="userSpaceOnUse"
       x1="54.109722"
       y1="44.293541"
       x2="80.213158"
       y2="1.1134603"
       gradientTransform="matrix(1.0291854,0,0,1.0291854,-91.958777,6.3111308)" />
  </defs>
  <sodipodi:namedview
     id="base"
     pagecolor="#5a5a5a"
     bordercolor="#e3e3e3"
     borderopacity="1"
     inkscape:pageopacity="0"
     inkscape:pageshadow="2"
     inkscape:zoom="9.7035431"
     inkscape:cx="30.356417"
     inkscape:cy="37.140378"
     inkscape:current-layer="g5481"
     showgrid="false"
     inkscape:grid-bbox="true"
     inkscape:document-units="px"
     inkscape:snap-global="true"
     inkscape:window-width="1440"
     inkscape:window-height="832"
     inkscape:window-x="0"
     inkscape:window-y="32"
     inkscape:window-maximized="1"
     inkscape:snap-bbox="true"
     inkscape:bbox-nodes="true"
     showguides="true"
     inkscape:showpageshadow="false"
     showborder="true">
    <inkscape:grid
       type="xygrid"
       id="grid2993" />
  </sodipodi:namedview>
  <metadata
     id="metadata2990">
    <rdf:RDF>
      <cc:Work
         rdf:about="">
        <dc:format>image/svg+xml</dc:format>
        <dc:type
           rdf:resource="http://purl.org/dc/dcmitype/StillImage" />
        <dc:title></dc:title>
      </cc:Work>
    </rdf:RDF>
  </metadata>
  <g
     id="layer1"
     inkscape:label="Layer 1"
     inkscape:groupmode="layer">
    <g
       id="g5481"
       transform="matrix(0.77761806,-0.01071721,0.01071721,0.77761806,30.946456,-1.6787268)">
      <rect
         ry="1.5437782"
         transform="matrix(0.99999416,-0.00341659,0.00341659,0.99999416,0,0)"
         y="8.5719137"
         x="-33.838921"
         height="37.355316"
         width="49.639671"
         id="rect4209"
         style="opacity:1;fill:#f6a917;fill-opacity:1;fill-rule:nonzero;stroke:none;stroke-width:2;stroke-miterlimit:4;stroke-dasharray:4, 2;stroke-dashoffset:0;stroke-opacity:1" />
      <g
         transform="matrix(0.9857059,-0.16847515,0.16847515,0.9857059,-48.699083,-8.9827573)"
         id="g5405">
        <g
           id="g5366"
           transform="matrix(1.0962056,0,0,1.0962056,0.51279347,-1.9879883)" />
      </g>
      <rect
         transform="matrix(0.98818625,-0.15325775,0.15325775,0.98818625,0,0)"
         ry="1.5437782"
         y="13.684669"
         x="-42.623764"
         height="37.355072"
         width="49.639862"
         id="rect4851-2"
         style="opacity:1;fill:url(#linearGradient4211);fill-opacity:1;stroke:none;stroke-width:1.5;stroke-linecap:round;stroke-linejoin:round;stroke-miterlimit:4;stroke-dasharray:none;stroke-opacity:1" />
      <circle
         transform="matrix(0.78017865,0,0,0.78017865,2.5819378,10.521665)"
         r="12.348694"
         cy="45.12323"
         cx="11.184063"
         id="path5451"
         style="opacity:1;fill:url(#linearGradient5459);fill-opacity:1;stroke:none;stroke-width:0.30261195;stroke-linecap:round;stroke-linejoin:round;stroke-miterlimit:4;stroke-dasharray:none;stroke-opacity:1;filter:url(#filter3673)" />
      <path
         transform="matrix(-0.0138427,0.90747861,-0.90747861,-0.0138427,51.546127,37.320471)"
         inkscape:transform-center-y="0.020206899"
         inkscape:transform-center-x="-1.4810216"
         d="M 14.428456,47.271288 5.5057777,47.467572 9.7971304,39.642164 Z"
         inkscape:randomized="0"
         inkscape:rounded="0"
         inkscape:flatsided="true"
         sodipodi:arg2="1.5488016"
         sodipodi:arg1="0.50160405"
         sodipodi:r2="2.5763786"
         sodipodi:r1="5.1527572"
         sodipodi:cy="44.793674"
         sodipodi:cx="9.9104548"
         sodipodi:sides="3"
         id="path5467"
         style="opacity:1;fill:url(#linearGradient5475);fill-opacity:1;stroke:none;stroke-width:0.30000001;stroke-linecap:round;stroke-linejoin:round;stroke-miterlimit:4;stroke-dasharray:none;stroke-opacity:1;filter:url(#filter3673)"
         sodipodi:type="star" />
      <path
         inkscape:connector-curvature="0"
         id="path4623"
         d="m -20.44254,43.018063 -0.188767,-0.849893 -4.837846,1.074531 -4.837843,1.074528 0.116128,0.712468 c 0.06387,0.391861 0.165415,0.786821 0.225608,0.877705 0.09089,0.137238 0.923125,-0.02158 4.910459,-0.937102 l 4.801023,-1.10235 z m 2.904551,-7.859506 c 0.01839,-0.123446 -0.06301,-0.658636 -0.180875,-1.189308 l -0.214304,-0.964861 1.135694,-0.291888 1.135695,-0.291889 -0.246854,-1.111398 -0.246855,-1.111396 -1.152475,0.216336 -1.152475,0.216337 -0.214304,-0.96486 c -0.312407,-1.406551 -0.280906,-1.384118 -1.548328,-1.102612 -1.267421,0.281507 -1.248379,0.247851 -0.935971,1.654398 l 0.214304,0.96486 -1.135695,0.291889 -1.135695,0.291889 0.246854,1.111398 0.246854,1.111396 1.152476,-0.216336 1.152475,-0.216337 0.214304,0.96486 c 0.312406,1.40655 0.280906,1.384119 1.548328,1.102612 0.867319,-0.19264 1.090086,-0.285406 1.116847,-0.46509 z m -11.966069,1.698779 c 0.125798,-0.197641 0.09226,-0.555346 -0.157544,-1.680044 l -0.317352,-1.428946 0.897402,-0.199319 0.897406,-0.199317 1.278838,1.235153 c 0.703361,0.679336 1.417396,1.292508 1.586746,1.362606 0.454465,0.188113 2.599172,-0.301568 2.644172,-0.603722 0.02035,-0.136611 -0.53309,-0.752137 -1.465295,-1.629686 -0.823894,-0.775589 -1.510006,-1.469232 -1.524694,-1.541432 -0.01464,-0.07221 0.179755,-0.318826 0.432094,-0.548059 1.60083,-1.454248 1.194905,-4.558791 -0.746891,-5.712298 -0.702207,-0.417139 -1.242749,-0.540953 -2.210494,-0.506327 -1.031289,0.0369 -5.536157,1.03133 -5.834807,1.288008 -0.214607,0.184447 -0.179993,0.384475 0.936342,5.410534 1.330063,5.988314 1.095277,5.510127 2.550152,5.193931 0.624294,-0.135687 0.919802,-0.261747 1.03396,-0.441085 z m -1.346802,-7.034381 -0.324938,-1.463002 1.590284,-0.304273 1.590281,-0.304273 0.476168,0.342119 c 0.658487,0.47311 0.8164,1.183827 0.420275,1.891573 l -0.286365,0.511679 -1.570375,0.394585 -1.570378,0.394584 -0.324939,-1.463003 z m 15.899546,-1.550257 c 0.01839,-0.123449 -0.06352,-0.660929 -0.182007,-1.194401 l -0.215438,-0.96995 0.955653,-0.21226 c 1.324754,-0.294239 1.399935,-0.406617 1.080482,-1.61503 l -0.25619,-0.969105 -1.152476,0.216337 -1.152476,0.216329 -0.214304,-0.96486 c -0.312407,-1.406551 -0.280906,-1.384118 -1.548329,-1.102612 -1.267419,0.281508 -1.248377,0.247852 -0.93597,1.654398 l 0.214304,0.96486 -1.135695,0.291888 -1.135694,0.29189 0.191235,1.043235 c 0.136671,0.745564 0.246369,1.063151 0.38442,1.113041 0.106251,0.0384 0.649382,-0.03061 1.20696,-0.15326 l 1.013777,-0.223072 0.215438,0.96995 c 0.31368,1.412267 0.281569,1.389314 1.549459,1.107703 0.867319,-0.19264 1.090086,-0.285407 1.116851,-0.465081 z"
         style="fill:#ffffff"
         sodipodi:nodetypes="ccccccscccscccccccssscccccccssccccccsssscssssssccccccscccccccscsscccssscccscscssc" />
    </g>
  </g>
</svg>
