<?xml version="1.0" encoding="UTF-8" standalone="no"?>
<!-- Created with Inkscape (http://www.inkscape.org/) -->

<svg
   xmlns:dc="http://purl.org/dc/elements/1.1/"
   xmlns:cc="http://creativecommons.org/ns#"
   xmlns:rdf="http://www.w3.org/1999/02/22-rdf-syntax-ns#"
   xmlns:svg="http://www.w3.org/2000/svg"
   xmlns="http://www.w3.org/2000/svg"
   xmlns:xlink="http://www.w3.org/1999/xlink"
   xmlns:sodipodi="http://sodipodi.sourceforge.net/DTD/sodipodi-0.dtd"
   xmlns:inkscape="http://www.inkscape.org/namespaces/inkscape"
   width="48px"
   height="48px"
   id="svg2985"
   version="1.1"
   inkscape:version="0.91 r13725"
   sodipodi:docname="resharper.svg"
   inkscape:export-filename="/home/spooky/Downloads/icon-requests/intellij/resharper.svg.png"
   inkscape:export-xdpi="90"
   inkscape:export-ydpi="90">
  <defs
     id="defs2987">
    <linearGradient
       inkscape:collect="always"
       id="linearGradient4190">
      <stop
         style="stop-color:#c01e55;stop-opacity:1"
         offset="0"
         id="stop4192" />
      <stop
         style="stop-color:#b55197;stop-opacity:1"
         offset="1"
         id="stop4194" />
    </linearGradient>
    <linearGradient
       id="linearGradient5461"
       inkscape:collect="always">
      <stop
         id="stop5463"
         offset="0"
         style="stop-color:#cdd0d1;stop-opacity:1" />
      <stop
         id="stop5465"
         offset="1"
         style="stop-color:#f6f6f7;stop-opacity:1" />
    </linearGradient>
    <linearGradient
       inkscape:collect="always"
       id="linearGradient5358">
      <stop
         style="stop-color:#16a085;stop-opacity:1"
         offset="0"
         id="stop5360" />
      <stop
         style="stop-color:#2dcb72;stop-opacity:1"
         offset="1"
         id="stop5362" />
    </linearGradient>
    <linearGradient
       inkscape:collect="always"
       id="linearGradient4303">
      <stop
         style="stop-color:#989a9b;stop-opacity:1"
         offset="0"
         id="stop4305" />
      <stop
         style="stop-color:#f6f6f7;stop-opacity:1"
         offset="1"
         id="stop4307" />
    </linearGradient>
    <clipPath
       id="clipPath4458-7">
      <path
         style="fill:url(#linearGradient3441);fill-opacity:1"
         inkscape:connector-curvature="0"
         id="use4460-2"
         d="m 69.626,12.145 -0.052,0 c -22.727,-0.292 -46.472,4.077 -46.709,4.122 -2.424,0.451 -4.946,2.974 -5.397,5.397 -0.044,0.237 -4.414,23.983 -4.122,46.71 -0.292,22.777 4.078,46.523 4.122,46.761 0.451,2.423 2.974,4.945 5.398,5.398 0.237,0.044 23.982,4.413 46.709,4.121 22.779,0.292 46.524,-4.077 46.761,-4.121 2.423,-0.452 4.946,-2.976 5.398,-5.399 0.044,-0.236 4.413,-23.981 4.121,-46.709 0.292,-22.777 -4.077,-46.523 -4.121,-46.761 -0.453,-2.423 -2.976,-4.946 -5.398,-5.397 -0.238,-0.045 -23.984,-4.414 -46.71,-4.122 z" />
    </clipPath>
    <linearGradient
       inkscape:collect="always"
       xlink:href="#linearGradient5461"
       id="linearGradient5459"
       x1="31.190088"
       y1="56.636845"
       x2="29.945402"
       y2="32.58942"
       gradientUnits="userSpaceOnUse"
       gradientTransform="translate(-19.529425,0.29148396)" />
    <linearGradient
       inkscape:collect="always"
       xlink:href="#linearGradient5358"
       id="linearGradient5475"
       x1="37.455688"
       y1="27.792406"
       x2="28.53301"
       y2="19.966999"
       gradientUnits="userSpaceOnUse"
       gradientTransform="translate(-23.027232,19.675167)" />
    <linearGradient
       inkscape:collect="always"
       xlink:href="#linearGradient4303"
       id="linearGradient3441"
       gradientUnits="userSpaceOnUse"
       x1="2.3531249"
       y1="1044.3799"
       x2="13.377196"
       y2="1044.3799" />
    <filter
       inkscape:label="Blend Opposites"
       inkscape:menu="Color"
       inkscape:menu-tooltip="Blend an image with its hue opposite"
       style="color-interpolation-filters:sRGB;"
       id="filter3653">
      <feColorMatrix
         type="hueRotate"
         values="180"
         result="fbSourceGraphic"
         in="SourceGraphic"
         id="feColorMatrix3655" />
      <feColorMatrix
         values="1 0 0 0 0 0 1 0 0 0 0 0 1 0 0 -0.2125 -0.7154 -0.0721 1 0 "
         in="SourceGraphic"
         result="result1"
         id="feColorMatrix3657" />
      <feColorMatrix
         type="hueRotate"
         values="0"
         id="feColorMatrix3659" />
      <feColorMatrix
         values="1 0 0 0 0 0 1 0 0 0 0 0 1 0 0 0 0 0 1 0 "
         result="result3"
         id="feColorMatrix3661" />
      <feComposite
         in2="result3"
         result="result6"
         operator="atop"
         id="feComposite3663" />
      <feComposite
         in2="result6"
         operator="arithmetic"
         k2="0.5"
         k1="0.5"
         k3="0.5"
         in="result6"
         result="result4"
         id="feComposite3665" />
      <feBlend
         in2="fbSourceGraphic"
         mode="normal"
         result="result2"
         in="result4"
         id="feBlend3667" />
      <feComposite
         in2="result2"
         operator="arithmetic"
         k2="1"
         result="result5"
         id="feComposite3669" />
      <feComposite
         in2="SourceGraphic"
         operator="in"
         result="result5"
         id="feComposite3671" />
    </filter>
    <filter
       style="color-interpolation-filters:sRGB;"
       inkscape:label="Greyscale"
       id="filter3673">
      <feColorMatrix
         values="0.21 0.72 0.072 0 0 0.21 0.72 0.072 0 0 0.21 0.72 0.072 0 0 0 0 0 1 0 "
         id="feColorMatrix3675" />
    </filter>
    <linearGradient
       inkscape:collect="always"
       xlink:href="#linearGradient4190"
       id="linearGradient4211"
       gradientUnits="userSpaceOnUse"
       x1="54.109722"
       y1="44.293541"
       x2="80.213158"
       y2="1.1134603"
       gradientTransform="matrix(1.0291854,0,0,1.0291854,-91.958777,6.3111308)" />
  </defs>
  <sodipodi:namedview
     id="base"
     pagecolor="#5a5a5a"
     bordercolor="#e3e3e3"
     borderopacity="1"
     inkscape:pageopacity="0"
     inkscape:pageshadow="2"
     inkscape:zoom="9.7035431"
     inkscape:cx="17.437631"
     inkscape:cy="29.238763"
     inkscape:current-layer="g5481"
     showgrid="false"
     inkscape:grid-bbox="true"
     inkscape:document-units="px"
     inkscape:snap-global="true"
     inkscape:window-width="1440"
     inkscape:window-height="832"
     inkscape:window-x="0"
     inkscape:window-y="32"
     inkscape:window-maximized="1"
     inkscape:snap-bbox="true"
     inkscape:bbox-nodes="true"
     showguides="true"
     inkscape:showpageshadow="false"
     showborder="true">
    <inkscape:grid
       type="xygrid"
       id="grid2993" />
  </sodipodi:namedview>
  <metadata
     id="metadata2990">
    <rdf:RDF>
      <cc:Work
         rdf:about="">
        <dc:format>image/svg+xml</dc:format>
        <dc:type
           rdf:resource="http://purl.org/dc/dcmitype/StillImage" />
        <dc:title></dc:title>
      </cc:Work>
    </rdf:RDF>
  </metadata>
  <g
     id="layer1"
     inkscape:label="Layer 1"
     inkscape:groupmode="layer">
    <g
       id="g5481"
       transform="matrix(0.77761806,-0.01071721,0.01071721,0.77761806,30.946456,-1.6787268)">
      <rect
         ry="1.5437782"
         transform="matrix(0.99999416,-0.00341659,0.00341659,0.99999416,0,0)"
         y="8.5719137"
         x="-33.838921"
         height="37.355316"
         width="49.639671"
         id="rect4209"
         style="opacity:1;fill:#f6a917;fill-opacity:1;fill-rule:nonzero;stroke:none;stroke-width:2;stroke-miterlimit:4;stroke-dasharray:4, 2;stroke-dashoffset:0;stroke-opacity:1" />
      <g
         transform="matrix(0.9857059,-0.16847515,0.16847515,0.9857059,-48.699083,-8.9827573)"
         id="g5405">
        <g
           id="g5366"
           transform="matrix(1.0962056,0,0,1.0962056,0.51279347,-1.9879883)" />
      </g>
      <rect
         transform="matrix(0.98818625,-0.15325775,0.15325775,0.98818625,0,0)"
         ry="1.5437782"
         y="13.684669"
         x="-42.623764"
         height="37.355072"
         width="49.639862"
         id="rect4851-2"
         style="opacity:1;fill:url(#linearGradient4211);fill-opacity:1;stroke:none;stroke-width:1.5;stroke-linecap:round;stroke-linejoin:round;stroke-miterlimit:4;stroke-dasharray:none;stroke-opacity:1" />
      <circle
         transform="matrix(0.78017865,0,0,0.78017865,2.5819378,10.521665)"
         r="12.348694"
         cy="45.12323"
         cx="11.184063"
         id="path5451"
         style="opacity:1;fill:url(#linearGradient5459);fill-opacity:1;stroke:none;stroke-width:0.30261195;stroke-linecap:round;stroke-linejoin:round;stroke-miterlimit:4;stroke-dasharray:none;stroke-opacity:1;filter:url(#filter3673)" />
      <path
         transform="matrix(-0.0138427,0.90747861,-0.90747861,-0.0138427,51.546127,37.320471)"
         inkscape:transform-center-y="0.020206899"
         inkscape:transform-center-x="-1.4810216"
         d="M 14.428456,47.271288 5.5057777,47.467572 9.7971304,39.642164 Z"
         inkscape:randomized="0"
         inkscape:rounded="0"
         inkscape:flatsided="true"
         sodipodi:arg2="1.5488016"
         sodipodi:arg1="0.50160405"
         sodipodi:r2="2.5763786"
         sodipodi:r1="5.1527572"
         sodipodi:cy="44.793674"
         sodipodi:cx="9.9104548"
         sodipodi:sides="3"
         id="path5467"
         style="opacity:1;fill:url(#linearGradient5475);fill-opacity:1;stroke:none;stroke-width:0.30000001;stroke-linecap:round;stroke-linejoin:round;stroke-miterlimit:4;stroke-dasharray:none;stroke-opacity:1;filter:url(#filter3673)"
         sodipodi:type="star" />
      <path
         inkscape:connector-curvature="0"
         id="path4570"
         d="m -20.12508,43.666342 c 0.04219,-0.257783 -0.249556,-1.475971 -0.372872,-1.556973 -0.08916,-0.05857 -1.282534,0.163568 -4.868814,0.906271 -4.613432,0.95542 -4.752198,0.988912 -4.80245,1.159043 -0.07276,0.246344 0.18512,1.43898 0.332065,1.53545 0.08918,0.05858 1.290294,-0.165177 4.903728,-0.913505 4.288643,-0.88816 4.78799,-1.005517 4.808403,-1.130295 z m -9.518998,-8.438299 -0.288505,-1.598404 0.829017,-0.195897 c 0.990956,-0.234167 0.749354,-0.36428 2.494607,1.343457 l 1.248675,1.221841 1.358778,-0.258139 c 1.034766,-0.196583 1.374466,-0.28765 1.424563,-0.381919 0.04981,-0.09373 -0.27983,-0.454234 -1.358085,-1.485189 -0.78313,-0.748777 -1.500191,-1.449825 -1.593464,-1.557884 -0.168103,-0.194734 -0.166864,-0.198662 0.139772,-0.444583 0.372663,-0.298871 1.066082,-1.330032 1.188741,-1.767736 0.296351,-1.057518 -0.02066,-2.55436 -0.730381,-3.448643 -0.57972,-0.730474 -1.388733,-1.131013 -2.528287,-1.251742 -0.474204,-0.05024 -0.852591,0.0047 -3.438219,0.499497 -2.408442,0.460863 -2.917102,0.57842 -2.973939,0.687316 -0.04818,0.09232 0.236584,1.694735 0.95812,5.391329 0.866322,4.43838 1.046667,5.267665 1.154614,5.309292 0.07037,0.02713 0.639705,-0.06621 1.265217,-0.207435 l 1.137291,-0.25677 z m -0.726754,-4.117274 c -0.03682,-0.05742 -0.17812,-0.692084 -0.314135,-1.410329 l -0.246978,-1.305974 1.350107,-0.276384 c 1.528824,-0.312968 1.943199,-0.299742 2.39245,0.07632 0.357471,0.299235 0.517528,1.04379 0.332861,1.548311 -0.231041,0.631154 -0.534017,0.799192 -2.088817,1.158499 -1.106556,0.25572 -1.371102,0.294613 -1.42567,0.209592 z m 11.386554,3.495712 c 0.03765,-0.07085 0.05755,-0.467182 0.04422,-0.880749 -0.01333,-0.413569 -0.01881,-0.867862 -0.01217,-1.009542 l 0.01203,-0.2576 0.94825,-0.220334 c 0.749453,-0.174151 0.952989,-0.19745 0.970855,-0.11117 0.01243,0.06004 0.03192,0.52236 0.04328,1.027381 0.01538,0.683033 0.04978,0.941464 0.134335,1.008983 0.08347,0.06666 0.370144,0.03765 1.079247,-0.109202 1.108325,-0.22953 1.060017,-0.179975 1.038686,-1.065443 -0.0073,-0.302483 -0.01534,-0.746806 -0.01788,-0.98738 l -0.0047,-0.437407 0.767655,-0.188296 c 0.571571,-0.140196 0.780911,-0.223627 0.819557,-0.326595 0.07785,-0.207448 -0.276756,-1.842724 -0.419993,-1.936817 -0.06841,-0.04493 -0.348523,-0.02986 -0.66576,0.03584 -0.327061,0.06769 -0.567251,0.07965 -0.596306,0.0296 -0.05634,-0.09705 -0.109954,-0.924073 -0.10007,-1.54354 l 0.0068,-0.426576 0.657786,-0.178742 c 0.361785,-0.09831 0.679546,-0.212075 0.706137,-0.252806 0.07279,-0.111508 -0.353908,-1.884207 -0.477246,-1.982703 -0.0594,-0.04745 -0.282313,-0.04933 -0.500076,-0.0042 -0.216087,0.04476 -0.41681,0.05609 -0.446052,0.02517 -0.02924,-0.03091 -0.06792,-0.470615 -0.08597,-0.977139 -0.04467,-1.254172 -0.01632,-1.230385 -1.179586,-0.989476 -0.684342,0.141727 -0.952638,0.228416 -1.018834,0.329186 -0.04941,0.07524 -0.07255,0.541966 -0.05141,1.037167 0.02116,0.495203 0.0292,0.956927 0.01789,1.026055 -0.01616,0.09873 -0.219811,0.166952 -0.949512,0.318069 l -0.928944,0.192385 -0.04112,-0.198521 c -0.02262,-0.109183 -0.05451,-0.562008 -0.07088,-1.006267 -0.03965,-1.075501 -0.02178,-1.06341 -1.208159,-0.817716 -1.112056,0.230304 -1.10636,0.222791 -1.032546,1.361788 0.07725,1.191942 0.115257,1.124082 -0.727358,1.298585 -0.450925,0.09339 -0.748501,0.193102 -0.79712,0.267119 -0.106703,0.162443 0.252949,1.899093 0.415393,2.005797 0.06871,0.04513 0.350032,0.02955 0.672555,-0.03724 0.537019,-0.111248 0.555771,-0.108424 0.596654,0.08899 0.05327,0.257324 0.105681,1.749344 0.06373,1.815057 -0.01719,0.02694 -0.327278,0.129429 -0.689063,0.227735 l -0.657786,0.178741 0.186732,1.017538 c 0.210677,1.148002 0.212146,1.149902 0.797261,1.030765 0.205674,-0.04193 0.396909,-0.06107 0.42495,-0.04266 0.02804,0.01841 0.05799,0.469126 0.06659,1.001571 0.0097,0.600665 0.0526,1.010744 0.113081,1.080487 0.132756,0.153078 1.98813,-0.215253 2.094743,-0.415853 z m 0.01743,-4.616872 c -0.08142,-0.126856 -0.175789,-1.436706 -0.127661,-1.771985 0.02712,-0.188961 0.0675,-0.205304 0.967992,-0.391792 0.545965,-0.113057 0.946477,-0.161813 0.955895,-0.116334 0.05779,0.278888 0.08956,1.832442 0.0395,1.929737 -0.04188,0.0814 -0.32921,0.174469 -0.909917,0.294731 -0.702855,0.14556 -0.861957,0.155119 -0.925805,0.05564 z"
         style="fill:#ffffff"
         sodipodi:nodetypes="cssccsccccsscssscssssscscscccccsscscccsscscssssscsssccscsscccsssscsccsssssssccscsccssccssscass" />
    </g>
  </g>
</svg>
