<?xml version="1.0" encoding="UTF-8" standalone="no"?>
<!-- Created with Inkscape (http://www.inkscape.org/) -->

<svg
   xmlns:dc="http://purl.org/dc/elements/1.1/"
   xmlns:cc="http://creativecommons.org/ns#"
   xmlns:rdf="http://www.w3.org/1999/02/22-rdf-syntax-ns#"
   xmlns:svg="http://www.w3.org/2000/svg"
   xmlns="http://www.w3.org/2000/svg"
   xmlns:xlink="http://www.w3.org/1999/xlink"
   xmlns:sodipodi="http://sodipodi.sourceforge.net/DTD/sodipodi-0.dtd"
   xmlns:inkscape="http://www.inkscape.org/namespaces/inkscape"
   width="48"
   height="48"
   id="svg4468"
   version="1.1"
   inkscape:version="0.92.1 r15371"
   viewBox="0 0 48 48"
   sodipodi:docname="retroarch.svg"
   inkscape:export-filename="/tmp/retroarch.png"
   inkscape:export-xdpi="512"
   inkscape:export-ydpi="512">
  <sodipodi:namedview
     id="base"
     pagecolor="#282828"
     bordercolor="#666666"
     borderopacity="1.0"
     inkscape:pageopacity="0"
     inkscape:pageshadow="2"
     inkscape:zoom="14"
     inkscape:cx="32.835667"
     inkscape:cy="18.369238"
     inkscape:current-layer="layer1"
     showgrid="true"
     inkscape:grid-bbox="true"
     inkscape:document-units="px"
     inkscape:window-width="1366"
     inkscape:window-height="712"
     inkscape:window-x="0"
     inkscape:window-y="28"
     inkscape:window-maximized="1"
     inkscape:pagecheckerboard="true"
     showguides="false" />
  <defs
     id="defs4470">
    <linearGradient
       inkscape:collect="always"
       id="linearGradient4321">
      <stop
         style="stop-color:#00d455;stop-opacity:1"
         offset="0"
         id="stop4323" />
      <stop
         style="stop-color:#00ff66;stop-opacity:1"
         offset="1"
         id="stop4325" />
    </linearGradient>
    <linearGradient
       inkscape:collect="always"
       id="linearGradient4289">
      <stop
         style="stop-color:#b3b3b3;stop-opacity:1"
         offset="0"
         id="stop4291" />
      <stop
         style="stop-color:#f2f2f2;stop-opacity:1"
         offset="1"
         id="stop4293" />
    </linearGradient>
    <linearGradient
       inkscape:collect="always"
       xlink:href="#linearGradient4289"
       id="linearGradient4295"
       x1="23.907377"
       y1="23.843342"
       x2="23.835575"
       y2="2.8321688"
       gradientUnits="userSpaceOnUse"
       gradientTransform="matrix(0.90721652,0,0,0.90721652,1.576906,2.0000007)" />
    <linearGradient
       inkscape:collect="always"
       xlink:href="#linearGradient4289"
       id="linearGradient4303"
       x1="36.391533"
       y1="33.205471"
       x2="36.446423"
       y2="28.760799"
       gradientUnits="userSpaceOnUse"
       gradientTransform="matrix(0.90721652,0,0,0.90721652,1.8361107,3.4256267)" />
    <linearGradient
       inkscape:collect="always"
       xlink:href="#linearGradient4289"
       id="linearGradient4311"
       x1="31.98447"
       y1="40.283508"
       x2="31.931629"
       y2="34.222595"
       gradientUnits="userSpaceOnUse"
       gradientTransform="matrix(0.90721652,0,0,0.90721652,1.3177012,2.9072172)" />
    <radialGradient
       inkscape:collect="always"
       xlink:href="#linearGradient4289"
       id="radialGradient4319"
       cx="14.831183"
       cy="33.774925"
       fx="14.831183"
       fy="33.774925"
       r="3.4896245"
       gradientTransform="matrix(0.4858479,0.02009349,-0.02123822,0.51352654,8.5436207,14.998836)"
       gradientUnits="userSpaceOnUse" />
    <linearGradient
       inkscape:collect="always"
       xlink:href="#linearGradient4321"
       id="linearGradient4327"
       x1="24.610117"
       y1="47.280849"
       x2="24.746014"
       y2="0.36864719"
       gradientUnits="userSpaceOnUse"
       gradientTransform="matrix(0.90721652,0,0,0.90721652,1.576906,2.0000007)" />
  </defs>
  <metadata
     id="metadata4473">
    <rdf:RDF>
      <cc:Work
         rdf:about="">
        <dc:format>image/svg+xml</dc:format>
        <dc:type
           rdf:resource="http://purl.org/dc/dcmitype/StillImage" />
        <dc:title></dc:title>
      </cc:Work>
    </rdf:RDF>
  </metadata>
  <g
     id="layer1"
     inkscape:label="Layer 1"
     inkscape:groupmode="layer">
    <rect
       rx="2.2169075"
       ry="2.2169075"
       y="2.9996095"
       x="7.9274216"
       height="43.546391"
       width="32.145157"
       id="rect4329"
       style="opacity:1;fill:#000000;fill-opacity:0.54901961;stroke:none;stroke-width:1.83333337;stroke-linejoin:miter;stroke-miterlimit:4;stroke-dasharray:none;stroke-opacity:0.07843137" />
    <rect
       style="opacity:1;fill:url(#linearGradient4327);fill-opacity:1;stroke:none;stroke-width:1.83333337;stroke-linejoin:miter;stroke-miterlimit:4;stroke-dasharray:none;stroke-opacity:0.07843137"
       id="rect5016"
       width="32.145157"
       height="43.546391"
       x="7.9274216"
       y="2.0000007"
       ry="2.2169075"
       rx="2.2169075" />
    <rect
       ry="1.4991574"
       rx="1.3727338"
       y="4.0121841"
       x="10.008784"
       height="20.131544"
       width="27.846886"
       id="rect4142"
       style="opacity:1;fill:#000000;fill-opacity:0.35294118;stroke:none;stroke-width:1.83333337;stroke-linejoin:miter;stroke-miterlimit:4;stroke-dasharray:none;stroke-opacity:0.07843137" />
    <rect
       style="opacity:1;fill:url(#linearGradient4295);fill-opacity:1;stroke:none;stroke-width:1.83333337;stroke-linejoin:miter;stroke-miterlimit:4;stroke-dasharray:none;stroke-opacity:0.07843137"
       id="rect5018"
       width="26.602888"
       height="18.843714"
       x="10.61938"
       y="4.6783752"
       rx="1.3114101"
       ry="1.4032552" />
    <circle
       style="opacity:1;fill:#000000;fill-opacity:0.35294118;stroke:none;stroke-width:1.83333337;stroke-linejoin:miter;stroke-miterlimit:4;stroke-dasharray:none;stroke-opacity:0.07843137"
       id="path5028"
       cx="15.018069"
       cy="32.739212"
       r="4.433815" />
    <path
       style="opacity:1;fill:url(#radialGradient4319);fill-opacity:1;stroke:none;stroke-width:1.83333337;stroke-linejoin:miter;stroke-miterlimit:4;stroke-dasharray:none;stroke-opacity:0.07843137"
       d="m 14.03168,29.475327 c -0.1559,0 -0.283057,0.124412 -0.283057,0.280308 v 1.684604 h -1.602161 c -0.1559,0 -0.280307,0.124411 -0.280307,0.280311 v 1.970408 c 0,0.155899 0.12441,0.280308 0.280307,0.280308 h 1.602161 v 1.552695 c 0,0.155899 0.127154,0.283057 0.283057,0.283057 h 1.967661 c 0.155901,0 0.283058,-0.127155 0.283058,-0.283057 v -1.552695 h 1.632388 c 0.155901,0 0.283058,-0.12441 0.283058,-0.280308 V 31.72055 c 0,-0.155902 -0.127154,-0.280311 -0.283058,-0.280311 h -1.632388 v -1.684604 c -2e-6,-0.155899 -0.127155,-0.280308 -0.283058,-0.280308 z"
       id="rect5020"
       inkscape:connector-curvature="0" />
    <g
       id="g4158"
       style="opacity:1;fill:#ffffff;fill-opacity:1;stroke:none;stroke-width:2;stroke-linejoin:miter;stroke-miterlimit:4;stroke-dasharray:none;stroke-opacity:0.07843137"
       transform="matrix(1.1084536,0,0,1.1084536,-0.94020773,-4.492371)" />
    <g
       style="opacity:1;fill:#ffffff;fill-opacity:1;stroke:none;stroke-width:2;stroke-linejoin:miter;stroke-miterlimit:4;stroke-dasharray:none;stroke-opacity:0.07843137"
       id="g4189"
       transform="matrix(1.1084536,0,0,1.1084536,-0.94020773,-4.492371)" />
    <g
       id="g4222"
       style="opacity:1;fill:#ffffff;fill-opacity:1;stroke:none;stroke-width:2;stroke-linejoin:miter;stroke-miterlimit:4;stroke-dasharray:none;stroke-opacity:0.07843137"
       transform="matrix(1.1084536,0,0,1.1084536,-0.94020773,-4.492371)" />
    <path
       inkscape:transform-center-y="1.9793816"
       inkscape:transform-center-x="5.463093"
       id="path5024"
       d="m 36.825404,31.625684 a 1.9952166,1.9952166 0 0 1 -1.995215,1.995216 1.9952166,1.9952166 0 0 1 -1.995217,-1.995216 1.9952166,1.9952166 0 0 1 1.995217,-1.995218 1.9952166,1.9952166 0 0 1 1.995215,1.995218 z"
       style="opacity:1;fill:url(#linearGradient4303);fill-opacity:1;stroke:none;stroke-width:1.83333337;stroke-linejoin:miter;stroke-miterlimit:4;stroke-dasharray:none;stroke-opacity:0.07843137"
       inkscape:connector-curvature="0" />
    <g
       style="opacity:1;fill:#ffffff;fill-opacity:1;stroke:none;stroke-width:2;stroke-linejoin:miter;stroke-miterlimit:4;stroke-dasharray:none;stroke-opacity:0.07843137"
       id="g4258"
       transform="matrix(1.1084536,0,0,1.1084536,-0.94020773,-4.492371)" />
    <path
       inkscape:connector-curvature="0"
       style="opacity:1;fill:url(#linearGradient4311);fill-opacity:1;stroke:none;stroke-width:1.83333337;stroke-linejoin:miter;stroke-miterlimit:4;stroke-dasharray:none;stroke-opacity:0.07843137"
       d="m 33.127527,36.703804 a 2.7711343,2.7711343 0 0 1 -2.771136,2.771133 2.7711343,2.7711343 0 0 1 -2.771133,-2.771133 2.7711343,2.7711343 0 0 1 2.771133,-2.771135 2.7711343,2.7711343 0 0 1 2.771136,2.771135 z"
       id="path5026" />
    <path
       style="fill:#000000;fill-opacity:0.66666669;stroke-width:0.03267974"
       d="M 18.457031 7.5996094 C 18.346639 7.5994134 18.320312 7.6940997 18.320312 7.8046875 L 18.320312 9.0058594 C 18.32028 9.1162189 18.346609 9.1992188 18.457031 9.1992188 L 19.667969 9.1992188 C 19.778361 9.1992188 19.867971 9.1142986 19.867188 9.0039062 C 19.863988 8.6039062 19.863481 8.2009774 19.863281 7.8007812 C 19.863281 7.6903891 19.772695 7.5996094 19.662109 7.5996094 L 18.457031 7.5996094 z M 28.181641 7.5996094 C 28.071281 7.5996094 27.919922 7.6923091 27.919922 7.8027344 L 27.919922 9.0136719 C 27.919922 9.124064 28.039966 9.2119187 28.150391 9.2109375 C 28.550391 9.2077375 28.937694 9.2072312 29.337891 9.2070312 C 29.448446 9.2070312 29.521484 9.1182046 29.521484 9.0078125 L 29.521484 7.8007812 C 29.521484 7.6903891 29.493169 7.5996094 29.382812 7.5996094 L 28.181641 7.5996094 z M 20.107422 9.2089844 C 19.996605 9.2082 19.919922 9.2958574 19.919922 9.40625 L 19.919922 10.644531 C 19.919922 10.755152 19.778557 10.800781 19.667969 10.800781 L 18.439453 10.800781 C 18.329061 10.800781 18.320312 10.93453 18.320312 11.044922 L 18.320312 12.267578 C 18.320312 12.378167 18.149455 12.400391 18.039062 12.400391 L 16.816406 12.400391 C 16.706014 12.400391 16.521484 12.55738 16.521484 12.667969 L 16.521484 13.890625 C 16.521484 14.001017 16.526408 14 16.416016 14 L 15.210938 14 C 15.100546 14 14.919922 14.180624 14.919922 14.291016 L 14.919922 18.726562 C 14.919922 18.837183 15.100513 19 15.210938 19 L 16.414062 19 C 16.524455 19 16.521484 18.836955 16.521484 18.726562 L 16.521484 15.904297 C 16.521484 15.793676 16.704028 15.800781 16.814453 15.800781 L 18.050781 15.800781 C 18.161173 15.800781 18.320313 15.793902 18.320312 15.904297 L 18.320312 18.744141 C 18.320312 18.854533 18.375702 18.945312 18.486328 18.945312 C 18.89672 18.945312 19.311835 18.944254 19.707031 18.947266 C 19.817423 18.948266 19.919922 18.860427 19.919922 18.75 L 19.919922 17.53125 C 19.919922 17.420825 19.946049 17.400391 20.056641 17.400391 L 27.787109 17.400391 C 27.897534 17.400391 27.986328 17.454057 27.986328 17.564453 C 27.986328 17.974878 27.985634 18.389454 27.982422 18.789062 C 27.981605 18.89965 28.06926 19 28.179688 19 L 29.398438 19 C 29.508601 19 29.521484 18.854533 29.521484 18.744141 L 29.521484 15.90625 C 29.521484 15.795825 29.688272 15.800781 29.798828 15.800781 L 31.041016 15.800781 C 31.151376 15.800781 31.320312 15.795845 31.320312 15.90625 L 31.320312 18.726562 C 31.320312 18.836955 31.330983 19 31.441406 19 L 32.630859 19 C 32.741283 19 32.919922 18.836988 32.919922 18.726562 L 32.919922 14.283203 C 32.919987 14.172648 32.741218 14 32.630859 14 L 31.416016 14 C 31.305591 14 31.121094 13.993206 31.121094 13.882812 L 31.121094 12.65625 C 31.121094 12.545858 31.126087 12.400391 31.015625 12.400391 L 29.792969 12.400391 C 29.682348 12.400391 29.521484 12.366257 29.521484 12.255859 L 29.521484 11.035156 C 29.521484 10.924568 29.504961 10.800781 29.394531 10.800781 L 28.175781 10.800781 C 28.065356 10.800781 27.919922 10.745159 27.919922 10.634766 L 27.919922 9.40625 C 27.919922 9.2958579 27.858403 9.208004 27.748047 9.2089844 C 27.348995 9.2121844 26.941593 9.2128906 26.527344 9.2128906 C 26.416985 9.2128906 26.320313 9.3017174 26.320312 9.4121094 L 26.320312 10.628906 C 26.320117 10.73969 26.270747 10.800781 26.160156 10.800781 L 21.671875 10.800781 C 21.561483 10.800781 21.521484 10.739293 21.521484 10.628906 L 21.521484 9.4121094 C 21.521484 9.3017173 21.407267 9.2109375 21.296875 9.2109375 C 20.886679 9.2109375 20.502422 9.2121823 20.107422 9.2089844 z M 20.064453 12.400391 L 21.285156 12.400391 C 21.395548 12.400391 21.521484 12.543676 21.521484 12.654297 C 21.521451 13.060865 21.521484 13.463668 21.521484 13.873047 C 21.521484 13.983472 21.395548 14 21.285156 14 L 20.0625 14 C 19.951911 14 19.919922 13.98536 19.919922 13.875 L 19.919922 12.654297 C 19.919922 12.543905 19.953833 12.400391 20.064453 12.400391 z M 26.556641 12.400391 L 27.777344 12.400391 C 27.887704 12.400391 27.919922 12.545825 27.919922 12.65625 L 27.919922 13.876953 C 27.919922 13.987346 27.887705 14 27.777344 14 L 26.556641 14 C 26.446021 14 26.320313 13.987578 26.320312 13.876953 L 26.320312 12.65625 C 26.320312 12.546053 26.446217 12.400391 26.556641 12.400391 z M 20.060547 18.951172 C 19.950155 18.95078 19.858362 19.039767 19.859375 19.150391 C 19.862575 19.550359 19.863081 19.976757 19.863281 20.376953 C 19.863281 20.487345 19.952071 20.599609 20.0625 20.599609 L 22.890625 20.599609 C 23.001017 20.599413 23.121094 20.463908 23.121094 20.353516 L 23.121094 19.158203 C 23.121094 19.047582 23.016643 18.958755 22.90625 18.958984 C 22.60527 18.95918 22.301872 18.959801 22.005859 18.958984 C 21.358637 18.956984 20.707736 18.953772 20.060547 18.951172 z M 27.857422 18.955078 C 27.826412 18.957478 27.808944 18.978516 27.777344 18.978516 C 26.825089 18.979104 25.887737 19 24.935547 19 L 24.845703 19 C 24.795733 19 24.720703 19.047815 24.720703 19.158203 L 24.720703 20.355469 C 24.720703 20.465861 24.84449 20.599609 24.955078 20.599609 L 27.78125 20.599609 C 27.891675 20.599609 27.919922 20.465861 27.919922 20.355469 L 27.919922 19.144531 C 27.919954 19.034139 27.909642 18.951059 27.857422 18.955078 z "
       id="path5" />
  </g>
</svg>
