<svg height="48" viewBox="0 0 48 48" width="48" xmlns="http://www.w3.org/2000/svg" xmlns:xlink="http://www.w3.org/1999/xlink"><linearGradient id="a" gradientUnits="userSpaceOnUse" x1="23.955938292391" x2="24.039185550464" y1="1044.223123471128" y2="1012.089826896448"><stop offset="0" stop-color="#ffcb39"/><stop offset="1" stop-color="#ffd42a"/></linearGradient><linearGradient id="b" gradientUnits="userSpaceOnUse" x1="23.625" x2="23.625" y1="1050.2372" y2="1006.4872"><stop offset="0" stop-color="#ececec"/><stop offset="1" stop-color="#f9f9f9"/></linearGradient><g transform="translate(0 -1004.3622)"><path d="m11.865098 1006.8622h24.269804c2.141264 0 3.865098 1.7238 3.865098 3.8651v36.2698c0 2.1412-1.723834 3.8651-3.865098 3.8651h-24.269804c-2.141264 0-3.865098-1.7239-3.865098-3.8651v-36.2698c0-2.1413 1.723834-3.8651 3.865098-3.8651zm31.134902 22a19 19 0 0 1 -19 19 19 19 0 0 1 -19-19 19 19 0 0 1 19-19 19 19 0 0 1 19 19z" fill="#1a1a1a"/><path d="m43 1028.3622a19 19 0 0 1 -19 19 19 19 0 0 1 -19-19 19 19 0 0 1 19-19 19 19 0 0 1 19 19zm-31.134902-22h24.269804c2.141264 0 3.865098 1.7238 3.865098 3.8651v36.2698c0 2.1412-1.723834 3.8651-3.865098 3.8651h-24.269804c-2.1412642 0-3.865098-1.7239-3.865098-3.8651v-36.2698c0-2.1413 1.7238338-3.8651 3.865098-3.8651z" fill="url(#b)"/><circle cx="24" cy="1028.3622" fill="url(#a)" r="16.01108" stroke="#4d4d4d" stroke-width="1.977839"/><circle cx="24" cy="1028.3622" fill="#f60" fill-opacity=".601156" r="10"/><rect fill="#333" height="4.861359" ry="1.856155" width="3.712311" x="33.852737" y="1043.6117"/><path d="m31.015433 1018.6107s.07658-.4997-.05332-.6906c-.121915-.1791-.584565-.2842-.584565-.2842l-4.88788-.6623h-.000007-.000007c-.826061.2335-2.178586.6004-2.178586 1.5029v14.3121c-.837648-.4631-1.913444-.6502-3.028768-.3444-2.012615.552-3.273801 2.3358-2.842378 3.9839.431426 1.6477 2.414046 2.5683 4.426658 2.0165 1.60565-.4405 2.71246-1.6863 2.88898-3.0002l.0466-13.5249 5.218805-1.4755" fill="#fff"/></g></svg>