<?xml version="1.0" encoding="UTF-8" standalone="no"?>
<!-- Created with Inkscape (http://www.inkscape.org/) -->

<svg
   xmlns:dc="http://purl.org/dc/elements/1.1/"
   xmlns:cc="http://creativecommons.org/ns#"
   xmlns:rdf="http://www.w3.org/1999/02/22-rdf-syntax-ns#"
   xmlns:svg="http://www.w3.org/2000/svg"
   xmlns="http://www.w3.org/2000/svg"
   xmlns:sodipodi="http://sodipodi.sourceforge.net/DTD/sodipodi-0.dtd"
   xmlns:inkscape="http://www.inkscape.org/namespaces/inkscape"
   width="48"
   height="48"
   viewBox="0 0 48 48"
   id="svg2"
   version="1.1"
   inkscape:version="0.91 r13725"
   sodipodi:docname="rlogo_icon.svg">
  <defs
     id="defs4" />
  <sodipodi:namedview
     id="base"
     pagecolor="#ffffff"
     bordercolor="#666666"
     borderopacity="1.0"
     inkscape:pageopacity="0.0"
     inkscape:pageshadow="2"
     inkscape:zoom="11.2"
     inkscape:cx="27.433319"
     inkscape:cy="21.824276"
     inkscape:document-units="px"
     inkscape:current-layer="layer1"
     showgrid="false"
     units="px" />
  <metadata
     id="metadata7">
    <rdf:RDF>
      <cc:Work
         rdf:about="">
        <dc:format>image/svg+xml</dc:format>
        <dc:type
           rdf:resource="http://purl.org/dc/dcmitype/StillImage" />
        <dc:title></dc:title>
      </cc:Work>
    </rdf:RDF>
  </metadata>
  <g
     inkscape:label="Layer 1"
     inkscape:groupmode="layer"
     id="layer1"
     transform="translate(0,-1004.3622)">
    <ellipse
       style="fill:#808080;stroke:none;stroke-opacity:1"
       id="path3354"
       cx="24.467739"
       cy="1023.18"
       rx="20.467739"
       ry="12.732825" />
    <ellipse
       style="fill:#ececec;stroke:none;stroke-opacity:1"
       id="path3358"
       cx="27.112545"
       cy="1024.4417"
       rx="17.812498"
       ry="11.339288" />
    <g
       transform="matrix(1.1096071,0,0,0.80326135,0.44643021,111.467)"
       style="font-style:normal;font-weight:normal;font-size:50.00038528px;line-height:125%;font-family:sans-serif;letter-spacing:0px;word-spacing:0px;fill:#5f5fd3;fill-opacity:1;stroke:none;stroke-width:1px;stroke-linecap:butt;stroke-linejoin:miter;stroke-opacity:1"
       id="text3338">
      <path
         d="m 25.683417,1148.1031 -5.200236,0 0,13.2813 -6.860404,0 0,-35.5471 11.914154,0 q 2.954124,0 5.346721,0.708 2.392597,0.6836 4.07718,2.0264 1.708997,1.3427 2.612325,3.3447 0.927741,2.002 0.927741,4.6387 0,1.9043 -0.463871,3.4424 -0.439456,1.5137 -1.293955,2.7344 -0.830084,1.1963 -2.026383,2.0996 -1.171884,0.9034 -2.636739,1.5626 l 7.641661,14.6729 0,0.3174 -7.34869,0 -6.689504,-13.2813 z m -5.200236,-5.5665 5.078164,0 q 2.905296,0 4.467808,-1.4649 1.586927,-1.4892 1.586927,-4.0527 0,-2.6612 -1.538098,-4.126 -1.538098,-1.4893 -4.541051,-1.4893 l -5.05375,0 0,11.1329 z"
         style="font-style:normal;font-variant:normal;font-weight:bold;font-stretch:normal;font-family:'Roboto Mono';-inkscape-font-specification:'Roboto Mono';fill:#5f5fd3"
         id="path3459"
         inkscape:connector-curvature="0" />
    </g>
  </g>
</svg>
