<?xml version="1.0" encoding="UTF-8" standalone="no"?>
<!-- Created with Inkscape (http://www.inkscape.org/) -->

<svg
   xmlns:dc="http://purl.org/dc/elements/1.1/"
   xmlns:cc="http://creativecommons.org/ns#"
   xmlns:rdf="http://www.w3.org/1999/02/22-rdf-syntax-ns#"
   xmlns:svg="http://www.w3.org/2000/svg"
   xmlns="http://www.w3.org/2000/svg"
   xmlns:xlink="http://www.w3.org/1999/xlink"
   xmlns:sodipodi="http://sodipodi.sourceforge.net/DTD/sodipodi-0.dtd"
   xmlns:inkscape="http://www.inkscape.org/namespaces/inkscape"
   width="48"
   height="48"
   id="svg5453"
   version="1.1"
   inkscape:version="0.91 r13725"
   sodipodi:docname="libreoffice-base.svg">
  <defs
     id="defs5455">
    <linearGradient
       id="linearGradient5363"
       inkscape:collect="always">
      <stop
         id="stop5365"
         offset="0"
         style="stop-color:#8e44ad;stop-opacity:1" />
      <stop
         id="stop5367"
         offset="1"
         style="stop-color:#c370e5;stop-opacity:1" />
    </linearGradient>
    <linearGradient
       id="linearGradient5232"
       inkscape:collect="always">
      <stop
         id="stop5234"
         offset="0"
         style="stop-color:#84499f;stop-opacity:1" />
      <stop
         id="stop5236"
         offset="1"
         style="stop-color:#a85ccb;stop-opacity:1" />
    </linearGradient>
    <linearGradient
       inkscape:collect="always"
       id="linearGradient4320">
      <stop
         style="stop-color:#f6fbff;stop-opacity:1"
         offset="0"
         id="stop4322" />
      <stop
         style="stop-color:#eaeff2;stop-opacity:1"
         offset="1"
         id="stop4324" />
    </linearGradient>
    <linearGradient
       inkscape:collect="always"
       xlink:href="#linearGradient5363"
       id="linearGradient4537"
       gradientUnits="userSpaceOnUse"
       gradientTransform="matrix(1.0309825,0,0,1,-0.512598,0)"
       x1="17"
       y1="1036.3622"
       x2="17"
       y2="1012.3622" />
    <linearGradient
       inkscape:collect="always"
       xlink:href="#linearGradient4320"
       id="linearGradient4308-5"
       x1="33.461716"
       y1="1013.622"
       x2="34.116894"
       y2="1037.2084"
       gradientUnits="userSpaceOnUse"
       gradientTransform="matrix(0.75298225,0,0,1,8.6175433,0)" />
    <linearGradient
       inkscape:collect="always"
       xlink:href="#linearGradient5232"
       id="linearGradient4539"
       gradientUnits="userSpaceOnUse"
       gradientTransform="translate(-0.199659,0)"
       x1="28"
       y1="1037.3622"
       x2="28"
       y2="1011.3622" />
    <linearGradient
       inkscape:collect="always"
       xlink:href="#linearGradient4320"
       id="linearGradient5387"
       x1="15.890957"
       y1="1031.1986"
       x2="25.063435"
       y2="1020.0606"
       gradientUnits="userSpaceOnUse"
       gradientTransform="matrix(1.1546659,0,0,1.1546659,-3.1173661,-158.14781)" />
  </defs>
  <sodipodi:namedview
     id="base"
     pagecolor="#5a5a5a"
     bordercolor="#ffffff"
     borderopacity="1"
     inkscape:pageopacity="0"
     inkscape:pageshadow="2"
     inkscape:zoom="8"
     inkscape:cx="-18.0625"
     inkscape:cy="26.895852"
     inkscape:document-units="px"
     inkscape:current-layer="g4179"
     showgrid="false"
     fit-margin-top="0"
     fit-margin-left="0"
     fit-margin-right="0"
     fit-margin-bottom="0"
     inkscape:window-width="1366"
     inkscape:window-height="630"
     inkscape:window-x="0"
     inkscape:window-y="36"
     inkscape:window-maximized="1"
     inkscape:showpageshadow="false"
     borderlayer="true"
     showguides="false"
     inkscape:snap-bbox="true"
     inkscape:snap-global="true"
     showborder="false">
    <inkscape:grid
       type="xygrid"
       id="grid4063" />
    <sodipodi:guide
       position="1.1650391e-05,47.999996"
       orientation="4,0"
       id="guide4146" />
    <sodipodi:guide
       position="39,44"
       orientation="0,48"
       id="guide4148" />
    <sodipodi:guide
       position="48.000012,43.999996"
       orientation="-4,0"
       id="guide4150" />
    <sodipodi:guide
       position="48.000012,47.999996"
       orientation="0,-48"
       id="guide4152" />
    <sodipodi:guide
       position="1.1650391e-05,4.0000264"
       orientation="4,0"
       id="guide4154" />
    <sodipodi:guide
       position="1.1650391e-05,2.6367188e-05"
       orientation="0,48"
       id="guide4156" />
    <sodipodi:guide
       position="48.000012,2.6367188e-05"
       orientation="-4,0"
       id="guide4158" />
    <sodipodi:guide
       position="48.000012,4.0000264"
       orientation="0,-48"
       id="guide4160" />
    <sodipodi:guide
       position="48.000012,48.000026"
       orientation="0,-4"
       id="guide4162" />
    <sodipodi:guide
       position="40,23"
       orientation="48,0"
       id="guide4164" />
    <sodipodi:guide
       position="44.000012,2.6367188e-05"
       orientation="0,4"
       id="guide4166" />
    <sodipodi:guide
       position="48.000012,2.6367188e-05"
       orientation="-48,0"
       id="guide4168" />
    <sodipodi:guide
       position="4.0000422,48.000026"
       orientation="0,-4"
       id="guide4170" />
    <sodipodi:guide
       position="4.2167969e-05,48.000026"
       orientation="48,0"
       id="guide4172" />
    <sodipodi:guide
       position="4.2167969e-05,2.6367188e-05"
       orientation="0,4"
       id="guide4174" />
    <sodipodi:guide
       position="8.0000117,43.999996"
       orientation="13.999969,0"
       id="guide4888" />
    <sodipodi:guide
       position="22.000012,43.999996"
       orientation="0,-14"
       id="guide4894" />
    <sodipodi:guide
       position="16.000012,32.000026"
       orientation="16,0"
       id="guide4216" />
    <sodipodi:guide
       position="16.000012,16.000026"
       orientation="0,16"
       id="guide4218" />
    <sodipodi:guide
       position="32.000012,16.000026"
       orientation="-16,0"
       id="guide4220" />
    <sodipodi:guide
       position="-17,32"
       orientation="0,-16"
       id="guide4222" />
  </sodipodi:namedview>
  <metadata
     id="metadata5458">
    <rdf:RDF>
      <cc:Work
         rdf:about="">
        <dc:format>image/svg+xml</dc:format>
        <dc:type
           rdf:resource="http://purl.org/dc/dcmitype/StillImage" />
        <dc:title />
      </cc:Work>
    </rdf:RDF>
  </metadata>
  <g
     inkscape:label="Layer 1"
     inkscape:groupmode="layer"
     id="layer1"
     transform="translate(-384.57143,-499.798)">
    <g
       id="g4231"
       transform="matrix(1.5263052,0,0,1.5263052,376.31698,-1040.1258)">
      <g
         id="g5458"
         transform="translate(-1.048506,0)">
        <g
           id="g4179"
           transform="matrix(1.1526351,0,0,1.1526351,-3.6668875,-156.46452)">
          <path
             style="opacity:1;fill:url(#linearGradient4308-5);fill-opacity:1;fill-rule:evenodd;stroke:none;stroke-width:1px;stroke-linecap:butt;stroke-linejoin:miter;stroke-opacity:1"
             d="m 33.874827,1036.9362 -8.724702,0 0,-24.498 8.724702,0 c 0.92628,-0.094 1.000816,0.023 1.000816,1.1721 l 0,22.0916 c 0.05818,1.261 -0.100097,1.2343 -1.000816,1.2343 z"
             id="path4248-6-8"
             inkscape:connector-curvature="0"
             sodipodi:nodetypes="ccccccc" />
          <path
             style="opacity:1;fill:url(#linearGradient4537);fill-opacity:1;fill-rule:evenodd;stroke:none;stroke-width:1px;stroke-linecap:butt;stroke-linejoin:miter;stroke-opacity:1"
             d="m 11.563303,1036.9442 11.636697,0 0,-24.498 -11.533603,0 c -1.268259,-0.094 -1.782566,0.023 -1.782566,1.1721 l 0,22.0916 c -0.07966,1.261 0.446208,1.2343 1.679472,1.2343 z"
             id="path4248-0"
             inkscape:connector-curvature="0"
             sodipodi:nodetypes="ccccccc" />
          <path
             style="opacity:1;fill:url(#linearGradient4539);fill-opacity:1;fill-rule:evenodd;stroke:none;stroke-width:1px;stroke-linecap:butt;stroke-linejoin:miter;stroke-opacity:1"
             d="M 31.957586,1038.1035 21.928,1036.932 l 0,-24.4859 9.945906,-0.9326 c 1.230149,-0.094 1.296492,0.2446 1.296492,1.3937 l -0.08368,23.3688 c 0.07726,1.261 0.06707,1.8275 -1.129132,1.8275 z"
             id="path4248-6-0-3"
             inkscape:connector-curvature="0"
             sodipodi:nodetypes="ccccccc" />
          <path
             d="m 26.70051,1020.9822 c 0.03298,-0.091 0.05629,-0.1835 0.05629,-0.2818 0,-1.2057 -2.605286,-1.8561 -5.057176,-1.8561 -2.449464,0 -5.054052,0.6504 -5.054052,1.8561 0,0.099 0.02287,0.1916 0.0562,0.2826 l -0.01305,0.024 c -0.112072,0.2032 -0.167476,0.4084 -0.167476,0.6104 l 0,1.4918 c 0,0.2297 0.07226,0.4502 0.200413,0.6587 l -0.01674,0.029 c -0.122191,0.2119 -0.18357,0.4265 -0.18357,0.6387 l 0,1.4914 c 0,0.2224 0.06821,0.4359 0.18939,0.6386 l -0.0061,0.013 c -0.122191,0.2115 -0.18357,0.4265 -0.18357,0.6382 l 0,1.4917 c 0,1.3259 2.274708,2.3641 5.178398,2.3641 2.906823,0 5.181523,-1.0382 5.181523,-2.3641 l 0,-1.4917 c 0,-0.212 -0.06147,-0.4274 -0.185091,-0.6386 l -0.0051,-0.013 c 0.120254,-0.2031 0.190157,-0.4164 0.190157,-0.6393 l 0,-1.4916 c 0,-0.2122 -0.06147,-0.4277 -0.185089,-0.6392 l -0.01606,-0.028 c 0.128028,-0.2087 0.201113,-0.4289 0.201113,-0.6594 l 0,-1.4917 c 0,-0.2019 -0.05629,-0.4076 -0.167478,-0.611 l -0.0132,-0.024 z m -0.37441,7.7211 c 0,0.8565 -1.89877,1.8096 -4.626391,1.8096 -2.725049,0 -4.624163,-0.9531 -4.624163,-1.8096 l 0,-1.4029 c 0.850425,0.7788 2.60002,1.2758 4.624163,1.2758 2.026924,0 3.77645,-0.4972 4.626391,-1.2766 l 0,1.4037 z m 0,-2.7775 c 0,0.8557 -1.89877,1.8094 -4.626391,1.8094 -2.725049,0 -4.624163,-0.9537 -4.624163,-1.8094 l 0,-1.4033 c 0.850425,0.7785 2.60002,1.2758 4.624163,1.2758 2.026924,0 3.77645,-0.4973 4.626391,-1.2766 l 0,1.4041 z m 0,-2.8178 c 0,0.8557 -1.89877,1.8095 -4.626391,1.8095 -2.725049,0 -4.624163,-0.9533 -4.624163,-1.8095 l 0,-1.2414 c 0.831077,0.7044 2.75813,1.0696 4.624163,1.0696 1.868527,0 3.794761,-0.3652 4.626391,-1.0696 l 0,1.2414 z"
             id="path11"
             inkscape:connector-curvature="0"
             style="fill:url(#linearGradient5387);fill-opacity:1.0" />
        </g>
      </g>
    </g>
  </g>
</svg>
