<svg height="48" preserveAspectRatio="xMidYMid" viewBox="0 0 48 48" width="48" xmlns="http://www.w3.org/2000/svg" xmlns:xlink="http://www.w3.org/1999/xlink"><linearGradient id="a"><stop offset="0" stop-color="#ff2a2a"/><stop offset="1" stop-color="#f55"/></linearGradient><linearGradient id="b" gradientUnits="userSpaceOnUse" x1="18.82161939117" x2="18.82161939117" xlink:href="#a" y1="40.453124251361" y2="6.044848834338"/><linearGradient id="c" gradientUnits="userSpaceOnUse" x1="23.50573783392" x2="23.257891233731" xlink:href="#a" y1="40.767645690646" y2="7.941359398246"/><path d="m48 25.046771c0-2.41047-.72108-4.72128-2.143597-6.87015-1.277341-1.92847-3.066866-3.63559-5.318266-5.07439-4.347565-2.776999-10.061588-4.3068388-16.088479-4.3068388-2.013275 0-3.997805.17009-5.922442.50739-1.193975-1.1178-2.592057-2.12347-4.07111-2.91834-7.9026586-3.83011-14.456106-.0901-14.456106-.0901s6.0930099 5.0053988 5.1021831 9.3927388c-2.7257319 2.70417-4.20334795 5.96508-4.20334795 9.35967 0 .0105.00047826.0216.00047826.0326 0 .0105-.00047826.0211-.00047826.0326 0 3.39459 1.47713685 6.6555 4.20334795 9.35919.9908268 4.38781-5.1021831 9.39321-5.1021831 9.39321s6.5534474 3.73956 14.456106-.0901c1.479053-.79487 2.876656-1.80103 4.07111-2.91834 1.925117.33682 3.909167.50691 5.922442.50691 6.027369 0 11.740914-1.52888 16.088479-4.30588 2.2514-1.43881 4.040925-3.14544 5.318266-5.07487 1.422517-2.14839 2.143597-4.46016 2.143597-6.86967 0-.011-.000562-.0216-.000562-.0326s.000562-.0225.000562-.0331z" fill-opacity=".666667"/><path d="m48 24.546771c0-2.41047-.72108-4.72128-2.143597-6.87015-1.277341-1.92847-3.066866-3.63559-5.318266-5.07439-4.347565-2.7769996-10.061588-4.3068392-16.088479-4.3068392-2.013275 0-3.997805.17009-5.922442.50739-1.193975-1.1178-2.592057-2.12347-4.07111-2.91834-7.9026586-3.83011-14.456106-.0901-14.456106-.0901s6.0930099 5.0053992 5.1021831 9.3927392c-2.7257319 2.70417-4.20334795 5.96508-4.20334795 9.35967 0 .0105.00047826.0216.00047826.0326 0 .0105-.00047826.0211-.00047826.0326 0 3.39459 1.47713685 6.6555 4.20334795 9.35919.9908268 4.38781-5.1021831 9.39321-5.1021831 9.39321s6.5534474 3.73956 14.456106-.0901c1.479053-.79487 2.876656-1.80103 4.07111-2.91834 1.925117.33682 3.909167.50691 5.922442.50691 6.027369 0 11.740914-1.52888 16.088479-4.30588 2.2514-1.43881 4.040925-3.14544 5.318266-5.07487 1.422517-2.14839 2.143597-4.46016 2.143597-6.86967 0-.011-.000562-.0216-.000562-.0326s.000562-.0225.000562-.0331z" fill="url(#b)"/><path d="m24.449658 11.703391c11.160216 0 20.20798 5.77919 20.20798 12.90806 0 7.12839-9.047764 12.90806-20.20798 12.90806-2.485213 0-4.865017-.28748-7.063714-.81116-2.23463 2.68788-7.150434 6.42552-11.9258558 5.21765 1.5533175-1.6683 3.8545462-4.48746 3.3620076-9.13113-2.8622822-2.22696-4.580418-5.07726-4.580418-8.18342-.0004792-7.12935 9.0472842-12.90806 20.2079802-12.90806" fill="#fff"/><path d="m24.449658 27.711381c1.482623 0 2.684527-1.20191 2.684527-2.68453s-1.201904-2.68453-2.684527-2.68453c-1.482624 0-2.684528 1.20191-2.684528 2.68453s1.201904 2.68453 2.684528 2.68453zm9.33332 0c1.482623 0 2.684528-1.20191 2.684528-2.68453s-1.201905-2.68453-2.684528-2.68453c-1.482624 0-2.684528 1.20191-2.684528 2.68453s1.201904 2.68453 2.684528 2.68453zm-18.667119-.00057c1.482358 0 2.684048-1.20168 2.684048-2.68404s-1.20169-2.68405-2.684048-2.68405c-1.482359 0-2.684049 1.20169-2.684049 2.68405s1.20169 2.68404 2.684049 2.68404z" fill="url(#c)"/></svg>