<?xml version="1.0" encoding="UTF-8" standalone="no"?>
<svg
   xmlns:dc="http://purl.org/dc/elements/1.1/"
   xmlns:cc="http://creativecommons.org/ns#"
   xmlns:rdf="http://www.w3.org/1999/02/22-rdf-syntax-ns#"
   xmlns:svg="http://www.w3.org/2000/svg"
   xmlns="http://www.w3.org/2000/svg"
   xmlns:xlink="http://www.w3.org/1999/xlink"
   xmlns:sodipodi="http://sodipodi.sourceforge.net/DTD/sodipodi-0.dtd"
   xmlns:inkscape="http://www.inkscape.org/namespaces/inkscape"
   width="48"
   height="48"
   viewBox="0 0 48 48"
   version="1.1"
   preserveAspectRatio="xMidYMid"
   id="svg2"
   inkscape:version="0.91 r13725"
   sodipodi:docname="rocket-chat.svg">
  <sodipodi:namedview
     pagecolor="#ffffff"
     bordercolor="#666666"
     borderopacity="1"
     objecttolerance="10"
     gridtolerance="10"
     guidetolerance="10"
     inkscape:pageopacity="0"
     inkscape:pageshadow="2"
     inkscape:window-width="640"
     inkscape:window-height="480"
     id="namedview14"
     showgrid="false"
     inkscape:zoom="13.412932"
     inkscape:cx="23.39909"
     inkscape:cy="25.672102"
     inkscape:current-layer="svg2" />
  <metadata
     id="metadata18">
    <rdf:RDF>
      <cc:Work
         rdf:about="">
        <dc:format>image/svg+xml</dc:format>
        <dc:type
           rdf:resource="http://purl.org/dc/dcmitype/StillImage" />
        <dc:title></dc:title>
      </cc:Work>
    </rdf:RDF>
  </metadata>
  <defs
     id="defs16">
    <linearGradient
       id="linearGradient4150"
       inkscape:collect="always">
      <stop
         id="stop4152"
         offset="0"
         style="stop-color:#ff2a2a;stop-opacity:1" />
      <stop
         id="stop4154"
         offset="1"
         style="stop-color:#ff5555;stop-opacity:1" />
    </linearGradient>
    <linearGradient
       gradientTransform="matrix(0.18755229,0,0,0.18755229,-0.00405758,4.0460418)"
       gradientUnits="userSpaceOnUse"
       y2="10.657331"
       x2="100.37562"
       y1="194.11697"
       x1="100.37562"
       id="linearGradient4156"
       xlink:href="#linearGradient4150"
       inkscape:collect="always" />
    <linearGradient
       gradientTransform="matrix(0.18755229,0,0,0.18755229,-0.00405758,4.0460418)"
       gradientUnits="userSpaceOnUse"
       y2="20.769234"
       x2="124.02914"
       y1="195.79395"
       x1="125.35062"
       id="linearGradient4164"
       xlink:href="#linearGradient4150"
       inkscape:collect="always" />
    <clipPath
       clipPathUnits="userSpaceOnUse"
       id="clipPath4332">
      <path
         style="fill:#ffffff"
         inkscape:connector-curvature="0"
         id="path4334"
         d="m 24.449658,11.703391 c 11.160216,0 20.20798,5.77919 20.20798,12.90806 0,7.12839 -9.047764,12.90806 -20.20798,12.90806 -2.485213,0 -4.865017,-0.28748 -7.063714,-0.81116 -2.23463,2.68788 -7.150434,6.42552 -11.9258558,5.21765 1.5533175,-1.6683 3.8545462,-4.48746 3.3620076,-9.13113 -2.8622822,-2.22696 -4.580418,-5.07726 -4.580418,-8.18342 -4.792e-4,-7.12935 9.0472842,-12.90806 20.2079802,-12.90806" />
    </clipPath>
  </defs>
  <path
     style="fill:#000000;fill-opacity:0.66666669"
     inkscape:connector-curvature="0"
     id="path4166"
     d="m 48,25.046771 c 0,-2.41047 -0.72108,-4.72128 -2.143597,-6.87015 -1.277341,-1.92847 -3.066866,-3.63559 -5.318266,-5.07439 -4.347565,-2.776999 -10.061588,-4.3068388 -16.088479,-4.3068388 -2.013275,0 -3.997805,0.17009 -5.922442,0.50739 -1.193975,-1.1178 -2.592057,-2.12347 -4.07111,-2.91834 C 6.5534474,2.5543322 0,6.2943422 0,6.2943422 c 0,0 6.0930099,5.0053988 5.1021831,9.3927388 -2.7257319,2.70417 -4.20334795,5.96508 -4.20334795,9.35967 0,0.0105 4.7826e-4,0.0216 4.7826e-4,0.0326 0,0.0105 -4.7826e-4,0.0211 -4.7826e-4,0.0326 0,3.39459 1.47713685,6.6555 4.20334795,9.35919 C 6.0930099,38.858951 0,43.864351 0,43.864351 c 0,0 6.5534474,3.73956 14.456106,-0.0901 1.479053,-0.79487 2.876656,-1.80103 4.07111,-2.91834 1.925117,0.33682 3.909167,0.50691 5.922442,0.50691 6.027369,0 11.740914,-1.52888 16.088479,-4.30588 2.2514,-1.43881 4.040925,-3.14544 5.318266,-5.07487 C 47.27892,29.833681 48,27.521911 48,25.112401 c 0,-0.011 -5.62e-4,-0.0216 -5.62e-4,-0.0326 0,-0.011 5.62e-4,-0.0225 5.62e-4,-0.0331 l 0,0 0,0 z" />
  <path
     d="m 48,24.546771 c 0,-2.41047 -0.72108,-4.72128 -2.143597,-6.87015 -1.277341,-1.92847 -3.066866,-3.63559 -5.318266,-5.07439 C 36.190572,9.8252314 30.476549,8.2953918 24.449658,8.2953918 c -2.013275,0 -3.997805,0.17009 -5.922442,0.50739 -1.193975,-1.1178 -2.592057,-2.12347 -4.07111,-2.91834 C 6.5534474,2.0543318 0,5.7943418 0,5.7943418 c 0,0 6.0930099,5.0053992 5.1021831,9.3927392 -2.7257319,2.70417 -4.20334795,5.96508 -4.20334795,9.35967 0,0.0105 4.7826e-4,0.0216 4.7826e-4,0.0326 0,0.0105 -4.7826e-4,0.0211 -4.7826e-4,0.0326 0,3.39459 1.47713685,6.6555 4.20334795,9.35919 C 6.0930099,38.358951 0,43.364351 0,43.364351 c 0,0 6.5534474,3.73956 14.456106,-0.0901 1.479053,-0.79487 2.876656,-1.80103 4.07111,-2.91834 1.925117,0.33682 3.909167,0.50691 5.922442,0.50691 6.027369,0 11.740914,-1.52888 16.088479,-4.30588 2.2514,-1.43881 4.040925,-3.14544 5.318266,-5.07487 C 47.27892,29.333681 48,27.021911 48,24.612401 c 0,-0.011 -5.62e-4,-0.0216 -5.62e-4,-0.0326 0,-0.011 5.62e-4,-0.0225 5.62e-4,-0.0331 l 0,0 0,0 z"
     id="path6"
     inkscape:connector-curvature="0"
     style="fill:url(#linearGradient4156);fill-opacity:1" />
  <path
     d="m 24.449658,11.703391 c 11.160216,0 20.20798,5.77919 20.20798,12.90806 0,7.12839 -9.047764,12.90806 -20.20798,12.90806 -2.485213,0 -4.865017,-0.28748 -7.063714,-0.81116 -2.23463,2.68788 -7.150434,6.42552 -11.9258558,5.21765 1.5533175,-1.6683 3.8545462,-4.48746 3.3620076,-9.13113 -2.8622822,-2.22696 -4.580418,-5.07726 -4.580418,-8.18342 -4.792e-4,-7.12935 9.0472842,-12.90806 20.2079802,-12.90806"
     id="path8"
     inkscape:connector-curvature="0"
     style="fill:#ffffff" />
  <path
     style="fill:url(#linearGradient4164);fill-opacity:1"
     inkscape:connector-curvature="0"
     id="path10"
     d="m 24.449658,27.711381 c 1.482623,0 2.684527,-1.20191 2.684527,-2.68453 0,-1.48262 -1.201904,-2.68453 -2.684527,-2.68453 -1.482624,0 -2.684528,1.20191 -2.684528,2.68453 0,1.48262 1.201904,2.68453 2.684528,2.68453 l 0,0 z m 9.33332,0 c 1.482623,0 2.684528,-1.20191 2.684528,-2.68453 0,-1.48262 -1.201905,-2.68453 -2.684528,-2.68453 -1.482624,0 -2.684528,1.20191 -2.684528,2.68453 0,1.48262 1.201904,2.68453 2.684528,2.68453 l 0,0 z m -18.667119,-5.7e-4 c 1.482358,0 2.684048,-1.20168 2.684048,-2.68404 0,-1.48236 -1.20169,-2.68405 -2.684048,-2.68405 -1.482359,0 -2.684049,1.20169 -2.684049,2.68405 0,1.48236 1.20169,2.68404 2.684049,2.68404 l 0,0 z" />
</svg>
