<svg height="48" width="48" xmlns="http://www.w3.org/2000/svg" xmlns:xlink="http://www.w3.org/1999/xlink"><linearGradient id="a" gradientUnits="userSpaceOnUse" x1="24" x2="24" y1="46" y2="2"><stop offset="0" stop-color="#ececec"/><stop offset="1" stop-color="#fff"/></linearGradient><linearGradient id="b" gradientUnits="userSpaceOnUse" x1="24" x2="24" y1="46" y2="2"><stop offset="0" stop-color="#073fb7"/><stop offset="1" stop-color="#6edaf1"/></linearGradient><circle cx="24" cy="24" fill="url(#b)" r="22"/><path d="m16.482422 14.910217v1.4082l2.46 2.46v11.6094h-2.46v1.4101l12.587732 12.587773c8.185364-3.349749 14.728667-13.218575 14.728667-13.218575l-15.052727-15.052798c-.149465-.1495-.307932-.2834-.472656-.3964-1.05-.7201-2.16-.8086-4.08-.8086z" fill-opacity=".08"/><path d="m16.483186 14.909217v1.41h2.46v14.07h-2.46v1.41h6.63v-1.41h-2.67v-6.33h2.16c1.56 0 2.04.78 3.21 2.61.42.66 1.95 3.12 2.88 5.13h3.75v-1.41h-2.64c-1.17-1.95-3.21-5.34-4.29-6.36 3.48-.36 4.59-2.82 4.59-4.59 0-1.47-.78-3-1.83-3.72s-2.16-.81-4.08-.81zm7.65 1.41c2.16 0 2.64.21 3.09.51.78.54 1.26 1.53 1.26 2.52 0 3.36-3.66 3.3-5.25 3.3h-2.79v-6.33z" fill="#fff"/><circle cx="24" cy="24" fill="none" r="21" stroke="url(#a)" stroke-width="2"/></svg>