<?xml version="1.0" encoding="UTF-8" standalone="no"?>
<!-- Created with Inkscape (http://www.inkscape.org/) -->

<svg
   xmlns:dc="http://purl.org/dc/elements/1.1/"
   xmlns:cc="http://creativecommons.org/ns#"
   xmlns:rdf="http://www.w3.org/1999/02/22-rdf-syntax-ns#"
   xmlns:svg="http://www.w3.org/2000/svg"
   xmlns="http://www.w3.org/2000/svg"
   xmlns:xlink="http://www.w3.org/1999/xlink"
   xmlns:sodipodi="http://sodipodi.sourceforge.net/DTD/sodipodi-0.dtd"
   xmlns:inkscape="http://www.inkscape.org/namespaces/inkscape"
   width="48"
   height="48"
   viewBox="0 0 48 48.000001"
   id="svg2"
   version="1.1"
   inkscape:version="0.91 r13725"
   sodipodi:docname="rstudio.svg">
  <sodipodi:namedview
     id="base"
     pagecolor="#dcdcdc"
     bordercolor="#666666"
     borderopacity="1.0"
     inkscape:pageopacity="0"
     inkscape:pageshadow="2"
     inkscape:zoom="31.678384"
     inkscape:cx="38.659016"
     inkscape:cy="10.136934"
     inkscape:document-units="px"
     inkscape:current-layer="layer1"
     showgrid="false"
     units="px" />
  <defs
     id="defs4">
    <linearGradient
       inkscape:collect="always"
       id="linearGradient3215">
      <stop
         style="stop-color:#ececec;stop-opacity:1"
         offset="0"
         id="stop3217" />
      <stop
         style="stop-color:#ffffff;stop-opacity:1"
         offset="1"
         id="stop3219" />
    </linearGradient>
    <linearGradient
       id="linearGradient3201"
       inkscape:collect="always">
      <stop
         id="stop3203"
         offset="0"
         style="stop-color:#5f8dd3;stop-opacity:1" />
      <stop
         id="stop3205"
         offset="1"
         style="stop-color:#afc6e9;stop-opacity:1" />
    </linearGradient>
    <linearGradient
       gradientTransform="matrix(0.95833333,0,0,0.95833333,0.99999934,42.848442)"
       gradientUnits="userSpaceOnUse"
       y2="1005.0113"
       x2="23.233509"
       y1="1051.0995"
       x1="23.738585"
       id="linearGradient3207"
       xlink:href="#linearGradient3215"
       inkscape:collect="always" />
    <linearGradient
       gradientTransform="translate(-2.4804687e-7,1.1582813e-5)"
       y2="1005.0113"
       x2="23.233509"
       y1="1051.0995"
       x1="23.738585"
       gradientUnits="userSpaceOnUse"
       id="linearGradient3213"
       xlink:href="#linearGradient3201"
       inkscape:collect="always" />
  </defs>
  <metadata
     id="metadata7">
    <rdf:RDF>
      <cc:Work
         rdf:about="">
        <dc:format>image/svg+xml</dc:format>
        <dc:type
           rdf:resource="http://purl.org/dc/dcmitype/StillImage" />
        <dc:title />
      </cc:Work>
    </rdf:RDF>
  </metadata>
  <g
     transform="translate(0,-1004.3622)"
     id="layer1"
     inkscape:groupmode="layer"
     inkscape:label="Layer 1">
    <g
       id="g3212">
      <circle
         style="opacity:1;fill:url(#linearGradient3213);fill-opacity:1;fill-rule:nonzero;stroke:none;stroke-width:2;stroke-miterlimit:4;stroke-dasharray:none;stroke-dashoffset:0;stroke-opacity:1"
         id="path3192"
         cx="24"
         cy="1028.3622"
         r="23" />
      <path
         id="path3241"
         transform="translate(0,1004.3622)"
         d="M 16.482422 14.910156 L 16.482422 16.318359 L 18.943359 18.779297 L 18.943359 30.388672 L 16.482422 30.388672 L 16.482422 31.798828 L 30.671875 45.988281 A 23 23 0 0 0 45.291016 32.660156 L 28.746094 16.115234 C 28.596629 15.965734 28.438162 15.83175 28.273438 15.71875 C 27.223437 14.99875 26.113359 14.910156 24.193359 14.910156 L 16.482422 14.910156 z "
         clip-path="none"
         style="font-style:normal;font-variant:normal;font-weight:normal;font-stretch:normal;font-size:medium;line-height:125%;font-family:Courier;-inkscape-font-specification:Courier;text-align:end;letter-spacing:0px;word-spacing:0px;text-anchor:end;fill:#000000;fill-opacity:0.07843137;stroke:none;stroke-width:1px;stroke-linecap:butt;stroke-linejoin:miter;stroke-opacity:1" />
      <path
         d="m 16.483186,1019.2714 0,1.41 2.46,0 0,14.07 -2.46,0 0,1.41 6.63,0 0,-1.41 -2.67,0 0,-6.33 2.16,0 c 1.56,0 2.04,0.78 3.21,2.61 0.42,0.66 1.95,3.12 2.88,5.13 l 3.75,0 0,-1.41 -2.64,0 c -1.17,-1.95 -3.21,-5.34 -4.29,-6.36 3.48,-0.36 4.59,-2.82 4.59,-4.59 0,-1.47 -0.78,-3 -1.83,-3.72 -1.05,-0.72 -2.16,-0.81 -4.08,-0.81 l -7.71,0 z m 7.65,1.41 c 2.16,0 2.64,0.21 3.09,0.51 0.78,0.54 1.26,1.53 1.26,2.52 0,3.36 -3.66,3.3 -5.25,3.3 l -2.79,0 0,-6.33 3.69,0 z"
         style="font-style:normal;font-variant:normal;font-weight:normal;font-stretch:normal;font-size:30px;line-height:125%;font-family:Courier;-inkscape-font-specification:Courier;text-align:end;letter-spacing:0px;word-spacing:0px;text-anchor:end;fill:#ffffff;fill-opacity:1;stroke:none;stroke-width:1px;stroke-linecap:butt;stroke-linejoin:miter;stroke-opacity:1"
         id="path3199"
         inkscape:connector-curvature="0" />
      <path
         inkscape:connector-curvature="0"
         id="circle3209"
         d="m 24,1005.3613 c -12.691212,0 -23.00001958,10.3088 -23,23 3.8e-5,12.6912 10.308829,23 23,23 12.691171,0 22.999962,-10.3088 23,-23 2e-5,-12.6912 -10.308788,-23 -23,-23 z m 0,1.918 c 11.655367,0 21.084002,9.4267 21.083984,21.082 -3.5e-5,11.6554 -9.428655,21.084 -21.083984,21.084 -11.655329,0 -21.0839495,-9.4286 -21.0839844,-21.084 -1.8e-5,-11.6553 9.4286174,-21.082 21.0839844,-21.082 z"
         style="color:#000000;font-style:normal;font-variant:normal;font-weight:normal;font-stretch:normal;font-size:medium;line-height:normal;font-family:sans-serif;text-indent:0;text-align:start;text-decoration:none;text-decoration-line:none;text-decoration-style:solid;text-decoration-color:#000000;letter-spacing:normal;word-spacing:normal;text-transform:none;direction:ltr;block-progression:tb;writing-mode:lr-tb;baseline-shift:baseline;text-anchor:start;white-space:normal;clip-rule:nonzero;display:inline;overflow:visible;visibility:visible;opacity:1;isolation:auto;mix-blend-mode:normal;color-interpolation:sRGB;color-interpolation-filters:linearRGB;solid-color:#000000;solid-opacity:1;fill:url(#linearGradient3207);fill-opacity:1;fill-rule:nonzero;stroke:none;stroke-width:1.91666663;stroke-linecap:butt;stroke-linejoin:miter;stroke-miterlimit:4;stroke-dasharray:none;stroke-dashoffset:0;stroke-opacity:1;color-rendering:auto;image-rendering:auto;shape-rendering:auto;text-rendering:auto;enable-background:accumulate" />
    </g>
  </g>
</svg>
