<svg height="48" viewBox="0 0 48 48.000001" width="48" xmlns="http://www.w3.org/2000/svg" xmlns:xlink="http://www.w3.org/1999/xlink"><linearGradient id="a" gradientUnits="userSpaceOnUse" x1="23.749476212538" x2="23.265445047555" y1="1050.152125996335" y2="1005.984267816629"><stop offset="0" stop-color="#ececec"/><stop offset="1" stop-color="#fff"/></linearGradient><linearGradient id="b" gradientUnits="userSpaceOnUse" x1="23.738585" x2="23.233509" y1="1051.099512" y2="1005.011312"><stop offset="0" stop-color="#5f8dd3"/><stop offset="1" stop-color="#afc6e9"/></linearGradient><g transform="translate(0 -1004.3622)"><circle cx="24" cy="1028.3622" fill="url(#b)" r="23"/><path d="m16.482422 14.910156v1.408203l2.460937 2.460938v11.609375h-2.460937v1.410156l14.189453 14.189453a23 23 0 0 0 14.619141-13.328125l-16.544922-16.544922c-.149465-.1495-.307932-.283484-.472656-.396484-1.050001-.72-2.160079-.808594-4.080079-.808594z" fill-opacity=".078431" transform="translate(0 1004.3622)"/><path d="m16.483186 1019.2714v1.41h2.46v14.07h-2.46v1.41h6.63v-1.41h-2.67v-6.33h2.16c1.56 0 2.04.78 3.21 2.61.42.66 1.95 3.12 2.88 5.13h3.75v-1.41h-2.64c-1.17-1.95-3.21-5.34-4.29-6.36 3.48-.36 4.59-2.82 4.59-4.59 0-1.47-.78-3-1.83-3.72s-2.16-.81-4.08-.81zm7.65 1.41c2.16 0 2.64.21 3.09.51.78.54 1.26 1.53 1.26 2.52 0 3.36-3.66 3.3-5.25 3.3h-2.79v-6.33z" fill="#fff"/><path d="m24 1005.3613c-12.691212 0-23.00001958 10.3088-23 23 .000038 12.6912 10.308829 23 23 23s22.999962-10.3088 23-23c .00002-12.6912-10.308788-23-23-23zm0 1.918c11.655367 0 21.084002 9.4267 21.083984 21.082-.000035 11.6554-9.428655 21.084-21.083984 21.084s-21.0839495-9.4286-21.0839844-21.084c-.000018-11.6553 9.4286174-21.082 21.0839844-21.082z" fill="url(#a)"/></g></svg>