<?xml version="1.0" encoding="UTF-8" standalone="no"?>
<!-- Created with Inkscape (http://www.inkscape.org/) -->

<svg
   xmlns:dc="http://purl.org/dc/elements/1.1/"
   xmlns:cc="http://creativecommons.org/ns#"
   xmlns:rdf="http://www.w3.org/1999/02/22-rdf-syntax-ns#"
   xmlns:svg="http://www.w3.org/2000/svg"
   xmlns="http://www.w3.org/2000/svg"
   xmlns:xlink="http://www.w3.org/1999/xlink"
   xmlns:sodipodi="http://sodipodi.sourceforge.net/DTD/sodipodi-0.dtd"
   xmlns:inkscape="http://www.inkscape.org/namespaces/inkscape"
   width="48px"
   height="48px"
   id="svg2985"
   version="1.1"
   inkscape:version="0.91 r13725"
   sodipodi:docname="rubymine.svg"
   inkscape:export-filename="/home/spooky/Downloads/icon-requests/intellij/rubymine.svg.png"
   inkscape:export-xdpi="90"
   inkscape:export-ydpi="90">
  <defs
     id="defs2987">
    <linearGradient
       inkscape:collect="always"
       id="linearGradient4190">
      <stop
         style="stop-color:#ff1f51;stop-opacity:1"
         offset="0"
         id="stop4192" />
      <stop
         style="stop-color:#ff7e2c;stop-opacity:1"
         offset="1"
         id="stop4194" />
    </linearGradient>
    <linearGradient
       id="linearGradient5461"
       inkscape:collect="always">
      <stop
         id="stop5463"
         offset="0"
         style="stop-color:#cdd0d1;stop-opacity:1" />
      <stop
         id="stop5465"
         offset="1"
         style="stop-color:#f6f6f7;stop-opacity:1" />
    </linearGradient>
    <linearGradient
       inkscape:collect="always"
       id="linearGradient5358">
      <stop
         style="stop-color:#16a085;stop-opacity:1"
         offset="0"
         id="stop5360" />
      <stop
         style="stop-color:#2dcb72;stop-opacity:1"
         offset="1"
         id="stop5362" />
    </linearGradient>
    <linearGradient
       inkscape:collect="always"
       id="linearGradient4303">
      <stop
         style="stop-color:#989a9b;stop-opacity:1"
         offset="0"
         id="stop4305" />
      <stop
         style="stop-color:#f6f6f7;stop-opacity:1"
         offset="1"
         id="stop4307" />
    </linearGradient>
    <clipPath
       id="clipPath4458-7">
      <path
         style="fill:url(#linearGradient3441);fill-opacity:1"
         inkscape:connector-curvature="0"
         id="use4460-2"
         d="m 69.626,12.145 -0.052,0 c -22.727,-0.292 -46.472,4.077 -46.709,4.122 -2.424,0.451 -4.946,2.974 -5.397,5.397 -0.044,0.237 -4.414,23.983 -4.122,46.71 -0.292,22.777 4.078,46.523 4.122,46.761 0.451,2.423 2.974,4.945 5.398,5.398 0.237,0.044 23.982,4.413 46.709,4.121 22.779,0.292 46.524,-4.077 46.761,-4.121 2.423,-0.452 4.946,-2.976 5.398,-5.399 0.044,-0.236 4.413,-23.981 4.121,-46.709 0.292,-22.777 -4.077,-46.523 -4.121,-46.761 -0.453,-2.423 -2.976,-4.946 -5.398,-5.397 -0.238,-0.045 -23.984,-4.414 -46.71,-4.122 z" />
    </clipPath>
    <linearGradient
       inkscape:collect="always"
       xlink:href="#linearGradient5461"
       id="linearGradient5459"
       x1="31.190088"
       y1="56.636845"
       x2="29.945402"
       y2="32.58942"
       gradientUnits="userSpaceOnUse"
       gradientTransform="translate(-19.529425,0.29148396)" />
    <linearGradient
       inkscape:collect="always"
       xlink:href="#linearGradient5358"
       id="linearGradient5475"
       x1="37.455688"
       y1="27.792406"
       x2="28.53301"
       y2="19.966999"
       gradientUnits="userSpaceOnUse"
       gradientTransform="translate(-23.027232,19.675167)" />
    <linearGradient
       inkscape:collect="always"
       xlink:href="#linearGradient4303"
       id="linearGradient3441"
       gradientUnits="userSpaceOnUse"
       x1="2.3531249"
       y1="1044.3799"
       x2="13.377196"
       y2="1044.3799" />
    <filter
       inkscape:label="Blend Opposites"
       inkscape:menu="Color"
       inkscape:menu-tooltip="Blend an image with its hue opposite"
       style="color-interpolation-filters:sRGB;"
       id="filter3653">
      <feColorMatrix
         type="hueRotate"
         values="180"
         result="fbSourceGraphic"
         in="SourceGraphic"
         id="feColorMatrix3655" />
      <feColorMatrix
         values="1 0 0 0 0 0 1 0 0 0 0 0 1 0 0 -0.2125 -0.7154 -0.0721 1 0 "
         in="SourceGraphic"
         result="result1"
         id="feColorMatrix3657" />
      <feColorMatrix
         type="hueRotate"
         values="0"
         id="feColorMatrix3659" />
      <feColorMatrix
         values="1 0 0 0 0 0 1 0 0 0 0 0 1 0 0 0 0 0 1 0 "
         result="result3"
         id="feColorMatrix3661" />
      <feComposite
         in2="result3"
         result="result6"
         operator="atop"
         id="feComposite3663" />
      <feComposite
         in2="result6"
         operator="arithmetic"
         k2="0.5"
         k1="0.5"
         k3="0.5"
         in="result6"
         result="result4"
         id="feComposite3665" />
      <feBlend
         in2="fbSourceGraphic"
         mode="normal"
         result="result2"
         in="result4"
         id="feBlend3667" />
      <feComposite
         in2="result2"
         operator="arithmetic"
         k2="1"
         result="result5"
         id="feComposite3669" />
      <feComposite
         in2="SourceGraphic"
         operator="in"
         result="result5"
         id="feComposite3671" />
    </filter>
    <filter
       style="color-interpolation-filters:sRGB;"
       inkscape:label="Greyscale"
       id="filter3673">
      <feColorMatrix
         values="0.21 0.72 0.072 0 0 0.21 0.72 0.072 0 0 0.21 0.72 0.072 0 0 0 0 0 1 0 "
         id="feColorMatrix3675" />
    </filter>
    <linearGradient
       inkscape:collect="always"
       xlink:href="#linearGradient4190"
       id="linearGradient4211"
       gradientUnits="userSpaceOnUse"
       x1="54.109722"
       y1="44.293541"
       x2="72.574554"
       y2="16.927656"
       gradientTransform="matrix(1.0291854,0,0,1.0291854,-91.958777,6.3111308)" />
  </defs>
  <sodipodi:namedview
     id="base"
     pagecolor="#5a5a5a"
     bordercolor="#e3e3e3"
     borderopacity="1"
     inkscape:pageopacity="0"
     inkscape:pageshadow="2"
     inkscape:zoom="6.8614411"
     inkscape:cx="3.6724567"
     inkscape:cy="15.88014"
     inkscape:current-layer="g5481"
     showgrid="false"
     inkscape:grid-bbox="true"
     inkscape:document-units="px"
     inkscape:snap-global="true"
     inkscape:window-width="1440"
     inkscape:window-height="832"
     inkscape:window-x="0"
     inkscape:window-y="32"
     inkscape:window-maximized="1"
     inkscape:snap-bbox="true"
     inkscape:bbox-nodes="true"
     showguides="true"
     inkscape:showpageshadow="false"
     showborder="true">
    <inkscape:grid
       type="xygrid"
       id="grid2993" />
  </sodipodi:namedview>
  <metadata
     id="metadata2990">
    <rdf:RDF>
      <cc:Work
         rdf:about="">
        <dc:format>image/svg+xml</dc:format>
        <dc:type
           rdf:resource="http://purl.org/dc/dcmitype/StillImage" />
        <dc:title></dc:title>
      </cc:Work>
    </rdf:RDF>
  </metadata>
  <g
     id="layer1"
     inkscape:label="Layer 1"
     inkscape:groupmode="layer">
    <g
       id="g5481"
       transform="matrix(0.77761806,-0.01071721,0.01071721,0.77761806,30.946456,-1.6787268)">
      <rect
         ry="1.5437782"
         transform="matrix(0.99999416,-0.00341659,0.00341659,0.99999416,0,0)"
         y="8.5719137"
         x="-33.838921"
         height="37.355316"
         width="49.639671"
         id="rect4209"
         style="opacity:1;fill:#933bca;fill-opacity:1;fill-rule:nonzero;stroke:none;stroke-width:2;stroke-miterlimit:4;stroke-dasharray:4, 2;stroke-dashoffset:0;stroke-opacity:1" />
      <g
         transform="matrix(0.9857059,-0.16847515,0.16847515,0.9857059,-48.699083,-8.9827573)"
         id="g5405">
        <g
           id="g5366"
           transform="matrix(1.0962056,0,0,1.0962056,0.51279347,-1.9879883)" />
      </g>
      <rect
         transform="matrix(0.98818625,-0.15325775,0.15325775,0.98818625,0,0)"
         ry="1.5437782"
         y="13.684669"
         x="-42.623764"
         height="37.355072"
         width="49.639862"
         id="rect4851-2"
         style="opacity:1;fill:url(#linearGradient4211);fill-opacity:1;stroke:none;stroke-width:1.5;stroke-linecap:round;stroke-linejoin:round;stroke-miterlimit:4;stroke-dasharray:none;stroke-opacity:1" />
      <circle
         transform="matrix(0.78017865,0,0,0.78017865,2.5819378,10.521665)"
         r="12.348694"
         cy="45.12323"
         cx="11.184063"
         id="path5451"
         style="opacity:1;fill:url(#linearGradient5459);fill-opacity:1;stroke:none;stroke-width:0.30261195;stroke-linecap:round;stroke-linejoin:round;stroke-miterlimit:4;stroke-dasharray:none;stroke-opacity:1;filter:url(#filter3673)" />
      <path
         transform="matrix(-0.0138427,0.90747861,-0.90747861,-0.0138427,51.546127,37.320471)"
         inkscape:transform-center-y="0.020206899"
         inkscape:transform-center-x="-1.4810216"
         d="M 14.428456,47.271288 5.5057777,47.467572 9.7971304,39.642164 Z"
         inkscape:randomized="0"
         inkscape:rounded="0"
         inkscape:flatsided="true"
         sodipodi:arg2="1.5488016"
         sodipodi:arg1="0.50160405"
         sodipodi:r2="2.5763786"
         sodipodi:r1="5.1527572"
         sodipodi:cy="44.793674"
         sodipodi:cx="9.9104548"
         sodipodi:sides="3"
         id="path5467"
         style="opacity:1;fill:url(#linearGradient5475);fill-opacity:1;stroke:none;stroke-width:0.30000001;stroke-linecap:round;stroke-linejoin:round;stroke-miterlimit:4;stroke-dasharray:none;stroke-opacity:1;filter:url(#filter3673)"
         sodipodi:type="star" />
      <path
         inkscape:connector-curvature="0"
         id="path4682"
         d="m -20.402427,43.103513 c -0.07357,-0.449765 -0.203272,-0.824118 -0.316295,-0.912576 -0.158609,-0.124168 -0.977005,0.02061 -4.753594,0.840865 -2.509097,0.544984 -4.646332,1.046158 -4.749412,1.113704 -0.143119,0.09382 -0.1461,0.313013 -0.01262,0.927617 0.09605,0.442635 0.222844,0.835654 0.281557,0.873424 0.05871,0.03777 2.259624,-0.414884 4.890906,-1.005893 l 4.784136,-1.074551 z m -9.048201,-6.137455 c 0.08017,-0.124645 0.0132,-0.686994 -0.197095,-1.655222 l -0.318451,-1.466452 0.880741,-0.151272 0.880742,-0.151272 1.323768,1.263788 c 0.728068,0.69508 1.419922,1.293144 1.537442,1.329023 0.306864,0.09369 2.69978,-0.521648 2.718646,-0.699099 0.0085,-0.08037 -0.680732,-0.813786 -1.531732,-1.629858 l -1.547261,-1.483769 0.254368,-0.251249 c 0.542131,-0.535476 1.167669,-1.697891 1.210319,-2.249082 0.05593,-0.72293 -0.229736,-2.042804 -0.5809,-2.683797 -0.171509,-0.31307 -0.566798,-0.687452 -1.065004,-1.008661 -1.233849,-0.795502 -1.67907,-0.792696 -5.278051,0.03327 l -2.963171,0.680068 1.103101,5.241824 c 0.60674,2.882996 1.146842,5.308539 1.200315,5.390073 0.131,0.199831 2.202285,-0.243983 2.372278,-0.508291 z m -1.334449,-7.025719 -0.250934,-1.332814 1.444789,-0.313807 c 1.260664,-0.273815 1.49796,-0.289561 1.86205,-0.123595 0.526757,0.240124 0.835146,0.826404 0.768355,1.460745 -0.07637,0.725444 -0.465145,0.967191 -2.140671,1.331109 l -1.4327,0.311179 z m 10.902966,1.726186 -0.623158,-3.180677 1.7136,1.65803 c 0.942483,0.911918 1.800847,1.639081 1.907475,1.615924 0.106613,-0.02324 0.586014,-1.04088 1.065289,-2.261599 l 0.871413,-2.219488 0.692231,3.019534 c 0.449904,1.963019 0.755215,3.068828 0.872192,3.160428 0.235689,0.184505 2.241325,-0.236531 2.415294,-0.507031 0.141855,-0.220574 -2.004212,-10.311536 -2.244765,-10.555059 -0.104071,-0.105361 -0.49355,-0.05667 -1.46788,0.183469 l -1.326227,0.326879 -0.81427,2.266067 c -0.44785,1.246337 -0.865587,2.296522 -0.928292,2.33374 -0.0627,0.03721 -0.843897,-0.683347 -1.735972,-1.601254 -0.892068,-0.917912 -1.713489,-1.716462 -1.825384,-1.774557 -0.127028,-0.06594 -0.67881,0.01228 -1.468819,0.208115 l -1.265368,0.313736 1.103109,5.241825 c 0.606739,2.882997 1.148153,5.310551 1.203221,5.394552 0.07402,0.112993 0.409734,0.07534 1.289787,-0.144619 l 1.189681,-0.297347 z"
         style="fill:#ffffff"
         sodipodi:nodetypes="ccscccscccscccsscscsscsscscccccssssccccscscccssscscscscscscc" />
    </g>
  </g>
</svg>
