<svg height="48" width="48" xmlns="http://www.w3.org/2000/svg" xmlns:xlink="http://www.w3.org/1999/xlink"><linearGradient id="a" gradientUnits="userSpaceOnUse" x1="399.57144" x2="399.57144" y1="545.79797" y2="517.79797"><stop offset="0" stop-color="#3889e9"/><stop offset="1" stop-color="#5ea5fb"/></linearGradient><linearGradient gradientUnits="userSpaceOnUse" x1="-318.57867" x2="-318.57867" y1="653.95679" y2="301.29816"><stop offset="0" stop-color="#0a80fd"/><stop offset="1" stop-color="#56c5fa"/></linearGradient><linearGradient id="b" gradientUnits="userSpaceOnUse" x1="-318.57867" x2="-318.57867" y1="653.95679" y2="301.29816"><stop offset="0" stop-color="#183b69"/><stop offset="1" stop-color="#245aa1"/></linearGradient><circle cx="400.57138" cy="531.79791" fill="url(#a)" r="0" transform="matrix(1.637466544097 0 0 1.637466544097 -644.580187175317 -848.719334054169)"/><circle cx="-325.88733" cy="478.74667" fill="url(#b)" r="173.44701" transform="matrix(.138370791844 0 0 .138370791844 69.091287331483 -42.084555934903)"/><g fill="#fff" fill-opacity=".850807" transform="matrix(.076470841174 0 0 .076470841174 10.999974425213 10.999968753358)"><path d="m192.511 64.521c-2.746-2.745-7.162-2.862-10.046-.268-14.862 13.354-93 81.184-171.942 105.162l-.855.259c-2.051.623-3.727 2.114-4.582 4.082-.854 1.969-.801 4.209.146 6.133l.395.799c.004.011.008.019.015.027.271.564 11.653 24.328 13.133 57.811.916 20.82-2.101 40.832-8.945 59.519-2.442.19-4.834 1.215-6.703 3.084-4.168 4.167-4.166 10.921 0 15.087s10.92 4.167 15.086 0c2.408-2.409 3.416-5.682 3.039-8.82l76.486-76.489c1.908-1.907 2.609-4.71 1.824-7.289-2.703-8.89-.291-18.509 6.299-25.097 4.756-4.758 11.078-7.377 17.809-7.377s13.058 2.619 17.813 7.377c4.758 4.756 7.375 11.08 7.375 17.808s-2.617 13.051-7.377 17.81c-4.754 4.754-11.074 7.371-17.799 7.372-2.494 0-4.953-.362-7.31-1.075-2.582-.783-5.379-.08-7.283 1.824l-76.479 76.489c-3.142-.378-6.416.628-8.826 3.038-4.166 4.166-4.164 10.921 0 15.087 4.166 4.166 10.922 4.167 15.088 0 1.869-1.869 2.892-4.258 3.084-6.702 16.48-6.036 34.014-9.105 52.15-9.105 2.276 0 4.604.049 6.922.145 33.588 1.385 58.088 13.064 58.315 13.173l.775.382c1.014.498 2.117.749 3.221.748.99.001 1.98-.2 2.91-.603 1.963-.855 3.457-2.529 4.08-4.579l.258-.854c23.979-78.943 91.807-157.083 105.16-171.944 2.594-2.888 2.477-7.3-.271-10.046z" fill="#fff" fill-opacity=".850807"/><path d="m337.857 86.974-84.837-84.835c-1.37-1.37-3.228-2.139-5.165-2.139-1.937-.001-3.796.768-5.164 2.137l-36.295 36.299c-2.854 2.853-2.854 7.477 0 10.329l84.84 84.834c1.369 1.371 3.225 2.14 5.164 2.14 1.936 0 3.793-.771 5.162-2.14l36.297-36.297c2.852-2.851 2.852-7.475-.002-10.328z" fill="#fff" fill-opacity=".850807"/></g></svg>