<svg height="48" width="48" xmlns="http://www.w3.org/2000/svg" xmlns:xlink="http://www.w3.org/1999/xlink">
  <linearGradient id="a" gradientUnits="userSpaceOnUse" x1="-455.6503436211" x2="-194.67913002812" y1="363.05661717053" y2="606.02831751023">
    <stop offset="0" stop-opacity=".392157" />
    <stop offset="1" stop-opacity="0" />
  </linearGradient>
  <linearGradient id="b" gradientUnits="userSpaceOnUse" x1="399.57144" x2="399.57144" y1="545.79797" y2="517.79797">
    <stop offset="0" stop-color="#3889e9" />
    <stop offset="1" stop-color="#5ea5fb" />
  </linearGradient>
  <linearGradient id="c" gradientUnits="userSpaceOnUse" x1="-321.182097" x2="-321.70724" y1="656.027547" y2="241.07721">
    <stop offset="0" stop-color="#ffa210" />
    <stop offset="1" stop-color="#fad753" />
  </linearGradient>
  <linearGradient id="d" gradientUnits="userSpaceOnUse" x1="-321.64728" x2="-322.17639" y1="240.22079" y2="657.81665">
    <stop offset="0" stop-color="#fff" />
    <stop offset="1" stop-color="#ececec" />
  </linearGradient>
  <circle cx="400.57138" cy="531.79791" fill="url(#b)" r="0" transform="matrix(1.63746654 0 0 1.63746654 -644.580187 -848.719334)" />
  <g transform="matrix(.10497695 0 0 .10497695 57.813568 -23.136613)">
    <circle cx="-322.32336" cy="449.23737" fill="url(#c)" r="209.75679" />
    <g stroke-linejoin="round">
      <path clip-rule="evenodd" d="m-364.29945 362.86512c-22.32483 0-40.39205 18.06722-40.39205 40.39205 0 .72158.0362 1.46751.0743 2.23264-3.33662-1.48671-6.9921-2.28846-10.84688-2.28846-14.90097 0-26.94044 12.06291-26.94044 26.95905 0 .72158.0362 1.39951.0743 2.121-1.44797-1.32688-3.3254-2.17682-5.45134-2.17682-4.46012 0-8.0747 3.5822-8.0747 8.03748 0 2.21045.88759 4.18072 2.32566 5.6188l44.0945 44.0945c-8.45393 4.50634-14.10279 12.55458-14.1028 21.74956 0 6.39085 2.71874 12.24463 7.20025 16.72614l129.45575 129.4555a209.7568 209.7568 0 0 0 158.62857-126.86936l-114.90618-114.90618c-10.00017-10.00016-23.77936-16.18659-39.03386-16.18659-8.82898 0-17.06217 2.2652-24.46593 5.95369l-29.09866-29.09866c-7.30777-7.30778-17.39278-11.81434-28.54049-11.81434z" fill="url(#a)" stroke-miterlimit="1.41421" stroke-width="4.842697" />
      <circle cx="-322.10468" cy="449.01868" fill="none" r="209.96635" stroke="url(#d)" stroke-linecap="round" stroke-width="18.258703" />
    </g>
  </g>
  <path clip-rule="evenodd" d="m9.9589657 22.856895c0-.467702.3792453-.84288.8474553-.84288.223175 0 .42144.08846.573443.227751-.004-.07574-.0086-.147428-.0086-.223175 0-1.563751 1.264321-2.82858 2.82858-2.82858.404663 0 .787976.08439 1.138244.24046-.004-.08032-.0086-.160137-.0086-.235884 0-2.343593 1.896735-4.240327 4.240328-4.240327 2.326816 0 4.214908 1.875891 4.240327 4.198131-.767133.674611-1.378195 1.525624-1.77015 2.486954-.758491-.472276-1.652207-.754422-2.608963-.754422-1.972482 0-3.675526 1.121468-4.472145 2.81587h-3.022832-1.129602c-.46821-.0092-.8474553-.375687-.8474553-.843897zm22.3276803-2.533216c-1.049788-1.049786-2.495596-1.698468-4.096967-1.698468-2.921103 0-5.340443 2.162613-5.736973 4.977975-.720871-.960824-1.871316-1.585103-3.16563-1.585103-2.187523 0-3.958181 1.774725-3.958181 3.958181 0 .636481.151495 1.234833.417373 1.770149-1.374128.278079-2.39443 1.344643-2.39443 2.613538 0 1.483938 1.390904 2.68522 3.110725 2.68522.75849 0 1.454451-.235885 1.993834-.627839l6.360744-6.255512c.704096-.645123 1.639499-1.037079 2.667935-1.037079 2.149903 0 3.89921 1.715755 3.958181 3.852441 0 0 0-.004-.004-.004.03355.632414-.294856 1.268895-.901852 1.618655-.847455.489054-1.909443.22775-2.373078-.57751-.467702-.809327-.160137-1.859115.687318-2.34766.198265-.113875.404664-.185556.615638-.223176-.181489-.03812-.371111-.05491-.564801-.05491-1.559684 0-2.828579 1.264321-2.828579 2.82858 0 1.563751 1.26432 2.828579 2.828579 2.828579l5.834137-.005c1.698469-.07575 3.304415-1.639499 3.304415-3.544875 0-1.951638-1.668984-3.544876-3.620622-3.544876h-.0086c-.316208.564802-.69952.893718-1.133669 1.247545.454993-.83017.716804-1.774724.716804-2.786385-.0097-1.596795-.65885-3.038536-1.708128-4.088324z" fill="#fff" stroke-linejoin="round" stroke-miterlimit="1.41421" stroke-width=".508372" />
</svg>
