<svg height="48" width="48" xmlns="http://www.w3.org/2000/svg" xmlns:xlink="http://www.w3.org/1999/xlink"><linearGradient id="a" gradientUnits="userSpaceOnUse" x1="34.902462" x2="946.34857" y1="490.62549" y2="490.62549"><stop offset="0" stop-color="#197cf1"/><stop offset="1" stop-color="#20bcfa"/></linearGradient><radialGradient id="b" cx="490.62552" cy="490.62549" gradientTransform="matrix(1 0 0 1.0765869 0 -37.575509)" gradientUnits="userSpaceOnUse" r="455.72305"><stop offset="0" stop-color="#ffce69"/><stop offset="1" stop-color="#ffce54"/></radialGradient><g fill="url(#a)" stroke-width="9.512438" transform="matrix(.941519888215 0 0 .941519901286 -436.740346924009 -486.317978637946)"><path d="m946.23 206.651c-.3-23-18-42-40.899-44.101-190.3-17.8-345.601-119.5-396.8-156.7-10.7-7.8-25.2-7.8-35.9 0-51.1 37.2-206.4 138.9-396.7 156.7-22.9 2.101-40.5 21.101-40.9 44.101-2.3 150.1 21.8 659.699 444.1 773.1 7.5 2 15.4 2 22.9 0 422.3-113.3 446.399-623.001 444.199-773.1z" fill="url(#b)" transform="matrix(.05185606 0 0 .05185606 464.01918 516.71536)"/><path d="m946.23 206.651c-.3-23-18-42-40.899-44.101-190.3-17.8-345.601-119.5-396.8-156.7-10.7-7.8-25.2-7.8-35.9 0-51.1 37.2-206.4 138.9-396.7 156.7-22.9 2.101-40.5 21.101-40.9 44.101-2.3 150.1 21.8 659.699 444.1 773.1 7.5 2 15.4 2 22.9 0 422.3-113.3 446.399-623.001 444.199-773.1z" fill="#fff" opacity=".675" transform="matrix(.03985431 0 0 .04023645 469.90754 522.41624)"/><path d="m489.46108 547.99888a2.1242249 2.1242249 0 0 0 2.12423-2.12422c0-1.17895-.9559-2.12423-2.12423-2.12423a2.1242249 2.1242249 0 0 0 -2.12422 2.12423 2.1242249 2.1242249 0 0 0 2.12422 2.12422m6.37268-9.55901a2.1242249 2.1242249 0 0 1 2.12422 2.12423v10.62112a2.1242249 2.1242249 0 0 1 -2.12422 2.12423h-12.74535a2.1242249 2.1242249 0 0 1 -2.12423-2.12423v-10.62112c0-1.17895.9559-2.12423 2.12423-2.12423h1.06211v-2.12422a5.3105623 5.3105622 0 0 1 5.31056-5.31056 5.3105623 5.3105622 0 0 1 5.31056 5.31056v2.12422zm-6.37268-5.31056a3.1863374 3.1863373 0 0 0 -3.18634 3.18634v2.12422h6.37268v-2.12422a3.1863374 3.1863373 0 0 0 -3.18634-3.18634z" fill="#fd5"/></g></svg>