<svg height="48" width="48" xmlns="http://www.w3.org/2000/svg" xmlns:xlink="http://www.w3.org/1999/xlink"><linearGradient id="a" gradientTransform="matrix(1.0309825 0 0 1 -.512598 0)" gradientUnits="userSpaceOnUse" x1="17" x2="17" y1="1036.3622" y2="1012.3622"><stop offset="0" stop-color="#178b6f"/><stop offset="1" stop-color="#4dd7c4"/></linearGradient><linearGradient id="b" gradientTransform="matrix(.68964436 0 0 1 10.82717 0)" gradientUnits="userSpaceOnUse" x1="33.461716" x2="34.116894" xlink:href="#d" y1="1013.622" y2="1037.2084"/><linearGradient id="c" gradientUnits="userSpaceOnUse" x1="27.800341" x2="27.800341" y1="1037.3622" y2="1011.3622"><stop offset="0" stop-color="#178b6f"/><stop offset="1" stop-color="#3cad9d"/></linearGradient><linearGradient id="d"><stop offset="0" stop-color="#f6fbff"/><stop offset="1" stop-color="#eaeff2"/></linearGradient><linearGradient id="e" gradientTransform="matrix(.43805482 0 0 .99999986 -4.213057 1.048985)" gradientUnits="userSpaceOnUse" x1="-7.872529" x2="4.025755" xlink:href="#d" y1="1022.0267" y2="1022.0267"/><linearGradient id="f" gradientTransform="matrix(.67458606 0 0 .9999999 -2.477327 4.195202)" gradientUnits="userSpaceOnUse" x1="-7.872529" x2="4.025755" xlink:href="#d" y1="1022.0267" y2="1022.0267"/><linearGradient id="g" gradientTransform="matrix(.91111737 0 0 .99999997 -.784414 7.458004)" gradientUnits="userSpaceOnUse" x1="-7.872529" x2="4.025755" xlink:href="#d" y1="1022.0267" y2="1022.0267"/><g fill-rule="evenodd" transform="matrix(1.75927295 0 0 1.75927295 -15.451579 -1778.736469)"><path d="m11.563303 1036.9442h11.636697l-.000321-24.4983-11.533282.0003c-1.268259-.094-1.782566.023-1.782566 1.1721v22.0916c-.07966 1.261.446208 1.2343 1.679472 1.2343z" fill="url(#a)"/><path d="m33.959911 1036.9362h-7.990815v-24.498h7.990815c.848365-.094.916631.023.916631 1.1721v22.0916c.05328 1.261-.09168 1.2343-.916631 1.2343z" fill="url(#b)"/><path d="m31.957586 1038.1035-10.029586-1.1715-.00002-24.4861 9.945926-.9324c1.230149-.094 1.296492.2446 1.296492 1.3937l-.08368 23.3688c.07726 1.261.06707 1.8275-1.129132 1.8275z" fill="url(#c)"/></g><rect fill="url(#e)" height="2.230492" rx="0" ry=".312" transform="matrix(-.00330673 -1.76002634 2.41708022 -.00046205 -2457.407557 20.875227)" width="5.212101" x="-7.661656" y="1021.9603"/><rect fill="url(#f)" height="2.230492" rx="0" ry=".312" transform="matrix(-.00214729 -1.7600273 2.41708011 -.00071153 -2457.407557 20.875227)" width="8.026417" x="-7.788025" y="1025.1064"/><rect fill="url(#g)" height="2.230492" rx="0" ry=".312" transform="matrix(-.00158984 -1.76002761 2.41707996 -.00096102 -2457.407557 20.875227)" width="10.840734" x="-7.957212" y="1028.3694"/></svg>