<svg height="48" width="48" xmlns="http://www.w3.org/2000/svg" xmlns:xlink="http://www.w3.org/1999/xlink"><linearGradient id="a" gradientTransform="translate(-.15063 .160116)" gradientUnits="userSpaceOnUse" x1="24.169985" x2="23.664122" xlink:href="#c" y1="40.526016" y2="4.146453"/><linearGradient id="b" gradientUnits="userSpaceOnUse" x1="24.627417" x2="24.1984" y1="47.827385" y2="-.070067"><stop offset="0" stop-color="#197cf1"/><stop offset="1" stop-color="#20bcfa"/></linearGradient><linearGradient id="c" gradientTransform="matrix(-.50723786 0 0 .55230908 224.03781 -257.64662)" gradientUnits="userSpaceOnUse" x1="373.44516" x2="373.44516" y1="546.79541" y2="507.86609"><stop offset="0" stop-color="#b1d7fc"/><stop offset="1" stop-color="#f4fcff"/></linearGradient><path d="m39.510882 9.3622919c-4.148641-3.3762877-9.657167-5.2355898-15.510753-5.2355898-5.853692 0-11.362227 1.8594271-15.5107701 5.2355898-4.1847249 3.4055991-6.4893589 7.9443621-6.4893589 12.7803521 0 4.615646 2.1007468 8.959795 5.9303444 12.306896-.069058.155314-.1238582.318713-.1588429.490501l-1.2583433 6.18963c-.1496233.735609.051459 1.17425.246278 1.412845.2252568.27558.5591306.427446.9402107.427446.2877309 0 .5969653-.08487.9191896-.252389l7.3190405-3.802322c2.533991.815629 5.258174 1.243316 8.062101 1.243316 5.853719 0 11.362102-1.859391 15.510788-5.235563 4.1846-3.405492 6.489234-7.944263 6.489234-12.780244 0-4.836106-2.304527-9.374869-6.489127-12.7804681z" fill="url(#b)" stroke-width=".89338"/><path d="m23.999998 14.653139c2.471825 0 4.476996 2.005353 4.476996 4.476996 0 1.2746-.533809 2.421657-1.389019 3.237209l1.199605 6.353883c.06506.346807-.171378.625634-.522314.625634h-7.444438c-.350945 0-.587404-.28181-.522316-.625634l1.188125-6.285003c-.897487-.818543-1.463632-1.996061-1.463632-3.306089 0-2.471643 2.005165-4.476996 4.476993-4.476996z" fill="url(#a)" stroke-width="2.938573"/><path d="m26.939654 25.576367c2.074329-1.838147 4.828592-2.8504 7.755367-2.8504 2.926837 0 5.681109 1.012316 7.755376 2.8504 2.09235 1.854093 3.244675 4.325119 3.244675 6.957972 0 2.51289-1.050382 4.877934-2.965181 6.700206.03466.0846.062.173521.07942.26704l.629162 3.369802c.07478.400493-.02564.639302-.123179.7692-.112691.150025-.279574.232716-.470105.232716-.14387 0-.298478-.04619-.45959-.13742l-3.659525-2.070068c-1.266991.444046-2.629074.676878-4.031046.676878-2.926837 0-5.681047-1.012297-7.755367-2.850382-2.092296-1.85404-3.244622-4.325074-3.244622-6.957909 0-2.632916 1.152264-5.103942 3.244559-6.958035z" fill="url(#c)" stroke-width=".89338"/></svg>