<svg height="48" width="48" xmlns="http://www.w3.org/2000/svg" xmlns:xlink="http://www.w3.org/1999/xlink">
  <linearGradient id="a" gradientUnits="userSpaceOnUse" x1="8.95426681155" x2="8.95426681155" y1="45.25600758808" y2="3.22770518808">
    <stop offset="0" stop-color="#3889e9" />
    <stop offset="1" stop-color="#5ea5fb" />
  </linearGradient>
  <clipPath>
    <path d="m118.089 602.321h349.605v-227.59h-349.605z" />
  </clipPath>
  <linearGradient id="b" gradientUnits="userSpaceOnUse" x1="323.90817" x2="323.05908" y1="374.61053" y2="738.01526">
    <stop offset="0" stop-color="#2a7fff" />
    <stop offset="1" stop-color="#59f" />
  </linearGradient>
  <circle cx="10.455209" cy="24.241795" fill="url(#a)" r="0" stroke-width="1.501011" />
  <g transform="matrix(.09553337 0 0 .09553337 54.677829 -18.945314)">
    <path d="m496.9107 520.20614c2.817 12.881 4.315 26.252 4.315 39.977 0 102.889-83.411 186.302-186.30504 186.302-10.863 0-21.507-.94-31.861-2.725-16.651 10.488-36.35 16.577-57.482 16.577-59.67 0-108.041-48.375-108.041-108.039 0-19.945 5.427-38.613 14.851-54.649-2.471-12.103-3.77-24.632-3.77-37.466 0-102.892 83.409-186.304 186.303-186.304 11.65404 0 23.05404 1.079 34.11304 3.126 15.21-8.175 32.599-12.821 51.076-12.821 59.671 0 108.041 48.371 108.041 108.041 0 17.239-4.057 33.522-11.24 47.981" fill-opacity=".352941" transform="matrix(1.1508727 0 0 -1.1508727 -681.16485 1098.9477)" />
    <path d="m496.9107 520.20614c2.817 12.881 4.315 26.252 4.315 39.977 0 102.889-83.411 186.302-186.30504 186.302-10.863 0-21.507-.94-31.861-2.725-16.651 10.488-36.35 16.577-57.482 16.577-59.67 0-108.041-48.375-108.041-108.039 0-19.945 5.427-38.613 14.851-54.649-2.471-12.103-3.77-24.632-3.77-37.466 0-102.892 83.409-186.304 186.303-186.304 11.65404 0 23.05404 1.079 34.11304 3.126 15.21-8.175 32.599-12.821 51.076-12.821 59.671 0 108.041 48.371 108.041 108.041 0 17.239-4.057 33.522-11.24 47.981" fill="url(#b)" transform="matrix(1.1508727 0 0 -1.1508727 -681.16485 1094.2973)" />
    <path d="m-273.38131 512.24233c-4.75404 45.00493-71.62757 31.69362-97.61634 13.94519-10.77582-8.87422-19.96698-6.02179-28.20731 2.21855-5.70485 8.55728-6.02178 22.50248 4.4371 31.05974 43.7372 36.13071 160.36969 34.2291 162.58824-46.27267 2.21855-84.30502-135.64866-54.51301-127.09139-106.49054 6.65566-32.96135 59.90093-25.98876 83.3542-11.09277 19.01617 13.9452 41.83558-13.62825 20.28392-31.05974-43.73719-33.59521-136.59947-22.50245-143.889 38.98315-9.82502 90.00986 122.02041 61.80254 126.14058 108.70909z" fill-opacity=".352941" />
    <path d="m-273.38131 502.74123c-4.75404 45.00493-71.62757 31.69362-97.61634 13.94519-10.77582-8.87422-19.96698-6.02179-28.20731 2.21855-5.70485 8.55728-6.02178 22.50248 4.4371 31.05974 43.7372 36.13071 160.36969 34.2291 162.58824-46.27267 2.21855-84.30502-135.64866-54.51301-127.09139-106.49054 6.65566-32.96135 59.90093-25.98876 83.3542-11.09277 19.01617 13.9452 41.83558-13.62825 20.28392-31.05975-43.73719-33.5952-136.59947-22.50243-143.889 38.98316-9.82502 90.00986 122.02041 61.80254 126.14058 108.70909z" fill="#fff" stroke="#fff" stroke-width="10.468941" />
  </g>
</svg>
