<svg height="48" width="48" xmlns="http://www.w3.org/2000/svg" xmlns:xlink="http://www.w3.org/1999/xlink">
  <linearGradient id="a" gradientUnits="userSpaceOnUse" x1="31.08686176951" x2="13.8108861992" y1="30.01444590467" y2="10.53733606698">
    <stop offset="0" stop-color="#2eb67d" />
    <stop offset="1" stop-color="#38ea87" />
  </linearGradient>
  <linearGradient id="b" gradientUnits="userSpaceOnUse" x1="23.05346783646" x2="12.22877106952" y1="20.83041826692" y2="10.41386292516">
    <stop offset="0" stop-color="#36c5f0" />
    <stop offset="1" stop-color="#5df" />
  </linearGradient>
  <linearGradient gradientUnits="userSpaceOnUse" x1="-.000003" x2="27.876003" y1="46.0345" y2="46.0345">
    <stop offset="0" stop-color="#f8b17e" />
    <stop offset="1" stop-color="#c6262e" />
  </linearGradient>
  <linearGradient id="c" gradientUnits="userSpaceOnUse" x1="38.8530517048" x2="14.7559779056" y1="35.68967871452" y2="11.69256234307">
    <stop offset="0" stop-color="#ecb22e" />
    <stop offset="1" stop-color="#ebc514" />
  </linearGradient>
  <linearGradient id="d" gradientUnits="userSpaceOnUse" x1="-4.909057" x2="40.762272" y1="13.512016" y2="54.625343">
    <stop offset="0" stop-color="#ed5886" />
    <stop offset="1" stop-color="#e01e5a" />
  </linearGradient>
  <linearGradient id="e" gradientUnits="userSpaceOnUse" x1="-335.3495034034" x2="-359.74637312942" y1="-453.50754779675" y2="-487.00692854964">
    <stop offset="0" stop-color="#2e4459" />
    <stop offset="1" stop-color="#648596" />
  </linearGradient>
  <path d="m39.510883 10.39233c-4.148641-3.3762878-9.657167-5.2355899-15.510753-5.2355899-5.853692 0-11.362227 1.8594271-15.5107702 5.2355899-4.1847249 3.405599-6.4893589 7.944362-6.4893589 12.780352 0 4.615646 2.1007468 8.959795 5.9303444 12.306896-.069058.155314-.1238582.318713-.1588429.490501l-1.2583433 6.18963c-.1496233.735609.051459 1.17425.246278 1.412845.2252568.27558.5591306.427446.9402107.427446.2877309 0 .5969653-.08487.9191896-.252389l7.3190406-3.802322c2.533991.815629 5.258174 1.243316 8.062101 1.243316 5.853719 0 11.649739-1.140299 15.798425-4.516471 4.1846-3.405492 6.201597-8.663355 6.201597-13.499336 0-4.836106-2.304527-9.374869-6.489127-12.780468z" fill-opacity=".078431" stroke-width=".89338" />
  <path d="m39.510883 9.3622919c-4.148641-3.3762877-9.657167-5.2355898-15.510753-5.2355898-5.853692 0-11.362227 1.8594271-15.5107702 5.2355898-4.1847249 3.4055991-6.4893589 7.9443621-6.4893589 12.7803521 0 4.615646 2.1007468 8.959795 5.9303444 12.306896-.069058.155314-.1238582.318713-.1588429.490501l-1.2583433 6.18963c-.1496233.735609.051459 1.17425.246278 1.412845.2252568.27558.5591306.427446.9402107.427446.2877309 0 .5969653-.08487.9191896-.252389l7.3190406-3.802322c2.533991.815629 5.258174 1.243316 8.062101 1.243316 5.853719 0 11.649739-1.140299 15.798425-4.516471 4.1846-3.405492 6.201597-8.663355 6.201597-13.499336 0-4.836106-2.304527-9.374869-6.489127-12.7804681z" fill="url(#e)" stroke-width=".89338" />
  <g transform="translate(0 .431455)">
    <g stroke-width=".401781">
      <path d="m20.799812 9.980247c-1.325475 0-2.399838 1.076773-2.399838 2.40466a2.4022497 2.4022497 0 0 0 2.399838 2.404661h2.400241v-2.404661a2.4026515 2.4026515 0 0 0 -2.400241-2.40466m0 6.412429h-6.399972c-1.325476 0-2.399839 1.076772-2.399839 2.405061 0 1.327887 1.074363 2.40466 2.399839 2.40466h6.400375c1.325075 0 2.399838-1.076773 2.399838-2.40466 0-1.328289-1.074763-2.405061-2.400241-2.405061" fill="url(#b)" />
      <path d="m35.999999 18.797737c0-1.328289-1.074765-2.405061-2.400241-2.405061-1.325475 0-2.399839 1.076772-2.399839 2.405061v2.40466h2.399839a2.4026515 2.4026515 0 0 0 2.400241-2.40466m-6.399973 0v-6.41283a2.4026515 2.4026515 0 0 0 -2.400241-2.40466c-1.325475 0-2.399839 1.076773-2.399839 2.40466v6.412428c0 1.32869 1.074364 2.405464 2.399839 2.405464a2.4026515 2.4026515 0 0 0 2.400241-2.404661" fill="url(#a)" />
      <path d="m27.199785 34.027654a2.4026515 2.4026515 0 0 0 2.400241-2.40466 2.4026515 2.4026515 0 0 0 -2.400241-2.40466h-2.399839v2.40466c0 1.327887 1.074364 2.40466 2.399839 2.40466m0-6.412427h6.400375c1.325074 0 2.399839-1.076774 2.399839-2.405062a2.4026515 2.4026515 0 0 0 -2.400241-2.404661h-6.399973c-1.325475 0-2.399839 1.076773-2.399839 2.404661a2.4022497 2.4022497 0 0 0 2.399839 2.40466" fill="url(#c)" />
    </g>
    <path d="m0 38.054a5.979 5.979 0 0 0 5.973 5.985 5.98 5.98 0 0 0 5.974-5.985v-5.985h-5.974c-3.299 0-5.973 2.68-5.973 5.985m15.929 0v15.96c0 3.306 2.674 5.986 5.973 5.986a5.98 5.98 0 0 0 5.974-5.985v-15.961a5.979 5.979 0 0 0 -5.974-5.985c-3.299 0-5.973 2.68-5.973 5.985" fill="url(#d)" transform="matrix(.40178119 0 0 .40178119 12.000001 9.920783)" />
  </g>
</svg>
