<svg height="48" width="48" xmlns="http://www.w3.org/2000/svg" xmlns:xlink="http://www.w3.org/1999/xlink"><linearGradient id="a" gradientUnits="userSpaceOnUse" x1="17.38679" x2="17.38679" y1="1045.86888" y2="1006.86891"><stop offset="0" stop-color="#e42238"/><stop offset="1" stop-color="#fd6820"/></linearGradient><linearGradient id="b" gradientUnits="userSpaceOnUse" x1="247.85664" x2="267.675006" y1="369.325948" y2="108.31804"><stop offset="0" stop-color="#ececec"/><stop offset="1" stop-color="#fefefe"/></linearGradient><g stroke-width="1.317422" transform="matrix(1.19999965 0 0 1.19999965 3.176861 -1208.208317)"><circle cx="17.386787" cy="1026.8689" fill="url(#a)" r="20.000006"/><path d="m466.52329 169.06212c-2.46041-29.4379-20.01287-66.56055-56.08491-67.88772-100.72532-6.772423-220.0537-8.624033-322.603667 0-31.815685 3.5658-53.6245 42.31916-56.001414 71.75706-5.030396 61.83368-5.030396 97.02209 0 158.85578 2.404744 29.4379 23.661295 68.41302 56.057076 72.50326 103.765815 6.77243 222.514105 7.73954 322.603665 0 31.40083-5.44524 53.65233-43.06536 56.05708-72.50326 5.00256-61.86152 5.00256-100.89143-.0278-162.72512zm-272.6563 161.73017v-158.52442l138.20715 79.27569z" fill="url(#b)" opacity=".878" transform="matrix(.04599651 0 0 .04599651 5.797766 1015.7124)"/></g></svg>