<svg height="48" width="48" xmlns="http://www.w3.org/2000/svg" xmlns:xlink="http://www.w3.org/1999/xlink"><linearGradient id="a" x1="0" x2="0" y1="1" y2="0"><stop offset="0" stop-color="#ececec"/><stop offset="1" stop-color="#fff"/></linearGradient><linearGradient id="b" x1="0" x2="1" y1="0" y2="0"><stop offset="0" stop-color="#d9d9d9"/><stop offset="1" stop-color="#eee"/></linearGradient><linearGradient id="c" x1="0" x2="1" xlink:href="#a" y1="0" y2="0"/><linearGradient id="d" x1="1" x2="0" xlink:href="#a" y1="0" y2="0"/><linearGradient id="e" x1="1" x2="0" xlink:href="#b" y1="0" y2="0"/><linearGradient id="f" x1="0" x2="1" xlink:href="#b" y1="0" y2="0"/><linearGradient id="g" x1="0" x2="0" y1="1" y2="0"><stop offset="0" stop-color="#e6e6e6"/><stop offset="1" stop-color="#fff"/></linearGradient><clipPath id="h"><path d="m2 9h44v37h-44z"/></clipPath><path d="m4 3h40v10h-40z" fill="url(#b)"/><path d="m4 3v27l3.5-24.5z" fill="url(#f)"/><path d="m44 3v5l-3.5-2.5z" fill="url(#e)"/><path d="m7.5 5.5 7.7 5.5h-11.2z" opacity=".08"/><rect clip-path="url(#h)" fill="url(#a)" height="40" rx="3" width="44" x="2" y="6"/><path d="m46 9h-5.5v-3.5z" fill="url(#d)"/><path d="m7.5 5.5-5.5 3.5h5.5z" fill="url(#c)"/><circle cx="14" cy="14" opacity=".3" r="2"/><circle cx="34" cy="14" opacity=".3" r="2"/><path d="m34 13a10 10 0 1 0 -20 0" fill="none" stroke="url(#g)" stroke-linecap="round" stroke-width="2.4"/><path d="m17.489197 31.841719-1.135909 3.237089h3.536012l1.076123-3.187266zm13.018106-.0012-3.577112.05229 1.067407 3.187191h3.653088zm-12.559543-3.772824c-.882868 0-1.594257.710138-1.594257 1.593012s.711389 1.594258 1.594257 1.594258h12.111376c.882867 0 1.593011-.711384 1.593011-1.594258s-.710144-1.593012-1.593011-1.593012zm-.02117.682542h7.6487c.529714 0 .956554.425581.956554.955309 0 .529721-.42684.956554-.956554.956554h-7.6487c-.529726 0-.956554-.426833-.956554-.956554 0-.529728.426828-.955309.956554-.955309zm4.452498-8.96886-3.257018 7.648699h3.23709l1.564361-4.183676 1.593013 4.183676h3.356659l-3.248299-7.648699z" opacity=".8"/></svg>