<svg height="48" width="48" xmlns="http://www.w3.org/2000/svg" xmlns:xlink="http://www.w3.org/1999/xlink"><linearGradient id="a" x1="0" x2="0" y1="1" y2="0"><stop offset="0" stop-color="#ececec"/><stop offset="1" stop-color="#fff"/></linearGradient><linearGradient id="b" x1="0" x2="1" y1="0" y2="0"><stop offset="0" stop-color="#d9d9d9"/><stop offset="1" stop-color="#eee"/></linearGradient><linearGradient id="c" x1="0" x2="1" xlink:href="#a" y1="0" y2="0"/><linearGradient id="d" x1="1" x2="0" xlink:href="#a" y1="0" y2="0"/><linearGradient id="e" x1="1" x2="0" xlink:href="#b" y1="0" y2="0"/><linearGradient id="f" x1="0" x2="1" xlink:href="#b" y1="0" y2="0"/><linearGradient id="g" x1="0" x2="0" y1="1" y2="0"><stop offset="0" stop-color="#e6e6e6"/><stop offset="1" stop-color="#fff"/></linearGradient><clipPath id="h"><path d="m2 9h44v37h-44z"/></clipPath><symbol id="i"><circle cx="24" cy="27.5" r="1.5"/></symbol><path d="m4 3h40v10h-40z" fill="url(#b)"/><path d="m4 3v27l3.5-24.5z" fill="url(#f)"/><path d="m44 3v5l-3.5-2.5z" fill="url(#e)"/><path d="m7.5 5.5 7.7 5.5h-11.2z" opacity=".08"/><rect clip-path="url(#h)" fill="url(#a)" height="40" rx="3" width="44" x="2" y="6"/><path d="m46 9h-5.5v-3.5z" fill="url(#d)"/><path d="m7.5 5.5-5.5 3.5h5.5z" fill="url(#c)"/><circle cx="14" cy="14" opacity=".3" r="2"/><circle cx="34" cy="14" opacity=".3" r="2"/><path d="m34 13a10 10 0 1 0 -20 0" fill="none" stroke="url(#g)" stroke-linecap="round" stroke-width="2.4"/><g opacity=".8"><use xlink:href="#i"/><use x="-4.5" xlink:href="#i"/><use x="4.5" xlink:href="#i"/><use x="-4.5" xlink:href="#i" y="4.5"/><use x="4.5" xlink:href="#i" y="4.5"/><use xlink:href="#i" y="4.5"/><use x="-4.5" xlink:href="#i" y="-4.5"/><use x="4.5" xlink:href="#i" y="-4.5"/><use xlink:href="#i" y="-4.5"/></g></svg>