<svg height="48" width="48" xmlns="http://www.w3.org/2000/svg" xmlns:xlink="http://www.w3.org/1999/xlink"><linearGradient id="a" gradientUnits="userSpaceOnUse" x1="399.57144" x2="399.57144" xlink:href="#b" y1="545.79797" y2="517.79797"/><linearGradient id="b"><stop offset="0" stop-color="#3889e9"/><stop offset="1" stop-color="#5ea5fb"/></linearGradient><linearGradient id="c" gradientUnits="userSpaceOnUse" x1="24.893744577848" x2="24.180667715072" y1="48.095678396448" y2="6.55315237656"><stop offset="0" stop-color="#ec396c"/><stop offset="1" stop-color="#ff709a"/></linearGradient><linearGradient id="d" gradientUnits="userSpaceOnUse" x1="23.945479734739" x2="24.192385887242" y1="13.740192557643" y2="1.387997157812"><stop offset="0" stop-color="#e6e6e6"/><stop offset="1" stop-color="#fff"/></linearGradient><linearGradient id="e" gradientUnits="userSpaceOnUse" x1="-40.964166508104" x2="-40.964166508104" xlink:href="#b" y1="75.625193209473" y2="27.625048009473"/><linearGradient id="f" gradientTransform="matrix(9.0012464 0 0 8.8965192 -597.03434 -1102.6175)" gradientUnits="userSpaceOnUse" spreadMethod="pad" x1="27.248178" x2="26.952778" y1="45.304726" y2="-19.572325"><stop offset="0" stop-color="#ff3a44"/><stop offset="1" stop-color="#c31162"/></linearGradient><circle cx="400.57138" cy="531.79791" fill="url(#a)" r="0" transform="matrix(1.555869880267 0 0 1.555869880267 -655.799255170452 -800.713592474013)"/><path d="m3.02977 1.853611h41.954231v9.120479h-41.954231z" fill="#ececec"/><path d="m3.02977 1.853611h41.954231v9.120479h-41.954231z" fill="url(#f)"/><path d="m12 8-8-8v20h8z" fill="#fc6793" transform="matrix(.45359826 0 0 .36286428 1.215383 1.775958)"/><path d="m12 8-8-8v20h8z" fill="#fc6793" transform="matrix(-.44594015 0 0 .35714287 46.769011 1.869274)"/><path d="m6.671875 4.6660156-3.6425781 2.34375v2.3554688l2.5 1.6093746h10.9453121z" fill-opacity=".078431"/><path d="m46.80811 44.051588c0 1.62801-1.225338 2.948412-2.736145 2.948412h-40.1301385c-1.5108066 0-2.7361445-1.320402-2.7361445-2.948412v-35.8723085h45.602428z" fill="url(#c)"/><path d="m12 8v12h-12z" fill="#ec3a6d" transform="matrix(-.44883399 0 0 .2888755 46.80641 2.402993)"/><path d="m1.2 8.1882965 5.4722891-3.5220388v3.5220388z" fill="#ec3a6d"/><circle cx="33.675564" cy="13.565169" opacity=".3" r="2.09037"/><circle cx="14.034451" cy="13.815694" opacity=".3" r="2.09037"/><path d="m13.798114 12.38102c-.051348-5.5409182 4.399007-10.0749915 9.940345-10.1263595 5.541337-.0513471 10.074993 4.3990077 10.126358 9.9403535" style="clip-rule:evenodd;fill:none;stroke-width:2.508446;stroke-linecap:round;stroke-miterlimit:10;stroke:url(#d)"/><circle cx="-39.249977" cy="51.625023" fill="url(#e)" r="0"/><path d="m25.776405 37.801176c-2.747885-.988578-4.380054-2.201881-6.169598-4.909563-.439139-.745987-1.246633-2.410799-1.216051-4.583817-.07147-2.166489 1.023284-4.662848 3.066415-5.995041 1.973034-1.40607 4.519217-1.427031 6.03387-.87175 1.562415.580021 2.19604 1.546265 2.213908 1.500221-.04776.01203.837045.756295 1.231514 2.376437.439483 1.557261-.0069 4.138493-2.154806 5.195451-.987892.52951-2.270948.625378-3.277051.246715-1.006103-.405809-1.736284-1.296801-1.979563-2.227652-.530197-2.055158 1.029125-3.19424 1.717041-3.311069 2.79874-.933257 4.21615 3.446453.942878 3.818931 1.491974.498241 3.029993-1.032905 2.737577-2.592571-.0591-1.56001-1.947607-3.108337-4.030598-2.473681-.543941.15016-1.367585.531915-2.012206 1.390608-.661114.853538-.96109 2.191229-.617475 3.491466.335024 1.307453 1.353841 2.558897 2.772968 3.121394 1.43356.528823 3.029649.377632 4.347754-.308222 2.813859-1.391982 3.377043-4.7838 2.817982-6.649971-.49343-2.005677-1.583032-2.924158-1.526679-2.938247-.02027.05463-.804058-1.13702-2.741012-1.860328-1.894003-.690665-4.847026-.641872-7.211437 1.016068-2.419733 1.551762-3.730622 4.600997-3.635441 7.058528-.03264 2.495671.897521 4.405824 1.40504 5.254895 2.04588 3.12002 4.390018 4.095197 7.28497 4.251198" fill="#fff" fill-opacity=".85"/></svg>