<svg xmlns="http://www.w3.org/2000/svg" xmlns:xlink="http://www.w3.org/1999/xlink" version="1.1" width="48" height="48">
	<defs>
		<linearGradient id="frontGrad" x1="0" y1="1" x2="0" y2="0">
			<stop stop-color="#FF4224" offset="0" />
			<stop stop-color="#FFA140" offset="1" />
		</linearGradient>
		<linearGradient id="backGrad" x1="0" y1="0" x2="1" y2="0">
			<stop stop-color="#D93300" offset="0" />
			<stop stop-color="#FF5F07" offset="1" />
		</linearGradient>
		<linearGradient id="leftfrontfoldGrad" xlink:href="#frontGrad" x1="0" y1="0" x2="1" y2="0" />
		<linearGradient id="rightfrontfoldGrad" xlink:href="#frontGrad" x1="1" y1="0" x2="0" y2="0" />
		<linearGradient id="rightbackfoldGrad" xlink:href="#backGrad" x1="1" y1="0" x2="0" y2="0" />
		<linearGradient id="leftbackfoldGrad" xlink:href="#backGrad" x1="0" y1="0" x2="1" y2="0" />
		<linearGradient id="handleGrad" x1="0" y1="1" x2="0" y2="0">
			<stop stop-color="#E6E6E6" offset="0" />
			<stop stop-color="#FFF" offset="1" />
		</linearGradient>
		<clipPath id="frontClip">
			<rect x="2" y="9" width="44" height="37" />
		</clipPath>
	</defs>

	<rect id="back" x="4" y="3" width="40" height="10" fill="url(#backGrad)" />
	<polygon id="leftbackfold" fill="url(#leftbackfoldGrad)" points="4,3 4,30 7.5,5.5" />
	<polygon id="rightbackfold" fill="url(#rightbackfoldGrad)" points="44,3 44,8 40.5,5.5" />
	<polygon id="shadow" points="7.5,5.5 15.2,11 4,11" fill="#000" opacity="0.08"  />
	<rect id="frontnew" fill="url(#frontGrad)" x="2" y="6" width="44" height="40" rx="3" clip-path="url(#frontClip)" />
	<polygon id="rightfrontfold" points="46,9 40.5,9 40.5,5.5" fill="url(#rightfrontfoldGrad)" />
	<polygon id="leftfrontfold" points="7.5,5.5 2,9 7.5,9" fill="url(#leftfrontfoldGrad)" />
	<circle class="hole" cx="14" cy="14" r="2" fill="#000" opacity="0.3" />
	<circle class="hole" cx="34" cy="14" r="2" fill="#000" opacity="0.3" />
	<path id="handle" d="M 34,13 a 10,10 0 1,0 -20,0" fill="none" stroke="url(#handleGrad)" stroke-width="2.4" stroke-linecap="round"  />
	<path id="symbol" d="m 28.273852,18.98248 c -0.0823,-0.006 -0.1634,-0.004 -0.2433,7.87e-4 -0.532731,0.0376 -1.02607,0.33276 -1.31338,0.83028 -0.458021,0.7952 -0.18384,1.80562 0.613,2.265319 0.7952,0.458 1.8073,0.191781 2.26531,-0.60593 0.45964,-0.792709 0.1964,-1.82188 -0.5988,-2.280669 -0.22411,-0.1289 -0.47598,-0.19478 -0.72281,-0.210231 z m -4.3641,1.76219 c -1.14955,0 -2.22467,0.27154 -3.18889,0.749971 l 1.15512,2.08577 c 0.62213,-0.290501 1.30394,-0.461801 2.03384,-0.461801 2.54076,6e-6 4.63778,1.94421 4.85657,4.43025 l 2.358621,-0.02947 c -0.117581,-1.832089 -0.91916,-3.480131 -2.14957,-4.6901 -0.633561,0.23766 -1.35311,0.20123 -1.984201,-0.16535 -0.63106,-0.36494 -1.0303,-0.97491 -1.139749,-1.64524 -0.615601,-0.16902 -1.273041,-0.274 -1.941671,-0.274 z m -4.00386,1.21886 c -1.456501,0.97238 -2.52915,2.46469 -2.97985,4.20699 0.52743,0.42862 0.84449,1.0695 0.84449,1.8035 -1e-6,0.72904 -0.31624,1.393741 -0.84449,1.82478 0.4507,1.74145 1.52335,3.22753 2.979849,4.19991 l 1.2185,-2.04937 c -1.24994,-0.87846 -2.063339,-2.33122 -2.063339,-3.9755 2e-6,-1.64597 0.8134,-3.09698 2.06334,-3.97551 z m -4.46683,4.3511 c -0.920132,4e-6 -1.659404,0.73926 -1.659401,1.659391 -1.1e-5,0.91686 0.73927,1.659399 1.659401,1.659399 0.92091,10e-7 1.66767,-0.74254 1.66767,-1.6594 -4e-6,-0.92013 -0.74676,-1.659389 -1.66767,-1.65939 z m 13.32727,2.09998 c -0.218809,2.48198 -2.31581,4.43025 -4.85658,4.43025 -0.730721,-10e-7 -1.4117,-0.16403 -2.03383,-0.45471 l -1.15512,2.07041 c 0.96422,0.48008 2.039401,0.74289 3.18889,0.74289 0.6687,1e-6 1.326079,-0.0893 1.941669,-0.259839 0.109411,-0.669471 0.507841,-1.277511 1.139781,-1.644091 0.63276,-0.36489 1.35068,-0.40031 1.98418,-0.15944 1.230401,-1.21161 2.03189,-2.85637 2.14957,-4.6901 z m -0.72875,5.245161 c -0.24077,0.0205 -0.48381,0.1006 -0.707449,0.230319 -0.796771,0.45643 -1.071001,1.46466 -0.613001,2.25823 0.45968,0.79768 1.48348,1.06508 2.279471,0.607081 0.79617,-0.458872 1.058429,-1.471271 0.598809,-2.266471 -0.28729,-0.4975 -0.787639,-0.79163 -1.32046,-0.829119 -0.08,-0.007 -0.15721,-0.007 -0.23739,5e-6 z" fill="#FFF" opacity="0.8" />
</svg>
