<svg height="48" width="48" xmlns="http://www.w3.org/2000/svg" xmlns:xlink="http://www.w3.org/1999/xlink"><linearGradient id="a" x1="0" x2="0" y1="1" y2="0"><stop offset="0" stop-color="#ff4224"/><stop offset="1" stop-color="#ffa140"/></linearGradient><linearGradient id="b" x1="0" x2="1" y1="0" y2="0"><stop offset="0" stop-color="#d93300"/><stop offset="1" stop-color="#ff5f07"/></linearGradient><linearGradient id="c" x1="0" x2="1" xlink:href="#a" y1="0" y2="0"/><linearGradient id="d" x1="1" x2="0" xlink:href="#a" y1="0" y2="0"/><linearGradient id="e" x1="1" x2="0" xlink:href="#b" y1="0" y2="0"/><linearGradient id="f" x1="0" x2="1" xlink:href="#b" y1="0" y2="0"/><linearGradient id="g" x1="0" x2="0" y1="1" y2="0"><stop offset="0" stop-color="#e6e6e6"/><stop offset="1" stop-color="#fff"/></linearGradient><clipPath id="h"><path d="m2 9h44v37h-44z"/></clipPath><path d="m4 3h40v10h-40z" fill="url(#b)"/><path d="m4 3v27l3.5-24.5z" fill="url(#f)"/><path d="m44 3v5l-3.5-2.5z" fill="url(#e)"/><path d="m7.5 5.5 7.7 5.5h-11.2z" opacity=".08"/><rect clip-path="url(#h)" fill="url(#a)" height="40" rx="3" width="44" x="2" y="6"/><path d="m46 9h-5.5v-3.5z" fill="url(#d)"/><path d="m7.5 5.5-5.5 3.5h5.5z" fill="url(#c)"/><circle cx="14" cy="14" opacity=".3" r="2"/><circle cx="34" cy="14" opacity=".3" r="2"/><path d="m34 13a10 10 0 1 0 -20 0" fill="none" stroke="url(#g)" stroke-linecap="round" stroke-width="2.4"/><path d="m28.273852 18.98248c-.0823-.006-.1634-.004-.2433.000787-.532731.0376-1.02607.33276-1.31338.83028-.458021.7952-.18384 1.80562.613 2.265319.7952.458 1.8073.191781 2.26531-.60593.45964-.792709.1964-1.82188-.5988-2.280669-.22411-.1289-.47598-.19478-.72281-.210231zm-4.3641 1.76219c-1.14955 0-2.22467.27154-3.18889.749971l1.15512 2.08577c.62213-.290501 1.30394-.461801 2.03384-.461801 2.54076.000006 4.63778 1.94421 4.85657 4.43025l2.358621-.02947c-.117581-1.832089-.91916-3.480131-2.14957-4.6901-.633561.23766-1.35311.20123-1.984201-.16535-.63106-.36494-1.0303-.97491-1.139749-1.64524-.615601-.16902-1.273041-.274-1.941671-.274zm-4.00386 1.21886c-1.456501.97238-2.52915 2.46469-2.97985 4.20699.52743.42862.84449 1.0695.84449 1.8035-.000001.72904-.31624 1.393741-.84449 1.82478.4507 1.74145 1.52335 3.22753 2.979849 4.19991l1.2185-2.04937c-1.24994-.87846-2.063339-2.33122-2.063339-3.9755.000002-1.64597.8134-3.09698 2.06334-3.97551zm-4.46683 4.3511c-.920132.000004-1.659404.73926-1.659401 1.659391-.000011.91686.73927 1.659399 1.659401 1.659399.92091.000001 1.66767-.74254 1.66767-1.6594-.000004-.92013-.74676-1.659389-1.66767-1.65939zm13.32727 2.09998c-.218809 2.48198-2.31581 4.43025-4.85658 4.43025-.730721-.000001-1.4117-.16403-2.03383-.45471l-1.15512 2.07041c.96422.48008 2.039401.74289 3.18889.74289.6687.000001 1.326079-.0893 1.941669-.259839.109411-.669471.507841-1.277511 1.139781-1.644091.63276-.36489 1.35068-.40031 1.98418-.15944 1.230401-1.21161 2.03189-2.85637 2.14957-4.6901zm-.72875 5.245161c-.24077.0205-.48381.1006-.707449.230319-.796771.45643-1.071001 1.46466-.613001 2.25823.45968.79768 1.48348 1.06508 2.279471.607081.79617-.458872 1.058429-1.471271.598809-2.266471-.28729-.4975-.787639-.79163-1.32046-.829119-.08-.007-.15721-.007-.23739.000005z" fill="#fff" opacity=".8"/></svg>