<svg height="48" width="48" xmlns="http://www.w3.org/2000/svg" xmlns:xlink="http://www.w3.org/1999/xlink">
  <linearGradient id="a" gradientUnits="userSpaceOnUse" x1="24" x2="24" y1="48.0454535" y2="-.04545140909">
    <stop offset="0" stop-color="#19bd54" />
    <stop offset="1" stop-color="#54e889" />
  </linearGradient>
  <g stroke-width="1.04545">
    <circle cx="24" cy="24" fill="url(#a)" r="22.999998" />
    <path d="m33.632353 33.236439c-.374521.614212-1.17849.808963-1.792703.431946-4.909207-2.998655-11.089283-3.677784-18.367452-2.014917-.701352.159795-1.400455-.279641-1.560251-.981241-.160543-.701602.277146-1.400705.980244-1.5605 7.964789-1.819667 14.79678-1.036172 20.308215 2.332009.614212.377018.808963 1.17849.431947 1.792703zm2.559218-5.693201c-.471895.767016-1.475608 1.009206-2.242126.53731-5.620294-3.454571-14.187561-4.455038-20.835289-2.437125-.862145.260417-1.772727-.225462-2.034392-1.086107-.259667-.862145.22646-1.77098 1.087107-2.033143 7.593515-2.304047 17.033662-1.187977 23.487888 2.778187.766517.471895 1.008707 1.475608.536812 2.241128zm.219718-5.928401c-6.738861-4.002617-17.857106-4.370646-24.291108-2.4179-1.033175.313349-2.1257753-.269903-2.4388732-1.303079-.313099-1.033675.269654-2.125525 1.3035782-2.439622 7.385782-2.242126 19.663791-1.808931 27.422344 2.796914.931306.551543 1.235916 1.751754.684123 2.679815-.549296.929309-1.752752 1.235665-2.679065.683872z" fill="#111" />
  </g>
</svg>
