<svg height="48" width="48" xmlns="http://www.w3.org/2000/svg" xmlns:xlink="http://www.w3.org/1999/xlink"><linearGradient id="a" gradientUnits="userSpaceOnUse" x1="399.57144" x2="399.57144" y1="545.79797" y2="517.79797"><stop offset="0" stop-color="#3889e9"/><stop offset="1" stop-color="#5ea5fb"/></linearGradient><linearGradient id="b" gradientUnits="userSpaceOnUse" x1="399.9939" x2="399.9939" y1="545.13873" y2="518.13873"><stop offset="0" stop-color="#4e1073"/><stop offset="1" stop-color="#b228ff"/></linearGradient><g stroke-width="1.3" transform="matrix(1.64285851875 0 0 1.64285851875 -634.082153947849 -849.668782303916)"><circle cx="400.57138" cy="531.79791" fill="url(#b)" r="13.999958"/><circle cx="400.57144" cy="531.79797" fill="none" r="13.999958"/><circle cx="400.57138" cy="531.79791" fill="url(#a)" r="0"/></g><g fill="#fff" fill-opacity=".850807" stroke-width="1.317422" transform="translate(-379.064367 -493.280201)"><path d="m82.528744 30.773999c0-1.220401-.922891-1.97875-2.771101-2.275654l-24.831224-3.61081-11.129941-22.5076041c-.625987-1.3521563-1.434731-2.0279309-2.423802-2.0279309-.989072 0-1.797209.6757746-2.423803 2.0279309l-11.130548 22.5076041-24.8324385 3.61081c-1.8463886.296904-2.7698865 1.055253-2.7698865 2.275654 0 .692776.412265 1.484519 1.236795 2.374623l18.006084 17.511244-4.253798 24.733471c-.06618.462052-.09897.79235-.09897.989679 0 .692775.173042 1.277475.519126 1.756528.346084.478446.86521.717062 1.557985.717062.593808 0 1.253189-.196722 1.978751-.593201l22.210096-11.675174 22.211915 11.675174c.693382.395872 1.352763.593201 1.978143.593201.661203 0 1.163328-.238009 1.509412-.717062.345477-.478446.518519-1.063753.518519-1.756528 0-.428659-.01639-.758349-.04979-.989679l-4.254402-24.733471 17.956296-17.511244c.858531-.857317 1.286582-1.64906 1.286582-2.374623z" transform="matrix(.194910072684 -.049459212452 .049459212452 .194910072684 387.202127239878 514.293011630619)"/><path d="m417.35755 523.8032c.0585-.15548-.0227-.29635-.24388-.42283l-2.99025-1.65104-.33835-3.40127c-.0149-.20228-.0855-.32717-.21152-.37461-.12601-.0474-.26138-.00011-.40606.14209l-2.49759 2.33355-3.33679-.73108c-.24946-.0508-.40349.002-.46203.15705-.0332.0883-.0187.2089.0437.36185l1.45402 3.09456-1.72827 2.94696c-.0306.0557-.0506.0962-.0601.12132-.0332.0882-.0392.17106-.0181.2487.0211.0775.0758.13284.16409.16606.0756.0285.1691.035.28056.0193l3.38952-.42208 2.26975 2.55278c.0693.0837.14387.14051.22354.1705.0842.0317.15962.0255.22669-.0189.0669-.0444.1171-.11064.15033-.19891.0206-.0546.0345-.0973.0409-.12854l.64435-3.35505 3.12751-1.36962c.15051-.068.24302-.14838.27782-.24082z"/><path d="m82.528744 30.773999c0-1.220401-.922891-1.97875-2.771101-2.275654l-24.831224-3.61081-11.129941-22.5076041c-.625987-1.3521563-1.434731-2.0279309-2.423802-2.0279309-.989072 0-1.797209.6757746-2.423803 2.0279309l-11.130548 22.5076041-24.8324385 3.61081c-1.8463886.296904-2.7698865 1.055253-2.7698865 2.275654 0 .692776.412265 1.484519 1.236795 2.374623l18.006084 17.511244-4.253798 24.733471c-.06618.462052-.09897.79235-.09897.989679 0 .692775.173042 1.277475.519126 1.756528.346084.478446.86521.717062 1.557985.717062.593808 0 1.253189-.196722 1.978751-.593201l22.210096-11.675174 22.211915 11.675174c.693382.395872 1.352763.593201 1.978143.593201.661203 0 1.163328-.238009 1.509412-.717062.345477-.478446.518519-1.063753.518519-1.756528 0-.428659-.01639-.758349-.04979-.989679l-4.254402-24.733471 17.956296-17.511244c.858531-.857317 1.286582-1.64906 1.286582-2.374623z" transform="matrix(.134937418722 -.081342576033 .081342576033 .134937418722 399.707186808475 508.789236005327)"/><path d="m403.84361 507.73946c.0585-.15548-.0227-.29635-.24388-.42283l-2.99025-1.65104-.33835-3.40127c-.0149-.20228-.0855-.32717-.21152-.37461-.12601-.0474-.26138-.00011-.40606.14209l-2.49759 2.33355-3.33679-.73108c-.24946-.0508-.40349.002-.46203.15705-.0332.0883-.0187.2089.0437.36185l1.45402 3.09456-1.72827 2.94696c-.0306.0557-.0506.0962-.0601.12132-.0332.0882-.0392.17106-.0181.2487.0211.0775.0758.13284.16409.16606.0756.0285.1691.035.28056.0193l3.38952-.42208 2.26975 2.55278c.0693.0837.14387.14051.22354.1705.0842.0317.15962.0255.22669-.0189.0669-.0444.1171-.11064.15033-.19891.0206-.0546.0345-.0973.0409-.12854l.64435-3.35505 3.12751-1.36962c.15051-.068.24302-.14838.27782-.24082z"/></g></svg>