<svg height="48" viewBox="0 0 48 48.000001" width="48" xmlns="http://www.w3.org/2000/svg" xmlns:xlink="http://www.w3.org/1999/xlink">
  <linearGradient id="a">
    <stop offset="0" stop-color="#c61423" />
    <stop offset="1" stop-color="#ff4c63" />
  </linearGradient>
  <linearGradient id="b" gradientTransform="matrix(1.4115484 0 0 1.2671391 -12.981114 -2.07951)" gradientUnits="userSpaceOnUse" x1="26.264645" x2="26.281845" xlink:href="#a" y1="33.887871" y2="10.73312" />
  <linearGradient id="c" gradientUnits="userSpaceOnUse" x1="24.054089" x2="24.05409" y1="18.722656" y2="6">
    <stop offset="0" stop-color="#28ae37" />
    <stop offset="1" stop-color="#21f16a" />
  </linearGradient>
  <linearGradient id="d" gradientUnits="userSpaceOnUse" x1="24.193117" x2="24.193117" y1="1007.529858" y2="1049.718118">
    <stop offset="0" stop-color="#fffce4" />
    <stop offset="1" stop-color="#fafacd" />
  </linearGradient>
  <linearGradient id="e" gradientUnits="userSpaceOnUse" x1="24.229177" x2="24.229177" xlink:href="#a" y1="1050.890144" y2="1005.186231" />
  <g transform="matrix(1.0239813 0 0 1.0239813 -.719223 -1029.191891)">
    <circle cx="24.229177" cy="1028.6241" fill="url(#e)" r="23.437929" />
    <circle cx="24.19313" cy="1028.624" fill="url(#d)" fill-opacity=".8" r="21.09413" />
  </g>
  <path d="m37.41391 20.943765c0 6.931966-8.657086 19.972032-13.359821 20.15427-4.702733.182237-13.359818-13.222305-13.359818-20.15427 0-12.581341 10.534893-9.487497 13.359818-9.487497 2.824926 0 13.359821-3.184963 13.359821 9.487497z" fill="url(#b)" />
  <path d="m24.05409 6c-.277 0-.5.223-.5.5v3.1074219c-1.022109-.2225463-3.661913-.674122-6.654297-.1464844-3.80726.6713225-6.632811 2.6933595-6.632811 2.6933595s3.347037.933042 7.154296.261719c.166042-.02928.318313-.07329.480469-.107422-2.310091 2.12524-3.041015 5.126953-3.041015 5.126953s3.344364-.194209 5.882811-2.324219c.53587-.449648.977431-.951959 1.365235-1.460937-.02296.18956-.05469.376081-.05469.572265 0 2.485281 2 4.5 2 4.5s2-2.014719 2-4.5c0-.196185-.03173-.382705-.05469-.572265.387804.508978.829365 1.011289 1.365234 1.460937 2.538448 2.13001 5.88086 2.324219 5.88086 2.324219s-.730925-3.001713-3.041016-5.126953c.162554.03423.315962.07807.482422.107422 3.80726.671323 7.154297-.261719 7.154297-.261719s-2.825552-2.022037-6.632813-2.6933595c-2.989782-.52718-5.630148-.0762854-6.654292.1464844v-3.1074219c0-.277-.222999-.5-.5-.5z" fill="url(#c)" />
</svg>
