<svg height="48" width="48" xmlns="http://www.w3.org/2000/svg" xmlns:xlink="http://www.w3.org/1999/xlink">
  <linearGradient id="a" gradientTransform="matrix(.32634079 0 0 .32195323 347.66412 -94.038807)" gradientUnits="userSpaceOnUse" x1="-989.66583" x2="-1003.6364" y1="433.28394" y2="317.35452">
    <stop offset="0" stop-color="#292926" />
    <stop offset="1" stop-color="#484b4d" />
  </linearGradient>
  <linearGradient id="b" gradientTransform="matrix(.32587159 0 0 .32156103 357.82511 -24.927701)" gradientUnits="userSpaceOnUse" x1="-1092.9117" x2="-1060.2551" y1="203.09911" y2="104.85291">
    <stop offset="0" stop-color="#fc7816" />
    <stop offset="1" stop-color="#ffac01" />
  </linearGradient>
  <rect fill="url(#b)" height="36.862873" ry=".899689" stroke-width=".916662" transform="matrix(.94911544 -.31492838 .3072073 .95164262 0 0)" width="29.252037" x="-.816972" y="11.262542" />
  <rect fill="url(#a)" height="39.574074" ry=".96586" stroke-width=".916662" transform="matrix(.99210439 -.12541482 .1378126 .99045832 0 0)" width="32.576988" x="6.409714" y="7.795104" />
  <g fill-rule="evenodd" transform="matrix(.62086833 -.08752302 .09706648 .6885675 -64.25234 -685.06806)">
    <g fill="#fff">
      <path d="m-34.260591 1005.7813h2v.9999h-2z" opacity=".8" />
      <path d="m-34.260591 1009.7812h2v.9999h-2z" opacity=".8" />
      <path d="m-34.260591 1007.7813h2v.9999h-2z" opacity=".8" />
      <path d="m-34.260591 1011.7812h2v.9999h-2z" opacity=".8" />
      <path d="m-34.260591 1015.7812h2v.9999h-2z" opacity=".8" />
      <path d="m-34.260591 1013.7812h2v.9999h-2z" opacity=".8" />
      <path d="m-34.260591 1017.7812h2v.9999h-2z" opacity=".8" />
      <path d="m-34.260591 1021.7812h2v.9999h-2z" opacity=".8" />
      <path d="m-34.260591 1019.7812h2v.9999h-2z" opacity=".8" />
    </g>
    <path d="m-31.260591 1005.7811h9v.9999h-9z" fill="#f92672" opacity=".8" />
    <path d="m-21.260591 1005.7813h6v.9999h-6z" fill="#fff" opacity=".8" />
    <path d="m-14.260591 1005.7813h4v.9999h-4z" fill="#fff" opacity=".8" />
    <path d="m-31.260591 1007.7811h5v1h-5z" fill="#fd971f" opacity=".8" />
    <path d="m-25.260591 1007.7811h2v1.0001h-2z" fill="#fff" opacity=".8" />
    <path d="m-22.260591 1007.7813h9v.9999h-9z" fill="#a6e22e" opacity=".8" />
    <path d="m-31.260591 1009.7811h7v.9999h-7z" fill="#f92672" opacity=".8" />
    <path d="m-23.260591 1009.7813h5v.9999h-5z" fill="#fd971f" opacity=".8" />
    <path d="m-17.260591 1009.7812h2v.9999h-2z" fill="#fff" opacity=".8" />
    <path d="m-29.260591 1011.7811h4v.9999h-4z" fill="#f92672" opacity=".8" />
    <path d="m-24.260591 1011.7813h10v.9999h-10z" fill="#a6e22e" opacity=".8" />
    <path d="m-13.260591 1011.7813h4v.9999h-4z" fill="#fff" opacity=".8" />
    <path d="m-29.260591 1013.7811h6v.9999h-6z" fill="#f92672" opacity=".8" />
    <path d="m-22.260591 1013.7813h6v.9999h-6z" fill="#66d9ef" opacity=".8" />
    <path d="m-15.260591 1013.7813h4v.9999h-4z" fill="#a6e22e" opacity=".8" />
    <path d="m-29.260591 1015.7811h2v.9999h-2z" fill="#f92672" opacity=".8" />
    <path d="m-26.260591 1015.7813h13v.9999h-13z" fill="#66d9ef" opacity=".8" />
    <path d="m-12.260591 1015.7813h5.5v.9999h-5.5z" fill="#fff" opacity=".8" />
    <path d="m-29.260591 1017.7811h3v.9999h-3z" fill="#f92672" opacity=".8" />
    <path d="m-25.260591 1017.7813h11v.9999h-11z" fill="#66d9ef" opacity=".8" />
    <path d="m-13.260591 1017.7813h4v.9999h-4z" fill="#fff" opacity=".8" />
    <rect fill="#fff" height="1.000017" opacity=".8" ry=".000017" width="2" x="-31.260592" y="1019.7811" />
    <path d="m-28.260591 1019.7813h8v.9999h-8z" fill="#66d9ef" opacity=".8" />
    <path d="m-19.260591 1019.7813h3v.9999h-3z" fill="#fd971f" opacity=".8" />
    <path d="m-31.260591 1021.7811h4v.9999h-4z" fill="#f92672" opacity=".8" />
    <path d="m-26.260591 1021.7813h11v.9999h-11z" fill="#a6e22e" opacity=".8" />
    <path d="m-14.260591 1021.7813h2.5v.9999h-2.5z" fill="#fff" opacity=".8" />
    <path d="m-31.260591 1011.7811h1v7h-1z" fill="#faffeb" opacity=".678899" />
    <g fill="#fff">
      <path d="m-34.28725 1023.798h2v.9999h-2z" opacity=".8" />
      <path d="m-34.28725 1025.798h2v.9999h-2z" opacity=".8" />
      <path d="m-34.28725 1029.798h2v.9999h-2z" opacity=".8" />
      <path d="m-34.28725 1027.798h2v.9999h-2z" opacity=".8" />
    </g>
    <path d="m-29.28725 1023.7978h2v.9999h-2z" fill="#f92672" opacity=".8" />
    <path d="m-26.28725 1023.7981h13v.9999h-13z" fill="#66d9ef" opacity=".8" />
    <path d="m-12.28725 1023.7981h5.5v.9999h-5.5z" fill="#fff" opacity=".8" />
    <path d="m-29.28725 1025.7978h3v.9999h-3z" fill="#f92672" opacity=".8" />
    <path d="m-25.28725 1025.7981h11v.9999h-11z" fill="#66d9ef" opacity=".8" />
    <path d="m-13.28725 1025.7981h4v.9999h-4z" fill="#fff" opacity=".8" />
    <rect fill="#fff" height="1.000017" opacity=".8" ry=".000017" width="2" x="-31.287251" y="1027.7979" />
    <path d="m-28.28725 1027.7981h8v.9999h-8z" fill="#66d9ef" opacity=".8" />
    <path d="m-19.28725 1027.7981h3v.9999h-3z" fill="#fd971f" opacity=".8" />
    <path d="m-31.28725 1029.7978h4v.9999h-4z" fill="#f92672" opacity=".8" />
    <path d="m-26.28725 1029.7981h11v.9999h-11z" fill="#a6e22e" opacity=".8" />
    <path d="m-14.28725 1029.7981h2.5v.9999h-2.5z" fill="#fff" opacity=".8" />
  </g>
  <g stroke-width="1.333333" transform="matrix(.06974993 0 0 .06978523 25.653437 23.188807)">
    <path d="m48.888889 231.11111c-.488889-.48888-.888889-13.07506-.888889-27.96926 0-26.65842.04675-27.10857 3-28.8895 1.65-.99503 16.339924-5.95886 32.644275-11.03074 16.30435-5.07189 29.654355-9.55476 29.666665-9.96193.0123-.40719-13.927607-5.12972-30.977607-10.49455-17.05-5.36481-31.75-10.35514-32.666666-11.0896-1.236906-.99104-1.666667-8.47117-1.666667-29.00886 0-20.523902.430592-28.025169 1.666667-29.03473 2.789752-2.278523 154.446303-49.873893 156.457563-49.102103 2.61933 1.005136 2.77998 54.393214.17018 56.559155-.93806.778531-15.78806 5.900748-33 11.382705-26.77794 8.528713-30.81334 10.150373-27.96108 11.236443 1.83334.69809 15.33334 5.02037 30 9.60507 14.66667 4.5847 28.01667 9.17862 29.66667 10.20871 2.95533 1.84501 3 2.28686 3 29.67889 0 20.62992-.43013 28.15731-1.66667 29.16724-1.63081 1.33198-152.733011 49.63195-155.269127 49.63195-.707534 0-1.686426-.4-2.175314-.88889z" fill="#fcd19f" />
    <path d="m48.809319 229.89095c-.445126-1.15998-.809319-13.41712-.809319-27.2381 0-19.32602.415933-25.54497 1.801135-26.93017.990624-.99063 15.979188-6.28348 33.30792-11.76191 17.328735-5.47842 31.518215-10.30116 31.532195-10.71717.014-.41603-13.92458-5.14775-30.974583-10.51495-17.05-5.3672-32.05-10.66981-33.333334-11.78358-2.074656-1.80054-2.333333-4.93553-2.333333-28.2784 0-23.325618.260211-26.484253 2.333333-28.323713 1.283334-1.138689 36.768923-12.978604 78.856867-26.310924 60.18408-19.064685 76.76325-23.862446 77.64625-22.46964.6175.974018 1.13191 13.278083 1.14314 27.342368.0157 19.768247-.38994 25.981779-1.78778 27.379616-.9945.994503-15.96156 6.28736-33.26013 11.761906-17.29857 5.474544-31.03488 10.348147-30.52515 10.830227.50975.48208 14.7268 5.20794 31.59347 10.5019 16.86667 5.29395 31.41667 10.5642 32.33333 11.71166 1.20603 1.50967 1.66667 9.32888 1.66667 28.29145 0 23.27973-.26048 26.43631-2.33333 28.27549-1.75426 1.55652-152.405978 50.34299-155.458217 50.34299-.324398 0-.954009-.94907-1.399134-2.10905z" fill="#fbb15c" />
    <path d="m48.888889 229.77777c-.488889-.48888-.888889-12.12241-.888889-25.85228 0-21.88717.287536-25.28642 2.333333-27.58476 1.490203-1.67414 13.414483-6.10262 33-12.25568 16.866667-5.29888 31.128797-10.07786 31.693617-10.61997.56482-.54209-12.93518-5.3552-30.000005-10.69577-17.06482-5.34059-32.376945-10.56229-34.026945-11.6038-2.947612-1.86058-3-2.35824-3-28.49884 0-26.133023.05324-26.639257 3-28.524427 4.312776-2.759072 151.26947-49.080739 154.02817-48.550644 2.07339.398409 2.34151 3.003469 2.66664 25.909861.32359 22.797087.11387 25.744801-2 28.117588-1.5347 1.722656-13.4207 6.104511-33.94973 12.515811-17.37355 5.425828-31.17355 10.263231-30.66667 10.749791.50687.48655 14.72159 5.20892 31.58826 10.49414 16.86666 5.28523 31.71666 10.53013 33 11.65534 2.07394 1.81841 2.33333 4.96425 2.33333 28.2992 0 23.74051-.23339 26.46458-2.43832 28.46002-1.34108 1.21366-2.91572 2.20665-3.49919 2.20665-.58348 0-34.18617 10.5-74.67263 23.33333-40.486464 12.83334-74.511827 23.33334-75.611917 23.33334-1.100091 0-2.400166-.4-2.889054-.8889z" fill="#fb9520" />
    <path d="m162.66235 193.33067c-.96463-.59618-2.46214-.81215-3.32782-.47996-.86568.33218-2.33808-.31672-3.27198-1.44202-.93392-1.12529-2.25878-1.69944-2.94414-1.27586-.68536.42357-2.26737.31417-3.5156-.24311-1.24821-.55728-3.53173-1.07985-5.07449-1.16125-1.54275-.0813-3.8356-1.17862-5.09523-2.43824-2.51796-2.51795-4.0611-3.05172-2.76642-.9569 1.29876 2.10143-1.49046 1.55387-3.32115-.65198-.90622-1.09192-2.20597-1.64027-2.88834-1.21855-.68236.42172-1.96438.19217-2.84892-.51011-.88454-.70229-2.65826-1.10704-3.94159-.89944-1.28334.2076-2.33334-.13213-2.33334-.75502 0-.62288-1.05-1.16191-2.33333-1.19784-5.38982-.15094-6.92424-.64646-7.62053-2.46095-.42338-1.10332-1.62993-1.57281-2.84436-1.10679-1.16.44514-2.80494.37324-3.65543-.15974-.85049-.533-2.14635-1.04356-2.87968-1.13458-.73333-.0911-2.118744-.25688-3.078689-.36858-.959946-.11174-1.428103-.7164-1.04035-1.3438.387754-.6274-.866012-.84042-2.786144-.47335-2.380604.45508-3.19496.18812-2.560036-.8392.651298-1.05383-.290877-1.26219-3.135166-.69332-2.701188.54024-4.066282.28327-4.066282-.76544 0-.86828-.45-1.30131-1-.96228s-2.8-.13491-5-1.05317c-3.884005-1.62118-3.420028-1.85624 16-8.10638 10.999997-3.54022 20.442727-6.80361 20.983847-7.25197.54111-.44836-14.05152-5.56157-32.428068-11.36268-22.590985-7.13153-33.813052-11.29703-34.650513-12.86184-.68123-1.27289-1.238599-13.45966-1.238599-27.08171 0-22.823243.20212-24.940438 2.574923-26.972094 2.388544-2.045136 150.360107-49.769183 154.312637-49.769183 1.42529 0 1.77911 5.426434 1.77911 27.286422 0 24.644702-.22591 27.401668-2.33334 28.476801-1.28333.654708-16.28333 5.57516-33.33333 10.934339-17.05 5.359177-31 10.119295-31 10.578025 0 .45874 14.24524 5.3094 31.65608 10.77924 17.41084 5.46985 32.71084 10.99517 34 12.27851 2.06839 2.05904 2.34392 5.24328 2.34392 27.08765 0 14.19105-.57729 25.833-1.35284 27.28213-.92275 1.72418-6.75123 4.21815-18.33333 7.84476-19.71627 6.17359-23.26126 6.9267-25.65148 5.44946z" fill="#fb951d" />
    <path d="m167.78821 189.35833c-4.76921-1.24081-9.52261-2.78717-10.56309-3.43634-1.04048-.64919-2.49179-1.29207-3.22512-1.42863-.73333-.13657-3.43333-.63516-6-1.10797-2.56667-.47282-4.84544-1.36427-5.06393-1.98099-.2185-.61672-1.50078-.83273-2.84952-.48003s-2.85539-.0107-3.3481-.80821c-.4927-.79723-2.54042-1.44949-4.55047-1.44949-2.01006 0-4.22465-.56411-4.92131-1.25358-.69667-.68946-2.76667-1.53428-4.6-1.87736-1.83334-.34308-5.00415-1.27202-7.04625-2.06433-2.04211-.79231-4.14211-1.35225-4.66667-1.24431-.52456.108-1.85375-.15341-2.95375-.58081-3.76886-1.46433-12.666129-4.10867-14.666667-4.35905-3.05194-.38196-6.666666-2.12331-6.666666-3.21158 0-.5348 7.079868-3.18214 15.733043-5.88298l15.73304-4.91062 42.12345 13.35898c23.16789 7.34744 43.20803 13.35897 44.53363 13.35897 5.11908 0-.77104 2.96256-14.39132 7.23844l-13.93899 4.37592z" fill="#f28d19" />
    <path d="m183.33333 184.03921c-7.47646-2.1851-20.0876-5.98585-40.66666-12.25617-17.84898-5.43847-35.4164-10.61247-37.84708-11.14681-4.44614-.9774-3.79113-1.62179 4.49177-4.41898l8.12727-2.74461 42.28069 13.41567c23.25437 7.37862 43.15081 13.88837 44.21431 14.46609 1.33625.72589-.28319 1.70872-5.242 3.18133-3.9466 1.17202-7.21674 2.06583-7.26696 1.98627-.0503-.0796-3.69134-1.19683-8.09134-2.48279z" fill="#e98514" />
    <path d="m192 179.81496c-4.76667-1.45633-12.56667-3.82765-17.33333-5.2696-4.76667-1.44193-11.36667-3.44841-14.66667-4.45884-26.21107-8.0256-32.91548-10.00328-39.21786-11.56859-7.58159-1.883-9.76586-3.283-6.46776-4.14546 1.97206-.51571 77.73098 22.53532 89.68562 27.28848 4.97281 1.97718-4.00881.59552-12-1.84599z" fill="#e07e0e" />
  </g>
</svg>
