<svg height="48" width="48" xmlns="http://www.w3.org/2000/svg" xmlns:xlink="http://www.w3.org/1999/xlink"><linearGradient id="a"><stop offset="0" stop-color="#fc7816"/><stop offset="1" stop-color="#ffac01"/></linearGradient><linearGradient id="b" gradientTransform="matrix(.35600995 0 0 .3512235 240.525 893.33752)" gradientUnits="userSpaceOnUse" x1="-989.66583" x2="-1003.6364" y1="433.28394" y2="317.35452"><stop offset="0" stop-color="#292926"/><stop offset="1" stop-color="#484b4d"/></linearGradient><linearGradient id="c" gradientTransform="matrix(.35549809 0 0 .35079564 81.583509 925.45618)" gradientUnits="userSpaceOnUse" x1="-1092.9117" x2="-1060.2551" xlink:href="#a" y1="203.09911" y2="104.85291"/><linearGradient id="d" gradientUnits="userSpaceOnUse" x1="37.736294218274" x2="37.589489895448" xlink:href="#a" y1="1056.54039989872" y2="1039.02475237528"/><g transform="matrix(.91666199 0 0 .91666199 .366915 -920.167254)"><rect fill="url(#c)" height="40.214249" ry=".981484" transform="matrix(.94911544 -.31492838 .30720731 .95164262 0 0)" width="31.911476" x="-309.6644" y="964.93665"/><rect fill="url(#b)" height="43.171936" ry="1.053671" transform="matrix(.99210439 -.12541482 .1378126 .99045832 0 0)" width="35.538715" x="-131.75444" y="1004.4296"/><g fill-rule="evenodd" transform="matrix(.67731436 -.09548014 .10589125 .75116838 -70.494092 256.47316)"><g fill="#fff"><path d="m-34.260591 1005.781314h2v .999863h-2z" opacity=".8"/><path d="m-34.260591 1009.781214h2v .999863h-2z" opacity=".8"/><path d="m-34.260591 1007.781314h2v .999863h-2z" opacity=".8"/><path d="m-34.260591 1011.781214h2v .999863h-2z" opacity=".8"/><path d="m-34.260591 1015.781214h2v .999863h-2z" opacity=".8"/><path d="m-34.260591 1013.781214h2v .999863h-2z" opacity=".8"/><path d="m-34.260591 1017.781214h2v .999863h-2z" opacity=".8"/><path d="m-34.260591 1021.781214h2v .999863h-2z" opacity=".8"/><path d="m-34.260591 1019.781214h2v .999863h-2z" opacity=".8"/></g><path d="m-31.260591 1005.781114h9v .999863h-9z" fill="#f92672" opacity=".8"/><path d="m-21.260591 1005.781314h6v .999863h-6z" fill="#fff" opacity=".8"/><path d="m-14.260591 1005.781314h4v .999863h-4z" fill="#fff" opacity=".8"/><path d="m-31.260591 1007.781114h5v1.000017h-5z" fill="#fd971f" opacity=".8"/><path d="m-25.260591 1007.781114h2v1.000105h-2z" fill="#fff" opacity=".8"/><path d="m-22.260591 1007.781314h9v .999863h-9z" fill="#a6e22e" opacity=".8"/><path d="m-31.260591 1009.781114h7v .999863h-7z" fill="#f92672" opacity=".8"/><path d="m-23.260591 1009.781314h5v .999863h-5z" fill="#fd971f" opacity=".8"/><path d="m-17.260591 1009.781214h2v .999863h-2z" fill="#fff" opacity=".8"/><path d="m-29.260591 1011.781114h4v .999863h-4z" fill="#f92672" opacity=".8"/><path d="m-24.260591 1011.781314h10v .999863h-10z" fill="#a6e22e" opacity=".8"/><path d="m-13.260591 1011.781314h4v .999863h-4z" fill="#fff" opacity=".8"/><path d="m-29.260591 1013.781114h6v .999863h-6z" fill="#f92672" opacity=".8"/><path d="m-22.260591 1013.781314h6v .999863h-6z" fill="#66d9ef" opacity=".8"/><path d="m-15.260591 1013.781314h4v .999863h-4z" fill="#a6e22e" opacity=".8"/><path d="m-29.260591 1015.781114h2v .999863h-2z" fill="#f92672" opacity=".8"/><path d="m-26.260591 1015.781314h13v .999863h-13z" fill="#66d9ef" opacity=".8"/><path d="m-12.260591 1015.781314h5.5v.999863h-5.5z" fill="#fff" opacity=".8"/><path d="m-29.260591 1017.781114h3v .999863h-3z" fill="#f92672" opacity=".8"/><path d="m-25.260591 1017.781314h11v .999863h-11z" fill="#66d9ef" opacity=".8"/><path d="m-13.260591 1017.781314h4v .999863h-4z" fill="#fff" opacity=".8"/><rect fill="#fff" height="1.000017" opacity=".8" ry=".000017" width="2" x="-31.260591" y="1019.781114"/><path d="m-28.260591 1019.781314h8v .999863h-8z" fill="#66d9ef" opacity=".8"/><path d="m-19.260591 1019.781314h3v .999863h-3z" fill="#fd971f" opacity=".8"/><path d="m-31.260591 1021.781114h4v .999863h-4z" fill="#f92672" opacity=".8"/><path d="m-26.260591 1021.781314h11v .999863h-11z" fill="#a6e22e" opacity=".8"/><path d="m-14.260591 1021.781314h2.5v.999863h-2.5z" fill="#fff" opacity=".8"/><path d="m-31.260591 1011.781114h1v7h-1z" fill="#faffeb" opacity=".678899"/><path d="m-34.28725 1023.798019h2v .999863h-2z" fill="#fff" opacity=".8"/><path d="m-34.28725 1025.798019h2v .999863h-2z" fill="#fff" opacity=".8"/><path d="m-34.28725 1029.798019h2v .999863h-2z" fill="#fff" opacity=".8"/><path d="m-34.28725 1027.798019h2v .999863h-2z" fill="#fff" opacity=".8"/><path d="m-29.28725 1023.797819h2v .999863h-2z" fill="#f92672" opacity=".8"/><path d="m-26.28725 1023.798119h13v .999863h-13z" fill="#66d9ef" opacity=".8"/><path d="m-12.28725 1023.798119h5.5v.999863h-5.5z" fill="#fff" opacity=".8"/><path d="m-29.28725 1025.797819h3v .999863h-3z" fill="#f92672" opacity=".8"/><path d="m-25.28725 1025.798119h11v .999863h-11z" fill="#66d9ef" opacity=".8"/><path d="m-13.28725 1025.798119h4v .999863h-4z" fill="#fff" opacity=".8"/><rect fill="#fff" height="1.000017" opacity=".8" ry=".000017" width="2" x="-31.28725" y="1027.797819"/><path d="m-28.28725 1027.798119h8v .999863h-8z" fill="#66d9ef" opacity=".8"/><path d="m-19.28725 1027.798119h3v .999863h-3z" fill="#fd971f" opacity=".8"/><path d="m-31.28725 1029.797819h4v .999863h-4z" fill="#f92672" opacity=".8"/><path d="m-26.28725 1029.798119h11v .999863h-11z" fill="#a6e22e" opacity=".8"/><path d="m-14.28725 1029.798119h2.5v.999863h-2.5z" fill="#fff" opacity=".8"/></g><path d="m37.677038 1030.8302c-.522328 0-1.04421.065-1.547046.1726-2.011346.4255-3.780602 1.7051-4.035605 3.856-.167861 1.5377.287003 2.6441 1.066525 3.4027.77952.7585 1.846875 1.1826 2.914386 1.5158 1.06751.3331 2.144034.5757 2.937828.9082.396895.1672.719127.3548.937603.5685.209383.2048.3198.4309.353554.7227-.07638.6347-.334605 1.0323-.736409 1.295-.410299.2684-.981325.3962-1.613461.3986-1.264271 0-2.754521-.4967-3.531642-1.0274-.389649-.3137-.802823-.4493-1.191539-.3966-.395874.052-.733469.2806-1.029412.5762l-.02147.02-.01762.025c-.45231.6785-.458201 1.7627.347695 2.424h.002c1.529533 1.2623 4.197229 1.8137 6.557369 1.4065 1.18054-.2037 2.288635-.655 3.121443-1.4182.832805-.7632 1.376054-1.8458 1.414218-3.2308.03832-1.4558-.554396-2.4826-1.42594-3.1721-.871543-.6897-2.000071-1.0715-3.090187-1.3869-1.090116-.3157-2.149455-.5665-2.857739-.9201-.354142-.1762-.613283-.3769-.763757-.5978-.149374-.2192-.209778-.4625-.152359-.8204.09359-.4553.326044-.746.673903-.9531.349481-.2083.822591-.3183 1.3439-.3342 1.042615-.032 2.263592.32 2.959313.7618.738952.5275 1.625357.2667 2.056869-.3203.434988-.5916.418495-1.5419-.384808-2.1917h-.002-.004c-.760133-.5837-1.713213-.9677-2.728819-1.1524-.507802-.092-1.030579-.1366-1.552907-.1294z" fill="url(#d)"/></g></svg>