<svg height="48" width="48" xmlns="http://www.w3.org/2000/svg" xmlns:xlink="http://www.w3.org/1999/xlink">
  <linearGradient id="a" gradientTransform="matrix(.93656781 0 0 .94442665 143.00429 52.34307)" gradientUnits="userSpaceOnUse" x1="41.749325" x2="41.357147" y1="226.20387" y2="102.25676">
    <stop offset="0" stop-color="#3582ff" />
    <stop offset="1" stop-color="#36c5ff" />
  </linearGradient>
  <g fill="#687681" fill-rule="evenodd" transform="matrix(.3926701 -.03514643 .03605893 .38731709 7.183394 -55.574571)">
    <path d="m-23.525211 154.66937 47.828584.0363-.0419 55.16792-55.437374-.0422.0365-48.05392c.006-7.63847 7.21097-7.10853 7.61419-7.10821z" />
    <g transform="matrix(1.0014519 .00003763 .00003763 .95188387 .03653 11.689947)">
      <path d="m-23.87675 265.80577 47.759246.0362.044-57.95657-55.356996-.042-.03833 50.48297c-.0061 8.02458 7.189449 7.47907 7.59208 7.47936z" fill="#19416f" />
      <path d="m71.568966 150.27986-47.759241-.0362-.044 57.95657 55.356991.042.03835-50.48297c.0062-8.02458-7.189452-7.47907-7.592072-7.47936z" fill="#687681" />
      <path d="m71.368015 265.8766-47.75924-.0363.044-57.95657 55.35699.0421-.0383 50.48297c-.006 8.02458-7.2008 7.46814-7.60343 7.46782z" fill="#19416f" />
    </g>
  </g>
  <rect fill="url(#a)" height="121.89765" ry="8.041512" transform="matrix(.36105075 -.03258853 .0314661 .35518905 -50.437793 -44.433155)" width="120.8718" x="127.69567" y="148.01404" />
  <path d="m21.080569 9.222354.105404 1.204773-9.26928.810957-.07381-.843653-3.3699404.294832.2949683 3.371497 1.2032166-.105268.7793635 8.908159-1.2032171.105267.2948311 3.36994 1.203217-.105267.810957 9.269281-1.203217.105268.294832 3.369939 3.369939-.294832-.105267-1.203216 9.269282-.810956.105266 1.203216 3.371498-.294969-.10527-1.203214 9.308195-.814362.119023 1.360427 3.371495-.294967-.294831-3.369941-1.243687.10881-.824711-9.426494 1.203216-.105267-.294832-3.36994-1.203216.105267-.765745-8.752503 1.243688-.108809-.294832-3.3699394-3.371496.2949676.06006.6864404-9.308192.8143614-.105404-1.2047728zm1.047803.879211 1.444482-.1263758.0211.2412658.04398.502767.04018.459183.0211.241266-1.444482.126376-.0211-.241265-.04018-.459184-.04398-.502767zm-12.6091825 1.467045.2412657-.02111 1.2032168-.105268.07367.842096.0527.602386-.23971.02097-.9635065.0843-.2412657.0211zm25.3342215-2.0580415 1.164303-.1018633.280179-.024513.126375 1.4444828-.280179.02451-.963507.0843-.200796.01757-.06646-.759599zm-22.852559 2.6894655 7.501036-.656255c-4.09894 1.559469-7.118512 5.15986-7.942593 9.46733l-.624662-7.139913 1.203217-.105268zm14.407466-1.26049 7.541506-.659796.150615 1.721549 1.164302-.101863.611044 6.984258c-1.559355-4.099414-5.160225-7.120046-9.467467-7.944148zm-.784923 4.527828s.823424-.04694 1.859521 1.336768l1.134942 1.588379.665801-.439389-.586722 1.648032-.583609 1.647761-1.744699-.113999-1.744565-.112441.962405-.63473-2.014806-3.057909s-.797022-1.451576-2.022783-1.499724zm-4.718387.801786c.271964-.04414.575397-.01046.901436.156404 0 0 .679818.140455 1.431291 1.551471l-1.400908 2.793665-3.235453-1.610075.957322-1.929842s.530416-.82917 1.346312-.961623zm-.8075 5.09445.785905 1.560882.786042 1.562438-1.034343-.510231-1.618306 3.284795s-.850369 1.422986-.271901 2.503536l-2.372635-3.329317s-.457518-.685242.211582-2.278674l.794424-1.783839-.714608-.351556 1.71692-.329017zm10.410461-.226944 1.243723 1.756097s.845034 1.53264-.362664 2.362474c0 0-.444932.531396-2.043506.522278l-1.792557-2.561328zm-19.914585 2.710045.241265-.0211.504325-.04413.459182-.04018.23971-.02097.126376 1.444483-.23971.02097-.459183.04018-.504324.04413-.241265.0211zm25.279997-2.211713.241265-.0211.459183-.04018.504325-.04413.23971-.02097.126375 1.444483-.23971.02098-.504324.04413-.459183.04018-.241266.0211zm-9.665187 3.922929.100502 1.148737 3.648563-.319207s1.656333-.01206 2.281316-1.066952l-1.617787 3.756857s-.348442.746151-2.058144 1.000374l-1.937736.243249.06958.795397-1.170726-1.298216-1.172284-1.298081.929065-1.481926zm-6.355946 1.589695 3.118964-.20543.248054 3.606166-2.149621.151992s-1.747068-.07016-1.831265-1.533731c0 0-.223096-.657077.613868-2.018997zm-7.688719.76992c1.559567 4.099166 5.158239 7.118808 9.465775 7.942729l-7.501035.656255-.105267-1.203216-1.203217.105268zm24.316491-2.127416.67001 7.658246-1.164303.101864.09151 1.046003-7.539948.659661c4.098715-1.559371 7.118899-5.15809 7.942728-9.465774zm-24.780711 10.697363.241265-.0211.963507-.0843.241266-.0211.02097.23971.0843.963508-.0015.000138.0211.241265-1.444483.126376zm12.640776-1.105926 1.444483-.126375.02097.239709.04031.46074.04398.502768.0211.241265-1.444483.126376-.0211-.241266-.04398-.502767-.04032-.46074zm12.693445-.952117.200796-.01756.963506-.0843.28018-.02451.126376 1.444481-1.444482.126376-.03486-.398477-.08429-.963508z" fill="#142f4e" stroke-width=".07752" />
</svg>
