<svg height="48" width="48" xmlns="http://www.w3.org/2000/svg" xmlns:xlink="http://www.w3.org/1999/xlink"><linearGradient gradientUnits="userSpaceOnUse" x1="0" x2="47" y1="23.5" y2="23.5"><stop offset="0" stop-color="#a9a3d4"/><stop offset=".47001833" stop-color="#87baff"/><stop offset="1" stop-color="#89ec85"/></linearGradient><linearGradient id="a" gradientUnits="userSpaceOnUse" x1="209.5549" x2="202.58337" y1="385.20599" y2=".062832"><stop offset="0" stop-color="#8645a3"/><stop offset="1" stop-color="#d164ff"/></linearGradient><linearGradient id="b" gradientTransform="matrix(.24841536 0 0 .24427878 433.38377 517.17091)" gradientUnits="userSpaceOnUse" x1="10.09375" x2="122.719" y1="107.36093" y2="107.36093"><stop offset="0" stop-color="#1a1a1a"/><stop offset=".11054216" stop-color="#2c2c2e"/><stop offset=".29001436" stop-color="#2b2b2d"/><stop offset=".5118711" stop-color="#2a2b2d"/><stop offset=".75173318" stop-color="#2b2b2d"/><stop offset=".89659214" stop-color="#323232"/><stop offset="1" stop-color="#171717"/></linearGradient><linearGradient id="c" gradientUnits="userSpaceOnUse" x1="449.42804" x2="449.54932" y1="540.74573" y2="518.40662"><stop offset="0" stop-color="#b6b9bf"/><stop offset="1" stop-color="#dddfe2"/></linearGradient><linearGradient id="d" gradientTransform="matrix(.50539571 0 0 1 229.14839 2.166555)" gradientUnits="userSpaceOnUse" x1="451.02078" x2="451.02078" xlink:href="#e" y1="544.14978" y2="543.0885"/><linearGradient id="e"><stop offset="0" stop-color="#cf003b"/><stop offset="1" stop-color="#eb678d"/></linearGradient><linearGradient id="f" gradientUnits="userSpaceOnUse" x1="467.17453" x2="467.17453" y1="546.953375" y2="544.830825"><stop offset="0" stop-color="#040404"/><stop offset="1" stop-color="#121212" stop-opacity=".908163"/></linearGradient><linearGradient id="g" gradientUnits="userSpaceOnUse" x1="70.337623" x2="69.495489" xlink:href="#e" y1="81.701629" y2="16.72187"/><g fill="url(#a)" stroke-width="1.317422" transform="matrix(.366335725204 0 0 .366335749204 -1.86193046044 -5.185387573166)"><path d="m435.89128 541.07281.24841 3.91531c0 .40601.33238.73288.74525.73288h25.99045c.41287 0 .74526-.32687.74526-.73288l.24841-3.91531z" fill="url(#b)" transform="matrix(3.9022183 0 0 3.9022181 -1684.9414 -1984.5261)"/><path d="m438.12877 518.12187h23.25963c.41287 0 .74526.32687.74526.73287l1.739 22.0998c0 .406-.33237.73288-.74524.73288h-26.48903c-.41287 0-.74524-.32688-.74524-.73288l1.49038-22.09974c0-.406.33238-.73293.74524-.73293z" fill="url(#c)" transform="matrix(3.9022183 0 0 3.9022181 -1684.9414 -1984.5261)"/><rect fill="url(#d)" height=".768874" ry=".384437" transform="matrix(3.9022183 0 0 3.9022181 -1711.0066 -1992.7733)" width="11.463281" x="450.87326" y="545.61273"/><ellipse cx="467.08929" cy="546.02448" fill="url(#f)" opacity=".452" rx="1.06128" ry="1.061274" transform="matrix(3.9022183 0 0 3.9022181 -1711.0066 -1992.7733)"/><path d="m63 73.215c2.824 0 5.27-1.031 7.332-3.096 2.064-2.063 3.098-4.508 3.098-7.332v-52.144c0-2.825-1.033-5.269-3.098-7.332-2.062-2.065-4.507-3.097-7.332-3.097s-5.269 1.033-7.333 3.097c-2.064 2.063-3.096 4.508-3.096 7.332v52.144c0 2.824 1.032 5.269 3.096 7.332 2.064 2.065 4.509 3.096 7.333 3.096z" fill="#e3e8ea" opacity=".668" transform="matrix(.03309317 0 0 .03309317 109.58391 135.61805)"/><path d="m119.014 45.269c-4.373-8.744-10.523-16.077-18.453-21.997-2.281-1.738-4.861-2.417-7.74-2.037s-5.16 1.738-6.844 4.073c-1.738 2.281-2.403 4.847-1.996 7.699.406 2.853 1.752 5.147 4.033 6.885 5.321 4.019 9.438 8.935 12.342 14.747 2.906 5.811 4.358 12.004 4.358 18.575 0 5.65-1.1 11.04-3.299 16.173-2.2 5.133-5.174 9.573-8.922 13.321-3.748 3.747-8.187 6.721-13.32 8.921s-10.524 3.301-16.173 3.301c-5.648 0-11.039-1.101-16.172-3.301s-9.573-5.174-13.321-8.921c-3.747-3.748-6.721-8.188-8.921-13.321s-3.3-10.523-3.3-16.173c0-6.571 1.453-12.763 4.359-18.575 2.906-5.811 7.02-10.727 12.343-14.747 2.281-1.739 3.625-4.033 4.033-6.885.407-2.851-.258-5.418-1.996-7.699-1.684-2.335-3.951-3.693-6.803-4.073s-5.446.299-7.781 2.037c-7.931 5.92-14.081 13.253-18.454 21.997-4.373 8.745-6.559 18.06-6.559 27.945 0 8.474 1.657 16.566 4.97 24.279 3.314 7.713 7.767 14.366 13.362 19.961 5.594 5.594 12.248 10.049 19.961 13.36 7.713 3.314 15.806 4.972 24.279 4.972s16.566-1.658 24.279-4.972c7.713-3.312 14.367-7.766 19.961-13.36s10.047-12.248 13.361-19.961c3.313-7.713 4.969-15.806 4.969-24.279 0-9.885-2.183-19.2-6.556-27.945z" fill="#e3e8ea" opacity=".668" transform="matrix(.03309317 0 0 .03309317 109.58391 135.61805)"/><path d="m326.51355 199.0635c-17.58562-6.98403-28.03101-15.55568-39.48354-34.68471-2.81035-5.27019-7.97807-17.03162-7.78235-32.38338-.4574-15.30565 6.5487-32.941743 19.62411-42.353315 12.62681-9.933498 28.92161-10.081579 38.61492-6.158672 9.99897 4.097689 14.05398 10.923935 14.16834 10.598643-.30567.08496 5.35682 5.343018 7.88131 16.788884 2.81255 11.00161-.0439 29.23729-13.7901 36.70441-6.32221 3.74084-14.53337 4.41812-20.97212 1.74297-6.43875-2.86692-11.11169-9.16153-12.6686-15.73774-3.3931-14.51912 6.58608-22.56642 10.98854-23.39178 17.91108-6.59321 26.98206 24.34823 6.03413 26.97969 9.54817 3.51993 19.39102-7.2972 17.51965-18.3158-.37823-11.02103-12.46409-21.959541-25.79459-17.47587-3.48106 1.06083-8.75213 3.75783-12.8775 9.82426-4.23093 6.03001-6.15068 15.48043-3.95166 24.66624 2.14406 9.23679 8.66417 18.07789 17.74615 22.05178 9.17435 3.73598 19.38882 2.66787 27.8243-2.17751 18.00783-9.83396 21.61203-33.79622 18.03422-46.9802-3.15781-14.169551-10.13092-20.658367-9.77028-20.757896-.12974.385979-5.14573-8.032734-17.54164-13.142707-12.12104-4.879357-31.01948-4.534646-46.15099 7.178238-15.48555 10.962776-23.87484 32.504775-23.2657 49.866555-.20891 17.63122 5.74385 31.12592 8.99182 37.12437 13.09301 22.04208 28.09477 28.93144 46.62158 30.03354" fill="#a1a7ae" stroke="#909296" stroke-width=".603653" transform="matrix(.57548921 0 0 .46814822 -114.73213 19.719519)"/><g fill-rule="evenodd"><path d="m3002.1818-2197.0995 39.3048-129.1575c14.1356-55.5677 27.6067-44.3228 83.7808-44.3228h1023.7081l205.7436 238.2305-1282.836 10.121c-84.7668 1.0471-98.712 20.4591-69.7013-74.8712z" fill="#d10842" transform="matrix(.01621738 0 0 .01399082 -5.336407 84.10625)"/><path d="m6383.4495-2185.7915-34.2791-112.6428c-15.6733-76.792-25.9295-72.1455-99.058-72.1455h-1016.8978l-205.7436 238.2304 1274.6062 10.0561c77.2452-3.1881 109.8966 30.2339 81.3723-63.4982z" fill="#d10842" transform="matrix(.01621738 0 0 .01399082 -5.336407 84.10625)"/><path d="m3963.8055-4807.7305 34.554-106.6029c15.6733-76.792 25.9295-72.1455 99.058-72.1455l1016.8978.036 205.7436 238.2276-1318.0111-.0003c-61.5899 3.1273-58.9883 4.4886-38.2423-59.5149z" fill="#e60848" transform="matrix(.01621738 0 0 .01399082 -5.336407 84.10625)"/><path d="m5444.5468-4805.8007-34.554-106.6029c-15.6733-76.792-25.9295-72.1455-99.058-72.1455l-1016.8978.036-205.7436 238.2276 1318.0111-.0003c61.5899 3.1273 58.9883 4.4886 38.2423-59.5149z" fill="#e60848" transform="matrix(.01621738 0 0 .01399082 -5.336407 84.10625)"/></g><path d="m69.2374 82.349706-24.810192-25.484535s-3.680059-3.794297.818804-3.794297h13.480205v-4.416371-29.916957c-.08772-1.776285.01054-1.925522 1.737783-1.916546h21.003c1.493491-.165868 1.842105.04934 1.84128 1.631126v29.986478 4.632248l12.90441-.000027c4.15825-.000009 1.226724 3.172303 1.226724 3.172303s-21.108465 23.819718-24.052633 26.318775c-2.117733 1.811199-4.149381-.212197-4.149381-.212197z" fill="url(#g)"/></g></svg>