<svg height="48" viewBox="0 0 48 48" width="48" xmlns="http://www.w3.org/2000/svg" xmlns:xlink="http://www.w3.org/1999/xlink"><linearGradient id="a" gradientUnits="userSpaceOnUse" x1="44.670544" x2="47.061718" y1="132.29518" y2="-1.974026"><stop offset="0" stop-color="#566069"/><stop offset="1" stop-color="#6c7884"/></linearGradient><path d="m37.393 64.549782 39.595-39.596c2.011-2.01 3.015-4.468 3.015-7.374s-1.004-5.363-3.015-7.373l-6.11-6.1110002c-2.009-2.009-4.467-3.014-7.372-3.014-2.906 0-5.363 1.005-7.374 3.014l-53.12 53.0390002c-2.01 2.01-3.015 4.468-3.015 7.374s1.005 5.363 3.015 7.373l53.12 53.038998c2.011 2.01 4.468 3.015 7.374 3.015 2.905 0 5.363-1.005 7.372-3.015l6.11-6.11c2.011-2.009 3.015-4.454 3.015-7.333 0-2.878-1.004-5.35-3.015-7.414zm138.47748-.0563a128.00961 128.00961 0 0 1 -128.009609 128.009608 128.00961 128.00961 0 0 1 -128.009605-128.00961 128.00961 128.00961 0 0 1 128.009605-128.009606 128.00961 128.00961 0 0 1 128.009609 128.009606z" fill="url(#a)" transform="matrix(.179674016 0 0 .179674016 15.400640481356 12.412194845703)"/></svg>