<?xml version="1.0" encoding="UTF-8" standalone="no"?>
<!-- Created with Inkscape (http://www.inkscape.org/) -->

<svg
   xmlns:dc="http://purl.org/dc/elements/1.1/"
   xmlns:cc="http://creativecommons.org/ns#"
   xmlns:rdf="http://www.w3.org/1999/02/22-rdf-syntax-ns#"
   xmlns:svg="http://www.w3.org/2000/svg"
   xmlns="http://www.w3.org/2000/svg"
   xmlns:xlink="http://www.w3.org/1999/xlink"
   xmlns:sodipodi="http://sodipodi.sourceforge.net/DTD/sodipodi-0.dtd"
   xmlns:inkscape="http://www.inkscape.org/namespaces/inkscape"
   width="48"
   height="48"
   id="svg5453"
   version="1.1"
   inkscape:version="0.91 r13725"
   sodipodi:docname="preferences-system.svg"
   viewBox="0 0 48 48">
  <defs
     id="defs5455">
    <linearGradient
       inkscape:collect="always"
       id="linearGradient6261">
      <stop
         style="stop-color:#9fb0b8;stop-opacity:1"
         offset="0"
         id="stop6263" />
      <stop
         style="stop-color:#cedbe0;stop-opacity:1"
         offset="1"
         id="stop6265" />
    </linearGradient>
    <linearGradient
       inkscape:collect="always"
       id="linearGradient4180">
      <stop
         style="stop-color:#97a9b1;stop-opacity:1"
         offset="0"
         id="stop4182" />
      <stop
         style="stop-color:#cfdce1;stop-opacity:1"
         offset="1"
         id="stop4184" />
    </linearGradient>
    <linearGradient
       inkscape:collect="always"
       id="linearGradient4159">
      <stop
         style="stop-color:#1d1e1e;stop-opacity:1"
         offset="0"
         id="stop4161" />
      <stop
         style="stop-color:#44484c;stop-opacity:1"
         offset="1"
         id="stop4163" />
    </linearGradient>
    <linearGradient
       inkscape:collect="always"
       xlink:href="#linearGradient4180"
       id="linearGradient4186"
       x1="469.57144"
       y1="542.79797"
       x2="469.57144"
       y2="503.798"
       gradientUnits="userSpaceOnUse"
       gradientTransform="matrix(1.0327496,0,0,1.0327496,-74.532597,-15.724962)" />
    <linearGradient
       inkscape:collect="always"
       xlink:href="#linearGradient4159"
       id="linearGradient4196"
       x1="544.57141"
       y1="547.79797"
       x2="544.57141"
       y2="517.79797"
       gradientUnits="userSpaceOnUse"
       gradientTransform="matrix(1.1731245,0,0,1.1731245,-228.51427,-101.938)" />
    <linearGradient
       inkscape:collect="always"
       xlink:href="#linearGradient4159"
       id="linearGradient4746"
       x1="364.57144"
       y1="521.79797"
       x2="366.57144"
       y2="521.79797"
       gradientUnits="userSpaceOnUse"
       gradientTransform="translate(42.741222,2.4678994)" />
    <linearGradient
       inkscape:collect="always"
       xlink:href="#linearGradient6261"
       id="linearGradient6267"
       x1="408.57144"
       y1="536.79797"
       x2="408.57144"
       y2="510.798"
       gradientUnits="userSpaceOnUse"
       gradientTransform="translate(-0.89947041,0)" />
  </defs>
  <sodipodi:namedview
     id="base"
     pagecolor="#5a5a5a"
     bordercolor="#666666"
     borderopacity="1.0"
     inkscape:pageopacity="0"
     inkscape:pageshadow="2"
     inkscape:zoom="6.0572305"
     inkscape:cx="-5.8024836"
     inkscape:cy="25.118231"
     inkscape:document-units="px"
     inkscape:current-layer="layer1"
     showgrid="false"
     fit-margin-top="0"
     fit-margin-left="0"
     fit-margin-right="0"
     fit-margin-bottom="0"
     inkscape:window-width="1366"
     inkscape:window-height="642"
     inkscape:window-x="0"
     inkscape:window-y="33"
     inkscape:window-maximized="1"
     inkscape:showpageshadow="false"
     borderlayer="true"
     showguides="false"
     showborder="false">
    <inkscape:grid
       type="xygrid"
       id="grid4063" />
    <sodipodi:guide
       position="1.1650391e-05,47.999996"
       orientation="4,0"
       id="guide4146" />
    <sodipodi:guide
       position="1.1650391e-05,43.999996"
       orientation="0,48"
       id="guide4148" />
    <sodipodi:guide
       position="48.000012,61"
       orientation="-4,0"
       id="guide4150" />
    <sodipodi:guide
       position="48.000012,47.999996"
       orientation="0,-48"
       id="guide4152" />
    <sodipodi:guide
       position="1.1650391e-05,4.0000264"
       orientation="4,0"
       id="guide4154" />
    <sodipodi:guide
       position="1.1650391e-05,2.6367188e-05"
       orientation="0,48"
       id="guide4156" />
    <sodipodi:guide
       position="48.000012,2.6367188e-05"
       orientation="-4,0"
       id="guide4158" />
    <sodipodi:guide
       position="48.000012,4.0000264"
       orientation="0,-48"
       id="guide4160" />
    <sodipodi:guide
       position="48.000012,48.000026"
       orientation="0,-4"
       id="guide4162" />
    <sodipodi:guide
       position="44.000012,48.000026"
       orientation="48,0"
       id="guide4164" />
    <sodipodi:guide
       position="44.000012,2.6367188e-05"
       orientation="0,4"
       id="guide4166" />
    <sodipodi:guide
       position="48.000012,2.6367188e-05"
       orientation="-48,0"
       id="guide4168" />
    <sodipodi:guide
       position="4.0000422,48.000026"
       orientation="0,-4"
       id="guide4170" />
    <sodipodi:guide
       position="4.2167969e-05,48.000026"
       orientation="48,0"
       id="guide4172" />
    <sodipodi:guide
       position="4.2167969e-05,2.6367188e-05"
       orientation="0,4"
       id="guide4174" />
  </sodipodi:namedview>
  <metadata
     id="metadata5458">
    <rdf:RDF>
      <cc:Work
         rdf:about="">
        <dc:format>image/svg+xml</dc:format>
        <dc:type
           rdf:resource="http://purl.org/dc/dcmitype/StillImage" />
        <dc:title></dc:title>
      </cc:Work>
    </rdf:RDF>
  </metadata>
  <g
     inkscape:label="Capa 1"
     inkscape:groupmode="layer"
     id="layer1"
     transform="translate(-384.57143,-499.798)">
    <g
       id="g4271"
       transform="matrix(1.0793511,0,0,1.0793511,-32.352349,-41.504405)">
      <rect
         ry="2.685149"
         y="504.3902"
         x="386.28745"
         height="38.820816"
         width="44.471165"
         id="rect4178"
         style="opacity:1;fill:url(#linearGradient4186);fill-opacity:1;stroke:none;stroke-width:2;stroke-linecap:round;stroke-linejoin:round;stroke-miterlimit:4;stroke-dasharray:none;stroke-opacity:1" />
      <g
         transform="translate(0.29999268,0)"
         id="g4270">
        <circle
           style="opacity:1;fill:url(#linearGradient4196);fill-opacity:1;stroke:none;stroke-width:2;stroke-linecap:round;stroke-linejoin:round;stroke-miterlimit:4;stroke-dasharray:none;stroke-opacity:1"
           id="path4188"
           cx="408.39868"
           cy="523.94586"
           r="15.491244" />
        <path
           d="m 421.49116,523.56683 c -0.47527,-0.0761 -0.95267,-0.13871 -1.42622,-0.22408 -0.1007,-0.0182 -0.23614,-0.0904 -0.27142,-0.17345 -0.0739,-0.17363 -0.0925,-0.3708 -0.13267,-0.5588 -0.0208,-0.098 -0.0153,-0.21033 -0.0634,-0.29222 -0.11462,-0.19547 0.004,-0.30984 0.12448,-0.4209 0.0555,-0.0514 0.1365,-0.0774 0.20787,-0.10915 0.42689,-0.18819 0.8561,-0.37141 1.28109,-0.56363 0.23528,-0.10649 0.2888,-0.23711 0.22152,-0.48291 -0.0229,-0.0828 -0.0431,-0.16655 -0.0687,-0.24862 -0.0711,-0.22688 -0.14948,-0.30743 -0.34182,-0.30743 -0.0376,0 -0.0796,0.002 -0.12676,0.009 -0.43533,0.0526 -0.8703,0.10709 -1.30495,0.16305 -0.0637,0.008 -0.11887,0.0135 -0.16726,0.0135 -0.20311,0 -0.2883,-0.0828 -0.40213,-0.33386 -0.11146,-0.24581 -0.22444,-0.49092 -0.33092,-0.73897 -0.0165,-0.0389 -0.02,-0.10419 0.001,-0.13469 0.07,-0.098 0.14305,-0.19906 0.23511,-0.27472 0.36742,-0.30139 0.743,-0.5922 1.11376,-0.88924 0.15154,-0.12152 0.2494,-0.25265 0.0877,-0.44505 -0.0726,-0.0864 -0.11754,-0.19664 -0.17767,-0.29412 -0.0953,-0.15406 -0.15583,-0.21913 -0.25638,-0.21913 -0.056,0 -0.12434,0.0201 -0.21797,0.0562 -0.44309,0.17074 -0.88497,0.34517 -1.32585,0.5207 -0.0752,0.0297 -0.14759,0.0471 -0.21622,0.0471 -0.10794,0 -0.20629,-0.043 -0.29135,-0.14758 -0.14536,-0.17919 -0.29661,-0.35564 -0.42138,-0.54871 -0.2217,-0.34244 -0.21405,-0.3549 0.0331,-0.69086 0.32028,-0.4355 0.64094,-0.87052 0.97658,-1.32665 -0.15253,-0.14329 -0.30077,-0.27955 -0.44555,-0.41948 -0.12247,-0.11826 -0.19215,-0.17565 -0.2686,-0.17565 -0.0676,0 -0.14085,0.0451 -0.26067,0.13295 -0.38323,0.28122 -0.76344,0.56639 -1.14703,0.84722 -0.0883,0.0644 -0.17759,0.0968 -0.26677,0.0968 -0.091,0 -0.18201,-0.0338 -0.27179,-0.10172 -0.17228,-0.1304 -0.35509,-0.25063 -0.51246,-0.39755 -0.13013,-0.12179 -0.27583,-0.28646 -0.21215,-0.47044 0.19528,-0.56613 0.42273,-1.12134 0.64889,-1.71011 -0.15699,-0.0953 -0.3429,-0.21558 -0.53593,-0.32346 -0.10892,-0.0609 -0.18329,-0.0934 -0.24652,-0.0934 -0.0841,0 -0.14856,0.0573 -0.24843,0.18146 -0.26177,0.32548 -0.51454,0.65862 -0.77973,0.9811 -0.0947,0.11474 -0.19924,0.23998 -0.32786,0.30354 -0.0243,0.0122 -0.0568,0.0176 -0.0953,0.0176 -0.29887,0 -0.96257,-0.33367 -1.04569,-0.53366 -0.002,-0.007 -0.002,-0.0144 -0.007,-0.0207 -0.11997,-0.21144 -0.0675,-0.43302 -0.0395,-0.653 0.0503,-0.39657 0.10028,-0.79346 0.16158,-1.27541 -0.14331,-0.0509 -0.34395,-0.13334 -0.55129,-0.1924 -0.11061,-0.0316 -0.19258,-0.0499 -0.25753,-0.0499 -0.14299,0 -0.2028,0.0886 -0.30218,0.31845 -0.18025,0.41686 -0.36298,0.83248 -0.54261,1.24971 -0.0713,0.16464 -0.18452,0.27939 -0.35942,0.27939 -0.0122,0 -0.0233,-5.1e-4 -0.0355,-10e-4 -0.25755,-0.0214 -0.51338,-0.0668 -0.76896,-0.10685 -0.17241,-0.0267 -0.26292,-0.14128 -0.28982,-0.30599 -0.06,-0.36781 -0.12556,-0.73513 -0.17155,-1.10483 -0.0822,-0.65703 -0.029,-0.71464 -0.62823,-0.71464 -0.0597,0 -0.12598,6.2e-4 -0.19931,0.001 -0.2521,0.002 -0.35038,0.0797 -0.39216,0.33434 -0.0758,0.46175 -0.14279,0.92534 -0.211,1.38826 -0.0459,0.31275 -0.14256,0.40675 -0.45765,0.43678 -0.15736,0.015 -0.31478,0.0322 -0.4716,0.0522 -0.0663,0.008 -0.12285,0.0136 -0.17191,0.0136 -0.19351,0 -0.27197,-0.0776 -0.37985,-0.32316 -0.17601,-0.40095 -0.34225,-0.80614 -0.5151,-1.20887 -0.0936,-0.21808 -0.16265,-0.30107 -0.30902,-0.30107 -0.0589,0 -0.13027,0.0135 -0.22074,0.0369 -0.0964,0.0251 -0.19312,0.0516 -0.28896,0.079 -0.33349,0.0948 -0.39086,0.19608 -0.34383,0.5272 0.0637,0.44705 0.11389,0.8959 0.16727,1.34426 0.0263,0.22101 -0.0608,0.37759 -0.27357,0.4593 -0.12757,0.0489 -0.25381,0.10131 -0.37954,0.15436 -0.18202,0.0773 -0.30409,0.12057 -0.4039,0.12057 -0.15204,0 -0.25246,-0.10038 -0.4344,-0.33436 -0.26135,-0.33552 -0.52829,-0.66662 -0.79024,-1.00123 -0.0747,-0.0954 -0.15529,-0.14697 -0.24683,-0.14697 -0.0569,0 -0.11802,0.0199 -0.18446,0.0613 -0.15229,0.0952 -0.316,0.17229 -0.46126,0.27615 -0.11243,0.0801 -0.26287,0.17795 -0.0469,0.32247 0.0354,0.0236 0.0451,0.0883 0.0635,0.13486 0.1433,0.36189 0.28561,0.724 0.42877,1.08611 0.12678,0.32128 0.0524,0.58438 -0.22603,0.79735 -0.0975,0.0745 -0.19578,0.14775 -0.29241,0.22298 -0.16678,0.12999 -0.2774,0.19461 -0.38956,0.19461 -0.11098,0 -0.2233,-0.0634 -0.39272,-0.18973 -0.3522,-0.26268 -0.70105,-0.53043 -1.06103,-0.78196 -0.0621,-0.0433 -0.17356,-0.0857 -0.24568,-0.0857 -0.0228,0 -0.0415,0.004 -0.0537,0.0139 -0.23559,0.18881 -0.44378,0.41135 -0.64663,0.607 0.0962,0.10131 0.15417,0.15137 0.19901,0.21143 0.2672,0.35834 0.53109,0.71904 0.79614,1.07853 0.17816,0.24232 0.17799,0.48291 -0.004,0.72516 -0.10406,0.13854 -0.20928,0.2757 -0.31529,0.41272 -0.12771,0.16438 -0.21906,0.23747 -0.34938,0.23747 -0.0714,0 -0.1548,-0.022 -0.2623,-0.063 -0.45107,-0.17175 -0.89948,-0.34991 -1.34739,-0.52879 -0.0549,-0.0219 -0.10929,-0.0372 -0.15999,-0.0372 -0.0651,0 -0.12382,0.0253 -0.16875,0.0945 -0.14628,0.22621 -0.2768,0.46253 -0.41001,0.6876 0.50455,0.40517 0.98129,0.78503 1.45404,1.17008 0.0832,0.0679 0.13201,0.14574 0.0762,0.27719 -0.10018,0.23612 -0.15802,0.48975 -0.2538,0.72808 -0.11328,0.28189 -0.21486,0.37454 -0.43875,0.37454 -0.0618,0 -0.13268,-0.007 -0.2157,-0.0191 -0.43387,-0.0631 -0.87079,-0.10478 -1.30599,-0.16006 -0.0248,-0.002 -0.0482,-0.005 -0.0705,-0.005 -0.17473,0 -0.27649,0.0961 -0.32176,0.28003 -0.0275,0.11134 -0.0621,0.22085 -0.0923,0.33155 -0.0745,0.27215 -0.064,0.30371 0.20029,0.42511 0.26689,0.12275 0.53886,0.23443 0.80827,0.35185 0.2039,0.0886 0.41522,0.16501 0.60785,0.27394 0.0973,0.055 0.23161,0.17515 0.22624,0.2574 -0.0214,0.31039 -0.0953,0.61716 -0.14538,0.92571 -0.0307,0.19105 -0.14618,0.29007 -0.32928,0.31784 -0.39748,0.0604 -0.79684,0.10952 -1.19277,0.17876 -0.53123,0.0926 -0.63373,0.0159 -0.599,0.67208 7.9e-4,0.0145 0,0.0289 0,0.0433 1.9e-4,0.25106 0.0924,0.36457 0.33674,0.40125 0.32703,0.0492 0.6557,0.0917 0.98282,0.13964 0.17805,0.0264 0.36598,0.031 0.52933,0.0958 0.1261,0.0498 0.27871,0.15926 0.3168,0.27593 0.0578,0.17713 0.0257,0.38342 0.0332,0.57717 0.0214,0.54747 0.0534,0.54974 -0.42726,0.75581 -0.31748,0.13583 -0.63165,0.27947 -0.95101,0.41122 -0.61196,0.25197 -0.46543,0.29087 -0.34843,0.72448 0.0886,0.32898 0.1987,0.40555 0.38383,0.40555 0.0635,0 0.13577,-0.009 0.21894,-0.02 0.43466,-0.0567 0.86993,-0.11122 1.30599,-0.15363 0.0279,-0.002 0.0544,-0.004 0.0797,-0.004 0.21405,0 0.33967,0.0981 0.4327,0.30869 0.0758,0.17055 0.14849,0.34229 0.21577,0.51623 0.13613,0.35153 0.0941,0.54167 -0.13858,0.72026 -0.38537,0.29624 -0.76805,0.59587 -1.15005,0.8967 -0.1145,0.0903 -0.16022,0.19461 -0.0661,0.33449 0.0839,0.12475 0.15493,0.25864 0.22856,0.39037 0.0566,0.10141 0.12206,0.1529 0.21161,0.1529 0.0417,0 0.0891,-0.0109 0.1431,-0.0341 0.44322,-0.1864 0.89219,-0.35998 1.34177,-0.53068 0.0986,-0.0373 0.1828,-0.0567 0.25846,-0.0567 0.15284,0 0.27031,0.0788 0.4001,0.24592 0.11474,0.14788 0.22947,0.296 0.33802,0.44828 0.1696,0.23809 0.1696,0.4587 0.001,0.68878 -0.20892,0.28622 -0.42226,0.56885 -0.63171,0.85495 -0.39479,0.53904 -0.43729,0.40957 0.0621,0.92373 0.0822,0.0848 0.15649,0.12516 0.23337,0.12516 0.0705,0 0.14342,-0.0342 0.22671,-0.0998 0.35668,-0.28071 0.72413,-0.54767 1.09138,-0.815 0.13335,-0.0969 0.24231,-0.14512 0.35056,-0.14512 0.11036,0 0.22005,0.0499 0.35447,0.14878 0.1392,0.10225 0.27614,0.20766 0.41344,0.3123 0.23075,0.17582 0.30818,0.44554 0.19913,0.72491 -0.17227,0.44064 -0.34628,0.88042 -0.52877,1.31674 -0.0547,0.13106 -0.0306,0.22336 0.0821,0.29436 0.13349,0.0838 0.27014,0.16305 0.40873,0.23846 0.0693,0.0379 0.13268,0.0567 0.19088,0.0567 0.10224,0 0.18891,-0.0581 0.26548,-0.17382 0.0413,-0.0624 0.0858,-0.12299 0.13307,-0.18113 0.2378,-0.29234 0.49111,-0.57361 0.71067,-0.87874 0.11329,-0.15754 0.22164,-0.24849 0.36775,-0.24849 0.0483,0 0.1009,0.009 0.15896,0.0307 0.23662,0.0839 0.46951,0.17975 0.69764,0.28499 0.19736,0.0916 0.30114,0.34379 0.27214,0.53944 -0.0652,0.44021 -0.13134,0.88178 -0.16739,1.32493 -0.0295,0.3628 -0.007,0.36996 0.34519,0.46457 0.0936,0.0255 0.19056,0.0771 0.28065,0.0771 0.009,0 0.0188,-4.9e-4 0.0281,-10e-4 0.11328,-0.015 0.27534,-0.0658 0.31685,-0.1501 0.20771,-0.42077 0.38574,-0.85652 0.56872,-1.28897 0.12448,-0.29478 0.21228,-0.39252 0.43876,-0.39252 0.0546,0 0.11729,0.005 0.19044,0.0157 0.11389,0.0159 0.23026,0.023 0.34176,0.0497 0.16427,0.0397 0.35686,0.0546 0.4774,0.15339 0.10162,0.0835 0.13956,0.26709 0.16801,0.41374 0.0724,0.37381 0.13145,0.75091 0.18249,1.12855 0.0602,0.44652 0.0739,0.47527 0.50035,0.47527 0.0122,0 0.0242,0 0.0368,0 0.0504,-2.4e-4 0.101,-0.005 0.15154,-0.007 0.28953,-0.0109 0.31448,-0.0503 0.35407,-0.34989 0.0597,-0.45294 0.13065,-0.90496 0.21472,-1.35387 0.0579,-0.30965 0.19913,-0.42286 0.50162,-0.45723 0.15008,-0.0168 0.30035,-0.0313 0.45044,-0.0497 0.0747,-0.009 0.13931,-0.0143 0.1965,-0.0143 0.25069,0 0.35202,0.10028 0.4857,0.40529 0.18221,0.4157 0.36427,0.83177 0.54715,1.2471 0.0413,0.094 0.0855,0.19363 0.1946,0.19363 0.0163,0 0.0335,-0.002 0.0527,-0.007 0.20151,-0.0493 0.40296,-0.10224 0.59679,-0.17395 0.0556,-0.0205 0.12354,-0.11449 0.11947,-0.16982 -0.043,-0.56011 -0.10235,-1.11891 -0.1513,-1.67862 -0.0181,-0.20703 0.11146,-0.32947 0.2806,-0.40905 0.1754,-0.0825 0.35753,-0.15062 0.53684,-0.22444 0.1185,-0.0487 0.21407,-0.0749 0.29883,-0.0748 0.14568,0 0.25943,0.0771 0.4009,0.24854 0.2201,0.26707 0.42903,0.54314 0.64888,0.81023 0.24445,0.29686 0.30587,0.43313 0.42158,0.43313 0.0948,0 0.22604,-0.0915 0.52437,-0.26122 0.17706,-0.10069 0.21125,-0.19938 0.12623,-0.39563 -0.19346,-0.44543 -0.35717,-0.9041 -0.52591,-1.36005 -0.0436,-0.1179 -0.13667,-0.35577 0.0201,-0.47484 0.0181,-0.0138 0.15736,-0.10018 0.21075,-0.15002 0.099,-0.093 0.21693,-0.16605 0.3242,-0.25131 0.17773,-0.14121 0.30176,-0.21166 0.42823,-0.21166 0.12408,0 0.25075,0.0678 0.43253,0.20316 0.35282,0.26231 0.7087,0.52059 1.05717,0.78792 0.0675,0.052 0.12879,0.0802 0.18801,0.0802 0.0626,0 0.12261,-0.0318 0.18475,-0.10141 0.0913,-0.10173 0.18134,-0.21167 0.29242,-0.28738 0.1765,-0.12033 0.15252,-0.22593 0.0378,-0.37557 -0.28868,-0.37603 -0.56591,-0.76113 -0.84547,-1.14399 -0.18855,-0.25894 -0.18561,-0.40983 0.005,-0.65781 0.11292,-0.14813 0.23368,-0.29179 0.33764,-0.44629 0.13608,-0.20206 0.22875,-0.29037 0.37491,-0.29026 0.0807,0 0.17737,0.0267 0.30666,0.0762 0.44274,0.16945 0.88607,0.33875 1.32402,0.52033 0.0472,0.0195 0.0904,0.0286 0.12959,0.0286 0.10028,0 0.17711,-0.0574 0.24482,-0.14062 0.0658,-0.0813 0.1049,-0.18444 0.15753,-0.27661 0.12489,-0.21805 0.1043,-0.32542 -0.0994,-0.48939 -0.34413,-0.27608 -0.6914,-0.54891 -1.03438,-0.8265 -0.17748,-0.14374 -0.33575,-0.31271 -0.25747,-0.56272 0.0679,-0.21717 0.1663,-0.4261 0.26555,-0.63165 0.0555,-0.11522 0.11752,-0.26654 0.21761,-0.31216 0.10007,-0.0455 0.22065,-0.061 0.33961,-0.061 0.0471,0 0.094,0.002 0.13909,0.007 0.43709,0.038 0.87246,0.10069 1.30866,0.14941 0.0295,0.004 0.058,0.005 0.0851,0.005 0.13321,0 0.23063,-0.0493 0.24848,-0.23974 0.0137,-0.15039 0.0571,-0.30942 0.13013,-0.44065 0.13872,-0.24879 -0.0343,-0.30352 -0.1982,-0.37484 -0.42238,-0.18434 -0.84742,-0.36334 -1.26778,-0.55172 -0.26457,-0.11898 -0.39594,-0.36585 -0.36242,-0.65433 0.0174,-0.14977 0.0394,-0.29943 0.0578,-0.44946 0.0344,-0.27807 0.1468,-0.40818 0.42623,-0.4549 0.46156,-0.0776 0.9232,-0.15419 1.38732,-0.21019 0.20042,-0.0242 0.32623,-0.0973 0.34958,-0.30189 0.0195,-0.17045 0.035,-0.34272 0.0354,-0.51403 0,-0.0626 -0.0313,-0.15038 -0.0783,-0.18214 -0.0734,-0.0503 -0.17062,-0.0737 -0.26095,-0.0884 z m -15.09813,-8.52192 c 0.36817,-0.11838 0.76124,-0.1749 1.14771,-0.21673 0.30072,-0.0326 0.60497,-0.0512 0.90814,-0.0512 0.0995,0 0.19895,0.002 0.29798,0.007 1.92435,0.0806 3.67139,0.67568 5.22637,1.82386 1.07387,0.79268 1.9424,1.76694 2.58865,2.93129 0.22624,0.40726 0.44458,0.83353 0.56836,1.27833 0.10502,0.37645 0.12918,0.80033 0.0774,1.18838 -0.0468,0.34647 -0.34066,0.58897 -0.68791,0.68858 -0.25566,0.0733 -0.52554,0.1253 -0.79042,0.13068 -0.35852,0.007 -0.71734,0.009 -1.07614,0.009 -0.45589,0 -0.91208,-0.002 -1.36776,-0.002 -0.49155,0 -0.98325,0.008 -1.47468,0.008 -0.35929,0 -0.71842,-0.004 -1.07724,-0.0181 -0.3738,-0.015 -0.75886,-0.10214 -1.11131,-0.23156 -0.58546,-0.21472 -0.96479,-0.68259 -1.27264,-1.20751 -0.61814,-1.05389 -1.24355,-2.10363 -1.84621,-3.16625 -0.30567,-0.53886 -0.5996,-1.08857 -0.84228,-1.6574 -0.30176,-0.7075 0.0614,-1.29608 0.73207,-1.51203 z m -1.20324,12.11641 c -0.14036,0.25118 -0.30786,0.48719 -0.44744,0.73867 -0.28935,0.52126 -0.55946,1.05328 -0.85468,1.57105 -0.24233,0.42476 -0.47857,0.86533 -0.91158,1.13279 -0.17375,0.1077 -0.38138,0.16077 -0.57386,0.239 -0.47189,-0.0596 -0.8197,-0.29741 -1.10659,-0.60944 -0.48744,-0.52878 -0.92779,-1.11004 -1.19347,-1.77485 -0.31631,-0.79046 -0.57342,-1.61018 -0.78338,-2.43594 -0.20824,-0.81825 -0.25429,-1.66621 -0.22739,-2.513 0.0311,-0.97787 0.26574,-1.91239 0.61428,-2.82059 0.0889,-0.23227 0.17761,-0.46866 0.30176,-0.68258 0.28573,-0.49136 0.57044,-0.9865 0.89965,-1.44825 0.20685,-0.29008 0.46658,-0.55978 0.75103,-0.77373 0.25675,-0.19306 0.51122,-0.28157 0.75182,-0.28157 0.37949,0 0.72412,0.22023 0.98778,0.5974 0.3703,0.5286 0.68799,1.09457 1.01456,1.65239 0.52749,0.90093 1.04515,1.80735 1.56217,2.71428 0.12301,0.2156 0.25804,0.43222 0.33308,0.66566 0.0807,0.25057 0.10551,0.5207 0.14079,0.78424 0.0839,0.63041 -0.10245,1.19064 -0.42653,1.7281 -0.29686,0.49336 -0.55073,1.01285 -0.832,1.51637 z m 12.06582,-0.26697 c -0.0377,0.0885 -0.0449,0.19101 -0.0627,0.28763 -0.19081,1.04155 -0.75218,1.89765 -1.38571,2.71002 -0.28159,0.36107 -0.60371,0.69279 -0.92779,1.01828 -0.84595,0.85067 -1.84504,1.47407 -2.95404,1.92112 -0.67445,0.27192 -1.36847,0.48586 -2.09608,0.56028 -0.47764,0.0489 -0.95811,0.12905 -1.43515,0.12905 -0.0505,0 -0.101,-10e-4 -0.15125,-0.002 -0.66155,-0.0255 -1.33675,-0.0372 -1.96209,-0.33075 -0.348,-0.16342 -0.62443,-0.38689 -0.70364,-0.77488 -0.087,-0.42274 -0.0471,-0.83078 0.2551,-1.17553 0.0134,-0.0153 0.0245,-0.0351 0.0301,-0.0547 0.0892,-0.30953 0.32562,-0.53134 0.47809,-0.80428 0.56167,-1.00651 1.15057,-1.99825 1.72705,-2.99618 0.17087,-0.29625 0.31343,-0.61146 0.50639,-0.89145 0.47564,-0.68981 1.14655,-1.04961 1.98589,-1.06036 0.35656,-0.004 0.71305,-0.005 1.06948,-0.005 0.55834,0 1.11676,0.002 1.67539,0.002 0.52762,0 1.05536,-0.007 1.58314,-0.007 0.36616,0 0.7324,0.002 1.09817,0.014 0.49667,0.0145 0.98265,0.15039 1.19761,0.6668 0.0996,0.2392 0.19175,0.51332 0.0721,0.793 z"
           id="path17"
           style="fill:url(#linearGradient6267);fill-opacity:1"
           inkscape:connector-curvature="0" />
        <circle
           style="opacity:1;fill:url(#linearGradient4746);fill-opacity:1;stroke:none;stroke-width:2;stroke-linecap:round;stroke-linejoin:round;stroke-miterlimit:4;stroke-dasharray:none;stroke-opacity:1"
           id="path4738"
           cx="408.31268"
           cy="524.26587"
           r="1" />
      </g>
    </g>
  </g>
</svg>
