<svg height="48" width="48" xmlns="http://www.w3.org/2000/svg" xmlns:xlink="http://www.w3.org/1999/xlink">
  <linearGradient id="a" gradientUnits="userSpaceOnUse" x1="24.699182" x2="25.108145" y1="31.296118" y2="8.836913">
    <stop offset="0" stop-color="#dcdfe0" />
    <stop offset="1" stop-color="#fefeff" />
  </linearGradient>
  <linearGradient id="b" gradientTransform="matrix(1 0 0 -1 0 2075.3333)" gradientUnits="userSpaceOnUse" x1="24.164671" x2="23.169737" y1="49.864277" y2="2.2375">
    <stop offset="0" stop-color="#5059c9" />
    <stop offset="1" stop-color="#7b83eb" />
  </linearGradient>
  <path d="m25.015735 45.36257 4.09643-5.74479h10.379224s5.204309.0857 5.204309-7.33904v-23.3520303c-.327846-5.08114-4.937431-5.47097-4.937431-5.47097h-30.691145s-5.681091.33343-5.762819 5.872v22.9510003c.0097 7.23013 5.762819 7.33904 5.762819 7.33904h10.602948l3.691104 5.72209c.803249.93699.814449.81435 1.654561.0227z" fill-opacity=".666667" fill-rule="evenodd" />
  <path d="m25.015735 43.90683 4.09643-5.74478h10.379224s5.204309.0857 5.204309-7.33905v-23.3520203c-.327846-5.08115-4.937431-5.47098-4.937431-5.47098h-30.691145s-5.681091.33343-5.762819 5.872v22.9510003c.0097 7.23013 5.762819 7.33905 5.762819 7.33905h10.602948l3.691104 5.72208c.803249.937.814449.81435 1.654561.0227z" fill="url(#b)" fill-rule="evenodd" />
  <path d="m25.107422 8.836916a3.6279667 3.6279667 0 0 0 -3.619141 3.626953 3.6279667 3.6279667 0 0 0 .279297 1.396484h-8.74414c-.565026 0-1.023438.458412-1.023438 1.023438v10.232422c0 .565026.458402 1.023437 1.023438 1.023437h5.80664c.57663 2.806586 3.021644 4.950355 6.007813 5.023438 2.504628-.0613 4.624707-1.581209 5.585937-3.72461.504269.23806 1.065525.375083 1.660157.375h.01953c2.152561 0 3.896485-1.745877 3.896485-3.898437v-5.646485c0-.585686-.474855-1.058594-1.060547-1.058594h-4.986328-1.21289-4.460938v-1.214843a3.6279667 3.6279667 0 0 0 .837891.09766 3.6279667 3.6279667 0 0 0 3.626953-3.628906 3.6279667 3.6279667 0 0 0 -3.626953-3.626954 3.6279667 3.6279667 0 0 0 -.0098 0zm7.777344 2.232421a2.5116669 2.5116669 0 0 0 -2.466797 2.511719 2.5116669 2.5116669 0 0 0 2.511719 2.511719 2.5116669 2.5116669 0 0 0 2.511718-2.511719 2.5116669 2.5116669 0 0 0 -2.511718-2.511719 2.5116669 2.5116669 0 0 0 -.04492 0zm-17.4375 5.605469h5.384765v1.080078h-2.044922v5.570313h-1.304687v-5.570313h-2.035156z" fill="url(#a)" stroke-width=".010768" />
</svg>
