<svg viewBox="0 0 48 48" xmlns="http://www.w3.org/2000/svg" xmlns:xlink="http://www.w3.org/1999/xlink"><linearGradient id="a" gradientUnits="userSpaceOnUse" x1="399.57144" x2="399.57144" y1="545.79797" y2="517.79797"><stop offset="0" stop-color="#3889e9"/><stop offset="1" stop-color="#5ea5fb"/></linearGradient><linearGradient id="b"><stop offset="0" stop-color="#2e3436"/><stop offset="1" stop-color="#555753"/></linearGradient><linearGradient id="c" gradientTransform="matrix(12.994934 0 0 8.7083836 347.01342 484.06265)" gradientUnits="userSpaceOnUse" x1="-56.626286" x2="-56.689697" xlink:href="#b" y1="20.354965" y2="7.805479"/><linearGradient id="d" gradientUnits="userSpaceOnUse" x1="-309.42288" x2="-319.28488" y1="671.51392" y2="233.35858"><stop offset="0" stop-color="#ff9300"/><stop offset="1" stop-color="#ffd702"/></linearGradient><linearGradient id="e" gradientTransform="matrix(14.009968 0 0 9.3888527 506.48821 469.65052)" gradientUnits="userSpaceOnUse" x1="-56.626286" x2="-56.689697" xlink:href="#b" y1="20.354965" y2="7.805479"/><circle cx="400.57138" cy="531.79791" fill="url(#a)" r="0" transform="matrix(1.637466544097 0 0 1.637466544097 -644.578187175317 -848.879334054169)"/><g transform="matrix(.109541172909 0 0 .109541172909 59.30967747984 -25.369988678042)"><path d="m-165.60166 587.43349c11.44148 12.22393 19.19653 32.35042 13.95493 48.25191-4.0635 12.32744-20.01353 19.85018-30.94166 23.64139-21.85626 7.58243-48.37056 4.95782-79.12495 4.95782-30.78613 0-79.31328 3.13701-97.7627-4.4454-18.44944-7.58241-27.96531-26.50279-27.96531-47.11303 0-41.22046 25.71871-74.04572 87.29094-74.04572 61.5088 0 101.95066 13.92567 134.54875 48.75303z" fill="url(#e)" stroke="#000" stroke-width="9.731586"/><circle cx="-325.88733" cy="478.74667" fill="url(#d)" r="173.44701" stroke="#000" stroke-linecap="round" stroke-linejoin="round" stroke-width="11.825933" transform="matrix(1.119746635825 0 0 1.119746635825 42.569636007954 -103.634941827236)"/><path d="m-48.082927 15.304768c0 4.390362-3.557551 7.952437-7.947912 7.952437-4.394887 0-7.952437-3.562075-7.952437-7.952437 0-4.390361 3.55755-7.9524381 7.952437-7.9524381 4.390361 0 7.947912 3.5620771 7.947912 7.9524381z" transform="matrix(3.8258082 0 0 6.3029533 -132.32779 285.85096)"/><path d="m-279.22301 615.62132c0 19.11648-10.01812 36.09187-30.29088 43.12474-20.27277 7.03286-49.39824 5.84434-77.92447 5.84434-28.55563 0-51.65989 2.90966-68.77264-4.1232-17.11277-7.03287-25.93918-24.58199-25.93918-43.69846 0-38.23295 23.85536-58.94298 80.96661-58.94298 57.05247 0 121.96056 19.56261 121.96056 57.79556z" fill="url(#c)" stroke="#000" stroke-width="9.0264"/><path d="m-48.082927 15.304768c0 4.390362-3.557551 7.952437-7.947912 7.952437-4.394887 0-7.952437-3.562075-7.952437-7.952437 0-4.390361 3.55755-7.9524381 7.952437-7.9524381 4.390361 0 7.947912 3.5620771 7.947912 7.9524381z" transform="matrix(3.8258082 0 0 6.3029533 -41.037913 285.85096)"/></g></svg>