<svg height="48" width="48" xmlns="http://www.w3.org/2000/svg" xmlns:xlink="http://www.w3.org/1999/xlink"><linearGradient id="a" gradientUnits="userSpaceOnUse" x1="426.571369" x2="426.571369" y1="509.798212" y2="503.798242"><stop offset="0" stop-color="#c61423"/><stop offset="1" stop-color="#dc2b41"/></linearGradient><linearGradient id="b" gradientUnits="userSpaceOnUse" x1="425.57143" x2="425.57143" y1="508.798" y2="504.798"><stop offset="0" stop-color="#f7aeb4"/><stop offset="1" stop-color="#f8d4d9"/></linearGradient><linearGradient id="c" gradientUnits="userSpaceOnUse" x1="342.007356144916" x2="341.078908336864" y1="550.6575165327" y2="511.1005587288"><stop offset="0" stop-color="#197cf1"/><stop offset="1" stop-color="#20bcfa"/></linearGradient><path d="m358.77104 516.99793c-4.8234-3.92542-11.22786-6.08712-18.03349-6.08712-6.80575 0-13.21022 2.16185-18.03349 6.08712-4.86535 3.9595-7.54482 9.23646-7.54482 14.859 0 5.36635 2.44243 10.41704 6.89488 14.30854-.0803.18057-.144.37054-.18468.57028l-1.46301 7.19633c-.17395.85525.0599 1.36523.28634 1.64263.26189.3204.65007.49697 1.09314.49697.33452 0 .69405-.0987 1.06868-.29345l8.50944-4.42073c2.94612.94828 6.11338 1.44552 9.37335 1.44552 6.80578 0 13.21008-2.16181 18.03351-6.08708 4.8652-3.95938 7.54467-9.23635 7.54467-14.85888 0-5.62267-2.67934-10.89963-7.54454-14.85913z" fill="url(#c)" transform="matrix(.938300513067 0 0 .938300513067 -295.45407614414 -476.26534236138)"/><g transform="matrix(2.4891138 0 0 2.4891138 -1018.79441 -1253.80131)"><ellipse cx="425.57144" cy="506.79797" fill="url(#a)" rx="2.999999" ry="2.999999"/><path d="m425.57143 504.798c-.277 0-.5.223-.5.5v.29297l-.20703-.20703c-.19587-.19587-.51116-.19587-.70703 0s-.19587.51116 0 .70703l.20703.20703h-.29297c-.277 0-.5.223-.5.5s.223.5.5.5h.29297l-.20703.20703c-.19587.19587-.19587.51116 0 .70703s.51116.19587.70703 0l .20703-.20703v.29297c0 .277.223.5.5.5s.5-.223.5-.5v-.29297l.20703.20703c.19587.19587.51116.19587.70703 0s .19587-.51116 0-.70703l-.20703-.20703h.29297c.277 0 .5-.223.5-.5s-.223-.5-.5-.5h-.29297l.20703-.20703c.19587-.19587.19587-.51116 0-.70703s-.51116-.19587-.70703 0l-.20703.20703v-.29297c0-.277-.223-.5-.5-.5z" fill="url(#b)"/></g></svg>