<svg height="48" width="48" xmlns="http://www.w3.org/2000/svg" xmlns:xlink="http://www.w3.org/1999/xlink"><linearGradient id="a" gradientTransform="matrix(1.0000001 0 0 1.2807771 -.000055 -148.57798)" gradientUnits="userSpaceOnUse" x1="409.57144" x2="409.57144" y1="542.79797" y2="507.798"><stop offset="0" stop-color="#2a2c2f"/><stop offset="1" stop-color="#424649"/></linearGradient><g transform="translate(-384.57143 -499.798)"><rect fill-opacity=".666667" height="43.546417" ry="2.049244" width="44" x="386.57144" y="502.79758"/><rect fill="url(#a)" height="43.546417" ry="2.049244" width="44" x="386.57144" y="501.798"/><g fill="#fff"><path d="m400.8687 519.57254c-.0387-.0366-.0884-.0549-.14884-.0549h-6.21534c-.0604 0-.11006.0184-.14892.0549-.0389.0366-.0582.0833-.0582.14023v.39023c0 .0568.0193.10365.0582.14016.0389.0365.0885.0549.14892.0549h6.21534c.0604 0 .11006-.0184.14884-.0549.0389-.0365.0582-.0833.0582-.14016v-.39023c.00007-.0569-.0193-.10363-.0582-.14023z" stroke-width=".890734"/><path d="m390.92424 513.80506c-.0432-.0405-.0928-.061-.14892-.061-.0561 0-.1057.0204-.14883.061l-.32375.30486c-.0432.0406-.0647.0874-.0647.14023 0 .0529.0215.0996.0647.14023l2.54446 2.39597-2.54446 2.39603c-.0432.0406-.0647.0874-.0647.14016 0 .0529.0215.0996.0647.14023l.32375.30478c.0432.0406.0927.0609.14883.0609.0561 0 .10577-.0203.14892-.0609l3.01703-2.84098c.0432-.0406.0648-.0875.0648-.14031 0-.0528-.0216-.0996-.0648-.14022z" stroke-width=".890734"/><path d="m419.51324 519.57254c-.0388-.0366-.0885-.0549-.14883-.0549h-6.21535c-.0604 0-.11005.0184-.14892.0549-.0387.0366-.0582.0833-.0582.14023v.39023c0 .0568.0193.10365.0582.14016.0389.0365.0885.0549.14892.0549h6.21535c.0604 0 .11005-.0184.14883-.0549.0388-.0365.0582-.0833.0582-.14016v-.39023c.00007-.0569-.0193-.10363-.0582-.14023z" stroke-width=".890734"/><path d="m409.56879 513.80506c-.0432-.0405-.0928-.061-.14893-.061-.056 0-.10569.0204-.14883.061l-.32374.30486c-.0432.0406-.0648.0874-.0648.14023 0 .0529.0215.0996.0648.14023l2.54446 2.39597-2.54446 2.39603c-.0432.0406-.0648.0874-.0648.14016 0 .0529.0215.0996.0648.14023l.32374.30478c.0432.0406.0927.0609.14883.0609.0562 0 .10577-.0203.14893-.0609l3.01703-2.84098c.0432-.0406.0648-.0875.0648-.14031 0-.0528-.0215-.0996-.0648-.14022z" stroke-width=".890734"/><g><circle cx="398.937184096958" cy="505.536597118339" r="1.781425731018"/><circle cx="394.560790725378" cy="505.574384400809" r="1.781425731018"/><circle cx="390.258860528078" cy="505.616571211991" r="1.781425731018"/></g></g></g></svg>