<?xml version="1.0" encoding="UTF-8" standalone="no"?>
<!-- Created with Inkscape (http://www.inkscape.org/) -->

<svg
   xmlns:osb="http://www.openswatchbook.org/uri/2009/osb"
   xmlns:dc="http://purl.org/dc/elements/1.1/"
   xmlns:cc="http://creativecommons.org/ns#"
   xmlns:rdf="http://www.w3.org/1999/02/22-rdf-syntax-ns#"
   xmlns:svg="http://www.w3.org/2000/svg"
   xmlns="http://www.w3.org/2000/svg"
   xmlns:xlink="http://www.w3.org/1999/xlink"
   xmlns:sodipodi="http://sodipodi.sourceforge.net/DTD/sodipodi-0.dtd"
   xmlns:inkscape="http://www.inkscape.org/namespaces/inkscape"
   width="48"
   height="48"
   id="svg5453"
   version="1.1"
   inkscape:version="0.91 r13725"
   sodipodi:docname="terminix.svg">
  <defs
     id="defs5455">
    <linearGradient
       id="linearGradient4271"
       inkscape:collect="always">
      <stop
         id="stop4273"
         offset="0"
         style="stop-color:#2a2c2f;stop-opacity:1" />
      <stop
         id="stop4275"
         offset="1"
         style="stop-color:#424649;stop-opacity:1" />
    </linearGradient>
    <linearGradient
       gradientTransform="matrix(1.0000001,0,0,1.2807771,-5.4550391e-5,-148.57798)"
       gradientUnits="userSpaceOnUse"
       y2="507.798"
       x2="409.57144"
       y1="542.79797"
       x1="409.57144"
       id="linearGradient4222"
       xlink:href="#linearGradient4271"
       inkscape:collect="always" />
    <linearGradient
       osb:paint="gradient"
       id="linearGradient4207">
      <stop
         id="stop3371"
         offset="0"
         style="stop-color:#3498db;stop-opacity:1;" />
      <stop
         id="stop3373"
         offset="1"
         style="stop-color:#3498db;stop-opacity:0;" />
    </linearGradient>
  </defs>
  <sodipodi:namedview
     id="base"
     pagecolor="#5a5a5a"
     bordercolor="#666666"
     borderopacity="1.0"
     inkscape:pageopacity="0"
     inkscape:pageshadow="2"
     inkscape:zoom="11.294988"
     inkscape:cx="14.946967"
     inkscape:cy="24.543081"
     inkscape:document-units="px"
     inkscape:current-layer="layer1"
     showgrid="false"
     fit-margin-top="0"
     fit-margin-left="0"
     fit-margin-right="0"
     fit-margin-bottom="0"
     inkscape:window-width="1366"
     inkscape:window-height="642"
     inkscape:window-x="0"
     inkscape:window-y="33"
     inkscape:window-maximized="1"
     inkscape:showpageshadow="false"
     borderlayer="true"
     showguides="false"
     inkscape:snap-bbox="true"
     inkscape:bbox-nodes="true"
     inkscape:guide-bbox="true"
     showborder="true">
    <inkscape:grid
       type="xygrid"
       id="grid4063" />
    <sodipodi:guide
       position="1.1650391e-05,47.999996"
       orientation="4,0"
       id="guide4146" />
    <sodipodi:guide
       position="1.1650391e-05,43.999996"
       orientation="0,48"
       id="guide4148" />
    <sodipodi:guide
       position="48.000012,43.999996"
       orientation="-4,0"
       id="guide4150" />
    <sodipodi:guide
       position="48.000012,47.999996"
       orientation="0,-48"
       id="guide4152" />
    <sodipodi:guide
       position="1.1650391e-05,4.0000264"
       orientation="4,0"
       id="guide4154" />
    <sodipodi:guide
       position="1.1650391e-05,2.6367188e-05"
       orientation="0,48"
       id="guide4156" />
    <sodipodi:guide
       position="48.000012,2.6367188e-05"
       orientation="-4,0"
       id="guide4158" />
    <sodipodi:guide
       position="48.000012,4.0000264"
       orientation="0,-48"
       id="guide4160" />
    <sodipodi:guide
       position="48.000012,48.000026"
       orientation="0,-4"
       id="guide4162" />
    <sodipodi:guide
       position="44.000012,48.000026"
       orientation="48,0"
       id="guide4164" />
    <sodipodi:guide
       position="44.000012,2.6367188e-05"
       orientation="0,4"
       id="guide4166" />
    <sodipodi:guide
       position="48.000012,2.6367188e-05"
       orientation="-48,0"
       id="guide4168" />
    <sodipodi:guide
       position="4.0000422,48.000026"
       orientation="0,-4"
       id="guide4170" />
    <sodipodi:guide
       position="4.2167969e-05,48.000026"
       orientation="48,0"
       id="guide4172" />
    <sodipodi:guide
       position="4.2167969e-05,2.6367188e-05"
       orientation="0,4"
       id="guide4174" />
    <sodipodi:guide
       position="24,2"
       orientation="16,0"
       id="guide4360" />
    <sodipodi:guide
       position="15.999981,16.000026"
       orientation="0,16"
       id="guide4362" />
    <sodipodi:guide
       position="31.999981,16.000026"
       orientation="-16,0"
       id="guide4364" />
    <sodipodi:guide
       position="31.999981,32.000026"
       orientation="0,-16"
       id="guide4366" />
  </sodipodi:namedview>
  <metadata
     id="metadata5458">
    <rdf:RDF>
      <cc:Work
         rdf:about="">
        <dc:format>image/svg+xml</dc:format>
        <dc:type
           rdf:resource="http://purl.org/dc/dcmitype/StillImage" />
        <dc:title></dc:title>
      </cc:Work>
    </rdf:RDF>
  </metadata>
  <g
     inkscape:label="Layer 1"
     inkscape:groupmode="layer"
     id="layer1"
     transform="translate(-384.57143,-499.798)">
    <rect
       ry="2.0492435"
       y="502.25159"
       x="386.57144"
       height="43.546417"
       width="44"
       id="rect3302"
       style="opacity:1;fill:#000000;fill-opacity:0.66666667;stroke:none;stroke-width:0.2;stroke-linecap:round;stroke-linejoin:round;stroke-miterlimit:4;stroke-dasharray:none;stroke-opacity:1" />
    <g
       id="layer1-4"
       inkscape:label="Capa 1"
       transform="matrix(0.91666666,0,0,0.90721705,-13.184069,53.322369)">
      <g
         transform="translate(-34.965532,2.4832225)"
         inkscape:label="Capa 1"
         id="layer1-3" />
    </g>
    <rect
       style="opacity:1;fill:url(#linearGradient4222);fill-opacity:1;stroke:none;stroke-width:0.2;stroke-linecap:round;stroke-linejoin:round;stroke-miterlimit:4;stroke-dasharray:none;stroke-opacity:1"
       id="rect4195"
       width="44"
       height="43.546417"
       x="386.57144"
       y="501.798"
       ry="2.0492435" />
    <g
       id="g3322"
       transform="matrix(0.91666666,0,0,0.91666722,34.047597,43.649575)">
      <ellipse
         ry="1.9233385"
         rx="1.9433733"
         cy="503.69901"
         cx="428.97946"
         id="path4224"
         style="opacity:1;fill:#ffffff;fill-opacity:1;stroke:none;stroke-width:0.2;stroke-linecap:round;stroke-linejoin:round;stroke-miterlimit:4;stroke-dasharray:none;stroke-opacity:1" />
      <ellipse
         ry="1.9233385"
         rx="1.9433733"
         cy="503.73984"
         cx="424.2052"
         id="path4224-4"
         style="opacity:1;fill:#ffffff;fill-opacity:1;stroke:none;stroke-width:0.2;stroke-linecap:round;stroke-linejoin:round;stroke-miterlimit:4;stroke-dasharray:none;stroke-opacity:1" />
      <ellipse
         ry="1.9233385"
         rx="1.9433733"
         cy="503.78537"
         cx="419.51224"
         id="path4224-8"
         style="opacity:1;fill:#ffffff;fill-opacity:1;stroke:none;stroke-width:0.2;stroke-linecap:round;stroke-linejoin:round;stroke-miterlimit:4;stroke-dasharray:none;stroke-opacity:1" />
    </g>
    <g
       id="g3314"
       transform="matrix(0.89073378,0,0,0.89073432,42.342907,57.242838)">
      <g
         id="g3310">
        <path
           style="fill:#ffffff;fill-opacity:1"
           inkscape:connector-curvature="0"
           id="path1272"
           d="m 402.50611,516.79799 c -0.0435,-0.0411 -0.0993,-0.0616 -0.16709,-0.0616 l -6.97778,0 c -0.0678,0 -0.12356,0.0206 -0.16719,0.0616 -0.0437,0.0411 -0.0653,0.0935 -0.0653,0.15743 l 0,0.4381 c 0,0.0638 0.0217,0.11636 0.0653,0.15735 0.0437,0.041 0.0994,0.0616 0.16719,0.0616 l 6.97778,0 c 0.0678,0 0.12356,-0.0206 0.16709,-0.0616 0.0437,-0.041 0.0653,-0.0935 0.0653,-0.15735 l 0,-0.4381 c 8e-5,-0.0639 -0.0217,-0.11635 -0.0653,-0.15743 l 0,0 z" />
        <path
           style="fill:#ffffff;fill-opacity:1"
           inkscape:connector-curvature="0"
           id="path1274"
           d="m 391.34177,510.32301 c -0.0485,-0.0455 -0.10421,-0.0685 -0.16719,-0.0685 -0.063,0 -0.11866,0.0229 -0.16709,0.0685 l -0.36346,0.34226 c -0.0485,0.0456 -0.0726,0.0981 -0.0726,0.15743 0,0.0594 0.0241,0.11181 0.0726,0.15743 l 2.85659,2.68988 -2.85659,2.68996 c -0.0485,0.0456 -0.0726,0.0981 -0.0726,0.15735 0,0.0594 0.0241,0.11182 0.0726,0.15743 l 0.36346,0.34217 c 0.0485,0.0456 0.1041,0.0684 0.16709,0.0684 0.063,0 0.11874,-0.0228 0.16719,-0.0684 l 3.38713,-3.18948 c 0.0485,-0.0456 0.0727,-0.0982 0.0727,-0.15752 0,-0.0593 -0.0242,-0.11181 -0.0727,-0.15743 l -3.38713,-3.18948 0,0 z" />
      </g>
      <g
         id="g3306">
        <path
           d="m 423.43778,516.79799 c -0.0436,-0.0411 -0.0993,-0.0616 -0.16709,-0.0616 l -6.97778,0 c -0.0678,0 -0.12356,0.0206 -0.16719,0.0616 -0.0435,0.0411 -0.0653,0.0935 -0.0653,0.15743 l 0,0.4381 c 0,0.0638 0.0217,0.11636 0.0653,0.15735 0.0437,0.041 0.0994,0.0616 0.16719,0.0616 l 6.97778,0 c 0.0678,0 0.12355,-0.0206 0.16709,-0.0616 0.0436,-0.041 0.0653,-0.0935 0.0653,-0.15735 l 0,-0.4381 c 8e-5,-0.0639 -0.0217,-0.11635 -0.0653,-0.15743 l 0,0 z"
           id="path3298"
           inkscape:connector-curvature="0"
           style="fill:#ffffff;fill-opacity:1" />
        <path
           d="m 412.27344,510.32301 c -0.0485,-0.0455 -0.10421,-0.0685 -0.16719,-0.0685 -0.0629,0 -0.11866,0.0229 -0.16709,0.0685 l -0.36345,0.34226 c -0.0485,0.0456 -0.0727,0.0981 -0.0727,0.15743 0,0.0594 0.0242,0.11181 0.0727,0.15743 l 2.85658,2.68988 -2.85658,2.68996 c -0.0485,0.0456 -0.0727,0.0981 -0.0727,0.15735 0,0.0594 0.0242,0.11182 0.0727,0.15743 l 0.36345,0.34217 c 0.0485,0.0456 0.10411,0.0684 0.16709,0.0684 0.0631,0 0.11874,-0.0228 0.16719,-0.0684 l 3.38713,-3.18948 c 0.0485,-0.0456 0.0727,-0.0982 0.0727,-0.15752 0,-0.0593 -0.0242,-0.11181 -0.0727,-0.15743 l -3.38713,-3.18948 0,0 z"
           id="path3300"
           inkscape:connector-curvature="0"
           style="fill:#ffffff;fill-opacity:1" />
      </g>
    </g>
  </g>
</svg>
