<svg height="48" viewBox="0 0 48 48" width="48" xmlns="http://www.w3.org/2000/svg" xmlns:xlink="http://www.w3.org/1999/xlink"><linearGradient id="a"><stop offset="0" stop-color="#06f"/><stop offset="1" stop-color="#6dc6e8"/></linearGradient><linearGradient id="b"><stop offset="0" stop-color="#2a7fff"/><stop offset="1" stop-color="#6dc6e8"/></linearGradient><linearGradient id="c"><stop offset="0" stop-color="#d7dbe1"/><stop offset="1" stop-color="#eaedf1"/></linearGradient><linearGradient id="d" gradientUnits="userSpaceOnUse" x1="68.169181379351" x2="67.451737664818" y1="146.848843289727" y2="121.977383722857"><stop offset="0" stop-color="#333"/><stop offset="1" stop-color="#353535"/></linearGradient><linearGradient id="e" gradientTransform="matrix(.24550827 .0806074 -.07303201 .22243565 182.09929 -151.61692)" gradientUnits="userSpaceOnUse" x1="-292.6893" x2="-293.4805" xlink:href="#c" y1="1171.113" y2="1135.239"/><linearGradient id="f" gradientTransform="matrix(.31446019 .10324631 -.10218606 .31123099 237.72294 -251.83296)" gradientUnits="userSpaceOnUse" x1="-292.89081" x2="-292.61288" xlink:href="#c" y1="1226.7684" y2="1181.605"/><linearGradient id="g" gradientUnits="userSpaceOnUse" x1="22.6691764125" x2="21.84629192" xlink:href="#b" y1="45.7990633925" y2="-.5175780425"/><linearGradient id="h" gradientTransform="matrix(-.43578018 -.10511077 -.10069024 .45491196 27.606722 15.894121)" gradientUnits="userSpaceOnUse" x1="42.086445" x2="49.343327" y1="47.986961" y2="19.682821"><stop offset="0" stop-color="#2a7fff"/><stop offset="1" stop-color="#4ba2f3" stop-opacity="0"/></linearGradient><linearGradient id="i" gradientTransform="matrix(.19279009 0 0 -.19279009 -236.71873 -340.48229)" gradientUnits="userSpaceOnUse" x1="1457.797" x2="1472.1146" xlink:href="#a" y1="-1953.3125" y2="-1837.0051"/><linearGradient id="j" gradientUnits="userSpaceOnUse" x1="39.647734137327" x2="47.041504594065" xlink:href="#a" y1="32.908721720313" y2="12.100683251397"/><linearGradient id="k" gradientTransform="matrix(.9398931 .03205085 -.03205085 .9398931 -3.835281 1.740921)" gradientUnits="userSpaceOnUse" x1="36.44672" x2="43.279568" xlink:href="#b" y1="25.54936" y2="3.275496"/><linearGradient id="l" gradientUnits="userSpaceOnUse" x1="8.761707228848" x2="6.367658937163" y1="6.426448751959" y2="16.336747297088"><stop offset="0" stop-color="#1a1a1a" stop-opacity=".156863"/><stop offset="1" stop-color="#1a1a1a" stop-opacity="0"/></linearGradient><linearGradient id="m" gradientTransform="matrix(.14490169 .12716728 .12716728 -.14490169 60.111479 -420.77202)" gradientUnits="userSpaceOnUse" x1="1438.6904" x2="1464.9913" xlink:href="#b" y1="-1956.8853" y2="-1841.0803"/><linearGradient id="n" gradientTransform="matrix(1.065956 .18993258 -.18993258 1.065956 .736379 -8.668717)" gradientUnits="userSpaceOnUse" x1="36.265823" x2="36.316914" xlink:href="#a" y1="29.560484" y2="9.231163"/><path d="m33.913582 31.975647c-.567671.03455-1.501284.720922-2.768284 2.002747-.169339-.999482-.572444-1.687996-1.05191-1.806216-.948928-.234695-3.255035 1.952589-6.919775 6.560403-1.637347 2.668378-6.184685 4.707414-6.180443 4.711137.003.0026 1.360826.780274 4.035444-.168456.0456.02566.458922.229019 1.242827.278888-.619414.509559-1.207169.954107-1.577867 1.085601-.0036-.0032 3.165254.917696 7.393322-2.940483.211234-.192817.40103-.392163.587722-.591466.145086-.103901.285071-.196406.434241-.308834 0 0-3.237702 3.247986-4.402302 3.661097-.0036-.0032 3.165254.917697 7.393322-2.940482 4.22736-3.8588 3.430149-9.176066 2.006491-9.527091-.05931-.01467-.122874-.0211-.192788-.01685z" fill="url(#m)" stroke-width=".958324"/><rect fill="url(#d)" height="26.186769" rx="0" ry="1.383269" transform="matrix(.95010012 .31194513 -.31194513 .95010012 0 0)" width="37.426754" x="49.754738" y="120.84146"/><path d="m33.17904 64.085795 33.671122.193183c.766319.0044 1.38327.616938 1.38327 1.383269v23.420231c0 .766331-.616951 1.387666-1.38327 1.383269l-33.671122-.193183c-.766318-.0044-1.383269-.616938-1.383269-1.383269v-23.420231c0-.766331.616951-1.387666 1.383269-1.383269z" fill-opacity=".666667" transform="matrix(.953650966397 .300914986372 -.300914986372 .953650966397 -1.344998 -60.61404)"/><g transform="matrix(.99993286 -.01158741 .01158741 .99993286 -1.010187364204 -59.719693548354)"><path d="m3.1793566 93.620339 7.1353764-21.126417 13.337065 14.745868 19.169591-4.073001s-6.754509 20.559261-7.054577 21.368821c-.126616.3416-.672481.52282-1.016244.40219l-15.317884-5.375025-15.6814847-5.051823c-.3358022-.108181-.6847338-.556366-.5718427-.890613z" fill="url(#f)" fill-rule="evenodd"/><path d="m10.655243 71.396557 13.374156 14.40244 18.990209-3.77629z" fill="url(#e)" fill-rule="evenodd"/></g><g stroke-width=".958324"><path d="m10.314848 12.494711-.6794372 2.010235c.1238457.357297.2502876.850234.3649862 1.482408.17495.9643.152845 1.242655-.1759418 2.244201-.3593419 1.094475-.3613972 1.184989-.072997 2.053284.1446105.435389.3077028.740072.4716748.904044l23.519277 23.437551 1.199777.421138c.343762.120625.889732-.06083 1.016348-.402421.291787-.787215 6.31525-19.814828 6.667938-20.888258.0106-.18756.02094-.371721.02995-.554031l-19.005517 4.037314z" fill-opacity=".078431"/><path d="m3.9309271 33.072691c-2.8869111-3.591979-2.2619824-5.750565-1.8572408-10.560198.5545253-6.589603 3.8906551-12.128312 10.2193837-15.7971726" fill="url(#g)"/><path d="m30.320517 13.791103c0-.09507-.08802-.202195-.195593-.238055-.107586-.03586-.195602.07127-.195602.238055 0 .166788.08802.273912.195602.238051.107577-.03586.195593-.142984.195593-.238051z" fill="url(#g)"/><path d="m3.3955739 18.723864c-.5407793 1.055456-1.0542746 3.111741-1.1029095 4.331167-.1319388 3.307809 1.3868296 6.710297 3.899728 8.736546.9493492.765495 2.786021 1.968642 2.8310719 1.765105.070242-.04364-.785271-.652061-.7362162-.853447-.4513324-.482776-.2549371-.492732.4025622-.0735.3852236.245626 1.5107467.735181 1.9382877.843073.134778.04478.03353-.187791-.06587-.383402-1.0855251-1.488005-.253336-.36877-1.1554809-1.573255-.3829037-.397763-.6657576-.997545-1.1481161-2.434501-1.1418188-2.141335-2.2705705-3.1958-1.7658595-7.177683.2162444-1.495383 1.5873881-1.24252-3.0972145-3.180104z" fill="url(#h)"/><path d="m10.381579 10.884084.0038-.0019c-.179624.28119-.331975.574608-.4382446.888714-.5266461 1.041067-.196552 2.614422-.069593 3.792793.1100314.414734.2388716.840753.4721016 1.073981l.284953.09687c-.0057-.657367.227586-1.266772.198432-1.928841-.0442-.802195-.254858-1.606271-.09311-2.410347.133543-.707211.553919-1.320377.725079-2.022886.206897-.8736675.181505-1.8141069.304702-2.704703-.519122.9178689-.987462 1.979625-1.384327 3.216303" fill="#fff" fill-opacity=".078431"/><path d="m28.39619 11.375976c.527112.767942-.105599.999491-1.388179.834367 3.820933 1.336641 2.970895.242458 1.393817-.834174l-.0056-.000193zm3.664434-.420812c3.621042.520575 2.678934-.301979 1.09773-.9816552.5953.5895962.07457.9040082-1.09115.9818802l-.0065-.000225zm2.515673 2.802414c.48378.852092-.200089 1.038611-1.533113.752262 3.889989 1.739855 3.096101.51679 1.537813-.752103zm1.859053-.928406c.485597.854038-.19727 1.038709-1.531232.752328 3.889988 1.739854 3.09704.51682 1.535932-.752168zm-8.235233.51619c3.895627 1.740047 3.100799.51695 1.543452-.751911.478141.851901-.205666 1.036541-1.535933.752168l-.0075-.000257zm3.674552.524282c.48378.852092-.199086 1.036765-1.533113.752263 3.889989 1.739855 3.09704.516823 1.537811-.752103l-.0047-.00016zm3.409448-1.911562c-.283674-.23551-.740984-.511757-1.258925-.775958.651616.731724.02138 1.056516-1.342168 1.058008 2.93918.620594 3.29381.292991 2.623331-.271881 4.116521.863993 3.0844-.16112 1.302949-1.066874.634955.723628.01977 1.047992-1.319515 1.055958l-.0056-.000193zm-4.297239 1.427733c4.175224.881051 3.140411-.147917 1.349688-1.057752.647921.729716.01761 1.056387-1.344988 1.057912zm.08318-2.163314c.249612.489356-.299106.68613-1.325469.65113 3.401071.845244 2.754806.03936 1.367882-.763543-.03221-.241991-.519604-.712167-1.138584-1.1868299.434759.7168019-.146247.8945959-1.294633.6851169 1.540381.634999 2.228586.762915 2.395504.614286zm5.915959 4.222571c3.72016 2.498145 3.117968 1.089656 1.730679-.502752.344301.968724-.39766 1.037521-1.725039.502945l-.0056-.000193zm-2.049926.813682c3.720159 2.498144 3.117029 1.089623 1.730679-.502751.342422.96866-.398599 1.037489-1.7241.502976l-.0065-.000225zm-8.411927-3.71204c.48566.852157-.19821 1.038677-1.531232.752327 3.889987 1.739855 3.096099.51679 1.535932-.752167zm12.641818.423565c.333654.922252-.370584.988572-1.634821.478732 3.536059 2.378007 2.960729 1.037244 1.641401-.478509l-.0065-.000223zm-6.892036 3.34637c3.905008 2.623953 3.272261 1.14573 1.816168-.526183.36059 1.015387-.417312 1.089546-1.809588.526409l-.0065-.000226zm-4.02993-2.327096c.484721.852124-.200025 1.036732-1.533112.752263 3.889989 1.739854 3.097039.516821 1.537811-.752104zm2.677068 1.601572c.485596.854037-.197271 1.038708-1.531232.752328 3.889988 1.739854 3.097039.51682 1.535932-.752169zm-.561163 2.493297c3.444656 3.540772 3.113413 1.885573 1.981181-.14981.149806 1.125824-.664686 1.031239-1.97554.150002l-.0056-.000192z" fill="url(#k)"/><path d="m3.1998148 18.99482c2.9052813 5.832928 7.6779652 6.229168 10.7845282 12.307598.189102.427493.646363 1.112133 1.016134 1.521424.825001.913181.714123 1.206024-.398858 1.053473-1.121841-.153766-2.23502-.679009-3.105172-1.465136-1.200434-1.084522-1.258665-.534405.506859 2.450325.5059.855255 5.374849 4.818444 5.081673 4.812461-.790433-.01613-7.384376-1.894402-11.029501-5.738806l-2.7839221-2.93612z" fill="url(#g)"/><path d="m6.0604495 30.056961 4.6808125 1.630543.421588.883299c.231876.485812.713504 1.182235 1.070268 1.547596.894207.915744.842681 1.102769-.302483 1.097973-1.077471-.0047-2.174249-.439308-3.2426352-1.285477-.3930096-.311267-.752913-.524265-.8034269-.477067-.1206611.11274.1134499 1.651746 1.2334428 3.267632.9715393 1.401702.9764333 1.236904-.2554234.822678-2.5898211-.870859-6.2486452-2.925582-5.5199625-7.406562z" fill="url(#g)"/><path d="m3.9309271 33.072691c-2.8869111-3.591979-2.2619824-5.750565-1.8572408-10.560198.5545253-6.589603 3.8906551-12.128312 10.2193837-15.7971726" fill="url(#l)"/><path d="m18.397204 1.20356c-2.781267 1.0936295-4.224212 2.4176876-5.914896 4.9759438-1.685738 2.5693651-2.9249174 5.1384062-3.2043971 7.7077722.2072822 0 .4904614.823123.7224861 2.101949.174951.964301.152845 1.242656-.1759418 2.244201-.3593419 1.094477-.3632737 1.181251-.074869 2.049542.3322758 1.000406.7655408 1.322001 1.0706278.793612.533118-.923312 1.37409-1.491837 4.701778-3.180065 4.215304-2.13854 4.264748-2.14812 7.705901-1.285877 1.187925.297656 3.020234.707893 4.071006.911531s2.278649.479526 2.728979.612055c.814796.23979.822146.248608 1.360744 1.772526.507019 1.43451.541849 1.703426.546545 4.260051.0041 2.429003-.04266 2.848593-.419267 3.820195-.23273.60044-.468319 1.328982-.524083 1.617172l-.101074.524083 1.11555-.08236c.94723-.06852 1.423732-.03474 2.234842-.851636l.494136-.496005c-.258753 2.592327-1.406926 5.402079-3.681688 8.997393-1.639797 2.591728-2.492273 3.634481-3.45708 4.233845-2.394391 1.936787-.1822.135413-3.080862 2.541806-.292349.336843-.605259.744698-.308835.720615.924819-.0094 3.453054-.437762 4.353637-.73746 1.537111-.511516 1.7762-.376314.632644.3575-.515324.330685-.937736.682073-.937736.78051 0 .420769 3.510326-.547412 5.802355-1.600327 6.066953-2.787047 10.721334-8.745383 11.950977-15.299497.384162-2.047567.351571-5.422221-.04866-7.823819.06699-.0851.142394-.164655.207762-.250812-1.777023-6.572053-6.371877-12.1402512-12.261689-14.8615105-2.644431-1.221802-8.430606-2.3536861-11.411921-2.2329704-1.31555.053267-1.381334.035144-1.381334-.383704 0-.2976159-.0782-.3510142-.376217-.2564266-.285189.090516-.402053.025834-.477291-.2620419-.05469-.2091187-.21157-.3799605-.350012-.3799605-.138433 0-.252684-.1231621-.252684-.2732722 0-.3224024-.247473-.346121-.754305-.074869-.453348.2426014-.533369.1725272-.398678-.342526.159879-.2244839.421919-.2243993.769362-.3567373-.08902-.06206-.264686-.1490002-.875812.00957z" fill="url(#g)"/><path d="m38.615051 29.247061c.529468 3.085582-1.543261 7.617559-1.537619 7.617559.0056 0 3.096867-.607523 4.464266-7.196242 0 0-.291536 4.575239-.894357 5.653922-.0047 0 2.984954-1.397493 3.617869-7.086211.892064-8.549688-3.426585-9.691603-4.776491-8.484645-.868025.44953-1.158622 3.61505-.873668 9.495617z" fill="url(#i)"/><path d="m37.278544 25.410887c.529467 3.085582-1.543262 7.617559-1.537619 7.617559.0057 0 3.096867-.607524 4.464266-7.196242 0 0-.291537 4.575238-.894358 5.653922-.0047 0 2.984955-1.397494 3.617871-7.086211.631975-5.688718-3.474924-9.159881-4.776493-8.484644-.868025.449529-1.15862 3.615049-.873667 9.495616z" fill="url(#j)"/></g><path d="m43.279466 17.825986c-3.330035-4.373225-6.597472-4.820259-9.597186-3.644232-.166855 3.43061 5.311237 4.568013 6.601285 6.056073 1.128526 1.539641 1.823467 3.208192 1.685887 5.124045 0 0 .890903.123299 1.46744-.636748-.13514 1.759977-.430602 3.45979-1.528645 4.85241 2.359303-2.288648 3.569601-5.293552 1.703994-9.626398l1.097201-.0035c-.477655-.791679-.954261-1.496962-1.429979-2.121708zm-3.526719 13.487565c-.0081.0043-.01589.0082-.02415.01253-.000417.0018-.0012.0035-.0015.0052.0086-.0058.01703-.01182.02566-.0177z" fill="url(#n)" fill-rule="evenodd"/><path d="m10.650547 18.435473c.06188-.100073.148551-.181952.192686-.181952.0441 0 .08022.08187.08022.181952 0 .100074-.08671.181952-.192696.181952-.105978 0-.142082-.08188-.08022-.181952zm2.577641-2.668624c-.06668-.06672-.121298-.260057-.121298-.429649 0-.230379.114451-.286467.452613-.221825.603491.115366.845212-.444591.350249-.811376-.342357-.253702-.342272-.262095.0056-.519545 1.260312-.933758 2.11505.767622.875484 1.74267-.446248.351016-1.317301.484678-1.562258.239725z" fill="#2e2118" stroke-width=".958324"/></svg>