<?xml version="1.0" encoding="UTF-8" standalone="no"?>
<!-- Created with Inkscape (http://www.inkscape.org/) -->

<svg
   xmlns:osb="http://www.openswatchbook.org/uri/2009/osb"
   xmlns:dc="http://purl.org/dc/elements/1.1/"
   xmlns:cc="http://creativecommons.org/ns#"
   xmlns:rdf="http://www.w3.org/1999/02/22-rdf-syntax-ns#"
   xmlns:svg="http://www.w3.org/2000/svg"
   xmlns="http://www.w3.org/2000/svg"
   xmlns:xlink="http://www.w3.org/1999/xlink"
   xmlns:sodipodi="http://sodipodi.sourceforge.net/DTD/sodipodi-0.dtd"
   xmlns:inkscape="http://www.inkscape.org/namespaces/inkscape"
   id="svg2"
   version="1.1"
   inkscape:version="0.92.1 r15371"
   width="48"
   height="48"
   viewBox="0 0 48 48"
   sodipodi:docname="thunderbird.svg">
  <sodipodi:namedview
     pagecolor="#ffffff"
     bordercolor="#666666"
     borderopacity="1"
     objecttolerance="10"
     gridtolerance="10"
     guidetolerance="10"
     inkscape:pageopacity="0"
     inkscape:pageshadow="2"
     inkscape:window-width="1600"
     inkscape:window-height="840"
     id="namedview4"
     showgrid="false"
     inkscape:zoom="7.9999999"
     inkscape:cx="12.654297"
     inkscape:cy="24.215941"
     inkscape:current-layer="svg2"
     inkscape:window-x="0"
     inkscape:window-y="32"
     inkscape:window-maximized="1" />
  <metadata
     id="metadata8">
    <rdf:RDF>
      <cc:Work
         rdf:about="">
        <dc:format>image/svg+xml</dc:format>
        <dc:type
           rdf:resource="http://purl.org/dc/dcmitype/StillImage" />
        <dc:title />
      </cc:Work>
    </rdf:RDF>
  </metadata>
  <defs
     id="defs6">
    <linearGradient
       id="linearGradient4536"
       inkscape:collect="always">
      <stop
         id="stop4538"
         offset="0"
         style="stop-color:#2a7fff;stop-opacity:1" />
      <stop
         style="stop-color:#4ba2f3;stop-opacity:0"
         offset="1"
         id="stop4542" />
    </linearGradient>
    <linearGradient
       inkscape:collect="always"
       id="linearGradient4340">
      <stop
         style="stop-color:#1a1a1a;stop-opacity:0.15686275"
         offset="0"
         id="stop4342" />
      <stop
         style="stop-color:#1a1a1a;stop-opacity:0;"
         offset="1"
         id="stop4344" />
    </linearGradient>
    <linearGradient
       inkscape:collect="always"
       id="linearGradient4332">
      <stop
         style="stop-color:#0066ff;stop-opacity:1"
         offset="0"
         id="stop4334" />
      <stop
         style="stop-color:#6dc6e8;stop-opacity:1"
         offset="1"
         id="stop4336" />
    </linearGradient>
    <linearGradient
       inkscape:collect="always"
       id="linearGradient4326">
      <stop
         style="stop-color:#0066ff;stop-opacity:1"
         offset="0"
         id="stop4328" />
      <stop
         style="stop-color:#6dc6e8;stop-opacity:1"
         offset="1"
         id="stop4330" />
    </linearGradient>
    <linearGradient
       id="linearGradient4736"
       inkscape:collect="always">
      <stop
         id="stop4738"
         offset="0"
         style="stop-color:#2a7fff;stop-opacity:1" />
      <stop
         id="stop4740"
         offset="1"
         style="stop-color:#6dc6e8;stop-opacity:1" />
    </linearGradient>
    <linearGradient
       id="linearGradient4730"
       inkscape:collect="always">
      <stop
         id="stop4732"
         offset="0"
         style="stop-color:#2a7fff;stop-opacity:1" />
      <stop
         id="stop4734"
         offset="1"
         style="stop-color:#6dc6e8;stop-opacity:1" />
    </linearGradient>
    <linearGradient
       id="linearGradient4724"
       inkscape:collect="always">
      <stop
         id="stop4726"
         offset="0"
         style="stop-color:#2a7fff;stop-opacity:1" />
      <stop
         id="stop4728"
         offset="1"
         style="stop-color:#6dc6e8;stop-opacity:1" />
    </linearGradient>
    <linearGradient
       id="linearGradient4718"
       inkscape:collect="always">
      <stop
         id="stop4720"
         offset="0"
         style="stop-color:#2a7fff;stop-opacity:1" />
      <stop
         id="stop4722"
         offset="1"
         style="stop-color:#6dc6e8;stop-opacity:1" />
    </linearGradient>
    <linearGradient
       id="linearGradient4712"
       inkscape:collect="always">
      <stop
         id="stop4714"
         offset="0"
         style="stop-color:#2a7fff;stop-opacity:1" />
      <stop
         id="stop4716"
         offset="1"
         style="stop-color:#6dc6e8;stop-opacity:1" />
    </linearGradient>
    <linearGradient
       inkscape:collect="always"
       id="linearGradient4664">
      <stop
         style="stop-color:#2a7fff;stop-opacity:1"
         offset="0"
         id="stop4666" />
      <stop
         style="stop-color:#6dc6e8;stop-opacity:1"
         offset="1"
         id="stop4668" />
    </linearGradient>
    <linearGradient
       osb:paint="gradient"
       id="linearGradient4207">
      <stop
         id="stop3371"
         offset="0"
         style="stop-color:#3498db;stop-opacity:1;" />
      <stop
         id="stop3373"
         offset="1"
         style="stop-color:#3498db;stop-opacity:0;" />
    </linearGradient>
    <linearGradient
       id="linearGradient4232">
      <stop
         style="stop-color:#333333;stop-opacity:1"
         offset="0"
         id="stop4234" />
      <stop
         style="stop-color:#353535;stop-opacity:1"
         offset="1"
         id="stop4236" />
    </linearGradient>
    <linearGradient
       id="linearGradient5263-5">
      <stop
         offset="0"
         style="stop-color:#e9e9e9;stop-opacity:1"
         id="stop5265-0" />
      <stop
         offset="1"
         style="stop-color:#f9f9f9;stop-opacity:1"
         id="stop5267-9" />
    </linearGradient>
    <linearGradient
       inkscape:collect="always"
       id="linearGradient4525">
      <stop
         style="stop-color:#d7dbe1;stop-opacity:1"
         offset="0"
         id="stop4527" />
      <stop
         style="stop-color:#eaedf1;stop-opacity:1"
         offset="1"
         id="stop4529" />
    </linearGradient>
    <linearGradient
       id="linearGradient4501"
       inkscape:collect="always">
      <stop
         id="stop4503"
         offset="0"
         style="stop-color:#dfe3ea;stop-opacity:1" />
      <stop
         id="stop4505"
         offset="1"
         style="stop-color:#fdfeff;stop-opacity:1" />
    </linearGradient>
    <linearGradient
       id="linearGradient8311-06">
      <stop
         offset="0"
         style="stop-color:#a9a3d4;stop-opacity:1"
         id="stop8313-6" />
      <stop
         id="stop4462"
         style="stop-color:#87baff;stop-opacity:1"
         offset="0.47001833" />
      <stop
         offset="1"
         style="stop-color:#89ec85;stop-opacity:1"
         id="stop8315-2" />
    </linearGradient>
    <linearGradient
       gradientUnits="userSpaceOnUse"
       y2="1136.2811"
       x2="-157.57214"
       y1="1226.1821"
       x1="-154.97885"
       id="linearGradient4497"
       xlink:href="#linearGradient4232"
       inkscape:collect="always"
       gradientTransform="matrix(0.27665387,0,0,0.27665387,111.04468,-192.37918)" />
    <linearGradient
       gradientTransform="matrix(0.24550827,0.0806074,-0.07303201,0.22243565,182.09929,-151.61692)"
       gradientUnits="userSpaceOnUse"
       y2="1135.239"
       x2="-293.4805"
       y1="1171.113"
       x1="-292.6893"
       id="linearGradient4507"
       xlink:href="#linearGradient4525"
       inkscape:collect="always" />
    <linearGradient
       gradientTransform="matrix(0.31446019,0.10324631,-0.10218606,0.31123099,237.72294,-251.83296)"
       gradientUnits="userSpaceOnUse"
       y2="1181.605"
       x2="-292.61288"
       y1="1226.7684"
       x1="-292.89081"
       id="linearGradient4517"
       xlink:href="#linearGradient4525"
       inkscape:collect="always" />
    <linearGradient
       inkscape:collect="always"
       xlink:href="#linearGradient4736"
       id="linearGradient4678"
       x1="26.875"
       y1="45.875"
       x2="26"
       y2="-3.3749998"
       gradientUnits="userSpaceOnUse"
       gradientTransform="matrix(0.94043942,0,0,0.94043942,-2.6051326,2.6564046)" />
    <linearGradient
       inkscape:collect="always"
       xlink:href="#linearGradient4730"
       id="linearGradient4686"
       x1="26.875"
       y1="45.875"
       x2="26"
       y2="-3.3749998"
       gradientUnits="userSpaceOnUse"
       gradientTransform="matrix(0.94043942,0,0,0.94043942,-2.6051326,2.6564045)" />
    <linearGradient
       inkscape:collect="always"
       xlink:href="#linearGradient4724"
       id="linearGradient4694"
       x1="26.875"
       y1="45.875"
       x2="26"
       y2="-3.3749998"
       gradientUnits="userSpaceOnUse"
       gradientTransform="matrix(0.94043942,0,0,0.94043942,-2.6051326,2.6564046)" />
    <linearGradient
       inkscape:collect="always"
       xlink:href="#linearGradient4718"
       id="linearGradient4702"
       x1="26.875"
       y1="45.875"
       x2="26"
       y2="-3.3749998"
       gradientUnits="userSpaceOnUse"
       gradientTransform="matrix(0.94043942,0,0,0.94043942,-2.6051326,2.6564045)" />
    <linearGradient
       inkscape:collect="always"
       xlink:href="#linearGradient4712"
       id="linearGradient4710"
       x1="26.875"
       y1="45.875"
       x2="26"
       y2="-3.3749998"
       gradientUnits="userSpaceOnUse"
       gradientTransform="matrix(0.94043942,0,0,0.94043942,-2.6051326,2.6564045)" />
    <clipPath
       id="clipPath4926"
       clipPathUnits="userSpaceOnUse">
      <g
         id="g4928">
        <path
           style="fill:url(#linearGradient4950);fill-opacity:1"
           d="M 6.950006,32.342633 C 3.880259,28.523163 4.5447661,26.227868 4.9751411,21.113628 5.564786,14.106688 9.112202,8.217198 15.841746,4.315978"
           id="path4930"
           inkscape:connector-curvature="0" />
        <rect
           style="opacity:1;fill:url(#linearGradient4952);fill-opacity:1;stroke:none;stroke-width:1.5;stroke-linecap:round;stroke-linejoin:round;stroke-miterlimit:4;stroke-dasharray:none;stroke-dashoffset:0;stroke-opacity:1"
           id="rect4932"
           width="39.797092"
           height="27.845249"
           x="14.852427"
           y="3.7141609"
           rx="0"
           ry="1.4708755"
           transform="matrix(0.95010012,0.31194513,-0.31194513,0.95010012,0,0)" />
        <path
           style="fill:url(#linearGradient4954);fill-opacity:1;fill-rule:evenodd;stroke:none;stroke-width:0.87828159px;stroke-linecap:butt;stroke-linejoin:miter;stroke-miterlimit:4;stroke-dasharray:none;stroke-opacity:1"
           d="M 5.3863604,33.827664 13.340277,9.602196 28.207311,26.039647 49.575952,21.499408 41.622036,45.724876 Z"
           id="path4934"
           inkscape:connector-curvature="0"
           sodipodi:nodetypes="cccccc" />
        <path
           sodipodi:nodetypes="cccc"
           inkscape:connector-curvature="0"
           id="path4936"
           d="M 13.559775,8.9334115 28.5337,25.058621 49.795451,20.830624 Z"
           style="fill:url(#linearGradient4956);fill-opacity:1;fill-rule:evenodd;stroke:none;stroke-width:0.87828159px;stroke-linecap:butt;stroke-linejoin:miter;stroke-miterlimit:4;stroke-dasharray:none;stroke-opacity:1" />
        <path
           inkscape:connector-curvature="0"
           id="path4938"
           d="m 35.01092,11.839888 c 0,-0.101091 -0.0936,-0.215 -0.20798,-0.25313 -0.1144,-0.03813 -0.20799,0.07578 -0.20799,0.25313 0,0.177352 0.0936,0.291261 0.20799,0.253129 0.11439,-0.03813 0.20798,-0.152039 0.20798,-0.253129 z"
           style="fill:url(#linearGradient4958);fill-opacity:1" />
        <path
           sodipodi:nodetypes="cssccsccsssssscsccsccccsscsssscc"
           inkscape:connector-curvature="0"
           id="path4940"
           d="m 40.118907,27.27419 -0.93829,0.944988 c -0.862479,0.868636 -1.36905,0.833065 -2.37627,0.90592 l -1.18796,0.08593 0.10775,-0.557167 c 0.0593,-0.306441 0.31023,-1.079548 0.5577,-1.718016 0.40045,-1.033136 0.44941,-1.480139 0.44504,-4.062978 -0.005,-2.718543 -0.0413,-3.005136 -0.58043,-4.530497 -0.57271,-1.620432 -0.57975,-1.629618 -1.44615,-1.884594 -0.47885,-0.140924 -1.78481,-0.433389 -2.90213,-0.649923 -1.11732,-0.216535 -3.06498,-0.652659 -4.32814,-0.969165 -3.65909,-0.916851 -3.71162,-0.908094 -8.19389,1.365885 -3.53844,1.795148 -4.43294,2.400209 -4.99982,3.381997 -0.32441,0.561852 -0.7851,0.220681 -1.13842,-0.843084 -0.30667,-0.923287 -0.3033,-1.016757 0.0788,-2.180549 0.34961,-1.064976 0.37279,-1.361237 0.18676,-2.386609 -0.24672,-1.359818 -0.5473,-2.234809 -0.76771,-2.234809 0.29718,-2.7320902 1.61491,-5.4641792 3.40741,-8.1962692 0.0949,0 0.55945,-0.546786 1.16124,-1.301014 1.54107,-1.93144898 5.15462,-4.484232 5.91731,-4.180276 0.15234,0.06071 0.0891,0.110083 -0.15242,0.119021 -0.25544,0.0095 -0.4553,0.177971 -0.52438,0.442145 -0.14322,0.54767302 -0.0579,0.62067202 0.42416,0.36270602 0.53893,-0.28843102 0.80319,-0.26176102 0.80319,0.08106 0,0.159617 0.12044,0.290213 0.26764,0.290213 0.14721,0 0.31523,0.181933 0.37338,0.404296 0.08,0.306107 0.203,0.373424 0.50625,0.277176 0.31689,-0.100578 0.40053,-0.0436 0.40053,0.272865 0,0.445375 0.0697,0.464761 1.46857,0.408121 3.17013,-0.128361 9.32335,1.07596698 12.13526,2.37514898 6.26283,2.893604 11.14796,8.8151042 13.03752,15.8033862 -2.680478,3.532976 -6.645576,6.224305 -11.7425,8.174092 z"
           style="fill:url(#linearGradient4960);fill-opacity:1" />
        <path
           inkscape:connector-curvature="0"
           id="path4942"
           d="m 14.095197,16.778399 c 0.0658,-0.106411 0.15796,-0.193475 0.20489,-0.193475 0.0469,0 0.0853,0.08706 0.0853,0.193475 0,0.106412 -0.0922,0.193476 -0.2049,0.193476 -0.11269,0 -0.15108,-0.08706 -0.0853,-0.193476 z m 2.74089,-2.837635 c -0.0709,-0.07094 -0.12898,-0.276527 -0.12898,-0.45686 0,-0.244969 0.1217,-0.30461 0.48128,-0.235872 0.64171,0.122672 0.89874,-0.47275 0.37243,-0.862765 -0.36404,-0.269768 -0.36395,-0.278693 0.006,-0.552448 1.34013,-0.992896 2.249,0.816238 0.93093,1.853038 -0.47451,0.373247 -1.40073,0.515374 -1.6612,0.254907 z"
           style="fill:#2e2118" />
        <path
           style="fill:url(#linearGradient4962);fill-opacity:1"
           d="m 9.2143968,29.135908 4.9772602,1.73381 0.44829,0.93924 c 0.24656,0.51658 0.75869,1.25711 1.13805,1.64561 0.95084,0.97374 0.89605,1.17261 -0.32164,1.16751 -1.14571,-0.005 -2.31195,-0.46713 -3.448,-1.36689 -0.4179,-0.33098 -0.800597,-0.557467 -0.85431,-0.50728 -0.128303,0.11988 0.120635,1.756355 1.31156,3.47458 1.033069,1.490475 1.038273,1.31524 -0.2716,0.87478 -2.7538415,-0.926012 -6.644389,-3.110866 -5.8695567,-7.87564 z"
           id="path4944"
           inkscape:connector-curvature="0"
           sodipodi:nodetypes="ccsscsssscc" />
        <path
           style="fill:url(#linearGradient4964);fill-opacity:1"
           d="m 6.217625,18.589107 c 0.0835,0.152312 2.3784825,4.851863 4.081727,6.021708 5.19976,3.57137 6.554357,5.208382 7.340779,5.849429 0.20108,0.454566 0.6873,1.182567 1.08049,1.617779 0.87725,0.971015 0.75935,1.282405 -0.42412,1.120192 -1.19289,-0.163504 -2.37657,-0.722012 -3.30183,-1.557927 -1.276461,-1.153208 -1.33838,-0.56825 0.538959,2.605511 0.53794,0.909421 5.715254,5.123609 5.403509,5.117246 -0.840493,-0.01715 -7.852048,-2.014379 -11.7280286,-6.102259 L 6.248875,30.138714 Z"
           id="path4946"
           inkscape:connector-curvature="0"
           sodipodi:nodetypes="cscsssssscc" />
        <path
           sodipodi:nodetypes="cssccsscccsscc"
           inkscape:connector-curvature="0"
           id="path4948"
           d="m 51.377952,18.091674 c 0.66914,2.474737 0.796265,7.024297 0.314235,9.593495 -1.30752,6.969205 -6.25665,13.30512 -12.70784,16.268677 -2.43719,1.119599 -6.16866,2.148745 -6.16866,1.701326 l -4e-5,6e-6 c 0,-0.104671 0.44833,-0.478007 0.99629,-0.829635 1.21598,-0.780289 0.96228,-0.923586 -0.67218,-0.379674 -0.95762,0.31868 -3.64555,0.773764 -4.62894,0.783715 -0.315199,0.02561 0.01746,-0.408766 0.32832,-0.766942 3.082242,-2.558797 0.729706,-0.642036 3.27574,-2.701485 1.02591,-0.637324 1.93129,-1.746584 3.67494,-4.502455 2.45514,-3.880405 3.68031,-6.901492 3.93069,-9.692433 l 0.11807,-1.316128 C 40.08853,23.0207 40.238605,19.777097 51.377952,18.091674 Z"
           style="fill:url(#linearGradient4966);fill-opacity:1" />
      </g>
    </clipPath>
    <linearGradient
       y2="-3.3749998"
       x2="26"
       y1="45.875"
       x1="26.875"
       gradientUnits="userSpaceOnUse"
       id="linearGradient4950"
       xlink:href="#linearGradient4712"
       inkscape:collect="always" />
    <linearGradient
       y2="1136.2811"
       x2="-157.57214"
       y1="1226.1821"
       x1="-154.97885"
       gradientTransform="matrix(0.29417511,0,0,0.29417511,80.024024,-329.34359)"
       gradientUnits="userSpaceOnUse"
       id="linearGradient4952"
       xlink:href="#linearGradient4232"
       inkscape:collect="always" />
    <linearGradient
       y2="1181.605"
       x2="-292.61288"
       y1="1226.7684"
       x1="-292.89081"
       gradientTransform="matrix(0.35053369,0.11509027,-0.1139084,0.34693404,266.83575,-351.93005)"
       gradientUnits="userSpaceOnUse"
       id="linearGradient4954"
       xlink:href="#linearGradient4525"
       inkscape:collect="always" />
    <linearGradient
       y2="1135.239"
       x2="-293.4805"
       y1="1171.113"
       x1="-292.6893"
       gradientTransform="matrix(0.2748751,0.09024938,-0.08176784,0.24904262,205.51136,-240.75614)"
       gradientUnits="userSpaceOnUse"
       id="linearGradient4956"
       xlink:href="#linearGradient4501"
       inkscape:collect="always" />
    <linearGradient
       y2="-3.3749998"
       x2="26"
       y1="45.875"
       x1="26.875"
       gradientUnits="userSpaceOnUse"
       id="linearGradient4958"
       xlink:href="#linearGradient4718"
       inkscape:collect="always" />
    <linearGradient
       y2="-3.3749998"
       x2="26"
       y1="45.875"
       x1="26.875"
       gradientUnits="userSpaceOnUse"
       id="linearGradient4960"
       xlink:href="#linearGradient4724"
       inkscape:collect="always" />
    <linearGradient
       y2="-3.3749998"
       x2="26"
       y1="45.875"
       x1="26.875"
       gradientUnits="userSpaceOnUse"
       id="linearGradient4962"
       xlink:href="#linearGradient4730"
       inkscape:collect="always" />
    <linearGradient
       y2="-3.3749998"
       x2="26"
       y1="45.875"
       x1="26.875"
       gradientUnits="userSpaceOnUse"
       id="linearGradient4964"
       xlink:href="#linearGradient4736"
       inkscape:collect="always" />
    <linearGradient
       y2="-3.3749998"
       x2="26"
       y1="45.875"
       x1="26.875"
       gradientUnits="userSpaceOnUse"
       id="linearGradient4966"
       xlink:href="#linearGradient4664"
       inkscape:collect="always" />
    <linearGradient
       inkscape:collect="always"
       xlink:href="#linearGradient4536"
       id="linearGradient5917"
       gradientUnits="userSpaceOnUse"
       x1="42.086445"
       y1="47.986961"
       x2="49.343327"
       y2="19.682821"
       gradientTransform="matrix(-0.43578018,-0.10511077,-0.10069024,0.45491196,27.606722,15.894121)" />
    <linearGradient
       id="SVGID_20_"
       gradientUnits="userSpaceOnUse"
       x1="1385.6338"
       y1="-1840.5557"
       x2="1424.6338"
       y2="-1895.0557"
       gradientTransform="matrix(0.205,0,0,-0.205,-246.57195,-364.86885)">
      <stop
         offset="0"
         stop-color="#4187B8"
         id="stop186" />
      <stop
         offset="1"
         stop-color="#074E92"
         id="stop188" />
    </linearGradient>
    <linearGradient
       id="SVGID_12_"
       gradientUnits="userSpaceOnUse"
       x1="1300.1016"
       y1="-1832.4663"
       x2="1262.5785"
       y2="-1897.4489"
       gradientTransform="matrix(0.26998242,0,0,-0.2483859,-334.04991,-452.26894)">
      <stop
         offset="0.01"
         stop-color="#1B609D"
         id="stop106" />
      <stop
         offset="0.5"
         stop-color="#9FD2E5"
         id="stop108" />
      <stop
         offset="1"
         stop-color="#4187B8"
         id="stop110" />
    </linearGradient>
    <linearGradient
       id="SVGID_18_"
       gradientUnits="userSpaceOnUse"
       x1="1438.6904"
       y1="-1956.8853"
       x2="1438.6904"
       y2="-1867.8124"
       gradientTransform="matrix(0.205,0,0,-0.205,-251.15218,-369.38145)">
      <stop
         offset="0"
         stop-color="#A4D8E5"
         id="stop168" />
      <stop
         offset="0.2"
         stop-color="#0C418F"
         id="stop170" />
      <stop
         offset="0.5"
         stop-color="#000040"
         id="stop172" />
    </linearGradient>
    <linearGradient
       id="SVGID_18_-6"
       gradientUnits="userSpaceOnUse"
       x1="1438.6904"
       y1="-1956.8853"
       x2="1438.6904"
       y2="-1867.8124"
       gradientTransform="matrix(0.205,0,0,-0.205,-249.73797,-366.81818)"
       xlink:href="#SVGID_18_">
      <stop
         offset="0"
         stop-color="#A4D8E5"
         id="stop168-4" />
      <stop
         offset="0.2"
         stop-color="#0C418F"
         id="stop170-9" />
      <stop
         offset="0.5"
         stop-color="#000040"
         id="stop172-5" />
    </linearGradient>
    <linearGradient
       inkscape:collect="always"
       xlink:href="#linearGradient4326"
       id="linearGradient6002"
       gradientUnits="userSpaceOnUse"
       gradientTransform="matrix(0.19279009,0,0,-0.19279009,-236.71873,-340.48229)"
       x1="1457.797"
       y1="-1953.3125"
       x2="1472.1146"
       y2="-1837.0051" />
    <linearGradient
       inkscape:collect="always"
       xlink:href="#linearGradient4332"
       id="linearGradient6012"
       gradientUnits="userSpaceOnUse"
       x1="45.552677"
       y1="34.299805"
       x2="53.414715"
       y2="12.173937"
       gradientTransform="matrix(0.94043942,0,0,0.94043942,-3.1917988,0.65183314)" />
    <linearGradient
       id="SVGID_21_"
       gradientUnits="userSpaceOnUse"
       x1="1415.5928"
       y1="-1878.2056"
       x2="1388.0631"
       y2="-1830.5262"
       gradientTransform="matrix(0.205,0,0,-0.205,-247.96837,-368.11802)"
       xlink:href="#SVGID_12_">
      <stop
         offset="0.01"
         stop-color="#1B609D"
         id="stop193" />
      <stop
         offset="0.5"
         stop-color="#9FD2E5"
         id="stop195" />
      <stop
         offset="1"
         stop-color="#4187B8"
         id="stop197" />
    </linearGradient>
    <linearGradient
       inkscape:collect="always"
       xlink:href="#linearGradient4724"
       id="linearGradient6046"
       x1="36.44672"
       y1="25.54936"
       x2="43.279568"
       y2="3.2754962"
       gradientUnits="userSpaceOnUse"
       gradientTransform="matrix(0.9398931,0.03205085,-0.03205085,0.9398931,-3.8352808,1.7409208)" />
    <linearGradient
       inkscape:collect="always"
       xlink:href="#linearGradient4340"
       id="linearGradient4346"
       x1="8.3968935"
       y1="5.6619811"
       x2="5.8987327"
       y2="16.00326"
       gradientUnits="userSpaceOnUse"
       gradientTransform="matrix(0.95832426,0,0,0.95832426,0.7147595,1.000435)" />
    <linearGradient
       id="linearGradient5263-9">
      <stop
         id="stop5265-9"
         style="stop-color:#cbcbcb;stop-opacity:1"
         offset="0" />
      <stop
         id="stop5267-6"
         style="stop-color:#ffffff;stop-opacity:1"
         offset="1" />
    </linearGradient>
    <linearGradient
       inkscape:collect="always"
       xlink:href="#linearGradient4736"
       id="linearGradient4562"
       gradientUnits="userSpaceOnUse"
       gradientTransform="matrix(0.14490169,0.12716728,0.12716728,-0.14490169,60.111479,-420.77202)"
       x1="1438.6904"
       y1="-1956.8853"
       x2="1464.9913"
       y2="-1841.0803" />
    <linearGradient
       inkscape:collect="always"
       xlink:href="#linearGradient4332"
       id="linearGradient4745"
       x1="36.265823"
       y1="29.560484"
       x2="36.316914"
       y2="9.231163"
       gradientUnits="userSpaceOnUse"
       gradientTransform="matrix(1.065956,0.18993258,-0.18993258,1.065956,0.73637865,-8.6687166)" />
  </defs>
  <path
     inkscape:connector-curvature="0"
     style="fill:url(#linearGradient4562);fill-opacity:1;stroke-width:0.95832425"
     d="m 33.913582,31.975647 c -0.567671,0.03455 -1.501284,0.720922 -2.768284,2.002747 -0.169339,-0.999482 -0.572444,-1.687996 -1.05191,-1.806216 -0.948928,-0.234695 -3.255035,1.952589 -6.919775,6.560403 -1.637347,2.668378 -6.184685,4.707414 -6.180443,4.711137 0.003,0.0026 1.360826,0.780274 4.035444,-0.168456 0.0456,0.02566 0.458922,0.229019 1.242827,0.278888 -0.619414,0.509559 -1.207169,0.954107 -1.577867,1.085601 -0.0036,-0.0032 3.165254,0.917696 7.393322,-2.940483 0.211234,-0.192817 0.40103,-0.392163 0.587722,-0.591466 0.145086,-0.103901 0.285071,-0.196406 0.434241,-0.308834 0,0 -3.237702,3.247986 -4.402302,3.661097 -0.0036,-0.0032 3.165254,0.917697 7.393322,-2.940482 4.22736,-3.8588 3.430149,-9.176066 2.006491,-9.527091 -0.05931,-0.01467 -0.122874,-0.0211 -0.192788,-0.01685 z"
     id="path4560"
     clip-path="none" />
  <rect
     style="opacity:1;fill:url(#linearGradient4497);fill-opacity:1;stroke:none;stroke-width:1.43748641;stroke-linecap:round;stroke-linejoin:round;stroke-miterlimit:4;stroke-dasharray:none;stroke-dashoffset:0;stroke-opacity:1"
     id="rect4489"
     width="37.426754"
     height="26.186769"
     x="49.754738"
     y="120.84146"
     rx="0"
     ry="1.3832693"
     transform="rotate(18.176492)"
     clip-path="none" />
  <g
     id="g966"
     transform="rotate(-0.66392453,-5231.5228,85.763156)">
    <path
       sodipodi:nodetypes="sssssssss"
       inkscape:connector-curvature="0"
       id="rect4285"
       d="m 33.17904,64.085795 33.671122,0.193183 c 0.766319,0.0044 1.38327,0.616938 1.38327,1.383269 v 23.420231 c 0,0.766331 -0.616951,1.387666 -1.38327,1.383269 L 33.17904,90.272564 c -0.766318,-0.0044 -1.383269,-0.616938 -1.383269,-1.383269 V 65.469064 c 0,-0.766331 0.616951,-1.387666 1.383269,-1.383269 z"
       clip-path="none"
       style="opacity:1;fill:#000000;fill-opacity:0.66666667;stroke:none;stroke-width:1.43748641;stroke-linecap:round;stroke-linejoin:round;stroke-miterlimit:4;stroke-dasharray:none;stroke-dashoffset:0;stroke-opacity:1"
       transform="rotate(18.176492)" />
    <g
       transform="translate(0.32442491,0.89816605)"
       id="g959">
      <path
         style="fill:url(#linearGradient4517);fill-opacity:1;fill-rule:evenodd;stroke:none;stroke-width:0.84167856px;stroke-linecap:butt;stroke-linejoin:miter;stroke-miterlimit:4;stroke-dasharray:none;stroke-opacity:1"
         d="M 3.1793566,93.620339 10.314733,72.493922 23.651798,87.23979 42.821389,83.166789 c 0,0 -6.754509,20.559261 -7.054577,21.368821 -0.126616,0.3416 -0.672481,0.52282 -1.016244,0.40219 L 19.432684,99.562775 3.7511993,94.510952 C 3.4153971,94.402771 3.0664655,93.954586 3.1793566,93.620339 Z"
         id="path4509"
         inkscape:connector-curvature="0"
         sodipodi:nodetypes="scccsscss"
         clip-path="none" />
      <path
         sodipodi:nodetypes="cccc"
         inkscape:connector-curvature="0"
         id="path4499"
         d="m 10.655243,71.396557 13.374156,14.40244 18.990209,-3.77629 z"
         style="fill:url(#linearGradient4507);fill-opacity:1;fill-rule:evenodd;stroke:none;stroke-width:0.84167856px;stroke-linecap:butt;stroke-linejoin:miter;stroke-miterlimit:4;stroke-dasharray:none;stroke-opacity:1"
         clip-path="none" />
    </g>
  </g>
  <path
     inkscape:connector-curvature="0"
     style="fill:#000000;fill-opacity:0.07843137;stroke-width:0.95832425"
     clip-path="none"
     d="m 10.314848,12.494711 -0.6794372,2.010235 c 0.1238457,0.357297 0.2502876,0.850234 0.3649862,1.482408 0.17495,0.9643 0.152845,1.242655 -0.1759418,2.244201 -0.3593419,1.094475 -0.3613972,1.184989 -0.072997,2.053284 0.1446105,0.435389 0.3077028,0.740072 0.4716748,0.904044 l 23.519277,23.437551 1.199777,0.421138 c 0.343762,0.120625 0.889732,-0.06083 1.016348,-0.402421 0.291787,-0.787215 6.31525,-19.814828 6.667938,-20.888258 0.0106,-0.18756 0.02094,-0.371721 0.02995,-0.554031 l -19.005517,4.037314 z"
     id="path5063"
     sodipodi:nodetypes="cccccsccccccc" />
  <path
     style="fill:url(#linearGradient4710);fill-opacity:1;stroke-width:0.95832425"
     d="M 3.9309271,33.072691 C 1.044016,29.480712 1.6689447,27.322126 2.0736863,22.512493 2.6282116,15.92289 5.9643414,10.384181 12.29307,6.7153204"
     id="path4593"
     inkscape:connector-curvature="0"
     clip-path="none" />
  <path
     inkscape:connector-curvature="0"
     id="path4240"
     d="m 30.320517,13.791103 c 0,-0.09507 -0.08802,-0.202195 -0.195593,-0.238055 -0.107586,-0.03586 -0.195602,0.07127 -0.195602,0.238055 0,0.166788 0.08802,0.273912 0.195602,0.238051 0.107577,-0.03586 0.195593,-0.142984 0.195593,-0.238051 z"
     style="fill:url(#linearGradient4702);fill-opacity:1;stroke-width:0.95832425"
     clip-path="none" />
  <path
     style="fill:url(#linearGradient5917);fill-opacity:1;stroke-width:0.95832425"
     d="m 3.3955739,18.723864 c -0.5407793,1.055456 -1.0542746,3.111741 -1.1029095,4.331167 -0.1319388,3.307809 1.3868296,6.710297 3.899728,8.736546 0.9493492,0.765495 2.786021,1.968642 2.8310719,1.765105 0.070242,-0.04364 -0.785271,-0.652061 -0.7362162,-0.853447 -0.4513324,-0.482776 -0.2549371,-0.492732 0.4025622,-0.0735 0.3852236,0.245626 1.5107467,0.735181 1.9382877,0.843073 0.134778,0.04478 0.03353,-0.187791 -0.06587,-0.383402 C 9.4767029,31.601401 10.308892,32.720636 9.4067471,31.516151 9.0238434,31.118388 8.7409895,30.518606 8.258631,29.08165 7.1168122,26.940315 5.9880605,25.88585 6.4927715,21.903967 6.7090159,20.408584 8.0801596,20.661447 3.395557,18.723863 Z"
     id="path5915"
     inkscape:connector-curvature="0"
     sodipodi:nodetypes="cssccsccccccc"
     clip-path="none" />
  <path
     d="m 10.381579,10.884084 0.0038,-0.0019 c -0.179624,0.28119 -0.331975,0.574608 -0.4382446,0.888714 -0.5266461,1.041067 -0.196552,2.614422 -0.069593,3.792793 0.1100314,0.414734 0.2388716,0.840753 0.4721016,1.073981 l 0.284953,0.09687 c -0.0057,-0.657367 0.227586,-1.266772 0.198432,-1.928841 -0.0442,-0.802195 -0.254858,-1.606271 -0.09311,-2.410347 0.133543,-0.707211 0.553919,-1.320377 0.725079,-2.022886 0.206897,-0.8736675 0.181505,-1.8141069 0.304702,-2.704703 -0.519122,0.9178689 -0.987462,1.979625 -1.384327,3.216303"
     id="path253"
     inkscape:connector-curvature="0"
     style="fill:#ffffff;fill-opacity:0.07843137;stroke-width:0.95832425"
     clip-path="none" />
  <path
     d="m 28.39619,11.375976 c 0.527112,0.767942 -0.105599,0.999491 -1.388179,0.834367 3.820933,1.336641 2.970895,0.242458 1.393817,-0.834174 l -0.0056,-1.93e-4 z m 3.664434,-0.420812 c 3.621042,0.520575 2.678934,-0.301979 1.09773,-0.9816552 0.5953,0.5895962 0.07457,0.9040082 -1.09115,0.9818802 l -0.0065,-2.25e-4 z m 2.515673,2.802414 c 0.48378,0.852092 -0.200089,1.038611 -1.533113,0.752262 3.889989,1.739855 3.096101,0.51679 1.537813,-0.752103 z m 1.859053,-0.928406 c 0.485597,0.854038 -0.19727,1.038709 -1.531232,0.752328 3.889988,1.739854 3.09704,0.51682 1.535932,-0.752168 z m -8.235233,0.51619 c 3.895627,1.740047 3.100799,0.51695 1.543452,-0.751911 0.478141,0.851901 -0.205666,1.036541 -1.535933,0.752168 l -0.0075,-2.57e-4 z m 3.674552,0.524282 c 0.48378,0.852092 -0.199086,1.036765 -1.533113,0.752263 3.889989,1.739855 3.09704,0.516823 1.537811,-0.752103 l -0.0047,-1.6e-4 z m 3.409448,-1.911562 c -0.283674,-0.23551 -0.740984,-0.511757 -1.258925,-0.775958 0.651616,0.731724 0.02138,1.056516 -1.342168,1.058008 2.93918,0.620594 3.29381,0.292991 2.623331,-0.271881 4.116521,0.863993 3.0844,-0.16112 1.302949,-1.066874 0.634955,0.723628 0.01977,1.047992 -1.319515,1.055958 l -0.0056,-1.93e-4 z m -4.297239,1.427733 c 4.175224,0.881051 3.140411,-0.147917 1.349688,-1.057752 0.647921,0.729716 0.01761,1.056387 -1.344988,1.057912 z m 0.08318,-2.163314 c 0.249612,0.489356 -0.299106,0.68613 -1.325469,0.65113 3.401071,0.845244 2.754806,0.03936 1.367882,-0.763543 -0.03221,-0.241991 -0.519604,-0.712167 -1.138584,-1.1868299 0.434759,0.7168019 -0.146247,0.8945959 -1.294633,0.6851169 1.540381,0.634999 2.228586,0.762915 2.395504,0.614286 z m 5.915959,4.222571 c 3.72016,2.498145 3.117968,1.089656 1.730679,-0.502752 0.344301,0.968724 -0.39766,1.037521 -1.725039,0.502945 l -0.0056,-1.93e-4 z m -2.049926,0.813682 c 3.720159,2.498144 3.117029,1.089623 1.730679,-0.502751 0.342422,0.96866 -0.398599,1.037489 -1.7241,0.502976 l -0.0065,-2.25e-4 z m -8.411927,-3.71204 c 0.48566,0.852157 -0.19821,1.038677 -1.531232,0.752327 3.889987,1.739855 3.096099,0.51679 1.535932,-0.752167 z m 12.641818,0.423565 c 0.333654,0.922252 -0.370584,0.988572 -1.634821,0.478732 3.536059,2.378007 2.960729,1.037244 1.641401,-0.478509 l -0.0065,-2.23e-4 z m -6.892036,3.34637 c 3.905008,2.623953 3.272261,1.14573 1.816168,-0.526183 0.36059,1.015387 -0.417312,1.089546 -1.809588,0.526409 l -0.0065,-2.26e-4 z m -4.02993,-2.327096 c 0.484721,0.852124 -0.200025,1.036732 -1.533112,0.752263 3.889989,1.739854 3.097039,0.516821 1.537811,-0.752104 z m 2.677068,1.601572 c 0.485596,0.854037 -0.197271,1.038708 -1.531232,0.752328 3.889988,1.739854 3.097039,0.51682 1.535932,-0.752169 z m -0.561163,2.493297 c 3.444656,3.540772 3.113413,1.885573 1.981181,-0.14981 0.149806,1.125824 -0.664686,1.031239 -1.97554,0.150002 l -0.0056,-1.92e-4 z"
     id="path199"
     style="fill:url(#linearGradient6046);fill-opacity:1;stroke-width:0.95832425"
     inkscape:connector-curvature="0"
     clip-path="none" />
  <path
     style="fill:url(#linearGradient4678);fill-opacity:1;stroke-width:0.95832425"
     d="m 3.1998148,18.99482 c 2.9052813,5.832928 7.6779652,6.229168 10.7845282,12.307598 0.189102,0.427493 0.646363,1.112133 1.016134,1.521424 0.825001,0.913181 0.714123,1.206024 -0.398858,1.053473 -1.121841,-0.153766 -2.23502,-0.679009 -3.105172,-1.465136 -1.200434,-1.084522 -1.258665,-0.534405 0.506859,2.450325 0.5059,0.855255 5.374849,4.818444 5.081673,4.812461 -0.790433,-0.01613 -7.384376,-1.894402 -11.029501,-5.738806 l -2.7839221,-2.93612 z"
     id="path4423"
     inkscape:connector-curvature="0"
     sodipodi:nodetypes="ccsssssscc"
     clip-path="none" />
  <path
     style="fill:url(#linearGradient4686);fill-opacity:1;stroke-width:0.95832425"
     d="m 6.0604495,30.056961 4.6808125,1.630543 0.421588,0.883299 c 0.231876,0.485812 0.713504,1.182235 1.070268,1.547596 0.894207,0.915744 0.842681,1.102769 -0.302483,1.097973 -1.077471,-0.0047 -2.174249,-0.439308 -3.2426352,-1.285477 -0.3930096,-0.311267 -0.752913,-0.524265 -0.8034269,-0.477067 -0.1206611,0.11274 0.1134499,1.651746 1.2334428,3.267632 0.9715393,1.401702 0.9764333,1.236904 -0.2554234,0.822678 C 6.2727712,36.673279 2.6139471,34.618556 3.3426298,30.137576 Z"
     id="path4597"
     inkscape:connector-curvature="0"
     sodipodi:nodetypes="ccsscsssscc"
     clip-path="none" />
  <path
     inkscape:connector-curvature="0"
     id="path4338"
     d="M 3.9309271,33.072691 C 1.044016,29.480712 1.6689447,27.322126 2.0736863,22.512493 2.6282116,15.92289 5.9643414,10.384181 12.29307,6.7153204"
     style="fill:url(#linearGradient4346);fill-opacity:1;stroke-width:0.95832425"
     clip-path="none" />
  <path
     style="fill:url(#linearGradient4694);fill-opacity:1;stroke-width:0.95832425"
     d="M 18.397204,1.20356 C 15.615937,2.2971895 14.172992,3.6212476 12.482308,6.1795038 10.79657,8.7488689 9.5573906,11.31791 9.2779109,13.887276 c 0.2072822,0 0.4904614,0.823123 0.7224861,2.101949 0.174951,0.964301 0.152845,1.242656 -0.1759418,2.244201 -0.3593419,1.094477 -0.3632737,1.181251 -0.074869,2.049542 0.3322758,1.000406 0.7655408,1.322001 1.0706278,0.793612 0.533118,-0.923312 1.37409,-1.491837 4.701778,-3.180065 4.215304,-2.13854 4.264748,-2.14812 7.705901,-1.285877 1.187925,0.297656 3.020234,0.707893 4.071006,0.911531 1.050772,0.203638 2.278649,0.479526 2.728979,0.612055 0.814796,0.23979 0.822146,0.248608 1.360744,1.772526 0.507019,1.43451 0.541849,1.703426 0.546545,4.260051 0.0041,2.429003 -0.04266,2.848593 -0.419267,3.820195 -0.23273,0.60044 -0.468319,1.328982 -0.524083,1.617172 l -0.101074,0.524083 1.11555,-0.08236 c 0.94723,-0.06852 1.423732,-0.03474 2.234842,-0.851636 l 0.494136,-0.496005 c -0.258753,2.592327 -1.406926,5.402079 -3.681688,8.997393 -1.639797,2.591728 -2.492273,3.634481 -3.45708,4.233845 -2.394391,1.936787 -0.1822,0.135413 -3.080862,2.541806 -0.292349,0.336843 -0.605259,0.744698 -0.308835,0.720615 0.924819,-0.0094 3.453054,-0.437762 4.353637,-0.73746 1.537111,-0.511516 1.7762,-0.376314 0.632644,0.3575 -0.515324,0.330685 -0.937736,0.682073 -0.937736,0.78051 0,0.420769 3.510326,-0.547412 5.802355,-1.600327 6.066953,-2.787047 10.721334,-8.745383 11.950977,-15.299497 0.384162,-2.047567 0.351571,-5.422221 -0.04866,-7.823819 0.06699,-0.0851 0.142394,-0.164655 0.207762,-0.250812 C 44.390762,14.045951 39.795908,8.4777528 33.906096,5.7564935 31.261665,4.5346915 25.47549,3.4028074 22.494175,3.5235231 c -1.31555,0.053267 -1.381334,0.035144 -1.381334,-0.383704 0,-0.2976159 -0.0782,-0.3510142 -0.376217,-0.2564266 -0.285189,0.090516 -0.402053,0.025834 -0.477291,-0.2620419 -0.05469,-0.2091187 -0.21157,-0.3799605 -0.350012,-0.3799605 -0.138433,0 -0.252684,-0.1231621 -0.252684,-0.2732722 0,-0.3224024 -0.247473,-0.346121 -0.754305,-0.074869 -0.453348,0.2426014 -0.533369,0.1725272 -0.398678,-0.342526 0.159879,-0.2244839 0.421919,-0.2243993 0.769362,-0.3567373 -0.08902,-0.06206 -0.264686,-0.1490002 -0.875812,0.00957 z"
     id="path4413"
     inkscape:connector-curvature="0"
     clip-path="none"
     sodipodi:nodetypes="cccccccssscccccccccccccccsscccsssscsscccc" />
  <path
     d="m 38.615051,29.247061 c 0.529468,3.085582 -1.543261,7.617559 -1.537619,7.617559 0.0056,0 3.096867,-0.607523 4.464266,-7.196242 0,0 -0.291536,4.575239 -0.894357,5.653922 -0.0047,0 2.984954,-1.397493 3.617869,-7.086211 0.892064,-8.549688 -3.426585,-9.691603 -4.776491,-8.484645 -0.868025,0.44953 -1.158622,3.61505 -0.873668,9.495617 z"
     id="path174"
     style="fill:url(#linearGradient6002);fill-opacity:1;stroke-width:0.95832425"
     inkscape:connector-curvature="0"
     sodipodi:nodetypes="csccccc"
     clip-path="none" />
  <path
     d="m 37.278544,25.410887 c 0.529467,3.085582 -1.543262,7.617559 -1.537619,7.617559 0.0057,0 3.096867,-0.607524 4.464266,-7.196242 0,0 -0.291537,4.575238 -0.894358,5.653922 -0.0047,0 2.984955,-1.397494 3.617871,-7.086211 0.631975,-5.688718 -3.474924,-9.159881 -4.776493,-8.484644 -0.868025,0.449529 -1.15862,3.615049 -0.873667,9.495616 z"
     id="path174-0"
     style="fill:url(#linearGradient6012);fill-opacity:1;stroke-width:0.95832425"
     inkscape:connector-curvature="0"
     clip-path="none" />
  <path
     style="fill:url(#linearGradient4745);fill-opacity:1;fill-rule:evenodd;stroke:none;stroke-width:0.95832425px;stroke-linecap:butt;stroke-linejoin:miter;stroke-opacity:1"
     d="m 43.279466,17.825986 c -3.330035,-4.373225 -6.597472,-4.820259 -9.597186,-3.644232 -0.166855,3.43061 5.311237,4.568013 6.601285,6.056073 1.128526,1.539641 1.823467,3.208192 1.685887,5.124045 0,0 0.890903,0.123299 1.46744,-0.636748 -0.13514,1.759977 -0.430602,3.45979 -1.528645,4.85241 2.359303,-2.288648 3.569601,-5.293552 1.703994,-9.626398 l 1.097201,-0.0035 c -0.477655,-0.791679 -0.954261,-1.496962 -1.429979,-2.121708 z m -3.526719,13.487565 c -0.0081,0.0043 -0.01589,0.0082 -0.02415,0.01253 -4.17e-4,0.0018 -0.0012,0.0035 -0.0015,0.0052 0.0086,-0.0058 0.01703,-0.01182 0.02566,-0.0177 z"
     id="path4155"
     inkscape:connector-curvature="0"
     sodipodi:nodetypes="scccccccsccccc"
     clip-path="none" />
  <path
     inkscape:connector-curvature="0"
     id="path4206"
     d="m 10.650547,18.435473 c 0.06188,-0.100073 0.148551,-0.181952 0.192686,-0.181952 0.0441,0 0.08022,0.08187 0.08022,0.181952 0,0.100074 -0.08671,0.181952 -0.192696,0.181952 -0.105978,0 -0.142082,-0.08188 -0.08022,-0.181952 z m 2.577641,-2.668624 c -0.06668,-0.06672 -0.121298,-0.260057 -0.121298,-0.429649 0,-0.230379 0.114451,-0.286467 0.452613,-0.221825 0.603491,0.115366 0.845212,-0.444591 0.350249,-0.811376 -0.342357,-0.253702 -0.342272,-0.262095 0.0056,-0.519545 1.260312,-0.933758 2.11505,0.767622 0.875484,1.74267 -0.446248,0.351016 -1.317301,0.484678 -1.562258,0.239725 z"
     style="fill:#2e2118;stroke-width:0.95832425"
     clip-path="none" />
</svg>
