<svg height="48" width="48" xmlns="http://www.w3.org/2000/svg" xmlns:xlink="http://www.w3.org/1999/xlink">
  <linearGradient gradientUnits="userSpaceOnUse" x1="26.48" x2="26.635258" xlink:href="#b" y1="12.062373" y2="41.330563" />
  <linearGradient id="a" gradientUnits="userSpaceOnUse" x1="26.48" x2="26.635258" xlink:href="#b" y1="15.52" y2="41.330563" />
  <linearGradient id="b">
    <stop offset="0" stop-color="#fff" />
    <stop offset="1" stop-color="#ececec" />
  </linearGradient>
  <linearGradient id="c" gradientUnits="userSpaceOnUse" x1="399.57144" x2="399.57144" y1="545.79797" y2="517.79797">
    <stop offset="0" stop-color="#3889e9" />
    <stop offset="1" stop-color="#5ea5fb" />
  </linearGradient>
  <linearGradient id="d" gradientUnits="userSpaceOnUse" x1="-321.182097" x2="-321.70724" y1="656.027547" y2="241.07721">
    <stop offset="0" stop-color="#d72525" />
    <stop offset="1" stop-color="#e25858" />
  </linearGradient>
  <linearGradient id="e" gradientUnits="userSpaceOnUse" x1="-321.64728" x2="-322.17639" xlink:href="#b" y1="240.22079" y2="657.81665" />
  <circle cx="400.57138" cy="531.79791" fill="url(#c)" r="0" transform="matrix(1.63746654 0 0 1.63746654 -644.580187 -848.719334)" />
  <g transform="matrix(.10497695 0 0 .10497695 57.813568 -23.136613)">
    <circle cx="-322.32336" cy="449.23737" fill="url(#d)" r="209.75679" />
    <circle cx="-322.10468" cy="449.01868" fill="none" r="209.96635" stroke="url(#e)" stroke-linecap="round" stroke-linejoin="round" stroke-width="18.258703" />
  </g>
  <path d="m36.44 11.84c-1.64 0-3.76-.2-7.24-.8-3.12-.48-4.88-.72-6.12-.72-.28 0-.52 0-.76.04-4.56.36-10.32 3.64-11.24 7.96-.04.24-.04.56-.04.88 0 1.16.36 1.8.84 2.52.32.4 1.36 1.4 1.44 1.4.12-.04 3.32-2.68 3.32-2.76-.04-.04-.04-.12-.04-.2-.04-.12-.08-.16-.4-.36-.6-.4-.92-.6-1.36-1.08-.64-.64-1.04-1.12-1.04-2.16 0-.72.24-1 .6-1.36.76-.76 1.76-1.08 3.2-1.08 1.32 0 2.48.24 4.4.6 1.8.28 4.4.76 4.48.8.08 0 0 .08-.28.36-1.88 1.6-3.56 3.64-4.8 5.84l-.28.52c.64 1.24 1.36 2.24 3.24 4 1.2 1.16 1.72 1.68 2.12 2.2.52.64.76 1.04.76 1.48 0 .8-.36 1.32-.92 1.88l-.28.32h-3.6l-.6.32c-2.28 1.16-4.6 2.8-7 4.88 0 .04.04.24.12.48l.08.44.44-.32c1.48-1.12 2.84-1.84 3.76-2.04.24-.04.8-.08 1.36-.08.32 0 .68 0 .88.04 1 .12 2.04.44 4.12 1.28 2.52 1 3.8 1.4 5.28 1.52.28.04.44.04.6.04.32 0 .48-.08 1.04-.48 2.24-1.52 4.92-3.56 6.28-4.8l.2-.24-.2-.44c-.12-.24-.24-.44-.24-.44-.04 0-.2.12-.4.24-1.44.88-2.96 1.6-3.96 1.88-.24.08-.6.08-.96.08-.28 0-.56 0-.76-.04-.8-.2-1.72-.52-2.96-1.04-.96-.4-2.12-.92-2.12-.96l.6-.52c1.4-1.2 2.52-2.28 3.04-3 .44-.56.72-1.16.72-1.56 0-.72-.76-1.76-2.48-3.36-1.64-1.6-2.2-2.2-2.72-2.96-.48-.72-.68-1.24-.68-1.8 0-1.52 1-2.72 2.36-3.4l.84.16c1.56.24 2.88.36 4.04.36 1.2 0 2.28-.12 3.24-.4l.52-.12 2.28-2.2c1.52-1.44 2.36-2.2 2.72-2.64l-.32-.96c-1.24 1-3.12 1.8-5.12 1.8z" fill="url(#a)" transform="matrix(.857968 0 0 .857968 1.298167 3.0999)" />
</svg>
