<?xml version="1.0" encoding="UTF-8"?><svg version="1.1" viewBox="0 0 48 48" xmlns="http://www.w3.org/2000/svg" xmlns:cc="http://creativecommons.org/ns#" xmlns:dc="http://purl.org/dc/elements/1.1/" xmlns:rdf="http://www.w3.org/1999/02/22-rdf-syntax-ns#"><metadata><rdf:RDF><cc:Work rdf:about=""><dc:format>image/svg+xml</dc:format><dc:type rdf:resource="http://purl.org/dc/dcmitype/StillImage"/><dc:title/></cc:Work></rdf:RDF></metadata><g transform="matrix(.98188 0 0 .98188 -377.83 -490.56)"><path d="m409.24 502.6c-11.836 0-21.451 9.6149-21.451 21.451s9.6149 21.451 21.451 21.451c11.836 0 21.451-9.6149 21.451-21.451 0-11.836-9.6149-21.451-21.451-21.451z" fill="#cacdd0"/><path d="m409.18 501.71c-12.352 0-22.406 10.054-22.406 22.406s10.054 22.406 22.406 22.406c12.352 0 22.406-10.054 22.406-22.406 0-12.352-10.054-22.406-22.406-22.406zm0 2.0371c11.249 0 20.369 9.1197 20.369 20.369 1e-5 11.249-9.1197 20.369-20.369 20.369-11.249 0-20.369-9.1197-20.369-20.369s9.1197-20.369 20.369-20.369z" fill="#cacdd0"/><path d="m398.67 535.09-2.3e-4 -0.74101 1.429-6.1398c0.78593-3.3769 1.4598-6.1598 1.4974-6.1843 0.0377-0.0258 1.4864-0.0448 3.2194-0.0452l3.151-8.4e-4 0.0397-1.3157c0.0226-0.72363 0.0397-2.1239 0.0397-3.1116l1.6e-4 -1.796-2.5255-0.0194c-2.5003-0.0194-2.5283-0.0194-2.8101-0.1591-0.5465-0.26915-0.84899-0.75863-0.84935-1.3743-3.5e-4 -0.65281 0.39937-1.2067 1.0329-1.4313 0.17718-0.063 1.5287-0.0787 6.6643-0.0787 7.3294 0 6.7806-0.0387 7.276 0.51236 0.6904 0.76789 0.48289 1.8953-0.43149 2.3443l-0.34177 0.16781-2.4801 0.029-2.4801 0.029-0.029 3.0548-0.029 3.0548-1.5123 0.029-1.5123 0.029-0.0371 1.2098c-0.0194 0.6654-0.041 1.6739-0.0455 2.2412-7e-3 0.71171-0.0323 1.0539-0.0807 1.104-0.0523 0.0523-0.46644 0.0726-1.482 0.0726-0.98409 0-1.4094 0.0194-1.4094 0.0665 0 0.0913 4.5379 4.7123 4.6276 4.7123 0.0397 0 0.34157-0.27948 0.67111-0.62093 0.32953-0.34147 1.3409-1.3871 2.2475-2.3236 0.90661-0.93648 1.6484-1.7323 1.6484-1.7685 0-0.0455-0.44255-0.0661-1.4366-0.0668-0.79016-4.7e-4 -1.471-0.0226-1.513-0.0494-0.0597-0.0381-0.0729-0.53546-0.0604-2.2826l0.0161-2.2341 3.2024-0.0161c1.7613-0.01 3.2232 7e-3 3.2486 0.029 0.0258 0.0258 0.64626 2.8296 1.3797 6.2317 1.3015 6.0367 1.3336 6.2022 1.3336 6.8806v0.69502h-21.656l-2.3e-4 -0.74098z" stroke-width=".060491"/></g></svg>
