<svg height="48" width="48" xmlns="http://www.w3.org/2000/svg" xmlns:xlink="http://www.w3.org/1999/xlink"><linearGradient gradientUnits="userSpaceOnUse" x1="0" x2="47" y1="23.5" y2="23.5"><stop offset="0" stop-color="#a9a3d4"/><stop offset=".47001833" stop-color="#87baff"/><stop offset="1" stop-color="#89ec85"/></linearGradient><linearGradient id="a" gradientTransform="matrix(.29592944 0 0 .29100166 -2.30115 1012.7314)" gradientUnits="userSpaceOnUse" x1="10.09375" x2="122.719" y1="107.36093" y2="107.36093"><stop offset="0" stop-color="#1a1a1a"/><stop offset=".11054216" stop-color="#2c2c2e"/><stop offset=".29001436" stop-color="#2b2b2d"/><stop offset=".5118711" stop-color="#2a2b2d"/><stop offset=".75173318" stop-color="#2b2b2d"/><stop offset=".89659214" stop-color="#323232"/><stop offset="1" stop-color="#171717"/></linearGradient><linearGradient id="b" gradientUnits="userSpaceOnUse" x1="16.811886954348" x2="16.956364022284" y1="1040.815362807651" y2="1014.203480278794"><stop offset="0" stop-color="#b6b9bf"/><stop offset="1" stop-color="#dddfe2"/></linearGradient><linearGradient id="c" gradientTransform="matrix(.60206209 0 0 1.1912687 -253.55758 396.70515)" gradientUnits="userSpaceOnUse" x1="451.02078" x2="451.13049" xlink:href="#g" y1="544.14978" y2="541.28625"/><linearGradient id="d" gradientUnits="userSpaceOnUse" x1="29.995515026211" x2="29.995515026211" y1="1045.692630963526" y2="1043.164103584341"><stop offset="0" stop-color="#040404"/><stop offset="1" stop-color="#121212" stop-opacity=".908163"/></linearGradient><linearGradient id="e" gradientTransform="matrix(.30527986 0 0 .30527988 13.5369 1004.415)" gradientUnits="userSpaceOnUse" x1="13.680945" x2="12.928445" xlink:href="#g" y1="76.274841" y2="-23.013672"/><linearGradient id="f" gradientUnits="userSpaceOnUse" x1="-75.713090573416" x2="-75.713090573416" y1="1019.624805370517" y2="979.624674570517"><stop offset="0" stop-color="#3889e9"/><stop offset="1" stop-color="#5ea5fb"/></linearGradient><linearGradient id="g"><stop offset="0" stop-color="#ff6835"/><stop offset="1" stop-color="#ff956f"/></linearGradient><g stroke-width="1.317422" transform="matrix(1.199999650171 0 0 1.199999650171 3.176860870631 -1208.208316863007)"><g stroke-width="1.317422" transform="translate(0 .000014)"><path d="m .68596847 1041.205.29592305 4.6642c0 .4837.39595388.873.88779298.873h30.9616095c.491839 0 .887805-.3893.887805-.873l.295923-4.6642h-33.32905353z" fill="url(#a)"/><rect fill="url(#c)" height=".915936" ry=".457968" width="13.655848" x="10.576323" y="1044.0956"/><ellipse cx="29.893976" cy="1044.5861" fill="url(#d)" opacity=".452" rx="1.26427" ry="1.264262"/><path d="m29.891235 1044.619c.02853 0 .05324-.01.07407-.031.02085-.021.0313-.046.0313-.074v-.5268c0-.028-.01044-.053-.0313-.074-.02083-.021-.04553-.031-.07407-.031s-.05323.01-.07408.031-.03128.046-.03128.074v.5268c0 .028.01043.053.03128.074s.04555.031.07408.031z" fill="#e3e8ea" opacity=".668"/><path d="m30.457126 1044.3366c-.04418-.088-.10631-.1624-.186424-.2222-.02304-.017-.04911-.024-.0782-.021-.02909 0-.05213.018-.06914.041-.01756.023-.02428.049-.02016.078.0041.029.0177.052.04074.07.05376.041.09535.09.124688.149.02936.059.04403.1213.04403.1877 0 .057-.01111.1115-.03333.1633-.02223.052-.05227.097-.09014.1346-.03787.038-.08271.068-.134568.09-.05186.022-.10632.033-.16339.033-.05706 0-.111524-.011-.163381-.033-.05186-.022-.09671-.052-.134578-.09-.03785-.038-.0679-.083-.09013-.1346-.02223-.052-.03334-.1063-.03334-.1633 0-.066.01468-.129.04404-.1877.02936-.059.07092-.1084.124698-.149.02304-.018.03662-.041.04074-.07.0041-.029-.0026-.055-.02016-.078-.01701-.024-.03992-.037-.06873-.041-.02881 0-.05502 0-.07861.021-.08012.06-.142256.1339-.186435.2222-.04418.088-.06626.1825-.06626.2824 0 .086.01674.1673.05021.2452.03348.078.07847.1452.134992.2017.05651.056.123738.1015.20166.135.07792.034.159683.05.245283.05s.167361-.017.245283-.05c.07792-.034.145145-.079.201659-.135.05651-.057.101502-.1237.134982-.2017.03347-.078.0502-.1596.0502-.2452 0-.1-.02206-.194-.06623-.2824z" fill="#e3e8ea" opacity=".668"/></g><path d="m3.3514203 1013.8643h27.7084687c.49184 0 .887805.3894.887805.873l2.071617 26.3268c0 .4837-.395942.8731-.887781.8731h-31.5555528c-.4918391 0-.88778106-.3894-.88778106-.8731l1.77544306-26.3267c0-.4837.3959539-.8731.8877811-.8731z" fill="url(#b)"/><path d="m21.776578 1021.8352c.921387.4465 2.099244.1817 2.630976-.5913.532007-.7733.216682-1.7616-.704811-2.2081-.921294-.4462-2.099058-.1815-2.631064.5918-.531819.773-.216297 1.7613.704899 2.2076zm-3.94285 10.4539c-.847158 0-1.64998-.1581-2.370615-.4394l-1.338626 2.0131c1.118157.4646 2.377002.7271 3.709241.7271.774777 0 1.52392-.09 2.235858-.2555.125966-.6493.585412-1.2478 1.31789-1.6027.731185-.3543 1.577418-.3894 2.309902-.1571 1.424515-1.1754 2.351456-2.7746 2.4864-4.5556l-2.74565-.034c-.252668 2.4125-2.664386 4.3037-5.6044 4.3037zm0-9.4451c2.940014 0 5.351726 1.8916 5.6044 4.3037l2.74565-.034c-.135144-1.7808-1.062071-3.38-2.486771-4.5554-.73239.2321-1.578528.197-2.309808-.1574-.73239-.3548-1.191742-.9531-1.317704-1.6025-.711847-.1653-1.46099-.2555-2.235767-.2555-1.332239 0-2.590986.2625-3.709059.7272l1.338535 2.0128c.720544-.2813 1.523366-.4393 2.370524-.4393zm-5.62754 4.7225c0-1.5977.946192-3.0089 2.392921-3.8634l-1.40841-1.98c-1.685895.9454-2.940107 2.3903-3.4610083 4.0829.6085493.4162.9973713 1.0501.9973713 1.7607 0 .7105-.388915 1.3444-.9974683 1.7605.5208113 1.6927 1.7750283 3.1377 3.4610113 4.083l1.408504-1.9801c-1.446729-.8544-2.392921-2.2656-2.392921-3.8636zm9.57067 5.7313c-.921482.4464-1.236998 1.4347-.705087 2.2077.532008.7733 1.709678 1.0382 2.631158.5917.921201-.4463 1.236818-1.4347.704811-2.2079-.531827-.7729-1.709684-1.0378-2.630882-.5915zm-13.7552714-7.3477c-1.0642034 0-1.9265412.7235-1.9265412 1.6166 0 .8928.8623378 1.6165 1.9265412 1.6165 1.0638291 0 1.9262544-.7237 1.9262544-1.6165 0-.8931-.8624253-1.6166-1.9262544-1.6166" fill="#a1a7ae" stroke="#909296" stroke-width=".092148"/><path d="m14.75 13.525391c-.333731 0-.414067-.058318-.498047.226562l-.232422.662109c-.172352.48816-.089537.384766.414063.384766l7.621094-.052734-1.222657-1.220703zm12.523438 0-1.222657 1.220703 7.572266.052734c.458915-.0168.653838.154308.484375-.326172l-.203125-.578125c-.09312-.3936-.155386-.36914-.589844-.36914z" fill="#f60" fill-rule="evenodd" transform="matrix(.83333358 0 0 .83333358 -2.647385 1006.8406)"/><path d="m20.525391.11914062c-.434457 0-.494771-.02445925-.587891.36914063l-.205078.54687495c-.123252.32784-.139343.3202875.226562.3046876h.523438l-.009766.0097656h7.830078c.365905.0156.349815.0231524.226563-.3046875l-.205078-.54687502c-.09312-.39359989-.153433-.36914063-.587891-.36914063h-1.160156l-.009766-.00976563z" fill="#f60" fill-rule="evenodd" transform="matrix(.83333358 0 0 .83333358 -2.647385 1006.8406)"/><path d="m16.937789 1027.7008-7.5740516-7.7799s-1.1234479-1.1583.2499644-1.1583h4.1152352v-1.3483-9.133c-.02678-.5423.0032-.5878.53051-.5851h6.411793c.455933-.051.562358.015.562106.498v9.1542 1.4142h3.939456c1.26943 0 .374494.9684.374494.9684s-6.443989 7.2717-7.342784 8.0346c-.646501.5529-1.266723-.065-1.266723-.065z" fill="url(#e)"/><circle cx="-74.284615" cy="999.62463" fill="url(#f)" r="0"/></g></svg>