<svg height="48" width="48" xmlns="http://www.w3.org/2000/svg" xmlns:xlink="http://www.w3.org/1999/xlink"><linearGradient id="a"><stop offset="0" stop-color="#3889e9"/><stop offset="1" stop-color="#5ea5fb"/></linearGradient><linearGradient id="b" gradientUnits="userSpaceOnUse" x1="671.694838577608" x2="671.694838577608" xlink:href="#a" y1="824.753224049879" y2="776.753084449879"/><linearGradient id="c" gradientUnits="userSpaceOnUse" x1="675.303130049232" x2="675.303130049232" y1="821.069839570166" y2="781.2193660244"><stop offset="0" stop-color="#ff6835"/><stop offset="1" stop-color="#ff956f"/></linearGradient><linearGradient id="d" gradientTransform="matrix(.87505313 0 0 .87501383 652.42792 779.24372)" gradientUnits="userSpaceOnUse" x1="23.526918" x2="24.064453" y1="39.175846" y2="8"><stop offset="0" stop-color="#97a9b1"/><stop offset="1" stop-color="#cfdce1"/></linearGradient><linearGradient id="e" gradientUnits="userSpaceOnUse" x1="619.318249577608" x2="619.318249577608" xlink:href="#a" y1="820.830624049879" y2="772.830484449879"/><g fill="#e9afaf" transform="matrix(1.00000000118 0 0 1.00000000118 -649.429083551637 -776.744127526038)"><rect fill="#000" fill-opacity=".666667" height="38.409515" ry="2.6567" width="44" x="651.42908" y="782.03949"/><rect fill="url(#c)" height="38.409515" ry="2.6567" width="44" x="651.42908" y="781.03925"/><circle cx="673.40906" cy="800.75305" fill="url(#b)" r="0"/><path clip-rule="evenodd" d="m24.056641 9.5c-.52559-.00093-1.053645.0260844-1.578125.0839844-.40591.0448-.705067.3941608-.691407.8007816.0456 1.29821-.724518 2.499461-1.917968 2.988281-1.095123.447308-2.502357.150954-3.351563-.677735l-.113281-.113281-.025391-.02539c-.2775-.27749-.72008-.30498-1.03125-.0625-.83911.65832-1.602905 1.413244-2.265625 2.240234-.25058.31165-.222379.758119.056641 1.037109l.027344.025391.136718.136719.011719.013672c.854087.886134 1.113687 2.201849.634766 3.34375-.48331 1.15081-1.678805 1.892578-3.046875 1.892578-.44394-.0143-.760014.28389-.808594.6875-.12313 1.05181-.1234298 2.123232-.005859 3.183594.0163.14684.092121.279641.201171.388671l3.789063 3.789063c-.094418.709628-.42516 1.385197-.976563 1.890625-.29953.27513-.334551.734747-.082031 1.054687.3409.43418.707615.848242 1.097657 1.238282l9.289062 9.289062h19.9375c1.471812 0 2.65625-1.184438 2.65625-2.65625v-14.349609l-12.113281-12.113281c-.35702-.357032-.732347-.6929-1.123047-1.00586-.31913-.25608-.787743-.218499-1.064453.087891-.458182.507408-1.118034.830991-1.810547.947265l-3.798828-3.7988278c-.12005-.12005-.279738-.2015562-.460938-.2226562-.52307-.0605-1.046665-.09235-1.572265-.09375z" fill="#000" fill-opacity=".078431" fill-rule="evenodd" stroke-width="1.152789" transform="translate(649.42908 776.74413)"/><path clip-rule="evenodd" d="m673.48572 786.24413c-.52559-.00093-1.05364.0261-1.57812.084-.40591.0448-.70507.39417-.69141.80079.0456 1.29821-.72452 2.49946-1.91797 2.98828-1.14449.46748-2.63197.12493-3.46484-.79102-.27527-.30173-.73596-.3378-1.05664-.0879-.83911.65832-1.60291 1.41324-2.26563 2.24023-.2585.32151-.22014.78589.084 1.0625.97446.88241 1.28944 2.28711.7832 3.49415-.48331 1.15081-1.6788 1.89257-3.04687 1.89257-.44394-.0143-.76002.28389-.8086.6875-.12312 1.05181-.12356 2.12324-.006 3.1836.0439.39528.51676.68945.91797.68945 1.21919-.0312 2.38789.72309 2.87891 1.91797.48948 1.1933.1745 2.58309-.7832 3.46094-.29953.27513-.33452.73474-.082 1.05468.65055.82855 1.39697 1.58202 2.21484 2.24024.32078.25848.78638.22427 1.06445-.082.83766-.9265 2.33647-1.26941 3.49024-.78516 1.20846.50547 1.96895 1.7272 1.89453 3.03906-.0243.41202.27856.76933.6875.81641.53498.0624 1.07165.0937 1.61133.0937.51227 0 1.02677-.0289 1.53906-.0859.40602-.0448.70504-.39343.69141-.80078-.047-1.29748.7241-2.49833 1.91601-2.98633 1.15219-.47058 2.63384-.124 3.4668.79102.27681.30109.73421.335 1.05664.0859.83757-.65677 1.59975-1.40901 2.26562-2.23828.25838-.32078.22161-.78796-.084-1.06446-.97446-.88243-1.29139-2.28596-.78515-3.49218.47593-1.13549 1.6276-1.89844 2.86523-1.89844l.17383.006c.40143.0327.76971-.27775.81836-.6875.12336-1.05276.12481-2.12322.006-3.1836h.002c-.0443-.3936-.50355-.6875-.90039-.6875-1.28306 0-2.42289-.75487-2.90039-1.91992-.4878-1.19331-.17304-2.58385.7832-3.46093.30101-.27515.33833-.7367.0859-1.05665-.65669-.83387-1.4038-1.58743-2.21875-2.24023-.31913-.25608-.78774-.21849-1.06445.0879-.83453.92419-2.33387 1.26649-3.49219.7832-1.20552-.50709-1.965-1.72795-1.89062-3.03906.0245-.41185-.27691-.77054-.6875-.81836-.52313-.0605-1.04673-.0923-1.57233-.0938zm3.05078 7.77539c.17077.0107.34495.0573.5.14649.55014.3174.73206 1.0297.41406 1.57812-.31686.55187-1.01821.73483-1.56836.41797-.55128-.31804-.74069-1.01626-.42382-1.56641.19877-.34419.53964-.54822.9082-.57422.0553-.004.11302-.007.16992-.002zm-3.01953 1.2207c.46258 0 .91786.0725 1.34375.18946.0757.46376.35052.88424.78711 1.13672.43661.25361.93473.27965 1.37305.11523.85123.83709 1.40698 1.97665 1.48828 3.24414l-1.63281.0215c-.15137-1.7199-1.60161-3.0664-3.35938-3.0664-.50497 0-.9778.11934-1.4082.32031l-.79883-1.44336c.66708-.33099 1.41174-.51758 2.20703-.51758zm-2.76953.8418.8418 1.4082c-.86475.60779-1.42774 1.61127-1.42774 2.75 0 1.13756.56299 2.14226 1.42774 2.75l-.8418 1.41797c-1.00764-.67272-1.75069-1.69951-2.0625-2.90429.36546-.2982.58398-.75932.58398-1.26368 0-.50781-.21909-.94955-.58398-1.24609.31181-1.20537 1.05486-2.23939 2.0625-2.91211zm-3.0918 3.01172c.63711 0 1.1543.50991 1.1543 1.14648 0 .6343-.51719 1.14844-1.1543 1.14844-.63657 0-1.14648-.51414-1.14648-1.14844 0-.63657.50991-1.14648 1.14648-1.14648zm9.22071 1.45117 1.63281.0254c-.0814 1.26862-.63706 2.40591-1.48828 3.24414-.43828-.16664-.93528-.14112-1.37305.11133-.43719.2536-.71141.67356-.78711 1.13672-.42589.11796-.88113.17969-1.34375.17969-.79525 0-1.53996-.18154-2.20703-.51368l.79883-1.43164c.43041.2011.90267.31446 1.4082.31446 1.75778 0 3.208-1.3493 3.35938-3.06641zm-.50391 3.62891c.0555-.005.10876-.005.16406 0 .36862.0259.7153.23004.91406.57422.31798.55015.13676 1.2509-.41406 1.56836-.55069.31686-1.26011.13192-1.57812-.41993-.31686-.54902-.1274-1.24673.42382-1.5625.15472-.0897.32366-.14595.49024-.16015z" fill="url(#d)" fill-rule="evenodd" stroke-width="1.152789"/><circle cx="621.03247" cy="796.83044" fill="url(#e)" r="0"/></g></svg>