<svg height="48" width="48" xmlns="http://www.w3.org/2000/svg" xmlns:xlink="http://www.w3.org/1999/xlink"><linearGradient id="a"><stop offset="0" stop-color="#d3d3d3"/><stop offset="1" stop-color="#fcf9f9"/></linearGradient><linearGradient id="b" gradientUnits="userSpaceOnUse" x1="-275.304696" x2="-275.304696" y1="609.808775" y2="257.150145"><stop offset="0" stop-color="#ff6835"/><stop offset="1" stop-color="#ff956f"/></linearGradient><linearGradient id="c" gradientUnits="userSpaceOnUse" x1="399.57144" x2="399.57144" y1="545.79797" y2="517.79797"><stop offset="0" stop-color="#3889e9"/><stop offset="1" stop-color="#5ea5fb"/></linearGradient><linearGradient id="d" gradientUnits="userSpaceOnUse" x1="671.663675" x2="673.216296" xlink:href="#a" y1="812.573162" y2="788.531531"/><linearGradient id="e" gradientUnits="userSpaceOnUse" x1="673.14233" x2="673.14233" xlink:href="#a" y1="823.387102" y2="777.516662"/><linearGradient id="f" gradientUnits="userSpaceOnUse" x1="555.571549" x2="555.571549" y1="849.184722" y2="803.314282"><stop offset="0" stop-color="#8d3aff"/><stop offset="1" stop-color="#ff3680"/></linearGradient><g fill="#e9afaf" transform="translate(-649.429084 -776.744128)"><circle cx="400.57138" cy="531.79791" fill="url(#c)" r="0" transform="matrix(1.63746654 0 0 1.63746654 -1.136916 -66.026268)"/><circle cx="-282.61334" cy="434.59866" fill="url(#b)" r="173.44701" transform="matrix(.1383708 0 0 .1383708 712.53456 740.608521)"/><circle cx="666.908844" cy="807.307838" fill="#fff" fill-opacity=".846774" r="0"/><circle cx="555.85828" cy="826.54181" fill="none" r="0" stroke="url(#f)" stroke-width="2.129699"/><path d="m670.33813 791.97831c-.77464.21739-1.3982 1.08184-1.3982 1.92163v13.31356c-.7855-.43065-1.79428-.6048-2.84014-.32019-1.88723.51341-3.06989 2.17277-2.66535 3.70584.40456 1.53298 2.26368 2.38924 4.15098 1.87571 1.50561-.40959 2.5435-1.56861 2.70899-2.79078l.0441-12.5816 9.78749-2.74509v9.92807c-.78549-.43068-1.79426-.60481-2.84016-.32031-1.88721.51344-3.06984 2.17288-2.66532 3.70586.40458 1.53307 2.2637 2.38922 4.15094 1.87579 1.50564-.40959 2.54352-1.56858 2.70903-2.79076l.0443-16.37903c0-.62973-.37172-1.10087-.87387-1.18949l-10.31181 2.79079z" fill="url(#d)" opacity=".9"/><circle cx="673.42908" cy="800.74414" fill="none" r="22.935152" stroke="url(#e)" stroke-width="2.129699"/></g></svg>