<svg height="48" width="48" xmlns="http://www.w3.org/2000/svg" xmlns:xlink="http://www.w3.org/1999/xlink"><linearGradient id="a" gradientUnits="userSpaceOnUse" x1="14.428456" x2="-27.727154" y1="47.467573" y2="47.331055"><stop offset="0" stop-color="#989a9b"/><stop offset="1" stop-color="#f6f6f7"/></linearGradient><filter id="b" color-interpolation-filters="sRGB"><feColorMatrix values="0.21 0.72 0.072 0 0 0.21 0.72 0.072 0 0 0.21 0.72 0.072 0 0 0 0 0 1 0"/></filter><linearGradient id="c" gradientUnits="userSpaceOnUse" x1="-92.40835830764" x2="-92.40835830764" y1="45.828257907055" y2="-15.893024092945"><stop offset="0" stop-color="#3889e9"/><stop offset="1" stop-color="#5ea5fb"/></linearGradient><linearGradient id="d" gradientUnits="userSpaceOnUse" x1="-19.418806516267" x2="-5.213163189591" y1="54.725854457866" y2="6.914248052996"><stop offset="0" stop-color="#ff6835"/><stop offset="1" stop-color="#ff956f"/></linearGradient><linearGradient id="e" gradientUnits="userSpaceOnUse" x1="10.916713" x2="11.399929" y1="55.774471" y2="35.565228"><stop offset="0" stop-color="#cdd0d1"/><stop offset="1" stop-color="#f6f6f7"/></linearGradient><g transform="matrix(.77761806 -.01071721 .01071721 .77761806 30.946456 -1.678727)"><circle cx="-90.204155" cy="14.96752" fill="url(#c)" r="0" transform="matrix(.99990504 .01378079 -.01378079 .99990504 0 0)"/><rect fill="#5ea5fb" height="36.168827" ry="1.928785" transform="matrix(.99990504 .01378079 -.01378079 .99990504 0 0)" width="50.10725" x="-31.826988" y="7.746309"/><rect fill="url(#d)" height="37.355072" ry="1.543778" transform="matrix(.98818625 -.15325775 .15325775 .98818625 0 0)" width="49.639862" x="-42.623764" y="13.684669"/><path clip-rule="evenodd" d="m21.599249 44.704274c-.02855-.289624-.362725-.511573-.65428-.515591-.942635-.01293-1.771478-.577994-2.110479-1.438795-.346296-.881649-.10112-1.900909.61028-2.535633.223921-.199099.255452-.53712.07323-.774736-.47401-.619289-1.014742-1.180244-1.606856-1.668107-.23186-.191371-.576208-.169934-.782611.05237-.622473.670552-1.727262.907732-2.573381.540925-.880477-.384734-1.426571-1.289808-1.358643-2.252333.02216-.302321-.195351-.568444-.496526-.607733-.767121-.09945-1.542165-.112893-2.313984-.03801-.298668.0288-.5233444.282629-.5174344.58151.02039.954249-.556968 1.828145-1.438725 2.175194-.8455668.331855-1.9356985.06657-2.5383144-.614821-.1991719-.224452-.5371959-.256364-.7753291-.07599-.6231479.47517-1.1914637 1.021299-1.686733 1.622178-.1931599.23359-.1699399.576346.050613.782645.7069785.658175.9239264 1.692685.5397785 2.574373-.3667386.840586-1.252205 1.373387-2.2572995 1.359534-.3260079-.01497-.5613358.200727-.6010918.496759-.10112.771518-.1130533 1.558889-.03668 2.339132.028307.290844.3727626.511022.6675332.515084.8960291-.01053 1.7483542.555856 2.0970061 1.438687.3475186.881665.10228 1.900312-.6102038 2.535556-.2228493.199114-.255444.536584-.073213.7742.4695478.615324 1.0103504 1.176816 1.6045529 1.668688.23306.193149.5763452.171085.7837438-.05121.6247919-.672203 1.7294983-.908926 2.572239-.541477.882712.383617 1.428808 1.288613 1.360873 2.251674-.022.302478.196567.569074.4965245.607811.39242.05127.787529.0796 1.184026.08507.376365.0052.753092-.01027 1.130035-.04697.298743-.0288.523265-.28263.517362-.582048-.02139-.953726.556963-1.827607 1.437564-2.174062.851261-.334072 1.936761-.06601 2.539462.614684.200328.224009.535986.255353.775412.07561.621985-.474038 1.189146-1.019723 1.686734-1.622254.193076-.233056.171012-.576333-.05069-.782569-.706979-.658176-.925074-1.692854-.540934-2.57393.36115-.829409 1.214217-1.377892 2.12348-1.36536l.127173.0051c.294592.02803.569071-.195415.608965-.495961.101294-.772205.1132-1.558888.03683-2.33913z" fill="url(#e)" fill-rule="evenodd" stroke-width="1.317422"/><path d="m14.428456 47.271288-8.9226783.196284 4.2913527-7.825408z" fill="url(#a)" filter="url(#b)" transform="matrix(-.0138427 .90747861 -.90747861 -.0138427 51.546127 37.320471)"/><path d="m-7.2706635 23.556406c-.1057097-.0092-.2100176-.008-.3128332-.0033-.6856156.0389-1.3251493.409659-1.7033698 1.044247-.6029835 1.014299-.2683652 2.318289.748013 2.92346 1.0143003.602958 2.320309.278605 2.9233241-.738923.6050211-1.011068.2848024-2.338973-.7294845-2.942945-.2858614-.169703-.6085316-.25887-.9256156-.283109zm-5.6422985 2.188376c-1.478016-.02037-2.865146.309706-4.113354.907755l1.448217 2.702215c.805041-.362483 1.684703-.570647 2.623161-.557713 3.2667417.04503 5.9285004 2.581919 6.1657534 5.782182l3.033081.0039c-.1187124-2.357664-1.1201269-4.490811-2.6806663-6.068313-.8188016.294341-1.7433055.234751-2.5482242-.247756-.8049086-.480398-1.3074169-1.271732-1.4362609-2.135538-.788504-.228223-1.631937-.37485-2.491617-.386698zm-5.169498 1.496181c-1.889903 1.224413-3.295489 3.124119-3.905843 5.356267.67054.560438 1.066838 1.390057 1.053831 2.333786-.01292.937352-.431297 1.786376-1.118124 2.331218.548621 2.247028 1.90143 4.176739 3.756871 5.452771l1.602982-2.613353c-1.591524-1.151616-2.611597-3.033892-2.58246-5.147999.02917-2.11628 1.100696-3.96748 2.723354-5.074887zm-5.820258 5.515205c-1.183045-.0163-2.146651.921087-2.162953 2.10413-.01626 1.178838.9211 2.146647 2.104144 2.162951 1.184046.01632 2.157338-.925157 2.173585-2.103996.0163-1.183042-.93073-2.146766-2.114776-2.163085zm17.0981151 2.936177c-.3253121 3.187289-3.0560213 5.655087-6.3227761 5.610064-.939512-.01295-1.812164-.235915-2.606907-.620676l-1.521865 2.641528c1.231224.634342 2.608963.991297 4.086901 1.011667.85977.01185 1.706568-.09132 2.501075-.299678.152536-.858823.6755856-1.63354 1.4945878-2.093666.8200272-.457939 1.7437098-.490759 2.5539537-.169838 1.6034379-1.536006 2.6630857-3.636527 2.8468849-5.992131zm-1.0299235 6.730968c-.3099299.02209-.6238335.120772-.9136737.283594-1.0325233.572728-1.4029759 1.864185-.8281721 2.89262.5768913 1.033751 1.8884883 1.395698 2.9200359.820937 1.0317943-.575878 1.3869302-1.872907.8100718-2.903468-.3605628-.644743-.998667-1.031782-1.6830683-1.089425-.1027333-.01042-.2020064-.01179-.3052203-.0042z" fill="#f9f9f9"/></g></svg>