<svg height="48" viewBox="0 0 48 48.000001" width="48" xmlns="http://www.w3.org/2000/svg" xmlns:xlink="http://www.w3.org/1999/xlink"><linearGradient id="a" gradientUnits="userSpaceOnUse" x1="27.782011" x2="20.485176" y1="1048.9757" y2="1006.824"><stop offset="0" stop-color="#4d4d4d"/><stop offset="1" stop-color="#666"/></linearGradient><linearGradient id="b" gradientUnits="userSpaceOnUse" x1="23.921978" x2="24.169363" y1="1049.3707" y2="1006.3489"><stop offset="0" stop-color="#db4437"/><stop offset="1" stop-color="#fd5757"/></linearGradient><linearGradient id="c" gradientUnits="userSpaceOnUse" x1="24.379152" x2="24.503517" y1="1049.8301" y2="1006.7169"><stop offset="0" stop-color="#f2f6f7"/><stop offset="1" stop-color="#ecf0f1"/></linearGradient><clipPath id="d"><g><path d="m33.142597 1006.4376c-2.840902 6.0705-5.891448 13.58-9.159293 20.0068-3.095585-6.5541-6.271534-13.4514-9.107657-20.0068.207054-.4903 8.641709 1.5685 9.107657 1.5703.447467.01 8.909349-2.0616 9.159293-1.5703z" fill="#333" fill-opacity=".666667"/><path d="m45.965904 1019.3385c-6.299375 2.2827-13.764057 5.4349-20.617128 7.6675 2.443411-6.8245 5.072644-13.9485 7.700443-20.5902.492929-.2002 5.00195 7.2226 5.330218 7.5534.309311.3237 7.756958 4.8451 7.586467 5.3692z" fill="#333" fill-opacity=".666667"/><path d="m45.924525 1037.51c-6.067731-2.8422-13.573885-5.8941-19.997735-9.1635 6.551139-3.097 13.44539-6.2744 19.997783-9.1119.490027.2072-1.567934 8.6457-1.569592 9.1119-.01009.4477 2.060601 8.9133 1.569544 9.1635z" fill="#333" fill-opacity=".666667"/><path d="m33.002064 1050.3502c-2.281729-6.3023-5.432363-13.7703-7.663943-20.6266 6.821301 2.4446 13.94198 5.075 20.580692 7.704.200059.4932-7.219328 5.0043-7.549992 5.3327-.323574.3094-4.842791 7.7604-5.366757 7.5899z" fill="#333" fill-opacity=".666667"/><path d="m14.812061 1050.2866c2.840877-6.0705 5.891362-13.58 9.159275-20.0068 3.095616 6.5541 6.271525 13.4516 9.107697 20.0069-.207114.4903-8.641761-1.5685-9.107722-1.5702-.447469-.01-8.909294 2.0614-9.15925 1.5701z" fill="#333" fill-opacity=".666667"/><path d="m2.003349 1037.4079c6.2993591-2.2827 13.763997-5.4348 20.617114-7.6674-2.443459 6.8244-5.072721 13.9484-7.700485 20.5901-.49297.2002-5.0019836-7.2225-5.3302634-7.5534-.309313-.3237-7.7568487-4.8451-7.5863656-5.3693z" fill="#333" fill-opacity=".666667"/><path d="m2.075523 1019.1901c6.0677204 2.8422 13.573844 5.8941 19.997726 9.1635-6.551173 3.097-13.4454437 6.2744-19.9978136 9.1118-.490056-.2073 1.5678386-8.6456 1.5695606-9.1118.010024-.4477-2.0605232-8.9134-1.5694731-9.1635z" fill="#333" fill-opacity=".666667"/><path d="m14.950942 1006.3797c2.281721 6.3022 5.432333 13.7703 7.663937 20.6265-6.821255-2.4447-13.942018-5.075-20.5807132-7.704-.2000103-.4932 7.2192609-5.0042 7.54997-5.3327.3235246-.3095 4.8428452-7.7604 5.3668062-7.5898z" fill="#333" fill-opacity=".666667"/><path d="m35.267859 1048.1658c-.391325.2145-8.361527-.073-8.797047-.012-.452686.064-8.353519 2.5985-8.797045 2.488-.426803-.1064-5.860605-5.9644-6.211929-6.229-.365113-.275-7.7442374-4.0694-7.9796952-4.4612-.2265655-.377.073353-8.3615.012054-8.7971-.063691-.4526-2.59849526-8.3535-2.4879486-8.797.1063835-.4268 5.9643322-5.8606 6.228975-6.2119.2750329-.3651 4.0694258-7.7443 4.4612048-7.9797.37703-.2266 8.361527.073 8.797047.012.452686-.064 8.353507-2.5985 8.797045-2.4879.426792.1064 5.86058 5.9643 6.211928 6.229.365089.275 7.744238 4.0694 7.979696 4.4612.226565.377-.07335 8.3614-.01205 8.797.0637.4526 2.598496 8.3535 2.487949 8.797-.106383.4268-5.964308 5.8606-6.228975 6.212-.275009.3651-4.05656 7.7279-4.461205 7.9797 0 0 .000025-.0001-.000004-.0001z" fill="url(#a)" transform="matrix(1.0596097 .15210544 -.15210545 1.0596097 155.50771 -64.663989)"/><g fill="url(#c)"><path d="m45.965904 1019.3385c-6.299375 2.2827-13.764057 5.4349-20.617128 7.6675 2.443411-6.8245 5.072644-13.9485 7.700443-20.5902.492929-.2002 5.00195 7.2226 5.330218 7.5534.309311.3237 7.756958 4.8451 7.586467 5.3692z" fill="url(#c)"/><path d="m33.002064 1050.3502c-2.281729-6.3023-5.432363-13.7703-7.663943-20.6266 6.821301 2.4446 13.94198 5.075 20.580692 7.704.200059.4932-7.219328 5.0043-7.549992 5.3327-.323574.3094-4.842791 7.7604-5.366757 7.5899z" fill="url(#c)"/><path d="m2.003349 1037.4079c6.2993591-2.2827 13.763997-5.4348 20.617114-7.6674-2.443459 6.8244-5.072721 13.9484-7.700485 20.5901-.49297.2002-5.0019836-7.2225-5.3302634-7.5534-.309313-.3237-7.7568487-4.8451-7.5863656-5.3693z" fill="url(#c)"/><path d="m14.950942 1006.3797c2.281721 6.3022 5.432333 13.7703 7.663937 20.6265-6.821255-2.4447-13.942018-5.075-20.5807132-7.704-.2000103-.4932 7.2192609-5.0042 7.54997-5.3327.3235246-.3095 4.8428452-7.7604 5.3668062-7.5898z" fill="url(#c)"/></g><path d="m45.924525 1037.51c-6.067731-2.8422-13.573885-5.8941-19.997735-9.1635 6.551139-3.097 13.44539-6.2744 19.997783-9.1119.490027.2072-1.567934 8.6457-1.569592 9.1119-.01009.4477 2.060601 8.9133 1.569544 9.1635z" fill="url(#b)"/><path d="m14.812061 1050.2866c2.840877-6.0705 5.891362-13.58 9.159275-20.0068 3.095616 6.5541 6.271525 13.4516 9.107697 20.0069-.207114.4903-8.641761-1.5685-9.107722-1.5702-.447469-.01-8.909294 2.0614-9.15925 1.5701z" fill="url(#b)"/><path d="m33.142597 1006.4376c-2.840902 6.0705-5.891448 13.58-9.159293 20.0068-3.095585-6.5541-6.271534-13.4514-9.107657-20.0068.207054-.4903 8.641709 1.5685 9.107657 1.5703.447467.01 8.909349-2.0616 9.159293-1.5703z" fill="url(#b)"/><path d="m2.075523 1019.1901c6.0677204 2.8422 13.573844 5.8941 19.997726 9.1635-6.551173 3.097-13.4454437 6.2744-19.9978136 9.1118-.490056-.2073 1.5678386-8.6456 1.5695606-9.1118.010024-.4477-2.0605232-8.9134-1.5694731-9.1635z" fill="url(#b)"/></g></clipPath><g transform="translate(0 -1004.3622)"><g fill="#333" fill-opacity=".666667"><path d="m33.142597 1006.4376c-2.840902 6.0705-5.891448 13.58-9.159293 20.0068-3.095585-6.5541-6.271534-13.4514-9.107657-20.0068.207054-.4903 8.641709 1.5685 9.107657 1.5703.447467.01 8.909349-2.0616 9.159293-1.5703z"/><path d="m45.965904 1019.3385c-6.299375 2.2827-13.764057 5.4349-20.617128 7.6675 2.443411-6.8245 5.072644-13.9485 7.700443-20.5902.492929-.2002 5.00195 7.2226 5.330218 7.5534.309311.3237 7.756958 4.8451 7.586467 5.3692z"/><path d="m45.924525 1037.51c-6.067731-2.8422-13.573885-5.8941-19.997735-9.1635 6.551139-3.097 13.44539-6.2744 19.997783-9.1119.490027.2072-1.567934 8.6457-1.569592 9.1119-.01009.4477 2.060601 8.9133 1.569544 9.1635z"/><path d="m33.002064 1050.3502c-2.281729-6.3023-5.432363-13.7703-7.663943-20.6266 6.821301 2.4446 13.94198 5.075 20.580692 7.704.200059.4932-7.219328 5.0043-7.549992 5.3327-.323574.3094-4.842791 7.7604-5.366757 7.5899z"/><path d="m14.812061 1050.2866c2.840877-6.0705 5.891362-13.58 9.159275-20.0068 3.095616 6.5541 6.271525 13.4516 9.107697 20.0069-.207114.4903-8.641761-1.5685-9.107722-1.5702-.447469-.01-8.909294 2.0614-9.15925 1.5701z"/><path d="m2.003349 1037.4079c6.2993591-2.2827 13.763997-5.4348 20.617114-7.6674-2.443459 6.8244-5.072721 13.9484-7.700485 20.5901-.49297.2002-5.0019836-7.2225-5.3302634-7.5534-.309313-.3237-7.7568487-4.8451-7.5863656-5.3693z"/><path d="m2.075523 1019.1901c6.0677204 2.8422 13.573844 5.8941 19.997726 9.1635-6.551173 3.097-13.4454437 6.2744-19.9978136 9.1118-.490056-.2073 1.5678386-8.6456 1.5695606-9.1118.010024-.4477-2.0605232-8.9134-1.5694731-9.1635z"/><path d="m14.950942 1006.3797c2.281721 6.3022 5.432333 13.7703 7.663937 20.6265-6.821255-2.4447-13.942018-5.075-20.5807132-7.704-.2000103-.4932 7.2192609-5.0042 7.54997-5.3327.3235246-.3095 4.8428452-7.7604 5.3668062-7.5898z"/></g><path d="m35.267859 1048.1658c-.391325.2145-8.361527-.073-8.797047-.012-.452686.064-8.353519 2.5985-8.797045 2.488-.426803-.1064-5.860605-5.9644-6.211929-6.229-.365113-.275-7.7442374-4.0694-7.9796952-4.4612-.2265655-.377.073353-8.3615.012054-8.7971-.063691-.4526-2.59849526-8.3535-2.4879486-8.797.1063835-.4268 5.9643322-5.8606 6.228975-6.2119.2750329-.3651 4.0694258-7.7443 4.4612048-7.9797.37703-.2266 8.361527.073 8.797047.012.452686-.064 8.353507-2.5985 8.797045-2.4879.426792.1064 5.86058 5.9643 6.211928 6.229.365089.275 7.744238 4.0694 7.979696 4.4612.226565.377-.07335 8.3614-.01205 8.797.0637.4526 2.598496 8.3535 2.487949 8.797-.106383.4268-5.964308 5.8606-6.228975 6.212-.275009.3651-4.05656 7.7279-4.461205 7.9797 0 0 .000025-.0001-.000004-.0001z" fill="url(#a)" transform="matrix(1.0596097 .15210544 -.15210545 1.0596097 155.50771 -64.663989)"/><path d="m45.924525 1037.51c-6.067731-2.8422-13.573885-5.8941-19.997735-9.1635 6.551139-3.097 13.44539-6.2744 19.997783-9.1119.490027.2072-1.567934 8.6457-1.569592 9.1119-.01009.4477 2.060601 8.9133 1.569544 9.1635z" fill="url(#b)"/><g clip-path="url(#d)" fill-opacity=".078431" stroke-width="2"><path d="m33.142597 1006.4376c-2.840902 6.0705-5.891448 13.58-9.159293 20.0068l70.710678 70.7107c3.267845-6.4268 6.318388-13.9363 9.159298-20.0068z"/><path d="m23.983304 1026.4444c-3.095585-6.5541-6.271534-13.4514-9.107657-20.0068l70.710678 70.7107c2.836123 6.5554 6.012072 13.4527 9.107657 20.0068z"/><path d="m14.875647 1006.4376c.207054-.4903 8.641709 1.5685 9.107657 1.5703l70.710678 70.7107c-.465948 0-8.900603-2.0606-9.107657-1.5703z"/><path d="m23.983304 1008.0079c.4424.01 8.718729-2.0149 9.147666-1.586l70.71068 70.7107c-.42894-.429-8.705268 1.5959-9.147668 1.586z"/><path d="m33.13097 1006.4219c.0049 0 .0088.01.01163.016l70.71068 70.7107c-.003-.01-.007-.011-.0116-.016z"/></g><path d="m45.965904 1019.3385c-6.299375 2.2827-13.764057 5.4349-20.617128 7.6675 2.443411-6.8245 5.072644-13.9485 7.700443-20.5902.492929-.2002 5.00195 7.2226 5.330218 7.5534.309311.3237 7.756958 4.8451 7.586467 5.3692z" fill="url(#c)"/><path d="m14.812061 1050.2866c2.840877-6.0705 5.891362-13.58 9.159275-20.0068 3.095616 6.5541 6.271525 13.4516 9.107697 20.0069-.207114.4903-8.641761-1.5685-9.107722-1.5702-.447469-.01-8.909294 2.0614-9.15925 1.5701z" fill="url(#b)"/><path d="m2.003349 1037.4079c6.2993591-2.2827 13.763997-5.4348 20.617114-7.6674-2.443459 6.8244-5.072721 13.9484-7.700485 20.5901-.49297.2002-5.0019836-7.2225-5.3302634-7.5534-.309313-.3237-7.7568487-4.8451-7.5863656-5.3693z" fill="url(#c)"/><path d="m14.950942 1006.3797c2.281721 6.3022 5.432333 13.7703 7.663937 20.6265-6.821255-2.4447-13.942018-5.075-20.5807132-7.704-.2000103-.4932 7.2192609-5.0042 7.54997-5.3327.3235246-.3095 4.8428452-7.7604 5.3668062-7.5898z" fill="url(#c)"/><path d="m33.142597 1006.4376c-2.840902 6.0705-5.891448 13.58-9.159293 20.0068-3.095585-6.5541-6.271534-13.4514-9.107657-20.0068.207054-.4903 8.641709 1.5685 9.107657 1.5703.447467.01 8.909349-2.0616 9.159293-1.5703z" fill="url(#b)"/><path d="m2.075523 1019.1901c6.0677204 2.8422 13.573844 5.8941 19.997726 9.1635-6.551173 3.097-13.4454437 6.2744-19.9978136 9.1118-.490056-.2073 1.5678386-8.6456 1.5695606-9.1118.010024-.4477-2.0605232-8.9134-1.5694731-9.1635z" fill="url(#b)"/><path d="m33.002064 1050.3502c-2.281729-6.3023-5.432363-13.7703-7.663943-20.6266 6.821301 2.4446 13.94198 5.075 20.580692 7.704.200059.4932-7.219328 5.0043-7.549992 5.3327-.323574.3094-4.842791 7.7604-5.366757 7.5899z" fill="url(#c)"/></g></svg>