<?xml version="1.0" encoding="UTF-8" standalone="no"?>
<!-- Created with Inkscape (http://www.inkscape.org/) -->

<svg
   xmlns:osb="http://www.openswatchbook.org/uri/2009/osb"
   xmlns:dc="http://purl.org/dc/elements/1.1/"
   xmlns:cc="http://creativecommons.org/ns#"
   xmlns:rdf="http://www.w3.org/1999/02/22-rdf-syntax-ns#"
   xmlns:svg="http://www.w3.org/2000/svg"
   xmlns="http://www.w3.org/2000/svg"
   xmlns:xlink="http://www.w3.org/1999/xlink"
   xmlns:sodipodi="http://sodipodi.sourceforge.net/DTD/sodipodi-0.dtd"
   xmlns:inkscape="http://www.inkscape.org/namespaces/inkscape"
   width="48"
   height="48"
   id="svg5453"
   version="1.1"
   inkscape:version="0.91 r13725"
   sodipodi:docname="unity-tweak-tool.svg">
  <defs
     id="defs5455">
    <linearGradient
       inkscape:collect="always"
       id="linearGradient5172">
      <stop
         style="stop-color:#d71e53;stop-opacity:1"
         offset="0"
         id="stop5174" />
      <stop
         style="stop-color:#ff7099;stop-opacity:1"
         offset="1"
         id="stop5176" />
    </linearGradient>
    <linearGradient
       id="linearGradient4232">
      <stop
         id="stop4234-0"
         offset="0"
         style="stop-color:#3889e9;stop-opacity:1" />
      <stop
         id="stop4236"
         offset="1"
         style="stop-color:#5ea5fb;stop-opacity:1" />
    </linearGradient>
    <style
       type="text/css"
       id="current-color-scheme">.ColorScheme-Text {
        color:#31363b;
      }
      .ColorScheme-Background{
        color:#eff0f1;
      }
      .ColorScheme-ViewText {
        color:#31363b;
      }
      .ColorScheme-ViewBackground{
        color:#fcfcfc;
      }
      .ColorScheme-ViewHover {
        color:#3daee9;
      }
      .ColorScheme-ViewFocus{
        color:#3daee9;
      }
      .ColorScheme-ButtonText {
        color:#31363b;
      }
      .ColorScheme-ButtonBackground{
        color:#eff0f1;
      }
      .ColorScheme-ButtonHover {
        color:#3daee9;
      }
      .ColorScheme-ButtonFocus{
        color:#3daee9;
      }</style>
    <style
       type="text/css"
       id="current-color-scheme-8">.ColorScheme-Text {
        color:#31363b;
      }
      .ColorScheme-Background{
        color:#eff0f1;
      }
      .ColorScheme-ViewText {
        color:#31363b;
      }
      .ColorScheme-ViewBackground{
        color:#fcfcfc;
      }
      .ColorScheme-ViewHover {
        color:#3daee9;
      }
      .ColorScheme-ViewFocus{
        color:#3daee9;
      }
      .ColorScheme-ButtonText {
        color:#31363b;
      }
      .ColorScheme-ButtonBackground{
        color:#eff0f1;
      }
      .ColorScheme-ButtonHover {
        color:#3daee9;
      }
      .ColorScheme-ButtonFocus{
        color:#3daee9;
      }</style>
    <style
       type="text/css"
       id="current-color-scheme-7">.ColorScheme-Text {
        color:#31363b;
      }
      .ColorScheme-Background{
        color:#eff0f1;
      }
      .ColorScheme-ViewText {
        color:#31363b;
      }
      .ColorScheme-ViewBackground{
        color:#fcfcfc;
      }
      .ColorScheme-ViewHover {
        color:#3daee9;
      }
      .ColorScheme-ViewFocus{
        color:#3daee9;
      }
      .ColorScheme-ButtonText {
        color:#31363b;
      }
      .ColorScheme-ButtonBackground{
        color:#eff0f1;
      }
      .ColorScheme-ButtonHover {
        color:#3daee9;
      }
      .ColorScheme-ButtonFocus{
        color:#3daee9;
      }</style>
    <linearGradient
       osb:paint="gradient"
       id="linearGradient4207">
      <stop
         id="stop3371"
         offset="0"
         style="stop-color:#3498db;stop-opacity:1;" />
      <stop
         id="stop3373"
         offset="1"
         style="stop-color:#3498db;stop-opacity:0;" />
    </linearGradient>
    <linearGradient
       id="linearGradient8311-06">
      <stop
         offset="0"
         style="stop-color:#a9a3d4;stop-opacity:1"
         id="stop8313-6" />
      <stop
         id="stop4462"
         style="stop-color:#87baff;stop-opacity:1"
         offset="0.47001833" />
      <stop
         offset="1"
         style="stop-color:#89ec85;stop-opacity:1"
         id="stop8315-2" />
    </linearGradient>
    <linearGradient
       y2="503.798"
       x2="469.57144"
       y1="542.79797"
       x1="469.57144"
       gradientTransform="matrix(1.0197392,0,0,1.0197392,-133.67723,-7.7796551)"
       gradientUnits="userSpaceOnUse"
       id="linearGradient4290"
       xlink:href="#linearGradient5172"
       inkscape:collect="always" />
    <clipPath
       clipPathUnits="userSpaceOnUse"
       id="clipPath5083">
      <rect
         ry="2.8982184"
         y="3.0987046"
         x="-2.8515624e-06"
         height="41.901291"
         width="48"
         id="rect5085"
         style="opacity:1;fill:url(#linearGradient5087);fill-opacity:1;stroke:none;stroke-width:2;stroke-linecap:round;stroke-linejoin:round;stroke-miterlimit:4;stroke-dasharray:none;stroke-opacity:1" />
    </clipPath>
    <linearGradient
       gradientTransform="matrix(1.5682518,0,0,1.5682518,-284.9222,-309.08097)"
       gradientUnits="userSpaceOnUse"
       y2="517.79797"
       x2="399.57144"
       y1="545.79797"
       x1="399.57144"
       id="linearGradient3426-3"
       xlink:href="#linearGradient4232"
       inkscape:collect="always" />
  </defs>
  <sodipodi:namedview
     id="base"
     pagecolor="#6b6b6b"
     bordercolor="#666666"
     borderopacity="1.0"
     inkscape:pageopacity="0"
     inkscape:pageshadow="2"
     inkscape:zoom="8"
     inkscape:cx="-8.542097"
     inkscape:cy="26.761848"
     inkscape:document-units="px"
     inkscape:current-layer="g4471"
     showgrid="false"
     fit-margin-top="0"
     fit-margin-left="0"
     fit-margin-right="0"
     fit-margin-bottom="0"
     inkscape:window-width="1362"
     inkscape:window-height="633"
     inkscape:window-x="0"
     inkscape:window-y="33"
     inkscape:window-maximized="0"
     inkscape:showpageshadow="false"
     borderlayer="true"
     showguides="false"
     inkscape:snap-bbox="true"
     inkscape:bbox-paths="false"
     inkscape:bbox-nodes="true"
     inkscape:object-nodes="true"
     inkscape:snap-center="true"
     inkscape:guide-bbox="true"
     showborder="false">
    <inkscape:grid
       type="xygrid"
       id="grid4063" />
    <sodipodi:guide
       position="1.1650391e-05,47.999996"
       orientation="4,0"
       id="guide4146" />
    <sodipodi:guide
       position="2,38"
       orientation="0,48"
       id="guide4148" />
    <sodipodi:guide
       position="48.000012,43.999996"
       orientation="-4,0"
       id="guide4150" />
    <sodipodi:guide
       position="48.000012,47.999996"
       orientation="0,-48"
       id="guide4152" />
    <sodipodi:guide
       position="1.1650391e-05,4.0000264"
       orientation="4,0"
       id="guide4154" />
    <sodipodi:guide
       position="1.1650391e-05,2.6367188e-05"
       orientation="0,48"
       id="guide4156" />
    <sodipodi:guide
       position="48.000012,2.6367188e-05"
       orientation="-4,0"
       id="guide4158" />
    <sodipodi:guide
       position="48.000012,4.0000264"
       orientation="0,-48"
       id="guide4160" />
    <sodipodi:guide
       position="48.000012,48.000026"
       orientation="0,-4"
       id="guide4162" />
    <sodipodi:guide
       position="44.000012,48.000026"
       orientation="48,0"
       id="guide4164" />
    <sodipodi:guide
       position="44.000012,2.6367188e-05"
       orientation="0,4"
       id="guide4166" />
    <sodipodi:guide
       position="48.000012,2.6367188e-05"
       orientation="-48,0"
       id="guide4168" />
    <sodipodi:guide
       position="4.0000422,48.000026"
       orientation="0,-4"
       id="guide4170" />
    <sodipodi:guide
       position="4.2167969e-05,48.000026"
       orientation="48,0"
       id="guide4172" />
    <sodipodi:guide
       position="4.2167969e-05,2.6367188e-05"
       orientation="0,4"
       id="guide4174" />
    <sodipodi:guide
       position="4.0000422,43.999996"
       orientation="39.999969,0"
       id="guide4175" />
    <sodipodi:guide
       position="4.0000422,4.0000264"
       orientation="0,20"
       id="guide4177" />
    <sodipodi:guide
       position="24.000042,4.0000264"
       orientation="-39.999969,0"
       id="guide4179" />
    <sodipodi:guide
       position="24.000042,43.999996"
       orientation="0,-20"
       id="guide4181" />
    <sodipodi:guide
       position="4.0000422,23.999843"
       orientation="20,0"
       id="guide4185" />
    <sodipodi:guide
       position="44.000012,3.9998433"
       orientation="-20,0"
       id="guide4189" />
    <sodipodi:guide
       position="44.000012,23.999843"
       orientation="0,-39.999969"
       id="guide4191" />
    <sodipodi:guide
       position="-5.3201604,51.964357"
       orientation="0,1"
       id="guide4537" />
  </sodipodi:namedview>
  <metadata
     id="metadata5458">
    <rdf:RDF>
      <cc:Work
         rdf:about="">
        <dc:format>image/svg+xml</dc:format>
        <dc:type
           rdf:resource="http://purl.org/dc/dcmitype/StillImage" />
        <dc:title />
      </cc:Work>
    </rdf:RDF>
  </metadata>
  <g
     inkscape:label="Layer 1"
     inkscape:groupmode="layer"
     id="layer1"
     transform="translate(-384.57143,-499.798)"
     style="display:inline">
    <g
       id="g4471"
       transform="matrix(1.0931221,0,0,1.0931221,33.310366,-50.486049)">
      <g
         inkscape:label="Capa 1"
         id="layer1-39"
         transform="matrix(1.5444819,0,0,1.5444819,-275.38426,-295.80854)" />
      <path
         sodipodi:nodetypes="csccccccccccccccccccccccccccccscccccccccccc"
         style="clip-rule:evenodd;fill:#ffffff;fill-opacity:0.84693879;fill-rule:evenodd;stroke-width:1.31742239;stroke-miterlimit:4;stroke-dasharray:none"
         d="m 357.83792,523.73609 c -0.0463,-0.4115 -0.52608,-0.72072 -0.94096,-0.72072 -1.34135,0 -2.53163,-0.78761 -3.03082,-2.00566 -0.50996,-1.24758 -0.18113,-2.70253 0.81854,-3.61953 0.31467,-0.28766 0.3529,-0.7692 0.089,-1.10369 -0.68653,-0.8718 -1.46683,-1.6593 -2.31881,-2.34179 -0.33362,-0.26773 -0.82311,-0.23048 -1.1124,0.0899 -0.87245,0.96623 -2.4396,1.32534 -3.65057,0.82006 -1.26021,-0.53012 -2.05489,-1.8071 -1.97712,-3.17786 0.0256,-0.43056 -0.28908,-0.80492 -0.71833,-0.85492 -1.09335,-0.12645 -2.19627,-0.13037 -3.29288,-0.009 -0.42436,0.0468 -0.73903,0.41237 -0.72476,0.83749 0.0477,1.35725 -0.75656,2.61191 -2.00424,3.12296 -1.19649,0.48873 -2.75264,0.13267 -3.62335,-0.82496 -0.28776,-0.31543 -0.7693,-0.35421 -1.10456,-0.0929 -0.87724,0.68827 -1.67508,1.47642 -2.36793,2.34103 -0.27023,0.33612 -0.23047,0.82332 0.0874,1.11251 1.01873,0.92255 1.34767,2.39015 0.81843,3.6521 -0.50529,1.20313 -1.7546,1.97853 -3.18483,1.97853 -0.46411,-0.0149 -0.79469,0.29659 -0.84544,0.71855 -0.12875,1.09966 -0.13027,2.22012 -0.006,3.32872 0.046,0.41324 0.54035,0.71974 0.9598,0.71974 1.27459,-0.0326 2.49831,0.75656 3.01165,2.00577 0.51171,1.24757 0.18277,2.70166 -0.81843,3.61942 -0.31314,0.28766 -0.3529,0.76843 -0.089,1.10293 0.6801,0.86624 1.46051,1.6545 2.31553,2.34266 0.33537,0.27023 0.82333,0.23211 1.11404,-0.0882 0.87572,-0.96863 2.44276,-1.32708 3.64894,-0.82082 1.26337,0.52848 2.05805,1.80535 1.98028,3.17688 -0.0254,0.43078 0.29082,0.80579 0.71833,0.85502 0.55931,0.0652 1.12199,0.0978 1.6862,0.0978 0.53556,0 1.07123,-0.0294 1.60679,-0.089 0.42446,-0.0468 0.73891,-0.41237 0.72465,-0.83825 -0.0491,-1.35649 0.75656,-2.61114 2.00261,-3.12133 1.20455,-0.49199 2.75416,-0.1319 3.62497,0.82475 0.2894,0.31478 0.76756,0.35279 1.10467,0.0924 0.87561,-0.68663 1.67182,-1.47412 2.36793,-2.34113 0.27012,-0.33537 0.232,-0.82333 -0.0875,-1.1124 -1.01873,-0.92256 -1.34931,-2.39037 -0.82006,-3.65145 0.49754,-1.18712 1.70046,-1.9842 2.99433,-1.9842 l 0.18102,0.005 c 0.41967,0.0341 0.80579,-0.28918 0.85666,-0.71756 0.12896,-1.10064 0.13049,-2.22013 0.007,-3.32872 z"
         id="path6"
         inkscape:connector-curvature="0" />
      <path
         d="m 347.22128,517.2228 c -0.0753,-0.005 -0.14948,-0.004 -0.22258,7.5e-4 -0.48734,0.0344 -0.93866,0.30441 -1.20149,0.75954 -0.419,0.72746 -0.16818,1.65181 0.56078,2.07234 0.72746,0.41899 1.65334,0.17545 2.07233,-0.55431 0.42048,-0.72518 0.17967,-1.66667 -0.54779,-2.08638 -0.20502,-0.11792 -0.43543,-0.17819 -0.66123,-0.19232 z m -3.99233,1.61207 c -1.05162,0 -2.03515,0.24841 -2.91723,0.68609 l 1.05672,1.90808 c 0.56913,-0.26575 1.19286,-0.42246 1.86058,-0.42246 2.32431,0 4.24269,1.77859 4.44284,4.05284 l 2.15769,-0.027 c -0.10756,-1.67601 -0.84086,-3.18366 -1.96645,-4.29055 -0.57959,0.21741 -1.23784,0.18409 -1.81517,-0.15126 -0.5773,-0.33385 -0.94253,-0.89186 -1.04265,-1.50509 -0.56316,-0.15462 -1.16459,-0.25066 -1.77626,-0.25066 z m -3.66277,1.11503 c -1.33243,0.88954 -2.3137,2.25473 -2.726,3.8486 0.4825,0.39211 0.77255,0.97839 0.77255,1.64986 0,0.66694 -0.2893,1.27501 -0.77255,1.66933 0.4123,1.5931 1.39357,2.95258 2.726,3.84212 l 1.11469,-1.87478 c -1.14345,-0.80363 -1.88756,-2.13263 -1.88756,-3.63683 0,-1.50575 0.74411,-2.83315 1.88756,-3.63684 z m -4.08631,3.98043 c -0.84174,0 -1.51804,0.67629 -1.51804,1.51803 0,0.83876 0.6763,1.51804 1.51804,1.51804 0.84246,0 1.5256,-0.67928 1.5256,-1.51804 0,-0.84174 -0.68314,-1.51803 -1.5256,-1.51803 z m 12.19193,1.92109 c -0.20017,2.27054 -2.11852,4.05284 -4.44285,4.05284 -0.66847,0 -1.29144,-0.15006 -1.86057,-0.41597 l -1.05671,1.89403 c 0.88207,0.43918 1.86566,0.6796 2.91723,0.6796 0.61173,0 1.21311,-0.0817 1.77626,-0.2377 0.10009,-0.61244 0.46458,-1.16868 1.04268,-1.50403 0.57886,-0.33381 1.23562,-0.36621 1.81515,-0.14586 1.12558,-1.10839 1.8588,-2.61304 1.96645,-4.29055 z m -0.66666,4.79833 c -0.22026,0.0187 -0.4426,0.092 -0.64719,0.2107 -0.72889,0.41755 -0.97976,1.33988 -0.56078,2.06585 0.42052,0.72973 1.35711,0.97435 2.08529,0.55536 0.72834,-0.41977 0.96826,-1.34593 0.5478,-2.07339 -0.26282,-0.45512 -0.72055,-0.72419 -1.20798,-0.75848 -0.0732,-0.006 -0.14381,-0.006 -0.21716,0 z"
         id="rect4244"
         style="fill:#ec4978;fill-opacity:1"
         inkscape:connector-curvature="0" />
      <rect
         ry="2.6513216"
         y="506.24057"
         x="321.33743"
         height="38.331757"
         width="43.910923"
         id="rect5089"
         style="opacity:1;fill:#000000;fill-opacity:0.66666667;stroke:none;stroke-width:2;stroke-linecap:round;stroke-linejoin:round;stroke-miterlimit:4;stroke-dasharray:none;stroke-opacity:1" />
      <rect
         style="opacity:1;fill:url(#linearGradient4290);fill-opacity:1;stroke:none;stroke-width:2;stroke-linecap:round;stroke-linejoin:round;stroke-miterlimit:4;stroke-dasharray:none;stroke-opacity:1"
         id="rect4178"
         width="43.910923"
         height="38.331757"
         x="321.33743"
         y="505.78317"
         ry="2.6513216" />
      <path
         inkscape:connector-curvature="0"
         style="clip-rule:evenodd;fill:#000000;fill-opacity:0.07843137;fill-rule:evenodd;stroke-width:1.31742239;stroke-miterlimit:4;stroke-dasharray:none"
         d="m 24.064453,8 c -0.600644,-0.00179 -1.203369,0.029443 -1.802734,0.095703 -0.46387,0.0512 -0.806616,0.4513156 -0.791016,0.9160157 0.0521,1.4836503 -0.827536,2.8554223 -2.191406,3.4140623 -1.247564,0.509595 -2.850759,0.176411 -3.822266,-0.763672 l -0.166015,-0.167968 c -0.31712,-0.31712 -0.824098,-0.349456 -1.179688,-0.07227 -0.95894,0.75236 -1.83053,1.615427 -2.58789,2.560547 -0.286411,0.35626 -0.254517,0.866617 0.06445,1.185547 l 0.03125,0.0293 0.162109,0.162109 0.01172,0.01367 c 0.972034,1.012564 1.267086,2.513606 0.720703,3.816406 -0.55233,1.31518 -1.919002,2.164063 -3.482422,2.164063 -0.50732,-0.0163 -0.8683481,0.323906 -0.9238281,0.785156 -0.14074,1.20206 -0.1432125,2.426842 -0.00781,3.638672 0.0186,0.16753 0.1061787,0.319069 0.2304687,0.443359 l 4.3320314,4.332031 c -0.108377,0.810153 -0.485937,1.583299 -1.115234,2.160157 -0.34231,0.31444 -0.386116,0.839438 -0.09766,1.205078 0.39013,0.49691 0.811342,0.969555 1.257812,1.416015 l 70.710938,70.710939 c 0.40431,0.40432 0.829267,0.78704 1.273437,1.14453 0.3666,0.2954 0.90097,0.25443 1.21875,-0.0957 0.525687,-0.58146 1.279312,-0.95285 2.070313,-1.08594 l 4.341797,4.3418 c 0.13723,0.13722 0.31903,0.23011 0.52539,0.25391 0.61139,0.0713 1.22701,0.10742 1.84375,0.10742 0.58544,0 1.17043,-0.0325 1.75586,-0.0977 0.46399,-0.0512 0.808568,-0.45047 0.792968,-0.91601 -0.0537,-1.48281 0.827373,-2.85441 2.189454,-3.41211 1.260815,-0.51497 2.864095,-0.1744 3.833985,0.77343 l 0.12695,0.12696 0.0273,0.0293 c 0.31843,0.31846 0.82327,0.34912 1.18164,0.0723 0.95715,-0.75058 1.82696,-1.61085 2.58789,-2.55859 0.28587,-0.35487 0.25647,-0.86658 -0.0625,-1.18555 l -0.0332,-0.0312 -0.16407,-0.16406 c -0.98062,-1.01268 -1.28077,-2.51958 -0.73242,-3.826179 0.54388,-1.29767 1.85908,-2.169922 3.27344,-2.169922 l 0.19727,0.0059 c 0.45875,0.0373 0.8819,-0.316876 0.9375,-0.785156 0.14097,-1.20313 0.1415,-2.426842 0.006,-3.638672 -0.0192,-0.17099 -0.10617,-0.324922 -0.23243,-0.451172 l -4.32617,-4.326172 c 0.10857,-0.810272 0.48498,-1.58187 1.11328,-2.158203 0.34397,-0.31445 0.38417,-0.841391 0.0957,-1.207031 -0.39119,-0.49676 -0.80849,-0.96863 -1.25196,-1.41211 L 35.296875,12.667969 c -0.40729,-0.40728 -0.8354,-0.791278 -1.28125,-1.148438 -0.36469,-0.29265 -0.900567,-0.25052 -1.216797,0.09961 -0.52379,0.580091 -1.276753,0.950857 -2.068359,1.083984 L 26.388672,8.3613281 C 26.251572,8.2242281 26.068468,8.1315419 25.861328,8.1074219 25.263748,8.0383069 24.665097,8.0017863 24.064453,8 Z"
         id="path4566"
         transform="matrix(0.91481089,0,0,0.91481089,321.33746,502.94842)"
         clip-path="url(#clipPath5083)" />
      <circle
         style="opacity:1;fill:url(#linearGradient3426-3);fill-opacity:1;stroke:none;stroke-width:1.29989684;stroke-miterlimit:4;stroke-dasharray:none;stroke-dashoffset:0;stroke-opacity:1"
         id="ellipse4233-5"
         cx="343.2746"
         cy="524.91205"
         r="0" />
      <path
         style="clip-rule:evenodd;opacity:1;fill:#ffffff;fill-opacity:0.78431374;fill-rule:evenodd;stroke-width:1.31742239;stroke-miterlimit:4;stroke-dasharray:none"
         d="M 24.064453 7.5 C 23.46381 7.4982346 22.861083 7.5293615 22.261719 7.5957031 C 21.797841 7.6468612 21.455104 8.0470216 21.470703 8.5117188 C 21.522845 9.9953697 20.643163 11.367141 19.279297 11.925781 C 17.971387 12.460023 16.270152 12.070233 15.318359 11.023438 C 15.003792 10.678623 14.477797 10.636231 14.111328 10.921875 C 13.152387 11.674227 12.280796 12.537298 11.523438 13.482422 C 11.228043 13.849853 11.271659 14.381146 11.619141 14.697266 C 12.732737 15.705725 13.092196 17.309988 12.513672 18.689453 C 11.961339 20.004632 10.594677 20.853516 9.03125 20.853516 C 8.523932 20.837228 8.1629088 21.177418 8.1074219 21.638672 C 7.9666824 22.840735 7.9657202 24.06552 8.1015625 25.277344 C 8.1517368 25.729066 8.6918806 26.064453 9.1503906 26.064453 C 10.543673 26.028817 11.880263 26.890309 12.441406 28.255859 C 13.000768 29.619606 12.641309 31.209656 11.546875 32.212891 C 11.204564 32.527327 11.162708 33.05233 11.451172 33.417969 C 12.194604 34.364875 13.047792 35.226273 13.982422 35.978516 C 14.349022 36.27391 14.881437 36.23295 15.199219 35.882812 C 16.156488 34.823982 17.868987 34.432924 19.1875 34.986328 C 20.568507 35.564021 21.438539 36.959735 21.353516 38.458984 C 21.32586 38.929869 21.67134 39.338764 22.138672 39.392578 C 22.750055 39.46385 23.363729 39.5 23.980469 39.5 C 24.565912 39.5 25.152849 39.467494 25.738281 39.402344 C 26.202268 39.351186 26.544896 38.951867 26.529297 38.486328 C 26.475625 37.003519 27.356665 35.631919 28.71875 35.074219 C 30.03547 34.536425 31.729739 34.930838 32.681641 35.976562 C 32.99799 36.320655 33.52018 36.360821 33.888672 36.076172 C 34.845821 35.325591 35.715629 34.465315 36.476562 33.517578 C 36.771837 33.150989 36.730112 32.61677 36.380859 32.300781 C 35.267263 31.292311 34.90584 29.689072 35.484375 28.310547 C 36.028258 27.01288 37.343455 26.140625 38.757812 26.140625 L 38.957031 26.146484 C 39.415782 26.18376 39.836982 25.829611 39.892578 25.361328 C 40.033547 24.158194 40.03452 22.93448 39.898438 21.722656 L 39.900391 21.722656 C 39.849779 21.272837 39.324597 20.935547 38.871094 20.935547 C 37.404823 20.935547 36.104258 20.073665 35.558594 18.742188 C 35.001134 17.378441 35.360353 15.789491 36.453125 14.787109 C 36.797098 14.472662 36.839256 13.945717 36.550781 13.580078 C 35.80032 12.627094 34.946943 11.765576 34.015625 11.019531 C 33.650938 10.726881 33.115057 10.769046 32.798828 11.119141 C 31.845134 12.175348 30.132332 12.567947 28.808594 12.015625 C 27.43103 11.436139 26.561483 10.039424 26.646484 8.5410156 C 26.674468 8.07035 26.330551 7.662067 25.861328 7.6074219 C 25.263746 7.5383038 24.665096 7.5017654 24.064453 7.5 z M 28.050781 14.603516 C 28.130688 14.598334 28.21261 14.59805 28.294922 14.603516 C 28.54176 14.618961 28.793466 14.683599 29.017578 14.8125 C 29.812781 15.271283 30.07487 16.30104 29.615234 17.09375 C 29.157216 17.891456 28.144801 18.157215 27.349609 17.699219 C 26.552767 17.239517 26.280263 16.230749 26.738281 15.435547 C 27.025587 14.938023 27.518048 14.641119 28.050781 14.603516 z M 23.929688 16.365234 C 24.598317 16.365234 25.255502 16.471606 25.871094 16.640625 C 25.980548 17.310949 26.380659 17.920217 27.011719 18.285156 C 27.642811 18.651735 28.362531 18.688828 28.996094 18.451172 C 30.226501 19.661138 31.026944 21.308541 31.144531 23.140625 L 28.787109 23.169922 C 28.56831 20.683878 26.470453 18.740234 23.929688 18.740234 C 23.199788 18.740234 22.518624 18.910664 21.896484 19.201172 L 20.742188 17.115234 C 21.706409 16.636808 22.780138 16.365234 23.929688 16.365234 z M 19.925781 17.583984 L 21.144531 19.619141 C 19.89459 20.497672 19.082031 21.949735 19.082031 23.595703 C 19.082031 25.239988 19.89459 26.691847 21.144531 27.570312 L 19.925781 29.619141 C 18.469284 28.646765 17.39796 27.161375 16.947266 25.419922 C 17.475506 24.988882 17.791016 24.324739 17.791016 23.595703 C 17.791016 22.861704 17.474686 22.219629 16.947266 21.791016 C 17.39796 20.04871 18.469284 18.55636 19.925781 17.583984 z M 15.458984 21.935547 C 16.379896 21.935547 17.126953 22.675568 17.126953 23.595703 C 17.126953 24.512559 16.379896 25.253906 15.458984 25.253906 C 14.538849 25.253906 13.800781 24.512559 13.800781 23.595703 C 13.800781 22.675568 14.538849 21.935547 15.458984 21.935547 z M 28.787109 24.035156 L 31.144531 24.070312 C 31.026846 25.904047 30.22649 27.550102 28.996094 28.761719 C 28.362586 28.520849 27.644472 28.555038 27.011719 28.919922 C 26.379774 29.286511 25.980493 29.894981 25.871094 30.564453 C 25.255502 30.73498 24.598394 30.824219 23.929688 30.824219 C 22.780204 30.824219 21.704456 30.562109 20.740234 30.082031 L 21.896484 28.011719 C 22.518613 28.302402 23.198968 28.466797 23.929688 28.466797 C 26.470453 28.466797 28.568299 26.517134 28.787109 24.035156 z M 28.058594 29.28125 C 28.138774 29.274691 28.214905 29.274691 28.294922 29.28125 C 28.827742 29.318744 29.327951 29.611873 29.615234 30.109375 C 30.074859 30.904578 29.813754 31.918082 29.017578 32.376953 C 28.221588 32.834949 27.197961 32.567204 26.738281 31.769531 C 26.280285 30.975957 26.552844 29.968152 27.349609 29.511719 C 27.573251 29.381976 27.817823 29.301801 28.058594 29.28125 z "
         transform="matrix(0.91481089,0,0,0.91481089,321.33745,503.40584)"
         id="path6-3" />
    </g>
  </g>
  <style
     id="style26"
     type="text/css">
	.specularity {opacity:0.5;}
	.low-specularity {opacity:0.25;}
	.full-specularity {opacity:1;}
	.black {fill:#000000;}
	.white {fill:#ffffff;}
	.outline-big {stroke-width:16;stroke:none;opacity:0.1;fill:none;}
	.outline-small {stroke-width:8;stroke:none;opacity:0.2;fill:none;}
	.stroke-highlight {fill:none;stroke:none;opacity:0.2;}
       	.base-shadow 	{fill:black;opacity:75;}
	</style>
  <style
     id="style26-7"
     type="text/css">
	.specularity {opacity:0.5;}
	.low-specularity {opacity:0.25;}
	.full-specularity {opacity:1;}
	.black {fill:#000000;}
	.white {fill:#ffffff;}
	.outline-big {stroke-width:16;stroke:none;opacity:0.1;fill:none;}
	.outline-small {stroke-width:8;stroke:none;opacity:0.2;fill:none;}
	.stroke-highlight {fill:none;stroke:none;opacity:0.2;}
       	.base-shadow 	{fill:black;opacity:75;}
	</style>
  <style
     type="text/css"
     id="style26-9">
	.specularity {opacity:0.5;}
	.low-specularity {opacity:0.25;}
	.full-specularity {opacity:1;}
	.black {fill:#000000;}
	.white {fill:#ffffff;}
	.outline-big {stroke-width:16;stroke:none;opacity:0.1;fill:none;}
	.outline-small {stroke-width:8;stroke:none;opacity:0.2;fill:none;}
	.stroke-highlight {fill:none;stroke:none;opacity:0.2;}
       	.base-shadow 	{fill:black;opacity:75;}
	</style>
</svg>
