<svg height="48" viewBox="0 0 48 48" width="48" xmlns="http://www.w3.org/2000/svg" xmlns:xlink="http://www.w3.org/1999/xlink">
  <linearGradient id="a" gradientUnits="userSpaceOnUse" x1="17.41394" x2="22.04428" y1="45.47247" y2="4.87396">
    <stop offset="0" stop-color="#ccc" />
    <stop offset="1" stop-color="#fff" />
  </linearGradient>
  <rect fill-opacity=".666667" height="39.229546" rx="1.705632" transform="matrix(.99321303 -.1163094 .1163094 .99321303 0 0)" width="39.229546" x="1.430914" y="7.440157" />
  <rect fill="url(#a)" height="39.229546" rx="1.705632" transform="matrix(.99321303 -.1163094 .1163094 .99321303 0 0)" width="39.229546" x="1.430914" y="6.587374" />
  <path d="m31.146409 30.072238-4.3-7.2 4.3-7.2 2.1 7.2zm-9.5-.7-5.4-5.3h8.6l4.3 7.2zm0-13.1 7.5-1.9-4.3 7.2h-8.7c0 .1 5.5-5.3 5.5-5.3zm11-5.4-9.8 2.5-1.5 2.5h-2.9l-7.2 7 7.2 7h2.9l1.4 2.5 9.8 2.5 2.6-9.5-1.4-2.5 1.5-2.5z" opacity=".645655" />
</svg>
