<?xml version="1.0" encoding="UTF-8" standalone="no"?>
<!-- Created with Inkscape (http://www.inkscape.org/) -->

<svg
   xmlns:osb="http://www.openswatchbook.org/uri/2009/osb"
   xmlns:dc="http://purl.org/dc/elements/1.1/"
   xmlns:cc="http://creativecommons.org/ns#"
   xmlns:rdf="http://www.w3.org/1999/02/22-rdf-syntax-ns#"
   xmlns:svg="http://www.w3.org/2000/svg"
   xmlns="http://www.w3.org/2000/svg"
   xmlns:xlink="http://www.w3.org/1999/xlink"
   xmlns:sodipodi="http://sodipodi.sourceforge.net/DTD/sodipodi-0.dtd"
   xmlns:inkscape="http://www.inkscape.org/namespaces/inkscape"
   width="48"
   height="48"
   id="svg5453"
   version="1.1"
   inkscape:version="0.92.1 r15371"
   sodipodi:docname="unity-tweak-tool.svg">
  <defs
     id="defs5455">
    <linearGradient
       inkscape:collect="always"
       id="linearGradient5172">
      <stop
         style="stop-color:#d71e53;stop-opacity:1"
         offset="0"
         id="stop5174" />
      <stop
         style="stop-color:#ff7099;stop-opacity:1"
         offset="1"
         id="stop5176" />
    </linearGradient>
    <linearGradient
       id="linearGradient4232">
      <stop
         id="stop4234-0"
         offset="0"
         style="stop-color:#3889e9;stop-opacity:1" />
      <stop
         id="stop4236"
         offset="1"
         style="stop-color:#5ea5fb;stop-opacity:1" />
    </linearGradient>
    <style
       type="text/css"
       id="current-color-scheme">.ColorScheme-Text {
        color:#31363b;
      }
      .ColorScheme-Background{
        color:#eff0f1;
      }
      .ColorScheme-ViewText {
        color:#31363b;
      }
      .ColorScheme-ViewBackground{
        color:#fcfcfc;
      }
      .ColorScheme-ViewHover {
        color:#3daee9;
      }
      .ColorScheme-ViewFocus{
        color:#3daee9;
      }
      .ColorScheme-ButtonText {
        color:#31363b;
      }
      .ColorScheme-ButtonBackground{
        color:#eff0f1;
      }
      .ColorScheme-ButtonHover {
        color:#3daee9;
      }
      .ColorScheme-ButtonFocus{
        color:#3daee9;
      }</style>
    <style
       type="text/css"
       id="current-color-scheme-8">.ColorScheme-Text {
        color:#31363b;
      }
      .ColorScheme-Background{
        color:#eff0f1;
      }
      .ColorScheme-ViewText {
        color:#31363b;
      }
      .ColorScheme-ViewBackground{
        color:#fcfcfc;
      }
      .ColorScheme-ViewHover {
        color:#3daee9;
      }
      .ColorScheme-ViewFocus{
        color:#3daee9;
      }
      .ColorScheme-ButtonText {
        color:#31363b;
      }
      .ColorScheme-ButtonBackground{
        color:#eff0f1;
      }
      .ColorScheme-ButtonHover {
        color:#3daee9;
      }
      .ColorScheme-ButtonFocus{
        color:#3daee9;
      }</style>
    <style
       type="text/css"
       id="current-color-scheme-7">.ColorScheme-Text {
        color:#31363b;
      }
      .ColorScheme-Background{
        color:#eff0f1;
      }
      .ColorScheme-ViewText {
        color:#31363b;
      }
      .ColorScheme-ViewBackground{
        color:#fcfcfc;
      }
      .ColorScheme-ViewHover {
        color:#3daee9;
      }
      .ColorScheme-ViewFocus{
        color:#3daee9;
      }
      .ColorScheme-ButtonText {
        color:#31363b;
      }
      .ColorScheme-ButtonBackground{
        color:#eff0f1;
      }
      .ColorScheme-ButtonHover {
        color:#3daee9;
      }
      .ColorScheme-ButtonFocus{
        color:#3daee9;
      }</style>
    <linearGradient
       osb:paint="gradient"
       id="linearGradient4207">
      <stop
         id="stop3371"
         offset="0"
         style="stop-color:#3498db;stop-opacity:1;" />
      <stop
         id="stop3373"
         offset="1"
         style="stop-color:#3498db;stop-opacity:0;" />
    </linearGradient>
    <linearGradient
       id="linearGradient8311-06">
      <stop
         offset="0"
         style="stop-color:#a9a3d4;stop-opacity:1"
         id="stop8313-6" />
      <stop
         id="stop4462"
         style="stop-color:#87baff;stop-opacity:1"
         offset="0.47001833" />
      <stop
         offset="1"
         style="stop-color:#89ec85;stop-opacity:1"
         id="stop8315-2" />
    </linearGradient>
    <linearGradient
       gradientTransform="matrix(1.5682518,0,0,1.5682518,-284.9222,-309.08097)"
       gradientUnits="userSpaceOnUse"
       y2="517.79797"
       x2="399.57144"
       y1="545.79797"
       x1="399.57144"
       id="linearGradient3426-3"
       xlink:href="#linearGradient4232"
       inkscape:collect="always" />
    <linearGradient
       inkscape:collect="always"
       xlink:href="#linearGradient5172"
       id="linearGradient4290-3"
       gradientUnits="userSpaceOnUse"
       gradientTransform="matrix(0.9347609,0,0,0.9347609,-48.732481,33.46738)"
       x1="469.57144"
       y1="542.79797"
       x2="469.57144"
       y2="503.798" />
    <linearGradient
       id="linearGradient4501">
      <stop
         style="stop-color:#ff6835;stop-opacity:1"
         offset="0"
         id="stop4503" />
      <stop
         style="stop-color:#ff956f;stop-opacity:1"
         offset="1"
         id="stop4505" />
    </linearGradient>
    <linearGradient
       inkscape:collect="always"
       xlink:href="#linearGradient4232"
       id="linearGradient3426"
       x1="399.57144"
       y1="545.79797"
       x2="399.57144"
       y2="517.79797"
       gradientUnits="userSpaceOnUse"
       gradientTransform="matrix(1.5682518,0,0,1.5682518,-239.72499,-311.72534)" />
    <linearGradient
       inkscape:collect="always"
       xlink:href="#linearGradient4180"
       id="linearGradient6311"
       x1="23.526918"
       y1="39.175846"
       x2="24.064453"
       y2="8"
       gradientUnits="userSpaceOnUse"
       gradientTransform="matrix(0.80050813,0,0,0.80047218,369.27805,502.59072)" />
    <linearGradient
       inkscape:collect="always"
       id="linearGradient4180">
      <stop
         style="stop-color:#97a9b1;stop-opacity:1"
         offset="0"
         id="stop4182" />
      <stop
         style="stop-color:#cfdce1;stop-opacity:1"
         offset="1"
         id="stop4184" />
    </linearGradient>
    <linearGradient
       inkscape:collect="always"
       xlink:href="#linearGradient4232"
       id="linearGradient5213"
       gradientUnits="userSpaceOnUse"
       gradientTransform="matrix(1.5682518,0,0,1.5682518,-287.63966,-315.31378)"
       x1="399.57144"
       y1="545.79797"
       x2="399.57144"
       y2="517.79797" />
  </defs>
  <sodipodi:namedview
     id="base"
     pagecolor="#6b6b6b"
     bordercolor="#666666"
     borderopacity="1.0"
     inkscape:pageopacity="0"
     inkscape:pageshadow="2"
     inkscape:zoom="8"
     inkscape:cx="42.707247"
     inkscape:cy="6.761848"
     inkscape:document-units="px"
     inkscape:current-layer="g4471"
     showgrid="false"
     fit-margin-top="0"
     fit-margin-left="0"
     fit-margin-right="0"
     fit-margin-bottom="0"
     inkscape:window-width="1362"
     inkscape:window-height="633"
     inkscape:window-x="0"
     inkscape:window-y="33"
     inkscape:window-maximized="0"
     inkscape:showpageshadow="false"
     borderlayer="true"
     showguides="false"
     inkscape:snap-bbox="true"
     inkscape:bbox-paths="false"
     inkscape:bbox-nodes="true"
     inkscape:object-nodes="true"
     inkscape:snap-center="true"
     inkscape:guide-bbox="true"
     showborder="true"
     inkscape:pagecheckerboard="true">
    <sodipodi:guide
       position="1.1650391e-05,47.999996"
       orientation="4,0"
       id="guide4146"
       inkscape:locked="false" />
    <sodipodi:guide
       position="2,38"
       orientation="0,48"
       id="guide4148"
       inkscape:locked="false" />
    <sodipodi:guide
       position="48.000012,43.999996"
       orientation="-4,0"
       id="guide4150"
       inkscape:locked="false" />
    <sodipodi:guide
       position="48.000012,47.999996"
       orientation="0,-48"
       id="guide4152"
       inkscape:locked="false" />
    <sodipodi:guide
       position="1.1650391e-05,4.0000264"
       orientation="4,0"
       id="guide4154"
       inkscape:locked="false" />
    <sodipodi:guide
       position="1.1650391e-05,2.6367188e-05"
       orientation="0,48"
       id="guide4156"
       inkscape:locked="false" />
    <sodipodi:guide
       position="48.000012,2.6367188e-05"
       orientation="-4,0"
       id="guide4158"
       inkscape:locked="false" />
    <sodipodi:guide
       position="48.000012,4.0000264"
       orientation="0,-48"
       id="guide4160"
       inkscape:locked="false" />
    <sodipodi:guide
       position="48.000012,48.000026"
       orientation="0,-4"
       id="guide4162"
       inkscape:locked="false" />
    <sodipodi:guide
       position="44.000012,48.000026"
       orientation="48,0"
       id="guide4164"
       inkscape:locked="false" />
    <sodipodi:guide
       position="44.000012,2.6367188e-05"
       orientation="0,4"
       id="guide4166"
       inkscape:locked="false" />
    <sodipodi:guide
       position="48.000012,2.6367188e-05"
       orientation="-48,0"
       id="guide4168"
       inkscape:locked="false" />
    <sodipodi:guide
       position="4.0000422,48.000026"
       orientation="0,-4"
       id="guide4170"
       inkscape:locked="false" />
    <sodipodi:guide
       position="4.2167969e-05,48.000026"
       orientation="48,0"
       id="guide4172"
       inkscape:locked="false" />
    <sodipodi:guide
       position="4.2167969e-05,2.6367188e-05"
       orientation="0,4"
       id="guide4174"
       inkscape:locked="false" />
    <sodipodi:guide
       position="4.0000422,43.999996"
       orientation="39.999969,0"
       id="guide4175"
       inkscape:locked="false" />
    <sodipodi:guide
       position="4.0000422,4.0000264"
       orientation="0,20"
       id="guide4177"
       inkscape:locked="false" />
    <sodipodi:guide
       position="24.000042,4.0000264"
       orientation="-39.999969,0"
       id="guide4179"
       inkscape:locked="false" />
    <sodipodi:guide
       position="24.000042,43.999996"
       orientation="0,-20"
       id="guide4181"
       inkscape:locked="false" />
    <sodipodi:guide
       position="4.0000422,23.999843"
       orientation="20,0"
       id="guide4185"
       inkscape:locked="false" />
    <sodipodi:guide
       position="44.000012,3.9998433"
       orientation="-20,0"
       id="guide4189"
       inkscape:locked="false" />
    <sodipodi:guide
       position="44.000012,23.999843"
       orientation="0,-39.999969"
       id="guide4191"
       inkscape:locked="false" />
    <sodipodi:guide
       position="-5.3201604,51.964357"
       orientation="0,1"
       id="guide4537"
       inkscape:locked="false" />
  </sodipodi:namedview>
  <metadata
     id="metadata5458">
    <rdf:RDF>
      <cc:Work
         rdf:about="">
        <dc:format>image/svg+xml</dc:format>
        <dc:type
           rdf:resource="http://purl.org/dc/dcmitype/StillImage" />
        <dc:title></dc:title>
      </cc:Work>
    </rdf:RDF>
  </metadata>
  <g
     inkscape:label="Layer 1"
     inkscape:groupmode="layer"
     id="layer1"
     transform="translate(-384.57143,-499.798)"
     style="display:inline">
    <g
       id="g4471"
       transform="matrix(1.0931221,0,0,1.0931221,33.310366,-50.486049)">
      <g
         inkscape:label="Layer 1"
         id="layer1-39"
         transform="matrix(1.5444819,0,0,1.5444819,-275.38426,-295.80854)" />
      <circle
         style="opacity:1;fill:url(#linearGradient3426-3);fill-opacity:1;stroke:none;stroke-width:1.29989684;stroke-miterlimit:4;stroke-dasharray:none;stroke-dashoffset:0;stroke-opacity:1"
         id="ellipse4233-5"
         cx="343.2746"
         cy="524.91205"
         r="0" />
      <circle
         r="0"
         cy="522.2677"
         cx="388.47183"
         id="ellipse4233"
         style="opacity:1;fill:url(#linearGradient3426);fill-opacity:1;stroke:none;stroke-width:1.18915975;stroke-miterlimit:4;stroke-dasharray:none;stroke-dashoffset:0;stroke-opacity:1" />
      <g
         id="g4582"
         transform="translate(-45.197382,3.1017837)">
        <rect
           ry="2.4303782"
           y="505.14828"
           x="368.36429"
           height="35.137444"
           width="40.251678"
           id="rect4559"
           style="opacity:1;fill:#000000;fill-opacity:0.66666667;stroke:none;stroke-width:1.67715335;stroke-linecap:round;stroke-linejoin:round;stroke-miterlimit:4;stroke-dasharray:none;stroke-opacity:1" />
        <rect
           style="opacity:1;fill:url(#linearGradient4290-3);fill-opacity:1;stroke:none;stroke-width:1.67715335;stroke-linecap:round;stroke-linejoin:round;stroke-miterlimit:4;stroke-dasharray:none;stroke-opacity:1"
           id="rect4178-5"
           width="40.251678"
           height="35.137444"
           x="368.36429"
           y="504.23331"
           ry="2.4303782" />
        <path
           id="path4657"
           d="m 388.54195,508.99478 c -0.48081,-8.5e-4 -0.96388,0.0239 -1.44368,0.0768 -0.37134,0.041 -0.64501,0.36058 -0.63251,0.73256 0.0417,1.18762 -0.6628,2.28654 -1.75458,2.73371 -1.00183,0.40921 -2.28918,0.1381 -3.06605,-0.62 l -0.10363,-0.10363 -0.0232,-0.0232 c -0.25386,-0.25385 -0.65874,-0.279 -0.9434,-0.0572 -0.76763,0.60224 -1.46636,1.29285 -2.07262,2.04939 -0.22923,0.2851 -0.20343,0.69354 0.0518,0.94876 l 0.025,0.0232 0.12507,0.12507 0.0107,0.0125 c 0.78133,0.81065 1.01881,2.01428 0.58069,3.0589 -0.44214,1.05278 -1.53579,1.73135 -2.78732,1.73135 -0.40612,-0.0131 -0.69526,0.25971 -0.73971,0.62894 -0.11264,0.9622 -0.11291,1.94235 -0.005,2.91238 0.0149,0.13433 0.0843,0.25582 0.18403,0.35556 l 3.46628,3.46628 c -0.0864,0.64917 -0.38894,1.26719 -0.89337,1.72956 -0.27402,0.2517 -0.30606,0.67216 -0.0751,0.96484 0.31186,0.3972 0.64734,0.77598 1.00415,1.1328 l 8.49774,8.49773 h 18.23904 c 1.34647,10e-6 2.43001,-1.08353 2.43001,-2.42996 v -13.12718 l -11.08137,-11.08136 c -0.3266,-0.32662 -0.66996,-0.63387 -1.02737,-0.92017 -0.29195,-0.23427 -0.72064,-0.19989 -0.97377,0.0804 -0.41915,0.46418 -1.02279,0.7602 -1.65631,0.86657 l -3.47521,-3.47521 c -0.10983,-0.10982 -0.25591,-0.18439 -0.42167,-0.20369 -0.47851,-0.0553 -0.9575,-0.0845 -1.43833,-0.0858 z"
           style="clip-rule:evenodd;fill:#000000;fill-opacity:0.07843137;fill-rule:evenodd;stroke-width:1.05458355;stroke-miterlimit:4;stroke-dasharray:none"
           inkscape:connector-curvature="0" />
        <path
           id="path4588"
           d="m 388.54195,508.99477 c -0.48081,-8.5e-4 -0.96388,0.0239 -1.44368,0.0768 -0.37133,0.041 -0.645,0.36059 -0.63251,0.73257 0.0417,1.18762 -0.6628,2.28653 -1.75458,2.73371 -1.04699,0.42766 -2.40775,0.11429 -3.16967,-0.72363 -0.25182,-0.27603 -0.67326,-0.30903 -0.96663,-0.0804 -0.76762,0.60223 -1.46636,1.29284 -2.07262,2.04938 -0.23648,0.29412 -0.20139,0.71894 0.0768,0.97199 0.89145,0.80724 1.1796,2.09227 0.71648,3.19649 -0.44213,1.05277 -1.53578,1.73134 -2.78731,1.73134 -0.40612,-0.0131 -0.69527,0.2597 -0.73971,0.62893 -0.11263,0.96221 -0.11304,1.94236 -0.005,2.91239 0.0402,0.36161 0.47274,0.63072 0.83977,0.63072 1.11533,-0.0285 2.18447,0.66149 2.63366,1.75458 0.44778,1.09164 0.15963,2.36304 -0.71648,3.16611 -0.27402,0.25169 -0.30603,0.67214 -0.075,0.96483 0.59513,0.75796 1.27797,1.44725 2.02616,2.04939 0.29346,0.23646 0.71939,0.20517 0.97377,-0.075 0.7663,-0.84757 2.13743,-1.16127 3.19291,-0.71827 1.10551,0.46241 1.80122,1.58006 1.73314,2.78016 -0.0222,0.37692 0.25483,0.70379 0.62893,0.74686 0.48941,0.0571 0.98036,0.0857 1.47406,0.0857 0.46863,0 0.9393,-0.0264 1.40795,-0.0786 0.37143,-0.041 0.64498,-0.35992 0.63251,-0.73256 -0.043,-1.18695 0.66242,-2.2855 1.75279,-2.73193 1.05403,-0.43049 2.40946,-0.11344 3.17147,0.72363 0.25322,0.27544 0.67166,0.30646 0.96662,0.0786 0.76622,-0.60082 1.46347,-1.28897 2.07261,-2.0476 0.23637,-0.29345 0.20274,-0.72083 -0.0768,-0.97378 -0.89145,-0.80725 -1.18138,-2.09122 -0.71826,-3.19468 0.43538,-1.03876 1.48894,-1.73672 2.62114,-1.73672 l 0.15902,0.005 c 0.36723,0.0299 0.70414,-0.25409 0.74865,-0.62893 0.11285,-0.96308 0.11417,-1.94234 0.005,-2.91239 h 0.002 c -0.0405,-0.36007 -0.46066,-0.62893 -0.82369,-0.62893 -1.17376,0 -2.21649,-0.69057 -2.65331,-1.75637 -0.44624,-1.09165 -0.1583,-2.36373 0.71648,-3.16609 0.27537,-0.25171 0.30951,-0.67395 0.0786,-0.96664 -0.60074,-0.76283 -1.28421,-1.4522 -2.02973,-2.04939 -0.29195,-0.23426 -0.72064,-0.19987 -0.97377,0.0804 -0.76344,0.84546 -2.13505,1.1586 -3.1947,0.71648 -1.10282,-0.4639 -1.7976,-1.58075 -1.72956,-2.78017 0.0224,-0.37676 -0.25332,-0.7049 -0.62893,-0.74864 -0.47857,-0.0553 -0.95756,-0.0844 -1.43838,-0.0858 z m 2.79089,7.11302 c 0.15622,0.01 0.31556,0.0524 0.45741,0.13401 0.50327,0.29036 0.66969,0.94198 0.37878,1.44368 -0.28986,0.50485 -0.93147,0.67223 -1.43475,0.38236 -0.50432,-0.29094 -0.67759,-0.92968 -0.38772,-1.43297 0.18184,-0.31487 0.49367,-0.50152 0.83084,-0.5253 0.0506,-0.004 0.10339,-0.006 0.15544,-0.002 z m -2.7623,1.11671 c 0.42317,0 0.83967,0.0663 1.22928,0.17332 0.0693,0.42425 0.32066,0.80891 0.72006,1.03988 0.39941,0.232 0.8551,0.25583 1.25608,0.10541 0.77871,0.76578 1.28712,1.80826 1.36149,2.96778 l -1.49371,0.0197 c -0.13848,-1.57339 -1.46517,-2.80518 -3.0732,-2.80518 -0.46195,0 -0.8945,0.10917 -1.28824,0.29302 l -0.73077,-1.3204 c 0.61025,-0.30279 1.29147,-0.47349 2.01901,-0.47349 z m -2.53359,0.77008 0.77008,1.28824 c -0.79108,0.55601 -1.30611,1.47401 -1.30611,2.51573 0,1.04065 0.51503,1.95976 1.30611,2.51573 l -0.77008,1.29717 c -0.92181,-0.61541 -1.60156,-1.55473 -1.8868,-2.65687 0.33432,-0.2728 0.53423,-0.69464 0.53423,-1.15603 0,-0.46455 -0.20043,-0.86866 -0.53423,-1.13994 0.28524,-1.10268 0.96499,-2.04861 1.8868,-2.66403 z m -2.82842,2.75516 c 0.58284,0 1.05597,0.46647 1.05597,1.04881 0,0.58026 -0.47313,1.05061 -1.05597,1.05061 -0.58234,0 -1.04881,-0.47035 -1.04881,-1.05061 0,-0.58234 0.46647,-1.04881 1.04881,-1.04881 z m 8.43521,1.32754 1.49371,0.0232 c -0.0745,1.16055 -0.58279,2.20095 -1.36149,2.96777 -0.40095,-0.15244 -0.85561,-0.12909 -1.25608,0.10185 -0.39995,0.232 -0.65081,0.61618 -0.72006,1.03988 -0.38961,0.10792 -0.80607,0.16439 -1.22928,0.16439 -0.7275,0 -1.40877,-0.16608 -2.01901,-0.46992 l 0.73077,-1.30968 c 0.39375,0.18397 0.82578,0.28767 1.28824,0.28767 1.60804,0 2.93471,-1.23436 3.0732,-2.80519 z m -0.46098,3.31977 c 0.0508,-0.005 0.0995,-0.005 0.15008,0 0.33722,0.0237 0.65436,0.21044 0.83619,0.5253 0.29089,0.50329 0.12511,1.14434 -0.37878,1.43476 -0.50378,0.28986 -1.15277,0.12068 -1.44369,-0.38416 -0.28986,-0.50225 -0.11654,-1.14052 0.38772,-1.42939 0.14154,-0.0821 0.29609,-0.13352 0.44848,-0.14651 z"
           style="clip-rule:evenodd;opacity:1;fill:url(#linearGradient6311);fill-opacity:1;fill-rule:evenodd;stroke-width:1.05458355;stroke-miterlimit:4;stroke-dasharray:none"
           inkscape:connector-curvature="0" />
      </g>
      <circle
         r="0"
         cy="518.67926"
         cx="340.55716"
         id="ellipse4233-6"
         style="opacity:1;fill:url(#linearGradient5213);fill-opacity:1;stroke:none;stroke-width:1.18915975;stroke-miterlimit:4;stroke-dasharray:none;stroke-dashoffset:0;stroke-opacity:1" />
    </g>
  </g>
  <style
     id="style26"
     type="text/css">
	.specularity {opacity:0.5;}
	.low-specularity {opacity:0.25;}
	.full-specularity {opacity:1;}
	.black {fill:#000000;}
	.white {fill:#ffffff;}
	.outline-big {stroke-width:16;stroke:none;opacity:0.1;fill:none;}
	.outline-small {stroke-width:8;stroke:none;opacity:0.2;fill:none;}
	.stroke-highlight {fill:none;stroke:none;opacity:0.2;}
       	.base-shadow 	{fill:black;opacity:75;}
	</style>
  <style
     id="style26-7"
     type="text/css">
	.specularity {opacity:0.5;}
	.low-specularity {opacity:0.25;}
	.full-specularity {opacity:1;}
	.black {fill:#000000;}
	.white {fill:#ffffff;}
	.outline-big {stroke-width:16;stroke:none;opacity:0.1;fill:none;}
	.outline-small {stroke-width:8;stroke:none;opacity:0.2;fill:none;}
	.stroke-highlight {fill:none;stroke:none;opacity:0.2;}
       	.base-shadow 	{fill:black;opacity:75;}
	</style>
  <style
     type="text/css"
     id="style26-9">
	.specularity {opacity:0.5;}
	.low-specularity {opacity:0.25;}
	.full-specularity {opacity:1;}
	.black {fill:#000000;}
	.white {fill:#ffffff;}
	.outline-big {stroke-width:16;stroke:none;opacity:0.1;fill:none;}
	.outline-small {stroke-width:8;stroke:none;opacity:0.2;fill:none;}
	.stroke-highlight {fill:none;stroke:none;opacity:0.2;}
       	.base-shadow 	{fill:black;opacity:75;}
	</style>
</svg>
