<svg height="48" width="48" xmlns="http://www.w3.org/2000/svg" xmlns:xlink="http://www.w3.org/1999/xlink"><linearGradient id="a"><stop offset="0" stop-color="#3889e9"/><stop offset="1" stop-color="#5ea5fb"/></linearGradient><linearGradient id="b" gradientUnits="userSpaceOnUse" x1="341.706430008592" x2="341.706430008592" xlink:href="#a" y1="546.867678888846" y2="502.956628488846"/><linearGradient id="c" gradientUnits="userSpaceOnUse" x1="390.204540868696" x2="390.204540868696" y1="540.853698955373" y2="504.3980518982"><stop offset="0" stop-color="#d71e53"/><stop offset="1" stop-color="#ff7099"/></linearGradient><linearGradient id="d" gradientUnits="userSpaceOnUse" x1="386.903640008592" x2="386.903640008592" xlink:href="#a" y1="544.223308888846" y2="500.312258488846"/><linearGradient id="e" gradientTransform="matrix(.80050813 0 0 .80047218 369.27805 502.59072)" gradientUnits="userSpaceOnUse" x1="23.526918" x2="24.064453" y1="39.175846" y2="8"><stop offset="0" stop-color="#97a9b1"/><stop offset="1" stop-color="#cfdce1"/></linearGradient><linearGradient id="f" gradientUnits="userSpaceOnUse" x1="338.988970008592" x2="338.988970008592" xlink:href="#a" y1="540.634868888846" y2="496.723818488846"/><g transform="matrix(1.0931221 0 0 1.0931221 -351.261064 -550.284049)"><circle cx="343.2746" cy="524.91205" fill="url(#b)" r="0"/><circle cx="388.47183" cy="522.2677" fill="url(#d)" r="0"/><g transform="translate(-45.197382 3.101784)"><rect fill-opacity=".666667" height="35.137444" ry="2.430378" width="40.251678" x="368.36429" y="505.14828"/><rect fill="url(#c)" height="35.137444" ry="2.430378" width="40.251678" x="368.36429" y="504.23331"/><path clip-rule="evenodd" d="m388.54195 508.99478c-.48081-.00085-.96388.0239-1.44368.0768-.37134.041-.64501.36058-.63251.73256.0417 1.18762-.6628 2.28654-1.75458 2.73371-1.00183.40921-2.28918.1381-3.06605-.62l-.10363-.10363-.0232-.0232c-.25386-.25385-.65874-.279-.9434-.0572-.76763.60224-1.46636 1.29285-2.07262 2.04939-.22923.2851-.20343.69354.0518.94876l.025.0232.12507.12507.0107.0125c.78133.81065 1.01881 2.01428.58069 3.0589-.44214 1.05278-1.53579 1.73135-2.78732 1.73135-.40612-.0131-.69526.25971-.73971.62894-.11264.9622-.11291 1.94235-.005 2.91238.0149.13433.0843.25582.18403.35556l3.46628 3.46628c-.0864.64917-.38894 1.26719-.89337 1.72956-.27402.2517-.30606.67216-.0751.96484.31186.3972.64734.77598 1.00415 1.1328l8.49774 8.49773h18.23904c1.34647.00001 2.43001-1.08353 2.43001-2.42996v-13.12718l-11.08137-11.08136c-.3266-.32662-.66996-.63387-1.02737-.92017-.29195-.23427-.72064-.19989-.97377.0804-.41915.46418-1.02279.7602-1.65631.86657l-3.47521-3.47521c-.10983-.10982-.25591-.18439-.42167-.20369-.47851-.0553-.9575-.0845-1.43833-.0858z" fill-opacity=".078431" fill-rule="evenodd" stroke-width="1.054584"/><path clip-rule="evenodd" d="m388.54195 508.99477c-.48081-.00085-.96388.0239-1.44368.0768-.37133.041-.645.36059-.63251.73257.0417 1.18762-.6628 2.28653-1.75458 2.73371-1.04699.42766-2.40775.11429-3.16967-.72363-.25182-.27603-.67326-.30903-.96663-.0804-.76762.60223-1.46636 1.29284-2.07262 2.04938-.23648.29412-.20139.71894.0768.97199.89145.80724 1.1796 2.09227.71648 3.19649-.44213 1.05277-1.53578 1.73134-2.78731 1.73134-.40612-.0131-.69527.2597-.73971.62893-.11263.96221-.11304 1.94236-.005 2.91239.0402.36161.47274.63072.83977.63072 1.11533-.0285 2.18447.66149 2.63366 1.75458.44778 1.09164.15963 2.36304-.71648 3.16611-.27402.25169-.30603.67214-.075.96483.59513.75796 1.27797 1.44725 2.02616 2.04939.29346.23646.71939.20517.97377-.075.7663-.84757 2.13743-1.16127 3.19291-.71827 1.10551.46241 1.80122 1.58006 1.73314 2.78016-.0222.37692.25483.70379.62893.74686.48941.0571.98036.0857 1.47406.0857.46863 0 .9393-.0264 1.40795-.0786.37143-.041.64498-.35992.63251-.73256-.043-1.18695.66242-2.2855 1.75279-2.73193 1.05403-.43049 2.40946-.11344 3.17147.72363.25322.27544.67166.30646.96662.0786.76622-.60082 1.46347-1.28897 2.07261-2.0476.23637-.29345.20274-.72083-.0768-.97378-.89145-.80725-1.18138-2.09122-.71826-3.19468.43538-1.03876 1.48894-1.73672 2.62114-1.73672l.15902.005c.36723.0299.70414-.25409.74865-.62893.11285-.96308.11417-1.94234.005-2.91239h.002c-.0405-.36007-.46066-.62893-.82369-.62893-1.17376 0-2.21649-.69057-2.65331-1.75637-.44624-1.09165-.1583-2.36373.71648-3.16609.27537-.25171.30951-.67395.0786-.96664-.60074-.76283-1.28421-1.4522-2.02973-2.04939-.29195-.23426-.72064-.19987-.97377.0804-.76344.84546-2.13505 1.1586-3.1947.71648-1.10282-.4639-1.7976-1.58075-1.72956-2.78017.0224-.37676-.25332-.7049-.62893-.74864-.47857-.0553-.95756-.0844-1.43838-.0858zm2.79089 7.11302c.15622.01.31556.0524.45741.13401.50327.29036.66969.94198.37878 1.44368-.28986.50485-.93147.67223-1.43475.38236-.50432-.29094-.67759-.92968-.38772-1.43297.18184-.31487.49367-.50152.83084-.5253.0506-.004.10339-.006.15544-.002zm-2.7623 1.11671c.42317 0 .83967.0663 1.22928.17332.0693.42425.32066.80891.72006 1.03988.39941.232.8551.25583 1.25608.10541.77871.76578 1.28712 1.80826 1.36149 2.96778l-1.49371.0197c-.13848-1.57339-1.46517-2.80518-3.0732-2.80518-.46195 0-.8945.10917-1.28824.29302l-.73077-1.3204c.61025-.30279 1.29147-.47349 2.01901-.47349zm-2.53359.77008.77008 1.28824c-.79108.55601-1.30611 1.47401-1.30611 2.51573 0 1.04065.51503 1.95976 1.30611 2.51573l-.77008 1.29717c-.92181-.61541-1.60156-1.55473-1.8868-2.65687.33432-.2728.53423-.69464.53423-1.15603 0-.46455-.20043-.86866-.53423-1.13994.28524-1.10268.96499-2.04861 1.8868-2.66403zm-2.82842 2.75516c.58284 0 1.05597.46647 1.05597 1.04881 0 .58026-.47313 1.05061-1.05597 1.05061-.58234 0-1.04881-.47035-1.04881-1.05061 0-.58234.46647-1.04881 1.04881-1.04881zm8.43521 1.32754 1.49371.0232c-.0745 1.16055-.58279 2.20095-1.36149 2.96777-.40095-.15244-.85561-.12909-1.25608.10185-.39995.232-.65081.61618-.72006 1.03988-.38961.10792-.80607.16439-1.22928.16439-.7275 0-1.40877-.16608-2.01901-.46992l.73077-1.30968c.39375.18397.82578.28767 1.28824.28767 1.60804 0 2.93471-1.23436 3.0732-2.80519zm-.46098 3.31977c.0508-.005.0995-.005.15008 0 .33722.0237.65436.21044.83619.5253.29089.50329.12511 1.14434-.37878 1.43476-.50378.28986-1.15277.12068-1.44369-.38416-.28986-.50225-.11654-1.14052.38772-1.42939.14154-.0821.29609-.13352.44848-.14651z" fill="url(#e)" fill-rule="evenodd" stroke-width="1.054584"/></g><circle cx="340.55716" cy="518.67926" fill="url(#f)" r="0"/></g></svg>