<svg height="48" width="48" xmlns="http://www.w3.org/2000/svg" xmlns:xlink="http://www.w3.org/1999/xlink">
  <linearGradient id="a" gradientTransform="matrix(.31427534 0 0 .31172129 6.645233 -26.005669)" gradientUnits="userSpaceOnUse" x1="41.749" x2="41.357" y1="226.2" y2="102.26">
    <stop offset="0" stop-color="#95a9bb" />
    <stop offset="1" stop-color="#cad3dc" />
  </linearGradient>
  <g fill="#687681" fill-rule="evenodd" transform="matrix(.36347388 -.03253279 .03337791 .35852167 8.400826 -49.710472)">
    <path d="m-23.525 154.67 47.829.0363-.0419 55.168-55.437-.0422.0365-48.054c.006-7.6385 7.211-7.1085 7.6142-7.1082z" />
    <g transform="matrix(1.0015 .00003763 .00003763 .95188 .03653 11.69)">
      <path d="m-23.877 265.81 47.759.0362.044-57.957-55.357-.042-.03833 50.483c-.0061 8.0246 7.1894 7.4791 7.5921 7.4794z" />
      <path d="m71.569 150.28-47.759-.0362-.044 57.957 55.357.042.03835-50.483c.0062-8.0246-7.1895-7.4791-7.5921-7.4794z" />
      <path d="m71.368 265.88-47.759-.0363.044-57.957 55.357.0421-.0383 50.483c-.006 8.0246-7.2008 7.4681-7.6034 7.4678z" />
    </g>
  </g>
  <rect fill="url(#a)" height="40.234226" rx="2.698443" ry="2.654204" stroke-width=".332807" transform="matrix(.99595124 -.08989511 .0882439 .9960989 0 0)" width="40.559959" x="1.508205" y="5.572266" />
  <path d="m9.1057992 12.810515 10.6606778 19.826437 2.210168-.31062 2.597737-9.575819-1.735126.243862-6.344294-11.222547zm20.0976518-2.8246121-3.337144 12.5832471-.02576.0037-3.38935 12.766525-1.145211.160943 1.512508 2.812671 5.578042-.783949 8.192163-28.5802828z" fill="#444d54" fill-rule="evenodd" stroke-width=".925647" />
</svg>
