<?xml version="1.0" encoding="UTF-8" standalone="no"?>
<!-- Created with Inkscape (http://www.inkscape.org/) -->

<svg
   xmlns:dc="http://purl.org/dc/elements/1.1/"
   xmlns:cc="http://creativecommons.org/ns#"
   xmlns:rdf="http://www.w3.org/1999/02/22-rdf-syntax-ns#"
   xmlns:svg="http://www.w3.org/2000/svg"
   xmlns="http://www.w3.org/2000/svg"
   xmlns:xlink="http://www.w3.org/1999/xlink"
   xmlns:sodipodi="http://sodipodi.sourceforge.net/DTD/sodipodi-0.dtd"
   xmlns:inkscape="http://www.inkscape.org/namespaces/inkscape"
   width="48"
   height="48"
   id="svg4468"
   version="1.1"
   inkscape:version="0.91 r13725"
   viewBox="0 0 48 48"
   sodipodi:docname="visualboyadvance.svg">
  <sodipodi:namedview
     id="base"
     pagecolor="#282828"
     bordercolor="#666666"
     borderopacity="1.0"
     inkscape:pageopacity="0"
     inkscape:pageshadow="2"
     inkscape:zoom="7"
     inkscape:cx="3.2702296"
     inkscape:cy="14.566948"
     inkscape:current-layer="layer1"
     showgrid="true"
     inkscape:grid-bbox="true"
     inkscape:document-units="px"
     inkscape:window-width="1366"
     inkscape:window-height="712"
     inkscape:window-x="0"
     inkscape:window-y="28"
     inkscape:window-maximized="1" />
  <defs
     id="defs4470">
    <linearGradient
       inkscape:collect="always"
       id="linearGradient4321">
      <stop
         style="stop-color:#f50057;stop-opacity:1;"
         offset="0"
         id="stop4323" />
      <stop
         style="stop-color:#ff1744;stop-opacity:1"
         offset="1"
         id="stop4325" />
    </linearGradient>
    <linearGradient
       inkscape:collect="always"
       id="linearGradient4289">
      <stop
         style="stop-color:#b3b3b3;stop-opacity:1"
         offset="0"
         id="stop4291" />
      <stop
         style="stop-color:#f2f2f2;stop-opacity:1"
         offset="1"
         id="stop4293" />
    </linearGradient>
    <linearGradient
       inkscape:collect="always"
       xlink:href="#linearGradient4289"
       id="linearGradient4295"
       x1="23.907377"
       y1="23.843342"
       x2="23.835575"
       y2="2.8321688"
       gradientUnits="userSpaceOnUse"
       gradientTransform="matrix(0.98969072,0,0,0.98969072,0.07216495,0)" />
    <linearGradient
       inkscape:collect="always"
       xlink:href="#linearGradient4289"
       id="linearGradient4303"
       x1="36.391533"
       y1="33.205471"
       x2="36.446423"
       y2="28.760799"
       gradientUnits="userSpaceOnUse"
       gradientTransform="matrix(0.98969072,0,0,0.98969072,0.35493373,1.5552283)" />
    <linearGradient
       inkscape:collect="always"
       xlink:href="#linearGradient4289"
       id="linearGradient4311"
       x1="31.98447"
       y1="40.283508"
       x2="31.931629"
       y2="34.222595"
       gradientUnits="userSpaceOnUse"
       gradientTransform="matrix(0.98969072,0,0,0.98969072,-0.21060383,0.98969072)" />
    <radialGradient
       inkscape:collect="always"
       xlink:href="#linearGradient4289"
       id="radialGradient4319"
       cx="14.831183"
       cy="33.774925"
       fx="14.831183"
       fy="33.774925"
       r="3.4896245"
       gradientTransform="matrix(0.53001588,0.02192017,-0.02316897,0.56021076,7.6722171,14.180547)"
       gradientUnits="userSpaceOnUse" />
    <linearGradient
       inkscape:collect="always"
       xlink:href="#linearGradient4321"
       id="linearGradient4327"
       x1="24.714285"
       y1="48.285713"
       x2="24.432728"
       y2="-19"
       gradientUnits="userSpaceOnUse"
       gradientTransform="matrix(0.98969072,0,0,0.98969072,0.07216495,0)" />
  </defs>
  <metadata
     id="metadata4473">
    <rdf:RDF>
      <cc:Work
         rdf:about="">
        <dc:format>image/svg+xml</dc:format>
        <dc:type
           rdf:resource="http://purl.org/dc/dcmitype/StillImage" />
        <dc:title />
      </cc:Work>
    </rdf:RDF>
  </metadata>
  <g
     id="layer1"
     inkscape:label="Layer 1"
     inkscape:groupmode="layer">
    <rect
       rx="2.4184444"
       ry="2.4184444"
       y="0.49484536"
       x="7"
       height="47.505154"
       width="35.067444"
       id="rect4329"
       style="opacity:1;fill:#000000;fill-opacity:0.54901961;stroke:none;stroke-width:2;stroke-linejoin:miter;stroke-miterlimit:4;stroke-dasharray:none;stroke-opacity:0.07843137" />
    <rect
       style="opacity:1;fill:url(#linearGradient4327);fill-opacity:1;stroke:none;stroke-width:2;stroke-linejoin:miter;stroke-miterlimit:4;stroke-dasharray:none;stroke-opacity:0.07843137"
       id="rect5016"
       width="35.067444"
       height="47.505154"
       x="7"
       y="-1.7763568e-15"
       ry="2.4184444"
       rx="2.4184444" />
    <rect
       ry="1.6354444"
       rx="1.4975278"
       y="2.1951096"
       x="9.2705774"
       height="21.961683"
       width="30.37842"
       id="rect4142"
       style="opacity:1;fill:#000000;fill-opacity:0.35294118;stroke:none;stroke-width:2;stroke-linejoin:miter;stroke-miterlimit:4;stroke-dasharray:none;stroke-opacity:0.07843137" />
    <rect
       style="opacity:1;fill:url(#linearGradient4295);fill-opacity:1;stroke:none;stroke-width:2;stroke-linejoin:miter;stroke-miterlimit:4;stroke-dasharray:none;stroke-opacity:0.07843137"
       id="rect5018"
       width="29.021332"
       height="20.556778"
       x="9.9366817"
       y="2.9218636"
       rx="1.4306291"
       ry="1.5308238" />
    <circle
       style="opacity:1;fill:#000000;fill-opacity:0.35294118;stroke:none;stroke-width:2;stroke-linejoin:miter;stroke-miterlimit:4;stroke-dasharray:none;stroke-opacity:0.07843137"
       id="path5028"
       cx="14.735251"
       cy="33.533688"
       r="4.8368888" />
    <path
       style="opacity:1;fill:url(#radialGradient4319);fill-opacity:1;stroke:none;stroke-width:2;stroke-linejoin:miter;stroke-miterlimit:4;stroke-dasharray:none;stroke-opacity:0.07843137"
       d="m 13.65919,29.973082 c -0.170072,0 -0.308789,0.135722 -0.308789,0.305791 l 0,1.83775 -1.747812,0 c -0.170073,0 -0.305789,0.135721 -0.305789,0.305793 l 0,2.149536 c 0,0.170072 0.13572,0.305791 0.305789,0.305791 l 1.747812,0 0,1.693849 c 0,0.170072 0.138713,0.308789 0.308789,0.308789 l 2.14654,0 c 0.170073,0 0.30879,-0.138714 0.30879,-0.308789 l 0,-1.693849 1.780787,0 c 0.170074,0 0.308791,-0.13572 0.308791,-0.305791 l 0,-2.149536 c 0,-0.170074 -0.138714,-0.305793 -0.308791,-0.305793 l -1.780787,0 0,-1.83775 c -2e-6,-0.170072 -0.138714,-0.305791 -0.30879,-0.305791 l -2.14654,0 z"
       id="rect5020"
       inkscape:connector-curvature="0" />
    <g
       id="g4158"
       style="opacity:1;fill:#ffffff;fill-opacity:1;stroke:none;stroke-width:2;stroke-linejoin:miter;stroke-miterlimit:4;stroke-dasharray:none;stroke-opacity:0.07843137"
       transform="matrix(1.2092221,0,0,1.2092221,-2.6737772,-7.0825872)" />
    <g
       style="opacity:1;fill:#ffffff;fill-opacity:1;stroke:none;stroke-width:2;stroke-linejoin:miter;stroke-miterlimit:4;stroke-dasharray:none;stroke-opacity:0.07843137"
       id="g4189"
       transform="matrix(1.2092221,0,0,1.2092221,-2.6737772,-7.0825872)" />
    <g
       id="g4222"
       style="opacity:1;fill:#ffffff;fill-opacity:1;stroke:none;stroke-width:2;stroke-linejoin:miter;stroke-miterlimit:4;stroke-dasharray:none;stroke-opacity:0.07843137"
       transform="matrix(1.2092221,0,0,1.2092221,-2.6737772,-7.0825872)" />
    <path
       inkscape:transform-center-y="2.1593252"
       inkscape:transform-center-x="5.9597376"
       id="path5024"
       d="m 38.525071,32.318926 a 2.1765999,2.1765999 0 0 1 -2.176599,2.176599 2.1765999,2.1765999 0 0 1 -2.1766,-2.176599 2.1765999,2.1765999 0 0 1 2.1766,-2.176601 2.1765999,2.1765999 0 0 1 2.176599,2.176601 z"
       style="opacity:1;fill:url(#linearGradient4303);fill-opacity:1;stroke:none;stroke-width:2;stroke-linejoin:miter;stroke-miterlimit:4;stroke-dasharray:none;stroke-opacity:0.07843137"
       inkscape:connector-curvature="0" />
    <g
       style="opacity:1;fill:#ffffff;fill-opacity:1;stroke:none;stroke-width:2;stroke-linejoin:miter;stroke-miterlimit:4;stroke-dasharray:none;stroke-opacity:0.07843137"
       id="g4258"
       transform="matrix(1.2092221,0,0,1.2092221,-2.6737772,-7.0825872)" />
    <path
       inkscape:connector-curvature="0"
       style="opacity:1;fill:url(#linearGradient4311);fill-opacity:1;stroke:none;stroke-width:2;stroke-linejoin:miter;stroke-miterlimit:4;stroke-dasharray:none;stroke-opacity:0.07843137"
       d="m 34.491023,37.858693 a 3.0230555,3.0230555 0 0 1 -3.023057,3.023054 3.0230555,3.0230555 0 0 1 -3.023054,-3.023054 3.0230555,3.0230555 0 0 1 3.023054,-3.023056 3.0230555,3.0230555 0 0 1 3.023057,3.023056 z"
       id="path5026" />
    <path
       style="opacity:1;fill:#000000;fill-opacity:0.07843138;stroke:none;stroke-width:2;stroke-linejoin:miter;stroke-miterlimit:4;stroke-dasharray:none;stroke-opacity:0.07843137"
       d="m 38.539643,23.031049 c -0.258586,0.276697 -0.616244,0.447384 -1.012528,0.447384 l -26.160073,0 c -0.792569,0 -1.4306296,-0.682748 -1.4306296,-1.530824 l 0,-17.4951296 c 0,-0.4240381 0.1595156,-0.8067441 0.4181016,-1.0834406 z"
       id="rect4286"
       inkscape:connector-curvature="0"
       sodipodi:nodetypes="csssscc" />
  </g>
</svg>
