<?xml version="1.0" encoding="UTF-8" standalone="no"?>
<!-- Created with Inkscape (http://www.inkscape.org/) -->

<svg
   xmlns:dc="http://purl.org/dc/elements/1.1/"
   xmlns:cc="http://creativecommons.org/ns#"
   xmlns:rdf="http://www.w3.org/1999/02/22-rdf-syntax-ns#"
   xmlns:svg="http://www.w3.org/2000/svg"
   xmlns="http://www.w3.org/2000/svg"
   xmlns:xlink="http://www.w3.org/1999/xlink"
   xmlns:sodipodi="http://sodipodi.sourceforge.net/DTD/sodipodi-0.dtd"
   xmlns:inkscape="http://www.inkscape.org/namespaces/inkscape"
   sodipodi:docname="vlc.svg"
   inkscape:version="0.91 r13725"
   version="1.1"
   id="svg5453"
   height="48"
   width="48">
  <sodipodi:namedview
     showborder="true"
     showguides="false"
     borderlayer="true"
     inkscape:showpageshadow="false"
     inkscape:window-maximized="1"
     inkscape:window-y="33"
     inkscape:window-x="0"
     inkscape:window-height="642"
     inkscape:window-width="1366"
     fit-margin-bottom="0"
     fit-margin-right="0"
     fit-margin-left="0"
     fit-margin-top="0"
     showgrid="false"
     inkscape:current-layer="layer1"
     inkscape:document-units="px"
     inkscape:cy="11.232779"
     inkscape:cx="22.208853"
     inkscape:zoom="18.38075"
     inkscape:pageshadow="2"
     inkscape:pageopacity="0"
     borderopacity="1.0"
     bordercolor="#666666"
     pagecolor="#5a5a5a"
     id="base">
    <inkscape:grid
       id="grid4063"
       type="xygrid" />
    <sodipodi:guide
       id="guide4146"
       orientation="4,0"
       position="1.1650391e-05,47.999996" />
    <sodipodi:guide
       id="guide4148"
       orientation="0,48"
       position="1.1650391e-05,43.999996" />
    <sodipodi:guide
       id="guide4150"
       orientation="-4,0"
       position="48.000012,43.999996" />
    <sodipodi:guide
       id="guide4152"
       orientation="0,-48"
       position="48.000012,47.999996" />
    <sodipodi:guide
       id="guide4154"
       orientation="4,0"
       position="1.1650391e-05,4.0000264" />
    <sodipodi:guide
       id="guide4156"
       orientation="0,48"
       position="1.1650391e-05,2.6367188e-05" />
    <sodipodi:guide
       id="guide4158"
       orientation="-4,0"
       position="48.000012,2.6367188e-05" />
    <sodipodi:guide
       id="guide4160"
       orientation="0,-48"
       position="48.000012,4.0000264" />
    <sodipodi:guide
       id="guide4162"
       orientation="0,-4"
       position="48.000012,48.000026" />
    <sodipodi:guide
       id="guide4164"
       orientation="48,0"
       position="44.000012,48.000026" />
    <sodipodi:guide
       id="guide4166"
       orientation="0,4"
       position="44.000012,2.6367188e-05" />
    <sodipodi:guide
       id="guide4168"
       orientation="-48,0"
       position="48.000012,2.6367188e-05" />
    <sodipodi:guide
       id="guide4170"
       orientation="0,-4"
       position="4.0000422,48.000026" />
    <sodipodi:guide
       id="guide4172"
       orientation="48,0"
       position="4.2167969e-05,48.000026" />
    <sodipodi:guide
       id="guide4174"
       orientation="0,4"
       position="4.2167969e-05,2.6367188e-05" />
    <sodipodi:guide
       id="guide4360"
       orientation="16,0"
       position="15.999981,32.000026" />
    <sodipodi:guide
       id="guide4362"
       orientation="0,16"
       position="15.999981,16.000026" />
    <sodipodi:guide
       id="guide4364"
       orientation="-16,0"
       position="31.999981,16.000026" />
    <sodipodi:guide
       id="guide4366"
       orientation="0,-16"
       position="31.999981,32.000026" />
  </sodipodi:namedview>
  <defs
     id="defs5455">
    <linearGradient
       id="linearGradient4402">
      <stop
         id="stop4405"
         offset="0"
         style="stop-color:#dbd4cf;stop-opacity:1" />
      <stop
         style="stop-color:#dedfe1;stop-opacity:1"
         offset="0.5288403"
         id="stop4407" />
      <stop
         id="stop4409"
         offset="1"
         style="stop-color:#dad4d1;stop-opacity:1" />
    </linearGradient>
    <linearGradient
       id="linearGradient4396">
      <stop
         style="stop-color:#e95c00;stop-opacity:1"
         offset="0"
         id="stop4398" />
      <stop
         style="stop-color:#ffa000;stop-opacity:1"
         offset="1"
         id="stop4400" />
    </linearGradient>
    <linearGradient
       id="linearGradient4380">
      <stop
         id="stop4382"
         offset="0"
         style="stop-color:#e35600;stop-opacity:1" />
      <stop
         id="stop4384"
         offset="1"
         style="stop-color:#f69600;stop-opacity:1" />
    </linearGradient>
    <linearGradient
       id="linearGradient3668">
      <stop
         id="stop3670"
         offset="0"
         style="stop-color:#9b4400;stop-opacity:1;" />
      <stop
         id="stop3672"
         offset="1"
         style="stop-color:#e56300;stop-opacity:1;" />
    </linearGradient>
    <linearGradient
       inkscape:collect="always"
       xlink:href="#linearGradient4402"
       id="linearGradient2884"
       gradientUnits="userSpaceOnUse"
       x1="104.88638"
       y1="12.640625"
       x2="246.86618"
       y2="0.95083112"
       gradientTransform="matrix(0.07206128,0,0,0.07100887,395.87444,511.68902)" />
    <linearGradient
       inkscape:collect="always"
       xlink:href="#linearGradient4402"
       id="linearGradient2890"
       gradientUnits="userSpaceOnUse"
       x1="44.103722"
       y1="228.59993"
       x2="278.4324"
       y2="290.6998"
       gradientTransform="matrix(0.07161878,0,0,0.07100887,395.95256,511.68902)" />
    <linearGradient
       inkscape:collect="always"
       xlink:href="#linearGradient4396"
       id="linearGradient2893"
       gradientUnits="userSpaceOnUse"
       x1="252.49481"
       y1="471.8645"
       x2="163.79326"
       y2="-123.65855"
       gradientTransform="matrix(0.07100887,0,0,0.07100887,396.06002,511.68902)" />
    <linearGradient
       inkscape:collect="always"
       xlink:href="#linearGradient4380"
       id="linearGradient2899"
       gradientUnits="userSpaceOnUse"
       gradientTransform="matrix(0.25160624,0,0,0.25669709,396.06002,511.33087)"
       x1="46.226089"
       y1="82.088463"
       x2="44.375881"
       y2="125.31633" />
  </defs>
  <metadata
     id="metadata5458">
    <rdf:RDF>
      <cc:Work
         rdf:about="">
        <dc:format>image/svg+xml</dc:format>
        <dc:type
           rdf:resource="http://purl.org/dc/dcmitype/StillImage" />
        <dc:title></dc:title>
      </cc:Work>
    </rdf:RDF>
  </metadata>
  <g
     transform="translate(-384.57143,-499.798)"
     id="layer1"
     inkscape:groupmode="layer"
     inkscape:label="Layer 1">
    <path
       sodipodi:nodetypes="csssssscc"
       id="path3657"
       d="m 390.06187,542.75131 c 0,0 -0.62117,0.67003 -0.78547,1.21391 -0.11482,0.38006 -0.15964,0.94669 0.0476,1.28532 0.15206,0.24847 0.35136,0.49981 0.64266,0.49985 12.66454,0.002 26.67029,0.0205 36.52448,0.0476 0.3336,9.2e-4 0.96641,-0.0576 1.22581,-0.42844 0.26441,-0.37796 0.25787,-1.22045 0.0714,-1.64235 -0.19636,-0.44427 -1.11871,-0.64266 -1.11871,-0.64266 l -36.60778,-0.33323 z"
       style="fill:#cb5600;fill-opacity:1;fill-rule:evenodd;stroke:none"
       inkscape:connector-curvature="0" />
    <path
       sodipodi:nodetypes="ccccccccc"
       id="rect2862"
       d="m 394.72849,529.39004 c -0.57863,0 -1.17933,0.4458 -1.34696,1.00093 l -4.0431,13.3924 c -0.16763,0.55513 0.16253,1.00315 0.74116,1.00315 l 37.2844,0 c 0.44086,0 0.69358,-0.33998 0.56586,-0.76293 l -4.18956,-13.87062 c -0.12771,-0.42295 -0.58434,-0.76293 -1.0252,-0.76293 l -27.9866,0 z"
       style="fill:url(#linearGradient2899);fill-opacity:1;fill-rule:evenodd;stroke:none"
       inkscape:connector-curvature="0" />
    <path
       style="fill:#000000;fill-opacity:0.07843137;fill-rule:evenodd;stroke:none"
       d="m 397.95229,529.3898 -1.95898,6.46875 c 0,0 0.20723,1.34982 1.49414,2.63672 l 6.29102,6.29101 23.58593,0 c 0.44086,0 0.69413,-0.33877 0.56641,-0.76172 l -4.19141,-13.87109 c -0.12771,-0.42295 -0.58257,-0.76367 -1.02343,-0.76367 l -24.76368,0 z"
       id="path4468"
       inkscape:connector-curvature="0" />
    <path
       inkscape:connector-curvature="0"
       style="fill:url(#linearGradient2893);fill-opacity:1;fill-rule:evenodd;stroke:none"
       d="m 408.54427,501.79882 c -0.96171,-0.01 -1.5275,0.0618 -2.09476,0.48818 -0.25892,0.19461 -0.46351,0.65686 -0.58583,0.98969 l -9.87023,32.58197 c 0,0 0.43402,2.81803 3.92704,4.19163 2.41783,0.9508 4.91349,1.07694 8.79686,1.11849 4.32479,0.0463 6.08656,-0.37808 8.91335,-1.36439 1.33062,-0.46428 2.0204,-1.06793 2.65146,-1.73726 0.91261,-0.96796 0.88837,-2.34383 0.88837,-2.34383 l -10.15204,-33.05241 c -0.0686,-0.12476 -0.14352,-0.23647 -0.22413,-0.31288 -0.60306,-0.5716 -1.51688,-0.55182 -2.25009,-0.55919 z"
       id="path2825"
       sodipodi:nodetypes="csccssssccsc" />
    <path
       id="path2843"
       d="m 399.52007,523.96468 -2.17943,7.44927 c 2.76047,2.30669 6.71498,3.76347 11.23025,3.76347 4.53566,0 8.60157,-1.46974 11.36277,-3.79453 l -2.2918,-7.40046 c -2.10988,1.66893 -5.37983,2.7405 -9.05082,2.7405 -3.68316,0 -6.96182,-1.07983 -9.07097,-2.75825 z"
       style="fill:url(#linearGradient2890);fill-opacity:1;fill-rule:evenodd;stroke:none"
       inkscape:connector-curvature="0"
       sodipodi:nodetypes="ccsccsc" />
    <path
       id="path2829"
       d="m 412.703,507.96327 c -1.08083,0.35741 -2.55773,0.57917 -4.18856,0.57917 -1.60428,0 -3.06085,-0.21424 -4.13676,-0.56141 l -2.41631,7.86201 c 1.62422,0.83759 4.00253,1.36692 6.65441,1.36692 2.59947,0 4.93803,-0.50691 6.55983,-1.31588 l -2.47261,-7.93081 z"
       style="fill:url(#linearGradient2884);fill-opacity:1;fill-rule:evenodd;stroke:none"
       inkscape:connector-curvature="0" />
  </g>
</svg>
