<svg height="48" width="48" xmlns="http://www.w3.org/2000/svg" xmlns:xlink="http://www.w3.org/1999/xlink"><linearGradient id="a"><stop offset="0" stop-color="#cdd0d1"/><stop offset="1" stop-color="#f6f6f7"/></linearGradient><linearGradient id="b" gradientUnits="userSpaceOnUse" x1="72.093157" x2="71.561756" y1="42.649616" y2="7.276058"><stop offset="0" stop-color="#3771c8"/><stop offset="1" stop-color="#28a7c8"/></linearGradient><linearGradient id="c" gradientUnits="userSpaceOnUse" x1="11.660663" x2="10.415977" xlink:href="#a" y1="56.928329" y2="32.880904"/><linearGradient id="d" gradientUnits="userSpaceOnUse" x1="14.428456" x2="5.505778" y1="47.467573" y2="39.642166"><stop offset="0" stop-color="#16a085"/><stop offset="1" stop-color="#2dcb72"/></linearGradient><filter id="e" color-interpolation-filters="sRGB"><feColorMatrix in="SourceGraphic" result="fbSourceGraphic" type="hueRotate" values="180"/><feColorMatrix in="SourceGraphic" result="result1" values="1 0 0 0 0 0 1 0 0 0 0 0 1 0 0 -0.2125 -0.7154 -0.0721 1 0"/><feColorMatrix type="hueRotate" values="0"/><feColorMatrix result="result3" values="1 0 0 0 0 0 1 0 0 0 0 0 1 0 0 0 0 0 1 0"/><feComposite in2="result3" operator="atop" result="result6"/><feComposite in="result6" in2="result6" k1="0.5" k2="0.5" k3="0.5" operator="arithmetic" result="result4"/><feBlend in="result4" in2="fbSourceGraphic" mode="normal" result="result2"/><feComposite in2="result2" k2="1" operator="arithmetic" result="result5"/><feComposite in2="SourceGraphic" operator="in" result="result5"/></filter><filter id="f" color-interpolation-filters="sRGB"><feColorMatrix values="0.21 0.72 0.072 0 0 0.21 0.72 0.072 0 0 0.21 0.72 0.072 0 0 0 0 0 1 0"/></filter><clipPath id="g"><rect height="39.021347" rx="2.672695" width="39.021347" x="6.947659" y="6.947625"/></clipPath><linearGradient id="h" gradientUnits="userSpaceOnUse" x1="20.489271" x2="29.533718" xlink:href="#a" y1="40.735912" y2="14.445042"/><g filter="url(#e)" transform="matrix(.800313154128 -.011029996061 .011029996061 .800313154128 -31.982003352115 -.368501449284)"><rect fill="url(#b)" height="36.295765" ry="1.5" width="48.232185" x="47.935978" y="7.164441"/></g><g transform="matrix(.789168022115 -.133553891745 .133553891745 .789168022115 -38.747542842315 15.093755617881)"><rect fill="url(#b)" height="36.295765" ry="1.5" width="48.232185" x="47.935978" y="7.164441"/><path clip-path="url(#g)" d="m28.11797 36.140045-6.378488-6.37849-2.847166 2.21885c-1.56594 1.220368-3.396111 2.646642-4.067054 3.169497l-1.219894.950647-1.602615-.800643-1.602609-.800643v-8.038732-8.038731l1.594754-.797124 1.594749-.797124.139419.103111c.07667.05671 1.895185 1.48793 4.041127 3.180487 2.145937 1.692556 3.914025 3.073666 3.929076 3.069132.01504-.0046 2.901634-2.882478 6.414631-6.395432l6.387259-6.387189 4.007681 1.597687 4.007683 1.597687-.0092 12.843571-.0092 12.843574-3.982564 1.619649c-2.190409.890808-3.990792 1.619437-4.000845 1.619177-.01005-.000276-2.888605-2.870793-6.396775-6.378961zm6.396787-9.67965c0-3.587048-.01233-6.520914-.02742-6.5197-.04442.0036-8.38738 6.479667-8.39914 6.5197-.0103.03509 8.342965 6.521105 8.39914 6.521644.01504.000137.02742-2.934596.02742-6.521644zm-18.467844 2.465627 2.391109-2.465627-2.402059-2.402327c-1.321136-1.32128-2.414438-2.402327-2.429565-2.402327-.01517 0-.02749 2.196348-.02749 4.880774 0 3.400223.01169 4.876883.03849 4.867953.02117-.0071 1.114458-1.122352 2.429565-2.478446z" fill="url(#h)" stroke-width=".036537" transform="matrix(.68356261 -.00172548 .00172548 .68356261 52.359129 6.748591)"/></g><g filter="url(#f)" transform="matrix(.606681011906 -.00836133848 .00836133848 .606681011906 33.066980919417 6.47543870637)"><circle cx="11.184063" cy="45.12323" fill="url(#c)" r="12.348694"/><path d="m14.428456 47.271288-8.9226783.196284 4.2913527-7.825408z" fill="url(#d)" transform="matrix(-.01774298 1.1631677 -1.1631677 -.01774298 62.760227 34.349575)"/></g></svg>