<?xml version="1.0" encoding="UTF-8" standalone="no"?>
<!-- Created with Inkscape (http://www.inkscape.org/) -->

<svg
   xmlns:dc="http://purl.org/dc/elements/1.1/"
   xmlns:cc="http://creativecommons.org/ns#"
   xmlns:rdf="http://www.w3.org/1999/02/22-rdf-syntax-ns#"
   xmlns:svg="http://www.w3.org/2000/svg"
   xmlns="http://www.w3.org/2000/svg"
   xmlns:xlink="http://www.w3.org/1999/xlink"
   xmlns:sodipodi="http://sodipodi.sourceforge.net/DTD/sodipodi-0.dtd"
   xmlns:inkscape="http://www.inkscape.org/namespaces/inkscape"
   id="svg8"
   version="1.1"
   viewBox="0 0 52.916665 52.916668"
   height="200"
   width="200"
   inkscape:version="0.92.1 r15371"
   sodipodi:docname="vscode.svg">
  <sodipodi:namedview
     inkscape:window-maximized="1"
     inkscape:window-y="-8"
     inkscape:window-x="-8"
     inkscape:window-height="837"
     inkscape:window-width="1440"
     showguides="false"
     units="px"
     showgrid="false"
     inkscape:current-layer="layer2"
     inkscape:document-units="mm"
     inkscape:cy="133.14482"
     inkscape:cx="34.430787"
     inkscape:zoom="1.979899"
     inkscape:pageshadow="2"
     inkscape:pageopacity="0.0"
     borderopacity="1.0"
     bordercolor="#666666"
     pagecolor="#ffffff"
     id="base" />
  <defs
     id="defs2">
    <linearGradient
       inkscape:collect="always"
       id="linearGradient6056">
      <stop
         style="stop-color:#000000;stop-opacity:1;"
         offset="0"
         id="stop6052" />
      <stop
         style="stop-color:#000000;stop-opacity:0;"
         offset="1"
         id="stop6054" />
    </linearGradient>
    <linearGradient
       inkscape:collect="always"
       xlink:href="#linearGradient6056"
       id="linearGradient6058"
       x1="45.32296"
       y1="22.802521"
       x2="63.682938"
       y2="36.947356"
       gradientUnits="userSpaceOnUse" />
    <clipPath
       clipPathUnits="userSpaceOnUse"
       id="clipPath6121">
      <rect
         id="rect6123"
         width="147.48225"
         height="147.48225"
         x="26.258867"
         y="26.258739"
         style="display:inline;fill:#5fbcd3;stroke:#4bbbdb;stroke-width:0.98983037;stroke-opacity:0"
         rx="10.101525"
         ry="10.101525" />
    </clipPath>
    <clipPath
       clipPathUnits="userSpaceOnUse"
       id="clipPath6125">
      <rect
         id="rect6127"
         width="39.021347"
         height="39.021347"
         x="6.9476585"
         y="6.9476247"
         style="display:inline;fill:#5fbcd3;stroke:#4bbbdb;stroke-width:0.26189262;stroke-opacity:0"
         rx="2.6726952"
         ry="2.6726952" />
    </clipPath>
    <clipPath
       clipPathUnits="userSpaceOnUse"
       id="clipPath6129">
      <rect
         id="rect6131"
         width="39.021347"
         height="39.021347"
         x="6.9476585"
         y="6.9476247"
         style="display:inline;fill:#5fbcd3;stroke:#4bbbdb;stroke-width:0.26189262;stroke-opacity:0"
         rx="2.6726952"
         ry="2.6726952" />
    </clipPath>
  </defs>
  <metadata
     id="metadata5">
    <rdf:RDF>
      <cc:Work
         rdf:about="">
        <dc:format>image/svg+xml</dc:format>
        <dc:type
           rdf:resource="http://purl.org/dc/dcmitype/StillImage" />
        <dc:title></dc:title>
        <cc:license
           rdf:resource="http://creativecommons.org/licenses/by-nc-nd/4.0/" />
      </cc:Work>
      <cc:License
         rdf:about="http://creativecommons.org/licenses/by-nc-nd/4.0/">
        <cc:permits
           rdf:resource="http://creativecommons.org/ns#Reproduction" />
        <cc:permits
           rdf:resource="http://creativecommons.org/ns#Distribution" />
        <cc:requires
           rdf:resource="http://creativecommons.org/ns#Notice" />
        <cc:requires
           rdf:resource="http://creativecommons.org/ns#Attribution" />
        <cc:prohibits
           rdf:resource="http://creativecommons.org/ns#CommercialUse" />
      </cc:License>
    </rdf:RDF>
  </metadata>
  <g
     transform="translate(0,-244.08332)"
     id="layer1"
     inkscape:groupmode="layer"
     inkscape:label="Capa 1"
     style="display:inline">
    <rect
       ry="2.6726952"
       rx="2.6726952"
       style="fill:#3771c8;stroke:#4bbbdb;stroke-width:0.26189262;stroke-opacity:0"
       y="251.03098"
       x="6.94766"
       height="39.021347"
       width="39.021347"
       id="rect16" />
  </g>
  <g
     inkscape:label="Icon image"
     id="layer2"
     inkscape:groupmode="layer">
    <path
       style="fill:url(#linearGradient6058);stroke-width:0.03653729;fill-opacity:1;opacity:0.15"
       d="m 34.501253,10.397815 c -4.266512,4.261646 -8.521403,8.534998 -12.801803,12.782682 -2.72536,-2.089125 -5.395649,-4.249322 -8.109582,-6.353101 -1.063048,0.531623 -2.126205,1.063028 -3.189469,1.594218 0,5.35919 0,10.71838 0,16.07757 1.054671,0.96877 1.998642,2.00632 3.05356,2.975015 0.910086,0.979871 1.933552,1.889583 2.843237,2.869592 1.055449,0.968591 1.99887,2.006306 3.054077,2.975012 0.909915,0.979873 1.933493,1.88958 2.843238,2.869591 1.055528,0.968481 1.998633,2.00638 3.054077,2.975012 0.910171,0.979683 1.933087,1.889741 2.843238,2.869594 1.055589,0.968081 1.998045,2.006394 3.053558,2.974493 0.804942,0.940094 2.453288,1.358723 3.626655,2.070677 2.693384,-2.099037 5.387104,-4.197641 8.079607,-6.297808 4.2759,4.24017 8.553556,8.476911 12.829709,12.716536 2.664796,-1.070697 5.322475,-2.159029 7.983493,-3.239079 0.0063,-8.562441 0.01233,-17.124878 0.01809,-25.687319 -0.781169,-0.679889 -1.430317,-1.449136 -2.211237,-2.12907 -0.622773,-0.711798 -1.378143,-1.333614 -2.000911,-2.045354 -0.780566,-0.680243 -1.430306,-1.449091 -2.211234,-2.129067 -0.623068,-0.711729 -1.377897,-1.334074 -2.000912,-2.045871 -0.781515,-0.679547 -1.430358,-1.449017 -2.211234,-2.129069 -0.623221,-0.711364 -1.378225,-1.33348 -2.000911,-2.045353 -0.780873,-0.680029 -1.430645,-1.449228 -2.21175,-2.129069 -0.622729,-0.711804 -1.377212,-1.333831 -2.000396,-2.045353 -0.781351,-0.679794 -1.430565,-1.449586 -2.211752,-2.129586 -0.62325,-0.711474 -1.377884,-1.333824 -2.000912,-2.045353 -2.584939,-1.175497 -5.44196,-2.190822 -8.120433,-3.29954 z"
       id="path5221"
       inkscape:connector-curvature="0"
       clip-path="url(#clipPath6129)" />
    <path
       inkscape:connector-curvature="0"
       id="path872"
       d="m 28.11797,36.140045 -6.378488,-6.37849 -2.847166,2.21885 c -1.56594,1.220368 -3.396111,2.646642 -4.067054,3.169497 l -1.219894,0.950647 -1.602615,-0.800643 -1.602609,-0.800643 V 26.460531 18.4218 l 1.594754,-0.797124 1.594749,-0.797124 0.139419,0.103111 c 0.07667,0.05671 1.895185,1.48793 4.041127,3.180487 2.145937,1.692556 3.914025,3.073666 3.929076,3.069132 0.01504,-0.0046 2.901634,-2.882478 6.414631,-6.395432 l 6.387259,-6.387189 4.007681,1.597687 4.007683,1.597687 -0.0092,12.843571 -0.0092,12.843574 -3.982564,1.619649 c -2.190409,0.890808 -3.990792,1.619437 -4.000845,1.619177 -0.01005,-2.76e-4 -2.888605,-2.870793 -6.396775,-6.378961 z m 6.396787,-9.67965 c 0,-3.587048 -0.01233,-6.520914 -0.02742,-6.5197 -0.04442,0.0036 -8.38738,6.479667 -8.39914,6.5197 -0.0103,0.03509 8.342965,6.521105 8.39914,6.521644 0.01504,1.37e-4 0.02742,-2.934596 0.02742,-6.521644 z m -18.467844,2.465627 2.391109,-2.465627 -2.402059,-2.402327 c -1.321136,-1.32128 -2.414438,-2.402327 -2.429565,-2.402327 -0.01517,0 -0.02749,2.196348 -0.02749,4.880774 0,3.400223 0.01169,4.876883 0.03849,4.867953 0.02117,-0.0071 1.114458,-1.122352 2.429565,-2.478446 z"
       style="fill:#ffffff;stroke-width:0.03653729"
       clip-path="url(#clipPath6125)" />
    <path
       inkscape:connector-curvature="0"
       id="path858"
       d=""
       style="fill:#1c2422;fill-opacity:0;stroke:#4bbbdb;stroke-width:2.02030516;stroke-opacity:0"
       transform="scale(0.26458333)"
       clip-path="url(#clipPath6121)" />
  </g>
</svg>
