<?xml version="1.0" encoding="UTF-8" standalone="no"?>
<!-- Created with Inkscape (http://www.inkscape.org/) -->

<svg
   xmlns:dc="http://purl.org/dc/elements/1.1/"
   xmlns:cc="http://creativecommons.org/ns#"
   xmlns:rdf="http://www.w3.org/1999/02/22-rdf-syntax-ns#"
   xmlns:svg="http://www.w3.org/2000/svg"
   xmlns="http://www.w3.org/2000/svg"
   xmlns:xlink="http://www.w3.org/1999/xlink"
   xmlns:sodipodi="http://sodipodi.sourceforge.net/DTD/sodipodi-0.dtd"
   xmlns:inkscape="http://www.inkscape.org/namespaces/inkscape"
   width="48"
   height="48"
   viewBox="0 0 48 48"
   id="svg2"
   version="1.1"
   inkscape:version="0.91 r13725"
   sodipodi:docname="weather.svg">
  <defs
     id="defs4">
    <linearGradient
       inkscape:collect="always"
       id="linearGradient4215">
      <stop
         style="stop-color:#ffffff;stop-opacity:1;"
         offset="0"
         id="stop4217" />
      <stop
         style="stop-color:#ececec;stop-opacity:1"
         offset="1"
         id="stop4219" />
    </linearGradient>
    <linearGradient
       inkscape:collect="always"
       id="linearGradient4178">
      <stop
         style="stop-color:#ffc107;stop-opacity:1"
         offset="0"
         id="stop4180" />
      <stop
         style="stop-color:#ff6f00;stop-opacity:1"
         offset="1"
         id="stop4182" />
    </linearGradient>
    <linearGradient
       inkscape:collect="always"
       xlink:href="#linearGradient4178"
       id="linearGradient4194"
       x1="22.997198"
       y1="998.5979"
       x2="28.000919"
       y2="1053.8246"
       gradientUnits="userSpaceOnUse" />
    <linearGradient
       inkscape:collect="always"
       xlink:href="#linearGradient4215"
       id="linearGradient4221"
       x1="22.728432"
       y1="1048.3215"
       x2="22.097088"
       y2="1021.0475"
       gradientUnits="userSpaceOnUse" />
  </defs>
  <sodipodi:namedview
     id="base"
     pagecolor="#5a5a5a"
     bordercolor="#ffffff"
     borderopacity="1"
     inkscape:pageopacity="0"
     inkscape:pageshadow="2"
     inkscape:zoom="7.9195959"
     inkscape:cx="15.483204"
     inkscape:cy="20.729198"
     inkscape:document-units="px"
     inkscape:current-layer="layer1"
     showgrid="false"
     units="px"
     inkscape:window-width="1366"
     inkscape:window-height="712"
     inkscape:window-x="0"
     inkscape:window-y="28"
     inkscape:window-maximized="1" />
  <metadata
     id="metadata7">
    <rdf:RDF>
      <cc:Work
         rdf:about="">
        <dc:format>image/svg+xml</dc:format>
        <dc:type
           rdf:resource="http://purl.org/dc/dcmitype/StillImage" />
        <dc:title></dc:title>
      </cc:Work>
    </rdf:RDF>
  </metadata>
  <g
     inkscape:label="Layer 1"
     inkscape:groupmode="layer"
     id="layer1"
     transform="translate(0,-1004.3622)">
    <ellipse
       ry="8.6438217"
       rx="8.7146015"
       cy="1028.8763"
       cx="14.796223"
       id="ellipse4151"
       style="opacity:1;fill:#ffffff;fill-opacity:1;stroke:none;stroke-width:2;stroke-linejoin:miter;stroke-miterlimit:4;stroke-dasharray:none;stroke-opacity:0.07843137" />
    <ellipse
       style="opacity:1;fill:#000000;fill-opacity:0.07843137;stroke:none;stroke-width:2;stroke-linejoin:miter;stroke-miterlimit:4;stroke-dasharray:none;stroke-opacity:0.07843137"
       id="ellipse4164"
       cx="14.796223"
       cy="1028.8763"
       rx="8.7146015"
       ry="8.6438217" />
    <path
       transform="matrix(0.64394822,0.04516447,-0.04516459,0.64394654,60.335503,364.01363)"
       d="m 46.214479,1044.9123 c -0.07162,0.086 -11.010034,1.0922 -11.109431,1.1431 -0.102453,0.053 -7.630705,8.5057 -7.745361,8.5159 -0.111236,0.01 -8.557574,-7.0129 -8.663864,-7.0472 -0.109557,-0.035 -11.4101561,0.6187 -11.4984865,0.5449 -0.085696,-0.072 -1.0922031,-11.01 -1.1431228,-11.1094 -0.052485,-0.1025 -8.5056927,-7.6307 -8.5159553,-7.7454 -0.00996,-0.1112 7.0129653,-8.5576 7.047244,-8.6639 0.035332,-0.1095 -0.6187095,-11.4101 -0.5448925,-11.4985 0.071616,-0.086 11.0100341,-1.0922 11.1094311,-1.1431 0.102452,-0.053 7.630705,-8.50567 7.745361,-8.51593 0.111236,-0.01 8.557573,7.01293 8.663863,7.04723 0.109558,0.035 11.410157,-0.6187 11.498487,-0.5449 0.0857,0.072 1.092203,11.0101 1.143123,11.1095 0.05248,0.1024 8.505693,7.6307 8.515955,7.7453 0.01,0.1112 -7.012965,8.5576 -7.047244,8.6639 -0.03533,0.1095 0.61871,11.4101 0.544893,11.4985 z"
       inkscape:randomized="0"
       inkscape:rounded="0.01"
       inkscape:flatsided="false"
       sodipodi:arg2="1.0888299"
       sodipodi:arg1="0.70466786"
       sodipodi:r2="21.525393"
       sodipodi:r1="27.679436"
       sodipodi:cy="1026.9821"
       sodipodi:cx="25.127544"
       sodipodi:sides="8"
       id="path4140"
       style="opacity:1;fill:url(#linearGradient4194);fill-opacity:1;stroke:none;stroke-width:2;stroke-linejoin:miter;stroke-miterlimit:4;stroke-dasharray:none;stroke-opacity:0.07843137"
       sodipodi:type="star" />
    <ellipse
       style="opacity:1;fill:#f39c12;fill-opacity:0;stroke:none;stroke-width:2;stroke-linejoin:miter;stroke-miterlimit:4;stroke-dasharray:none;stroke-opacity:0.07843137"
       id="path4138"
       cx="30.086119"
       cy="1026.423"
       rx="13.777822"
       ry="13.777785" />
    <ellipse
       style="opacity:1;fill:#ff6f00;fill-opacity:0.44313725;stroke:none;stroke-width:2;stroke-linejoin:miter;stroke-miterlimit:4;stroke-dasharray:none;stroke-opacity:0.07843137"
       id="path4176"
       cx="30.172323"
       cy="1026.7784"
       rx="13.707303"
       ry="13.707267" />
    <path
       style="opacity:1;fill:url(#linearGradient4221);fill-opacity:1;stroke:none;stroke-width:2;stroke-linejoin:miter;stroke-miterlimit:4;stroke-dasharray:none;stroke-opacity:0.07843137"
       d="m 27.154302,1020.9904 a 9.7466319,9.8954087 0 0 0 -9.540494,7.8879 11.829882,9.0025902 0 0 0 -5.671357,-1.1003 11.829882,9.0025902 0 0 0 -11.8306732,9.0019 11.829882,9.0025902 0 0 0 0.05524,0.7986 c -0.035579,0.3975 -0.0107,0.8497 -0.05524,1.1763 0.3533429,3.2486 -1.209187,9.5317 2.0485016,9.5566 14.9246286,0.1143 39.7133126,0 39.7133126,0 1.597124,-0.5309 1.967301,-1.5965 2.451297,-2.4882 0.705613,-4.1673 0.538045,-9.7578 -1.659516,-12.8571 -0.890577,-1.2185 -3.029022,-1.7885 -3.029022,-1.7885 l -2.743611,-0.1064 a 9.7466319,9.8954087 0 0 0 0.0092,-0.1864 9.7466319,9.8954087 0 0 0 -9.747646,-9.8949 z"
       id="path4147"
       inkscape:connector-curvature="0" />
    <path
       style="opacity:1;fill:#000000;fill-opacity:0.07843137;stroke:none;stroke-width:2;stroke-linejoin:miter;stroke-miterlimit:4;stroke-dasharray:none;stroke-opacity:0.07843137"
       d="M 11.867613,1027.7402 A 11.867052,9.2333173 0 0 0 0,1036.9722 a 11.867052,9.2333173 0 0 0 0.4226761,2.4411 11.550127,9.6695679 0 0 1 -0.069721,-0.9704 11.550127,9.6695679 0 0 1 11.5495179,-9.6683 11.550127,9.6695679 0 0 1 11.549516,9.6683 11.550127,9.6695679 0 0 1 -0.03704,0.6142 11.867052,9.2333173 0 0 0 0.318096,-2.0849 11.867052,9.2333173 0 0 0 -11.865435,-9.232 z"
       id="path4166"
       inkscape:connector-curvature="0" />
  </g>
</svg>
