<svg height="48" width="48" xmlns="http://www.w3.org/2000/svg" xmlns:xlink="http://www.w3.org/1999/xlink"><linearGradient id="a" gradientUnits="userSpaceOnUse" x1="399.57144" x2="399.57144" y1="545.79797" y2="517.79797"><stop offset="0" stop-color="#3889e9"/><stop offset="1" stop-color="#5ea5fb"/></linearGradient><linearGradient id="b" gradientUnits="userSpaceOnUse" x1="-321.182097" x2="-325.132244" y1="656.027547" y2="242.447208"><stop offset="0" stop-color="#197dec"/><stop offset="1" stop-color="#3fcffb"/></linearGradient><linearGradient id="c" gradientUnits="userSpaceOnUse" x1="-320.962291" x2="-324.916385" y1="656.015483" y2="242.021955"><stop offset="0" stop-color="#fff"/><stop offset="1" stop-color="#ececec"/></linearGradient><circle cx="400.57138" cy="531.79791" fill="url(#a)" r="0" transform="matrix(1.63746654 0 0 1.63746654 -644.580187 -848.719334)"/><g transform="matrix(.10497695 0 0 .10497695 57.813568 -23.136613)"><circle cx="-322.32336" cy="449.23737" fill="url(#b)" r="209.75679"/><path d="m35.357422 12.652344-11.542969 11.445312.0059.0059-11.541015 11.443359 11.414062 11.414063a22.977005 22.977005 0 0 0 .3066.015584 22.977005 22.977005 0 0 0 22.962891-22.71875z" fill-opacity=".117647" transform="matrix(9.1289875 0 0 9.1289875 -541.41905 230.14167)"/><path d="m-218.83993 346.24828-125.72528 83.90645 20.3492 20.5622z" fill="#f44a4a"/><path d="m-303.66196 470.73698-20.33975-20.56462 105.37608-104.46865z" fill="#f32d2c"/><path d="m-429.02388 554.55776 105.37585-104.47193-.007-.007c-8.34093-8.43071-16.68533-16.86491-20.34273-20.56167l-85.02617 125.04059z" fill="#f6f6f6"/><path d="m-323.81612 449.95722-105.37584 104.47189 125.71191-83.91401c-8.34096-8.43069-16.68538-16.8649-20.34277-20.56165l.007.004z" fill="#e0e0e0"/><circle cx="-322.10468" cy="449.01868" fill="none" r="209.96635" stroke="url(#c)" stroke-linecap="round" stroke-linejoin="round" stroke-width="18.258703"/></g></svg>