<svg height="48" width="48" xmlns="http://www.w3.org/2000/svg" xmlns:xlink="http://www.w3.org/1999/xlink"><linearGradient id="a" gradientUnits="userSpaceOnUse" x1="72.093157" x2="71.561756" y1="42.649616" y2="7.276058"><stop offset="0" stop-color="#6a82d4"/><stop offset="1" stop-color="#90b0e0"/></linearGradient><linearGradient id="b" gradientUnits="userSpaceOnUse" x1="11.660663" x2="10.415977" y1="56.928329" y2="32.880904"><stop offset="0" stop-color="#cdd0d1"/><stop offset="1" stop-color="#f6f6f7"/></linearGradient><linearGradient id="c" gradientUnits="userSpaceOnUse" x1="14.428456" x2="5.505778" y1="47.467573" y2="39.642166"><stop offset="0" stop-color="#16a085"/><stop offset="1" stop-color="#2dcb72"/></linearGradient><filter id="d" color-interpolation-filters="sRGB"><feColorMatrix in="SourceGraphic" result="fbSourceGraphic" type="hueRotate" values="180"/><feColorMatrix in="SourceGraphic" result="result1" values="1 0 0 0 0 0 1 0 0 0 0 0 1 0 0 -0.2125 -0.7154 -0.0721 1 0"/><feColorMatrix type="hueRotate" values="0"/><feColorMatrix result="result3" values="1 0 0 0 0 0 1 0 0 0 0 0 1 0 0 0 0 0 1 0"/><feComposite in2="result3" operator="atop" result="result6"/><feComposite in="result6" in2="result6" k1="0.5" k2="0.5" k3="0.5" operator="arithmetic" result="result4"/><feBlend in="result4" in2="fbSourceGraphic" mode="normal" result="result2"/><feComposite in2="result2" k2="1" operator="arithmetic" result="result5"/><feComposite in2="SourceGraphic" operator="in" result="result5"/></filter><filter id="e" color-interpolation-filters="sRGB"><feColorMatrix values="0.21 0.72 0.072 0 0 0.21 0.72 0.072 0 0 0.21 0.72 0.072 0 0 0 0 0 1 0"/></filter><g transform="matrix(.71659923 -.00987624 .00987624 .71659923 29.853146 1.525577)"><g filter="url(#d)" transform="translate(-79.137894 2.18613)"><rect fill="url(#a)" height="36.295765" ry="1.5" width="48.232185" x="47.935978" y="7.164441"/></g><rect fill="url(#a)" height="36.295765" ry="1.5" transform="matrix(.98818625 -.15325776 .15325776 .98818625 -87.856127 21.386235)" width="48.232185" x="47.935978" y="7.164441"/><g filter="url(#e)" transform="matrix(.75805453 0 0 .75805453 2.008248 11.856072)"><circle cx="11.184063" cy="45.12323" fill="url(#b)" r="12.348694"/><path d="m14.428456 47.271288-8.9226783.196284 4.2913527-7.825408z" fill="url(#c)" transform="matrix(-.01774298 1.1631677 -1.1631677 -.01774298 62.760227 34.349575)"/></g><path d="m-17.665531 27.683503a1.7533028 1.8719073.78960618 0 0 -1.453977 2.147162l.554568 3.695582a1.7533028 1.8719073.78960618 0 1 -1.453978 2.147161l-.865631.149683.27728 1.847792.865631-.149683a1.7533028 1.8719073.78960618 0 1 2.008545 1.548422l.554568 3.695583a1.7533028 1.8719073.78960618 0 0 2.008545 1.548421l1.731262-.299366-.277281-1.847793-1.73126.299374-.693209-4.619479a1.7533028 1.8719073.78960618 0 0 -2.008544-1.548421 1.7533028 1.8719073.78960618 0 0 1.453978-2.147161l-.693209-4.619479 1.731261-.299373-.27728-1.847792m5.193785-.89811a1.7533028 1.8719073.78960618 0 1 2.0085444 1.548422l.554567 3.695582a1.7533028 1.8719073.78960618 0 0 2.0085456 1.548422l.8656313-.149683.2772805 1.847792-.8656306.149684a1.7533028 1.8719073.78960618 0 0 -1.4539778 2.147161l.554568 3.695583a1.7533028 1.8719073.78960618 0 1 -1.453978 2.14716l-1.7312619.299367-.2772805-1.847792 1.7312604-.299373-.693208-4.619479a1.7533028 1.8719073.78960618 0 1 1.453977-2.147161 1.7533028 1.8719073.78960618 0 1 -2.0085449-1.548422l-.6932075-4.61948-1.731262.299367-.277281-1.847792 1.731262-.299373z" fill="#f9f9f9"/></g></svg>