<svg height="48" width="48" xmlns="http://www.w3.org/2000/svg" xmlns:xlink="http://www.w3.org/1999/xlink"><linearGradient id="a" gradientUnits="userSpaceOnUse" x1="11.660663" x2="10.415977" y1="56.928329" y2="32.880904"><stop offset="0" stop-color="#cdd0d1"/><stop offset="1" stop-color="#f6f6f7"/></linearGradient><linearGradient id="b" gradientUnits="userSpaceOnUse" x1="14.428456" x2="5.505778" y1="47.467573" y2="39.642166"><stop offset="0" stop-color="#16a085"/><stop offset="1" stop-color="#2dcb72"/></linearGradient><filter id="c" color-interpolation-filters="sRGB"><feColorMatrix values="0.21 0.72 0.072 0 0 0.21 0.72 0.072 0 0 0.21 0.72 0.072 0 0 0 0 0 1 0"/></filter><linearGradient id="d" gradientUnits="userSpaceOnUse" x1="2.585951" x2="18.434279" y1="43.868756" y2="14.411841"><stop offset="0" stop-color="#1d8bd7"/><stop offset="1" stop-color="#00cdd7"/></linearGradient><g transform="matrix(.89574006 0 0 .89574006 1.801146 2.651363)"><rect fill="#9fe37b" height="29.050928" ry="1.200584" transform="matrix(.99985212 -.01719698 .01719698 .99985212 0 0)" width="38.60437" x="4.654494" y="5.520015"/><rect fill="url(#d)" height="29.050737" ry="1.200584" transform="matrix(.9859804 -.16686118 .16686118 .9859804 0 0)" width="38.604519" x="-2.355443" y="14.151027"/><circle cx="11.184063" cy="45.12323" fill="url(#a)" filter="url(#c)" r="12.348694" transform="matrix(.60668101 -.00836134 .00836134 .60668101 33.06698 6.475439)"/><path d="m14.428456 47.271288-8.9226783.196284 4.2913527-7.825408z" fill="url(#b)" filter="url(#c)" transform="matrix(-.00103869 .70582011 -.70582011 -.00103869 71.429627 26.789915)"/><path d="m15.588912 32.114246-.144389-.620066-3.624992.844198-3.6249879.844197.090241.52012c.04964.286065.1267933.57412.1715316.640101.067489.09971.6894894-.02609 3.6791213-.744248l3.597873-.864237-.144388-.620068zm5.740429-7.542365c.899841-.679674 1.233305-1.589411.979192-2.671379-.329597-1.403587-1.042885-1.803145-3.477207-1.947984-1.036367-.06167-1.45002-.222294-1.537272-.596963-.100789-.432881.162481-.699821.847619-.859377.490508-.114229.727598-.105958 1.380146.04818.433345.102353.816854.157315.852244.122138.104198-.103576.56732-1.35472.541887-1.463934-.04258-.182882-.921335-.480728-1.618078-.548437-.964156-.0937-2.230512.20099-2.831479.658902-.468575.357031-.879702.923591-.996231 1.372874-.253016.975528.112775 2.106107.846343 2.615845.541131.376019.953911.478229 2.244218.555698 1.208209.07254 1.620077.1626 1.82814.399728.205133.23379.126099.701397-.155163.918038-.520909.401224-1.703876.449456-2.608657.106355-.260892-.09893-.531332-.16661-.600974-.150391-.154239.03592-.771273 1.253721-.728437 1.437665.07146.307754 1.422008.701743 2.481716.724175.768418.01627 2.05829-.348217 2.551993-.721123zm-10.975543 2.586078c.04403-.08801.127099-1.109031.184585-2.268936.100426-2.026208.125979-2.271842.229217-2.203248.04411.02931 2.005063 3.597163 2.025651 3.685571.0053.02285.09284.0933.194494.156546.232777.144839 1.447559-.112746 1.551171-.328915.122781-.256165.4809-8.460972.372258-8.528575-.0574-.03571-.505319.04154-.995366.171694l-.891.236636-.05182 1.973147c-.02851 1.085231-.05394 2.104642-.05654 2.265355-.0027.163011-.04862.262653-.104011.22536-.05459-.03677-.545775-.867985-1.091478-1.847148-.545704-.979166-1.048495-1.846385-1.117311-1.927156-.100674-.118162-.252657-.117156-.7778491.0052-.4080559.09504-.6778228.20498-.7196869.293313-.036826.07772-.1058373.890528-.1533603 1.806247-.1364208 2.628778-.1423741 2.692244-.2461567 2.623663-.0541216-.03574-.4828268-.812704-.9526848-1.726563-.4698581-.913859-.930869-1.790807-1.0244719-1.948776l-.1701818-.287214-.9465481.220434c-.7831741.182388-.9407195.245451-.9127896.365386.059968.257485 3.9960904 7.278829 4.1429742 7.39032.1968475.149419 1.400271-.131211 1.5109-.352363z" fill="#fff"/></g></svg>