<?xml version="1.0" encoding="UTF-8" standalone="no"?>
<!-- Created with Inkscape (http://www.inkscape.org/) -->

<svg
   xmlns:dc="http://purl.org/dc/elements/1.1/"
   xmlns:cc="http://creativecommons.org/ns#"
   xmlns:rdf="http://www.w3.org/1999/02/22-rdf-syntax-ns#"
   xmlns:svg="http://www.w3.org/2000/svg"
   xmlns="http://www.w3.org/2000/svg"
   xmlns:xlink="http://www.w3.org/1999/xlink"
   xmlns:sodipodi="http://sodipodi.sourceforge.net/DTD/sodipodi-0.dtd"
   xmlns:inkscape="http://www.inkscape.org/namespaces/inkscape"
   width="48px"
   height="48px"
   id="svg2985"
   version="1.1"
   inkscape:version="0.91 r13725"
   sodipodi:docname="webstorm.svg"
   inkscape:export-filename="/home/spooky/Downloads/icon-requests/intellij/webstorm.svg.png"
   inkscape:export-xdpi="90"
   inkscape:export-ydpi="90">
  <defs
     id="defs2987">
    <linearGradient
       inkscape:collect="always"
       id="linearGradient4190">
      <stop
         style="stop-color:#1d8bd7;stop-opacity:1"
         offset="0"
         id="stop4192" />
      <stop
         style="stop-color:#00cdd7;stop-opacity:1"
         offset="1"
         id="stop4194" />
    </linearGradient>
    <linearGradient
       id="linearGradient5461"
       inkscape:collect="always">
      <stop
         id="stop5463"
         offset="0"
         style="stop-color:#cdd0d1;stop-opacity:1" />
      <stop
         id="stop5465"
         offset="1"
         style="stop-color:#f6f6f7;stop-opacity:1" />
    </linearGradient>
    <linearGradient
       inkscape:collect="always"
       id="linearGradient5358">
      <stop
         style="stop-color:#16a085;stop-opacity:1"
         offset="0"
         id="stop5360" />
      <stop
         style="stop-color:#2dcb72;stop-opacity:1"
         offset="1"
         id="stop5362" />
    </linearGradient>
    <linearGradient
       inkscape:collect="always"
       id="linearGradient4303">
      <stop
         style="stop-color:#989a9b;stop-opacity:1"
         offset="0"
         id="stop4305" />
      <stop
         style="stop-color:#f6f6f7;stop-opacity:1"
         offset="1"
         id="stop4307" />
    </linearGradient>
    <clipPath
       id="clipPath4458-7">
      <path
         style="fill:url(#linearGradient3441);fill-opacity:1"
         inkscape:connector-curvature="0"
         id="use4460-2"
         d="m 69.626,12.145 -0.052,0 c -22.727,-0.292 -46.472,4.077 -46.709,4.122 -2.424,0.451 -4.946,2.974 -5.397,5.397 -0.044,0.237 -4.414,23.983 -4.122,46.71 -0.292,22.777 4.078,46.523 4.122,46.761 0.451,2.423 2.974,4.945 5.398,5.398 0.237,0.044 23.982,4.413 46.709,4.121 22.779,0.292 46.524,-4.077 46.761,-4.121 2.423,-0.452 4.946,-2.976 5.398,-5.399 0.044,-0.236 4.413,-23.981 4.121,-46.709 0.292,-22.777 -4.077,-46.523 -4.121,-46.761 -0.453,-2.423 -2.976,-4.946 -5.398,-5.397 -0.238,-0.045 -23.984,-4.414 -46.71,-4.122 z" />
    </clipPath>
    <linearGradient
       inkscape:collect="always"
       xlink:href="#linearGradient5461"
       id="linearGradient5459"
       x1="31.190088"
       y1="56.636845"
       x2="29.945402"
       y2="32.58942"
       gradientUnits="userSpaceOnUse"
       gradientTransform="translate(-19.529425,0.29148396)" />
    <linearGradient
       inkscape:collect="always"
       xlink:href="#linearGradient5358"
       id="linearGradient5475"
       x1="37.455688"
       y1="27.792406"
       x2="28.53301"
       y2="19.966999"
       gradientUnits="userSpaceOnUse"
       gradientTransform="translate(-23.027232,19.675167)" />
    <linearGradient
       inkscape:collect="always"
       xlink:href="#linearGradient4303"
       id="linearGradient3441"
       gradientUnits="userSpaceOnUse"
       x1="2.3531249"
       y1="1044.3799"
       x2="13.377196"
       y2="1044.3799" />
    <filter
       inkscape:label="Blend Opposites"
       inkscape:menu="Color"
       inkscape:menu-tooltip="Blend an image with its hue opposite"
       style="color-interpolation-filters:sRGB;"
       id="filter3653">
      <feColorMatrix
         type="hueRotate"
         values="180"
         result="fbSourceGraphic"
         in="SourceGraphic"
         id="feColorMatrix3655" />
      <feColorMatrix
         values="1 0 0 0 0 0 1 0 0 0 0 0 1 0 0 -0.2125 -0.7154 -0.0721 1 0 "
         in="SourceGraphic"
         result="result1"
         id="feColorMatrix3657" />
      <feColorMatrix
         type="hueRotate"
         values="0"
         id="feColorMatrix3659" />
      <feColorMatrix
         values="1 0 0 0 0 0 1 0 0 0 0 0 1 0 0 0 0 0 1 0 "
         result="result3"
         id="feColorMatrix3661" />
      <feComposite
         in2="result3"
         result="result6"
         operator="atop"
         id="feComposite3663" />
      <feComposite
         in2="result6"
         operator="arithmetic"
         k2="0.5"
         k1="0.5"
         k3="0.5"
         in="result6"
         result="result4"
         id="feComposite3665" />
      <feBlend
         in2="fbSourceGraphic"
         mode="normal"
         result="result2"
         in="result4"
         id="feBlend3667" />
      <feComposite
         in2="result2"
         operator="arithmetic"
         k2="1"
         result="result5"
         id="feComposite3669" />
      <feComposite
         in2="SourceGraphic"
         operator="in"
         result="result5"
         id="feComposite3671" />
    </filter>
    <filter
       style="color-interpolation-filters:sRGB;"
       inkscape:label="Greyscale"
       id="filter3673">
      <feColorMatrix
         values="0.21 0.72 0.072 0 0 0.21 0.72 0.072 0 0 0.21 0.72 0.072 0 0 0 0 0 1 0 "
         id="feColorMatrix3675" />
    </filter>
    <linearGradient
       inkscape:collect="always"
       xlink:href="#linearGradient4190"
       id="linearGradient4211"
       gradientUnits="userSpaceOnUse"
       x1="54.109722"
       y1="44.293541"
       x2="73.9105"
       y2="7.4902997"
       gradientTransform="matrix(0.80038916,0,0,0.80038916,-40.722884,8.4166858)" />
  </defs>
  <sodipodi:namedview
     id="base"
     pagecolor="#5a5a5a"
     bordercolor="#e3e3e3"
     borderopacity="1"
     inkscape:pageopacity="0"
     inkscape:pageshadow="2"
     inkscape:zoom="9.7035431"
     inkscape:cx="9.3956165"
     inkscape:cy="21.376272"
     inkscape:current-layer="layer1"
     showgrid="false"
     inkscape:grid-bbox="true"
     inkscape:document-units="px"
     inkscape:snap-global="true"
     inkscape:window-width="1440"
     inkscape:window-height="832"
     inkscape:window-x="0"
     inkscape:window-y="32"
     inkscape:window-maximized="1"
     inkscape:snap-bbox="true"
     inkscape:bbox-nodes="true"
     showguides="true"
     inkscape:showpageshadow="false"
     showborder="true">
    <inkscape:grid
       type="xygrid"
       id="grid2993" />
  </sodipodi:namedview>
  <metadata
     id="metadata2990">
    <rdf:RDF>
      <cc:Work
         rdf:about="">
        <dc:format>image/svg+xml</dc:format>
        <dc:type
           rdf:resource="http://purl.org/dc/dcmitype/StillImage" />
        <dc:title></dc:title>
      </cc:Work>
    </rdf:RDF>
  </metadata>
  <g
     id="layer1"
     inkscape:label="Layer 1"
     inkscape:groupmode="layer">
    <rect
       style="opacity:1;fill:#9fe37b;fill-opacity:1;fill-rule:nonzero;stroke:none;stroke-width:2;stroke-miterlimit:4;stroke-dasharray:4, 2;stroke-dashoffset:0;stroke-opacity:1"
       id="rect4209"
       width="38.60437"
       height="29.050928"
       x="4.6544938"
       y="5.5200148"
       transform="matrix(0.99985212,-0.01719698,0.01719698,0.99985212,0,0)"
       ry="1.2005838" />
    <g
       id="g5405"
       transform="matrix(0.76469713,-0.14157334,0.14157334,0.76469713,-7.0191005,-8.1419628)">
      <g
         transform="matrix(1.0962056,0,0,1.0962056,0.51279347,-1.9879883)"
         id="g5366" />
    </g>
    <rect
       style="opacity:1;fill:url(#linearGradient4211);fill-opacity:1;stroke:none;stroke-width:1.5;stroke-linecap:round;stroke-linejoin:round;stroke-miterlimit:4;stroke-dasharray:none;stroke-opacity:1"
       id="rect4851-2"
       width="38.604519"
       height="29.050737"
       x="-2.3554432"
       y="14.151027"
       ry="1.2005838"
       transform="matrix(0.9859804,-0.16686118,0.16686118,0.9859804,0,0)" />
    <circle
       style="opacity:1;fill:url(#linearGradient5459);fill-opacity:1;stroke:none;stroke-width:0.30261195;stroke-linecap:round;stroke-linejoin:round;stroke-miterlimit:4;stroke-dasharray:none;stroke-opacity:1;filter:url(#filter3673)"
       id="path5451"
       cx="11.184063"
       cy="45.12323"
       r="12.348694"
       transform="matrix(0.60668101,-0.00836134,0.00836134,0.60668101,33.06698,6.4754388)" />
    <path
       sodipodi:type="star"
       style="opacity:1;fill:url(#linearGradient5475);fill-opacity:1;stroke:none;stroke-width:0.30000001;stroke-linecap:round;stroke-linejoin:round;stroke-miterlimit:4;stroke-dasharray:none;stroke-opacity:1;filter:url(#filter3673)"
       id="path5467"
       sodipodi:sides="3"
       sodipodi:cx="9.9104548"
       sodipodi:cy="44.793674"
       sodipodi:r1="5.1527572"
       sodipodi:r2="2.5763786"
       sodipodi:arg1="0.50160405"
       sodipodi:arg2="1.5488016"
       inkscape:flatsided="true"
       inkscape:rounded="0"
       inkscape:randomized="0"
       d="M 14.428456,47.271288 5.5057777,47.467572 9.7971304,39.642164 Z"
       inkscape:transform-center-x="-1.4810216"
       inkscape:transform-center-y="0.020206899"
       transform="matrix(-0.00103869,0.70582011,-0.70582011,-0.00103869,71.429627,26.789915)" />
    <path
       style="fill:#ffffff"
       d="m 15.588912,32.114246 -0.144389,-0.620066 -3.624992,0.844198 -3.6249879,0.844197 0.090241,0.52012 c 0.04964,0.286065 0.1267933,0.57412 0.1715316,0.640101 0.067489,0.09971 0.6894894,-0.02609 3.6791213,-0.744248 l 3.597873,-0.864237 -0.144388,-0.620068 z m 5.740429,-7.542365 c 0.899841,-0.679674 1.233305,-1.589411 0.979192,-2.671379 -0.329597,-1.403587 -1.042885,-1.803145 -3.477207,-1.947984 -1.036367,-0.06167 -1.45002,-0.222294 -1.537272,-0.596963 -0.100789,-0.432881 0.162481,-0.699821 0.847619,-0.859377 0.490508,-0.114229 0.727598,-0.105958 1.380146,0.04818 0.433345,0.102353 0.816854,0.157315 0.852244,0.122138 0.104198,-0.103576 0.56732,-1.35472 0.541887,-1.463934 -0.04258,-0.182882 -0.921335,-0.480728 -1.618078,-0.548437 -0.964156,-0.0937 -2.230512,0.20099 -2.831479,0.658902 -0.468575,0.357031 -0.879702,0.923591 -0.996231,1.372874 -0.253016,0.975528 0.112775,2.106107 0.846343,2.615845 0.541131,0.376019 0.953911,0.478229 2.244218,0.555698 1.208209,0.07254 1.620077,0.1626 1.82814,0.399728 0.205133,0.23379 0.126099,0.701397 -0.155163,0.918038 -0.520909,0.401224 -1.703876,0.449456 -2.608657,0.106355 -0.260892,-0.09893 -0.531332,-0.16661 -0.600974,-0.150391 -0.154239,0.03592 -0.771273,1.253721 -0.728437,1.437665 0.07146,0.307754 1.422008,0.701743 2.481716,0.724175 0.768418,0.01627 2.05829,-0.348217 2.551993,-0.721123 z m -10.975543,2.586078 c 0.04403,-0.08801 0.127099,-1.109031 0.184585,-2.268936 0.100426,-2.026208 0.125979,-2.271842 0.229217,-2.203248 0.04411,0.02931 2.005063,3.597163 2.025651,3.685571 0.0053,0.02285 0.09284,0.0933 0.194494,0.156546 0.232777,0.144839 1.447559,-0.112746 1.551171,-0.328915 0.122781,-0.256165 0.4809,-8.460972 0.372258,-8.528575 -0.0574,-0.03571 -0.505319,0.04154 -0.995366,0.171694 l -0.891,0.236636 -0.05182,1.973147 c -0.02851,1.085231 -0.05394,2.104642 -0.05654,2.265355 -0.0027,0.163011 -0.04862,0.262653 -0.104011,0.22536 -0.05459,-0.03677 -0.545775,-0.867985 -1.091478,-1.847148 C 11.175255,19.71628 10.672464,18.849061 10.603648,18.76829 10.502974,18.650128 10.350991,18.651134 9.8257989,18.77349 9.417743,18.86853 9.1479761,18.97847 9.106112,19.066803 9.069286,19.144523 9.0002747,19.957331 8.9527517,20.87305 8.8163309,23.501828 8.8103776,23.565294 8.706595,23.496713 8.6524734,23.460973 8.2237682,22.684009 7.7539102,21.77015 7.2840521,20.856291 6.8230412,19.979343 6.7294383,19.821374 L 6.5592565,19.53416 5.6127084,19.754594 c -0.7831741,0.182388 -0.9407195,0.245451 -0.9127896,0.365386 0.059968,0.257485 3.9960904,7.278829 4.1429742,7.39032 0.1968475,0.149419 1.400271,-0.131211 1.5109,-0.352363 z"
       id="path4735"
       inkscape:connector-curvature="0"
       sodipodi:nodetypes="ccccscscccssscssscssssssssccsscscccscscsccssscscsccscscc" />
  </g>
</svg>
