<svg height="48" width="48" xmlns="http://www.w3.org/2000/svg" xmlns:xlink="http://www.w3.org/1999/xlink"><linearGradient id="a" gradientUnits="userSpaceOnUse" x1="399.57144" x2="399.57144" y1="545.79797" y2="517.79797"><stop offset="0" stop-color="#3889e9"/><stop offset="1" stop-color="#5ea5fb"/></linearGradient><linearGradient id="b" gradientUnits="userSpaceOnUse" x1="400.55615" x2="400.55615" y1="546.92657" y2="516.4751"><stop offset="0" stop-color="#2e3e46"/><stop offset="1" stop-color="#435a64"/></linearGradient><linearGradient id="c" gradientTransform="matrix(0 -1 1 0 -.000002 47.999998)" gradientUnits="userSpaceOnUse" x1="487.74164" x2="493.5094" y1="985.34576" y2="11.610633"><stop offset="0" stop-color="#d3d3d3"/><stop offset="1" stop-color="#ddd"/></linearGradient><g transform="matrix(1.5511965 0 0 1.552208 -597.40541 -801.61944)"><circle cx="400.57138" cy="531.79791" fill="url(#a)" r="0"/><g transform="matrix(1.0508504 0 0 1.0508504 -20.353166 -26.940048)"><circle cx="400.57138" cy="531.79791" fill="url(#b)" r="13.999958" stroke="url(#b)" stroke-width="1.427415"/><circle cx="400.57138" cy="531.79791" fill="url(#a)" r="0" transform="matrix(1.55822993102 0 0 1.55822993102 -264.298285246431 -296.910724934234)"/></g></g><path d="m946.23 206.651c-.3-23-18-42-40.899-44.101-190.3-17.8-345.601-119.5-396.8-156.7-10.7-7.8-25.2-7.8-35.9 0-51.1 37.2-206.4 138.9-396.7 156.7-22.9 2.101-40.5 21.101-40.9 44.101-2.3 150.1 21.8 659.699 444.1 773.1 7.5 2 15.4 2 22.9 0 422.3-113.3 446.399-623.001 444.199-773.1z" fill="url(#c)" transform="matrix(.032611431486 0 0 .032611431939 7.999994780357 8.00000035153)"/></svg>