<svg height="48" width="48" xmlns="http://www.w3.org/2000/svg" xmlns:xlink="http://www.w3.org/1999/xlink">
  <linearGradient id="a" gradientUnits="userSpaceOnUse" x1="24.37" x2="24.37" y1="44.55" y2="3.16">
    <stop offset="0" stop-color="#28be41" />
    <stop offset="1" stop-color="#3ed657" />
  </linearGradient>
  <linearGradient id="b" x1=".18" x2="1" y2=".74">
    <stop offset="0" stop-opacity=".11" />
    <stop offset="1" stop-opacity=".06" />
  </linearGradient>
  <linearGradient id="c" x1=".49" x2=".5" y1=".97">
    <stop offset="0" stop-color="#ececec" />
    <stop offset="1" stop-color="#fff" />
  </linearGradient>
  <path d="m24.37 2.09c11.905385-.02217 21.56217 9.634615 21.54 21.54.02217 11.905385-9.634615 21.56217-21.54 21.54-4.004238.01015-7.931744-1.098141-11.34-3.2l-8.81 1.81 2.38-7.94c-2.4662529-3.593292-3.7811197-7.851786-3.77-12.21-.0221702-11.905385 9.634615-21.5621702 21.54-21.54z" fill="url(#a)" />
  <path d="m15.2 14.82-1.86 4.38 5.39 9.39 13.7 13.7c3.699136-1.168137 6.804852-3.718622 8.67-7.12l-6.42-6.4c-.09495-.07885-.199026-.145996-.31-.2-.16-.1-.36-.18-.6-.3-.42-.2-1.94-.95-2.88-1.37l-12.62-12.44z" fill="url(#b)" />
  <path d="m24.37 1.63c-16.7287705.0147247-27.3265733 17.949045-19.27 32.61l-3.47 12.13 12.94-3.04c14.625911 7.263679 31.790476-3.369715 31.8-19.7 0-12.14-9.86-22-22-22zm0 1.83c11.144164-.011067 20.181067 9.025836 20.17 20.17.02741 15.361899-16.45619 25.103213-29.9 17.67l-10.41 2.48 2.97-9.57c-8.3114435-13.43672 1.3704795-30.7762151 17.17-30.75z" fill="url(#c)" />
  <path d="m34.68 28.77c-.13-.22-.48-.35-1.01-.61-1.193695-.597066-2.400667-1.16721-3.62-1.71-.48-.18-.84-.26-1.2.26-.526337.710709-1.083537 1.398034-1.67 2.06-.3.35-.62.4-1.15.13-.52-.26-2.23-.81-4.25-2.6-1.158334-1.060391-2.152541-2.287141-2.95-3.64-.3-.53-.03-.81.23-1.07.24-.24.53-.62.8-.92.26-.3.35-.53.53-.88.17-.35.09-.66-.05-.92-.13-.26-1.19-2.85-1.63-3.9-.86-1.5-2.69-.98-3.62-.26-.56.44-1.85 1.8-1.85 4.38s1.9 5.08 2.16 5.43c.27.35 3.66 5.83 9.05 7.93 2.94 1.34 8.38 2.56 9.93-1.18.44-1.23.44-2.28.3-2.5z" fill="#f2f2f2" />
</svg>
