<svg height="48" width="48" xmlns="http://www.w3.org/2000/svg" xmlns:xlink="http://www.w3.org/1999/xlink"><linearGradient id="a" gradientUnits="userSpaceOnUse" x1="23.728808" x2="23.968108" y1="36.943171" y2="4.411279"><stop offset="0" stop-color="#566069"/><stop offset="1" stop-color="#6c7884"/></linearGradient><linearGradient id="b" gradientUnits="userSpaceOnUse" x1="31.827424" x2="31.979706" y1="42.879084" y2="22.176971"><stop offset="0" stop-color="#197cf1"/><stop offset="1" stop-color="#20bcfa"/></linearGradient><path d="m18.994264 22.922997h26.011469c.550823 0 .994265.443478.994265.994282v19.075696c0 .550805-.443442.99421-.994265.99421h-26.011469c-.550822 0-.994264-.443405-.994264-.99421v-19.075696c0-.550804.443442-.994282.994264-.994282zm-15.431846-17.9105884h40.875164c.86558 0 1.562416.6968942 1.562416 1.5624437v29.9760937c0 .86555-.696836 1.562329-1.562416 1.562329h-40.875164c-.865579 0-1.562416-.696779-1.562416-1.562329v-29.9760937c0-.8655495.696837-1.5624437 1.562416-1.5624437z" fill-opacity=".666667" stroke-width=".962517"/><g stroke-width="1.512527"><path d="m3.562418 4.0128146h40.875164c.86558 0 1.562416.6968942 1.562416 1.5624437v29.9760937c0 .86555-.696836 1.562329-1.562416 1.562329h-40.875164c-.865579 0-1.562416-.696779-1.562416-1.562329v-29.9760937c0-.8655495.696837-1.5624437 1.562416-1.5624437z" fill="url(#a)"/><circle cx="14.365748" cy="7.595095" fill="#fff" fill-opacity=".852041" r="1.781426"/><circle cx="9.989356" cy="7.632865" fill="#fff" fill-opacity=".852041" r="1.781426"/><circle cx="5.68743" cy="7.67498" fill="#fff" fill-opacity=".852041" r="1.781426"/></g><g stroke-width=".962517"><path d="m18.994264 21.923403h26.011469c.550823 0 .994265.443478.994265.994282v19.075696c0 .550805-.443442.99421-.994265.99421h-26.011469c-.550822 0-.994264-.443405-.994264-.99421v-19.075696c0-.550804.443442-.994282.994264-.994282z" fill="url(#b)"/><g fill="#fff" fill-opacity=".852041"><circle cx="25.824274" cy="24.187466" r="1.133635"/><circle cx="23.039301" cy="24.2115" r="1.133635"/><circle cx="20.301714" cy="24.2383" r="1.133635"/></g></g></svg>