<?xml version="1.0" encoding="UTF-8" standalone="no"?>
<svg
   xmlns:dc="http://purl.org/dc/elements/1.1/"
   xmlns:cc="http://creativecommons.org/ns#"
   xmlns:rdf="http://www.w3.org/1999/02/22-rdf-syntax-ns#"
   xmlns:svg="http://www.w3.org/2000/svg"
   xmlns="http://www.w3.org/2000/svg"
   xmlns:xlink="http://www.w3.org/1999/xlink"
   xmlns:sodipodi="http://sodipodi.sourceforge.net/DTD/sodipodi-0.dtd"
   xmlns:inkscape="http://www.inkscape.org/namespaces/inkscape"
   height="48"
   width="48"
   sodipodi:docname="wireshark.svg"
   inkscape:version="0.91 r13725"
   version="1.1"
   id="svg2"
   enable-background="new 0 0 64 64"
   viewBox="0 0 48 48">
  <sodipodi:namedview
     inkscape:current-layer="svg2"
     inkscape:cy="22.489317"
     inkscape:cx="16.435839"
     inkscape:zoom="11.313709"
     showgrid="false"
     id="namedview84"
     inkscape:window-height="480"
     inkscape:window-width="640"
     inkscape:pageshadow="2"
     inkscape:pageopacity="0"
     guidetolerance="10"
     gridtolerance="10"
     objecttolerance="10"
     borderopacity="1"
     bordercolor="#666666"
     pagecolor="#ffffff" />
  <metadata
     id="metadata88">
    <rdf:RDF>
      <cc:Work
         rdf:about="">
        <dc:format>image/svg+xml</dc:format>
        <dc:type
           rdf:resource="http://purl.org/dc/dcmitype/StillImage" />
        <dc:title></dc:title>
      </cc:Work>
    </rdf:RDF>
  </metadata>
  <defs
     id="defs86">
    <linearGradient
       id="linearGradient3549"
       inkscape:collect="always">
      <stop
         id="stop3551"
         offset="0"
         style="stop-color:#80b3ff;stop-opacity:1" />
      <stop
         id="stop3553"
         offset="1"
         style="stop-color:#298fc4;stop-opacity:1" />
    </linearGradient>
    <linearGradient
       id="linearGradient3539"
       inkscape:collect="always">
      <stop
         id="stop3541"
         offset="0"
         style="stop-color:#1a1a1a;stop-opacity:1" />
      <stop
         id="stop3543"
         offset="1"
         style="stop-color:#333333;stop-opacity:1" />
    </linearGradient>
    <linearGradient
       id="linearGradient3527"
       inkscape:collect="always">
      <stop
         id="stop3529"
         offset="0"
         style="stop-color:#f2f2f2;stop-opacity:1" />
      <stop
         id="stop3531"
         offset="1"
         style="stop-color:#f9f9f9;stop-opacity:1" />
    </linearGradient>
    <linearGradient
       id="linearGradient3515"
       inkscape:collect="always">
      <stop
         id="stop3517"
         offset="0"
         style="stop-color:#e8e8e8;stop-opacity:1;" />
      <stop
         id="stop3519"
         offset="1"
         style="stop-color:#f9f9f9;stop-opacity:1" />
    </linearGradient>
    <linearGradient
       inkscape:collect="always"
       id="linearGradient3509">
      <stop
         style="stop-color:#b2c1c0;stop-opacity:1;"
         offset="0"
         id="stop3511" />
      <stop
         style="stop-color:#cccccc;stop-opacity:1"
         offset="1"
         id="stop3513" />
    </linearGradient>
    <linearGradient
       id="linearGradient3498"
       inkscape:collect="always">
      <stop
         id="stop3500"
         offset="0"
         style="stop-color:#b2c1c0;stop-opacity:1;" />
      <stop
         id="stop3502"
         offset="1"
         style="stop-color:#cccccc;stop-opacity:1" />
    </linearGradient>
    <linearGradient
       id="linearGradient3448"
       inkscape:collect="always">
      <stop
         id="stop3450"
         offset="0"
         style="stop-color:#954852;stop-opacity:1" />
      <stop
         style="stop-color:#ed4c5c;stop-opacity:1"
         offset="0.77076179"
         id="stop3458" />
      <stop
         id="stop3452"
         offset="1"
         style="stop-color:#ff717f;stop-opacity:1" />
    </linearGradient>
    <linearGradient
       id="linearGradient3764"
       x1="1"
       x2="47"
       gradientUnits="userSpaceOnUse"
       gradientTransform="matrix(0,-1,1,0,-1.5e-6,47.999998)">
      <stop
         style="stop-color:#2788bb;stop-opacity:1"
         id="stop3319" />
      <stop
         offset="1"
         style="stop-color:#2b94cb;stop-opacity:1"
         id="stop3321" />
    </linearGradient>
    <clipPath
       id="clipPath3432"
       clipPathUnits="userSpaceOnUse">
      <circle
         style="opacity:1;fill:#298fc4;fill-opacity:1;fill-rule:nonzero;stroke:none;stroke-width:2;stroke-linecap:butt;stroke-linejoin:round;stroke-miterlimit:4;stroke-dasharray:none;stroke-dashoffset:0;stroke-opacity:1"
         id="circle3434"
         cx="24"
         cy="24"
         r="24" />
    </clipPath>
    <linearGradient
       gradientTransform="matrix(0.93862475,0,0,0.92806515,1.1013523,1.4585851)"
       gradientUnits="userSpaceOnUse"
       y2="-0.10576198"
       x2="24.302423"
       y1="49.697514"
       x1="25.195433"
       id="linearGradient3504"
       xlink:href="#linearGradient3498"
       inkscape:collect="always" />
    <linearGradient
       gradientTransform="matrix(0.93049769,0,0,0.93049769,1.3732795,1.3007002)"
       gradientUnits="userSpaceOnUse"
       y2="0.3215659"
       x2="36.804405"
       y1="34.873955"
       x1="37.319153"
       id="linearGradient3507"
       xlink:href="#linearGradient3509"
       inkscape:collect="always" />
    <linearGradient
       gradientTransform="matrix(0.93049769,0,0,0.93049769,1.3732795,1.3007002)"
       gradientUnits="userSpaceOnUse"
       y2="0.64328271"
       x2="18.273516"
       y1="49.029495"
       x1="18.659576"
       id="linearGradient3521"
       xlink:href="#linearGradient3515"
       inkscape:collect="always" />
    <linearGradient
       gradientTransform="matrix(0.97665662,0,0,0.95815354,0.47386304,-1.5676475)"
       gradientUnits="userSpaceOnUse"
       y2="-1.7517782"
       x2="27.914198"
       y1="-0.78563452"
       x1="31.446728"
       id="linearGradient3545"
       xlink:href="#linearGradient3539"
       inkscape:collect="always" />
    <linearGradient
       gradientTransform="matrix(0.97916667,0,0,0.97916667,0.5,0.5)"
       gradientUnits="userSpaceOnUse"
       y2="48.545971"
       x2="24.113745"
       y1="0.50047398"
       x1="24.204739"
       id="linearGradient3555"
       xlink:href="#linearGradient3549"
       inkscape:collect="always" />
    <linearGradient
       gradientTransform="matrix(0.96,0,0,0.96,0.96,0.96)"
       y2="-0.13649352"
       x2="23.385782"
       y1="48.90995"
       x1="24.295734"
       gradientUnits="userSpaceOnUse"
       id="linearGradient3562"
       xlink:href="#linearGradient3527"
       inkscape:collect="always" />
    <radialGradient
       r="10.026311"
       fy="37.257141"
       fx="10.460536"
       cy="37.257141"
       cx="10.460536"
       gradientTransform="matrix(-0.69818951,-0.61510761,0.44188532,-0.50157029,8.7966578,59.253104)"
       gradientUnits="userSpaceOnUse"
       id="radialGradient3640"
       xlink:href="#linearGradient3527"
       inkscape:collect="always" />
    <radialGradient
       r="10.026311"
       fy="37.257141"
       fx="10.460536"
       cy="37.257141"
       cx="10.460536"
       gradientTransform="matrix(-0.69818951,-0.61510761,0.44188532,-0.50157029,8.7966578,59.253104)"
       gradientUnits="userSpaceOnUse"
       id="radialGradient3642"
       xlink:href="#linearGradient3527"
       inkscape:collect="always" />
    <clipPath
       id="clipPath3850"
       clipPathUnits="userSpaceOnUse">
      <circle
         style="opacity:1;fill:url(#linearGradient3854);fill-opacity:1;fill-rule:nonzero;stroke:none;stroke-width:2;stroke-linecap:butt;stroke-linejoin:round;stroke-miterlimit:4;stroke-dasharray:none;stroke-dashoffset:0;stroke-opacity:1"
         id="circle3852"
         cx="24"
         cy="24"
         r="23.5" />
    </clipPath>
    <linearGradient
       y2="48.545971"
       x2="24.113745"
       y1="0.50047398"
       x1="24.204739"
       gradientTransform="matrix(0.97916667,0,0,0.97916667,0.5,0.5)"
       gradientUnits="userSpaceOnUse"
       id="linearGradient3854"
       xlink:href="#linearGradient3549"
       inkscape:collect="always" />
    <clipPath
       clipPathUnits="userSpaceOnUse"
       id="clipPath3998">
      <circle
         style="opacity:1;fill:url(#linearGradient4002);fill-opacity:1;fill-rule:nonzero;stroke:none;stroke-width:2;stroke-linecap:butt;stroke-linejoin:round;stroke-miterlimit:4;stroke-dasharray:none;stroke-dashoffset:0;stroke-opacity:1"
         id="circle4000"
         cx="24"
         cy="24"
         r="23.5" />
    </clipPath>
    <linearGradient
       inkscape:collect="always"
       xlink:href="#linearGradient3549"
       id="linearGradient4002"
       gradientUnits="userSpaceOnUse"
       gradientTransform="matrix(0.97916667,0,0,0.97916667,0.5,0.5)"
       x1="24.204739"
       y1="0.50047398"
       x2="24.113745"
       y2="48.545971" />
    <clipPath
       id="clipPath4374"
       clipPathUnits="userSpaceOnUse">
      <circle
         style="opacity:1;fill:url(#linearGradient4378);fill-opacity:1;fill-rule:nonzero;stroke:none;stroke-width:2;stroke-linecap:butt;stroke-linejoin:round;stroke-miterlimit:4;stroke-dasharray:none;stroke-dashoffset:0;stroke-opacity:1"
         id="circle4376"
         cx="24"
         cy="24"
         r="23.5" />
    </clipPath>
    <linearGradient
       y2="48.545971"
       x2="24.113745"
       y1="0.50047398"
       x1="24.204739"
       gradientTransform="matrix(0.97916667,0,0,0.97916667,0.5,0.5)"
       gradientUnits="userSpaceOnUse"
       id="linearGradient4378"
       xlink:href="#linearGradient3549"
       inkscape:collect="always" />
    <linearGradient
       gradientTransform="translate(-0.08717228,0)"
       gradientUnits="userSpaceOnUse"
       y2="32.726158"
       x2="6.4593978"
       y1="44.684555"
       x1="31.975582"
       id="linearGradient4380"
       xlink:href="#linearGradient3448"
       inkscape:collect="always" />
    <clipPath
       clipPathUnits="userSpaceOnUse"
       id="clipPath4609">
      <circle
         style="opacity:1;fill:url(#linearGradient4613);fill-opacity:1;fill-rule:nonzero;stroke:none;stroke-width:2;stroke-linecap:butt;stroke-linejoin:round;stroke-miterlimit:4;stroke-dasharray:none;stroke-dashoffset:0;stroke-opacity:1"
         id="circle4611"
         cx="24"
         cy="24"
         r="23.5" />
    </clipPath>
    <linearGradient
       inkscape:collect="always"
       xlink:href="#linearGradient3549"
       id="linearGradient4613"
       gradientUnits="userSpaceOnUse"
       gradientTransform="matrix(0.97916667,0,0,0.97916667,0.5,0.5)"
       x1="24.204739"
       y1="0.50047398"
       x2="24.113745"
       y2="48.545971" />
  </defs>
  <circle
     r="23.5"
     cy="24"
     cx="24"
     id="path3312"
     style="opacity:1;fill:url(#linearGradient3555);fill-opacity:1;fill-rule:nonzero;stroke:none;stroke-width:2;stroke-linecap:butt;stroke-linejoin:round;stroke-miterlimit:4;stroke-dasharray:none;stroke-dashoffset:0;stroke-opacity:1" />
  <path
     transform="translate(-0.08717228,0)"
     inkscape:connector-curvature="0"
     style="fill:#000000;fill-opacity:0.07843137"
     d="m 32.935547,19.199219 c -4.841999,-0.161864 -8.230469,1.404297 -8.230469,1.404297 L 30.671875,33.625 66.027344,68.980469 C 69.384331,64.427032 81.3125,59.621094 81.3125,59.621094 L 45.957031,24.265625 C 41.346224,20.495992 36.701546,19.325113 32.935547,19.199219 Z"
     id="path3914"
     clip-path="url(#clipPath3998)" />
  <path
     d="M 45.870388,24.26595 C 35.331401,15.649645 24.6172,20.604047 24.6172,20.604047 l 5.967921,13.02083 C 33.942108,29.07144 45.870388,24.26595 45.870388,24.26595 Z"
     id="path4"
     inkscape:connector-curvature="0"
     style="fill:url(#linearGradient3507);fill-opacity:1" />
  <path
     style="fill:#000000;fill-opacity:0.03921569"
     d="M 7.1757812 11.857422 C 6.3822348 11.874962 5.8084756 12.018124 5.4882812 12.273438 L 11.511719 18.296875 C 13.128062 20.533581 14.673402 23.165629 15.576172 25.839844 C 15.872448 26.71748 16.289501 27.387157 16.794922 27.892578 L 25.896484 36.994141 C 23.781981 39.797331 21.836504 43.146569 22.957031 47.234375 C 22.860701 47.216895 22.764339 47.192308 22.667969 47.173828 L 58.023438 82.529297 C 62.228674 83.892645 72.542533 86.564716 77.841797 81.900391 C 77.841797 81.900391 75.063527 68.625133 71.646484 63.939453 C 70.573158 62.467637 69.38109 61.093979 68.105469 59.818359 L 32.75 24.462891 C 24.192979 15.90587 11.921154 11.752517 7.1757812 11.857422 z "
     id="path4451"
     clip-path="url(#clipPath4609)" />
  <path
     sodipodi:nodetypes="ccc"
     style="fill:url(#linearGradient4380);fill-opacity:1"
     inkscape:connector-curvature="0"
     id="path10"
     d="m 26.640386,31.999308 c 0,0 -6.87598,16.466516 -22.6935287,1.293883 0,0 10.3771447,-8.662034 22.6935287,-1.293883 z" />
  <path
     transform="translate(-0.08717228,0)"
     inkscape:connector-curvature="0"
     clip-path="url(#clipPath4374)"
     id="path4210"
     d="m 5.6503906,12.244141 c -0.052132,-0.0021 -0.093784,0.0095 -0.1230468,0.03516 -2.070659,1.814482 -2.2027781,12.137065 0.2617187,14.601562 L 17.25,38.341797 C 13.960737,38.472023 9.6277211,37.255934 4.0253906,33.275391 4.2377031,35.445383 5.513359,37.60125 7.4707031,39.558594 L 42.826172,74.914062 c 3.645843,3.645843 9.657101,6.601889 15.574219,7.675782 -2.297143,-8.380227 8.28311,-13.671641 6.814453,-17.470703 -0.0693,-0.180704 -0.163154,-0.333916 -0.279297,-0.462891 L 29.580078,29.302734 C 28.577869,28.189788 25.920084,28.861346 23.15625,29.173828 L 8.0566406,14.074219 c -1.1382901,-1.13829 -2.0413226,-1.81559 -2.40625,-1.830078 z"
     style="fill:#000000;fill-opacity:0.07843137" />
  <g
     transform="translate(-0.08717228,0)"
     id="g4018">
    <path
       d="m 6.2906793,26.946818 0.3332673,3.392379 2.0952497,-2.535926 0.1247085,3.242667 2.1565272,-2.590474 0.125068,3.801295 2.41346,-3.489932 -0.09531,4.332847 2.756756,-3.571956 -0.04623,4.400934 2.548198,-3.721665 0.223255,3.937467 2.352183,-3.435385 -0.352967,4.115052 2.768941,-3.69459 c 0,0 -7.371553,-2.828166 -17.4031109,-4.182713"
       id="path16"
       inkscape:connector-curvature="0"
       style="fill:url(#radialGradient3640);fill-opacity:1" />
    <path
       style="fill:url(#radialGradient3642);fill-opacity:1"
       inkscape:connector-curvature="0"
       id="path3460"
       d="m 21.380828,39.879619 -0.271358,-3.200756 -2.006207,2.363191 -0.07673,-3.057063 -2.064634,2.413821 -0.07004,-3.583451 -2.31805,3.258129 0.144315,-4.08155 -2.642564,3.3311 0.09892,-4.146323 -2.447919,3.474791 -0.16084,-3.712999 -2.2596246,3.207501 0.3843558,-3.873084 -2.6555866,3.446502 c 0,0 6.9104794,2.757646 16.3459594,4.160191" />
  </g>
  <path
     style="fill:url(#linearGradient3504);fill-opacity:1"
     clip-path="url(#clipPath3850)"
     d="m 7.2636719,11.857422 c -0.7935465,0.01754 -1.3673056,0.160702 -1.6875,0.416016 0.856125,-0.357572 7.7053591,6.508796 10.0878901,13.566406 2.419562,7.167299 12.862395,0.448082 14.195313,3.923828 1.468657,3.799062 -9.111596,9.090476 -6.814453,17.470703 -0.09633,-0.01748 -0.192693,-0.04207 -0.289063,-0.06055 4.205236,1.363348 14.519096,4.035419 19.81836,-0.628906 0,0 -2.77827,-13.275258 -6.195313,-17.960938 C 28.105575,17.239038 12.71645,11.736878 7.2636719,11.857422 Z"
     id="path8"
     inkscape:connector-curvature="0"
     sodipodi:nodetypes="scsccccss"
     transform="translate(-0.08717228,0)" />
  <g
     transform="translate(-0.08717228,0)"
     id="g4068">
    <circle
       cx="29.94096"
       cy="-3.2177343"
       id="circle64"
       transform="matrix(0.62525253,0.78042249,-0.78042249,0.62525254,0,0)"
       style="fill:url(#linearGradient3545);fill-opacity:1"
       r="1.5818461" />
    <g
       id="g4064">
      <ellipse
         cx="29.36418"
         cy="-3.1211059"
         id="ellipse3535"
         transform="matrix(0.62525253,0.78042249,-0.78042249,0.62525254,0,0)"
         style="fill:#e6e6e6"
         rx="0.68338621"
         ry="0.68338615" />
      <circle
         r="0.36086211"
         style="fill:#e6e6e6"
         transform="matrix(0.62525253,0.78042249,-0.78042249,0.62525254,0,0)"
         id="ellipse3537"
         cy="-3.1987154"
         cx="30.84082" />
    </g>
  </g>
  <path
     style="fill:#1a1a1a"
     inkscape:connector-curvature="0"
     id="path82"
     d="m 11.276314,22.047739 c 0,0 1.398269,0.543893 1.472807,2.042592 0.04945,0.626714 -0.845697,0.641048 -1.43482,-0.175988 -0.478752,-0.803499 0.269118,-1.022093 -0.03798,-1.866604" />
  <path
     d="m 5.4400829,12.278412 c 0.6772563,-0.593469 7.7170071,6.395034 10.1365681,13.562334 2.419561,7.167299 12.863228,0.448134 14.196146,3.92388 1.468657,3.799062 -9.111471,9.089888 -6.814328,17.470115 C 13.864627,45.584307 4.5461063,39.486993 3.9383304,33.275069 20.591483,45.107394 26.066062,32.570513 26.066062,32.570513 c 0,0 -12.493453,-0.219332 -20.0495171,-5.428612 C 3.2308181,25.270926 3.2851712,14.166723 5.4400829,12.278412 Z"
     id="path80"
     inkscape:connector-curvature="0"
     style="fill:url(#linearGradient3521);fill-opacity:1"
     clip-path="none" />
  <path
     inkscape:connector-curvature="0"
     id="circle3557"
     d="M 24,0 C 10.756537,0 0,10.756537 0,24 0,37.243463 10.756537,48 24,48 37.243463,48 48,37.243463 48,24 48,10.756537 37.243463,0 24,0 Z m 0,1.92 C 36.205818,1.92 46.08,11.794182 46.08,24 46.08,36.205818 36.205818,46.08 24,46.08 11.794182,46.08 1.92,36.205818 1.92,24 1.92,11.794182 11.794182,1.92 24,1.92 Z"
     style="color:#000000;font-style:normal;font-variant:normal;font-weight:normal;font-stretch:normal;font-size:medium;line-height:normal;font-family:sans-serif;text-indent:0;text-align:start;text-decoration:none;text-decoration-line:none;text-decoration-style:solid;text-decoration-color:#000000;letter-spacing:normal;word-spacing:normal;text-transform:none;direction:ltr;block-progression:tb;writing-mode:lr-tb;baseline-shift:baseline;text-anchor:start;white-space:normal;clip-rule:nonzero;display:inline;overflow:visible;visibility:visible;opacity:1;isolation:auto;mix-blend-mode:normal;color-interpolation:sRGB;color-interpolation-filters:linearRGB;solid-color:#000000;solid-opacity:1;fill:url(#linearGradient3562);fill-opacity:1;fill-rule:nonzero;stroke:none;stroke-width:2;stroke-linecap:butt;stroke-linejoin:round;stroke-miterlimit:4;stroke-dasharray:none;stroke-dashoffset:0;stroke-opacity:1;color-rendering:auto;image-rendering:auto;shape-rendering:auto;text-rendering:auto;enable-background:accumulate" />
</svg>
