<?xml version="1.0" encoding="UTF-8" standalone="no"?>
<!-- Created with Inkscape (http://www.inkscape.org/) -->

<svg
   xmlns:dc="http://purl.org/dc/elements/1.1/"
   xmlns:cc="http://creativecommons.org/ns#"
   xmlns:rdf="http://www.w3.org/1999/02/22-rdf-syntax-ns#"
   xmlns:svg="http://www.w3.org/2000/svg"
   xmlns="http://www.w3.org/2000/svg"
   xmlns:xlink="http://www.w3.org/1999/xlink"
   xmlns:sodipodi="http://sodipodi.sourceforge.net/DTD/sodipodi-0.dtd"
   xmlns:inkscape="http://www.inkscape.org/namespaces/inkscape"
   width="48px"
   height="48px"
   id="svg2985"
   version="1.1"
   inkscape:version="0.91 r13725"
   sodipodi:docname="calligrawords.svg">
  <defs
     id="defs2987">
    <linearGradient
       id="linearGradient4417">
      <stop
         style="stop-color:#ef2f0f;stop-opacity:1"
         offset="0"
         id="stop4419" />
      <stop
         style="stop-color:#f56603;stop-opacity:1"
         offset="1"
         id="stop4421" />
    </linearGradient>
    <linearGradient
       id="linearGradient3819">
      <stop
         style="stop-color:#eff0f1;stop-opacity:1;"
         offset="0"
         id="stop3821" />
      <stop
         style="stop-color:#bdc3c7;stop-opacity:1;"
         offset="1"
         id="stop3823" />
    </linearGradient>
    <linearGradient
       id="linearGradient4501">
      <stop
         id="stop4503"
         offset="0"
         style="stop-color:#fc8f2f;stop-opacity:1" />
      <stop
         id="stop4505"
         offset="1"
         style="stop-color:#ed1515;stop-opacity:1;" />
    </linearGradient>
    <linearGradient
       gradientTransform="matrix(1.0309825,0,0,1,-0.512598,0)"
       gradientUnits="userSpaceOnUse"
       y2="1044.0269"
       x2="15.408648"
       y1="1012.1181"
       x1="15.791382"
       id="linearGradient4300-2"
       xlink:href="#linearGradient4501"
       inkscape:collect="always" />
    <linearGradient
       gradientTransform="matrix(0.68964436,0,0,1,10.82717,0)"
       gradientUnits="userSpaceOnUse"
       y2="1037.2084"
       x2="34.116894"
       y1="1013.622"
       x1="33.461716"
       id="linearGradient4308"
       xlink:href="#linearGradient4320"
       inkscape:collect="always" />
    <linearGradient
       gradientTransform="translate(-0.199659,0)"
       gradientUnits="userSpaceOnUse"
       y2="1011.3622"
       x2="28"
       y1="1037.3622"
       x1="28"
       id="linearGradient4286"
       xlink:href="#linearGradient4417"
       inkscape:collect="always" />
    <linearGradient
       id="linearGradient4320"
       inkscape:collect="always">
      <stop
         id="stop4322"
         offset="0"
         style="stop-color:#f6fbff;stop-opacity:1" />
      <stop
         id="stop4324"
         offset="1"
         style="stop-color:#eaeff2;stop-opacity:1" />
    </linearGradient>
  </defs>
  <sodipodi:namedview
     id="base"
     pagecolor="#5a5a5a"
     bordercolor="#666666"
     borderopacity="1.0"
     inkscape:pageopacity="0"
     inkscape:pageshadow="2"
     inkscape:zoom="3.9933812"
     inkscape:cx="-17.84622"
     inkscape:cy="25.49244"
     inkscape:current-layer="g4202"
     showgrid="false"
     inkscape:grid-bbox="true"
     inkscape:document-units="px"
     inkscape:snap-global="true"
     inkscape:window-width="1366"
     inkscape:window-height="642"
     inkscape:window-x="0"
     inkscape:window-y="33"
     inkscape:window-maximized="0"
     inkscape:snap-bbox="true"
     inkscape:bbox-nodes="true"
     inkscape:object-nodes="true"
     inkscape:snap-nodes="true"
     inkscape:snap-others="false"
     showborder="false">
    <inkscape:grid
       type="xygrid"
       id="grid2993" />
  </sodipodi:namedview>
  <metadata
     id="metadata2990">
    <rdf:RDF>
      <cc:Work
         rdf:about="">
        <dc:format>image/svg+xml</dc:format>
        <dc:type
           rdf:resource="http://purl.org/dc/dcmitype/StillImage" />
        <dc:title />
      </cc:Work>
    </rdf:RDF>
  </metadata>
  <g
     id="layer1"
     inkscape:label="Layer 1"
     inkscape:groupmode="layer">
    <g
       inkscape:label="Layer 1"
       id="layer1-1"
       transform="translate(-0.64791813,0.018)" />
    <g
       id="g4202"
       transform="matrix(1.1526351,0,0,1.1526351,-3.6949438,-3.505721)">
      <g
         inkscape:label="Layer 1"
         id="layer1-88"
         transform="translate(-48.788891,-1.3943161)">
        <g
           inkscape:label="Capa 1"
           id="layer1-5"
           transform="translate(-384.14389,-499.44752)">
          <g
             id="g4231"
             transform="matrix(1.5263052,0,0,1.5263052,376.31698,-1040.1258)">
            <g
               transform="translate(61.491819,-0.00433837)"
               id="g4495">
              <g
                 inkscape:label="Layer 1"
                 id="layer1-8"
                 transform="matrix(0.65517696,0,0,0.65517696,-24.348086,1009.4167)">
                <g
                   transform="translate(0.24974411,-0.18030063)"
                   id="layer1-4"
                   inkscape:label="Layer 1">
                  <g
                     id="g4389"
                     transform="translate(-39.084616,0)">
                    <g
                       inkscape:label="Capa 1"
                       id="layer1-9"
                       transform="matrix(-1,0,0,1,473.37783,-499.49967)">
                      <g
                         transform="matrix(-1.5263052,0,0,1.5263052,444.81962,-1040.1735)"
                         id="g4414">
                        <path
                           sodipodi:nodetypes="ccccccc"
                           inkscape:connector-curvature="0"
                           id="path4248"
                           d="m 11.563303,1036.9442 11.636697,0 -3.21e-4,-24.4983 -11.533282,3e-4 c -1.268259,-0.094 -1.782566,0.023 -1.782566,1.1721 l 0,22.0916 c -0.07966,1.261 0.446208,1.2343 1.679472,1.2343 z"
                           style="opacity:1;fill:url(#linearGradient4300-2);fill-opacity:1;fill-rule:evenodd;stroke:none;stroke-width:1px;stroke-linecap:butt;stroke-linejoin:miter;stroke-opacity:1" />
                        <path
                           sodipodi:nodetypes="ccccccc"
                           inkscape:connector-curvature="0"
                           id="path4248-6"
                           d="m 33.959911,1036.9362 -7.990815,0 0,-24.498 7.990815,0 c 0.848365,-0.094 0.916631,0.023 0.916631,1.1721 l 0,22.0916 c 0.05328,1.261 -0.09168,1.2343 -0.916631,1.2343 z"
                           style="opacity:1;fill:url(#linearGradient4308);fill-opacity:1;fill-rule:evenodd;stroke:none;stroke-width:1px;stroke-linecap:butt;stroke-linejoin:miter;stroke-opacity:1" />
                        <path
                           sodipodi:nodetypes="ccccccc"
                           inkscape:connector-curvature="0"
                           id="path4248-6-0"
                           d="M 31.957586,1038.1035 21.928,1036.932 l -2e-5,-24.4861 9.945926,-0.9324 c 1.230149,-0.094 1.296492,0.2446 1.296492,1.3937 l -0.08368,23.3688 c 0.07726,1.261 0.06707,1.8275 -1.129132,1.8275 z"
                           style="opacity:1;fill:url(#linearGradient4286);fill-opacity:1;fill-rule:evenodd;stroke:none;stroke-width:1px;stroke-linecap:butt;stroke-linejoin:miter;stroke-opacity:1" />
                      </g>
                    </g>
                  </g>
                </g>
              </g>
            </g>
          </g>
        </g>
      </g>
      <g
         transform="matrix(0.63829037,0,0,0.63829037,10.898745,8.1984188)"
         id="g4423"
         style="fill:#ffffff;fill-opacity:0.89999998">
        <path
           inkscape:connector-curvature="0"
           id="rect4267-6"
           d="m 18,8 a 2,2 0 0 0 -2,2 2,2 0 0 0 0.855469,1.636719 C 15.389379,16.063398 12.710009,23.289991 10,26 c 0,0 4,6 4,10 l 10,0 C 24,32 28,26 28,26 25.290481,23.290481 22.612758,16.065589 21.146484,11.638672 A 2,2 0 0 0 22,10 2,2 0 0 0 20,8 l 0,4 0,14.269531 c 0.618313,0.356983 0.999435,1.016503 1,1.730469 0,1.104569 -0.895431,2 -2,2 -1.104569,0 -2,-0.895431 -2,-2 0.0013,-0.713268 0.38229,-1.371883 1,-1.728516 L 18,12 18,8 Z"
           style="opacity:1;fill:#ffffff;fill-opacity:0.89999998;stroke:none;stroke-width:2;stroke-linecap:round;stroke-linejoin:bevel;stroke-miterlimit:4;stroke-dasharray:none;stroke-opacity:1" />
        <path
           style="opacity:1;fill:#ffffff;fill-opacity:0.89999998;stroke:none;stroke-width:6.19999981;stroke-linecap:round;stroke-linejoin:bevel;stroke-miterlimit:4;stroke-dasharray:none;stroke-opacity:1"
           d="m 14,36 10,0 c 0.831,0 1.5,0.669 1.5,1.5 0,0.831 -0.669,1.5 -1.5,1.5 l -10,0 c -0.831,0 -1.5,-0.669 -1.5,-1.5 0,-0.831 0.669,-1.5 1.5,-1.5 z"
           id="rect4188"
           inkscape:connector-curvature="0"
           sodipodi:nodetypes="sssssss" />
        <rect
           style="opacity:1;fill:#ffffff;fill-opacity:0.89999998;stroke:none;stroke-width:6.19999981;stroke-linecap:round;stroke-linejoin:bevel;stroke-miterlimit:4;stroke-dasharray:none;stroke-opacity:1"
           id="rect4192"
           width="10"
           height="5"
           x="14"
           y="39"
           ry="0" />
      </g>
    </g>
  </g>
</svg>
