<?xml version="1.0" encoding="UTF-8" standalone="no"?>
<!-- Created with Inkscape (http://www.inkscape.org/) -->

<svg
   xmlns:sketch="http://www.bohemiancoding.com/sketch/ns"
   xmlns:osb="http://www.openswatchbook.org/uri/2009/osb"
   xmlns:dc="http://purl.org/dc/elements/1.1/"
   xmlns:cc="http://creativecommons.org/ns#"
   xmlns:rdf="http://www.w3.org/1999/02/22-rdf-syntax-ns#"
   xmlns:svg="http://www.w3.org/2000/svg"
   xmlns="http://www.w3.org/2000/svg"
   xmlns:xlink="http://www.w3.org/1999/xlink"
   xmlns:sodipodi="http://sodipodi.sourceforge.net/DTD/sodipodi-0.dtd"
   xmlns:inkscape="http://www.inkscape.org/namespaces/inkscape"
   width="48"
   height="48"
   id="svg5453"
   version="1.1"
   inkscape:version="0.91 r13725"
   sodipodi:docname="preferences-system-windows-actions.svg">
  <defs
     id="defs5455">
    <linearGradient
       gradientTransform="matrix(1.0523327,0,0,1.0276135,-21.151387,-14.039869)"
       gradientUnits="userSpaceOnUse"
       y2="507.798"
       x2="409.57144"
       y1="542.79797"
       x1="409.57144"
       id="linearGradient4222"
       xlink:href="#linearGradient4143"
       inkscape:collect="always" />
    <linearGradient
       osb:paint="gradient"
       id="linearGradient4207">
      <stop
         id="stop3371"
         offset="0"
         style="stop-color:#3498db;stop-opacity:1;" />
      <stop
         id="stop3373"
         offset="1"
         style="stop-color:#3498db;stop-opacity:0;" />
    </linearGradient>
    <linearGradient
       id="linearGradient4227-2">
      <stop
         id="stop4229-9"
         style="stop-color:#566069;stop-opacity:1"
         offset="0" />
      <stop
         id="stop4231-4"
         style="stop-color:#6c7884;stop-opacity:1"
         offset="1" />
    </linearGradient>
    <linearGradient
       id="linearGradient4227-1">
      <stop
         id="stop4229-4"
         style="stop-color:#566069;stop-opacity:1"
         offset="0" />
      <stop
         id="stop4231-6"
         style="stop-color:#636e79;stop-opacity:1"
         offset="1" />
    </linearGradient>
    <linearGradient
       inkscape:collect="always"
       id="linearGradient4143">
      <stop
         style="stop-color:#197cf1;stop-opacity:1"
         offset="0"
         id="stop4145" />
      <stop
         style="stop-color:#20bcfa;stop-opacity:1"
         offset="1"
         id="stop4147" />
    </linearGradient>
  </defs>
  <sodipodi:namedview
     id="base"
     pagecolor="#ffffff"
     bordercolor="#666666"
     borderopacity="1.0"
     inkscape:pageopacity="0"
     inkscape:pageshadow="2"
     inkscape:zoom="4"
     inkscape:cx="-62.463736"
     inkscape:cy="13.074066"
     inkscape:document-units="px"
     inkscape:current-layer="g4447"
     showgrid="true"
     fit-margin-top="0"
     fit-margin-left="0"
     fit-margin-right="0"
     fit-margin-bottom="0"
     inkscape:window-width="1366"
     inkscape:window-height="633"
     inkscape:window-x="0"
     inkscape:window-y="33"
     inkscape:window-maximized="1"
     inkscape:showpageshadow="false"
     borderlayer="true"
     showguides="true">
    <inkscape:grid
       type="xygrid"
       id="grid4063" />
    <sodipodi:guide
       position="4.2167969e-05,32.000026"
       orientation="32,0"
       id="guide4625" />
    <sodipodi:guide
       position="4.2167969e-05,2.6367188e-05"
       orientation="0,31.999969"
       id="guide4627" />
    <sodipodi:guide
       position="32.000012,2.6367188e-05"
       orientation="-32,0"
       id="guide4629" />
    <sodipodi:guide
       position="32.000012,32.000026"
       orientation="0,-31.999969"
       id="guide4631" />
    <sodipodi:guide
       position="2.0000422,30.000026"
       orientation="28,0"
       id="guide4633" />
    <sodipodi:guide
       position="2.0000422,2.0000264"
       orientation="0,27.999969"
       id="guide4635" />
    <sodipodi:guide
       position="30,17"
       orientation="-28,0"
       id="guide4637" />
    <sodipodi:guide
       position="9.0000117,21.000026"
       orientation="14,0"
       id="guide4158" />
    <sodipodi:guide
       position="9.0000117,7.0000264"
       orientation="0,14"
       id="guide4160" />
    <sodipodi:guide
       position="23.000012,21.000026"
       orientation="0,-14"
       id="guide4164" />
  </sodipodi:namedview>
  <metadata
     id="metadata5458">
    <rdf:RDF>
      <cc:Work
         rdf:about="">
        <dc:format>image/svg+xml</dc:format>
        <dc:type
           rdf:resource="http://purl.org/dc/dcmitype/StillImage" />
        <dc:title />
      </cc:Work>
    </rdf:RDF>
  </metadata>
  <g
     inkscape:label="Capa 1"
     inkscape:groupmode="layer"
     id="layer1"
     transform="translate(-384.57143,-499.798)">
    <g
       id="layer1-37"
       inkscape:label="Capa 1"
       transform="translate(0.01805765,0.00238029)">
      <g
         transform="matrix(0.65762761,0,0,0.65762761,163.45346,180.49688)"
         id="g4447">
        <g
           transform="translate(-48.123492,9.4954666)"
           id="layer1-6"
           inkscape:label="Capa 1">
          <g
             transform="translate(-51.525445,5.4558218)"
             inkscape:label="Capa 1"
             id="layer1-4">
            <g
               id="layer1-3"
               inkscape:label="Capa 1"
               transform="translate(-34.965532,2.4832225)" />
          </g>
          <g
             transform="translate(51.385479,-6.0099446)"
             id="g4403" />
        </g>
        <g
           id="g4172"
           transform="matrix(1.5106785,0,0,1.5106785,-171.9542,-284.96478)">
          <rect
             style="opacity:1;fill:url(#linearGradient4222);fill-opacity:1.0;stroke:none;stroke-width:0.2;stroke-linecap:round;stroke-linejoin:round;stroke-miterlimit:4;stroke-dasharray:none;stroke-opacity:1"
             id="rect4195"
             width="46.302639"
             height="34.938858"
             x="385.65039"
             y="507.78021"
             ry="1.6441816"
             transform="translate(-48.263451,8.9413364)" />
          <g
             id="g4247"
             style="fill:#ffffff;fill-opacity:0.84693879"
             transform="matrix(0.83317883,0,0,0.83317883,69.00953,88.18103)">
            <circle
               r="2.25"
               cy="518.737"
               cx="373.36642"
               id="path4224"
               style="opacity:1;fill:#ffffff;fill-opacity:0.84693879;stroke:none;stroke-width:0.2;stroke-linecap:round;stroke-linejoin:round;stroke-miterlimit:4;stroke-dasharray:none;stroke-opacity:1" />
            <circle
               r="2.25"
               cy="518.78473"
               cx="367.8389"
               id="path4224-4"
               style="opacity:1;fill:#ffffff;fill-opacity:0.84693879;stroke:none;stroke-width:0.2;stroke-linecap:round;stroke-linejoin:round;stroke-miterlimit:4;stroke-dasharray:none;stroke-opacity:1" />
            <circle
               r="2.25"
               cy="518.83801"
               cx="362.40543"
               id="path4224-8"
               style="opacity:1;fill:#ffffff;fill-opacity:0.84693879;stroke:none;stroke-width:0.2;stroke-linecap:round;stroke-linejoin:round;stroke-miterlimit:4;stroke-dasharray:none;stroke-opacity:1" />
          </g>
          <g
             style="fill:#ffffff;fill-opacity:0.84693879"
             transform="matrix(1.5206174,0,0,1.5206174,-302.66502,-281.34008)"
             id="layer1-66"
             inkscape:label="Capa 1">
            <g
               style="fill:#ffffff;fill-opacity:0.84693879"
               transform="translate(-0.86098561,-2.0807143)"
               id="layer1-0"
               inkscape:label="Capa 1">
              <g
                 style="fill:#ffffff;fill-opacity:0.84693879"
                 transform="matrix(0.11986343,0,0,0.11986343,429.63077,532.36817)"
                 sketch:type="MSLayerGroup"
                 id="trello">
                <path
                   style="fill:#ffffff;fill-opacity:0.84693879"
                   inkscape:connector-curvature="0"
                   sketch:type="MSShapeGroup"
                   id="path1319"
                   d="m 124.023,1.977 c -1.032,-1.032 -2.254,-1.548 -3.666,-1.548 l -114.714,0 C 4.23,0.429 3.008,0.945 1.976,1.977 0.944,3.009 0.428,4.231 0.428,5.643 l 0,114.714 c 0,1.412 0.516,2.635 1.548,3.666 1.033,1.032 2.255,1.549 3.667,1.549 l 114.714,0 c 1.412,0 2.634,-0.517 3.666,-1.549 1.031,-1.031 1.547,-2.254 1.547,-3.666 l 0,-114.714 c 0,-1.413 -0.515,-2.634 -1.547,-3.666 l 0,0 z M 57.786,99.5 c 0,0.761 -0.244,1.385 -0.733,1.874 -0.489,0.488 -1.114,0.733 -1.874,0.733 l -39.107,0 c -0.761,0 -1.385,-0.245 -1.874,-0.733 -0.488,-0.489 -0.733,-1.113 -0.733,-1.874 l 0,-83.429 c 0,-0.761 0.244,-1.385 0.733,-1.874 0.489,-0.488 1.113,-0.733 1.874,-0.733 l 39.107,0 c 0.76,0 1.385,0.245 1.874,0.733 0.489,0.489 0.733,1.113 0.733,1.874 l 0,83.429 0,0 z m 54.75,-31.286 c 0,0.761 -0.244,1.386 -0.733,1.874 -0.488,0.489 -1.113,0.733 -1.873,0.733 l -39.106,0 c -0.763,0 -1.386,-0.244 -1.875,-0.733 -0.488,-0.488 -0.732,-1.113 -0.732,-1.874 l 0,-52.143 c 0,-0.761 0.244,-1.385 0.732,-1.874 0.489,-0.488 1.112,-0.733 1.875,-0.733 l 39.106,0 c 0.76,0 1.385,0.245 1.873,0.733 0.489,0.489 0.733,1.113 0.733,1.874 l 0,52.143 0,0 z" />
              </g>
            </g>
          </g>
        </g>
      </g>
    </g>
  </g>
</svg>
