<svg height="48" width="48" xmlns="http://www.w3.org/2000/svg" xmlns:xlink="http://www.w3.org/1999/xlink"><linearGradient id="a" gradientTransform="matrix(.73959453 0 0 1.0724288 8.622553 -74.496141)" gradientUnits="userSpaceOnUse" x1="33.461716" x2="34.116894" y1="1013.622" y2="1037.2084"><stop offset="0" stop-color="#f6fbff"/><stop offset="1" stop-color="#eaeff2"/></linearGradient><linearGradient id="b" gradientTransform="matrix(1.1056554 0 0 1.0724288 -3.538543 -74.496141)" gradientUnits="userSpaceOnUse" x1="17" x2="17" y1="1036.3622" y2="1012.3622"><stop offset="0" stop-color="#0c7eed"/><stop offset="1" stop-color="#0bb6ff"/></linearGradient><path d="m40.189735 2.5015457c-.19546 0-.417349 0-.66877.022895l-16.262174 1.5243206h-16.7781094c-2.0736836-.1536989-2.9145137.0381576-2.9145137 1.9165814v36.1209283c-.1302488 2.061886.7293092 2.018386 2.7457716 2.018386h17.1169165l16.229044 1.895366c1.573424 0 1.89154-.600906 1.890146-1.908645h1.383932c1.348846 0 1.585896.04426 1.498778-2.017928v-36.1213861c0-1.8787291-.111649-2.0702804-1.498778-1.9165815h-1.306188c-.054184-1.0748241-.306711-1.5111947-1.436055-1.5350051z" fill-opacity=".666667" fill-rule="evenodd" stroke-width="1.526305"/><g transform="matrix(1.524635 0 0 1.524635 -8.037853 -1538.236)"><g transform="translate(0 -.030903)"><path d="m33.430769 1037.5442h-8.569579v-26.2724h8.569579c.909813-.1008.983023.025.983023 1.257v23.6917c.05714 1.3523-.09832 1.3237-.983023 1.3237z" fill="url(#a)" fill-rule="evenodd"/><path d="m31.632138 1010.2649c-.128202 0-.273449 0-.438356.015l-10.666273.9999h-11.004962c-1.360118-.1008-1.911615.024-1.911615 1.2568v23.6918c-.08542 1.3522.478574 1.3237 1.800939 1.3237h.000295 11.226894l10.644252 1.2432c1.282841 0 1.293915-.6073 1.211057-1.9596l.08981-25.0617c0-1.0782-.05463-1.4909-.952039-1.5097z" fill="url(#b)" fill-rule="evenodd"/></g><path d="m31.283421 1038.7644-10.756018-1.2563-.000023-26.2596 10.666298-.9999c1.319248-.1009 1.390395.2623 1.390395 1.4946l-.08974 25.0614c.08286 1.3523.07193 1.9598-1.210912 1.9598z" fill-opacity=".039216" fill-rule="evenodd"/></g><g transform="matrix(.72307692 0 0 .72307692 6.646152 6.646151)"><text opacity=".8" x="877.22626" y="10.812601"><tspan x="877.22626" y="10.812601"/></text><text opacity=".8" x="901.18719" y="-29.929106"><tspan x="901.18719" y="-29.929106"/></text><text opacity=".8" x="-569.37115" y="-60.007248"><tspan x="-569.37115" y="-60.007248"/></text><text opacity=".8" x="-2393.0571" y="685.5462"><tspan x="-2393.0571" y="685.5462"/></text><text opacity=".8" x="-454.88007" y="-445.32822"><tspan x="-454.88007" y="-445.32822"/></text><text opacity=".8" x="352.72208" y="-858.79834"><tspan x="352.72208" y="-858.79834"/></text><text opacity=".8" x="376.68301" y="-899.54004"><tspan x="376.68301" y="-899.54004"/></text><text opacity=".8" x="-1114.7802" y="-906.74994"><tspan x="-1114.7802" y="-906.74994"/></text><text opacity=".8" x="345.7626" y="-1179.9841"><tspan x="345.7626" y="-1179.9841"/></text><text opacity=".8" x="1831.8861" y="-553.29272"><tspan x="1831.8861" y="-553.29272"/></text><text opacity=".8" x="1855.8469" y="-594.03448"><tspan x="1855.8469" y="-594.03448"/></text><text opacity=".8" x="364.38376" y="-601.24438"><tspan x="364.38376" y="-601.24438"/></text><text opacity=".8" x="1824.9266" y="-874.47839"><tspan x="1824.9266" y="-874.47839"/></text><text opacity=".8" x="-573.43256" y="-649.33569"><tspan x="-573.43256" y="-649.33569"/></text><text opacity=".8" x="-2397.1182" y="96.217857"><tspan x="-2397.1182" y="96.217857"/></text><text opacity=".8" x="-682.36279" y="189.09"><tspan x="-682.36279" y="189.09"/></text><text opacity=".8" x="426.66153" y="9.907852"><tspan x="426.66153" y="9.907852"/></text><text opacity=".8" x="450.62247" y="-30.833855"><tspan x="450.62247" y="-30.833855"/></text><text opacity=".8" x="-1040.8407" y="-38.043827"><tspan x="-1040.8407" y="-38.043827"/></text><text opacity=".8" x="419.70206" y="-311.27789"><tspan x="419.70206" y="-311.27789"/></text><text opacity=".8" x="-608.03253" y="-40.758072"><tspan x="-608.03253" y="-40.758072"/></text><text opacity=".8" x="-2431.7185" y="704.79541"><tspan x="-2431.7185" y="704.79541"/></text><text opacity=".8" x="-456.93948" y="-902.28857"><tspan x="-456.93948" y="-902.28857"/></text><text opacity=".8" x="350.66266" y="-1315.7588"><tspan x="350.66266" y="-1315.7588"/></text><text opacity=".8" x="374.62357" y="-1356.5005"><tspan x="374.62357" y="-1356.5005"/></text><text opacity=".8" x="-1116.8396" y="-1363.7104"><tspan x="-1116.8396" y="-1363.7104"/></text><text opacity=".8" x="343.70316" y="-1636.9446"><tspan x="343.70316" y="-1636.9446"/></text><text opacity=".8" x="1829.8265" y="-1010.2533"><tspan x="1829.8265" y="-1010.2533"/></text><text opacity=".8" x="1853.7874" y="-1050.9949"><tspan x="1853.7874" y="-1050.9949"/></text><text opacity=".8" x="362.32431" y="-1058.2048"><tspan x="362.32431" y="-1058.2048"/></text><text opacity=".8" x="1822.8671" y="-1331.439"><tspan x="1822.8671" y="-1331.439"/></text><text opacity=".8" x="-575.492" y="-1106.2961"><tspan x="-575.492" y="-1106.2961"/></text><text opacity=".8" x="-2399.1777" y="-360.74261"><tspan x="-2399.1777" y="-360.74261"/></text><text opacity=".8" x="-684.42224" y="-267.87045"><tspan x="-684.42224" y="-267.87045"/></text><text opacity=".8" x="155.5923" y="-26.956278"><tspan x="155.5923" y="-26.956278"/></text><text opacity=".8" x="179.55324" y="-67.697998"><tspan x="179.55324" y="-67.697998"/></text><text opacity=".8" x="-1090.2634" y="-261.72662"><tspan x="-1090.2634" y="-261.72662"/></text><text opacity=".8" x="-282.66141" y="-675.19678"><tspan x="-282.66141" y="-675.19678"/></text><text opacity=".8" x="-258.70047" y="-715.93848"><tspan x="-258.70047" y="-715.93848"/></text><text opacity=".8" x="-1750.1636" y="-723.14838"><tspan x="-1750.1636" y="-723.14838"/></text><text opacity=".8" x="-289.62085" y="-996.38251"><tspan x="-289.62085" y="-996.38251"/></text><text opacity=".8" x="1196.5026" y="-369.69113"><tspan x="1196.5026" y="-369.69113"/></text><text opacity=".8" x="1220.4634" y="-410.43286"><tspan x="1220.4634" y="-410.43286"/></text><text opacity=".8" x="-270.99973" y="-417.64282"><tspan x="-270.99973" y="-417.64282"/></text><text opacity=".8" x="1189.5431" y="-690.87689"><tspan x="1189.5431" y="-690.87689"/></text><text opacity=".8" x="-1208.816" y="-465.7341"><tspan x="-1208.816" y="-465.7341"/></text><text opacity=".8" x="-3032.5017" y="279.81946"><tspan x="-3032.5017" y="279.81946"/></text><text opacity=".8" transform="matrix(.90475 0 0 .90475 -716.75 -676.29)" x="-664.2738" y="1159.4154"><tspan x="-664.2738" y="1159.4154"/></text><text opacity=".8" x="877.22626" y="18.050589"><tspan x="877.22626" y="18.050589"/></text><text opacity=".8" x="901.18719" y="-22.691116"><tspan x="901.18719" y="-22.691116"/></text><text opacity=".8" x="-569.37115" y="-52.76926"><tspan x="-569.37115" y="-52.76926"/></text><text opacity=".8" x="-2393.0571" y="692.78418"><tspan x="-2393.0571" y="692.78418"/></text><text opacity=".8" x="-454.88007" y="-438.09021"><tspan x="-454.88007" y="-438.09021"/></text><text opacity=".8" x="352.72208" y="-851.5603"><tspan x="352.72208" y="-851.5603"/></text><text opacity=".8" x="376.68301" y="-892.30206"><tspan x="376.68301" y="-892.30206"/></text><text opacity=".8" x="-1114.7802" y="-899.51196"><tspan x="-1114.7802" y="-899.51196"/></text><text opacity=".8" x="345.7626" y="-1172.7461"><tspan x="345.7626" y="-1172.7461"/></text><text opacity=".8" x="1831.8861" y="-546.05475"><tspan x="1831.8861" y="-546.05475"/></text><text opacity=".8" x="1855.8469" y="-586.79651"><tspan x="1855.8469" y="-586.79651"/></text><text opacity=".8" x="364.38376" y="-594.00641"><tspan x="364.38376" y="-594.00641"/></text><text opacity=".8" x="1824.9266" y="-867.24036"><tspan x="1824.9266" y="-867.24036"/></text><text opacity=".8" x="-573.43256" y="-642.09772"><tspan x="-573.43256" y="-642.09772"/></text><text opacity=".8" x="-2397.1182" y="103.45585"><tspan x="-2397.1182" y="103.45585"/></text><text opacity=".8" x="-682.36279" y="196.32799"><tspan x="-682.36279" y="196.32799"/></text><text opacity=".8" x="426.66153" y="17.14584"><tspan x="426.66153" y="17.14584"/></text><text opacity=".8" x="450.62247" y="-23.595865"><tspan x="450.62247" y="-23.595865"/></text><text opacity=".8" x="-1040.8407" y="-30.805836"><tspan x="-1040.8407" y="-30.805836"/></text><text opacity=".8" x="419.70206" y="-304.03989"><tspan x="419.70206" y="-304.03989"/></text><text opacity=".8" x="-608.03253" y="-33.520081"><tspan x="-608.03253" y="-33.520081"/></text><text opacity=".8" x="-2431.7185" y="712.03345"><tspan x="-2431.7185" y="712.03345"/></text><text opacity=".8" x="-456.93948" y="-895.0506"><tspan x="-456.93948" y="-895.0506"/></text><text opacity=".8" x="350.66266" y="-1308.5208"><tspan x="350.66266" y="-1308.5208"/></text><text opacity=".8" x="374.62357" y="-1349.2626"><tspan x="374.62357" y="-1349.2626"/></text><text opacity=".8" x="-1116.8396" y="-1356.4724"><tspan x="-1116.8396" y="-1356.4724"/></text><text opacity=".8" x="343.70316" y="-1629.7065"><tspan x="343.70316" y="-1629.7065"/></text><text opacity=".8" x="1829.8265" y="-1003.0153"><tspan x="1829.8265" y="-1003.0153"/></text><text opacity=".8" x="1853.7874" y="-1043.757"><tspan x="1853.7874" y="-1043.757"/></text><text opacity=".8" x="362.32431" y="-1050.9668"><tspan x="362.32431" y="-1050.9668"/></text><text opacity=".8" x="1822.8671" y="-1324.2009"><tspan x="1822.8671" y="-1324.2009"/></text><text opacity=".8" x="-575.492" y="-1099.0581"><tspan x="-575.492" y="-1099.0581"/></text><text opacity=".8" x="-2399.1777" y="-353.50461"><tspan x="-2399.1777" y="-353.50461"/></text><text opacity=".8" x="-684.42224" y="-260.63245"><tspan x="-684.42224" y="-260.63245"/></text><text opacity=".8" x="155.5923" y="-19.71829"><tspan x="155.5923" y="-19.71829"/></text><text opacity=".8" x="179.55324" y="-60.460011"><tspan x="179.55324" y="-60.460011"/></text><text opacity=".8" x="-1090.2634" y="-254.4886"><tspan x="-1090.2634" y="-254.4886"/></text><text opacity=".8" x="-282.66141" y="-667.9588"><tspan x="-282.66141" y="-667.9588"/></text><text opacity=".8" x="-258.70047" y="-708.7005"><tspan x="-258.70047" y="-708.7005"/></text><text opacity=".8" x="-1750.1636" y="-715.91046"><tspan x="-1750.1636" y="-715.91046"/></text><text opacity=".8" x="-289.62085" y="-989.14447"><tspan x="-289.62085" y="-989.14447"/></text><text opacity=".8" x="1196.5026" y="-362.45316"><tspan x="1196.5026" y="-362.45316"/></text><text opacity=".8" x="1220.4634" y="-403.19489"><tspan x="1220.4634" y="-403.19489"/></text><text opacity=".8" x="-270.99973" y="-410.40482"><tspan x="-270.99973" y="-410.40482"/></text><text opacity=".8" x="1189.5431" y="-683.63892"><tspan x="1189.5431" y="-683.63892"/></text><text opacity=".8" x="-1208.816" y="-458.49609"><tspan x="-1208.816" y="-458.49609"/></text><text opacity=".8" x="-3032.5017" y="287.05743"><tspan x="-3032.5017" y="287.05743"/></text><text opacity=".8" transform="matrix(.90475 0 0 .90475 -716.75 -669.05)" x="-664.2738" y="1159.4154"><tspan x="-664.2738" y="1159.4154"/></text><text x="435.90427" y="-361.22546"><tspan x="435.90427" y="-361.22546"/><tspan x="435.90427" y="-345.3924"/></text><text opacity=".8" x="901.0882" y="-843.27002"><tspan x="901.0882" y="-843.27002"/></text><text opacity=".8" x="-922.59778" y="-97.716553"><tspan x="-922.59778" y="-97.716553"/></text><text opacity=".8" x="1628.1677" y="-1128.2659"><tspan x="1628.1677" y="-1128.2659"/></text><text opacity=".8" x="1652.1285" y="-1169.0076"><tspan x="1652.1285" y="-1169.0076"/></text><text opacity=".8" x="160.66542" y="-1176.2175"><tspan x="160.66542" y="-1176.2175"/></text><text opacity=".8" x="1621.2083" y="-1449.4517"><tspan x="1621.2083" y="-1449.4517"/></text></g><path d="m13.31579 15.31594v17.368422l8.68421-8.105264 8.68421 8.105264v-17.368422" style="fill:none;stroke:#fff;stroke-width:4.631579;stroke-linecap:round;stroke-linejoin:round;stroke-opacity:.796954"/></svg>