<svg height="48" width="48" xmlns="http://www.w3.org/2000/svg" xmlns:xlink="http://www.w3.org/1999/xlink"><linearGradient id="a" gradientTransform="matrix(1.0343908 0 0 1.635038 8.360319 -1651.8387)" gradientUnits="userSpaceOnUse" x1="33.461716" x2="34.116894" y1="1013.622" y2="1037.2084"><stop offset="0" stop-color="#f6fbff"/><stop offset="1" stop-color="#eaeff2"/></linearGradient><linearGradient id="b" gradientTransform="matrix(1.6856954 0 0 1.635038 -13.432173 -1651.8387)" gradientUnits="userSpaceOnUse" x1="17" x2="17" y1="1036.3622" y2="1012.3622"><stop offset="0" stop-color="#c23b16"/><stop offset="1" stop-color="#ff6a44"/></linearGradient><g font-size="8.676923" stroke-width=".723077"><text opacity=".8" x="640.94824" y="14.464493"><tspan stroke-width=".723077" x="640.94824" y="14.464493"/></text><text opacity=".8" x="658.2738" y="-14.994895"><tspan stroke-width=".723077" x="658.2738" y="-14.994895"/></text><text opacity=".8" x="-405.05298" y="-36.743706"><tspan stroke-width=".723077" x="-405.05298" y="-36.743706"/></text><text opacity=".8" x="-1723.7183" y="502.34879"><tspan stroke-width=".723077" x="-1723.7183" y="502.34879"/></text><text opacity=".8" x="-322.26712" y="-315.36041"><tspan stroke-width=".723077" x="-322.26712" y="-315.36041"/></text><text opacity=".8" x="261.69135" y="-614.33112"><tspan stroke-width=".723077" x="261.69135" y="-614.33112"/></text><text opacity=".8" x="279.01694" y="-643.79047"><tspan stroke-width=".723077" x="279.01694" y="-643.79047"/></text><text opacity=".8" x="-799.42566" y="-649.00378"><tspan stroke-width=".723077" x="-799.42566" y="-649.00378"/></text><text opacity=".8" x="256.65912" y="-846.57312"><tspan stroke-width=".723077" x="256.65912" y="-846.57312"/></text><text opacity=".8" x="1331.2407" y="-393.42706"><tspan stroke-width=".723077" x="1331.2407" y="-393.42706"/></text><text opacity=".8" x="1348.5663" y="-422.88647"><tspan stroke-width=".723077" x="1348.5663" y="-422.88647"/></text><text opacity=".8" x="270.12363" y="-428.09979"><tspan stroke-width=".723077" x="270.12363" y="-428.09979"/></text><text opacity=".8" x="1326.2085" y="-625.66901"><tspan stroke-width=".723077" x="1326.2085" y="-625.66901"/></text><text opacity=".8" x="-407.98969" y="-462.8735"><tspan stroke-width=".723077" x="-407.98969" y="-462.8735"/></text><text opacity=".8" x="-1726.6547" y="76.219063"><tspan stroke-width=".723077" x="-1726.6547" y="76.219063"/></text><text opacity=".8" x="-486.75464" y="143.37276"><tspan stroke-width=".723077" x="-486.75464" y="143.37276"/></text><text opacity=".8" x="315.15524" y="13.81029"><tspan stroke-width=".723077" x="315.15524" y="13.81029"/></text><text opacity=".8" x="332.48087" y="-15.649097"><tspan stroke-width=".723077" x="332.48087" y="-15.649097"/></text><text opacity=".8" x="-745.96173" y="-20.862463"><tspan stroke-width=".723077" x="-745.96173" y="-20.862463"/></text><text opacity=".8" x="310.12302" y="-218.43172"><tspan stroke-width=".723077" x="310.12302" y="-218.43172"/></text><text opacity=".8" x="-433.00815" y="-22.825069"><tspan stroke-width=".723077" x="-433.00815" y="-22.825069"/></text><text opacity=".8" x="-1751.6733" y="516.26746"><tspan stroke-width=".723077" x="-1751.6733" y="516.26746"/></text><text opacity=".8" x="-323.75626" y="-645.77789"><tspan stroke-width=".723077" x="-323.75626" y="-645.77789"/></text><text opacity=".8" x="260.20224" y="-944.74866"><tspan stroke-width=".723077" x="260.20224" y="-944.74866"/></text><text opacity=".8" x="277.5278" y="-974.20807"><tspan stroke-width=".723077" x="277.5278" y="-974.20807"/></text><text opacity=".8" x="-800.91479" y="-979.42139"><tspan stroke-width=".723077" x="-800.91479" y="-979.42139"/></text><text opacity=".8" x="255.16997" y="-1176.9907"><tspan stroke-width=".723077" x="255.16997" y="-1176.9907"/></text><text opacity=".8" x="1329.7515" y="-723.84467"><tspan stroke-width=".723077" x="1329.7515" y="-723.84467"/></text><text opacity=".8" x="1347.077" y="-753.30396"><tspan stroke-width=".723077" x="1347.077" y="-753.30396"/></text><text opacity=".8" x="268.63449" y="-758.51733"><tspan stroke-width=".723077" x="268.63449" y="-758.51733"/></text><text opacity=".8" x="1324.7192" y="-956.08661"><tspan stroke-width=".723077" x="1324.7192" y="-956.08661"/></text><text opacity=".8" x="-409.47882" y="-793.29108"><tspan stroke-width=".723077" x="-409.47882" y="-793.29108"/></text><text opacity=".8" x="-1728.1439" y="-254.1985"><tspan stroke-width=".723077" x="-1728.1439" y="-254.1985"/></text><text opacity=".8" x="-488.24377" y="-187.04478"><tspan stroke-width=".723077" x="-488.24377" y="-187.04478"/></text><text opacity=".8" x="119.15135" y="-12.845311"><tspan stroke-width=".723077" x="119.15135" y="-12.845311"/></text><text opacity=".8" x="136.47696" y="-42.30471"><tspan stroke-width=".723077" x="136.47696" y="-42.30471"/></text><text opacity=".8" x="-781.69818" y="-182.60233"><tspan stroke-width=".723077" x="-781.69818" y="-182.60233"/></text><text opacity=".8" x="-197.73979" y="-481.57306"><tspan stroke-width=".723077" x="-197.73979" y="-481.57306"/></text><text opacity=".8" x="-180.41418" y="-511.03244"><tspan stroke-width=".723077" x="-180.41418" y="-511.03244"/></text><text opacity=".8" x="-1258.8567" y="-516.24573"><tspan stroke-width=".723077" x="-1258.8567" y="-516.24573"/></text><text opacity=".8" x="-202.772" y="-713.81506"><tspan stroke-width=".723077" x="-202.772" y="-713.81506"/></text><text opacity=".8" x="871.80957" y="-260.66898"><tspan stroke-width=".723077" x="871.80957" y="-260.66898"/></text><text opacity=".8" x="889.13507" y="-290.12839"><tspan stroke-width=".723077" x="889.13507" y="-290.12839"/></text><text opacity=".8" x="-189.3075" y="-295.34174"><tspan stroke-width=".723077" x="-189.3075" y="-295.34174"/></text><text opacity=".8" x="866.77728" y="-492.91098"><tspan stroke-width=".723077" x="866.77728" y="-492.91098"/></text><text opacity=".8" x="-867.42084" y="-330.11542"><tspan stroke-width=".723077" x="-867.42084" y="-330.11542"/></text><text opacity=".8" x="-2186.0859" y="208.97714"><tspan stroke-width=".723077" x="-2186.0859" y="208.97714"/></text></g><text font-size="7.850446" opacity=".8" stroke-width=".654204" x="-946.1897" y="276.13046"><tspan stroke-width=".654204" x="-946.1897" y="276.13046"/></text><text font-size="8.676923" opacity=".8" stroke-width=".723077" x="640.94824" y="19.698114"><tspan stroke-width=".723077" x="640.94824" y="19.698114"/></text><text font-size="8.676923" opacity=".8" stroke-width=".723077" x="658.2738" y="-9.761272"><tspan stroke-width=".723077" x="658.2738" y="-9.761272"/></text><text font-size="8.676923" opacity=".8" stroke-width=".723077" x="-405.05298" y="-31.510084"><tspan stroke-width=".723077" x="-405.05298" y="-31.510084"/></text><text font-size="8.676923" opacity=".8" stroke-width=".723077" x="-1723.7183" y="507.5824"><tspan stroke-width=".723077" x="-1723.7183" y="507.5824"/></text><text font-size="8.676923" opacity=".8" stroke-width=".723077" x="-322.26712" y="-310.12677"><tspan stroke-width=".723077" x="-322.26712" y="-310.12677"/></text><text font-size="8.676923" opacity=".8" stroke-width=".723077" x="261.69135" y="-609.09747"><tspan stroke-width=".723077" x="261.69135" y="-609.09747"/></text><text font-size="8.676923" opacity=".8" stroke-width=".723077" x="279.01694" y="-638.55688"><tspan stroke-width=".723077" x="279.01694" y="-638.55688"/></text><text font-size="8.676923" opacity=".8" stroke-width=".723077" x="-799.42566" y="-643.7702"><tspan stroke-width=".723077" x="-799.42566" y="-643.7702"/></text><text font-size="8.676923" opacity=".8" stroke-width=".723077" x="256.65912" y="-841.33948"><tspan stroke-width=".723077" x="256.65912" y="-841.33948"/></text><text font-size="8.676923" opacity=".8" stroke-width=".723077" x="1331.2407" y="-388.19342"><tspan stroke-width=".723077" x="1331.2407" y="-388.19342"/></text><text font-size="8.676923" opacity=".8" stroke-width=".723077" x="1348.5663" y="-417.65286"><tspan stroke-width=".723077" x="1348.5663" y="-417.65286"/></text><text font-size="8.676923" opacity=".8" stroke-width=".723077" x="270.12363" y="-422.86618"><tspan stroke-width=".723077" x="270.12363" y="-422.86618"/></text><text font-size="8.676923" opacity=".8" stroke-width=".723077" x="1326.2085" y="-620.43536"><tspan stroke-width=".723077" x="1326.2085" y="-620.43536"/></text><text font-size="8.676923" opacity=".8" stroke-width=".723077" x="-407.98969" y="-457.63989"><tspan stroke-width=".723077" x="-407.98969" y="-457.63989"/></text><text font-size="8.676923" opacity=".8" stroke-width=".723077" x="-1726.6547" y="81.45269"><tspan stroke-width=".723077" x="-1726.6547" y="81.45269"/></text><text font-size="8.676923" opacity=".8" stroke-width=".723077" x="-486.75464" y="148.60638"><tspan stroke-width=".723077" x="-486.75464" y="148.60638"/></text><text font-size="8.676923" opacity=".8" stroke-width=".723077" x="315.15524" y="19.043911"><tspan stroke-width=".723077" x="315.15524" y="19.043911"/></text><text font-size="8.676923" opacity=".8" stroke-width=".723077" x="332.48087" y="-10.415475"><tspan stroke-width=".723077" x="332.48087" y="-10.415475"/></text><text font-size="8.676923" opacity=".8" stroke-width=".723077" x="-745.96173" y="-15.628838"><tspan stroke-width=".723077" x="-745.96173" y="-15.628838"/></text><text font-size="8.676923" opacity=".8" stroke-width=".723077" x="310.12302" y="-213.19807"><tspan stroke-width=".723077" x="310.12302" y="-213.19807"/></text><text font-size="8.676923" opacity=".8" stroke-width=".723077" x="-433.00815" y="-17.591446"><tspan stroke-width=".723077" x="-433.00815" y="-17.591446"/></text><text font-size="8.676923" opacity=".8" stroke-width=".723077" x="-1751.6733" y="521.5011"><tspan stroke-width=".723077" x="-1751.6733" y="521.5011"/></text><text font-size="8.676923" opacity=".8" stroke-width=".723077" x="-323.75626" y="-640.54425"><tspan stroke-width=".723077" x="-323.75626" y="-640.54425"/></text><text font-size="8.676923" opacity=".8" stroke-width=".723077" x="260.20224" y="-939.51501"><tspan stroke-width=".723077" x="260.20224" y="-939.51501"/></text><text font-size="8.676923" opacity=".8" stroke-width=".723077" x="277.5278" y="-968.97449"><tspan stroke-width=".723077" x="277.5278" y="-968.97449"/></text><text font-size="8.676923" opacity=".8" stroke-width=".723077" x="-800.91479" y="-974.18774"><tspan stroke-width=".723077" x="-800.91479" y="-974.18774"/></text><text font-size="8.676923" opacity=".8" stroke-width=".723077" x="255.16997" y="-1171.7571"><tspan stroke-width=".723077" x="255.16997" y="-1171.7571"/></text><text font-size="8.676923" opacity=".8" stroke-width=".723077" x="1329.7515" y="-718.61108"><tspan stroke-width=".723077" x="1329.7515" y="-718.61108"/></text><text font-size="8.676923" opacity=".8" stroke-width=".723077" x="1347.077" y="-748.07043"><tspan stroke-width=".723077" x="1347.077" y="-748.07043"/></text><text font-size="8.676923" opacity=".8" stroke-width=".723077" x="268.63449" y="-753.28369"><tspan stroke-width=".723077" x="268.63449" y="-753.28369"/></text><text font-size="8.676923" opacity=".8" stroke-width=".723077" x="1324.7192" y="-950.85297"><tspan stroke-width=".723077" x="1324.7192" y="-950.85297"/></text><text font-size="8.676923" opacity=".8" stroke-width=".723077" x="-409.47882" y="-788.05737"><tspan stroke-width=".723077" x="-409.47882" y="-788.05737"/></text><text font-size="8.676923" opacity=".8" stroke-width=".723077" x="-1728.1439" y="-248.96487"><tspan stroke-width=".723077" x="-1728.1439" y="-248.96487"/></text><text font-size="8.676923" opacity=".8" stroke-width=".723077" x="-488.24377" y="-181.81116"><tspan stroke-width=".723077" x="-488.24377" y="-181.81116"/></text><text font-size="8.676923" opacity=".8" stroke-width=".723077" x="119.15135" y="-7.61169"><tspan stroke-width=".723077" x="119.15135" y="-7.61169"/></text><text font-size="8.676923" opacity=".8" stroke-width=".723077" x="136.47696" y="-37.071087"><tspan stroke-width=".723077" x="136.47696" y="-37.071087"/></text><text font-size="8.676923" opacity=".8" stroke-width=".723077" x="-781.69818" y="-177.36868"><tspan stroke-width=".723077" x="-781.69818" y="-177.36868"/></text><text font-size="8.676923" opacity=".8" stroke-width=".723077" x="-197.73979" y="-476.33945"><tspan stroke-width=".723077" x="-197.73979" y="-476.33945"/></text><text font-size="8.676923" opacity=".8" stroke-width=".723077" x="-180.41418" y="-505.79883"><tspan stroke-width=".723077" x="-180.41418" y="-505.79883"/></text><text font-size="8.676923" opacity=".8" stroke-width=".723077" x="-1258.8567" y="-511.01218"><tspan stroke-width=".723077" x="-1258.8567" y="-511.01218"/></text><text font-size="8.676923" opacity=".8" stroke-width=".723077" x="-202.772" y="-708.58136"><tspan stroke-width=".723077" x="-202.772" y="-708.58136"/></text><text font-size="8.676923" opacity=".8" stroke-width=".723077" x="871.80957" y="-255.43536"><tspan stroke-width=".723077" x="871.80957" y="-255.43536"/></text><text font-size="8.676923" opacity=".8" stroke-width=".723077" x="889.13507" y="-284.89478"><tspan stroke-width=".723077" x="889.13507" y="-284.89478"/></text><text font-size="8.676923" opacity=".8" stroke-width=".723077" x="-189.3075" y="-290.10809"><tspan stroke-width=".723077" x="-189.3075" y="-290.10809"/></text><text font-size="8.676923" opacity=".8" stroke-width=".723077" x="866.77728" y="-487.67737"><tspan stroke-width=".723077" x="866.77728" y="-487.67737"/></text><text font-size="8.676923" opacity=".8" stroke-width=".723077" x="-867.42084" y="-324.88181"><tspan stroke-width=".723077" x="-867.42084" y="-324.88181"/></text><text font-size="8.676923" opacity=".8" stroke-width=".723077" x="-2186.0859" y="214.21075"><tspan stroke-width=".723077" x="-2186.0859" y="214.21075"/></text><text font-size="7.850446" opacity=".8" stroke-width=".654204" x="-946.1897" y="281.36554"><tspan stroke-width=".654204" x="-946.1897" y="281.36554"/></text><text font-size="8.676923" stroke-width=".723077" x="321.83847" y="-254.54764"><tspan stroke-width=".723077" x="321.83847" y="-254.54764"/><tspan stroke-width=".723077" x="321.83847" y="-243.09912"/></text><text font-size="8.676923" opacity=".8" stroke-width=".723077" x="658.20221" y="-603.10297"><tspan stroke-width=".723077" x="658.20221" y="-603.10297"/></text><text font-size="8.676923" opacity=".8" stroke-width=".723077" x="-660.46301" y="-64.010429"><tspan stroke-width=".723077" x="-660.46301" y="-64.010429"/></text><text font-size="8.676923" opacity=".8" stroke-width=".723077" x="1183.9366" y="-809.17688"><tspan stroke-width=".723077" x="1183.9366" y="-809.17688"/></text><text font-size="8.676923" opacity=".8" stroke-width=".723077" x="1201.2622" y="-838.63623"><tspan stroke-width=".723077" x="1201.2622" y="-838.63623"/></text><text font-size="8.676923" opacity=".8" stroke-width=".723077" x="122.81961" y="-843.84961"><tspan stroke-width=".723077" x="122.81961" y="-843.84961"/></text><text font-size="8.676923" opacity=".8" stroke-width=".723077" x="1178.9044" y="-1041.4189"><tspan stroke-width=".723077" x="1178.9044" y="-1041.4189"/></text><path d="m40.189162 2.5023882c-.195457 0-.417342 0-.668755.022895l-16.261825 1.5243205h-16.7777435c-2.0736386-.1536989-2.9144511.0381577-2.9144511 1.9165815v36.1201648c-.1302549 2.061733.7292946 2.018234 2.7457134 2.018234h17.1165452l16.228692 1.895366c1.57339 0 1.891498-.600907 1.890106-1.908645h1.383901c1.348817 0 1.585863.04426 1.498746-2.017776v-36.1206227c0-1.8787291-.111649-2.0702804-1.498746-1.9165814h-1.30616c-.054184-1.0748241-.306705-1.5111948-1.436023-1.5350052z" fill-opacity=".666667" fill-rule="evenodd" stroke-width="1.526305"/><path d="m43.05689 43.59144h-11.985346v-40.0552853h11.985346c1.272454-.153699 1.374848.038158 1.374848 1.9164288v36.1206235c.07992 2.061885-.137505 2.018233-1.374848 2.018233z" fill="url(#a)" fill-rule="evenodd" stroke-width="1.526305"/><path d="m40.190032 2.0019639c-.195458-.0041-.418504.00227-.669922.021484l-16.261719 1.525391h-16.7773437c-2.0736516-.1536989-2.9140625.0377445-2.9140626 1.9160157v36.1210944c-.1302472 2.061733.7296598 2.017578 2.7460938 2.017578h17.1132815l16.232422 1.896484c1.95584 0 1.97202-.926396 1.845703-2.988281l.136719-38.2089848c0-1.643888-.08297-2.272101-1.451172-2.3007813z" fill="url(#b)" fill-rule="evenodd"/><path d="m39.657809 45.499932-16.398754-1.91536v-40.0354437l16.261935-1.5247789c2.011341-.153699 2.119814.3998919 2.119814 2.278621l-.136818 38.2089136c.126317 2.061886.109665 2.988048-1.846178 2.988048z" fill-opacity=".039216" fill-rule="evenodd" stroke-width="1.526305"/><path d="m15.315789 32.684315v-8.684211h12.157895s5.210527 0 5.210527-4.342105-5.210527-4.342105-5.210527-4.342105h-12.157895" style="fill:none;stroke:#fff;stroke-width:4.631579;stroke-linecap:round;stroke-linejoin:round;stroke-opacity:.796954"/></svg>