<?xml version="1.0" encoding="UTF-8" standalone="no"?>
<!-- Created with Inkscape (http://www.inkscape.org/) -->

<svg
   xmlns:dc="http://purl.org/dc/elements/1.1/"
   xmlns:cc="http://creativecommons.org/ns#"
   xmlns:rdf="http://www.w3.org/1999/02/22-rdf-syntax-ns#"
   xmlns:svg="http://www.w3.org/2000/svg"
   xmlns="http://www.w3.org/2000/svg"
   xmlns:xlink="http://www.w3.org/1999/xlink"
   xmlns:sodipodi="http://sodipodi.sourceforge.net/DTD/sodipodi-0.dtd"
   xmlns:inkscape="http://www.inkscape.org/namespaces/inkscape"
   width="48px"
   height="48px"
   id="svg2985"
   version="1.1"
   inkscape:version="0.91 r13725"
   sodipodi:docname="plan.svg">
  <defs
     id="defs2987">
    <linearGradient
       inkscape:collect="always"
       id="linearGradient4551">
      <stop
         style="stop-color:#fefffe;stop-opacity:1"
         offset="0"
         id="stop4553" />
      <stop
         style="stop-color:#f1f1f0;stop-opacity:1"
         offset="1"
         id="stop4555" />
    </linearGradient>
    <linearGradient
       inkscape:collect="always"
       id="linearGradient4479">
      <stop
         style="stop-color:#097ada;stop-opacity:1"
         offset="0"
         id="stop4481" />
      <stop
         style="stop-color:#0a99f7;stop-opacity:1"
         offset="1"
         id="stop4483" />
    </linearGradient>
    <linearGradient
       inkscape:collect="always"
       id="linearGradient4469">
      <stop
         style="stop-color:#0c8cdb;stop-opacity:1"
         offset="0"
         id="stop4471" />
      <stop
         style="stop-color:#0977da;stop-opacity:1"
         offset="1"
         id="stop4473" />
    </linearGradient>
    <linearGradient
       inkscape:collect="always"
       xlink:href="#linearGradient4469"
       id="linearGradient4475"
       x1="467.87598"
       y1="139.74503"
       x2="468.52365"
       y2="-52.903351"
       gradientUnits="userSpaceOnUse"
       gradientTransform="matrix(0.99883047,0,0,0.99883047,0.88417087,-0.7178006)" />
    <linearGradient
       inkscape:collect="always"
       xlink:href="#linearGradient4479"
       id="linearGradient4485"
       x1="468.80545"
       y1="121.34766"
       x2="469.16412"
       y2="38.70599"
       gradientUnits="userSpaceOnUse" />
    <linearGradient
       inkscape:collect="always"
       xlink:href="#linearGradient4551"
       id="linearGradient4557"
       x1="470.9686"
       y1="81.193069"
       x2="471.3154"
       y2="1.28242"
       gradientUnits="userSpaceOnUse"
       gradientTransform="translate(-1.9214726,-4.3204472)" />
    <linearGradient
       inkscape:collect="always"
       xlink:href="#linearGradient4551"
       id="linearGradient4183"
       gradientUnits="userSpaceOnUse"
       gradientTransform="translate(-1.9214726,-4.3204472)"
       x1="470.9686"
       y1="81.193069"
       x2="471.3154"
       y2="1.28242" />
    <linearGradient
       inkscape:collect="always"
       xlink:href="#linearGradient4551"
       id="linearGradient4185"
       gradientUnits="userSpaceOnUse"
       gradientTransform="translate(-1.9214726,-4.3204472)"
       x1="470.9686"
       y1="81.193069"
       x2="471.3154"
       y2="1.28242" />
  </defs>
  <sodipodi:namedview
     id="base"
     pagecolor="#5a5a5a"
     bordercolor="#f0f0f0"
     borderopacity="1"
     inkscape:pageopacity="0"
     inkscape:pageshadow="2"
     inkscape:zoom="3.0617475"
     inkscape:cx="23.319381"
     inkscape:cy="12.926081"
     inkscape:current-layer="g4627"
     showgrid="false"
     inkscape:grid-bbox="true"
     inkscape:document-units="px"
     inkscape:snap-global="true"
     inkscape:window-width="1366"
     inkscape:window-height="642"
     inkscape:window-x="0"
     inkscape:window-y="33"
     inkscape:window-maximized="0"
     inkscape:snap-bbox="true"
     inkscape:bbox-nodes="true"
     inkscape:object-nodes="true"
     inkscape:snap-nodes="true"
     inkscape:snap-others="false"
     inkscape:snap-bbox-edge-midpoints="true"
     showguides="true"
     inkscape:showpageshadow="false"
     showborder="false">
    <inkscape:grid
       type="xygrid"
       id="grid2993" />
  </sodipodi:namedview>
  <metadata
     id="metadata2990">
    <rdf:RDF>
      <cc:Work
         rdf:about="">
        <dc:format>image/svg+xml</dc:format>
        <dc:type
           rdf:resource="http://purl.org/dc/dcmitype/StillImage" />
        <dc:title></dc:title>
      </cc:Work>
    </rdf:RDF>
  </metadata>
  <g
     id="layer1"
     inkscape:label="Layer 1"
     inkscape:groupmode="layer">
    <g
       id="g4154"
       transform="matrix(1.073476,-0.00305812,0.00305812,1.073476,-1.8214625,-1.6074449)">
      <g
         transform="matrix(0.86413263,-0.00128877,0.00128877,0.86413263,8.0000845,-12.604254)"
         id="g4397">
        <g
           id="g4627"
           transform="matrix(0.24545625,0,0,0.24545625,-96.387322,32.480944)">
          <g
             id="g4168"
             transform="matrix(1.0641747,0,0,1.0641747,-31.118045,-2.7902817)">
            <rect
               style="opacity:1;fill:url(#linearGradient4475);fill-opacity:1;stroke:none;stroke-width:0.5;stroke-linecap:round;stroke-linejoin:round;stroke-miterlimit:4;stroke-dasharray:none;stroke-dashoffset:0;stroke-opacity:1"
               id="rect4467"
               width="184.12398"
               height="183.90648"
               x="376.79791"
               y="-53.55928"
               transform="matrix(0.99999058,0.00434018,-0.00434018,0.99999058,0,0)"
               ry="11.3587" />
            <path
               style="opacity:1;fill:#075fad;fill-opacity:1;fill-rule:evenodd;stroke:none;stroke-width:1.07801557px;stroke-linecap:butt;stroke-linejoin:miter;stroke-opacity:1"
               d="m 377.99004,39.711723 183.00252,0.794269 4.69943,70.610628 c 0,0 2.18806,11.54391 -10.98127,11.52293 l -170.4585,-0.26137 c -14.5271,0.19388 -12.26442,-12.18913 -12.26442,-12.18913 z"
               id="path4477-2"
               inkscape:connector-curvature="0"
               sodipodi:nodetypes="ccccccc" />
            <path
               style="opacity:1;fill:url(#linearGradient4485);fill-opacity:1;fill-rule:evenodd;stroke:none;stroke-width:1.07801557px;stroke-linecap:butt;stroke-linejoin:miter;stroke-opacity:1"
               d="m 376.75658,38.304923 184.24209,0.799648 4.69943,70.610639 c 0,0 2.18806,11.54391 -10.98127,11.52293 l -170.45851,-0.26137 c -14.5271,0.19388 -12.26442,-12.18913 -12.26442,-12.18913 z"
               id="path4477"
               inkscape:connector-curvature="0"
               sodipodi:nodetypes="ccccccc" />
            <g
               id="text4367-9-0"
               style="font-style:normal;font-weight:normal;font-size:111.29611206px;line-height:125%;font-family:sans-serif;letter-spacing:0px;word-spacing:0px;fill:url(#linearGradient4557);fill-opacity:1;stroke:none;stroke-width:1px;stroke-linecap:butt;stroke-linejoin:miter;stroke-opacity:1">
              <path
                 id="path4176"
                 style="font-style:normal;font-variant:normal;font-weight:normal;font-stretch:normal;font-family:'Product Sans';-inkscape-font-specification:'Product Sans';fill:url(#linearGradient4183);fill-opacity:1"
                 d="m 463.01357,75.106071 -48.5251,0 0,-10.239242 q 21.81403,-21.925334 27.93532,-28.603101 5.45351,-6.121286 7.34554,-9.237577 1.89204,-3.227587 1.89204,-7.902024 0,-4.785733 -3.78407,-8.458504 -3.78407,-3.6727721 -10.12795,-3.6727721 -5.78739,0 -9.34887,3.4501791 -3.56148,3.338884 -4.56314,7.234248 l -9.34887,-3.784068 q 1.89203,-6.0099902 7.90202,-11.3522036 6.00999,-5.3422134 15.58146,-5.3422134 10.57313,0 17.36219,6.4551745 6.78906,6.4551745 6.78906,15.4701595 0,11.129611 -12.13127,23.817368 l -22.25923,22.370519 35.28087,0 0,9.794057 z"
                 inkscape:connector-curvature="0" />
              <path
                 id="path4178"
                 style="font-style:normal;font-variant:normal;font-weight:normal;font-stretch:normal;font-family:'Product Sans';-inkscape-font-specification:'Product Sans';fill:url(#linearGradient4185);fill-opacity:1"
                 d="m 496.79542,76.886809 q -7.67943,0 -14.91368,-4.785733 -7.23425,-4.785732 -10.01665,-14.245902 l 9.34887,-3.895364 q 1.78074,6.232582 5.8987,9.682762 4.11795,3.450179 9.68276,3.450179 6.23258,0 10.68442,-3.895364 4.56315,-3.895363 4.56315,-9.682761 0,-5.676102 -4.67444,-9.571466 -4.56314,-3.895364 -11.01832,-3.895364 l -6.56647,0 0,-9.571465 5.7874,0 q 6.00999,0 9.90535,-3.338884 4.00666,-3.338883 4.00666,-8.903689 0,-5.230917 -3.89536,-8.2359121 -3.78407,-3.004995 -9.46017,-3.004995 -9.79406,0 -13.24424,9.9053541 l -9.46017,-4.00666 q 2.22593,-6.1212863 7.90203,-10.9070192 5.6761,-4.7857328 14.80238,-4.7857328 10.23924,0 17.02831,6.0099901 6.78906,5.8986939 6.78906,15.0249749 0,11.018315 -10.23924,16.360529 l 0,0.445184 q 5.5648,2.337218 9.12628,7.122951 3.67277,4.785733 3.67277,11.352204 0,10.127946 -7.45684,16.805713 -7.45684,6.56647 -18.25256,6.56647 z"
                 inkscape:connector-curvature="0" />
            </g>
            <g
               id="text4559"
               style="font-style:normal;font-weight:normal;font-size:17.5177536px;line-height:125%;font-family:sans-serif;letter-spacing:0px;word-spacing:0px;fill:#000000;fill-opacity:1;stroke:none;stroke-width:1px;stroke-linecap:butt;stroke-linejoin:miter;stroke-opacity:1"
               transform="matrix(0.99999058,0.00434018,-0.00434018,0.99999058,0,0)">
              <path
                 id="path4163"
                 style="font-style:normal;font-variant:normal;font-weight:normal;font-stretch:normal;font-family:'SFNS Display';-inkscape-font-specification:'SFNS Display';fill:#ffffff;fill-opacity:1"
                 d="m 452.68377,95.697441 -1.43701,0 0,-9.511593 -0.0599,0 -3.93465,9.426057 -1.30015,0 -3.93465,-9.426057 -0.0599,0 0,9.511593 -1.437,0 0,-12.342831 1.7877,0 4.25969,10.298523 0.0684,0 4.25969,-10.298523 1.7877,0 0,12.342831 z"
                 inkscape:connector-curvature="0" />
              <path
                 id="path4165"
                 style="font-style:normal;font-variant:normal;font-weight:normal;font-stretch:normal;font-family:'SFNS Display';-inkscape-font-specification:'SFNS Display';fill:#ffffff;fill-opacity:1"
                 d="m 458.7055,95.782977 q -0.97511,0 -1.76204,-0.33359 -0.77838,-0.33359 -1.33436,-0.940895 -0.55599,-0.615859 -0.85536,-1.479771 -0.29938,-0.872466 -0.29938,-1.941665 0,-1.077753 0.29938,-1.941665 0.29937,-0.872467 0.85536,-1.479771 0.55598,-0.615859 1.33436,-0.940895 0.78693,-0.33359 1.76204,-0.33359 0.9751,0 1.75348,0.33359 0.78693,0.325036 1.34292,0.940895 0.55598,0.607304 0.85535,1.479771 0.29938,0.863912 0.29938,1.941665 0,1.069199 -0.29938,1.941665 -0.29937,0.863912 -0.85535,1.479771 -0.55599,0.607305 -1.34292,0.940895 -0.77838,0.33359 -1.75348,0.33359 z m 0,-1.325807 q 0.64151,0 1.14618,-0.230946 0.51321,-0.230947 0.86391,-0.658627 0.35925,-0.436233 0.53888,-1.060645 0.18817,-0.624412 0.18817,-1.419896 0,-0.795484 -0.18817,-1.419896 -0.17963,-0.624412 -0.53888,-1.060646 -0.3507,-0.436233 -0.86391,-0.658626 -0.50467,-0.230947 -1.14618,-0.230947 -0.64152,0 -1.15474,0.230947 -0.50466,0.230947 -0.86391,0.66718 -0.3507,0.42768 -0.53888,1.052092 -0.17962,0.624412 -0.17962,1.419896 0,0.795484 0.18818,1.419896 0.18817,0.624412 0.53887,1.060645 0.3507,0.42768 0.85536,0.658627 0.51322,0.230946 1.15474,0.230946 z"
                 inkscape:connector-curvature="0" />
              <path
                 id="path4167"
                 style="font-style:normal;font-variant:normal;font-weight:normal;font-stretch:normal;font-family:'SFNS Display';-inkscape-font-specification:'SFNS Display';fill:#ffffff;fill-opacity:1"
                 d="m 464.52194,86.47667 1.40279,0 0,1.496879 0.0342,0 q 0.88102,-1.582414 3.01086,-1.582414 0.76127,0 1.36858,0.2395 0.6073,0.230947 1.03498,0.675734 0.42768,0.436233 0.65008,1.069199 0.23094,0.624412 0.23094,1.411342 l 0,5.910531 -1.48832,0 0,-5.653923 q 0,-1.137628 -0.57309,-1.727826 -0.57309,-0.598751 -1.66795,-0.598751 -0.56454,0 -1.03499,0.188179 -0.46189,0.188179 -0.79548,0.530323 -0.32504,0.342143 -0.50466,0.829698 -0.17963,0.487555 -0.17963,1.077752 l 0,5.354548 -1.48832,0 0,-9.220771 z"
                 inkscape:connector-curvature="0" />
              <path
                 id="path4169"
                 style="font-style:normal;font-variant:normal;font-weight:normal;font-stretch:normal;font-family:'SFNS Display';-inkscape-font-specification:'SFNS Display';fill:#ffffff;fill-opacity:1"
                 d="m 477.73723,95.782977 q -0.87246,0 -1.59952,-0.33359 -0.7185,-0.342144 -1.24882,-0.958002 -0.52177,-0.615859 -0.81259,-1.479771 -0.29082,-0.872467 -0.29082,-1.924558 0,-1.052092 0.29082,-1.916005 0.29082,-0.872466 0.80404,-1.488324 0.52176,-0.615859 1.24027,-0.949449 0.7185,-0.342143 1.58241,-0.342143 0.99222,0 1.75349,0.410572 0.76127,0.410572 1.18895,1.171842 l 0.0342,0 0,-5.157815 1.48832,0 0,12.881707 -1.41989,0 0,-1.556753 -0.0257,0 q -0.45334,0.804037 -1.21461,1.223163 -0.76127,0.419126 -1.7706,0.419126 z m 0.26517,-8.066036 q -0.60731,0 -1.10342,0.239501 -0.49611,0.2395 -0.85536,0.684287 -0.35069,0.436233 -0.54743,1.060645 -0.18818,0.624412 -0.18818,1.385682 0,0.769823 0.18818,1.394235 0.19674,0.615859 0.54743,1.060645 0.35925,0.436233 0.85536,0.675734 0.49611,0.2395 1.10342,0.2395 0.59875,0 1.09486,-0.2395 0.4961,-0.248054 0.8468,-0.692841 0.3507,-0.444787 0.54743,-1.060645 0.19673,-0.624412 0.19673,-1.377128 0,-0.752716 -0.19673,-1.368575 -0.19673,-0.624412 -0.54743,-1.069199 -0.3507,-0.444786 -0.8468,-0.684287 -0.49611,-0.248054 -1.09486,-0.248054 z"
                 inkscape:connector-curvature="0" />
              <path
                 id="path4171"
                 style="font-style:normal;font-variant:normal;font-weight:normal;font-stretch:normal;font-family:'SFNS Display';-inkscape-font-specification:'SFNS Display';fill:#ffffff;fill-opacity:1"
                 d="m 487.27449,94.491385 q 0.56453,0 1.04353,-0.171072 0.47901,-0.171072 0.82115,-0.479001 0.3507,-0.307929 0.54743,-0.727055 0.19673,-0.42768 0.19673,-0.923788 l 0,-0.744162 -2.41211,0.153964 q -1.04354,0.06843 -1.57386,0.444787 -0.53032,0.367804 -0.53032,1.034984 0,0.325037 0.1283,0.581645 0.13686,0.256607 0.38491,0.444786 0.25661,0.188179 0.60731,0.290822 0.35069,0.09409 0.78693,0.09409 z m -0.31649,1.291592 q -0.70139,0 -1.27448,-0.188179 -0.57309,-0.196733 -0.98366,-0.54743 -0.41058,-0.359251 -0.63297,-0.855359 -0.22239,-0.504662 -0.22239,-1.12052 0,-1.197503 0.88102,-1.873237 0.88102,-0.675733 2.57463,-0.778376 l 2.58318,-0.153965 0,-0.769823 q 0,-0.863913 -0.54743,-1.317253 -0.53887,-0.461894 -1.5653,-0.461894 -0.40202,0 -0.74417,0.102643 -0.34214,0.09409 -0.61586,0.282269 -0.26516,0.179625 -0.44478,0.444786 -0.17107,0.265162 -0.2395,0.590198 l -1.42845,0 q 0.0171,-0.581644 0.29082,-1.086306 0.27371,-0.504662 0.74416,-0.872466 0.47045,-0.367805 1.09486,-0.573091 0.63297,-0.213839 1.36002,-0.213839 0.82115,0 1.47977,0.213839 0.65863,0.205286 1.12908,0.598752 0.47044,0.384911 0.7185,0.940895 0.25661,0.547429 0.25661,1.223163 l 0,6.329657 -1.41135,0 0,-1.599521 -0.0342,0 q -0.19673,0.384911 -0.50466,0.701394 -0.30793,0.307929 -0.69284,0.530323 -0.38491,0.213839 -0.83825,0.33359 -0.44479,0.11975 -0.93235,0.11975 z"
                 inkscape:connector-curvature="0" />
              <path
                 id="path4173"
                 style="font-style:normal;font-variant:normal;font-weight:normal;font-stretch:normal;font-family:'SFNS Display';-inkscape-font-specification:'SFNS Display';fill:#ffffff;fill-opacity:1"
                 d="m 494.15157,99.041895 q -0.14541,0 -0.33359,-0.01711 -0.17962,-0.01711 -0.31648,-0.04277 l 0,-1.257378 q 0.1283,0.02566 0.29082,0.03421 0.17108,0.01711 0.31649,0.01711 0.31648,0 0.56453,-0.08554 0.25661,-0.07698 0.4619,-0.256608 0.20528,-0.179625 0.35925,-0.470447 0.16252,-0.290823 0.30793,-0.709949 l 0.17962,-0.547429 -3.41288,-9.229325 1.58241,0 2.58319,7.706786 0.0342,0 2.58319,-7.706786 1.5653,0 -3.60961,9.785308 q -0.29938,0.804038 -0.59875,1.33436 -0.29938,0.538876 -0.66718,0.855359 -0.35925,0.325037 -0.82115,0.453341 -0.45334,0.136857 -1.0692,0.136857 z"
                 inkscape:connector-curvature="0" />
            </g>
          </g>
        </g>
      </g>
    </g>
  </g>
</svg>
