<svg viewBox="0 0 48 48" xmlns="http://www.w3.org/2000/svg" xmlns:xlink="http://www.w3.org/1999/xlink"><linearGradient id="a" gradientUnits="userSpaceOnUse" x1="399.57144" x2="399.57144" y1="545.79797" y2="517.79797"><stop offset="0" stop-color="#3889e9"/><stop offset="1" stop-color="#5ea5fb"/></linearGradient><linearGradient id="b" gradientUnits="userSpaceOnUse" x1="400.55615" x2="400.55615" y1="546.92657" y2="516.4751"><stop offset="0" stop-color="#2e3e46"/><stop offset="1" stop-color="#47606a"/></linearGradient><linearGradient id="c" gradientUnits="userSpaceOnUse" x1="20.899999" x2="21.646321" y1="38.013559" y2="9.335592"><stop offset="0" stop-color="#ff9300"/><stop offset="1" stop-color="#ffd702"/></linearGradient><g transform="matrix(1.5511965 0 0 1.552208 -597.389819 -801.619437)"><circle cx="400.57138" cy="531.79791" fill="url(#a)" r="0"/><g transform="matrix(1.0508504 0 0 1.0508504 -20.353166 -26.940048)"><circle cx="400.57138" cy="531.79791" fill="url(#b)" r="13.999958" stroke="url(#b)" stroke-width="1.427415"/><circle cx="400.57138" cy="531.79791" fill="url(#a)" r="0" transform="matrix(1.55822993102 0 0 1.55822993102 -264.298285246431 -296.910724934234)"/></g></g><path d="m35.059936 16.852858c1.149351-1.538471 1.83728-3.135788 1.840623-4.276949-.0018-.369537-.07551-.658327-.216549-.873459-.01479-.02634-.05548-.09517-.127149-.163016-.07131-.0707-.13533-.108519-.149199-.116167-.225649-.150616-.515813-.223269-.885446-.223269-1.138318.0017-2.736087.689399-4.275018 1.840623-1.243919.930834-2.487929 2.241731-4.210008 4.057014-.29213.307866-.599541.631561-.924658.971006l-3.335586-.999698.01002-.0095c.138631-.14009.217554-.332752.215632-.522079.0019-.199845-.07887-.392515-.218011-.531144l-.602377-.603332c-.139134-.140099-.33134-.22039-.53018-.22039-.200808 0-.38821.07744-.528304.218972l-.901187.901687-.477152-.14247c.102805-.130535.159676-.29355.157755-.454186.0019-.202732-.07649-.391552-.217508-.531642l-.60526-.605267c-.138172-.138629-.329417-.21801-.530179-.21801-.199848 0-.386792.07796-.525422.218973l-.827068.82661-3.391541-1.015929c-.07599-.02249-.156337-.03439-.242397-.03439-.240932.0026-.464204.09228-.627221.253877l-1.192355 1.192814c-.135336.135286-.211331.318392-.209867.491925-.0043.255759.137212.491935.363824.613361l7.132082 3.984361c.0349.0196.135793.0942.173081.131488l2.033286 2.03283c-1.901839 2.003638-3.596191 3.944232-4.916608 5.632314-.123349.156838-.240018.309791-.354765.46137l-5.517568-.50107c-.02677-.0035-.05692-.0061-.09516-.0061-.25292.0053-.500075.10523-.683633.282569l-.55603.555522c-.1372118.134376-.2146713.316012-.2127498.491479-.00429.267738.1577548.51535.4011128.623878l3.881549 1.843502c.03344.01671.120466.0784.148695.106603l.322235.319863c-.100885.283977-.152036.530172-.154918.74631-.000962.289202.09228.536857.270626.715203l.01386.01199.0038.0026c.183101.177383.420236.267746.713784.267746.211331-.0035.455146-.05355.740092-.153915l.326994.326539c.02535.02678.08606.111862.101845.145812l1.839662 3.872998c.112368.247148.354719.407285.618619.407285h.0038c.182644 0 .357144-.07315.490512-.206985l.56939-.571307c.168736-.177847.268201-.423079.271999-.681717 0-.0315-.0014-.05591-.0024-.06939l-.502453-5.537647c.151074-.113787.304071-.230916.461322-.353305 1.690508-1.322386 3.631558-3.018203 5.631354-4.917155l2.03475 2.036671c.03299.0315.109943.132451.132454.174496l3.976716 7.119186c.121427.229945.355222.37196.614364.37196.185023 0 .360941-.07315.495774-.208901l1.200911-1.200041c.155879-.162972.243358-.384369.245737-.626258 0-.08129-.01144-.160137-.03248-.23426l-1.015935-3.392499.826564-.828028c.139134-.138218.218057-.33038.218057-.527802 0-.198427-.077-.384867-.217049-.526882l-.606221-.605721c-.13863-.139128-.330379-.218466-.527801-.218466-.167317 0-.330791.05591-.458486.156838l-.142021-.47523.902148-.902151c.13863-.139127.217553-.331333.217553-.529262 0-.199346-.077-.386241-.217553-.52634l-.603384-.603376c-.139095-.141061-.332216-.220898-.530646-.220898-.199343 0-.39251.08076-.528761.219935l-.0062.0061-.999235-3.335124c.345203-.328919.672653-.642088.985829-.937056 1.808825-1.716405 3.114922-2.955612 4.043328-4.196692z" fill="url(#c)"/></svg>