<svg height="48" width="48" xmlns="http://www.w3.org/2000/svg" xmlns:xlink="http://www.w3.org/1999/xlink"><linearGradient gradientUnits="userSpaceOnUse" x1="390.9964" x2="390.20126" y1="546.81189" y2="510.45325"><stop offset="0" stop-color="#23262c"/><stop offset="1" stop-color="#525b63"/></linearGradient><linearGradient id="a" gradientUnits="userSpaceOnUse" x1="341.06265" x2="340.27582" y1="553.66864" y2="510.17819"><stop offset="0" stop-color="#383c46"/><stop offset="1" stop-color="#636d77"/></linearGradient><g transform="matrix(1.023376 0 0 1.023376 -.513312 -.648005)"><path d="m358.77104 516.99793c-4.8234-3.92542-11.22786-6.08712-18.03349-6.08712-6.80575 0-13.21022 2.16185-18.03349 6.08712-4.86535 3.9595-7.54482 9.23646-7.54482 14.859 0 5.36635 2.44243 10.41704 6.89488 14.30854-.0803.18057-.144.37054-.18468.57028l-1.46301 7.19633c-.17395.85525.0599 1.36523.28634 1.64263.26189.3204.65007.49697 1.09314.49697.33452 0 .69405-.0987 1.06868-.29345l8.50944-4.42073c2.94612.94828 6.11338 1.44552 9.37335 1.44552 6.80578 0 13.21008-2.16181 18.03351-6.08708 4.8652-3.95938 7.54467-9.23635 7.54467-14.85888 0-5.62267-2.67934-10.89963-7.54454-14.85913z" fill="url(#a)" transform="matrix(.916867762746 0 0 .916867762746 -288.371770112966 -465.01707091912)"/><path d="m14.453378 15.715908 2.590908-2.590908 6.909092 6.909091 6.909092-6.909091 2.590908 2.590908-6.909091 6.909092 6.909091 6.909092-2.590908 2.590908-6.909092-6.909091-6.909092 6.909091-2.590908-2.590908 6.909091-6.909092z" fill="#fff" fill-opacity=".846774"/></g></svg>