<svg height="48" width="48" xmlns="http://www.w3.org/2000/svg" xmlns:xlink="http://www.w3.org/1999/xlink"><linearGradient id="a" gradientTransform="matrix(.9997764 0 0 .9863347 -.832882 5.995869)" gradientUnits="userSpaceOnUse" x1="-989.66583" x2="-1003.6364" y1="433.28394" y2="317.35452"><stop offset="0" stop-color="#e7f0f4"/><stop offset="1" stop-color="#f4faff"/></linearGradient><linearGradient id="b" gradientTransform="matrix(.99833895 0 0 .98513314 -2.169195 6.701717)" gradientUnits="userSpaceOnUse" x1="-1092.9117" x2="-1060.2551" y1="203.09911" y2="104.85291"><stop offset="0" stop-color="#016ed4"/><stop offset="1" stop-color="#00b1ff"/></linearGradient><linearGradient id="c" gradientUnits="userSpaceOnUse" x1="336.40295" x2="337.8075" y1="552.20453" y2="547.56415"><stop offset="0" stop-color="#0173dd"/><stop offset="1" stop-color="#00b1ff"/></linearGradient><g transform="translate(-384.57143 -499.798)"><text x="300.29187" y="516.21832"><tspan x="300.29187" y="516.21832"/></text><rect fill="url(#b)" height="112.93296" ry="2.756285" transform="matrix(.33797011 -.11214271 .10939332 .33887001 744.854826 346.340729)" width="89.616432" x="-1100.9037" y="117.57415"/><rect fill="url(#a)" height="121.23898" ry="2.959004" transform="matrix(.35327802 -.0446589 .04907362 .35269187 744.854826 346.340729)" width="99.802742" x="-1046.2986" y="317.97363"/><path d="m336.57231 547.47633c-.345-.525-1.2225.0525-.75.615.4575.5325.915 1.11 1.3875 1.7025l-1.5075 1.9125c-.4275.51.42 1.125.8025.5775l1.3575-1.8075 1.38 1.77c.405.555 1.23.015.8175-.5475l-1.53-1.905c.45-.5925.9225-1.17 1.3725-1.7025.4275-.4875-.33-1.14-.72-.63l-1.305 1.635z" fill="url(#c)" transform="matrix(4.49557985 -.62911187 .62911187 4.49557985 -1453.070504 -1734.657684)"/></g></svg>