<svg height="48" width="48" xmlns="http://www.w3.org/2000/svg" xmlns:xlink="http://www.w3.org/1999/xlink"><linearGradient id="a" gradientTransform="matrix(1.5511965 0 0 1.552208 -224.40622 -295.6789)" gradientUnits="userSpaceOnUse" x1="399.57144" x2="399.57144" y1="545.79797" y2="517.79797"><stop offset="0" stop-color="#3889e9"/><stop offset="1" stop-color="#5ea5fb"/></linearGradient><linearGradient id="b" gradientTransform="matrix(1.0073775 0 0 .87927703 -135.9794 111.58073)" gradientUnits="userSpaceOnUse" x1="466.37592" x2="466.48874" y1="542.6795" y2="502.37723"><stop offset="0" stop-color="#7737c5"/><stop offset="1" stop-color="#9371ff"/></linearGradient><linearGradient id="c" gradientTransform="matrix(.09396373 -.01074569 -.00879315 -.07712333 378.43684 555.75355)" gradientUnits="userSpaceOnUse" x1="258.65744" x2="257.50476" y1="1.707616" y2="564.00525"><stop offset="0" stop-color="#e9e9e9"/><stop offset="1" stop-color="#f9f9f9"/></linearGradient><g transform="translate(-372.99919 -505.94054)"><circle cx="396.95871" cy="529.7821" fill="url(#a)" r="0"/><g fill="#fff"><text fill-opacity=".898477" opacity=".8" x="1185.9926" y="506.81046"><tspan fill="#fff" fill-opacity=".898477" x="1185.9926" y="506.81046"/></text><text fill-opacity=".898477" opacity=".8" x="1209.9535" y="466.06873"><tspan fill="#fff" fill-opacity=".898477" x="1209.9535" y="466.06873"/></text><text fill-opacity=".898477" opacity=".8" x="-260.60486" y="435.9906"><tspan fill="#fff" fill-opacity=".898477" x="-260.60486" y="435.9906"/></text><text fill-opacity=".898477" opacity=".8" x="-2084.2908" y="1181.5441"><tspan fill="#fff" fill-opacity=".898477" x="-2084.2908" y="1181.5441"/></text><text fill-opacity=".898477" opacity=".8" x="-146.11377" y="50.669624"><tspan fill="#fff" fill-opacity=".898477" x="-146.11377" y="50.669624"/></text><text fill-opacity=".898477" opacity=".8" x="661.48834" y="-362.80051"><tspan fill="#fff" fill-opacity=".898477" x="661.48834" y="-362.80051"/></text><text fill-opacity=".898477" opacity=".8" x="685.44928" y="-403.54221"><tspan fill="#fff" fill-opacity=".898477" x="685.44928" y="-403.54221"/></text><text fill-opacity=".898477" opacity=".8" x="-806.01385" y="-410.75211"><tspan fill="#fff" fill-opacity=".898477" x="-806.01385" y="-410.75211"/></text><text fill-opacity=".898477" opacity=".8" x="654.52887" y="-683.98627"><tspan fill="#fff" fill-opacity=".898477" x="654.52887" y="-683.98627"/></text><text fill-opacity=".898477" opacity=".8" x="2140.6523" y="-57.294884"><tspan fill="#fff" fill-opacity=".898477" x="2140.6523" y="-57.294884"/></text><text fill-opacity=".898477" opacity=".8" x="2164.6133" y="-98.036644"><tspan fill="#fff" fill-opacity=".898477" x="2164.6133" y="-98.036644"/></text><text fill-opacity=".898477" opacity=".8" x="673.15002" y="-105.24654"><tspan fill="#fff" fill-opacity=".898477" x="673.15002" y="-105.24654"/></text><text fill-opacity=".898477" opacity=".8" x="2133.6929" y="-378.48056"><tspan fill="#fff" fill-opacity=".898477" x="2133.6929" y="-378.48056"/></text><text fill-opacity=".898477" opacity=".8" x="-264.66626" y="-153.33786"><tspan fill="#fff" fill-opacity=".898477" x="-264.66626" y="-153.33786"/></text><text fill-opacity=".898477" opacity=".8" x="-2088.3518" y="592.2157"><tspan fill="#fff" fill-opacity=".898477" x="-2088.3518" y="592.2157"/></text><text fill-opacity=".898477" opacity=".8" x="-373.5965" y="685.08783"><tspan fill="#fff" fill-opacity=".898477" x="-373.5965" y="685.08783"/></text><text fill-opacity=".898477" opacity=".8" x="735.4278" y="505.9057"><tspan fill="#fff" fill-opacity=".898477" x="735.4278" y="505.9057"/></text><text fill-opacity=".898477" opacity=".8" x="759.38873" y="465.16397"><tspan fill="#fff" fill-opacity=".898477" x="759.38873" y="465.16397"/></text><text fill-opacity=".898477" opacity=".8" x="-732.0744" y="457.95401"><tspan fill="#fff" fill-opacity=".898477" x="-732.0744" y="457.95401"/></text><text fill-opacity=".898477" opacity=".8" x="728.46832" y="184.71994"><tspan fill="#fff" fill-opacity=".898477" x="728.46832" y="184.71994"/></text><text fill-opacity=".898477" opacity=".8" x="-299.26624" y="455.23978"><tspan fill="#fff" fill-opacity=".898477" x="-299.26624" y="455.23978"/></text><text fill-opacity=".898477" opacity=".8" x="-2122.9521" y="1200.7932"><tspan fill="#fff" fill-opacity=".898477" x="-2122.9521" y="1200.7932"/></text><text fill-opacity=".898477" opacity=".8" x="-148.17319" y="-406.29074"><tspan fill="#fff" fill-opacity=".898477" x="-148.17319" y="-406.29074"/></text><text fill-opacity=".898477" opacity=".8" x="659.42896" y="-819.76093"><tspan fill="#fff" fill-opacity=".898477" x="659.42896" y="-819.76093"/></text><text fill-opacity=".898477" opacity=".8" x="683.38983" y="-860.50262"><tspan fill="#fff" fill-opacity=".898477" x="683.38983" y="-860.50262"/></text><text fill-opacity=".898477" opacity=".8" x="-808.0733" y="-867.71259"><tspan fill="#fff" fill-opacity=".898477" x="-808.0733" y="-867.71259"/></text><text fill-opacity=".898477" opacity=".8" x="652.46942" y="-1140.9468"><tspan fill="#fff" fill-opacity=".898477" x="652.46942" y="-1140.9468"/></text><text fill-opacity=".898477" opacity=".8" x="2138.5928" y="-514.25543"><tspan fill="#fff" fill-opacity=".898477" x="2138.5928" y="-514.25543"/></text><text fill-opacity=".898477" opacity=".8" x="2162.5537" y="-554.99701"><tspan fill="#fff" fill-opacity=".898477" x="2162.5537" y="-554.99701"/></text><text fill-opacity=".898477" opacity=".8" x="671.09058" y="-562.20697"><tspan fill="#fff" fill-opacity=".898477" x="671.09058" y="-562.20697"/></text><text fill-opacity=".898477" opacity=".8" x="2131.6333" y="-835.4411"><tspan fill="#fff" fill-opacity=".898477" x="2131.6333" y="-835.4411"/></text><text fill-opacity=".898477" opacity=".8" x="-266.72571" y="-610.29828"><tspan fill="#fff" fill-opacity=".898477" x="-266.72571" y="-610.29828"/></text><text fill-opacity=".898477" opacity=".8" x="-2090.4114" y="135.25522"><tspan fill="#fff" fill-opacity=".898477" x="-2090.4114" y="135.25522"/></text><text fill-opacity=".898477" opacity=".8" x="-375.65594" y="228.12738"><tspan fill="#fff" fill-opacity=".898477" x="-375.65594" y="228.12738"/></text><text fill-opacity=".898477" opacity=".8" x="464.35858" y="469.04156"><tspan fill="#fff" fill-opacity=".898477" x="464.35858" y="469.04156"/></text><text fill-opacity=".898477" opacity=".8" x="488.31952" y="428.29984"><tspan fill="#fff" fill-opacity=".898477" x="488.31952" y="428.29984"/></text><text fill-opacity=".898477" opacity=".8" x="-781.49713" y="234.27121"><tspan fill="#fff" fill-opacity=".898477" x="-781.49713" y="234.27121"/></text><text fill-opacity=".898477" opacity=".8" x="26.104883" y="-179.19894"><tspan fill="#fff" fill-opacity=".898477" x="26.104883" y="-179.19894"/></text><text fill-opacity=".898477" opacity=".8" x="50.065819" y="-219.94064"><tspan fill="#fff" fill-opacity=".898477" x="50.065819" y="-219.94064"/></text><text fill-opacity=".898477" opacity=".8" x="-1441.3973" y="-227.15054"><tspan fill="#fff" fill-opacity=".898477" x="-1441.3973" y="-227.15054"/></text><text fill-opacity=".898477" opacity=".8" x="19.145441" y="-500.38467"><tspan fill="#fff" fill-opacity=".898477" x="19.145441" y="-500.38467"/></text><text fill-opacity=".898477" opacity=".8" x="1505.2688" y="126.30671"><tspan fill="#fff" fill-opacity=".898477" x="1505.2688" y="126.30671"/></text><text fill-opacity=".898477" opacity=".8" x="1529.2296" y="85.56498"><tspan fill="#fff" fill-opacity=".898477" x="1529.2296" y="85.56498"/></text><text fill-opacity=".898477" opacity=".8" x="37.766563" y="78.355019"><tspan fill="#fff" fill-opacity=".898477" x="37.766563" y="78.355019"/></text><text fill-opacity=".898477" opacity=".8" x="1498.3093" y="-194.87906"><tspan fill="#fff" fill-opacity=".898477" x="1498.3093" y="-194.87906"/></text><text fill-opacity=".898477" opacity=".8" x="-900.04974" y="30.263741"><tspan fill="#fff" fill-opacity=".898477" x="-900.04974" y="30.263741"/></text><text fill-opacity=".898477" opacity=".8" x="-2723.7354" y="775.81732"><tspan fill="#fff" fill-opacity=".898477" x="-2723.7354" y="775.81732"/></text><text fill-opacity=".898477" opacity=".8" transform="matrix(.90475 0 0 .90475 -407.98371 -180.29216)" x="-664.2738" y="1159.4154"><tspan fill="#fff" fill-opacity=".898477" x="-664.2738" y="1159.4154"/></text><text fill-opacity=".898477" opacity=".8" x="1185.9926" y="514.0484"><tspan fill="#fff" fill-opacity=".898477" x="1185.9926" y="514.0484"/></text><text fill-opacity=".898477" opacity=".8" x="1209.9535" y="473.30673"><tspan fill="#fff" fill-opacity=".898477" x="1209.9535" y="473.30673"/></text><text fill-opacity=".898477" opacity=".8" x="-260.60486" y="443.22858"><tspan fill="#fff" fill-opacity=".898477" x="-260.60486" y="443.22858"/></text><text fill-opacity=".898477" opacity=".8" x="-2084.2908" y="1188.782"><tspan fill="#fff" fill-opacity=".898477" x="-2084.2908" y="1188.782"/></text><text fill-opacity=".898477" opacity=".8" x="-146.11377" y="57.907631"><tspan fill="#fff" fill-opacity=".898477" x="-146.11377" y="57.907631"/></text><text fill-opacity=".898477" opacity=".8" x="661.48834" y="-355.56247"><tspan fill="#fff" fill-opacity=".898477" x="661.48834" y="-355.56247"/></text><text fill-opacity=".898477" opacity=".8" x="685.44928" y="-396.30423"><tspan fill="#fff" fill-opacity=".898477" x="685.44928" y="-396.30423"/></text><text fill-opacity=".898477" opacity=".8" x="-806.01385" y="-403.51413"><tspan fill="#fff" fill-opacity=".898477" x="-806.01385" y="-403.51413"/></text><text fill-opacity=".898477" opacity=".8" x="654.52887" y="-676.74823"><tspan fill="#fff" fill-opacity=".898477" x="654.52887" y="-676.74823"/></text><text fill-opacity=".898477" opacity=".8" x="2140.6523" y="-50.056908"><tspan fill="#fff" fill-opacity=".898477" x="2140.6523" y="-50.056908"/></text><text fill-opacity=".898477" opacity=".8" x="2164.6133" y="-90.798668"><tspan fill="#fff" fill-opacity=".898477" x="2164.6133" y="-90.798668"/></text><text fill-opacity=".898477" opacity=".8" x="673.15002" y="-98.008568"><tspan fill="#fff" fill-opacity=".898477" x="673.15002" y="-98.008568"/></text><text fill-opacity=".898477" opacity=".8" x="2133.6929" y="-371.24252"><tspan fill="#fff" fill-opacity=".898477" x="2133.6929" y="-371.24252"/></text><text fill-opacity=".898477" opacity=".8" x="-264.66626" y="-146.09988"><tspan fill="#fff" fill-opacity=".898477" x="-264.66626" y="-146.09988"/></text><text fill-opacity=".898477" opacity=".8" x="-2088.3518" y="599.45367"><tspan fill="#fff" fill-opacity=".898477" x="-2088.3518" y="599.45367"/></text><text fill-opacity=".898477" opacity=".8" x="-373.5965" y="692.32581"><tspan fill="#fff" fill-opacity=".898477" x="-373.5965" y="692.32581"/></text><text fill-opacity=".898477" opacity=".8" x="735.4278" y="513.14368"><tspan fill="#fff" fill-opacity=".898477" x="735.4278" y="513.14368"/></text><text fill-opacity=".898477" opacity=".8" x="759.38873" y="472.40198"><tspan fill="#fff" fill-opacity=".898477" x="759.38873" y="472.40198"/></text><text fill-opacity=".898477" opacity=".8" x="-732.0744" y="465.19202"><tspan fill="#fff" fill-opacity=".898477" x="-732.0744" y="465.19202"/></text><text fill-opacity=".898477" opacity=".8" x="728.46832" y="191.95795"><tspan fill="#fff" fill-opacity=".898477" x="728.46832" y="191.95795"/></text><text fill-opacity=".898477" opacity=".8" x="-299.26624" y="462.47775"><tspan fill="#fff" fill-opacity=".898477" x="-299.26624" y="462.47775"/></text><text fill-opacity=".898477" opacity=".8" x="-2122.9521" y="1208.0312"><tspan fill="#fff" fill-opacity=".898477" x="-2122.9521" y="1208.0312"/></text><text fill-opacity=".898477" opacity=".8" x="-148.17319" y="-399.05276"><tspan fill="#fff" fill-opacity=".898477" x="-148.17319" y="-399.05276"/></text><text fill-opacity=".898477" opacity=".8" x="659.42896" y="-812.52289"><tspan fill="#fff" fill-opacity=".898477" x="659.42896" y="-812.52289"/></text><text fill-opacity=".898477" opacity=".8" x="683.38983" y="-853.26471"><tspan fill="#fff" fill-opacity=".898477" x="683.38983" y="-853.26471"/></text><text fill-opacity=".898477" opacity=".8" x="-808.0733" y="-860.47455"><tspan fill="#fff" fill-opacity=".898477" x="-808.0733" y="-860.47455"/></text><text fill-opacity=".898477" opacity=".8" x="652.46942" y="-1133.7087"><tspan fill="#fff" fill-opacity=".898477" x="652.46942" y="-1133.7087"/></text><text fill-opacity=".898477" opacity=".8" x="2138.5928" y="-507.01749"><tspan fill="#fff" fill-opacity=".898477" x="2138.5928" y="-507.01749"/></text><text fill-opacity=".898477" opacity=".8" x="2162.5537" y="-547.75909"><tspan fill="#fff" fill-opacity=".898477" x="2162.5537" y="-547.75909"/></text><text fill-opacity=".898477" opacity=".8" x="671.09058" y="-554.96893"><tspan fill="#fff" fill-opacity=".898477" x="671.09058" y="-554.96893"/></text><text fill-opacity=".898477" opacity=".8" x="2131.6333" y="-828.20306"><tspan fill="#fff" fill-opacity=".898477" x="2131.6333" y="-828.20306"/></text><text fill-opacity=".898477" opacity=".8" x="-266.72571" y="-603.06024"><tspan fill="#fff" fill-opacity=".898477" x="-266.72571" y="-603.06024"/></text><text fill-opacity=".898477" opacity=".8" x="-2090.4114" y="142.49323"><tspan fill="#fff" fill-opacity=".898477" x="-2090.4114" y="142.49323"/></text><text fill-opacity=".898477" opacity=".8" x="-375.65594" y="235.36539"><tspan fill="#fff" fill-opacity=".898477" x="-375.65594" y="235.36539"/></text><text fill-opacity=".898477" opacity=".8" x="464.35858" y="476.27954"><tspan fill="#fff" fill-opacity=".898477" x="464.35858" y="476.27954"/></text><text fill-opacity=".898477" opacity=".8" x="488.31952" y="435.53784"><tspan fill="#fff" fill-opacity=".898477" x="488.31952" y="435.53784"/></text><text fill-opacity=".898477" opacity=".8" x="-781.49713" y="241.50923"><tspan fill="#fff" fill-opacity=".898477" x="-781.49713" y="241.50923"/></text><text fill-opacity=".898477" opacity=".8" x="26.104883" y="-171.96097"><tspan fill="#fff" fill-opacity=".898477" x="26.104883" y="-171.96097"/></text><text fill-opacity=".898477" opacity=".8" x="50.065819" y="-212.70267"><tspan fill="#fff" fill-opacity=".898477" x="50.065819" y="-212.70267"/></text><text fill-opacity=".898477" opacity=".8" x="-1441.3973" y="-219.91263"><tspan fill="#fff" fill-opacity=".898477" x="-1441.3973" y="-219.91263"/></text><text fill-opacity=".898477" opacity=".8" x="19.145441" y="-493.14664"><tspan fill="#fff" fill-opacity=".898477" x="19.145441" y="-493.14664"/></text><text fill-opacity=".898477" opacity=".8" x="1505.2688" y="133.54468"><tspan fill="#fff" fill-opacity=".898477" x="1505.2688" y="133.54468"/></text><text fill-opacity=".898477" opacity=".8" x="1529.2296" y="92.802956"><tspan fill="#fff" fill-opacity=".898477" x="1529.2296" y="92.802956"/></text><text fill-opacity=".898477" opacity=".8" x="37.766563" y="85.593025"><tspan fill="#fff" fill-opacity=".898477" x="37.766563" y="85.593025"/></text><text fill-opacity=".898477" opacity=".8" x="1498.3093" y="-187.64108"><tspan fill="#fff" fill-opacity=".898477" x="1498.3093" y="-187.64108"/></text><text fill-opacity=".898477" opacity=".8" x="-900.04974" y="37.501747"><tspan fill="#fff" fill-opacity=".898477" x="-900.04974" y="37.501747"/></text><text fill-opacity=".898477" opacity=".8" x="-2723.7354" y="783.0553"><tspan fill="#fff" fill-opacity=".898477" x="-2723.7354" y="783.0553"/></text><text fill-opacity=".898477" opacity=".8" transform="matrix(.90475 0 0 .90475 -407.98371 -173.05216)" x="-664.2738" y="1159.4154"><tspan fill="#fff" fill-opacity=".898477" x="-664.2738" y="1159.4154"/></text><text fill-opacity=".898477" x="744.67053" y="134.77237"><tspan fill="#fff" fill-opacity=".898477" x="744.67053" y="134.77237"/><tspan fill="#fff" fill-opacity=".898477" x="744.67053" y="150.60544"/></text><text fill-opacity=".898477" opacity=".8" x="1209.8545" y="-347.27219"><tspan fill="#fff" fill-opacity=".898477" x="1209.8545" y="-347.27219"/></text><text fill-opacity=".898477" opacity=".8" x="-613.83148" y="398.28128"><tspan fill="#fff" fill-opacity=".898477" x="-613.83148" y="398.28128"/></text><text fill-opacity=".898477" opacity=".8" x="1936.934" y="-632.26801"><tspan fill="#fff" fill-opacity=".898477" x="1936.934" y="-632.26801"/></text><text fill-opacity=".898477" opacity=".8" x="1960.8948" y="-673.0097"><tspan fill="#fff" fill-opacity=".898477" x="1960.8948" y="-673.0097"/></text><text fill-opacity=".898477" opacity=".8" x="469.4317" y="-680.21967"><tspan fill="#fff" fill-opacity=".898477" x="469.4317" y="-680.21967"/></text><text fill-opacity=".898477" opacity=".8" x="1929.9745" y="-953.4538"><tspan fill="#fff" fill-opacity=".898477" x="1929.9745" y="-953.4538"/></text><text fill-opacity=".898477" opacity=".8" x="1185.9926" y="506.81046"><tspan fill="#fff" fill-opacity=".898477" x="1185.9926" y="506.81046"/></text><text fill-opacity=".898477" opacity=".8" x="1209.9535" y="466.06873"><tspan fill="#fff" fill-opacity=".898477" x="1209.9535" y="466.06873"/></text><text fill-opacity=".898477" opacity=".8" x="-260.60486" y="435.9906"><tspan fill="#fff" fill-opacity=".898477" x="-260.60486" y="435.9906"/></text><text fill-opacity=".898477" opacity=".8" x="-2084.2908" y="1181.5441"><tspan fill="#fff" fill-opacity=".898477" x="-2084.2908" y="1181.5441"/></text><text fill-opacity=".898477" opacity=".8" x="-146.11377" y="50.669624"><tspan fill="#fff" fill-opacity=".898477" x="-146.11377" y="50.669624"/></text><text fill-opacity=".898477" opacity=".8" x="661.48834" y="-362.80051"><tspan fill="#fff" fill-opacity=".898477" x="661.48834" y="-362.80051"/></text><text fill-opacity=".898477" opacity=".8" x="685.44928" y="-403.54221"><tspan fill="#fff" fill-opacity=".898477" x="685.44928" y="-403.54221"/></text><text fill-opacity=".898477" opacity=".8" x="-806.01385" y="-410.75211"><tspan fill="#fff" fill-opacity=".898477" x="-806.01385" y="-410.75211"/></text><text fill-opacity=".898477" opacity=".8" x="654.52887" y="-683.98627"><tspan fill="#fff" fill-opacity=".898477" x="654.52887" y="-683.98627"/></text><text fill-opacity=".898477" opacity=".8" x="2140.6523" y="-57.294884"><tspan fill="#fff" fill-opacity=".898477" x="2140.6523" y="-57.294884"/></text><text fill-opacity=".898477" opacity=".8" x="2164.6133" y="-98.036644"><tspan fill="#fff" fill-opacity=".898477" x="2164.6133" y="-98.036644"/></text><text fill-opacity=".898477" opacity=".8" x="673.15002" y="-105.24654"><tspan fill="#fff" fill-opacity=".898477" x="673.15002" y="-105.24654"/></text><text fill-opacity=".898477" opacity=".8" x="2133.6929" y="-378.48056"><tspan fill="#fff" fill-opacity=".898477" x="2133.6929" y="-378.48056"/></text><text fill-opacity=".898477" opacity=".8" x="-264.66626" y="-153.33786"><tspan fill="#fff" fill-opacity=".898477" x="-264.66626" y="-153.33786"/></text><text fill-opacity=".898477" opacity=".8" x="-2088.3518" y="592.2157"><tspan fill="#fff" fill-opacity=".898477" x="-2088.3518" y="592.2157"/></text><text fill-opacity=".898477" opacity=".8" x="-373.5965" y="685.08783"><tspan fill="#fff" fill-opacity=".898477" x="-373.5965" y="685.08783"/></text><text fill-opacity=".898477" opacity=".8" x="735.4278" y="505.9057"><tspan fill="#fff" fill-opacity=".898477" x="735.4278" y="505.9057"/></text><text fill-opacity=".898477" opacity=".8" x="759.38873" y="465.16397"><tspan fill="#fff" fill-opacity=".898477" x="759.38873" y="465.16397"/></text><text fill-opacity=".898477" opacity=".8" x="-732.0744" y="457.95401"><tspan fill="#fff" fill-opacity=".898477" x="-732.0744" y="457.95401"/></text><text fill-opacity=".898477" opacity=".8" x="728.46832" y="184.71994"><tspan fill="#fff" fill-opacity=".898477" x="728.46832" y="184.71994"/></text><text fill-opacity=".898477" opacity=".8" x="-299.26624" y="455.23978"><tspan fill="#fff" fill-opacity=".898477" x="-299.26624" y="455.23978"/></text><text fill-opacity=".898477" opacity=".8" x="-2122.9521" y="1200.7932"><tspan fill="#fff" fill-opacity=".898477" x="-2122.9521" y="1200.7932"/></text><text fill-opacity=".898477" opacity=".8" x="-148.17319" y="-406.29074"><tspan fill="#fff" fill-opacity=".898477" x="-148.17319" y="-406.29074"/></text><text fill-opacity=".898477" opacity=".8" x="659.42896" y="-819.76093"><tspan fill="#fff" fill-opacity=".898477" x="659.42896" y="-819.76093"/></text><text fill-opacity=".898477" opacity=".8" x="683.38983" y="-860.50262"><tspan fill="#fff" fill-opacity=".898477" x="683.38983" y="-860.50262"/></text><text fill-opacity=".898477" opacity=".8" x="-808.0733" y="-867.71259"><tspan fill="#fff" fill-opacity=".898477" x="-808.0733" y="-867.71259"/></text><text fill-opacity=".898477" opacity=".8" x="652.46942" y="-1140.9468"><tspan fill="#fff" fill-opacity=".898477" x="652.46942" y="-1140.9468"/></text><text fill-opacity=".898477" opacity=".8" x="2138.5928" y="-514.25543"><tspan fill="#fff" fill-opacity=".898477" x="2138.5928" y="-514.25543"/></text><text fill-opacity=".898477" opacity=".8" x="2162.5537" y="-554.99701"><tspan fill="#fff" fill-opacity=".898477" x="2162.5537" y="-554.99701"/></text><text fill-opacity=".898477" opacity=".8" x="671.09058" y="-562.20697"><tspan fill="#fff" fill-opacity=".898477" x="671.09058" y="-562.20697"/></text><text fill-opacity=".898477" opacity=".8" x="2131.6333" y="-835.4411"><tspan fill="#fff" fill-opacity=".898477" x="2131.6333" y="-835.4411"/></text><text fill-opacity=".898477" opacity=".8" x="-266.72571" y="-610.29828"><tspan fill="#fff" fill-opacity=".898477" x="-266.72571" y="-610.29828"/></text><text fill-opacity=".898477" opacity=".8" x="-2090.4114" y="135.25522"><tspan fill="#fff" fill-opacity=".898477" x="-2090.4114" y="135.25522"/></text><text fill-opacity=".898477" opacity=".8" x="-375.65594" y="228.12738"><tspan fill="#fff" fill-opacity=".898477" x="-375.65594" y="228.12738"/></text><text fill-opacity=".898477" opacity=".8" x="464.35858" y="469.04156"><tspan fill="#fff" fill-opacity=".898477" x="464.35858" y="469.04156"/></text><text fill-opacity=".898477" opacity=".8" x="488.31952" y="428.29984"><tspan fill="#fff" fill-opacity=".898477" x="488.31952" y="428.29984"/></text><text fill-opacity=".898477" opacity=".8" x="-781.49713" y="234.27121"><tspan fill="#fff" fill-opacity=".898477" x="-781.49713" y="234.27121"/></text><text fill-opacity=".898477" opacity=".8" x="26.104883" y="-179.19894"><tspan fill="#fff" fill-opacity=".898477" x="26.104883" y="-179.19894"/></text><text fill-opacity=".898477" opacity=".8" x="50.065819" y="-219.94064"><tspan fill="#fff" fill-opacity=".898477" x="50.065819" y="-219.94064"/></text><text fill-opacity=".898477" opacity=".8" x="-1441.3973" y="-227.15054"><tspan fill="#fff" fill-opacity=".898477" x="-1441.3973" y="-227.15054"/></text><text fill-opacity=".898477" opacity=".8" x="19.145441" y="-500.38467"><tspan fill="#fff" fill-opacity=".898477" x="19.145441" y="-500.38467"/></text><text fill-opacity=".898477" opacity=".8" x="1505.2688" y="126.30671"><tspan fill="#fff" fill-opacity=".898477" x="1505.2688" y="126.30671"/></text><text fill-opacity=".898477" opacity=".8" x="1529.2296" y="85.56498"><tspan fill="#fff" fill-opacity=".898477" x="1529.2296" y="85.56498"/></text><text fill-opacity=".898477" opacity=".8" x="37.766563" y="78.355019"><tspan fill="#fff" fill-opacity=".898477" x="37.766563" y="78.355019"/></text><text fill-opacity=".898477" opacity=".8" x="1498.3093" y="-194.87906"><tspan fill="#fff" fill-opacity=".898477" x="1498.3093" y="-194.87906"/></text><text fill-opacity=".898477" opacity=".8" x="-900.04974" y="30.263741"><tspan fill="#fff" fill-opacity=".898477" x="-900.04974" y="30.263741"/></text><text fill-opacity=".898477" opacity=".8" x="-2723.7354" y="775.81732"><tspan fill="#fff" fill-opacity=".898477" x="-2723.7354" y="775.81732"/></text><text fill-opacity=".898477" opacity=".8" x="-1008.9799" y="868.68939"><tspan fill="#fff" fill-opacity=".898477" x="-1008.9799" y="868.68939"/></text><text fill-opacity=".898477" opacity=".8" x="1185.9926" y="514.0484"><tspan fill="#fff" fill-opacity=".898477" x="1185.9926" y="514.0484"/></text><text fill-opacity=".898477" opacity=".8" x="1209.9535" y="473.30673"><tspan fill="#fff" fill-opacity=".898477" x="1209.9535" y="473.30673"/></text><text fill-opacity=".898477" opacity=".8" x="-260.60486" y="443.22858"><tspan fill="#fff" fill-opacity=".898477" x="-260.60486" y="443.22858"/></text><text fill-opacity=".898477" opacity=".8" x="-2084.2908" y="1188.782"><tspan fill="#fff" fill-opacity=".898477" x="-2084.2908" y="1188.782"/></text><text fill-opacity=".898477" opacity=".8" x="-146.11377" y="57.907631"><tspan fill="#fff" fill-opacity=".898477" x="-146.11377" y="57.907631"/></text><text fill-opacity=".898477" opacity=".8" x="661.48834" y="-355.56247"><tspan fill="#fff" fill-opacity=".898477" x="661.48834" y="-355.56247"/></text><text fill-opacity=".898477" opacity=".8" x="685.44928" y="-396.30423"><tspan fill="#fff" fill-opacity=".898477" x="685.44928" y="-396.30423"/></text><text fill-opacity=".898477" opacity=".8" x="-806.01385" y="-403.51413"><tspan fill="#fff" fill-opacity=".898477" x="-806.01385" y="-403.51413"/></text><text fill-opacity=".898477" opacity=".8" x="654.52887" y="-676.74823"><tspan fill="#fff" fill-opacity=".898477" x="654.52887" y="-676.74823"/></text><text fill-opacity=".898477" opacity=".8" x="2140.6523" y="-50.056908"><tspan fill="#fff" fill-opacity=".898477" x="2140.6523" y="-50.056908"/></text><text fill-opacity=".898477" opacity=".8" x="2164.6133" y="-90.798668"><tspan fill="#fff" fill-opacity=".898477" x="2164.6133" y="-90.798668"/></text><text fill-opacity=".898477" opacity=".8" x="673.15002" y="-98.008568"><tspan fill="#fff" fill-opacity=".898477" x="673.15002" y="-98.008568"/></text><text fill-opacity=".898477" opacity=".8" x="2133.6929" y="-371.24252"><tspan fill="#fff" fill-opacity=".898477" x="2133.6929" y="-371.24252"/></text><text fill-opacity=".898477" opacity=".8" x="-264.66626" y="-146.09988"><tspan fill="#fff" fill-opacity=".898477" x="-264.66626" y="-146.09988"/></text><text fill-opacity=".898477" opacity=".8" x="-2088.3518" y="599.45367"><tspan fill="#fff" fill-opacity=".898477" x="-2088.3518" y="599.45367"/></text><text fill-opacity=".898477" opacity=".8" x="-373.5965" y="692.32581"><tspan fill="#fff" fill-opacity=".898477" x="-373.5965" y="692.32581"/></text><text fill-opacity=".898477" opacity=".8" x="735.4278" y="513.14368"><tspan fill="#fff" fill-opacity=".898477" x="735.4278" y="513.14368"/></text><text fill-opacity=".898477" opacity=".8" x="759.38873" y="472.40198"><tspan fill="#fff" fill-opacity=".898477" x="759.38873" y="472.40198"/></text><text fill-opacity=".898477" opacity=".8" x="-732.0744" y="465.19202"><tspan fill="#fff" fill-opacity=".898477" x="-732.0744" y="465.19202"/></text><text fill-opacity=".898477" opacity=".8" x="728.46832" y="191.95795"><tspan fill="#fff" fill-opacity=".898477" x="728.46832" y="191.95795"/></text><text fill-opacity=".898477" opacity=".8" x="-299.26624" y="462.47775"><tspan fill="#fff" fill-opacity=".898477" x="-299.26624" y="462.47775"/></text><text fill-opacity=".898477" opacity=".8" x="-2122.9521" y="1208.0312"><tspan fill="#fff" fill-opacity=".898477" x="-2122.9521" y="1208.0312"/></text><text fill-opacity=".898477" opacity=".8" x="-148.17319" y="-399.05276"><tspan fill="#fff" fill-opacity=".898477" x="-148.17319" y="-399.05276"/></text><text fill-opacity=".898477" opacity=".8" x="659.42896" y="-812.52289"><tspan fill="#fff" fill-opacity=".898477" x="659.42896" y="-812.52289"/></text><text fill-opacity=".898477" opacity=".8" x="683.38983" y="-853.26471"><tspan fill="#fff" fill-opacity=".898477" x="683.38983" y="-853.26471"/></text><text fill-opacity=".898477" opacity=".8" x="-808.0733" y="-860.47455"><tspan fill="#fff" fill-opacity=".898477" x="-808.0733" y="-860.47455"/></text><text fill-opacity=".898477" opacity=".8" x="652.46942" y="-1133.7087"><tspan fill="#fff" fill-opacity=".898477" x="652.46942" y="-1133.7087"/></text><text fill-opacity=".898477" opacity=".8" x="2138.5928" y="-507.01749"><tspan fill="#fff" fill-opacity=".898477" x="2138.5928" y="-507.01749"/></text><text fill-opacity=".898477" opacity=".8" x="2162.5537" y="-547.75909"><tspan fill="#fff" fill-opacity=".898477" x="2162.5537" y="-547.75909"/></text><text fill-opacity=".898477" opacity=".8" x="671.09058" y="-554.96893"><tspan fill="#fff" fill-opacity=".898477" x="671.09058" y="-554.96893"/></text><text fill-opacity=".898477" opacity=".8" x="2131.6333" y="-828.20306"><tspan fill="#fff" fill-opacity=".898477" x="2131.6333" y="-828.20306"/></text><text fill-opacity=".898477" opacity=".8" x="-266.72571" y="-603.06024"><tspan fill="#fff" fill-opacity=".898477" x="-266.72571" y="-603.06024"/></text><text fill-opacity=".898477" opacity=".8" x="-2090.4114" y="142.49323"><tspan fill="#fff" fill-opacity=".898477" x="-2090.4114" y="142.49323"/></text><text fill-opacity=".898477" opacity=".8" x="-375.65594" y="235.36539"><tspan fill="#fff" fill-opacity=".898477" x="-375.65594" y="235.36539"/></text><text fill-opacity=".898477" opacity=".8" x="464.35858" y="476.27954"><tspan fill="#fff" fill-opacity=".898477" x="464.35858" y="476.27954"/></text><text fill-opacity=".898477" opacity=".8" x="488.31952" y="435.53784"><tspan fill="#fff" fill-opacity=".898477" x="488.31952" y="435.53784"/></text><text fill-opacity=".898477" opacity=".8" x="-781.49713" y="241.50923"><tspan fill="#fff" fill-opacity=".898477" x="-781.49713" y="241.50923"/></text><text fill-opacity=".898477" opacity=".8" x="26.104883" y="-171.96097"><tspan fill="#fff" fill-opacity=".898477" x="26.104883" y="-171.96097"/></text><text fill-opacity=".898477" opacity=".8" x="50.065819" y="-212.70267"><tspan fill="#fff" fill-opacity=".898477" x="50.065819" y="-212.70267"/></text><text fill-opacity=".898477" opacity=".8" x="-1441.3973" y="-219.91263"><tspan fill="#fff" fill-opacity=".898477" x="-1441.3973" y="-219.91263"/></text><text fill-opacity=".898477" opacity=".8" x="19.145441" y="-493.14664"><tspan fill="#fff" fill-opacity=".898477" x="19.145441" y="-493.14664"/></text><text fill-opacity=".898477" opacity=".8" x="1505.2688" y="133.54468"><tspan fill="#fff" fill-opacity=".898477" x="1505.2688" y="133.54468"/></text><text fill-opacity=".898477" opacity=".8" x="1529.2296" y="92.802956"><tspan fill="#fff" fill-opacity=".898477" x="1529.2296" y="92.802956"/></text><text fill-opacity=".898477" opacity=".8" x="37.766563" y="85.593025"><tspan fill="#fff" fill-opacity=".898477" x="37.766563" y="85.593025"/></text><text fill-opacity=".898477" opacity=".8" x="1498.3093" y="-187.64108"><tspan fill="#fff" fill-opacity=".898477" x="1498.3093" y="-187.64108"/></text><text fill-opacity=".898477" opacity=".8" x="-900.04974" y="37.501747"><tspan fill="#fff" fill-opacity=".898477" x="-900.04974" y="37.501747"/></text><text fill-opacity=".898477" opacity=".8" x="-2723.7354" y="783.0553"><tspan fill="#fff" fill-opacity=".898477" x="-2723.7354" y="783.0553"/></text><text fill-opacity=".898477" opacity=".8" x="-1008.9799" y="875.92737"><tspan fill="#fff" fill-opacity=".898477" x="-1008.9799" y="875.92737"/></text><text fill-opacity=".898477" x="744.67053" y="134.77237"><tspan fill="#fff" fill-opacity=".898477" x="744.67053" y="134.77237"/><tspan fill="#fff" fill-opacity=".898477" x="744.67053" y="150.60544"/></text><text fill-opacity=".898477" opacity=".8" x="1209.8545" y="-347.27219"><tspan fill="#fff" fill-opacity=".898477" x="1209.8545" y="-347.27219"/></text><text fill-opacity=".898477" opacity=".8" x="-613.83148" y="398.28128"><tspan fill="#fff" fill-opacity=".898477" x="-613.83148" y="398.28128"/></text><text fill-opacity=".898477" opacity=".8" x="1936.934" y="-632.26801"><tspan fill="#fff" fill-opacity=".898477" x="1936.934" y="-632.26801"/></text><text fill-opacity=".898477" opacity=".8" x="1960.8948" y="-673.0097"><tspan fill="#fff" fill-opacity=".898477" x="1960.8948" y="-673.0097"/></text><text fill-opacity=".898477" opacity=".8" x="469.4317" y="-680.21967"><tspan fill="#fff" fill-opacity=".898477" x="469.4317" y="-680.21967"/></text><text fill-opacity=".898477" opacity=".8" x="1929.9745" y="-953.4538"><tspan fill="#fff" fill-opacity=".898477" x="1929.9745" y="-953.4538"/></text></g><path d="m413.60288 515.20669c-.0878-.76961.60734-1.49835 1.60839-1.75588l-.24409-2.14095c-1.03326-.0249-1.87449-.57794-1.96223-1.34755-.0877-.76962.60733-1.49836 1.60839-1.75589l-.25834-2.26588-2.27656.26034c-.039.88872-.76264 1.6498-1.72897 1.76031-.96632.1105-1.84267-.46759-2.08069-1.32463l-2.57987.29503c-.039.88872-.76265 1.64979-1.72897 1.7603s-1.84267-.46759-2.0807-1.32463l-2.21829.25369c-.077.85454-.78582 1.57431-1.72348 1.68154-.93767.10723-1.79029-.43396-2.05762-1.24914l-2.60843.2983c-.0769.85454-.78582 1.57432-1.72348 1.68155-.93767.10723-1.79039-.43396-2.05762-1.24914l-2.04466.23383c-.0769.85453-.78581 1.57431-1.72348 1.68154-.93766.10723-1.79038-.43395-2.05762-1.24914l-2.60843.2983c-.0769.85454-.78582 1.57432-1.72348 1.68155s-1.79039-.43396-2.05762-1.24914l-2.29084.26198.28473 2.49725c1.03326.025 1.87448.57794 1.96223 1.34756.0877.76961-.60735 1.49827-1.6084 1.75589l.22358 1.96093c1.15972-.0798 2.15137.50182 2.24705 1.34108.0957.83926-.73951 1.6298-1.88734 1.81388l.22126 1.94066c1.11863-.0428 2.05939.52999 2.15247 1.34634.0931.81635-.69453 1.58685-1.79401 1.79767l.18609 1.63216c.0465-.007.0932-.0142.14054-.0197 1.21956-.13946 2.28885.45532 2.38841 1.32851.0996.87319-.80833 1.69408-2.02789 1.83355-.0474.005-.0944.009-.14135.0126l.23005 2.0177c1.11864-.0428 2.0594.53007 2.15248 1.34642.0931.81635-.69453 1.58685-1.794 1.79775l.24923 2.18598c1.07644-.008 1.9671.55539 2.05753 1.34853.0904.79314-.6505 1.54306-1.70102 1.77836l.23982 2.10346c1.15973-.0798 2.15137.50182 2.24706 1.34107.0957.83926-.73951 1.62981-1.88735 1.81389l.22064 1.93518c1.15973-.0798 2.15137.50182 2.24706 1.34107.0957.83926-.73951 1.62981-1.88735 1.81389l.23782 2.08588 2.08863-.23886c-.0241-.0865-.0418-.17578-.0522-.26748-.11413-1.00098.65576-1.91102 1.71961-2.03268 1.06386-.12167 2.01877.59112 2.1329 1.59211.0105.0917.0133.18263.009.27238l2.57987-.29503c-.024-.0866-.0417-.17579-.0522-.26749-.11413-1.00098.65576-1.91102 1.71962-2.03268s2.01877.59113 2.13289 1.59211c.0105.0917.0133.18263.009.27238l2.01608-.23056c-.0241-.0865-.0417-.17578-.0522-.26748-.11412-1.00098.65576-1.91102 1.71962-2.03268 1.06386-.12167 2.01877.59112 2.13289 1.59211.0105.0917.0133.18263.009.27238l2.57987-.29503c-.0241-.0866-.0417-.17579-.0522-.26749-.11413-1.00098.65576-1.91102 1.71961-2.03268 1.06386-.12166 2.01877.59113 2.1329 1.59211.0104.0917.0133.18263.009.27238l2.19349-.25084c-.0143-.0625-.0254-.1264-.0329-.19157-.11413-1.00098.65576-1.91102 1.71961-2.03268 1.06386-.12166 2.01877.59113 2.1329 1.59211.007.0652.0109.12993.0111.19405l2.55882-.29262c-.0143-.0625-.0255-.12639-.0329-.19156-.11413-1.00099.65576-1.91103 1.71962-2.03269s2.01877.59113 2.13289 1.59211c.007.0652.0109.12993.0111.19406l2.45395-.28064-.23843-2.09127c-1.11864.0428-2.0594-.53007-2.15248-1.34643-.0931-.81635.69453-1.58684 1.794-1.79774l-.23946-2.10022c-1.11863.0428-2.0594-.53007-2.15247-1.34642-.0931-.81635.69453-1.58685 1.794-1.79774l-.21308-1.86886c-1.11864.0428-2.0594-.53007-2.15248-1.34642-.0931-.81635.69453-1.58684 1.794-1.79774l-.23945-2.10022c-1.11864.0428-2.05941-.53007-2.15248-1.34642-.0931-.81635.69453-1.58685 1.794-1.79775l-.20429-1.7918c-1.11863.0428-2.0594-.53-2.15247-1.34635-.0931-.81635.69453-1.58684 1.794-1.79766l-.23947-2.10038c-1.11863.0429-2.05939-.52999-2.15247-1.34634-.0931-.81635.69453-1.58685 1.79401-1.79767l-.2242-1.96641c-1.03326-.0249-1.87448-.57794-1.96223-1.34756" fill="url(#c)"/><rect fill="url(#b)" height="35.786575" ry=".527566" transform="matrix(.99352435 -.1136194 .11328018 .99356308 0 0)" width="30.825752" x="319.02426" y="553.23981"/><path d="m16.306247 11.262021-4.2424 4.242 8.935753 11.753979v14.742h6v-14.758l8.920753-13.032021-4.242-4.2420002-7.686753 11.7980212-7.685753-10.503979z" fill="#fff" fill-opacity=".898477" transform="matrix(.55786576 -.10419319 .10419319 .55786576 376.72718 518.59718)"/><g fill="#fff" fill-opacity=".852041" transform="matrix(.13217556 -.0126997 .0126997 .13217556 380.48891 507.63929)"><path d="m149.09606 118.88767 3.85298 84.61851c.423 4.886 4.301 8.913 9.355 9.355 5.661.495 10.651-3.694 11.145-9.355l1.8207-83.84581c.078-.97.088-2.057 0-3.057-.844-9.666-3.9337-15.97019-13.5987-15.12719-9.665.845-13.41898 7.74749-12.57498 17.41149z" fill="#fff" fill-opacity=".852041"/><circle cx="163.19905" cy="232.50618" fill="#fff" fill-opacity=".852041" r="14.5"/></g></g></svg>