<svg xmlns="http://www.w3.org/2000/svg" xmlns:xlink="http://www.w3.org/1999/xlink" version="1.1" width="48" height="48">
	<defs>
		<linearGradient id="frontGrad" x1="0" y1="1" x2="0" y2="0">
			<stop stop-color="#00AA88" offset="0" />
			<stop stop-color="#00FFCC" offset="1" />
		</linearGradient>
		<linearGradient id="backGrad" x1="0" y1="0" x2="1" y2="0">
			<stop stop-color="#00A07F" offset="0" />
			<stop stop-color="#06C49F" offset="1" />
		</linearGradient>
		<linearGradient id="leftfrontfoldGrad" xlink:href="#frontGrad" x1="0" y1="0" x2="1" y2="0" />
		<linearGradient id="rightfrontfoldGrad" xlink:href="#frontGrad" x1="1" y1="0" x2="0" y2="0" />
		<linearGradient id="rightbackfoldGrad" xlink:href="#backGrad" x1="1" y1="0" x2="0" y2="0" />
		<linearGradient id="leftbackfoldGrad" xlink:href="#backGrad" x1="0" y1="0" x2="1" y2="0" />
		<linearGradient id="handleGrad" x1="0" y1="1" x2="0" y2="0">
			<stop stop-color="#E6E6E6" offset="0" />
			<stop stop-color="#FFF" offset="1" />
		</linearGradient>
		<clipPath id="frontClip">
			<rect x="2" y="9" width="44" height="37" />
		</clipPath>
	</defs>

	<rect id="back" x="4" y="3" width="40" height="10" fill="url(#backGrad)" />
	<polygon id="leftbackfold" fill="url(#leftbackfoldGrad)" points="4,3 4,30 7.5,5.5" />
	<polygon id="rightbackfold" fill="url(#rightbackfoldGrad)" points="44,3 44,8 40.5,5.5" />
	<polygon id="shadow" points="7.5,5.5 15.2,11 4,11" fill="#000" opacity="0.08"  />
	<rect id="frontnew" fill="url(#frontGrad)" x="2" y="6" width="44" height="40" rx="3" clip-path="url(#frontClip)" />
	<polygon id="rightfrontfold" points="46,9 40.5,9 40.5,5.5" fill="url(#rightfrontfoldGrad)" />
	<polygon id="leftfrontfold" points="7.5,5.5 2,9 7.5,9" fill="url(#leftfrontfoldGrad)" />
	<circle class="hole" cx="14" cy="14" r="2" fill="#000" opacity="0.3" />
	<circle class="hole" cx="34" cy="14" r="2" fill="#000" opacity="0.3" />
	<path id="handle" d="M 34,13 a 10,10 0 1,0 -20,0" fill="none" stroke="url(#handleGrad)" stroke-width="2.4" stroke-linecap="round"  />
	<path id="symbol" d="m 25.865771,37.923057 c -2.282115,-0.747671 -3.321125,-3.116247 -2.271095,-5.177312 0.476386,-0.935079 1.104396,-1.450792 2.131506,-1.750358 1.339143,-0.390575 2.808356,0.148824 3.579546,1.314175 0.527957,0.797793 0.58856,2.079134 0.13821,2.922261 -1.057149,1.979118 -3.955842,1.936953 -4.7218,-0.06868 -0.444493,-1.163882 0.07007,-2.377752 1.189085,-2.805112 1.134831,-0.433392 2.32701,0.260954 2.459031,1.432184 0.05557,0.493167 0.0101,0.651027 -0.290816,1.008598 -0.649799,0.772248 -1.71529,0.683033 -2.106881,-0.17641 -0.207844,-0.456186 -0.05237,-0.542921 0.373138,-0.208202 0.449895,0.353894 0.782562,0.358399 1.125703,0.01523 0.352932,-0.352927 0.337744,-0.705762 -0.04975,-1.156235 -0.720939,-0.838152 -2.116981,-0.157214 -2.143333,1.045429 -0.01486,0.679351 0.312515,1.203872 0.942849,1.510545 1.59736,0.777138 3.362163,-0.976068 2.71275,-2.694905 -0.17897,-0.473667 -0.7406,-1.073155 -1.258794,-1.343611 -1.046953,-0.546442 -2.650458,-0.04157 -3.382813,1.065075 -0.305384,0.461476 -0.364758,0.695976 -0.364758,1.440691 0,0.756702 0.06043,0.987232 0.404732,1.544122 0.251207,0.406331 0.653257,0.80814 1.059961,1.059351 0.5711,0.352756 0.776726,0.404065 1.601224,0.3995 1.952723,-0.01069 3.292277,-1.263763 3.696604,-3.457672 0.286455,-1.554298 -0.280439,-3.319191 -1.422741,-4.42938 -0.407362,-0.39591 -0.592365,-0.686604 -0.592365,-0.930761 0,-0.407522 -0.216288,-0.872386 -0.405892,-0.872386 -0.07279,0 -0.129023,0.49687 -0.129023,1.139999 v 1.139999 l 0.601781,0.363492 c 0.660026,0.398677 0.81351,0.833491 0.294205,0.833491 -0.169169,0 -0.37449,-0.06691 -0.456277,-0.1487 -0.08179,-0.08179 -0.530116,-0.280038 -0.996284,-0.44056 -0.866214,-0.298282 -1.12556,-0.641696 -0.546705,-0.723904 0.258849,-0.03676 0.30089,-0.12322 0.30089,-0.618658 v -0.575921 l -0.747819,-0.06202 c -0.842016,-0.06983 -0.985618,-0.206465 -0.988616,-0.940647 -0.0016,-0.27581 -0.05484,-0.501488 -0.119399,-0.501488 -0.299682,0 -0.470726,0.500409 -0.525087,1.536251 -0.05721,1.090005 -0.05131,1.116533 0.257144,1.160365 0.608872,0.08651 0.457259,0.484456 -0.31462,0.825818 -0.395225,0.174779 -0.941192,0.513239 -1.213267,0.752122 -0.494712,0.434365 -0.895147,0.471282 -0.895147,0.08252 0,-0.108978 0.270803,-0.4245 0.601781,-0.701166 0.593273,-0.495914 0.601791,-0.514645 0.601791,-1.324174 0,-1.021829 -0.338657,-1.587399 -1.235322,-2.06308 l -0.627956,-0.333126 -0.580848,0.570064 -0.580859,0.570069 -2.666577,-0.03639 c -2.650986,-0.03612 -2.666821,-0.03805 -2.70929,-0.33723 l -0.04276,-0.300891 h 2.065741 c 1.67307,0 2.097394,-0.03816 2.232221,-0.200597 0.146932,-0.17704 -0.116138,-0.200597 -2.240654,-0.200597 -1.76523,0 -2.444213,-0.04473 -2.546162,-0.167501 -0.152228,-0.183427 -0.0082,-1.223181 0.260857,-1.882935 0.430582,-1.014289 1.150655,-1.970973 2.012556,-2.683031 0.732274,-0.604961 2.861904,-1.302124 3.375545,-1.105016 0.16532,0.06344 0.207705,0.312482 0.207705,1.220599 0,0.627502 0.04815,1.140908 0.106978,1.140908 0.262499,0 0.427937,-0.370236 0.427937,-0.9577 0,-0.635043 0.0021,-0.637176 0.568353,-0.795645 0.881712,-0.246509 2.94973,-0.17921 4.15054,0.135078 3.303479,0.864606 5.715974,3.176369 6.529489,6.256832 0.369477,1.399082 0.400345,3.660707 0.06535,4.789398 -0.613409,2.066789 -1.943585,3.713107 -3.642425,4.508078 -0.710106,0.332298 -1.108997,0.428284 -1.910681,0.459744 -0.55727,0.02191 -1.164052,-0.0097 -1.348409,-0.07005 z m -4.138569,-8.091039 c -0.115839,-0.304674 -0.210243,-0.341409 -0.969938,-0.377482 -0.756659,-0.03597 -0.845917,-0.07033 -0.884341,-0.340859 -0.04067,-0.286644 1.33e-4,-0.300891 0.863616,-0.300891 0.859897,0 0.931557,-0.02469 1.398618,-0.48071 0.425697,-0.415677 0.530469,-0.460252 0.774589,-0.329615 0.385098,0.206096 0.355801,0.387439 -0.146339,0.905494 -0.26237,0.270712 -0.43095,0.583456 -0.434621,0.806295 -0.0081,0.494225 -0.427264,0.576268 -0.601584,0.117768 z" fill="#FFF" opacity="0.8" />
</svg>
