<svg height="48" width="48" xmlns="http://www.w3.org/2000/svg" xmlns:xlink="http://www.w3.org/1999/xlink"><linearGradient id="a" gradientTransform="matrix(1.0155171 0 0 .88638161 -65.086805 59.629401)" gradientUnits="userSpaceOnUse" x1="466.37592" x2="466.48874" y1="542.6795" y2="502.37723"><stop offset="0" stop-color="#54b60f"/><stop offset="1" stop-color="#92dc41"/></linearGradient><linearGradient gradientUnits="userSpaceOnUse" x1="258.65744" x2="257.50476" y1="1.707616" y2="564.00525"><stop offset="0" stop-color="#333"/><stop offset="1" stop-color="#353535"/></linearGradient><linearGradient id="b" gradientUnits="userSpaceOnUse" x1="258.65744" x2="257.50476" y1="1.707616" y2="564.00525"><stop offset="0" stop-color="#e9e9e9"/><stop offset="1" stop-color="#f9f9f9"/></linearGradient><path d="m418 467.5c0 9.979 8.175 18.289 19 20.12v27.76c-10.825 1.831-19 10.141-19 20.12s8.175 18.289 19 20.12v29.38h-24.228c-1.474-11.318-9.988-20-20.272-20s-18.798 8.682-20.272 20h-27.456c-1.474-11.318-9.988-20-20.272-20s-18.798 8.682-20.272 20h-23.608c-1.832-10.825-10.141-19-20.12-19s-18.288 8.175-20.12 19h-27.76c-1.831-10.825-10.141-19-20.12-19s-18.289 8.175-20.12 19h-21.76c-1.831-10.825-10.141-19-20.12-19s-18.289 8.175-20.12 19h-27.76c-1.831-10.825-10.141-19-20.12-19s-18.289 8.175-20.12 19h-24.38v-32.38c10.825-1.832 19-10.141 19-20.12s-8.175-18.288-19-20.12v-25.426c12.279-.676 22-9.572 22-20.454s-9.721-19.778-22-20.454v-25.163c11.803-1.089 21-9.798 21-20.383s-9.197-19.294-21-20.383v-21.163c.497.027.996.046 1.5.046 12.979 0 23.5-9.178 23.5-20.5s-10.521-20.5-23.5-20.5c-.504 0-1.003.019-1.5.046v-26.162c11.803-1.09 21-9.799 21-20.384s-9.197-19.294-21-20.384v-28.344c11.318-1.474 20-9.988 20-20.272s-8.682-18.798-20-20.272v-27.274c12.279-.676 22-9.572 22-20.454s-9.721-19.778-22-20.454v-25.092c12.279-.676 22-9.572 22-20.454s-9.721-19.778-22-20.454v-27.046h22.228c-.149 1.143-.228 2.311-.228 3.5 0 12.979 9.178 23.5 20.5 23.5s20.5-10.521 20.5-23.5c0-1.189-.079-2.357-.228-3.5h27.456c-.149 1.143-.228 2.311-.228 3.5 0 12.979 9.178 23.5 20.5 23.5s20.5-10.521 20.5-23.5c0-1.189-.079-2.357-.228-3.5h21.456c-.149 1.143-.228 2.311-.228 3.5 0 12.979 9.178 23.5 20.5 23.5s20.5-10.521 20.5-23.5c0-1.189-.079-2.357-.228-3.5h27.456c-.149 1.143-.228 2.311-.228 3.5 0 12.979 9.178 23.5 20.5 23.5s20.5-10.521 20.5-23.5c0-1.189-.079-2.357-.228-3.5h23.344c-.075.821-.116 1.655-.116 2.5 0 12.979 9.178 23.5 20.5 23.5s20.5-10.521 20.5-23.5c0-.845-.041-1.679-.116-2.5h27.232c-.075.821-.116 1.655-.116 2.5 0 12.979 9.178 23.5 20.5 23.5s20.5-10.521 20.5-23.5c0-.845-.041-1.679-.116-2.5h26.116v27.116c-11.803 1.09-21 9.799-21 20.384s9.197 19.294 21 20.384v27.232c-11.803 1.09-21 9.799-21 20.384s9.197 19.294 21 20.384v24.232c-11.803 1.09-21 9.799-21 20.384s9.197 19.294 21 20.384v27.232c-11.803 1.09-21 9.799-21 20.384s9.197 19.294 21 20.384v23.233c-11.803 1.089-21 9.798-21 20.383s9.197 19.294 21 20.383v27.234c-11.803 1.089-21 9.798-21 20.383s9.197 19.294 21 20.383v25.497c-10.825 1.831-19 10.141-19 20.12" fill="url(#b)" transform="matrix(.093963726517 -.010745682911 -.008793144971 -.077123327814 5.437642817412 49.846012073681)"/><rect fill="url(#a)" height="36.075733" ry=".531829" transform="matrix(.985560999529 -.112708706223 .11237220789 .985599416862 -438.011826217655 -445.701705829515)" width="31.074825" x="393.59326" y="504.85712"/><path d="m602.54287 413.97432q1.81405 0 3.05291 1.24992 1.23887 1.24992 1.23887 3.01973 0 .99551-.43139 1.64813-.42033.65262-1.2278.65262-.8296 0-1.23887-.80748-.542.80748-1.54858.80748-.90702 0-1.52645-.6305-.61943-.64155-.61943-1.62601 0-.97339.61943-1.61494.61943-.64156 1.48221-.64156.85172 0 1.41584.65262h.0443v-.49776h.79641v2.887q0 .28759.15486.51988.16592.23228.49775.23228.78536 0 .78536-1.58176 0-1.46009-1.01764-2.46667-1.01764-1.00657-2.47773-1.00657-1.46009 0-2.47773 1.00657-1.01763 1.00658-1.01763 2.46667 0 1.46009 1.01763 2.46666 1.01764 1.00658 2.47773 1.00658.78535 0 1.40478-.30972l.30972.75217q-.77429.35396-1.7145.35396-1.83617 0-3.0861-1.23886-1.24992-1.24992-1.24992-3.03079 0-1.76981 1.24992-3.01973 1.26099-1.24992 3.0861-1.24992zm-1.0287 5.34259q.39821.38715.95127.38715.55307 0 .94021-.38715.39821-.38714.39821-1.0287 0-.64155-.39821-1.02869-.38714-.38715-.94021-.38715-.55306 0-.95127.38715-.38714.38714-.38714 1.02869 0 .64156.38714 1.0287z" fill="#fff" fill-opacity=".851852" transform="matrix(2.145797891041 -.285791270023 .285791270023 2.145797891041 -1388.49820136279 -701.02148318108)"/></svg>