<svg height="48" width="48" xmlns="http://www.w3.org/2000/svg" xmlns:xlink="http://www.w3.org/1999/xlink"><linearGradient id="a" gradientUnits="userSpaceOnUse" x1="98.123421" x2="510.5639" y1="1517.4567" y2="828.57574"><stop offset="0" stop-color="#0fc"/><stop offset="1" stop-color="#0a8"/></linearGradient><linearGradient id="b" gradientUnits="userSpaceOnUse" x1="-323.8826" x2="75.681633" y1="1270.6443" y2="1061.4048"><stop offset="0" stop-color="#5fd"/><stop offset="1" stop-color="#2affd5"/></linearGradient><linearGradient id="c" gradientUnits="userSpaceOnUse" x1="73.726746" x2="90.761726" y1="1076.3948" y2="571.00085"><stop offset="0" stop-color="#00d4aa"/><stop offset="1" stop-color="#2affd5"/></linearGradient><g transform="matrix(.049548106104 0 0 .047590322064 19.933392228442 -26.338700294466)"><g fill-rule="evenodd"><path d="m82.028076 1539.9862 425.316784-250.2595-2.8952-470.80435-422.421584 240.99875z" fill="url(#a)"/><path d="m82.119773 1541.0423-425.316773-250.2595 2.8952-470.80426 422.421573 240.99866z" fill="url(#b)"/><path d="m-341.53322 821.22299 425.661769-246.76373 421.893141 246.85544-424.167543 241.9645z" fill="url(#c)"/></g><path d="m147.41902 845.0817c-3.31334 2.99118-9.31571 3.3493-13.40196.77712l-45.260027-28.48992c-3.695827-2.32641-4.607901-6.28071-2.097729-9.27439l38.714066-47.20942-136.353293 98.34626c-3.218288 2.31119-8.30442 2.58185-12.064968.54022-.219131-.1215-.410406-.2156-.631998-.35508-3.300128-2.07734-4.445865-5.50137-2.698841-8.41645l45.583088-78.03873-60.358737 18.16019c-3.62791 1.09651-7.944781.43423-10.594526-1.80584-2.759146-2.19385-3.447978-5.3796-1.790892-8.03564l25.991378-41.14817-55.666909-35.04075c-4.067292-2.55696-4.692546-7.09356-1.383498-10.08087 3.32407-3.00087 9.342087-3.3327 13.407232-.7738l61.4256465 38.66572c3.3871819 2.13213 4.4851343 5.70036 2.6194954 8.62955l-18.5553389 29.37854 59.35605-17.84108c3.588162-1.10509 7.817624-.46495 10.484577 1.70704 2.739738 2.12245 3.525766 5.26087 2.019443 7.92631l-35.558615 60.86847 156.047106-112.50761c3.39953-2.46673 8.77454-2.58186 12.57298-.26319 3.86991 2.87662 4.70188 6.33331 2.2146 9.37099l-74.20982 90.39783 38.8286 24.44152c4.07092 2.56581 4.67194 7.08387 1.36289 10.07118zm45.11639 19.1895-23.37789-14.71572c-4.0625-2.55723-10.09554-2.21185-13.40459.77546-3.31334 2.99119-2.6838 7.52391 1.37871 10.08115l23.37789 14.71572c4.05459 2.55225 10.09125 2.21572 13.40459-.77547 3.3112-2.98925 2.67588-7.52889-1.37871-10.08114zm50.3408 31.68812-24.8789-15.66057c-4.0546-2.55225-10.09555-2.21184-13.4046.77547-3.31334 2.99118-2.67588 7.52888 1.37872 10.08114l24.8789 15.66057c4.05196 2.55059 10.09126 2.21572 13.4046-.77547 3.31119-2.98925 2.67324-7.53055-1.37872-10.08114z" fill="#fff" fill-opacity=".80102"/></g></svg>