<svg height="48" width="48" xmlns="http://www.w3.org/2000/svg" xmlns:xlink="http://www.w3.org/1999/xlink"><linearGradient gradientUnits="userSpaceOnUse" x1="0" x2="47" y1="23.5" y2="23.5"><stop offset="0" stop-color="#a9a3d4"/><stop offset=".47001833" stop-color="#87baff"/><stop offset="1" stop-color="#89ec85"/></linearGradient><linearGradient id="a" gradientUnits="userSpaceOnUse" x1="451.82684" x2="451.05292" y1="544.80963" y2="503.08905"><stop offset="0" stop-color="#118702"/><stop offset="1" stop-color="#80e950"/></linearGradient><linearGradient id="b" gradientUnits="userSpaceOnUse" x1="9.125" x2="136.875" y1="61.696375" y2="61.696375"><stop offset="0" stop-color="#dce2ff"/><stop offset="1" stop-color="#f8feff"/></linearGradient><g stroke-width="1.317422" transform="matrix(1.199999650171 0 0 1.199999650171 3.176860870631 -1208.208316863007)"><rect fill="url(#a)" height="40" ry="20" transform="matrix(.958333617971 0 0 .958333617971 -374.195127040956 524.867326062669)" width="40" x="388.57144" y="503.798"/><path d="m134.88088 81.943c-1.33088-1.330875-2.94613-1.995875-4.84838-1.995875h-6.8425v-13.6885c0-2.471-.90387-4.610375-2.709-6.4155-1.806-1.806875-3.94625-2.709875-6.41725-2.709875h-36.49975v-13.687625h6.8425c1.90225 0 3.518375-.665 4.848375-1.995875 1.330875-1.33 1.995-2.946125 1.995-4.8475v-22.812125c0-1.901375-.665-3.5175-1.995-4.8475-1.330875-1.330875-2.946125-1.995875-4.848375-1.995875h-22.812125c-1.901375 0-3.516625.665-4.8475 1.995875-1.330875 1.33-1.995875 2.946125-1.995875 4.8475v22.812125c0 1.901375.665 3.516625 1.995875 4.8475 1.33 1.330875 2.946125 1.995875 4.8475 1.995875h6.843375v13.687625h-36.49975c-2.471875 0-4.610375.903875-6.416375 2.709875-1.806 1.805125-2.709 3.9445-2.709 6.4155v13.6885h-6.84425c-1.9005 0-3.516625.665875-4.8475 1.995875-1.330875 1.33-1.995875 2.946125-1.995875 4.8475v22.81212c0 1.90138.665 3.5175 1.995875 4.8475 1.330875 1.33088 2.947 1.99588 4.8475 1.99588h22.813c1.9005 0 3.516625-.66588 4.8475-1.99588s1.995875-2.94612 1.995875-4.8475v-22.81212c0-1.901375-.665-3.516625-1.995875-4.8475s-2.947-1.995875-4.8475-1.995875h-6.84425v-13.6885h36.49975v13.6885h-6.843375c-1.901375 0-3.516625.665875-4.8475 1.995875s-1.995875 2.946125-1.995875 4.8475v22.81212c0 1.90138.665 3.5175 1.995875 4.8475 1.33 1.33088 2.946125 1.99588 4.8475 1.99588h22.812125c1.90225 0 3.5175-.66588 4.848375-1.99588 1.33-1.33087 1.995875-2.94612 1.995875-4.8475v-22.81212c0-1.901375-.665-3.516625-1.995875-4.8475s-2.946125-1.995875-4.848375-1.995875h-6.8425v-13.6885h36.500625v13.6885h-6.84425c-1.9005 0-3.5175.665875-4.84837 1.995875-1.33 1.330875-1.995 2.946125-1.995 4.8475v22.81212c0 1.90138.665 3.5175 1.995 4.8475 1.33087 1.33088 2.94787 1.99588 4.84837 1.99588h22.813c1.9005 0 3.51575-.66588 4.84663-1.99588 1.33087-1.33 1.99587-2.94612 1.99587-4.8475v-22.81212c0-1.901375-.665-3.5175-1.99412-4.8475z" fill="url(#b)" transform="matrix(.18264845432 0 0 .18264845432 4.01928406709 1015.333716394497)"/></g></svg>