<svg height="48" width="48" xmlns="http://www.w3.org/2000/svg" xmlns:xlink="http://www.w3.org/1999/xlink">
  <linearGradient id="a" gradientTransform="matrix(1.0078442 0 0 1.0071874 -29.447007 -20.112563)" gradientUnits="userSpaceOnUse" x1="535.89557" x2="535.97198" y1="565.72424" y2="519.87158">
    <stop offset="0" stop-color="#187ced" />
    <stop offset="1" stop-color="#42d6fc" />
  </linearGradient>
  <linearGradient id="b" gradientUnits="userSpaceOnUse" x1="509.117497" x2="509.117497" y1="549.72587" y2="503.725835">
    <stop offset="0" stop-color="#3889e9" />
    <stop offset="1" stop-color="#5ea5fb" />
  </linearGradient>
  <g stroke-width="1.317422" transform="translate(-486.76034 -502.72583)">
    <circle cx="510.76035" cy="526.72583" fill="url(#a)" r="23" />
    <circle cx="510.76035" cy="526.72583" fill="none" r="22.999949" />
    <circle cx="510.76025" cy="526.72577" fill="url(#b)" r="0" />
    <g fill="#fff" fill-opacity=".847059" transform="matrix(.04898249 0 0 .04898249 495.26034 514.16821)">
      <path d="m707.494 193.557c-1.938-1.539-20.029-15.199-58.181-15.199-10.074.044-20.127.908-30.061 2.584-7.384-50.612-49.228-75.288-51.104-76.395l-10.245-5.908-6.738 9.723c-8.438 13.061-14.598 27.459-18.214 42.582-6.831 28.891-2.677 56.027 11.999 79.226-17.722 9.876-46.151 12.307-51.904 12.522h-470.679c-12.294.017-22.27 9.952-22.337 22.245-.549 41.234 6.437 82.222 20.614 120.946 16.214 42.521 40.336 73.842 71.719 93.01 35.167 21.537 92.302 33.844 157.067 33.844 29.258.092 58.461-2.556 87.226-7.907 39.986-7.342 78.463-21.318 113.839-41.352 29.149-16.88 55.383-38.354 77.688-63.596 37.29-42.213 59.505-89.226 76.026-131.007h6.584c40.828 0 65.935-16.338 79.78-30.029 9.201-8.732 16.384-19.369 21.045-31.167l2.923-8.553z" />
      <path d="m65.995 228.909h63.073c3.042 0 5.507-2.466 5.507-5.507v-56.182c.017-3.042-2.435-5.521-5.476-5.538-.01 0-.021 0-.031 0h-63.073c-3.042 0-5.507 2.466-5.507 5.507v.031 56.181c0 3.042 2.465 5.508 5.507 5.508z" />
      <path d="m152.913 228.909h63.073c3.042 0 5.507-2.466 5.507-5.507v-56.182c.017-3.042-2.435-5.521-5.477-5.538-.01 0-.021 0-.031 0h-63.073c-3.059 0-5.538 2.479-5.538 5.538v56.181c.018 3.047 2.492 5.508 5.539 5.508" />
      <path d="m241.153 228.909h63.073c3.042 0 5.507-2.466 5.507-5.507v-56.182c.017-3.042-2.435-5.521-5.477-5.538-.01 0-.021 0-.031 0h-63.073c-3.042 0-5.507 2.466-5.507 5.507v.031 56.181c.001 3.042 2.467 5.508 5.508 5.508z" />
      <path d="m328.348 228.909h63.073c3.047 0 5.521-2.46 5.538-5.507v-56.182c0-3.059-2.479-5.538-5.538-5.538h-63.073c-3.042 0-5.507 2.466-5.507 5.507v.031 56.181c0 3.042 2.466 5.508 5.507 5.508z" />
      <path d="m152.913 148.083h63.073c3.046-.017 5.507-2.492 5.507-5.538v-56.181c0-3.042-2.466-5.507-5.507-5.507h-63.073c-3.046 0-5.521 2.46-5.538 5.507v56.181c.017 3.052 2.486 5.521 5.538 5.538" />
      <path d="m241.153 148.083h63.073c3.046-.017 5.507-2.492 5.507-5.538v-56.181c0-3.042-2.466-5.507-5.507-5.507h-63.073c-3.042 0-5.507 2.466-5.507 5.507v56.181c0 3.046 2.461 5.521 5.507 5.538" />
      <path d="m328.348 148.083h63.073c3.052-.017 5.521-2.486 5.538-5.538v-56.181c-.017-3.047-2.491-5.507-5.538-5.507h-63.073c-3.042 0-5.507 2.466-5.507 5.507v56.181c0 3.046 2.461 5.521 5.507 5.538" />
      <path d="m328.348 67.227h63.073c3.047 0 5.521-2.461 5.538-5.507v-56.213c-.017-3.047-2.491-5.507-5.538-5.507h-63.073c-3.042 0-5.507 2.465-5.507 5.507v56.212c0 3.042 2.466 5.508 5.507 5.508" />
      <path d="m416.312 228.909h63.073c3.047 0 5.521-2.46 5.538-5.507v-56.182c0-3.059-2.479-5.538-5.538-5.538h-63.073c-3.041 0-5.507 2.466-5.507 5.507v.031 56.181c0 3.042 2.466 5.508 5.507 5.508" />
    </g>
  </g>
</svg>
