<svg height="48" width="48" xmlns="http://www.w3.org/2000/svg" xmlns:xlink="http://www.w3.org/1999/xlink"><linearGradient gradientUnits="userSpaceOnUse" x1="0" x2="47" y1="23.5" y2="23.5"><stop offset="0" stop-color="#a9a3d4"/><stop offset=".47001833" stop-color="#87baff"/><stop offset="1" stop-color="#89ec85"/></linearGradient><linearGradient id="a" gradientUnits="userSpaceOnUse" x1="209.5549" x2="202.58337" y1="385.20599" y2=".062832"><stop offset="0" stop-color="#8645a3"/><stop offset="1" stop-color="#d164ff"/></linearGradient><linearGradient id="b" gradientTransform="matrix(.24841536 0 0 .24427878 433.38377 517.17091)" gradientUnits="userSpaceOnUse" x1="10.09375" x2="122.719" y1="107.36093" y2="107.36093"><stop offset="0" stop-color="#1a1a1a"/><stop offset=".11054216" stop-color="#2c2c2e"/><stop offset=".29001436" stop-color="#2b2b2d"/><stop offset=".5118711" stop-color="#2a2b2d"/><stop offset=".75173318" stop-color="#2b2b2d"/><stop offset=".89659214" stop-color="#323232"/><stop offset="1" stop-color="#171717"/></linearGradient><linearGradient id="c" gradientUnits="userSpaceOnUse" x1="449.42804" x2="449.54932" y1="540.74573" y2="518.40662"><stop offset="0" stop-color="#b6b9bf"/><stop offset="1" stop-color="#dddfe2"/></linearGradient><linearGradient id="d" gradientTransform="matrix(.50539571 0 0 1 229.14839 2.166555)" gradientUnits="userSpaceOnUse" x1="451.02078" x2="451.02078" xlink:href="#e" y1="544.14978" y2="543.0885"/><linearGradient id="e"><stop offset="0" stop-color="#0bac83"/><stop offset="1" stop-color="#13ffaf"/></linearGradient><linearGradient id="f" gradientUnits="userSpaceOnUse" x1="467.17453" x2="467.17453" y1="546.953375" y2="544.830825"><stop offset="0" stop-color="#040404"/><stop offset="1" stop-color="#121212" stop-opacity=".908163"/></linearGradient><linearGradient id="g" gradientUnits="userSpaceOnUse" x1="70.337623" x2="69.495489" xlink:href="#e" y1="81.701629" y2="16.72187"/><g fill="url(#a)" stroke-width="1.317422" transform="matrix(.347710134634 0 0 .347710146634 -.592251630582 -3.986347922715)"><path d="m435.89128 541.07281.24841 3.91531c0 .40601.33238.73288.74525.73288h25.99045c.41287 0 .74526-.32687.74526-.73288l.24841-3.91531z" fill="url(#b)" transform="matrix(3.9022184 0 0 3.9022182 -1684.8114 -1982.8878)"/><path d="m438.12877 518.12187h23.25963c.41287 0 .74526.32687.74526.73287l1.739 22.0998c0 .406-.33237.73288-.74524.73288h-26.48903c-.41287 0-.74524-.32688-.74524-.73288l1.49038-22.09974c0-.406.33238-.73293.74524-.73293z" fill="url(#c)" transform="matrix(3.9022184 0 0 3.9022182 -1684.8114 -1982.8878)"/><rect fill="url(#d)" height=".768874" ry=".384437" transform="matrix(3.9022184 0 0 3.9022182 -1710.8766 -1991.135)" width="11.463281" x="450.87326" y="545.61273"/><ellipse cx="467.08929" cy="546.02448" fill="url(#f)" opacity=".452" rx="1.06128" ry="1.061274" transform="matrix(3.9022184 0 0 3.9022182 -1710.8766 -1991.135)"/><path d="m63 73.215c2.824 0 5.27-1.031 7.332-3.096 2.064-2.063 3.098-4.508 3.098-7.332v-52.144c0-2.825-1.033-5.269-3.098-7.332-2.062-2.065-4.507-3.097-7.332-3.097s-5.269 1.033-7.333 3.097c-2.064 2.063-3.096 4.508-3.096 7.332v52.144c0 2.824 1.032 5.269 3.096 7.332 2.064 2.065 4.509 3.096 7.333 3.096z" fill="#e3e8ea" opacity=".668" stroke-width="1.317422" transform="matrix(.03309317 0 0 .03309317 109.71389 137.25634)"/><path d="m119.014 45.269c-4.373-8.744-10.523-16.077-18.453-21.997-2.281-1.738-4.861-2.417-7.74-2.037s-5.16 1.738-6.844 4.073c-1.738 2.281-2.403 4.847-1.996 7.699.406 2.853 1.752 5.147 4.033 6.885 5.321 4.019 9.438 8.935 12.342 14.747 2.906 5.811 4.358 12.004 4.358 18.575 0 5.65-1.1 11.04-3.299 16.173-2.2 5.133-5.174 9.573-8.922 13.321-3.748 3.747-8.187 6.721-13.32 8.921s-10.524 3.301-16.173 3.301c-5.648 0-11.039-1.101-16.172-3.301s-9.573-5.174-13.321-8.921c-3.747-3.748-6.721-8.188-8.921-13.321s-3.3-10.523-3.3-16.173c0-6.571 1.453-12.763 4.359-18.575 2.906-5.811 7.02-10.727 12.343-14.747 2.281-1.739 3.625-4.033 4.033-6.885.407-2.851-.258-5.418-1.996-7.699-1.684-2.335-3.951-3.693-6.803-4.073s-5.446.299-7.781 2.037c-7.931 5.92-14.081 13.253-18.454 21.997-4.373 8.745-6.559 18.06-6.559 27.945 0 8.474 1.657 16.566 4.97 24.279 3.314 7.713 7.767 14.366 13.362 19.961 5.594 5.594 12.248 10.049 19.961 13.36 7.713 3.314 15.806 4.972 24.279 4.972s16.566-1.658 24.279-4.972c7.713-3.312 14.367-7.766 19.961-13.36s10.047-12.248 13.361-19.961c3.313-7.713 4.969-15.806 4.969-24.279 0-9.885-2.183-19.2-6.556-27.945z" fill="#e3e8ea" opacity=".668" stroke-width="1.317422" transform="matrix(.03309317 0 0 .03309317 109.71389 137.25634)"/><path d="m483.93874 236.08102c-4.27032-1.39905-6.21453-5.83116-4.2497-9.68785.89142-1.74973 2.06656-2.71474 3.9885-3.27529 2.50582-.73085 5.25503.27848 6.69809 2.4591.98792 1.49284 1.10132 3.8905.25862 5.46817-1.97815 3.70335-7.40222 3.62445-8.83549-.12852-.83174-2.17787.13112-4.44928 2.22503-5.24896 2.12351-.81097 4.35433.4883 4.60137 2.67992.10398.92282.0189 1.21821-.54418 1.8873-1.21591 1.44504-3.20967 1.2781-3.94242-.3301-.38892-.85362-.098-1.01592.69822-.38959.84185.66221 1.46434.67064 2.10643.0285.66041-.6604.63199-1.32063-.0931-2.16356-1.34903-1.56836-3.96132-.29418-4.01063 1.95622-.0278 1.27121.58478 2.2527 1.76427 2.82655 2.989 1.45419 6.29132-1.82643 5.07613-5.04274-.33489-.88633-1.38582-2.0081-2.35547-2.51418-1.95907-1.02251-4.95957-.0778-6.32996 1.99298-.57144.86352-.68254 1.30232-.68254 2.69584 0 1.41595.11307 1.84732.75734 2.88938.47006.76033 1.22238 1.5122 1.98341 1.98227 1.06865.66008 1.45342.75609 2.99623.74755 3.65396-.02 6.16055-2.36477 6.91713-6.47004.53602-2.90842-.52476-6.21091-2.66225-8.28831-.76226-.74083-1.10844-1.28478-1.10844-1.74165 0-.76256-.40472-1.63242-.75951-1.63242-.13621 0-.24143.92975-.24143 2.13318v2.13318l1.12606.68017c1.23505.74601 1.52225 1.55964.55052 1.55964-.31655 0-.70075-.12521-.85379-.27825-.15305-.15304-.99196-.52401-1.86426-.82438-1.62087-.55815-2.10616-1.20075-1.023-1.35458.48436-.0688.56303-.23057.56303-1.15764v-1.07767l-1.39933-.11605c-1.57559-.13066-1.8443-.38634-1.84991-1.76015-.003-.5161-.10261-.93839-.22342-.93839-.56077 0-.88083.93637-.98255 2.87465-.10706 2.03963-.096 2.08927.48117 2.17129 1.13933.16187.85563.90652-.58872 1.54528-.73955.32705-1.76117.96038-2.27028 1.40738-.92571.81279-1.67501.88187-1.67501.15442 0-.20392.50673-.79433 1.12606-1.31203 1.11014-.92796 1.12608-.96301 1.12608-2.47781 0-1.91206-.6337-2.97036-2.31155-3.86046l-1.17504-.62335-1.08689 1.06671-1.08691 1.06672-4.98973-.0681c-4.96056-.0676-4.99019-.0712-5.06966-.63103l-.08-.56303h3.86544c3.13067 0 3.92467-.0714 4.17696-.37536.27494-.33128-.21732-.37536-4.19274-.37536-3.30312 0-4.57364-.0837-4.76441-.31343-.28485-.34323-.0154-2.28883.48812-3.52337.80571-1.89795 2.15312-3.68811 3.76592-5.02052 1.37024-1.13201 5.35523-2.43655 6.31636-2.06772.30935.11871.38866.58472.38866 2.284 0 1.17419.0901 2.13488.20018 2.13488.49119 0 .80076-.69279.80076-1.79206 0-1.1883.004-1.19229 1.06351-1.48882 1.64987-.46127 5.51957-.33534 7.76654.25276 6.18151 1.61786 10.6958 5.94366 12.21806 11.70786.69137 2.61798.74913 6.84996.12229 8.96198-1.14782 3.8674-3.63686 6.94801-6.81575 8.43557-1.32876.6218-2.07517.80141-3.57529.86028-1.04277.041-2.17819-.0181-2.52316-.13108zm-7.74414-15.14005c-.21676-.57011-.39341-.63885-1.81496-.70635-1.41587-.0673-1.58289-.13161-1.65479-.63782-.0761-.53637.00025-.56303 1.61601-.56303 1.60905 0 1.74314-.0462 2.61711-.89951.79657-.77782.99262-.86123 1.44942-.61678.7206.38565.66578.72498-.27383 1.69437-.49095.50656-.8064 1.09177-.81327 1.50875-.0152.9248-.7995 1.07832-1.12569.22037z" fill="#a1a7ae" stroke="#909296" stroke-width=".15923" transform="matrix(1.9337341 0 0 1.6481171 -858.33356 -277.184)"/><g fill-rule="evenodd"><path d="m3002.1818-2197.0995 39.3048-129.1575c14.1356-55.5677 27.6067-44.3228 83.7808-44.3228h1023.7081l205.7436 238.2305-1282.836 10.121c-84.7668 1.0471-98.712 20.4591-69.7013-74.8712z" fill="#0cb185" transform="matrix(.01621738 0 0 .01399082 -5.336407 84.10625)"/><path d="m6383.4495-2185.7915-34.2791-112.6428c-15.6733-76.792-25.9295-72.1455-99.058-72.1455h-1016.8978l-205.7436 238.2304 1274.6062 10.0561c77.2452-3.1881 109.8966 30.2339 81.3723-63.4982z" fill="#0bb084" transform="matrix(.01621738 0 0 .01399082 -5.336407 84.10625)"/><path d="m3963.8055-4807.7305 34.554-106.6029c15.6733-76.792 25.9295-72.1455 99.058-72.1455l1016.8978.036 205.7436 238.2276-1318.0111-.0003c-61.5899 3.1273-58.9883 4.4886-38.2423-59.5149z" fill="#0bae84" transform="matrix(.01621738 0 0 .01399082 -5.336407 84.10625)"/><path d="m5444.5468-4805.8007-34.554-106.6029c-15.6733-76.792-25.9295-72.1455-99.058-72.1455l-1016.8978.036-205.7436 238.2276 1318.0111-.0003c61.5899 3.1273 58.9883 4.4886 38.2423-59.5149z" fill="#0baf84" transform="matrix(.01621738 0 0 .01399082 -5.336407 84.10625)"/></g><path d="m69.2374 82.349706-24.810192-25.484535s-3.680059-3.794297.818804-3.794297h13.480205v-4.416371-29.916957c-.08772-1.776285.01054-1.925522 1.737783-1.916546h21.003c1.493491-.165868 1.842105.04934 1.84128 1.631126v29.986478 4.632248l12.90441-.000027c4.15825-.000009 1.226724 3.172303 1.226724 3.172303s-21.108465 23.819718-24.052633 26.318775c-2.117733 1.811199-4.149381-.212197-4.149381-.212197z" fill="url(#g)"/></g></svg>