<svg height="48" width="48" xmlns="http://www.w3.org/2000/svg" xmlns:xlink="http://www.w3.org/1999/xlink"><linearGradient id="a"><stop offset="0" stop-color="#b3b3b3"/><stop offset="1" stop-color="#f2f2f2"/></linearGradient><linearGradient id="b" gradientUnits="userSpaceOnUse" x1="421.204763995424" x2="400.989865495424" xlink:href="#a" y1="545.009135380312" y2="500.9276460808"/><radialGradient id="c" cx="353.8006" cy="529.0531" gradientTransform="matrix(1.6417446 .02696857 -.03175592 1.9331823 -159.86473 -502.66436)" gradientUnits="userSpaceOnUse" r="13.381738"><stop offset="0" stop-color="#333"/><stop offset="1" stop-color="#1a1a1a"/></radialGradient><radialGradient id="d" cx="58.827682" cy="634.80988" gradientTransform="matrix(1.1835942 .32304133 -.52311854 1.9166592 367.27112 -577.95539)" gradientUnits="userSpaceOnUse" r="4.419524"><stop offset="0" stop-color="#b3b3b3"/><stop offset="1" stop-color="#666"/></radialGradient><linearGradient id="e" gradientUnits="userSpaceOnUse" x1="397.349827786272" x2="408.476842861272" xlink:href="#a" y1="543.907501547186" y2="526.001960047186"/><linearGradient id="f" gradientUnits="userSpaceOnUse" x1="278.719566395656" x2="278.719566395656" y1="553.006343004103" y2="509.441985804103"><stop offset="0" stop-color="#3889e9"/><stop offset="1" stop-color="#5ea5fb"/></linearGradient><linearGradient id="g" gradientUnits="userSpaceOnUse" x1="389.82275" x2="405.32269" y1="524.44824" y2="542.47949"><stop offset="0" stop-color="#0fc"/><stop offset="1" stop-color="#0a8"/></linearGradient><g transform="translate(-384.57143 -499.798)"><path d="m403.62969 501.5702a24.899401 11.819353 59.254433 0 0 -4.42908 1.95042 24.899401 11.819353 59.254433 0 0 -1.38523 1.52877 24.899401 11.819353 59.254433 0 0 -1.43547 4.6982c-.14528.36247-.28169.7264-.60516 1.43285-.55578 2.01571-.87147 4.15858-1.18618 8.04949-.0534.66088-.0842 1.00108-.12466 1.25699-.10581-.0453-.92835.77736-1.26257 1.26698-.11529.16888-.216.35586-.31564.54356-.24279.17177-.46666.32809-.98916.67145-.78923.51865-1.63136 1.10595-1.87177 1.30495-1.30555 1.08069-2.09278 2.6796-2.36432 4.80013-.10883.85017-.0747 2.43866.0704 3.27336.19601 1.12749.41806 1.91906.84036 2.99757 1.77409 4.5307 5.55857 8.01298 9.27435 8.53511.51203.0719 1.44704.0586 1.95619-.0279.80536-.13684 1.35087-.35085 3.39972-1.32893.19069-.0911.34951-.15382.52273-.22982.0352.005.0714.0136.10655.018.39845.0496 1.20548.0276 1.61844-.044.49836-.0864 1.08508-.26925 1.13995-.35171.34712.14891.92872.41296 1.84761.8613 4.21748 2.05773 5.7563 2.62767 9.00897 3.33331.4182.0908 1.07682.23996 1.46162.33174.6183.14751 1.3734.27995 1.88181.33172.37292.038 1.2066.0305 1.61442-.016.4876-.0556.92631-.1568 1.345-.28178a24.899401 11.819353 59.254433 0 0 2.74632-1.62468 24.899401 11.819353 59.254433 0 0 1.50988-1.63868 24.899401 11.819353 59.254433 0 0 -7.81877-30.25157l-.0222-.034a24.899401 11.819353 59.254433 0 0 -16.53419-11.35683zm1.20629 3.24338a21.770096 10.242012 59.97479 0 1 14.25833 9.97794l.024.026a21.770096 10.242012 59.97479 0 1 6.74316 26.57654 21.770096 10.242012 59.97479 0 1 -.60115.79137 21.770096 10.242012 59.97479 0 1 -17.37858-8.93879 21.770096 10.242012 59.97479 0 1 -6.75722-26.58053 21.770096 10.242012 59.97479 0 1  .60515-.79935 21.770096 10.242012 59.97479 0 1 3.10619-1.05315z" fill-opacity=".666667"/><path d="m419.18063 513.35528a22.412304 10.512212 60.208804 0 1 6.9108 27.40057 22.412304 10.512212 60.208804 0 1 -19.14191-7.73928 22.412304 10.512212 60.208804 0 1 -6.92633-27.40684 22.412304 10.512212 60.208804 0 1 19.13628 7.71704" fill="url(#c)"/><path d="m111.08217 656.95844a4.5219412 8.8058863 0 0 1 -4.52011 8.80588 4.5219412 8.8058863 0 0 1 -4.52377-8.79874 4.5219412 8.8058863 0 0 1 4.51643-8.81302 4.5219412 8.8058863 0 0 1 4.52744 8.79158" fill="url(#d)" transform="matrix(.88006121 -.47486026 .47486026 .88006121 0 0)"/><path d="m420.65211 546.00266c-.50536-.0518-1.25592-.18537-1.87048-.33288-.3825-.0918-1.03556-.24116-1.45124-.33188-3.23311-.70564-4.76427-1.27548-8.95637-3.33322-1.12109-.5503-2.13547-1.02567-2.25417-1.05636-.56625-.14646-1.49844.10775-2.94781.80383-2.03652.97808-2.57903 1.19128-3.37955 1.32812-.50609.0866-1.43702.0999-1.94596.0279-3.69343-.52213-7.45478-4.005-9.21819-8.53571-.41977-1.0785-.64031-1.87008-.83515-2.99758-.14424-.83469-.17818-2.42206-.07-3.27223.2699-2.12053 1.05305-3.71981 2.35076-4.8005.23895-.19899 1.07631-.78615 1.86079-1.3048 1.38111-.9131 1.44363-.96123 1.97173-1.51787.63458-.66889.55979-.4327.70365-2.222.31281-3.89092.62652-6.03244 1.17897-8.04816 1.71824-3.77536.3286-2.90501 2.01535 5.45825.47807 2.28526.98939 3.99305 1.67292 5.58748 1.60667 3.74782 2.87771 6.2008 4.59755 8.87284 4.04998 6.29223 9.15131 11.17696 13.72509 13.14234 3.4394 1.3814 8.08043.63239 8.43954.62578-1.12175 1.12871-2.32442 1.69917-3.98274 1.88914-.40536.0464-1.23408.0554-1.60475.0175z" fill="url(#e)"/><path d="m403.79654 541.5395c-1.6548-.20739-3.47241-1.07067-5.1448-2.44352-.67798-.55657-1.86968-1.76666-2.42091-2.45828-2.10801-2.64493-3.55378-5.84419-4.05106-8.96441-.13891-.87151-.19166-2.49664-.10545-3.24796.15916-1.3869.54942-2.54916 1.15623-3.44347.33835-.49866 1.18902-1.35171 1.26858-1.27214.0142.0142-.009.71201-.0542 1.55053-.16546 3.1401-.0812 4.42826.41222 6.30911 1.18734 4.52514 4.22113 8.95362 7.69233 11.22868.65072.42648 1.76754 1.06962 3.10695 1.78919.50544.27152.91205.51707.90356.54565-.0232.0785-.64579.274-1.15536.36287-.41048.0716-1.21188.0933-1.60793.0437z" fill="url(#g)"/><path d="m402.90127 501.44017a24.860446 11.766668 59.493793 0 0 -5.08429 2.83661 24.860446 11.766668 59.493793 0 0 7.78844 30.26122 24.860446 11.766668 59.493793 0 0 21.5252 8.54446 24.860446 11.766668 59.493793 0 0 -7.77214-30.25305l-.0224-.0325a24.860446 11.766668 59.493793 0 0 -16.43479-11.35662zm1.89515 2.60227a21.737466 10.195687 60.208804 0 1 14.17285 9.97703l.0224.0265a21.737466 10.195687 60.208804 0 1 6.70231 26.57689 21.737466 10.195687 60.208804 0 1 -18.56632-7.50722 21.737466 10.195687 60.208804 0 1 -6.71657-26.58097 21.737466 10.195687 60.208804 0 1 4.38533-2.49222z" fill="#333"/><path d="m403.5962 500.79927a24.860446 11.766668 59.493793 0 0 -5.08429 2.8366 24.860446 11.766668 59.493793 0 0 7.78843 30.26123 24.860446 11.766668 59.493793 0 0 21.5252 8.54445 24.860446 11.766668 59.493793 0 0 -7.77214-30.25306l-.0224-.0325a24.860446 11.766668 59.493793 0 0 -16.4348-11.35666zm1.89513 2.60225a21.737466 10.195687 60.208804 0 1 14.17285 9.97703l.0224.0265a21.737466 10.195687 60.208804 0 1 6.7023 26.57689 21.737466 10.195687 60.208804 0 1 -18.56633-7.50723 21.737466 10.195687 60.208804 0 1 -6.71656-26.58097 21.737466 10.195687 60.208804 0 1 4.38532-2.49222z" fill="url(#b)"/><circle cx="280.27536" cy="531.22406" fill="url(#f)" r="0"/></g></svg>