<svg height="48" width="48" xmlns="http://www.w3.org/2000/svg" xmlns:xlink="http://www.w3.org/1999/xlink"><linearGradient gradientUnits="userSpaceOnUse" x1="0" x2="47" y1="23.5" y2="23.5"><stop offset="0" stop-color="#a9a3d4"/><stop offset=".47001833" stop-color="#87baff"/><stop offset="1" stop-color="#89ec85"/></linearGradient><linearGradient id="a"><stop offset="0" stop-color="#dce2ff"/><stop offset="1" stop-color="#f8feff"/></linearGradient><linearGradient id="b" gradientUnits="userSpaceOnUse" x1="482.82102169783" x2="481.663445071116" xlink:href="#a" y1="235.816574276542" y2="204.672267790123"/><linearGradient id="c" gradientUnits="userSpaceOnUse" x1="399.49411" x2="399.53265" y1="559.30768" y2="504.81726"><stop offset="0" stop-color="#118702"/><stop offset="1" stop-color="#80e950"/></linearGradient><linearGradient id="d" gradientUnits="userSpaceOnUse" x1="397.5907" x2="411.6091" xlink:href="#a" y1="537.92432" y2="537.92432"/><g stroke-width="1.317422" transform="matrix(1.000000004476 0 0 1.000000004476 -486.760340300875 -502.725834528142)"><rect fill="url(#c)" height="28.000027" ry="14.000006" transform="matrix(1.634735284396 0 0 1.634735284396 -144.067942974664 -342.623101496776)" width="28.000011" x="386.57144" y="517.79797"/><path d="m409.03112 539.84875c-.81855 0-1.54059.39154-2.01228.99113l-4.37528-2.24653c.0573-.2145.0985-.43612.0985-.66937 0-.25391-.0489-.49298-.11711-.72557l4.35596-2.23618c.46913.62672 1.20981 1.03635 2.05088 1.03635 1.42476 0 2.57731-1.15718 2.57731-2.58638 0-1.42789-1.15255-2.58572-2.57731-2.58572-1.42152 0-2.57534 1.15783-2.57534 2.58572 0 .2339.0412.45616.0991.67131l-4.37399 2.24652c-.47234-.60022-1.19566-.99306-2.01549-.99306-1.42346 0-2.57536 1.15847-2.57536 2.58701 0 1.42855 1.1519 2.58638 2.57536 2.58638.84236 0 1.58241-.41093 2.05346-1.03829l4.35405 2.23618c-.0682.23195-.11777.47295-.11777.72751 0 1.42855 1.15383 2.58638 2.57536 2.58638 1.42475 0 2.57729-1.15783 2.57729-2.58638 0-1.42983-1.15254-2.58701-2.57729-2.58701z" fill="url(#d)" transform="matrix(1.695884677261 0 0 1.690657587773 -176.894658904376 -382.320006905564)"/><path d="m483.93874 236.08102c-4.27032-1.39905-6.21453-5.83116-4.2497-9.68785.89142-1.74973 2.06656-2.71474 3.9885-3.27529 2.50582-.73085 5.25503.27848 6.69809 2.4591.98792 1.49284 1.10132 3.8905.25862 5.46817-1.97815 3.70335-7.40222 3.62445-8.83549-.12852-.83174-2.17787.13112-4.44928 2.22503-5.24896 2.12351-.81097 4.35433.4883 4.60137 2.67992.10398.92282.0189 1.21821-.54418 1.8873-1.21591 1.44504-3.20967 1.2781-3.94242-.3301-.38892-.85362-.098-1.01592.69822-.38959.84185.66221 1.46434.67064 2.10643.0285.66041-.6604.63199-1.32063-.0931-2.16356-1.34903-1.56836-3.96132-.29418-4.01063 1.95622-.0278 1.27121.58478 2.2527 1.76427 2.82655 2.989 1.45419 6.29132-1.82643 5.07613-5.04274-.33489-.88633-1.38582-2.0081-2.35547-2.51418-1.95907-1.02251-4.95957-.0778-6.32996 1.99298-.57144.86352-.68254 1.30232-.68254 2.69584 0 1.41595.11307 1.84732.75734 2.88938.47006.76033 1.22238 1.5122 1.98341 1.98227 1.06865.66008 1.45342.75609 2.99623.74755 3.65396-.02 6.16055-2.36477 6.91713-6.47004.53602-2.90842-.52476-6.21091-2.66225-8.28831-.76226-.74083-1.10844-1.28478-1.10844-1.74165 0-.76256-.40472-1.63242-.75951-1.63242-.13621 0-.24143.92975-.24143 2.13318v2.13318l1.12606.68017c1.23505.74601 1.52225 1.55964.55052 1.55964-.31655 0-.70075-.12521-.85379-.27825-.15305-.15304-.99196-.52401-1.86426-.82438-1.62087-.55815-2.10616-1.20075-1.023-1.35458.48436-.0688.56303-.23057.56303-1.15764v-1.07767l-1.39933-.11605c-1.57559-.13066-1.8443-.38634-1.84991-1.76015-.003-.5161-.10261-.93839-.22342-.93839-.56077 0-.88083.93637-.98255 2.87465-.10706 2.03963-.096 2.08927.48117 2.17129 1.13933.16187.85563.90652-.58872 1.54528-.73955.32705-1.76117.96038-2.27028 1.40738-.92571.81279-1.67501.88187-1.67501.15442 0-.20392.50673-.79433 1.12606-1.31203 1.11014-.92796 1.12608-.96301 1.12608-2.47781 0-1.91206-.6337-2.97036-2.31155-3.86046l-1.17504-.62335-1.08689 1.06671-1.08691 1.06672-4.98973-.0681c-4.96056-.0676-4.99019-.0712-5.06966-.63103l-.08-.56303h3.86544c3.13067 0 3.92467-.0714 4.17696-.37536.27494-.33128-.21732-.37536-4.19274-.37536-3.30312 0-4.57364-.0837-4.76441-.31343-.28485-.34323-.0154-2.28883.48812-3.52337.80571-1.89795 2.15312-3.68811 3.76592-5.02052 1.37024-1.13201 5.35523-2.43655 6.31636-2.06772.30935.11871.38866.58472.38866 2.284 0 1.17419.0901 2.13488.20018 2.13488.49119 0 .80076-.69279.80076-1.79206 0-1.1883.004-1.19229 1.06351-1.48882 1.64987-.46127 5.51957-.33534 7.76654.25276 6.18151 1.61786 10.6958 5.94366 12.21806 11.70786.69137 2.61798.74913 6.84996.12229 8.96198-1.14782 3.8674-3.63686 6.94801-6.81575 8.43557-1.32876.6218-2.07517.80141-3.57529.86028-1.04277.041-2.17819-.0181-2.52316-.13108zm-7.74414-15.14005c-.21676-.57011-.39341-.63885-1.81496-.70635-1.41587-.0673-1.58289-.13161-1.65479-.63782-.0761-.53637.00025-.56303 1.61601-.56303 1.60905 0 1.74314-.0462 2.61711-.89951.79657-.77782.99262-.86123 1.44942-.61678.7206.38565.66578.72498-.27383 1.69437-.49095.50656-.8064 1.09177-.81327 1.50875-.0152.9248-.7995 1.07832-1.12569.22037z" fill="url(#b)" opacity=".85" stroke-width="1.317422" transform="matrix(.950067408848 0 0 .950067408848 -94.550273121575 307.789228473287)"/></g></svg>