<svg height="48" viewBox="0 0 48 48" width="48" xmlns="http://www.w3.org/2000/svg" xmlns:xlink="http://www.w3.org/1999/xlink"><linearGradient id="a"><stop offset="0" stop-color="#dcebe8"/><stop offset="1" stop-color="#f6f8f7"/></linearGradient><linearGradient id="b" gradientTransform="matrix(1.0373371 0 0 -.8971575 -11.383133 982.74799)" gradientUnits="userSpaceOnUse" x1="307.01227" x2="308.64951" xlink:href="#g" y1="499.50363" y2="536.53101"/><linearGradient id="c" gradientTransform="matrix(1.1864906 0 0 -.90377535 -63.240612 991.27594)" gradientUnits="userSpaceOnUse" x1="331.19839" x2="330.68326" xlink:href="#a" y1="531.93317" y2="493.74561"/><linearGradient gradientUnits="userSpaceOnUse" x1="412.39587" x2="412.8942" y1="544.80792" y2="526.95984"><stop offset="0" stop-color="#0973d9"/><stop offset="1" stop-color="#0cbffe"/></linearGradient><linearGradient id="d" gradientUnits="userSpaceOnUse" x1="430.37764" x2="429.16504" xlink:href="#g" y1="505.940894" y2="473.255594"/><linearGradient id="e" gradientUnits="userSpaceOnUse" x1="322.78955" x2="330.06686" xlink:href="#g" y1="539.17456" y2="536.5354"/><linearGradient id="f" gradientUnits="userSpaceOnUse" x1="312.83197" x2="311.96344" xlink:href="#a" y1="525.35498" y2="509.68469"/><linearGradient id="g"><stop offset="0" stop-color="#0bac83"/><stop offset="1" stop-color="#10da96"/></linearGradient><g transform="matrix(1.143790291047 0 0 1.143790291047 -343.359478952299 -573.700810189701)"><path d="m323.39292 543.76115-11.56968-34.07594h25.13994c4.70665-.19158 5.24311 3.11392 5.24311 3.11392v27.24307s.82431 3.71895-4.15984 3.71895z" fill="url(#c)" fill-rule="evenodd"/><path d="m417.38939 482.29673h18.91658c-.53309 3.41585-2.34421 7.0544-5.38855 10.82415-1.9404-3.10834-3.18834-6.12292-3.89999-8.13019-.17983-.50654-.65853-.84508-1.19546-.84508h-3.11282c-.40446 0-.78492.19295-1.02395.51934-.23871.3267-.30751.74716-.18527 1.13338.73756 2.32246 2.43636 6.88193 5.57702 11.515-3.70991 3.60655-7.40542 6.20579-8.83512 7.16351-.56893.38142-.73244 1.14587-.36894 1.72664l1.56217 2.49845c.18079.28894.47134.49342.80476.56669.0896.0202.18048.0298.27071.0298.24607 0 .48862-.0717.69693-.20831 1.47225-.96764 5.29192-3.60944 9.29174-7.44126 1.47993 1.54233 4.95945 4.24556 7.02111 5.74502.31455.22878.71741.30014 1.09276.19423.37502-.10687.67964-.38015.82748-.73981l1.16538-2.84883c.23423-.57245.0208-1.23194-.50525-1.55737-1.3433-.83324-3.87215-2.54452-5.93637-4.76842 4.53195-5.30376 7.11647-10.4744 7.68541-15.37498h.99867c.70045 0 1.26842-.56797 1.26842-1.26874v-3.38129c0-.70045-.56765-1.26842-1.26842-1.26842h-9.87859v-1.73624c0-.70076-.56765-1.26874-1.26842-1.26874h-3.16466c-.70044 0-1.26842.56766-1.26842 1.26874v1.73624h-9.87859c-.70044 0-1.26842.56766-1.26842 1.26843v3.38128c-.00032.69885.56766 1.26682 1.2681 1.26682z" fill="url(#d)" transform="matrix(.448715885035 0 0 .448715885035 139.280746068113 306.677985960241)"/><path d="m320.15037 535.5094 3.11455 8.32002 7.46174-8.32002z" fill="url(#e)" fill-rule="evenodd"/><path d="m319.37948 501.93267 11.3527 33.82642h-26.27157c-4.11497.19017-4.16913-3.09112-4.16913-3.09112v-27.04358s.10934-3.69172 4.46693-3.69172z" fill="url(#b)" fill-rule="evenodd"/><path d="m314.96881 511.4846c-.0849-.27313-.33712-.45923-.62308-.45923h-3.62402c-.28678 0-.53984.18742-.62374.46152l-4.33019 14.1581c-.0607.19777-.0238.41266.0993.57933.12311.166.31755.2639.52454.2639h2.24817c.29272 0 .54987-.19545.62837-.4773l.97074-3.49288h4.42974l1.0512 3.50572c.0826.27608.3368.4648.62472.4648h2.38953c.20765 0 .40212-.0985.52487-.2649.12311-.16705.15942-.3822.0978-.58014zm-4.22802 8.42179 1.63168-6.26328h.0444l1.7447 6.26328h-3.42081z" fill="url(#f)"/></g></svg>