<svg xmlns="http://www.w3.org/2000/svg" viewBox="0 0 16 16">
  <defs id="defs3051">
    <style type="text/css" id="current-color-scheme">
      .ColorScheme-Text {
        color:#4d4d4d;
      }
      </style>
  </defs>
 <path 
     style="fill:currentColor;fill-opacity:1;stroke:none" 
     class="ColorScheme-Text"
     d="M 1.0527344 0.99609375 C 0.65238345 0.99609375 0.328125 1.3206682 0.328125 1.7207031 L 0.328125 14.544922 C 0.328125 14.945314 0.65266453 15.269531 1.0527344 15.269531 L 14.818359 15.269531 C 15.21872 15.269531 15.542969 14.944957 15.542969 14.544922 L 15.542969 1.7207031 C 15.542969 1.3203107 15.218439 0.99609375 14.818359 0.99609375 L 1.0527344 0.99609375 z M 10.167969 3.5585938 C 11.085783 3.5585938 11.830078 4.3041635 11.830078 5.2226562 C 11.830078 6.1411393 11.085783 6.8867188 10.167969 6.8867188 C 9.2498735 6.8867188 8.5058594 6.1411393 8.5058594 5.2226562 C 8.5058594 4.3041635 9.2498735 3.5585938 10.167969 3.5585938 z M 5.6347656 6.9492188 C 5.7939547 6.9344135 5.9620803 7.0168208 6.1015625 7.1992188 L 8.9707031 10.951172 C 9.2496771 11.315997 9.7358492 11.346325 10.058594 11.019531 L 10.761719 10.308594 C 11.084182 9.9817229 11.55908 10.022192 11.822266 10.398438 L 13.638672 12.996094 C 13.901295 13.372852 13.742299 13.677734 13.283203 13.677734 L 7.9355469 13.677734 L 2.8261719 13.677734 C 2.3671243 13.677734 2.1621902 13.345582 2.3691406 12.935547 L 5.2226562 7.28125 C 5.3259861 7.0762322 5.4755766 6.964024 5.6347656 6.9492188 z "
     />
</svg>
