<svg xmlns="http://www.w3.org/2000/svg" viewBox="0 0 16 16">
  <defs id="defs3051">
    <style type="text/css" id="current-color-scheme">
      .ColorScheme-Text {
        color:#4d4d4d;
      }
      </style>
  </defs>
 <path 
           style="fill:currentColor;fill-opacity:1;stroke:none" 
           class="ColorScheme-Text"
        d="M 14.92683,4.1693413 C 14.211507,2.9401887 13.241103,1.967084 12.015514,1.2497504 10.78968,0.53241682 9.4514523,0.17381384 7.9999478,0.17381384 6.548571,0.17381384 5.2099709,0.53255509 3.9843816,1.2497504 2.7586646,1.967084 1.7882721,2.9401887 1.0729381,4.1693413 0.35760416,5.3984831 1e-6,6.7406995 1e-6,8.1960118 c 0,1.7480127 0.50859613,3.3199832 1.5260437,4.7161792 1.0173198,1.396206 2.3315096,2.362397 3.9425692,2.898563 0.1875606,0.03489 0.3264069,0.01064 0.4166666,-0.07296 0.090302,-0.0836 0.1353895,-0.188082 0.1353895,-0.313346 0,-0.02095 -0.00213,-0.208843 -0.00532,-0.56399 C 6.01216,14.505195 6.01003,14.195317 6.01003,13.930941 l -0.2395934,0.04148 c -0.1527798,0.02808 -0.3454565,0.03999 -0.5781469,0.03659 -0.2325628,-0.0032 -0.473943,-0.02765 -0.7238855,-0.07307 C 4.2183271,13.890837 3.9857643,13.786463 3.7704643,13.622866 3.5552918,13.459142 3.402512,13.244895 3.3122417,12.980402 L 3.2080059,12.740011 C 3.1385508,12.580009 3.0292734,12.402308 2.8799397,12.20743 2.730606,12.012424 2.5796237,11.880108 2.4268332,11.810493 l -0.072859,-0.05222 c -0.048608,-0.03489 -0.093706,-0.07679 -0.1354001,-0.125519 -0.041694,-0.04871 -0.072859,-0.09743 -0.093706,-0.146281 -0.020847,-0.04871 -0.00319,-0.08881 0.052012,-0.120265 0.055628,-0.03138 0.156226,-0.0468 0.3021135,-0.0468 l 0.2082695,0.03127 c 0.1388463,0.02787 0.3106758,0.111288 0.5156267,0.250645 0.2048127,0.13924 0.373196,0.32027 0.5051393,0.542972 0.1598211,0.285649 0.3523595,0.503225 0.578147,0.652974 0.2256598,0.149748 0.4531065,0.22449 0.6822125,0.22449 0.2291166,0 0.4270263,-0.01744 0.5937504,-0.05212 0.1665964,-0.03478 0.3228224,-0.08711 0.4686993,-0.156673 0.062542,-0.46669 0.2326904,-0.825283 0.5103937,-1.075938 C 6.1454019,11.695228 5.7895857,11.632367 5.4735279,11.548936 5.1576084,11.465335 4.8312015,11.329562 4.4944455,11.141353 4.1575512,10.953399 3.8780717,10.720059 3.6558687,10.44158 3.4336551,10.162983 3.2513382,9.7973392 3.1090457,9.3447538 2.9667426,8.8920409 2.8955326,8.3698515 2.8955326,7.7779093 2.8955326,6.9351844 3.169896,6.2179784 3.7185165,5.6260362 3.4615328,4.9924316 3.4858155,4.2821499 3.7913752,3.4952017 3.9927417,3.4325539 4.2914091,3.4795663 4.6872392,3.6362284 5.0830692,3.7929012 5.3729085,3.9271313 5.5570123,4.038419 5.741116,4.1497066 5.8886522,4.2439443 5.999759,4.3204831 6.6456698,4.1394532 7.3122895,4.0489277 7.9997457,4.0489277 c 0.6874669,0 1.3542142,0.090515 2.0002423,0.2715554 l 0.39583,-0.2506551 c 0.270662,-0.1671814 0.590293,-0.3203867 0.958129,-0.4596266 0.36808,-0.1392398 0.649484,-0.1775731 0.843937,-0.1148721 0.312473,0.7869482 0.340224,1.4972299 0.08328,2.1308345 0.548621,0.5919529 0.822995,1.3092758 0.822995,2.1518732 0,0.5919422 -0.07137,1.1158014 -0.213524,1.5719818 -0.14242,0.4562868 -0.326268,0.8216862 -0.551928,1.0968262 -0.225788,0.27514 -0.507065,0.506681 -0.843831,0.694635 -0.336884,0.188082 -0.663291,0.323855 -0.97921,0.407456 -0.316048,0.0836 -0.671864,0.146409 -1.0676938,0.188209 0.3610598,0.313346 0.5415788,0.807721 0.5415788,1.483254 l 0,2.203789 c 0,0.125264 0.0435,0.229755 0.130285,0.313218 0.08679,0.08349 0.223872,0.107958 0.411422,0.07307 1.611198,-0.536176 2.925388,-1.502356 3.942697,-2.89869 1.01732,-1.396079 1.526044,-2.9680497 1.526044,-4.71619 -3.4e-4,-1.455057 -0.358241,-2.7971458 -1.07332,-4.0262877 l 0,0 z"
     />
</svg>
