<svg viewBox="0 0 16 16" xmlns="http://www.w3.org/2000/svg">
  <path d="m6.3437521.00000014v3.00000046h-1.5937501l3.0937474 3.5000003 3.0937516-3.5000003h-1.5937507v-3.00000046zm1.1093743 7.00000106c-.086447 0-.1406252.1474597-.1406252.3281254v1.140624c-.3480264.0792473-.6757735.221185-.9687491.4062493l-.8125003-.8124995c-.1277488-.1277487-.2669995-.1861276-.3281245-.1250008l-.7656253.7656263c-.061119.061119-.00269.2003757.1249998.3281253l.8124986.8124997c-.1850643.2929771-.3270002.6207251-.4062493.9687511h-1.1406249c-.180663 0-.3281254.05417-.3281254.140625v1.09375c0 .08645.1474615.140624.3281254.140624h1.1406249c.079247.348025.221185.675774.4062493.968749l-.8124986.812501c-.1277487.127749-.1861267.266999-.1249998.328126l.7656253.765624c.061119.06112.2003757.0028.3281245-.125001l.8124994-.812499c.2929756.185065.6207245.327002.96875.406251v1.140625c0 .180662.05417.328123.1406243.328123h1.0937507c.086447 0 .1406251-.147461.1406251-.328123v-1.140625c.3480256-.07925.6757726-.221186.96875-.406251l.8124997.812499c.127749.12775.266998.186129.328125.125001l.765624-.765624c.06112-.06112.0028-.200377-.125-.328126l-.8125-.812501c.185064-.292975.327002-.620724.40625-.968749h1.140625c.180665 0 .328124-.05417.328124-.140624v-1.09375c0-.08645-.147459-.140625-.328124-.140625h-1.140624c-.079248-.348026-.221186-.675774-.406251-.9687511l.8125-.8124997c.127749-.1277496.186127-.2669985.125-.3281253l-.765624-.7656263c-.06112-.061119-.200377-.00278-.328125.1250008l-.8124997.8124995c-.2929774-.1850643-.6207244-.3270011-.96875-.4062493v-1.140624c0-.1806657-.05417-.3281254-.1406242-.3281254zm.5468771 3.1093758c.7643056 0 1.3906237.626317 1.3906237 1.390623 0 .76431-.6263181 1.390627-1.3906237 1.390627-.7643092 0-1.3906264-.626317-1.3906264-1.390627 0-.764306.6263172-1.390623 1.3906264-1.390623z" fill="#4d4d4d" />
</svg>
