<svg xmlns="http://www.w3.org/2000/svg" viewBox="0 0 16 16">
  <defs id="defs3051">
    <style type="text/css" id="current-color-scheme">
      .ColorScheme-Text {
        color:#4d4d4d;
      }
      </style>
  </defs>
 <path 
           style="fill:currentColor;fill-opacity:1;stroke:none" 
           class="ColorScheme-Text"
        d="m 3.2,0.8 0,3.2 9.6,0 0,-3.2 -9.6,0 z m -0.8,4 A 2.4,2.4 0 0 0 0,7.2 l 0,4.8 3.2,0 0,3.2 9.6,0 0,-3.2 3.2,0 0,-4.8 A 2.4,2.4 0 0 0 13.6,4.8 L 2.4,4.8 Z M 13.6,6.4 A 0.8,0.8 0 0 1 14.4,7.2 0.8,0.8 0 0 1 13.6,8 0.8,0.8 0 0 1 12.8,7.2 0.8,0.8 0 0 1 13.6,6.4 Z m -8.8,3.2 6.4,0 0,4 -6.4,0 0,-4 z"
     />
</svg>
