<svg height="16" width="16" xmlns="http://www.w3.org/2000/svg">
  <path d="m2.7890291.99999995c-.9911327 0-1.78904831.79791545-1.78904831 1.78904805v10.421905c0 .991131.79791561 1.789047 1.78904831 1.789047h10.4219419c.991133 0 1.789048-.797915 1.789048-1.789047v-10.421905c0-.9911326-.797915-1.78904805-1.789048-1.78904805zm1.3714865 1.66123705h.1419824c.2517163 0 .4543669.2026511.4543669.454367v2.9647021h.4685384c.3618423 0 .6531499.2913081.6531499.6531502v1.3346805c0 .3618434-.2913076.6531502-.6531499.6531502h-.4685384v4.163109c0 .251718-.2026506.454367-.4543669.454367h-.1419824c-.2517163 0-.4543667-.202649-.4543667-.454367v-4.163109h-.4685771c-.3618413 0-.6531113-.2913068-.6531113-.6531502v-1.3346805c0-.3618421.29127-.6531502.6531113-.6531502h.4685771v-2.9647021c0-.2517159.2026504-.454367.4543667-.454367zm3.8904804 0h.1419832c.2517163 0 .4543668.2026511.4543668.454367v6.1452329h.4685384c.3618415 0 .6531482.2912694.6531482.6531118v1.3347203c0 .36184-.2913067.653109-.6531482.653109h-.4685384v.982618c0 .251718-.2026505.454367-.4543668.454367h-.1419832c-.2517163 0-.4543669-.202649-.4543669-.454367v-.982618h-.4685769c-.3618415 0-.6531499-.291269-.6531499-.653109v-1.3347203c0-.3618424.2913084-.6531118.6531499-.6531118h.4685769v-6.1452329c0-.2517159.2026506-.454367.4543669-.454367zm3.890442 0h.141982c.251716 0 .454368.2026511.454368.454367v.619061h.468577c.361841 0 .653151.291308.653151.6531498v1.3346824c0 .3618421-.29131.6531496-.653151.6531496h-.468577v6.5087492c0 .251718-.202652.454367-.454368.454367h-.141982c-.251717 0-.454367-.202649-.454367-.454367v-6.5087492h-.468538c-.361842 0-.65315-.2913075-.65315-.6531496v-1.3346824c0-.3618418.291308-.6531498.65315-.6531498h.468538v-.619061c0-.2517159.20265-.454367.454367-.454367z" fill="#4d4d4d" stroke-width=".019878" />
</svg>
