<?xml version="1.0" encoding="UTF-8" standalone="no"?>
<!-- Created with Inkscape (http://www.inkscape.org/) -->

<svg
   xmlns:dc="http://purl.org/dc/elements/1.1/"
   xmlns:cc="http://creativecommons.org/ns#"
   xmlns:rdf="http://www.w3.org/1999/02/22-rdf-syntax-ns#"
   xmlns:svg="http://www.w3.org/2000/svg"
   xmlns="http://www.w3.org/2000/svg"
   xmlns:xlink="http://www.w3.org/1999/xlink"
   xmlns:sodipodi="http://sodipodi.sourceforge.net/DTD/sodipodi-0.dtd"
   xmlns:inkscape="http://www.inkscape.org/namespaces/inkscape"
   width="512"
   height="512"
   id="svg859"
   version="1.1"
   inkscape:version="0.91+devel r14055 custom"
   sodipodi:docname="user-desktop.svg"
   viewBox="0 0 512 512">
  <defs
     id="defs861">
    <linearGradient
       inkscape:collect="always"
       id="linearGradient4205">
      <stop
         style="stop-color:#2980b9;stop-opacity:1;"
         offset="0"
         id="stop4207" />
      <stop
         style="stop-color:#ba174e;stop-opacity:0.99607843"
         offset="1"
         id="stop4209" />
    </linearGradient>
    <linearGradient
       inkscape:collect="always"
       xlink:href="#linearGradient4205"
       id="linearGradient4211"
       x1="32.986973"
       y1="976.66827"
       x2="763.26489"
       y2="390.87585"
       gradientUnits="userSpaceOnUse" />
  </defs>
  <sodipodi:namedview
     id="base"
     pagecolor="#ffffff"
     bordercolor="#666666"
     borderopacity="1.0"
     inkscape:pageopacity="0.0"
     inkscape:pageshadow="2"
     inkscape:zoom="2.1909364"
     inkscape:cx="309.28574"
     inkscape:cy="551.57673"
     inkscape:document-units="px"
     inkscape:current-layer="layer1"
     showgrid="false"
     width="0px"
     height="0px"
     fit-margin-top="0"
     fit-margin-left="0"
     fit-margin-right="0"
     fit-margin-bottom="0"
     inkscape:window-width="1920"
     inkscape:window-height="1008"
     inkscape:window-x="0"
     inkscape:window-y="32"
     inkscape:window-maximized="1" />
  <metadata
     id="metadata864">
    <rdf:RDF>
      <cc:Work
         rdf:about="">
        <dc:format>image/svg+xml</dc:format>
        <dc:type
           rdf:resource="http://purl.org/dc/dcmitype/StillImage" />
        <dc:title />
      </cc:Work>
    </rdf:RDF>
  </metadata>
  <g
     inkscape:label="Capa 1"
     inkscape:groupmode="layer"
     id="layer1"
     transform="translate(0,-540.3622)">
    <rect
       style="fill:url(#linearGradient4211);fill-opacity:1;stroke:none;stroke-width:10.68181992"
       id="rect907"
       width="470"
       height="363.18173"
       x="21"
       y="614.77136"
       rx="20.320505"
       ry="20.320505" />
    <path
       style="opacity:0.3;fill:#000000;fill-opacity:1;stroke:none;stroke-width:6.76634455"
       d="m 326.29687,909.34562 -32.14844,0 0,34.17932 32.14844,0 0,-34.17932 z m -48.22264,0 -32.14844,0 0,34.17932 32.14844,0 0,-34.17932 z m -48.22266,0 -32.14844,0 0,34.17932 32.14844,0 0,-34.17932 z"
       id="rect3369-7"
       inkscape:connector-curvature="0" />
    <path
       style="fill:#ffffff;fill-opacity:1;stroke:none;stroke-width:6.76634455"
       d="m 320.29687,903.34563 -32.14844,0 0,34.1793 32.14844,0 0,-34.1793 z m -48.22264,0 -32.14844,0 0,34.1793 32.14844,0 0,-34.1793 z m -48.22266,0 -32.14844,0 0,34.1793 32.14844,0 0,-34.1793 z"
       id="rect3369"
       inkscape:connector-curvature="0" />
    <path
       style="opacity:0.3;fill:#000000;fill-opacity:1;stroke:none;stroke-width:14.5286541"
       d="m 21,918.15938 0,40.63701 c 0,7.45922 7.06244,19.15761 20.320312,19.15761 l 429.359378,0 C 482.25332,977.954 491,969.24105 491,957.09569 l 0,-38.93631 c 0,20.82593 -9.06275,37.5952 -20.32031,37.5952 l -429.359378,0 C 30.062753,955.75458 21,938.98531 21,918.15938 Z"
       id="rect907-6"
       inkscape:connector-curvature="0"
       sodipodi:nodetypes="csssscssc" />
    <path
       style="opacity:0.3;fill:#ffffff;fill-opacity:1;stroke:none;stroke-width:12.02843189"
       d="M 41.320312,614.7704 C 29.684935,614.7704 21,623.22839 21,636.6077 l 0,14.07602 c 0,-14.27486 9.062753,-25.76912 20.320312,-25.76912 l 429.359378,0 c 11.25756,0 20.32031,11.49426 20.32031,25.76912 l 0,-14.9128 c 0,-14.27486 -9.06275,-21.00052 -20.32031,-21.00052 z"
       id="rect907-8"
       inkscape:connector-curvature="0"
       sodipodi:nodetypes="sscsscsss" />
  </g>
</svg>
