<svg height="48" viewBox="0 0 48 48" width="48" xmlns="http://www.w3.org/2000/svg" xmlns:xlink="http://www.w3.org/1999/xlink"><linearGradient id="a" gradientUnits="userSpaceOnUse" x1="42.683190811293" x2="741.209894663709" y1="976.72506702319" y2="416.401882165979"><stop offset="0" stop-color="#2980b9"/><stop offset="1" stop-color="#ba174e" stop-opacity=".996078"/></linearGradient><g transform="matrix(.09787234 0 0 .09787234 -1.055319 -54.71465)"><rect fill="url(#a)" height="347.39124" rx="19.437004" width="449.56522" x="31.21739" y="630.56281"/><path d="m323.24048 912.32949h-30.75068v32.69327h30.75068zm-46.126 0h-30.75068v32.69327h30.75068zm-46.12602 0h-30.75068v32.69327h30.75068z" opacity=".3"/><path d="m317.50135 906.59037h-30.75068v32.69325h30.75068zm-46.126 0h-30.75068v32.69325h30.75068zm-46.12602 0h-30.75068v32.69325h30.75068z" fill="#fff"/><path d="m31.217391 920.76005v38.87018c0 7.13491 6.755377 18.32467 19.43682 18.32467h410.691579c11.07043 0 19.43682-8.33413 19.43682-19.95143v-37.24342c0 19.92045-8.66872 35.96062-19.43682 35.96062h-410.691579c-10.7681 0-19.43682-16.04017-19.43682-35.96062z" opacity=".3"/><path d="m50.654211 630.56187c-11.129491 0-19.43682 8.09026-19.43682 20.88783v13.4641c0-13.65425 8.66872-24.64878 19.43682-24.64878h410.691579c10.7681 0 19.43682 10.99453 19.43682 24.64878v-14.26442c0-13.65423-8.66872-20.08751-19.43682-20.08751z" fill="#fff" opacity=".3"/></g></svg>