<svg height="48" width="48" xmlns="http://www.w3.org/2000/svg" xmlns:xlink="http://www.w3.org/1999/xlink">
  <linearGradient id="a" x1="0" x2="0" y1="1" y2="0">
    <stop offset="0" stop-color="#91c300" />
    <stop offset="1" stop-color="#e4ff1c" />
  </linearGradient>
  <circle cx="24" cy="24" fill="url(#a)" r="22" />
  <g fill="#fff">
    <path d="m38.945697 14.4485c-5.793156 2.3952-8.578598 1.0487-11.089094-.6408l-2.857952 9.9131c2.508038 1.6992 5.535944 3.0962 11.09401.608z" />
    <path d="m23.492423 22.6284c-1.514831-1.02-3.143958-1.9722-5.457639-1.9897-1.526594-.012-3.343759.4219-5.650592 1.3757l2.85883-9.906c5.804217-2.3999 8.592116-1.0417 11.104017.6608z" />
    <path d="m20.112497 34.3768c-2.516115-1.6934-5.251343-3.0862-11.0581939-.6851l2.8433799-9.9317c5.80808-2.4015 8.598262-1.0426 11.111918.6612l-2.897104 9.9554z" />
    <path d="m24.516707 25.3768c2.512954 1.692 5.304365 3.0397 11.103666.6426l-2.858479 9.8731c-5.800354 2.399-8.585971 1.0404-11.096292-.6619z" />
  </g>
</svg>
