<svg height="48" width="48" xmlns="http://www.w3.org/2000/svg" xmlns:xlink="http://www.w3.org/1999/xlink">
  <linearGradient id="a" gradientUnits="userSpaceOnUse" x1="399.57144" x2="399.57144" y1="545.79797" y2="517.79797">
    <stop offset="0" stop-color="#3889e9" />
    <stop offset="1" stop-color="#5ea5fb" />
  </linearGradient>
  <linearGradient id="b" gradientUnits="userSpaceOnUse" x1="399.9939" x2="399.9939" y1="545.13873" y2="518.13873">
    <stop offset="0" stop-color="#1a1a1a" />
    <stop offset="1" stop-color="#666" />
  </linearGradient>
  <g stroke-width="1.299897" transform="matrix(1.5714333 0 0 1.5714333 -605.4712 -811.68494)">
    <circle cx="400.57138" cy="531.79791" fill="url(#b)" r="13.999958" />
    <circle cx="400.57138" cy="531.79791" fill="url(#a)" r="0" />
  </g>
  <path d="m35.582691 28.857526c-.656331 1.452911-.970228 2.103169-1.812953 3.387294-1.177873 1.793524-2.840251 4.031482-4.896065 4.046661-1.82874.01525-2.300495-1.193052-4.781921-1.173016-2.481426.01206-2.998719 1.19548-4.829277 1.176659-2.055816-.01882-3.62955-2.035171-4.808638-3.825052-3.296221-5.021746-3.644119-10.906859-1.607128-14.037937 1.441377-2.22035 3.721835-3.524509 5.863257-3.524509 2.180887 0 3.551833 1.198515 5.355072 1.198515 1.749807 0 2.815357-1.201551 5.337462-1.201551 1.907669 0 3.924625 1.039442 5.366001 2.832964-4.715133 2.583428-3.948909 9.317947.81419 11.119972zm-8.094538-15.957141c.917407-1.177873 1.613202-2.839647 1.361234-4.5342027-1.497236.101999-3.247652 1.058264-4.270701 2.2962447-.926511 1.127478-1.694558 2.802-1.395233 4.421879 1.633237.05282 3.323545-.921048 4.3047-2.183921z" fill="#fff" fill-opacity=".9" stroke-width=".607151" />
</svg>
