<svg height="48" width="48" xmlns="http://www.w3.org/2000/svg" xmlns:xlink="http://www.w3.org/1999/xlink">
  <linearGradient id="a" gradientUnits="userSpaceOnUse" x1="400.81992" x2="400.8038" y1="545.64917" y2="518.09692">
    <stop offset="0" stop-color="#319daa" />
    <stop offset="1" stop-color="#6dcad5" />
  </linearGradient>
  <g fill="url(#a)" stroke-width="1.2999" transform="matrix(1.5714333 0 0 1.5714333 -605.49121 -811.67595)">
    <circle cx="400.57138" cy="531.79791" r="13.999958" />
    <circle cx="400.57138" cy="531.79791" r="0" />
  </g>
  <path d="m20.458883 9.0051619c-.709284.02799-1.459348.17046-2.24215.446868-2.502659.8836901-5.517094 3.4764801-5.517094 4.7452331 0 1.558323 8.319418 16.970711 9.546714 17.685636.7182.418367 1.723117.27054 2.103088-.309368.504121-.769384.297165-1.843562-.974983-5.076478-1.292088-3.283594-1.279522-2.917059-.121873-3.531191 7.149421-3.792757 4.06271-14.2312519-2.793702-13.9607001zm-1.318728 3.9468081c1.218794-.140747 3.058667 2.435074 3.285881 4.599922.190287 1.813005-.832672 2.767949-1.840592 1.718721-1.693095-1.76248-2.701781-6.173542-1.445289-6.318643zm13.252901 2.946825c-1.835524 0-2.214093.74853-2.753079 5.435846-.761868 6.625611-.03993 8.021225 2.282774 4.413988 4.345656-6.748941 4.493135-9.849834.470305-9.849834zm-2.893701 13.340399c-1.422507-.05234-2.175675 2.319761-.784362 3.029637.627582.320204.499017.317325 1.140606.025 1.145787-.522056 1.099266-2.705108-.06406-3.009324-.100352-.02623-.197349-.04182-.292184-.04531zm-13.721644 4.640547c-.864315 0-1.560911.695034-1.560911 1.559349 0 .864314.696596 1.56091 1.560911 1.56091h17.365332c.864315 0 1.559348-.696596 1.559348-1.56091 0-.864315-.695033-1.559349-1.559348-1.559349z" fill="#fff" fill-opacity=".85098" stroke-width=".21333" />
</svg>
