<?xml version="1.0" encoding="UTF-8" standalone="no"?>
<svg
   xmlns:dc="http://purl.org/dc/elements/1.1/"
   xmlns:cc="http://creativecommons.org/ns#"
   xmlns:rdf="http://www.w3.org/1999/02/22-rdf-syntax-ns#"
   xmlns:svg="http://www.w3.org/2000/svg"
   xmlns="http://www.w3.org/2000/svg"
   xmlns:sodipodi="http://sodipodi.sourceforge.net/DTD/sodipodi-0.dtd"
   xmlns:inkscape="http://www.inkscape.org/namespaces/inkscape"
   height="48"
   width="48"
   version="1.1"
   id="svg26"
   sodipodi:docname="distributor-logo-freebsd.svg"
   inkscape:version="1.0.1 (3bc2e813f5, 2020-09-07)">
  <metadata
     id="metadata32">
    <rdf:RDF>
      <cc:Work
         rdf:about="">
        <dc:format>image/svg+xml</dc:format>
        <dc:type
           rdf:resource="http://purl.org/dc/dcmitype/StillImage" />
      </cc:Work>
    </rdf:RDF>
  </metadata>
  <defs
     id="defs30" />
  <sodipodi:namedview
     pagecolor="#ffffff"
     bordercolor="#666666"
     borderopacity="1"
     objecttolerance="10"
     gridtolerance="10"
     guidetolerance="10"
     inkscape:pageopacity="0"
     inkscape:pageshadow="2"
     inkscape:window-width="640"
     inkscape:window-height="480"
     id="namedview28"
     showgrid="false"
     inkscape:zoom="10.145833"
     inkscape:cx="24"
     inkscape:cy="24"
     inkscape:current-layer="svg26" />
  <linearGradient
     id="a"
     gradientUnits="userSpaceOnUse"
     x1="399.57144"
     x2="399.57144"
     y1="545.79797"
     y2="517.79797">
    <stop
       offset="0"
       stop-color="#3889e9"
       id="stop2" />
    <stop
       offset="1"
       stop-color="#5ea5fb"
       id="stop4" />
  </linearGradient>
  <linearGradient
     id="b"
     gradientUnits="userSpaceOnUse"
     x1="399.9939"
     x2="399.9939"
     y1="545.13873"
     y2="518.13873">
    <stop
       offset="0"
       stop-color="#ff5a4e"
       id="stop7" />
    <stop
       offset="1"
       stop-color="#ff8077"
       id="stop9" />
  </linearGradient>
  <g
     stroke-width="1.2999"
     transform="matrix(1.5714333,0,0,1.5714333,-605.49119,-811.67593)"
     id="g16">
    <circle
       cx="400.57138"
       cy="531.79791"
       fill="url(#b)"
       r="13.999958"
       id="circle12"
       style="fill:url(#b)" />
    <circle
       cx="400.57138"
       cy="531.79791"
       fill="url(#a)"
       r="0"
       id="circle14"
       style="fill:url(#a)" />
  </g>
  <g
     fill="#ffffff"
     fill-opacity="0.85"
     transform="matrix(0.16865863,0,0,0.16865863,-111.93847,-88.884399)"
     id="g24">
    <path
       d="m 878.598,605.07 c 8.066,8.064 -14.297,43.508 -18.077,47.29 -3.78,3.774 -13.383,0.302 -21.448,-7.764 -8.066,-8.063 -11.541,-17.669 -7.761,-21.448 3.781,-3.783 39.22,-26.143 47.286,-18.078 z"
       id="path18" />
    <path
       d="m 765.474,613.603 c -12.314,-6.987 -29.839,-14.761 -35.414,-9.187 -5.648,5.647 2.41,23.566 9.47,35.904 6.283,-10.924 15.225,-20.122 25.944,-26.717 z"
       id="path20" />
    <path
       d="m 866.295,649.578 c 1.135,3.848 0.928,7.025 -0.908,8.86 -4.299,4.298 -15.901,-0.276 -26.362,-10.233 -0.729,-0.653 -1.454,-1.333 -2.167,-2.046 -3.78,-3.784 -6.725,-7.813 -8.607,-11.522 -3.663,-6.572 -4.58,-12.377 -1.81,-15.146 1.508,-1.508 3.923,-1.919 6.868,-1.389 1.92,-1.214 4.186,-2.568 6.674,-3.953 -10.111,-5.273 -21.603,-8.252 -33.799,-8.252 -40.441,0 -73.228,32.781 -73.228,73.226 0,40.44 32.786,73.225 73.228,73.225 40.442,0 73.229,-32.784 73.229,-73.225 0,-13.06 -3.427,-25.308 -9.416,-35.926 -1.295,2.362 -2.553,4.526 -3.702,6.381 z"
       id="path22" />
  </g>
</svg>
