<svg height="48" width="48" xmlns="http://www.w3.org/2000/svg" xmlns:xlink="http://www.w3.org/1999/xlink">
  <linearGradient id="a" gradientUnits="userSpaceOnUse" x1="399.57144" x2="399.57144" y1="545.79797" y2="517.79797">
    <stop offset="0" stop-color="#3889e9" />
    <stop offset="1" stop-color="#5ea5fb" />
  </linearGradient>
  <linearGradient id="b" gradientUnits="userSpaceOnUse" x1="399.9939" x2="399.9939" y1="545.13873" y2="518.13873">
    <stop offset="0" stop-color="#ec396c" />
    <stop offset="1" stop-color="#ff709a" />
  </linearGradient>
  <g stroke-width="1.2999" transform="matrix(1.5714333 0 0 1.5714333 -605.4912 -811.67594)">
    <circle cx="400.57138" cy="531.79791" fill="url(#b)" r="13.999958" />
    <circle cx="400.57138" cy="531.79791" fill="url(#a)" r="0" />
  </g>
  <path d="m25.20438 39.533062c-4.501364-1.61941-7.175052-3.606946-10.10654-8.042453-.719362-1.222016-2.042134-3.949177-1.992038-7.508841-.117079-3.548969 1.676262-7.638304 5.023156-9.820596 3.232066-2.303312 7.403019-2.337647 9.884202-1.428031 2.559422.950145 3.597376 2.532968 3.626646 2.457542-.07824.0197 1.37118 1.238902 2.017368 3.892889.719925 2.55098-.01126 6.779347-3.529831 8.51077-1.618285.867401-3.720085 1.024445-5.368202.404149-1.648118-.664763-2.844241-2.124315-3.242761-3.649161-.868527-3.366595 1.68583-5.232548 2.812719-5.423928 4.584671-1.528786 6.906558 5.645703 1.544547 6.255867 2.444033.816178 4.963491-1.692022 4.484479-4.246942-.09682-2.555483-3.190414-5.091827-6.602602-4.052185-.891042.245979-2.240269.871341-3.296235 2.277982-1.082984 1.398198-1.57438 3.589496-1.011498 5.71944.548809 2.141765 2.217753 4.19178 4.542455 5.113217 2.348342.866275 4.962927.618607 7.122141-.504905 4.609438-2.280233 5.532001-7.836438 4.616192-10.893448-.808298-3.28554-2.593195-4.790123-2.500883-4.813201-.03321.0895-1.317143-1.862575-4.490107-3.047441-3.102603-1.1313923-7.940008-1.0514631-11.813197 1.664441-3.963812 2.541973-6.111206 7.536985-5.955287 11.562714-.05347 4.08821 1.470246 7.217269 2.301623 8.608149 3.351397 5.110966 7.191375 6.708424 11.933653 6.963972" fill="#fff" fill-opacity=".85" stroke-width=".562882" />
</svg>
