<svg height="48" width="48" xmlns="http://www.w3.org/2000/svg" xmlns:xlink="http://www.w3.org/1999/xlink">
  <linearGradient id="a" gradientUnits="userSpaceOnUse" x1="23.999998" x2="23.999998" y1="42" y2="6">
    <stop offset="0" stop-color="#e49a11" />
    <stop offset="1" stop-color="#f0b038" />
  </linearGradient>
  <linearGradient id="b" gradientUnits="userSpaceOnUse" x1="23.999998" x2="23.999998" y1="42" y2="6">
    <stop offset="0" stop-color="#8ab927" />
    <stop offset="1" stop-color="#a4d63d" />
  </linearGradient>
  <linearGradient id="c" gradientUnits="userSpaceOnUse" x1="23.999998" x2="23.999998" y1="42" y2="6">
    <stop offset="0" stop-color="#212273" />
    <stop offset="1" stop-color="#272886" />
  </linearGradient>
  <linearGradient id="d" gradientUnits="userSpaceOnUse" x1="23.999998" x2="23.999998" y1="42" y2="6">
    <stop offset="0" stop-color="#7b1e6a" />
    <stop offset="1" stop-color="#a4288a" />
  </linearGradient>
  <linearGradient id="e" gradientUnits="userSpaceOnUse" x1="23.9999568" x2="23.9999568" y1="46.0001399" y2="2.0000948">
    <stop offset="0" stop-color="#e4e4e4" />
    <stop offset="1" stop-color="#eee" />
  </linearGradient>
  <rect fill="url(#e)" height="44" ry="22" stroke-width="1.44916" width="44" x="2.000016" y="2.000025" />
  <g stroke-width=".150507" transform="matrix(.94444444 0 0 .94444444 1.333334 1.333334)">
    <path d="m25.697027 11.272157v8.630641l6.102884-6.102886-2.527754-2.527755zm4.775072 0 2.527754 2.527755-7.302826 7.303121v1.19994h1.19994l7.303121-7.30312 2.527755 2.527754v-6.25545zm3.727989 4.927931-6.103179 6.102885h8.630934v-3.57513zm-23.776591 3.376121-4.4234973 4.42379 4.4234973 4.423498v-3.574837h10.327667l.84866-.848661-.84866-.84866h-10.327667z" fill="url(#d)" />
    <path d="m23.999999 5.9999997-4.423496 4.4234973h3.574836v10.327667l.84866.84866.848661-.84866v-10.327667h3.574837zm1.697028 19.6970273v1.19994l7.302826 7.303121-2.527754 2.527755h6.255744v-6.255451l-2.527755 2.527754-7.303121-7.303119zm2.399882 0 6.103179 6.102884 2.527755-2.527754v-3.57513zm-2.399882 2.400175v8.630641h3.57513l2.527754-2.527755z" fill="url(#a)" />
    <path d="m37.576502 19.576503v3.574836h-10.32796l-.848659.84866.848659.848661h10.32796v3.574837l4.423498-4.423498zm-26.304639 6.120524v3.574836l2.528049 2.528048 6.102886-6.102884zm9.83117 0-7.303121 7.303119-2.528049-2.528047v6.255744h6.255744l-2.527754-2.527755 7.302827-7.302828v-1.200233zm1.199647 2.400469-6.102592 6.102592 2.527755 2.527755h3.574837z" fill="url(#c)" />
    <path d="m11.271863 11.272157v6.25545l2.527755-2.527754 7.303415 7.30312h1.199647v-1.200235l-7.302827-7.302826 2.527754-2.527755zm7.45598 0-2.527755 2.527755 6.102592 6.102592v-8.630347zm-4.928225 4.927931-2.527755 2.527755v3.57513h8.630935zm10.200381 10.200088-.84866.84866v10.327961h-3.574542l4.423202 4.423203 4.423205-4.423203h-3.574544v-10.327961z" fill="url(#b)" />
  </g>
</svg>
