<svg height="48" width="48" xmlns="http://www.w3.org/2000/svg" xmlns:xlink="http://www.w3.org/1999/xlink">
  <linearGradient id="a" gradientUnits="userSpaceOnUse" x1="399.57144" x2="399.57144" y1="545.79797" y2="517.79797">
    <stop offset="0" stop-color="#3889e9" />
    <stop offset="1" stop-color="#5ea5fb" />
  </linearGradient>
  <linearGradient id="b" gradientUnits="userSpaceOnUse" x1="399.9939" x2="399.9939" y1="545.13873" y2="518.13873">
    <stop offset="0" stop-color="#007aac" />
    <stop offset="1" stop-color="#00a0e2" />
  </linearGradient>
  <g stroke-width="1.2999" transform="matrix(1.5714333 0 0 1.5714333 -605.4912 -811.67594)">
    <circle cx="400.57138" cy="531.79791" fill="url(#b)" r="13.999958" />
    <circle cx="400.57138" cy="531.79791" fill="url(#a)" r="0" />
  </g>
  <path d="m25.116612 10.348323c-3.16251.102527 8.424615 16.088541-.499532 15.067528 7.441871 2.061885 9.14624-7.542988 7.626357-12.242183-1.504982-4.6541522-2.28762-1.74998-6.773463-2.783765-.134108-.03084-.251895-.04494-.353362-.04153zm-8.867382 2.228347c-4.891496-.0066-2.371131 1.635882-4.74071 5.583556-2.263002 3.769716 17.875958-2.982149 14.027301 5.452713 4.260203-6.439667-4.348189-11.029599-9.286733-11.035985zm3.441377 7.2166c-3.913936-.0095-7.852708 4.438095-8.953948 7.811903-1.5178963 4.650245.822307 2.761475 3.844399 6.234612 2.885781 3.317753 2.689232-17.924075 9.522299-11.656823-1.352417-1.699316-2.880814-2.385435-4.41275-2.389692zm16.822967.755296c-2.642259.252859-12.281077 12.504712-13.894612 4.553744.338972 7.713984 10.002672 6.367376 14.001046 3.470015 3.961402-2.870104.956273-2.718125.552958-7.304585-.048156-.547526-.282208-.755362-.659666-.71925zm-14.213206 2.554017c-7.231841 2.706205-2.964334 11.480861 1.026945 14.388506 3.953672 2.880606 2.88053.06992 7.117601-1.730897 4.046767-1.719818-16.216291-8.095709-8.145047-12.657968z" fill="#fff" fill-opacity=".85" fill-rule="evenodd" stroke-width=".946083" />
</svg>
