<?xml version="1.0" encoding="UTF-8" standalone="no"?>
<svg
   xmlns:dc="http://purl.org/dc/elements/1.1/"
   xmlns:cc="http://creativecommons.org/ns#"
   xmlns:rdf="http://www.w3.org/1999/02/22-rdf-syntax-ns#"
   xmlns:svg="http://www.w3.org/2000/svg"
   xmlns="http://www.w3.org/2000/svg"
   xmlns:sodipodi="http://sodipodi.sourceforge.net/DTD/sodipodi-0.dtd"
   xmlns:inkscape="http://www.inkscape.org/namespaces/inkscape"
   height="48"
   width="48"
   version="1.1"
   id="svg26"
   sodipodi:docname="distributor-logo-fedora.svg"
   inkscape:version="1.0.1 (3bc2e813f5, 2020-09-07)">
  <metadata
     id="metadata32">
    <rdf:RDF>
      <cc:Work
         rdf:about="">
        <dc:format>image/svg+xml</dc:format>
        <dc:type
           rdf:resource="http://purl.org/dc/dcmitype/StillImage" />
      </cc:Work>
    </rdf:RDF>
  </metadata>
  <defs
     id="defs30" />
  <sodipodi:namedview
     pagecolor="#ffffff"
     bordercolor="#666666"
     borderopacity="1"
     objecttolerance="10"
     gridtolerance="10"
     guidetolerance="10"
     inkscape:pageopacity="0"
     inkscape:pageshadow="2"
     inkscape:window-width="640"
     inkscape:window-height="480"
     id="namedview28"
     showgrid="false"
     inkscape:zoom="10.145833"
     inkscape:cx="24"
     inkscape:cy="24"
     inkscape:current-layer="svg26" />
  <linearGradient
     id="a"
     gradientUnits="userSpaceOnUse"
     x1="399.57144"
     x2="399.57144"
     y1="545.79797"
     y2="517.79797">
    <stop
       offset="0"
       stop-color="#3889e9"
       id="stop2" />
    <stop
       offset="1"
       stop-color="#5ea5fb"
       id="stop4" />
  </linearGradient>
  <linearGradient
     id="b"
     gradientUnits="userSpaceOnUse"
     x1="399.9939"
     x2="399.9939"
     y1="545.13873"
     y2="518.13873">
    <stop
       offset="0"
       stop-color="#4469b9"
       id="stop7" />
    <stop
       offset="1"
       stop-color="#5d91ff"
       id="stop9" />
  </linearGradient>
  <g
     stroke-width="1.2999"
     transform="matrix(1.4000684,0,0,1.4000684,-592.0895,-719.59534)"
     id="g24">
    <g
       stroke-width="1.2999"
       transform="matrix(1.1223975,0,0,1.1223975,-9.572191,-65.768666)"
       id="g16">
      <circle
         cx="400.57138"
         cy="531.79791"
         fill="url(#b)"
         r="13.999958"
         id="circle12"
         style="fill:url(#b)" />
      <circle
         cx="400.57138"
         cy="531.79791"
         fill="url(#a)"
         r="0"
         id="circle14"
         style="fill:url(#a)" />
    </g>
    <g
       fill="#ffffff"
       id="g22">
      <path
         d="m 444.2361,521.26551 c -3.18888,0 -5.77373,2.58503 -5.77373,5.77379 v 3.06191 h -3.04722 c -3.18882,0 -5.77367,2.57239 -5.77367,5.76103 0,3.18906 2.58497,5.77397 5.77367,5.77397 3.18841,0 5.77337,-2.58491 5.77337,-5.77397 v -3.07456 h 3.04758 c 3.18841,0 5.77337,-2.5598 5.77337,-5.74838 0,-3.18876 -2.58496,-5.77379 -5.77337,-5.77379 z m -5.77373,14.60034 c -0.002,1.68021 -1.36611,3.04235 -3.04722,3.04235 -1.68291,0 -3.0598,-1.36437 -3.0598,-3.04729 0,-1.68351 1.37689,-3.07317 3.0598,-3.07317 h 2.61712 c 0.23772,0 0.4305,0.19242 0.4305,0.42975 0,4.2e-4 -3e-4,4.2e-4 -3e-4,0 v 2.64734 h -9e-5 z m 5.77343,-5.76644 h -2.61729 c -0.23773,0 -0.43001,-0.1923 -0.43001,-0.43023 v -2.63464 c 0.003,-1.68122 1.36611,-3.04282 3.04734,-3.04282 1.68291,0 3.0601,1.36443 3.0601,3.0477 0,1.68303 -1.37719,3.05999 -3.0601,3.05999 z"
         opacity="0.2"
         id="path18" />
      <path
         d="m 438.46243,530.11566 v -3.06203 c 0,-3.18883 2.58485,-5.77385 5.77373,-5.77385 0.48374,0 0.82746,0.0548 1.27521,0.1717 0.65298,0.17129 1.18628,0.70621 1.18658,1.32891 2.9e-4,0.75281 -0.54614,1.30001 -1.3628,1.30001 -0.38906,0 -0.52966,-0.0745 -1.09929,-0.0745 -1.68122,0 -3.04451,1.36159 -3.04734,3.04282 v 2.63452 c 0,0.23793 0.19228,0.43022 0.43001,0.43022 h 2.0026 c 0.74576,0 1.34794,0.59706 1.34854,1.34474 0,0.74805 -0.60308,1.34372 -1.34854,1.34372 h -2.43264 v 3.07462 c 0,3.18846 -2.58497,5.77337 -5.77337,5.77337 -0.48384,0 -0.82758,-0.0548 -1.27533,-0.17177 -0.65298,-0.17116 -1.18646,-0.70639 -1.18676,-1.32891 0,-0.75256 0.54605,-1.3 1.36304,-1.3 0.38867,0 0.52966,0.0746 1.09899,0.0746 1.68122,0 3.04487,-1.36172 3.04752,-3.04235 v -2.6483 c 0,-0.23739 -0.19278,-0.42968 -0.4305,-0.42968 h -2.00206 c -0.74594,0 -1.34865,-0.59513 -1.34865,-1.34336 -2e-4,-0.75238 0.60891,-1.34504 1.3628,-1.34504 h 2.41808 v -6e-5 z"
         fill-opacity="0.85"
         id="path20" />
    </g>
  </g>
</svg>
