<?xml version="1.0" encoding="UTF-8" standalone="no"?>
<svg
   xmlns:dc="http://purl.org/dc/elements/1.1/"
   xmlns:cc="http://creativecommons.org/ns#"
   xmlns:rdf="http://www.w3.org/1999/02/22-rdf-syntax-ns#"
   xmlns:svg="http://www.w3.org/2000/svg"
   xmlns="http://www.w3.org/2000/svg"
   xmlns:sodipodi="http://sodipodi.sourceforge.net/DTD/sodipodi-0.dtd"
   xmlns:inkscape="http://www.inkscape.org/namespaces/inkscape"
   height="48"
   width="48"
   version="1.1"
   id="svg20"
   sodipodi:docname="distributor-logo-chakra.svg"
   inkscape:version="1.0.1 (3bc2e813f5, 2020-09-07)">
  <metadata
     id="metadata26">
    <rdf:RDF>
      <cc:Work
         rdf:about="">
        <dc:format>image/svg+xml</dc:format>
        <dc:type
           rdf:resource="http://purl.org/dc/dcmitype/StillImage" />
      </cc:Work>
    </rdf:RDF>
  </metadata>
  <defs
     id="defs24" />
  <sodipodi:namedview
     pagecolor="#ffffff"
     bordercolor="#666666"
     borderopacity="1"
     objecttolerance="10"
     gridtolerance="10"
     guidetolerance="10"
     inkscape:pageopacity="0"
     inkscape:pageshadow="2"
     inkscape:window-width="640"
     inkscape:window-height="480"
     id="namedview22"
     showgrid="false"
     inkscape:zoom="10.145833"
     inkscape:cx="24"
     inkscape:cy="24"
     inkscape:current-layer="svg20" />
  <linearGradient
     id="a"
     gradientUnits="userSpaceOnUse"
     x1="399.57144"
     x2="399.57144"
     y1="545.79797"
     y2="517.79797">
    <stop
       offset="0"
       stop-color="#3889e9"
       id="stop2" />
    <stop
       offset="1"
       stop-color="#5ea5fb"
       id="stop4" />
  </linearGradient>
  <linearGradient
     id="b"
     gradientUnits="userSpaceOnUse"
     x1="399.9939"
     x2="399.9939"
     y1="545.13873"
     y2="518.13873">
    <stop
       offset="0"
       stop-color="#007aac"
       id="stop7" />
    <stop
       offset="1"
       stop-color="#00a0e2"
       id="stop9" />
  </linearGradient>
  <g
     stroke-width="1.2999"
     transform="matrix(1.5714333,0,0,1.5714333,-605.4912,-811.67594)"
     id="g16">
    <circle
       cx="400.57138"
       cy="531.79791"
       fill="url(#b)"
       r="13.999958"
       id="circle12"
       style="fill:url(#b)" />
    <circle
       cx="400.57138"
       cy="531.79791"
       fill="url(#a)"
       r="0"
       id="circle14"
       style="fill:url(#a)" />
  </g>
  <path
     d="m 25.116612,10.348323 c -3.16251,0.102527 8.424615,16.088541 -0.499532,15.067528 7.441871,2.061885 9.14624,-7.542988 7.626357,-12.242183 -1.504982,-4.6541522 -2.28762,-1.74998 -6.773463,-2.783765 -0.134108,-0.03084 -0.251895,-0.04494 -0.353362,-0.04153 z M 16.24923,12.57667 c -4.891496,-0.0066 -2.371131,1.635882 -4.74071,5.583556 -2.263002,3.769716 17.875958,-2.982149 14.027301,5.452713 4.260203,-6.439667 -4.348189,-11.029599 -9.286733,-11.035985 z m 3.441377,7.2166 c -3.913936,-0.0095 -7.852708,4.438095 -8.953948,7.811903 -1.5178963,4.650245 0.822307,2.761475 3.844399,6.234612 2.885781,3.317753 2.689232,-17.924075 9.522299,-11.656823 -1.352417,-1.699316 -2.880814,-2.385435 -4.41275,-2.389692 z m 16.822967,0.755296 c -2.642259,0.252859 -12.281077,12.504712 -13.894612,4.553744 0.338972,7.713984 10.002672,6.367376 14.001046,3.470015 C 40.58141,25.702221 37.576281,25.8542 37.172966,21.26774 37.12481,20.720214 36.890758,20.512378 36.5133,20.54849 Z m -14.213206,2.554017 c -7.231841,2.706205 -2.964334,11.480861 1.026945,14.388506 3.953672,2.880606 2.88053,0.06992 7.117601,-1.730897 4.046767,-1.719818 -16.216291,-8.095709 -8.145047,-12.657968 z"
     fill="#ffffff"
     fill-opacity="0.85"
     fill-rule="evenodd"
     id="path18"
     style="stroke-width:0.946083" />
</svg>
