<svg height="48" width="48" xmlns="http://www.w3.org/2000/svg" xmlns:xlink="http://www.w3.org/1999/xlink"><linearGradient id="a" gradientUnits="userSpaceOnUse" x1="399.57144" x2="399.57144" y1="545.79797" y2="517.79797"><stop offset="0" stop-color="#3889e9"/><stop offset="1" stop-color="#5ea5fb"/></linearGradient><linearGradient id="b" gradientUnits="userSpaceOnUse" x1="399.9939" x2="399.9939" y1="545.13873" y2="518.13873"><stop offset="0" stop-color="#ff5a4e"/><stop offset="1" stop-color="#ff8077"/></linearGradient><g stroke-width="1.299897" transform="matrix(1.714290900232 0 0 1.714290900232 -662.71587129361 -887.647322756789)"><circle cx="400.57138" cy="531.79791" fill="url(#b)" r="13.999958"/><circle cx="400.57138" cy="531.79791" fill="url(#a)" r="0"/></g><g fill="#fff" fill-opacity=".85" transform="matrix(.18399124 0 0 .18399124 -124.2947 -99.14744)"><path d="m878.598 605.07c8.066 8.064-14.297 43.508-18.077 47.29-3.78 3.774-13.383.302-21.448-7.764-8.066-8.063-11.541-17.669-7.761-21.448 3.781-3.783 39.22-26.143 47.286-18.078z"/><path d="m765.474 613.603c-12.314-6.987-29.839-14.761-35.414-9.187-5.648 5.647 2.41 23.566 9.47 35.904 6.283-10.924 15.225-20.122 25.944-26.717z"/><path d="m866.295 649.578c1.135 3.848.928 7.025-.908 8.86-4.299 4.298-15.901-.276-26.362-10.233-.729-.653-1.454-1.333-2.167-2.046-3.78-3.784-6.725-7.813-8.607-11.522-3.663-6.572-4.58-12.377-1.81-15.146 1.508-1.508 3.923-1.919 6.868-1.389 1.92-1.214 4.186-2.568 6.674-3.953-10.111-5.273-21.603-8.252-33.799-8.252-40.441 0-73.228 32.781-73.228 73.226 0 40.44 32.786 73.225 73.228 73.225s73.229-32.784 73.229-73.225c0-13.06-3.427-25.308-9.416-35.926-1.295 2.362-2.553 4.526-3.702 6.381z"/></g></svg>