<svg height="48" width="48" xmlns="http://www.w3.org/2000/svg" xmlns:xlink="http://www.w3.org/1999/xlink">
  <linearGradient id="a" gradientUnits="userSpaceOnUse" x1="399.57144" x2="399.57144" y1="545.79797" y2="517.79797">
    <stop offset="0" stop-color="#3889e9" />
    <stop offset="1" stop-color="#5ea5fb" />
  </linearGradient>
  <linearGradient id="b" gradientUnits="userSpaceOnUse" x1="399.9939" x2="399.9939" y1="545.13873" y2="518.13873">
    <stop offset="0" stop-color="#58357e" />
    <stop offset="1" stop-color="#7e4bb4" />
  </linearGradient>
  <g stroke-width="1.2999" transform="matrix(1.5714333 0 0 1.5714333 -605.4912 -811.67594)">
    <circle cx="400.57138" cy="531.79791" fill="url(#b)" r="13.999958" />
    <circle cx="400.57138" cy="531.79791" fill="url(#a)" r="0" />
  </g>
  <path d="m34.915599 23.022532v4.643359c0 .142334-.0945.179668-.211167.08284l-2.37068-1.962347a.64167028.64167028 0 0 1 -.211168-.431669v-.584504l-.740837-.602002c-.793338-.646338-1.430342-1.956512-1.430342-2.916684 0-.959006.640504-1.208673 1.430342-.55767l.740837.602004v-.58567c0-.142334.0945-.179668.211168-.08284l2.37068 1.962344c.116667.09567.211167.289335.211167.431669zm-3.491852-1.475842c-.417669-.345335-.756004-.212334-.756004.295168 0 .507503.338335 1.198174.756004 1.543509l.698837.567004v-1.838678zm3.312185 11.709899.01516-.01166a.38966885.38966885 0 0 0 .04317-.042l.0046-.0046a.42000236.42000236 0 0 0 .03733-.05366l.0081-.01516a.3488353.3488353 0 0 0 .02216-.049l.0046-.01166a.38383549.38383549 0 0 0 .01516-.06416v-.01634l.0035-.0315.0035-.177334-6.093534-4.993361.02566-15.061751-.171501-.129502-.0046-.0035-.03967-.02334c-.0081-.0046-.01634-.01166-.02566-.01516l-.035-.01166c-.01166-.0046-.02334-.0105-.035-.01284l-.03033-.0046c-.01516-.0024-.03033-.0059-.0455-.0059h-.0046l-.02684.0011c-.01516 0-.02917.0011-.04316.0035l-.035.0081c-.01166.0035-.0245.0059-.03617.01166-.01166.0035-.02334.0093-.03383.014l-.03383.01749a.23566799.23566799 0 0 0 -.01634.01166c-.014.0046-.028.0081-.04083.01516l-4.018023 2.013677.840005.665004.0315 11.744899-6.120368-5.040028-.0035-6.114534-.0035-5.486863-.0011-.01166a.33016852.33016852 0 0 0 -.0046-.04083c-.0011-.01166-.0024-.02333-.0059-.035l-.0093-.035c-.0059-.01166-.0093-.02567-.0175-.0385l-.0024-.0105-.01166-.0175c-.007-.01166-.014-.0245-.02334-.03617l-.021-.02684a.41300233.41300233 0 0 0 -.08634-.07233.34300193.34300193 0 0 0 -.03033-.0175c-.01166-.0047-.02334-.01166-.035-.01516a.42583573.42583573 0 0 0 -.07117-.01867l-.04084-.0047-.02334-.0023-.0105.0012a.35000196.35000196 0 0 0 -.042.0047c-.01166.0012-.02334.0023-.035.0059-.01166.0023-.02216.007-.03383.0105a.33366854.33366854 0 0 0 -.0385.014l-.0105.0047-5.043528 2.525847-.01866.01166a.3920022.3920022 0 0 0 -.08983.07117.35350199.35350199 0 0 0 -.06184.091.46900264.46900264 0 0 0 -.02684.07.3313352.3313352 0 0 0 -.01166.07583c-.0011.007-.0035.01516-.0024.02334l.007 11.792732v.02334l.0024.0093c0 .0175.0035.035.007.05134l.0024.0105.0046.01284a.37333544.37333544 0 0 0 .02334.063v.0011h.0011c.0105.021.02334.03967.03617.05834l.0081.01166.007.007a.3616687.3616687 0 0 0 .03617.03733l.007.007c.0046.0035.0093.0059.01166.0093.0024 0 .0035.0035.0059.0046l5.483365 4.560526-.124835 3.118517v.04434l.0046.02917.0024.0175c0 .0059.0024.01166.0046.0175 0 .0046.0024.0081.0035.01284l.0011.0059.0035.01166c.0059.01634.01166.03266.01984.04666v.0024a.37333544.37333544 0 0 0 .03617.05716l.007.0093.0059.0059a.39900224.39900224 0 0 0 .04316.0455l.0059.0035.0035.0024.0035.0046 6.203202 4.914029c.116666.091.275335.107334.408335.04083l9.319387-4.666694.0046-.0024a.3745021.3745021 0 0 0 .0525-.03383zm-18.348269-10.440558-1.932011-1.492175v1.28334l.984671.682504-1.624009.814338-.007-10.938728 2.538681-1.271673.02684 2.790682-1.803677-1.442009v1.28334l1.81301 1.440842.028 1.379008-1.860844-1.488675v1.28334l1.870177 1.487508-.007 1.496843-1.835177-1.466509v1.283341l1.843344 1.465341.01166 1.384842zm4.005188 7.044373-6.193868-5.092528 4.279358-2.14318 6.193868 5.092529zm-3.249184-18.364603.855171-.428169.09217 10.896727-.855171.427002zm2.909682 8.299713-.0011-1.855011 1.527175 1.194674.0011 1.856176zm1.527176-2.132679-1.528342-1.19584v-1.856177l1.527175 1.19584zm1.274006-.877338c.591505.753671 1.197008 2.224846 1.197008 3.585186 0 1.359174-.605503 1.822344-1.197008 1.589009z" fill="#fff" fill-opacity=".85" stroke-width="1.16667" />
</svg>
