<?xml version="1.0" encoding="UTF-8" standalone="no"?>
<svg
   xmlns:dc="http://purl.org/dc/elements/1.1/"
   xmlns:cc="http://creativecommons.org/ns#"
   xmlns:rdf="http://www.w3.org/1999/02/22-rdf-syntax-ns#"
   xmlns:svg="http://www.w3.org/2000/svg"
   xmlns="http://www.w3.org/2000/svg"
   xmlns:sodipodi="http://sodipodi.sourceforge.net/DTD/sodipodi-0.dtd"
   xmlns:inkscape="http://www.inkscape.org/namespaces/inkscape"
   height="48"
   width="48"
   version="1.1"
   id="svg38"
   sodipodi:docname="distributor-logo-mageia.svg"
   inkscape:version="1.0.1 (3bc2e813f5, 2020-09-07)">
  <metadata
     id="metadata44">
    <rdf:RDF>
      <cc:Work
         rdf:about="">
        <dc:format>image/svg+xml</dc:format>
        <dc:type
           rdf:resource="http://purl.org/dc/dcmitype/StillImage" />
      </cc:Work>
    </rdf:RDF>
  </metadata>
  <defs
     id="defs42" />
  <sodipodi:namedview
     pagecolor="#ffffff"
     bordercolor="#666666"
     borderopacity="1"
     objecttolerance="10"
     gridtolerance="10"
     guidetolerance="10"
     inkscape:pageopacity="0"
     inkscape:pageshadow="2"
     inkscape:window-width="640"
     inkscape:window-height="480"
     id="namedview40"
     showgrid="false"
     inkscape:zoom="4.6691581"
     inkscape:cx="40.276727"
     inkscape:cy="6.6132591"
     inkscape:current-layer="svg38" />
  <linearGradient
     id="a"
     gradientUnits="userSpaceOnUse"
     x1="399.57144"
     x2="399.57144"
     y1="545.79797"
     y2="517.79797">
    <stop
       offset="0"
       stop-color="#3889e9"
       id="stop2" />
    <stop
       offset="1"
       stop-color="#5ea5fb"
       id="stop4" />
  </linearGradient>
  <linearGradient
     id="b"
     gradientUnits="userSpaceOnUse"
     x1="399.9939"
     x2="399.9939"
     y1="545.13873"
     y2="518.13873">
    <stop
       offset="0"
       stop-color="#007aac"
       id="stop7" />
    <stop
       offset="1"
       stop-color="#00a8ee"
       id="stop9" />
  </linearGradient>
  <g
     stroke-width="1.2999"
     transform="matrix(1.5714333,0,0,1.5714333,-605.49122,-811.67597)"
     id="g16"
     style="fill:#ffffff">
    <circle
       cx="400.57138"
       cy="531.79791"
       fill="url(#b)"
       r="13.999958"
       id="circle12"
       style="fill:url(#b)" />
    <circle
       cx="400.57138"
       cy="531.79791"
       fill="url(#a)"
       r="0"
       id="circle14"
       style="fill:url(#a)" />
  </g>
  <g
     enable-background="new"
     fill="#ffffff"
     fill-opacity="0.85"
     transform="matrix(0.14152458,0,0,0.14152458,-3.3342534,-64.914028)"
     id="g32">
    <g
       transform="translate(-0.20836,7.0001)"
       id="g28">
      <path
         d="m 177.89,597.13 h -0.01 c -6.6729,0 -12.107,-5.4267 -12.114,-12.095 -0.01,-6.6905 5.4251,-12.125 12.104,-12.132 6.683,0 12.116,5.4267 12.124,12.095 0,6.6905 -5.4251,12.126 -12.104,12.133 z"
         id="path18" />
      <path
         d="m 210.61,588.24 c -6.2309,0 -11.302,-5.0662 -11.307,-11.292 -0.01,-6.242 5.0612,-11.316 11.296,-11.321 6.2392,0 11.311,5.0651 11.317,11.291 0,6.242 -5.0622,11.316 -11.296,11.323 h -0.01 z"
         id="path20" />
      <circle
         cx="191.20261"
         cy="555.95599"
         r="10.0954"
         stroke-width="1.4422"
         id="circle22" />
      <circle
         cx="207.35782"
         cy="538.99664"
         r="9.2875147"
         stroke-width="0.80761"
         id="circle24" />
      <circle
         cx="187.19"
         cy="522.43994"
         r="8.0760746"
         stroke-width="0.76915"
         id="circle26" />
    </g>
    <path
       d="M 143.93,615.04 C 133.48,628.59 125,643.82 125,662.28 c 0,40.006 30.358,73 68,73 37.64,0 68,-32.993 68,-73 0,-18.461 -8.4889,-33.212 -19.53,-47.238 -4.1402,-4.3446 -10.118,-3.6986 -14.469,-0.91856 -12.733,6.5886 -19.606,9.2209 -34.001,9.1565 -13.922,-0.0624 -21.237,-2.336 -33.97,-9.2774 -4.3514,-2.6592 -10.964,-3.3052 -15.104,1.0394 z m 9.07,11.24 c 13.198,7.2975 24.969,11 40,11 15.044,0 26.795,-3.7025 40,-11 7.2055,10.16 14,22.758 14,36 0,32.801 -24.175,59 -54,59 -29.826,0 -54,-26.199 -54,-59 0,-13.225 6.7788,-25.832 14,-36 z"
       id="path30" />
  </g>
  <rect
     fill="none"
     height="60"
     ry="10"
     width="20"
     x="387.661939"
     y="-186.230445"
     id="rect36" />
</svg>
