<?xml version="1.0" encoding="UTF-8" standalone="no"?>
<!-- Created with Inkscape (http://www.inkscape.org/) -->

<svg
   xmlns:osb="http://www.openswatchbook.org/uri/2009/osb"
   xmlns:dc="http://purl.org/dc/elements/1.1/"
   xmlns:cc="http://creativecommons.org/ns#"
   xmlns:rdf="http://www.w3.org/1999/02/22-rdf-syntax-ns#"
   xmlns:svg="http://www.w3.org/2000/svg"
   xmlns="http://www.w3.org/2000/svg"
   xmlns:xlink="http://www.w3.org/1999/xlink"
   xmlns:sodipodi="http://sodipodi.sourceforge.net/DTD/sodipodi-0.dtd"
   xmlns:inkscape="http://www.inkscape.org/namespaces/inkscape"
   width="48"
   height="48"
   viewBox="0 0 48 48.000001"
   id="svg2"
   version="1.1"
   inkscape:version="0.91 r13725"
   sodipodi:docname="distributor-logo-nixos.svg">
  <defs
     id="defs4">
    <clipPath
       clipPathUnits="userSpaceOnUse"
       id="clipPath2451">
      <rect
         style="fill:#4040c0;fill-opacity:1;stroke:#4040c0"
         id="rect2453"
         width="13.035714"
         height="22.053572"
         x="102.94219"
         y="410.77362" />
    </clipPath>
    <linearGradient
       id="linearGradient4581"
       inkscape:collect="always">
      <stop
         id="stop4583"
         offset="0"
         style="stop-color:#4040c0;stop-opacity:1" />
      <stop
         id="stop4585"
         offset="1"
         style="stop-color:#8080ff;stop-opacity:1" />
    </linearGradient>
    <linearGradient
       id="linearGradient4232">
      <stop
         style="stop-color:#3889e9;stop-opacity:1"
         offset="0"
         id="stop4234-0" />
      <stop
         style="stop-color:#5ea5fb;stop-opacity:1"
         offset="1"
         id="stop4236" />
    </linearGradient>
    <linearGradient
       gradientUnits="userSpaceOnUse"
       y2="517.79797"
       x2="399.57144"
       y1="545.79797"
       x1="399.57144"
       id="linearGradient3426"
       xlink:href="#linearGradient4232"
       inkscape:collect="always"
       gradientTransform="matrix(1.6609885,0,0,1.6609885,-641.29218,145.44804)" />
    <linearGradient
       y2="518.13873"
       x2="399.9939"
       y1="545.13873"
       x1="399.9939"
       gradientUnits="userSpaceOnUse"
       id="linearGradient4181"
       xlink:href="#linearGradient4581"
       inkscape:collect="always"
       gradientTransform="matrix(1.6609885,0,0,1.6609885,-641.29218,145.44804)" />
    <style
       id="current-color-scheme"
       type="text/css">.ColorScheme-Text {
        color:#31363b;
      }
      .ColorScheme-Background{
        color:#eff0f1;
      }
      .ColorScheme-ViewText {
        color:#31363b;
      }
      .ColorScheme-ViewBackground{
        color:#fcfcfc;
      }
      .ColorScheme-ViewHover {
        color:#3daee9;
      }
      .ColorScheme-ViewFocus{
        color:#3daee9;
      }
      .ColorScheme-ButtonText {
        color:#31363b;
      }
      .ColorScheme-ButtonBackground{
        color:#eff0f1;
      }
      .ColorScheme-ButtonHover {
        color:#3daee9;
      }
      .ColorScheme-ButtonFocus{
        color:#3daee9;
      }</style>
    <style
       id="current-color-scheme-8"
       type="text/css">.ColorScheme-Text {
        color:#31363b;
      }
      .ColorScheme-Background{
        color:#eff0f1;
      }
      .ColorScheme-ViewText {
        color:#31363b;
      }
      .ColorScheme-ViewBackground{
        color:#fcfcfc;
      }
      .ColorScheme-ViewHover {
        color:#3daee9;
      }
      .ColorScheme-ViewFocus{
        color:#3daee9;
      }
      .ColorScheme-ButtonText {
        color:#31363b;
      }
      .ColorScheme-ButtonBackground{
        color:#eff0f1;
      }
      .ColorScheme-ButtonHover {
        color:#3daee9;
      }
      .ColorScheme-ButtonFocus{
        color:#3daee9;
      }</style>
    <style
       id="current-color-scheme-7"
       type="text/css">.ColorScheme-Text {
        color:#31363b;
      }
      .ColorScheme-Background{
        color:#eff0f1;
      }
      .ColorScheme-ViewText {
        color:#31363b;
      }
      .ColorScheme-ViewBackground{
        color:#fcfcfc;
      }
      .ColorScheme-ViewHover {
        color:#3daee9;
      }
      .ColorScheme-ViewFocus{
        color:#3daee9;
      }
      .ColorScheme-ButtonText {
        color:#31363b;
      }
      .ColorScheme-ButtonBackground{
        color:#eff0f1;
      }
      .ColorScheme-ButtonHover {
        color:#3daee9;
      }
      .ColorScheme-ButtonFocus{
        color:#3daee9;
      }</style>
    <linearGradient
       osb:paint="gradient"
       id="linearGradient4207">
      <stop
         id="stop3371"
         offset="0"
         style="stop-color:#3498db;stop-opacity:1;" />
      <stop
         id="stop3373"
         offset="1"
         style="stop-color:#3498db;stop-opacity:0;" />
    </linearGradient>
  </defs>
  <sodipodi:namedview
     id="base"
     pagecolor="#dcdcdc"
     bordercolor="#666666"
     borderopacity="1.0"
     inkscape:pageopacity="0"
     inkscape:pageshadow="2"
     inkscape:zoom="7.919596"
     inkscape:cx="14.936285"
     inkscape:cy="23.300766"
     inkscape:document-units="px"
     inkscape:current-layer="layer1"
     showgrid="false"
     units="px" />
  <metadata
     id="metadata7">
    <rdf:RDF>
      <cc:Work
         rdf:about="">
        <dc:format>image/svg+xml</dc:format>
        <dc:type
           rdf:resource="http://purl.org/dc/dcmitype/StillImage" />
        <dc:title></dc:title>
      </cc:Work>
    </rdf:RDF>
  </metadata>
  <g
     inkscape:label="Layer 1"
     inkscape:groupmode="layer"
     id="layer1"
     transform="translate(0,-1004.3622)">
    <circle
       r="23.253769"
       cy="1028.7583"
       cx="24.052277"
       id="path3377"
       style="opacity:1;fill:url(#linearGradient4181);fill-opacity:1;stroke:none;stroke-width:0.94059104;stroke-miterlimit:4;stroke-dasharray:none;stroke-dashoffset:0;stroke-opacity:1" />
    <circle
       style="opacity:1;fill:url(#linearGradient3426);fill-opacity:1;stroke:none;stroke-width:1.29989684;stroke-miterlimit:4;stroke-dasharray:none;stroke-dashoffset:0;stroke-opacity:1"
       id="ellipse4233"
       cx="24.052277"
       cy="1028.7583"
       r="0" />
    <path
       style="color:#000000;font-style:normal;font-variant:normal;font-weight:normal;font-stretch:normal;font-size:medium;line-height:normal;font-family:sans-serif;text-indent:0;text-align:start;text-decoration:none;text-decoration-line:none;text-decoration-style:solid;text-decoration-color:#000000;letter-spacing:normal;word-spacing:normal;text-transform:none;direction:ltr;block-progression:tb;writing-mode:lr-tb;baseline-shift:baseline;text-anchor:start;white-space:normal;clip-rule:nonzero;display:inline;overflow:visible;visibility:visible;opacity:1;isolation:auto;mix-blend-mode:normal;color-interpolation:sRGB;color-interpolation-filters:linearRGB;solid-color:#000000;solid-opacity:1;fill:#eaeff9;fill-opacity:1;fill-rule:evenodd;stroke:none;stroke-width:1.2813133;stroke-linecap:round;stroke-linejoin:miter;stroke-miterlimit:4;stroke-dasharray:none;stroke-dashoffset:0;stroke-opacity:1;color-rendering:auto;image-rendering:auto;shape-rendering:auto;text-rendering:auto;enable-background:accumulate"
       d="m 23.978421,1011.3841 a 0.96095817,0.96095817 0 0 0 -0.946167,0.9754 l 0,4.5462 0,2.3026 -5.928929,-3.4244 a 0.96095817,0.96095817 0 0 0 -0.553641,-0.138 l 0,0 a 0.96095817,0.96095817 0 0 0 -0.407174,1.7986 l 5.928929,3.4243 -5.448522,3.1432 -3.720227,-2.1443 -3.1724459,-1.8308 a 0.96095817,0.96095817 0 0 0 -0.454043,-0.141 l 0,0 a 0.96095817,0.96095817 0 0 0 -0.506772,1.8016 l 3.1724469,1.8308 2.759411,1.5935 -5.9318579,3.4214 a 0.96095817,0.96095817 0 1 0 0.960815,1.6639 l 5.9318589,-3.4244 0,6.2952 -6.8926739,3.9779 a 0.96095817,0.96095817 0 1 0 0.960815,1.6639 l 5.9318589,-3.4244 0,6.8458 0,0 a 0.96095816,0.96095816 0 0 0 1.909912,0.1669 0.96095816,0.96095816 0 0 0 0.0088,-0.09 0.96095817,0.96095817 0 0 0 0.003,-0.073 l 0,-6.8487 5.448521,3.149 0,7.956 a 0.96095817,0.96095817 0 1 0 1.921629,0 l 0,-6.8487 5.92893,3.4244 a 0.96095817,0.96095817 0 1 0 0.960814,-1.6639 l -5.928929,-3.4244 5.448523,-3.1461 6.892673,3.9781 a 0.96095817,0.96095817 0 1 0 0.960814,-1.6639 l -5.928929,-3.4244 5.928929,-3.4244 a 0.96095817,0.96095817 0 0 0 -0.439397,-1.7985 0.96095817,0.96095817 0 0 0 -0.521417,0.135 l -5.931859,3.4243 0,-6.2921 6.892673,-3.978 a 0.96095817,0.96095817 0 0 0 -0.439397,-1.8015 0.96095817,0.96095817 0 0 0 -0.521417,0.1379 l -5.931859,3.4214 0,-6.8457 a 0.96095817,0.96095817 0 0 0 -0.975461,-0.9755 0.96095817,0.96095817 0 0 0 -0.946168,0.9755 l 0,6.8457 -5.448523,-3.1431 0,-3.4127 0,-4.5462 a 0.96095817,0.96095817 0 0 0 -0.975461,-0.9755 z m 0.0147,10.5982 6.409338,3.6997 0,7.4025 -6.409338,3.6996 -6.409335,-3.6996 0,-7.4025 6.409335,-3.6997 z"
       id="path4701"
       inkscape:connector-curvature="0" />
  </g>
</svg>
