<svg height="48" width="48" xmlns="http://www.w3.org/2000/svg" xmlns:xlink="http://www.w3.org/1999/xlink">
  <linearGradient id="a" gradientUnits="userSpaceOnUse" x1="399.57144" x2="399.57144" y1="545.79797" y2="517.79797">
    <stop offset="0" stop-color="#3889e9" />
    <stop offset="1" stop-color="#5ea5fb" />
  </linearGradient>
  <linearGradient id="b" gradientUnits="userSpaceOnUse" x1="399.9939" x2="399.9939" y1="545.13873" y2="518.13873">
    <stop offset="0" stop-color="#0a80fd" />
    <stop offset="1" stop-color="#56c5fa" />
  </linearGradient>
  <g stroke-width="1.299897" transform="matrix(1.5714333 0 0 1.5714333 -605.4912 -811.67594)">
    <circle cx="400.57138" cy="531.79791" fill="url(#b)" r="13.999958" />
    <circle cx="400.57138" cy="531.79791" fill="url(#a)" r="0" />
  </g>
  <path d="m24.195808 9.9759843c-1.13723 2.7881167-1.823112 4.6118527-3.089217 7.3168277.776252.822893 1.729128 1.781134 3.276627 2.863434-1.663678-.684624-2.798477-1.371915-3.646536-2.08513-1.620376 3.381264-4.159124 8.19766-9.310991 17.454336 4.049198-2.33762 7.18781-3.778798 10.113251-4.328766-.125602-.540242-.197041-1.124628-.192188-1.734369l.0038-.129736c.06424-2.594208 1.413732-4.589128 3.012319-4.453658 1.598597.135412 2.841201 2.349493 2.776943 4.9437-.01201.488198-.06717.95773-.163332 1.393297 2.89351.566042 5.998773 2.00353 9.993164 4.309532-.787633-1.450015-1.490639-2.757151-2.16196-4.002046-1.057523-.819629-2.160495-1.886328-4.410413-3.041193 1.546477.401849 2.653725.865448 3.516809 1.383665-6.825646-12.708479-7.378158-14.397323-9.719156-19.8905371z" fill="#fff" fill-opacity=".85" fill-rule="evenodd" stroke-width=".946083" />
</svg>
