<?xml version="1.0" encoding="UTF-8" standalone="no"?>
<svg
   xmlns:dc="http://purl.org/dc/elements/1.1/"
   xmlns:cc="http://creativecommons.org/ns#"
   xmlns:rdf="http://www.w3.org/1999/02/22-rdf-syntax-ns#"
   xmlns:svg="http://www.w3.org/2000/svg"
   xmlns="http://www.w3.org/2000/svg"
   xmlns:sodipodi="http://sodipodi.sourceforge.net/DTD/sodipodi-0.dtd"
   xmlns:inkscape="http://www.inkscape.org/namespaces/inkscape"
   height="48"
   width="48"
   version="1.1"
   id="svg20"
   sodipodi:docname="distributor-logo-archlinux.svg"
   inkscape:version="1.0.1 (3bc2e813f5, 2020-09-07)">
  <metadata
     id="metadata26">
    <rdf:RDF>
      <cc:Work
         rdf:about="">
        <dc:format>image/svg+xml</dc:format>
        <dc:type
           rdf:resource="http://purl.org/dc/dcmitype/StillImage" />
      </cc:Work>
    </rdf:RDF>
  </metadata>
  <defs
     id="defs24" />
  <sodipodi:namedview
     pagecolor="#ffffff"
     bordercolor="#666666"
     borderopacity="1"
     objecttolerance="10"
     gridtolerance="10"
     guidetolerance="10"
     inkscape:pageopacity="0"
     inkscape:pageshadow="2"
     inkscape:window-width="640"
     inkscape:window-height="480"
     id="namedview22"
     showgrid="false"
     inkscape:zoom="10.145833"
     inkscape:cx="24"
     inkscape:cy="24"
     inkscape:current-layer="svg20" />
  <linearGradient
     id="a"
     gradientUnits="userSpaceOnUse"
     x1="399.57144"
     x2="399.57144"
     y1="545.79797"
     y2="517.79797">
    <stop
       offset="0"
       stop-color="#3889e9"
       id="stop2" />
    <stop
       offset="1"
       stop-color="#5ea5fb"
       id="stop4" />
  </linearGradient>
  <linearGradient
     id="b"
     gradientUnits="userSpaceOnUse"
     x1="399.9939"
     x2="399.9939"
     y1="545.13873"
     y2="518.13873">
    <stop
       offset="0"
       stop-color="#0a80fd"
       id="stop7" />
    <stop
       offset="1"
       stop-color="#56c5fa"
       id="stop9" />
  </linearGradient>
  <g
     stroke-width="1.299897"
     transform="matrix(1.5714333,0,0,1.5714333,-605.4912,-811.67594)"
     id="g16">
    <circle
       cx="400.57138"
       cy="531.79791"
       fill="url(#b)"
       r="13.999958"
       id="circle12"
       style="fill:url(#b)" />
    <circle
       cx="400.57138"
       cy="531.79791"
       fill="url(#a)"
       r="0"
       id="circle14"
       style="fill:url(#a)" />
  </g>
  <path
     d="m 24.195808,9.9759843 c -1.13723,2.7881167 -1.823112,4.6118527 -3.089217,7.3168277 0.776252,0.822893 1.729128,1.781134 3.276627,2.863434 -1.663678,-0.684624 -2.798477,-1.371915 -3.646536,-2.08513 -1.620376,3.381264 -4.159124,8.19766 -9.310991,17.454336 4.049198,-2.33762 7.18781,-3.778798 10.113251,-4.328766 -0.125602,-0.540242 -0.197041,-1.124628 -0.192188,-1.734369 l 0.0038,-0.129736 c 0.06424,-2.594208 1.413732,-4.589128 3.012319,-4.453658 1.598597,0.135412 2.841201,2.349493 2.776943,4.9437 -0.01201,0.488198 -0.06717,0.95773 -0.163332,1.393297 2.89351,0.566042 5.998773,2.00353 9.993164,4.309532 -0.787633,-1.450015 -1.490639,-2.757151 -2.16196,-4.002046 -1.057523,-0.819629 -2.160495,-1.886328 -4.410413,-3.041193 1.546477,0.401849 2.653725,0.865448 3.516809,1.383665 C 27.088438,17.157399 26.535926,15.468555 24.194928,9.9753409 Z"
     fill="#ffffff"
     fill-opacity="0.85"
     fill-rule="evenodd"
     id="path18"
     style="stroke-width:0.946083" />
</svg>
