<?xml version="1.0" encoding="UTF-8" standalone="no"?>
<svg
   xmlns:dc="http://purl.org/dc/elements/1.1/"
   xmlns:cc="http://creativecommons.org/ns#"
   xmlns:rdf="http://www.w3.org/1999/02/22-rdf-syntax-ns#"
   xmlns:svg="http://www.w3.org/2000/svg"
   xmlns="http://www.w3.org/2000/svg"
   xmlns:sodipodi="http://sodipodi.sourceforge.net/DTD/sodipodi-0.dtd"
   xmlns:inkscape="http://www.inkscape.org/namespaces/inkscape"
   height="48"
   width="48"
   version="1.1"
   id="svg26"
   sodipodi:docname="distributor-logo-gentoo.svg"
   inkscape:version="1.0.1 (3bc2e813f5, 2020-09-07)">
  <metadata
     id="metadata32">
    <rdf:RDF>
      <cc:Work
         rdf:about="">
        <dc:format>image/svg+xml</dc:format>
        <dc:type
           rdf:resource="http://purl.org/dc/dcmitype/StillImage" />
      </cc:Work>
    </rdf:RDF>
  </metadata>
  <defs
     id="defs30" />
  <sodipodi:namedview
     pagecolor="#ffffff"
     bordercolor="#666666"
     borderopacity="1"
     objecttolerance="10"
     gridtolerance="10"
     guidetolerance="10"
     inkscape:pageopacity="0"
     inkscape:pageshadow="2"
     inkscape:window-width="640"
     inkscape:window-height="480"
     id="namedview28"
     showgrid="false"
     inkscape:zoom="10.145833"
     inkscape:cx="24"
     inkscape:cy="24"
     inkscape:current-layer="svg26" />
  <linearGradient
     id="a"
     gradientUnits="userSpaceOnUse"
     x1="399.57144"
     x2="399.57144"
     y1="545.79797"
     y2="517.79797">
    <stop
       offset="0"
       stop-color="#3889e9"
       id="stop2" />
    <stop
       offset="1"
       stop-color="#5ea5fb"
       id="stop4" />
  </linearGradient>
  <linearGradient
     id="b"
     gradientUnits="userSpaceOnUse"
     x1="399.9939"
     x2="399.9939"
     y1="545.13873"
     y2="518.13873">
    <stop
       offset="0"
       stop-color="#9662ff"
       id="stop7" />
    <stop
       offset="1"
       stop-color="#bc9bff"
       id="stop9" />
  </linearGradient>
  <g
     stroke-width="1.2999"
     id="g24"
     transform="matrix(0.91666668,0,0,0.91666668,1.9983326,2.0007492)">
    <g
       transform="matrix(1.7142908,0,0,1.7142908,-662.71585,-887.64729)"
       id="g16">
      <circle
         cx="400.57138"
         cy="531.79791"
         fill="url(#b)"
         r="13.999958"
         id="circle12"
         style="fill:url(#b)" />
      <circle
         cx="400.57138"
         cy="531.79791"
         fill="url(#a)"
         r="0"
         id="circle14"
         style="fill:url(#a)" />
    </g>
    <g
       transform="matrix(1.2793734,0,0,1.2793734,-532.11038,-655.93038)"
       id="g22">
      <path
         d="M 25.757,521.91 C 25.825,495.65 48.149,458.99 79.869,425.68 101.07,403.42 122.6,383.88 169.53,343.87 137.06,326.06 86.575,304.56 61.24,276.42 51.869,266 34.879,242.41 38.174,210.89 44.891,146.64 124.19,49.14 236.914,28.53 c 37.504,-6.8587 80.564,-1.9078 116,14.025 111.18,49.984 247.15,174.16 263.88,234.79 5.8884,21.342 4.7566,55.36 -5.3948,74.32 -12.581,23.498 -56.136,71.225 -115.72,120.47 -93.499,77.274 -224.52,160.25 -322.35,174.21 -31.611,4.5114 -63.908,-0.19399 -86.572,-12.983 -35.481,-20.01 -47.252,-46.72 -51.39,-54.73 -11.003,-21.29 -9.637,-48.27 -9.613,-56.73 z"
         fill="#ffffff"
         fill-opacity="0.85"
         fill-rule="evenodd"
         transform="matrix(0.03847227,0,0,0.038686,423.1991,518.67642)"
         id="path18" />
      <ellipse
         cx="-279.12872"
         cy="624.1015"
         fill="#b088ff"
         rx="2.254441"
         ry="2.705317"
         transform="rotate(-63.833)"
         id="ellipse20" />
    </g>
  </g>
</svg>
