<svg viewBox="0 0 48 48" xmlns="http://www.w3.org/2000/svg" xmlns:xlink="http://www.w3.org/1999/xlink"><linearGradient id="a" gradientUnits="userSpaceOnUse" x1="399.57144" x2="399.57144" y1="545.79797" y2="517.79797"><stop offset="0" stop-color="#3889e9"/><stop offset="1" stop-color="#5ea5fb"/></linearGradient><linearGradient id="b" gradientUnits="userSpaceOnUse" x1="399.9939" x2="399.9939" y1="545.13873" y2="518.13873"><stop offset="0" stop-color="#1a85f2"/><stop offset="1" stop-color="#20bafa"/></linearGradient><g stroke-width="1.299897" transform="matrix(1.522572853746 0 0 1.522572853746 -585.66647420394 -785.567009233471)"><circle cx="400.57138" cy="531.79791" fill="url(#a)" r="0"/><g transform="matrix(1.0320907 0 0 1.0320907 -13.007404 -17.153813)"><circle cx="400.57138" cy="531.79791" fill="url(#b)" r="13.999958"/><path d="m401.32441 523.81112-2.85832.27484v11.77529l2.82777-.42753v-5.02037l3.80497 5.57003 2.98047-.94665-3.89658-5.35629 3.92713-5.0509-3.04154-.69626-3.77445 5.05089.0306-5.17305zm-6.48007 2.87053c-.0324.002-.0672.0123-.0917.0365l-1.12377 1.12377c-.0471.0473-.053.11987-.0172.17724l1.31309 2.16816c-.23313.39193-.42248.81238-.55577 1.25813l-2.41247.50083c-.0672.0147-.11595.0777-.11595.1466v1.58795c0 .0672.051.12478.11595.14047l2.33917.568c.12503.51605.31833 1.0099.57411 1.45969l-1.35587 2.06434c-.0378.0576-.0304.13459.0172.18313l1.12377 1.12379c.0473.0471.11987.0532.17699.0172l2.12543-1.28868c.41687.24073.86818.43349 1.34364.56187l.49471 2.38196c.0147.0674.0718.11595.14046.11595h1.58798c.0667 0 .12453-.0449.14047-.10982l.58631-2.39414c.49037-.13213.95268-.32847 1.38029-.58021l2.09489 1.37419c.0578.0377.13434.0304.18312-.0172l1.11769-1.12377c.0476-.0473.0593-.11988.0245-.177l-.76343-1.25816-.25042.0794c-.036.0123-.0762-.005-.0978-.0365 0 0-.48225-.7094-1.11156-1.6307-.75265 1.47273-2.28755 2.47964-4.05541 2.47964-2.51208 0-4.55009-2.03801-4.55009-4.55009 0-1.84783 1.10499-3.43492 2.6873-4.14699v-1.17266c-.28797.10076-.56619.22235-.83062.36647-.00049-.00032.00049-.005 0-.007l-2.14372-1.40471c-.0289-.0196-.0593-.0221-.0917-.0172z" fill="#fff" fill-opacity=".85"/></g></g></svg>