<svg height="48" width="48" xmlns="http://www.w3.org/2000/svg" xmlns:xlink="http://www.w3.org/1999/xlink">
  <linearGradient id="a" gradientUnits="userSpaceOnUse" x1="399.57144" x2="399.57144" y1="545.79797" y2="517.79797">
    <stop offset="0" stop-color="#3889e9" />
    <stop offset="1" stop-color="#5ea5fb" />
  </linearGradient>
  <linearGradient id="b" gradientUnits="userSpaceOnUse" x1="399.9939" x2="399.9939" y1="545.13873" y2="518.13873">
    <stop offset="0" stop-color="#2980b9" />
    <stop offset="1" stop-color="#1abc9c" />
  </linearGradient>
  <g stroke-width="1.299897" transform="matrix(1.71429082 0 0 1.71429082 -662.71585 -887.647291)">
    <circle cx="400.57138" cy="531.79791" fill="url(#b)" r="13.999958" />
    <circle cx="400.57138" cy="531.79791" fill="url(#a)" r="0" />
  </g>
  <path d="m23.999999 5.0000001c-.732061.0006266-1.365835.5087458-1.525633 1.2231527-3.670625.3194411-7.152972 1.7649157-9.970842 4.1387592-.241251-.143836-.516769-.220081-.797642-.220736-.864163.000001-1.564704.700543-1.564704 1.564706.000649.28066.07677.555979.2204.797106-2.3773336 2.817691-3.8257026 6.301284-4.1468291 9.973883-.7101552.162958-1.2138462.794518-1.2147489 1.52313.0005955.732085.5087223 1.365897 1.2231541 1.5257.3194655 3.670595 1.7649465 7.152909 4.1387799 9.970752-.143848.241254-.220101.516782-.220756.797665 0 .864163.700541 1.564705 1.564704 1.564707.279735-.000626.554188-.07623.79478-.218948 2.818507 2.377338 6.302998 3.825293 9.976298 4.145576.16303.710042.794521 1.213623 1.523039 1.214547.732613-.000579 1.366745-.509406 1.526036-1.224494 3.673734-.314561 7.16042-1.757048 9.982599-4.129929.23843.139127.509425.212698.785478.213248.864167.000004 1.564714-.700541 1.564714-1.564707-.000648-.280306-.07659-.555293-.219866-.796212 2.383385-2.817033 3.836949-6.302403 4.161352-9.978128.702954-.16864 1.198876-.796879 1.199688-1.519777-.000579-.732613-.509409-1.366746-1.224496-1.526036-.314954-3.673458-1.757667-7.159771-4.1306-9.981594.139535-.238662.213346-.510031.213922-.786489 0-.864166-.700548-1.56471-1.564714-1.564706-.280443.000645-.55556.07665-.79656.220065-2.816954-2.3832716-6.302187-3.8367857-9.977775-4.1612237-.16851-.7030848-.796782-1.1991688-1.519778-1.2000172zm-1.471761 2.091229c.222274.6220238.811216 1.0374661 1.471761 1.0381828.651828-.0008522 1.234846-.4057034 1.463358-1.0161645 3.468424.3047921 6.759439 1.6679522 9.427533 3.9049466-.105542.213923-.160778.449147-.161482.687688 0 .864162.700543 1.564705 1.564704 1.564706.239483-.000323.475696-.05561.690442-.161611 2.238054 2.666573 3.602844 5.956352 3.909666 9.424111-.614623.226507-1.023109.811881-1.023639 1.466913.000857.651811.405691 1.234815 1.016131 1.463334-.304765 3.468432-1.667902 6.759463-3.90488 9.427577-.213932-.105553-.449166-.160796-.68772-.1615-.864161.000001-1.564704.700544-1.564704 1.564706.000339.23887.05536.474493.160858.688807-2.666155 2.238502-5.955661 3.603869-9.423334 3.911317-.226504-.614636-.81189-1.02313-1.466933-1.023654-.651397.000846-1.234128.405164-1.462954 1.015047-3.469179-.299126-6.762651-1.657068-9.434508-3.889969.109895-.217567.167442-.457802.168051-.701548 0-.864164-.700542-1.564706-1.564706-1.564706-.239014.000342-.474772.05543-.689184.161054-2.242553-2.663251-3.6126615-5.951227-3.9248639-9.418861.6217317-.222456 1.0368874-.811273 1.0375784-1.471604-.0008259-.651414-.405148-1.23417-1.0150469-1.463001.2993695-3.469178 1.6575535-6.762572 3.8906624-9.434283.217373.109728.457356.16721.700854.167871.864164 0 1.564706-.700542 1.564706-1.564706-.000336-.239248-.05554-.475233-.161343-.689811 2.663289-2.2425708 5.951316-3.6126728 9.418993-3.9248419zm1.471761 3.2733659c-.736818.000416-1.37351.514824-1.528716 1.23511-6.26586.770978-10.977 6.087194-10.98893 12.400296.0094 6.315873 4.722462 11.635377 10.991208 12.405546.157156.717366.792059 1.228912 1.526438 1.229859.736803-.000382 1.373508-.51474 1.528763-1.235 6.265882-.771006 10.977008-6.087277 10.988881-12.400405-.009446-6.315858-4.722434-11.635357-10.991162-12.405548-.157161-.717381-.792088-1.228931-1.526482-1.229858zm-1.46157 2.121963c.231125.606418.812599 1.007223 1.46157 1.007447.647356-.000764 1.2274-.400089 1.459153-1.00454 5.80106.73403 10.153791 5.66323 10.164378 11.510536-.009 5.847588-4.360739 10.778137-10.161919 11.513441-.231131-.606433-.812626-1.007241-1.461612-1.007447-.647341.000782-1.227363.400104-1.459111 1.00454-5.801077-.73401-10.153828-5.663216-10.164418-11.510535.009-5.847601 4.360763-10.778156 10.161959-11.513442zm1.46157 7.042854c-2.469039.000001-4.470587 2.001551-4.470587 4.470589.000001 2.469037 2.00155 4.470586 4.470587 4.470587 2.469038.000003 4.47059-2.001548 4.470592-4.470587 0-2.469039-2.001553-4.470592-4.470592-4.470589z" fill="#fff" fill-opacity=".85098" fill-rule="evenodd" stroke-width="1.085714" />
</svg>
