<svg height="48" width="48" xmlns="http://www.w3.org/2000/svg" xmlns:xlink="http://www.w3.org/1999/xlink">
  <linearGradient id="a" gradientUnits="userSpaceOnUse" x1="399.57144" x2="399.57144" y1="545.79797" y2="517.79797">
    <stop offset="0" stop-color="#3889e9" />
    <stop offset="1" stop-color="#5ea5fb" />
  </linearGradient>
  <linearGradient id="b" gradientUnits="userSpaceOnUse" x1="399.9939" x2="399.9939" y1="545.13873" y2="518.13873">
    <stop offset="0" stop-color="#2980b9" />
    <stop offset="1" stop-color="#1abc9c" />
  </linearGradient>
  <g stroke-width="1.2999" transform="matrix(1.5714333 0 0 1.5714333 -605.49121 -811.67595)">
    <circle cx="400.57138" cy="531.79791" fill="url(#b)" r="13.999958" />
    <circle cx="400.57138" cy="531.79791" fill="url(#a)" r="0" />
  </g>
  <path d="m23.998332 6.5840822c-.671056.0005743-1.252016.4663503-1.398497 1.1212233-3.36474.292821-6.556891 1.6178394-9.139939 3.7938625-.221147-.13185-.473705-.201741-.731172-.202341-.792149.000001-1.434312.642164-1.434312 1.434314.000595.257271.07037.509647.202033.73068-2.179222 2.582884-3.5068936 5.776177-3.8012596 9.142726-.6509756.149379-1.1126924.728309-1.1135199 1.396203.0005459.671078.4663288 1.252072 1.1212247 1.398558.2928433 3.364712 1.6178676 6.556834 3.7938818 9.139857-.131861.221149-.201759.473716-.20236.731192 0 .79215.642163 1.434313 1.434312 1.434315.256424-.000574.508006-.06988.728549-.200702 2.583631 2.179226 5.777748 3.506519 9.14494 3.800111.149444.650872.72831 1.112488 1.396119 1.113335.671562-.000531 1.252849-.466955 1.398866-1.122453 3.36759-.288347 6.563718-1.610627 9.150716-3.785768.218561.127533.466973.194973.720021.195477.792154.000004 1.434322-.642162 1.434322-1.434315-.000594-.256947-.07021-.509018-.201544-.729861 2.184769-2.58228 3.517203-5.777202 3.814573-9.146617.644374-.154587 1.098969-.730473 1.099714-1.393129-.000531-.671562-.466959-1.252851-1.122455-1.398866-.288708-3.367337-1.611195-6.563124-3.786384-9.149795.127908-.218774.195568-.467528.196096-.720948 0-.792153-.642169-1.434318-1.434322-1.434314-.257072.000591-.509263.07026-.73018.201726-2.582207-2.1846656-5.777004-3.5170536-9.146294-3.8144551-.154467-.6444944-.730383-1.099238-1.393129-1.1000157zm-1.349115 1.9169599c.203752.5701885.743615.9510106 1.349115.9516676.597509-.0007812 1.131942-.3718948 1.341411-.9314842 3.179389.2793928 6.196153 1.5289565 8.641906 3.5795345-.09675.196096-.14738.411718-.148026.630381 0 .792148.642165 1.434313 1.434312 1.434314.219527-.000297.436055-.05098.632906-.148144 2.051549 2.444359 3.302607 5.45999 3.58386 8.638769-.563404.207631-.93785.744224-.938336 1.34467.000786.597493.371884 1.131914.931454 1.341389-.279368 3.179397-1.52891 6.196175-3.579474 8.641946-.196104-.09676-.411735-.147396-.63041-.148041-.792147 0-1.434312.642165-1.434312 1.434313.000311.218965.05075.434952.147454.631407-2.443976 2.05196-5.459356 3.303547-8.638057 3.585374-.207628-.563416-.744232-.937869-1.344688-.93835-.597114.000776-1.131284.371401-1.341042.93046-3.18008-.274199-6.199096-1.518979-8.648299-3.565805.100737-.199436.153489-.419652.154047-.643086 0-.79215-.642163-1.434313-1.434314-1.434313-.219096.000313-.435208.05081-.631752.147632-2.055673-2.441313-3.3116063-5.455291-3.5977918-8.633956.5699207-.203918.9504801-.743667.9511135-1.34897-.000757-.59713-.3713856-1.131323-.9304596-1.341084.274422-3.18008 1.5194239-6.199025 3.5664409-8.648093.199258.100584.419243.153276.642449.153882.792151 0 1.434314-.642164 1.434314-1.434314-.000308-.219311-.05091-.435631-.147898-.632327 2.441349-2.05569 5.455373-3.3116169 8.634077-3.5977719zm1.349115 3.0005859c-.675417.000381-1.259051.471922-1.401323 1.132184-5.743706.70673-10.062251 5.579928-10.073186 11.366938.0086 5.78955 4.328923 10.665762 10.075274 11.371751.144059.657585.726054 1.126502 1.399235 1.12737.675402-.00035 1.259049-.471845 1.401366-1.132083 5.743725-.706755 10.062257-5.580004 10.073141-11.367038-.0087-5.789537-4.328898-10.665744-10.075232-11.371753-.144064-.657599-.726081-1.12652-1.399275-1.127369zm-1.339773 1.945132c.211865.555884.744883.923288 1.339773.923493.593409-.0007 1.125116-.366748 1.337557-.920828 5.317638.672861 9.307641 5.191294 9.317346 10.551325-.0083 5.360289-3.997344 9.879959-9.315092 10.553988-.21187-.555897-.744908-.923305-1.339811-.923493-.593396.000716-1.125083.366762-1.337519.920828-5.317654-.672843-9.307676-5.191281-9.317383-10.551324.0083-5.360301 3.997366-9.879976 9.315129-10.553989zm1.339773 6.45595c-2.263286.000001-4.098039 1.834755-4.098039 4.09804.000001 2.263284 1.834755 4.098037 4.098039 4.098038 2.263285.000003 4.098041-1.834752 4.098042-4.098038 0-2.263286-1.834757-4.098043-4.098042-4.09804z" fill="#fff" fill-opacity=".85098" fill-rule="evenodd" stroke-width=".995238" />
</svg>
