<?xml version="1.0" encoding="UTF-8" standalone="no"?>
<svg
   xmlns:dc="http://purl.org/dc/elements/1.1/"
   xmlns:cc="http://creativecommons.org/ns#"
   xmlns:rdf="http://www.w3.org/1999/02/22-rdf-syntax-ns#"
   xmlns:svg="http://www.w3.org/2000/svg"
   xmlns="http://www.w3.org/2000/svg"
   xmlns:xlink="http://www.w3.org/1999/xlink"
   xmlns:sodipodi="http://sodipodi.sourceforge.net/DTD/sodipodi-0.dtd"
   xmlns:inkscape="http://www.inkscape.org/namespaces/inkscape"
   version="1.1"
   preserveAspectRatio="xMidYMid meet"
   viewBox="0 0 48 48"
   width="48"
   height="48"
   id="svg78"
   sodipodi:docname="folder-violet.svg"
   inkscape:version="0.92.3 (2405546, 2018-03-11)">
  <metadata
     id="metadata82">
    <rdf:RDF>
      <cc:Work
         rdf:about="">
        <dc:format>image/svg+xml</dc:format>
        <dc:type
           rdf:resource="http://purl.org/dc/dcmitype/StillImage" />
        <dc:title></dc:title>
      </cc:Work>
    </rdf:RDF>
  </metadata>
  <sodipodi:namedview
     pagecolor="#ffffff"
     bordercolor="#666666"
     borderopacity="1"
     objecttolerance="10"
     gridtolerance="10"
     guidetolerance="10"
     inkscape:pageopacity="0"
     inkscape:pageshadow="2"
     inkscape:window-width="1135"
     inkscape:window-height="502"
     id="namedview80"
     showgrid="false"
     inkscape:zoom="5.9"
     inkscape:cx="8.6440677"
     inkscape:cy="26.446281"
     inkscape:window-x="229"
     inkscape:window-y="163"
     inkscape:window-maximized="0"
     inkscape:current-layer="svg78" />
  <defs
     id="defs32">
    <path
       d="m 6.54,11.66 c -0.73,0 -1.32,0.59 -1.32,1.32 0,2.56 0,22.99 0,25.55 0,0.73 0.59,1.33 1.32,1.33 1.15,0 6.89,0 17.21,0 h 1.21 c 10.32,0 16.06,0 17.2,0 0.74,0 1.33,-0.6 1.33,-1.33 0,-2.56 0,-22.99 0,-25.55 0,-0.73 -0.59,-1.32 -1.33,-1.32 -1.14,0 -6.88,0 -17.2,0 h -1.21 c -9.18,0 -14.91,0 -17.21,0 z"
       id="a7g0fRVF2"
       inkscape:connector-curvature="0" />
    <linearGradient
       id="gradientd7k6AnyW4"
       gradientUnits="userSpaceOnUse"
       x1="22.1"
       y1="39.57"
       x2="22"
       y2="11.94">
      <stop
         style="stop-color: #759bff;stop-opacity: 1"
         offset="0%"
         id="stop3" />
      <stop
         style="stop-color: #7f00ff;stop-opacity: 1"
         offset="100%"
         id="stop5" />
    </linearGradient>
    <path
       d="m 18.09,8.02 c -1.22,0 -10.96,0 -12.17,0 -0.38,0 -0.69,0.31 -0.69,0.7 0,0.42 0,3.8 0,4.22 0,0.02 -0.01,0.04 -0.01,0.05 0,2.56 0,23.02 0,25.58 0,0.73 0.6,1.33 1.33,1.33 3.57,0 32.13,0 35.7,0 0.74,0 1.33,-0.6 1.33,-1.33 0,-2.56 0,-23.02 0,-25.58 0,-0.73 -0.59,-1.33 -1.33,-1.33 -2.13,0 -19.18,0 -21.31,0 -0.02,-0.01 -0.03,-0.02 -0.04,-0.04 -0.49,-0.66 -1.23,-2.45 -1.72,-3.1 -0.29,-0.42 -0.4,-0.49 -0.71,-0.5 -0.1,0 -0.22,0 -0.38,0 z"
       id="d1XJSOORma"
       inkscape:connector-curvature="0" />
    <linearGradient
       id="gradientbXJA2eCJF"
       gradientUnits="userSpaceOnUse"
       x1="13.92"
       y1="39.849998"
       x2="13.52"
       y2="8.3100004">
      <stop
         style="stop-color: #759bff;stop-opacity: 1"
         offset="0%"
         id="stop9" />
      <stop
         style="stop-color: #7f00ff;stop-opacity: 1"
         offset="100%"
         id="stop11" />
    </linearGradient>
    <path
       d="m 17.24,9.46 c 0.27,0 0.5,0.22 0.5,0.5 0,0.11 0,0.99 0,1.11 0,0.27 -0.23,0.5 -0.5,0.5 -0.98,0 -8.77,0 -9.74,0 -0.28,0 -0.5,-0.23 -0.5,-0.5 0,-0.12 0,-1 0,-1.11 0,-0.28 0.22,-0.5 0.5,-0.5 1.95,0 8.76,0 9.74,0 z"
       id="d1WWCGjae2"
       inkscape:connector-curvature="0" />
    <linearGradient
       id="gradientadZMrzrJp"
       gradientUnits="userSpaceOnUse"
       x1="18.030001"
       y1="39.75"
       x2="17.59"
       y2="9.6499996">
      <stop
         style="stop-color: #cccccc;stop-opacity: 1"
         offset="0%"
         id="stop15" />
      <stop
         style="stop-color: #e6e6e6;stop-opacity: 1"
         offset="100%"
         id="stop17" />
    </linearGradient>
    <path
       d="m 5.58,12.85 c -0.64,0 -1.19,0.54 -1.15,1.22 0.15,2.33 1.36,21.03 1.51,23.36 0.04,0.67 0.51,1.22 1.15,1.22 1,0 5.98,0 14.94,0 h 4.38 c 8.97,0 13.95,0 14.94,0 0.64,0 1.11,-0.55 1.15,-1.22 0.16,-2.33 1.37,-21.03 1.52,-23.36 0.04,-0.68 -0.52,-1.22 -1.15,-1.22 -1.1,0 -6.59,0 -16.46,0 h -4.38 c -8.77,0 -14.26,0 -16.45,0 z"
       id="i41Mt4Jdux"
       inkscape:connector-curvature="0" />
    <linearGradient
       id="gradienta8F0lBJWw"
       gradientUnits="userSpaceOnUse"
       x1="16.75"
       y1="39.919998"
       x2="16.24"
       y2="9.5100002">
      <stop
         style="stop-color: #cccccc;stop-opacity: 1"
         offset="0%"
         id="stop21" />
      <stop
         style="stop-color: #f5f2f5;stop-opacity: 1"
         offset="100%"
         id="stop23" />
    </linearGradient>
    <path
       d="m 5.12,14.59 c -0.65,0 -1.21,0.54 -1.18,1.21 0.12,2.3 1.04,20.67 1.15,22.97 0.03,0.67 0.53,1.21 1.18,1.21 1.04,0 6.26,0 15.66,0 h 4.48 c 9.63,-0.03 14.97,-0.04 16.04,-0.05 0.66,0 1.16,-0.54 1.18,-1.21 0.09,-2.29 0.81,-20.63 0.9,-22.92 0.03,-0.67 -0.52,-1.21 -1.18,-1.21 -1.12,0 -6.75,0 -16.87,0 h -4.49 c -8.99,0 -14.62,0 -16.87,0 z"
       id="biwC206w"
       inkscape:connector-curvature="0" />
    <linearGradient
       id="gradientb1TK8Nilqx"
       gradientUnits="userSpaceOnUse"
       x1="21.030001"
       y1="39.900002"
       x2="20.940001"
       y2="11.66">
      <stop
         style="stop-color: #759bff;stop-opacity: 1"
         offset="0%"
         id="stop27" />
      <stop
         style="stop-color: #7f00ff;stop-opacity: 1"
         offset="100%"
         id="stop29" />
    </linearGradient>
  </defs>
  <use
     height="100%"
     width="100%"
     y="0"
     x="0"
     style="opacity:1;fill:url(#gradientd7k6AnyW4)"
     id="use34"
     xlink:href="#a7g0fRVF2"
     transform="matrix(0.97597248,0,0,0.96969107,0.58480922,0.72692429)" />
  <use
     xlink:href="#a7g0fRVF2"
     id="use36"
     style="opacity:1;fill-opacity:0;stroke:#000000;stroke-width:1;stroke-opacity:0"
     x="0"
     y="0"
     width="100%"
     height="100%"
     transform="matrix(0.97597248,0,0,0.96969107,0.58480922,0.72692429)" />
  <use
     height="100%"
     width="100%"
     y="0"
     x="0"
     style="opacity:1;fill:url(#gradientbXJA2eCJF)"
     id="use42"
     xlink:href="#d1XJSOORma"
     transform="matrix(0.97597248,0,0,0.96969107,0.58480922,0.72692429)" />
  <use
     xlink:href="#d1XJSOORma"
     id="use44"
     style="opacity:1;fill-opacity:0;stroke:#000000;stroke-width:1;stroke-opacity:0"
     x="0"
     y="0"
     width="100%"
     height="100%"
     transform="matrix(0.97597248,0,0,0.96969107,0.58480922,0.72692429)" />
  <use
     height="100%"
     width="100%"
     y="0"
     x="0"
     style="opacity:1;fill:url(#gradientadZMrzrJp)"
     id="use50"
     xlink:href="#d1WWCGjae2"
     transform="matrix(0.97597248,0,0,0.96969107,0.58480922,0.72692429)" />
  <use
     xlink:href="#d1WWCGjae2"
     id="use52"
     style="opacity:1;fill-opacity:0;stroke:#000000;stroke-width:1;stroke-opacity:0"
     x="0"
     y="0"
     width="100%"
     height="100%"
     transform="matrix(0.97597248,0,0,0.96969107,0.58480922,0.72692429)" />
  <use
     height="100%"
     width="100%"
     y="0"
     x="0"
     style="opacity:1;fill:url(#gradienta8F0lBJWw)"
     id="use58"
     xlink:href="#i41Mt4Jdux"
     transform="matrix(0.97597248,0,0,0.96969107,0.58480922,0.72692429)" />
  <use
     xlink:href="#i41Mt4Jdux"
     id="use60"
     style="opacity:1;fill-opacity:0;stroke:#000000;stroke-width:1;stroke-opacity:0"
     x="0"
     y="0"
     width="100%"
     height="100%"
     transform="matrix(0.97597248,0,0,0.96969107,0.58480922,0.72692429)" />
  <use
     height="100%"
     width="100%"
     y="0"
     x="0"
     style="opacity:1;fill:url(#gradientb1TK8Nilqx)"
     id="use66"
     xlink:href="#biwC206w"
     transform="matrix(0.97597248,0,0,0.96969107,0.58480922,0.72692429)" />
  <use
     xlink:href="#biwC206w"
     id="use68"
     style="opacity:1;fill-opacity:0;stroke:#000000;stroke-width:1;stroke-opacity:0"
     x="0"
     y="0"
     width="100%"
     height="100%"
     transform="matrix(0.97597248,0,0,0.96969107,0.58480922,0.72692429)" />
</svg>
