<?xml version="1.0" encoding="UTF-8" standalone="no"?>
<svg
   xmlns:dc="http://purl.org/dc/elements/1.1/"
   xmlns:cc="http://creativecommons.org/ns#"
   xmlns:rdf="http://www.w3.org/1999/02/22-rdf-syntax-ns#"
   xmlns:svg="http://www.w3.org/2000/svg"
   xmlns="http://www.w3.org/2000/svg"
   xmlns:xlink="http://www.w3.org/1999/xlink"
   xmlns:sodipodi="http://sodipodi.sourceforge.net/DTD/sodipodi-0.dtd"
   xmlns:inkscape="http://www.inkscape.org/namespaces/inkscape"
   height="48"
   viewBox="0 0 48 48"
   width="48"
   version="1.1"
   id="svg39"
   sodipodi:docname="folder-wine.svg"
   inkscape:version="0.92.4 (5da689c313, 2019-01-14)">
  <metadata
     id="metadata45">
    <rdf:RDF>
      <cc:Work
         rdf:about="">
        <dc:format>image/svg+xml</dc:format>
        <dc:type
           rdf:resource="http://purl.org/dc/dcmitype/StillImage" />
        <dc:title />
      </cc:Work>
    </rdf:RDF>
  </metadata>
  <defs
     id="defs43">
    <linearGradient
       id="f-3"
       gradientTransform="matrix(0.85071011,0,0,0.87172595,127.52694,10.889111)"
       gradientUnits="userSpaceOnUse"
       x1="-27.458342"
       x2="-26.62384"
       y1="36.068886"
       y2="3.7577009">
      <stop
         offset="0"
         stop-color="#2a97ff"
         id="stop21-6" />
      <stop
         offset="1"
         stop-color="#20bcfa"
         id="stop23-7" />
    </linearGradient>
    <filter
       style="color-interpolation-filters:sRGB"
       id="a-5"
       height="1.099489"
       width="1.0564131"
       x="-0.028207"
       y="-0.049743999">
      <feGaussianBlur
         stdDeviation="5.8998423"
         id="feGaussianBlur2-3" />
    </filter>
    <linearGradient
       id="e-5"
       gradientTransform="matrix(0.82970355,0,0,0.87402304,127.05679,9.4723887)"
       gradientUnits="userSpaceOnUse"
       x1="-33.88871"
       x2="-34.502491"
       y1="37.608711"
       y2="2.822808">
      <stop
         offset="0"
         stop-color="#ccc"
         id="stop16-6" />
      <stop
         offset="1"
         stop-color="#f5f2f5"
         id="stop18-2" />
    </linearGradient>
    <linearGradient
       gradientTransform="translate(82.187845,2.4272497)"
       id="g-9"
       gradientUnits="userSpaceOnUse"
       x1="18.02523"
       x2="17.593777"
       xlink:href="#c"
       y1="39.75425"
       y2="9.6482773" />
    <linearGradient
       id="linearGradient212">
      <stop
         offset="0"
         stop-color="#ccc"
         id="stop10-1" />
      <stop
         offset="1"
         stop-color="#e6e6e6"
         id="stop12-2" />
    </linearGradient>
    <linearGradient
       gradientTransform="translate(82.187845,2.4272497)"
       id="b-7"
       gradientUnits="userSpaceOnUse"
       x1="13.92103"
       x2="13.524684"
       y1="39.852325"
       y2="8.3051167">
      <stop
         offset="0"
         stop-color="#197cf1"
         id="stop5-0" />
      <stop
         offset="1"
         stop-color="#20bcfa"
         id="stop7-9" />
    </linearGradient>
    <linearGradient
       gradientTransform="translate(82.187845,2.4272497)"
       id="d-3"
       gradientUnits="userSpaceOnUse"
       x1="22.098652"
       x2="22.003918"
       xlink:href="#c"
       y1="39.567833"
       y2="11.94437" />
  </defs>
  <sodipodi:namedview
     pagecolor="#ffffff"
     bordercolor="#666666"
     borderopacity="1"
     objecttolerance="10"
     gridtolerance="10"
     guidetolerance="10"
     inkscape:pageopacity="0"
     inkscape:pageshadow="2"
     inkscape:window-width="1920"
     inkscape:window-height="1022"
     id="namedview41"
     showgrid="false"
     inkscape:zoom="1.2291667"
     inkscape:cx="-224.7452"
     inkscape:cy="8.4934175"
     inkscape:window-x="0"
     inkscape:window-y="32"
     inkscape:window-maximized="1"
     inkscape:current-layer="svg39" />
  <filter
     id="a"
     color-interpolation-filters="sRGB"
     height="1.099489"
     width="1.056413"
     x="-.028207"
     y="-.049744">
    <feGaussianBlur
       stdDeviation="5.8998423"
       id="feGaussianBlur2" />
  </filter>
  <linearGradient
     id="b"
     gradientUnits="userSpaceOnUse"
     x1="13.92103"
     x2="13.524684"
     y1="39.852324"
     y2="8.305117">
    <stop
       offset="0"
       stop-color="#197cf1"
       id="stop5" />
    <stop
       offset="1"
       stop-color="#20bcfa"
       id="stop7" />
  </linearGradient>
  <linearGradient
     id="c">
    <stop
       offset="0"
       stop-color="#ccc"
       id="stop10" />
    <stop
       offset="1"
       stop-color="#e6e6e6"
       id="stop12" />
  </linearGradient>
  <linearGradient
     id="d"
     gradientUnits="userSpaceOnUse"
     x1="22.098651"
     x2="22.003917"
     xlink:href="#c"
     y1="39.567832"
     y2="11.94437" />
  <linearGradient
     id="e"
     gradientTransform="matrix(.82970355 0 0 .87402304 44.868948 7.045139)"
     gradientUnits="userSpaceOnUse"
     x1="-33.88871"
     x2="-34.502491"
     y1="37.608711"
     y2="2.822808">
    <stop
       offset="0"
       stop-color="#ccc"
       id="stop16" />
    <stop
       offset="1"
       stop-color="#f5f2f5"
       id="stop18" />
  </linearGradient>
  <linearGradient
     id="f"
     gradientTransform="matrix(.85071011 0 0 .87172595 45.339098 8.461861)"
     gradientUnits="userSpaceOnUse"
     x1="-27.458342"
     x2="-26.62384"
     y1="36.068886"
     y2="3.757701">
    <stop
       offset="0"
       stop-color="#2a97ff"
       id="stop21" />
    <stop
       offset="1"
       stop-color="#20bcfa"
       id="stop23" />
  </linearGradient>
  <linearGradient
     id="g"
     gradientUnits="userSpaceOnUse"
     x1="18.02523"
     x2="17.593777"
     xlink:href="#c"
     y1="39.75425"
     y2="9.648277" />
  <path
     d="m6.5439662 11.656278c-.7351528 0-1.3263212.592871-1.3263212 1.328021v25.543597c0 .735152.5911684 1.328023 1.3263212 1.328023h17.2064738 1.205593 17.206474c.735152 0 1.326322-.592871 1.326322-1.328023v-25.543597c0-.73515-.59117-1.328021-1.326322-1.328021h-17.206474-1.205593z"
     id="path27"
     fill="url(#d)" />
  <path
     d="m18.474468 8.0205511c-.102628-.00269-.226588.00157-.387735.00157h-12.1689132c-.3815126 0-.6891325.3097891-.6891325.6938416v4.2289813c-.0005648.016-.00471.03095-.00471.04709v25.576381c0 .736091.5935103 1.329602 1.3296009 1.329602h35.6983098c.736093 0 1.328033-.593511 1.328033-1.329602v-25.576378c0-.736092-.59194-1.329602-1.328033-1.329602h-21.316008c-.01268-.0169-.02114-.02595-.03454-.04395-.491861-.662668-1.234682-2.4492081-1.718902-3.0956048-.2915-.4244578-.400085-.4942592-.707971-.5023288z"
     id="path29"
     fill="url(#b)" />
  <path
     d="m7.499159 9.4566879h9.738435c.277 0 .5.223.5.5v1.1090001c0 .277-.223.5-.5.5h-9.738435c-.2770001 0-.5-.223-.5-.5v-1.1090001c0-.277.2229999-.5.5-.5z"
     id="path31"
     fill="url(#g)" />
  <path
     d="m5.5804566 12.850769c-.6383882 0-1.1951591.543892-1.1517441 1.21482l1.5120334 23.366264c.043421.670931.5133569 1.214822 1.1517441 1.214822h14.94167 4.377195 14.941671c.638388 0 1.108331-.543891 1.151746-1.214822l1.512033-23.366264c.0434-.670928-.513358-1.21482-1.151744-1.21482h-16.453706-4.377195z"
     id="path33"
     fill="url(#e)" />
  <path
     d="m28.241425 148.07206c-12.87594 0-23.24141 9.6069-23.24141 21.54052l16 244.76159v7.4003c0 6.06398 5.26673 10.94526 11.80953 10.94526h446.379045c6.54281 0 11.81139-4.88128 11.81139-10.94526l15.998-252.16189c0-11.93362-10.36547-21.54052-23.24141-21.54052h-455.515295z"
     transform="matrix(.07561882 0 0 .07969348 4.839513 2.856494)"
     id="path35"
     filter="url(#a)"
     fill-rule="evenodd"
     opacity=".3" />
  <path
     d="m5.1236901 14.591215c-.6545516 0-1.2143558.541818-1.1809047 1.211627l1.1469427 22.96587c.033451.669811.526354 1.211629 1.1809047 1.211629h15.6555402 4.488019l16.039057-.04794c.654549-.002 1.154618-.541498 1.180906-1.211629l.89902-22.917931c.02629-.670129-.526354-1.211627-1.180904-1.211627h-16.870282-4.488019z"
     id="path37"
     fill="url(#f)" />
  <g
     id="g231"
     transform="matrix(0.83768868,0,0,0.83768868,-64.711372,3.0989528)">
    <path
       inkscape:connector-curvature="0"
       d="m 104.5848,23.022647 -0.90631,4.785294 1.06945,3.498339 2.44702,-0.815675 1.48634,-1.595098 1.95762,-4.89405 -0.58003,-0.561909 -3.28083,1.06944 z"
       style="fill:#ffffff;stroke-width:0.04857005"
       id="path2186-7" />
    <path
       inkscape:connector-curvature="0"
       d="m 106.65844,19.09266 c -0.53534,-0.0012 -0.94699,0.08631 -1.11711,0.274725 -0.2699,0.298921 -0.8911,2.528072 -1.66656,5.934653 -0.55948,2.451354 -0.17131,3.880936 0.21098,4.646028 0.48875,0.978152 0.86965,1.566291 0.0971,3.518293 -0.55949,1.413718 -1.13033,1.68429 -1.66049,1.751558 -1.27768,-0.307242 -2.24186,-0.31825 -2.36779,0.02732 -0.172265,0.472719 1.28558,1.430904 3.25419,2.140118 1.96861,0.709214 3.70727,0.90226 3.87953,0.429542 0.12634,-0.346701 -0.6265,-0.954978 -1.81227,-1.53451 -0.52054,-0.536349 -0.98747,-0.909918 -0.57525,-2.571177 0.80643,-3.249903 2.03656,-2.132935 3.48642,-4.15274 1.22986,-1.713323 1.55551,-3.027871 2.26762,-5.036107 0.75449,-2.127784 1.08576,-3.112801 0.98809,-3.307317 -0.65779,-1.310113 -3.37848,-2.116686 -4.9845,-2.120386 z m 0.1108,0.446238 c 0.59832,0.0052 1.35893,0.135825 1.97619,0.356686 1.32289,0.473334 2.51678,1.1349 2.44672,1.531474 -0.17706,1.002285 -0.56348,1.821013 -0.66177,2.103691 -1.29367,-1.251245 -2.95493,2.482872 -5.61894,-0.607126 0,0 0.50941,-1.962967 0.8606,-3.08268 0.0671,-0.213936 0.46927,-0.306674 0.9972,-0.302045 z m -1.94887,3.882568 c 2.69521,2.949159 4.57685,-0.736339 5.5643,0.543377 -0.33816,1.110656 -2.37617,7.835562 -5.09226,6.634366 -2.24996,-0.980751 -0.94698,-5.981284 -0.47204,-7.177743 z"
       style="fill:#ffffff;stroke-width:0.04857005"
       id="path2175-9" />
  </g>
  <path
     style="fill:#000000"
     d=""
     id="path382"
     inkscape:connector-curvature="0" />
</svg>
