<?xml version="1.0" encoding="UTF-8" standalone="no"?>
<!-- Created with Inkscape (http://www.inkscape.org/) -->

<svg
   xmlns:dc="http://purl.org/dc/elements/1.1/"
   xmlns:cc="http://creativecommons.org/ns#"
   xmlns:rdf="http://www.w3.org/1999/02/22-rdf-syntax-ns#"
   xmlns:svg="http://www.w3.org/2000/svg"
   xmlns="http://www.w3.org/2000/svg"
   xmlns:sodipodi="http://sodipodi.sourceforge.net/DTD/sodipodi-0.dtd"
   xmlns:inkscape="http://www.inkscape.org/namespaces/inkscape"
   id="svg2"
   version="1.1"
   inkscape:version="0.91+devel r14055 custom"
   width="512"
   height="512"
   sodipodi:docname="folder-videos.svg"
   viewBox="0 0 512 512">
  <metadata
     id="metadata8">
    <rdf:RDF>
      <cc:Work
         rdf:about="">
        <dc:format>image/svg+xml</dc:format>
        <dc:type
           rdf:resource="http://purl.org/dc/dcmitype/StillImage" />
        <dc:title />
      </cc:Work>
    </rdf:RDF>
  </metadata>
  <defs
     id="defs6">
    <filter
       inkscape:collect="always"
       style="color-interpolation-filters:sRGB"
       id="filter4166"
       x="-0.028206533"
       width="1.0564131"
       y="-0.049744379"
       height="1.0994889">
      <feGaussianBlur
         inkscape:collect="always"
         stdDeviation="5.8998423"
         id="feGaussianBlur4168" />
    </filter>
  </defs>
  <sodipodi:namedview
     pagecolor="#ffffff"
     bordercolor="#666666"
     borderopacity="1"
     objecttolerance="10"
     gridtolerance="10"
     guidetolerance="10"
     inkscape:pageopacity="0"
     inkscape:pageshadow="2"
     inkscape:window-width="1920"
     inkscape:window-height="1008"
     id="namedview4"
     showgrid="false"
     showguides="true"
     inkscape:guide-bbox="true"
     inkscape:zoom="0.46003898"
     inkscape:cx="222.04053"
     inkscape:cy="151.09593"
     inkscape:window-x="0"
     inkscape:window-y="32"
     inkscape:window-maximized="1"
     inkscape:current-layer="g4671"
     inkscape:document-units="px" />
  <g
     transform="translate(226.5678,444.61441)"
     id="g3926">
    <g
       transform="translate(21.737289,-39.127119)"
       id="g4102">
      <g
         id="g4157"
         transform="translate(-671.90801,-288.45425)">
        <g
           id="g4214"
           transform="translate(10.868643,220.39399)">
          <g
             id="g4509"
             transform="translate(756.68343,131.09839)">
            <g
               id="g4626"
               transform="translate(-198.03512,-23.259323)">
              <g
                 id="g4671"
                 transform="translate(-339.10169,-13.042373)">
                <path
                   style="fill:#2980b9;fill-opacity:1;fill-rule:evenodd;stroke:#000000;stroke-width:0;stroke-linecap:butt;stroke-linejoin:miter;stroke-miterlimit:4;stroke-dasharray:none;stroke-opacity:1"
                   d="m 248.25451,-337.94701 c -7.82427,0 -14.12381,6.29784 -14.12381,14.12211 l 0,37.32867 0,120.13243 0,121.545505 0,7.30708 c 0,5.98757 4.81979,10.80737 10.80737,10.80737 l 408.49932,0 c 5.98757,0 10.80907,-4.8198 10.80907,-10.80737 l 0,-128.852565 -0.002,0 0,-120.13243 c 0,-11.78329 -9.48585,-21.26915 -21.26914,-21.26915 l -218.96832,0 c -5.81617,0 -8.11397,-0.68519 -11.8386,-4.1889 l -21.96772,-21.76889 c -0.0748,-0.0762 -0.15164,-0.15024 -0.22814,-0.22473 l -0.0443,-0.0426 -0.002,0.002 c -2.53734,-2.44894 -5.98807,-3.95828 -9.80972,-3.95828 z"
                   id="rect2982-2"
                   inkscape:connector-curvature="0"
                   sodipodi:nodetypes="sscccssssccssccccccss" />
                <path
                   style="opacity:0.3;fill:#000000;fill-opacity:1;fill-rule:evenodd;stroke:#000000;stroke-width:0;stroke-linecap:butt;stroke-linejoin:miter;stroke-miterlimit:4;stroke-dasharray:none;stroke-opacity:1;filter:url(#filter4166)"
                   d="m 28.241425,148.07206 c -12.87594,0 -23.24141,9.6069 -23.24141,21.54052 l 16,244.76159 0,7.4003 c 0,6.06398 5.26673,10.94526 11.80953,10.94526 l 446.379045,0 c 6.54281,0 11.81139,-4.88128 11.81139,-10.94526 l 15.998,-252.16189 c 0,-11.93362 -10.36547,-21.54052 -23.24141,-21.54052 l -455.515295,0 z"
                   id="rect2982-5"
                   inkscape:connector-curvature="0"
                   sodipodi:nodetypes="cccsssccscc"
                   transform="matrix(0.88626203,0,0,0.86265191,222.30547,-405.14836)" />
                <path
                   style="fill:#4aaee8;fill-opacity:1;fill-rule:evenodd;stroke:#000000;stroke-width:0;stroke-linecap:butt;stroke-linejoin:miter;stroke-miterlimit:4;stroke-dasharray:none;stroke-opacity:1"
                   d="m 240.7576,-274.99291 c -11.78328,0 -21.26914,8.79166 -21.26914,19.7126 l 14.64224,223.991115 0,6.77231 c 0,5.54939 4.81979,10.01644 10.80737,10.01644 l 408.49932,0 c 5.98757,0 10.80907,-4.46705 10.80907,-10.01644 l 14.64041,-230.763435 c 0,-10.92094 -9.48585,-19.71259 -21.26914,-19.71259 l -416.86027,0 z"
                   id="rect2982"
                   inkscape:connector-curvature="0"
                   sodipodi:nodetypes="cccsssccscc" />
                <path
                   inkscape:connector-curvature="0"
                   style="fill:#ffffff;fill-opacity:1"
                   d="m 381.17527,-201.64632 c -5.38269,0 -9.71605,4.33336 -9.71605,9.71606 l 0,77.72844 c 0,5.3827 4.33336,9.71606 9.71605,9.71606 l 97.16055,0 c 5.38269,0 9.71605,-4.33336 9.71605,-9.71606 l 0,-19.43211 38.86423,19.43211 0,-77.72844 -38.86423,19.4321 0,-19.43209 c 0,-5.3827 -4.33336,-9.71606 -9.71605,-9.71606 l -97.16056,0 z"
                   id="path3623" />
              </g>
            </g>
          </g>
        </g>
      </g>
    </g>
  </g>
</svg>
