<?xml version="1.0" encoding="UTF-8" standalone="no"?>
<svg
   xmlns:dc="http://purl.org/dc/elements/1.1/"
   xmlns:cc="http://creativecommons.org/ns#"
   xmlns:rdf="http://www.w3.org/1999/02/22-rdf-syntax-ns#"
   xmlns:svg="http://www.w3.org/2000/svg"
   xmlns="http://www.w3.org/2000/svg"
   xmlns:xlink="http://www.w3.org/1999/xlink"
   xmlns:sodipodi="http://sodipodi.sourceforge.net/DTD/sodipodi-0.dtd"
   xmlns:inkscape="http://www.inkscape.org/namespaces/inkscape"
   height="48"
   viewBox="0 0 48 48"
   width="48"
   version="1.1"
   id="svg39"
   sodipodi:docname="folder-mixer.svg"
   inkscape:version="0.92.4 (5da689c313, 2019-01-14)">
  <metadata
     id="metadata45">
    <rdf:RDF>
      <cc:Work
         rdf:about="">
        <dc:format>image/svg+xml</dc:format>
        <dc:type
           rdf:resource="http://purl.org/dc/dcmitype/StillImage" />
        <dc:title />
      </cc:Work>
    </rdf:RDF>
  </metadata>
  <defs
     id="defs43">
    <linearGradient
       id="f-3"
       gradientTransform="matrix(0.85071011,0,0,0.87172595,127.52694,10.889111)"
       gradientUnits="userSpaceOnUse"
       x1="-27.458342"
       x2="-26.62384"
       y1="36.068886"
       y2="3.7577009">
      <stop
         offset="0"
         stop-color="#2a97ff"
         id="stop21-6" />
      <stop
         offset="1"
         stop-color="#20bcfa"
         id="stop23-7" />
    </linearGradient>
    <filter
       style="color-interpolation-filters:sRGB"
       id="a-5"
       height="1.099489"
       width="1.0564131"
       x="-0.028207"
       y="-0.049743999">
      <feGaussianBlur
         stdDeviation="5.8998423"
         id="feGaussianBlur2-3" />
    </filter>
    <linearGradient
       id="e-5"
       gradientTransform="matrix(0.82970355,0,0,0.87402304,127.05679,9.4723887)"
       gradientUnits="userSpaceOnUse"
       x1="-33.88871"
       x2="-34.502491"
       y1="37.608711"
       y2="2.822808">
      <stop
         offset="0"
         stop-color="#ccc"
         id="stop16-6" />
      <stop
         offset="1"
         stop-color="#f5f2f5"
         id="stop18-2" />
    </linearGradient>
    <linearGradient
       gradientTransform="translate(82.187845,2.4272497)"
       id="g-9"
       gradientUnits="userSpaceOnUse"
       x1="18.02523"
       x2="17.593777"
       xlink:href="#c"
       y1="39.75425"
       y2="9.6482773" />
    <linearGradient
       id="linearGradient212">
      <stop
         offset="0"
         stop-color="#ccc"
         id="stop10-1" />
      <stop
         offset="1"
         stop-color="#e6e6e6"
         id="stop12-2" />
    </linearGradient>
    <linearGradient
       gradientTransform="translate(82.187845,2.4272497)"
       id="b-7"
       gradientUnits="userSpaceOnUse"
       x1="13.92103"
       x2="13.524684"
       y1="39.852325"
       y2="8.3051167">
      <stop
         offset="0"
         stop-color="#197cf1"
         id="stop5-0" />
      <stop
         offset="1"
         stop-color="#20bcfa"
         id="stop7-9" />
    </linearGradient>
    <linearGradient
       gradientTransform="translate(82.187845,2.4272497)"
       id="d-3"
       gradientUnits="userSpaceOnUse"
       x1="22.098652"
       x2="22.003918"
       xlink:href="#c"
       y1="39.567833"
       y2="11.94437" />
  </defs>
  <sodipodi:namedview
     pagecolor="#ffffff"
     bordercolor="#666666"
     borderopacity="1"
     objecttolerance="10"
     gridtolerance="10"
     guidetolerance="10"
     inkscape:pageopacity="0"
     inkscape:pageshadow="2"
     inkscape:window-width="1920"
     inkscape:window-height="1022"
     id="namedview41"
     showgrid="false"
     inkscape:zoom="6.9532167"
     inkscape:cx="25.389878"
     inkscape:cy="25.631279"
     inkscape:window-x="0"
     inkscape:window-y="32"
     inkscape:window-maximized="1"
     inkscape:current-layer="svg39" />
  <filter
     id="a"
     color-interpolation-filters="sRGB"
     height="1.099489"
     width="1.056413"
     x="-.028207"
     y="-.049744">
    <feGaussianBlur
       stdDeviation="5.8998423"
       id="feGaussianBlur2" />
  </filter>
  <linearGradient
     id="b"
     gradientUnits="userSpaceOnUse"
     x1="13.92103"
     x2="13.524684"
     y1="39.852324"
     y2="8.305117">
    <stop
       offset="0"
       stop-color="#197cf1"
       id="stop5" />
    <stop
       offset="1"
       stop-color="#20bcfa"
       id="stop7" />
  </linearGradient>
  <linearGradient
     id="c">
    <stop
       offset="0"
       stop-color="#ccc"
       id="stop10" />
    <stop
       offset="1"
       stop-color="#e6e6e6"
       id="stop12" />
  </linearGradient>
  <linearGradient
     id="d"
     gradientUnits="userSpaceOnUse"
     x1="22.098651"
     x2="22.003917"
     xlink:href="#c"
     y1="39.567832"
     y2="11.94437" />
  <linearGradient
     id="e"
     gradientTransform="matrix(.82970355 0 0 .87402304 44.868948 7.045139)"
     gradientUnits="userSpaceOnUse"
     x1="-33.88871"
     x2="-34.502491"
     y1="37.608711"
     y2="2.822808">
    <stop
       offset="0"
       stop-color="#ccc"
       id="stop16" />
    <stop
       offset="1"
       stop-color="#f5f2f5"
       id="stop18" />
  </linearGradient>
  <linearGradient
     id="f"
     gradientTransform="matrix(.85071011 0 0 .87172595 45.339098 8.461861)"
     gradientUnits="userSpaceOnUse"
     x1="-27.458342"
     x2="-26.62384"
     y1="36.068886"
     y2="3.757701">
    <stop
       offset="0"
       stop-color="#2a97ff"
       id="stop21" />
    <stop
       offset="1"
       stop-color="#20bcfa"
       id="stop23" />
  </linearGradient>
  <linearGradient
     id="g"
     gradientUnits="userSpaceOnUse"
     x1="18.02523"
     x2="17.593777"
     xlink:href="#c"
     y1="39.75425"
     y2="9.648277" />
  <path
     d="m6.5439662 11.656278c-.7351528 0-1.3263212.592871-1.3263212 1.328021v25.543597c0 .735152.5911684 1.328023 1.3263212 1.328023h17.2064738 1.205593 17.206474c.735152 0 1.326322-.592871 1.326322-1.328023v-25.543597c0-.73515-.59117-1.328021-1.326322-1.328021h-17.206474-1.205593z"
     id="path27"
     fill="url(#d)" />
  <path
     d="m18.474468 8.0205511c-.102628-.00269-.226588.00157-.387735.00157h-12.1689132c-.3815126 0-.6891325.3097891-.6891325.6938416v4.2289813c-.0005648.016-.00471.03095-.00471.04709v25.576381c0 .736091.5935103 1.329602 1.3296009 1.329602h35.6983098c.736093 0 1.328033-.593511 1.328033-1.329602v-25.576378c0-.736092-.59194-1.329602-1.328033-1.329602h-21.316008c-.01268-.0169-.02114-.02595-.03454-.04395-.491861-.662668-1.234682-2.4492081-1.718902-3.0956048-.2915-.4244578-.400085-.4942592-.707971-.5023288z"
     id="path29"
     fill="url(#b)" />
  <path
     d="m7.499159 9.4566879h9.738435c.277 0 .5.223.5.5v1.1090001c0 .277-.223.5-.5.5h-9.738435c-.2770001 0-.5-.223-.5-.5v-1.1090001c0-.277.2229999-.5.5-.5z"
     id="path31"
     fill="url(#g)" />
  <path
     d="m5.5804566 12.850769c-.6383882 0-1.1951591.543892-1.1517441 1.21482l1.5120334 23.366264c.043421.670931.5133569 1.214822 1.1517441 1.214822h14.94167 4.377195 14.941671c.638388 0 1.108331-.543891 1.151746-1.214822l1.512033-23.366264c.0434-.670928-.513358-1.21482-1.151744-1.21482h-16.453706-4.377195z"
     id="path33"
     fill="url(#e)" />
  <path
     d="m28.241425 148.07206c-12.87594 0-23.24141 9.6069-23.24141 21.54052l16 244.76159v7.4003c0 6.06398 5.26673 10.94526 11.80953 10.94526h446.379045c6.54281 0 11.81139-4.88128 11.81139-10.94526l15.998-252.16189c0-11.93362-10.36547-21.54052-23.24141-21.54052h-455.515295z"
     transform="matrix(.07561882 0 0 .07969348 4.839513 2.856494)"
     id="path35"
     filter="url(#a)"
     fill-rule="evenodd"
     opacity=".3" />
  <path
     d="m5.1236901 14.591215c-.6545516 0-1.2143558.541818-1.1809047 1.211627l1.1469427 22.96587c.033451.669811.526354 1.211629 1.1809047 1.211629h15.6555402 4.488019l16.039057-.04794c.654549-.002 1.154618-.541498 1.180906-1.211629l.89902-22.917931c.02629-.670129-.526354-1.211627-1.180904-1.211627h-16.870282-4.488019z"
     id="path37"
     fill="url(#f)" />
  <path
     style="fill:#000000"
     d=""
     id="path382"
     inkscape:connector-curvature="0" />
  <path
     inkscape:connector-curvature="0"
     style="fill:#ffffff;stroke-width:0.02234783"
     d="m 18.141662,19.484773 c -1.114262,0 -2.011304,0.897042 -2.011304,2.011303 V 33.21271 c 0,1.114262 0.897042,2.011304 2.011304,2.011304 h 11.716676 c 1.114263,0 2.011305,-0.897042 2.011305,-2.011304 V 21.496076 c 0,-1.114261 -0.897042,-2.011303 -2.011305,-2.011303 z m 1.54187,1.867615 h 0.15962 c 0.282987,0 0.510815,0.227826 0.510815,0.510813 v 3.333012 h 0.526744 c 0.406794,0 0.734292,0.327499 0.734292,0.734292 v 1.500492 c 0,0.406794 -0.327498,0.734291 -0.734292,0.734291 h -0.526744 v 4.680298 c 0,0.282988 -0.227828,0.510813 -0.510815,0.510813 h -0.15962 c -0.282989,0 -0.510815,-0.227825 -0.510815,-0.510813 v -4.680298 h -0.526788 c -0.406796,0 -0.734248,-0.327497 -0.734248,-0.734291 v -1.500492 c 0,-0.406793 0.327452,-0.734292 0.734248,-0.734292 h 0.526788 v -3.333012 c 0,-0.282987 0.227826,-0.510813 0.510815,-0.510813 z m 4.3738,0 h 0.159621 c 0.282988,0 0.510814,0.227826 0.510814,0.510813 v 6.908665 h 0.526745 c 0.406794,0 0.734293,0.327452 0.734293,0.734248 v 1.500533 c 0,0.406795 -0.327499,0.73425 -0.734293,0.73425 h -0.526745 v 1.104689 c 0,0.282988 -0.227826,0.510813 -0.510814,0.510813 h -0.159621 c -0.282987,0 -0.510813,-0.227825 -0.510813,-0.510813 V 31.740897 H 23.01973 c -0.406794,0 -0.734293,-0.327455 -0.734293,-0.73425 v -1.500533 c 0,-0.406796 0.327499,-0.734248 0.734293,-0.734248 h 0.526789 v -6.908665 c 0,-0.282987 0.227826,-0.510813 0.510813,-0.510813 z m 4.373757,0 h 0.159621 c 0.282988,0 0.510814,0.227826 0.510814,0.510813 v 0.695969 h 0.526791 c 0.406792,0 0.734291,0.327498 0.734291,0.734293 v 1.50049 c 0,0.406794 -0.327499,0.734292 -0.734291,0.734292 h -0.526791 v 7.317341 c 0,0.282988 -0.227826,0.510813 -0.510814,0.510813 h -0.159621 c -0.282987,0 -0.510813,-0.227825 -0.510813,-0.510813 v -7.317341 h -0.526745 c -0.406794,0 -0.734291,-0.327498 -0.734291,-0.734292 v -1.50049 c 0,-0.406795 0.327497,-0.734293 0.734291,-0.734293 h 0.526745 v -0.695969 c 0,-0.282987 0.227826,-0.510813 0.510813,-0.510813 z"
     id="rect678" />
</svg>
