<?xml version="1.0" encoding="UTF-8" standalone="no"?>
<!-- Created with Inkscape (http://www.inkscape.org/) -->

<svg
   xmlns:dc="http://purl.org/dc/elements/1.1/"
   xmlns:cc="http://creativecommons.org/ns#"
   xmlns:rdf="http://www.w3.org/1999/02/22-rdf-syntax-ns#"
   xmlns:svg="http://www.w3.org/2000/svg"
   xmlns="http://www.w3.org/2000/svg"
   xmlns:sodipodi="http://sodipodi.sourceforge.net/DTD/sodipodi-0.dtd"
   xmlns:inkscape="http://www.inkscape.org/namespaces/inkscape"
   id="svg2"
   version="1.1"
   inkscape:version="0.91 r13725"
   width="48"
   height="48"
   sodipodi:docname="folder-git.svg"
   viewBox="0 0 48 48">
  <metadata
     id="metadata8">
    <rdf:RDF>
      <cc:Work
         rdf:about="">
        <dc:format>image/svg+xml</dc:format>
        <dc:type
           rdf:resource="http://purl.org/dc/dcmitype/StillImage" />
        <dc:title />
      </cc:Work>
    </rdf:RDF>
  </metadata>
  <defs
     id="defs6">
    <filter
       inkscape:collect="always"
       style="color-interpolation-filters:sRGB"
       id="filter4166"
       x="-0.028206533"
       width="1.0564131"
       y="-0.049744379"
       height="1.0994889">
      <feGaussianBlur
         inkscape:collect="always"
         stdDeviation="5.8998423"
         id="feGaussianBlur4168" />
    </filter>
  </defs>
  <sodipodi:namedview
     pagecolor="#ffffff"
     bordercolor="#666666"
     borderopacity="1"
     objecttolerance="10"
     gridtolerance="10"
     guidetolerance="10"
     inkscape:pageopacity="0"
     inkscape:pageshadow="2"
     inkscape:window-width="1920"
     inkscape:window-height="1008"
     id="namedview4"
     showgrid="false"
     inkscape:zoom="7.375"
     inkscape:cx="7.7167939"
     inkscape:cy="31.946885"
     inkscape:window-x="0"
     inkscape:window-y="32"
     inkscape:window-maximized="1"
     inkscape:current-layer="svg2"
     inkscape:document-units="px" />
  <path
     style="fill:#2980b9;fill-opacity:1;fill-rule:evenodd;stroke:#000000;stroke-width:0;stroke-linecap:butt;stroke-linejoin:miter;stroke-miterlimit:4;stroke-dasharray:none;stroke-opacity:1"
     d="m 4.3342028,9.3435227 c -0.7657801,0 -1.382331,0.6163848 -1.382331,1.3821643 l 0,3.653444 0,11.757642 0,11.895943 0,0.715161 c 0,0.586017 0.4717248,1.057743 1.0577431,1.057743 l 39.9807841,0 c 0.586018,0 1.057909,-0.471726 1.057909,-1.057743 l 0,-12.611103 -1.96e-4,0 0,-11.757642 c 0,-1.153258 -0.928402,-2.081661 -2.08166,-2.081661 l -21.430942,0 c -0.569242,0 -0.794133,-0.06706 -1.158672,-0.409977 L 18.226806,9.7569218 c -0.0073,-0.00746 -0.01484,-0.014704 -0.02233,-0.021995 l -0.0043,-0.00417 -1.96e-4,1.957e-4 C 17.951611,9.4912698 17.61388,9.3435472 17.239846,9.3435472 Z"
     id="rect2982-2"
     inkscape:connector-curvature="0"
     sodipodi:nodetypes="sscccssssccssccccccss" />
  <path
     style="opacity:0.3;fill:#000000;fill-opacity:1;fill-rule:evenodd;stroke:#000000;stroke-width:0;stroke-linecap:butt;stroke-linejoin:miter;stroke-miterlimit:4;stroke-dasharray:none;stroke-opacity:1;filter:url(#filter4166)"
     d="m 28.241425,148.07206 c -12.87594,0 -23.24141,9.6069 -23.24141,21.54052 l 16,244.76159 0,7.4003 c 0,6.06398 5.26673,10.94526 11.80953,10.94526 l 446.379045,0 c 6.54281,0 11.81139,-4.88128 11.81139,-10.94526 l 15.998,-252.16189 c 0,-11.93362 -10.36547,-21.54052 -23.24141,-21.54052 l -455.515295,0 z"
     id="rect2982-5"
     inkscape:connector-curvature="0"
     sodipodi:nodetypes="cccsssccscc"
     transform="matrix(0.08674054,0,0,0.08442976,1.7945093,2.766368)" />
  <path
     style="fill:#4aaee8;fill-opacity:1;fill-rule:evenodd;stroke:#000000;stroke-width:0;stroke-linecap:butt;stroke-linejoin:miter;stroke-miterlimit:4;stroke-dasharray:none;stroke-opacity:1"
     d="m 3.6004625,15.504988 c -1.1532576,0 -2.0816609,0.860461 -2.0816609,1.929319 l 1.4330702,21.922534 0,0.662821 c 0,0.543132 0.4717248,0.980333 1.0577431,0.980333 l 39.9807841,0 c 0.586018,0 1.057909,-0.437201 1.057909,-0.980333 l 1.432891,-22.585356 c 0,-1.068858 -0.928402,-1.929318 -2.08166,-1.929318 l -40.7990898,0 z"
     id="rect2982"
     inkscape:connector-curvature="0"
     sodipodi:nodetypes="cccsssccscc" />
  <path
     inkscape:connector-curvature="0"
     d="m 16.474354,26.89815 4.62747,-4.635477 1.353016,1.36102 c -0.192145,0.680513 0.120089,1.42507 0.744558,1.785341 l 0,4.435327 c -0.48036,0.272204 -0.800599,0.792593 -0.800599,1.385038 a 1.6012009,1.6012009 0 0 0 1.601199,1.601202 1.6012009,1.6012009 0 0 0 1.601202,-1.601202 c 0,-0.592445 -0.32024,-1.112834 -0.8006,-1.385038 l 0,-3.89092 1.657242,1.673256 c -0.05604,0.120091 -0.05604,0.256192 -0.05604,0.400301 a 1.6012009,1.6012009 0 0 0 1.6012,1.601199 1.6012009,1.6012009 0 0 0 1.601201,-1.601199 1.6012009,1.6012009 0 0 0 -1.601201,-1.601201 c -0.144108,0 -0.28021,0 -0.4003,0.05604 l -2.057543,-2.057543 c 0.208155,-0.744559 -0.176133,-1.56117 -0.92069,-1.873405 -0.34426,-0.128096 -0.704528,-0.160121 -1.02477,-0.07205 l -1.36102,-1.353015 0.632473,-0.624468 c 0.624468,-0.632474 1.633227,-0.632474 2.257695,0 l 6.396796,6.396797 c 0.632475,0.624468 0.632475,1.633227 0,2.257694 l -6.396796,6.396798 c -0.624468,0.632473 -1.633227,0.632473 -2.257695,0 l -6.396796,-6.396798 c -0.632474,-0.624467 -0.632474,-1.633226 0,-2.257694 z"
     id="path4"
     style="fill:#ffffff" />
</svg>
