<?xml version="1.0" encoding="UTF-8" standalone="no"?>
<svg
   xmlns:dc="http://purl.org/dc/elements/1.1/"
   xmlns:cc="http://creativecommons.org/ns#"
   xmlns:rdf="http://www.w3.org/1999/02/22-rdf-syntax-ns#"
   xmlns:svg="http://www.w3.org/2000/svg"
   xmlns="http://www.w3.org/2000/svg"
   xmlns:xlink="http://www.w3.org/1999/xlink"
   xmlns:sodipodi="http://sodipodi.sourceforge.net/DTD/sodipodi-0.dtd"
   xmlns:inkscape="http://www.inkscape.org/namespaces/inkscape"
   height="48"
   viewBox="0 0 48 48"
   width="48"
   version="1.1"
   id="svg41"
   sodipodi:docname="folder-linux.svg"
   inkscape:version="0.92.3 (2405546, 2018-03-11)">
  <metadata
     id="metadata47">
    <rdf:RDF>
      <cc:Work
         rdf:about="">
        <dc:format>image/svg+xml</dc:format>
        <dc:type
           rdf:resource="http://purl.org/dc/dcmitype/StillImage" />
        <dc:title></dc:title>
      </cc:Work>
    </rdf:RDF>
  </metadata>
  <defs
     id="defs45" />
  <sodipodi:namedview
     pagecolor="#ffffff"
     bordercolor="#666666"
     borderopacity="1"
     objecttolerance="10"
     gridtolerance="10"
     guidetolerance="10"
     inkscape:pageopacity="0"
     inkscape:pageshadow="2"
     inkscape:window-width="654"
     inkscape:window-height="480"
     id="namedview43"
     showgrid="false"
     inkscape:zoom="4.9166667"
     inkscape:cx="24"
     inkscape:cy="24"
     inkscape:window-x="850"
     inkscape:window-y="218"
     inkscape:window-maximized="0"
     inkscape:current-layer="svg41" />
  <filter
     id="a"
     color-interpolation-filters="sRGB"
     height="1.099489"
     width="1.056413"
     x="-.028207"
     y="-.049744">
    <feGaussianBlur
       stdDeviation="5.8998423"
       id="feGaussianBlur2" />
  </filter>
  <linearGradient
     id="b"
     gradientUnits="userSpaceOnUse"
     x1="13.921029831273"
     x2="13.524684385606"
     y1="39.852323748937"
     y2="8.305117441259">
    <stop
       offset="0"
       stop-color="#197cf1"
       id="stop5" />
    <stop
       offset="1"
       stop-color="#20bcfa"
       id="stop7" />
  </linearGradient>
  <linearGradient
     id="c">
    <stop
       offset="0"
       stop-color="#ccc"
       id="stop10" />
    <stop
       offset="1"
       stop-color="#e6e6e6"
       id="stop12" />
  </linearGradient>
  <linearGradient
     id="d"
     gradientUnits="userSpaceOnUse"
     x1="22.09865138425"
     x2="22.003916697133"
     xlink:href="#c"
     y1="39.567831542419"
     y2="11.944369840691" />
  <linearGradient
     id="e"
     gradientTransform="matrix(.82970355 0 0 .87402304 44.868948 7.045139)"
     gradientUnits="userSpaceOnUse"
     x1="-33.88871"
     x2="-34.502491"
     y1="37.608711"
     y2="2.822808">
    <stop
       offset="0"
       stop-color="#ccc"
       id="stop16" />
    <stop
       offset="1"
       stop-color="#f5f2f5"
       id="stop18" />
  </linearGradient>
  <linearGradient
     id="f"
     gradientTransform="matrix(.85071011 0 0 .87172595 45.339098 8.461861)"
     gradientUnits="userSpaceOnUse"
     x1="-27.458342"
     x2="-26.62384"
     y1="36.068886"
     y2="3.757701">
    <stop
       offset="0"
       stop-color="#2a97ff"
       id="stop21" />
    <stop
       offset="1"
       stop-color="#20bcfa"
       id="stop23" />
  </linearGradient>
  <linearGradient
     id="g"
     gradientUnits="userSpaceOnUse"
     x1="18.02523"
     x2="17.593777"
     xlink:href="#c"
     y1="39.75425"
     y2="9.648277" />
  <path
     d="m6.5439662 11.656278c-.7351528 0-1.3263212.592871-1.3263212 1.328021v25.543597c0 .735152.5911684 1.328023 1.3263212 1.328023h17.2064738 1.205593 17.206474c.735152 0 1.326322-.592871 1.326322-1.328023v-25.543597c0-.73515-.59117-1.328021-1.326322-1.328021h-17.206474-1.205593z"
     fill="url(#d)"
     id="path27" />
  <path
     d="m18.474468 8.0205511c-.102628-.00269-.226588.00157-.387735.00157h-12.1689132c-.3815126 0-.6891325.3097891-.6891325.6938416v4.2289813c-.0005648.016-.00471.03095-.00471.04709v25.576381c0 .736091.5935103 1.329602 1.3296009 1.329602h35.6983098c.736093 0 1.328033-.593511 1.328033-1.329602v-25.576378c0-.736092-.59194-1.329602-1.328033-1.329602h-21.316008c-.01268-.0169-.02114-.02595-.03454-.04395-.491861-.662668-1.234682-2.4492081-1.718902-3.0956048-.2915-.4244578-.400085-.4942592-.707971-.5023288z"
     fill="url(#b)"
     id="path29" />
  <path
     d="m7.499159 9.4566879h9.738435c.277 0 .5.223.5.5v1.1090001c0 .277-.223.5-.5.5h-9.738435c-.2770001 0-.5-.223-.5-.5v-1.1090001c0-.277.2229999-.5.5-.5z"
     fill="url(#g)"
     id="path31" />
  <path
     d="m5.5804566 12.850769c-.6383882 0-1.1951591.543892-1.1517441 1.21482l1.5120334 23.366264c.043421.670931.5133569 1.214822 1.1517441 1.214822h14.94167 4.377195 14.941671c.638388 0 1.108331-.543891 1.151746-1.214822l1.512033-23.366264c.0434-.670928-.513358-1.21482-1.151744-1.21482h-16.453706-4.377195z"
     fill="url(#e)"
     id="path33" />
  <path
     d="m28.241425 148.07206c-12.87594 0-23.24141 9.6069-23.24141 21.54052l16 244.76159v7.4003c0 6.06398 5.26673 10.94526 11.80953 10.94526h446.379045c6.54281 0 11.81139-4.88128 11.81139-10.94526l15.998-252.16189c0-11.93362-10.36547-21.54052-23.24141-21.54052h-455.515295z"
     fill-rule="evenodd"
     filter="url(#a)"
     opacity=".3"
     transform="matrix(.07561882 0 0 .07969348 4.839513 2.856494)"
     id="path35" />
  <path
     d="m5.1236901 14.591215c-.6545516 0-1.2143558.541818-1.1809047 1.211627l1.1469427 22.96587c.033451.669811.526354 1.211629 1.1809047 1.211629h15.6555402 4.488019l16.039057-.04794c.654549-.002 1.154618-.541498 1.180906-1.211629l.89902-22.917931c.02629-.670129-.526354-1.211627-1.180904-1.211627h-16.870282-4.488019z"
     fill="url(#f)"
     id="path37" />
  <path
     inkscape:connector-curvature="0"
     style="fill:#ffffff;stroke-width:0.79023874;fill-opacity:1"
     d="m 25.1076,30.715195 c -1.2808,0.580764 -2.4712,0.574519 -3.2712,0.518316 -0.9536,-0.06713 -1.7216,-0.321605 -2.0584,-0.544856 -0.208,-0.137385 -0.4904,-0.0843 -0.6312,0.118651 -0.1408,0.202955 -0.0864,0.478505 0.1216,0.61589 0.5424,0.358294 1.5008,0.624478 2.5024,0.694731 0.1696,0.01249 0.356,0.01951 0.5568,0.01951 0.872,0 1.9792,-0.08118 3.1632,-0.618232 0.2272,-0.10382 0.3264,-0.366881 0.22,-0.589351 -0.1056,-0.221689 -0.376,-0.318483 -0.6032,-0.214664 z m 5.0512,-0.657262 C 30.202,26.204909 30.6084,18.925066 23.05,19.513636 15.5876,20.099864 17.566,27.791861 17.4548,30.36783 17.3564,31.730751 16.8932,33.396544 16.238,35.092 h 2.0168 c 0.208,-0.718149 0.36,-1.429272 0.4256,-2.106049 0.1216,0.08274 0.252,0.162364 0.3912,0.238862 0.2256,0.13036 0.42,0.302872 0.6256,0.485531 0.48,0.426986 1.0248,0.911737 2.0888,0.971843 0.0712,0.0039 0.1432,0.0062 0.2136,0.0062 1.0768,0 1.8128,-0.459772 2.4048,-0.828994 0.2832,-0.177195 0.528,-0.330192 0.7584,-0.403568 0.6552,-0.199833 1.2272,-0.523 1.6544,-0.933594 0.0672,-0.06401 0.1288,-0.130359 0.1872,-0.197491 0.2384,0.851631 0.5648,1.810984 0.9264,2.767215 H 32.238 C 31.2028,33.533884 30.1364,32.006257 30.1588,30.057888 Z M 18.1772,27.962032 c 0,0 0,-7.81e-4 0,-7.81e-4 -0.0744,-1.257541 0.5424,-2.314469 1.3768,-2.362085 0.8344,-0.04762 1.5712,0.933593 1.6456,2.190354 0,7.8e-4 0,7.8e-4 0,7.8e-4 0.004,0.06791 0.0056,0.135043 0.0056,0.201394 -0.264,0.06479 -0.5032,0.159242 -0.7168,0.269306 -8e-4,-0.0094 -0.0016,-0.01873 -0.0024,-0.0281 v -7.81e-4 c -0.0712,-0.713465 -0.4616,-1.252077 -0.8728,-1.20368 -0.4104,0.04918 -0.6856,0.66741 -0.6136,1.380875 0,0 0,0 0,0 0.0312,0.311458 0.1224,0.589351 0.2504,0.800112 -0.032,0.0242 -0.1216,0.08821 -0.2248,0.162364 -0.0776,0.05542 -0.1728,0.122553 -0.2864,0.204516 -0.3104,-0.398104 -0.5232,-0.969501 -0.5616,-1.614274 z m 8.4552,3.107554 c -0.0296,0.664288 -0.9208,1.289546 -1.7432,1.540117 l -0.0048,0.0016 c -0.3424,0.108503 -0.6472,0.298969 -0.9704,0.500363 -0.5424,0.338779 -1.104,0.689266 -1.9144,0.689266 -0.0536,0 -0.108,-0.0016 -0.1616,-0.0047 -0.7424,-0.04215 -1.0896,-0.350488 -1.5288,-0.741567 -0.232,-0.206077 -0.472,-0.419961 -0.7808,-0.596376 l -0.0072,-0.0039 c -0.6672,-0.367661 -1.0816,-0.824309 -1.108,-1.223194 -0.0128,-0.197491 0.0776,-0.369222 0.2688,-0.508949 0.416,-0.304433 0.6952,-0.503485 0.8792,-0.635406 0.2048,-0.145971 0.2672,-0.189685 0.3128,-0.232618 0.0328,-0.02966 0.068,-0.06323 0.1064,-0.09992 0.3816,-0.362197 1.0208,-0.96872 2.0024,-0.96872 0.6,0 1.264,0.225592 1.9712,0.668971 0.3328,0.211542 0.6232,0.309116 0.9904,0.433231 0.252,0.08508 0.5384,0.181098 0.9216,0.341121 l 0.0064,0.0031 c 0.3568,0.142849 0.7792,0.404349 0.76,0.8368 z m -0.1968,-1.561193 c -0.0688,-0.03356 -0.1408,-0.06557 -0.2152,-0.09601 -0.3456,-0.14363 -0.6224,-0.241985 -0.852,-0.320045 0.1272,-0.241985 0.2056,-0.544075 0.2128,-0.872707 v 0 c 0.0176,-0.79855 -0.3952,-1.447226 -0.9216,-1.448006 -0.5272,-0.0016 -0.968,0.644773 -0.9856,1.443323 v 0 c -8e-4,0.02654 -8e-4,0.0523 0,0.07806 -0.3248,-0.145191 -0.644,-0.251352 -0.956,-0.316141 -0.0016,-0.03044 -0.0032,-0.06011 -0.004,-0.09055 v -7.81e-4 c -0.0304,-1.454251 0.8848,-2.658712 2.0432,-2.689155 1.1584,-0.03044 2.1224,1.123278 2.1528,2.57831 v 7.81e-4 c 0.0136,0.658043 -0.1664,1.263005 -0.4744,1.732924 z"
     id="path14" />
</svg>
