<?xml version="1.0" encoding="utf-8"?>
<svg id="svg78" width="48" height="48" version="1.1" viewBox="0 0 48 48" xmlns="http://www.w3.org/2000/svg" xmlns:cc="http://creativecommons.org/ns#" xmlns:dc="http://purl.org/dc/elements/1.1/" xmlns:rdf="http://www.w3.org/1999/02/22-rdf-syntax-ns#" xmlns:xlink="http://www.w3.org/1999/xlink">
<metadata id="metadata82">
<rdf:RDF>
<cc:Work rdf:about="">
<dc:format>image/svg+xml</dc:format>
<dc:type rdf:resource="http://purl.org/dc/dcmitype/StillImage" />
<dc:title />
</cc:Work>
</rdf:RDF>
</metadata>
<defs id="defs32">
<path id="a7g0fRVF2" d="m6.54 11.66c-0.73 0-1.32 0.59-1.32 1.32v25.55c0 0.73 0.59 1.33 1.32 1.33h17.21 1.21 17.2c0.74 0 1.33-0.6 1.33-1.33v-25.55c0-0.73-0.59-1.32-1.33-1.32h-17.2-1.21-17.21z" />
<linearGradient id="gradientd7k6AnyW4" x1="22.1" x2="22" y1="39.57" y2="11.94" gradientUnits="userSpaceOnUse">
<stop id="stop3" stop-color="#759bff" offset="0" />
<stop id="stop5" stop-color="#7f00ff" offset="1" />
</linearGradient>
<path id="d1XJSOORma" d="m18.09 8.02h-12.17c-0.38 0-0.69 0.31-0.69 0.7v4.22c0 0.02-0.01 0.04-0.01 0.05v25.58c0 0.73 0.6 1.33 1.33 1.33h35.7c0.74 0 1.33-0.6 1.33-1.33v-25.58c0-0.73-0.59-1.33-1.33-1.33h-21.31c-0.02-0.01-0.03-0.02-0.04-0.04-0.49-0.66-1.23-2.45-1.72-3.1-0.29-0.42-0.4-0.49-0.71-0.5h-0.38z" />
<linearGradient id="gradientbXJA2eCJF" x1="13.92" x2="13.52" y1="39.85" y2="8.31" gradientUnits="userSpaceOnUse">
<stop id="stop9" stop-color="#759bff" offset="0" />
<stop id="stop11" stop-color="#7f00ff" offset="1" />
</linearGradient>
<path id="d1WWCGjae2" d="m17.24 9.46c0.27 0 0.5 0.22 0.5 0.5v1.11c0 0.27-0.23 0.5-0.5 0.5h-9.74c-0.28 0-0.5-0.23-0.5-0.5v-1.11c0-0.28 0.22-0.5 0.5-0.5h9.74z" />
<linearGradient id="gradientadZMrzrJp" x1="18.03" x2="17.59" y1="39.75" y2="9.65" gradientUnits="userSpaceOnUse">
<stop id="stop15" stop-color="#ccc" offset="0" />
<stop id="stop17" stop-color="#e6e6e6" offset="1" />
</linearGradient>
<path id="i41Mt4Jdux" d="m5.58 12.85c-0.64 0-1.19 0.54-1.15 1.22 0.15 2.33 1.36 21.03 1.51 23.36 0.04 0.67 0.51 1.22 1.15 1.22h14.94 4.38 14.94c0.64 0 1.11-0.55 1.15-1.22 0.16-2.33 1.37-21.03 1.52-23.36 0.04-0.68-0.52-1.22-1.15-1.22h-16.46-4.38-16.45z" />
<linearGradient id="gradienta8F0lBJWw" x1="16.75" x2="16.24" y1="39.92" y2="9.51" gradientUnits="userSpaceOnUse">
<stop id="stop21" stop-color="#ccc" offset="0" />
<stop id="stop23" stop-color="#f5f2f5" offset="1" />
</linearGradient>
<path id="biwC206w" d="m5.12 14.59c-0.65 0-1.21 0.54-1.18 1.21 0.12 2.3 1.04 20.67 1.15 22.97 0.03 0.67 0.53 1.21 1.18 1.21h15.66 4.48c9.63-0.03 14.97-0.04 16.04-0.05 0.66 0 1.16-0.54 1.18-1.21 0.09-2.29 0.81-20.63 0.9-22.92 0.03-0.67-0.52-1.21-1.18-1.21h-16.87-4.49-16.87z" />
<linearGradient id="gradientb1TK8Nilqx" x1="15.735" x2="15.73" y1="14.837" y2="39.626" gradientUnits="userSpaceOnUse" xlink:href="#gradienta8F0lBJWw">
<stop id="stop27" stop-color="#759bff" offset="0" />
<stop id="stop29" stop-color="#7f00ff" offset="1" />
</linearGradient>
</defs>
<use id="use34" transform="matrix(.97597 0 0 .96969 .58481 .72692)" width="100%" height="100%" fill="url(#gradientd7k6AnyW4)" xlink:href="#a7g0fRVF2" />
<use id="use42" transform="matrix(.97597 0 0 .96969 .58481 .72692)" width="100%" height="100%" fill="url(#gradientbXJA2eCJF)" xlink:href="#d1XJSOORma" />
<use id="use50" transform="matrix(.97597 0 0 .96969 .58481 .72692)" width="100%" height="100%" fill="url(#gradientadZMrzrJp)" xlink:href="#d1WWCGjae2" />
<use id="use58" transform="matrix(.97597 0 0 .96969 .58481 .72692)" width="100%" height="100%" fill="url(#gradienta8F0lBJWw)" xlink:href="#i41Mt4Jdux" />
<use id="use66" transform="matrix(.97597 0 0 .96969 .58481 .72692)" width="100%" height="100%" fill="url(#gradientb1TK8Nilqx)" xlink:href="#biwC206w" />
</svg>
