<svg height="48" viewBox="0 0 48 48" width="48" xmlns="http://www.w3.org/2000/svg" xmlns:xlink="http://www.w3.org/1999/xlink"><filter id="a" color-interpolation-filters="sRGB" height="1.099489" width="1.056413" x="-.028207" y="-.049744"><feGaussianBlur stdDeviation="5.8998423"/></filter><linearGradient id="b" gradientUnits="userSpaceOnUse" x1="13.921029831273" x2="13.524684385606" y1="39.852323748937" y2="8.305117441259"><stop offset="0" stop-color="#197cf1"/><stop offset="1" stop-color="#20bcfa"/></linearGradient><linearGradient id="c"><stop offset="0" stop-color="#ccc"/><stop offset="1" stop-color="#e6e6e6"/></linearGradient><linearGradient id="d" gradientUnits="userSpaceOnUse" x1="22.09865138425" x2="22.003916697133" xlink:href="#c" y1="39.567831542419" y2="11.944369840691"/><linearGradient id="e" gradientTransform="matrix(.82970355 0 0 .87402304 44.868948 7.045139)" gradientUnits="userSpaceOnUse" x1="-33.88871" x2="-34.502491" y1="37.608711" y2="2.822808"><stop offset="0" stop-color="#ccc"/><stop offset="1" stop-color="#f5f2f5"/></linearGradient><linearGradient id="f" gradientTransform="matrix(.85071011 0 0 .87172595 45.339098 8.461861)" gradientUnits="userSpaceOnUse" x1="-27.458342" x2="-26.62384" y1="36.068886" y2="3.757701"><stop offset="0" stop-color="#2a97ff"/><stop offset="1" stop-color="#20bcfa"/></linearGradient><linearGradient id="g" gradientUnits="userSpaceOnUse" x1="18.02523" x2="17.593777" xlink:href="#c" y1="39.75425" y2="9.648277"/><path d="m6.5439662 11.656278c-.7351528 0-1.3263212.592871-1.3263212 1.328021v25.543597c0 .735152.5911684 1.328023 1.3263212 1.328023h17.2064738 1.205593 17.206474c.735152 0 1.326322-.592871 1.326322-1.328023v-25.543597c0-.73515-.59117-1.328021-1.326322-1.328021h-17.206474-1.205593z" fill="url(#d)"/><path d="m18.474468 8.0205511c-.102628-.00269-.226588.00157-.387735.00157h-12.1689132c-.3815126 0-.6891325.3097891-.6891325.6938416v4.2289813c-.0005648.016-.00471.03095-.00471.04709v25.576381c0 .736091.5935103 1.329602 1.3296009 1.329602h35.6983098c.736093 0 1.328033-.593511 1.328033-1.329602v-25.576378c0-.736092-.59194-1.329602-1.328033-1.329602h-21.316008c-.01268-.0169-.02114-.02595-.03454-.04395-.491861-.662668-1.234682-2.4492081-1.718902-3.0956048-.2915-.4244578-.400085-.4942592-.707971-.5023288z" fill="url(#b)"/><path d="m7.499159 9.4566879h9.738435c.277 0 .5.223.5.5v1.1090001c0 .277-.223.5-.5.5h-9.738435c-.2770001 0-.5-.223-.5-.5v-1.1090001c0-.277.2229999-.5.5-.5z" fill="url(#g)"/><path d="m5.5804566 12.850769c-.6383882 0-1.1951591.543892-1.1517441 1.21482l1.5120334 23.366264c.043421.670931.5133569 1.214822 1.1517441 1.214822h14.94167 4.377195 14.941671c.638388 0 1.108331-.543891 1.151746-1.214822l1.512033-23.366264c.0434-.670928-.513358-1.21482-1.151744-1.21482h-16.453706-4.377195z" fill="url(#e)"/><path d="m28.241425 148.07206c-12.87594 0-23.24141 9.6069-23.24141 21.54052l16 244.76159v7.4003c0 6.06398 5.26673 10.94526 11.80953 10.94526h446.379045c6.54281 0 11.81139-4.88128 11.81139-10.94526l15.998-252.16189c0-11.93362-10.36547-21.54052-23.24141-21.54052h-455.515295z" fill-rule="evenodd" filter="url(#a)" opacity=".3" transform="matrix(.07561882 0 0 .07969348 4.839513 2.856494)"/><path d="m5.1236901 14.591215c-.6545516 0-1.2143558.541818-1.1809047 1.211627l1.1469427 22.96587c.033451.669811.526354 1.211629 1.1809047 1.211629h15.6555402 4.488019l16.039057-.04794c.654549-.002 1.154618-.541498 1.180906-1.211629l.89902-22.917931c.02629-.670129-.526354-1.211627-1.180904-1.211627h-16.870282-4.488019z" fill="url(#f)"/><path d="m23.363988 22.42864c-1.339524.004-2.418461 1.089481-2.414393 2.428759.0018.552008.187148 1.05952.498315 1.465503.670133-.780347 1.661117-1.27759 2.769311-1.280954.542167-.002 1.056684.11635 1.520576.327815.03705-.169748.05594-.346224.05541-.527089-.004-1.339292-1.089594-2.418105-2.429117-2.414034zm-3.159169 1.13011c-.697629.002-1.256643.569119-1.254518 1.266799.000883.225606.0596.438872.163392.621123.420236-.23857.906513-.377774 1.423452-.379337.04984-.000469.09796-.000401.147217-.000333-.0058-.0703-.01024-.142417-.01001-.213422-.0011-.388409.0821-.758349.229352-1.092593-.200068-.134269-.439512-.207687-.698684-.206891zm5.976382.850726c-.05153.000666-.101171.000469-.151939.01719.02224.137558.03907.277788.03923.422359.000883.22458-.02751.441848-.07873.650582.612152.336261 1.121264.84062 1.457523 1.453283.346289-.181817.732842-.297786 1.143451-.326503-.109642-1.240514-1.14081-2.213584-2.409546-2.209717zm-1.963141.907908c-1.874414.0054-3.385887 1.526246-3.380183 3.400293.0057 1.874018 1.526273 3.385233 3.400797 3.379532 1.874513-.0054 3.385873-1.526137 3.380176-3.400163-.0057-1.874257-1.526391-3.385357-3.40079-3.379662zm-3.680136.0282c-1.454224.004-2.627121 1.184363-2.622701 2.638184.0026.855958.412785 1.612446 1.046299 2.090561.264909-.514443.799027-.866443 1.417227-.868319.0748.000048.146467.01652.218502.01869-.02331-.164428-.03428-.332566-.0348-.503211-.0025-.815526.260788-1.570674.710381-2.181279-.271283-.33728-.465927-.743046-.549696-1.185363-.06102.00068-.123068-.01665-.185258-.01645zm8.248063 1.541745c-.441558.0013-.854822.114985-1.219459.307307.208756.458844.325849.967817.327477 1.504283.003 1.004003-.397927 1.916797-1.051113 2.581153.482951.532621 1.182303.865212 1.959046.862841 1.45424-.004 2.627129-1.184229 2.622715-2.638063-.0044-1.454066-1.184523-2.621951-2.638692-2.617528zm-11.129583.380358c-1.339049.0034-2.422742 1.083928-2.418669 2.423546.004 1.339041 1.094347 2.422623 2.43393 2.418553.509857-.0014.981687-.16133 1.371036-.431526-.161979-.249853-.258093-.549073-.259053-.868115-.000679-.165529.02342-.324669.06978-.474915-.732053-.525608-1.210388-1.382728-1.213322-2.351196-.000747-.246026.03085-.48398.08806-.712366-.02394-.0014-.04709-.000067-.07118.000402zm14.247475 2.036224c-.0714.000394-.140574.01739-.208945.01944.0037.06129.0053.118171.0055.180608.0023.77181-.300295 1.473941-.7917 1.99622.243404.281193.600205.458687 1.003366.457478.734335-.002 1.327832-.594336 1.325606-1.328684-.0024-.734233-.599309-1.327468-1.333674-1.32524zm-11.524353.177513c-.734284.002-1.323027.594302-1.3208 1.328426.0024.73424.594585 1.327604 1.328871 1.325369.562872-.0014 1.039525-.354222 1.23204-.848687-.474869-.48063-.816988-1.094734-.969402-1.777322-.08802-.01794-.17736-.02901-.270752-.02868z" fill="#fff"/></svg>