<?xml version="1.0" encoding="UTF-8" standalone="no"?>
<!-- Created with Inkscape (http://www.inkscape.org/) -->

<svg
   xmlns:dc="http://purl.org/dc/elements/1.1/"
   xmlns:cc="http://creativecommons.org/ns#"
   xmlns:rdf="http://www.w3.org/1999/02/22-rdf-syntax-ns#"
   xmlns:svg="http://www.w3.org/2000/svg"
   xmlns="http://www.w3.org/2000/svg"
   xmlns:sodipodi="http://sodipodi.sourceforge.net/DTD/sodipodi-0.dtd"
   xmlns:inkscape="http://www.inkscape.org/namespaces/inkscape"
   id="svg2"
   version="1.1"
   inkscape:version="0.91 r13725"
   width="48"
   height="48"
   sodipodi:docname="folder-documents.svg"
   viewBox="0 0 48 48">
  <metadata
     id="metadata8">
    <rdf:RDF>
      <cc:Work
         rdf:about="">
        <dc:format>image/svg+xml</dc:format>
        <dc:type
           rdf:resource="http://purl.org/dc/dcmitype/StillImage" />
        <dc:title />
      </cc:Work>
    </rdf:RDF>
  </metadata>
  <defs
     id="defs6">
    <filter
       inkscape:collect="always"
       style="color-interpolation-filters:sRGB"
       id="filter4166"
       x="-0.028206533"
       width="1.0564131"
       y="-0.049744379"
       height="1.0994889">
      <feGaussianBlur
         inkscape:collect="always"
         stdDeviation="5.8998423"
         id="feGaussianBlur4168" />
    </filter>
  </defs>
  <sodipodi:namedview
     pagecolor="#ffffff"
     bordercolor="#666666"
     borderopacity="1"
     objecttolerance="10"
     gridtolerance="10"
     guidetolerance="10"
     inkscape:pageopacity="0"
     inkscape:pageshadow="2"
     inkscape:window-width="960"
     inkscape:window-height="1008"
     id="namedview4"
     showgrid="false"
     showguides="true"
     inkscape:guide-bbox="true"
     inkscape:zoom="16.793786"
     inkscape:cx="26.201615"
     inkscape:cy="24.94314"
     inkscape:window-x="0"
     inkscape:window-y="32"
     inkscape:window-maximized="0"
     inkscape:current-layer="svg2"
     inkscape:document-units="px" />
  <path
     style="fill:#2980b9;fill-opacity:1;fill-rule:evenodd;stroke:#000000;stroke-width:0;stroke-linecap:butt;stroke-linejoin:miter;stroke-miterlimit:4;stroke-dasharray:none;stroke-opacity:1"
     d="m 4.3342026,9.3435227 c -0.7657806,0 -1.3823313,0.6163848 -1.3823313,1.3821643 l 0,3.653444 0,11.757642 0,11.895943 0,0.715162 c 0,0.586017 0.4717251,1.057743 1.0577435,1.057743 l 39.9807842,0 c 0.586018,0 1.057909,-0.471726 1.057909,-1.057743 l 0,-12.611104 -1.96e-4,0 0,-11.757642 c 0,-1.153258 -0.928402,-2.081661 -2.08166,-2.081661 l -21.430942,0 c -0.569242,0 -0.794133,-0.06706 -1.158672,-0.409977 L 18.226806,9.7569218 c -0.0073,-0.00746 -0.01484,-0.014704 -0.02233,-0.021995 l -0.0043,-0.00417 -1.96e-4,1.957e-4 C 17.951611,9.4912698 17.61388,9.3435472 17.239846,9.3435472 Z"
     id="rect2982-2"
     inkscape:connector-curvature="0"
     sodipodi:nodetypes="sscccssssccssccccccss" />
  <path
     style="opacity:0.3;fill:#000000;fill-opacity:1;fill-rule:evenodd;stroke:#000000;stroke-width:0;stroke-linecap:butt;stroke-linejoin:miter;stroke-miterlimit:4;stroke-dasharray:none;stroke-opacity:1;filter:url(#filter4166)"
     d="m 28.241425,148.07206 c -12.87594,0 -23.24141,9.6069 -23.24141,21.54052 l 16,244.76159 0,7.4003 c 0,6.06398 5.26673,10.94526 11.80953,10.94526 l 446.379045,0 c 6.54281,0 11.81139,-4.88128 11.81139,-10.94526 l 15.998,-252.16189 c 0,-11.93362 -10.36547,-21.54052 -23.24141,-21.54052 l -455.515295,0 z"
     id="rect2982-5"
     inkscape:connector-curvature="0"
     sodipodi:nodetypes="cccsssccscc"
     transform="matrix(0.08674054,0,0,0.08442976,1.7945093,2.7663684)" />
  <path
     style="fill:#4aaee8;fill-opacity:1;fill-rule:evenodd;stroke:#000000;stroke-width:0;stroke-linecap:butt;stroke-linejoin:miter;stroke-miterlimit:4;stroke-dasharray:none;stroke-opacity:1"
     d="m 3.6004624,15.504988 c -1.1532581,0 -2.081661,0.860461 -2.081661,1.929319 l 1.4330699,21.922534 0,0.662822 c 0,0.543131 0.4717251,0.980333 1.0577435,0.980333 l 39.9807842,0 c 0.586018,0 1.057909,-0.437202 1.057909,-0.980333 l 1.432891,-22.585357 c 0,-1.068858 -0.928402,-1.929318 -2.08166,-1.929318 l -40.7990903,0 z"
     id="rect2982"
     inkscape:connector-curvature="0"
     sodipodi:nodetypes="cccsssccscc" />
  <path
     inkscape:connector-curvature="0"
     d="M 20.400001,32.652 A 4.3999999,4.3999999 0 0 1 16,28.252 a 4.3999999,4.3999999 0 0 1 4.400001,-4.4 l 8.399999,0 a 3.2,3.2 0 0 1 3.2,3.2 3.2,3.2 0 0 1 -3.2,3.2 l -6.8,0 a 2,2 0 0 1 -2,-2 2,2 0 0 1 2,-2 l 6.000001,0 0,1.2 -6.000001,0 a 0.8,0.8 0 0 0 -0.8,0.8 0.8,0.8 0 0 0 0.8,0.800001 l 6.8,0 a 2,2 0 0 0 2,-2.000001 2,2 0 0 0 -2,-2 l -8.399999,0 a 3.2,3.2 0 0 0 -3.200001,3.2 3.2,3.2 0 0 0 3.200001,3.2 l 7.6,0 0,1.2 -7.6,0 z"
     id="path4"
     style="fill:#ffffff" />
</svg>
