<svg xmlns="http://www.w3.org/2000/svg" xmlns:xlink="http://www.w3.org/1999/xlink" width="48" height="48">
<defs />
<defs>
<linearGradient id="b" x1="21.99" x2="21.89" y1="39.17" y2="12.32" gradientUnits="userSpaceOnUse">
<stop offset="0%" stop-color="pink" />
<stop offset="100%" stop-color="#ff76cb" />
</linearGradient>
<linearGradient id="d" x1="14.01" x2="13.61" y1="39.45" y2="8.79" gradientUnits="userSpaceOnUse">
<stop offset="0%" stop-color="pink" />
<stop offset="100%" stop-color="#ff76cb" />
</linearGradient>
<linearGradient id="f" x1="18.02" x2="17.59" y1="39.35" y2="10.09" gradientUnits="userSpaceOnUse">
<stop offset="0%" stop-color="#ccc" />
<stop offset="100%" stop-color="#f5f2f5" />
</linearGradient>
<linearGradient id="h" x1="16.77" x2="16.27" y1="39.51" y2="9.95" gradientUnits="userSpaceOnUse">
<stop offset="0%" stop-color="#ccc" />
<stop offset="100%" stop-color="#f5f2f5" />
</linearGradient>
<linearGradient id="j" x1="22.62" x2="22.62" y1="14.75" y2="39.5" gradientUnits="userSpaceOnUse">
<stop offset="0%" stop-color="#ffaacb" />
<stop offset="100%" stop-color="#ff76cb" />
</linearGradient>
<path id="a" d="M5.51 13.33v24.83c0 .71.58 1.3 1.29 1.3h34.77c.72 0 1.29-.59 1.29-1.3V13.33c0-.71-.57-1.29-1.29-1.29H6.8c-.86.39-1.29.81-1.29 1.29z" />
<path id="c" d="M6.2 8.5c-.37 0-.68.31-.68.69v4.1c0 .02-.01.04-.01.05V38.2c0 .71.59 1.29 1.3 1.29h34.84c.73 0 1.3-.58 1.3-1.29V13.34c0-.71-.57-1.3-1.3-1.3H20.86c-.02-.01-.03-.02-.04-.04-.48-.64-1.2-2.38-1.68-3.01-.28-.41-.39-.48-.69-.49H6.2z" />
<path id="e" d="M17.73 10.39v1.08c0 .26-.22.49-.48.49H7.74c-.27 0-.49-.23-.49-.49v-1.08c0-.27.22-.49.49-.49h9.51c.32.15.48.31.48.49z" />
<path id="g" d="M4.74 14.39c.15 2.26 1.33 20.44 1.48 22.7.04.65.49 1.19 1.12 1.19h33.44c.62 0 1.08-.54 1.12-1.19.15-2.26 1.34-20.44 1.48-22.7.04-.67-.51-1.19-1.12-1.19H5.87c-.78.35-1.15.75-1.13 1.19z" />
<path id="i" d="M4.43 15.95c.11 2.24 1.01 20.09 1.11 22.32.04.65.52 1.19 1.16 1.19h19.66c9.39-.03 14.61-.05 15.66-.05.63 0 1.12-.53 1.15-1.18.08-2.24.79-20.05.88-22.28.01-.65-.52-1.18-1.16-1.18H5.58c-.79.35-1.18.75-1.15 1.18z" />
</defs>
<use fill="url(#b)" xlink:href="#a" />
<use fill-opacity="0" stroke="#000" stroke-opacity="0" xlink:href="#a" />
<use fill="url(#d)" xlink:href="#c" />
<use fill-opacity="0" stroke="#000" stroke-opacity="0" xlink:href="#c" />
<use fill="url(#f)" xlink:href="#e" />
<use fill-opacity="0" stroke="#000" stroke-opacity="0" xlink:href="#e" />
<g>
<use fill="url(#h)" xlink:href="#g" />
<use fill-opacity="0" stroke="#000" stroke-opacity="0" xlink:href="#g" />
</g>
<g>
<use fill="url(#j)" xlink:href="#i" />
<use fill-opacity="0" stroke="#000" stroke-opacity="0" xlink:href="#i" />
</g>
</svg>
