<?xml version="1.0" encoding="UTF-8" standalone="no"?>
<!-- Created with Inkscape (http://www.inkscape.org/) -->

<svg
   xmlns:dc="http://purl.org/dc/elements/1.1/"
   xmlns:cc="http://creativecommons.org/ns#"
   xmlns:rdf="http://www.w3.org/1999/02/22-rdf-syntax-ns#"
   xmlns:svg="http://www.w3.org/2000/svg"
   xmlns="http://www.w3.org/2000/svg"
   xmlns:sodipodi="http://sodipodi.sourceforge.net/DTD/sodipodi-0.dtd"
   xmlns:inkscape="http://www.inkscape.org/namespaces/inkscape"
   id="svg2"
   version="1.1"
   inkscape:version="0.91 r13725"
   width="48"
   height="48"
   sodipodi:docname="folder-videos.svg"
   viewBox="0 0 48 48">
  <metadata
     id="metadata8">
    <rdf:RDF>
      <cc:Work
         rdf:about="">
        <dc:format>image/svg+xml</dc:format>
        <dc:type
           rdf:resource="http://purl.org/dc/dcmitype/StillImage" />
        <dc:title />
      </cc:Work>
    </rdf:RDF>
  </metadata>
  <defs
     id="defs6">
    <filter
       inkscape:collect="always"
       style="color-interpolation-filters:sRGB"
       id="filter4166"
       x="-0.028206533"
       width="1.0564131"
       y="-0.049744379"
       height="1.0994889">
      <feGaussianBlur
         inkscape:collect="always"
         stdDeviation="5.8998423"
         id="feGaussianBlur4168" />
    </filter>
  </defs>
  <sodipodi:namedview
     pagecolor="#ffffff"
     bordercolor="#666666"
     borderopacity="1"
     objecttolerance="10"
     gridtolerance="10"
     guidetolerance="10"
     inkscape:pageopacity="0"
     inkscape:pageshadow="2"
     inkscape:window-width="1920"
     inkscape:window-height="1008"
     id="namedview4"
     showgrid="false"
     showguides="true"
     inkscape:guide-bbox="true"
     inkscape:zoom="7.3606237"
     inkscape:cx="5.8607024"
     inkscape:cy="35.788695"
     inkscape:window-x="0"
     inkscape:window-y="32"
     inkscape:window-maximized="1"
     inkscape:current-layer="g4671"
     inkscape:document-units="px" />
  <g
     transform="translate(226.5678,-19.38559)"
     id="g3926">
    <g
       transform="translate(21.737289,-39.127119)"
       id="g4102">
      <g
         id="g4157"
         transform="translate(-671.90801,-288.45425)">
        <g
           id="g4214"
           transform="translate(10.868643,220.39399)">
          <g
             id="g4509"
             transform="translate(756.68343,131.09839)">
            <g
               id="g4626"
               transform="translate(-198.03512,-23.259323)">
              <g
                 id="g4671"
                 transform="translate(-339.10169,-13.042373)">
                <path
                   style="fill:#2980b9;fill-opacity:1;fill-rule:evenodd;stroke:#000000;stroke-width:0;stroke-linecap:butt;stroke-linejoin:miter;stroke-miterlimit:4;stroke-dasharray:none;stroke-opacity:1"
                   d="m 197.52186,41.119802 c -0.76578,0 -1.38233,0.616385 -1.38233,1.382164 l 0,3.653445 0,11.757642 0,11.895943 0,0.715161 c 0,0.586017 0.47172,1.057742 1.05774,1.057742 l 39.98079,0 c 0.58601,0 1.05791,-0.471725 1.05791,-1.057742 l 0,-12.611102 -2e-4,0 0,-11.757642 c 0,-1.153259 -0.9284,-2.081662 -2.08166,-2.081662 l -21.43094,0 c -0.56924,0 -0.79414,-0.06706 -1.15867,-0.409977 l -2.15004,-2.130573 c -0.007,-0.0075 -0.0148,-0.0147 -0.0223,-0.02199 l -0.004,-0.0042 -2e-4,1.96e-4 c -0.24833,-0.239684 -0.58606,-0.387406 -0.9601,-0.387406 z"
                   id="rect2982-2"
                   inkscape:connector-curvature="0"
                   sodipodi:nodetypes="sscccssssccssccccccss" />
                <path
                   style="opacity:0.3;fill:#000000;fill-opacity:1;fill-rule:evenodd;stroke:#000000;stroke-width:0;stroke-linecap:butt;stroke-linejoin:miter;stroke-miterlimit:4;stroke-dasharray:none;stroke-opacity:1;filter:url(#filter4166)"
                   d="m 28.241425,148.07206 c -12.87594,0 -23.24141,9.6069 -23.24141,21.54052 l 16,244.76159 0,7.4003 c 0,6.06398 5.26673,10.94526 11.80953,10.94526 l 446.379045,0 c 6.54281,0 11.81139,-4.88128 11.81139,-10.94526 l 15.998,-252.16189 c 0,-11.93362 -10.36547,-21.54052 -23.24141,-21.54052 l -455.515295,0 z"
                   id="rect2982-5"
                   inkscape:connector-curvature="0"
                   sodipodi:nodetypes="cccsssccscc"
                   transform="matrix(0.08674054,0,0,0.08442976,194.98217,34.542649)" />
                <path
                   style="fill:#4aaee8;fill-opacity:1;fill-rule:evenodd;stroke:#000000;stroke-width:0;stroke-linecap:butt;stroke-linejoin:miter;stroke-miterlimit:4;stroke-dasharray:none;stroke-opacity:1"
                   d="m 196.78812,47.281267 c -1.15326,0 -2.08166,0.860461 -2.08166,1.929319 l 1.43307,21.922534 0,0.662822 c 0,0.543132 0.47172,0.980333 1.05774,0.980333 l 39.98079,0 c 0.58601,0 1.05791,-0.437201 1.05791,-0.980333 l 1.43289,-22.585357 c 0,-1.068858 -0.92841,-1.929318 -2.08166,-1.929318 l -40.79909,0 z"
                   id="rect2982"
                   inkscape:connector-curvature="0"
                   sodipodi:nodetypes="cccsssccscc" />
                <path
                   inkscape:connector-curvature="0"
                   style="fill:#ffffff;fill-opacity:1"
                   d="m 210.18767,55.028275 c -0.55401,0 -1.00001,0.446 -1.00001,1 l 0,8 c 0,0.554 0.446,1 1.00001,1 l 10,0 c 0.55399,0 0.99999,-0.446 0.99999,-1 l 0,-2 4,2 0,-8 -4,1.999999 0,-1.999998 c 0,-0.554 -0.446,-1 -0.99999,-1 l -10.00001,0 z"
                   id="path3623" />
              </g>
            </g>
          </g>
        </g>
      </g>
    </g>
  </g>
</svg>
