<?xml version="1.0" encoding="UTF-8" standalone="no"?>
<svg
   xmlns:dc="http://purl.org/dc/elements/1.1/"
   xmlns:cc="http://creativecommons.org/ns#"
   xmlns:rdf="http://www.w3.org/1999/02/22-rdf-syntax-ns#"
   xmlns:svg="http://www.w3.org/2000/svg"
   xmlns="http://www.w3.org/2000/svg"
   xmlns:xlink="http://www.w3.org/1999/xlink"
   xmlns:sodipodi="http://sodipodi.sourceforge.net/DTD/sodipodi-0.dtd"
   xmlns:inkscape="http://www.inkscape.org/namespaces/inkscape"
   height="48"
   viewBox="0 0 48 48"
   width="48"
   version="1.1"
   id="svg39"
   sodipodi:docname="folder-virtualbox.svg"
   inkscape:version="0.92.4 (5da689c313, 2019-01-14)">
  <metadata
     id="metadata45">
    <rdf:RDF>
      <cc:Work
         rdf:about="">
        <dc:format>image/svg+xml</dc:format>
        <dc:type
           rdf:resource="http://purl.org/dc/dcmitype/StillImage" />
        <dc:title />
      </cc:Work>
    </rdf:RDF>
  </metadata>
  <defs
     id="defs43">
    <linearGradient
       id="f-3"
       gradientTransform="matrix(0.85071011,0,0,0.87172595,127.52694,10.889111)"
       gradientUnits="userSpaceOnUse"
       x1="-27.458342"
       x2="-26.62384"
       y1="36.068886"
       y2="3.7577009">
      <stop
         offset="0"
         stop-color="#2a97ff"
         id="stop21-6" />
      <stop
         offset="1"
         stop-color="#20bcfa"
         id="stop23-7" />
    </linearGradient>
    <filter
       style="color-interpolation-filters:sRGB"
       id="a-5"
       height="1.099489"
       width="1.0564131"
       x="-0.028207"
       y="-0.049743999">
      <feGaussianBlur
         stdDeviation="5.8998423"
         id="feGaussianBlur2-3" />
    </filter>
    <linearGradient
       id="e-5"
       gradientTransform="matrix(0.82970355,0,0,0.87402304,127.05679,9.4723887)"
       gradientUnits="userSpaceOnUse"
       x1="-33.88871"
       x2="-34.502491"
       y1="37.608711"
       y2="2.822808">
      <stop
         offset="0"
         stop-color="#ccc"
         id="stop16-6" />
      <stop
         offset="1"
         stop-color="#f5f2f5"
         id="stop18-2" />
    </linearGradient>
    <linearGradient
       gradientTransform="translate(82.187845,2.4272497)"
       id="g-9"
       gradientUnits="userSpaceOnUse"
       x1="18.02523"
       x2="17.593777"
       xlink:href="#c"
       y1="39.75425"
       y2="9.6482773" />
    <linearGradient
       id="linearGradient212">
      <stop
         offset="0"
         stop-color="#ccc"
         id="stop10-1" />
      <stop
         offset="1"
         stop-color="#e6e6e6"
         id="stop12-2" />
    </linearGradient>
    <linearGradient
       gradientTransform="translate(82.187845,2.4272497)"
       id="b-7"
       gradientUnits="userSpaceOnUse"
       x1="13.92103"
       x2="13.524684"
       y1="39.852325"
       y2="8.3051167">
      <stop
         offset="0"
         stop-color="#197cf1"
         id="stop5-0" />
      <stop
         offset="1"
         stop-color="#20bcfa"
         id="stop7-9" />
    </linearGradient>
    <linearGradient
       gradientTransform="translate(82.187845,2.4272497)"
       id="d-3"
       gradientUnits="userSpaceOnUse"
       x1="22.098652"
       x2="22.003918"
       xlink:href="#c"
       y1="39.567833"
       y2="11.94437" />
  </defs>
  <sodipodi:namedview
     pagecolor="#ffffff"
     bordercolor="#666666"
     borderopacity="1"
     objecttolerance="10"
     gridtolerance="10"
     guidetolerance="10"
     inkscape:pageopacity="0"
     inkscape:pageshadow="2"
     inkscape:window-width="1920"
     inkscape:window-height="1022"
     id="namedview41"
     showgrid="false"
     inkscape:zoom="6.9532167"
     inkscape:cx="36.118022"
     inkscape:cy="3.1527702"
     inkscape:window-x="0"
     inkscape:window-y="32"
     inkscape:window-maximized="1"
     inkscape:current-layer="svg39" />
  <filter
     id="a"
     color-interpolation-filters="sRGB"
     height="1.099489"
     width="1.056413"
     x="-.028207"
     y="-.049744">
    <feGaussianBlur
       stdDeviation="5.8998423"
       id="feGaussianBlur2" />
  </filter>
  <linearGradient
     id="b"
     gradientUnits="userSpaceOnUse"
     x1="13.92103"
     x2="13.524684"
     y1="39.852324"
     y2="8.305117">
    <stop
       offset="0"
       stop-color="#197cf1"
       id="stop5" />
    <stop
       offset="1"
       stop-color="#20bcfa"
       id="stop7" />
  </linearGradient>
  <linearGradient
     id="c">
    <stop
       offset="0"
       stop-color="#ccc"
       id="stop10" />
    <stop
       offset="1"
       stop-color="#e6e6e6"
       id="stop12" />
  </linearGradient>
  <linearGradient
     id="d"
     gradientUnits="userSpaceOnUse"
     x1="22.098651"
     x2="22.003917"
     xlink:href="#c"
     y1="39.567832"
     y2="11.94437" />
  <linearGradient
     id="e"
     gradientTransform="matrix(.82970355 0 0 .87402304 44.868948 7.045139)"
     gradientUnits="userSpaceOnUse"
     x1="-33.88871"
     x2="-34.502491"
     y1="37.608711"
     y2="2.822808">
    <stop
       offset="0"
       stop-color="#ccc"
       id="stop16" />
    <stop
       offset="1"
       stop-color="#f5f2f5"
       id="stop18" />
  </linearGradient>
  <linearGradient
     id="f"
     gradientTransform="matrix(.85071011 0 0 .87172595 45.339098 8.461861)"
     gradientUnits="userSpaceOnUse"
     x1="-27.458342"
     x2="-26.62384"
     y1="36.068886"
     y2="3.757701">
    <stop
       offset="0"
       stop-color="#2a97ff"
       id="stop21" />
    <stop
       offset="1"
       stop-color="#20bcfa"
       id="stop23" />
  </linearGradient>
  <linearGradient
     id="g"
     gradientUnits="userSpaceOnUse"
     x1="18.02523"
     x2="17.593777"
     xlink:href="#c"
     y1="39.75425"
     y2="9.648277" />
  <path
     d="m6.5439662 11.656278c-.7351528 0-1.3263212.592871-1.3263212 1.328021v25.543597c0 .735152.5911684 1.328023 1.3263212 1.328023h17.2064738 1.205593 17.206474c.735152 0 1.326322-.592871 1.326322-1.328023v-25.543597c0-.73515-.59117-1.328021-1.326322-1.328021h-17.206474-1.205593z"
     id="path27"
     fill="url(#d)" />
  <path
     d="m18.474468 8.0205511c-.102628-.00269-.226588.00157-.387735.00157h-12.1689132c-.3815126 0-.6891325.3097891-.6891325.6938416v4.2289813c-.0005648.016-.00471.03095-.00471.04709v25.576381c0 .736091.5935103 1.329602 1.3296009 1.329602h35.6983098c.736093 0 1.328033-.593511 1.328033-1.329602v-25.576378c0-.736092-.59194-1.329602-1.328033-1.329602h-21.316008c-.01268-.0169-.02114-.02595-.03454-.04395-.491861-.662668-1.234682-2.4492081-1.718902-3.0956048-.2915-.4244578-.400085-.4942592-.707971-.5023288z"
     id="path29"
     fill="url(#b)" />
  <path
     d="m7.499159 9.4566879h9.738435c.277 0 .5.223.5.5v1.1090001c0 .277-.223.5-.5.5h-9.738435c-.2770001 0-.5-.223-.5-.5v-1.1090001c0-.277.2229999-.5.5-.5z"
     id="path31"
     fill="url(#g)" />
  <path
     d="m5.5804566 12.850769c-.6383882 0-1.1951591.543892-1.1517441 1.21482l1.5120334 23.366264c.043421.670931.5133569 1.214822 1.1517441 1.214822h14.94167 4.377195 14.941671c.638388 0 1.108331-.543891 1.151746-1.214822l1.512033-23.366264c.0434-.670928-.513358-1.21482-1.151744-1.21482h-16.453706-4.377195z"
     id="path33"
     fill="url(#e)" />
  <path
     d="m28.241425 148.07206c-12.87594 0-23.24141 9.6069-23.24141 21.54052l16 244.76159v7.4003c0 6.06398 5.26673 10.94526 11.80953 10.94526h446.379045c6.54281 0 11.81139-4.88128 11.81139-10.94526l15.998-252.16189c0-11.93362-10.36547-21.54052-23.24141-21.54052h-455.515295z"
     transform="matrix(.07561882 0 0 .07969348 4.839513 2.856494)"
     id="path35"
     filter="url(#a)"
     fill-rule="evenodd"
     opacity=".3" />
  <path
     d="m5.1236901 14.591215c-.6545516 0-1.2143558.541818-1.1809047 1.211627l1.1469427 22.96587c.033451.669811.526354 1.211629 1.1809047 1.211629h15.6555402 4.488019l16.039057-.04794c.654549-.002 1.154618-.541498 1.180906-1.211629l.89902-22.917931c.02629-.670129-.526354-1.211627-1.180904-1.211627h-16.870282-4.488019z"
     id="path37"
     fill="url(#f)" />
  <path
     style="fill:#000000"
     d=""
     id="path382"
     inkscape:connector-curvature="0" />
  <path
     inkscape:connector-curvature="0"
     id="path537"
     d="M 31.025015,27.145463 V 20.12555 H 24.0051 16.985184 l -0.0082,6.988363 c -0.0044,3.8436 -0.0013,7.006141 0.007,7.02787 0.01197,0.03152 1.434169,0.0379 7.028004,0.03155 l 7.012988,-0.008 z m -12.981745,5.87049 c -0.04547,-0.08496 -0.04551,-6.891863 0,-6.97682 0.03097,-0.05788 0.074,-0.06102 0.832214,-0.06102 0.602368,0 0.80707,0.0097 0.830019,0.03944 0.01676,0.0217 0.452522,1.416602 0.968375,3.099805 0.515856,1.6832 0.94782,3.07056 0.959918,3.083022 0.01211,0.01246 0.410645,-1.478285 0.885658,-3.312768 0.475011,-1.834484 0.875483,-3.367369 0.889941,-3.406412 0.01447,-0.03904 0.04727,-0.07099 0.07292,-0.07099 0.04612,0 0.105693,0.174968 0.981845,2.883755 0.171293,0.529585 0.283644,0.832131 0.298765,0.804529 0.01332,-0.02433 0.332577,-0.917391 0.709442,-1.984575 0.376865,-1.067184 0.704825,-1.961022 0.728799,-1.986308 0.0276,-0.0291 0.05433,-0.03489 0.07284,-0.01577 0.01609,0.01661 0.308999,0.903349 0.650907,1.970534 0.341909,1.067184 0.634499,1.965007 0.650202,1.995161 0.0262,0.05031 0.123791,0.05551 1.187116,0.0631 l 1.158553,0.0082 v 1.956111 1.956112 l -5.922393,0.0081 c -5.829986,0.0079 -5.922903,0.007 -5.955097,-0.05314 z m 3.422209,-4.332418 c -0.0074,-0.02169 -0.254011,-0.834503 -0.547811,-1.806249 l -0.534192,-1.766808 -1.155835,-0.0082 -1.155834,-0.0082 -0.03135,-0.08245 c -0.01984,-0.05219 -0.02818,-0.764654 -0.02273,-1.941109 0.0074,-1.611443 0.0149,-1.86263 0.05594,-1.888558 0.05815,-0.03674 11.765772,-0.04148 11.823567,-0.0048 0.03142,0.01995 0.03793,0.74915 0.03155,3.541025 l -0.0081,3.515896 -0.823901,0.0083 c -0.635197,0.0065 -0.831187,-7.4e-4 -0.855709,-0.03155 -0.02592,-0.03255 -1.115684,-3.326292 -1.808552,-5.466212 -0.08851,-0.273342 -0.172542,-0.48463 -0.186752,-0.469531 -0.01421,0.0151 -0.33452,0.900608 -0.7118,1.967793 -0.377282,1.067184 -0.701716,1.95047 -0.720965,1.962858 -0.01925,0.01239 -0.0515,0.0053 -0.0717,-0.01577 -0.02018,-0.02106 -0.331067,-0.897251 -0.690857,-1.947082 -0.747148,-2.18013 -0.705997,-2.063386 -0.721617,-2.047249 -0.0065,0.0068 -0.397609,1.467006 -0.869064,3.245028 -0.471454,1.778021 -0.864087,3.24392 -0.872514,3.257555 -0.02405,0.03892 -0.106782,0.02898 -0.121853,-0.01464 z"
     style="fill:#ffffff;stroke-width:0.03155017"
     sodipodi:nodetypes="ccccscsccccscsccssscsccscscccscccccccccccscscscsscccscc" />
</svg>
