<?xml version="1.0" encoding="UTF-8" standalone="no"?>
<svg
   xmlns:dc="http://purl.org/dc/elements/1.1/"
   xmlns:cc="http://creativecommons.org/ns#"
   xmlns:rdf="http://www.w3.org/1999/02/22-rdf-syntax-ns#"
   xmlns:svg="http://www.w3.org/2000/svg"
   xmlns="http://www.w3.org/2000/svg"
   xmlns:xlink="http://www.w3.org/1999/xlink"
   xmlns:sodipodi="http://sodipodi.sourceforge.net/DTD/sodipodi-0.dtd"
   xmlns:inkscape="http://www.inkscape.org/namespaces/inkscape"
   height="48"
   viewBox="0 0 48 48"
   width="48"
   version="1.1"
   id="svg39"
   sodipodi:docname="folder-appimage.svg"
   inkscape:version="0.92.4 (5da689c313, 2019-01-14)">
  <metadata
     id="metadata45">
    <rdf:RDF>
      <cc:Work
         rdf:about="">
        <dc:format>image/svg+xml</dc:format>
        <dc:type
           rdf:resource="http://purl.org/dc/dcmitype/StillImage" />
      </cc:Work>
    </rdf:RDF>
  </metadata>
  <defs
     id="defs43">
    <linearGradient
       id="linearGradient3575">
      <stop
         id="stop3577"
         style="stop-color:#fafafa;stop-opacity:1"
         offset="0" />
      <stop
         id="stop3579"
         style="stop-color:#e6e6e6;stop-opacity:1"
         offset="1" />
    </linearGradient>
  </defs>
  <sodipodi:namedview
     pagecolor="#ffffff"
     bordercolor="#666666"
     borderopacity="1"
     objecttolerance="10"
     gridtolerance="10"
     guidetolerance="10"
     inkscape:pageopacity="0"
     inkscape:pageshadow="2"
     inkscape:window-width="1920"
     inkscape:window-height="1054"
     id="namedview41"
     showgrid="false"
     inkscape:zoom="6.9532167"
     inkscape:cx="-2.8718323"
     inkscape:cy="21.974569"
     inkscape:window-x="1920"
     inkscape:window-y="0"
     inkscape:window-maximized="1"
     inkscape:current-layer="svg39" />
  <filter
     id="a"
     color-interpolation-filters="sRGB"
     height="1.099489"
     width="1.056413"
     x="-.028207"
     y="-.049744">
    <feGaussianBlur
       stdDeviation="5.8998423"
       id="feGaussianBlur2" />
  </filter>
  <linearGradient
     id="b"
     gradientUnits="userSpaceOnUse"
     x1="13.92103"
     x2="13.524684"
     y1="39.852324"
     y2="8.305117">
    <stop
       offset="0"
       stop-color="#197cf1"
       id="stop5" />
    <stop
       offset="1"
       stop-color="#20bcfa"
       id="stop7" />
  </linearGradient>
  <linearGradient
     id="c">
    <stop
       offset="0"
       stop-color="#ccc"
       id="stop10" />
    <stop
       offset="1"
       stop-color="#e6e6e6"
       id="stop12" />
  </linearGradient>
  <linearGradient
     id="d"
     gradientUnits="userSpaceOnUse"
     x1="22.098651"
     x2="22.003917"
     xlink:href="#c"
     y1="39.567832"
     y2="11.94437" />
  <linearGradient
     id="e"
     gradientTransform="matrix(.82970355 0 0 .87402304 44.868948 7.045139)"
     gradientUnits="userSpaceOnUse"
     x1="-33.88871"
     x2="-34.502491"
     y1="37.608711"
     y2="2.822808">
    <stop
       offset="0"
       stop-color="#ccc"
       id="stop16" />
    <stop
       offset="1"
       stop-color="#f5f2f5"
       id="stop18" />
  </linearGradient>
  <linearGradient
     id="f"
     gradientTransform="matrix(.85071011 0 0 .87172595 45.339098 8.461861)"
     gradientUnits="userSpaceOnUse"
     x1="-27.458342"
     x2="-26.62384"
     y1="36.068886"
     y2="3.757701">
    <stop
       offset="0"
       stop-color="#2a97ff"
       id="stop21" />
    <stop
       offset="1"
       stop-color="#20bcfa"
       id="stop23" />
  </linearGradient>
  <linearGradient
     id="g"
     gradientUnits="userSpaceOnUse"
     x1="18.02523"
     x2="17.593777"
     xlink:href="#c"
     y1="39.75425"
     y2="9.648277" />
  <path
     d="m6.5439662 11.656278c-.7351528 0-1.3263212.592871-1.3263212 1.328021v25.543597c0 .735152.5911684 1.328023 1.3263212 1.328023h17.2064738 1.205593 17.206474c.735152 0 1.326322-.592871 1.326322-1.328023v-25.543597c0-.73515-.59117-1.328021-1.326322-1.328021h-17.206474-1.205593z"
     fill="url(#d)"
     id="path27" />
  <path
     d="m18.474468 8.0205511c-.102628-.00269-.226588.00157-.387735.00157h-12.1689132c-.3815126 0-.6891325.3097891-.6891325.6938416v4.2289813c-.0005648.016-.00471.03095-.00471.04709v25.576381c0 .736091.5935103 1.329602 1.3296009 1.329602h35.6983098c.736093 0 1.328033-.593511 1.328033-1.329602v-25.576378c0-.736092-.59194-1.329602-1.328033-1.329602h-21.316008c-.01268-.0169-.02114-.02595-.03454-.04395-.491861-.662668-1.234682-2.4492081-1.718902-3.0956048-.2915-.4244578-.400085-.4942592-.707971-.5023288z"
     fill="url(#b)"
     id="path29" />
  <path
     d="m7.499159 9.4566879h9.738435c.277 0 .5.223.5.5v1.1090001c0 .277-.223.5-.5.5h-9.738435c-.2770001 0-.5-.223-.5-.5v-1.1090001c0-.277.2229999-.5.5-.5z"
     fill="url(#g)"
     id="path31" />
  <path
     d="m5.5804566 12.850769c-.6383882 0-1.1951591.543892-1.1517441 1.21482l1.5120334 23.366264c.043421.670931.5133569 1.214822 1.1517441 1.214822h14.94167 4.377195 14.941671c.638388 0 1.108331-.543891 1.151746-1.214822l1.512033-23.366264c.0434-.670928-.513358-1.21482-1.151744-1.21482h-16.453706-4.377195z"
     fill="url(#e)"
     id="path33" />
  <path
     d="m28.241425 148.07206c-12.87594 0-23.24141 9.6069-23.24141 21.54052l16 244.76159v7.4003c0 6.06398 5.26673 10.94526 11.80953 10.94526h446.379045c6.54281 0 11.81139-4.88128 11.81139-10.94526l15.998-252.16189c0-11.93362-10.36547-21.54052-23.24141-21.54052h-455.515295z"
     fill-rule="evenodd"
     filter="url(#a)"
     opacity=".3"
     transform="matrix(.07561882 0 0 .07969348 4.839513 2.856494)"
     id="path35" />
  <path
     d="m5.1236901 14.591215c-.6545516 0-1.2143558.541818-1.1809047 1.211627l1.1469427 22.96587c.033451.669811.526354 1.211629 1.1809047 1.211629h15.6555402 4.488019l16.039057-.04794c.654549-.002 1.154618-.541498 1.180906-1.211629l.89902-22.917931c.02629-.670129-.526354-1.211627-1.180904-1.211627h-16.870282-4.488019z"
     fill="url(#f)"
     id="path37" />
  <path
     inkscape:connector-curvature="0"
     style="display:inline;overflow:visible;visibility:visible;fill:#ffffff;fill-opacity:1;fill-rule:nonzero;stroke:none;stroke-width:0.62609082;marker:none;enable-background:accumulate"
     id="path2317"
     d="m 21.929775,16.503784 v 3.749843 h -1.992104 l 3.867024,4.374816 3.867026,-4.374816 h -1.992104 v -3.749843 z m 1.38666,8.749633 c -0.108052,0 -0.175773,0.184318 -0.175773,0.410139 v 1.425721 c -0.435014,0.09906 -0.844681,0.276469 -1.210887,0.507791 l -1.015582,-1.015582 c -0.159679,-0.159679 -0.333735,-0.232649 -0.410139,-0.156244 l -0.956991,0.956991 c -0.0764,0.0764 -0.0034,0.25046 0.156243,0.410139 l 1.015581,1.015582 c -0.231321,0.366206 -0.408733,0.775874 -0.507791,1.210887 h -1.425721 c -0.225819,0 -0.410139,0.06772 -0.410139,0.175774 v 1.36713 c 0,0.108053 0.184319,0.175774 0.410139,0.175774 h 1.425721 c 0.09906,0.435013 0.27647,0.844681 0.507791,1.210886 l -1.015581,1.015583 c -0.159679,0.159679 -0.232649,0.333734 -0.156243,0.410139 l 0.956991,0.956991 c 0.0764,0.0764 0.25046,0.0034 0.410139,-0.156244 l 1.015581,-1.015582 c 0.366206,0.231322 0.775874,0.408734 1.210887,0.507792 v 1.425721 c 0,0.225819 0.06772,0.410139 0.175773,0.410139 h 1.367131 c 0.108054,0 0.175774,-0.18432 0.175774,-0.410139 v -1.425721 c 0.435014,-0.09906 0.84468,-0.27647 1.210887,-0.507792 l 1.015582,1.015582 c 0.159679,0.159679 0.333734,0.23265 0.410139,0.156244 l 0.95699,-0.956991 c 0.0764,-0.0764 0.0034,-0.25046 -0.156243,-0.410139 l -1.015582,-1.015583 c 0.231321,-0.366205 0.408735,-0.775873 0.507791,-1.210886 h 1.425721 c 0.225822,0 0.410139,-0.06772 0.410139,-0.175774 v -1.36713 c 0,-0.108054 -0.184317,-0.175774 -0.410139,-0.175774 h -1.425721 c -0.09906,-0.435013 -0.27647,-0.844681 -0.507791,-1.210887 l 1.015582,-1.015582 c 0.15968,-0.159679 0.232649,-0.333734 0.156243,-0.410139 l -0.95699,-0.956991 c -0.0764,-0.0764 -0.25046,-0.0034 -0.410139,0.156244 l -1.015582,1.015582 C 25.70402,27.365746 25.294353,27.188333 24.85934,27.089277 v -1.425721 c 0,-0.225821 -0.06772,-0.410139 -0.175774,-0.410139 z m 0.683566,3.886555 c 0.955344,0 1.738208,0.782864 1.738208,1.738208 0,0.955345 -0.782864,1.738208 -1.738208,1.738208 -0.955344,0 -1.738208,-0.782863 -1.738208,-1.738208 0,-0.955344 0.782864,-1.738208 1.738208,-1.738208 z" />
</svg>
