<svg height="48" width="48" xmlns="http://www.w3.org/2000/svg" xmlns:xlink="http://www.w3.org/1999/xlink">
  <linearGradient id="a">
    <stop offset="0" stop-color="#999" />
    <stop offset="1" stop-color="#1a1a1a" />
  </linearGradient>
  <linearGradient id="b" gradientUnits="userSpaceOnUse" x1="7.622372" x2="40.394974" y1="22.328428" y2="21.986858">
    <stop offset="0" stop-color="#b3b3b3" />
    <stop offset=".18864594" stop-color="#ccc" />
    <stop offset=".53542525" stop-color="#ccc" />
    <stop offset="1" stop-color="#ccc" />
  </linearGradient>
  <linearGradient id="c" gradientTransform="matrix(1 0 0 1.033115 .077296 -.469662)" gradientUnits="userSpaceOnUse" x1="13.677746" x2="34.828678" xlink:href="#a" y1="4.542438" y2="42.423794" />
  <linearGradient id="d" gradientTransform="matrix(1 0 0 1.033115 .077296 -.469662)" gradientUnits="userSpaceOnUse" x1="10.298015" x2="28.069216" xlink:href="#a" y1="6.143335" y2="37.690704" />
  <linearGradient id="e" gradientUnits="userSpaceOnUse" x1="37.720107" x2="26.355176" y1="11.68183" y2="4.504845">
    <stop offset="0" stop-color="#1ba39c" />
    <stop offset="1" stop-color="#37c8ab" />
  </linearGradient>
  <linearGradient id="f" gradientUnits="userSpaceOnUse" x1="15.640711" x2="27.433814" y1="13.709218" y2=".118386">
    <stop offset="0" stop-color="#f2f2f2" />
    <stop offset="1" stop-color="#fff" />
  </linearGradient>
  <linearGradient id="g" gradientUnits="userSpaceOnUse" x1="11.182343" x2="17.078895" y1="12.414853" y2="4.217208">
    <stop offset="0" stop-color="#f9de69" />
    <stop offset="1" stop-color="#fea" />
  </linearGradient>
  <path d="m22.19695 47.053704c-4.696816-.330753-8.520655-1.648349-10.172837-3.505309-.588277-.661189-.747498-1.015288-.921832-2.050096-.481123-2.855833-5.2084729-28.982514-5.33209-29.468917-.8463992-3.330292 2.6071721-6.3466277 9.15861-7.9990799 1.500367-.3784406 3.780146-.7531995 5.589238-.9187918 1.624287-.1486802 5.394273-.1486802 7.018558 0 7.925551.7254538 13.858447 3.5317503 14.752444 6.9779817.172624.665456.157911 1.174092-.06059 2.094274-.236343.995366-5.333788 29.37663-5.333788 29.697163 0 .1301-.12911.501964-.28691.826352-.800803 1.646172-3.485897 3.104999-7.112221 3.864113-2.01838.422514-5.180441.631469-7.29862.48231z" fill-opacity=".313726" stroke-width=".988942" />
  <path d="m22.126086 45.95212c-4.813536-.329991-8.732402-1.644548-10.425642-3.497226-.602898-.659665-.766076-1.012947-.944741-2.045369-.493081-2.849248-5.3379105-28.915683-5.4645996-29.400964-.8674331-3.3226127 2.6719635-6.331993 9.3862116-7.9806348 1.537654-.3775679 3.874088-.7514627 5.728138-.9166731 1.664652-.1483374 5.528327-.1483374 7.192977 0 8.122512.7237809 14.202845 3.5236063 15.119059 6.9618909.176915.6639218.161836 1.171385-.06209 2.089445-.242218.993071-5.466341 29.30889-5.466341 29.628684 0 .1298-.132318.500806-.294039.824446-.820704 1.642376-3.572525 3.097839-7.288967 3.855203-2.06854.42154-5.309181.630013-7.48.481198z" fill="url(#b)" />
  <path d="m23.989441 3.0784752c3.475443-.00186 6.99436.4414194 10.089767 1.3740443 2.851257.859068 5.005939 2.0304604 6.196026 3.3671404.804629.9037349.955951 1.4763611.606176 2.2921641-.821612 1.91682-4.481321 3.868694-9.084739 4.845755-1.852934.393287-3.615579.616178-5.801123.73408-1.913034.103198-2.155427.104764-4.219537-.0042h.100701c-6.023493-.312675-11.495991-2.050205-13.8591147-4.36681-.5997013-.588816-1.0777761-1.429344-1.0761101-1.890618.0028308-.7806621.9103889-1.9471387 2.181838-2.8066466 3.4008728-2.2990142 9.0737138-3.5418114 14.8661158-3.5449092z" fill="url(#c)" stroke-width="1.10883" />
  <path d="m23.989441 3.0784752c3.475443-.00186 6.99436.4414194 10.089767 1.3740443 2.851257.859068 5.005939 2.0304604 6.196026 3.3671404.804629.9037349.955951 1.4763611.606176 2.2921641-.821612 1.91682-4.481321 3.868694-9.084739 4.845755-1.852934.393287-3.615579.616178-5.801123.73408-1.913034.103198-2.155427.104764-4.219537-.0042h.100701c-6.023493-.312675-11.495991-2.050205-13.8591147-4.36681-.5997013-.588816-1.0777761-1.429344-1.0761101-1.890618.0028308-.7806621.9103889-1.9471387 2.181838-2.8066466 3.4008728-2.2990142 9.0737138-3.5418114 14.8661158-3.5449092z" fill="url(#d)" stroke-width="1.10883" />
  <path d="m12.575642 12.828069c-2.206307-.916244-2.397058-.857168-2.425224-1.885576-.01253-.457498.110211-.742985.101861-.836392-.01943-.2172821 4.759746-3.6080601 5.100719-3.6189101.140742-.0045.438985.06147.662763.146548l.406867.154692-.395311.490779c-1.611465 2.000625-2.524905 3.2911491-2.524905 3.5672221 0 .178159.240098.850787.533552 1.494729s.515053 1.189303.492441 1.211914c-.02261.02261-.73981-.221287-1.952763-.725006z" fill="url(#g)" />
  <path d="m35.448401 12.286806c0-.303687-.309605-.774306-1.124021-1.708599-1.263065-1.4489691-1.2821-1.3667301.368969-1.5938101.722286-.09934.815191-.07485 1.237596.326285.820937.7795841 1.985212 2.2556291 1.789163 2.3711481-.177613.142496-2.362714 1.18018-2.57539 1.18018-.08605 0 .303683-.344681.303683-.575204z" fill="url(#e)" />
  <path d="m19.770153 14.426598c-1.715981-.19743-4.787034-.767344-5.232685-.865743-.41374-.09136-.517001-.425169-.926828-1.4431-.271773-.675037-.494136-1.29087-.494136-1.368518 0-.139001 2.557375-3.3803001 4.22214-5.3791301.468077-.562005.961226-1.023299 1.095888-1.025099.348191-.0046 6.4904.737963 6.922955.837011.240436.05506.461871.309647.668937.769098.170239.37774.406822.723445.525738.768235.118917.04479 1.078406-.09596 2.132197-.312777 1.05379-.216816 2.055159-.394212 2.225262-.394212.38539 0 4.798344 5.6774871 4.798344 6.0743021 0 .322415-.02395.616265-.440332.754011-.394703.130573-1.054201.389001-1.958076.607923-3.207277.776815-4.78669 1.068444-9.078909 1.116734-2.170172.02441-4.162629-.104465-4.460495-.138735z" fill="url(#f)" />
</svg>
