<svg xmlns="http://www.w3.org/2000/svg" width="48" height="48" version="1.1">
	<path d="M 22.126086,45.95212 C 17.31255,45.622129 13.393684,44.307572 11.7,42.454894 11.097546,41.795229 10.934368,41.441947 10.755703,40.409525 10.262622,37.560277 5.4177925,11.493842 5.2911034,11.01 4.4236703,7.6859483 7.9630669,4.676568 14.677315,3.0279262 c 1.537654,-0.3775679 3.874088,-0.7514627 5.728138,-0.9166731 1.664652,-0.1483374 5.528327,-0.1483374 7.192977,0 8.122512,0.7237809 14.202845,3.5236063 15.119059,6.9618909 0.176915,0.6639218 0.161836,1.171385 -0.06209,2.089445 -0.242218,0.993071 -5.466341,29.30889 -5.466341,29.628684 0,0.1298 -0.132318,0.5 -0.294039,0.824446 -0.820704,1.642376 -3.572525,3.097839 -7.288967,3.855203 -2.06854,0.42154 -5.309181,0.63 -7.48,0.481198 z" fill="#ECECEC" />
	<path d="M 21.9,15.677784 C 15.941757,15.385767 10.52873,13.763449 8.1912048,11.6 7.598,11.050112 7.125125,10.26673 7.1267721,9.835951 7.1295556,9.1069 8.0260539,8.0174692 9.2837292,7.2147847 14.666183,3.7795514 25.804501,2.8647627 33.969504,5.1873411 c 2.82037,0.8022731 4.951416,1.8954054 6.128612,3.1437142 0.795912,0.843987 0.945987,1.3795244 0.6,2.1413937 -0.812711,1.79 -4.431692,3.612697 -8.985243,4.525162 -1.832862,0.367285 -3.577787,0.575816 -5.739657,0.685921 -1.892311,0.09637 -2.13205,0.09605 -4.1738,-0.0057 z" fill="#CCC" />
	<path d="m 143.64853,147.39848 c -24.08669,-7.65668 -24.51536,-8.76649 -24.80342,-19.2843 -0.12814,-4.67895 -0.30289,-9.2888 -0.38832,-10.2441 -0.19872,-2.22219 48.67922,-36.9 52.16644,-37.011564 1.43941,-0.04584 4.48962,0.628657 6.77826,1.498787 l 4.16114,1.582073 -4.04296,5.019333 c -16.48089,20.460941 -25.82289,33.659461 -25.82289,36.482941 0,1.82208 2.45555,8.70123 5.45678,15.287 3,6.58577 5.26759,12.16332 5.03633,12.39457 -0.23124,0.23125 -8.87622,-2.65239 -18.54136,-5.72474 z" fill="#F9DE69" />
    <path d="m 376.14438,140.17274 c 0,-3.10589 -3.16641,-7.91904 -11.49567,-17.4743 -12.91771,-14.819 -13.11238,-13.97791 3.77355,-16.3 7.38702,-1.01597 8.33718,-0.76547 12.65723,3.33701 8.39595,7.973 21.22259,23.80435 19.21755,24.98579 -1.8165,1.45735 -25.08341,11.33459 -27.25851,11.33459 -0.88,0 3.10585,-3.52515 3.10585,-5.88277 z" fill="#1BA39C" />
    <path d="m 215.79867,162.057 c -17.54981,-2.01918 -48.9583,-7.84785 -53.5161,-8.8542 -4.23143,-0.93431 -5.28751,-4.34832 -9.47892,-14.75898 -2.7795,-6.90379 -5.05366,-13.20208 -5.05366,-14 0,-1.42161 20.95466,-28.33087 37.98066,-48.773453 4.78715,-5.747771 9.83072,-10.465557 11.20795,-10.483963 3.56104,-0.04759 66.37909,7.547344 70.80294,8.560341 2.45901,0.563077 4.72368,3.166846 6.8414,7.865778 1.74108,3.863243 4.16068,7.398865 5.37687,7.856942 1.2162,0.45807 11.02915,-0.981411 21.80656,-3.198851 10.7774,-2.217441 21.01867,-4.031713 22.75836,-4.031713 3.94149,0 54.27428,51.824819 54.27428,55.883159 0,3.29742 -0.24493,6.30271 -4.50339,7.71147 -4.03674,1.33541 -10.7816,3.97842 -20.02578,6.2174 -32.80169,7.94469 -48.95478,10.92727 -92.85247,11.42115 -22.19494,0.2497 -42.57234,-1.06839 -45.6187,-1.41888 z" fill="#FFF" />
</svg>
