<svg xmlns="http://www.w3.org/2000/svg" width="48" height="48" version="1.1">
	<path fill="#ECECEC" d="M 22.126086,45.95212 C 17.31255,45.622129 13.393684,44.307572 11.700444,42.454894 11.097546,41.795229 10.934368,41.441947 10.755703,40.409525 10.262622,37.560277 5.4177925,11.493842 5.2911034,11.008561 4.4236703,7.6859483 7.9630669,4.676568 14.677315,3.0279262 c 1.537654,-0.3775679 3.874088,-0.7514627 5.728138,-0.9166731 1.664652,-0.1483374 5.528327,-0.1483374 7.192977,0 8.122512,0.7237809 14.202845,3.5236063 15.119059,6.9618909 0.176915,0.6639218 0.161836,1.171385 -0.06209,2.089445 -0.242218,0.993071 -5.466341,29.30889 -5.466341,29.628684 0,0.1298 -0.132318,0.500806 -0.294039,0.824446 -0.820704,1.642376 -3.572525,3.097839 -7.288967,3.855203 -2.06854,0.42154 -5.309181,0.630013 -7.48,0.481198 z" />
	<path fill="#CCC" d="M 21.9,15.677784 C 15.941757,15.385767 10.52873,13.763449 8.1912048,11.6 7.598,11.050112 7.125125,10.26673 7.1267721,9.835951 7.1295556,9.1069 8.0260539,8.0174692 9.2837292,7.2147847 14.666183,3.7795514 25.804501,2.8647627 33.969504,5.1873411 c 2.82037,0.8022731 4.951416,1.8954054 6.128612,3.1437142 0.795912,0.843987 0.945987,1.3795244 0.6,2.1413937 -0.812711,1.790093 -4.431692,3.612697 -8.985243,4.525162 -1.832862,0.367285 -3.577787,0.575816 -5.739657,0.685921 -1.892311,0.09637 -2.13205,0.09605 -4.1738,-0.0057 z" />
</svg>
