<?xml version="1.0" encoding="UTF-8" standalone="no"?>
<!-- Created with Inkscape (http://www.inkscape.org/) -->

<svg
   xmlns:dc="http://purl.org/dc/elements/1.1/"
   xmlns:cc="http://creativecommons.org/ns#"
   xmlns:rdf="http://www.w3.org/1999/02/22-rdf-syntax-ns#"
   xmlns:svg="http://www.w3.org/2000/svg"
   xmlns="http://www.w3.org/2000/svg"
   xmlns:sodipodi="http://sodipodi.sourceforge.net/DTD/sodipodi-0.dtd"
   xmlns:inkscape="http://www.inkscape.org/namespaces/inkscape"
   id="svg2"
   version="1.1"
   inkscape:version="0.91+devel r14055 custom"
   width="512"
   height="512"
   sodipodi:docname="user-home.svg"
   viewBox="0 0 512 512">
  <metadata
     id="metadata8">
    <rdf:RDF>
      <cc:Work
         rdf:about="">
        <dc:format>image/svg+xml</dc:format>
        <dc:type
           rdf:resource="http://purl.org/dc/dcmitype/StillImage" />
        <dc:title />
      </cc:Work>
    </rdf:RDF>
  </metadata>
  <defs
     id="defs6">
    <filter
       inkscape:collect="always"
       style="color-interpolation-filters:sRGB"
       id="filter4166"
       x="-0.028206533"
       width="1.0564131"
       y="-0.049744379"
       height="1.0994889">
      <feGaussianBlur
         inkscape:collect="always"
         stdDeviation="5.8998423"
         id="feGaussianBlur4168" />
    </filter>
  </defs>
  <sodipodi:namedview
     pagecolor="#ffffff"
     bordercolor="#666666"
     borderopacity="1"
     objecttolerance="10"
     gridtolerance="10"
     guidetolerance="10"
     inkscape:pageopacity="0"
     inkscape:pageshadow="2"
     inkscape:window-width="1920"
     inkscape:window-height="1008"
     id="namedview4"
     showgrid="false"
     showguides="true"
     inkscape:guide-bbox="true"
     inkscape:zoom="0.92007797"
     inkscape:cx="154.60444"
     inkscape:cy="338.5166"
     inkscape:window-x="0"
     inkscape:window-y="32"
     inkscape:window-maximized="1"
     inkscape:current-layer="svg2"
     inkscape:document-units="px" />
  <path
     style="fill:#2980b9;fill-opacity:1;fill-rule:evenodd;stroke:#000000;stroke-width:0;stroke-linecap:butt;stroke-linejoin:miter;stroke-miterlimit:4;stroke-dasharray:none;stroke-opacity:1"
     d="m 55.066853,94.276718 c -7.824275,0 -14.123816,6.297842 -14.123816,14.122112 l 0,37.32867 0,120.13243 0,121.5455 0,7.30708 c 0,5.98757 4.819796,10.80737 10.807375,10.80737 l 408.499318,0 c 5.98757,0 10.80907,-4.8198 10.80907,-10.80737 l 0,-128.85257 -0.002,0 0,-120.13243 c 0,-11.78329 -9.48585,-21.26915 -21.26914,-21.26915 l -218.96832,0 c -5.81617,0 -8.11397,-0.68519 -11.8386,-4.18889 L 197.01302,98.500578 c -0.0748,-0.0762 -0.15164,-0.15024 -0.22814,-0.22473 l -0.0443,-0.0426 -0.002,0.002 c -2.53734,-2.44894 -5.98807,-3.95828 -9.80972,-3.95828 z"
     id="rect2982-2"
     inkscape:connector-curvature="0"
     sodipodi:nodetypes="sscccssssccssccccccss" />
  <path
     style="opacity:0.3;fill:#000000;fill-opacity:1;fill-rule:evenodd;stroke:#000000;stroke-width:0;stroke-linecap:butt;stroke-linejoin:miter;stroke-miterlimit:4;stroke-dasharray:none;stroke-opacity:1;filter:url(#filter4166)"
     d="m 28.241425,148.07206 c -12.87594,0 -23.24141,9.6069 -23.24141,21.54052 l 16,244.76159 0,7.4003 c 0,6.06398 5.26673,10.94526 11.80953,10.94526 l 446.379045,0 c 6.54281,0 11.81139,-4.88128 11.81139,-10.94526 l 15.998,-252.16189 c 0,-11.93362 -10.36547,-21.54052 -23.24141,-21.54052 l -455.515295,0 z"
     id="rect2982-5"
     inkscape:connector-curvature="0"
     sodipodi:nodetypes="cccsssccscc"
     transform="matrix(0.88626203,0,0,0.86265191,29.117811,27.075354)" />
  <path
     style="fill:#4aaee8;fill-opacity:1;fill-rule:evenodd;stroke:#000000;stroke-width:0;stroke-linecap:butt;stroke-linejoin:miter;stroke-miterlimit:4;stroke-dasharray:none;stroke-opacity:1"
     d="m 47.569942,157.23082 c -11.783285,0 -21.269144,8.79166 -21.269144,19.7126 l 14.642239,223.99111 0,6.77231 c 0,5.54939 4.819796,10.01644 10.807375,10.01644 l 408.499318,0 c 5.98757,0 10.80907,-4.46705 10.80907,-10.01644 l 14.64041,-230.76343 c 0,-10.92094 -9.48585,-19.71259 -21.26914,-19.71259 l -416.860264,0 z"
     id="rect2982"
     inkscape:connector-curvature="0"
     sodipodi:nodetypes="cccsssccscc" />
  <path
     inkscape:connector-curvature="0"
     style="fill:#ffffff;fill-opacity:1;stroke:#000000;stroke-width:0;stroke-linecap:butt;stroke-linejoin:round;stroke-miterlimit:4;stroke-dasharray:none;stroke-opacity:0.03181817"
     d="M 176.6592,279.15769 256,213.21509 l 31.73632,24.72848 0,-10.99044 15.86816,0 0,24.72848 31.73632,27.47608 -15.86816,0 0,65.94259 -39.6704,0 0,-54.95216 -31.73632,0 0,54.95216 -55.53856,0 0,-65.94259 z"
     id="path3009" />
</svg>
