<svg height="48" viewBox="0 0 48 48" width="48" xmlns="http://www.w3.org/2000/svg"><g transform="matrix(.95652181 0 0 .95652181 1.335759 1.043478)"><path d="m21.735341 46.94994c-5.032333-.34499-9.129329-1.7193-10.899534-3.65619-.630303-.68965-.800898-1.05899-.9876844-2.13834-.5154932-2.97876-5.5805421-30.23003-5.7129898-30.73737-.9068618-3.47364 2.7934162-6.61981 9.8128572-8.34339 1.607547-.39473 4.050182-.78562 5.988507-.95834 1.740318-.15508 5.779614-.15508 7.51993 0 8.491716.75668 14.848428 3.68377 15.806288 7.27834.184956.6941.169192 1.22463-.06491 2.18442-.253228 1.03821-5.714811 30.64111-5.714811 30.97544 0 .1357-.138332.52357-.307404.86192-.858009 1.71703-3.734913 3.23865-7.620283 4.03044-2.162565.4407-5.550507.65865-7.81997.50307z" fill="#ececec" stroke-width=".784688"/><path d="m21.431538 15.2995c-6.124014-.30529-11.7830878-2.00135-14.2268636-4.26386-.6201623-.57416-1.1145379-1.39315-1.1128159-1.84351.00291-.76219.9401582-1.90114 2.2550004-2.74031 5.6271101-3.59138 17.2717141-4.54775 25.8078531-2.1196 2.948569.83874 5.17648 1.98156 6.407185 3.28661.83209.88235.988986 1.44223.627371 2.23873-.849652 1.87146-4.633132 3.77691-9.393662 4.73085-1.916174.38398-3.740414.60199-6.00055.7171-1.978325.10075-2.228962.10041-4.363518-.006z" fill="#ccc" stroke-width=".784688"/></g></svg>