<?xml version="1.0" encoding="UTF-8" standalone="no"?>
<!-- Created with Inkscape (http://www.inkscape.org/) -->

<svg
   xmlns:dc="http://purl.org/dc/elements/1.1/"
   xmlns:cc="http://creativecommons.org/ns#"
   xmlns:rdf="http://www.w3.org/1999/02/22-rdf-syntax-ns#"
   xmlns:svg="http://www.w3.org/2000/svg"
   xmlns="http://www.w3.org/2000/svg"
   xmlns:sodipodi="http://sodipodi.sourceforge.net/DTD/sodipodi-0.dtd"
   xmlns:inkscape="http://www.inkscape.org/namespaces/inkscape"
   id="svg2"
   version="1.1"
   inkscape:version="0.91+devel r"
   width="512"
   height="512"
   viewBox="0 0 512 512"
   sodipodi:docname="user-trash.svg">
  <metadata
     id="metadata8">
    <rdf:RDF>
      <cc:Work
         rdf:about="">
        <dc:format>image/svg+xml</dc:format>
        <dc:type
           rdf:resource="http://purl.org/dc/dcmitype/StillImage" />
        <dc:title></dc:title>
      </cc:Work>
    </rdf:RDF>
  </metadata>
  <defs
     id="defs6" />
  <sodipodi:namedview
     pagecolor="#ffffff"
     bordercolor="#666666"
     borderopacity="1"
     objecttolerance="10"
     gridtolerance="10"
     guidetolerance="10"
     inkscape:pageopacity="0"
     inkscape:pageshadow="2"
     inkscape:window-width="1920"
     inkscape:window-height="1027"
     id="namedview4"
     showgrid="false"
     inkscape:zoom="0.5204747"
     inkscape:cx="8.7275537"
     inkscape:cy="315.44358"
     inkscape:window-x="0"
     inkscape:window-y="27"
     inkscape:window-maximized="1"
     inkscape:current-layer="svg2" />
  <path
     inkscape:connector-curvature="0"
     id="path3348"
     d="m 236.83498,480.5103 c -49.22934,-3.37491 -89.30865,-16.81931 -106.62587,-35.7671 -6.16601,-6.74658 -7.83487,-10.35967 -9.66213,-20.91849 -5.04287,-29.14008 -54.592259,-295.72862 -55.887949,-300.69166 -8.87147,-33.981368 27.3269,-64.759098 95.995349,-81.620218 15.726,-3.86142 39.62135,-7.685376 58.58322,-9.375036 17.02485,-1.51706 56.5397,-1.51706 73.56454,0 83.07117,7.402326 145.25639,36.036866 154.62669,71.201224 1.80936,6.79012 1.65516,11.98 -0.63493,21.36921 -2.47721,10.15641 -55.9057,299.75001 -55.9057,303.02065 0,1.32759 -1.35327,5.12192 -3.00727,8.43186 -8.39357,16.79703 -36.53718,31.68245 -74.54624,39.4282 -21.15552,4.31122 -54.29844,6.44337 -76.49971,4.92136 z"
     style="fill:#ececec;stroke-width:0.78468841" />
  <path
     inkscape:connector-curvature="0"
     id="path3340"
     d="M 233.863,170.88645 C 173.95417,167.8998 118.59366,151.30799 94.687161,129.17478 c -6.06681,-5.61678 -10.90309,-13.62866 -10.88624,-18.03433 0.0285,-7.45624 9.1972,-18.598158 22.059779,-26.807428 55.04782,-35.13307 168.96243,-44.48887 252.46814,-20.73521 28.84467,8.20503 50.63946,19.3848 62.67902,32.1516 8.14001,8.631688 9.67486,14.108748 6.13729,21.900668 -8.31182,18.30778 -45.32409,36.94796 -91.89452,46.28004 -18.74518,3.75629 -36.59101,5.88895 -58.70104,7.01503 -19.35318,0.98568 -21.80506,0.98231 -42.68659,-0.0586 z"
     style="fill:#cccccc;stroke-width:0.78468841" />
</svg>
