<svg height="24" viewBox="0 0 24 24" width="24" xmlns="http://www.w3.org/2000/svg"><path d="m12 19.2 3.114-5.4h-.009c.306-.54.495-1.143.495-1.8 0-1.08-.486-2.043-1.242-2.7h4.311c.342.837.531 1.746.531 2.7a7.2 7.2 0 0 1 -7.2 7.2m-7.2-7.2c0-1.314.351-2.538.963-3.6l3.123 5.4h.009c.621 1.071 1.755 1.8 3.105 1.8.405 0 .792-.081 1.161-.207l-2.16 3.726c-3.501-.486-6.201-3.483-6.201-7.119m9.9 0a2.7 2.7 0 0 1 -2.7 2.7 2.7 2.7 0 0 1 -2.7-2.7 2.7 2.7 0 0 1 2.7-2.7 2.7 2.7 0 0 1 2.7 2.7m-2.7-7.2c2.664 0 4.986 1.449 6.228 3.6h-6.228c-1.746 0-3.195 1.242-3.528 2.889l-2.142-3.717c1.314-1.683 3.366-2.772 5.67-2.772m0-1.8a9 9 0 0 0 -9 9 9 9 0 0 0 9 9 9 9 0 0 0 9-9 9 9 0 0 0 -9-9z" fill="#bebebe" stroke-width=".818182"/></svg>