<svg height="24" viewBox="0 0 24 24" width="24" xmlns="http://www.w3.org/2000/svg"><path d="m4.8 3c-.9941125 0-1.8.8058874-1.8 1.8v10.8c0 .994112.8058875 1.8 1.8 1.8h3.6v2.7c0 .497057.4029437.9.9.9h.45c.225 0 .45-.09.63-.261l3.33-3.339h5.49c.994112 0 1.8-.805888 1.8-1.8v-10.8c0-.999-.81-1.8-1.8-1.8zm0 1.8h14.4v10.8h-6.228l-2.772 2.772v-2.772h-5.4z" fill="#bebebe" stroke-width=".818182"/><path d="m14.202446 9.785168-.59595.609194c-.471494.481971-.51538.894052-.774736 1.873935-.06272.236972-1.229713.219583-1.324336 0-.02509-.813442.291616-1.707594.774737-2.205018l.821087-.83433c.245003-.238381.390679-.569465.390679-.933657 0-.7350055-.595951-1.3243345-1.324334-1.3243345-.731411 0-1.324336.5929245-1.324336 1.3243345h-1.3243348c0-1.4628195 1.1858498-2.6486693 2.6486708-2.6486693 1.462819 0 2.648669 1.1858498 2.648669 2.6486693 0 .582708-.23838 1.105819-.615816 1.489876m-2.529479 3.807463c.233683-.234542.758709-.233684.993251 0 .2354.234539.23497.75828 0 .993251-.234112.234112-.759141.234112-.993251 0-.234111-.234112-.233683-.758711 0-.993251z" fill="#bebebe" stroke-width=".818182"/></svg>