<svg height="24" viewBox="0 0 24 24" width="24" xmlns="http://www.w3.org/2000/svg"><path d="m15.924 13.8c.072-.594.126-1.188.126-1.8s-.054-1.206-.126-1.8h3.042c.144.576.234 1.179.234 1.8s-.09 1.224-.234 1.8m-4.635 5.004c.54-.999.954-2.079 1.242-3.204h2.655c-.864 1.485-2.241 2.637-3.897 3.204m-.225-5.004h-4.212c-.09-.594-.144-1.188-.144-1.8s.054-1.215.144-1.8h4.212c.081.585.144 1.188.144 1.8s-.063 1.206-.144 1.8m-2.106 5.364c-.747-1.08-1.35-2.277-1.719-3.564h3.438c-.369 1.287-.972 2.484-1.719 3.564m-3.6-10.764h-2.628c.855-1.494 2.241-2.646 3.888-3.204-.54.999-.945 2.079-1.26 3.204m-2.628 7.2h2.628c.315 1.125.72 2.205 1.26 3.204-1.647-.567-3.033-1.719-3.888-3.204m-.738-1.8c-.144-.576-.234-1.179-.234-1.8s.09-1.224.234-1.8h3.042c-.072.594-.126 1.188-.126 1.8s.054 1.206.126 1.8m3.924-8.973c.747 1.08 1.35 2.286 1.719 3.573h-3.438c.369-1.287.972-2.493 1.719-3.573m6.228 3.573h-2.655c-.288-1.125-.702-2.205-1.242-3.204 1.656.567 3.033 1.71 3.897 3.204m-6.228-5.4c-4.977 0-9 4.05-9 9a9 9 0 0 0 9 9 9 9 0 0 0 9-9 9 9 0 0 0 -9-9z" fill="#b3b3b3" stroke-width=".9"/></svg>