<?xml version="1.0" encoding="UTF-8" standalone="no"?>
<svg
   xmlns:osb="http://www.openswatchbook.org/uri/2009/osb"
   xmlns:dc="http://purl.org/dc/elements/1.1/"
   xmlns:cc="http://creativecommons.org/ns#"
   xmlns:rdf="http://www.w3.org/1999/02/22-rdf-syntax-ns#"
   xmlns:svg="http://www.w3.org/2000/svg"
   xmlns="http://www.w3.org/2000/svg"
   xmlns:sodipodi="http://sodipodi.sourceforge.net/DTD/sodipodi-0.dtd"
   xmlns:inkscape="http://www.inkscape.org/namespaces/inkscape"
   version="1.1"
   width="16"
   height="16"
   viewBox="0 0 16 16"
   id="svg2"
   inkscape:version="0.91 r13725"
   sodipodi:docname="alarm-symbolic.svg">
  <metadata
     id="metadata10">
    <rdf:RDF>
      <cc:Work
         rdf:about="">
        <dc:format>image/svg+xml</dc:format>
        <dc:type
           rdf:resource="http://purl.org/dc/dcmitype/StillImage" />
        <dc:title></dc:title>
      </cc:Work>
    </rdf:RDF>
  </metadata>
  <defs
     id="defs8">
    <linearGradient
       osb:paint="solid"
       id="linearGradient5606">
      <stop
         id="stop5608" />
    </linearGradient>
  </defs>
  <sodipodi:namedview
     pagecolor="#ffffff"
     bordercolor="#666666"
     borderopacity="1"
     objecttolerance="10"
     gridtolerance="10"
     guidetolerance="10"
     inkscape:pageopacity="0"
     inkscape:pageshadow="2"
     inkscape:window-width="640"
     inkscape:window-height="480"
     id="namedview6"
     showgrid="false"
     inkscape:zoom="8.9419545"
     inkscape:cx="-29.722378"
     inkscape:cy="22.507084"
     inkscape:current-layer="svg2" />
  <g
     id="g4183"
     transform="matrix(0.59444819,0,0,0.59112155,0.82586218,0.99532595)">
    <path
       sodipodi:nodetypes="csssccsssc"
       inkscape:connector-curvature="0"
       style="fill:#bebebe;fill-opacity:1"
       id="path4"
       d="M 12,20 C 8.1340068,20 5,16.865993 5,13 5,9.1340068 8.1340068,6 12,6 c 3.865993,0 7,3.1340068 7,7 0,3.865993 -3.134007,7 -7,7 M 12,4 c -4.9705627,0 -9,4.0294373 -9,9 0,4.970563 4.0294373,9 9,9 4.970563,0 9,-4.029437 9,-9 0,-4.9705627 -4.029437,-9 -9,-9" />
    <path
       d="M 15.855016,14.987549 13.143353,13.3131 c -0.05617,-0.317043 -0.227808,-0.590518 -0.468739,-0.784211 L 12.798493,9.126452 C 12.813706,8.691831 12.474625,8.3270205 12.040529,8.3107483 11.607481,8.290726 11.241097,8.63409 11.224825,9.068713 l -0.124401,3.406111 c -0.336463,0.237258 -0.557973,0.627789 -0.557973,1.071334 0,0.724893 0.587369,1.311739 1.312265,1.311739 0.206287,0 0.398926,-0.05196 0.572145,-0.136473 l 2.600908,1.60726 c 0.129125,0.07873 0.272427,0.117052 0.413101,0.117052 0.264027,0 0.521232,-0.132269 0.670829,-0.373208 0.228859,-0.371108 0.113387,-0.856121 -0.256679,-1.084979 z"
       id="path13"
       inkscape:connector-curvature="0"
       style="fill:#bebebe;fill-opacity:1" />
    <rect
       transform="matrix(0.76860246,-0.6397267,0.6397267,0.76860246,0,0)"
       ry="0.5771175"
       rx="0.84522718"
       y="5.1957631"
       x="-2.1072838"
       height="2.5493467"
       width="6.0022588"
       id="rect4179"
       style="opacity:1;fill:#bebebe;fill-opacity:1;stroke:none;stroke-width:2;stroke-miterlimit:4;stroke-dasharray:none;stroke-opacity:1" />
    <rect
       style="opacity:1;fill:#bebebe;fill-opacity:1;stroke:none;stroke-width:2;stroke-miterlimit:4;stroke-dasharray:none;stroke-opacity:1"
       id="rect4181"
       width="6.0022588"
       height="2.5493467"
       x="14.847383"
       y="-9.7046986"
       rx="0.84522718"
       ry="0.5771175"
       transform="matrix(0.79069112,0.61221528,-0.61221528,0.79069112,0,0)" />
  </g>
</svg>
