<?xml version="1.0" encoding="UTF-8" standalone="no"?>
<svg
   xmlns:dc="http://purl.org/dc/elements/1.1/"
   xmlns:cc="http://creativecommons.org/ns#"
   xmlns:rdf="http://www.w3.org/1999/02/22-rdf-syntax-ns#"
   xmlns:svg="http://www.w3.org/2000/svg"
   xmlns="http://www.w3.org/2000/svg"
   xmlns:sodipodi="http://sodipodi.sourceforge.net/DTD/sodipodi-0.dtd"
   xmlns:inkscape="http://www.inkscape.org/namespaces/inkscape"
   viewBox="0 0 16 16"
   enable-background="new 0 0 64 64"
   version="1.1"
   id="svg22"
   sodipodi:docname="face-monkey-symbolic.svg"
   width="16"
   height="16"
   inkscape:version="0.92+devel unknown">
  <metadata
     id="metadata28">
    <rdf:RDF>
      <cc:Work
         rdf:about="">
        <dc:format>image/svg+xml</dc:format>
        <dc:type
           rdf:resource="http://purl.org/dc/dcmitype/StillImage" />
        <dc:title></dc:title>
      </cc:Work>
    </rdf:RDF>
  </metadata>
  <defs
     id="defs26" />
  <sodipodi:namedview
     pagecolor="#ffffff"
     bordercolor="#666666"
     inkscape:document-rotation="0"
     borderopacity="1"
     objecttolerance="10"
     gridtolerance="10"
     guidetolerance="10"
     inkscape:pageopacity="0"
     inkscape:pageshadow="2"
     inkscape:window-width="640"
     inkscape:window-height="480"
     id="namedview24"
     showgrid="false"
     inkscape:zoom="6.0180628"
     inkscape:cx="1.342294"
     inkscape:cy="32"
     inkscape:current-layer="svg22" />
  <path
     id="path20"
     style="fill:#bebebe;fill-opacity:1;stroke-width:0.23333333"
     d="m 7.9995333,11.135659 c -1.0941,0 -2.2071,-0.296566 -2.2971666,-0.2198 -0.3325,0.283267 0.6869333,1.6191 2.2971666,1.627967 1.6099997,-0.0082 2.6301337,-1.344467 2.2969337,-1.627967 -0.09007,-0.07653 -1.2026,0.220034 -2.2969337,0.2198 M 6.7908669,7.9406261 a 0.81666667,1.05 0 0 1 -0.8166667,1.05 0.81666667,1.05 0 0 1 -0.8166666,-1.05 0.81666667,1.05 0 0 1 0.8166666,-1.05 0.81666667,1.05 0 0 1 0.8166667,1.05 m 4.0515991,0 a 0.81666667,1.05 0 0 1 -0.816666,1.05 0.81666667,1.05 0 0 1 -0.816667,-1.05 0.81666667,1.05 0 0 1 0.816667,-1.05 0.81666667,1.05 0 0 1 0.816666,1.05 M 7.4990333,10.053926 c 0.1290334,0 0.2333334,-0.2144333 0.2333334,-0.4799666 0,-0.2643667 -0.1043,-0.4804333 -0.2333334,-0.4804333 -0.1292666,0 -0.2333333,0.2160666 -0.2333333,0.4804333 0,0.2655333 0.1040667,0.4799666 0.2333333,0.4799666 m 1.0014667,0 c 0.1290333,0 0.2333333,-0.2144333 0.2333333,-0.4799666 0,-0.2643667 -0.1043,-0.4804333 -0.2333333,-0.4804333 -0.1292667,0 -0.2333333,0.2160666 -0.2333333,0.4804333 0,0.2655333 0.1040666,0.4799666 0.2333333,0.4799666 m 4.886467,-3.7216666 c -0.227967,-1.5733667 -1.165034,-2.6614 -2.732567,-3.283 0.267167,-0.1411667 0.439833,-0.2118667 0.439833,-0.2118667 -0.755066,-0.266 -1.4105,-0.4209333 -1.977966,-0.4914 0.298433,-0.2247 0.4977,-0.3101 0.4977,-0.3101 C 5.0051667,1.3858261 2.7325,3.9492261 2.5897,6.3357594 1.6867,6.4941927 1,7.2788927 1,8.2259927 c 0,0.9373 0.6727,1.7159334 1.5624,1.8853333 0.1017333,2.196833 2.4966667,3.955233 5.4373667,3.955233 2.9411663,0 5.3361003,-1.7584 5.4378333,-3.955233 C 14.327067,9.9416927 15,9.1628261 15,8.2259927 15,7.2711927 14.301167,6.4811261 13.386967,6.3322594 m -10.7767337,3.0996 c -0.539,-0.14 -0.9387,-0.6241667 -0.9387,-1.2058667 0,-0.5637333 0.3763667,-1.0355333 0.8904,-1.1914 0.011433,0.5044667 0.1442,0.9867667 0.3766,1.4312667 -0.1598333,0.3059 -0.2685666,0.6297667 -0.3283,0.966 m 8.3176337,0.4169667 c 0.309866,0.3863999 0.4914,0.8376669 0.4914,1.3218329 0,1.419134 -1.531134,2.569 -3.4195003,2.569 -1.8883667,0 -3.4192667,-1.149866 -3.4192667,-2.569 0,-0.484166 0.1813,-0.935433 0.4916333,-1.3218329 C 4.0088333,9.2052927 3.3282,8.2201594 3.3282,7.1143927 c 0,-3.9512666 4.6715667,-1.4340666 4.6715667,-1.4340666 0,0 4.6718003,-2.5169667 4.6718003,1.4340666 0,1.1055334 -0.680634,2.0909 -1.7437,2.7344334 m 2.4619,-0.4169667 c -0.05973,-0.336 -0.168467,-0.6601 -0.328067,-0.9662333 0.2324,-0.4445 0.364933,-0.9268 0.376367,-1.4312667 0.514033,0.1561 0.890166,0.6276667 0.890166,1.1914 0,0.5819333 -0.399466,1.0661 -0.938466,1.2061"
     inkscape:connector-curvature="0" />
</svg>
