<?xml version="1.0" encoding="UTF-8" standalone="no"?>
<!-- Created with Inkscape (http://www.inkscape.org/) -->

<svg
   xmlns:dc="http://purl.org/dc/elements/1.1/"
   xmlns:cc="http://creativecommons.org/ns#"
   xmlns:rdf="http://www.w3.org/1999/02/22-rdf-syntax-ns#"
   xmlns:svg="http://www.w3.org/2000/svg"
   xmlns="http://www.w3.org/2000/svg"
   xmlns:sodipodi="http://sodipodi.sourceforge.net/DTD/sodipodi-0.dtd"
   xmlns:inkscape="http://www.inkscape.org/namespaces/inkscape"
   sodipodi:docname="my-caffeine-on-symbolic.svg"
   height="16"
   id="svg7384"
   inkscape:version="0.91 r13725"
   version="1.1"
   width="16">
  <metadata
     id="metadata90">
    <rdf:RDF>
      <cc:Work
         rdf:about="">
        <dc:format>image/svg+xml</dc:format>
        <dc:type
           rdf:resource="http://purl.org/dc/dcmitype/StillImage" />
        <dc:title>Gnome Symbolic Icon Theme</dc:title>
      </cc:Work>
    </rdf:RDF>
  </metadata>
  <sodipodi:namedview
     inkscape:bbox-paths="false"
     bordercolor="#666666"
     borderopacity="1"
     inkscape:current-layer="layer11"
     inkscape:cx="3.6376775"
     inkscape:cy="10.458589"
     gridtolerance="10"
     inkscape:guide-bbox="true"
     guidetolerance="10"
     id="namedview88"
     inkscape:object-nodes="false"
     inkscape:object-paths="false"
     objecttolerance="10"
     pagecolor="#ffffff"
     inkscape:pageopacity="1"
     inkscape:pageshadow="2"
     showborder="true"
     showgrid="true"
     showguides="false"
     inkscape:snap-bbox="true"
     inkscape:snap-bbox-midpoints="false"
     inkscape:snap-global="true"
     inkscape:snap-grids="true"
     inkscape:snap-nodes="false"
     inkscape:snap-others="false"
     inkscape:snap-to-guides="true"
     inkscape:window-height="741"
     inkscape:window-maximized="1"
     inkscape:window-width="1366"
     inkscape:window-x="0"
     inkscape:window-y="-3"
     inkscape:zoom="22.627417">
    <sodipodi:guide
       orientation="0,1"
       position="3.4692426,9.4354561"
       id="guide4029" />
  </sodipodi:namedview>
  <title
     id="title9167">Gnome Symbolic Icon Theme</title>
  <defs
     id="defs7386">
    <style
       id="current-color-scheme"
       type="text/css">
      .ColorScheme-Text {
        color:#bebebe;
      }
      </style>
    <style
       type="text/css"
       id="current-color-scheme-3">
      .ColorScheme-Text {
        color:#bebebe
      }
      </style>
    <style
       type="text/css"
       id="current-color-scheme-35">
      .ColorScheme-Text {
        color:#bebebe
      }
      </style>
  </defs>
  <g
     inkscape:groupmode="layer"
     id="layer11"
     inkscape:label="Layer 1"
     style="display:inline"
     transform="translate(-283.00021,-629)">
    <path
       id="path3300"
       d="m 295.66688,637 -1.33334,0 0,-2 1.33334,0 z m 0,-3.33333 -10.66667,0 0,6.66666 c 0,1.47276 1.19391,2.66667 2.66667,2.66667 l 4,0 c 1.47274,0 2.66666,-1.19391 2.66666,-2.66667 l 0,-2 1.33334,0 c 0.73637,0 1.33333,-0.59696 1.33333,-1.33333 l 0,-2 c 0,-0.74 -0.6,-1.33333 -1.33333,-1.33333 z"
       inkscape:connector-curvature="0"
       style="fill:#bebebe;fill-opacity:1"
       sodipodi:nodetypes="cccccscsssscssss" />
    <g
       id="layer9"
       inkscape:label="status"
       style="display:inline"
       transform="translate(-12.55245,19.38616)" />
    <g
       id="layer10"
       inkscape:label="devices"
       transform="translate(-12.55245,19.38616)" />
    <g
       id="layer2"
       inkscape:label="off"
       style="display:none"
       transform="translate(270.44776,648.38616)">
      <path
         inkscape:connector-curvature="0"
         d="m 6.555174,3.6689621 c -1.97865,-0.004 -4.74917,0.59448 -4.36893,1.9299 0.27853,0.9782 2.7468,1.37112 4.2822,1.34057 2.39093,-0.0476 3.99564,-0.15186 4.49936,-1.16589 0.66845,-1.34563 -2.32411,-2.10075 -4.41263,-2.10458 z"
         id="path6309"
         style="color:#000000;font-style:normal;font-variant:normal;font-weight:normal;font-stretch:normal;font-size:medium;line-height:normal;font-family:Sans;-inkscape-font-specification:Sans;text-indent:0;text-align:start;text-decoration:none;text-decoration-line:none;letter-spacing:normal;word-spacing:normal;text-transform:none;direction:ltr;block-progression:tb;writing-mode:lr-tb;baseline-shift:baseline;text-anchor:start;display:inline;overflow:visible;visibility:visible;fill:#bebebe;fill-opacity:1;fill-rule:nonzero;stroke:none;stroke-width:1.70000005;marker:none;enable-background:accumulate"
         sodipodi:nodetypes="sssss" />
    </g>
    <g
       id="layer13"
       inkscape:label="places"
       transform="translate(-12.55245,19.38616)" />
    <g
       id="layer14"
       inkscape:label="mimetypes"
       transform="translate(-12.55245,19.38616)" />
    <g
       id="layer15"
       inkscape:label="emblems"
       style="display:inline"
       transform="translate(-12.55245,19.38616)" />
    <g
       id="g71291"
       inkscape:label="emotes"
       style="display:inline"
       transform="translate(-12.55245,19.38616)" />
    <g
       id="g4953"
       inkscape:label="categories"
       style="display:inline"
       transform="translate(-12.55245,19.38616)" />
    <g
       id="layer12"
       inkscape:label="actions"
       style="display:inline"
       transform="translate(-12.55245,19.38616)" />
    <path
       style="color:#000000;font-style:normal;font-variant:normal;font-weight:normal;font-stretch:normal;font-size:medium;line-height:normal;font-family:sans-serif;text-indent:0;text-align:start;text-decoration:none;text-decoration-line:none;text-decoration-style:solid;text-decoration-color:#000000;letter-spacing:normal;word-spacing:normal;text-transform:none;direction:ltr;block-progression:tb;writing-mode:lr-tb;baseline-shift:baseline;text-anchor:start;white-space:normal;clip-rule:nonzero;display:inline;overflow:visible;visibility:visible;opacity:1;isolation:auto;mix-blend-mode:normal;color-interpolation:sRGB;color-interpolation-filters:linearRGB;solid-color:#000000;solid-opacity:1;fill:#bebebe;fill-opacity:1;fill-rule:nonzero;stroke:none;stroke-width:1.29999995;stroke-linecap:butt;stroke-linejoin:miter;stroke-miterlimit:4;stroke-dasharray:none;stroke-dashoffset:0;stroke-opacity:1;color-rendering:auto;image-rendering:auto;shape-rendering:auto;text-rendering:auto;enable-background:accumulate"
       d="m 286.60282,630.482 c 0,0 -0.1458,0.10908 -0.2912,0.27273 -0.14524,0.16348 -0.31893,0.38933 -0.32139,0.69986 -0.002,0.30445 0.15695,0.51985 0.26266,0.6772 0.1057,0.15735 0.16404,0.25422 0.15944,0.38182 -0.009,0.24106 -0.36504,0.47832 -0.36504,0.47832 l 0.26769,0.49007 c 0,0 0.63208,-0.30182 0.65539,-0.94825 0.0114,-0.31566 -0.1435,-0.54965 -0.25343,-0.71329 -0.10993,-0.16364 -0.16942,-0.26 -0.16867,-0.36168 3.3e-4,-0.0661 0.0767,-0.21546 0.18126,-0.33314 0.10456,-0.11769 0.20811,-0.19637 0.20811,-0.19637 l -0.33482,-0.44727 z"
       id="path4114"
       inkscape:connector-curvature="0" />
    <path
       inkscape:connector-curvature="0"
       id="path3290"
       d="m 288.60282,630.482 c 0,0 -0.1458,0.10908 -0.2912,0.27273 -0.14524,0.16348 -0.31893,0.38933 -0.32139,0.69986 -0.002,0.30445 0.15695,0.51985 0.26266,0.6772 0.1057,0.15735 0.16404,0.25422 0.15944,0.38182 -0.009,0.24106 -0.36504,0.47832 -0.36504,0.47832 l 0.26769,0.49007 c 0,0 0.63208,-0.30182 0.65539,-0.94825 0.0114,-0.31566 -0.1435,-0.54965 -0.25343,-0.71329 -0.10993,-0.16364 -0.16942,-0.26 -0.16867,-0.36168 3.3e-4,-0.0661 0.0767,-0.21546 0.18126,-0.33314 0.10456,-0.11769 0.20811,-0.19637 0.20811,-0.19637 l -0.33482,-0.44727 z"
       style="color:#000000;font-style:normal;font-variant:normal;font-weight:normal;font-stretch:normal;font-size:medium;line-height:normal;font-family:sans-serif;text-indent:0;text-align:start;text-decoration:none;text-decoration-line:none;text-decoration-style:solid;text-decoration-color:#000000;letter-spacing:normal;word-spacing:normal;text-transform:none;direction:ltr;block-progression:tb;writing-mode:lr-tb;baseline-shift:baseline;text-anchor:start;white-space:normal;clip-rule:nonzero;display:inline;overflow:visible;visibility:visible;opacity:1;isolation:auto;mix-blend-mode:normal;color-interpolation:sRGB;color-interpolation-filters:linearRGB;solid-color:#000000;solid-opacity:1;fill:#bebebe;fill-opacity:1;fill-rule:nonzero;stroke:none;stroke-width:1.29999995;stroke-linecap:butt;stroke-linejoin:miter;stroke-miterlimit:4;stroke-dasharray:none;stroke-dashoffset:0;stroke-opacity:1;color-rendering:auto;image-rendering:auto;shape-rendering:auto;text-rendering:auto;enable-background:accumulate" />
    <path
       style="color:#000000;font-style:normal;font-variant:normal;font-weight:normal;font-stretch:normal;font-size:medium;line-height:normal;font-family:sans-serif;text-indent:0;text-align:start;text-decoration:none;text-decoration-line:none;text-decoration-style:solid;text-decoration-color:#000000;letter-spacing:normal;word-spacing:normal;text-transform:none;direction:ltr;block-progression:tb;writing-mode:lr-tb;baseline-shift:baseline;text-anchor:start;white-space:normal;clip-rule:nonzero;display:inline;overflow:visible;visibility:visible;opacity:1;isolation:auto;mix-blend-mode:normal;color-interpolation:sRGB;color-interpolation-filters:linearRGB;solid-color:#000000;solid-opacity:1;fill:#bebebe;fill-opacity:1;fill-rule:nonzero;stroke:none;stroke-width:1.29999995;stroke-linecap:butt;stroke-linejoin:miter;stroke-miterlimit:4;stroke-dasharray:none;stroke-dashoffset:0;stroke-opacity:1;color-rendering:auto;image-rendering:auto;shape-rendering:auto;text-rendering:auto;enable-background:accumulate"
       d="m 290.60282,630.482 c 0,0 -0.1458,0.10908 -0.2912,0.27273 -0.14524,0.16348 -0.31893,0.38933 -0.32139,0.69986 -0.002,0.30445 0.15695,0.51985 0.26266,0.6772 0.1057,0.15735 0.16404,0.25422 0.15944,0.38182 -0.009,0.24106 -0.36504,0.47832 -0.36504,0.47832 l 0.26769,0.49007 c 0,0 0.63208,-0.30182 0.65539,-0.94825 0.0114,-0.31566 -0.1435,-0.54965 -0.25343,-0.71329 -0.10993,-0.16364 -0.16942,-0.26 -0.16867,-0.36168 3.3e-4,-0.0661 0.0767,-0.21546 0.18126,-0.33314 0.10456,-0.11769 0.20811,-0.19637 0.20811,-0.19637 l -0.33482,-0.44727 z"
       id="path3292"
       inkscape:connector-curvature="0" />
    <path
       inkscape:connector-curvature="0"
       id="path3294"
       d="m 292.60282,630.482 c 0,0 -0.1458,0.10908 -0.2912,0.27273 -0.14524,0.16348 -0.31893,0.38933 -0.32139,0.69986 -0.002,0.30445 0.15695,0.51985 0.26266,0.6772 0.1057,0.15735 0.16404,0.25422 0.15944,0.38182 -0.009,0.24106 -0.36504,0.47832 -0.36504,0.47832 l 0.26769,0.49007 c 0,0 0.63208,-0.30182 0.65539,-0.94825 0.0114,-0.31566 -0.1435,-0.54965 -0.25343,-0.71329 -0.10993,-0.16364 -0.16942,-0.26 -0.16867,-0.36168 3.3e-4,-0.0661 0.0767,-0.21546 0.18126,-0.33314 0.10456,-0.11769 0.20811,-0.19637 0.20811,-0.19637 l -0.33482,-0.44727 z"
       style="color:#000000;font-style:normal;font-variant:normal;font-weight:normal;font-stretch:normal;font-size:medium;line-height:normal;font-family:sans-serif;text-indent:0;text-align:start;text-decoration:none;text-decoration-line:none;text-decoration-style:solid;text-decoration-color:#000000;letter-spacing:normal;word-spacing:normal;text-transform:none;direction:ltr;block-progression:tb;writing-mode:lr-tb;baseline-shift:baseline;text-anchor:start;white-space:normal;clip-rule:nonzero;display:inline;overflow:visible;visibility:visible;opacity:1;isolation:auto;mix-blend-mode:normal;color-interpolation:sRGB;color-interpolation-filters:linearRGB;solid-color:#000000;solid-opacity:1;fill:#bebebe;fill-opacity:1;fill-rule:nonzero;stroke:none;stroke-width:1.29999995;stroke-linecap:butt;stroke-linejoin:miter;stroke-miterlimit:4;stroke-dasharray:none;stroke-dashoffset:0;stroke-opacity:1;color-rendering:auto;image-rendering:auto;shape-rendering:auto;text-rendering:auto;enable-background:accumulate" />
  </g>
</svg>
