<?xml version="1.0" encoding="UTF-8" standalone="no"?>
<svg
   xmlns:osb="http://www.openswatchbook.org/uri/2009/osb"
   xmlns:dc="http://purl.org/dc/elements/1.1/"
   xmlns:cc="http://creativecommons.org/ns#"
   xmlns:rdf="http://www.w3.org/1999/02/22-rdf-syntax-ns#"
   xmlns:svg="http://www.w3.org/2000/svg"
   xmlns="http://www.w3.org/2000/svg"
   xmlns:sodipodi="http://sodipodi.sourceforge.net/DTD/sodipodi-0.dtd"
   xmlns:inkscape="http://www.inkscape.org/namespaces/inkscape"
   height="16"
   version="1.1"
   width="16"
   enable-background="new"
   id="svg5245"
   inkscape:version="0.91 r13725"
   sodipodi:docname="network-cellular-cdma-1x-symbolic.svg">
  <sodipodi:namedview
     pagecolor="#ffffff"
     bordercolor="#666666"
     borderopacity="1"
     objecttolerance="10"
     gridtolerance="10"
     guidetolerance="10"
     inkscape:pageopacity="0"
     inkscape:pageshadow="2"
     inkscape:window-width="640"
     inkscape:window-height="480"
     id="namedview5255"
     showgrid="false"
     inkscape:zoom="41.1875"
     inkscape:cx="3.6783005"
     inkscape:cy="8"
     inkscape:current-layer="layer9" />
  <metadata
     id="metadata90">
    <rdf:RDF>
      <cc:Work
         rdf:about="">
        <dc:format>image/svg+xml</dc:format>
        <dc:type
           rdf:resource="http://purl.org/dc/dcmitype/StillImage" />
      </cc:Work>
    </rdf:RDF>
  </metadata>
  <defs
     id="defs7386">
    <linearGradient
       id="linearGradient5606"
       osb:paint="solid">
      <stop
         id="stop5608" />
    </linearGradient>
  </defs>
  <g
     inkscape:groupmode="layer"
     id="layer9"
     inkscape:label="status"
     transform="translate(-341.0002,283)">
    <path
       inkscape:connector-curvature="0"
       d="m 344.71449,-281 c 0,0 -1.71429,0 -1.71429,1.76786 l 0,8.51785 c 0,1.71429 1.71429,1.71429 1.71429,1.71429 l 8.57142,0 c 1.71429,0 1.71429,-1.71429 1.71429,-1.71429 l 0,-8.57142 c 0,0 0,-1.71429 -1.71429,-1.71429 z m 2.5716,1.7143 3.42857,0 c 1.71428,0 1.75904,2.01551 1.71428,1.71429 l 0,0.85714 -1.71428,0 0,-0.85714 -3.42857,0 0,5.14286 3.42857,0 0,-0.85715 1.71428,0 0,0.85715 c 0,0 0,1.71428 -1.71428,1.71428 l -3.42857,0 c 0,0 -1.71429,0 -1.71429,-1.71428 l 0,-5.14286 c 0,-1.71429 1.71429,-1.71429 1.71429,-1.71429 z"
       id="rect7011-8"
       sodipodi:nodetypes="csscsccsccsccccccccccscssc"
       style="color:#555555;fill:#bebebe" />
  </g>
</svg>
