<?xml version="1.0" encoding="UTF-8" standalone="no"?>
<svg
   xmlns:osb="http://www.openswatchbook.org/uri/2009/osb"
   xmlns:dc="http://purl.org/dc/elements/1.1/"
   xmlns:cc="http://creativecommons.org/ns#"
   xmlns:rdf="http://www.w3.org/1999/02/22-rdf-syntax-ns#"
   xmlns:svg="http://www.w3.org/2000/svg"
   xmlns="http://www.w3.org/2000/svg"
   xmlns:sodipodi="http://sodipodi.sourceforge.net/DTD/sodipodi-0.dtd"
   xmlns:inkscape="http://www.inkscape.org/namespaces/inkscape"
   height="16"
   version="1.1"
   width="16"
   enable-background="new"
   id="svg4148"
   inkscape:version="0.91 r13725"
   sodipodi:docname="radio-checked-symbolic.svg">
  <sodipodi:namedview
     pagecolor="#ffffff"
     bordercolor="#666666"
     borderopacity="1"
     objecttolerance="10"
     gridtolerance="10"
     guidetolerance="10"
     inkscape:pageopacity="0"
     inkscape:pageshadow="2"
     inkscape:window-width="640"
     inkscape:window-height="480"
     id="namedview4159"
     showgrid="false"
     inkscape:zoom="41.1875"
     inkscape:cx="3.6783005"
     inkscape:cy="8"
     inkscape:current-layer="layer9" />
  <metadata
     id="metadata90">
    <rdf:RDF>
      <cc:Work
         rdf:about="">
        <dc:format>image/svg+xml</dc:format>
        <dc:type
           rdf:resource="http://purl.org/dc/dcmitype/StillImage" />
      </cc:Work>
    </rdf:RDF>
  </metadata>
  <defs
     id="defs7386">
    <linearGradient
       id="linearGradient5606"
       osb:paint="solid">
      <stop
         id="stop5608" />
    </linearGradient>
  </defs>
  <g
     inkscape:groupmode="layer"
     id="layer9"
     inkscape:label="status"
     transform="translate(-560.0002,201)">
    <path
       inkscape:connector-curvature="0"
       d="m 568.0002,-195.57143 c -1.41904,0 -2.57143,1.15238 -2.57143,2.57143 0,1.41904 1.15239,2.57143 2.57143,2.57143 1.41904,0 2.57143,-1.15239 2.57143,-2.57143 0,-1.41905 -1.15239,-2.57143 -2.57143,-2.57143 z"
       id="path9555"
       sodipodi:nodetypes="csssc"
       style="color:#bebebe;fill:#bebebe;stroke-width:1.78100002" />
    <path
       inkscape:connector-curvature="0"
       d="m 568.0002,-199 c -3.30662,0 -6,2.69338 -6,6 0,3.30662 2.69338,6 6,6 3.30662,0 6,-2.69337 6,-6 0,-3.30663 -2.69339,-6 -6,-6 z m 0,0.85714 c 2.84257,0 5.14286,2.30029 5.14286,5.14286 0,2.84257 -2.3003,5.14286 -5.14286,5.14286 -2.84258,0 -5.14286,-2.30028 -5.14286,-5.14286 0,-2.84258 2.30028,-5.14286 5.14286,-5.14286 z"
       id="path9557"
       style="color:#bebebe;fill:#bebebe" />
  </g>
</svg>
