<?xml version="1.0" encoding="UTF-8" standalone="no"?>
<!-- Created with Inkscape (http://www.inkscape.org/) -->

<svg
   xmlns:dc="http://purl.org/dc/elements/1.1/"
   xmlns:cc="http://creativecommons.org/ns#"
   xmlns:rdf="http://www.w3.org/1999/02/22-rdf-syntax-ns#"
   xmlns:svg="http://www.w3.org/2000/svg"
   xmlns="http://www.w3.org/2000/svg"
   xmlns:sodipodi="http://sodipodi.sourceforge.net/DTD/sodipodi-0.dtd"
   xmlns:inkscape="http://www.inkscape.org/namespaces/inkscape"
   id="svg7384"
   style="enable-background:new"
   height="16"
   width="16"
   version="1.1"
   inkscape:version="0.91 r13725"
   sodipodi:docname="security-low-symbolic.svg">
  <sodipodi:namedview
     pagecolor="#ffffff"
     bordercolor="#666666"
     borderopacity="1"
     objecttolerance="10"
     gridtolerance="10"
     guidetolerance="10"
     inkscape:pageopacity="0"
     inkscape:pageshadow="2"
     inkscape:window-width="640"
     inkscape:window-height="480"
     id="namedview4146"
     showgrid="false"
     inkscape:zoom="41.1875"
     inkscape:cx="3.6783005"
     inkscape:cy="8"
     inkscape:current-layer="svg7384" />
  <metadata
     id="metadata90">
    <rdf:RDF>
      <cc:Work
         rdf:about="">
        <dc:format>image/svg+xml</dc:format>
        <dc:type
           rdf:resource="http://purl.org/dc/dcmitype/StillImage" />
        <dc:title>Paper Symbolic Icon Theme</dc:title>
      </cc:Work>
    </rdf:RDF>
  </metadata>
  <title
     id="title8473">Paper Symbolic Icon Theme</title>
  <defs
     id="defs7386">
    <filter
       id="filter7554"
       style="color-interpolation-filters:sRGB">
      <feBlend
         id="feBlend7556"
         in2="BackgroundImage"
         mode="darken" />
    </filter>
  </defs>
  <g
     id="layer9"
     transform="matrix(0.8,0,0,0.8,-402.4,318)">
    <path
       id="path10649"
       style="color:#bebebe;text-indent:0;text-decoration:none;text-decoration-line:none;text-transform:none;block-progression:tb;opacity:0.35;fill:#bebebe;enable-background:accumulate"
       d="m 513,-395 -6,1.9902 0,7 c 0,2.0716 1.5749,3.5218 2.9375,4.4688 1.3626,0.94693 3.0625,1.541 3.0625,1.541 0,0 1.7043,-0.61672 3.0625,-1.5723 1.3582,-0.95555 2.9375,-2.3932 2.9375,-4.4375 l 0,-7 -6,-1.9902 z m 0,2.1074 4,1.3262 0,5.5566 c 0,1.0143 -0.90506,1.9706 -2.0879,2.8027 -0.77536,0.54551 -1.4322,0.77757 -1.9238,0.98242 -0.49007,-0.19878 -1.1373,-0.42191 -1.9102,-0.95898 -1.1698,-0.813 -2.0781,-1.7682 -2.0781,-2.8262 l 0,-5.5566 4,-1.3262 z"
       inkscape:connector-curvature="0" />
  </g>
</svg>
