<?xml version="1.0" encoding="UTF-8" standalone="no"?>
<svg
   xmlns:osb="http://www.openswatchbook.org/uri/2009/osb"
   xmlns:dc="http://purl.org/dc/elements/1.1/"
   xmlns:cc="http://creativecommons.org/ns#"
   xmlns:rdf="http://www.w3.org/1999/02/22-rdf-syntax-ns#"
   xmlns:svg="http://www.w3.org/2000/svg"
   xmlns="http://www.w3.org/2000/svg"
   xmlns:sodipodi="http://sodipodi.sourceforge.net/DTD/sodipodi-0.dtd"
   xmlns:inkscape="http://www.inkscape.org/namespaces/inkscape"
   version="1.1"
   width="16"
   height="16"
   id="svg7384"
   inkscape:version="0.91 r13725"
   sodipodi:docname="system-shutdown-symbolic.svg">
  <sodipodi:namedview
     pagecolor="#ffffff"
     bordercolor="#666666"
     borderopacity="1"
     objecttolerance="10"
     gridtolerance="10"
     guidetolerance="10"
     inkscape:pageopacity="0"
     inkscape:pageshadow="2"
     inkscape:window-width="640"
     inkscape:window-height="480"
     id="namedview14"
     showgrid="false"
     inkscape:zoom="19.415974"
     inkscape:cx="2.107518"
     inkscape:cy="1.803847"
     inkscape:current-layer="svg7384" />
  <title
     id="title9167">elementary Symbolic Icon Theme</title>
  <metadata
     id="metadata90">
    <rdf:RDF>
      <cc:Work
         rdf:about="">
        <dc:format>image/svg+xml</dc:format>
        <dc:type
           rdf:resource="http://purl.org/dc/dcmitype/StillImage" />
        <dc:title>elementary Symbolic Icon Theme</dc:title>
      </cc:Work>
    </rdf:RDF>
  </metadata>
  <defs
     id="defs7386">
    <linearGradient
       osb:paint="solid"
       id="linearGradient5606">
      <stop
         style="stop-color:#000000;stop-opacity:1;"
         offset="0"
         id="stop5608" />
    </linearGradient>
    <style
       id="current-color-scheme"
       type="text/css">
      .ColorScheme-Text {
        color:#bebebe;
      }
      </style>
    <style
       id="current-color-scheme-1"
       type="text/css">
      .ColorScheme-NegativeText {
        color:#da4453;
      }
      </style>
  </defs>
  <g
     transform="translate(-333.0004,-28)"
     id="layer9"
     style="display:inline" />
  <g
     transform="translate(-333.0004,-28)"
     id="layer10"
     style="display:inline" />
  <g
     transform="translate(-333.0004,-28)"
     id="layer13"
     style="display:inline" />
  <g
     transform="translate(-333.0004,-28)"
     id="layer14" />
  <g
     transform="translate(-333.0004,-28)"
     id="layer15"
     style="display:inline" />
  <g
     transform="translate(-333.0004,-28)"
     id="g71291"
     style="display:inline" />
  <g
     transform="matrix(0.91666667,0,0,0.92307692,-308.25037,-21.076923)"
     id="layer12"
     style="display:inline">
    <path
       d="m 345.0004,25 c -0.554,0 -1,0.446 -1,1 l 0,4 c 0,0.554 0.446,1 1,1 0.554,0 1,-0.446 1,-1 l 0,-4 c 0,-0.554 -0.446,-1 -1,-1 z m -3,2 c -0.23384,0 -0.45573,0.084 -0.625,0.21875 -0.16288,0.13731 -0.21487,0.18641 -0.28125,0.25 -1.27878,1.0966 -2.09375,2.71205 -2.09375,4.53125 0,3.31371 2.68629,6 6,6 3.31371,0 6,-2.68629 6,-6 0,-1.8192 -0.81497,-3.43465 -2.09375,-4.53125 -0.0664,-0.0636 -0.11837,-0.11269 -0.28125,-0.25 C 348.45613,27.08404 348.23424,27 348.0004,27 c -0.55229,0 -1,0.44772 -1,1 0,0.31104 0.14829,0.57085 0.375,0.75 0.0403,0.0378 0.0534,0.0594 0.125,0.125 0.9241,0.72905 1.5,1.85348 1.5,3.125 0,2.20914 -1.79086,4 -4,4 -2.20914,0 -4,-1.79086 -4,-4 0,-1.27152 0.5759,-2.39595 1.5,-3.125 0.0716,-0.0656 0.0847,-0.0872 0.125,-0.125 0.22671,-0.17915 0.375,-0.43896 0.375,-0.75 0,-0.55228 -0.44772,-1 -1,-1 z"
       id="path40326"
       style="color:#000000;display:inline;overflow:visible;visibility:visible;fill:#bebebe;fill-opacity:1;fill-rule:nonzero;stroke:none;stroke-width:1;marker:none;enable-background:accumulate"
       inkscape:connector-curvature="0" />
  </g>
</svg>
