<svg xmlns="http://www.w3.org/2000/svg" viewBox="0 0 22 22">
  <defs id="defs3051">
    <style type="text/css" id="current-color-scheme">
      .ColorScheme-Text {
        color:#f2f2f2
      }
      </style>
  </defs>
    <path
       style="fill:currentColor;fill-opacity:1;stroke:none"
       class="ColorScheme-Text"
       d="m 12.19797,12.05019 c -0.0542,-0.0177 -0.397,-0.17224 -0.18281,-0.82333 l -0.003,0 c 0.55832,-0.57504 0.985,-1.50035 0.985,-2.41134 0,-1.40075 -0.93146,-2.13507 -2.014,-2.13507 -1.08322,0 -2.00956,0.73398 -2.00956,2.13507 0,0.91474 0.42429,1.8438 0.98603,2.41748 0.21896,0.57435 -0.17258,0.78752 -0.25444,0.81719 C 8.94196,12.297 6.8657,13.52752 6.89855,15.31955 l 8.20282,0 c 0.0366,-1.7119 -1.60567,-2.82354 -2.90333,-3.26936 z M 19,11 a 7.999999,7.9999997 0 0 1 -8,8 7.999999,7.9999997 0 0 1 -8,-8 7.999999,7.9999997 0 0 1 8,-8 7.999999,7.9999997 0 0 1 8,8 z"
        />
</svg>
