<svg xmlns="http://www.w3.org/2000/svg" viewBox="0 0 22 22">
  <defs id="defs3051">
    <style type="text/css" id="current-color-scheme">
      .ColorScheme-Text {
        color:#f2f2f2
      }
      </style>
  </defs>
  <g
     transform="translate(1,-1031.3622)">
    <path
       id="path4160"
       style="fill:currentColor;fill-opacity:1;stroke:none"
	   class="ColorScheme-Text"
       d="m 13.308486,1044.3622 q -0.983945,0 -1.652523,-0.6036 Q 11,1043.1553 11,1042.163 q 0,-1.0729 0.782111,-1.6764 0.782109,-0.6168 1.930045,-0.6168 1.021789,0 1.677752,0.4023 l 0,-0.1877 q 0,-0.7242 -0.466742,-1.1533 -0.466744,-0.4425 -1.147937,-0.4425 -0.504586,0 -0.920871,0.2547 -0.40367,0.2549 -0.555046,0.6974 l -1.059633,-0.4827 q 0.21445,-0.5901 0.845183,-1.0862 0.630734,-0.5096 1.665138,-0.5096 1.18578,0 1.96789,0.7375 0.78211,0.7376 0.78211,2.0785 l 0,3.9694 -1.110092,0 0,-0.9119 -0.05046,0 q -0.693808,1.1265 -2.030964,1.1265 z m 0.189221,-1.1265 q 0.719036,0 1.299311,-0.5631 0.59289,-0.5767 0.59289,-1.3545 -0.491973,-0.4292 -1.475917,-0.4292 -0.845183,0 -1.274082,0.389 -0.428899,0.3888 -0.428899,0.9118 0,0.4829 0.391055,0.7644 0.391054,0.2816 0.895642,0.2816 z" />
    <path
       id="path4157"
       style="fill:currentColor;fill-opacity:1;stroke:none"
	   class="ColorScheme-Text"
       d="m 6.0538278,1045.3622 -1.0663266,0 1.2795919,-2.7989 -2.267347,-5.2011 1.1224491,0 1.6387756,3.9887 0.022449,0 1.5938776,-3.9887 1.122449,0 -3.4459185,8 z" />
    <rect
       style="fill:currentColor;fill-opacity:1;stroke:none"
	   class="ColorScheme-Text"
       id="rect4152"
       width="16"
       height="1.5"
       x="2"
       y="1046.3622"
       ry="0.5" />
  </g>
</svg>
