<svg xmlns="http://www.w3.org/2000/svg" viewBox="0 0 22 22">
 <defs id="defs3051">
   <style type="text/css" id="current-color-scheme">
     .ColorScheme-Text {
       color:#f2f2f2;
     }
     </style>
 </defs>
   <path
      style="fill:currentColor;fill-opacity:1;stroke:none"
      d="m 10.75,3 h 0.5 c 0.277,0 0.5,0.223 0.5,0.5 v 15 c 0,0.277 -0.223,0.5 -0.5,0.5 h -0.5 c -0.277,0 -0.5,-0.223 -0.5,-0.5 v -15 c 0,-0.277 0.223,-0.5 0.5,-0.5 z"
      class="ColorScheme-Text" />
   <path
      style="fill:currentColor;fill-opacity:1;stroke:none"
      d="m 7.5,5 h 7 C 14.777,5 15,5.223 15,5.5 v 4 C 15,9.777 14.777,10 14.5,10 h -7 C 7.223,10 7,9.777 7,9.5 v -4 C 7,5.223 7.223,5 7.5,5 Z"
      class="ColorScheme-Text" />
   <path
      style="fill:currentColor;fill-opacity:1;stroke:none"
      d="m 5.5,12 h 11 c 0.277,0 0.5,0.223 0.5,0.5 v 3.999983 c 0,0.277 -0.223,0.5 -0.5,0.5 h -11 c -0.277,0 -0.5,-0.223 -0.5,-0.5 V 12.5 C 5,12.223 5.223,12 5.5,12 Z"
      class="ColorScheme-Text" />
</svg> 
