<svg xmlns="http://www.w3.org/2000/svg" viewBox="0 0 22 22">
  <defs id="defs3051">
    <style type="text/css" id="current-color-scheme">
      .ColorScheme-Text {
        color:#f2f2f2
      }
      </style>
  </defs>
  <g
     transform="translate(1,-1031.3622)"
     id="g6">
    <path
       style="fill:currentColor;fill-opacity:1;stroke:none"
       d="m 11.098624,1041.3622 q -0.894496,0 -1.5022937,-0.5173 Q 9,1040.3277 9,1039.4771 q 0,-0.9195 0.7110092,-1.4368 0.7110088,-0.5287 1.7545868,-0.5287 0.9289,0 1.52523,0.3448 l 0,-0.1609 q 0,-0.6207 -0.424313,-0.9885 -0.424311,-0.3793 -1.043578,-0.3793 -0.458715,0 -0.837155,0.2184 -0.366973,0.2184 -0.504587,0.5977 L 9.2178899,1036.73 q 0.1949541,-0.5058 0.7683487,-0.931 0.5733944,-0.4368 1.5137614,-0.4368 1.077982,0 1.78899,0.6321 Q 14,1036.6266 14,1037.776 l 0,3.4023 -1.009174,0 0,-0.7816 -0.04587,0 q -0.630734,0.9655 -1.84633,0.9655 z m 0.172018,-0.9655 q 0.653669,0 1.181193,-0.4828 0.538991,-0.4943 0.538991,-1.1609 -0.447248,-0.3679 -1.341744,-0.3679 -0.768349,0 -1.158256,0.3334 -0.389909,0.3333 -0.389909,0.7816 0,0.4138 0.355505,0.6552 0.355505,0.2414 0.81422,0.2414 z"
       class="ColorScheme-Text"
       id="path8" />
    <path
       style="fill:currentColor;fill-opacity:1;stroke:none"
       d="m 10.867347,1049.3622 -0.9693878,0 1.1632658,-2.4491 L 9,1042.3622 l 1.020408,0 1.489796,3.49 0.02041,0 1.44898,-3.49 1.020408,0 -3.132653,7 z"
       class="ColorScheme-Text"
       id="path10" />
    <path
       style="fill:currentColor;fill-opacity:1;stroke:none"
       d="m 11.098624,1041.3622 q -0.894496,0 -1.5022937,-0.5173 Q 9,1040.3277 9,1039.4771 q 0,-0.9195 0.7110092,-1.4368 0.7110088,-0.5287 1.7545868,-0.5287 0.9289,0 1.52523,0.3448 l 0,-0.1609 q 0,-0.6207 -0.424313,-0.9885 -0.424311,-0.3793 -1.043578,-0.3793 -0.458715,0 -0.837155,0.2184 -0.366973,0.2184 -0.504587,0.5977 L 9.2178899,1036.73 q 0.1949541,-0.5058 0.7683487,-0.931 0.5733944,-0.4368 1.5137614,-0.4368 1.077982,0 1.78899,0.6321 Q 14,1036.6266 14,1037.776 l 0,3.4023 -1.009174,0 0,-0.7816 -0.04587,0 q -0.630734,0.9655 -1.84633,0.9655 z m 0.172018,-0.9655 q 0.653669,0 1.181193,-0.4828 0.538991,-0.4943 0.538991,-1.1609 -0.447248,-0.3679 -1.341744,-0.3679 -0.768349,0 -1.158256,0.3334 -0.389909,0.3333 -0.389909,0.7816 0,0.4138 0.355505,0.6552 0.355505,0.2414 0.81422,0.2414 z"
       class="ColorScheme-Text"
       id="path12" />
  </g>
  <rect
     style="fill:currentColor;fill-opacity:1;stroke:none"
	 class="ColorScheme-Text"
     id="rect4148"
     width="1.5"
     height="16"
     x="6"
     y="3"
     ry="0.5" />
</svg>
