<svg xmlns="http://www.w3.org/2000/svg" viewBox="0 0 22 22">
 <defs id="defs3051">
   <style type="text/css" id="current-color-scheme">
     .ColorScheme-Text {
       color:#f2f2f2;
     }
     </style>
 </defs>
   <path
      style="fill:currentColor;fill-opacity:1;stroke:none"
      d="m4.1826755 3c-1.66677 0-1.709744 1.412398-1.709744 1.412398v10.344542s.02035 1.254303 1.594329 1.181563h7.2047935l1.038759 3.061497h5.604597c1.906428 0 1.59237-1.424133 1.59237-1.424133v-10.41888s-.20485-1.264623-2.005136-1.191344h-6.731387l-.9957193-2.965643zm2.2809669 3.478175h1.3850069c.1093792 0 .2061895.07159.2386636.17606l1.6784443 5.414844c.023562.07571.00995.159115-.037179.223011-.046952.06365-.1220667.09977-.2014924.09977h-.9135588c-.1101289 0-.2070654-.07241-.2386598-.178014l-.4029848-1.340018h-1.6940961l-.3716811 1.336105c-.030026.107807-.1266949.181927-.2386598.181927h-.8607434c-.079173 0-.1544031-.03626-.2014924-.09977-.047085-.06375-.060385-.147365-.037179-.223011l1.6569249-5.414844c.032092-.104843.1289707-.17606.2386636-.17606zm.6299057 1.001591-.6240382 2.394423h1.3087177l-.6670731-2.394423h-.017595zm8.3452739 2.083383h.543832c.120277 0 .21714.09687.21714.217141v.297346h1.696051c.120277 0 .217144.09692.217144.217144v.581c0 .120276-.09692.21714-.217144.21714h-.172147c-.09764.841102-.540665 1.728655-1.318498 2.638955.354289.381695.788642.676651 1.019193.819659.09029.05586.126278.167798.08608.266047l-.199534.489058c-.02536.06173-.07844.108813-.142806.127154-.06442.01817-.131855.006-.18584-.03324-.353849-.257356-.951032-.721227-1.205038-.985943-.6865.657672-1.343598 1.111341-1.596284 1.277422-.03576.02345-.07709.03523-.119331.03523-.0052 0-.01044-.0015-.01564-.0019l-.297346-.880305c.274041-.18659.842571-.593167 1.439784-1.173738-.539043-.795187-.830009-1.577181-.956597-1.97579-.021-.06629-.0097-.139551.03129-.195625.04102-.05602.106641-.08998.17606-.08998h.534052c.09215 0 .174538.05978.205402.146719.122143.344512.335994.861298.669031 1.394791.522512-.647015.8338-1.272147.925298-1.858417h-3.247341c-.12022 0-.217198-.0972-.217141-.217141v-.581003c0-.120273.09692-.217141.217141-.217141h1.69605v-.297346c0-.12033.09693-.21714.217141-.21714z"
      class="ColorScheme-Text" />
</svg> 
