<svg xmlns="http://www.w3.org/2000/svg" viewBox="0 0 22 22">
 <defs id="defs3051">
   <style type="text/css" id="current-color-scheme">
     .ColorScheme-Text {
       color:#f2f2f2;
     }
     </style>
 </defs>
   <path
      style="fill:currentColor;fill-opacity:1;stroke:none"
      d="m14.602094 3.0074683c-.0403-.0109-.0836-.01-.13085.004-.0945.023-.15275.0813-.17579.17578l-.16601.65039-.64258-.1836c-.0945-.0277-.17537-.005-.24219.0664-.0714.0668-.0941.14771-.0664.24219l.1836.64258-.65039.16601c-.0921.023-.15207.0813-.17969.17578-.0231.0968-.00075.17766.0684.24219l.47852.4668-.47852.46679c-.0691.0645-.0914.14347-.0684.24024.0276.0945.0876.1547.17969.17773l.65039.16602-.18359.64258c-.0277.0945-.005.17533.0664.24218.0668.0714.14771.0921.24218.0645l.64258-.18164.16602.64843c.023.0945.0813.15436.17578.17969.0968.023.17766.00075.24219-.0684l.46679-.47656.4668.47656c.0461.0506.10438.0762.17578.0762.0162 0 .0368-.003.0645-.008.0945-.0277.1547-.0875.17774-.17968l.16601-.64844.64258.18164c.0945.0276.17541.007.24219-.0645.0715-.0669.0921-.14775.0644-.24218l-.1836-.64258.65039-.16602c.0923-.023.15207-.0813.17969-.17578.0231-.0968.00083-.17766-.0684-.24219l-.47656-.46679.47656-.4668c.0692-.0645.0914-.14542.0684-.24219-.0276-.0945-.0874-.15274-.17968-.17578l-.65039-.16601.18359-.64258c.0276-.0944.007-.17537-.0644-.24219-.0668-.0714-.14767-.0941-.24219-.0664l-.64258.1836-.16601-.65039c-.023-.0945-.0833-.15275-.17774-.17578-.0945-.0254-.17346-.003-.24023.0664l-.4668.48047-.4668-.48047c-.0334-.0357-.071-.0594-.11133-.0703zm-5.6210903 1.82812c-.11289 0-.22484.056-.28906.16797l-3.89063 6.7812497c-.81723 1.4339-.88035 3.25765 0 4.79297 1.32341 2.30801 4.26816 3.10663 6.5761803 1.7832 2.308-1.32339 3.10662-4.26813 1.7832-6.57617l-3.8886703-6.7812497c-.0642-.11202-.17812-.16797-.29102-.16797z"
      class="ColorScheme-Text" />
</svg> 
