<svg xmlns="http://www.w3.org/2000/svg" viewBox="0 0 22 22">
 <defs id="defs3051">
   <style type="text/css" id="current-color-scheme">
     .ColorScheme-Text {
       color:#da4453;
     }
     </style>
 </defs>
   <path
      style="fill:currentColor;fill-opacity:1;stroke:none"
      d="m11 3a8 8 0 0 0 -8 8 8 8 0 0 0 8 8 8 8 0 0 0 8-8 8 8 0 0 0 -8-8zm-.058594 5.8671875c3.469571-.0083045 4.740845 1.5174045 4.794922 1.5839845.116014.146779.210381.303038.289063.480469.084218.190934.141301.39327.166015.591797h.009766l.007812.523437c.000514.381314-.29817.691864-.666015.693359l-1.84961.003907c-.367539.000153-.667111-.308278-.667968-.689453l-.001953-.931641c-.045676-.013097-.094503-.027087-.144532-.041016-.457406-.130041-1.084125-.307055-1.93164-.304687-.849666.002011-1.4741833.182499-1.931641.314453-.048396.014048-.0957851.026726-.140625.039062l.0019531.625v.308594c.0008752.381744-.2983755.692243-.6660156.693359l-1.8476563.003907c-.3673831.000857-.6690464-.30771-.6699218-.689453l.0019531-.523438h.0136719c.0236287-.198901.0782563-.400567.1621094-.59375.0814546-.182256.1755089-.339741.2871093-.480469.8871725-1.1362293 2.2731074-1.601309 4.7832029-1.6074215z"
      class="ColorScheme-Text" />
</svg> 
