<svg xmlns="http://www.w3.org/2000/svg" viewBox="0 0 22 22">
  <defs id="defs3051">
    <style type="text/css" id="current-color-scheme">
      .ColorScheme-NegativeText {
        color:#da4453;
      }
      </style>
  </defs>
        <path
           style="fill:currentColor;fill-opacity:1;stroke:none" 
           class="ColorScheme-NegativeText"
           d="M 11 3 A 8 8 0 0 0 3 11 A 8 8 0 0 0 11 19 A 8 8 0 0 0 19 11 A 8 8 0 0 0 11 3 z M 10.941406 8.8671875 C 14.410977 8.858883 15.682251 10.384592 15.736328 10.451172 C 15.852342 10.597951 15.946709 10.75421 16.025391 10.931641 C 16.109609 11.122575 16.166692 11.324911 16.191406 11.523438 L 16.201172 11.523438 L 16.208984 12.046875 C 16.209498 12.428189 15.910814 12.738739 15.542969 12.740234 L 13.693359 12.744141 C 13.32582 12.744294 13.026248 12.435863 13.025391 12.054688 L 13.023438 11.123047 C 12.977762 11.10995 12.928935 11.09596 12.878906 11.082031 C 12.4215 10.95199 11.794781 10.774976 10.947266 10.777344 C 10.0976 10.779355 9.4730827 10.959843 9.015625 11.091797 C 8.967229 11.105845 8.9198399 11.118523 8.875 11.130859 L 8.8769531 11.755859 L 8.8769531 12.064453 C 8.8778283 12.446197 8.5785776 12.756696 8.2109375 12.757812 L 6.3632812 12.761719 C 5.9958981 12.762576 5.6942348 12.454009 5.6933594 12.072266 L 5.6953125 11.548828 L 5.7089844 11.548828 C 5.7326131 11.349927 5.7872407 11.148261 5.8710938 10.955078 C 5.9525484 10.772822 6.0466027 10.615337 6.1582031 10.474609 C 7.0453756 9.3383797 8.4313105 8.8733 10.941406 8.8671875 z "
            />
</svg>
