<?xml version="1.0" encoding="UTF-8" standalone="no"?>
<svg
   xmlns:dc="http://purl.org/dc/elements/1.1/"
   xmlns:cc="http://creativecommons.org/ns#"
   xmlns:rdf="http://www.w3.org/1999/02/22-rdf-syntax-ns#"
   xmlns:svg="http://www.w3.org/2000/svg"
   xmlns="http://www.w3.org/2000/svg"
   xmlns:sodipodi="http://sodipodi.sourceforge.net/DTD/sodipodi-0.dtd"
   xmlns:inkscape="http://www.inkscape.org/namespaces/inkscape"
   viewBox="0 0 22 22"
   id="svg2"
   version="1.1"
   inkscape:version="0.91 r13725"
   sodipodi:docname="camera-off.svg">
  <metadata
     id="metadata10">
    <rdf:RDF>
      <cc:Work
         rdf:about="">
        <dc:format>image/svg+xml</dc:format>
        <dc:type
           rdf:resource="http://purl.org/dc/dcmitype/StillImage" />
      </cc:Work>
    </rdf:RDF>
  </metadata>
  <sodipodi:namedview
     pagecolor="#ffffff"
     bordercolor="#666666"
     borderopacity="1"
     objecttolerance="10"
     gridtolerance="10"
     guidetolerance="10"
     inkscape:pageopacity="0"
     inkscape:pageshadow="2"
     inkscape:window-width="640"
     inkscape:window-height="480"
     id="namedview8"
     showgrid="false"
     inkscape:zoom="28.954545"
     inkscape:cx="4.8524333"
     inkscape:cy="11"
     inkscape:current-layer="svg2" />
  <defs
     id="defs3051">
    <style
       type="text/css"
       id="current-color-scheme">
      .ColorScheme-Text {
        color:#f2f2f2
      }
      </style>
  </defs>
  <path
     style="color:#f2f2f2;fill:currentColor;fill-opacity:1;stroke:none"
     class="ColorScheme-Text"
     d="m 11,3 a 8.0005028,8.0005037 0 0 0 -8,8 8.0005028,8.0005037 0 0 0 8,8 8.0005028,8.0005037 0 0 0 8,-8 8.0005028,8.0005037 0 0 0 -8,-8 z m 0,0.8829629 c 0.418253,0 0.758518,0.3403899 0.758518,0.7585185 C 11.758518,5.0596814 11.418253,5.4 11,5.4 10.5818,5.4 10.241463,5.0596814 10.241481,4.6414814 10.241481,4.223335 10.5818,3.8829629 11,3.8829629 Z m -0.002,2.060247 c 2.788356,0 5.058765,2.2692662 5.058765,5.0567901 0,2.788 -2.270409,5.05679 -5.058765,5.05679 C 8.2099998,16.05679 5.9430658,13.788 5.9431849,11 5.9431849,8.2123572 8.2099998,5.9432099 10.998,5.9432099 Z M 11,7.4602469 C 9.0484002,7.4602469 7.4602469,9.0486501 7.4602469,11 7.4601636,12.951601 9.0484002,14.539753 11,14.539753 12.95185,14.539753 14.539753,12.951601 14.539753,11 14.539753,9.0487333 12.95185,7.4602469 11,7.4602469 Z M 9.7674075,8.9792593 c 0.090824,0 0.1675797,0.031243 0.2311117,0.094815 L 11,10.075556 12.001481,9.0740743 c 0.06357,-0.063572 0.140246,-0.094815 0.231112,-0.094815 0.09078,0 0.167538,0.031243 0.231111,0.094815 l 0.464197,0.4641976 c 0.06353,0.063572 0.09482,0.1402875 0.09482,0.2311111 0,0.090824 -0.03124,0.1675803 -0.09482,0.231111 l -1.001481,1.001481 1.001481,1.001482 c 0.06357,0.06357 0.09482,0.140288 0.09482,0.231111 0,0.09082 -0.03124,0.169556 -0.09482,0.233087 l -0.464197,0.462222 c -0.06353,0.06353 -0.14033,0.09481 -0.231111,0.09481 -0.09091,0 -0.167539,-0.03124 -0.231112,-0.09481 L 11,11.928395 9.9985192,12.929877 c -0.06357,0.06353 -0.1402881,0.09481 -0.2311117,0.09481 -0.090782,0 -0.1675388,-0.03124 -0.2311111,-0.09481 L 9.0720988,12.467655 c -0.063572,-0.06357 -0.094815,-0.142263 -0.094815,-0.233087 0,-0.09082 0.031284,-0.167539 0.094815,-0.231111 L 10.07358,11.001975 9.0720988,10.000494 c -0.063572,-0.063573 -0.094815,-0.1402876 -0.094815,-0.2311112 0,-0.090824 0.031284,-0.1675805 0.094815,-0.2311111 L 9.5362964,9.0740741 c 0.063572,-0.063572 0.1403293,-0.094815 0.2311111,-0.094815 z"
     id="path6"
     inkscape:connector-curvature="0" />
</svg>
