<svg xmlns="http://www.w3.org/2000/svg" viewBox="0 0 22 22">
 <defs id="defs3051">
   <style type="text/css" id="current-color-scheme">
     .ColorScheme-Text {
       color:#f2f2f2;
     }
     </style>
 </defs>
   <path
      style="fill:currentColor;fill-opacity:1;stroke:none"
      d="m9.3691406 3c-.2532478 0-.4609375.2035431-.4609375.4609375v.3808594c0 .2570276.2076897.4648437.4609375.4648437h.1601563v.2675782c.0002538.3861056.2448511.4183646.3671875.4101562.020789-.0030746.0416896-.006832.0644531-.0097656h.0039063c.4343122-.0594616 1.1534152-.1167075 1.9785152-.0117188 0 0 .528783.0974015.527344-.3886718v-.2695313h.162109c.253502 0 .458985-.2054963.458985-.4628906v-.3808594c-.000028-.2571687-.207436-.4609375-.460938-.4609375zm5.2402344 1.7011719c-.042668.0086103-.075386.0355972-.097656.0605469l-.03711.0527343-.314453.4511719c-.001495.0017207-.178842.2804343.103516.4277344.403228.1984404 1.142677.6175095 1.851562 1.2929687v-.0019531s.254476.2568088.433594.0019531l.341797-.4902343c.119177-.172151-.034844-.2909719-.050781-.3027344l-2.070313-1.4472656h-.001953c-.063749-.0443565-.115535-.0535323-.158203-.0449219zm-3.609375.8613281c-3.7104277 0-6.71875 3.0079838-6.71875 6.71875 0 3.709835 3.0082941 6.71875 6.71875 6.71875 3.710399 0 6.71875-3.008943 6.71875-6.71875 0-3.7107662-3.008351-6.71875-6.71875-6.71875zm-2.1992188 3.8378906 4.9999998 3.0000004-4.9999998 3z"
      class="ColorScheme-Text" />
</svg> 
