<svg xmlns="http://www.w3.org/2000/svg" viewBox="0 0 22 22">
 <defs id="defs3051">
   <style type="text/css" id="current-color-scheme">
     .ColorScheme-Text {
       color:#f2f2f2;
     }
     </style>
 </defs>
   <path
      style="fill:currentColor;fill-opacity:1;stroke:none"
      d="m9.3691406 3c-.2532435 0-.4609375.2035468-.4609375.4609375v.3808594c0 .2570245.207694.4648437.4609375.4648437h.1601563v.2675782c.0002472.3860998.2448502.4183682.3671875.4101562.0207817-.0027465.0417489-.006836.0644531-.0097656h.0039063c.4343092-.059507 1.1534192-.1167258 1.9785152-.0117188 0 0 .528781.0973998.527344-.3886718v-.2695313h.162109c.25351 0 .460938-.2054999.460938-.4628906v-.3808594c-.000027-.257171-.209391-.4609375-.462891-.4609375zm5.2402344 1.7011719c-.042668.0086056-.075387.0355997-.097656.0605469l-.03711.0527343-.314453.4511719c-.001831.001831-.17884.2804316.103516.4277344.403229.1984422 1.142669.6175091 1.851562 1.2929687v-.0019531s.254478.256808.433594.0019531l.341797-.4902343c.119179-.1721584-.034852-.2909703-.050781-.3027344l-2.070313-1.4472656h-.001953c-.063746-.0443557-.115535-.0535276-.158203-.0449219zm-3.609375.8613281c-3.7104274 0-6.71875 3.007993-6.71875 6.71875 0 3.709832 3.0082951 6.71875 6.71875 6.71875 3.7104 0 6.71875-3.008945 6.71875-6.71875 0-3.710757-3.00835-6.71875-6.71875-6.71875zm-2.75 4.0449219h1.830078v5.4921871h-1.830078zm3.669922 0h1.830078v5.4921871h-1.830078z"
      class="ColorScheme-Text" />
</svg> 
