<svg xmlns="http://www.w3.org/2000/svg" viewBox="0 0 22 22">
  <defs id="defs3051">
    <style type="text/css" id="current-color-scheme">
      .ColorScheme-Text {
        color:#f2f2f2
      }
      </style>
  </defs>
 <path 
     style="fill:currentColor;fill-opacity:1;stroke:none"      
	 class="ColorScheme-Text"
        d="M 3,4 3,9.0014948 C 3,9 2.9972376,10 4,10 l 13.981399,0 C 18,10 19,10.015165 19,9 L 19,4.0848927 C 19,4 19.054619,3 18,3 L 4,3 C 4,3 3,2.9963076 3,4 Z M 3,12 3,12.282912 3,17 5,17 5,12 3.3310292,12 Z m 4,0 0,7 2,0 0,-7 z m 4,0 0,3 2,0 0,-3 z m 4,0 0,3 4,0 0,-3 z"
     />
</svg>
