<svg xmlns="http://www.w3.org/2000/svg" viewBox="0 0 22 22">
  <defs id="defs3051">
    <style type="text/css" id="current-color-scheme">
      .ColorScheme-Text {
        color:#f2f2f2
      }
      </style>
  </defs>
 <path 
     style="fill:currentColor;fill-opacity:1;stroke:none"      
	 class="ColorScheme-Text"
        d="M 4,4.0156241 4,7.9765618 C 4,8 3.9914085,9 5.0156253,9 L 6,9 6,13 4.0468752,13 C 4.0468752,13 3,12.977076 3,14.015625 l 0,3.9375 C 3,18 2.9770767,19 4.0156252,19 l 4.0000002,0 C 8.0156254,19 9,18.984052 9,17.984375 L 9,14 C 9,14 8.99397,13 7.9843754,13 L 7,13 7,9 10.984376,9 C 11,9 12,9.0085616 12,7.9921868 L 12,7 l 4,0 0,7 -0.999999,0 C 15,14 14,14.00603 14,15.015625 l 0,2.96875 C 14,18 13.991438,19 15.007813,19 l 3.007813,0 C 18.015626,19 19,18.998789 19,18.007812 l 0,-3.023437 C 19,15 18.99391,14 18.000001,14 L 17,14 17,7 C 17,7 17.0037,6 16.000001,6 L 12,6 12,3.9921866 C 12,4 11.993939,3 10.992188,3 L 5.0078128,3 C 5,3 4,3.0011232 4,4.0156241 Z"
     />
</svg>
