<svg viewBox="0 0 22 22" xmlns="http://www.w3.org/2000/svg"><path d="m3.5 3c-.277 0-.5.223-.5.5s.223.5.5.5h9c .277 0 .5-.223.5-.5s-.223-.5-.5-.5zm0 2c-.277 0-.5.223-.5.5s.223.5.5.5h5c .277 0 .5-.223.5-.5s-.223-.5-.5-.5zm13.5 2-4 7h2v5l4-7h-2zm-13.5 2c-.277 0-.5.223-.5.5s.223.5.5.5h7c .277 0 .5-.223.5-.5s-.223-.5-.5-.5zm0 2c-.277 0-.5.223-.5.5s.223.5.5.5h3c .277 0 .5-.223.5-.5s-.223-.5-.5-.5zm0 4c-.277 0-.5.223-.5.5s.223.5.5.5h6c .277 0 .5-.223.5-.5s-.223-.5-.5-.5zm0 2c-.277 0-.5.223-.5.5s.223.5.5.5h1c .277 0 .5-.223.5-.5s-.223-.5-.5-.5zm7 1c-.277 0-.5.223-.5.5s.223.5.5.5h1c .277 0 .5-.223.5-.5s-.223-.5-.5-.5z" fill="#f2f2f2"/></svg>