<?xml version="1.0" encoding="UTF-8" standalone="no"?>
<svg
   xmlns:dc="http://purl.org/dc/elements/1.1/"
   xmlns:cc="http://creativecommons.org/ns#"
   xmlns:rdf="http://www.w3.org/1999/02/22-rdf-syntax-ns#"
   xmlns:svg="http://www.w3.org/2000/svg"
   xmlns="http://www.w3.org/2000/svg"
   xmlns:sodipodi="http://sodipodi.sourceforge.net/DTD/sodipodi-0.dtd"
   xmlns:inkscape="http://www.inkscape.org/namespaces/inkscape"
   viewBox="0 0 22 22"
   id="svg3371"
   version="1.1"
   inkscape:version="0.91 r13725"
   sodipodi:docname="debug-step-into-instruction.svg">
  <metadata
     id="metadata3379">
    <rdf:RDF>
      <cc:Work
         rdf:about="">
        <dc:format>image/svg+xml</dc:format>
        <dc:type
           rdf:resource="http://purl.org/dc/dcmitype/StillImage" />
      </cc:Work>
    </rdf:RDF>
  </metadata>
  <sodipodi:namedview
     pagecolor="#ffffff"
     bordercolor="#666666"
     borderopacity="1"
     objecttolerance="10"
     gridtolerance="10"
     guidetolerance="10"
     inkscape:pageopacity="0"
     inkscape:pageshadow="2"
     inkscape:window-width="640"
     inkscape:window-height="480"
     id="namedview3377"
     showgrid="false"
     inkscape:zoom="28.954545"
     inkscape:cx="4.8524333"
     inkscape:cy="11"
     inkscape:current-layer="svg3371" />
  <defs
     id="defs3051">
    <style
       type="text/css"
       id="current-color-scheme">
      .ColorScheme-Text {
        color:#f2f2f2
      }
      </style>
  </defs>
  <path
     style="color:#f2f2f2;fill:currentColor;fill-opacity:1;stroke:none"
     class="ColorScheme-Text"
     d="m 11,9.680612 c -0.312394,0 -0.565932,0.253538 -0.565932,0.565933 0,0.312394 0.253538,0.565932 0.565932,0.565932 0.312395,0 0.565932,-0.253251 0.565932,-0.565932 0,-0.312682 -0.253251,-0.565933 -0.565932,-0.565933 z m 0,1.697797 c -0.312394,0 -0.565932,0.25325 -0.565932,0.565932 l 0,1.697796 c 0,0.312394 0.253538,0.565932 0.565932,0.565932 0.312395,0 0.565932,-0.253538 0.565932,-0.565932 l 0,-1.697796 c 0,-0.312395 -0.253251,-0.565932 -0.565932,-0.565932 z M 9.4908479,5.6813595 11,7.9450876 12.509152,5.6813595 Z M 9.8136027,9.001494 c -0.8044459,0 -1.1421791,0.265799 -1.1421791,0.94617 l 0,0.922583 c 0,0.420231 -0.015469,0.906374 -0.459816,0.906374 l -0.2299117,0 0,0.486354 0.2299117,0 c 0.4443623,0 0.459816,0.486144 0.459816,0.906374 l 0,0.922583 c 0,0.680371 0.3377332,0.94617 1.1421791,0.94617 l 0,-0.446558 c -0.5362922,0 -0.5438229,-0.180464 -0.5438229,-0.834161 l 0,-0.760469 c 0,-0.313496 -0.093273,-0.78073 -0.5452944,-0.974165 0.4520213,-0.193436 0.5452944,-0.659198 0.5452944,-0.972702 l 0,-0.767834 c 0,-0.653696 0.00755,-0.834161 0.5438229,-0.834161 z m 2.3668943,0 0,0.446558 c 0.536299,0 0.549723,0.180465 0.549723,0.834161 l 0,0.767834 c 0,0.313504 0.09327,0.779266 0.545302,0.972702 -0.452029,0.193435 -0.545302,0.660669 -0.545302,0.974165 l 0,0.760469 c 0,0.653697 -0.01336,0.834161 -0.549723,0.834161 l 0,0.446558 c 0.804453,0 1.148072,-0.265799 1.148079,-0.94617 l 0,-0.922583 c 0,-0.42023 0.03048,-0.906374 0.467189,-0.906374 l 0.222539,0 0,-0.486354 -0.222539,0 c -0.436704,0 -0.467196,-0.486143 -0.467189,-0.906374 l 0,-0.922583 c 0,-0.680371 -0.343626,-0.94617 -1.148079,-0.94617 z m -8.6123465,-4.0747105 14.8636995,0 C 18.746606,4.9267835 19,5.1801852 19,5.494934 L 19,16.43185 C 19,16.746606 18.746606,17 18.43185,17 L 3.5681505,17 C 3.2533942,17 3,16.746606 3,16.43185 L 3,5.494934 C 3,5.1801852 3.2533942,4.9267835 3.5681505,4.9267835 Z"
     id="path3375"
     inkscape:connector-curvature="0" />
</svg>
