<svg xmlns="http://www.w3.org/2000/svg" viewBox="0 0 22 22">
 <defs id="defs3051">
   <style type="text/css" id="current-color-scheme">
     .ColorScheme-Text {
       color:#f2f2f2;
     }
     </style>
 </defs>
   <path
      style="fill:currentColor;fill-opacity:1;stroke:none"
      d="m15.904744 8.699656 2.263728-1.5091595-2.263728-1.5091445zm-6.0911413.301831c-.8044459 0-1.1421791.265806-1.1421791.94617v.922582c0 .420231-.015469.906374-.459816.906374h-.2299117v.486355h.2299117c.4443623 0 .459816.486143.459816.906374v.922582c0 .680371.3377332.946171 1.1421791.946171v-.446558c-.5362922 0-.5438229-.180465-.5438229-.834161v-.76047c0-.313496-.093273-.780729-.5452944-.974165.4520213-.193436.5452944-.659198.5452944-.972709v-.767826c0-.653697.00755-.834161.5438229-.834161zm2.3668943 0v .446565c.536299 0 .549723.180465.549723.834161v.767827c0 .313511.09327.779273.545302.972709-.452029.193435-.545302.660669-.545302.974165v.760469c0 .653689-.01336.834161-.549723.834161v.446558c.804461 0 1.148072-.265799 1.148079-.94617v-.922583c0-.42023.03048-.906374.467196-.906374h.222532v-.486354h-.222532c-.436711 0-.467203-.486143-.467196-.906374v-.922583c0-.680371-.343618-.946177-1.148079-.946177zm-8.6123465-4.0747035h14.8636995c.314756 0 .56815.2533942.56815.5681429v10.9369236c0 .314756-.253394.56815-.56815.56815h-14.8636995c-.3147563 0-.5681505-.253394-.5681505-.56815v-10.9369236c0-.3147487.2533942-.5681429.5681505-.5681429z"
      class="ColorScheme-Text" />
</svg>
