<?xml version="1.0" encoding="UTF-8" standalone="no"?>
<svg
   xmlns:dc="http://purl.org/dc/elements/1.1/"
   xmlns:cc="http://creativecommons.org/ns#"
   xmlns:rdf="http://www.w3.org/1999/02/22-rdf-syntax-ns#"
   xmlns:svg="http://www.w3.org/2000/svg"
   xmlns="http://www.w3.org/2000/svg"
   xmlns:sodipodi="http://sodipodi.sourceforge.net/DTD/sodipodi-0.dtd"
   xmlns:inkscape="http://www.inkscape.org/namespaces/inkscape"
   viewBox="0 0 22 22"
   version="1.1"
   id="svg10"
   sodipodi:docname="dialog-align-and-distribute.svg"
   inkscape:version="0.92.2 5c3e80d, 2017-08-06">
  <metadata
     id="metadata16">
    <rdf:RDF>
      <cc:Work
         rdf:about="">
        <dc:format>image/svg+xml</dc:format>
        <dc:type
           rdf:resource="http://purl.org/dc/dcmitype/StillImage" />
      </cc:Work>
    </rdf:RDF>
  </metadata>
  <defs
     id="defs14" />
  <sodipodi:namedview
     pagecolor="#ffffff"
     bordercolor="#666666"
     borderopacity="1"
     objecttolerance="10"
     gridtolerance="10"
     guidetolerance="10"
     inkscape:pageopacity="0"
     inkscape:pageshadow="2"
     inkscape:window-width="1366"
     inkscape:window-height="701"
     id="namedview12"
     showgrid="false"
     inkscape:zoom="10.727273"
     inkscape:cx="11"
     inkscape:cy="11"
     inkscape:window-x="0"
     inkscape:window-y="0"
     inkscape:window-maximized="1"
     inkscape:current-layer="svg10" />
  <path
     transform="rotate(90)"
     style="fill:#f2f2f2;stroke-width:0.99875844"
     d="m 3.5000095,-19 h 4.9851141 c 0.277,0 0.5,0.223 0.5,0.5 v 12.000001 c 0,0.277 -0.223,0.5 -0.5,0.5 H 3.5000095 c -0.277,0 -0.5,-0.223 -0.5,-0.5 V -18.5 c 0,-0.277 0.223,-0.5 0.5,-0.5 z"
     id="rect2" />
  <path
     transform="rotate(90)"
     style="fill:#f2f2f2;stroke-width:0.99875844"
     d="m 13.475193,-12 h 5.024817 c 0.277,0 0.5,0.223 0.5,0.5 v 5 c 0,0.277 -0.223,0.5 -0.5,0.5 h -5.024817 c -0.277,0 -0.5,-0.223 -0.5,-0.5 v -5 c 0,-0.277 0.223,-0.5 0.5,-0.5 z"
     id="rect4" />
  <path
     transform="rotate(90)"
     style="fill:#f2f2f2;stroke-width:0.99875844"
     d="m 3.500253,-4.5 h 14.960092 c 0.277,0 0.5,0.223 0.5,0.5 v 0.5 c 0,0.277 -0.223,0.5 -0.5,0.5 H 3.500253 c -0.277,0 -0.5,-0.223 -0.5,-0.5 V -4 c 0,-0.277 0.223,-0.5 0.5,-0.5 z"
     id="rect6" />
</svg>
