<svg xmlns="http://www.w3.org/2000/svg" viewBox="0 0 22 22">
  <defs id="defs3051">
    <style type="text/css" id="current-color-scheme">
      .ColorScheme-Text {
        color:#f2f2f2
      }
      </style>
  </defs>
    <path
       style="fill:currentColor;fill-opacity:1;stroke:none"
       class="ColorScheme-Text"
       d="M 2.000005,10.10164 C 2.000005,6.18576 6.037455,3 10.999945,3 c 4.96262,0 9.00005,3.18579 9.00005,7.10164 0,3.91586 -4.03743,7.10165 -9.00005,7.10165 -0.41725,0 -0.83595,-0.0228 -1.24759,-0.0676 -1.91143,1.14253 -3.32248,1.76789 -4.19705,1.85931 -0.0304,0.003 -0.061,0.005 -0.091,0.005 -0.28091,0 -0.54092,-0.13172 -0.69576,-0.35259 -0.17305,-0.24709 -0.18435,-0.56055 -0.0301,-0.81649 0.008,-0.0122 0.68209,-1.17081 0.48738,-2.27755 -2.05337,-1.35233 -3.22577,-3.32814 -3.22577,-5.45174 z"
        />
</svg>
