<svg xmlns="http://www.w3.org/2000/svg" viewBox="0 0 22 22">
  <defs id="defs3051">
    <style type="text/css" id="current-color-scheme">
      .ColorScheme-Text {
        color:#f2f2f2
      }
      </style>
  </defs>
    <path
       style="fill:currentColor;fill-opacity:1;stroke:none"
       class="ColorScheme-Text"
       d="m 16.60547,5 c -0.27532,0 -0.51054,0.0942 -0.70313,0.28289 l -6.7714801,6.63651 -3.0332,-2.97993 c -0.19271,-0.1886 -0.42794,-0.28289 -0.70313,-0.28289 -0.27532,0 -0.50846,0.0943 -0.70117,0.28289 l -1.4043,1.37433 c -0.19271,0.18859 -0.28906,0.41676 -0.28906,0.6862 0,0.26932 0.0963,0.49773 0.28906,0.6862 l 3.73633,3.65849 1.4043,1.37242 c 0.19258,0.1886 0.42585,0.28289 0.70117,0.28289 0.27519,0 0.51041,-0.0944 0.70312,-0.28289 L 11.23828,15.34469 18.71094,8.02962 C 18.90352,7.84103 19,7.61286 19,7.34342 19.00013,7.0741 18.9035,6.8439 18.71094,6.65531 L 17.30664,5.28289 C 17.11406,5.09429 16.88066,5 16.60547,5 Z"
        />
</svg>
