<svg xmlns="http://www.w3.org/2000/svg" viewBox="0 0 22 22">
  <defs id="defs3051">
    <style type="text/css" id="current-color-scheme">
      .ColorScheme-Text {
        color:#f2f2f2
      }
      </style>
  </defs>
    <path
       style="fill:currentColor;fill-opacity:1;stroke:none"
       class="ColorScheme-Text"
       d="m 10.589848,2.9995125 c -0.255569,0 -0.509978,0.097 -0.7050785,0.291 l -5.0566406,4.5762 c -0.2106871,0.2106 -0.304535,0.4903 -0.2871094,0.7656 -0.017381,0.2758 0.07626,0.557 0.2871094,0.7676 l 5.0566406,4.5761995 c 0.3902005,0.3892 1.0219095,0.3892 1.4121095,0 0.39023,-0.3893 0.39023,-1.0209 0,-1.4102 l -4.3457032,-3.9335995 4.3457032,-3.9316 c 0.39023,-0.3893 0.39023,-1.0214 0,-1.4102 -0.1951,-0.1944 -0.451462,-0.291 -0.707031,-0.291 z m 0.820312,4.7324 c -0.25557,0 -0.51193,0.097 -0.707031,0.291 -0.390224,0.3889 -0.390224,1.0209 0,1.4102 l 4.345703,3.9315995 -4.345703,3.933601 c -0.390224,0.3893 -0.390224,1.0209 0,1.4102 0.390202,0.3893 1.021908,0.3893 1.412109,0 l 5.056641,-4.5762 c 0.210844,-0.2106 0.304485,-0.4918 0.287109,-0.7676 0.01738,-0.2753 -0.07644,-0.555 -0.287109,-0.7656 L 12.115238,8.0229125 c -0.1951,-0.1944 -0.449507,-0.291 -0.705078,-0.291 z"
        />
</svg>
