<svg xmlns="http://www.w3.org/2000/svg" viewBox="0 0 22 22">
 <defs id="defs3051">
   <style type="text/css" id="current-color-scheme">
     .ColorScheme-Text {
       color:#f2f2f2;
     }
     </style>
 </defs>
   <path
      style="fill:currentColor;fill-opacity:1;stroke:none"
      d="m16.255859 3c-.144224-.0000003-.282592.0579842-.384765.1601562l-1.228516 1.2265626 2.970703 2.96875 1.226563-1.2246094c.212775-.212841.210787-.5586436-.001953-.7714844l-2.195313-2.1972656c-.102239-.1021729-.242527-.1621094-.386719-.1621094zm-1.998047 1.7714844-.423828.4277344 2.96875 2.96875.425782-.4277344zm-.808593.8125-.427735.4257812 2.96875 2.96875.427735-.4257812zm-.8125.8105468-8.3652346 8.3652348c-.059597.05966-.1057911.133198-.1328125.21289l-1.109375 3.308594c-.0654137.196374-.0136344.410227.1328125.556641.1036758.103905.2426327.162103.3847656.162109.057969-.000033.1169103-.008204.1738281-.027344l3.3066407-1.111328c.080248-.02712.1533907-.071228.2128906-.130859l8.3652346-8.3652346z"
      class="ColorScheme-Text" />
</svg> 
