<svg xmlns="http://www.w3.org/2000/svg" viewBox="0 0 22 22">
  <defs id="defs3051">
    <style type="text/css" id="current-color-scheme">
      .ColorScheme-Text {
        color:#f2f2f2
      }
      </style>
  </defs>
  <g
     transform="translate(0,-1030.3622)">
    <path
       style="fill:currentColor;fill-opacity:1;stroke:none"
	 class="ColorScheme-Text"
       d="m 9.8347704,1033.3665 c -0.655156,0.022 -1.295777,0.1427 -1.919921,0.3612 -0.8323,0.2913 -1.55896,0.71 -2.183594,1.2578 -0.624634,0.5478 -1.136078,1.2151 -1.533203,2.0019 -0.397248,0.7869 -0.625727,1.6248 -0.683594,2.5116 -0.05787,0.8866 0.05995,1.7441 0.351563,2.576 0.29151,0.8316 0.711616,1.5593 1.259765,2.1834 0.548142,0.6244 1.214686,1.1363 2.001953,1.5333 0.787382,0.397 1.62442,0.6237 2.511719,0.6815 1.3652766,0.089 2.6282476,-0.2156 3.7890616,-0.912 l 2.986328,3.3904 c 0.207961,0.2502 0.479161,0.3864 0.814454,0.4082 0.322612,0.021 0.608435,-0.079 0.859375,-0.2988 0.25116,-0.2202 0.387163,-0.4921 0.408203,-0.8144 0.02155,-0.3284 -0.07429,-0.615 -0.289063,-0.8593 l -2.984375,-3.3983 c 0.841835,-1.0598 1.307461,-2.2724 1.396485,-3.6366 0.05787,-0.8867 -0.05798,-1.7463 -0.34961,-2.5779 -0.291503,-0.8318 -0.711616,-1.5594 -1.259765,-2.1835 -0.54815,-0.6243 -1.216632,-1.1344 -2.003907,-1.5313 -0.787495,-0.3969 -1.62442,-0.6256 -2.511718,-0.6835 -0.221825,-0.014 -0.441771,-0.017 -0.6601566,-0.01 z m 0.5058596,2.3924 c 1.147879,0.075 2.102317,0.5454 2.865234,1.414 0.762803,0.8685 1.106111,1.8762 1.03125,3.0232 -0.07487,1.1474 -0.546899,2.1028 -1.416016,2.8652 -0.869229,0.7623 -1.877397,1.106 -3.0253896,1.0312 -1.147879,-0.075 -2.102431,-0.5474 -2.865234,-1.416 -0.762796,-0.8686 -1.108072,-1.876 -1.033204,-3.0232 0.07486,-1.1472 0.546907,-2.101 1.416016,-2.8632 0.869116,-0.7623 1.879465,-1.106 3.0273436,-1.0312 z"
       id="path1074-6" />
  </g>
</svg>
