<svg xmlns="http://www.w3.org/2000/svg" viewBox="0 0 22 22">
 <defs id="defs3051">
   <style type="text/css" id="current-color-scheme">
     .ColorScheme-Text {
       color:#f2f2f2;
     }
     </style>
 </defs>
   <path
      style="fill:currentColor;fill-opacity:1;stroke:none"
      d="m18.765659 12.404817-1.436416-1.4055 1.436416-1.4055003c.208259-.19437.277642-.43728.208259-.72876-.08319-.28458-.263593-.46156-.541365-.53095l-1.956954-.49976.551714-1.93645c.08319-.28445.0175-.5275-.19792-.72876-.20111-.21519-.444005-.28112-.728677-.19781l-1.935996.55178-.49985-1.95728c-.06939-.28458-.246085-.46156-.530637-.53095-.284671-.0764-.527567-.0104-.728687.19781l-1.405489 1.44716-1.4053598-1.44716c-.2012398-.21519-.4441355-.28112-.728687-.19781-.2845415.0694-.4615138.24637-.5308868.53095l-.49972 1.95728-1.9362561-.55178c-.2845515-.0833-.5274372-.0174-.728677.19781-.2151685.20126-.2811019.44418-.1978002.72876l.5517247 1.93645-1.957084.49976c-.2775222.0694-.4580641.24637-.5412458.53095-.069493.29148 0 .53439.2081491.72876l1.4365362 1.4055003-1.4365362 1.4055c-.2081491.19436-.2775222.43728-.2081491.72876.083192.28458.2637236.46156.5412458.53095l1.957084.49963-.5517247 1.93645c-.083292.28458-.017398.52737.1978002.72876.2012398.21519.4441255.281.728677.19781l1.9362561-.55165.49972 1.95715c.069393.28458.2463453.46501.5308868.5413.2914508.0694.5343465 0 .728687-.20816l1.4053598-1.43668 1.405489 1.43681c.138766.15244.315729.22886.530767.22886.0487 0 .114489-.007.19792-.0207.284552-.0833.461384-.26375.530767-.5413l.49959-1.95715 1.936126.55165c.284672.0832.527567.0174.728677-.19781.215299-.20139.281102-.44431.19792-.72876l-.551584-1.93645 1.956824-.49964c.277902-.0694.458194-.24636.541365-.53094.06949-.29161.00013-.53452-.208259-.72889z"
      class="ColorScheme-Text" />
</svg> 
