<svg xmlns="http://www.w3.org/2000/svg" viewBox="0 0 22 22">
 <defs id="defs3051">
   <style type="text/css" id="current-color-scheme">
     .ColorScheme-Text {
       color:#f2f2f2;
     }
     </style>
 </defs>
   <path
      style="fill:currentColor;fill-opacity:1;stroke:none"
      d="m7 3c-.5517093 0-1 .4482577-1 1v2h1v-2h8v2h1v-2c0-.5517423-.447169-1-1-1z"
      class="ColorScheme-Text" />
   <path
      style="fill:currentColor;fill-opacity:1;stroke:none"
      d="m4 7c-.5517093 0-1 .4482247-1 1v5c0 .552798.4482577 1 1 1h2v4c0 .552798.4482577 1 1 1h8c .552831 0 1-.447202 1-1v-4h2c .552633 0 1-.447202 1-1v-5c0-.5517753-.4474-1-1-1zm13 1c .552831 0 1 .4482577 1 1 .000033.5527316-.447169 1-1 1-.552798 0-1-.4472354-1-1 0-.5517094.447202-1 1-1zm-10 5h8v5h-8z"
      class="ColorScheme-Text" />
</svg> 
