<svg xmlns="http://www.w3.org/2000/svg" viewBox="0 0 22 22">
  <defs id="defs3051">
    <style type="text/css" id="current-color-scheme">
      .ColorScheme-Text {
        color:#f2f2f2
      }
      </style>
  </defs>
    <path
       style="fill:currentColor;fill-opacity:1;stroke:none"
       class="ColorScheme-Text"
       d="M 4.77672,3 C 4.34579,3 4,3.35758 4,3.80078 L 4,18.19922 C 4,18.64242 4.34579,19 4.77672,19 l 12.44656,0 C 17.65421,19 18,18.64242 18,18.19922 L 18,3.80078 C 18,3.35758 17.65421,3 17.22328,3 L 4.77672,3 Z m 0.87737,9.06641 a 0.88559081,0.91079472 0 0 1 0.88687,0.91015 0.88559081,0.91079472 0 0 1 -0.88687,0.91211 0.88559081,0.91079472 0 0 1 -0.88496,-0.91211 0.88559081,0.91079472 0 0 1 0.88496,-0.91015 z m 2.15356,0 a 0.88559081,0.91079472 0 0 1 0.88686,0.91211 0.88559081,0.91079472 0 0 1 -0.88686,0.91015 0.88559081,0.91079472 0 0 1 -0.88497,-0.91015 0.88559081,0.91079472 0 0 1 0.88497,-0.91211 z m 2.17065,0 A 0.88559081,0.91079472 0 0 1 10.86517,12.97852 0.88559081,0.91079472 0 0 1 9.9783,13.88867 0.88559081,0.91079472 0 0 1 9.09332,12.97852 0.88559081,0.91079472 0 0 1 9.9783,12.06641 Z m 2.14785,0 a 0.88559081,0.91079472 0 0 1 0.88687,0.91211 0.88559081,0.91079472 0 0 1 -0.88687,0.91015 0.88559081,0.91079472 0 0 1 -0.88496,-0.91015 0.88559081,0.91079472 0 0 1 0.88496,-0.91211 z m 2.11367,0 a 0.88559081,0.91079472 0 0 1 0.88498,0.91211 0.88559081,0.91079472 0 0 1 -0.88498,0.91015 0.88559081,0.91079472 0 0 1 -0.88687,-0.91015 0.88559081,0.91079472 0 0 1 0.88687,-0.91211 z m 2.10609,0 a 0.88559081,0.91079472 0 0 1 0.88496,0.91211 0.88559081,0.91079472 0 0 1 -0.88496,0.91015 0.88559081,0.91079472 0 0 1 -0.88687,-0.91015 0.88559081,0.91079472 0 0 1 0.88687,-0.91211 z m -9.63782,2.19726 a 0.88559081,0.91079472 0 0 1 0.88496,0.91016 0.88559081,0.91079472 0 0 1 -0.88496,0.91211 0.88559081,0.91079472 0 0 1 -0.88498,-0.91211 0.88559081,0.91079472 0 0 1 0.88498,-0.91016 z m 2.15355,0 a 0.88559081,0.91079472 0 0 1 0.88497,0.91211 0.88559081,0.91079472 0 0 1 -0.88497,0.91016 0.88559081,0.91079472 0 0 1 -0.88687,-0.91016 0.88559081,0.91079472 0 0 1 0.88687,-0.91211 z m 2.17064,0 a 0.88559081,0.91079472 0 0 1 0.88497,0.91211 0.88559081,0.91079472 0 0 1 -0.88497,0.91016 0.88559081,0.91079472 0 0 1 -0.88496,-0.91016 0.88559081,0.91079472 0 0 1 0.88496,-0.91211 z m 2.14786,0 a 0.88559081,0.91079472 0 0 1 0.88497,0.91211 0.88559081,0.91079472 0 0 1 -0.88497,0.91016 0.88559081,0.91079472 0 0 1 -0.88687,-0.91016 0.88559081,0.91079472 0 0 1 0.88687,-0.91211 z m 2.11177,0 a 0.88559081,0.91079472 0 0 1 0.88498,0.91211 0.88559081,0.91079472 0 0 1 -0.88498,0.91016 0.88559081,0.91079472 0 0 1 -0.88497,-0.91016 0.88559081,0.91079472 0 0 1 0.88497,-0.91211 z m -9.63782,2.17774 a 0.88559081,0.91079472 0 0 1 0.88687,0.91211 0.88559081,0.91079472 0 0 1 -0.88687,0.91015 0.88559081,0.91079472 0 0 1 -0.88496,-0.91015 0.88559081,0.91079472 0 0 1 0.88496,-0.91211 z m 2.15356,0 a 0.88559081,0.91079472 0 0 1 0.88686,0.91211 0.88559081,0.91079472 0 0 1 -0.88686,0.91015 0.88559081,0.91079472 0 0 1 -0.88497,-0.91015 0.88559081,0.91079472 0 0 1 0.88497,-0.91211 z m 2.17065,0 A 0.88559081,0.91079472 0 0 1 10.86517,17.35352 0.88559081,0.91079472 0 0 1 9.9783,18.26367 0.88559081,0.91079472 0 0 1 9.09332,17.35352 0.88559081,0.91079472 0 0 1 9.9783,16.44141 Z m 2.14785,0 a 0.88559081,0.91079472 0 0 1 0.88687,0.91211 0.88559081,0.91079472 0 0 1 -0.88687,0.91015 0.88559081,0.91079472 0 0 1 -0.88496,-0.91015 0.88559081,0.91079472 0 0 1 0.88496,-0.91211 z m 2.11367,0 a 0.88559081,0.91079472 0 0 1 0.88498,0.91211 0.88559081,0.91079472 0 0 1 -0.88498,0.91015 0.88559081,0.91079472 0 0 1 -0.88687,-0.91015 0.88559081,0.91079472 0 0 1 0.88687,-0.91211 z m 2.10609,0 a 0.88559081,0.91079472 0 0 1 0.88496,0.91211 0.88559081,0.91079472 0 0 1 -0.88496,0.91015 0.88559081,0.91079472 0 0 1 -0.88687,-0.91015 0.88559081,0.91079472 0 0 1 0.88687,-0.91211 z"
        />
</svg>
