<svg xmlns="http://www.w3.org/2000/svg" viewBox="0 0 22 22">
 <defs id="defs3051">
   <style type="text/css" id="current-color-scheme">
     .ColorScheme-Text {
       color:#f2f2f2;
     }
     </style>
 </defs>
   <path
      style="fill:currentColor;fill-opacity:1;stroke:none"
      d="m12.800081 3.0000001c-.361105 0-.7213.1380119-.99698.414049l-7.1440508 6.4958813c-.2977968.2990136-.430759.6989006-.406177 1.0898086-.024554.391595.1082573.788813.406177 1.087855l7.1440508 6.497835c.55136.552761 1.444544.552761 1.995903 0 .551361-.552749.551361-1.44914 0-2.001889l-6.1412402-5.583801 6.1412402-5.5857553c.551361-.5527625.551361-1.4478329 0-1.9999346-.275679-.2760371-.637817-.414049-.998923-.414049zm2.62752 5.6775488c-1.282525 0-2.322402 1.0426868-2.322402 2.3300011 0 1.287316 1.039877 2.331956 2.322402 2.331956 1.282522 0 2.322399-1.04464 2.322399-2.331956 0-1.2873143-1.039877-2.3300011-2.322399-2.3300011z"
      class="ColorScheme-Text" />
</svg> 

