<svg xmlns="http://www.w3.org/2000/svg" viewBox="0 0 22 22">
 <defs id="defs3051">
   <style type="text/css" id="current-color-scheme">
     .ColorScheme-Text {
       color:#f2f2f2;
     }
     </style>
 </defs>
   <path
      style="fill:currentColor;fill-opacity:1;stroke:none"
      d="m11.824467 3.0039835c-.113785.016-.21561.076-.285157.168l-.835937 1.0996 2.664063 2.0215.833984-1.0996c.144821-.191.108883-.4626-.08203-.6074l-1.972657-1.4981c-.09172-.07-.208506-.1-.322265-.084zm-1.382813 1.6133-.289062.3828 2.662109 2.0215.291016-.3828zm-.5527338.7285-.2890625.3828 2.6640623 2.0215.289062-.3828zm-.5527344.7285-5.6933594 7.5059005c-.040559.053-.067389.1158-.080078.1816l-.5175781 2.7305c-.030344.162.032671.3261.1640625.4258.093045.071.2081773.099.3203125.084.045731-.01.091933-.02.1347656-.041l2.4902344-1.2344c.060375-.03.1118586-.073.1523437-.127l5.693359-7.5039005zm7.1660152 7.9239005c-.261774.001-.955951.046-2.064453.5625-.346531.1616-.635488.3444-1.03125.5625-.211272.1164-.968107.4942-1.25.625-.826029.3833-1.09974.4798-1.8125.75-.6898098.2616-1.4348833.5005-1.9394528.6894-2.1238241.7952-5.4082031.8125-5.4082031.8125v1s3.3283085.032 5.7519531-.875c.3214899-.1203.8812512-.3175 1.4062498-.5.807371-.2945 1.680837-.6585 2.408203-.9707.304783-.1414 1.01274-.491 1.3125-.6562.440402-.2427.733708-.4217.96875-.5313.513593-.3025 1.085104-.4823 1.658203-.4687-.04482.0002.173703.01.375.094.201298.084.424707.2336.59375.375.327463.3321.464591.5869.53125 1.0332-.02571.6823-.260427.8956-.75 1.2813-.323981.2146-.779573.2535-1.248047.2226v.9688c.784061 0 1.410887-.1543 1.779297-.3477.837074-.4774 1.247983-1.338 1.21875-2.1582-.005-.288-.07716-.5249-.21875-.8437-.141642-.3188-.343894-.676-.65625-.9375-.48207-.4234-.723268-.6094-1.625-.6875z"
      class="ColorScheme-Text" />
</svg> 
