<svg xmlns="http://www.w3.org/2000/svg" viewBox="0 0 22 22">
  <defs id="defs3051">
    <style type="text/css" id="current-color-scheme">
      .ColorScheme-Text {
        color:#f2f2f2
      }
      </style>
  </defs>
 <path 
     style="fill:currentColor;fill-opacity:1;stroke:none"      
	 class="ColorScheme-Text"
        d="m 13.47269,3.0078561 c -0.24778,0.0325 -0.48047,0.16582 -0.63086,0.38476 -0.16808,0.24467 -4.1218601,6.00265 -4.6308601,6.8691399 -0.25449,0.43329 -0.54071,1.13628 -0.77929,1.7793 l 2.05469,1.18945 c 0.44741,-0.52408 0.9255001,-1.12312 1.1835901,-1.5625 0.51494,-0.8766 3.60695,-7.1138199 3.73828,-7.3788999 0.20945,-0.42252 0.0508,-0.93207 -0.36133,-1.16797 -0.103,-0.059 -0.21272,-0.0954 -0.32422,-0.11133 -0.0836,-0.012 -0.1674,-0.0128 -0.25,-0.002 z m 1.52735,6.9921799 c -0.0586,0 -0.11706,0.0324 -0.15039,0.0957 l -2.01953,3.83008 c -0.42415,0.80984 -0.45691,1.83991 0,2.70703 0.68684,1.30352 2.21425,1.75331 3.4121,1.00586 1.19786,-0.74743 1.61264,-2.40935 0.92579,-3.71289 l -2.01758,-3.83007 c -0.0333,-0.0633 -0.0918,-0.0957 -0.15039,-0.0957 z m -7.8125001,2.48438 c -0.11202,0.0133 -0.22427,0.0349 -0.33594,0.0664 -0.53632,0.15198 -1.31271,0.58901 -1.96289,1.80273 -0.51619,0.96358 -0.32629,1.78773 -0.1582,2.51563 0.16062,0.69575 0.28841,1.24517 -0.1836,1.79492 -0.0464,0.054 -0.0592,0.12926 -0.0332,0.19531 0.0164,0.0415 0.0464,0.076 0.084,0.0977 0.0223,0.0127 0.0478,0.0201 0.0742,0.0234 1.1939,0.14809 2.97998,-0.54767 4.08203,-2.42382 0.50055,-0.85214 0.71486,-1.67117 0.6211,-2.36916 -0.0244,-0.18209 -0.0702,-0.35327 -0.13477,-0.51367 l -2.05273,-1.18945 z"
     />
</svg>
