<svg xmlns="http://www.w3.org/2000/svg" viewBox="0 0 22 22">
 <defs id="defs3051">
   <style type="text/css" id="current-color-scheme">
     .ColorScheme-Text {
       color:#f2f2f2;
     }
     </style>
 </defs>
   <path
      style="fill:currentColor;fill-opacity:1;stroke:none"
      d="m11.03714 3.0020835c-4.0983968.095-7.5048748 3.5815-7.4042967 7.7226995.019268.7933.1732815 1.5576.4316406 2.2754l1.1230469-.3672c-.2215213-.6016-.3561582-1.2423-.3769531-1.9082-.1093883-3.5030995 2.7650273-6.4586995 6.2265623-6.5605995 3.649645-.1074 6.724685 2.9177 6.824219 6.5605995.104589 3.8281-3.038229 7.0521-6.824219 7.1504-3.172705.082-5.9406186-2.0079-6.9726561-4.875l-1.0644531.3476c1.171463 3.3888 4.4591782 5.7254 8.0371092 5.6504 4.400439-.092 8.058078-3.8294 7.960938-8.2734-.09336-4.2710995-3.687711-7.8216995-7.960938-7.7226995zm-5.8496092 9.6308995c.8795094 2.3885 3.1980549 4.1252 5.8496092 4.0351 3.122757-.106 5.710966-2.7795 5.595703-5.9433-.107879-2.9612995-2.622067-5.4161995-5.595703-5.2968995-2.7665691.111-5.0582668 2.4896-4.9355467 5.2968995.023055.5273.151568 1.0269.3339844 1.5019l1.3964843-.455c-.1387263-.3297-.2387979-.6787-.265625-1.0469-.1473257-2.0219995 1.4897559-3.7520995 3.470703-3.8769995 2.219057-.14 4.11028 1.6775 4.230469 3.8769995.13274 2.429-1.842095 4.4942-4.230469 4.6113-2.0781678.102-3.8870197-1.2487-4.6015623-3.1094zm2.6445312-.8613c.5285788 1.256 1.7828663 2.1528 3.205078 2.0273 1.531309-.1352 2.793055-1.5008 2.621094-3.0742-.140889-1.2890995-1.301524-2.3561995-2.621094-2.1620995-1.010115.1486-1.8572362 1.1085-1.626953 2.1620995.035679.1632.1065733.3218.1992188.4668l1.4277342-.4668c.694605 0 .433377.8204 0 1.0117-.557771.2462-1.1240777-.07-1.4277342-.5449z"
      class="ColorScheme-Text" />
</svg> 
