<svg xmlns="http://www.w3.org/2000/svg" viewBox="0 0 22 22">
 <defs id="defs3051">
   <style type="text/css" id="current-color-scheme">
     .ColorScheme-Text {
       color:#f2f2f2;
     }
     </style>
 </defs>
   <path
      style="fill:currentColor;fill-opacity:1;stroke:none"
      d="m11.940509 3.0107352c-.406355.048-.795205.2516-1.068232.5997l-7.0286597 8.9588998c-.5460728.696-.4283811 1.7126.2612525 2.2637l4.7799528 3.8203c.6896714.5511 1.6968474.4324 2.2429004-.2636l7.028659-8.9589998c.546074-.696.428381-1.7125-.261253-2.2637l-4.779952-3.8203c-.344835-.2756-.768314-.3836-1.174668-.336zm.114176.75c.215905-.01.461231.078.688933.2598l4.588368 3.668c.22767.1819.366124.4014.408327.6152.0422.2138.0021.4273-.176103.6543l-4.389042 5.5937998-6.0997607-4.8749998 4.3890407-5.5938c.178172-.2271.374333-.3147.590237-.3223z"
      class="ColorScheme-Text" />
</svg> 
