<svg xmlns="http://www.w3.org/2000/svg" viewBox="0 0 22 22">
  <defs id="defs3051">
    <style type="text/css" id="current-color-scheme">
      .ColorScheme-Text {
        color:#f2f2f2
      }
      </style>
  </defs>
 <path 
     style="fill:currentColor;fill-opacity:1;stroke:none"      
	 class="ColorScheme-Text"
        d="M 11 3 C 6.568 3 3 6.568 3 11 C 3 15.432 6.568 19 11 19 C 15.432 19 19 15.432 19 11 C 19 6.568 15.432 3 11 3 z M 14 7 L 16 8.5 L 14 10 L 14 9 L 12.240234 9 C 12.24118 9.0079 11.404291 10.045972 10.628906 11.013672 L 12.240234 13 L 14 13 L 14 12 L 16 13.5 L 14 15 L 14 14 L 11.761719 14 C 11.761719 14 10.868772 12.881128 10 11.798828 C 9.131397 12.881128 8.2382812 14 8.2382812 14 L 6 14 L 6 13 L 7.7597656 13 L 9.3710938 11.013672 C 8.5955576 10.045972 7.7588201 9.01 7.7597656 9 L 6 9 L 6 8 L 8.1855469 8 L 10 10.238281 L 11.814453 8 L 14 8 L 14 7 z "
     />
</svg>
