<svg xmlns="http://www.w3.org/2000/svg" viewBox="0 0 22 22">
  <defs id="defs3051">
    <style type="text/css" id="current-color-scheme">
      .ColorScheme-Text {
        color:#f2f2f2
      }
      </style>
  </defs>
 <path 
     style="fill:currentColor;fill-opacity:1;stroke:none"      
	 class="ColorScheme-Text"
        d="M 4,3 C 3.446,3 3,3.446 3,4 l 0,14 c 0,0.554 0.446,1 1,1 l 14,0 c 0.554,0 1,-0.446 1,-1 L 19,4 C 19,3.446 18.554,3 18,3 L 4,3 Z m 6.99414,3 c 0.82204,0 1.489,0.24462 2.00391,0.73242 0.5149,0.47877 0.77343,1.09202 0.77343,1.8418 0,0.3252 -0.0862,0.656 -0.25781,0.99023 -0.17163,0.33424 -0.32543,0.57226 -0.46094,0.7168 -0.12646,0.1355 -0.30614,0.3125 -0.54101,0.5293 l -0.0684,0.0684 c -0.55104,0.49684 -0.82617,0.99339 -0.82617,1.49023 l 0,0.54102 -1.27344,0 0,-0.63672 c 0,-0.40651 0.0842,-0.7539 0.25586,-1.04297 0.17163,-0.2981 0.4746,-0.6455 0.9082,-1.04297 0.24391,-0.22583 0.41626,-0.39355 0.51563,-0.50195 0.1084,-0.11744 0.21118,-0.27588 0.31054,-0.47461 0.1084,-0.20777 0.16407,-0.41992 0.16407,-0.63672 0,-0.41554 -0.1372,-0.74902 -0.40821,-1.00195 C 11.82783,7.31937 11.46384,7.1934 10.9941,7.1934 c -0.77687,0 -1.31054,0.43357 -1.59961,1.30078 L 8.22848,8.0059 C 8.41818,7.49099 8.74433,7.02959 9.20504,6.62309 9.67478,6.20755 10.27143,6.00004 10.9941,6.00004 Z m -0.0137,8.15625 c 0.26197,0 0.47876,0.0908 0.65039,0.27148 0.18067,0.18067 0.26953,0.39746 0.26953,0.6504 0,0.25293 -0.0889,0.46972 -0.26953,0.65039 C 11.45919,15.90918 11.24241,16 10.98044,16 c -0.26197,0 -0.4834,-0.0908 -0.66406,-0.27148 -0.17164,-0.18067 -0.25782,-0.39746 -0.25782,-0.65039 0,-0.25294 0.0862,-0.46973 0.25782,-0.6504 0.18066,-0.18066 0.40209,-0.27148 0.66406,-0.27148 z"
     />
</svg>
