<svg xmlns="http://www.w3.org/2000/svg" viewBox="0 0 22 22">
 <defs id="defs3051">
   <style type="text/css" id="current-color-scheme">
     .ColorScheme-Text {
       color:#f2f2f2;
     }
     </style>
 </defs>
   <path
      style="fill:currentColor;fill-opacity:1;stroke:none"
      d="m6.6700649 2.99984-3.23828.01c-.10299.00034-.19637.0436-.26368.11133-.0673.0677-.10968.16065-.10937.26367l.0117 3.23828c.00066.20607.16702.37375.37304.37305.20599-.00066.37367-.16898.37305-.375l-.01-2.86524 2.86523-.01c.20598-.00065.3737-.16902.37305-.375-.00056-.20607-.16888-.37181-.375-.3711zm8.6894501 0c-.20612-.00071-.37444.16503-.375.3711-.00066.20598.16512.37435.37109.375l2.86719.01-.01 2.86523c-.00062.20603.16706.37434.37305.375.20602.0007.37239-.16698.37304-.37305l.0117-3.23828c.00031-.10302-.0421-.19597-.10937-.26367-.0673-.0677-.16069-.11099-.26367-.11133l-3.23825-.01zm-.92969 2.00586c-.47597 0-.91448.11698-1.3164.35156-.40197.23455-.72049.55312-.95508.95508-.23463.40197-.35352.84048-.35352 1.31641 0 .47597.11897.91635.35352 1.31836.23459.40188.55116.72049.95312.95508.40197.23458.84239.35156 1.31836.35156s.91448-.11698 1.31641-.35156c.40192-.23455.72049-.55316.95508-.95508.23454-.40197.35156-.84243.35156-1.31836 0-.47597-.11706-.91448-.35156-1.31641-.23459-.40192-.55316-.72049-.95508-.95508-.40201-.23458-.8404-.35156-1.31641-.35156zm-6.8593701.004c-.47597 0-.91449.11698-1.31641.35156-.40196.23455-.72049.55311-.95508.95508-.23463.40196-.35156.84048-.35156 1.3164 0 .47597.11702.9144.35156 1.31641.23459.40188.55312.72049.95508.95508.40197.23459.84044.35156 1.31641.35156s.91643-.11697 1.31836-.35156c.40192-.23455.71853-.55316.95312-.95508.2345501-.40196.3535201-.84048.3535201-1.31641 0-.47596-.11901-.91448-.3535201-1.3164-.23459-.40193-.5512-.72049-.95312-.95508-.40201-.23459-.84235-.35156-1.31836-.35156zm.0566 6.73633c-.47597 0-.91448.11697-1.31641.35156-.40196.23455-.72049.55312-.95508.95508-.23463.40197-.35156.84243-.35156 1.31836 0 .47597.11702.9144.35156 1.31641.23459.40188.55312.72049.95508.95507.40197.23459.84044.35157 1.31641.35157s.91448-.11698 1.3164-.35157c.40193-.23455.72049-.55315.95508-.95508.2345501-.40196.3515601-.84048.3515601-1.3164 0-.47597-.11705-.91644-.3515601-1.31836-.23459-.40193-.55315-.72049-.95508-.95508-.402-.23459-.84039-.35156-1.3164-.35156zm6.8027301 0c-.47601 0-.9164.11695-1.31836.35156-.402.23457-.72047.55308-.95508.95508-.23465.402-.35156.84044-.35156 1.31641 0 .476.117.91632.35156 1.31836.23461.40191.55308.72047.95508.95507.402.23461.84235.35157 1.31836.35157s.91445-.11696 1.31641-.35157c.40196-.23456.72047-.55312.95508-.95507.23456-.402.35156-.8424.35156-1.31836 0-.47601-.11704-.91445-.35156-1.31641-.23461-.40196-.55312-.72047-.95508-.95508-.40204-.23461-.84036-.35156-1.31641-.35156zm-11.0156201 3.25781c-.20603-.0007-.37239.16698-.37305.37304l-.0117 3.23829c-.0003.10301.0421.19597.10938.26367.0673.0677.16068.11099.26367.11133l3.23828.01c.20612.0007.37444-.16503.375-.3711.00066-.20598-.16512-.37435-.37109-.375l-2.86719-.01.01-2.86523c.00061-.20603-.16706-.37435-.37305-.375zm15.1425801 0c-.20599.00066-.37367.16897-.37305.375l.01 2.86523-2.86524.01c-.20597.00065-.3737.16902-.37304.375.00056.20607.16888.37181.375.3711l3.23828-.01c.10298-.00034.19637-.0436.26367-.11133.0673-.0677.10968-.16066.10938-.26367l-.0117-3.23828c-.00066-.20607-.16702-.37375-.37305-.37305z"
      class="ColorScheme-Text" />
</svg> 
