<svg xmlns="http://www.w3.org/2000/svg" viewBox="0 0 22 22">
 <defs id="defs3051">
   <style type="text/css" id="current-color-scheme">
     .ColorScheme-Text {
       color:#f2f2f2;
     }
     </style>
 </defs>
   <path
      style="fill:currentColor;fill-opacity:1;stroke:none"
      d="m3.2480469 3c-.20096-.00007-.3652344.1626213-.3652344.3632812v4.0234376c0 .2006599.1645344.3652343.3652344.3652343h.1699219v.5566407c0 .0932.071295.1601562.171875.1601562.0029999 0 .0038593-.0018731.0058593-.0019531h1.0898438c.0362 0 .0664062.0302062.0664062.0664062v.46875c0 .0362-.0302062.0664063-.0664062.0664063h-1.0664063c-.0774 0-.1231275.0292875-.1484375.0546875-.0499.05-.0527343.11323-.0527343.125v1.2460941c-.0000401.0108.002175.066658.046875.111328.0221999.0223.0624462.048828.1289062.048828h.5058594c.0362 0 .0644531.028253.0644531.064453v.470703c0 .0362-.0282531.064453-.0644531.064453h-.4765625c-.0802 0-.1265838.030841-.1523438.056641-.0492.0493-.0527343.109654-.0527343.121094v1.246093c-.00005.0103.0022749.062882.046875.107422.0244.0245.0706374.054688.1484374.054688h1.0722657c.0362 0 .0664062.030206.0664062.066406v.46875c0 .0362-.0302062.064453-.0664062.064453h-1.0761719c-.0767 0-.1225044.028635-.1464844.052735-.0432.0433-.0450218.095808-.0449218.105468v1.253906c-.0000401.0133.0017812.0821.0507812.13086.0288.0288.0679481.042969.1113281.042969h.5195313c.0362 0 .0644531.030206.0644531.066406v.46875c0 .0362-.0282531.066406-.0644531.066406h-.4980469c-.13441 0-.1835937.091727-.1835937.154297v1.251953c-.00097.0205-.0009613.089629.0429687.136719.0248.0266.0600563.041016.0976563.041016h1.1269531c.0362 0 .0664062.030206.0664062.066406v.46875c0 .0362-.0302062.066406-.0664062.066406h-1.0625c-.15051 0-.2050781.120132-.2050781.201172v.611328c0 .20628.1687299.375.375.375h2.7441406c.20628 0 .3730468-.16872.3730468-.375v-11.2382812-.1894532h11.8320318c.20627 0 .375-.16872.375-.375v-2.7441406c0-.20624-.16877-.3730469-.375-.3730469h-.232422c-.0933 0-.1875.0573588-.1875.1679688v1.0996093c0 .0362001-.028154.0644532-.064454.0644532h-.470703c-.0363 0-.064453-.0282531-.064453-.0644532v-1.0625c0-.0665999-.01914-.1207931-.05664-.1582031-.046-.0459-.100499-.046875-.111328-.046875h-1.236329c-.0732 0-.18164.0509094-.18164.1933594v.4863281c0 .0362-.030206.0664063-.066407.0664063h-.46875c-.0362 0-.064453-.0302063-.064453-.0664063v-.5l-.001953-.0039062c-.004-.0705-.052131-.1757813-.175781-.1757813h-1.25c-.058 0-.093301.025275-.113281.046875-.0443.0476-.045722.1112894-.044922.1308594v1.0898437c0 .0362001-.030206.0664063-.066406.0664063h-.46875c-.0362 0-.066407-.0302062-.066407-.0664063v-1.0664062c0-.0774-.029287-.1231275-.054687-.1484375-.0497-.0496-.110867-.0527344-.123047-.0527344h-.001953-1.246094c-.0619 0-.158203.0477513-.158203.1757813v.5039062c0 .0362-.030206.0664063-.066406.0664063h-.46875c-.0362 0-.066407-.0302063-.066407-.0664063v-.4746094c0-.0802999-.03084-.1285368-.05664-.1542968-.049-.049-.109284-.0507813-.121094-.0507813h-1.2460936c-.065 0-.1621094.0509094-.1621094.1933594v1.0742187c0 .0362001-.0282531.0664063-.0644531.0664063h-.46875c-.0362 0-.0664063-.0302062-.0664063-.0664063v-1.078125c0-.0766999-.0287343-.1205512-.0527344-.1445312-.043-.0429-.0952687-.0449219-.1054687-.0449219h-1.2539063c-.0867999 0-.1738281.0543663-.1738281.1601563v.5195312c0 .0362-.0302062.0664063-.0664062.0664063h-.4140625v-.7753907-.3125c0-.2006599-.1645344-.3632812-.3652344-.3632812z"
      class="ColorScheme-Text" />
</svg> 
