<svg xmlns="http://www.w3.org/2000/svg" viewBox="0 0 22 22">
 <defs id="defs3051">
   <style type="text/css" id="current-color-scheme">
     .ColorScheme-Text {
       color:#f2f2f2;
     }
     </style>
 </defs>
   <path
      style="fill:currentColor;fill-opacity:1;stroke:none"
      d="m3 3v1 14 1h15 1v-16h-1zm1 1h2v3 1h-1.0996094-.9003906zm3 0h1 1 1 2 1 1 1v3 1h-1v1h1v4h-1v1h1v4h-1-1-1-2-1-1-1v-4h1v-1h-1v-4h1v-1h-1v-1zm9 0h2v4h-1-1v-1zm-12 5h2v4h-2zm12 0h1 1v4h-1-1zm-12 5h2v4h-2zm12 0h1 1v4h-2v-3z"
      class="ColorScheme-Text" />
   
 <defs id="defs3051">
   <style type="text/css" id="current-color-scheme">
     .ColorScheme-Text {
       color:#da4453;
     }
     </style>
 </defs>
   <path
      style="fill:currentColor;fill-opacity:1;stroke:none"
      d="m14 18v-5.29297-4-4-.70703h-.70703-.29297v.29297l-4 4v-4.29297h-1v14h1v-.29297l4-4v4.29297zm-5-1.70703v-2.58594l4-4v2.58594zm0-4v-2.58594l4-4v2.58594z"
      class="ColorScheme-Text" />
   </svg> 
