<svg xmlns="http://www.w3.org/2000/svg" viewBox="0 0 22 22">
 <defs id="defs3051">
   <style type="text/css" id="current-color-scheme">
     .ColorScheme-Text {
       color:#f2f2f2;
     }
     </style>
 </defs>
   <path
      style="fill:currentColor;fill-opacity:1;stroke:none"
      d="m3 3v1h6 4v1 1h-4v1h4v2h-4v1h4v2h-4-6v1h6 4v2h-4v1h4v2h-4v1h9 1v-15-1h-10zm11 1h4v2h-3-1v-1zm0 3h1 3v2h-4zm0 3h4v2h-4zm0 3h4v2h-3-1zm-6 1-5 2.5 5 2.5zm6 2h1 3v2h-4v-.900391z"
      class="ColorScheme-Text" />
   
 <defs id="defs3051">
   <style type="text/css" id="current-color-scheme">
     .ColorScheme-Text {
       color:#3daee9;
     }
     </style>
 </defs>
   <path
      style="fill:currentColor;fill-opacity:1;stroke:none"
      d="m3 3v1 8 1h6v-1-2.7070312-5.2929688-1zm1 1h4v4.2929688l-4-4zm0 1.7070312 4 4v2.2929688h-.2929688l-3.7070312-3.7070312zm0 4 2.2929688 2.2929688h-2.2929688z"
      class="ColorScheme-Text" />
   </svg> 
