<svg xmlns="http://www.w3.org/2000/svg" viewBox="0 0 22 22">
 <defs id="defs3051">
   <style type="text/css" id="current-color-scheme">
     .ColorScheme-Text {
       color:#f2f2f2;
     }
     </style>
 </defs>
   <path
      style="fill:currentColor;fill-opacity:1;stroke:none"
      d="m3 3v6 10h1 15v-1-9h-1v4h-2v-4h-1v4h-2v-4-6h-1v6 4h-2v-4h-1v4h-2v-4h-1v4h-1-1v-4-6zm13.5 0-2.5 5h5zm-12.5 11h1 1v1 3h-2zm3 0h2v4h-2v-3zm3 0h2v4h-2zm3 0h2v1 3h-2zm3 0h1.099609.900391v4h-2v-3z"
      class="ColorScheme-Text" />
   
 <defs id="defs3051">
   <style type="text/css" id="current-color-scheme">
     .ColorScheme-Text {
       color:#3daee9;
     }
     </style>
 </defs>
   <path
      style="fill:currentColor;fill-opacity:1;stroke:none"
      d="m3 3v6h1 5.2929688 2.7070312 1v-6h-1-8zm1 1h .2929688l4 4h-4.2929688zm1.7070312 0h2.5859376l3.7070312 3.7070312v.2929688h-2.2929688zm4 0h2.2929688v2.2929688z"
      class="ColorScheme-Text" />
   </svg> 
