<svg xmlns="http://www.w3.org/2000/svg" viewBox="0 0 22 22">
 <defs id="defs3051">
   <style type="text/css" id="current-color-scheme">
     .ColorScheme-Text {
       color:#f2f2f2;
     }
     </style>
 </defs>
   <path
      style="fill:currentColor;fill-opacity:1;stroke:none"
      d="m17.381389 3.0017133c-.13926-.007-.28235.003-.42968.0293-1.19119.21259-2.44096 1.50441-3.3418 3.45703-.2499.54167-.60457.84611-1.08399.93164-.92009.16419-2.08434-.50622-2.7773396-1.19922-.14515-.14515-.38024-.14515-.52539 0l-.7207.7207 1.06445 1.06446c.13825.13824.13825.36175 0 .5-.13825.13824-.36375.13824-.50195 0l-1.0625-1.06446-.26758.26758c-.14524.14524-.14515.38019 0 .52539l6.0312496 6.0312497c.14511.14511.38011.14515.52539 0l1.48828-1.48828c.14511-.14515.14511-.38019 0-.52539-.693-.693-1.36341-1.85729-1.19922-2.7773397.0855-.47937.38997-.83409.93164-1.08399 1.95262-.90084 3.24444-2.15061 3.45703-3.3418.10509-.58942-.0595-1.12004-.47656-1.5371l-.004-.004c-.31281-.3128-.68964-.4843-1.10743-.50586zm-.0273.99609c.16574 0 .33057.0649.45703.19141.25292.25292.25292.6631 0 .91602-.25287.25287-.66305.25287-.91601 0-.25283-.25292-.25283-.6631 0-.91602.12646-.12646.29325-.19141.45898-.19141zm-10.1386696 4.74219-3.96485 3.9628897c-.33421.33422-.3343.87664 0 1.21094l.4375.4375 1.04297-.41016-.39258 1.06055 2.19336 2.19336 1.68555-.97852-.85742 1.80469.72656.72852c.3343.3343.87672.33421 1.21094 0l3.9628896-3.96485z"
      class="ColorScheme-Text" />
</svg> 
