<svg xmlns="http://www.w3.org/2000/svg" viewBox="0 0 22 22">
  <defs id="defs3051">
    <style type="text/css" id="current-color-scheme">
      .ColorScheme-Text {
        color:#f2f2f2
      }
      </style>
  </defs>
    <path
       style="fill:currentColor;fill-opacity:1;stroke:none"
       class="ColorScheme-Text"
       d="m 9.8338587,2.904358 c -0.65477,0.0221 -1.2942,0.14274 -1.91797,0.36133 -0.8318,0.29133 -1.55934,0.70999 -2.1836,1.25781 -0.62426,0.54782 -1.13436,1.21515 -1.53125,2.00195 -0.39701,0.78691 -0.62381,1.62496 -0.68164,2.51172 -0.0578,0.88677 0.0582,1.74425 0.34961,2.57618 0.29134,0.83168 0.71195,1.55933 1.25977,2.18359 0.54781,0.62437 1.21516,1.1362 2.00195,1.5332 0.78691,0.39701 1.623,0.62381 2.50977,0.68164 1.3644503,0.089 2.6269903,-0.21555 3.7871003,-0.91211 l 2.98243,3.39063 c 0.20783,0.2502 0.47936,0.38635 0.81445,0.4082 0.32242,0.021 0.60859,-0.0785 0.85937,-0.29883 0.25101,-0.22016 0.38718,-0.49203 0.40821,-0.81445 0.0215,-0.32846 -0.0744,-0.61503 -0.28906,-0.85937 l -2.98243,-3.39844 c 0.84133,-1.05983 1.30557,-2.27249 1.39453,-3.63672 0.0578,-0.88677 -0.0582,-1.74643 -0.3496,-2.57813 -0.29133,-0.8318 -0.71,-1.55933 -1.25782,-2.18359 -0.54782,-0.62426 -1.21515,-1.13436 -2.00195,-1.53125 -0.78702,-0.39702 -1.62495,-0.62576 -2.51172,-0.68359 -0.22169,-0.0145 -0.4419,-0.0171 -0.6601503,-0.01 z m 0.5058503,2.39258 c 1.14719,0.0748 2.10083,0.54546 2.86329,1.41406 0.76234,0.8686 1.10606,1.87625 1.03125,3.02344 -0.0748,1.1473 -0.54547,2.10289 -1.41407,2.86523 -0.86871,0.76234 -1.87808,1.10608 -3.0253903,1.03125 -1.14719,-0.0748 -2.10093,-0.54742 -2.86328,-1.41601 -0.76234,-0.86871 -1.10607,-1.87613 -1.03125,-3.02344 0.0748,-1.14719 0.54743,-2.10105 1.41602,-2.86328 0.86859,-0.76235 1.87624,-1.10607 3.0234303,-1.03125 z m -5.5390603,11.80273 c -0.554,0 -1,0.446 -1,1 0,0.554 0.446,1 1,1 0.554,0 1,-0.446 1,-1 0,-0.554 -0.446,-1 -1,-1 z m 4,0 c -0.554,0 -1,0.446 -1,1 0,0.554 0.446,1 1,1 0.554,0 1,-0.446 1,-1 0,-0.554 -0.446,-1 -1,-1 z m 4.0000003,0 c -0.554,0 -1,0.446 -1,1 0,0.554 0.446,1 1,1 0.554,0 1,-0.446 1,-1 0,-0.554 -0.446,-1 -1,-1 z"
        />
</svg>
