<svg xmlns="http://www.w3.org/2000/svg" viewBox="0 0 22 22">
  <defs id="defs3051">
    <style type="text/css" id="current-color-scheme">
      .ColorScheme-Text {
        color:#f2f2f2
      }
      </style>
  </defs>
 <path 
     style="fill:currentColor;fill-opacity:1;stroke:none"      
	 class="ColorScheme-Text"
        d="M 4.59961,3 C 4.15641,3 3.80078,3.35758 3.80078,3.80078 l 0,14.39844 C 3.80078,18.64242 4.15641,19 4.59961,19 l 12.80078,0 c 0.4432,0 0.79883,-0.35758 0.79883,-0.80078 l 0,-14.39844 C 18.19922,3.35758 17.84359,3 17.40039,3 L 4.59961,3 Z m 6.32617,2.34375 c 0.0693,0 0.14323,0.005 0.2207,0.0137 l 0.002,0 c 1.05094,0.0889 1.79427,0.44523 2.20899,1.06055 0.46095,0.6839 0.39591,1.51842 0.3164,1.95508 -0.007,0.0394 -0.0367,0.0711 -0.0762,0.0781 -0.0396,0.007 -0.0793,-0.0123 -0.0996,-0.0469 C 13.41547,8.26348 13.27403,8.05177 13.0742,7.83787 12.5894,7.319 11.98764,7.0449 11.33201,7.0449 c -0.0545,0 -0.11019,0.002 -0.16602,0.006 l 0,3.87696 c 0,0.7187 -0.53957,1.30848 -1.2832,1.40234 -0.0674,0.009 -0.13576,0.0137 -0.20312,0.0137 -0.7174,0 -1.3192,-0.48548 -1.40039,-1.12891 -0.0437,-0.34658 0.0636,-0.6913 0.30468,-0.9707 C 8.82504,9.96489 9.17,9.78502 9.55467,9.73648 c 0.22074,-0.0279 0.44396,-0.0101 0.65234,0.0527 l 0,-3.95312 c 0,-0.22711 0.18892,-0.49219 0.71875,-0.49219 z m -3.76367,8.3125 3.9082,0 c 0.30921,0 0.55664,0.24938 0.55664,0.55859 0,0.30921 -0.24743,0.5586 -0.55664,0.5586 l -3.9082,0 c -0.30921,0 -0.55664,-0.24939 -0.55664,-0.5586 0,-0.30921 0.24743,-0.55859 0.55664,-0.55859 z m 3.76758,1.88281 3.9082,0 c 0.30921,0 0.55664,0.24939 0.55664,0.5586 0,0.30921 -0.24743,0.55859 -0.55664,0.55859 l -3.9082,0 c -0.30921,0 -0.55664,-0.24938 -0.55664,-0.55859 0,-0.30921 0.24743,-0.5586 0.55664,-0.5586 z"
     />
</svg>
