<svg xmlns="http://www.w3.org/2000/svg" viewBox="0 0 22 22">
 <defs id="defs3051">
   <style type="text/css" id="current-color-scheme">
     .ColorScheme-Text {
       color:#f2f2f2;
     }
     </style>
 </defs>
   <path
      style="fill:currentColor;fill-opacity:1;stroke:none"
      d="m3.28772 4.2010398c-.159712 0-.28772.135568-.28772.304704v12.4583362l16 .03592v-10.6910722c0-.169136-.129488-.306264-.2892-.306264h-8.672808c-.293824.02752-.331376-.01352-.476576-.21876-.205912-.291824-.51732-1.077888-.720032-1.36256-.162704-.249232-.189024-.22032-.458872-.22032h-5.094792zm7.71228 4.1720562c.397616 0 .783968.08058 1.15972.240632.3758.16004.710432.38528 1.00184.676592l.531176-.55784c.05184-.05472.11216-.08126.182952-.08126.0708 0 .132744.02648.184432.08126.05184.0548.07672.120344.07672.19532v1.937584c0 .07496-.02496.14052-.07672.19532s-.113632.08125-.184432.08125h-1.829584c-.0708 0-.13264-.02648-.184432-.08125-.05168-.0548-.07672-.120344-.07672-.19532 0-.07496.02512-.13896.07672-.19376l.563632-.598456c-.403072-.39512-.877872-.592216-1.425304-.592216-.36492 0-.705096.09382-1.021024.281256-.315936.187496-.569232.446248-.759872.775032-.03.04904-.10252.217888-.216896.50628-.02184.06632-.06256.09843-.122464.09843h-.812984c-.03544 0-.0656-.0132-.091472-.04064-.02584-.02736-.0384-.05936-.0384-.09687v-.03128c.17704-.772992.543864-1.399592 1.102168-1.879768.55832-.48024 1.21196-.720344 1.960904-.720344zm-2.875696 3.87672h1.829592c.0708 0 .13268.02792.184432.08282.05176.05472.07672.118768.07672.193752 0 .07496-.02504.140568-.07672.19532l-.559208.59222c.193344.19036.411504.338344.656584.4422.245088.103872.500152.154696.764296.154696.36492 0 .705088-.09377 1.021024-.281264.31588-.187448.569184-.444776.759872-.773472.02992-.04904.102576-.217832.216888-.506264.02176-.0664.06264-.100008.122464-.100008h.783472c.03544 0 .06704.01336.09296.04064.02584.02744.0384.06096.0384.09845 0 .0144-.0016.02392-.0048.02968-.174336.77292-.53924 1.399576-1.0948 1.879768-.555552.480232-1.2058.720344-1.95204.720344-.397616 0-.78208-.0788-1.153824-.23752-.371736-.1586-.703048-.385544-.994464-.679712l-.528216.55784c-.05176.05472-.11216.08281-.18296.08281s-.13264-.02808-.184432-.08281c-.05176-.05472-.07672-.11884-.07672-.19376v-1.939144c0-.07496.02504-.139016.07672-.19376.05176-.05488.113584-.08282.184432-.08282z"
      class="ColorScheme-Text" />
</svg> 
