<svg xmlns="http://www.w3.org/2000/svg" viewBox="0 0 22 22">
  <defs id="defs3051">
    <style type="text/css" id="current-color-scheme">
      .ColorScheme-Text {
        color:#f2f2f2
      }
      </style>
  </defs>
 <path 
     style="fill:currentColor;fill-opacity:1;stroke:none"      
	 class="ColorScheme-Text"
        d="M 8.7363281 3 L 3.09375 17.966797 L 5.2246094 17.966797 L 6.6875 13.910156 L 12.980469 13.910156 L 14.970703 13.910156 L 10.910156 3 L 8.7363281 3 z M 9.78125 5.3613281 L 9.8652344 5.3613281 L 12.310547 12.113281 L 7.3359375 12.113281 L 9.78125 5.3613281 z M 18.396484 14.851562 C 18.266437 14.852033 18.137943 14.902395 18.039062 15.001953 L 15.287109 17.773438 L 12.517578 15.021484 C 12.318479 14.823804 11.996509 14.826275 11.798828 15.025391 C 11.600971 15.224491 11.601489 15.54638 11.800781 15.744141 L 14.931641 18.851562 C 15.031198 18.950387 15.162903 19.00047 15.292969 19 C 15.42297 18.99953 15.551502 18.949167 15.650391 18.849609 L 18.759766 15.71875 C 18.957526 15.519554 18.957008 15.197681 18.757812 15 C 18.658255 14.90116 18.526532 14.851092 18.396484 14.851562 z "
     />
</svg>
