<svg xmlns="http://www.w3.org/2000/svg" viewBox="0 0 22 22">
 <defs id="defs3051">
   <style type="text/css" id="current-color-scheme">
     .ColorScheme-Text {
       color:#f2f2f2;
     }
     </style>
 </defs>
   <path
      style="fill:currentColor;fill-opacity:1;stroke:none"
      d="m3 3v3h3v-1h3 4 3v1h3v-3h-3v1h-3-4-3v-1zm1 1h1v1h-1zm13 0h1v1h-1zm-14 12v3h3v-1h3v-1h-3v-1zm13 0v1h-3v1h3v1h3v-3zm-12 1h1v1h-1zm13 0h1v1h-1z"
      class="ColorScheme-Text" />
    <defs id="defs3051">
   <style type="text/css" id="current-color-scheme">
     .ColorScheme-Text {
       color:#3daee9;
     }
     </style>
 </defs>
   <path
      style="fill:currentColor;fill-opacity:1;stroke:none"
      d="m9 9.5 2 3 2-3z"
      class="ColorScheme-Text" />
</svg> 
