<svg xmlns="http://www.w3.org/2000/svg" viewBox="0 0 22 22">
 <defs id="defs3051">
   <style type="text/css" id="current-color-scheme">
     .ColorScheme-Text {
       color:#f2f2f2;
     }
     </style>
 </defs>
   <path
      style="fill:currentColor;fill-opacity:1;stroke:none"
      d="m6.9433594 3-3.9433594 6.828125v.171875h1.0566406l1.1542969-2h4.578125l1.1542965 2h1.056641v-.171875l-3.9433594-6.828125h-.0566406zm4.0566406 0v1h5v-1zm6 0v4l2-2zm-9.5 1.0371094 1.7109375 2.9628906h-3.421875zm4.5 1.9628906v1h4v-1zm1 3v1h3v-1zm4 0v4l2-2zm-14 3v1h13v-1zm0 3v1h13v-1zm14 0v4l2-2zm-14 3v1h13v-1z"
      class="ColorScheme-Text" />
</svg> 
