<svg xmlns="http://www.w3.org/2000/svg" viewBox="0 0 22 22">
 <defs id="defs3051">
   <style type="text/css" id="current-color-scheme">
     .ColorScheme-Text {
       color:#f2f2f2;
     }
     </style>
 </defs>
   <path
      style="fill:currentColor;fill-opacity:1;stroke:none"
      d="m6.9433594 3-3.9433594 6.828125v.171875h1.0566406l1.1542969-2h4.578125l1.1542965 2h1.056641v-.171875l-3.9433594-6.828125h-.0566406zm8.0566406 0v13h1v-13zm3 0v13h1v-13zm-10.5 1.0371094 1.7109375 2.9628906h-3.421875zm-4.5 6.9628906v5h1v-5zm3 0v5h1v-5zm3 0v5h1v-5zm3 0v5h1v-5zm-9 6 2 2 2-2zm6 0 2 2 2-2zm6 0 2 2 2-2z"
      class="ColorScheme-Text" />
</svg> 
