<svg xmlns="http://www.w3.org/2000/svg" viewBox="0 0 22 22">
 <defs id="defs3051">
   <style type="text/css" id="current-color-scheme">
     .ColorScheme-Text {
       color:#f2f2f2;
     }
     </style>
 </defs>
   <path
      style="fill:currentColor;fill-opacity:1;stroke:none"
      d="m8.2167969 3-5.2167969 14h1.6875l1.6679688-4.429688h5.5625002l.148437.429688h1.666016l-3.521484-10zm1.015625 1.6113281 2.1289061 6.6738279h-4.4882811zm4.7675781 8.3886719v2 1 2 1h1 2c1.108 0 2-.892 2-2 0-.81094-.481265-1.501896-1.171875-1.816406.10595-.20585.171875-.435284.171875-.683594 0-.831-.669-1.5-1.5-1.5h-1.5zm1 1h1.5c.277 0 .5.223.5.5s-.223.5-.5.5h-1.5zm0 2h1.5.5c.554 0 1 .446 1 1s-.446 1-1 1h-2z"
      class="ColorScheme-Text" />
</svg> 
