<svg xmlns="http://www.w3.org/2000/svg" viewBox="0 0 22 22">
  <defs id="defs3051">
    <style type="text/css" id="current-color-scheme">
      .ColorScheme-Text {
        color:#f2f2f2
      }
      </style>
  </defs>
 <path 
     style="fill:currentColor;fill-opacity:1;stroke:none"      
	 class="ColorScheme-Text"
        d="m 11.000033,2.999975 c -0.29336,0 -0.53125,0.23803 -0.53125,0.53125 l 0,1.23438 c 4e-5,0.29313 0.23792,0.53125 0.53125,0.53125 0.29365,0 0.53125,-0.23812 0.53125,-0.53125 l 0,-1.23438 c 0,-0.29322 -0.23757,-0.53125 -0.53125,-0.53125 z m -3.6953099,1.23438 c -0.13411,-0.0214 -0.27759,0.009 -0.39649,0.0957 -0.2369,0.17204 -0.28931,0.5031 -0.11718,0.74023 l 0.72656,1 c 0.10425,0.14313 0.26527,0.21875 0.42969,0.21875 0.10778,0 0.21624,-0.0332 0.31054,-0.10156 0.23697,-0.17213 0.29127,-0.50309 0.11914,-0.74023 l -0.72656,-1 c -0.0863,-0.11847 -0.21159,-0.19151 -0.3457,-0.21289 z m 7.3906199,0 c -0.13401,0.0214 -0.25941,0.0942 -0.3457,0.21289 l -0.72461,1 c -0.17213,0.23713 -0.11982,0.56813 0.11719,0.74023 0.0943,0.0684 0.20279,0.10156 0.31054,0.10156 0.16442,0 0.32759,-0.0756 0.43164,-0.21875 l 0.72461,-1 c 0.1721,-0.23714 0.11982,-0.5682 -0.11718,-0.74023 -0.11917,-0.0865 -0.26247,-0.11709 -0.39649,-0.0957 z m -3.69531,1.9121 c -2.1179099,0 -3.8339799,1.71624 -3.8339799,3.83399 0,0.89336 0.30702,1.714 0.82031,2.36523 0.4498,0.5707 0.87496,1.19336 1.24414,1.82032 l 0,1.27343 3.5156199,0 0,-1.24023 c 0.36578,-0.60979 0.84036,-1.31149 1.26758,-1.85352 0.51373,-0.65142 0.82031,-1.47129 0.82031,-2.36523 0,-2.11775 -1.71649,-3.83399 -3.83398,-3.83399 z m -6.1601599,1.29688 c -0.20648,0.0177 -0.39089,0.15604 -0.45898,0.36523 -0.0908,0.27858 0.061,0.57923 0.33984,0.66993 l 1.17578,0.38086 c 0.0549,0.0176 0.10966,0.0273 0.16407,0.0273 0.22391,0 0.43074,-0.14272 0.5039,-0.36719 0.0908,-0.27858 -0.061,-0.57925 -0.33984,-0.66992 l -1.17578,-0.38086 c -0.0704,-0.0227 -0.14016,-0.0313 -0.20899,-0.0254 z m 12.3203199,0.002 c -0.0686,-0.006 -0.13966,9e-4 -0.20899,0.0234 l -1.17383,0.38086 c -0.27881,0.0907 -0.43255,0.39111 -0.34179,0.66992 0.073,0.22427 0.28195,0.36719 0.50586,0.36719 0.0545,0 0.10757,-0.0101 0.16211,-0.0273 l 1.17578,-0.38086 c 0.27894,-0.0907 0.43044,-0.38919 0.33984,-0.66797 -0.0681,-0.209 -0.25321,-0.34737 -0.45898,-0.36523 z m -11.0527399,3.5918 c -0.0688,-0.006 -0.14059,9.2e-4 -0.21094,0.0234 l -1.17578,0.38086 c -0.27881,0.0904 -0.43067,0.39095 -0.33984,0.66992 0.0725,0.22446 0.28,0.36719 0.50391,0.36719 0.0541,0 0.10962,-0.01 0.16406,-0.0273 l 1.17578,-0.38086 c 0.27904,-0.0905 0.4306,-0.38913 0.33984,-0.66797 -0.0676,-0.209 -0.2505,-0.3473 -0.45703,-0.36524 z m 9.7871099,0 c -0.20609,0.0179 -0.39101,0.15624 -0.45898,0.36523 -0.0908,0.27888 0.0631,0.57731 0.34179,0.66797 l 1.17383,0.38282 c 0.0545,0.0177 0.10959,0.0254 0.16406,0.0254 0.22388,0 0.43074,-0.14305 0.50391,-0.36719 0.0906,-0.279 -0.0608,-0.57727 -0.33984,-0.66797 l -1.17578,-0.38281 c -0.0698,-0.0225 -0.14029,-0.0294 -0.20899,-0.0234 z m -8.0312499,2.60156 c -0.13432,0.0213 -0.26,0.0943 -0.3457,0.21289 l -0.72656,0.99805 c -0.17259,0.23713 -0.12022,0.5698 0.11718,0.74219 0.0938,0.0687 0.20235,0.10156 0.31055,0.10156 0.16442,0 0.32606,-0.0759 0.42969,-0.21875 l 0.72656,-1 c 0.17258,-0.23707 0.1202,-0.56781 -0.11719,-0.74023 -0.11816,-0.0867 -0.26021,-0.11697 -0.39453,-0.0957 z m 6.2734399,0 c -0.13414,-0.0212 -0.27769,0.01 -0.39649,0.0957 -0.23674,0.1723 -0.28784,0.50314 -0.11523,0.74024 l 0.72461,1 c 0.10357,0.14281 0.26518,0.21875 0.42969,0.21875 0.10817,0 0.2182,-0.0332 0.3125,-0.10157 0.23694,-0.17236 0.28966,-0.50502 0.11718,-0.74218 l -0.72656,-0.99805 c -0.0861,-0.11847 -0.21156,-0.19165 -0.3457,-0.21289 z m -4.5566399,2.40821 c -0.21974,0 -0.39844,0.17872 -0.39844,0.39843 0,0.21986 0.1787,0.39844 0.39844,0.39844 l 2.8378899,0 c 0.21973,0 0.39844,-0.17858 0.39844,-0.39844 4e-5,-0.21971 -0.17864,-0.39843 -0.39844,-0.39843 l -2.8378899,0 z m -0.1875,1.39648 c 0,0.49474 0.38686,0.89564 0.8749999,0.92383 0.054,0.35729 0.35977,0.63281 0.73242,0.63281 0.37226,0 0.67866,-0.27539 0.73242,-0.63281 0.48726,-0.0288 0.875,-0.42938 0.875,-0.92383 l -3.2148399,0 z"
     />
</svg>
