<svg xmlns="http://www.w3.org/2000/svg" viewBox="0 0 22 22">
  <defs id="defs3051">
    <style type="text/css" id="current-color-scheme">
      .ColorScheme-Text {
        color:#f2f2f2
      }
      </style>
  </defs>
    <path
       style="fill:currentColor;fill-opacity:1;stroke:none"
       class="ColorScheme-Text"
       d="m 3,7.5988775 c -7e-5,-0.41113 0.14791,-0.82218 0.44404,-1.1329 0.59211,-0.62146 1.56655,-0.62124 2.15899,3e-4 l 7e-5,0 5.39752,5.6652295 5.39588,-5.6635095 c 0.59206,-0.62147 1.56645,-0.62132 2.1588,2.3e-4 2e-5,2e-5 3e-5,3e-5 6e-5,7e-5 3e-5,2e-5 4e-5,3e-5 7e-5,6e-5 0.59268,0.62159 0.59274,1.64478 3e-4,2.26628 l -6.47509,6.7962995 c -0.29601,0.31063 -0.68934,0.46913 -1.07939,0.46906 -0.38975,-7e-5 -0.78312,-0.15854 -1.07928,-0.46923 l -7e-5,0 L 3.4444,8.7321275 C 3.14819,8.4212275 3.00006,8.0100275 3,7.5988775 Z"
       />
</svg>
