<svg xmlns="http://www.w3.org/2000/svg" viewBox="0 0 22 22">
 <defs id="defs3051">
   <style type="text/css" id="current-color-scheme">
     .ColorScheme-Text {
       color:#f2f2f2;
     }
     </style>
 </defs>
   <path
      style="fill:currentColor;fill-opacity:1;stroke:none"
      d="m4.8300781 3c-.2867649.0010368-.573078.1124232-.7910156.3320312-.4358758.4390391-.4331803 1.1479316.0058594 1.5839844l6.1093751 6.0644534-6.0664064 6.109375c-.4358759.439003-.4331796 1.148108.0058594 1.583984.439005.436266 1.1498861.43357 1.5859375-.005859l6.8535155-6.904297c.217903-.219519.327209-.506182.326172-.792969-.001036-.286645-.112511-.572971-.332031-.791015l-6.9042971-6.8535161c-.2196084-.2180261-.5062038-.3272087-.7929688-.3261719zm11.4570309 6a2 2 0 0 0 -2 2 2 2 0 0 0 2 2 2 2 0 0 0 2-2 2 2 0 0 0 -2-2z"
      class="ColorScheme-Text" />
</svg> 
