<svg xmlns="http://www.w3.org/2000/svg" viewBox="0 0 22 22">
  <defs id="defs3051">
    <style type="text/css" id="current-color-scheme">
      .ColorScheme-Text {
        color:#f2f2f2
      }
      </style>
  </defs>
    <path
       style="fill:currentColor;fill-opacity:1;stroke:none"
       class="ColorScheme-Text"
       d="m 4.500038,4.1251423 c 0.001,0.28675 0.1139,0.57299 0.33612,0.79102 l 6.18463,6.0644497 -6.14113,6.10937 c -0.44097,0.43901 -0.43851,1.14811 0.006,1.58399 0.44441,0.43599 1.16406,0.43357 1.60548,-0.006 l 6.93793,-6.9043 c 0.22058,-0.21952 0.3312,-0.50618 0.33019,-0.79297 -0.001,-0.28664 -0.1139,-0.57296 -0.33612,-0.79101 L 6.433798,3.3261723 c -0.44462,-0.43578 -1.16226,-0.43335 -1.6035,0.006 -0.22048,0.21952 -0.33127,0.50622 -0.33019,0.79297 z m 11.1177,0.11914 0.0336,13.5390597 c 0.002,0.39067 0.14404,0.7589 0.37961,0.98633 0.23577,0.22756 0.54249,0.29155 0.81856,0.16992 l 0.0217,-0.01 c 0.37905,-0.16703 0.63092,-0.63894 0.62874,-1.17383 l -0.0316,-13.5390597 c -0.002,-0.39047 -0.14365,-0.75824 -0.37962,-0.98633 -0.23579,-0.22766 -0.54241,-0.2916 -0.81856,-0.16992 l -0.0217,0.01 c -0.37921,0.16703 -0.6329,0.63894 -0.63073,1.17383 z"
       />
</svg>
