<svg xmlns="http://www.w3.org/2000/svg" viewBox="0 0 22 22">
  <defs id="defs3051">
    <style type="text/css" id="current-color-scheme">
      .ColorScheme-Text {
        color:#f2f2f2
      }
      </style>
  </defs>
 <path 
     style="fill:currentColor;fill-opacity:1;stroke:none"      
	 class="ColorScheme-Text"
        d="M 1.3596459,3.0011934 C 1.1600106,3.0011934 1,3.1705934 1,3.3819934 l 0,15.5729996 20,0.045 0,-13.3638996 c 0,-0.2114 -0.161855,-0.3828 -0.36149,-0.3828 l -10.8410183,0 c -0.3672933,0.034 -0.4142224,-0.017 -0.5957212,-0.2734 -0.2573828,-0.3648 -0.6466509,-1.3474 -0.9000369,-1.7032 -0.2033816,-0.3116 -0.2362877,-0.2754 -0.5735891,-0.2754 l -6.3684986,0 z m 9.6255991,6.4983 c 0.148062,-5e-4 0.296111,0.059 0.409444,0.1778 l 3.565104,3.7481996 c 0.226868,0.2384 0.227079,0.6252 0.0019,0.8652 -0.225033,0.2401 -0.590394,0.2423 -0.817042,0 l -3.153818,-3.3166 -3.1316852,3.3401 c -0.225124,0.24 -0.5922201,0.2422 -0.818886,0 -0.2268016,-0.2383 -0.2270124,-0.6271 -0.00189,-0.8672 L 10.575812,9.6733934 c 0.112571,-0.12 0.261455,-0.1811 0.409443,-0.1817 z"
     />
</svg>
