<svg xmlns="http://www.w3.org/2000/svg" viewBox="0 0 22 22">
 <defs id="defs3051">
   <style type="text/css" id="current-color-scheme">
     .ColorScheme-Text {
       color:#f2f2f2;
     }
     </style>
 </defs>
   <path
      style="fill:currentColor;fill-opacity:1;stroke:none"
      d="m1.3596459 3.0011934c-.1996353 0-.3596459.1694-.3596459.3808v15.5729996l20 .045v-13.3638996c0-.2114-.161855-.3828-.36149-.3828h-10.8410183c-.3672933.034-.4142224-.017-.5957212-.2734-.2573828-.3648-.6466509-1.3474-.9000369-1.7032-.2033816-.3116-.2362877-.2754-.5735891-.2754h-6.3684986zm9.6255991 6.4983c.148062-.0005.296111.059.409444.1778l3.565104 3.7481996c.226868.2384.227079.6252.0019.8652-.225033.2401-.590394.2423-.817042 0l-3.153818-3.3166-3.1316852 3.3401c-.225124.24-.5922201.2422-.818886 0-.2268016-.2383-.2270124-.6271-.00189-.8672l3.5374402-3.7735996c.112571-.12.261455-.1811.409443-.1817z"
      class="ColorScheme-Text" />
</svg> 
