<svg xmlns="http://www.w3.org/2000/svg" viewBox="0 0 22 22">
  <defs id="defs3051">
    <style type="text/css" id="current-color-scheme">
      .ColorScheme-Text {
        color:#f2f2f2;
      }
      </style>
  </defs>
 <path 
       style="fill:currentColor;fill-opacity:1;stroke:none"
	 class="ColorScheme-Text"
        d="M 6 3 L 2 11 L 6 19 L 20 19 L 20 3 L 6 3 z M 11.435547 7 L 11.435547 7.5917969 C 10.724827 7.5917969 10.707031 7.8309556 10.707031 8.6972656 L 10.707031 9.7148438 C 10.707031 10.130314 10.583415 10.747556 9.984375 11.003906 C 10.583415 11.260256 10.707031 11.879462 10.707031 12.294922 L 10.707031 13.302734 C 10.707031 14.169044 10.724727 14.408203 11.435547 14.408203 L 11.435547 15 C 10.369447 15 9.9140725 14.647754 9.9140625 13.746094 L 9.9140625 12.523438 C 9.9140625 11.966527 9.8736619 11.322266 9.2949219 11.322266 L 9 11.322266 L 9 10.677734 L 9.2949219 10.677734 C 9.8736619 10.677734 9.9140725 10.033473 9.9140625 9.4765625 L 9.9140625 8.2539062 C 9.9140625 7.3522463 10.369447 7 11.435547 7 z M 14.572266 7 C 15.638356 7 16.085938 7.3522463 16.085938 8.2539062 L 16.085938 9.4765625 C 16.085938 10.033473 16.106443 10.677734 16.695312 10.677734 L 17 10.677734 L 17 11.322266 L 16.695312 11.322266 C 16.106443 11.322266 16.085938 11.966527 16.085938 12.523438 L 16.085938 13.746094 C 16.085938 14.647754 15.638356 15 14.572266 15 L 14.572266 14.408203 C 15.282966 14.408203 15.292969 14.169044 15.292969 13.302734 L 15.292969 12.294922 C 15.292969 11.879462 15.416585 11.260256 16.015625 11.003906 C 15.416585 10.747556 15.292969 10.130314 15.292969 9.7148438 L 15.292969 8.6972656 C 15.292969 7.8309556 15.282966 7.5917969 14.572266 7.5917969 L 14.572266 7 z "
     />
</svg>
