<svg xmlns="http://www.w3.org/2000/svg" viewBox="0 0 22 22">
 <defs id="defs3051">
   <style type="text/css" id="current-color-scheme">
     .ColorScheme-Text {
       color:#f2f2f2;
     }
     </style>
 </defs>
   <path
      style="fill:currentColor;fill-opacity:1;stroke:none"
      d="m6 3-4 8 4 8h14v-16zm5.435547 4v .5917969c-.71072 0-.728516.2391587-.728516 1.1054687v1.0175782c0 .4154702-.123616 1.0327122-.722656 1.2890622.59904.25635.722656.875556.722656 1.291016v1.007812c0 .86631.017696 1.105469.728516 1.105469v.591797c-1.0661 0-1.5214745-.352246-1.5214845-1.253906v-1.222656c0-.556911-.0404006-1.201172-.6191406-1.201172h-.2949219v-.644532h.2949219c.57874 0 .6191506-.644261.6191406-1.2011715v-1.2226563c0-.9016599.4553845-1.2539062 1.5214845-1.2539062zm3.136719 0c1.06609 0 1.513672.3522463 1.513672 1.2539062v1.2226563c0 .5569105.020505 1.2011715.609374 1.2011715h.304688v.644532h-.304688c-.588869 0-.609374.644261-.609374 1.201172v1.222656c0 .90166-.447582 1.253906-1.513672 1.253906v-.591797c.7107 0 .720703-.239159.720703-1.105469v-1.007812c0-.41546.123616-1.034666.722656-1.291016-.59904-.25635-.722656-.873592-.722656-1.2890622v-1.0175782c0-.86631-.010003-1.1054687-.720703-1.1054687z"
      class="ColorScheme-Text" />
</svg> 
