<svg xmlns="http://www.w3.org/2000/svg" viewBox="0 0 22 22">
  <defs id="defs3051">
    <style type="text/css" id="current-color-scheme">
      .ColorScheme-Text {
        color:#f2f2f2
      }
      </style>
  </defs>
    <path
       style="fill:currentColor;fill-opacity:1;stroke:none"
       class="ColorScheme-Text"
       d="m 19,14.401123 c 7e-5,0.41113 -0.14791,0.82218 -0.44404,1.1329 -0.59211,0.62146 -1.56655,0.62124 -2.15899,-3e-4 l -7e-5,0 L 10.99938,9.8684925 5.6035,15.532003 c -0.59206,0.62147 -1.56645,0.62132 -2.1588,-2.3e-4 -2e-5,-2e-5 -3e-5,-3e-5 -6e-5,-7e-5 -3e-5,-2e-5 -4e-5,-3e-5 -7e-5,-6e-5 -0.59268,-0.62159 -0.59274,-1.64478 -3e-4,-2.26628 L 9.91936,6.4690625 c 0.29601,-0.31063 0.68934,-0.46913 1.07939,-0.46906 0.38975,7e-5 0.78312,0.15854 1.07928,0.46923 l 7e-5,0 6.4775,6.7986405 c 0.29621,0.3109 0.44434,0.7221 0.4444,1.13325 z"
       />
</svg>
