<svg xmlns="http://www.w3.org/2000/svg" viewBox="0 0 22 22">
  <defs id="defs3051">
    <style type="text/css" id="current-color-scheme">
      .ColorScheme-Text {
        color:#f2f2f2
      }
      </style>
  </defs>
 <path 
     style="fill:currentColor;fill-opacity:1;stroke:none"      
	 class="ColorScheme-Text"
        d="m 11.195312,3.0018277 c -0.36394,-0.006 -0.72847,0.009 -1.0918,0.0469 -1.1030804,0.11675 -2.1486904,0.42718 -3.1210904,0.92383 l -0.6543,-0.6875 c -0.23175,-0.24223 -0.64026,-0.14291 -0.73438,0.17773 l -1.1640603,3.97266 c -0.0941,0.32238 0.19563,0.62508 0.52149,0.54492 l 4.0195303,-0.97656 c 0.32585,-0.0784 0.44467,-0.48065 0.21289,-0.72461 l -0.54492,-0.57031 c 0.54021,-0.20912 1.10847,-0.34526 1.6992204,-0.40625 1.0839,-0.11327 2.18568,0.0412 3.18945,0.44726 0.84517,0.34155 1.61848,0.85998 2.25976,1.51172 0.16207,0.16381 0.4234,0.177 0.59766,0.0254 l 1.05469,-0.91601 c 0.1882,-0.16381 0.19986,-0.45159 0.0273,-0.63282 -0.86957,-0.90267 -1.92905,-1.61933 -3.08789,-2.08984 -1.00898,-0.40908 -2.0918,-0.62704 -3.18359,-0.64649 z m 5.85351,11.0175803 -4.01953,0.97657 c -0.32587,0.0784 -0.44466,0.48064 -0.21289,0.7246 l 0.54492,0.57032 c -0.54021,0.20911 -1.10847,0.34526 -1.69922,0.40625 -1.08391,0.11327 -2.1856804,-0.0412 -3.1894504,-0.44727 -0.84517,-0.34155 -1.61846,-0.85996 -2.25976,-1.51172 -0.16209,-0.1638 -0.4234,-0.177 -0.59766,-0.0254 l -1.0546903,0.91602 c -0.18818,0.1638 -0.19986,0.45156 -0.0273,0.63281 0.86956,0.90268 1.9290503,1.61934 3.0878903,2.08984 1.34528,0.54544 2.8220604,0.75124 4.2753904,0.59961 1.10308,-0.11675 2.14871,-0.42718 3.12109,-0.92382 l 0.6543,0.6875 c 0.23177,0.2422 0.64027,0.1429 0.73437,-0.17774 l 1.16407,-3.97266 c 0.0941,-0.32238 -0.19562,-0.62506 -0.52149,-0.54492 z"
     />
</svg>
