<svg xmlns="http://www.w3.org/2000/svg" viewBox="0 0 22 22">
 <defs id="defs3051">
   <style type="text/css" id="current-color-scheme">
     .ColorScheme-Text {
       color:#f2f2f2;
     }
     </style>
 </defs>
   <path
      style="fill:currentColor;fill-opacity:1;stroke:none"
      d="m11 3a8 8 0 0 0 -8 8 8 8 0 0 0 8 8 8 8 0 0 0 8-8 8 8 0 0 0 -8-8zm0 2c .075988 0 .133614.026459.173828.0800781l1.207031 1.6621094 1.955079-.6308594c.062336-.0268096.12837-.0173114.195312.0273438.058142.0446552.085937.1023633.085938.1738281v2.0507812l1.957031.6425782c.071465.0222865.116837.0676594.134765.1347656.022287.0714648.012789.1372525-.027343.1953125l-1.205079 1.6601565 1.205079 1.662109c.040132.053537.049794.119407.027343.195313-.017928.066941-.0633.110443-.134765.132812l-1.957031.642578v2.050782c0 .071381-.027796.129172-.085938.173828-.066942.044655-.132894.054153-.195312.027343l-1.955079-.628906-1.207031 1.660156c-.044655.057978-.102363.087891-.173828.087891s-.129173-.029913-.173828-.087891l-1.2070314-1.660156-1.9550781.628906c-.0625009.02681-.1282886.017312-.1953125-.027343-.05806-.044656-.0878906-.102447-.0878906-.173828v-2.050782l-1.9550782-.642578c-.0714646-.022451-.1169199-.065953-.1347656-.132812-.0222865-.075988-.0128706-.141776.0273438-.195313l1.2050781-1.662109-1.2050781-1.6601565c-.0402144-.05806-.0496303-.1238477-.0273438-.1953125.0178457-.0670239.0633009-.1123969.1347656-.1347656l1.9550782-.6425782v-2.0507812c0-.0714648.0298306-.1291729.0878906-.1738281.0670239-.0446552.1328116-.0541534.1953125-.0273438l1.9550781.6308594 1.2070314-1.6621094c.040214-.0535369.097922-.0800781.173828-.0800781zm0 2.1367188c-.522622 0-1.0223825.1013952-1.4980469.3046874-.4756644.2032101-.8862.4780792-1.2324219.8242188-.3461395.3462219-.6210087.7587106-.8242187 1.234375-.20321.4757467-.3046875.973471-.3046875 1.496094 0 .522704.1014775 1.0223.3046875 1.498047.2032923.475664.4780792.886201.8242187 1.232421.3461398.346141.7567575.620927 1.2324219.824219.4757467.20321.9754249.304688 1.4980469.304688s1.022465-.101478 1.498047-.304688c.475747-.20321.8862-.478078 1.232422-.824219.346139-.34622.620925-.756757.824219-1.232421.203127-.475747.304687-.975425.304687-1.498047 0-.52254-.101478-1.0203473-.304687-1.496094-.203294-.4756644-.47808-.8881531-.824219-1.234375-.346222-.3461396-.756675-.6210086-1.232422-.8242188-.475582-.2032921-.975507-.3046874-1.498047-.3046874zm-1.4628906 1.7773437c.3682952 0 .6679686.2976128.6679686.6660156 0 .368618-.2996734.6679689-.6679686.6679689-.3684028-.000108-.6660156-.2993509-.6660156-.6679689 0-.3682952.2976128-.6660156.6660156-.6660156zm3.0253906 0c .368295 0 .667969.2976128.667969.6660156 0 .368618-.299566.6679689-.667969.6679689-.368188-.000108-.666016-.2993509-.666016-.6679689 0-.3682952.297721-.6660156.666016-.6660156zm-3.7402344 2.9453125c.1265309 0 .2472904.072994.2988282.197266.2987892.719267 1.0382142 1.185547 1.8847652 1.185547.8274 0 1.56373-.465742 1.875-1.185547.070797-.163651.260393-.238981.423829-.167969.163865.070689.238765.260177.167968.423828-.413485.95619-1.381601 1.574219-2.466797 1.574219-1.1083279 0-2.0812936-.621-2.4804684-1.582031-.0684299-.164621.0091012-.353445.1738282-.421876.0404553-.016676.0817306-.023437.1230468-.023437z"
      class="ColorScheme-Text" />
</svg> 
