<svg xmlns="http://www.w3.org/2000/svg" viewBox="0 0 22 22">
 <defs id="defs3051">
   <style type="text/css" id="current-color-scheme">
     .ColorScheme-Text {
       color:#f2f2f2;
     }
     </style>
 </defs>
   <path
      style="fill:currentColor;fill-opacity:1;stroke:none"
      d="m11 3c-1.6116721 0-2.9195054 1.2943289-2.9433594 2.9003906-1.4027538-.7823156-3.1785585-.2962001-3.984375 1.0996094-.8058164 1.3956918-.3398766 3.176372 1.0390625 4-1.3788999.823707-1.8449182 2.604269-1.0390625 4 .8058557 1.39577 2.5816212 1.881964 3.984375 1.099609.0238147 1.606062 1.3316873 2.900469 2.9433594 2.900391 1.611711 0 2.919505-1.294407 2.943359-2.900391 1.402754.782277 3.178637.29624 3.984375-1.099609.805856-1.39577.339799-3.176372-1.039062-4 1.378861-.823707 1.844957-2.6042689 1.039062-4-.805855-1.3957311-2.58166-1.881925-3.984375-1.0996094-.023932-1.605944-1.331726-2.9003906-2.943359-2.9003906zm0 5.3027344c1.489499 0 2.697266 1.2076881 2.697266 2.6972656 0 1.489578-1.207728 2.697266-2.697266 2.697266-1.4895383 0-2.6972656-1.207688-2.6972656-2.697266 0-1.4895775 1.2077273-2.6972656 2.6972656-2.6972656zm0 1.1972656a1.5 1.5 0 0 0 -1.5 1.5 1.5 1.5 0 0 0 1.5 1.5 1.5 1.5 0 0 0 1.5-1.5 1.5 1.5 0 0 0 -1.5-1.5z"
      class="ColorScheme-Text" />
</svg> 
