<svg xmlns="http://www.w3.org/2000/svg" viewBox="0 0 22 22">
 <defs id="defs3051">
   <style type="text/css" id="current-color-scheme">
     .ColorScheme-Text {
       color:#f2f2f2;
     }
     </style>
 </defs>
   <path
      style="fill:currentColor;fill-opacity:1;stroke:none"
      d="m3.162515 9.3882635c-.0266.1302148-.0501.2615397-.0703.3939045-.0202.1324447-.0372.265899-.0509.400414-.0273.2689-.0413.541729-.0413.817918 0 .276169.014.548998.0413.817948.0137.134464.0306.267969.0509.400394.0202.132365.0437.26377.0703.393895.0266.130134.0565.259219.0893.386974.0658.25558.14384.50627.23359.751311.0448.122495.0927.24368.14325.363265.0506.119586.10404.237771.16016.354366.0281.0583.0569.116196.0863.173714.0589.114945.12046.228321.18471.339996.19268.335017.40891.654764.64641.957043.11878.151104.24281.297838.37194.439922.0861.0948.17436.187363.2649.277819.0904.0905.18312.178833.27782.26492.42619.387355.89437.729311 1.39694 1.01831.11168.0642.22503.125875.34004.184732.22998.117796.46639.224712.70861.320278.12108.0478.24369.0927.36758.134605.80539.272549 1.66836.420323 2.5658.420323.61184 0 1.2075-.069 1.78-.198992.26723-.0607.52948-.134545.78582-.221281.12393-.0419.2464-.0868.36758-.134535.2422-.0955.47861-.202492.70859-.320348.115-.0589.22839-.120475.34001-.184672.5026-.288939.97078-.631005 1.39696-1.01831.0948-.0861.18737-.174473.27783-.26492.0904-.0905.17884-.183113.26493-.277809.12909-.142044.25319-.288778.37191-.439932.18793-.239081.36201-.489301.52214-.749131.0423-.0687.084-.137845.12429-.207972.0643-.111615.12588-.224991.18474-.339986.0294-.0575.0582-.115396.0863-.173664.0563-.116535.10961-.23473.16019-.354366.0506-.119645.0984-.24077.14324-.363315.0897-.245041.16777-.495701.23359-.751261.0329-.127835.0627-.25684.0893-.386964.0266-.130245.0501-.26157.0704-.393965.0202-.132415.0372-.2659.0509-.400384.0273-.2689.0414-.541729.0414-.817918 0-.276159-.014-.549028-.0414-.817918-.0137-.134515-.0306-.2679693-.0509-.400414-.0202-.1323648-.0437-.2637797-.0704-.3939045-.0266-.1301249-.0565-.2592498-.0893-.3869748-.0658-.2555499-.14386-.5062401-.23359-.7512804-.0224-.061298-.0456-.1221852-.0695-.1827828-.0716-.1816229-.14973-.3600058-.23401-.534899-.0281-.058298-.0569-.1161754-.0863-.1736931-.0589-.1149655-.12049-.228351-.18474-.3399966-.19268-.3350468-.40888-.6547642-.64638-.9570423-.11878-.1510941-.24281-.2978283-.37197-.4399227-.0861-.094696-.17436-.1873626-.26487-.2778191-.0904-.090496-.18312-.1788329-.27782-.2648896-.18346-.1667534-.37485-.3248672-.57326-.4741513-.26253-.1975322-.5375-.379525-.82371-.5441286-.11168-.064197-.22506-.125845-.34001-.1847027-.0523-.026799-.10502-.052898-.15792-.078497-.0635-.030699-.12742-.060898-.19184-.089996-.027-.0122-.0542-.023699-.0813-.035599-.0917-.040299-.18404-.079297-.2776-.1161755-.001-.00053-.003-.0009499-.004-.002-.0996-.039198-.20054-.076097-.30212-.1113956-.0205-.007-.0409-.014699-.0615-.021599-.23692-.080197-.47884-.1492241-.72509-.2071318-.077-.018099-.15423-.035399-.23199-.051298-.056-.011499-.11235-.022099-.1688-.032399-.42079-.076497-.85304-.1197853-1.29402-.127665-.0486-.0008999-.0971-.002-.14601-.002-.0829 0-.16547.002-.24779.004-.80855.024599-1.58707.1688234-2.31803.4161637-.1239.041898-.24648.086896-.36758.1345747-.0375.014799-.0744.030299-.11165.045598-.0831.034199-.16564.069297-.24729.1061658-.11816.053498-.2347.1096057-.34968.1685433-.115.058898-.22836.1204853-.34004.1847028-.44928.2583798-.87101.559118-1.25998.8967347-.0461.039998-.0918.080397-.13698.1215152-.0947.086097-.1874.1744431-.27782.2648995-.0904.090397-.17884.1830828-.26491.2778091-.12912.1420344-.25319.2887686-.37194.4399227-.23753.3021981-.45375.6220355-.64643.9570523-.0643.1116456-.12585.2250211-.18471.3399966-.0294.057498-.0582.1154155-.0863.1736832-.0843.1748931-.16231.3532761-.234.5349089-.0239.060598-.0471.1214852-.0695.1827428-.0897.2450404-.16776.4957105-.23358.7512904-.0325.127585-.0624.2566999-.089.3868248zm6.48175-5.8378702c.0157.026499.0287.057198.067.068797.0749-.038798.14957.003.23205 0 .0804-.003.15214-.039598.24069-.025799.1565.024499.3751.1774631.49841.094496.031-.020999.0237-.057198.0517-.1115556.0223-.043498.0571-.091596.0785-.1452043.0623-.002.12466-.002.18729-.002.51736 0 1.02282.052298 1.51135.151594-.0205.053898-.0877.029899-.14411.055898-.0529.024499-.0727.075197-.12893.085797-.1563.029399-.28584-.039198-.42112-.034199-.006.058498.0669.092596.10312.1113956.12261.064297.22243.055498.39529.051598.0886-.002.19038.026399.26649-.025799.0482-.032899.0457-.1054858.086-.1457842.0172-.016999.0425-.034099.0709-.048698.0849.019999.16914.041798.25302.064597-.0141.057898-.10779.043898-.10899.1214052.0598.035799.19883-.019599.25257-.080797.0208.006.0417.012299.0624.018599.12158.036998.24187.076797.36081.1196153.16956.061098.33624.1280849.49998.2006421-.0315.018599-.065.042398-.0926.042198-.0711-.00045-.10141-.095296-.18066-.060198-.007.091896.0973.1290949.1633.1715332.0714.045898.14646.091696.17185.1716233-.0699.1481841-.18147-.008-.29217-.008-.12199-.00087-.3.2317809-.40395.042898.0259-.1001261.13631-.1156754.16329-.2145115-.0237.004-.0466.011699-.0695.020899-.0409.016199-.0811.037999-.12283.060398-.0547.029399-.11218.058698-.17733.073197-.0599.0132-.11833.01-.1719.025599-.10285.030099-.17471.1059458-.2835.1460642-.0425.015599-.0933.0108-.13757.025599-.10377.034599-.22811.096596-.33514.1545139-.10944.059098-.23286.1212352-.30081.1801729-.0367.031699-.13223.1442443-.12893.1800029.004.051098.10072.067997.10312.1202053-.002.031699-.0558.099896-.0171.1458643.0352.041898.10567.008.18038.017099.13133.016299.21726.1245851.318.1801729.0762.041998.1893.092096.27531.1029459.11808.0148.25022-.034399.26633.060098.0156.090796-.11115.1231951-.12026.1801729.0636.083897-.0432.1238951-.0429.1974022.00027.059498.0733.1488641.1374.1542539.0866.007.21342-.085097.24941-.1715332.0428-.102926.0246-.2424705.10312-.3174275.40052.011.73932-.1815729.71351-.5918867-.003-.040498-.0256-.092696-.0171-.1373146.0125-.066297.12675-.1219952.11156-.2058419.0432-.013299.069-.048198.0911-.087397.0329-.058498.0586-.125345.11981-.1474042.004-.002.008-.004.0126-.005.035-.008.0717-.0009199.1102.0105.0686.020299.14308.055198.22495.049598.0417-.003.0957-.040098.13762-.034199.084.0117.13455.1150855.19769.1630036.0558.042598.11469.028999.12892.085697-.0165.095196-.0828.098796-.0774.1862727.00011.00095-.00005.002-.00005.002.006.078597.0881.1382646.12893.1460343.0627.011699.15236-.021899.2149-.051598.0676-.031899.12921-.100856.18818-.1487741.0843.064597.16718.1308248.24866.1987421.009.038199.0158.072597.0188.095796.012.092796-.0125.1635935-.008.2489902.011.1446643.19366.1299548.2835.2057519.0271.022999.0377.081697.0603.1115656.0437.058098.0963.058098.10312.1200252.0161.1481942-.13455.1606937-.12048.3260772-.0311.064097-.10944.060198-.10312.1457843.01.1354346.20495.031699.25788.1373146.0287.056798-.005.099096-.0258.1800029.0667.079297.0662.2058419-.0514.2060119-.0715 0-.0912-.076697-.16346-.094496-.0402-.01-.0949-.008-.14604-.017099-.0438-.008-.0959-.020799-.1374-.025799-.10611-.012599-.221.018199-.28375-.042898.10228-.1356147.23817-.2692594.36968-.3860448.0391-.034899.12302-.058798.10312-.128675-.0732-.064197-.16302.004-.23205.042898-.0725.040698-.15893.099396-.24072.1115656-.14216.021099-.33073-.041598-.44688.034199-.0161.064797.13223.039598.11157.1373446-.0568.009-.1107.013899-.15449-.025799-.04-.035899-.0171-.089897-.043-.1115556-.044-.036499-.20971-.046398-.2837-.034199-.0903.014699-.17017.068697-.1806.1457843.10846.050698.28736-.052198.3267.077297-.0595.1067857-.19945.1655534-.18066.3087078.007.055298.0732.1291249.12049.1373446.0476.008.0743-.038899.1202-.034499.0486.005.0376.059998.0947.051598.0827-.035299.12851-.151184.2233-.1457842.11375.1378445-.10267.2050019-.2233.2487302-.13757.049798-.31646.076297-.42126.1202852-.0549.022899-.26283.2235712-.29222.068397-.021-.1118356.10289-.079497.12893-.1715332-.13304-.025799-.25699.057198-.37807.1031759-.17274.065198-.4656.1065258-.50729.3002282-.008.038799.0169.1113156-.008.1371446-.0206.020799-.14388.024599-.19774.042898-.0829.028399-.15521.089097-.20643.102916-.0387.010599-.0957.008-.12027.017399-.0683.026399-.0935.1186553-.17184.1800029-.0321.024999-.10338.043298-.12893.068597-.0445.044198-.0504.1549539-.12893.1715332-.0499.004-.0905-.037498-.13757-.009-.006.1094357.0387.2582898-.009.3689355-.10181.082797-.21354.1414244-.34378.2144815-.072.040598-.13654.050898-.22352.094396-.0617.030699-.11814.1039559-.18913.1457843-.16411.096396-.36224.2105417-.36098.4547421.00028.052898.0276.1098556.0343.1716232.004.036399-.004.071897 0 .1115556.0102.089697.0753.203892 0 .26585-.11568-.0474-.26284-.0635-.34376-.145785-.0222-.084696.0448-.1545036.0345-.2316206-.008-.061898-.0955-.1723232-.14632-.1802629-.0523-.008-.10052.047198-.15452.042898-.0643-.005-.12397-.093296-.20646-.1029259-.1209-.0141-.20988.027499-.34378.009-.12963.069097-.16755.1921624-.32642.1800029-.0559-.004-.1072-.046798-.17188-.060098-.0701-.014499-.17643-.039199-.24941-.034099-.14632.01-.25241.1148355-.37809.1800029-.11089.057698-.2679.1293749-.30083.24888-.0181.0643-.003.154954-.0258.214482-.0152.0392-.0484.0741-.0688.111305-.0964.175733-.17626.408024-.10312.660784.0109.0375.10662.248951.14607.291679.0443.0474.17473.118715.24916.120035.063.001.13673-.032.19775-.0429.0707-.0125.15932-.0137.22357-.0342.18583-.0594.14912-.310248.33515-.394774.0812-.0366.17514-.044.31794-.0513.0454.0381.0667.104876.0603.162893-.005.0438-.0465.0835-.0688.145925-.0195.0547-.0236.118885-.043.163063-.0256.0578-.0827.100096-.10312.154484-.0134.0353-.006.0793-.0171.111336-.0198.0565-.0955.0964-.0603.154474.18404.0731.40675-.0208.56735.009.0678.0123.20748.0931.20622.197373-.00084.078-.0603.129084-.0688.214501-.0104.107366-.0554.238981-.0601.325907-.008.142375.2092.388005.36098.386045.1634-.002.25872-.162254.4556-.0771.0654.0282.13435.133905.20649.128675.0595-.004.14931-.108286.18907-.180263.0484-.0877.0519-.161574.1374-.205812.0922-.0477.1657-.0247.28375-.0687.0527-.0195.0986-.0531.14604-.0858.0417-.0285.0856-.103476.13757-.0516.0686.0684-.084.107036-.0258.180263.11922.063.18021-.117245.26655-.119985.0275-.00086.12283.0535.17185.0857.067.044.0898.105715.16324.120035.0471.009.12288-.018.18912-.009.0877.0125.13998.0877.20644.0857.081-.002.11982-.0901.18913-.102946.15172-.0277.20817.0169.27497.111555.0749.0129.0775-.0864.1461-.0513-.0376.0748.0128.109155.0429.171533.0195.04.0163.0685.0345.0858.041.039.12021.039.18032.0771.0634.0399.0992.113966.17191.197423.0749.0854.20082.173773.3008.180012.0945.006.17132-.0267.24942-.0171.1778.0218.2883.110416.4127.205982.0695.0533.13218.0904.15449.154284.0157.0446.008.104406.0258.154424.038.106866.19408.158484.13763.343156.0258.0542.0837.0737.14604.111566.0499.0303.0921.0943.14604.102946.035.006.0729-.0106.10312-.009.0977.007.16472.0446.24942.0773.0525.0202.11981.028.15476.0516.0436.0294.0493.128225.10312.154284.0352.0171.11333-.007.17191 0 .0922.0106.21745.0671.3008.0687.0506.001.0925-.0206.13746-.0171.10435.008.18633.0738.26728.147434-1.03543 1.669195-2.70124 2.908016-4.66263 3.381437-.007-.0752-.028-.150844-.0313-.225801-.007-.163064.0181-.278289-.008-.428963-.0199-.113966-.0447-.288609-.086-.360326-.046-.0797-.22685-.215321-.31795-.266009-.0602-.0334-.13222-.0451-.19774-.0772-.13997-.0686-.41128-.213362-.47271-.351787-.0178-.0399-.0154-.0927-.0345-.137174-.0373-.0879-.1161-.164154-.17185-.24896-.10617-.161804-.1919-.364796-.30086-.531879-.0551-.0849-.10284-.181163-.16324-.248741-.0354-.0399-.1487-.0773-.16324-.137284-.0193-.0793-.0781-.188223-.0688-.24895.0124-.0819.17216-.148225.1719-.222932-.00028-.0635-.0853-.100546-.10312-.154423-.0434-.131105.0254-.208222.0773-.317398.0171-.0359.0339-.0936.0517-.120035.0315-.0472.0955-.0605.13743-.111566.0234-.0286.0382-.0882.0688-.128725.0653-.0867.17082-.119165.19769-.197372.0219-.0637.0347-.382385.008-.488971-.015-.0618-.0725-.113095-.0944-.171533-.0389-.103536-.048-.216741-.15482-.214512-.0659.001-.11241.0741-.15477.120036-.0102.0611-.005.127135-.0688.145814-.0977.0288-.13517-.102666-.24917-.137175-.0453-.0138-.11766-.013-.14604-.0257-.0832-.0373-.11002-.158813-.19774-.206042-.0733-.0391-.13614-.0256-.1806-.0858-.0185-.0414-.004-.116096-.008-.171593-.0942-.055-.17403-.26023-.28372-.308658-.0727-.0323-.18404-.0293-.275-.0601-.0428-.0145-.0757-.0332-.12046-.0429-.0551-.0123-.11184-.013-.15451-.0344-.17017-.0843-.262-.357476-.47274-.351626-.0898.002-.17643.0862-.25788.0857-.081-.00045-.21665-.0645-.3182-.111566-.1055-.0489-.22229-.0756-.30931-.120035-.0703-.0359-.1192-.101686-.18063-.128925-.0471-.0208-.11592-.0245-.15451-.0427-.0549-.026-.11226-.0815-.1806-.128925-.0649-.0448-.13503-.113326-.13757-.171374-.003-.0672.0618-.124335.0688-.188922.0222-.204302-.12867-.351126-.22357-.471832-.0703-.0897-.15281-.165713-.22333-.24873.004-.0551.004-.065 0-.120035-.0534-.0518-.0983-.128505-.15476-.206012-.051-.069897-.15043-.1444943-.16327-.2228912-.0158-.096396.0367-.1811329 0-.2747092-.0612-.1552939-.2772-.085097-.24941.1201953.008.056598.0877.1326147.11184.1887325.0247.057198.0199.128505.043.1974022.0222.065997.0888.1230254.11185.1973924.0365.117465.0353.24401.0688.317437.0295.0652.13827.126885.0773.205842-.0814.0169-.11269-.0643-.16327-.111565-.0282-.0263-.13049-.0761-.14604-.137145-.013-.0505.0321-.118495.0171-.180253-.0295-.121065-.27438-.124145-.27525-.24874-.00045-.078197.10242-.087497.10335-.1631436.00067-.082697-.11311-.152804-.13757-.2229812-.0223-.064298-.026-.1668335-.0343-.2573499-.008-.084997.002-.1833528-.0174-.2489002-.0176-.058898-.10637-.1399645-.16327-.1716133-.0753-.041798-.13502-.024499-.17188-.085697-.0321-.053498-.0532-.1653035-.0601-.2229812-.0124-.1031759-.003-.2159615-.009-.3260772-.006-.1102656-.017-.2160415 0-.3345368.0425-.082997.12004-.1238951.1634-.2060919.0302-.057198.0345-.1278349.0686-.1886825.063-.1120556.20015-.2156016.29236-.3260672.0994-.1189953.19098-.2329908.24916-.3690155.0209-.048298.0768-.1552939.0688-.2144815-.0113-.082497-.1671-.1505141-.15479-.2487402.008-.060798.0946-.059998.12048-.1200253.0133-.030999.0251-.1174954.0258-.1545139.001-.082697-.0425-.1689834-.0258-.2573699.0141-.075397.12655-.1059458.0688-.1887326-.0573-.081997-.16019.044198-.22357-.009-.0582-.048798.0117-.1076458.0171-.1973722.002-.035699-.0209-.076497-.0171-.102946.005-.038299.0801-.1029259.0601-.1286749-.0311-.039299-.065-.1185753-.11363-.1818828.95867-.7668299 2.10768-1.3059286 3.36389-1.5339397z"
      class="ColorScheme-Text" />
</svg> 
