<svg xmlns="http://www.w3.org/2000/svg" viewBox="0 0 22 22">
  <defs id="defs3051">
    <style type="text/css" id="current-color-scheme">
      .ColorScheme-NegativeText {
        color:#da4453;
      }
      </style>
  </defs>
 <path 
     style="fill:currentColor;fill-opacity:1;stroke:none"      
	 class="ColorScheme-NegativeText"
        d="M 13.910156 3.8769531 C 13.734743 3.8237225 13.53 3.8738682 13.410156 4.0605469 C 11.853918 6.4864551 10.3212 7.6015625 3.8027344 7.6015625 C 2.2552013 7.6015625 1 8.860679 1 10.408203 C 1 11.911909 2.1869783 13.140864 3.6738281 13.208984 L 5.1914062 18.142578 L 7.4335938 18.142578 L 5.9335938 13.263672 C 10.686944 13.500985 12.039762 14.621964 13.410156 16.757812 C 13.64963 17.131411 14.232422 16.953627 14.232422 16.509766 L 14.232422 10.408203 L 14.232422 4.3085938 C 14.232422 4.0866586 14.085569 3.9301837 13.910156 3.8769531 z M 17.875 7.6074219 C 17.308084 7.6074219 16.785363 7.747931 16.306641 8.0273438 C 15.827869 8.3067066 15.449335 8.6852904 15.169922 9.1640625 C 14.890459 9.6428346 14.75 10.165556 14.75 10.732422 C 14.75 11.299338 14.890559 11.821959 15.169922 12.300781 C 15.449335 12.779453 15.827869 13.158087 16.306641 13.4375 C 16.785413 13.716913 17.308084 13.857422 17.875 13.857422 C 18.441916 13.857422 18.964637 13.716913 19.443359 13.4375 C 19.922082 13.158137 20.300665 12.779503 20.580078 12.300781 C 20.859441 11.822009 21 11.299288 21 10.732422 C 21 10.165506 20.859391 9.6427847 20.580078 9.1640625 C 20.300665 8.6853403 19.922082 8.3067565 19.443359 8.0273438 C 18.964537 7.747931 18.441966 7.6074219 17.875 7.6074219 z M 16.955078 9.1816406 C 17.025593 9.1816406 17.087134 9.2082278 17.138672 9.2597656 L 17.875 9.9960938 L 18.611328 9.2597656 C 18.662766 9.2082278 18.724407 9.1816406 18.794922 9.1816406 C 18.868183 9.1816406 18.930884 9.2082278 18.982422 9.2597656 L 19.347656 9.625 C 19.399194 9.6765378 19.425781 9.7392384 19.425781 9.8125 C 19.425781 9.8830149 19.399194 9.9446059 19.347656 9.9960938 L 18.611328 10.732422 L 19.347656 11.46875 C 19.399194 11.520238 19.425781 11.581829 19.425781 11.652344 C 19.425781 11.725555 19.399194 11.786403 19.347656 11.837891 L 18.982422 12.205078 C 18.930884 12.256616 18.868183 12.283203 18.794922 12.283203 C 18.724407 12.283203 18.662766 12.256616 18.611328 12.205078 L 17.875 11.46875 L 17.138672 12.205078 C 17.087134 12.256616 17.025593 12.283203 16.955078 12.283203 C 16.881817 12.283203 16.821069 12.256616 16.769531 12.205078 L 16.402344 11.837891 C 16.350806 11.786403 16.324219 11.725555 16.324219 11.652344 C 16.324219 11.581829 16.350806 11.520238 16.402344 11.46875 L 17.138672 10.732422 L 16.402344 9.9960938 C 16.350806 9.9446059 16.324219 9.8830149 16.324219 9.8125 C 16.324219 9.7392384 16.350806 9.6765378 16.402344 9.625 L 16.769531 9.2597656 C 16.821069 9.2082278 16.881817 9.1816406 16.955078 9.1816406 z "
     />
</svg>
