<svg xmlns="http://www.w3.org/2000/svg" viewBox="0 0 22 22">
  <defs id="defs3051">
    <style type="text/css" id="current-color-scheme">
      .ColorScheme-Text {
        color:#f2f2f2
      }
      </style>
  </defs>
 <path 
     style="fill:currentColor;fill-opacity:1;stroke:none"      
	 class="ColorScheme-Text"
        d="M 4,3 C 3.44598,3 3,3.44599 3,4 l 0,14 c 0,0.55402 0.44598,1 1,1 l 14,0 c 0.55401,0 1,-0.44598 1,-1 L 19,4 C 19,3.44599 18.55401,3 18,3 L 4,3 Z M 7.11914,6 A 1.2697625,1.2697625 0 0 1 8.38867,7.26953 1.2697625,1.2697625 0 0 1 7.11914,8.54102 1.2697625,1.2697625 0 0 1 5.84961,7.26953 1.2697625,1.2697625 0 0 1 7.11914,6 Z m 3.87305,0 A 1.2697625,1.2697625 0 0 1 12.26172,7.26953 1.2697625,1.2697625 0 0 1 10.99219,8.54102 1.2697625,1.2697625 0 0 1 9.72265,7.26953 1.2697625,1.2697625 0 0 1 10.99219,6 Z m 3.88867,0 A 1.2697625,1.2697625 0 0 1 16.15039,7.26953 1.2697625,1.2697625 0 0 1 14.88086,8.53906 1.2697625,1.2697625 0 0 1 13.61133,7.26953 1.2697625,1.2697625 0 0 1 14.88086,6 Z m 0,3.69727 a 1.2697625,1.2697625 0 0 1 1.26953,1.27148 1.2697625,1.2697625 0 0 1 -1.26953,1.26953 1.2697625,1.2697625 0 0 1 -1.26953,-1.26953 1.2697625,1.2697625 0 0 1 1.26953,-1.27148 z m -7.76172,0.002 A 1.2697625,1.2697625 0 0 1 8.38867,10.9688 1.2697625,1.2697625 0 0 1 7.11914,12.23833 1.2697625,1.2697625 0 0 1 5.84961,10.9688 1.2697625,1.2697625 0 0 1 7.11914,9.69927 Z m 3.87305,0 a 1.2697625,1.2697625 0 0 1 1.26953,1.26953 1.2697625,1.2697625 0 0 1 -1.26953,1.26953 1.2697625,1.2697625 0 0 1 -1.26954,-1.26953 1.2697625,1.2697625 0 0 1 1.26954,-1.26953 z m -3.87305,3.76172 a 1.2697625,1.2697625 0 0 1 1.26953,1.26953 1.2697625,1.2697625 0 0 1 -1.26953,1.26953 1.2697625,1.2697625 0 0 1 -1.26953,-1.26953 1.2697625,1.2697625 0 0 1 1.26953,-1.26953 z"
     />
</svg>
