<svg xmlns="http://www.w3.org/2000/svg" viewBox="0 0 22 22">
 <defs id="defs3051">
   <style type="text/css" id="current-color-scheme">
     .ColorScheme-Text {
       color:#f2f2f2;
     }
     </style>
 </defs>
   <path
      style="fill:currentColor;fill-opacity:1;stroke:none"
      d="m3.88867 3c-.49244 0-.88867.35758-.88867.80078v14.39844c0 .44319.39623.80078.88867.80078h14.22266c.49244 0 .88867-.35759.88867-.80078v-14.39844c0-.4432-.39623-.80078-.88867-.80078zm1.32422 2h11.57422c.33635 0 .60937.27276.60937.60937v10.78125c0 .33632-.27278.60938-.60937.60938h-11.57422c-.33634 0-.60937-.27276-.60937-.60938v-10.78125c0-.33631.27279-.60937.60937-.60937zm7.66211 2.15429c-.77185 0-1.39648.62625-1.39648 1.39844 0 .77218.62463 1.39844 1.39648 1.39844.77162 0 1.39844-.62626 1.39844-1.39844 0-.77219-.62682-1.39844-1.39844-1.39844zm-3.81055 2.85157c-.13383.0124-.25883.10498-.3457.27734l-2.39844 4.75391c-.17398.34472-.003.625.38282.625h4.29687 4.49609c.38597 0 .51962-.25748.29883-.57422l-1.52734-2.1836c-.22126-.31631-.62148-.35097-.89258-.0762l-.58984.59961c-.27134.27474-.68148.24812-.91602-.0586l-2.41211-3.1543c-.11726-.15334-.25874-.22143-.39258-.20898z"
      class="ColorScheme-Text" />
</svg> 
