<svg xmlns="http://www.w3.org/2000/svg" viewBox="0 0 22 22">
 <defs id="defs3051">
   <style type="text/css" id="current-color-scheme">
     .ColorScheme-Text {
       color:#f2f2f2;
     }
     </style>
 </defs>
   <path
      style="fill:currentColor;fill-opacity:1;stroke:none"
      d="m11.87891 4.44531c-.2814 0-.50782.22642-.50782.50781v.61328c0 .2814.22642.50782.50782.50782h8.61328c.28139 0 .50781-.22642.50781-.50782v-.61328c0-.28139-.22642-.50781-.50781-.50781zm0 4.03711c-.2814 0-.50782.22642-.50782.50781v.61328c0 .2814.22642.50782.50782.50782h8.61328c.28139 0 .50781-.22642.50781-.50782v-.61328c0-.28139-.22642-.50781-.50781-.50781zm-2.2168.31055c-.1593.00057-.31833.0616-.43945.18359l-3.36914 3.39453-3.39454-3.37109c-.24389-.24216-.6387-.24001-.88086.004-.24236.2439-.24022.63861.004.88086l3.83594 3.8086c.12195.12105.28013.18026.43945.17968.15925-.00057.31832-.0616.43945-.18359l3.8086-3.83594c.24225-.24401.2401-.6387-.004-.88086-.12195-.12107-.28015-.18026-.43945-.17968zm2.2168 3.42968c-.2814 0-.50782.22642-.50782.50782v.61328c0 .28139.22642.50781.50782.50781h8.61328c.28139 0 .50781-.22642.50781-.50781v-.61328c0-.2814-.22642-.50782-.50781-.50782zm-10.38477 3.70313c-.27408 0-.49414.22006-.49414.49414v.64062c0 .27409.22006.49415.49414.49415h19.01172c.27408 0 .49414-.22006.49414-.49415v-.64062c0-.27408-.22006-.49414-.49414-.49414h-19.01172z"
      class="ColorScheme-Text" />
</svg> 
