<svg xmlns="http://www.w3.org/2000/svg" viewBox="0 0 22 22">
  <defs id="defs3051">
    <style type="text/css" id="current-color-scheme">
      .ColorScheme-Text {
        color:#f2f2f2
      }
      </style>
  </defs>
 <path 
     style="fill:currentColor;fill-opacity:1;stroke:none"      
	 class="ColorScheme-Text"
        d="M 3.88867,3 C 3.39623,3 3,3.35758 3,3.80078 L 3,18.19922 C 3,18.64242 3.39623,19 3.88867,19 l 14.22266,0 C 18.60377,19 19,18.64242 19,18.19922 L 19,3.80078 C 19,3.35758 18.60377,3 18.11133,3 L 3.88867,3 Z m 2.53516,3 0.47851,0 c 0.11752,0 0.21289,0.0955 0.21289,0.21289 l 0,0.26367 c 0,0.11726 0.0934,0.21289 0.21094,0.21289 l 0.46289,0 c 0.11752,0 0.21289,-0.0953 0.21289,-0.21289 l 0,-0.26367 C 8.00195,6.09562 8.09735,6 8.21484,6 l 5.55469,0 c 0.11752,0 0.21289,0.0955 0.21289,0.21289 l 0,0.26367 c 0,0.11726 0.0954,0.21289 0.21289,0.21289 l 0.46094,0 c 0.11751,0 0.21289,-0.0953 0.21289,-0.21289 l 0,-0.26367 C 14.86914,6.09562 14.96454,6 15.08203,6 l 0.49414,0 c 0.11751,0 0.21289,0.0955 0.21289,0.21289 l 0,9.57422 C 15.78906,15.90438 15.69366,16 15.57617,16 l -0.49414,0 c -0.11752,0 -0.21289,-0.0955 -0.21289,-0.21289 l 0,-0.19531 c 0,-0.11727 -0.0954,-0.21094 -0.21289,-0.21094 l -0.46094,0 c -0.11751,0 -0.21289,0.0933 -0.21289,0.21094 l 0,0.19531 C 13.98242,15.90438 13.88702,16 13.76953,16 L 8.21484,16 C 8.09734,16 8.00195,15.9045 8.00195,15.78711 l 0,-0.19531 c 0,-0.11727 -0.0954,-0.21094 -0.21289,-0.21094 l -0.46289,0 c -0.1175,0 -0.21094,0.0933 -0.21094,0.21094 l 0,0.19531 C 7.11523,15.90438 7.01983,16 6.90234,16 L 6.42383,16 C 6.30631,16 6.21094,15.9045 6.21094,15.78711 l 0,-9.57422 C 6.21094,6.09562 6.30634,6 6.42383,6 Z m 2.72656,0.91211 c -0.11752,0 -0.21289,0.0955 -0.21289,0.21289 l 0,1.70898 c 0,0.11719 0.0954,0.2129 0.21289,0.2129 l 3.69922,0 c 0.11751,0 0.21289,-0.0954 0.21289,-0.2129 l 0,-1.70898 c 0,-0.11727 -0.0954,-0.21289 -0.21289,-0.21289 l -3.69922,0 z M 7.32617,7.73242 c -0.1175,0 -0.21094,0.0953 -0.21094,0.21289 l 0,0.46094 c 0,0.11726 0.0934,0.21289 0.21094,0.21289 l 0.46289,0 c 0.11752,0 0.21289,-0.0953 0.21289,-0.21289 l 0,-0.46094 c 0,-0.11734 -0.0954,-0.21289 -0.21289,-0.21289 l -0.46289,0 z m 6.86914,0 c -0.1175,0 -0.21289,0.0953 -0.21289,0.21289 l 0,0.46094 c 0,0.11726 0.0954,0.21289 0.21289,0.21289 l 0.46094,0 c 0.11751,0 0.21289,-0.0953 0.21289,-0.21289 l 0,-0.46094 c 0,-0.11734 -0.0954,-0.21289 -0.21289,-0.21289 l -0.46094,0 z M 7.32617,9.64453 c -0.1175,0 -0.21094,0.0954 -0.21094,0.21289 l 0,0.46094 c 0,0.11726 0.0934,0.21289 0.21094,0.21289 l 0.46289,0 c 0.11752,0 0.21289,-0.0953 0.21289,-0.21289 l 0,-0.46094 c 0,-0.11726 -0.0954,-0.21289 -0.21289,-0.21289 l -0.46289,0 z m 6.86914,0 c -0.1175,0 -0.21289,0.0954 -0.21289,0.21289 l 0,0.46094 c 0,0.11726 0.0954,0.21289 0.21289,0.21289 l 0.46094,0 c 0.11751,0 0.21289,-0.0953 0.21289,-0.21289 l 0,-0.46094 c 0,-0.11726 -0.0954,-0.21289 -0.21289,-0.21289 l -0.46094,0 z M 9.15039,9.93164 c -0.11752,0 -0.21289,0.0953 -0.21289,0.21289 l 0,1.71094 c 0,0.11734 0.0954,0.21289 0.21289,0.21289 l 3.69922,0 c 0.11751,0 0.21289,-0.0954 0.21289,-0.21289 l 0,-1.71094 c 0,-0.11726 -0.0954,-0.21289 -0.21289,-0.21289 l -3.69922,0 z m -1.82422,1.625 c -0.1175,0 -0.21094,0.0954 -0.21094,0.21289 l 0,0.46094 c 0,0.11726 0.0934,0.21289 0.21094,0.21289 l 0.46289,0 c 0.11752,0 0.21289,-0.0953 0.21289,-0.21289 l 0,-0.46094 c 0,-0.11718 -0.0954,-0.21289 -0.21289,-0.21289 l -0.46289,0 z m 6.86914,0 c -0.1175,0 -0.21289,0.0954 -0.21289,0.21289 l 0,0.46094 c 0,0.11726 0.0954,0.21289 0.21289,0.21289 l 0.46094,0 c 0.11751,0 0.21289,-0.0953 0.21289,-0.21289 l 0,-0.46094 c 0,-0.11718 -0.0954,-0.21289 -0.21289,-0.21289 l -0.46094,0 z m -5.04492,1.39649 c -0.11752,0 -0.21289,0.0953 -0.21289,0.21289 l 0,1.70898 c 0,0.11727 0.0954,0.21289 0.21289,0.21289 l 3.69922,0 c 0.11751,0 0.21289,-0.0954 0.21289,-0.21289 l 0,-1.70898 c 0,-0.11735 -0.0954,-0.21289 -0.21289,-0.21289 l -3.69922,0 z m -1.82422,0.51562 c -0.1175,0 -0.21094,0.0954 -0.21094,0.21289 l 0,0.46094 c 0,0.11709 0.0934,0.21289 0.21094,0.21289 l 0.46289,0 c 0.11752,0 0.21289,-0.0955 0.21289,-0.21289 l 0,-0.46094 c 0,-0.11718 -0.0954,-0.21289 -0.21289,-0.21289 l -0.46289,0 z m 6.86914,0 c -0.1175,0 -0.21289,0.0954 -0.21289,0.21289 l 0,0.46094 c 0,0.11709 0.0954,0.21289 0.21289,0.21289 l 0.46094,0 c 0.11751,0 0.21289,-0.0955 0.21289,-0.21289 l 0,-0.46094 c 0,-0.11718 -0.0954,-0.21289 -0.21289,-0.21289 l -0.46094,0 z"
     />
</svg>
