<svg xmlns="http://www.w3.org/2000/svg" viewBox="0 0 22 22">
 <defs id="defs3051">
   <style type="text/css" id="current-color-scheme">
     .ColorScheme-Text {
       color:#f2f2f2;
     }
     </style>
 </defs>
   <path
      style="fill:currentColor;fill-opacity:1;stroke:none"
      d="m8.93945 3.00007c-4.28251 0-7.76562 2.92216-7.76562 6.51367 0 1.94768 1.01124 3.75998 2.7832 5 .16803 1.01506-.41374 2.07671-.41992 2.08789-.13303.23473-.12396.52339.0254.75.13361.20258.35914.32227.60156.32227.0259 0 .0519-.001.0781-.004.75472-.0838 1.97157-.65719 3.62109-1.70508.35524.0412.7161.0625 1.07618.0625 1.35133 0 2.6224-.29162 3.73046-.80274.31362 1.64171 2.00028 2.9043 4.04493 2.9043.19058 0 .38229-.0114.57031-.0332.87306.55463 1.51851.85797 1.91797.90234.0139.002.0273.002.041.002.1283 0 .24764-.0647.31836-.17187.0791-.11994.0841-.27225.0137-.39648-.003-.006-.3116-.56823-.22266-1.10547.93786-.65632 1.47266-1.61562 1.47266-2.64649 0-1.9009-1.8447-3.44726-4.11133-3.44726-.10249 0-.19821.0192-.29883.0254.18474-.55597.29102-1.13948.29102-1.74414-.00001-3.59154-3.48495-6.51373-7.76759-6.51373zm-.75195 3.93945h.9707v1.94141h1.94336v.9707h-1.94336v1.94141h-.9707v-1.94141h-1.9414v-.9707h1.9414z"
      class="ColorScheme-Text" />
</svg> 
