<svg xmlns="http://www.w3.org/2000/svg" viewBox="0 0 22 22">
 <defs id="defs3051">
   <style type="text/css" id="current-color-scheme">
     .ColorScheme-Text {
       color:#f2f2f2;
     }
     </style>
 </defs>
   <path
      style="fill:currentColor;fill-opacity:1;stroke:none"
      d="m11.000015 3c-4.6866284 0-8.500015 3.1856-8.500015 7.10156 0 2.12364 1.1071925 4.09913 3.0463653 5.45117.1838863 1.10676-.4539297 2.26516-.4606846 2.27735-.1455855.25594-.134043.56932.029408.8164.1462181.22088.3914099.35352.6567157.35352.028304 0 .057511-.00084.086218-.004.825948-.0914 2.1586199-.71682 3.9637998-1.85938.3887603.0449.7841043.0664 1.1781633.0664 4.686759 0 8.500015-3.18562 8.500015-7.10156s-3.813256-7.10157-8.500015-7.10157zm-.637113 4.61328h1.062508v2.11719h2.125006v1.05859h-2.125006v2.11719h-1.062508v-2.11719h-2.1249966v-1.05859h2.1249966z"
      class="ColorScheme-Text" />
</svg> 
