<svg xmlns="http://www.w3.org/2000/svg" viewBox="0 0 22 22">
 <defs id="defs3051">
   <style type="text/css" id="current-color-scheme">
     .ColorScheme-Text {
       color:#f2f2f2;
     }
     </style>
 </defs>
   <path
      style="fill:currentColor;fill-opacity:1;stroke:none"
      d="m5.640625 3c-.3731412 0-.7301263.1466748-.9707031.3984375s-.3641953.5814065-.3984375.9238281v-.011719l-1.3730469 10.8378911c-.00258.02073-.00389.04161-.00391.0625v.0098c.000324.02355.00228.04704.00586.07031l.00195.0098.2441406 2.921875c.050883.418115.3564055.751953.8652344.751953h14.0996092c.508829 0 .812398-.333838.863281-.751953l.195313-2.93164.002-.0078c.003-.02397.0043-.04811.0039-.07226-.000018-.02089-.0013-.04177-.0039-.0625l-1.3730877-10.8379758c-.0015-.012438-.0035-.024816-.0059-.037109-.062249-.3114458-.173757-.6151448-.402303-.8652348-.228546-.2500899-.585843-.4082031-.958984-.4082031zm0 1.0175781h10.791016c.135687 0 .156579.020965.207031.076172.04979.054487.114666.1819952.154297.375l1.347656 10.632812-.06641.109376h-3.476563-.509765-10.166016l-.00391-.01758 1.363289-10.7558581.0019531-.0136719c.0166389-.166407.0699378-.268731.1210938-.3222656.0511559-.0535345.1006404-.0839844.2363281-.0839844z"
      class="ColorScheme-Text" />
 <defs id="defs3051">
   <style type="text/css" id="current-color-scheme">
     .ColorScheme-Text {
       color:#32c671;
     }
     </style>
 </defs>
   <path
      style="fill:currentColor;fill-opacity:1;stroke:none"
      d="m6.8164062 11.011719c-2.2125265 0-3.9921874 1.781614-3.9921874 3.99414 0 2.212527 1.7796609 3.994141 3.9921874 3.994141 2.2125266 0 3.9941408-1.781614 3.9941408-3.994141 0-2.212526-1.7816142-3.99414-3.9941408-3.99414z"
      class="ColorScheme-Text" />
 <defs id="defs3051">
   <style type="text/css" id="current-color-scheme">
     .ColorScheme-Text {
       color:#fff;
     }
     </style>
 </defs>
   <path
      style="fill:currentColor;fill-opacity:1;stroke:none"
      d="m8.6660156 13.349609c-.0946042 0-.1760124.033391-.2421875.09961l-2.3261719 2.330078-1.0429687-1.044922c-.0662186-.066219-.1456736-.099609-.2402344-.099609-.0946042 0-.1759688.03339-.2421875.099609l-.4824218.482422c-.0662187.066219-.0996094.14563-.0996094.240234 0 .094561.0333907.176013.0996094.242188l1.2851562 1.283203.4824219.482422c.0661751.066218.1456301.099609.2402343.099609.0945608 0 .1759689-.033434.2421876-.099609l.4824218-.482422 2.5664063-2.56836c.0661751-.066218.0996094-.14563.0996093-.240234.0000436-.094561-.0334342-.175969-.0996093-.242187l-.4824219-.482422c-.0661751-.066219-.1456736-.09961-.2402344-.09961z"
      class="ColorScheme-Text" />
 <defs id="defs3051">
   <style type="text/css" id="current-color-scheme">
     .ColorScheme-Text {
       color:#f2f2f2;
     }
     </style>
 </defs>
   <path
      style="fill:currentColor;fill-opacity:1;stroke:none"
      d="m10.966699 6.1032252c-2.3364398 0-4.2578124 1.1096275-4.2578124 2.4609375 0 1.3513101 1.9213725 2.4628903 4.2578124 2.4628903 2.33645 0 4.255859-1.1115802 4.255859-2.4628903 0-1.35131-1.919409-2.4609375-4.255859-2.4609375zm0 1.7578125c.66808 0 1.214844.316735 1.214844.703125 0 .3863801-.546764.703125-1.214844.703125-.66806 0-1.2167968-.3167449-1.2167968-.703125 0-.38639.5487368-.703125 1.2167968-.703125z"
      class="ColorScheme-Text" />
</svg> 
