<?xml version="1.0" encoding="UTF-8" standalone="no"?>
<svg
   xmlns:dc="http://purl.org/dc/elements/1.1/"
   xmlns:cc="http://creativecommons.org/ns#"
   xmlns:rdf="http://www.w3.org/1999/02/22-rdf-syntax-ns#"
   xmlns:svg="http://www.w3.org/2000/svg"
   xmlns="http://www.w3.org/2000/svg"
   xmlns:sodipodi="http://sodipodi.sourceforge.net/DTD/sodipodi-0.dtd"
   xmlns:inkscape="http://www.inkscape.org/namespaces/inkscape"
   viewBox="0 0 22 22"
   id="svg2"
   version="1.1"
   inkscape:version="0.91 r13725"
   sodipodi:docname="kr_mountman.svg">
  <metadata
     id="metadata14">
    <rdf:RDF>
      <cc:Work
         rdf:about="">
        <dc:format>image/svg+xml</dc:format>
        <dc:type
           rdf:resource="http://purl.org/dc/dcmitype/StillImage" />
      </cc:Work>
    </rdf:RDF>
  </metadata>
  <sodipodi:namedview
     pagecolor="#ffffff"
     bordercolor="#666666"
     borderopacity="1"
     objecttolerance="10"
     gridtolerance="10"
     guidetolerance="10"
     inkscape:pageopacity="0"
     inkscape:pageshadow="2"
     inkscape:window-width="640"
     inkscape:window-height="480"
     id="namedview12"
     showgrid="false"
     inkscape:zoom="29.954545"
     inkscape:cx="5.5361682"
     inkscape:cy="7.9371787"
     inkscape:current-layer="svg2" />
  <defs
     id="defs3051">
    <style
       type="text/css"
       id="current-color-scheme">
      .ColorScheme-Text {
        color:#f2f2f2;
      }
      .ColorScheme-Highlight {
        color:#3daee9;
      }
      </style>
    <style
       id="current-color-scheme-3"
       type="text/css">
      .ColorScheme-Text {
        color:#4d4d4d;
      }
      .ColorScheme-Highlight {
        color:#3daee9;
      }
      </style>
    <style
       type="text/css"
       id="current-color-scheme-6">
      .ColorScheme-Text {
        color:#4d4d4d;
      }
      </style>
  </defs>
  <g
     id="g3213"
     transform="translate(0.0707812,-0.025)">
    <path
       sodipodi:nodetypes="ssccccccccsscccccccsssssscccccccccss"
       inkscape:connector-curvature="0"
       id="path6-5"
       class="ColorScheme-Text"
       d="M 5.640625,3 C 5.2674838,3 4.9104987,3.1466748 4.6699219,3.3984375 4.4293451,3.6502002 4.3057266,3.979844 4.2714844,4.3222656 l 0,-0.011719 -1.3730469,10.8378914 c -0.00258,0.02073 -0.00389,0.04161 -0.00391,0.0625 l 0,0.0098 c 3.24e-4,0.02355 0.00228,0.04704 0.00586,0.07031 l 0.00195,0.0098 0.2441406,2.921875 c 0.050883,0.418115 0.3564055,0.751953 0.8652344,0.751953 l 14.0996095,0 c 0.508829,0 0.812398,-0.333838 0.863281,-0.751953 l 0.195313,-2.93164 0.002,-0.0078 c 0.003,-0.02397 0.0043,-0.04811 0.0039,-0.07226 -1.8e-5,-0.02089 -0.0013,-0.04177 -0.0039,-0.0625 L 17.798828,4.3105469 c -0.0015,-0.012438 -0.0035,-0.024816 -0.0059,-0.037109 C 17.730679,3.9619921 17.619171,3.6582931 17.390625,3.4082031 17.162079,3.1581132 16.804782,3 16.431641,3 Z m 0,1.0175781 10.791016,0 c 0.135687,0 0.156579,0.020965 0.207031,0.076172 0.04979,0.054487 0.114666,0.1819952 0.154297,0.375 l 1.347656,10.6328119 -0.06641,0.109376 -3.476563,0 -0.509765,0 -10.166016,0 -0.00391,-0.01758 L 5.28125,4.4375 5.2832031,4.4238281 C 5.299842,4.2574211 5.3531409,4.1550971 5.4042969,4.1015625 5.4554528,4.048028 5.5049373,4.0175781 5.640625,4.0175781 Z"
       style="color:#4d4d4d;fill:#f2f2f2;fill-opacity:1;stroke:none" />
    <path
       id="path8-6"
       d="m 6.8164062,11.011719 c -2.2125265,0 -3.9921874,1.781614 -3.9921874,3.99414 0,2.212527 1.7796609,3.994141 3.9921874,3.994141 2.2125266,0 3.9941408,-1.781614 3.9941408,-3.994141 0,-2.212526 -1.7816142,-3.99414 -3.9941408,-3.99414 z"
       style="opacity:1;fill:#32c671;fill-opacity:1;stroke:none"
       inkscape:connector-curvature="0" />
    <path
       id="path10-2"
       d="m 8.6660156,13.349609 c -0.094604,0 -0.1760124,0.03339 -0.2421875,0.09961 L 6.0976562,15.779297 5.0546875,14.734375 c -0.066219,-0.06622 -0.1456736,-0.09961 -0.2402344,-0.09961 -0.094604,0 -0.1759688,0.03339 -0.2421875,0.09961 l -0.4824218,0.482422 c -0.066219,0.06622 -0.099609,0.14563 -0.099609,0.240234 0,0.09456 0.033391,0.176013 0.099609,0.242188 L 5.375,16.982422 5.8574219,17.464844 c 0.066175,0.06622 0.1456301,0.09961 0.2402343,0.09961 0.094561,0 0.1759689,-0.03343 0.2421876,-0.09961 l 0.4824218,-0.482422 2.5664063,-2.56836 c 0.066175,-0.06622 0.099609,-0.14563 0.099609,-0.240234 4.36e-5,-0.09456 -0.033434,-0.175969 -0.099609,-0.242187 L 8.90625,13.449219 C 8.8400749,13.383 8.7605764,13.349609 8.6660156,13.349609 Z"
       style="fill:#ffffff;fill-opacity:1;stroke:none;stroke-opacity:1"
       inkscape:connector-curvature="0" />
    <path
       inkscape:connector-curvature="0"
       id="path3233"
       d="m 10.966699,6.1032252 c -2.3364398,0 -4.2578124,1.1096275 -4.2578124,2.4609375 0,1.3513101 1.9213725,2.4628903 4.2578124,2.4628903 2.33645,0 4.255859,-1.1115802 4.255859,-2.4628903 0,-1.35131 -1.919409,-2.4609375 -4.255859,-2.4609375 z m 0,1.7578125 c 0.66808,0 1.214844,0.316735 1.214844,0.703125 0,0.3863801 -0.546764,0.703125 -1.214844,0.703125 -0.66806,0 -1.2167968,-0.3167449 -1.2167968,-0.703125 0,-0.38639 0.5487368,-0.703125 1.2167968,-0.703125 z"
       style="color:#4d4d4d;fill:#f2f2f2;fill-opacity:1;stroke:none" />
  </g>
</svg>
