<svg xmlns="http://www.w3.org/2000/svg" viewBox="0 0 22 22">
 <defs id="defs3051">
   <style type="text/css" id="current-color-scheme">
     .ColorScheme-Text {
       color:#f2f2f2;
     }
     </style>
 </defs>
   <path
      style="fill:currentColor;fill-opacity:1;stroke:none"
      d="m7.8613281 3.5703125c-.0772818 0-.1446882.0294539-.2011719.0859375-.0564836.0565931-.0839843.1219369-.0839843.1992188v1.7128906c0 .0772818.0275007.1445788.0839843.2011718.0564837.0563742.1238901.0839844.2011719.0839844h10.8437499c.077391 0 .144579-.0275007.201172-.0839844.056484-.056593.083984-.12389.083984-.2011718v-1.7128906c0-.0772819-.02761-.1427352-.083984-.1992188-.056703-.0563742-.123781-.0859375-.201172-.0859375zm0 6.2695313c-.0772818 0-.1446882.0273912-.2011719.0839843-.0564836.0564837-.0839843.1238899-.0839843.2011719v1.710938c0 .077172.0275007.144688.0839843.201171.0564837.056593.1238901.085938.2011719.085938h10.8437499c.077391 0 .144579-.029345.201172-.085938.056484-.056483.083984-.123999.083984-.201171v-1.710938c0-.077282-.02761-.1447977-.083984-.2011719-.056703-.0564836-.123781-.0839843-.201172-.0839843zm0 6.3066402c-.0772818 0-.1446882.027501-.2011719.083985-.0564836.056483-.0839843.123999-.0839843.201172v1.71289c0 .077392.0275007.142626.0839843.199219.0564837.056374.1238901.085938.2011719.085938h10.8437499c.077391 0 .144579-.029564.201172-.085938.056484-.056593.083984-.121827.083984-.199219v-1.71289c0-.077173-.02761-.144798-.083984-.201172-.056703-.056374-.123781-.083985-.201172-.083985z"
      class="ColorScheme-Text" />
 <defs id="defs3051">
   <style type="text/css" id="current-color-scheme">
     .ColorScheme-Text {
       color:#3daee9;
     }
     </style>
 </defs>
   <path
      style="fill:currentColor;fill-opacity:1;stroke:none"
      d="m4.7207031 3c-.4757322 0-.8798999.1671188-1.2128906.5-.3328812.3329907-.4980469.7372678-.4980469 1.2128906 0 .4757323.1650562.8799.4980469 1.2128906.3329907.3328813.7372678.4980469 1.2128906.4980469s.8799-.1651656 1.2128907-.4980469c.3328812-.3329906.5-.7371583.5-1.2128906 0-.4756228-.1671188-.8798999-.5-1.2128906-.3328813-.3328812-.7371584-.5-1.2128907-.5zm0 6.2675781c-.4757322 0-.8798999.1670093-1.2128906.5-.3328812.3328809-.4980469.7371579-.4980469 1.2128909 0 .475623.1650562.880009.4980469 1.21289.3329907.332882.7372678.5 1.2128906.5s.8799-.167118 1.2128907-.5c.3328812-.332881.5-.737267.5-1.21289 0-.475733-.1670094-.88001-.5-1.2128909-.3328813-.3328812-.7371584-.5-1.2128907-.5zm0 6.3085939c-.4757322 0-.8800094.165056-1.2128906.498047-.3328812.33299-.4980469.737268-.4980469 1.21289 0 .475842.1650562.8799.4980469 1.212891.3329907.332881.7372678.5 1.2128906.5s.8799-.167119 1.2128907-.5c.3328812-.332991.5-.737049.5-1.212891 0-.475622-.1671188-.880009-.5-1.21289-.3328813-.332881-.7371584-.498047-1.2128907-.498047z"
      class="ColorScheme-Text" />
</svg> 
