<svg xmlns="http://www.w3.org/2000/svg" viewBox="0 0 22 22">
 <defs id="defs3051">
   <style type="text/css" id="current-color-scheme">
     .ColorScheme-Text {
       color:#f2f2f2;
     }
     </style>
 </defs>
   <path
      style="fill:currentColor;fill-opacity:1;stroke:none"
      d="m11 1.701172-8.4335939 4.2167968 8.4335939 4.2167972 8.433594-4.2167972zm-6.0839845 13.205078-2.3496094 1.175781 8.4335939 4.216797 8.433594-4.216797-2.34961-1.175781-6.083984 3.042969z"
      class="ColorScheme-Text" />
 <defs id="defs3051">
   <style type="text/css" id="current-color-scheme">
     .ColorScheme-Text {
       color:#3daee9;
     }
     </style>
 </defs>
   <path
      style="fill:currentColor;fill-opacity:1;stroke:none"
      d="m7.5722656 11c-.2016952-.000016-.4040646.076-.5566406.228516-.3052835.305104-.3052936.808138 0 1.113281l3.427734 3.427734c.152542.152517.355726.230469.556641.230469.200759 0 .404069-.07797.556641-.230469l3.427734-3.427734c.152597-.152598.228518-.354914.228516-.556641-.000001-.201725-.075888-.404078-.228516-.55664-.305134-.305134-.806124-.305081-1.111328 0l-2.873047 2.873046-2.8730469-2.873046c-.1525461-.152559-.3529922-.2285-.5546875-.228516z"
      class="ColorScheme-Text" />
</svg> 
