<svg xmlns="http://www.w3.org/2000/svg" viewBox="0 0 22 22">
 <defs id="defs3051">
   <style type="text/css" id="current-color-scheme">
     .ColorScheme-Text {
       color:#f2f2f2;
     }
     </style>
 </defs>
   <path
      style="fill:currentColor;fill-opacity:1;stroke:none"
      d="m14.85732 5.0001812c-.29955.00098-.59861.11403-.82422.33665-.45124.44512-.44857 1.17428.006 1.6163l4.14258 4.0264098-4.11328 4.05701c-.45124.44508-.44857 1.17436.006 1.6163.45446.44219 1.20108.43962 1.65234-.006l4.93359-4.86804c.22547-.22248.34084-.51695.33977-.80907-.001-.29188-.11856-.58623-.34571-.80719l-4.96875-4.8316898c-.22729-.221-.52855-.33198-.82812-.33091zm-7.7148405.0172c-.29957-.00098-.60083.10991-.82813.33091l-4.96875 4.8316898c-.22715.22096-.34462.5153-.34569996.8072-.001.29211.11429996.58658.33983996.8091l4.93359 4.86803c.45126.44537 1.19789.44793 1.65235.006.45442-.44194.45709-1.17122.006-1.6163l-4.11328-4.05706 4.14257-4.0263998c.45443-.44202.4571-1.17118.006-1.6163-.2256-.22261-.52467-.33559-.82421-.33665zm3.8300705 4.08379c-1.0565905 0-1.9199205.84549-1.9199205 1.8802698 0 1.0348.86333 1.88026 1.9199205 1.88026 1.05664 0 1.91992-.84546 1.91992-1.88026 0-1.0347798-.86328-1.8802698-1.91992-1.8802698z"
      class="ColorScheme-Text" />
</svg> 
