<svg viewBox="0 0 22 22" xmlns="http://www.w3.org/2000/svg"><path d="m18.766437 12.404817-1.43656-1.4055 1.43656-1.4055003c.20828-.19437.27767-.43728.20828-.72876-.0832-.28458-.26362-.46156-.54142-.53095l-1.95715-.49976.55177-1.93645c.0832-.28445.0175-.5275-.19794-.72876-.20113-.21519-.44405-.28112-.72875-.19781l-1.93619.55178-.4999-1.95728c-.0694-.28458-.24611-.46156-.53069-.53095-.2847-.0764-.52762-.0104-.72876.19781l-1.40563 1.44716-1.4055003-1.44716c-.20126-.21519-.44418-.28112-.72876-.19781-.28457.0694-.46156.24637-.53094.53095l-.49977 1.95728-1.93645-.55178c-.28458-.0833-.52749-.0174-.72875.19781-.21519.20126-.28113.44418-.19782.72876l.55178 1.93645-1.95728.49976c-.27755.0694-.45811.24637-.5413.53095-.0695.29148 0 .53439.20817.72876l1.43668 1.4055003-1.43668 1.4055c-.20817.19436-.27755.43728-.20817.72876.0832.28458.26375.46156.5413.53095l1.95728.49963-.55178 1.93645c-.0833.28458-.0174.52737.19782.72876.20126.21519.44417.281.72875.19781l1.93645-.55165.49977 1.95715c.0694.28458.24637.46501.53094.5413.29148.0694.5344 0 .72876-.20816l1.4055003-1.43668 1.40563 1.43681c.13878.15244.31576.22886.53082.22886.0487 0 .1145-.007.19794-.0207.28458-.0833.46143-.26375.53082-.5413l.49964-1.95715 1.93632.55165c.2847.0832.52762.0174.72875-.19781.21532-.20139.28113-.44431.19794-.72876l-.55164-1.93645 1.95702-.49964c.27793-.0694.45824-.24636.54142-.53094.0695-.29161.00013-.53452-.20828-.72889z" fill="#2ecc71"/></svg>