<svg xmlns="http://www.w3.org/2000/svg" viewBox="0 0 22 22">
  <defs id="defs3051">
    <style type="text/css" id="current-color-scheme">
      .ColorScheme-Text {
        color:#f2f2f2
      }
      </style>
  </defs>
 <path 
     style="fill:currentColor;fill-opacity:1;stroke:none"      
	 class="ColorScheme-Text"
        d="m 14.85732,5.0001812 c -0.29955,9.8e-4 -0.59861,0.11403 -0.82422,0.33665 -0.45124,0.44512 -0.44857,1.17428 0.006,1.6163 l 4.14258,4.0264098 -4.11328,4.05701 c -0.45124,0.44508 -0.44857,1.17436 0.006,1.6163 0.45446,0.44219 1.20108,0.43962 1.65234,-0.006 l 4.93359,-4.86804 c 0.22547,-0.22248 0.34084,-0.51695 0.33977,-0.80907 -0.001,-0.29188 -0.11856,-0.58623 -0.34571,-0.80719 L 15.68564,5.3308612 c -0.22729,-0.221 -0.52855,-0.33198 -0.82812,-0.33091 z m -7.7148405,0.0172 c -0.29957,-9.8e-4 -0.60083,0.10991 -0.82813,0.33091 l -4.96875,4.8316898 c -0.22715,0.22096 -0.34462,0.5153 -0.34569996,0.8072 -0.001,0.29211 0.11429996,0.58658 0.33983996,0.8091 l 4.93359,4.86803 c 0.45126,0.44537 1.19789,0.44793 1.65235,0.006 0.45442,-0.44194 0.45709,-1.17122 0.006,-1.6163 l -4.11328,-4.05706 4.14257,-4.0263998 c 0.45443,-0.44202 0.4571,-1.17118 0.006,-1.6163 -0.2256,-0.22261 -0.52467,-0.33559 -0.82421,-0.33665 z m 3.8300705,4.08379 c -1.0565905,0 -1.9199205,0.84549 -1.9199205,1.8802698 0,1.0348 0.86333,1.88026 1.9199205,1.88026 1.05664,0 1.91992,-0.84546 1.91992,-1.88026 0,-1.0347798 -0.86328,-1.8802698 -1.91992,-1.8802698 z"
     />
</svg>
