<svg viewBox="0 0 22 22" xmlns="http://www.w3.org/2000/svg">
  <g fill="#f2f2f2">
    <path d="m3.771875 6.56c-.250278 0-.451875.21408-.451875.48v12.48c0 .26592.201597.48.451875.48h14.45625c.250278 0 .451875-.21408.451875-.48v-12.48c0-.26592-.201597-.48-.451875-.48zm3.825 2.514375h6.80625c.26592 0 .48.21408.48.48v.9375c0 .26592-.21408.48-.48.48h-6.80625c-.26592 0-.48-.21408-.48-.48v-.9375c0-.2659199.21408-.48.48-.48z" />
    <path d="m6.988286 1.9999999c-.317478 0-.572692.2685213-.572692.6007307s.255214.5992693.572692.5992693h8.023428c.317479 0 .572692-.2670599.572692-.5992693s-.255213-.6007307-.572692-.6007307z" />
    <path d="m6.988286 4.3999999c-.317478 0-.572692.2685809-.572692.6008461 0 .3321114.255214.599154.572692.599154h8.023428c.317479 0 .572692-.2670426.572692-.599154 0-.3322652-.255213-.6008461-.572692-.6008461z" />
  </g>
</svg>
