<svg xmlns="http://www.w3.org/2000/svg" viewBox="0 0 22 22">
 <defs id="defs3051">
   <style type="text/css" id="current-color-scheme">
     .ColorScheme-Text {
       color:#f2f2f2;
     }
     </style>
 </defs>
   <path
      style="fill:currentColor;fill-opacity:1;stroke:none"
      d="m10.07872 3.0000122v.00195c-.4028455.0009993-.8040426.1504299-1.1137124.4469517-.62014.5926637-.6159058 1.5994197.00781 2.1879163l5.6682094 5.3497578-5.6271778 5.386842c-.6201901.592654-.6179698 1.599539.00586 2.187916.6235011.589346 1.6138558.583604 2.2332858-.0098l6.635379-6.351008.140681-.134671h.002c.30959-.296372.470412-.696454.468932-1.094934-.002-.39819-.165057-.796847-.476748-1.0910302l-6.82686-6.4407887v.00195c-.31189-.2944286-.714813-.4423609-1.117659-.4410519zm-4.0777498 5.5078502c-1.3765627 0-2.5009677 1.1231811-2.5009677 2.4982456 0 1.375054 1.124405 2.498245 2.5009677 2.498245 1.3765626 0 2.5009676-1.123191 2.5009676-2.498245 0-1.3750645-1.124405-2.4982456-2.5009676-2.4982456z"
      class="ColorScheme-Text" />
</svg> 
