<?xml version="1.0" encoding="UTF-8" standalone="no"?>
<svg
   xmlns:dc="http://purl.org/dc/elements/1.1/"
   xmlns:cc="http://creativecommons.org/ns#"
   xmlns:rdf="http://www.w3.org/1999/02/22-rdf-syntax-ns#"
   xmlns:svg="http://www.w3.org/2000/svg"
   xmlns="http://www.w3.org/2000/svg"
   xmlns:sodipodi="http://sodipodi.sourceforge.net/DTD/sodipodi-0.dtd"
   xmlns:inkscape="http://www.inkscape.org/namespaces/inkscape"
   viewBox="0 0 22 22"
   id="svg2"
   version="1.1"
   inkscape:version="0.91 r13725"
   sodipodi:docname="mail-mark-unread.svg">
  <metadata
     id="metadata10">
    <rdf:RDF>
      <cc:Work
         rdf:about="">
        <dc:format>image/svg+xml</dc:format>
        <dc:type
           rdf:resource="http://purl.org/dc/dcmitype/StillImage" />
      </cc:Work>
    </rdf:RDF>
  </metadata>
  <sodipodi:namedview
     pagecolor="#ffffff"
     bordercolor="#666666"
     borderopacity="1"
     objecttolerance="10"
     gridtolerance="10"
     guidetolerance="10"
     inkscape:pageopacity="0"
     inkscape:pageshadow="2"
     inkscape:window-width="640"
     inkscape:window-height="480"
     id="namedview8"
     showgrid="false"
     inkscape:zoom="29.954545"
     inkscape:cx="5.0576631"
     inkscape:cy="11"
     inkscape:current-layer="svg2" />
  <defs
     id="defs3051">
    <style
       type="text/css"
       id="current-color-scheme">
      .ColorScheme-Text {
        color:#4d4d4d
      }
      </style>
    <style
       id="current-color-scheme-6"
       type="text/css">
      .ColorScheme-Text {
        color:#4d4d4d
      }
      </style>
  </defs>
  <path
     style="fill:#2ecc71;fill-opacity:1;stroke:none"
     class="ColorScheme-Text"
     d="m 11.041045,3 q 3.3641,0 5.66155,2.34196 2.29743,2.34197 2.29743,5.65804 0,1.86528 -0.8,3.08808 -0.77949,1.2228 -2.27693,1.2228 -1.53845,0 -2.29743,-1.51296 -1.00513,1.51296 -2.8718,1.51296 -1.68205,0 -2.83077,-1.18135 -1.14871,-1.20207 -1.14871,-3.04663 0,-1.82384 1.14871,-3.02591 1.14872,-1.20207 2.74872,-1.20207 1.57949,0 2.62564,1.2228 l 0.082,0 0,-0.93264 1.47693,0 0,5.40932 q 0,0.53886 0.28717,0.9741 0.3077,0.43523 0.92309,0.43523 1.4564,0 1.4564,-2.96373 0,-2.73576 -1.88718,-4.62176 -1.88717,-1.88602 -4.59487,-1.88602 -2.70769,0 -4.59487,1.88602 Q 4.558945,8.26425 4.558945,11 q 0,2.73575 1.88718,4.62176 1.88718,1.88601 4.59487,1.88601 1.45641,0 2.60513,-0.58031 l 0.57436,1.40932 Q 12.784585,19 11.040985,19 7.635865,19 5.317915,16.67876 2.999975,14.33678 2.999975,11 q 0,-3.31606 2.31795,-5.65804 Q 7.656385,3 11.040995,3 Z m -1.90769,10.01036 q 0.73846,0.72538 1.7641,0.72538 1.02564,0 1.74359,-0.72538 0.73845,-0.72539 0.73845,-1.92746 0,-1.20208 -0.73845,-1.92746 -0.71795,-0.72539 -1.74359,-0.72539 -1.02564,0 -1.7641,0.72539 -0.71795,0.72538 -0.71795,1.92746 0,1.20207 0.71795,1.92746 z"
     id="path6" />
</svg>
