<svg xmlns="http://www.w3.org/2000/svg" viewBox="0 0 22 22">
  <defs id="defs3051">
    <style type="text/css" id="current-color-scheme">
      .ColorScheme-Text {
        color:#f2f2f2
      }
      </style>
  </defs>
    <path
       style="fill:currentColor;fill-opacity:1;stroke:none"
       class="ColorScheme-Text"
       d="m 10.07872,3.0000122 0,0.00195 C 9.6758745,3.0029615 9.2746774,3.1523921 8.9650076,3.4489139 8.3448676,4.0415776 8.3491018,5.0483336 8.9728176,5.6368302 L 14.641027,10.986588 9.0138492,16.37343 c -0.6201901,0.592654 -0.6179698,1.599539 0.00586,2.187916 0.6235011,0.589346 1.6138558,0.583604 2.2332858,-0.0098 l 6.635379,-6.351008 0.140681,-0.134671 0.002,0 c 0.30959,-0.296372 0.470412,-0.696454 0.468932,-1.094934 -0.002,-0.39819 -0.165057,-0.796847 -0.476748,-1.0910302 l -6.82686,-6.4407887 0,0.00195 C 10.884489,3.1466355 10.481566,2.9987032 10.07872,3.0000122 Z M 6.0009702,8.5078624 c -1.3765627,0 -2.5009677,1.1231811 -2.5009677,2.4982456 0,1.375054 1.124405,2.498245 2.5009677,2.498245 1.3765626,0 2.5009676,-1.123191 2.5009676,-2.498245 0,-1.3750645 -1.124405,-2.4982456 -2.5009676,-2.4982456 z"
        />
</svg>
