<svg xmlns="http://www.w3.org/2000/svg" viewBox="0 0 22 22">
  <defs id="defs3051">
    <style type="text/css" id="current-color-scheme">
      .ColorScheme-Text {
        color:#f2f2f2
      }
      </style>
  </defs>
    <path
       style="fill:#da4453;fill-opacity:1;stroke:none"
       d="m 11.041045,3 q 3.3641,0 5.66155,2.34196 2.29743,2.34197 2.29743,5.65804 0,1.86528 -0.8,3.08808 -0.77949,1.2228 -2.27693,1.2228 -1.53845,0 -2.29743,-1.51296 -1.00513,1.51296 -2.8718,1.51296 -1.68205,0 -2.83077,-1.18135 -1.14871,-1.20207 -1.14871,-3.04663 0,-1.82384 1.14871,-3.02591 1.14872,-1.20207 2.74872,-1.20207 1.57949,0 2.62564,1.2228 l 0.082,0 0,-0.93264 1.47693,0 0,5.40932 q 0,0.53886 0.28717,0.9741 0.3077,0.43523 0.92309,0.43523 1.4564,0 1.4564,-2.96373 0,-2.73576 -1.88718,-4.62176 -1.88717,-1.88602 -4.59487,-1.88602 -2.70769,0 -4.59487,1.88602 Q 4.558945,8.26425 4.558945,11 q 0,2.73575 1.88718,4.62176 1.88718,1.88601 4.59487,1.88601 1.45641,0 2.60513,-0.58031 l 0.57436,1.40932 Q 12.784585,19 11.040985,19 7.635865,19 5.317915,16.67876 2.999975,14.33678 2.999975,11 q 0,-3.31606 2.31795,-5.65804 Q 7.656385,3 11.040995,3 Z m -1.90769,10.01036 q 0.73846,0.72538 1.7641,0.72538 1.02564,0 1.74359,-0.72538 0.73845,-0.72539 0.73845,-1.92746 0,-1.20208 -0.73845,-1.92746 -0.71795,-0.72539 -1.74359,-0.72539 -1.02564,0 -1.7641,0.72539 -0.71795,0.72538 -0.71795,1.92746 0,1.20207 0.71795,1.92746 z"
        />
</svg>
