<svg xmlns="http://www.w3.org/2000/svg" viewBox="0 0 22 22">
  <defs id="defs3051">
    <style type="text/css" id="current-color-scheme">
      .ColorScheme-Text {
        color:#f2f2f2
      }
      </style>
  </defs>
 <path 
     style="fill:currentColor;fill-opacity:1;stroke:none"      
	 class="ColorScheme-Text"
        d="m 11.539292,3.0039 c -0.227825,-8e-4 -0.454859,0.08 -0.626799,0.244 L 8.106136,5.9212 C 7.934337,6.0848 7.846466,6.3037 7.845648,6.5206 7.84483,6.7377 7.931458,6.959 8.102066,7.124 l 2.78397,2.6907 c 0.341345,0.33 0.91186,0.3316 1.255636,0 0.343753,-0.3276 0.345449,-0.8728 0.0041,-1.2028 L 9.98454,6.5245 12.160024,4.4508 C 12.503753,4.1232 12.507419,3.578 12.166124,3.2479 11.99544,3.083 11.767144,3.0008 11.539323,3 Z M 5.311991,11.2031 C 4.861855,11.2031 4.5,11.5522 4.5,11.9841 c 0,0.4319 0.361855,0.7791 0.811991,0.7791 l 11.376018,0 c 0.450136,0 0.811991,-0.3472 0.811991,-0.7791 0,-0.4319 -0.361855,-0.781 -0.811991,-0.781 l -11.376018,0 z m 0,3.1183 C 4.861855,14.3214 4.5,14.6706 4.5,15.1026 c 0,0.4318 0.361855,0.779 0.811991,0.779 l 11.376018,0 c 0.450136,0 0.811991,-0.3472 0.811991,-0.779 0,-0.432 -0.361855,-0.7812 -0.811991,-0.7812 l -11.376018,0 z m 0,3.1184 C 4.861855,17.4398 4.5,17.789 4.5,18.2209 4.5,18.6528 4.861855,19 5.311991,19 l 11.376018,0 C 17.138145,19 17.5,18.6528 17.5,18.2209 c 0,-0.4319 -0.361855,-0.7811 -0.811991,-0.7811 l -11.376018,0 z"
     />
</svg>
