<svg xmlns="http://www.w3.org/2000/svg" viewBox="0 0 22 22">
  <defs id="defs3051">
    <style type="text/css" id="current-color-scheme">
      .ColorScheme-Text {
        color:#f2f2f2
      }
      </style>
  </defs>
    <path
       style="fill:currentColor;fill-opacity:1;stroke:none"
       class="ColorScheme-Text"
       d="m 14.401122,3 c 0.41113,-7e-5 0.82218,0.14791 1.1329,0.44404 0.62146,0.59211 0.62124,1.56655 -3e-4,2.15899 l 0,7e-5 -5.6652295,5.39752 5.6635095,5.39588 c 0.62147,0.59206 0.62132,1.56645 -2.3e-4,2.1588 -2e-5,2e-5 -3e-5,3e-5 -7e-5,6e-5 -2e-5,3e-5 -3e-5,4e-5 -6e-5,7e-5 -0.62159,0.59268 -1.64478,0.59274 -2.26628,3e-4 L 6.4690625,12.08064 c -0.31063,-0.29601 -0.46913,-0.68934 -0.46906,-1.07939 7e-5,-0.38975 0.15854,-0.78312 0.46923,-1.07928 l 0,-7e-5 6.7986395,-6.4775 c 0.3109,-0.29621 0.7221,-0.44434 1.13325,-0.4444 z"
        />
</svg>
