<svg xmlns="http://www.w3.org/2000/svg" viewBox="0 0 22 22">
 <defs id="defs3051">
   <style type="text/css" id="current-color-scheme">
     .ColorScheme-Text {
       color:#f2f2f2;
     }
     </style>
 </defs>
   <path
      style="fill:currentColor;fill-opacity:1;stroke:none"
      d="m11 3c-4.432 0-8 3.568-8 8s3.568 8 8 8 8-3.568 8-8-3.568-8-8-8zm4.345703 5.5c.049469 0 .102862.0034828.158203.0097656h.001953c.750669.0634717 1.281901.3183016 1.578125.7578125.329254.4885006.283355 1.0845879.226563 1.3964839-.005119.028143-.028471.049692-.056641.054688-.028279.005037-.05583-.00657-.070312-.03125-.058941-.100566-.158042-.253464-.300782-.40625-.346281-.3706187-.777783-.5664062-1.246093-.5664062-.038957-.0000001-.079267.001237-.119141.0039062v2.769531c0 .513358-.384849.934909-.916016 1.001953-.048168.006064-.096417.009766-.144531.009766-.512427 0-.943956-.347049-1.001953-.806641-.03125-.247562.04654-.493787.21875-.693359.172196-.199572.418598-.328609.69336-.363281.157673-.019916.317952-.005794.466796.039062v-2.8242185c0-.1622176.133271-.3515625.511719-.3515625zm-4.345703 1.5c.553999 0 1 .446001 1 1s-.446001 1-1 1-1-.446001-1-1 .446001-1 1-1z"
      class="ColorScheme-Text" />
</svg> 

