<svg xmlns="http://www.w3.org/2000/svg" viewBox="0 0 22 22">
 <defs id="defs3051">
   <style type="text/css" id="current-color-scheme">
     .ColorScheme-Text {
       color:#f2f2f2;
     }
     </style>
 </defs>
   <path
      style="fill:currentColor;fill-opacity:1;stroke:none"
      d="m4.0117188 3c-.560959 0-1.0117188.4507598-1.0117188 1.0117188v13.9765622c0 .560959.4507598 1.011719 1.0117188 1.011719h13.9765622c.560959 0 1.011719-.45076 1.011719-1.011719v-13.9765622c0-.560959-.45076-1.0117188-1.011719-1.0117188zm9.8925782 3.3007812c.214262.0378063.371094.2370906.371094.5058594l-.017579 6.9902344c-.070631.521531-.513824 1.014666-1.15625 1.189453-.80525.219075-1.598871-.144734-1.771484-.798828-.172619-.654094.333409-1.362956 1.138672-1.582031.446231-.12135.875806-.046988 1.210938.136719v-4.2363286l-4.1757818 1.171875-.0195312 5.3671876c-.0706063.521456-.5138249 1.0167-1.15625 1.191406-.8052564.219075-1.596925-.146762-1.7695312-.800781-.1726188-.654169.331456-1.361003 1.1367187-1.580078.4462501-.12135.8757812-.046988 1.2109375.136719v-5.6816411c0-.3583376.2671562-.7275438.5976562-.8203125z"
      class="ColorScheme-Text" />
</svg> 
