<svg xmlns="http://www.w3.org/2000/svg" viewBox="0 0 22 22">
  <defs id="defs3051">
    <style type="text/css" id="current-color-scheme">
      .ColorScheme-Text {
        color:#f2f2f2
      }
      </style>
  </defs>
 <path 
     style="fill:currentColor;fill-opacity:1;stroke:none"      
	 class="ColorScheme-Text"
        d="M 4.0117188 3 C 3.4507598 3 3 3.4507598 3 4.0117188 L 3 17.988281 C 3 18.54924 3.4507598 19 4.0117188 19 L 17.988281 19 C 18.54924 19 19 18.54924 19 17.988281 L 19 4.0117188 C 19 3.4507598 18.54924 3 17.988281 3 L 4.0117188 3 z M 13.904297 6.3007812 C 14.118559 6.3385875 14.275391 6.5378718 14.275391 6.8066406 L 14.257812 13.796875 C 14.187181 14.318406 13.743988 14.811541 13.101562 14.986328 C 12.296312 15.205403 11.502691 14.841594 11.330078 14.1875 C 11.157459 13.533406 11.663487 12.824544 12.46875 12.605469 C 12.914981 12.484119 13.344556 12.558481 13.679688 12.742188 L 13.679688 8.5058594 L 9.5039062 9.6777344 L 9.484375 15.044922 C 9.4137687 15.566378 8.9705501 16.061622 8.328125 16.236328 C 7.5228686 16.455403 6.7312 16.089566 6.5585938 15.435547 C 6.385975 14.781378 6.8900498 14.074544 7.6953125 13.855469 C 8.1415626 13.734119 8.5710937 13.808481 8.90625 13.992188 L 8.90625 8.3105469 C 8.90625 7.9522093 9.1734062 7.5830031 9.5039062 7.4902344 L 13.904297 6.3007812 z "
     />
</svg>
