<svg xmlns="http://www.w3.org/2000/svg" viewBox="0 0 22 22">
 <defs id="defs3051">
   <style type="text/css" id="current-color-scheme">
     .ColorScheme-Text {
       color:#f2f2f2;
     }
     </style>
 </defs>
   <path
      style="fill:currentColor;fill-opacity:1;stroke:none"
      d="m4.0117188 3c-.560959 0-1.0117188.4507598-1.0117188 1.0117188v13.9765622c0 .560959.4507598 1.011719 1.0117188 1.011719h13.9765622c.560959 0 1.011719-.45076 1.011719-1.011719v-13.9765622c0-.560959-.45076-1.0117188-1.011719-1.0117188zm6.9882812 3.2304688c.12016 0 .218872.0837762.294922.2480468l1.351562 2.734375 3.017578.4375c.224537.0360702.335938.1290798.335938.2773438 0 .0881466-.051949.1829556-.15625.2871096l-2.181641 2.128906.517579 3.003906c.004056.028104.005859.069017.005859.121094 0 .084164-.020529.154765-.0625.212891-.042045.058199-.103266.08789-.183594.08789-.075976 0-.155997-.024172-.240234-.072265l-2.699219-1.419922-2.6992188 1.419922c-.0881468.048167-.1680939.072265-.2402343.072265-.0841638 0-.1474081-.029765-.1894531-.08789-.0420451-.0582-.0625-.128727-.0625-.212891-.0000001-.023973.0036785-.06496.0117187-.121094l.5175781-3.003906-2.1875-2.128906c-.1001704-.108137-.1503906-.202946-.1503906-.2871096 0-.148264.1116237-.2412736.3359375-.2773438l3.0175781-.4375 1.3515624-2.734375c.076124-.1642706.174762-.2480469.294922-.2480468z"
      class="ColorScheme-Text" />
</svg> 
