<svg xmlns="http://www.w3.org/2000/svg" viewBox="0 0 22 22">
  <defs id="defs3051">
    <style type="text/css" id="current-color-scheme">
      .ColorScheme-NegativeText {
        color:#da4453;
      }
      </style>
  </defs>
        <path
           style="fill:currentColor;fill-opacity:1;stroke:none" 
           class="ColorScheme-NegativeText"
           d="m 20.042015,13.95843 c -0.19446,-0.19447 -0.43048,-0.29164 -0.70844,-0.29164 l -0.99982,0 0,-2.00016 c 0,-0.36106 -0.13208,-0.67366 -0.39584,-0.93743 -0.26389,-0.26402 -0.57663,-0.39596 -0.93769,-0.39596 l -5.33333,0 0,-2.00003 0.99982,0 c 0.27796,0 0.51411,-0.0972 0.70844,-0.29164 0.19447,-0.19434 0.29151,-0.43049 0.29151,-0.70832 l 0,-3.3333 c 0,-0.27783 -0.0972,-0.51397 -0.29151,-0.70831 C 13.180695,3.09717 12.944675,3 12.666715,3 l -3.3333,0 c -0.27783,0 -0.51385,0.0972 -0.70831,0.29164 -0.19447,0.19434 -0.29164,0.43048 -0.29164,0.70831 l 0,3.3333 c 0,0.27783 0.0972,0.51385 0.29164,0.70832 0.19433,0.19447 0.43048,0.29164 0.70831,0.29164 l 0.99995,0 0,2.00003 -5.33333,0 c -0.36119,0 -0.67367,0.13207 -0.93756,0.39596 -0.26389,0.26377 -0.39584,0.57637 -0.39584,0.93743 l 0,2.00016 -1.00008,0 c -0.2777,0 -0.51385,0.0973 -0.70831,0.29164 -0.19447,0.19434 -0.29164,0.43049 -0.29164,0.70832 l 0,3.3333 c 0,0.27783 0.0972,0.51397 0.29164,0.70831 C 2.152705,18.90283 2.388855,19 2.666555,19 l 3.33343,0 c 0.2777,0 0.51385,-0.0973 0.70832,-0.29164 0.19446,-0.19434 0.29163,-0.43048 0.29163,-0.70831 l 0,-3.3333 c 0,-0.27783 -0.0972,-0.51385 -0.29163,-0.70832 -0.19447,-0.19447 -0.43062,-0.29164 -0.70832,-0.29164 l -1.00008,0 0,-2.00016 5.33333,0 0,2.00016 -0.99995,0 c -0.27783,0 -0.51385,0.0973 -0.70831,0.29164 -0.19447,0.19434 -0.29164,0.43049 -0.29164,0.70832 l 0,3.3333 c 0,0.27783 0.0972,0.51397 0.29164,0.70831 C 8.819315,18.90283 9.055455,19 9.333285,19 l 3.3333,0 c 0.27796,0 0.51398,-0.0973 0.70845,-0.29164 0.19434,-0.19446 0.29163,-0.43048 0.29163,-0.70831 l 0,-3.3333 c 0,-0.27783 -0.0972,-0.51385 -0.29163,-0.70832 -0.19447,-0.19447 -0.43049,-0.29164 -0.70845,-0.29164 l -0.99982,0 0,-2.00016 5.33346,0 0,2.00016 -1.00008,0 c -0.2777,0 -0.51398,0.0973 -0.70844,0.29164 -0.19434,0.19447 -0.29151,0.43049 -0.29151,0.70832 l 0,3.3333 c 0,0.27783 0.0972,0.51397 0.29151,0.70831 C 15.486165,18.90283 15.722445,19 16.000145,19 l 3.33343,0 c 0.2777,0 0.51372,-0.0973 0.70819,-0.29164 0.19446,-0.19434 0.29163,-0.43048 0.29163,-0.70831 l 0,-3.3333 c 0,-0.27783 -0.0972,-0.51398 -0.29138,-0.70832 l 0,0 z"
            />
</svg>
