<svg xmlns="http://www.w3.org/2000/svg" viewBox="0 0 22 22">
 <defs id="defs3051">
   <style type="text/css" id="current-color-scheme">
     .ColorScheme-Text {
       color:#f2f2f2;
     }
     </style>
 </defs>
   <path
      style="fill:currentColor;fill-opacity:1;stroke:none"
      d="m11.87891 4.44531c-.2814 0-.50782.22642-.50782.50781v.61328c0 .2814.22642.50782.50782.50782h8.61328c.28139 0 .50781-.22642.50781-.50782v-.61328c0-.28139-.22642-.50781-.50781-.50781zm-2.2168.32617c-.1593.00058-.31833.0616-.43945.1836l-3.36914 3.39453-3.39454-3.3711c-.24389-.24215-.6387-.24-.88086.004-.24236.24389-.24022.63861.004.88086l3.83594 3.80859c.12195.12106.28013.18027.43945.17969.15925-.00058.31832-.0616.43945-.18359l3.8086-3.83594c.24225-.24401.24205-.63871-.002-.88086-.12196-.12108-.28211-.18026-.44141-.17969zm2.2168 3.59961c-.2814 0-.50782.22642-.50782.50781v.61329c0 .28139.22642.50781.50782.50781h8.61328c.28139 0 .50781-.22642.50781-.50781v-.61329c0-.28139-.22642-.50781-.50781-.50781zm-10.38477 3.85156c-.27408 0-.49414.22006-.49414.49414v.64063c0 .27408.22006.49414.49414.49414h19.01172c.27408 0 .49414-.22006.49414-.49414v-.64063c0-.27408-.22006-.49414-.49414-.49414h-19.01172zm10.38477 3.70313c-.2814 0-.50782.22641-.50782.5078v.61329c0 .28139.22642.50782.50782.50782h8.61328c.28139 0 .50781-.22643.50781-.50782v-.61329c0-.28139-.22642-.5078-.50781-.5078z"
      class="ColorScheme-Text" />
</svg> 
