<svg xmlns="http://www.w3.org/2000/svg" viewBox="0 0 22 22">
 <defs id="defs3051">
   <style type="text/css" id="current-color-scheme">
     .ColorScheme-Text {
       color:#f2f2f2;
     }
     </style>
 </defs>
   <path
      style="fill:currentColor;fill-opacity:1;stroke:none"
      d="m11.740233 4.5000025c-.205185 0-.36914.1625851-.36914.3660591v.8812585c0 .2034737.163955.368.36914.368h8.888671c.205185 0 .371096-.1645263.371096-.368v-.8812585c0-.203474-.165911-.3660591-.371096-.3660591zm0 4.0034271c-.205185 0-.36914.162585-.36914.3660599v.881259c0 .203474.163955.3679935.36914.3679935h8.888671c.205185 0 .371096-.1645194.371096-.3679934v-.881259c0-.203475-.165911-.36606-.371096-.36606zm-2.0781251.307957c-.1593036.00054-.3183258.06111-.4394517.182059l-3.3691394 3.3662134-3.3945322-3.3429684c-.2438961-.240349-.6387035-.238-.8808588.0038-.2425926.241858-.2402222.633273.0037.87351l3.835943 3.7767674c.1219551.120075.2801258.178762.4394517.178192.1592518-.000577.3183185-.06111.4394517-.182066l3.8085988-3.8039824c.242474-.241978.242059-.6333781-.0022-.87351-.121978-.120172-.2821261-.178734-.4414298-.178187zm2.0781251 3.4010724c-.205185 0-.36914.162585-.36914.366059v.883192c0 .203474.163955.366059.36914.366059h8.888671c.205185 0 .371096-.162585.371096-.366059v-.883192c0-.203474-.165911-.366059-.371096-.366059zm-10.3691369 3.672229c-.2051851 0-.3710961.164517-.3710961.367992v.881259c0 .203474.165911.366059.3710961.366059h19.2578079c.205185 0 .371096-.162585.371096-.366059v-.881259c0-.203475-.165911-.367992-.371096-.367992z"
      class="ColorScheme-Text" />
</svg> 
