<svg xmlns="http://www.w3.org/2000/svg" viewBox="0 0 22 22">
 <defs id="defs3051">
   <style type="text/css" id="current-color-scheme">
     .ColorScheme-Text {
       color:#f2f2f2;
     }
     </style>
 </defs>
   <path
      style="fill:currentColor;fill-opacity:1;stroke:none"
      d="m11.5 2c-.277005 0-.5.2229948-.5.5s.222995.5.5.5.5-.2229948.5-.5-.222995-.5-.5-.5zm-7 1c-.2770052 0-.5.2229948-.5.5s.2229948.5.5.5.5-.2229948.5-.5-.2229948-.5-.5-.5zm14 0c-.277005 0-.5.2229948-.5.5s.222995.5.5.5.5-.2229948.5-.5-.222995-.5-.5-.5zm-7 1c-.277005 0-.5.2229948-.5.5s.222995.5.5.5.5-.2229948.5-.5-.222995-.5-.5-.5zm-5 1c-.2770052 0-.5.2229948-.5.5s.2229948.5.5.5.5-.2229948.5-.5-.2229948-.5-.5-.5zm4.5 0c-1.9014407 0-3.5877931.8783098-4.6855469 2.25l3.1289063 2.5039062c.3659329-.4568104.9231646-.7539062 1.5566406-.7539062v-.5-2zm0 1.5c0 .2770052.222995.5.5.5s.5-.2229948.5-.5-.222995-.5-.5-.5-.5.2229948-.5.5zm0 2c0 .2770052.222995.5.5.5s.5-.2229948.5-.5-.222995-.5-.5-.5-.5.2229948-.5.5zm3.708984-3.4355469-2.65039 4.2421875c.519459.3248556.870291.8812664.923828 1.5273434l4.988281-.416015c-.185557-2.2658021-1.439663-4.2157333-3.261719-5.3535159zm-11.208984 4.9355469c-.2770052 0-.5.222995-.5.5s.2229948.5.5.5.5-.222995.5-.5-.2229948-.5-.5-.5zm2 0c-.2770052 0-.5.222995-.5.5s.2229948.5.5.5.5-.222995.5-.5-.2229948-.5-.5-.5zm2 0c-.2770052 0-.5.222995-.5.5s.2229948.5.5.5.5-.222995.5-.5-.2229948-.5-.5-.5zm2 0c-.2770052 0-.5.222995-.5.5s.2229948.5.5.5.5-.222995.5-.5-.2229948-.5-.5-.5zm2 0c-.277005 0-.5.222995-.5.5s.222995.5.5.5.5-.222995.5-.5-.222995-.5-.5-.5zm0 2c-.277005 0-.5.222995-.5.5s.222995.5.5.5.5-.222995.5-.5-.222995-.5-.5-.5zm2 0c-.277005 0-.5.222995-.5.5s.222995.5.5.5.5-.222995.5-.5-.222995-.5-.5-.5zm-3.9160156.416016-2.1230469 2.123046c.90375.903751 2.1540625 1.460938 3.5390625 1.460938v-1.5-1.5c-.554 0-1.0545156-.222484-1.4160156-.583984zm1.4160156 2.083984c0 .277005.222995.5.5.5s.5-.222995.5-.5-.222995-.5-.5-.5-.5.222995-.5.5zm4.5-.5c-.277005 0-.5.222995-.5.5s.222995.5.5.5.5-.222995.5-.5-.222995-.5-.5-.5zm-9 2c-.2770052 0-.5.222995-.5.5s.2229948.5.5.5.5-.222995.5-.5-.2229948-.5-.5-.5zm5 0c-.277005 0-.5.222995-.5.5s.222995.5.5.5.5-.222995.5-.5-.222995-.5-.5-.5zm6 0c-.277005 0-.5.222995-.5.5s.222995.5.5.5.5-.222995.5-.5-.222995-.5-.5-.5zm-13 2c-.2770052 0-.5.222995-.5.5s.2229948.5.5.5.5-.222995.5-.5-.2229948-.5-.5-.5zm7 0c-.277005 0-.5.222995-.5.5s.222995.5.5.5.5-.222995.5-.5-.222995-.5-.5-.5z"
      class="ColorScheme-Text" />
</svg> 
