<svg xmlns="http://www.w3.org/2000/svg" viewBox="0 0 22 22">
  <defs id="defs3051">
    <style type="text/css" id="current-color-scheme">
      .ColorScheme-Text {
        color:#f2f2f2;
      }
      .ColorScheme-Highlight {
        color:#1d99f3;
      }
      </style>
  </defs>
 <path 
     style="fill:currentColor;fill-opacity:0.6;stroke:none" 
     d="M 13,4.3333333 A 4.6666667,4.6666667 0 0 0 8.3333333,9 4.6666667,4.6666667 0 0 0 8.3854163,9.6666667 l 3.9479167,0 0,3.9453123 A 4.6666667,4.6666667 0 0 0 13,13.666667 4.6666667,4.6666667 0 0 0 17.666667,9 4.6666667,4.6666667 0 0 0 13,4.3333333 Z M 12.333333,13.611979 A 4.6666667,4.6666667 0 0 1 8.3854167,9.6666667 l -4.0520834,0 0,8.0000003 7.9999997,0 0,-4.054688 z"
     class="ColorScheme-Text"
     />
 <path 
     style="fill:currentColor;fill-opacity:1;stroke:none" 
     class="ColorScheme-Highlight"
     d="M 13,3 A 6,6 0 0 0 7.0442708,8.3333333 L 3,8.3333333 3,19 l 10.666667,0 0,-4.041667 A 6,6 0 0 0 19,9 6,6 0 0 0 13,3 Z m 0,1.3333333 A 4.6666667,4.6666667 0 0 1 17.666667,9 a 4.6666667,4.6666667 0 0 1 -4,4.614584 l 0,-5.2812507 -5.2786462,0 a 4.6666667,4.6666667 0 0 1 4.6119792,-4 z m -8.6666667,5.3333334 2.7083334,0 a 6,6 0 0 0 5.2916663,5.2890623 l 0,2.710938 -7.9999997,0 0,-8.0000003 z m 4.0520834,0 3.9479163,0 0,3.9453123 A 4.6666667,4.6666667 0 0 1 8.3854167,9.6666667 Z"
     />
</svg>
