<svg xmlns="http://www.w3.org/2000/svg" viewBox="0 0 22 22">
 <defs id="defs3051">
   <style type="text/css" id="current-color-scheme">
     .ColorScheme-Text {
       color:#f2f2f2;
     }
     </style>
 </defs>
   <path
      style="fill:currentColor;fill-opacity:1;stroke:none"
      d="m12.357702 3a6.0156658 6.0156658 0 0 0 -1.738903.4647519l.673629 1.1671019a4.6788512 4.6788512 0 0 1 1.065274-.2845953zm1.336815.00261v1.3472585a4.6788512 4.6788512 0 0 1 1.065274.2819843l.671018-1.1618757a6.0156658 6.0156658 0 0 0 -1.736292-.467363zm-4.232376 1.1331603a6.0156658 6.0156658 0 0 0 -1.2741514 1.2741514l1.1671017.6710182a4.6788512 4.6788512 0 0 1  .7754567-.7832898zm7.127938 0-.67102 1.1671017a4.6788512 4.6788512 0 0 1  .783291.775457l1.16188-.6684073a6.0156658 6.0156658 0 0 0 -1.274151-1.2741514zm1.945169 2.4308094-1.167102.6736292a4.6788512 4.6788512 0 0 1  .284596 1.0652741h1.347258a6.0156658 6.0156658 0 0 0 -.464752-1.7389033zm-11.0130548.0026109a6.0156658 6.0156658 0 0 0 -.4673629 1.7362924h-4.0548303v10.694517h10.694517v-4.052219a6.0156658 6.0156658 0 0 0 1.738903-.464752l-.673629-1.167102a4.6788512 4.6788512 0 0 1 -1.733681.336814 4.6788512 4.6788512 0 0 1 -4.6266322-4.0104433 4.6788512 4.6788512 0 0 1 -.0522193-.6684074 4.6788512 4.6788512 0 0 1  .0548302-.6684073 4.6788512 4.6788512 0 0 1  .2819844-1.0652741zm-3.1853786 3.0731071h2.7154047a6.0156658 6.0156658 0 0 0 5.3054827 5.3028723v2.718015h-8.0208874zm13.3133154 0a4.6788512 4.6788512 0 0 1 -.281984 1.0652743l1.161881.671018a6.0156658 6.0156658 0 0 0  .467362-1.7362923zm-.953002 2.2245433a4.6788512 4.6788512 0 0 1 -.775456.78329l.668407 1.16188a6.0156658 6.0156658 0 0 0 1.274151-1.274152z"
      class="ColorScheme-Text" />
</svg> 
