<svg xmlns="http://www.w3.org/2000/svg" viewBox="0 0 22 22">
 <defs id="defs3051">
   <style type="text/css" id="current-color-scheme">
     .ColorScheme-Text {
       color:#f2f2f2;
     }
     </style>
 </defs>
   <path
      style="fill:currentColor;fill-opacity:1;stroke:none"
      d="m11 3c-.846192 0-1.5712258.3018126-2.1738281.9042969s-.9023438 1.3256825-.9023438 2.171875v4.9238281c0 .846192.2998595 1.571462.9023438 2.173828s1.3276361.902344 2.1738281.902344 1.571344-.299978 2.173828-.902344.902344-1.327636.902344-2.173828v-4.9238281c0-.8461925-.299624-1.5692727-.902344-2.171875-.602484-.6024843-1.327636-.9042969-2.173828-.9042969zm-4.9238281 6.1542969c-.1667601 0-.3098456.0598455-.4316407.1816406-.121795.1217951-.1835937.2669517-.1835937.4335937v1.2304688c0 1.416694.4725228 2.649262 1.4179687 3.697266.945446 1.048004 2.1147757 1.648956 3.5058598 1.802734v1.269531h-2.4609379c-.1666421 0-.3117987.059846-.4335937.181641-.1217951.121795-.1835938.266952-.1835938.433594 0 .166524.0617987.309963.1835938.43164.121795.121795.2669516.183594.4335937.183594h6.1523439c.166642 0 .312035-.061799.433594-.183594.121913-.121677.18164-.265116.18164-.43164 0-.166642-.059727-.311799-.18164-.433594-.121559-.121795-.266952-.181641-.433594-.181641h-2.460938v-1.269531c1.390848-.153778 2.558343-.75473 3.503907-1.802734s1.419922-2.280572 1.419921-3.697266v-1.2304688c0-.166642-.06168-.3116806-.183593-.4335937-.121559-.1217951-.264999-.1816406-.431641-.1816406s-.311799.0598455-.433594.1816406-.183593.2669517-.183593.4335937v1.2304688c0 1.185968-.420784 2.199963-1.263672 3.042969-.84277.843006-1.857001 1.265625-3.042969 1.265625-1.1859676 0-2.1999628-.422619-3.0429688-1.265625-.8428879-.84277-1.2656249-1.857001-1.265625-3.042969v-1.2304688c0-.166642-.0598455-.3117986-.1816406-.4335937-.121795-.1217951-.2668336-.1816406-.4335937-.1816406z"
      class="ColorScheme-Text" />
</svg> 
