<svg xmlns="http://www.w3.org/2000/svg" viewBox="0 0 22 22">
  <defs id="defs3051">
    <style type="text/css" id="current-color-scheme">
      .ColorScheme-Text {
        color:#f2f2f2
      }
      </style>
  </defs>
 <path 
     style="fill:currentColor;fill-opacity:1;stroke:none"      
	 class="ColorScheme-Text"
        d="M 11 3 C 10.153808 3 9.4287742 3.3018126 8.8261719 3.9042969 C 8.2235696 4.5067812 7.9238281 5.2299794 7.9238281 6.0761719 L 7.9238281 11 C 7.9238281 11.846192 8.2236876 12.571462 8.8261719 13.173828 C 9.4286562 13.776194 10.153808 14.076172 11 14.076172 C 11.846192 14.076172 12.571344 13.776194 13.173828 13.173828 C 13.776312 12.571462 14.076172 11.846192 14.076172 11 L 14.076172 6.0761719 C 14.076172 5.2299794 13.776548 4.5068992 13.173828 3.9042969 C 12.571344 3.3018126 11.846192 3 11 3 z M 6.0761719 9.1542969 C 5.9094118 9.1542969 5.7663263 9.2141424 5.6445312 9.3359375 C 5.5227362 9.4577326 5.4609375 9.6028892 5.4609375 9.7695312 L 5.4609375 11 C 5.4609375 12.416694 5.9334603 13.649262 6.8789062 14.697266 C 7.8243522 15.74527 8.9936819 16.346222 10.384766 16.5 L 10.384766 17.769531 L 7.9238281 17.769531 C 7.757186 17.769531 7.6120294 17.829377 7.4902344 17.951172 C 7.3684393 18.072967 7.3066406 18.218124 7.3066406 18.384766 C 7.3066406 18.55129 7.3684393 18.694729 7.4902344 18.816406 C 7.6120294 18.938201 7.757186 19 7.9238281 19 L 14.076172 19 C 14.242814 19 14.388207 18.938201 14.509766 18.816406 C 14.631679 18.694729 14.691406 18.55129 14.691406 18.384766 C 14.691406 18.218124 14.631679 18.072967 14.509766 17.951172 C 14.388207 17.829377 14.242814 17.769531 14.076172 17.769531 L 11.615234 17.769531 L 11.615234 16.5 C 13.006082 16.346222 14.173577 15.74527 15.119141 14.697266 C 16.064705 13.649262 16.539063 12.416694 16.539062 11 L 16.539062 9.7695312 C 16.539062 9.6028892 16.477382 9.4578506 16.355469 9.3359375 C 16.23391 9.2141424 16.09047 9.1542969 15.923828 9.1542969 C 15.757186 9.1542969 15.612029 9.2141424 15.490234 9.3359375 C 15.368439 9.4577326 15.306641 9.6028892 15.306641 9.7695312 L 15.306641 11 C 15.306641 12.185968 14.885857 13.199963 14.042969 14.042969 C 13.200199 14.885975 12.185968 15.308594 11 15.308594 C 9.8140324 15.308594 8.8000372 14.885975 7.9570312 14.042969 C 7.1141433 13.200199 6.6914063 12.185968 6.6914062 11 L 6.6914062 9.7695312 C 6.6914062 9.6028892 6.6315607 9.4577326 6.5097656 9.3359375 C 6.3879706 9.2141424 6.242932 9.1542969 6.0761719 9.1542969 z "
     />
</svg>
