<?xml version="1.0" encoding="UTF-8" standalone="no"?>
<svg
   xmlns:dc="http://purl.org/dc/elements/1.1/"
   xmlns:cc="http://creativecommons.org/ns#"
   xmlns:rdf="http://www.w3.org/1999/02/22-rdf-syntax-ns#"
   xmlns:svg="http://www.w3.org/2000/svg"
   xmlns="http://www.w3.org/2000/svg"
   xmlns:sodipodi="http://sodipodi.sourceforge.net/DTD/sodipodi-0.dtd"
   xmlns:inkscape="http://www.inkscape.org/namespaces/inkscape"
   viewBox="0 0 22 22"
   id="svg2"
   version="1.1"
   inkscape:version="0.91 r13725"
   sodipodi:docname="project-development-new-template.svg">
  <metadata
     id="metadata10">
    <rdf:RDF>
      <cc:Work
         rdf:about="">
        <dc:format>image/svg+xml</dc:format>
        <dc:type
           rdf:resource="http://purl.org/dc/dcmitype/StillImage" />
      </cc:Work>
    </rdf:RDF>
  </metadata>
  <sodipodi:namedview
     pagecolor="#ffffff"
     bordercolor="#666666"
     borderopacity="1"
     objecttolerance="10"
     gridtolerance="10"
     guidetolerance="10"
     inkscape:pageopacity="0"
     inkscape:pageshadow="2"
     inkscape:window-width="640"
     inkscape:window-height="480"
     id="namedview8"
     showgrid="false"
     inkscape:zoom="28.954545"
     inkscape:cx="4.8524333"
     inkscape:cy="11"
     inkscape:current-layer="svg2" />
  <defs
     id="defs3051">
    <style
       type="text/css"
       id="current-color-scheme">
      .ColorScheme-Text {
        color:#f2f2f2
      }
      </style>
  </defs>
  <path
     style="color:#f2f2f2;fill:currentColor;fill-opacity:1;stroke:none"
     d="M 3.5683594 4.9257812 C 3.2535907 4.9257812 3 5.1813327 3 5.4960938 L 3 16.431641 C 3 16.746402 3.2535907 17 3.5683594 17 L 18.431641 17 C 18.746407 17 19 16.746402 19 16.431641 L 19 5.4960938 C 19 5.1813326 18.746407 4.9257812 18.431641 4.9257812 L 3.5683594 4.9257812 z M 10.240234 7.5097656 C 10.293334 7.5241656 10.340796 7.5544625 10.384766 7.6015625 L 11 8.234375 L 11.615234 7.6015625 C 11.703134 7.5104625 11.809044 7.482165 11.933594 7.515625 C 12.058084 7.546025 12.135656 7.6235469 12.166016 7.7480469 L 12.384766 8.6035156 L 13.232422 8.3632812 C 13.356962 8.3267812 13.462801 8.3553188 13.550781 8.4492188 C 13.645081 8.5373188 13.673149 8.6431381 13.636719 8.7675781 L 13.396484 9.6152344 L 14.251953 9.8339844 C 14.373473 9.8643844 14.451891 9.9419063 14.488281 10.066406 C 14.518681 10.193916 14.489337 10.299736 14.398438 10.384766 L 13.769531 11 L 14.398438 11.615234 C 14.489638 11.700234 14.518631 11.806034 14.488281 11.933594 C 14.451881 12.058094 14.373533 12.135656 14.251953 12.166016 L 13.396484 12.384766 L 13.636719 13.230469 C 13.673019 13.354899 13.644681 13.462681 13.550781 13.550781 C 13.462881 13.644881 13.356962 13.673149 13.232422 13.636719 L 12.384766 13.394531 L 12.166016 14.251953 C 12.135616 14.373373 12.058074 14.451841 11.933594 14.488281 C 11.897094 14.494281 11.868956 14.498047 11.847656 14.498047 C 11.753556 14.498047 11.675944 14.463244 11.615234 14.396484 L 11 13.769531 L 10.384766 14.396484 C 10.299766 14.487584 10.193916 14.518631 10.066406 14.488281 C 9.9419163 14.454881 9.8643444 14.376443 9.8339844 14.251953 L 9.6152344 13.394531 L 8.7675781 13.636719 C 8.6430881 13.673019 8.5372488 13.644681 8.4492188 13.550781 C 8.3551188 13.462581 8.3267813 13.354959 8.3632812 13.230469 L 8.6035156 12.384766 L 7.7480469 12.166016 C 7.6266369 12.135616 7.5480988 12.058084 7.5117188 11.933594 C 7.4813187 11.806074 7.5106625 11.700254 7.6015625 11.615234 L 8.2304688 11 L 7.6015625 10.384766 C 7.5104625 10.299766 7.4813588 10.193916 7.5117188 10.066406 C 7.5480187 9.9419163 7.6266369 9.8643444 7.7480469 9.8339844 L 8.6035156 9.6152344 L 8.3632812 8.7675781 C 8.3267812 8.6430881 8.3553188 8.5372588 8.4492188 8.4492188 C 8.5372187 8.3551188 8.6430881 8.3267912 8.7675781 8.3632812 L 9.6152344 8.6035156 L 9.8339844 7.7480469 C 9.8643844 7.6235569 9.9419163 7.545985 10.066406 7.515625 C 10.128606 7.497425 10.187114 7.4954656 10.240234 7.5097656 z "
     id="path6" />
</svg>
