<svg xmlns="http://www.w3.org/2000/svg" viewBox="0 0 22 22">
  <defs id="defs3051">
    <style type="text/css" id="current-color-scheme">
      .ColorScheme-Text {
        color:#f2f2f2
      }
      </style>
  </defs>
 <path 
     style="fill:currentColor;fill-opacity:1;stroke:none"      
	 class="ColorScheme-Text"
        d="m 14.984371,2.9999996 c 0,0 -1,0.006 -1,1.01563 l 0,0.98437 -3,0 0,1 0,11.0000004 1,0 2,0 0,0.99414 c 0,0 -5.7e-4,1.00586 1.00977,1.00586 l 3.0039,0 c 0,0 0.98633,0.006 0.98633,-0.98242 l 0,-3.01758 c 0,0 0.0123,-1 -0.98633,-1 l -3.0039,0 c -0.009,0 -1.00977,0.0109 -1.00977,1.0332 l 0,0.9668 -2,0 0,-10.0000004 2,0 0,1.01367 c 0,0 0.0106,0.98633 1.00977,0.98633 l 2.9707,0 c 0,0 1.01953,0.0363 1.01953,-0.96484 l 0,-3.03907 c 0,0.004 -0.011,-0.99609 -1.01953,-0.99609 l -2.98047,0 z m -7.0546896,0.043 -4.91406,5.97851 3.31641,1.7949304 -0.85938,4.18359 4.9160196,-5.9785204 -3.3164096,-1.79492 0.85742,-4.18359 z"
     />
</svg>
