<svg xmlns="http://www.w3.org/2000/svg" viewBox="0 0 22 22">
  <path
     style="fill:#fdbc4b;fill-opacity:1"
     d="m 19.388068,9.2003 c 0,-0.24873 -0.188095,-0.40329 -0.564778,-0.4638 L 13.762446,8.00058 11.494056,3.41331 C 11.366474,3.13773 11.201644,3 11.000062,3 10.798479,3 10.633773,3.13773 10.506067,3.41331 L 8.2375536,8.00058 3.1764617,8.7365 C 2.8001498,8.797 2.611932,8.95157 2.611932,9.2003 c 0,0.14119 0.084024,0.30256 0.2520708,0.48397 l 3.6698145,3.56896 -0.8669652,5.04092 c -0.013488,0.0942 -0.020171,0.16149 -0.020171,0.20171 0,0.14119 0.035268,0.26036 0.1058029,0.358 C 5.823019,18.95136 5.9288222,19 6.0700165,19 6.1910402,19 6.3254284,18.9599 6.473305,18.8791 l 4.526633,-2.37951 4.527004,2.37951 C 15.66826,18.9598 15.802648,19 15.930106,19 c 0.13476,0 0.237098,-0.0485 0.307633,-0.14614 0.07041,-0.0975 0.105679,-0.21681 0.105679,-0.358 0,-0.0874 -0.0033,-0.15456 -0.01015,-0.20171 L 15.466179,13.25323 19.125847,9.68427 C 19.300824,9.50954 19.388065,9.34818 19.388065,9.2003 l 0,0 z"
     id="path4"
     inkscape:connector-curvature="0" />
</svg>
