<svg viewBox="0 0 22 22" xmlns="http://www.w3.org/2000/svg"><path d="m19.388068 9.2003c0-.24873-.188095-.40329-.564778-.4638l-5.060844-.73592-2.26839-4.58727c-.127582-.27558-.292412-.41331-.493994-.41331-.201583 0-.366289.13773-.493995.41331l-2.2685134 4.58727-5.0610919.73592c-.3763119.0605-.5645297.21507-.5645297.4638 0 .14119.084024.30256.2520708.48397l3.6698145 3.56896-.8669652 5.04092c-.013488.0942-.020171.16149-.020171.20171 0 .14119.035268.26036.1058029.358.070535.0975.1763382.14614.3175325.14614.1210237 0 .2554119-.0401.4032885-.1209l4.526633-2.37951 4.527004 2.37951c.141318.0807.275706.1209.403164.1209.13476 0 .237098-.0485.307633-.14614.07041-.0975.105679-.21681.105679-.358 0-.0874-.0033-.15456-.01015-.20171l-.867089-5.04092 3.659668-3.56896c.174977-.17473.262218-.33609.262218-.48397z" fill="#fdbc4b"/></svg>