<svg xmlns="http://www.w3.org/2000/svg" viewBox="0 0 22 22">
  <defs id="defs3051">
    <style type="text/css" id="current-color-scheme">
      .ColorScheme-Text {
        color:#f2f2f2
      }
      </style>
  </defs>
 <path 
     style="fill:currentColor;fill-opacity:1;stroke:none"      
	 class="ColorScheme-Text"
        d="m 11,3.000025 c -1.02081,0 -2.00793,0.19264 -2.96289,0.57813 -0.95484,0.38548 -1.80377,0.92943 -2.54688,1.63085 L 4.13477,3.865255 C 3.92636,3.649945 3.68694,3.600765 3.41602,3.718775 3.13818,3.836915 3,4.042365 3,4.334005 l 0,4.66602 c 0,0.18053 0.0653,0.3368 0.19727,0.46875 0.13207,0.13195 0.28821,0.19727 0.46875,0.19727 l 4.66796,0 c 0.29177,0 0.49527,-0.13819 0.61329,-0.41602 0.11801,-0.2708 0.0708,-0.51034 -0.14454,-0.71875 L 7.375,7.093775 c 0.48624,-0.45837 1.04105,-0.81 1.66602,-1.05664 0.62509,-0.24651 1.2784,-0.37109 1.95898,-0.37109 0.72226,0 1.41207,0.14071 2.06836,0.42187 0.65629,0.28129 1.22392,0.66142 1.70312,1.14063 0.47921,0.47908 0.85934,1.04683 1.14063,1.70312 0.28116,0.65629 0.42187,1.34597 0.42187,2.06836 0,0.72239 -0.14071,1.41207 -0.42187,2.06836 -0.28129,0.65629 -0.66142,1.22392 -1.14063,1.70312 -0.4792,0.47921 -1.04696,0.85947 -1.70312,1.14063 -0.65629,0.28128 -1.34623,0.42187 -2.06836,0.42187 -0.82647,0 -1.60755,-0.1819 -2.34375,-0.54296 -0.73607,-0.36107 -1.35828,-0.87139 -1.86523,-1.53125 -0.0486,-0.0694 -0.12718,-0.11107 -0.23829,-0.125 -0.1042,0 -0.19229,0.0312 -0.26171,0.0937 l -1.42579,1.4375 c -0.0555,0.0557 -0.0864,0.12803 -0.0898,0.21484 -0.003,0.0869 0.0198,0.16495 0.0684,0.23437 0.75704,0.91674 1.67357,1.62554 2.75,2.12891 1.07643,0.50337 2.21181,0.75586 3.40625,0.75586 1.08333,0 2.11736,-0.21118 3.10352,-0.63477 0.98615,-0.42358 1.83724,-0.99388 2.55273,-1.70898 0.71523,-0.71549 1.28527,-1.56658 1.70898,-2.55273 C 18.78882,13.117385 19,12.083225 19,11.000025 19,9.916565 18.78882,8.882665 18.36523,7.896505 17.94177,6.910345 17.37148,6.059005 16.65625,5.343775 15.94089,4.628545 15.0898,4.058505 14.10352,3.634795 13.11736,3.211075 12.08333,3.000025 11,3.000025 Z"
     />
</svg>
