<svg xmlns="http://www.w3.org/2000/svg" viewBox="0 0 22 22">
 <defs id="defs3051">
   <style type="text/css" id="current-color-scheme">
     .ColorScheme-Text {
       color:#f2f2f2;
     }
     </style>
 </defs>
   <path
      style="fill:currentColor;fill-opacity:1;stroke:none"
      d="m9.8436898 2.999995c-.20137 0-.32641.0965-.375.29102-.0903.34712-.19163.99303-.30273 1.9375-.32642.10433-.64169.23679-.94727.39648l-1.4375-1.11523c-.0903-.0694-.18122-.10352-.27148-.10352-.15279 0-.48088.24755-.98438.74414s-.84473.87114-1.02539 1.12109c-.0625.0903-.0937.16886-.0937.23829 0 .0834.0341.16676.10352.25.46526.56256.8374 1.04153 1.11523 1.4375-.17363.31938-.30908.6396-.40625.95898l-1.9375.29102c-.0763.0139-.14165.0603-.19727.13671-.0556.0763-.084.15505-.084.23829v2.3125c0 .0904.0284.17321.084.24609.0556.073.12849.1151.21875.12891l1.90625.28125c.0972.34022.23822.68412.42579 1.03125-.12492.17362-.31255.41831-.5625.73437-.24996.31606-.42718.54748-.53125.69336-.0556.0766-.082.15687-.082.24023 0 .0903.0237.16886.0723.23829.2708.37512.84371.95844 1.71875 1.75.0765.0765.1626.11523.25977.11523.1042 0 .19229-.0314.26171-.0937l1.46875-1.11523c.28487.14588.59728.27548.9375.38671l.29102 1.91602c.007.0903.0463.16554.11914.22461.0729.0592.15869.0879.25586.0879h2.3125002c.20163 0 .32629-.0965.375-.29102.0901-.34725.19163-.99302.30273-1.9375.32642-.1042.64182-.23679.94727-.39648l1.4375 1.125c.0972.0624.18825.0937.27148.0937.15266 0 .4786-.24709.97852-.74023.50017-.49302.84394-.86801 1.03125-1.125.0625-.0694.0937-.14802.0937-.23829 0-.0903-.034-.17861-.10352-.26171-.49991-.61116-.87205-1.09025-1.11523-1.4375.13885-.25699.2743-.57227.40625-.94727l1.92773-.29102c.0832-.0139.15155-.0603.20704-.13671.0555-.0765.084-.15505.084-.23829v-2.3125c.00013-.0903-.0282-.17308-.084-.24609-.0557-.073-.12848-.1151-.21875-.12891l-1.90625-.29296c-.1042-.33332-.24525-.67228-.42578-1.01954.12491-.17362.31254-.41831.5625-.73437s.42705-.54748.53125-.69336c.0556-.0765.082-.15687.082-.24023 0-.0972-.0236-.1729-.0723-.22852-.24996-.35429-.82286-.94502-1.71875-1.77148-.0831-.0694-.16963-.10352-.25977-.10352-.1042 0-.18747.0314-.25.0937l-1.48046 1.11523c-.28487-.14588-.59728-.27561-.9375-.38671l-.29102-1.91602c-.007-.0903-.0463-.16554-.11914-.22461-.073-.0591-.15843-.0879-.25586-.0879h-2.3125002zm1.1523402 5.61719c.49022 0 .88868.39786.88868.88867s-.39846.88867-.88868.88867c-.49021 0-.88672-.39786-.88672-.88867s.39651-.88867.88672-.88867zm-2.5039002 1.35351c.13783 0 .27561.0527.38086.15821l2.1269502 2.34961 2.12695-2.34961c.2105-.21101.55148-.21101.76172 0 .21023.211.21023.55267 0 .76367l-2.47461 2.73437c-.11386.11396-.2652.1637-.41406.1543-.14912.009-.30018-.0403-.41406-.1543l-2.4746102-2.73437c-.2105-.211-.2105-.55267 0-.76367.10524-.10551.24302-.15821.38086-.15821z"
      class="ColorScheme-Text" />
</svg> 
