<svg xmlns="http://www.w3.org/2000/svg" viewBox="0 0 22 22">
 <defs id="defs3051">
   <style type="text/css" id="current-color-scheme">
     .ColorScheme-Text {
       color:#f2f2f2;
     }
     </style>
 </defs>
   <path
      style="fill:currentColor;fill-opacity:1;stroke:none"
      d="m9.84375 3c-.2013728 0-.3264148.096547-.375.2910156-.0902662.3471285-.1916277.9930294-.3027344 1.9375-.3264158.1043303-.6416903.2367925-.9472656.3964844l-1.4375-1.1152344c-.0902662-.0694257-.1812182-.1035156-.2714844-.1035156-.1527876 0-.4808789.2475488-.984375.7441406-.503496.4965919-.8447304.8711357-1.0253906 1.1210938-.0625215.0902662-.09375.1688555-.09375.2382812 0 .083362.0340899.1667659.1035156.25.4652672.5625654.8374038 1.0415307 1.1152344 1.4375-.1736281.3193838-.3090796.6396007-.40625.9589844l-1.9375.2910156c-.0763299.0139363-.1416484.060261-.1972656.1367188-.0556173.0763299-.0839844.1550471-.0839844.2382812v2.3125004c0 .090394.0283671.173216.0839844.246093.0556172.073006.1284838.115098.21875.128907l1.90625.28125c.0971704.340224.2382168.684121.4257812 1.03125-.1249151.173628-.3125419.418315-.5625.734375-.249958.316059-.4271754.547476-.53125.693359-.0556172.076586-.0820312.156872-.0820312.240234 0 .090267.0236804.168856.0722656.238282.2707985.375128.8437051.958445 1.71875 1.75.0764578.076457.1625952.115234.2597656.115234.1042025 0 .1922931-.031356.2617188-.09375l1.46875-1.115234c.2848626.145883.5972758.275484.9375.386718l.2910156 1.916016c.0070321.090266.0462628.16554.1191406.224609.0728778.059198.158689.087891.2558594.087891h2.3125c.201629 0 .326287-.096547.375-.291016.090138-.347256.191628-.993029.302734-1.9375.326416-.104202.641819-.236792.947266-.396484l1.4375 1.125c.09717.062394.18825.09375.271484.09375.15266 0 .4786-.247095.978516-.740234.500172-.493012.843941-.86801 1.03125-1.125.062521-.069426.09375-.148015.09375-.238282 0-.090266-.033962-.178612-.103516-.261718-.499916-.611151-.872052-1.090244-1.115234-1.4375.138851-.25699.274303-.572265.40625-.947266l1.927734-.291016c.083234-.013936.151542-.060261.207032-.136718.055489-.076458.083984-.155048.083984-.238282v-2.3124996c.000128-.0902662-.028239-.1730881-.083984-.2460938-.055745-.0730056-.128484-.1150978-.21875-.1289062l-1.90625-.2929688c-.104203-.33332-.245249-.6722749-.425782-1.0195312.124915-.1736282.312542-.4183155.5625-.734375s.427048-.547476.53125-.6933594c.055618-.0764578.082032-.1568724.082032-.2402344 0-.0971704-.023553-.1728983-.072266-.2285156-.249958-.3542884-.822865-.9450246-1.71875-1.7714844-.083106-.0694257-.169627-.1035156-.259766-.1035156-.104202 0-.187478.0313564-.25.09375l-1.480468 1.1152344c-.284863-.1458835-.597276-.2756121-.9375-.3867188l-.291016-1.9160156c-.006904-.0902662-.046263-.16554-.119141-.2246094-.073005-.0590693-.158433-.0878906-.255859-.0878906zm1.15625 5.0996094c.544326 0 1.046158.1340885 1.505859.4023437.459606.2682553.823542.632191 1.091797 1.0917969.26816.459606.402344.961582.402344 1.505859 0 .54423-.134136 1.046206-.402344 1.50586-.268255.459606-.632191.823589-1.091797 1.091797-.459606.268255-.961581.402343-1.505859.402343s-1.0462055-.134088-1.5058594-.402343c-.4596538-.268256-.8235416-.632239-1.0917968-1.091797-.2682074-.459702-.4023438-.961582-.4023438-1.50586 0-.544229.1340405-1.046205.4023438-1.505859.2682552-.4596538.632143-.8235896 1.0917968-1.0917969.4596059-.2682552.9615814-.4023437 1.5058594-.4023437zm-.882812 1.5117187c-.070337 0-.1302082.024739-.179688.0742188l-.3515625.3515621c-.0494798.04948-.0742187.109352-.0742187.179688-.0000001.067699.0247389.126349.0742187.175781l.7070315.707031-.7070315.707032c-.0494798.049431-.0742187.108082-.0742187.175781-.0000001.070288.0247389.130256.0742187.179687l.3515625.351563c.0494798.04948.109351.074219.179688.074219.067699 0 .126301-.024739.175781-.074219l.707031-.707031.707031.707031c.049384.04948.108082.074219.175781.074219.070337 0 .130208-.024739.179688-.074219l.351562-.351563c.04948-.049431.074219-.109399.074219-.179687 0-.067699-.024739-.12635-.074219-.175781l-.707031-.707032.707031-.707031c.04948-.049432.074219-.108082.074219-.175781 0-.070336-.024739-.130208-.074219-.179688l-.351562-.3515621c-.04948-.0494798-.109351-.0742188-.179688-.0742188-.067699 0-.126397.024739-.175781.0742188l-.707031.7070311-.707031-.7070311c-.04948-.0494798-.108082-.0742188-.175781-.0742188z"
      class="ColorScheme-Text" />
</svg> 
