<svg xmlns="http://www.w3.org/2000/svg" viewBox="0 0 22 22">
  <defs id="defs3051">
    <style type="text/css" id="current-color-scheme">
      .ColorScheme-Text {
        color:#f2f2f2
      }
      </style>
  </defs>
 <path 
     style="fill:currentColor;fill-opacity:1;stroke:none"      
	 class="ColorScheme-Text"
        d="M 1.49414,4.445305 C 1.22006,4.445305 1,4.665365 1,4.939445 l 0,0.64063 c 0,0.27408 0.22006,0.49414 0.49414,0.49414 l 19.01172,0 C 20.77994,6.074215 21,5.854155 21,5.580075 l 0,-0.64063 c 0,-0.27408 -0.22006,-0.49414 -0.49414,-0.49414 l -19.01172,0 z m 14.64844,3.68164 c -0.15925,5.8e-4 -0.31832,0.0616 -0.43946,0.18359 l -3.80859,3.83594 c -0.24225,0.24401 -0.2401,0.63871 0.004,0.88086 0.24391,0.24215 0.63665,0.24001 0.87891,-0.004 l 3.36914,-3.39454 3.39454,3.3711 c 0.24389,0.24215 0.6387,0.24 0.88085,-0.004 0.24237,-0.24389 0.24023,-0.63861 -0.004,-0.88086 l -3.83595,-3.8086 C 16.46007,8.185375 16.30189,8.126165 16.14257,8.126745 Z M 1.50781,8.148445 C 1.22642,8.148445 1,8.374855 1,8.656255 l 0,0.61328 c 0,0.28139 0.22642,0.50781 0.50781,0.50781 l 8.61328,0 c 0.2814,0 0.50782,-0.22642 0.50782,-0.50781 l 0,-0.61328 c 0,-0.2814 -0.22642,-0.50781 -0.50782,-0.50781 l -8.61328,0 z m 0,3.74023 C 1.22642,11.888675 1,12.115095 1,12.396485 l 0,0.61328 c 0,0.2814 0.22642,0.50782 0.50781,0.50782 l 8.61328,0 c 0.2814,0 0.50782,-0.22642 0.50782,-0.50782 l 0,-0.61328 c 0,-0.28139 -0.22642,-0.50781 -0.50782,-0.50781 l -8.61328,0 z m 0,4.03711 C 1.22642,15.925785 1,16.152205 1,16.433595 l 0,0.61328 c 0,0.2814 0.22642,0.50782 0.50781,0.50782 l 8.61328,0 c 0.2814,0 0.50782,-0.22642 0.50782,-0.50782 l 0,-0.61328 c 0,-0.28139 -0.22642,-0.50781 -0.50782,-0.50781 l -8.61328,0 z"
     />
</svg>
