<svg xmlns="http://www.w3.org/2000/svg" viewBox="0 0 22 22">
 <defs id="defs3051">
   <style type="text/css" id="current-color-scheme">
     .ColorScheme-Text {
       color:#f2f2f2;
     }
     </style>
 </defs>
   <path
      style="fill:currentColor;fill-opacity:1;stroke:none"
      d="m6.33398 3a3.3333287 3.3333287 0 0 0 -3.33398 3.33398 3.3333287 3.3333287 0 0 0 3.33398 3.33204 3.3333287 3.3333287 0 0 0 3.33204-3.33204 3.3333287 3.3333287 0 0 0 -3.33204-3.33398zm6.66602 0c-.36933 0-.66602.29668-.66602.66602v5.33398c0 .36933.29669.66602.66602.66602h5.33398c.36934 0 .66602-.29669.66602-.66602v-5.33398c0-.36934-.29668-.66602-.66602-.66602zm-8 9.33398c-.36933 0-.66602.29669-.66602.66602v5.33398c0 .36934.29669.66602.66602.66602h2.66602c.36933 0 .66796-.29668.66796-.66602v-5.33398c0-.36933-.29863-.66602-.66796-.66602zm10.66602 0-3.33204 6.66602h6.66602z"
      class="ColorScheme-Text" />
</svg> 
