<svg xmlns="http://www.w3.org/2000/svg" viewBox="0 0 22 22">
  <defs id="defs3051">
    <style type="text/css" id="current-color-scheme">
      .ColorScheme-Text {
        color:#f2f2f2
      }
      </style>
  </defs>
 <path 
     style="fill:currentColor;fill-opacity:1;stroke:none"      
	 class="ColorScheme-Text"
        d="m 5.9090909,3 0,1.4545454 1.4545455,0 0,-1.4545454 -1.4545455,0 z m 0,2.9090909 0,1.4545455 1.4545455,0 0,-1.4545455 -1.4545455,0 z m 0,2.9090909 0,1.4545452 1.4545455,0 0,-1.4545452 -1.4545455,0 z m 0,2.9090912 0,1.454545 1.4545455,0 0,-1.454545 -1.4545455,0 z M 3,14.636364 l 0,1.454545 1.4545455,0 0,-1.454545 -1.4545455,0 z m 2.9090909,0 0,1.454545 1.4545455,0 0,-1.454545 -1.4545455,0 z m 2.9090909,0 0,1.454545 1.4545452,0 0,-1.454545 -1.4545452,0 z m 2.9090912,0 0,1.454545 1.454545,0 0,-1.454545 -1.454545,0 z m 2.909091,0 0,1.454545 1.454545,0 0,-1.454545 -1.454545,0 z m 2.909091,0 0,1.454545 1.454545,0 0,-1.454545 -1.454545,0 z m -11.6363641,2.909091 0,1.454545 1.4545455,0 0,-1.454545 -1.4545455,0 z"
     />
</svg>
