<svg xmlns="http://www.w3.org/2000/svg" viewBox="0 0 22 22">
  <defs id="defs3051">
    <style type="text/css" id="current-color-scheme">
      .ColorScheme-Text {
        color:#f2f2f2
      }
      </style>
  </defs>
 <path 
     style="fill:currentColor;fill-opacity:1;stroke:none"      
	 class="ColorScheme-Text"
        d="m 5.068099,3 c -0.7562,0 -1.36643,0.17907 -1.82753,0.53711 -0.46109,0.34862 -0.76845,0.72996 -0.92523,1.14453 l 1.16037,0.50977 C 3.586369,4.88048 3.790419,4.6341 4.085519,4.45508 4.389839,4.27606 4.725979,4.1875 5.094859,4.1875 c 0.49799,0 0.91665,0.15587 1.25786,0.4668 0.34121,0.30151 0.51232,0.70605 0.51232,1.21484 l 0,0.19727 C 6.385499,5.78375 5.773029,5.64258 5.026049,5.64258 c -0.8392,0 -1.54442,0.21697 -2.11619,0.65039 -0.57176,0.42399 -0.85832,1.01381 -0.85832,1.76758 0,0.69723 0.23923,1.25764 0.71877,1.68164 0.48876,0.42399 1.09292,0.63476 1.81223,0.63476 0.97753,0 1.71986,-0.39604 2.22706,-1.1875 l 0.0554,0 0,0.9629 1.21771,0 0,-4.1836 c 0,-0.94221 -0.28657,-1.67319 -0.85833,-2.19141 C 6.652619,3.25913 5.934929,3 5.068059,3 Z m 0.1797,3.7168 c 0.71931,0 1.25758,0.15162 1.61724,0.45312 0,0.54649 -0.21653,1.02259 -0.64996,1.42774 -0.42421,0.39573 -0.89852,0.59179 -1.42417,0.59179 -0.36888,0 -0.69669,-0.099 -0.98257,-0.29687 -0.28589,-0.19786 -0.42821,-0.46549 -0.42821,-0.80469 0,-0.36746 0.15672,-0.68769 0.47025,-0.96093 0.31356,-0.27325 0.77955,-0.41016 1.39742,-0.41016 z m -3.137,5.35742 0,1.1875 3.74872,0 -3.8596,4.60742 0,1.13086 5.47876,0 0,-1.1875 -3.91504,0 3.85959,-4.60742 0,-1.13086 -5.31243,0 z m 12.84046,1.05078 c -0.18023,6.7e-4 -0.35992,0.0718 -0.49702,0.21289 l -4.31074,4.43555 c -0.27418,0.28216 -0.27235,0.73756 0.004,1.01758 0.27605,0.28002 0.72178,0.27814 0.99596,-0.004 l 3.81371,-3.92578 3.8424,3.89648 c 0.27602,0.28001 0.72189,0.28009 0.99596,-0.002 0.27431,-0.28203 0.27248,-0.7394 -0.004,-1.01953 l -4.34134,-4.40231 c -0.13802,-0.13998 -0.31861,-0.20965 -0.49894,-0.20899 z"
     />
</svg>
