<svg xmlns="http://www.w3.org/2000/svg" viewBox="0 0 22 22">
 <defs id="defs3051">
   <style type="text/css" id="current-color-scheme">
     .ColorScheme-Text {
       color:#f2f2f2;
     }
     </style>
 </defs>
   <path
      style="fill:currentColor;fill-opacity:1;stroke:none"
      d="m3.5 3c-.277 0-.5.223-.5.5v15c0 .277.223.5.5.5h15c .277 0 .5-.223.5-.5v-15c0-.277-.223-.5-.5-.5zm1.3125 1.08398a.75.75 0 0 1  .75.75.75.75 0 0 1 -.75.75.75.75 0 0 1 -.75-.75.75.75 0 0 1  .75-.75zm12.39844 0a .75.75 0 0 1  .75.75.75.75 0 0 1 -.75.75.75.75 0 0 1 -.75-.75.75.75 0 0 1  .75-.75zm-6.21094.91602a6 6 0 0 1 6 6 6 6 0 0 1 -6 6 6 6 0 0 1 -6-6 6 6 0 0 1 6-6zm0 3.5a2.5 2.5 0 0 0 -2.5 2.5 2.5 2.5 0 0 0 2.5 2.5 2.5 2.5 0 0 0 2.5-2.5 2.5 2.5 0 0 0 -2.5-2.5zm-6.1875 7.98438a.75.75 0 0 1  .75.75.75.75 0 0 1 -.75.75.75.75 0 0 1 -.75-.75.75.75 0 0 1  .75-.75zm12.39844 0a .75.75 0 0 1  .75.75.75.75 0 0 1 -.75.75.75.75 0 0 1 -.75-.75.75.75 0 0 1  .75-.75z"
      class="ColorScheme-Text" />
</svg> 
