<svg xmlns="http://www.w3.org/2000/svg" viewBox="0 0 22 22">
 <defs id="defs3051">
   <style type="text/css" id="current-color-scheme">
     .ColorScheme-Text {
       color:#f2f2f2;
     }
     </style>
 </defs>
   <path
      style="fill:currentColor;fill-opacity:1;stroke:none"
      d="m11 3c-4.41828 0-8 3.58172-8 8s3.58172 8 8 8 8-3.58172 8-8-3.58172-8-8-8zm-2.6660156 4c .73638 0 1.3320312.5976144 1.3320312 1.3339844 0 .73638-.5956512 1.3320312-1.3320312 1.3320312-.73637 0-1.3339844-.5956512-1.3339844-1.3320312 0-.73637.5976144-1.3339844 1.3339844-1.3339844zm5.3320316 0c .73637 0 1.333984.5976144 1.333984 1.3339844 0 .73638-.597614 1.3320312-1.333984 1.3320312-.73638 0-1.332032-.5956512-1.332032-1.3320312 0-.73637.595652-1.3339844 1.332032-1.3339844zm-6.666016 5.333984h8c0 2.20913-1.79087 4-4 4-2.20914 0-4-1.79087-4-4z"
      class="ColorScheme-Text" />
</svg> 
