<svg xmlns="http://www.w3.org/2000/svg" viewBox="0 0 22 22">
  <defs id="defs3051">
    <style type="text/css" id="current-color-scheme">
      .ColorScheme-Text {
        color:#f2f2f2
      }
      </style>
  </defs>
 <path 
     style="fill:currentColor;fill-opacity:1;stroke:none"      
	 class="ColorScheme-Text"
        d="M 11 3 C 6.58172 3 3 6.58172 3 11 C 3 15.41828 6.58172 19 11 19 C 15.41828 19 19 15.41828 19 11 C 19 6.58172 15.41828 3 11 3 z M 8.3339844 7 C 9.0703644 7 9.6660156 7.5976144 9.6660156 8.3339844 C 9.6660156 9.0703644 9.0703644 9.6660156 8.3339844 9.6660156 C 7.5976144 9.6660156 7 9.0703644 7 8.3339844 C 7 7.5976144 7.5976144 7 8.3339844 7 z M 13.666016 7 C 14.402386 7 15 7.5976144 15 8.3339844 C 15 9.0703644 14.402386 9.6660156 13.666016 9.6660156 C 12.929636 9.6660156 12.333984 9.0703644 12.333984 8.3339844 C 12.333984 7.5976144 12.929636 7 13.666016 7 z M 7 12.333984 L 15 12.333984 C 15 14.543114 13.20913 16.333984 11 16.333984 C 8.79086 16.333984 7 14.543114 7 12.333984 z "
     />
</svg>
