<?xml version="1.0" encoding="UTF-8" standalone="no"?>
<svg
   xmlns:dc="http://purl.org/dc/elements/1.1/"
   xmlns:cc="http://creativecommons.org/ns#"
   xmlns:rdf="http://www.w3.org/1999/02/22-rdf-syntax-ns#"
   xmlns:svg="http://www.w3.org/2000/svg"
   xmlns="http://www.w3.org/2000/svg"
   xmlns:sodipodi="http://sodipodi.sourceforge.net/DTD/sodipodi-0.dtd"
   xmlns:inkscape="http://www.inkscape.org/namespaces/inkscape"
   viewBox="0 0 22 22"
   id="svg2"
   version="1.1"
   inkscape:version="0.91 r13725"
   sodipodi:docname="system-upgrade.svg">
  <metadata
     id="metadata10">
    <rdf:RDF>
      <cc:Work
         rdf:about="">
        <dc:format>image/svg+xml</dc:format>
        <dc:type
           rdf:resource="http://purl.org/dc/dcmitype/StillImage" />
        <dc:title></dc:title>
      </cc:Work>
    </rdf:RDF>
  </metadata>
  <sodipodi:namedview
     pagecolor="#ffffff"
     bordercolor="#666666"
     borderopacity="1"
     objecttolerance="10"
     gridtolerance="10"
     guidetolerance="10"
     inkscape:pageopacity="0"
     inkscape:pageshadow="2"
     inkscape:window-width="640"
     inkscape:window-height="480"
     id="namedview8"
     showgrid="false"
     inkscape:zoom="29.954545"
     inkscape:cx="5.0576631"
     inkscape:cy="11"
     inkscape:current-layer="svg2" />
  <defs
     id="defs3051">
    <style
       type="text/css"
       id="current-color-scheme">
      .ColorScheme-Text {
        color:#f2f2f2
      }
      </style>
  </defs>
  <path
     style="color:#bebebe;fill:#f2f2f2;fill-opacity:1;stroke:none"
     class="ColorScheme-Text"
     d="m 11.015743,18 c 1.38168,0 2.508895,-1.129448 2.508895,-2.511118 0,-1.381722 -1.127215,-2.51112 -2.508895,-2.51112 -1.3817148,0 -2.5111128,1.129398 -2.5111128,2.51112 0,1.38167 1.129398,2.511118 2.5111128,2.511118 z m 6.455253,-3.562441 c 0.391673,0.0014 0.783164,-0.146925 1.080336,-0.441956 0.297241,-0.295014 0.447238,-0.684175 0.448656,-1.075877 0.0011,-0.39173 -0.144638,-0.785342 -0.439719,-1.08257 L 12.107244,5.3372644 C 11.812209,5.0402293 11.418879,4.8877861 11.029137,4.8863805 10.639086,4.8852376 10.245915,5.0356351 9.9488002,5.3305674 l -6.499892,6.4530176 c -0.594665,0.590093 -0.59935,1.564167 -0.0091,2.158448 0.590093,0.59423 1.566385,0.598985 2.160673,0.0089 l 5.4150758,-5.3771419 5.377145,5.4150899 c 0.295093,0.297117 0.686435,0.447241 1.078108,0.448653 z"
     id="path6-3"
     inkscape:connector-curvature="0" />
</svg>
