<svg xmlns="http://www.w3.org/2000/svg" viewBox="0 0 22 22">
 <defs id="defs3051">
   <style type="text/css" id="current-color-scheme">
     .ColorScheme-Text {
       color:#f2f2f2;
     }
     </style>
 </defs>
   <path
      style="fill:currentColor;fill-opacity:1;stroke:none"
      d="m10.01268 8.99984c0-.85486.23057-1.65464.62995-2.34506.0968-.16701-.0492-.37339-.23623-.32553-2.15645.55378-3.71614 2.59185-3.51593 4.96395.1894 2.23904 1.99895 4.06661 4.23646 4.27609 1.55249.14539 2.9637-.46604 3.91686-1.50488.12867-.1405.0188-.3685-.17138-.36053-.0505.002-.10161.003-.15287.003-2.59956 0-4.70686-2.1073-4.70686-4.70737zm8.98732 2.00015a7.9999961 7.9999961 0 0 1 -8.00001 8.00001 7.9999961 7.9999961 0 0 1 -7.99999-8.00001 7.9999961 7.9999961 0 0 1 7.99999-7.99999 7.9999961 7.9999961 0 0 1 8.00001 7.99999z"
      class="ColorScheme-Text" />
</svg> 
