<svg height="22" width="22" xmlns="http://www.w3.org/2000/svg" xmlns:xlink="http://www.w3.org/1999/xlink">
  <linearGradient id="a" gradientUnits="userSpaceOnUse" x1="11.0092173832" x2="11.0092173832" y1="19.0092172752" y2="3.00921710044">
    <stop offset="0" stop-color="#e6e6e6" />
    <stop offset="1" stop-color="#f2f2f2" />
  </linearGradient>
  <linearGradient id="b" gradientUnits="userSpaceOnUse" x1="11.15104159844" x2="11.03941018973" y1="19.0465977462" y2="3.00101352819">
    <stop offset="0" stop-color="#566069" />
    <stop offset="1" stop-color="#6c7884" />
  </linearGradient>
  <path d="m15.199344 11.338572h-.808995c-.204704 0-.369894.16377-.376962.36565-.168015 1.561462-1.489451 2.777039-3.097493 2.777039-1.7209868 0-3.1144526-1.392045-3.1144526-3.110207 0-1.7026247 1.4033389-3.0862173 3.1017556-3.110209v.5054281c0 .2301343.16377.3331876.364247.2301343l2.596328-1.3285037c.200477-.1030714.200477-.2696653 0-.3727181l-2.596328-1.3257169c-.200477-.1030532-.364247 0-.364247.2287129v.5096542c-2.5596205.02401-4.6589723 2.1050179-4.6589723 4.6660412 0 2.576543 2.0908806 4.666023 4.6716873 4.666023 2.467863 0 4.489557-1.91017 4.658955-4.332836.0014-.2033-.169417-.368492-.375523-.368492zm3.809873-.329355a7.9999988 7.9999988 0 0 1 -8 8 7.9999988 7.9999988 0 0 1 -7.9999999-8 7.9999988 7.9999988 0 0 1 7.9999999-8.0000003 7.9999988 7.9999988 0 0 1 8 8.0000003z" fill="url(#a)" stroke="url(#b)" stroke-width=".018455" />
</svg>
