<svg xmlns="http://www.w3.org/2000/svg" viewBox="0 0 22 22">
  <defs id="defs3051">
    <style type="text/css" id="current-color-scheme">
      .ColorScheme-Text {
        color:#f2f2f2
      }
      </style>
  </defs>
 <path 
     style="fill:currentColor;fill-opacity:1;stroke:none"      
	 class="ColorScheme-Text"
        d="m 10.34581,11.004 2.4745,-2.47457 c 0.12568,-0.12561 0.18842,-0.27922 0.18842,-0.46084 0,-0.18161 -0.0627,-0.33516 -0.18842,-0.46077 L 12.43846,7.22591 C 12.31291,7.10035 12.1593,7.03755 11.97775,7.03755 c -0.18161,0 -0.33517,0.0628 -0.46084,0.18836 L 8.19716,10.5406 c -0.12562,0.12561 -0.18843,0.27922 -0.18843,0.46084 0,0.18161 0.0628,0.33516 0.18843,0.46077 l 3.31975,3.31469 c 0.12567,0.12562 0.27923,0.18843 0.46084,0.18843 0.18155,0 0.33516,-0.0628 0.46071,-0.18843 l 0.38185,-0.38184 c 0.12568,-0.12556 0.18842,-0.27836 0.18842,-0.45828 0,-0.17986 -0.0627,-0.33435 -0.18842,-0.46334 l -2.4745,-2.46944 0,0 z M 19,11 a 8.0000003,8.0000003 0 0 1 -8,8 8.0000003,8.0000003 0 0 1 -8,-8 8.0000003,8.0000003 0 0 1 8,-8 8.0000003,8.0000003 0 0 1 8,8 z"
     />
</svg>
