<svg xmlns="http://www.w3.org/2000/svg" viewBox="0 0 22 22">
  <defs id="defs3051">
    <style type="text/css" id="current-color-scheme">
      .ColorScheme-Text {
        color:#f2f2f2
      }
      </style>
  </defs>
 <path 
     style="fill:currentColor;fill-opacity:1;stroke:none"      
	 class="ColorScheme-Text"
        d="m 10.01268,8.99984 c 0,-0.85486 0.23057,-1.65464 0.62995,-2.34506 C 10.73943,6.48777 10.59343,6.28139 10.4064,6.32925 8.24995,6.88303 6.69026,8.9211 6.89047,11.2932 c 0.1894,2.23904 1.99895,4.06661 4.23646,4.27609 1.55249,0.14539 2.9637,-0.46604 3.91686,-1.50488 0.12867,-0.1405 0.0188,-0.3685 -0.17138,-0.36053 -0.0505,0.002 -0.10161,0.003 -0.15287,0.003 -2.59956,0 -4.70686,-2.1073 -4.70686,-4.70737 z M 19,10.99999 A 7.9999961,7.9999961 0 0 1 10.99999,19 7.9999961,7.9999961 0 0 1 3,10.99999 7.9999961,7.9999961 0 0 1 10.99999,3 7.9999961,7.9999961 0 0 1 19,10.99999 Z"
     />
</svg>
