<svg xmlns="http://www.w3.org/2000/svg" viewBox="0 0 22 22">
 <defs id="defs3051">
   <style type="text/css" id="current-color-scheme">
     .ColorScheme-Text {
       color:#f2f2f2;
     }
     </style>
 </defs>
   <path
      style="fill:currentColor;fill-opacity:1;stroke:none"
      d="m5.6660156 5.5546875c-.8585156.9336711-1.7421934 2.4306317-2.6660156 3.5566406v.3554688.1777343 1.2441408 6.755859c0 .196978.158491.355469.3554688.355469h15.2890622c.196978 0 .355469-.158491.355469-.355469v-8.1777341-.3554688c-.923822-1.1260089-1.8075-2.6229695-2.666016-3.5566406h-1.779296-.419922-1.357422c-.578916.6295911-1.170757 1.5140651-1.777344 2.3691406-.606587-.8550755-1.1984281-1.7395495-1.7773438-2.3691406h-1.3574218-.4199219zm9.3339844 6.4453125h1v2h2v1h-2v2h-1v-2h-2v-1h2z"
      class="ColorScheme-Text" />
</svg>
