<svg xmlns="http://www.w3.org/2000/svg" viewBox="0 0 22 22">
 <defs id="defs3051">
   <style type="text/css" id="current-color-scheme">
     .ColorScheme-Text {
       color:#f2f2f2;
     }
     </style>
 </defs>
   <path
      style="fill:currentColor;fill-opacity:1;stroke:none"
      d="m4 3c-.5539948 0-1 .4459996-1 1v14c0 .554.4460052 1 1 1h14c .554006 0 1-.446 1-1v-14c0-.5540004-.445994-1-1-1zm6.976562 2.1816406c1.458123 0 2.712891.9902149 2.712891 2.8769532 0 1.2270459-.574141 2.4715522-1.326172 3.2460942h.003907c-.288501.876986.173049 1.085486.246093 1.109374 1.74787.600492 3.959468 2.098475 3.910157 4.404297h-11.0488286c-.044246-2.413756 2.7532219-4.071854 3.78125-4.404297.1102549-.039967.6367289-.325986.3417968-1.099609-.7566247-.772703-1.328125-2.0237599-1.328125-3.2558592.0000001-1.8871977 1.2479905-2.8769532 2.7070308-2.8769532z"
      class="ColorScheme-Text" />
</svg> 
