<svg xmlns="http://www.w3.org/2000/svg" viewBox="0 0 22 22">
  <defs id="defs3051">
    <style type="text/css" id="current-color-scheme">
      .ColorScheme-Text {
        color:#f2f2f2
      }
      </style>
  </defs>
 <path 
     style="fill:currentColor;fill-opacity:1;stroke:none"      
	 class="ColorScheme-Text"
        d="M 4 3 C 3.4460052 3 3 3.4459996 3 4 L 3 18 C 3 18.554 3.4460052 19 4 19 L 18 19 C 18.554006 19 19 18.554 19 18 L 19 4 C 19 3.4459996 18.554006 3 18 3 L 4 3 z M 10.976562 5.1816406 C 12.434685 5.1816406 13.689453 6.1718555 13.689453 8.0585938 C 13.689453 9.2856397 13.115312 10.530146 12.363281 11.304688 L 12.367188 11.304688 C 12.078687 12.181674 12.540237 12.390174 12.613281 12.414062 C 14.361151 13.014554 16.572749 14.512537 16.523438 16.818359 L 5.4746094 16.818359 C 5.4303634 14.404603 8.2278313 12.746505 9.2558594 12.414062 C 9.3661143 12.374095 9.8925883 12.088076 9.5976562 11.314453 C 8.8410315 10.54175 8.2695312 9.2906931 8.2695312 8.0585938 C 8.2695313 6.1713961 9.5175217 5.1816406 10.976562 5.1816406 z "
     />
</svg>
