<svg xmlns="http://www.w3.org/2000/svg" viewBox="0 0 22 22">
 <defs id="defs3051">
   <style type="text/css" id="current-color-scheme">
     .ColorScheme-Text {
       color:#f2f2f2;
     }
     </style>
 </defs>
   <path
      style="fill:currentColor;fill-opacity:1;stroke:none"
      d="m11.999444 3.0905731c-.73726 0-1.76671.41746-2.2879804.92879l-6.23003 6.1109299c-.52127.5113-.52127 1.34821 0 1.85951l4.80772 4.71387c.52127.51133 1.37446.51133 1.8957604 0l1.36684-1.34071c.005.29167.0437.58279.12282.87438.1677.6183.4897 1.15928.96273 1.62051.47307.46128 1.02476.77174 1.65606.93267.63121.16077 1.26148.15871 1.89179-.006.63031-.16454 1.18183-.47836 1.6521-.94239.47026-.46402.7869-1.00521.95084-1.6244.16399-.61914.16176-1.23935-.006-1.85757-.16779-.61821-.48773-1.15733-.96076-1.61856-.47307-.46127-1.02687-.77178-1.65804-.93267-.29045-.074-.57962-.1113-.86963-.11659l1.11923-1.09783c.52127-.51133.94688-1.5211499.94688-2.2442399v-3.94441c-.00002-.72312-.6019-1.31546-1.33911-1.31546h-4.02129zm2.24043 1.74876c.73882 0 1.33713.58882 1.33713 1.31351s-.59831 1.31157-1.33713 1.31157c-.73881 0-1.33911-.58685-1.33911-1.31157 0-.72469.6003-1.31351 1.33911-1.31351zm1.28761 8.3532299c.0858-.00027.15875.0298.21988.0894.0589.0574.0889.12771.0891.21179l.004 1.20276 1.22422-.004c.0857-.00029.15906.0281.2179.0855.0611.0596.0909.1316.0911.21568l.002.59847c.00026.0841-.0303.15571-.0911.21568-.0585.0577-.13024.0873-.21592.0874l-1.22619.004.004 1.20081c.00026.0841-.0287.15603-.0872.21374-.0608.06-.13413.0891-.21989.0894l-.60814.002c-.0857.00029-.16077-.0298-.22187-.0894-.0588-.0574-.0869-.12772-.0872-.21179l-.004-1.20276-1.2262.004c-.0857.00029-.15708-.0281-.21592-.0855-.0611-.0596-.0928-.13156-.0931-.21568l-.002-.59652c-.00026-.0841.0304-.15765.0911-.21762.0585-.0577.13017-.0852.21593-.0855l1.22619-.004-.004-1.20275c-.00034-.084.0287-.15408.0872-.2118.0608-.06.13413-.0911.21988-.0913l.61013-.002z"
      class="ColorScheme-Text" />
</svg> 
