<svg xmlns="http://www.w3.org/2000/svg" viewBox="0 0 22 22">
 <defs id="defs3051">
   <style type="text/css" id="current-color-scheme">
     .ColorScheme-Text {
       color:#f2f2f2;
     }
     </style>
 </defs>
   <path
      style="fill:currentColor;fill-opacity:1;stroke:none"
      d="m11.00002 3.000055c-4.41094 0-8.00001 3.18561-8.00001 7.10156 0 2.12364 1.04206 4.09913 2.86717 5.45117.17307 1.10676-.42723 2.26517-.43359 2.27735-.13702.25594-.12616.56932.0277.8164.13762.22088.36839.35352.61809.35352.0266 0 .0541-.00084.0811-.004.77736-.0914 2.03164-.71682 3.73064-1.85938.36589.0449.73798.0664 1.10886.0664 4.41106 0 8.00001-3.18562 8.00001-7.10156s-3.58895-7.10157-8.00001-7.10157zm-.19003 4.19922c.0809 0 .15123.0313.21033.0937.0589.0625.0885.13715.0885.22266v5.36915c0 .0855-.0295.15826-.0885.22069-.0591.0624-.1295.0937-.21033.0937-.0808 0-.14945-.0313-.2085-.0937l-1.5535-1.64257h-1.21956c-.0808 0-.15124-.0312-.21033-.0937-.059-.0624-.0885-.13715-.0885-.22267v-1.89453c0-.0855.0295-.1582.0885-.2207.059-.0624.12949-.0937.21033-.0937h1.22141l1.55165-1.64453c.0591-.0624.12772-.0937.2085-.0937zm1.71586.65234c.0403 0 .0814.007.12178.0234.43496.19411.78383.50572 1.04798.93164.26413.42617.39667.88925.39667 1.39258s-.13254.9686-.39667 1.39453c-.26415.42599-.61302.73554-1.04798.9297-.0403.0163-.079.0254-.11624.0254-.0839 0-.15677-.0312-.21586-.0937-.0589-.0624-.0885-.13715-.0885-.22267 0-.12833.0614-.22518.18266-.29101.17397-.0954.29211-.16744.35424-.2168.22992-.17763.40979-.3998.53875-.66797.12894-.2681.19373-.5548.19373-.85742 0-.30263-.0648-.58737-.19373-.85547-.12896-.26811-.30877-.49028-.53875-.66797-.0621-.0493-.18027-.1214-.35424-.2168-.12123-.0658-.18266-.16464-.18266-.29296 0-.0855.0296-.15821.0885-.22071.0591-.0625.12955-.0937.21032-.0937zm-.46679 1.16407c.0466 0 .087.009.11808.0254.21758.0888.39184.24187.52399.45898.1321.21712.19743.44922.19743.69922s-.0653.4838-.19743.69922c-.1321.21548-.30641.3687-.52399.46094-.0311.0163-.0715.0254-.11808.0254-.0808 0-.1495-.0309-.20848-.0918-.0589-.0609-.0885-.13576-.0885-.2246 0-.0691.0181-.128.0554-.17579.0373-.0477.0818-.0886.13469-.12304.0527-.0345.10581-.0722.15867-.11328.0529-.0412.0992-.10008.13653-.17579.0372-.0757.0554-.16939.0554-.28125 0-.11185-.0181-.20554-.0554-.28124-.0373-.0756-.0837-.13271-.13653-.17383-.0529-.0411-.10592-.0788-.15867-.11328-.0529-.0345-.0974-.0773-.13469-.125-.0374-.0477-.0554-.10473-.0554-.17383 0-.0888.0296-.16375.0885-.22461.0589-.0608.12771-.0918.20848-.0918z"
      class="ColorScheme-Text" />
</svg> 
