<svg xmlns="http://www.w3.org/2000/svg" viewBox="0 0 22 22">
 <defs id="defs3051">
   <style type="text/css" id="current-color-scheme">
     .ColorScheme-Text {
       color:#f2f2f2;
     }
     </style>
 </defs>
   <path
      style="fill:currentColor;fill-opacity:1;stroke:none"
      d="m11 3.3417969a7.6575441 7.6575437 0 0 0 -7.6582031 7.6582031 7.6575441 7.6575437 0 0 0 7.6582031 7.658203 7.6575441 7.6575437 0 0 0 7.658203-7.658203 7.6575441 7.6575437 0 0 0 -7.658203-7.6582031zm-2.6640625 3.7695312c.645494 0 1.1699219.5241219 1.1699219 1.1699219 0 .6461-.5244279 1.1699219-1.1699219 1.1699219-.645682 0-1.1699219-.5238219-1.1699219-1.1699219 0-.6457.5242399-1.1699219 1.1699219-1.1699219zm5.3027345 0c .645493 0 1.167969.5241219 1.167969 1.1699219 0 .6461-.522287 1.1699219-1.167969 1.1699219s-1.169922-.5238219-1.169922-1.1699219c0-.6457.52424-1.1699219 1.169922-1.1699219zm-2.640625 4.4570309c1.901593 0 3.599524 1.083966 4.324219 2.759766.124082.2867-.008287.617888-.294922.742187-.286634.124201-.620058-.008121-.744141-.294921-.54536-1.2615-1.835012-2.076172-3.285156-2.076172-1.4837124 0-2.7810136.815372-3.3046876 2.076172-.090328.2178-.2997194.347656-.5214844.347656-.072413 0-.1458969-.013969-.2167969-.042969-.288712-.1199-.4265746-.449981-.3066406-.738281.699615-1.6844 2.4070941-2.773438 4.3496095-2.773438z"
      class="ColorScheme-Text" />
</svg> 
