<svg xmlns="http://www.w3.org/2000/svg" viewBox="0 0 22 22">
  <defs id="defs3051">
    <style type="text/css" id="current-color-scheme">
      .ColorScheme-Text {
        color:#f2f2f2
      }
      </style>
  </defs>
    <path
       style="fill:currentColor;fill-opacity:1;stroke:none"
       class="ColorScheme-Text"
       d="m 8.276125,3 c -1.92953,0 -3.58043,1.36018 -3.58043,3.95508 0,1.69413 0.75579,3.41409 1.7564,4.47656 0.39004,1.06373 -0.30691,1.45872 -0.45272,1.51367 C 4.639845,13.40242 0.94218501,15.68109 1.000685,19 l 9.03935,0 5.57163,0 5.38753,0 c 0.049,-2.37788 -2.14548,-3.92176 -3.8791,-4.54102 -0.0724,-0.0246 -0.53035,-0.24013 -0.24421,-1.14453 l -0.004,0 c 0.7459,-0.79874 1.31682,-2.08421 1.31682,-3.34961 0,-1.9457 -1.24565,-2.96484 -2.69189,-2.96484 -1.44715,0 -2.68438,1.01867 -2.68438,2.96484 0,1.27061 0.56637,2.56253 1.31683,3.35938 0.29253,0.7978 -0.23065,1.09355 -0.34,1.13476 -0.11322,0.0381 -0.25366,0.099 -0.40388,0.16993 -0.917,-0.76626 -1.98004,-1.33874 -2.94549,-1.6836 -0.0966,-0.0328 -0.70651,-0.31953 -0.32498,-1.52539 l -0.006,0 c 0.99457,-1.06499 1.75455,-2.77765 1.75456,-4.46484 C 11.863475,4.36081 10.203845,3 8.275545,3 Z"
        />
</svg>
