<svg xmlns="http://www.w3.org/2000/svg" viewBox="0 0 22 22">
 <defs id="defs3051">
   <style type="text/css" id="current-color-scheme">
     .ColorScheme-Text {
       color:#f2f2f2;
     }
     </style>
 </defs>
   <path
      style="fill:currentColor;fill-opacity:1;stroke:none"
      d="m8.276125 3c-1.92953 0-3.58043 1.36018-3.58043 3.95508 0 1.69413.75579 3.41409 1.7564 4.47656.39004 1.06373-.30691 1.45872-.45272 1.51367-1.35953.45711-5.05718999 2.73578-4.99869 6.05469h9.03935 5.57163 5.38753c.049-2.37788-2.14548-3.92176-3.8791-4.54102-.0724-.0246-.53035-.24013-.24421-1.14453h-.004c.7459-.79874 1.31682-2.08421 1.31682-3.34961 0-1.9457-1.24565-2.96484-2.69189-2.96484-1.44715 0-2.68438 1.01867-2.68438 2.96484 0 1.27061.56637 2.56253 1.31683 3.35938.29253.7978-.23065 1.09355-.34 1.13476-.11322.0381-.25366.099-.40388.16993-.917-.76626-1.98004-1.33874-2.94549-1.6836-.0966-.0328-.70651-.31953-.32498-1.52539h-.006c.99457-1.06499 1.75455-2.77765 1.75456-4.46484 0-2.59427-1.65963-3.95508-3.58793-3.95508z"
      class="ColorScheme-Text" />
</svg> 
