<svg xmlns="http://www.w3.org/2000/svg" viewBox="0 0 22 22">
 <defs id="defs3051">
   <style type="text/css" id="current-color-scheme">
     .ColorScheme-Text {
       color:#f2f2f2;
     }
     </style>
 </defs>
   <path
      style="fill:currentColor;fill-opacity:1;stroke:none"
      d="m4 3c-.55402 0-1 .44598-1 1v14c0 .55402.44598 1 1 1h14c .55402 0 1-.44598 1-1v-14c0-.55402-.44598-1-1-1zm3 4h8c .31657 0 .57227.25569.57227.57227 0 .31657-.2557.57031-.57227.57031h-8c-.31657 0-.57227-.25374-.57227-.57031 0-.31658.2557-.57227.57227-.57227zm0 2.28516h8c .31657 0 .57227.25569.57227.57226s-.2557.57031-.57227.57031h-8c-.31657 0-.57227-.25374-.57227-.57031s.2557-.57226.57227-.57226zm0 2.28711h8c .31657 0 .57227.25374.57227.57031s-.2557.57226-.57227.57226h-8c-.31657 0-.57227-.25569-.57227-.57226s.2557-.57031.57227-.57031zm0 2.28515h8c .31657 0 .57227.25374.57227.57031 0 .31658-.2557.57227-.57227.57227h-8c-.31657 0-.57227-.25569-.57227-.57227 0-.31657.2557-.57031.57227-.57031z"
      class="ColorScheme-Text" />
</svg> 
