<svg xmlns="http://www.w3.org/2000/svg" viewBox="0 0 22 22">
 <defs id="defs3051">
   <style type="text/css" id="current-color-scheme">
     .ColorScheme-Text {
       color:#f2f2f2;
     }
     </style>
 </defs>
   <path
      style="fill:currentColor;fill-opacity:1;stroke:none"
      d="m12.113825 3a2.0009771 2.0009771 0 0 0 -2.000977 2.0009771 2.0009771 2.0009771 0 0 0 2.000977 2.000977 2.0009771 2.0009771 0 0 0 2.000977-2.000977 2.0009771 2.0009771 0 0 0 -2.000977-2.0009771zm-5.6225369 2.4829832c-.2640376.0007337-.505154.0163-.7112849.036476-.3588853.0345022-.5712747.415653-.4142647.7399448l.6982576 1.4329914c-.7762275.6761887-1.3614655 1.5027005-1.6909298 2.4256636h-.8519785c-.2863415-.001742-.5210878.232123-.5210878.518482v1.909787c0 .19318.1080153.368862.278782.458557l1.104706.575802c.4622993 1.274735 1.4209223 2.370117 2.6836021 3.123922v1.690929c0 .332914.2715313.604462.6044617.604462h1.5476312c.2397511 0 .4582976-.143101.5549585-.362156l.3882095-.89106c.334636.04145.672902.06253 1.021332.06253.548563 0 1.082211-.0528 1.594529-.151115v.737338c0 .332912.271548.60446.604462.60446h1.542419c.222511 0 .426218-.121208.531509-.317864.821112-1.542129 1.714609-3.09084 2.373555-4.705422.332878-.817623.452843-1.685531.380394-2.532483-.117317-1.36619-.739358-2.6789543-1.779514-3.6345879-.607185-.5588897-1.310556-.9957461-2.066112-1.3131412-.09832.1483526-.211045.2892078-.338708.4168702-.16906.169061-.358385.3143411-.565381.4298976.219066.072379.42866.1552918.630517.2501221.205069.096609.285868.3478889.171959.5445366-.100057.1746193-.319205.2425352-.500244.1563264-1.376534-.6503261-2.913207-.5264869-3.58769-.4246866-.1983708.0293289-.3885254-.0968856-.4351081-.2918091v-.00261c-.053508-.2207845.0962354-.4397048.3204681-.4741882.122472-.018892.269477-.0374347.435109-.0521086-.050071-.0432872-.099308-.0888932-.145905-.1354829-.238046-.2380462-.4238135-.5154257-.5549571-.825924-.0137554-.0328321-.0288815-.0687798-.041685-.1016121-.205268.0344836-.4086954.0775918-.607068.1276665-.8668035-.5046495-1.8628504-.629749-2.6549438-.6279082v-.00261zm.6748086 3.983716c.4295216 0 .776421.3468993.776421.7764208-.0000191.42952-.3468994.776421-.776421.776421s-.7764208-.346918-.7764208-.776421c0-.4295215.3468992-.7764208.7764208-.7764208zm4.4579053.6982578h.458557v.53151c.281682.04426.508298.146396.677415.30744.172967.156937.287609.323241.343917.500245l-.495032.21104c-.02806-.100568-.08975-.195402-.182381-.283992-.08854-.09246-.20305-.156664-.343919-.192802v1.357434c.350099.144866.622338.308782.815504.489822.197205.177058.294414.413497.294414.711284 0 .338012-.104598.607902-.317864.805081-.213285.197144-.478181.319131-.792054.367368v.531509h-.458557v-.521089c-.285717-.040238-.550614-.154771-.792053-.343917-.237423-.189127-.392489-.440275-.468979-.758183l.495034-.200618c.04829.193143.139342.359375.276176.500245.14085.140852.304711.229442.489822.265753v-1.448623c-.01191 0-.02393-.003-.03126-.01042-.72032-.281682-1.078652-.685782-1.078652-1.208923 0-.27363.101035-.515063.302232-.724311.201214-.213302.469672-.335272.807685-.367368v-.518482zm0 1.055203c-.169007.02808-.303327.09229-.403843.192802-.100704.09657-.151115.217251-.151115.362156 0 .253527.184756.466611.554958.635727zm.458557 1.961895v1.250611c.169023-.03624.303328-.106496.403844-.21104.100703-.108643.151115-.246579.151115-.41166 0-.140851-.04546-.256498-.138089-.349129-.09256-.09665-.23176-.190192-.41687-.278782z"
      class="ColorScheme-Text" />
</svg>
