<svg xmlns="http://www.w3.org/2000/svg" viewBox="0 0 22 22">
 <defs id="defs3051">
   <style type="text/css" id="current-color-scheme">
     .ColorScheme-Text {
       color:#f2f2f2;
     }
     </style>
 </defs>
   <path
      style="fill:currentColor;fill-opacity:1;stroke:none"
      d="m3.567432 4.2c-.314768 0-.567432.269424-.567432.60312v11.593752c0 .333704.252664.603128.567432.603128h14.865128c.314776 0 .56744-.269424.56744-.603128v-11.593752c0-.333696-.252648-.60312-.56744-.60312zm6.148848 3.6c.919504 0 1.662496.787688 1.662496 1.762496s-.742992 1.764064-1.662496 1.764064c-.215184 0-.410504-.04248-.586584-.104688l-.879864.934376h-.588072v.621872h-.5866v.62188h-.978624v-1.037504l2.054544-2.17656c-.05872-.207408-.09728-.416032-.09728-.62344 0-.974808.742992-1.762496 1.66248-1.762496zm4.611632.440624c.762808 0 1.383952.656952 1.383952 1.465624v.596872c.109024.02424.191592.125768.191592.24844v2.232816c0 .14064-.109024.256248-.241696.256248h-2.66764c-.132696 0-.24024-.115608-.24024-.256248v-2.232816c0-.122672.08258-.224288.1916-.24844v-.596872c0-.808672.619664-1.465624 1.382448-1.465624zm-4.122312.181248c-.332584 0-.586584.26928-.586584.621872 0 .3526.254.62344.586584.62344.3326 0 .5866-.27084.5866-.62344 0-.352592-.254-.621872-.5866-.621872zm4.122312.328128c-.497424 0-.901976.428904-.901976.956248v.590624h1.803976v-.590624c0-.52732-.404552-.956248-.902-.956248z"
      class="ColorScheme-Text" />
</svg>
