<svg xmlns="http://www.w3.org/2000/svg" viewBox="0 0 22 22">
 <defs id="defs3051">
   <style type="text/css" id="current-color-scheme">
     .ColorScheme-Text {
       color:#f2f2f2;
     }
     </style>
 </defs>
   <path
      style="fill:currentColor;fill-opacity:1;stroke:none"
      d="m18.409292 4.3812238-2.97478.00183c-.320077.0001279-.576609.1880794-.576399.421148l.01252 13.7746782c.000211.233069.258104.421276.578181.421148l2.974789-.0018c.320078-.000128.57661-.18808.576399-.421148l-.01252-13.7746624c-.00021-.2330687-.258112-.421276-.57819-.4211481zm-6.038798 3.7653255-2.9747878.00183c-.3200777.0000887-.5766825.1862859-.5763993.4193546l.01069 9.9825821c.0002832.233068.2581033.419457.5781809.419366h2.9765702c.320077-.000101.576691-.188079.576399-.421148l-.012517-9.9808001c-.000284-.2330687-.258104-.4212395-.578181-.4211481zm-8.7940941 3.8224387c-.3200776.000055-.5768378.18808-.5763993.421148l.01069 6.186914c.0004386.233068.2598941.419421.5799717.419357h2.9747797c.3200777-.000055.5768378-.18808.5763993-.421139l-.0125173-6.186922c-.0004386-.233069-.2581033-.419422-.5781809-.419358h-2.9747889z"
      class="ColorScheme-Text" />
</svg>
