<svg xmlns="http://www.w3.org/2000/svg" viewBox="0 0 22 22">
 <defs id="defs3051">
   <style type="text/css" id="current-color-scheme">
     .ColorScheme-Text {
       color:#f2f2f2;
     }
     </style>
 </defs>
   <path
      style="fill:currentColor;fill-opacity:1;stroke:none"
      d="m3.6015625 3c-.2224975 0-.4452821.0853241-.6152344.2558594-.3381554.3387385-.3381554.887824 0 1.2265625l3.4921875 3.4921875h-1.8867187c-.5124804.001166-.9257813.3904757-.9257813.8691406 0 .48158.4133009.8691406.9257813.8691406h3.9414062c.5130635 0 .9285215-.3875606.9296875-.8691406-.001166-.0122436-.0046933-.0229127-.0058594-.0351562.0011661-.0151587.0058594-.0332905.0058594-.0507813v-3.8886719c0-.504318-.3887266-.9140625-.8691406-.9140625-.4786649.0017491-.8710937.4097445-.8710938.9140625v1.8945313l-3.5058593-3.5078125c-.1702438-.1705353-.3927369-.2558594-.6152344-.2558594zm14.7968755 0c-.222134-.0000729-.443621.0853241-.613282.2558594l-3.509765 3.5078125v-1.8945313c0-.504318-.391642-.9123134-.869141-.9140625-.48158 0-.869141.4097445-.869141.9140625v3.8886719c0 .0169078.004111.0356226.00586.0507813-.001749.0122435-.004111.0229126-.00586.0351562.001749.48158.414671.8691406.927735.8691406h3.941406c.513646 0 .927734-.3875606.927734-.8691406 0-.4786648-.414088-.8679746-.927734-.8691406h-1.884766l3.490235-3.4902344c.339321-.3387385.339321-.8897771 0-1.2285156-.169661-.1708268-.391148-.2557865-.613281-.2558594zm-9.898438 9.277344-3.8886719.001953c-.5060671 0-.9160156.388727-.9160156.869141.0011661.478664.4099485.86914.9160156.86914h1.8945313l-3.5097656 3.507813c-.3399046.340487-.3404876.890564 0 1.230468.3393214.338156.8911472.338156 1.2304687 0l3.4902344-3.492187v1.886719c.001166.51248.3898927.925781.8691406.925781.480414 0 .8691406-.413301.8691406-.925781v-3.94336c0-.513063-.3881436-.926568-.8691406-.927734-.0134096.001166-.0229127.00274-.0351563.003906-.0163247-.001166-.0338734-.005859-.0507812-.005859zm4.964844.009765c-.513647 0-.925986.386191-.927735.867188.001749.012826.004111.024283.00586.037109-.001749.016325-.00586.033874-.00586.050782v3.886718c0 .506067.387561.916016.869141.916016.477499-.001166.871094-.409949.871094-.916016v-1.894531l3.507812 3.509766c.339322.339904.889194.339904 1.228516 0 .339321-.339322.339321-.889194 0-1.228516l-3.492188-3.492187h1.886719c.513647-.001167.927735-.389893.927735-.869141 0-.480414-.414088-.867188-.927735-.867188z"
      class="ColorScheme-Text" />
</svg> 
