<svg xmlns="http://www.w3.org/2000/svg" viewBox="0 0 22 22">
 <defs id="defs3051">
   <style type="text/css" id="current-color-scheme">
     .ColorScheme-Text {
       color:#f2f2f2;
     }
     </style>
 </defs>
   <path
      style="fill:currentColor;fill-opacity:1;stroke:none"
      d="m4.776724 3c-.430936 0-.776724.3576-.776724.8008v14.3984c0 .4432.345788.8008.776724.8008h12.446553c.430935 0 .776723-.3576.776723-.8008v-14.3984c0-.4432-.345788-.8008-.776723-.8008zm3.463917 4c .939768 0 1.701573.7835 1.701573 1.75s-.761805 1.75-1.701573 1.75c-.939769 0-1.701573-.7835-1.701573-1.75s.761804-1.75 1.701573-1.75zm5.615572.125v3.375h2.187737l-3.281606 4.5v-3.375l-2.187737.094 3.281606-4.5938zm-7.317145 4.25h3.403146v2.625.875h-.850786-2.55236z"
      class="ColorScheme-Text" />
</svg> 
