<?xml version="1.0" encoding="UTF-8" standalone="no"?>
<svg
   xmlns:dc="http://purl.org/dc/elements/1.1/"
   xmlns:cc="http://creativecommons.org/ns#"
   xmlns:rdf="http://www.w3.org/1999/02/22-rdf-syntax-ns#"
   xmlns:svg="http://www.w3.org/2000/svg"
   xmlns="http://www.w3.org/2000/svg"
   xmlns:sodipodi="http://sodipodi.sourceforge.net/DTD/sodipodi-0.dtd"
   xmlns:inkscape="http://www.inkscape.org/namespaces/inkscape"
   viewBox="0 0 22 22"
   id="svg2"
   version="1.1"
   inkscape:version="0.91 r13725"
   sodipodi:docname="view-grid.svg">
  <metadata
     id="metadata16">
    <rdf:RDF>
      <cc:Work
         rdf:about="">
        <dc:format>image/svg+xml</dc:format>
        <dc:type
           rdf:resource="http://purl.org/dc/dcmitype/StillImage" />
      </cc:Work>
    </rdf:RDF>
  </metadata>
  <sodipodi:namedview
     pagecolor="#ffffff"
     bordercolor="#666666"
     borderopacity="1"
     objecttolerance="10"
     gridtolerance="10"
     guidetolerance="10"
     inkscape:pageopacity="0"
     inkscape:pageshadow="2"
     inkscape:window-width="640"
     inkscape:window-height="480"
     id="namedview14"
     showgrid="false"
     inkscape:zoom="28.954545"
     inkscape:cx="4.8524333"
     inkscape:cy="11.171228"
     inkscape:current-layer="svg2" />
  <defs
     id="defs3051">
    <style
       type="text/css"
       id="current-color-scheme">
      .ColorScheme-Text {
        color:#f2f2f2
      }
      </style>
    <style
       id="current-color-scheme-6"
       type="text/css">
      .ColorScheme-Text {
        color:#bebebe;
      }
      </style>
  </defs>
  <g
     id="g3244"
     style="fill:#f2f2f2;fill-opacity:1"
     transform="matrix(1.3333333,0,0,1.3333333,14.085296,3.7817897)">
    <path
       inkscape:connector-curvature="0"
       id="path3199"
       d="m -2.3134141,-0.5863423 c -0.2721705,0 -0.5232383,0.066675 -0.7530683,0.2008181 -0.2298531,0.1341193 -0.4125282,0.3168183 -0.5466715,0.5466718 -0.134167,0.2298533 -0.2008181,0.4809217 -0.2008181,0.753068 0,0.2721704 0.066699,0.5231906 0.2008181,0.7530681 0.1341433,0.2298056 0.3168184,0.4114129 0.5466715,0.5455561 0.229854,0.1341431 0.4808978,0.2008181 0.7530683,0.2008181 0.2721705,0 0.5232383,-0.066675 0.7530683,-0.2008181 0.2298293,-0.1341192 0.4114125,-0.3157265 0.5455553,-0.5455561 0.1341195,-0.2298535 0.2008185,-0.4809217 0.2008185,-0.7530681 0,-0.2721703 -0.06672,-0.5232386 -0.2008185,-0.753068 -0.1341428,-0.2298297 -0.315726,-0.4125286 -0.5455553,-0.5466718 -0.2298773,-0.1341431 -0.4808738,-0.2008181 -0.7530683,-0.2008181 z"
       style="color:#bebebe;fill:#f2f2f2;fill-opacity:1;stroke:none" />
    <path
       inkscape:connector-curvature="0"
       id="path3197"
       d="m -6.8145298,-0.5863421 c -0.2721702,1.8e-6 -0.5221229,0.0677672 -0.7519525,0.2018604 -0.2298534,0.1340692 -0.4125284,0.3155849 -0.5466715,0.5453528 -0.1341672,0.229768 -0.2008182,0.4807427 -0.2008182,0.7527876 0,0.272069 0.066699,0.5229959 0.2008182,0.7527877 0.1341431,0.22972 0.3157024,0.4112596 0.5455559,0.5453529 0.2298536,0.1340931 0.4808979,0.2018586 0.7530681,0.2018586 0.2721703,0 0.5232385,-0.067766 0.753068,-0.2018586 C -5.8316323,2.07773 -5.6489333,1.8961904 -5.5147902,1.6664464 -5.380671,1.4366785 -5.313972,1.1857038 -5.313972,0.9136587 c 0,-0.2720689 -0.066723,-0.5230436 -0.2008182,-0.7527876 -0.1341431,-0.2297439 -0.3168421,-0.4112596 -0.5466716,-0.5453528 -0.2298774,-0.1340932 -0.4808737,-0.2018586 -0.753068,-0.2018586 z"
       style="color:#bebebe;fill:#f2f2f2;fill-opacity:1;stroke:none" />
    <path
       inkscape:connector-curvature="0"
       id="path3195"
       d="m 2.186586,-0.5863421 c -0.27217,0 -0.523239,0.06668 -0.753068,0.200818 -0.229854,0.134119 -0.412529,0.316819 -0.546672,0.546672 -0.134167,0.229854 -0.200818,0.480922 -0.200818,0.753068 0,0.27217 0.0667,0.52319 0.200818,0.753068 0.134143,0.229805 0.316818,0.411413 0.546672,0.545556 0.229854,0.134143 0.480898,0.200818 0.753068,0.200818 0.27217,0 0.523238,-0.06668 0.753068,-0.200818 0.229829,-0.13412 0.411413,-0.315727 0.545556,-0.545556 0.134119,-0.229854 0.200818,-0.480921 0.200818,-0.753068 0,-0.272171 -0.06672,-0.523239 -0.200818,-0.753068 -0.134143,-0.229827 -0.315727,-0.412526 -0.545556,-0.54667 -0.229878,-0.134143 -0.480874,-0.200818 -0.753068,-0.200818 z"
       style="color:#bebebe;fill:#f2f2f2;fill-opacity:1;stroke:none" />
    <path
       inkscape:connector-curvature="0"
       id="path3667"
       d="m -6.8145299,8.4136579 c -0.2721702,0 -0.5232385,0.06668 -0.753068,0.200818 -0.2298535,0.134119 -0.4114128,0.315702 -0.5455559,0.545556 -0.1341671,0.229852 -0.2008182,0.480922 -0.2008182,0.753067 0,0.2721701 0.066699,0.5231901 0.2008182,0.7530681 0.1341431,0.229805 0.3157024,0.412528 0.5455559,0.546671 0.2298535,0.134144 0.4808978,0.20082 0.753068,0.20082 0.2721704,0 0.5232386,-0.06668 0.7530681,-0.200818 0.2298296,-0.134119 0.4125285,-0.316842 0.5466716,-0.546671 0.1341193,-0.229853 0.2008182,-0.480922 0.2008182,-0.7530671 0,-0.272171 -0.066723,-0.523239 -0.2008182,-0.753068 -0.1341431,-0.22983 -0.316842,-0.411413 -0.5466716,-0.545556 -0.2298774,-0.134143 -0.4808738,-0.200818 -0.7530681,-0.200818 z"
       style="color:#bebebe;fill:#f2f2f2;fill-opacity:1;stroke:none" />
    <path
       style="color:#bebebe;fill:#f2f2f2;fill-opacity:1;stroke:none"
       d="m -2.3134141,8.4136579 c -0.2721705,0 -0.5232383,0.066675 -0.7530683,0.200818 -0.2298531,0.134119 -0.4125282,0.316818 -0.5466715,0.546672 -0.134167,0.229853 -0.2008181,0.480921 -0.2008181,0.753068 0,0.2721701 0.066699,0.5231901 0.2008181,0.7530681 0.1341433,0.229805 0.3168184,0.411413 0.5466715,0.545556 0.229854,0.134143 0.4808978,0.200818 0.7530683,0.200818 0.2721705,0 0.5232383,-0.06668 0.7530683,-0.200818 0.2298293,-0.134119 0.4114125,-0.315727 0.5455553,-0.545556 0.1341195,-0.229854 0.2008185,-0.480922 0.2008185,-0.7530681 0,-0.272171 -0.06672,-0.523239 -0.2008185,-0.753068 -0.1341428,-0.22983 -0.315726,-0.412529 -0.5455553,-0.546672 -0.2298773,-0.134143 -0.4808738,-0.200818 -0.7530683,-0.200818 z"
       id="path3205"
       inkscape:connector-curvature="0" />
    <path
       style="color:#bebebe;fill:#f2f2f2;fill-opacity:1;stroke:none"
       d="m 2.186586,8.4136579 c -0.27217,0 -0.523239,0.06668 -0.753068,0.200818 -0.229854,0.134119 -0.412529,0.316819 -0.546672,0.546672 -0.134167,0.229854 -0.200818,0.480922 -0.200818,0.753068 0,0.2721701 0.0667,0.5231901 0.200818,0.7530681 0.134143,0.229805 0.316818,0.411413 0.546672,0.545556 0.229854,0.134143 0.480898,0.200818 0.753068,0.200818 0.27217,0 0.523238,-0.06668 0.753068,-0.200818 0.229829,-0.13412 0.411413,-0.315727 0.545556,-0.545556 0.134119,-0.229854 0.200818,-0.480921 0.200818,-0.7530681 0,-0.272171 -0.06672,-0.523239 -0.200818,-0.753068 C 3.351067,8.9313209 3.169483,8.7486219 2.939654,8.6144779 2.709776,8.4803349 2.45878,8.4136599 2.186586,8.4136599 Z"
       id="path3207"
       inkscape:connector-curvature="0" />
    <path
       style="color:#bebebe;fill:#f2f2f2;fill-opacity:1;stroke:none"
       d="m -6.8145299,3.9136579 c -0.2721702,0 -0.5232385,0.06668 -0.753068,0.200818 -0.2298535,0.134119 -0.4114128,0.315702 -0.5455559,0.545556 -0.1341671,0.229852 -0.2008182,0.480922 -0.2008182,0.753067 0,0.27217 0.066699,0.52319 0.2008182,0.753068 0.1341431,0.229805 0.3157024,0.412528 0.5455559,0.546671 0.2298535,0.134144 0.4808978,0.20082 0.753068,0.20082 0.2721704,0 0.5232386,-0.06668 0.7530681,-0.200818 0.2298296,-0.134119 0.4125285,-0.316842 0.5466716,-0.546671 0.1341193,-0.229853 0.2008182,-0.480922 0.2008182,-0.753067 0,-0.272171 -0.066723,-0.523239 -0.2008182,-0.753068 -0.1341431,-0.22983 -0.316842,-0.411413 -0.5466716,-0.545556 -0.2298774,-0.134143 -0.4808738,-0.200818 -0.7530681,-0.200818 z"
       id="path3209"
       inkscape:connector-curvature="0" />
    <path
       inkscape:connector-curvature="0"
       id="path3211"
       d="m -2.3134141,3.9136579 c -0.2721705,0 -0.5232383,0.06668 -0.7530683,0.200818 -0.2298531,0.134119 -0.4125282,0.316818 -0.5466715,0.546672 -0.134167,0.229853 -0.2008181,0.480921 -0.2008181,0.753068 0,0.27217 0.066699,0.52319 0.2008181,0.753068 0.1341433,0.229805 0.3168184,0.411413 0.5466715,0.545556 0.229854,0.134143 0.4808978,0.200818 0.7530683,0.200818 0.2721705,0 0.5232383,-0.066675 0.7530683,-0.200818 0.2298293,-0.134119 0.4114125,-0.315727 0.5455553,-0.545556 0.1341195,-0.229854 0.2008185,-0.480922 0.2008185,-0.753068 0,-0.272171 -0.06672,-0.523239 -0.2008185,-0.753068 -0.1341428,-0.22983 -0.315726,-0.412529 -0.5455553,-0.546672 -0.2298773,-0.134143 -0.4808738,-0.200818 -0.7530683,-0.200818 z"
       style="color:#bebebe;fill:#f2f2f2;fill-opacity:1;stroke:none" />
    <path
       inkscape:connector-curvature="0"
       id="path3213"
       d="m 2.186586,3.9136579 c -0.27217,0 -0.523239,0.06668 -0.753068,0.200818 -0.229854,0.134119 -0.412529,0.316819 -0.546672,0.546672 -0.134167,0.229854 -0.200818,0.480922 -0.200818,0.753068 0,0.27217 0.0667,0.52319 0.200818,0.753068 0.134143,0.229805 0.316818,0.411413 0.546672,0.545556 0.229854,0.134143 0.480898,0.200818 0.753068,0.200818 0.27217,0 0.523238,-0.06668 0.753068,-0.200818 0.229829,-0.13412 0.411413,-0.315727 0.545556,-0.545556 0.134119,-0.229854 0.200818,-0.480921 0.200818,-0.753068 0,-0.272171 -0.06672,-0.523239 -0.200818,-0.753068 C 3.351067,4.4313209 3.169483,4.2486219 2.939654,4.1144779 2.709776,3.9803349 2.45878,3.9136599 2.186586,3.9136599 Z"
       style="color:#bebebe;fill:#f2f2f2;fill-opacity:1;stroke:none" />
  </g>
</svg>
