<svg xmlns="http://www.w3.org/2000/svg" viewBox="0 0 22 22">
  <defs id="defs3051">
    <style type="text/css" id="current-color-scheme">
      .ColorScheme-Text {
        color:#f2f2f2
      }
      </style>
  </defs>
 <path 
     style="fill:currentColor;fill-opacity:1;stroke:none"      
	 class="ColorScheme-Text"
        d="M 3.88867,3 C 3.39623,3 3,3.35758 3,3.80078 L 3,18.19922 C 3,18.64242 3.39623,19 3.88867,19 l 14.22266,0 C 18.60377,19 19,18.64242 19,18.19922 L 19,3.80078 C 19,3.35758 18.60377,3 18.11133,3 L 3.88867,3 Z m 7.11328,2 c 3.31059,0 6.0011,2.68441 5.9961,6 0,1.33219 -0.43334,2.56051 -1.16407,3.55469 -0.87978,1.198 -2.19764,2.05652 -3.71875,2.33984 C 11.75731,16.96453 11.38482,17 11.00195,17 10.2215,17 9.47597,16.85035 8.79492,16.58203 7.32855,16.00041 6.14106,14.85757 5.50977,13.41602 5.182,12.67538 5.00195,11.85994 5.00195,11 c 0,-3.31559 2.68441,-6 6,-6 z m -0.59765,2 0,0.78711 C 9.96763,7.86161 9.58607,8.02861 9.30469,8.32617 l -0.002,0 C 8.98754,8.65464 8.82027,9.05534 8.82027,9.49219 c 0,0.41732 0.14903,0.8012 0.43359,1.11914 0.26637,0.29763 0.66604,0.53153 1.15039,0.73242 l 0,1.64453 c -0.12597,-0.0567 -0.25808,-0.0925 -0.36719,-0.20117 -0.17241,-0.17763 -0.2884,-0.3821 -0.34961,-0.62695 l -0.0527,-0.21289 -1.06446,0.42773 0.0391,0.16016 c 0.11767,0.48922 0.36826,0.89508 0.74024,1.1914 0.31869,0.24965 0.68013,0.378 1.05469,0.45899 l 0,0.81445 0.1914,0 0.84766,0 0,-0.80859 c 0.40817,-0.0901 0.77369,-0.25477 1.06641,-0.52539 0.3445,-0.3185 0.51757,-0.76431 0.51757,-1.28711 0,-0.46635 -0.1626,-0.86797 -0.48242,-1.15625 -0.27017,-0.25299 -0.65629,-0.46694 -1.10156,-0.66406 l 0,-1.51563 c 0.0504,0.0322 0.11997,0.0478 0.16016,0.0898 l 0.004,0.004 0.002,0.002 c 0.11295,0.10805 0.17757,0.21315 0.20703,0.31836 l 0.0585,0.21094 1.06836,-0.45508 -0.0527,-0.16601 C 12.79853,8.75726 12.61156,8.49227 12.34777,8.25205 12.11605,8.03156 11.79086,7.9178 11.44347,7.83604 l 0,-0.83594 -1.03906,0 z m 0,1.99219 0,1.04687 C 10.3188,9.97996 10.19885,9.92306 10.14648,9.86328 10.03938,9.74105 9.99609,9.62653 9.99609,9.49219 c 0,-0.16247 0.0472,-0.27416 0.15625,-0.37891 l 0,-0.002 0.002,-0.002 c 0.0593,-0.0593 0.16594,-0.079 0.25,-0.11718 z m 1.03906,2.86133 c 0.0876,0.0588 0.21247,0.12031 0.26562,0.17578 l 0,0.002 0.002,0 c 0.0978,0.0978 0.14258,0.20612 0.14258,0.36523 0,0.19593 -0.0541,0.33376 -0.16406,0.45313 -0.0587,0.0608 -0.16413,0.0852 -0.2461,0.12695 l 0,-1.12305 z"
     />
</svg>
