<svg xmlns="http://www.w3.org/2000/svg" viewBox="0 0 22 22">
 <defs id="defs3051">
   <style type="text/css" id="current-color-scheme">
     .ColorScheme-Text {
       color:#f2f2f2;
     }
     </style>
 </defs>
   <path
      style="fill:currentColor;fill-opacity:1;stroke:none"
      d="m2.8925781 3c-.2363733 0-.4257812.1894079-.4257812.4257812v6.6132808c0 .236374.1894079.427735.4257812.427735h9.8144529c.236374 0 .425781-.191361.425781-.427735v-6.6132808c0-.2363733-.189407-.4257812-.425781-.4257812zm11.7343749 0c-.236373 0-.427734.1894079-.427734.4257812v6.6132808c0 .236374.191361.427735.427734.427735h4.480469c.236373 0 .425781-.191361.425781-.427735v-6.6132808c0-.2363733-.189408-.4257812-.425781-.4257812zm-11.626953 8.533203c-.2954667 0-.5332031.237737-.5332031.533203v6.400391c0 .295467.2377364.533203.5332031.533203h16c .295467 0 .533203-.237736.533203-.533203v-6.400391c0-.295466-.237736-.533203-.533203-.533203z"
      class="ColorScheme-Text" />
</svg> 
