<?xml version="1.0" encoding="UTF-8" standalone="no"?>
<svg
   xmlns:dc="http://purl.org/dc/elements/1.1/"
   xmlns:cc="http://creativecommons.org/ns#"
   xmlns:rdf="http://www.w3.org/1999/02/22-rdf-syntax-ns#"
   xmlns:svg="http://www.w3.org/2000/svg"
   xmlns="http://www.w3.org/2000/svg"
   xmlns:sodipodi="http://sodipodi.sourceforge.net/DTD/sodipodi-0.dtd"
   xmlns:inkscape="http://www.inkscape.org/namespaces/inkscape"
   viewBox="0 0 22 22"
   id="svg2"
   version="1.1"
   inkscape:version="0.91 r13725"
   sodipodi:docname="view-presentation.svg">
  <metadata
     id="metadata10">
    <rdf:RDF>
      <cc:Work
         rdf:about="">
        <dc:format>image/svg+xml</dc:format>
        <dc:type
           rdf:resource="http://purl.org/dc/dcmitype/StillImage" />
      </cc:Work>
    </rdf:RDF>
  </metadata>
  <sodipodi:namedview
     pagecolor="#ffffff"
     bordercolor="#666666"
     borderopacity="1"
     objecttolerance="10"
     gridtolerance="10"
     guidetolerance="10"
     inkscape:pageopacity="0"
     inkscape:pageshadow="2"
     inkscape:window-width="640"
     inkscape:window-height="480"
     id="namedview8"
     showgrid="false"
     inkscape:zoom="28.954545"
     inkscape:cx="6.7039517"
     inkscape:cy="8.8040489"
     inkscape:current-layer="svg2" />
  <defs
     id="defs3051">
    <style
       type="text/css"
       id="current-color-scheme">
      .ColorScheme-Text {
        color:#f2f2f2
      }
      </style>
  </defs>
  <path
     style="color:#f2f2f2;fill:currentColor;fill-opacity:1;stroke:none"
     class="ColorScheme-Text"
     d="M 9.5,7.6361753 9.5,12 l 3,-2.1819115 z"
     id="path6"
     inkscape:connector-curvature="0"
     sodipodi:nodetypes="cccc" />
  <path
     id="path3199"
     d="m 3,4.5238096 6.0952382,0 C 9.0952382,3.6822328 9.7774714,2.9999999 10.619048,3 c 0.841577,0 1.523809,0.6822328 1.523809,1.5238096 l 6.095239,0 0,1.5238095 -0.761905,0 0,8.3809519 -4.380953,0 L 14.428572,19 l -1.52381,0 -1.333333,-4.571429 -1.9047622,0 L 8.3333334,19 l -1.5238095,0 1.3333333,-4.571429 -4.3809524,0 0,-8.3809519 -0.7619048,0 0,-1.5238095 m 2.2857143,1.5238095 0,6.8571429 10.6666667,0 0,-6.8571429 -10.6666667,0"
     inkscape:connector-curvature="0"
     style="fill:#f2f2f2;fill-opacity:1"
     sodipodi:nodetypes="ccscccccccccccccccccccccc" />
</svg>
