<svg xmlns="http://www.w3.org/2000/svg" viewBox="0 0 22 22">
  <defs id="defs3051">
    <style type="text/css" id="current-color-scheme">
      .ColorScheme-Text {
        color:#f2f2f2
      }
      </style>
  </defs>
 <path 
     style="fill:currentColor;fill-opacity:1;stroke:none"      
	 class="ColorScheme-Text"
        d="M 1.7421875 3 L 1.7421875 4.2109375 L 5.6464844 4.2109375 L 1.6269531 8.90625 L 1.6269531 10.058594 L 7.3320312 10.058594 L 7.3320312 8.8496094 L 3.2558594 8.8496094 L 7.2753906 4.1523438 L 7.2753906 3 L 1.7421875 3 z M 4.8222656 11.480469 C 4.0347612 11.480469 3.4001075 11.662403 2.9199219 12.027344 C 2.4397363 12.382681 2.1183412 12.772749 1.9550781 13.195312 L 3.1660156 13.712891 C 3.2812602 13.395968 3.4915093 13.147314 3.7988281 12.964844 C 4.1157506 12.782373 4.4654609 12.689453 4.8496094 12.689453 C 5.3682098 12.689453 5.806772 12.849093 6.1621094 13.166016 C 6.5174467 13.473334 6.6953125 13.885696 6.6953125 14.404297 L 6.6953125 14.605469 C 6.1959195 14.317357 5.5571975 14.173828 4.7792969 14.173828 C 3.9053591 14.173828 3.1696489 14.394167 2.5742188 14.835938 C 1.9787886 15.268105 1.6816406 15.868422 1.6816406 16.636719 C 1.6816406 17.347393 1.9302945 17.919395 2.4296875 18.351562 C 2.9386842 18.78373 3.5692698 19 4.3183594 19 C 5.3363528 19 6.1085146 18.595774 6.6367188 17.789062 L 6.6953125 17.789062 L 6.6953125 18.769531 L 7.9628906 18.769531 L 7.9628906 14.505859 C 7.9628906 13.545488 7.6637895 12.801642 7.0683594 12.273438 C 6.4729292 11.745233 5.7250146 11.480469 4.8222656 11.480469 z M 10.632812 12.974609 C 10.445051 12.973931 10.257022 13.044795 10.113281 13.1875 C 9.8256832 13.47291 9.8238487 13.937011 10.109375 14.224609 L 14.597656 18.746094 C 14.740431 18.889835 14.927539 18.962212 15.115234 18.962891 C 15.303022 18.96357 15.491025 18.892682 15.634766 18.75 L 20.15625 14.259766 C 20.443988 13.97424 20.445822 13.510116 20.160156 13.222656 C 19.874745 12.935174 19.408553 12.933339 19.121094 13.21875 L 15.121094 17.191406 L 11.150391 13.191406 C 11.007627 13.047665 10.820574 12.975288 10.632812 12.974609 z M 5.0097656 15.269531 C 5.7588552 15.269531 6.3207677 15.42315 6.6953125 15.730469 C 6.6953125 16.287484 6.4689526 16.772587 6.0175781 17.185547 C 5.5758074 17.588903 5.0806147 17.789062 4.5332031 17.789062 C 4.1490546 17.789062 3.8094338 17.689959 3.5117188 17.488281 C 3.2140037 17.286603 3.0644531 17.011749 3.0644531 16.666016 C 3.0644531 16.291471 3.2281613 15.966008 3.5546875 15.6875 C 3.8812137 15.408992 4.3663169 15.269531 5.0097656 15.269531 z "
     />
</svg>
