<svg xmlns="http://www.w3.org/2000/svg" viewBox="0 0 22 22">
 <defs id="defs3051">
   <style type="text/css" id="current-color-scheme">
     .ColorScheme-Text {
       color:#f2f2f2;
     }
     </style>
 </defs>
   <path
      style="fill:currentColor;fill-opacity:1;stroke:none"
      d="m3.5674259 4.9263052c-.3147687 0-.5674259.2541437-.5674259.5689049v10.9358849c0 .314769.2526572.568905.5674259.568905h14.8651481c.314769 0 .567426-.254136.567426-.568905v-10.9358849c0-.3147612-.252657-.5689049-.567426-.5689049zm3.6595445.3773029h.7546059v2.2638178h.7546059v2.2638181h.7546059v.754606h1.5092119v-.754606h.754606v-.754606h.754606v-.754606h.754606v-1.509212h.754606v.7546059h.754606v1.5092121h.754606v.754606h.754605v.754606h.754606v.754606h-.754606v.754605h-.754605v.754606h-.754606v1.509212h-.754606v.754606h-.754606v-1.509212h-.754606v-.754606h-.754606v-.754606h-.754606v-.754605h-1.5092119v.754605h-.7546059v2.263818h-.7546059v2.263818h-.7546059v-1.509212h-.754606v-2.263818h-.7546059v-1.509211h-.7546059v-.754606h.7546059v-1.509212h.7546059v-2.263818h.754606z"
      class="ColorScheme-Text" />
</svg>
