<svg xmlns="http://www.w3.org/2000/svg" viewBox="0 0 22 22">
  <defs id="defs3051">
    <style type="text/css" id="current-color-scheme">
      .ColorScheme-Text {
        color:#f2f2f2
      }
      </style>
  </defs>
 <path 
     style="fill:currentColor;fill-opacity:1;stroke:none"      
	 class="ColorScheme-Text"
        d="M 3.35742,3 C 3.13582,3 2.95703,3.17879 2.95703,3.40039 l 0,15.19922 C 2.95703,18.82121 3.13582,19 3.35742,19 l 6.19922,0 c 0.2216,0 0.40039,-0.17879 0.40039,-0.40039 l 0,-15.19922 C 9.95703,3.17879 9.77824,3 9.55664,3 L 3.35742,3 Z m 8.08594,0 c -0.2216,0 -0.40039,0.17879 -0.40039,0.40039 l 0,15.19922 c 0,0.2216 0.17879,0.40039 0.40039,0.40039 l 7.19922,0 c 0.2216,0 0.40039,-0.17879 0.40039,-0.40039 l 0,-15.19922 C 19.04297,3.17879 18.86418,3 18.64258,3 l -7.19922,0 z"
     />
</svg>
