<?xml version="1.0" encoding="UTF-8" standalone="no"?>
<svg
   xmlns:dc="http://purl.org/dc/elements/1.1/"
   xmlns:cc="http://creativecommons.org/ns#"
   xmlns:rdf="http://www.w3.org/1999/02/22-rdf-syntax-ns#"
   xmlns:svg="http://www.w3.org/2000/svg"
   xmlns="http://www.w3.org/2000/svg"
   xmlns:sodipodi="http://sodipodi.sourceforge.net/DTD/sodipodi-0.dtd"
   xmlns:inkscape="http://www.inkscape.org/namespaces/inkscape"
   viewBox="0 0 22 22"
   id="svg2"
   version="1.1"
   inkscape:version="0.91 r13725"
   sodipodi:docname="view-statistics.svg">
  <metadata
     id="metadata10">
    <rdf:RDF>
      <cc:Work
         rdf:about="">
        <dc:format>image/svg+xml</dc:format>
        <dc:type
           rdf:resource="http://purl.org/dc/dcmitype/StillImage" />
      </cc:Work>
    </rdf:RDF>
  </metadata>
  <sodipodi:namedview
     pagecolor="#ffffff"
     bordercolor="#666666"
     borderopacity="1"
     objecttolerance="10"
     gridtolerance="10"
     guidetolerance="10"
     inkscape:pageopacity="0"
     inkscape:pageshadow="2"
     inkscape:window-width="640"
     inkscape:window-height="480"
     id="namedview8"
     showgrid="false"
     inkscape:zoom="28.954545"
     inkscape:cx="4.8524333"
     inkscape:cy="11"
     inkscape:current-layer="svg2" />
  <defs
     id="defs3051">
    <style
       type="text/css"
       id="current-color-scheme">
      .ColorScheme-Text {
        color:#f2f2f2
      }
      </style>
  </defs>
  <path
     style="color:#f2f2f2;fill:currentColor;fill-opacity:1;stroke:none"
     class="ColorScheme-Text"
     d="m 18.409292,4.3812238 -2.97478,0.00183 c -0.320077,1.279e-4 -0.576609,0.1880794 -0.576399,0.421148 l 0.01252,13.7746782 c 2.11e-4,0.233069 0.258104,0.421276 0.578181,0.421148 l 2.974789,-0.0018 c 0.320078,-1.28e-4 0.57661,-0.18808 0.576399,-0.421148 L 18.987482,4.8024176 c -2.1e-4,-0.2330687 -0.258112,-0.421276 -0.57819,-0.4211481 z m -6.038798,3.7653255 -2.9747878,0.00183 C 9.0756285,8.148468 8.8190237,8.3346652 8.8193069,8.5677339 l 0.01069,9.9825821 c 2.832e-4,0.233068 0.2581033,0.419457 0.5781809,0.419366 l 2.9765702,0 c 0.320077,-1.01e-4 0.576691,-0.188079 0.576399,-0.421148 L 12.94863,8.5677339 C 12.948346,8.3346652 12.690526,8.1464944 12.370449,8.1465858 Z M 3.5763999,11.968988 c -0.3200776,5.5e-5 -0.5768378,0.18808 -0.5763993,0.421148 l 0.01069,6.186914 c 4.386e-4,0.233068 0.2598941,0.419421 0.5799717,0.419357 l 2.9747797,0 c 0.3200777,-5.5e-5 0.5768378,-0.18808 0.5763993,-0.421139 L 7.129324,12.388346 C 7.1288854,12.155277 6.8712207,11.968924 6.5511431,11.968988 l -2.9747889,0 z"
     id="path6"
     inkscape:connector-curvature="0" />
</svg>
