<?xml version="1.0" encoding="UTF-8" standalone="no"?>
<svg
   xmlns:dc="http://purl.org/dc/elements/1.1/"
   xmlns:cc="http://creativecommons.org/ns#"
   xmlns:rdf="http://www.w3.org/1999/02/22-rdf-syntax-ns#"
   xmlns:svg="http://www.w3.org/2000/svg"
   xmlns="http://www.w3.org/2000/svg"
   xmlns:sodipodi="http://sodipodi.sourceforge.net/DTD/sodipodi-0.dtd"
   xmlns:inkscape="http://www.inkscape.org/namespaces/inkscape"
   viewBox="0 0 22 22"
   id="svg3487"
   version="1.1"
   inkscape:version="0.91 r13725"
   sodipodi:docname="view-certificate-server-configure.svg">
  <metadata
     id="metadata3495">
    <rdf:RDF>
      <cc:Work
         rdf:about="">
        <dc:format>image/svg+xml</dc:format>
        <dc:type
           rdf:resource="http://purl.org/dc/dcmitype/StillImage" />
      </cc:Work>
    </rdf:RDF>
  </metadata>
  <sodipodi:namedview
     pagecolor="#ffffff"
     bordercolor="#666666"
     borderopacity="1"
     objecttolerance="10"
     gridtolerance="10"
     guidetolerance="10"
     inkscape:pageopacity="0"
     inkscape:pageshadow="2"
     inkscape:window-width="640"
     inkscape:window-height="480"
     id="namedview3493"
     showgrid="false"
     inkscape:zoom="28.954545"
     inkscape:cx="4.8524333"
     inkscape:cy="11"
     inkscape:current-layer="svg3487" />
  <defs
     id="defs3051">
    <style
       type="text/css"
       id="current-color-scheme">
      .ColorScheme-Text {
        color:#f2f2f2
      }
      </style>
  </defs>
  <path
     style="color:#f2f2f2;fill:currentColor;fill-opacity:1;stroke:none"
     class="ColorScheme-Text"
     d="M 3.56744,4.2 C 3.252672,4.2 3,4.469424 3,4.80312 L 3,16.396872 C 3,16.730576 3.252672,17 3.56744,17 l 14.865144,0 C 18.747336,17 19,16.730576 19,16.396872 L 19,4.80312 C 19,4.469424 18.747336,4.2 18.432584,4.2 L 3.56744,4.2 Z m 5.515104,3.559376 c 0.919512,0 1.662496,0.789248 1.662496,1.764056 0,0.974816 -0.742984,1.762504 -1.662496,1.762504 -0.2152,0 -0.410504,-0.04088 -0.586584,-0.103128 l -0.88136,0.932816 -0.586584,0 0,0.621872 -0.586592,0 0,0.62188 -0.978624,0 0,-1.035944 2.054528,-2.17812 C 7.458608,9.937904 7.420048,9.73084 7.420048,9.523432 c 0,-0.974808 0.742992,-1.764056 1.662488,-1.764056 z m 4.43184,0.04064 0.763448,0 c 0.03216,0 0.05992,0.01056 0.08401,0.03128 0.02408,0.02064 0.03752,0.04656 0.03976,0.07816 l 0.0958,0.670312 c 0.11232,0.03888 0.215456,0.08487 0.309496,0.135936 L 15.294746,8.32508 c 0.02064,-0.02184 0.04816,-0.0328 0.08253,-0.0328 0.02976,0 0.05952,0.0116 0.08696,0.03592 0.295768,0.289264 0.484904,0.496312 0.567432,0.620312 0.01608,0.01944 0.02352,0.04568 0.02352,0.07968 0,0.0292 -0.0097,0.0576 -0.028,0.08438 -0.0344,0.05104 -0.09287,0.131568 -0.175384,0.242192 -0.08253,0.110616 -0.144464,0.19704 -0.185712,0.257808 0.0596,0.121544 0.107096,0.239592 0.141488,0.356248 l 0.629336,0.103128 c 0.02984,0.0048 0.05384,0.01976 0.07224,0.04528 0.0184,0.02552 0.02808,0.05432 0.028,0.08594 l 0,0.809376 c 0,0.02912 -0.0097,0.05608 -0.028,0.08282 -0.01832,0.0268 -0.04184,0.0436 -0.06928,0.04848 l -0.635232,0.10156 c -0.04352,0.131248 -0.08829,0.241304 -0.134112,0.331248 0.08028,0.121544 0.201944,0.289224 0.366984,0.503128 0.02296,0.02912 0.03536,0.06056 0.03536,0.09218 0,0.0316 -0.01032,0.05848 -0.03096,0.08282 -0.06184,0.08994 -0.175336,0.221192 -0.340448,0.393752 -0.16504,0.172592 -0.273848,0.259376 -0.324248,0.259376 -0.02744,0 -0.0564,-0.01096 -0.08842,-0.0328 l -0.474576,-0.393752 c -0.10084,0.05592 -0.206168,0.102592 -0.313936,0.139064 -0.03664,0.33056 -0.06896,0.556584 -0.09874,0.67812 -0.01608,0.06808 -0.0572,0.101568 -0.123784,0.101568 l -0.763448,0 c -0.03208,0 -0.05992,-0.01056 -0.08402,-0.03128 -0.02408,-0.02064 -0.03752,-0.04656 -0.03976,-0.07816 l -0.09727,-0.670312 C 13.180936,12.581384 13.0778,12.535464 12.983752,12.4844 l -0.484896,0.390632 c -0.02296,0.02184 -0.05112,0.0328 -0.08548,0.0328 -0.03208,0 -0.06024,-0.01384 -0.08548,-0.04064 -0.288896,-0.277048 -0.478024,-0.481208 -0.567432,-0.612504 -0.01608,-0.02432 -0.02504,-0.0512 -0.02504,-0.08281 0,-0.0292 0.0097,-0.0576 0.028,-0.08438 0.03432,-0.05104 0.09286,-0.131568 0.175384,-0.242192 0.08252,-0.110616 0.144464,-0.19704 0.185704,-0.257808 -0.06192,-0.12149 -0.109408,-0.241858 -0.141488,-0.360938 l -0.629328,-0.09844 c -0.02984,-0.0048 -0.05392,-0.01976 -0.07224,-0.04528 -0.01832,-0.02552 -0.02656,-0.05432 -0.02656,-0.08594 l 0,-0.809376 c 0,-0.02912 0.0082,-0.05608 0.02656,-0.08281 0.01832,-0.0268 0.04112,-0.04352 0.06632,-0.04848 l 0.639648,-0.101568 c 0.03208,-0.111784 0.0768,-0.224152 0.13412,-0.335936 -0.09174,-0.138592 -0.214864,-0.306224 -0.368464,-0.503128 -0.02296,-0.02912 -0.03384,-0.05832 -0.03384,-0.0875 0,-0.02432 0.01032,-0.0512 0.03096,-0.08282 0.0596,-0.08748 0.17276,-0.218376 0.338976,-0.392184 0.166232,-0.173808 0.2738,-0.260936 0.324248,-0.260936 0.02984,0 0.06016,0.0116 0.0899,0.03592 L 12.9779,8.718706 c 0.100888,-0.05592 0.204688,-0.102544 0.312456,-0.139064 0.03664,-0.33056 0.0704,-0.556624 0.100224,-0.67812 0.016,-0.06808 0.05728,-0.10156 0.123792,-0.10156 z m -3.94252,0.582808 c -0.3326,0 -0.586592,0.26928 -0.586592,0.62188 0,0.352592 0.253992,0.621872 0.586592,0.621872 0.332592,0 0.586584,-0.26928 0.586584,-0.621872 0,-0.3526 -0.254,-0.62188 -0.586584,-0.62188 z"
     id="path3491"
     inkscape:connector-curvature="0" />
</svg>
