<svg xmlns="http://www.w3.org/2000/svg" viewBox="0 0 22 22">
  <defs id="defs3051">
    <style type="text/css" id="current-color-scheme">
      .ColorScheme-Text {
        color:#f2f2f2
      }
      </style>
  </defs>
 <path 
     style="fill:currentColor;fill-opacity:1;stroke:none"      
	 class="ColorScheme-Text"
        d="M 1.70928,3 C 1.31582,3 1,3.33678 1,3.75391 L 1,18.24609 C 1,18.66322 1.31582,19 1.70928,19 l 18.58144,0 C 20.68418,19 21,18.66322 21,18.24609 L 21,3.75391 C 21,3.33678 20.68418,3 20.29072,3 L 1.70928,3 Z m 6.61939,3.30078 c 0.37562,0 0.72182,0.0967 1.03905,0.29297 0.31716,0.19625 0.56839,0.46259 0.7535,0.79883 0.17782,0.32308 0.26571,0.67636 0.27266,1.05664 l 0,-0.27344 1.18276,0 0,0.31836 c 0,-0.39815 0.093,-0.76529 0.27819,-1.10156 0.18512,-0.33628 0.43631,-0.60261 0.7535,-0.79883 0.31716,-0.19625 0.66347,-0.29297 1.03905,-0.29297 0.37563,0 0.72183,0.0967 1.03907,0.29297 0.31716,0.19625 0.56838,0.46259 0.75349,0.79883 0.18505,0.33624 0.27635,0.70338 0.27635,1.10156 0,0.39815 -0.0912,0.76529 -0.27635,1.10156 -0.18511,0.33624 -0.43633,0.60261 -0.75349,0.79883 -0.31717,0.19625 -0.66347,0.29492 -1.03907,0.29492 -0.37558,0 -0.72185,-0.0987 -1.03905,-0.29492 C 12.29114,10.19828 12.03994,9.93191 11.85483,9.5957 11.66975,9.25939 11.57664,8.89233 11.57664,8.49414 l 0,0.30859 -1.18276,0 0,1.25391 0,3.76367 1.20855,0 0,0.26953 c 0.003,-0.3919 0.0938,-0.75423 0.27635,-1.08593 0.18511,-0.33628 0.43631,-0.60261 0.7535,-0.79883 0.31716,-0.19625 0.66347,-0.29492 1.03905,-0.29492 0.37563,0 0.72183,0.0987 1.03907,0.29492 0.31716,0.19625 0.56838,0.46258 0.75349,0.79883 0.18505,0.33624 0.2782,0.70337 0.2782,1.10156 0,0.39815 -0.0931,0.76529 -0.2782,1.10156 -0.18511,0.33624 -0.43633,0.60261 -0.75349,0.79883 -0.31716,0.19625 -0.66347,0.29492 -1.03907,0.29492 -0.37558,0 -0.72185,-0.0987 -1.03905,-0.29492 -0.31719,-0.19625 -0.56839,-0.46262 -0.7535,-0.79883 -0.18257,-0.33174 -0.27385,-0.694 -0.27635,-1.08594 l 0,0.32618 -1.20855,0 -0.59137,0 0,-4.39063 c 0.32192,-0.34246 0.53063,-0.75321 0.59137,-1.25391 l 0,-0.26367 c -0.007,0.38025 -0.0948,0.73352 -0.27266,1.05664 -0.18511,0.33624 -0.43634,0.60261 -0.7535,0.79883 -0.31716,0.19625 -0.66346,0.29492 -1.03905,0.29492 -0.37559,0 -0.72187,-0.0987 -1.03906,-0.29492 C 6.97241,10.19828 6.72122,9.93191 6.53611,9.5957 6.35102,9.25939 6.25792,8.89233 6.25792,8.49414 c 0,-0.39815 0.093,-0.76529 0.27819,-1.10156 C 6.72122,7.0563 6.97241,6.78997 7.28961,6.59375 7.60677,6.3975 7.95308,6.30078 8.32867,6.30078 Z m 2.06521,2.23828 c 2.8e-4,-0.0155 0.006,-0.0293 0.006,-0.0449 0,-0.0156 -0.006,-0.0294 -0.006,-0.0449 l 0,0.0898 z m 1.20855,5.58203 0,-0.0312 c -3e-5,0.005 -0.002,0.0102 -0.002,0.0156 0,0.005 0.002,0.0102 0.002,0.0156 z"
     />
</svg>
