<svg xmlns="http://www.w3.org/2000/svg" viewBox="0 0 22 22">
 <defs id="defs3051">
   <style type="text/css" id="current-color-scheme">
     .ColorScheme-Text {
       color:#f2f2f2;
     }
     </style>
 </defs>
   <path
      style="fill:currentColor;fill-opacity:1;stroke:none"
      d="m1.7421875 3v1.2109375h3.9042969l-4.0195313 4.6953125v1.152344h5.7050781v-1.2089846h-4.0761718l4.0195312-4.6972656v-1.1523438zm3.0800781 8.480469c-.7875044 0-1.4221581.181934-1.9023437.546875-.4801856.355337-.8015807.745405-.9648438 1.167968l1.2109375.517579c.1152446-.316923.3254937-.565577.6328125-.748047.3169225-.182471.6666328-.275391 1.0507813-.275391.5186004 0 .9571626.15964 1.3125.476563.3553373.307318.5332031.71968.5332031 1.238281v.201172c-.499393-.288112-1.138115-.431641-1.9160156-.431641-.8739378 0-1.609648.220339-2.2050781.66211-.5954302.432167-.8925782 1.032484-.8925782 1.800781 0 .710674.2486539 1.282676.7480469 1.714843.5089967.432168 1.1395823.648438 1.8886719.648438 1.0179934 0 1.7901552-.404226 2.3183594-1.210938h.0585937v.980469h1.2675781v-4.263672c0-.960371-.2991011-1.704217-.8945312-2.232421-.5954302-.528205-1.3433448-.792969-2.2460938-.792969zm5.8105464 1.49414c-.187761-.000678-.37579.070186-.519531.212891-.2875978.28541-.2894323.749511-.003906 1.037109l4.488281 4.521485c.142775.143741.329883.216118.517578.216797.187788.000679.375791-.070209.519532-.212891l4.521484-4.490234c.287738-.285526.289572-.74965.003906-1.03711-.285411-.287482-.751603-.289317-1.039062-.003906l-4 3.972656-3.970703-4c-.142764-.143741-.329817-.216118-.517579-.216797zm-5.6230464 2.294922c.7490896 0 1.3110021.153619 1.6855469.460938 0 .557015-.2263599 1.042118-.6777344 1.455078-.4417707.403356-.9369634.603515-1.484375.603515-.3841485 0-.7237693-.099103-1.0214843-.300781-.2977151-.201678-.4472657-.476532-.4472657-.822265 0-.374545.1637082-.700008.4902344-.978516s.8116294-.417969 1.4550781-.417969z"
      class="ColorScheme-Text" />
</svg> 
