<svg xmlns="http://www.w3.org/2000/svg" viewBox="0 0 22 22">
 <defs id="defs3051">
   <style type="text/css" id="current-color-scheme">
     .ColorScheme-Text {
       color:#f2f2f2;
     }
     </style>
 </defs>
   <path
      style="fill:currentColor;fill-opacity:1;stroke:none"
      d="m3.88867 3c-.49244 0-.88867.35758-.88867.80078v14.39844c0 .4432.39623.80078.88867.80078h14.22266c.49244 0 .88867-.35758.88867-.80078v-14.39844c0-.4432-.39623-.80078-.88867-.80078zm1.51367 2h .24219c.17783 0 .32212.14446.32227.32227v11.35546c0 .17781-.14432.32227-.32227.32227h-.24219c-.1778 0-.32226-.14432-.32226-.32227v-11.35546c0-.17781.14446-.32227.32226-.32227zm1.61133 0h .88477c.1778 0 .32224.14446.32226.32227v11.35546c0 .17781-.14446.32227-.32226.32227h-.88477c-.17797 0-.32226-.14432-.32226-.32227v-11.35546c0-.17781.14431-.32227.32226-.32227zm2.09375 0h .88672c.17795 0 .3221.14446.32227.32227v11.35546c0 .17781-.14432.32227-.32227.32227h-.88672c-.17797 0-.32226-.14432-.32226-.32227v-11.35546c0-.17781.14431-.32227.32226-.32227zm2.09375 0h .0801c.1778 0 .32227.14446.32227.32227v11.35546c0 .17781-.14444.32227-.32227.32227h-.0801c-.17795 0-.32227-.14432-.32227-.32227v-11.35546c.00001-.17781.14432-.32227.32227-.32227zm1.28906 0h2.81836c.17781 0 .32227.14446.32227.32227v11.35546c0 .17781-.14432.32227-.32227.32227h-2.81836c-.17777 0-.32226-.14432-.32226-.32227v-11.35546c0-.17781.14446-.32227.32226-.32227zm4.02735 0h .0801c.1778 0 .32226.14446.32226.32227v11.35546c0 .17781-.14444.32227-.32226.32227h-.0801c-.17795 0-.32227-.14432-.32227-.32227v-11.35546c0-.17781.14432-.32227.32227-.32227z"
      class="ColorScheme-Text" />
</svg> 
