<svg xmlns="http://www.w3.org/2000/svg" viewBox="0 0 22 22">
  <defs id="defs3051">
    <style type="text/css" id="current-color-scheme">
      .ColorScheme-Text {
        color:#f2f2f2
      }
      </style>
  </defs>
 <path 
     style="fill:currentColor;fill-opacity:1;stroke:none"      
	 class="ColorScheme-Text"
        d="M 3.88867,3 C 3.39623,3 3,3.35758 3,3.80078 L 3,18.19922 C 3,18.64242 3.39623,19 3.88867,19 l 14.22266,0 C 18.60377,19 19,18.64242 19,18.19922 L 19,3.80078 C 19,3.35758 18.60377,3 18.11133,3 L 3.88867,3 Z m 1.57227,2 4.61523,0 c 0.25495,0 0.46289,0.20599 0.46289,0.46094 l 0,4.61523 c 0,0.25495 -0.20794,0.46289 -0.46289,0.46289 l -4.61523,0 C 5.20599,10.53906 5,10.33112 5,10.07617 L 5,5.46094 C 5,5.20599 5.20599,5 5.46094,5 Z m 6.46289,0 4.61523,0 C 16.79401,5 17,5.20599 17,5.46094 l 0,4.61523 c 0,0.25495 -0.20599,0.46289 -0.46094,0.46289 l -4.61523,0 c -0.25495,0 -0.46289,-0.20794 -0.46289,-0.46289 l 0,-4.61523 C 11.46094,5.20599 11.66888,5 11.92383,5 Z m 0.46094,0.92383 0,3.6914 3.6914,0 0,-3.6914 -3.6914,0 z m -6.92383,5.53711 4.61523,0 c 0.25495,0 0.46289,0.20744 0.46289,0.46289 l 0,4.61523 C 10.53906,16.79401 10.33112,17 10.07617,17 L 5.46094,17 C 5.20599,17 5,16.79401 5,16.53906 l 0,-4.61523 c 0,-0.25495 0.20599,-0.46289 0.46094,-0.46289 z m 6.46289,0 4.61523,0 c 0.25495,0 0.46143,0.20598 0.46094,0.46094 l 0,4.61523 C 17,16.79206 16.79206,17 16.53711,17 l -2.30664,0 -2.30664,0 c -0.25495,0 -0.46289,-0.20794 -0.46289,-0.46289 l 0,-2.30664 0,-2.30664 c 0,-0.25495 0.20794,-0.46289 0.46289,-0.46289 z m -4.74414,0.92383 c 0.0794,0.1361 0.1289,0.29179 0.1289,0.46093 0,0.50991 -0.41392,0.92383 -0.92382,0.92383 -0.16915,0 -0.32484,-0.0495 -0.46094,-0.1289 l 0,1.17968 c 0.1361,-0.0794 0.29179,-0.1289 0.46094,-0.1289 0.5099,0 0.92382,0.41392 0.92382,0.92382 0,0.16915 -0.0495,0.32484 -0.1289,0.46094 l 1.17968,0 c -0.0794,-0.1361 -0.1289,-0.29179 -0.1289,-0.46094 0,-0.5099 0.41392,-0.92382 0.92383,-0.92382 0.16914,0 0.32483,0.0495 0.46093,0.1289 l 0,-1.17968 c -0.1361,0.0794 -0.29179,0.1289 -0.46093,0.1289 -0.50991,0 -0.92383,-0.41392 -0.92383,-0.92383 0,-0.16914 0.0495,-0.32483 0.1289,-0.46093 l -1.17968,0 z m 5.20508,0 0,0.73242 0.73242,-0.73242 -0.73242,0 z m 2.0371,0 -2.0371,2.03711 0,1.00195 3.03906,-3.03906 -1.00196,0 z m 1.6543,0.65234 -3.03906,3.03906 1.00195,0 2.03711,-2.03711 0,-1.00195 z M 7.76953,13.30664 A 0.92315277,0.92315277 0 0 1 8.69336,14.23047 0.92315277,0.92315277 0 0 1 7.76953,15.1543 0.92315277,0.92315277 0 0 1 6.8457,14.23047 0.92315277,0.92315277 0 0 1 7.76953,13.30664 Z m 8.30664,2.03711 -0.73242,0.73242 0.73242,0 0,-0.73242 z"
     />
</svg>
