<svg xmlns="http://www.w3.org/2000/svg" viewBox="0 0 22 22">
  <defs id="defs3051">
    <style type="text/css" id="current-color-scheme">
      .ColorScheme-Text {
        color:#f2f2f2
      }
      </style>
  </defs>
 <path 
     style="fill:currentColor;fill-opacity:1;stroke:none"      
	 class="ColorScheme-Text"
        d="m 11.19921,3.0025737 c -0.0168,-0.0109 -0.051,0.0125 -0.10351,0.0703 -0.26978,0.29666 -0.5752,0.68665 -0.72458,0.99801 -0.17102,0.34739 -0.18739,0.59523 -0.0879,0.96676 0.0254,0.0928 0.0517,0.16502 0.0859,0.23632 0.0602,0.12518 -0.005,0.22452 -0.15039,0.16796 -0.0724,-0.0281 -0.13929,-0.068 -0.1953,-0.11328 -0.12157,-0.0982 -0.16805,-0.0979 -0.13476,0.0547 0.12179,0.55848 0.63172,1.18088 1.20503,1.20307 0.0178,6.5e-4 0.0353,0.004 0.0527,0 0.54948,-0.11358 1.08283,-0.84671 0.97066,-1.49603 -0.10385,-0.60139 -0.54029,-0.85236 -0.79293,-1.29096 -0.10469,-0.18156 -0.15993,-0.42558 -0.12109,-0.66404 0.0126,-0.0771 0.0129,-0.12192 -0.004,-0.13281 z m -0.32421,3.88266 c -0.26043,0 -0.47263,0.2122 -0.47263,0.47264 l 0,0.95308 0,0.23437 0,0.23632 -6.97824,0 c -0.27711,0 -0.50193,0.16834 -0.50193,0.37498 l 0,1.4198703 c 0,0.0247 0.004,0.0489 0.01,0.0723 -0.006,0.0449 -0.01,0.0903 -0.01,0.13671 0,0.46314 0.29791,0.8597 0.72067,1.02535 0.13585,0.0532 0.28353,0.084 0.43944,0.084 0.41823,0 0.78381,-0.21265 0.98824,-0.52928 0.20449,0.3166 0.56998,0.52928 0.98824,0.52928 0.41823,0 0.78381,-0.21265 0.98824,-0.52928 0.2044,0.31663 0.57001,0.52928 0.98824,0.52928 0.41823,0 0.78385,-0.21265 0.98825,-0.52928 0.20439,0.3166 0.57001,0.52928 0.98824,0.52928 0.41823,0 0.78384,-0.21265 0.98824,-0.52928 0.20437,0.31663 0.57001,0.52928 0.98824,0.52928 0.41823,0 0.78384,-0.21265 0.98824,-0.52928 0.2044,0.31663 0.56998,0.52928 0.98824,0.52928 0.41827,0 0.78385,-0.21265 0.98825,-0.52928 0.2044,0.31663 0.56998,0.52928 0.98824,0.52928 0.41826,0 0.78384,-0.21265 0.98824,-0.52928 0.2044,0.31663 0.56998,0.52928 0.98824,0.52928 0.15594,0 0.30362,-0.0308 0.43944,-0.084 0.42276,-0.16565 0.72067,-0.56202 0.72067,-1.02535 0,-0.0464 -0.004,-0.0917 -0.01,-0.13671 0.006,-0.0234 0.01,-0.0475 0.01,-0.0723 l 0,-1.4198703 c 0,-0.20658 -0.22482,-0.37498 -0.50193,-0.37498 l -6.97824,0 0,-0.23632 0,-0.23437 0,-0.95308 c 0,-0.26044 -0.2122,-0.47264 -0.47264,-0.47264 l -0.24999,0 z M 5.07055,12.043234 c -0.2793,0.20655 -0.62377,0.32225 -0.98824,0.32225 -0.15271,0 -0.29919,-0.0205 -0.43944,-0.0586 l 0,1.49018 14.71426,0 0,-1.49018 c -0.14023,0.0381 -0.28689,0.0586 -0.43944,0.0586 -0.36447,0 -0.70894,-0.1157 -0.98824,-0.32225 -0.2794,0.20655 -0.6238,0.32225 -0.98824,0.32225 -0.36447,0 -0.70894,-0.1157 -0.98824,-0.32225 -0.2794,0.20655 -0.62374,0.32225 -0.98825,0.32225 -0.3645,0 -0.70893,-0.1157 -0.98824,-0.32225 -0.27939,0.20655 -0.62374,0.32225 -0.98824,0.32225 -0.3645,0 -0.70894,-0.1157 -0.98824,-0.32225 -0.2793,0.20655 -0.62377,0.32225 -0.98824,0.32225 -0.36447,0 -0.70885,-0.1157 -0.98824,-0.32225 -0.27931,0.20655 -0.62377,0.32225 -0.98825,0.32225 -0.36447,0 -0.70884,-0.1157 -0.98824,-0.32225 -0.27949,0.20655 -0.62377,0.32225 -0.98824,0.32225 -0.36447,0 -0.70885,-0.1157 -0.98824,-0.32225 z m -1.42768,2.22452 0,2.95691 c 0,0.0269 0.004,0.0524 0.008,0.0781 l 14.69863,0 c 0.004,-0.0257 0.008,-0.0512 0.008,-0.0781 l 0,-2.95691 -14.71425,0 z m -0.47264,3.50572 c -0.26043,0 -0.47068,0.26606 -0.47068,0.59372 l 0,0.0391 c 0,0.3277 0.21025,0.59373 0.47068,0.59373 l 15.65953,0 c 0.26044,0 0.47069,-0.26603 0.47069,-0.59373 l 0,-0.0391 c 0,-0.32758 -0.21025,-0.59373 -0.47069,-0.59373 l -15.65953,0 z"
     />
</svg>
