<?xml version="1.0" encoding="UTF-8" standalone="no"?>
<svg
   xmlns:dc="http://purl.org/dc/elements/1.1/"
   xmlns:cc="http://creativecommons.org/ns#"
   xmlns:rdf="http://www.w3.org/1999/02/22-rdf-syntax-ns#"
   xmlns:svg="http://www.w3.org/2000/svg"
   xmlns="http://www.w3.org/2000/svg"
   xmlns:sodipodi="http://sodipodi.sourceforge.net/DTD/sodipodi-0.dtd"
   xmlns:inkscape="http://www.inkscape.org/namespaces/inkscape"
   viewBox="0 0 22 22"
   id="svg3371"
   version="1.1"
   inkscape:version="0.91 r13725"
   sodipodi:docname="view-certificate-export-server.svg">
  <metadata
     id="metadata3379">
    <rdf:RDF>
      <cc:Work
         rdf:about="">
        <dc:format>image/svg+xml</dc:format>
        <dc:type
           rdf:resource="http://purl.org/dc/dcmitype/StillImage" />
      </cc:Work>
    </rdf:RDF>
  </metadata>
  <sodipodi:namedview
     pagecolor="#ffffff"
     bordercolor="#666666"
     borderopacity="1"
     objecttolerance="10"
     gridtolerance="10"
     guidetolerance="10"
     inkscape:pageopacity="0"
     inkscape:pageshadow="2"
     inkscape:window-width="640"
     inkscape:window-height="480"
     id="namedview3377"
     showgrid="false"
     inkscape:zoom="28.954545"
     inkscape:cx="4.8524333"
     inkscape:cy="11"
     inkscape:current-layer="svg3371" />
  <defs
     id="defs3051">
    <style
       type="text/css"
       id="current-color-scheme">
      .ColorScheme-Text {
        color:#f2f2f2
      }
      </style>
  </defs>
  <path
     style="color:#f2f2f2;fill:currentColor;fill-opacity:1;stroke:none"
     class="ColorScheme-Text"
     d="M 3.5674332,4.2 C 3.2526646,4.2 3,4.469424 3,4.80312 L 3,16.396872 C 3,16.730576 3.2526646,17 3.5674332,17 L 18.432574,17 C 18.747335,17 19,16.730576 19,16.396872 L 19,4.80312 C 19,4.469424 18.747335,4.2 18.432574,4.2 L 3.5674332,4.2 Z M 9.109068,7.759376 c 0.919502,0 1.662486,0.789248 1.662486,1.764056 0,0.974816 -0.742984,1.762504 -1.662486,1.762504 -0.2151984,0 -0.4119848,-0.04088 -0.5880642,-0.103128 l -0.8798777,0.932816 -0.5865927,0 0,0.621872 -0.586585,0 0,0.62188 -0.9786329,0 0,-1.035944 2.0545344,-2.17812 C 7.4851416,9.937904 7.4451022,9.73084 7.4451022,9.523432 c 0,-0.974808 0.7444712,-1.764056 1.6639658,-1.764056 z m 4.750182,0.20468 c 0.08913,-3.36e-4 0.179354,0.036 0.2476,0.107816 l 2.14591,2.257816 c 0.06822,0.07184 0.101374,0.166488 0.101698,0.260936 3.25e-4,0.09449 -0.03252,0.188608 -0.100219,0.260936 l -2.131172,2.275 c -0.13552,0.144784 -0.355826,0.145304 -0.492259,0.0016 -0.136448,-0.143616 -0.136938,-0.377232 -0.0015,-0.521872 l 1.885035,-2.012504 -1.898301,-1.99844 C 13.479574,8.451672 13.479084,8.218128 13.614502,8.073472 13.68227,8.001072 13.770034,7.96444 13.859161,7.964096 Z M 9.5969056,8.382808 c -0.3325848,0 -0.5865856,0.26928 -0.5865856,0.62188 0,0.352592 0.2540008,0.621872 0.5865856,0.621872 0.332592,0 0.5880644,-0.26928 0.5880644,-0.621872 0,-0.3526 -0.2554724,-0.62188 -0.5880644,-0.62188 z M 12.905677,9.6 l 0.272661,0 c 0.01147,0 0.0209,0.0032 0.0295,0.01096 0.0086,0.0072 0.01396,0.01688 0.01471,0.02816 l 0.03388,0.239064 c 0.04014,0.01392 0.07694,0.03024 0.110535,0.04848 L 13.540889,9.7876 c 0.0075,-0.008 0.01721,-0.01096 0.0295,-0.01096 0.01064,0 0.02113,0.004 0.03094,0.01248 0.105629,0.103304 0.173921,0.177584 0.203389,0.221872 0.006,0.0072 0.0075,0.016 0.0075,0.02816 0,0.0104 -0.0022,0.02016 -0.0088,0.02968 -0.0123,0.01824 -0.03388,0.0464 -0.06338,0.08594 -0.0295,0.03952 -0.05162,0.07048 -0.06633,0.09219 0.02128,0.04344 0.03781,0.08646 0.0501,0.12812 l 0.225499,0.03592 c 0.01064,0.0016 0.01849,0.0081 0.02506,0.0172 0.0068,0.0091 0.01034,0.0184 0.01034,0.02968 l 0,0.289064 c 0,0.0104 -0.0038,0.02016 -0.01034,0.02968 -0.0068,0.0095 -0.01374,0.01544 -0.02354,0.0172 l -0.226971,0.03592 c -0.01554,0.04688 -0.0323,0.08662 -0.04867,0.118752 0.02867,0.04344 0.07222,0.103296 0.131173,0.179688 0.0082,0.0104 0.01328,0.02152 0.01328,0.0328 0,0.01128 -0.0046,0.02104 -0.01177,0.02968 -0.02211,0.03208 -0.06188,0.07896 -0.120857,0.140624 -0.05894,0.0616 -0.09843,0.09218 -0.116436,0.09218 -0.0098,0 -0.01947,-0.0032 -0.03094,-0.01096 l -0.16947,-0.140624 c -0.03599,0.01992 -0.0735,0.03696 -0.112006,0.05 -0.01313,0.118064 -0.02475,0.198784 -0.03539,0.242192 -0.006,0.02432 -0.02045,0.03592 -0.04422,0.03592 l -0.272662,0 c -0.01147,0 -0.02234,-0.0032 -0.03094,-0.01096 -0.0086,-0.0072 -0.01245,-0.0168 -0.01328,-0.02816 l -0.03539,-0.239064 c -0.04014,-0.01392 -0.07695,-0.03016 -0.110534,-0.04848 L 12.543291,11.4124 c -0.0082,0.008 -0.01864,0.01096 -0.03094,0.01096 -0.01147,0 -0.02196,-0.0048 -0.03094,-0.01408 -0.103177,-0.09894 -0.16999,-0.171864 -0.201917,-0.218752 -0.006,-0.0087 -0.0088,-0.0184 -0.0088,-0.02968 0,-0.0104 0.0022,-0.02008 0.0088,-0.02968 0.0123,-0.01824 0.03388,-0.0464 0.06338,-0.08594 0.0295,-0.03952 0.05162,-0.07048 0.06633,-0.09219 -0.02211,-0.04336 -0.03863,-0.08716 -0.0501,-0.129688 l -0.2255,-0.0344 c -0.01064,-0.0016 -0.01849,-0.0081 -0.02506,-0.0172 -0.0068,-0.0091 -0.01034,-0.0184 -0.01034,-0.02968 l 0,-0.289056 c 0,-0.0104 0.0038,-0.02016 0.01034,-0.02968 0.0068,-0.0095 0.01457,-0.01544 0.02354,-0.0172 l 0.228449,-0.03752 c 0.01147,-0.03992 0.02671,-0.0788 0.04716,-0.118752 -0.03275,-0.04952 -0.07631,-0.109368 -0.131173,-0.179688 -0.0082,-0.0104 -0.01177,-0.0208 -0.01177,-0.03128 0,-0.0087 0.003,-0.0184 0.01034,-0.02968 0.02128,-0.03128 0.0615,-0.07856 0.12085,-0.140624 0.05938,-0.06208 0.09842,-0.092192 0.116435,-0.092192 0.01064,0 0.02181,0.004 0.03245,0.01248 l 0.169492,0.139064 c 0.03607,-0.01992 0.07206,-0.03696 0.110535,-0.05 0.01313,-0.118064 0.02618,-0.1988 0.03682,-0.242192 0.006,-0.02432 0.02045,-0.03592 0.04422,-0.03592 z"
     id="path3375"
     inkscape:connector-curvature="0" />
</svg>
