<svg xmlns="http://www.w3.org/2000/svg" viewBox="0 0 22 22">
 <defs id="defs3051">
   <style type="text/css" id="current-color-scheme">
     .ColorScheme-Text {
       color:#f2f2f2;
     }
     </style>
 </defs>
   <path
      style="fill:currentColor;fill-opacity:1;stroke:none"
      d="m4 3c-.55402 0-1 .44598-1 1v14c0 .55402.44598 1 1 1h14c .55402 0 1-.44598 1-1v-14c0-.55402-.44598-1-1-1zm1.93164 3h2.03516c.21895.00009.39467.12963.39453.28906l-.008 9.42383c-.00015.15943-.17754.2872-.39649.28711h-2.03516c-.21894-.00009-.39467-.12963-.39453-.28906l.008-9.42383c.00015-.15943.17754-.2872.39649-.28711zm4.13086 2.57617h2.03516c.21894.00007.39472.12768.39453.28711l-.008 6.82813c-.0002.15943-.17754.28912-.39649.28906l-2.03515-.002c-.21895-.00007-.39473-.12768-.39453-.28711l.008-6.82813c.00018-.15938.17752-.28712.39647-.28706zm3.98047 2.61328 2.03515.002c.21895.00005.39484.12768.39454.28711l-.008 4.23243c-.0003.15942-.17754.28715-.39649.2871h-2.03516c-.21894-.00004-.39483-.12963-.39453-.28906l.008-4.23047c.0003-.15943.17754-.2891.39649-.28906z"
      class="ColorScheme-Text" />
</svg> 
