<svg xmlns="http://www.w3.org/2000/svg" viewBox="0 0 22 22">
 <defs id="defs3051">
   <style type="text/css" id="current-color-scheme">
     .ColorScheme-Text {
       color:#f2f2f2;
     }
     </style>
 </defs>
   <path
      style="fill:currentColor;fill-opacity:1;stroke:none"
      d="m4 3c-.55402 0-1 .44598-1 1v14c0 .55402.44598 1 1 1h14c .55402 0 1-.44598 1-1v-14c0-.55402-.44598-1-1-1zm .875 4h10.58789c.32589 0 .58789.26201.58789.58789s-.262.58789-.58789.58789h-10.58789c-.32588 0-.58984-.26201-.58984-.58789s.26396-.58789.58984-.58789zm0 2.35352h8.23437c.32588 0 .5879.26201.5879.58789s-.26202.58789-.5879.58789h-8.23437c-.32588 0-.58984-.26201-.58984-.58789s.26396-.58789.58984-.58789zm12.15039.90625c.0792 0 .14577.0265.20117.082l.4043.40429c.0554.0555.084.12393.084.20313s-.0286.14567-.084.20117l-2.15039 2.15039-.4043.4043c-.0555.0554-.12392.084-.20312.084s-.14577-.0285-.20118-.084l-.40429-.4043-1.07422-1.07422c-.0555-.0554-.084-.12392-.084-.20312s.0285-.14568.084-.20117l.40234-.4043c.0555-.0555.12393-.084.20313-.084s.14567.0285.20117.084l.87305.87695 1.94922-1.95312c.0554-.0554.12392-.082.20312-.082zm-12.15039 1.44531h7.05859c.32588 0 .58789.26396.58789.58984s-.26201.58789-.58789.58789h-7.05859c-.32588 0-.58984-.26201-.58984-.58789s.26396-.58984.58984-.58984zm1.17578 2.11914h7.05859c.32588 0 .5879.26201.5879.58789s-.26202.58789-.5879.58789h-7.05859c-.32587 0-.58789-.26201-.58789-.58789s.26202-.58789.58789-.58789z"
      class="ColorScheme-Text" />
 <defs id="defs3051">
   <style type="text/css" id="current-color-scheme">
     .ColorScheme-Text {
       color:#f47750;
     }
     </style>
 </defs>
   <path
      style="fill:currentColor;fill-opacity:1;stroke:none"
      d="m4.87499 7c-.32588 0-.58984.26201-.58984.58789s.26396.58789.58984.58789h10.58789c.32588 0 .58789-.26201.58789-.58789s-.26201-.58789-.58789-.58789zm0 2.35351c-.32588 0-.58984.26201-.58984.58789s.26396.58789.58984.58789h8.23438c.32588 0 .58789-.26201.58789-.58789s-.26201-.58789-.58789-.58789zm12.15039.90625c-.0792 0-.14769.0266-.20312.082l-1.94922 1.95313-.87305-.87693c-.0555-.0555-.12197-.084-.20117-.084s-.14766.0285-.20312.084l-.40235.4043c-.0555.0555-.084.12194-.084.20117 0 .0792.0285.1477.084.20313l1.07422 1.07422.4043.40429c.0554.0555.12193.084.20117.084.0792 0 .14766-.0286.20312-.084l.4043-.40429 2.15039-2.15039c.0554-.0555.084-.12194.084-.20118.00004-.0792-.0286-.14766-.084-.20312l-.4043-.4043c-.0554-.0555-.12196-.082-.20117-.082zm-12.15039 1.44531c-.32588 0-.58984.26397-.58984.58985s.26396.58789.58984.58789h7.0586c.32588 0 .58789-.26201.58789-.58789s-.26201-.58985-.58789-.58985zm1.17578 2.11914c-.32588 0-.58789.26202-.58789.5879 0 .32587.26201.58789.58789.58789h7.0586c.32588 0 .58789-.26202.58789-.58789 0-.32588-.26201-.5879-.58789-.5879z"
      class="ColorScheme-Text" />
</svg> 
