<svg xmlns="http://www.w3.org/2000/svg" viewBox="0 0 22 22">
 <defs id="defs3051">
   <style type="text/css" id="current-color-scheme">
     .ColorScheme-Text {
       color:#f2f2f2;
     }
     </style>
 </defs>
   <path
      style="fill:currentColor;fill-opacity:1;stroke:none"
      d="m11 2.999975c-.43189 0-.78125.34936-.78125.78125v1.25195c0 .43154.34936.78125.78125.78125.43153 0 .78125-.34971.78125-.78125v-1.25195c0-.43189-.34936-.78125-.78125-.78125zm5.10352 2.11328c-.20014 0-.40021.0779-.55274.23047l-.88476.88477c-.30505.3054-.30505.80006 0 1.10546.30575.30541.80042.30541 1.10546 0l .88477-.88476c.3054-.30505.3054-.80007 0-1.10547-.1527-.15252-.3526-.23047-.55273-.23047zm-10.20704.002c-.20008 0-.40003.0758-.55273.22852-.3054.30505-.3054.80042 0 1.10547l.88477.88476c.3054.30576.80006.30576 1.10546 0 .30541-.3054.30541-.80006 0-1.10547l-.88476-.88476c-.1527-.1527-.35265-.22852-.55274-.22852zm5.10352 1.87696c-2.20974 0-4.00781 1.79807-4.00781 4.00781s1.79807 4.00781 4.00781 4.00781c2.20939 0 4.00781-1.79771 4.00781-4.00781s-1.79842-4.00781-4.00781-4.00781zm-7.21875 3.22656c-.43189 0-.78125.34936-.78125.78125s.34936.78125.78125.78125h1.25195c.43154 0 .78125-.34936.78125-.78125s-.34936-.78125-.78125-.78125zm13.18555 0c-.43189 0-.78125.34936-.78125.78125s.34936.78125.78125.78125h1.25195c.43189 0 .78125-.34936.78125-.78125s-.34936-.78125-.78125-.78125zm-10.18555 4.21875c-.20009 0-.40003.0756-.55273.22852l-.88477.88476c-.30505.30505-.3054.80042 0 1.10547s.80042.30505 1.10547 0l .88476-.88477c.30541-.30504.30541-.80077 0-1.10546-.1527-.15288-.35264-.22852-.55273-.22852zm8.4375 0c-.20013 0-.40003.076-.55273.22852-.30541.30504-.30541.80006 0 1.10546l.88476.88477c.3054.30505.80007.30505 1.10547 0s .3054-.80077 0-1.10547l-.88477-.88476c-.15252-.15253-.3526-.22852-.55273-.22852zm-4.21875 1.74805c-.43189 0-.78125.34936-.78125.78125v1.25c0 .43224.34936.7832.78125.7832s.78125-.35096.78125-.7832v-1.25c0-.43189-.34972-.78125-.78125-.78125z"
      class="ColorScheme-Text" />
</svg> 
