<svg xmlns="http://www.w3.org/2000/svg" viewBox="0 0 22 22">
  <defs id="defs3051">
    <style type="text/css" id="current-color-scheme">
      .ColorScheme-Text {
        color:#f2f2f2
      }
      </style>
  </defs>
 <path 
     style="fill:currentColor;fill-opacity:1;stroke:none"      
	 class="ColorScheme-Text"
        d="m 11,2.999975 c -0.43189,0 -0.78125,0.34936 -0.78125,0.78125 l 0,1.25195 c 0,0.43154 0.34936,0.78125 0.78125,0.78125 0.43153,0 0.78125,-0.34971 0.78125,-0.78125 l 0,-1.25195 c 0,-0.43189 -0.34936,-0.78125 -0.78125,-0.78125 z m 5.10352,2.11328 c -0.20014,0 -0.40021,0.0779 -0.55274,0.23047 l -0.88476,0.88477 c -0.30505,0.3054 -0.30505,0.80006 0,1.10546 0.30575,0.30541 0.80042,0.30541 1.10546,0 l 0.88477,-0.88476 c 0.3054,-0.30505 0.3054,-0.80007 0,-1.10547 -0.1527,-0.15252 -0.3526,-0.23047 -0.55273,-0.23047 z m -10.20704,0.002 c -0.20008,0 -0.40003,0.0758 -0.55273,0.22852 -0.3054,0.30505 -0.3054,0.80042 0,1.10547 l 0.88477,0.88476 c 0.3054,0.30576 0.80006,0.30576 1.10546,0 0.30541,-0.3054 0.30541,-0.80006 0,-1.10547 L 6.44922,5.343775 C 6.29652,5.191075 6.09657,5.115255 5.89648,5.115255 Z M 11,6.992215 c -2.20974,0 -4.00781,1.79807 -4.00781,4.00781 0,2.20974 1.79807,4.00781 4.00781,4.00781 2.20939,0 4.00781,-1.79771 4.00781,-4.00781 0,-2.2101 -1.79842,-4.00781 -4.00781,-4.00781 z m -7.21875,3.22656 C 3.34936,10.218775 3,10.568135 3,11.000025 c 0,0.43189 0.34936,0.78125 0.78125,0.78125 l 1.25195,0 c 0.43154,0 0.78125,-0.34936 0.78125,-0.78125 0,-0.43189 -0.34936,-0.78125 -0.78125,-0.78125 l -1.25195,0 z m 13.18555,0 c -0.43189,0 -0.78125,0.34936 -0.78125,0.78125 0,0.43189 0.34936,0.78125 0.78125,0.78125 l 1.25195,0 c 0.43189,0 0.78125,-0.34936 0.78125,-0.78125 0,-0.43189 -0.34936,-0.78125 -0.78125,-0.78125 l -1.25195,0 z m -10.18555,4.21875 c -0.20009,0 -0.40003,0.0756 -0.55273,0.22852 l -0.88477,0.88476 c -0.30505,0.30505 -0.3054,0.80042 0,1.10547 0.3054,0.30505 0.80042,0.30505 1.10547,0 l 0.88476,-0.88477 c 0.30541,-0.30504 0.30541,-0.80077 0,-1.10546 -0.1527,-0.15288 -0.35264,-0.22852 -0.55273,-0.22852 z m 8.4375,0 c -0.20013,0 -0.40003,0.076 -0.55273,0.22852 -0.30541,0.30504 -0.30541,0.80006 0,1.10546 l 0.88476,0.88477 c 0.3054,0.30505 0.80007,0.30505 1.10547,0 0.3054,-0.30505 0.3054,-0.80077 0,-1.10547 l -0.88477,-0.88476 c -0.15252,-0.15253 -0.3526,-0.22852 -0.55273,-0.22852 z M 11,16.185575 c -0.43189,0 -0.78125,0.34936 -0.78125,0.78125 l 0,1.25 c 0,0.43224 0.34936,0.7832 0.78125,0.7832 0.43189,0 0.78125,-0.35096 0.78125,-0.7832 l 0,-1.25 c 0,-0.43189 -0.34972,-0.78125 -0.78125,-0.78125 z"
     />
</svg>
