<?xml version="1.0" encoding="UTF-8" standalone="no"?>
<svg
   xmlns:dc="http://purl.org/dc/elements/1.1/"
   xmlns:cc="http://creativecommons.org/ns#"
   xmlns:rdf="http://www.w3.org/1999/02/22-rdf-syntax-ns#"
   xmlns:svg="http://www.w3.org/2000/svg"
   xmlns="http://www.w3.org/2000/svg"
   xmlns:sodipodi="http://sodipodi.sourceforge.net/DTD/sodipodi-0.dtd"
   xmlns:inkscape="http://www.inkscape.org/namespaces/inkscape"
   viewBox="0 0 22 22"
   id="svg3197"
   version="1.1"
   inkscape:version="0.91 r13725"
   sodipodi:docname="window-new.svg">
  <metadata
     id="metadata3205">
    <rdf:RDF>
      <cc:Work
         rdf:about="">
        <dc:format>image/svg+xml</dc:format>
        <dc:type
           rdf:resource="http://purl.org/dc/dcmitype/StillImage" />
      </cc:Work>
    </rdf:RDF>
  </metadata>
  <sodipodi:namedview
     pagecolor="#ffffff"
     bordercolor="#666666"
     borderopacity="1"
     objecttolerance="10"
     gridtolerance="10"
     guidetolerance="10"
     inkscape:pageopacity="0"
     inkscape:pageshadow="2"
     inkscape:window-width="640"
     inkscape:window-height="480"
     id="namedview3203"
     showgrid="false"
     inkscape:zoom="28.954545"
     inkscape:cx="4.8524333"
     inkscape:cy="11"
     inkscape:current-layer="svg3197" />
  <defs
     id="defs3051">
    <style
       type="text/css"
       id="current-color-scheme">
      .ColorScheme-Text {
        color:#f2f2f2
      }
      </style>
  </defs>
  <path
     style="color:#f2f2f2;fill:currentColor;fill-opacity:1;stroke:none"
     class="ColorScheme-Text"
     d="M 3.5674267,4.2 C 3.2526602,4.2 3,4.4694441 3,4.8031279 L 3,16.396878 C 3,16.730562 3.2526602,17 3.5674267,17 L 18.432574,17 C 18.747345,17 19,16.730562 19,16.396878 L 19,4.8031279 C 19,4.4694441 18.747345,4.2 18.432574,4.2 l -14.8651473,0 z m 6.7590303,3.2000016 1.347086,0 c -0.0022,0.6845454 0,2.4859404 0,2.4859404 l 2.184235,0 0,1.428121 -2.184235,0 c 0,0 10e-4,1.798344 0,2.485941 l -1.347086,0 c 0.001,-0.687597 0,-2.485941 0,-2.485941 0,0 -1.4610017,-0.001 -2.1842356,0 l 0,-1.426558 c 0.7232339,-0.0022 2.1842356,-0.0016 2.1842356,-0.0016 0,0 -10e-4,-1.801443 0,-2.485941 z"
     id="path3201"
     inkscape:connector-curvature="0" />
</svg>
