<svg xmlns="http://www.w3.org/2000/svg" viewBox="0 0 22 22">
 <defs id="defs3051">
   <style type="text/css" id="current-color-scheme">
     .ColorScheme-Text {
       color:#f2f2f2;
     }
     </style>
 </defs>
   <path
      style="fill:currentColor;fill-opacity:1;stroke:none"
      d="m12.208984 5.6074219c-.066029.0267957-.118767.0788856-.146484.1445312l-4.2226562 9.9882809c-.0578143.136666.0058356.293749.1425781.351563l.7089843.298828c.0333987.014204.0678904.021484.1035157.021484.03432 0 .0691619-.006402.1015625-.019531.0660295-.026796.1186905-.078886.1464844-.144531l4.2226562-9.9882814c.057737-.1366657-.005912-.2937483-.142578-.3515625l-.707031-.2988281c-.065569-.0277938-.140925-.028672-.207032-.0019531zm-4.896484 1.8476562c-.0680545-.009818-.1397922.0062881-.1992188.0507813l-4.0058593 2.9960936c-.0677954.050674-.1074219.13008-.1074219.214844 0 .084763.0396265.16417.1074219.214844l4.0058593 2.99414c.048217.036163.1041848.054688.1601563.054688.0818459 0 .1620969-.036863.2148437-.107422l.4609376-.615235c.0426888-.057199.060916-.128659.0507812-.199218-.0102115-.07056-.0484223-.135046-.1054688-.177735l-2.8945312-2.164062 2.8945312-2.1640626c.0570465-.0426889.0952573-.107175.1054688-.1777344.0101348-.0705594-.0080156-.1420188-.0507812-.1992188l-.4609376-.6152343c-.0444931-.0594266-.1077267-.0956507-.1757812-.1054688zm6.482422 0c-.068045.0098181-.13328.0460806-.177734.1054688l-.458985.6152343c-.042689.0571233-.060916.1286594-.050781.1992188.010211.0704827.048345.1350455.105469.1777344l2.894531 2.1640626-2.894531 2.164062c-.057124.042689-.095258.107252-.105469.177735-.010135.070559.008015.142095.050781.199218l.458985.615235c.052823.070559.13495.107422.216796.107422.055972 0 .111863-.018602.160157-.054688l4.003906-2.99414c.067795-.050674.107422-.130081.107422-.214844 0-.084764-.039627-.16417-.107422-.214844l-4.003906-2.9960936c-.059427-.0444548-.131174-.0605993-.199219-.0507813z"
      class="ColorScheme-Text" />
 <defs id="defs3051">
   <style type="text/css" id="current-color-scheme">
     .ColorScheme-Text {
       color:#da4453;
     }
     </style>
 </defs>
   <path
      style="fill:currentColor;fill-opacity:1;stroke:none"
      d="m17.308594 13.021484c-.30684 0-.590504.075333-.84961.226563-.259132.151203-.464004.356102-.615234.615234-.151257.259133-.226563.542797-.226562.84961 0 .306839.075359.588496.226562.847656.15123.259078.356102.464004.615234.615234.259133.151231.54277.226563.84961.226563.306839 0 .590504-.075332.849609-.226563.259105-.151203.464004-.356129.615235-.615234.151203-.259132.226562-.540844.226562-.847656 0-.30684-.075386-.590504-.226562-.84961-.151231-.259105-.35613-.464004-.615235-.615234-.259159-.15123-.542743-.226563-.849609-.226563zm-.498047.851563c.038166 0 .071715.013121.099609.041015l.398438.398438.398437-.398438c.027841-.027894.061444-.041015.09961-.041015.039652 0 .073668.013121.101562.041015l.197266.199219c.027894.027895.042968.06191.042969.101563 0 .038165-.015075.069789-.042969.097656l-.398438.400391.398438.398437c.027894.027868.042968.059491.042969.097656 0 .039626-.015075.073695-.042969.101563l-.197266.199219c-.027894.027894-.06191.041015-.101562.041015-.038166 0-.071769-.013121-.09961-.041015l-.398437-.398438-.398438.398438c-.027894.027894-.061443.041015-.099609.041015-.039652 0-.073668-.013121-.101563-.041015l-.197265-.199219c-.027895-.027868-.042969-.061937-.042969-.101563 0-.038165.015074-.069788.042969-.097656l.398437-.398437-.398437-.400391c-.027895-.027867-.042969-.059491-.042969-.097656 0-.039653.015074-.073668.042969-.101563l.197265-.199219c.027895-.027894.061911-.041015.101563-.041015z"
      class="ColorScheme-Text" />
</svg> 
