<?xml version="1.0" encoding="UTF-8" standalone="no"?>
<!-- Created with Inkscape (http://www.inkscape.org/) -->

<svg
   xmlns:dc="http://purl.org/dc/elements/1.1/"
   xmlns:cc="http://creativecommons.org/ns#"
   xmlns:rdf="http://www.w3.org/1999/02/22-rdf-syntax-ns#"
   xmlns:svg="http://www.w3.org/2000/svg"
   xmlns="http://www.w3.org/2000/svg"
   xmlns:sodipodi="http://sodipodi.sourceforge.net/DTD/sodipodi-0.dtd"
   xmlns:inkscape="http://www.inkscape.org/namespaces/inkscape"
   width="22"
   height="22"
   id="svg4355"
   version="1.1"
   inkscape:version="0.91 r13725"
   sodipodi:docname="xy-fit-curve.svg">
  <defs
     id="defs4357" />
  <sodipodi:namedview
     id="base"
     pagecolor="#ffffff"
     bordercolor="#666666"
     borderopacity="1.0"
     inkscape:pageopacity="0.0"
     inkscape:pageshadow="2"
     inkscape:zoom="12.484524"
     inkscape:cx="-19.329697"
     inkscape:cy="9.7839943"
     inkscape:document-units="px"
     inkscape:current-layer="g3845"
     showgrid="true"
     width="0px"
     height="0px"
     fit-margin-top="0"
     fit-margin-left="0"
     fit-margin-right="0"
     fit-margin-bottom="0"
     inkscape:window-width="1366"
     inkscape:window-height="630"
     inkscape:window-x="0"
     inkscape:window-y="36"
     inkscape:window-maximized="1"
     inkscape:showpageshadow="false"
     inkscape:snap-bbox="true"
     inkscape:snap-global="true">
    <inkscape:grid
       type="xygrid"
       id="grid4114" />
    <sodipodi:guide
       position="2.0000011,19.999996"
       orientation="18,0"
       id="guide4120" />
    <sodipodi:guide
       position="2.0000011,1.9999962"
       orientation="0,18"
       id="guide4122" />
    <sodipodi:guide
       position="20.000001,1.9999962"
       orientation="-18,0"
       id="guide4124" />
    <sodipodi:guide
       position="20.000001,19.999996"
       orientation="0,-18"
       id="guide4126" />
    <sodipodi:guide
       position="3.0000011,18.999996"
       orientation="16,0"
       id="guide4128" />
    <sodipodi:guide
       position="3.0000011,2.9999962"
       orientation="0,16"
       id="guide4130" />
    <sodipodi:guide
       position="19.000001,2.9999962"
       orientation="-16,0"
       id="guide4132" />
    <sodipodi:guide
       position="19.000001,18.999996"
       orientation="0,-16"
       id="guide4134" />
  </sodipodi:namedview>
  <metadata
     id="metadata4360">
    <rdf:RDF>
      <cc:Work
         rdf:about="">
        <dc:format>image/svg+xml</dc:format>
        <dc:type
           rdf:resource="http://purl.org/dc/dcmitype/StillImage" />
        <dc:title />
      </cc:Work>
    </rdf:RDF>
  </metadata>
  <g
     inkscape:label="Capa 1"
     inkscape:groupmode="layer"
     id="layer1"
     transform="translate(-544.57141,-742.93359)">
    <g
       id="g3845"
       transform="translate(0,-0.53516)">
      <path
         style="color:#000000;font-style:normal;font-variant:normal;font-weight:normal;font-stretch:normal;font-size:medium;line-height:normal;font-family:Sans;-inkscape-font-specification:Sans;text-indent:0;text-align:start;text-decoration:none;text-decoration-line:none;letter-spacing:normal;word-spacing:normal;text-transform:none;direction:ltr;block-progression:tb;writing-mode:lr-tb;baseline-shift:baseline;text-anchor:start;display:inline;overflow:visible;visibility:visible;fill:#f2f2f2;fill-opacity:1;fill-rule:nonzero;stroke:none;stroke-width:0.41041371;marker:none;enable-background:accumulate"
         d="m 561.09484,748.46875 c -0.8178,0 -1.52536,0.72322 -1.52344,1.52345 -0.002,0.80023 0.70564,1.47655 1.52344,1.47655 0.81779,0 1.47848,-0.67632 1.47656,-1.47655 0.002,-0.80022 -0.65877,-1.52345 -1.47656,-1.52345 z m -7,1 c -0.81779,0 -1.52536,0.72321 -1.52344,1.52345 -0.002,0.80022 0.70565,1.47655 1.52344,1.47655 0.8178,0 1.47848,-0.67634 1.47656,-1.47655 0.002,-0.80024 -0.65876,-1.52345 -1.47656,-1.52345 z m -5,4 c -0.81779,0 -1.52535,0.72322 -1.52343,1.52345 -0.002,0.80022 0.70564,1.47655 1.52343,1.47655 0.64749,0 1.1911,-0.42614 1.39063,-1 l 13.08593,0 0,-1 -13.0996,0 c -0.21059,-0.56611 -0.7445,-1 -1.37696,-1 z m 13,3 c -0.8178,0 -1.52536,0.72322 -1.52344,1.52344 -0.002,0.80022 0.70564,1.47656 1.52344,1.47656 0.81779,0 1.47848,-0.67635 1.47656,-1.47656 0.002,-0.80022 -0.65877,-1.52344 -1.47656,-1.52344 z m -5.50001,1 c -0.81779,0 -1.52535,0.72322 -1.52343,1.52344 -0.002,0.80023 0.70564,1.47656 1.52343,1.47656 0.8178,0 1.47849,-0.67633 1.47657,-1.47656 0.002,-0.80022 -0.65877,-1.52344 -1.47657,-1.52344 z"
         id="path5273-9-0"
         inkscape:connector-curvature="0" />
    </g>
  </g>
</svg>
