<svg xmlns="http://www.w3.org/2000/svg" viewBox="0 0 22 22">
 <defs id="defs3051">
   <style type="text/css" id="current-color-scheme">
     .ColorScheme-Text {
       color:#f2f2f2;
     }
     </style>
 </defs>
   <path
      style="fill:currentColor;fill-opacity:1;stroke:none"
      d="m11.01867 3.00005c-.10786.00039-.2171.0428-.29869.125l-1.68275 1.69727c-.0817.0823-.12338.1903-.12299.29882.00039.10853.0428.21719.12494.29883.16439.16325.43414.16231.59736-.002l1.38602-1.39649 1.3958 1.38672c.16438.16329.43416.16237.59737-.002.16328-.16445.1623-.43439-.002-.59766l-1.69642-1.68554c-.0822-.0816-.19075-.12344-.29868-.12305zm-4.27718.10742-3.18593.01c-.10129.00033-.19346.0427-.25963.10937-.0662.0666-.10767.15839-.10737.25977l.0117 3.1875c.00065.20279.16437.36592.36701.36523.20261-.00064.36762-.16443.36701-.36718l-.01-2.82032 2.81891-.01c.2026-.00064.36766-.16643.36701-.36914-.00055-.20278-.16622-.36594-.36895-.36524zm8.54654 0c-.20273-.0007-.36841.16246-.36896.36524-.00064.20271.16246.3685.36506.36914l2.82087.01-.01 2.82032c-.00061.20275.16244.36654.36505.36718.20264.00069.36831-.16244.36896-.36523l.01-3.1875c.0003-.10138-.0412-.19315-.10736-.25977-.0662-.0667-.15641-.10904-.2577-.10937zm-7.72468 3.94922c-.26128 0-.47243.2093-.47243.4707v6.92188c0 .2614.21115.4707.47243.4707h6.91649c.26127 0 .47243-.2093.47243-.4707v-6.92188c0-.2614-.21116-.4707-.47243-.4707zm-4.0234 7.86328c-.20264-.00069-.36831.1644-.36896.36719l-.01 3.1875c-.0003.10138.0393.19314.10542.25977.0662.0667.15834.10709.25963.10742l3.18592.01c.20273.0007.36841-.16245.36896-.36523.00065-.20271-.16245-.36655-.36505-.36719l-2.82087-.01.01-2.82032c.00061-.20275-.16244-.3685-.36505-.36914zm14.89301 0c-.20261.00064-.36761.16639-.367.36914l.01 2.82032-2.81892.01c-.2026.00064-.36765.16448-.367.36719.00055.20278.16623.36789.36896.36719l3.18592-.0117c.10129-.00033.19346-.0407.25963-.10742.0662-.0666.10767-.15839.10737-.25977l-.0117-3.1875c-.00065-.20279-.16436-.36788-.367-.36719zm-9.0951 1.53906c-.10845-.00037-.21649.0395-.29868.1211-.0822.0816-.12455.1903-.12494.29883-.00039.10852.0413.21662.12299.29882l1.68275 1.69727c.0816.0821.19083.12461.29869.125.10793.00039.21652-.0415.29868-.12305l1.69642-1.68554c.16426-.16327.16524-.43321.002-.59766-.16321-.16432-.43299-.16524-.59737-.002l-1.3958 1.38672-1.38602-1.39649c-.0816-.0821-.19023-.12267-.29868-.12305z"
      class="ColorScheme-Text" />
</svg> 
