<svg xmlns="http://www.w3.org/2000/svg" viewBox="0 0 22 22">
 <defs id="defs3051">
   <style type="text/css" id="current-color-scheme">
     .ColorScheme-Text {
       color:#f2f2f2;
     }
     </style>
 </defs>
   <path
      style="fill:currentColor;fill-opacity:1;stroke:none"
      d="m3 7.531251.0137-4.06445c.00042-.1292.052-.24558.13672-.33008.0847-.0844.20117-.1371.33008-.13672l4.05469.0137c.25786.00082.46572.21029.46484.46875-.00082.25842-.21094.46757-.46875.4668l-3.58593-.0117-.0117 3.59571c-.00081.25841-.211.46762-.46875.46679-.25787-.0007-.46574-.21017-.46485-.46875zm0 6.41406h2.85742l2.14258-7.94531 2.14258 7.94531h2.85742l-5 5.05469zm10-10.3457c0-.3324.26721-.59961.59961-.59961h4.80078c.3324 0 .59961.26721.59961.59961v4.80078c0 .3324-.26721.59961-.59961.59961h-4.80078c-.3324 0-.59961-.26721-.59961-.59961zm1 14.91797c.00082-.25842.21095-.46757.46875-.4668l3.58594.0117.0117-3.5957c.00081-.25841.211-.46763.46875-.4668.25787.00069.46573.21017.46484.46875l-.0137 4.06446c-.00043.12919-.052.24557-.13672.33007-.0847.0843-.20117.1371-.33008.13672l-4.05469-.0137c-.25786-.00083-.46573-.21029-.46485-.46875z"
      class="ColorScheme-Text" />
</svg> 
