<svg xmlns="http://www.w3.org/2000/svg" viewBox="0 0 22 22">
 <defs id="defs3051">
   <style type="text/css" id="current-color-scheme">
     .ColorScheme-Text {
       color:#f2f2f2;
     }
     </style>
 </defs>
   <path
      style="fill:currentColor;fill-opacity:1;stroke:none"
      d="m7.53125 3-4.0644531.0136719c-.12919.00043-.2455782.0519987-.3300781.1367187-.0843.0847-.1370988.2011682-.1367188.3300782l.0136719 4.0546874c.00083.2578601.21029.4657238.46875.4648438.25842-.00082.4675668-.21095.4667969-.46875l-.0117188-3.5859375 3.5957031-.0117187c.25841-.0008101.4676269-.2110001.4667969-.46875-.00069-.2578701-.21017-.4657338-.46875-.4648438zm6.068359 0c-.3324 0-.599609.2672094-.599609.5996094v4.8007812c0 .3324.267209.5996094.599609.5996094h4.800782c.3324 0 .599609-.2672094.599609-.5996094v-4.8007812c0-.3324-.267209-.5996094-.599609-.5996094zm-5.5449215 6-5.0546875 5 5.0546875 5v-2.857422l7.9453125-2.142578-7.9453125-2.142578zm10.4628905 5c-.25842.00082-.467567.21094-.466797.46875l.011719 3.585938-3.595703.011718c-.25841.00081-.467627.211-.466797.46875.0007.25787.21017.465734.46875.464844l4.064453-.013672c.1292-.00042.245578-.051999.330078-.136719.0844-.0847.137099-.201168.136719-.330078l-.013672-4.054687c-.00082-.25786-.21029-.465724-.46875-.464844z"
      class="ColorScheme-Text" />
</svg> 
