<svg xmlns="http://www.w3.org/2000/svg" viewBox="0 0 22 22">
  <defs id="defs3051">
    <style type="text/css" id="current-color-scheme">
      .ColorScheme-Text {
        color:#f2f2f2
      }
      </style>
  </defs>
    <path
       style="fill:currentColor;fill-opacity:1;stroke:none"
       class="ColorScheme-Text"
       d="m 15.375,3 3.251953,0.00977 c 0.10335,3.3e-4 0.196172,0.043528 0.263672,0.1113282 C 18.958215,3.1888637 19.0003,3.2816256 19,3.3847656 l -0.0098,3.2421875 C 18.989574,6.8332531 18.820031,7.0007 18.613281,7 18.406551,6.99934 18.239614,6.83125 18.240234,6.625 L 18.25,3.7558594 15.373047,3.7460938 C 15.166347,3.7454436 14.99935,3.5792669 15,3.3730469 15.00057,3.1667569 15.16814,2.99929 15.375,3 Z M 6.625,3 C 6.83186,2.99929 6.99944,3.1667569 7,3.3730469 7.00065,3.5792669 6.833663,3.7454437 6.626953,3.7460938 L 3.75,3.7558594 3.759766,6.625 C 3.760376,6.83125 3.593439,6.99934 3.386719,7 3.179959,7.0007 3.010426,6.8332531 3.009766,6.6269531 L 3,3.3847656 c -3e-4,-0.10314 0.041785,-0.1959019 0.109375,-0.2636718 0.0675,-0.0678 0.160322,-0.1109982 0.263672,-0.1113282 L 6.625,3 Z m 2.542969,3.75 c 0.171013,-1.414e-4 0.342133,0.063843 0.472656,0.1914062 l 3.662109,3.5781248 c 0.13093,0.12804 0.196646,0.296234 0.197266,0.464844 6.2e-4,0.16872 -0.06532,0.337877 -0.195312,0.466797 l -3.634766,3.605469 c -0.26011,0.25766 -0.685356,0.258133 -0.947266,0.002 -0.26151,-0.25599 -0.261993,-0.673821 -0.00195,-0.931641 L 11.882812,10.990234 8.697266,7.8769531 C 8.435746,7.6208731 8.433319,7.2031625 8.693359,6.9453125 8.822894,6.8168442 8.995009,6.7510862 9.166016,6.75 l 0.00195,0 z M 18.613281,15 c 0.20675,-7e-4 0.376293,0.166757 0.376953,0.373047 L 19,18.615234 c 3e-4,0.10313 -0.04179,0.195892 -0.109375,0.263672 -0.0675,0.0678 -0.160322,0.110998 -0.263672,0.111328 L 15.375,19 c -0.20686,7.1e-4 -0.37443,-0.166747 -0.375,-0.373047 -6.5e-4,-0.20621 0.166347,-0.372397 0.373047,-0.373047 L 18.25,18.244141 18.240234,15.375 C 18.239614,15.16876 18.406551,15.00067 18.613281,15 Z M 3.386719,15 c 0.20672,6.7e-4 0.373657,0.16876 0.373047,0.375 L 3.75,18.244141 l 2.876953,0.0098 C 6.833663,18.254556 7.00065,18.420743 7,18.626953 6.99944,18.833253 6.83186,19.00071 6.625,19 l -3.251953,-0.0098 C 3.269697,18.989904 3.176875,18.946706 3.109375,18.878906 3.041785,18.811126 2.9997,18.718364 3,18.615234 l 0.00977,-3.242187 C 3.010426,15.166757 3.179959,14.9993 3.386719,15 Z"
        />
</svg>
