<svg height="64" viewBox="0 0 64 64" width="64" xmlns="http://www.w3.org/2000/svg" xmlns:xlink="http://www.w3.org/1999/xlink"><linearGradient id="a" gradientTransform="matrix(1.0749904 0 0 1.0292896 56.688954 -.015285)" gradientUnits="userSpaceOnUse" x1="-74.929466" x2="-75.259552" y1="52.199436" y2="2.356489"><stop offset="0" stop-color="#d1d7df"/><stop offset="1" stop-color="#e0e5e7"/></linearGradient><g transform="translate(56.391766 -.176777)"><rect fill="url(#a)" height="52.831711" ry="2.5" width="44" x="-46.391766" y="1.645775"/><path d="m10 51.087891v5.71289 2.199219.5c0 1.385 1.115 2.5 2.5 2.5h39c1.385 0 2.5-1.115 2.5-2.5v-.5-2.199219-5.71289z" fill="#3d434a" transform="translate(-56.391766 .176777)"/><path d="m-24.402382 17.061631c-1.399579 0-2.532756 1.136923-2.532756 2.538202 0 1.401267 1.133177 2.53548 2.532756 2.53548s2.535479-1.134213 2.535479-2.53548c0-1.401279-1.1359-2.538202-2.535479-2.538202zm0 7.249673c-1.399579 0-2.532756 1.136924-2.532756 2.538203 0 1.401267 1.133177 2.535479 2.532756 2.535479s2.535479-1.134212 2.535479-2.535479c0-1.401279-1.1359-2.538203-2.535479-2.538203zm7.170695 3.864496c-.393846 0-.788876.150885-1.089357.452085l-6.070445 6.710442-6.073167-6.710442c-.300475-.3012-.693116-.449361-1.086634-.449361-.39352 0-.786152.148161-1.086635.449361-.600962.602412-.600962 1.579025 0 2.181438l7.06176 7.805246c.325113.325517.758931.470739 1.184676.443914.424992.02691.856869-.118544 1.181954-.443914l7.064483-7.805246c.600223-.602413.600223-1.579026 0-2.181438-.300126-.3012-.692788-.452085-1.086635-.452085z" fill="#3d434a"/><g fill="#fff"><path d="m-41.362469 57.533222q0-.972656.460938-1.5625.460937-.59375 1.207031-.59375.742188 0 1.175781.507813v-2.203125h.722657v6h-.664063l-.03516-.453125q-.433594.53125-1.207031.53125-.734375 0-1.199219-.601563-.460938-.601562-.460938-1.570312zm.722657.08203q0 .71875.296875 1.125.296875.40625.820312.40625.6875 0 1.003906-.617187v-1.941405q-.324218-.597657-.996093-.597657-.53125 0-.828125.410157-.296875.410156-.296875 1.214843z"/><path d="m-36.862469 57.529316q0-.621094.242188-1.117188.246094-.496093.679687-.765625.4375-.269531.996094-.269531.863281 0 1.394531.597656.535157.597657.535157 1.589844v.05078q0 .617188-.238282 1.109375-.234375.488282-.675781.761719-.4375.273438-1.007812.273438-.859375 0-1.394532-.597657-.53125-.597656-.53125-1.582031zm.726563.08594q0 .703125.324219 1.128907.328125.425781.875.425781.550781 0 .875-.429688.324218-.433593.324218-1.210937 0-.695313-.332031-1.125-.328125-.433594-.875-.433594-.535156 0-.863281.425781-.328125.425782-.328125 1.21875z"/><path d="m-28.366375 58.685566.8125-3.230469h.722656l-1.230468 4.226563h-.585938l-1.027344-3.203125-1 3.203125h-.585937l-1.226563-4.226563h.71875l.832032 3.164063.984375-3.164063h.582031z"/><path d="m-25.409344 55.455097.02344.53125q.484375-.609375 1.265625-.609375 1.339844 0 1.351562 1.511719v2.792969h-.722656v-2.796875q-.0039-.457032-.210937-.675782-.203125-.21875-.636719-.21875-.351563 0-.617188.1875-.265625.1875-.414062.492188v3.011719h-.722656v-4.226563z"/><path d="m-20.885906 59.68166h-.722656v-6h .722656z"/><path d="m-19.924969 57.529316q0-.621094.242188-1.117188.246094-.496093.679687-.765625.4375-.269531.996094-.269531.863281 0 1.394531.597656.535157.597657.535157 1.589844v.05078q0 .617188-.238282 1.109375-.234375.488282-.675781.761719-.4375.273438-1.007812.273438-.859375 0-1.394532-.597657-.53125-.597656-.53125-1.582031zm.726563.08594q0 .703125.324219 1.128907.328125.425781.875.425781.550781 0 .875-.429688.324218-.433593.324218-1.210937 0-.695313-.332031-1.125-.328125-.433594-.875-.433594-.535156 0-.863281.425781-.328125.425782-.328125 1.21875z"/><path d="m-12.561687 59.68166q-.0625-.125-.101563-.445313-.503906.523438-1.203125.523438-.625 0-1.027344-.351563-.398437-.355469-.398437-.898437 0-.660157.5-1.023438.503906-.367187 1.414062-.367187h.703125v-.332032q0-.378906-.226562-.601562-.226563-.226563-.667969-.226563-.386719 0-.648437.195313-.261719.195312-.261719.472656h-.726563q0-.316406.222657-.609375.226562-.296875.609375-.46875.386718-.171875.847656-.171875.730469 0 1.144531.367188.414063.363281.429688 1.003906v1.945312q0 .582032.148437.925782v.0625zm-1.199219-.550782q.339844 0 .644531-.175781.304688-.175781.441406-.457031v-.867188h-.566406q-1.328125 0-1.328125.777344 0 .339844.226563.53125.226562.191406.582031.191406z"/><path d="m-10.987469 57.533222q0-.972656.460938-1.5625.460937-.59375 1.207031-.59375.7421875 0 1.1757813.507813v-2.203125h.7226562v6h-.6640625l-.035156-.453125q-.4335938.53125-1.2070313.53125-.7343745 0-1.1992185-.601563-.460938-.601562-.460938-1.570312zm.722657.08203q0 .71875.2968745 1.125.296875.40625.8203125.40625.6875 0 1.0039063-.617187v-1.941405q-.3242188-.597657-.9960938-.597657-.53125 0-.828125.410157-.2968745.410156-.2968745 1.214843z"/></g></g></svg>