<svg height="64" viewBox="0 0 64 64" width="64" xmlns="http://www.w3.org/2000/svg" xmlns:xlink="http://www.w3.org/1999/xlink"><linearGradient id="a" gradientTransform="matrix(1.0749904 0 0 1.0292896 56.688954 -.015285)" gradientUnits="userSpaceOnUse" x1="-74.929466" x2="-75.259552" y1="52.199436" y2="2.356489"><stop offset="0" stop-color="#aa49ee"/><stop offset="1" stop-color="#f461d4"/></linearGradient><g transform="translate(56.391766 -.176777)"><rect fill="#4d2167" height="7.69929" ry="2.5" width="44" x="-46.391766" y="54.477486"/><rect fill="url(#a)" height="52.831711" ry="2.5" width="44" x="-46.391766" y="1.645775"/><path d="m-46.391766 51.264462h44v7.911841h-44z" fill="#4d2167"/><g fill="#fff" transform="matrix(.81954967 0 0 .81954967 -3.634288 11.121832)"><g fill="#fff"><path d="m-33.303035 52.256553v4.41l2.12-2.15h1.18v.04l-1.91 1.91 2 2.91v.04h-1.11l-1.54-2.31-.74.74v1.57h-.92v-7.16z"/><path d="m-28.478817 59.416553h-.92v-4.9h.88v.8h.04q.14-.4.57-.66.44-.26.85-.26.41 0 .69.12l-.35.86q-.18-.07-.49-.07-.5 0-.89.4-.38.39-.38 1.03z"/><path d="m-24.766004 53.286553q-.19.19-.46.19-.27 0-.46-.19-.19-.19-.19-.46 0-.27.19-.46.19-.19.46-.19.27 0 .46.19.19.19.19.46 0 .27-.19.46zm0 6.13h-.92v-4.9h.92z"/><path d="m-21.497567 59.496553q-.77 0-1.18-.41-.4-.41-.4-1.16v-2.57h-.86v-.84h.86v-1.5h.92v1.5h1.2v.84h-1.2v2.5q0 .8.66.8.25 0 .42-.08l.32.79q-.3.13-.74.13z"/><path d="m-18.630067 59.576553q-.78 0-1.31-.45-.52-.45-.52-1.19 0-.8.62-1.25.62-.46 1.53-.46.81 0 1.33.3v-.14q0-.54-.37-.86-.37-.33-.91-.33-.4 0-.73.19-.32.19-.44.52l-.84-.36q.17-.44.67-.81.5-.38 1.32-.38.94 0 1.56.55.62.55.62 1.55v2.96h-.88v-.68h-.04q-.55.84-1.61.84zm.15-.84q.57 0 1.03-.42.47-.43.47-1.01-.39-.32-1.17-.32-.67 0-1.01.29-.34.29-.34.68 0 .36.31.57.31.21.71.21z"/></g><g fill="#4d2167" opacity=".846" transform="matrix(.064766610492 0 0 .064766610492 -39.788548245816 5.648553995196)"><path d="m296.003 284.517-52.542-30.805c-2.865.345-5.734.913-8.59 1.73-13.717 3.937-33.557 15.227-50.186 46.668-13.202 24.961-8.33 46.331-4.031 65.187 4.108 18.023 7.354 32.259-4.718 46.5-1.187 1.399-1.511 3.336-.845 5.047.419 1.076 1.188 1.952 2.15 2.512.571.33 1.21.551 1.885.637 30.535 3.836 76.235-14.17 104.421-62.771 12.802-22.074 18.3-43.299 15.902-61.38-.624-4.717-1.796-9.17-3.446-13.325z"/><path d="m418.939 11.153c-10.538-6.111-24.009-3.033-30.847 7.05-4.299 6.338-105.41 155.47-118.428 177.916-6.509 11.224-13.845 29.443-19.947 46.1l52.542 30.805c11.443-13.576 23.674-29.061 30.275-40.443 13.17-22.708 92.25-184.284 95.609-191.151 5.357-10.945 1.337-24.166-9.204-30.277z"/><path d="m166.592 341.074c-4.498-1.502-8.881-2.384-13.327-2.657-.747-.046-1.549-.069-2.383-.069-6.69 0-15.097 1.466-23.227 2.884-7.245 1.265-14.089 2.457-18.864 2.457-3.359 0-4.52-.616-4.895-.936-4.059-5.095 1.807-18.923 4.318-24.849.642-1.512 1.148-2.706 1.44-3.559 4.072-11.981 7.063-24.737 1.425-36.843-4.687-10.065-15.643-18.076-27.824-20.391-3.548-.838-7.62-1.228-12.816-1.228-4.277 0-8.854.271-13.281.534-4.54.27-9.235.548-13.731.548-15.464 0-24.366-3.528-29.749-11.769-9.992-15.865 2.009-44.283 14.332-56.117.758-.728.823-1.918.149-2.725-.675-.807-1.857-.955-2.708-.337-15.781 11.433-26.229 32.205-25.406 50.514.439 9.764 4.197 23.327 19.612 32.506 8.298 4.94 21.718 5.98 34.696 6.986 12.768.989 25.971 2.013 30.04 6.977 1.066 1.301 1.472 2.876 1.233 4.859-.888 9.078-5.293 18.018-9.554 26.661-8.047 16.327-16.368 33.209-1.986 51.944 12.631 16.451 29.399 16.451 46.625 16.331 1.41-.01 2.823-.02 4.235-.02 7.515 0 16.196.23 24.068 2.972 5.602 2.171 8.419 6.662 9.737 15.571 1.009 5.462 3.436 9.762 6.657 13 .471-2.511 1.577-4.904 3.29-6.927 8.458-9.986 6.803-19.319 2.577-37.812-1.962-8.595-4.137-18.122-4.683-28.505z"/></g></g></g></svg>