<svg height="64" viewBox="0 0 64 64" width="64" xmlns="http://www.w3.org/2000/svg" xmlns:xlink="http://www.w3.org/1999/xlink"><linearGradient id="a" gradientTransform="matrix(1.0749904 0 0 1.1792904 56.688954 -.257355)" gradientUnits="userSpaceOnUse" x1="-74.929466" x2="-75.259552" y1="52.199436" y2="2.356489"><stop offset="0" stop-color="#ff6835"/><stop offset="1" stop-color="#ff956f"/></linearGradient><g transform="translate(56.391766 -.176777)"><rect fill="url(#a)" height="60.531002" ry="2.864" width="44" x="-46.391766" y="1.645775"/><path d="m10 51.087891v6.076171 1.835938.136719c0 1.586656 1.276625 2.863281 2.863281 2.863281h38.273438c1.586656 0 2.863281-1.276625 2.863281-2.863281v-.136719-1.835938-6.076171z" fill-opacity=".699422" transform="translate(-56.391766 .176777)"/><g fill="#fff" transform="matrix(.81954967 0 0 .81954967 -4.734283 10.221831)"><path d="m-29.611302 60.186646q-.95 0-1.64-.75-.69-.75-.69-1.86 0-1.11.69-1.86.69-.75 1.64-.75.56 0 1 .24.45.24.67.6h.04l-.04-.68v-2.26h.92v7.16h-.88v-.68h-.04q-.22.36-.67.6-.44.24-1 .24zm.15-.84q.65 0 1.1-.48.46-.48.46-1.29 0-.81-.46-1.29-.45-.48-1.1-.48-.64 0-1.1.49-.46.48-.46 1.28 0 .8.46 1.29.46.48 1.1.48z"/><path d="m-23.738177 60.186646q-1.11 0-1.81-.74-.69-.74-.69-1.87 0-1.07.67-1.84.68-.77 1.73-.77 1.09 0 1.74.71.66.71.66 1.9l-.01.17h-3.87q.04.74.49 1.17.46.43 1.07.43.99 0 1.34-.84l.82.34q-.24.57-.79.96-.55.38-1.35.38zm1.32-3.2q-.03-.42-.39-.8-.35-.38-1.05-.38-.51 0-.89.32-.37.32-.51.86z"/><path d="m-18.016615 60.186646q-.56 0-1.01-.24-.44-.24-.66-.6h-.04v.68h-.88v-7.16h.92v2.26l-.04.68h.04q.22-.36.66-.6.45-.24 1.01-.24.95 0 1.64.75.69.75.69 1.86 0 1.11-.69 1.86-.69.75-1.64.75zm-.15-.84q.64 0 1.1-.48.46-.49.46-1.29 0-.8-.46-1.28-.46-.49-1.1-.49-.65 0-1.11.48-.45.48-.45 1.29 0 .81.45 1.29.46.48 1.11.48z"/></g><path d="m-16.084682 14.285155c-.123784-.0082-.245796-.0064-.365995.0016-.801372.05658-1.543493.500538-1.975683 1.248962-.688991 1.196196-.276548 2.716143.922119 3.407661 1.196196.688975 2.718687.2885 3.407662-.911479.691422-1.192461.295445-2.740611-.900767-3.430762-.337117-.193896-.716001-.293006-1.087313-.31625zm-6.564808 2.650831c-1.72926 0-3.346529.408461-4.796975 1.128158l1.737619 3.137581c.935851-.436997 1.96149-.694673 3.059451-.694673 3.822004 0 6.976511 2.92463 7.305626 6.664323l3.548022-.04442c-.176875-2.75598-1.382678-5.23507-3.233552-7.055198-.953048.357492-2.035449.3027-2.98477-.248736-.949312-.54898-1.549866-1.466546-1.714518-2.474902-.926029-.25425-1.915003-.41218-2.920808-.41218zm-6.022923 1.833503c-2.190987 1.462724-3.804545 3.707572-4.482514 6.328476.793393.644769 1.270337 1.608822 1.270337 2.712957 0 1.096682-.475705 2.096574-1.270337 2.744982.677961 2.619624 2.291527 4.855104 4.482514 6.317828l1.832954-3.082822c-1.880244-1.321458-3.103825-3.50681-3.103825-5.980258 0-2.47599 1.223581-4.658713 3.103825-5.980258zm-6.719353 6.545251c-1.384124 0-2.49619 1.11205-2.49619 2.496182 0 1.379222 1.112066 2.496191 2.49619 2.496191 1.385309 0 2.508643-1.116969 2.508643-2.496191 0-1.384132-1.123334-2.496182-2.508643-2.496182zm20.047902 3.158958c-.329139 3.733589-3.483607 6.664322-7.305626 6.664322-1.099216 0-2.123592-.246741-3.059443-.684016l-1.737628 3.11448c1.450447.722176 3.067811 1.11751 4.796976 1.11751 1.0059 0 1.994786-.134257 2.920815-.390868.164581-1.007076.763919-1.921741 1.714535-2.473169.951847-.548893 2.031793-.602167 2.984753-.239851 1.850874-1.822585 3.056535-4.296763 3.233552-7.055198zm-1.096229 7.890175c-.362188.03083-.727778.151326-1.064203.346454-1.198565.686607-1.611087 2.203272-.92212 3.397013.691478 1.199931 2.23157 1.602178 3.428951.913203 1.19765-.690246 1.592173-2.213189.900767-3.409385-.432158-.748376-1.184825-1.190833-1.986324-1.24723-.12035-.01001-.236489-.01001-.357102 0z" fill="#fff" fill-opacity=".85"/></g></svg>