<svg height="64" viewBox="0 0 64 64" width="64" xmlns="http://www.w3.org/2000/svg" xmlns:xlink="http://www.w3.org/1999/xlink"><linearGradient id="a" gradientTransform="matrix(1.0749904 0 0 1.0292896 56.688954 -.015285)" gradientUnits="userSpaceOnUse" x1="-74.929466" x2="-75.259552" y1="52.199436" y2="2.356489"><stop offset="0" stop-color="#cf5764"/><stop offset="1" stop-color="#ff747c"/></linearGradient><g transform="translate(56.391766 -.176777)"><rect fill="#5c272c" height="7.69929" ry="2.5" width="44" x="-46.391766" y="54.477486"/><rect fill="url(#a)" height="52.831711" ry="2.5" width="44" x="-46.391766" y="1.645775"/><path d="m-46.391766 51.264462h44v7.911841h-44z" fill="#5c272c"/><g transform="matrix(.550000420695 0 0 .550000420695 -249.006223012622 -260.912332799023)"><rect fill="#5c272c" height="39.999969" ry="1.999996" width="36" x="390.57144" y="503.798"/><g fill="#fff"><g><rect height="2" opacity=".929" ry=".888648" width="4" x="406.643184" y="504.90935"/><rect height="2" opacity=".929" ry=".888648" width="4" x="406.634814" y="507.80199"/><rect height="2" opacity=".929" ry=".888648" width="4" x="406.609734" y="510.65978"/><rect height="2" opacity=".929" ry=".888648" width="4" x="406.653554" y="513.63469"/><rect height="2" opacity=".929" ry=".888648" width="4" x="406.653554" y="516.55742"/></g><rect height="2" opacity=".929" ry=".888648" width="4" x="406.6535" y="519.54907"/><path d="m410.11783 524.47214v-1.26212c0-.35164-.28416-.63683-.63453-.63683h-1.76295c-.35037 0-.6346.28526-.6346.63683v1.2615l-.98056 2.89118c-.27435.80579-.14271 1.70105.35164 2.39489.49436.69257 1.29597 1.10622 2.14496 1.10622.84916 0 1.65084-.41365 2.14519-1.10622.49435-.69384.62583-1.5891.35156-2.39426zm-.40955 4.53977c-.50867.71448-1.70431.71448-2.21306 0-.25497-.35792-.32285-.8196-.18195-1.23564l.32909-.96974h1.91878l.32918.97037c.14096.41541.0729.87709-.18204 1.23501z"/></g></g><g fill="#fff" transform="matrix(.81321839 0 0 .81321839 78.584358 19.47893)"><path d="m-131.54134 49.313748q-.82 0-1.36-.4-.53-.4-.78-1l .82-.34q.39.92 1.33.92.43 0 .7-.19.28-.19.28-.5 0-.48-.67-.65l-.99-.24q-.47-.12-.89-.45-.42-.34-.42-.91 0-.65.57-1.05.58-.41 1.37-.41.65 0 1.16.3.51.29.73.84l-.8.33q-.27-.65-1.12-.65-.41 0-.69.17-.28.17-.28.46 0 .42.65.57l.97.23q.69.16 1.02.55.33.39.33.88 0 .66-.54 1.1-.54.44-1.39.44z"/><path d="m-127.86915 43.023748q-.19.19-.46.19-.27 0-.46-.19-.19-.19-.19-.46 0-.27.19-.46.19-.19.46-.19.27 0 .46.19.19.19.19.46 0 .27-.19.46zm0 6.13h-.92v-4.9h.92z"/><path d="m-124.60072 49.233748q-.77 0-1.18-.41-.4-.41-.4-1.16v-2.57h-.86v-.84h.86v-1.5h.92v1.5h1.2v.84h-1.2v2.5q0 .8.66.8.25 0 .42-.08l.32.79q-.3.13-.74.13z"/><path d="m-118.94931 49.153748h-1.08l-1.21-1.81-1.19 1.81h-1.08l1.73-2.49-1.69-2.41h1.04l1.21 1.73 1.15-1.73h1.08l-1.71 2.41z"/></g></g></svg>