<svg height="64" viewBox="0 0 64 64" width="64" xmlns="http://www.w3.org/2000/svg" xmlns:xlink="http://www.w3.org/1999/xlink"><linearGradient id="a" gradientUnits="userSpaceOnUse" x1="30.601029" x2="31.877571" y1="62.523117" y2="1.97774"><stop offset="0" stop-color="#ff5e38"/><stop offset="1" stop-color="#ff8f36"/></linearGradient><rect fill="url(#a)" height="60.531002" ry="2.864331" width="44" x="9.999997" y="1.734499"/><path d="m10.000002 51.353392v5.71289 2.199219.5c0 1.385 1.115 2.5 2.5 2.5h39.000001c1.385 0 2.5-1.115 2.5-2.5v-.5-2.199219-5.71289z" fill="#6f2c18"/><path d="m23.957035 19c-.52985 0-.957031.464509-.957031 1.042969v15.912109c0 .57846.427181 1.044922.957031 1.044922h16.085939c.52985 0 .95703-.466462.95703-1.044922v-15.912109c0-.57846-.42718-1.042969-.95703-1.042969zm10.181641 6.431641 3.861328 5.136718h-12l3-3.849609 2.138672 2.574219z" fill="#6f2c18"/><g fill="#fff" transform="matrix(.81954967 0 0 .81954967 51.957477 10.344827)"><path d="m-28.80945 59.374537q-.77 0-1.18-.41-.4-.41-.4-1.16v-2.57h-.86v-.84h.86v-1.5h.92v1.5h1.2v.84h-1.2v2.5q0 .8.66.8.25 0 .42-.08l.32.79q-.3.13-.74.13z"/><path d="m-25.322888 61.614537q-.87 0-1.42-.44-.55-.43-.79-.99l.84-.35q.14.4.51.67.38.27.86.27.76 0 1.19-.46.44-.45.44-1.23v-.47h-.04q-.24.36-.68.6-.44.24-.99.24-.95 0-1.64-.75-.69-.75-.69-1.86 0-1.11.69-1.86.69-.75 1.64-.75.55 0 .99.24.44.24.68.6h.04v-.68h.88v4.65q0 1.26-.73 1.91-.73.66-1.78.66zm.07-3q .65 0 1.1-.48.46-.48.46-1.29 0-.81-.46-1.29-.45-.48-1.1-.48-.64 0-1.1.49-.46.48-.46 1.28 0 .8.46 1.29.46.48 1.1.48z"/><path d="m-20.199763 59.454537q-.78 0-1.31-.45-.52-.45-.52-1.19 0-.8.62-1.25.62-.46 1.53-.46.81 0 1.33.3v-.14q0-.54-.37-.86-.37-.33-.91-.33-.4 0-.73.19-.32.19-.44.52l-.84-.36q.17-.44.67-.81.5-.38 1.32-.38.94 0 1.56.55.62.55.62 1.55v2.96h-.88v-.68h-.04q-.55.84-1.61.84zm.15-.84q.57 0 1.03-.42.47-.43.47-1.01-.39-.32-1.17-.32-.67 0-1.01.29-.34.29-.34.68 0 .36.31.57.31.21.71.21z"/></g></svg>