<svg height="64" viewBox="0 0 64 64" width="64" xmlns="http://www.w3.org/2000/svg" xmlns:xlink="http://www.w3.org/1999/xlink"><linearGradient id="a" gradientTransform="matrix(1.0749904 0 0 1.0292896 56.688954 -.015285)" gradientUnits="userSpaceOnUse" x1="-74.929466" x2="-75.259552" y1="52.199436" y2="2.356489"><stop offset="0" stop-color="#197cf1"/><stop offset="1" stop-color="#20bcfa"/></linearGradient><g transform="translate(56.391766 -.176777)"><rect fill="#0b3969" height="7.69929" ry="2.5" width="44" x="-46.391766" y="54.477486"/><rect fill="url(#a)" height="52.831711" ry="2.5" width="44" x="-46.391766" y="1.645775"/><path d="m-46.391766 51.264462h44v7.911841h-44z" fill="#0b3969"/><g fill="#fff" transform="matrix(.81954967 0 0 .81954967 -4.634288 10.521731)"><path d="m-29.354954 59.454537q-.56 0-1.01-.24-.44-.24-.66-.6h-.04l.04.68v2.16h-.92v-7.06h.88v.68h.04q.22-.36.66-.6.45-.24 1.01-.24.95 0 1.64.75.69.75.69 1.86 0 1.11-.69 1.86-.69.75-1.64.75zm-.15-.84q.64 0 1.1-.48.46-.49.46-1.29 0-.8-.46-1.28-.46-.49-1.1-.49-.65 0-1.11.48-.45.48-.45 1.29 0 .81.45 1.29.46.48 1.11.48z"/><path d="m-23.962298 59.454537q-1.11 0-1.81-.74-.69-.74-.69-1.87 0-1.07.67-1.84.68-.77 1.73-.77 1.09 0 1.74.71.66.71.66 1.9l-.01.17h-3.87q.04.74.49 1.17.46.43 1.07.43.99 0 1.34-.84l.82.34q-.24.57-.79.96-.55.38-1.35.38zm1.32-3.2q-.03-.42-.39-.8-.35-.38-1.05-.38-.51 0-.89.32-.37.32-.51.86z"/><path d="m-19.910736 59.294537h-.92v-4.9h.88v.8h.04q.14-.4.57-.66.44-.26.85-.26.41 0 .69.12l-.35.86q-.18-.07-.49-.07-.5 0-.89.4-.38.39-.38 1.03z"/><path d="m-16.219329 59.294537h-.92v-7.16h.92z"/></g><path d="m535.18318 526.78428c-.70555-.0366-.82862-.96977-1.51873-1.01349-.36266-.0226-1.04924-.0543-1.64604.16276-.66507-.45465-1.51873-1.01168-.27119 1.15829-.2711 1.46369-1.17535 5.56907-2.13402 5.58623-.95817.0177-1.59072-1.73489-2.4047-1.71692-.814.0174-.814.0174-.814.0174-.95816 0-1.58869-1.69482-3.52582-1.75308-1.21159-.0363-2.16996 2.09635-4.86444 2.3313-.72291.0545-1.83566.33602-1.94834 2.00317 0 0-1.5887 1.48541-.84074 4.91673.18668-1.70824.27977-3.14065.84074-4.07549-.0418.93273.24929 1.83779 0 2.80414-.24918.96522-1.04146 2.61642-1.04146 2.61642s-.17356.34288.26271 1.52682c.43597 1.18331 1.30832 4.11526 1.30832 4.11526.0445.51462.11692.78582.47847 1.02127-.0907.34237-.39568 1.02974.6891 1.02974.46474.00041 0 0 1.05186 0 .73493 0 .49574-.63163-.69121-1.21108.0361-.43365-.23485-.88618-.41588-.97684-.43355-1.10296-.99421-3.21586-.99421-3.21586s-.19941-1.84536.48796-2.46074c.68718-.61397 1.51743-1.19181 2.07828-3.23515.0177-.1452.95827.72361 2.83917 1.2655 1.88049.5434 3.32289-.0366 3.53299.0541.21001.0911.66215 1.19312.66215 2.26094 0 1.0665-.37964 1.77165-.37964 2.18752 0 .41589.30744 1.1391.30744 1.1391s.18063 1.98882-.0542 3.11036c-.16286.70443-.43396 1.06236.65113 1.06397 1.08487.002 2.56756.23667.63315-1.0463.16225-.39802.0358-.94141-.14518-1.1391-.0363-.97665.073-1.93572.25291-2.33272.18094-.39841.0548-1.5367.0908-2.11494.0364-.57853.56056-2.65771 1.1391-3.39871.57863-.7424 3.14619-2.92922 3.58055-5.06262.43405-2.13412.90415-4.30488 2.17006-4.2858.75906 0 .88557.43364 1.21108.41588.32562-.0192.90426-.55896.90426-.84852 0-.28897-.0719-.88174-1.48239-.89952z" fill="#0b3969" transform="translate(-550.372128 -509.338185)"/></g></svg>