<svg height="64" viewBox="0 0 64 64" width="64" xmlns="http://www.w3.org/2000/svg" xmlns:xlink="http://www.w3.org/1999/xlink"><linearGradient id="a" gradientTransform="matrix(1.0749904 0 0 1.0292896 56.688954 -.015285)" gradientUnits="userSpaceOnUse" x1="-74.929466" x2="-75.259552" y1="52.199436" y2="2.356489"><stop offset="0" stop-color="#4469b9"/><stop offset="1" stop-color="#5d91ff"/></linearGradient><g transform="translate(56.391766 -.176777)"><rect fill="#00112b" height="7.69929" ry="2.5" width="44" x="-46.391766" y="54.477486"/><rect fill="url(#a)" height="52.831711" ry="2.5" width="44" x="-46.391766" y="1.645775"/><path d="m-46.391766 51.264462h44v7.911841h-44z" fill="#00112b"/><g fill="#fff"><g transform="matrix(.81954967 0 0 .81954967 -3.534286 10.121829)"><path d="m-32.694168 59.172398h-.92v-4.9h.88v.8h.04q.14-.4.57-.66.44-.26.85-.26.41 0 .69.12l-.35.86q-.18-.07-.49-.07-.5 0-.89.4-.38.39-.38 1.03z"/><path d="m-27.431355 59.332398q-.56 0-1.01-.24-.44-.24-.66-.6h-.04l.04.68v2.16h-.92v-7.06h.88v.68h.04q.22-.36.66-.6.45-.24 1.01-.24.95 0 1.64.75.69.75.69 1.86 0 1.11-.69 1.86-.69.75-1.64.75zm-.15-.84q.64 0 1.1-.48.46-.49.46-1.29 0-.8-.46-1.28-.46-.49-1.1-.49-.65 0-1.11.48-.45.48-.45 1.29 0 .81.45 1.29.46.48 1.11.48z"/><path d="m-24.317293 59.172398v-4.9h.88v.68h.04q.21-.35.64-.59.44-.25.87-.25 1.14 0 1.55.94.6-.94 1.71-.94.87 0 1.31.56.44.55.44 1.5v3h-.92v-2.86q0-.74-.27-1.05-.27-.31-.82-.31-.54 0-.9.46-.35.46-.35 1.05v2.71h-.92v-2.86q0-.74-.27-1.05-.27-.31-.82-.31-.54 0-.9.46-.35.46-.35 1.05v2.71z"/></g><path d="m-17.034954 10.965194c-4.719088 0-8.544298 3.825476-8.544298 8.544387v4.531191h-4.509452c-4.718999 0-8.544209 3.806771-8.544209 8.525504 0 4.719355 3.825388 8.544653 8.544209 8.544653 4.718393 0 8.543766-3.825298 8.543766-8.544653v-4.549911h4.509984c4.718393 0 8.5437658-3.78814 8.5437658-8.506784 0-4.718911-3.8253728-8.544387-8.5437658-8.544387zm-8.544298 21.606424c-.003 2.486472-2.021648 4.502245-4.509452 4.502245-2.490467 0-4.528068-2.019073-4.528068-4.509555 0-2.491355 2.037601-4.547854 4.528068-4.547854h3.872965c.351792 0 .637079.284754.637079.635968 0 .000622-.000444.000622-.000444 0v3.917687h-.000133zm8.543854-8.53351h-3.873216c-.351807 0-.636354-.284577-.636354-.636679v-3.898893c.0044-2.487966 2.021649-4.50294 4.50963-4.50294 2.490467 0 4.528512 2.019162 4.528512 4.510162 0 2.490645-2.038045 4.52835-4.528512 4.52835z" opacity=".2"/><path d="m-26.622571 23.945925v-4.531369c0-4.719014 3.82521-8.544476 8.544298-8.544476.715866 0 1.224523.0811 1.887129.254092.966318.253485 1.755526 1.04509 1.75597 1.966597.000429 1.114052-.80821 1.92383-2.01675 1.92383-.575754 0-.783822-.110249-1.626793-.110249-2.487966 0-4.505441 2.014959-4.509629 4.50294v3.898715c0 .352102.284547.636664.636353.636664h2.963563c1.103619 0 1.99476.883564 1.995647 1.990024 0 1.107007-.892472 1.988514-1.995647 1.988514h-3.59996v4.55c0 4.718467-3.825388 8.543765-8.543766 8.543765-.716014 0-1.2247-.0811-1.887307-.254195-.966317-.253292-1.755792-1.045356-1.756236-1.966597 0-1.113682.808077-1.923815 2.017106-1.923815.575176 0 .783821.110397 1.626348.110397 2.487966 0 4.505974-2.015152 4.509896-4.502245v-3.919107c0-.351303-.285287-.635865-.637079-.635865h-2.962763c-1.103885 0-1.99581-.880707-1.99581-1.987981-.000296-1.113416.9011-1.990468 2.01675-1.990468h3.578414v-.000089z" fill-opacity=".85"/></g></g></svg>