<svg height="64" viewBox="0 0 64 64" width="64" xmlns="http://www.w3.org/2000/svg" xmlns:xlink="http://www.w3.org/1999/xlink"><linearGradient id="a" gradientTransform="matrix(1.0749904 0 0 1.0292896 56.688954 -.015285)" gradientUnits="userSpaceOnUse" x1="-74.929466" x2="-75.259552" y1="52.199436" y2="2.356489"><stop offset="0" stop-color="#54b60f"/><stop offset="1" stop-color="#92dc41"/></linearGradient><g transform="translate(56.391766 -.176777)"><rect fill="#008000" height="7.69929" ry="2.5" width="44" x="-46.391766" y="54.477486"/><rect fill="url(#a)" height="52.831711" ry="2.5" width="44" x="-46.391766" y="1.645775"/><path d="m-46.391766 51.264462h44v7.911841h-44z" fill="#008000"/><g fill="#fff" transform="matrix(.81954967 0 0 .81954967 -3.534286 10.121829)"><path d="m-32.694168 59.172398h-.92v-4.9h.88v.8h.04q.14-.4.57-.66.44-.26.85-.26.41 0 .69.12l-.35.86q-.18-.07-.49-.07-.5 0-.89.4-.38.39-.38 1.03z"/><path d="m-27.431355 59.332398q-.56 0-1.01-.24-.44-.24-.66-.6h-.04l.04.68v2.16h-.92v-7.06h.88v.68h.04q.22-.36.66-.6.45-.24 1.01-.24.95 0 1.64.75.69.75.69 1.86 0 1.11-.69 1.86-.69.75-1.64.75zm-.15-.84q.64 0 1.1-.48.46-.49.46-1.29 0-.8-.46-1.28-.46-.49-1.1-.49-.65 0-1.11.48-.45.48-.45 1.29 0 .81.45 1.29.46.48 1.11.48z"/><path d="m-24.317293 59.172398v-4.9h.88v.68h.04q.21-.35.64-.59.44-.25.87-.25 1.14 0 1.55.94.6-.94 1.71-.94.87 0 1.31.56.44.55.44 1.5v3h-.92v-2.86q0-.74-.27-1.05-.27-.31-.82-.31-.54 0-.9.46-.35.46-.35 1.05v2.71h-.92v-2.86q0-.74-.27-1.05-.27-.31-.82-.31-.54 0-.9.46-.35.46-.35 1.05v2.71z"/></g><path d="m-24.634886 12.261696c-7.155802 0-12.95754 5.801091-12.95754 12.95754 0 7.15645 5.801738 12.957541 12.95754 12.957541 7.155801 0 12.957541-5.801091 12.957541-12.957541 0-7.156449-5.80174-12.95754-12.957541-12.95754zm.06206 1.794489c6.165523 0 11.168105 4.998176 11.168105 11.162921 0 6.165522-5.002907 11.162922-11.168105 11.162922-3.32918 0-6.316476-1.459085-8.3615-3.77032.840879-.652608 2.247744-.493405 3.980297-.295899.83032.09446 1.776803.202514 2.753801.224307 2.729377.01588 5.666074-.482279 7.478445-1.274243 1.171815-.513903 1.922057-.852347 2.391055-1.27904.169103-.13871.2579-.370442.348395-.610883l.06206-.162267c.07596-.194202.184976-.612088.233852-.839973.02177-.09975.03253-.207009-.03816-.262493l-.252944.04775c-.795333.476915-2.782308 1.385226-4.643723 1.422219-2.306637.0482-6.955608-2.322056-7.440219-2.572396l-.04775-.05727c-.116255-.277427-.811984-1.929054-.959311-2.27651 3.346349 2.203559 6.120688 3.423252 8.246826 3.61282 2.364104.210056 4.20822-1.080657 4.996882-1.632196.153909-.105027.271545-.187385.319766-.205221l.05248-.08591c-.131513-.83123-1.37155-4.851955-2.305787-5.81794-.259152-.264981-.464529-.522188-.883058-.768382-3.380622-1.970194-11.40717-3.157104-11.783586-3.211526l-.06207.01909-.02384.0525s-.03012 1.666793-.03343 1.851763c-.275446-.09116-1.129575-.37078-2.352896-.706315 1.596174-1.975053 4.042364-3.727367 8.323276-3.727367zm2.949461 5.908445c.05695-.000861.114467-.0019.17181 0 1.893809.06803 3.381659 1.663099 3.316937 3.555548-.03369.915516-.419675 1.761384-1.088175 2.386261-.670422.628181-1.541817.955619-2.462645.925881-1.890505-.07068-3.378355-1.665757-3.316937-3.555548.0324-.916811.420485-1.768187 1.092905-2.391055.627935-.588921 1.431613-.90826 2.286099-.921087zm-.09068 1.011789c-.551545.03353-1.072042.257479-1.479492.639526-.464366.435963-.738385 1.026236-.758858 1.665627-.0436 1.321086.99015 2.432843 2.309941 2.481758.641392.01982 1.249819-.204884 1.718104-.639526.467003-.437945.739034-1.033624.758859-1.670422.04425-1.323094-.994232-2.430705-2.31467-2.476963-.07993-.003-.15507-.0048-.233858 0zm .629976 1.197924c.586569 0 1.059538.318749 1.059538.71111 0 .390385-.472943.711111-1.059538.711111-.588544 0-1.064268-.321393-1.064268-.711111 0-.392367.475736-.71111 1.064268-.71111z" fill="#fff" fill-opacity=".85"/></g></svg>