<svg height="64" viewBox="0 0 64 64" width="64" xmlns="http://www.w3.org/2000/svg" xmlns:xlink="http://www.w3.org/1999/xlink"><linearGradient id="a" gradientTransform="matrix(1.0749904 0 0 1.0292896 56.688954 -.015285)" gradientUnits="userSpaceOnUse" x1="-74.929466" x2="-75.259552" y1="52.199436" y2="2.356489"><stop offset="0" stop-color="#197cf1"/><stop offset="1" stop-color="#20bcfa"/></linearGradient><g transform="translate(56.391766 -.176777)"><rect fill="#0b3969" height="7.69929" ry="2.5" width="44" x="-46.391766" y="54.477486"/><rect fill="url(#a)" height="52.831711" ry="2.5" width="44" x="-46.391766" y="1.645775"/><path d="m-46.391766 51.264462h44v7.911841h-44z" fill="#0b3969"/><g fill="#fff"><path d="m-27.508822 59.067692h-.727944v-5.665306h.727944z"/><path d="m-25.593023 60.776778h-.751682l.902018-1.954372-1.598312-3.631809h.791244l1.155216 2.785178h.01582l1.123566-2.785178h.791244l-2.429119 5.586181z"/><path d="m-19.460512 59.067692h-.854544l-.957405-1.432152-.94158 1.432152h-.854543l1.368852-1.970197-1.337202-1.906898h.822893l.957405 1.368852.909931-1.368852h.854543l-1.353027 1.906898z"/></g><path d="m-36.475828 27.104959v-19.9714146h2.566159v17.5168276h8.646842v2.454587z" fill="#fff" stroke="#fff" stroke-width="2.028585" transform="matrix(.94972289 -.31309174 .31309174 .94972289 -.400428 0)"/></g></svg>