<svg height="64" viewBox="0 0 64 64" width="64" xmlns="http://www.w3.org/2000/svg" xmlns:xlink="http://www.w3.org/1999/xlink"><linearGradient id="a" gradientTransform="matrix(1.0749904 0 0 1.0292896 113.08072 -.192062)" gradientUnits="userSpaceOnUse" x1="-74.929466" x2="-75.259552" y1="52.199436" y2="2.356489"><stop offset="0" stop-color="#ff4a61"/><stop offset="1" stop-color="#ff6b91"/></linearGradient><rect fill="url(#a)" height="52.831711" ry="2.5" width="44" x="10" y="1.468998"/><rect fill="#6f222c" height="7.69929" ry="2.5" width="44" x="10" y="54.300709"/><path d="m10 51.087685h44v7.911841h-44z" fill="#6f222d"/><g fill="#6f222d" stroke-opacity=".8" transform="matrix(.0453411 0 0 .0453411 20.999953 16.000006)"><path d="m121.305 30.327h242.604v60.651h30.327v-60.651c0-16.732-13.562-30.327-30.327-30.327h-242.604c-16.731 0-30.327 13.595-30.327 30.327v60.651h30.327z"/><path d="m454.89 121.304h-424.562c-16.731 0-30.327 13.591-30.327 30.324v151.629c0 16.764 13.595 30.327 30.327 30.327h60.651v121.302c0 16.764 13.595 30.326 30.327 30.326h242.604c16.765 0 30.327-13.562 30.327-30.326v-121.302h60.653c16.759 0 30.322-13.563 30.322-30.327v-151.629c0-16.733-13.564-30.324-30.322-30.324zm-90.981 333.582h-242.604v-212.28h242.604zm60.653-242.604c-16.764 0-30.326-13.564-30.326-30.327 0-16.731 13.562-30.327 30.326-30.327 16.765 0 30.327 13.595 30.327 30.327.001 16.762-13.562 30.327-30.327 30.327z"/><path d="m151.629 272.92999h121.304v30.327h-121.304z"/><path d="m151.629 333.58401h181.95799v30.321h-181.95799z"/><path d="m151.629 394.237h181.95799v30.322h-181.95799z"/></g><g fill="#fff" transform="translate(1.460287 -.446614)"><path d="m30.276041 56.263893q0 .964844-.441406 1.554688-.441406.589843-1.195313.589843-.769531 0-1.210937-.488281v2.035156h-.722656v-5.851562h.660156l.03516.46875q.441406-.546875 1.226563-.546875.761718 0 1.203125.574219.445312.574218.445312 1.597656zm-.722656-.08203q0-.714844-.304688-1.128906-.304687-.414063-.835937-.414063-.65625 0-.984375.582031v2.019532q.324219.578125.992187.578125.519532 0 .824219-.410157.308594-.414062.308594-1.226562z"/><path d="m33.651041 57.209206q0-.292969-.222656-.453125-.21875-.164063-.769531-.28125-.546875-.117188-.871094-.28125-.320313-.164063-.476563-.390625-.152343-.226563-.152343-.539063 0-.519531.4375-.878906.441406-.359375 1.125-.359375.71875 0 1.164062.371094.449219.371093.449219.949218h-.726563q0-.296875-.253906-.511718-.25-.214844-.632812-.214844-.394532 0-.617188.171875-.222656.171875-.222656.449219 0 .261718.207031.394531.207031.132812.746094.253906.542969.121094.878906.289063.335938.167968.496094.40625.164062.234375.164062.574218 0 .566407-.453125.910157-.453125.339843-1.175781.339843-.507812 0-.898437-.179687-.390625-.179688-.613282-.5-.21875-.324219-.21875-.699219h.722657q.01953.363281.289062.578125.273438.210938.71875.210938.410156 0 .65625-.164063.25-.167969.25-.445312z"/></g></svg>