<svg height="64" viewBox="0 0 64 64" width="64" xmlns="http://www.w3.org/2000/svg" xmlns:xlink="http://www.w3.org/1999/xlink"><linearGradient id="a" gradientTransform="matrix(1.0749904 0 0 1.0292896 56.688954 -.015285)" gradientUnits="userSpaceOnUse" x1="-74.929466" x2="-75.259552" y1="52.199436" y2="2.356489"><stop offset="0" stop-color="#197cf1"/><stop offset="1" stop-color="#20bcfa"/></linearGradient><g transform="translate(56.391766 -.176777)"><rect fill="#0b3969" height="7.69929" ry="2.5" width="44" x="-46.391766" y="54.477486"/><rect fill="url(#a)" height="52.831711" ry="2.5" width="44" x="-46.391766" y="1.645775"/><path d="m-46.391766 51.264462h44v7.911841h-44z" fill="#0b3969"/><g fill="#fff" transform="matrix(.81954967 0 0 .81954967 -4.634287 10.721775)"><path d="m-30.009765 52.500816v4.41l2.12-2.15h1.18v.04l-1.91 1.91 2 2.91v.04h-1.11l-1.54-2.31-.74.74v1.57h-.92v-7.16z"/><path d="m-26.105546 59.660816v-4.9h.88v.68h.04q.21-.35.64-.59.44-.25.87-.25 1.14 0 1.55.94.6-.94 1.71-.94.87 0 1.31.56.44.55.44 1.5v3h-.92v-2.86q0-.74-.27-1.05-.27-.31-.82-.31-.54 0-.9.46-.35.46-.35 1.05v2.71h-.92v-2.86q0-.74-.27-1.05-.27-.31-.82-.31-.54 0-.9.46-.35.46-.35 1.05v2.71z"/><path d="m-16.669921 59.660816h-.92v-7.16h.92z"/></g><g transform="matrix(.471444652691 0 0 .471444652691 -242.305960712034 -219.854147435044)"><rect fill="#0b3969" height="46.665051834557" ry="23.332526500592" stroke="#0b3969" stroke-width="2.757482048499" width="46.665075167101" x="438.893916903914" y="500.654585546973"/><path d="m462.49862 500.44237c-2.96354 0-5.7986.5628-8.41097 1.58759 1.00273-.14096 2.20328-.22817 3.64406-.22817 8.21723 0 12.87687 3.66749 16.26357 7.55521 2.26018 2.5946 6.18546 10.32632 9.10046 10.32632.84815-.0753 1.5146-.74977 2.03891-1.78251-2.83139-10.08267-11.89331-17.45844-22.63603-17.45844z" fill="#1ea8f7"/><path d="m447.84343 513.00865c7.89577 0 21.78969 17.29112 36.54986 19.04728.37657-1.20967.66472-2.46054.8537-3.74467-6.71062-1.51083-15.14665-9.60437-18.18084-12.65343-4.7428-4.76652-9.16953-9.55083-15.24337-9.55083-2.07203 0-3.97389.36851-5.61957.88007-3.04795 2.93947-5.33467 6.71069-6.52022 10.96483 2.43585-2.51659 5.21953-4.94325 8.16044-4.94325z" fill="#1da3f6"/><path d="m358692.37 157585.85c-89517.76000000001 0-157157.12-48501.42-181206.69-48501.42-9806.869999999995 0-15465.190000000002 6884.850000000006-18729.25 15038.460000000006 15450.51000000001 32921.890000000014 42088.06 59495.98999999999 74990.51000000001 74776.13-4638.890000000014-11978.679999999995-7436.640000000014-27830.76000000001 10263.820000000005-27830.76000000001 15642.890000000014 0 31231 13537.440000000002 88960.60999999999 13537.440000000002 26359.630000000005 0 50636.330000000016-5526.149999999994 68485.09999999998-11126.130000000005 9448.799999999988-8525.529999999999 17848.780000000028-18201.649999999998 24972.780000000028-28814.89000000001-17051.119999999995 6100.76999999999-41883.609999999986 12921.170000000013-67736.88 12921.170000000013z" fill="#1b92f4" fill-rule="evenodd" transform="matrix(.000153353196 0 0 .000155767127 416.462576785 514.6406838775)"/></g></g></svg>