<svg height="64" viewBox="0 0 64 64" width="64" xmlns="http://www.w3.org/2000/svg" xmlns:xlink="http://www.w3.org/1999/xlink"><linearGradient id="a" gradientTransform="matrix(1.0749904 0 0 1.2270099 113.08072 -.511141)" gradientUnits="userSpaceOnUse" x1="-74.929466" x2="-75.259552" y1="52.199436" y2="2.356489"><stop offset="0" stop-color="#8549a0"/><stop offset="1" stop-color="#c16fe3"/></linearGradient><g transform="translate(56.391766 -.176777)"><path d="m12.980469 1.46875c-1.65105 0-2.980469 1.3294186-2.980469 2.9804688v52.3515622 2.199219.5c0 1.385 1.115 2.5 2.5 2.5h39c1.385 0 2.5-1.115 2.5-2.5v-55.0507812c0-1.6510502-1.329419-2.9804688-2.980469-2.9804688z" fill="url(#a)" transform="translate(-56.391766 .176777)"/><path d="m10 51.087891v5.71289 2.199219.5c0 1.385 1.115 2.5 2.5 2.5h39c1.385 0 2.5-1.115 2.5-2.5v-.5-2.199219-5.71289z" fill="#3d2248" transform="translate(-56.391766 .176777)"/><g fill="#fff" transform="translate(-.601538 -.234595)"><path d="m-33.787666 57.995317q-.4-.096-.632-.176-.232-.08-.48-.224-.248-.144-.36-.36-.112-.216-.112-.52 0-.2.064-.384.072-.192.232-.376.16-.192.472-.304.32-.12.752-.12.448 0 .768.096.32.088.496.264.176.176.264.36.088.184.128.44l-.696.088q-.096-.672-.912-.672-.856 0-.856.536 0 .24.184.352.184.112.688.248.072.016.264.072.2.048.264.072.072.016.24.072.168.048.232.08.072.032.2.096.136.064.192.12.056.056.136.144.08.088.112.184.04.088.064.208.032.12.032.256 0 .376-.176.648-.168.272-.44.416-.264.136-.528.192-.264.064-.52.064-1.536 0-1.776-1.336l.696-.112q.112.872 1.08.872.952 0 .952-.664 0-.072-.016-.128-.008-.064-.048-.112-.04-.048-.072-.08-.032-.04-.104-.072-.072-.04-.12-.056-.04-.024-.144-.048-.104-.032-.16-.048-.048-.016-.176-.04-.128-.032-.184-.048z"/><path d="m-29.571291 56.107317q-.512 0-.744.184-.224.176-.352.608l-.672-.096q.264-1.272 1.864-1.272.88 0 1.24.328.368.32.368 1.24v1.824q0 .44.216.848h-.728q-.104-.224-.136-.512-.728.608-1.536.608-.624 0-1.024-.312-.4-.32-.4-.872 0-.64.6-1.024.256-.168 1.104-.288.848-.128 1.192-.248v-.176q0-.84-.992-.84zm-.304 3.184q1.296 0 1.296-1.344v-.248q-.264.112-.88.208-.608.088-.96.248-.344.152-.344.504 0 .632.888.632z"/><path d="m-25.046166 56.107317q-.312 0-.52.12-.208.112-.312.336-.104.216-.144.464-.04.248-.04.584v2.16h-.712v-4.144h.712v.576q.304-.672 1.176-.672.904 0 1.168.72.488-.72 1.288-.72 1.28 0 1.28 1.392v2.848h-.712v-2.608q0-1.056-.728-1.056-1.008 0-1.008 1.248v2.416h-.712v-2.696q0-.968-.736-.968z"/><path d="m-16.525916 57.635317q0 .984-.48 1.608-.472.624-1.312.624-.688 0-1.104-.608v.512h-.712v-5.728h.712v2.04q.44-.552 1.144-.552.808 0 1.28.576.472.568.472 1.528zm-1.816-1.528q-.528 0-.808.432-.272.432-.272 1.12 0 .92.312 1.28.312.352.736.352.32 0 .552-.16.24-.16.36-.416.12-.264.168-.512.056-.256.056-.504 0-.688-.264-1.136-.264-.456-.84-.456z"/><path d="m-14.008791 56.107317q-.512 0-.744.184-.224.176-.352.608l-.672-.096q.264-1.272 1.864-1.272.88 0 1.24.328.368.32.368 1.24v1.824q0 .44.216.848h-.728q-.104-.224-.136-.512-.728.608-1.536.608-.624 0-1.024-.312-.4-.32-.4-.872 0-.64.6-1.024.256-.168 1.104-.288.848-.128 1.192-.248v-.176q0-.84-.992-.84zm-.304 3.184q1.296 0 1.296-1.344v-.248q-.264.112-.88.208-.608.088-.96.248-.344.152-.344.504 0 .632.888.632z"/></g><path d="m-33.480204 24.657551c1.767309 0 3.199983 1.432674 3.199983 3.199984 0 1.011385-.469188 1.913179-1.201769 2.499587 1.00992 3.073668 3.831663 5.326636 7.201769 5.500396 0 1.240623.513448 2.361297 1.339452 3.161179l-.939435.03885c-5.158737 0-9.502838-3.487731-10.803032-8.233819-1.171099-.475503-1.996952-1.624371-1.996952-2.966198 0-1.76731 1.432674-3.199984 3.199984-3.199984zm13.2-8.000033c1.767309 0 3.199983 1.432724 3.199983 3.200033 0 1.76731-1.432674 3.199983-3.199983 3.199983-1.764026 0-3.194678-1.427368-3.199984-3.190181-.13253-.0065-.265869-.0098-.400016-.0098-3.107723 0-5.801533 1.772009-7.126232 4.360725-.704892-.480102-1.556564-.760725-2.473768-.760725l-.728085.05992c1.695613-4.030182 5.681381-6.859958 10.328085-6.859958.809633 0 1.599157.08594 2.360033.249094.381322-.160421.800287-.249094 1.239967-.249094zm.400016 16.000017c.706055 0 1.358704.228682 1.887916.615966 1.31131-1.424842 2.112051-3.326854 2.112051-5.415966 0-1.747807-.560489-3.364699-1.511545-4.680758.88901-.774266 1.46405-1.899891 1.508766-3.160472 1.981137 2.020295 3.202812 4.788126 3.202812 7.84123 0 3.473078-1.580867 6.57696-4.062265 8.63131-.293153 1.46496-1.586526 2.568707-3.137735 2.568707-1.767309 0-3.200033-1.432724-3.200033-3.200034 0-1.767309 1.432724-3.199983 3.200033-3.199983z" fill="#3d2248" stroke-linejoin="round" stroke-width=".2"/></g></svg>