<svg height="64" viewBox="0 0 64 64" width="64" xmlns="http://www.w3.org/2000/svg" xmlns:xlink="http://www.w3.org/1999/xlink"><linearGradient id="a" gradientTransform="matrix(1.0749904 0 0 1.0292896 56.688954 -.015285)" gradientUnits="userSpaceOnUse" x1="-74.929466" x2="-75.259552" y1="52.199436" y2="2.356489"><stop offset="0" stop-color="#8798a9"/><stop offset="1" stop-color="#aeb6be"/></linearGradient><g transform="translate(56.391766 -.176777)"><rect fill="#3d434a" height="7.69929" ry="2.5" width="44" x="-46.391766" y="54.477486"/><rect fill="url(#a)" height="52.831711" ry="2.5" width="44" x="-46.391766" y="1.645775"/><path d="m-46.391766 51.264462h44v7.911841h-44z" fill="#3d434a"/><g fill="#fff" transform="matrix(.81954967 0 0 .81954967 -4.634283 10.221831)"><path d="m-38.518632 59.820313q-.95 0-1.64-.75-.69-.75-.69-1.86 0-1.11.69-1.86.69-.75 1.64-.75.56 0 1 .24.45.24.67.6h.04l-.04-.68v-2.26h.92v7.16h-.88v-.68h-.04q-.22.36-.67.6-.44.24-1 .24zm.15-.84q.65 0 1.1-.48.46-.48.46-1.29 0-.81-.46-1.29-.45-.48-1.1-.48-.64 0-1.1.49-.46.48-.46 1.28 0 .8.46 1.29.46.48 1.1.48z"/><path d="m-32.645507 59.820313q-1.11 0-1.81-.74-.69-.74-.69-1.87 0-1.07.67-1.84.68-.77 1.73-.77 1.09 0 1.74.71.66.71.66 1.9l-.01.17h-3.87q.04.74.49 1.17.46.43 1.07.43.99 0 1.34-.84l.82.34q-.24.57-.79.96-.55.38-1.35.38zm1.32-3.2q-.03-.42-.39-.8-.35-.38-1.05-.38-.51 0-.89.32-.37.32-.51.86z"/><path d="m-27.63535 59.820313q-.82 0-1.36-.4-.53-.4-.78-1l .82-.34q.39.92 1.33.92.43 0 .7-.19.28-.19.28-.5 0-.48-.67-.65l-.99-.24q-.47-.12-.89-.45-.42-.34-.42-.91 0-.65.57-1.05.58-.41 1.37-.41.65 0 1.16.3.51.29.73.84l-.8.33q-.27-.65-1.12-.65-.41 0-.69.17-.28.17-.28.46 0 .42.65.57l.97.23q.69.16 1.02.55.33.39.33.88 0 .66-.54 1.1-.54.44-1.39.44z"/><path d="m-23.984569 52.500313v4.41l2.12-2.15h1.18v.04l-1.91 1.91 2 2.91v.04h-1.11l-1.54-2.31-.74.74v1.57h-.92v-7.16z"/><path d="m-17.96035 59.740313q-.77 0-1.18-.41-.4-.41-.4-1.16v-2.57h-.86v-.84h.86v-1.5h.92v1.5h1.2v.84h-1.2v2.5q0 .8.66.8.25 0 .42-.08l.32.79q-.3.13-.74.13z"/><path d="m-16.173788 55.350313q.71-.75 1.81-.75 1.1 0 1.81.75.71.74.71 1.86 0 1.12-.71 1.87-.71.74-1.81.74-1.1 0-1.81-.74-.71-.75-.71-1.87 0-1.12.71-1.86zm.68 3.15q.48.48 1.13.48.65 0 1.12-.48.48-.49.48-1.29 0-.8-.48-1.28-.47-.49-1.12-.49-.65 0-1.13.49-.47.48-.47 1.28 0 .8.47 1.29z"/><path d="m-8.5069128 59.820313q-.56 0-1.01-.24-.44-.24-.6600002-.6h-.04l.04.68v2.16h-.92v-7.06h.88v.68h.04q.2200002-.36.6600002-.6.45-.24 1.01-.24.95 0 1.64.75.69.75.69 1.86 0 1.11-.69 1.86-.69.75-1.64.75zm-.15-.84q.64 0 1.1-.48.46-.49.46-1.29 0-.8-.46-1.28-.46-.49-1.1-.49-.65 0-1.11.48-.4500002.48-.4500002 1.29 0 .81.4500002 1.29.46.48 1.11.48z"/></g><g fill="#3d434a" transform="matrix(.18603078 0 0 .18603078 -33.116274 16.176777)"><path d="m86.068 0c-24.602 0-29.217 35.041-15.377 35.041 13.838 0 39.98-35.041 15.377-35.041z"/><path d="m45.217 30.699c7.369.45 15.454-28.122 1.604-26.325-13.845 1.797-8.976 25.875-1.604 26.325z"/><path d="m11.445 48.453c5.241-2.307.675-24.872-8.237-18.718-8.908 6.155 2.996 21.024 8.237 18.718z"/><path d="m26.212 36.642c6.239-1.272 6.581-26.864-4.545-22.273-11.128 4.592-1.689 23.547 4.545 22.273z"/><path d="m58.791 93.913c1.107 8.454-6.202 12.629-13.36 7.179-22.787-17.349 37.729-26.004 33.74-49.706-3.311-19.674-63.676-13.617-70.55 17.167-4.653 20.821 19.153 49.707 43.993 49.707 12.22 0 26.315-11.034 28.952-25.012 2.014-10.659-23.699-6.388-22.775.665z"/></g></g></svg>