<svg height="64" viewBox="0 0 64 64" width="64" xmlns="http://www.w3.org/2000/svg" xmlns:xlink="http://www.w3.org/1999/xlink"><linearGradient id="a" gradientTransform="matrix(1.0749904 0 0 1.0292896 56.688954 -.015285)" gradientUnits="userSpaceOnUse" x1="-74.929466" x2="-75.259552" y1="52.199436" y2="2.356489"><stop offset="0" stop-color="#8798a9"/><stop offset="1" stop-color="#aeb6be"/></linearGradient><g transform="translate(56.391766 -.176777)"><rect fill="#3d434a" height="7.69929" ry="2.5" width="44" x="-46.391766" y="54.477486"/><rect fill="url(#a)" height="52.831711" ry="2.5" width="44" x="-46.391766" y="1.645775"/><path d="m-46.391766 51.264462h44v7.911841h-44z" fill="#3d434a"/><g fill="#fff" transform="matrix(.81954967 0 0 .81954967 -4.634283 10.221831)"><path d="m-38.518632 59.820313q-.95 0-1.64-.75-.69-.75-.69-1.86 0-1.11.69-1.86.69-.75 1.64-.75.56 0 1 .24.45.24.67.6h.04l-.04-.68v-2.26h.92v7.16h-.88v-.68h-.04q-.22.36-.67.6-.44.24-1 .24zm.15-.84q.65 0 1.1-.48.46-.48.46-1.29 0-.81-.46-1.29-.45-.48-1.1-.48-.64 0-1.1.49-.46.48-.46 1.28 0 .8.46 1.29.46.48 1.1.48z"/><path d="m-32.645507 59.820313q-1.11 0-1.81-.74-.69-.74-.69-1.87 0-1.07.67-1.84.68-.77 1.73-.77 1.09 0 1.74.71.66.71.66 1.9l-.01.17h-3.87q.04.74.49 1.17.46.43 1.07.43.99 0 1.34-.84l.82.34q-.24.57-.79.96-.55.38-1.35.38zm1.32-3.2q-.03-.42-.39-.8-.35-.38-1.05-.38-.51 0-.89.32-.37.32-.51.86z"/><path d="m-27.63535 59.820313q-.82 0-1.36-.4-.53-.4-.78-1l .82-.34q.39.92 1.33.92.43 0 .7-.19.28-.19.28-.5 0-.48-.67-.65l-.99-.24q-.47-.12-.89-.45-.42-.34-.42-.91 0-.65.57-1.05.58-.41 1.37-.41.65 0 1.16.3.51.29.73.84l-.8.33q-.27-.65-1.12-.65-.41 0-.69.17-.28.17-.28.46 0 .42.65.57l.97.23q.69.16 1.02.55.33.39.33.88 0 .66-.54 1.1-.54.44-1.39.44z"/><path d="m-23.984569 52.500313v4.41l2.12-2.15h1.18v.04l-1.91 1.91 2 2.91v.04h-1.11l-1.54-2.31-.74.74v1.57h-.92v-7.16z"/><path d="m-17.96035 59.740313q-.77 0-1.18-.41-.4-.41-.4-1.16v-2.57h-.86v-.84h.86v-1.5h.92v1.5h1.2v.84h-1.2v2.5q0 .8.66.8.25 0 .42-.08l.32.79q-.3.13-.74.13z"/><path d="m-16.173788 55.350313q.71-.75 1.81-.75 1.1 0 1.81.75.71.74.71 1.86 0 1.12-.71 1.87-.71.74-1.81.74-1.1 0-1.81-.74-.71-.75-.71-1.87 0-1.12.71-1.86zm.68 3.15q.48.48 1.13.48.65 0 1.12-.48.48-.49.48-1.29 0-.8-.48-1.28-.47-.49-1.12-.49-.65 0-1.13.49-.47.48-.47 1.28 0 .8.47 1.29z"/><path d="m-8.5069128 59.820313q-.56 0-1.01-.24-.44-.24-.6600002-.6h-.04l.04.68v2.16h-.92v-7.06h.88v.68h.04q.2200002-.36.6600002-.6.45-.24 1.01-.24.95 0 1.64.75.69.75.69 1.86 0 1.11-.69 1.86-.69.75-1.64.75zm-.15-.84q.64 0 1.1-.48.46-.49.46-1.29 0-.8-.46-1.28-.46-.49-1.1-.49-.65 0-1.11.48-.4500002.48-.4500002 1.29 0 .81.4500002 1.29.46.48 1.11.48z"/></g><path d="m-22.289035 12.987892-4.899992.471156v20.186272l4.84762-.732911v-8.606374l6.522825 9.548651 5.109392-1.622833-6.679871-9.182239 6.732243-8.658712-5.214084-1.193592-6.470505 8.658694.05246-8.868112zm-11.108725 4.920924c-.05554.0034-.1152.02109-.1572.06257l-1.926469 1.926468c-.08074.08109-.09086.205492-.02949.303841l2.251019 3.716857c-.399653.671882-.724254 1.392656-.952752 2.156801l-4.135675.85857c-.1152.0252-.198772.1332-.198772.251315v2.722208c0 .1152.08743.213909.198772.240806l4.010018.973718c.214337.884659.54571 1.731262.984191 2.502333l-2.324355 3.538879c-.0648.09874-.05212.230726.02949.313938l1.926468 1.926503c.08109.08074.205492.0912.303412.02949l3.643606-2.209173c.714636.412682 1.488312.743128 2.303389.963209l.848077 4.083372c.0252.115543.123086.198772.240789.198772h2.72226c.114343 0 .21348-.07697.240806-.188263l1.005106-4.104253c.840637-.226509 1.633171-.563093 2.366218-.994648l3.591251 2.355761c.09909.06463.230298.05211.313921-.02949l1.916046-1.926468c.0816-.08109.101657-.20551.042-.30343l-1.308741-2.156852-.429293.136115c-.06171.02109-.130629-.0086-.167658-.06257 0 0-.826716-1.216118-1.905537-2.795494-1.290261 2.524688-3.921526 4.250824-6.952152 4.250824-4.306435 0-7.800177-3.493742-7.800177-7.800177 0-3.167718 1.894274-5.888452 4.606814-7.109148v-2.01028c-.493665.172732-.970615.381173-1.423925.628236-.00084-.000548.00084-.0086 0-.012l-3.674959-2.408083c-.04954-.0336-.101658-.03789-.157201-.02949z" fill="#3d434a" fill-opacity=".85"/></g></svg>