<svg height="64" viewBox="0 0 64 64" width="64" xmlns="http://www.w3.org/2000/svg" xmlns:xlink="http://www.w3.org/1999/xlink"><linearGradient id="a" gradientTransform="matrix(1.0749904 0 0 1.0292896 56.688954 -.015285)" gradientUnits="userSpaceOnUse" x1="-74.929466" x2="-75.259552" y1="52.199436" y2="2.356489"><stop offset="0" stop-color="#eb9e27"/><stop offset="1" stop-color="#f5a931"/></linearGradient><g transform="translate(56.391766 -.176777)"><rect fill="url(#a)" height="52.831711" ry="2.5" width="44" x="-46.391766" y="1.645775"/><rect fill="#674511" height="7.69929" ry="2.5" width="44" x="-46.391766" y="54.477486"/><path d="m-46.391766 51.264462h44v7.911841h-44z" fill="#674511"/><g fill="#fff" transform="matrix(.81954967 0 0 .81954967 -4.93456 9.221728)"><path d="m-28.322799 60.918881q-1.1 0-1.81-.74-.71-.75-.71-1.87 0-1.12.71-1.86.71-.75 1.81-.75.82 0 1.36.4.54.4.79 1.01l-.84.35q-.38-.92-1.37-.92-.61 0-1.08.5-.46.5-.46 1.27 0 .77.46 1.27.47.5 1.08.5 1.03 0 1.42-.92l.82.35q-.25.6-.81 1.01-.55.4-1.37.4z"/><path d="m-23.527955 60.918881q-.82 0-1.36-.4-.53-.4-.78-1l .82-.34q.39.92 1.33.92.43 0 .7-.19.28-.19.28-.5 0-.48-.67-.65l-.99-.24q-.47-.12-.89-.45-.42-.34-.42-.91 0-.65.57-1.05.58-.41 1.37-.41.65 0 1.16.3.51.29.73.84l-.8.33q-.27-.65-1.12-.65-.41 0-.69.17-.28.17-.28.46 0 .42.65.57l.97.23q.69.16 1.02.55.33.39.33.88 0 .66-.54 1.1-.54.44-1.39.44z"/><path d="m-18.977174 60.918881q-.82 0-1.36-.4-.53-.4-.78-1l .82-.34q.39.92 1.33.92.43 0 .7-.19.28-.19.28-.5 0-.48-.67-.65l-.99-.24q-.47-.12-.89-.45-.42-.34-.42-.91 0-.65.57-1.05.58-.41 1.37-.41.65 0 1.16.3.51.29.73.84l-.8.33q-.27-.65-1.12-.65-.41 0-.69.17-.28.17-.28.46 0 .42.65.57l.97.23q.69.16 1.02.55.33.39.33.88 0 .66-.54 1.1-.54.44-1.39.44z"/></g><g fill="#674511" transform="translate(-448.97909 -513.06633)"><path d="m420.71951 551.24312q-1.84934 0-2.93013-1.08079-1.05676-1.08078-1.05676-2.88209v-4.10698q0-.98472-.50437-1.48909-.50437-.52838-1.27293-.52838v-1.82533q.76856 0 1.27293-.50436.50437-.52839.50437-1.5131v-4.10698q0-1.80131 1.05676-2.8821 1.08079-1.08078 2.93013-1.08078h.52838v1.82532h-.52838q-.84061 0-1.41703.60044-.5524.60044-.5524 1.60917v4.10698q0 2.18559-1.6572 2.81004v.0961q1.6572.57642 1.6572 2.81004v4.10699q0 1.00873.5524 1.60916.57642.60044 1.41703.60044h.52838v1.82533h-.52838z" fill="#674511"/><path d="m428.62275 551.24312h-.52838v-1.82533h.52838q.84061 0 1.39301-.60044.57642-.60043.57642-1.60916v-4.10699q0-2.23362 1.65721-2.81004v-.0961q-1.65721-.62445-1.65721-2.81004v-4.10698q0-1.00873-.57642-1.60917-.5524-.60044-1.39301-.60044h-.52838v-1.82532h.52838q1.84934 0 2.90611 1.08078 1.08079 1.08079 1.08079 2.8821v4.10698q0 .98471.50436 1.5131.50437.50436 1.27293.50436v1.82533q-.76856 0-1.27293.52838-.50436.50437-.50436 1.48909v4.10698q0 1.80131-1.08079 2.88209-1.05677 1.08079-2.90611 1.08079z" fill="#674511"/></g></g></svg>