<svg height="64" viewBox="0 0 64 64.000001" width="64" xmlns="http://www.w3.org/2000/svg" xmlns:xlink="http://www.w3.org/1999/xlink"><linearGradient id="a" gradientTransform="matrix(1.0749904 0 0 1.1792904 113.08072 987.92807)" gradientUnits="userSpaceOnUse" x1="-74.929466" x2="-75.259552" y1="52.199436" y2="2.356489"><stop offset="0" stop-color="#e10000"/><stop offset="1" stop-color="#f55"/></linearGradient><g transform="translate(0 -988.3622)"><rect fill="url(#a)" height="60.531002" ry="2.864331" width="44" x="10" y="989.83118"/><path d="m10 1039.4501v5.7129 2.1992.5c0 1.385 1.115 2.5 2.5 2.5h39c1.385 0 2.5-1.115 2.5-2.5v-.5-2.1992-5.7129z" fill="#800000"/><path d="m26 1006.0536v5.5391s13.845703 1.3857 13.845703 3.6933v-5.539s.000474-2.3087-13.845703-3.6934zm0 7.3848v5.539s13.845703 1.3858 13.845703 3.6934v-5.5391s.000474-2.3087-13.845703-3.6933z" fill="#800000" fill-opacity=".470588"/><path d="m39.845703 1002.3622c0 2.3076-13.845703 3.6914-13.845703 3.6914v5.5391c13.846177-1.3847 13.845703-3.6914 13.845703-3.6914zm0 7.3848c0 2.3077-13.845703 3.6914-13.845703 3.6914v5.539c13.846177-1.3846 13.845703-3.6914 13.845703-3.6914zm0 7.3847c0 2.3077-13.845703 3.6914-13.845703 3.6914v5.5391c13.846177-1.3847 13.845703-3.6914 13.845703-3.6914z" fill="#800000"/><g fill="#fff"><path d="m25.446432 1046.1483q.24.195.4875.315.255.12.585.12.36 0 .54-.165.18-.165.18-.405 0-.1425-.075-.2475-.075-.105-.195-.18-.1125-.082-.2625-.1425-.15-.06-.3-.12-.195-.068-.39-.15-.195-.09-.3525-.21-.15-.1275-.2475-.2925-.0975-.165-.0975-.3975 0-.2175.0825-.405.09-.195.2475-.33.165-.1425.3975-.2175.2325-.082.525-.082.345 0 .63.12.2925.12.5025.2925l-.2925.39q-.1875-.1425-.39-.2325-.2025-.09-.4425-.09-.345 0-.51.1575-.1575.1575-.1575.3675 0 .1275.0675.225.0675.09.18.165.1125.068.255.1275.15.053.3075.1125.195.075.39.1575.2025.082.36.21.1575.12.255.3.105.18.105.435 0 .225-.09.42-.0825.195-.255.345-.165.15-.42.2325-.2475.09-.57.09-.39 0-.7425-.1425-.3525-.1425-.615-.36l.3075-.4125z"/><path d="m28.423346 1045.1583q0-.4575.1425-.81.1425-.36.3825-.6075.24-.2475.555-.375.3225-.1275.675-.1275.36 0 .615.135.2625.1275.45.3l-.3075.3975q-.165-.1425-.345-.2325-.1725-.09-.39-.09-.2475 0-.4575.105-.21.098-.36.285-.15.1875-.24.45-.0825.255-.0825.57 0 .315.0825.57.0825.255.225.4425.15.18.36.285.21.098.4575.098.2625 0 .4725-.105.2175-.1125.3825-.2625l.2775.405q-.2475.2175-.555.345-.3.1275-.63.1275-.36 0-.675-.1275-.315-.1275-.5475-.3675-.225-.2475-.36-.6-.1275-.36-.1275-.81z"/><path d="m31.85319 1046.0283q0-.6.5325-.915.54-.3225 1.71-.45 0-.1725-.0375-.3375-.03-.165-.12-.2925-.0825-.1275-.225-.2025-.1425-.082-.3675-.082-.3225 0-.6.12-.27.12-.4875.27l-.2475-.4275q.255-.165.6225-.315.3675-.1575.81-.1575.6675 0 .9675.4125.3.405.3 1.0875v2.235h-.51l-.0525-.435h-.015q-.2625.2175-.57.375-.3.15-.6375.15-.465 0-.7725-.27-.3-.27-.3-.765zm.6075-.045q0 .315.18.45.1875.135.4575.135.2625 0 .495-.12.24-.1275.5025-.3675v-1.0125q-.4575.06-.7725.1425-.315.082-.51.195-.1875.1125-.27.2625-.0825.1425-.0825.315z"/><path d="m35.871081 1041.6333h.615v4.65q0 .15.0525.21.0525.06.12.06.03 0 .0525 0 .03 0 .0825-.015l.0825.465q-.06.03-.1425.045-.0825.015-.21.015-.3525 0-.5025-.21-.15-.21-.15-.615z"/><path d="m37.610026 1046.0283q0-.6.5325-.915.54-.3225 1.71-.45 0-.1725-.0375-.3375-.03-.165-.12-.2925-.0825-.1275-.225-.2025-.1425-.082-.3675-.082-.3225 0-.6.12-.27.12-.4875.27l-.2475-.4275q.255-.165.6225-.315.3675-.1575.81-.1575.6675 0 .9675.4125.3.405.3 1.0875v2.235h-.51l-.0525-.435h-.015q-.2625.2175-.57.375-.3.15-.6375.15-.465 0-.7725-.27-.3-.27-.3-.765zm.6075-.045q0 .315.18.45.1875.135.4575.135.2625 0 .495-.12.24-.1275.5025-.3675v-1.0125q-.4575.06-.7725.1425-.315.082-.51.195-.1875.1125-.27.2625-.0825.1425-.0825.315z"/></g></g></svg>