<svg height="64" viewBox="0 0 64 64" width="64" xmlns="http://www.w3.org/2000/svg" xmlns:xlink="http://www.w3.org/1999/xlink"><linearGradient id="a" gradientTransform="matrix(1.0749904 0 0 1.0292896 113.08072 -.192059)" gradientUnits="userSpaceOnUse" x1="-74.929466" x2="-75.259552" y1="52.199436" y2="2.356489"><stop offset="0" stop-color="#2db07b"/><stop offset="1" stop-color="#43d38b"/></linearGradient><rect fill="url(#a)" height="52.831711" ry="2.5" width="43.999996" x="10" y="1.469"/><path d="m10 51.087891v5.71289 2.199219.5c0 1.385 1.115 2.5 2.5 2.5h39c1.384999 0 2.5-1.115 2.5-2.5v-.5-2.199219-5.71289z" fill="#144d36"/><g fill="#fff"><path d="m22.058123 57.557372q0-.4575.142501-.81.1425-.36.3825-.6075.239999-.2475.555-.375.3225-.1275.674999-.1275.360001 0 .615001.135.262499.1275.45.3l-.307501.3975q-.165-.1425-.344999-.2325-.1725-.09-.39-.09-.2475 0-.4575.105001-.21.0975-.360001.284999-.149999.1875-.24.45-.0825.255-.0825.57 0 .315.0825.57.0825.255.225001.4425.149999.18.359999.285.21.0975.4575.0975.262501 0 .472501-.104999.2175-.112501.3825-.262501l.277499.405q-.2475.2175-.555.345-.299999.1275-.629999.1275-.360001 0-.675-.1275-.315001-.1275-.5475-.3675-.225-.247499-.360001-.6-.1275-.359999-.1275-.81z"/><path d="m26.746209 57.129872h-1.364999v-.465h1.364999v-1.4625h.4875v1.4625h1.365001v.465h-1.365001v1.4625h-.4875z"/><path d="m30.466912 57.129872h-1.365v-.465h1.365v-1.4625h.487501v1.4625h1.364999v.465h-1.364999v1.4625h-.487501z"/><path d="m34.285999 54.032494h.615v1.454999l-.0225.75q.262501-.2475.5475-.419999.285-.18.6675-.18.5775 0 .84.36.27.36.27 1.065v2.31h-.615v-2.2275q0-.5175-.165-.7425-.165-.2325-.524999-.2325-.285001 0-.5025.1425-.217501.142499-.495001.42v2.64h-.615z"/><path d="m38.110413 57.557494q0-.4425.1275-.795.135-.36.3525-.607501.2175-.2475.5025-.382499.285-.135.6-.135.315 0 .5475.1125.2325.112499.4725.3075l-.03-.6225v-1.4025h.6225v5.34h-.51l-.0525-.4275h-.0225q-.2175.21-.5025.3675-.2775.149999-.6.149999-.689999 0-1.1025-.495-.405-.494999-.405-1.409999zm.6375-.0075q0 .66.2625 1.0275.2625.3675.7425.3675.255 0 .48-.12.225-.1275.45-.3825v-1.905q-.2325-.21-.45-.2925-.21-.09-.435-.09-.2175 0-.4125.105-.1875.0975-.33.285-.1425.18-.225.435-.0825.255-.0825.57z"/><path d="m42.533069 55.727494h.51l.0525.66h.0225q.1875-.345.449999-.5475.270001-.2025.585-.2025.217501 0 .390001.075l-.12.539999q-.09-.03-.165-.045-.075-.015-.187501-.015-.232499 0-.487499.1875-.2475.1875-.435001.652499v2.340001h-.614999v-3.645z"/></g><path d="m43.000001 15.999989v2.47945h2.479456v1.041093h-2.479456v2.47945h-1.041095v-2.47945h-2.479449v-1.041093h2.479449v-2.47945z" fill="#144d36" stroke="#144d36" stroke-width=".4"/><path d="m43.000001 24.247988v2.47945h2.479456v1.041095h-2.479456v2.47945h-1.041095v-2.47945h-2.479449v-1.041095h2.479449v-2.47945z" fill="#144d36" stroke="#144d36" stroke-width=".4"/><path d="m21.022366 16.237494h2.905v9.625001h10.675003v-9.625001h2.94v22.96h-2.94v-10.815h-10.675003v10.815h-2.905z" fill="#144d36"/></svg>