<svg height="64" viewBox="0 0 64 64" width="64" xmlns="http://www.w3.org/2000/svg" xmlns:xlink="http://www.w3.org/1999/xlink"><linearGradient id="a" gradientUnits="userSpaceOnUse" x1="-94.520348" x2="-79.632637" y1="27.376059" y2="-5.562583"><stop offset="0" stop-color="#fff" stop-opacity=".784314"/><stop offset="1" stop-color="#fff"/></linearGradient><linearGradient id="b" gradientUnits="userSpaceOnUse" x1="-23.294227" x2="-52.866659" y1="-5.72524" y2="21.348618"><stop offset="0" stop-color="#fff"/><stop offset="1" stop-color="#ccc" stop-opacity=".666667"/></linearGradient><linearGradient id="c" gradientUnits="userSpaceOnUse" x1="-23.95402" x2="-24.712799" y1="2.176777" y2="61.176777"><stop offset="0" stop-color="#62cbcb"/><stop offset="1" stop-color="#6290cb"/></linearGradient><g transform="translate(56.391766 -.176777)"><rect fill="url(#c)" height="60.531002" ry="2.864331" width="44" x="-46.391766" y="1.645775"/><path d="m10 51.087891v5.71289 2.199219.5c0 1.385 1.115 2.5 2.5 2.5h39c1.385 0 2.5-1.115 2.5-2.5v-.5-2.199219-5.71289z" fill-opacity=".666667" transform="translate(-56.391766 .176777)"/><g fill="#fff" transform="translate(82.893819 14.377386)"><path d="m-122.7539 45.207336v-5.728h1.176l1.552 4.76 1.552-4.76h1.176v5.728h-.76v-4.84l-1.624 4.84h-.688l-1.624-4.84v4.84z"/><path d="m-114.40165 39.479336h.736l2.312 5.728h-.816l-.656-1.712h-2.416l-.656 1.712h-.816zm-.584 3.344h1.904l-.624-1.648q-.256-.696-.328-1.096-.072.4-.328 1.096z"/><path d="m-109.29752 45.207336v-5.056h-1.888v-.672h4.552v.672h-1.904v5.056z"/><path d="m-105.90252 45.207336v-5.728h.76v5.056h2.816v.672z"/><path d="m-99.745397 39.479336h.736l2.312 5.728h-.816l-.656-1.712h-2.416003l-.656 1.712h-.816zm-.584003 3.344h1.904003l-.624-1.648q-.256-.696-.328-1.096-.072.4-.328 1.096z"/><path d="m-93.977272 39.479336q.344 0 .648.072.312.064.608.224.296.152.472.456.176.296.176.712 0 .824-.816 1.208 1.072.328 1.072 1.4 0 1.656-2.128 1.656h-2.176v-5.728zm-.152 2.408q.712 0 1-.216.296-.216.296-.632 0-.544-.336-.712-.328-.176-1.056-.176h-1.136v1.736zm1.552 1.664q0-.488-.32-.736-.32-.256-1.144-.256h-1.32v1.976h1.416q.736 0 1.048-.256.32-.256.32-.728z"/></g><g transform="matrix(.53832009 0 0 .53832009 22.348392 19.221386)"><path d="m-23.294922-5.7246094c-3.09357.326196-5.072427 3.0835795-6.179687 5.92968752-5.18794 12.90732388-9.844444 10.34961788-22.298829 15.79492188-.177559.1685.01019.480791.419922.712891.40977.2391 2.738638 1.832328 5.210938 3.548828 2.4632 1.7164 4.605282 3.111993 4.757812 3.121093.0011 0 .01057-.0058.01172-.0059l2.023438-1.998047c2.07673-2.0359 6.561927-8.417981 8.398437-11.925781.61842-1.184 1.845488-3.7591156 2.710938-5.7285156 2.094538-4.7369393 4.182114-8.7060869 4.947265-9.40625-.0033-.00817.0047-.04219-.002-.042969z" fill="url(#b)" transform="translate(-56.391766 .176777)"/><path d="m-79.130065-5.6425824c-.1789-.03-.3241-.011-.50257.08-.72575.5792-2.8621 4.63210005-4.99845 9.4636-.86545 1.9694-2.09376 4.5453-2.71218 5.7293-1.83651 3.5078004-6.32217 9.8896004-8.3989 11.9255004l-2.02296 1.9985 1.53061 1.4956c.88589.9711 2.05628 2.9882 3.02735 5.2438 1.84333 4.2982 2.16362 4.9184 2.51627 4.9184.16695 0 1.11247-.5333 2.16531-1.2045 2.34931-1.5248 4.54529-3.5742 7.53345-7.0616 4.66454-5.4362 8.1655-6.5879 12.477392-4.0921 1.165283.6781 2.122723 1.104 2.122723.9455 0-.1669-.59627-1.8041-1.308388-3.6474-.712117-1.8434-2.652552-7.048-4.301666-11.5660003-1.103951-1.8586001-4.553801-13.8829-7.131401-14.2287001z" fill="url(#a)"/></g></g></svg>