<svg height="64" viewBox="0 0 64 64" width="64" xmlns="http://www.w3.org/2000/svg" xmlns:xlink="http://www.w3.org/1999/xlink"><linearGradient id="a" gradientTransform="matrix(1.0749904 0 0 1.0292896 56.688954 -.015285)" gradientUnits="userSpaceOnUse" x1="-74.929466" x2="-75.259552" y1="52.199436" y2="2.356489"><stop offset="0" stop-color="#32d746"/><stop offset="1" stop-color="#4ee27d"/></linearGradient><g transform="translate(56.391766 -.176777)"><rect fill="#175e22" height="7.69929" ry="2.5" width="44" x="-46.391766" y="54.477486"/><rect fill="url(#a)" height="52.831711" ry="2.5" width="44" x="-46.391766" y="1.645775"/><path d="m-46.391766 51.264462h44v7.911841h-44z" fill="#175e21"/><g transform="matrix(.86557708693 0 0 .86557708693 -43.839835132721 -859.68183310948)"><path d="m11.447345 1036.9442h11.636697l-.000321-24.4983-11.533282.0003c-1.268259-.094-1.7825661.023-1.7825661 1.1721v22.0916c-.07966 1.261.4462081 1.2343 1.6794721 1.2343z" fill="#175e21" fill-rule="evenodd"/><path d="m33.843953 1036.9367h-5.282394l-2.708421-2.2737v-19.9506l1.855796-2.2737h6.135019c.848365-.094.916631.023.916631 1.1721v22.0916c.05328 1.261-.09168 1.2343-.916631 1.2343z" fill="none" stroke="#175e21" stroke-width=".811708"/><path d="m31.841628 1038.1035-10.029586-1.1715-.00002-24.4861 9.945926-.9324c1.230149-.094 1.296492.2446 1.296492 1.3937l-.08368 23.3688c.07726 1.261.06707 1.8275-1.129132 1.8275z" fill="#175e21" fill-rule="evenodd"/></g><g fill="#40dc61" transform="matrix(-.00073528 -.8933959 1.2269177 -.0005354 -1284.347928 25.892955)"><rect height="2.230492" rx="0" ry=".312" transform="matrix(.9999997 -.00076878 -.00033677 .99999994 0 0)" width="5.212101" x="-7.661656" y="1021.9603"/><rect height="2.230492" rx="0" ry=".312" transform="matrix(.99999996 -.00028909 -.00019502 .99999998 0 0)" width="8.026417" x="-7.788025" y="1025.1064"/><rect height="2.230492" rx="0" ry=".312" transform="matrix(1 -.00005846 -.00005327 1 0 0)" width="10.840734" x="-7.957212" y="1028.3694"/></g><g transform="matrix(.68771415 0 0 .68771415 64.032718 21.674191)"><path d="m-133.18392 55.678054q-1.52625 0-2.48875-1.0175-.94875-1.0175-.94875-2.57125 0-1.47125.92125-2.53.935-1.05875 2.37875-1.05875 1.49875 0 2.3925.97625.9075.97625.9075 2.6125l-.0137.23375h-5.32125q.055 1.0175.67375 1.60875.6325.59125 1.47125.59125 1.36125 0 1.8425-1.155l1.1275.4675q-.33.78375-1.08625 1.32-.75625.5225-1.85625.5225zm1.815-4.4q-.0412-.5775-.53625-1.1-.48125-.5225-1.44375-.5225-.70125 0-1.22375.44-.50875.44-.70125 1.1825z" fill="#fff"/><path d="m-121.77787 55.568054q-1.05875 0-1.6225-.56375-.55-.56375-.55-1.595v-3.53375h-3.135v3.4375q0 1.1.9075 1.1.34375 0 .5775-.11l.44 1.08625q-.4125.17875-1.0175.17875-1.05875 0-1.6225-.56375-.55-.56375-.55-1.595v-3.53375h-1.1825v-1.155h1.1825v-2.0625h1.265v2.0625h3.135v-2.0625h1.265v2.0625h1.65v1.155h-1.65v3.4375q0 1.1.9075 1.1.34375 0 .5775-.11l.44 1.08625q-.4125.17875-1.0175.17875z" fill="#fff"/></g></g></svg>