<svg xmlns="http://www.w3.org/2000/svg" viewBox="0 0 16 16">
  <defs id="defs3051">
    <style type="text/css" id="current-color-scheme">
      .ColorScheme-Text {
        color:#f2f2f2;
      }
      </style>
  </defs>
 <path 
     style="fill:currentColor;fill-opacity:1;stroke:none" 
     class="ColorScheme-Text"
     d="M 7.4179688 0.15234375 L 1.5058594 3.5214844 L 4.3652344 5.1484375 L 7.4179688 3.4121094 L 7.4179688 0.15234375 z M 8.6503906 0.15234375 L 8.6503906 3.4121094 L 11.701172 5.1523438 L 14.558594 3.5273438 L 8.6503906 0.15234375 z M 8.0332031 4.0371094 L 4.6054688 5.9902344 L 4.6035156 9.8984375 L 8.0292969 11.853516 L 11.457031 9.9023438 L 11.458984 5.9921875 L 8.0332031 4.0371094 z M 0.890625 4.5742188 L 0.88867188 11.310547 L 3.7460938 9.6855469 L 3.7460938 6.2011719 L 0.890625 4.5742188 z M 15.173828 4.5800781 L 12.316406 6.2050781 L 12.316406 9.6894531 L 15.171875 11.316406 L 15.173828 4.5800781 z M 4.3613281 10.736328 L 1.5039062 12.365234 L 7.4160156 15.738281 L 7.4160156 12.478516 L 4.3613281 10.736328 z M 11.697266 10.740234 L 8.6464844 12.478516 L 8.6464844 15.736328 L 14.556641 12.371094 L 11.697266 10.740234 z "
     />
</svg>
