<?xml version="1.0" encoding="UTF-8" standalone="no"?>
<svg
   xmlns:dc="http://purl.org/dc/elements/1.1/"
   xmlns:cc="http://creativecommons.org/ns#"
   xmlns:rdf="http://www.w3.org/1999/02/22-rdf-syntax-ns#"
   xmlns:svg="http://www.w3.org/2000/svg"
   xmlns="http://www.w3.org/2000/svg"
   xmlns:sodipodi="http://sodipodi.sourceforge.net/DTD/sodipodi-0.dtd"
   xmlns:inkscape="http://www.inkscape.org/namespaces/inkscape"
   viewBox="0 0 16 16"
   version="1.1"
   id="svg6"
   sodipodi:docname="folder-appimage.svg"
   inkscape:version="0.92.4 (5da689c313, 2019-01-14)">
  <metadata
     id="metadata10">
    <rdf:RDF>
      <cc:Work
         rdf:about="">
        <dc:format>image/svg+xml</dc:format>
        <dc:type
           rdf:resource="http://purl.org/dc/dcmitype/StillImage" />
        <dc:title />
      </cc:Work>
    </rdf:RDF>
  </metadata>
  <sodipodi:namedview
     pagecolor="#ffffff"
     bordercolor="#666666"
     borderopacity="1"
     objecttolerance="10"
     gridtolerance="10"
     guidetolerance="10"
     inkscape:pageopacity="0"
     inkscape:pageshadow="2"
     inkscape:window-width="1366"
     inkscape:window-height="713"
     id="namedview8"
     showgrid="false"
     inkscape:zoom="14.75"
     inkscape:cx="-4.0677966"
     inkscape:cy="8"
     inkscape:window-x="0"
     inkscape:window-y="32"
     inkscape:window-maximized="1"
     inkscape:current-layer="svg6" />
  <defs
     id="defs3051">
    <style
       type="text/css"
       id="current-color-scheme">
      .ColorScheme-Text {
        color:#4d4d4d;
      }
      </style>
  </defs>
  <path
     inkscape:connector-curvature="0"
     style="display:inline;overflow:visible;visibility:visible;fill:#f2f2f2;fill-opacity:1;fill-rule:nonzero;stroke:none;stroke-width:0.50089371;marker:none;enable-background:accumulate"
     id="path2317"
     d="M 6.3437521,1.35e-7 V 3.0000006 H 4.750002 L 7.8437494,6.5000009 10.937501,3.0000006 H 9.3437503 V 1.35e-7 Z M 7.4531264,7.0000012 c -0.086447,0 -0.1406252,0.1474597 -0.1406252,0.3281254 v 1.140624 C 6.9644748,8.5479979 6.6367277,8.6899356 6.3437521,8.8749999 L 5.5312518,8.0625004 C 5.403503,7.9347517 5.2642523,7.8763728 5.2031273,7.9374996 L 4.437502,8.7031259 C 4.376383,8.7642449 4.434812,8.9035016 4.5625018,9.0312512 L 5.3750004,9.8437509 C 5.1899361,10.136728 5.0480002,10.464476 4.9687511,10.812502 H 3.8281262 c -0.180663,0 -0.3281254,0.05417 -0.3281254,0.140625 v 1.09375 c 0,0.08645 0.1474615,0.140624 0.3281254,0.140624 h 1.1406249 c 0.079247,0.348025 0.221185,0.675774 0.4062493,0.968749 L 4.5625018,13.968751 C 4.4347531,14.0965 4.3763751,14.23575 4.437502,14.296877 l 0.7656253,0.765624 c 0.061119,0.06112 0.2003757,0.0028 0.3281245,-0.125001 l 0.8124994,-0.812499 c 0.2929756,0.185065 0.6207245,0.327002 0.96875,0.406251 v 1.140625 C 7.3125012,15.852539 7.3666712,16 7.4531255,16 h 1.0937507 c 0.086447,0 0.1406251,-0.147461 0.1406251,-0.328123 v -1.140625 c 0.3480256,-0.07925 0.6757726,-0.221186 0.96875,-0.406251 L 10.468751,14.9375 c 0.127749,0.12775 0.266998,0.186129 0.328125,0.125001 L 11.5625,14.296877 c 0.06112,-0.06112 0.0028,-0.200377 -0.125,-0.328126 L 10.625,13.15625 c 0.185064,-0.292975 0.327002,-0.620724 0.40625,-0.968749 h 1.140625 c 0.180665,0 0.328124,-0.05417 0.328124,-0.140624 v -1.09375 c 0,-0.08645 -0.147459,-0.140625 -0.328124,-0.140625 H 11.031251 C 10.952003,10.464476 10.810065,10.136728 10.625,9.8437509 l 0.8125,-0.8124997 c 0.127749,-0.1277496 0.186127,-0.2669985 0.125,-0.3281253 L 10.796876,7.9374996 c -0.06112,-0.061119 -0.200377,-0.00278 -0.328125,0.1250008 L 9.6562513,8.8749999 C 9.3632739,8.6899356 9.0355269,8.5479988 8.6875013,8.4687506 v -1.140624 c 0,-0.1806657 -0.05417,-0.3281254 -0.1406242,-0.3281254 z m 0.5468771,3.1093758 c 0.7643056,0 1.3906237,0.626317 1.3906237,1.390623 0,0.76431 -0.6263181,1.390627 -1.3906237,1.390627 -0.7643092,0 -1.3906264,-0.626317 -1.3906264,-1.390627 0,-0.764306 0.6263172,-1.390623 1.3906264,-1.390623 z" />
</svg>
