<svg xmlns="http://www.w3.org/2000/svg" viewBox="0 0 16 16">
  <defs id="defs3051">
    <style type="text/css" id="current-color-scheme">
      .ColorScheme-Text {
        color:#f2f2f2;
      }
      </style>
  </defs>
 <path 
     style="fill:currentColor;fill-opacity:1;stroke:none" 
     class="ColorScheme-Text"
     d="M 12.861328 0.3828125 C 9.6497823 0.3828125 9.0468416 4.9570312 10.853516 4.9570312 C 12.659929 4.9570312 16.073004 0.3828125 12.861328 0.3828125 z M 7.7382812 0.95507812 C 5.9309545 1.1896586 6.5669558 4.331882 7.5292969 4.390625 C 8.4912464 4.449368 9.5462607 0.72049769 7.7382812 0.95507812 z M 4.7089844 2.1914062 C 4.6297281 2.1998181 4.5458524 2.2223088 4.4550781 2.2597656 C 3.0024287 2.8592054 4.2350416 5.3323236 5.0488281 5.1660156 C 5.8123649 5.0103466 5.8978281 2.0652278 4.7089844 2.1914062 z M 2.453125 4.1269531 C 2.3268247 4.1227027 2.1903435 4.1652071 2.0449219 4.265625 C 0.88207129 5.0690989 2.4369335 7.0100097 3.1210938 6.7089844 C 3.719734 6.445473 3.337227 4.1567063 2.453125 4.1269531 z M 9.09375 5.6113281 C 6.6007529 5.5691525 3.3127857 6.8204411 2.7519531 9.3320312 C 2.1445504 12.050005 5.2515263 15.820313 8.4941406 15.820312 C 10.08934 15.820312 11.929203 14.381329 12.273438 12.556641 C 12.536345 11.165214 9.1801623 11.721879 9.3007812 12.642578 C 9.4452891 13.746164 8.4910462 14.291521 7.5566406 13.580078 C 4.582025 11.315339 12.481662 10.185857 11.960938 7.0917969 C 11.798856 6.1287052 10.589548 5.6366335 9.09375 5.6113281 z "
     />
</svg>
