<svg xmlns="http://www.w3.org/2000/svg" viewBox="0 0 16 16">
  <defs id="defs3051">
    <style type="text/css" id="current-color-scheme">
      .ColorScheme-Text {
        color:#4d4d4d;
      }
      </style>
  </defs>
 <path 
     style="fill:#bebebe;fill-opacity:1;stroke:none" 
     class="ColorScheme-Text"
     d="M 8 0.00390625 C 4.676 0.00390625 2 2.6799063 2 6.0039062 L 2 10.003906 C 2 10.003906 2 12.003906 4 12.003906 L 6 12.003906 L 6 7.0039062 L 4 7.0039062 L 4 6.0039062 C 4 3.7879063 5.784 2.0039062 8 2.0039062 C 10.216 2.0039062 12 3.7879063 12 6.0039062 L 12 7.0039062 L 10 7.0039062 L 10 12.003906 L 13 12.003906 C 13 13.665906 11.662 15.003906 10 15.003906 L 10 14.003906 L 6 14.003906 L 6 16.003906 L 10 16.003906 C 12.216 16.003906 14 14.219906 14 12.003906 L 14 10.003906 L 14 9.0039062 L 14 8.8222656 L 14 8.5039062 L 14 6.0039062 C 14 2.6799063 11.324 0.00390625 8 0.00390625 z "
     />
</svg>
