<svg xmlns="http://www.w3.org/2000/svg" viewBox="0 0 16 16">
  <defs id="defs3051">
    <style type="text/css" id="current-color-scheme">
      .ColorScheme-Text {
        color:#4d4d4d;
      }
      </style>
  </defs>
 <path 
     style="fill:#bebebe;fill-opacity:1;stroke:none" 
     class="ColorScheme-Text"
     d="M 8 0 C 6.33792 0 5 1.33792 5 3 L 5 8.0019531 C 5 9.6640331 6.33792 11.001953 8 11.001953 C 9.66208 11.001953 11 9.6640331 11 8.0019531 L 11 3 C 11 1.33792 9.66208 0 8 0 z M 2 7.0039062 L 2 8.0019531 C 2.00001 10.967483 4.16796 13.431446 7 13.910156 L 7 16.001953 L 9 16.001953 L 9 13.910156 C 11.83204 13.431446 14 10.967483 14 8.0019531 L 14 7.0039062 L 12 7.0039062 L 12 8.0019531 C 12 10.235363 10.23341 12.001953 8 12.001953 C 5.76659 12.001953 4 10.235363 4 8.0019531 L 4 7.0039062 L 2 7.0039062 z "
     />
</svg>
