<svg xmlns="http://www.w3.org/2000/svg" viewBox="0 0 16 16">
  <path fill="#bebebe" d="M7.063.01c-.455.05-.884.221-1.25.5C5.324.88 5 1.465 5 2.197V6.01H2.727A.725.725 0 0 0 2 6.736v6.545c0 .403.324.729.727.729h5.546A.726.726 0 0 0 9 13.28V6.736a.725.725 0 0 0-.727-.726H6V2.197c0-.449.172-.704.438-.906.265-.202.663-.3 1.062-.281.399.019.784.154 1.063.406.278.252.468.585.468 1.125 0 2.165 1.464 3.51 3 3.469.857-.023 1.688-.477 2.25-1.313l-.562-1C13.343 4.613 12.65 4.993 12 5.01c-.96.025-1.969-.73-1.969-2.469 0-.792-.337-1.444-.812-1.875C8.743.235 8.138.039 7.53.01c-.151-.007-.317-.017-.468 0zm6.937 2v.125l.781 1.375c.012-.041.021-.084.031-.125L14 2.01zm0 .344c-.006.106-.02.213-.031.312l.719 1.219c.023-.063.041-.123.062-.188L14 2.354zm-.063.5c-.013.09-.044.166-.062.25l.656 1.125c.03-.061.067-.124.094-.188l-.688-1.187zm-.093.437c-.024.089-.066.169-.094.25l.594 1.031c.04-.065.088-.118.125-.187l-.625-1.094z"/>
</svg>
