<svg xmlns="http://www.w3.org/2000/svg" viewBox="0 0 16 16">
  <path fill="#bebebe" d="M2.953.5c-.349 0-.683.138-.908.373-.225.236-.34.543-.371.863v-.011L.389 11.86a.476.476 0 0 0-.002.06H.385l.002.024a.476.476 0 0 0 .006.059l.228 2.732c.048.391.333.705.809.705h13.187c.476 0 .761-.314.809-.705l.187-2.797.002-.017h-.002a.476.476 0 0 0-.002-.06L14.326 1.724a.476.476 0 0 0-.006-.034c-.058-.29-.163-.576-.377-.81a1.229 1.229 0 0 0-.896-.38H2.953zm0 .951h10.094c.127 0 .148.02.195.072.047.051.106.17.143.35l1.261 9.945-.062.104H1.348l-.004-.018L2.619 1.846a.476.476 0 0 0 .002-.014.503.503 0 0 1 .113-.3c.048-.05.092-.08.22-.08zm5.098 1.373c-2.337 0-4.258 1.11-4.258 2.461 0 1.351 1.921 2.463 4.258 2.463 2.336 0 4.256-1.112 4.256-2.463s-1.92-2.46-4.256-2.46zm0 1.758c.668 0 1.215.317 1.215.703 0 .387-.547.703-1.215.703s-1.217-.316-1.217-.703c0-.386.549-.703 1.217-.703z"/>
</svg>
