<svg xmlns="http://www.w3.org/2000/svg" viewBox="0 0 16 16">
  <path fill="#bebebe" d="M2.953.5c-.349 0-.683.138-.908.373-.225.236-.34.543-.371.863v-.011L.389 11.86a.476.476 0 0 0-.002.06H.385l.002.024a.476.476 0 0 0 .006.059l.23 2.732c.048.391.33.705.807.705h13.187c.476 0 .761-.314.809-.705l.187-2.797.002-.017h-.002a.476.476 0 0 0-.002-.06L14.326 1.724a.476.476 0 0 0-.006-.034c-.058-.29-.163-.576-.377-.81a1.229 1.229 0 0 0-.896-.38H2.953zm0 .951h10.094c.127 0 .148.02.195.072.047.051.106.17.143.35l1.261 9.945-.062.104H1.348l-.004-.018L2.619 1.846a.476.476 0 0 0 .002-.014.503.503 0 0 1 .113-.3c.048-.05.092-.08.22-.08zm2.443 1.533l-1.5 1.211.5.403 1.502-1.211-.502-.403zm5.006 0L8.9 4.195l1.502 1.21 1.502-1.21-1.502-1.21zm-4.004.807L4.896 5.002l.5.402 1.502-1.209-.5-.404zm1.504.994c-.977 0-1.77.638-1.77 1.426 0 .788.793 1.428 1.77 1.428.978 0 1.77-.64 1.77-1.428 0-.788-.792-1.426-1.77-1.426zm0 .57c.587 0 1.06.383 1.06.856s-.473.855-1.06.855c-.586 0-1.062-.382-1.062-.855s.476-.856 1.062-.856zM6.84 8.21v.57h2.123v-.57H6.84zm0 1.14v.57h2.123v-.57H6.84z"/>
</svg>
