<svg xmlns="http://www.w3.org/2000/svg" viewBox="0 0 16 16">
  <path fill="#bebebe" d="M2.953.5c-.349 0-.683.138-.908.373-.225.236-.34.543-.371.863v-.011L.389 11.86a.476.476 0 0 0-.002.06H.385l.002.024a.476.476 0 0 0 .006.059l.23 2.732c.048.391.33.705.807.705h13.187c.476 0 .761-.314.809-.705l.187-2.797.002-.017h-.002a.476.476 0 0 0-.002-.06L14.326 1.724a.476.476 0 0 0-.006-.034c-.058-.29-.163-.576-.377-.81a1.229 1.229 0 0 0-.896-.38H2.953zm0 .951h10.094c.127 0 .148.02.195.072.047.051.106.17.143.35l1.261 9.945-.062.104H1.348l-.004-.018L2.619 1.846a.476.476 0 0 0 .002-.014.503.503 0 0 1 .113-.3c.048-.05.092-.08.22-.08zm5.06 1.326c-.047 0-.089.019-.11.05l-.817 1.128a.07.07 0 0 0 .004.09.14.14 0 0 0 .107.043h.412l-.007 3.236-1.272-.617v-.486c.197-.094.328-.255.328-.438.001-.29-.325-.525-.728-.525-.403 0-.73.233-.73.523-.001.183.128.346.325.44v.638c0 .097.065.187.176.24l1.899.922-.002.999c-.268.103-.453.305-.453.539-.001.339.38.614.851.615.472 0 .855-.274.856-.613 0-.234-.184-.435-.452-.54l.006-1.898 1.809-.873a.412.412 0 0 0 .06-.035c.075-.054.117-.126.118-.203l.002-.766h.156a.197.197 0 0 0 .113-.033.103.103 0 0 0 .047-.082v-.803c0-.064-.07-.115-.158-.115L9.437 4.21a.197.197 0 0 0-.113.033.103.103 0 0 0-.047.082l-.002.803c0 .063.072.115.16.115h.155v.611l-1.182.57.004-2.335h.412a.14.14 0 0 0 .108-.043.07.07 0 0 0 .004-.09l-.811-1.13a.138.138 0 0 0-.111-.05z"/>
</svg>
