<svg xmlns="http://www.w3.org/2000/svg" viewBox="0 0 16 16">
  <defs id="defs3051">
    <style type="text/css" id="current-color-scheme">
      .ColorScheme-Text {
        color:#4d4d4d;
      }
      </style>
  </defs>
 <path 
     style="fill:#bebebe;fill-opacity:1;stroke:none" 
     class="ColorScheme-Text"
     d="M 2.953125 0.5 C 2.6041342 0.5 2.2699282 0.63757868 2.0449219 0.87304688 C 1.8199156 1.1085151 1.7058541 1.4160686 1.6738281 1.7363281 L 1.6738281 1.7246094 L 0.38867188 11.861328 A 0.47594416 0.47594416 0 0 0 0.38671875 11.921875 L 0.38476562 11.921875 L 0.38671875 11.945312 A 0.47594416 0.47594416 0 0 0 0.39257812 12.003906 L 0.62109375 14.736328 C 0.66868341 15.127381 0.95379093 15.441406 1.4296875 15.441406 L 14.617188 15.441406 C 15.093084 15.441406 15.378192 15.127381 15.425781 14.736328 L 15.613281 11.939453 L 15.615234 11.921875 L 15.613281 11.921875 A 0.47594416 0.47594416 0 0 0 15.611328 11.861328 L 14.326172 1.7246094 A 0.47594416 0.47594416 0 0 0 14.320312 1.6914062 C 14.262055 1.4001181 14.157113 1.1147632 13.943359 0.88085938 C 13.729606 0.64695564 13.395866 0.5 13.046875 0.5 L 2.953125 0.5 z M 2.953125 1.4511719 L 13.046875 1.4511719 C 13.17378 1.4511719 13.195001 1.4718034 13.242188 1.5234375 C 13.288759 1.5743985 13.3477 1.6925336 13.384766 1.8730469 L 14.646484 11.818359 L 14.583984 11.921875 L 11.332031 11.921875 L 10.855469 11.921875 L 1.3476562 11.921875 L 1.34375 11.904297 L 2.6191406 1.8457031 A 0.47594416 0.47594416 0 0 0 2.6210938 1.8320312 C 2.6366557 1.6763943 2.6865299 1.5813197 2.734375 1.53125 C 2.7822201 1.4811803 2.8262192 1.4511719 2.953125 1.4511719 z M 8.0507812 2.8242188 C 5.7143413 2.8242188 3.7929688 3.9338462 3.7929688 5.2851562 C 3.7929688 6.6364663 5.7143412 7.7480469 8.0507812 7.7480469 C 10.387231 7.7480469 12.306641 6.6364663 12.306641 5.2851562 C 12.306641 3.9338462 10.387231 2.8242188 8.0507812 2.8242188 z M 8.0507812 4.5820312 C 8.7188612 4.5820312 9.265625 4.8987662 9.265625 5.2851562 C 9.265625 5.6715363 8.7188612 5.9882812 8.0507812 5.9882812 C 7.3827212 5.9882812 6.8339844 5.6715363 6.8339844 5.2851562 C 6.8339844 4.8987662 7.3827212 4.5820312 8.0507812 4.5820312 z "
     />
</svg>
