<svg viewBox="0 0 16 16" xmlns="http://www.w3.org/2000/svg"><path d="m2.8671875 2.4003906s-1.8671875.0005208-1.8671875 1.8671875v7.4648439c0 1.866667 1.8671875 1.867187 1.8671875 1.867187h10.2656245s1.867188-.00052 1.867188-1.867187v-7.4648439c0-1.8666667-1.867188-1.8671875-1.867188-1.8671875zm-.1171875 1.5996094h1.5c.1384999 0 .25.1114999.25.25v1.5c0 .1385-.1115001.25-.25.25h-1.5c-.1385001 0-.25-.1115-.25-.25v-1.5c0-.1385001.1114999-.25.25-.25zm3 0h1.5c.1384999 0 .25.1114999.25.25v1.5c0 .1385-.1115001.25-.25.25h-1.5c-.1385 0-.25-.1115-.25-.25v-1.5c0-.1385001.1115-.25.25-.25zm3 0h1.5c.1385 0 .25.1114999.25.25v1.5c0 .1385-.1115.25-.25.25h-1.5c-.1385001 0-.25-.1115-.25-.25v-1.5c0-.1385001.1114999-.25.25-.25zm3 0h1.5c.138501 0 .25.1114999.25.25v1.5c0 .1385-.111499.25-.25.25h-1.5c-.1385 0-.25-.1115-.25-.25v-1.5c0-.1385001.1115-.25.25-.25zm-9 3h1.5c.1384999 0 .25.1115.25.25v1.5c0 .1385-.1115001.25-.25.25h-1.5c-.1385001 0-.25-.1115-.25-.25v-1.5c0-.1385.1114999-.25.25-.25zm3 0h1.5c.1384999 0 .25.1115.25.25v1.5c0 .1385-.1115001.25-.25.25h-1.5c-.1385 0-.25-.1115-.25-.25v-1.5c0-.1385.1115-.25.25-.25zm3 0h1.5c.1385 0 .25.1115.25.25v1.5c0 .1385-.1115.25-.25.25h-1.5c-.1385001 0-.25-.1115-.25-.25v-1.5c0-.1385.1114999-.25.25-.25zm3 0h1.5c.138501 0 .25.1115.25.25v1.5c0 .1385-.111499.25-.25.25h-1.5c-.1385 0-.25-.1115-.25-.25v-1.5c0-.1385.1115-.25.25-.25zm-7 3h6.5c.1385 0 .25.1115.25.25v1.5c0 .138501-.1115.25-.25.25h-6.5c-.1385 0-.25-.111499-.25-.25v-1.5c0-.1385.1114999-.25.25-.25z" fill="#bebebe"/></svg>