<svg xmlns="http://www.w3.org/2000/svg" viewBox="0 0 16 16">
  <defs id="defs3051">
    <style type="text/css" id="current-color-scheme">
      .ColorScheme-Text {
        color:#4d4d4d;
      }
      </style>
  </defs>
 <path 
     style="fill:#bebebe;fill-opacity:1;stroke:none" 
     class="ColorScheme-Text"
     d="M 0.94921875 1.0039062 C 0.33961875 0.98400625 -0.08011125 1.5913263 0.01171875 2.1601562 C 0.01471875 5.8239463 0.00071875 9.4965763 0.01171875 13.160156 C 0.05301875 13.753066 0.68606875 14.086696 1.2304688 14.003906 C 5.2148487 14.000906 9.1837888 14.015306 13.167969 14.003906 C 13.760879 13.962606 14.094509 13.329556 14.011719 12.785156 C 14.011799 10.816396 14.011419 8.8476763 14.011719 6.8789062 L 12.011719 8.8789062 C 12.008719 9.9167163 12.011719 10.956936 12.011719 12.003906 L 2.0117188 12.003906 L 2.0117188 3.0039062 L 12.011719 3.0039062 C 12.012119 3.0460063 12.011339 3.0868062 12.011719 3.1289062 L 13.574219 1.5664062 C 13.644419 1.4962063 13.714709 1.4352463 13.792969 1.3789062 C 13.650729 1.1783663 13.425179 1.0039062 13.011719 1.0039062 C 11.283589 1.0039163 7.3958187 1.0039862 0.94921875 1.0039062 z M 15.011719 2.0039062 C 14.734719 2.0039062 14.473719 2.1044063 14.292969 2.2851562 L 8.2929688 8.2851562 C 8.1122188 8.4659062 8.0117188 8.7269063 8.0117188 9.0039062 L 8.0117188 10.003906 L 9.0117188 10.003906 C 9.2887187 10.003906 9.5497188 9.9034062 9.7304688 9.7226562 L 15.730469 3.7226562 C 15.911219 3.5419063 16.011719 3.2809062 16.011719 3.0039062 C 16.011719 2.4499062 15.565719 2.0039062 15.011719 2.0039062 z "
     />
</svg>
