<svg xmlns="http://www.w3.org/2000/svg" viewBox="0 0 16 16">
  <defs id="defs3051">
    <style type="text/css" id="current-color-scheme">
      .ColorScheme-Text {
        color:#4d4d4d;
      }
      </style>
  </defs>
 <path 
     style="fill:#bebebe;fill-opacity:1;stroke:none" 
     class="ColorScheme-Text"
     d="M 7 0.94140625 C 6.446 0.94140625 6 1.3874062 6 1.9414062 L 6 4.9414062 L 8 6.9414062 L 10 4.9414062 L 10 1.9414062 C 10 1.3874062 9.554 0.94140625 9 0.94140625 L 7 0.94140625 z M 2 6.0039062 C 1.446 6.0039062 1 6.4499062 1 7.0039062 L 1 9.0039062 C 1 9.5579063 1.44602 10.009036 2 10.003906 L 4.9375 10.003906 L 6.9375 8.0039062 L 4.9375 6.0039062 L 2 6.0039062 z M 11.0625 6.0039062 L 9.0625 8.0039062 L 11.0625 10.003906 L 14 10.003906 C 14.554 10.003906 15 9.5579063 15 9.0039062 L 15 7.0039062 C 15 6.4499062 14.554 6.0039062 14 6.0039062 L 11.0625 6.0039062 z M 8 9.0664062 L 6 11.066406 L 6 14.003906 C 6 14.557906 6.446 15.003906 7 15.003906 L 9 15.003906 C 9.554 15.003906 10 14.557906 10 14.003906 L 10 11.066406 L 8 9.0664062 z "
     />
</svg>
