<svg viewBox="0 0 16 16" xmlns="http://www.w3.org/2000/svg"><path d="m7.6308594 1c-.9545749.0098934-1.982285.0935628-2.6816406.7050781-1.071163.9366184-.9358045 1.5833114-1.0410157 2.8652344-.214773 2.6168613-.1329454 6.2046385.4375 8.7812495.1673276.755788.9333939 1.286073 1.7441407 1.431641.6222468.11172 1.2657807.196366 1.9101562.216797.6443746-.02042 1.2879105-.105067 1.9101562-.216797.8107468-.145568 1.5768138-.675853 1.7441408-1.431641.570448-2.576611.652271-6.1643882.4375-8.7812495-.105222-1.281923.030165-1.928616-1.041016-2.8652344-.699359-.6115158-1.7251134-.6951901-2.6796872-.7050781-.1247621-.001213-.2496475-.0001491-.3710938 0-.1214473-.0001491-.244378-.001213-.3691406 0zm .3691406 2c .3325209 0 .5996094.2738024.5996094.6152344v1.7675781c0 .3414265-.2670867.6171875-.5996094.6171875-.3325263 0-.5996094-.275761-.5996094-.6171875v-1.7675781c0-.3414318.2670847-.6152344.5996094-.6152344z" fill="#bebebe" stroke-width=".31512"/></svg>