<svg xmlns="http://www.w3.org/2000/svg" viewBox="0 0 16 16">
  <path fill="#bebebe" d="M8 .5A7.484 7.484 0 0 0 .5 8c0 4.155 3.345 7.5 7.5 7.5 4.155 0 7.5-3.345 7.5-7.5C15.5 3.845 12.155.5 8 .5zm2.88 5.625a.632.632 0 1 1 .001 1.266.635.635 0 0 1-.633-.635c0-.35.284-.631.633-.631zm1.444 0a.633.633 0 1 1 .004 1.266.633.633 0 0 1-.004-1.266zM8 7.063c.52 0 .938.418.938.937 0 .52-.419.938-.938.938A.935.935 0 0 1 7.062 8c0-.52.419-.938.938-.938zm2.484.552h2.237c.13 0 .234.13.234.291v.26c0 .017.016.081.184.023l.92-.32c.028-.011.091-.024.091.07v1.608c0 .07-.038.073-.072.062l-.953-.226c-.156-.037-.17.01-.17.023v.178c0 .161-.104.291-.234.291h-2.237c-.13 0-.236-.13-.236-.291V7.906c0-.16.106-.29.236-.29z"/>
</svg>
