<svg xmlns="http://www.w3.org/2000/svg" viewBox="0 0 16 16">
  <path fill="#bebebe" d="M8 .5A7.484 7.484 0 0 0 .5 8c0 4.155 3.345 7.5 7.5 7.5 4.155 0 7.5-3.345 7.5-7.5C15.5 3.845 12.155.5 8 .5zm5.193 5.165c.278-.034.57.024.778.187.417.326.507 1.068.181 1.485l-.216.278L12.2 9.838c-.435.556-1.424.678-1.98.244-.555-.434-.677-1.424-.243-1.98l1.737-2.222.277.216-1.736 2.223c-.326.416-.235 1.159.181 1.485.417.325 1.16.235 1.485-.182L13.658 7.4l.216-.278c.217-.278.157-.773-.12-.99-.279-.218-.774-.156-.991.122l-.216.277-1.304 1.668-.216.278a.378.378 0 0 0 .06.494.378.378 0 0 0 .495-.06l1.52-1.946.278.218-1.52 1.944c-.217.278-.711.34-.989.123-.278-.217-.34-.713-.123-.99l.218-.28 1.52-1.944c.163-.208.428-.335.707-.37zM8 7.062c.52 0 .938.419.938.938 0 .52-.419.938-.938.938A.935.935 0 0 1 7.062 8c0-.52.419-.938.938-.938z"/>
</svg>
