<svg xmlns="http://www.w3.org/2000/svg" viewBox="0 0 16 16">
  <path fill="#bebebe" d="M8 .5A7.484 7.484 0 0 0 .5 8c0 4.155 3.345 7.5 7.5 7.5 4.155 0 7.5-3.345 7.5-7.5C15.5 3.845 12.155.5 8 .5zm4.074 5.156c.046 0 .097.004.148.01h.002c.704.059 1.202.298 1.48.71.308.458.265 1.017.212 1.31a.065.065 0 0 1-.053.05.062.062 0 0 1-.066-.029 2.168 2.168 0 0 0-.282-.38c-.324-.348-.729-.532-1.168-.532-.037 0-.074.001-.112.004v2.596c0 .482-.36.877-.858.94-.046.005-.09.009-.136.009-.48 0-.885-.326-.94-.756a.829.829 0 0 1 .206-.65 1.053 1.053 0 0 1 1.087-.304V5.986c0-.152.125-.33.48-.33zm-6.85.01c.279-.035.57.023.778.186.417.326.507 1.068.182 1.485l-.216.278L4.23 9.838c-.434.556-1.424.678-1.98.244-.555-.434-.677-1.424-.243-1.98L3.745 5.88l.276.216-1.736 2.223c-.325.416-.235 1.159.182 1.485.416.325 1.159.235 1.485-.182L5.689 7.4l.216-.278c.217-.278.157-.773-.12-.99-.278-.218-.774-.156-.991.122l-.216.277-1.304 1.668-.216.278a.378.378 0 0 0 .06.494.378.378 0 0 0 .495-.06l1.52-1.946.278.218-1.52 1.944c-.217.278-.71.34-.989.123-.278-.217-.34-.713-.122-.99l.218-.28 1.52-1.944c.162-.208.428-.335.706-.37zM8 7.061c.52 0 .938.419.938.938 0 .52-.419.938-.938.938A.935.935 0 0 1 7.062 8c0-.52.419-.938.938-.938z"/>
</svg>
