<svg xmlns="http://www.w3.org/2000/svg" viewBox="0 0 16 16">
  <path fill="#bebebe" d="M8 .5A7.484 7.484 0 0 0 .5 8c0 4.155 3.345 7.5 7.5 7.5 4.155 0 7.5-3.345 7.5-7.5C15.5 3.845 12.155.5 8 .5zm1.68 2.72c.06.549-.16 1.098-.488 1.495-.328.396-.865.706-1.392.665-.07-.539.195-1.1.498-1.45.339-.396.91-.692 1.381-.71zm-.01 2.266c.306.013 1.163.122 1.714.928-.044.029-1.025.598-1.013 1.786.013 1.418 1.244 1.89 1.258 1.897-.01.032-.196.672-.648 1.333-.391.57-.797 1.14-1.436 1.151-.628.012-.83-.371-1.547-.371-.718 0-.942.359-1.536.382-.617.023-1.086-.615-1.48-1.184-.805-1.164-1.42-3.29-.593-4.725.41-.712 1.144-1.163 1.94-1.175.605-.011 1.175.408 1.545.408.37 0 1.066-.504 1.796-.43z"/>
</svg>
