<svg xmlns="http://www.w3.org/2000/svg" viewBox="0 0 16 16">
  <path fill="#bebebe" d="M8 11c-.546 0-1 .454-1 1s.454 1 1 1 1-.454 1-1-.454-1-1-1zm6.85-4.792A8.928 8.928 0 0 0 8 3a8.93 8.93 0 0 0-6.85 3.208c-.548.655.43 1.48.978.825A7.656 7.656 0 0 1 8 4.281a7.65 7.65 0 0 1 5.872 2.751c.548.654 1.525-.17.978-.824zM3.107 8.005c-.548.655.431 1.48.979.824A5.103 5.103 0 0 1 8 6.995c1.511 0 2.945.672 3.914 1.834.227.271.63.306.9.078a.642.642 0 0 0 .08-.902A6.38 6.38 0 0 0 8 5.714c-1.89 0-3.68.84-4.893 2.29zM8 8.532a3.828 3.828 0 0 0-2.936 1.375c-.548.655.431 1.48.979.824a2.547 2.547 0 0 1 3.914 0c.227.272.63.307.9.078a.642.642 0 0 0 .08-.902A3.827 3.827 0 0 0 8 8.532z">
</svg>
