<?xml version="1.0" encoding="UTF-8" standalone="no"?>
<svg
   xmlns:dc="http://purl.org/dc/elements/1.1/"
   xmlns:cc="http://creativecommons.org/ns#"
   xmlns:rdf="http://www.w3.org/1999/02/22-rdf-syntax-ns#"
   xmlns:svg="http://www.w3.org/2000/svg"
   xmlns="http://www.w3.org/2000/svg"
   xmlns:sodipodi="http://sodipodi.sourceforge.net/DTD/sodipodi-0.dtd"
   xmlns:inkscape="http://www.inkscape.org/namespaces/inkscape"
   viewBox="0 0 16 16"
   version="1.1"
   id="svg6"
   sodipodi:docname="phone-symbolic.svg"
   inkscape:version="0.92.1 r15371">
  <metadata
     id="metadata10">
    <rdf:RDF>
      <cc:Work
         rdf:about="">
        <dc:format>image/svg+xml</dc:format>
        <dc:type
           rdf:resource="http://purl.org/dc/dcmitype/StillImage" />
      </cc:Work>
    </rdf:RDF>
  </metadata>
  <sodipodi:namedview
     pagecolor="#ffffff"
     bordercolor="#666666"
     borderopacity="1"
     objecttolerance="10"
     gridtolerance="10"
     guidetolerance="10"
     inkscape:pageopacity="0"
     inkscape:pageshadow="2"
     inkscape:window-width="1600"
     inkscape:window-height="840"
     id="namedview8"
     showgrid="false"
     inkscape:zoom="14.75"
     inkscape:cx="8"
     inkscape:cy="8"
     inkscape:window-x="0"
     inkscape:window-y="32"
     inkscape:window-maximized="1"
     inkscape:current-layer="svg6" />
  <defs
     id="defs3051">
    <style
       type="text/css"
       id="current-color-scheme">
      .ColorScheme-Text {
        color:#4d4d4d;
      }
      </style>
  </defs>
  <path
     style="color:#4d4d4d;fill:#bebebe;fill-opacity:1;stroke:none;stroke-width:0.92307693"
     class="ColorScheme-Text"
     d="m 10.307692,2.0000001 c -0.5113935,0 -0.9230766,0.4116831 -0.9230766,0.9230769 v 1.8461539 c 0,0.5113939 0.4116831,0.9230769 0.9230766,0.9230769 h 0.432693 C 9.9060338,8.0524863 8.0524862,9.906034 5.6923077,10.740385 v -0.432693 c 0,-0.5113842 -0.4116923,-0.9230765 -0.9230769,-0.9230765 H 2.9230769 C 2.4116923,9.3846155 2,9.7963078 2,10.307692 v 1.846154 0.923077 C 2,13.588308 2.3913108,14 2.8942308,14 h 0.028846 C 9.03092,14 13.984215,9.0560555 14,2.9519232 V 2.8942309 C 14,2.3941447 13.59872,2.0000001 13.105769,2.0000001 h -0.02885 -0.02885 -0.894231 -0.923077 z"
     id="path4"
     inkscape:connector-curvature="0" />
</svg>
