<?xml version="1.0" encoding="UTF-8" standalone="no"?>
<svg
   xmlns:dc="http://purl.org/dc/elements/1.1/"
   xmlns:cc="http://creativecommons.org/ns#"
   xmlns:rdf="http://www.w3.org/1999/02/22-rdf-syntax-ns#"
   xmlns:svg="http://www.w3.org/2000/svg"
   xmlns="http://www.w3.org/2000/svg"
   xmlns:sodipodi="http://sodipodi.sourceforge.net/DTD/sodipodi-0.dtd"
   xmlns:inkscape="http://www.inkscape.org/namespaces/inkscape"
   viewBox="0 0 16 16"
   version="1.1"
   id="svg6"
   sodipodi:docname="printer-network-symbolic.svg"
   inkscape:version="0.92.1 r15371">
  <metadata
     id="metadata10">
    <rdf:RDF>
      <cc:Work
         rdf:about="">
        <dc:format>image/svg+xml</dc:format>
        <dc:type
           rdf:resource="http://purl.org/dc/dcmitype/StillImage" />
      </cc:Work>
    </rdf:RDF>
  </metadata>
  <sodipodi:namedview
     pagecolor="#ffffff"
     bordercolor="#666666"
     borderopacity="1"
     objecttolerance="10"
     gridtolerance="10"
     guidetolerance="10"
     inkscape:pageopacity="0"
     inkscape:pageshadow="2"
     inkscape:window-width="1600"
     inkscape:window-height="840"
     id="namedview8"
     showgrid="false"
     inkscape:zoom="20.85965"
     inkscape:cx="3.3229445"
     inkscape:cy="8.8231671"
     inkscape:window-x="0"
     inkscape:window-y="32"
     inkscape:window-maximized="1"
     inkscape:current-layer="svg6" />
  <defs
     id="defs3051">
    <style
       type="text/css"
       id="current-color-scheme">
      .ColorScheme-Text {
        color:#4d4d4d;
      }
      </style>
  </defs>
  <g
     id="g4619">
    <path
       sodipodi:nodetypes="sssscsssscssssssccsssscsssccccc"
       inkscape:connector-curvature="0"
       style="fill:#bebebe;fill-opacity:1;stroke:none;stroke-width:0.75"
       d="M 2.75,5 C 2.3362208,5.0015332 2,5.3361685 2,5.75 V 9.5 c 0,0.4145985 0.3361933,0.75 0.75,0.75 h 1.5 v 3 C 4.25,13.664599 4.5861933,14 5,14 h 6 c 0.414623,0 0.75,-0.335401 0.75,-0.75 v -3 h 1.5 C 13.664475,10.25 14,9.9145985 14,9.5 V 5.75 C 14,5.3361685 13.66445,5 13.25,5 c 0,0 0,0 -2.211365,0.011985 C 10.871197,5.0128923 10.625,5.1295592 10.625,5.297 c 0,1.703 0,1.703 0,1.703 H 5.375 V 5.297 C 5.375,5.1452439 5.1888313,4.9909631 5.0370763,4.9915254 Z m 9.75,0.75 c 0.414623,0 0.75,0.3361933 0.75,0.75 2.5e-5,0.4145487 -0.335377,0.75 -0.75,0.75 -0.414598,0 -0.75,-0.3354266 -0.75,-0.75 0,-0.4137821 0.335402,-0.75 0.75,-0.75 z M 5,9.5 h 6 v 3.75 H 5 Z"
       id="path3231" />
    <path
       sodipodi:nodetypes="sccscscsccs"
       inkscape:connector-curvature="0"
       id="path8-15-3"
       d="m 8.0000021,4.5021565 c -0.513861,0 -0.9989455,0.2266037 -1.3308248,0.6216565 C 6.566204,5.2462923 6.5820491,5.4290415 6.7047255,5.5320045 6.7590022,5.5775908 6.8250686,5.6 6.8909488,5.6 c 0.08268,0 0.1647885,-0.035154 0.2219683,-0.1033467 0.2215846,-0.2636969 0.5449604,-0.414963 0.8870851,-0.414963 0.3421247,0 0.6655109,0.1512661 0.8870852,0.414963 C 8.944464,5.5650432 9.0265629,5.6 9.1090557,5.6 9.1749354,5.6 9.2410026,5.577788 9.2952789,5.5320045 9.417955,5.4290311 9.43379,5.2462818 9.3308269,5.123813 8.9989374,4.7287602 8.5138528,4.5021565 8.0000021,4.5021565 Z"
       style="fill:#bebebe;fill-opacity:1;stroke-width:0.01036993" />
    <path
       sodipodi:nodetypes="sccscscsccs"
       inkscape:connector-curvature="0"
       id="path8-4-43-6"
       d="m 7.9998999,3.2273953 c -0.8559857,0 -1.6642595,0.3776624 -2.2179099,1.0362255 C 5.679027,4.3861 5.694862,4.5688493 5.817538,4.6718123 c 0.054277,0.045586 0.120343,0.068006 0.1862232,0.068006 0.082679,0 0.1647885,-0.035165 0.2219683,-0.1033571 0.4429618,-0.5271867 1.0897342,-0.829522 1.7741806,-0.829522 0.6844464,0 1.3312084,0.3023353 1.7743673,0.8295217 0.057377,0.06839 0.1394756,0.103357 0.221958,0.103357 0.065881,0 0.1319466,-0.022223 0.1862336,-0.068006 C 10.305135,4.5688489 10.32097,4.385913 10.218019,4.2636205 9.6641593,3.6050681 8.8558857,3.2273953 7.9998999,3.2273953 Z"
       style="fill:#bebebe;fill-opacity:1;stroke-width:0.01036993" />
    <path
       sodipodi:nodetypes="csccscscscc"
       inkscape:connector-curvature="0"
       id="path8-8-0-7"
       d="M 11.105191,3.4509915 C 10.330153,2.528742 9.198296,2 7.999999,2 6.8017018,2 5.6700314,2.528742 4.8947964,3.4509915 4.7918229,3.5734708 4.8076681,3.75622 4.9303446,3.859183 c 0.054277,0.045586 0.1201563,0.068006 0.1860261,0.068006 0.08268,0 0.1647885,-0.035165 0.222155,-0.1033571 C 6.0030723,3.033146 6.973231,2.579555 7.9999887,2.579555 c 1.0267576,0 1.9969166,0.453591 2.6614523,1.2440906 0.05738,0.068193 0.139475,0.1033571 0.222166,0.1033571 0.06588,0 0.131947,-0.022223 0.186223,-0.068006 0.122479,-0.1027866 0.138335,-0.2857225 0.03536,-0.4080048 z"
       style="fill:#bebebe;fill-opacity:1;stroke-width:0.01036993" />
  </g>
</svg>
