<svg viewBox="0 0 16 16" xmlns="http://www.w3.org/2000/svg">
  <path d="m328.85241 553h3.69316l-4.33808 6.24149 1.67168.17395-4.18435 3.57771 1.96393-1.03623c.31822.0382 1.01074.0637 1.33697.0637 3.86854 0 7.00448-3.13594 7.00448-7.00542-.0155-2.46839-1.28088-5.00751-4.00337-6.32939l.16016-1.67681zm-6.85221 2.01513c0 2.62727 1.44116 4.91936 3.58097 6.11349l.31868-3.7191 1.01121 1.20544 1.80267-3.61496-3.71353-.00005 3.16015-6.93418c-3.47018.41296-6.16015 3.3674-6.16015 6.94931" fill="#bebebe" transform="matrix(.87586765494 0 0 .87586765494 -280.16063322469 -478.10749004411)" />
</svg>
