<svg xmlns="http://www.w3.org/2000/svg" viewBox="0 0 16 16">
  <defs id="defs3051">
    <style type="text/css" id="current-color-scheme">
      .ColorScheme-Text {
        color:#bebebe;
      }
      </style>
  </defs>
 <path 
     style="fill:currentColor;fill-opacity:1;stroke:none" 
     class="ColorScheme-Text"
     d="M 2 0.00390625 C 0.00041 0.00390625 0 2.0039062 0 2.0039062 L 0 11.003906 C 0 11.003906 0.00041 13.003906 2 13.003906 L 14 13.003906 C 14 13.003906 16 13.003906 16 11.003906 C 16.006 7.6719662 16 5.3371963 16 2.0039062 C 16 2.0039062 16 0.00390625 14 0.00390625 L 2 0.00390625 z M 5 3.0039062 L 12 6.5039062 L 5 10.003906 L 5 3.0039062 z M 3.96875 14.003906 C 3.96875 14.003906 3 14.003906 3 15.003906 L 3 16.003906 L 13 16.003906 L 13 15.003906 C 13 14.003906 12 14.003906 12 14.003906 L 3.96875 14.003906 z "
     />
</svg>
