<?xml version="1.0" encoding="UTF-8" standalone="no"?>
<!-- Created with Inkscape (http://www.inkscape.org/) -->

<svg
   xmlns:sketch="http://www.bohemiancoding.com/sketch/ns"
   xmlns:dc="http://purl.org/dc/elements/1.1/"
   xmlns:cc="http://creativecommons.org/ns#"
   xmlns:rdf="http://www.w3.org/1999/02/22-rdf-syntax-ns#"
   xmlns:svg="http://www.w3.org/2000/svg"
   xmlns="http://www.w3.org/2000/svg"
   xmlns:sodipodi="http://sodipodi.sourceforge.net/DTD/sodipodi-0.dtd"
   xmlns:inkscape="http://www.inkscape.org/namespaces/inkscape"
   width="22"
   height="22"
   id="svg4355"
   version="1.1"
   inkscape:version="0.91 r13725"
   sodipodi:docname="adjustrgb.svg">
  <defs
     id="defs4357">
    <clipPath
       id="clipPath4160"
       clipPathUnits="userSpaceOnUse">
      <rect
         y="1023.3622"
         x="7"
         height="1"
         width="1"
         id="rect4162"
         style="opacity:1;fill:#f2f2f2;fill-opacity:1;stroke:none;stroke-opacity:1" />
    </clipPath>
    <clipPath
       id="clipPath4160-6"
       clipPathUnits="userSpaceOnUse">
      <rect
         y="1023.3622"
         x="7"
         height="1"
         width="1"
         id="rect4162-0"
         style="opacity:1;fill:#f2f2f2;fill-opacity:1;stroke:none;stroke-opacity:1" />
    </clipPath>
    <clipPath
       id="clipPath4160-7"
       clipPathUnits="userSpaceOnUse">
      <rect
         y="1023.3622"
         x="7"
         height="1"
         width="1"
         id="rect4162-08"
         style="opacity:1;fill:#f2f2f2;fill-opacity:1;stroke:none;stroke-opacity:1" />
    </clipPath>
    <clipPath
       id="clipPath4160-4"
       clipPathUnits="userSpaceOnUse">
      <rect
         y="1023.3622"
         x="7"
         height="1"
         width="1"
         id="rect4162-9"
         style="opacity:1;fill:#f2f2f2;fill-opacity:1;stroke:none;stroke-opacity:1" />
    </clipPath>
    <clipPath
       id="clipPath4160-3"
       clipPathUnits="userSpaceOnUse">
      <rect
         y="1023.3622"
         x="7"
         height="1"
         width="1"
         id="rect4162-0-2"
         style="opacity:1;fill:#f2f2f2;fill-opacity:1;stroke:none;stroke-opacity:1" />
    </clipPath>
    <clipPath
       id="clipPath4160-9"
       clipPathUnits="userSpaceOnUse">
      <rect
         y="1023.3622"
         x="7"
         height="1"
         width="1"
         id="rect4162-4"
         style="opacity:1;fill:#f2f2f2;fill-opacity:1;stroke:none;stroke-opacity:1" />
    </clipPath>
    <clipPath
       id="clipPath4160-4-2"
       clipPathUnits="userSpaceOnUse">
      <rect
         y="1023.3622"
         x="7"
         height="1"
         width="1"
         id="rect4162-9-4"
         style="opacity:1;fill:#f2f2f2;fill-opacity:1;stroke:none;stroke-opacity:1" />
    </clipPath>
    <clipPath
       id="clipPath4160-3-3"
       clipPathUnits="userSpaceOnUse">
      <rect
         y="1023.3622"
         x="7"
         height="1"
         width="1"
         id="rect4162-0-1"
         style="opacity:1;fill:#f2f2f2;fill-opacity:1;stroke:none;stroke-opacity:1" />
    </clipPath>
    <clipPath
       id="clipPath4160-2"
       clipPathUnits="userSpaceOnUse">
      <rect
         y="1023.3622"
         x="7"
         height="1"
         width="1"
         id="rect4162-1"
         style="opacity:1;fill:#f2f2f2;fill-opacity:1;stroke:none;stroke-opacity:1" />
    </clipPath>
    <clipPath
       id="clipPath4160-4-27"
       clipPathUnits="userSpaceOnUse">
      <rect
         y="1023.3622"
         x="7"
         height="1"
         width="1"
         id="rect4162-9-9"
         style="opacity:1;fill:#f2f2f2;fill-opacity:1;stroke:none;stroke-opacity:1" />
    </clipPath>
    <clipPath
       id="clipPath4160-3-2"
       clipPathUnits="userSpaceOnUse">
      <rect
         y="1023.3622"
         x="7"
         height="1"
         width="1"
         id="rect4162-0-27"
         style="opacity:1;fill:#f2f2f2;fill-opacity:1;stroke:none;stroke-opacity:1" />
    </clipPath>
    <linearGradient
       id="linearGradient8467-5">
      <stop
         offset="0"
         style="stop-color:#d8d8d8;stop-opacity:1"
         id="stop8469-7" />
      <stop
         offset="1"
         style="stop-color:#ffffff;stop-opacity:1"
         id="stop8471-0" />
    </linearGradient>
  </defs>
  <sodipodi:namedview
     id="base"
     pagecolor="#ffffff"
     bordercolor="#666666"
     borderopacity="1.0"
     inkscape:pageopacity="0.0"
     inkscape:pageshadow="2"
     inkscape:zoom="11.707099"
     inkscape:cx="-12.476126"
     inkscape:cy="10.4199"
     inkscape:document-units="px"
     inkscape:current-layer="layer1"
     showgrid="true"
     width="0px"
     height="0px"
     fit-margin-top="0"
     fit-margin-left="0"
     fit-margin-right="0"
     fit-margin-bottom="0"
     inkscape:window-width="1366"
     inkscape:window-height="630"
     inkscape:window-x="0"
     inkscape:window-y="36"
     inkscape:window-maximized="1"
     inkscape:showpageshadow="false"
     inkscape:snap-bbox="true"
     inkscape:snap-global="true"
     inkscape:object-nodes="true"
     showguides="true"
     inkscape:guide-bbox="true">
    <inkscape:grid
       type="xygrid"
       id="grid4114" />
    <sodipodi:guide
       position="2,13"
       orientation="18,0"
       id="guide4120" />
    <sodipodi:guide
       position="2.0000011,1.9999962"
       orientation="0,18"
       id="guide4122" />
    <sodipodi:guide
       position="20.000001,1.9999962"
       orientation="-18,0"
       id="guide4124" />
    <sodipodi:guide
       position="3,6"
       orientation="16,0"
       id="guide4128" />
    <sodipodi:guide
       position="3.0000011,2.9999962"
       orientation="0,16"
       id="guide4130" />
    <sodipodi:guide
       position="6,19"
       orientation="0,-16"
       id="guide4134" />
    <sodipodi:guide
       position="19,11"
       orientation="1,0"
       id="guide4431" />
  </sodipodi:namedview>
  <metadata
     id="metadata4360">
    <rdf:RDF>
      <cc:Work
         rdf:about="">
        <dc:format>image/svg+xml</dc:format>
        <dc:type
           rdf:resource="http://purl.org/dc/dcmitype/StillImage" />
        <dc:title></dc:title>
      </cc:Work>
    </rdf:RDF>
  </metadata>
  <g
     inkscape:label="Capa 1"
     inkscape:groupmode="layer"
     id="layer1"
     transform="translate(-544.57141,-742.93359)">
    <rect
       style="fill:#4d4d4d;fill-opacity:1;stroke:none"
       id="rect4035"
       width="0"
       height="10.999983"
       x="507.10324"
       y="747.55408" />
    <rect
       style="fill:#4d4d4d;fill-opacity:1;stroke:none"
       id="rect4035-5"
       width="0"
       height="10.999983"
       x="525.14404"
       y="745.50281" />
    <rect
       style="fill:#4d4d4d;fill-opacity:1;stroke:none"
       id="rect4035-8"
       width="0"
       height="10.999983"
       x="507.10324"
       y="747.55408" />
    <rect
       style="fill:#4d4d4d;fill-opacity:1;stroke:none"
       id="rect4035-59"
       width="0"
       height="10.999983"
       x="507.10324"
       y="747.55408" />
    <rect
       style="fill:#4d4d4d;fill-opacity:1;stroke:none"
       id="rect4035-6"
       width="0"
       height="10.999983"
       x="499.7951"
       y="742.71948" />
    <rect
       style="fill:#4d4d4d;fill-opacity:1;stroke:none"
       id="rect4035-5-1"
       width="0"
       height="10.999983"
       x="517.83588"
       y="740.66809" />
    <rect
       style="fill:#4d4d4d;fill-opacity:1;stroke:none"
       id="rect4035-8-3"
       width="0"
       height="10.999983"
       x="499.7951"
       y="742.71948" />
    <rect
       style="fill:#4d4d4d;fill-opacity:1;stroke:none"
       id="rect4035-59-4"
       width="0"
       height="10.999983"
       x="499.7951"
       y="742.71948" />
    <rect
       style="fill:#4d4d4d;fill-opacity:1;stroke:none"
       id="rect4035-1"
       width="0"
       height="10.999983"
       x="505.81027"
       y="746.93567" />
    <rect
       style="fill:#4d4d4d;fill-opacity:1;stroke:none"
       id="rect4035-5-0"
       width="0"
       height="10.999983"
       x="523.85107"
       y="744.8844" />
    <rect
       style="fill:#4d4d4d;fill-opacity:1;stroke:none"
       id="rect4035-8-1"
       width="0"
       height="10.999983"
       x="505.81027"
       y="746.93567" />
    <rect
       style="fill:#4d4d4d;fill-opacity:1;stroke:none"
       id="rect4035-59-1"
       width="0"
       height="10.999983"
       x="505.81027"
       y="746.93567" />
    <rect
       y="747.55408"
       x="507.10324"
       height="10.999983"
       width="0"
       id="rect4035-7"
       style="fill:#4d4d4d;fill-opacity:1;stroke:none" />
    <rect
       y="745.50281"
       x="525.14404"
       height="10.999983"
       width="0"
       id="rect4035-5-7"
       style="fill:#4d4d4d;fill-opacity:1;stroke:none" />
    <rect
       y="747.55408"
       x="507.10324"
       height="10.999983"
       width="0"
       id="rect4035-8-16"
       style="fill:#4d4d4d;fill-opacity:1;stroke:none" />
    <rect
       y="747.55408"
       x="507.10324"
       height="10.999983"
       width="0"
       id="rect4035-59-18"
       style="fill:#4d4d4d;fill-opacity:1;stroke:none" />
    <rect
       y="742.71948"
       x="499.7951"
       height="10.999983"
       width="0"
       id="rect4035-6-5"
       style="fill:#4d4d4d;fill-opacity:1;stroke:none" />
    <rect
       y="740.66809"
       x="517.83588"
       height="10.999983"
       width="0"
       id="rect4035-5-1-8"
       style="fill:#4d4d4d;fill-opacity:1;stroke:none" />
    <rect
       y="742.71948"
       x="499.7951"
       height="10.999983"
       width="0"
       id="rect4035-8-3-8"
       style="fill:#4d4d4d;fill-opacity:1;stroke:none" />
    <rect
       y="742.71948"
       x="499.7951"
       height="10.999983"
       width="0"
       id="rect4035-59-4-7"
       style="fill:#4d4d4d;fill-opacity:1;stroke:none" />
    <rect
       y="746.93567"
       x="505.81027"
       height="10.999983"
       width="0"
       id="rect4035-1-7"
       style="fill:#4d4d4d;fill-opacity:1;stroke:none" />
    <rect
       y="744.8844"
       x="523.85107"
       height="10.999983"
       width="0"
       id="rect4035-5-0-8"
       style="fill:#4d4d4d;fill-opacity:1;stroke:none" />
    <rect
       y="746.93567"
       x="505.81027"
       height="10.999983"
       width="0"
       id="rect4035-8-1-0"
       style="fill:#4d4d4d;fill-opacity:1;stroke:none" />
    <rect
       y="746.93567"
       x="505.81027"
       height="10.999983"
       width="0"
       id="rect4035-59-1-3"
       style="fill:#4d4d4d;fill-opacity:1;stroke:none" />
    <rect
       y="750.93359"
       x="504.57141"
       height="10.999983"
       width="0"
       id="rect4035-0"
       style="fill:#4d4d4d;fill-opacity:1;stroke:none" />
    <rect
       y="748.88232"
       x="522.61218"
       height="10.999983"
       width="0"
       id="rect4035-5-5"
       style="fill:#4d4d4d;fill-opacity:1;stroke:none" />
    <rect
       y="750.93359"
       x="504.57141"
       height="10.999983"
       width="0"
       id="rect4035-8-6"
       style="fill:#4d4d4d;fill-opacity:1;stroke:none" />
    <rect
       y="750.93359"
       x="504.57141"
       height="10.999983"
       width="0"
       id="rect4035-59-11"
       style="fill:#4d4d4d;fill-opacity:1;stroke:none" />
    <rect
       y="747.29968"
       x="488.58331"
       height="10.999983"
       width="0"
       id="rect4035-9"
       style="fill:#4d4d4d;fill-opacity:1;stroke:none" />
    <rect
       y="745.24841"
       x="506.62408"
       height="10.999983"
       width="0"
       id="rect4035-5-8"
       style="fill:#4d4d4d;fill-opacity:1;stroke:none" />
    <rect
       y="747.29968"
       x="488.58331"
       height="10.999983"
       width="0"
       id="rect4035-8-0"
       style="fill:#4d4d4d;fill-opacity:1;stroke:none" />
    <rect
       y="747.29968"
       x="488.58331"
       height="10.999983"
       width="0"
       id="rect4035-59-1-8"
       style="fill:#4d4d4d;fill-opacity:1;stroke:none" />
    <rect
       style="fill:#4d4d4d;fill-opacity:1;stroke:none"
       id="rect4035-3"
       width="0"
       height="10.999983"
       x="507.10324"
       y="747.55408" />
    <rect
       style="fill:#4d4d4d;fill-opacity:1;stroke:none"
       id="rect4035-5-2"
       width="0"
       height="10.999983"
       x="525.14404"
       y="745.50281" />
    <rect
       style="fill:#4d4d4d;fill-opacity:1;stroke:none"
       id="rect4035-8-7"
       width="0"
       height="10.999983"
       x="507.10324"
       y="747.55408" />
    <rect
       style="fill:#4d4d4d;fill-opacity:1;stroke:none"
       id="rect4035-59-43"
       width="0"
       height="10.999983"
       x="507.10324"
       y="747.55408" />
    <rect
       style="fill:#4d4d4d;fill-opacity:1;stroke:none"
       id="rect4035-6-2"
       width="0"
       height="10.999983"
       x="499.7951"
       y="742.71948" />
    <rect
       style="fill:#4d4d4d;fill-opacity:1;stroke:none"
       id="rect4035-5-1-6"
       width="0"
       height="10.999983"
       x="517.83588"
       y="740.66809" />
    <rect
       style="fill:#4d4d4d;fill-opacity:1;stroke:none"
       id="rect4035-8-3-4"
       width="0"
       height="10.999983"
       x="499.7951"
       y="742.71948" />
    <rect
       style="fill:#4d4d4d;fill-opacity:1;stroke:none"
       id="rect4035-59-4-8"
       width="0"
       height="10.999983"
       x="499.7951"
       y="742.71948" />
    <rect
       style="fill:#4d4d4d;fill-opacity:1;stroke:none"
       id="rect4035-1-8"
       width="0"
       height="10.999983"
       x="505.81027"
       y="746.93567" />
    <rect
       style="fill:#4d4d4d;fill-opacity:1;stroke:none"
       id="rect4035-5-0-0"
       width="0"
       height="10.999983"
       x="523.85107"
       y="744.8844" />
    <rect
       style="fill:#4d4d4d;fill-opacity:1;stroke:none"
       id="rect4035-8-1-3"
       width="0"
       height="10.999983"
       x="505.81027"
       y="746.93567" />
    <rect
       style="fill:#4d4d4d;fill-opacity:1;stroke:none"
       id="rect4035-59-1-1"
       width="0"
       height="10.999983"
       x="505.81027"
       y="746.93567" />
    <g
       id="g4600"
       transform="matrix(0.92866462,0,0,0.92866462,40.222019,52.389139)">
      <g
         transform="matrix(0.62500001,0,0,0.62500001,203.97982,283.9803)"
         inkscape:label="Capa 1"
         id="layer1-84"
         style="fill:#da4453;fill-opacity:1">
        <rect
           style="fill:#da4453;fill-opacity:1;stroke:none"
           id="rect4035-34"
           width="0"
           height="10.999983"
           x="507.15402"
           y="747.55408" />
        <rect
           style="fill:#da4453;fill-opacity:1;stroke:none"
           id="rect4035-5-3"
           width="0"
           height="10.999983"
           x="525.19482"
           y="745.50281" />
        <rect
           style="fill:#da4453;fill-opacity:1;stroke:none"
           id="rect4035-8-19"
           width="0"
           height="10.999983"
           x="507.15402"
           y="747.55408" />
        <rect
           style="fill:#da4453;fill-opacity:1;stroke:none"
           id="rect4035-59-2"
           width="0"
           height="10.999983"
           x="507.15402"
           y="747.55408" />
        <rect
           style="fill:#da4453;fill-opacity:1;stroke:none"
           id="rect4035-6-1"
           width="0"
           height="10.999983"
           x="499.84589"
           y="742.71948" />
        <rect
           style="fill:#da4453;fill-opacity:1;stroke:none"
           id="rect4035-5-1-9"
           width="0"
           height="10.999983"
           x="517.88666"
           y="740.66809" />
        <rect
           style="fill:#da4453;fill-opacity:1;stroke:none"
           id="rect4035-8-3-7"
           width="0"
           height="10.999983"
           x="499.84589"
           y="742.71948" />
        <rect
           style="fill:#da4453;fill-opacity:1;stroke:none"
           id="rect4035-59-4-6"
           width="0"
           height="10.999983"
           x="499.84589"
           y="742.71948" />
        <rect
           style="fill:#da4453;fill-opacity:1;stroke:none"
           id="rect4035-1-85"
           width="0"
           height="10.999983"
           x="505.86105"
           y="746.93567" />
        <rect
           style="fill:#da4453;fill-opacity:1;stroke:none"
           id="rect4035-5-0-85"
           width="0"
           height="10.999983"
           x="523.90186"
           y="744.8844" />
        <rect
           style="fill:#da4453;fill-opacity:1;stroke:none"
           id="rect4035-8-1-35"
           width="0"
           height="10.999983"
           x="505.86105"
           y="746.93567" />
        <rect
           style="fill:#da4453;fill-opacity:1;stroke:none"
           id="rect4035-59-1-4"
           width="0"
           height="10.999983"
           x="505.86105"
           y="746.93567" />
        <rect
           y="747.55408"
           x="507.15402"
           height="10.999983"
           width="0"
           id="rect4035-7-0"
           style="fill:#da4453;fill-opacity:1;stroke:none" />
        <rect
           y="745.50281"
           x="525.19482"
           height="10.999983"
           width="0"
           id="rect4035-5-7-1"
           style="fill:#da4453;fill-opacity:1;stroke:none" />
        <rect
           y="747.55408"
           x="507.15402"
           height="10.999983"
           width="0"
           id="rect4035-8-16-6"
           style="fill:#da4453;fill-opacity:1;stroke:none" />
        <rect
           y="747.55408"
           x="507.15402"
           height="10.999983"
           width="0"
           id="rect4035-59-18-5"
           style="fill:#da4453;fill-opacity:1;stroke:none" />
        <rect
           y="742.71948"
           x="499.84589"
           height="10.999983"
           width="0"
           id="rect4035-6-5-8"
           style="fill:#da4453;fill-opacity:1;stroke:none" />
        <rect
           y="740.66809"
           x="517.88666"
           height="10.999983"
           width="0"
           id="rect4035-5-1-8-9"
           style="fill:#da4453;fill-opacity:1;stroke:none" />
        <rect
           y="742.71948"
           x="499.84589"
           height="10.999983"
           width="0"
           id="rect4035-8-3-8-3"
           style="fill:#da4453;fill-opacity:1;stroke:none" />
        <rect
           y="742.71948"
           x="499.84589"
           height="10.999983"
           width="0"
           id="rect4035-59-4-7-3"
           style="fill:#da4453;fill-opacity:1;stroke:none" />
        <rect
           y="746.93567"
           x="505.86105"
           height="10.999983"
           width="0"
           id="rect4035-1-7-7"
           style="fill:#da4453;fill-opacity:1;stroke:none" />
        <rect
           y="744.8844"
           x="523.90186"
           height="10.999983"
           width="0"
           id="rect4035-5-0-8-3"
           style="fill:#da4453;fill-opacity:1;stroke:none" />
        <rect
           y="746.93567"
           x="505.86105"
           height="10.999983"
           width="0"
           id="rect4035-8-1-0-8"
           style="fill:#da4453;fill-opacity:1;stroke:none" />
        <rect
           y="746.93567"
           x="505.86105"
           height="10.999983"
           width="0"
           id="rect4035-59-1-3-2"
           style="fill:#da4453;fill-opacity:1;stroke:none" />
        <rect
           y="750.93359"
           x="504.62219"
           height="10.999983"
           width="0"
           id="rect4035-0-3"
           style="fill:#da4453;fill-opacity:1;stroke:none" />
        <rect
           y="748.88232"
           x="522.66296"
           height="10.999983"
           width="0"
           id="rect4035-5-5-5"
           style="fill:#da4453;fill-opacity:1;stroke:none" />
        <rect
           y="750.93359"
           x="504.62219"
           height="10.999983"
           width="0"
           id="rect4035-8-6-7"
           style="fill:#da4453;fill-opacity:1;stroke:none" />
        <rect
           y="750.93359"
           x="504.62219"
           height="10.999983"
           width="0"
           id="rect4035-59-11-7"
           style="fill:#da4453;fill-opacity:1;stroke:none" />
        <rect
           y="747.29968"
           x="488.63409"
           height="10.999983"
           width="0"
           id="rect4035-9-0"
           style="fill:#da4453;fill-opacity:1;stroke:none" />
        <rect
           y="745.24841"
           x="506.67487"
           height="10.999983"
           width="0"
           id="rect4035-5-8-9"
           style="fill:#da4453;fill-opacity:1;stroke:none" />
        <rect
           y="747.29968"
           x="488.63409"
           height="10.999983"
           width="0"
           id="rect4035-8-0-6"
           style="fill:#da4453;fill-opacity:1;stroke:none" />
        <rect
           y="747.29968"
           x="488.63409"
           height="10.999983"
           width="0"
           id="rect4035-59-1-8-2"
           style="fill:#da4453;fill-opacity:1;stroke:none" />
        <rect
           style="fill:#da4453;fill-opacity:1;stroke:none"
           id="rect4035-3-2"
           width="0"
           height="10.999983"
           x="507.15402"
           y="747.55408" />
        <rect
           style="fill:#da4453;fill-opacity:1;stroke:none"
           id="rect4035-5-2-7"
           width="0"
           height="10.999983"
           x="525.19482"
           y="745.50281" />
        <rect
           style="fill:#da4453;fill-opacity:1;stroke:none"
           id="rect4035-8-7-1"
           width="0"
           height="10.999983"
           x="507.15402"
           y="747.55408" />
        <rect
           style="fill:#da4453;fill-opacity:1;stroke:none"
           id="rect4035-59-43-8"
           width="0"
           height="10.999983"
           x="507.15402"
           y="747.55408" />
        <rect
           style="fill:#da4453;fill-opacity:1;stroke:none"
           id="rect4035-6-2-5"
           width="0"
           height="10.999983"
           x="499.84589"
           y="742.71948" />
        <rect
           style="fill:#da4453;fill-opacity:1;stroke:none"
           id="rect4035-5-1-6-8"
           width="0"
           height="10.999983"
           x="517.88666"
           y="740.66809" />
        <rect
           style="fill:#da4453;fill-opacity:1;stroke:none"
           id="rect4035-8-3-4-7"
           width="0"
           height="10.999983"
           x="499.84589"
           y="742.71948" />
        <rect
           style="fill:#da4453;fill-opacity:1;stroke:none"
           id="rect4035-59-4-8-1"
           width="0"
           height="10.999983"
           x="499.84589"
           y="742.71948" />
        <rect
           style="fill:#da4453;fill-opacity:1;stroke:none"
           id="rect4035-1-8-2"
           width="0"
           height="10.999983"
           x="505.86105"
           y="746.93567" />
        <rect
           style="fill:#da4453;fill-opacity:1;stroke:none"
           id="rect4035-5-0-0-2"
           width="0"
           height="10.999983"
           x="523.90186"
           y="744.8844" />
        <rect
           style="fill:#da4453;fill-opacity:1;stroke:none"
           id="rect4035-8-1-3-7"
           width="0"
           height="10.999983"
           x="505.86105"
           y="746.93567" />
        <rect
           style="fill:#da4453;fill-opacity:1;stroke:none"
           id="rect4035-59-1-1-2"
           width="0"
           height="10.999983"
           x="505.86105"
           y="746.93567" />
        <g
           transform="translate(217.57141,209.57139)"
           id="layer1-6"
           inkscape:label="Capa 1"
           style="fill:#da4453;fill-opacity:1">
          <g
             inkscape:label="Capa 1"
             id="layer1-3"
             transform="matrix(0.66666669,0,0,0.66666669,70.95237,189.83022)"
             style="fill:#da4453;fill-opacity:1">
            <g
               transform="matrix(1.5359999,0,0,1.5359999,383.7381,-1067.9379)"
               id="layer1-8"
               inkscape:label="Capa 1"
               style="fill:#da4453;fill-opacity:1">
              <g
                 style="fill:#da4453;fill-opacity:1"
                 transform="matrix(0.12485916,0,0,0.12485916,3.0932607,1033.6287)"
                 sketch:type="MSLayerGroup"
                 id="cog2">
                <path
                   style="fill:#da4453;fill-opacity:1"
                   inkscape:connector-curvature="0"
                   sketch:type="MSShapeGroup"
                   id="path4463"
                   d="m 124.918,52.205 c -0.436,-0.571 -1.005,-0.911 -1.711,-1.019 l -14.909,-2.281 c -0.815,-2.607 -1.929,-5.268 -3.341,-7.984 0.977,-1.358 2.443,-3.272 4.398,-5.744 1.955,-2.472 3.34,-4.277 4.155,-5.418 0.435,-0.598 0.651,-1.222 0.651,-1.874 0,-0.76 -0.189,-1.357 -0.57,-1.792 -1.955,-2.771 -6.436,-7.387 -13.443,-13.851 -0.65,-0.543 -1.33,-0.814 -2.035,-0.814 -0.815,0 -1.467,0.244 -1.956,0.732 L 84.589,20.878 C 82.361,19.737 79.917,18.732 77.256,17.863 L 74.975,2.873 C 74.921,2.167 74.608,1.583 74.038,1.121 73.467,0.659 72.803,0.429 72.041,0.429 l -18.086,0 c -1.575,0 -2.553,0.76 -2.933,2.281 -0.706,2.715 -1.494,7.766 -2.363,15.153 -2.553,0.816 -5.024,1.848 -7.414,3.097 L 30.002,12.242 c -0.706,-0.543 -1.412,-0.814 -2.118,-0.814 -1.195,0 -3.761,1.941 -7.699,5.825 -3.938,3.884 -6.612,6.803 -8.025,8.758 -0.489,0.706 -0.733,1.331 -0.733,1.874 0,0.652 0.271,1.304 0.814,1.955 3.639,4.4 6.545,8.147 8.718,11.244 -1.358,2.498 -2.417,4.997 -3.177,7.495 L 2.628,50.86 C 2.031,50.969 1.515,51.322 1.08,51.92 0.645,52.517 0.428,53.142 0.428,53.793 l 0,18.087 c 0,0.707 0.217,1.344 0.652,1.914 0.435,0.571 1.005,0.912 1.711,1.02 l 14.91,2.2 c 0.76,2.661 1.873,5.349 3.34,8.064 -0.977,1.358 -2.444,3.272 -4.399,5.744 -1.955,2.472 -3.341,4.277 -4.155,5.418 -0.435,0.599 -0.652,1.222 -0.652,1.874 0,0.706 0.19,1.33 0.57,1.873 2.118,2.934 6.599,7.497 13.443,13.688 0.598,0.598 1.277,0.896 2.037,0.896 0.815,0 1.494,-0.244 2.037,-0.732 L 41.41,105.12 c 2.228,1.141 4.672,2.146 7.333,3.016 l 2.281,14.99 c 0.055,0.706 0.367,1.29 0.937,1.752 0.57,0.463 1.236,0.692 1.996,0.692 l 18.087,0 c 1.577,0 2.554,-0.76 2.935,-2.281 0.705,-2.716 1.492,-7.766 2.361,-15.153 2.553,-0.815 5.025,-1.848 7.414,-3.097 l 11.244,8.8 c 0.76,0.488 1.467,0.732 2.118,0.732 1.194,0 3.747,-1.927 7.657,-5.784 3.912,-3.856 6.6,-6.79 8.065,-8.8 0.489,-0.543 0.734,-1.167 0.734,-1.873 0,-0.706 -0.271,-1.387 -0.815,-2.037 -3.91,-4.78 -6.816,-8.527 -8.718,-11.243 1.086,-2.01 2.146,-4.481 3.178,-7.414 l 15.072,-2.28 c 0.651,-0.109 1.196,-0.463 1.63,-1.061 0.434,-0.598 0.65,-1.223 0.65,-1.874 l 0,-18.086 c 10e-4,-0.706 -0.215,-1.343 -0.651,-1.914 l 0,0 z M 77.747,77.746 C 73.674,81.82 68.758,83.857 63,83.857 57.242,83.857 52.327,81.82 48.253,77.746 44.18,73.673 42.143,68.758 42.143,63 c 0,-5.758 2.036,-10.673 6.11,-14.747 4.074,-4.073 8.99,-6.11 14.747,-6.11 5.758,0 10.674,2.037 14.747,6.11 4.073,4.074 6.11,8.989 6.11,14.747 0,5.758 -2.037,10.673 -6.11,14.746 l 0,0 z" />
              </g>
            </g>
          </g>
        </g>
      </g>
      <g
         transform="matrix(0.50000001,0,0,0.50000001,281.69702,383.08131)"
         inkscape:label="Capa 1"
         id="layer1-84-6">
        <rect
           style="fill:#4d4d4d;fill-opacity:1;stroke:none"
           id="rect4035-34-5"
           width="0"
           height="10.999983"
           x="507.15402"
           y="747.55408" />
        <rect
           style="fill:#4d4d4d;fill-opacity:1;stroke:none"
           id="rect4035-5-3-7"
           width="0"
           height="10.999983"
           x="525.19482"
           y="745.50281" />
        <rect
           style="fill:#4d4d4d;fill-opacity:1;stroke:none"
           id="rect4035-8-19-6"
           width="0"
           height="10.999983"
           x="507.15402"
           y="747.55408" />
        <rect
           style="fill:#4d4d4d;fill-opacity:1;stroke:none"
           id="rect4035-59-2-4"
           width="0"
           height="10.999983"
           x="507.15402"
           y="747.55408" />
        <rect
           style="fill:#4d4d4d;fill-opacity:1;stroke:none"
           id="rect4035-6-1-2"
           width="0"
           height="10.999983"
           x="499.84589"
           y="742.71948" />
        <rect
           style="fill:#4d4d4d;fill-opacity:1;stroke:none"
           id="rect4035-5-1-9-9"
           width="0"
           height="10.999983"
           x="517.88666"
           y="740.66809" />
        <rect
           style="fill:#4d4d4d;fill-opacity:1;stroke:none"
           id="rect4035-8-3-7-4"
           width="0"
           height="10.999983"
           x="499.84589"
           y="742.71948" />
        <rect
           style="fill:#4d4d4d;fill-opacity:1;stroke:none"
           id="rect4035-59-4-6-7"
           width="0"
           height="10.999983"
           x="499.84589"
           y="742.71948" />
        <rect
           style="fill:#4d4d4d;fill-opacity:1;stroke:none"
           id="rect4035-1-85-0"
           width="0"
           height="10.999983"
           x="505.86105"
           y="746.93567" />
        <rect
           style="fill:#4d4d4d;fill-opacity:1;stroke:none"
           id="rect4035-5-0-85-6"
           width="0"
           height="10.999983"
           x="523.90186"
           y="744.8844" />
        <rect
           style="fill:#4d4d4d;fill-opacity:1;stroke:none"
           id="rect4035-8-1-35-0"
           width="0"
           height="10.999983"
           x="505.86105"
           y="746.93567" />
        <rect
           style="fill:#4d4d4d;fill-opacity:1;stroke:none"
           id="rect4035-59-1-4-5"
           width="0"
           height="10.999983"
           x="505.86105"
           y="746.93567" />
        <rect
           y="747.55408"
           x="507.15402"
           height="10.999983"
           width="0"
           id="rect4035-7-0-6"
           style="fill:#4d4d4d;fill-opacity:1;stroke:none" />
        <rect
           y="745.50281"
           x="525.19482"
           height="10.999983"
           width="0"
           id="rect4035-5-7-1-7"
           style="fill:#4d4d4d;fill-opacity:1;stroke:none" />
        <rect
           y="747.55408"
           x="507.15402"
           height="10.999983"
           width="0"
           id="rect4035-8-16-6-7"
           style="fill:#4d4d4d;fill-opacity:1;stroke:none" />
        <rect
           y="747.55408"
           x="507.15402"
           height="10.999983"
           width="0"
           id="rect4035-59-18-5-7"
           style="fill:#4d4d4d;fill-opacity:1;stroke:none" />
        <rect
           y="742.71948"
           x="499.84589"
           height="10.999983"
           width="0"
           id="rect4035-6-5-8-5"
           style="fill:#4d4d4d;fill-opacity:1;stroke:none" />
        <rect
           y="740.66809"
           x="517.88666"
           height="10.999983"
           width="0"
           id="rect4035-5-1-8-9-9"
           style="fill:#4d4d4d;fill-opacity:1;stroke:none" />
        <rect
           y="742.71948"
           x="499.84589"
           height="10.999983"
           width="0"
           id="rect4035-8-3-8-3-9"
           style="fill:#4d4d4d;fill-opacity:1;stroke:none" />
        <rect
           y="742.71948"
           x="499.84589"
           height="10.999983"
           width="0"
           id="rect4035-59-4-7-3-3"
           style="fill:#4d4d4d;fill-opacity:1;stroke:none" />
        <rect
           y="746.93567"
           x="505.86105"
           height="10.999983"
           width="0"
           id="rect4035-1-7-7-2"
           style="fill:#4d4d4d;fill-opacity:1;stroke:none" />
        <rect
           y="744.8844"
           x="523.90186"
           height="10.999983"
           width="0"
           id="rect4035-5-0-8-3-8"
           style="fill:#4d4d4d;fill-opacity:1;stroke:none" />
        <rect
           y="746.93567"
           x="505.86105"
           height="10.999983"
           width="0"
           id="rect4035-8-1-0-8-8"
           style="fill:#4d4d4d;fill-opacity:1;stroke:none" />
        <rect
           y="746.93567"
           x="505.86105"
           height="10.999983"
           width="0"
           id="rect4035-59-1-3-2-0"
           style="fill:#4d4d4d;fill-opacity:1;stroke:none" />
        <rect
           y="750.93359"
           x="504.62219"
           height="10.999983"
           width="0"
           id="rect4035-0-3-7"
           style="fill:#4d4d4d;fill-opacity:1;stroke:none" />
        <rect
           y="748.88232"
           x="522.66296"
           height="10.999983"
           width="0"
           id="rect4035-5-5-5-1"
           style="fill:#4d4d4d;fill-opacity:1;stroke:none" />
        <rect
           y="750.93359"
           x="504.62219"
           height="10.999983"
           width="0"
           id="rect4035-8-6-7-2"
           style="fill:#4d4d4d;fill-opacity:1;stroke:none" />
        <rect
           y="750.93359"
           x="504.62219"
           height="10.999983"
           width="0"
           id="rect4035-59-11-7-1"
           style="fill:#4d4d4d;fill-opacity:1;stroke:none" />
        <rect
           y="747.29968"
           x="488.63409"
           height="10.999983"
           width="0"
           id="rect4035-9-0-8"
           style="fill:#4d4d4d;fill-opacity:1;stroke:none" />
        <rect
           y="745.24841"
           x="506.67487"
           height="10.999983"
           width="0"
           id="rect4035-5-8-9-6"
           style="fill:#4d4d4d;fill-opacity:1;stroke:none" />
        <rect
           y="747.29968"
           x="488.63409"
           height="10.999983"
           width="0"
           id="rect4035-8-0-6-9"
           style="fill:#4d4d4d;fill-opacity:1;stroke:none" />
        <rect
           y="747.29968"
           x="488.63409"
           height="10.999983"
           width="0"
           id="rect4035-59-1-8-2-5"
           style="fill:#4d4d4d;fill-opacity:1;stroke:none" />
        <rect
           style="fill:#4d4d4d;fill-opacity:1;stroke:none"
           id="rect4035-3-2-3"
           width="0"
           height="10.999983"
           x="507.15402"
           y="747.55408" />
        <rect
           style="fill:#4d4d4d;fill-opacity:1;stroke:none"
           id="rect4035-5-2-7-6"
           width="0"
           height="10.999983"
           x="525.19482"
           y="745.50281" />
        <rect
           style="fill:#4d4d4d;fill-opacity:1;stroke:none"
           id="rect4035-8-7-1-2"
           width="0"
           height="10.999983"
           x="507.15402"
           y="747.55408" />
        <rect
           style="fill:#4d4d4d;fill-opacity:1;stroke:none"
           id="rect4035-59-43-8-8"
           width="0"
           height="10.999983"
           x="507.15402"
           y="747.55408" />
        <rect
           style="fill:#4d4d4d;fill-opacity:1;stroke:none"
           id="rect4035-6-2-5-7"
           width="0"
           height="10.999983"
           x="499.84589"
           y="742.71948" />
        <rect
           style="fill:#4d4d4d;fill-opacity:1;stroke:none"
           id="rect4035-5-1-6-8-6"
           width="0"
           height="10.999983"
           x="517.88666"
           y="740.66809" />
        <rect
           style="fill:#4d4d4d;fill-opacity:1;stroke:none"
           id="rect4035-8-3-4-7-5"
           width="0"
           height="10.999983"
           x="499.84589"
           y="742.71948" />
        <rect
           style="fill:#4d4d4d;fill-opacity:1;stroke:none"
           id="rect4035-59-4-8-1-7"
           width="0"
           height="10.999983"
           x="499.84589"
           y="742.71948" />
        <rect
           style="fill:#4d4d4d;fill-opacity:1;stroke:none"
           id="rect4035-1-8-2-2"
           width="0"
           height="10.999983"
           x="505.86105"
           y="746.93567" />
        <rect
           style="fill:#4d4d4d;fill-opacity:1;stroke:none"
           id="rect4035-5-0-0-2-6"
           width="0"
           height="10.999983"
           x="523.90186"
           y="744.8844" />
        <rect
           style="fill:#4d4d4d;fill-opacity:1;stroke:none"
           id="rect4035-8-1-3-7-4"
           width="0"
           height="10.999983"
           x="505.86105"
           y="746.93567" />
        <rect
           style="fill:#4d4d4d;fill-opacity:1;stroke:none"
           id="rect4035-59-1-1-2-0"
           width="0"
           height="10.999983"
           x="505.86105"
           y="746.93567" />
        <g
           transform="translate(217.57141,209.57139)"
           id="layer1-6-5"
           inkscape:label="Capa 1">
          <g
             inkscape:label="Capa 1"
             id="layer1-3-3"
             transform="matrix(0.66666669,0,0,0.66666669,70.95237,189.83022)"
             style="fill:#5fb2f1;fill-opacity:1">
            <g
               transform="matrix(1.5359999,0,0,1.5359999,383.7381,-1067.9379)"
               id="layer1-8-7"
               inkscape:label="Capa 1"
               style="fill:#5fb2f1;fill-opacity:1">
              <g
                 style="fill:#5fb2f1;fill-opacity:1"
                 transform="matrix(0.12485916,0,0,0.12485916,3.0932607,1033.6287)"
                 sketch:type="MSLayerGroup"
                 id="cog2-1">
                <path
                   style="fill:#5fb2f1;fill-opacity:1"
                   inkscape:connector-curvature="0"
                   sketch:type="MSShapeGroup"
                   id="path4463-2"
                   d="m 124.918,52.205 c -0.436,-0.571 -1.005,-0.911 -1.711,-1.019 l -14.909,-2.281 c -0.815,-2.607 -1.929,-5.268 -3.341,-7.984 0.977,-1.358 2.443,-3.272 4.398,-5.744 1.955,-2.472 3.34,-4.277 4.155,-5.418 0.435,-0.598 0.651,-1.222 0.651,-1.874 0,-0.76 -0.189,-1.357 -0.57,-1.792 -1.955,-2.771 -6.436,-7.387 -13.443,-13.851 -0.65,-0.543 -1.33,-0.814 -2.035,-0.814 -0.815,0 -1.467,0.244 -1.956,0.732 L 84.589,20.878 C 82.361,19.737 79.917,18.732 77.256,17.863 L 74.975,2.873 C 74.921,2.167 74.608,1.583 74.038,1.121 73.467,0.659 72.803,0.429 72.041,0.429 l -18.086,0 c -1.575,0 -2.553,0.76 -2.933,2.281 -0.706,2.715 -1.494,7.766 -2.363,15.153 -2.553,0.816 -5.024,1.848 -7.414,3.097 L 30.002,12.242 c -0.706,-0.543 -1.412,-0.814 -2.118,-0.814 -1.195,0 -3.761,1.941 -7.699,5.825 -3.938,3.884 -6.612,6.803 -8.025,8.758 -0.489,0.706 -0.733,1.331 -0.733,1.874 0,0.652 0.271,1.304 0.814,1.955 3.639,4.4 6.545,8.147 8.718,11.244 -1.358,2.498 -2.417,4.997 -3.177,7.495 L 2.628,50.86 C 2.031,50.969 1.515,51.322 1.08,51.92 0.645,52.517 0.428,53.142 0.428,53.793 l 0,18.087 c 0,0.707 0.217,1.344 0.652,1.914 0.435,0.571 1.005,0.912 1.711,1.02 l 14.91,2.2 c 0.76,2.661 1.873,5.349 3.34,8.064 -0.977,1.358 -2.444,3.272 -4.399,5.744 -1.955,2.472 -3.341,4.277 -4.155,5.418 -0.435,0.599 -0.652,1.222 -0.652,1.874 0,0.706 0.19,1.33 0.57,1.873 2.118,2.934 6.599,7.497 13.443,13.688 0.598,0.598 1.277,0.896 2.037,0.896 0.815,0 1.494,-0.244 2.037,-0.732 L 41.41,105.12 c 2.228,1.141 4.672,2.146 7.333,3.016 l 2.281,14.99 c 0.055,0.706 0.367,1.29 0.937,1.752 0.57,0.463 1.236,0.692 1.996,0.692 l 18.087,0 c 1.577,0 2.554,-0.76 2.935,-2.281 0.705,-2.716 1.492,-7.766 2.361,-15.153 2.553,-0.815 5.025,-1.848 7.414,-3.097 l 11.244,8.8 c 0.76,0.488 1.467,0.732 2.118,0.732 1.194,0 3.747,-1.927 7.657,-5.784 3.912,-3.856 6.6,-6.79 8.065,-8.8 0.489,-0.543 0.734,-1.167 0.734,-1.873 0,-0.706 -0.271,-1.387 -0.815,-2.037 -3.91,-4.78 -6.816,-8.527 -8.718,-11.243 1.086,-2.01 2.146,-4.481 3.178,-7.414 l 15.072,-2.28 c 0.651,-0.109 1.196,-0.463 1.63,-1.061 0.434,-0.598 0.65,-1.223 0.65,-1.874 l 0,-18.086 c 10e-4,-0.706 -0.215,-1.343 -0.651,-1.914 l 0,0 z M 77.747,77.746 C 73.674,81.82 68.758,83.857 63,83.857 57.242,83.857 52.327,81.82 48.253,77.746 44.18,73.673 42.143,68.758 42.143,63 c 0,-5.758 2.036,-10.673 6.11,-14.747 4.074,-4.073 8.99,-6.11 14.747,-6.11 5.758,0 10.674,2.037 14.747,6.11 4.073,4.074 6.11,8.989 6.11,14.747 0,5.758 -2.037,10.673 -6.11,14.746 l 0,0 z" />
              </g>
            </g>
          </g>
        </g>
        <g
           transform="translate(217.92587,191.11331)"
           id="layer1-6-5-2"
           inkscape:label="Capa 1"
           style="fill:#74e09b;fill-opacity:1">
          <g
             inkscape:label="Capa 1"
             id="layer1-3-3-7"
             transform="matrix(0.66666669,0,0,0.66666669,70.95237,189.83022)"
             style="fill:#74e09b;fill-opacity:1">
            <g
               transform="matrix(1.5359999,0,0,1.5359999,383.7381,-1067.9379)"
               id="layer1-8-7-6"
               inkscape:label="Capa 1"
               style="fill:#74e09b;fill-opacity:1">
              <g
                 style="fill:#74e09b;fill-opacity:1"
                 transform="matrix(0.12485916,0,0,0.12485916,3.0932607,1033.6287)"
                 sketch:type="MSLayerGroup"
                 id="cog2-1-7">
                <path
                   style="fill:#74e09b;fill-opacity:1"
                   inkscape:connector-curvature="0"
                   sketch:type="MSShapeGroup"
                   id="path4463-2-9"
                   d="m 124.918,52.205 c -0.436,-0.571 -1.005,-0.911 -1.711,-1.019 l -14.909,-2.281 c -0.815,-2.607 -1.929,-5.268 -3.341,-7.984 0.977,-1.358 2.443,-3.272 4.398,-5.744 1.955,-2.472 3.34,-4.277 4.155,-5.418 0.435,-0.598 0.651,-1.222 0.651,-1.874 0,-0.76 -0.189,-1.357 -0.57,-1.792 -1.955,-2.771 -6.436,-7.387 -13.443,-13.851 -0.65,-0.543 -1.33,-0.814 -2.035,-0.814 -0.815,0 -1.467,0.244 -1.956,0.732 L 84.589,20.878 C 82.361,19.737 79.917,18.732 77.256,17.863 L 74.975,2.873 C 74.921,2.167 74.608,1.583 74.038,1.121 73.467,0.659 72.803,0.429 72.041,0.429 l -18.086,0 c -1.575,0 -2.553,0.76 -2.933,2.281 -0.706,2.715 -1.494,7.766 -2.363,15.153 -2.553,0.816 -5.024,1.848 -7.414,3.097 L 30.002,12.242 c -0.706,-0.543 -1.412,-0.814 -2.118,-0.814 -1.195,0 -3.761,1.941 -7.699,5.825 -3.938,3.884 -6.612,6.803 -8.025,8.758 -0.489,0.706 -0.733,1.331 -0.733,1.874 0,0.652 0.271,1.304 0.814,1.955 3.639,4.4 6.545,8.147 8.718,11.244 -1.358,2.498 -2.417,4.997 -3.177,7.495 L 2.628,50.86 C 2.031,50.969 1.515,51.322 1.08,51.92 0.645,52.517 0.428,53.142 0.428,53.793 l 0,18.087 c 0,0.707 0.217,1.344 0.652,1.914 0.435,0.571 1.005,0.912 1.711,1.02 l 14.91,2.2 c 0.76,2.661 1.873,5.349 3.34,8.064 -0.977,1.358 -2.444,3.272 -4.399,5.744 -1.955,2.472 -3.341,4.277 -4.155,5.418 -0.435,0.599 -0.652,1.222 -0.652,1.874 0,0.706 0.19,1.33 0.57,1.873 2.118,2.934 6.599,7.497 13.443,13.688 0.598,0.598 1.277,0.896 2.037,0.896 0.815,0 1.494,-0.244 2.037,-0.732 L 41.41,105.12 c 2.228,1.141 4.672,2.146 7.333,3.016 l 2.281,14.99 c 0.055,0.706 0.367,1.29 0.937,1.752 0.57,0.463 1.236,0.692 1.996,0.692 l 18.087,0 c 1.577,0 2.554,-0.76 2.935,-2.281 0.705,-2.716 1.492,-7.766 2.361,-15.153 2.553,-0.815 5.025,-1.848 7.414,-3.097 l 11.244,8.8 c 0.76,0.488 1.467,0.732 2.118,0.732 1.194,0 3.747,-1.927 7.657,-5.784 3.912,-3.856 6.6,-6.79 8.065,-8.8 0.489,-0.543 0.734,-1.167 0.734,-1.873 0,-0.706 -0.271,-1.387 -0.815,-2.037 -3.91,-4.78 -6.816,-8.527 -8.718,-11.243 1.086,-2.01 2.146,-4.481 3.178,-7.414 l 15.072,-2.28 c 0.651,-0.109 1.196,-0.463 1.63,-1.061 0.434,-0.598 0.65,-1.223 0.65,-1.874 l 0,-18.086 c 10e-4,-0.706 -0.215,-1.343 -0.651,-1.914 l 0,0 z M 77.747,77.746 C 73.674,81.82 68.758,83.857 63,83.857 57.242,83.857 52.327,81.82 48.253,77.746 44.18,73.673 42.143,68.758 42.143,63 c 0,-5.758 2.036,-10.673 6.11,-14.747 4.074,-4.073 8.99,-6.11 14.747,-6.11 5.758,0 10.674,2.037 14.747,6.11 4.073,4.074 6.11,8.989 6.11,14.747 0,5.758 -2.037,10.673 -6.11,14.746 l 0,0 z" />
              </g>
            </g>
          </g>
        </g>
      </g>
    </g>
  </g>
</svg>
