<?xml version="1.0" encoding="UTF-8" standalone="no"?>
<!-- Created with Inkscape (http://www.inkscape.org/) -->

<svg
   xmlns:dc="http://purl.org/dc/elements/1.1/"
   xmlns:cc="http://creativecommons.org/ns#"
   xmlns:rdf="http://www.w3.org/1999/02/22-rdf-syntax-ns#"
   xmlns:svg="http://www.w3.org/2000/svg"
   xmlns="http://www.w3.org/2000/svg"
   xmlns:sodipodi="http://sodipodi.sourceforge.net/DTD/sodipodi-0.dtd"
   xmlns:inkscape="http://www.inkscape.org/namespaces/inkscape"
   width="22"
   height="22"
   id="svg3760"
   version="1.1"
   inkscape:version="0.91 r13725"
   sodipodi:docname="amarok_cart_remove.svg">
  <defs
     id="defs3762" />
  <sodipodi:namedview
     id="base"
     pagecolor="#ffffff"
     bordercolor="#666666"
     borderopacity="1.0"
     inkscape:pageopacity="0.0"
     inkscape:pageshadow="2"
     inkscape:zoom="8.1562501"
     inkscape:cx="-37.618422"
     inkscape:cy="11.446779"
     inkscape:document-units="px"
     inkscape:current-layer="layer1"
     showgrid="true"
     fit-margin-top="0"
     fit-margin-left="0"
     fit-margin-right="0"
     fit-margin-bottom="0"
     inkscape:window-width="1366"
     inkscape:window-height="630"
     inkscape:window-x="0"
     inkscape:window-y="36"
     inkscape:window-maximized="1"
     inkscape:showpageshadow="false"
     showguides="true"
     inkscape:snap-bbox="true"
     inkscape:object-nodes="true">
    <sodipodi:guide
       position="4.1796875e-06,21.999997"
       orientation="22,0"
       id="guide4116" />
    <sodipodi:guide
       position="4.1796875e-06,-2.6953124e-06"
       orientation="0,22"
       id="guide4118" />
    <sodipodi:guide
       position="22.000004,-2.6953124e-06"
       orientation="-22,0"
       id="guide4120" />
    <sodipodi:guide
       position="22.000004,21.999997"
       orientation="0,-22"
       id="guide4122" />
    <sodipodi:guide
       position="2.0000042,19.999997"
       orientation="18,0"
       id="guide4124" />
    <sodipodi:guide
       position="20.000004,1.9999973"
       orientation="-18,0"
       id="guide4128" />
    <sodipodi:guide
       position="20.000004,19.999997"
       orientation="0,-18"
       id="guide4130" />
    <sodipodi:guide
       position="3.0000042,18.999997"
       orientation="16,0"
       id="guide4132" />
    <sodipodi:guide
       position="3.0000042,2.9999973"
       orientation="0,16"
       id="guide4134" />
    <sodipodi:guide
       position="19.000004,2.9999973"
       orientation="-16,0"
       id="guide4136" />
    <sodipodi:guide
       position="19.000004,18.999997"
       orientation="0,-16"
       id="guide4138" />
    <inkscape:grid
       type="xygrid"
       id="grid4140" />
  </sodipodi:namedview>
  <metadata
     id="metadata3765">
    <rdf:RDF>
      <cc:Work
         rdf:about="">
        <dc:format>image/svg+xml</dc:format>
        <dc:type
           rdf:resource="http://purl.org/dc/dcmitype/StillImage" />
        <dc:title></dc:title>
      </cc:Work>
    </rdf:RDF>
  </metadata>
  <g
     inkscape:label="Capa 1"
     inkscape:groupmode="layer"
     id="layer1"
     transform="translate(-553.72253,-583.11926)">
    <g
       id="g3"
       transform="matrix(0.64732775,0,0,0.64732775,554.84707,584.24395)"
       style="fill:#da4453;fill-opacity:1">
      <path
         style="fill:#da4453;fill-opacity:1"
         d="M 26.818,19.037 30.425,8.241 C 30.606,7.722 30.469,7.41 30.323,7.204 29.949,6.677 29.18,6.672 29.031,6.672 L 8.646,6.668 8.102,4.087 C 7.955,3.478 7.521,2.897 6.646,2.897 l -5.729,0 C 0.323,2.897 0,3.175 0,3.73 l 0,1.49 c 0,0.537 0.322,0.677 0.938,0.677 l 4.837,0 3.702,15.717 c -0.588,0.623 -0.908,1.531 -0.908,2.378 0,1.864 1.484,3.582 3.38,3.582 1.79,0 3.132,-1.677 3.35,-2.677 l 7.21,0 c 0.218,1 1.305,2.717 3.349,2.717 1.863,0 3.378,-1.614 3.378,-3.475 0,-1.851 -1.125,-3.492 -3.359,-3.492 -0.929,0 -2.031,0.5 -2.543,1.25 l -8.859,0 c -0.643,-1 -1.521,-1.31 -2.409,-1.345 l -0.123,-0.655 13.479,0 c 1.016,0 1.216,-0.37 1.396,-0.86 z"
         id="path5"
         inkscape:connector-curvature="0"
         sodipodi:nodetypes="ccccccsssssccssccsssccccsc" />
    </g>
  </g>
</svg>
