<?xml version="1.0" encoding="UTF-8" standalone="no"?>
<!-- Created with Inkscape (http://www.inkscape.org/) -->

<svg
   xmlns:dc="http://purl.org/dc/elements/1.1/"
   xmlns:cc="http://creativecommons.org/ns#"
   xmlns:rdf="http://www.w3.org/1999/02/22-rdf-syntax-ns#"
   xmlns:svg="http://www.w3.org/2000/svg"
   xmlns="http://www.w3.org/2000/svg"
   xmlns:sodipodi="http://sodipodi.sourceforge.net/DTD/sodipodi-0.dtd"
   xmlns:inkscape="http://www.inkscape.org/namespaces/inkscape"
   width="22"
   height="22"
   id="svg3869"
   version="1.1"
   inkscape:version="0.91 r13725"
   sodipodi:docname="chronometer-lap.svg">
  <defs
     id="defs3871">
    <inkscape:perspective
       sodipodi:type="inkscape:persp3d"
       inkscape:vp_x="0 : 12 : 1"
       inkscape:vp_y="0 : 1000 : 0"
       inkscape:vp_z="24 : 12 : 1"
       inkscape:persp3d-origin="12 : 8 : 1"
       id="perspective4146" />
    <inkscape:perspective
       sodipodi:type="inkscape:persp3d"
       inkscape:vp_x="0 : 12 : 1"
       inkscape:vp_y="0 : 1000 : 0"
       inkscape:vp_z="24 : 12 : 1"
       inkscape:persp3d-origin="12 : 8 : 1"
       id="perspective4090" />
  </defs>
  <sodipodi:namedview
     id="base"
     pagecolor="#ffffff"
     bordercolor="#666666"
     borderopacity="1.0"
     inkscape:pageopacity="0.0"
     inkscape:pageshadow="2"
     inkscape:zoom="11.313708"
     inkscape:cx="-9.7115508"
     inkscape:cy="10.802709"
     inkscape:document-units="px"
     inkscape:current-layer="layer1"
     showgrid="true"
     fit-margin-top="0"
     fit-margin-left="0"
     fit-margin-right="0"
     fit-margin-bottom="0"
     inkscape:window-width="1366"
     inkscape:window-height="630"
     inkscape:window-x="0"
     inkscape:window-y="36"
     inkscape:window-maximized="1"
     inkscape:showpageshadow="false"
     inkscape:object-nodes="true"
     inkscape:snap-bbox="true">
    <inkscape:grid
       type="xygrid"
       id="grid4132" />
    <sodipodi:guide
       position="4,18"
       orientation="18,0"
       id="guide4138" />
    <sodipodi:guide
       position="5,3"
       orientation="0,18"
       id="guide4140" />
    <sodipodi:guide
       position="20,2.0000174"
       orientation="-18,0"
       id="guide4142" />
    <sodipodi:guide
       position="2,21"
       orientation="0,-18"
       id="guide4144" />
    <sodipodi:guide
       position="3,19.000017"
       orientation="16,0"
       id="guide4146" />
    <sodipodi:guide
       position="2,4"
       orientation="0,16"
       id="guide4148" />
    <sodipodi:guide
       position="21,20"
       orientation="-16,0"
       id="guide4150" />
    <sodipodi:guide
       position="2,20"
       orientation="0,-16"
       id="guide4152" />
  </sodipodi:namedview>
  <metadata
     id="metadata3874">
    <rdf:RDF>
      <cc:Work
         rdf:about="">
        <dc:format>image/svg+xml</dc:format>
        <dc:type
           rdf:resource="http://purl.org/dc/dcmitype/StillImage" />
        <dc:title></dc:title>
      </cc:Work>
    </rdf:RDF>
  </metadata>
  <g
     inkscape:label="Capa 1"
     inkscape:groupmode="layer"
     id="layer1"
     transform="translate(-326,-534.3622)">
    <g
       id="g3"
       transform="matrix(0.0282076,0,0,0.0282076,329,537.3622)"
       style="fill:#4d4d4d;fill-opacity:1">
      <path
         d="m 464.986,141.272 c 0,0 8.996,9.052 15.346,0.017 l 12.101,-17.349 c 4.225,-6.103 -1.231,-10.327 -1.796,-10.744 l -73.412,-51.292 -0.017,0 c -4.52,-3.145 -7.521,-1.236 -9.1,0.533 l -1.311,1.891 -11.181,16.009 c -0.053,0.061 -6.315,9.937 3.695,15.159 l 0,0.013 c 14.295,7.035 40.526,21.868 65.657,45.814 l 0.018,-0.051 0,0 z"
         id="path5"
         inkscape:connector-curvature="0"
         style="fill:#4d4d4d;fill-opacity:1" />
      <path
         d="M 341.453,0 225.762,0 c -8.978,0 -16.334,7.213 -16.334,16.338 l 0,13.484 c 0,9.112 7.356,16.468 16.334,16.468 l 5.725,0 0,9.521 c 0.009,13.688 8.648,14.825 12.985,14.534 0.737,-0.109 1.501,-0.226 2.308,-0.33 0.009,0 0.122,-0.026 0.122,-0.026 l -0.009,0 c 15.397,-2.108 40.9,-4.125 70.151,-0.403 l 0.017,-0.026 c 0,0 18.737,3.474 18.686,-13.758 l 0,-9.52 5.725,0 c 8.987,0 16.325,-7.348 16.325,-16.473 l 0,-13.471 C 357.796,7.221 350.44,0 341.453,0 l 0,0 z"
         id="path7"
         inkscape:connector-curvature="0"
         style="fill:#4d4d4d;fill-opacity:1" />
      <path
         d="m 298.861,328.983 c -13.991,0.018 -15.18,-9.715 -15.249,-12.518 l 0,-164.714 c 0.408,-5.729 3.383,-16.521 19.969,-13.731 0.329,0.047 0.642,0.082 0.988,0.121 1.059,0.182 2.064,0.326 2.846,0.386 48.316,6.788 154.31,38.211 167.556,180.698 -0.373,3.965 -2.619,9.741 -12.543,9.794 -85.287,-0.235 -139.251,-0.123 -163.567,-0.036 l 0,0 z M 283.612,90.869 c -131.54,0 -238.167,106.64 -238.167,238.192 0,131.519 106.626,238.162 238.167,238.162 131.539,0 238.166,-106.644 238.166,-238.162 0,-131.552 -106.627,-238.192 -238.166,-238.192 l 0,0 z"
         id="path9"
         inkscape:connector-curvature="0"
         style="fill:#4d4d4d;fill-opacity:1" />
    </g>
  </g>
</svg>
