<?xml version="1.0" encoding="UTF-8" standalone="no"?>
<!-- Created with Inkscape (http://www.inkscape.org/) -->

<svg
   xmlns:dc="http://purl.org/dc/elements/1.1/"
   xmlns:cc="http://creativecommons.org/ns#"
   xmlns:rdf="http://www.w3.org/1999/02/22-rdf-syntax-ns#"
   xmlns:svg="http://www.w3.org/2000/svg"
   xmlns="http://www.w3.org/2000/svg"
   xmlns:sodipodi="http://sodipodi.sourceforge.net/DTD/sodipodi-0.dtd"
   xmlns:inkscape="http://www.inkscape.org/namespaces/inkscape"
   width="22"
   height="22"
   id="svg3869"
   version="1.1"
   inkscape:version="0.91 r13725"
   sodipodi:docname="chronometer-pause.svg">
  <defs
     id="defs3871">
    <inkscape:perspective
       sodipodi:type="inkscape:persp3d"
       inkscape:vp_x="0 : 12 : 1"
       inkscape:vp_y="0 : 1000 : 0"
       inkscape:vp_z="24 : 12 : 1"
       inkscape:persp3d-origin="12 : 8 : 1"
       id="perspective4146" />
    <inkscape:perspective
       sodipodi:type="inkscape:persp3d"
       inkscape:vp_x="0 : 12 : 1"
       inkscape:vp_y="0 : 1000 : 0"
       inkscape:vp_z="24 : 12 : 1"
       inkscape:persp3d-origin="12 : 8 : 1"
       id="perspective4090" />
    <inkscape:perspective
       id="perspective4146-6"
       inkscape:persp3d-origin="12 : 8 : 1"
       inkscape:vp_z="24 : 12 : 1"
       inkscape:vp_y="0 : 1000 : 0"
       inkscape:vp_x="0 : 12 : 1"
       sodipodi:type="inkscape:persp3d" />
    <inkscape:perspective
       id="perspective4090-0"
       inkscape:persp3d-origin="12 : 8 : 1"
       inkscape:vp_z="24 : 12 : 1"
       inkscape:vp_y="0 : 1000 : 0"
       inkscape:vp_x="0 : 12 : 1"
       sodipodi:type="inkscape:persp3d" />
    <inkscape:perspective
       id="perspective4146-5"
       inkscape:persp3d-origin="12 : 8 : 1"
       inkscape:vp_z="24 : 12 : 1"
       inkscape:vp_y="0 : 1000 : 0"
       inkscape:vp_x="0 : 12 : 1"
       sodipodi:type="inkscape:persp3d" />
    <inkscape:perspective
       id="perspective4090-5"
       inkscape:persp3d-origin="12 : 8 : 1"
       inkscape:vp_z="24 : 12 : 1"
       inkscape:vp_y="0 : 1000 : 0"
       inkscape:vp_x="0 : 12 : 1"
       sodipodi:type="inkscape:persp3d" />
  </defs>
  <sodipodi:namedview
     id="base"
     pagecolor="#ffffff"
     bordercolor="#666666"
     borderopacity="1.0"
     inkscape:pageopacity="0.0"
     inkscape:pageshadow="2"
     inkscape:zoom="15.999999"
     inkscape:cx="-8.3627627"
     inkscape:cy="14.77258"
     inkscape:document-units="px"
     inkscape:current-layer="layer1"
     showgrid="true"
     fit-margin-top="0"
     fit-margin-left="0"
     fit-margin-right="0"
     fit-margin-bottom="0"
     inkscape:window-width="1366"
     inkscape:window-height="630"
     inkscape:window-x="0"
     inkscape:window-y="36"
     inkscape:window-maximized="1"
     inkscape:showpageshadow="false"
     inkscape:object-nodes="true"
     inkscape:snap-bbox="true">
    <inkscape:grid
       type="xygrid"
       id="grid4132" />
    <sodipodi:guide
       position="4,18"
       orientation="18,0"
       id="guide4138" />
    <sodipodi:guide
       position="5,3"
       orientation="0,18"
       id="guide4140" />
    <sodipodi:guide
       position="20,2.0000174"
       orientation="-18,0"
       id="guide4142" />
    <sodipodi:guide
       position="2,21"
       orientation="0,-18"
       id="guide4144" />
    <sodipodi:guide
       position="3,19.000017"
       orientation="16,0"
       id="guide4146" />
    <sodipodi:guide
       position="2,4"
       orientation="0,16"
       id="guide4148" />
    <sodipodi:guide
       position="21,20"
       orientation="-16,0"
       id="guide4150" />
    <sodipodi:guide
       position="2,20"
       orientation="0,-16"
       id="guide4152" />
  </sodipodi:namedview>
  <metadata
     id="metadata3874">
    <rdf:RDF>
      <cc:Work
         rdf:about="">
        <dc:format>image/svg+xml</dc:format>
        <dc:type
           rdf:resource="http://purl.org/dc/dcmitype/StillImage" />
        <dc:title></dc:title>
      </cc:Work>
    </rdf:RDF>
  </metadata>
  <g
     inkscape:label="Capa 1"
     inkscape:groupmode="layer"
     id="layer1"
     transform="translate(-326,-534.3622)">
    <g
       id="g3"
       transform="matrix(0.0282076,0,0,0.0282076,330,536.3622)"
       style="fill:#4d4d4d;fill-opacity:1" />
    <g
       id="layer1-55"
       inkscape:label="Capa 1"
       transform="matrix(0.9154926,0,0,0.9154926,27.565236,47.439136)"
       style="fill:#4d4d4d;fill-opacity:1">
      <g
         inkscape:label="Capa 1"
         id="layer1-5"
         transform="translate(-224.28864,-74.28568)"
         style="fill:#4d4d4d;fill-opacity:1">
        <path
           id="rect3287"
           style="fill:#4d4d4d;fill-opacity:1;stroke:none"
           d="m 563.29059,616.64954 2,0 0,6 -2,0 z m -4.00769,0 2,0 0,6.00001 -2,0 z m 3.00386,-4.41711 c -4.05293,0 -7.33825,3.28573 -7.33825,7.33902 0,4.05228 3.28529,7.3381 7.33825,7.3381 4.0529,0 7.33822,-3.28585 7.33822,-7.3381 0,-4.05329 -3.28532,-7.33902 -7.33822,-7.33902 z m 1.78216,-2.7998 -3.5646,0 c -0.27662,0 -0.50327,0.22225 -0.50327,0.5034 l 0,0.41546 c 0,0.28075 0.22665,0.5074 0.50327,0.5074 l 0.1764,0 0,0.29336 c 2.7e-4,0.42174 0.26645,0.45678 0.40008,0.44781 0.0227,-0.003 0.0463,-0.007 0.0711,-0.0102 2.8e-4,0 0.004,-8e-4 0.004,-8e-4 l -2.7e-4,0 c 0.4744,-0.065 1.26018,-0.1271 2.16144,-0.0124 l 5.3e-4,-8e-4 c 0,0 0.57731,0.10704 0.57574,-0.4239 l 0,-0.29332 0.17639,0 c 0.27691,0 0.503,-0.22641 0.503,-0.50756 l 0,-0.41506 c -3e-5,-0.28091 -0.22668,-0.5034 -0.50358,-0.5034 l 0,0 z m 3.80622,4.35279 c 0,0 0.27718,0.2789 0.47283,5.2e-4 l 0.37285,-0.53454 c 0.13018,-0.18805 -0.0379,-0.31819 -0.0553,-0.33104 l -2.26192,-1.58038 -5.3e-4,0 c -0.13926,-0.0969 -0.23173,-0.0381 -0.28038,0.0164 l -0.0404,0.0583 -0.3445,0.49326 c -0.002,0.002 -0.19458,0.30617 0.11384,0.46707 l 0,4e-4 c 0.44045,0.21676 1.24866,0.67378 2.02299,1.41159 l 5.5e-4,-0.002 0,0 z"
           inkscape:connector-curvature="0" />
      </g>
    </g>
  </g>
</svg>
