<?xml version="1.0" encoding="UTF-8" standalone="no"?>
<!-- Created with Inkscape (http://www.inkscape.org/) -->

<svg
   xmlns:dc="http://purl.org/dc/elements/1.1/"
   xmlns:cc="http://creativecommons.org/ns#"
   xmlns:rdf="http://www.w3.org/1999/02/22-rdf-syntax-ns#"
   xmlns:svg="http://www.w3.org/2000/svg"
   xmlns="http://www.w3.org/2000/svg"
   xmlns:sodipodi="http://sodipodi.sourceforge.net/DTD/sodipodi-0.dtd"
   xmlns:inkscape="http://www.inkscape.org/namespaces/inkscape"
   width="22"
   height="22"
   id="svg3869"
   version="1.1"
   inkscape:version="0.91 r13725"
   sodipodi:docname="dialog-text-and-font.svg">
  <defs
     id="defs3871" />
  <sodipodi:namedview
     id="base"
     pagecolor="#ffffff"
     bordercolor="#666666"
     borderopacity="1.0"
     inkscape:pageopacity="0.0"
     inkscape:pageshadow="2"
     inkscape:zoom="11.313708"
     inkscape:cx="28.165712"
     inkscape:cy="6.3654626"
     inkscape:document-units="px"
     inkscape:current-layer="layer1"
     showgrid="true"
     fit-margin-top="0"
     fit-margin-left="0"
     fit-margin-right="0"
     fit-margin-bottom="0"
     inkscape:window-width="1366"
     inkscape:window-height="630"
     inkscape:window-x="0"
     inkscape:window-y="36"
     inkscape:window-maximized="1"
     inkscape:showpageshadow="false"
     inkscape:object-nodes="true"
     inkscape:snap-bbox="true">
    <inkscape:grid
       type="xygrid"
       id="grid4132" />
    <sodipodi:guide
       position="4,18"
       orientation="18,0"
       id="guide4138" />
    <sodipodi:guide
       position="5,3"
       orientation="0,18"
       id="guide4140" />
    <sodipodi:guide
       position="20,2.0000174"
       orientation="-18,0"
       id="guide4142" />
    <sodipodi:guide
       position="2,21"
       orientation="0,-18"
       id="guide4144" />
    <sodipodi:guide
       position="3,19.000017"
       orientation="16,0"
       id="guide4146" />
    <sodipodi:guide
       position="2,4"
       orientation="0,16"
       id="guide4148" />
    <sodipodi:guide
       position="21,20"
       orientation="-16,0"
       id="guide4150" />
    <sodipodi:guide
       position="2,20"
       orientation="0,-16"
       id="guide4152" />
  </sodipodi:namedview>
  <metadata
     id="metadata3874">
    <rdf:RDF>
      <cc:Work
         rdf:about="">
        <dc:format>image/svg+xml</dc:format>
        <dc:type
           rdf:resource="http://purl.org/dc/dcmitype/StillImage" />
        <dc:title></dc:title>
      </cc:Work>
    </rdf:RDF>
  </metadata>
  <g
     inkscape:label="Capa 1"
     inkscape:groupmode="layer"
     id="layer1"
     transform="translate(-326,-534.3622)">
    <g
       id="g4206"
       transform="matrix(1.0666682,0,0,1.0666682,-22.949315,-35.824992)">
      <g
         style="fill:#4d4d4d;fill-opacity:1"
         inkscape:label="Capa 1"
         id="layer1-4"
         transform="translate(326,-495.99996)">
        <g
           style="fill:#4d4d4d;fill-opacity:1"
           transform="translate(-551.28571,422.71427)"
           id="layer1-5"
           inkscape:label="Capa 1">
          <path
             id="path3083"
             d="m 569.28571,610.64791 c -0.55229,0 -1,0.44771 -1,1 0,0.55228 0.44771,1 1,1 0.55228,0 1,-0.44772 1,-1 0,-0.55229 -0.44772,-1 -1,-1 z m 0,4 c -0.55229,0 -1,0.44771 -1,1 0,0.55228 0.44771,1 1,1 0.55228,0 1,-0.44772 1,-1 0,-0.55229 -0.44772,-1 -1,-1 z m 0,4 c -0.55229,0 -1,0.44771 -1,1 0,0.55228 0.44771,1 1,1 0.55228,0 1,-0.44772 1,-1 0,-0.55229 -0.44772,-1 -1,-1 z"
             style="color:#000000;display:inline;overflow:visible;visibility:visible;fill:#4d4d4d;fill-opacity:1;fill-rule:nonzero;stroke:none;stroke-width:2;marker:none;enable-background:accumulate"
             inkscape:connector-curvature="0" />
        </g>
      </g>
      <g
         transform="matrix(1.4220416,0,0,1.4220416,-114.00762,-224.58755)"
         id="text4205"
         style="font-style:normal;font-weight:normal;font-size:13.75px;line-height:125%;font-family:sans-serif;letter-spacing:0px;word-spacing:0px;fill:#4d4d4d;fill-opacity:1;stroke:none;stroke-width:1px;stroke-linecap:butt;stroke-linejoin:miter;stroke-opacity:1">
        <path
           inkscape:connector-curvature="0"
           id="path4210"
           style="font-style:normal;font-variant:normal;font-weight:normal;font-stretch:normal;font-family:'Product Sans';-inkscape-font-specification:'Product Sans';fill:#4d4d4d;fill-opacity:1"
           d="m 312.165,546.36218 3.7125,-9.845 1.43,0 3.7125,9.845 -1.4025,0 -0.94875,-2.6675 -4.13875,0 -0.9625,2.6675 -1.4025,0 z m 2.79125,-3.85 3.2725,0 -1.60875,-4.44125 -0.055,0 -1.60875,4.44125 z" />
      </g>
    </g>
  </g>
</svg>
