<?xml version="1.0" encoding="UTF-8" standalone="no"?>
<!-- Created with Inkscape (http://www.inkscape.org/) -->

<svg
   xmlns:dc="http://purl.org/dc/elements/1.1/"
   xmlns:cc="http://creativecommons.org/ns#"
   xmlns:rdf="http://www.w3.org/1999/02/22-rdf-syntax-ns#"
   xmlns:svg="http://www.w3.org/2000/svg"
   xmlns="http://www.w3.org/2000/svg"
   xmlns:sodipodi="http://sodipodi.sourceforge.net/DTD/sodipodi-0.dtd"
   xmlns:inkscape="http://www.inkscape.org/namespaces/inkscape"
   width="22"
   height="22"
   id="svg3869"
   version="1.1"
   inkscape:version="0.91 r13725"
   sodipodi:docname="edit-select-lasso.svg">
  <defs
     id="defs3871">
    <linearGradient
       id="linearGradient3257">
      <stop
         offset="0"
         style="stop-color:#a50000;stop-opacity:1"
         id="stop3259" />
      <stop
         offset="1"
         style="stop-color:#e73800;stop-opacity:1"
         id="stop3261" />
    </linearGradient>
  </defs>
  <sodipodi:namedview
     id="base"
     pagecolor="#ffffff"
     bordercolor="#666666"
     borderopacity="1.0"
     inkscape:pageopacity="0.0"
     inkscape:pageshadow="2"
     inkscape:zoom="15.999999"
     inkscape:cx="-0.20069572"
     inkscape:cy="9.9531011"
     inkscape:document-units="px"
     inkscape:current-layer="layer1"
     showgrid="true"
     fit-margin-top="0"
     fit-margin-left="0"
     fit-margin-right="0"
     fit-margin-bottom="0"
     inkscape:window-width="1366"
     inkscape:window-height="630"
     inkscape:window-x="0"
     inkscape:window-y="36"
     inkscape:window-maximized="1"
     inkscape:showpageshadow="false"
     inkscape:object-nodes="true"
     inkscape:snap-bbox="true">
    <inkscape:grid
       type="xygrid"
       id="grid4132" />
    <sodipodi:guide
       position="4,18"
       orientation="18,0"
       id="guide4138" />
    <sodipodi:guide
       position="5,3"
       orientation="0,18"
       id="guide4140" />
    <sodipodi:guide
       position="20,2.0000174"
       orientation="-18,0"
       id="guide4142" />
    <sodipodi:guide
       position="2,21"
       orientation="0,-18"
       id="guide4144" />
    <sodipodi:guide
       position="3,19.000017"
       orientation="16,0"
       id="guide4146" />
    <sodipodi:guide
       position="2,4"
       orientation="0,16"
       id="guide4148" />
    <sodipodi:guide
       position="21,20"
       orientation="-16,0"
       id="guide4150" />
    <sodipodi:guide
       position="2,20"
       orientation="0,-16"
       id="guide4152" />
  </sodipodi:namedview>
  <metadata
     id="metadata3874">
    <rdf:RDF>
      <cc:Work
         rdf:about="">
        <dc:format>image/svg+xml</dc:format>
        <dc:type
           rdf:resource="http://purl.org/dc/dcmitype/StillImage" />
        <dc:title></dc:title>
      </cc:Work>
    </rdf:RDF>
  </metadata>
  <g
     inkscape:label="Capa 1"
     inkscape:groupmode="layer"
     id="layer1"
     transform="translate(-326,-534.3622)">
    <g
       id="g3"
       transform="matrix(0.03965186,0,0,0.03965186,327.16345,535.52556)"
       style="fill:#4d4d4d;fill-opacity:1">
      <path
         d="m 250.201,81.608 c 97.43,0 179.746,43.434 179.746,94.834 0,12.449 -4.934,24.449 -13.645,35.465 l 35.402,10.404 c 8.613,-14.227 13.533,-29.629 13.533,-45.869 0,-72.965 -94.463,-130.123 -215.037,-130.123 -120.574,0 -215.036,57.158 -215.036,130.123 0,26.918 12.936,51.643 35.189,72.172 -6.951,4.502 -13.756,10.502 -18.836,18.984 -10.453,17.449 -10.66,39.094 -0.645,64.35 9.433,23.791 7.125,32.582 5.693,35.242 -3.354,6.322 -18.127,9.514 -32.385,12.596 -3.486,0.758 -7.035,1.531 -10.582,2.371 -9.484,2.24 -15.353,11.725 -13.129,21.225 1.902,8.111 9.164,13.596 17.16,13.596 1.34,0 2.709,-0.16 4.068,-0.467 3.32,-0.791 6.656,-1.518 9.932,-2.227 21.111,-4.564 45.016,-9.742 56.076,-30.482 8.486,-15.902 7.195,-36.516 -4.031,-64.85 -5.725,-14.435 -6.385,-25.564 -1.947,-33.098 4.965,-8.451 16.141,-12.207 22.19,-13.467 35.705,19.902 82.85,32.354 135.592,33.869 l -10.504,-35.74 C 141.138,264.758 70.45,224.069 70.45,176.442 70.451,125.041 152.772,81.608 250.201,81.608 Z"
         id="path5"
         inkscape:connector-curvature="0"
         style="fill:#4d4d4d;fill-opacity:1" />
      <path
         d="M 487.573,269.629 265.524,204.358 c -1.115,-0.338 -2.244,-0.482 -3.373,-0.482 -3.113,0 -6.158,1.227 -8.434,3.5 -3.096,3.08 -4.258,7.613 -3.018,11.789 l 65.271,222.102 c 1.34,4.613 5.352,7.982 10.143,8.5 0.453,0.047 0.891,0.064 1.322,0.064 4.309,0 8.307,-2.338 10.439,-6.162 l 54.076,-98.043 98.025,-54.094 c 4.225,-2.322 6.629,-6.951 6.1,-11.727 -0.514,-4.787 -3.874,-8.805 -8.502,-10.176 z"
         id="path7"
         inkscape:connector-curvature="0"
         style="fill:#4d4d4d;fill-opacity:1" />
    </g>
  </g>
</svg>
