<?xml version="1.0" encoding="UTF-8" standalone="no"?>
<!-- Created with Inkscape (http://www.inkscape.org/) -->

<svg
   xmlns:osb="http://www.openswatchbook.org/uri/2009/osb"
   xmlns:dc="http://purl.org/dc/elements/1.1/"
   xmlns:cc="http://creativecommons.org/ns#"
   xmlns:rdf="http://www.w3.org/1999/02/22-rdf-syntax-ns#"
   xmlns:svg="http://www.w3.org/2000/svg"
   xmlns="http://www.w3.org/2000/svg"
   xmlns:sodipodi="http://sodipodi.sourceforge.net/DTD/sodipodi-0.dtd"
   xmlns:inkscape="http://www.inkscape.org/namespaces/inkscape"
   width="22"
   height="22"
   id="svg3869"
   version="1.1"
   inkscape:version="0.91 r13725"
   sodipodi:docname="edit-guides.svg">
  <defs
     id="defs3871">
    <inkscape:perspective
       sodipodi:type="inkscape:persp3d"
       inkscape:vp_x="0 : 12 : 1"
       inkscape:vp_y="0 : 1000 : 0"
       inkscape:vp_z="24 : 12 : 1"
       inkscape:persp3d-origin="12 : 8 : 1"
       id="perspective4146" />
    <inkscape:perspective
       sodipodi:type="inkscape:persp3d"
       inkscape:vp_x="0 : 12 : 1"
       inkscape:vp_y="0 : 1000 : 0"
       inkscape:vp_z="24 : 12 : 1"
       inkscape:persp3d-origin="12 : 8 : 1"
       id="perspective4090" />
    <clipPath
       clipPathUnits="userSpaceOnUse"
       id="clipPath16">
      <path
         d="m 0,706.465 1490.926,0 L 1490.926,0 0,0 0,706.465 Z"
         id="path18"
         inkscape:connector-curvature="0" />
    </clipPath>
    <clipPath
       clipPathUnits="userSpaceOnUse"
       id="clipPath24">
      <path
         d="m 22.1953,686.117 1447.7347,0 0,-667.1902 -1447.7347,0 0,667.1902 z"
         id="path26"
         inkscape:connector-curvature="0" />
    </clipPath>
    <clipPath
       clipPathUnits="userSpaceOnUse"
       id="clipPath4534">
      <rect
         ry="15.999986"
         y="8.0000038"
         x="8.0000114"
         height="31.999971"
         width="31.999989"
         id="rect4536"
         style="fill:url(#linearGradient4538);fill-opacity:1;stroke:none" />
    </clipPath>
    <clipPath
       clipPathUnits="userSpaceOnUse"
       id="clipPath4584">
      <rect
         ry="15.999986"
         y="507.798"
         x="392.57144"
         height="31.999971"
         width="31.999989"
         id="rect4586"
         style="fill:url(#linearGradient4588);fill-opacity:1;stroke:none" />
    </clipPath>
    <clipPath
       clipPathUnits="userSpaceOnUse"
       id="clipPath4550">
      <rect
         ry="15.999986"
         y="507.798"
         x="392.57144"
         height="31.999971"
         width="31.999989"
         id="rect4552"
         style="fill:url(#linearGradient4554);fill-opacity:1;stroke:none" />
    </clipPath>
    <clipPath
       clipPathUnits="userSpaceOnUse"
       id="clipPath4568">
      <rect
         ry="15.999986"
         y="507.798"
         x="392.57144"
         height="31.999971"
         width="31.999989"
         id="rect4570"
         style="fill:url(#linearGradient4572);fill-opacity:1;stroke:none" />
    </clipPath>
    <clipPath
       clipPathUnits="userSpaceOnUse"
       id="clipPath4528">
      <rect
         ry="15.999986"
         y="8.0000038"
         x="8.0000114"
         height="31.999971"
         width="31.999989"
         id="rect4530"
         style="fill:url(#linearGradient4532);fill-opacity:1;stroke:none" />
    </clipPath>
    <clipPath
       clipPathUnits="userSpaceOnUse"
       id="clipPath4578">
      <rect
         ry="15.999986"
         y="507.798"
         x="392.57144"
         height="31.999971"
         width="31.999989"
         id="rect4580"
         style="fill:url(#linearGradient4582);fill-opacity:1;stroke:none" />
    </clipPath>
    <clipPath
       clipPathUnits="userSpaceOnUse"
       id="clipPath4562">
      <rect
         ry="15.999986"
         y="507.798"
         x="392.57144"
         height="31.999971"
         width="31.999989"
         id="rect4564"
         style="fill:url(#linearGradient4566);fill-opacity:1;stroke:none" />
    </clipPath>
    <clipPath
       clipPathUnits="userSpaceOnUse"
       id="clipPath4544">
      <rect
         ry="15.999986"
         y="507.798"
         x="392.57144"
         height="31.999971"
         width="31.999989"
         id="rect4546"
         style="fill:url(#linearGradient4548);fill-opacity:1;stroke:none" />
    </clipPath>
    <clipPath
       clipPathUnits="userSpaceOnUse"
       id="clipPath4390">
      <rect
         ry="15.999986"
         y="8.0000038"
         x="8.0000114"
         height="31.999971"
         width="31.999989"
         id="rect4392"
         style="fill:url(#linearGradient4532);fill-opacity:1;stroke:none" />
    </clipPath>
    <clipPath
       clipPathUnits="userSpaceOnUse"
       id="clipPath4407">
      <rect
         ry="15.999986"
         y="507.798"
         x="392.57144"
         height="31.999971"
         width="31.999989"
         id="rect4409"
         style="fill:url(#linearGradient4582);fill-opacity:1;stroke:none" />
    </clipPath>
    <clipPath
       clipPathUnits="userSpaceOnUse"
       id="clipPath4424">
      <rect
         ry="15.999986"
         y="507.798"
         x="392.57144"
         height="31.999971"
         width="31.999989"
         id="rect4426"
         style="fill:url(#linearGradient4566);fill-opacity:1;stroke:none" />
    </clipPath>
    <clipPath
       clipPathUnits="userSpaceOnUse"
       id="clipPath4441">
      <rect
         ry="15.999986"
         y="507.798"
         x="392.57144"
         height="31.999971"
         width="31.999989"
         id="rect4443"
         style="fill:url(#linearGradient4548);fill-opacity:1;stroke:none" />
    </clipPath>
    <clipPath
       id="clipPath4528-1"
       clipPathUnits="userSpaceOnUse">
      <rect
         style="fill:url(#linearGradient4532);fill-opacity:1;stroke:none"
         id="rect4530-7"
         width="31.999989"
         height="31.999971"
         x="8.0000114"
         y="8.0000038"
         ry="15.999986" />
    </clipPath>
    <clipPath
       id="clipPath4578-8"
       clipPathUnits="userSpaceOnUse">
      <rect
         style="fill:url(#linearGradient4582);fill-opacity:1;stroke:none"
         id="rect4580-7"
         width="31.999989"
         height="31.999971"
         x="392.57144"
         y="507.798"
         ry="15.999986" />
    </clipPath>
    <clipPath
       id="clipPath4562-8"
       clipPathUnits="userSpaceOnUse">
      <rect
         style="fill:url(#linearGradient4566);fill-opacity:1;stroke:none"
         id="rect4564-8"
         width="31.999989"
         height="31.999971"
         x="392.57144"
         y="507.798"
         ry="15.999986" />
    </clipPath>
    <clipPath
       id="clipPath4544-1"
       clipPathUnits="userSpaceOnUse">
      <rect
         style="fill:url(#linearGradient4548);fill-opacity:1;stroke:none"
         id="rect4546-1"
         width="31.999989"
         height="31.999971"
         x="392.57144"
         y="507.798"
         ry="15.999986" />
    </clipPath>
    <linearGradient
       osb:paint="gradient"
       id="linearGradient4207">
      <stop
         id="stop3371"
         offset="0"
         style="stop-color:#3498db;stop-opacity:1;" />
      <stop
         id="stop3373"
         offset="1"
         style="stop-color:#3498db;stop-opacity:0;" />
    </linearGradient>
  </defs>
  <sodipodi:namedview
     id="base"
     pagecolor="#919191"
     bordercolor="#666666"
     borderopacity="1.0"
     inkscape:pageopacity="0"
     inkscape:pageshadow="2"
     inkscape:zoom="15.999999"
     inkscape:cx="2.87879"
     inkscape:cy="14.802077"
     inkscape:document-units="px"
     inkscape:current-layer="layer1"
     showgrid="true"
     fit-margin-top="0"
     fit-margin-left="0"
     fit-margin-right="0"
     fit-margin-bottom="0"
     inkscape:window-width="1366"
     inkscape:window-height="633"
     inkscape:window-x="0"
     inkscape:window-y="33"
     inkscape:window-maximized="1"
     inkscape:showpageshadow="false"
     inkscape:object-nodes="true"
     inkscape:snap-bbox="true"
     showguides="false">
    <inkscape:grid
       type="xygrid"
       id="grid4132" />
    <sodipodi:guide
       position="4,18"
       orientation="18,0"
       id="guide4138" />
    <sodipodi:guide
       position="5,3"
       orientation="0,18"
       id="guide4140" />
    <sodipodi:guide
       position="20,2.0000174"
       orientation="-18,0"
       id="guide4142" />
    <sodipodi:guide
       position="2,21"
       orientation="0,-18"
       id="guide4144" />
    <sodipodi:guide
       position="3,19.000017"
       orientation="16,0"
       id="guide4146" />
    <sodipodi:guide
       position="2,4"
       orientation="0,16"
       id="guide4148" />
    <sodipodi:guide
       position="21,20"
       orientation="-16,0"
       id="guide4150" />
    <sodipodi:guide
       position="2,20"
       orientation="0,-16"
       id="guide4152" />
  </sodipodi:namedview>
  <metadata
     id="metadata3874">
    <rdf:RDF>
      <cc:Work
         rdf:about="">
        <dc:format>image/svg+xml</dc:format>
        <dc:type
           rdf:resource="http://purl.org/dc/dcmitype/StillImage" />
        <dc:title></dc:title>
      </cc:Work>
    </rdf:RDF>
  </metadata>
  <g
     inkscape:label="Capa 1"
     inkscape:groupmode="layer"
     id="layer1"
     transform="translate(-326,-534.3622)">
    <path
       style="fill:#4d4d4d;fill-opacity:1"
       d="m 344.7429,538.06661 -0.23257,0 c -0.0933,0 -0.18768,0.0579 -0.18768,0.16851 l 0,1.09942 c 0,0.0362 -0.0294,0.0657 -0.0657,0.0657 l -0.46909,0 c -0.0363,0 -0.0657,-0.0295 -0.0657,-0.0657 l 0,-1.06278 c 0,-0.0666 -0.019,-0.11946 -0.0565,-0.15687 -0.046,-0.0459 -0.10074,-0.0483 -0.11157,-0.0483 -5e-5,0 -1.3e-4,0 -1.7e-4,0 l -1.2351,0 c -0.0732,0 -0.18209,0.0517 -0.18209,0.19415 l 0,0.48689 c 0,0.0362 -0.0295,0.0657 -0.0657,0.0657 l -0.46909,0 c -0.0362,0 -0.0657,-0.0295 -0.0657,-0.0657 l 0,-0.50153 -1.2e-4,-0.004 c -0.004,-0.0705 -0.0538,-0.17538 -0.17745,-0.17538 l -1.24965,0 c -0.058,0 -0.0939,0.0256 -0.11388,0.0472 -0.0443,0.0476 -0.0452,0.11133 -0.0444,0.1309 l 0,1.08988 c 0,0.0362 -0.0295,0.0657 -0.0657,0.0657 l -0.46909,0 c -0.0362,0 -0.0657,-0.0295 -0.0657,-0.0657 l 0,-1.06642 c 0,-0.0774 -0.0302,-0.12391 -0.0556,-0.14922 -0.0497,-0.0496 -0.11141,-0.0523 -0.12359,-0.0523 -8e-5,0 -1.6e-4,0 -2e-4,0 l -1.24609,0 c -0.0619,0 -0.16002,0.0478 -0.16002,0.17583 l 0,0.50521 c 0,0.0362 -0.0295,0.0657 -0.0657,0.0657 l -0.4691,0 c -0.0362,0 -0.0657,-0.0295 -0.0657,-0.0657 l 0,-0.47593 c 0,-0.0803 -0.0308,-0.12783 -0.0566,-0.15359 -0.049,-0.049 -0.10902,-0.0516 -0.12083,-0.0516 -8e-5,0 -1.6e-4,0 -2e-4,0 l -1.24597,0 c -0.065,0 -0.16184,0.0517 -0.16184,0.19415 l 0,1.07378 c 0,0.0362 -0.0295,0.0657 -0.0657,0.0657 l -0.4691,0 c -0.0362,0 -0.0657,-0.0295 -0.0657,-0.0657 l 0,-1.07742 c 0,-0.0767 -0.0287,-0.12132 -0.0527,-0.1453 -0.043,-0.0429 -0.0945,-0.0452 -0.1047,-0.0452 -8e-5,0 -1.2e-4,0 -2e-4,0 l -1.25337,0 c -0.0868,0 -0.17454,0.0554 -0.17454,0.16119 l 0,0.51985 c 0,0.0362 -0.0295,0.0657 -0.0657,0.0657 l -0.41564,0 0,-0.77579 0,-0.31142 c 0,-0.20066 -0.16325,-0.36395 -0.36395,-0.36395 l -3.3,0 c -0.20096,-7e-5 -0.36421,0.16322 -0.36421,0.36388 l 0,4.0237 c 0,0.20066 0.16325,0.36395 0.36395,0.36395 l 0.17114,0 0,0.55782 c 0,0.0932 0.0702,0.1584 0.17078,0.1584 0.003,0 0.005,-4e-5 0.007,-1.2e-4 l 1.08996,0 c 0.0362,0 0.0657,0.0295 0.0657,0.0657 l 0,0.4691 c 0,0.0362 -0.0295,0.0657 -0.0657,0.0657 l -1.06642,0 c -0.0774,0 -0.12391,0.0303 -0.14922,0.0557 -0.0499,0.05 -0.0523,0.11201 -0.0523,0.12378 l 0,1.24585 c -4e-5,0.0108 0.002,0.0667 0.0467,0.11137 0.0222,0.0223 0.0627,0.0489 0.12916,0.0489 l 0.50521,0 c 0.0362,0 0.0657,0.0295 0.0657,0.0657 l 0,0.4691 c 0,0.0362 -0.0295,0.0657 -0.0657,0.0657 l -0.47589,0 c -0.0802,0 -0.12783,0.0308 -0.15359,0.0566 -0.0492,0.0493 -0.0516,0.10959 -0.0516,0.12103 l 0,1.24581 c -5e-5,0.0103 0.002,0.0638 0.0466,0.10834 0.0244,0.0245 0.0698,0.0537 0.1476,0.0537 l 1.07378,0 c 0.0362,0 0.0657,0.0295 0.0657,0.0657 l 0,0.4691 c 0,0.0362 -0.0295,0.0657 -0.0657,0.0657 l -1.07746,0 c -0.0767,0 -0.12132,0.0286 -0.1453,0.0527 -0.0432,0.0433 -0.0453,0.0952 -0.0452,0.10486 l 0,1.25321 c -4e-5,0.0133 0.002,0.0819 0.051,0.13066 0.0288,0.0288 0.0668,0.044 0.11018,0.044 l 0.51986,0 c 0.0362,0 0.0657,0.0295 0.0657,0.0657 l 0,0.4691 c 0,0.0362 -0.0295,0.0657 -0.0657,0.0657 l -0.49786,0 c -0.13441,0 -0.18319,0.0932 -0.18319,0.15577 l 0,1.25115 c -9.7e-4,0.0205 -7.3e-4,0.0902 0.0432,0.13729 0.0248,0.0266 0.0591,0.0412 0.0967,0.0412 l 1.12801,0 c 0.0362,0 0.0657,0.0295 0.0657,0.0657 l 0,0.4691 c 0,0.0362 -0.0295,0.0657 -0.0657,0.0657 l -1.06277,0 c -0.15051,0 -0.20515,0.12059 -0.20515,0.20163 l 0,0.61213 c 0,0.20628 0.16778,0.37406 0.37405,0.37406 l 2.74465,0 c 0.20628,0 0.37406,-0.16778 0.37406,-0.37406 l 0,-11.23829 0,-0.19047 11.8317,0 c 0.20627,0 0.37406,-0.16778 0.37406,-0.37406 l 0,-2.74465 c 0,-0.20624 -0.16783,-0.37406 -0.37406,-0.37406 z"
       id="path4239"
       inkscape:connector-curvature="0" />
  </g>
</svg>
