<?xml version="1.0" encoding="UTF-8" standalone="no"?>
<!-- Created with Inkscape (http://www.inkscape.org/) -->

<svg
   xmlns:dc="http://purl.org/dc/elements/1.1/"
   xmlns:cc="http://creativecommons.org/ns#"
   xmlns:rdf="http://www.w3.org/1999/02/22-rdf-syntax-ns#"
   xmlns:svg="http://www.w3.org/2000/svg"
   xmlns="http://www.w3.org/2000/svg"
   xmlns:sodipodi="http://sodipodi.sourceforge.net/DTD/sodipodi-0.dtd"
   xmlns:inkscape="http://www.inkscape.org/namespaces/inkscape"
   width="24"
   height="24"
   id="svg2"
   version="1.1"
   inkscape:version="0.91 r13725"
   viewBox="0 0 24 24"
   sodipodi:docname="exchange-positions.svg">
  <defs
     id="defs4" />
  <sodipodi:namedview
     id="base"
     pagecolor="#ffffff"
     bordercolor="#666666"
     borderopacity="1.0"
     inkscape:pageopacity="0.0"
     inkscape:pageshadow="2"
     inkscape:zoom="8.420999"
     inkscape:cx="28.070252"
     inkscape:cy="-5.4286025"
     inkscape:document-units="px"
     inkscape:current-layer="layer1"
     showgrid="true"
     inkscape:showpageshadow="false"
     borderlayer="true"
     inkscape:window-width="1920"
     inkscape:window-height="1016"
     inkscape:window-x="-4"
     inkscape:window-y="0"
     inkscape:window-maximized="1"
     units="px"
     fit-margin-top="0"
     fit-margin-left="0"
     fit-margin-right="0"
     fit-margin-bottom="0"
     inkscape:object-nodes="true"
     inkscape:snap-bbox="true">
    <sodipodi:guide
       position="4,20"
       orientation="16,0"
       id="guide4093" />
    <sodipodi:guide
       position="4,4"
       orientation="0,16"
       id="guide4095" />
    <sodipodi:guide
       position="20,4"
       orientation="-16,0"
       id="guide4097" />
    <sodipodi:guide
       position="20,20"
       orientation="0,-16"
       id="guide4099" />
    <inkscape:grid
       type="xygrid"
       id="grid4101"
       originx="1px"
       originy="0.99998262px" />
    <sodipodi:guide
       position="4,20"
       orientation="16,0"
       id="guide4123" />
    <sodipodi:guide
       position="4,4"
       orientation="0,2.000001"
       id="guide4125" />
    <sodipodi:guide
       position="6.000001,20"
       orientation="0,-2.000001"
       id="guide4129" />
    <sodipodi:guide
       position="18,4"
       orientation="0,2"
       id="guide4133" />
    <sodipodi:guide
       position="20,4"
       orientation="-16,0"
       id="guide4135" />
    <sodipodi:guide
       position="20,20"
       orientation="0,-2"
       id="guide4137" />
  </sodipodi:namedview>
  <metadata
     id="metadata7">
    <rdf:RDF>
      <cc:Work
         rdf:about="">
        <dc:format>image/svg+xml</dc:format>
        <dc:type
           rdf:resource="http://purl.org/dc/dcmitype/StillImage" />
        <dc:title></dc:title>
      </cc:Work>
    </rdf:RDF>
  </metadata>
  <g
     inkscape:label="Capa 1"
     inkscape:groupmode="layer"
     id="layer1"
     transform="translate(1,-1029.3622)">
    <path
       style="fill:#4d4d4d;fill-opacity:1;stroke:none;stroke-opacity:1"
       d="m 3,1033.3622 0,7 8,0 0,-7 -8,0 z m 1,1 6,0 0,5 -6,0 0,-5 z m 8,0.078 0,1.0117 0,2.9102 1,0 0,-2.6445 a 6,6 0 0 1 4,5.6445 l 1,0 a 7,7 0 0 0 -6,-6.9219 z m -8,6.9219 a 7,7 0 0 0 6,6.9219 l 0,-1.0117 0,-2.9102 -1,0 0,2.6445 a 6,6 0 0 1 -4,-5.6445 l -1,0 z m 7,1 0,7 8,0 0,-7 -8,0 z m 1,1 6,0 0,5 -6,0 0,-5 z"
       id="rect4253-0"
       inkscape:connector-curvature="0" />
  </g>
</svg>
