<?xml version="1.0" encoding="UTF-8" standalone="no"?>
<!-- Created with Inkscape (http://www.inkscape.org/) -->

<svg
   xmlns:dc="http://purl.org/dc/elements/1.1/"
   xmlns:cc="http://creativecommons.org/ns#"
   xmlns:rdf="http://www.w3.org/1999/02/22-rdf-syntax-ns#"
   xmlns:svg="http://www.w3.org/2000/svg"
   xmlns="http://www.w3.org/2000/svg"
   xmlns:sodipodi="http://sodipodi.sourceforge.net/DTD/sodipodi-0.dtd"
   xmlns:inkscape="http://www.inkscape.org/namespaces/inkscape"
   width="22"
   height="22"
   id="svg2"
   version="1.1"
   inkscape:version="0.91 r13725"
   viewBox="0 0 22 22"
   sodipodi:docname="fill-color.svg">
  <defs
     id="defs4" />
  <sodipodi:namedview
     id="base"
     pagecolor="#ffffff"
     bordercolor="#666666"
     borderopacity="1.0"
     inkscape:pageopacity="0.0"
     inkscape:pageshadow="2"
     inkscape:zoom="16.841998"
     inkscape:cx="-15.170557"
     inkscape:cy="11.261811"
     inkscape:document-units="px"
     inkscape:current-layer="layer1"
     showgrid="true"
     inkscape:showpageshadow="false"
     borderlayer="true"
     inkscape:window-width="1366"
     inkscape:window-height="630"
     inkscape:window-x="0"
     inkscape:window-y="36"
     inkscape:window-maximized="1"
     units="px"
     fit-margin-top="0"
     fit-margin-left="0"
     fit-margin-right="0"
     fit-margin-bottom="0"
     inkscape:object-nodes="true"
     inkscape:snap-bbox="true">
    <sodipodi:guide
       position="4,20"
       orientation="16,0"
       id="guide4093" />
    <sodipodi:guide
       position="4,4"
       orientation="0,16"
       id="guide4095" />
    <sodipodi:guide
       position="20,4"
       orientation="-16,0"
       id="guide4097" />
    <sodipodi:guide
       position="20,20"
       orientation="0,-16"
       id="guide4099" />
    <inkscape:grid
       type="xygrid"
       id="grid4101"
       originx="1px"
       originy="0.99998262px" />
    <sodipodi:guide
       position="4,20"
       orientation="16,0"
       id="guide4123" />
    <sodipodi:guide
       position="4,4"
       orientation="0,2.000001"
       id="guide4125" />
    <sodipodi:guide
       position="6.000001,20"
       orientation="0,-2.000001"
       id="guide4129" />
    <sodipodi:guide
       position="18,4"
       orientation="0,2"
       id="guide4133" />
    <sodipodi:guide
       position="20,4"
       orientation="-16,0"
       id="guide4135" />
    <sodipodi:guide
       position="20,20"
       orientation="0,-2"
       id="guide4137" />
  </sodipodi:namedview>
  <metadata
     id="metadata7">
    <rdf:RDF>
      <cc:Work
         rdf:about="">
        <dc:format>image/svg+xml</dc:format>
        <dc:type
           rdf:resource="http://purl.org/dc/dcmitype/StillImage" />
        <dc:title></dc:title>
      </cc:Work>
    </rdf:RDF>
  </metadata>
  <g
     inkscape:label="Capa 1"
     inkscape:groupmode="layer"
     id="layer1"
     transform="translate(1,-1031.3622)">
    <path
       d="m 17.179068,1041.9066 c -0.528761,-0.9374 -1.365766,-1.7804 -2.397621,-2.4268 l 0,-1.704 c 0,-1.0145 -0.725211,-1.923 -2.042361,-2.5581 -1.14421,-0.5517 -2.649297,-0.8555 -4.2373977,-0.8555 -1.5884894,0 -3.0932306,0.3038 -4.2374839,0.8555 -1.3171078,0.6351 -2.0426643,1.5436 -2.0426643,2.5581 l 0,9.1728 c 0,0.295 0.06188,0.5808 0.1809786,0.8537 0.1486118,0.36 0.3826566,0.6756 0.677287,0.9212 0.3143358,0.2912 0.7108639,0.5548 1.1843555,0.7832 1.1442532,0.5517 2.6489945,0.8555 4.2374834,0.8555 1.5881004,0 3.0931874,-0.3038 4.2374414,-0.8555 0.47293,-0.2282 0.869241,-0.4917 1.183578,-0.7825 0.294933,-0.2458 0.529194,-0.5617 0.677892,-0.9221 0.07255,-0.1658 0.123375,-0.3365 0.152629,-0.511 1.254363,-0.2326 2.203636,-0.8826 2.690178,-1.8524 0.524656,-1.0456 0.430753,-2.3 -0.264295,-3.5321 z m -13.4683435,-4.1308 c 0,-0.3994 0.4488598,-0.8542 1.200042,-1.2166 0.9328954,-0.4497 2.2418796,-0.7076 3.5909218,-0.7076 1.3489996,0 2.6575937,0.2579 3.5905327,0.7076 0.751571,0.3624 1.200085,0.8172 1.200085,1.2166 0,0.3993 -0.448514,0.8541 -1.200085,1.2163 -0.932939,0.4498 -2.2415331,0.7079 -3.5905327,0.7079 -1.3490422,0 -2.6580264,-0.2581 -3.5909218,-0.7079 -0.7511822,-0.3622 -1.200042,-0.817 -1.200042,-1.2163 z m 12.4253835,7.007 c -0.658057,1.3119 -3.006803,1.5211 -5.128764,0.4566 -0.457374,-0.2296 -0.88104,-0.5057 -1.256523,-0.8162 -0.1505127,0.1147 -0.3377571,0.1833 -0.5418993,0.1833 -0.4951847,0 -0.896552,-0.4013 -0.896552,-0.8965 0,-0.4952 0.4013673,-0.8968 0.896552,-0.8968 0.4952287,0 0.8969423,0.4016 0.8969423,0.8968 0,0.05 -0.0053,0.099 -0.01314,0.1463 0.321726,0.2438 0.673311,0.4636 1.048233,0.6515 1.26914,0.6367 2.61935,0.8174 3.640487,0.5792 l 0,-3.7934 c 1.255183,1.0829 1.856717,2.4884 1.354661,3.4892 z"
       id="path3"
       inkscape:connector-curvature="0"
       style="fill:#4d4d4d;fill-opacity:1" />
  </g>
</svg>
