<?xml version="1.0" encoding="UTF-8" standalone="no"?>
<!-- Created with Inkscape (http://www.inkscape.org/) -->

<svg
   xmlns:dc="http://purl.org/dc/elements/1.1/"
   xmlns:cc="http://creativecommons.org/ns#"
   xmlns:rdf="http://www.w3.org/1999/02/22-rdf-syntax-ns#"
   xmlns:svg="http://www.w3.org/2000/svg"
   xmlns="http://www.w3.org/2000/svg"
   xmlns:sodipodi="http://sodipodi.sourceforge.net/DTD/sodipodi-0.dtd"
   xmlns:inkscape="http://www.inkscape.org/namespaces/inkscape"
   width="22"
   height="22"
   id="svg3869"
   version="1.1"
   inkscape:version="0.91 r13725"
   sodipodi:docname="go-next-context.svg">
  <defs
     id="defs3871">
    <linearGradient
       id="linearGradient3257">
      <stop
         offset="0"
         style="stop-color:#a50000;stop-opacity:1"
         id="stop3259" />
      <stop
         offset="1"
         style="stop-color:#e73800;stop-opacity:1"
         id="stop3261" />
    </linearGradient>
    <clipPath
       clipPathUnits="userSpaceOnUse"
       id="clipPath4210">
      <rect
         y="1024.3622"
         x="-7"
         height="34"
         width="34"
         id="rect4212"
         style="opacity:1;fill:#0000ff;fill-opacity:0.51376145;stroke:none;stroke-opacity:1" />
    </clipPath>
    <clipPath
       clipPathUnits="userSpaceOnUse"
       id="clipPath4160">
      <rect
         style="opacity:1;fill:#aade87;fill-opacity:0.47247709;stroke:none;stroke-opacity:1"
         id="rect4162"
         width="32"
         height="32.000015"
         x="-6"
         y="1028.3619" />
    </clipPath>
  </defs>
  <sodipodi:namedview
     id="base"
     pagecolor="#ffffff"
     bordercolor="#666666"
     borderopacity="1.0"
     inkscape:pageopacity="0.0"
     inkscape:pageshadow="2"
     inkscape:zoom="11.313708"
     inkscape:cx="-4.5036275"
     inkscape:cy="5.1519128"
     inkscape:document-units="px"
     inkscape:current-layer="layer1"
     showgrid="true"
     fit-margin-top="0"
     fit-margin-left="0"
     fit-margin-right="0"
     fit-margin-bottom="0"
     inkscape:window-width="1366"
     inkscape:window-height="630"
     inkscape:window-x="0"
     inkscape:window-y="36"
     inkscape:window-maximized="1"
     inkscape:showpageshadow="false"
     inkscape:object-nodes="true"
     inkscape:snap-bbox="true">
    <inkscape:grid
       type="xygrid"
       id="grid4132" />
    <sodipodi:guide
       position="4,18"
       orientation="18,0"
       id="guide4138" />
    <sodipodi:guide
       position="5,3"
       orientation="0,18"
       id="guide4140" />
    <sodipodi:guide
       position="20,2.0000174"
       orientation="-18,0"
       id="guide4142" />
    <sodipodi:guide
       position="2,21"
       orientation="0,-18"
       id="guide4144" />
    <sodipodi:guide
       position="3,19.000017"
       orientation="16,0"
       id="guide4146" />
    <sodipodi:guide
       position="2,4"
       orientation="0,16"
       id="guide4148" />
    <sodipodi:guide
       position="21,20"
       orientation="-16,0"
       id="guide4150" />
    <sodipodi:guide
       position="2,20"
       orientation="0,-16"
       id="guide4152" />
  </sodipodi:namedview>
  <metadata
     id="metadata3874">
    <rdf:RDF>
      <cc:Work
         rdf:about="">
        <dc:format>image/svg+xml</dc:format>
        <dc:type
           rdf:resource="http://purl.org/dc/dcmitype/StillImage" />
        <dc:title></dc:title>
      </cc:Work>
    </rdf:RDF>
  </metadata>
  <g
     inkscape:label="Capa 1"
     inkscape:groupmode="layer"
     id="layer1"
     transform="translate(-326,-534.3622)">
    <g
       transform="translate(-52.85714,-5.71427)"
       id="layer1-4"
       inkscape:label="Capa 1">
      <path
         id="rect4109"
         transform="translate(378.85714,540.07647)"
         d="M 2,3 2,19 16,19 20,11 16,3 2,3 Z m 5.4277344,4 0,0.5917969 c -0.7107,0 -0.7207032,0.2391587 -0.7207032,1.1054687 l 0,1.0175782 c 0,0.4154702 -0.1236162,1.0327122 -0.7226562,1.2890622 0.59904,0.25635 0.7226562,0.875556 0.7226562,1.291016 l 0,1.007812 c 0,0.86631 0.00998,1.105469 0.7207032,1.105469 l 0,0.591797 c -1.06609,0 -1.5136719,-0.352246 -1.5136719,-1.253906 l 0,-1.222656 c 0,-0.556911 -0.020485,-1.201172 -0.609375,-1.201172 l -0.3046875,0 0,-0.644532 0.3046875,0 c 0.58887,0 0.609375,-0.644261 0.609375,-1.2011715 l 0,-1.2226563 C 5.9140625,7.3522463 6.3616444,7 7.4277344,7 Z m 3.1367186,0 c 1.0661,0 1.521485,0.3522463 1.521485,1.2539062 l 0,1.2226563 c -1e-5,0.5569105 0.0404,1.2011715 0.61914,1.2011715 l 0.294922,0 0,0.644532 -0.294922,0 c -0.57874,0 -0.61914,0.644261 -0.61914,1.201172 l 0,1.222656 C 12.085928,14.647754 11.630553,15 10.564453,15 l 0,-0.591797 c 0.71082,0 0.728516,-0.239159 0.728516,-1.105469 l 0,-1.007812 c 0,-0.41546 0.123606,-1.034666 0.722656,-1.291016 -0.59905,-0.25635 -0.722656,-0.873592 -0.722656,-1.2890622 l 0,-1.0175782 c 0,-0.86631 -0.01779,-1.1054687 -0.728516,-1.1054687 L 10.564453,7 Z"
         style="opacity:1;fill:#4d4d4d;fill-opacity:1;stroke:none"
         inkscape:connector-curvature="0" />
    </g>
  </g>
</svg>
