<?xml version="1.0" encoding="UTF-8" standalone="no"?>
<!-- Created with Inkscape (http://www.inkscape.org/) -->

<svg
   xmlns:dc="http://purl.org/dc/elements/1.1/"
   xmlns:cc="http://creativecommons.org/ns#"
   xmlns:rdf="http://www.w3.org/1999/02/22-rdf-syntax-ns#"
   xmlns:svg="http://www.w3.org/2000/svg"
   xmlns="http://www.w3.org/2000/svg"
   xmlns:sodipodi="http://sodipodi.sourceforge.net/DTD/sodipodi-0.dtd"
   xmlns:inkscape="http://www.inkscape.org/namespaces/inkscape"
   width="22"
   height="22"
   id="svg3869"
   version="1.1"
   inkscape:version="0.91 r13725"
   sodipodi:docname="im-twitter.svg">
  <defs
     id="defs3871" />
  <sodipodi:namedview
     id="base"
     pagecolor="#ffffff"
     bordercolor="#666666"
     borderopacity="1.0"
     inkscape:pageopacity="0.0"
     inkscape:pageshadow="2"
     inkscape:zoom="22.627416"
     inkscape:cx="-10.549865"
     inkscape:cy="10.264796"
     inkscape:document-units="px"
     inkscape:current-layer="layer1"
     showgrid="true"
     fit-margin-top="0"
     fit-margin-left="0"
     fit-margin-right="0"
     fit-margin-bottom="0"
     inkscape:window-width="1366"
     inkscape:window-height="630"
     inkscape:window-x="0"
     inkscape:window-y="36"
     inkscape:window-maximized="1"
     inkscape:showpageshadow="false"
     inkscape:snap-bbox="true"
     inkscape:object-nodes="true">
    <inkscape:grid
       type="xygrid"
       id="grid4132" />
    <sodipodi:guide
       position="4,18"
       orientation="18,0"
       id="guide4138" />
    <sodipodi:guide
       position="5,3"
       orientation="0,18"
       id="guide4140" />
    <sodipodi:guide
       position="20,2.0000174"
       orientation="-18,0"
       id="guide4142" />
    <sodipodi:guide
       position="2,21"
       orientation="0,-18"
       id="guide4144" />
    <sodipodi:guide
       position="3,19.000017"
       orientation="16,0"
       id="guide4146" />
    <sodipodi:guide
       position="2,4"
       orientation="0,16"
       id="guide4148" />
    <sodipodi:guide
       position="21,20"
       orientation="-16,0"
       id="guide4150" />
    <sodipodi:guide
       position="2,20"
       orientation="0,-16"
       id="guide4152" />
  </sodipodi:namedview>
  <metadata
     id="metadata3874">
    <rdf:RDF>
      <cc:Work
         rdf:about="">
        <dc:format>image/svg+xml</dc:format>
        <dc:type
           rdf:resource="http://purl.org/dc/dcmitype/StillImage" />
        <dc:title></dc:title>
      </cc:Work>
    </rdf:RDF>
  </metadata>
  <g
     inkscape:label="Capa 1"
     inkscape:groupmode="layer"
     id="layer1"
     transform="translate(-326,-534.3622)">
    <g
       transform="matrix(1.2307692,0,0,1.2307692,-195.57142,-115.30331)"
       id="layer1-1"
       inkscape:label="Capa 1">
      <path
         inkscape:connector-curvature="0"
         id="path14-4"
         style="fill:#4d4d4d;fill-opacity:1;fill-rule:nonzero;stroke:none"
         d="m 440.71388,531.82967 c -0.58859,0.261 -1.22132,0.43737 -1.88522,0.51673 0.67761,-0.40617 1.19814,-1.04929 1.44324,-1.81569 -0.63428,0.37614 -1.33678,0.64924 -2.08451,0.79635 -0.59869,-0.63781 -1.45179,-1.03632 -2.3959,-1.03632 -1.8128,0 -3.28258,1.46938 -3.28258,3.28189 0,0.25718 0.029,0.5077 0.0849,0.74787 -2.72804,-0.13683 -5.14679,-1.44351 -6.76571,-3.42904 -0.28261,0.48466 -0.44447,1.0485 -0.44447,1.64993 0,1.13867 0.57951,2.14324 1.46033,2.73176 -0.5381,-0.0167 -1.04427,-0.16471 -1.48682,-0.41048 -3e-4,0.014 -3e-4,0.0269 -3e-4,0.0409 0,1.59014 1.13152,2.91653 2.63309,3.21814 -0.27538,0.0751 -0.56537,0.11508 -0.86477,0.11508 -0.21149,0 -0.41715,-0.0209 -0.6176,-0.0589 0.41774,1.30382 1.62996,2.25276 3.06638,2.27913 -1.12342,0.88034 -2.53878,1.40499 -4.07671,1.40499 -0.26497,0 -0.52628,-0.0156 -0.78303,-0.0459 1.45265,0.93119 3.17807,1.47463 5.03179,1.47463 6.03772,0 9.33946,-5.00092 9.33946,-9.338 0,-0.14225 -0.004,-0.28376 -0.009,-0.42452 0.64141,-0.46274 1.19788,-1.04078 1.63793,-1.69897" />
    </g>
  </g>
</svg>
