<?xml version="1.0" encoding="UTF-8" standalone="no"?>
<!-- Created with Inkscape (http://www.inkscape.org/) -->

<svg
   xmlns:sketch="http://www.bohemiancoding.com/sketch/ns"
   xmlns:osb="http://www.openswatchbook.org/uri/2009/osb"
   xmlns:dc="http://purl.org/dc/elements/1.1/"
   xmlns:cc="http://creativecommons.org/ns#"
   xmlns:rdf="http://www.w3.org/1999/02/22-rdf-syntax-ns#"
   xmlns:svg="http://www.w3.org/2000/svg"
   xmlns="http://www.w3.org/2000/svg"
   xmlns:sodipodi="http://sodipodi.sourceforge.net/DTD/sodipodi-0.dtd"
   xmlns:inkscape="http://www.inkscape.org/namespaces/inkscape"
   width="22"
   height="22"
   id="svg2"
   version="1.1"
   inkscape:version="0.91 r13725"
   viewBox="0 0 22 22"
   sodipodi:docname="kdenlive-hide-video.svg">
  <defs
     id="defs4">
    <linearGradient
       osb:paint="gradient"
       id="linearGradient4207">
      <stop
         id="stop3371"
         offset="0"
         style="stop-color:#3498db;stop-opacity:1;" />
      <stop
         id="stop3373"
         offset="1"
         style="stop-color:#3498db;stop-opacity:0;" />
    </linearGradient>
  </defs>
  <sodipodi:namedview
     id="base"
     pagecolor="#ffffff"
     bordercolor="#666666"
     borderopacity="1.0"
     inkscape:pageopacity="0.0"
     inkscape:pageshadow="2"
     inkscape:zoom="12.608805"
     inkscape:cx="-17.23082"
     inkscape:cy="9.8904407"
     inkscape:document-units="px"
     inkscape:current-layer="layer1"
     showgrid="true"
     units="px"
     borderlayer="true"
     inkscape:showpageshadow="false"
     inkscape:window-width="1366"
     inkscape:window-height="630"
     inkscape:window-x="0"
     inkscape:window-y="36"
     inkscape:window-maximized="1"
     showguides="true"
     inkscape:snap-bbox="true"
     inkscape:object-nodes="true">
    <sodipodi:guide
       position="2,20.000017"
       orientation="18,0"
       id="guide4066" />
    <sodipodi:guide
       position="2,2.0000174"
       orientation="0,18"
       id="guide4068" />
    <sodipodi:guide
       position="20,2.0000174"
       orientation="-18,0"
       id="guide4070" />
    <sodipodi:guide
       position="20,20.000017"
       orientation="0,-18"
       id="guide4072" />
    <sodipodi:guide
       position="3,19.000017"
       orientation="16,0"
       id="guide4074" />
    <sodipodi:guide
       position="3,3.0000174"
       orientation="0,16"
       id="guide4076" />
    <sodipodi:guide
       position="19,3.0000174"
       orientation="-16,0"
       id="guide4078" />
    <sodipodi:guide
       position="19,19.000017"
       orientation="0,-16"
       id="guide4080" />
    <inkscape:grid
       type="xygrid"
       id="grid4101" />
    <sodipodi:guide
       position="8,19.000017"
       orientation="0,-5"
       id="guide4124" />
    <sodipodi:guide
       position="11,3.0000174"
       orientation="0,4"
       id="guide4241" />
  </sodipodi:namedview>
  <metadata
     id="metadata7">
    <rdf:RDF>
      <cc:Work
         rdf:about="">
        <dc:format>image/svg+xml</dc:format>
        <dc:type
           rdf:resource="http://purl.org/dc/dcmitype/StillImage" />
        <dc:title></dc:title>
      </cc:Work>
    </rdf:RDF>
  </metadata>
  <g
     inkscape:label="Capa 1"
     inkscape:groupmode="layer"
     id="layer1"
     transform="translate(0,-1030.3622)">
    <g
       id="g4162"
       transform="matrix(0.74812172,0,0,0.74812172,2.7706611,262.29652)">
      <g
         inkscape:label="Capa 1"
         id="layer1-72">
        <g
           transform="translate(2.9999971,-3.0000001)"
           id="layer1-60"
           inkscape:label="Capa 1">
          <g
             inkscape:label="Capa 1"
             id="layer1-4"
             transform="translate(-412.88298,512.00351)">
            <g
               transform="translate(392.57143,-514.5642)"
               id="layer1-7"
               inkscape:label="Capa 1"
               style="fill:#ffffff;fill-opacity:1" />
            <g
               id="g4240"
               transform="translate(341.79698,500.25245)">
              <g
                 inkscape:transform-center-y="-9.4924686"
                 inkscape:transform-center-x="5.4653607"
                 inkscape:label="Capa 1"
                 id="layer1-1"
                 transform="translate(-392.98822,-511.27795)">
                <g
                   transform="matrix(0.71733438,0,0,0.71733438,181.16816,163.89609)"
                   id="layer1-5-4"
                   inkscape:label="Capa 1"
                   style="fill:#4d4d4d;fill-opacity:1">
                  <path
                     id="path14795"
                     d="m 415.74557,517.87299 -1.1037,0 c -0.26212,0 -0.47458,0.21297 -0.47458,0.47453 l 0,0.59054 c 0,0.26229 -0.21247,0.47472 -0.47457,0.47472 l -1.0291,0 c -0.26211,0 -0.47457,-0.21318 -0.47457,-0.47472 l 0,-0.59054 c 0,-0.26193 -0.21243,-0.47453 -0.47456,-0.47453 l -12.39091,0 c -0.2621,0 -0.47455,0.21297 -0.47455,0.47453 l 0,0.59054 c 0,0.26229 -0.21248,0.47472 -0.47459,0.47472 l -1.02911,0 c -0.26208,0 -0.47456,-0.21318 -0.47456,-0.47472 l 0,-0.59054 c 0,-0.26193 -0.21245,-0.47453 -0.47457,-0.47453 l -1.06659,0 c -0.26212,0 -0.47456,0.21297 -0.47456,0.47453 l 0,21.35574 c 0,0.26193 0.21244,0.47453 0.47456,0.47453 l 1.06659,0 c 0.26212,0 0.47457,-0.21297 0.47457,-0.47453 l 0,-0.43379 c 0,-0.2623 0.21248,-0.47452 0.47456,-0.47452 l 1.02911,0 c 0.26211,0 0.47459,0.21297 0.47459,0.47452 l 0,0.43379 c 0,0.26193 0.21245,0.47453 0.47455,0.47453 l 12.39091,0 c 0.26212,0 0.47456,-0.21297 0.47456,-0.47453 l 0,-0.43379 c 0,-0.2623 0.21246,-0.47452 0.47457,-0.47452 l 1.0291,0 c 0.2621,0 0.47457,0.21297 0.47457,0.47452 l 0,0.43379 c 0,0.26193 0.21245,0.47453 0.47458,0.47453 l 1.1037,0 c 0.2621,0 0.47458,-0.21297 0.47458,-0.47453 l 0,-21.35574 c 0,-0.26193 -0.21248,-0.47453 -0.47458,-0.47453 z m -16.89654,18.16129 c 0,0.26192 -0.21248,0.47434 -0.47459,0.47434 l -1.02911,0 c -0.26208,0 -0.47456,-0.21316 -0.47456,-0.47434 l 0,-1.02938 c 0,-0.26212 0.21248,-0.47434 0.47456,-0.47434 l 1.02911,0 c 0.26211,0 0.47459,0.21297 0.47459,0.47434 l 0,1.02938 z m 0,-4.26476 c 0,0.2623 -0.21248,0.47471 -0.47459,0.47471 l -1.02911,0 c -0.26208,0 -0.47456,-0.21316 -0.47456,-0.47471 l 0,-1.02901 c 0,-0.26212 0.21248,-0.47434 0.47456,-0.47434 l 1.02911,0 c 0.26211,0 0.47459,0.21297 0.47459,0.47434 l 0,1.02901 z m 0,-4.26439 c 0,0.2623 -0.21248,0.47471 -0.47459,0.47471 l -1.02911,0 c -0.26208,0 -0.47456,-0.21316 -0.47456,-0.47471 l 0,-1.02901 c 0,-0.26212 0.21248,-0.47472 0.47456,-0.47472 l 1.02911,0 c 0.26211,0 0.47459,0.21316 0.47459,0.47472 l 0,1.02901 z m 0,-4.26439 c 0,0.2623 -0.21248,0.47471 -0.47459,0.47471 l -1.02911,0 c -0.26208,0 -0.47456,-0.21316 -0.47456,-0.47471 l 0,-1.02882 c 0,-0.26229 0.21248,-0.47491 0.47456,-0.47491 l 1.02911,0 c 0.26211,0 0.47459,0.21317 0.47459,0.47491 l 0,1.02882 z m 11.28799,14.42822 c 0,0.26212 -0.21245,0.47453 -0.47455,0.47453 l -8.24974,0 c -0.26212,0 -0.47458,-0.21297 -0.47458,-0.47453 l 0,-3.81358 c 0,-0.2623 0.21245,-0.4749 0.47458,-0.4749 l 8.24974,0 c 0.2621,0 0.47455,0.21316 0.47455,0.4749 l 0,3.81358 0,0 z m 0,-6.73677 c 0,0.2621 -0.21245,0.47471 -0.47455,0.47471 l -8.24974,0 c -0.26212,0 -0.47458,-0.21298 -0.47458,-0.47471 l 0,-3.8136 c 0,-0.26229 0.21245,-0.47451 0.47458,-0.47451 l 8.24974,0 c 0.2621,0 0.47455,0.21297 0.47455,0.47451 l 0,3.8136 0,0 z m 0,-6.73661 c 0,0.26212 -0.21245,0.47435 -0.47455,0.47435 l -8.24974,0 c -0.26212,0 -0.47458,-0.21298 -0.47458,-0.47435 l 0,-3.81376 c 0,-0.26193 0.21245,-0.47453 0.47458,-0.47453 l 8.24974,0 c 0.2621,0 0.47455,0.21297 0.47455,0.47453 l 0,3.81376 0,0 z m 4.03031,11.8387 c 0,0.26192 -0.21248,0.47434 -0.47458,0.47434 l -1.02912,0 c -0.26209,0 -0.47457,-0.21316 -0.47457,-0.47434 l 0,-1.02938 c 0,-0.26212 0.21248,-0.47434 0.47457,-0.47434 l 1.02912,0 c 0.2621,0 0.47458,0.21297 0.47458,0.47434 l 0,1.02938 z m 0,-4.26476 c 0,0.2623 -0.21248,0.47471 -0.47458,0.47471 l -1.02912,0 c -0.26209,0 -0.47457,-0.21316 -0.47457,-0.47471 l 0,-1.02901 c 0,-0.26212 0.21248,-0.47434 0.47457,-0.47434 l 1.02912,0 c 0.2621,0 0.47458,0.21297 0.47458,0.47434 l 0,1.02901 z m 0,-4.26439 c 0,0.2623 -0.21248,0.47471 -0.47458,0.47471 l -1.02912,0 c -0.26209,0 -0.47457,-0.21316 -0.47457,-0.47471 l 0,-1.02901 c 0,-0.26212 0.21248,-0.47472 0.47457,-0.47472 l 1.02912,0 c 0.2621,0 0.47458,0.21316 0.47458,0.47472 l 0,1.02901 z m 0,-4.26439 c 0,0.2623 -0.21248,0.47471 -0.47458,0.47471 l -1.02912,0 c -0.26209,0 -0.47457,-0.21316 -0.47457,-0.47471 l 0,-1.02882 c 0,-0.26229 0.21248,-0.47491 0.47457,-0.47491 l 1.02912,0 c 0.2621,0 0.47458,0.21317 0.47458,0.47491 l 0,1.02882 z"
                     inkscape:connector-curvature="0"
                     style="display:inline;fill:#4d4d4d;fill-opacity:1;stroke:none;stroke-width:46.76432037;stroke-miterlimit:4;stroke-dasharray:none;stroke-opacity:1" />
                </g>
              </g>
            </g>
          </g>
        </g>
      </g>
      <g
         inkscape:label="Capa 1"
         id="layer1-2"
         transform="translate(-342.72151,496)">
        <g
           transform="matrix(0.6659084,0,0,0.6659084,71.25612,190.21391)"
           id="layer1-0"
           inkscape:label="Capa 1">
          <g
             id="g4141" />
          <g
             style="fill:#4d4d4d;fill-opacity:1"
             transform="matrix(0.16438356,0,0,0.16438356,359.99998,523.14233)"
             sketch:type="MSLayerGroup"
             id="list29-2">
            <g
               style="fill:#4d4d4d;fill-opacity:1"
               sketch:type="MSShapeGroup"
               id="g762">
              <g
                 transform="translate(173.95563,10.224738)"
                 id="g4174">
                <path
                   d="M 266.72314,-42.509215 148.86864,134.43628 c -0.83985,1.26094 -1.35196,2.49522 -1.53632,3.70286 -0.18437,1.20763 0.0172,2.00713 0.60401,2.39794 l 13.0203,8.67217 c 0.58843,0.39192 1.40304,0.26928 2.44715,-0.36572 1.04246,-0.6361 1.98319,-1.5849 2.82304,-2.84584 l 117.8545,-176.945495 c 0.84102,-1.2627 1.35278,-2.49465 1.53916,-3.70351 0.1835,-1.20814 -0.0184,-2.00542 -0.60682,-2.39734 l -13.0203,-8.67217 c -0.58676,-0.39081 -1.40303,-0.26929 -2.44435,0.36511 -1.04482,0.63966 -1.98484,1.58378 -2.82587,2.8465 l 0,0 z"
                   id="path774-3"
                   inkscape:connector-curvature="0"
                   style="fill:#4d4d4d;fill-opacity:1" />
              </g>
            </g>
          </g>
        </g>
      </g>
    </g>
  </g>
</svg>
