<?xml version="1.0" encoding="UTF-8" standalone="no"?>
<!-- Created with Inkscape (http://www.inkscape.org/) -->

<svg
   xmlns:dc="http://purl.org/dc/elements/1.1/"
   xmlns:cc="http://creativecommons.org/ns#"
   xmlns:rdf="http://www.w3.org/1999/02/22-rdf-syntax-ns#"
   xmlns:svg="http://www.w3.org/2000/svg"
   xmlns="http://www.w3.org/2000/svg"
   xmlns:sodipodi="http://sodipodi.sourceforge.net/DTD/sodipodi-0.dtd"
   xmlns:inkscape="http://www.inkscape.org/namespaces/inkscape"
   width="22"
   height="22"
   id="svg2"
   version="1.1"
   inkscape:version="0.91 r13725"
   viewBox="0 0 22 22"
   sodipodi:docname="kt-magnet.svg">
  <defs
     id="defs4" />
  <sodipodi:namedview
     id="base"
     pagecolor="#ffffff"
     bordercolor="#666666"
     borderopacity="1.0"
     inkscape:pageopacity="0.0"
     inkscape:pageshadow="2"
     inkscape:zoom="15.839192"
     inkscape:cx="-7.9388161"
     inkscape:cy="12.170482"
     inkscape:document-units="px"
     inkscape:current-layer="g3"
     showgrid="true"
     inkscape:showpageshadow="false"
     borderlayer="true"
     inkscape:window-width="1366"
     inkscape:window-height="630"
     inkscape:window-x="0"
     inkscape:window-y="36"
     inkscape:window-maximized="1"
     units="px"
     inkscape:snap-bbox="true"
     inkscape:object-nodes="true">
    <sodipodi:guide
       position="2,20.000017"
       orientation="18,0"
       id="guide4085" />
    <sodipodi:guide
       position="2,2.0000174"
       orientation="0,18"
       id="guide4087" />
    <sodipodi:guide
       position="20,2.0000174"
       orientation="-18,0"
       id="guide4089" />
    <sodipodi:guide
       position="20,20.000017"
       orientation="0,-18"
       id="guide4091" />
    <sodipodi:guide
       position="3,19.000017"
       orientation="16,0"
       id="guide4093" />
    <sodipodi:guide
       position="3,3.0000174"
       orientation="0,16"
       id="guide4095" />
    <sodipodi:guide
       position="19,3.0000174"
       orientation="-16,0"
       id="guide4097" />
    <sodipodi:guide
       position="19,19.000017"
       orientation="0,-16"
       id="guide4099" />
    <inkscape:grid
       type="xygrid"
       id="grid4101" />
  </sodipodi:namedview>
  <metadata
     id="metadata7">
    <rdf:RDF>
      <cc:Work
         rdf:about="">
        <dc:format>image/svg+xml</dc:format>
        <dc:type
           rdf:resource="http://purl.org/dc/dcmitype/StillImage" />
        <dc:title></dc:title>
      </cc:Work>
    </rdf:RDF>
  </metadata>
  <g
     inkscape:label="Capa 1"
     inkscape:groupmode="layer"
     id="layer1"
     transform="translate(0,-1030.3622)">
    <g
       id="g3"
       transform="matrix(0.18181781,0,0,-0.18181781,3.0000164,1049.3622)"
       style="fill:#4d4d4d;fill-opacity:1">
      <path
         style="fill:#4d4d4d;fill-opacity:1"
         d="m 54.822004,83.297008 c -0.143,1.544989 1.084,2.917993 2.727,3.054989 l 19.926003,1.637004 c 1.642997,0.138 3.104997,-1.018 3.250001,-2.562 l 1.554993,-16.431998 -25.899997,-2.132 -1.558,16.434005 z M 5.7210016,68.995003 7.2780017,85.427001 c 0.1430001,1.544 1.607,2.7 3.2500003,2.562 l 19.926,-1.637004 c 1.639,-0.136996 2.867,-1.51 2.727,-3.054989 l -1.557,-16.434005 -25.9030004,2.132 z m -2.5669999,-27.082002 1.6059999,16.951002 25.9020004,-2.131 -1.605,-16.933002 c -0.037,-0.407 -0.057,-0.829 -0.057,-1.245 0,-7.777 6.729,-14.105 15,-14.105 8.271001,0 15.000002,6.329 15.000002,14.105 0,0.416 -0.02,0.838 -0.057,1.246 l -1.605003,16.932002 25.902,2.131 1.605004,-16.951002 c 0.101993,-1.12 0.154996,-2.244 0.154996,-3.358 C 85.000001,17.294 66.607001,-1.3354269e-7 43.999999,-1.3354269e-7 21.392999,-1.3354269e-7 2.9999983,17.294 2.9999983,38.555001 c 0,1.114 0.052996,2.238 0.154,3.358 z"
         id="path5"
         inkscape:connector-curvature="0" />
    </g>
  </g>
</svg>
