<?xml version="1.0" encoding="UTF-8" standalone="no"?>
<!-- Created with Inkscape (http://www.inkscape.org/) -->

<svg
   xmlns:sketch="http://www.bohemiancoding.com/sketch/ns"
   xmlns:dc="http://purl.org/dc/elements/1.1/"
   xmlns:cc="http://creativecommons.org/ns#"
   xmlns:rdf="http://www.w3.org/1999/02/22-rdf-syntax-ns#"
   xmlns:svg="http://www.w3.org/2000/svg"
   xmlns="http://www.w3.org/2000/svg"
   xmlns:sodipodi="http://sodipodi.sourceforge.net/DTD/sodipodi-0.dtd"
   xmlns:inkscape="http://www.inkscape.org/namespaces/inkscape"
   width="22"
   height="22"
   id="svg2"
   version="1.1"
   inkscape:version="0.91 r13725"
   viewBox="0 0 22 22"
   sodipodi:docname="kt-queue-manager.svg">
  <defs
     id="defs4" />
  <sodipodi:namedview
     id="base"
     pagecolor="#ffffff"
     bordercolor="#666666"
     borderopacity="1.0"
     inkscape:pageopacity="0.0"
     inkscape:pageshadow="2"
     inkscape:zoom="11.313709"
     inkscape:cx="13.276328"
     inkscape:cy="10.910775"
     inkscape:document-units="px"
     inkscape:current-layer="layer1"
     showgrid="true"
     units="px"
     borderlayer="true"
     inkscape:showpageshadow="false"
     inkscape:window-width="1366"
     inkscape:window-height="630"
     inkscape:window-x="0"
     inkscape:window-y="36"
     inkscape:window-maximized="1"
     inkscape:object-nodes="true"
     inkscape:snap-bbox="true">
    <sodipodi:guide
       position="2,20.000017"
       orientation="18,0"
       id="guide4066" />
    <sodipodi:guide
       position="2,2.0000174"
       orientation="0,18"
       id="guide4068" />
    <sodipodi:guide
       position="20,2.0000174"
       orientation="-18,0"
       id="guide4070" />
    <sodipodi:guide
       position="20,20.000017"
       orientation="0,-18"
       id="guide4072" />
    <sodipodi:guide
       position="3,19.000017"
       orientation="16,0"
       id="guide4074" />
    <sodipodi:guide
       position="3,3.0000174"
       orientation="0,16"
       id="guide4076" />
    <sodipodi:guide
       position="19,3.0000174"
       orientation="-16,0"
       id="guide4078" />
    <sodipodi:guide
       position="19,19.000017"
       orientation="0,-16"
       id="guide4080" />
    <inkscape:grid
       type="xygrid"
       id="grid4101" />
    <sodipodi:guide
       position="8,19.000017"
       orientation="0,-5"
       id="guide4124" />
    <sodipodi:guide
       position="11,3.0000174"
       orientation="0,4"
       id="guide4241" />
  </sodipodi:namedview>
  <metadata
     id="metadata7">
    <rdf:RDF>
      <cc:Work
         rdf:about="">
        <dc:format>image/svg+xml</dc:format>
        <dc:type
           rdf:resource="http://purl.org/dc/dcmitype/StillImage" />
        <dc:title></dc:title>
      </cc:Work>
    </rdf:RDF>
  </metadata>
  <g
     inkscape:label="Capa 1"
     inkscape:groupmode="layer"
     id="layer1"
     transform="translate(0,-1030.3622)">
    <g
       transform="translate(-326,496)"
       id="layer1-6"
       inkscape:label="Capa 1">
      <g
         transform="matrix(0.72727273,0,0,0.72727273,91.181818,149.46242)"
         inkscape:label="Capa 1"
         id="layer1-9">
        <g
           transform="matrix(0.91562405,0,0,0.91562405,-28.772836,57.408301)"
           id="layer1-0"
           inkscape:label="Capa 1">
          <g
             id="g4141" />
          <g
             style="fill:#4d4d4d;fill-opacity:1"
             transform="matrix(0.16438356,0,0,0.16438356,359.99998,523.14233)"
             sketch:type="MSLayerGroup"
             id="list29-2">
            <g
               style="fill:#4d4d4d;fill-opacity:1"
               sketch:type="MSShapeGroup"
               id="g762">
              <g
                 transform="translate(173.80916,-19.892341)"
                 id="g4166">
                <path
                   d="m 15.644,-0.357 c -4.346,0 -8.039,1.521 -11.081,4.562 -3.041,3.042 -4.562,6.735 -4.562,11.08 0,4.346 1.52,8.039 4.562,11.081 3.042,3.041 6.736,4.562 11.081,4.562 4.345,0 8.038,-1.521 11.08,-4.562 3.041,-3.042 4.562,-6.735 4.562,-11.081 0,-4.345 -1.521,-8.038 -4.562,-11.08 -3.041,-3.041 -6.734,-4.562 -11.08,-4.562 l 0,0 z"
                   id="path766"
                   inkscape:connector-curvature="0"
                   style="fill:#1d99f3;fill-opacity:1" />
                <path
                   d="M 145.227,5.631 C 144.709,5.116 144.1,4.858 143.393,4.858 l -99.072,0 c -0.706,0 -1.317,0.257 -1.833,0.773 -0.516,0.517 -0.774,1.127 -0.774,1.833 l 0,15.644 c 0,0.706 0.258,1.316 0.774,1.833 0.516,0.515 1.127,0.773 1.833,0.773 l 99.072,0 c 0.707,0 1.317,-0.257 1.834,-0.773 0.516,-0.517 0.773,-1.127 0.773,-1.833 l 0,-15.644 c 0,-0.706 -0.258,-1.317 -0.773,-1.833 l 0,0 z"
                   id="path770"
                   inkscape:connector-curvature="0"
                   style="fill:#4d4d4d;fill-opacity:1" />
              </g>
              <g
                 transform="translate(173.80966,-4.3446736)"
                 id="g4170">
                <path
                   d="m 15.643,41.358 c -4.346,0 -8.039,1.52 -11.081,4.562 C 1.521,48.961 0,52.654 0,57 c 0,4.345 1.521,8.039 4.563,11.08 3.042,3.041 6.736,4.562 11.081,4.562 4.345,0 8.038,-1.521 11.08,-4.562 3.041,-3.041 4.562,-6.735 4.562,-11.08 0,-4.346 -1.521,-8.039 -4.563,-11.08 -3.041,-3.041 -6.734,-4.562 -11.08,-4.562 l 0,0 z"
                   id="path764"
                   inkscape:connector-curvature="0"
                   style="fill:#1d99f3;fill-opacity:1" />
                <path
                   d="m 143.393,46.572 -99.072,0 c -0.706,0 -1.317,0.257 -1.833,0.774 -0.516,0.516 -0.774,1.127 -0.774,1.833 l 0,15.644 c 0,0.705 0.258,1.316 0.774,1.832 0.516,0.517 1.127,0.774 1.833,0.774 l 99.072,0 c 0.707,0 1.317,-0.257 1.834,-0.774 0.516,-0.516 0.773,-1.127 0.773,-1.832 l 0,-15.644 c 0,-0.706 -0.258,-1.318 -0.773,-1.833 -0.518,-0.516 -1.127,-0.774 -1.834,-0.774 l 0,0 z"
                   id="path772"
                   inkscape:connector-curvature="0"
                   style="fill:#4d4d4d;fill-opacity:1" />
              </g>
              <g
                 transform="translate(173.80916,11.55991)"
                 id="g4174">
                <path
                   d="m 15.644,83.072 c -4.346,0 -8.04,1.52 -11.081,4.562 -3.041,3.042 -4.562,6.735 -4.562,11.08 0,4.347 1.52,8.039 4.562,11.081 3.042,3.041 6.736,4.562 11.081,4.562 4.345,0 8.038,-1.521 11.08,-4.562 3.041,-3.042 4.562,-6.734 4.562,-11.081 0,-4.345 -1.521,-8.039 -4.562,-11.08 -3.041,-3.041 -6.734,-4.562 -11.08,-4.562 l 0,0 z"
                   id="path768"
                   inkscape:connector-curvature="0"
                   style="fill:#1d99f3;fill-opacity:1" />
                <path
                   d="m 143.393,88.286 -99.072,0 c -0.706,0 -1.317,0.258 -1.833,0.774 -0.516,0.516 -0.774,1.127 -0.774,1.832 l 0,15.644 c 0,0.707 0.258,1.317 0.774,1.834 0.516,0.515 1.127,0.772 1.833,0.772 l 99.072,0 c 0.707,0 1.317,-0.257 1.834,-0.772 0.516,-0.517 0.773,-1.127 0.773,-1.834 l 0,-15.644 c 0,-0.705 -0.258,-1.317 -0.773,-1.832 -0.518,-0.515 -1.127,-0.774 -1.834,-0.774 l 0,0 z"
                   id="path774"
                   inkscape:connector-curvature="0"
                   style="fill:#4d4d4d;fill-opacity:1" />
              </g>
            </g>
          </g>
        </g>
      </g>
    </g>
  </g>
</svg>
