<?xml version="1.0" encoding="UTF-8" standalone="no"?>
<!-- Created with Inkscape (http://www.inkscape.org/) -->

<svg
   xmlns:sketch="http://www.bohemiancoding.com/sketch/ns"
   xmlns:dc="http://purl.org/dc/elements/1.1/"
   xmlns:cc="http://creativecommons.org/ns#"
   xmlns:rdf="http://www.w3.org/1999/02/22-rdf-syntax-ns#"
   xmlns:svg="http://www.w3.org/2000/svg"
   xmlns="http://www.w3.org/2000/svg"
   xmlns:sodipodi="http://sodipodi.sourceforge.net/DTD/sodipodi-0.dtd"
   xmlns:inkscape="http://www.inkscape.org/namespaces/inkscape"
   width="22"
   height="22"
   id="svg3869"
   version="1.1"
   inkscape:version="0.91 r13725"
   sodipodi:docname="kt-show-statusbar.svg">
  <defs
     id="defs3871" />
  <sodipodi:namedview
     id="base"
     pagecolor="#ffffff"
     bordercolor="#666666"
     borderopacity="1.0"
     inkscape:pageopacity="0.0"
     inkscape:pageshadow="2"
     inkscape:zoom="11.313708"
     inkscape:cx="-25.174767"
     inkscape:cy="8.6093353"
     inkscape:document-units="px"
     inkscape:current-layer="g4174"
     showgrid="true"
     fit-margin-top="0"
     fit-margin-left="0"
     fit-margin-right="0"
     fit-margin-bottom="0"
     inkscape:window-width="1366"
     inkscape:window-height="630"
     inkscape:window-x="0"
     inkscape:window-y="36"
     inkscape:window-maximized="1"
     inkscape:showpageshadow="false">
    <inkscape:grid
       type="xygrid"
       id="grid4132" />
    <sodipodi:guide
       position="4,18"
       orientation="18,0"
       id="guide4138" />
    <sodipodi:guide
       position="5,3"
       orientation="0,18"
       id="guide4140" />
    <sodipodi:guide
       position="20,2.0000174"
       orientation="-18,0"
       id="guide4142" />
    <sodipodi:guide
       position="2,21"
       orientation="0,-18"
       id="guide4144" />
    <sodipodi:guide
       position="3,19.000017"
       orientation="16,0"
       id="guide4146" />
    <sodipodi:guide
       position="2,4"
       orientation="0,16"
       id="guide4148" />
    <sodipodi:guide
       position="21,20"
       orientation="-16,0"
       id="guide4150" />
    <sodipodi:guide
       position="2,20"
       orientation="0,-16"
       id="guide4152" />
  </sodipodi:namedview>
  <metadata
     id="metadata3874">
    <rdf:RDF>
      <cc:Work
         rdf:about="">
        <dc:format>image/svg+xml</dc:format>
        <dc:type
           rdf:resource="http://purl.org/dc/dcmitype/StillImage" />
        <dc:title></dc:title>
      </cc:Work>
    </rdf:RDF>
  </metadata>
  <g
     inkscape:label="Capa 1"
     inkscape:groupmode="layer"
     id="layer1"
     transform="translate(-326,-534.3622)">
    <g
       transform="matrix(0.6659084,0,0,0.6659084,71.25612,190.21391)"
       id="layer1-0"
       inkscape:label="Capa 1">
      <g
         id="g4141" />
      <g
         style="fill:#4d4d4d;fill-opacity:1"
         transform="matrix(0.16438356,0,0,0.16438356,359.99998,523.14233)"
         sketch:type="MSLayerGroup"
         id="list29-2">
        <g
           style="fill:#4d4d4d;fill-opacity:1"
           sketch:type="MSShapeGroup"
           id="g762">
          <g
             transform="translate(173.80916,11.55991)"
             id="g4174">
            <g
               id="g4162"
               transform="matrix(0.74812172,0,0,0.74812172,9.2518459,18.382789)">
              <g
                 id="g4166"
                 transform="translate(4.2846916e-7,-31.452251)"
                 style="fill:#4d4d4d;fill-opacity:1">
                <path
                   style="fill:#4d4d4d;fill-opacity:1"
                   inkscape:connector-curvature="0"
                   id="path766"
                   d="m 15.644,-0.357 c -4.346,0 -8.039,1.521 -11.081,4.562 -3.041,3.042 -4.562,6.735 -4.562,11.08 0,4.346 1.52,8.039 4.562,11.081 3.042,3.041 6.736,4.562 11.081,4.562 4.345,0 8.038,-1.521 11.08,-4.562 3.041,-3.042 4.562,-6.735 4.562,-11.081 0,-4.345 -1.521,-8.038 -4.562,-11.08 -3.041,-3.041 -6.734,-4.562 -11.08,-4.562 l 0,0 z" />
                <path
                   style="fill:#4d4d4d;fill-opacity:1"
                   inkscape:connector-curvature="0"
                   id="path770"
                   d="M 145.227,5.631 C 144.709,5.116 144.1,4.858 143.393,4.858 l -99.072,0 c -0.706,0 -1.317,0.257 -1.833,0.773 -0.516,0.517 -0.774,1.127 -0.774,1.833 l 0,15.644 c 0,0.706 0.258,1.316 0.774,1.833 0.516,0.515 1.127,0.773 1.833,0.773 l 99.072,0 c 0.707,0 1.317,-0.257 1.834,-0.773 0.516,-0.517 0.773,-1.127 0.773,-1.833 l 0,-15.644 c 0,-0.706 -0.258,-1.317 -0.773,-1.833 l 0,0 z" />
              </g>
              <g
                 id="g4170"
                 transform="translate(5.0013434e-4,-15.904583)"
                 style="fill:#4d4d4d;fill-opacity:1">
                <path
                   style="fill:#4d4d4d;fill-opacity:1"
                   inkscape:connector-curvature="0"
                   id="path764"
                   d="m 15.643,41.358 c -4.346,0 -8.039,1.52 -11.081,4.562 C 1.521,48.961 0,52.654 0,57 c 0,4.345 1.521,8.039 4.563,11.08 3.042,3.041 6.736,4.562 11.081,4.562 4.345,0 8.038,-1.521 11.08,-4.562 3.041,-3.041 4.562,-6.735 4.562,-11.08 0,-4.346 -1.521,-8.039 -4.563,-11.08 -3.041,-3.041 -6.734,-4.562 -11.08,-4.562 l 0,0 z" />
                <path
                   style="fill:#4d4d4d;fill-opacity:1"
                   inkscape:connector-curvature="0"
                   id="path772"
                   d="m 143.393,46.572 -99.072,0 c -0.706,0 -1.317,0.257 -1.833,0.774 -0.516,0.516 -0.774,1.127 -0.774,1.833 l 0,15.644 c 0,0.705 0.258,1.316 0.774,1.832 0.516,0.517 1.127,0.774 1.833,0.774 l 99.072,0 c 0.707,0 1.317,-0.257 1.834,-0.774 0.516,-0.516 0.773,-1.127 0.773,-1.832 l 0,-15.644 c 0,-0.706 -0.258,-1.318 -0.773,-1.833 -0.518,-0.516 -1.127,-0.774 -1.834,-0.774 l 0,0 z" />
              </g>
              <path
                 style="fill:#4d4d4d;fill-opacity:1"
                 inkscape:connector-curvature="0"
                 id="path768"
                 d="m 15.644,83.072 c -4.346,0 -8.04,1.52 -11.081,4.562 -3.041,3.042 -4.562,6.735 -4.562,11.08 0,4.347 1.52,8.039 4.562,11.081 3.042,3.041 6.736,4.562 11.081,4.562 4.345,0 8.038,-1.521 11.08,-4.562 3.041,-3.042 4.562,-6.734 4.562,-11.081 0,-4.345 -1.521,-8.039 -4.562,-11.08 -3.041,-3.041 -6.734,-4.562 -11.08,-4.562 l 0,0 z" />
              <path
                 style="fill:#4d4d4d;fill-opacity:1"
                 inkscape:connector-curvature="0"
                 id="path774"
                 d="m 143.393,88.286 -99.072,0 c -0.706,0 -1.317,0.258 -1.833,0.774 -0.516,0.516 -0.774,1.127 -0.774,1.832 l 0,15.644 c 0,0.707 0.258,1.317 0.774,1.834 0.516,0.515 1.127,0.772 1.833,0.772 l 99.072,0 c 0.707,0 1.317,-0.257 1.834,-0.772 0.516,-0.517 0.773,-1.127 0.773,-1.834 l 0,-15.644 c 0,-0.705 -0.258,-1.317 -0.773,-1.832 -0.518,-0.515 -1.127,-0.774 -1.834,-0.774 l 0,0 z" />
              <path
                 style="fill:#4d4d4d;fill-opacity:1"
                 inkscape:connector-curvature="0"
                 id="path774-3"
                 d="M 123.24751,-51.444475 5.3930086,125.50102 c -0.839849,1.26094 -1.351953,2.49522 -1.536319,3.70286 -0.184366,1.20763 0.01725,2.00713 0.604011,2.39794 l 13.0203014,8.67217 c 0.588428,0.39192 1.403036,0.26928 2.447154,-0.36572 1.042454,-0.6361 1.983186,-1.5849 2.823035,-2.84584 L 140.60569,-39.883065 c 0.84102,-1.2627 1.35278,-2.49465 1.53916,-3.70351 0.1835,-1.20814 -0.0184,-2.00542 -0.60682,-2.39734 l -13.0203,-8.67217 c -0.58676,-0.39081 -1.40303,-0.26929 -2.44435,0.36511 -1.04482,0.63966 -1.98484,1.58378 -2.82587,2.8465 l 0,0 z" />
            </g>
          </g>
        </g>
      </g>
    </g>
  </g>
</svg>
