<?xml version="1.0" encoding="UTF-8" standalone="no"?>
<!-- Created with Inkscape (http://www.inkscape.org/) -->

<svg
   xmlns:sketch="http://www.bohemiancoding.com/sketch/ns"
   xmlns:dc="http://purl.org/dc/elements/1.1/"
   xmlns:cc="http://creativecommons.org/ns#"
   xmlns:rdf="http://www.w3.org/1999/02/22-rdf-syntax-ns#"
   xmlns:svg="http://www.w3.org/2000/svg"
   xmlns="http://www.w3.org/2000/svg"
   xmlns:sodipodi="http://sodipodi.sourceforge.net/DTD/sodipodi-0.dtd"
   xmlns:inkscape="http://www.inkscape.org/namespaces/inkscape"
   width="22"
   height="22"
   id="svg3869"
   version="1.1"
   inkscape:version="0.91 r13725"
   sodipodi:docname="love-amarok.svg">
  <defs
     id="defs3871" />
  <sodipodi:namedview
     id="base"
     pagecolor="#ffffff"
     bordercolor="#666666"
     borderopacity="1.0"
     inkscape:pageopacity="0.0"
     inkscape:pageshadow="2"
     inkscape:zoom="11.313708"
     inkscape:cx="-19.163299"
     inkscape:cy="19.754596"
     inkscape:document-units="px"
     inkscape:current-layer="layer1"
     showgrid="true"
     fit-margin-top="0"
     fit-margin-left="0"
     fit-margin-right="0"
     fit-margin-bottom="0"
     inkscape:window-width="1366"
     inkscape:window-height="630"
     inkscape:window-x="0"
     inkscape:window-y="36"
     inkscape:window-maximized="1"
     inkscape:showpageshadow="false"
     inkscape:snap-bbox="true"
     inkscape:object-nodes="true">
    <inkscape:grid
       type="xygrid"
       id="grid4132" />
    <sodipodi:guide
       position="2,20.000017"
       orientation="18,0"
       id="guide4138" />
    <sodipodi:guide
       position="2,2.0000174"
       orientation="0,18"
       id="guide4140" />
    <sodipodi:guide
       position="20,2.0000174"
       orientation="-18,0"
       id="guide4142" />
    <sodipodi:guide
       position="20,20.000017"
       orientation="0,-18"
       id="guide4144" />
    <sodipodi:guide
       position="3,3.0000174"
       orientation="0,16"
       id="guide4148" />
    <sodipodi:guide
       position="19,3.0000174"
       orientation="-16,0"
       id="guide4150" />
    <sodipodi:guide
       position="19,19.000017"
       orientation="0,-16"
       id="guide4152" />
  </sodipodi:namedview>
  <metadata
     id="metadata3874">
    <rdf:RDF>
      <cc:Work
         rdf:about="">
        <dc:format>image/svg+xml</dc:format>
        <dc:type
           rdf:resource="http://purl.org/dc/dcmitype/StillImage" />
        <dc:title></dc:title>
      </cc:Work>
    </rdf:RDF>
  </metadata>
  <g
     inkscape:label="Capa 1"
     inkscape:groupmode="layer"
     id="layer1"
     transform="translate(-326,-534.3622)">
    <g
       transform="matrix(1.3378944,0,0,1.3378944,326.34898,-851.87382)"
       id="layer1-1"
       inkscape:label="Capa 1">
      <g
         inkscape:label="Capa 1"
         id="layer1-0"
         transform="translate(-403.69551,511.9911)">
        <path
           style="fill:#4d4d4d;fill-opacity:1"
           sketch:type="MSShapeGroup"
           id="Favourites"
           d="m 417.58791,527.34933 c -0.65306,-0.64373 -1.55546,-0.96549 -2.70743,-0.96549 -0.31875,0 -0.64404,0.0558 -0.97568,0.16734 -0.33174,0.11162 -0.64027,0.26222 -0.92551,0.45163 -0.28544,0.18941 -0.53082,0.36726 -0.73664,0.53334 -0.20563,0.1661 -0.40103,0.3426 -0.58611,0.52943 -0.18518,-0.18683 -0.38058,-0.36333 -0.5862,-0.52943 -0.20573,-0.16608 -0.45121,-0.34383 -0.73665,-0.53334 -0.28543,-0.1895 -0.59396,-0.34001 -0.92561,-0.45163 -0.33163,-0.11153 -0.65692,-0.16734 -0.97569,-0.16734 -1.15186,0 -2.05427,0.32186 -2.70732,0.96549 -0.65304,0.64361 -0.97956,1.53639 -0.97956,2.67828 0,0.34776 0.0605,0.70602 0.1813,1.07442 0.1208,0.3685 0.25845,0.68262 0.41267,0.94208 0.15421,0.25946 0.32908,0.51259 0.52448,0.75915 0.1954,0.24656 0.33817,0.41647 0.4281,0.50994 0.0899,0.0934 0.16067,0.16083 0.21207,0.2023 l 4.813,4.68713 c 0.0926,0.0936 0.20573,0.1403 0.33941,0.1403 0.13367,0 0.24681,-0.0467 0.3394,-0.1401 l 4.80533,-4.67165 c 1.17754,-1.18854 1.7663,-2.35642 1.7663,-3.50357 0,-1.14189 -0.32662,-2.03467 -0.97966,-2.67828 l 0,0 z"
           inkscape:connector-curvature="0" />
      </g>
    </g>
  </g>
</svg>
