<?xml version="1.0" encoding="UTF-8" standalone="no"?>
<!-- Created with Inkscape (http://www.inkscape.org/) -->

<svg
   xmlns:dc="http://purl.org/dc/elements/1.1/"
   xmlns:cc="http://creativecommons.org/ns#"
   xmlns:rdf="http://www.w3.org/1999/02/22-rdf-syntax-ns#"
   xmlns:svg="http://www.w3.org/2000/svg"
   xmlns="http://www.w3.org/2000/svg"
   xmlns:sodipodi="http://sodipodi.sourceforge.net/DTD/sodipodi-0.dtd"
   xmlns:inkscape="http://www.inkscape.org/namespaces/inkscape"
   width="22"
   height="22"
   id="svg3869"
   version="1.1"
   inkscape:version="0.91 r13725"
   sodipodi:docname="mail-queue.svg">
  <defs
     id="defs3871">
    <inkscape:perspective
       sodipodi:type="inkscape:persp3d"
       inkscape:vp_x="0 : 12 : 1"
       inkscape:vp_y="0 : 1000 : 0"
       inkscape:vp_z="24 : 12 : 1"
       inkscape:persp3d-origin="12 : 8 : 1"
       id="perspective4146" />
    <inkscape:perspective
       sodipodi:type="inkscape:persp3d"
       inkscape:vp_x="0 : 12 : 1"
       inkscape:vp_y="0 : 1000 : 0"
       inkscape:vp_z="24 : 12 : 1"
       inkscape:persp3d-origin="12 : 8 : 1"
       id="perspective4090" />
  </defs>
  <sodipodi:namedview
     id="base"
     pagecolor="#ffffff"
     bordercolor="#666666"
     borderopacity="1.0"
     inkscape:pageopacity="0.0"
     inkscape:pageshadow="2"
     inkscape:zoom="11.313708"
     inkscape:cx="-10.145049"
     inkscape:cy="8.998107"
     inkscape:document-units="px"
     inkscape:current-layer="layer1"
     showgrid="true"
     fit-margin-top="0"
     fit-margin-left="0"
     fit-margin-right="0"
     fit-margin-bottom="0"
     inkscape:window-width="1366"
     inkscape:window-height="630"
     inkscape:window-x="0"
     inkscape:window-y="36"
     inkscape:window-maximized="1"
     inkscape:showpageshadow="false"
     inkscape:object-nodes="true"
     inkscape:snap-bbox="true">
    <inkscape:grid
       type="xygrid"
       id="grid4132" />
    <sodipodi:guide
       position="4,18"
       orientation="18,0"
       id="guide4138" />
    <sodipodi:guide
       position="5,3"
       orientation="0,18"
       id="guide4140" />
    <sodipodi:guide
       position="20,2.0000174"
       orientation="-18,0"
       id="guide4142" />
    <sodipodi:guide
       position="2,21"
       orientation="0,-18"
       id="guide4144" />
    <sodipodi:guide
       position="3,19.000017"
       orientation="16,0"
       id="guide4146" />
    <sodipodi:guide
       position="2,4"
       orientation="0,16"
       id="guide4148" />
    <sodipodi:guide
       position="21,20"
       orientation="-16,0"
       id="guide4150" />
    <sodipodi:guide
       position="2,20"
       orientation="0,-16"
       id="guide4152" />
  </sodipodi:namedview>
  <metadata
     id="metadata3874">
    <rdf:RDF>
      <cc:Work
         rdf:about="">
        <dc:format>image/svg+xml</dc:format>
        <dc:type
           rdf:resource="http://purl.org/dc/dcmitype/StillImage" />
        <dc:title></dc:title>
      </cc:Work>
    </rdf:RDF>
  </metadata>
  <g
     inkscape:label="Capa 1"
     inkscape:groupmode="layer"
     id="layer1"
     transform="translate(-326,-534.3622)">
    <g
       transform="matrix(0.66666667,0,0,0.66666667,69.952378,190.8302)"
       id="layer1-2"
       inkscape:label="Capa 1">
      <g
         inkscape:label="Capa 1"
         id="layer1-6"
         transform="matrix(0.52173913,0,0,0.52173913,187.40373,258.51209)">
        <g
           id="g4280"
           transform="matrix(1.15,0,0,1.15,-61.285728,-78.569705)">
          <path
             inkscape:connector-curvature="0"
             d="m 410.71832,523.81718 c -0.0552,-0.45802 -0.22926,-0.87572 -0.4968,-1.22452 l 1.8368,-11.39934 c 0.0684,-0.42414 -0.20372,-0.82852 -0.62224,-0.9252 l -0.0206,-0.004 c -0.41852,-0.0968 -0.84028,0.1476 -0.96482,0.55874 l -3.34617,11.05067 c -0.82462,0.41464 -1.39706,1.25987 -1.39706,2.24427 0,1.38994 1.13028,2.5209 2.52016,2.5209 0.259,0 0.50392,-0.0506 0.73918,-0.1234 l 6.99053,3.63279 c 0.38461,0.1998 0.85803,0.075 1.09405,-0.2885 l 0.01,-0.016 c 0.23608,-0.3634 0.1576,-0.84673 -0.1816,-1.11673 z m -3.73547,0.29996 c 0,-0.6863 0.5586,-1.24488 1.24488,-1.24488 0.6869,0 1.24549,0.55858 1.24549,1.24488 0,0.6868 -0.55859,1.24548 -1.24549,1.24548 -0.68628,0 -1.24488,-0.5586 -1.24488,-1.24548 z m 1.58859,-20.31914 c 11.08,0 20,8.92 20,20 0,11.08 -8.92,20 -20,20 -11.08,0 -20,-8.92 -20,-20 0,-11.08 8.92,-20 20,-20 z"
             style="fill:#4d4d4d;fill-opacity:1"
             id="path5" />
        </g>
      </g>
    </g>
  </g>
</svg>
