<?xml version="1.0" encoding="UTF-8" standalone="no"?>
<!-- Created with Inkscape (http://www.inkscape.org/) -->

<svg
   xmlns:dc="http://purl.org/dc/elements/1.1/"
   xmlns:cc="http://creativecommons.org/ns#"
   xmlns:rdf="http://www.w3.org/1999/02/22-rdf-syntax-ns#"
   xmlns:svg="http://www.w3.org/2000/svg"
   xmlns="http://www.w3.org/2000/svg"
   xmlns:sodipodi="http://sodipodi.sourceforge.net/DTD/sodipodi-0.dtd"
   xmlns:inkscape="http://www.inkscape.org/namespaces/inkscape"
   width="22"
   height="22"
   id="svg3869"
   version="1.1"
   inkscape:version="0.91 r13725"
   sodipodi:docname="media-eject.svg">
  <defs
     id="defs3871" />
  <sodipodi:namedview
     id="base"
     pagecolor="#ffffff"
     bordercolor="#666666"
     borderopacity="1.0"
     inkscape:pageopacity="0.0"
     inkscape:pageshadow="2"
     inkscape:zoom="11.313708"
     inkscape:cx="-22.212288"
     inkscape:cy="11.261563"
     inkscape:document-units="px"
     inkscape:current-layer="layer1"
     showgrid="true"
     fit-margin-top="0"
     fit-margin-left="0"
     fit-margin-right="0"
     fit-margin-bottom="0"
     inkscape:window-width="1366"
     inkscape:window-height="630"
     inkscape:window-x="0"
     inkscape:window-y="36"
     inkscape:window-maximized="1"
     inkscape:showpageshadow="false"
     inkscape:snap-bbox="true"
     inkscape:object-nodes="true">
    <inkscape:grid
       type="xygrid"
       id="grid4132" />
    <sodipodi:guide
       position="4,18"
       orientation="18,0"
       id="guide4138" />
    <sodipodi:guide
       position="5,3"
       orientation="0,18"
       id="guide4140" />
    <sodipodi:guide
       position="20,2.0000174"
       orientation="-18,0"
       id="guide4142" />
    <sodipodi:guide
       position="2,21"
       orientation="0,-18"
       id="guide4144" />
    <sodipodi:guide
       position="3,19.000017"
       orientation="16,0"
       id="guide4146" />
    <sodipodi:guide
       position="2,4"
       orientation="0,16"
       id="guide4148" />
    <sodipodi:guide
       position="21,20"
       orientation="-16,0"
       id="guide4150" />
    <sodipodi:guide
       position="2,20"
       orientation="0,-16"
       id="guide4152" />
  </sodipodi:namedview>
  <metadata
     id="metadata3874">
    <rdf:RDF>
      <cc:Work
         rdf:about="">
        <dc:format>image/svg+xml</dc:format>
        <dc:type
           rdf:resource="http://purl.org/dc/dcmitype/StillImage" />
        <dc:title></dc:title>
      </cc:Work>
    </rdf:RDF>
  </metadata>
  <g
     inkscape:label="Capa 1"
     inkscape:groupmode="layer"
     id="layer1"
     transform="translate(-326,-534.3622)">
    <g
       transform="matrix(0.69076272,0,0,0.69076272,60.300192,178.01597)"
       id="layer1-1"
       inkscape:label="Capa 1">
      <g
         style="fill:#4d4d4d;fill-opacity:1"
         transform="matrix(0.06434183,0,0,0.06434183,388.57141,519.79799)"
         id="g3">
        <g
           style="fill:#4d4d4d;fill-opacity:1"
           id="Layer_8_30_">
          <path
             style="fill:#4d4d4d;fill-opacity:1"
             inkscape:connector-curvature="0"
             id="path6"
             d="m 353.703,245.49 -334.399,0 c -6.892,0 -13.27,-3.673 -16.714,-9.653 -3.453,-5.965 -3.453,-13.336 0,-19.305 L 169.787,16.161 c 3.444,-5.973 9.821,-9.655 16.713,-9.655 6.893,0 13.274,3.682 16.717,9.655 l 167.21,200.372 c 1.718,2.987 2.581,6.314 2.581,9.657 0,3.333 -0.863,6.659 -2.581,9.659 -3.455,5.968 -9.833,9.641 -16.724,9.641 z m 19.11,113.292 0,-63.705 c 0,-4.263 -3.46,-7.722 -7.729,-7.722 l -357.167,0 c -4.264,0 -7.721,3.459 -7.721,7.722 l 0,63.705 c 0,4.264 3.457,7.72 7.721,7.72 l 357.167,0 c 4.269,0.006 7.729,-3.456 7.729,-7.72 z" />
        </g>
      </g>
    </g>
  </g>
</svg>
