<?xml version="1.0" encoding="UTF-8" standalone="no"?>
<!-- Created with Inkscape (http://www.inkscape.org/) -->

<svg
   xmlns:dc="http://purl.org/dc/elements/1.1/"
   xmlns:cc="http://creativecommons.org/ns#"
   xmlns:rdf="http://www.w3.org/1999/02/22-rdf-syntax-ns#"
   xmlns:svg="http://www.w3.org/2000/svg"
   xmlns="http://www.w3.org/2000/svg"
   xmlns:sodipodi="http://sodipodi.sourceforge.net/DTD/sodipodi-0.dtd"
   xmlns:inkscape="http://www.inkscape.org/namespaces/inkscape"
   width="16"
   height="16"
   id="svg3049"
   version="1.1"
   inkscape:version="0.91 r13725"
   sodipodi:docname="path-intersection.svg"
   inkscape:export-filename="/home/uri/.kde/share/icons/NITRUX-KDE/16x16/actions/view-right-new.png"
   inkscape:export-xdpi="30"
   inkscape:export-ydpi="30">
  <defs
     id="defs3051" />
  <sodipodi:namedview
     id="base"
     pagecolor="#ffffff"
     bordercolor="#666666"
     borderopacity="1.0"
     inkscape:pageopacity="0.0"
     inkscape:pageshadow="2"
     inkscape:zoom="45.254834"
     inkscape:cx="11.032768"
     inkscape:cy="7.0556863"
     inkscape:document-units="px"
     inkscape:current-layer="layer1"
     showgrid="true"
     fit-margin-top="0"
     fit-margin-left="0"
     fit-margin-right="0"
     fit-margin-bottom="0"
     inkscape:window-width="1920"
     inkscape:window-height="957"
     inkscape:window-x="-4"
     inkscape:window-y="0"
     inkscape:window-maximized="1"
     inkscape:showpageshadow="false"
     borderlayer="true"
     inkscape:snap-bbox="true"
     inkscape:snap-global="true"
     inkscape:object-nodes="true">
    <inkscape:grid
       type="xygrid"
       id="grid4085" />
    <sodipodi:guide
       position="2.0000044,14.00003"
       orientation="12,0"
       id="guide4075" />
    <sodipodi:guide
       position="2.0000044,2.0000296"
       orientation="0,12"
       id="guide4077" />
    <sodipodi:guide
       position="14.000004,2.0000296"
       orientation="-12,0"
       id="guide4079" />
    <sodipodi:guide
       position="14.000004,14.00003"
       orientation="0,-12"
       id="guide4081" />
  </sodipodi:namedview>
  <metadata
     id="metadata3054">
    <rdf:RDF>
      <cc:Work
         rdf:about="">
        <dc:format>image/svg+xml</dc:format>
        <dc:type
           rdf:resource="http://purl.org/dc/dcmitype/StillImage" />
        <dc:title />
      </cc:Work>
    </rdf:RDF>
  </metadata>
  <g
     inkscape:label="Capa 1"
     inkscape:groupmode="layer"
     id="layer1"
     transform="translate(-421.71429,-531.79074)">
    <path
       style="fill:#4d4d4d;fill-opacity:1;fill-rule:evenodd;stroke:none;stroke-width:2;stroke-miterlimit:4;stroke-dasharray:none"
       d="M 9 2.03125 A 4.5 4.5 0 0 0 7.6992188 2.3789062 L 8.203125 3.2519531 A 3.5 3.5 0 0 1 9 3.0390625 L 9 2.03125 z M 10 2.0332031 L 10 3.0410156 A 3.5 3.5 0 0 1 10.796875 3.2519531 L 11.298828 2.3828125 A 4.5 4.5 0 0 0 10 2.0332031 z M 6.8339844 2.8808594 A 4.5 4.5 0 0 0 5.8808594 3.8339844 L 6.7539062 4.3359375 A 3.5 3.5 0 0 1 7.3339844 3.75 L 6.8339844 2.8808594 z M 12.166016 2.8808594 L 11.664062 3.7539062 A 3.5 3.5 0 0 1 12.25 4.3339844 L 13.119141 3.8339844 A 4.5 4.5 0 0 0 12.166016 2.8808594 z M 13.621094 4.6992188 L 12.748047 5.203125 A 3.5 3.5 0 0 1 12.960938 6 L 13.96875 6 A 4.5 4.5 0 0 0 13.621094 4.6992188 z M 5.3828125 4.7011719 A 4.5 4.5 0 0 0 5.0332031 6 L 5 6 L 5 7 L 5.03125 7 A 4.5 4.5 0 0 0 9 10.966797 L 9 11 L 9.5 11 L 10 11 L 10 10.96875 A 4.5 4.5 0 0 0 11.300781 10.621094 L 10.796875 9.7480469 A 3.5 3.5 0 0 1 10 9.9589844 L 10 6 L 6.0410156 6 A 3.5 3.5 0 0 1 6.2519531 5.203125 L 5.3828125 4.7011719 z M 2 6 L 2 8 L 3 8 L 3 7 L 4 7 L 4 6 L 3 6 L 2 6 z M 6.0390625 7 L 9 7 L 9 9.9589844 A 3.5 3.5 0 0 1 6.0390625 7 z M 12.958984 7 A 3.5 3.5 0 0 1 12.748047 7.796875 L 13.617188 8.2988281 A 4.5 4.5 0 0 0 13.966797 7 L 12.958984 7 z M 12.246094 8.6640625 A 3.5 3.5 0 0 1 11.666016 9.25 L 12.166016 10.119141 A 4.5 4.5 0 0 0 13.119141 9.1660156 L 12.246094 8.6640625 z M 2 9 L 2 10 L 3 10 L 3 9 L 2 9 z M 2 11 L 2 12 L 3 12 L 3 11 L 2 11 z M 9 12 L 9 13 L 8 13 L 8 14 L 10 14 L 10 13 L 10 12 L 9 12 z M 2 13 L 2 14 L 3 14 L 3 13 L 2 13 z M 4 13 L 4 14 L 5 14 L 5 13 L 4 13 z M 6 13 L 6 14 L 7 14 L 7 13 L 6 13 z "
       transform="translate(421.71429,531.79074)"
       id="rect4159-6-3" />
    <path
       style="fill:#b3b3b3;fill-opacity:1;fill-rule:evenodd;stroke:none;stroke-width:2;stroke-miterlimit:4;stroke-dasharray:none"
       d="M 9 7 L 6.0410156 7.0214844 A 3.5 3.5 0 0 0 9 9.9589844 L 9 7 z "
       transform="translate(421.71429,531.79074)"
       id="rect4166-3-8" />
    <path
       style="fill:#4d4d4d;fill-opacity:1;fill-rule:evenodd;stroke:none;stroke-width:2;stroke-miterlimit:4;stroke-dasharray:none"
       d="m 411.96429,533.79855 0,1.00586 a 3,3 0 0 1 1.33398,0.44531 l 0.72071,-0.7207 a 4,4 0 0 0 -2.05469,-0.73047 z m -1,0.0645 a 4,4 0 0 0 -1.83789,0.88281 l 0.70898,0.70898 a 3,3 0 0 1 1.12891,-0.5664 l 0,-1.02539 z m 3.79492,1.33984 -0.70898,0.70898 a 3,3 0 0 1 0.62304,1.37891 l 1.00586,0 a 4,4 0 0 0 -0.91992,-2.08789 z m -6.30859,0.28125 a 4,4 0 0 0 -0.73633,2.30664 4,4 0 0 0 4,4 4,4 0 0 0 2.30469,-0.73828 l -0.72071,-0.7207 a 3,3 0 0 1 -1.58398,0.45898 3,3 0 0 1 -3,-3 3,3 0 0 1 0.45898,-1.58398 l -0.72265,-0.72266 z m 6.21679,2.80664 a 3,3 0 0 1 -0.61914,1.37695 l 0.70704,0.70703 a 4,4 0 0 0 0.92187,-2.08398 l -1.00977,0 z"
       id="path4154-4-9-0"
       inkscape:connector-curvature="0" />
    <path
       style="fill:#4d4d4d;fill-opacity:1;fill-rule:evenodd;stroke:none;stroke-width:2;stroke-miterlimit:4;stroke-dasharray:none"
       d="m 403.71429,537.79074 0,2 1,0 0,-1 1,0 0,-1 -1,0 -1,0 z m 3,0 0,1 1,0 3,0 0,3 0,1 1,0 0,-1 0,-4 -4,0 -1,0 z m -3,3 0,1 1,0 0,-1 -1,0 z m 0,2 0,1 1,0 0,-1 -1,0 z m 7,1 0,1 -1,0 0,1 2,0 0,-1 0,-1 -1,0 z m -7,1 0,1 1,0 0,-1 -1,0 z m 2,0 0,1 1,0 0,-1 -1,0 z m 2,0 0,1 1,0 0,-1 -1,0 z"
       id="rect4159-6-3-3"
       inkscape:connector-curvature="0" />
    <path
       style="fill:#b3b3b3;fill-opacity:1;fill-rule:evenodd;stroke:none;stroke-width:2;stroke-miterlimit:4;stroke-dasharray:none"
       d="m 408.88812,538.79074 a 3,3 0 0 0 1.82617,1.82422 l 0,-1.82422 -1.82617,0 z"
       id="rect4166-3-8-9"
       inkscape:connector-curvature="0" />
  </g>
</svg>
