<?xml version="1.0" encoding="UTF-8" standalone="no"?>
<!-- Created with Inkscape (http://www.inkscape.org/) -->

<svg
   xmlns:dc="http://purl.org/dc/elements/1.1/"
   xmlns:cc="http://creativecommons.org/ns#"
   xmlns:rdf="http://www.w3.org/1999/02/22-rdf-syntax-ns#"
   xmlns:svg="http://www.w3.org/2000/svg"
   xmlns="http://www.w3.org/2000/svg"
   xmlns:sodipodi="http://sodipodi.sourceforge.net/DTD/sodipodi-0.dtd"
   xmlns:inkscape="http://www.inkscape.org/namespaces/inkscape"
   width="22"
   height="22"
   id="svg3049"
   version="1.1"
   inkscape:version="0.91 r13725"
   sodipodi:docname="tag-places.svg"
   inkscape:export-filename="/home/uri/.kde/share/icons/NITRUX-KDE/16x16/actions/view-right-new.png"
   inkscape:export-xdpi="30"
   inkscape:export-ydpi="30">
  <defs
     id="defs3051" />
  <sodipodi:namedview
     id="base"
     pagecolor="#ffffff"
     bordercolor="#666666"
     borderopacity="1.0"
     inkscape:pageopacity="0.0"
     inkscape:pageshadow="2"
     inkscape:zoom="15.863636"
     inkscape:cx="-0.63037352"
     inkscape:cy="12.063008"
     inkscape:document-units="px"
     inkscape:current-layer="layer1"
     showgrid="true"
     fit-margin-top="0"
     fit-margin-left="0"
     fit-margin-right="0"
     fit-margin-bottom="0"
     inkscape:window-width="1366"
     inkscape:window-height="630"
     inkscape:window-x="0"
     inkscape:window-y="36"
     inkscape:window-maximized="1"
     inkscape:showpageshadow="false"
     borderlayer="true"
     inkscape:object-nodes="true">
    <sodipodi:guide
       position="3,21"
       orientation="18,0"
       id="guide4067" />
    <sodipodi:guide
       position="3,3"
       orientation="0,18"
       id="guide4069" />
    <sodipodi:guide
       position="21,3"
       orientation="-18,0"
       id="guide4071" />
    <sodipodi:guide
       position="21,21"
       orientation="0,-18"
       id="guide4073" />
    <sodipodi:guide
       position="4,20"
       orientation="16,0"
       id="guide4077" />
    <sodipodi:guide
       position="4,4"
       orientation="0,16"
       id="guide4079" />
    <sodipodi:guide
       position="20,4"
       orientation="-16,0"
       id="guide4081" />
    <sodipodi:guide
       position="20,20"
       orientation="0,-16"
       id="guide4083" />
    <inkscape:grid
       type="xygrid"
       id="grid4085"
       originx="0.99999557"
       originy="0.99997045" />
  </sodipodi:namedview>
  <metadata
     id="metadata3054">
    <rdf:RDF>
      <cc:Work
         rdf:about="">
        <dc:format>image/svg+xml</dc:format>
        <dc:type
           rdf:resource="http://purl.org/dc/dcmitype/StillImage" />
        <dc:title />
      </cc:Work>
    </rdf:RDF>
  </metadata>
  <g
     inkscape:label="Capa 1"
     inkscape:groupmode="layer"
     id="layer1"
     transform="translate(-420.71429,-526.79071)">
    <rect
       style="fill:#4d4d4d;fill-opacity:1;stroke:none"
       id="rect4035"
       width="0"
       height="10.999983"
       x="383.45605"
       y="518.13037" />
    <path
       id="path3011"
       d="m 431.71823,529.7909 c -0.31897,0 -0.62793,0.026 -0.93789,0.063 -0.30396,0.036 -0.61393,0.087 -0.9059,0.15589 -0.094,0.0221 -0.18497,0.067 -0.28096,0.094 -0.084,0.0229 -0.16698,0.037 -0.24997,0.0629 -0.105,0.033 -0.21397,0.059 -0.31297,0.094 -0.10698,0.038 -0.20697,0.083 -0.31296,0.12491 -0.20597,0.083 -0.39694,0.182 -0.59393,0.28091 -0.071,0.036 -0.14899,0.056 -0.21898,0.094 -0.22997,0.1209 -0.44093,0.26291 -0.65592,0.40581 -0.082,0.055 -0.16997,0.098 -0.24996,0.1559 -0.033,0.024 -0.061,0.038 -0.094,0.063 -0.094,0.071 -0.19099,0.1418 -0.28097,0.2188 -0.10699,0.089 -0.20997,0.1869 -0.31297,0.2809 -0.032,0.03 -0.062,0.064 -0.094,0.094 -0.011,0.011 -0.02,0.02 -0.031,0.031 -0.016,0.016 -0.015,0.047 -0.031,0.0629 -0.20997,0.2039 -0.43894,0.3988 -0.62492,0.6247 -0.005,0.01 0.005,0.025 0,0.031 -0.18099,0.2199 -0.34297,0.44781 -0.49995,0.68771 -0.021,0.032 -0.042,0.061 -0.063,0.094 -0.015,0.024 -0.047,0.0371 -0.063,0.0629 -0.06,0.098 -0.10099,0.209 -0.15598,0.31291 -0.0179,0.033 -0.045,0.061 -0.0629,0.094 -0.075,0.1459 -0.14999,0.2898 -0.21899,0.4378 -0.004,0.01 0.004,0.0229 0,0.0309 -0.11698,0.2528 -0.22198,0.5136 -0.31294,0.78051 -0.019,0.0531 -0.0451,0.103 -0.063,0.156 -0.003,0.01 0.003,0.0221 0,0.031 -0.02,0.062 -0.044,0.125 -0.063,0.188 -0.073,0.2568 -0.13998,0.5137 -0.18798,0.7806 -0.034,0.1919 -0.074,0.39681 -0.094,0.59381 -0.027,0.2648 -0.031,0.54171 -0.031,0.81251 0,0.40381 0.036,0.7996 0.094,1.18751 0.006,0.041 -0.007,0.085 0,0.1249 0.044,0.2659 0.11798,0.52481 0.18798,0.78071 0.026,0.096 0.064,0.1859 0.094,0.28089 0.04,0.12891 0.079,0.2489 0.12499,0.37481 0.077,0.2119 0.15599,0.4218 0.24998,0.6246 0.0499,0.106 0.10198,0.20991 0.15598,0.31291 0.15198,0.2919 0.31496,0.5747 0.49993,0.84361 0.016,0.024 0.046,0.039 0.063,0.0629 0.19798,0.28091 0.39396,0.5597 0.62493,0.81261 0.04,0.044 0.084,0.082 0.12498,0.125 0.04,0.042 0.084,0.084 0.12499,0.1249 0.21397,0.2139 0.45095,0.40481 0.68792,0.59381 0.30595,0.2438 0.62892,0.4587 0.96888,0.65559 0.012,0.01 0.0189,0.024 0.031,0.031 0.053,0.0299 0.103,0.065 0.15599,0.094 0.31596,0.156 0.69193,0.3249 0.93788,0.43781 0.11,0.0419 0.23099,0.057 0.34396,0.094 0.053,0.018 0.103,0.046 0.15599,0.063 0.13599,0.041 0.26797,0.09 0.40595,0.12489 0.042,0.011 0.083,0.021 0.12499,0.031 0.29197,0.069 0.60193,0.12089 0.9059,0.1559 0.30895,0.036 0.61792,0.063 0.93789,0.063 0.33996,0 0.67093,-0.0211 0.99988,-0.063 0.36495,-0.048 0.68091,-0.1239 0.99988,-0.1879 1.6978,-0.4358 3.16162,-1.42132 4.21851,-2.74872 0.028,-0.035 0.067,-0.058 0.094,-0.094 0.009,-0.012 0.0219,-0.02 0.031,-0.031 0.014,-0.018 0.018,-0.044 0.031,-0.0629 0.62292,-0.8246 1.07686,-1.78011 1.34383,-2.81173 0.056,-0.2169 0.11799,-0.4318 0.15599,-0.6557 0.005,-0.03 -0.005,-0.063 0,-0.094 0.006,-0.04 0.025,-0.079 0.031,-0.125 0.006,-0.043 0.026,-0.082 0.031,-0.1249 l -0.031,0 c 0.044,-0.32891 0.094,-0.65871 0.094,-0.99962 0,-0.55171 -0.05,-1.1034 -0.15598,-1.6242 -0.009,-0.043 -0.022,-0.0821 -0.031,-0.1249 -0.046,-0.2079 -0.12398,-0.42291 -0.18798,-0.62482 -0.003,-0.01 0.003,-0.022 0,-0.031 -0.012,-0.038 -0.018,-0.056 -0.031,-0.094 -0.0389,-0.119 -0.081,-0.2579 -0.12499,-0.3748 -0.012,-0.032 -0.018,-0.064 -0.031,-0.094 -0.043,-0.10901 -0.10799,-0.2059 -0.15598,-0.31281 -0.002,0 0.002,-0.026 0,-0.031 -0.0251,-0.054 -0.068,-0.10291 -0.094,-0.1559 -0.098,-0.20292 -0.19797,-0.39981 -0.31297,-0.59371 -0.058,-0.098 -0.094,-0.2169 -0.15598,-0.31291 -0.024,-0.036 -0.0691,-0.058 -0.094,-0.094 -0.067,-0.099 -0.14697,-0.18501 -0.21897,-0.28091 -0.08,-0.1 -0.13999,-0.2159 -0.21897,-0.31291 -0.005,-0.01 0.005,-0.025 0,-0.031 -0.17197,-0.2089 -0.36996,-0.40281 -0.56293,-0.5937 -0.093,-0.092 -0.18398,-0.1939 -0.28097,-0.28091 -0.028,-0.025 -0.065,-0.038 -0.094,-0.063 -0.20896,-0.18189 -0.42994,-0.3398 -0.65592,-0.4996 -0.0549,-0.038 -0.10098,-0.088 -0.15597,-0.12501 -0.07,-0.046 -0.14799,-0.081 -0.21898,-0.12489 -0.13499,-0.084 -0.26597,-0.174 -0.40596,-0.24991 -0.12298,-0.067 -0.24796,-0.127 -0.37495,-0.1879 -0.21397,-0.102 -0.43195,-0.198 -0.65593,-0.2809 -0.26595,-0.099 -0.53392,-0.1799 -0.8129,-0.2499 -0.24495,-0.062 -0.49694,-0.118 -0.7499,-0.1559 -0.39696,-0.0611 -0.80491,-0.094 -1.21886,-0.094 m 0,0.99962 c 0.29896,0 0.58492,0.0269 0.8749,0.0629 0.17999,0.023 0.35496,0.058 0.53093,0.094 0.01,0 0.021,0 0.0309,0 0.16598,0.035 0.33796,0.079 0.49994,0.12491 0.096,0.027 0.18698,0.063 0.28097,0.094 0.17197,0.057 0.33395,0.1169 0.49993,0.1879 0.19399,0.08 0.37897,0.1528 0.56294,0.24981 -0.031,0.01 -0.063,0.021 -0.094,0.031 -0.047,0.017 -0.11298,0.096 -0.12498,0.12491 -0.02,0.048 0.005,0.11499 0,0.188 0.0379,0.0171 0.06,0.089 0.12498,0.12489 0.025,0.014 0.0411,-0.01 0.063,0 0.038,0.021 0.07,0.087 0.063,0.12491 -0.011,0.055 -0.088,0.022 -0.12499,0.063 0.006,0.078 -0.043,0.105 -0.063,0.15591 0.012,0.033 0.057,0.024 0.063,0.063 -0.007,0.043 -0.079,0.049 -0.063,0.094 0.072,0.056 0.15098,-0.0219 0.21897,-0.031 0.14899,-0.0189 0.28296,0.0411 0.37495,-0.031 -0.012,-0.071 0.10099,-0.092 0.094,-0.1559 -0.006,-0.048 -0.09,-0.061 -0.12498,-0.094 -0.0189,-0.018 -0.04,-0.059 -0.063,-0.094 -0.026,-0.04 -0.064,-0.087 -0.094,-0.12501 -0.039,-0.052 -0.12497,-0.1169 -0.12497,-0.15591 7.2e-4,-0.045 0.052,-0.063 0.063,-0.12499 -0.012,-0.0571 -0.11699,0 -0.12498,-0.063 0.002,-0.019 0.021,-0.051 0.031,-0.063 0.14997,0.082 0.29796,0.1789 0.43795,0.2809 0.032,0.021 0.062,0.0411 0.094,0.063 0.10798,0.081 0.20697,0.17 0.31297,0.2499 -0.067,0.012 -0.101,0.09 -0.15599,0.156 -0.038,0.046 -0.099,0.10091 -0.15598,0.12491 -0.028,0.012 -0.068,-0.016 -0.094,0 -0.0371,0.025 -0.051,0.096 -0.094,0.12499 -0.031,0.021 -0.12399,0.094 -0.15598,0.094 -0.0379,7.3e-4 -0.098,-0.04 -0.12499,-0.031 -0.04,0.013 -0.0171,0.077 -0.063,0.094 -0.088,0.031 -0.24997,-0.069 -0.28095,0.063 0.038,0.076 0.15297,0.051 0.21896,0.094 0.042,0.026 0.11399,0.143 0.12498,0.1879 0.0101,0.038 0.0149,0.179 0,0.2189 -0.0411,0.106 -0.15898,0.097 -0.28096,0.094 -0.034,-7.2e-4 -0.063,0 -0.094,0 -0.20697,-0.014 -0.40695,-0.085 -0.49995,0.0629 0.007,0.1129 0.0251,0.1829 0,0.2808 -0.018,0.072 -0.097,0.12501 -0.094,0.188 0.002,0.032 0.055,0.082 0.063,0.12491 0.005,0.023 -0.011,0.073 0,0.094 0.034,0.066 0.12699,-0.01 0.18799,0 0.0589,0.01 0.12598,0.1209 0.12497,0.1879 -7.2e-4,0.046 -0.033,0.1119 -0.063,0.1559 -0.058,0.089 -0.16699,0.077 -0.24997,0.12491 -0.07,0.039 -0.084,0.11889 -0.12497,0.1879 -0.044,0.074 -0.081,0.11089 -0.063,0.21889 -0.06,0.11791 -0.12598,0.1939 -0.24997,0.24991 -0.0371,0.017 -0.092,0.039 -0.12498,0.063 -0.027,0.019 -0.056,0.051 -0.094,0.094 -0.047,0.052 -0.10001,0.085 -0.12499,0.12501 -0.0189,0.0309 -0.0101,0.084 -0.031,0.12489 -0.029,0.056 -0.088,0.10001 -0.12497,0.15591 -0.017,0.026 -0.043,0.059 -0.063,0.094 -0.042,0.077 -0.10099,0.1509 -0.094,0.2189 0.007,0.066 0.089,0.068 0.094,0.12491 0.004,0.032 -0.033,0.059 -0.031,0.094 7.2e-4,0.051 0.0269,0.086 0.031,0.12489 0.01,0.099 -0.044,0.12 -0.063,0.188 -0.009,0.032 0.008,0.068 0,0.094 -0.016,0.05 -0.093,0.098 -0.094,0.156 -7.2e-4,0.0419 0.059,0.097 0.063,0.1559 0.002,0.04 -0.038,0.057 -0.031,0.094 0.014,0.073 0.16198,0.162 0.21897,0.2189 0.075,0.075 0.15498,0.139 0.18798,0.219 0.0269,0.067 0.041,0.16781 0.094,0.21881 0.0389,0.0371 0.10598,0.054 0.15598,0.094 0.0469,0.036 0.10698,0.055 0.15598,0.094 0.081,0.064 0.18298,0.19691 0.31296,0.18791 0.068,-0.01 0.14198,-0.0501 0.21897,-0.063 0.079,-0.014 0.16999,-0.039 0.24998,-0.031 0.061,0.01 0.12397,0.066 0.18797,0.063 0.067,0 0.14299,-0.0611 0.21899,-0.094 0.13198,-0.057 0.33896,-0.1529 0.53093,-0.1249 0.14598,0.021 0.14897,0.2169 0.24997,0.2809 0.11798,0.01 0.21897,-0.054 0.31297,-0.031 0.07,0.017 0.14897,0.1319 0.15597,0.1879 0.007,0.058 -0.054,0.12101 -0.063,0.1559 -0.0181,0.078 -0.0171,0.16901 -0.031,0.21891 -0.011,0.038 -0.032,0.086 -0.031,0.125 0,0.035 0.058,0.1419 0.094,0.1879 0.044,0.056 0.103,0.096 0.15599,0.1559 0.087,0.109 0.15498,0.23591 0.21897,0.3749 0.0171,0.0371 -0.016,0.077 0,0.12491 -0.029,0.2239 -0.10299,0.3769 -0.24997,0.6247 -0.069,0.08 -0.15798,0.15 -0.15598,0.2499 -0.005,0.23991 0.13599,0.39282 0.12499,0.62471 -0.024,0.3118 0.024,0.3328 0,0.4997 0.10499,0.0531 0.031,0.23291 0,0.34391 -0.0451,0.1319 -0.10001,0.16189 -0.12499,0.2499 0.071,0.031 0.17098,0.0189 0.24997,0 0,0 0.096,0.4008 0.094,0.4058 -0.80691,0.79671 -1.81878,1.38741 -2.93765,1.71822 -0.54994,0.13289 -0.71292,0.13289 -0.96889,0.1879 -0.33395,0.055 -0.68292,0.094 -1.03088,0.094 -0.24296,0 -0.48293,-0.01 -0.71891,-0.031 -0.18197,-0.018 -0.35395,-0.062 -0.53094,-0.094 -0.0531,-0.01 -0.10398,-0.02 -0.15598,-0.031 -0.16298,-0.055 -0.35095,-0.088 -0.49995,-0.1249 -0.16996,-0.048 -0.33495,-0.096 -0.49993,-0.15601 0.014,-0.013 0.0269,-0.011 0.031,-0.031 0.009,-0.04 0.002,-0.062 0,-0.12491 0.015,-0.065 0.08,-0.058 0.094,-0.12491 -0.028,-0.048 -0.083,-0.038 -0.12498,-0.0629 -0.041,-0.024 -0.068,-0.074 -0.063,-0.125 0.07,-0.029 0.19996,0.0659 0.24996,-0.031 0.025,-0.0461 -0.034,-0.14092 0,-0.18791 0.0229,-0.031 0.16898,-0.055 0.21898,-0.063 0.0709,-0.012 0.14798,-0.01 0.18797,-0.031 0.044,-0.0291 0.10099,-0.105 0.094,-0.18801 -0.004,-0.039 -0.033,-0.059 -0.063,-0.094 -0.025,-0.029 -0.013,-0.066 -0.0309,-0.094 -0.031,-0.0469 -0.08,-0.058 -0.094,-0.12491 0.096,-0.0189 0.23597,0.10191 0.37497,0.063 0.066,-0.0189 0.15698,-0.188 0.18797,-0.2499 0.0101,-0.019 -0.01,-0.04 0,-0.063 0.012,-0.026 0.0589,-0.049 0.063,-0.0629 0.01,-0.036 -0.008,-0.071 0,-0.094 0.024,-0.068 0.085,-0.075 0.12498,-0.12502 0.03,-0.038 0.065,-0.087 0.094,-0.12488 0.031,-0.0411 0.0419,-0.089 0.063,-0.12502 0.02,-0.12189 -0.06,-0.2059 -0.031,-0.31279 0.032,-0.12 0.19598,-0.16501 0.31297,-0.2189 0.04,-0.019 0.092,-0.05 0.12499,-0.063 0.08,-0.028 0.17597,-0.036 0.24997,-0.063 0.12498,-0.0461 0.15698,-0.16691 0.21897,-0.28092 0.029,-0.054 0.057,-0.11789 0.063,-0.15589 0.005,-0.035 -0.007,-0.0531 0,-0.094 0.006,-0.04 0.02,-0.081 0.031,-0.1248 0.014,-0.058 0.031,-0.1539 0.031,-0.21889 0,-0.053 -0.029,-0.078 -0.031,-0.12491 -0.009,-0.173 0.061,-0.218 0.12499,-0.3129 0.032,-0.047 0.04,-0.091 0.063,-0.125 0.108,-0.1609 0.29498,-0.2259 0.28098,-0.4688 -0.005,-0.08 -0.035,-0.25581 -0.094,-0.28081 -0.034,-0.0149 -0.107,-0.011 -0.15598,-0.031 -0.15798,-0.059 -0.27398,-0.26891 -0.43796,-0.28091 -0.035,0 -0.055,0.031 -0.094,0.031 -0.065,0 -0.14698,-0.053 -0.21897,-0.063 -0.046,-0.01 -0.12899,0.013 -0.15598,0 -0.042,-0.02 -0.029,-0.10191 -0.063,-0.1249 -0.027,-0.0181 -0.084,-0.0149 -0.12499,-0.031 -0.066,-0.025 -0.11199,-0.056 -0.18798,-0.063 -0.0229,-7.3e-4 -0.067,0 -0.094,0 -0.042,-0.01 -0.086,-0.04 -0.12499,-0.063 -0.048,-0.029 -0.074,-0.052 -0.094,-0.094 0.044,-0.1439 -0.096,-0.1669 -0.12498,-0.2499 -0.014,-0.039 0.0131,-0.09 0,-0.1249 -0.017,-0.05 -0.0709,-0.084 -0.12499,-0.125 -0.097,-0.074 -0.17398,-0.13891 -0.31296,-0.1559 -0.061,-0.01 -0.14498,0 -0.21897,0 -0.078,-0.01 -0.16098,-0.058 -0.21897,-0.125 -0.056,-0.065 -0.076,-0.12491 -0.12499,-0.15591 -0.047,-0.03 -0.12399,-0.031 -0.15599,-0.0629 -0.014,-0.014 -0.017,-0.031 -0.031,-0.063 -0.023,-0.048 -0.061,-0.098 -0.031,-0.15601 -0.053,-0.0269 -0.0349,0.072 -0.094,0.063 -0.052,-0.074 -0.10099,-0.115 -0.21897,-0.094 -0.054,0.01 -0.093,0.06 -0.15599,0.063 -0.052,0 -0.088,-0.0531 -0.15598,-0.063 -0.052,-0.01 -0.11999,0.036 -0.15598,0.031 -0.057,-0.0109 -0.073,-0.059 -0.12498,-0.094 -0.038,-0.025 -0.10399,-0.095 -0.12499,-0.094 -0.067,0 -0.12598,0.14291 -0.21897,0.094 -0.0451,-0.0571 0.085,-0.071 0.031,-0.12501 -0.04,-0.041 -0.061,0.01 -0.094,0.031 -0.0371,0.025 -0.084,0.047 -0.12498,0.063 -0.092,0.034 -0.14699,0.025 -0.21899,0.063 -0.0659,0.034 -0.087,0.088 -0.12498,0.15601 -0.031,0.056 -0.079,0.1529 -0.12498,0.1559 -0.056,0 -0.10599,-0.072 -0.15599,-0.094 -0.15298,-0.066 -0.24796,0.03 -0.37495,0.031 -0.11799,0 -0.28696,-0.1709 -0.28096,-0.2808 0.004,-0.067 0.054,-0.166 0.0629,-0.2499 0.006,-0.066 0.0619,-0.127 0.063,-0.18791 7.3e-4,-0.081 -0.13499,-0.147 -0.18799,-0.156 -0.12498,-0.023 -0.29496,0.061 -0.43793,0 -0.027,-0.0451 0.047,-0.081 0.063,-0.1249 0.009,-0.025 -0.009,-0.034 0,-0.063 0.016,-0.0421 0.074,-0.08 0.094,-0.1249 0.015,-0.034 0.016,-0.082 0.031,-0.125 0.017,-0.049 0.059,-0.091 0.063,-0.1249 0.005,-0.0451 -0.027,-0.095 -0.063,-0.12501 -0.11099,0.01 -0.18697,0 -0.24997,0.031 -0.14398,0.066 -0.10598,0.2659 -0.24997,0.3129 -0.05,0.016 -0.13298,0.0211 -0.18798,0.031 -0.047,0.01 -0.10698,0.032 -0.15598,0.031 -0.058,-7.3e-4 -0.15297,-0.057 -0.18798,-0.094 -0.009,-0.01 -0.024,-0.036 -0.031,-0.063 0.002,-0.01 -0.002,-0.0211 0,-0.031 0.046,-0.22291 0.093,-0.44381 0.15598,-0.65572 0.003,-0.01 -0.003,-0.022 0,-0.031 0.042,-0.1389 0.10299,-0.26991 0.15598,-0.40581 0.013,-0.01 0.019,-0.023 0.031,-0.031 0.077,-0.053 0.15598,-0.1189 0.24997,-0.1249 0.057,0 0.16399,0.02 0.21898,0.031 0.05,0.01 0.082,0.059 0.12499,0.063 0.12297,0.01 0.14897,-0.1029 0.24997,-0.15591 0.10398,0.0149 0.15598,-0.01 0.24996,0 0.064,0.01 0.13799,0.09 0.18798,0.094 0.042,0 0.053,-0.069 0.094,-0.063 0.04,0.01 0.11899,0.1079 0.12499,0.1559 0.007,0.06 -0.048,0.12201 -0.031,0.1879 0.063,0.064 0.19096,0.056 0.28095,0.094 0.059,-0.048 0.009,-0.118 0,-0.18789 -0.002,-0.031 0.004,-0.066 0,-0.094 -0.006,-0.048 -0.0309,-0.084 -0.0309,-0.12489 -7.3e-4,-0.18991 0.15398,-0.29991 0.28096,-0.37492 0.055,-0.033 0.108,-0.069 0.15598,-0.094 0.067,-0.034 0.1,-0.0629 0.15599,-0.094 0.10099,-0.0571 0.20198,-0.092 0.28097,-0.15591 0.0371,-0.086 -0.004,-0.1959 0,-0.28089 0.0371,-0.022 0.055,0 0.094,0 0.061,-0.013 0.09,-0.091 0.12499,-0.12491 0.02,-0.02 0.0691,-0.043 0.094,-0.063 0.0611,-0.048 0.072,-0.10401 0.12499,-0.12501 0.0189,-0.01 0.064,-0.017 0.094,-0.031 0.04,-0.011 0.092,-0.04 0.15599,-0.063 0.0419,-0.014 0.13998,-0.0149 0.15598,-0.031 0.02,-0.02 -0.006,-0.095 0,-0.12491 0.032,-0.15099 0.27195,-0.16799 0.40595,-0.2189 0.094,-0.036 0.17798,-0.114 0.28096,-0.094 -0.02,0.072 -0.10998,0.038 -0.094,0.12491 0.023,0.121 0.17598,-0.0131 0.21898,-0.031 0.081,-0.034 0.23697,-0.055 0.34395,-0.094 0.094,-0.034 0.24498,-0.08 0.15598,-0.1879 -0.074,0 -0.092,0.066 -0.15598,0.094 -0.044,0.01 -0.056,-0.0269 -0.094,-0.031 -0.036,0 -0.057,0.038 -0.094,0.031 -0.037,-0.01 -0.088,-0.082 -0.094,-0.12489 -0.015,-0.11102 0.10999,-0.13601 0.15598,-0.21891 -0.0299,-0.101 -0.16598,-0.024 -0.24997,-0.063 0.009,-0.06 0.055,-0.1139 0.125,-0.12491 0.057,-0.01 0.18496,0.0101 0.21896,0.031 0.02,0.017 0,0.066 0.031,0.094 0.034,0.031 0.081,0.01 0.125,0 0.016,-0.076 -0.10599,-0.043 -0.094,-0.094 0.09,-0.059 0.26497,-0.016 0.37495,-0.031 0.063,-0.01 0.13098,-0.0619 0.18798,-0.094 0.054,-0.0299 0.099,-0.081 0.15598,-0.031 0.016,0.054 -0.032,0.066 -0.063,0.094 -0.10199,0.091 -0.20198,0.2069 -0.28097,0.3128 0.049,0.048 0.13598,0.022 0.21898,0.031 0.032,0 0.06,0.025 0.094,0.031 0.04,0.01 0.094,-0.012 0.12498,0 0.056,0.014 0.07,0.094 0.12499,0.094 0.091,0 0.083,-0.12499 0.031,-0.1879 0.016,-0.063 0.053,-0.08 0.031,-0.12499 -0.041,-0.082 -0.21096,0.014 -0.21896,-0.094 -0.005,-0.067 0.07,-0.075 0.094,-0.125 -0.0109,-0.1289 0.10598,-0.1349 0.094,-0.24991 -0.006,-0.048 -0.06,-0.049 -0.094,-0.094 -0.017,-0.0229 -0.0101,-0.076 -0.031,-0.094 -0.07,-0.059 -0.20997,-0.044 -0.21897,-0.15591 -0.004,-0.066 0.01,-0.11499 0,-0.1879 -0.009,-0.067 -0.066,-0.2679 -0.12498,-0.2809 -0.075,-0.016 -0.12899,0.11391 -0.21898,0.15591 -0.0491,0.023 -0.13898,0.04 -0.18798,0.031 -0.032,-0.01 -0.089,-0.032 -0.094,-0.094 -0.006,-0.0699 0.05,-0.082 0.063,-0.15579 -0.011,-0.044 -0.051,-0.0291 -0.094,-0.063 -0.0491,-0.0371 -0.091,-0.11591 -0.15599,-0.1249 -0.033,0 -0.093,0.0291 -0.12497,0.031 -0.06,0 -0.106,-0.015 -0.15599,-0.031 0.0211,-0.01 0.0411,-0.024 0.063,-0.031 0.12198,-0.042 0.24997,-0.059 0.37495,-0.094 0.022,-0.01 0.0411,-0.025 0.063,-0.031 0.031,0.033 0.056,0.10289 0.094,0.12489 0.025,0.014 0.063,-0.01 0.094,0 0.098,0.0301 0.17398,0.085 0.28097,0.063 0.0371,-0.065 -0.074,-0.074 -0.031,-0.125 0.072,0.01 0.13199,0.04 0.18799,0.063 0.077,-0.056 0.12798,-0.0659 0.12497,-0.1559 -7.2e-4,-0.046 -0.062,-0.063 -0.094,-0.094 0.063,-0.011 0.124,-0.022 0.18799,-0.031 0.005,0.017 0.021,0.03 0.0309,0.031 0.038,0.01 0.16498,-0.051 0.18798,-0.063 0.004,0 -0.006,-0.0269 0,-0.031 0.25296,-0.027 0.52094,-0.031 0.7809,-0.031 m -2.4997,0.4688 c -0.023,0.043 -0.047,0.079 -0.094,0.094 0.012,0.0651 -0.084,0.10491 -0.094,0.15581 -0.006,0.035 -0.002,0.094 0,0.125 0.02,0.31889 -0.25097,0.4768 -0.56294,0.4688 -0.061,0.058 -0.029,0.16991 -0.063,0.24991 -0.028,0.0669 -0.11998,0.13089 -0.18797,0.12489 -0.05,0 -0.12499,-0.079 -0.12499,-0.12489 0,-0.0571 0.081,-0.091 0.031,-0.156 0.007,-0.044 0.10599,-0.0861 0.094,-0.15591 -0.012,-0.074 -0.096,-0.019 -0.18798,-0.031 -0.052,-0.01 -0.13297,-0.037 -0.18797,-0.0629 0.10099,-0.067 0.20498,-0.126 0.31296,-0.18801 0.094,-0.056 0.18497,-0.10488 0.28097,-0.15589 0.25198,-0.1269 0.52193,-0.24381 0.78091,-0.34371 m 5.37435,0.7495 c -0.0269,0 -0.04,0.0181 -0.063,0.031 -0.051,0.031 -0.0541,0.079 -0.094,0.094 -0.054,0.021 -0.11699,0.01 -0.12499,0.063 -0.006,0.041 0.033,0.055 0.031,0.094 -0.02,0.0491 -0.053,0.066 -0.063,0.12489 0.068,0.11 0.22898,-0.01 0.31296,-0.031 0.038,-0.0109 0.073,0 0.094,-0.031 0.023,-0.035 0.013,-0.105 0.031,-0.156 0.019,-0.056 0.0691,-0.043 0.063,-0.094 -0.006,-0.05 -0.106,-0.102 -0.18797,-0.094 m -7.31214,0.7807 c 0.061,0.016 0.19598,0.19289 0.063,0.24991 -0.0131,0.01 -0.18699,0.036 -0.21899,0.031 -0.046,-0.01 -0.078,-0.086 -0.12499,-0.094 -0.092,-0.016 -0.21797,0.101 -0.28096,0 0.016,-0.059 0.086,-0.0429 0.15598,-0.063 0.12498,-0.034 0.29797,-0.1529 0.40595,-0.1249 m 0.24997,0.3128 c 0.031,0 0.056,0.059 0.094,0.063 0.036,0 0.072,-0.036 0.094,-0.031 0.056,0.015 0.084,0.115 0.031,0.15601 -0.044,0 -0.061,-0.0371 -0.094,-0.031 -0.091,0.016 -0.11999,0.19291 -0.18798,0.1879 -0.064,-0.01 -0.096,-0.14089 -0.031,-0.1879 0.002,-0.04 -0.033,-0.054 -0.031,-0.094 0.02,-0.025 0.072,-0.066 0.12499,-0.063 m -0.31296,0.031 c 0.019,7.3e-4 0.024,0 0.031,0 -0.009,0.071 -0.0389,0.091 -0.094,0.12501 -0.095,0.057 -0.15698,0.1279 -0.18796,0.2499 -0.009,0.036 -0.111,0.1339 -0.15598,0.1249 -0.106,-0.022 0.038,-0.21991 0.063,-0.24991 0.027,-0.033 0.062,-0.056 0.094,-0.094 0.0299,-0.037 0.033,-0.105 0.063,-0.125 0.032,-0.022 0.13199,-0.033 0.18797,-0.031 m 9.49889,0.031 c 0.048,0.013 0.058,0.069 0.094,0.094 0.027,0.018 0.064,0.012 0.094,0.031 0.0349,0.0221 0.054,0.06 0.094,0.094 0.056,0.047 0.13998,0.088 0.21896,0.12501 0.016,0.01 0.044,0.0229 0.063,0.031 0.055,0.071 0.10399,0.1449 0.15597,0.2189 0.006,0.04 0.012,0.099 0.031,0.12491 0.052,0.0709 0.13099,0.1319 0.18798,0.21889 -7.3e-4,0.083 0.036,0.13301 0.094,0.1559 0.073,0.124 0.14899,0.24791 0.21897,0.3748 0.029,0.058 0.035,0.12891 0.063,0.1879 -0.021,0 -0.043,0.01 -0.063,0 -0.066,-0.116 -0.40895,-0.13889 -0.43795,0.031 -0.013,0.075 0.0491,0.1749 -0.063,0.1879 -0.071,0.01 -0.15298,-0.073 -0.24998,-0.094 -0.04,-0.01 -0.094,0.014 -0.12497,0 -0.073,-0.025 -0.062,-0.1119 -0.12498,-0.1559 -0.036,-0.025 -0.13,-0.056 -0.18798,-0.063 -0.036,0 -0.056,0 -0.094,0 -0.045,-0.01 -0.11799,-0.01 -0.15598,-0.031 -0.036,-0.022 -0.116,-0.0619 -0.12499,-0.094 -0.014,-0.049 0.09,-0.11389 0.094,-0.15579 0.002,-0.031 -0.0229,-0.0451 -0.031,-0.094 -0.005,-0.029 0.006,-0.074 0,-0.094 -0.01,-0.034 -0.071,-0.062 -0.125,-0.063 -0.048,0 -0.084,0.0299 -0.12497,0.031 -0.0589,7.2e-4 -0.17699,-0.0371 -0.24997,-0.031 -0.044,0 -0.084,0.028 -0.12499,0.031 -0.11598,0.01 -0.19098,-0.01 -0.28097,0 -0.066,0 -0.18898,0.034 -0.24997,0.063 -0.031,0.014 -0.054,0.043 -0.094,0.063 -0.0179,0.01 -0.039,0.021 -0.063,0.031 -0.038,0.017 -0.089,0.0531 -0.12499,0.063 -0.052,0.013 -0.12399,0 -0.21898,0 -0.068,0 -0.18697,-0.014 -0.18796,-0.094 -7.3e-4,-0.12291 0.22696,-0.072 0.34396,-0.094 0.044,-0.01 0.073,-0.063 0.12498,-0.094 0.025,-0.0149 0.0389,-0.0149 0.0629,-0.031 0.04,-0.028 0.11898,-0.093 0.12498,-0.1249 0.006,-0.0299 -0.035,-0.072 -0.031,-0.094 0.005,-0.028 0.0571,-0.058 0.094,-0.094 0.056,-0.055 0.087,-0.11991 0.15597,-0.1559 0.047,-0.025 0.135,-0.024 0.156,-0.063 0.005,-0.043 -7.3e-4,-0.055 0,-0.094 0.029,-0.027 0.038,-0.058 0.0629,-0.063 0.072,-0.016 0.13499,0.035 0.21899,0.031 0.036,0 0.0859,-0.01 0.12497,-0.031 0.033,-0.022 0.0619,-0.045 0.094,-0.063 0.0349,-0.018 0.0509,-0.059 0.094,-0.063 0.10499,-0.01 0.17099,0.1239 0.21898,0.1879 0.04,0.0531 0.15299,0.1189 0.21898,0.1559 0.0371,0.0211 0.084,0.0451 0.12498,0.063 0.087,0.039 0.24697,0.1649 0.24997,0.2499 0.002,0.042 -0.038,0.054 -0.031,0.094 0.0661,0.011 0.12299,-0.059 0.12499,-0.12491 7.3e-4,-0.0411 -0.0389,-0.05 -0.031,-0.094 0.031,-0.066 0.14798,-0.01 0.18798,-0.031 -0.007,-0.075 -0.12398,-0.086 -0.18798,-0.1249 -0.034,-0.021 -0.058,-0.048 -0.094,-0.063 -0.052,-0.021 -0.11597,-0.032 -0.15597,-0.063 -0.038,-0.029 -0.057,-0.08 -0.094,-0.12491 -0.054,-0.064 -0.15798,-0.073 -0.12498,-0.2189 0.016,-0.022 0.0371,-0.069 0.063,-0.063 m -8.81196,0.2189 0.094,0 c 0.034,7.3e-4 0.08,-0.018 0.094,0 -0.022,0.088 -0.21197,0.063 -0.28097,0.031 0.004,-0.033 0.05,-0.0269 0.094,-0.031 m -0.31295,0.156 c 0.023,0 0.039,-0.01 0.063,0 -0.062,0.052 -0.14398,0.092 -0.24997,0.1249 -0.051,0.016 -0.11599,0.025 -0.12498,-0.031 -0.011,-0.069 0.047,-0.056 0.094,-0.063 0.058,-0.01 0.14999,-0.029 0.21897,-0.031 m 8.68698,0 c -0.0429,0.014 -0.0661,0.11291 0,0.12491 0.031,-0.018 0.039,-0.068 0.031,-0.12491 -0.0171,-0.0179 -0.0171,0 -0.031,0 m -0.031,0.1879 c -0.021,0.01 -0.04,0.01 -0.063,0.031 7.3e-4,0.075 0.015,0.1229 0,0.18791 0.043,0.082 0.13398,0.026 0.15598,-0.031 0.026,-0.1389 -0.03,-0.2049 -0.094,-0.1879 m 0.43795,0.37481 c 0.049,0.08 0.14098,0.13699 0.24997,0.1559 0.04,-0.03 0.044,-0.10491 0.063,-0.1559 -0.047,7.3e-4 -0.097,0 -0.15598,0 -0.0589,0 -0.12198,-0.028 -0.15598,0 m -11.68662,2.68672 c 0.16399,-0.01 0.21198,0.2159 0.34396,0.28089 0.033,0.017 0.082,0.0221 0.12499,0.031 0.035,0.01 0.0611,0.02 0.094,0.031 0.071,0.024 0.16198,0.01 0.21898,0.031 0.085,0.038 0.14598,0.2069 0.21896,0.2499 0.004,0.043 -0.013,0.093 0,0.12491 0.035,0.047 0.099,0.064 0.15599,0.094 0.068,0.0371 0.092,0.1269 0.15598,0.15591 0.022,0.01 0.059,-0.01 0.094,0 0.088,0.0269 0.112,0.1468 0.18798,0.1248 0.0499,-0.014 0.055,-0.078 0.063,-0.1248 0.033,-0.036 0.074,-0.093 0.12498,-0.094 0.083,0 0.095,0.075 0.12498,0.15589 0.017,0.046 0.051,0.1079 0.063,0.1559 0.021,0.083 0.017,0.32491 0,0.37481 -0.021,0.061 -0.106,0.089 -0.15598,0.156 -0.024,0.031 -0.044,0.071 -0.063,0.094 -0.032,0.04 -0.069,0.057 -0.094,0.094 -0.014,0.021 -0.018,0.066 -0.031,0.094 -0.04,0.085 -0.096,0.148 -0.063,0.2499 0.014,0.042 0.062,0.076 0.063,0.125 0,0.058 -0.11499,0.093 -0.12499,0.1559 -0.007,0.047 0.048,0.126 0.063,0.1879 0.0109,0.047 0.097,0.094 0.12496,0.12501 0.047,0.0531 0.0821,0.1209 0.125,0.1879 0.085,0.1299 0.13599,0.2799 0.21897,0.4058 0.043,0.066 0.12698,0.119 0.15599,0.18791 0.0149,0.035 -0.014,0.094 0,0.12499 0.048,0.1079 0.26597,0.2279 0.37494,0.28091 0.051,0.025 0.10999,0 0.15599,0.031 0.071,0.039 0.21399,0.15691 0.24997,0.2189 0.032,0.056 0.047,0.1929 0.063,0.2808 0.021,0.11701 -0.005,0.2169 0,0.34391 0.004,0.069 0.0299,0.11889 0.0309,0.18789 0,0.024 7.3e-4,0.07 0,0.094 -0.002,0.083 0.007,0.1659 0,0.2498 -0.004,0.046 -0.003,0.087 0,0.125 0.004,0.0411 0.028,0.0571 0.031,0.094 0.002,0.0389 -0.035,0.095 -0.031,0.125 0.009,0.084 0.077,0.1419 0.094,0.21891 0.0131,0.0611 0.039,0.2079 0.031,0.28089 -0.005,0.039 -0.0251,0.083 -0.031,0.12491 -0.004,0.033 0.005,0.062 0,0.094 -0.006,0.047 -0.034,0.081 -0.0309,0.1249 0.006,0.09 0.08,0.15999 0.094,0.24991 0.005,0.03 -7.3e-4,0.065 0,0.094 7.3e-4,0.0269 0.023,0.038 0.031,0.0629 -0.26298,-0.14989 -0.50895,-0.3178 -0.74992,-0.4997 -0.22897,-0.173 -0.45094,-0.36391 -0.65593,-0.5628 -0.01,-0.01 -0.021,-0.0211 -0.031,-0.031 -0.20699,-0.20391 -0.41395,-0.42781 -0.59393,-0.65571 -0.10399,-0.1319 -0.21798,-0.2669 -0.31297,-0.4058 -0.056,-0.083 -0.10399,-0.1639 -0.15598,-0.24991 -0.032,-0.051 -0.063,-0.10399 -0.094,-0.15589 -0.089,-0.153 -0.17298,-0.3078 -0.24997,-0.46871 -0.0491,-0.10099 -0.081,-0.2079 -0.12499,-0.31289 -0.10499,-0.2479 -0.20497,-0.48881 -0.28096,-0.74971 -0.054,-0.1849 -0.086,-0.3708 -0.12499,-0.56271 -0.03,-0.146 -0.073,-0.2889 -0.094,-0.4378 -0.011,-0.081 -0.023,-0.168 -0.031,-0.2499 -0.024,-0.23491 -0.031,-0.47681 -0.031,-0.71861 0,-0.3019 0.026,-0.5837 0.0629,-0.8746 7.3e-4,-0.01 -7.2e-4,-0.021 0,-0.031 0.063,0 0.14899,-0.092 0.21898,-0.094 m 2.68768,0.74971 c 0.064,-0.029 0.084,0.11699 0.031,0.12499 -0.05,0.01 -0.08,-0.102 -0.031,-0.12499"
       inkscape:connector-curvature="0"
       style="color:#000000;fill:#4d4d4d;fill-opacity:1" />
    <rect
       style="fill:#4d4d4d;fill-opacity:1;stroke:none"
       id="rect4035-8"
       width="0"
       height="10.999983"
       x="388.71515"
       y="535.0567" />
    <rect
       style="fill:#4d4d4d;fill-opacity:1;stroke:none"
       id="rect4035-0"
       width="0"
       height="10.999983"
       x="390.08517"
       y="534.26123" />
  </g>
</svg>
