<?xml version="1.0" encoding="UTF-8" standalone="no"?>
<!-- Created with Inkscape (http://www.inkscape.org/) -->

<svg
   xmlns:dc="http://purl.org/dc/elements/1.1/"
   xmlns:cc="http://creativecommons.org/ns#"
   xmlns:rdf="http://www.w3.org/1999/02/22-rdf-syntax-ns#"
   xmlns:svg="http://www.w3.org/2000/svg"
   xmlns="http://www.w3.org/2000/svg"
   xmlns:sodipodi="http://sodipodi.sourceforge.net/DTD/sodipodi-0.dtd"
   xmlns:inkscape="http://www.inkscape.org/namespaces/inkscape"
   width="22"
   height="22"
   id="svg2"
   version="1.1"
   inkscape:version="0.91 r13725"
   viewBox="0 0 22 22"
   sodipodi:docname="text_line_spacing.svg">
  <defs
     id="defs4" />
  <sodipodi:namedview
     id="base"
     pagecolor="#ffffff"
     bordercolor="#666666"
     borderopacity="1.0"
     inkscape:pageopacity="0.0"
     inkscape:pageshadow="2"
     inkscape:zoom="11.909091"
     inkscape:cx="7.1223559"
     inkscape:cy="6.9399133"
     inkscape:document-units="px"
     inkscape:current-layer="layer1-9"
     showgrid="true"
     inkscape:showpageshadow="false"
     borderlayer="true"
     inkscape:window-width="1366"
     inkscape:window-height="630"
     inkscape:window-x="0"
     inkscape:window-y="36"
     inkscape:window-maximized="1"
     units="px"
     fit-margin-top="0"
     fit-margin-left="0"
     fit-margin-right="0"
     fit-margin-bottom="0"
     inkscape:object-nodes="true"
     inkscape:snap-bbox="true">
    <sodipodi:guide
       position="4,20"
       orientation="16,0"
       id="guide4093" />
    <sodipodi:guide
       position="4,4"
       orientation="0,16"
       id="guide4095" />
    <sodipodi:guide
       position="20,4"
       orientation="-16,0"
       id="guide4097" />
    <sodipodi:guide
       position="20,20"
       orientation="0,-16"
       id="guide4099" />
    <inkscape:grid
       type="xygrid"
       id="grid4101"
       originx="1px"
       originy="0.99998262px" />
    <sodipodi:guide
       position="4,20"
       orientation="16,0"
       id="guide4123" />
    <sodipodi:guide
       position="4,4"
       orientation="0,2.000001"
       id="guide4125" />
    <sodipodi:guide
       position="6.000001,20"
       orientation="0,-2.000001"
       id="guide4129" />
    <sodipodi:guide
       position="18,4"
       orientation="0,2"
       id="guide4133" />
    <sodipodi:guide
       position="20,4"
       orientation="-16,0"
       id="guide4135" />
    <sodipodi:guide
       position="20,20"
       orientation="0,-2"
       id="guide4137" />
  </sodipodi:namedview>
  <metadata
     id="metadata7">
    <rdf:RDF>
      <cc:Work
         rdf:about="">
        <dc:format>image/svg+xml</dc:format>
        <dc:type
           rdf:resource="http://purl.org/dc/dcmitype/StillImage" />
        <dc:title></dc:title>
      </cc:Work>
    </rdf:RDF>
  </metadata>
  <g
     inkscape:label="Capa 1"
     inkscape:groupmode="layer"
     id="layer1"
     transform="translate(1,-1031.3622)">
    <g
       transform="translate(-1,1.738e-5)"
       id="layer1-9"
       inkscape:label="Capa 1">
      <g
         id="g4150"
         transform="matrix(1.125,0,0,1.125,-2.5,-129.17029)">
        <g
           inkscape:label="Capa 1"
           id="layer1-8"
           transform="translate(1,-1)">
          <path
             sodipodi:nodetypes="ccccccccccccccccc"
             inkscape:connector-curvature="0"
             style="opacity:1;fill:#1d99f3;fill-opacity:1;stroke:none"
             d="m 16,1034.3622 -3,4 2,0 0,1 0,5 0,2 0,0 -2,0 3,4 3,-4 -2,0 0,-3 0,-1 0,-3 0,-1 2,0 z"
             id="path4172" />
          <g
             id="layer1-9-3"
             inkscape:label="Capa 1"
             transform="matrix(-1,0,0,1,22,0)">
            <g
               transform="matrix(-1,0,0,1,22,0)"
               inkscape:label="Capa 1"
               id="layer1-2">
              <path
                 inkscape:connector-curvature="0"
                 style="opacity:1;fill:#4d4d4d;fill-opacity:1;stroke:none"
                 d="m 3,1034.3622 0,1 9,0 0,-1 z m 0,2 0,1 8,0 0,-1 z m 0,3 0,1 9,0 0,-1 z m 0,2 0,1 4,0 0,-1 z m 0,3 0,1 9,0 0,-1 z m 0,2 0,1 6,0 0,-1 z m 7,1 0,1 2,0 0,-1 z"
                 id="path4174"
                 sodipodi:nodetypes="ccccccccccccccccccccccccccccccccccc" />
            </g>
          </g>
        </g>
      </g>
    </g>
  </g>
</svg>
