<?xml version="1.0" encoding="UTF-8" standalone="no"?>
<!-- Created with Inkscape (http://www.inkscape.org/) -->

<svg
   xmlns:osb="http://www.openswatchbook.org/uri/2009/osb"
   xmlns:dc="http://purl.org/dc/elements/1.1/"
   xmlns:cc="http://creativecommons.org/ns#"
   xmlns:rdf="http://www.w3.org/1999/02/22-rdf-syntax-ns#"
   xmlns:svg="http://www.w3.org/2000/svg"
   xmlns="http://www.w3.org/2000/svg"
   xmlns:xlink="http://www.w3.org/1999/xlink"
   xmlns:sodipodi="http://sodipodi.sourceforge.net/DTD/sodipodi-0.dtd"
   xmlns:inkscape="http://www.inkscape.org/namespaces/inkscape"
   width="22"
   height="22"
   id="svg3869"
   version="1.1"
   inkscape:version="0.91 r13725"
   sodipodi:docname="tools-wizard.svg">
  <defs
     id="defs3871">
    <inkscape:perspective
       sodipodi:type="inkscape:persp3d"
       inkscape:vp_x="0 : 12 : 1"
       inkscape:vp_y="0 : 1000 : 0"
       inkscape:vp_z="24 : 12 : 1"
       inkscape:persp3d-origin="12 : 8 : 1"
       id="perspective4146" />
    <inkscape:perspective
       sodipodi:type="inkscape:persp3d"
       inkscape:vp_x="0 : 12 : 1"
       inkscape:vp_y="0 : 1000 : 0"
       inkscape:vp_z="24 : 12 : 1"
       inkscape:persp3d-origin="12 : 8 : 1"
       id="perspective4090" />
    <clipPath
       clipPathUnits="userSpaceOnUse"
       id="clipPath4160">
      <rect
         style="opacity:1;fill:#f2f2f2;fill-opacity:1;stroke:none;stroke-opacity:1"
         id="rect4162"
         width="1"
         height="1"
         x="7"
         y="1023.3622" />
    </clipPath>
    <clipPath
       clipPathUnits="userSpaceOnUse"
       id="clipPath4160-4">
      <rect
         style="opacity:1;fill:#f2f2f2;fill-opacity:1;stroke:none;stroke-opacity:1"
         id="rect4162-9"
         width="1"
         height="1"
         x="7"
         y="1023.3622" />
    </clipPath>
    <clipPath
       clipPathUnits="userSpaceOnUse"
       id="clipPath4160-3">
      <rect
         style="opacity:1;fill:#f2f2f2;fill-opacity:1;stroke:none;stroke-opacity:1"
         id="rect4162-0"
         width="1"
         height="1"
         x="7"
         y="1023.3622" />
    </clipPath>
    <linearGradient
       id="linearGradient4012"
       inkscape:collect="always">
      <stop
         id="stop4014"
         offset="0"
         style="stop-color:#1d99f3;stop-opacity:1" />
      <stop
         style="stop-color:#48acf5;stop-opacity:0.76119405"
         offset="0.41666669"
         id="stop4016" />
      <stop
         style="stop-color:#73c0f7;stop-opacity:0"
         offset="0.66666329"
         id="stop4018" />
      <stop
         id="stop4020"
         offset="1"
         style="stop-color:#cae7fc;stop-opacity:0" />
    </linearGradient>
    <inkscape:perspective
       id="perspective4090-1"
       inkscape:persp3d-origin="12 : 8 : 1"
       inkscape:vp_z="24 : 12 : 1"
       inkscape:vp_y="0 : 1000 : 0"
       inkscape:vp_x="0 : 12 : 1"
       sodipodi:type="inkscape:persp3d" />
    <linearGradient
       inkscape:collect="always"
       xlink:href="#linearGradient4012"
       id="linearGradient4164"
       x1="3"
       y1="1049.3622"
       x2="19"
       y2="1033.3622"
       gradientUnits="userSpaceOnUse"
       gradientTransform="matrix(0.75,0,0,0.75,1.7499999,269.34054)" />
    <linearGradient
       inkscape:collect="always"
       xlink:href="#linearGradient4012"
       id="linearGradient3983"
       gradientUnits="userSpaceOnUse"
       gradientTransform="matrix(0.75,0,0,0.75,2.7499999,262.34058)"
       x1="3"
       y1="1049.3622"
       x2="24.333334"
       y2="1028.0288" />
    <linearGradient
       y2="1028.0288"
       x2="24.333334"
       y1="1049.3622"
       x1="3"
       gradientTransform="matrix(0.75,0,0,0.75,3.7499999,-767.02162)"
       gradientUnits="userSpaceOnUse"
       id="linearGradient4007"
       xlink:href="#linearGradient4012"
       inkscape:collect="always" />
    <linearGradient
       inkscape:collect="always"
       xlink:href="#linearGradient4012"
       id="linearGradient4164-76"
       x1="3"
       y1="1049.3622"
       x2="19"
       y2="1033.3622"
       gradientUnits="userSpaceOnUse"
       gradientTransform="matrix(0.75,0,0,0.75,3.7499999,-769.02166)" />
    <inkscape:perspective
       id="perspective4146-0"
       inkscape:persp3d-origin="12 : 8 : 1"
       inkscape:vp_z="24 : 12 : 1"
       inkscape:vp_y="0 : 1000 : 0"
       inkscape:vp_x="0 : 12 : 1"
       sodipodi:type="inkscape:persp3d" />
    <inkscape:perspective
       id="perspective4090-6"
       inkscape:persp3d-origin="12 : 8 : 1"
       inkscape:vp_z="24 : 12 : 1"
       inkscape:vp_y="0 : 1000 : 0"
       inkscape:vp_x="0 : 12 : 1"
       sodipodi:type="inkscape:persp3d" />
    <linearGradient
       osb:paint="gradient"
       id="linearGradient4207">
      <stop
         id="stop3371"
         offset="0"
         style="stop-color:#3498db;stop-opacity:1;" />
      <stop
         id="stop3373"
         offset="1"
         style="stop-color:#3498db;stop-opacity:0;" />
    </linearGradient>
  </defs>
  <sodipodi:namedview
     id="base"
     pagecolor="#ffffff"
     bordercolor="#666666"
     borderopacity="1.0"
     inkscape:pageopacity="0.0"
     inkscape:pageshadow="2"
     inkscape:zoom="15.999999"
     inkscape:cx="-10.777079"
     inkscape:cy="11.561477"
     inkscape:document-units="px"
     inkscape:current-layer="layer1"
     showgrid="true"
     fit-margin-top="0"
     fit-margin-left="0"
     fit-margin-right="0"
     fit-margin-bottom="0"
     inkscape:window-width="1366"
     inkscape:window-height="630"
     inkscape:window-x="0"
     inkscape:window-y="36"
     inkscape:window-maximized="1"
     inkscape:showpageshadow="false"
     inkscape:object-nodes="true"
     inkscape:snap-bbox="true">
    <inkscape:grid
       type="xygrid"
       id="grid4132" />
    <sodipodi:guide
       position="4,18"
       orientation="18,0"
       id="guide4138" />
    <sodipodi:guide
       position="5,3"
       orientation="0,18"
       id="guide4140" />
    <sodipodi:guide
       position="20,2.0000174"
       orientation="-18,0"
       id="guide4142" />
    <sodipodi:guide
       position="2,21"
       orientation="0,-18"
       id="guide4144" />
    <sodipodi:guide
       position="3,19.000017"
       orientation="16,0"
       id="guide4146" />
    <sodipodi:guide
       position="2,4"
       orientation="0,16"
       id="guide4148" />
    <sodipodi:guide
       position="21,20"
       orientation="-16,0"
       id="guide4150" />
    <sodipodi:guide
       position="2,20"
       orientation="0,-16"
       id="guide4152" />
  </sodipodi:namedview>
  <metadata
     id="metadata3874">
    <rdf:RDF>
      <cc:Work
         rdf:about="">
        <dc:format>image/svg+xml</dc:format>
        <dc:type
           rdf:resource="http://purl.org/dc/dcmitype/StillImage" />
        <dc:title />
      </cc:Work>
    </rdf:RDF>
  </metadata>
  <g
     inkscape:label="Capa 1"
     inkscape:groupmode="layer"
     id="layer1"
     transform="translate(-326,-534.3622)">
    <g
       transform="matrix(0.67079479,0,0,0.66666664,68.298772,190.83021)"
       id="layer1-74"
       inkscape:label="Capa 1">
      <g
         style="fill:#4d4d4d;fill-opacity:1"
         transform="matrix(0.05484794,0,0,0.05467706,388.53397,519.798)"
         id="g3">
        <g
           style="fill:#4d4d4d;fill-opacity:1"
           id="g5">
          <g
             style="fill:#4d4d4d;fill-opacity:1"
             id="Layer_5_56_">
            <g
               style="fill:#4d4d4d;fill-opacity:1"
               id="g8">
              <g
                 style="fill:#4d4d4d;fill-opacity:1"
                 id="g10">
                <g
                   style="fill:#4d4d4d;fill-opacity:1"
                   id="g12">
                  <path
                     style="fill:#4d4d4d;fill-opacity:1"
                     inkscape:connector-curvature="0"
                     id="path14"
                     d="m 264.407,48.53 c 4.334,-3.385 7.922,-1.652 7.972,3.848 l 0.562,64.615 c 0.046,5.5 3.815,12.518 8.373,15.597 l 53.548,36.167 c 4.56,3.078 4.021,7.025 -1.194,8.77 l -61.276,20.504 c -5.218,1.744 -10.729,7.498 -12.246,12.783 l -17.851,62.104 c -1.521,5.286 -5.439,5.993 -8.711,1.571 l -38.438,-51.942 c -3.271,-4.421 -10.445,-7.885 -15.942,-7.695 l -64.579,2.217 c -5.498,0.188 -7.381,-3.322 -4.188,-7.799 l 37.523,-52.607 c 3.194,-4.478 4.27,-12.371 2.393,-17.541 L 128.29,78.39 c -1.879,-5.169 0.877,-8.045 6.122,-6.393 l 61.626,19.431 c 5.246,1.654 13.087,0.239 17.421,-3.145 L 264.407,48.53 Z" />
                  <path
                     style="fill:#4d4d4d;fill-opacity:1"
                     inkscape:connector-curvature="0"
                     id="path16"
                     d="m 280.698,4.524 c 1.922,-3.979 6.703,-5.647 10.685,-3.727 l 0,0 c 3.979,1.92 5.646,6.703 3.727,10.682 l -7.827,16.211 c -1.92,3.979 -6.702,5.647 -10.682,3.728 l 0,0 c -3.979,-1.92 -5.647,-6.703 -3.727,-10.682 l 7.824,-16.212 z" />
                </g>
                <g
                   style="fill:#4d4d4d;fill-opacity:1"
                   id="g18">
                  <path
                     style="fill:#4d4d4d;fill-opacity:1"
                     inkscape:connector-curvature="0"
                     id="path20"
                     d="m 93.899,168.534 c -4.294,1.042 -8.618,-1.589 -9.665,-5.884 l 0,0 c -1.042,-4.293 1.59,-8.62 5.882,-9.664 l 17.492,-4.253 c 4.293,-1.045 8.621,1.588 9.664,5.881 l 0,0 c 1.043,4.294 -1.589,8.62 -5.883,9.665 l -17.49,4.255 z" />
                  <path
                     style="fill:#4d4d4d;fill-opacity:1"
                     inkscape:connector-curvature="0"
                     id="path22"
                     d="m 149.993,29.229 c -2.031,-3.925 -0.499,-8.75 3.424,-10.783 l 0,0 c 3.925,-2.031 8.751,-0.5 10.784,3.422 l 8.279,15.986 c 2.03,3.922 0.499,8.75 -3.423,10.781 l 0,0 c -3.924,2.032 -8.752,0.5 -10.784,-3.424 l -8.28,-15.982 z" />
                </g>
                <g
                   style="fill:#4d4d4d;fill-opacity:1"
                   id="g24">
                  <path
                     style="fill:#4d4d4d;fill-opacity:1"
                     inkscape:connector-curvature="0"
                     id="path26"
                     d="m 286.278,261.398 c 1.854,4.011 6.604,5.76 10.618,3.907 l 0,0 c 4.01,-1.854 5.763,-6.606 3.908,-10.616 l -7.552,-16.343 c -1.854,-4.011 -6.604,-5.762 -10.615,-3.907 l 0,0 c -4.011,1.854 -5.761,6.605 -3.908,10.616 l 7.549,16.343 z" />
                  <path
                     style="fill:#4d4d4d;fill-opacity:1"
                     inkscape:connector-curvature="0"
                     id="path28"
                     d="m 360.459,130.824 c 4.335,-0.851 7.16,-5.053 6.312,-9.389 l 0,0 c -0.852,-4.336 -5.053,-7.164 -9.389,-6.314 l -17.665,3.462 c -4.337,0.849 -7.163,5.051 -6.314,9.386 l 0,0 c 0.853,4.336 5.054,7.164 9.392,6.313 l 17.664,-3.458 z" />
                </g>
              </g>
              <path
                 style="fill:#4d4d4d;fill-opacity:1"
                 inkscape:connector-curvature="0"
                 id="path30"
                 d="m 99.487,434.422 c -1.912,3.963 -6.72,5.641 -10.682,3.728 l -12.269,-5.923 c -3.962,-1.911 -5.64,-6.719 -3.727,-10.682 l 89.863,-186.162 c 1.913,-3.963 6.721,-5.641 10.683,-3.728 l 12.27,5.922 c 3.961,1.912 5.64,6.72 3.727,10.683 L 99.487,434.422 Z" />
            </g>
          </g>
        </g>
      </g>
      <g
         id="g4186"
         transform="translate(401.47161,501.19805)">
        <g
           id="g4307"
           transform="translate(0,0.26550102)">
          <g
             transform="matrix(0.81954967,0,0,0.81954967,-4.5342895,10.821732)"
             id="text4161"
             style="font-style:normal;font-weight:normal;font-size:9.36996746px;line-height:125%;font-family:sans-serif;letter-spacing:0px;word-spacing:0px;fill:#ffffff;fill-opacity:1;stroke:none;stroke-width:1px;stroke-linecap:butt;stroke-linejoin:miter;stroke-opacity:1" />
          <g
             transform="translate(-456.5109,-510.83645)"
             id="layer1-0"
             inkscape:label="Capa 1"
             inkscape:transform-center-x="5.4653607"
             inkscape:transform-center-y="-9.4924686" />
        </g>
      </g>
    </g>
  </g>
</svg>
