<?xml version="1.0" encoding="UTF-8" standalone="no"?>
<!-- Created with Inkscape (http://www.inkscape.org/) -->

<svg
   xmlns:dc="http://purl.org/dc/elements/1.1/"
   xmlns:cc="http://creativecommons.org/ns#"
   xmlns:rdf="http://www.w3.org/1999/02/22-rdf-syntax-ns#"
   xmlns:svg="http://www.w3.org/2000/svg"
   xmlns="http://www.w3.org/2000/svg"
   xmlns:sodipodi="http://sodipodi.sourceforge.net/DTD/sodipodi-0.dtd"
   xmlns:inkscape="http://www.inkscape.org/namespaces/inkscape"
   width="22"
   height="22"
   id="svg3869"
   version="1.1"
   inkscape:version="0.91 r13725"
   sodipodi:docname="tools-report-bug.svg">
  <defs
     id="defs3871">
    <linearGradient
       id="linearGradient4290-48">
      <stop
         id="stop4292-0"
         offset="0"
         style="stop-color:#a5a5a5;stop-opacity:1;" />
      <stop
         id="stop4294-0"
         offset="1"
         style="stop-color:#f5f2f5;stop-opacity:1;" />
    </linearGradient>
    <inkscape:perspective
       id="perspective4146-9"
       inkscape:persp3d-origin="12 : 8 : 1"
       inkscape:vp_z="24 : 12 : 1"
       inkscape:vp_y="0 : 1000 : 0"
       inkscape:vp_x="0 : 12 : 1"
       sodipodi:type="inkscape:persp3d" />
    <inkscape:perspective
       id="perspective4146"
       inkscape:persp3d-origin="12 : 8 : 1"
       inkscape:vp_z="24 : 12 : 1"
       inkscape:vp_y="0 : 1000 : 0"
       inkscape:vp_x="0 : 12 : 1"
       sodipodi:type="inkscape:persp3d" />
    <inkscape:perspective
       sodipodi:type="inkscape:persp3d"
       inkscape:vp_x="0 : 12 : 1"
       inkscape:vp_y="0 : 1000 : 0"
       inkscape:vp_z="24 : 12 : 1"
       inkscape:persp3d-origin="12 : 8 : 1"
       id="perspective4146-9-1" />
    <inkscape:perspective
       sodipodi:type="inkscape:persp3d"
       inkscape:vp_x="0 : 12 : 1"
       inkscape:vp_y="0 : 1000 : 0"
       inkscape:vp_z="24 : 12 : 1"
       inkscape:persp3d-origin="12 : 8 : 1"
       id="perspective4146-96" />
  </defs>
  <sodipodi:namedview
     id="base"
     pagecolor="#ffffff"
     bordercolor="#666666"
     borderopacity="1.0"
     inkscape:pageopacity="0.0"
     inkscape:pageshadow="2"
     inkscape:zoom="7.9999997"
     inkscape:cx="-12.626882"
     inkscape:cy="13.436663"
     inkscape:document-units="px"
     inkscape:current-layer="layer1"
     showgrid="true"
     fit-margin-top="0"
     fit-margin-left="0"
     fit-margin-right="0"
     fit-margin-bottom="0"
     inkscape:window-width="1366"
     inkscape:window-height="633"
     inkscape:window-x="0"
     inkscape:window-y="33"
     inkscape:window-maximized="1"
     inkscape:showpageshadow="false"
     inkscape:snap-bbox="true"
     inkscape:object-nodes="true">
    <inkscape:grid
       type="xygrid"
       id="grid4132" />
    <sodipodi:guide
       position="4,18"
       orientation="18,0"
       id="guide4138" />
    <sodipodi:guide
       position="5,3"
       orientation="0,18"
       id="guide4140" />
    <sodipodi:guide
       position="20,2.0000174"
       orientation="-18,0"
       id="guide4142" />
    <sodipodi:guide
       position="2,21"
       orientation="0,-18"
       id="guide4144" />
    <sodipodi:guide
       position="3,19.000017"
       orientation="16,0"
       id="guide4146" />
    <sodipodi:guide
       position="2,4"
       orientation="0,16"
       id="guide4148" />
    <sodipodi:guide
       position="21,20"
       orientation="-16,0"
       id="guide4150" />
    <sodipodi:guide
       position="2,20"
       orientation="0,-16"
       id="guide4152" />
  </sodipodi:namedview>
  <metadata
     id="metadata3874">
    <rdf:RDF>
      <cc:Work
         rdf:about="">
        <dc:format>image/svg+xml</dc:format>
        <dc:type
           rdf:resource="http://purl.org/dc/dcmitype/StillImage" />
        <dc:title />
      </cc:Work>
    </rdf:RDF>
  </metadata>
  <g
     inkscape:label="Capa 1"
     inkscape:groupmode="layer"
     id="layer1"
     transform="translate(-326,-534.3622)">
    <g
       id="g4154"
       transform="translate(-0.99999953,0.99999523)">
      <g
         inkscape:label="Capa 1"
         id="layer1-4"
         transform="translate(326.987,-496.88218)">
        <path
           style="opacity:1;fill:#4d4d4d;fill-opacity:1;fill-rule:evenodd;stroke:#4d4d4d;stroke-width:0.6849122;stroke-linecap:round;stroke-linejoin:miter;stroke-miterlimit:4;stroke-dasharray:none;stroke-dashoffset:0;stroke-opacity:1"
           d="M 11 3.3417969 A 7.6575441 7.6575437 0 0 0 3.3417969 11 A 7.6575441 7.6575437 0 0 0 11 18.658203 A 7.6575441 7.6575437 0 0 0 18.658203 11 A 7.6575441 7.6575437 0 0 0 11 3.3417969 z M 8.3359375 7.1113281 C 8.9814315 7.1113281 9.5058594 7.63545 9.5058594 8.28125 C 9.5058594 8.92735 8.9814315 9.4511719 8.3359375 9.4511719 C 7.6902555 9.4511719 7.1660156 8.92735 7.1660156 8.28125 C 7.1660156 7.63555 7.6902555 7.1113281 8.3359375 7.1113281 z M 13.638672 7.1113281 C 14.284165 7.1113281 14.806641 7.63545 14.806641 8.28125 C 14.806641 8.92735 14.284354 9.4511719 13.638672 9.4511719 C 12.99299 9.4511719 12.46875 8.92735 12.46875 8.28125 C 12.46875 7.63555 12.99299 7.1113281 13.638672 7.1113281 z M 10.998047 11.568359 C 12.89964 11.568359 14.597571 12.652325 15.322266 14.328125 C 15.446348 14.614825 15.313979 14.946013 15.027344 15.070312 C 14.74071 15.194513 14.407286 15.062191 14.283203 14.775391 C 13.737843 13.513891 12.448191 12.699219 10.998047 12.699219 C 9.5143346 12.699219 8.2170334 13.514591 7.6933594 14.775391 C 7.6030314 14.993191 7.39364 15.123047 7.171875 15.123047 C 7.099462 15.123047 7.0259781 15.109078 6.9550781 15.080078 C 6.6663661 14.960178 6.5285035 14.630097 6.6484375 14.341797 C 7.3480525 12.657397 9.0555316 11.568359 10.998047 11.568359 z "
           transform="translate(0.01299953,1030.2444)"
           id="path4143" />
        <g
           id="g4175"
           transform="translate(0,-0.70075)" />
      </g>
    </g>
  </g>
</svg>
