<?xml version="1.0" encoding="UTF-8" standalone="no"?>
<!-- Created with Inkscape (http://www.inkscape.org/) -->

<svg
   xmlns:sketch="http://www.bohemiancoding.com/sketch/ns"
   xmlns:dc="http://purl.org/dc/elements/1.1/"
   xmlns:cc="http://creativecommons.org/ns#"
   xmlns:rdf="http://www.w3.org/1999/02/22-rdf-syntax-ns#"
   xmlns:svg="http://www.w3.org/2000/svg"
   xmlns="http://www.w3.org/2000/svg"
   xmlns:sodipodi="http://sodipodi.sourceforge.net/DTD/sodipodi-0.dtd"
   xmlns:inkscape="http://www.inkscape.org/namespaces/inkscape"
   width="22"
   height="22"
   id="svg3869"
   version="1.1"
   inkscape:version="0.91 r13725"
   sodipodi:docname="view-group.svg">
  <defs
     id="defs3871">
    <linearGradient
       id="linearGradient3257">
      <stop
         offset="0"
         style="stop-color:#a50000;stop-opacity:1"
         id="stop3259" />
      <stop
         offset="1"
         style="stop-color:#e73800;stop-opacity:1"
         id="stop3261" />
    </linearGradient>
    <clipPath
       clipPathUnits="userSpaceOnUse"
       id="clipPath4210">
      <rect
         y="1024.3622"
         x="-7"
         height="34"
         width="34"
         id="rect4212"
         style="opacity:1;fill:#0000ff;fill-opacity:0.51376145;stroke:none;stroke-opacity:1" />
    </clipPath>
    <clipPath
       clipPathUnits="userSpaceOnUse"
       id="clipPath4160">
      <rect
         style="opacity:1;fill:#aade87;fill-opacity:0.47247709;stroke:none;stroke-opacity:1"
         id="rect4162"
         width="32"
         height="32.000015"
         x="-6"
         y="1028.3619" />
    </clipPath>
    <clipPath
       id="clipPath4160-4"
       clipPathUnits="userSpaceOnUse">
      <rect
         y="1023.3622"
         x="7"
         height="1"
         width="1"
         id="rect4162-5"
         style="opacity:1;fill:#f2f2f2;fill-opacity:1;stroke:none;stroke-opacity:1" />
    </clipPath>
    <clipPath
       clipPathUnits="userSpaceOnUse"
       id="clipPath16">
      <path
         d="m 0,706.465 1490.926,0 L 1490.926,0 0,0 0,706.465 Z"
         id="path18"
         inkscape:connector-curvature="0" />
    </clipPath>
    <clipPath
       clipPathUnits="userSpaceOnUse"
       id="clipPath24">
      <path
         d="m 22.1953,686.117 1447.7347,0 0,-667.1902 -1447.7347,0 0,667.1902 z"
         id="path26"
         inkscape:connector-curvature="0" />
    </clipPath>
  </defs>
  <sodipodi:namedview
     id="base"
     pagecolor="#ffffff"
     bordercolor="#666666"
     borderopacity="1.0"
     inkscape:pageopacity="0.0"
     inkscape:pageshadow="2"
     inkscape:zoom="15.999999"
     inkscape:cx="11.11845"
     inkscape:cy="13.748069"
     inkscape:document-units="px"
     inkscape:current-layer="layer1"
     showgrid="true"
     fit-margin-top="0"
     fit-margin-left="0"
     fit-margin-right="0"
     fit-margin-bottom="0"
     inkscape:window-width="1366"
     inkscape:window-height="630"
     inkscape:window-x="0"
     inkscape:window-y="36"
     inkscape:window-maximized="1"
     inkscape:showpageshadow="false"
     inkscape:object-nodes="true"
     inkscape:snap-bbox="true">
    <inkscape:grid
       type="xygrid"
       id="grid4132" />
    <sodipodi:guide
       position="4,18"
       orientation="18,0"
       id="guide4138" />
    <sodipodi:guide
       position="5,3"
       orientation="0,18"
       id="guide4140" />
    <sodipodi:guide
       position="20,2.0000174"
       orientation="-18,0"
       id="guide4142" />
    <sodipodi:guide
       position="2,21"
       orientation="0,-18"
       id="guide4144" />
    <sodipodi:guide
       position="3,19.000017"
       orientation="16,0"
       id="guide4146" />
    <sodipodi:guide
       position="2,4"
       orientation="0,16"
       id="guide4148" />
    <sodipodi:guide
       position="21,20"
       orientation="-16,0"
       id="guide4150" />
    <sodipodi:guide
       position="2,20"
       orientation="0,-16"
       id="guide4152" />
  </sodipodi:namedview>
  <metadata
     id="metadata3874">
    <rdf:RDF>
      <cc:Work
         rdf:about="">
        <dc:format>image/svg+xml</dc:format>
        <dc:type
           rdf:resource="http://purl.org/dc/dcmitype/StillImage" />
        <dc:title />
      </cc:Work>
    </rdf:RDF>
  </metadata>
  <g
     inkscape:label="Capa 1"
     inkscape:groupmode="layer"
     id="layer1"
     transform="translate(-326,-534.3622)">
    <g
       id="g4211"
       transform="matrix(0.79999999,0,0,0.79999999,67.400004,109.07245)">
      <g
         inkscape:label="Capa 1"
         id="layer1-6"
         transform="matrix(0.67322778,0,0,0.67322778,67.324185,187.34101)">
        <g
           transform="matrix(1.4861058,0,0,1.4861058,-242.47995,-265.98878)"
           id="layer1-0"
           inkscape:label="Capa 1"
           style="fill:#4d4d4d;fill-opacity:1">
          <g
             style="fill:#4d4d4d;fill-opacity:1"
             transform="translate(-14.826669,-2.8964678)"
             inkscape:label="Capa 1"
             id="layer1-9">
            <g
               id="circle33"
               sketch:type="MSLayerGroup"
               transform="matrix(0.05593646,0,0,0.05593646,439.43695,531.71068)"
               style="fill:#4d4d4d;fill-opacity:1">
              <path
                 d="m 81.442575,-4.1454253 c -5.595,-9.5859997 -13.185,-17.1759997 -22.771,-22.7709997 -9.588,-5.595 -20.055,-8.392 -31.408,-8.392 -11.352,0 -21.8220003,2.797 -31.4080003,8.392 -9.5869997,5.594 -17.1769997,13.184 -22.7719997,22.7709997 -5.596,9.587 -8.393,20.0570003 -8.393,31.4080003 0,11.352 2.798,21.82 8.392,31.408 5.595,9.585 13.185,17.176 22.7719997,22.771 9.587,5.595 20.0560003,8.392 31.4080003,8.392 11.352,0 21.822,-2.797 31.408,-8.392 9.586,-5.594 17.176,-13.185 22.771,-22.771 5.594,-9.587 8.391,-20.057 8.391,-31.408 0,-11.352 -2.797,-21.8220003 -8.39,-31.4080003 z"
                 id="path285"
                 sketch:type="MSShapeGroup"
                 inkscape:connector-curvature="0"
                 style="fill:#4d4d4d;fill-opacity:1"
                 sodipodi:nodetypes="ccsccscssccscc" />
            </g>
            <g
               id="circular56"
               sketch:type="MSLayerGroup"
               transform="matrix(0.05593646,0,0,0.05593646,439.51194,540.69898)"
               style="fill:#4d4d4d;fill-opacity:1">
              <path
                 d="m 81.442575,67.329425 c -5.595,-9.586 -13.185,-17.176 -22.771,-22.771 -9.588,-5.595 -20.055,-8.392 -31.408,-8.392 -11.352,0 -21.8220003,2.797 -31.4080003,8.392 -9.5869997,5.594 -17.1769997,13.184 -22.7719997,22.771 -5.596,9.587 -8.393,20.057 -8.393,31.408 0,11.352005 2.798,21.820005 8.392,31.408005 5.595,9.585 13.185,17.176 22.7719997,22.771 9.587,5.595 20.0560003,8.392 31.4080003,8.392 11.352,0 21.822,-2.797 31.408,-8.392 9.586,-5.594 17.176,-13.185 22.771,-22.771 5.594,-9.587 8.391,-20.057 8.391,-31.408005 0,-11.352 -2.797,-21.822 -8.39,-31.408 l 0,0 z"
                 id="path291"
                 sketch:type="MSShapeGroup"
                 inkscape:connector-curvature="0"
                 style="fill:#4d4d4d;fill-opacity:1" />
            </g>
            <g
               id="circular56-3"
               sketch:type="MSLayerGroup"
               transform="matrix(0.05593646,0,0,0.05593646,448.58654,531.70678)"
               style="fill:#4d4d4d;fill-opacity:1">
              <path
                 d="m 152.91743,-4.1454253 c -5.595,-9.5859997 -13.185,-17.1759997 -22.771,-22.7709997 -9.588,-5.595 -20.055,-8.392 -31.408005,-8.392 -11.352,0 -21.822,2.797 -31.408,8.392 -9.587,5.594 -17.177,13.184 -22.772,22.7709997 -5.596,9.587 -8.393,20.0570003 -8.393,31.4080003 0,11.352 2.798,21.82 8.392,31.408 5.595,9.585 13.185,17.176 22.772,22.771 9.587,5.595 20.056,8.392 31.408,8.392 11.352005,0 21.822005,-2.797 31.408005,-8.392 9.586,-5.594 17.176,-13.185 22.771,-22.771 5.594,-9.587 8.391,-20.057 8.391,-31.408 0,-11.352 -2.797,-21.8220003 -8.39,-31.4080003 l 0,0 z"
                 id="path291-5"
                 sketch:type="MSShapeGroup"
                 inkscape:connector-curvature="0"
                 style="fill:#4d4d4d;fill-opacity:1" />
            </g>
            <g
               id="circle33-5"
               sketch:type="MSLayerGroup"
               transform="matrix(0.05593646,0,0,0.05593646,448.4929,540.65041)"
               style="fill:#4d4d4d;fill-opacity:1">
              <path
                 d="m 152.91743,67.329425 c -5.595,-9.586 -13.185,-17.176 -22.771,-22.771 -9.588,-5.595 -20.055,-8.392 -31.408005,-8.392 -11.352,0 -21.822,2.797 -31.408,8.392 -9.587,5.594 -17.177,13.184 -22.772,22.771 -5.596,9.587 -8.393,20.057 -8.393,31.408 0,11.352005 2.798,21.820005 8.392,31.408005 5.595,9.585 13.185,17.176 22.772,22.771 9.587,5.595 20.056,8.392 31.408,8.392 11.352005,0 21.822005,-2.797 31.408005,-8.392 9.586,-5.594 17.176,-13.185 22.771,-22.771 5.594,-9.587 8.391,-20.057 8.391,-31.408005 0,-11.352 -2.797,-21.822 -8.39,-31.408 z"
                 id="path285-1"
                 sketch:type="MSShapeGroup"
                 inkscape:connector-curvature="0"
                 style="fill:#4d4d4d;fill-opacity:1"
                 sodipodi:nodetypes="ccsccscssccscc" />
            </g>
          </g>
        </g>
      </g>
      <g
         inkscape:label="Capa 1"
         id="layer1-6-9"
         transform="matrix(0.67322778,0,0,0.67322778,62.747159,191.8393)">
        <g
           transform="matrix(1.4861058,0,0,1.4861058,-242.47995,-265.98878)"
           id="layer1-0-9"
           inkscape:label="Capa 1"
           style="fill:#4d4d4d;fill-opacity:1">
          <g
             style="fill:#4d4d4d;fill-opacity:1"
             transform="translate(-14.826669,-2.8964678)"
             inkscape:label="Capa 1"
             id="layer1-9-2">
            <g
               id="circle33-8"
               sketch:type="MSLayerGroup"
               transform="matrix(0.05593646,0,0,0.05593646,439.43695,531.71068)"
               style="fill:#4d4d4d;fill-opacity:1" />
            <g
               id="circular56-7"
               sketch:type="MSLayerGroup"
               transform="matrix(0.05593646,0,0,0.05593646,439.51194,540.69898)"
               style="fill:#4d4d4d;fill-opacity:1" />
            <g
               id="circular56-3-7"
               sketch:type="MSLayerGroup"
               transform="matrix(0.05593646,0,0,0.05593646,448.58654,531.70678)"
               style="fill:#4d4d4d;fill-opacity:1">
              <path
                 d="M 117.18,31.592 C 111.585,22.006 103.995,14.416 94.409,8.821 84.821,3.226 74.354,0.429 63.001,0.429 51.649,0.429 41.179,3.226 31.593,8.821 22.006,14.415 14.416,22.005 8.821,31.592 3.225,41.179 0.428,51.649 0.428,63 c 0,11.352 2.798,21.82 8.392,31.408 5.595,9.585 13.185,17.176 22.772,22.771 9.587,5.595 20.056,8.392 31.408,8.392 11.352,0 21.822,-2.797 31.408,-8.392 9.586,-5.594 17.176,-13.185 22.771,-22.771 5.594,-9.587 8.391,-20.057 8.391,-31.408 0,-11.352 -2.797,-21.822 -8.39,-31.408 l 0,0 z"
                 id="path291-5-1"
                 sketch:type="MSShapeGroup"
                 inkscape:connector-curvature="0"
                 style="fill:#4d4d4d;fill-opacity:1" />
            </g>
            <g
               id="circle33-5-7"
               sketch:type="MSLayerGroup"
               transform="matrix(0.05593646,0,0,0.05593646,448.4929,540.65041)"
               style="fill:#4d4d4d;fill-opacity:1" />
          </g>
        </g>
      </g>
    </g>
  </g>
</svg>
