<?xml version="1.0" encoding="UTF-8" standalone="no"?>
<!-- Created with Inkscape (http://www.inkscape.org/) -->

<svg
   xmlns:dc="http://purl.org/dc/elements/1.1/"
   xmlns:cc="http://creativecommons.org/ns#"
   xmlns:rdf="http://www.w3.org/1999/02/22-rdf-syntax-ns#"
   xmlns:svg="http://www.w3.org/2000/svg"
   xmlns="http://www.w3.org/2000/svg"
   xmlns:sodipodi="http://sodipodi.sourceforge.net/DTD/sodipodi-0.dtd"
   xmlns:inkscape="http://www.inkscape.org/namespaces/inkscape"
   width="22"
   height="22"
   id="svg3869"
   version="1.1"
   inkscape:version="0.91 r13725"
   sodipodi:docname="view-calendar-birthday.svg">
  <defs
     id="defs3871">
    <linearGradient
       id="linearGradient4290-48">
      <stop
         id="stop4292-0"
         offset="0"
         style="stop-color:#a5a5a5;stop-opacity:1;" />
      <stop
         id="stop4294-0"
         offset="1"
         style="stop-color:#f5f2f5;stop-opacity:1;" />
    </linearGradient>
    <inkscape:perspective
       id="perspective4146-9"
       inkscape:persp3d-origin="12 : 8 : 1"
       inkscape:vp_z="24 : 12 : 1"
       inkscape:vp_y="0 : 1000 : 0"
       inkscape:vp_x="0 : 12 : 1"
       sodipodi:type="inkscape:persp3d" />
    <inkscape:perspective
       id="perspective4146"
       inkscape:persp3d-origin="12 : 8 : 1"
       inkscape:vp_z="24 : 12 : 1"
       inkscape:vp_y="0 : 1000 : 0"
       inkscape:vp_x="0 : 12 : 1"
       sodipodi:type="inkscape:persp3d" />
    <inkscape:perspective
       sodipodi:type="inkscape:persp3d"
       inkscape:vp_x="0 : 12 : 1"
       inkscape:vp_y="0 : 1000 : 0"
       inkscape:vp_z="24 : 12 : 1"
       inkscape:persp3d-origin="12 : 8 : 1"
       id="perspective4146-9-1" />
    <inkscape:perspective
       sodipodi:type="inkscape:persp3d"
       inkscape:vp_x="0 : 12 : 1"
       inkscape:vp_y="0 : 1000 : 0"
       inkscape:vp_z="24 : 12 : 1"
       inkscape:persp3d-origin="12 : 8 : 1"
       id="perspective4146-96" />
  </defs>
  <sodipodi:namedview
     id="base"
     pagecolor="#ffffff"
     bordercolor="#666666"
     borderopacity="1.0"
     inkscape:pageopacity="0.0"
     inkscape:pageshadow="2"
     inkscape:zoom="15.999999"
     inkscape:cx="-2.0777851"
     inkscape:cy="12.395359"
     inkscape:document-units="px"
     inkscape:current-layer="g3"
     showgrid="true"
     fit-margin-top="0"
     fit-margin-left="0"
     fit-margin-right="0"
     fit-margin-bottom="0"
     inkscape:window-width="1366"
     inkscape:window-height="630"
     inkscape:window-x="0"
     inkscape:window-y="36"
     inkscape:window-maximized="1"
     inkscape:showpageshadow="false"
     inkscape:snap-bbox="true"
     inkscape:object-nodes="true">
    <inkscape:grid
       type="xygrid"
       id="grid4132" />
    <sodipodi:guide
       position="4,18"
       orientation="18,0"
       id="guide4138" />
    <sodipodi:guide
       position="5,3"
       orientation="0,18"
       id="guide4140" />
    <sodipodi:guide
       position="20,2.0000174"
       orientation="-18,0"
       id="guide4142" />
    <sodipodi:guide
       position="2,21"
       orientation="0,-18"
       id="guide4144" />
    <sodipodi:guide
       position="3,19.000017"
       orientation="16,0"
       id="guide4146" />
    <sodipodi:guide
       position="2,4"
       orientation="0,16"
       id="guide4148" />
    <sodipodi:guide
       position="21,20"
       orientation="-16,0"
       id="guide4150" />
    <sodipodi:guide
       position="2,20"
       orientation="0,-16"
       id="guide4152" />
  </sodipodi:namedview>
  <metadata
     id="metadata3874">
    <rdf:RDF>
      <cc:Work
         rdf:about="">
        <dc:format>image/svg+xml</dc:format>
        <dc:type
           rdf:resource="http://purl.org/dc/dcmitype/StillImage" />
        <dc:title />
      </cc:Work>
    </rdf:RDF>
  </metadata>
  <g
     inkscape:label="Capa 1"
     inkscape:groupmode="layer"
     id="layer1"
     transform="translate(-326,-534.3622)">
    <g
       id="g3"
       transform="matrix(0.03467925,0,0,0.03467925,327.66155,536.02378)"
       style="fill:#4d4d4d;fill-opacity:1">
      <g
         id="g5"
         style="fill:#4d4d4d;fill-opacity:1"
         transform="matrix(0.88888881,0,0,0.88888881,29.920198,29.919962)">
        <path
           d="m 507.959,311.64 c -4.549,1.235 -9.33,1.945 -14.279,1.945 -11.824,0 -22.996,-3.742 -32.057,-10.443 -9.064,6.701 -20.234,10.443 -32.057,10.443 -11.824,0 -22.996,-3.742 -32.057,-10.443 -9.064,6.701 -20.232,10.443 -32.057,10.443 -11.825,0 -22.996,-3.742 -32.057,-10.443 -9.064,6.701 -20.232,10.443 -32.057,10.443 -11.825,0 -22.996,-3.742 -32.057,-10.443 -9.061,6.701 -20.232,10.443 -32.056,10.443 -11.824,0 -22.993,-3.742 -32.057,-10.443 -9.061,6.701 -20.233,10.443 -32.057,10.443 -11.824,0 -22.993,-3.742 -32.057,-10.443 -9.067,6.701 -20.236,10.443 -32.06,10.443 -11.824,0 -22.993,-3.742 -32.057,-10.443 -9.061,6.701 -20.233,10.443 -32.057,10.443 -4.954,0 -9.731,-0.71 -14.281,-1.945 l 0,48.356 477.36,0 0,-48.356 0,0 z"
           id="path7"
           inkscape:connector-curvature="0"
           style="fill:#4d4d4d;fill-opacity:1" />
        <path
           d="m 30.6,471.176 c 0,0.872 0.117,1.716 0.257,2.549 l 476.846,0 c 0.141,-0.833 0.256,-1.677 0.256,-2.549 l 0,-95.88 -477.359,0 0,95.88 z"
           id="path9"
           inkscape:connector-curvature="0"
           style="fill:#4d4d4d;fill-opacity:1" />
        <path
           d="m 30.6,295.593 c 4.407,1.726 9.223,2.692 14.281,2.692 13.568,0 25.425,-6.873 32.057,-17.145 6.634,10.271 18.491,17.145 32.06,17.145 13.568,0 25.425,-6.873 32.057,-17.145 6.631,10.272 18.488,17.145 32.056,17.145 13.568,0 25.426,-6.873 32.057,-17.145 6.631,10.271 18.489,17.145 32.057,17.145 13.568,0 25.426,-6.873 32.057,-17.145 6.63,10.272 18.488,17.145 32.056,17.145 13.568,0 25.426,-6.873 32.057,-17.145 6.631,10.272 18.488,17.145 32.057,17.145 13.569,0 25.426,-6.873 32.057,-17.145 6.631,10.272 18.488,17.145 32.057,17.145 13.569,0 25.426,-6.873 32.057,-17.145 6.631,10.272 18.488,17.145 32.057,17.145 5.059,0 9.875,-0.967 14.281,-2.692 13.715,-5.374 23.385,-18.231 23.385,-33.262 0,-1.506 -0.129,-2.98 -0.318,-4.44 0.199,-0.759 0.318,-1.539 0.318,-2.341 l 0,-46.108 c 0,-6.702 -7.289,-12.136 -16.279,-12.136 l -226.411,0 0,-7.65 0,-7.65 0,-30.921 c 0,-8.449 -6.852,-15.3 -15.301,-15.3 l -8.161,0 c -8.449,0 -15.3,6.851 -15.3,15.3 l 0,30.921 0,7.65 0,7.65 -226.4,0 c -8.99,0 -16.279,5.432 -16.279,12.136 l 0,46.111 c 0,0.802 0.119,1.582 0.318,2.341 -0.19,1.457 -0.318,2.935 -0.318,4.44 0,15.025 9.67,27.885 23.385,33.259 z"
           id="path11"
           inkscape:connector-curvature="0"
           style="fill:#4d4d4d;fill-opacity:1" />
        <path
           d="m 523.26,489.025 -507.96,0 c -8.449,0 -15.3,8.617 -15.3,19.247 l 0,1.282 c 0,10.631 6.851,19.247 15.3,19.247 l 507.96,0 c 8.449,0 15.301,-8.616 15.301,-19.247 l 0,-1.282 c 0,-10.627 -6.852,-19.247 -15.301,-19.247 z"
           id="path13"
           inkscape:connector-curvature="0"
           style="fill:#4d4d4d;fill-opacity:1" />
        <path
           d="m 272.34,126.097 c 0.576,0.021 1.154,0.092 1.719,-0.024 17.826,-3.685 35.094,-27.452 31.455,-48.517 -3.369,-19.51 -17.531,-27.666 -25.727,-41.895 -3.396,-5.89 -5.17,-13.779 -3.91,-21.515 0.816,-5.003 -0.064,-5.79 -3.473,-2.038 -8.752,9.624 -18.667,22.274 -23.513,32.375 -5.548,11.27 -6.071,19.324 -2.843,31.377 0.823,3.011 1.671,5.343 2.781,7.656 1.953,4.061 -0.177,7.252 -4.905,5.417 -2.35,-0.912 -4.511,-2.154 -6.328,-3.623 -3.944,-3.186 -5.447,-3.204 -4.367,1.747 3.951,18.118 20.512,38.32 39.111,39.04 z"
           id="path15"
           inkscape:connector-curvature="0"
           style="fill:#4d4d4d;fill-opacity:1" />
      </g>
    </g>
  </g>
</svg>
