<svg enable-background="new" height="16" width="16" xmlns="http://www.w3.org/2000/svg"><g fill="#f2f2f2" stroke-width=".121123"><path d="m8.0000003 2.0000007c-.1710254 0-.3190375.06262-.4440362.1874981l-3.286183 3.286183h-2.5854875c-.1711465 0-.3191586.062621-.4441573.1874981-.1249987.1249987-.1874981.2731319-.1874981.4441573v3.7893271c0 .1710257.062499.3191587.1874981.4440367.1251199.124998.2731319.187619.4441573.187619h2.5853664l3.286183 3.286183c.1249987.124877.2730108.187498.4440362.187498.1711465 0 .3191586-.06262.4441573-.187498.1249988-.124878.1874981-.273011.1874981-.444036v-10.7368108c0-.1710254-.062499-.3191586-.1873769-.4441574-.1251199-.1248776-.2730109-.1874981-.4441574-.1874981z"/><path d="m12.001535 9.3961229c.279672-.4308339.419448-.8961877.419448-1.3961827 0-.4999949-.139776-.967529-.419448-1.4017543-.279794-.4342252-.649582-.7400603-1.110212-.9177475-.06577-.032824-.148133-.049297-.246727-.049297-.171026 0-.319159.060925-.444036.1825321-.124878.1217284-.18762.2714362-.18762.4490023 0 .1382011.03949.2549635.11858.3504083.07897.095445.174295.1776871.286213.2467271.111675.06904.223592.1447418.33551.2269842.111917.082242.207241.1990047.286213.3502871.07873.1514035.118337.3389017.118337.5626155s-.03949.4112119-.118337.5626154c-.07897.1514035-.174296.2680448-.286213.3504083-.111918.082242-.223835.1579442-.33551.2269842-.111918.068919-.207241.1512824-.286213.246606-.07897.095566-.11858.2122072-.11858.3504083 0 .1776872.06274.3272738.18762.4490018.124877.121729.27301.182654.444036.182654.09859 0 .180957-.01647.246727-.04918.46063-.18447.830539-.4921222 1.110212-.9230771z"/><path d="m14.108466 10.787703c.559224-.8518569.838896-1.7811111.838896-2.7877628 0-1.0066516-.279672-1.9357847-.838896-2.7881259-.559224-.8518568-1.299527-1.4718844-2.220423-1.860083-.08539-.032824-.171026-.049297-.256417-.049297-.171026 0-.319159.062499-.444279.1874981-.124878.1249987-.187377.2730108-.187377.4440362 0 .2566593.128269.450698.384928.5823585.368335.1907684.618332.3355102.749872.4341041.486913.3553744.866755.8009852 1.139765 1.3371959.273011.5362106.409517 1.1069413.409517 1.712192s-.136506 1.1759814-.409517 1.712192c-.27301.5363319-.652973.9818219-1.139765 1.3370749-.13154.09871-.381537.243457-.749872.434225-.256659.131661-.384928.325699-.384928.582359 0 .171025.0625.319158.187377.444036.12512.12512.276281.187619.453968.187619.07897 0 .161336-.01659.246728-.0493.920896-.38832 1.661199-1.008347 2.220423-1.860325z" fill-opacity=".34902"/></g></svg>