<svg xmlns="http://www.w3.org/2000/svg" viewBox="0 0 16 16">
  <defs id="defs3051">
    <style type="text/css" id="current-color-scheme">
      .ColorScheme-Text {
        color:#f2f2f2;
      }
      </style>
  </defs>
 <path 
           style="fill:currentColor;fill-opacity:1;stroke:none" 
           class="ColorScheme-Text"
        d="M 4.3636364,3.6363636 A 4.3636364,4.3636364 0 0 0 0,8.0000004 4.3636364,4.3636364 0 0 0 4.3636364,12.363636 c 1.2945454,0 2.4514203,-0.56 3.2514203,-1.454545 l 0.7698866,0 c 0.7999997,0.894545 1.9568747,1.454545 3.2514207,1.454545 A 4.3636364,4.3636364 0 0 0 16,8.0000004 4.3636364,4.3636364 0 0 0 11.636364,3.6363636 l -7.2727276,0 z m -0.7272728,2.1818177 1.4545455,0 0,1.454546 1.4545454,0 0,1.4545451 -1.4545454,0 0,1.4545456 -1.4545455,0 0,-1.4545456 -1.4545454,0 0,-1.4545451 1.4545454,0 0,-1.454546 z m 9.0909094,0 a 1.0909091,1.0909091 0 0 1 1.090909,1.0909101 1.0909091,1.0909091 0 0 1 -1.090909,1.090909 1.0909091,1.0909091 0 0 1 -1.090909,-1.090909 1.0909091,1.0909091 0 0 1 1.090909,-1.0909101 z m -2.181818,2.1818191 a 1.0909091,1.0909091 0 0 1 1.090909,1.090909 1.0909091,1.0909091 0 0 1 -1.090909,1.0909086 1.0909091,1.0909091 0 0 1 -1.09091,-1.0909086 1.0909091,1.0909091 0 0 1 1.09091,-1.090909 z"
     />
</svg>
