<svg xmlns="http://www.w3.org/2000/svg" viewBox="0 0 16 16">
  <defs id="defs3051">
    <style type="text/css" id="current-color-scheme">
      .ColorScheme-Text {
        color:#f2f2f2;
      }
      </style>
  </defs>
 <path 
     style="fill:currentColor;fill-opacity:1;stroke:none" 
     class="ColorScheme-Text"
     d="M 9.5898438 0.58789062 C 6.3828838 0.58789062 3.7324219 3.2087594 3.7324219 6.4121094 C 3.7324219 7.6295794 4.1442956 8.74949 4.7910156 9.6875 L 0.88671875 13.591797 A 1.0646081 1.0646081 0 1 0 2.375 15.115234 L 6.28125 11.210938 C 7.22071 11.857788 8.3700937 12.236328 9.5898438 12.236328 C 12.796834 12.236328 15.412109 9.6154194 15.412109 6.4121094 C 15.412109 3.2087594 12.796834 0.58789062 9.5898438 0.58789062 z M 9.5898438 1.6484375 C 12.221284 1.6484375 14.353516 3.7806594 14.353516 6.4121094 C 14.353516 9.0435294 12.221284 11.177734 9.5898438 11.177734 C 6.9584238 11.177734 4.8242188 9.0435294 4.8242188 6.4121094 C 4.8242188 3.7806594 6.9584238 1.6484375 9.5898438 1.6484375 z "
     />
</svg>
