<svg xmlns="http://www.w3.org/2000/svg" viewBox="0 0 16 16">
  <defs id="defs3051">
    <style type="text/css" id="current-color-scheme">
      .ColorScheme-Text {
        color:#f2f2f2;
      }
      </style>
  </defs>
 <path 
     style="fill:currentColor;fill-opacity:1;stroke:none" 
     class="ColorScheme-Text"
     d="M 8.0527344 0.0859375 C 7.905526 0.0859375 7.7580728 0.14216031 7.6464844 0.25390625 L 5.3007812 2.5976562 C 5.0779201 2.8214641 5.1471076 3.0618261 5.4550781 3.1308594 C 5.4550781 3.1308594 5.7084697 3.1873019 6.0214844 3.5 C 6.6932224 4.1723684 6.6941671 5.2645046 6.0214844 5.9375 C 5.3491173 6.6098684 4.2576733 6.6092371 3.5859375 5.9375 C 3.2729228 5.6238546 3.2167969 5.3691406 3.2167969 5.3691406 C 3.1477637 5.0608528 2.9067706 4.9916677 2.6835938 5.2148438 L 0.33984375 7.5605469 C 0.11666576 7.7837228 0.11666576 8.149871 0.33984375 8.3730469 L 2.6835938 10.71875 C 2.9067706 10.941927 2.8392216 11.18065 2.53125 11.25 C 2.53125 11.25 2.2762199 11.307763 1.9628906 11.621094 C 1.2902089 12.293776 1.2902089 13.384273 1.9628906 14.056641 C 2.6352566 14.728691 3.7257547 14.729321 4.3984375 14.056641 C 4.7120824 13.743311 4.7695313 13.488281 4.7695312 13.488281 C 4.8388801 13.179679 5.0779201 13.110177 5.3007812 13.333984 L 7.6464844 15.679688 C 7.8696612 15.903181 8.2358087 15.903181 8.4589844 15.679688 L 10.804688 13.333984 C 11.027864 13.110808 10.958361 12.871453 10.650391 12.802734 C 10.650391 12.802734 10.395046 12.744341 10.082031 12.431641 C 9.4090339 11.758959 9.4093495 10.669097 10.082031 9.9960938 C 10.754398 9.3237281 11.844896 9.3230949 12.517578 9.9960938 C 12.830907 10.30943 12.888672 10.564453 12.888672 10.564453 C 12.958021 10.872739 13.19643 10.941926 13.419922 10.71875 L 15.765625 8.3730469 C 15.988801 8.149871 15.988801 7.7837228 15.765625 7.5605469 L 13.419922 5.2148438 C 13.19643 4.9916676 13.266247 4.7529426 13.574219 4.6835938 C 13.574219 4.6835938 13.827296 4.6258299 14.140625 4.3125 C 14.813308 3.640132 14.812677 2.5483743 14.140625 1.8769531 C 13.467628 1.2042645 12.377761 1.2042645 11.705078 1.8769531 C 11.391434 2.190283 11.335938 2.4453125 11.335938 2.4453125 C 11.266589 2.7539139 11.027551 2.8214641 10.804688 2.5976562 L 8.4589844 0.25390625 C 8.3473965 0.14216031 8.1999427 0.0859375 8.0527344 0.0859375 z "
     />
</svg>
