<svg xmlns="http://www.w3.org/2000/svg" viewBox="0 0 16 16">
  <defs id="defs3051">
    <style type="text/css" id="current-color-scheme">
      .ColorScheme-Text {
        color:#f2f2f2;
      }
      </style>
  </defs>
 <path 
     style="fill:currentColor;fill-opacity:1;stroke:none" 
     class="ColorScheme-Text"
     d="M 5.0909091,2.8181818 A 2.1818182,2.1818182 0 0 0 2.9090909,5 2.1818182,2.1818182 0 0 0 5.0909091,7.181818 2.1818182,2.1818182 0 0 0 7.2727273,5 2.1818182,2.1818182 0 0 0 5.0909091,2.8181818 Z m 5.8181819,0 A 2.1818182,2.1818182 0 0 0 8.7272727,5 2.1818182,2.1818182 0 0 0 10.909091,7.181818 2.1818182,2.1818182 0 0 0 13.090909,5 2.1818182,2.1818182 0 0 0 10.909091,2.8181818 Z M 5.0909091,8.636364 C 3.3963636,8.636364 0,9.487273 0,11.181818 L 0,13 l 10.181818,0 0,-1.818182 c 0,-1.694545 -3.3963635,-2.545454 -5.0909089,-2.545454 z m 5.8181819,0 c -0.210909,0 -0.45142,5.68e-4 -0.705966,0.03693 0.843636,0.610909 1.433239,1.417614 1.433239,2.508523 L 11.636364,13 16,13 16,11.181818 C 16,9.487273 12.603636,8.636364 10.909091,8.636364 Z"
     />
</svg>
