<svg xmlns="http://www.w3.org/2000/svg" viewBox="0 0 16 16">
  <defs id="defs3051">
    <style type="text/css" id="current-color-scheme">
      .ColorScheme-Text {
        color:#f2f2f2;
      }
      </style>
  </defs>
 <path 
           style="fill:currentColor;fill-opacity:1;stroke:none" 
           class="ColorScheme-Text"
        d="M 1.7777778,0 C 0.79111111,0 0,0.8 0,1.7777778 L 0,14.222222 A 1.7777778,1.7777778 0 0 0 1.7777778,16 L 14.222222,16 A 1.7777778,1.7777778 0 0 0 16,14.222222 L 16,1.7777778 A 1.7777778,1.7777778 0 0 0 14.222222,0 L 1.7777778,0 Z m 0,1.7777778 12.4444442,0 0,8.8888892 -3.555555,0 A 2.6666667,2.6666667 0 0 1 8,13.333333 2.6666667,2.6666667 0 0 1 5.3333333,10.666667 l -3.5555555,0 0,-8.8888892 z m 4.4444444,1.7777778 0,2.6666666 -1.7777778,0 L 8,9.7777778 l 3.555556,-3.5555556 -1.7777782,0 0,-2.6666666 -3.5555556,0 z"
     />
</svg>
