<svg xmlns="http://www.w3.org/2000/svg" viewBox="0 0 16 16">
  <defs id="defs3051">
    <style type="text/css" id="current-color-scheme">
      .ColorScheme-Text {
        color:#f2f2f2;
      }
      </style>
  </defs>
 <path 
     style="fill:currentColor;fill-opacity:1;stroke:none" 
     class="ColorScheme-Text"
     d="M 10.939453 2.9667969 C 9.5440319 2.9667969 8.3644959 3.4427864 7.4003906 4.3984375 C 6.4447395 5.3540886 5.9667969 6.5101493 5.9667969 7.8632812 C 5.9667969 9.2248719 6.4447395 10.382239 7.4003906 11.337891 C 8.3560417 12.285088 9.5355777 12.759766 10.939453 12.759766 C 11.658304 12.759766 12.314254 12.624147 12.90625 12.353516 L 12.550781 11.490234 C 12.077185 11.72703 11.539904 11.845703 10.939453 11.845703 C 9.823117 11.845703 8.8757094 11.461001 8.0976562 10.691406 C 7.3196077 9.9218119 6.9316406 8.9796174 6.9316406 7.8632812 C 6.9316406 6.7469497 7.3196077 5.8027975 8.0976562 5.0332031 C 8.8757094 4.2636088 9.823117 3.8789062 10.939453 3.8789062 C 12.055785 3.8789062 13.003197 4.2636088 13.78125 5.0332031 C 14.559303 5.8027975 14.947266 6.7469497 14.947266 7.8632812 C 14.947266 9.0726457 14.64733 9.6757812 14.046875 9.6757812 C 13.793162 9.6757812 13.603417 9.5877542 13.476562 9.4101562 C 13.358162 9.2325583 13.298828 9.0343359 13.298828 8.8144531 L 13.298828 5.5039062 L 12.384766 5.5039062 L 12.384766 6.0742188 L 12.333984 6.0742188 C 11.902673 5.5752508 11.362136 5.3261719 10.710938 5.3261719 C 10.051285 5.3261719 9.4853149 5.5700377 9.0117188 6.0605469 C 8.5381226 6.5510606 8.3007812 7.1698399 8.3007812 7.9140625 C 8.3007812 8.6667438 8.5381226 9.2868346 9.0117188 9.7773438 C 9.4853149 10.259399 10.068235 10.501953 10.761719 10.501953 C 11.531313 10.501953 12.122711 10.191587 12.537109 9.5742188 C 12.850021 10.191587 13.324703 10.501953 13.958984 10.501953 C 14.576353 10.501953 15.045822 10.250921 15.367188 9.7519531 C 15.697016 9.2529852 15.861328 8.6244214 15.861328 7.8632812 C 15.861328 6.5101493 15.388599 5.3540886 14.441406 4.3984375 C 13.494209 3.4427864 12.326411 2.9667969 10.939453 2.9667969 z M 0.63476562 5.2304688 C 0.58541888 5.2304688 0.54185991 5.2491557 0.50390625 5.2871094 L 0.22070312 5.5722656 C 0.18267957 5.6102193 0.16210938 5.6537084 0.16210938 5.703125 C 0.16210938 5.7525416 0.18267957 5.7960307 0.22070312 5.8339844 L 2.4570312 8.0722656 L 0.22070312 10.310547 C 0.18267957 10.348501 0.16210938 10.392129 0.16210938 10.441406 C 0.16210938 10.490823 0.18267957 10.534312 0.22070312 10.572266 L 0.50390625 10.855469 C 0.54185991 10.893492 0.58541888 10.914062 0.63476562 10.914062 C 0.68411237 10.914062 0.72962446 10.893422 0.76757812 10.855469 L 3.4199219 8.203125 C 3.4579454 8.1651713 3.4765625 8.1216124 3.4765625 8.0722656 C 3.4765625 8.0229189 3.4579454 7.9794298 3.4199219 7.9414062 L 0.76757812 5.2871094 C 0.72962446 5.2491557 0.68411237 5.2304688 0.63476562 5.2304688 z M 2.8222656 5.2304688 C 2.7729189 5.2304688 2.7293599 5.2491557 2.6914062 5.2871094 L 2.40625 5.5722656 C 2.3682963 5.6102193 2.3496094 5.6537084 2.3496094 5.703125 C 2.3496094 5.7525416 2.3682963 5.7960307 2.40625 5.8339844 L 4.6445312 8.0722656 L 2.40625 10.310547 C 2.3682963 10.348501 2.3496094 10.392129 2.3496094 10.441406 C 2.3496094 10.490823 2.3682963 10.534312 2.40625 10.572266 L 2.6914062 10.855469 C 2.7293599 10.893492 2.7729189 10.914062 2.8222656 10.914062 C 2.8716823 10.914062 2.9152412 10.893422 2.953125 10.855469 L 5.6074219 8.203125 C 5.6453755 8.1651713 5.6640625 8.1216124 5.6640625 8.0722656 C 5.6640625 8.0229189 5.6453056 7.9794298 5.6074219 7.9414062 L 2.953125 5.2871094 C 2.9152412 5.2491557 2.8716124 5.2304688 2.8222656 5.2304688 z M 10.849609 6.2890625 C 11.272467 6.2890625 11.633689 6.4383768 11.929688 6.734375 C 12.23414 7.0303732 12.384766 7.4235533 12.384766 7.9140625 C 12.384766 8.4045717 12.23414 8.7977518 11.929688 9.09375 C 11.633689 9.3897482 11.272467 9.5371094 10.849609 9.5371094 C 10.426757 9.5371094 10.064223 9.3897482 9.7597656 9.09375 C 9.4637675 8.7977518 9.3164062 8.4045717 9.3164062 7.9140625 C 9.3164062 7.4235533 9.4637675 7.0303732 9.7597656 6.734375 C 10.064223 6.4383768 10.426757 6.2890625 10.849609 6.2890625 z "
     />
</svg>
