<svg height="16" width="16" xmlns="http://www.w3.org/2000/svg">
  <path d="m15 0-4 1.7089844v.703125.3730468c.000025.00527 0 .010349 0 .015625v5.8222657 1.1757812c0 .9004959-.253362 1.7073119-.830078 2.2871099-.5601073.56271-1.3214886.914062-2.169922.914062-1.7235556 0-3-1.428372-3-3.2011719v-.9863281-4.1386719l-4 1.7792969v2.4375c0 1.0469808.1357925 2.005601.4082031 2.873047.2702908.867445.6896721 1.61352 1.2578125 2.240234.4812236.531969 1.0749412.96409 1.7773438 1.298828l.1347656.04297c.078412.04401.1561135.08793.2480469.125.8730567.352065 1.9114492.529296 3.1113281.529296l-.00195-.0039c1.2200183 0 2.2728-.170564 3.162109-.515625.889663-.342481 1.619585-.826043 2.197266-1.453125.575207-.624871 1.005679-1.377135 1.285156-2.251953.279477-.874819.417969-1.8378951.417969-2.8867191v-.1816407c.000051-.0027332.00195-.0050812.00195-.0078184z" fill="#555" />
</svg>
