<svg height="64" width="64" xmlns="http://www.w3.org/2000/svg" xmlns:xlink="http://www.w3.org/1999/xlink"><linearGradient id="a" gradientUnits="userSpaceOnUse" x1="399.9939" x2="399.9939" y1="545.13873" y2="518.13873"><stop offset="0" stop-color="#c52828"/><stop offset="1" stop-color="#ff5454"/></linearGradient><g fill="#fff" fill-opacity=".891129" transform="matrix(-.65057561 0 0 .65057561 45.87932 16.71264)"><circle cx="400.57138" cy="531.79791" fill="url(#a)" fill-opacity="1" r="13.999958" transform="matrix(-2.9644167 0 0 2.9644167 1208.7944 -1552.9724)"/><g fill="#fff" fill-opacity=".891129"><path d="m1.558 3.814c.353.353.815.528 1.278.528.462 0 .925-.177 1.278-.528.706-.706.706-1.852 0-2.558l-.426-.424c-.706-.706-1.85-.706-2.556 0s-.706 1.851 0 2.557z"/><path d="m3.627 5.135c0 .482.193.94.53 1.276l3.254 3.255.65.65c.337.338.795.529 1.278.529.482 0 .939-.191 1.277-.529.337-.337.53-.796.53-1.277s-.193-.939-.53-1.277l-.651-.65-3.253-3.255c-.675-.676-1.868-.676-2.555 0-.337.337-.53.795-.53 1.278z"/><path d="m42.332 35.941c-1.655-.847-3.715-1.899-6.178-3.833-.482-.378-1.063-.534-1.631-.5.22-.874.104-1.807-.338-2.611.084-.265.15-.527.18-.79.113-1.021-.204-2.017-.852-2.663l-12.355-12.356c-.226-.227-1.448-1.352-3.343-1.352-.644 0-1.509.146-2.446.668l-2.149-2.141c-.687-.687-1.88-.687-2.555 0-.349.338-.53.796-.53 1.278 0 .48.181.928.53 1.276l2.139 2.141c-.813 1.446-.72 2.76-.545 3.517.292 1.267 1.016 2.066 1.23 2.28l12.355 12.355c.264.263 1.008.874 2.248.874.402 0 .807-.07 1.213-.199.538.295 1.129.457 1.727.457.42 0 .838-.082 1.238-.229.031.676.336 1.335.908 1.784 2.83 2.221 5.217 3.44 6.961 4.334.77.393 1.709.874 2.039 1.159-.013.32-.076.459-.107.484h-39.661c-1.331 0-2.41 1.079-2.41 2.41s1.079 2.41 2.41 2.41h39.77c1.938 0 4.82-1.443 4.82-5.423 0-2.944-2.373-4.157-4.668-5.33z"/></g></g></svg>