<svg height="64" width="64" xmlns="http://www.w3.org/2000/svg" xmlns:xlink="http://www.w3.org/1999/xlink"><linearGradient id="a"><stop offset="0" stop-color="#1365f4"/><stop offset="1" stop-color="#05b2fc"/></linearGradient><linearGradient id="b" gradientUnits="userSpaceOnUse" x1="399.57144" x2="399.57144" y1="545.79797" y2="517.79797"><stop offset="0" stop-color="#3889e9"/><stop offset="1" stop-color="#5ea5fb"/></linearGradient><linearGradient id="c" gradientUnits="userSpaceOnUse" x1="400.5119" x2="400.69922" xlink:href="#a" y1="546.07446" y2="517.77289"/><linearGradient gradientUnits="userSpaceOnUse" x1="41.16489" x2="54.039001" y1="89.36377" y2="20.836"><stop offset="0" stop-color="#e3e3e3"/><stop offset="1" stop-color="#fffcff"/></linearGradient><linearGradient id="d" gradientUnits="userSpaceOnUse" x1="394.81812" x2="396.73026" xlink:href="#a" y1="546.72809" y2="518.37012"/><g transform="translate(-376.57144 -491.79797)"><g transform="matrix(1.6773543 0 0 1.6773543 -263.44026 -368.29195)"><circle cx="400.57138" cy="531.79791" fill="url(#b)" r="0"/><g transform="matrix(1.117536624128 0 0 1.117536624128 -47.015292188816 -62.460177851153)"><circle cx="400.57138" cy="531.79791" fill="url(#c)" r="13.999958" stroke="url(#d)" stroke-width=".807692"/><circle cx="400.57144" cy="531.79797" fill="none" r="13.999958"/></g></g><path d="m399.83811 507.79797c-4.26667 0-4.26667 4.26667-4.26667 4.26667v23.46666c0 4.26667 4.03898 4.25893 4.26667 4.26667h17.06666s4.26667-.009 4.26667-4.26667v-23.46666c0-4.26667-4.26667-4.26667-4.26667-4.26667zm8.53333 4.26667c1.18202 0 2.13333.95882 2.13333 2.13333 0 1.1747-.95131 2.13333-2.13333 2.13333-1.18238 0-2.13333-.95863-2.13333-2.13333 0-1.17451.95095-2.13333 2.13333-2.13333zm0 6.4c4.71283 0 8.53333 3.8205 8.53333 8.53333s-3.8205 8.53333-8.53333 8.53333-8.53333-3.8205-8.53333-8.53333 3.8205-8.53333 8.53333-8.53333zm0 4.26666c-2.35641 0-4.26667 1.91025-4.26667 4.26667s1.91026 4.26667 4.26667 4.26667 4.26667-1.91025 4.26667-4.26667-1.91026-4.26667-4.26667-4.26667z" visibility="hidden"/></g></svg>