<svg height="64" width="64" xmlns="http://www.w3.org/2000/svg" xmlns:xlink="http://www.w3.org/1999/xlink"><linearGradient id="a" gradientTransform="matrix(1.0271756 0 0 .99998598 -18.40745 -7.992763)" gradientUnits="userSpaceOnUse" x1="416.05402" x2="415.93399" y1="556.86884" y2="506.1409"><stop offset="0" stop-color="#151515"/><stop offset="1" stop-color="#3f3f3f"/></linearGradient><linearGradient id="b" gradientTransform="matrix(.99305459 0 0 .75338885 3.055693 124.76103)" gradientUnits="userSpaceOnUse" x1="408.57144" x2="408.57144" y1="518.77545" y2="505.64764"><stop offset="0" stop-color="#f00"/><stop offset="1" stop-color="#f55"/></linearGradient><linearGradient id="c" gradientTransform="matrix(1 0 0 .99998598 0 -1.392837)" gradientUnits="userSpaceOnUse" x1="388.80453" x2="388.84509" y1="518.99725" y2="512.09192"><stop offset="0" stop-color="#e4bd27"/><stop offset="1" stop-color="#fff360"/></linearGradient><linearGradient id="d" gradientTransform="matrix(.98795181 0 0 .99998598 5.183591 .007143)" gradientUnits="userSpaceOnUse" x1="407.52512" x2="407.43796" y1="546.59906" y2="506.14133"><stop offset="0" stop-color="#bfc1c1"/><stop offset="1" stop-color="#f1f2f3"/></linearGradient><g transform="translate(-376.57144 -491.79797)"><path d="m388.57144 509.39797c-.554 0-1 .446-1 .99999v6.9999c0 .55399.446.99999 1 .99999h2v-8.99988z" fill="url(#c)"/><path d="m387.57144 499.9071v11.89084h2v12.99982h-1.51226s-.46183-.009-.48774.61307v21.78573c.0795 2.49606 2.192 2.60085 2.192 2.60085h37.4674s2.3406.0954 2.3406-2.19616v-27.61732c-.001-.20274-.20013-.1861-.20013-.1861h-.79987v-4.99993h.69755s.30915.003.30245-.3079v-9.39496c.008-.31882-.18801-.48501-.18801-.48501l-6.66758-6.66748c-.11113-.15531-.38964-.14441-.38964-.14441h-32.76277s-1.992.0669-1.992 2.10896z" fill="url(#a)"/><rect fill="url(#d)" fill-rule="evenodd" height="37.928623" ry="1.299982" width="35.749321" x="390.91476" y="505.83618"/><path d="m392.21014 505.82319c-.7173 0-1.29495.57763-1.29495 1.29493v5.69734c0 .0114.004.0219.004.0332h-.004v1.34768h35.749v-1.34768h-.004c.00029-.0113.004-.0218.004-.0332v-5.69734c0-.7173-.57765-1.29493-1.29496-1.29493z" fill="url(#b)"/><path d="m424.18256 512.07493-1.45308-4.00229-1.45304 4.00229z" fill="#edefef" fill-rule="evenodd"/><rect fill="#abb9be" height="15.59977" ry="7.799883" width="15.599988" x="400.77151" y="518.89795"/></g></svg>