<svg height="64" width="64" xmlns="http://www.w3.org/2000/svg" xmlns:xlink="http://www.w3.org/1999/xlink"><linearGradient id="a" gradientTransform="matrix(1.5292812 0 0 1.529412 -592.82053 -769.10295)" gradientUnits="userSpaceOnUse" x1="409.57144" x2="409.57144" y1="540.79797" y2="506.798"><stop offset="0" stop-color="#049b78"/><stop offset="1" stop-color="#40ca85"/></linearGradient><linearGradient id="b" gradientUnits="userSpaceOnUse" x1="32.01561" x2="32" y1="41.54594" y2="24"><stop offset="0" stop-color="#b0ffd6"/><stop offset="1" stop-color="#f6fbfb"/></linearGradient><path d="m32 6c-14.40275 0-25.9980469 11.59602-25.9980469 26s11.5952969 26 25.9980469 26 25.998047-11.59602 25.998047-26-11.595297-26-25.998047-26zm0 23c1.662 0 3 1.338 3 3s-1.338 3-3 3-3-1.338-3-3 1.338-3 3-3z" fill="url(#a)" transform=""/><path d="m32 23c-4.986 0-9 4.014-9 9s4.014 9 9 9 9-4.014 9-9-4.014-9-9-9zm0 1a8 8 0 0 1 8 8 8 8 0 0 1 -8 8 8 8 0 0 1 -8-8 8 8 0 0 1 8-8zm0 1a7 7 0 0 0 -7 7 7 7 0 0 0 7 7 7 7 0 0 0 7-7 7 7 0 0 0 -7-7zm0 4c1.662 0 3 1.338 3 3s-1.338 3-3 3-3-1.338-3-3 1.338-3 3-3z" fill="url(#b)" transform=""/><path d="m471.11732 530.73981c-.76741.21527-1.38522 1.07176-1.38522 1.90367v13.19006c-.77819-.42666-1.77761-.59922-2.81376-.31728-1.86973.50868-3.04139 2.15267-2.64059 3.67146.40079 1.51871 2.24266 2.36706 4.11239 1.85838 1.49167-.40583 2.5199-1.55412 2.68388-2.76492l.0433-12.46485 9.69662-2.71956v9.83584c-.77819-.42665-1.77762-.59916-2.81374-.31728-1.86976.50868-3.04141 2.15268-2.6406 3.67145.40079 1.51878 2.24266 2.36712 4.1124 1.85838 1.49166-.40578 2.51989-1.55407 2.68388-2.76492l.0433-16.2269c0-.62395-.36827-1.09074-.86578-1.17852z" fill="#d5fde9" transform="matrix(.41074315 0 0 .41074315 -146.771646344692 -189.561496654938)"/></svg>