<?xml version="1.0" encoding="UTF-8" standalone="no"?>
<!-- Created with Inkscape (http://www.inkscape.org/) -->

<svg
   xmlns:osb="http://www.openswatchbook.org/uri/2009/osb"
   xmlns:dc="http://purl.org/dc/elements/1.1/"
   xmlns:cc="http://creativecommons.org/ns#"
   xmlns:rdf="http://www.w3.org/1999/02/22-rdf-syntax-ns#"
   xmlns:svg="http://www.w3.org/2000/svg"
   xmlns="http://www.w3.org/2000/svg"
   xmlns:xlink="http://www.w3.org/1999/xlink"
   xmlns:sodipodi="http://sodipodi.sourceforge.net/DTD/sodipodi-0.dtd"
   xmlns:inkscape="http://www.inkscape.org/namespaces/inkscape"
   width="64"
   height="64"
   id="svg5453"
   version="1.1"
   inkscape:version="0.91 r13725"
   sodipodi:docname="media-flash-memory-stick.svg">
  <defs
     id="defs5455">
    <linearGradient
       gradientTransform="matrix(0,1.0271756,1,0,-499.79799,-395.97889)"
       gradientUnits="userSpaceOnUse"
       y2="537.79797"
       x2="401.07935"
       y1="537.79797"
       x1="432.23273"
       id="linearGradient4158"
       xlink:href="#linearGradient4289"
       inkscape:collect="always" />
    <linearGradient
       id="linearGradient4289">
      <stop
         style="stop-color:#151515;stop-opacity:1"
         offset="0"
         id="stop4291" />
      <stop
         style="stop-color:#3f3f3f;stop-opacity:1"
         offset="1"
         id="stop4293" />
    </linearGradient>
    <linearGradient
       id="linearGradient4207"
       osb:paint="gradient">
      <stop
         style="stop-color:#3498db;stop-opacity:1;"
         offset="0"
         id="stop3371" />
      <stop
         style="stop-color:#3498db;stop-opacity:0;"
         offset="1"
         id="stop3373" />
    </linearGradient>
    <linearGradient
       id="linearGradient3687">
      <stop
         style="stop-color:#1a1a1a;stop-opacity:1"
         offset="0"
         id="stop3689" />
      <stop
         id="stop3691"
         offset="0.11054216"
         style="stop-color:#2c2c2e;stop-opacity:1" />
      <stop
         id="stop3693"
         offset="0.29001436"
         style="stop-color:#2b2b2d;stop-opacity:1" />
      <stop
         id="stop3695"
         offset="0.5118711"
         style="stop-color:#2a2b2d;stop-opacity:1" />
      <stop
         id="stop3699"
         offset="0.75173318"
         style="stop-color:#2b2b2d;stop-opacity:1" />
      <stop
         style="stop-color:#323232;stop-opacity:1"
         offset="0.89659214"
         id="stop3701" />
      <stop
         style="stop-color:#171717;stop-opacity:1"
         offset="1"
         id="stop3703" />
    </linearGradient>
  </defs>
  <sodipodi:namedview
     id="base"
     pagecolor="#5c5c5c"
     bordercolor="#666666"
     borderopacity="1.0"
     inkscape:pageopacity="0"
     inkscape:pageshadow="2"
     inkscape:zoom="5.703125"
     inkscape:cx="9.1477831"
     inkscape:cy="34.717073"
     inkscape:document-units="px"
     inkscape:current-layer="layer1"
     showgrid="false"
     fit-margin-top="0"
     fit-margin-left="0"
     fit-margin-right="0"
     fit-margin-bottom="0"
     inkscape:window-width="1366"
     inkscape:window-height="642"
     inkscape:window-x="0"
     inkscape:window-y="33"
     inkscape:window-maximized="1"
     inkscape:showpageshadow="false"
     borderlayer="true"
     showguides="false"
     showborder="true">
    <inkscape:grid
       type="xygrid"
       id="grid4063"
       originx="7.9999866px"
       originy="7.9999772px"
       empspacing="2" />
    <sodipodi:guide
       position="0,0"
       orientation="0,64"
       id="guide4196" />
    <sodipodi:guide
       position="64,0"
       orientation="-64,0"
       id="guide4198" />
    <sodipodi:guide
       position="64,64"
       orientation="0,-64"
       id="guide4200" />
    <sodipodi:guide
       position="6,58"
       orientation="52,0"
       id="guide4202" />
    <sodipodi:guide
       position="6,6"
       orientation="0,52"
       id="guide4204" />
    <sodipodi:guide
       position="58,6"
       orientation="-52,0"
       id="guide4206" />
    <sodipodi:guide
       position="58,58"
       orientation="0,-52"
       id="guide4208" />
  </sodipodi:namedview>
  <metadata
     id="metadata5458">
    <rdf:RDF>
      <cc:Work
         rdf:about="">
        <dc:format>image/svg+xml</dc:format>
        <dc:type
           rdf:resource="http://purl.org/dc/dcmitype/StillImage" />
        <dc:title></dc:title>
      </cc:Work>
    </rdf:RDF>
  </metadata>
  <g
     inkscape:label="Layer 1"
     inkscape:groupmode="layer"
     id="layer1"
     transform="translate(-376.57144,-491.79797)">
    <path
       style="opacity:1;fill:url(#linearGradient4158);fill-opacity:1.0;stroke:none"
       d="m 6,17.983562 0,22.038356 c 0,0.978105 0.3126408,1.290723 0.9986301,1.976712 l 4.9917809,4.991781 C 12.999987,48.000023 12.978435,48 13.972603,48 L 21,48 l 2,0 5,0 2,0 25.989041,0 C 55.999987,48.000023 58,48.017548 58,46.005479 l 0,-3.366807 C 57.357191,41.909798 57.001722,40.971832 57,40 c 0.0017,-0.971832 0.357191,-1.909798 1,-2.638672 L 58,17.970254 C 58,18.000023 58.024078,16 56.057101,16 L 33,16 20,16 7.9890411,16 C 6,16.000023 6,17.983562 6,17.983562 Z"
       id="rect4139"
       inkscape:connector-curvature="0"
       sodipodi:nodetypes="cccccccccccccccccccc"
       transform="translate(376.57144,491.79797)" />
    <path
       style="fill:#ffffff;fill-opacity:1;fill-rule:evenodd;stroke:none;stroke-width:1px;stroke-linecap:butt;stroke-linejoin:miter;stroke-opacity:1"
       d="m 393.59722,535.68997 -3.72765,-2.11589 3.72765,-2.11586 z"
       id="path4616"
       inkscape:connector-curvature="0"
       sodipodi:nodetypes="cccc" />
    <g
       style="font-style:normal;font-weight:normal;font-size:4.87815094px;line-height:125%;font-family:sans-serif;letter-spacing:0px;word-spacing:0px;fill:#ffffff;fill-opacity:1;stroke:none;stroke-width:1px;stroke-linecap:butt;stroke-linejoin:miter;stroke-opacity:1"
       id="text4243">
      <path
         d="m 401.85942,534.91028 0,-2.3903 0.42928,0 0,0.33172 0.0195,0 q 0.10244,-0.17074 0.3122,-0.28781 0.21464,-0.12196 0.4244,-0.12196 0.55611,0 0.75611,0.45855 0.29269,-0.45855 0.83417,-0.45855 0.4244,0 0.63903,0.27318 0.21464,0.2683 0.21464,0.73172 l 0,1.46345 -0.44879,0 0,-1.39515 q 0,-0.36099 -0.13171,-0.51221 -0.13171,-0.15122 -0.4,-0.15122 -0.26343,0 -0.43904,0.22439 -0.17073,0.2244 -0.17073,0.51221 l 0,1.32198 -0.44879,0 0,-1.39515 q 0,-0.36099 -0.13171,-0.51221 -0.13171,-0.15122 -0.40001,-0.15122 -0.26342,0 -0.43904,0.22439 -0.17073,0.2244 -0.17073,0.51221 l 0,1.32198 -0.44879,0 z"
         style="font-style:normal;font-variant:normal;font-weight:normal;font-stretch:normal;font-family:'Product Sans';-inkscape-font-specification:'Product Sans';fill:#ffffff;fill-opacity:1"
         id="path4161" />
      <path
         d="m 407.09642,534.98833 q -0.54148,0 -0.88295,-0.36098 -0.33659,-0.36099 -0.33659,-0.91222 0,-0.52196 0.32684,-0.89758 0.33171,-0.37562 0.84392,-0.37562 0.53172,0 0.8488,0.34635 0.32195,0.34635 0.32195,0.92685 l -0.005,0.0829 -1.88785,0 q 0.0195,0.36098 0.23903,0.57074 0.2244,0.20976 0.52196,0.20976 0.48294,0 0.65367,-0.40976 l 0.40001,0.16586 q -0.11707,0.27805 -0.38537,0.4683 -0.2683,0.18537 -0.65855,0.18537 z m 0.64391,-1.56101 q -0.0146,-0.20488 -0.19024,-0.39025 -0.17074,-0.18537 -0.51221,-0.18537 -0.24878,0 -0.43415,0.1561 -0.1805,0.1561 -0.24879,0.41952 l 1.38539,0 z"
         style="font-style:normal;font-variant:normal;font-weight:normal;font-stretch:normal;font-family:'Product Sans';-inkscape-font-specification:'Product Sans';fill:#ffffff;fill-opacity:1"
         id="path4163" />
      <path
         d="m 408.62404,534.91028 0,-2.3903 0.42928,0 0,0.33172 0.0195,0 q 0.10244,-0.17074 0.3122,-0.28781 0.21464,-0.12196 0.4244,-0.12196 0.55611,0 0.75612,0.45855 0.29269,-0.45855 0.83416,-0.45855 0.4244,0 0.63904,0.27318 0.21464,0.2683 0.21464,0.73172 l 0,1.46345 -0.44879,0 0,-1.39515 q 0,-0.36099 -0.13171,-0.51221 -0.13171,-0.15122 -0.40001,-0.15122 -0.26342,0 -0.43903,0.22439 -0.17074,0.2244 -0.17074,0.51221 l 0,1.32198 -0.44879,0 0,-1.39515 q 0,-0.36099 -0.13171,-0.51221 -0.13171,-0.15122 -0.40001,-0.15122 -0.26342,0 -0.43903,0.22439 -0.17074,0.2244 -0.17074,0.51221 l 0,1.32198 -0.44879,0 z"
         style="font-style:normal;font-variant:normal;font-weight:normal;font-stretch:normal;font-family:'Product Sans';-inkscape-font-specification:'Product Sans';fill:#ffffff;fill-opacity:1"
         id="path4165" />
      <path
         d="m 412.98785,532.8078 q 0.34635,-0.36587 0.88295,-0.36587 0.5366,0 0.88294,0.36587 0.34635,0.36098 0.34635,0.90733 0,0.54635 -0.34635,0.91222 -0.34634,0.36098 -0.88294,0.36098 -0.5366,0 -0.88295,-0.36098 -0.34635,-0.36587 -0.34635,-0.91222 0,-0.54635 0.34635,-0.90733 z m 0.33172,1.53661 q 0.23415,0.23415 0.55123,0.23415 0.31708,0 0.54635,-0.23415 0.23415,-0.23903 0.23415,-0.62928 0,-0.39025 -0.23415,-0.6244 -0.22927,-0.23903 -0.54635,-0.23903 -0.31708,0 -0.55123,0.23903 -0.22928,0.23415 -0.22928,0.6244 0,0.39025 0.22928,0.62928 z"
         style="font-style:normal;font-variant:normal;font-weight:normal;font-stretch:normal;font-family:'Product Sans';-inkscape-font-specification:'Product Sans';fill:#ffffff;fill-opacity:1"
         id="path4167" />
      <path
         d="m 415.91368,534.91028 -0.44879,0 0,-2.3903 0.42927,0 0,0.39026 0.0195,0 q 0.0683,-0.19513 0.27805,-0.32196 0.21464,-0.12683 0.41464,-0.12683 0.20001,0 0.3366,0.0585 l -0.17074,0.41953 q -0.0878,-0.0342 -0.23903,-0.0342 -0.24391,0 -0.43415,0.19512 -0.18537,0.19025 -0.18537,0.50245 l 0,1.30735 z"
         style="font-style:normal;font-variant:normal;font-weight:normal;font-stretch:normal;font-family:'Product Sans';-inkscape-font-specification:'Product Sans';fill:#ffffff;fill-opacity:1"
         id="path4169" />
      <path
         d="m 417.9237,535.96396 -0.46342,0 0.55611,-1.2049 -0.98539,-2.23908 0.48782,0 0.71221,1.71711 0.01,0 0.6927,-1.71711 0.48782,0 -1.4976,3.44398 z"
         style="font-style:normal;font-variant:normal;font-weight:normal;font-stretch:normal;font-family:'Product Sans';-inkscape-font-specification:'Product Sans';fill:#ffffff;fill-opacity:1"
         id="path4171" />
      <path
         d="m 421.67866,534.98833 q -0.40001,0 -0.66343,-0.19513 -0.25854,-0.19512 -0.38049,-0.48781 l 0.4,-0.16586 q 0.19025,0.44879 0.6488,0.44879 0.20976,0 0.34147,-0.0927 0.13659,-0.0927 0.13659,-0.24391 0,-0.23415 -0.32684,-0.31708 l -0.48294,-0.11708 q -0.22927,-0.0585 -0.43415,-0.21951 -0.20488,-0.16586 -0.20488,-0.44392 0,-0.31708 0.27805,-0.5122 0.28293,-0.20001 0.66831,-0.20001 0.31708,0 0.56586,0.14635 0.24879,0.14146 0.35611,0.40976 l -0.39025,0.16098 q -0.13171,-0.31708 -0.54636,-0.31708 -0.2,0 -0.33659,0.0829 -0.13659,0.0829 -0.13659,0.2244 0,0.20488 0.31708,0.27805 l 0.47318,0.1122 q 0.3366,0.078 0.49757,0.2683 0.16098,0.19024 0.16098,0.42927 0,0.32196 -0.26342,0.5366 -0.26342,0.21464 -0.67806,0.21464 z"
         style="font-style:normal;font-variant:normal;font-weight:normal;font-stretch:normal;font-family:'Product Sans';-inkscape-font-specification:'Product Sans';fill:#ffffff;fill-opacity:1"
         id="path4173" />
      <path
         d="m 424.01636,534.9493 q -0.37562,0 -0.57562,-0.2 -0.19513,-0.2 -0.19513,-0.56587 l 0,-1.25368 -0.41952,0 0,-0.40977 0.41952,0 0,-0.73172 0.44879,0 0,0.73172 0.58538,0 0,0.40977 -0.58538,0 0,1.21954 q 0,0.39025 0.32196,0.39025 0.12196,0 0.20488,-0.039 l 0.1561,0.38538 q -0.14634,0.0634 -0.36098,0.0634 z"
         style="font-style:normal;font-variant:normal;font-weight:normal;font-stretch:normal;font-family:'Product Sans';-inkscape-font-specification:'Product Sans';fill:#ffffff;fill-opacity:1"
         id="path4175" />
      <path
         d="m 425.22309,531.91997 q -0.0927,0.0927 -0.22439,0.0927 -0.13171,0 -0.2244,-0.0927 -0.0927,-0.0927 -0.0927,-0.22439 0,-0.13171 0.0927,-0.2244 0.0927,-0.0927 0.2244,-0.0927 0.13171,0 0.22439,0.0927 0.0927,0.0927 0.0927,0.2244 0,0.13171 -0.0927,0.22439 z m 0,2.99031 -0.44879,0 0,-2.3903 0.44879,0 0,2.3903 z"
         style="font-style:normal;font-variant:normal;font-weight:normal;font-stretch:normal;font-family:'Product Sans';-inkscape-font-specification:'Product Sans';fill:#ffffff;fill-opacity:1"
         id="path4177" />
      <path
         d="m 426.87603,534.98833 q -0.5366,0 -0.88295,-0.36098 -0.34635,-0.36587 -0.34635,-0.91222 0,-0.54635 0.34635,-0.90733 0.34635,-0.36587 0.88295,-0.36587 0.4,0 0.66342,0.19513 0.26342,0.19513 0.38538,0.49269 l -0.40977,0.17074 q -0.18537,-0.44879 -0.6683,-0.44879 -0.29757,0 -0.52684,0.24391 -0.2244,0.2439 -0.2244,0.61952 0,0.37562 0.2244,0.61953 0.22927,0.2439 0.52684,0.2439 0.50245,0 0.69269,-0.44879 l 0.40001,0.17074 q -0.12195,0.29269 -0.39513,0.49269 -0.2683,0.19513 -0.6683,0.19513 z"
         style="font-style:normal;font-variant:normal;font-weight:normal;font-stretch:normal;font-family:'Product Sans';-inkscape-font-specification:'Product Sans';fill:#ffffff;fill-opacity:1"
         id="path4179" />
      <path
         d="m 428.77599,531.41752 0,2.15127 1.03417,-1.04881 0.57562,0 0,0.0195 -0.93173,0.93172 0.97563,1.41955 0,0.0195 -0.54147,0 -0.75124,-1.12685 -0.36098,0.36098 0,0.76587 -0.44879,0 0,-3.49276 0.44879,0 z"
         style="font-style:normal;font-variant:normal;font-weight:normal;font-stretch:normal;font-family:'Product Sans';-inkscape-font-specification:'Product Sans';fill:#ffffff;fill-opacity:1"
         id="path4181" />
    </g>
    <path
       style="fill:#ffffff;fill-opacity:1;stroke:#909296;stroke-width:0.02900505;stroke-miterlimit:4;stroke-dasharray:none;stroke-opacity:1"
       inkscape:connector-curvature="0"
       d="m 422.13253,512.63029 -10e-4,1.07335 c 2e-5,0.0409 0.0129,0.0801 0.0361,0.10897 0.0233,0.0289 0.0547,0.0452 0.0876,0.0454 l 0.86502,10e-4 c 0.0685,2.9e-4 0.12419,-0.0685 0.12416,-0.15356 l 1.4e-4,-0.14964 0.65907,0.001 0.61455,1.13784 -2.5182,-0.005 4e-4,-0.39572 c 5e-5,-0.0425 -0.0177,-0.0819 -0.0469,-0.10391 -0.0293,-0.0221 -0.0656,-0.0239 -0.096,-0.005 l -1.21853,0.78044 c -0.0324,0.0209 -0.0529,0.0625 -0.053,0.10792 8e-5,0.0455 0.0203,0.087 0.0527,0.10803 l 1.2163,0.78573 c 0.0303,0.0195 0.0668,0.0181 0.096,-0.004 0.0293,-0.0221 0.0471,-0.0615 0.0472,-0.1039 l 4e-4,-0.39607 3.48782,0.008 -0.66651,1.22475 -0.52333,-10e-4 c -0.10098,-0.19005 -0.27411,-0.3158 -0.47115,-0.31624 -0.31267,-6.7e-4 -0.56651,0.31312 -0.56689,0.70154 -4e-4,0.38769 0.25244,0.70242 0.5651,0.70325 0.19718,4e-4 0.37062,-0.12461 0.47214,-0.31423 l 0.68908,10e-4 c 0.10393,2.9e-4 0.201,-0.0635 0.25904,-0.17059 l 0.99429,-1.82734 1.07563,0.003 c 0.1113,0.2577 0.32779,0.43517 0.57997,0.43571 0.36552,4e-4 0.66238,-0.36621 0.66316,-0.81986 4e-4,-0.45418 -0.29515,-0.82254 -0.66078,-0.82332 -0.25214,-4e-4 -0.4688,0.17592 -0.58097,0.43316 l -2.04532,-0.005 -0.94074,-1.7419 c -0.0113,-0.0209 -0.0241,-0.0403 -0.0382,-0.0577 -0.0578,-0.072 -0.13687,-0.11368 -0.22044,-0.11382 l -0.82495,-0.001 2e-4,-0.14974 c -2e-5,-0.0409 -0.0131,-0.08 -0.0363,-0.1089 -0.0232,-0.0289 -0.0547,-0.0451 -0.0877,-0.0453 l -0.8648,-10e-4 c -0.0686,-2.6e-4 -0.12413,0.0684 -0.12418,0.15353 z"
       id="path4744" />
  </g>
</svg>
