<svg height="64" width="64" xmlns="http://www.w3.org/2000/svg" xmlns:xlink="http://www.w3.org/1999/xlink"><linearGradient id="a" gradientTransform="matrix(1.5292812 0 0 1.529412 -592.82053 -769.10295)" gradientUnits="userSpaceOnUse" x1="409.57144" x2="409.57144" y1="540.79797" y2="506.798"><stop offset="0" stop-color="#d1d7df"/><stop offset="1" stop-color="#e0e5e7"/></linearGradient><linearGradient id="b" gradientUnits="userSpaceOnUse" x1="31.838835" x2="32" y1="40.485283" y2="24"><stop offset="0" stop-color="#3d434a"/><stop offset="1" stop-color="#5f6974"/></linearGradient><path d="m32 6c-14.40275 0-25.9980469 11.59602-25.9980469 26s11.5952969 26 25.9980469 26 25.998047-11.59602 25.998047-26-11.595297-26-25.998047-26zm0 23c1.662 0 3 1.338 3 3s-1.338 3-3 3-3-1.338-3-3 1.338-3 3-3z" fill="url(#a)" transform=""/><path d="m32 23c-4.986 0-9 4.014-9 9s4.014 9 9 9 9-4.014 9-9-4.014-9-9-9zm0 1a8 8 0 0 1 8 8 8 8 0 0 1 -8 8 8 8 0 0 1 -8-8 8 8 0 0 1 8-8zm0 1a7 7 0 0 0 -7 7 7 7 0 0 0 7 7 7 7 0 0 0 7-7 7 7 0 0 0 -7-7zm0 4c1.662 0 3 1.338 3 3s-1.338 3-3 3-3-1.338-3-3 1.338-3 3-3z" fill="url(#b)" opacity=".791" transform=""/></svg>