<svg height="64" width="64" xmlns="http://www.w3.org/2000/svg" xmlns:xlink="http://www.w3.org/1999/xlink"><linearGradient id="a"><stop offset="0" stop-color="#ff3069"/><stop offset="1" stop-color="#ffa548"/></linearGradient><linearGradient id="b" gradientTransform="matrix(.93022459 0 0 .91890978 14.81504 32.586917)" gradientUnits="userSpaceOnUse" x1="169.50124" x2="159.23744" xlink:href="#a" y1="624.71625" y2="63.268539"/><linearGradient id="c" gradientUnits="userSpaceOnUse" x1="8.166716" x2="8.114987" y1="1050.4657" y2="1038.3525"><stop offset="0" stop-color="#141414"/><stop offset="1" stop-color="#2d2d2f"/></linearGradient><linearGradient id="d" gradientUnits="userSpaceOnUse" x1="159.46292" x2="160.66307" xlink:href="#a" y1="668.02557" y2="596.96564"/><linearGradient id="e" gradientUnits="userSpaceOnUse" x1="159.462936910238" x2="160.663071818746" xlink:href="#a" y1="668.025573700364" y2="596.965628709752"/><g transform="matrix(.086412203383 0 0 .07516574 18.05806492458 6.230717986722)"><rect fill="url(#b)" fill-rule="evenodd" height="525.80939" ry="9.302246" width="292.69278" x="18.553144" y="87.912102"/><path d="m11.403509 1037.3622h-6.807018c-.310036 0-.561404.2514-.561404.5614v12.8772c0 .31.251368.5614.561404.5614h6.807018c.310035 0 .561404-.2514.561404-.5614v-12.8772c0-.31-.251369-.5614-.561404-.5614zm-.08154 11.7777h-6.643931v-9.5554h6.643931z" fill="url(#c)" transform="matrix(42.98335 0 0 49.41461 -182.5246 -51263.918)"/><ellipse cx="161.34221" cy="637.97839" fill="url(#d)" fill-rule="evenodd" rx="25.225653" ry="28.999971" stroke="url(#e)" stroke-linecap="round" stroke-width="7.410893"/></g></svg>