<svg enable-background="new" height="16.000004" width="16" xmlns="http://www.w3.org/2000/svg" xmlns:xlink="http://www.w3.org/1999/xlink"><filter id="a" color-interpolation-filters="sRGB"><feBlend in2="BackgroundImage" mode="darken"/></filter><path d="m11 3a8 8 0 0 0 -8 8 8 8 0 0 0 8 8 8 8 0 0 0 8-8 8 8 0 0 0 -8-8zm-.0059 3.5c.764076 0 1.384683.2191787 1.863281.6582031.478597.4308943.71875.9834064.71875 1.6582031 0 .292683-.0807.589812-.240234.890625-.159533.3008128-.301788.5164028-.427735.6464848-.11755.121951-.285599.28144-.503906.476562l-.0625.06055c-.512183.447154-.769531.894642-.769531 1.341797v.486328h-1.183594v-.572266c0-.365853.0807-.67929.240234-.939453.159533-.268292.440721-.581729.84375-.939453.226704-.203252.386155-.3536108.478516-.4511718.100757-.105691.196701-.2469194.289062-.4257812.100758-.1869919.152344-.3790968.152344-.5742188 0-.3739837-.127013-.6747014-.378906-.9023437-.243497-.2276423-.582916-.3417969-1.019531-.3417969-.722095 0-1.2176422.3913872-1.4863285 1.171875l-1.0839434-.4394561c.1763254-.4634146.4799844-.878287.9082031-1.2441406.4366152-.3739838.9903938-.5605469 1.6621098-.5605469zm-.01367 7.341797c.243497 0 .445936.08154.605469.244141.167928.162601.251953.356342.251953.583984s-.08403.423336-.251953.585937c-.159494.162602-.361933.244141-.60543.244141s-.449259-.081539-.617188-.244141c-.159532-.162601-.238281-.358295-.238281-.585937s.07875-.421383.238281-.583984c.167929-.162602.373691-.244141.617188-.244141z" fill="#4d4d4d" fill-rule="evenodd" transform="matrix(.7499999975 0 0 .7499999975 -.249997063929 -.249994807291)"/><g filter="url(#a)" transform="translate(-364.99759 251)"/></svg>