<?xml version="1.0" encoding="UTF-8" standalone="no"?>
<!-- Created with Inkscape (http://www.inkscape.org/) -->

<svg
   xmlns:sketch="http://www.bohemiancoding.com/sketch/ns"
   xmlns:osb="http://www.openswatchbook.org/uri/2009/osb"
   xmlns:dc="http://purl.org/dc/elements/1.1/"
   xmlns:cc="http://creativecommons.org/ns#"
   xmlns:rdf="http://www.w3.org/1999/02/22-rdf-syntax-ns#"
   xmlns:svg="http://www.w3.org/2000/svg"
   xmlns="http://www.w3.org/2000/svg"
   xmlns:xlink="http://www.w3.org/1999/xlink"
   xmlns:sodipodi="http://sodipodi.sourceforge.net/DTD/sodipodi-0.dtd"
   xmlns:inkscape="http://www.inkscape.org/namespaces/inkscape"
   width="48"
   height="48"
   id="svg5453"
   version="1.1"
   inkscape:version="0.91 r13725"
   sodipodi:docname="appointment-missed.svg">
  <defs
     id="defs5455">
    <linearGradient
       id="linearGradient4143"
       inkscape:collect="always">
      <stop
         id="stop4145"
         offset="0"
         style="stop-color:#197cf1;stop-opacity:1" />
      <stop
         id="stop4147"
         offset="1"
         style="stop-color:#20bcfa;stop-opacity:1" />
    </linearGradient>
    <linearGradient
       y2="517.79797"
       x2="400.57138"
       y1="545.79797"
       x1="400.57138"
       gradientTransform="matrix(1.4285729,0,0,1.4285729,-163.67403,-235.91408)"
       gradientUnits="userSpaceOnUse"
       id="linearGradient4224"
       xlink:href="#linearGradient4191"
       inkscape:collect="always" />
    <linearGradient
       gradientTransform="matrix(0.57451715,0,0,0.57451715,157.61022,217.52294)"
       gradientUnits="userSpaceOnUse"
       y2="509.33136"
       x2="441.04468"
       y1="542.05408"
       x1="442.2796"
       id="linearGradient4278"
       xlink:href="#linearGradient4143"
       inkscape:collect="always" />
    <linearGradient
       osb:paint="gradient"
       id="linearGradient4207">
      <stop
         id="stop3371"
         offset="0"
         style="stop-color:#3498db;stop-opacity:1;" />
      <stop
         id="stop3373"
         offset="1"
         style="stop-color:#3498db;stop-opacity:0;" />
    </linearGradient>
    <linearGradient
       inkscape:collect="always"
       id="linearGradient4191">
      <stop
         style="stop-color:#2e3e46;stop-opacity:1"
         offset="0"
         id="stop4193" />
      <stop
         style="stop-color:#47606a;stop-opacity:1"
         offset="1"
         id="stop4195" />
    </linearGradient>
  </defs>
  <sodipodi:namedview
     id="base"
     pagecolor="#ffffff"
     bordercolor="#666666"
     borderopacity="1.0"
     inkscape:pageopacity="0"
     inkscape:pageshadow="2"
     inkscape:zoom="7.9999995"
     inkscape:cx="21.230115"
     inkscape:cy="20.104607"
     inkscape:document-units="px"
     inkscape:current-layer="layer1"
     showgrid="true"
     fit-margin-top="0"
     fit-margin-left="0"
     fit-margin-right="0"
     fit-margin-bottom="0"
     inkscape:window-width="1366"
     inkscape:window-height="630"
     inkscape:window-x="0"
     inkscape:window-y="36"
     inkscape:window-maximized="1"
     inkscape:showpageshadow="false"
     borderlayer="true"
     showguides="true">
    <inkscape:grid
       type="xygrid"
       id="grid4063" />
    <sodipodi:guide
       position="4.2167969e-05,32.000026"
       orientation="32,0"
       id="guide4625" />
    <sodipodi:guide
       position="4.2167969e-05,2.6367188e-05"
       orientation="0,31.999969"
       id="guide4627" />
    <sodipodi:guide
       position="32.000012,2.6367188e-05"
       orientation="-32,0"
       id="guide4629" />
    <sodipodi:guide
       position="32.000012,32.000026"
       orientation="0,-31.999969"
       id="guide4631" />
    <sodipodi:guide
       position="2.0000422,30.000026"
       orientation="28,0"
       id="guide4633" />
    <sodipodi:guide
       position="2.0000422,2.0000264"
       orientation="0,27.999969"
       id="guide4635" />
    <sodipodi:guide
       position="30,17"
       orientation="-28,0"
       id="guide4637" />
    <sodipodi:guide
       position="30.000012,30.000026"
       orientation="0,-27.999969"
       id="guide4639" />
    <sodipodi:guide
       position="9.0000117,23.000026"
       orientation="14,0"
       id="guide4162" />
    <sodipodi:guide
       position="9.0000117,9.0000264"
       orientation="0,13.999969"
       id="guide4164" />
    <sodipodi:guide
       position="22.999981,9.0000264"
       orientation="-14,0"
       id="guide4166" />
    <sodipodi:guide
       position="22.999981,23.000026"
       orientation="0,-13.999969"
       id="guide4168" />
  </sodipodi:namedview>
  <metadata
     id="metadata5458">
    <rdf:RDF>
      <cc:Work
         rdf:about="">
        <dc:format>image/svg+xml</dc:format>
        <dc:type
           rdf:resource="http://purl.org/dc/dcmitype/StillImage" />
        <dc:title></dc:title>
      </cc:Work>
    </rdf:RDF>
  </metadata>
  <g
     inkscape:label="Capa 1"
     inkscape:groupmode="layer"
     id="layer1"
     transform="translate(-384.57143,-499.798)">
    <g
       id="layer1-4"
       inkscape:label="Capa 1">
      <g
         transform="matrix(1.15,0,0,1.15,-61.285728,-78.569705)"
         id="g4280">
        <rect
           ry="20"
           y="503.798"
           x="388.57144"
           height="40"
           width="40"
           id="rect4222"
           style="opacity:1;fill:url(#linearGradient4224);fill-opacity:1;stroke:none" />
        <path
           d="m 410.71832,523.81718 c -0.0552,-0.45802 -0.22926,-0.87572 -0.4968,-1.22452 l 1.8368,-11.39934 c 0.0684,-0.42414 -0.20372,-0.82852 -0.62224,-0.9252 l -0.0206,-0.004 c -0.41852,-0.0968 -0.84028,0.1476 -0.96482,0.55874 l -3.34617,11.05067 c -0.82462,0.41464 -1.39706,1.25987 -1.39706,2.24427 0,1.38994 1.13028,2.5209 2.52016,2.5209 0.259,0 0.50392,-0.0506 0.73918,-0.1234 l 6.99053,3.63279 c 0.38461,0.1998 0.85803,0.075 1.09405,-0.2885 l 0.01,-0.016 c 0.23608,-0.3634 0.1576,-0.84673 -0.1816,-1.11673 z m -3.73547,0.29996 c 0,-0.6863 0.5586,-1.24488 1.24488,-1.24488 0.6869,0 1.24549,0.55858 1.24549,1.24488 0,0.6868 -0.55859,1.24548 -1.24549,1.24548 -0.68628,0 -1.24488,-0.5586 -1.24488,-1.24548 z"
           id="path5"
           inkscape:connector-curvature="0"
           sodipodi:nodetypes="cccccccssccccccsssss"
           style="fill:url(#linearGradient4278);fill-opacity:1" />
      </g>
    </g>
    <g
       transform="matrix(0.89258405,0,0,0.89258405,-65.920239,9.888136)"
       id="layer1-8"
       inkscape:label="Capa 1">
      <g
         style="fill:#da4453;fill-opacity:1"
         transform="matrix(0.14324114,0,0,0.14324114,536.15337,581.15537)"
         sketch:type="MSLayerGroup"
         id="cross41">
        <path
           style="fill:#da4453;fill-opacity:1"
           inkscape:connector-curvature="0"
           sketch:type="MSShapeGroup"
           id="path4493"
           d="M 117.18,31.592 C 111.585,22.006 103.995,14.416 94.409,8.821 84.821,3.226 74.354,0.429 63.001,0.429 51.649,0.429 41.179,3.226 31.593,8.821 22.006,14.415 14.416,22.005 8.821,31.592 3.225,41.179 0.428,51.649 0.428,63 c 0,11.352 2.798,21.82 8.392,31.408 5.595,9.585 13.185,17.176 22.772,22.771 9.587,5.595 20.056,8.392 31.408,8.392 11.352,0 21.822,-2.797 31.408,-8.392 9.586,-5.594 17.176,-13.185 22.771,-22.771 5.594,-9.587 8.391,-20.057 8.391,-31.408 0,-11.352 -2.797,-21.822 -8.39,-31.408 l 0,0 z M 92.493,77.746 c 1.032,1.031 1.549,2.255 1.549,3.667 0,1.466 -0.517,2.716 -1.549,3.747 l -7.332,7.333 c -1.032,1.032 -2.281,1.548 -3.748,1.548 -1.412,0 -2.636,-0.516 -3.666,-1.548 L 63,77.746 48.253,92.493 c -1.032,1.032 -2.254,1.548 -3.666,1.548 -1.467,0 -2.716,-0.516 -3.748,-1.548 L 33.506,85.16 c -1.032,-1.031 -1.548,-2.281 -1.548,-3.747 0,-1.412 0.516,-2.636 1.548,-3.667 L 48.253,63 33.506,48.253 c -1.032,-1.031 -1.548,-2.254 -1.548,-3.666 0,-1.467 0.516,-2.716 1.548,-3.748 l 7.333,-7.332 c 1.032,-1.032 2.281,-1.548 3.748,-1.548 1.412,0 2.634,0.516 3.666,1.548 L 63,48.253 77.747,33.507 c 1.03,-1.032 2.254,-1.548 3.666,-1.548 1.467,0 2.716,0.516 3.748,1.548 l 7.332,7.332 c 1.032,1.032 1.549,2.281 1.549,3.748 0,1.412 -0.517,2.635 -1.549,3.666 L 77.747,63 l 14.746,14.746 0,0 z" />
      </g>
    </g>
  </g>
</svg>
