<svg enable-background="new" height="16" width="16" xmlns="http://www.w3.org/2000/svg"><path d="m5.8707661 2.0055476c-.2250425.037527-.6751274.2000378-.6751274.8001511v.8001511h2.4004532.3250615l.2500471.2500472 3.2006045 3.2006043.225042.2250425v.3250614c.0024 1.0184968-.0016 2.4088078 0 3.5506708.000216.177185-.000096.287062 0 .450085h.800151c.800151 0 .800151-.800151.800151-.800151.01504-.03688.004-3.5629932 0-5.601058l-3.2006036-3.2006044h-4.0007556s-.05001-.012482-.1250237 0zm-2.4004533 2.3926393c-.2250424.0375271-.6751274.2000378-.6751274.8001511v8.001511c0 .800151.8001511.800151.8001511.800151h6.4012089c.8001506 0 .8001506-.800151.8001506-.800151.01504-.03688.004-3.562993 0-5.6010577l-3.2006041-3.2006044h-4.0007554s-.05001-.012482-.1250237 0z" fill="#bebebe" stroke-width=".800151"/></svg>