<svg xmlns="http://www.w3.org/2000/svg" viewBox="0 0 16 16">
  <defs id="defs3051">
    <style type="text/css" id="current-color-scheme">
      .ColorScheme-Text {
        color:#bebebe;
      }
      </style>
  </defs>
 <path 
     style="fill:currentColor;fill-opacity:1;stroke:none" 
     class="ColorScheme-Text"
     d="M 12 0.00390625 C 10.34315 0.00390625 9 1.3470563 9 3.0039062 C 9 3.2351762 9.04435 3.4439062 9.09375 3.6601562 L 5.875 5.6601562 C 5.36159 5.2488862 4.70904 5.0039062 4 5.0039062 C 2.34315 5.0039062 1 6.3470563 1 8.0039062 C 1 9.6607562 2.34315 11.003906 4 11.003906 C 4.70904 11.003906 5.36154 10.758926 5.875 10.347656 L 9.09375 12.347656 C 9.04425 12.563906 9 12.772636 9 13.003906 C 9 14.660756 10.34315 16.003906 12 16.003906 C 13.65685 16.003906 15 14.660756 15 13.003906 C 15 11.347056 13.65685 10.003906 12 10.003906 C 11.29096 10.003906 10.63846 10.248886 10.125 10.660156 L 6.90625 8.6601562 C 6.95575 8.4439062 7 8.2351762 7 8.0039062 C 7 7.7726363 6.95575 7.5639063 6.90625 7.3476562 L 10.125 5.3476562 C 10.63841 5.7589263 11.29096 6.0039062 12 6.0039062 C 13.65685 6.0039062 15 4.6607562 15 3.0039062 C 15 1.3470563 13.65685 0.00390625 12 0.00390625 z "
     />
</svg>
