<svg xmlns="http://www.w3.org/2000/svg" viewBox="0 0 16 16">
  <path fill="#bebebe" d="M16 7.972h-2a5.995 5.995 0 0 0-4.406-5.781c-.032-.009-.062-.023-.094-.031-.255-.066-.514-.094-.781-.125-.233-.028-.478-.063-.719-.063a5.99 5.99 0 0 0-1.812.282v.03a5.96 5.96 0 0 0-2.25 1.282L5.125 5.16C5.627 4.647 6.283 4.313 7 4.129v-.032c.38-.089.79-.121 1.188-.093.181.012.349.028.53.062C10.587 4.404 12 6.008 12 7.972h-2l3 4 3-4zm-3.938 4.407l-1.187-1.594c-.502.513-1.158.846-1.875 1.031v.031c-.38.09-.79.122-1.188.094a4.56 4.56 0 0 1-.53-.063C5.413 11.541 4 9.937 4 7.972h2l-3-4-3 4h2a5.995 5.995 0 0 0 4.406 5.781c.032.01.062.023.094.032.255.065.514.093.781.125.233.027.478.062.719.062a5.99 5.99 0 0 0 1.812-.281v-.031a5.96 5.96 0 0 0 2.25-1.282z"/>
</svg>
