<svg xmlns="http://www.w3.org/2000/svg" viewBox="0 0 16 16">
  <path fill="#bebebe" d="M6.25 1l-.154 1.844a5.5 5.5 0 0 0-1.608.93l-1.676-.79-1.75 3.032 1.522 1.056A5.5 5.5 0 0 0 2.5 8a5.5 5.5 0 0 0 .08.932L1.062 9.984l1.75 3.032 1.672-.787a5.5 5.5 0 0 0 1.612.923L6.25 15h3.5l.154-1.844a5.5 5.5 0 0 0 1.608-.93l1.675.79 1.75-3.032-1.521-1.056A5.5 5.5 0 0 0 13.5 8a5.5 5.5 0 0 0-.08-.932l1.517-1.052-1.75-3.032-1.671.787a5.5 5.5 0 0 0-1.612-.923L9.75 1h-3.5zM8 6a2 2 0 0 1 2 2 2 2 0 0 1-2 2 2 2 0 0 1-2-2 2 2 0 0 1 2-2z"/>
</svg>
