<svg enable-background="new" height="16" width="16" xmlns="http://www.w3.org/2000/svg"><path d="m8.0000001 2c-3.3137058 0-6.0000001 2.6862943-6.0000001 6.0000001 0 3.3137059 2.6862943 5.9999999 6.0000001 5.9999999 3.3137059 0 5.9999999-2.686294 5.9999999-5.9999999 0-3.3137058-2.686294-6.0000001-5.9999999-6.0000001zm0 2.5714286c.3457971 0 .6261161.2803618.6261161.6261161v3.6110492c0 .3457541-.280319.6261161-.6261161.6261161-.3457457 0-.6261161-.280362-.6261161-.6261161v-3.6110492c0-.3457971.2803704-.6261161.6261161-.6261161zm0 5.5128354c.3636171 0 .6595982.295818.6595982.659598 0 .36366-.2959811.659598-.6595982.659598-.3636172 0-.6595982-.295938-.6595982-.659598 0-.363737.2960239-.659598.6595982-.659598z" fill="#bebebf" fill-opacity=".941176" stroke-width=".857143"/></svg>