<svg xmlns="http://www.w3.org/2000/svg" viewBox="0 0 16 16">
  <path
     style="fill:#bebebe;fill-opacity:1"
     d="M 8 0 C 3.5817222 3.9907027e-07 -1.8580646e-07 3.5817221 0 8 C 3.4064517e-07 12.418277 3.5817226 16 8 16 C 12.418279 16 16 12.418277 16 8 C 16 3.5817217 12.418279 -1.7103014e-07 8 0 z "
     id="path6" />
  <path
     style="fill:#ffffff;fill-opacity:1"
     d="M 8.6386719 3.6660156 L 8.6386719 5.5136719 L 6.7910156 5.5136719 C 4.5740994 5.5136719 3.0976563 7.0843974 3.0976562 9.3925781 C 3.0976562 11.794243 6.0527344 12.902344 6.0527344 12.902344 C 6.0527344 12.902344 4.6668538 10.943033 4.9902344 9.9472656 C 5.2606215 9.1147365 6.1515239 8.46875 7.1601562 8.46875 L 8.6386719 8.46875 L 8.6386719 10.316406 L 13.419922 6.9921875 L 8.6386719 3.6660156 z "
     id="path8" />
</svg>
