<svg xmlns="http://www.w3.org/2000/svg" viewBox="0 0 16 16">
  <defs id="defs3051">
    <style type="text/css" id="current-color-scheme">
      .ColorScheme-Text {
        color:#bebebe;
      }
      </style>
  </defs>
 <path 
     style="fill:currentColor;fill-opacity:1;stroke:none" 
     class="ColorScheme-Text"
     d="M 6 0 L 5.8242188 2.1074219 A 6.2857143 6.2857143 0 0 0 3.9863281 3.1699219 L 2.0722656 2.2675781 L 0.072265625 5.7324219 L 1.8105469 6.9394531 A 6.2857143 6.2857143 0 0 0 1.7148438 8 A 6.2857143 6.2857143 0 0 0 1.8066406 9.0644531 L 0.072265625 10.267578 L 2.0722656 13.732422 L 3.9824219 12.832031 A 6.2857143 6.2857143 0 0 0 5.8242188 13.888672 L 6 16 L 10 16 L 10.175781 13.892578 A 6.2857143 6.2857143 0 0 0 12.013672 12.830078 L 13.927734 13.732422 L 15.927734 10.267578 L 14.189453 9.0605469 A 6.2857143 6.2857143 0 0 0 14.285156 8 A 6.2857143 6.2857143 0 0 0 14.193359 6.9355469 L 15.927734 5.7324219 L 13.927734 2.2675781 L 12.017578 3.1679688 A 6.2857143 6.2857143 0 0 0 10.175781 2.1113281 L 10 0 L 6 0 z M 8 5.7148438 A 2.2857143 2.2857143 0 0 1 10.285156 8 A 2.2857143 2.2857143 0 0 1 8 10.285156 A 2.2857143 2.2857143 0 0 1 5.7148438 8 A 2.2857143 2.2857143 0 0 1 8 5.7148438 z "
     />
</svg>
