<svg xmlns="http://www.w3.org/2000/svg" viewBox="0 0 16 16">
  <defs id="defs3051">
    <style type="text/css" id="current-color-scheme">
      .ColorScheme-Text {
        color:#bebebe;
      }
      </style>
  </defs>
 <path 
     style="fill:currentColor;fill-opacity:1;stroke:none" 
     class="ColorScheme-Text"
     d="M 8 0 C 3.58173 0 0 3.58173 0 8 C 0 12.41827 3.58173 16 8 16 C 12.41827 16 16 12.41827 16 8 C 16 3.58173 12.41827 0 8 0 z M 6.8574219 3.4277344 L 9.1425781 3.4277344 L 9.1425781 6.8574219 L 8.8574219 9.1425781 L 7.1777344 9.1425781 L 6.8574219 6.8574219 L 6.8574219 3.4277344 z M 8 10 C 8.78898 10 9.4277344 10.638754 9.4277344 11.427734 C 9.4277344 12.216714 8.78898 12.857422 8 12.857422 C 7.21102 12.857422 6.5722656 12.216714 6.5722656 11.427734 C 6.5722656 10.638754 7.21102 10 8 10 z "
     />
</svg>
