<svg xmlns="http://www.w3.org/2000/svg" viewBox="0 0 16 16">
  <defs id="defs3051">
    <style type="text/css" id="current-color-scheme">
      .ColorScheme-Text {
        color:#bebebe;
      }
      </style>
  </defs>
 <path 
     style="fill:currentColor;fill-opacity:1;stroke:none" 
     class="ColorScheme-Text"
     d="M 5.1601562 0.0078125 C 4.8601062 0.0578125 4.2617188 0.27405875 4.2617188 1.0742188 L 4.2617188 2.140625 L 7.4609375 2.140625 L 7.8945312 2.140625 L 8.2285156 2.4746094 L 12.496094 6.7421875 L 12.794922 7.0429688 L 12.794922 7.4746094 C 12.797922 8.8326094 12.792922 10.686504 12.794922 12.208984 C 12.795212 12.445234 12.794792 12.593187 12.794922 12.810547 L 13.863281 12.810547 C 14.930151 12.810547 14.929688 11.742188 14.929688 11.742188 C 14.949687 11.692987 14.934687 6.9928106 14.929688 4.2753906 L 10.662109 0.0078125 L 5.328125 0.0078125 C 5.328125 0.0078125 5.2601563 -0.0087875 5.1601562 0.0078125 z M 1.9609375 3.1972656 C 1.6608775 3.2472656 1.0605469 3.4635219 1.0605469 4.2636719 L 1.0605469 14.933594 C 1.0605469 16.000464 2.1269531 16 2.1269531 16 L 10.662109 16 C 11.728979 16 11.728516 14.933594 11.728516 14.933594 C 11.748616 14.884394 11.733516 10.182254 11.728516 7.4648438 L 7.4609375 3.1972656 L 2.1269531 3.1972656 C 2.1269531 3.1972656 2.0609375 3.1806656 1.9609375 3.1972656 z "
     />
</svg>
