<svg xmlns="http://www.w3.org/2000/svg" viewBox="0 0 22 22"><g transform="translate(0-1030.36)" fill-rule="evenodd"><path d="m11.00102 1033.3622a8.00033 8.00031 0 0 0 -8.00102 8.001 8.00033 8.00031 0 0 0 8.00102 7.999 8.00033 8.00031 0 0 0 7.99898 -7.999 8.00033 8.00031 0 0 0 -7.99898 -8.001" fill="#2ecc71"/><path d="m16.878 999.98c-.332 0-.601.271-.601.603v8.794c0 .332.269.603.601.603h6.387c.332 0 .601-.271.601-.603v-8.794c0-.332-.269-.603-.601-.603h-6.387m3.193 8.571c.296 0 .536.24.536.536 0 .296-.24.536-.536.536-.296 0-.536-.24-.536-.536 0-.296.24-.536.536-.536" fill="#fff" transform="translate(-9.07 36.684)"/></g></svg>