<svg xmlns="http://www.w3.org/2000/svg" viewBox="0 0 22 22">
        <path
           style="fill:#d24d57;fill-opacity:1"
     d="m 15.814425,11.948804 c -0.190636,-0.187821 -0.613433,-0.287296 -1.256796,-0.295747 -0.435512,-0.0051 -0.959684,0.0336 -1.511033,0.110747 -0.246882,-0.142446 -0.501299,-0.297466 -0.701059,-0.484135 -0.537285,-0.501732 -0.985776,-1.198144 -1.265246,-1.963945 0.0182,-0.07153 0.03371,-0.1344 0.04815,-0.198552 0,0 0.30264,-1.718991 0.222526,-2.30019 -0.01101,-0.07971 -0.01781,-0.10283 -0.03922,-0.164785 l -0.02629,-0.06753 C 11.203137,6.394802 11.041738,6.193621 10.788692,6.204594 l -0.148396,-0.0045 -0.0045,-7.9e-5 c -0.282177,0 -0.512165,0.144317 -0.572536,0.360039 -0.1835053,0.676568 0.0058,1.688712 0.348988,2.999637 l -0.08783,0.213514 c -0.245703,0.598948 -0.553602,1.202167 -0.8252676,1.734334 l -0.03534,0.06923 c -0.2857961,0.55931 -0.5451234,1.034112 -0.7802013,1.436334 l -0.242719,0.128338 c -0.017698,0.0093 -0.4336637,0.229336 -0.5312345,0.288369 -0.8277225,0.494215 -1.3762282,1.055272 -1.467231,1.500487 -0.028991,0.14207 -0.00742,0.323856 0.1398725,0.408049 l 0.234752,0.11814 c 0.1018353,0.05102 0.2092272,0.07687 0.319243,0.07687 0.5895376,0 1.2739659,-0.734394 2.2168058,-2.379821 1.0885841,-0.354403 2.3279731,-0.64897 3.4142031,-0.811451 0.827778,0.466116 1.845878,0.789837 2.488466,0.789837 0.114094,0 0.212446,-0.0109 0.292369,-0.03203 0.123242,-0.03259 0.227111,-0.10293 0.290437,-0.198304 0.124658,-0.187608 0.149952,-0.446047 0.116106,-0.710662 -0.01011,-0.0785 -0.07282,-0.175589 -0.14067,-0.241887 z M 7.0089151,15.085762 C 7.1164082,14.791814 7.54197,14.210698 8.1711742,13.695078 8.2107284,13.662996 8.30817,13.571678 8.3974029,13.486895 7.7394208,14.536324 7.2987902,14.954587 7.0089151,15.085762 Z M 10.735647,6.503801 c 0.189517,0 0.297303,0.477673 0.306264,0.92549 0.0089,0.447845 -0.0958,0.762149 -0.225717,0.99471 -0.107606,-0.344318 -0.159605,-0.887031 -0.159605,-1.24189 0,0 -0.0079,-0.67831 0.07906,-0.67831 z m -1.1116982,6.1157 c 0.1320122,-0.236309 0.2693563,-0.485528 0.4097062,-0.749817 0.342122,-0.646986 0.558187,-1.153247 0.719106,-1.569358 0.320052,0.582267 0.718622,1.07729 1.187177,1.473911 0.05844,0.04944 0.120365,0.09918 0.18541,0.148767 -0.952824,0.188523 -1.776343,0.417808 -2.5013992,0.696497 z m 6.0074032,-0.05366 c -0.05804,0.0363 -0.224268,0.05726 -0.331205,0.05726 -0.345099,0 -0.772077,-0.157784 -1.370655,-0.414404 0.229988,-0.01702 0.440873,-0.02568 0.629986,-0.02568 0.346144,0 0.448676,-0.0017 0.787151,0.08484 0.338469,0.08633 0.342734,0.261682 0.284723,0.297971 z M 19,11.000003 A 8.0000006,8.0000006 0 0 1 10.999997,19 8.0000006,8.0000006 0 0 1 3,11.000003 8.0000006,8.0000006 0 0 1 10.999997,3 8.0000006,8.0000006 0 0 1 19,11.000003 Z"
            />
</svg>
