<?xml version="1.0" encoding="UTF-8" standalone="no"?>
<svg
   xmlns:dc="http://purl.org/dc/elements/1.1/"
   xmlns:cc="http://creativecommons.org/ns#"
   xmlns:rdf="http://www.w3.org/1999/02/22-rdf-syntax-ns#"
   xmlns:svg="http://www.w3.org/2000/svg"
   xmlns="http://www.w3.org/2000/svg"
   xmlns:sodipodi="http://sodipodi.sourceforge.net/DTD/sodipodi-0.dtd"
   xmlns:inkscape="http://www.inkscape.org/namespaces/inkscape"
   viewBox="0 0 22 22"
   id="svg2"
   version="1.1"
   inkscape:version="0.91 r13725"
   sodipodi:docname="applications-internet.svg">
  <metadata
     id="metadata10">
    <rdf:RDF>
      <cc:Work
         rdf:about="">
        <dc:format>image/svg+xml</dc:format>
        <dc:type
           rdf:resource="http://purl.org/dc/dcmitype/StillImage" />
      </cc:Work>
    </rdf:RDF>
  </metadata>
  <sodipodi:namedview
     pagecolor="#ffffff"
     bordercolor="#666666"
     borderopacity="1"
     objecttolerance="10"
     gridtolerance="10"
     guidetolerance="10"
     inkscape:pageopacity="0"
     inkscape:pageshadow="2"
     inkscape:window-width="640"
     inkscape:window-height="480"
     id="namedview8"
     showgrid="false"
     inkscape:zoom="28.954545"
     inkscape:cx="4.8524333"
     inkscape:cy="11"
     inkscape:current-layer="svg2" />
  <defs
     id="defs3051">
    <style
       type="text/css"
       id="current-color-scheme">
      .ColorScheme-Text {
        color:#4d4d4d
      }
      </style>
  </defs>
  <path
     style="color:#4d4d4d;fill:currentColor;fill-opacity:1;stroke:none"
     class="ColorScheme-Text"
     d="m 3.162515,9.3882635 c -0.0266,0.1302148 -0.0501,0.2615397 -0.0703,0.3939045 -0.0202,0.1324447 -0.0372,0.265899 -0.0509,0.400414 -0.0273,0.2689 -0.0413,0.541729 -0.0413,0.817918 0,0.276169 0.014,0.548998 0.0413,0.817948 0.0137,0.134464 0.0306,0.267969 0.0509,0.400394 0.0202,0.132365 0.0437,0.26377 0.0703,0.393895 0.0266,0.130134 0.0565,0.259219 0.0893,0.386974 0.0658,0.25558 0.14384,0.50627 0.23359,0.751311 0.0448,0.122495 0.0927,0.24368 0.14325,0.363265 0.0506,0.119586 0.10404,0.237771 0.16016,0.354366 0.0281,0.0583 0.0569,0.116196 0.0863,0.173714 0.0589,0.114945 0.12046,0.228321 0.18471,0.339996 0.19268,0.335017 0.40891,0.654764 0.64641,0.957043 0.11878,0.151104 0.24281,0.297838 0.37194,0.439922 0.0861,0.0948 0.17436,0.187363 0.2649,0.277819 0.0904,0.0905 0.18312,0.178833 0.27782,0.26492 0.42619,0.387355 0.89437,0.729311 1.39694,1.01831 0.11168,0.0642 0.22503,0.125875 0.34004,0.184732 0.22998,0.117796 0.46639,0.224712 0.70861,0.320278 0.12108,0.0478 0.24369,0.0927 0.36758,0.134605 0.80539,0.272549 1.66836,0.420323 2.5658,0.420323 0.61184,0 1.2075,-0.069 1.78,-0.198992 0.26723,-0.0607 0.52948,-0.134545 0.78582,-0.221281 0.12393,-0.0419 0.2464,-0.0868 0.36758,-0.134535 0.2422,-0.0955 0.47861,-0.202492 0.70859,-0.320348 0.115,-0.0589 0.22839,-0.120475 0.34001,-0.184672 0.5026,-0.288939 0.97078,-0.631005 1.39696,-1.01831 0.0948,-0.0861 0.18737,-0.174473 0.27783,-0.26492 0.0904,-0.0905 0.17884,-0.183113 0.26493,-0.277809 0.12909,-0.142044 0.25319,-0.288778 0.37191,-0.439932 0.18793,-0.239081 0.36201,-0.489301 0.52214,-0.749131 0.0423,-0.0687 0.084,-0.137845 0.12429,-0.207972 0.0643,-0.111615 0.12588,-0.224991 0.18474,-0.339986 0.0294,-0.0575 0.0582,-0.115396 0.0863,-0.173664 0.0563,-0.116535 0.10961,-0.23473 0.16019,-0.354366 0.0506,-0.119645 0.0984,-0.24077 0.14324,-0.363315 0.0897,-0.245041 0.16777,-0.495701 0.23359,-0.751261 0.0329,-0.127835 0.0627,-0.25684 0.0893,-0.386964 0.0266,-0.130245 0.0501,-0.26157 0.0704,-0.393965 0.0202,-0.132415 0.0372,-0.2659 0.0509,-0.400384 0.0273,-0.2689 0.0414,-0.541729 0.0414,-0.817918 0,-0.276159 -0.014,-0.549028 -0.0414,-0.817918 -0.0137,-0.134515 -0.0306,-0.2679693 -0.0509,-0.400414 -0.0202,-0.1323648 -0.0437,-0.2637797 -0.0704,-0.3939045 -0.0266,-0.1301249 -0.0565,-0.2592498 -0.0893,-0.3869748 -0.0658,-0.2555499 -0.14386,-0.5062401 -0.23359,-0.7512804 -0.0224,-0.061298 -0.0456,-0.1221852 -0.0695,-0.1827828 -0.0716,-0.1816229 -0.14973,-0.3600058 -0.23401,-0.534899 -0.0281,-0.058298 -0.0569,-0.1161754 -0.0863,-0.1736931 -0.0589,-0.1149655 -0.12049,-0.228351 -0.18474,-0.3399966 -0.19268,-0.3350468 -0.40888,-0.6547642 -0.64638,-0.9570423 -0.11878,-0.1510941 -0.24281,-0.2978283 -0.37197,-0.4399227 -0.0861,-0.094696 -0.17436,-0.1873626 -0.26487,-0.2778191 -0.0904,-0.090496 -0.18312,-0.1788329 -0.27782,-0.2648896 -0.18346,-0.1667534 -0.37485,-0.3248672 -0.57326,-0.4741513 -0.26253,-0.1975322 -0.5375,-0.379525 -0.82371,-0.5441286 -0.11168,-0.064197 -0.22506,-0.125845 -0.34001,-0.1847027 -0.0523,-0.026799 -0.10502,-0.052898 -0.15792,-0.078497 -0.0635,-0.030699 -0.12742,-0.060898 -0.19184,-0.089996 -0.027,-0.0122 -0.0542,-0.023699 -0.0813,-0.035599 -0.0917,-0.040299 -0.18404,-0.079297 -0.2776,-0.1161755 -0.001,-5.3e-4 -0.003,-9.499e-4 -0.004,-0.002 -0.0996,-0.039198 -0.20054,-0.076097 -0.30212,-0.1113956 -0.0205,-0.007 -0.0409,-0.014699 -0.0615,-0.021599 -0.23692,-0.080197 -0.47884,-0.1492241 -0.72509,-0.2071318 -0.077,-0.018099 -0.15423,-0.035399 -0.23199,-0.051298 -0.056,-0.011499 -0.11235,-0.022099 -0.1688,-0.032399 -0.42079,-0.076497 -0.85304,-0.1197853 -1.29402,-0.127665 -0.0486,-8.999e-4 -0.0971,-0.002 -0.14601,-0.002 -0.0829,0 -0.16547,0.002 -0.24779,0.004 -0.80855,0.024599 -1.58707,0.1688234 -2.31803,0.4161637 -0.1239,0.041898 -0.24648,0.086896 -0.36758,0.1345747 -0.0375,0.014799 -0.0744,0.030299 -0.11165,0.045598 -0.0831,0.034199 -0.16564,0.069297 -0.24729,0.1061658 -0.11816,0.053498 -0.2347,0.1096057 -0.34968,0.1685433 -0.115,0.058898 -0.22836,0.1204853 -0.34004,0.1847028 -0.44928,0.2583798 -0.87101,0.559118 -1.25998,0.8967347 -0.0461,0.039998 -0.0918,0.080397 -0.13698,0.1215152 -0.0947,0.086097 -0.1874,0.1744431 -0.27782,0.2648995 -0.0904,0.090397 -0.17884,0.1830828 -0.26491,0.2778091 -0.12912,0.1420344 -0.25319,0.2887686 -0.37194,0.4399227 -0.23753,0.3021981 -0.45375,0.6220355 -0.64643,0.9570523 -0.0643,0.1116456 -0.12585,0.2250211 -0.18471,0.3399966 -0.0294,0.057498 -0.0582,0.1154155 -0.0863,0.1736832 -0.0843,0.1748931 -0.16231,0.3532761 -0.234,0.5349089 -0.0239,0.060598 -0.0471,0.1214852 -0.0695,0.1827428 -0.0897,0.2450404 -0.16776,0.4957105 -0.23358,0.7512904 -0.0325,0.127585 -0.0624,0.2566999 -0.089,0.3868248 z m 6.48175,-5.8378702 c 0.0157,0.026499 0.0287,0.057198 0.067,0.068797 0.0749,-0.038798 0.14957,0.003 0.23205,0 0.0804,-0.003 0.15214,-0.039598 0.24069,-0.025799 0.1565,0.024499 0.3751,0.1774631 0.49841,0.094496 0.031,-0.020999 0.0237,-0.057198 0.0517,-0.1115556 0.0223,-0.043498 0.0571,-0.091596 0.0785,-0.1452043 0.0623,-0.002 0.12466,-0.002 0.18729,-0.002 0.51736,0 1.02282,0.052298 1.51135,0.151594 -0.0205,0.053898 -0.0877,0.029899 -0.14411,0.055898 -0.0529,0.024499 -0.0727,0.075197 -0.12893,0.085797 -0.1563,0.029399 -0.28584,-0.039198 -0.42112,-0.034199 -0.006,0.058498 0.0669,0.092596 0.10312,0.1113956 0.12261,0.064297 0.22243,0.055498 0.39529,0.051598 0.0886,-0.002 0.19038,0.026399 0.26649,-0.025799 0.0482,-0.032899 0.0457,-0.1054858 0.086,-0.1457842 0.0172,-0.016999 0.0425,-0.034099 0.0709,-0.048698 0.0849,0.019999 0.16914,0.041798 0.25302,0.064597 -0.0141,0.057898 -0.10779,0.043898 -0.10899,0.1214052 0.0598,0.035799 0.19883,-0.019599 0.25257,-0.080797 0.0208,0.006 0.0417,0.012299 0.0624,0.018599 0.12158,0.036998 0.24187,0.076797 0.36081,0.1196153 0.16956,0.061098 0.33624,0.1280849 0.49998,0.2006421 -0.0315,0.018599 -0.065,0.042398 -0.0926,0.042198 -0.0711,-4.5e-4 -0.10141,-0.095296 -0.18066,-0.060198 -0.007,0.091896 0.0973,0.1290949 0.1633,0.1715332 0.0714,0.045898 0.14646,0.091696 0.17185,0.1716233 -0.0699,0.1481841 -0.18147,-0.008 -0.29217,-0.008 -0.12199,-8.7e-4 -0.3,0.2317809 -0.40395,0.042898 0.0259,-0.1001261 0.13631,-0.1156754 0.16329,-0.2145115 -0.0237,0.004 -0.0466,0.011699 -0.0695,0.020899 -0.0409,0.016199 -0.0811,0.037999 -0.12283,0.060398 -0.0547,0.029399 -0.11218,0.058698 -0.17733,0.073197 -0.0599,0.0132 -0.11833,0.01 -0.1719,0.025599 -0.10285,0.030099 -0.17471,0.1059458 -0.2835,0.1460642 -0.0425,0.015599 -0.0933,0.0108 -0.13757,0.025599 -0.10377,0.034599 -0.22811,0.096596 -0.33514,0.1545139 -0.10944,0.059098 -0.23286,0.1212352 -0.30081,0.1801729 -0.0367,0.031699 -0.13223,0.1442443 -0.12893,0.1800029 0.004,0.051098 0.10072,0.067997 0.10312,0.1202053 -0.002,0.031699 -0.0558,0.099896 -0.0171,0.1458643 0.0352,0.041898 0.10567,0.008 0.18038,0.017099 0.13133,0.016299 0.21726,0.1245851 0.318,0.1801729 0.0762,0.041998 0.1893,0.092096 0.27531,0.1029459 0.11808,0.0148 0.25022,-0.034399 0.26633,0.060098 0.0156,0.090796 -0.11115,0.1231951 -0.12026,0.1801729 0.0636,0.083897 -0.0432,0.1238951 -0.0429,0.1974022 2.7e-4,0.059498 0.0733,0.1488641 0.1374,0.1542539 0.0866,0.007 0.21342,-0.085097 0.24941,-0.1715332 0.0428,-0.102926 0.0246,-0.2424705 0.10312,-0.3174275 0.40052,0.011 0.73932,-0.1815729 0.71351,-0.5918867 -0.003,-0.040498 -0.0256,-0.092696 -0.0171,-0.1373146 0.0125,-0.066297 0.12675,-0.1219952 0.11156,-0.2058419 0.0432,-0.013299 0.069,-0.048198 0.0911,-0.087397 0.0329,-0.058498 0.0586,-0.125345 0.11981,-0.1474042 0.004,-0.002 0.008,-0.004 0.0126,-0.005 0.035,-0.008 0.0717,-9.199e-4 0.1102,0.0105 0.0686,0.020299 0.14308,0.055198 0.22495,0.049598 0.0417,-0.003 0.0957,-0.040098 0.13762,-0.034199 0.084,0.0117 0.13455,0.1150855 0.19769,0.1630036 0.0558,0.042598 0.11469,0.028999 0.12892,0.085697 -0.0165,0.095196 -0.0828,0.098796 -0.0774,0.1862727 1.1e-4,9.5e-4 -5e-5,0.002 -5e-5,0.002 0.006,0.078597 0.0881,0.1382646 0.12893,0.1460343 0.0627,0.011699 0.15236,-0.021899 0.2149,-0.051598 0.0676,-0.031899 0.12921,-0.100856 0.18818,-0.1487741 0.0843,0.064597 0.16718,0.1308248 0.24866,0.1987421 0.009,0.038199 0.0158,0.072597 0.0188,0.095796 0.012,0.092796 -0.0125,0.1635935 -0.008,0.2489902 0.011,0.1446643 0.19366,0.1299548 0.2835,0.2057519 0.0271,0.022999 0.0377,0.081697 0.0603,0.1115656 0.0437,0.058098 0.0963,0.058098 0.10312,0.1200252 0.0161,0.1481942 -0.13455,0.1606937 -0.12048,0.3260772 -0.0311,0.064097 -0.10944,0.060198 -0.10312,0.1457843 0.01,0.1354346 0.20495,0.031699 0.25788,0.1373146 0.0287,0.056798 -0.005,0.099096 -0.0258,0.1800029 0.0667,0.079297 0.0662,0.2058419 -0.0514,0.2060119 -0.0715,0 -0.0912,-0.076697 -0.16346,-0.094496 -0.0402,-0.01 -0.0949,-0.008 -0.14604,-0.017099 -0.0438,-0.008 -0.0959,-0.020799 -0.1374,-0.025799 -0.10611,-0.012599 -0.221,0.018199 -0.28375,-0.042898 0.10228,-0.1356147 0.23817,-0.2692594 0.36968,-0.3860448 0.0391,-0.034899 0.12302,-0.058798 0.10312,-0.128675 -0.0732,-0.064197 -0.16302,0.004 -0.23205,0.042898 -0.0725,0.040698 -0.15893,0.099396 -0.24072,0.1115656 -0.14216,0.021099 -0.33073,-0.041598 -0.44688,0.034199 -0.0161,0.064797 0.13223,0.039598 0.11157,0.1373446 -0.0568,0.009 -0.1107,0.013899 -0.15449,-0.025799 -0.04,-0.035899 -0.0171,-0.089897 -0.043,-0.1115556 -0.044,-0.036499 -0.20971,-0.046398 -0.2837,-0.034199 -0.0903,0.014699 -0.17017,0.068697 -0.1806,0.1457843 0.10846,0.050698 0.28736,-0.052198 0.3267,0.077297 -0.0595,0.1067857 -0.19945,0.1655534 -0.18066,0.3087078 0.007,0.055298 0.0732,0.1291249 0.12049,0.1373446 0.0476,0.008 0.0743,-0.038899 0.1202,-0.034499 0.0486,0.005 0.0376,0.059998 0.0947,0.051598 0.0827,-0.035299 0.12851,-0.151184 0.2233,-0.1457842 0.11375,0.1378445 -0.10267,0.2050019 -0.2233,0.2487302 -0.13757,0.049798 -0.31646,0.076297 -0.42126,0.1202852 -0.0549,0.022899 -0.26283,0.2235712 -0.29222,0.068397 -0.021,-0.1118356 0.10289,-0.079497 0.12893,-0.1715332 -0.13304,-0.025799 -0.25699,0.057198 -0.37807,0.1031759 -0.17274,0.065198 -0.4656,0.1065258 -0.50729,0.3002282 -0.008,0.038799 0.0169,0.1113156 -0.008,0.1371446 -0.0206,0.020799 -0.14388,0.024599 -0.19774,0.042898 -0.0829,0.028399 -0.15521,0.089097 -0.20643,0.102916 -0.0387,0.010599 -0.0957,0.008 -0.12027,0.017399 -0.0683,0.026399 -0.0935,0.1186553 -0.17184,0.1800029 -0.0321,0.024999 -0.10338,0.043298 -0.12893,0.068597 -0.0445,0.044198 -0.0504,0.1549539 -0.12893,0.1715332 -0.0499,0.004 -0.0905,-0.037498 -0.13757,-0.009 -0.006,0.1094357 0.0387,0.2582898 -0.009,0.3689355 -0.10181,0.082797 -0.21354,0.1414244 -0.34378,0.2144815 -0.072,0.040598 -0.13654,0.050898 -0.22352,0.094396 -0.0617,0.030699 -0.11814,0.1039559 -0.18913,0.1457843 -0.16411,0.096396 -0.36224,0.2105417 -0.36098,0.4547421 2.8e-4,0.052898 0.0276,0.1098556 0.0343,0.1716232 0.004,0.036399 -0.004,0.071897 0,0.1115556 0.0102,0.089697 0.0753,0.203892 0,0.26585 -0.11568,-0.0474 -0.26284,-0.0635 -0.34376,-0.145785 -0.0222,-0.084696 0.0448,-0.1545036 0.0345,-0.2316206 -0.008,-0.061898 -0.0955,-0.1723232 -0.14632,-0.1802629 -0.0523,-0.008 -0.10052,0.047198 -0.15452,0.042898 -0.0643,-0.005 -0.12397,-0.093296 -0.20646,-0.1029259 -0.1209,-0.0141 -0.20988,0.027499 -0.34378,0.009 -0.12963,0.069097 -0.16755,0.1921624 -0.32642,0.1800029 -0.0559,-0.004 -0.1072,-0.046798 -0.17188,-0.060098 -0.0701,-0.014499 -0.17643,-0.039199 -0.24941,-0.034099 -0.14632,0.01 -0.25241,0.1148355 -0.37809,0.1800029 -0.11089,0.057698 -0.2679,0.1293749 -0.30083,0.24888 -0.0181,0.0643 -0.003,0.154954 -0.0258,0.214482 -0.0152,0.0392 -0.0484,0.0741 -0.0688,0.111305 -0.0964,0.175733 -0.17626,0.408024 -0.10312,0.660784 0.0109,0.0375 0.10662,0.248951 0.14607,0.291679 0.0443,0.0474 0.17473,0.118715 0.24916,0.120035 0.063,10e-4 0.13673,-0.032 0.19775,-0.0429 0.0707,-0.0125 0.15932,-0.0137 0.22357,-0.0342 0.18583,-0.0594 0.14912,-0.310248 0.33515,-0.394774 0.0812,-0.0366 0.17514,-0.044 0.31794,-0.0513 0.0454,0.0381 0.0667,0.104876 0.0603,0.162893 -0.005,0.0438 -0.0465,0.0835 -0.0688,0.145925 -0.0195,0.0547 -0.0236,0.118885 -0.043,0.163063 -0.0256,0.0578 -0.0827,0.100096 -0.10312,0.154484 -0.0134,0.0353 -0.006,0.0793 -0.0171,0.111336 -0.0198,0.0565 -0.0955,0.0964 -0.0603,0.154474 0.18404,0.0731 0.40675,-0.0208 0.56735,0.009 0.0678,0.0123 0.20748,0.0931 0.20622,0.197373 -8.4e-4,0.078 -0.0603,0.129084 -0.0688,0.214501 -0.0104,0.107366 -0.0554,0.238981 -0.0601,0.325907 -0.008,0.142375 0.2092,0.388005 0.36098,0.386045 0.1634,-0.002 0.25872,-0.162254 0.4556,-0.0771 0.0654,0.0282 0.13435,0.133905 0.20649,0.128675 0.0595,-0.004 0.14931,-0.108286 0.18907,-0.180263 0.0484,-0.0877 0.0519,-0.161574 0.1374,-0.205812 0.0922,-0.0477 0.1657,-0.0247 0.28375,-0.0687 0.0527,-0.0195 0.0986,-0.0531 0.14604,-0.0858 0.0417,-0.0285 0.0856,-0.103476 0.13757,-0.0516 0.0686,0.0684 -0.084,0.107036 -0.0258,0.180263 0.11922,0.063 0.18021,-0.117245 0.26655,-0.119985 0.0275,-8.6e-4 0.12283,0.0535 0.17185,0.0857 0.067,0.044 0.0898,0.105715 0.16324,0.120035 0.0471,0.009 0.12288,-0.018 0.18912,-0.009 0.0877,0.0125 0.13998,0.0877 0.20644,0.0857 0.081,-0.002 0.11982,-0.0901 0.18913,-0.102946 0.15172,-0.0277 0.20817,0.0169 0.27497,0.111555 0.0749,0.0129 0.0775,-0.0864 0.1461,-0.0513 -0.0376,0.0748 0.0128,0.109155 0.0429,0.171533 0.0195,0.04 0.0163,0.0685 0.0345,0.0858 0.041,0.039 0.12021,0.039 0.18032,0.0771 0.0634,0.0399 0.0992,0.113966 0.17191,0.197423 0.0749,0.0854 0.20082,0.173773 0.3008,0.180012 0.0945,0.006 0.17132,-0.0267 0.24942,-0.0171 0.1778,0.0218 0.2883,0.110416 0.4127,0.205982 0.0695,0.0533 0.13218,0.0904 0.15449,0.154284 0.0157,0.0446 0.008,0.104406 0.0258,0.154424 0.038,0.106866 0.19408,0.158484 0.13763,0.343156 0.0258,0.0542 0.0837,0.0737 0.14604,0.111566 0.0499,0.0303 0.0921,0.0943 0.14604,0.102946 0.035,0.006 0.0729,-0.0106 0.10312,-0.009 0.0977,0.007 0.16472,0.0446 0.24942,0.0773 0.0525,0.0202 0.11981,0.028 0.15476,0.0516 0.0436,0.0294 0.0493,0.128225 0.10312,0.154284 0.0352,0.0171 0.11333,-0.007 0.17191,0 0.0922,0.0106 0.21745,0.0671 0.3008,0.0687 0.0506,10e-4 0.0925,-0.0206 0.13746,-0.0171 0.10435,0.008 0.18633,0.0738 0.26728,0.147434 -1.03543,1.669195 -2.70124,2.908016 -4.66263,3.381437 -0.007,-0.0752 -0.028,-0.150844 -0.0313,-0.225801 -0.007,-0.163064 0.0181,-0.278289 -0.008,-0.428963 -0.0199,-0.113966 -0.0447,-0.288609 -0.086,-0.360326 -0.046,-0.0797 -0.22685,-0.215321 -0.31795,-0.266009 -0.0602,-0.0334 -0.13222,-0.0451 -0.19774,-0.0772 -0.13997,-0.0686 -0.41128,-0.213362 -0.47271,-0.351787 -0.0178,-0.0399 -0.0154,-0.0927 -0.0345,-0.137174 -0.0373,-0.0879 -0.1161,-0.164154 -0.17185,-0.24896 -0.10617,-0.161804 -0.1919,-0.364796 -0.30086,-0.531879 -0.0551,-0.0849 -0.10284,-0.181163 -0.16324,-0.248741 -0.0354,-0.0399 -0.1487,-0.0773 -0.16324,-0.137284 -0.0193,-0.0793 -0.0781,-0.188223 -0.0688,-0.24895 0.0124,-0.0819 0.17216,-0.148225 0.1719,-0.222932 -2.8e-4,-0.0635 -0.0853,-0.100546 -0.10312,-0.154423 -0.0434,-0.131105 0.0254,-0.208222 0.0773,-0.317398 0.0171,-0.0359 0.0339,-0.0936 0.0517,-0.120035 0.0315,-0.0472 0.0955,-0.0605 0.13743,-0.111566 0.0234,-0.0286 0.0382,-0.0882 0.0688,-0.128725 0.0653,-0.0867 0.17082,-0.119165 0.19769,-0.197372 0.0219,-0.0637 0.0347,-0.382385 0.008,-0.488971 -0.015,-0.0618 -0.0725,-0.113095 -0.0944,-0.171533 -0.0389,-0.103536 -0.048,-0.216741 -0.15482,-0.214512 -0.0659,0.001 -0.11241,0.0741 -0.15477,0.120036 -0.0102,0.0611 -0.005,0.127135 -0.0688,0.145814 -0.0977,0.0288 -0.13517,-0.102666 -0.24917,-0.137175 -0.0453,-0.0138 -0.11766,-0.013 -0.14604,-0.0257 -0.0832,-0.0373 -0.11002,-0.158813 -0.19774,-0.206042 -0.0733,-0.0391 -0.13614,-0.0256 -0.1806,-0.0858 -0.0185,-0.0414 -0.004,-0.116096 -0.008,-0.171593 -0.0942,-0.055 -0.17403,-0.26023 -0.28372,-0.308658 -0.0727,-0.0323 -0.18404,-0.0293 -0.275,-0.0601 -0.0428,-0.0145 -0.0757,-0.0332 -0.12046,-0.0429 -0.0551,-0.0123 -0.11184,-0.013 -0.15451,-0.0344 -0.17017,-0.0843 -0.262,-0.357476 -0.47274,-0.351626 -0.0898,0.002 -0.17643,0.0862 -0.25788,0.0857 -0.081,-4.5e-4 -0.21665,-0.0645 -0.3182,-0.111566 -0.1055,-0.0489 -0.22229,-0.0756 -0.30931,-0.120035 -0.0703,-0.0359 -0.1192,-0.101686 -0.18063,-0.128925 -0.0471,-0.0208 -0.11592,-0.0245 -0.15451,-0.0427 -0.0549,-0.026 -0.11226,-0.0815 -0.1806,-0.128925 -0.0649,-0.0448 -0.13503,-0.113326 -0.13757,-0.171374 -0.003,-0.0672 0.0618,-0.124335 0.0688,-0.188922 0.0222,-0.204302 -0.12867,-0.351126 -0.22357,-0.471832 -0.0703,-0.0897 -0.15281,-0.165713 -0.22333,-0.24873 0.004,-0.0551 0.004,-0.065 0,-0.120035 -0.0534,-0.0518 -0.0983,-0.128505 -0.15476,-0.206012 -0.051,-0.069897 -0.15043,-0.1444943 -0.16327,-0.2228912 -0.0158,-0.096396 0.0367,-0.1811329 0,-0.2747092 -0.0612,-0.1552939 -0.2772,-0.085097 -0.24941,0.1201953 0.008,0.056598 0.0877,0.1326147 0.11184,0.1887325 0.0247,0.057198 0.0199,0.128505 0.043,0.1974022 0.0222,0.065997 0.0888,0.1230254 0.11185,0.1973924 0.0365,0.117465 0.0353,0.24401 0.0688,0.317437 0.0295,0.0652 0.13827,0.126885 0.0773,0.205842 -0.0814,0.0169 -0.11269,-0.0643 -0.16327,-0.111565 -0.0282,-0.0263 -0.13049,-0.0761 -0.14604,-0.137145 -0.013,-0.0505 0.0321,-0.118495 0.0171,-0.180253 -0.0295,-0.121065 -0.27438,-0.124145 -0.27525,-0.24874 -4.5e-4,-0.078197 0.10242,-0.087497 0.10335,-0.1631436 6.7e-4,-0.082697 -0.11311,-0.152804 -0.13757,-0.2229812 -0.0223,-0.064298 -0.026,-0.1668335 -0.0343,-0.2573499 -0.008,-0.084997 0.002,-0.1833528 -0.0174,-0.2489002 -0.0176,-0.058898 -0.10637,-0.1399645 -0.16327,-0.1716133 -0.0753,-0.041798 -0.13502,-0.024499 -0.17188,-0.085697 -0.0321,-0.053498 -0.0532,-0.1653035 -0.0601,-0.2229812 -0.0124,-0.1031759 -0.003,-0.2159615 -0.009,-0.3260772 -0.006,-0.1102656 -0.017,-0.2160415 0,-0.3345368 0.0425,-0.082997 0.12004,-0.1238951 0.1634,-0.2060919 0.0302,-0.057198 0.0345,-0.1278349 0.0686,-0.1886825 0.063,-0.1120556 0.20015,-0.2156016 0.29236,-0.3260672 0.0994,-0.1189953 0.19098,-0.2329908 0.24916,-0.3690155 0.0209,-0.048298 0.0768,-0.1552939 0.0688,-0.2144815 -0.0113,-0.082497 -0.1671,-0.1505141 -0.15479,-0.2487402 0.008,-0.060798 0.0946,-0.059998 0.12048,-0.1200253 0.0133,-0.030999 0.0251,-0.1174954 0.0258,-0.1545139 10e-4,-0.082697 -0.0425,-0.1689834 -0.0258,-0.2573699 0.0141,-0.075397 0.12655,-0.1059458 0.0688,-0.1887326 -0.0573,-0.081997 -0.16019,0.044198 -0.22357,-0.009 -0.0582,-0.048798 0.0117,-0.1076458 0.0171,-0.1973722 0.002,-0.035699 -0.0209,-0.076497 -0.0171,-0.102946 0.005,-0.038299 0.0801,-0.1029259 0.0601,-0.1286749 -0.0311,-0.039299 -0.065,-0.1185753 -0.11363,-0.1818828 0.95867,-0.7668299 2.10768,-1.3059286 3.36389,-1.5339397 z"
     id="path6"
     inkscape:connector-curvature="0" />
</svg>
