<svg xmlns="http://www.w3.org/2000/svg" viewBox="0 0 22 22">
  <defs id="defs3051">
    <style type="text/css" id="current-color-scheme">
      .ColorScheme-Text {
        color:#4d4d4d
      }
      </style>
  </defs>
 <path 
     style="fill:currentColor;fill-opacity:1;stroke:none"      
	 class="ColorScheme-Text"
        d="M 4.59961,3 C 4.15641,3 3.80078,3.35758 3.80078,3.80078 l 0,14.39844 C 3.80078,18.64242 4.15641,19 4.59961,19 l 12.80078,0 c 0.4432,0 0.79883,-0.35758 0.79883,-0.80078 l 0,-14.39844 C 18.19922,3.35758 17.84359,3 17.40039,3 L 4.59961,3 Z m 5.65625,4.66602 1.48828,0 c -0.002,0.71306 0,2.58984 0,2.58984 l 2.41211,0 0,1.48828 -2.41211,0 c 0,0 10e-4,1.8736 0,2.58984 l -1.48828,0 c 10e-4,-0.71624 0,-2.58984 0,-2.58984 0,0 -1.61343,-10e-4 -2.41211,0 l 0,-1.48633 c 0.79868,-0.002 2.41211,-0.002 2.41211,-0.002 0,0 -10e-4,-1.87682 0,-2.58984 z"
     />
</svg>
