<?xml version="1.0" encoding="UTF-8" standalone="no"?>
<svg
   xmlns:osb="http://www.openswatchbook.org/uri/2009/osb"
   xmlns:dc="http://purl.org/dc/elements/1.1/"
   xmlns:cc="http://creativecommons.org/ns#"
   xmlns:rdf="http://www.w3.org/1999/02/22-rdf-syntax-ns#"
   xmlns:svg="http://www.w3.org/2000/svg"
   xmlns="http://www.w3.org/2000/svg"
   xmlns:sodipodi="http://sodipodi.sourceforge.net/DTD/sodipodi-0.dtd"
   xmlns:inkscape="http://www.inkscape.org/namespaces/inkscape"
   version="1.1"
   width="22"
   height="22"
   viewBox="0 0 22 22"
   id="svg2"
   inkscape:version="0.91 r13725"
   sodipodi:docname="auto-type.svg">
  <metadata
     id="metadata10">
    <rdf:RDF>
      <cc:Work
         rdf:about="">
        <dc:format>image/svg+xml</dc:format>
        <dc:type
           rdf:resource="http://purl.org/dc/dcmitype/StillImage" />
        <dc:title></dc:title>
      </cc:Work>
    </rdf:RDF>
  </metadata>
  <defs
     id="defs8">
    <linearGradient
       osb:paint="gradient"
       id="linearGradient4207">
      <stop
         id="stop3371"
         offset="0"
         style="stop-color:#3498db;stop-opacity:1;" />
      <stop
         id="stop3373"
         offset="1"
         style="stop-color:#3498db;stop-opacity:0;" />
    </linearGradient>
  </defs>
  <sodipodi:namedview
     pagecolor="#ffffff"
     bordercolor="#666666"
     borderopacity="1"
     objecttolerance="10"
     gridtolerance="10"
     guidetolerance="10"
     inkscape:pageopacity="0"
     inkscape:pageshadow="2"
     inkscape:window-width="640"
     inkscape:window-height="480"
     id="namedview6"
     showgrid="false"
     inkscape:zoom="12.645834"
     inkscape:cx="23.057304"
     inkscape:cy="12.811805"
     inkscape:current-layer="svg2" />
  <path
     d="m 5.6,2 a 3.6,3.6 0 0 1 3.6,3.6 l 0,1.8 3.6,0 0,-1.8 A 3.6,3.6 0 0 1 16.4,2 3.6,3.6 0 0 1 20,5.6 3.6,3.6 0 0 1 16.4,9.2 l -1.8,0 0,3.6 1.8,0 A 3.6,3.6 0 0 1 20,16.4 3.6,3.6 0 0 1 16.4,20 3.6,3.6 0 0 1 12.8,16.4 l 0,-1.8 -3.6,0 0,1.8 A 3.6,3.6 0 0 1 5.6,20 3.6,3.6 0 0 1 2,16.4 3.6,3.6 0 0 1 5.6,12.8 l 1.8,0 0,-3.6 -1.8,0 A 3.6,3.6 0 0 1 2,5.6 3.6,3.6 0 0 1 5.6,2 m 9,14.4 a 1.8,1.8 0 0 0 1.8,1.8 1.8,1.8 0 0 0 1.8,-1.8 1.8,1.8 0 0 0 -1.8,-1.8 l -1.8,0 0,1.8 m -1.8,-7.2 -3.6,0 0,3.6 3.6,0 0,-3.6 m -7.2,5.4 a 1.8,1.8 0 0 0 -1.8,1.8 1.8,1.8 0 0 0 1.8,1.8 1.8,1.8 0 0 0 1.8,-1.8 l 0,-1.8 -1.8,0 m 1.8,-9 A 1.8,1.8 0 0 0 5.6,3.8 1.8,1.8 0 0 0 3.8,5.6 1.8,1.8 0 0 0 5.6,7.4 l 1.8,0 0,-1.8 m 9,1.8 A 1.8,1.8 0 0 0 18.2,5.6 1.8,1.8 0 0 0 16.4,3.8 1.8,1.8 0 0 0 14.6,5.6 l 0,1.8 1.8,0 z"
     id="path4"
     style="fill:#4d4d4d;fill-opacity:1"
     inkscape:connector-curvature="0" />
</svg>
