<svg xmlns="http://www.w3.org/2000/svg" viewBox="0 0 22 22">
  <defs id="defs3051">
    <style type="text/css" id="current-color-scheme">
      .ColorScheme-Text {
        color:#4d4d4d;
      }
      .ColorScheme-Highlight {
        color:#3daee9;
      }
      </style>
  </defs>
 <path 
       style="fill:currentColor;fill-opacity:1;stroke:none"
	 class="ColorScheme-Text"
        d="M 10.958984 3 C 10.534954 3 10.191406 3.3457275 10.191406 3.7734375 C 10.191256 4.0596175 10.347442 4.3075663 10.576172 4.4414062 L 10.570312 4.4414062 L 10.570312 5.2363281 L 11.300781 5.2363281 L 11.300781 4.4648438 C 11.552171 4.3373938 11.726562 4.0765775 11.726562 3.7734375 C 11.726562 3.3457275 11.383164 3 10.958984 3 z M 11 5.6347656 C 10.43718 5.6551556 9.7876419 5.7650631 9.0761719 6.0332031 C 6.6809619 6.9363231 6.5273438 9.8398438 6.5273438 9.8398438 L 6.5273438 11.431641 C 5.8935838 11.473671 5.3925781 12.004987 5.3925781 12.654297 L 5.3925781 15.945312 C 5.1352781 16.070303 4.9550781 16.333325 4.9550781 16.640625 C 4.9550781 17.068415 5.2989063 17.415946 5.7226562 17.416016 C 6.1468762 17.416016 6.4902344 17.068415 6.4902344 16.640625 C 6.4902344 16.333695 6.3118875 16.070303 6.0546875 15.945312 L 6.0546875 13.744141 C 6.1973875 13.818121 6.3585038 13.8634 6.5273438 13.875 L 6.5273438 14.638672 C 6.5233437 14.700502 6.5175781 14.762972 6.5175781 14.826172 C 6.5175781 14.893202 6.5223438 14.959091 6.5273438 15.025391 L 6.5273438 15.042969 C 6.6296038 16.317259 7.6179737 17.337323 8.8710938 17.476562 L 8.8691406 17.494141 L 11 17.494141 L 13.130859 17.494141 L 13.128906 17.476562 C 14.382076 17.337322 15.370396 16.317289 15.472656 15.042969 L 15.474609 15.042969 L 15.474609 15.025391 C 15.479609 14.959061 15.482422 14.893172 15.482422 14.826172 C 15.482422 14.762822 15.478609 14.700472 15.474609 14.638672 L 15.474609 13.875 C 15.642819 13.86355 15.802622 13.817741 15.945312 13.744141 L 15.945312 15.945312 C 15.688573 16.070293 15.509766 16.333325 15.509766 16.640625 C 15.509766 17.068075 15.853384 17.414062 16.277344 17.414062 C 16.701304 17.414062 17.044922 17.068045 17.044922 16.640625 C 17.044922 16.333505 16.866645 16.070293 16.609375 15.945312 L 16.609375 12.654297 C 16.609375 12.005177 16.107929 11.473841 15.474609 11.431641 L 15.474609 9.8378906 C 15.474609 9.8378906 15.319478 6.9363231 12.923828 6.0332031 C 12.213058 5.7652131 11.56323 5.6551656 11 5.6347656 z M 10.958984 6.9355469 C 10.965084 6.9355469 10.972516 6.9355469 10.978516 6.9355469 C 10.984916 6.9355469 10.994 6.9355469 11 6.9355469 C 11.0059 6.9355469 11.013531 6.9355469 11.019531 6.9355469 C 11.026131 6.9355469 11.035016 6.9355469 11.041016 6.9355469 C 11.480116 6.9438769 12.59928 7.0838788 13.34375 7.7304688 C 14.11127 8.3971488 14.111328 9.4941406 14.111328 9.4941406 C 14.111328 10.483491 13.34375 10.548828 13.34375 10.548828 C 13.0764 10.633928 12.511789 10.591728 12.255859 10.548828 C 12.020459 10.508778 11.157061 10.433875 11.019531 10.421875 C 11.014731 10.422875 11.007 10.423498 11 10.423828 C 10.993 10.422828 10.985469 10.422395 10.980469 10.421875 C 10.843099 10.434115 9.9792806 10.508828 9.7441406 10.548828 C 9.4886606 10.591728 8.92345 10.633928 8.65625 10.548828 C 8.65625 10.548828 7.8886719 10.483301 7.8886719 9.4941406 C 7.8886719 9.4941406 7.8885 8.3971488 8.65625 7.7304688 C 9.4006 7.0838787 10.520334 6.9435469 10.958984 6.9355469 z M 8.9765625 8.8066406 C 8.6581725 8.8066406 8.4003906 9.0660687 8.4003906 9.3867188 C 8.4003906 9.7074888 8.6581725 9.96875 8.9765625 9.96875 C 9.2942025 9.96875 9.5527344 9.7074888 9.5527344 9.3867188 C 9.5527344 9.0660687 9.2941625 8.8066406 8.9765625 8.8066406 z M 12.943359 8.8066406 C 12.624969 8.8066406 12.367188 9.0659588 12.367188 9.3867188 C 12.367188 9.7072288 12.624939 9.9686 12.943359 9.96875 C 13.260889 9.96875 13.519531 9.7073787 13.519531 9.3867188 C 13.519531 9.0659587 13.260889 8.8066406 12.943359 8.8066406 z M 11.912109 12.21875 C 12.116299 12.21875 12.28125 12.386267 12.28125 12.591797 C 12.28125 12.797697 12.116299 12.964844 11.912109 12.964844 C 11.707589 12.964844 11.542969 12.797697 11.542969 12.591797 C 11.542969 12.386047 11.707589 12.21875 11.912109 12.21875 z M 12.822266 12.21875 C 13.026456 12.21875 13.191406 12.386267 13.191406 12.591797 C 13.191406 12.797697 13.026416 12.964844 12.822266 12.964844 C 12.618126 12.964844 12.451172 12.797697 12.451172 12.591797 C 12.451172 12.386047 12.618086 12.21875 12.822266 12.21875 z M 13.732422 12.21875 C 13.936612 12.21875 14.101562 12.386267 14.101562 12.591797 C 14.101562 12.797697 13.936612 12.964844 13.732422 12.964844 C 13.527902 12.964844 13.361328 12.797697 13.361328 12.591797 C 13.361328 12.386047 13.527902 12.21875 13.732422 12.21875 z M 9.0761719 17.666016 C 9.3559519 18.443446 10.092134 19 10.958984 19 C 11.825574 19 12.562137 18.443476 12.841797 17.666016 L 9.0761719 17.666016 z "
     />
</svg>
