<svg xmlns="http://www.w3.org/2000/svg" viewBox="0 0 22 22">
  <defs id="defs3051">
    <style type="text/css" id="current-color-scheme">
      .ColorScheme-Text {
        color:#4d4d4d
      }
      </style>
  </defs>
 <path 
     style="fill:currentColor;fill-opacity:1;stroke:none"      
	 class="ColorScheme-Text"
        d="m 3.284665,3 c -0.44877,0 -0.81258,0.36424 -0.81258,0.81266 l 0,14.37467 c 0,0.44882 0.36412,0.81267 0.81258,0.81267 l 15.43066,0 c 0.44879,0 0.81259,-0.36425 0.81259,-0.81267 l 0,-14.37467 C 19.527915,3.36384 19.163795,3 18.715325,3 Z m 10.21659,2.87244 c 1.02882,0 1.86326,0.83504 1.86326,1.86463 0,1.02957 -0.83444,1.86462 -1.86326,1.86462 -1.02914,0 -1.86325,-0.83505 -1.86325,-1.86462 0,-1.02959 0.83411,-1.86463 1.86325,-1.86463 z m -8.22934,11.34331 c -0.51457,0 -0.74375,-0.3728 -0.51177,-0.83243 l 3.19765,-6.33816 c 0.23165,-0.45963 0.67325,-0.50066 0.98595,-0.0917 l 3.22815,6.36869 c 0,0 0.52832,0.89364 -0.51216,0.89364 z"
     />
</svg>
