<svg xmlns="http://www.w3.org/2000/svg" viewBox="0 0 22 22">
  <defs id="defs3051">
    <style type="text/css" id="current-color-scheme">
      .ColorScheme-Text {
        color:#4d4d4d
      }
      </style>
  </defs>
 <path 
     style="fill:currentColor;fill-opacity:1;stroke:none"      
	 class="ColorScheme-Text"
        d="M 11 3.0898438 A 7.9106533 7.9106541 0 0 0 3.0898438 11 A 7.9106533 7.9106541 0 0 0 11 18.910156 A 7.9106533 7.9106541 0 0 0 18.910156 11 A 7.9106533 7.9106541 0 0 0 11 3.0898438 z M 11 3.9628906 C 11.413556 3.9628906 11.75 4.2994578 11.75 4.7128906 C 11.75 5.126394 11.413556 5.4628906 11 5.4628906 C 10.586497 5.4628906 10.249982 5.126394 10.25 4.7128906 C 10.25 4.2994402 10.586497 3.9628906 11 3.9628906 z M 10.998047 6 C 13.755089 6 16 8.2437813 16 11 C 16 13.756689 13.755089 16 10.998047 16 C 8.2413576 16 5.9998823 13.756689 6 11 C 6 8.2436637 8.2413576 6 10.998047 6 z M 11 7.5 C 9.0703175 7.5 7.5 9.0705646 7.5 11 C 7.4999176 12.929683 9.0703175 14.5 11 14.5 C 12.92993 14.5 14.5 12.929683 14.5 11 C 14.5 9.0706469 12.92993 7.5 11 7.5 z "
     />
</svg>
