<svg xmlns="http://www.w3.org/2000/svg" viewBox="0 0 22 22">
  <defs id="defs3051">
    <style type="text/css" id="current-color-scheme">
      .ColorScheme-Highlight {
        color:#3daee9;
      }
      </style>
  </defs>
    <path
       style="fill:currentColor;fill-opacity:1;stroke:none"
	 class="ColorScheme-Highlight"
        d="M 3 3 L 3 19 L 19 19 L 19 3 L 3 3 z M 18 4 L 18 18 L 4 18 L 7.46875 14.53125 C 6.563928 13.626428 6 12.380712 6 11 C 6 8.2385763 8.2385763 6 11 6 C 12.380712 6 13.626428 6.563928 14.53125 7.46875 L 18 4 z M 14.53125 7.46875 L 7.46875 14.53125 C 8.373572 15.436072 9.619288 16 11 16 C 13.761424 16 16 13.761424 16 11 C 16 9.619288 15.436072 8.373572 14.53125 7.46875 z "
     />
</svg>
