<svg xmlns="http://www.w3.org/2000/svg" viewBox="0 0 22 22">
  <defs id="defs3051">
    <style type="text/css" id="current-color-scheme">
      .ColorScheme-Text {
        color:#4d4d4d
      }
      </style>
  </defs>
 <path 
     style="fill:currentColor;fill-opacity:1;stroke:none"      
	 class="ColorScheme-Text"
        d="M 1.15039,3 C 0.73326,3 0.39844,3.33678 0.39844,3.75391 l 0,14.49218 C 0.39844,18.66323 0.73326,19 1.15039,19 l 19.69922,0 c 0.41713,0 0.75195,-0.33677 0.75195,-0.75391 l 0,-14.49218 C 21.60156,3.33678 21.26674,3 20.84961,3 L 1.15039,3 Z M 11,5.85352 c 0.31551,0 0.58534,0.11271 0.8086,0.33593 0.22325,0.22313 0.33398,0.49116 0.33398,0.80664 0,0.31548 -0.11073,0.58537 -0.33398,0.8086 C 11.58534,8.02791 11.31551,8.14063 11,8.14063 10.68452,8.14063 10.41463,8.02791 10.19141,7.80469 9.96828,7.58143 9.85742,7.31157 9.85742,6.99609 9.85742,6.68061 9.96815,6.41262 10.19141,6.18945 10.41476,5.9662 10.68452,5.85352 11,5.85352 Z M 7,7.56836 c 0.31548,0 0.58534,0.11271 0.8086,0.33594 0.22313,0.22325 0.33398,0.49116 0.33398,0.80664 0,0.31538 -0.11088,0.58533 -0.33398,0.80859 C 7.58525,9.74273 7.31551,9.85352 7,9.85352 6.68449,9.85352 6.41467,9.7426 6.19141,9.51953 5.96828,9.2964 5.85742,9.02642 5.85742,8.71094 5.85742,8.39546 5.96815,8.12752 6.19141,7.9043 6.41476,7.68104 6.68449,7.56836 7,7.56836 Z m 8,0 c 0.31548,0 0.58534,0.11271 0.8086,0.33594 0.22325,0.22322 0.33398,0.49116 0.33398,0.80664 0,0.31538 -0.11073,0.58537 -0.33398,0.80859 -0.22326,0.2232 -0.49312,0.33399 -0.8086,0.33399 -0.31551,0 -0.58533,-0.11079 -0.80859,-0.33399 -0.22326,-0.22313 -0.33399,-0.49311 -0.33399,-0.80859 0,-0.31548 0.11073,-0.58342 0.33399,-0.80664 C 14.41467,7.68107 14.68449,7.56836 15,7.56836 Z m -2.76367,1.31445 c 0.0714,-0.01 0.14431,-0.005 0.21875,0.0156 0.14898,0.0417 0.26351,0.12979 0.34375,0.26367 0.0806,0.13407 0.10215,0.27886 0.0664,0.43359 l -0.90039,3.41016 c 0.29784,0.20227 0.51161,0.47306 0.64258,0.8125 0.13078,0.33928 0.14799,0.68778 0.0527,1.04492 -0.11903,0.45837 -0.38415,0.80694 -0.79492,1.04492 -0.41077,0.23811 -0.84428,0.29686 -1.30274,0.17774 -0.45824,-0.11903 -0.8069,-0.38416 -1.04492,-0.79492 -0.23802,-0.41087 -0.29676,-0.84425 -0.17773,-1.30274 0.0952,-0.35701 0.2827,-0.64989 0.5625,-0.8789 0.2797,-0.22933 0.59794,-0.35884 0.95507,-0.38868 l 0.90235,-3.41015 c 0.0416,-0.15474 0.13073,-0.27315 0.26758,-0.35352 0.0685,-0.0401 0.13756,-0.0645 0.20898,-0.0742 z m -6.95117,2.68555 c 0.31548,0 0.58549,0.11268 0.80859,0.33594 0.22313,0.22325 0.33399,0.49116 0.33399,0.80664 0,0.31551 -0.11086,0.58533 -0.33399,0.80859 -0.22322,0.22313 -0.49311,0.33399 -0.80859,0.33399 -0.31539,0 -0.58342,-0.11086 -0.80664,-0.33399 -0.22326,-0.22304 -0.33594,-0.49308 -0.33594,-0.80859 0,-0.31548 0.11268,-0.58339 0.33594,-0.80664 0.22325,-0.22326 0.49125,-0.33594 0.80664,-0.33594 z m 11.42969,0 c 0.31548,0 0.58338,0.11268 0.80664,0.33594 0.22325,0.22325 0.33593,0.49116 0.33593,0.80664 0,0.31551 -0.11271,0.58533 -0.33593,0.80859 -0.22326,0.22313 -0.49116,0.33399 -0.80664,0.33399 -0.31552,0 -0.58534,-0.11086 -0.8086,-0.33399 -0.22325,-0.22304 -0.33398,-0.49308 -0.33398,-0.80859 0,-0.31548 0.11073,-0.58339 0.33398,-0.80664 0.22326,-0.22326 0.49308,-0.33594 0.8086,-0.33594 z"
     />
</svg>
