<svg xmlns="http://www.w3.org/2000/svg" viewBox="0 0 22 22">
  <defs id="defs3051">
    <style type="text/css" id="current-color-scheme">
      .ColorScheme-Text {
        color:#4d4d4d
      }
      </style>
  </defs>
 <path 
     style="fill:currentColor;fill-opacity:1;stroke:none"      
	 class="ColorScheme-Text"
        d="m 11,9.3 c -0.414,0 -0.75,0.336 -0.75,0.75 0,0.414 0.336,0.75 0.75,0.75 0.414,0 0.75,-0.33562 0.75,-0.75 C 11.75,9.63562 11.41438,9.3 11,9.3 Z m 0,2.25 c -0.414,0 -0.75,0.33562 -0.75,0.75 l 0,2.25 c 0,0.414 0.336,0.75 0.75,0.75 0.414,0 0.75,-0.336 0.75,-0.75 l 0,-2.25 c 0,-0.414 -0.33562,-0.75 -0.75,-0.75 z M 16.4,4 l 2,3 2,-3 z M 9.42773,8.4 C 8.36164,8.4 7.91406,8.75225 7.91406,9.65391 l 0,1.22265 c 0,0.55691 -0.0205,1.20117 -0.60937,1.20117 l -0.30469,0 0,0.64454 0.30469,0 c 0.58889,0 0.60937,0.64426 0.60937,1.20117 l 0,1.22265 c 0,0.90166 0.44758,1.25391 1.51367,1.25391 l 0,-0.5918 c -0.71072,0 -0.7207,-0.23916 -0.7207,-1.10547 l 0,-1.00781 c 0,-0.41546 -0.12361,-1.03466 -0.72265,-1.29101 0.59904,-0.25635 0.72265,-0.8736 0.72265,-1.28907 l 0,-1.01757 c 0,-0.86631 0.01,-1.10547 0.7207,-1.10547 z m 3.13672,0 0,0.5918 c 0.71073,0 0.72852,0.23916 0.72852,1.10547 l 0,1.01757 c 0,0.41547 0.12361,1.03272 0.72266,1.28907 -0.59905,0.25635 -0.72266,0.87555 -0.72266,1.29101 l 0,1.00781 c 0,0.86631 -0.0177,1.10547 -0.72852,1.10547 l 0,0.5918 c 1.0661,0 1.52148,-0.35225 1.52149,-1.25391 l 0,-1.22265 c 0,-0.55691 0.0404,-1.20117 0.61914,-1.20117 l 0.29492,0 0,-0.64454 -0.29492,0 c -0.57874,0 -0.61915,-0.64426 -0.61914,-1.20117 l 0,-1.22265 C 14.08594,8.75225 13.63055,8.4 12.56445,8.4 Z M 1.15096,3 20.84904,3 c 0.41713,0 0.75294,0.33582 0.75294,0.75294 l 0,14.49412 C 21.60198,18.66419 21.26617,19 20.84904,19 L 1.15096,19 C 0.73383,19 0.39802,18.66419 0.39802,18.24706 l 0,-14.49412 C 0.39802,3.33582 0.73383,3 1.15096,3 Z"
     />
</svg>
