<?xml version="1.0" encoding="UTF-8" standalone="no"?>
<svg
   xmlns:dc="http://purl.org/dc/elements/1.1/"
   xmlns:cc="http://creativecommons.org/ns#"
   xmlns:rdf="http://www.w3.org/1999/02/22-rdf-syntax-ns#"
   xmlns:svg="http://www.w3.org/2000/svg"
   xmlns="http://www.w3.org/2000/svg"
   xmlns:sodipodi="http://sodipodi.sourceforge.net/DTD/sodipodi-0.dtd"
   xmlns:inkscape="http://www.inkscape.org/namespaces/inkscape"
   viewBox="0 0 22 22"
   id="svg3313"
   version="1.1"
   inkscape:version="0.91 r13725"
   sodipodi:docname="debug-step-into.svg">
  <metadata
     id="metadata3321">
    <rdf:RDF>
      <cc:Work
         rdf:about="">
        <dc:format>image/svg+xml</dc:format>
        <dc:type
           rdf:resource="http://purl.org/dc/dcmitype/StillImage" />
      </cc:Work>
    </rdf:RDF>
  </metadata>
  <sodipodi:namedview
     pagecolor="#ffffff"
     bordercolor="#666666"
     borderopacity="1"
     objecttolerance="10"
     gridtolerance="10"
     guidetolerance="10"
     inkscape:pageopacity="0"
     inkscape:pageshadow="2"
     inkscape:window-width="640"
     inkscape:window-height="480"
     id="namedview3319"
     showgrid="false"
     inkscape:zoom="28.954545"
     inkscape:cx="4.8524333"
     inkscape:cy="11"
     inkscape:current-layer="svg3313" />
  <defs
     id="defs3051">
    <style
       type="text/css"
       id="current-color-scheme">
      .ColorScheme-Text {
        color:#4d4d4d
      }
      </style>
  </defs>
  <path
     style="color:#4d4d4d;fill:currentColor;fill-opacity:1;stroke:none"
     class="ColorScheme-Text"
     d="M 9.4908555,5.681352 11,7.9450725 12.509152,5.681352 Z m 0.3227472,3.320135 c -0.8044459,0 -1.1421791,0.265806 -1.1421791,0.94617 l 0,0.922582 c 0,0.420224 -0.015469,0.906374 -0.459816,0.906374 l -0.2299117,0 0,0.486347 0.2299117,0 c 0.4443623,0 0.459816,0.486143 0.459816,0.906374 l 0,0.922583 c 0,0.680371 0.3377332,0.94617 1.1421791,0.94617 l 0,-0.446558 c -0.5362922,0 -0.5438229,-0.180464 -0.5438229,-0.834161 l 0,-0.760469 c 0,-0.313496 -0.093273,-0.78073 -0.5452944,-0.974166 0.4520213,-0.193435 0.5452944,-0.659197 0.5452944,-0.972708 l 0,-0.767827 c 0,-0.653697 0.00755,-0.834161 0.5438229,-0.834161 z m 2.3668943,0 0,0.446565 c 0.536299,0 0.549723,0.180465 0.549723,0.834161 l 0,0.767827 c 0,0.313511 0.09327,0.779273 0.545302,0.972709 -0.452029,0.193435 -0.545302,0.660669 -0.545302,0.974165 l 0,0.760469 c 0,0.653689 -0.01336,0.834161 -0.549723,0.834161 l 0,0.446558 c 0.804461,0 1.148072,-0.265799 1.148079,-0.94617 l 0,-0.922583 c 0,-0.42023 0.03048,-0.906374 0.467196,-0.906374 l 0.222532,0 0,-0.486354 -0.222532,0 c -0.436711,0 -0.467203,-0.486143 -0.467196,-0.906374 l 0,-0.922583 c 0,-0.680371 -0.343618,-0.946177 -1.148079,-0.946177 z m -8.6123465,-4.0747035 14.8636995,0 C 18.746606,4.9267835 19,5.1801777 19,5.4949264 L 19,16.43185 C 19,16.746606 18.746606,17 18.43185,17 L 3.5681505,17 C 3.2533942,17 3,16.746606 3,16.43185 L 3,5.4949264 C 3,5.1801777 3.2533942,4.9267835 3.5681505,4.9267835 Z"
     id="path3317"
     inkscape:connector-curvature="0" />
</svg>
