<svg xmlns="http://www.w3.org/2000/svg" viewBox="0 0 22 22">
  <defs id="defs3051">
    <style type="text/css" id="current-color-scheme">
      .ColorScheme-Text {
        color:#4d4d4d
      }
      </style>
  </defs>
  <path
     style="fill:currentColor;fill-opacity:1;stroke:none"
	 class="ColorScheme-Text"
     d="m 15.659449,9.8566508 -7.8106123,0 0,-1.9679415 c 0,-1.7578605 1.4135972,-3.1879504 3.1511853,-3.1879504 1.418766,0 2.669297,0.9658369 3.041072,2.3487319 0.121796,0.4531134 0.583679,0.7205085 1.03165,0.5973766 C 15.520716,7.5236505 15.78507,7.0563362 15.663232,6.6031378 15.092918,4.4816641 13.175369,3 11.000022,3 8.3354738,3 6.1677341,5.1930738 6.1677341,7.8886668 l 0,1.9862241 C 5.7869223,9.95576 5.5000001,10.298029 5.5000001,10.707009 l 0,7.442633 C 5.5000001,18.618529 5.8770714,19 6.3405514,19 l 9.3188976,0 C 16.122929,19 16.5,18.618529 16.5,18.149642 l 0,-7.442633 c 0,-0.46893 -0.377071,-0.8503582 -0.840551,-0.8503582 z"
      />
</svg>
