<svg xmlns="http://www.w3.org/2000/svg" viewBox="0 0 22 22">
  <defs id="defs3051">
    <style type="text/css" id="current-color-scheme">
      .ColorScheme-Text {
        color:#4d4d4d
      }
      </style>
  </defs>
  <g
     transform="translate(-326,-534.3622)">
    <g
       transform="matrix(0.66666667,0,0,0.66666667,70.95238,189.83024)"
       id="layer1-91"
       inkscape:label="Capa 1">
      <path
         style="fill:currentColor;fill-opacity:1;stroke:none"
         class="ColorScheme-Text"
         d="M 3.6679688 3 C 3.2988349 3 3 3.2988749 3 3.6679688 L 3 18.332031 C 3 18.701165 3.2988349 19 3.6679688 19 L 18.332031 19 C 18.701165 19 19 18.701165 19 18.332031 L 19 6.7734375 C 19 6.5962242 18.930061 6.4261218 18.804688 6.3007812 L 15.699219 3.1953125 C 15.573879 3.0699792 15.403868 3 15.226562 3 L 3.6679688 3 z M 5.6386719 4.5273438 L 14.816406 4.5273438 L 14.816406 9.4277344 L 5.6386719 9.4277344 L 5.6386719 4.5273438 z M 11.208984 5 C 11.093911 5 11 5.1073944 11 5.2402344 L 11 8.7597656 C 11 8.8926456 11.093911 9 11.208984 9 L 12.791016 9 C 12.906089 9 13 8.8926456 13 8.7597656 L 13 5.2402344 C 13 5.1073944 12.906089 5 12.791016 5 L 11.208984 5 z "
         transform="matrix(1.5,0,0,1.5,382.57143,516.79794)"
         id="path7" />
    </g>
  </g>
</svg>
