<svg xmlns="http://www.w3.org/2000/svg" viewBox="0 0 22 22">
  <defs id="defs3051">
    <style type="text/css" id="current-color-scheme">
      .ColorScheme-Text {
        color:#4d4d4d
      }
      </style>
  </defs>
  <path
     style="fill:currentColor;fill-opacity:1;stroke:none"
	 class="ColorScheme-Text"
     d="M 7,3 C 6.4482907,3 6,3.4482577 6,4 l 0,2 1,0 0,-2 8,0 0,2 1,0 0,-2 C 16,3.4482577 15.552831,3 15,3 L 7,3 Z M 4,7 C 3.4482907,7 3,7.4482247 3,8 l 0,5 c 0,0.552798 0.4482577,1 1,1 l 2,0 0,4 c 0,0.552798 0.4482577,1 1,1 l 8,0 c 0.552831,0 1,-0.447202 1,-1 l 0,-4 2,0 c 0.552633,0 1,-0.447202 1,-1 L 19,8 C 19,7.4482247 18.5526,7 18,7 L 4,7 Z m 13,1 c 0.552831,0 1,0.4482577 1,1 3.3e-5,0.5527316 -0.447169,1 -1,1 -0.552798,0 -1,-0.4472354 -1,-1 0,-0.5517094 0.447202,-1 1,-1 z m -10,3 8,0 0,7 -8,0 0,-7 z m 1,1 0,1 4,0 0,-1 -4,0 z m 0,2 0,1 6,0 0,-1 -6,0 z m 0,2 0,1 6,0 0,-1 -6,0 z"
     id="path4177" />
</svg>
