<svg xmlns="http://www.w3.org/2000/svg" viewBox="0 0 22 22">
  <defs id="defs3051">
    <style type="text/css" id="current-color-scheme">
      .ColorScheme-Text {
        color:#4d4d4d
      }
      </style>
  </defs>
    <path
       style="fill:currentColor;fill-opacity:1;stroke:none"
       class="ColorScheme-Text"
       d="M 11.00004,3 C 7.69161,3 5,5.37417 5,8.29238 c 0,1.17535 0.85091,3.09159 2.60118,5.85823 1.23808,1.9568 2.45578,3.58841 2.50694,3.65689 L 11.00004,19 11.89191,17.80753 c 0.0512,-0.0685 1.26899,-1.70009 2.50691,-3.65689 C 16.14918,11.38397 17,9.46777 17,8.29241 17.00004,5.37417 14.30842,3 11.00004,3 Z m 0,8 C 9.28238,11 7.88989,9.77177 7.88989,8.25665 c 0,-1.51512 1.39249,-2.74336 3.11015,-2.74336 1.71766,0 3.11016,1.22824 3.11016,2.74336 C 14.1102,9.77177 12.71766,11 11.00004,11 Z"
        />
</svg>
