<svg xmlns="http://www.w3.org/2000/svg" viewBox="0 0 22 22">
  <defs id="defs3051">
    <style type="text/css" id="current-color-scheme">
      .ColorScheme-Text {
        color:#4d4d4d
      }
      </style>
  </defs>
 <path 
     style="fill:currentColor;fill-opacity:1;stroke:none"      
	 class="ColorScheme-Text"
        d="M 11.000326,3 C 8.9636461,3 7.0908861,3.43876 5.7240761,4.32812 c -1.3668,0.88936 -2.22569,2.23737 -2.22396,4.02865 0.009,2.02438 1.32046,4.63644 2.90315,6.77083 0.79133,1.06719 1.65119,2.01513 2.45568,2.70573 0.80446,0.6906 1.5489199,1.12954 2.1360599,1.16667 l 0.005,0 0.005,0 c 0.58714,-0.0372 1.33159,-0.47607 2.13605,-1.16667 0.80447,-0.6906 1.66434,-1.63854 2.45569,-2.70573 1.5827,-2.13439 2.89346,-4.74645 2.90314,-6.77083 7.3e-4,-1.79128 -0.85718,-3.13929 -2.22397,-4.02865 C 14.909116,3.43876 13.036336,3 10.999656,3 Z"
     />
</svg>
