<?xml version="1.0" encoding="UTF-8" standalone="no"?>
<svg
   xmlns:dc="http://purl.org/dc/elements/1.1/"
   xmlns:cc="http://creativecommons.org/ns#"
   xmlns:rdf="http://www.w3.org/1999/02/22-rdf-syntax-ns#"
   xmlns:svg="http://www.w3.org/2000/svg"
   xmlns="http://www.w3.org/2000/svg"
   xmlns:sodipodi="http://sodipodi.sourceforge.net/DTD/sodipodi-0.dtd"
   xmlns:inkscape="http://www.inkscape.org/namespaces/inkscape"
   viewBox="0 0 22 22"
   id="svg2"
   version="1.1"
   inkscape:version="0.91 r13725"
   sodipodi:docname="filename-moodbar.svg">
  <metadata
     id="metadata15">
    <rdf:RDF>
      <cc:Work
         rdf:about="">
        <dc:format>image/svg+xml</dc:format>
        <dc:type
           rdf:resource="http://purl.org/dc/dcmitype/StillImage" />
      </cc:Work>
    </rdf:RDF>
  </metadata>
  <sodipodi:namedview
     pagecolor="#ffffff"
     bordercolor="#666666"
     borderopacity="1"
     objecttolerance="10"
     gridtolerance="10"
     guidetolerance="10"
     inkscape:pageopacity="0"
     inkscape:pageshadow="2"
     inkscape:window-width="2560"
     inkscape:window-height="1373"
     id="namedview13"
     showgrid="false"
     inkscape:zoom="21.454545"
     inkscape:cx="16.978232"
     inkscape:cy="4.8049637"
     inkscape:window-x="0"
     inkscape:window-y="38"
     inkscape:window-maximized="1"
     inkscape:current-layer="svg2" />
  <defs
     id="defs3051">
    <style
       type="text/css"
       id="current-color-scheme">
      .ColorScheme-Text {
        color:#4d4d4d
      }
      </style>
  </defs>
  <path
     inkscape:connector-curvature="0"
     style="fill:#ff9051;fill-opacity:1;stroke:none"
     d="m 4.6836,3.91015 0,14.4375 3.15821,0 0,-14.4375 -3.15821,0 z"
     id="rect4752" />
  <path
     inkscape:connector-curvature="0"
     style="fill:#00ab83;fill-opacity:1;stroke:none"
     d="m 11.00001,3.91015 0,14.4375 3.1582,0 0,-14.4375 -3.1582,0 z"
     id="rect4752-5" />
  <path
     inkscape:connector-curvature="0"
     style="fill:#4f71d4;fill-opacity:1;stroke:none"
     d="m 17.31641,3.91015 0,14.4375 3.15821,0 0,-14.4375 -3.15821,0 z"
     id="rect4752-3" />
  <path
     inkscape:connector-curvature="0"
     style="fill:#ffd68c;fill-opacity:1;stroke:none"
     d="m 1.5254,3.91015 0,14.4375 3.1582,0 0,-14.4375 -3.1582,0 z"
     id="rect4752-31" />
  <path
     inkscape:connector-curvature="0"
     style="fill:#4bb4ff;fill-opacity:1;stroke:none"
     d="m 14.15821,3.91015 0,14.4375 3.1582,0 0,-14.4375 -3.1582,0 z"
     id="rect4752-4" />
  <path
     inkscape:connector-curvature="0"
     style="fill:#7fcc74;fill-opacity:1;stroke:none"
     d="m 7.84181,3.91015 0,14.4375 3.1582,0 0,-14.4375 -3.1582,0 z"
     id="rect4752-9-4" />
  <path
     style="fill:currentColor;fill-opacity:1;stroke:none"      
	 class="ColorScheme-Text"
     d="M 1.88281,3.25976 C 1.40136,3.25976 1,3.65918 1,4.14062 L 1,18.11718 C 1,18.59863 1.40136,19 1.88281,19 l 18.23633,0 C 20.60059,19 21,18.59863 21,18.11718 L 21,4.14062 C 21,3.65918 20.60059,3.25976 20.11914,3.25976 l -18.23633,0 z m 0,0.83203 18.23633,0 c 0.0345,0 0.0488,0.0144 0.0488,0.0488 l 0,13.97656 c 0,0.0346 -0.0144,0.0488 -0.0488,0.0488 l -18.23633,0 c -0.0346,0 -0.0508,-0.0144 -0.0508,-0.0488 l 0,-13.97656 c 0,-0.0345 0.0162,-0.0488 0.0508,-0.0488 z"
     id="rect4403" />
</svg>
