<svg xmlns="http://www.w3.org/2000/svg" viewBox="0 0 22 22">
  <defs id="defs3051">
    <style type="text/css" id="current-color-scheme">
      .ColorScheme-Text {
        color:#4d4d4d
      }
      </style>
  </defs>
 <path 
     style="fill:currentColor;fill-opacity:1;stroke:none"      
	 class="ColorScheme-Text"
        d="M 1.35965,3.0013 C 1.16001,3.0013 1,3.17076 1,3.38218 L 1,18.9551 21,19 21,5.63616 C 21,5.42473 20.83815,5.25333 20.6385,5.25333 l -10.84101,0 C 9.4302,5.28773 9.38327,5.23643 9.20177,4.97988 8.94438,4.61509 8.55512,3.63252 8.30173,3.27668 8.09835,2.96514 8.06545,3.00128 7.72814,3.00128 l -6.36849,0 z m 8.94135,6.05885 1.39985,0 c -0.002,0.71075 0,2.58214 0,2.58214 l 2.27038,0 0,1.48248 -2.27038,0 c 0,0 -8.2e-4,1.86822 -0.002,2.58214 l -1.39985,0 c 9.4e-4,-0.71392 0.002,-2.58214 0.002,-2.58214 0,0 -1.52052,-10e-4 -2.27223,0 l 0,-1.48053 c 0.75171,-0.002 2.27223,-0.002 2.27223,-0.002 0,0 -9.5e-4,-1.87144 0,-2.58214 z"
     />
</svg>
