<svg xmlns="http://www.w3.org/2000/svg" viewBox="0 0 22 22">
  <defs id="defs3051">
    <style type="text/css" id="current-color-scheme">
      .ColorScheme-Text {
        color:#4d4d4d
      }
      </style>
  </defs>
 <path 
     style="fill:currentColor;fill-opacity:1;stroke:none"      
	 class="ColorScheme-Text"
        d="M 1.35965,3.0013008 C 1.16001,3.0013008 1,3.1707608 1,3.3821808 l 0,15.5729202 20,0.0449 0,-13.3638402 c 0,-0.21142 -0.16186,-0.38283 -0.3615,-0.38283 l -10.84101,0 c -0.36728,0.0344 -0.41422,-0.0169 -0.59572,-0.27345 -0.25739,-0.36478 -0.64665,-1.34736 -0.90004,-1.7032 -0.20338,-0.31154 -0.23628,-0.2754 -0.57359,-0.2754 l -6.36849,0 z M 11,8.2163708 c 0.49702,0 0.97996,0.10073 1.44965,0.30079 0.46975,0.20005 0.88804,0.4816 1.2523,0.84574 l 0.66397,-0.6973 c 0.0648,-0.0684 0.1402,-0.10157 0.22869,-0.10157 0.0885,0 0.16593,0.0331 0.23054,0.10157 0.0648,0.0685 0.0959,0.15043 0.0959,0.24415 l 0,2.4219802 c 0,0.0937 -0.0312,0.17565 -0.0959,0.24415 -0.0647,0.0685 -0.14204,0.10156 -0.23054,0.10156 l -2.28698,0 c -0.0885,0 -0.1658,-0.0331 -0.23054,-0.10156 -0.0646,-0.0685 -0.0959,-0.15043 -0.0959,-0.24415 0,-0.0937 0.0314,-0.1737 0.0959,-0.2422 l 0.70454,-0.74807 C 12.27779,9.8475608 11.68429,9.6011908 11,9.6011908 c -0.45615,0 -0.88137,0.11727 -1.27628,0.35157 -0.39492,0.2343702 -0.71154,0.5578102 -0.94984,0.9687902 -0.0375,0.0613 -0.12815,0.27236 -0.27112,0.63285 -0.0273,0.0829 -0.0782,0.12304 -0.15308,0.12304 l -1.01623,0 c -0.0443,0 -0.082,-0.0165 -0.11434,-0.0508 -0.0323,-0.0342 -0.048,-0.0742 -0.048,-0.12109 l 0,-0.0391 c 0.2213,-0.96624 0.67983,-1.7494902 1.37771,-2.3497102 0.6979,-0.6003 1.51495,-0.90043 2.45113,-0.90043 z m -3.59462,4.8459002 2.28699,0 c 0.0885,0 0.16585,0.0349 0.23054,0.10353 0.0647,0.0684 0.0959,0.14846 0.0959,0.24219 0,0.0937 -0.0313,0.17571 -0.0959,0.24415 l -0.69901,0.74027 c 0.24168,0.23795 0.51438,0.42293 0.82073,0.55275 0.30636,0.12984 0.62519,0.19337 0.95537,0.19337 0.45615,0 0.88136,-0.11721 1.27628,-0.35158 0.39485,-0.23431 0.71148,-0.55597 0.94984,-0.96684 0.0374,-0.0613 0.12822,-0.27229 0.27111,-0.63283 0.0272,-0.083 0.0783,-0.12501 0.15308,-0.12501 l 0.97934,0 c 0.0443,0 0.0838,0.0167 0.1162,0.0508 0.0323,0.0343 0.048,0.0762 0.048,0.12306 0,0.018 -0.002,0.0299 -0.006,0.0371 -0.21792,0.96615 -0.67405,1.74947 -1.3685,2.34971 -0.69444,0.60029 -1.50725,0.90043 -2.44005,0.90043 -0.49702,0 -0.9776,-0.0985 -1.44228,-0.2969 -0.46467,-0.19825 -0.87881,-0.48193 -1.24308,-0.84964 l -0.66027,0.6973 c -0.0647,0.0684 -0.1402,0.10351 -0.2287,0.10351 -0.0885,0 -0.1658,-0.0351 -0.23054,-0.10351 -0.0647,-0.0684 -0.0959,-0.14855 -0.0959,-0.2422 l 0,-2.42393 c 0,-0.0937 0.0313,-0.17377 0.0959,-0.2422 0.0647,-0.0686 0.14198,-0.10352 0.23054,-0.10352 z"
     />
</svg>
