<svg xmlns="http://www.w3.org/2000/svg" viewBox="0 0 22 22">
  <defs id="defs3051">
    <style type="text/css" id="current-color-scheme">
      .ColorScheme-Text {
        color:#4d4d4d
      }
      </style>
  </defs>
 <path 
     style="fill:currentColor;fill-opacity:1;stroke:none"      
	 class="ColorScheme-Text"
        d="m 7.406245,3.03418 -4.7832,1.91406 5.74023,1.91211 4.78321,-1.91211 -5.74024,-1.91406 z m -4.7832,2.87109 0,5.74024 4.7832,1.91211 0,-5.74024 -4.7832,-1.91211 z m 10.52344,0 -4.78321,1.91211 0,5.74024 4.78321,-1.91211 0,-5.74024 z m 1.14843,3.56055 0,4.78516 1.62696,-1.62696 c 1.31173,0.43247 2.25976,1.66479 2.25976,3.1211 0,1.58867 -1.12652,2.91254 -2.62304,3.2207 2.15887,-0.32383 3.81836,-2.16706 3.81836,-4.41601 0,-1.4675 -0.70713,-2.7658 -1.79688,-3.58399 l 1.49805,-1.5 -4.78321,0 z"
     />
</svg>
