<svg xmlns="http://www.w3.org/2000/svg" viewBox="0 0 22 22">
  <defs id="defs3051">
    <style type="text/css" id="current-color-scheme">
      .ColorScheme-Text {
        color:#4d4d4d
      }
      </style>
  </defs>
 <path 
     style="fill:currentColor;fill-opacity:1;stroke:none"      
	 class="ColorScheme-Text"
        d="m 8.4215402,3.0034826 c -0.20166,-0.0165 -0.38384,0.033 -0.53515,0.19922 -0.49211,0.54071 0.35389,2.50662 1.67578,3.36328 -3.94378,1.93831 -9.48690998,11.6689804 0.18359,12.3750004 C 23.12655,19.917933 16.42551,8.3688826 11.83756,6.4800526 c 1.21715,-1.02247 2.0298,-3.32504 1.5293,-3.42579 -0.66503,-0.13391 -2.10864,0.45319 -2.80664,0.55664 -0.7425098,0.0897 -1.5336698,-0.55802 -2.1386798,-0.60742 z m 2.4609398,6.35938 c 0.0743,-0.011 0.15261,-10e-4 0.22266,0.0312 0.13824,0.0637 0.22851,0.20524 0.22851,0.35742 l 0,0.4003904 0,0.0312 c 0.0515,0.006 0.10325,0.0142 0.1543,0.0234 0.37927,0.0686 0.74999,0.22656 1.02734,0.5 0.1314,0.12951 0.23882,0.28288 0.31446,0.45117 0.0211,0.0469 0.0387,0.0956 0.0547,0.14453 0.0149,0.0457 0.03,0.093 0.0371,0.14063 0.0114,0.0761 10e-4,0.155 -0.0312,0.22461 -0.0667,0.14261 -0.21759,0.2333 -0.375,0.22656 -0.15466,-0.007 -0.29423,-0.10738 -0.34961,-0.25195 -0.0165,-0.043 -0.0242,-0.0899 -0.041,-0.13281 -0.017,-0.0434 -0.0391,-0.0839 -0.0645,-0.12305 -0.0492,-0.0761 -0.1127,-0.14159 -0.18555,-0.19532 -0.15775,-0.11648 -0.34984,-0.17701 -0.54102,-0.21093 l 0,1.49023 c 0.22721,0.0544 0.45419,0.11338 0.67188,0.19922 0.32901,0.12974 0.64073,0.32889 0.82031,0.64258 0,0 0.002,0.002 0.002,0.002 0,0 0,0.002 0,0.002 0.14288,0.25179 0.19122,0.55187 0.16016,0.83789 -0.0412,0.37935 -0.24246,0.72413 -0.54297,0.95703 -0.3173,0.24592 -0.7159,0.35859 -1.11133,0.39062 l 0,0.41993 c 0,0.11215 -0.0488,0.22068 -0.13281,0.29492 -0.1154,0.1021 -0.28573,0.12703 -0.42578,0.0625 -0.13829,-0.0636 -0.22852,-0.20525 -0.22852,-0.35742 l 0,-0.45703 c -0.0678,-0.0129 -0.13464,-0.0286 -0.20117,-0.0469 -0.3696098,-0.10163 -0.7125398,-0.30101 -0.9629398,-0.59384 -0.12473,-0.14597 -0.22654,-0.31145 -0.29687,-0.49024 -0.0184,-0.0467 -0.0345,-0.0945 -0.0488,-0.14258 -0.013,-0.0436 -0.0266,-0.0874 -0.0312,-0.13281 -0.008,-0.0762 0.007,-0.15286 0.043,-0.2207 0.073,-0.13957 0.22582,-0.22494 0.38281,-0.21094 0.15451,0.0137 0.2912,0.12225 0.33984,0.26953 0.015,0.0454 0.0242,0.0918 0.041,0.13672 0.0167,0.0446 0.0369,0.0876 0.0605,0.12891 0.0468,0.0812 0.10636,0.15568 0.1738298,0.2207 0.13907,0.13399 0.31533,0.22163 0.5,0.27344 l 0,-1.5586 c -0.36109,-0.0935 -0.7330798,-0.21347 -1.0312598,-0.44531 -0.14491,-0.11272 -0.26907,-0.2522 -0.3496,-0.41797 -0.085,-0.17495 -0.11967,-0.37086 -0.1211,-0.56445 -10e-4,-0.19657 0.0352,-0.39122 0.11719,-0.57031 0.0768,-0.16769 0.18864,-0.31856 0.32422,-0.44336 0.28989,-0.26682 0.6743098,-0.41409 1.0605398,-0.46875 l 0,-0.0352 0,-0.4003904 c 0,-0.11212 0.0489,-0.22068 0.13282,-0.29493 0.0577,-0.051 0.12881,-0.0828 0.20312,-0.0937 z m -0.33594,1.6230404 c -0.23007,0.0491 -0.48149,0.15255 -0.6191398,0.35352 -0.0515,0.0753 -0.0848,0.16107 -0.0937,0.25195 -0.009,0.0911 -0.003,0.19357 0.0312,0.2793 0.033,0.0817 0.1026,0.14089 0.1738298,0.18945 0.0799,0.0544 0.16829,0.0968 0.25781,0.13282 0.0751,0.0302 0.15893,0.06 0.25,0.0879 l 0,-1.29493 z m 0.78711,2.29493 0,1.43164 c 0.2998,-0.0339 0.64338,-0.142 0.80079,-0.42188 0.0752,-0.13369 0.0912,-0.29844 0.0605,-0.44726 -0.0166,-0.0806 -0.0517,-0.15382 -0.10743,-0.21485 -0.0598,-0.0654 -0.13477,-0.11547 -0.21289,-0.15625 -0.17009,-0.0887 -0.35631,-0.14284 -0.54101,-0.1914 z"
     />
</svg>
