<svg xmlns="http://www.w3.org/2000/svg" viewBox="0 0 22 22">
  <defs id="defs3051">
    <style type="text/css" id="current-color-scheme">
      .ColorScheme-Text {
        color:#4d4d4d
      }
      </style>
  </defs>
 <path 
     style="fill:currentColor;fill-opacity:1;stroke:none"      
	 class="ColorScheme-Text"
        d="m 1.150395,3 c -0.41713,0 -0.75196,0.33679 -0.75196,0.75391 l 0,6.60351 1.25782,0 0,-1.28515 1.28711,0 0,-2.57227 1.28515,0 0,1.28516 1.28516,0 0,1.28711 1.28711,0 0,1.28515 0,1.28516 0,1.28515 -1.28711,0 0,1.28711 -1.28516,0 0,1.28516 -1.28515,0 0,-2.57227 -1.28711,0 0,-1.28515 -1.25782,0 0,6.60351 c 0,0.41713 0.33483,0.75391 0.75196,0.75391 l 19.69922,0 c 0.41713,0 0.75195,-0.33678 0.75195,-0.75391 l 0,-6.60351 -1.25781,0 0,1.28515 -1.28711,0 0,1.28711 -1.28516,0 0,1.28516 -1.28516,0 0,-1.28516 -1.28711,0 0,-1.28711 -1.28515,0 0,-1.28515 0,-1.28516 0,-1.28515 1.28515,0 0,-1.28711 1.28711,0 0,-1.28516 1.28516,0 0,1.28516 1.28516,0 0,1.28711 1.28711,0 0,1.28515 1.25781,0 0,-6.60351 C 21.601565,3.33679 21.266735,3 20.849615,3 L 1.150395,3 Z m 20.45117,7.35742 0,1.28516 0.0273,0 0,-1.28516 -0.0273,0 z m -21.20313,1.28516 0,-1.28516 -0.0273,0 0,1.28516 0.0273,0 z m 10.39258,-4.51563 0.26367,3.08008 2.25391,-2.11523 c 0.46181,0.49095 0.2999,0.86905 -0.4082,1.53515 l -1.75977,1.65039 0.10352,1.14454 c 0.30486,-0.004 0.58824,0.0379 0.80859,0.18554 0.33784,0.22647 0.52163,0.59835 0.55273,0.9668 0.0311,0.36842 -0.0897,0.75722 -0.38476,1.03711 -0.54459,0.49416 -1.44237,0.29799 -1.69531,-0.69531 l -0.16407,-1.90039 -1.39062,1.30468 c -0.85189,0.56999 -1.65158,0.11631 -1.72656,-0.61523 -0.0325,-0.40542 0.13693,-0.776 0.40625,-1.0293 0.26933,-0.25333 0.6559,-0.40687 1.05859,-0.34961 0.2626,0.0374 0.50032,0.19566 0.72461,0.40235 l 0.8418,-0.78321 -0.20703,-2.40234 c -0.0818,-0.96873 0.051,-1.35933 0.72265,-1.41602 z m -2.2207,4.76563 c -0.17462,-0.0431 -0.36913,0.006 -0.52539,0.13672 -0.24996,0.20887 -0.30775,0.56026 -0.11328,0.79297 0.19442,0.2328 0.56825,0.25215 0.81836,0.043 0.24994,-0.20885 0.28626,-0.56609 0.0918,-0.79883 -0.0729,-0.0873 -0.16667,-0.14822 -0.27148,-0.17383 z m 2.88867,1.17578 c -0.3002,0.0432 -0.51322,0.33387 -0.4668,0.65625 0.0463,0.32272 0.33849,0.55694 0.63868,0.51367 0.30018,-0.0432 0.49172,-0.34168 0.44531,-0.66406 -0.0348,-0.24194 -0.20126,-0.43328 -0.40821,-0.49414 -0.0689,-0.0202 -0.13394,-0.0225 -0.20898,-0.0117 z"
     />
</svg>
