<?xml version="1.0" encoding="UTF-8" standalone="no"?>
<svg
   xmlns:dc="http://purl.org/dc/elements/1.1/"
   xmlns:cc="http://creativecommons.org/ns#"
   xmlns:rdf="http://www.w3.org/1999/02/22-rdf-syntax-ns#"
   xmlns:svg="http://www.w3.org/2000/svg"
   xmlns="http://www.w3.org/2000/svg"
   xmlns:sodipodi="http://sodipodi.sourceforge.net/DTD/sodipodi-0.dtd"
   xmlns:inkscape="http://www.inkscape.org/namespaces/inkscape"
   viewBox="0 0 22 22"
   id="svg2"
   version="1.1"
   inkscape:version="0.91 r13725"
   sodipodi:docname="kdenlive-split-audio.svg">
  <metadata
     id="metadata10">
    <rdf:RDF>
      <cc:Work
         rdf:about="">
        <dc:format>image/svg+xml</dc:format>
        <dc:type
           rdf:resource="http://purl.org/dc/dcmitype/StillImage" />
      </cc:Work>
    </rdf:RDF>
  </metadata>
  <sodipodi:namedview
     pagecolor="#ffffff"
     bordercolor="#666666"
     borderopacity="1"
     objecttolerance="10"
     gridtolerance="10"
     guidetolerance="10"
     inkscape:pageopacity="0"
     inkscape:pageshadow="2"
     inkscape:window-width="640"
     inkscape:window-height="480"
     id="namedview8"
     showgrid="false"
     inkscape:zoom="28.954545"
     inkscape:cx="4.8524333"
     inkscape:cy="11"
     inkscape:current-layer="svg2" />
  <defs
     id="defs3051">
    <style
       type="text/css"
       id="current-color-scheme">
      .ColorScheme-Text {
        color:#4d4d4d
      }
      </style>
  </defs>
  <path
     style="color:#4d4d4d;fill:currentColor;fill-opacity:1;stroke:none"
     class="ColorScheme-Text"
     d="m 3.5865236,4.957 c -0.3139602,0 -0.5659758,0.2534976 -0.5659758,0.5674586 l 0,4.9703794 0.9467201,0 0,-0.967317 0.9687657,0 0,-1.9361148 0.9672905,0 0,0.9673238 0.967298,0 0,0.968791 0.9687657,0 0,0.967317 0,0.967324 0,0.967316 -0.9687657,0 0,0.968792 -0.967298,0 0,0.967324 -0.9672905,0 0,-1.936116 -0.9687657,0 0,-0.967316 -0.9467201,0 0,4.97038 C 3.0205478,16.74651 3.2725634,17 3.5865236,17 l 14.8269604,0 c 0.31396,0 0.565968,-0.25349 0.565968,-0.567458 l 0,-4.97038 -0.946712,0 0,0.967316 -0.968766,0 0,0.968792 -0.967298,0 0,0.967324 -0.967298,0 0,-0.967324 -0.968766,0 0,-0.968792 -0.96729,0 0,-0.967316 0,-0.967324 0,-0.967317 0.96729,0 0,-0.968791 0.968766,0 0,-0.9673238 0.967298,0 0,0.9673238 0.967298,0 0,0.968791 0.968766,0 0,0.967317 0.946712,0 0,-4.9703794 C 18.979452,5.2104976 18.727437,4.957 18.413484,4.957 l -14.8269604,0 z m 15.3929284,5.537838 0,0.967324 0.02055,0 0,-0.967324 -0.02055,0 z m -15.9589042,0.967324 0,-0.967324 -0.020548,0 0,0.967324 0.020548,0 z m 7.8221562,-3.398858 0.198456,2.318337 1.696444,-1.592106 c 0.347589,0.369531 0.225725,0.654122 -0.307239,1.155487 l -1.324521,1.242229 0.07792,0.861481 c 0.229458,-0.003 0.442749,0.02853 0.608599,0.139653 0.254281,0.170461 0.392614,0.45037 0.416022,0.727698 0.02341,0.277305 -0.06751,0.56995 -0.289596,0.78062 -0.409895,0.371948 -1.085625,0.224294 -1.276005,-0.523351 l -0.12349,-1.4304 -1.0466743,0.982017 c -0.6411898,0.429023 -1.2430904,0.08754 -1.2995254,-0.463077 -0.024462,-0.305154 0.1030628,-0.584085 0.3057712,-0.77474 0.2027159,-0.190679 0.4936745,-0.306247 0.7967661,-0.263148 0.1976505,0.02815 0.3765746,0.147271 0.5453903,0.302844 L 10.454617,10.937336 10.298793,9.129125 c -0.06157,-0.729152 0.03839,-1.023152 0.543915,-1.065821 z m -1.6714486,3.58703 c -0.1314308,-0.03244 -0.2778322,0.0045 -0.395444,0.102907 -0.1881367,0.157214 -0.2316334,0.421701 -0.085262,0.596859 0.1463336,0.175225 0.4277032,0.18979 0.6159529,0.03236 0.1881216,-0.1572 0.2154585,-0.42609 0.069095,-0.601269 -0.054869,-0.06571 -0.1254471,-0.111564 -0.2043341,-0.130841 z m 2.1742076,0.884995 c -0.225951,0.03252 -0.386284,0.251299 -0.351345,0.493951 0.03485,0.242907 0.25477,0.419202 0.480713,0.386633 0.225936,-0.03252 0.370102,-0.257179 0.335171,-0.49983 -0.02619,-0.182105 -0.151482,-0.326124 -0.307247,-0.371933 -0.05186,-0.0152 -0.100812,-0.01694 -0.157292,-0.0088 z"
     id="path6"
     inkscape:connector-curvature="0" />
</svg>
