<svg xmlns="http://www.w3.org/2000/svg" viewBox="0 0 22 22">
  <defs id="defs3051">
    <style type="text/css" id="current-color-scheme">
      .ColorScheme-Text {
        color:#4d4d4d;
      }
      .ColorScheme-Highlight {
        color:#3daee9;
      }
      </style>
  </defs>
 <path 
     style="fill:currentColor;fill-opacity:1;stroke:none" 
     d="M 5.640625 3 C 5.2674838 3 4.9104987 3.1466748 4.6699219 3.3984375 C 4.4293451 3.6502002 4.3057266 3.979844 4.2714844 4.3222656 L 4.2714844 4.3105469 L 2.8984375 15.148438 A 0.50887968 0.50887968 0 0 0 2.8945312 15.210938 L 2.8945312 15.220703 A 0.50887968 0.50887968 0 0 0 2.9003906 15.291016 A 0.50887968 0.50887968 0 0 0 2.9023438 15.300781 L 3.1464844 18.222656 C 3.1973673 18.640771 3.5028899 18.974609 4.0117188 18.974609 L 18.111328 18.974609 C 18.620157 18.974609 18.923726 18.640771 18.974609 18.222656 L 19.169922 15.291016 L 19.171875 15.283203 A 0.50887968 0.50887968 0 0 0 19.175781 15.210938 A 0.50887968 0.50887968 0 0 0 19.171875 15.148438 L 17.798828 4.3105469 A 0.50887968 0.50887968 0 0 0 17.792969 4.2734375 C 17.730679 3.9619921 17.619171 3.6582931 17.390625 3.4082031 C 17.162079 3.1581132 16.804782 3 16.431641 3 L 5.640625 3 z M 5.640625 4.0175781 L 16.431641 4.0175781 C 16.567328 4.0175781 16.58822 4.0385428 16.638672 4.09375 C 16.688466 4.1482375 16.753338 4.2757452 16.792969 4.46875 L 18.140625 15.101562 L 18.074219 15.210938 L 14.597656 15.210938 L 14.087891 15.210938 L 3.921875 15.210938 L 3.9179688 15.193359 L 5.28125 4.4375 A 0.50887968 0.50887968 0 0 0 5.2832031 4.4238281 C 5.299842 4.2574211 5.3531409 4.1550971 5.4042969 4.1015625 C 5.4554528 4.048028 5.5049373 4.0175781 5.640625 4.0175781 z M 9.5488281 6.2636719 A 0.46535733 0.4027421 0 0 0 9.0839844 6.6660156 A 0.46535733 0.4027421 0 0 0 9.5488281 7.0683594 A 0.46535733 0.4027421 0 0 0 10.015625 6.6660156 A 0.46535733 0.4027421 0 0 0 9.5488281 6.2636719 z M 11.876953 6.2636719 L 10.945312 7.0683594 L 12.806641 8.6796875 L 10.945312 10.291016 L 11.876953 11.095703 L 14.667969 8.6796875 L 11.876953 6.2636719 z M 8.1542969 8.6796875 A 0.93071004 0.80548014 0 0 0 7.2226562 9.484375 A 0.93071004 0.80548014 0 0 0 8.1542969 10.291016 A 0.93071004 0.80548014 0 0 0 9.0839844 9.484375 A 0.93071004 0.80548014 0 0 0 8.1542969 8.6796875 z M 10.015625 11.095703 A 0.93071004 0.80548014 0 0 0 9.0839844 11.900391 A 0.93071004 0.80548014 0 0 0 10.015625 12.707031 A 0.93071004 0.80548014 0 0 0 10.945312 11.900391 A 0.93071004 0.80548014 0 0 0 10.015625 11.095703 z "
     class="ColorScheme-Text"
     />
 <path 
     style="opacity:1;fill:#32c671;fill-opacity:1;stroke:none"
     d="M 6.8164062 11.011719 C 4.6038797 11.011719 2.8242188 12.793333 2.8242188 15.005859 C 2.8242188 17.218386 4.6038797 19 6.8164062 19 C 9.0289328 19 10.810547 17.218386 10.810547 15.005859 C 10.810547 12.793333 9.0289328 11.011719 6.8164062 11.011719 z "
     />
 <path 
     style="fill:#ffffff;fill-opacity:1;stroke:none;stroke-opacity:1"
     d="M 8.6660156 13.349609 C 8.5714114 13.349609 8.4900032 13.383 8.4238281 13.449219 L 6.0976562 15.779297 L 5.0546875 14.734375 C 4.9884689 14.668156 4.9090139 14.634766 4.8144531 14.634766 C 4.7198489 14.634766 4.6384843 14.668156 4.5722656 14.734375 L 4.0898438 15.216797 C 4.0236251 15.283016 3.9902344 15.362427 3.9902344 15.457031 C 3.9902344 15.551592 4.0236251 15.633044 4.0898438 15.699219 L 5.375 16.982422 L 5.8574219 17.464844 C 5.923597 17.531062 6.003052 17.564453 6.0976562 17.564453 C 6.192217 17.564453 6.2736251 17.531019 6.3398438 17.464844 L 6.8222656 16.982422 L 9.3886719 14.414062 C 9.454847 14.347844 9.4882813 14.268432 9.4882812 14.173828 C 9.4883248 14.079267 9.454847 13.997859 9.3886719 13.931641 L 8.90625 13.449219 C 8.8400749 13.383 8.7605764 13.349609 8.6660156 13.349609 z "
     />
</svg>
