<svg xmlns="http://www.w3.org/2000/svg" viewBox="0 0 22 22">
  <defs id="defs3051">
    <style type="text/css" id="current-color-scheme">
      .ColorScheme-Text {
        color:#4d4d4d
      }
      </style>
  </defs>
 <path 
     style="fill:currentColor;fill-opacity:1;stroke:none"      
	 class="ColorScheme-Text"
        d="m 12.967631,18.14488 c -0.026,0.280906 0.19709,0.530543 0.495817,0.555451 l 3.622902,0.297637 c 0.298726,0.02509 0.564544,-0.185091 0.590908,-0.465818 l 0.282726,-2.987629 -4.709081,-0.387636 -0.283272,2.987995 z M 4.040194,15.544521 4.3232843,18.53215 c 0.026,0.280727 0.2921812,0.490909 0.5909079,0.465818 L 8.5370939,18.700331 C 8.8350933,18.675423 9.0583656,18.425786 9.0329111,18.14488 L 8.7498207,15.156885 4.040194,15.544521 Z M 3.5734677,10.62053 3.865467,13.702524 8.574912,13.315071 8.2830944,10.236349 c -0.00673,-0.074 -0.010364,-0.150727 -0.010364,-0.226363 0,-1.4139973 1.223452,-2.5645403 2.7272666,-2.5645403 1.503815,0 2.727268,1.150725 2.727268,2.5645403 0,0.07564 -0.0036,0.152363 -0.01036,0.226545 l -0.291818,3.07854 4.709445,0.387453 0.291818,-3.081994 c 0.01854,-0.203636 0.02818,-0.407999 0.02818,-0.610544 0,-3.8656293 -3.344175,-7.0099863 -7.45453,-7.0099863 -4.1103552,0 -7.4545303,3.144357 -7.4545303,7.0099863 0,0.202545 0.00964,0.406908 0.028,0.610544 z"
     />
</svg>
