<svg xmlns="http://www.w3.org/2000/svg" viewBox="0 0 22 22">
  <defs id="defs3051">
    <style type="text/css" id="current-color-scheme">
      .ColorScheme-Text {
        color:#4d4d4d
      }
      </style>
  </defs>
 <path 
     style="fill:currentColor;fill-opacity:1;stroke:none"      
	 class="ColorScheme-Text"
        d="m 16.998179,10.587099 c -0.43656,0.4381 -1.144838,0.4381 -1.58192,0 L 11.000205,5.7069988 6.5841285,10.587099 c -0.437072,0.4381 -1.144827,0.4381 -1.5818987,0 -0.4370824,-0.4381 -0.4370824,-1.1478002 0,-1.5859002 l 5.1369702,-5.6773 c 0.236459,-0.2367 0.551361,-0.3411 0.861004,-0.3216 0.309101,-0.019 0.624544,0.085 0.860983,0.3216 l 5.136992,5.6773 c 0.436537,0.4381 0.436537,1.1478002 0,1.5859002 z m -6.00456,4.7222 c 1.017909,0 1.843089,0.8262 1.843089,1.8454 0,1.0191 -0.82518,1.8453 -1.84309,1.8453 -1.0179105,0 -1.8431005,-0.8262 -1.8431005,-1.8453 0,-1.0192 0.82519,-1.8454 1.8431005,-1.8454 z m 0,-5.2723 c 1.017909,0 1.843089,0.8262 1.843089,1.8453 0,1.0192 -0.82518,1.8453 -1.84309,1.8453 -1.0179105,0 -1.8431005,-0.8261 -1.8431005,-1.8453 0,-1.0191 0.82519,-1.8453 1.8431005,-1.8453 z"
     />
</svg>
