<svg xmlns="http://www.w3.org/2000/svg" viewBox="0 0 22 22">
 <path 
     style="fill:#fdbc4b;fill-opacity:1"
     d="M 10.996094 3 C 10.201584 3 9.5761719 3.683817 9.5761719 4.4882812 L 9.5761719 12.673828 C 9.5761719 13.478292 10.200654 14.164062 10.996094 14.164062 C 11.791533 14.164062 12.417969 13.478292 12.417969 12.673828 L 12.417969 4.4882812 C 12.417969 3.683817 11.790603 3 10.996094 3 z M 11 15.271484 C 10.501201 15.271484 10.031781 15.464346 9.6796875 15.816406 C 9.3282315 16.167863 9.1347656 16.634679 9.1347656 17.134766 C 9.1347656 17.63487 9.3276286 18.102985 9.6796875 18.455078 C 10.031797 18.807187 10.501234 19 11 19 C 11.498798 19 11.96822 18.807138 12.320312 18.455078 C 12.672422 18.102969 12.865234 17.634837 12.865234 17.134766 C 12.865234 16.634646 12.671704 16.167846 12.320312 15.816406 C 11.968203 15.464297 11.498781 15.271482 11 15.271484 z "
     />
</svg>
