<svg xmlns="http://www.w3.org/2000/svg" viewBox="0 0 22 22">
  <defs id="defs3051">
    <style type="text/css" id="current-color-scheme">
      .ColorScheme-NegativeText {
        color:#da4453;
      }
      </style>
  </defs>
        <path
           style="fill:currentColor;fill-opacity:1;stroke:none" 
           class="ColorScheme-NegativeText"
           d="m 10.962926,13.731766 c 0.42422,0 0.76945,0.34503 0.76945,0.76944 0,0.42427 -0.34523,0.76945 -0.76945,0.76945 -0.42422,0 -0.76944,-0.34518 -0.76944,-0.76945 0,-0.42436 0.34527,-0.76944 0.76944,-0.76944 z m 0.73051,-5.7022497 0,4.2133397 c 0,0.40338 -0.32708,0.73051 -0.73051,0.73051 -0.40337,0 -0.73051,-0.32713 -0.73051,-0.73051 l 0,-4.2133397 c 0,-0.40343 0.32714,-0.73051 0.73051,-0.73051 0.40343,0 0.73051,0.32713 0.73051,0.73051 z m 6.73552,-1.6599201 c -0.005,-0.37503 -0.2935,-0.68484 -0.66689,-0.7191 -3.10298,-0.29024 -5.63527,-1.94853 -6.47011,-2.5551 -0.17447,-0.12719 -0.4109,-0.12719 -0.58537,0 -0.8332199,0.60657 -3.3654999,2.26486 -6.4684799,2.5551 -0.3734,0.0343 -0.66038,0.34407 -0.6669,0.7191 -0.0375,2.44749 0.35546,10.7568698 7.2413599,12.6059498 0.1223,0.0326 0.25111,0.0326 0.37341,0 6.8859,-1.84743 7.27885,-10.1584798 7.24298,-12.6059498 z"
            />
</svg>
