<svg xmlns="http://www.w3.org/2000/svg" viewBox="0 0 22 22">
  <defs id="defs3051">
    <style type="text/css" id="current-color-scheme">
      .ColorScheme-Text {
        color:#4d4d4d
      }
      </style>
  </defs>
 <path 
     style="fill:currentColor;fill-opacity:1;stroke:none"      
	 class="ColorScheme-Text"
        d="m 9.5912016,4.9052697 c -0.5193,0.14837 -0.93737,0.73858 -0.93737,1.31183 l 0,9.0890903 c -0.52659,-0.29401 -1.20289,-0.4129 -1.90404,-0.21864 -1.26524,0.35052 -2.05809,1.48339 -1.78687,2.52995 0.27121,1.04656 1.51759,1.63112 2.78283,1.28059 1.00939,-0.27965 1.70519,-1.0709 1.81616,-1.90527 l 0.0293,-8.5893403 6.5616304,-1.87405 0,6.7777803 c -0.5266,-0.29401 -1.2029,-0.41289 -1.90404,-0.21864 -1.26524,0.35053 -2.05809,1.48339 -1.78688,2.52996 0.27122,1.04655 1.5176,1.63112 2.78283,1.28059 1.0094,-0.27965 1.7052,-1.0709 1.81617,-1.90528 l 0.0293,-11.1817603 c 0,-0.42993 -0.24919,-0.7516 -0.58585,-0.81208 l -6.9131504,1.90527 z"
     />
</svg>
