<svg xmlns="http://www.w3.org/2000/svg" viewBox="0 0 22 22">
  <defs id="defs3051">
    <style type="text/css" id="current-color-scheme">
      .ColorScheme-Text {
        color:#4d4d4d
      }
      </style>
  </defs>
    <path
       style="fill:currentColor;fill-opacity:1;stroke:none"
       class="ColorScheme-Text"
       d="M 5 4 C 4.03417 5.05038 3.0393 6.73324 2 8 L 2 8.4003906 L 2 8.5996094 L 2 10 L 2 17.599609 C 2 17.821209 2.1787906 18 2.4003906 18 L 19.599609 18 C 19.821209 18 20 17.821209 20 17.599609 L 20 8.4003906 L 20 8 C 18.9607 6.73324 17.96583 5.05038 17 4 L 15 4 L 14.527344 4 L 13 4 C 12.348722 4.7082917 11.682406 5.702098 11 6.6640625 C 10.317594 5.702098 9.651278 4.7082917 9 4 L 7.4726562 4 L 7 4 L 5 4 z "
        />
</svg>
