<svg xmlns="http://www.w3.org/2000/svg" viewBox="0 0 22 22">
  <defs id="defs3051">
    <style type="text/css" id="current-color-scheme">
      .ColorScheme-Text {
        color:#4d4d4d
      }
      </style>
  </defs>
 <path 
     style="fill:currentColor;fill-opacity:1;stroke:none"      
	 class="ColorScheme-Text"
        d="M 4.8561943,2 C 4.4946476,2 4.2035095,2.2823279 4.2035095,2.6329338 l 0,0.4959715 -0.9993581,0 c -0.4005352,0 -0.7233038,0.3130011 -0.7233038,0.7014166 l 0,0.68689 -0.5949076,0 C 1.3950876,4.5172119 1,4.9003437 1,5.3763423 L 1,18.140869 C 1,18.616868 1.3950876,19 1.88594,19 l 18.228119,0 C 20.604912,19 21,18.616868 21,18.140869 L 21,5.3763423 C 21,4.9003437 20.604912,4.5172119 20.114059,4.5172119 l -0.515729,0 0,-0.68689 c 0,-0.3884155 -0.322768,-0.7014166 -0.723303,-0.7014166 l -0.971538,0 0,-0.4959715 C 17.903489,2.2823279 17.61235,2 17.250802,2 L 4.8561943,2 Z M 11,7.8437493 c 2.427973,0 4.382623,1.8955005 4.382623,4.2500007 0,2.3545 -1.95465,4.25 -4.382623,4.25 -2.4279733,0 -4.3826229,-1.8955 -4.3826229,-4.25 0,-2.3545002 1.9546496,-4.2500007 4.3826229,-4.2500007 z m -1.0956562,2.6562497 0,3.187501 2.1913122,-1.59375 -2.1913122,-1.593751 z"
     />
</svg>
