<svg xmlns="http://www.w3.org/2000/svg" viewBox="0 0 22 22">
  <defs id="defs3051">
    <style type="text/css" id="current-color-scheme">
      .ColorScheme-Text {
        color:#4d4d4d
      }
      </style>
  </defs>
 <path 
     style="fill:currentColor;fill-opacity:1;stroke:none"      
	 class="ColorScheme-Text"
        d="m 19.109355,2.999975 -3.25585,0.002 c -0.35032,1.4e-4 -0.63109,0.20585 -0.63086,0.46094 l 0.0137,15.07617 c 2.3e-4,0.25509 0.28249,0.46108 0.63281,0.46094 l 3.25586,-0.002 c 0.35032,-1.4e-4 0.63109,-0.20585 0.63086,-0.46094 l -0.0137,-15.07612 c -2.3e-4,-0.25509 -0.2825,-0.46108 -0.63282,-0.46094 z m -6.60937,4.12109 -3.2558598,0.002 c -0.35032,10e-5 -0.63117,0.20389 -0.63086,0.45898 l 0.0117,10.92578 c 3.1e-4,0.25509 0.28249,0.45909 0.63281,0.45899 l 3.2578098,0 c 0.35032,-1.1e-4 0.63118,-0.20585 0.63086,-0.46094 l -0.0137,-10.92383 c -3.1e-4,-0.25509 -0.28249,-0.46104 -0.63281,-0.46094 z m -9.6249998,4.1836 c -0.35032,6e-5 -0.63134,0.20585 -0.63086,0.46094 l 0.0117,6.77148 c 4.8e-4,0.25509 0.28445,0.45905 0.63477,0.45898 l 3.25585,0 c 0.35032,-6e-5 0.63134,-0.20585 0.63086,-0.46093 l -0.0137,-6.77149 c -4.8e-4,-0.25509 -0.28249,-0.45905 -0.63281,-0.45898 l -3.25586,0 z"
     />
</svg>
