<svg xmlns="http://www.w3.org/2000/svg" viewBox="0 0 22 22">
  <defs id="defs3051">
    <style type="text/css" id="current-color-scheme">
      .ColorScheme-Text {
        color:#4d4d4d;
      }
      .ColorScheme-Highlight {
        color:#3daee9;
      }
      </style>
  </defs>
 <path 
     style="fill:currentColor;fill-opacity:1;stroke:none" 
     d="M 4 3 C 3.44598 3 3 3.44598 3 4 L 3 18 C 3 18.55401 3.44598 19 4 19 L 18 19 C 18.55402 19 19 18.55401 19 18 L 19 4 C 19 3.44598 18.55402 3 18 3 L 4 3 z M 10.199219 7 L 11.800781 7 L 11.800781 10.199219 L 15 10.199219 L 15 11.800781 L 11.800781 11.800781 L 11.800781 15 L 10.199219 15 L 10.199219 11.800781 L 7 11.800781 L 7 10.199219 L 10.199219 10.199219 L 10.199219 7 z "
     class="ColorScheme-Text"
     />
 <path 
     style="fill:currentColor;fill-opacity:1;stroke:none" 
     d="M 16.466797 3 L 16.466797 19 L 17.533203 19 L 17.533203 3 L 16.466797 3 z "
     class="ColorScheme-Highlight"
     />
</svg>
