<svg xmlns="http://www.w3.org/2000/svg" viewBox="0 0 22 22">
  <defs id="defs3051">
    <style type="text/css" id="current-color-scheme">
      .ColorScheme-Text {
        color:#4d4d4d
      }
      </style>
  </defs>
 <path 
     style="fill:currentColor;fill-opacity:1;stroke:none"      
	 class="ColorScheme-Text"
        d="M 1.7093,3 C 1.31584,3 1,3.33678 1,3.7539 L 1,18.24609 C 1,18.66322 1.31584,19 1.7093,19 l 18.58143,0 C 20.68417,19 21,18.66322 21,18.24609 L 21,3.7539 C 21,3.33678 20.68417,3 20.29073,3 L 1.7093,3 Z m 6.92703,4.44922 c 1.14938,0 2.07811,0.98656 2.07811,2.20507 0,1.21852 -0.92873,2.20313 -2.07811,2.20313 -0.26898,0 -0.51497,-0.0511 -0.73508,-0.12891 l -1.09983,1.16602 -0.73324,0 0,0.77734 -0.73323,0 0,0.77735 -1.2233,0 0,-1.29493 2.56817,-2.72265 C 6.60642,10.17238 6.55639,9.91355 6.55639,9.65429 c 0,-1.21851 0.93059,-2.20507 2.07995,-2.20507 z m 5.93773,0.25585 c 0.11141,-4.2e-4 0.2242,0.045 0.3095,0.13477 l 2.68239,2.82227 c 0.0853,0.0898 0.12672,0.20811 0.12712,0.32617 4.1e-4,0.11811 -0.0406,0.23576 -0.12527,0.32617 l -2.66397,2.84375 c -0.1694,0.18098 -0.44478,0.18163 -0.61532,0.002 -0.17056,-0.17952 -0.17117,-0.47154 -0.002,-0.65234 l 2.3563,-2.51563 -2.37288,-2.49805 c -0.17056,-0.17959 -0.17117,-0.47152 -0.002,-0.65234 0.0847,-0.0905 0.19442,-0.13629 0.30583,-0.13672 z M 9.24613,8.22851 c -0.41573,0 -0.73323,0.3366 -0.73323,0.77735 0,0.44074 0.3175,0.77734 0.73323,0.77734 0.41575,0 0.73508,-0.3366 0.73508,-0.77734 0,-0.44075 -0.31934,-0.77735 -0.73508,-0.77735 z m 4.26677,1.83985 a 0.87201763,0.92447516 0 0 1 0.87142,0.92382 0.87201763,0.92447516 0 0 1 -0.87142,0.92383 0.87201763,0.92447516 0 0 1 -0.87324,-0.92383 0.87201763,0.92447516 0 0 1 0.87324,-0.92382 z"
     />
</svg>
