<svg xmlns="http://www.w3.org/2000/svg" viewBox="0 0 22 22">
  <defs id="defs3051">
    <style type="text/css" id="current-color-scheme">
      .ColorScheme-Text {
        color:#4d4d4d
      }
      </style>
  </defs>
 <path 
     style="fill:currentColor;fill-opacity:1;stroke:none"      
	 class="ColorScheme-Text"
        d="M 4.5996094 3 C 3.7159594 3 3.00001 3.7159494 3 4.5996094 C 3.00001 5.4832694 3.7159594 6.1992188 4.5996094 6.1992188 C 5.4832594 6.1992188 6.1992087 5.4832694 6.1992188 4.5996094 C 6.1992088 3.7159494 5.4832594 3 4.5996094 3 z M 8 3.5996094 C 7.45465 3.5996094 7 4.0542594 7 4.5996094 C 7 5.1449694 7.45465 5.5996094 8 5.5996094 L 18 5.5996094 C 18.54536 5.5996094 19 5.1449694 19 4.5996094 C 19 4.0542594 18.54536 3.5996194 18 3.5996094 L 8 3.5996094 z M 4.5996094 9.4003906 C 3.7159494 9.4003906 3 10.11634 3 11 C 3 11.88366 3.7159494 12.599609 4.5996094 12.599609 C 5.4832694 12.599609 6.1992188 11.88366 6.1992188 11 C 6.1992188 10.11634 5.4832694 9.4003906 4.5996094 9.4003906 z M 8 10 C 7.45465 10 7 10.45464 7 11 C 7 11.54535 7.45465 12 8 12 L 18 12 C 18.54536 12 19 11.54535 19 11 C 19 10.45464 18.54536 10 18 10 L 8 10 z M 4.5996094 15.800781 C 3.7159494 15.800781 3 16.516731 3 17.400391 C 3 18.284051 3.7159494 19 4.5996094 19 C 5.4832694 19 6.1992188 18.284051 6.1992188 17.400391 C 6.1992188 16.516731 5.4832694 15.800781 4.5996094 15.800781 z M 8 16.400391 C 7.45465 16.400391 7 16.855031 7 17.400391 C 7 17.945741 7.45465 18.400391 8 18.400391 L 18 18.400391 C 18.54536 18.400391 19 17.945741 19 17.400391 C 19 16.855031 18.54536 16.400391 18 16.400391 L 8 16.400391 z "
     />
</svg>
