<svg xmlns="http://www.w3.org/2000/svg" viewBox="0 0 22 22">
  <defs id="defs3051">
    <style type="text/css" id="current-color-scheme">
      .ColorScheme-Text {
        color:#4d4d4d
      }
      </style>
  </defs>
 <path 
     style="fill:currentColor;fill-opacity:1;stroke:none"      
	 class="ColorScheme-Text"
        d="M 4.77672,3 C 4.34579,3 4,3.35758 4,3.80078 L 4,18.19922 C 4,18.64242 4.34579,19 4.77672,19 l 12.44656,0 C 17.65421,19 18,18.64242 18,18.19922 L 18,3.80078 C 18,3.35758 17.65421,3 17.22328,3 L 4.77672,3 Z m 6.19669,5.5 4.65084,0 c 0.13518,0 0.24498,0.11282 0.24498,0.25195 l 0,4.45508 c 0,0.13901 -0.10971,0.25195 -0.24498,0.25195 l -4.65084,0 c -0.13517,0 -0.24498,-0.11282 -0.24498,-0.25195 l 0,-4.45508 c 0,-0.139 0.10972,-0.25195 0.24498,-0.25195 z m -4.58437,0.041 3.61584,0 c 0.14313,0 0.25828,0.15724 0.25828,0.35351 0,0.19627 -0.11515,0.35352 -0.25828,0.35352 l -3.61584,0 c -0.14313,0 -0.25827,-0.15725 -0.25827,-0.35352 0,-0.19627 0.11514,-0.35351 0.25827,-0.35351 z m 7.66467,0.84961 c -0.31019,0 -0.56212,0.25896 -0.56212,0.57812 0,0.31916 0.25193,0.57813 0.56212,0.57813 0.31011,0 0.56024,-0.25897 0.56024,-0.57813 0,-0.31916 -0.25013,-0.57812 -0.56024,-0.57812 z m -7.66467,0.5664 3.61584,0 c 0.14313,0 0.25828,0.1592 0.25828,0.35547 0,0.19627 -0.11515,0.35352 -0.25828,0.35352 l -3.61584,0 c -0.14313,0 -0.25827,-0.15725 -0.25827,-0.35352 0,-0.19627 0.11514,-0.35547 0.25827,-0.35547 z m 6.13212,0.61133 c -0.0538,0.005 -0.10372,0.044 -0.13864,0.11523 l -0.96472,1.96485 c -0.0699,0.14248 6.2e-4,0.25781 0.15572,0.25781 l 1.72626,0 1.80602,0 c 0.15511,0 0.20838,-0.10541 0.11964,-0.23633 l -0.6134,-0.90234 c -0.089,-0.13074 -0.24997,-0.14483 -0.35892,-0.0312 l -0.23739,0.24609 c -0.10904,0.11356 -0.27226,0.10334 -0.36652,-0.0234 l -0.97043,-1.30273 c -0.0472,-0.0634 -0.10383,-0.093 -0.15762,-0.0879 z m -6.13212,0.80664 3.61584,0 c 0.14313,0 0.25828,0.15725 0.25828,0.35352 0,0.19626 -0.11515,0.35351 -0.25828,0.35351 l -3.61584,0 c -0.14313,0 -0.25827,-0.15725 -0.25827,-0.35351 0,-0.19627 0.11514,-0.35352 0.25827,-0.35352 z m 0,1.41602 3.61584,0 c 0.14313,0 0.25828,0.1592 0.25828,0.35546 0,0.19627 -0.11515,0.35352 -0.25828,0.35352 l -3.61584,0 c -0.14313,0 -0.25827,-0.15725 -0.25827,-0.35352 0,-0.19626 0.11514,-0.35546 0.25827,-0.35546 z"
     />
</svg>
