<?xml version="1.0" encoding="UTF-8" standalone="no"?>
<svg
   xmlns:dc="http://purl.org/dc/elements/1.1/"
   xmlns:cc="http://creativecommons.org/ns#"
   xmlns:rdf="http://www.w3.org/1999/02/22-rdf-syntax-ns#"
   xmlns:svg="http://www.w3.org/2000/svg"
   xmlns="http://www.w3.org/2000/svg"
   xmlns:sodipodi="http://sodipodi.sourceforge.net/DTD/sodipodi-0.dtd"
   xmlns:inkscape="http://www.inkscape.org/namespaces/inkscape"
   viewBox="0 0 22 22"
   id="svg3429"
   version="1.1"
   inkscape:version="0.91 r13725"
   sodipodi:docname="view-certificate-import.svg">
  <metadata
     id="metadata3437">
    <rdf:RDF>
      <cc:Work
         rdf:about="">
        <dc:format>image/svg+xml</dc:format>
        <dc:type
           rdf:resource="http://purl.org/dc/dcmitype/StillImage" />
      </cc:Work>
    </rdf:RDF>
  </metadata>
  <sodipodi:namedview
     pagecolor="#ffffff"
     bordercolor="#666666"
     borderopacity="1"
     objecttolerance="10"
     gridtolerance="10"
     guidetolerance="10"
     inkscape:pageopacity="0"
     inkscape:pageshadow="2"
     inkscape:window-width="640"
     inkscape:window-height="480"
     id="namedview3435"
     showgrid="false"
     inkscape:zoom="28.954545"
     inkscape:cx="4.8524333"
     inkscape:cy="11"
     inkscape:current-layer="svg3429" />
  <defs
     id="defs3051">
    <style
       type="text/css"
       id="current-color-scheme">
      .ColorScheme-Text {
        color:#4d4d4d
      }
      </style>
  </defs>
  <path
     style="color:#4d4d4d;fill:currentColor;fill-opacity:1;stroke:none"
     class="ColorScheme-Text"
     d="M 3.56744,4.2 C 3.252672,4.2 3,4.469424 3,4.80312 L 3,16.396872 C 3,16.730576 3.252672,17 3.56744,17 l 14.865144,0 C 18.747336,17 19,16.730576 19,16.396872 L 19,4.80312 C 19,4.469424 18.747336,4.2 18.432584,4.2 L 3.56744,4.2 Z m 5.541624,3.559376 c 0.919504,0 1.662488,0.789248 1.662488,1.764056 0,0.974816 -0.742984,1.762504 -1.662488,1.762504 -0.215184,0 -0.411976,-0.04088 -0.588064,-0.103128 l -0.879864,0.932816 -0.586592,0 0,0.621872 -0.586584,0 0,0.62188 -0.97864,0 0,-1.035944 2.054536,-2.17812 C 7.485136,9.937904 7.445112,9.73084 7.445112,9.523432 c 0,-0.974808 0.744472,-1.764056 1.66396,-1.764056 z m 5.722928,0.20468 c 0.08912,3.44e-4 0.178384,0.03704 0.246128,0.109376 0.135464,0.144656 0.134976,0.378208 -0.0016,0.52188 l -1.898288,1.998432 1.885032,2.012504 c 0.135464,0.14464 0.133504,0.378264 -0.0032,0.521872 -0.13644,0.143744 -0.356752,0.143224 -0.492272,-0.0016 l -2.129688,-2.275 c -0.06768,-0.07232 -0.102016,-0.16644 -0.101704,-0.260936 3.28e-4,-0.09445 0.03496,-0.189096 0.103176,-0.260936 L 14.58548,8.071832 C 14.6538,8.000072 14.74252,7.96372 14.83164,7.964056 Z M 9.596904,8.382808 c -0.332584,0 -0.586584,0.26928 -0.586584,0.62188 0,0.352592 0.254,0.621872 0.586584,0.621872 0.3326,0 0.588064,-0.26928 0.588064,-0.621872 0,-0.3526 -0.255472,-0.62188 -0.588064,-0.62188 z m 6.085488,1.47188 a 0.6976141,0.73958013 0 0 1 0.69712,0.739056 0.6976141,0.73958013 0 0 1 -0.69712,0.739064 0.6976141,0.73958013 0 0 1 -0.697128,-0.739064 0.6976141,0.73958013 0 0 1 0.697128,-0.739056 z"
     id="path3433"
     inkscape:connector-curvature="0" />
</svg>
