<svg xmlns="http://www.w3.org/2000/svg" viewBox="0 0 22 22">
  <defs id="defs3051">
    <style type="text/css" id="current-color-scheme">
      .ColorScheme-Text {
        color:#4d4d4d
      }
      </style>
  </defs>
 <path 
     style="fill:currentColor;fill-opacity:1;stroke:none"      
	 class="ColorScheme-Text"
        d="M 3.88867,3 C 3.39623,3 3,3.35758 3,3.80078 L 3,18.19922 C 3,18.64242 3.39623,19 3.88867,19 l 14.22266,0 C 18.60377,19 19,18.64242 19,18.19922 L 19,3.80078 C 19,3.35758 18.60377,3 18.11133,3 L 3.88867,3 Z m 8.29102,2 c 0.8612,0 1.56184,0.69805 1.56054,1.56055 0,0.34655 -0.11264,0.6652 -0.30273,0.92383 -0.22887,0.31163 -0.57109,0.53566 -0.9668,0.60937 -0.0931,0.0181 -0.19146,0.0273 -0.29101,0.0273 -0.20302,0 -0.39707,-0.0376 -0.57422,-0.10742 C 11.224,7.86234 10.91618,7.56441 10.75195,7.18941 c -0.0853,-0.19267 -0.13281,-0.4052 -0.13281,-0.6289 0,-0.8625 0.69805,-1.56055 1.56055,-1.56055 z M 7.9082,6.86914 c 0.59378,-0.002 1.34045,0.0925 1.99024,0.4707 0.1487,-0.0375 0.3012,-0.0698 0.45508,-0.0957 0.009,0.0246 0.0209,0.0516 0.0312,0.0762 0.0983,0.23276 0.23756,0.4407 0.41601,0.61914 0.0349,0.0349 0.0719,0.0692 0.10938,0.10157 -0.12416,0.0116 -0.23437,0.0248 -0.32618,0.0391 -0.1681,0.0259 -0.28033,0.18995 -0.24023,0.35547 l 0,0.002 c 0.0349,0.14612 0.17746,0.24073 0.32617,0.21875 0.50562,-0.0763 1.65756,-0.16914 2.68945,0.31836 0.13578,0.0647 0.3,0.0134 0.375,-0.11719 0.0854,-0.14741 0.025,-0.33579 -0.1289,-0.4082 -0.15131,-0.0711 -0.30843,-0.13319 -0.47266,-0.1875 0.15517,-0.0866 0.29709,-0.19555 0.42383,-0.32227 0.0957,-0.0957 0.1802,-0.20129 0.25391,-0.3125 0.56638,0.23793 1.09365,0.56541 1.54882,0.98438 0.77973,0.71637 1.24604,1.70047 1.33399,2.72461 0.0543,0.63491 -0.0356,1.28551 -0.28516,1.89843 -0.49396,1.21035 -1.16376,2.37131 -1.77929,3.52735 -0.0789,0.14741 -0.23164,0.23828 -0.39844,0.23828 l -1.15625,0 c -0.24957,0 -0.45313,-0.20356 -0.45313,-0.45312 l 0,-0.55274 c -0.38405,0.0737 -0.78409,0.11328 -1.19531,0.11328 -0.26119,0 -0.51476,-0.0158 -0.76562,-0.0469 l -0.29102,0.66797 c -0.0724,0.16422 -0.23629,0.27148 -0.41602,0.27148 l -1.16015,0 c -0.24957,0 -0.45313,-0.20356 -0.45313,-0.45312 l 0,-1.26758 C 7.39324,14.7143 6.67463,13.89318 6.32807,12.93759 L 5.5,12.50586 C 5.37198,12.43856 5.29102,12.30692 5.29102,12.16211 l 0,-1.43164 c 0,-0.21466 0.17597,-0.38997 0.39062,-0.38867 l 0.63867,0.002 C 6.5673,9.65194 7.00599,9.03229 7.58789,8.52539 L 7.06445,7.45117 C 6.94678,7.20807 7.10605,6.92235 7.375,6.89648 7.52953,6.88128 7.71028,6.86968 7.9082,6.86918 Z m 0.50586,2.98438 c -0.32198,0 -0.58203,0.26004 -0.58203,0.58203 0,0.32197 0.26005,0.58203 0.58203,0.58203 0.32199,0 0.58202,-0.26005 0.58203,-0.58203 0,-0.32199 -0.26004,-0.58203 -0.58203,-0.58203 z m 4.96875,0.64062 c -0.0786,0 -0.14425,0.027 -0.19922,0.082 L 11.25,12.51169 10.38477,11.64255 c -0.055,-0.055 -0.12263,-0.082 -0.20118,-0.082 -0.0786,0 -0.14617,0.027 -0.20117,0.082 l -0.40039,0.40039 c -0.055,0.055 -0.082,0.12259 -0.082,0.20117 0,0.0785 0.027,0.14621 0.082,0.20117 l 1.06641,1.06641 0.40039,0.40039 c 0.055,0.055 0.12259,0.082 0.20117,0.082 0.0785,0 0.14617,-0.0271 0.20117,-0.082 l 0.40039,-0.40039 2.13281,-2.13477 c 0.055,-0.055 0.082,-0.12064 0.082,-0.19922 4e-5,-0.0785 -0.0271,-0.14617 -0.082,-0.20117 l -0.40039,-0.40039 c -0.055,-0.055 -0.12263,-0.082 -0.20117,-0.082 z"
     />
</svg>
