<svg xmlns="http://www.w3.org/2000/svg" viewBox="0 0 22 22">
  <defs id="defs3051">
    <style type="text/css" id="current-color-scheme">
      .ColorScheme-Text {
        color:#4d4d4d
      }
      </style>
  </defs>
 <path 
     style="fill:currentColor;fill-opacity:1;stroke:none"      
	 class="ColorScheme-Text"
        d="M 1.7093,3 C 1.31584,3 1,3.33678 1,3.7539 L 1,18.24609 C 1,18.66322 1.31584,19 1.7093,19 l 18.58143,0 C 20.68417,19 21,18.66322 21,18.24609 L 21,3.7539 C 21,3.33678 20.68417,3 20.29073,3 L 1.7093,3 Z m 6.92703,4.44922 c 1.14938,0 2.07811,0.98656 2.07811,2.20507 0,1.21852 -0.92873,2.20313 -2.07811,2.20313 -0.26898,0 -0.51497,-0.0511 -0.73508,-0.12891 l -1.09983,1.16602 -0.73324,0 0,0.77734 -0.73323,0 0,0.77735 -1.2233,0 0,-1.29493 2.56817,-2.72265 C 6.60642,10.17238 6.55639,9.91355 6.55639,9.65429 c 0,-1.21851 0.93059,-2.20507 2.07995,-2.20507 z m 7.15366,0.25585 c 0.1114,4.3e-4 0.22298,0.0463 0.30766,0.13672 0.16933,0.18082 0.16872,0.47276 -0.002,0.65235 l -2.37286,2.49804 2.35629,2.51563 c 0.16933,0.1808 0.16688,0.47283 -0.004,0.65234 -0.17055,0.17968 -0.44594,0.17903 -0.61534,-0.002 L 12.79763,11.3144 c -0.0846,-0.0904 -0.12752,-0.20805 -0.12713,-0.32617 4.1e-4,-0.11806 0.0437,-0.23637 0.12897,-0.32617 l 2.68238,-2.82227 c 0.0854,-0.0897 0.1963,-0.13514 0.3077,-0.13472 z M 9.24613,8.22851 c -0.41573,0 -0.73323,0.3366 -0.73323,0.77735 0,0.44074 0.3175,0.77734 0.73323,0.77734 0.41575,0 0.73508,-0.3366 0.73508,-0.77734 0,-0.44075 -0.31934,-0.77735 -0.73508,-0.77735 z m 7.60686,1.83985 a 0.87201763,0.92447516 0 0 1 0.8714,0.92382 0.87201763,0.92447516 0 0 1 -0.8714,0.92383 0.87201763,0.92447516 0 0 1 -0.87141,-0.92383 0.87201763,0.92447516 0 0 1 0.87141,-0.92382 z"
     />
</svg>
