<svg xmlns="http://www.w3.org/2000/svg" viewBox="0 0 22 22">
  <defs id="defs3051">
    <style type="text/css" id="current-color-scheme">
      .ColorScheme-Text {
        color:#4d4d4d
      }
      </style>
  </defs>
 <path 
     style="fill:currentColor;fill-opacity:1;stroke:none"      
	 class="ColorScheme-Text"
        d="M 1.15039,3 C 0.73326,3 0.39844,3.33679 0.39844,3.75391 l 0,14.49218 C 0.39844,18.66322 0.73326,19 1.15039,19 l 19.69922,0 c 0.41713,0 0.75195,-0.33678 0.75195,-0.75391 l 0,-14.49218 C 21.60156,3.33679 21.26674,3 20.84961,3 L 1.15039,3 Z M 6,3.5 l 1,0 0,3 1,0 0,3 1,0 0,1 2,0 0,-1 1,0 0,-1 1,0 0,-1 1,0 0,-2 1,0 0,1 1,0 0,2 1,0 0,1 1,0 0,1 1,0 0,1 -1,0 0,1 -1,0 0,1 -1,0 0,2 -1,0 0,1 -1,0 0,-2 -1,0 0,-1 -1,0 0,-1 -1,0 0,-1 -2,0 0,1 -1,0 0,3 -1,0 0,3 -1,0 0,-2 -1,0 0,-3 -1,0 0,-2 -1,0 0,-1 1,0 0,-2 1,0 0,-3 1,0 0,-2 z"
     />
</svg>
