<svg xmlns="http://www.w3.org/2000/svg" viewBox="0 0 22 22">
  <defs id="defs3051">
    <style type="text/css" id="current-color-scheme">
      .ColorScheme-Text {
        color:#4d4d4d
      }
      </style>
  </defs>
 <path 
     style="fill:currentColor;fill-opacity:1;stroke:none"      
	 class="ColorScheme-Text"
        d="M 1.70929,3 C 1.31583,3 1,3.33678 1,3.7539 L 1,18.24609 C 1,18.66322 1.31583,19 1.70929,19 L 20.2907,19 C 20.68417,19 21,18.66322 21,18.24609 L 21,3.7539 C 21,3.33678 20.68419,3 20.2907,3 L 1.70929,3 Z m 7.68606,4.5 c 1.14938,0 2.07812,0.98461 2.07812,2.20312 0,1.21851 -0.92874,2.20508 -2.07812,2.20508 -0.26898,0 -0.51313,-0.0531 -0.73323,-0.13086 l -1.09983,1.16797 -0.73509,0 0,0.77734 -0.73325,0 0,0.77735 -1.22328,0 0,-1.29688 2.56818,-2.7207 C 7.36545,10.22316 7.31725,9.96238 7.31725,9.70312 7.31725,8.48461 8.24599,7.5 9.39535,7.5 Z m 5.76454,0.55078 c 0.95351,0 1.72994,0.82119 1.72994,1.83203 l 0,0.74609 c 0.13628,0.0303 0.23949,0.15721 0.23949,0.31055 l 0,2.79102 c 0,0.1758 -0.13628,0.32031 -0.30212,0.32031 l -3.33455,0 c -0.16587,0 -0.3003,-0.14451 -0.3003,-0.32031 l 0,-2.79102 c 0,-0.15334 0.10322,-0.28036 0.2395,-0.31055 l 0,-0.74609 c 0,-1.01084 0.77458,-1.83203 1.72806,-1.83203 z M 10.007,8.27734 c -0.41573,0 -0.73323,0.3366 -0.73323,0.77734 0,0.44075 0.3175,0.7793 0.73323,0.7793 0.41575,0 0.73325,-0.33855 0.73325,-0.7793 0,-0.44074 -0.3175,-0.77734 -0.73325,-0.77734 z m 5.15289,0.41016 c -0.62178,0 -1.12747,0.53613 -1.12747,1.19531 l 0,0.73828 2.25497,0 0,-0.73828 c 0,-0.65915 -0.50569,-1.19531 -1.1275,-1.19531 z"
     />
</svg>
