<svg xmlns="http://www.w3.org/2000/svg" viewBox="0 0 22 22">
  <defs id="defs3051">
    <style type="text/css" id="current-color-scheme">
      .ColorScheme-Text {
        color:#4d4d4d
      }
      </style>
  </defs>
    <path
       style="fill:currentColor;fill-opacity:1;stroke:none"
       class="ColorScheme-Text"
       d="m 18.364565,7.895905 c -0.42345,-0.98617 -0.99292,-1.83692 -1.70813,-2.55215 -0.71534,-0.71523 -1.56595,-1.28458 -2.55222,-1.7083 -0.98613,-0.42372 -2.02072,-0.63544 -3.10403,-0.63544 -1.02078,0 -2.00858,0.19254 -2.96352,0.57803 -0.95481,0.38549 -1.80376,0.92889 -2.54685,1.63031 l -1.35435,-1.3439 c -0.2084,-0.21531 -0.44787,-0.2639 -0.71879,-0.14588 -0.27783,0.11812 -0.41668,0.32309 -0.41668,0.61472 l 0,4.66677 c 0,0.18054 0.066,0.33678 0.19792,0.46874 0.13207,0.13194 0.28831,0.19791 0.46884,0.19791 l 4.66666,0 c 0.29176,0 0.49658,-0.13885 0.61459,-0.41669 0.11801,-0.2708 0.0694,-0.5104 -0.14588,-0.71881 l -1.4271,-1.43749 c 0.48622,-0.45836 1.04175,-0.81074 1.6667,-1.05737 0.62508,-0.2465 1.27777,-0.3699 1.95833,-0.3699 0.72225,0 1.41151,0.14077 2.06778,0.42193 0.65628,0.28129 1.22382,0.66153 1.70301,1.14074 0.4792,0.47908 0.85944,1.04676 1.14072,1.70305 0.28115,0.65629 0.42178,1.34544 0.42178,2.06783 0,0.72239 -0.14063,1.41141 -0.42178,2.0677 -0.28128,0.65629 -0.66152,1.22397 -1.14072,1.70318 -0.47919,0.47921 -1.04686,0.85945 -1.70301,1.14061 -0.65627,0.28129 -1.34566,0.42193 -2.06778,0.42193 -0.82644,0 -1.60763,-0.18054 -2.34381,-0.5416 -0.73605,-0.36107 -1.35755,-0.87147 -1.86449,-1.53134 -0.0486,-0.0694 -0.12849,-0.11124 -0.2396,-0.12518 -0.1042,0 -0.19101,0.0312 -0.26044,0.0937 l -1.4271,1.43763 c -0.0555,0.0557 -0.085,0.1267 -0.0885,0.21352 -0.003,0.0869 0.0192,0.16493 0.0678,0.23436 0.75702,0.91673 1.6736,1.62685 2.75,2.13022 1.0764,0.50337 2.21187,0.75525 3.40628,0.75525 1.08331,0 2.11803,-0.21186 3.10416,-0.63545 0.98614,-0.42359 1.83662,-0.99319 2.55209,-1.70829 0.71521,-0.71549 1.28455,-1.56599 1.70825,-2.55215 0.42358,-0.98616 0.63531,-2.02104 0.63531,-3.10424 0,-1.08346 -0.21185,-2.11782 -0.63543,-3.10398 l 0,0 z"
        />
</svg>
