<svg xmlns="http://www.w3.org/2000/svg" viewBox="0 0 22 22">
  <defs id="defs3051">
    <style type="text/css" id="current-color-scheme">
      .ColorScheme-Text {
        color:#4d4d4d
      }
      </style>
  </defs>
 <path 
     style="fill:currentColor;fill-opacity:1;stroke:none"      
	 class="ColorScheme-Text"
        d="M 3.8886719 3 C 3.3962292 3 3 3.3575911 3 3.8007812 L 3 18.199219 C 3 18.642423 3.3962292 19 3.8886719 19 L 18.111328 19 C 18.603771 19 19 18.642423 19 18.199219 L 19 3.8007812 C 19 3.3575911 18.603771 3 18.111328 3 L 3.8886719 3 z M 12.179688 5 C 13.040904 5 13.741527 5.6980366 13.740234 6.5605469 C 13.740234 6.9070882 13.627621 7.2257512 13.4375 7.484375 C 13.208631 7.7960188 12.866415 8.02005 12.470703 8.09375 C 12.377613 8.1119 12.279251 8.1210937 12.179688 8.1210938 C 11.976669 8.1210938 11.782624 8.0835214 11.605469 8.0136719 C 11.224002 7.8623811 10.916183 7.5644569 10.751953 7.1894531 C 10.666565 6.996788 10.619141 6.7842457 10.619141 6.5605469 C 10.619141 5.6980366 11.317191 5 12.179688 5 z M 7.9082031 6.8671875 L 7.9082031 6.8691406 C 8.5019831 6.8677606 9.2486535 6.9615399 9.8984375 7.3398438 C 10.047144 7.3023058 10.19964 7.2699906 10.353516 7.2441406 C 10.363116 7.2687526 10.374456 7.2957005 10.384766 7.3203125 C 10.483076 7.5530726 10.622333 7.7610056 10.800781 7.9394531 C 10.835711 7.9743781 10.872616 8.008566 10.910156 8.0410156 C 10.785993 8.0520156 10.675793 8.0659161 10.583984 8.0800781 C 10.415891 8.1059281 10.303641 8.2700381 10.34375 8.4355469 L 10.34375 8.4375 C 10.37867 8.5836213 10.521216 8.6782363 10.669922 8.65625 C 11.175537 8.579937 12.327479 8.487103 13.359375 8.9746094 C 13.495088 9.0392344 13.659369 8.9883219 13.734375 8.8574219 C 13.819765 8.7100081 13.759196 8.52164 13.605469 8.4492188 C 13.45415 8.3781308 13.29703 8.3159762 13.132812 8.2617188 C 13.287982 8.1750938 13.429907 8.0661869 13.556641 7.9394531 C 13.652341 7.8437531 13.736847 7.7381632 13.810547 7.6269531 C 14.376938 7.8648832 14.904209 8.1923655 15.359375 8.6113281 C 16.139111 9.3277033 16.605414 10.311796 16.693359 11.335938 C 16.747669 11.970843 16.657741 12.621455 16.408203 13.234375 C 15.914234 14.44472 15.244439 15.605687 14.628906 16.761719 C 14.549976 16.909133 14.39727 17 14.230469 17 L 13.074219 17 C 12.824656 17 12.621094 16.796438 12.621094 16.546875 L 12.621094 15.994141 C 12.237043 16.067841 11.837002 16.107422 11.425781 16.107422 C 11.164586 16.107422 10.911011 16.091627 10.660156 16.060547 L 10.369141 16.728516 C 10.296681 16.892732 10.132851 17 9.953125 17 L 8.7929688 17 C 8.5433928 17 8.3398438 16.796438 8.3398438 16.546875 L 8.3398438 15.279297 C 7.3932964 14.71422 6.6746801 13.893084 6.328125 12.9375 L 5.5 12.505859 C 5.3719875 12.438621 5.2910156 12.306924 5.2910156 12.162109 L 5.2910156 10.730469 C 5.2910156 10.515804 5.4669893 10.340491 5.6816406 10.341797 L 6.3203125 10.341797 C 6.5672901 9.6499127 7.0060042 9.0303314 7.5878906 8.5234375 L 7.0644531 7.4492188 C 6.9467531 7.2061187 7.1059674 6.9203951 7.375 6.8945312 C 7.5295226 6.8794062 7.7102716 6.8677375 7.9082031 6.8671875 z M 8.4140625 9.8535156 C 8.0920785 9.8535156 7.8320312 10.113563 7.8320312 10.435547 C 7.8320312 10.757517 8.0920785 11.017578 8.4140625 11.017578 C 8.7360465 11.017578 8.9960797 10.75753 8.9960938 10.435547 C 8.9960938 10.113563 8.7360465 9.8535156 8.4140625 9.8535156 z M 11.755859 10.376953 L 11.755859 10.765625 C 11.502474 10.789685 11.301228 10.881118 11.150391 11.041016 C 10.999567 11.197876 10.923828 11.378862 10.923828 11.583984 C 10.923828 11.976148 11.192446 12.279076 11.732422 12.490234 C 11.737922 12.495734 11.746929 12.498047 11.755859 12.498047 L 11.755859 13.583984 C 11.617094 13.556764 11.494258 13.49035 11.388672 13.384766 C 11.286097 13.279166 11.217845 13.154553 11.181641 13.009766 L 10.810547 13.160156 C 10.867887 13.398471 10.984129 13.58674 11.162109 13.728516 C 11.3431 13.870306 11.541676 13.956161 11.755859 13.986328 L 11.755859 14.376953 L 12.099609 14.376953 L 12.099609 13.978516 C 12.334899 13.942356 12.533474 13.85091 12.693359 13.703125 C 12.853231 13.555313 12.931641 13.352994 12.931641 13.099609 C 12.931641 12.876378 12.858768 12.699135 12.710938 12.566406 C 12.566135 12.430693 12.362055 12.307816 12.099609 12.199219 L 12.099609 11.181641 C 12.205209 11.208731 12.291051 11.256856 12.357422 11.326172 C 12.426862 11.392582 12.473104 11.463672 12.494141 11.539062 L 12.865234 11.380859 C 12.823024 11.248171 12.737084 11.123504 12.607422 11.005859 C 12.480646 10.885134 12.310768 10.80857 12.099609 10.775391 L 12.099609 10.376953 L 11.755859 10.376953 z M 11.755859 11.167969 L 11.755859 12.060547 C 11.478343 11.933772 11.339844 11.774037 11.339844 11.583984 C 11.339844 11.475359 11.377635 11.384894 11.453125 11.3125 C 11.528475 11.23715 11.629166 11.18902 11.755859 11.167969 z M 12.099609 12.638672 C 12.238374 12.705082 12.342726 12.775207 12.412109 12.847656 C 12.481549 12.917096 12.515625 13.003789 12.515625 13.109375 C 12.515625 13.233125 12.477834 13.336527 12.402344 13.417969 C 12.326994 13.496339 12.226315 13.549002 12.099609 13.576172 L 12.099609 12.638672 z "
     />
</svg>
