<svg xmlns="http://www.w3.org/2000/svg" viewBox="0 0 22 22">
  <defs id="defs3051">
    <style type="text/css" id="current-color-scheme">
      .ColorScheme-Text {
        color:#4d4d4d
      }
      </style>
  </defs>
 <path 
     style="fill:currentColor;fill-opacity:1;stroke:none"      
	 class="ColorScheme-Text"
        d="M 3.88867,3 C 3.39623,3 3,3.35758 3,3.80078 L 3,18.19922 C 3,18.64242 3.39623,19 3.88867,19 l 14.22266,0 C 18.60377,19 19,18.64242 19,18.19922 L 19,3.80078 C 19,3.35758 18.60377,3 18.11133,3 L 3.88867,3 Z M 11,5 c 1.23422,0 2.37835,0.37181 3.33008,1.00586 0.2378,0.15842 0.45981,0.33548 0.67187,0.52539 0,0 0.002,0.002 0.002,0.002 0.0728,0.0653 0.1473,0.13049 0.2168,0.19922 0.15139,0.14972 0.29492,0.30752 0.42969,0.47265 0.13507,0.16552 0.25994,0.33796 0.37695,0.51758 0.0465,0.0714 0.0893,0.14525 0.13281,0.21875 0.001,0.002 0.003,0.004 0.004,0.006 0.0843,0.1427 0.16191,0.28941 0.23438,0.43946 0.0193,0.04 0.0401,0.0806 0.0586,0.12109 10e-4,0.003 0.003,0.005 0.004,0.008 0.002,0.004 0.002,0.008 0.004,0.0117 0.0482,0.1068 0.0927,0.21611 0.13476,0.32617 0.0333,0.0874 0.0664,0.17439 0.0957,0.26367 0.01,0.0281 0.0223,0.0535 0.0312,0.082 0.0491,0.15746 0.0868,0.3196 0.12305,0.48243 0.0473,0.21234 0.0871,0.4281 0.11133,0.64843 0.0242,0.21996 0.039,0.44331 0.039,0.66993 0,0.28208 -0.0252,0.55662 -0.0625,0.82813 -0.008,0.06 -0.0192,0.12027 -0.0293,0.17968 -0.0282,0.16783 -0.0731,0.32893 -0.11328,0.49219 l -2.01367,0 c -0.0117,-0.0353 -0.0262,-0.0736 -0.0391,-0.10156 -0.0507,-0.11052 -0.081,-0.21116 -0.1543,-0.29492 -0.0399,-0.0458 -0.094,-0.0789 -0.12695,-0.1211 -0.0268,-0.0344 -0.0601,-0.0987 -0.0605,-0.125 -4.5e-4,-0.0286 0.023,-0.0475 0.0312,-0.0762 0.0105,-0.037 0.0116,-0.10564 0.0254,-0.16406 0.006,-0.0268 0.0365,-0.0913 0.0312,-0.13477 -0.005,-0.0419 -0.0702,-0.12171 -0.12305,-0.13476 -0.0699,-0.0173 -0.14014,0.0212 -0.22852,0.0137 -0.0761,-0.0482 -0.0718,-0.17348 -0.18164,-0.18945 -0.14424,-0.0211 -0.28992,0.0371 -0.38867,0.0801 -0.057,0.0249 -0.11576,0.0615 -0.16601,0.0645 -0.0475,0.002 -0.0948,-0.0248 -0.14063,-0.0293 -0.0597,-0.006 -0.13606,-6.6e-4 -0.19531,0.01 -0.0575,0.0102 -0.10953,0.0529 -0.16016,0.0566 -0.0971,0.007 -0.18902,-0.089 -0.25,-0.13672 -0.0373,-0.029 -0.0764,-0.0529 -0.11133,-0.0801 -0.0374,-0.0293 -0.0841,-0.0462 -0.11328,-0.0742 -0.0394,-0.0382 -0.0399,-0.10563 -0.0606,-0.15625 -0.0244,-0.0597 -0.0977,-0.10354 -0.15429,-0.16016 -0.0423,-0.0423 -0.1417,-0.10563 -0.15235,-0.16016 -0.005,-0.0278 0.0132,-0.0597 0.0117,-0.0898 -0.003,-0.0439 -0.0359,-0.0683 -0.0352,-0.0996 9e-4,-0.0441 0.0522,-0.0781 0.0645,-0.11523 0.006,-0.0189 0.003,-0.046 0.01,-0.0703 0.014,-0.0508 0.0485,-0.0819 0.041,-0.15625 -0.003,-0.0296 -0.0305,-0.0573 -0.0312,-0.0957 -10e-4,-0.0263 0.0186,-0.0403 0.0156,-0.0645 -0.004,-0.0427 -0.0592,-0.0505 -0.0644,-0.0996 -0.006,-0.0507 0.0483,-0.0927 0.0801,-0.15039 0.0143,-0.0259 0.0223,-0.0643 0.0352,-0.084 0.0281,-0.0426 0.0743,-0.0635 0.0957,-0.10547 0.0156,-0.031 0.0209,-0.0764 0.0352,-0.0996 0.0185,-0.0299 0.0529,-0.0468 0.0879,-0.0859 0.0284,-0.032 0.0406,-0.0696 0.0606,-0.084 0.0251,-0.0182 0.0643,-0.0227 0.0918,-0.0352 0.0927,-0.0422 0.16031,-0.0988 0.20508,-0.1875 -0.0136,-0.0805 0.006,-0.11427 0.0391,-0.16992 0.0306,-0.0515 0.0533,-0.0993 0.10547,-0.1289 0.0626,-0.0355 0.12222,-0.0391 0.16601,-0.10547 0.022,-0.0333 0.0523,-0.0904 0.0527,-0.125 4.7e-4,-0.0495 -0.0495,-0.1136 -0.0937,-0.1211 -0.0453,-0.007 -0.11512,0.0356 -0.14062,-0.0137 -0.008,-0.0158 0.004,-0.0528 0,-0.0703 -0.006,-0.0327 -0.0337,-0.0559 -0.0352,-0.0801 -0.002,-0.047 0.0468,-0.0962 0.0605,-0.15039 0.0188,-0.0738 -6.1e-4,-0.13183 -0.006,-0.2168 0.07,-0.11047 0.22584,-0.0535 0.38086,-0.043 0.0233,0.002 0.0511,-0.006 0.0762,-0.006 0.0919,0.002 0.16434,0.0291 0.19531,-0.0508 0.0116,-0.0301 0.0231,-0.14157 0.0156,-0.16992 -0.008,-0.0335 -0.0742,-0.12097 -0.10547,-0.14062 -0.0497,-0.0317 -0.12196,-0.0169 -0.15039,-0.0742 0.0231,-0.0989 0.13285,-0.0155 0.19922,-0.0391 0.034,-0.012 0.0324,-0.0706 0.0625,-0.0801 0.0204,-0.007 0.0457,0.02 0.0742,0.0195 0.0243,-4.5e-4 0.11174,-0.0449 0.13477,-0.0605 0.0319,-0.0216 0.0422,-0.0653 0.0703,-0.084 0.019,-0.0122 0.0437,-0.0123 0.0645,-0.0215 0.0426,-0.0184 0.0963,-0.0533 0.125,-0.0879 0.0413,-0.0495 0.0611,-0.11382 0.11133,-0.12305 0.002,-3.9e-4 0.005,3.2e-4 0.008,0 C 13.96914,6.66315 13.75391,6.51855 13.524,6.39288 c -0.007,0.009 -0.016,0.0186 -0.0176,0.0332 0.006,0.0455 0.0865,0.0177 0.0957,0.0606 -0.008,0.0467 -0.0484,0.0538 -0.0488,0.0879 -1.8e-4,0.0297 0.0604,0.0879 0.0898,0.12695 0.022,0.029 0.0603,0.0484 0.0801,0.0781 0.0172,0.0259 0.0211,0.057 0.0352,0.0703 0.0263,0.0249 0.0853,0.0303 0.0898,0.0664 0.006,0.0478 -0.0602,0.0675 -0.0508,0.12109 -0.0688,0.054 -0.18291,0.0251 -0.29492,0.0391 -0.0507,0.007 -0.10653,0.0555 -0.16016,0.0137 -0.0124,-0.0337 0.0436,-0.0384 0.0488,-0.0703 -0.004,-0.0296 -0.0396,-0.0241 -0.0488,-0.0488 0.0146,-0.0389 0.0592,-0.0472 0.0547,-0.10547 0.0279,-0.0305 0.0816,-0.0195 0.0899,-0.0606 0.006,-0.0286 -0.0163,-0.0639 -0.0449,-0.0801 -0.0164,-0.01 -0.0421,-0.006 -0.0606,-0.0156 -0.0488,-0.0268 -0.0652,-0.0813 -0.0937,-0.0937 0.004,-0.0549 -0.0151,-0.0932 0,-0.12891 0.009,-0.0216 0.074,-0.0833 0.10938,-0.0957 0.0299,-0.0105 0.0533,-0.0158 0.0781,-0.0234 -0.73691,-0.39318 -1.57787,-0.61722 -2.47459,-0.61722 -0.19502,0 -0.38679,0.0127 -0.57617,0.0332 -0.005,0.003 -0.009,0.008 -0.0117,0.01 -0.0171,0.008 -0.10236,0.0494 -0.13086,0.0449 -0.0126,-0.002 -0.0213,-0.0184 -0.0312,-0.0293 -0.045,0.006 -0.0901,0.014 -0.13477,0.0215 0.0214,0.0289 0.0542,0.0468 0.0547,0.0879 0.002,0.0681 -0.0358,0.0729 -0.0937,0.11524 -0.0415,-0.0168 -0.077,-0.0404 -0.13086,-0.0449 -0.0319,0.038 0.053,0.0512 0.0254,0.0996 -0.0804,0.0169 -0.14329,-0.0226 -0.21679,-0.0449 -0.023,-0.007 -0.0553,-0.005 -0.0742,-0.0156 -0.0284,-0.0165 -0.0372,-0.0628 -0.0605,-0.0879 -0.12457,0.0337 -0.24653,0.0709 -0.36719,0.11328 0.0378,0.0119 0.0724,0.0242 0.11719,0.0215 0.0243,-0.002 0.0557,-0.0252 0.0801,-0.0215 0.0489,0.007 0.0785,0.0677 0.11523,0.0957 0.0324,0.0248 0.0679,0.0158 0.0762,0.0488 -0.01,0.0561 -0.0494,0.0587 -0.0449,0.11133 0.004,0.0459 0.0505,0.0795 0.0742,0.084 0.0365,0.007 0.0885,-0.012 0.125,-0.0293 0.067,-0.0317 0.12577,-0.12738 0.18164,-0.11523 0.0442,0.01 0.0772,0.1507 0.084,0.20117 0.007,0.0541 -0.007,0.0947 -0.004,0.14453 0.006,0.0845 0.11171,0.0749 0.16406,0.11914 0.0158,0.0134 0.022,0.0489 0.0352,0.0664 0.0254,0.0339 0.056,0.0321 0.0605,0.0684 0.009,0.0865 -0.0786,0.0949 -0.0703,0.1914 -0.0181,0.0374 -0.0643,0.034 -0.0605,0.084 0.006,0.0789 0.11957,0.0203 0.15039,0.082 0.0166,0.0331 -10e-4,0.0582 -0.0137,0.10547 0.0388,0.0463 0.0372,0.11901 -0.0312,0.11914 -0.0416,0 -0.0535,-0.0443 -0.0957,-0.0547 -0.0234,-0.005 -0.0541,-0.005 -0.084,-0.01 -0.0256,-0.005 -0.0579,-0.0126 -0.082,-0.0156 -0.0618,-0.007 -0.12746,0.0103 -0.16406,-0.0254 0.0596,-0.0791 0.1402,-0.15644 0.2168,-0.22461 0.0227,-0.0204 0.0703,-0.0354 0.0586,-0.0762 -0.0426,-0.0374 -0.0946,0.003 -0.13477,0.0254 -0.0422,0.0239 -0.093,0.0589 -0.14063,0.0664 -0.0828,0.0119 -0.19219,-0.0247 -0.25976,0.0195 -0.009,0.0378 0.0765,0.0231 0.0645,0.0801 -0.0332,0.005 -0.0643,0.007 -0.0898,-0.0156 -0.0237,-0.0209 -0.0104,-0.0519 -0.0254,-0.0645 -0.0257,-0.021 -0.12102,-0.027 -0.16407,-0.0195 -0.0526,0.009 -0.0987,0.0389 -0.10546,0.084 0.0632,0.0295 0.16657,-0.0287 0.18945,0.0469 -0.0346,0.0623 -0.1165,0.0942 -0.10547,0.17773 0.004,0.0322 0.0428,0.0756 0.0703,0.0801 0.0277,0.005 0.0435,-0.021 0.0703,-0.0195 0.0284,0.003 0.0214,0.0358 0.0547,0.0312 0.0482,-0.0206 0.0756,-0.0897 0.13086,-0.0859 0.0663,0.0804 -0.0605,0.11904 -0.13086,0.14454 -0.0801,0.0291 -0.18309,0.0447 -0.24414,0.0703 -0.032,0.0134 -0.15282,0.13158 -0.16992,0.041 -0.0123,-0.0652 0.0591,-0.0459 0.0742,-0.0996 -0.0775,-0.0151 -0.15021,0.0318 -0.22071,0.0586 -0.10065,0.038 -0.27062,0.0627 -0.29492,0.17578 -0.004,0.0226 0.0109,0.0651 -0.004,0.0801 -0.012,0.0121 -0.0858,0.0147 -0.11719,0.0254 -0.0483,0.0165 -0.0894,0.0503 -0.11914,0.0586 -0.0225,0.007 -0.0561,0.006 -0.0703,0.0117 -0.0398,0.0154 -0.0539,0.0697 -0.0996,0.10547 -0.0187,0.0147 -0.0592,0.0243 -0.0742,0.0391 -0.0259,0.0258 -0.0303,0.0918 -0.0762,0.10157 -0.0291,0.003 -0.0526,-0.0227 -0.0801,-0.006 -0.003,0.0638 0.0236,0.15027 -0.004,0.21484 -0.0593,0.0483 -0.12531,0.0824 -0.20117,0.125 -0.0419,0.0237 -0.0802,0.0313 -0.13086,0.0566 -0.0359,0.0179 -0.068,0.0595 -0.10937,0.084 -0.0956,0.0563 -0.2114,0.12313 -0.21094,0.26562 1.5e-4,0.0309 0.017,0.0635 0.0215,0.0996 0.003,0.0212 -0.002,0.0432 0,0.0664 0.007,0.0524 0.0439,0.11807 0,0.15429 -0.0674,-0.0276 -0.154,-0.036 -0.20118,-0.084 -0.0128,-0.0494 0.0248,-0.0918 0.0195,-0.13672 -0.005,-0.0361 -0.0544,-0.10097 -0.084,-0.10547 -0.0304,-0.005 -0.0602,0.0289 -0.0918,0.0274 -0.0375,-0.003 -0.0711,-0.0573 -0.11914,-0.0625 -0.0704,-0.008 -0.12124,0.0168 -0.19922,0.006 C 6.68301,8.98813 6.65961,9.0608 6.56711,9.0533 6.53451,9.0513 6.50521,9.0256 6.46751,9.0181 6.42671,9.0101 6.36347,8.9956 6.32102,8.9986 6.23872,9.0046 6.18,9.0599 6.11009,9.0982 6.00732,9.36377 5.92096,9.63963 5.86204,9.92437 c 0.0149,0.0298 0.0256,0.06 0.0351,0.0703 0.0258,0.0277 0.10126,0.0696 0.14454,0.0703 0.0367,6.8e-4 0.0797,-0.0186 0.11523,-0.0254 0.0412,-0.007 0.0915,-0.009 0.12891,-0.0215 0.10822,-0.0346 0.0889,-0.17924 0.19726,-0.22851 0.0473,-0.0218 0.10038,-0.0248 0.1836,-0.0293 0.0268,0.0223 0.0389,0.0599 0.0351,0.0937 -0.003,0.0255 -0.0261,0.0476 -0.0391,0.084 -0.0114,0.032 -0.0141,0.07 -0.0254,0.0957 -0.0149,0.0338 -0.0468,0.0581 -0.0586,0.0898 -0.007,0.0206 -0.005,0.0477 -0.0117,0.0664 -0.0115,0.0329 -0.0555,0.056 -0.0351,0.0898 0.10722,0.0423 0.23847,-0.0133 0.33203,0.004 0.0394,0.007 0.11989,0.0564 0.11914,0.11719 -4.5e-4,0.0455 -0.0365,0.0732 -0.041,0.12304 -0.006,0.0627 -0.0322,0.14078 -0.0351,0.19141 -0.004,0.0831 0.12257,0.22536 0.21094,0.22461 0.0952,-10e-4 0.15095,-0.0946 0.26562,-0.0449 0.038,0.0165 0.0792,0.0792 0.12109,0.0762 0.0346,-0.002 0.0862,-0.0635 0.10938,-0.10547 0.0282,-0.0512 0.0302,-0.0933 0.0801,-0.11914 0.0537,-0.0277 0.0972,-0.0154 0.16601,-0.041 0.0307,-0.0113 0.0563,-0.0317 0.084,-0.0508 0.0243,-0.0167 0.0498,-0.0597 0.0801,-0.0293 0.04,0.0399 -0.0494,0.0608 -0.0156,0.10351 0.0694,0.0368 0.10593,-0.0696 0.15625,-0.0703 0.0161,-4.5e-4 0.0711,0.0339 0.0996,0.0527 0.0391,0.0257 0.053,0.0621 0.0957,0.0703 0.0274,0.006 0.0727,-0.0111 0.11133,-0.006 0.0511,0.007 0.0804,0.0496 0.11914,0.0488 0.0472,-10e-4 0.069,-0.053 0.10938,-0.0606 0.0884,-0.0162 0.12115,0.0111 0.16015,0.0664 0.0437,0.008 0.046,-0.0497 0.0859,-0.0293 -0.022,0.0436 0.006,0.0632 0.0234,0.0996 0.0109,0.0233 0.0109,0.0407 0.0215,0.0508 0.0239,0.0227 0.0704,0.0226 0.10547,0.0449 0.037,0.0233 0.0572,0.0646 0.0996,0.11329 0.0436,0.0498 0.1175,0.10171 0.17578,0.10546 0.055,0.004 0.099,-0.015 0.14453,-0.01 0.10356,0.0128 0.16778,0.0654 0.24023,0.1211 0.0405,0.0311 0.0788,0.0525 0.0918,0.0898 0.01,0.026 0.003,0.0607 0.0137,0.0898 0.0221,0.0623 0.11301,0.0933 0.0801,0.20117 0.0151,0.0317 0.0477,0.0424 0.084,0.0645 0.0292,0.0177 0.0544,0.0541 0.0859,0.0586 0.0203,0.003 0.041,-0.005 0.0586,-0.004 0.0569,0.004 0.0972,0.0258 0.14648,0.0449 0.0306,0.0118 0.0695,0.0155 0.0898,0.0293 0.0254,0.0172 0.0292,0.0766 0.0605,0.0918 0.0205,0.01 0.0674,-0.004 0.10156,0 0.0537,0.006 0.12531,0.0383 0.17383,0.0391 0.0294,6e-4 0.054,-0.0113 0.0801,-0.01 0.12263,0.009 0.1922,0.15504 0.31055,0.19922 0.0367,0.0146 0.0958,0.005 0.12109,0.0156 0.0444,0.0192 0.0802,0.15462 0.084,0.21484 0.0101,0.18194 -0.12834,0.24096 -0.20898,0.36133 -0.0169,0.0252 -0.0269,0.0645 -0.0508,0.0996 -0.048,0.0707 -0.10246,0.0869 -0.0957,0.2168 0.002,0.0358 0.0195,0.0698 0.0195,0.10937 0,0.0483 -0.003,0.11103 -0.0137,0.1543 -0.008,0.0332 -0.0365,0.0598 -0.041,0.0898 -0.005,0.0306 0.008,0.0541 0.004,0.0801 -0.004,0.0288 -0.0307,0.0709 -0.0527,0.11133 -0.0463,0.0855 -0.0585,0.18643 -0.15235,0.2207 -0.0551,0.0203 -0.12915,0.008 -0.18945,0.0293 -0.0244,0.009 -0.0559,0.031 -0.0859,0.0449 -0.0871,0.0406 -0.21038,0.0956 -0.23438,0.18555 -0.0215,0.0801 0.0304,0.14297 0.0156,0.23437 -0.0155,0.0272 -0.037,0.0551 -0.0605,0.0859 -0.0216,0.0283 -0.0319,0.0615 -0.0547,0.0898 -0.0301,0.0376 -0.0775,0.0546 -0.0957,0.10547 -0.006,0.0172 -0.002,0.0371 -0.01,0.0644 -0.003,0.01 -0.022,0.0275 -0.0312,0.0469 -0.008,0.0178 -0.006,0.0382 -0.0137,0.0527 -0.0229,0.0463 -0.0914,0.15214 -0.14062,0.16602 -0.10394,0.0292 -0.21331,-0.0434 -0.28516,-0.0293 0.0104,0.0502 0.0468,0.045 0.0703,0.0801 0.0136,0.0208 0.0202,0.0484 0.0391,0.0703 0.0224,0.026 0.0419,0.0369 0.0449,0.0664 0.006,0.0617 -0.0415,0.12308 -0.0742,0.14453 -0.03,0.0196 -0.0914,0.0298 -0.14453,0.0391 -0.037,0.006 -0.13284,0.008 -0.15039,0.0312 -0.0253,0.0349 0.0128,0.11972 -0.006,0.1543 -0.0374,0.0731 -0.13726,-0.003 -0.18946,0.0195 -0.004,0.0378 0.009,0.0779 0.0391,0.0957 0.0314,0.0184 0.0807,-0.005 0.10156,0.0312 -0.0102,0.0498 -0.0649,0.0546 -0.0762,0.10351 0.002,0.0476 0.0165,0.0601 0.01,0.0898 -0.003,0.0151 -0.0191,0.0198 -0.0293,0.0293 0.56306,0.20536 1.16896,0.32436 1.80471,0.32436 0.52277,0 1.02439,-0.0833 1.5,-0.22461 l 0,0.7793 c -0.47967,0.12363 -0.98033,0.19531 -1.5,0.19531 -0.47784,0 -0.94169,-0.0615 -1.38672,-0.16602 -0.003,-6.7e-4 -0.005,-0.001 -0.008,-0.002 -0.2635,-0.0623 -0.51899,-0.14262 -0.76758,-0.23828 -0.005,-0.002 -0.0109,-0.002 -0.0156,-0.004 -0.002,-7.5e-4 -0.002,-0.001 -0.004,-0.002 C 6.58058,15.71797 5,13.55261 5,11 5,10.64153 5.036,10.29203 5.0957,9.95117 5.1857,9.4375 5.34166,8.94747 5.55273,8.48828 c 0.003,-0.006 0.005,-0.0112 0.008,-0.0176 0.0995,-0.21455 0.21271,-0.42133 0.33594,-0.62109 0.0114,-0.0185 0.0216,-0.0383 0.0332,-0.0566 C 6.192,7.37825 6.50076,6.99739 6.8537,6.66018 6.8627,6.65218 6.8725,6.64478 6.881,6.63678 7.04461,6.48228 7.21828,6.33859 7.39858,6.20319 7.42298,6.18489 7.44618,6.16839 7.47088,6.15049 7.86475,5.86396 8.2933,5.62036 8.75213,5.43565 c 0.001,-5.7e-4 0.002,5.7e-4 0.004,0 0.0789,-0.0317 0.15971,-0.0575 0.24024,-0.0859 C 9.19569,5.27945 9.39919,5.21739 9.60769,5.16811 10.05504,5.06237 10.5197,5.00014 11.00027,5.00014 Z M 9.11328,6.10352 C 8.75677,6.24024 8.41731,6.40997 8.10352,6.61719 c 0.0406,0.0194 0.0863,0.0417 0.125,0.0469 0.0687,0.009 0.14492,-0.02 0.15429,0.0352 0.009,0.053 -0.0651,0.0722 -0.0703,0.10547 0.0371,0.0489 -0.0236,0.0724 -0.0234,0.11523 9e-5,0.0348 0.0408,0.0869 0.0781,0.0899 0.0504,0.004 0.12548,-0.0491 0.14648,-0.0996 0.0248,-0.0601 0.0128,-0.14175 0.0586,-0.18555 C 8.80556,6.73074 9.0033,6.61851 8.9883,6.37904 8.9863,6.35534 8.976,6.32494 8.9803,6.29894 8.9873,6.26024 9.054,6.22874 9.0448,6.1798 9.0796,6.1691 9.096,6.1362 9.1131,6.1036 Z m 4.05469,0.56445 c 0.0614,-0.006 0.12831,0.0193 0.13281,0.0566 0.005,0.0376 -0.0343,0.0418 -0.0488,0.084 -0.0138,0.0383 -10e-5,0.0849 -0.0176,0.11133 -0.0153,0.0226 -0.0537,0.0211 -0.082,0.0293 -0.063,0.0191 -0.1857,0.0945 -0.23633,0.0117 0.007,-0.0444 0.0497,-0.055 0.0644,-0.0918 9.8e-4,-0.0289 -0.0299,-0.0434 -0.0254,-0.0742 0.006,-0.0373 0.0355,-0.0237 0.0762,-0.0391 0.0294,-0.0113 0.042,-0.0471 0.0801,-0.0703 0.0167,-0.0104 0.0362,-0.0146 0.0566,-0.0176 z M 7.66211,7.25 C 7.58091,7.2288 7.46687,7.3104 7.37305,7.3359 7.32025,7.3502 7.26989,7.35 7.25781,7.3945 7.30521,7.473 7.3996,7.3784 7.46875,7.3905 c 0.035,0.006 0.0553,0.0553 0.0898,0.0605 0.0237,0.004 0.16048,-0.0111 0.16993,-0.0156 0.0998,-0.0425 -0.021,-0.1737 -0.0664,-0.18555 z m 0.19141,0.24219 c -0.0399,-0.003 -0.081,0.0145 -0.0957,0.0332 -0.002,0.0299 0.023,0.036 0.0215,0.0664 -0.0487,0.0348 -0.0245,0.14979 0.0234,0.15429 0.0508,0.004 0.0785,-0.12892 0.14649,-0.14062 0.0247,-0.004 0.0376,0.0155 0.0703,0.0117 0.0395,-0.031 0.0204,-0.0944 -0.0215,-0.10547 -0.0164,-0.004 -0.0377,0.0113 -0.0645,0.01 -0.0283,-0.002 -0.0566,-0.0278 -0.0801,-0.0293 z m -0.22657,0.0137 c -0.0418,-0.002 -0.11054,0.0185 -0.13476,0.0352 -0.022,0.0153 -0.0357,0.0544 -0.0586,0.082 -0.0236,0.0284 -0.0504,0.0495 -0.0703,0.0742 -0.0181,0.0222 -0.12046,0.16694 -0.041,0.18359 0.0339,0.007 0.10458,-0.061 0.11133,-0.0879 0.0226,-0.0918 0.0636,-0.1582 0.13477,-0.20117 0.0412,-0.0249 0.0831,-0.0209 0.0898,-0.0742 -0.005,-0.006 -0.0174,-0.0113 -0.0312,-0.0117 z m 7.13086,0.0312 c -0.0189,-0.006 -0.0467,0.019 -0.0586,0.0352 -0.0244,0.1092 0.0648,0.11764 0.10547,0.16601 0.0279,0.0333 0.04,0.0816 0.0684,0.10352 0.0302,0.0233 0.0726,0.0193 0.11133,0.0352 0.0268,0.0109 0.0426,0.0448 0.0684,0.0606 0.0478,0.0291 0.12561,0.0338 0.13086,0.0898 -0.0297,0.0203 -0.0961,-0.03 -0.11914,0.0195 -0.006,0.0324 0.0239,0.0493 0.0234,0.0801 -10e-4,0.0493 -0.0543,0.10396 -0.10352,0.0957 -0.005,-0.0293 0.0269,-0.0522 0.0254,-0.084 -0.002,-0.0637 -0.13224,-0.16223 -0.19726,-0.1914 -0.0305,-0.0138 -0.0661,-0.0157 -0.0937,-0.0312 -0.0492,-0.0277 -0.13407,-0.0953 -0.16407,-0.13477 -0.0358,-0.0475 -0.0677,-0.13341 -0.14649,-0.12891 -0.0321,0.002 -0.0595,0.0312 -0.0859,0.0449 -0.024,0.0122 -0.0497,0.0247 -0.0742,0.041 -0.0292,0.0194 -0.0529,0.0376 -0.0801,0.0391 -0.0628,0.003 -0.11592,-0.0469 -0.16992,-0.0352 -0.0182,0.004 -0.0329,0.0192 -0.0547,0.0391 -7.5e-4,0.0291 0.008,0.048 0.004,0.0801 -0.0163,0.0282 -0.0662,0.0282 -0.10156,0.0469 -0.0518,0.0273 -0.0965,0.0834 -0.13867,0.125 -0.0272,0.0268 -0.0509,0.0492 -0.0547,0.0703 -0.003,0.0165 0.0143,0.048 0.01,0.0703 -0.004,0.0241 -0.0497,0.0729 -0.0801,0.0937 -0.0177,0.0122 -0.0417,0.0141 -0.0605,0.0254 -0.0394,0.0234 -0.0568,0.0538 -0.0898,0.0606 -0.0875,0.0163 -0.24685,-0.0185 -0.2461,0.0742 6.9e-4,0.0616 0.0859,0.0635 0.13672,0.0605 0.0708,-0.003 0.13077,0.014 0.16992,0.004 0.027,-0.007 0.0556,-0.0359 0.084,-0.0488 0.0179,-0.008 0.0373,-0.009 0.0508,-0.0156 0.0299,-0.0151 0.0471,-0.0402 0.0703,-0.0508 0.0458,-0.0208 0.13049,-0.0361 0.17969,-0.0391 0.0675,-0.005 0.1393,0.007 0.22656,0 0.0311,-0.002 0.0604,-0.0224 0.0937,-0.0254 0.0545,-0.004 0.1259,0.0203 0.16992,0.0195 0.0305,-9e-4 0.0639,-0.0298 0.0996,-0.0293 0.0403,7.5e-4 0.0843,0.0288 0.0918,0.0547 0.005,0.0146 -0.008,0.0386 -0.004,0.0605 0.006,0.0364 0.0367,0.0506 0.0351,0.0742 -0.003,0.0314 -0.081,0.0725 -0.0703,0.10938 0.007,0.0237 0.0607,0.0498 0.0879,0.0664 0.0284,0.0173 0.0777,0.0412 0.11133,0.0449 0.0283,0.004 0.0532,-0.009 0.0801,-0.006 0.0431,0.005 0.11333,0.0336 0.14063,0.0527 0.047,0.0331 0.0411,0.0847 0.0957,0.10351 0.0233,0.008 0.0638,0.003 0.0937,0.01 0.0729,0.0158 0.12839,0.0771 0.18164,0.0703 0.0839,-0.01 0.0452,-0.0881 0.0547,-0.14453 0.0214,-0.12783 0.27104,-0.12206 0.32031,-0.0352 0.0221,0.006 0.0441,0.006 0.0664,0.008 -0.0681,-0.14558 -0.14198,-0.28598 -0.22265,-0.42383 -0.0434,-0.0172 -0.0689,-0.0533 -0.0684,-0.11523 -0.0426,-0.0647 -0.098,-0.11074 -0.13672,-0.16407 -0.0143,-0.0198 -0.0346,-0.0523 -0.0391,-0.082 -9e-4,-0.006 0.001,-0.0128 0.002,-0.0195 -0.0362,-0.0511 -0.0754,-0.10069 -0.11328,-0.15039 -0.0137,-0.006 -0.0273,-0.0139 -0.0391,-0.0195 -0.0591,-0.0282 -0.13379,-0.0545 -0.17579,-0.0898 -0.0297,-0.025 -0.044,-0.0674 -0.0703,-0.084 -0.0224,-0.014 -0.0504,-0.0115 -0.0703,-0.0254 -0.0271,-0.0189 -0.0229,-0.0509 -0.0586,-0.0606 l -0.002,0 z M 8.2207,7.68748 c -0.0255,0 -0.055,0.004 -0.0781,0.006 -0.0327,0.003 -0.0712,0.0103 -0.0742,0.0352 0.0521,0.0238 0.19466,0.0388 0.21094,-0.0274 -0.0105,-0.01 -0.0332,-0.0132 -0.0586,-0.0137 z M 7.89648,7.80857 c -0.0513,0.002 -0.0988,0.028 -0.14257,0.0332 -0.0348,0.005 -0.10005,-0.007 -0.0918,0.0449 0.006,0.0425 0.0732,0.0277 0.11133,0.0156 0.0792,-0.025 0.12958,-0.0473 0.17578,-0.0859 -0.0178,-0.007 -0.0356,-0.008 -0.0527,-0.008 z m 6.52539,0 c 0.0107,-0.004 0.0225,-5e-5 0.0352,0.0137 0.006,0.0423 -0.0121,0.0624 -0.0352,0.0762 -0.0494,-0.009 -0.0325,-0.0792 0,-0.0898 z m -0.0137,0.14063 c 0.0481,-0.0131 0.0838,0.0344 0.0644,0.13867 -0.0165,0.0421 -0.0869,0.0969 -0.11913,0.0352 0.0112,-0.0486 0.005,-0.0847 0.004,-0.14063 0.0172,-0.018 0.0347,-0.0287 0.0508,-0.0332 z m 0.42579,0.27539 0.002,0 c 0.0441,0.002 0.0934,0.008 0.1289,0.008 -0.0135,0.0383 -0.0173,0.0872 -0.0469,0.10937 -0.0821,-0.0148 -0.15864,-0.0337 -0.19531,-0.0937 0.0257,-0.0215 0.0673,-0.0248 0.11133,-0.0234 z m -8.88282,2.03516 c -0.0523,10e-4 -0.10487,0.051 -0.15234,0.0508 C 5.7692,10.53696 5.75,10.76527 5.75,11 c 0,1.95787 1.06377,3.65586 2.64453,4.55859 -0.006,-0.0187 -0.0149,-0.0361 -0.0156,-0.0566 -7.5e-4,-0.0218 0.01,-0.0477 0.006,-0.0703 -0.0106,-0.0675 -0.0854,-0.1239 -0.0899,-0.1914 -0.002,-0.0326 0.0209,-0.0607 0.0254,-0.0957 0.004,-0.0234 -0.003,-0.0492 0,-0.0742 0.004,-0.0317 0.0197,-0.0609 0.0234,-0.0898 0.006,-0.0551 1.3e-4,-0.14927 -0.01,-0.19532 -0.0125,-0.0578 -0.0597,-0.10669 -0.0664,-0.16992 -0.003,-0.0228 0.007,-0.0625 0.006,-0.0918 -0.002,-0.0272 -0.0165,-0.051 -0.0195,-0.082 -0.003,-0.0286 0.007,-0.0576 0.01,-0.0918 0.005,-0.0628 -0.0113,-0.13291 -0.01,-0.19531 6.8e-4,-0.0185 0.01,-0.0328 0.01,-0.0508 -6.7e-4,-0.0516 -0.0185,-0.10277 -0.0215,-0.1543 -0.004,-0.0952 0.0115,-0.16404 -0.004,-0.25195 -0.0117,-0.0665 -0.0248,-0.16714 -0.0488,-0.20898 -0.0268,-0.0466 -0.13447,-0.12468 -0.1875,-0.1543 -0.035,-0.0196 -0.0751,-0.0281 -0.11328,-0.0469 -0.0816,-0.0401 -0.23962,-0.12425 -0.27539,-0.20508 -0.0104,-0.0233 -0.0105,-0.0541 -0.0215,-0.0801 -0.0218,-0.0513 -0.0671,-0.095 -0.0996,-0.14453 -0.0618,-0.0944 -0.11233,-0.21306 -0.17579,-0.31055 -0.0321,-0.0496 -0.0587,-0.10508 -0.0937,-0.14453 -0.0206,-0.0233 -0.0874,-0.045 -0.0957,-0.0801 -0.0112,-0.0463 -0.0443,-0.11108 -0.0391,-0.14648 0.007,-0.0478 0.0997,-0.0872 0.0996,-0.13086 -1.5e-4,-0.037 -0.0502,-0.0565 -0.0605,-0.0879 -0.0253,-0.0765 0.0148,-0.1218 0.0449,-0.18555 0.01,-0.0209 0.0189,-0.0549 0.0293,-0.0703 0.0183,-0.0276 0.0557,-0.0366 0.0801,-0.0664 0.0136,-0.0167 0.0232,-0.0506 0.041,-0.0742 0.0381,-0.0506 0.0995,-0.0696 0.11524,-0.11523 0.0127,-0.0372 0.0193,-0.22291 0.004,-0.28516 -0.009,-0.036 -0.042,-0.0655 -0.0547,-0.0996 -0.0227,-0.0605 -0.0276,-0.12575 -0.0898,-0.125 -0.0385,7.5e-4 -0.0671,0.0435 -0.0918,0.0703 -0.006,0.0357 -0.002,0.0731 -0.0391,0.084 -0.0569,0.0168 -0.0782,-0.06 -0.14453,-0.0801 -0.0264,-0.008 -0.0694,-0.006 -0.0859,-0.0137 -0.0484,-0.0217 -0.0642,-0.0935 -0.11524,-0.12109 -0.0427,-0.023 -0.0795,-0.0157 -0.10546,-0.0508 -0.01,-0.0242 -9.1e-4,-0.0672 -0.004,-0.0996 -0.0549,-0.0321 -0.10024,-0.15134 -0.16407,-0.17969 -0.0423,-0.0188 -0.10915,-0.0172 -0.1621,-0.0352 -0.0249,-0.008 -0.0443,-0.0201 -0.0703,-0.0254 -0.0321,-0.007 -0.0631,-0.007 -0.0879,-0.0195 -0.0991,-0.0492 -0.15261,-0.20882 -0.27539,-0.20507 z m 2.03711,0.5664 c -0.0363,0.0168 -0.0179,0.0814 0.0195,0.0762 0.0395,-0.006 0.0285,-0.0982 -0.0195,-0.0762 z m 5.47852,2.24805 c 0.19911,0 0.38262,0.0484 0.55078,0.14648 0.16812,0.0981 0.30031,0.23227 0.39844,0.40039 0.0931,0.15954 0.13977,0.33406 0.14453,0.52149 l 0,-0.13086 0.6289,0 0,0.14453 c 0.003,-0.19284 0.051,-0.37159 0.14649,-0.53516 0.0981,-0.16813 0.2303,-0.30228 0.39843,-0.40039 0.16812,-0.0981 0.35169,-0.14648 0.55079,-0.14648 0.19911,0 0.38262,0.0484 0.55078,0.14648 0.16812,0.0981 0.30226,0.23227 0.40039,0.40039 0.0981,0.16812 0.14648,0.35169 0.14648,0.55079 0,0.19907 -0.0484,0.38264 -0.14648,0.55078 -0.0981,0.16812 -0.23227,0.30033 -0.40039,0.39843 -0.16812,0.0981 -0.35169,0.14844 -0.55078,0.14844 -0.1991,0 -0.38265,-0.0503 -0.55079,-0.14844 -0.16813,-0.0981 -0.30031,-0.23033 -0.39843,-0.39843 -0.0954,-0.16359 -0.14389,-0.3423 -0.14649,-0.53516 l 0,0.13867 -0.6289,0 0,0.62696 0,1.88085 0.64062,0 0,0.14258 c 0,-0.19907 0.0483,-0.38264 0.14649,-0.55078 0.0981,-0.16814 0.23225,-0.30033 0.40039,-0.39844 0.16812,-0.0981 0.35168,-0.14843 0.55078,-0.14843 0.19911,0 0.38262,0.0503 0.55078,0.14843 0.16812,0.0981 0.30031,0.23032 0.39844,0.39844 0.0981,0.16812 0.14843,0.35169 0.14843,0.55078 0,0.19908 -0.0503,0.38265 -0.14843,0.55078 -0.0981,0.16812 -0.23032,0.30229 -0.39844,0.40039 -0.16812,0.0981 -0.35169,0.14649 -0.55078,0.14649 -0.1991,0 -0.38265,-0.0484 -0.55078,-0.14649 -0.16814,-0.0981 -0.30227,-0.23228 -0.40039,-0.40039 -0.0981,-0.16815 -0.14649,-0.35168 -0.14649,-0.55078 l 0,0.17188 -0.64062,0 0,-0.002 -0.3125,0 0,-2.19336 c 0.0688,-0.0691 0.11986,-0.14957 0.16797,-0.23047 -0.0981,0.16812 -0.23032,0.30033 -0.39844,0.39844 -0.16812,0.0981 -0.35169,0.14844 -0.55078,0.14844 -0.1991,0 -0.38265,-0.0503 -0.55078,-0.14844 -0.16814,-0.0981 -0.30227,-0.23034 -0.4004,-0.39844 -0.0981,-0.16816 -0.14648,-0.35169 -0.14648,-0.55078 0,-0.19908 0.0483,-0.38264 0.14648,-0.55078 0.0981,-0.16814 0.23226,-0.30228 0.4004,-0.40039 0.16812,-0.0981 0.35168,-0.14649 0.55078,-0.14649 z m 0.94922,1.64844 c 0.0377,-0.0635 0.0623,-0.13356 0.0859,-0.20508 -0.0233,0.07 -0.0478,0.13976 -0.0859,0.20508 z m 0.0859,-0.20508 c 0.011,-0.033 0.0236,-0.0656 0.0312,-0.0996 -0.008,0.0349 -0.0203,0.0666 -0.0312,0.0996 z m 0.0312,-0.0996 c 0.007,-0.032 0.023,-0.0582 0.0273,-0.0918 l 0,-0.125 c -0.002,0.0745 -0.0115,0.14666 -0.0273,0.21679 z m 0.0273,-0.2168 c 2.5e-4,-0.0101 0.004,-0.0191 0.004,-0.0293 0,-0.0102 -0.004,-0.0192 -0.004,-0.0293 l 0,0.0586 z m 0.6289,-0.0137 0,-0.0312 c -7e-5,0.005 -0.002,0.0102 -0.002,0.0156 0,0.005 0.002,0.0102 0.002,0.0156 z"
     />
</svg>
