<svg xmlns="http://www.w3.org/2000/svg" viewBox="0 0 22 22">
  <defs id="defs3051">
    <style type="text/css" id="current-color-scheme">
      .ColorScheme-Text {
        color:#4d4d4d
      }
      </style>
  </defs>
 <path 
     style="fill:currentColor;fill-opacity:1;stroke:none"      
	 class="ColorScheme-Text"
        d="M 1.7092824,3 C 1.3158242,3 0.999999,3.3368051 0.999999,3.7539099 l 0,14.4921871 C 0.999999,18.663202 1.3158242,19 1.7092824,19 l 18.5814346,0 c 0.393465,0 0.709284,-0.336798 0.709284,-0.753903 l 0,-14.4921871 C 21.000001,3.3368051 20.684182,3 20.290717,3 L 1.7092824,3 Z M 12.691232,7.000002 c 0.171153,0 0.342798,0.06901 0.473465,0.207032 0.261338,0.276059 0.261338,0.72361 0,1.000002 l -2.910827,2.792967 2.910827,2.792968 c 0.261338,0.276385 0.261338,0.723616 0,1.000002 -0.261333,0.276392 -0.683764,0.276392 -0.945096,0 L 8.8316164,11.544928 c -0.1412126,-0.149526 -0.203239,-0.349119 -0.1915991,-0.544925 -0.0116,-0.195459 0.0504,-0.395411 0.1915991,-0.544924 L 12.219601,7.207034 c 0.130666,-0.138026 0.300472,-0.207032 0.471631,-0.207032 z"
     />
</svg>
