<?xml version="1.0" encoding="UTF-8" standalone="no"?>
<svg
   xmlns:dc="http://purl.org/dc/elements/1.1/"
   xmlns:cc="http://creativecommons.org/ns#"
   xmlns:rdf="http://www.w3.org/1999/02/22-rdf-syntax-ns#"
   xmlns:svg="http://www.w3.org/2000/svg"
   xmlns="http://www.w3.org/2000/svg"
   xmlns:sodipodi="http://sodipodi.sourceforge.net/DTD/sodipodi-0.dtd"
   xmlns:inkscape="http://www.inkscape.org/namespaces/inkscape"
   viewBox="0 0 22 22"
   id="svg3313"
   version="1.1"
   inkscape:version="0.91 r13725"
   sodipodi:docname="window-previous.svg">
  <metadata
     id="metadata3321">
    <rdf:RDF>
      <cc:Work
         rdf:about="">
        <dc:format>image/svg+xml</dc:format>
        <dc:type
           rdf:resource="http://purl.org/dc/dcmitype/StillImage" />
      </cc:Work>
    </rdf:RDF>
  </metadata>
  <sodipodi:namedview
     pagecolor="#ffffff"
     bordercolor="#666666"
     borderopacity="1"
     objecttolerance="10"
     gridtolerance="10"
     guidetolerance="10"
     inkscape:pageopacity="0"
     inkscape:pageshadow="2"
     inkscape:window-width="640"
     inkscape:window-height="480"
     id="namedview3319"
     showgrid="false"
     inkscape:zoom="28.954545"
     inkscape:cx="4.8524333"
     inkscape:cy="11"
     inkscape:current-layer="svg3313" />
  <defs
     id="defs3051">
    <style
       type="text/css"
       id="current-color-scheme">
      .ColorScheme-Text {
        color:#4d4d4d
      }
      </style>
  </defs>
  <path
     style="color:#4d4d4d;fill:currentColor;fill-opacity:1;stroke:none"
     class="ColorScheme-Text"
     d="M 3.5674267,4.2000013 C 3.2526601,4.2000013 3,4.4694453 3,4.8031291 L 3,16.396878 C 3,16.730562 3.2526601,17 3.5674267,17 L 18.432573,17 C 18.747345,17 19,16.730562 19,16.396878 L 19,4.8031291 C 19,4.4694453 18.747345,4.2000013 18.432573,4.2000013 l -14.8651463,0 z m 8.7855583,3.2000013 c 0.136923,0 0.274239,0.055208 0.378772,0.1656255 0.209071,0.2208472 0.209071,0.5788879 0,0.8000019 l -2.328661,2.234373 2.328661,2.234374 c 0.209071,0.221108 0.209071,0.578893 0,0.800002 -0.209066,0.221113 -0.547011,0.221113 -0.756076,0 L 9.2652933,11.035943 C 9.1523232,10.916322 9.1027021,10.756648 9.112014,10.600003 9.102734,10.443636 9.152334,10.283674 9.2652933,10.164064 L 11.975681,7.5656281 c 0.104532,-0.1104207 0.240377,-0.1656255 0.377304,-0.1656255 z"
     id="path3317"
     inkscape:connector-curvature="0" />
</svg>
