<?xml version="1.0" encoding="UTF-8" standalone="no"?>
<svg
   xmlns:dc="http://purl.org/dc/elements/1.1/"
   xmlns:cc="http://creativecommons.org/ns#"
   xmlns:rdf="http://www.w3.org/1999/02/22-rdf-syntax-ns#"
   xmlns:svg="http://www.w3.org/2000/svg"
   xmlns="http://www.w3.org/2000/svg"
   xmlns:sodipodi="http://sodipodi.sourceforge.net/DTD/sodipodi-0.dtd"
   xmlns:inkscape="http://www.inkscape.org/namespaces/inkscape"
   viewBox="0 0 22 22"
   id="svg2"
   version="1.1"
   inkscape:version="0.91 r13725"
   sodipodi:docname="window-duplicate.svg">
  <metadata
     id="metadata10">
    <rdf:RDF>
      <cc:Work
         rdf:about="">
        <dc:format>image/svg+xml</dc:format>
        <dc:type
           rdf:resource="http://purl.org/dc/dcmitype/StillImage" />
      </cc:Work>
    </rdf:RDF>
  </metadata>
  <sodipodi:namedview
     pagecolor="#ffffff"
     bordercolor="#666666"
     borderopacity="1"
     objecttolerance="10"
     gridtolerance="10"
     guidetolerance="10"
     inkscape:pageopacity="0"
     inkscape:pageshadow="2"
     inkscape:window-width="640"
     inkscape:window-height="480"
     id="namedview8"
     showgrid="false"
     inkscape:zoom="28.954545"
     inkscape:cx="4.8524333"
     inkscape:cy="11"
     inkscape:current-layer="svg2" />
  <defs
     id="defs3051">
    <style
       type="text/css"
       id="current-color-scheme">
      .ColorScheme-Text {
        color:#4d4d4d
      }
      </style>
  </defs>
  <path
     style="color:#4d4d4d;fill:currentColor;fill-opacity:1;stroke:none"
     class="ColorScheme-Text"
     d="M 3.5674163,4.1999856 C 3.2526481,4.1999856 3,4.4694097 3,4.8031139 L 3,16.39688 C 3,16.730584 3.2526481,17 3.5674163,17 L 18.432576,17 C 18.747336,17 19,16.730584 19,16.39688 L 19,4.8031139 C 19,4.4694097 18.747336,4.1999856 18.432576,4.1999856 l -14.8651597,0 z m 5.939579,4.8000024 8.3610917,0 c 0.177057,0 0.319833,0.15136 0.319833,0.339064 l 0,6.521883 c 0,0.187705 -0.142768,0.339057 -0.319833,0.339057 l -8.3610917,0 c -0.1770561,0 -0.3198242,-0.151352 -0.3198242,-0.339057 l 0,-6.521883 c 0,-0.187704 0.1427681,-0.339064 0.3198242,-0.339064 z"
     id="path6"
     inkscape:connector-curvature="0" />
</svg>
