<svg xmlns="http://www.w3.org/2000/svg" viewBox="0 0 22 22">
  <defs id="defs3051">
    <style type="text/css" id="current-color-scheme">
      .ColorScheme-Text {
        color:#4d4d4d
      }
      </style>
  </defs>
    <path
       style="fill:currentColor;fill-opacity:1;stroke:none"
       class="ColorScheme-Text"
       d="M 7.53125 3 L 3.4667969 3.0136719 C 3.3376069 3.0140919 3.2212187 3.0656706 3.1367188 3.1503906 C 3.0523188 3.2350906 2.99962 3.3515588 3 3.4804688 L 3.0136719 7.5351562 C 3.0145019 7.7930163 3.2239619 8.00088 3.4824219 8 C 3.7408419 7.99918 3.9499887 7.78905 3.9492188 7.53125 L 3.9375 3.9453125 L 7.5332031 3.9335938 C 7.7916131 3.9327837 8.00083 3.7225937 8 3.4648438 C 7.99931 3.2069737 7.78983 2.99911 7.53125 3 z M 12 3 L 14 5 L 10 12 L 17 8 L 19 10 L 19 3 L 12 3 z M 3.5996094 13 C 3.2672094 13 3 13.267209 3 13.599609 L 3 18.400391 C 3 18.732791 3.2672094 19 3.5996094 19 L 8.4003906 19 C 8.7327906 19 9 18.732791 9 18.400391 L 9 13.599609 C 9 13.267209 8.7327906 13 8.4003906 13 L 3.5996094 13 z M 18.517578 14 C 18.259158 14.00082 18.050011 14.21094 18.050781 14.46875 L 18.0625 18.054688 L 14.466797 18.066406 C 14.208387 18.067216 13.99917 18.277406 14 18.535156 C 14.0007 18.793026 14.21017 19.00089 14.46875 19 L 18.533203 18.986328 C 18.662403 18.985908 18.778781 18.934329 18.863281 18.849609 C 18.947681 18.764909 19.00038 18.648441 19 18.519531 L 18.986328 14.464844 C 18.985508 14.206984 18.776038 13.99912 18.517578 14 z "
        />
</svg>
