<svg height="48" width="48" xmlns="http://www.w3.org/2000/svg" xmlns:xlink="http://www.w3.org/1999/xlink"><linearGradient id="a"><stop offset="0" stop-color="#f15400"/><stop offset="1" stop-color="#fa8c00"/></linearGradient><linearGradient gradientUnits="userSpaceOnUse" x1="23.802246" x2="23.892494" y1="265.83694" y2="146.96394"><stop offset="0" stop-color="#fe9501"/><stop offset="1" stop-color="#feb600"/></linearGradient><linearGradient gradientUnits="userSpaceOnUse" x1="22.547663" x2="21.170237" xlink:href="#a" y1="266.99716" y2="148.12303"/><linearGradient id="b" gradientTransform="matrix(.39742005 -.00028815 .00030172 .37954154 398.99984 444.88593)" gradientUnits="userSpaceOnUse" x1="5.233775" x2="3.419102" xlink:href="#c" y1="206.23018" y2="147.64192"/><linearGradient id="c"><stop offset="0" stop-color="#d3d3d3"/><stop offset="1" stop-color="#fcf9f9"/></linearGradient><linearGradient id="d" gradientTransform="matrix(.39742013 -.00028815 .00030172 .37954143 398.99984 444.90376)" gradientUnits="userSpaceOnUse" x1="-.48534" x2="-3.976398" xlink:href="#a" y1="266.76657" y2="208.51077"/><linearGradient id="e" gradientTransform="matrix(.39742003 -.00028815 .00030172 .37954145 399.10862 444.90432)" gradientUnits="userSpaceOnUse" x1="27.98629" x2="27.496586" xlink:href="#c" y1="263.93311" y2="206.29182"/><linearGradient id="f" gradientTransform="matrix(.39742003 -.00028815 .00030172 .37954143 399.06363 444.78422)" gradientUnits="userSpaceOnUse" x1="28.345167" x2="27.538433" xlink:href="#a" y1="236.00932" y2="155.37074"/><g transform="translate(-384.57143 -499.798)"><g fill-opacity=".352941" transform="matrix(.40780314 -.0003105 .0003096 .4089872 397.87821 437.72375)"><g fill-rule="evenodd"><path d="m-20.441616 157.88007 46.543242.0354-.04085 53.78389-53.947555-.041.03558-46.84836c.0058-7.44684 7.017191-6.9302 7.409576-6.9299z"/><path d="m-20.523298 265.44798 46.543255.0353.04084-53.78388-53.947561-.0409-.03557 46.84835c-.0057 7.44684 7.006664 6.94086 7.399044 6.94114z"/><path d="m72.644869 157.95068-46.54324-.0352-.04084 53.78388 53.947542.0409.03559-46.84835c.0058-7.44684-7.006664-6.94086-7.399033-6.94114z"/><path d="m72.563198 265.51859-46.543237-.0354.04084-53.78388 53.947541.041-.03554 46.84836c-.0056 7.44683-7.017195 6.93021-7.409574 6.9299z"/></g><path d="m-58.92517 192.33365h-26.689856v-5.63181q11.998192-12.0594 15.365032-15.73232 2.999548-3.36684 4.040208-5.08087 1.040659-1.77524 1.040659-4.34628 0-2.63226-2.081319-4.65236-2.081319-2.0201-5.570589-2.0201-3.183194 0-5.142083 1.89767-1.958888 1.83646-2.509826 3.97899l-5.142082-2.08132q1.040659-3.30562 4.346284-6.24396 3.305624-2.93833 8.570137-2.93833 5.815451 0 9.549582 3.55049 3.734131 3.55048 3.734131 8.50892 0 6.12153-6.672464 13.10007l-12.243053 12.30427h19.405239z" transform="matrix(.66922466 .00050807 -.0005066 .66728717 47.721426 71.055708)"/><path d="m-77.159319 146.99794q-4.652361 6.30517-12.181839 6.30517-7.529477 0-12.181842-6.30517-4.65236-6.30517-4.65236-15.60989 0-9.36594 4.65236-15.6099 4.652365-6.30517 12.181842-6.30517 7.529478 0 12.181839 6.30517 4.65236 6.24396 4.65236 15.6099 0 9.30472-4.65236 15.60989zm-12.181839.91823q5.019652 0 8.0192-4.71358 3.060764-4.71357 3.060764-11.81454 0-7.16219-3.060764-11.81455-2.999548-4.71357-8.0192-4.71357-5.080867 0-8.080415 4.71357-2.999547 4.65236-2.999547 11.81455 0 7.10097 2.999547 11.81454 2.999548 4.71358 8.080415 4.71358z" transform="matrix(.65426999 .00049672 -.00049528 .65237579 110.96158 99.434275)"/><path d="m7.1285029 111.24677h-5.6318046v-8.815h-19.8949623v-4.285064l19.4052401-28.771176h6.1215268v27.791731h5.3869431v5.264509h-5.3869431zm-5.6318046-14.079509v-19.52767h-.2448611l-13.2837132 19.52767h13.5285743z" transform="matrix(.68487914 .00051996 -.00051845 .68289633 .795216 176.86216)"/><path d="m128.068 121.95116q-4.10142 3.6117-10.10051 3.6117-5.9991 0-10.10052-3.6117-4.10143-3.6117-4.10143-8.93743 0-3.48927 1.89768-6.12152 1.89767-2.69347 4.95843-4.22386v-.24486q-2.38739-1.53038-3.91777-3.856559-1.53039-2.387395-1.53039-4.958436 0-5.080868 3.61171-8.447707 3.6117-3.428055 9.18229-3.428055 5.57058 0 9.18229 3.428055 3.6117 3.366839 3.6117 8.447707 0 2.571041-1.53039 4.958436-1.53038 2.326179-3.91777 3.856559v.24486q3.06076 1.53039 4.95843 4.22386 1.89768 2.63225 1.89768 6.12152 0 5.32573-4.10143 8.93743zm-15.18138-23.690305q2.0201 1.775245 5.08087 1.775245 3.06076 0 5.01965-1.775245 2.0201-1.836458 2.0201-4.774791 0-2.938333-2.0201-4.65236-1.95889-1.714028-5.01965-1.714028-3.06077 0-5.08087 1.714028-1.95889 1.714027-1.95889 4.65236 0 2.938333 1.95889 4.774791zm-.91823 19.833745q2.44861 2.08132 5.9991 2.08132 3.55048 0 5.99909-2.08132 2.44861-2.08132 2.44861-5.38694 0-3.24441-2.44861-5.32573-2.44861-2.08132-5.99909-2.08132-3.55049 0-5.9991 2.08132-2.44861 2.08132-2.44861 5.32573 0 3.30562 2.44861 5.38694z" transform="matrix(.65427003 .00049672 -.00049528 .65237584 -24.777975 170.89857)"/></g><g fill-rule="evenodd"><path d="m389.59094 501.80105 18.98049.00003-.00001 21.99694-22-.00002.00001-19.16039c.00006-3.04567 2.85949-2.83654 3.0195-2.83654z" fill="url(#b)"/><path d="m427.55192 501.80103-18.98049.00006-.00001 21.99693 21.99999-.00003.00001-19.16038c.00006-3.04567-2.85949-2.83655-3.01949-2.83654z" fill="url(#f)"/><path d="m427.55192 545.79495-18.98049-.00002v-21.99693l21.99999.00001.00001 19.16039c.00002 3.04566-2.85949 2.83655-3.0195 2.83655z" fill="url(#e)"/></g><path d="m-58.92517 192.33365h-26.689856v-5.63181q11.998192-12.0594 15.365032-15.73232 2.999548-3.36684 4.040208-5.08087 1.040659-1.77524 1.040659-4.34628 0-2.63226-2.081319-4.65236-2.081319-2.0201-5.570589-2.0201-3.183194 0-5.142083 1.89767-1.958888 1.83646-2.509826 3.97899l-5.142082-2.08132q1.040659-3.30562 4.346284-6.24396 3.305624-2.93833 8.570137-2.93833 5.815451 0 9.549582 3.55049 3.734131 3.55048 3.734131 8.50892 0 6.12153-6.672464 13.10007l-12.243053 12.30427h19.405239z" fill-opacity=".810484" transform="matrix(.27291208 0 0 .27291207 417.36116 466.26984)"/><path d="m-77.159319 146.99794q-4.652361 6.30517-12.181839 6.30517-7.529477 0-12.181842-6.30517-4.65236-6.30517-4.65236-15.60989 0-9.36594 4.65236-15.6099 4.652365-6.30517 12.181842-6.30517 7.529478 0 12.181839 6.30517 4.65236 6.24396 4.65236 15.6099 0 9.30472-4.65236 15.60989zm-12.181839.91823q5.019652 0 8.0192-4.71358 3.060764-4.71357 3.060764-11.81454 0-7.16219-3.060764-11.81455-2.999548-4.71357-8.0192-4.71357-5.080867 0-8.080415 4.71357-2.999547 4.65236-2.999547 11.81455 0 7.10097 2.999547 11.81454 2.999548 4.71358 8.080415 4.71358z" fill="#fff" fill-opacity=".810484" transform="matrix(.26681351 0 0 .2668135 443.15948 477.85667)"/><path d="m389.59094 545.79494 18.98049-.00001.00001-21.99693-22 .00002-.00001 19.16039c-.00015 3.04566 2.85949 2.83654 3.0195 2.83654z" fill="url(#d)" fill-rule="evenodd"/><path d="m7.1285029 111.24677h-5.6318046v-8.815h-19.8949623v-4.285064l19.4052401-28.771176h6.1215268v27.791731h5.3869431v5.264509h-5.3869431zm-5.6318046-14.079509v-19.52767h-.2448611l-13.2837132 19.52767h13.5285743z" fill="#fff" fill-opacity=".810484" transform="matrix(.27929602 0 0 .27929602 398.25726 509.55789)"/><path d="m128.068 121.95116q-4.10142 3.6117-10.10051 3.6117-5.9991 0-10.10052-3.6117-4.10143-3.6117-4.10143-8.93743 0-3.48927 1.89768-6.12152 1.89767-2.69347 4.95843-4.22386v-.24486q-2.38739-1.53038-3.91777-3.856559-1.53039-2.387395-1.53039-4.958436 0-5.080868 3.61171-8.447707 3.6117-3.428055 9.18229-3.428055 5.57058 0 9.18229 3.428055 3.6117 3.366839 3.6117 8.447707 0 2.571041-1.53039 4.958436-1.53038 2.326179-3.91777 3.856559v.24486q3.06076 1.53039 4.95843 4.22386 1.89768 2.63225 1.89768 6.12152 0 5.32573-4.10143 8.93743zm-15.18138-23.690305q2.0201 1.775245 5.08087 1.775245 3.06076 0 5.01965-1.775245 2.0201-1.836458 2.0201-4.774791 0-2.938333-2.0201-4.65236-1.95889-1.714028-5.01965-1.714028-3.06077 0-5.08087 1.714028-1.95889 1.714027-1.95889 4.65236 0 2.938333 1.95889 4.774791zm-.91823 19.833745q2.44861 2.08132 5.9991 2.08132 3.55048 0 5.99909-2.08132 2.44861-2.08132 2.44861-5.38694 0-3.24441-2.44861-5.32573-2.44861-2.08132-5.99909-2.08132-3.55049 0-5.9991 2.08132-2.44861 2.08132-2.44861 5.32573 0 3.30562 2.44861 5.38694z" fill-opacity=".810484" transform="matrix(.26681353 0 0 .26681352 387.82658 507.1268)"/><path d="m2 24v .5 18.660156c-.00002 1.00075.3082656 1.649493.7285156 2.070313l1.1230469 1.125c.5858687.165047 1.1027389.140629 1.1679687.140625h18.9804688 18.980469c.116163 0 1.651654.10476 2.486328-1l-21.466797-21.496094z" fill-opacity=".078431" fill-rule="evenodd" transform="translate(384.57143 499.798)"/></g></svg>