<svg viewBox="0 0 48 48" xmlns="http://www.w3.org/2000/svg" xmlns:xlink="http://www.w3.org/1999/xlink"><linearGradient id="a"><stop offset="0" stop-color="#3889e9"/><stop offset="1" stop-color="#5ea5fb"/></linearGradient><linearGradient id="b" gradientUnits="userSpaceOnUse" x1="399.57144" x2="399.57144" xlink:href="#a" y1="545.79797" y2="517.79797"/><linearGradient id="c" gradientUnits="userSpaceOnUse" x1="400.5119" x2="400.69922" y1="546.07446" y2="517.77289"><stop offset="0" stop-color="#30cf41"/><stop offset="1" stop-color="#47f383"/></linearGradient><linearGradient gradientUnits="userSpaceOnUse" x1="-.5" x2="536" xlink:href="#a" y1="267.75" y2="267.75"/><g transform="matrix(1.406155135841 0 0 1.406155135841 -539.359078591465 -723.854469766371)"><circle cx="400.57138" cy="531.79791" fill="url(#b)" r="0"/><g transform="matrix(1.117536624128 0 0 1.117536624128 -47.015292188816 -62.460177851153)"><circle cx="400.57138" cy="531.79791" fill="url(#c)" r="13.999958"/><circle cx="400.57144" cy="531.79797" fill="none" r="13.999958"/></g></g><path d="m391.84218 540.91306c-.42081-.32855-.94932-.52413-1.52328-.52413-1.35134 0-2.45088 1.08433-2.48542 2.43509-1.39488.52618-2.38765 1.87965-2.38765 3.46634 0 1.87433 1.38537 3.42322 3.18243 3.66739v.0335h12.72968v-.006c1.77487-.10355 3.18242-1.58396 3.18242-3.39503 0-1.74659-1.30911-3.18565-2.9943-3.37879.007-.10647.0108-.21389.0108-.32212 0-2.70685-2.27081-4.90117-5.07199-4.90117-2.07343 0-3.85626 1.20226-4.64268 2.9247z" fill="#195c28" transform="matrix(1.491598046386 0 0 1.4996113297 -564.93024694826 -792.773085168203)"/></svg>