<svg height="48" width="48" xmlns="http://www.w3.org/2000/svg" xmlns:xlink="http://www.w3.org/1999/xlink"><linearGradient id="a"><stop offset="0" stop-color="#222c35"/><stop offset="1" stop-color="#545e67"/></linearGradient><linearGradient id="b" gradientUnits="userSpaceOnUse" x1="376.399835692308" x2="376.205297225096" xlink:href="#a" y1="525.8466132061" y2="522.697933114264"/><linearGradient id="c" gradientTransform="matrix(3.3333417 0 0 3.3892711 -1032.6705 -1179.5016)" gradientUnits="userSpaceOnUse" x1="428.57144" x2="428.36069" xlink:href="#a" y1="504.798" y2="501.38693"/><linearGradient id="d" gradientTransform="matrix(1.0833321 0 0 1.5347235 -49.73149 -271.24808)" gradientUnits="userSpaceOnUse" x1="391.57144" x2="390.87775" y1="531.79797" y2="507.6731"><stop offset="0" stop-color="#d3d3d3"/><stop offset="1" stop-color="#fcf9f9"/></linearGradient><linearGradient id="e" gradientUnits="userSpaceOnUse" x1="371.605595627101" x2="371.605595627101" xlink:href="#a" y1="532.525676552102" y2="527.742845643372"/><linearGradient id="f" gradientTransform="matrix(-1 0 0 -1 823.84266 1043.6233)" gradientUnits="userSpaceOnUse" x1="408.52423" x2="409.26617" xlink:href="#a" y1="506.48495" y2="533.19501"/><linearGradient id="g" gradientUnits="userSpaceOnUse" x1="407.204555302461" x2="424.071191705281" y1="515.758662045879" y2="532.625306305848"><stop offset="0" stop-color="#18222a"/><stop offset="1" stop-color="#566069"/></linearGradient><linearGradient id="h" gradientTransform="matrix(.94364596 0 0 .94573427 7.012927 51.198856)" gradientUnits="userSpaceOnUse" x1="407.37982" x2="407.50513" y1="529.56152" y2="509.97705"><stop offset="0" stop-color="#08f"/><stop offset="1" stop-color="#02c3ff"/></linearGradient><g transform="translate(-368.571437 -515.79797)"><rect fill="url(#b)" height="2.769241" ry=".923077" width="5.538447" x="372.70758" y="523.07739"/><rect fill="url(#c)" height="10.167851" ry="3.389271" width="20" x="382.57144" y="521.22772"/><rect fill="url(#d)" height="36.833332" ry="1.723617" transform="matrix(.923076946513 .000000007508 -.000000007508 .923076946513 29.90646073138 55.799695224378)" width="52" x="366.88705" y="508.08145"/><g transform="matrix(.857144686744 0 0 .857144361866 36.623914679869 93.804049801414)"><path d="m401.27124 523.8253a13.999973 13.999973 0 0 1 13.99997-13.99997 13.999973 13.999973 0 0 1 13.99997 13.99997 13.999973 13.999973 0 0 1 -13.99997 13.99998 13.999973 13.999973 0 0 1 -13.99997-13.99998z" fill="url(#f)"/><circle cx="415.27127" cy="523.82532" fill="url(#g)" r="10.999989"/></g><circle cx="373.99707" cy="530.13428" fill="url(#e)" fill-rule="evenodd" r="2.391408"/><ellipse cx="392.55978" cy="542.78961" fill="url(#h)" rx="9.436449" ry="9.457332"/></g></svg>