<svg height="48" viewBox="0 0 48 48" width="48" xmlns="http://www.w3.org/2000/svg" xmlns:xlink="http://www.w3.org/1999/xlink"><linearGradient id="a" gradientTransform="matrix(.97382403 0 0 .97678044 9.613005 12.394832)" gradientUnits="userSpaceOnUse" x1="400.98218" x2="413.20642" y1="532.7356" y2="505.35291"><stop offset="0" stop-color="#87deaa"/><stop offset="1" stop-color="#d4ff2a"/></linearGradient><linearGradient id="b" gradientTransform="matrix(1.1447122 0 0 1.1447241 -60.190784 -75.498418)" gradientUnits="userSpaceOnUse" x1="408.75406" x2="408.57138" y1="540.96143" y2="506.798"><stop offset="0" stop-color="#8798a9"/><stop offset="1" stop-color="#bfc8d1"/></linearGradient><linearGradient id="c" gradientTransform="matrix(.39628086 0 0 .39625111 245.59684 316.55025)" gradientUnits="userSpaceOnUse" x1="409.57144" x2="409.57144" y1="540.79797" y2="506.798"><stop offset="0" stop-color="#3d434a"/><stop offset="1" stop-color="#5f6974"/></linearGradient><linearGradient id="d" gradientUnits="userSpaceOnUse" x1="387.249377610006" x2="406.340130055591" y1="512.002054720118" y2="512.002054720118"><stop offset="0" stop-color="#87de87"/><stop offset="1" stop-color="#d4ff2a"/></linearGradient><g transform="matrix(1.130504271225 0 0 1.130504271225 -436.287085952083 -568.50384479003)"><path d="m406.34012 505.42406c-8.90995.36495-9.40464 1.2275-10.49095 1.87643-2.51557 1.50273-3.18833.0109-2.03387-1.44909-1.11449.11472-2.27553 2.20057-2.14658 3.44332.12195 1.17519-.29479 2.30526-.9425 1.90388-1.07354-.66527-3.35733-.26701-3.47683 1.39902.77829-.40724 2.18936-.62589 1.98329.67089-.17081 1.0748-.38389 3.41288 1.58088 4.7301 1.96475 1.31722 9.58777-.0155 9.58777-.0155z" fill="url(#d)" fill-rule="evenodd"/><path d="m407.50587 504.6455c-10.78088 0-19.4603 8.67931-19.4603 19.4603s8.67942 19.4603 19.4603 19.4603c10.78089 0 19.46032-8.67931 19.46032-19.4603s-8.67943-19.4603-19.46032-19.4603zm0 17.21488c1.24406 0 2.2456 1.00146 2.2456 2.24542s-1.00154 2.24542-2.2456 2.24542c-1.24405 0-2.24558-1.00146-2.24558-2.24542s1.00153-2.24542 2.24558-2.24542z" fill="url(#b)"/><path d="m407.50587 517.36954c-3.73217 0-6.73676 3.00437-6.73676 6.73626s3.00459 6.73626 6.73676 6.73626 6.73677-3.00437 6.73677-6.73626-3.0046-6.73626-6.73677-6.73626zm0 4.49084c1.24406 0 2.2456 1.00146 2.2456 2.24542s-1.00154 2.24542-2.2456 2.24542c-1.24405 0-2.24558-1.00146-2.24558-2.24542s1.00153-2.24542 2.24558-2.24542z" fill="url(#c)"/><path d="m407.50587 518.11801a5.9882366 5.9877869 0 0 0 -5.98823 5.98779 5.9882366 5.9877869 0 0 0 5.98823 5.98779 5.9882366 5.9877869 0 0 0 5.98824-5.98779 5.9882366 5.9877869 0 0 0 -5.98824-5.98779zm0 .74848a5.239707 5.2393135 0 0 1 5.23971 5.23931 5.239707 5.2393135 0 0 1 -5.23971 5.23932 5.239707 5.2393135 0 0 1 -5.2397-5.23932 5.239707 5.2393135 0 0 1 5.2397-5.23931z" fill="#9da9b5" stroke-linecap="round"/><path d="m415.73487 506.33775c.60974.56172 1.39991 1.37188 1.88869 2.24736.8521 1.52623.73037 4.18184-1.88678 4.67023-2.61722.48839-2.71722-.40577-2.70846-1.46517-1.39128.19211-2.01349 3.28546.42605 4.36499 2.06939.91573 2.83018.54944 6.72547.30525 3.89529-.2442 4.35177 4.51761 2.52586 5.25019-1.82592.73259-2.52313-.57326-2.40411-1.28203-1.46347.57326-1.64213 2.17258-.91297 2.93034 5.6938 5.91732 2.963 10.48966 1.39986 10.95827-1.93696.58067-3.30246-.5704-2.31282-2.10618.80645-1.25151.11044-3.31546-.86923-4.0464-.97965-.73097-2.88202-.5562-3.69558-.0133 1.17265.44468 2.89105 1.1294 2.43456 2.65561-.3525 1.17859-1.5074 1.92084-2.9519 1.89251-2.70384-1.20595-4.23872-4.91031-2.538-6.11463-2.14325.0413-2.39097 4.19016-1.57468 5.99945.64629 1.43252 2.536 2.5402 1.56942 4.20545-1.01382 1.74666-1.71723 2.68615-4.15179 2.19776s-3.77356-2.04513-3.46924-3.47979c.30432-1.43464 1.01511-1.62613 2.25197-1.64831-.77167-1.63995-3.3696-.96213-5.22127 1.19044-.8501.98825-1.28923.87745-2.72148.0611-1.90431-1.08531 1.4251-4.11899 2.56065-2.35037.0871-2.07277-3.10842-1.06836-3.56491-3.3577-.45648-2.28932 1.97679-2.97162 1.97679-2.97162-2.88434.75731-4.31259 1.77462-7.26334.89302-1.04759-.31299.16646-3.17039-3.20207-2.18717.56897 10.30326 9.02497 18.42909 19.44414 18.42909 10.78995 0 19.47648-8.71289 19.47648-19.53561 0-7.85888-4.59126-14.58704-11.23131-17.69268z" fill="url(#a)" fill-rule="evenodd"/></g></svg>