<svg height="48" width="48" xmlns="http://www.w3.org/2000/svg" xmlns:xlink="http://www.w3.org/1999/xlink"><linearGradient id="a" gradientUnits="userSpaceOnUse" x1="399.57144" x2="399.57144" y1="545.79797" y2="517.79797"><stop offset="0" stop-color="#3889e9"/><stop offset="1" stop-color="#5ea5fb"/></linearGradient><linearGradient id="b" gradientUnits="userSpaceOnUse" x1="400.5119" x2="400.69922" y1="546.07446" y2="517.77289"><stop offset="0" stop-color="#e02d2d"/><stop offset="1" stop-color="#f75151"/></linearGradient><g transform="matrix(1.406155136175 0 0 1.406155136175 -539.359082899594 -723.85446956781)"><circle cx="400.57138" cy="531.79791" fill="url(#a)" r="0"/><g transform="matrix(1.117536624128 0 0 1.117536624128 -47.015292188816 -62.460177851153)"><circle cx="400.57138" cy="531.79791" fill="url(#b)" r="13.999958"/><circle cx="400.57144" cy="531.79797" fill="none" r="13.999958"/></g></g><path d="m412.38917 537.3326c-.40104-.40373-1.05169-.40373-1.45321 0l-4.05675 4.4969-4.05677-4.4969c-.40151-.40373-1.05168-.40373-1.45319 0-.40152.40373-.40152 1.05767 0 1.4614l4.71901 5.23147c.21722.21815.5065.31434.79095.29636.28395.018.57373-.0783.79093-.29636l4.71903-5.23147c.40102-.40373.40102-1.05767 0-1.4614zm-5.51601-4.35143c.93509 0 1.69313-.76131 1.69313-1.70042 0-.93912-.75804-1.70043-1.69313-1.70043s-1.69314.76131-1.69314 1.70043c0 .93911.75805 1.70042 1.69314 1.70042zm0 4.85836c.93509 0 1.69313-.76131 1.69313-1.70043s-.75804-1.70042-1.69313-1.70042-1.69314.7613-1.69314 1.70042.75805 1.70043 1.69314 1.70043z" fill="#fff" fill-opacity=".850807" transform="matrix(-1.728319327835 -.00366856536 .003657258001 -1.722992251778 725.249022455473 950.65711816327)"/></svg>