<?xml version="1.0" encoding="UTF-8" standalone="no"?>
<svg
   xmlns:dc="http://purl.org/dc/elements/1.1/"
   xmlns:cc="http://creativecommons.org/ns#"
   xmlns:rdf="http://www.w3.org/1999/02/22-rdf-syntax-ns#"
   xmlns:svg="http://www.w3.org/2000/svg"
   xmlns="http://www.w3.org/2000/svg"
   xmlns:sodipodi="http://sodipodi.sourceforge.net/DTD/sodipodi-0.dtd"
   xmlns:inkscape="http://www.inkscape.org/namespaces/inkscape"
   viewBox="0 0 48 48"
   version="1.1"
   id="svg4305"
   sodipodi:docname="aim.svg"
   inkscape:version="0.92+devel unknown">
  <metadata
     id="metadata4311">
    <rdf:RDF>
      <cc:Work
         rdf:about="">
        <dc:format>image/svg+xml</dc:format>
        <dc:type
           rdf:resource="http://purl.org/dc/dcmitype/StillImage" />
      </cc:Work>
    </rdf:RDF>
  </metadata>
  <defs
     id="defs4309" />
  <sodipodi:namedview
     pagecolor="#ffffff"
     bordercolor="#666666"
     inkscape:document-rotation="0"
     borderopacity="1"
     objecttolerance="10"
     gridtolerance="10"
     guidetolerance="10"
     inkscape:pageopacity="0"
     inkscape:pageshadow="2"
     inkscape:window-width="640"
     inkscape:window-height="480"
     id="namedview4307"
     showgrid="false"
     inkscape:zoom="6.0833333"
     inkscape:cx="24"
     inkscape:cy="24"
     inkscape:current-layer="svg4305" />
  <linearGradient
     id="a"
     gradientUnits="userSpaceOnUse"
     x1="399.57144"
     x2="399.57144"
     y1="545.79797"
     y2="517.79797"
     gradientTransform="matrix(1.501011,0,0,1.501011,-588.86335,-776.1394)">
    <stop
       offset="0"
       stop-color="#3889e9"
       id="stop4289" />
    <stop
       offset="1"
       stop-color="#5ea5fb"
       id="stop4291" />
  </linearGradient>
  <linearGradient
     id="b"
     gradientUnits="userSpaceOnUse"
     x1="-332.32077"
     x2="-318.62283"
     y1="663.40253"
     y2="236.93983"
     gradientTransform="matrix(0.12683989,0,0,0.12683989,65.335514,-36.724178)">
    <stop
       offset="0"
       stop-color="#00aad4"
       id="stop4294" />
    <stop
       offset="1"
       stop-color="#0cf"
       id="stop4296" />
  </linearGradient>
  <circle
     cx="12.39871"
     cy="22.095125"
     fill="url(#a)"
     r="0"
     id="circle4299"
     style="fill:url(#a);stroke-width:1.50101101" />
  <circle
     cx="24"
     cy="24"
     fill="url(#b)"
     r="22"
     id="circle4301"
     style="fill:url(#b);stroke-width:0.12683989" />
  <path
     d="m 11.114395,30.936505 c 0.33494,-0.170876 0.870285,-0.579935 1.189656,-0.90903 0.319371,-0.329089 0.655273,-0.598346 0.746444,-0.598346 0.09117,0 0.304055,0.271075 0.473079,0.602391 0.499638,0.979368 1.172804,1.261398 2.375412,0.995208 0.442849,-0.09802 1.404479,-0.975272 1.404479,-1.281237 0,-0.06962 -0.265863,-0.169087 -0.590815,-0.221048 -0.401924,-0.06427 -0.716031,-0.243291 -0.982475,-0.559941 -0.514839,-0.611856 -0.518509,-1.553048 -0.01341,-3.438402 0.207619,-0.774977 0.377494,-1.566363 0.377494,-1.758637 0,-0.432763 -0.593208,-0.844767 -1.36544,-0.948344 -0.665025,-0.0892 -0.584964,-0.253498 -1.121827,2.302226 -0.427833,2.036691 -0.791835,2.710571 -1.87555,3.472233 -0.549153,0.385964 -0.792951,0.457677 -1.555919,0.457677 -0.8657689,0 -0.9298526,-0.02693 -1.4880792,-0.625383 -0.3374031,-0.361712 -0.6585235,-0.903391 -0.7616569,-1.284781 -0.245472,-0.907775 -0.1111827,-2.621004 0.2734402,-3.48851 0.4683955,-1.056455 1.5422202,-2.122144 2.6449219,-2.6249 0.841581,-0.383696 1.103916,-0.428661 2.453828,-0.420571 1.696756,0.01018 2.527675,0.244718 3.429772,0.96816 0.306851,0.246087 0.591689,0.392764 0.632983,0.325959 0.12338,-0.199633 -0.20354,-1.42197 -0.515167,-1.926193 -0.653707,-1.057726 -2.751922,-1.679962 -4.798428,-1.422994 -3.8864936,0.488004 -6.3862925,3.503573 -6.3804641,7.696901 0.00345,2.624934 0.9109055,4.331425 2.6433342,4.971911 0.6311996,0.233355 2.0769319,0.08676 2.8043839,-0.284349 z m 10.713207,0.158259 c 0.618069,-0.177263 1.370733,-0.858392 1.370733,-1.240461 0,-0.203378 -0.116286,-0.274021 -0.451071,-0.274021 -0.283031,0 -0.631809,-0.161498 -0.936256,-0.433523 -0.432297,-0.386257 -0.491617,-0.538664 -0.544159,-1.398138 -0.04873,-0.797514 0.07751,-1.488326 0.728833,-3.987636 1.08528,-4.164491 1.057099,-3.85509 0.350694,-3.850729 -0.777537,0.0046 -1.736169,0.235328 -1.868416,0.449305 -0.144795,0.234287 -1.186865,5.561633 -1.345366,6.877886 -0.241122,2.0024 0.16235,3.379744 1.111108,3.793009 0.560103,0.243964 0.908179,0.258101 1.5839,0.06431 z m 19.514029,-0.191917 c 0.636499,-0.321213 1.124831,-0.932597 0.959092,-1.200767 -0.04143,-0.06699 -0.312415,-0.121798 -0.602253,-0.121798 -0.36391,0 -0.646746,-0.119773 -0.914041,-0.387063 -0.361183,-0.361182 -0.38204,-0.459719 -0.31203,-1.473717 0.04125,-0.597662 0.224949,-1.76683 0.408184,-2.598157 0.388259,-1.761519 0.347058,-2.905618 -0.140952,-3.913702 -0.77241,-1.595585 -2.870297,-1.52878 -4.682626,0.149122 -0.481093,0.445404 -0.921699,0.762848 -0.979126,0.705421 -0.05742,-0.05742 -0.232532,-0.394053 -0.389128,-0.748067 -0.737831,-1.667983 -3.025736,-1.678218 -4.744845,-0.02123 -0.742106,0.7153 -1.153006,0.839751 -1.153006,0.349221 0,-0.440818 -0.454518,-1.123656 -0.901958,-1.355032 -1.148271,-0.593795 -3.027653,0.02503 -3.203253,1.054774 -0.04407,0.258303 0.05431,0.313831 0.68533,0.386913 1.448327,0.167735 1.507894,0.649968 0.654812,5.301225 -0.37162,2.026151 -0.62578,3.73843 -0.564814,3.805063 0.06097,0.06664 0.546057,0.100648 1.077978,0.07558 l 0.967124,-0.04557 0.17231,-0.755748 c 0.09476,-0.415664 0.318001,-1.528797 0.496076,-2.473626 0.742733,-3.94075 2.216048,-6.072381 3.662137,-5.298458 0.418845,0.224161 0.73313,1.04378 0.732451,1.910147 -3.16e-4,0.397551 -0.238124,1.981145 -0.528457,3.519102 -0.290339,1.537957 -0.528147,2.884284 -0.528458,2.991842 -4.6e-4,0.146084 0.275892,0.184322 1.09207,0.151153 l 1.092639,-0.04442 0.410526,-2.245288 c 0.477313,-2.610596 0.981346,-4.21583 1.651786,-5.260628 1.070683,-1.668506 2.681687,-1.559136 3.018222,0.204909 0.126418,0.662661 0.0225,1.615458 -0.384255,3.52225 -0.397885,1.865331 -0.24248,3.107276 0.466163,3.725363 0.585591,0.510765 1.578606,0.547243 2.482302,0.09118 z M 23.392128,17.584682 c 1.107933,-0.468936 1.441285,-1.635101 0.659606,-2.307474 -0.725185,-0.623777 -2.395458,-0.39296 -2.813877,0.388858 -0.273371,0.510799 -0.185031,1.289286 0.18446,1.625441 0.59215,0.538733 1.182166,0.62655 1.969811,0.293175 z"
     fill="#f3f3f3"
     id="path4303"
     inkscape:connector-curvature="0"
     style="stroke-width:0.57536083" />
</svg>
