<svg height="48" viewBox="0 0 48 48.000001" width="48" xmlns="http://www.w3.org/2000/svg" xmlns:xlink="http://www.w3.org/1999/xlink"><linearGradient id="a" gradientUnits="userSpaceOnUse" x1="29.34741" x2="30.05737" y1="1028.58351" y2="1007.40858"><stop offset="0" stop-color="#85cfd6"/><stop offset="1" stop-color="#daedff"/></linearGradient><linearGradient gradientUnits="userSpaceOnUse" x1="0" x2="47" y1="23.5" y2="23.5"><stop offset="0" stop-color="#a9a3d4"/><stop offset=".47001833" stop-color="#87baff"/><stop offset="1" stop-color="#89ec85"/></linearGradient><clipPath id="b"><circle cx="286" cy="26" r="10"/></clipPath><linearGradient id="c" gradientUnits="userSpaceOnUse" x1="24.616354551361" x2="25.285237201896" y1="1051.876850536162" y2="1019.767845046081"><stop offset="0" stop-color="#587ea7"/><stop offset="1" stop-color="#7db2eb"/></linearGradient><linearGradient id="d" gradientUnits="userSpaceOnUse" x1="26.878180808983" x2="2.657287389312" y1="1051.822841962337" y2="1002.694929970412"><stop offset="0" stop-color="#79a4cb"/><stop offset="1" stop-color="#98ceff"/></linearGradient><circle clip-path="url(#b)" cx="286" cy="26" opacity="0" r="10" stroke-width=".45455" transform="matrix(2 0 0 2 -604.90584 -28.884)"/><circle clip-path="url(#b)" cx="286" cy="26" opacity="0" r="10" stroke-width=".90909" transform="matrix(2 0 0 2 -604.90584 -28.884)"/><g transform="matrix(.96610092 0 0 .96610092 .286565 -969.939835)"><circle cx="24.000002" cy="1028.3622" fill="url(#a)" r="20.000006" transform="matrix(1.167803299383 0 0 1.167803299383 -3.12687367997 -172.480789294329)"/><path d="m35.370129 1047.4336c-11.323052 6.5381-25.803648 2.6578-32.340539-8.6652-6.538137-11.3243-2.658369-25.8037 8.665181-32.3418 13.342933-.061 21.814973 28.7705 23.675358 41.007z" fill="url(#d)"/><path d="m49.537718 1027.6486c0 13.6917-11.100282 24.792-24.791987 24.792-13.691706 0-24.791995-11.1003-24.791995-24.792 6.930407-12.1323 37.512899-4.7193 49.583982 0z" fill="url(#c)"/></g></svg>