<svg height="48" width="48" xmlns="http://www.w3.org/2000/svg" xmlns:xlink="http://www.w3.org/1999/xlink"><linearGradient id="a" gradientUnits="userSpaceOnUse" x1="408.578025298802" x2="408.615429692001" y1="545.205546707717" y2="502.340995401273"><stop offset="0" stop-color="#216ea2"/><stop offset="1" stop-color="#2d95d9"/></linearGradient><g transform="translate(-384.57143 -499.798)"><path d="m408.57143 501.79801c-12.15027 0-22 9.84973-22 21.99998 0 12.15028 9.84973 22 22 22 12.15026 0 22-9.84972 22-22 0-12.15025-9.84974-21.99998-22-21.99998z" fill="url(#a)"/><g fill="#fff" fill-opacity=".849624" transform="matrix(.13885659627 0 0 .13885659627 380.848216101823 493.116526149172)"><path d="m120.31878 192.70649h59.117c-1.666 10.675-7.326 22.046-16.84 33.827-6.064-9.714-9.964-19.135-12.188-25.408-.562-1.583-2.058-2.641-3.736-2.641h-9.728c-1.264 0-2.453.603-3.2 1.623-.746 1.021-.961 2.335-.579 3.542 2.305 7.258 7.614 21.507 17.429 35.986-11.594 11.271-23.143 19.394-27.611 22.387-1.778 1.192-2.289 3.581-1.153 5.396l4.882 7.808c.565.903 1.473 1.542 2.515 1.771.28.063.564.093.846.093.769 0 1.527-.224 2.178-.651 4.601-3.024 16.538-11.28 29.038-23.255 4.625 4.82 15.499 13.268 21.942 17.954.983.715 2.242.938 3.415.607 1.172-.334 2.124-1.188 2.586-2.312l3.642-8.903c.732-1.789.065-3.85-1.579-4.867-4.198-2.604-12.101-7.952-18.552-14.902 14.163-16.575 22.24-32.734 24.018-48.049h3.121c2.189 0 3.964-1.775 3.964-3.965v-10.567c0-2.189-1.774-3.964-3.964-3.964h-30.872v-5.426c0-2.19-1.774-3.965-3.964-3.965h-9.89c-2.189 0-3.964 1.774-3.964 3.965v5.426h-30.872c-2.189 0-3.964 1.774-3.964 3.964v10.567c-.001 2.184 1.774 3.959 3.963 3.959z" fill="#fff" fill-opacity=".85"/><path d="m256.10311 180.09731c-.516-1.66-2.049-2.791-3.787-2.791h-22.026c-1.743 0-3.281 1.139-3.791 2.805l-26.318 86.05c-.369 1.202-.145 2.508.604 3.521.748 1.009 1.93 1.604 3.188 1.604h13.664c1.779 0 3.342-1.188 3.819-2.901l5.9-21.229h26.923l6.389 21.307c.502 1.678 2.047 2.825 3.797 2.825h14.523c1.262 0 2.444-.599 3.19-1.61.748-1.015.969-2.323.594-3.526zm-25.697 51.186 9.917-38.067h.27l10.604 38.067z" fill="#fff" fill-opacity=".85"/></g></g></svg>