<svg viewBox="0 0 48 48" xmlns="http://www.w3.org/2000/svg" xmlns:xlink="http://www.w3.org/1999/xlink"><linearGradient id="a" gradientTransform="matrix(.9997764 0 0 .9863347 -.832882 5.995869)" gradientUnits="userSpaceOnUse" x1="-989.66583" x2="-1003.6364" y1="433.28394" y2="317.35452"><stop offset="0" stop-color="#1584d8"/><stop offset="1" stop-color="#1cb2ff"/></linearGradient><linearGradient id="b" gradientTransform="matrix(.99833895 0 0 .98513314 -2.169195 6.701717)" gradientUnits="userSpaceOnUse" x1="-1092.9117" x2="-1060.2551" y1="203.09911" y2="104.85291"><stop offset="0" stop-color="#f2b333"/><stop offset="1" stop-color="#fcde3f"/></linearGradient><g transform="translate(-384.89745 -499.8503)"><text x="300.29187" y="516.21832"><tspan x="300.29187" y="516.21832"/></text><rect fill="url(#b)" height="112.93296" ry="2.756285" transform="matrix(.337970107118 -.112142707714 .109393315233 .338870005937 744.854826091344 346.340728859107)" width="89.616432" x="-1100.9037" y="117.57415"/><rect fill="url(#a)" height="121.23898" ry="2.959004" transform="matrix(.353278022467 -.044658898987 .049073619097 .352691874194 744.854826091344 346.340728859107)" width="99.802742" x="-1046.2986" y="317.97363"/><path d="m462.5 96.193-21.726-21.726c-8.951-8.95-23.562-8.95-32.59 0l-227.816 227.894-119.34-119.34c-8.95-8.951-23.562-8.951-32.589 0l-21.727 21.726c-8.95 8.951-8.95 23.562 0 32.589l157.285 157.284c4.514 4.514 10.327 6.809 16.218 6.809s11.781-2.295 16.219-6.809l265.836-265.837c9.18-9.103 9.18-23.638.23-32.59z" fill="#fff" opacity=".7" transform="matrix(.045662159305 -.007451514749 .007451514749 .045662159305 399.220666794591 515.530628807351)"/></g></svg>