<svg height="32" viewBox="0 0 32 32" width="32" xmlns="http://www.w3.org/2000/svg" xmlns:xlink="http://www.w3.org/1999/xlink"><linearGradient id="a" gradientUnits="userSpaceOnUse" x1="403.663336673388" x2="402.652281561828" y1="545.752860105945" y2="517.443019488117"><stop offset="0" stop-color="#d3d3d3"/><stop offset="1" stop-color="#fcf9f9"/></linearGradient><linearGradient id="b" gradientUnits="userSpaceOnUse" x1="12.612972" x2="11.598239" y1="24.015118" y2="-.699872"><stop offset="0" stop-color="#00cafe"/><stop offset="1" stop-color="#1460f3"/></linearGradient><g transform="matrix(1.0508504 0 0 1.0508504 -404.951596 -542.701903)"><circle cx="400.61902" cy="531.72919" fill="url(#a)" r="14.874661"/><path d="m23.091 18.561c-.37.644-1.042 1-1.734 1-.339 0-.683-.086-.998-.268l-5.982-3.455v6.91c0 1.104-.896 2-2 2s-2-.896-2-2v-6.911l-5.985 3.456c-.315.182-.659.268-.998.268-.691 0-1.364-.356-1.734-1-.552-.957-.225-2.18.732-2.73l5.983-3.456-5.985-3.456c-.957-.553-1.284-1.774-.732-2.731s1.776-1.285 2.732-.732l5.984 3.455v-6.911c0-1.104.896-2 2-2s2 .896 2 2v6.91l5.982-3.455c.956-.553 2.183-.225 2.732.732.552.957.225 2.18-.732 2.731l-5.981 3.456 5.982 3.455c.957.552 1.286 1.775.734 2.732z" fill="url(#b)" transform="matrix(.73500624 0 0 .73500624 391.57923 523.07826)"/></g></svg>