<svg height="48" width="48" xmlns="http://www.w3.org/2000/svg" xmlns:xlink="http://www.w3.org/1999/xlink"><linearGradient id="a" gradientUnits="userSpaceOnUse" x1="409.537251898256" x2="409.537251898256" y1="544.227537992278" y2="502.9836729252"><stop offset="0" stop-color="#0a80fd"/><stop offset="1" stop-color="#56c5fa"/></linearGradient><g transform="matrix(1.1638089 0 0 1.1638089 -451.386094 -585.261857)"><rect fill="url(#a)" height="41.243866" ry="20.621933" width="41.243885" x="387.88422" y="502.98367"/><path d="m412.38917 537.3326c-.40104-.40373-1.05169-.40373-1.45321 0l-4.05675 4.4969-4.05677-4.4969c-.40151-.40373-1.05168-.40373-1.45319 0-.40152.40373-.40152 1.05767 0 1.4614l4.71901 5.23147c.21722.21815.5065.31434.79095.29636.28395.018.57373-.0783.79093-.29636l4.71903-5.23147c.40102-.40373.40102-1.05767 0-1.4614zm-5.51601-4.35143c.93509 0 1.69313-.76131 1.69313-1.70042 0-.93912-.75804-1.70043-1.69313-1.70043s-1.69314.76131-1.69314 1.70043c0 .93911.75805 1.70042 1.69314 1.70042zm0 4.85836c.93509 0 1.69313-.76131 1.69313-1.70043s-.75804-1.70042-1.69313-1.70042-1.69314.7613-1.69314 1.70042.75805 1.70043 1.69314 1.70043z" fill="#fff" fill-opacity=".850807" transform="matrix(-1.552556706409 .003295488085 .003285330636 1.547771371011 1038.237218014651 -308.569663507818)"/></g></svg>