<svg viewBox="0 0 48 48" xmlns="http://www.w3.org/2000/svg" xmlns:xlink="http://www.w3.org/1999/xlink"><linearGradient id="a" gradientTransform="matrix(1.0309825 0 0 1 -.512598 0)" gradientUnits="userSpaceOnUse" x1="17" x2="17" y1="1036.3622" y2="1012.3622"><stop offset="0" stop-color="#759cd7"/><stop offset="1" stop-color="#96beff"/></linearGradient><linearGradient id="b" gradientTransform="matrix(.68964436 0 0 1 10.82717 0)" gradientUnits="userSpaceOnUse" x1="33.461716" x2="34.116894" y1="1013.622" y2="1037.2084"><stop offset="0" stop-color="#f6fbff"/><stop offset="1" stop-color="#eaeff2"/></linearGradient><linearGradient id="c" gradientUnits="userSpaceOnUse" x1="27.800341" x2="27.800341" y1="1037.3622" y2="1011.3622"><stop offset="0" stop-color="#739bd7"/><stop offset="1" stop-color="#82a5dc"/></linearGradient><linearGradient id="d" gradientUnits="userSpaceOnUse" x1="25.177879" x2="26.183626" y1="58.290043" y2="-1.714199"><stop offset="0" stop-color="#e5e5e6"/><stop offset="1" stop-color="#f6f6f7"/></linearGradient><g fill-rule="evenodd" transform="matrix(1.759272948536 0 0 1.759272948536 -15.374578467384 -1778.904793988475)"><path d="m11.563303 1036.9442h11.636697l-.000321-24.4983-11.533282.0003c-1.268259-.094-1.782566.023-1.782566 1.1721v22.0916c-.07966 1.261.446208 1.2343 1.679472 1.2343z" fill="url(#a)"/><path d="m33.959911 1036.9362h-7.990815v-24.498h7.990815c.848365-.094.916631.023.916631 1.1721v22.0916c.05328 1.261-.09168 1.2343-.916631 1.2343z" fill="url(#b)"/><path d="m31.957586 1038.1035-10.029586-1.1715-.00002-24.4861 9.945926-.9324c1.230149-.094 1.296492.2446 1.296492 1.3937l-.08368 23.3688c.07726 1.261.06707 1.8275-1.129132 1.8275z" fill="url(#c)"/></g><path d="m47 14.955v-12.819c0-1.18-.957-2.136-2.137-2.136h-12.817c-1.181 0-2.137.957-2.137 2.136v5.341c-10.436 0-19.204 7.173-21.698 16.841l-2.221-.391c-.399-.069-.803.091-1.044.416-.24.325-.278.759-.095 1.12l2.314 4.569c-4.056.661-7.165 4.181-7.165 8.423 0 4.712 3.834 8.545 8.546 8.545 4.35 0 7.942-3.27 8.471-7.477h7.551v2.136c0 .405.229.774.591.956.362.18.795.142 1.12-.102l3.734-2.802c.61 4.116 4.158 7.288 8.44 7.288 4.713.001 8.547-3.832 8.547-8.544 0-4.35-3.27-7.943-7.479-8.471v-7.552h2.138c.403 0 .774-.229.954-.59.182-.361.144-.795-.1-1.119l-2.725-3.631h5.072c1.183-.001 2.14-.958 2.14-2.137zm-12.705 6.886c.182.362.551.59.955.59h2.137v7.551c-3.794.478-6.814 3.447-7.373 7.215l-3.736-2.803c-.323-.242-.756-.28-1.118-.101-.361.183-.591.551-.591.956v2.136h-7.551c-.484-3.862-3.553-6.927-7.418-7.405.003-.024.015-.045.015-.071v-.011l3.233-3.027c.295-.276.408-.696.294-1.084-.117-.389-.44-.678-.839-.748l-1.983-.35c2.312-8.665 10.206-15.076 19.59-15.076v5.341c0 1.18.956 2.136 2.137 2.136h5.073l-2.724 3.632c-.244.324-.283.757-.101 1.119z" fill="url(#d)" transform="matrix(.600528016326 0 0 .600528016326 8.082736702494 10.336819235526)"/></svg>