<svg height="48" width="48" xmlns="http://www.w3.org/2000/svg" xmlns:xlink="http://www.w3.org/1999/xlink"><linearGradient id="a" gradientUnits="userSpaceOnUse" x1="423.610718341685" x2="422.88237847784" xlink:href="#b" y1="578.005212584455" y2="530.415892923715"/><linearGradient id="b"><stop offset="0" stop-color="#c52828"/><stop offset="1" stop-color="#ff5454"/></linearGradient><linearGradient id="c" gradientUnits="userSpaceOnUse" x1="11" x2="11.325557" xlink:href="#b" y1="1030.9364" y2="1056.204"/><g fill="#fff" fill-opacity=".854839" transform="matrix(.248537059565 -.000000000325 .000000000325 .248537059565 -66.616602303774 -130.794604675482)"><circle cx="423.5881" cy="555.00751" fill="url(#a)" fill-opacity="1" fill-rule="evenodd" r="25.426903" transform="matrix(3.797752316329 0 0 3.797752316329 -1244.08274197169 -1484.95801449654)"/><g fill="#fff" fill-opacity=".854839" transform="matrix(6.080301999922 0 0 -6.080301999922 297.716641796705 6955.604401672546)"><g fill="#fff" fill-opacity=".846774"><path d="m15.23738 1042.68-3.83112-2.5636-.001-3.8899c-.00072-2.1395.009-3.89.0216-3.89s1.74233 1.1499 3.84379 2.5554l3.82086 2.5554v3.9013c0 2.1457-.005 3.8998-.0114 3.8981-.006 0-1.73538-1.1567-3.84249-2.5667l0 0z" opacity=".986928"/><path d="m2.88716 1041.4547v-3.9588l3.83636-2.5485c2.11-1.4016 3.84674-2.5484 3.85941-2.5484.0127 0 .023 1.7794.023 3.9542v3.9541l-3.8338 2.5531c-2.10859 1.4042-3.84533 2.5531-3.85941 2.5531-.0141 0-.0256-1.7814-.0256-3.9588z" opacity=".986928"/><path d="m7.22799 1048.6112c-2.0558-1.3745-3.75576-2.5165-3.77768-2.5376-.0443-.043 7.52487-5.1494 7.6396-5.1541.0843 0 7.52589 4.9761 7.51086 5.0259-.007.023-6.96912 4.7334-7.60913 5.1482-.0142.01-1.70785-1.1079-3.76365-2.4824z" opacity=".986928"/></g><path d="m10.21875 1031.4244-8.21875 5.4687v1.2188 7.5937.4063c1.1488174.7517.2220883.1443.75.5l7.34375 4.9062c.895352.5962.008 0 .90625.5938 8.023311-5.3242 6.053774-4.0138 8.375-5.5625.631611-.4616.117188-.095.625-.4688v-.3437-.031-7.5937-1.2188c-2.323802-1.5467-.339912-.2266-.5625-.375l-7.65625-5.0937-.40625-.25c-.282764-.182 1.223373.7908-.375-.2383-.741504.4706-.0066 0-.78125.4883zm.28125 1.0312v7.75l-.0625.094-.21875.125-7.21875 4.8123v-7.7813zm1 0 7.5 5v7.625l-7.5-5zm-.375 8.5938 7.3125 4.875-7.4375 4.9687-7.34375-4.875 7.125-4.75z" fill="url(#c)" fill-opacity="1" opacity=".986928"/></g></g></svg>