<svg height="48" width="48" xmlns="http://www.w3.org/2000/svg" xmlns:xlink="http://www.w3.org/1999/xlink"><linearGradient id="a"><stop offset="0" stop-color="#ccc"/><stop offset="1" stop-color="#fff"/></linearGradient><linearGradient id="b"><stop offset="0" stop-color="#00a199"/><stop offset="1" stop-color="#00f89a" stop-opacity=".988235"/></linearGradient><linearGradient id="c" gradientUnits="userSpaceOnUse" x1="409.516479820376" x2="409.516479820376" xlink:href="#b" y1="547.2860358444" y2="500.519498965674"/><linearGradient id="d" gradientUnits="userSpaceOnUse" x1="409.699655360172" x2="409.699655360172" xlink:href="#a" y1="548.3108838118" y2="499.231963256053"/><linearGradient id="e" gradientUnits="userSpaceOnUse" x1="409.55754494262" x2="409.55754494262" xlink:href="#b" y1="548.307177203" y2="499.507414336505"/><linearGradient id="f" gradientUnits="userSpaceOnUse" x1="6.7750994729" x2="41.058132453699" xlink:href="#a" y1="24.388875434713" y2="24.388875434713"/><g transform="translate(-384.57143 -499.798)"><text opacity=".8" x="1202.6191" y="509.15475"><tspan x="1202.6191" y="509.15475"/></text><text opacity=".8" x="1226.5801" y="468.41306"><tspan x="1226.5801" y="468.41306"/></text><text opacity=".8" x="-243.97829" y="438.3349"><tspan x="-243.97829" y="438.3349"/></text><text opacity=".8" x="-2067.6643" y="1183.8884"><tspan x="-2067.6643" y="1183.8884"/></text><text opacity=".8" x="-129.4872" y="53.013943"><tspan x="-129.4872" y="53.013943"/></text><text opacity=".8" x="678.11493" y="-360.45621"><tspan x="678.11493" y="-360.45621"/></text><text opacity=".8" x="702.07587" y="-401.19788"><tspan x="702.07587" y="-401.19788"/></text><text opacity=".8" x="-789.38727" y="-408.40778"><tspan x="-789.38727" y="-408.40778"/></text><text opacity=".8" x="671.15546" y="-681.64197"><tspan x="671.15546" y="-681.64197"/></text><text opacity=".8" x="2157.2788" y="-54.950565"><tspan x="2157.2788" y="-54.950565"/></text><text opacity=".8" x="2181.2397" y="-95.692329"><tspan x="2181.2397" y="-95.692329"/></text><text opacity=".8" x="689.77661" y="-102.90223"><tspan x="689.77661" y="-102.90223"/></text><text opacity=".8" x="2150.3196" y="-376.13623"><tspan x="2150.3196" y="-376.13623"/></text><text opacity=".8" x="-248.03969" y="-150.99353"><tspan x="-248.03969" y="-150.99353"/></text><text opacity=".8" x="-2071.7253" y="594.56"><tspan x="-2071.7253" y="594.56"/></text><text opacity=".8" x="-356.96991" y="687.43213"><tspan x="-356.96991" y="687.43213"/></text><text opacity=".8" x="752.05438" y="508.25003"><tspan x="752.05438" y="508.25003"/></text><text opacity=".8" x="776.01532" y="467.5083"><tspan x="776.01532" y="467.5083"/></text><text opacity=".8" x="-715.44781" y="460.29831"><tspan x="-715.44781" y="460.29831"/></text><text opacity=".8" x="745.09491" y="187.06427"><tspan x="745.09491" y="187.06427"/></text><text opacity=".8" x="-282.63968" y="457.58408"><tspan x="-282.63968" y="457.58408"/></text><text opacity=".8" x="-2106.3257" y="1203.1376"><tspan x="-2106.3257" y="1203.1376"/></text><text opacity=".8" x="-131.54662" y="-403.94641"><tspan x="-131.54662" y="-403.94641"/></text><text opacity=".8" x="676.05554" y="-817.41663"><tspan x="676.05554" y="-817.41663"/></text><text opacity=".8" x="700.01642" y="-858.15833"><tspan x="700.01642" y="-858.15833"/></text><text opacity=".8" x="-791.44672" y="-865.36829"><tspan x="-791.44672" y="-865.36829"/></text><text opacity=".8" x="669.09601" y="-1138.6024"><tspan x="669.09601" y="-1138.6024"/></text><text opacity=".8" x="2155.2195" y="-511.91116"><tspan x="2155.2195" y="-511.91116"/></text><text opacity=".8" x="2179.1802" y="-552.65271"><tspan x="2179.1802" y="-552.65271"/></text><text opacity=".8" x="687.71716" y="-559.86267"><tspan x="687.71716" y="-559.86267"/></text><text opacity=".8" x="2148.26" y="-833.0968"><tspan x="2148.26" y="-833.0968"/></text><text opacity=".8" x="-250.09914" y="-607.95398"><tspan x="-250.09914" y="-607.95398"/></text><text opacity=".8" x="-2073.7849" y="137.59953"><tspan x="-2073.7849" y="137.59953"/></text><text opacity=".8" x="-359.02936" y="230.47168"><tspan x="-359.02936" y="230.47168"/></text><text opacity=".8" x="480.98517" y="471.38586"><tspan x="480.98517" y="471.38586"/></text><text opacity=".8" x="504.94611" y="430.64417"><tspan x="504.94611" y="430.64417"/></text><text opacity=".8" x="-764.87061" y="236.61552"><tspan x="-764.87061" y="236.61552"/></text><text opacity=".8" x="42.731461" y="-176.85461"><tspan x="42.731461" y="-176.85461"/></text><text opacity=".8" x="66.692398" y="-217.59633"><tspan x="66.692398" y="-217.59633"/></text><text opacity=".8" x="-1424.7708" y="-224.80621"><tspan x="-1424.7708" y="-224.80621"/></text><text opacity=".8" x="35.772015" y="-498.04034"><tspan x="35.772015" y="-498.04034"/></text><text opacity=".8" x="1521.8954" y="128.65103"><tspan x="1521.8954" y="128.65103"/></text><text opacity=".8" x="1545.8563" y="87.909302"><tspan x="1545.8563" y="87.909302"/></text><text opacity=".8" x="54.393139" y="80.699333"><tspan x="54.393139" y="80.699333"/></text><text opacity=".8" x="1514.936" y="-192.53474"><tspan x="1514.936" y="-192.53474"/></text><text opacity=".8" x="-883.42316" y="32.608059"><tspan x="-883.42316" y="32.608059"/></text><text opacity=".8" x="-2707.1089" y="778.16162"><tspan x="-2707.1089" y="778.16162"/></text><text opacity=".8" x="-992.35889" y="871.03326"><tspan x="-992.35889" y="871.03326"/></text><text opacity=".8" x="1202.6191" y="516.3927"><tspan x="1202.6191" y="516.3927"/></text><text opacity=".8" x="1226.5801" y="475.65103"><tspan x="1226.5801" y="475.65103"/></text><text opacity=".8" x="-243.97829" y="445.57288"><tspan x="-243.97829" y="445.57288"/></text><text opacity=".8" x="-2067.6643" y="1191.1263"><tspan x="-2067.6643" y="1191.1263"/></text><text opacity=".8" x="-129.4872" y="60.251945"><tspan x="-129.4872" y="60.251945"/></text><text opacity=".8" x="678.11493" y="-353.21817"><tspan x="678.11493" y="-353.21817"/></text><text opacity=".8" x="702.07587" y="-393.9599"><tspan x="702.07587" y="-393.9599"/></text><text opacity=".8" x="-789.38727" y="-401.1698"><tspan x="-789.38727" y="-401.1698"/></text><text opacity=".8" x="671.15546" y="-674.40399"><tspan x="671.15546" y="-674.40399"/></text><text opacity=".8" x="2157.2788" y="-47.712589"><tspan x="2157.2788" y="-47.712589"/></text><text opacity=".8" x="2181.2397" y="-88.454353"><tspan x="2181.2397" y="-88.454353"/></text><text opacity=".8" x="689.77661" y="-95.664253"><tspan x="689.77661" y="-95.664253"/></text><text opacity=".8" x="2150.3196" y="-368.89819"><tspan x="2150.3196" y="-368.89819"/></text><text opacity=".8" x="-248.03969" y="-143.75557"><tspan x="-248.03969" y="-143.75557"/></text><text opacity=".8" x="-2071.7253" y="601.79803"><tspan x="-2071.7253" y="601.79803"/></text><text opacity=".8" x="-356.96991" y="694.6701"><tspan x="-356.96991" y="694.6701"/></text><text opacity=".8" x="752.05438" y="515.48804"><tspan x="752.05438" y="515.48804"/></text><text opacity=".8" x="776.01532" y="474.74628"><tspan x="776.01532" y="474.74628"/></text><text opacity=".8" x="-715.44781" y="467.53632"><tspan x="-715.44781" y="467.53632"/></text><text opacity=".8" x="745.09491" y="194.30226"><tspan x="745.09491" y="194.30226"/></text><text opacity=".8" x="-282.63968" y="464.82208"><tspan x="-282.63968" y="464.82208"/></text><text opacity=".8" x="-2106.3257" y="1210.3756"><tspan x="-2106.3257" y="1210.3756"/></text><text opacity=".8" x="-131.54662" y="-396.70844"><tspan x="-131.54662" y="-396.70844"/></text><text opacity=".8" x="676.05554" y="-810.17865"><tspan x="676.05554" y="-810.17865"/></text><text opacity=".8" x="700.01642" y="-850.92041"><tspan x="700.01642" y="-850.92041"/></text><text opacity=".8" x="-791.44672" y="-858.13025"><tspan x="-791.44672" y="-858.13025"/></text><text opacity=".8" x="669.09601" y="-1131.3644"><tspan x="669.09601" y="-1131.3644"/></text><text opacity=".8" x="2155.2195" y="-504.67316"><tspan x="2155.2195" y="-504.67316"/></text><text opacity=".8" x="2179.1802" y="-545.41479"><tspan x="2179.1802" y="-545.41479"/></text><text opacity=".8" x="687.71716" y="-552.62463"><tspan x="687.71716" y="-552.62463"/></text><text opacity=".8" x="2148.26" y="-825.85876"><tspan x="2148.26" y="-825.85876"/></text><text opacity=".8" x="-250.09914" y="-600.71594"><tspan x="-250.09914" y="-600.71594"/></text><text opacity=".8" x="-2073.7849" y="144.83755"><tspan x="-2073.7849" y="144.83755"/></text><text opacity=".8" x="-359.02936" y="237.70972"><tspan x="-359.02936" y="237.70972"/></text><text opacity=".8" x="480.98517" y="478.62387"><tspan x="480.98517" y="478.62387"/></text><text opacity=".8" x="504.94611" y="437.88217"><tspan x="504.94611" y="437.88217"/></text><text opacity=".8" x="-764.87061" y="243.85356"><tspan x="-764.87061" y="243.85356"/></text><text opacity=".8" x="42.731461" y="-169.61664"><tspan x="42.731461" y="-169.61664"/></text><text opacity=".8" x="66.692398" y="-210.35834"><tspan x="66.692398" y="-210.35834"/></text><text opacity=".8" x="-1424.7708" y="-217.5683"><tspan x="-1424.7708" y="-217.5683"/></text><text opacity=".8" x="35.772015" y="-490.80231"><tspan x="35.772015" y="-490.80231"/></text><text opacity=".8" x="1521.8954" y="135.88901"><tspan x="1521.8954" y="135.88901"/></text><text opacity=".8" x="1545.8563" y="95.14727"><tspan x="1545.8563" y="95.14727"/></text><text opacity=".8" x="54.393139" y="87.937347"><tspan x="54.393139" y="87.937347"/></text><text opacity=".8" x="1514.936" y="-185.29675"><tspan x="1514.936" y="-185.29675"/></text><text opacity=".8" x="-883.42316" y="39.846062"><tspan x="-883.42316" y="39.846062"/></text><text opacity=".8" x="-2707.1089" y="785.3996"><tspan x="-2707.1089" y="785.3996"/></text><text opacity=".8" x="-992.35889" y="878.27325"><tspan x="-992.35889" y="878.27325"/></text><text x="761.29712" y="137.11668"><tspan x="761.29712" y="137.11668"/><tspan x="761.29712" y="152.94977"/></text><text opacity=".8" x="1226.4811" y="-344.92786"><tspan x="1226.4811" y="-344.92786"/></text><text opacity=".8" x="-597.2049" y="400.62561"><tspan x="-597.2049" y="400.62561"/></text><text opacity=".8" x="1953.5607" y="-629.92371"><tspan x="1953.5607" y="-629.92371"/></text><text opacity=".8" x="1977.5214" y="-670.66541"><tspan x="1977.5214" y="-670.66541"/></text><text opacity=".8" x="486.05829" y="-677.87537"><tspan x="486.05829" y="-677.87537"/></text><text opacity=".8" x="1946.6011" y="-951.1095"><tspan x="1946.6011" y="-951.1095"/></text><text opacity=".8" x="1202.6191" y="509.15475"><tspan x="1202.6191" y="509.15475"/></text><text opacity=".8" x="1226.5801" y="468.41306"><tspan x="1226.5801" y="468.41306"/></text><text opacity=".8" x="-243.97829" y="438.3349"><tspan x="-243.97829" y="438.3349"/></text><text opacity=".8" x="-2067.6643" y="1183.8884"><tspan x="-2067.6643" y="1183.8884"/></text><text opacity=".8" x="-129.4872" y="53.013943"><tspan x="-129.4872" y="53.013943"/></text><text opacity=".8" x="678.11493" y="-360.45621"><tspan x="678.11493" y="-360.45621"/></text><text opacity=".8" x="702.07587" y="-401.19788"><tspan x="702.07587" y="-401.19788"/></text><text opacity=".8" x="-789.38727" y="-408.40778"><tspan x="-789.38727" y="-408.40778"/></text><text opacity=".8" x="671.15546" y="-681.64197"><tspan x="671.15546" y="-681.64197"/></text><text opacity=".8" x="2157.2788" y="-54.950565"><tspan x="2157.2788" y="-54.950565"/></text><text opacity=".8" x="2181.2397" y="-95.692329"><tspan x="2181.2397" y="-95.692329"/></text><text opacity=".8" x="689.77661" y="-102.90223"><tspan x="689.77661" y="-102.90223"/></text><text opacity=".8" x="2150.3196" y="-376.13623"><tspan x="2150.3196" y="-376.13623"/></text><text opacity=".8" x="-248.03969" y="-150.99353"><tspan x="-248.03969" y="-150.99353"/></text><text opacity=".8" x="-2071.7253" y="594.56"><tspan x="-2071.7253" y="594.56"/></text><text opacity=".8" x="-356.96991" y="687.43213"><tspan x="-356.96991" y="687.43213"/></text><text opacity=".8" x="752.05438" y="508.25003"><tspan x="752.05438" y="508.25003"/></text><text opacity=".8" x="776.01532" y="467.5083"><tspan x="776.01532" y="467.5083"/></text><text opacity=".8" x="-715.44781" y="460.29831"><tspan x="-715.44781" y="460.29831"/></text><text opacity=".8" x="745.09491" y="187.06427"><tspan x="745.09491" y="187.06427"/></text><text opacity=".8" x="-282.63968" y="457.58408"><tspan x="-282.63968" y="457.58408"/></text><text opacity=".8" x="-2106.3257" y="1203.1376"><tspan x="-2106.3257" y="1203.1376"/></text><text opacity=".8" x="-131.54662" y="-403.94641"><tspan x="-131.54662" y="-403.94641"/></text><text opacity=".8" x="676.05554" y="-817.41663"><tspan x="676.05554" y="-817.41663"/></text><text opacity=".8" x="700.01642" y="-858.15833"><tspan x="700.01642" y="-858.15833"/></text><text opacity=".8" x="-791.44672" y="-865.36829"><tspan x="-791.44672" y="-865.36829"/></text><text opacity=".8" x="669.09601" y="-1138.6024"><tspan x="669.09601" y="-1138.6024"/></text><text opacity=".8" x="2155.2195" y="-511.91116"><tspan x="2155.2195" y="-511.91116"/></text><text opacity=".8" x="2179.1802" y="-552.65271"><tspan x="2179.1802" y="-552.65271"/></text><text opacity=".8" x="687.71716" y="-559.86267"><tspan x="687.71716" y="-559.86267"/></text><text opacity=".8" x="2148.26" y="-833.0968"><tspan x="2148.26" y="-833.0968"/></text><text opacity=".8" x="-250.09914" y="-607.95398"><tspan x="-250.09914" y="-607.95398"/></text><text opacity=".8" x="-2073.7849" y="137.59953"><tspan x="-2073.7849" y="137.59953"/></text><text opacity=".8" x="-359.02936" y="230.47168"><tspan x="-359.02936" y="230.47168"/></text><text opacity=".8" x="480.98517" y="471.38586"><tspan x="480.98517" y="471.38586"/></text><text opacity=".8" x="504.94611" y="430.64417"><tspan x="504.94611" y="430.64417"/></text><text opacity=".8" x="-764.87061" y="236.61552"><tspan x="-764.87061" y="236.61552"/></text><text opacity=".8" x="42.731461" y="-176.85461"><tspan x="42.731461" y="-176.85461"/></text><text opacity=".8" x="66.692398" y="-217.59633"><tspan x="66.692398" y="-217.59633"/></text><text opacity=".8" x="-1424.7708" y="-224.80621"><tspan x="-1424.7708" y="-224.80621"/></text><text opacity=".8" x="35.772015" y="-498.04034"><tspan x="35.772015" y="-498.04034"/></text><text opacity=".8" x="1521.8954" y="128.65103"><tspan x="1521.8954" y="128.65103"/></text><text opacity=".8" x="1545.8563" y="87.909302"><tspan x="1545.8563" y="87.909302"/></text><text opacity=".8" x="54.393139" y="80.699333"><tspan x="54.393139" y="80.699333"/></text><text opacity=".8" x="1514.936" y="-192.53474"><tspan x="1514.936" y="-192.53474"/></text><text opacity=".8" x="-883.42316" y="32.608059"><tspan x="-883.42316" y="32.608059"/></text><text opacity=".8" x="-2707.1089" y="778.16162"><tspan x="-2707.1089" y="778.16162"/></text><text opacity=".8" x="-992.35333" y="871.03369"><tspan x="-992.35333" y="871.03369"/></text><text opacity=".8" x="1202.6191" y="516.3927"><tspan x="1202.6191" y="516.3927"/></text><text opacity=".8" x="1226.5801" y="475.65103"><tspan x="1226.5801" y="475.65103"/></text><text opacity=".8" x="-243.97829" y="445.57288"><tspan x="-243.97829" y="445.57288"/></text><text opacity=".8" x="-2067.6643" y="1191.1263"><tspan x="-2067.6643" y="1191.1263"/></text><text opacity=".8" x="-129.4872" y="60.251945"><tspan x="-129.4872" y="60.251945"/></text><text opacity=".8" x="678.11493" y="-353.21817"><tspan x="678.11493" y="-353.21817"/></text><text opacity=".8" x="702.07587" y="-393.9599"><tspan x="702.07587" y="-393.9599"/></text><text opacity=".8" x="-789.38727" y="-401.1698"><tspan x="-789.38727" y="-401.1698"/></text><text opacity=".8" x="671.15546" y="-674.40399"><tspan x="671.15546" y="-674.40399"/></text><text opacity=".8" x="2157.2788" y="-47.712589"><tspan x="2157.2788" y="-47.712589"/></text><text opacity=".8" x="2181.2397" y="-88.454353"><tspan x="2181.2397" y="-88.454353"/></text><text opacity=".8" x="689.77661" y="-95.664253"><tspan x="689.77661" y="-95.664253"/></text><text opacity=".8" x="2150.3196" y="-368.89819"><tspan x="2150.3196" y="-368.89819"/></text><text opacity=".8" x="-248.03969" y="-143.75557"><tspan x="-248.03969" y="-143.75557"/></text><text opacity=".8" x="-2071.7253" y="601.79803"><tspan x="-2071.7253" y="601.79803"/></text><text opacity=".8" x="-356.96991" y="694.6701"><tspan x="-356.96991" y="694.6701"/></text><text opacity=".8" x="752.05438" y="515.48804"><tspan x="752.05438" y="515.48804"/></text><text opacity=".8" x="776.01532" y="474.74628"><tspan x="776.01532" y="474.74628"/></text><text opacity=".8" x="-715.44781" y="467.53632"><tspan x="-715.44781" y="467.53632"/></text><text opacity=".8" x="745.09491" y="194.30226"><tspan x="745.09491" y="194.30226"/></text><text opacity=".8" x="-282.63968" y="464.82208"><tspan x="-282.63968" y="464.82208"/></text><text opacity=".8" x="-2106.3257" y="1210.3756"><tspan x="-2106.3257" y="1210.3756"/></text><text opacity=".8" x="-131.54662" y="-396.70844"><tspan x="-131.54662" y="-396.70844"/></text><text opacity=".8" x="676.05554" y="-810.17865"><tspan x="676.05554" y="-810.17865"/></text><text opacity=".8" x="700.01642" y="-850.92041"><tspan x="700.01642" y="-850.92041"/></text><text opacity=".8" x="-791.44672" y="-858.13025"><tspan x="-791.44672" y="-858.13025"/></text><text opacity=".8" x="669.09601" y="-1131.3644"><tspan x="669.09601" y="-1131.3644"/></text><text opacity=".8" x="2155.2195" y="-504.67316"><tspan x="2155.2195" y="-504.67316"/></text><text opacity=".8" x="2179.1802" y="-545.41479"><tspan x="2179.1802" y="-545.41479"/></text><text opacity=".8" x="687.71716" y="-552.62463"><tspan x="687.71716" y="-552.62463"/></text><text opacity=".8" x="2148.26" y="-825.85876"><tspan x="2148.26" y="-825.85876"/></text><text opacity=".8" x="-250.09914" y="-600.71594"><tspan x="-250.09914" y="-600.71594"/></text><text opacity=".8" x="-2073.7849" y="144.83755"><tspan x="-2073.7849" y="144.83755"/></text><text opacity=".8" x="-359.02936" y="237.70972"><tspan x="-359.02936" y="237.70972"/></text><text opacity=".8" x="480.98517" y="478.62387"><tspan x="480.98517" y="478.62387"/></text><text opacity=".8" x="504.94611" y="437.88217"><tspan x="504.94611" y="437.88217"/></text><text opacity=".8" x="-764.87061" y="243.85356"><tspan x="-764.87061" y="243.85356"/></text><text opacity=".8" x="42.731461" y="-169.61664"><tspan x="42.731461" y="-169.61664"/></text><text opacity=".8" x="66.692398" y="-210.35834"><tspan x="66.692398" y="-210.35834"/></text><text opacity=".8" x="-1424.7708" y="-217.5683"><tspan x="-1424.7708" y="-217.5683"/></text><text opacity=".8" x="35.772015" y="-490.80231"><tspan x="35.772015" y="-490.80231"/></text><text opacity=".8" x="1521.8954" y="135.88901"><tspan x="1521.8954" y="135.88901"/></text><text opacity=".8" x="1545.8563" y="95.14727"><tspan x="1545.8563" y="95.14727"/></text><text opacity=".8" x="54.393139" y="87.937347"><tspan x="54.393139" y="87.937347"/></text><text opacity=".8" x="1514.936" y="-185.29675"><tspan x="1514.936" y="-185.29675"/></text><text opacity=".8" x="-883.42316" y="39.846062"><tspan x="-883.42316" y="39.846062"/></text><text opacity=".8" x="-2707.1089" y="785.3996"><tspan x="-2707.1089" y="785.3996"/></text><text opacity=".8" x="-992.35333" y="878.27173"><tspan x="-992.35333" y="878.27173"/></text><text x="761.29712" y="137.11668"><tspan x="761.29712" y="137.11668"/><tspan x="761.29712" y="152.94977"/></text><text opacity=".8" x="1226.4811" y="-344.92786"><tspan x="1226.4811" y="-344.92786"/></text><text opacity=".8" x="-597.2049" y="400.62561"><tspan x="-597.2049" y="400.62561"/></text><text opacity=".8" x="1953.5607" y="-629.92371"><tspan x="1953.5607" y="-629.92371"/></text><text opacity=".8" x="1977.5214" y="-670.66541"><tspan x="1977.5214" y="-670.66541"/></text><text opacity=".8" x="486.05829" y="-677.87537"><tspan x="486.05829" y="-677.87537"/></text><text opacity=".8" x="1946.6011" y="-951.1095"><tspan x="1946.6011" y="-951.1095"/></text><circle cx="408.57138" cy="523.79797" fill="url(#e)" r="0" stroke="url(#e)" stroke-width="2.261995"/><g transform="matrix(.95833333 0 0 .95833333 16.893861 21.955146)"><circle cx="408.57144" cy="523.79797" fill="url(#c)" r="21.916124" stroke="url(#c)" stroke-width="2.16775"/><path d="m32.986328 9.6347656c-.57771 0-.689484.021577-1.246094.2167969l1.126954 1.1269535c-.141636-.138192-.295547-.25721-.441407-.326172-.23213-.11871-.359664-.134766-.896484-.134766-.57771 0-.689484.01962-1.246094.214844-1.74634.5975-3.74649 2.031193-5.900391 4.220703-.416789.42207-1.024934 1.081496-1.365234 1.478516l1.347656 1.347656-1.386718-1.380859c-.57431 0-.684952.02161-1.238282.214843l.1875.1875-.568359.634766 20.642578 20.623047a22.868952 22.868952 0 0 0  .527344-.691406l-15.708985-15.695313 15.732422 15.664063a22.868952 22.868952 0 0 0 4.316407-13.335938 22.868952 22.868952 0 0 0 -.017579-.5zm-11.59375 7.8398434-1.09375 1.390625-.277344-.277343c-1.11916.0556-1.111261.04789-2.701172.291015-1.007979.21727-2.192161.468173-2.513671.539063-1.97847.48406-3.446827 1.107734-4.498047 1.896484-1.5189904 1.14166-1.6300221 2.389509-.3574221 3.662109l4.2109371 4.210938c-.67005 1.64872-1.136535 3.215689-1.404297 4.724609l.09961.09961c.131317.453764.320686.806873.558594 1.076172l-.722657-.722657c.144575.514476.355759.911484.634766 1.19336l-.736328-.736328c.132642.472014.328473.833107.574219 1.109375l-.320313-.320313c.144575.514476.355758.911484.634766 1.19336l-.609375-.609376c.131866.469252.326667.829677.570312 1.105469l-.646484-.646484c.1457.51848.358385.918932.640625 1.201172l8.931641 8.93164a22.868952 22.868952 0 0 0 1.632812.082032 22.868952 22.868952 0 0 0 17.992188-8.794922z" fill-opacity=".078431" transform="translate(384.57143 499.798)"/><path d="m31.365234 9.3691406c-1.607511-.01323-3.611854.9046734-5.857422 2.7050784-1.56564 1.25699-3.626958 3.390693-5.048828 5.214843l-.06836.08008c-.0037.000162-.0022-.000163-.0059 0-.70566.04088-1.854634.154863-3.189454.314453-.578325.0913-.887234.149585-1.265624.228515-.170571-.930106-.304496-1.860597-.34375-2.78125 0-1.18047.01549-1.407339.128906-1.880859.27831-1.195.82988-1.937477 1.55664-2.091797.9998-.21103 2.241362.287468 3.982422 1.580078.55661.41811 1.233491.06183 1.150391-.597656-.03561-.28753-.299187-.534733-1.185547-1.126953-.74258-.4999-1.575269-.912801-2.255859-1.1132814-.67004-.20051-1.655182-.22738-2.144532-.0625-1.20027.4115204-1.95235 1.2987634-2.36914 2.7773434-.22346 1.09967-.212682 1.04737-.238281 2.8125.03435 1.33349.04947 1.391044.263671 2.814454v.002c-2.550788.630608-4.451731 1.527667-5.6035152 2.689453-.5460701.54605-.8499607 1.026126-1.0253907 1.628906-.12398.41812-.12398 1.245363 0 1.658203.34029 1.13433 1.3002531 2.201461 2.8144529 3.144531 1.05123.64895 1.364778.72116 1.705078.38086.15961-.1596.195313-.236485.195313-.427735 0-.37063-.114765-.519154-.609375-.802734-3.1008881-1.746378-3.64694-3.498335-1.57613-5.054735 1.03049-.773196 2.468917-1.385305 4.388672-1.865235.324582 1.416625.782966 2.916309 1.355469 4.394531l-.230469.44336c-1.79248 3.46233-2.941578 6.992969-3.080078 9.574218-.11343 1.98903.247237 3.409936 1.123047 4.291016.95758.9589 2.309131 1.164032 4.044921.607422.654211-.21103 1.951895-.869036 2.708985-1.384766.54606-.36536.665781-.474775.738281-.666015.0725-.19126.0725-.252655 0-.453125-.10815-.29941-.335891-.464844-.644531-.464844-.20049 0-.337796.06321-.853516.414062-1.16994.79402-2.268277 1.28904-3.179687 1.44336-1.26227.21631-2.07272-.341176-2.44336-1.660156-.15957-.57244-.148076-2.405176.02734-3.353516.26776-1.50892.7362-3.075889 1.40625-4.724609.333883-.823073.851869-1.942888 1.091797-2.396485.100888.222092.189776.454922.294922.671875.99644 2.3212 2.320671 4.697381 3.613281 6.619141 1.54321 2.29107 3.158934 4.182617 4.714844 5.554687 1.5559 1.37207 3.052336 2.22383 4.353516 2.4375l-.02734.0039c1.14355.18466 2.106955-.09915 2.853515-.845704.60805-.6186 1.011412-1.488388 1.238282-2.699218.13849-.75709.13849-2.874757 0-3.910156-.42208-3.086421-1.546129-6.626071-3.230469-10.150391-.26248-.55134-.411663-.685547-.751953-.685547-.38118-.0053-.689453.289516-.689453.660156 0 .12926.129393.47848.345703.9375 2.07608 4.42518 3.189602 8.705765 3.076172 11.802735-.03495.92262-.169374 1.661596-.402344 2.222656-.23296.56106-.922162 1.122247-1.357422 1.335937-1.53977.18598-2.583744-.509544-3.865234-1.458984-1.2815-.94945-2.443923-2.329974-3.507813-3.871094-1.0639-1.54113-2.208723-3.170725-3.095703-4.759765-.823973-1.477036-1.808429-3.437576-2.677734-5.611329l.136718-.269531c.86742-1.48187 1.79465-2.922702 2.78711-4.326172l.392578-.52539.07813-.09961.828125-.03125h1.029297c6.26121 0 12.459193 1.416208 15.746094 3.585938.670039.44317 1.478293 1.253052 1.720703 1.726562.17546.32974.191406.417559.191406.855469 0 .42867-.0164.530499-.160156.792969-.40229.77293-1.462975 1.575997-2.828125 2.148437-.63311.26776-.802735.443244-.802735.808594 0 .30865.200547.567856.503907.660156.196529.05675.262431.0467.613281-.0918 2.20534-.87185 3.71675-2.227237 4.02539-3.597657.0863-.37064.08124-1.067654-.0059-1.427734-.16487-.70698-.752414-1.612653-1.427734-2.220703-3.00859-2.69996-9.393207-4.440404-16.966797-4.621094 0 0-.966223.03004-1.376953.03711l.564453-.632812c.3403-.39702.948444-1.056446 1.365234-1.478516 2.1539-2.18951 4.152098-3.623203 5.898438-4.220703.55661-.19521.670336-.214844 1.248047-.214844.53682 0 .664354.0141.896484.132813.31524.14904.668909.515748.849609.861328.35477.70564.474838 1.942739.304688 3.261719-.0567.45373-.103516.977493-.103516 1.158203 0 .30468.01012.35096.185547.5.14377.13455.241764.171875.427734.171875.29941 0 .577057-.160633.660157-.376953.24672-.63839.374433-2.899896.214843-3.853516-.24797-1.46407-.87522-2.45285-1.875-2.9316405-.44186-.213675-.932913-.3217619-1.46875-.3261719zm-12.072265 9.4140624-.111328.144531c0 .02639-.235177.391589-.529297.824219-.29414.42735-.711425 1.055979-.927735 1.412109-.21104.34557-.418184.658879-.458984.705079l-.1875.341797c-.331257-.956443-.635077-1.934917-.875-2.931641.444769-.09522.710439-.15345 1.185547-.255859 1.051598-.160811 1.462553-.207993 1.904297-.240235zm5.300781 4.087891c-1.09212 0-1.978516.892265-1.978516 1.984375 0 1.09212.886396 1.978515 1.978516 1.978515 1.09211 0 1.978516-.886395 1.978516-1.978515 0-1.09211-.886406-1.984375-1.978516-1.984375z" fill="url(#f)" transform="translate(384.57143 499.798)"/><path d="m408.70703 499.66211c-13.24299 0-24 10.75701-24 24s10.75701 24 24 24 24-10.75701 24-24-10.75701-24-24-24zm0 2c12.16186 0 22 9.83814 22 22s-9.83814 21.99805-22 21.99805-21.99805-9.83619-21.99805-21.99805 9.83619-22 21.99805-22z" fill="url(#d)"/></g></g></svg>