<svg height="48" width="48" xmlns="http://www.w3.org/2000/svg" xmlns:xlink="http://www.w3.org/1999/xlink"><linearGradient id="a" gradientUnits="userSpaceOnUse" x1="34.018422407108" x2="34.018422407108" y1="44.300903834968" y2="22.28948539422"><stop offset="0" stop-color="#e3eef3"/><stop offset="1" stop-color="#f3f3f3"/></linearGradient><linearGradient id="b" gradientTransform="matrix(.3814035 0 0 .38251092 13.970497 -57.061641)" gradientUnits="userSpaceOnUse" x1="18.60012" x2="20.03326" y1="261.26111" y2="155.58819"><stop offset="0" stop-color="#4469b9"/><stop offset="1" stop-color="#5d91ff"/></linearGradient><rect fill="url(#b)" height="42.095551" ry="3.300976" stroke-width=".381957" width="42.226444" x="2.042979" y="2.104824"/><path clip-rule="evenodd" d="m31.327534 21.783724h-5.175387v-1.725172c0-.952674-.772369-1.725172-1.725172-1.725172s-1.725172.772369-1.725172 1.725172v.5751c0 .508144-.638329 1.150072-1.150072 1.150072-.511614 0-1.150071-.642056-1.150071-1.150072v-5.175387c0-.952803-.772498-1.725172-1.725172-1.725172-.952803 0-1.725172.772369-1.725172 1.725172v.5751c0 .508273-.638329 2.300143-1.149943 2.300143-.511743 0-1.150072-1.791999-1.150072-2.300143v-6.3255867c0-.952803-.772498-1.7250436-1.7253-1.7250436-.952803 0-1.725172.7722406-1.725172 1.7250436v2.8752427h-.04819c-.119004.635374-.506731 1.150072-1.7408505 1.150072-1.1242404 0-1.4901197-.514698-1.60771-1.150072h-.053462v-.644883c-.00244-.170923 0-.34159 0-.505188 0-1.016418-.3265541-5.7506158-3.8977009-5.7506158-1.0233569 0-1.8529147.8239033-1.8529147 1.8400634v31.9727394c0 1.016288.8295578 1.840192 1.8529148 1.840192 3.5711468 0 3.8975723-4.73407 3.8975723-5.750359 0-.163598-.00244-.334136 0-.505189v-.645011h.053462c.1175903-.635373.4833411-1.1502 1.60771-1.1502 1.139277 0 1.577638.517782 1.747019 1.1502h.04202v2.875243c0 .952803.772369 1.725172 1.725172 1.725172s1.7253-.772369 1.7253-1.725172v-6.325458c0-.508145.638329-2.300272 1.150072-2.300272.511614 0 1.149943 1.792127 1.149943 2.300272v.574971c0 .952803.772369 1.725172 1.725172 1.725172s1.725172-.772369 1.725172-1.725172v-5.175387c0-.508273.638458-1.150072 1.150072-1.150072.511742 0 1.150071.641928 1.150071 1.150072v.574972c0 .952802.77237 1.725172 1.725172 1.725172.952803 0 1.725172-.77237 1.725172-1.725172v-1.725172h5.175387c.952803 0 1.725172-.772369 1.725172-1.725172s-.772241-1.725043-1.725042-1.725043z" fill="#fff" fill-opacity=".851852" fill-rule="evenodd" stroke-width=".128514"/><circle cx="33.676975" cy="33.572151" fill="url(#a)" r="12.323026" stroke-width=".381957"/><path d="m38.626504 28.807335c-1.13248-1.467673-3.008611-2.343619-5.020787-2.343619-2.012963 0-3.889141.876478-5.021088 2.344938-1.326304 1.365541-2.05882 3.176369-2.062269 5.102409.0032 1.548461.478113 3.024907 1.373805 4.272042.403435 1.389523 1.658858 2.369754 3.09771 2.43214.07331.143985.222922.23945.392509.23945.02373 0 .0456-.0024.07331-.0061l1.194333-.207458c.211463-.03708.364523-.219195.364523-.43332 0-.02401-.0021-.04692-.0061-.07491l-1.093799-6.29783c-.0384-.209843-.220259-.362647-.433852-.36318-.03067 0-.0584.0029-.0856.0085l-1.183129.205606c-.211463.03759-.364523.218918-.36399.426631 0 .0027 0 .0056-.000533.0085-.757285.312784-1.371929.889557-1.733766 1.614064-.186926-.589319-.281581-1.200467-.281581-1.82444 0-1.186069.339707-2.327877.983402-3.30702.425033-.138661.723952-.373319.903146-.55117l.0075-.0075.0069-.0085c.847427-1.017801 2.292947-1.624968 3.868076-1.624968 1.494316-.000278 2.897983.558624 3.754461 1.495104l.01495.01653c.02401.02586.04398.0488.07012.07866.150952.159726.469293.441307.944489.598903.644783.980486.985555 2.122827.985555 3.310238 0 .62476-.09468 1.236464-.281858 1.82525-.36186-.725016-.976504-1.302066-1.734832-1.614851v-.0016c0-.214634-.153059-.396791-.364244-.433575l-1.188754-.206902c-.02454-.0051-.05093-.0072-.08026-.0072-.213847.000533-.395727.154124-.43332.36531l-1.093289 6.290885c-.0048.02454-.0072.05065-.0072.07947 0 .214126.153059.396236.364522.433853l1.196741.207713c.02347.0038.04639.0059.07197.0059.131207 0 .250376-.05759.332276-.15093l.06239.01093.01759-.10079c1.428991-.07012 2.675085-1.046876 3.0772-2.427856.896734-1.249011 1.37193-2.725734 1.374592-4.275793-.0024-1.926364-.734878-3.738003-2.061761-5.10352zm-7.247875 5.256255 1.049006 6.036736-.93435.162665-1.049006-6.036759zm4.339522 6.199401-.93435-.162665 1.049005-6.036482.934882.162388-.0059.03174z" fill="#4970c6" stroke-width=".023149"/></svg>