<svg height="48" width="48" xmlns="http://www.w3.org/2000/svg" xmlns:xlink="http://www.w3.org/1999/xlink"><linearGradient id="a"><stop offset="0" stop-color="#333538"/><stop offset="1" stop-color="#566069"/></linearGradient><linearGradient id="b" gradientUnits="userSpaceOnUse" x1="400.95444" x2="400.95444" xlink:href="#a" y1="545.22272" y2="517.22266"/><linearGradient gradientUnits="userSpaceOnUse" x1="2.819" x2="11.758417" xlink:href="#a" y1="1044.2982" y2="1044.2982"/><linearGradient id="c" gradientTransform="matrix(.79653672 0 0 .90196074 124.46424 55.301337)" gradientUnits="userSpaceOnUse" x1="343.50577" x2="343.10593" y1="544.4939" y2="512.45056"><stop offset="0" stop-color="#e77301"/><stop offset="1" stop-color="#fc7b01"/></linearGradient><g fill="url(#b)" transform="matrix(1.569970343761 0 0 1.569970343761 -605.097515035022 -810.977878778761)"><rect fill="#000" fill-opacity=".352941" height="29.299917" ry="2.761046" width="29.299917" x="386.05667" y="517.5116"/><rect fill="url(#c)" height="29.299917" ry="2.761046" width="29.299917" x="386.05667" y="517.19312"/><path d="m23.488281 11.976562 23.511719 23.511719v-3.699219l-17.607422-17.607421c-.84926-.84926-1.90795-1.498195-3.126953-1.88086-.753994-.237992-1.207342-.313228-2.777344-.324219zm.007813.015626c-.523004-.004711-1.172095-.000038-1.996094.007812-3.066011.027003-3.066351.026758-3.777344.21875-1.453007.391001-2.983767 1.401815-3.925781 2.507812-1.038991 1.219005-1.806641 2.601629-1.806641 4.265626v8.542968c.079912 3.146456 1.016593 5.198234 2.310547 6.492188l12.972657 12.972656h15.392578c2.401457 0 4.333984-1.932527 4.333984-4.333984v-7.169922z" fill="#000" fill-opacity=".078431" transform="matrix(.63695471 0 0 .63695471 385.41971 516.55618)"/><path d="m400.38951 524.20419c-.33313-.003-.74651 0-1.27136.005-1.95291.0172-1.95291.0172-2.40578.13949-.9255.24905-1.90067.89301-2.50069 1.59748-.66179.77645-1.1497 1.65736-1.1497 2.71725v5.44151c.10446 4.11026 2.50068 5.28481 4.45868 5.38672h6.36955c2.43572-.19682 4.39626-2.46565 4.45868-4.10071v-2.27903c.008-1.88857.008-2.54017-.20637-2.79432-.22421-.26624-.393-.39045-1.07008-.39045-.65925 0-.89556.0299-1.11213-.1344-.27389-.20637-.34332-.3879-.3879-.97772-.14905-2.11023-1.46054-3.79944-3.41854-4.4141-.48026-.15159-.7688-.19937-1.76882-.20637m-2.48094 3.83446h2.80387c.56244 0 1.02041.45288 1.02041 1.02041 0 .56497-.45543.89046-1.02041.89046h-2.80387c-.56498 0-1.0204-.32612-1.0204-.89046 0-.56498.45287-1.02041 1.0204-1.02041m0 5.7326h5.60584c.56498 0 1.0204.32867 1.0204.89046 0 .56498-.45287 1.0204-1.0204 1.0204h-5.60584c-.56498 0-1.0204-.45287-1.0204-1.0204 0-.56243.45287-.89046 1.0204-.89046m0 0" fill="#fff" fill-opacity=".85"/></g></svg>