<svg height="48" width="48" xmlns="http://www.w3.org/2000/svg" xmlns:xlink="http://www.w3.org/1999/xlink"><linearGradient id="a" gradientUnits="userSpaceOnUse" x1="399.57144" x2="399.57144" y1="545.79797" y2="517.79797"><stop offset="0" stop-color="#3889e9"/><stop offset="1" stop-color="#5ea5fb"/></linearGradient><linearGradient gradientUnits="userSpaceOnUse" x1="-318.57867" x2="-318.57867" y1="653.95679" y2="301.29816"><stop offset="0" stop-color="#0a80fd"/><stop offset="1" stop-color="#56c5fa"/></linearGradient><linearGradient id="b" gradientUnits="userSpaceOnUse" x1="-318.57867" x2="-318.57867" y1="653.95679" y2="301.29816"><stop offset="0" stop-color="#6c6d6e"/><stop offset="1" stop-color="#9b9c9e"/></linearGradient><circle cx="400.57138" cy="531.79791" fill="url(#a)" r="0" transform="matrix(1.637466544097 0 0 1.637466544097 -644.580187175317 -848.719334054169)"/><circle cx="-325.88733" cy="478.74667" fill="url(#b)" r="173.44701" transform="matrix(.138370791844 0 0 .138370791844 69.091287331483 -42.084555934903)"/><g fill="#fff" fill-opacity=".850806" transform="matrix(2.875000072171 0 0 2.875000072171 -7.62500127423 -2971.931111734615)"><path d="m7.1794628 1039.2263c0-.6457.5236739-1.1693 1.1693559-1.1693.645494 0 1.169168.5235 1.169168 1.1693 0 .6461-.523674 1.1696-1.169168 1.1696-.645682 0-1.1693559-.5235-1.1693559-1.1696zm5.3021742 0c0-.6457.524051-1.1693 1.169733-1.1693.645493 0 1.169167.5235 1.169167 1.1693 0 .6461-.523485 1.1696-1.169167 1.1696s-1.169733-.5235-1.169733-1.1696z" fill="#fff" fill-opacity=".850806"/><path d="m15.334814 1045.2725c-.724695-1.6758-2.421874-2.7586-4.323467-2.7586-1.9425153 0-3.6496893 1.0882-4.3493043 2.7726-.119934.2883.01678.6195.305492.7394.0709.029.144449.043.216862.043.221765 0 .432215-.1311.522543-.3489.523674-1.2608 1.820695-2.0751 3.3044073-2.0751 1.450144 0 2.739622.8149 3.284982 2.0764.124083.2868.457107.419.743741.2948.286635-.1243.418826-.4571.294744-.7438z" fill="#fff" fill-opacity=".850806"/></g></svg>