<svg height="48" width="48" xmlns="http://www.w3.org/2000/svg" xmlns:xlink="http://www.w3.org/1999/xlink"><linearGradient id="a" gradientUnits="userSpaceOnUse" x1="399.57144" x2="399.57144" y1="545.79797" y2="517.79797"><stop offset="0" stop-color="#3889e9"/><stop offset="1" stop-color="#5ea5fb"/></linearGradient><linearGradient id="b" gradientUnits="userSpaceOnUse" x1="-318.57867" x2="-318.57867" y1="653.95679" y2="301.29816"><stop offset="0" stop-color="#0a80fd"/><stop offset="1" stop-color="#56c5fa"/></linearGradient><linearGradient id="c" gradientUnits="userSpaceOnUse" x1="-315.38752131464" x2="-315.38752131464" y1="617.485803016913" y2="285.98389070739"><stop offset="0" stop-color="#ecf5ff"/><stop offset="1" stop-color="#fefeff"/></linearGradient><circle cx="400.57138" cy="531.79791" fill="url(#a)" r="0" transform="matrix(1.637466544097 0 0 1.637466544097 -644.580187175317 -848.719334054169)"/><g transform="matrix(.111361506212 0 0 .111361506212 59.887097814307 -26.022587445081)"><circle cx="-325.88733" cy="478.74667" fill="url(#b)" r="173.44701" transform="matrix(1.242537 0 0 1.242537 82.651446 -144.23268)"/><circle cx="-322.25766" cy="452.78693" fill="url(#c)" r="163.04156"/><g fill="#32a4fb" stroke="#30a2fc" transform="matrix(.88692965 0 0 .88692965 -22.17395 82.712193)"><path d="m345.441 248.292-194.287 194.281c-12.359 12.365-32.397 12.365-44.75 0-12.354-12.354-12.354-32.391 0-44.744l171.914-171.909-171.909-171.903c-12.354-12.359-12.354-32.394 0-44.748 12.354-12.359 32.391-12.359 44.75 0l194.287 194.284c6.177 6.18 9.262 14.271 9.262 22.366 0 8.099-3.091 16.196-9.267 22.373z" fill="#32a4fb" stroke="#30a2fc" transform="matrix(-.357721944486 -.001293331621 -.001293331621 .357721944486 -328.791220395078 340.647118262321)"/><path d="m345.441 248.292-194.287 194.281c-12.359 12.365-32.397 12.365-44.75 0-12.354-12.354-12.354-32.391 0-44.744l171.914-171.909-171.909-171.903c-12.354-12.359-12.354-32.394 0-44.748 12.354-12.359 32.391-12.359 44.75 0l194.287 194.284c6.177 6.18 9.262 14.271 9.262 22.366 0 8.099-3.091 16.196-9.267 22.373z" fill="#32a4fb" stroke="#30a2fc" transform="matrix(.357721944486 -.001293331621 .001293331621 .357721944486 -351.948379604923 340.648718262321)"/></g></g></svg>