<svg height="48" width="48" xmlns="http://www.w3.org/2000/svg" xmlns:xlink="http://www.w3.org/1999/xlink"><linearGradient id="a" gradientUnits="userSpaceOnUse" x1="408.24762" x2="407.93527" y1="547.60199" y2="498.89407"><stop offset="0" stop-color="#833cfc"/><stop offset="1" stop-color="#f461d4"/></linearGradient><g transform="matrix(1.0115489 0 0 1.0115489 -389.317671 -505.922197)"><rect fill="url(#a)" height="45.192341" ry="22.59617" stroke="url(#a)" stroke-width="2.259619" width="45.192364" x="386.12323" y="501.27985"/><g fill="#fff" fill-opacity=".847222" transform="matrix(.07020267 0 0 .07020267 391.18861 509.4648)"><path d="m296.003 284.517-52.542-30.805c-2.865.345-5.734.913-8.59 1.73-13.717 3.937-33.557 15.227-50.186 46.668-13.202 24.961-8.33 46.331-4.031 65.187 4.108 18.023 7.354 32.259-4.718 46.5-1.187 1.399-1.511 3.336-.845 5.047.419 1.076 1.188 1.952 2.15 2.512.571.33 1.21.551 1.885.637 30.535 3.836 76.235-14.17 104.421-62.771 12.802-22.074 18.3-43.299 15.902-61.38-.624-4.717-1.796-9.17-3.446-13.325z"/><path d="m418.939 11.153c-10.538-6.111-24.009-3.033-30.847 7.05-4.299 6.338-105.41 155.47-118.428 177.916-6.509 11.224-13.845 29.443-19.947 46.1l52.542 30.805c11.443-13.576 23.674-29.061 30.275-40.443 13.17-22.708 92.25-184.284 95.609-191.151 5.357-10.945 1.337-24.166-9.204-30.277z"/><path d="m166.592 341.074c-4.498-1.502-8.881-2.384-13.327-2.657-.747-.046-1.549-.069-2.383-.069-6.69 0-15.097 1.466-23.227 2.884-7.245 1.265-14.089 2.457-18.864 2.457-3.359 0-4.52-.616-4.895-.936-4.059-5.095 1.807-18.923 4.318-24.849.642-1.512 1.148-2.706 1.44-3.559 4.072-11.981 7.063-24.737 1.425-36.843-4.687-10.065-15.643-18.076-27.824-20.391-3.548-.838-7.62-1.228-12.816-1.228-4.277 0-8.854.271-13.281.534-4.54.27-9.235.548-13.731.548-15.464 0-24.366-3.528-29.749-11.769-9.992-15.865 2.009-44.283 14.332-56.117.758-.728.823-1.918.149-2.725-.675-.807-1.857-.955-2.708-.337-15.781 11.433-26.229 32.205-25.406 50.514.439 9.764 4.197 23.327 19.612 32.506 8.298 4.94 21.718 5.98 34.696 6.986 12.768.989 25.971 2.013 30.04 6.977 1.066 1.301 1.472 2.876 1.233 4.859-.888 9.078-5.293 18.018-9.554 26.661-8.047 16.327-16.368 33.209-1.986 51.944 12.631 16.451 29.399 16.451 46.625 16.331 1.41-.01 2.823-.02 4.235-.02 7.515 0 16.196.23 24.068 2.972 5.602 2.171 8.419 6.662 9.737 15.571 1.009 5.462 3.436 9.762 6.657 13 .471-2.511 1.577-4.904 3.29-6.927 8.458-9.986 6.803-19.319 2.577-37.812-1.962-8.595-4.137-18.122-4.683-28.505z"/></g></g></svg>