<svg height="48" width="48" xmlns="http://www.w3.org/2000/svg" xmlns:xlink="http://www.w3.org/1999/xlink"><linearGradient id="a"><stop offset="0" stop-color="#2a2c2f"/><stop offset="1" stop-color="#424649"/></linearGradient><linearGradient id="b" gradientTransform="matrix(1.0909091 0 0 1.0652838 -37.142884 -35.003639)" gradientUnits="userSpaceOnUse" x1="409.57144" x2="409.57144" xlink:href="#a" y1="542.79797" y2="507.798"/><linearGradient id="c" gradientUnits="userSpaceOnUse" x1="417.804767691668" x2="417.77143168" y1="543.430256930873" y2="532.63133195125"><stop offset="0" stop-color="#0f9d58"/><stop offset="1" stop-color="#00d455"/></linearGradient><linearGradient id="d" gradientUnits="userSpaceOnUse" x1="427.37143504" x2="427.37143504" y1="544.63133616" y2="533.0313321"><stop offset="0" stop-color="#ffcd40"/><stop offset="1" stop-color="#fee145"/></linearGradient><linearGradient id="e" gradientUnits="userSpaceOnUse" x1="422.171427220547" x2="422.171427220547" y1="535.0313328" y2="528.631332160001"><stop offset="0" stop-color="#db4437"/><stop offset="1" stop-color="#fd5757"/></linearGradient><linearGradient id="f" gradientUnits="userSpaceOnUse" x1="422.587394847444" x2="422.587394847444" y1="540.00787227776" y2="533.00979932776"><stop offset="0" stop-color="#f2f6f7"/><stop offset="1" stop-color="#ecf0f1"/></linearGradient><linearGradient id="g" gradientUnits="userSpaceOnUse" x1="422.587416074039" x2="422.587416074039" y1="539.577530417787" y2="533.851832397787"><stop offset="0" stop-color="#2566d3"/><stop offset="1" stop-color="#429aff"/></linearGradient><linearGradient id="h" gradientTransform="matrix(1.0909091 0 0 1.0652838 -37.003895 -35.003639)" gradientUnits="userSpaceOnUse" x1="409.57144" x2="409.57144" xlink:href="#a" y1="542.79797" y2="507.798"/><g transform="translate(-384.57143 -499.798)"><path d="m386.27651 506.44526c-.94427 0-1.70508.76081-1.70508 1.70508v32.81055c0 .94427.76081 1.70508 1.70508 1.70508h30.57617c1.46524 1.73473 3.66051 2.83203 6.125 2.83203 2.45751 0 4.6461-1.09898 6.11133-2.83203h1.77734c.94427 0 1.70508-.76081 1.70508-1.70508v-32.81055c0-.94427-.76081-1.70508-1.70508-1.70508z" fill-opacity=".666667"/><rect fill="url(#h)" height="36.219646" ry="1.704454" width="48" x="384.71042" y="505.94531"/><g fill="#fff" transform="matrix(.10789689 0 0 .1026614 389.66725 512.74593)"><path d="m133.523 78.097c-.488-.489-1.113-.733-1.873-.733h-78.215c-.76 0-1.385.244-1.874.733-.488.489-.732 1.113-.732 1.874v5.215c0 .76.244 1.385.732 1.873.489.488 1.114.733 1.874.733h78.215c.76 0 1.385-.245 1.873-.733s.732-1.113.732-1.873v-5.215c.001-.761-.243-1.385-.732-1.874z" fill="#fff"/><path d="m8.38 1.022c-.543-.543-1.168-.815-1.874-.815s-1.33.272-1.873.815l-4.074 4.074c-.543.543-.814 1.167-.814 1.874s.271 1.331.814 1.874l32.02 32.019-32.02 32.02c-.543.543-.814 1.168-.814 1.873 0 .707.271 1.331.814 1.874l4.074 4.073c.543.544 1.167.814 1.873.814s1.331-.271 1.874-.814l37.967-37.966c.543-.543.814-1.169.814-1.875s-.271-1.331-.814-1.874z" fill="#fff"/></g><g fill-rule="evenodd" transform="translate(.545367 .366756)"><path d="m416.17299 531.83133c-1.00179 1.33604-1.60156 3.01918-1.60156 4.825 0 4.432 3.568 7.975 8 7.975l2.8-5.735-5.2-1.065z" fill="url(#c)"/><path d="m422.97143 533.03133 2.4 5.84-2.8 5.76c4.432 0 8-3.568 8-8 0-1.29811-.31279-2.51807-.85703-3.6z" fill="url(#d)"/><path d="m422.56987 528.63133c-2.62618 0-4.94157 1.25858-6.39844 3.20156l3.99844 5.99844 5.2 1.04-2.4-5.84h6.74297c-1.31389-2.61198-4.00909-4.4-7.14297-4.4z" fill="url(#e)"/></g><g transform="translate(.545367 .366756)"><path d="m422.5874 533.0098c2.05249 0 3.70487 1.65237 3.70487 3.70487 0 2.05249-1.65238 3.70486-3.70487 3.70486-2.05249 0-3.70486-1.65237-3.70486-3.70486 0-2.0525 1.65237-3.70487 3.70486-3.70487z" fill="url(#f)"/><path d="m422.5874 533.85182h.00001c1.58601 0 2.86284 1.27682 2.86284 2.86284 0 1.58602-1.27683 2.86285-2.86284 2.86285h-.00001c-1.58602 0-2.86285-1.27683-2.86285-2.86285 0-1.58602 1.27683-2.86284 2.86285-2.86284z" fill="url(#g)"/></g><rect fill="url(#b)" height="36.219646" ry="1.704454" width="48" x="384.57144" y="505.94531"/><g fill="#fff" transform="matrix(.10789689 0 0 .1026614 389.66725 512.74593)"><path d="m133.523 78.097c-.488-.489-1.113-.733-1.873-.733h-78.215c-.76 0-1.385.244-1.874.733-.488.489-.732 1.113-.732 1.874v5.215c0 .76.244 1.385.732 1.873.489.488 1.114.733 1.874.733h78.215c.76 0 1.385-.245 1.873-.733s.732-1.113.732-1.873v-5.215c.001-.761-.243-1.385-.732-1.874z" fill="#fff"/><path d="m8.38 1.022c-.543-.543-1.168-.815-1.874-.815s-1.33.272-1.873.815l-4.074 4.074c-.543.543-.814 1.167-.814 1.874s.271 1.331.814 1.874l32.02 32.019-32.02 32.02c-.543.543-.814 1.168-.814 1.873 0 .707.271 1.331.814 1.874l4.074 4.073c.543.544 1.167.814 1.873.814s1.331-.271 1.874-.814l37.967-37.966c.543-.543.814-1.169.814-1.875s-.271-1.331-.814-1.874z" fill="#fff"/></g><g fill-rule="evenodd" transform="translate(.545367 .366756)"><path d="m416.17299 531.83133c-1.00179 1.33604-1.60156 3.01918-1.60156 4.825 0 4.432 3.568 7.975 8 7.975l2.8-5.735-5.2-1.065z" fill="url(#c)"/><path d="m422.97143 533.03133 2.4 5.84-2.8 5.76c4.432 0 8-3.568 8-8 0-1.29811-.31279-2.51807-.85703-3.6z" fill="url(#d)"/><path d="m422.56987 528.63133c-2.62618 0-4.94157 1.25858-6.39844 3.20156l3.99844 5.99844 5.2 1.04-2.4-5.84h6.74297c-1.31389-2.61198-4.00909-4.4-7.14297-4.4z" fill="url(#e)"/></g><g transform="translate(.545367 .366756)"><path d="m422.5874 533.0098c2.05249 0 3.70487 1.65237 3.70487 3.70487 0 2.05249-1.65238 3.70486-3.70487 3.70486-2.05249 0-3.70486-1.65237-3.70486-3.70486 0-2.0525 1.65237-3.70487 3.70486-3.70487z" fill="url(#f)"/><path d="m422.5874 533.85182h.00001c1.58601 0 2.86284 1.27682 2.86284 2.86284 0 1.58602-1.27683 2.86285-2.86284 2.86285h-.00001c-1.58602 0-2.86285-1.27683-2.86285-2.86285 0-1.58602 1.27683-2.86284 2.86285-2.86284z" fill="url(#g)"/></g></g></svg>