<svg height="47.999966" viewBox="0 0 48.000107 47.999966" width="48.000107" xmlns="http://www.w3.org/2000/svg" xmlns:xlink="http://www.w3.org/1999/xlink"><linearGradient id="a" gradientUnits="userSpaceOnUse" x1="12.333333" x2="11.916667" y1="23.249966" y2="1.499966"><stop offset="0" stop-color="#d41a1a"/><stop offset="1" stop-color="#f55"/></linearGradient><linearGradient id="b" gradientTransform="matrix(9.0012464 0 0 8.8965192 -597.03434 -1102.6175)" gradientUnits="userSpaceOnUse" spreadMethod="pad" x1="35.083332" x2="34.583332" y1="22.666632" y2="1.833299"><stop offset="0" stop-color="#32a071"/><stop offset="1" stop-color="#00f076"/></linearGradient><linearGradient id="c" gradientTransform="matrix(9.0012464 0 0 8.8965192 -597.03434 -1102.6175)" gradientUnits="userSpaceOnUse" spreadMethod="pad" x1="12.197592" x2="12.433294" y1="34.800636" y2="76.284241"><stop offset="0" stop-color="#ffe000"/><stop offset="1" stop-color="#ff9c00"/></linearGradient><linearGradient id="d" gradientUnits="userSpaceOnUse" x1="35.333332" x2="35.583332" y1="46.749966" y2="25.166632"><stop offset="0" stop-color="#3889e9"/><stop offset="1" stop-color="#5ea5fb"/></linearGradient><g stroke-width="1.087252"><g fill-opacity=".666667"><path d="m25.017911 47.469542c-.0403-.0415 0-5.002146 0-11.002123v-10.967452l10.932266.08726 11.011412.02889.02821 8.302102c.03112 9.173973.0344 9.122772-.659447 10.483588-.450551.883689-1.488052 1.953528-2.344616 2.417663-1.311645.710735-1.219137.676084-10.488596.677935-4.626524.000931-8.43891.01367-8.479187-.02782z"/><path d="m1 14.788957c.0009673-7.1586611.0292148-8.8315995.1559314-9.2496824.5679561-1.873409 2.0798393-3.3413114 3.9992684-3.8829265.4551988-.1284487 2.0983742-.1563823 9.1994962-.1563823h8.645304v10.9858622 11.014138h-11.000595-10.9992986z"/><path d="m25.027981 12.521713.0282-10.985796 8.186862-.030136c5.317997-.019617 8.458251.010709 8.961298.086237 2.347164.3528239 4.307213 2.2779039 4.693089 4.609379.08769.5296387.116212 3.2414672.09477 9.003772l.0078 8.294797-11.019109-.02076-10.980891.02076z"/><path d="m22.982175 47.480829c.04023-.04149 0-5.941929 0-11.040607v-10.940305l-10.95207.04759-10.991707.02889-.028167 8.300771c-.0310609 9.172512-.0343406 9.121319.6582678 10.481907.4497455.883557 1.485393 1.953216 2.3404245 2.417276 1.3093011.710621 1.2169578.704387 10.4698467.706239 4.618254.00093 8.463162.03974 8.503367-.0019z"/></g><path d="m25.017911 46.969542c-.0403-.0415 0-5.002146 0-11.002123v-10.967452l10.932266.08726 11.011412.02889.02821 8.302102c.03112 9.173973.0344 9.122772-.659447 10.483588-.450551.883689-1.488052 1.953528-2.344616 2.417663-1.311645.710735-1.219137.676084-10.488596.677935-4.626524.000931-8.43891.01367-8.479187-.02782z" fill="url(#d)"/><path d="m1 14.288957c.0009673-7.1586612.0292148-8.8315996.1559314-9.2496825.5679561-1.873409 2.0798393-3.3413114 3.9992684-3.8829265.4551988-.1284487 2.0983742-.15638233 9.1994962-.15638233h8.645304v10.98586233 11.014138h-11.000595-10.9992986z" fill="url(#a)"/><path d="m25.027981 12.021713.0282-10.9857962 8.186862-.030136c5.317997-.019617 8.458251.010709 8.961298.086237 2.347164.3528239 4.307213 2.2779039 4.693089 4.609379.08769.5296387.116212 3.2414672.09477 9.0037722l.0078 8.294797-11.019109-.02076-10.980891.02076z" fill="url(#b)"/><path d="m22.982175 46.980829c.04023-.04149 0-5.941929 0-11.040607v-10.940305l-10.95207.04759-10.991707.02889-.028167 8.300771c-.0310609 9.172512-.0343406 9.121319.6582678 10.481907.4497455.883557 1.485393 1.953216 2.3404245 2.417276 1.3093011.710621 1.2169578.704387 10.4698467.706239 4.618254.00093 8.463162.03974 8.503367-.0019z" fill="url(#c)"/></g></svg>