<svg height="48" width="48" xmlns="http://www.w3.org/2000/svg" xmlns:xlink="http://www.w3.org/1999/xlink"><linearGradient id="a"><stop offset="0" stop-color="#197cf1"/><stop offset="1" stop-color="#21c9fb"/></linearGradient><linearGradient gradientUnits="userSpaceOnUse" x1="392.15164" x2="392.15164" y1="555.29919" y2="507.29926"><stop offset="0" stop-color="#333"/><stop offset="1" stop-color="#515151"/></linearGradient><linearGradient gradientUnits="userSpaceOnUse" x1="367.68365" x2="414.68088" xlink:href="#a" y1="531.39362" y2="531.39362"/><linearGradient id="b" gradientUnits="userSpaceOnUse" x1="412.84619" x2="412.84619" y1="545.52081" y2="500.8082"><stop offset="0" stop-color="#7cbaf8"/><stop offset="1" stop-color="#f4fcff"/></linearGradient><linearGradient id="c" gradientUnits="userSpaceOnUse" x1="392.15164" x2="392.15164" xlink:href="#a" y1="555.29919" y2="507.29926"/><linearGradient id="d" gradientUnits="userSpaceOnUse" x1="387.1813" x2="387.1813" xlink:href="#a" y1="555.63666" y2="507.63669"/><circle cx="391.21191" cy="531.73108" fill="url(#c)" r="22.49843" stroke="url(#d)" stroke-linecap="round" stroke-linejoin="round" stroke-width="2.000355" transform="matrix(1.0213371 0 0 1.0213371 -375.527241709546 -518.983679493139)"/><g fill="url(#b)" fill-rule="evenodd" transform="matrix(.685267965652 0 0 .685267965652 -257.888194446235 -335.532606871328)"><path d="m428.57143 503.798-10 20 5 1zm-34 14-9 8 10-4 7 22 5-3 23 2-8-15-4-1-13 9-7-17z"/><path d="m403.57143 527.798 3 5 11-6-8-2z"/><path d="m394.57143 517.798-1.41992 4.9668 2.41992-.9668z"/><path d="m405.42299 535.43862-1.77929 7.7168 3.92773-2.35742.14648.0137-1.85937-5.21094-.28711.19727-.14844-.35938z"/><path d="m409.57143 524.798-6 3 3 5 .4082-.22266z"/><path d="m418.57143 526.798-4.68359 3.24219 16.64062 12.67773-7.95703-14.91992z"/></g></svg>