<svg height="48" width="48" xmlns="http://www.w3.org/2000/svg" xmlns:xlink="http://www.w3.org/1999/xlink"><linearGradient id="a" gradientUnits="userSpaceOnUse" x1="23.999994" x2="23.999994" y1="28.93518" y2="11.06479"><stop offset="0" stop-color="#dcdfe0"/><stop offset="1" stop-color="#fefeff"/></linearGradient><linearGradient id="b" gradientUnits="userSpaceOnUse" x1="23.361173" x2="23.169736" y1="43.884131" y2="2.2375"><stop offset="0" stop-color="#0a80fd"/><stop offset="1" stop-color="#56c5fa"/></linearGradient><path d="m25.015735 45.36257 4.09643-5.74479h10.379224s5.204309.0857 5.204309-7.33904v-23.3520303c-.327846-5.08114-4.937431-5.47097-4.937431-5.47097h-30.691145s-5.681091.33343-5.762819 5.872v22.9510003c.0097 7.23013 5.762819 7.33904 5.762819 7.33904h10.602948l3.691104 5.72209c.803249.93699.814449.81435 1.654561.0227z" fill-opacity=".666667" fill-rule="evenodd"/><path d="m25.015735 43.90683 4.09643-5.74478h10.379224s5.204309.0857 5.204309-7.33905v-23.3520203c-.327846-5.08115-4.937431-5.47098-4.937431-5.47098h-30.691145s-5.681091.33343-5.762819 5.872v22.9510003c.0097 7.23013 5.762819 7.33905 5.762819 7.33905h10.602948l3.691104 5.72208c.803249.937.814449.81435 1.654561.0227z" fill="url(#b)" fill-rule="evenodd"/><path d="m35.000012 13.17919c-.80972.35869-1.678546.6021-2.591405.71073.93209-.55819 1.645586-1.4435 1.983748-2.49516-.874326.51687-1.839417.89223-2.867743 1.09565-.823454-.87844-1.994743-1.42558-3.293894-1.42558-2.492408 0-4.513288 2.02088-4.513288 4.51193 0 .3534.03988.69833.116868 1.0283-3.750292-.18823-7.075789-1.98513-9.301498-4.71543-.389062.66542-.610394 1.44071-.610394 2.26834 0 1.56589.797357 2.94748 2.007145 3.75581-.739629-.0265-1.435255-.2283-2.044246-.56639v.0563c0 2.18583 1.55622 4.0101 3.6197 4.42534-.378067.10167-.77673.15799-1.189158.15799-.291452 0-.573259-.0302-.849588-.0839.574623 1.79407 2.240839 3.09863 4.214987 3.13442-1.543853 1.2098-3.490496 1.92878-5.60484 1.92878-.364324 0-.72313-.0227-1.076422-.062 1.99751 1.28264 4.368956 2.03053 6.917727 2.03053 8.30208 0 12.840131-6.87651 12.840131-12.84014l-.01512-.58423c.886685-.63246 1.653781-1.42702 2.257307-2.33162z" fill="url(#a)"/></svg>