<svg height="48" width="48" xmlns="http://www.w3.org/2000/svg" xmlns:xlink="http://www.w3.org/1999/xlink"><linearGradient id="a"><stop offset="0" stop-color="#ffc35a"/><stop offset="1" stop-color="#faae2a"/></linearGradient><linearGradient id="b"><stop offset="0"/><stop offset="1" stop-opacity="0"/></linearGradient><linearGradient id="c"><stop offset="0" stop-color="#fcfcfc"/><stop offset="1" stop-color="#b677d3"/></linearGradient><linearGradient id="d" gradientTransform="matrix(-1.0825317 .63333266 -.625 -1.0969643 1174.6506 852.48024)" gradientUnits="userSpaceOnUse" x1="390.08389" x2="389.87665" xlink:href="#c" y1="534.08154" y2="513.54498"/><linearGradient id="e" gradientTransform="matrix(1.0825317 .63333266 .625 -1.0969643 -357.50774 852.48024)" gradientUnits="userSpaceOnUse" x1="382.20654" x2="395.44992" xlink:href="#c" y1="532.42847" y2="526.78735"/><linearGradient id="f" gradientTransform="matrix(1.25 0 0 1.2666653 388.57143 502.26471)" gradientUnits="userSpaceOnUse" x1="25.131409" x2="7.070312" y1="20.164909" y2="4.759064"><stop offset="0" stop-color="#c0392b"/><stop offset="1" stop-color="#b677d3"/></linearGradient><linearGradient id="g" gradientTransform="matrix(1.25 0 0 1.2666653 -92.142857 -151.07873)" gradientUnits="userSpaceOnUse" x1="400.57144" x2="392.89551" xlink:href="#a" y1="537.60016" y2="546.58093"/><linearGradient id="h" gradientTransform="matrix(1.25 0 0 1.2666653 -92.142857 -151.07873)" gradientUnits="userSpaceOnUse" x1="393.43433" x2="390.56189" xlink:href="#a" y1="538.07141" y2="539.3089"/><linearGradient id="i" gradientTransform="matrix(1.25 0 0 1.2666653 -92.142857 -151.07873)" gradientUnits="userSpaceOnUse" x1="390.57141" x2="386.57144" y1="535.36304" y2="540.75476"><stop offset="0" stop-color="#fdbc4b"/><stop offset="1" stop-color="#dde341"/></linearGradient><linearGradient id="j" gradientTransform="matrix(.958189 .56058621 .55321067 -.97096382 -270.72176 815.17665)" gradientUnits="userSpaceOnUse" x1="393.10281" x2="388.88727" xlink:href="#a" y1="524.4411" y2="522.65955"/><linearGradient id="k" gradientTransform="matrix(-.958189 .56058621 -.55321067 -.97096382 1087.8646 815.17667)" gradientUnits="userSpaceOnUse" x1="392.68927" x2="389.44809" xlink:href="#a" y1="522.89783" y2="521.73303"/><linearGradient id="l" gradientTransform="matrix(-1.25 0 0 1.2666653 909.28572 -151.07873)" gradientUnits="userSpaceOnUse" x1="390.57141" x2="386.57144" xlink:href="#a" y1="535.36304" y2="540.75476"/><linearGradient id="m" gradientTransform="matrix(-1.25 0 0 1.2666653 909.28572 -151.07873)" gradientUnits="userSpaceOnUse" x1="393.43433" x2="390.56189" xlink:href="#a" y1="538.07141" y2="539.3089"/><linearGradient id="n" gradientTransform="matrix(-1.25 0 0 1.2666653 909.28572 -151.07873)" gradientUnits="userSpaceOnUse" x1="400.57144" x2="392.89551" xlink:href="#a" y1="537.60016" y2="546.58093"/><linearGradient id="o" gradientTransform="matrix(-1.25 0 0 1.2666653 909.28572 -152.34539)" gradientUnits="userSpaceOnUse" x1="396.57144" x2="389.57144" xlink:href="#b" y1="535.79797" y2="542.79797"/><linearGradient id="p" gradientTransform="matrix(-1.25 0 0 1.2666653 914.28572 -151.07873)" gradientUnits="userSpaceOnUse" x1="396.57144" x2="389.57144" xlink:href="#b" y1="535.79797" y2="542.79797"/><linearGradient id="q" gradientTransform="matrix(-1.25 0 0 1.2666653 919.28572 -151.07873)" gradientUnits="userSpaceOnUse" x1="396.57144" x2="389.57144" xlink:href="#b" y1="535.79797" y2="542.79797"/><linearGradient id="r" gradientTransform="matrix(1.25 0 0 1.2666653 -92.142857 -151.07873)" gradientUnits="userSpaceOnUse" x1="390.57141" x2="386.57144" xlink:href="#a" y1="535.36304" y2="540.75476"/><g transform="matrix(1 0 0 1.0526316 -384.57146 -527.366316)"><path d="m408.57146 504.798c9.69499 0 17.5 7.90908 17.5 17.73332v.00002c0 9.82427-7.80501 11.4-17.5 11.4-9.69502 0-17.50002-1.57573-17.50002-11.4v-.00002c0-9.82424 7.805-17.73332 17.50002-17.73332z" fill="#ffc35a"/><path d="m408.57143 504.79804c-.0709 0-.13927.009-.20996.0101-.66387 1.95613-.0252 4.4699 1.2378 5.07904 1.36003.65595 4.3304-.67204 5.26855-2.66939.17911-.38135.24866-.75629.271-1.12318-2.02768-.82863-4.24007-1.29636-6.56739-1.29636zm-1.16699.0594c-2.71851.18055-5.26043.97757-7.49512 2.26615.24532.65586.75845 1.22307 1.53321 1.67239 1.69919.98548 4.65024 1.13928 5.71289-.74218.48392-.85681.50752-2.05276.24902-3.19637zm8.28125 2.93412c-.61122-.00001-2.21191 1.2505-2.21191 1.80351s1.28574 1.96185 1.89696 1.96185c.61123 0 .39552-1.89126.39552-2.44427 0-.55302.53066-1.32109-.0806-1.32109zm-13.30811 1.70454c-.81131-.0755-1.93152.83345-2.20215 1.33841-.3093.57709-.33096 2.08336.46875 2.52344.79971.4401 1.49739-.55348 1.80665-1.13059.30934-.5771 1.05117-2.19468.25146-2.63476-.1-.055-.20881-.0857-.32471-.0966zm4.91944.19793c-.88678.0115-1.89607.30513-2.72705.69765-1.66199.78505-1.98375 2.78641-1.30128 4.27006.68249 1.48364 1.63635 2.04923 3.29834 1.26419 1.662-.78504 3.40467-3.74629 2.72217-5.22995-.34125-.74182-1.10541-1.01337-1.99218-1.00195zm4.72412.66796c-.35859.0298-.73537.14561-1.12549.35626-1.56047.84257-2.10633 3.3037-1.31592 4.8069.79042 1.50323 2.93414 2.27994 4.49463 1.43737 1.56048-.84258 1.31533-3.38535.52491-4.88855-.59283-1.12739-1.50238-1.8013-2.57813-1.71198zm4.45068 2.26368c-.9084.0555-.97894 1.27168-.93994 1.9272.039.65553.25374 2.42554 1.16211 2.37006.90838-.0555 1.53314-1.75411 1.49414-2.40964-.039-.65552-.80794-1.9431-1.71631-1.88762zm-8.78662 3.43384c-1.20682-.0195-2.52698.83548-3.12256 1.74909-.7941 1.21816-1.18407 2.23757.2002 3.16419 1.38429.92663 3.54428.77039 4.33838-.44778.79411-1.21817 1.10595-3.19747-.27833-4.12408-.34607-.23167-.73541-.33491-1.13768-.34142zm-4.1211.3043c-.49525 0-1.21337.37791-1.21337 1.04153 0 .66361.32261.9599.81786.9599.49525-.00001.97656-.29629.97656-.9599s-.0858-1.04152-.58105-1.04153zm7.89307 1.44232c-.76404 0-1.4624 1.47315-1.4624 2.40221.00001.92908 1.01332.96236 1.77735.96236.76402 0 1.77977-.75322 1.77979-1.68228 0-.92905-1.33072-1.68229-2.09474-1.68229z" fill="url(#f)"/><path d="m392.08033 527.71799a5.0043305 8.8589522 14.633555 0 1 -2.56498-9.87587 5.0043305 8.8589522 14.633555 0 1 7.0943-7.25319 5.0043305 8.8589522 14.633555 0 1  .54755.22338 5.0043725 17.717786 14.778482 0 1 -1.60478 8.66898 5.0043725 17.717786 14.778482 0 1 -2.8915 8.32561 5.0043305 8.8589522 14.633555 0 1 -.58058-.089z" fill="url(#e)"/><path d="m389.05339 520.6061a5.0043305 8.8589522 14.633555 0 1  .46123-2.76395 5.0043305 8.8589522 14.633555 0 1  .22806-.76642c1.71579.23087 1.75511-.19393 2.70468-.38304 1.0604-.21118 3.04706 1.78882 1.3283 1.48843-1.71825-.30132-2.22058 2.46587-4.55789 2.43831-.0725-.00086-.0967-.0114-.16438-.0133z" fill="#2c3e50" fill-rule="evenodd"/><path d="m425.06257 527.71799a8.8589522 5.0043305 75.366445 0 0 2.56497-9.87587 8.8589522 5.0043305 75.366445 0 0 -7.0943-7.25319 8.8589522 5.0043305 75.366445 0 0 -.54755.22338 17.717786 5.0043725 75.221518 0 0 1.60479 8.66898 17.717786 5.0043725 75.221518 0 0 2.8915 8.32561 8.8589522 5.0043305 75.366445 0 0  .58058-.089z" fill="url(#d)"/><g fill-rule="evenodd"><path d="m428.0895 520.6061a8.8589522 5.0043305 75.366445 0 0 -.46122-2.76395 8.8589522 5.0043305 75.366445 0 0 -.22806-.76642c-1.71579.23087-1.75512-.19393-2.70468-.38304-1.0604-.21118-3.04706 1.78882-1.3283 1.48843 1.71825-.30132 2.22058 2.46587 4.55789 2.43831.0725-.00086.0967-.0114.16437-.0133z" fill="#2c3e50"/><path d="m399.90932 508.60952s-5-1.26667-5 1.26666c0 1.26667 1.25 5.06666 1.25 7.59999 0 2.53334 2.5-3.79999 2.5-3.79999z" fill="#ffc35a"/><path d="m417.32143 508.59804s5-1.26667 5 1.26666c0 1.26667-1.25 5.06666-1.25 7.59999s-2.5-3.79999-2.5-3.79999z" fill="#ffc35a"/><path d="m394.50509 530.13135s-4.38597-1.27138-3.27956-3.2133c.55321-.97099 3.17104-3.32328 4.27746-5.2652 1.10643-1.94194.25675 4.03406.25675 4.03406z" fill="url(#j)"/><path d="m422.63777 530.13136s4.38597-1.27138 3.27956-3.2133c-.55321-.97097-3.17104-3.32327-4.27746-5.2652-1.10643-1.94194-.25675 4.03406-.25675 4.03406z" fill="url(#k)"/><path d="m394.82143 525.06469c-3.75 2.53333 0 5.06666-2.5 7.59999s-3.75 1.26666-3.75 2.53333c0 1.26666 3.75 3.79999 6.25 1.26666s2.5-3.79999 2.5-3.79999 2.5-2.53333 1.25-5.06666-3.75-2.53333-3.75-2.53333z" fill="url(#i)"/><path d="m423.57143 526.33135v3.4586c.69714-.28369 1.57775-.73936 2.09716-1.33348z" fill="url(#q)" opacity=".1"/><path d="m422.32143 525.06469c3.75 2.53333 0 5.06666 2.5 7.59999s3.75 1.26666 3.75 2.53333c0 1.26666-3.75 3.79999-6.25 1.26666s-2.5-3.79999-2.5-3.79999-2.5-2.53333-1.25-5.06666 3.75-2.53333 3.75-2.53333z" fill="url(#l)"/><path d="m419.05483 526.8212c-.17304.22985-.33821.48259-.4834.77682v3.09739c.46954 1.15361 1.25 1.96927 1.25 1.96927s0 1.26666 2.5 3.79999c2.01289 2.03973 4.80386.79571 5.82764-.42799l-3.32764-3.372z" fill="url(#p)" opacity=".1"/><path d="m415.10547 537.927c.97057 3.67052 6.82743 4.07472 8.46596 2.33767 1.63852-1.73705-1.78188-1.52984-2.42893-3.97686-.64703-2.44701.88389-1.55133-.0866-5.22186-.97056-3.67051-3.73445-6.00126-3.73445-6.00126l-5 2.53333z" fill="url(#m)"/><path d="m413.82143 526.33135-.25.63333v5.27201l1.5332 5.6901c.97057 3.67051 6.82828 4.07493 8.4668 2.33788 1.63853-1.73705-1.75221-1.53594-2.4292-3.97565-.47364-1.70688.0592-1.65286.13737-2.41511z" fill="url(#o)" opacity=".1"/><path d="m408.57143 531.39801v5.06666c0 3.8 3.75 6.33333 7.5 6.33333s-1.25-2.53333 0-6.33333c1.25-3.79999-2.5-11.39998-2.5-11.39998l-5 1.26666z" fill="url(#n)"/><path d="m394.82143 525.06469c-3.75 2.53333 0 5.06666-2.5 7.59999s-3.75 1.26666-3.75 2.53333c0 1.26666 3.75 3.79999 6.25 1.26666s2.5-3.79999 2.5-3.79999 2.5-2.53333 1.25-5.06666-3.75-2.53333-3.75-2.53333z" fill="url(#r)"/><path d="m402.03739 537.927c-.97057 3.67052-6.82743 4.07472-8.46596 2.33767-1.63852-1.73705 1.78188-1.52984 2.42893-3.97686.64703-2.44701-.88389-1.55133.0866-5.22186.97056-3.67051 3.73445-6.00126 3.73445-6.00126l5 2.53333z" fill="url(#h)"/><path d="m408.57143 531.39801v5.06666c0 3.8-3.75 6.33333-7.5 6.33333s1.25-2.53333 0-6.33333c-1.25-3.79999 2.5-11.39998 2.5-11.39998l5 1.26666z" fill="url(#g)"/></g></g></svg>