<svg height="48" width="48" xmlns="http://www.w3.org/2000/svg" xmlns:xlink="http://www.w3.org/1999/xlink"><linearGradient id="a" gradientUnits="userSpaceOnUse" x1="399.57144" x2="399.57144" y1="545.79797" y2="517.79797"><stop offset="0" stop-color="#3889e9"/><stop offset="1" stop-color="#5ea5fb"/></linearGradient><linearGradient id="b" gradientUnits="userSpaceOnUse" x1="-318.57867" x2="-318.57867" y1="653.95679" y2="301.29816"><stop offset="0" stop-color="#0a80fd"/><stop offset="1" stop-color="#56c5fa"/></linearGradient><circle cx="400.57138" cy="531.79791" fill="url(#a)" r="0" transform="matrix(1.637466544097 0 0 1.637466544097 -644.580187175317 -848.719334054169)"/><circle cx="-325.88733" cy="478.74667" fill="url(#b)" r="173.44701" transform="matrix(.138370791844 0 0 .138370791844 69.091287331483 -42.084555934903)"/><path d="m350.27 388.938c.399-50.8-41.5-93.8-92.2-94.8-52.9-1.101-96.1 41.5-96.1 94.1 0 41.801 27.4 76.801 65 89.101v35.8c0 22 10.3 42.7 27.9 55.9l181.2 136.5c-46.5 13.399-80.5 56.3-80.5 107.1 0 61.6 49.9 111.5 111.5 111.5s111.5-49.9 111.5-111.5c0-51.3-34.699-94.5-81.9-107.5v-52.6l166.4-115.601c18.801-13.1 30.1-34.6 30.1-57.5v-49.5h19c27.602 0 50-22.399 50-50v-81.2c0-27.6-22.398-50-50-50h-96.2c-27.6 0-50 22.4-50 50v81.2c0 27.601 22.4 50 50 50h19v55.7l-138.301 96v-366.3h48.9c35 0 56.6-38.301 38.5-68.301l-74.199-122.899c-19.301-32-65.6-32.2-85.3-.5l-76.2 123c-18.6 30 3 68.7 38.3 68.7h51.9v419.1l-153.3-115.399v-41.7c37.399-12.201 64.7-47.001 65-88.401z" fill="#fff" fill-opacity=".846774" transform="matrix(.03462682024 0 0 .03462682024 7.999984665216 8.000006421114)"/></svg>