<svg height="48" width="48" xmlns="http://www.w3.org/2000/svg" xmlns:xlink="http://www.w3.org/1999/xlink"><linearGradient gradientUnits="userSpaceOnUse" x1="0" x2="47" y1="23.5" y2="23.5"><stop offset="0" stop-color="#a9a3d4"/><stop offset=".47001833" stop-color="#87baff"/><stop offset="1" stop-color="#89ec85"/></linearGradient><linearGradient id="a" gradientTransform="matrix(.24841536 0 0 .24427878 433.38377 517.17091)" gradientUnits="userSpaceOnUse" x1="10.09375" x2="122.719" y1="107.36093" y2="107.36093"><stop offset="0" stop-color="#1a1a1a"/><stop offset=".11054216" stop-color="#2c2c2e"/><stop offset=".29001436" stop-color="#2b2b2d"/><stop offset=".5118711" stop-color="#2a2b2d"/><stop offset=".75173318" stop-color="#2b2b2d"/><stop offset=".89659214" stop-color="#323232"/><stop offset="1" stop-color="#171717"/></linearGradient><linearGradient id="b" gradientUnits="userSpaceOnUse" x1="449.42804" x2="449.54932" y1="540.74573" y2="518.40662"><stop offset="0" stop-color="#bbbec4"/><stop offset="1" stop-color="#dddfe2"/></linearGradient><linearGradient id="c" gradientTransform="matrix(.50539571 0 0 1 229.14839 2.166555)" gradientUnits="userSpaceOnUse" x1="451.02078" x2="451.02078" y1="544.14978" y2="543.0885"><stop offset="0" stop-color="#197cf1"/><stop offset="1" stop-color="#20bcfa"/></linearGradient><linearGradient id="d" gradientUnits="userSpaceOnUse" x1="467.17453" x2="467.17453" y1="546.953375" y2="544.830825"><stop offset="0" stop-color="#040404"/><stop offset="1" stop-color="#121212" stop-opacity=".908163"/></linearGradient><g stroke-width="1.317422" transform="matrix(1.199999650171 0 0 1.199999650171 3.176860870631 -1208.208316863007)"><g transform="matrix(1.369959 0 0 1.369959 -608.11802 295.23461)"><path d="m435.89128 541.07281.24841 3.91531c0 .40601.33238.73288.74525.73288h25.99045c.41287 0 .74526-.32687.74526-.73288l.24841-3.91531z" fill="url(#a)" transform="translate(6.679592 2.113473)"/><path d="m438.12877 518.12187h23.25963c.41287 0 .74526.32687.74526.73287l1.739 22.0998c0 .406-.33237.73288-.74524.73288h-26.48903c-.41287 0-.74524-.32688-.74524-.73288l1.49038-22.09974c0-.406.33238-.73293.74524-.73293z" fill="url(#b)" transform="translate(6.679592 2.113473)"/><rect fill="url(#c)" height=".768874" ry=".384437" width="11.463281" x="450.87326" y="545.61273"/><ellipse cx="467.08929" cy="546.02448" fill="url(#d)" opacity=".452" rx="1.06128" ry="1.061274"/><g fill="#e3e8ea" opacity=".668" transform="matrix(.008480606917 0 0 .008480606917 466.55270496113 545.431141088142)"><path d="m63 73.215c2.824 0 5.27-1.031 7.332-3.096 2.064-2.063 3.098-4.508 3.098-7.332v-52.144c0-2.825-1.033-5.269-3.098-7.332-2.062-2.065-4.507-3.097-7.332-3.097s-5.269 1.033-7.333 3.097c-2.064 2.063-3.096 4.508-3.096 7.332v52.144c0 2.824 1.032 5.269 3.096 7.332 2.064 2.065 4.509 3.096 7.333 3.096z" fill="#e3e8ea"/><path d="m119.014 45.269c-4.373-8.744-10.523-16.077-18.453-21.997-2.281-1.738-4.861-2.417-7.74-2.037s-5.16 1.738-6.844 4.073c-1.738 2.281-2.403 4.847-1.996 7.699.406 2.853 1.752 5.147 4.033 6.885 5.321 4.019 9.438 8.935 12.342 14.747 2.906 5.811 4.358 12.004 4.358 18.575 0 5.65-1.1 11.04-3.299 16.173-2.2 5.133-5.174 9.573-8.922 13.321-3.748 3.747-8.187 6.721-13.32 8.921s-10.524 3.301-16.173 3.301c-5.648 0-11.039-1.101-16.172-3.301s-9.573-5.174-13.321-8.921c-3.747-3.748-6.721-8.188-8.921-13.321s-3.3-10.523-3.3-16.173c0-6.571 1.453-12.763 4.359-18.575 2.906-5.811 7.02-10.727 12.343-14.747 2.281-1.739 3.625-4.033 4.033-6.885.407-2.851-.258-5.418-1.996-7.699-1.684-2.335-3.951-3.693-6.803-4.073s-5.446.299-7.781 2.037c-7.931 5.92-14.081 13.253-18.454 21.997-4.373 8.745-6.559 18.06-6.559 27.945 0 8.474 1.657 16.566 4.97 24.279 3.314 7.713 7.767 14.366 13.362 19.961 5.594 5.594 12.248 10.049 19.961 13.36 7.713 3.314 15.806 4.972 24.279 4.972s16.566-1.658 24.279-4.972c7.713-3.312 14.367-7.766 19.961-13.36s10.047-12.248 13.361-19.961c3.313-7.713 4.969-15.806 4.969-24.279 0-9.885-2.183-19.2-6.556-27.945z" fill="#e3e8ea"/></g></g><path d="m18.714233 1014.4058a7.9123096 7.9123096 0 0 0 -7.912312 7.9123 7.9123096 7.9123096 0 0 0 7.912312 7.9124 7.9123096 7.9123096 0 0 0 7.912311-7.9124 7.9123096 7.9123096 0 0 0 -7.912311-7.9123m-8.9705748 3.7782c-1.8297252 1.5033-2.8978867 3.7484-2.8978867 6.1123a7.9123096 7.9123096 0 0 0 7.9123115 7.9122c.632981 0 1.256075-.08 1.859396-.2274-1.740711-.3857-3.342954-1.2562-4.658383-2.4529-1.928625-1.0286-3.1352437-3.0462-3.1352437-5.2319 0-.2967.029671-.5836.069193-.8803-.039522-.3659-.069193-.7319-.069193-1.0979 0-1.4242.3164845-2.8385.9198059-4.1341m13.0157498.2571 1.394544 1.4045-6.428754 6.4287-3.748451-3.7485 1.40443-1.4044 2.344021 2.3539" fill="#a1a7ae"/></g></svg>