<svg height="48" width="48" xmlns="http://www.w3.org/2000/svg" xmlns:xlink="http://www.w3.org/1999/xlink"><linearGradient id="a" gradientUnits="userSpaceOnUse" x1="399.57144" x2="399.57144" y1="545.79797" y2="517.79797"><stop offset="0" stop-color="#3889e9"/><stop offset="1" stop-color="#5ea5fb"/></linearGradient><linearGradient id="b" gradientUnits="userSpaceOnUse" x1="399.9939" x2="399.9939" y1="545.13873" y2="518.13873"><stop offset="0" stop-color="#9662ff"/><stop offset="1" stop-color="#bc9bff"/></linearGradient><g stroke-width="1.299897" transform="matrix(1.714290829385 0 0 1.714290829385 -662.7158499683 -887.647291234993)"><circle cx="400.57138" cy="531.79791" fill="url(#b)" r="13.999958"/><circle cx="400.57138" cy="531.79791" fill="url(#a)" r="0"/></g><g stroke-width="1.299897" transform="matrix(1.279373439176 0 0 1.279373439176 -532.110382240197 -655.930378627895)"><path d="m25.757 521.91c.068-26.26 22.392-62.92 54.112-96.23 21.201-22.26 42.731-41.8 89.661-81.81-32.47-17.81-82.955-39.31-108.29-67.45-9.371-10.42-26.361-34.01-23.066-65.53 6.717-64.25 86.016-161.75 198.74-182.36 37.504-6.8587 80.564-1.9078 116 14.025 111.18 49.984 247.15 174.16 263.88 234.79 5.8884 21.342 4.7566 55.36-5.3948 74.32-12.581 23.498-56.136 71.225-115.72 120.47-93.499 77.274-224.52 160.25-322.35 174.21-31.611 4.5114-63.908-.19399-86.572-12.983-35.481-20.01-47.252-46.72-51.39-54.73-11.003-21.29-9.637-48.27-9.613-56.73z" fill="#fff" fill-opacity=".85" fill-rule="evenodd" transform="matrix(.03847227 0 0 .038686 423.1991 518.67642)"/><ellipse cx="-279.12872" cy="624.1015" fill="#b088ff" rx="2.254441" ry="2.705317" transform="matrix(.440989 -.89751251 .89751251 .440989 0 0)"/></g></svg>