<svg height="48" width="48" xmlns="http://www.w3.org/2000/svg" xmlns:xlink="http://www.w3.org/1999/xlink"><linearGradient id="a"><stop offset="0" stop-color="#e7f0f4"/><stop offset="1" stop-color="#f4faff"/></linearGradient><linearGradient id="b" gradientTransform="matrix(.30130243 0 0 .2972515 753.31501 403.53902)" gradientUnits="userSpaceOnUse" x1="-994.5874" x2="-973.66199" y1="443.82938" y2="310.02457"><stop offset="0" stop-color="#5955a9" stop-opacity=".992157"/><stop offset="1" stop-color="#00b1ff"/></linearGradient><linearGradient id="c" gradientTransform="matrix(.85514181 -.29038624 .29038624 .85514181 -84.097948 208.73509)" gradientUnits="userSpaceOnUse" x1="452.33853" x2="472.27802" xlink:href="#a" y1="536.2312" y2="498.15952"/><linearGradient id="d" gradientTransform="matrix(.30086922 0 0 .29688939 670.31451 542.87132)" gradientUnits="userSpaceOnUse" x1="-1068.3711" x2="-1021.4628" xlink:href="#a" y1="238.30174" y2="106.82841"/><g transform="translate(-384.57143 -499.798)"><text x="300.29187" y="516.21832"><tspan x="300.29187" y="516.21832"/></text><g transform="matrix(1.074112590749 -.139262321197 .139262321197 1.074112590749 -153.178563405892 32.478204249174)"><rect fill="url(#d)" height="34.034584" ry=".830661" transform="matrix(.98172992 -.19027971 .18229779 .98324337 0 0)" width="27.007687" x="339.18912" y="576.28491"/><rect fill="url(#b)" height="36.537769" ry=".891755" transform="matrix(.99999492 .00318821 .00931832 .99995658 0 0)" width="30.077534" x="438.24319" y="497.55969"/><path d="m453.2981 527.94899s1.23778.10442 2.83358-.0145c.64625-.0481 3.10023-.25567 4.93793-.63267 0 0 2.24044-.44784 3.44154-.87209 1.25679-.44385 1.94256-.82583 2.25636-1.37589-.0118-.11374.1013-.51496-.47212-.76465-1.466-.63838-3.17743-.54968-6.55997-.66724-3.75044-.17974-4.99014-.8247-5.64819-1.33955-.63066-.52179-.29081-1.93713 2.45811-3.15064 1.38521-.64728 6.79663-1.80312 6.79663-1.80312-1.8047-.92266-5.1712-2.5473-5.863-2.89765-.60674-.30727-1.57811-.77072-1.78262-1.3183-.23313-.52618.58053-.96569 1.03337-1.08858 1.45844-.39938 3.51286-.63206 5.37982-.63602.93843-.002 1.09154-.0603 1.09154-.0603 1.29748-.19721 2.16169-1.07137 1.82563-2.47889-.29938-1.43612-1.96917-2.3002-3.57072-2.03059-1.50819.25391-5.14862 1.25809-5.14862 1.25809 4.48274.022 5.23192.10689 5.56063.57987.19412.27933-.0988.65477-1.29681.83381-1.30429.19493-4.01301.41425-4.01301.41425-2.59728.11898-4.42548.10454-4.98947 1.25793-.36847.75352.36262 1.434.68132 1.85809 1.35028 1.54317 3.31937 2.39226 4.58579 3.01504.47652.23433 1.87785.68363 1.87785.68363-4.13205-.28343-7.13219.94592-8.90175 2.38417-2.00384 1.80372-1.15791 3.99749 2.87841 5.39588 2.384.82594 3.5666 1.21521 7.1431.94192 2.10557-.0849 2.43634-.0129 2.45498.16.0262.24347-2.34844.81521-2.99707.99274-1.65007.45185-5.97167 1.35081-5.99331 1.35516z" fill="url(#c)" fill-rule="evenodd"/></g></g></svg>