<svg height="48" width="48" xmlns="http://www.w3.org/2000/svg" xmlns:xlink="http://www.w3.org/1999/xlink"><linearGradient id="a"><stop offset="0" stop-color="#3889e9"/><stop offset="1" stop-color="#5ea5fb"/></linearGradient><linearGradient id="b" gradientUnits="userSpaceOnUse" x1="-488.26793372584" x2="-488.26793372584" xlink:href="#a" y1="685.242424127329" y2="219.42073212733"/><linearGradient id="c" gradientUnits="userSpaceOnUse" x1="129.607335669441" x2="129.607335669441" xlink:href="#a" y1="647.80022201572" y2="165.610094015719"/><linearGradient id="d" gradientUnits="userSpaceOnUse" x1="-563.075980078632" x2="-475.294882572312" y1="349.622660173464" y2="299.772028413121"><stop offset="0" stop-color="#ec3a00"/><stop offset="1" stop-color="#ffb900" stop-opacity=".015686"/></linearGradient><linearGradient id="e" gradientUnits="userSpaceOnUse" x1="-419.892934577168" x2="-345.962210533768" y1="381.17795316652" y2="381.17795316652"><stop offset="0" stop-color="#de4000"/><stop offset="1" stop-color="#fab600"/></linearGradient><linearGradient id="f" gradientTransform="matrix(1.3117064 0 0 1.3228893 -118.85579 193.11044)" gradientUnits="userSpaceOnUse" x1="-262.73923" x2="-132.19847" y1="196.19754" y2="241.34654"><stop offset="0" stop-color="#f24d00"/><stop offset="1" stop-color="#ffb000"/></linearGradient><linearGradient id="g" gradientUnits="userSpaceOnUse" x1="-1483.130189853761" x2="-1483.130189853761" xlink:href="#a" y1="683.662696574118" y2="138.004408574119"/><linearGradient id="h" gradientUnits="userSpaceOnUse" x1="623.441835669441" x2="623.441835669441" xlink:href="#a" y1="675.566222015719" y2="193.376094015719"/><linearGradient id="i" gradientUnits="userSpaceOnUse" x1="-.518564330559" x2="-.518564330559" xlink:href="#a" y1="715.89102201572" y2="233.700894015719"/><linearGradient id="j" gradientUnits="userSpaceOnUse" x1="-346.08835308" x2="-343.993357944" y1="682.239246207999" y2="235.295631791998"><stop offset="0" stop-color="#5043e2"/><stop offset="1" stop-color="#418dff"/></linearGradient><linearGradient id="k" gradientTransform="matrix(.91438915 0 0 .91300453 -584.9057 246.98108)" gradientUnits="userSpaceOnUse" x1="276.07495" x2="263.67963" y1="521.2981" y2="24.895563"><stop offset="0" stop-color="#fc5500"/><stop offset="1" stop-color="#ffc200"/></linearGradient><linearGradient id="l" gradientTransform="matrix(.39833291 .4070572 -.40644084 .39772986 -309.89585 275.61242)" gradientUnits="userSpaceOnUse" x1="516.3222" x2="477.79111" y1="486.26266" y2="-33.617302"><stop offset="0" stop-color="#fc5500" stop-opacity=".04"/><stop offset=".45650545" stop-color="#fd8b00"/><stop offset="1" stop-color="#ffc200"/></linearGradient><g transform="matrix(.086812809787 0 0 .086812809787 53.540458087565 -15.40014610361)"><circle cx="-471.63257" cy="452.33035" fill="url(#b)" r="0"/><g stroke-width=".852251"><text opacity=".8" x="6289.3403" y="294.47772"><tspan stroke-width=".852251" x="6289.3403" y="294.47772"/></text><text opacity=".8" x="6532.7812" y="-119.45393"><tspan stroke-width=".852251" x="6532.7812" y="-119.45393"/></text><text opacity=".8" x="-8407.9365" y="-425.04474"><tspan stroke-width=".852251" x="-8407.9365" y="-425.04474"/></text><text opacity=".8" x="-26936.396" y="7149.6997"><tspan stroke-width=".852251" x="-26936.396" y="7149.6997"/></text><text opacity=".8" x="-7244.7197" y="-4339.865700000001"><tspan stroke-width=".852251" x="-7244.7197" y="-4339.865700000001"/></text><text opacity=".8" x="960.43378" y="-8540.6787"><tspan stroke-width=".852251" x="960.43378" y="-8540.6787"/></text><text opacity=".8" x="1203.8745" y="-8954.6113"><tspan stroke-width=".852251" x="1203.8745" y="-8954.6113"/></text><text opacity=".8" x="-13949.235" y="-9027.8623"><tspan stroke-width=".852251" x="-13949.235" y="-9027.8623"/></text><text opacity=".8" x="889.72638" y="-11803.893"><tspan stroke-width=".852251" x="889.72638" y="-11803.893"/></text><text opacity=".8" x="15988.587" y="-5436.7734"><tspan stroke-width=".852251" x="15988.587" y="-5436.7734"/></text><text opacity=".8" x="16232.024" y="-5850.7051"><tspan stroke-width=".852251" x="16232.024" y="-5850.7051"/></text><text opacity=".8" x="1078.9154" y="-5923.9575"><tspan stroke-width=".852251" x="1078.9154" y="-5923.9575"/></text><text opacity=".8" x="15917.878" y="-8699.9863"><tspan stroke-width=".852251" x="15917.878" y="-8699.9863"/></text><text opacity=".8" x="-8449.1992" y="-6412.5601"><tspan stroke-width=".852251" x="-8449.1992" y="-6412.5601"/></text><text opacity=".8" x="-26977.654" y="1162.1864"><tspan stroke-width=".852251" x="-26977.654" y="1162.1864"/></text><text opacity=".8" x="-9555.9199" y="2105.7571"><tspan stroke-width=".852251" x="-9555.9199" y="2105.7571"/></text><text opacity=".8" x="1711.6509" y="285.28549"><tspan stroke-width=".852251" x="1711.6509" y="285.28549"/></text><text opacity=".8" x="1955.0917" y="-128.64584"><tspan stroke-width=".852251" x="1955.0917" y="-128.64584"/></text><text opacity=".8" x="-13198.018" y="-201.89851"><tspan stroke-width=".852251" x="-13198.018" y="-201.89851"/></text><text opacity=".8" x="1640.9435" y="-2977.9277"><tspan stroke-width=".852251" x="1640.9435" y="-2977.9277"/></text><text opacity=".8" x="-8800.7324" y="-229.47516"><tspan stroke-width=".852251" x="-8800.7324" y="-229.47516"/></text><text opacity=".8" x="-27329.191" y="7345.2705"><tspan stroke-width=".852251" x="-27329.191" y="7345.2705"/></text><text opacity=".8" x="-7265.6431" y="-8982.5352"><tspan stroke-width=".852251" x="-7265.6431" y="-8982.5352"/></text><text opacity=".8" x="939.51013" y="-13183.35"><tspan stroke-width=".852251" x="939.51013" y="-13183.35"/></text><text opacity=".8" x="1182.9504" y="-13597.28"><tspan stroke-width=".852251" x="1182.9504" y="-13597.28"/></text><text opacity=".8" x="-13970.158" y="-13670.532"><tspan stroke-width=".852251" x="-13970.158" y="-13670.532"/></text><text opacity=".8" x="868.80212" y="-16446.562"><tspan stroke-width=".852251" x="868.80212" y="-16446.562"/></text><text opacity=".8" x="15967.66" y="-10079.445"><tspan stroke-width=".852251" x="15967.66" y="-10079.445"/></text><text opacity=".8" x="16211.102" y="-10493.375"><tspan stroke-width=".852251" x="16211.102" y="-10493.375"/></text><text opacity=".8" x="1057.9911" y="-10566.629"><tspan stroke-width=".852251" x="1057.9911" y="-10566.629"/></text><text opacity=".8" x="15896.954" y="-13342.658"><tspan stroke-width=".852251" x="15896.954" y="-13342.658"/></text><text opacity=".8" x="-8470.124" y="-11055.23"><tspan stroke-width=".852251" x="-8470.124" y="-11055.23"/></text><text opacity=".8" x="-26998.58" y="-3480.4844"><tspan stroke-width=".852251" x="-26998.58" y="-3480.4844"/></text><text opacity=".8" x="-9576.8447" y="-2536.9126"><tspan stroke-width=".852251" x="-9576.8447" y="-2536.9126"/></text><text opacity=".8" x="-1042.3842" y="-89.250099"><tspan stroke-width=".852251" x="-1042.3842" y="-89.250099"/></text><text opacity=".8" x="-798.94354" y="-503.18182"><tspan stroke-width=".852251" x="-798.94354" y="-503.18182"/></text><text opacity=".8" x="-13700.147" y="-2474.4924"><tspan stroke-width=".852251" x="-13700.147" y="-2474.4924"/></text><text opacity=".8" x="-5494.9961" y="-6675.3057"><tspan stroke-width=".852251" x="-5494.9961" y="-6675.3057"/></text><text opacity=".8" x="-5251.5552" y="-7089.2373"><tspan stroke-width=".852251" x="-5251.5552" y="-7089.2373"/></text><text opacity=".8" x="-20404.664" y="-7162.4888"><tspan stroke-width=".852251" x="-20404.664" y="-7162.4888"/></text><text opacity=".8" x="-5565.7036" y="-9938.5195"><tspan stroke-width=".852251" x="-5565.7036" y="-9938.5195"/></text><text opacity=".8" x="9533.1543" y="-3571.4001"><tspan stroke-width=".852251" x="9533.1543" y="-3571.4001"/></text><text opacity=".8" x="9776.5938" y="-3985.332"><tspan stroke-width=".852251" x="9776.5938" y="-3985.332"/></text><text opacity=".8" x="-5376.5146" y="-4058.5847"><tspan stroke-width=".852251" x="-5376.5146" y="-4058.5847"/></text><text opacity=".8" x="9462.4482" y="-6834.6138"><tspan stroke-width=".852251" x="9462.4482" y="-6834.6138"/></text><text opacity=".8" x="-14904.63" y="-4547.187"><tspan stroke-width=".852251" x="-14904.63" y="-4547.187"/></text><text opacity=".8" x="-33433.086" y="3027.5596"><tspan stroke-width=".852251" x="-33433.086" y="3027.5596"/></text><text opacity=".8" x="-16011.406" y="3971.1252"><tspan stroke-width=".852251" x="-16011.406" y="3971.1252"/></text><text opacity=".8" x="6289.3403" y="368.0148"><tspan stroke-width=".852251" x="6289.3403" y="368.0148"/></text><text opacity=".8" x="6532.7812" y="-45.916569"><tspan stroke-width=".852251" x="6532.7812" y="-45.916569"/></text><text opacity=".8" x="-8407.9365" y="-351.50735"><tspan stroke-width=".852251" x="-8407.9365" y="-351.50735"/></text><text opacity=".8" x="-26936.396" y="7223.2378"><tspan stroke-width=".852251" x="-26936.396" y="7223.2378"/></text><text opacity=".8" x="-7244.7197" y="-4266.3276"><tspan stroke-width=".852251" x="-7244.7197" y="-4266.3276"/></text><text opacity=".8" x="960.43378" y="-8467.1416"><tspan stroke-width=".852251" x="960.43378" y="-8467.1416"/></text><text opacity=".8" x="1203.8745" y="-8881.0732"><tspan stroke-width=".852251" x="1203.8745" y="-8881.0732"/></text><text opacity=".8" x="-13949.235" y="-8954.3252"><tspan stroke-width=".852251" x="-13949.235" y="-8954.3252"/></text><text opacity=".8" x="889.72638" y="-11730.354"><tspan stroke-width=".852251" x="889.72638" y="-11730.354"/></text><text opacity=".8" x="15988.587" y="-5363.2363"><tspan stroke-width=".852251" x="15988.587" y="-5363.2363"/></text><text opacity=".8" x="16232.024" y="-5777.1685"><tspan stroke-width=".852251" x="16232.024" y="-5777.1685"/></text><text opacity=".8" x="1078.9154" y="-5850.4204"><tspan stroke-width=".852251" x="1078.9154" y="-5850.4204"/></text><text opacity=".8" x="15917.878" y="-8626.4482"><tspan stroke-width=".852251" x="15917.878" y="-8626.4482"/></text><text opacity=".8" x="-8449.1992" y="-6339.0229"><tspan stroke-width=".852251" x="-8449.1992" y="-6339.0229"/></text><text opacity=".8" x="-26977.654" y="1235.7235"><tspan stroke-width=".852251" x="-26977.654" y="1235.7235"/></text><text opacity=".8" x="-9555.9199" y="2179.2949"><tspan stroke-width=".852251" x="-9555.9199" y="2179.2949"/></text><text opacity=".8" x="1711.6509" y="358.82257"><tspan stroke-width=".852251" x="1711.6509" y="358.82257"/></text><text opacity=".8" x="1955.0917" y="-55.108776"><tspan stroke-width=".852251" x="1955.0917" y="-55.108776"/></text><text opacity=".8" x="-13198.018" y="-128.36143"><tspan stroke-width=".852251" x="-13198.018" y="-128.36143"/></text><text opacity=".8" x="1640.9435" y="-2904.3904"><tspan stroke-width=".852251" x="1640.9435" y="-2904.3904"/></text><text opacity=".8" x="-8800.7324" y="-155.93774"><tspan stroke-width=".852251" x="-8800.7324" y="-155.93774"/></text><text opacity=".8" x="-27329.191" y="7418.8081"><tspan stroke-width=".852251" x="-27329.191" y="7418.8081"/></text><text opacity=".8" x="-7265.6431" y="-8908.998"><tspan stroke-width=".852251" x="-7265.6431" y="-8908.998"/></text><text opacity=".8" x="939.51013" y="-13109.811"><tspan stroke-width=".852251" x="939.51013" y="-13109.811"/></text><text opacity=".8" x="1182.9504" y="-13523.744"><tspan stroke-width=".852251" x="1182.9504" y="-13523.744"/></text><text opacity=".8" x="-13970.158" y="-13596.995"><tspan stroke-width=".852251" x="-13970.158" y="-13596.995"/></text><text opacity=".8" x="868.80212" y="-16373.025"><tspan stroke-width=".852251" x="868.80212" y="-16373.025"/></text><text opacity=".8" x="15967.66" y="-10005.908"><tspan stroke-width=".852251" x="15967.66" y="-10005.908"/></text><text opacity=".8" x="16211.102" y="-10419.84"><tspan stroke-width=".852251" x="16211.102" y="-10419.84"/></text><text opacity=".8" x="1057.9911" y="-10493.091"><tspan stroke-width=".852251" x="1057.9911" y="-10493.091"/></text><text opacity=".8" x="15896.954" y="-13269.121"><tspan stroke-width=".852251" x="15896.954" y="-13269.121"/></text><text opacity=".8" x="-8470.124" y="-10981.693"><tspan stroke-width=".852251" x="-8470.124" y="-10981.693"/></text><text opacity=".8" x="-26998.58" y="-3406.947"><tspan stroke-width=".852251" x="-26998.58" y="-3406.947"/></text><text opacity=".8" x="-9576.8447" y="-2463.3752"><tspan stroke-width=".852251" x="-9576.8447" y="-2463.3752"/></text><text opacity=".8" x="-1042.3842" y="-15.713047"><tspan stroke-width=".852251" x="-1042.3842" y="-15.713047"/></text><text opacity=".8" x="-798.94354" y="-429.64474"><tspan stroke-width=".852251" x="-798.94354" y="-429.64474"/></text><text opacity=".8" x="-13700.147" y="-2400.9546"><tspan stroke-width=".852251" x="-13700.147" y="-2400.9546"/></text><text opacity=".8" x="-5494.9961" y="-6601.7686"><tspan stroke-width=".852251" x="-5494.9961" y="-6601.7686"/></text><text opacity=".8" x="-5251.5552" y="-7015.6997"><tspan stroke-width=".852251" x="-5251.5552" y="-7015.6997"/></text><text opacity=".8" x="-20404.664" y="-7088.9526"><tspan stroke-width=".852251" x="-20404.664" y="-7088.9526"/></text><text opacity=".8" x="-5565.7036" y="-9864.9824"><tspan stroke-width=".852251" x="-5565.7036" y="-9864.9824"/></text><text opacity=".8" x="9533.1543" y="-3497.863"><tspan stroke-width=".852251" x="9533.1543" y="-3497.863"/></text><text opacity=".8" x="9776.5938" y="-3911.7952"><tspan stroke-width=".852251" x="9776.5938" y="-3911.7952"/></text><text opacity=".8" x="-5376.5146" y="-3985.0471"><tspan stroke-width=".852251" x="-5376.5146" y="-3985.0471"/></text><text opacity=".8" x="9462.4482" y="-6761.0771"><tspan stroke-width=".852251" x="9462.4482" y="-6761.0771"/></text><text opacity=".8" x="-14904.63" y="-4473.649900000001"><tspan stroke-width=".852251" x="-14904.63" y="-4473.649900000001"/></text><text opacity=".8" x="-33433.086" y="3101.0969"><tspan stroke-width=".852251" x="-33433.086" y="3101.0969"/></text><text opacity=".8" x="-16011.406" y="4044.6824"><tspan stroke-width=".852251" x="-16011.406" y="4044.6824"/></text><text x="1805.556" y="-3485.3901"><tspan stroke-width=".852251" x="1805.556" y="-3485.3901"/><tspan stroke-width=".852251" x="1805.556" y="-3324.5276"/></text><text opacity=".8" x="6531.7759" y="-8382.9131"><tspan stroke-width=".852251" x="6531.7759" y="-8382.9131"/></text><text opacity=".8" x="-11996.682" y="-808.1673"><tspan stroke-width=".852251" x="-11996.682" y="-808.1673"/></text><text opacity=".8" x="13918.828" y="-11278.44"><tspan stroke-width=".852251" x="13918.828" y="-11278.44"/></text><text opacity=".8" x="14162.268" y="-11692.372"><tspan stroke-width=".852251" x="14162.268" y="-11692.372"/></text><text opacity=".8" x="-990.84192" y="-11765.625"><tspan stroke-width=".852251" x="-990.84192" y="-11765.625"/></text><text opacity=".8" x="13848.12" y="-14541.655"><tspan stroke-width=".852251" x="13848.12" y="-14541.655"/></text></g><circle cx="-1463.6434" cy="410.83282" fill="url(#g)" r="0"/><circle cx="16.701561" cy="474.79477" fill="url(#i)" r="0"/><text opacity=".8" stroke-width=".852251" x="7015.2476" y="311.39581"><tspan stroke-width=".852251" x="7015.2476" y="311.39581"/></text><text opacity=".8" stroke-width=".852251" x="7267.2417" y="-117.08072"><tspan stroke-width=".852251" x="7267.2417" y="-117.08072"/></text><text opacity=".8" stroke-width=".852251" x="-8198.4746" y="-433.40961"><tspan stroke-width=".852251" x="-8198.4746" y="-433.40961"/></text><text opacity=".8" stroke-width=".852251" x="-27378.002" y="7407.5029"><tspan stroke-width=".852251" x="-27378.002" y="7407.5029"/></text><text opacity=".8" stroke-width=".852251" x="-6994.3843" y="-4485.792000000001"><tspan stroke-width=".852251" x="-6994.3843" y="-4485.792000000001"/></text><text opacity=".8" stroke-width=".852251" x="1499.0889" y="-8834.2178"><tspan stroke-width=".852251" x="1499.0889" y="-8834.2178"/></text><text opacity=".8" stroke-width=".852251" x="1751.0836" y="-9262.6943"><tspan stroke-width=".852251" x="1751.0836" y="-9262.6943"/></text><text opacity=".8" stroke-width=".852251" x="-13934.487" y="-9338.5205"><tspan stroke-width=".852251" x="-13934.487" y="-9338.5205"/></text><text opacity=".8" stroke-width=".852251" x="1425.897" y="-12212.097"><tspan stroke-width=".852251" x="1425.897" y="-12212.097"/></text><text opacity=".8" stroke-width=".852251" x="17055.311" y="-5621.2446"><tspan stroke-width=".852251" x="17055.311" y="-5621.2446"/></text><text opacity=".8" stroke-width=".852251" x="17307.303" y="-6049.7217"><tspan stroke-width=".852251" x="17307.303" y="-6049.7217"/></text><text opacity=".8" stroke-width=".852251" x="1621.7336" y="-6125.5474"><tspan stroke-width=".852251" x="1621.7336" y="-6125.5474"/></text><text opacity=".8" stroke-width=".852251" x="16982.119" y="-8999.124"><tspan stroke-width=".852251" x="16982.119" y="-8999.124"/></text><text opacity=".8" stroke-width=".852251" x="-8241.1885" y="-6631.3188"><tspan stroke-width=".852251" x="-8241.1885" y="-6631.3188"/></text><text opacity=".8" stroke-width=".852251" x="-27420.709" y="1209.5948"><tspan stroke-width=".852251" x="-27420.709" y="1209.5948"/></text><text opacity=".8" stroke-width=".852251" x="-9386.7959" y="2186.3215"><tspan stroke-width=".852251" x="-9386.7959" y="2186.3215"/></text><text opacity=".8" stroke-width=".852251" x="2276.7026" y="301.88058"><tspan stroke-width=".852251" x="2276.7026" y="301.88058"/></text><text opacity=".8" stroke-width=".852251" x="2528.6982" y="-126.5956"><tspan stroke-width=".852251" x="2528.6982" y="-126.5956"/></text><text opacity=".8" stroke-width=".852251" x="-13156.873" y="-202.42244"><tspan stroke-width=".852251" x="-13156.873" y="-202.42244"/></text><text opacity=".8" stroke-width=".852251" x="2203.511" y="-3075.998"><tspan stroke-width=".852251" x="2203.511" y="-3075.998"/></text><text opacity=".8" stroke-width=".852251" x="-8605.0732" y="-230.96802"><tspan stroke-width=".852251" x="-8605.0732" y="-230.96802"/></text><text opacity=".8" stroke-width=".852251" x="-27784.6" y="7609.9443"><tspan stroke-width=".852251" x="-27784.6" y="7609.9443"/></text><text opacity=".8" stroke-width=".852251" x="-7016.043" y="-9291.5996"><tspan stroke-width=".852251" x="-7016.043" y="-9291.5996"/></text><text opacity=".8" stroke-width=".852251" x="1477.4301" y="-13640.025"><tspan stroke-width=".852251" x="1477.4301" y="-13640.025"/></text><text opacity=".8" stroke-width=".852251" x="1729.4242" y="-14068.502"><tspan stroke-width=".852251" x="1729.4242" y="-14068.502"/></text><text opacity=".8" stroke-width=".852251" x="-13956.146" y="-14144.328"><tspan stroke-width=".852251" x="-13956.146" y="-14144.328"/></text><text opacity=".8" stroke-width=".852251" x="1404.2375" y="-17017.902"><tspan stroke-width=".852251" x="1404.2375" y="-17017.902"/></text><text opacity=".8" stroke-width=".852251" x="17033.65" y="-10427.055"><tspan stroke-width=".852251" x="17033.65" y="-10427.055"/></text><text opacity=".8" stroke-width=".852251" x="17285.645" y="-10855.528"><tspan stroke-width=".852251" x="17285.645" y="-10855.528"/></text><text opacity=".8" stroke-width=".852251" x="1600.0742" y="-10931.355"><tspan stroke-width=".852251" x="1600.0742" y="-10931.355"/></text><text opacity=".8" stroke-width=".852251" x="16960.457" y="-13804.932"><tspan stroke-width=".852251" x="16960.457" y="-13804.932"/></text><text opacity=".8" stroke-width=".852251" x="-8262.8467" y="-11437.129"><tspan stroke-width=".852251" x="-8262.8467" y="-11437.129"/></text><text opacity=".8" stroke-width=".852251" x="-27442.371" y="-3596.2139"><tspan stroke-width=".852251" x="-27442.371" y="-3596.2139"/></text><text opacity=".8" stroke-width=".852251" x="-9408.4561" y="-2619.4861"><tspan stroke-width=".852251" x="-9408.4561" y="-2619.4861"/></text><text opacity=".8" stroke-width=".852251" x="-574.1059" y="-85.81575"><tspan stroke-width=".852251" x="-574.1059" y="-85.81575"/></text><text opacity=".8" stroke-width=".852251" x="-322.11072" y="-514.2923"><tspan stroke-width=".852251" x="-322.11072" y="-514.2923"/></text><text opacity=".8" stroke-width=".852251" x="-13676.648" y="-2554.8723"><tspan stroke-width=".852251" x="-13676.648" y="-2554.8723"/></text><text opacity=".8" stroke-width=".852251" x="-5183.1772" y="-6903.2979"><tspan stroke-width=".852251" x="-5183.1772" y="-6903.2979"/></text><text opacity=".8" stroke-width=".852251" x="-4931.1826" y="-7331.7734"><tspan stroke-width=".852251" x="-4931.1826" y="-7331.7734"/></text><text opacity=".8" stroke-width=".852251" x="-20616.754" y="-7407.5996"><tspan stroke-width=".852251" x="-20616.754" y="-7407.5996"/></text><text opacity=".8" stroke-width=".852251" x="-5256.3691" y="-10281.177"><tspan stroke-width=".852251" x="-5256.3691" y="-10281.177"/></text><text opacity=".8" stroke-width=".852251" x="10373.045" y="-3690.3245"><tspan stroke-width=".852251" x="10373.045" y="-3690.3245"/></text><text opacity=".8" stroke-width=".852251" x="10625.039" y="-4118.8018"><tspan stroke-width=".852251" x="10625.039" y="-4118.8018"/></text><text opacity=".8" stroke-width=".852251" x="-5060.5322" y="-4194.627400000001"><tspan stroke-width=".852251" x="-5060.5322" y="-4194.627400000001"/></text><text opacity=".8" stroke-width=".852251" x="10299.854" y="-7068.2036"><tspan stroke-width=".852251" x="10299.854" y="-7068.2036"/></text><text opacity=".8" stroke-width=".852251" x="-14923.454" y="-4700.3989"><tspan stroke-width=".852251" x="-14923.454" y="-4700.3989"/></text><text opacity=".8" stroke-width=".852251" x="-34102.977" y="3140.5149"><tspan stroke-width=".852251" x="-34102.977" y="3140.5149"/></text><text opacity=".8" stroke-width=".852251" x="-16069.12" y="4117.2363"><tspan stroke-width=".852251" x="-16069.12" y="4117.2363"/></text><text opacity=".8" stroke-width=".852251" x="7015.2476" y="387.517"><tspan stroke-width=".852251" x="7015.2476" y="387.517"/></text><text opacity=".8" stroke-width=".852251" x="7267.2417" y="-40.95953"><tspan stroke-width=".852251" x="7267.2417" y="-40.95953"/></text><text opacity=".8" stroke-width=".852251" x="-8198.4746" y="-357.28845"><tspan stroke-width=".852251" x="-8198.4746" y="-357.28845"/></text><text opacity=".8" stroke-width=".852251" x="-27378.002" y="7483.624"><tspan stroke-width=".852251" x="-27378.002" y="7483.624"/></text><text opacity=".8" stroke-width=".852251" x="-6994.3843" y="-4409.6709"><tspan stroke-width=".852251" x="-6994.3843" y="-4409.6709"/></text><text opacity=".8" stroke-width=".852251" x="1499.0889" y="-8758.0957"><tspan stroke-width=".852251" x="1499.0889" y="-8758.0957"/></text><text opacity=".8" stroke-width=".852251" x="1751.0836" y="-9186.5732"><tspan stroke-width=".852251" x="1751.0836" y="-9186.5732"/></text><text opacity=".8" stroke-width=".852251" x="-13934.487" y="-9262.3984"><tspan stroke-width=".852251" x="-13934.487" y="-9262.3984"/></text><text opacity=".8" stroke-width=".852251" x="1425.897" y="-12135.976"><tspan stroke-width=".852251" x="1425.897" y="-12135.976"/></text><text opacity=".8" stroke-width=".852251" x="17055.311" y="-5545.123"><tspan stroke-width=".852251" x="17055.311" y="-5545.123"/></text><text opacity=".8" stroke-width=".852251" x="17307.303" y="-5973.6006"><tspan stroke-width=".852251" x="17307.303" y="-5973.6006"/></text><text opacity=".8" stroke-width=".852251" x="1621.7336" y="-6049.4263"><tspan stroke-width=".852251" x="1621.7336" y="-6049.4263"/></text><text opacity=".8" stroke-width=".852251" x="16982.119" y="-8923.001"><tspan stroke-width=".852251" x="16982.119" y="-8923.001"/></text><text opacity=".8" stroke-width=".852251" x="-8241.1885" y="-6555.1978"><tspan stroke-width=".852251" x="-8241.1885" y="-6555.1978"/></text><text opacity=".8" stroke-width=".852251" x="-27420.709" y="1285.7158"><tspan stroke-width=".852251" x="-27420.709" y="1285.7158"/></text><text opacity=".8" stroke-width=".852251" x="-9386.7959" y="2262.4436"><tspan stroke-width=".852251" x="-9386.7959" y="2262.4436"/></text><text opacity=".8" stroke-width=".852251" x="2276.7026" y="378.00177"><tspan stroke-width=".852251" x="2276.7026" y="378.00177"/></text><text opacity=".8" stroke-width=".852251" x="2528.6982" y="-50.474712"><tspan stroke-width=".852251" x="2528.6982" y="-50.474712"/></text><text opacity=".8" stroke-width=".852251" x="-13156.873" y="-126.30124"><tspan stroke-width=".852251" x="-13156.873" y="-126.30124"/></text><text opacity=".8" stroke-width=".852251" x="2203.511" y="-2999.8767"><tspan stroke-width=".852251" x="2203.511" y="-2999.8767"/></text><text opacity=".8" stroke-width=".852251" x="-8605.0732" y="-154.8465"><tspan stroke-width=".852251" x="-8605.0732" y="-154.8465"/></text><text opacity=".8" stroke-width=".852251" x="-27784.6" y="7686.0674"><tspan stroke-width=".852251" x="-27784.6" y="7686.0674"/></text><text opacity=".8" stroke-width=".852251" x="-7016.043" y="-9215.4795"><tspan stroke-width=".852251" x="-7016.043" y="-9215.4795"/></text><text opacity=".8" stroke-width=".852251" x="1477.4301" y="-13563.904"><tspan stroke-width=".852251" x="1477.4301" y="-13563.904"/></text><text opacity=".8" stroke-width=".852251" x="1729.4242" y="-13992.382"><tspan stroke-width=".852251" x="1729.4242" y="-13992.382"/></text><text opacity=".8" stroke-width=".852251" x="-13956.146" y="-14068.207"><tspan stroke-width=".852251" x="-13956.146" y="-14068.207"/></text><text opacity=".8" stroke-width=".852251" x="1404.2375" y="-16941.783"><tspan stroke-width=".852251" x="1404.2375" y="-16941.783"/></text><text opacity=".8" stroke-width=".852251" x="17033.65" y="-10350.934"><tspan stroke-width=".852251" x="17033.65" y="-10350.934"/></text><text opacity=".8" stroke-width=".852251" x="17285.645" y="-10779.409"><tspan stroke-width=".852251" x="17285.645" y="-10779.409"/></text><text opacity=".8" stroke-width=".852251" x="1600.0742" y="-10855.235"><tspan stroke-width=".852251" x="1600.0742" y="-10855.235"/></text><text opacity=".8" stroke-width=".852251" x="16960.457" y="-13728.812"><tspan stroke-width=".852251" x="16960.457" y="-13728.812"/></text><text opacity=".8" stroke-width=".852251" x="-8262.8467" y="-11361.006"><tspan stroke-width=".852251" x="-8262.8467" y="-11361.006"/></text><text opacity=".8" stroke-width=".852251" x="-27442.371" y="-3520.0923"><tspan stroke-width=".852251" x="-27442.371" y="-3520.0923"/></text><text opacity=".8" stroke-width=".852251" x="-9408.4561" y="-2543.365"><tspan stroke-width=".852251" x="-9408.4561" y="-2543.365"/></text><text opacity=".8" stroke-width=".852251" x="-574.1059" y="-9.694569"><tspan stroke-width=".852251" x="-574.1059" y="-9.694569"/></text><text opacity=".8" stroke-width=".852251" x="-322.11072" y="-438.17142"><tspan stroke-width=".852251" x="-322.11072" y="-438.17142"/></text><text opacity=".8" stroke-width=".852251" x="-13676.648" y="-2478.7507"><tspan stroke-width=".852251" x="-13676.648" y="-2478.7507"/></text><text opacity=".8" stroke-width=".852251" x="-5183.1772" y="-6827.1768"><tspan stroke-width=".852251" x="-5183.1772" y="-6827.1768"/></text><text opacity=".8" stroke-width=".852251" x="-4931.1826" y="-7255.6533"><tspan stroke-width=".852251" x="-4931.1826" y="-7255.6533"/></text><text opacity=".8" stroke-width=".852251" x="-20616.754" y="-7331.4795"><tspan stroke-width=".852251" x="-20616.754" y="-7331.4795"/></text><text opacity=".8" stroke-width=".852251" x="-5256.3691" y="-10205.056"><tspan stroke-width=".852251" x="-5256.3691" y="-10205.056"/></text><text opacity=".8" stroke-width=".852251" x="10373.045" y="-3614.2031"><tspan stroke-width=".852251" x="10373.045" y="-3614.2031"/></text><text opacity=".8" stroke-width=".852251" x="10625.039" y="-4042.6802"><tspan stroke-width=".852251" x="10625.039" y="-4042.6802"/></text><text opacity=".8" stroke-width=".852251" x="-5060.5322" y="-4118.5063"><tspan stroke-width=".852251" x="-5060.5322" y="-4118.5063"/></text><text opacity=".8" stroke-width=".852251" x="10299.854" y="-6992.082"><tspan stroke-width=".852251" x="10299.854" y="-6992.082"/></text><text opacity=".8" stroke-width=".852251" x="-14923.454" y="-4624.2773"><tspan stroke-width=".852251" x="-14923.454" y="-4624.2773"/></text><text opacity=".8" stroke-width=".852251" x="-34102.977" y="3216.6357"><tspan stroke-width=".852251" x="-34102.977" y="3216.6357"/></text><text opacity=".8" stroke-width=".852251" x="-16069.12" y="4193.3784"><tspan stroke-width=".852251" x="-16069.12" y="4193.3784"/></text><text stroke-width=".852251" x="2373.9075" y="-3601.292"><tspan stroke-width=".852251" x="2373.9075" y="-3601.292"/><tspan stroke-width=".852251" x="2373.9075" y="-3434.7769"/></text><text opacity=".8" stroke-width=".852251" x="7266.2017" y="-8670.9072"><tspan stroke-width=".852251" x="7266.2017" y="-8670.9072"/></text><text opacity=".8" stroke-width=".852251" x="-11913.324" y="-829.99481"><tspan stroke-width=".852251" x="-11913.324" y="-829.99481"/></text><text opacity=".8" stroke-width=".852251" x="14912.825" y="-11668.181"><tspan stroke-width=".852251" x="14912.825" y="-11668.181"/></text><text opacity=".8" stroke-width=".852251" x="15164.819" y="-12096.658"><tspan stroke-width=".852251" x="15164.819" y="-12096.658"/></text><text opacity=".8" stroke-width=".852251" x="-520.7522" y="-12172.484"><tspan stroke-width=".852251" x="-520.7522" y="-12172.484"/></text><text opacity=".8" stroke-width=".852251" x="14839.634" y="-15046.06"><tspan stroke-width=".852251" x="14839.634" y="-15046.06"/></text><circle cx="640.66174" cy="434.47015" fill="url(#h)" r="0"/><circle cx="146.82721" cy="406.70401" fill="url(#c)" r="0"/><text opacity=".8" stroke-width=".852251" x="10047.916" y="102.51606"><tspan stroke-width=".852251" x="10047.916" y="102.51606"/></text><text opacity=".8" stroke-width=".852251" x="10327.145" y="-372.26746"><tspan stroke-width=".852251" x="10327.145" y="-372.26746"/></text><text opacity=".8" stroke-width=".852251" x="-6810.0063" y="-722.78314"><tspan stroke-width=".852251" x="-6810.0063" y="-722.78314"/></text><text opacity=".8" stroke-width=".852251" x="-28062.33" y="7965.5234"><tspan stroke-width=".852251" x="-28062.33" y="7965.5234"/></text><text opacity=".8" stroke-width=".852251" x="-5475.7852" y="-5213.1206"><tspan stroke-width=".852251" x="-5475.7852" y="-5213.1206"/></text><text opacity=".8" stroke-width=".852251" x="3935.6064" y="-10031.494"><tspan stroke-width=".852251" x="3935.6064" y="-10031.494"/></text><text opacity=".8" stroke-width=".852251" x="4214.8354" y="-10506.279"><tspan stroke-width=".852251" x="4214.8354" y="-10506.279"/></text><text opacity=".8" stroke-width=".852251" x="-13165.93" y="-10590.299"><tspan stroke-width=".852251" x="-13165.93" y="-10590.299"/></text><text opacity=".8" stroke-width=".852251" x="3854.5044" y="-13774.434"><tspan stroke-width=".852251" x="3854.5044" y="-13774.434"/></text><text opacity=".8" stroke-width=".852251" x="21173.043" y="-6471.2852"><tspan stroke-width=".852251" x="21173.043" y="-6471.2852"/></text><text opacity=".8" stroke-width=".852251" x="21452.27" y="-6946.0693"><tspan stroke-width=".852251" x="21452.27" y="-6946.0693"/></text><text opacity=".8" stroke-width=".852251" x="4071.5056" y="-7030.0898"><tspan stroke-width=".852251" x="4071.5056" y="-7030.0898"/></text><text opacity=".8" stroke-width=".852251" x="21091.941" y="-10214.222"><tspan stroke-width=".852251" x="21091.941" y="-10214.222"/></text><text opacity=".8" stroke-width=".852251" x="-6857.3359" y="-7590.522"><tspan stroke-width=".852251" x="-6857.3359" y="-7590.522"/></text><text opacity=".8" stroke-width=".852251" x="-28109.654" y="1097.7861"><tspan stroke-width=".852251" x="-28109.654" y="1097.7861"/></text><text opacity=".8" stroke-width=".852251" x="-8126.7544" y="2180.0715"><tspan stroke-width=".852251" x="-8126.7544" y="2180.0715"/></text><text opacity=".8" stroke-width=".852251" x="4797.2598" y="91.972588"><tspan stroke-width=".852251" x="4797.2598" y="91.972588"/></text><text opacity=".8" stroke-width=".852251" x="5076.4888" y="-382.81088"><tspan stroke-width=".852251" x="5076.4888" y="-382.81088"/></text><text opacity=".8" stroke-width=".852251" x="-12304.276" y="-466.83234"><tspan stroke-width=".852251" x="-12304.276" y="-466.83234"/></text><text opacity=".8" stroke-width=".852251" x="4716.1577" y="-3650.9651"><tspan stroke-width=".852251" x="4716.1577" y="-3650.9651"/></text><text opacity=".8" stroke-width=".852251" x="-7260.5469" y="-498.4628"><tspan stroke-width=".852251" x="-7260.5469" y="-498.4628"/></text><text opacity=".8" stroke-width=".852251" x="-28512.871" y="8189.8438"><tspan stroke-width=".852251" x="-28512.871" y="8189.8438"/></text><text opacity=".8" stroke-width=".852251" x="-5499.7842" y="-10538.31"><tspan stroke-width=".852251" x="-5499.7842" y="-10538.31"/></text><text opacity=".8" stroke-width=".852251" x="3911.6069" y="-15356.685"><tspan stroke-width=".852251" x="3911.6069" y="-15356.685"/></text><text opacity=".8" stroke-width=".852251" x="4190.8354" y="-15831.467"><tspan stroke-width=".852251" x="4190.8354" y="-15831.467"/></text><text opacity=".8" stroke-width=".852251" x="-13189.93" y="-15915.488"><tspan stroke-width=".852251" x="-13189.93" y="-15915.488"/></text><text opacity=".8" stroke-width=".852251" x="3830.5046" y="-19099.621"><tspan stroke-width=".852251" x="3830.5046" y="-19099.621"/></text><text opacity=".8" stroke-width=".852251" x="21149.043" y="-11796.476"><tspan stroke-width=".852251" x="21149.043" y="-11796.476"/></text><text opacity=".8" stroke-width=".852251" x="21428.27" y="-12271.258"><tspan stroke-width=".852251" x="21428.27" y="-12271.258"/></text><text opacity=".8" stroke-width=".852251" x="4047.5066" y="-12355.278"><tspan stroke-width=".852251" x="4047.5066" y="-12355.278"/></text><text opacity=".8" stroke-width=".852251" x="21067.943" y="-15539.411"><tspan stroke-width=".852251" x="21067.943" y="-15539.411"/></text><text opacity=".8" stroke-width=".852251" x="-6881.3359" y="-12915.711"><tspan stroke-width=".852251" x="-6881.3359" y="-12915.711"/></text><text opacity=".8" stroke-width=".852251" x="-28133.656" y="-4227.4023"><tspan stroke-width=".852251" x="-28133.656" y="-4227.4023"/></text><text opacity=".8" stroke-width=".852251" x="-8150.7534" y="-3145.1165"><tspan stroke-width=".852251" x="-8150.7534" y="-3145.1165"/></text><text opacity=".8" stroke-width=".852251" x="1638.3547" y="-337.62357"><tspan stroke-width=".852251" x="1638.3547" y="-337.62357"/></text><text opacity=".8" stroke-width=".852251" x="1917.5835" y="-812.40729"><tspan stroke-width=".852251" x="1917.5835" y="-812.40729"/></text><text opacity=".8" stroke-width=".852251" x="-12880.224" y="-3073.5193"><tspan stroke-width=".852251" x="-12880.224" y="-3073.5193"/></text><text opacity=".8" stroke-width=".852251" x="-3468.8345" y="-7891.894"><tspan stroke-width=".852251" x="-3468.8345" y="-7891.894"/></text><text opacity=".8" stroke-width=".852251" x="-3189.6055" y="-8366.6777"><tspan stroke-width=".852251" x="-3189.6055" y="-8366.6777"/></text><text opacity=".8" stroke-width=".852251" x="-20570.369" y="-8450.6982"><tspan stroke-width=".852251" x="-20570.369" y="-8450.6982"/></text><text opacity=".8" stroke-width=".852251" x="-3549.9363" y="-11634.833"><tspan stroke-width=".852251" x="-3549.9363" y="-11634.833"/></text><text opacity=".8" stroke-width=".852251" x="13768.603" y="-4331.684100000001"><tspan stroke-width=".852251" x="13768.603" y="-4331.684100000001"/></text><text opacity=".8" stroke-width=".852251" x="14047.83" y="-4806.4678"><tspan stroke-width=".852251" x="14047.83" y="-4806.4678"/></text><text opacity=".8" stroke-width=".852251" x="-3332.9348" y="-4890.4893"><tspan stroke-width=".852251" x="-3332.9348" y="-4890.4893"/></text><text opacity=".8" stroke-width=".852251" x="13687.5" y="-8074.6226"><tspan stroke-width=".852251" x="13687.5" y="-8074.6226"/></text><text opacity=".8" stroke-width=".852251" x="-14261.777" y="-5450.9209"><tspan stroke-width=".852251" x="-14261.777" y="-5450.9209"/></text><text opacity=".8" stroke-width=".852251" x="-35514.098" y="3237.3877"><tspan stroke-width=".852251" x="-35514.098" y="3237.3877"/></text><text opacity=".8" stroke-width=".852251" x="-15531.258" y="4319.667000000001"><tspan stroke-width=".852251" x="-15531.258" y="4319.667000000001"/></text><text opacity=".8" stroke-width=".852251" x="10047.916" y="186.86383"><tspan stroke-width=".852251" x="10047.916" y="186.86383"/></text><text opacity=".8" stroke-width=".852251" x="10327.145" y="-287.91968"><tspan stroke-width=".852251" x="10327.145" y="-287.91968"/></text><text opacity=".8" stroke-width=".852251" x="-6810.0063" y="-638.435"><tspan stroke-width=".852251" x="-6810.0063" y="-638.435"/></text><text opacity=".8" stroke-width=".852251" x="-28062.33" y="8049.8706"><tspan stroke-width=".852251" x="-28062.33" y="8049.8706"/></text><text opacity=".8" stroke-width=".852251" x="-5475.7852" y="-5128.7725"><tspan stroke-width=".852251" x="-5475.7852" y="-5128.7725"/></text><text opacity=".8" stroke-width=".852251" x="3935.6064" y="-9947.1465"><tspan stroke-width=".852251" x="3935.6064" y="-9947.1465"/></text><text opacity=".8" stroke-width=".852251" x="4214.8354" y="-10421.93"><tspan stroke-width=".852251" x="4214.8354" y="-10421.93"/></text><text opacity=".8" stroke-width=".852251" x="-13165.93" y="-10505.951"><tspan stroke-width=".852251" x="-13165.93" y="-10505.951"/></text><text opacity=".8" stroke-width=".852251" x="3854.5044" y="-13690.085"><tspan stroke-width=".852251" x="3854.5044" y="-13690.085"/></text><text opacity=".8" stroke-width=".852251" x="21173.043" y="-6386.937"><tspan stroke-width=".852251" x="21173.043" y="-6386.937"/></text><text opacity=".8" stroke-width=".852251" x="21452.27" y="-6861.7217"><tspan stroke-width=".852251" x="21452.27" y="-6861.7217"/></text><text opacity=".8" stroke-width=".852251" x="4071.5056" y="-6945.7417"><tspan stroke-width=".852251" x="4071.5056" y="-6945.7417"/></text><text opacity=".8" stroke-width=".852251" x="21091.941" y="-10129.873"><tspan stroke-width=".852251" x="21091.941" y="-10129.873"/></text><text opacity=".8" stroke-width=".852251" x="-6857.3359" y="-7506.1743"><tspan stroke-width=".852251" x="-6857.3359" y="-7506.1743"/></text><text opacity=".8" stroke-width=".852251" x="-28109.654" y="1182.1339"><tspan stroke-width=".852251" x="-28109.654" y="1182.1339"/></text><text opacity=".8" stroke-width=".852251" x="-8126.7544" y="2264.4197"><tspan stroke-width=".852251" x="-8126.7544" y="2264.4197"/></text><text opacity=".8" stroke-width=".852251" x="4797.2598" y="176.32036"><tspan stroke-width=".852251" x="4797.2598" y="176.32036"/></text><text opacity=".8" stroke-width=".852251" x="5076.4888" y="-298.46313"><tspan stroke-width=".852251" x="5076.4888" y="-298.46313"/></text><text opacity=".8" stroke-width=".852251" x="-12304.276" y="-382.48431"><tspan stroke-width=".852251" x="-12304.276" y="-382.48431"/></text><text opacity=".8" stroke-width=".852251" x="4716.1577" y="-3566.6169"><tspan stroke-width=".852251" x="4716.1577" y="-3566.6169"/></text><text opacity=".8" stroke-width=".852251" x="-7260.5469" y="-414.11472"><tspan stroke-width=".852251" x="-7260.5469" y="-414.11472"/></text><text opacity=".8" stroke-width=".852251" x="-28512.871" y="8274.1924"><tspan stroke-width=".852251" x="-28512.871" y="8274.1924"/></text><text opacity=".8" stroke-width=".852251" x="-5499.7842" y="-10453.96"><tspan stroke-width=".852251" x="-5499.7842" y="-10453.96"/></text><text opacity=".8" stroke-width=".852251" x="3911.6069" y="-15272.335"><tspan stroke-width=".852251" x="3911.6069" y="-15272.335"/></text><text opacity=".8" stroke-width=".852251" x="4190.8354" y="-15747.119"><tspan stroke-width=".852251" x="4190.8354" y="-15747.119"/></text><text opacity=".8" stroke-width=".852251" x="-13189.93" y="-15831.14"><tspan stroke-width=".852251" x="-13189.93" y="-15831.14"/></text><text opacity=".8" stroke-width=".852251" x="3830.5046" y="-19015.273"><tspan stroke-width=".852251" x="3830.5046" y="-19015.273"/></text><text opacity=".8" stroke-width=".852251" x="21149.043" y="-11712.127"><tspan stroke-width=".852251" x="21149.043" y="-11712.127"/></text><text opacity=".8" stroke-width=".852251" x="21428.27" y="-12186.909"><tspan stroke-width=".852251" x="21428.27" y="-12186.909"/></text><text opacity=".8" stroke-width=".852251" x="4047.5066" y="-12270.93"><tspan stroke-width=".852251" x="4047.5066" y="-12270.93"/></text><text opacity=".8" stroke-width=".852251" x="21067.943" y="-15455.063"><tspan stroke-width=".852251" x="21067.943" y="-15455.063"/></text><text opacity=".8" stroke-width=".852251" x="-6881.3359" y="-12831.362"><tspan stroke-width=".852251" x="-6881.3359" y="-12831.362"/></text><text opacity=".8" stroke-width=".852251" x="-28133.656" y="-4143.0547"><tspan stroke-width=".852251" x="-28133.656" y="-4143.0547"/></text><text opacity=".8" stroke-width=".852251" x="-8150.7534" y="-3060.7683"><tspan stroke-width=".852251" x="-8150.7534" y="-3060.7683"/></text><text opacity=".8" stroke-width=".852251" x="1638.3547" y="-253.27579"><tspan stroke-width=".852251" x="1638.3547" y="-253.27579"/></text><text opacity=".8" stroke-width=".852251" x="1917.5835" y="-728.05927"><tspan stroke-width=".852251" x="1917.5835" y="-728.05927"/></text><text opacity=".8" stroke-width=".852251" x="-12880.224" y="-2989.1711"><tspan stroke-width=".852251" x="-12880.224" y="-2989.1711"/></text><text opacity=".8" stroke-width=".852251" x="-3468.8345" y="-7807.5464"><tspan stroke-width=".852251" x="-3468.8345" y="-7807.5464"/></text><text opacity=".8" stroke-width=".852251" x="-3189.6055" y="-8282.3301"><tspan stroke-width=".852251" x="-3189.6055" y="-8282.3301"/></text><text opacity=".8" stroke-width=".852251" x="-20570.369" y="-8366.3516"><tspan stroke-width=".852251" x="-20570.369" y="-8366.3516"/></text><text opacity=".8" stroke-width=".852251" x="-3549.9363" y="-11550.484"><tspan stroke-width=".852251" x="-3549.9363" y="-11550.484"/></text><text opacity=".8" stroke-width=".852251" x="13768.603" y="-4247.3364"><tspan stroke-width=".852251" x="13768.603" y="-4247.3364"/></text><text opacity=".8" stroke-width=".852251" x="14047.83" y="-4722.1201"><tspan stroke-width=".852251" x="14047.83" y="-4722.1201"/></text><text opacity=".8" stroke-width=".852251" x="-3332.9348" y="-4806.1406"><tspan stroke-width=".852251" x="-3332.9348" y="-4806.1406"/></text><text opacity=".8" stroke-width=".852251" x="13687.5" y="-7990.2754"><tspan stroke-width=".852251" x="13687.5" y="-7990.2754"/></text><text opacity=".8" stroke-width=".852251" x="-14261.777" y="-5366.5723"><tspan stroke-width=".852251" x="-14261.777" y="-5366.5723"/></text><text opacity=".8" stroke-width=".852251" x="-35514.098" y="3321.7349"><tspan stroke-width=".852251" x="-35514.098" y="3321.7349"/></text><text opacity=".8" stroke-width=".852251" x="-15531.258" y="4404.0376"><tspan stroke-width=".852251" x="-15531.258" y="4404.0376"/></text><text stroke-width=".852251" x="4904.9702" y="-4233.0293"><tspan stroke-width=".852251" x="4904.9702" y="-4233.0293"/><tspan stroke-width=".852251" x="4904.9702" y="-4048.5186"/></text><text opacity=".8" stroke-width=".852251" x="10325.991" y="-9850.5342"><tspan stroke-width=".852251" x="10325.991" y="-9850.5342"/></text><text opacity=".8" stroke-width=".852251" x="-10926.333" y="-1162.2284"><tspan stroke-width=".852251" x="-10926.333" y="-1162.2284"/></text><text opacity=".8" stroke-width=".852251" x="18799.014" y="-13171.733"><tspan stroke-width=".852251" x="18799.014" y="-13171.733"/></text><text opacity=".8" stroke-width=".852251" x="19078.24" y="-13646.519"><tspan stroke-width=".852251" x="19078.24" y="-13646.519"/></text><text opacity=".8" stroke-width=".852251" x="1697.4747" y="-13730.54"><tspan stroke-width=".852251" x="1697.4747" y="-13730.54"/></text><text opacity=".8" stroke-width=".852251" x="18717.912" y="-16914.674"><tspan stroke-width=".852251" x="18717.912" y="-16914.674"/></text><circle cx="-334.20581" cy="468.24725" fill="url(#j)" r="229.9369"/><path d="m-96.785171 457.29546c5.705766-64.50218-63.311629-161.8883-92.073909-209.45261-7.26198 5.31028-11.33685 18.37383-11.33685 18.37383-42.78314-33.86492-38.6028-41.92468-56.5819-65.78374-133.27991 195.74201 135.70784 179.85217 20.17515 339.97888-1.8964 1.19152-1.83828-9.38287-11.70165-24.62795-12.53849 59.79613-93.52285 98.22756-156.04354 40.47083 18.50998 4.02275 53.65087-.62592 69.20551-12.18042.0197-.01.0395-.0296.0592-.0395 16.89147-11.53218 26.89399-19.95284 35.87689-17.96067 8.98853 2.00314 14.97226-7.00365 7.99092-14.99427-6.98964-8.00611-23.9598-19.00961-46.9201-13.01394-16.192 4.23452-36.25916 22.12301-66.88753 4.00992-23.50893-13.90868-25.72274-25.46279-25.93115-33.46525.57952-2.83666 1.31117-5.48535 2.17897-7.9057 2.70566-7.54596 10.91139-9.82305 15.47516-11.62074 7.74212 1.32756 14.41159 3.73873 21.41584 7.32599.089-2.32724.11946-5.41684-.009-8.92099.67133-1.3321.2557-5.35021-.82041-10.26217-.62-4.90191-1.62856-9.97372-3.21597-14.59435.006-.00091.01-.005.01-.007.0296-.01.0494-.0197.079-.0297.0395-.0197.0691-.0494.0987-.0888.006-.01.01-.0197.0197-.0197.0395-.0592.0691-.12933.0987-.22214.48573-2.19573 5.72596-6.43114 12.24833-10.98434 5.84472-4.08021 12.71639-8.41513 18.12959-11.7704 4.79132-2.97094 8.43882-5.17498 9.2143-5.75292.29322-.22213.64665-.48078 1.03049-.77794.0691-.0592.14316-.11058.21622-.16883.0494-.0395.0888-.0691.13623-.10662 2.57584-2.04875 6.42178-5.91897 7.22826-14.06487.002-.0197.005-.0395.006-.0592.0197-.23892.0395-.48178.0592-.72958.01-.17177.0197-.34553.0395-.52127.007-.13525.0197-.26951.0197-.40674.01-.32184.0197-.64961.0297-.98133 0-.0197.00089-.0395.002-.0592.01-.78881-.003-1.61049-.0494-2.47336-.0297-.48178-.0592-.91716-.14117-1.31285-.004-.0197-.01-.0395-.01-.0691-.009-.0395-.0197-.079-.0297-.11551-.0197-.0691-.0395-.1392-.0592-.20436-.003-.009-.006-.0197-.009-.0197-.0197-.079-.0494-.15006-.079-.22114-.002-.003-.002-.005-.003-.008-.83521-1.95288-3.96214-2.69065-16.87874-2.90972-.01-.00089-.0197-.00089-.0395-.00089-5.27054-.0889-12.16235-.0889-21.19471-.0592-15.83441.0592-24.58699-15.45621-27.38042-21.46106 3.82945-21.14149 14.89535-36.20703 33.0744-46.4235.34356-.19351.27642-.35344-.13032-.465 3.5543-2.14736-42.97899-.0592-64.38209 27.12265-18.99639-4.71472-35.55328-4.39701-49.82232-1.0536-2.74041-.079-6.15472-.4176-10.20827-1.26081-9.49045-8.58593-23.07552-24.44296-23.80332-43.37142 0 0-.0395.0395-.11946.0987-.01-.18167-.0296-.36134-.0395-.543 0 0-28.9157 22.18966-24.58788 82.68445-.01.9685-.0296 1.89543-.0592 2.79382-7.82535 10.59814-11.70881 19.50631-11.99777 21.47291-6.93198 14.09676-13.96822 35.31042-19.69408 67.51573 0 0 4.00409-12.67975 12.0416-27.0413-5.67578 63.40795-.62702 105.01851 31.48843 161.98706 74.00929 115.05085 190.80203 136.30185 286.27005 101.50851 95.46801-34.79335 169.611294-125.63103 158.321649-234.75753z" fill="url(#k)"/><path d="m-553.67047 366.69899c12.38803-22.87026 24.0289-37.8747 49.29265-42.35109-14.2097-13.54795-18.25664-21.07821-24.79885-44.23754-25.27363 27.33778-25.10658 55.73991-24.4938 86.58863z" fill="url(#d)" fill-rule="evenodd"/><path d="m-396.15881 423.87959c14.7295-19.36868 60.78041-29.85507 47.25813-56.55675-31.71732-8.08243-51.59473 6.95824-64.20094-22.80975-10.88316 41.94988 3.77229 62.16069 16.94281 79.3665z" fill="url(#e)" fill-rule="evenodd"/><path d="m-422.63461 451.27432c-62.01871 6.16272-51.32087 39.46615-46.93007 72.78123l15.87855-13.22896c11.14281 32.40562 76.92413 27.22296 113.39141 15.88339 16.61139-5.1654 31.37406-3.8948 37.79997-1.26201 18.09631 3.88345 16.88703-11.45072 8.9749-16.0139-43.31505-49.30993-83.31816 45.46272-136.70485-35.02747-3.26385-4.92085-.0494-12.98541 7.59009-23.13228z" fill="url(#f)" fill-rule="evenodd"/><path d="m-167.26662 325.28692c28.19466 96.91877-2.41171 65.28934.90231 142.7367-18.94444-7.80471-13.95547-43.78396-7.9146-44.08542-78.38634 61.66738-48.87039 117.72962-77.97895 140.87501-85.6249 65.06699-69.9199 55.24168-71.25544 57.0089 22.13333 39.75884 53.84175 53.01067 78.36551 61.98396 120.39278-41.96832 173.924546-151.79875 143.6946-268.37127-5.79555-30.28704-18.33847-64.16244-65.81344-90.14788z" fill="url(#l)"/></g></svg>