<svg height="48" width="48" xmlns="http://www.w3.org/2000/svg" xmlns:xlink="http://www.w3.org/1999/xlink"><linearGradient id="a" gradientTransform="matrix(1.0523327 0 0 1.0276135 -21.151387 -14.039869)" gradientUnits="userSpaceOnUse" x1="409.57144" x2="409.57144" y1="542.79797" y2="507.798"><stop offset="0" stop-color="#2a2c2f"/><stop offset="1" stop-color="#424649"/></linearGradient><filter id="b" color-interpolation-filters="sRGB"><feColorMatrix result="result3" type="saturate" values="0"/><feColorMatrix in="SourceGraphic" result="colormatrix" values="0 0 0 0 0 0 0 0 0 0 0 0 0 0 0 1 -0.5 -0.5 0 0"/><feFlood flood-color="#440086" result="result1"/><feComposite in2="colormatrix" operator="in" result="result2"/><feComposite in2="colormatrix" k1="0" k2="1" k3="-0.5" k4="0" operator="arithmetic" result="result12"/><feBlend in="result12" in2="result3" mode="normal" result="result6"/><feColorMatrix in="SourceGraphic" result="colormatrix" values="0 0 0 0 0 0 0 0 0 0 0 0 0 0 0 -0.5 1 -0.5 0 0"/><feFlood flood-color="#fe3f00" result="result4"/><feComposite in2="colormatrix" operator="in" result="result5"/><feComposite in2="colormatrix" k1="0" k2="1" k3="-0.5" k4="0" operator="arithmetic" result="result13"/><feBlend in="result13" in2="result6" mode="normal" result="result9"/><feColorMatrix in="SourceGraphic" result="colormatrix" values="0 0 0 0 0 0 0 0 0 0 0 0 0 0 0 -0.5 -0.5 1 0 0"/><feFlood flood-color="#fc0" result="result7"/><feComposite in2="colormatrix" operator="in" result="result8"/><feComposite in2="colormatrix" k1="0" k2="1" k3="-0.5" k4="0" operator="arithmetic" result="result14"/><feBlend in="result14" in2="result9" mode="normal" result="result10"/><feComposite in="result10" in2="SourceGraphic" operator="in" result="result11"/></filter><linearGradient id="c" gradientUnits="userSpaceOnUse" x1="399.57144" x2="399.57144" y1="545.79797" y2="517.79797"><stop offset="0" stop-color="#3889e9"/><stop offset="1" stop-color="#5ea5fb"/></linearGradient><linearGradient id="d" gradientUnits="userSpaceOnUse" x1="400.55615" x2="400.55615" y1="546.92657" y2="516.4751"><stop offset="0" stop-color="#187ced"/><stop offset="1" stop-color="#42d6fc"/></linearGradient><linearGradient id="e" gradientTransform="matrix(1.1037577 0 0 1.1001895 382.90055 514.18825)" gradientUnits="userSpaceOnUse" x1="16.038231" x2="16.038231" y1="29.505291" y2="2.319564"><stop offset="0" stop-color="#0164c2"/><stop offset="1" stop-color="#00a9f3"/></linearGradient><linearGradient id="f" gradientUnits="userSpaceOnUse" x1="-324.94363" x2="-328.20999" y1="649.7406" y2="307.75275"><stop offset="0" stop-color="#016ed4"/><stop offset="1" stop-color="#00b1ff"/></linearGradient><g transform="matrix(.939161673122 0 0 .939161673122 -378.01193007907 -451.871992980635)"><rect fill="url(#a)" height="34.938858" ry="1.644182" transform="matrix(1.1038121 0 0 1.1038121 -23.304884 -69.47145)" width="46.302639" x="385.65039" y="507.78021"/><g fill="#fff"><circle cx="449.517423309361" cy="495.06260637782" r="2.069263935"/><circle cx="444.433913182254" cy="495.106502363428" r="2.069263935"/><circle cx="439.43689828763" cy="495.155502533409" r="2.069263935"/></g><g fill="#fff" transform="matrix(.11488639 0 0 .10931174 407.6586 498.26363)"><path d="m133.523 78.097c-.488-.489-1.113-.733-1.873-.733h-78.215c-.76 0-1.385.244-1.874.733-.488.489-.732 1.113-.732 1.874v5.215c0 .76.244 1.385.732 1.873.489.488 1.114.733 1.874.733h78.215c.76 0 1.385-.245 1.873-.733s.732-1.113.732-1.873v-5.215c.001-.761-.243-1.385-.732-1.874z" fill="#fff"/><path d="m8.38 1.022c-.543-.543-1.168-.815-1.874-.815s-1.33.272-1.873.815l-4.074 4.074c-.543.543-.814 1.167-.814 1.874s.271 1.331.814 1.874l32.02 32.019-32.02 32.02c-.543.543-.814 1.168-.814 1.873 0 .707.271 1.331.814 1.874l4.074 4.073c.543.544 1.167.814 1.873.814s1.331-.271 1.874-.814l37.967-37.966c.543-.543.814-1.169.814-1.875s-.271-1.331-.814-1.874z" fill="#fff"/></g></g><g filter="url(#b)" transform="matrix(.830944493632 0 0 .816143948962 -299.23191166445 -419.462505311916)"><circle cx="400.57138" cy="531.79791" fill="url(#c)" r="0"/><g transform="matrix(1.0508504 0 0 1.0508504 -20.353166 -26.940048)"><circle cx="400.57138" cy="531.79791" fill="url(#d)" r="13.999958" stroke="url(#d)" stroke-width="1.427415"/><path d="m400.58867 517.1292c-1.85598 0-3.62255.35291-5.25513.97257-.11873.10877-.27308.19228-.39518.18193-.0172-.002-.0332-.0116-.051-.0186-.80476.3356-1.56814.74678-2.292 1.2132.094.15218.122.32162-.0713.40394-.0325.0131-.44189.0551-.58485.0521-2.05845 1.4909-3.7097 3.49609-4.76512 5.83692.017-.003.0317-.01.0496-.0108.16019-.003.3907.0428.54456.0756.14198.0291.2565.12404.37939.13324.34872.0266.43256-.24393.71704-.39534.29399.041.48904-.05.75447-.0204.18094.0204.31166.21264.45265.22345.11861.0116.22297-.11079.33772-.0933.11151.0175.30376.25947.32191.39533.0235.16908-.1248.32134-.076.50707.17772.18037.50058.21693.75444.32085.16536-.13582.0222-.38782 0-.5844-.003-.0868.0116-.16376 0-.24352-.0146-.13539-.0731-.25939-.074-.37527-.003-.53515.43312-.78562.79322-.9969.15588-.0921.27861-.25349.41385-.3209.19105-.0954.33331-.11769.49145-.20627.28585-.16003.53095-.28845.75446-.46979.10317-.24267.01-.56804.0192-.80787.10322-.0631.19216.0272.30175.0187.17244-.0355.1868-.27839.28453-.37523.0567-.0557.2125-.0951.28304-.15044.1719-.13436.22786-.33737.37802-.3953.0539-.022.17803-.0149.26297-.0382.11168-.0296.27068-.16121.45262-.22338.11858-.041.39017-.0496.43542-.0944.0559-.0567-.00078-.21586.0192-.30079.0915-.42453.73299-.51451 1.11222-.65747.26581-.0999.53852-.2842.8306-.22776-.0573.20177-.32924.13027-.28313.3753.0636.34.52046-.0971.64097-.14754.23012-.0965.62481-.15576.92684-.26499.26485-.0965.73966-.2438.49007-.54572-.20825-.0116-.30858.24351-.49007.32084-.12535.0205-.10114-.10456-.20836-.11454-.10131-.0116-.15857.0934-.26303.0753-.10376-.017-.24958-.17978-.26581-.30078-.0411-.31393.26617-.44335.39665-.67754-.0866-.28393-.48037-.0579-.71852-.16898.0234-.16908.19845-.28568.39659-.31798.16243-.0272.52695-.0131.62368.0724.0561.0482.004.16606.0947.24492.0961.0868.21442.0774.33919.0575.0444-.21429-.27958-.16053-.24429-.30224.25485-.16618.66947-.0299.98151-.0756.17959-.0266.36814-.15279.52735-.24205.15139-.0859.34806-.23519.5087-.0945.0426.15356-.13991.20438-.22563.28074-.28863.25598-.58606.54922-.81042.84651.13761.13385.3878.0664.62079.0944.0911.0116.20542.0385.30172.0562.11274.0205.23239.014.32044.0372.15855.0384.2009.20769.35784.20769.25813-.00046.26121-.27878.11491-.45264.0462-.17749.11858-.26958.0564-.39391-.11627-.23179-.54284-.0116-.56474-.30079-.0134-.18752.15741-.17914.2256-.31939-.031-.36232.29812-.38857.26295-.71332-.0147-.13586-.13015-.13774-.22561-.26501-.0485-.0621-.0723-.1825-.12788-.23633-.44028-.0383-.88553-.0629-1.33637-.0629zm-7.59319 2.95925h.002c.088.0116.19396.10653.30031.11468.10024.003.18375-.0555.24575-.0383.15777.0411.22428.27893.0754.39532-.12333.0149-.17141-.0541-.26438-.0373-.25625.0429-.35456.5437-.54609.52713-.18059-.0145-.27833-.45382-.0946-.58439.0116-.11405-.0838-.13228-.0774-.24495.0545-.0692.20918-.14382.35925-.13175zm-.84925.0589c.0525.002.0918.014.11207.037-.0252.20046-.1824.1873-.33771.28073-.26827.16136-.42333.4073-.50869.752-.0249.0999-.28905.36608-.41673.33948-.2992-.0628.0831-.6126.15088-.69616.0759-.0926.17689-.17379.26585-.28073.0862-.10351.14246-.24334.22561-.30079.0911-.0628.35109-.13781.5087-.13173zm2.23309.67606c.0957.002.182.0175.22132.0562-.0615.24836-.59837.18278-.79465.0929.0116-.0936.15957-.11953.28307-.13174.0871-.003.19462-.0205.29026-.0173zm-1.2214.45839c.0636-.002.12838.0116.1954.0299-.17362.14477-.36141.22677-.6596.32083-.14337.0447-.39096.10079-.41528-.0589-.0297-.1956.20966-.1501.34054-.16759.16486-.023.3458-.11843.53894-.12466zm18.73867 1.11438c-.0227.054-.0383.10603-.0359.15753.0116.0908.1114.17807.13361.30083.0116.0652-.0306.20563 0 .265.0909.17558.32859.0499.49867.0589-.1932-.26517-.38615-.53084-.59638-.78205zm.96424 1.29343c-.0272.12957-.1154.29857-.18681.40678-.16446.24932-.38786.26095-.62367.39389-.19665.11114-.28133.29661-.39662.48987-.12496.20879-.20235.33493-.15085.63745-.16863.33334-.42392.53755-.77314.69611-.10313.0465-.24438.0638-.33915.13173-.0752.0543-.11831.19933-.2256.3194-.13228.14678-.27102.20871-.34057.32085-.0539.0868-.0721.25902-.13217.37528-.0809.15796-.25207.23533-.35788.39535-.0482.0738-.0808.22396-.13359.32087-.11958.21649-.32373.37246-.30181.5629.0221.18406.23145.21627.24572.37671.003.0907-.0601.14614-.0564.24494.003.14432.10068.24563.11207.35668.0282.27921-.0951.39064-.148.58152-.0252.0912-.014.1938-.0384.26501-.047.13974-.24183.26588-.24575.43111-.002.11748.12095.21189.13084.37676.003.1138-.0563.23497-.0356.33948.0398.2046.40661.4426.56623.60155.21341.21279.49284.37743.58484.60163.0772.19038.0765.43801.22562.58154.11003.10591.29302.17198.43397.28214.13152.10269.27476.19169.4153.30078.22963.17912.57685.53607.94267.50855.19106-.0131.38685-.16932.60359-.20772.22292-.0395.51225-.0605.73714-.037.17229.017.34974.11991.52883.11169.18909-.0116.40595-.15138.62081-.2449.17288-.0748.38504-.15815.6179-.21919.10687-.71541.16383-1.44837.16383-2.19439 0-3.00334-.90096-5.78701-2.44289-8.10721zm-24.33732 4.92877c-.31345.0173-.51877.0313-.69696.11172-.40822.18517-.32939.73504-.73725.86515-.14096.0446-.33466.0471-.4899.0754-.13411.0247-.29738.0971-.43543.0943-.0384-.00047-.0927-.0292-.14087-.0438-.0359.25782-.0661.51855-.0894.78059.38804.0737.5883.58671.93125.7563.0939.0467.2167.0495.33766.0758.0973.022.1718.0628.2658.0946.1996.0673.44397.0594.60361.13041.24046.1064.41684.55691.62366.67751.0116.12152-.0241.2847.0192.37524.0974.13215.2356.10281.39656.18908.19261.10351.25154.37093.43402.45263.0629.028.22088.0243.32045.0548.25008.0752.3317.36385.54608.30082.14058-.041.12949-.18547.1523-.31944.0929-.0999.19431-.25928.33913-.26212.23443-.0116.25531.24146.34056.46837.0484.12829.17406.24001.20695.37529.0585.23369.0294.93319-.0206 1.07286-.0591.17136-.2919.24402-.43541.43401-.0675.0892-.0996.21957-.15089.28217-.0924.11222-.22974.14148-.29886.24495-.0388.0583-.077.18333-.11506.2621-.11328.23933-.26486.40887-.16958.69615.0396.11821.22513.19746.22563.3366.00053.16375-.3494.31035-.37647.48986-.0206.13358.10823.37196.15084.54575.0312.13135.28015.21345.35784.30079.13242.14821.23827.35816.35923.54432.23923.36613.4267.81264.65962 1.16738.12306.18581.29591.35285.37791.54572.0416.0971.0359.21334.0743.3008.13478.30334.73021.62005 1.03751.77063.14381.0695.30343.0944.43542.16756.19995.11115.59601.40966.69697.58444.0901.15707.14594.53943.18965.7892.0586.33011.00067.58358.0192.94108.0116.19335.0735.38772.076.58156.00075.0677-.0359.11834-.0386.18762-.00011.0108.004.0243.004.0355 1.85316.83591 3.90667 1.31205 6.08001 1.31205.39265 0 .78068-.0207 1.16539-.0508.0173-.0289.0323-.059.0537-.086.0888-.11592.16728-.2174.2257-.31944.0559-.3434-.13742-.58325-.0564-.88373.0902-.33767.55841-.54385.88672-.69622.11281-.0523.22846-.13714.32037-.169.22721-.0789.51087-.0357.71852-.11171.35352-.12895.39044-.5069.56474-.82794.0826-.15194.19085-.30424.20695-.41248.0139-.0971-.0357-.18886-.0205-.30367.0169-.11356.11926-.2118.15087-.33663.0411-.16287.0591-.40152.0591-.58294 0-.14895-.0697-.2796-.0753-.41398-.0247-.48778.17678-.54235.35784-.80783.0909-.13185.12484-.28222.18823-.37674.30401-.45201.83139-.67024.79324-1.35356-.0116-.22611-.15498-.73712-.32188-.80927-.0954-.0411-.31452-.003-.45268-.0562-.44593-.16576-.70762-.71678-1.16973-.75202-.0984-.0116-.18924.0401-.3003.0383-.18288-.0116-.45861-.12765-.66103-.15041-.12869-.0131-.30074.0379-.37799 0-.1177-.0572-.12975-.27352-.22561-.33805-.0755-.0526-.22383-.0696-.33913-.11451-.18578-.0705-.33311-.15412-.54746-.16899-.066-.003-.14858.0313-.22562.0205-.1186-.0205-.21245-.15993-.32186-.22633-.13713-.0835-.26382-.12347-.32049-.24207.12387-.40504-.21847-.51794-.30179-.75199-.0396-.10969-.0218-.24164-.0564-.33946-.0497-.14016-.18819-.22112-.34058-.33803-.27301-.20945-.51516-.40611-.90532-.45407-.17153-.022-.3417.0516-.54896.0383-.21958-.0131-.49531-.20535-.65954-.39248-.15973-.18272-.23738-.34668-.37652-.43401-.13178-.0845-.30668-.0825-.39663-.16758-.04-.0372-.0328-.1009-.0761-.18912-.0661-.13674-.17753-.21281-.0946-.37667-.15036-.0771-.1545.14299-.31901.11451-.1467-.20744-.27055-.30573-.60358-.24492-.15248.0281-.23761.22012-.41528.22492-.14573.0116-.26021-.16187-.45264-.18913-.14529-.0205-.31049.0388-.41389.0201-.16102-.032-.21072-.1657-.35783-.26213-.10786-.0704-.31742-.19101-.37792-.18907-.18963.0116-.32477.40169-.58629.2636-.12711-.1606.20701-.24519.0564-.39542-.11427-.11391-.21034.0521-.30174.11467-.10479.0718-.20325.14349-.31905.18621-.25917.0965-.42114.0463-.62366.15041-.18753.0966-.19553.25881-.30177.45118-.0871.1576-.28475.38723-.41532.39675-.1581.0116-.30923-.22033-.45264-.28213-.43208-.18658-.64138.16563-1.00012.17041-.33298.0116-.80855-.53592-.79184-.84795.003-.19036.10985-.47921.13217-.71478.0206-.18732.14875-.30019.15094-.47124.003-.2284-.30398-.40401-.45272-.43114-.35247-.0645-.84183.14138-1.24581-.0205-.0768-.12743.0905-.21552.13361-.33947.0248-.0702.01-.16453.0358-.24208.0444-.11978.17068-.2126.22697-.33946.0415-.0966.0528-.23654.0946-.35666.0501-.13678.14023-.22491.15091-.32084.0131-.12667-.034-.27316-.1337-.35666zm5.04392 3.98057c.1279.0116.14389.27532.0129.29654-.14109.0221-.2128-.22055-.0756-.28367.0233-.0116.045-.0116.0631-.0108v-.002z" fill="url(#e)"/><g/><g transform="matrix(.95161024 0 0 .95161024 -17.495916 34.423444)"><g transform="matrix(.09021051 0 0 .09021051 438.33618 482.07658)"><g transform="matrix(1.2040873 0 0 1.2040873 -35.719223 -130.84965)"><g transform="matrix(9.206295 0 0 9.206295 -4262.746600000001 -3635.204)"><g transform="matrix(.09021051 0 0 .09021051 438.33618 482.07658)"><g transform="matrix(1.2040873 0 0 1.2040873 63.520816 -89.411289)"><g transform="matrix(15.075 0 0 15.075 -6218.9215 -8263.6188)"><circle cx="400.57138" cy="531.79791" fill="url(#c)" r="0"/></g></g></g></g><g/><g transform="translate(-14.073535 -2.010505)"><g transform="matrix(.95946374 0 0 .95946374 -17.710787 32.814237)"><g transform="translate(107.06922 39.919379)"><g transform="translate(.000003 -.878764)"><g/><g transform="matrix(1.051075 0 0 1.051075 16.460236 -22.650073)"><g fill="url(#f)" stroke-width="15.270183" transform="matrix(1.2631853 0 0 1.2631853 90.227386 -154.96066)"><g fill="url(#f)" stroke-width="1.735815" transform="matrix(8.7971266 0 0 8.7971266 -3865.8704 -4050.7977)"><g fill="url(#f)" transform="matrix(1.6781385 0 0 1.6781385 -263.91891 -368.65033)"/><g fill="url(#f)" transform="matrix(1.0907255 0 0 1.0907255 -87.783225 -57.81163)"/></g></g><g/></g></g></g></g></g></g></g></g></g></g></svg>