<svg height="48" viewBox="0 0 48 48.000001" width="48" xmlns="http://www.w3.org/2000/svg" xmlns:xlink="http://www.w3.org/1999/xlink"><linearGradient id="a" gradientUnits="userSpaceOnUse" x1="23.72323" x2="23.809927" y1="1051.571425" y2="1005.410622"><stop offset="0" stop-color="#5783a3"/><stop offset="1" stop-color="#91b9d5"/></linearGradient><linearGradient id="b" gradientUnits="userSpaceOnUse" x1="23.318711618828" x2="23.14402161875" y1="1050.5302496942" y2="1006.246477500606"><stop offset="0" stop-color="#f2f2f2"/><stop offset="1" stop-color="#f9f9f9"/></linearGradient><g transform="translate(0 -1004.3622)"><path d="m24 1005.8622c12.426848 0 22.5 10.0732 22.5 22.5s-10.073152 22.5-22.5 22.5-22.5-10.0732-22.5-22.5 10.073152-22.5 22.5-22.5z" fill="url(#b)"/><path d="m24 15c-1.65675 0-3 1.3433-3 3 0 .8276.339831 1.568375.880859 2.109375l.123047.123047h-.003906l3.767578 3.767578 2 2 13.353516 13.353516c1.356779-1.51197 2.513987-3.206169 3.435547-5.039063l-12.435547-12.435547-5.998047-6c-.542969-.543-1.294266-.878906-2.123047-.878906zm-6 6c-1.280421-.02-2.503401.878322-2.865234 2.107422-.337342 1.0413-.030694 2.244672.738281 3.013672l18.4375 18.4375c1.834393-.921876 3.529926-2.079758 5.042969-3.4375l-15.353516-15.353516-3.767578-3.767578c-.135534-.1217-.330501-.330072-.517578-.451172-.496573-.355-1.104031-.550928-1.714844-.548828z" fill-opacity=".078431" transform="translate(0 1004.3622)"/><path d="m24 15c-1.65675 0-3 1.3433-3 3 0 .8922.395598 1.683522 1.011719 2.232422h-.011719l2 2 2-2h-.013672c.61715-.5495 1.013672-1.341222 1.013672-2.232422 0-1.66-1.34325-3-3-3zm-6 6c-1.280421-.02-2.503401.878322-2.865234 2.107422-.382311 1.1801.062983 2.568475 1.070312 3.296875.988161.764 2.461653.795412 3.478516.070312.205574-.131.41053-.345481.5625-.488281.662236-.6622 1.324091-1.324128 1.986328-1.986328-.666667-.6667-1.333333-1.3333-2-2-.135534-.1217-.330501-.330072-.517578-.451172-.496573-.355-1.104031-.550928-1.714844-.548828zm12 0c-.892151 0-1.68347.395619-2.232422 1.011719v-.011719l-2 2 2 2v-.013672c.549506.6172 1.341208 1.013672 2.232422 1.013672 1.66 0 3-1.3432 3-3 0-1.6567-1.343333-3-3-3zm-6 4.767578-2 2h .013672c-.617149.5495-1.013672 1.341222-1.013672 2.232422 0 1.66 1.34325 3 3 3s3-1.3433 3-3c0-.8922-.395598-1.683522-1.011719-2.232422h.011719z" fill="#d8541f" transform="translate(0 1004.3622)"/><path d="m24 1005.3622c-12.68419 0-23 10.3158-23 23s10.31581 23 23 23 23-10.3158 23-23-10.31581-23-23-23zm0 3.0996c11.008801 0 19.900391 8.8916 19.900391 19.9004s-8.89159 19.9004-19.900391 19.9004-19.90039-8.8916-19.90039-19.9004 8.891589-19.9004 19.90039-19.9004z" fill="url(#a)"/></g></svg>