<svg height="48" viewBox="0 0 48 48" width="48" xmlns="http://www.w3.org/2000/svg" xmlns:xlink="http://www.w3.org/1999/xlink"><linearGradient id="a" gradientUnits="userSpaceOnUse" x1="410.445439049232" x2="410.445439049232" y1="544.123707570166" y2="504.2732340244"><stop offset="0" stop-color="#97a9b1"/><stop offset="1" stop-color="#cfdce1"/></linearGradient><linearGradient id="b" gradientUnits="userSpaceOnUse" x1="350.066473577608" x2="350.066473577608" y1="547.074134049879" y2="499.073994449879"><stop offset="0" stop-color="#3889e9"/><stop offset="1" stop-color="#5ea5fb"/></linearGradient><linearGradient id="c" gradientTransform="matrix(.87505313 0 0 .87501383 387.5705 502.7977)" gradientUnits="userSpaceOnUse" x1="23.526918" x2="24.064453" y1="39.175846" y2="8"><stop offset="0" stop-color="#1d1e1e"/><stop offset="1" stop-color="#44484c"/></linearGradient><g transform="translate(-384.57143 -499.798)"><rect fill-opacity=".666667" height="38.409515" ry="2.6567" width="44" x="386.57144" y="505.09335"/><rect fill="url(#a)" height="38.409515" ry="2.6567" width="44" x="386.57144" y="504.09311"/><circle cx="351.78067" cy="523.07397" fill="url(#b)" r="0"/><path clip-rule="evenodd" d="m24.056641 10c-.52559-.00093-1.053645.026084-1.578125.083984-.40591.0448-.705067.394162-.691407.800782.0456 1.29821-.724518 2.499461-1.917968 2.988281-1.095123.447308-2.502357.150954-3.351563-.677735l-.113281-.113281-.025391-.02539c-.2775-.2775-.72007-.30499-1.03125-.0625-.83911.65832-1.602905 1.413244-2.265625 2.240234-.25058.31166-.222369.758119.056641 1.037109l.027344.025391.148437.148437.011719.013672c.844172.885999 1.099646 2.195668.623047 3.332032-.48331 1.15081-1.678805 1.892578-3.046875 1.892578-.44394-.0143-.760024.28389-.808594.6875-.12314 1.05181-.1235798 2.123234-.005859 3.183594.0163.146838.092122.279641.201171.388671l3.789063 3.789063c-.094418.709628-.42516 1.385197-.976563 1.890625-.299529.27513-.334521.734747-.082031 1.054687.3409.43418.707617.848242 1.097657 1.238282l8.789062 8.789062h20.4375c1.471812 0 2.65625-1.184438 2.65625-2.65625v-13.849609l-12.113281-12.113281c-.35702-.357032-.732347-.6929-1.123047-1.00586-.31913-.25608-.787743-.218489-1.064453.087891-.458182.507408-1.118034.830991-1.810547.947265l-3.798828-3.798828c-.12005-.12005-.279738-.201556-.460938-.222656-.52301-.0605-1.046665-.09225-1.572265-.09375z" fill-opacity=".078431" fill-rule="evenodd" stroke-width="1.152789" transform="translate(384.57143 499.798)"/><path clip-rule="evenodd" d="m408.62807 509.798c-.52559-.00093-1.05364.0261-1.57812.084-.40591.0448-.70507.39416-.69141.80078.0456 1.29821-.72452 2.49946-1.91797 2.98828-1.14449.46748-2.63197.12494-3.46484-.79101-.27527-.30173-.73596-.33781-1.05664-.0879-.83911.65832-1.60291 1.41324-2.26563 2.24023-.2585.32151-.22013.78589.084 1.0625.97446.88241 1.28944 2.2871.7832 3.49414-.48331 1.15081-1.6788 1.89258-3.04687 1.89258-.44394-.0143-.76002.28389-.8086.6875-.12313 1.05181-.12371 2.12323-.006 3.18359.0439.39528.51676.68946.91797.68946 1.21919-.0312 2.38789.72308 2.87891 1.91796.48948 1.1933.1745 2.58309-.7832 3.46094-.29953.27513-.33449.73475-.082 1.05469.65055.82855 1.39697 1.58201 2.21484 2.24023.32078.25848.78638.2243 1.06445-.082.83766-.9265 2.33647-1.2694 3.49024-.78515 1.20846.50547 1.96895 1.7272 1.89453 3.03906-.0243.41202.27856.76933.6875.81641.53498.0624 1.07165.0937 1.61133.0937.51227 0 1.02677-.0289 1.53906-.0859.40602-.0448.70504-.39343.69141-.80078-.047-1.29748.7241-2.49833 1.91601-2.98633 1.15219-.47058 2.63384-.12401 3.4668.79101.27681.30109.73421.33497 1.05664.0859.83757-.65677 1.59975-1.40901 2.26562-2.23828.25838-.32078.22159-.78795-.084-1.06445-.97446-.88243-1.29139-2.28597-.78515-3.49219.47593-1.13549 1.6276-1.89843 2.86523-1.89843l.17383.006c.40143.0327.76971-.27775.81836-.6875.12336-1.05276.12495-2.12323.006-3.1836h.002c-.0443-.3936-.50355-.6875-.90039-.6875-1.28306 0-2.42289-.75487-2.90039-1.91992-.4878-1.19331-.17304-2.58386.7832-3.46094.30101-.27515.33829-.7367.0859-1.05664-.65669-.83387-1.4038-1.58743-2.21875-2.24023-.31913-.25608-.78774-.21848-1.06445.0879-.83453.92419-2.33387 1.26649-3.49219.7832-1.20552-.50709-1.965-1.72795-1.89062-3.03906.0245-.41185-.27691-.77054-.6875-.81836-.52307-.0605-1.04673-.0923-1.57233-.0938zm4.85352 6.43359c3.06849 0-.19209 4.36914-1.91797 4.36914-1.72613 0-1.1504-4.36914 1.91797-4.36914zm-4.89453.54493c1.72737-.22413.71789 3.3393-.20118 3.2832-.91944-.0561-1.52559-3.05908.20118-3.2832zm-2.89454 1.18164c1.13585-.12056 1.05372 2.69306.32422 2.84179-.77751.15889-1.95625-2.20463-.56836-2.77734.0867-.0358.16842-.0564.24414-.0644zm-2.15625 1.84961c.8447.0284 1.21063 2.21503.63868 2.46679-.65366.2876-2.13836-1.56828-1.02735-2.33594.13894-.0959.268-.13491.38867-.13085zm6.34571 1.41796c1.42911.0242 2.58342.49391 2.73828 1.41407.49751 2.95613-7.04903 4.03544-4.20703 6.19922.89275.67972 1.80407.15985 1.66601-.89454v-.002c-.11524-.87961 3.09103-1.41142 2.83985-.082-.32889 1.74334-2.0853 3.11915-3.60938 3.11915-3.09805 0-6.0686-3.60242-5.48828-6.19922.53583-2.39962 3.67869-3.59499 6.06055-3.55469z" fill="url(#c)" fill-rule="evenodd" stroke-width="1.152789"/></g></svg>