<svg height="48" width="48" xmlns="http://www.w3.org/2000/svg" xmlns:xlink="http://www.w3.org/1999/xlink"><linearGradient id="a" gradientTransform="matrix(1.5206173 0 0 1.4848981 -248.57761 -257.97257)" gradientUnits="userSpaceOnUse" x1="409.57144" x2="409.57144" y1="542.79797" y2="507.798"><stop offset="0" stop-color="#566069"/><stop offset="1" stop-color="#6c7884"/></linearGradient><linearGradient id="b" gradientUnits="userSpaceOnUse" x1="371.647015773641" x2="371.188124314451" y1="546.473296635663" y2="497.234375569857"><stop offset="0" stop-color="#ccc"/><stop offset="1" stop-color="#f5f2f5"/></linearGradient><g transform="matrix(.65762761 0 0 .65762761 -221.099912 -319.29874)"><rect fill-opacity=".666667" height="50.486534" ry="2.375837" width="66.907158" x="339.24963" y="497.50983"/><rect fill="url(#a)" height="50.486534" ry="2.375837" width="66.907158" x="339.24963" y="496.05573"/><g fill="#fff" fill-opacity=".852041"><circle cx="358.053182" cy="501.344672" r="2.708867"/><circle cx="351.398362" cy="501.402132" r="2.708867"/><circle cx="344.856772" cy="501.466282" r="2.708867"/></g><path d="m339.40586 540.23309c-.0556 0-.10225.0279-.15625.0341v3.90045c0 1.31621 1.05872 2.37493 2.37493 2.37493h62.1573c1.31621 0 2.37493-1.05872 2.37493-2.37493v-3.93455z" fill="url(#b)"/><path d="m381.42034 507.51601c-5.59975 0-6.65023 8.1815-3.49962 8.1815 3.14933 0 9.10006-8.1815 3.49962-8.1815zm-8.62538 1.25874c-.0882-.00031-.1841.008-.28337.0177-3.17334.38539-2.05648 5.54937-.36718 5.64567 1.63574.0939 3.42533-5.65392.64945-5.6629zm-5.50242 1.90644c-.19414-.0118-.40906.0236-.64833.11775-2.5506 1.00708-.38703 5.16429 1.04087 4.88483 1.29601-.25324 1.48181-4.8857-.39254-5.00281zm-4.16319 3.39877c-.22169-.006-.46088.0675-.71669.25071-2.0417 1.46511.68694 5.00464 1.88825 4.45586 1.05081-.48071.38041-4.65248-1.17183-4.70657zm12.05864 3.37902c-4.42369-.0729-10.25935 2.08552-11.25481 6.42137-1.07726 4.69177 4.43762 11.20163 10.19123 11.20163 2.83042 0 6.09498-2.4872 6.70629-5.63708.46642-2.40163-5.48955-1.43916-5.27585.14984.25691 1.90502-1.4365 2.84671-3.09473 1.61885-5.27839-3.90953 8.74004-5.86039 7.8154-11.20165-.28779-1.6627-2.43338-2.50939-5.08753-2.55308z" fill="#fff" fill-opacity=".852041"/></g></svg>