<svg height="48" viewBox="0 0 48 48" width="48" xmlns="http://www.w3.org/2000/svg" xmlns:xlink="http://www.w3.org/1999/xlink"><linearGradient id="a"><stop offset="0" stop-color="#333538"/><stop offset="1" stop-color="#566069"/></linearGradient><linearGradient id="b" gradientUnits="userSpaceOnUse" x1="400.95444" x2="400.95444" xlink:href="#a" y1="545.22272" y2="517.22266"/><linearGradient gradientUnits="userSpaceOnUse" x1="2.819" x2="11.758417" xlink:href="#a" y1="1044.2982" y2="1044.2982"/><linearGradient id="c" gradientUnits="userSpaceOnUse" x1="400.39636" x2="400.39636" y1="545.61945" y2="517.61945"><stop offset="0" stop-color="#d3d3d3"/><stop offset="1" stop-color="#fcf9f9"/></linearGradient><linearGradient id="d" gradientUnits="userSpaceOnUse" x1="401.16742" x2="401.60718" y1="516.73389" y2="547.1767"><stop offset="0" stop-color="#8d3aff"/><stop offset="1" stop-color="#ff3680"/></linearGradient><g fill="url(#b)" transform="matrix(1.5862115 0 0 1.5862115 -611.605550575206 -819.615720144668)"><g fill="url(#c)" stroke-width="1.3" transform="translate(.135243 .045175)"><circle cx="400.57138" cy="531.79791" fill="url(#c)" r="13.999958"/><circle cx="400.57144" cy="531.79797" fill="url(#d)" r="13.999958" stroke="url(#d)" stroke-width="1"/><circle cx="400.57138" cy="531.79791" fill="url(#c)" r="0"/></g><path d="m428.92363 524.46159c-.56004.15717-1.01086.78214-1.01086 1.38928v9.62532c-.56789-.31135-1.29721-.43725-2.05334-.23149-1.36441.37118-2.21944 1.57085-1.92697 2.67922.29249 1.1083 1.63658 1.72735 3.00104 1.35608 1.08851-.29612 1.83888-1.13406 1.95852-2.01765l.0319-9.09613 7.07607-1.98462v7.1777c-.56789-.31137-1.2972-.43726-2.05335-.23157-1.3644.3712-2.21941 1.57093-1.92695 2.67923.2925 1.10836 1.63659 1.72733 3.00101 1.35614 1.08853-.29612 1.83889-1.13404 1.95855-2.01764l.032-11.84156c0-.45528-.26874-.7959-.63178-.85997l-7.45514 2.01766z" fill="#fff" fill-opacity=".854839" opacity=".9" transform="matrix(.87200319 0 0 .87200319 24.623835942513 68.873180393466)"/></g></svg>