<svg height="48" width="48" xmlns="http://www.w3.org/2000/svg" xmlns:xlink="http://www.w3.org/1999/xlink"><linearGradient id="a"><stop offset="0" stop-color="#f6fbff"/><stop offset="1" stop-color="#eaeff2"/></linearGradient><linearGradient id="b" gradientTransform="matrix(1.0309825 0 0 1 -.512598 0)" gradientUnits="userSpaceOnUse" x1="17" x2="17" y1="1036.3622" y2="1012.3622"><stop offset="0" stop-color="#3bd450"/><stop offset="1" stop-color="#53f086"/></linearGradient><linearGradient id="c" gradientTransform="matrix(.670643 0 0 1 11.490058 0)" gradientUnits="userSpaceOnUse" x1="33.461716" x2="34.116894" xlink:href="#a" y1="1013.622" y2="1037.2084"/><linearGradient id="d" gradientUnits="userSpaceOnUse" x1="27.800341" x2="27.800341" y1="1037.3622" y2="1011.3622"><stop offset="0" stop-color="#2ec641"/><stop offset="1" stop-color="#47e47a"/></linearGradient><linearGradient id="e" gradientTransform="matrix(.43805482 0 0 .99999986 -4.213057 1.048985)" gradientUnits="userSpaceOnUse" x1="-7.872529" x2="4.025755" xlink:href="#a" y1="1022.0267" y2="1022.0267"/><linearGradient id="f" gradientTransform="matrix(.67458606 0 0 .9999999 -2.477327 4.195202)" gradientUnits="userSpaceOnUse" x1="-7.872529" x2="4.025755" xlink:href="#a" y1="1022.0267" y2="1022.0267"/><linearGradient id="g" gradientTransform="matrix(.91111737 0 0 .99999997 -.784414 7.458004)" gradientUnits="userSpaceOnUse" x1="-7.872529" x2="4.025755" xlink:href="#a" y1="1022.0267" y2="1022.0267"/><g transform="matrix(1.759272946833 0 0 1.759272946833 -15.451580382249 -1778.736471543712)"><g fill-rule="evenodd"><path d="m33.985436 1036.9362h-7.770649v-24.498h7.770649c.824991-.094.891376.023.891376 1.1721v22.0916c.05181 1.261-.08915 1.2343-.891376 1.2343z" fill="url(#c)"/><path d="m11.563303 1036.9442h11.636697v-24.498h-11.533603c-1.268259-.094-1.782566.023-1.782566 1.1721v22.0916c-.07966 1.261.446208 1.2343 1.679472 1.2343z" fill="url(#b)"/><path d="m31.957586 1038.1035-10.029586-1.1715v-24.4859l9.945906-.9326c1.230149-.094 1.296492.2446 1.296492 1.3937l-.08368 23.3688c.07726 1.261.06707 1.8275-1.129132 1.8275z" fill="url(#d)"/></g><rect fill="url(#e)" height="2.230492" rx="0" ry=".312" transform="matrix(-.001879603053 -1.000428238949 1.373908594852 -.00026263549 -1388.6507 1023.1646)" width="5.212101" x="-7.661656" y="1021.9603"/><rect fill="url(#f)" height="2.230492" rx="0" ry=".312" transform="matrix(-.001220553146 -1.000428786659 1.373908533095 -.000404446324 -1388.6507 1023.1646)" width="8.026417" x="-7.788025" y="1025.1064"/><rect fill="url(#g)" height="2.230492" rx="0" ry=".312" transform="matrix(-.000903688685 -1.00042896495 1.373908443861 -.000546257147 -1388.6507 1023.1646)" width="10.840734" x="-7.957212" y="1028.3694"/></g></svg>