<svg height="48" width="48" xmlns="http://www.w3.org/2000/svg" xmlns:xlink="http://www.w3.org/1999/xlink"><linearGradient id="a"><stop offset="0" stop-color="#3889e9"/><stop offset="1" stop-color="#5ea5fb"/></linearGradient><linearGradient id="b" gradientTransform="matrix(1.2170975 0 0 1.2178912 -522.55107 399.09995)" gradientUnits="userSpaceOnUse" x1="399.57144" x2="399.57144" xlink:href="#a" y1="545.79797" y2="517.79797"/><linearGradient id="c" gradientTransform="matrix(.61008123 0 0 .61087713 -563.02297 1124.4683)" gradientUnits="userSpaceOnUse" x1="400.55615" x2="400.55615" y1="546.92657" y2="516.4751"><stop offset="0" stop-color="#e4e4e4"/><stop offset="1" stop-color="#eee"/></linearGradient><linearGradient id="d" gradientTransform="matrix(.74328084 0 0 .74376552 -300.98566 651.19836)" gradientUnits="userSpaceOnUse" x1="399.57144" x2="399.57144" xlink:href="#a" y1="545.79797" y2="517.79797"/><clipPath id="e"><path d="m44.5 20h-2.5-8.2-9.8v8.5h11.8c-1.1 5.4-5.7 8.5-11.8 8.5-7.2 0-13-5.8-13-13s5.8-13 13-13c3.1 0 5.9 1.1 8.1 2.9l6.4-6.4c-3.9-3.4-8.9-5.5-14.5-5.5-12.2 0-22 9.8-22 22s9.8 22 22 22c11 0 21-8 21-22 0-1.3-.2-2.7-.5-4z" height="100%" transform="" width="100%"/></clipPath><g transform="matrix(2.0000001 0 0 2.0000001 30.4734 -2069.6146)"><circle cx="-3.248628" cy="1046.7313" fill="url(#d)" r="0"/><ellipse cx="-3.2367" cy="1046.8073" fill="url(#c)" rx="10.935045" ry="10.942175" stroke="url(#c)" stroke-width="1.115285"/><circle cx="-35.016644" cy="1046.772" fill="url(#b)" r="0"/><g transform="matrix(.40909089 0 0 .40909089 -12.804881 1036.9891)"><path clip-path="url(#e)" d="m17 24-17 13v-26z" fill="#fbbc05"/><path clip-path="url(#e)" d="m24 17.9 24-3.9v-14h-48v11l17 13z" fill="#ea4335"/><path clip-path="url(#e)" d="m37.9 15 10.1-15v48h-48v-11l30-23z" fill="#34a853"/><path clip-path="url(#e)" d="m13 21 35-10v37l-31-24z" fill="#4285f4"/></g></g></svg>