<svg height="48" width="48" xmlns="http://www.w3.org/2000/svg" xmlns:xlink="http://www.w3.org/1999/xlink"><linearGradient id="a" gradientUnits="userSpaceOnUse" x1="399.57144" x2="399.57144" y1="545.79797" y2="517.79797"><stop offset="0" stop-color="#3889e9"/><stop offset="1" stop-color="#5ea5fb"/></linearGradient><linearGradient id="b" gradientUnits="userSpaceOnUse" x1="400.55615" x2="400.55615" y1="546.92657" y2="516.4751"><stop offset="0" stop-color="#7737c5"/><stop offset="1" stop-color="#9371ff"/></linearGradient><g transform="matrix(1.5511965 0 0 1.552208 -597.40541 -801.61944)"><circle cx="400.57138" cy="531.79791" fill="url(#a)" r="0"/><g transform="matrix(1.0508504 0 0 1.0508504 -20.353166 -26.940048)"><circle cx="400.57138" cy="531.79791" fill="url(#b)" r="13.999958" stroke="url(#b)" stroke-width="1.427415"/><circle cx="400.57138" cy="531.79791" fill="url(#a)" r="0" transform="matrix(1.55822993102 0 0 1.55822993102 -264.298285246431 -296.910724934234)"/></g></g><path d="m16.306247 11.262021-4.2424 4.242 8.935753 11.753979v14.742h6v-14.758l8.920753-13.032021-4.242-4.2420002-7.686753 11.7980212-7.685753-10.503979z" fill="#fff" fill-opacity=".898477" transform="matrix(.73100848 -.13653124 .13653124 .73100848 -2.47889 9.21431)"/><g fill="#fff" fill-opacity=".852041" transform="matrix(.1731984 -.01664126 .01664126 .1731984 2.45035 -5.14454)"><path d="m149.09606 118.88767 3.85298 84.61851c.423 4.886 4.301 8.913 9.355 9.355 5.661.495 10.651-3.694 11.145-9.355l1.8207-83.84581c.078-.97.088-2.057 0-3.057-.844-9.666-3.9337-15.97019-13.5987-15.12719-9.665.845-13.41898 7.74749-12.57498 17.41149z" fill="#fff" fill-opacity=".852041"/><circle cx="163.19905" cy="232.50618" fill="#fff" fill-opacity=".852041" r="14.5"/></g></svg>