<svg height="48" width="48" xmlns="http://www.w3.org/2000/svg" xmlns:xlink="http://www.w3.org/1999/xlink"><linearGradient id="a" gradientUnits="userSpaceOnUse" x1="409.57144" x2="409.57144" y1="543.79797" y2="503.798"><stop offset="0" stop-color="#0d5ec2"/><stop offset="1" stop-color="#38b2fa"/></linearGradient><radialGradient id="b" cx="263123.78" cy="87578.133" gradientTransform="matrix(1.207779 1.2366235 -1.1412513 1.0803518 80627.834 -398160.29)" gradientUnits="userSpaceOnUse" r="148553.53"><stop offset="0" stop-color="#fff"/><stop offset="1" stop-color="#fff" stop-opacity="0"/></radialGradient><rect fill="url(#a)" height="39.999969" ry="19.999985" transform="matrix(1.200000320997 0 0 1.200000320997 -466.178854992363 -604.400775769124)" width="39.999989" x="388.57144" y="503.798"/><g fill="url(#b)" opacity=".663" transform="matrix(.000157740094 0 0 .00016022308 -22.911195400286 14.049988420948)"><path d="m203282.32-6744.7722c51485.54000000001 0 142083 111002.1722 238328.98000000004 122275.9822 2455.469999999972-7765.600000000006 4334.359999999986-15795.679000000004 5566.669999999984-24039.258-43757.609999999986-9698.945000000005-98766.06-61656.236-118550.94-81230.006-30926.179999999993-30599.202-59791.380000000005-61312.527-99396.76000000001-61312.527-13511.01000000001 0-25912.330000000016 2365.661999999997-36643.28 5649.661999999997-19874.610000000015 18870.248-34785.54000000001 43080.0148-42516.07000000001 70389.847 15883.309999999998-16155.5089 34034.73000000001-31733.7002 53211.399999999994-31733.7002z"/><path d="m358692.37 157585.85c-89517.76000000001 0-157157.12-48501.42-181206.69-48501.42-9806.869999999995 0-15465.190000000002 6884.850000000006-18729.25 15038.460000000006 15450.51000000001 32921.890000000014 42088.06 59495.98999999999 74990.51000000001 74776.13-4638.890000000014-11978.679999999995-7436.640000000014-27830.76000000001 10263.820000000005-27830.76000000001 15642.890000000014 0 31231 13537.440000000002 88960.60999999999 13537.440000000002 26359.630000000005 0 50636.330000000016-5526.149999999994 68485.09999999998-11126.130000000005 9448.799999999988-8525.529999999999 17848.780000000028-18201.649999999998 24972.780000000028-28814.89000000001-17051.119999999995 6100.76999999999-41883.609999999986 12921.170000000013-67736.88 12921.170000000013z"/><path d="m298539.47-86914.185c-19324.21000000002 0-37810.669999999984 3612.940000000003-54845.01000000001 10191.679999999995 6538.470000000001-904.910000000004 14366.829999999987-1464.770000000004 23761.650000000023-1464.770000000004 53581.71000000002 0 83965.62 23543.839999999997 106049.09999999999 48501.43 14737.820000000005 16656.3 40333.22999999998 66290.89 59340.96000000002 66290.89 5530.5-483.290000000001 9876.190000000002-4813.220000000001 13295.020000000019-11442.98-18462.52000000002-64726.759999999995-77552.14000000001-112076.25-147601.72000000003-112076.25z"/></g></svg>