<svg height="48" width="48" xmlns="http://www.w3.org/2000/svg" xmlns:xlink="http://www.w3.org/1999/xlink"><linearGradient id="a" gradientUnits="userSpaceOnUse" x1="422.7755504" x2="422.7755504" y1="547.3031516" y2="512.8619135"><stop offset="0" stop-color="#ffcd40"/><stop offset="1" stop-color="#fee145"/></linearGradient><linearGradient id="b" gradientUnits="userSpaceOnUse" x1="394.371433792526" x2="394.2724568" y1="543.737065058607" y2="511.67428779375"><stop offset="0" stop-color="#0f9d58"/><stop offset="1" stop-color="#00d455"/></linearGradient><linearGradient id="c" gradientUnits="userSpaceOnUse" x1="407.336378328999" x2="407.336378328999" y1="518.800058" y2="499.798000350516"><stop offset="0" stop-color="#db4437"/><stop offset="1" stop-color="#fd5757"/></linearGradient><linearGradient id="d" gradientUnits="userSpaceOnUse" x1="408.571473448984" x2="408.571473448984" y1="532.298066879217" y2="515.298061479217"><stop offset="0" stop-color="#2566d3"/><stop offset="1" stop-color="#429aff"/></linearGradient><linearGradient id="e" gradientUnits="userSpaceOnUse" x1="409.652260294256" x2="409.652260294256" y1="546.115480777778" y2="499.8573712252"><stop offset="0" stop-color="#79a8ca"/><stop offset="1" stop-color="#9ecbda"/></linearGradient><linearGradient id="f" gradientUnits="userSpaceOnUse" x1="408.571429253968" x2="408.571429253968" y1="533.575774848934" y2="512.797997448934"><stop offset="0" stop-color="#f2f6f7"/><stop offset="1" stop-color="#ecf0f1"/></linearGradient><g transform="translate(-384.57143 -499.798)"><path d="m-143.25302-674.5285h17.994967v16.489655h-17.994967z" fill="#1a1a1a" transform="matrix(-.89235365 .45133686 -.45133686 -.89235365 0 0)"/><path d="m389.52659 509.79388c-2.97437 3.96679-4.75516 8.96416-4.75516 14.32577 0 13.15893 10.59366 23.67835 23.75258 23.67835l8.3134-17.02763-15.43918-3.16206z" fill-opacity=".352941" fill-rule="evenodd"/><rect fill="url(#e)" height="45.129883" ry="22.564941" width="45.12989" x="385.95911" y="500.98563"/><path d="m409.08535 512.5047c-.3107 0-.56134.25064-.56134.56134s.25064.56134.56134.56134h20.25463c.0409 0 .0776-.0149.11599-.0231l.27553-.74227-1.0178-.35722z" fill="#649cc1" opacity=".8"/><g fill-rule="evenodd"><path d="m389.52659 509.29903c-2.97437 3.96679-4.75516 8.96416-4.75516 14.32577 0 13.15893 10.59366 23.67835 23.75258 23.67835l8.3134-17.02762-15.43918-3.16207z" fill="url(#b)"/><path d="m409.71164 513.35676 7.12577 17.33938-8.3134 17.10186c13.15892 0 23.75257-10.59366 23.75257-23.75258 0-3.85418-.9287-7.47634-2.54458-10.68866z" fill-opacity=".352941"/><path d="m409.71164 512.86192 7.12577 17.33938-8.3134 17.10185c13.15892 0 23.75257-10.59365 23.75257-23.75257 0-3.85418-.9287-7.47634-2.54458-10.68866z" fill="url(#a)"/><path d="m408.50405 499.82466c-7.94719 0-14.95389 3.92882-19.36262 9.99406l12.09986 18.72482c10.42064-.007 12.79619-9.04933 8.47322-14.98376h20.40523c-3.97602-8.15361-12.13208-13.73512-21.61569-13.73512z" fill="#1a1a1a" fill-opacity=".352941"/><path d="m408.51937 499.798c-7.79731 0-14.67185 3.73682-18.99742 9.50567l11.87164 17.80979 15.43918 3.08784-7.12578-17.33938h20.02037c-3.90104-7.75516-11.90326-13.06392-21.20799-13.06392z" fill="url(#c)"/></g><path d="m408.57143 512.79801c6.09399 0 11 4.906 11 11 0 6.09399-4.90601 10.99999-11 10.99999-6.094 0-11-4.906-11-10.99999 0-6.094 4.906-11 11-11z" fill="url(#f)"/><path d="m408.57143 515.298h.00001c4.70899 0 8.49999 3.79099 8.49999 8.5 0 4.709-3.791 8.5-8.49999 8.5h-.00001c-4.70901 0-8.5-3.791-8.5-8.5 0-4.70901 3.79099-8.5 8.5-8.5z" fill="url(#d)"/><path d="m47.6875 20.960938v16.46875h-36.544922l10.455078 10.455078c.7747.075087 1.560271.115234 2.355469.115234 6.6613 0 12.661707-2.717509 16.966797-7.105469l6.78125-3.429687-.007813-.013672h.017579v-16.486328l-.003907-.003906z" fill-opacity=".078431" transform="translate(384.57143 499.798)"/><path d="m395.73877 520.75873h36.54335v16.48965h-36.54335z" fill="#333"/><g fill="#fff"><path d="m400.94544 532.94873v-8.50812h2.7815q1.3849 0 2.08028.57266.70122.57266.70122 1.69461 0 .59604-.33892 1.05767-.33893.4558-.92328.70707.68954.19283 1.08689.73628.4032.5376.4032 1.28556 0 1.14533-.74212 1.7998-.74212.65447-2.09781.65447zm1.12195-3.97942v3.06199h1.85238q.78303 0 1.23298-.4032.45579-.40904.45579-1.12195 0-1.53684-1.67124-1.53684zm0-.89989h1.69461q.73628 0 1.17454-.36814.4441-.36814.4441-.99924 0-.70122-.40904-1.01677-.40904-.32139-1.24466-.32139h-1.65955z"/><path d="m413.21092 529.01606h-3.68724v3.01524h4.28328v.91743h-5.40523v-8.50812h5.34679v.92327h-4.22484v2.73475h3.68724z"/><path d="m421.19897 525.36388h-2.73475v7.58485h-1.11611v-7.58485h-2.72891v-.92327h6.57977z"/><path d="m426.70354 530.7282h-3.56453l-.80056 2.22053h-1.15701l3.24898-8.50812h.98171l3.25482 8.50812h-1.15117zm-3.22561-.92327h2.89253l-1.44919-3.97941z"/></g></g></svg>