<svg height="48" width="48" xmlns="http://www.w3.org/2000/svg" xmlns:xlink="http://www.w3.org/1999/xlink"><linearGradient id="a" gradientTransform="matrix(.4172604 0 0 .41031226 380.85959 499.02177)" gradientUnits="userSpaceOnUse" x1="10.09375" x2="122.719" y1="107.36093" y2="107.36093"><stop offset="0" stop-color="#1a1a1a"/><stop offset=".11054216" stop-color="#2c2c2e"/><stop offset=".29001436" stop-color="#2b2b2d"/><stop offset=".5118711" stop-color="#2a2b2d"/><stop offset=".75173318" stop-color="#2b2b2d"/><stop offset=".89659214" stop-color="#323232"/><stop offset="1" stop-color="#171717"/></linearGradient><linearGradient id="b" gradientTransform="matrix(1.6796884 0 0 1.6796885 -347.0901 -369.66426)" gradientUnits="userSpaceOnUse" x1="449.42804" x2="449.54932" y1="540.74573" y2="518.40662"><stop offset="0" stop-color="#b6b9bf"/><stop offset="1" stop-color="#dddfe2"/></linearGradient><linearGradient id="c" gradientTransform="matrix(.84890731 0 0 1.6796885 26.588163 -369.57509)" gradientUnits="userSpaceOnUse" x1="451.02078" x2="451.02078" xlink:href="#d" y1="544.14978" y2="543.0885"/><linearGradient id="d"><stop offset="0" stop-color="#3ec896"/><stop offset="1" stop-color="#66d9af"/></linearGradient><linearGradient id="e" gradientTransform="matrix(1.6796884 0 0 1.6796885 -358.30973 -373.03552)" gradientUnits="userSpaceOnUse" x1="467.17453" x2="467.17453" y1="546.84698" y2="544.72443"><stop offset="0" stop-color="#040404"/><stop offset="1" stop-color="#121212" stop-opacity=".908163"/></linearGradient><linearGradient id="f" gradientUnits="userSpaceOnUse" x1="24.40449" x2="25.43092" xlink:href="#d" y1="45.13596" y2="6.79517"/><linearGradient id="g" gradientUnits="userSpaceOnUse" x1="17.09669" x2="17.45057" y1="33.72281" y2=".98737"><stop offset="0" stop-color="#8badea"/><stop offset="1" stop-color="#3b7caf"/></linearGradient><linearGradient id="h" gradientUnits="userSpaceOnUse" x1="24.7534" x2="24.62867" y1=".45801" y2="40.36832"><stop offset="0" stop-color="#f8b17e"/><stop offset="1" stop-color="#c6262e"/></linearGradient><g transform="translate(-384.57143 -499.798)"><path d="m385.07143 539.16952.41725 6.5765c0 .68197.55829 1.23101 1.25179 1.23101h43.65585c.6935 0 1.25181-.54904 1.25181-1.23101l.41725-6.5765z" fill="url(#a)"/><path d="m388.82971 500.61909h39.06893c.6935 0 1.25181.54904 1.25181 1.23099l2.92098 37.12078c0 .68195-.55828 1.23101-1.25177 1.23101h-44.49332c-.69349 0-1.25177-.54906-1.25177-1.23101l2.50337-37.12068c0-.68195.5583-1.23109 1.25177-1.23109z" fill="url(#b)"/><rect fill="url(#c)" height="1.29147" ry=".645735" width="19.25474" x="399.01685" y="543.24518"/><ellipse cx="426.25473" cy="543.93683" fill="url(#e)" opacity=".452" rx="1.78262" ry="1.78261"/><path d="m426.25089 543.98307c.0402 0 .0751-.0147.10444-.0441.0294-.0294.0441-.0642.0441-.10444v-.74278c0-.0402-.0147-.0751-.0441-.10445-.0294-.0294-.0642-.0441-.10444-.0441-.0402 0-.0751.0147-.10446.0441-.0294.0294-.0441.0642-.0441.10445v.74278c0 .0402.0147.0751.0441.10444.0294.0294.0642.0441.10446.0441z" fill="#e3e8ea" opacity=".668" stroke="#909296" stroke-width=".002238"/><path d="m427.0488 543.58499c-.0623-.12456-.1499-.22902-.26286-.31335-.0325-.0248-.0692-.0344-.11026-.029-.041.005-.0735.0248-.0975.058-.0247.0325-.0342.069-.0284.10967.006.0406.025.0733.0575.0981.0758.0573.13444.12728.17581.21007.0414.0828.0621.17099.0621.2646 0 .0805-.0157.15726-.047.23038-.0313.0731-.0737.13636-.12709.18975-.0534.0534-.11662.0957-.18974.12708-.0731.0313-.14991.047-.23038.047-.0805 0-.15725-.0157-.23037-.047-.0731-.0313-.13636-.0737-.18975-.12708-.0534-.0534-.0957-.11663-.12708-.18975-.0313-.0731-.047-.1499-.047-.23038 0-.0936.0207-.18181.0621-.2646.0414-.0828.1-.1528.17582-.21007.0325-.0248.0516-.0575.0574-.0981.006-.0406-.004-.0772-.0284-.10967-.024-.0333-.0563-.0526-.0969-.058-.0406-.005-.0776.004-.11084.029-.11297.0843-.20058.18879-.26287.31335-.0623.12457-.0934.25726-.0934.39807 0 .12071.0236.23598.0708.34585s.11064.20464.19034.28434.17447.14314.28434.19031c.10987.0472.22516.0708.34585.0708.1207 0 .23598-.0236.34585-.0708s.20465-.11063.28434-.19031c.0797-.0797.14312-.17447.19032-.28434s.0708-.22516.0708-.34585c0-.14081-.0311-.2735-.0934-.39807z" fill="#e3e8ea" opacity=".668" stroke="#909296" stroke-width=".002238"/><path d="m39.367188 18.025391-6.259766.798828c.011951.137752.029336.274121.029297.414062-.00125 3.60004-4.03032 6.517578-9 6.517578-.789487 0-1.551607-.080452-2.28125-.21875l-2.275391 4.511719c2.25072.49657 4.693872.653731 7.169922.337891 8.11787-1.03547 13.606167-6.511388 12.617188-12.361328zm-8.09961 1.035156-4.117187.525391c-.228109 1.036364-1.458311 1.832031-2.953125 1.832031-.086854 0-.168925-.014293-.253907-.019531l-1.359375 2.695312c.542593.097674 1.107089.15625 1.691407.15625 3.86531 0 6.99903-2.268329 7-5.068359.000011-.040797-.006502-.080528-.007813-.121094z" fill="url(#f)" transform="translate(384.57143 499.798)"/><path d="m18.027344 9.1171875c-4.1057 1.2644995-7.211427 3.7599775-8.5917971 6.7421875-.78993 1.70654-1.0072819 3.573793-.5449219 5.470703.93977 3.85561 4.529136 6.866758 9.160156 8.298828l2.261719-4.498047c-3.054638-1.04197-5.175057-3.284717-5.175781-5.892578-.001028-2.570331 2.056411-4.787249 5.039062-5.849609zm2.835937 5.6367185c-2.140414.867759-3.588651 2.524564-3.58789 4.427735.000544 1.954747 1.530227 3.648528 3.767578 4.49414l1.357422-2.699219c-.726853-.396466-1.202883-1.022565-1.203125-1.732421-.000269-.670937.428463-1.263334 1.08789-1.66211z" fill="url(#g)" transform="translate(384.57143 499.798)"/><path d="m24.414062 8.21875c-.992474-.0147701-2.000899.0385249-3.015624.1679688-.62773.0799998-1.211861.2127699-1.806641.34375l2.128906 4.2304692c.769654-.155192 1.578062-.244141 2.416016-.244141 4.213299 0 7.740487 2.099817 8.720703 4.931641l6.248047-.800782c-1.607052-5.02418-7.744083-8.5255156-14.691407-8.628906zm-.138671 5.890625c-.652682 0-1.28147.070366-1.88086.191406l1.408203 2.798828c.130261-.012512.259549-.029297.394532-.029297 1.244924 0 2.311604.549789 2.765625 1.332032l4.072265-.521485c-.793445-2.169672-3.514953-3.771484-6.759765-3.771484z" fill="url(#h)" transform="translate(384.57143 499.798)"/></g></svg>