<svg height="48" width="48" xmlns="http://www.w3.org/2000/svg" xmlns:xlink="http://www.w3.org/1999/xlink"><linearGradient id="a"><stop offset="0" stop-color="#333538"/><stop offset="1" stop-color="#566069"/></linearGradient><linearGradient id="b" gradientUnits="userSpaceOnUse" x1="400.95444" x2="400.95444" xlink:href="#a" y1="545.22272" y2="517.22266"/><linearGradient id="c" gradientUnits="userSpaceOnUse" x1="2.819" x2="11.758417" xlink:href="#a" y1="1044.2982" y2="1044.2982"/><linearGradient id="d" gradientUnits="userSpaceOnUse" x1="400.39636" x2="400.39636" y1="545.61945" y2="517.61945"><stop offset="0" stop-color="#d3d3d3"/><stop offset="1" stop-color="#fcf9f9"/></linearGradient><linearGradient id="e" gradientUnits="userSpaceOnUse" x1="404.71429" x2="404.71429" y1="546.29791" y2="517.29797"><stop offset="0" stop-color="#00cafe"/><stop offset="1" stop-color="#1460f3"/></linearGradient><linearGradient id="f" gradientUnits="userSpaceOnUse" x1="400.39636" x2="400.39636" y1="545.61945" y2="517.61945"><stop offset="0" stop-color="#e3e3e3"/><stop offset="1" stop-color="#fcf9f9"/></linearGradient><linearGradient id="g" gradientUnits="userSpaceOnUse" x1="401.20834" x2="401.20834" y1="545.81091" y2="518.42188"><stop offset="0" stop-color="#ec396c"/><stop offset="1" stop-color="#ff709a"/></linearGradient><filter id="h" color-interpolation-filters="sRGB"><feColorMatrix result="result3" type="saturate" values="0"/><feColorMatrix in="SourceGraphic" result="colormatrix" values="0 0 0 0 0 0 0 0 0 0 0 0 0 0 0 1 -0.5 -0.5 0 0"/><feFlood flood-color="#440086" result="result1"/><feComposite in2="colormatrix" operator="in" result="result2"/><feComposite in2="colormatrix" k2="1" k3="-0.5" operator="arithmetic" result="result12"/><feBlend in="result12" in2="result3" mode="normal" result="result6"/><feColorMatrix in="SourceGraphic" result="colormatrix" values="0 0 0 0 0 0 0 0 0 0 0 0 0 0 0 -0.5 1 -0.5 0 0"/><feFlood flood-color="#fe3f00" result="result4"/><feComposite in2="colormatrix" operator="in" result="result5"/><feComposite in2="colormatrix" k2="1" k3="-0.5" operator="arithmetic" result="result13"/><feBlend in="result13" in2="result6" mode="normal" result="result9"/><feColorMatrix in="SourceGraphic" result="colormatrix" values="0 0 0 0 0 0 0 0 0 0 0 0 0 0 0 -0.5 -0.5 1 0 0"/><feFlood flood-color="#fc0" result="result7"/><feComposite in2="colormatrix" operator="in" result="result8"/><feComposite in2="colormatrix" k2="1" k3="-0.5" operator="arithmetic" result="result14"/><feBlend in="result14" in2="result9" mode="normal" result="result10"/><feComposite in="result10" in2="SourceGraphic" operator="in" result="result11"/></filter><g filter="url(#h)" transform="matrix(1.626036 0 0 1.626036 -627.34347 -840.7226)"><g transform="matrix(.96552004 0 0 .96552004 13.642627 18.164012)"><g fill="url(#b)" transform="translate(.039843 .133368)"><g fill="url(#d)" stroke-width="1.3" transform="translate(.135243 .045175)"><circle cx="400.57138" cy="531.79791" fill="url(#g)" r="13.999958" stroke="url(#g)" stroke-width="1.3"/><circle cx="400.57144" cy="531.79797" fill="url(#f)" r="0" stroke="url(#e)" stroke-width="1"/><circle cx="400.57138" cy="531.79791" fill="url(#d)" r="0"/></g><g fill="url(#c)" transform="matrix(1.2357237 0 0 1.2357237 423.59897 -754.90195)"><g fill="url(#c)" transform="matrix(.90537551 0 0 .90537551 -365.91682 562.06022)"/></g><g fill="#fff" fill-opacity=".846774" transform="matrix(1.1789744 0 0 1.1789744 391.27483 -698.1593)"><g fill="#fff" fill-opacity=".846774" transform="translate(-412.88298 512.00351)"><g fill="#fff" fill-opacity=".846774"/><g fill="#fff" fill-opacity=".846774" transform="translate(341.79698 500.25245)"><g fill="#fff" fill-opacity=".846774" transform="translate(-392.98822 -511.27795)"><g fill="#fff" fill-opacity=".846774" transform="matrix(1.0805235 0 0 1.0805235 39.355625 -31.560204)"><g/><g transform="translate(341.79698 500.25245)"><g fill="#fff" fill-opacity=".846774" transform="translate(-392.98822 -511.27795)"><g/><g transform="translate(22.989671 8.970314)"><g fill="#fff" fill-opacity=".846774"/></g><g transform="translate(432.8094 518.46393)"><g fill="#fff" fill-opacity=".846774" transform="translate(-509.70748 -515.64674)"><g fill="#fff" fill-opacity=".846774"/></g></g></g><g fill="#fff" fill-opacity=".846774" transform="translate(89.03771 -6.402818)"><g fill="#fff" fill-opacity=".846774" transform="translate(-509.70748 -515.64674)"><g fill="#fff" fill-opacity=".846774"/></g><g fill="#fff" fill-opacity=".846774" transform="translate(0 .265501)"><g fill="#fff" fill-opacity=".846774" transform="matrix(.03549928 0 0 .03549928 -37.76726 30.579049)"><path d="m333.227 39.545-54.916 83.015-56.76-83.015zm-63.641 102h-121.829l60.908 231.669zm-117.763-13.6h113.688l-56.847-83.15zm-12.79-5.385 56.753-83.015h-111.67zm56.725 255.02-62.057-236.035h-133.701zm-195.568-249.635h126.1l-54.931-83.035zm345.699-82.885-54.836 82.885h125.883zm-62.248 96.485-62.063 236.015 195.547-236.015z" fill="#fff" fill-opacity=".846774"/></g></g></g></g><g transform="translate(-25.207646 1.422878)"><g fill="#fff" fill-opacity=".846774"/><g fill="#fff" fill-opacity=".846774" transform="translate(341.79698 500.25245)"><g fill="#fff" fill-opacity=".846774" transform="translate(-13.545278 -3.347969)"><g fill="#fff" fill-opacity=".846774" transform="translate(-392.98822 -511.27795)"><g fill="#fff" fill-opacity=".846774"/></g></g></g></g><g transform="translate(386.69357 508.47423)"><g fill="#fff" fill-opacity=".846774" transform="translate(-509.70748 -515.64674)"><g fill="#fff" fill-opacity=".846774"/></g><g fill="#fff" fill-opacity=".846774"/></g></g></g></g></g></g></g></g></g></svg>