<svg height="48" width="48" xmlns="http://www.w3.org/2000/svg" xmlns:xlink="http://www.w3.org/1999/xlink"><linearGradient id="a" gradientUnits="userSpaceOnUse" x1="399.57144" x2="399.57144" y1="545.79797" y2="517.79797"><stop offset="0" stop-color="#3889e9"/><stop offset="1" stop-color="#5ea5fb"/></linearGradient><linearGradient id="b" gradientUnits="userSpaceOnUse" x1="399.9939" x2="399.9939" y1="545.13873" y2="518.13873"><stop offset="0" stop-color="#30cf41"/><stop offset="1" stop-color="#47f383"/></linearGradient><g stroke-width="1.299897" transform="matrix(1.714290829385 0 0 1.714290829385 -662.615844059147 -887.547283392275)"><circle cx="400.57138" cy="531.79791" fill="url(#b)" r="13.999958"/><circle cx="400.57138" cy="531.79791" fill="url(#a)" r="0"/></g><g opacity=".9" transform="matrix(2.234446948204 0 0 2.234446948204 -672.235560697913 -1159.114733736359)"><path d="m309.4318 533.85461-.21097 1.84593c.14968 1.02135 1.39879.82804 1.58223.15822l.29224-1.74327 1.181.003.16173 1.56464c.0765.94895 1.72236 1.05682 1.64551-.24612l-.27424-1.63497c.85115-.035 1.15188-.49249 1.21606-1.0139l.0894-1.88685 2.01724-2.16238c.52822-.77682-.21762-1.81414-1.10756-1.10756-.61064.79127-1.1098 1.34636-2.40713 1.63262-.92555.20422-2.54.31394-4.01508-.0426-.80051-.19346-1.37086-.43329-2.19567-1.51276-.79139-.93954-2.10297-.081-1.35368.93175l2.18699 2.23623.0877 1.93263c.0635.69377.76203.86331 1.10423 1.04552z" fill="#154e22" fill-rule="evenodd" opacity="1"/><g transform="matrix(1.0001786 0 0 1.0001786 -.055209 .05531)"><g fill="#154e22" transform="translate(16.831387 2.278834)"><path d="m291.52172 525.88184c1.81993 1.16506 4.83248 1.1017 6.70112.042.67205-5.24667-7.07854-5.66367-6.70112-.042z" fill-rule="evenodd" opacity="1"/><rect height="2.671964" opacity="1" ry=".190855" transform="matrix(.8617256 -.5073746 .5073746 .8617256 0 0)" width=".381709" x="-12.388198" y="596.80505"/><rect height="2.671964" opacity="1" ry=".190855" transform="matrix(-.8617256 -.5073746 -.5073746 .8617256 0 0)" width=".381709" x="-520.51062" y="297.63638"/></g><circle cx="310.40424" cy="526.44458" fill="#40e86f" opacity="1" r=".548887"/><circle cx="313.00003" cy="526.42865" fill="#40e86f" opacity="1" r=".548887"/></g></g></svg>