<svg height="48" width="48" xmlns="http://www.w3.org/2000/svg" xmlns:xlink="http://www.w3.org/1999/xlink"><linearGradient id="a" gradientTransform="matrix(1.0909091 0 0 1.0652838 -37.003895 -35.003639)" gradientUnits="userSpaceOnUse" x1="409.57144" x2="409.57144" y1="542.79797" y2="507.798"><stop offset="0" stop-color="#2a2c2f"/><stop offset="1" stop-color="#424649"/></linearGradient><g transform="translate(-384.57143 -499.798)"><g fill-opacity=".666667" transform="matrix(.91666667 0 0 .91666667 33.920211 43.914288)"><rect fill-opacity=".666667" height="36.219646" ry="1.704454" width="48" x="384.71042" y="505.94531"/><g fill-opacity=".666667"><path d="m389.41537 516.5459q.55 0 .835.46.29.455.29 1.315 0 .865-.29 1.325-.285.455-.835.455-.55 0-.84-.455-.285-.46-.285-1.325 0-.86.285-1.315.29-.46.84-.46zm0 .34q-.69 0-.69 1.435 0 1.445.69 1.445.69 0 .69-1.445 0-1.435-.69-1.435zm0 1.11q.14 0 .235.095.095.095.095.23 0 .14-.095.235-.095.095-.235.095-.14 0-.235-.095-.09-.095-.09-.235 0-.135.09-.23.095-.095.235-.095z"/><path d="m392.16842 518.6559-.855-1.24h.49l.615.98.62-.98h.475l-.85 1.22.97 1.41h-.51l-.725-1.13-.73 1.13h-.475z"/><path d="m399.10452 519.2059v.84h-.405v-.84h-1.43v-.3l1.015-2.36.345.15-.92 2.18h.995l.035-.98h.365v.98h.445v.33z"/><path d="m401.69756 516.5459q.325 0 .55.085.23.08.445.25l-.24.28q-.31-.255-.725-.255-.47 0-.765.34-.29.335-.29 1.075 0 .73.285 1.075.29.34.765.34.26 0 .445-.075.19-.08.355-.215l.22.285q-.17.165-.425.27-.255.1-.6.1-.425 0-.765-.205-.335-.21-.53-.61-.195-.4-.195-.965 0-.56.195-.96.2-.405.535-.61.335-.205.74-.205z"/><path d="m407.54866 517.8059q.275 0 .495.12.22.12.35.365.13.24.13.595 0 .37-.145.65-.14.275-.39.42-.245.145-.545.145-.6 0-.87-.435-.27-.435-.27-1.245 0-.57.15-.99.155-.425.44-.655.285-.23.685-.23.375 0 .68.205l-.16.28q-.245-.145-.525-.145-.395 0-.62.375-.225.37-.235 1.01.16-.245.365-.355.205-.11.465-.11zm-.105 1.96q.32 0 .485-.225.17-.23.17-.64 0-.405-.16-.58-.155-.175-.45-.175-.24 0-.435.13-.19.13-.33.36.01.59.18.86.17.27.54.27z"/><path d="m411.4867 520.0459h-1.985v-.34h.85v-2.65l-.79.475-.18-.295 1.02-.63h.365v3.1h.72z"/><path d="m416.2428 516.5459q.32 0 .55.125.235.125.36.345.125.22.125.495 0 .315-.15.615-.145.3-.47.665-.325.36-.92.9h1.62l-.05.355h-2.045v-.34q.68-.65 1.005-1.01.325-.365.45-.625.125-.26.125-.55 0-.29-.165-.455-.16-.17-.45-.17-.245 0-.41.085-.165.08-.335.28l-.29-.22q.21-.255.46-.375.25-.12.59-.12z"/><path d="m419.39584 516.5459q.55 0 .835.46.29.455.29 1.315 0 .865-.29 1.325-.285.455-.835.455-.55 0-.84-.455-.285-.46-.285-1.325 0-.86.285-1.315.29-.46.84-.46zm0 .34q-.69 0-.69 1.435 0 1.445.69 1.445.69 0 .69-1.445 0-1.435-.69-1.435zm0 1.11q.14 0 .235.095.095.095.095.23 0 .14-.095.235-.095.095-.235.095-.14 0-.235-.095-.09-.095-.09-.235 0-.135.09-.23.095-.095.235-.095z"/><path d="m426.08694 519.2059v.84h-.405v-.84h-1.43v-.3l1.015-2.36.345.15-.92 2.18h.995l.035-.98h.365v.98h.445v.33z"/><path d="m428.23498 516.5459q.315 0 .555.12.24.115.37.315.13.195.13.43 0 .3-.195.525-.195.22-.48.275.33.025.555.245.23.22.23.6 0 .295-.15.535-.15.235-.425.375-.27.135-.62.135-.305 0-.59-.11-.28-.115-.465-.345l.28-.23q.14.17.345.26.205.085.42.085.36 0 .565-.19.205-.19.205-.515 0-.655-.715-.655h-.29l.05-.33h.205q.27 0 .46-.155.195-.155.195-.45 0-.275-.185-.43-.185-.155-.47-.155-.215 0-.385.08-.165.075-.345.24l-.225-.255q.415-.4.975-.4z"/><path d="m389.56037 524.0559q.275 0 .495.12.22.12.35.365.13.24.13.595 0 .37-.145.65-.14.275-.39.42-.245.145-.545.145-.6 0-.87-.435-.27-.435-.27-1.245 0-.57.15-.99.155-.425.44-.655.285-.23.685-.23.375 0 .68.205l-.16.28q-.245-.145-.525-.145-.395 0-.62.375-.225.37-.235 1.01.16-.245.365-.355.205-.11.465-.11zm-.105 1.96q.32 0 .485-.225.17-.23.17-.64 0-.405-.16-.58-.155-.175-.45-.175-.24 0-.435.13-.19.13-.33.36.01.59.18.86.17.27.54.27z"/><path d="m393.49842 526.2959h-1.985v-.34h.85v-2.65l-.79.475-.18-.295 1.02-.63h.365v3.1h.72z"/><path d="m399.01452 523.2009h-1.615v-.345h2.035v.315l-1.375 3.17-.385-.115z"/><path d="m401.40756 522.7959q.55 0 .835.46.29.455.29 1.315 0 .865-.29 1.325-.285.455-.835.455-.55 0-.84-.455-.285-.46-.285-1.325 0-.86.285-1.315.29-.46.84-.46zm0 .34q-.69 0-.69 1.435 0 1.445.69 1.445.69 0 .69-1.445 0-1.435-.69-1.435zm0 1.11q.14 0 .235.095.095.095.095.23 0 .14-.095.235-.095.095-.235.095-.14 0-.235-.095-.09-.095-.09-.235 0-.135.09-.23.095-.095.235-.095z"/><path d="m407.54866 524.0559q.275 0 .495.12.22.12.35.365.13.24.13.595 0 .37-.145.65-.14.275-.39.42-.245.145-.545.145-.6 0-.87-.435-.27-.435-.27-1.245 0-.57.15-.99.155-.425.44-.655.285-.23.685-.23.375 0 .68.205l-.16.28q-.245-.145-.525-.145-.395 0-.62.375-.225.37-.235 1.01.16-.245.365-.355.205-.11.465-.11zm-.105 1.96q.32 0 .485-.225.17-.23.17-.64 0-.405-.16-.58-.155-.175-.45-.175-.24 0-.435.13-.19.13-.33.36.01.59.18.86.17.27.54.27z"/><path d="m410.3467 522.8009q.56 0 .84.35.28.35.28.98 0 .73-.185 1.16-.185.425-.57.67-.385.245-1.075.44l-.095-.315q.735-.2 1.11-.54.375-.34.38-.94-.125.185-.34.305-.215.12-.49.12-.28 0-.5-.13-.22-.135-.345-.385-.12-.25-.12-.58 0-.36.145-.615.15-.255.4-.385.25-.135.565-.135zm-.065 1.9q.24 0 .42-.12.185-.125.34-.355.005-.595-.16-.84-.165-.245-.535-.245-.335 0-.51.205-.17.205-.17.605 0 .38.16.565.16.185.455.185z"/><path d="m417.0028 523.2009h-1.615v-.345h2.035v.315l-1.375 3.17-.385-.115z"/><path d="m420.09084 525.4559v.84h-.405v-.84h-1.43v-.3l1.015-2.36.345.15-.92 2.18h.995l.035-.98h.365v.98h.445v.33z"/><path d="m425.53694 524.0559q.275 0 .495.12.22.12.35.365.13.24.13.595 0 .37-.145.65-.14.275-.39.42-.245.145-.545.145-.6 0-.87-.435-.27-.435-.27-1.245 0-.57.15-.99.155-.425.44-.655.285-.23.685-.23.375 0 .68.205l-.16.28q-.245-.145-.525-.145-.395 0-.62.375-.225.37-.235 1.01.16-.245.365-.355.205-.11.465-.11zm-.105 1.96q.32 0 .485-.225.17-.23.17-.64 0-.405-.16-.58-.155-.175-.45-.175-.24 0-.435.13-.19.13-.33.36.01.59.18.86.17.27.54.27z"/><path d="m429.47498 526.2959h-1.985v-.34h.85v-2.65l-.79.475-.18-.295 1.02-.63h.365v3.1h.72z"/><path d="m389.56037 530.3059q.275 0 .495.12.22.12.35.365.13.24.13.595 0 .37-.145.65-.14.275-.39.42-.245.145-.545.145-.6 0-.87-.435-.27-.435-.27-1.245 0-.57.15-.99.155-.425.44-.655.285-.23.685-.23.375 0 .68.205l-.16.28q-.245-.145-.525-.145-.395 0-.62.375-.225.37-.235 1.01.16-.245.365-.355.205-.11.465-.11zm-.105 1.96q.32 0 .485-.225.17-.23.17-.64 0-.405-.16-.58-.155-.175-.45-.175-.24 0-.435.13-.19.13-.33.36.01.59.18.86.17.27.54.27z"/><path d="m392.35842 529.0509q.56 0 .84.35.28.35.28.98 0 .73-.185 1.16-.185.425-.57.67-.385.245-1.075.44l-.095-.315q.735-.2 1.11-.54.375-.34.38-.94-.125.185-.34.305-.215.12-.49.12-.28 0-.5-.13-.22-.135-.345-.385-.12-.25-.12-.58 0-.36.145-.615.15-.255.4-.385.25-.135.565-.135zm-.065 1.9q.24 0 .42-.12.185-.125.34-.355.005-.595-.16-.84-.165-.245-.535-.245-.335 0-.51.205-.17.205-.17.605 0 .38.16.565.16.185.455.185z"/><path d="m398.55452 530.3059q.275 0 .495.12.22.12.35.365.13.24.13.595 0 .37-.145.65-.14.275-.39.42-.245.145-.545.145-.6 0-.87-.435-.27-.435-.27-1.245 0-.57.15-.99.155-.425.44-.655.285-.23.685-.23.375 0 .68.205l-.16.28q-.245-.145-.525-.145-.395 0-.62.375-.225.37-.235 1.01.16-.245.365-.355.205-.11.465-.11zm-.105 1.96q.32 0 .485-.225.17-.23.17-.64 0-.405-.16-.58-.155-.175-.45-.175-.24 0-.435.13-.19.13-.33.36.01.59.18.86.17.27.54.27z"/><path d="m402.24256 530.6209v.355h-1.275v1.225h1.565v.345h-1.995v-3.44h1.95l-.05.35h-1.47v1.165z"/><path d="m407.54866 530.3059q.275 0 .495.12.22.12.35.365.13.24.13.595 0 .37-.145.65-.14.275-.39.42-.245.145-.545.145-.6 0-.87-.435-.27-.435-.27-1.245 0-.57.15-.99.155-.425.44-.655.285-.23.685-.23.375 0 .68.205l-.16.28q-.245-.145-.525-.145-.395 0-.62.375-.225.37-.235 1.01.16-.245.365-.355.205-.11.465-.11zm-.105 1.96q.32 0 .485-.225.17-.23.17-.64 0-.405-.16-.58-.155-.175-.45-.175-.24 0-.435.13-.19.13-.33.36.01.59.18.86.17.27.54.27z"/><path d="m409.9117 529.4359v1.09q.15-.085.29-.115.145-.035.305-.035.43 0 .685.285.255.285.255.795 0 .34-.145.6-.14.26-.405.405-.26.14-.61.14-.575 0-.995-.41l.255-.25q.16.165.34.245.18.075.405.075.345 0 .53-.205.19-.21.19-.61 0-.395-.17-.565-.165-.175-.45-.175-.145 0-.26.03-.115.025-.28.085h-.335v-1.715h1.82l-.065.33z"/><path d="m416.2428 529.0459q.32 0 .55.125.235.125.36.345.125.22.125.495 0 .315-.15.615-.145.3-.47.665-.325.36-.92.9h1.62l-.05.355h-2.045v-.34q.68-.65 1.005-1.01.325-.365.45-.625.125-.26.125-.55 0-.29-.165-.455-.16-.17-.45-.17-.245 0-.41.085-.165.08-.335.28l-.29-.22q.21-.255.46-.375.25-.12.59-.12z"/><path d="m419.39584 529.0459q.55 0 .835.46.29.455.29 1.315 0 .865-.29 1.325-.285.455-.835.455-.55 0-.84-.455-.285-.46-.285-1.325 0-.86.285-1.315.29-.46.84-.46zm0 .34q-.69 0-.69 1.435 0 1.445.69 1.445.69 0 .69-1.445 0-1.435-.69-1.435zm0 1.11q.14 0 .235.095.095.095.095.23 0 .14-.095.235-.095.095-.235.095-.14 0-.235-.095-.09-.095-.09-.235 0-.135.09-.23.095-.095.235-.095z"/></g></g><g transform="matrix(.91666667 0 0 .91666667 33.920211 42.91396)"><rect fill="url(#a)" height="36.219646" ry="1.704454" width="48" x="384.71042" y="505.94531"/><g fill="#0f0"><path d="m389.41537 516.5459q.55 0 .835.46.29.455.29 1.315 0 .865-.29 1.325-.285.455-.835.455-.55 0-.84-.455-.285-.46-.285-1.325 0-.86.285-1.315.29-.46.84-.46zm0 .34q-.69 0-.69 1.435 0 1.445.69 1.445.69 0 .69-1.445 0-1.435-.69-1.435zm0 1.11q.14 0 .235.095.095.095.095.23 0 .14-.095.235-.095.095-.235.095-.14 0-.235-.095-.09-.095-.09-.235 0-.135.09-.23.095-.095.235-.095z"/><path d="m392.16842 518.6559-.855-1.24h.49l.615.98.62-.98h.475l-.85 1.22.97 1.41h-.51l-.725-1.13-.73 1.13h-.475z"/><path d="m399.10452 519.2059v.84h-.405v-.84h-1.43v-.3l1.015-2.36.345.15-.92 2.18h.995l.035-.98h.365v.98h.445v.33z"/><path d="m401.69756 516.5459q.325 0 .55.085.23.08.445.25l-.24.28q-.31-.255-.725-.255-.47 0-.765.34-.29.335-.29 1.075 0 .73.285 1.075.29.34.765.34.26 0 .445-.075.19-.08.355-.215l.22.285q-.17.165-.425.27-.255.1-.6.1-.425 0-.765-.205-.335-.21-.53-.61-.195-.4-.195-.965 0-.56.195-.96.2-.405.535-.61.335-.205.74-.205z"/><path d="m407.54866 517.8059q.275 0 .495.12.22.12.35.365.13.24.13.595 0 .37-.145.65-.14.275-.39.42-.245.145-.545.145-.6 0-.87-.435-.27-.435-.27-1.245 0-.57.15-.99.155-.425.44-.655.285-.23.685-.23.375 0 .68.205l-.16.28q-.245-.145-.525-.145-.395 0-.62.375-.225.37-.235 1.01.16-.245.365-.355.205-.11.465-.11zm-.105 1.96q.32 0 .485-.225.17-.23.17-.64 0-.405-.16-.58-.155-.175-.45-.175-.24 0-.435.13-.19.13-.33.36.01.59.18.86.17.27.54.27z"/><path d="m411.4867 520.0459h-1.985v-.34h.85v-2.65l-.79.475-.18-.295 1.02-.63h.365v3.1h.72z"/><path d="m416.2428 516.5459q.32 0 .55.125.235.125.36.345.125.22.125.495 0 .315-.15.615-.145.3-.47.665-.325.36-.92.9h1.62l-.05.355h-2.045v-.34q.68-.65 1.005-1.01.325-.365.45-.625.125-.26.125-.55 0-.29-.165-.455-.16-.17-.45-.17-.245 0-.41.085-.165.08-.335.28l-.29-.22q.21-.255.46-.375.25-.12.59-.12z"/><path d="m419.39584 516.5459q.55 0 .835.46.29.455.29 1.315 0 .865-.29 1.325-.285.455-.835.455-.55 0-.84-.455-.285-.46-.285-1.325 0-.86.285-1.315.29-.46.84-.46zm0 .34q-.69 0-.69 1.435 0 1.445.69 1.445.69 0 .69-1.445 0-1.435-.69-1.435zm0 1.11q.14 0 .235.095.095.095.095.23 0 .14-.095.235-.095.095-.235.095-.14 0-.235-.095-.09-.095-.09-.235 0-.135.09-.23.095-.095.235-.095z"/><path d="m426.08694 519.2059v.84h-.405v-.84h-1.43v-.3l1.015-2.36.345.15-.92 2.18h.995l.035-.98h.365v.98h.445v.33z"/><path d="m428.23498 516.5459q.315 0 .555.12.24.115.37.315.13.195.13.43 0 .3-.195.525-.195.22-.48.275.33.025.555.245.23.22.23.6 0 .295-.15.535-.15.235-.425.375-.27.135-.62.135-.305 0-.59-.11-.28-.115-.465-.345l.28-.23q.14.17.345.26.205.085.42.085.36 0 .565-.19.205-.19.205-.515 0-.655-.715-.655h-.29l.05-.33h.205q.27 0 .46-.155.195-.155.195-.45 0-.275-.185-.43-.185-.155-.47-.155-.215 0-.385.08-.165.075-.345.24l-.225-.255q.415-.4.975-.4z"/><path d="m389.56037 524.0559q.275 0 .495.12.22.12.35.365.13.24.13.595 0 .37-.145.65-.14.275-.39.42-.245.145-.545.145-.6 0-.87-.435-.27-.435-.27-1.245 0-.57.15-.99.155-.425.44-.655.285-.23.685-.23.375 0 .68.205l-.16.28q-.245-.145-.525-.145-.395 0-.62.375-.225.37-.235 1.01.16-.245.365-.355.205-.11.465-.11zm-.105 1.96q.32 0 .485-.225.17-.23.17-.64 0-.405-.16-.58-.155-.175-.45-.175-.24 0-.435.13-.19.13-.33.36.01.59.18.86.17.27.54.27z"/><path d="m393.49842 526.2959h-1.985v-.34h.85v-2.65l-.79.475-.18-.295 1.02-.63h.365v3.1h.72z"/><path d="m399.01452 523.2009h-1.615v-.345h2.035v.315l-1.375 3.17-.385-.115z"/><path d="m401.40756 522.7959q.55 0 .835.46.29.455.29 1.315 0 .865-.29 1.325-.285.455-.835.455-.55 0-.84-.455-.285-.46-.285-1.325 0-.86.285-1.315.29-.46.84-.46zm0 .34q-.69 0-.69 1.435 0 1.445.69 1.445.69 0 .69-1.445 0-1.435-.69-1.435zm0 1.11q.14 0 .235.095.095.095.095.23 0 .14-.095.235-.095.095-.235.095-.14 0-.235-.095-.09-.095-.09-.235 0-.135.09-.23.095-.095.235-.095z"/><path d="m407.54866 524.0559q.275 0 .495.12.22.12.35.365.13.24.13.595 0 .37-.145.65-.14.275-.39.42-.245.145-.545.145-.6 0-.87-.435-.27-.435-.27-1.245 0-.57.15-.99.155-.425.44-.655.285-.23.685-.23.375 0 .68.205l-.16.28q-.245-.145-.525-.145-.395 0-.62.375-.225.37-.235 1.01.16-.245.365-.355.205-.11.465-.11zm-.105 1.96q.32 0 .485-.225.17-.23.17-.64 0-.405-.16-.58-.155-.175-.45-.175-.24 0-.435.13-.19.13-.33.36.01.59.18.86.17.27.54.27z"/><path d="m410.3467 522.8009q.56 0 .84.35.28.35.28.98 0 .73-.185 1.16-.185.425-.57.67-.385.245-1.075.44l-.095-.315q.735-.2 1.11-.54.375-.34.38-.94-.125.185-.34.305-.215.12-.49.12-.28 0-.5-.13-.22-.135-.345-.385-.12-.25-.12-.58 0-.36.145-.615.15-.255.4-.385.25-.135.565-.135zm-.065 1.9q.24 0 .42-.12.185-.125.34-.355.005-.595-.16-.84-.165-.245-.535-.245-.335 0-.51.205-.17.205-.17.605 0 .38.16.565.16.185.455.185z"/><path d="m417.0028 523.2009h-1.615v-.345h2.035v.315l-1.375 3.17-.385-.115z"/><path d="m420.09084 525.4559v.84h-.405v-.84h-1.43v-.3l1.015-2.36.345.15-.92 2.18h.995l.035-.98h.365v.98h.445v.33z"/><path d="m425.53694 524.0559q.275 0 .495.12.22.12.35.365.13.24.13.595 0 .37-.145.65-.14.275-.39.42-.245.145-.545.145-.6 0-.87-.435-.27-.435-.27-1.245 0-.57.15-.99.155-.425.44-.655.285-.23.685-.23.375 0 .68.205l-.16.28q-.245-.145-.525-.145-.395 0-.62.375-.225.37-.235 1.01.16-.245.365-.355.205-.11.465-.11zm-.105 1.96q.32 0 .485-.225.17-.23.17-.64 0-.405-.16-.58-.155-.175-.45-.175-.24 0-.435.13-.19.13-.33.36.01.59.18.86.17.27.54.27z"/><path d="m429.47498 526.2959h-1.985v-.34h.85v-2.65l-.79.475-.18-.295 1.02-.63h.365v3.1h.72z"/><path d="m389.56037 530.3059q.275 0 .495.12.22.12.35.365.13.24.13.595 0 .37-.145.65-.14.275-.39.42-.245.145-.545.145-.6 0-.87-.435-.27-.435-.27-1.245 0-.57.15-.99.155-.425.44-.655.285-.23.685-.23.375 0 .68.205l-.16.28q-.245-.145-.525-.145-.395 0-.62.375-.225.37-.235 1.01.16-.245.365-.355.205-.11.465-.11zm-.105 1.96q.32 0 .485-.225.17-.23.17-.64 0-.405-.16-.58-.155-.175-.45-.175-.24 0-.435.13-.19.13-.33.36.01.59.18.86.17.27.54.27z"/><path d="m392.35842 529.0509q.56 0 .84.35.28.35.28.98 0 .73-.185 1.16-.185.425-.57.67-.385.245-1.075.44l-.095-.315q.735-.2 1.11-.54.375-.34.38-.94-.125.185-.34.305-.215.12-.49.12-.28 0-.5-.13-.22-.135-.345-.385-.12-.25-.12-.58 0-.36.145-.615.15-.255.4-.385.25-.135.565-.135zm-.065 1.9q.24 0 .42-.12.185-.125.34-.355.005-.595-.16-.84-.165-.245-.535-.245-.335 0-.51.205-.17.205-.17.605 0 .38.16.565.16.185.455.185z"/><path d="m398.55452 530.3059q.275 0 .495.12.22.12.35.365.13.24.13.595 0 .37-.145.65-.14.275-.39.42-.245.145-.545.145-.6 0-.87-.435-.27-.435-.27-1.245 0-.57.15-.99.155-.425.44-.655.285-.23.685-.23.375 0 .68.205l-.16.28q-.245-.145-.525-.145-.395 0-.62.375-.225.37-.235 1.01.16-.245.365-.355.205-.11.465-.11zm-.105 1.96q.32 0 .485-.225.17-.23.17-.64 0-.405-.16-.58-.155-.175-.45-.175-.24 0-.435.13-.19.13-.33.36.01.59.18.86.17.27.54.27z"/><path d="m402.24256 530.6209v.355h-1.275v1.225h1.565v.345h-1.995v-3.44h1.95l-.05.35h-1.47v1.165z"/><path d="m407.54866 530.3059q.275 0 .495.12.22.12.35.365.13.24.13.595 0 .37-.145.65-.14.275-.39.42-.245.145-.545.145-.6 0-.87-.435-.27-.435-.27-1.245 0-.57.15-.99.155-.425.44-.655.285-.23.685-.23.375 0 .68.205l-.16.28q-.245-.145-.525-.145-.395 0-.62.375-.225.37-.235 1.01.16-.245.365-.355.205-.11.465-.11zm-.105 1.96q.32 0 .485-.225.17-.23.17-.64 0-.405-.16-.58-.155-.175-.45-.175-.24 0-.435.13-.19.13-.33.36.01.59.18.86.17.27.54.27z"/><path d="m409.9117 529.4359v1.09q.15-.085.29-.115.145-.035.305-.035.43 0 .685.285.255.285.255.795 0 .34-.145.6-.14.26-.405.405-.26.14-.61.14-.575 0-.995-.41l.255-.25q.16.165.34.245.18.075.405.075.345 0 .53-.205.19-.21.19-.61 0-.395-.17-.565-.165-.175-.45-.175-.145 0-.26.03-.115.025-.28.085h-.335v-1.715h1.82l-.065.33z"/><path d="m416.2428 529.0459q.32 0 .55.125.235.125.36.345.125.22.125.495 0 .315-.15.615-.145.3-.47.665-.325.36-.92.9h1.62l-.05.355h-2.045v-.34q.68-.65 1.005-1.01.325-.365.45-.625.125-.26.125-.55 0-.29-.165-.455-.16-.17-.45-.17-.245 0-.41.085-.165.08-.335.28l-.29-.22q.21-.255.46-.375.25-.12.59-.12z"/><path d="m419.39584 529.0459q.55 0 .835.46.29.455.29 1.315 0 .865-.29 1.325-.285.455-.835.455-.55 0-.84-.455-.285-.46-.285-1.325 0-.86.285-1.315.29-.46.84-.46zm0 .34q-.69 0-.69 1.435 0 1.445.69 1.445.69 0 .69-1.445 0-1.435-.69-1.435zm0 1.11q.14 0 .235.095.095.095.095.23 0 .14-.095.235-.095.095-.235.095-.14 0-.235-.095-.09-.095-.09-.235 0-.135.09-.23.095-.095.235-.095z"/></g></g><g fill="#0f0"><circle cx="398.93719" cy="510.1976" r="1.781426"/><circle cx="394.56079" cy="510.23541" r="1.781426"/><circle cx="390.25885" cy="510.27759" r="1.781426"/></g></g></svg>