<svg height="48" width="48" xmlns="http://www.w3.org/2000/svg" xmlns:xlink="http://www.w3.org/1999/xlink"><linearGradient id="a" gradientTransform="matrix(1 0 0 .97651015 -.000026 11.327455)" gradientUnits="userSpaceOnUse" x1="409.57144" x2="409.57144" y1="542.79797" y2="507.798"><stop offset="0" stop-color="#2a2c2f"/><stop offset="1" stop-color="#424649"/></linearGradient><g transform="translate(-384.57143 -499.798)"><g transform="translate(-.000012 -.500166)"><rect fill-opacity=".666667" height="33.201344" ry="1.562416" width="44" x="386.57144" y="508.19766"/><rect fill="url(#a)" height="33.201344" ry="1.562416" width="44" x="386.57144" y="507.19733"/></g><g fill="#fff"><circle cx="398.937184096958" cy="510.197597118339" r="1.781425731018"/><circle cx="394.560790725378" cy="510.235384400809" r="1.781425731018"/><circle cx="390.258860528078" cy="510.277571211991" r="1.781425731018"/></g><path d="m400.27748 515.50405v6.63477h.83008v-6.63477zm1.66016 0v6.63477h.82812v-6.63477zm1.6582 0v6.63477h.82812v-6.63477zm9.12305 0v6.63477h.82812v-6.63477zm0 6.63477h-.83008v3.31835h.83008zm0 3.31835v6.63477h.82812v-6.63477zm1.6582-9.95312v6.63477h.82812v-6.63477zm1.6582 0v6.63477h.83008v-6.63477zm-10.78125 6.63477v3.31835h.83008v-3.31835zm3.31641 0v3.31835h.83008v-3.31835zm-8.29297 3.31835v6.63477h.83008v-6.63477zm1.66016 0v6.63477h.82812v-6.63477zm1.6582 0v6.63477h.82812v-6.63477zm10.78125 0v6.63477h.82812v-6.63477zm1.6582 0v6.63477h.83008v-6.63477z" fill="#fdfdfd"/></g></svg>