<svg height="48" viewBox="0 0 48 48" width="48" xmlns="http://www.w3.org/2000/svg" xmlns:xlink="http://www.w3.org/1999/xlink"><linearGradient id="a" gradientUnits="userSpaceOnUse" x1="-90.082281281041" x2="-90.082281281041" y1="1045.486595916082" y2="1002.595437582666"><stop offset="0" stop-color="#00aad4"/><stop offset="1" stop-color="#2ad4ff"/></linearGradient><linearGradient id="b" gradientUnits="userSpaceOnUse" x1="23.23351" x2="23.107239" y1="1039.482755" y2="1015.617901"><stop offset="0" stop-color="#2d2d2d"/><stop offset="1" stop-color="#3c3c3c"/></linearGradient><g transform="translate(0 -1004.3622)"><rect fill="#006680" height="43.321617" rx="3.938329" transform="matrix(.99387958 -.11046892 .11046892 .99387958 0 0)" width="43.321617" x="-111.48572" y="1003.5425"/><rect fill="url(#a)" height="43.321617" rx="3.938329" transform="matrix(.99387958 -.11046892 .11046892 .99387958 0 0)" width="43.321617" x="-111.48572" y="1002.5577"/><g fill="none"><path d="m22.65573 1024.0695 2.656-.141 1.406-2.113.965 2.41 2.559.914-1.973 1.574-.043 2.555-2.094-1.34-2.801.902.785-2.477m-1.461-2.285"/><path d="m22.25773 1031.7525 2.496-.918.715-2.438 1.633 2.01 2.715.117-1.414 2.086.715 2.453-2.395-.656-2.406 1.691.016-2.598m-2.074-1.746"/><path d="m15.79673 1028.5225 2.652.199 1.66-1.922.652 2.512 2.422 1.234-2.156 1.309-.367 2.527-1.902-1.59-2.895.539 1.09-2.355m-1.156-2.453"/></g><path d="m26.72973 1015.7025c-2.48.32-5.145 1.527-7.313 5.098-4.957 8.16-4.605 11-5.395 11.918-.793.914-2.93 1.41-2.621 2.449.309 1.035.621.902.621.902s3.121 4.52 12.172 3.348c9.05-1.172 10.305-3.082 10.223-4.03-.082-.949-1.992-1.641-1.992-1.641s-1.414-4.984-1.051-7.03c.363-2.047 1.742-5.03 3.105-5.672 1.359-.648 2.039 2.168 2.742 1.473.699-.695-1.18-6.06-3.258-6.102-1.164-.023-4.059-1.121-7.234-.707m.008 6.848.691 2.043 2.098.594-1.773 1.262.078 2.145-1.773-1.262-2.09.73.672-2.02-1.348-1.695 2.203-.02m-5.84 4.227.074 1.48 1.324.793-1.43.516-.359 1.465-.973-1.141-1.523.098.816-1.234-.582-1.387 1.477.383m7.082-.664 1.418 1.898 2.395-.094-1.391 1.922.816 2.188-2.297-.711-1.887 1.457-.016-2.359-1.988-1.297 2.277-.746m.672-2.258" fill="url(#b)"/></g></svg>