<svg height="48" width="48" xmlns="http://www.w3.org/2000/svg" xmlns:xlink="http://www.w3.org/1999/xlink"><linearGradient gradientUnits="userSpaceOnUse" x1="0" x2="47" y1="23.5" y2="23.5"><stop offset="0" stop-color="#a9a3d4"/><stop offset=".47001833" stop-color="#87baff"/><stop offset="1" stop-color="#89ec85"/></linearGradient><linearGradient id="a" gradientUnits="userSpaceOnUse" x1="400.60784470476" x2="400.60784470476" y1="547.293765767005" y2="516.193770767005"><stop offset="0" stop-color="#0bac83"/><stop offset="1" stop-color="#10da96"/></linearGradient><g stroke-width="1.317422" transform="matrix(1.47909970662 0 0 1.47909970662 -569.107969082003 -762.694711578887)"><circle cx="400.99255" cy="531.87402" fill="url(#a)" r="15.55"/><path d="m398.51804 525.61064c-.56004.15717-1.01086.78214-1.01086 1.38928v9.62532c-.56789-.31135-1.29721-.43725-2.05334-.23149-1.36441.37118-2.21944 1.57085-1.92697 2.67922.29249 1.1083 1.63658 1.72735 3.00104 1.35608 1.08851-.29612 1.83888-1.13406 1.95852-2.01765l.0319-9.09613 7.07607-1.98462v7.1777c-.56789-.31137-1.2972-.43726-2.05335-.23157-1.3644.3712-2.21941 1.57093-1.92695 2.67923.2925 1.10836 1.63659 1.72733 3.00101 1.35614 1.08853-.29612 1.83889-1.13404 1.95855-2.01764l.032-11.84156c0-.45528-.26874-.7959-.63178-.85997l-7.45514 2.01766z" fill="#fff" fill-opacity=".847716" opacity=".9"/></g></svg>