<svg height="48" width="48" xmlns="http://www.w3.org/2000/svg" xmlns:xlink="http://www.w3.org/1999/xlink"><linearGradient id="a" gradientTransform="matrix(.93656781 0 0 .94442665 143.00429 52.34307)" gradientUnits="userSpaceOnUse" x1="41.749325" x2="41.357147" y1="226.20387" y2="102.25676"><stop offset="0" stop-color="#95a9bb"/><stop offset="1" stop-color="#cad3dc"/></linearGradient><g fill="#687681" transform="matrix(.392670130073 -.035146436904 .03605892956 .387317127421 7.183394237711 -55.474580583693)"><path d="m-23.525211 154.66937 47.828584.0363-.0419 55.16792-55.437374-.0422.0365-48.05392c.006-7.63847 7.21097-7.10853 7.61419-7.10821z" fill="#687681" fill-rule="evenodd"/><g fill="#687681" fill-rule="evenodd" transform="matrix(1.0014519 .00003763 .00003763 .95188387 .036529586238 11.689947414352)"><path d="m-23.87675 265.80577 47.759246.0362.044-57.95657-55.356996-.042-.03833 50.48297c-.0061 8.02458 7.189449 7.47907 7.59208 7.47936z"/><path d="m71.568966 150.27986-47.759241-.0362-.044 57.95657 55.356991.042.03835-50.48297c.0062-8.02458-7.189452-7.47907-7.592072-7.47936z"/><path d="m71.368015 265.8766-47.75924-.0363.044-57.95657 55.35699.0421-.0383 50.48297c-.006 8.02458-7.2008 7.46814-7.60343 7.46782z"/></g></g><rect fill="url(#a)" height="121.89765" ry="8.041512" transform="matrix(.361050781429 -.032588530962 .031466097294 .35518907591 -50.43779767573 -44.333162810063)" width="120.8718" x="127.69567" y="148.01404"/><g fill="#444d54" transform="matrix(.268656126322 -.030587336955 .030587337431 .268656126081 -106.962681910608 -108.048829772609)"><path d="m416.62404 489.48982-41.05903 42.04245c-15.54662 15.54176 10.06544 14.24661 19.33362 20.12458 4.28529 2.78955-13.75278 6.37611-10.06544 10.0623 3.58768 3.68618 21.62575 7.07349 25.21343 10.66005 3.58768 3.68618-7.27502 7.57162-3.68734 11.25781 3.48803 3.68619 11.85928.19925 13.35415 8.5679 1.09624 6.17685 15.34731 3.08842 21.72541-2.19179 3.98632-3.38731-6.87639-3.38731-3.28871-7.0735 8.96921-9.06602 16.94184-4.08469 20.23055-12.45333 1.79384-4.4832-13.55347-7.67125-9.4675-10.56042 9.76647-6.87424 45.64329-10.36118 29.10009-26.8992l-42.5539-43.53685c-5.28186-4.98134-13.9521-4.98134-18.83533 0zm47.13816 80.99647c0 2.09216 16.24423 3.28768 15.34731-.49813-1.29555-6.37611-13.55347-5.87797-15.34731.49813zm-69.2622 11.05856c3.68734 3.18805 9.26818-.69739 11.06202-5.18059-3.58768-4.68245-16.84218.29888-11.06202 5.18059zm67.26904-6.67499c-4.58426 4.18432.79726 8.5679 5.28187 5.67872 1.19589-.79701-.0997-4.68245-5.28187-5.67872z" fill="#444d54"/><path d="m432.96793 490.62884 16.24422 16.53802c1.49487 1.4944 1.49487 4.58283.59795 5.47947l-8.07228-6.57536-1.59453 9.66379-6.67707-3.58656-10.86271 6.87424-3.58768-14.44587-5.78016 12.55296-14.45038-.0996c-2.79042 0-2.39179-2.88917.49828-5.77834 5.6805-6.27648 16.74252-16.93654 20.23055-20.62272 3.58768-3.68619 9.86612-3.58656 13.45381 0z" fill="#bec9d3"/></g></svg>