<svg viewBox="0 0 48 48" xmlns="http://www.w3.org/2000/svg" xmlns:xlink="http://www.w3.org/1999/xlink"><linearGradient id="a" gradientUnits="userSpaceOnUse" x1="399.57144" x2="399.57144" y1="545.79797" y2="517.79797"><stop offset="0" stop-color="#3889e9"/><stop offset="1" stop-color="#5ea5fb"/></linearGradient><linearGradient id="b" gradientUnits="userSpaceOnUse" x1="-318.57867" x2="-318.57867" y1="653.95679" y2="301.29816"><stop offset="0" stop-color="#0a80fd"/><stop offset="1" stop-color="#56c5fa"/></linearGradient><circle cx="400.57138" cy="531.79791" fill="url(#a)" r="0" transform="matrix(1.637466544097 0 0 1.637466544097 -644.578187175317 -848.879334054169)"/><circle cx="-325.88733" cy="478.74667" fill="url(#b)" r="173.44701" transform="matrix(.138370791844 0 0 .138370791844 69.093287331483 -42.244555934903)"/><path d="m-67.446998 887.52751c-3.547248 0-7.085708-1.5396-9.659132-4.56329-6.598678-7.7725-15.996998-12.21518-25.7952-12.21518-9.96335 0-19.11829 4.31289-25.77787 12.15025-4.83384 5.70417-13.07578 6.14018-18.42266.96469-5.33812-5.16623-5.74675-13.9591-.90382-19.64458 11.4935-13.53233 27.93394-21.29557 45.10458-21.29557 17.144627 0 33.585077 7.78185 45.113384 21.34191 4.842528 5.6949 4.433891 14.4876-.903821 19.65382-2.486489 2.42074-5.625021 3.60795-8.754844 3.60795zm28.933627-34.80915c-3.329784 0-6.659664-1.35422-9.198271-4.05315-14.762465-15.66555-34.358758-24.29131-55.189688-24.29131-20.87435 0-40.47935 8.60716-55.21586 24.23555-5.10334 5.41664-13.36267 5.38884-18.4399-.0554-5.0774-5.44442-5.05999-14.25573.0549-19.67244 19.6485-20.85023 45.7915-32.33267 73.60371-32.33267 27.768795 0 53.903018 11.50106 73.586245 32.38834 5.112121 5.41671 5.129591 14.22794.05495 19.68163-2.547317 2.7177-5.903208 4.09955-9.250408 4.09955zm28.8728953-34.75357c-3.2428653 0-6.4944223-1.28929-9.0243393-3.86761-22.769702-23.28038-52.677162-36.09851-84.236515-36.09851-31.62018 0-61.54512 12.79952-84.25391 36.06129-5.19034 5.31464-13.44961 5.13844-18.43998-.40781-4.99038-5.54659-4.81652-14.35781.37312-19.67237 27.59492-28.25172 63.92727-43.806 102.32014-43.806 38.314577 0 74.638214 15.57281 102.28518979 43.83371 5.19912551 5.3148 5.37298651 14.12595.3919424 19.67245-2.56472469 2.84741-5.99022159 4.28501-9.41557689 4.28501zm-94.8953343 103.22339c8.700372 0 15.75354-7.13867 15.75354-15.94461 0-8.80584-7.053168-15.94452-15.75354-15.94452-8.70043 0-15.75361 7.13868-15.75361 15.94452 0 8.80594 7.05318 15.94461 15.75361 15.94461z" fill="#fff" fill-opacity=".850807" transform="matrix(.153586832666 0 0 .152033980771 39.806329366649 -102.651929311931)"/></svg>