<svg height="48" width="48" xmlns="http://www.w3.org/2000/svg" xmlns:xlink="http://www.w3.org/1999/xlink"><linearGradient id="a"><stop offset="0" stop-color="#1edf19"/><stop offset="1" stop-color="#7af36f"/></linearGradient><linearGradient id="b" gradientUnits="userSpaceOnUse" x1="399.57144" x2="399.57144" y1="545.79797" y2="517.79797"><stop offset="0" stop-color="#3889e9"/><stop offset="1" stop-color="#5ea5fb"/></linearGradient><linearGradient id="c" gradientUnits="userSpaceOnUse" x1="400.5119" x2="400.69922" xlink:href="#a" y1="546.07446" y2="517.77289"/><linearGradient gradientUnits="userSpaceOnUse" x1="41.16489" x2="54.039001" y1="89.36377" y2="20.836"><stop offset="0" stop-color="#e3e3e3"/><stop offset="1" stop-color="#fffcff"/></linearGradient><linearGradient id="d" gradientUnits="userSpaceOnUse" x1="394.81812" x2="396.73026" xlink:href="#a" y1="546.72809" y2="518.37012"/><g transform="matrix(1.428857346787 0 0 1.428857346787 -548.454401211078 -735.928444264688)"><circle cx="400.57138" cy="531.79791" fill="url(#b)" r="0"/><g transform="matrix(1.117536624128 0 0 1.117536624128 -47.015292188816 -62.460177851153)"><circle cx="400.57138" cy="531.79791" fill="url(#c)" r="13.999958" stroke="url(#d)" stroke-width=".807692"/><circle cx="400.57144" cy="531.79797" fill="none" r="13.999958"/></g></g><path d="m309.90867 276.39245-47.10595-47.1112c-9.38263-9.34495-24.92045-9.06103-34.62994.65197l-23.73218 23.72692c-1.49937-.82636-3.05131-1.68952-4.68299-2.60526-14.98663-8.3039-35.49837-19.68539-57.08272-41.28551-21.64832-21.64569-33.04032-42.18898-41.36963-57.18524-.87894-1.58875-1.72107-3.12054-2.552694-4.57521l15.927784-15.90411 7.83069-7.84033c9.72439-9.72703 9.99254-25.26046.63182-34.632576l-47.105951-47.116463c-9.360724-9.358971-24.905555-9.075047-34.629947.651974l-13.276069 13.352308.362792.360162c-4.451646 5.68023-8.171574 12.23151-10.939832 19.296307-2.551809 6.724789-4.140556 13.141993-4.867015 19.572338-6.2200357 51.56548 17.343892 98.69246 81.293358 162.6428 88.397594 88.39146 159.634434 81.71399 162.707644 81.388 6.69325-.80007 13.10782-2.39933 19.62668-4.93099 7.00345-2.73583 13.55035-6.4505 19.22708-10.89251l.29005.25764 13.44958-13.17004c9.70424-9.72527 9.98378-25.26396.62744-34.65098z" fill-opacity=".653061" transform="matrix(.076022656498 .006791896579 -.006791896579 .076022656498 12.903603302851 9.458408973188)"/></svg>