<svg height="48" viewBox="0 0 48 48" width="48" xmlns="http://www.w3.org/2000/svg" xmlns:xlink="http://www.w3.org/1999/xlink"><linearGradient id="a" gradientUnits="userSpaceOnUse" x1="404.366158" x2="404.889998" y1="540.043588" y2="509.413218"><stop offset="0" stop-color="#da3735"/><stop offset="1" stop-color="#f43f3a"/></linearGradient><g transform="matrix(1.036658 0 0 1.036658 -399.708563 -518.693058)"><path d="m402.16603 506.34772c-.11357-.003-.25074.002-.42906.002h-13.46593c-.42217 0-.76258.3428-.76258.76779v4.67972c-.00063.0177-.005.0342-.005.0521v28.30242c0 .81455.65677 1.47133 1.47132 1.47133h39.50319c.81454 0 1.46958-.65678 1.46958-1.47133v-28.30242c0-.81454-.65504-1.47131-1.46958-1.47131h-23.58796c-.014-.0187-.0233-.0288-.0382-.0486-.54429-.73329-1.36629-2.71025-1.90211-3.42554-.32258-.4697-.44273-.54694-.78343-.55587z" fill-opacity=".666667" stroke-width=".964638"/><path d="m402.16603 505.38289c-.11357-.003-.25074.002-.42906.002h-13.46593c-.42217 0-.76258.3428-.76258.76779v4.67972c-.00063.0177-.005.0342-.005.0521v28.30242c0 .81455.65677 1.47133 1.47132 1.47133h39.50319c.81454 0 1.46958-.65678 1.46958-1.47133v-28.30242c0-.81454-.65504-1.47131-1.46958-1.47131h-23.58796c-.014-.0187-.0233-.0288-.0382-.0486-.54429-.73329-1.36629-2.71025-1.90211-3.42554-.32258-.4697-.44273-.54695-.78343-.55587z" fill="url(#a)" stroke-width=".964638"/><g fill="#fff"><path d="m376.04128 529.65611c0-1.29584 1.05355-2.34751 2.35256-2.34751 1.29864 0 2.3522 1.05129 2.3522 2.34751 0 1.29698-1.05356 2.34826-2.3522 2.34826-1.29901-.00037-2.35256-1.05128-2.35256-2.34826zm10.66716 0c0-1.29584 1.0547-2.34751 2.35334-2.34751 1.29862 0 2.35256 1.05129 2.35256 2.34751 0 1.29698-1.05355 2.34826-2.35256 2.34826-1.29826-.00037-2.35334-1.05128-2.35334-2.34826zm5.56217 9.61491c-1.45798 3.36434-4.87244 5.53808-8.69892 5.53808-3.90805 0-7.34261-2.18472-8.75013-5.5661-.24129-.57921.0338-1.24398.6146-1.48475.14265-.0587.29061-.0867.43629-.0867.44616 0 .86956.26348 1.05128.70073 1.05355 2.53073 3.66296 4.16578 6.64796 4.16578 2.91747 0 5.5117-1.63618 6.60927-4.16881.24963-.5758.91962-.84118 1.49591-.59132.5778.24872.84338.91727.59374 1.49308z" transform="matrix(.83374987 0 0 .83374987 88.941343 78.492871)"/><circle cx="399.07913" cy="508.54785" fill-opacity=".852041" r="1.718432" stroke-width=".964638"/><circle cx="394.85751" cy="508.58429" fill-opacity=".852041" r="1.718432" stroke-width=".964638"/><circle cx="390.7077" cy="508.62494" fill-opacity=".852041" r="1.718432" stroke-width=".964638"/></g></g></svg>