<svg height="48" width="48" xmlns="http://www.w3.org/2000/svg" xmlns:xlink="http://www.w3.org/1999/xlink"><linearGradient id="a" gradientTransform="matrix(1.1170861 0 0 1.0835162 -2.486525 -85.742483)" gradientUnits="userSpaceOnUse" x1="17" x2="17" y1="1036.3622" y2="1012.3622"><stop offset="0" stop-color="#f39e18"/><stop offset="1" stop-color="#f0c953"/></linearGradient><linearGradient id="b" gradientTransform="matrix(.77469186 0 0 1.0835162 8.842632 -85.742483)" gradientUnits="userSpaceOnUse" x1="33.461716" x2="34.116894" y1="1013.622" y2="1037.2084"><stop offset="0" stop-color="#f6fbff"/><stop offset="1" stop-color="#eaeff2"/></linearGradient><g transform="matrix(1.525397781032 0 0 1.525397781032 -9.824831841566 -1538.980941752057)"><path d="m32.78596 1010.5461c-.128128 0-.273391 0-.438202.015l-10.660177.9996v.0003h-10.998356c-1.3593394-.1007-1.9107704.024-1.9107704 1.2561v23.6782c-.08538 1.3515.478245 1.3228 1.8000754 1.3228h11.21883l10.640051 1.2426c1.031473 0 1.239895-.3937 1.238981-1.2511h.934648c.859837 0 1.010915.029.955385-1.3229v-23.6781c0-1.2317-.07115-1.3568-.955385-1.2561h-.885248c-.036-.7015-.201046-.9911-.939832-1.0066z" fill-opacity=".666667" fill-rule="evenodd"/><g transform="matrix(.98921844 0 0 .98921844 .094555 10.87514)"><g fill-rule="evenodd"><path d="m27.758934 1018.9413c-.06477 0-.138387 0-.221693.01l-5.388604.5056h-5.559269c-.687087-.051-.96535.013-.96535.6352v11.9677c-.04316.6832.241503.6692.909633.6692h5.675393l5.373356.6282c.517152 0 .621602-.2066.622845-.6329h.443383c.463343 0 .544869.015.514931-.6686v-11.9683c0-.6226-.03844-.6861-.514931-.6351h-.417577c-.01901-.3485-.101723-.5008-.472117-.5086z" fill-opacity=".666667"/><path d="m34.82812 1037.7945h-8.976252v-26.5439h8.976252c.952984-.1018 1.029669.025 1.029669 1.27v23.9365c.05988 1.3664-.102984 1.3374-1.029669 1.3374z" fill="url(#b)"/><path d="m33.048383 1010.2331c-.129528 0-.276773 0-.443386.016l-10.777207 1.0111h-11.118539c-1.3741735-.1019-1.9306995.026-1.9306995 1.2703v23.9356c-.08631 1.3663.483005 1.3384 1.8192655 1.3384h11.350788l10.74671 1.2562c1.296101 0 1.307121-.6149 1.223404-1.9812l.09032-25.3196c0-1.0894-.05399-1.507-.960654-1.526z" fill="url(#a)"/><path d="m32.695447 1039.0594-10.867218-1.2694v-26.5309l10.776546-1.0105c1.332885-.1018 1.404772.2651 1.404772 1.5102l-.09067 25.3204c.08372 1.3663.07267 1.9802-1.223428 1.9802z" fill-opacity=".039216"/></g><path d="m23.169389 1017.5042c-.585838 0-1.075612.4898-1.075605 1.0756v3.0966l1.201117 2.0961v-5.0672h6.901724v5.8965h-6.426677l.688534 1.2011h5.862477c.585839 0 1.076783-.4909 1.076783-1.0768v-6.1463c0-.5858-.490944-1.0756-1.076783-1.0756z" fill="#e5eaee"/><path d="m16.330142 1018.817c-2.614093 0-4.745817 2.1328-4.745817 4.7469s2.131724 4.7458 4.745817 4.7458h.03639l.750698-1.289c-.25325.057-.516066.09-.787062.09-1.964961 0-3.5447-1.5797-3.5447-3.5447s1.579739-3.5459 3.5447-3.5459c1.606644 0 2.955678 1.0565 3.394566 2.516.227041-.4477.523074-.8657.778852-1.2281-.805211-1.4807-2.375298-2.489-4.173412-2.489z" fill="#e5eaee"/><path d="m20.889137 1022.3351a.60061845.60061845 0 0 0 -.15635.1764l-4.692013 8.0668a.60061845.60061845 0 0 0  .517832.9029l9.33216.029a.60061845.60061845 0 0 0  .522606-.8997l-4.640148-8.0961a.60061845.60061845 0 0 0 -.884087-.1797zm.359986 1.6795 3.605302 6.2916-7.252385-.022 3.647083-6.2692z" fill="#e5eaee"/></g></g></svg>