<svg height="48" width="48" xmlns="http://www.w3.org/2000/svg" xmlns:xlink="http://www.w3.org/1999/xlink"><linearGradient id="a" gradientTransform="matrix(4.1984817 0 0 4.1984817 58.109776 531.85328)" gradientUnits="userSpaceOnUse" x2="0" y1="47" y2="1"><stop offset="0" stop-color="#e8e8e8"/><stop offset="1" stop-color="#f2f2f2"/></linearGradient><linearGradient id="b" gradientTransform="translate(-.000004)" gradientUnits="userSpaceOnUse" x1="366.69037" x2="364.61337" xlink:href="#a" y1="717.42932" y2="526.22675"/><linearGradient id="c" gradientTransform="matrix(2.8861019 0 0 2.8861019 295.66924 553.82493)" gradientUnits="userSpaceOnUse" x1="24.463116" x2="23.88739" xlink:href="#a" y1="50.130985" y2="-2.868545"/><linearGradient id="d" gradientUnits="userSpaceOnUse" x1="164.18218113458" x2="149.496766017" y1="1219.68683722544" y2="518.53472778234"><stop offset="0" stop-color="#b3b3b3"/><stop offset="1" stop-color="#eee"/></linearGradient><g fill="#fff" fill-opacity=".854839" transform="matrix(.227825613909 -.000000000298 .000000000297 .227714465651 -59.06521555786 -117.827534785412)"><g fill-opacity="1"><path d="m461.16505 622.82306a96.565079 96.565079 0 0 1 -96.56507 96.56508 96.565079 96.565079 0 0 1 -96.56508-96.56508 96.565079 96.565079 0 0 1 96.56508-96.56508 96.565079 96.565079 0 0 1 96.56507 96.56508z" fill="#ee526c"/><path d="m364.61336 526.22676c-9.50753 0-18.68765 1.39881-27.36826 3.96119-6.23761 13.27397-5.98996 36.12536-2.9425 46.82854 2.97609 10.46795 7.17786 20.51585 11.50138 30.44613-7.44652-1.78947-14.53205-4.28044-21.07187-7.96439-11.44683-6.61599-27.69148-25.63639-32.05698-41.0947-11.24533 12.55986-19.25852 28.07697-22.71733 45.24492 7.79072 10.60237 25.69762 20.82248 38.91163 24.12837 10.64507 2.66321 21.41608 3.80997 32.11991 4.73411-4.94474 5.10796-10.32185 9.66143-16.47132 13.29917-11.4594 6.63698-36.10343 11.20727-51.65969 7.22927 5.26377 16.01277 14.67564 30.21711 26.85284 41.30675 14.73354-1.16778 33.80647-12.6249 41.31596-20.67329 7.53047-8.05259 14.02413-17.04192 20.35828-26.08167 1.91411 7.09485 3.144 14.21491 3.20697 21.44418 0 13.33278-7.93764 37.19653-18.55333 48.60121 6.00674 1.17198 12.20237 1.80626 18.55333 1.80626 10.01543 0 19.66989-1.51641 28.75346-4.34763 5.2176-11.95078 5.16303-33.10931 1.59088-46.41689-2.90053-10.8292-7.1401-20.98211-11.52656-30.96278 7.45911 1.75165 14.6034 4.24262 21.29015 8.01478 11.48459 6.62017 27.78801 25.73721 32.09473 41.22072 10.89275-12.27843 18.7558-27.35447 22.28177-44.01834-8.43715-12.12719-27.83517-22.94801-38.52221-25.45577-10.64929-2.47837-21.5924-3.62094-32.49773-4.58708 5.00354-5.14577 10.38065-9.69924 16.43775-13.27397 11.472-6.62858 36.23972-11.12028 51.79177-7.12549-5.31794-16.34958-15.207-31.1632-28.14999-42.37885-14.70032 3.16768-30.27277 11.68248-40.1547 21.62481-7.69837 7.96857-14.12906 16.80248-20.33309 25.71201-1.80917-6.80501-2.9719-13.69825-3.04326-20.8057-.0126-13.33277 7.92085-37.1965 18.53654-48.6012-6.00675-1.17197-12.20238-1.80626-18.55334-1.80626v-.0168z" fill="url(#b)"/><path d="m428.97666 622.82306a64.376717 64.376717 0 0 1 -64.37671 64.37672 64.376717 64.376717 0 0 1 -64.37672-64.37672 64.376717 64.376717 0 0 1 64.37672-64.37672 64.376717 64.376717 0 0 1 64.37671 64.37672z" fill="url(#c)"/></g><path d="m19.441406 17.373047c-.262969-.036188-.441406.166125-.441406.703125v12.599609c0 .282234.06558.481598.175781.591797l14.613281 14.613281a24.000001 24.000001 0 0 0 9.939454-8.226562l-13.595704-13.595703c-.04869-.04869-.109055-.0968-.18164-.142578l-10.222656-6.431641c-.1025-.0615-.199453-.09926-.28711-.111328z" fill="#000" fill-opacity=".078431" transform="matrix(4.0235448 0 0 4.0235448 268.03489 526.25796)"/><path d="m388.54091 626.18449-41.12465 25.87944c-1.61344 1.00589-2.93719.14083-2.93719-2.37791v-50.70069c0-2.88086 1.28754-3.36771 2.93719-2.37791l41.12465 25.87944c1.83072 1.15475 1.75427 2.58714 0 3.69763z" fill="#ee526c" fill-opacity="1"/><path d="m457.30247 622.82306a92.702469 92.702469 0 0 1 -92.70246 92.70247 92.702469 92.702469 0 0 1 -92.70247-92.70247 92.702469 92.702469 0 0 1 92.70247-92.70247 92.702469 92.702469 0 0 1 92.70246 92.70247z" fill="none" stroke="url(#d)" stroke-linecap="round" stroke-linejoin="round" stroke-width="7.725205"/></g></svg>