<svg height="48" width="48" xmlns="http://www.w3.org/2000/svg" xmlns:xlink="http://www.w3.org/1999/xlink"><linearGradient gradientUnits="userSpaceOnUse" x1="0" x2="47" y1="23.5" y2="23.5"><stop offset="0" stop-color="#a9a3d4"/><stop offset=".47001833" stop-color="#87baff"/><stop offset="1" stop-color="#89ec85"/></linearGradient><linearGradient id="a" gradientTransform="matrix(.3430803 0 0 .33736737 -5.409662 1006.4426)" gradientUnits="userSpaceOnUse" x1="10.09375" x2="122.719" y1="107.36093" y2="107.36093"><stop offset="0" stop-color="#1a1a1a"/><stop offset=".11054216" stop-color="#2c2c2e"/><stop offset=".29001436" stop-color="#2b2b2d"/><stop offset=".5118711" stop-color="#2a2b2d"/><stop offset=".75173318" stop-color="#2b2b2d"/><stop offset=".89659214" stop-color="#323232"/><stop offset="1" stop-color="#171717"/></linearGradient><linearGradient id="b" gradientUnits="userSpaceOnUse" x1="16.748680228608" x2="16.916177028864" y1="1039.001207208896" y2="1008.149216397824"><stop offset="0" stop-color="#bbbec4"/><stop offset="1" stop-color="#dddfe2"/></linearGradient><linearGradient id="c" gradientTransform="matrix(.69798948 0 0 1.3810752 -296.69911 292.264)" gradientUnits="userSpaceOnUse" x1="451.02078" x2="451.02078" y1="544.14978" y2="543.0885"><stop offset="0" stop-color="#30cf41"/><stop offset="1" stop-color="#47f383"/></linearGradient><linearGradient id="d" gradientUnits="userSpaceOnUse" x1="32.032897454656" x2="32.032897454656" y1="1044.655572272896" y2="1041.724171107136"><stop offset="0" stop-color="#040404"/><stop offset="1" stop-color="#121212" stop-opacity=".908163"/></linearGradient><g stroke-width="1.317422" transform="matrix(1.138587 0 0 1.138587 4.216376 -1145.11732)"><path d="m-1.9466023 1039.453.3430729 5.4074c0 .5607.4590417 1.0121 1.02924621 1.0121h35.89476519c.570205 0 1.029261-.4514 1.029261-1.0121l.343073-5.4074z" fill="url(#a)"/><rect fill="url(#c)" height="1.061873" ry=".530937" width="15.831653" x="9.519618" y="1042.8041"/><ellipse cx="31.915182" cy="1043.3727" fill="url(#d)" opacity=".452" rx="1.465708" ry="1.465699"/><g fill="#e3e8ea" opacity=".668" transform="matrix(.011712356865 0 0 .011712356865 31.174113214387 1042.553268250494)"><path d="m63 73.215c2.824 0 5.27-1.031 7.332-3.096 2.064-2.063 3.098-4.508 3.098-7.332v-52.144c0-2.825-1.033-5.269-3.098-7.332-2.062-2.065-4.507-3.097-7.332-3.097s-5.269 1.033-7.333 3.097c-2.064 2.063-3.096 4.508-3.096 7.332v52.144c0 2.824 1.032 5.269 3.096 7.332 2.064 2.065 4.509 3.096 7.333 3.096z" fill="#e3e8ea"/><path d="m119.014 45.269c-4.373-8.744-10.523-16.077-18.453-21.997-2.281-1.738-4.861-2.417-7.74-2.037s-5.16 1.738-6.844 4.073c-1.738 2.281-2.403 4.847-1.996 7.699.406 2.853 1.752 5.147 4.033 6.885 5.321 4.019 9.438 8.935 12.342 14.747 2.906 5.811 4.358 12.004 4.358 18.575 0 5.65-1.1 11.04-3.299 16.173-2.2 5.133-5.174 9.573-8.922 13.321-3.748 3.747-8.187 6.721-13.32 8.921s-10.524 3.301-16.173 3.301c-5.648 0-11.039-1.101-16.172-3.301s-9.573-5.174-13.321-8.921c-3.747-3.748-6.721-8.188-8.921-13.321s-3.3-10.523-3.3-16.173c0-6.571 1.453-12.763 4.359-18.575 2.906-5.811 7.02-10.727 12.343-14.747 2.281-1.739 3.625-4.033 4.033-6.885.407-2.851-.258-5.418-1.996-7.699-1.684-2.335-3.951-3.693-6.803-4.073s-5.446.299-7.781 2.037c-7.931 5.92-14.081 13.253-18.454 21.997-4.373 8.745-6.559 18.06-6.559 27.945 0 8.474 1.657 16.566 4.97 24.279 3.314 7.713 7.767 14.366 13.362 19.961 5.594 5.594 12.248 10.049 19.961 13.36 7.713 3.314 15.806 4.972 24.279 4.972s16.566-1.658 24.279-4.972c7.713-3.312 14.367-7.766 19.961-13.36s10.047-12.248 13.361-19.961c3.313-7.713 4.969-15.806 4.969-24.279 0-9.885-2.183-19.2-6.556-27.945z" fill="#e3e8ea"/></g><path d="m1.1435395 1007.756h32.1232975c.570205 0 1.029261.4514 1.029261 1.0121l2.401689 30.5215c0 .5607-.459027 1.0122-1.029232 1.0122h-36.58334228c-.57020452 0-1.02923252-.4515-1.02923252-1.0122l2.05832691-30.5214c0-.5607.45904175-1.0122 1.02923239-1.0122z" fill="url(#b)"/><path d="m17.403013 1016.4728c-2.398047 0-4.52537 1.1364-5.899728 2.8922l.94184.5999c1.175412-1.4436 2.970952-2.3633 4.972368-2.3633 3.53883 0 6.411574 2.8797 6.411574 6.4286 0 3.5464-2.872744 6.426-6.411574 6.426-1.994488 0-3.783734-.9148-4.960407-2.3508l-.94184.6c1.379391 1.7508 3.499798 2.8796 5.899728 2.8796 4.153921 0 7.522768-3.384 7.522768-7.5548 0-4.1685-3.371366-7.5524-7.522768-7.5524m-7.5989491 3.1428v8.8141l7.6436491-4.4511m-.05666-4.5593c-1.352324 0-2.567399.5879-3.411027 1.5196l.976469.6102c.627054-.6221 1.48768-1.0036 2.437078-1.0036 1.920827 0 3.47965 1.5739 3.47965 3.5117 0 1.9404-1.556938 3.5144-3.47965 3.5144-.966397 0-1.839615-.396-2.469187-1.0376l-.941841.6c.843627.9319 2.056184 1.5198 3.411028 1.5198 2.543472 0 4.605953-2.0707 4.605953-4.6185 0-2.5504-2.063105-4.6186-4.605953-4.6186m-.0027 0" fill="#a1a7ae" fill-rule="evenodd"/></g></svg>