<svg viewBox="0 0 48 48" xmlns="http://www.w3.org/2000/svg" xmlns:xlink="http://www.w3.org/1999/xlink"><linearGradient id="a"><stop offset="0" stop-color="#e3e3e3"/><stop offset="1" stop-color="#fcf9f9"/></linearGradient><linearGradient id="b" gradientTransform="matrix(.20610064 .02895103 -.02895103 .20610064 20.631557 -1.67042)" gradientUnits="userSpaceOnUse" x1="29.444031" x2="29.444031" xlink:href="#a" y1="201.7325" y2="18.617405"/><linearGradient id="c" gradientUnits="userSpaceOnUse" x1="23.836148669704" x2="23.722381468468" xlink:href="#a" y1="45.77913315656" y2="1.979561080478"/><linearGradient id="d" gradientUnits="userSpaceOnUse" x1="23.72285432815" x2="23.609284645321" y1="45.854876596241" y2="1.904208352034"><stop offset="0" stop-color="#ff9300"/><stop offset="1" stop-color="#ffd702"/></linearGradient><circle cx="24" cy="24" fill="url(#d)" r="22.041666"/><path d="m28.091797 8.6054688c-1.136182.1433063-3.789274.4608779-3.314453 1.9726562l-.208985-.208984-2.964843 21.101562c-.975634-.887511-3.750137-1.614395-4.185547-.927734l-.207031-.207031c-2.608164.254448-5.32617 2.463867-5.015626 5.283203.122934.975839.618755 1.741699 1.238282 2.43164l.017578.019531c.253789.281036.532039.545654.810547.810547l1.08789 1.087891c.083337.087362.17882.170326.257813.259766l5.615234 5.615234a22.041666 22.041666 0 0 0 2.777344.197266 22.041666 22.041666 0 0 0 22.041016-22.041016 22.041666 22.041666 0 0 0 -.236328-3.060547l-8.681641-8.681641c-.173752-.163704-.476053-.471393-.734375-.732421l-.519531-.521485c-1.065519-.751862-.433582-.127924.080078.375l-.789063-.785156z" fill-opacity=".078431"/><path d="m35.899608 11.967688s.216392-.720896.0644-1.029259c-.142657-.289311-.803016-.540088-.803016-.540088l-7.069462-1.9888003-.000009-.0000096h-.00001c-1.266294.17319-3.336428.4340196-3.523351 1.7646559l-2.964144 21.101589c-1.139103-.856271-2.686495-1.35494-4.394255-1.13506-3.081693.397028-5.310613 2.765846-5.015859 5.285132.294841 2.518701 3.027327 4.286644 6.108972 3.889903 2.458585-.31693 4.348466-1.924486 4.880849-3.82513l2.869816-19.931301 8.000128-1.094598" fill="url(#b)"/><circle cx="24" cy="24" fill="none" r="22.08" stroke="url(#c)" stroke-width="1.84"/></svg>