<svg height="48" viewBox="0 0 48 48" width="48" xmlns="http://www.w3.org/2000/svg" xmlns:xlink="http://www.w3.org/1999/xlink"><linearGradient id="a"><stop offset="0" stop-color="#b3b3b3"/><stop offset="1" stop-color="#f2f2f2"/></linearGradient><linearGradient id="b" gradientUnits="userSpaceOnUse" x1="23.266073364268" x2="23.200933403699" xlink:href="#a" y1="23.63107375441" y2="4.569390504232"/><linearGradient id="c" gradientUnits="userSpaceOnUse" x1="34.851109925725" x2="34.900907040508" xlink:href="#a" y1="33.550177845581" y2="29.517897981199"/><linearGradient id="d" gradientUnits="userSpaceOnUse" x1="30.334540567444" x2="30.286602339311" xlink:href="#a" y1="39.453079941152" y2="33.954519541269"/><radialGradient id="e" cx="14.831183" cy="33.774925" gradientTransform="matrix(.4858479 .02009349 -.02123822 .51352654 8.54362 14.998835)" gradientUnits="userSpaceOnUse" r="3.489625" xlink:href="#a"/><linearGradient id="f" gradientUnits="userSpaceOnUse" x1="23.998113631988" x2="23.742680470267" y1="45.805596513579" y2="2.179553571989"><stop offset="0" stop-color="#ff8f00"/><stop offset="1" stop-color="#ffc400"/></linearGradient><g transform="translate(0 -.273)"><rect fill-opacity=".54902" height="43.546391" rx="2.216908" width="32.145157" x="7.927421" y="2.99961"/><rect fill="url(#f)" height="43.546391" rx="2.216908" width="32.145157" x="7.927421" y="2"/><rect fill-opacity=".352941" height="20.131544" rx="1.372734" ry="1.499157" width="27.846886" x="10.008784" y="4.012184"/><rect fill="url(#b)" height="18.843714" rx="1.31141" ry="1.403255" width="26.602888" x="10.619379" y="4.678375"/><circle cx="15.018068" cy="32.739216" fill-opacity=".352941" r="4.433815"/><path d="m14.031679 29.475326c-.1559 0-.283057.124412-.283057.280308v1.684604h-1.602161c-.1559 0-.280306.124411-.280306.280311v1.970408c0 .155899.12441.280308.280306.280308h1.602161v1.552695c0 .155899.127154.283057.283057.283057h1.967662c.1559 0 .283057-.127155.283057-.283057v-1.552695h1.632388c.155901 0 .283059-.12441.283059-.280308v-1.970408c0-.155902-.127155-.280311-.283059-.280311h-1.632388v-1.684604c-.000002-.155899-.127154-.280308-.283057-.280308z" fill="url(#e)"/><path d="m36.825404 31.625683a1.9952166 1.9952166 0 0 1 -1.995216 1.995216 1.9952166 1.9952166 0 0 1 -1.995217-1.995216 1.9952166 1.9952166 0 0 1 1.995217-1.995218 1.9952166 1.9952166 0 0 1 1.995216 1.995218z" fill="url(#c)"/><path d="m33.127526 36.703803a2.7711343 2.7711343 0 0 1 -2.771135 2.771133 2.7711343 2.7711343 0 0 1 -2.771133-2.771133 2.7711343 2.7711343 0 0 1 2.771133-2.771135 2.7711343 2.7711343 0 0 1 2.771135 2.771135z" fill="url(#d)"/><path d="m36.838761 23.111795c-.237037.253639-.56489.410102-.92815.410102h-23.980068c-.726522 0-1.31141-.625852-1.31141-1.403255v-16.0372025c0-.3887016.146222-.7395155.383259-.993154z" fill-opacity=".078431"/></g></svg>