<svg enable-background="new 0 0 64 64" height="48" viewBox="0 0 48 48" width="48" xmlns="http://www.w3.org/2000/svg" xmlns:xlink="http://www.w3.org/1999/xlink"><linearGradient id="a" gradientUnits="userSpaceOnUse" x1="23.93279368913" x2="8.791165469146" y1="46.115499735166" y2="7.605687948942"><stop offset="0" stop-color="#333"/><stop offset="1" stop-color="#4d4d4d"/></linearGradient><radialGradient id="b" cx="47.015462" cy="40.966691" gradientTransform="matrix(1 0 0 .98511739 0 .609691)" gradientUnits="userSpaceOnUse" r="15.734341"><stop offset="0" stop-color="#ffce31"/><stop offset="1" stop-color="#ffd42a"/></radialGradient><radialGradient id="c" cx="47.015462" cy="40.966689" gradientTransform="matrix(1 0 0 .98511746 0 .609689)" gradientUnits="userSpaceOnUse" r="15.734342"><stop offset="0" stop-color="#ed4c5c"/><stop offset="1" stop-color="#f55"/></radialGradient><linearGradient id="d" gradientTransform="matrix(.67524112 .66559465 .71395451 -.62950353 -6.987196 14.25434)" gradientUnits="userSpaceOnUse" x1="29.597948" x2="24.622061" y1="26.466421" y2="4.589676"><stop offset="0" stop-color="#241f1c"/><stop offset="1" stop-color="#4d4d4d"/></linearGradient><circle cx="22.862066" cy="26.346434" fill="url(#a)" r="19.653566"/><path d="m10.616652 2.070778c6.7989-1.1200908 19.345297 11.24707 27.654229 23.419338l-1.707622.876654c-7.863768-11.306816-19.74126-22.9362595-25.357579-22.072642-3.0827539.5166781-4.0764688 4.8039772-3.8672199 8.707845l-1.7969514.0088c-.3327666-7.3207414 2.2807554-10.2271177 5.0751433-10.939995z" fill="url(#d)"/><path d="m3.7020137 12.015631 5.3600634-5.2707286 3.3947069 3.3053726c-5.4493973 5.270729 0 0-5.4493973 5.270729z" fill="url(#a)"/><path d="m57.268446 52.747253c-.01366.01142-7.512446-4.751877-7.529183-4.745819-.01674.0061-2.729543 8.465462-2.747343 8.46543s-2.700421-8.469056-2.717136-8.475174c-.01672-.0061-7.532446 4.730404-7.546061 4.718938-.01362-.01147 3.375162-8.22347 3.36629-8.238901-.0089-.01543-8.810832-1.218064-8.813892-1.235599-.0031-.01754 7.871469-4.130031 7.874591-4.147555.0031-.01752-5.966533-6.596584-5.957606-6.611984.0089-.0154 8.684628 1.895896 8.698284 1.884478.01366-.01142-.330427-8.88849-.31369-8.894548.01674-.0061 5.434153 7.034711 5.451953 7.034743.0178.000031 5.46029-7.021373 5.477006-7.015256.01672.0061-.359023 8.881908-.345408 8.893374.01362.01147 8.696077-1.868877 8.704949-1.853446.0089.01543-5.984207 6.57316-5.981147 6.590695.0031.01754 7.862871 4.158088 7.859749 4.175612-.0031.01752-8.809315 1.188758-8.818242 1.204158-.0089.0154 3.350542 8.239436 3.336886 8.250854z" fill="url(#c)" transform="matrix(-.436113459428 -.126965811137 -.128883920584 .442701993212 63.455232796147 13.599277745167)"/><path d="m57.268446 52.747253-7.529183-4.745819-2.747343 8.46543-2.717136-8.475174-7.546061 4.718938 3.36629-8.238901-8.813892-1.235599 7.874591-4.147555-5.957606-6.611984 8.698284 1.884478-.31369-8.894548 5.451953 7.034743 5.477006-7.015256-.345408 8.893374 8.704949-1.853446-5.981147 6.590695 7.859749 4.175612-8.818242 1.204158z" fill="url(#b)" transform="matrix(-.296117874374 -.086208854812 -.08751124751 .300591419112 55.204719752694 17.497606821461)"/></svg>