<svg height="48" width="48" xmlns="http://www.w3.org/2000/svg" xmlns:xlink="http://www.w3.org/1999/xlink"><linearGradient id="a" gradientTransform="matrix(.32587204 0 0 .32156148 357.82558 -24.927786)" gradientUnits="userSpaceOnUse" x1="-988.59155" x2="-1086.1893" y1="116.49829" y2="208.20566"><stop offset="0" stop-color="#00cafe"/><stop offset="1" stop-color="#1460f3"/></linearGradient><linearGradient id="b" gradientTransform="matrix(.32634124 0 0 .32195368 347.66457 -94.038955)" gradientUnits="userSpaceOnUse" x1="-989.66583" x2="-1003.6364" y1="433.28394" y2="317.35452"><stop offset="0" stop-color="#e7f0f4"/><stop offset="1" stop-color="#f4faff"/></linearGradient><g stroke-width=".916663"><text font-size="10.999959" x="-75.255882" y="17.052052"><tspan stroke-width=".916663" x="-75.255882" y="17.052052"/></text><text font-size="10.999959" x="-75.554733" y="17.004047"><tspan stroke-width=".916663" x="-75.554733" y="17.004047"/></text><rect fill="url(#a)" height="36.862923" ry=".89969" transform="matrix(.94911544 -.31492839 .3072073 .95164262 0 0)" width="29.252077" x="-.816986" y="11.262545"/><rect fill="url(#b)" height="39.574127" ry=".965862" transform="matrix(.99210439 -.12541482 .1378126 .99045832 0 0)" width="32.577034" x="6.409686" y="7.795044"/></g><path d="m27.491341 32.984432q-.478597.487805-1.209088.487805-.73049 0-1.234277-.487805-.478598-.487805-.478598-1.170731 0-.682927.478598-1.170733.503787-.487805 1.234277-.487805.730491 0 1.209088.487805.503787.487806.503787 1.170733 0 .682926-.503787 1.170731zm-.02508-5.073171h-2.367795v-1.146341q0-1.097562.478598-1.878049.478597-.804878 1.687685-1.878049.680112-.609756.957195-.902439.302272-.317073.579355-.853658.302272-.560976.302272-1.146342 0-1.121951-.755681-1.804877-.73049-.682927-2.040336-.682927-2.166282 0-2.972341 2.341462l-2.166283-.878048q.528976-1.390244 1.813632-2.487805 1.309846-1.121951 3.324992-1.121951 2.29223 0 3.728022 1.317073 1.435791 1.292683 1.435791 3.317073 0 .878049-.478597 1.780488-.478597.902439-.856436 1.292683-.352651.365854-1.007574.95122-.07545.07306-.125835.121842-1.536549 1.341464-1.536549 2.682928v.975609z" fill-opacity=".666667" stroke-width="2.203251"/></svg>