<svg viewBox="0 0 48 48" xmlns="http://www.w3.org/2000/svg" xmlns:xlink="http://www.w3.org/1999/xlink"><linearGradient id="a" gradientUnits="userSpaceOnUse" x1="399.9939" x2="399.9939" y1="545.13873" y2="518.13873"><stop offset="0" stop-color="#197cf1"/><stop offset="1" stop-color="#20bcfa"/></linearGradient><circle cx="400.57138" cy="531.79791" fill="url(#a)" r="13.999958" transform="matrix(1.6428585 0 0 1.6428585 -634.082098 -849.66877)"/><g fill="#fff" fill-opacity=".754032" transform="matrix(1.1538462 0 0 1.0673077 -3.692309 -.715385253129)"><path d="m24 12.873874c.734 0 1 .266 1 1v9c0 .734-.266 1-1 1h-12c-.73 0-1-.266-1-1v-9c0-.734.27-1 1-1"/><path d="m36 13c .727 0 1 .266 1 1v10c0 .734-.274 1-1 1h-8c-.727 0-1-.266-1-1v-10c0-.734.278-1 1-1"/><path d="m30 26.126126c.734 0 1 .266 1 1v7c0 .734-.266 1-1 1h-16c-.73 0-1-.266-1-1v-7c0-.734.27-1 1-1"/></g></svg>