<svg height="48" width="48" xmlns="http://www.w3.org/2000/svg" xmlns:xlink="http://www.w3.org/1999/xlink"><linearGradient id="a"><stop offset="0" stop-color="#333538"/><stop offset="1" stop-color="#566069"/></linearGradient><linearGradient gradientUnits="userSpaceOnUse" x1="400.95444" x2="400.95444" xlink:href="#a" y1="545.22272" y2="517.22266"/><linearGradient gradientUnits="userSpaceOnUse" x1="2.819" x2="11.758417" xlink:href="#a" y1="1044.2982" y2="1044.2982"/><linearGradient id="b" gradientUnits="userSpaceOnUse" x1="400.39636" x2="400.39636" y1="545.61945" y2="517.61945"><stop offset="0" stop-color="#d3d3d3"/><stop offset="1" stop-color="#fcf9f9"/></linearGradient><linearGradient id="c" gradientUnits="userSpaceOnUse" x1="404.71429" x2="404.71429" y1="546.29791" y2="517.29797"><stop offset="0" stop-color="#00cafe"/><stop offset="1" stop-color="#1460f3"/></linearGradient><linearGradient id="d" gradientUnits="userSpaceOnUse" x1="400.39636" x2="400.39636" y1="545.61945" y2="517.61945"><stop offset="0" stop-color="#e3e3e3"/><stop offset="1" stop-color="#fcf9f9"/></linearGradient><linearGradient id="e" gradientUnits="userSpaceOnUse" x1="401.20834" x2="401.20834" y1="545.81091" y2="518.42188"><stop offset="0" stop-color="#2a2c2f"/><stop offset="1" stop-color="#505558"/></linearGradient><linearGradient id="f" gradientUnits="userSpaceOnUse" x1="16.489002" x2="16.489002" y1="278.21301" y2="242.838"><stop offset="0" stop-color="#139702"/><stop offset="1" stop-color="#80e950"/></linearGradient><g fill="url(#b)" stroke-width="1.3" transform="matrix(1.569970343761 0 0 1.569970343761 -604.88518753582 -810.906955368482)"><circle cx="400.57138" cy="531.79791" fill="url(#e)" r="13.999958" stroke="url(#e)" stroke-width="1.3"/><circle cx="400.57144" cy="531.79797" fill="url(#d)" r="0" stroke="url(#c)" stroke-width="1"/><circle cx="400.57138" cy="531.79791" fill="url(#b)" r="0"/></g><path d="m27.656721 259.32518 3.83228 2.40314s-7.534327 5.6941-17.36402 5.6941c-10.9119962 0-14.63597921-10.71699-14.63597921-10.71699s6.49520601-6.45185 14.02970821-6.45185c8.552034 0 12.708868 6.53856 12.708868 6.53856s-6.343726 7.01494-12.081181 7.01494c-6.4736162 0-8.5086792-6.4952-8.5086792-6.4952s3.334139-3.4642 7.6861572-3.4642c4.45997 0 6.018826 2.94464 6.018826 2.94464l-2.728042 2.27342s-1.537092-3.33431-4.178599-3.33431c-2.208482 0-3.7455742 1.8404-3.7455742 1.8404s1.6455662 4.78452 5.3477852 4.78452c4.784695 0 8.487088-5.62898 8.487088-5.62898s-3.312548-4.87297-9.266603-4.89317c-6.3653162-.0216-10.1542452 5.2179-10.1542452 5.2179s2.771223 8.72545 11.0636502 8.72545c7.578031-.00035 13.48856-6.45237 13.48856-6.45237z" fill="url(#f)" transform="matrix(1.000000005918 0 0 1.000000005918 8.510998620052 -234.838004095036)"/></svg>