<svg height="48" width="48" xmlns="http://www.w3.org/2000/svg" xmlns:xlink="http://www.w3.org/1999/xlink"><linearGradient id="a" gradientTransform="matrix(1.0309825 0 0 1 -.512598 0)" gradientUnits="userSpaceOnUse" x1="17" x2="17" y1="1036.3622" y2="1012.3622"><stop offset="0" stop-color="#f39e18"/><stop offset="1" stop-color="#f0c953"/></linearGradient><linearGradient id="b" gradientTransform="matrix(.71497952 0 0 1 9.943319 0)" gradientUnits="userSpaceOnUse" x1="33.461716" x2="34.116894" y1="1013.622" y2="1037.2084"><stop offset="0" stop-color="#f6fbff"/><stop offset="1" stop-color="#eaeff2"/></linearGradient><linearGradient id="c" gradientUnits="userSpaceOnUse" x1="27.800341" x2="27.800341" y1="1037.3622" y2="1011.3622"><stop offset="0" stop-color="#e59414"/><stop offset="1" stop-color="#feaf32"/></linearGradient><g transform="matrix(1.759272946833 0 0 1.759272946833 -15.451578855944 -1778.7363799654)"><g fill-rule="evenodd"><path d="m33.925877 1036.9362h-8.28437v-24.498h8.28437c.879531-.094.950306.023.950306 1.1721v22.0916c.05524 1.261-.09505 1.2343-.950306 1.2343z" fill="url(#b)"/><path d="m11.563303 1036.9442h11.636697v-24.498h-11.533603c-1.268259-.094-1.782566.023-1.782566 1.1721v22.0916c-.07966 1.261.446208 1.2343 1.679472 1.2343z" fill="url(#a)"/><path d="m31.957586 1038.1035-10.029586-1.1715v-24.4859l9.945906-.9326c1.230149-.094 1.296492.2446 1.296492 1.3937l-.08368 23.3688c.07726 1.261.06707 1.8275-1.129132 1.8275z" fill="url(#c)"/></g><path d="m444.14174 517.173c-2.39346 0-4.32031 1.92685-4.32031 4.32031 0 2.39347 1.92685 4.32032 4.32031 4.32032 2.39347 0 4.32031-1.92685 4.32031-4.32032 0-2.39346-1.92684-4.32031-4.32031-4.32031zm-3.08594 11.10938v8.64062h6.17188v-8.64062z" fill="#eaeff2" transform="matrix(.655176960634 0 0 .655176960634 -273.138021225173 679.500929058886)"/><g fill="#f2eae1" transform="matrix(.458577531334 0 0 .458577531334 -165.631458260211 784.781566665037)"><path d="m420.90915 541.36072-10.56218-7.90193 12.12436-5.19615z" fill="#f2eae1" transform="matrix(.8025948 -.5965246 .5965246 .8025948 -236.82698 353.97292)"/><path d="m411.90915 509.56067h11.80003v11.8h-11.80003z" fill="#f2eae1"/></g></g></svg>