<svg height="48" width="48" xmlns="http://www.w3.org/2000/svg" xmlns:xlink="http://www.w3.org/1999/xlink"><linearGradient id="a"><stop offset="0" stop-color="#2e3436"/><stop offset="1" stop-color="#555753"/></linearGradient><linearGradient id="b" gradientUnits="userSpaceOnUse" x1="70.025551" x2="66.525925" y1="569.23743" y2="491.06152"><stop offset="0" stop-color="#197cf1"/><stop offset="1" stop-color="#20bcfa"/></linearGradient><linearGradient id="c" gradientTransform="matrix(1.0020883 0 0 .99999615 -.150321 .001833)" gradientUnits="userSpaceOnUse" x1="72.850105" x2="72.285057" xlink:href="#a" y1="491.14539" y2="462.67584"/><linearGradient id="d" gradientUnits="userSpaceOnUse" x1="44.159489" x2="44.261814" xlink:href="#a" y1="490.59207" y2="461.92871"/><linearGradient id="e" gradientUnits="userSpaceOnUse" x1="96.67778" x2="96.332504" xlink:href="#a" y1="490.35736" y2="462.83051"/><g transform="matrix(.398683803606 0 0 .398683803606 -4.743695563657 -182.141698673443)"><rect fill="url(#b)" height="106.81747" ry="5.026705" width="120.39567" x="11.898889" y="465.16788"/><g fill-rule="evenodd"><path d="m18.537737 462.20454h107.117473c3.85647 0 6.71098 3.09818 6.71098 6.9466l.00048 14.95331v6.94661h-120.540399v-6.94661l.000081-14.95331c.00002-3.84842 2.854909-6.9466 6.711385-6.9466z" fill="url(#c)" stroke="url(#c)" stroke-linecap="round" stroke-linejoin="round" stroke-width=".106589"/><path d="m79.770627 490.49943h19.098944l14.926159-13.20538-14.926159-14.60565h-19.098944l13.531217 14.60565z" fill="#fff" fill-opacity=".947581" stroke="url(#e)" stroke-width="1.124592"/><path d="m31.675661 490.49922h19.09894l14.926158-13.20538-14.926158-14.60565h-19.09894l13.53121 14.60565z" fill="#fff" fill-opacity=".947581" stroke="url(#d)" stroke-width="1.124592"/></g><path d="m7.4053844 4.9143477c-.5203622.914485-.7914547.914485-.2710924 1.8289699l3.191497 5.6155084-1.8553987 3.225703c-.4013074-.376267-.9341896-.610848-1.5262151-.610848-1.2482924 0-2.2532355 1.019651-2.2532355 2.286213 0 1.266561 1.0049431 2.286213 2.2532355 2.286213 1.2482926 0 2.2532355-1.019652 2.2532355-2.286213 0-.152814-.016087-.302259-.044007-.446526l1.0474023-1.841472c.703387-.0091.792056-.708364 1.202314-.718014l1.445238 2.543412c-.02991.149095-.04577.304279-.04577.4626 0 1.266561 1.004943 2.286213 2.253237 2.286213 1.248292 0 2.253235-1.019652 2.253235-2.286213 0-1.266562-1.004943-2.286213-2.253235-2.286213-.588846 0-1.118571.232816-1.519174.605489l-1.85188-3.220344 3.191497-5.6155084c.520362-.9144849.24927-.9144849-.271092-1.8289699l-3.599895 6.2620783zm3.5946146 7.3158793c.249659 0 .450648.203931.450648.457243s-.200989.457241-.450648.457241-.450647-.203929-.450647-.457241.200988-.457243.450647-.457243zm-4.0558238 3.657939c.7489755 0 1.3519416.611791 1.3519416 1.371728s-.6029661 1.371728-1.3519416 1.371728-1.3519412-.611791-1.3519412-1.371728.6029657-1.371728 1.3519412-1.371728zm8.1116478 0c .748975 0 1.351941.611791 1.351941 1.371728s-.602966 1.371728-1.351941 1.371728c-.748976 0-1.351941-.611791-1.351941-1.371728s.602965-1.371728 1.351941-1.371728z" fill="#fff" stroke="#fff" stroke-width=".907866" transform="matrix(3.135316725 0 0 3.135316725 37.607989425 495.160939460112)"/></g></svg>