<svg height="48" width="48" xmlns="http://www.w3.org/2000/svg" xmlns:xlink="http://www.w3.org/1999/xlink"><linearGradient id="a" gradientTransform="matrix(.99999996 0 0 .97651008 -.00003 11.327469)" gradientUnits="userSpaceOnUse" x1="409.57144" x2="409.57144" y1="542.79797" y2="507.798"><stop offset="0" stop-color="#566069"/><stop offset="1" stop-color="#6c7884"/></linearGradient><g transform="translate(-384.57143 -500.298166)"><rect fill-opacity=".666667" height="33.201344" ry="1.562416" width="44" x="386.57144" y="508.19766"/><rect fill="url(#a)" height="33.201344" ry="1.562416" width="44" x="386.57144" y="507.19733"/><g fill="#e9ebed" transform="matrix(.163297940573 0 0 .163297940573 398.283821438283 515.299066621122)"><path d="m29.107 92.374c-3.26 0-6.03 1.14-8.311 3.422s-3.422 5.052-3.422 8.312 1.14 6.029 3.422 8.312c2.282 2.281 5.052 3.422 8.311 3.422 3.205 0 5.961-1.141 8.27-3.422 2.308-2.28 3.462-5.052 3.462-8.312s-1.154-6.028-3.462-8.312c-2.309-2.28-5.065-3.422-8.27-3.422z"/><path d="m26.5 67.607c0-3.585-1.276-6.653-3.829-9.208-2.553-2.553-5.622-3.829-9.207-3.829s-6.654 1.276-9.207 3.829-3.829 5.622-3.829 9.208c0 3.584 1.276 6.651 3.829 9.205s5.622 3.83 9.207 3.83 6.654-1.276 9.207-3.83c2.553-2.552 3.829-5.621 3.829-9.205z"/><path d="m102.107 37.626c1.791 0 3.328-.639 4.603-1.915 1.276-1.277 1.915-2.812 1.915-4.604 0-1.793-.639-3.327-1.915-4.603-1.276-1.277-2.812-1.915-4.603-1.915-1.793 0-3.328.639-4.604 1.915s-1.915 2.81-1.915 4.603.639 3.327 1.915 4.604 2.811 1.915 4.604 1.915z"/><path d="m29.108 16.768c-3.966 0-7.347 1.399-10.144 4.196-2.798 2.797-4.196 6.178-4.196 10.143 0 3.966 1.398 7.346 4.196 10.144s6.179 4.196 10.144 4.196 7.346-1.399 10.143-4.196c2.797-2.798 4.196-6.179 4.196-10.144s-1.399-7.346-4.196-10.143-6.178-4.196-10.143-4.196z"/><path d="m123.29 62.066c-1.521-1.521-3.367-2.281-5.54-2.281s-4.02.76-5.54 2.281-2.28 3.368-2.28 5.542c0 2.172.76 4.021 2.28 5.539 1.521 1.521 3.367 2.281 5.54 2.281s4.02-.76 5.54-2.281c1.521-1.52 2.28-3.367 2.28-5.539 0-2.173-.758-4.02-2.28-5.542z"/><path d="m102.107 94.982c-2.5 0-4.646.896-6.438 2.688s-2.688 3.938-2.688 6.438c0 2.498.896 4.645 2.688 6.437 1.793 1.793 3.938 2.688 6.438 2.688 2.498 0 4.644-.896 6.437-2.688 1.792-1.792 2.688-3.938 2.688-6.437 0-2.5-.896-4.645-2.688-6.438-1.793-1.792-3.939-2.688-6.437-2.688z"/><path d="m65.607 109.32c-2.879 0-5.337 1.02-7.375 3.057-2.036 2.037-3.055 4.494-3.055 7.373s1.018 5.336 3.055 7.373c2.038 2.037 4.495 3.057 7.375 3.057 2.879 0 5.336-1.02 7.373-3.057s3.056-4.494 3.056-7.373-1.019-5.336-3.056-7.373-4.494-3.057-7.373-3.057z"/><path d="m65.607-.179c-4.345 0-8.04 1.52-11.082 4.562-3.041 3.042-4.562 6.736-4.562 11.081s1.52 8.038 4.562 11.08c3.042 3.041 6.736 4.562 11.082 4.562 4.347 0 8.039-1.52 11.08-4.562 3.041-3.041 4.562-6.735 4.562-11.08s-1.521-8.038-4.562-11.081c-3.041-3.041-6.733-4.562-11.08-4.562z"/></g><g fill="#fff" fill-opacity=".852041"><circle cx="398.937184096958" cy="510.197597118339" r="1.781425731018"/><circle cx="394.560790725378" cy="510.235384400809" r="1.781425731018"/><circle cx="390.258860528078" cy="510.277571211991" r="1.781425731018"/></g></g></svg>