<svg height="48" viewBox="0 0 48 48.000001" width="48" xmlns="http://www.w3.org/2000/svg" xmlns:xlink="http://www.w3.org/1999/xlink"><linearGradient id="a" gradientUnits="userSpaceOnUse" x1="23.428572" x2="23.607143" y1="1044.143538" y2="1008.607938"><stop offset="0" stop-color="#e6e6e6"/><stop offset="1" stop-color="#f9f9f9"/></linearGradient><linearGradient id="b" gradientUnits="userSpaceOnUse" x1="26.978066" x2="26.710207" y1="1038.680896" y2="1021.091696"><stop offset="0" stop-color="#fdd835"/><stop offset="1" stop-color="#ffee58"/></linearGradient><linearGradient id="c" gradientUnits="userSpaceOnUse" x1="35.355339" x2="34.723995" y1="1047.8165" y2="1024.9618"><stop offset="0" stop-color="#80b3ff"/><stop offset="1" stop-color="#5df"/></linearGradient><g transform="translate(0 -1004.3622)"><rect fill="url(#a)" height="36" rx="2" width="44" x="1.5" y="1008.7507"/><rect fill="none" height="28.425249" rx="1.621384" ry="1.579181" stroke="#c8c8c8" stroke-linecap="round" stroke-opacity=".894118" stroke-width="2.74429" width="35.670441" x="5.469591" y="1012.7907"/><g transform="matrix(1.2329469 0 0 1.2329469 -9.000485 -242.73422)"><path d="m21.274933 1032.1743 14.278615 17.0164.112847-8.0611 8.317425 1.097.09597-.08-14.332739-17.0809-8.472121 7.1091z" fill="url(#c)"/><path d="m34.340674 1035.5926-3.110182-.014-.456656 2.9221-2.686384-1.5674-1.856531 2.3023-1.542771-2.7006-2.758951 1.0656.01423-3.1102-2.922111-.4567 1.567411-2.6864-2.302294-1.8565 2.70061-1.5428-1.06558-2.7589 3.110182.014.456656-2.9221 2.686384 1.5674 1.856531-2.3023 1.542771 2.7006 2.75895-1.0656-.01423 3.1102 2.922111.4567-1.567411 2.6864 2.302295 1.8565-2.70061 1.5428z" fill="url(#b)"/></g></g></svg>