<svg height="48" width="48" xmlns="http://www.w3.org/2000/svg" xmlns:xlink="http://www.w3.org/1999/xlink"><linearGradient gradientUnits="userSpaceOnUse" x1="0" x2="47" y1="23.5" y2="23.5"><stop offset="0" stop-color="#a9a3d4"/><stop offset=".47001833" stop-color="#87baff"/><stop offset="1" stop-color="#89ec85"/></linearGradient><linearGradient id="a" gradientUnits="userSpaceOnUse" x1="17.28800680407" x2="17.28800680407" y1="1039.758992320521" y2="1013.267402736379"><stop offset="0" stop-color="#197cf1"/><stop offset="1" stop-color="#20bcfa"/></linearGradient><g stroke-width="1.317422" transform="matrix(1.199999650171 0 0 1.199999650171 3.176860870631 -1208.208316863007)"><rect fill-opacity=".666667" height="27.667793" ry="1.302014" width="36.666676" x="-.980717" y="1013.4232"/><rect fill="url(#a)" height="27.667793" ry="1.302014" width="36.666676" x="-.980717" y="1012.5901"/><g fill="#fff"><path d="m25.64227 1023.4136c-2.475503.9115-4.361504 1.5605-6.020853 3.6126-1.478281 1.8285-3.612616 2.4623-6.020814 1.2569v6.57h-1.204297v-16.2562c-.00004-.3328.269258-.6021.602049-.6021.332752 0 .602209.2693.602209.6021 1.336961 1.9438 3.660621 2.3743 6.020813 2.4084 3.612456.053 6.020893 2.4083 6.020893 2.4083z" fill-opacity=".846939" stroke-width=".052312"/><circle cx="9.324079" cy="1015.50689" fill-opacity=".852041" r="1.484522"/><circle cx="5.677084" cy="1015.53839" fill-opacity=".852041" r="1.484522"/><circle cx="2.092138" cy="1015.57349" fill-opacity=".852041" r="1.484522"/></g></g></svg>