<svg height="48" width="48" xmlns="http://www.w3.org/2000/svg" xmlns:xlink="http://www.w3.org/1999/xlink"><linearGradient gradientUnits="userSpaceOnUse" x1="0" x2="47" y1="23.5" y2="23.5"><stop offset="0" stop-color="#a9a3d4"/><stop offset=".47001833" stop-color="#87baff"/><stop offset="1" stop-color="#89ec85"/></linearGradient><linearGradient id="a"><stop offset="0" stop-color="#ff9300"/><stop offset="1" stop-color="#ffd702"/></linearGradient><linearGradient gradientUnits="userSpaceOnUse" x1="400.6925" x2="400.63742" xlink:href="#a" y1="558.78491" y2="504.72989"/><linearGradient id="b" gradientUnits="userSpaceOnUse" x1="400.80499" x2="400.74991" xlink:href="#a" y1="545.51056" y2="517.66675"/><linearGradient gradientUnits="userSpaceOnUse" x1="400.6925" x2="400.63742" y1="558.78491" y2="504.72989"><stop offset="0" stop-color="#4085b0"/><stop offset="1" stop-color="#5f8dd3"/></linearGradient><linearGradient id="c" gradientTransform="matrix(0 -1 1 0 409.570755 550.907445)" gradientUnits="userSpaceOnUse" x1="24.000004" x2="23.999998" y1="45.750008" y2="1.750002"><stop offset="0" stop-color="#ccc"/><stop offset="1" stop-color="#e6e6e6"/></linearGradient><g stroke-width="1.317422" transform="matrix(1.000000004476 0 0 1.000000004476 -486.760340300875 -502.725834528142)"><rect fill="url(#b)" height="28.000027" ry="14.000006" transform="matrix(1.571427925834 0 0 1.571427925834 -118.70881884731 -308.956387428068)" width="28.000011" x="386.57144" y="517.79797"/><path d="m24 10c-4.52993 0-6.794922 1.167324-6.794922 3.208984v2.625h6.794922v1.166016h-9.34375c-2.19589 0-4.246094 2.33334-4.246094 7 0 4.66667 2.050204 7 4.246094 7h1.416016v-4.083984c0-1.939 1.516247-3.5 3.398437-3.5h7.925781c1.88218 0 3.398438-1.561 3.398438-3.5v-6.707032c0-2.04166-2.264992-3.208984-6.794922-3.208984zm-3.396484 2.333984a1.1324824 1.1666668 0 0 1 1.130859 1.166016 1.1324824 1.1666668 0 0 1 -1.130859 1.166016 1.1324824 1.1666668 0 0 1 -1.132813-1.166016 1.1324824 1.1666668 0 0 1 1.132813-1.166016zm11.320312 4.666016v4.083984c0 1.939-1.514294 3.5-3.396484 3.5h-7.927735c-1.88218 0-3.398437 1.561-3.398437 3.5v6.707032c0 2.04167 2.264992 3.208984 6.794922 3.208984s6.794922-1.167314 6.794922-3.208984v-2.625h-6.794922v-1.166016h9.34375c2.19588 0 4.25-2.33333 4.25-7 0-4.66666-2.05412-7-4.25-7zm-4.527344 16.333984a1.1324824 1.1666668 0 0 1 1.132813 1.166016 1.1324824 1.1666668 0 0 1 -1.132813 1.166016 1.1324824 1.1666668 0 0 1 -1.130859-1.166016 1.1324824 1.1666668 0 0 1 1.130859-1.166016z" fill="url(#c)" transform="translate(486.76034 502.72583)"/><text stroke-width="1" x="480.76035" y="566.72583"><tspan x="480.76035" y="602.75598"/></text></g></svg>