<svg height="48" width="48" xmlns="http://www.w3.org/2000/svg" xmlns:xlink="http://www.w3.org/1999/xlink"><linearGradient id="a" gradientTransform="matrix(.93793686 0 0 .87065184 19.936597 61.677518)" gradientUnits="userSpaceOnUse" x1="409.57144" x2="409.57144" y1="542.79797" y2="507.798"><stop offset="0" stop-color="#0a80fd"/><stop offset="1" stop-color="#56c5fa"/></linearGradient><linearGradient id="b" gradientTransform="matrix(.56675678 0 0 .56776791 240.26789 197.07655)" gradientUnits="userSpaceOnUse" x1="400.5119" x2="393.19086" y1="546.07446" y2="468.33124"><stop offset="0" stop-color="#1365f4"/><stop offset="1" stop-color="#05b2fc"/></linearGradient><linearGradient id="c" gradientUnits="userSpaceOnUse" x1="390.997076966011" x2="455.371856746932" y1="541.565593035549" y2="489.92736441466"><stop offset="0" stop-color="#2980b9"/><stop offset="1" stop-color="#ba174e" stop-opacity=".996078"/></linearGradient><g transform="translate(-384.57143 -499.798)"><g fill-opacity=".666667" transform="translate(0 .500007)"><rect fill-opacity=".666667" height="29.602163" ry="1.393043" transform="matrix(.9999984 .00178706 .00604892 .99998171 0 0)" width="41.269222" x="382.51624" y="503.79276"/><g fill-opacity=".666667"><g fill-opacity=".666667"><rect height="32.014854" rx="1.791274" width="41.431" x="389.9404" y="509.66397"/><circle cx="427.7334" cy="513.58508" r="1.943373"/><circle cx="422.95914" cy="513.62628" r="1.943373"/><circle cx="418.26614" cy="513.6723" r="1.943373"/></g><g fill-opacity=".666667"><ellipse cx="467.29446" cy="499.01431" fill-opacity=".666667" rx="7.934571" ry="7.948727" transform="matrix(.9963968 .08481397 -.08481394 .99639681 0 0)"/><path d="m425.23281 540.42642c-.18859 0-.37671-.0811-.51352-.24015-.35082-.40905-.85048-.64286-1.3714-.64286-.52969 0-1.01641.22698-1.37047.63944-.25699.30019-.69518.32313-.97943.0508-.28381-.27189-.30553-.73463-.0481-1.03384.61105-.71217 1.4851-1.12073 2.39797-1.12073.91149 0 1.78554.40954 2.39844 1.12316.25746.29971.23572.76245-.0481 1.03433-.13219.12739-.29905.18988-.46545.18988zm1.53824-1.83191c-.17702 0-.35405-.0713-.48902-.2133-.78484-.82444-1.82667-1.27839-2.93414-1.27839-1.10978 0-2.15207.45298-2.93553 1.27545-.27132.28506-.71042.2836-.98035-.003-.26994-.28653-.26901-.75024.003-1.0353 1.04461-1.09729 2.43449-1.70158 3.91312-1.70158 1.47631 0 2.86573.60526 3.91218 1.70451.27178.28506.27271.74877.003 1.03578-.13543.14302-.31385.21575-.4918.21575zm1.53503-1.82898c-.17242 0-.34528-.0678-.47979-.20355-1.21054-1.22517-2.80056-1.89975-4.4784-1.89975-1.68108 0-3.27203.67359-4.47933 1.8978-.27594.27969-.71505.27042-.98035-.0214-.26531-.2919-.25607-.75561.0198-1.03531 1.46708-1.4868 3.39867-2.30538 5.43982-2.30538 2.03698 0 3.96811.81956 5.43796 2.30684.2764.2797.28564.74341.0208 1.0353-.13635.14986-.31847.22552-.50057.22552zm-5.04509 5.43235c.46256 0 .83754-.37569.83754-.83912s-.37498-.83911-.83754-.83911c-.46255 0-.83753.37568-.83753.83911s.37498.83912.83753.83912z" fill-opacity=".666667"/></g></g></g><rect fill="url(#a)" height="29.602163" ry="1.393043" transform="matrix(.9999984 .00178706 .00604892 .99998171 0 0)" width="41.269222" x="382.51624" y="503.79276"/><rect fill="url(#c)" height="32.014854" rx="1.791274" width="41.431" x="389.9404" y="509.66397"/><g fill="#fff"><circle cx="403.48206" cy="513.58508" r="1.943373"/><circle cx="398.7078" cy="513.62628" r="1.943373"/><circle cx="394.0148" cy="513.6723" r="1.943373"/></g><ellipse cx="467.29446" cy="499.01431" fill="url(#b)" rx="7.934571" ry="7.948727" transform="matrix(.9963968 .08481397 -.08481397 .9963968 0 0)"/><path d="m425.23281 540.42642c-.18859 0-.37671-.0811-.51352-.24015-.35082-.40905-.85048-.64286-1.3714-.64286-.52969 0-1.01641.22698-1.37047.63944-.25699.30019-.69518.32313-.97943.0508-.28381-.27189-.30553-.73463-.0481-1.03384.61105-.71217 1.4851-1.12073 2.39797-1.12073.91149 0 1.78554.40954 2.39844 1.12316.25746.29971.23572.76245-.0481 1.03433-.13219.12739-.29905.18988-.46545.18988zm1.53824-1.83191c-.17702 0-.35405-.0713-.48902-.2133-.78484-.82444-1.82667-1.27839-2.93414-1.27839-1.10978 0-2.15207.45298-2.93553 1.27545-.27132.28506-.71042.2836-.98035-.003-.26994-.28653-.26901-.75024.003-1.0353 1.04461-1.09729 2.43449-1.70158 3.91312-1.70158 1.47631 0 2.86573.60526 3.91218 1.70451.27178.28506.27271.74877.003 1.03578-.13543.14302-.31385.21575-.4918.21575zm1.53503-1.82898c-.17242 0-.34528-.0678-.47979-.20355-1.21054-1.22517-2.80056-1.89975-4.4784-1.89975-1.68108 0-3.27203.67359-4.47933 1.8978-.27594.27969-.71505.27042-.98035-.0214-.26531-.2919-.25607-.75561.0198-1.03531 1.46708-1.4868 3.39867-2.30538 5.43982-2.30538 2.03698 0 3.96811.81956 5.43796 2.30684.2764.2797.28564.74341.0208 1.0353-.13635.14986-.31847.22552-.50057.22552zm-5.04509 5.43235c.46256 0 .83754-.37569.83754-.83912s-.37498-.83911-.83754-.83911c-.46255 0-.83753.37568-.83753.83911s.37498.83912.83753.83912z" fill="#fff" fill-opacity=".872449"/></g></svg>