<svg height="48" width="48" xmlns="http://www.w3.org/2000/svg" xmlns:xlink="http://www.w3.org/1999/xlink"><linearGradient id="a" gradientUnits="userSpaceOnUse" x1="-31.595073020304" x2="-31.595073020304" xlink:href="#b" y1="47.412830626498" y2="5.742575426498"/><linearGradient id="b"><stop offset="0" stop-color="#3889e9"/><stop offset="1" stop-color="#5ea5fb"/></linearGradient><linearGradient id="c" gradientUnits="userSpaceOnUse" x1="24.005528151313" x2="24.845286325989" y1="46.202570997575" y2="9.171714703041"><stop offset="0" stop-color="#ff6835"/><stop offset="1" stop-color="#ff956f"/></linearGradient><linearGradient id="d" gradientUnits="userSpaceOnUse" x1="23.943971194735" x2="24.180142151472" y1="14.186271316296" y2="2.371127305555"><stop offset="0" stop-color="#e6e6e6"/><stop offset="1" stop-color="#fff"/></linearGradient><linearGradient id="e" gradientUnits="userSpaceOnUse" x1="-110.836279884314" x2="-110.836279884314" xlink:href="#b" y1="-17.50915166904" y2="-63.422331971649"/><linearGradient id="f" gradientUnits="userSpaceOnUse" x1="-33.092275204942" x2="-33.092275204942" xlink:href="#b" y1="41.363999080133" y2="-2.491625481475"/><circle cx="-30.106958" cy="26.577599" fill="url(#a)" r="0" stroke-width="1.488223"/><path d="m3.9376403 2.8164972h40.1301337v8.7239368h-40.1301337z" fill="#ececec" stroke-width=".956522"/><path d="m3.9376403 2.8164972h40.1301337v8.7239368h-40.1301337z" fill="#ff6835" stroke-width=".956522"/><path d="m7.4086589 5.518921-3.4710128-2.7767005v6.9417515h3.4710128z" fill="#ff8f68" stroke-width=".388063"/><path d="m40.656557 5.5643986 3.412412-2.7329194v6.8322988h-3.412412z" fill="#ff8f68" stroke-width=".381728"/><path d="m7.4213929 5.5066234-3.4842051 2.2418478v2.2530568l2.3913043 1.539402h10.4694289z" fill-opacity=".078431" stroke-width=".956522"/><path d="m45.812574 43.17978c0 1.557227-1.172062 2.82022-2.617182 2.82022h-38.3853498c-1.4451194 0-2.6171817-1.262993-2.6171817-2.82022v-34.3126433h43.6197135z" fill="url(#c)" stroke-width=".956522"/><path d="m40.659114 5.5525186v3.3157884h5.151834z" fill="#ff7d50" stroke-width=".344424"/><g stroke-width=".956522"><path d="m2.1874255 8.8757617 5.2343635-3.3689067v3.3689067z" fill="#ff7d50"/><circle cx="33.251011" cy="14.018857" opacity=".3" r="1.999484"/><circle cx="14.463857" cy="14.25849" opacity=".3" r="1.999484"/></g><path d="m14.237795 12.886193c-.04912-5.3000089 4.207746-9.6369486 9.508156-9.6860832 5.300409-.049115 9.636951 4.2077465 9.686083 9.5081642" style="clip-rule:evenodd;fill:none;stroke-width:2.399383;stroke-linecap:round;stroke-miterlimit:10;stroke:url(#d)"/><circle cx="-31.526094" cy="19.436098" fill="url(#f)" r="0" stroke-width=".956522"/><circle cx="-109.19662" cy="-40.465832" fill="url(#e)" r="0" stroke-width=".956522"/><path d="m29.821515 19.77909c-.0823-.006-.1634-.004-.2433.000787-.532731.0376-1.02607.33276-1.31338.83028-.458021.7952-.18384 1.80562.613 2.265319.7952.458 1.8073.191781 2.26531-.60593.45964-.792709.1964-1.82188-.5988-2.280669-.22411-.1289-.47598-.19478-.72281-.210231zm-4.3641 1.76219c-1.14955 0-2.22467.27154-3.18889.749971l1.15512 2.08577c.62213-.290501 1.30394-.461801 2.03384-.461801 2.54076.000006 4.63778 1.94421 4.85657 4.43025l2.358621-.02947c-.117581-1.832089-.91916-3.480131-2.14957-4.6901-.633561.23766-1.35311.20123-1.984201-.16535-.63106-.36494-1.0303-.97491-1.139749-1.64524-.615601-.16902-1.273041-.274-1.941671-.274zm-4.00386 1.21886c-1.456501.97238-2.52915 2.46469-2.97985 4.20699.52743.42862.84449 1.0695.84449 1.8035-.000001.72904-.31624 1.393741-.84449 1.82478.4507 1.74145 1.52335 3.22753 2.979849 4.19991l1.2185-2.04937c-1.24994-.87846-2.063339-2.33122-2.063339-3.9755.000002-1.64597.8134-3.09698 2.06334-3.97551zm-4.46683 4.3511c-.920132.000004-1.659404.73926-1.6594 1.659391-.000011.91686.739269 1.659399 1.6594 1.659399.92091.000001 1.66767-.74254 1.66767-1.6594-.000004-.92013-.746759-1.659389-1.66767-1.65939zm13.32727 2.09998c-.218809 2.48198-2.31581 4.43025-4.85658 4.43025-.730721-.000001-1.4117-.16403-2.03383-.45471l-1.15512 2.07041c.96422.48008 2.039401.74289 3.18889.74289.6687.000001 1.326079-.0893 1.941669-.259839.109411-.669471.507841-1.277511 1.139781-1.644091.63276-.36489 1.35068-.40031 1.98418-.15944 1.230401-1.21161 2.03189-2.85637 2.14957-4.6901zm-.72875 5.245161c-.24077.0205-.48381.1006-.707449.230319-.796771.45643-1.071001 1.46466-.613001 2.25823.45968.79768 1.48348 1.06508 2.279471.607081.79617-.458872 1.058429-1.471271.598809-2.266471-.28729-.4975-.787639-.79163-1.32046-.829119-.08-.007-.15721-.007-.23739.000005z" fill="#f9f9f9"/></svg>