<svg height="48" width="48" xmlns="http://www.w3.org/2000/svg" xmlns:xlink="http://www.w3.org/1999/xlink"><linearGradient id="a" gradientUnits="userSpaceOnUse" spreadMethod="pad" x1="25.729973283315" x2="26.297236588179" y1="44.436245517709" y2="2.948373827819"><stop offset="0" stop-color="#ff3a44"/><stop offset="1" stop-color="#c31162"/></linearGradient><linearGradient id="b" gradientUnits="userSpaceOnUse" x1="-31.595073020304" x2="-31.595073020304" xlink:href="#c" y1="47.412830626498" y2="5.742575426498"/><linearGradient id="c"><stop offset="0" stop-color="#3889e9"/><stop offset="1" stop-color="#5ea5fb"/></linearGradient><linearGradient id="d" gradientUnits="userSpaceOnUse" x1="24.851007282516" x2="24.168933629722" y1="47.04803960704" y2="7.311710353524"><stop offset="0" stop-color="#ec396c"/><stop offset="1" stop-color="#ff709a"/></linearGradient><linearGradient id="e" gradientUnits="userSpaceOnUse" x1="23.943971194735" x2="24.180142151472" y1="14.186271316296" y2="2.371127305555"><stop offset="0" stop-color="#e6e6e6"/><stop offset="1" stop-color="#fff"/></linearGradient><linearGradient id="f" gradientUnits="userSpaceOnUse" x1="-38.143517296491" x2="-38.143517296491" xlink:href="#c" y1="73.380619196196" y2="27.467436980544"/><circle cx="-30.106958" cy="26.577599" fill="url(#b)" r="0" stroke-width="1.488223"/><path d="m3.9376403 2.8164972h40.1301337v8.7239368h-40.1301337z" fill="#ececec" stroke-width=".956522"/><path d="m3.9376403 2.8164972h40.1301337v8.7239368h-40.1301337z" fill="url(#a)" stroke-width=".956522"/><path d="m7.4086589 5.518921-3.4710128-2.7767005v6.9417515h3.4710128z" fill="#fc6793" stroke-width=".388063"/><path d="m40.656557 5.5643986 3.412412-2.7329194v6.8322988h-3.412412z" fill="#fc6793" stroke-width=".381728"/><path d="m7.4213929 5.5066234-3.4842051 2.2418478v2.2530568l2.3913043 1.539402h10.4694289z" fill-opacity=".078431" stroke-width=".956522"/><path d="m45.812574 43.17978c0 1.557227-1.172062 2.82022-2.617182 2.82022h-38.3853498c-1.4451194 0-2.6171817-1.262993-2.6171817-2.82022v-34.3126433h43.6197135z" fill="url(#d)" stroke-width=".956522"/><path d="m40.659114 5.5525186v3.3157884h5.151834z" fill="#ec3a6d" stroke-width=".344424"/><g stroke-width=".956522"><path d="m2.1874255 8.8757617 5.2343635-3.3689067v3.3689067z" fill="#ec3a6d"/><circle cx="33.251011" cy="14.018857" opacity=".3" r="1.999484"/><circle cx="14.463857" cy="14.25849" opacity=".3" r="1.999484"/></g><path d="m14.237795 12.886193c-.04912-5.3000089 4.207746-9.6369486 9.508156-9.6860832 5.300409-.049115 9.636951 4.2077465 9.686083 9.5081642" style="clip-rule:evenodd;fill:none;stroke-width:2.399383;stroke-linecap:round;stroke-miterlimit:10;stroke:url(#e)"/><circle cx="-36.503857" cy="50.423935" fill="url(#f)" r="0" stroke-width=".956522"/><path d="m25.695291 37.201125c-2.628412-.945597-4.189617-2.106147-5.901355-4.696104-.420046-.713553-1.192431-2.305982-1.163179-4.384521-.06836-2.072293.978793-4.460115 2.933093-5.734387 1.887249-1.344936 4.322729-1.364986 5.771527-.833847 1.494484.554802 2.10056 1.479036 2.117652 1.434994-.04568.01151.800651.723412 1.177969 2.273113.420376 1.489554-.0066 3.958559-2.061118 4.969562-.944941.506488-2.172211.598188-3.134571.235988-.962359-.388165-1.660793-1.240418-1.893495-2.130797-.507145-1.965804.984381-3.05536 1.642387-3.16711 2.677056-.89268 4.032839 3.296607.901883 3.652891 1.427106.476578 2.898255-.987996 2.618552-2.479851-.05653-1.492183-1.862928-2.973192-3.855354-2.366129-.520292.143631-1.308125.508788-1.924719 1.330146-.63237.816428-.919304 2.095959-.590628 3.339664.320457 1.250607 1.294978 2.44764 2.652404 2.985681 1.371232.50583 2.897925.361213 4.158721-.294821 2.691517-1.331461 3.230215-4.575809 2.695461-6.360842-.471976-1.918474-1.514204-2.797021-1.460301-2.810497-.01939.05225-.769099-1.087585-2.621838-1.779444-1.811655-.660637-4.636286-.613965-6.897896.971891-2.314528 1.484294-3.568421 4.400953-3.477379 6.751635-.03122 2.387164.858499 4.214267 1.343952 5.026421 1.956928 2.984367 4.199147 3.917145 6.968232 4.066364" fill="#fff" fill-opacity=".85" stroke-width=".956522"/></svg>