<svg viewBox="0 0 48 48" xmlns="http://www.w3.org/2000/svg" xmlns:xlink="http://www.w3.org/1999/xlink"><linearGradient id="a" gradientTransform="matrix(.69204 0 0 .67579 117.82 177.15)" gradientUnits="userSpaceOnUse" x2="0" y1="542.8" y2="507.8"><stop offset="0" stop-color="#42a603"/><stop offset="1" stop-color="#78da06"/></linearGradient><rect fill="url(#a)" height="22.976999" rx="1.081" stroke-width=".658" transform="matrix(1.57636 0 0 1.57636 -607.45042 -814.30588)" width="30.450001" x="385.35001" y="520.31"/><path d="m82.63-12.53c-.579-.564-1.278-.846-2.097-.846h-2.595l-.591-1.535c-.147-.369-.415-.687-.805-.954s-.79-.401-1.199-.401h-5.932c-.409 0-.809.134-1.199.401s-.658.585-.805.954l-.591 1.535h-2.595c-.819 0-1.518.282-2.097.846s-.869 1.245-.869 2.043v10.114c0 .798.29 1.479.869 2.043s1.278.847 2.097.847h16.311c.819 0 1.517-.282 2.097-.847.579-.564.869-1.245.869-2.043v-10.114c0-.798-.29-1.479-.869-2.043m-6.586 10.673c-1.016.99-2.238 1.484-3.667 1.484s-2.651-.495-3.667-1.484-1.523-2.18-1.523-3.572.508-2.583 1.523-3.572c1.016-.99 2.238-1.484 3.667-1.484s2.651.495 3.667 1.484 1.523 2.18 1.523 3.572-.508 2.583-1.523 3.572m-3.667-6.823c-.919 0-1.705.318-2.358.954s-.979 1.401-.979 2.297.326 1.661.979 2.297 1.438.954 2.358.954c.919 0 1.705-.318 2.358-.954s.979-1.402.979-2.297c0-.896-.326-1.661-.979-2.297s-1.439-.954-2.358-.954" fill="#fff" fill-opacity=".931452" opacity=".795" transform="matrix(.99999 0 0 .99999 -48.375776 30.874431)"/></svg>