<svg height="48" width="48" xmlns="http://www.w3.org/2000/svg" xmlns:xlink="http://www.w3.org/1999/xlink"><linearGradient id="a" gradientUnits="userSpaceOnUse" x1="23.18117812176" x2="23.61347904912" y1="47.339174924118" y2=".174587609805"><stop offset="0" stop-color="#23cf5f"/><stop offset="1" stop-color="#60ff98"/></linearGradient><linearGradient id="b" gradientUnits="userSpaceOnUse" x1="23.181175008145" x2="23.613478162735" y1="47.339173030972" y2=".174587943889"><stop offset="0" stop-color="#2e3436"/><stop offset="1" stop-color="#555753"/></linearGradient><linearGradient id="c" gradientUnits="userSpaceOnUse" x1="399.57144" x2="399.57144" y1="545.79797" y2="517.79797"><stop offset="0" stop-color="#3889e9"/><stop offset="1" stop-color="#5ea5fb"/></linearGradient><g transform="matrix(.91666663 0 0 .91666663 1.998169 1.853337)"><circle cx="400.57138" cy="531.79791" fill="url(#c)" r="0" transform="matrix(1.6374665 0 0 1.6374665 -644.58019 -848.71933)"/><g stroke-width=".111362"><path d="m24.001988.15999068c-13.254695 0-23.99999 10.74450032-23.99999 23.99951232 0 13.25497 10.745295 24.0005 23.99999 24.0005 13.254696 0 24.000012-10.74553 24.000012-24.0005 0-13.255012-10.745316-23.99951232-24.000012-23.99951232z" fill="url(#a)"/><path d="m20.480391 12.68593c7.047185 0 14.461837 1.44966 19.877781 4.63074.730018.413472 1.236675 1.036883 1.236675 2.179658 0 1.308308-1.051566 2.248518-2.263684 2.248518-.488633 0-.778565-.118876-1.236654-.369674-4.344128-2.604871-11.085396-4.03926-17.605001-4.03926-3.254415 0-6.559771.330979-9.587434 1.152628-.348717.08777-.789408.262329-1.2305892.262329-1.280301 0-2.2626765-1.012893-2.2626765-2.293092 0-1.304274.8083286-2.036457 1.6802892-2.294102 3.4211705-1.007914 7.2399845-1.477745 11.3912935-1.477745z" fill="url(#b)"/><path d="m19.991191 20.932544c6.282002 0 12.359189 1.564629 17.13706 4.424142.800999.459308 1.095888 1.042595 1.095888 1.897078 0 1.039214-.827341 1.878824-1.870694 1.878824-.520752 0-.848326-.210423-1.202223-.416287-3.904021-2.31683-9.31486-3.855915-15.240045-3.855915-3.038971 0-5.662033.42555-7.833226 1.003734-.467774.128749-.730019.267392-1.167792.267392-1.0321765 0-1.8747266-.841143-1.8747266-1.88187 0-1.020581.4949574-1.723312 1.4928906-2.004442 2.697888-.740963 5.452912-1.312656 9.462868-1.312656z" fill="url(#b)"/><path d="m20.320364 28.769973c5.251798 0 9.932367 1.20485 13.959822 3.618921.599421.349968.951048.707625.951048 1.595256 0 .865216-.703612 1.501041-1.492911 1.501041-.388138 0-.652925-.134651-1.015876-.355514-3.478303-2.104455-7.815267-3.210721-12.418301-3.210721-2.567984 0-5.152584.32934-7.569863.83253-.393073.08525-.887741.237038-1.182982.237038-.911439 0-1.519261-.72399-1.519261-1.508142 0-1.008523.581864-1.510663 1.305536-1.648928 2.964309-.675549 5.916507-1.061481 8.982788-1.061481z" fill="url(#b)"/></g></g></svg>