<svg height="48" width="48" xmlns="http://www.w3.org/2000/svg" xmlns:xlink="http://www.w3.org/1999/xlink"><linearGradient id="a"><stop offset="0" stop-color="#d8d8d8"/><stop offset="1" stop-color="#fff"/></linearGradient><linearGradient id="b" gradientUnits="userSpaceOnUse" x1="409.5757838354" x2="409.5757838354" y1="543.884979674575" y2="503.711109805"><stop offset="0" stop-color="#2e3e46"/><stop offset="1" stop-color="#47606a"/></linearGradient><linearGradient id="c" gradientUnits="userSpaceOnUse" x1="408.46903765779" x2="408.366680747122" xlink:href="#a" y1="545.604244754228" y2="501.78707727895"/><linearGradient id="d" gradientUnits="userSpaceOnUse" x1="404.231238429901" x2="404.231238429901" xlink:href="#a" y1="537.381588518265" y2="507.839292081699"/><g transform="translate(-384.57143 -499.798)"><rect fill="url(#b)" height="40.173874" ry="20.086937" width="40.173912" x="388.48447" y="503.71112"/><rect fill="url(#b)" height="40.173874" ry="20.086937" width="40.173912" x="388.48447" y="503.71112"/><path d="m416.76088 510.37222c-4.36777 0-7.91349 3.52416-7.95312 7.88281l-4.95508 7.09961c-.20186-.0202-.40992-.0312-.61719-.0312-1.10742 0-2.14032.3047-3.02929.83594l-11.64258-4.11524c-.0155.18067-.0283.36095-.0391.54297l.45117.45117c.18667.73728.56418 1.40011 1.08593 1.92188l2.35352 2.35351c.12888.18174.26816.35511.42383.51368l-2.49024-2.49024-1.84179-.6582c.093 2.17477.54558 4.24849 1.27148 6.1875l11.72461 11.72461c2.19952.82343 4.57453 1.29492 7.06836 1.29492 11.12816 0 20.08789-8.95973 20.08789-20.08789 0-1.95753-.29112-3.84259-.80859-5.62891l-5.46485-5.46484c-1.44018-1.44018-3.42897-2.33203-5.625-2.33203z" fill-opacity=".127168"/><path d="m387.97637 529.33583 9.49272 3.39293c.58079 2.66943 2.96002 4.67698 5.79935 4.67698 3.07544 0 5.61454-2.35789 5.90847-5.35824l7.61588-5.57222c4.39149 0 7.95656-3.55311 7.95656-7.94341 0-4.39276-3.56469-7.95656-7.95656-7.95656-4.36777 0-7.91252 3.52368-7.95215 7.88232l-4.95646 7.10066c-.20186-.0202-.40848-.0309-.61574-.0309-1.10742 0-2.14172.30287-3.0307.83412l-12.54322-4.43321m29.09827-8.73284c2.94242 0 5.33637 2.39391 5.33637 5.33637-.00001 2.94257-2.39395 5.32333-5.33637 5.32333-2.94243 0-5.33206-2.38076-5.33206-5.32333 0-2.94246 2.38963-5.33637 5.33206-5.33637zm.022 1.04801c-2.35152 0-4.25776 1.91055-4.25776 4.26217 0 2.35153 1.90624 4.26208 4.25776 4.26208 2.35161 0 4.26212-1.91055 4.26212-4.26208 0-2.35162-1.91051-4.26217-4.26212-4.26217zm-13.54622 12.85625c2.42065 0 4.36693 1.94629 4.36693 4.36701-.00002 2.42059-1.94628 4.3669-4.36693 4.3669-1.68377 0-3.13546-.9397-3.86474-2.32757.71811.28979 1.43567.57717 2.15291.86896 1.77981.71522 3.80871-.14562 4.52414-1.9258.7154-1.77977-.15442-3.80025-1.93456-4.51537l-1.82103-.7293c.30305-.0655.61971-.10496.94325-.10496z" fill="url(#d)"/><rect fill="none" height="42.10392" ry="21.05196" stroke="url(#c)" stroke-width="1.89604" width="42.103958" x="387.51947" y="502.74606"/></g></svg>