<svg height="48" width="48" xmlns="http://www.w3.org/2000/svg" xmlns:xlink="http://www.w3.org/1999/xlink"><linearGradient id="a" gradientUnits="userSpaceOnUse" x1="409.521420095714" x2="409.521420095714" y1="542.79796893798" y2="504.79799703798"><stop offset="0" stop-color="#2e3e46"/><stop offset="1" stop-color="#47606a"/></linearGradient><linearGradient id="b" gradientUnits="userSpaceOnUse" x1="410.32143" x2="410.32143" y1="543.048" y2="503.047948"><stop offset="0" stop-color="#d8d8d8"/><stop offset="1" stop-color="#fff"/></linearGradient><g transform="matrix(1.16875 0 0 1.16875 -453.200671 -587.43735)"><rect fill="url(#a)" height="37.999977" ry="18.999989" width="38.000011" x="389.57141" y="504.798"/><path d="m408.32143 503.048c-11.08001 0-20 8.91999-20 20s8.91999 20 20 20 20-8.91999 20-20-8.91999-20-20-20zm0 2c9.97201 0 18 8.02799 18 18s-8.02799 18-18 18c-8.21224 0-15.09605-5.45021-17.27342-12.9414l6.87105 2.7578c.51952 2.38783 2.64776 4.1836 5.18755 4.1836 2.751 0 5.02225-2.10915 5.28517-4.79298l6.81246-4.98439c3.92821 0 7.11719-3.17828 7.11719-7.10544 0-3.92935-3.18864-7.11719-7.11719-7.11719-3.907 0-7.0778 3.15195-7.11325 7.05079l-4.43359 6.35158c-.18057-.0181-.36538-.0276-.55079-.0276-.99059 0-1.91578.27092-2.71097.74612l-9.97263-4.01173c.94027-9.07563 8.56601-16.10939 17.89842-16.10939zm6.88281 8.34377c2.63201 0 4.77342 2.14138 4.77342 4.77342-.00001 2.63216-2.14141 4.76176-4.77342 4.76176-2.63203 0-4.76956-2.1296-4.76956-4.76176 0-2.63204 2.13753-4.77342 4.76956-4.77342zm.0197.93746c-2.10345 0-3.8086 1.709-3.8086 3.81254 0 2.10346 1.70515 3.81246 3.8086 3.81246 2.10353 0 3.8125-1.709 3.8125-3.81246 0-2.10354-1.70897-3.81254-3.8125-3.81254zm-12.11718 11.5c2.16528 0 3.90625 1.74097 3.90625 3.90632-.00002 2.16523-1.74097 3.90622-3.90625 3.90622-1.50614 0-2.80469-.84057-3.45704-2.08202.64235.25922 1.28422.51627 1.92579.77728 1.59205.63978 3.40692-.13025 4.04688-1.72263.63993-1.59202-.13813-3.39935-1.73048-4.03903l-1.62893-.65237c.27109-.0585.55435-.0939.84375-.0939z" fill="url(#b)"/></g></svg>