<svg height="48" width="48" xmlns="http://www.w3.org/2000/svg" xmlns:xlink="http://www.w3.org/1999/xlink"><linearGradient id="a" gradientUnits="userSpaceOnUse" x1="859.99921" x2="842.72864" y1="525.96893" y2="507.21481"><stop offset="0" stop-color="#ffee97"/><stop offset="1" stop-color="#ffe76b"/></linearGradient><linearGradient id="b" gradientUnits="userSpaceOnUse" x1="858.80591" x2="860.02155" y1="529.479873" y2="517.318073"><stop offset="0" stop-color="#fed45b"/><stop offset="1" stop-color="#ffcc54"/></linearGradient><linearGradient id="c" gradientUnits="userSpaceOnUse" x1="859.23706" x2="864.14178" y1="526.26532" y2="531.15161"><stop offset="0" stop-color="#f0a23a"/><stop offset="1" stop-color="#fde46a"/></linearGradient><g transform="matrix(1.252006724679 0 0 1.252006724679 -1039.415304147477 -622.890191709409)"><rect fill="url(#c)" height="34.792614" ry="1.5" width="35.035072" x="831.9054" y="499.12701"/><path d="m831.79963 501.31463v30.90945s.29172 1.72327 2.04543 1.72327h13.00006c11.6503-2.05695 18.5526-8.41046 20.0815-19.6253v-13.37555c.0839-1.86568-1.56253-1.95162-1.56253-1.95162l-31.39741.10959c-2.33705-.16082-2.16705 2.21016-2.16705 2.21016z" fill="url(#a)" fill-rule="evenodd"/><path d="m846.06743 534.25446c6.65638-1.38481 10.15878-5.0846 12.41635-9.50949 5.99429-1.74052 7.52638-6.27185 8.40235-11.21401.12844 12.62171-9.62351 18.83447-20.8187 20.7235z" fill="url(#b)" fill-rule="evenodd" opacity=".9"/><path d="m462.5 96.193-21.726-21.726c-8.951-8.95-23.562-8.95-32.59 0l-227.816 227.894-119.34-119.34c-8.95-8.951-23.562-8.951-32.589 0l-21.727 21.726c-8.95 8.951-8.95 23.562 0 32.589l157.285 157.284c4.514 4.514 10.327 6.809 16.218 6.809s11.781-2.295 16.219-6.809l265.836-265.837c9.18-9.103 9.18-23.638.23-32.59z" fill="#e8923a" opacity=".7" stroke="#cb8034" stroke-width="4.247642" transform="matrix(.04151878 .00413984 -.00413984 .04151878 840.44617 505.53618)"/></g></svg>