<svg height="48" width="48" xmlns="http://www.w3.org/2000/svg" xmlns:xlink="http://www.w3.org/1999/xlink"><linearGradient id="a" gradientTransform="matrix(1.679793 0 0 1.6914988 -1137.1031 -328.45212)" gradientUnits="userSpaceOnUse" x1="864.30438" x2="864.04224" y1="499.42667" y2="534.01807"><stop offset="0" stop-color="#e7f0f4"/><stop offset="1" stop-color="#f4faff"/></linearGradient><linearGradient id="b" gradientUnits="userSpaceOnUse" x1="330.52548" x2="327.35657" y1="560.10962" y2="556.88092"><stop offset="0" stop-color="#d38d5f"/><stop offset="1" stop-color="#deaa87"/></linearGradient><linearGradient id="c" gradientUnits="userSpaceOnUse" x1="359.16525" x2="355.81699" y1="540.43842" y2="532.66565"><stop offset="0" stop-color="#d35f5f"/><stop offset="1" stop-color="#de8787"/></linearGradient><linearGradient id="d" gradientUnits="userSpaceOnUse" x1="347.32669" x2="342.12491" y1="549.52661" y2="543.00946"><stop offset="0" stop-color="#ffd42a"/><stop offset="1" stop-color="#fd5"/></linearGradient><linearGradient id="e" gradientUnits="userSpaceOnUse" x1="355.45236" x2="350.2944" y1="542.78662" y2="536.19116"><stop offset="0" stop-color="#999"/><stop offset="1" stop-color="#ccc"/></linearGradient><linearGradient id="f" gradientUnits="userSpaceOnUse" x1="302.72275" x2="303.55981" y1="572.54608" y2="519.09314"><stop offset="0" stop-color="#808080"/><stop offset="1" stop-color="#808080"/></linearGradient><g transform="matrix(.73914669 0 0 .73914669 -190.168943 -379.261417)"><path d="m262.86305 516.48938h53.77713c1.40561 0 2.53726 1.13165 2.53726 2.53726v53.77713c0 1.40562-1.13165 2.53726-2.53726 2.53726h-53.77713c-1.40562 0-2.53726-1.13164-2.53726-2.53726v-53.77713c0-1.40561 1.13164-2.53726 2.53726-2.53726z" fill-opacity=".666667"/><path d="m262.86305 515.82056h53.77713c1.40561 0 2.53726 1.13164 2.53726 2.53726v53.77723c0 1.40562-1.13165 2.53727-2.53726 2.53727h-53.77713c-1.40562 0-2.53726-1.13165-2.53726-2.53727v-53.77723c0-1.40562 1.13164-2.53726 2.53726-2.53726z" fill="url(#a)"/><g transform="matrix(.98863664 0 0 .98863664 3.292565 5.869013)"><g fill="#ccc"><path d="m301.47535 518.81598h14.25256c.54912 0 .99119.44207.99119.99119v14.25255c0 .54912-.44207.9912-.99119.9912h-14.25256c-.54912 0-.99119-.44208-.99119-.9912v-14.25255c0-.54912.44207-.99119.99119-.99119z"/><path d="m263.59401 537.75665h14.25255c.54912 0 .99119.44207.99119.9912v14.25255c0 .54912-.44207.99119-.99119.99119h-14.25255c-.54912 0-.9912-.44207-.9912-.99119v-14.25255c0-.54913.44208-.9912.9912-.9912z"/><path d="m263.59401 556.69733h14.25255c.54912 0 .99119.44207.99119.99119v14.25255c0 .54912-.44207.99119-.99119.99119h-14.25255c-.54912 0-.9912-.44207-.9912-.99119v-14.25255c0-.54912.44208-.99119.9912-.99119z"/><path d="m282.53468 556.69733h14.25255c.54912 0 .9912.44207.9912.99119v14.25255c0 .54912-.44208.99119-.9912.99119h-14.25255c-.54912 0-.99119-.44207-.99119-.99119v-14.25255c0-.54912.44207-.99119.99119-.99119z"/><path d="m301.47535 537.75665h14.25256c.54912 0 .99119.44207.99119.9912v14.25255c0 .54912-.44207.99119-.99119.99119h-14.25256c-.54912 0-.99119-.44207-.99119-.99119v-14.25255c0-.54913.44207-.9912.99119-.9912z"/></g><g fill="url(#f)"><path d="m263.59401 518.81598h14.25255c.54912 0 .99119.44207.99119.99119v14.25255c0 .54912-.44207.9912-.99119.9912h-14.25255c-.54912 0-.9912-.44208-.9912-.9912v-14.25255c0-.54912.44208-.99119.9912-.99119z"/><path d="m282.53468 518.81598h14.25255c.54912 0 .9912.44207.9912.99119v14.25255c0 .54912-.44208.9912-.9912.9912h-14.25255c-.54912 0-.99119-.44208-.99119-.9912v-14.25255c0-.54912.44207-.99119.99119-.99119z"/><path d="m301.47535 556.69733h14.25256c.54912 0 .99119.44207.99119.99119v14.25255c0 .54912-.44207.99119-.99119.99119h-14.25256c-.54912 0-.99119-.44207-.99119-.99119v-14.25255c0-.54912.44207-.99119.99119-.99119z"/><path d="m282.53468 537.75665h14.25255c.54912 0 .9912.44207.9912.9912v14.25255c0 .54912-.44208.99119-.9912.99119h-14.25255c-.54912 0-.99119-.44207-.99119-.99119v-14.25255c0-.54913.44207-.9912.99119-.9912z"/></g><g fill="#1a1a1a"><path d="m273.50167 522.92288h-4.60216l-.2039 3.43705h.0291q.85926-.50973 1.93698-.50973 1.55833 0 2.4176.8447.85926.8447.85926 2.38846 0 1.77679-1.0049 2.70887-.99034.93208-2.91276.93208-1.39813 0-2.59236-.55342v-1.10685q1.32531.6845 2.59236.6845 2.75256 0 2.75256-2.66518 0-1.12141-.59712-1.70396-.59712-.59712-1.71853-.59712-1.15054 0-1.90786.66994h-1.01946l.3204-5.50512h5.65076v.97578z"/><path d="m289.60674 521.93291q1.56037 0 2.42077.80207.86039.78748.86039 2.21661 0 1.42913-1.03539 2.90201-1.03539 1.45829-3.87906 3.86448v.0292h4.9582v.97705h-6.56233v-.97705q3.10617-2.56661 4.21448-3.99574 1.1083-1.44371 1.1083-2.71243 0-1.0208-.56873-1.56037-.56874-.55416-1.66246-.55416-1.38538 0-2.87284.84582v-1.13747q1.39996-.69999 3.01867-.69999z"/><path d="m286.36934 541.07571h6.26776v.95877l-3.42008 3.36284v.0286h.4293q1.51685 0 2.31821.7298.81566.72981.81566 2.11788 0 1.63133-.95876 2.51855-.95877.8729-2.76182.8729-1.45961 0-2.5901-.54378v-1.10186q1.20204.68688 2.5901.68688 1.25927 0 1.91753-.61533.65826-.61533.65826-1.81736 0-1.01601-.68688-1.50255-.67257-.50085-2.1608-.50085h-1.04462v-.88721l3.42007-3.31991v-.0286h-4.79383z"/><path d="m305.52085 569.26073q1.07325.38637 2.24666.38637 1.38807 0 2.20373-.97307.81567-.98739.84429-2.91923l-.0286-.0143q-.8586 1.24496-2.76182 1.24496-1.55978 0-2.47562-.95876-.91584-.95877-.91584-2.61872 0-1.63134 1.01601-2.57579 1.01601-.95877 2.66165-.95877 3.72059 0 3.72059 4.57918 0 3.19112-1.08756 4.67935-1.08756 1.47393-3.17681 1.47393-1.14479 0-2.24666-.32913v-1.01601zm2.79044-8.42855q-1.15911 0-1.84598.68687-.68688.67257-.68688 1.88892 0 1.24496.67257 1.97477.68687.7155 1.81736.7155 1.1448 0 1.84598-.7155.7155-.7155.7155-1.88891 0-.4293-.1431-.8586-.12879-.44361-.41499-.8586-.27189-.41498-.78704-.67256-.50085-.27189-1.17342-.27189z"/></g></g><g transform="matrix(.98863664 0 0 .98863664 -40.511815 3.528295)"><path d="m360.23479 539.44906c.47546-.36908.56171-1.05332.19274-1.52886l-3.81158-4.91361c-.17732-.22831-.43868-.37718-.72478-.41325-.28617-.0361-.57605.0433-.80435.22049-8.63925 6.70529-17.27855 13.41053-25.91783 20.11578-.1332.10345-.24122.23592-.31481.38725l-3.02921 6.28774c-.17892.3733-.13281.8144.1212 1.14158.17973.2321.44243.37764.72445.4132.11501.0145.23354.0112.35128-.0125l6.8419-1.37512c.16608-.0338.32091-.10422.45389-.20768 8.639-6.70505 17.27786-13.41028 25.9171-20.11502z" fill="url(#d)"/><path d="m328.85418 553.31686-3.02921 6.28774c-.17892.3733-.13281.8144.1212 1.14158.17973.2321.44243.37764.72445.4132.11501.0145.23354.0112.35128-.0125l6.8419-1.37512c-1.54396-7.91704-1.3154-2.03289-5.00962-6.4549z" fill="url(#b)"/><path d="m360.42753 537.9202-3.81158-4.91361c-.17732-.22831-.43868-.37718-.72478-.41325-.28617-.0361-.57605.0433-.80435.22049l-2.74024 2.12693 5.1487 6.63434 2.73951-2.12604c.47546-.36908.56171-1.05332.19274-1.52886z" fill="url(#c)"/><path d="m326.67155 557.76667-.91528 1.90135c-.17892.3733-.13281.8144.1212 1.14158.17973.2321.44243.37764.72445.4132.11501.0145.23354.0112.35128-.0125l1.86889-.371c-.10649-2.58996 2.00875-.55315-2.15054-3.07263z" fill="#4d4d4d"/><path d="m351.07655 535.92426c-.3233.25093-.64646.50216-.96976.75309l5.15005 6.63244c.32236-.25019.64476-.50026.96712-.75045zm1.31063-1.01468c-.3233.25093-.64646.50216-.96976.75309l5.15005 6.63244c.32236-.25019.64476-.50026.96712-.75045z" fill="url(#e)"/><path d="m332.50434 555.3194 5.28216-4.19364 17.24033-12.77362 2.49514 3.19913-23.19517 17.99597c-.1299.1349-.28503.20246-.45717.22471l-.47659-2.28974c-.18215-.78527-.38043-1.59502-.88874-2.16285z" fill-opacity=".039216"/></g><path d="m311.33512 530.06856c-.28266-.033-.56863.044-.7941.21887l-2.70906 2.10293c-.24967.19357-.50043.38605-.7501.57962-.055.044-.11329.088-.16938.13308-.11219.088-.22217.17488-.33436.26177l-.003-.003c-.32006.24857-.63902.49604-.95907.74461v.003c-6.89974 5.35511-13.80081 10.71097-20.70054 16.06608-.13198.099-.23867.23207-.31126.38165l-2.12647 4.41758c-.011-.01-.011-.009-.033-.022l-.90408 1.88097c-.17708.36845-.13088.8051.11989 1.12857.033.033.055.066.088.099l16.60424 16.60424h18.28404c1.40561 0 2.5366-1.13099 2.5366-2.53661v-34.54082l-7.21793-7.21804c-.16828-.16827-.38715-.27826-.62472-.30796z" fill-opacity=".078431"/></g></svg>