<svg height="48" width="48" xmlns="http://www.w3.org/2000/svg" xmlns:xlink="http://www.w3.org/1999/xlink"><linearGradient id="a" gradientUnits="userSpaceOnUse" x1="13.594061" x2="12.689428" y1="37.08989" y2="-12.664913"><stop offset="0" stop-color="#566069"/><stop offset="1" stop-color="#6c7884"/></linearGradient><path d="m16.428 15.744c-.159-.052-1.164-.505-.536-2.414h-.009c1.637-1.686 2.888-4.399 2.888-7.07 0-4.107-2.731-6.26-5.905-6.26-3.176 0-5.892 2.152-5.892 6.26 0 2.682 1.244 5.406 2.891 7.088.642 1.684-.506 2.309-.746 2.396-2.2377833.723652-8.32535247 4.33152-8.2290391 9.585718h24.0505821c.107339-5.019251-4.707828-8.278585-8.512543-9.585718zm21.817305-3.079196a25.329718 25.329718 0 0 1 -25.329718 25.329718 25.329718 25.329718 0 0 1 -25.329718-25.329718 25.329718 25.329718 0 0 1 25.329718-25.329718 25.329718 25.329718 0 0 1 25.329718 25.329718z" fill="url(#a)" transform="matrix(.908024294857 0 0 .908024294857 12.272331891738 12.500046429678)"/></svg>