<svg height="48" width="48" xmlns="http://www.w3.org/2000/svg" xmlns:xlink="http://www.w3.org/1999/xlink"><linearGradient id="a"><stop offset="0" stop-color="#c52828"/><stop offset="1" stop-color="#ff5454"/></linearGradient><linearGradient id="b" gradientTransform="matrix(3.848925 0 0 3.8489249 79.954172 555.03423)" gradientUnits="userSpaceOnUse" x1="74.367104" x2="74.334419" xlink:href="#a" y1="41.236774" y2="-6.011981"/><linearGradient id="c" gradientTransform="matrix(.24780108 0 0 .24991791 -66.340762 -131.58598)" gradientUnits="userSpaceOnUse" x1="366.92676" x2="368.42291" xlink:href="#a" y1="715.05585" y2="535.96069"/><linearGradient id="d" gradientUnits="userSpaceOnUse" x1="365.33249" x2="364.44705" y1="709.76245" y2="534.1449"><stop offset="0" stop-color="#e3e3e3"/><stop offset="1" stop-color="#fcf9f9"/></linearGradient><g fill="#fff" fill-opacity=".854839" transform="matrix(.248537059565 -.000000000325 .000000000325 .248537059565 -66.616602303774 -130.794604675482)"><circle cx="364.59998" cy="622.82306" fill="url(#d)" fill-opacity="1" r="88.525261"/><path d="m28.927734 14.984375c-.137023 0-.248048.111828-.248046.251953v7.666016l-14.308594-7.705078 12.111328 12.111328-12.111328 6.521484 12.015625 12.015625a22.001808 22.001808 0 0 0 19.175781-17.474609l-13.316406-13.316406c-.044546-.044546-.106316-.070313-.173828-.070313z" fill="#000" fill-opacity=".078431" transform="matrix(4.0235448 0 0 4.0235448 268.03489 526.25796)"/><path d="m15.033203 14.96875v18.632812l13.646485-7.347656v18.273438c0 .140125.111023.253906.248046.253906h3.144532c.137023 0 .248047-.113781.248046-.253906v-20.234375l.015626-.007813-.015626-.007812v-9.041016c0-.140125-.111023-.251953-.248046-.251953h-3.144532c-.137023 0-.248047.111828-.248046.251953v7.080078z" fill="url(#c)" fill-opacity="1" stroke="url(#c)" stroke-width="1.361274" transform="matrix(4.0235448 0 0 4.0235448 268.03489 526.25796)"/><path d="m364.59961 530.28125c-51.06171 0-92.54102 41.47931-92.54102 92.54102 0 51.0617 41.47931 92.54296 92.54102 92.54296 51.0617 0 92.54102-41.48126 92.54101-92.54296 0-51.06171-41.47931-92.54102-92.54101-92.54102zm0 8.0332c46.7206 0 84.50976 37.78722 84.50977 84.50782 0 46.72059-37.78917 84.50976-84.50977 84.50976s-84.50781-37.78917-84.50781-84.50976c0-46.7206 37.78721-84.50782 84.50781-84.50782z" fill="url(#b)" fill-opacity="1"/></g></svg>