<svg height="48" width="48" xmlns="http://www.w3.org/2000/svg" xmlns:xlink="http://www.w3.org/1999/xlink"><linearGradient gradientUnits="userSpaceOnUse" x1="404.33393" x2="412.17143" y1="516.973" y2="516.973"><stop offset="0"/><stop offset="1" stop-opacity="0"/></linearGradient><linearGradient id="a" gradientTransform="matrix(1.3951607 0 0 1.6197101 375.46719 485.27991)" gradientUnits="userSpaceOnUse" x1="24.000006" x2="24.000006" y1="14.952386" y2="33.047623"><stop offset="0" stop-color="#ff4035"/><stop offset="1" stop-color="#dc311a"/></linearGradient><linearGradient id="b" gradientUnits="userSpaceOnUse" x1="408.915077375" x2="409.176025509412" y1="545.246609425" y2="500.246082884013"><stop offset="0" stop-color="#8b8b8b"/><stop offset="1" stop-color="#c0c0c0"/></linearGradient><radialGradient id="c" cx="5.32152" cy="8.449767" gradientTransform="matrix(0 2.6147069 -2.766048 -.00000007 432.61443 486.19568)" gradientUnits="userSpaceOnUse" r="19.99999"><stop offset="0" stop-color="#e4e4e4"/><stop offset=".37188172" stop-color="#d2d2d3"/><stop offset=".81009638" stop-color="#ababac"/><stop offset="1" stop-color="#888889"/></radialGradient><g transform="matrix(.9818807 0 0 .9818807 -377.826663 -490.558376)"><path d="m409.24184 502.60326c-11.8357 0-21.4506 9.6149-21.4506 21.4506s9.6149 21.4506 21.4506 21.4506c11.83569 0 21.45061-9.6149 21.4506-21.4506 0-11.8357-9.61491-21.4506-21.4506-21.4506z" fill="url(#c)"/><path d="m411.51678 512.5996c-4.81759 0-9.3179 1.85849-12.6837 5.22895-3.34711 3.35645-5.18509 7.83183-5.17576 12.6121.014 9.95779 7.46136 14.50048 16.6136 14.05025.0121.0002.0246-.00018.0368 0 3.49995.0513 7.02218-1.35613 8.82745-2.45082.0127-.002.024-.004.0368-.007 2.52818-1.44466 3.88285-2.73313 3.88285-2.73313-2.66003.28803-6.43155.51097-11.79379-1.4443-3.23042-1.17638-4.57853-3.32278-4.82594-3.76625 0 0-.0102-.0137-.0102-.0184-.59289-1.03168-.87763-2.15807-.87763-3.26911 0-2.26877 1.17661-4.47699 3.2773-5.6954 1.51717-.87295 3.28685-1.1054 4.98141-.65259 1.68991.45282 3.10547 1.54124 3.98309 3.05841l2.73518-1.45658-.0512-.0941c-1.28846-2.23607-3.3703-3.83254-5.86314-4.50476-2.49282-.66756-5.09797-.32283-7.33404.9656h-.002c-3.09503 1.78794-4.82594 5.04311-4.82594 8.38555 0 1.54985.38649 3.11285 1.16608 4.55999l-.009.0103c0 .004.0274.0508.0368.0695h-.004s.0186.0279.0327.0511c.0185.0375.0648.12217.0695.12684.4855.83562 2.35714 3.64919 6.4605 5.14302 4.79505 1.75017 6.52989 1.67608 8.72925 1.29702-1.91336.92246-6.35708 2.1699-12.65302-2.15418-5.09302-3.50118-6.68066-9.72818-3.77236-14.80718 1.36311-2.37614 3.63144-4.09802 6.39503-4.84027 2.83361-.76559 5.7659-.39243 8.25873 1.04538l1.54863-2.68813c-3.21175-1.85328-6.98355-2.33461-10.61543-1.35428-3.56653.96166-6.50731 3.19715-8.28123 6.29683-3.72525 6.51218-1.74624 14.46126 4.70525 18.90074.9734.85492 2.08766 1.39128 3.26092 1.70003-6.65338-1.12275-11.00806-6.49775-11.02048-13.73316-.004-3.94931 1.50796-7.64668 4.27154-10.41494 2.77759-2.78225 6.50192-4.31859 10.48859-4.31859v-3.09933z" fill-opacity=".196078"/><path d="m408.95105 509.49844-8.37096 8.7927h3.1391v11.72363h-3.1391l8.37096 8.79271 8.37097-8.79271h-3.13911v-11.72363h3.13911z" fill="url(#a)"/><path d="m409.17578 501.71289c-12.35247 0-22.40625 10.05378-22.40625 22.40625s10.05378 22.40625 22.40625 22.40625c12.35246 0 22.40626-10.05378 22.40625-22.40625 0-12.35247-10.05379-22.40625-22.40625-22.40625zm0 2.03711c11.24946 0 20.36914 9.11967 20.36914 20.36914.00001 11.24947-9.11968 20.36914-20.36914 20.36914-11.24947 0-20.36914-9.11967-20.36914-20.36914s9.11967-20.36914 20.36914-20.36914z" fill="url(#b)"/></g></svg>