<svg viewBox="0 0 48 48" xmlns="http://www.w3.org/2000/svg" xmlns:xlink="http://www.w3.org/1999/xlink"><linearGradient id="a" gradientUnits="userSpaceOnUse" x1="399.9939" x2="399.9939" y1="545.13873" y2="518.13873"><stop offset="0" stop-color="#3889e9"/><stop offset="1" stop-color="#5ea5fb"/></linearGradient><g transform="translate(-74.061798 -1012.3711)"><circle cx="400.57138" cy="531.79791" fill="url(#a)" r="13.999958" transform="matrix(1.6428585 0 0 1.6428585 -560.0203 162.70233)"/><path d="m337.00033 537.3622c-2.03668 0-3.90944.43876-5.27625 1.32812-1.3668.88936-2.22569 2.23737-2.22396 4.02865.009 2.02438 1.32046 4.63644 2.90315 6.77083.79133 1.06719 1.65119 2.01513 2.45568 2.70573.80446.6906 1.54892 1.12954 2.13606 1.16667h.005.005c.58714-.0372 1.33159-.47607 2.13605-1.16667.80447-.6906 1.66434-1.63854 2.45569-2.70573 1.5827-2.13439 2.89346-4.74645 2.90314-6.77083.00073-1.79128-.85718-3.13929-2.22397-4.02865-1.3668-.88936-3.23958-1.32812-5.27626-1.32812z" fill="#fff" fill-opacity=".842742" fill-rule="evenodd" transform="matrix(1.75 0 0 1.75 -491.68816 83.387251)"/><path d="m102.86273 1032.7938c-.71093-1.0548-1.98642-1.667-3.78802-1.8194l-.003-.0002c-.1328-.015-.26036-.023-.37909-.023-.908273 0-1.230577.4547-1.230577.844v6.7762h-.000034c-.357225-.1076-.740404-.1387-1.118819-.091-.659425.083-1.250224.3928-1.663495.8718-.413303.4789-.599603 1.07-.524603 1.6641.139191 1.103 1.17148 1.9348 2.401304 1.9348.115472 0 .232588-.01.348191-.022 1.274798-.1609 2.200023-1.172 2.200023-2.4041v-6.649c.0957-.01.19156-.01.28505-.01 1.12395 0 2.15728.4702 2.98836 1.3597.34257.3667.58304.7313.7245.9727.0348.059.1025.091.17037.079.0676-.012.12066-.065.13295-.1323.1363-.7486.24711-2.1794-.5431-3.3518z" fill="#4d98f3" stroke-width="1.317422"/></g></svg>