<svg height="48" width="48" xmlns="http://www.w3.org/2000/svg" xmlns:xlink="http://www.w3.org/1999/xlink"><linearGradient id="a" gradientUnits="userSpaceOnUse" x1="399.57144" x2="399.57144" y1="545.79797" y2="517.79797"><stop offset="0" stop-color="#3889e9"/><stop offset="1" stop-color="#5ea5fb"/></linearGradient><linearGradient id="b" gradientUnits="userSpaceOnUse" x1="399.9939" x2="399.9939" y1="545.13873" y2="518.13873"><stop offset="0" stop-color="#ff6835"/><stop offset="1" stop-color="#ff956f"/></linearGradient><g fill="#e9afaf" transform="matrix(1.00000000118 0 0 1.00000000118 -649.429083551637 -776.744127526038)"><g stroke-width="1.299897" transform="matrix(1.714290785817 0 0 1.714290785817 -13.286770403371 -110.903166390182)"><circle cx="400.57138" cy="531.79791" fill="url(#b)" r="13.999958"/><circle cx="400.57138" cy="531.79791" fill="url(#a)" r="0"/></g><g transform="matrix(1.486561752901 0 0 1.487531106051 77.93113658656 9.526326371753)"><circle cx="400.57138" cy="531.79791" fill="url(#a)" r="0"/><circle cx="400.57138" cy="531.79791" fill="url(#a)" r="0" transform="matrix(1.637466546304 0 0 1.637466546304 -298.091124770527 -338.94880206143)"/></g><path d="m391.84218 540.91306c-.42081-.32855-.94932-.52413-1.52328-.52413-1.35134 0-2.45088 1.08433-2.48542 2.43509-1.39488.52618-2.38765 1.87965-2.38765 3.46634 0 1.87433 1.38537 3.42322 3.18243 3.66739v.0335h12.72968v-.006c1.77487-.10355 3.18242-1.58396 3.18242-3.39503 0-1.74659-1.30911-3.18565-2.9943-3.37879.007-.10647.0108-.21389.0108-.32212 0-2.70685-2.27081-4.90117-5.07199-4.90117-2.07343 0-3.85626 1.20226-4.64268 2.9247z" fill="#fff" fill-opacity=".862903" transform="matrix(1.67587257042 0 0 1.684875828192 11.470986966633 -115.810958238944)"/></g></svg>