<svg height="48" viewBox="0 0 48 48" width="48" xmlns="http://www.w3.org/2000/svg" xmlns:xlink="http://www.w3.org/1999/xlink"><linearGradient id="a" gradientUnits="userSpaceOnUse" x1="400.57144" x2="400.57144" y1="545.79797" y2="517.79797"><stop offset="0" stop-color="#ff9300"/><stop offset="1" stop-color="#ffd702"/></linearGradient><g transform="matrix(.84764135414 0 0 .84764135414 -315.540919034127 -426.887635810739)"><rect fill="url(#a)" height="28.000027" ry="14.000006" transform="matrix(1.928569535212 0 0 1.928569535212 -371.958450321783 -493.811426845536)" width="28.000011" x="386.57144" y="517.79797"/><path d="m27.207947 1033.4817-4.932292 6 3.328334 1.8008-.862188 4.1992 4.932292-6-3.328334-1.8008z" fill-opacity=".795918" transform="matrix(2.166666664438 0 0 2.166666664438 344.292536719808 -1720.41239049328)"/><path d="m422.52092 486.38487c-1.12917-.0571-2.33103.004-3.61172.19167-13.1925 1.93145-14.27479 16.28486-21.95182 27.07292 8.91988 22.81857 31.02793 38.92632 57.08074 38.92632 20.20958 0 38.01925-9.72116 49.18048-24.71303-22.94725-28.69089-30.06544 3.8969-49.18048-5.28881-13.7216-8.4375-14.57959-35.33214-31.5172-36.18907z" fill="#342600" fill-rule="evenodd" transform="matrix(.418938959292 0 0 .38741357288 210.442531157936 344.990847914686)"/></g></svg>