<svg height="48" viewBox="0 0 48 48" width="48" xmlns="http://www.w3.org/2000/svg" xmlns:xlink="http://www.w3.org/1999/xlink"><linearGradient id="a" gradientUnits="userSpaceOnUse" x1="-32.617188" x2="-32.617188" y1="46.828125" y2=".148437"><stop offset="0" stop-color="#323232"/><stop offset="1" stop-color="#4d4d4d"/></linearGradient><linearGradient id="b" gradientUnits="userSpaceOnUse" x1="-32.177738" x2="-32.226566" y1="47.365236" y2="-.242188"><stop offset="0" stop-color="#ff2a2a"/><stop offset="1" stop-color="#ed324b"/></linearGradient><g transform="matrix(.91756445 0 0 .925227 53.677532 2.320962)"><path d="m-42.582473 41.433227c-5.523913-3.190634-10.120075-5.875537-10.213694-5.966451-.09362-.09091-.188999-.259217-.211956-.374006-.02296-.114788-.04174-5.384334-.04174-11.710103 0-12.972389-.04638-11.866189.511859-12.208528.166847-.102319 4.720206-2.7370254 10.118575-5.8549024 9.116124-5.26510001 9.836121-5.66863901 10.108696-5.66564901.26791.0029 1.162816.504962 10.271739 5.76223801 6.142829 3.545374 10.059733 5.8437744 10.190218 5.9795194l.211956.2205v11.806263 11.806263l-.211956.2205c-.13064.135906-4.040115 2.428546-10.190218 5.975867-7.656111 4.415972-10.03897 5.761682-10.23913 5.782504-.245714.02556-.844382-.309901-10.304348-5.774015z" fill="url(#a)"/><path d="m-29.190437 9.262399c-5.181117 0-10.021014 1.998733-13.640792 5.62352-3.599677 3.609727-5.576354 8.422818-5.566314 13.563795.01502 10.709195 8.024381 15.594675 17.867236 15.110465.01306.000216.02643-.000194.0396 0 3.764053.05514 7.552065-1.458459 9.493561-2.635754.01368-.0021.02581-.0041.0396-.0072 2.718956-1.553676 4.175842-2.939376 4.175842-2.939376-2.860753.309773-6.916863.549532-12.683733-1.553284-3.474185-1.265146-4.924014-3.573507-5.190098-4.050444 0 0-.01101-.01471-.01101-.01975-.637619-1.109525-.943853-2.320911-.943853-3.515786 0-2.439973 1.265394-4.814819 3.524604-6.125166 1.63165-.938821 3.534868-1.188816 5.357302-.70184 1.817424.486986 3.339806 1.657544 4.283649 3.289194l2.941576-1.566493-.05504-.101227c-1.385689-2.404801-3.624612-4.121732-6.305568-4.844682-2.680925-.717928-5.48265-.347185-7.887451 1.038463h-.0021c-3.328574 1.922855-5.190099 5.423664-5.190099 9.018321 0 1.666791.415657 3.347738 1.254067 4.904079l-.0092.01111c0 .0041.02942.05463.0396.07478h-.0041s.01996.03004.03518.05493c.01985.04033.06974.131384.07478.136415.522138.898672 2.535004 3.924551 6.948002 5.531102 5.156882 1.882232 7.022624 1.802559 9.387943 1.394896-2.057739.992068-6.836768 2.333636-13.607793-2.316735-5.477341-3.765379-7.184776-10.462255-4.057026-15.924516 1.465969-2.555434 3.905469-4.407248 6.877597-5.205508 3.047431-.823361 6.200982-.422044 8.881927 1.124265l1.665484-2.890975c-3.454105-1.993125-7.510525-2.510777-11.416455-1.456474-3.835662 1.034225-6.998347 3.438408-8.906122 6.771981-4.006353 7.003583-1.878015 15.552488 5.060297 20.32697 1.046856.919432 2.245199 1.496265 3.506991 1.828309-7.155455-1.207467-11.838732-6.98806-11.852095-14.769441-.0041-4.247327 1.621755-8.223693 4.593864-11.200842 2.987189-2.992199 6.992554-4.644466 11.28005-4.644466v-3.333202z" fill-opacity=".196078"/><path d="m-32.311138-.346884c-.272575-.003-.991298.400915-10.107422 5.666015-5.398369 3.117878-9.952293 5.75315-10.11914 5.855469-.558239.342339-.511719-.763404-.511719 12.208985 0 6.325769.01806 11.594196.04102 11.708984.02296.114789.119271.28409.212891.375s4.688978 2.77421 10.212891 5.964844c9.459966 5.464114 10.058973 5.80095 10.304687 5.77539.20016-.02082 2.58217-1.367231 10.238281-5.783203 6.150104-3.547321 10.060767-5.840656 10.191407-5.976562l.210937-.21875v-11.806641-11.80664l-.210937-.220704c-.130485-.135745-4.048578-2.433141-10.191407-5.978515-9.108923-5.257276-10.003574-5.760772-10.271484-5.763672zm-.0078 3.029297c.181607 0 1.98116 1.014692 9.048828 5.097656 7.738399 4.470443 8.835689 5.122857 8.923828 5.308594.08918.187933.101562 1.361298.101562 10.423828v10.210937l-.179687.191407c-.145928.155654-8.867016 5.24275-10.386719 6.058593-.233152.125166-1.965832 1.11795-3.851562 2.207032-2.702549 1.560825-3.477309 1.980468-3.65625 1.980468-.181974 0-1.97256-1.008133-9.027344-5.082031-6.525852-3.768457-8.831643-5.12913-8.916016-5.265625-.106969-.173051-.113281-.795676-.113281-10.390625s.0063-10.217575.113281-10.390625c.174139-.281715 17.629061-10.349609 17.94336-10.349609z" fill="url(#b)"/><path d="m-37.195892 14.653116c-.44897.01077-.892088.06139-1.199218.148437-1.578487.447384-2.883022 1.596949-3.476563 3.066407-.295466.731501-.375657 1.170201-.373047 2.033203.0038 1.26017.230085 2.189549.8125 3.349609.852804 1.698625 1.839123 2.814054 4.914063 5.556641 2.449113 2.1844 3.318243 3.088636 3.882812 4.039062.271069.456332.313833.456845.591797.01563.690615-1.096227 1.353691-1.782487 4.070313-4.21875 2.971798-2.665104 3.938459-3.767643 4.777344-5.449219 1.610866-3.229041.711777-6.658476-2.103516-8.023437-.862978-.418404-1.285836-.514346-2.25-.511719-.942888.0026-1.46383.109299-2.195313.447266-.959116.443138-1.830978 1.21655-2.30664 2.046875-.124929.21808-.245403.39737-.267578.398437-.02217.0011-.15373-.194146-.292969-.433593-.304358-.523402-1.023358-1.271925-1.552735-1.617188-.484718-.316137-1.247926-.637819-1.798828-.757812-.329542-.07178-.783451-.100612-1.232422-.08984z" fill="url(#b)"/></g></svg>