<svg height="48" width="48" xmlns="http://www.w3.org/2000/svg" xmlns:xlink="http://www.w3.org/1999/xlink"><linearGradient id="a" gradientUnits="userSpaceOnUse" x1="399.57144" x2="399.57144" y1="545.79797" y2="517.79797"><stop offset="0" stop-color="#3889e9"/><stop offset="1" stop-color="#5ea5fb"/></linearGradient><linearGradient id="b" gradientUnits="userSpaceOnUse" x1="400.55615" x2="400.55615" y1="546.92657" y2="516.4751"><stop offset="0" stop-color="#2e3e46"/><stop offset="1" stop-color="#435a64"/></linearGradient><linearGradient id="c" gradientTransform="matrix(0 -1 1 0 -.000002 47.999998)" gradientUnits="userSpaceOnUse" x1="487.74164" x2="493.5094" y1="985.34576" y2="11.610633"><stop offset="0" stop-color="#d3d3d3"/><stop offset="1" stop-color="#ddd"/></linearGradient><g transform="matrix(1.5511965 0 0 1.552208 -597.40541 -801.61944)"><circle cx="400.57138" cy="531.79791" fill="url(#a)" r="0"/><g transform="matrix(1.0508504 0 0 1.0508504 -20.353166 -26.940048)"><circle cx="400.57138" cy="531.79791" fill="url(#b)" r="13.999958" stroke="url(#b)" stroke-width="1.427415"/><circle cx="400.57138" cy="531.79791" fill="url(#a)" r="0" transform="matrix(1.55822993102 0 0 1.55822993102 -264.298285246431 -296.910724934234)"/></g></g><path d="m946.23 206.651c-.3-23-18-42-40.899-44.101-190.3-17.8-345.601-119.5-396.8-156.7-10.7-7.8-25.2-7.8-35.9 0-51.1 37.2-206.4 138.9-396.7 156.7-22.9 2.101-40.5 21.101-40.9 44.101-2.3 150.1 21.8 659.699 444.1 773.1 7.5 2 15.4 2 22.9 0 422.3-113.3 446.399-623.001 444.199-773.1z" fill="url(#c)" transform="matrix(.032611431486 0 0 .032611431939 7.999994780357 8.00000035153)"/><path d="m33.434 32.04-1.079 1.079c-.438.438-1.147.438-1.584 0l-2.931-2.932-1.175 1.174c-.146.146-.343.228-.55.228-.206 0-.405-.082-.55-.228l-.428-.428c-.305-.305-.305-.797 0-1.101l.962-.961-3.129-2.597-3.143 2.597.969.961c.304.304.308.796.003 1.101l-.426.428c-.146.146-.343.228-.549.228-.207 0-.403-.082-.55-.228l-1.173-1.174-2.932 2.932c-.437.438-1.147.438-1.584 0l-1.079-1.079c-.21-.209-.328-.495-.328-.792s.118-.582.328-.792l2.932-2.933-1.174-1.174c-.304-.303-.304-.795 0-1.099l.428-.429c.304-.303.796-.303 1.1 0l1.221 1.221 2.441-2.943-6.211-5.154c-.267-.222-.442-.535-.491-.879l-.515-3.613c-.062-.436.084-.875.396-1.186s.751-.457 1.187-.395l3.625.522c.343.049.641.224.862.491l4.655 5.602 4.656-5.602c.222-.267.533-.442.876-.491l3.625-.522c.437-.063.875.083 1.188.395.312.312.458.75.396 1.186l-.515 3.613c-.049.344-.224.657-.491.879l-6.21 5.154 2.441 2.943 1.221-1.221c.303-.303.796-.303 1.1 0l .429.429c.303.304.303.796 0 1.099l-1.174 1.174 2.931 2.933c.21.21.329.495.329.792s-.12.583-.33.792z" fill="#384c55" transform="matrix(.64845155 0 0 .64845155 9.10442 9.91092)"/></svg>