<svg height="48" width="48" xmlns="http://www.w3.org/2000/svg" xmlns:xlink="http://www.w3.org/1999/xlink"><linearGradient id="a" gradientTransform="matrix(1.0448887 0 0 .97906893 -12.072224 17.800175)" gradientUnits="userSpaceOnUse" x1="265.45438" x2="265.65161" y1="913.03589" y2="791.88153"><stop offset="0" stop-color="#197ff1"/><stop offset="1" stop-color="#21c6fb"/></linearGradient><linearGradient id="b" gradientUnits="userSpaceOnUse" x1="400.57144" x2="400.57144" y1="545.79797" y2="517.79797"><stop offset="0" stop-color="#566069"/><stop offset="1" stop-color="#6c7884"/></linearGradient><g transform="matrix(.378089325391 -.000000000494 .000000000494 .378089325391 -77.682283068957 -298.414652104406)"><rect fill="url(#a)" height="119.01949" ry="4.895345" width="119.01949" x="209.42744" y="793.23755"/><path d="m-1516.6025 633.46198-.2386-212.77776 261.8182-35.55273v248.33049zm305.216-254.6714 349.00353-50.78318v305.45458h-349.00353zm349.08808 298.30777-.0846 305.45456-349.00358-49.10182v-256.35274h349.08813zm-392.72448 250.79728-261.6055-35.85954-.014-214.93774h261.6191v250.79728z" fill="#eff8fe" transform="matrix(.110486138258 0 0 .12122354785 400.368166471755 773.311917485418)"/><rect fill="url(#b)" height="28.000027" ry="14.000006" transform="matrix(1.878657304968 0 0 1.878657304968 -446.758224486266 -109.648216660818)" width="28.000011" x="386.57144" y="517.79797"/><path clip-rule="evenodd" d="m267.92 119.461c-.425-3.778-4.83-6.617-8.639-6.617-12.315 0-23.243-7.231-27.826-18.414-4.682-11.454-1.663-24.812 7.515-33.231 2.889-2.641 3.24-7.062.817-10.133-6.303-8.004-13.467-15.234-21.289-21.5-3.063-2.458-7.557-2.116-10.213.825-8.01 8.871-22.398 12.168-33.516 7.529-11.57-4.867-18.866-16.591-18.152-29.176.235-3.953-2.654-7.39-6.595-7.849-10.038-1.161-20.164-1.197-30.232-.08-3.896.43-6.785 3.786-6.654 7.689.438 12.461-6.946 23.98-18.401 28.672-10.985 4.487-25.272 1.218-33.266-7.574-2.642-2.896-7.063-3.252-10.141-.853-8.054 6.319-15.379 13.555-21.74 21.493-2.481 3.086-2.116 7.559.802 10.214 9.353 8.47 12.373 21.944 7.514 33.53-4.639 11.046-16.109 18.165-29.24 18.165-4.261-.137-7.296 2.723-7.762 6.597-1.182 10.096-1.196 20.383-.058 30.561.422 3.794 4.961 6.608 8.812 6.608 11.702-.299 22.937 6.946 27.65 18.415 4.698 11.454 1.678 24.804-7.514 33.23-2.875 2.641-3.24 7.055-.817 10.126 6.244 7.953 13.409 15.19 21.259 21.508 3.079 2.481 7.559 2.131 10.228-.81 8.04-8.893 22.427-12.184 33.501-7.536 11.599 4.852 18.895 16.575 18.181 29.167-.233 3.955 2.67 7.398 6.595 7.85 5.135.599 10.301.898 15.481.898 4.917 0 9.835-.27 14.752-.817 3.897-.43 6.784-3.786 6.653-7.696-.451-12.454 6.946-23.973 18.386-28.657 11.059-4.517 25.286-1.211 33.281 7.572 2.657 2.89 7.047 3.239 10.142.848 8.039-6.304 15.349-13.534 21.74-21.494 2.48-3.079 2.13-7.559-.803-10.213-9.353-8.47-12.388-21.946-7.529-33.524 4.568-10.899 15.612-18.217 27.491-18.217l1.662.043c3.853.313 7.398-2.655 7.865-6.588 1.184-10.105 1.198-20.383.06-30.561zm-133.325 60.03c-24.718 0-44.824-20.106-44.824-44.824 0-24.717 20.106-44.824 44.824-44.824 24.717 0 44.823 20.107 44.823 44.824 0 24.718-20.106 44.824-44.823 44.824z" fill="#fff" fill-opacity=".93401" fill-rule="evenodd" stroke-width="1.317422" transform="matrix(.136916350732 0 0 .136916350732 287.170002701078 871.82995485341)"/></g></svg>