<svg height="48" width="48" xmlns="http://www.w3.org/2000/svg" xmlns:xlink="http://www.w3.org/1999/xlink"><linearGradient id="a"><stop offset="0"/><stop offset="1" stop-color="#333"/></linearGradient><linearGradient id="b" gradientUnits="userSpaceOnUse" x1="408.658557587355" x2="408.575890065141" xlink:href="#a" y1="545.419159062599" y2="502.454839600052"/><linearGradient id="c" gradientUnits="userSpaceOnUse" x1="409.15504171944" x2="409.15504171944" y1="544.215403967512" y2="502.276288500915"><stop offset="0" stop-color="#d3d3d3"/><stop offset="1" stop-color="#fcf9f9"/></linearGradient><linearGradient id="d" gradientUnits="userSpaceOnUse" x1="409.082041572457" x2="409.077192007235" xlink:href="#a" y1="545.558885083971" y2="502.096928522721"/><g transform="translate(-384.57143 -499.798)"><text opacity=".8" x="1111.1042" y="505.6438"><tspan x="1111.1042" y="505.6438"/></text><text opacity=".8" x="1133.1484" y="468.16129"><tspan x="1133.1484" y="468.16129"/></text><text opacity=".8" x="-219.77052" y="440.48929"><tspan x="-219.77052" y="440.48929"/></text><text opacity=".8" x="-1897.5681" y="1126.4011"><tspan x="-1897.5681" y="1126.4011"/></text><text opacity=".8" x="-114.43831" y="85.992607"><tspan x="-114.43831" y="85.992607"/></text><text opacity=".8" x="628.55853" y="-294.40137"><tspan x="628.55853" y="-294.40137"/></text><text opacity=".8" x="650.60272" y="-331.88391"><tspan x="650.60272" y="-331.88391"/></text><text opacity=".8" x="-721.54877" y="-338.517"><tspan x="-721.54877" y="-338.517"/></text><text opacity=".8" x="622.15582" y="-589.89343"><tspan x="622.15582" y="-589.89343"/></text><text opacity=".8" x="1989.3949" y="-13.335124"><tspan x="1989.3949" y="-13.335124"/></text><text opacity=".8" x="2011.4386" y="-50.81768"><tspan x="2011.4386" y="-50.81768"/></text><text opacity=".8" x="639.28735" y="-57.450813"><tspan x="639.28735" y="-57.450813"/></text><text opacity=".8" x="1982.9921" y="-308.82709"><tspan x="1982.9921" y="-308.82709"/></text><text opacity=".8" x="-223.50702" y="-101.695"><tspan x="-223.50702" y="-101.695"/></text><text opacity=".8" x="-1901.3043" y="584.21692"><tspan x="-1901.3043" y="584.21692"/></text><text opacity=".8" x="-323.72324" y="669.65961"><tspan x="-323.72324" y="669.65961"/></text><text opacity=".8" x="696.58307" y="504.8114"><tspan x="696.58307" y="504.8114"/></text><text opacity=".8" x="718.6272" y="467.32889"><tspan x="718.6272" y="467.32889"/></text><text opacity=".8" x="-653.52417" y="460.69574"><tspan x="-653.52417" y="460.69574"/></text><text opacity=".8" x="690.18036" y="209.31938"><tspan x="690.18036" y="209.31938"/></text><text opacity=".8" x="-255.3391" y="458.19858"><tspan x="-255.3391" y="458.19858"/></text><text opacity=".8" x="-1933.1368" y="1144.1105"><tspan x="-1933.1368" y="1144.1105"/></text><text opacity=".8" x="-116.33298" y="-334.41254"><tspan x="-116.33298" y="-334.41254"/></text><text opacity=".8" x="626.66382" y="-714.80664"><tspan x="626.66382" y="-714.80664"/></text><text opacity=".8" x="648.70795" y="-752.28912"><tspan x="648.70795" y="-752.28912"/></text><text opacity=".8" x="-723.44348" y="-758.9223"><tspan x="-723.44348" y="-758.9223"/></text><text opacity=".8" x="620.26111" y="-1010.2988"><tspan x="620.26111" y="-1010.2988"/></text><text opacity=".8" x="1987.5" y="-433.74048"><tspan x="1987.5" y="-433.74048"/></text><text opacity=".8" x="2009.5439" y="-471.2229"><tspan x="2009.5439" y="-471.2229"/></text><text opacity=".8" x="637.39264" y="-477.85608"><tspan x="637.39264" y="-477.85608"/></text><text opacity=".8" x="1981.0972" y="-729.23242"><tspan x="1981.0972" y="-729.23242"/></text><text opacity=".8" x="-225.40172" y="-522.10028"><tspan x="-225.40172" y="-522.10028"/></text><text opacity=".8" x="-1903.1992" y="163.81166"><tspan x="-1903.1992" y="163.81166"/></text><text opacity=".8" x="-325.61795" y="249.25438"><tspan x="-325.61795" y="249.25438"/></text><text opacity=".8" x="447.19843" y="470.8963"><tspan x="447.19843" y="470.8963"/></text><text opacity=".8" x="469.24258" y="433.41376"><tspan x="469.24258" y="433.41376"/></text><text opacity=".8" x="-698.99335" y="254.90672"><tspan x="-698.99335" y="254.90672"/></text><text opacity=".8" x="44.003471" y="-125.48728"><tspan x="44.003471" y="-125.48728"/></text><text opacity=".8" x="66.047615" y="-162.96982"><tspan x="66.047615" y="-162.96982"/></text><text opacity=".8" x="-1306.1036" y="-169.60294"><tspan x="-1306.1036" y="-169.60294"/></text><text opacity=".8" x="37.600758" y="-420.97931"><tspan x="37.600758" y="-420.97931"/></text><text opacity=".8" x="1404.8397" y="155.57899"><tspan x="1404.8397" y="155.57899"/></text><text opacity=".8" x="1426.8838" y="118.09646"><tspan x="1426.8838" y="118.09646"/></text><text opacity=".8" x="54.732258" y="111.46327"><tspan x="54.732258" y="111.46327"/></text><text opacity=".8" x="1398.437" y="-139.91306"><tspan x="1398.437" y="-139.91306"/></text><text opacity=".8" x="-808.06213" y="67.219124"><tspan x="-808.06213" y="67.219124"/></text><text opacity=".8" x="-2485.8596" y="753.13104"><tspan x="-2485.8596" y="753.13104"/></text><text opacity=".8" x="-908.27832" y="838.57367"><tspan x="-908.27832" y="838.57367"/></text><text opacity=".8" x="1111.1042" y="512.3028"><tspan x="1111.1042" y="512.3028"/></text><text opacity=".8" x="1133.1484" y="474.82022"><tspan x="1133.1484" y="474.82022"/></text><text opacity=".8" x="-219.77052" y="447.14828"><tspan x="-219.77052" y="447.14828"/></text><text opacity=".8" x="-1897.5681" y="1133.0601"><tspan x="-1897.5681" y="1133.0601"/></text><text opacity=".8" x="-114.43831" y="92.651604"><tspan x="-114.43831" y="92.651604"/></text><text opacity=".8" x="628.55853" y="-287.74237"><tspan x="628.55853" y="-287.74237"/></text><text opacity=".8" x="650.60272" y="-325.22495"><tspan x="650.60272" y="-325.22495"/></text><text opacity=".8" x="-721.54877" y="-331.85803"><tspan x="-721.54877" y="-331.85803"/></text><text opacity=".8" x="622.15582" y="-583.23444"><tspan x="622.15582" y="-583.23444"/></text><text opacity=".8" x="1989.3949" y="-6.676161"><tspan x="1989.3949" y="-6.676161"/></text><text opacity=".8" x="2011.4386" y="-44.158726"><tspan x="2011.4386" y="-44.158726"/></text><text opacity=".8" x="639.28735" y="-50.791862"><tspan x="639.28735" y="-50.791862"/></text><text opacity=".8" x="1982.9921" y="-302.16806"><tspan x="1982.9921" y="-302.16806"/></text><text opacity=".8" x="-223.50702" y="-95.036034"><tspan x="-223.50702" y="-95.036034"/></text><text opacity=".8" x="-1901.3043" y="590.87592"><tspan x="-1901.3043" y="590.87592"/></text><text opacity=".8" x="-323.72324" y="676.3186"><tspan x="-323.72324" y="676.3186"/></text><text opacity=".8" x="696.58307" y="511.47046"><tspan x="696.58307" y="511.47046"/></text><text opacity=".8" x="718.6272" y="473.98788"><tspan x="718.6272" y="473.98788"/></text><text opacity=".8" x="-653.52417" y="467.35471"><tspan x="-653.52417" y="467.35471"/></text><text opacity=".8" x="690.18036" y="215.97838"><tspan x="690.18036" y="215.97838"/></text><text opacity=".8" x="-255.3391" y="464.85757"><tspan x="-255.3391" y="464.85757"/></text><text opacity=".8" x="-1933.1368" y="1150.7694"><tspan x="-1933.1368" y="1150.7694"/></text><text opacity=".8" x="-116.33298" y="-327.75357"><tspan x="-116.33298" y="-327.75357"/></text><text opacity=".8" x="626.66382" y="-708.14758"><tspan x="626.66382" y="-708.14758"/></text><text opacity=".8" x="648.70795" y="-745.63019"><tspan x="648.70795" y="-745.63019"/></text><text opacity=".8" x="-723.44348" y="-752.26331"><tspan x="-723.44348" y="-752.26331"/></text><text opacity=".8" x="620.26111" y="-1003.6396"><tspan x="620.26111" y="-1003.6396"/></text><text opacity=".8" x="1987.5" y="-427.08151"><tspan x="1987.5" y="-427.08151"/></text><text opacity=".8" x="2009.5439" y="-464.56396"><tspan x="2009.5439" y="-464.56396"/></text><text opacity=".8" x="637.39264" y="-471.19705"><tspan x="637.39264" y="-471.19705"/></text><text opacity=".8" x="1981.0972" y="-722.57343"><tspan x="1981.0972" y="-722.57343"/></text><text opacity=".8" x="-225.40172" y="-515.44122"><tspan x="-225.40172" y="-515.44122"/></text><text opacity=".8" x="-1903.1992" y="170.47066"><tspan x="-1903.1992" y="170.47066"/></text><text opacity=".8" x="-325.61795" y="255.91338"><tspan x="-325.61795" y="255.91338"/></text><text opacity=".8" x="447.19843" y="477.55527"><tspan x="447.19843" y="477.55527"/></text><text opacity=".8" x="469.24258" y="440.07272"><tspan x="469.24258" y="440.07272"/></text><text opacity=".8" x="-698.99335" y="261.56573"><tspan x="-698.99335" y="261.56573"/></text><text opacity=".8" x="44.003471" y="-118.82833"><tspan x="44.003471" y="-118.82833"/></text><text opacity=".8" x="66.047615" y="-156.31085"><tspan x="66.047615" y="-156.31085"/></text><text opacity=".8" x="-1306.1036" y="-162.94403"><tspan x="-1306.1036" y="-162.94403"/></text><text opacity=".8" x="37.600758" y="-414.32028"><tspan x="37.600758" y="-414.32028"/></text><text opacity=".8" x="1404.8397" y="162.23795"><tspan x="1404.8397" y="162.23795"/></text><text opacity=".8" x="1426.8838" y="124.75543"><tspan x="1426.8838" y="124.75543"/></text><text opacity=".8" x="54.732258" y="118.12227"><tspan x="54.732258" y="118.12227"/></text><text opacity=".8" x="1398.437" y="-133.25409"><tspan x="1398.437" y="-133.25409"/></text><text opacity=".8" x="-808.06213" y="73.878113"><tspan x="-808.06213" y="73.878113"/></text><text opacity=".8" x="-2485.8596" y="759.79004"><tspan x="-2485.8596" y="759.79004"/></text><text opacity=".8" x="-908.27832" y="845.23273"><tspan x="-908.27832" y="845.23273"/></text><text x="705.08643" y="163.36743"><tspan x="705.08643" y="163.36743"/><tspan x="705.08643" y="177.93391"/></text><text opacity=".8" x="1133.0574" y="-280.11526"><tspan x="1133.0574" y="-280.11526"/></text><text opacity=".8" x="-544.7403" y="405.7966"><tspan x="-544.7403" y="405.7966"/></text><text opacity=".8" x="1801.9733" y="-542.31244"><tspan x="1801.9733" y="-542.31244"/></text><text opacity=".8" x="1824.0172" y="-579.79498"><tspan x="1824.0172" y="-579.79498"/></text><text opacity=".8" x="451.86572" y="-586.42816"><tspan x="451.86572" y="-586.42816"/></text><text opacity=".8" x="1795.5704" y="-837.8045"><tspan x="1795.5704" y="-837.8045"/></text><path d="m346.3985 604.9975c.009-.21843.0534-.26286.11328-.11329.0542.13535.0475.29707-.0148.35938-.0623.0623-.10662-.0484-.0985-.24609z" fill="#d8d8d8" stroke-width=".1875"/><path d="m388.211 604.9975c.009-.21843.0534-.26286.11328-.11329.0542.13535.0475.29707-.0148.35938-.0623.0623-.10662-.0484-.0985-.24609z" fill="#d8d8d8" stroke-width=".1875"/><ellipse cx="408.57144" cy="523.79797" fill="url(#c)" rx="21.119997" ry="21.120003"/><path d="m409.21021 527.81788c.37982-.88289.40222-1.18814.42563-5.79943.0269-5.29999-.002-5.46429-.96171-5.46429-.95897 0-.98828.16562-.96538 5.45564.02 4.62034.0409 4.90526.42562 5.79953.22252.51727.46541.94048.53976.94048.0743 0 .31558-.41936.53608-.93193zm-6.02285 4.8721c-2.68288-.53192-4.99292-2.9383-5.4238-5.65001-.0962-.60512-.12794-3.34933-.0735-6.31597v-5.24592s.002-.00096.87703 0c .29666.00037.79177.10713.79309.40377.016 3.58011 0 3.58672 0 3.58672 0 5.24052.19098 7.75523.59577 8.59604.4704.97712 1.48391 1.93285 2.58356 2.43629.83053.38024 1.16155.4335 2.25379.36264.70415-.0457 1.54659-.22129 1.87208-.39023l.59181-.30715-.3667-.59334c-.92286-1.49321-.95995-1.79717-.92123-7.54855.0319-4.75013.0729-5.44339.34899-5.91786 1.04264-1.79163 3.66892-1.79163 4.71181 0 .27585.47388.31713 1.163.34918 5.82819.0387 5.64492-.00096 5.96953-.91256 7.44442-.19678.31839-.35778.66266-.35778.76505 0 .29488 1.58879.75792 2.60054.75792 1.39797 0 2.50228-.45686 3.48875-1.44333 1.38586-1.38585 1.44292-1.69645 1.44577-7.86987.00095-2.917.0511-5.485.11059-5.70694.091-.3394.2311-.40377.88181-.40377h.83083v5.15625c.0315 2.83593-.00042 5.66456-.0712 6.28583-.25296 2.22178-2.09658 4.6233-4.13465 5.38584-2.00335.74955-3.73182.66788-5.66616-.26771l-.96203-.46531-1.0108.47097c-1.66859.77747-2.88118.9541-4.43506.64603z" fill="url(#d)" stroke-width=".179348"/><path d="m408.57143 501.798c-12.13985 0-22 9.86015-22 22 0 12.13984 9.86015 22 22 22 12.13984 0 22-9.86016 22-22 0-12.13985-9.86016-22-22-22zm0 1.75985c11.18865 0 20.23828 9.05149 20.23828 20.24015s-9.04963 20.23828-20.23828 20.23828c-11.18866 0-20.24015-9.04962-20.24015-20.23828s9.05149-20.24015 20.24015-20.24015z" fill="url(#b)"/></g></svg>