<svg height="48" width="48" xmlns="http://www.w3.org/2000/svg" xmlns:xlink="http://www.w3.org/1999/xlink"><linearGradient id="a" gradientUnits="userSpaceOnUse" x1="399.57144" x2="399.57144" y1="545.79797" y2="517.79797"><stop offset="0" stop-color="#3889e9"/><stop offset="1" stop-color="#5ea5fb"/></linearGradient><linearGradient gradientUnits="userSpaceOnUse" x1="-324.94363" x2="-328.20999" y1="649.7406" y2="307.75275"><stop offset="0" stop-color="#016ed4"/><stop offset="1" stop-color="#00b1ff"/></linearGradient><linearGradient id="b" gradientUnits="userSpaceOnUse" x1="-324.943628" x2="-328.209988" y1="649.740597" y2="307.752747"><stop offset="0" stop-color="#0bac83"/><stop offset="1" stop-color="#10da96"/></linearGradient><circle cx="400.57138" cy="531.79791" fill="url(#a)" r="0" transform="matrix(1.637466544097 0 0 1.637466544097 -644.580187175317 -848.719334054169)"/><g transform="matrix(.109541172909 0 0 .109541172909 59.30767747984 -25.209988678042)"><circle cx="-325.88733" cy="478.74667" fill="url(#b)" r="173.44701" transform="matrix(1.2631853 0 0 1.2631853 90.227386 -154.96066)"/><path d="m-284.08921 495.57931-10.99656 39.61305c-.12974.47483-.40651.89337-.77843 1.20958l-33.81221 28.17546c-.44111.36327-.98082.55528-1.5361.55528-.24217 0-.46705-.0346-.70058-.10725-.77842-.23958-1.37781-.85022-1.60442-1.62847l-11.61411-39.99775c-8.46321.34164-15.93178-1.59854-22.07788-5.82998l-15.39034 12.6687c-.97649.7992-2.39669.71789-3.27112-.20066l-11.4273-12.0489c-.4411-.46619-.67464-1.09421-.65734-1.74385 0-.64522.30273-1.25663.77843-1.69255l15.23639-14.00224c-1.30084-3.5561-3.63437-12.41649-1.16071-25.89726l-39.15654-14.32702c-.76113-.27764-1.33111-.92321-1.51448-1.71391-.19027-.79054 0-1.61991.60545-2.20978l30.31881-31.9196c.35462-.37192.81302-.62015 1.31814-.71356l39.93669-7.15503c7.51613-8.70644 16.26045-17.51553 25.99769-26.20068 56.07346-49.99932 99.90574-57.46209 121.04085-57.46209 6.95654 0 10.79158.84589 10.95332.88049.95141.21363 1.67621.98307 1.84314 1.94476.42381 2.48759 9.5461 61.76186-67.43241 138.89795-.1038.0986-10.42053 10.12126-24.89319 20.90505zm-3.63871-43.11794c13.39411 0 24.24882-10.87772 24.24882-24.29864 0-13.42093-10.85471-24.29873-24.24882-24.29873-13.39325 0-24.24883 10.8778-24.24883 24.29873 0 13.42092 10.85558 24.29864 24.24883 24.29864zm-91.27127 86.92402c.51895-.5129 1.27489-.71788 1.98758-.54316.70923.17557 1.28354.70057 1.5136 1.39337l5.51558 16.41709c.26813.78621.0865 1.65415-.5449 2.22681l-26.15597 25.05104c-.39787.38056-.92547.59419-1.47555.59419h-22.04847c-.8701 0-1.65026-.53019-1.97893-1.33361-.32001-.80784-.12973-1.73104.49301-2.33796l42.69319-41.46803zm-29.21-13.38676c.40651-.42294.96352-1.31217 1.54388-1.31217h.0864c.60545 0 1.16505.93178 1.55685 1.38915l9.48211 11.64282c.72653.84243.68328 2.09864-.0864 2.89359l-42.26246 43.27605c-.39786.40997-.95141.6409-1.52225.6409h-6.9868-2.13289c-1.17716 0-2.13289-.95737-2.13289-2.13712v-10.23232c0-.54749.21623-1.40195.58814-1.79946l41.89919-44.3617zm-41.84383 5.26579 30.5359-29.8252c.70923-.69713 1.80421-.80351 2.62762-.27332l12.50238 7.93285c.55354.35029.90817.92753.97649 1.57294.0865.64523-.15568 1.2908-.62274 1.74817l-43.03827 42.77596c-.40652.40564-.95574.62015-1.50583.62015-.27678 0-.55354-.0519-.82167-.16693-.78707-.32867-1.30516-1.10701-1.30516-1.97038v-20.88792c0-.57257.23352-1.12837.64004-1.52588z" fill="#fff" fill-opacity=".851852"/></g></svg>