<svg height="48" width="48" xmlns="http://www.w3.org/2000/svg" xmlns:xlink="http://www.w3.org/1999/xlink"><linearGradient id="a" gradientUnits="userSpaceOnUse" x1="-31.595109203581" x2="-31.595109203581" y1="47.412785259545" y2="5.742530699924"><stop offset="0" stop-color="#3889e9"/><stop offset="1" stop-color="#5ea5fb"/></linearGradient><linearGradient id="b" gradientUnits="userSpaceOnUse" x1="22.990993367782" x2="24.676190499749" y1="9.509896790305" y2="44.004454386882"><stop offset="0" stop-color="#0fc"/><stop offset="1" stop-color="#0a8"/></linearGradient><linearGradient id="c" gradientUnits="userSpaceOnUse" x1="23.943971194735" x2="24.180142151472" y1="14.186271316296" y2="2.371127305555"><stop offset="0" stop-color="#e6e6e6"/><stop offset="1" stop-color="#fff"/></linearGradient><linearGradient id="d" gradientUnits="userSpaceOnUse" x1="25.209412152407" x2="24.617684847522" y1="37.18252411981" y2="21.262253757511"><stop offset="0" stop-color="#dce2ff"/><stop offset="1" stop-color="#f8feff"/></linearGradient><g stroke-width=".956522"><circle cx="-30.106974" cy="26.577572" fill="url(#a)" r="0"/><path d="m3.9376403 2.8164972h40.1301337v8.7239368h-40.1301337z" fill="#ececec"/><path d="m3.9376403 2.8164972h40.1301337v8.7239368h-40.1301337z" fill="#00b792"/></g><path d="m7.4086589 5.518921-3.4710128-2.7767005v6.9417515h3.4710128z" fill="#3effd9" stroke-width=".388063"/><path d="m40.656557 5.5643986 3.412412-2.7329194v6.8322988h-3.412412z" fill="#3effd9" stroke-width=".381728"/><path d="m7.4213929 5.5066234-3.4842051 2.2418478v2.2530568l2.3913043 1.539402h10.4694289z" fill-opacity=".078431" stroke-width=".956522"/><path d="m45.812574 43.17978c0 1.557227-1.172062 2.82022-2.617182 2.82022h-38.3853498c-1.4451194 0-2.6171817-1.262993-2.6171817-2.82022v-34.3126433h43.6197135z" fill="url(#b)" stroke-width=".956522"/><path d="m40.659114 5.5525186v3.3157884h5.151834z" fill="#07dbb1" stroke-width=".344424"/><path d="m2.1874255 8.8757617 5.2343635-3.3689067v3.3689067z" fill="#07dbb1" stroke-width=".956522"/><circle cx="33.251011" cy="14.018857" opacity=".3" r="1.999484" stroke-width=".956522"/><circle cx="14.463857" cy="14.25849" opacity=".3" r="1.999484" stroke-width=".956522"/><path d="m14.237795 12.886193c-.04912-5.3000089 4.207746-9.6369486 9.508156-9.6860832 5.300409-.049115 9.636951 4.2077465 9.686083 9.5081642" style="clip-rule:evenodd;fill:none;stroke-width:2.399383;stroke-linecap:round;stroke-miterlimit:10;stroke:url(#c)"/><path d="m25.780768 37.317707c-2.182892-.715164-3.176728-2.980758-2.172351-4.952212.455673-.894423 1.056378-1.387714 2.038832-1.674255 1.280919-.373594 2.686253.142353 3.423913 1.257037.505002.763106.562971 1.988736.132201 2.795206-1.011186 1.893069-3.783849 1.852737-4.516504-.06569-.425168-1.113279.06702-2.274372 1.137385-2.683151 1.085491-.414549 2.225836.249608 2.352117 1.369915.05315.471725.0097.622722-.278172.964746-.621547.738672-1.640712.653336-2.015277-.16874-.198808-.436352-.05009-.519315.356914-.199149.430335.338507.748538.342816 1.07676.01457.337587-.337582.323059-.675076-.04759-1.105964-.689594-.80171-2.024939-.150378-2.050145.999976-.01421.649814.298927 1.15153.901856 1.444869 1.527909.74335 3.215982-.93363 2.594804-2.577735-.171189-.453073-.7084-1.026496-1.204064-1.285193-1.001433-.522684-2.535221-.03976-3.235734 1.018767-.292107.441412-.348899.665716-.348899 1.378052 0 .723802.0578.944309.387135 1.476987.240285.388664.624854.773003 1.013876 1.013292.546269.337419.742955.386497 1.531605.38213 1.867822-.01023 3.149135-1.208816 3.535882-3.307338.274001-1.48672-.268246-3.174878-1.360882-4.236798-.389651-.378697-.56661-.656752-.56661-.890293 0-.389804-.206885-.834457-.388245-.834457-.06962 0-.123413.475267-.123413 1.090434v1.090434l.575616.347688c.63133.381343.77814.797252.281414.797252-.161814 0-.358208-.064-.436439-.142234-.07823-.07823-.507067-.267863-.952967-.421406-.828553-.285313-1.076623-.613796-.522936-.69243.247595-.03516.287808-.117862.287808-.591759v-.550888l-.715305-.05932c-.805406-.06679-.942765-.197488-.945633-.899749-.0015-.263818-.05245-.479684-.114207-.479684-.286653 0-.45026.478652-.502257 1.469457-.05472 1.042614-.04908 1.067988.245963 1.109915.5824.08275.437379.463392-.30094.789912-.378042.16718-.900271.490925-1.160517.719421-.473202.41548-.856227.450792-.856227.07893 0-.10424.259029-.406044.575616-.670681.567479-.474352.575627-.492269.575627-1.266601 0-.977402-.323933-1.518382-1.181613-1.973381l-.600653-.318642-.555594.545278-.555604.545284-2.550639-.03481c-2.535726-.03455-2.550873-.0364-2.591495-.322568l-.0409-.287809h1.975926c1.600328 0 2.006203-.0365 2.135168-.191875.140544-.169343-.111088-.191875-2.143234-.191875-1.688481 0-2.337943-.04279-2.435459-.160219-.14561-.175452-.0078-1.169999.249515-1.801068.411861-.97019 1.100626-1.885279 1.925054-2.566378.700436-.578658 2.737473-1.24551 3.228782-1.056971.158132.06068.198674.298895.198674 1.167529 0 .600219.04606 1.091303.102327 1.091303.251086 0 .409331-.354138.409331-.916061 0-.607432.002-.609472.543642-.761051.843377-.235791 2.821481-.171419 3.970082.129205 3.159849.827014 5.467453 3.038266 6.245598 5.984796.353413 1.338252.382939 3.501545.06251 4.581163-.586739 1.976929-1.859082 3.551668-3.484059 4.312075-.679232.31785-1.06078.409663-1.827608.439755-.533041.02096-1.113441-.0093-1.289783-.067zm-3.958631-7.739255c-.110802-.291427-.201102-.326565-.927767-.36107-.72376-.03441-.809138-.06727-.845891-.326039-.0389-.274181.000127-.287809.826067-.287809.822511 0 .891055-.02362 1.337809-.459809.407188-.397604.507405-.440241.740911-.315284.368355.197135.340332.370594-.139976.866125-.250963.258941-.412213.558088-.415725.771238-.0077.472737-.408687.551213-.575428.112648z" fill="url(#d)" opacity=".85" stroke-width="1.317422"/></svg>