<svg viewBox="0 0 48 48" xmlns="http://www.w3.org/2000/svg"><path d="m27.294419 26.888018c-.149131-.04877-1.091751-.473655-.502731-2.264164h-.0084c1.535392-1.581351 2.708743-4.125957 2.708743-6.631169 0-3.852081-2.561488-5.871445-5.53848-5.871445-2.978867 0-5.526287 2.018426-5.526287 5.871445 0 2.51553 1.166786 5.070452 2.711558 6.648052.602151 1.579475-.474593 2.165681-.699697 2.247281-2.098885.678735-7.808602 4.062665-7.718267 8.990738h22.557776c.100676-4.707709-4.415616-7.764738-7.984174-8.990738zm18.705583-2.88802a22.000001 22.000003 0 0 1 -22 22.000003 22.000001 22.000003 0 0 1 -22.0000012-22.000003 22.000001 22.000003 0 0 1 22.0000012-22.000003 22.000001 22.000003 0 0 1 22 22.000003z" fill="#4d4d4d"/></svg>