<?xml version="1.0" encoding="UTF-8" standalone="no"?>
<!-- Created with Inkscape (http://www.inkscape.org/) -->

<svg
   xmlns:dc="http://purl.org/dc/elements/1.1/"
   xmlns:cc="http://creativecommons.org/ns#"
   xmlns:rdf="http://www.w3.org/1999/02/22-rdf-syntax-ns#"
   xmlns:svg="http://www.w3.org/2000/svg"
   xmlns="http://www.w3.org/2000/svg"
   xmlns:xlink="http://www.w3.org/1999/xlink"
   xmlns:sodipodi="http://sodipodi.sourceforge.net/DTD/sodipodi-0.dtd"
   xmlns:inkscape="http://www.inkscape.org/namespaces/inkscape"
   width="24"
   height="24"
   id="svg4375"
   version="1.1"
   inkscape:version="0.91 r13725"
   viewBox="0 0 24 24"
   sodipodi:docname="emblem-question.svg">
  <defs
     id="defs4377">
    <linearGradient
       id="linearGradient4237">
      <stop
         id="stop4239"
         style="stop-color:#ff594d;stop-opacity:1"
         offset="0" />
      <stop
         id="stop4241"
         style="stop-color:#ff7f76;stop-opacity:1"
         offset="1" />
    </linearGradient>
    <linearGradient
       inkscape:collect="always"
       id="linearGradient4157">
      <stop
         style="stop-color:#0055d4;stop-opacity:1;"
         offset="0"
         id="stop4159" />
      <stop
         style="stop-color:#3771c8;stop-opacity:1"
         offset="1"
         id="stop4161" />
    </linearGradient>
    <linearGradient
       inkscape:collect="always"
       xlink:href="#linearGradient4157"
       id="linearGradient4163"
       x1="757.59961"
       y1="726.43201"
       x2="727.20221"
       y2="696.11487"
       gradientUnits="userSpaceOnUse"
       gradientTransform="matrix(1.0693111,0,0,1.0693111,-51.496891,-49.30761)" />
    <clipPath
       id="clipPath6043"
       clipPathUnits="userSpaceOnUse">
      <rect
         transform="matrix(0.70825126,0.70596045,-0.70596045,0.70825126,0,0)"
         ry="2.0792313"
         rx="1.9360958"
         y="694.52728"
         x="726.11261"
         height="33.736721"
         width="33.736721"
         id="rect6045"
         style="opacity:1;fill:url(#linearGradient4163);fill-opacity:1;stroke:none;stroke-width:1.9604038;stroke-miterlimit:4;stroke-dasharray:none;stroke-opacity:1" />
    </clipPath>
  </defs>
  <sodipodi:namedview
     id="base"
     pagecolor="#ffffff"
     bordercolor="#666666"
     borderopacity="1.0"
     inkscape:pageopacity="0.0"
     inkscape:pageshadow="2"
     inkscape:zoom="19.79899"
     inkscape:cx="8.040912"
     inkscape:cy="13.391381"
     inkscape:current-layer="layer1"
     showgrid="true"
     inkscape:grid-bbox="true"
     inkscape:document-units="px"
     inkscape:window-width="1366"
     inkscape:window-height="712"
     inkscape:window-x="0"
     inkscape:window-y="28"
     inkscape:window-maximized="1" />
  <metadata
     id="metadata4380">
    <rdf:RDF>
      <cc:Work
         rdf:about="">
        <dc:format>image/svg+xml</dc:format>
        <dc:type
           rdf:resource="http://purl.org/dc/dcmitype/StillImage" />
        <dc:title></dc:title>
      </cc:Work>
    </rdf:RDF>
  </metadata>
  <g
     id="layer1"
     inkscape:label="Layer 1"
     inkscape:groupmode="layer"
     transform="translate(0,-24)">
    <path
       style="display:inline;opacity:1;fill:#9b59b6;fill-opacity:1;fill-rule:evenodd;stroke:none;stroke-width:1.50122643;stroke-linecap:round;stroke-linejoin:round;stroke-miterlimit:4;stroke-dasharray:none;stroke-dashoffset:0;stroke-opacity:1;enable-background:new"
       d="M 11.999999,25 C 5.9248678,25.000001 1,29.924869 1,36.000001 1.0000014,42.075132 5.9248678,47 11.999999,47 18.075132,47 23,42.075132 23,36.000001 23,29.924868 18.075132,25 11.999999,25 Z"
       id="path4803"
       inkscape:connector-curvature="0"
       sodipodi:nodetypes="sssss" />
    <path
       inkscape:connector-curvature="0"
       id="path5889"
       style="font-style:normal;font-variant:normal;font-weight:normal;font-stretch:normal;font-size:medium;line-height:125%;font-family:Roboto;-inkscape-font-specification:Roboto;letter-spacing:0px;word-spacing:0px;fill:#ffffff;fill-opacity:1;stroke:none;stroke-width:1px;stroke-linecap:butt;stroke-linejoin:miter;stroke-opacity:1"
       d="m 11.030798,38.462634 q 0.01527,-0.908708 0.206175,-1.435585 0.190903,-0.526879 0.778882,-1.168311 l 1.000327,-1.030886 q 0.641434,-0.725442 0.641434,-1.557763 0,-0.801778 -0.419986,-1.252321 -0.419986,-0.458165 -1.221775,-0.458165 -0.778882,0 -1.25232,0.412373 -0.473438,0.412324 -0.473438,1.107222 l -1.4126771,0 q 0.015272,-1.237073 0.8781506,-1.993008 0.8705145,-0.76361 2.2602845,-0.76361 1.443221,0 2.245011,0.778856 0.809427,0.771234 0.809427,2.12286 0,1.33628 -1.237048,2.634442 l -0.832335,0.824698 q -0.557435,0.618512 -0.557435,1.779198 l -1.412677,0 z m -0.06109,2.42063 q 0,-0.343611 0.206176,-0.572668 0.21381,-0.236733 0.626158,-0.236733 0.41235,0 0.626161,0.236733 0.213811,0.229057 0.213811,0.572668 0,0.343663 -0.213811,0.572721 -0.213811,0.221434 -0.626161,0.221434 -0.412348,0 -0.626158,-0.221434 -0.206176,-0.229058 -0.206176,-0.572721 z" />
  </g>
</svg>
