<svg enable-background="new" height="16" width="16" xmlns="http://www.w3.org/2000/svg"><path d="m8.249999.00000088c-4.2802065.00000039-7.74999918 3.46979352-7.749999 7.75000002.00000033 4.2802061 3.4697929 7.7499991 7.749999 7.7499991 4.280207 0 7.75-3.469793 7.75-7.7499991 0-4.2802069-3.469793-7.75000019-7.75-7.75000002z" fill="#4d4d4d" fill-rule="evenodd"/><path d="m309.79529 128.34119v1.43176h-1.43177c-1.71811 0-2.86352 1.21786-2.86352 3.0067 0 1.86129 2.29082 2.72035 2.29082 2.72035s-1.07388-1.5191-.82326-2.29082c.20955-.64521.90063-1.14541 1.68232-1.14541h1.14541v1.43176l3.70471-2.57717z" fill="#fff" transform="matrix(1.25 0 0 1.25 -378.375 -156.875)"/></svg>