<svg height="24" viewBox="0 0 24 24" width="24" xmlns="http://www.w3.org/2000/svg"><g transform="translate(0 -24)"><path d="m11.999999 25c-6.0751312.000001-10.999999 4.924869-10.999999 11.000001.0000014 6.075131 4.9248678 10.999999 10.999999 10.999999 6.075133 0 11.000001-4.924868 11.000001-10.999999 0-6.075133-4.924868-11.000001-11.000001-11.000001z" fill="#9b59b6" fill-rule="evenodd"/><path d="m11.030798 38.462634q.01527-.908708.206175-1.435585.190903-.526879.778882-1.168311l1.000327-1.030886q.641434-.725442.641434-1.557763 0-.801778-.419986-1.252321-.419986-.458165-1.221775-.458165-.778882 0-1.25232.412373-.473438.412324-.473438 1.107222h-1.4126771q.015272-1.237073.8781506-1.993008.8705145-.76361 2.2602845-.76361 1.443221 0 2.245011.778856.809427.771234.809427 2.12286 0 1.33628-1.237048 2.634442l-.832335.824698q-.557435.618512-.557435 1.779198zm-.06109 2.42063q0-.343611.206176-.572668.21381-.236733.626158-.236733.41235 0 .626161.236733.213811.229057.213811.572668 0 .343663-.213811.572721-.213811.221434-.626161.221434-.412348 0-.626158-.221434-.206176-.229058-.206176-.572721z" fill="#fff"/></g></svg>