<svg height="24" viewBox="0 0 24 24" width="24" xmlns="http://www.w3.org/2000/svg"><g transform=""><path d="m12 1a11 11 0 0 0 -11 11 11 11 0 0 0 11 11 11 11 0 0 0 11-11 11 11 0 0 0 -11-11z" fill="#3daee9"/><path d="m12 2.5714286v1.5714285a7.8571429 7.8571429 0 0 0 -7.8571429 7.8571429 7.8571429 7.8571429 0 0 0 7.8571429 7.857143 7.8571429 7.8571429 0 0 0 7.857143-7.857143h-3.142857a4.7142857 4.7142857 0 0 1 -4.714286 4.714286 4.7142857 4.7142857 0 0 1 -4.7142857-4.714286 4.7142857 4.7142857 0 0 1 4.7142857-4.7142857v1.5714286l4.714286-3.1428572z" fill="#fff"/></g></svg>