<?xml version="1.0" encoding="UTF-8" standalone="no"?>
<!-- Created with Inkscape (http://www.inkscape.org/) -->

<svg
   xmlns:dc="http://purl.org/dc/elements/1.1/"
   xmlns:cc="http://creativecommons.org/ns#"
   xmlns:rdf="http://www.w3.org/1999/02/22-rdf-syntax-ns#"
   xmlns:svg="http://www.w3.org/2000/svg"
   xmlns="http://www.w3.org/2000/svg"
   xmlns:xlink="http://www.w3.org/1999/xlink"
   xmlns:sodipodi="http://sodipodi.sourceforge.net/DTD/sodipodi-0.dtd"
   xmlns:inkscape="http://www.inkscape.org/namespaces/inkscape"
   version="1.0"
   width="24"
   height="24"
   id="svg2404"
   inkscape:version="0.91 r13725"
   sodipodi:docname="gpm-mouse-100.svg">
  <sodipodi:namedview
     pagecolor="#545454"
     bordercolor="#666666"
     borderopacity="1"
     objecttolerance="10"
     gridtolerance="10"
     guidetolerance="10"
     inkscape:pageopacity="0"
     inkscape:pageshadow="2"
     inkscape:window-width="1366"
     inkscape:window-height="633"
     id="namedview7"
     showgrid="false"
     inkscape:zoom="9.8333333"
     inkscape:cx="-7.7796611"
     inkscape:cy="12.101694"
     inkscape:window-x="0"
     inkscape:window-y="33"
     inkscape:window-maximized="1"
     inkscape:current-layer="svg2404" />
  <metadata
     id="metadata16">
    <rdf:RDF>
      <cc:Work
         rdf:about="">
        <dc:format>image/svg+xml</dc:format>
        <dc:type
           rdf:resource="http://purl.org/dc/dcmitype/StillImage" />
        <dc:title></dc:title>
      </cc:Work>
    </rdf:RDF>
  </metadata>
  <defs
     id="defs2406">
    <linearGradient
       gradientTransform="translate(-1.0001235,-5)"
       gradientUnits="userSpaceOnUse"
       xlink:href="#linearGradient3587-6-5-3"
       id="linearGradient2398"
       y2="21"
       x2="14"
       y1="3"
       x1="14" />
    <linearGradient
       id="linearGradient3587-6-5-3">
      <stop
         offset="0"
         style="stop-color:#000000;stop-opacity:1"
         id="stop3589-9-2-0" />
      <stop
         offset="1"
         style="stop-color:#363636;stop-opacity:1"
         id="stop3591-7-4-7" />
    </linearGradient>
    <linearGradient
       gradientTransform="translate(-52.096803,-11.363826)"
       gradientUnits="userSpaceOnUse"
       xlink:href="#linearGradient3587-6-5-3"
       id="linearGradient2395"
       y2="27.363825"
       x2="66.09668"
       y1="9.3638258"
       x1="66.09668" />
    <linearGradient
       gradientUnits="userSpaceOnUse"
       xlink:href="#linearGradient3587-6-5-3"
       id="linearGradient7390"
       y2="13.496136"
       x2="4.9554448"
       y1="2.6841583"
       x1="4.9554448" />
    <linearGradient
       gradientUnits="userSpaceOnUse"
       xlink:href="#linearGradient3587-6-5-3"
       id="linearGradient7392"
       y2="11.649005"
       x2="7.9109159"
       y1="4.5762329"
       x1="7.9109159" />
    <linearGradient
       gradientUnits="userSpaceOnUse"
       xlink:href="#linearGradient3587-6-5-3"
       id="linearGradient7394"
       y2="13.317288"
       x2="10.186814"
       y1="2.7742527"
       x1="10.186814" />
    <linearGradient
       gradientUnits="userSpaceOnUse"
       xlink:href="#linearGradient3587-6-5-3"
       id="linearGradient7396"
       y2="15.183488"
       x2="13.917011"
       y1="0.88217813"
       x1="13.917011" />
    <linearGradient
       id="linearGradient5263">
      <stop
         offset="0"
         style="stop-color:#a0d5ff;stop-opacity:1"
         id="stop5265" />
      <stop
         offset="1"
         style="stop-color:#a0d5ff;stop-opacity:1"
         id="stop5267" />
    </linearGradient>
  </defs>
  <path
     id="path6686-8-1-8-7"
     style="color:#7b7c7e;fill:#ffffff;fill-opacity:1;fill-rule:evenodd;stroke:none"
     d="m 11.983194,4.0001552 c -1.049681,0.023946 -2.2319395,0.0856 -3.2243257,0.7460026 -0.026726,0.016367 -0.051167,0.035953 -0.072728,0.058281 -1.0309357,1.1573107 -0.8437478,2.692442 -1.0060877,3.8698875 -0.00433,0.00763 -0.00837,0.015403 -0.012104,0.023313 -0.186452,3.0175137 -0.1761424,6.0772087 0.3030367,9.0919017 l 0,0.01164 c 0.1558608,0.798159 0.6726423,1.645339 1.6242853,1.865007 0.00926,0.0022 0.014888,0.0096 0.02424,0.01164 l 0,-0.01164 c 1.4439084,0.425688 3.0031134,0.425803 4.4486014,0.104906 0.748669,-0.166452 1.524373,-0.612419 1.793986,-1.422067 0.0012,-0.0033 -0.0012,-0.0082 0,-0.01164 0.351901,-0.967293 0.345087,-1.963073 0.448497,-2.867448 0.0041,-0.0038 0.0082,-0.0077 0.0121,-0.01164 0.192692,-2.901016 0.179507,-5.8298031 -0.206066,-8.7305555 -0.05338,-0.411379 -0.139966,-0.8641841 -0.351524,-1.2821917 -0.209267,-0.4134756 -0.551528,-0.7874839 -1.054573,-0.9907847 -0.0023,-7.703e-4 0.0023,-0.010744 0,-0.011638 -0.0035,-0.00148 -0.0085,0.00148 -0.0121,0 -0.879492,-0.3796407 -1.840269,-0.4104098 -2.690984,-0.4429389 -0.0081,-2.534e-4 -0.01616,-2.534e-4 -0.02424,0 z"
     inkscape:connector-curvature="0"
     sodipodi:nodetypes="ccccccccccccccccscccccc" />
</svg>
