<?xml version="1.0" encoding="UTF-8" standalone="no"?>
<!-- Created with Inkscape (http://www.inkscape.org/) -->

<svg
   xmlns:dc="http://purl.org/dc/elements/1.1/"
   xmlns:cc="http://creativecommons.org/ns#"
   xmlns:rdf="http://www.w3.org/1999/02/22-rdf-syntax-ns#"
   xmlns:svg="http://www.w3.org/2000/svg"
   xmlns="http://www.w3.org/2000/svg"
   xmlns:sodipodi="http://sodipodi.sourceforge.net/DTD/sodipodi-0.dtd"
   xmlns:inkscape="http://www.inkscape.org/namespaces/inkscape"
   version="1.0"
   width="24"
   height="24"
   id="svg3205"
   inkscape:version="0.91 r13725"
   sodipodi:docname="gpm-mouse-000.svg">
  <sodipodi:namedview
     pagecolor="#ffffff"
     bordercolor="#666666"
     borderopacity="1"
     objecttolerance="10"
     gridtolerance="10"
     guidetolerance="10"
     inkscape:pageopacity="0"
     inkscape:pageshadow="2"
     inkscape:window-width="1366"
     inkscape:window-height="633"
     id="namedview8"
     showgrid="false"
     inkscape:zoom="9.8333333"
     inkscape:cx="12"
     inkscape:cy="12.050847"
     inkscape:window-x="0"
     inkscape:window-y="33"
     inkscape:window-maximized="1"
     inkscape:current-layer="svg3205" />
  <metadata
     id="metadata13">
    <rdf:RDF>
      <cc:Work
         rdf:about="">
        <dc:format>image/svg+xml</dc:format>
        <dc:type
           rdf:resource="http://purl.org/dc/dcmitype/StillImage" />
        <dc:title />
      </cc:Work>
    </rdf:RDF>
  </metadata>
  <defs
     id="defs3207" />
  <path
     id="path6686-8-1-8-7"
     style="color:#7b7c7e;fill:#d33636;fill-opacity:1;fill-rule:evenodd;stroke:none"
     d="m 12.490583,8.666709 -2.424171,3.63629 1.212052,0 0,3.030298 2.424171,-3.636402 -1.212052,0 z M 11.983192,4.000158 c -1.049681,0.023946 -2.2319402,0.0856 -3.2243262,0.7460026 a 0.37179013,0.35752043 0 0 0 -0.07273,0.058281 C 7.6552008,5.961752 7.8423878,7.496884 7.6800488,8.674329 a 0.37179013,0.35752043 0 0 0 -0.0121,0.02331 c -0.186452,3.017514 -0.176143,6.077209 0.303036,9.091902 a 0.37179013,0.35752043 0 0 0 0,0.01164 c 0.155861,0.798159 0.672643,1.645339 1.624286,1.865007 0.0093,0.0022 0.01489,0.0096 0.02424,0.01164 l 0,-0.01164 c 1.4439082,0.425688 3.0031132,0.425803 4.4486012,0.104906 0.748669,-0.166452 1.524373,-0.612419 1.793986,-1.422067 0.0012,-0.0033 -0.0012,-0.0082 0,-0.01164 0.351901,-0.967293 0.345087,-1.963073 0.448497,-2.867448 a 0.37179013,0.35752043 0 0 0 0.0121,-0.01164 C 16.515387,12.557283 16.502202,9.628496 16.116629,6.727743 16.063249,6.316364 15.976663,5.863559 15.765105,5.445552 15.555838,5.032076 15.213577,4.6580677 14.710532,4.4547669 c -0.0023,-7.703e-4 0.0023,-0.010744 0,-0.011638 -0.0035,-0.00148 -0.0085,0.00148 -0.0121,0 C 13.818939,4.0634882 12.858162,4.0327191 12.007448,4.00019 a 0.37179013,0.35752043 0 0 0 -0.02424,0 z"
     inkscape:connector-curvature="0" />
</svg>
