<?xml version="1.0" encoding="UTF-8" standalone="no"?>
<!-- Created with Inkscape (http://www.inkscape.org/) -->

<svg
   xmlns:dc="http://purl.org/dc/elements/1.1/"
   xmlns:cc="http://creativecommons.org/ns#"
   xmlns:rdf="http://www.w3.org/1999/02/22-rdf-syntax-ns#"
   xmlns:svg="http://www.w3.org/2000/svg"
   xmlns="http://www.w3.org/2000/svg"
   xmlns:sodipodi="http://sodipodi.sourceforge.net/DTD/sodipodi-0.dtd"
   xmlns:inkscape="http://www.inkscape.org/namespaces/inkscape"
   version="1.1"
   width="24"
   height="24"
   id="svg3004"
   inkscape:version="0.91 r13725"
   sodipodi:docname="gpm-ups-040.svg">
  <sodipodi:namedview
     pagecolor="#5f5f5f"
     bordercolor="#666666"
     borderopacity="1"
     objecttolerance="10"
     gridtolerance="10"
     guidetolerance="10"
     inkscape:pageopacity="0"
     inkscape:pageshadow="2"
     inkscape:window-width="1366"
     inkscape:window-height="633"
     id="namedview8"
     showgrid="false"
     inkscape:zoom="9.8333333"
     inkscape:cx="12"
     inkscape:cy="12"
     inkscape:window-x="0"
     inkscape:window-y="33"
     inkscape:window-maximized="1"
     inkscape:current-layer="svg3004" />
  <defs
     id="defs3006" />
  <metadata
     id="metadata3009">
    <rdf:RDF>
      <cc:Work
         rdf:about="">
        <dc:format>image/svg+xml</dc:format>
        <dc:type
           rdf:resource="http://purl.org/dc/dcmitype/StillImage" />
        <dc:title></dc:title>
      </cc:Work>
    </rdf:RDF>
  </metadata>
  <path
     d="m 20.224294,9.1708348 -0.609554,0 0,-1.6579442 c 0,-0.4275455 -0.347565,-0.7763821 -0.777018,-0.7763821 l -15.06134,0 C 3.347571,6.7365085 3,7.0853451 3,7.5128906 l 0,8.9742184 c 0,0.429457 0.347571,0.776382 0.776382,0.776382 l 15.06134,0 c 0.42942,0 0.776375,-0.347572 0.776375,-0.776382 l 0,-1.592471 0.60952,0 c 0.429434,0 0.776382,-0.34569 0.776382,-0.776382 l 0,-4.1703917 c 6.7e-4,-0.4294279 -0.346277,-0.7770295 -0.775705,-0.7770295 z m -2.162968,6.5398642 -8.4682943,0 0,-7.4207794 8.4682673,0 0,1.6579447 0,4.1703617 0,1.592473 z"
     id="path7-4-0-7-3-8"
     inkscape:connector-curvature="0"
     sodipodi:nodetypes="scsssssssscsscscccccccc"
     style="fill:#ffffff;fill-opacity:1" />
</svg>
