<svg height="64" width="64" xmlns="http://www.w3.org/2000/svg" xmlns:xlink="http://www.w3.org/1999/xlink"><linearGradient id="a" gradientUnits="userSpaceOnUse" x1="407.571438" x2="407.571438" y1="540.797966" y2="504.797966"><stop offset="0" stop-color="#63984b"/><stop offset="1" stop-color="#8fc278"/></linearGradient><linearGradient id="b" gradientUnits="userSpaceOnUse" x1="408.57144" x2="408.57144" y1="535.79797" y2="511.79797"><stop offset="0" stop-color="#2a2c2f"/><stop offset="1" stop-color="#424649"/></linearGradient><g transform="translate(-376.57144 -491.79797)"><rect fill="url(#a)" fill-rule="evenodd" height="38" ry="1.5" width="58" x="379.57144" y="504.79797"/><rect fill="url(#b)" fill-rule="evenodd" height="26" ry=".999996" width="26" x="395.57144" y="510.79797"/><path d="m399.48055 515.61616v3.63634h-1.81819v3.63638h-1.81818v1.81818h1.81818v3.63638h1.81819v1.81816h1.81816v-3.63635h1.81818v-1.81819h3.63637v1.81819h1.81819v1.81819h1.81817v1.81816h1.81818v3.63637h1.81818v-1.81819h1.81819v-3.63634h1.81819v-1.81819h1.81816v-1.81819h1.81818v-1.81818h-1.81818v-1.81819h-1.81816v-1.81819h-1.81819v-3.63634h-1.81819v-1.81819h-1.81818v3.63637h-1.81818v1.81816h-1.81817v1.81819h-1.81819v1.81819h-3.63637v-1.81819h-1.81818v-5.45453z" fill="#e0e0e0"/><path d="m379.57144 540.6958h58v1.002175h-58z" fill="#e6ed6e"/></g></svg>