<svg height="64" width="64" xmlns="http://www.w3.org/2000/svg" xmlns:xlink="http://www.w3.org/1999/xlink"><linearGradient id="a" gradientUnits="userSpaceOnUse" x1="17.38679" x2="17.38679" y1="1045.86888" y2="1006.86891"><stop offset="0" stop-color="#ff9300"/><stop offset="1" stop-color="#ffd702"/></linearGradient><circle cx="17.386787" cy="1026.8689" fill="url(#a)" r="20.000006" transform="matrix(1.299999581019 0 0 1.299999581019 9.397183852941 -1302.929135736781)"/><g fill-opacity=".83871" transform="matrix(.14732327 0 0 .14732327 14.11612 16)"><path d="m154.618 140.328-26.45-.039v-32.041c0-7.911-5.363-14.348-12.5-14.348-7.138 0-12.5 6.437-12.5 14.348v48.518c-3-3.409-6.196-5.447-10.211-5.447-2.217 0-4.443.643-6.396 1.861-6.156 3.861-8.385 12.313-5.032 19.288 5.485 10.915 23.475 46.737 24.697 48.569 4.064 6.153 10.23 9.748 16.928 9.748h35.335c13.545 0 20.68-7.112 20.68-19.284v-44.628c0-.226.305-.448.291-.67.017-.349-.013-.708-.013-1.079 0-13.672-11.162-24.796-24.829-24.796z"/><path d="m139.169 129.785h15.838c2.387 0 4.719.154 6.976.605 5.142-8.324 8.114-18.167 8.114-28.649 0-30.103-24.491-54.615-54.594-54.615s-54.594 24.48-54.594 54.583c0 17.039 7.757 32.272 20.026 42.292 3.469-2.123 7.235-3.292 11.235-3.391v-20.25c-4-5.108-6.512-11.6-6.512-18.662 0-16.406 13.393-29.754 29.799-29.754s29.526 13.347 29.526 29.754c0 6.459-1.813 12.439-5.813 17.322v10.765z"/><path d="m217.025 101.698c0-56.076-45.534-101.698-101.611-101.698-56.076 0-101.654 45.622-101.654 101.698 0 44.228 28.404 81.945 67.908 95.912l-9.851-20.56c-2.132-4.436-2.889-9.259-2.439-13.906-18.655-14.036-30.738-36.356-30.738-61.446 0-42.38 34.48-76.858 76.86-76.858s76.859 34.478 76.859 76.858c0 14.485-4.029 28.046-11.024 39.623 5.703 6.303 9.182 14.654 9.182 23.803 0 .336-.18.672-.189 1.006.008.219-.16.469-.16.743v3.417c17.001-18.097 26.857-42.184 26.857-68.592z"/></g></svg>