<svg height="64" width="64" xmlns="http://www.w3.org/2000/svg" xmlns:xlink="http://www.w3.org/1999/xlink"><linearGradient id="a"><stop offset="0" stop-color="#1e1e1e"/><stop offset="1" stop-color="#6b6969"/></linearGradient><linearGradient id="b" gradientTransform="matrix(1.0833321 0 0 1.3356131 -34.047105 -170.45106)" gradientUnits="userSpaceOnUse" x1="391.57144" x2="391.57144" y1="531.79797" y2="501.69922"><stop offset="0" stop-color="#bfc1c1"/><stop offset="1" stop-color="#f1f2f3"/></linearGradient><linearGradient id="c" gradientUnits="userSpaceOnUse" x1="414.079592" x2="414.204902" y1="533.588849" y2="514.004379"><stop offset="0" stop-color="#08f"/><stop offset="1" stop-color="#02c3ff"/></linearGradient><linearGradient id="d" gradientTransform="matrix(-1 0 0 -1 823.84266 1043.6233)" gradientUnits="userSpaceOnUse" x1="408.52423" x2="409.26617" xlink:href="#a" y1="506.48495" y2="533.19501"/><linearGradient id="e" gradientUnits="userSpaceOnUse" x1="407.204555302461" x2="424.071191705281" y1="515.758662045879" y2="532.625306305848"><stop offset="0" stop-color="#18222a"/><stop offset="1" stop-color="#566069"/></linearGradient><linearGradient id="f" gradientUnits="userSpaceOnUse" x1="390.562266" x2="390.562266" xlink:href="#a" y1="509.103782" y2="504.103782"/><g transform="matrix(1.153846157715 0 0 1.156399635461 -439.428591850343 -572.756003475464)"><rect fill="url(#f)" height="3.000011" ry="1" width="5.999985" x="386.56226" y="506.10376"/><rect fill="url(#b)" height="32.054688" ry="1.5" width="52" x="382.57144" y="507.77063"/><path d="m401.27124 523.8253a13.999973 13.999973 0 0 1 13.99997-13.99997 13.999973 13.999973 0 0 1 13.99997 13.99997 13.999973 13.999973 0 0 1 -13.99997 13.99998 13.999973 13.999973 0 0 1 -13.99997-13.99998z" fill="url(#d)"/><circle cx="415.27127" cy="523.82532" fill="url(#e)" r="10.999989"/><circle cx="415.27127" cy="523.82532" fill="url(#c)" r="9.999989"/></g></svg>