<svg height="64" width="64" xmlns="http://www.w3.org/2000/svg" xmlns:xlink="http://www.w3.org/1999/xlink"><linearGradient id="a"><stop offset="0" stop-color="#c1c3c3"/><stop offset="1" stop-color="#e6e7e8"/></linearGradient><linearGradient id="b"><stop offset="0" stop-color="#141414"/><stop offset="1" stop-color="#2d2d2f"/></linearGradient><linearGradient id="c" gradientTransform="matrix(1.1939599 0 0 .69532731 -79.246451 166.00503)" gradientUnits="userSpaceOnUse" x1="409.06189" x2="409.17279" xlink:href="#a" y1="544.83264" y2="540.72473"/><linearGradient id="d" gradientTransform="matrix(1.0741978 0 0 .95636635 -30.315117 21.385098)" gradientUnits="userSpaceOnUse" x1="408.70813" x2="408.78354" xlink:href="#b" y1="538.93011" y2="503.87836"/><linearGradient id="e" gradientTransform="matrix(1.0741978 0 0 .95636635 -30.315117 21.385098)" gradientUnits="userSpaceOnUse" x1="408.33063" x2="407.33252" y1="534.90588" y2="506.0513"><stop offset="0" stop-color="#08f"/><stop offset="1" stop-color="#02c3ff"/></linearGradient><linearGradient id="f" gradientTransform="matrix(.9352708 0 0 1 27.228417 4.401296)" gradientUnits="userSpaceOnUse" x1="406.56601" x2="406.82758" xlink:href="#a" y1="547.64539" y2="530.64264"/><linearGradient id="g" gradientUnits="userSpaceOnUse" x1="408.45584" x2="408.55862" xlink:href="#b" y1="544.017" y2="525.809"/><g transform="translate(-376.57144 -491.79797)"><g fill-rule="evenodd"><rect fill="url(#d)" height="33.603188" ry=".916155" width="55.858288" x="380.6423" y="503.07016"/><path d="m381.55859 502.87131c-.61403 0-1.11523.5012-1.11523 1.11524v31.77148c0 .61404.5012 1.11328 1.11523 1.11328h54.02539c.61404 0 1.11524-.49924 1.11524-1.11328v-31.77148c0-.61404-.5012-1.11524-1.11524-1.11524zm0 .39649h54.02539c.40107 0 .71875.31768.71875.71875v31.77148c0 .40107-.31768.7168-.71875.7168h-54.02539c-.40106 0-.71875-.31573-.71875-.7168v-31.77148c0-.40107.31769-.71875.71875-.71875z" fill="#c3c5ca"/><rect fill="url(#e)" height="28.839331" ry=".478183" width="51.381828" x="382.88052" y="505.0874"/></g><path d="m380.73269 535.73487 55.67475-.0109c.35105-.00007.82182.83998.94142 1.17l2.01424 5.55817c.1196.33003-.20056.91877-.55159.91877h-60.46574c-.35102 0-.67158-.65284-.54767-.98127l2.07334-5.49567c.1239-.32843.45553-1.15902.86125-1.1591z" fill="url(#f)"/><path d="m382.08035 536.17346 53.74602-.0393c.33318-.00024.5305.61663.61224.8585l1.36453 4.03787c.0817.24188-.2682.43953-.60135.43953h-57.38681c-.33314 0-.69231-.20031-.60135-.43953l1.56497-4.11599c.091-.23923.26141-.66752.6455-.6947z" fill="url(#g)"/><path d="m377.71216 543.3709c0 .74728.98687 1.35307 2.20424 1.35307h57.31008c1.21737 0 2.20424-.60579 2.20424-1.35307.0136-1.33712-.005-1.39931-2.20424-1.35307h-57.31008c-2.17074-.0326-2.18883-.0326-2.20424 1.35307z" fill="url(#c)"/><circle cx="435.84473" cy="543.37885" fill="#151515" fill-rule="evenodd" r=".59056"/><path d="m381.55777 503.06967c-.50755 0-.91602.40847-.91602.91602v31.77148c0 .25377.10199.48285.26758.64844l8.31836 8.31836h47.99805c1.21737 0 2.20507-.60624 2.20507-1.35352.002-.15126-.0113-.23319-.0137-.35351.043-.087.063-.17981.0273-.2793l-.041-.11719c-.0196-.12347-.057-.22512-.11133-.30468l-1.94336-5.42188c-.0897-.25012-.38092-.79048-.66992-1.03906.003-.0338.0195-.0631.0195-.0977v-31.77148c0-.0816-.0301-.15376-.0469-.23047l-.41797-.41797c-.16558-.16547-.39478-.26758-.64844-.26758h-54.02734z" fill-opacity=".078431" fill-rule="evenodd"/></g></svg>