<svg height="64" width="64" xmlns="http://www.w3.org/2000/svg" xmlns:xlink="http://www.w3.org/1999/xlink"><linearGradient gradientUnits="userSpaceOnUse" x1="0" x2="47" y1="23.5" y2="23.5"><stop offset="0" stop-color="#a9a3d4"/><stop offset=".47001833" stop-color="#87baff"/><stop offset="1" stop-color="#89ec85"/></linearGradient><linearGradient id="a" gradientUnits="userSpaceOnUse" x1="359.88744" x2="1410.32123" y1="663.33796" y2="658.78589"><stop offset="0" stop-color="#4e4e4f"/><stop offset=".49668527" stop-color="#3f3f40"/><stop offset="1" stop-color="#5a5a5c"/></linearGradient><linearGradient id="b" gradientUnits="userSpaceOnUse" x1="366.95877" x2="363.04605" y1="907.84692" y2="278.17999"><stop offset="0" stop-color="#363636"/><stop offset="1" stop-color="#656567"/></linearGradient><g transform="matrix(.076618780089 0 0 .076618780089 -32.213489332426 1.499508036587)"><path d="m471.41309 628.76803 733.45131 3.41252c.822 36.55995 6.6204 94.54093-43.7882 93.01h-651.37457c-41.61051.37255-36.21824-41.01776-38.28854-96.42252z" fill="url(#a)" fill-rule="evenodd"/><path d="m53.254934 905.86066h642.657186s47.69318 1.9433 45.53266-44.606l-1.56578-31.21762-25.25264-503.50651s-3.45098-40.70705-45.03232-40.55073l-591.402216 2.29098c-44.03423-2.70255-47.63443 40.00832-47.63443 40.00832l-23.859394 507.05104-1.2196859 25.92452c-4.21478 55.6147 47.7766199 44.606 47.7766199 44.606z" fill="url(#b)" fill-rule="evenodd" transform="translate(464.71509 -212.42274)"/></g><path d="m64 48h-8v-16h8c8.836 0 16-7.164 16-16s-7.164-16-16-16c-8.837 0-16 7.164-16 16v8h-16v-8c0-8.836-7.164-16-16-16s-16 7.164-16 16 7.164 16 16 16h8v16h-8c-8.836 0-16 7.164-16 16s7.164 16 16 16c8.837 0 16-7.164 16-16v-8h16v7.98c0 .008-.001.014-.001.02 0 8.836 7.164 16 16 16s16-7.164 16-16-7.163-15.998-15.999-16zm0-40c4.418 0 8 3.582 8 8s-3.582 8-8 8h-8v-8c0-4.418 3.582-8 8-8zm-56 8c0-4.418 3.582-8 8-8s8 3.582 8 8v8h-8c-4.418 0-8-3.583-8-8zm8 56c-4.418 0-8-3.582-8-8s3.582-8 8-8h8v8c0 4.418-3.582 8-8 8zm16-24v-16h16v16zm32 24c-4.418 0-8-3.582-8-8v-8h7.999c4.418 0 8 3.582 8 8s-3.581 8-7.999 8z" fill="#fbfbff" opacity=".851" transform="matrix(.328487610922 -.002150751332 .002369089425 .29821365297 18.289234219312 18.704193376691)"/></svg>