<svg height="64" width="64" xmlns="http://www.w3.org/2000/svg" xmlns:xlink="http://www.w3.org/1999/xlink"><linearGradient id="a" gradientTransform="matrix(1.1198524 0 0 .96721571 401.28468 499.06919)" gradientUnits="userSpaceOnUse" x1="18.601307" x2="18.601307" y1=".854461" y2="49.956139"><stop offset="0" stop-color="#f4f4f4"/><stop offset="1" stop-color="#dbdbdb"/></linearGradient><g transform="matrix(1.1182791 0 0 1.1182791 -425.052893 -554.031924)"><path d="m407.43751 501.29998c-2.92556.0325-6.07094.29913-8.21431 2.30848-3.28288 3.07759-2.86835 5.20637-3.1908 9.41858-.65823 8.59862-.40341 20.38298 1.34488 28.84934.51282 2.48341 2.85521 4.23097 5.33997 4.70929 1.90705.36711 3.87931.6452 5.85418.71233 1.97487-.0671 3.94713-.34522 5.85418-.71233 2.48476-.47832 4.82715-2.22588 5.33997-4.70929 1.7483-8.46636 2.00311-20.25072 1.34488-28.84934-.32245-4.21221.0921-6.34099-3.1908-9.41858-2.14338-2.00935-5.28875-2.27599-8.21431-2.30848-.38237-.004-.76171-.00049-1.13392 0-.37221-.00049-.75155-.004-1.13392 0z" fill-opacity=".666667"/><path d="m407.43453 500.46125c-2.94711.0327-6.11565.30134-8.2748 2.32548-3.30706 3.10026-2.88948 5.24471-3.2143 9.48794-.66308 8.66194-.40638 20.53308 1.35478 29.06179.5166 2.50169 2.87624 4.26212 5.3793 4.74396 1.92109.36982 3.90787.64996 5.89729.71758 1.98941-.0676 3.97619-.34776 5.89729-.71758 2.50305-.48184 4.86269-2.24227 5.37929-4.74396 1.76117-8.52871 2.01786-20.39985 1.35478-29.06179-.32482-4.24323.0928-6.38768-3.21429-9.48794-2.15917-2.02414-5.3277-2.29274-8.2748-2.32548-.38519-.004-.76732-.00049-1.14227 0-.37496-.00049-.75709-.004-1.14227 0z" fill="url(#a)"/><path d="m408.57143 506.798c.554 0 1 .54953 1 1.23214v3.53572c0 .6826-.446 1.23214-1 1.23214s-1-.54954-1-1.23214v-3.53572c0-.68261.446-1.23214 1-1.23214z" fill="#808080" fill-opacity=".784314"/><path d="m408.57143 507.798c.554 0 1 .54953 1 1.23214v3.53572c0 .6826-.446 1.23214-1 1.23214s-1-.54954-1-1.23214v-3.53572c0-.68261.446-1.23214 1-1.23214z" fill="#808080" fill-opacity=".784314"/></g></svg>