<?xml version="1.0" encoding="UTF-8" standalone="no"?>
<!-- Created with Inkscape (http://www.inkscape.org/) -->

<svg
   xmlns:osb="http://www.openswatchbook.org/uri/2009/osb"
   xmlns:dc="http://purl.org/dc/elements/1.1/"
   xmlns:cc="http://creativecommons.org/ns#"
   xmlns:rdf="http://www.w3.org/1999/02/22-rdf-syntax-ns#"
   xmlns:svg="http://www.w3.org/2000/svg"
   xmlns="http://www.w3.org/2000/svg"
   xmlns:xlink="http://www.w3.org/1999/xlink"
   xmlns:sodipodi="http://sodipodi.sourceforge.net/DTD/sodipodi-0.dtd"
   xmlns:inkscape="http://www.inkscape.org/namespaces/inkscape"
   width="64"
   height="64"
   id="svg5453"
   version="1.1"
   inkscape:version="0.91 r13725"
   sodipodi:docname="input-mouse.svg">
  <defs
     id="defs5455">
    <linearGradient
       x1="18.601307"
       y1="0.85446119"
       x2="18.601307"
       y2="49.956139"
       id="linearGradient4146"
       xlink:href="#linearGradient3600-8"
       gradientUnits="userSpaceOnUse"
       gradientTransform="matrix(2.6341672,0,0,2.2751283,149.14852,-57.929004)" />
    <linearGradient
       id="linearGradient3600-8">
      <stop
         id="stop3602-2"
         style="stop-color:#f4f4f4;stop-opacity:1"
         offset="0" />
      <stop
         id="stop3604-5"
         style="stop-color:#dbdbdb;stop-opacity:1"
         offset="1" />
    </linearGradient>
    <linearGradient
       id="linearGradient4207"
       osb:paint="gradient">
      <stop
         style="stop-color:#3498db;stop-opacity:1;"
         offset="0"
         id="stop3371" />
      <stop
         style="stop-color:#3498db;stop-opacity:0;"
         offset="1"
         id="stop3373" />
    </linearGradient>
    <linearGradient
       x1="18.601307"
       y1="0.85446119"
       x2="18.601307"
       y2="49.956139"
       id="linearGradient4146-7"
       xlink:href="#linearGradient3600-8"
       gradientUnits="userSpaceOnUse"
       gradientTransform="matrix(1.1198524,0,0,0.96721571,401.28468,499.06919)" />
    <linearGradient
       x1="-74.784531"
       y1="54.702854"
       x2="-74.784531"
       y2="2.103905"
       id="linearGradient4148"
       xlink:href="#linearGradient3104-5"
       gradientUnits="userSpaceOnUse"
       gradientTransform="matrix(2.1270816,0,0,2.1291811,305.645,-60.46459)" />
    <linearGradient
       id="linearGradient3104-5">
      <stop
         id="stop3106-2"
         style="stop-color:#aaaaaa;stop-opacity:1"
         offset="0" />
      <stop
         id="stop3108-2"
         style="stop-color:#c8c8c8;stop-opacity:1"
         offset="1" />
    </linearGradient>
  </defs>
  <sodipodi:namedview
     id="base"
     pagecolor="#ffffff"
     bordercolor="#666666"
     borderopacity="1.0"
     inkscape:pageopacity="0"
     inkscape:pageshadow="2"
     inkscape:zoom="8.0000004"
     inkscape:cx="9.8421155"
     inkscape:cy="31.25956"
     inkscape:document-units="px"
     inkscape:current-layer="layer1-2"
     showgrid="false"
     fit-margin-top="0"
     fit-margin-left="0"
     fit-margin-right="0"
     fit-margin-bottom="0"
     inkscape:window-width="1366"
     inkscape:window-height="630"
     inkscape:window-x="0"
     inkscape:window-y="36"
     inkscape:window-maximized="1"
     inkscape:showpageshadow="false"
     borderlayer="true"
     showguides="false"
     inkscape:snap-bbox="true"
     inkscape:object-nodes="true"
     inkscape:snap-others="false">
    <inkscape:grid
       type="xygrid"
       id="grid4063"
       originx="7.9999866px"
       originy="7.9999772px" />
    <sodipodi:guide
       position="0,0"
       orientation="0,64"
       id="guide4196" />
    <sodipodi:guide
       position="62.999987,52.999977"
       orientation="-64,0"
       id="guide4198" />
    <sodipodi:guide
       position="64,64"
       orientation="0,-64"
       id="guide4200" />
    <sodipodi:guide
       position="6,58"
       orientation="52,0"
       id="guide4202" />
    <sodipodi:guide
       position="6,6"
       orientation="0,52"
       id="guide4204" />
    <sodipodi:guide
       position="58,6"
       orientation="-52,0"
       id="guide4206" />
    <sodipodi:guide
       position="58,58"
       orientation="0,-52"
       id="guide4208" />
    <sodipodi:guide
       position="23,23"
       orientation="0,20"
       id="guide4869" />
    <sodipodi:guide
       position="43,43"
       orientation="0,-20"
       id="guide4873" />
    <sodipodi:guide
       position="-22.000013,32.999977"
       orientation="0,14"
       id="guide4223" />
    <sodipodi:guide
       position="29.000002,48.999966"
       orientation="0,-14"
       id="guide4227" />
  </sodipodi:namedview>
  <metadata
     id="metadata5458">
    <rdf:RDF>
      <cc:Work
         rdf:about="">
        <dc:format>image/svg+xml</dc:format>
        <dc:type
           rdf:resource="http://purl.org/dc/dcmitype/StillImage" />
        <dc:title />
      </cc:Work>
    </rdf:RDF>
  </metadata>
  <g
     inkscape:label="Layer 1"
     inkscape:groupmode="layer"
     id="layer1"
     transform="translate(-376.57144,-491.79797)">
    <g
       transform="matrix(1.1182791,0,0,1.1182791,-48.481453,-62.233954)"
       id="layer1-2"
       inkscape:label="Layer 1">
      <path
         style="color:#000000;display:inline;overflow:visible;visibility:visible;fill:#000000;fill-opacity:0.66666667;fill-rule:nonzero;stroke:none;stroke-width:0.81428576;stroke-linecap:butt;stroke-linejoin:round;stroke-miterlimit:4;stroke-dasharray:none;stroke-dashoffset:0;stroke-opacity:1;marker:none;enable-background:accumulate"
         id="path4188"
         inkscape:connector-curvature="0"
         d="m 407.43751,501.29998 c -2.92556,0.0325 -6.07094,0.29913 -8.21431,2.30848 -3.28288,3.07759 -2.86835,5.20637 -3.1908,9.41858 -0.65823,8.59862 -0.40341,20.38298 1.34488,28.84934 0.51282,2.48341 2.85521,4.23097 5.33997,4.70929 1.90705,0.36711 3.87931,0.6452 5.85418,0.71233 1.97487,-0.0671 3.94713,-0.34522 5.85418,-0.71233 2.48476,-0.47832 4.82715,-2.22588 5.33997,-4.70929 1.7483,-8.46636 2.00311,-20.25072 1.34488,-28.84934 -0.32245,-4.21221 0.0921,-6.34099 -3.1908,-9.41858 -2.14338,-2.00935 -5.28875,-2.27599 -8.21431,-2.30848 -0.38237,-0.004 -0.76171,-4.9e-4 -1.13392,0 -0.37221,-4.9e-4 -0.75155,-0.004 -1.13392,0 z" />
      <path
         d="m 407.43453,500.46125 c -2.94711,0.0327 -6.11565,0.30134 -8.2748,2.32548 -3.30706,3.10026 -2.88948,5.24471 -3.2143,9.48794 -0.66308,8.66194 -0.40638,20.53308 1.35478,29.06179 0.5166,2.50169 2.87624,4.26212 5.3793,4.74396 1.92109,0.36982 3.90787,0.64996 5.89729,0.71758 1.98941,-0.0676 3.97619,-0.34776 5.89729,-0.71758 2.50305,-0.48184 4.86269,-2.24227 5.37929,-4.74396 1.76117,-8.52871 2.01786,-20.39985 1.35478,-29.06179 -0.32482,-4.24323 0.0928,-6.38768 -3.21429,-9.48794 -2.15917,-2.02414 -5.3277,-2.29274 -8.2748,-2.32548 -0.38519,-0.004 -0.76732,-4.9e-4 -1.14227,0 -0.37496,-4.9e-4 -0.75709,-0.004 -1.14227,0 z"
         inkscape:connector-curvature="0"
         id="path4487-9"
         style="color:#000000;display:inline;overflow:visible;visibility:visible;fill:url(#linearGradient4146-7);fill-opacity:1;fill-rule:nonzero;stroke:none;stroke-width:0.81428576;stroke-linecap:butt;stroke-linejoin:round;stroke-miterlimit:4;stroke-dasharray:none;stroke-dashoffset:0;stroke-opacity:1;marker:none;enable-background:accumulate" />
      <path
         inkscape:connector-curvature="0"
         id="rect4183"
         d="m 408.57143,506.798 c 0.554,0 1,0.54953 1,1.23214 l 0,3.53572 c 0,0.6826 -0.446,1.23214 -1,1.23214 -0.554,0 -1,-0.54954 -1,-1.23214 l 0,-3.53572 c 0,-0.68261 0.446,-1.23214 1,-1.23214 z"
         style="opacity:1;fill:#808080;fill-opacity:0.78431373;stroke:none;stroke-opacity:0.07843137" />
      <path
         style="opacity:1;fill:#808080;fill-opacity:0.78431373;stroke:none;stroke-opacity:0.07843137"
         d="m 408.57143,507.798 c 0.554,0 1,0.54953 1,1.23214 l 0,3.53572 c 0,0.6826 -0.446,1.23214 -1,1.23214 -0.554,0 -1,-0.54954 -1,-1.23214 l 0,-3.53572 c 0,-0.68261 0.446,-1.23214 1,-1.23214 z"
         id="path4186"
         inkscape:connector-curvature="0" />
    </g>
  </g>
</svg>
