<svg height="64" width="64" xmlns="http://www.w3.org/2000/svg" xmlns:xlink="http://www.w3.org/1999/xlink"><linearGradient id="a" gradientTransform="matrix(1.5292812 0 0 1.529412 -592.82053 -769.10295)" gradientUnits="userSpaceOnUse" x1="408.26364" x2="408.57138" y1="544.88452" y2="506.798"><stop offset="0" stop-color="#833cfc"/><stop offset="1" stop-color="#eb60ff"/></linearGradient><linearGradient id="b" gradientTransform="matrix(.52941243 0 0 .52941244 -184.30279 -245.30519)" gradientUnits="userSpaceOnUse" x1="409.57144" x2="409.57144" y1="540.79797" y2="506.798"><stop offset="0" stop-color="#d4b0ff"/><stop offset="1" stop-color="#f6fbfb"/></linearGradient><g transform=""><path d="m32 6c-14.40275 0-25.9980469 11.59602-25.9980469 26s11.5952969 26 25.9980469 26 25.998047-11.59602 25.998047-26-11.595297-26-25.998047-26zm0 23c1.662 0 3 1.338 3 3s-1.338 3-3 3-3-1.338-3-3 1.338-3 3-3z" fill="url(#a)"/><path d="m32 23c-4.986 0-9 4.014-9 9s4.014 9 9 9 9-4.014 9-9-4.014-9-9-9zm0 6c1.662 0 3 1.338 3 3s-1.338 3-3 3-3-1.338-3-3 1.338-3 3-3z" fill="url(#b)"/><path d="m32 24a8 8 0 0 0 -8 8 8 8 0 0 0 8 8 8 8 0 0 0 8-8 8 8 0 0 0 -8-8zm0 1a7 7 0 0 1 7 7 7 7 0 0 1 -7 7 7 7 0 0 1 -7-7 7 7 0 0 1 7-7z" fill="#b94ee9" stroke-linecap="round"/></g></svg>