<svg height="64" width="64" xmlns="http://www.w3.org/2000/svg" xmlns:xlink="http://www.w3.org/1999/xlink"><linearGradient id="a" gradientTransform="matrix(1.5292812 0 0 1.529412 -592.82053 -769.10295)" gradientUnits="userSpaceOnUse" x1="408.26364" x2="408.57138" y1="544.88452" y2="506.798"><stop offset="0" stop-color="#fa345d"/><stop offset="1" stop-color="#f76a8d"/></linearGradient><linearGradient id="b" gradientTransform="matrix(.52941243 0 0 .52941244 -184.30279 -245.30519)" gradientUnits="userSpaceOnUse" x1="409.57144" x2="409.57144" y1="540.79797" y2="506.798"><stop offset="0" stop-color="#ffb0d4"/><stop offset="1" stop-color="#fbf6fa"/></linearGradient><g transform=""><path d="m32 6c-14.40275 0-25.9980469 11.59602-25.9980469 26s11.5952969 26 25.9980469 26 25.998047-11.59602 25.998047-26-11.595297-26-25.998047-26zm0 23c1.662 0 3 1.338 3 3s-1.338 3-3 3-3-1.338-3-3 1.338-3 3-3z" fill="url(#a)"/><path d="m32 23c-4.986 0-9 4.014-9 9s4.014 9 9 9 9-4.014 9-9-4.014-9-9-9zm0 6c1.662 0 3 1.338 3 3s-1.338 3-3 3-3-1.338-3-3 1.338-3 3-3z" fill="url(#b)"/><path d="m32 24a8 8 0 0 0 -8 8 8 8 0 0 0 8 8 8 8 0 0 0 8-8 8 8 0 0 0 -8-8zm0 1a7 7 0 0 1 7 7 7 7 0 0 1 -7 7 7 7 0 0 1 -7-7 7 7 0 0 1 7-7z" fill="#f85278" stroke-linecap="round"/></g><path d="m900.199 0h-46.514c-11.046 0-20 8.954-20 20v24.89c0 11.045-8.954 20-20 20h-43.37c-11.046 0-20-8.955-20-20v-24.89c0-11.046-8.953-20-20-20h-522.194c-11.046 0-20 8.954-20 20v24.89c0 11.045-8.954 20-20 20h-43.37c-11.046 0-20-8.955-20-20v-24.89c0-11.046-8.954-20-20-20h-44.95c-11.046 0-20 8.954-20 20v900c0 11.046 8.954 20 20 20h44.95c11.046 0 20-8.954 20-20v-18.285c0-11.046 8.954-20 20-20h43.37c11.046 0 20 8.954 20 20v18.285c0 11.046 8.954 20 20 20h522.194c11.047 0 20-8.954 20-20v-18.285c0-11.046 8.954-20 20-20h43.37c11.046 0 20 8.954 20 20v18.285c0 11.046 8.954 20 20 20h46.514c11.046 0 20-8.954 20-20v-900c0-11.045-8.954-20-20-20zm-712.078 765.369c0 11.046-8.954 20-20 20h-43.37c-11.046 0-20-8.954-20-20v-43.37c0-11.045 8.954-20 20-20h43.37c11.046 0 20 8.955 20 20zm0-179.716c0 11.045-8.954 20-20 20h-43.37c-11.046 0-20-8.955-20-20v-43.371c0-11.045 8.954-20 20-20h43.37c11.046 0 20 8.955 20 20zm0-179.717c0 11.047-8.954 20-20 20h-43.37c-11.046 0-20-8.953-20-20v-43.37c0-11.046 8.954-20 20-20h43.37c11.046 0 20 8.954 20 20zm0-179.716c0 11.046-8.954 20-20 20h-43.37c-11.046 0-20-8.954-20-20v-43.37c0-11.045 8.954-20 20-20h43.37c11.046 0 20 8.955 20 20zm475.715 608.047c0 11.047-8.954 20-20 20h-347.672c-11.046 0-20-8.953-20-20v-160.722c0-11.046 8.954-20 20-20h347.672c11.046 0 20 8.954 20 20zm0-283.906c0 11.046-8.954 20-20 20h-347.672c-11.046 0-20-8.954-20-20v-160.722c0-11.045 8.954-20 20-20h347.672c11.046 0 20 8.955 20 20zm0-283.907c0 11.046-8.954 20-20 20h-347.672c-11.046 0-20-8.954-20-20v-160.722c0-11.045 8.954-20 20-20h347.672c11.046 0 20 8.955 20 20zm169.85 498.915c0 11.046-8.954 20-20 20h-43.37c-11.046 0-20-8.954-20-20v-43.37c0-11.045 8.954-20 20-20h43.37c11.046 0 20 8.955 20 20zm0-179.716c0 11.045-8.954 20-20 20h-43.37c-11.046 0-20-8.955-20-20v-43.371c0-11.045 8.954-20 20-20h43.37c11.046 0 20 8.955 20 20zm0-179.717c0 11.047-8.954 20-20 20h-43.37c-11.046 0-20-8.953-20-20v-43.37c0-11.046 8.954-20 20-20h43.37c11.046 0 20 8.954 20 20zm0-179.716c0 11.046-8.954 20-20 20h-43.37c-11.046 0-20-8.954-20-20v-43.37c0-11.045 8.954-20 20-20h43.37c11.046 0 20 8.955 20 20z" fill="#fdd1e6" transform="matrix(.009612967456 0 0 .009612967735 44.073651745906 27.356911159417)"/></svg>