<svg viewBox="0 0 16 16" xmlns="http://www.w3.org/2000/svg"><path d="m6.5720863 1.1433352c-.238122 0-.440984.08275-.6076585.2494246-.1666745.1665649-.2494246.3695365-.2494246.6076585v2.8575017c0 .238122.08275.43931.2494246.6059845.1665648.1666745.3695365.2510986.6076585.2510986h.8570828v1.7141659h-4.5716675c-.3095696 0-.5773379.1119684-.8035154.3381467-.2261776.2260676-.3398201.4940552-.3398201.8035154v1.7141659h-.8570831c-.23801241 0-.43931003.08454-.6059845.251098-.1666745.166566-.2510986.367863-.2510986.605986v2.857501c0 .238122.084424.441093.2510986.607658.16667447.166674.36797209.249425.6059845.249425h2.8575017c.2380124 0 .4409841-.08286.6076585-.249425.1666745-.166565.2494246-.369536.2494246-.607658v-2.857501c0-.238123-.08275-.439311-.2494246-.605986-.1666744-.166674-.3696461-.251098-.6076585-.251098h-.8570831v-1.7141659h4.5716675v1.7141659h-.8570828c-.238122 0-.440984.08454-.6076585.251098-.1666745.166566-.2494246.367863-.2494246.605986v2.857501c0 .238122.08275.441093.2494246.607658.1665648.166674.3695365.249425.6076585.249425h2.855828c.2382314 0 .4409837-.08286.6076577-.249425.166565-.166674.249425-.369536.249425-.607658v-2.857501c0-.238123-.08275-.439311-.249425-.605986-.166674-.166674-.3694263-.251098-.6076577-.251098h-.8570831v-1.7141659h4.5716668v1.7141659h-.857083c-.238012 0-.440983.08454-.607658.251098-.166565.166675-.249425.367863-.249425.605986v2.857501c0 .238122.08286.441093.249425.607658.166675.166674.369646.249425.607658.249425h2.857502c.238013 0 .439311-.08286.605985-.249425s.251098-.369536.251098-.607658v-2.857501c0-.238123-.08297-.43942-.249424-.605986-.166675-.166674-.369427-.251098-.607659-.251098h-.857083v-1.7141659c0-.3094602-.113752-.5774478-.33982-.8035154-.226178-.2262871-.494055-.3381467-.803516-.3381467h-4.5716668v-1.7141659h.8570831c.2382314 0 .4410934-.084424.6076577-.2510986.166675-.1665648.249425-.3678625.249425-.6059845v-2.8575017c0-.238122-.08286-.4410936-.249425-.6076585-.166674-.1666745-.3694263-.2494246-.6076577-.2494246z" fill="#da4453"/></svg>