<?xml version="1.0" encoding="UTF-8" standalone="no"?>
<!-- Created with Inkscape (http://www.inkscape.org/) -->

<svg
   xmlns:dc="http://purl.org/dc/elements/1.1/"
   xmlns:cc="http://creativecommons.org/ns#"
   xmlns:rdf="http://www.w3.org/1999/02/22-rdf-syntax-ns#"
   xmlns:svg="http://www.w3.org/2000/svg"
   xmlns="http://www.w3.org/2000/svg"
   xmlns:sodipodi="http://sodipodi.sourceforge.net/DTD/sodipodi-0.dtd"
   xmlns:inkscape="http://www.inkscape.org/namespaces/inkscape"
   width="22"
   height="22"
   id="svg2"
   version="1.1"
   inkscape:version="0.91 r13725"
   viewBox="0 0 22 22"
   sodipodi:docname="network-wireless-connected-50.svg">
  <defs
     id="defs4" />
  <sodipodi:namedview
     id="base"
     pagecolor="#ffffff"
     bordercolor="#666666"
     borderopacity="1.0"
     inkscape:pageopacity="0.0"
     inkscape:pageshadow="2"
     inkscape:zoom="11.552735"
     inkscape:cx="-16.812535"
     inkscape:cy="7.675904"
     inkscape:document-units="px"
     inkscape:current-layer="layer1"
     showgrid="true"
     inkscape:showpageshadow="false"
     units="px"
     inkscape:window-width="1366"
     inkscape:window-height="630"
     inkscape:window-x="0"
     inkscape:window-y="36"
     inkscape:window-maximized="1"
     inkscape:snap-bbox="true"
     inkscape:object-nodes="true"
     showguides="false">
    <sodipodi:guide
       position="2,20.000017"
       orientation="18,0"
       id="guide4107" />
    <sodipodi:guide
       position="2,2.0000174"
       orientation="0,18"
       id="guide4109" />
    <sodipodi:guide
       position="20,2.0000174"
       orientation="-18,0"
       id="guide4111" />
    <sodipodi:guide
       position="20,20.000017"
       orientation="0,-18"
       id="guide4113" />
    <sodipodi:guide
       position="24,-1"
       orientation="16,0"
       id="guide4115" />
    <sodipodi:guide
       position="3,3.0000174"
       orientation="0,16"
       id="guide4117" />
    <sodipodi:guide
       position="19,3.0000174"
       orientation="-16,0"
       id="guide4119" />
    <sodipodi:guide
       position="19,19.000017"
       orientation="0,-16"
       id="guide4121" />
  </sodipodi:namedview>
  <metadata
     id="metadata7">
    <rdf:RDF>
      <cc:Work
         rdf:about="">
        <dc:format>image/svg+xml</dc:format>
        <dc:type
           rdf:resource="http://purl.org/dc/dcmitype/StillImage" />
        <dc:title></dc:title>
      </cc:Work>
    </rdf:RDF>
  </metadata>
  <g
     inkscape:label="Layer 1"
     inkscape:groupmode="layer"
     id="layer1"
     transform="translate(0,-1030.3622)">
    <path
       style="fill:#f2f2f2;fill-opacity:1"
       d="m 11.000006,1042.1605 c -1.7041961,0 -3.3129566,0.7515 -4.4136186,2.0617 -0.3415065,0.4062 -0.2889565,1.0123 0.1178936,1.3538 0.1800046,0.1511 0.3991121,0.2255 0.6176006,0.2255 0.2742026,0 0.5465136,-0.1166 0.7361477,-0.3428 0.7348753,-0.8745 1.8073364,-1.3762 2.9419767,-1.3762 1.134641,0 2.207137,0.5017 2.941977,1.3762 0.190288,0.2268 0.462565,0.3428 0.736148,0.3428 0.218489,0 0.437596,-0.074 0.617601,-0.2255 0.40685,-0.3415 0.459366,-0.9476 0.117893,-1.3538 -1.100696,-1.3102 -2.709456,-2.0617 -4.413619,-2.0617 z"
       id="path8-15"
       inkscape:connector-curvature="0"
       sodipodi:nodetypes="sccscscsccs" />
    <path
       style="fill:#f2f2f2;fill-opacity:0.50196081"
       d="m 10.999668,1037.9328 c -2.838837,0 -5.5194395,1.2525 -7.3555958,3.4366 -0.3414721,0.4062 -0.2889564,1.0123 0.1178937,1.3538 0.1800045,0.1512 0.3991121,0.2255 0.6176006,0.2255 0.2742025,0 0.5465136,-0.1166 0.7361477,-0.3428 1.4690626,-1.7484 3.6140536,-2.751 5.8839888,-2.751 2.269935,0 4.414891,1.0026 5.884607,2.751 0.190288,0.2268 0.462564,0.3428 0.736114,0.3428 0.218488,0 0.437596,-0.074 0.617635,-0.2255 0.406815,-0.3415 0.459331,-0.9482 0.117893,-1.3538 -1.836844,-2.184 -4.517446,-3.4366 -7.356284,-3.4366 z"
       id="path8-4-43"
       inkscape:connector-curvature="0"
       sodipodi:nodetypes="sccscscsccs" />
    <path
       style="fill:#f2f2f2;fill-opacity:0.50196081"
       d="m 21.298222,1038.6744 c -2.570378,-3.0586 -6.324129,-4.8122 -10.298226,-4.8122 -3.9740973,0 -7.7272301,1.7536 -10.2982616,4.8122 -0.34150651,0.4062 -0.28895646,1.0123 0.11789368,1.3537 0.18000454,0.1512 0.39849302,0.2256 0.61694712,0.2256 0.2742026,0 0.5465136,-0.1167 0.7367668,-0.3428 2.2039382,-2.6223 5.4214246,-4.1266 8.826619,-4.1266 3.405195,0 6.622682,1.5043 8.826585,4.126 0.190288,0.2261 0.462564,0.3427 0.736801,0.3427 0.218489,0 0.437596,-0.074 0.617601,-0.2255 0.406196,-0.3409 0.458781,-0.9476 0.117274,-1.3531 z"
       id="path8-8-0"
       inkscape:connector-curvature="0"
       sodipodi:nodetypes="csccscscscc" />
    <path
       style="fill:#f2f2f2;fill-opacity:1"
       d="m 9.4171461,1047.2794 c 0,0.8737 0.7091359,1.5828 1.5828529,1.5828 0.873717,0 1.582853,-0.7091 1.582853,-1.5828 -0.267409,-2.2467 -3.1147808,-1.6737 -3.1657059,0 z"
       id="path8-1-37"
       inkscape:connector-curvature="0"
       sodipodi:nodetypes="cscc" />
  </g>
</svg>
