<svg height="24" viewBox="0 0 24 24" width="24" xmlns="http://www.w3.org/2000/svg">
  <path d="m8.4281393 1-1.7883085 1.7673815 2.3685575 2.3381183c-1.1353561.5845523-2.0741703 1.3552543-2.7186094 2.4427532.0000019 0-2.7261067-.840998-3.5671048 0-.617294.6172961-.6172941 2.0023847 0 2.619682.6390019.639001 2.7090973.369076 2.7090972.369076-.035517.276455-.085611.171809-.085611.45659v1.792113s-2.0047679-.618718-2.6234867 0c-.6172951.617296-.6172952 2.002385 0 2.619681.6187189.618719 2.6234867 0 2.6234867 0v.582152c0 .577891.098145 1.499373.2397095 2.035628 0 0-2.1876149-.67558-2.8631962 0-.6172951.617295-.6172951 2.002386 0 2.619682.979371.979371 4.1530612 0 4.1530612 0 1.2382979 1.508844 3.1079765 2.357142 5.2184362 2.357143 2.11046 0 3.980169-.848299 5.218437-2.357143 0 0 3.02988.934838 3.964717 0 .617296-.617296.617296-2.002387 0-2.619682-.631046-.631047-2.674852 0-2.674852 0 .141835-.536255.239709-1.457737.239709-2.035628v-.582152s1.860955.574234 2.435143 0c.617272-.617321.617296-2.002385 0-2.619681-.574177-.574179-2.435143 0-2.435143 0v-1.792113c0-.284783-.05199-.549213-.08751-.825666 0 0 1.928196.594459 2.522655 0 .617295-.6172945.617295-2.0023887 0-2.619682-.796464-.7964652-3.378761.0000001-3.378761 0-.668059-1.1274702-1.654813-1.9262176-2.844172-2.5074368l2.303874-2.2734347-1.790212-1.7673815-3.382566 3.3559321c-.03208-.00164-.154364-.013317-.18644-.013317-.08934 0-.07997.011773-.169319.01522zm3.5709107 7.3644066a.96251447.96251447 0 0 1 .962642.9626427.96251447.96251447 0 0 1 -.962642.9626427.96251447.96251447 0 0 1 -.962643-.9626427.96251447.96251447 0 0 1 .962643-.9626427zm-.188344 2.7052924h.378589c.428766 0 .772397.345533.772397.774299v6.38274c0 .428766-.343631.7743-.772397.7743h-.378589c-.428767 0-.774299-.345534-.774299-.7743v-6.38274c-.000001-.428766.345532-.774299.774299-.774299z" fill="#bebebe" fill-rule="evenodd" stroke-width="2.65102" />
</svg>
