<svg height="24" viewBox="0 0 24 24" width="24" xmlns="http://www.w3.org/2000/svg">
  <path d="m6.5 3.5c-1.9499999 0-4.05.4-5.5 1.5v14.650391c0 .25.2500001.5.5.5.1 0 .15-.050782.25-.050782 1.35-.65 3.3-1.099609 4.75-1.099609 1.95 0 4.05.4 5.5 1.5 1.349999-.850001 3.8-1.5 5.5-1.5 1.65 0 3.35.300781 4.75 1.050781.100003.05.15.048828.25.048828.250001 0 .5-.25.5-.5v-14.599609c-.6-.45-1.25-.75-2-1-1.109999-.3499998-2.33-.5-3.5-.5-1.950001 0-4.05.4-5.5 1.5-1.45-1.1-3.55-1.5-5.5-1.5zm11 2c1.2 0 2.4.1499999 3.5.5v11.5c-1.1-.350001-2.3-.5-3.5-.5-1.7 0-4.150001.65-5.5 1.5v-11.5c1.349999-.8499993 3.8-1.5 5.5-1.5zm-11.0800781 1.8984375h.8808593l2.6035157 6.8496095.5566411.078125v.65625h-2.1757818v-.65625l.5722657-.097656-.5-1.396485h-3.0371094l-.515625 1.396485.5742187.097656v.65625h-2.171875v-.65625l.5625-.078125zm.4160156 1.3183594-1.1972656 3.2558591h2.40625l-1.1777344-3.2558591z" fill="#bebebe" />
</svg>
