<svg height="24" viewBox="0 0 24 24" width="24" xmlns="http://www.w3.org/2000/svg">
  <path d="m7 2h10c1.104569 0 2 .8954305 2 2v16c0 1.104569-.895431 2-2 2-3.333334 0-6.666666 0-10 0-1.1045695 0-2-.895431-2-2 0-5.333334 0-10.6666664 0-16 0-1.1045695.8954305-2 2-2m0 2v4h10c0-1.3333334 0-2.6666666 0-4-3.333334 0-6.666666 0-10 0m0 6v2h2c0-.666666 0-1.333334 0-2-.6666666 0-1.3333334 0-2 0m4 0v2h2c0-.666666 0-1.333334 0-2-.666666 0-1.333334 0-2 0m4 0v2h2c0-.666666 0-1.333334 0-2-.666666 0-1.333334 0-2 0m-8 4v2h2c0-.666666 0-1.333334 0-2-.6666666 0-1.3333334 0-2 0m4 0v2h2c0-.666666 0-1.333334 0-2-.666666 0-1.333334 0-2 0m4 0v2h2c0-.666666 0-1.333334 0-2-.666666 0-1.333334 0-2 0m-8 4v2h2c0-.666666 0-1.333334 0-2-.6666666 0-1.3333334 0-2 0m4 0v2h2c0-.666666 0-1.333334 0-2-.666666 0-1.333334 0-2 0m4 0v2h2c0-.666666 0-1.333334 0-2-.666666 0-1.333334 0-2 0z" fill="#bebebe" />
</svg>
