<svg height="24" viewBox="0 0 24 24" width="24" xmlns="http://www.w3.org/2000/svg">
  <path d="m18.111111 12a1.6666667 1.6666667 0 0 1 -1.666667-1.666667 1.6666667 1.6666667 0 0 1 1.666667-1.6666663 1.6666667 1.6666667 0 0 1 1.666667 1.6666663 1.6666667 1.6666667 0 0 1 -1.666667 1.666667m-3.333333-4.4444444a1.6666667 1.6666667 0 0 1 -1.666667-1.6666667 1.6666667 1.6666667 0 0 1 1.666667-1.6666667 1.6666667 1.6666667 0 0 1 1.666666 1.6666667 1.6666667 1.6666667 0 0 1 -1.666666 1.6666667m-5.555556 0a1.6666667 1.6666667 0 0 1 -1.6666664-1.6666667 1.6666667 1.6666667 0 0 1 1.6666664-1.6666667 1.6666667 1.6666667 0 0 1 1.666667 1.6666667 1.6666667 1.6666667 0 0 1 -1.666667 1.6666667m-3.3333331 4.4444444a1.6666667 1.6666667 0 0 1 -1.6666667-1.666667 1.6666667 1.6666667 0 0 1 1.6666667-1.6666663 1.6666667 1.6666667 0 0 1 1.6666667 1.6666663 1.6666667 1.6666667 0 0 1 -1.6666667 1.666667m6.1111111-10a10 10 0 0 0 -10 10 10 10 0 0 0 10 10 1.6666667 1.6666667 0 0 0 1.666667-1.666667c0-.433333-.166667-.822222-.433334-1.111111-.255555-.3-.422222-.688889-.422222-1.111111a1.6666667 1.6666667 0 0 1 1.666667-1.666667h1.966666a5.5555556 5.5555556 0 0 0 5.555556-5.555555c0-4.9111112-4.477778-8.888889-10-8.888889z" fill="#b3b3b3" stroke-width="1.11111" />
</svg>
