<svg height="24" viewBox="0 0 24 24" width="24" xmlns="http://www.w3.org/2000/svg">
  <path d="m7.5555556 2a2.2222222 2.2222222 0 0 0 -2.2222223 2.2222222v4.4444445a2.2222222 2.2222222 0 0 1 -2.2222222 2.2222223h-1.1111111v2.222222h1.1111111a2.2222222 2.2222222 0 0 1 2.2222222 2.222222v4.444445a2.2222222 2.2222222 0 0 0 2.2222223 2.222222h2.2222224v-2.222222h-2.2222224v-5.555556a2.2222222 2.2222222 0 0 0 -2.2222223-2.222222 2.2222222 2.2222222 0 0 0 2.2222223-2.222222v-5.5555558h2.2222224v-2.2222222m6.666666 0a2.2222222 2.2222222 0 0 1 2.222223 2.2222222v4.4444445a2.2222222 2.2222222 0 0 0 2.222222 2.2222223h1.111111v2.222222h-1.111111a2.2222222 2.2222222 0 0 0 -2.222222 2.222222v4.444445a2.2222222 2.2222222 0 0 1 -2.222223 2.222222h-2.222222v-2.222222h2.222222v-5.555556a2.2222222 2.2222222 0 0 1 2.222223-2.222222 2.2222222 2.2222222 0 0 1 -2.222223-2.222222v-5.5555558h-2.222222v-2.2222222z" fill="#bebebe" stroke-width="1.11111" />
</svg>
