<svg xmlns="http://www.w3.org/2000/svg" viewBox="0 0 24 24">
  <path fill="#bebebe" d="M13.557 14.7l-3.51 6.084a8.986 8.986 0 0 0 7.641-1.809l-3.294-5.715M3.414 14.7a9.031 9.031 0 0 0 5.391 5.706l3.303-5.706M8.886 12l-3.51-6.075A8.87 8.87 0 0 0 3 12c0 .612.063 1.215.18 1.8h6.741m10.899-3.6h-6.741l.261.45 4.284 7.425A8.936 8.936 0 0 0 21 12c0-.621-.063-1.224-.18-1.8m-.234-.9a9.01 9.01 0 0 0-5.391-5.706L11.892 9.3M9.66 10.65l4.293-7.434A9.275 9.275 0 0 0 12 3c-2.16 0-4.14.756-5.688 2.025l3.294 5.715z"/>
</svg>
