<svg height="24" viewBox="0 0 24 24" width="24" xmlns="http://www.w3.org/2000/svg"><path d="m13.557 14.7-3.51 6.084c.63.135 1.278.216 1.953.216 2.16 0 4.14-.765 5.688-2.025l-3.294-5.715m-10.98 1.44c.828 2.628 2.835 4.734 5.391 5.706l3.303-5.706m-3.222-2.7-3.51-6.075c-1.476 1.575-2.376 3.726-2.376 6.075 0 .612.063 1.215.18 1.8h6.741m10.899-3.6h-6.741l.261.45 4.284 7.425c1.476-1.602 2.376-3.735 2.376-6.075 0-.621-.063-1.224-.18-1.8m-.234-.9c-.828-2.637-2.835-4.734-5.391-5.706l-3.303 5.706m-2.232 1.35 4.293-7.434c-.63-.135-1.278-.216-1.953-.216-2.16 0-4.14.756-5.688 2.025l3.294 5.715z" fill="#bebebe" stroke-width=".9"/></svg>