<svg height="24" viewBox="0 0 24 24" width="24" xmlns="http://www.w3.org/2000/svg">
  <path d="m13.73 15-3.9 6.76c.7.15 1.42.24 2.17.24 2.4 0 4.6-.85 6.32-2.25l-3.66-6.35m-12.2 1.6c.92 2.92 3.15 5.26 5.99 6.34l3.67-6.34m-3.58-3-3.9-6.75c-1.64 1.75-2.64 4.14-2.64 6.75 0 .68.07 1.35.2 2h7.49m12.11-4h-7.49l.29.5 4.76 8.25c1.64-1.78 2.64-4.15 2.64-6.75 0-.69-.07-1.36-.2-2m-.26-1c-.92-2.93-3.15-5.26-5.99-6.34l-3.67 6.34m-2.48 1.5 4.77-8.26c-.7-.15-1.42-.24-2.17-.24-2.4 0-4.6.84-6.32 2.25l3.66 6.35z" fill="#bebebe" />
</svg>
