<svg height="24" viewBox="0 0 24 24" width="24" xmlns="http://www.w3.org/2000/svg">
  <path d="m9.5376742 8.3478783c.00597.0003399.00303.00011 0 0zm-2.1702645-1.0849873c.006.0003.003.00012 0 0zm12.9835273 1.6752761c-.391689-.9421079-1.184996-1.9592953-1.807915-2.2807445.506998.9937474.800438 1.9909849.912568 2.7350531 0 .0009818.00056.00499.002.014997-1.019058-2.5399407-2.747023-3.564248-4.15822-5.7941824-.071299-.1127997-.142689-.2258294-.212289-.3449991a2.7463824 2.7463824 0 0 1 -.0992-.1864495 1.6408844 1.6408844 0 0 1 -.13444-.3562492.02343746.02343746 0 0 0 -.0205-.024099.02999995.02999995 0 0 0 -.0169 0c-.000982.00041-.003.002-.004.002-.002.00075-.004.003-.007.004.000981-.0009981.003-.004.004-.005-2.003928 1.1737573-2.834546 3.228482-3.048115 4.5363687a4.8021286 4.8021286 0 0 0 -1.785896.4557363.23039958.23039958 0 0 0 -.1140398.2861294.22627457.22627457 0 0 0 .3071998.1321796 4.3565544 4.3565544 0 0 1 1.555535-.405969c.0175-.0009982.0351-.002.0527-.004a4.4108918 4.4108918 0 0 1 .22245-.008 4.531154 4.531154 0 0 1 1.293407.1791295c.0245.007.0486.0155.073.0231a4.5056166 4.5056166 0 0 1 .207709.0691 4.5694415 4.5694415 0 0 1 .149701.0587c.0403.0163.0806.0325.120229.0499a4.4419792 4.4419792 0 0 1 .18375.0865c.0279.0138.0557.0276.0831.0419a4.5200541 4.5200541 0 0 1 .17531.097 4.0419299 4.0419299 0 0 1 .1107.0666 4.6131664 4.6131664 0 0 1 1.576045 1.6303867c-.481242-.338064-1.34288-.6719231-2.173018-.5275533 3.241532 1.6205256 2.371275 7.2010016-2.120425 6.9902926a4.0012425 4.0012425 0 0 1 -1.172667-.226171 4.9672783 4.9672783 0 0 1 -.264709-.108219c-.0508-.0232-.10166-.0466-.15191-.0726-1.1005873-.568799-2.0093649-1.643737-2.1229145-2.949113 0 0 .4159889-1.550057 2.9787325-1.550057.27705 0 1.069048-.773028 1.083748-.997236-.003-.0732-1.571877-.6971262-2.1833557-1.2995936-.3267328-.3219374-.4818625-.4771072-.619232-.5935869a2.688745 2.688745 0 0 0 -.2334297-.1762496 4.1750547 4.1750547 0 0 1 -.0252998-2.2024844c-.9257577.4215789-1.6458659 1.0879173-2.1693246 1.6762457h-.004c-.3572991-.4525088-.3320591-1.945235-.3116992-2.2568942-.004-.0193999-.2665093.1361297-.3008992.1595296a6.5703628 6.5703628 0 0 0 -.8807178.7544981 7.8937353 7.8937353 0 0 0 -.8416178 1.0092374c0 .00045-.0002601.0009328-.00041.0009982 0-.00045.00026-.0009327.00041-.0009982a7.6063733 7.6063733 0 0 0 -1.209147 2.7303729c-.002.01-.0859.377019-.1469996.830508a9.9672566 9.9672566 0 0 0 -.0288.211909c-.0209.13635-.037199.284999-.0532.516259-.00072.009-.0009982.0178-.002.0267a22.168159 22.168159 0 0 0 -.018.29982c0 .0154-.0009409.0306-.0009409.046 0 4.976577 4.0349897 9.010856 9.0121373 9.010856 4.457429 0 8.158439-3.235791 8.883057-7.486111.0153-.115309.0274-.231299.041-.347629.17913-1.545366-.0199-3.169672-.584548-4.5279983z" fill="#bebebe" stroke-width=".0375" />
</svg>
