<svg height="24" viewBox="0 0 24 24" width="24" xmlns="http://www.w3.org/2000/svg">
  <path d="m8.9904857 7.5362963c.0073.0004154.0037.0001344 0 0zm-2.652545-1.3260955c.00733.0003666.00367.0001466 0 0zm15.8687553 2.0475594c-.478731-1.151465-1.448328-2.394694-2.209674-2.7875763.619664 1.2145801.978313 2.4334259 1.115361 3.3428423 0 .0012.000684.0061.0024.01833-1.245471-3.104372-3.357428-4.3563031-5.082224-7.0817783-.087143-.1378663-.174398-.2760137-.259465-.4216656a3.3566895 3.3566895 0 0 1 -.121244-.2278827 2.0055253 2.0055253 0 0 1 -.164316-.4354156.02864578.02864578 0 0 0 -.02506-.029454.0366666.0366666 0 0 0 -.02066 0c-.0012.0005011-.0037.00244-.0049.00244-.0024.0009166-.0049.00367-.0086.00489.0012-.00122.0037-.00489.0049-.00611-2.449245 1.4345922-3.464445 3.9459223-3.725474 5.5444504a5.869268 5.869268 0 0 0 -2.1827623.557011.28159947.28159947 0 0 0 -.139382.3497137.2765578.2765578 0 0 0 .375467.1615529 5.3246774 5.3246774 0 0 1 1.9012093-.4961843c.02139-.00122.0429-.00244.06441-.00489a5.3910897 5.3910897 0 0 1 .271884-.00978 5.5380769 5.5380769 0 0 1 1.58083.218936c.02995.00856.0594.018944.08922.028233a5.5068645 5.5068645 0 0 1 .253866.084455 5.5848727 5.5848727 0 0 1 .182968.071745c.04926.019922.09851.039722.146946.060989a5.4290855 5.4290855 0 0 1 .224584.1057222c.0341.016867.06808.033733.101566.051211a5.5245103 5.5245103 0 0 1 .214268.1185555 4.9401363 4.9401363 0 0 1 .1353.0814 5.6383142 5.6383142 0 0 1 1.926277 1.9926958c-.588184-.41319-1.641297-.82124-2.65591-.644788 3.961872 1.9806418 2.898224 8.8012228-2.591631 8.5436908a4.8904073 4.8904073 0 0 1 -1.433259-.276431 6.0711177 6.0711177 0 0 1 -.3235343-.132268c-.06209-.02836-.124251-.05696-.185667-.08873-1.345163-.695199-2.4558907-2.009012-2.5946736-3.604472 0 0 .5084309-1.894514 3.6406729-1.894514.338617 0 1.306614-.944812 1.324581-1.218844-.0037-.08947-1.921183-.8520428-2.6685463-1.5883918-.39934-.393479-.588943-.583131-.756839-.7254954a3.2862437 3.2862437 0 0 0 -.285245-.2154137 5.1028444 5.1028444 0 0 1 -.030922-2.6919252c-1.1314812.5152631-2.0116134 1.3296766-2.6513962 2.0487446h-.00489c-.4366978-.5530663-.4058489-2.3775093-.3809646-2.7584261-.0048889-.023711-.3257336.1663807-.3677657.1949806a8.0304431 8.0304431 0 0 0 -1.0764328.9221643 9.6478983 9.6478983 0 0 0 -1.0286439 1.2335123c0 .00055-.0003179.00114-.0005011.00122 0-.00055.0003178-.00114.0005011-.00122a9.2966781 9.2966781 0 0 0 -1.4778463 3.3371226c-.00244.01222-.1049889.4608008-.1796661 1.0150648a12.182202 12.182202 0 0 0 -.0352.259c-.025545.16665-.045466.348332-.065022.630983-.00088.011-.00122.02176-.00244.03263a27.094415 27.094415 0 0 0 -.022.366447c0 .01882-.00115.0374-.00115.05622 0 6.082483 4.9316539 11.013268 11.0148349 11.013268 5.447968 0 9.971425-3.954855 10.857069-9.149691.0187-.140933.03349-.282698.05011-.424879.218937-1.888781-.02432-3.8740438-.714448-5.5342198z" fill="#bebebe" stroke-width=".045833" />
</svg>
