<svg xmlns="http://www.w3.org/2000/svg" viewBox="0 0 24 24">
  <path fill="#bebebe" d="M21 11.659c0-.393-.098-.982-.196-1.374-.295-1.67-1.178-3.142-2.258-4.32-.196-.294-.589-.589-.982-.883-1.08-.883-2.356-1.472-3.828-1.767-2.945-.49-5.89.49-7.853 2.552-.243-.357-.382-.846-.49-1.276-.876.86-1.093 1.764-.786 2.847C3.833 8.502 3.245 9.553 3 10.833c.063-.177.609-.45.527-.45a8.876 8.876 0 0 0 1.767 7.166c2.356 2.846 6.38 4.024 9.914 2.748C18.644 19.021 21 15.683 21 11.953v-.294m-7.362-7.46a8.277 8.277 0 0 1 3.926 1.963c.098.098.197.294.197.294-.295-.294-1.839-1.067-2.231-.87 1.648.863 2.378 2.251 2.623 3.52.706 2.774-1.33 5.557-3.534 6.185-1.833.307-3.328.037-4.515-1.08h1.08c.589-.098 3.141-.982 3.043-1.374 0-.295-.4-.541-.687-.687-.295-.099-1.572.144-2.063.34 0 0-1.766-.537-2.256-.93 0-.097-.099-.686-.099-.785-.098-.098.295-.392.295-.392.538-.69 1.264-.573 1.931-1.05.295-.197.307-.207.491-.491 0 0 .49-.884-.098-.785-.62-.042-1.449-.716-1.931-.717 0 0-.197-.197-.197-.295.098-.196.785-1.669 1.08-1.767-.196-.392-1.178-.098-1.374.197-1.048.873-1.467.712-2.16.49A8.057 8.057 0 0 1 13.638 4.2z"/>
</svg>
