<svg height="24" viewBox="0 0 24 24" width="24" xmlns="http://www.w3.org/2000/svg">
  <path d="m9.2640821 7.9420893c.00664.0003776.00336.0001221 0 0zm-2.4114045-1.2055414c.00666.0003333.00334.0001333 0 0zm14.4261414 1.8614176c-.43521-1.0467863-1.316662-2.1769945-2.008795-2.5341602.563331 1.1041637.889375 2.2122053 1.013965 3.0389475 0 .00109.000621.00555.0022.016664-1.132265-2.8221567-3.052226-3.9602759-4.620222-6.4379806-.079221-.125333-.158544-.2509216-.235878-.3833324a3.0515359 3.0515359 0 0 1 -.110221-.2071661 1.8232048 1.8232048 0 0 1 -.149379-.3958324.02604162.02604162 0 0 0 -.02278-.026776.03333327.03333327 0 0 0 -.01878 0c-.0011.0004556-.0034.00222-.0045.00222-.0022.0008333-.0045.00334-.0078.00445.0011-.00111.0034-.00445.0045-.00555-2.226608 1.3041759-3.149517 3.5872033-3.386816 5.0404106a5.3356982 5.3356982 0 0 0 -1.9843291.5063613.25599952.25599952 0 0 0 -.1267109.3179215.25141618.25141618 0 0 0 .3413337.1468663 4.8406158 4.8406158 0 0 1 1.7283723-.4510767c.01944-.00111.039-.00222.05855-.00445a4.9009906 4.9009906 0 0 1 .247167-.00889 5.0346154 5.0346154 0 0 1 1.437119.1990327c.02723.00778.054.017222.08111.025666a5.0062405 5.0062405 0 0 1 .230787.076777 5.077157 5.077157 0 0 1 .166334.065223c.04478.018111.08956.036111.133588.055445a4.9355323 4.9355323 0 0 1 .204167.096111c.031.015334.06189.030666.09233.046556a5.0222821 5.0222821 0 0 1 .194789.1077777 4.491033 4.491033 0 0 1 .123.074 5.1257402 5.1257402 0 0 1 1.751161 1.8115416c-.534707-.375624-1.492082-.7465786-2.414458-.5861677 3.601702 1.8005834 2.634749 8.0011114-2.356028 7.7669914a4.4458248 4.4458248 0 0 1 -1.302963-.251301 5.5191979 5.5191979 0 0 1 -.294122-.120243c-.0564452-.025782-.1129552-.051782-.1687879-.080664-1.2228754-.631999-2.2326279-1.826374-2.3587942-3.276793 0 0 .4622099-1.722285 3.3097031-1.722285.307833 0 1.18783-.85892 1.204164-1.10804-.0034-.08134-1.74653-.7745845-2.4259511-1.4439927-.3630363-.3577081-.5354027-.530119-.6880354-.6595412a2.9874943 2.9874943 0 0 0 -.2593137-.1958307 4.6389495 4.6389495 0 0 1 -.0281109-2.4472047c-1.0286192.468421-1.8287394 1.2087969-2.4103601 1.8624951h-.00445c-.3969935-.5027875-.368949-2.1613721-.346327-2.5076601-.0044444-.0215554-.2961214.1512552-.3343324.1772551a7.3004028 7.3004028 0 0 0 -.9785753.8383312 8.7708166 8.7708166 0 0 0 -.9351308 1.1213748c0 .0005-.000289.00104-.0004555.00111 0-.0005.0002889-.00104.0004555-.00111a8.4515255 8.4515255 0 0 0 -1.3434966 3.0337482c-.00222.01111-.095444.418909-.1633329.922786a11.074729 11.074729 0 0 0 -.032.235454c-.023223.1515-.041333.316666-.059111.573621-.0008.01-.00111.01978-.00222.02966a24.631286 24.631286 0 0 0 -.02.333134c0 .01711-.00105.034-.00105.05111 0 5.52953 4.4833217 10.012061 10.0134852 10.012061 4.952699 0 9.064933-3.595322 9.870063-8.3179.017-.128121.03045-.256999.04556-.386254.199033-1.717074-.02211-3.521858-.649499-5.031109z" fill="#bebebe" stroke-width=".041666" />
</svg>
