<svg height="24" viewBox="0 0 24 24" width="24" xmlns="http://www.w3.org/2000/svg"><path d="m3.5336503 10.730048 5.2059045-5.2149115 1.5221412 1.5311483c-.216162.7655742.135102 1.6032024.837628 2.0085063v4.9897419c-.540405.30623-.900675.891669-.900675 1.558169a1.801351 1.801351 0 0 0 1.801351 1.801351 1.801351 1.801351 0 0 0 1.801351-1.801351c0-.6665-.36027-1.251939-.900675-1.558169v-4.3772829l1.864398 1.8824119c-.06305.135102-.06305.288216-.06305.450338a1.801351 1.801351 0 0 0 1.801351 1.801351 1.801351 1.801351 0 0 0 1.801351-1.801351 1.801351 1.801351 0 0 0 -1.801351-1.801351c-.162122 0-.315237 0-.450338.06305l-2.314733-2.3147387c.234175-.8376282-.198149-1.7563172-1.035777-2.1075807-.387291-.144108-.792595-.1801351-1.152865-.0810608l-1.531148-1.5221416.711534-.7025269c.702526-.7115336 1.837378-.7115336 2.539904 0l7.196398 7.1963977c.711533.702526.711533 1.837378 0 2.539904l-7.196398 7.196398c-.702526.711533-1.837378.711533-2.539904 0l-7.1963977-7.196398c-.7115336-.702526-.7115336-1.837378 0-2.539904z" fill="#bebebe" stroke-width=".900676"/></svg>