<svg height="24" viewBox="0 0 24 24" width="24" xmlns="http://www.w3.org/2000/svg">
  <path d="m2.5929447 10.588942 5.7843384-5.7943459 1.6912679 1.7012759c-.2401801.850638.150114 1.781336.930698 2.2316737v5.5441583c-.60045.340255-1.0007501.990743-1.0007501 1.731298a2.0015012 2.0015012 0 0 0 2.0015011 2.001502 2.0015012 2.0015012 0 0 0 2.001501-2.001502c0-.740555-.4003-1.391043-1.00075-1.731298v-4.8636481l2.071554 2.0915691c-.070056.150113-.070056.32024-.070056.500375a2.0015012 2.0015012 0 0 0 2.001501 2.001501 2.0015012 2.0015012 0 0 0 2.001501-2.001501 2.0015012 2.0015012 0 0 0 -2.001501-2.0015011c-.180135 0-.350263 0-.500375.07006l-2.571926-2.5719363c.260195-.9306981-.220165-1.9514636-1.150863-2.3417564-.430324-.16012-.880661-.2001501-1.280961-.0900676l-1.7012761-1.6912685.7905931-.7805854c.780585-.7905929 2.041532-.7905929 2.822116 0l7.995998 7.9959973c.790592.780585.790592 2.041532 0 2.822116l-7.995998 7.995998c-.780584.790592-2.041531.790592-2.822116 0l-7.9959973-7.995998c-.7905929-.780584-.7905929-2.041531 0-2.822116z" fill="#bebebe" stroke-width="1.00075" />
</svg>
