<svg height="24" viewBox="0 0 24 24" width="24" xmlns="http://www.w3.org/2000/svg"><path d="m11.073838 3.8092394c-.224053 0-.447701.052041-.663137.129598l-6.3418855 2.6273045c-.8789773.3619317-1.3010964 1.3715168-.9391646 2.2418766l4.273367 10.2971485c.2671402.663542.8966834 1.068359 1.560225 1.085594.2240531 0 .4559156-.04322.6799686-.138014l6.3519845-2.627304c.646307-.267141 1.043111-.905705 1.060346-1.543394.0086-.224053-.03521-.47443-.112766-.698483l-4.308712-10.2971486c-.249906-.6635416-.888066-1.0685606-1.560226-1.077178zm2.999268 0 2.972338 7.1867976v-5.4633128a1.7234848 1.7234848 0 0 0 -1.723484-1.7234848zm4.705921 1.3262754v7.7826112l2.093765-5.049272c.353315-.8789773-.05157-1.8883604-.939165-2.2502922zm-10.0699308 3.9182348 2.7838318 2.0769344-.378695 3.455385-2.7838321-2.085349z" fill="#bebebe" stroke-width=".861742"/></svg>