<svg height="24" viewBox="0 0 24 24" width="24" xmlns="http://www.w3.org/2000/svg">
  <path d="m15.333333 19.777778-6.6666663-2.344445v-13.2111108l6.6666663 2.3444445m6.111111-4.5666667c-.06667 0-.122222 0-.177777 0l-5.933334 2.3333333-6.6666663-2.3333333-6.2666667 2.1111111c-.2333333.0777778-.4.2777778-.4.5333333v16.7999996a.55555556.55555556 0 0 0 .5555556.555556c.055556 0 .1222222 0 .1777777-.03333l5.9333334-2.3 6.6666663 2.33333 6.266667-2.111111c.233333-.111111.4-.277778.4-.533333v-16.8000004a.55555556.55555556 0 0 0 -.555556-.5555556z" fill="#bebebe" stroke-width="1.11111" />
</svg>
