<svg height="24" viewBox="0 0 24 24" width="24" xmlns="http://www.w3.org/2000/svg">
  <path d="m17.833333 12c0 .255556-.02222.511111-.05555.755556l1.644444 1.288888c.144445.122223.188889.322223.08889.5l-1.555555 2.688889c-.1.166667-.3.233334-.477778.166667l-1.933334-.777778c-.4.311111-.844444.566667-1.322222.766667l-.277778 2.055555c-.03333.188889-.2.333334-.388888.333334h-3.111112c-.188888 0-.355555-.144445-.388888-.333334l-.277778-2.055555c-.488889-.2-.9222224-.455556-1.3222224-.766667l-1.9333394.777778c-.1777778.06667-.3777778 0-.4777778-.166667l-1.5555555-2.688889c-.1-.177777-.055556-.377777.088889-.5l1.6444444-1.288888c-.033333-.244445-.055555-.5-.055555-.755556s.022222-.511111.055555-.755556l-1.6444445-1.288888c-.1444445-.122223-.1888889-.333334-.088889-.5l1.5555556-2.6888893c.1-.1777778.3-.2444445.4777778-.1777778l1.9333334.7888889c.4-.3111111.8333334-.5777778 1.3222224-.7666667l.277778-2.0666667c.03333-.1777777.2-.3222222.388888-.3222222h3.111112c.188888 0 .355555.1444445.388888.3222222l.277778 2.0666667c.477778.1888889.922222.4555556 1.322222.7666667l1.933334-.7888889c.177778-.066667.377778 0 .477778.1777778l1.555555 2.6888893c.1.166666.05556.377777-.08889.5l-1.644444 1.288888c.03333.244445.05555.5.05555.755556m1.944451-10h-15.5555558c-1.2333333 0-2.2222222.9888889-2.2222222 2.2222222v15.5555558a2.2222222 2.2222222 0 0 0 2.2222222 2.222222h15.5555558a2.2222222 2.2222222 0 0 0 2.222222-2.222222v-15.5555558c0-1.2333333-1-2.2222222-2.222222-2.2222222m-7.777778 7.777778c-1.233333 0-2.222222.988889-2.222222 2.222222a2.2222222 2.2222222 0 0 0 2.222222 2.222222 2.2222222 2.2222222 0 0 0 2.222222-2.222222c0-1.233333-1-2.222222-2.222222-2.222222z" fill="#bebebe" stroke-width="1.11111" />
</svg>
