<?xml version="1.0" encoding="UTF-8" standalone="no"?>
<svg
   xmlns:dc="http://purl.org/dc/elements/1.1/"
   xmlns:cc="http://creativecommons.org/ns#"
   xmlns:rdf="http://www.w3.org/1999/02/22-rdf-syntax-ns#"
   xmlns:svg="http://www.w3.org/2000/svg"
   xmlns="http://www.w3.org/2000/svg"
   xmlns:sodipodi="http://sodipodi.sourceforge.net/DTD/sodipodi-0.dtd"
   xmlns:inkscape="http://www.inkscape.org/namespaces/inkscape"
   version="1.1"
   width="24"
   height="24"
   viewBox="0 0 24 24"
   id="svg2"
   inkscape:version="0.92.1 r15371"
   sodipodi:docname="gnome-books-symbolic.svg">
  <metadata
     id="metadata10">
    <rdf:RDF>
      <cc:Work
         rdf:about="">
        <dc:format>image/svg+xml</dc:format>
        <dc:type
           rdf:resource="http://purl.org/dc/dcmitype/StillImage" />
      </cc:Work>
    </rdf:RDF>
  </metadata>
  <defs
     id="defs8" />
  <sodipodi:namedview
     pagecolor="#ffffff"
     bordercolor="#666666"
     borderopacity="1"
     objecttolerance="10"
     gridtolerance="10"
     guidetolerance="10"
     inkscape:pageopacity="0"
     inkscape:pageshadow="2"
     inkscape:window-width="640"
     inkscape:window-height="480"
     id="namedview6"
     showgrid="false"
     inkscape:zoom="25.291667"
     inkscape:cx="4.9621087"
     inkscape:cy="12"
     inkscape:current-layer="svg2" />
  <path
     d="m 17.727273,3.8181803 -4.090909,3.6818182 v 9.0000005 l 4.090909,-3.681818 V 3.8181803 M 7.5,6.2727258 c -1.5954545,0 -3.3136364,0.3272727 -4.5,1.2272727 V 19.494544 c 0,0.204546 0.2045455,0.409091 0.4090909,0.409091 0.081818,0 0.1227273,-0.05727 0.2045455,-0.05727 1.1045454,-0.531818 2.7,-0.891818 3.8863636,-0.891818 1.5954545,0 3.313636,0.327273 4.5,1.227273 1.104545,-0.695455 3.109091,-1.227273 4.5,-1.227273 1.35,0 2.740909,0.253637 3.886364,0.867273 0.08182,0.04091 0.122727,0.02454 0.204545,0.02454 C 20.795455,19.846362 21,19.641817 21,19.437272 V 7.4999985 C 20.509091,7.1318167 19.977273,6.8863622 19.363636,6.6818167 v 1.636364 4.5000003 4.909091 c -0.9,-0.286364 -1.881818,-0.409091 -2.863636,-0.409091 -1.390909,0 -3.395455,0.531818 -4.5,1.227272 V 12.818181 9.1363617 7.4999985 c -1.186364,-0.9 -2.9045455,-1.2272727 -4.5,-1.2272727 z"
     id="path4"
     style="fill:#bebebe;fill-opacity:1;stroke-width:0.81818181"
     inkscape:connector-curvature="0" />
</svg>
