<svg height="24" viewBox="0 0 24 24" width="24" xmlns="http://www.w3.org/2000/svg">
  <g fill="#bebebe" stroke-width=".909091">
    <path d="m4 2c-1.1045694 0-2 .8954304-2 2v12c0 1.104569.8954306 2 2 2h4v3c0 .552286.4477152 1 1 1h.5c.25 0 .5-.1.7-.29l3.7-3.71h6.1c1.104569 0 2-.895431 2-2v-12c0-1.11-.9-2-2-2zm0 2h16v12h-6.92l-3.08 3.08v-3.08h-6z" />
    <path d="m14.447162 9.539076-.662166.676882c-.523883.535523-.572645.993391-.860818 2.08215-.06969.263302-1.366348.243981-1.471485 0-.02788-.903825.324018-1.897327.860819-2.45002l.912319-.9270336c.272226-.2648677.434088-.6327388.434088-1.0373966 0-.8166728-.662168-1.4714828-1.471482-1.4714828-.812679 0-1.471485.658805-1.471485 1.4714828h-1.471483c0-1.625355 1.317611-2.9429659 2.942968-2.9429659 1.625354 0 2.942965 1.3176109 2.942965 2.9429659 0 .6474533-.264866 1.2286882-.68424 1.6554182m-2.810532 4.230514c.259648-.260602.84301-.259649 1.103612 0 .261556.260599.261078.842533 0 1.103612-.260124.260125-.84349.260125-1.103612 0-.260123-.260124-.259648-.843012 0-1.103612z" />
  </g>
</svg>
