<svg height="24" viewBox="0 0 24 24" width="24" xmlns="http://www.w3.org/2000/svg"><path d="m14.763 11.325-.81.828c-.64084.655081-.70049 1.215171-1.053 2.547-.08525.322087-1.671393.298453-1.8 0-.0341-1.105607.396356-2.320915 1.053-2.997l1.116-1.134c.333-.324.531-.774.531-1.269 0-.999-.81-1.8-1.8-1.8-.994112 0-1.8.8058875-1.8 1.8h-1.8c0-1.9882251 1.611775-3.6 3.6-3.6s3.6 1.6117749 3.6 3.6c0 .792-.324 1.503-.837 2.025m-3.438 5.175c.317616-.318783 1.031217-.317616 1.35 0 .31995.318779.319365 1.030635 0 1.35-.318198.318198-1.031802.318198-1.35 0s-.317614-1.031219 0-1.35zm.675-13.5c-4.9705628 0-9 4.0294372-9 9 0 4.970562 4.0294372 9 9 9 4.970562 0 9-4.029438 9-9 0-4.977-4.05-9-9-9z" fill="#bebebe" stroke-width=".9"/></svg>