<svg height="24" viewBox="0 0 24 24" width="24" xmlns="http://www.w3.org/2000/svg">
  <path d="m15.07 11.25-.9.92c-.712044.727868-.778322 1.35019-1.17 2.83-.09472.357874-1.857103.331614-2 0-.03789-1.228452.440396-2.578794 1.17-3.33l1.24-1.26c.37-.36.59-.86.59-1.41 0-1.11-.9-2-2-2-1.104569 0-2 .8954306-2 2h-2c0-2.209139 1.790861-4 4-4s4 1.790861 4 4c0 .88-.36 1.67-.93 2.25m-3.82 5.75c.352907-.354203 1.145797-.352907 1.5 0 .3555.354199.35485 1.14515 0 1.5-.353553.353553-1.146447.353553-1.5 0s-.352904-1.145799 0-1.5zm.75-15c-5.5228476 0-10 4.4771524-10 10 0 5.522847 4.4771524 10 10 10 5.522847 0 10-4.477153 10-10 0-5.53-4.5-10-10-10z" fill="#bebebe" />
</svg>
