<?xml version="1.0" encoding="UTF-8" standalone="no"?>
<svg
   xmlns:dc="http://purl.org/dc/elements/1.1/"
   xmlns:cc="http://creativecommons.org/ns#"
   xmlns:rdf="http://www.w3.org/1999/02/22-rdf-syntax-ns#"
   xmlns:svg="http://www.w3.org/2000/svg"
   xmlns="http://www.w3.org/2000/svg"
   xmlns:sodipodi="http://sodipodi.sourceforge.net/DTD/sodipodi-0.dtd"
   xmlns:inkscape="http://www.inkscape.org/namespaces/inkscape"
   version="1.1"
   width="24"
   height="24"
   viewBox="0 0 24 24"
   id="svg2"
   inkscape:version="0.92.1 r15371"
   sodipodi:docname="help-browser-symbolic.svg">
  <metadata
     id="metadata10">
    <rdf:RDF>
      <cc:Work
         rdf:about="">
        <dc:format>image/svg+xml</dc:format>
        <dc:type
           rdf:resource="http://purl.org/dc/dcmitype/StillImage" />
      </cc:Work>
    </rdf:RDF>
  </metadata>
  <defs
     id="defs8" />
  <sodipodi:namedview
     pagecolor="#ffffff"
     bordercolor="#666666"
     borderopacity="1"
     objecttolerance="10"
     gridtolerance="10"
     guidetolerance="10"
     inkscape:pageopacity="0"
     inkscape:pageshadow="2"
     inkscape:window-width="640"
     inkscape:window-height="480"
     id="namedview6"
     showgrid="false"
     inkscape:zoom="16"
     inkscape:cx="-2.171485"
     inkscape:cy="12.766261"
     inkscape:current-layer="svg2" />
  <path
     d="m 14.763,11.325 -0.81,0.828 c -0.64084,0.655081 -0.70049,1.215171 -1.053,2.547 -0.08525,0.322087 -1.671393,0.298453 -1.8,0 -0.0341,-1.105607 0.396356,-2.320915 1.053,-2.997 l 1.116,-1.134 C 13.602,10.245 13.8,9.795 13.8,9.3 13.8,8.301 12.99,7.5 12,7.5 11.005888,7.5 10.2,8.3058875 10.2,9.3 H 8.4 c 0,-1.9882251 1.611775,-3.6 3.6,-3.6 1.988225,0 3.6,1.6117749 3.6,3.6 0,0.792 -0.324,1.503 -0.837,2.025 M 11.325,16.5 c 0.317616,-0.318783 1.031217,-0.317616 1.35,0 0.31995,0.318779 0.319365,1.030635 0,1.35 -0.318198,0.318198 -1.031802,0.318198 -1.35,0 -0.318198,-0.318198 -0.317614,-1.031219 0,-1.35 z M 12,3 c -4.9705628,0 -9,4.0294372 -9,9 0,4.970562 4.0294372,9 9,9 4.970562,0 9,-4.029438 9,-9 0,-4.977 -4.05,-9 -9,-9 z"
     id="path4"
     style="fill:#bebebe;fill-opacity:1;stroke-width:0.89999998"
     inkscape:connector-curvature="0"
     sodipodi:nodetypes="csscccssccsscssssssssss" />
</svg>
