<svg height="24" viewBox="0 0 24 24" width="24" xmlns="http://www.w3.org/2000/svg">
  <g fill="#bebebe" stroke-width=".909091">
    <path d="m12 2c-5.5228474 0-10 4.4771524-10 10 0 5.522848 4.4771526 10 10 10 5.522848 0 10-4.477152 10-10 0-5.5228476-4.477152-10-10-10m0 18c-4.41 0-8-3.59-8-8s3.59-8 8-8 8 3.59 8 8-3.59 8-8 8" />
    <path d="m14.790909 11.53167-.818181.836362c-.647315.661699-.707566 1.227446-1.063637 2.572728-.08611.32534-1.688274.301468-1.818182 0-.03446-1.116774.400359-2.344358 1.063637-3.027272l1.127272-1.145454c.336364-.327272.536364-.781818.536364-1.281818 0-1.0090904-.818182-1.8181816-1.818181-1.8181816-1.004154 0-1.818184.8140267-1.818184 1.8181816h-1.8181807c0-2.0083088 1.6280557-3.6363642 3.6363647-3.6363642 2.008307 0 3.636362 1.6280554 3.636362 3.6363642 0 .8-.327271 1.518182-.845454 2.045454m-3.472726 5.227271c.320825-.322003 1.041633-.320825 1.363635 0 .323183.321999.322592 1.041045 0 1.363636-.321411.321412-1.042225.321412-1.363635 0-.321412-.321413-.320824-1.041636 0-1.363636z" />
  </g>
</svg>
