<?xml version="1.0" encoding="UTF-8" standalone="no"?>
<svg
   xmlns:dc="http://purl.org/dc/elements/1.1/"
   xmlns:cc="http://creativecommons.org/ns#"
   xmlns:rdf="http://www.w3.org/1999/02/22-rdf-syntax-ns#"
   xmlns:svg="http://www.w3.org/2000/svg"
   xmlns="http://www.w3.org/2000/svg"
   xmlns:sodipodi="http://sodipodi.sourceforge.net/DTD/sodipodi-0.dtd"
   xmlns:inkscape="http://www.inkscape.org/namespaces/inkscape"
   version="1.1"
   width="24"
   height="24"
   viewBox="0 0 24 24"
   id="svg2"
   inkscape:version="0.91 r13725"
   sodipodi:docname="help-browser-symbolic.svg">
  <metadata
     id="metadata10">
    <rdf:RDF>
      <cc:Work
         rdf:about="">
        <dc:format>image/svg+xml</dc:format>
        <dc:type
           rdf:resource="http://purl.org/dc/dcmitype/StillImage" />
      </cc:Work>
    </rdf:RDF>
  </metadata>
  <defs
     id="defs8" />
  <sodipodi:namedview
     pagecolor="#ffffff"
     bordercolor="#666666"
     borderopacity="1"
     objecttolerance="10"
     gridtolerance="10"
     guidetolerance="10"
     inkscape:pageopacity="0"
     inkscape:pageshadow="2"
     inkscape:window-width="640"
     inkscape:window-height="480"
     id="namedview6"
     showgrid="false"
     inkscape:zoom="16"
     inkscape:cx="-2.171485"
     inkscape:cy="12.766261"
     inkscape:current-layer="svg2" />
  <path
     d="m 15.07,11.25 -0.9,0.92 C 13.457955,12.897868 13.391678,13.52019 13,15 c -0.09472,0.357874 -1.857103,0.331614 -2,0 -0.03789,-1.228452 0.440395,-2.578794 1.17,-3.33 l 1.24,-1.26 C 13.78,10.05 14,9.55 14,9 14,7.89 13.1,7 12,7 10.895431,7 10,7.8954305 10,9 L 8,9 c 0,-2.209139 1.790861,-4 4,-4 2.209139,0 4,1.790861 4,4 0,0.88 -0.36,1.67 -0.93,2.25 M 11.25,17 c 0.352907,-0.354203 1.145797,-0.352907 1.5,0 0.3555,0.354199 0.35485,1.14515 0,1.5 -0.353553,0.353553 -1.146447,0.353553 -1.5,0 -0.353553,-0.353553 -0.352905,-1.145799 0,-1.5 z M 12,2 C 6.4771525,2 2,6.4771525 2,12 2,17.522847 6.4771525,22 12,22 17.522847,22 22,17.522847 22,12 22,6.47 17.5,2 12,2 Z"
     id="path4"
     style="fill:#bebebe;fill-opacity:1"
     inkscape:connector-curvature="0"
     sodipodi:nodetypes="csscccssccsscssssssssss" />
</svg>
