<svg height="24" viewBox="0 0 24 24" width="24" xmlns="http://www.w3.org/2000/svg">
  <path d="m11.876816 1.1747458c-.677496.000388-1.346249.246803-1.827092.73786l-8.0854056 8.2894142c-3.0617233 3.064228 1.984489 2.805781 3.811433 3.963.844728.549204-2.708362 1.258079-1.981363 1.984031.70736.725961 4.262304 1.391152 4.969654 2.097481.70736.725962-1.433208 1.492313-.725848 2.218277.687726.725974 2.3367566.03865 2.6322536 1.687528.2167 1.217024 3.024906.606612 4.28112-.434561.785126-.667911-1.355809-.66665-.649269-1.39341 1.76637-1.787455 3.338251-.807412 3.985359-2.456816.352976-.883613-2.672436-1.509717-1.86762-2.079482 1.923714-1.355653 8.99415-2.046994 5.732479-5.303964l-8.390854-8.5735182c-.52067-.490492-1.207351-.736223-1.884847-.73584zm.06893.42321c.486031.0022.970973.184696 1.32465.537861l3.202988 3.256911c.294729.294305.295721.902665.119084 1.079448l-1.5915-1.295028-.313399 1.904188-1.316094-.705653-2.139004 1.354949-.708995-2.845805-1.1381666 2.474-2.84719-.01719c-.549853.000312-.471722-.56978.09744-1.13941 1.118642-1.237412 3.296828-3.339021 3.9837346-4.065769.35327-.36338.84048-.540675 1.326512-.538495zm8.950069 15.2768862c-.679937.02492-1.371032.364443-1.547413.992748.000229.412257 3.201031.646566 3.023873-.09933-.127998-.628132-.796525-.918343-1.47646-.89342zm-1.939676 1.856952c-.902861.825029.157345 1.688456 1.040715 1.118645.235561-.157183-.01946-.922907-1.040715-1.118645zm-11.8758346-.0641c-.97946-.06755-2.23415.666188-1.379509 1.38716.726944.627795 1.825939-.138568 2.178915-1.022181-.176868-.230569-.472919-.342465-.799406-.364979z" fill="#bebebe" stroke-width=".86859" />
</svg>
