<svg height="24" viewBox="0 0 24 24" width="24" xmlns="http://www.w3.org/2000/svg">
  <path d="m18.255402 3.0000001-7.856092 2.143993c-.5902216.166929-1.0664076.830591-1.0664076 1.475533v10.2258849c-.598501-.330775-1.367214-.464469-2.164114-.245921-1.4380166.394368-2.3382271 1.668538-2.0299745 2.845989.3082533 1.177451 1.7254375 1.834139 3.1634515 1.439761 1.14724-.314622 1.9373856-1.20303 2.0635096-2.141756l.03353-9.6647379 7.458146-2.108223v7.6258199c-.598508-.330777-1.367218-.464473-2.164114-.245922-1.438018.394369-2.340462 1.66853-2.032211 2.845989.308253 1.177449 1.72544 1.834138 3.163452 1.439762 1.147243-.314626 1.937387-1.203028 2.06351-2.141758l.03354-12.5800309c0-.483705-.283589-.846344-.666225-.914383z" fill="#bebebe" />
</svg>
