<svg height="24" viewBox="0 0 24 24" width="24" xmlns="http://www.w3.org/2000/svg">
  <path d="m12.015625 7.4472656c-2.0760009 0-3.8349816 1.4100554-4.3769531 3.3183594-.4721557-1.0128239-1.4942672-1.726556-2.6777344-1.7265625-1.6246949 0-2.9609311 1.3362495-2.9609375 2.9609375.0000064 1.624689 1.336249 2.960935 2.9609375 2.960938 1.1834672 0 2.2055851-.713373 2.6777344-1.726563.5420806 1.908144 2.3010802 3.318353 4.3769531 3.318359 2.062379-.000006 3.812884-1.39009 4.367187-3.279296.480123.992497 1.487906 1.687492 2.65625 1.6875 1.62469 0 2.960938-1.336249 2.960938-2.960938 0-1.624688-1.336241-2.960931-2.960938-2.9609375-1.168337 0-2.176127.6953659-2.65625 1.6874995-.554238-1.8893147-2.304744-3.2792964-4.367187-3.2792964zm0 1.7382813c1.564932 0 2.81446 1.2495221 2.814453 2.8144531.000007 1.564925-1.249528 2.816406-2.814453 2.816406-1.564932 0-2.8144467-1.251481-2.8144531-2.816406.0000064-1.564925 1.2495281-2.8144595 2.8144531-2.8144531zm-7.0546875 1.5917971c.6856281 0 1.2206966.537028 1.2207031 1.222656-.0000065.685628-.5350814 1.224603-1.2207031 1.224609-.6856281 0-1.2226563-.538981-1.2226563-1.224609 0-.685634.5370282-1.222656 1.2226563-1.222656zm14.0781245 0c.685629 0 1.222657.537028 1.222657 1.222656 0 .685634-.537029 1.224609-1.222657 1.224609-.685621 0-1.222663-.538981-1.222656-1.224609 0-.685628.537035-1.222662 1.222656-1.222656z" fill="#bebebe" />
</svg>
