<svg height="24" viewBox="0 0 24 24" width="24" xmlns="http://www.w3.org/2000/svg">
  <path d="m5.3726657 2.189825c-.4582781 0-.8971415.1806618-1.1926092.4898675-.2954676.3092056-.4452477.7130704-.4873028 1.13362v-.0153885l-1.6876062 13.311058a.6249873.6249873 0 0 0 -.00257.07951h-.00257l.00257.03078a.6249873.6249873 0 0 0 .00769.07694l.3000759 3.588088c.062492.513512.4368822.925875 1.061807.925875h17.3172096c.624924 0 .999314-.412363 1.061805-.925875l.246217-3.672724.0026-.02308h-.0026a.6249873.6249873 0 0 0 -.0026-.07951l-1.687581-13.3110584a.6249873.6249873 0 0 0 -.0077-.043601c-.076486-.3825092-.21429-.7572237-.494982-1.0643751-.28069-.3071513-.718941-.5001265-1.17722-.5001265zm0 1.2490338h13.2546333c.166645 0 .194512.027092.256476.094896.06116.06692.138553.222049.187226.4590905l1.656829 13.0597127-.08207.135931h-4.270313-.625799-12.4852077l-.0051273-.023082 1.6747825-13.2084676a.6249873.6249873 0 0 0 .00256-.017954c.0204378-.2043752.0859302-.3292227.1487581-.3949718.0628278-.0657496.1206052-.1051547.2872521-.1051548zm6.6940003 1.80302c-3.068102 0-5.5911572 1.4571101-5.5911572 3.2315863 0 1.7744759 2.5230551 3.2341519 5.5911572 3.2341519 3.068115 0 5.588592-1.459676 5.588592-3.2341519 0-1.7744762-2.520477-3.2315863-5.588592-3.2315863zm0 2.308276c.87729 0 1.595275.4159213 1.595275.9233103 0 .507376-.717985.9233105-1.595275.9233105-.877265 0-1.59784-.4159345-1.59784-.9233105 0-.507389.720575-.9233103 1.59784-.9233103z" fill="#bebebe" />
</svg>
