<svg height="24" viewBox="0 0 24 24" width="24" xmlns="http://www.w3.org/2000/svg">
  <path d="m11.056199 6.59337c-1.4885885 0-2.6909805 1.2026731-2.6909805 2.690981 0 .613442.202583 1.179151.547068 1.631347.747329-.8649 1.8512755-1.414491 3.0827995-1.414491.602503 0 1.173228.133071 1.688024.369641.04166-.188499.06407-.385507.06407-.586497 0-1.4883079-1.20239-2.690981-2.690981-2.690981zm-3.5165112 1.2395275v.00744c-.7752627 0-1.3972407.6268507-1.3972407 1.4021685 0 .250701.065218.487114.1798915.689996.4678026-.263697 1.0075995-.416461 1.5820604-.416461h.1651065c-.0062-.07823-.01236-.157714-.01236-.23657 0-.43163.09396-.8414799.258748-1.2124214-.221878-.1498866-.4882251-.2341016-.7762435-.2341016zm6.6387412.9709217c-.05728 0-.111181.0007885-.167571.01972.0244.1529188.04189.3100608.04189.4706758 0 .249566-.0308.490255-.08871.722031.679129.375735 1.242498.937073 1.614097 1.619025.385437-.200863.815165-.326787 1.271562-.357319-.117618-1.378918-1.261345-2.4642688-2.671269-2.4642688zm-2.183343 1.0029578c-2.0829865 0-3.7678665 1.685296-3.7678665 3.767867 0 2.082572 1.684744 3.767867 3.7678665 3.767867 2.083117 0 3.767868-1.685295 3.767868-3.767867 0-2.082824-1.684884-3.767867-3.767868-3.767867zm-4.090687.01237v.0074c-1.6160558 0-2.9226229 1.307008-2.9226229 2.922622 0 .9512.4533549 1.792821 1.1557428 2.32627.2961197-.570795.8901372-.961065 1.5771321-.961065.08302 0 .1639296.01966.2439624.02218-.02512-.182821-.036968-.369754-.036968-.559389 0-.906283.2942751-1.742881.795959-2.419912-.300325-.375736-.514604-.829036-.60621-1.320848-.06791 0-.137891-.01725-.2069991-.01725zm9.162151 1.747166c-.490703 0-.951945.125135-1.357809.337605.230445.510613.359783 1.077082.359783 1.673238 0 1.115726-.44981 2.129867-1.177921 2.865946.534881.593505 1.312754.963528 2.175949.963528 1.616056 0 2.922624-1.307009 2.922624-2.922623 0-1.615865-1.306635-2.917694-2.922626-2.917694zm-12.3706283.38688c-1.4880571-.000631-2.6959107 1.194902-2.6959107 2.683589 0 1.488056 1.2072543 2.695911 2.6959107 2.695911.566603 0 1.0917855-.174242 1.525382-.47314-.179166-.278206-.2833905-.611454-.2833905-.965993 0-.183957.026862-.360557.078857-.527354-.8117276-.586567-1.3405627-1.540819-1.3405627-2.617054 0-.273412.034331-.537428.098577-.791031-.02666-.00063-.051995 0-.078857 0zm15.8255353 2.30902c-.07941 0-.155721.01966-.231642.02218.0043.06813.0049.132676.0049.20207 0 .857707-.336825 1.636634-.884672 2.215378.269528.313282.663362.510103 1.111385.510103.81606 0 1.478561-.655097 1.478561-1.471168 0-.815945-.662467-1.476097-1.478561-1.476097zm-12.8068059.157713v.0024c-.8159956 0-1.4711691.65535-1.4711691 1.471169 0 .815945.6551671 1.476096 1.4711691 1.476096.6254954 0 1.1569994-.390044 1.3725974-.938886-.526082-.535716-.904892-1.217297-1.071957-1.97634-.09777-.02019-.1968348-.03449-.3006404-.03449z" fill="#bebebe" />
</svg>
