<svg xmlns="http://www.w3.org/2000/svg" viewBox="0 0 24 24">
  <path fill="#bebebe" d="M11.86 9.136l2.595 2.586v-.131A2.455 2.455 0 0 0 12 9.136h-.14m-3.517.655l1.268 1.268a2.253 2.253 0 0 0-.066.532A2.455 2.455 0 0 0 12 14.045c.18 0 .36-.024.532-.065l1.268 1.268a4.055 4.055 0 0 1-1.8.434 4.09 4.09 0 0 1-4.09-4.091c0-.646.163-1.252.433-1.8M3.818 5.266l1.866 1.866.368.368A9.681 9.681 0 0 0 3 11.59c1.415 3.593 4.91 6.137 9 6.137 1.268 0 2.48-.245 3.584-.687l.351.344 2.39 2.389 1.039-1.04L4.857 4.228M12 7.5a4.09 4.09 0 0 1 4.09 4.09c0 .525-.105 1.032-.294 1.49l2.398 2.397A9.69 9.69 0 0 0 21 11.591c-1.415-3.592-4.91-6.136-9-6.136a9.692 9.692 0 0 0-3.273.572l1.776 1.76c.466-.18.965-.287 1.497-.287z"/>
</svg>
