<svg enable-background="new 0 0 64 64" height="24" viewBox="0 0 24 24" width="24" xmlns="http://www.w3.org/2000/svg">
  <path d="m17 12c0 2.625-1.4375 5-3.4375 5 2 0 3.4375 2.375 3.4375 5 0-2.625 1.4375-5 3.4375-5-2 0-3.4375-2.375-3.4375-5m1.5625-10c0 2.625-1.4375 5-3.4375 5 2 0 3.4375 2.375 3.4375 5 0-2.625 1.4375-5 3.4375-5-2 0-3.4375-2.375-3.4375-5m-9.6875 0c0 5.28125-2.84375 10-6.875 10 4.03125 0 6.875 4.71875 6.875 10 0-5.28125 2.84375-10 6.875-10-4.03125 0-6.875-4.71875-6.875-10" fill="#b3b3b3" stroke-width="1.42857" />
</svg>
