<svg xmlns="http://www.w3.org/2000/svg" viewBox="0 0 24 24">
  <path fill="#bebebe" d="M3.93 5C3.414 5 3 5.453 3 6.016v11.968c0 .563.414 1.016.93 1.016h16.14c.516 0 .93-.453.93-1.016V6.016C21 5.453 20.586 5 20.07 5H3.93zM12 9.148c1.51 0 2.937.668 3.914 1.83a.364.364 0 1 1-.559.47A4.378 4.378 0 0 0 12 9.877a4.379 4.379 0 0 0-3.355 1.571.362.362 0 0 1-.514.043.364.364 0 0 1-.045-.513A5.105 5.105 0 0 1 12 9.149zm0 1.55c1.079 0 2.099.474 2.797 1.304a.366.366 0 0 1-.56.47 2.916 2.916 0 0 0-4.473 0 .364.364 0 0 1-.516.046.366.366 0 0 1-.045-.516A3.647 3.647 0 0 1 12 10.697zm0 1.605c.648 0 1.26.287 1.678.785a.364.364 0 1 1-.559.469 1.46 1.46 0 0 0-2.238 0 .364.364 0 0 1-.514.045.364.364 0 0 1-.045-.514A2.189 2.189 0 0 1 12 12.303zm-.031 1.386c.285-.027.582.134.633.561a.602.602 0 0 1-1.204 0c.01-.318.285-.533.57-.56z"/>
</svg>
