<?xml version="1.0" encoding="UTF-8" standalone="no"?>
<svg
   xmlns:dc="http://purl.org/dc/elements/1.1/"
   xmlns:cc="http://creativecommons.org/ns#"
   xmlns:rdf="http://www.w3.org/1999/02/22-rdf-syntax-ns#"
   xmlns:svg="http://www.w3.org/2000/svg"
   xmlns="http://www.w3.org/2000/svg"
   xmlns:sodipodi="http://sodipodi.sourceforge.net/DTD/sodipodi-0.dtd"
   xmlns:inkscape="http://www.inkscape.org/namespaces/inkscape"
   version="1.1"
   width="24"
   height="24"
   viewBox="0 0 24 24"
   id="svg2"
   inkscape:version="0.92.1 r15371"
   sodipodi:docname="preferences-system-sharing.svg">
  <metadata
     id="metadata10">
    <rdf:RDF>
      <cc:Work
         rdf:about="">
        <dc:format>image/svg+xml</dc:format>
        <dc:type
           rdf:resource="http://purl.org/dc/dcmitype/StillImage" />
        <dc:title />
      </cc:Work>
    </rdf:RDF>
  </metadata>
  <defs
     id="defs8" />
  <sodipodi:namedview
     pagecolor="#ffffff"
     bordercolor="#666666"
     borderopacity="1"
     objecttolerance="10"
     gridtolerance="10"
     guidetolerance="10"
     inkscape:pageopacity="0"
     inkscape:pageshadow="2"
     inkscape:window-width="640"
     inkscape:window-height="480"
     id="namedview6"
     showgrid="false"
     inkscape:zoom="25.291667"
     inkscape:cx="4.9621087"
     inkscape:cy="12"
     inkscape:current-layer="svg2" />
  <path
     d="m 17.42441,15.729282 c -0.687092,0 -1.301859,0.27122 -1.771974,0.696132 L 9.2064287,12.673531 c 0.045203,-0.207936 0.081366,-0.415872 0.081366,-0.632848 0,-0.216976 -0.036163,-0.424912 -0.081366,-0.632848 L 15.58011,7.6921145 c 0.488197,0.4520342 1.130086,0.7322953 1.8443,0.7322953 A 2.7122049,2.7122049 0 0 0 20.136615,5.7122049 2.7122049,2.7122049 0 0 0 17.42441,3 2.7122049,2.7122049 0 0 0 14.712205,5.7122049 c 0,0.2169764 0.03616,0.4249121 0.08137,0.6328478 L 8.4198893,10.060773 C 7.9316924,9.608739 7.2898039,9.328478 6.5755899,9.328478 a 2.7122049,2.7122049 0 0 0 -2.7122049,2.712205 2.7122049,2.7122049 0 0 0 2.7122049,2.712205 c 0.714214,0 1.3561025,-0.280261 1.8442994,-0.732295 l 6.4369667,3.751883 c -0.0452,0.189854 -0.07233,0.38875 -0.07233,0.596685 0,1.45555 1.18433,2.630839 2.63988,2.630839 1.45555,0 2.639879,-1.175289 2.639879,-2.630839 a 2.6398795,2.6398795 0 0 0 -2.639879,-2.639879 z"
     id="path4"
     style="fill:#bebebe;fill-opacity:1;stroke-width:0.90406829"
     inkscape:connector-curvature="0" />
</svg>
