<svg height="24" viewBox="0 0 24 24" width="24" xmlns="http://www.w3.org/2000/svg" xmlns:xlink="http://www.w3.org/1999/xlink">
  <linearGradient id="a" gradientUnits="userSpaceOnUse" x1="7.326386" x2="7.326386" y1="27.544516" y2="-23.566637">
    <stop offset="0" stop-color="#3889e9" />
    <stop offset="1" stop-color="#5ea5fb" />
  </linearGradient>
  <path d="m11.845454 8.8181814 2.881818 2.8727276c0-.04545 0-.1 0-.145454a2.7272728 2.7272728 0 0 0 -2.727272-2.7272736c-.05454 0-.1 0-.154546 0m-3.9090903.7272733 1.4090913 1.4090913c-.045455.190909-.072728.381818-.072728.590909a2.7272728 2.7272728 0 0 0 2.727273 2.727272c.2 0 .4-.02727.590909-.07272l1.409091 1.409084c-.609091.3-1.281818.481818-2 .481818a4.5454546 4.5454546 0 0 1 -4.5454546-4.545454c0-.718182.1818183-1.390909.4818183-2.0000003m-5.0272728-5.027273 2.0727273 2.0727273.4090909.4090909c-1.5 1.1818182-2.6818182 2.7272728-3.3909091 4.5454551 1.5727272 3.990909 5.4545454 6.818181 10 6.818181 1.409091 0 2.754546-.272727 3.981818-.763636l.39091.381818 2.654544 2.654546 1.154546-1.154546-16.1181817-16.1181816m7.9363637 3.6363635a4.5454546 4.5454546 0 0 1 4.545454 4.5454551c0 .581818-.118182 1.145454-.327272 1.654545l2.663636 2.663636c1.363636-1.136363 2.454545-2.627272 3.118182-4.318181-1.572728-3.9909093-5.454546-6.8181824-10-6.8181824-1.272727 0-2.490909.2272727-3.6363637.6363637l1.9727267 1.954545c.518183-.1999996 1.072728-.3181814 1.663637-.3181814z" fill="#bebebe" stroke-width=".909091" />
  <circle cx="9.15169" cy="1.988803" fill="url(#a)" r="0" stroke-width="1.11111" />
</svg>
