<svg height="24" viewBox="0 0 24 24" width="24" xmlns="http://www.w3.org/2000/svg"><path d="m12.9 8.1234047a.9.9 0 0 1 -.9.9.9.9 0 0 1 -.9-.9.9.9 0 0 1  .9-.9.9.9 0 0 1  .9.9zm-1.13933 2.2531903h.478659c.366012 0 .660671.230658.660671.517171v5.365659c0 .286512-.294659.51717-.660671.51717h-.478659c-.366011 0-.66067-.230658-.66067-.51717v-5.365659c0-.286513.294659-.517171.66067-.517171z" fill="#bebebe"/><path d="m12 3c-4.9705627 0-9 4.0294372-9 9 0 4.970563 4.0294373 9 9 9 4.970563 0 9-4.029437 9-9 0-4.9705628-4.029437-9-9-9zm0 1.8007812c3.969 0 7.199219 3.2302188 7.199219 7.1992188s-3.230219 7.199219-7.199219 7.199219-7.1992188-3.230219-7.1992188-7.199219 3.2302188-7.1992188 7.1992188-7.1992188z" fill="#bebebe"/></svg>