<?xml version="1.0" encoding="UTF-8" standalone="no"?>
<svg
   xmlns:dc="http://purl.org/dc/elements/1.1/"
   xmlns:cc="http://creativecommons.org/ns#"
   xmlns:rdf="http://www.w3.org/1999/02/22-rdf-syntax-ns#"
   xmlns:svg="http://www.w3.org/2000/svg"
   xmlns="http://www.w3.org/2000/svg"
   xmlns:sodipodi="http://sodipodi.sourceforge.net/DTD/sodipodi-0.dtd"
   xmlns:inkscape="http://www.inkscape.org/namespaces/inkscape"
   viewBox="0 0 24 24"
   enable-background="new 0 0 64 64"
   id="svg2"
   version="1.1"
   inkscape:version="0.92.1 r15371"
   sodipodi:docname="preferences-desktop-screensaver-symbolic.svg"
   width="24"
   height="24">
  <metadata
     id="metadata14">
    <rdf:RDF>
      <cc:Work
         rdf:about="">
        <dc:format>image/svg+xml</dc:format>
        <dc:type
           rdf:resource="http://purl.org/dc/dcmitype/StillImage" />
        <dc:title></dc:title>
      </cc:Work>
    </rdf:RDF>
  </metadata>
  <defs
     id="defs12" />
  <sodipodi:namedview
     pagecolor="#ffffff"
     bordercolor="#666666"
     borderopacity="1"
     objecttolerance="10"
     gridtolerance="10"
     guidetolerance="10"
     inkscape:pageopacity="0"
     inkscape:pageshadow="2"
     inkscape:window-width="640"
     inkscape:window-height="480"
     id="namedview10"
     showgrid="false"
     inkscape:zoom="9.484375"
     inkscape:cx="-3.6375617"
     inkscape:cy="-1.7397035"
     inkscape:current-layer="svg2" />
  <path
     id="path8"
     style="fill:#b3b3b3;fill-opacity:1;stroke-width:1.28571427"
     d="m 16.5,12 c 0,2.3625 -1.29375,4.5 -3.09375,4.5 1.8,0 3.09375,2.1375 3.09375,4.5 0,-2.3625 1.29375,-4.5 3.09375,-4.5 C 17.79375,16.5 16.5,14.3625 16.5,12 m 1.40625,-9 c 0,2.3625 -1.29375,4.5 -3.09375,4.5 1.8,0 3.09375,2.1375 3.09375,4.5 C 17.90625,9.6375 19.2,7.5 21,7.5 19.2,7.5 17.90625,5.3625 17.90625,3 M 9.1875,3 c 0,4.753125 -2.559375,9 -6.1875,9 3.628125,0 6.1875,4.246875 6.1875,9 0,-4.753125 2.559375,-9 6.1875,-9 C 11.746875,12 9.1875,7.753125 9.1875,3"
     inkscape:connector-curvature="0" />
</svg>
