<svg enable-background="new 0 0 64 64" height="24" viewBox="0 0 24 24" width="24" xmlns="http://www.w3.org/2000/svg"><path d="m16.5 12c0 2.3625-1.29375 4.5-3.09375 4.5 1.8 0 3.09375 2.1375 3.09375 4.5 0-2.3625 1.29375-4.5 3.09375-4.5-1.8 0-3.09375-2.1375-3.09375-4.5m1.40625-9c0 2.3625-1.29375 4.5-3.09375 4.5 1.8 0 3.09375 2.1375 3.09375 4.5 0-2.3625 1.29375-4.5 3.09375-4.5-1.8 0-3.09375-2.1375-3.09375-4.5m-8.71875 0c0 4.753125-2.559375 9-6.1875 9 3.628125 0 6.1875 4.246875 6.1875 9 0-4.753125 2.559375-9 6.1875-9-3.628125 0-6.1875-4.246875-6.1875-9" fill="#b3b3b3" stroke-width="1.285714"/></svg>