<svg xmlns="http://www.w3.org/2000/svg" viewBox="0 0 24 24">
  <path fill="#bebebe" d="M17.424 15.73c-.687 0-1.301.27-1.772.695l-6.446-3.751a2.96 2.96 0 0 0 .082-.633 2.96 2.96 0 0 0-.082-.633l6.374-3.716a2.7 2.7 0 0 0 1.844.732 2.712 2.712 0 0 0 2.713-2.712A2.712 2.712 0 0 0 17.424 3a2.712 2.712 0 0 0-2.712 2.712c0 .217.036.425.082.633L8.42 10.061a2.7 2.7 0 0 0-1.844-.733 2.712 2.712 0 0 0-2.713 2.713 2.712 2.712 0 0 0 2.713 2.712 2.7 2.7 0 0 0 1.844-.732l6.437 3.751c-.045.19-.072.39-.072.597A2.635 2.635 0 0 0 17.425 21a2.635 2.635 0 0 0 2.64-2.63 2.64 2.64 0 0 0-2.64-2.64z"/>
</svg>
