<svg height="24" viewBox="0 0 24 24" width="24" xmlns="http://www.w3.org/2000/svg">
  <path d="m18.027122 16.143647c-.763436 0-1.44651.301355-1.96886.77348l-7.1622303-4.168759c.050226-.23104.090407-.46208.090407-.703165 0-.241084-.040181-.472124-.090407-.703164l7.0818673-4.1285784c.542441.5022602 1.255651.8136614 2.049223.8136614a3.013561 3.013561 0 0 0 3.013561-3.013561 3.013561 3.013561 0 0 0 -3.013561-3.013561 3.013561 3.013561 0 0 0 -3.013562 3.013561c0 .2410849.04018.4721246.09041.7031642l-7.0818709 4.1285778c-.542441-.50226-1.2556505-.813661-2.0492216-.813661a3.013561 3.013561 0 0 0 -3.013561 3.013561 3.013561 3.013561 0 0 0 3.013561 3.013561c.7935711 0 1.5067806-.311401 2.0492216-.813661l7.1521849 4.168759c-.05022.210949-.08037.431945-.08037.662984 0 1.617277 1.315922 2.923154 2.9332 2.923154s2.933199-1.305877 2.933199-2.923154a2.9331994 2.9331994 0 0 0 -2.933199-2.933199z" fill="#bebebe" stroke-width="1.00452" />
</svg>
