<svg height="24" viewBox="0 0 24 24" width="24" xmlns="http://www.w3.org/2000/svg">
  <path d="m12.002044 15.15a3.2383673 3.1499999 0 0 1 -3.2383689-3.150002 3.2383673 3.1499999 0 0 1 3.2383689-3.1499981 3.2383673 3.1499999 0 0 1 3.238367 3.1499981 3.2383673 3.1499999 0 0 1 -3.238367 3.150002m6.874591-2.277002c.03701-.288.06477-.576.06477-.873s-.02776-.594-.06477-.899998l1.952273-1.4670001c.175797-.135.22206-.3779998.11103-.576l-1.850496-3.114c-.11103-.198-.360846-.279-.564401-.198l-2.303867.8999999c-.481129-.351-.980763-.6569999-1.563669-.882l-.342341-2.3849998c-.03701-.216-.231312-.378-.462624-.378h-3.700994c-.2313119 0-.4256139.162-.4626239.378l-.342341 2.3849998c-.582906.2250001-1.08254.531-1.563669.882l-2.303867-.8999999c-.203555-.081-.453372 0-.564401.198l-1.8504956 3.114c-.1202822.198-.064767.441.1110297.576l1.9522729 1.4670001c-.03701.305998-.06477.602998-.06477.899998s.02776.585.06477.873l-1.9522729 1.494002c-.1757971.135-.2313119.378-.1110297.576l1.8504956 3.114c.111029.198.360846.27.564401.198l2.303867-.909c.481129.36.980763.666 1.563669.891l.342341 2.385c.03701.216.231312.378.4626239.378h3.700994c.231312 0 .425614-.162.462624-.378l.342341-2.385c.582906-.234 1.08254-.531 1.563669-.891l2.303867.909c.203555.072.453371 0 .564401-.198l1.850496-3.114c.11103-.198.06477-.441-.11103-.576z" fill="#bebebe" stroke-width=".912537" />
</svg>
