<?xml version="1.0" encoding="UTF-8" standalone="no"?>
<svg
   xmlns:dc="http://purl.org/dc/elements/1.1/"
   xmlns:cc="http://creativecommons.org/ns#"
   xmlns:rdf="http://www.w3.org/1999/02/22-rdf-syntax-ns#"
   xmlns:svg="http://www.w3.org/2000/svg"
   xmlns="http://www.w3.org/2000/svg"
   xmlns:sodipodi="http://sodipodi.sourceforge.net/DTD/sodipodi-0.dtd"
   xmlns:inkscape="http://www.inkscape.org/namespaces/inkscape"
   viewBox="0 0 16 16"
   enable-background="new 0 0 64 64"
   id="svg2"
   version="1.1"
   inkscape:version="0.91 r13725"
   sodipodi:docname="preferences-desktop-screensaver-symbolic.svg"
   width="16"
   height="16">
  <metadata
     id="metadata14">
    <rdf:RDF>
      <cc:Work
         rdf:about="">
        <dc:format>image/svg+xml</dc:format>
        <dc:type
           rdf:resource="http://purl.org/dc/dcmitype/StillImage" />
        <dc:title></dc:title>
      </cc:Work>
    </rdf:RDF>
  </metadata>
  <defs
     id="defs12" />
  <sodipodi:namedview
     pagecolor="#ffffff"
     bordercolor="#666666"
     borderopacity="1"
     objecttolerance="10"
     gridtolerance="10"
     guidetolerance="10"
     inkscape:pageopacity="0"
     inkscape:pageshadow="2"
     inkscape:window-width="640"
     inkscape:window-height="480"
     id="namedview10"
     showgrid="false"
     inkscape:zoom="9.484375"
     inkscape:cx="13.23229"
     inkscape:cy="32"
     inkscape:current-layer="svg2" />
  <path
     d="m 5.8125,1 c 0,3.696875 -1.990625,7 -4.8125,7 2.821875,0 4.8125,3.303125 4.8125,7 0,-3.696875 1.990625,-7 4.8125,-7 C 7.803125,8 5.8125,4.696875 5.8125,1"
     id="path4"
     style="fill:#b3b3b3;fill-opacity:1"
     inkscape:connector-curvature="0" />
  <path
     d="m 12.59375,1 c 0,1.8375 -1.00625,3.5 -2.40625,3.5 1.4,0 2.40625,1.6625 2.40625,3.5 C 12.59375,6.1625 13.6,4.5 15,4.5 13.6,4.5 12.59375,2.8375 12.59375,1"
     id="path6"
     style="fill:#b3b3b3;fill-opacity:1"
     inkscape:connector-curvature="0" />
  <path
     d="m 11.5,8 c 0,1.8375 -1.00625,3.5 -2.40625,3.5 1.4,0 2.40625,1.6625 2.40625,3.5 0,-1.8375 1.00625,-3.5 2.40625,-3.5 C 12.50625,11.5 11.5,9.8375 11.5,8"
     id="path8"
     style="fill:#b3b3b3;fill-opacity:1"
     inkscape:connector-curvature="0" />
</svg>
