<svg height="24" width="24" xmlns="http://www.w3.org/2000/svg" xmlns:xlink="http://www.w3.org/1999/xlink"><linearGradient id="a" gradientUnits="userSpaceOnUse" x1="406.928607" x2="406.928607" y1="546.798054" y2="500.798016"><stop offset="0" stop-color="#3889e9"/><stop offset="1" stop-color="#5ea5fb"/></linearGradient><g transform="translate(-384.57143 -523.798)"><circle cx="408.57138" cy="523.79791" fill="url(#a)" r="0"/><path d="m405.17126 542.43998-3.71028-3.71028c.89421-1.29079 1.34151-2.72961 1.34151-4.31612 0-1.03121-.20021-2.01743-.60052-2.95852-.40016-.94122-.94108-1.75244-1.6226-2.43395-.6815-.68151-1.49259-1.22241-2.43369-1.62258-.94133-.40031-1.92755-.60039-2.95878-.60039-1.03124 0-2.01746.20008-2.95854.60039-.94122.40017-1.75244.94108-2.43396 1.62258-.6815.68151-1.22241 1.49289-1.62258 2.43395-.40031.94121-.60039 1.9273-.60039 2.95852 0 1.03125.20008 2.01721.60039 2.95853.40017.94111.94108 1.7522 1.62258 2.43369.68152.68166 1.49289 1.22244 2.43396 1.62273.94122.40031 1.9273.60039 2.95854.60039 1.58675 0 3.02544-.4473 4.31624-1.34151l3.71029 3.69939c.25956.27404.58378.41106.97347.41106.37494 0 .69971-.13702.97347-.41106.27404-.2739.41106-.59853.41106-.97347.00013-.38199-.13316-.70661-.40017-.97335zm-6.56061-4.6029c-.94838.94839-2.08954 1.42251-3.42375 1.42251-1.33409 0-2.47525-.47425-3.42363-1.42251-.94838-.94838-1.42251-2.08941-1.42251-3.42363 0-1.33407.47426-2.47537 1.42251-3.42362.94824-.94838 2.08954-1.42252 3.42363-1.42252 1.33408 0 2.47524.47428 3.42375 1.42252.94838.94825 1.42264 2.08955 1.42264 3.42362 0 1.33422-.47439 2.47525-1.42264 3.42363z" fill="#bebebe" stroke-width="1.285714"/></g></svg>