<?xml version="1.0" encoding="UTF-8" standalone="no"?>
<svg
   xmlns:dc="http://purl.org/dc/elements/1.1/"
   xmlns:cc="http://creativecommons.org/ns#"
   xmlns:rdf="http://www.w3.org/1999/02/22-rdf-syntax-ns#"
   xmlns:svg="http://www.w3.org/2000/svg"
   xmlns="http://www.w3.org/2000/svg"
   xmlns:sodipodi="http://sodipodi.sourceforge.net/DTD/sodipodi-0.dtd"
   xmlns:inkscape="http://www.inkscape.org/namespaces/inkscape"
   version="1.1"
   width="24"
   height="24"
   viewBox="0 0 24 24"
   id="svg2"
   inkscape:version="0.92.1 r15371"
   sodipodi:docname="preferences-desktop-locale-symbolic.svg">
  <metadata
     id="metadata10">
    <rdf:RDF>
      <cc:Work
         rdf:about="">
        <dc:format>image/svg+xml</dc:format>
        <dc:type
           rdf:resource="http://purl.org/dc/dcmitype/StillImage" />
        <dc:title></dc:title>
      </cc:Work>
    </rdf:RDF>
  </metadata>
  <defs
     id="defs8" />
  <sodipodi:namedview
     pagecolor="#ffffff"
     bordercolor="#666666"
     borderopacity="1"
     objecttolerance="10"
     gridtolerance="10"
     guidetolerance="10"
     inkscape:pageopacity="0"
     inkscape:pageshadow="2"
     inkscape:window-width="640"
     inkscape:window-height="480"
     id="namedview6"
     showgrid="false"
     inkscape:zoom="25.291667"
     inkscape:cx="4.9621087"
     inkscape:cy="12"
     inkscape:current-layer="svg2" />
  <path
     d="m 15.924,13.8 c 0.072,-0.594 0.126,-1.188 0.126,-1.8 0,-0.612 -0.054,-1.206 -0.126,-1.8 h 3.042 c 0.144,0.576 0.234,1.179 0.234,1.8 0,0.621 -0.09,1.224 -0.234,1.8 m -4.635,5.004 c 0.54,-0.999 0.954,-2.079 1.242,-3.204 h 2.655 c -0.864,1.485 -2.241,2.637 -3.897,3.204 M 14.106,13.8 H 9.894 C 9.804,13.206 9.75,12.612 9.75,12 c 0,-0.612 0.054,-1.215 0.144,-1.8 h 4.212 c 0.081,0.585 0.144,1.188 0.144,1.8 0,0.612 -0.063,1.206 -0.144,1.8 M 12,19.164 C 11.253,18.084 10.65,16.887 10.281,15.6 h 3.438 C 13.35,16.887 12.747,18.084 12,19.164 M 8.4,8.4 H 5.772 C 6.627,6.906 8.013,5.754 9.66,5.196 9.12,6.195 8.715,7.275 8.4,8.4 M 5.772,15.6 H 8.4 c 0.315,1.125 0.72,2.205 1.26,3.204 C 8.013,18.237 6.627,17.085 5.772,15.6 M 5.034,13.8 C 4.89,13.224 4.8,12.621 4.8,12 4.8,11.379 4.89,10.776 5.034,10.2 H 8.076 C 8.004,10.794 7.95,11.388 7.95,12 c 0,0.612 0.054,1.206 0.126,1.8 M 12,4.827 c 0.747,1.08 1.35,2.286 1.719,3.573 H 10.281 C 10.65,7.113 11.253,5.907 12,4.827 M 18.228,8.4 H 15.573 C 15.285,7.275 14.871,6.195 14.331,5.196 15.987,5.763 17.364,6.906 18.228,8.4 M 12,3 C 7.023,3 3,7.05 3,12 a 9,9 0 0 0 9,9 9,9 0 0 0 9,-9 9,9 0 0 0 -9,-9 z"
     id="path4"
     style="fill:#b3b3b3;fill-opacity:1;stroke-width:0.89999998"
     inkscape:connector-curvature="0" />
</svg>
