<svg height="24" viewBox="0 0 24 24" width="24" xmlns="http://www.w3.org/2000/svg">
  <path d="m12.002271 15.5a3.5981857 3.4999997 0 0 1 -3.5981879-3.500003 3.5981857 3.4999997 0 0 1 3.5981879-3.4999969 3.5981857 3.4999997 0 0 1 3.598185 3.4999969 3.5981857 3.4999997 0 0 1 -3.598185 3.500003m7.638434-2.530002c.04112-.32.07197-.640001.07197-.970001s-.03084-.66-.07197-.999997l2.169192-1.6299995c.19533-.15.246733-.4200002.123367-.6400004l-2.056107-3.4599999c-.123367-.22-.40094-.3099999-.627112-.22l-2.559852.9999999c-.534588-.39-1.089737-.7299999-1.73741-.98l-.380379-2.6499996c-.04112-.24-.257013-.42-.514027-.42h-4.1122151c-.257013 0-.472904.18-.514027.42l-.380379 2.6499996c-.6476728.2500001-1.2028217.59-1.7374094.98l-2.5598521-.9999999c-.2261722-.09-.5037467 0-.6271122.22l-2.0561061 3.4599999c-.1336469.22-.071963.4900004.1233663.6400004l2.169192 1.6300005c-.041122.339997-.071967.669997-.071967.999997s.030844.65.071967.97l-2.169192 1.660002c-.1953301.15-.2570132.42-.1233663.64l2.0561061 3.46c.1233655.22.40094.3.6271122.22l2.5598521-1.010001c.5345877.4 1.0897366.74 1.7374094.99l.380379 2.65c.04112.24.257014.420001.514027.420001h4.1122151c.257014 0 .472905-.18.514027-.420001l.380379-2.65c.647673-.26 1.202822-.59 1.73741-.99l2.559852 1.010001c.226172.08.503745 0 .627112-.22l2.056107-3.46c.123366-.22.07197-.49-.123367-.64z" fill="#bebebe" stroke-width="1.01393" />
</svg>
