<svg xmlns="http://www.w3.org/2000/svg" viewBox="0 0 24 24">
  <path fill="#bebebe" d="M6 3c-.47 0-.88.21-1.16.55L3.46 5.23C3.17 5.57 3 6 3 6.5V19a2 2 0 0 0 2 2h14a2 2 0 0 0 2-2V6.5c0-.5-.17-.93-.46-1.27l-1.39-1.68C18.88 3.21 18.47 3 18 3H6zm-.07 1h12l.94 1H5.12l.81-1zm6.066 4.154c.644 0 1.166.508 1.166 1.135s-.522 1.137-1.166 1.137c-.644 0-1.166-.51-1.166-1.137s.522-1.135 1.166-1.135zm0 3.244c.644 0 1.166.508 1.166 1.135s-.522 1.137-1.166 1.137c-.644 0-1.166-.51-1.166-1.137s.522-1.135 1.166-1.135zm-3.289 1.73c.181 0 .362.067.5.202L12 16.334l2.793-3.004a.72.72 0 0 1 1 0 .68.68 0 0 1 0 .977L12.545 17.8a.714.714 0 0 1-.545.197.713.713 0 0 1-.545-.197l-3.248-3.494a.679.679 0 0 1 0-.977.713.713 0 0 1 .5-.201z"/>
</svg>
