<svg xmlns="http://www.w3.org/2000/svg" viewBox="0 0 24 24">
  <path fill="#bebebe" d="M15.273 12.818c-.238 0-.508 0-.794.041.95.687 1.612 1.596 1.612 2.823v2.045H21v-2.045c0-1.907-3.82-2.864-5.727-2.864m-6.546 0c-1.906 0-5.727.957-5.727 2.864v2.045h11.455v-2.045c0-1.907-3.821-2.864-5.728-2.864m0-1.636a2.455 2.455 0 0 0 2.455-2.455 2.455 2.455 0 0 0-2.455-2.454 2.455 2.455 0 0 0-2.454 2.454 2.455 2.455 0 0 0 2.454 2.455m6.546 0a2.455 2.455 0 0 0 2.454-2.455 2.455 2.455 0 0 0-2.454-2.454 2.455 2.455 0 0 0-2.455 2.454 2.455 2.455 0 0 0 2.455 2.455z"/>
</svg>
