<svg height="24" viewBox="0 0 24 24" width="24" xmlns="http://www.w3.org/2000/svg">
  <path d="m15.636363 11.909091c-.263635 0-.563635 0-.881817.04545 1.054545.763637 1.790908 1.772728 1.790908 3.136364v4.272731h5.454546v-4.272727c0-2.118182-4.245454-3.181818-6.363637-3.181818m-7.2727267 0c-2.1181817 0-6.3636363 1.063636-6.3636363 3.181818v4.272727h12.727272v-4.272727c0-2.118182-4.245454-3.181818-6.3636357-3.181818m0-1.818182c1.5062307 0 2.7272727-1.2210416 2.7272727-2.7272725 0-1.5062311-1.221042-2.7272727-2.7272727-2.7272728-1.5062311.0000001-2.7272726 1.2210417-2.7272726 2.7272728-.0000001 1.5062309 1.2210415 2.7272725 2.7272726 2.7272725m7.2727267 0c1.506232.000001 2.727274-1.2210406 2.727274-2.7272725 0-1.5062316-1.221042-2.7272735-2.727274-2.7272728-1.506231.0000004-2.727272 1.2210419-2.727272 2.7272728s1.221041 2.7272725 2.727272 2.7272725z" fill="#bebebe" stroke-width=".909091" />
</svg>
