<?xml version="1.0" encoding="UTF-8" standalone="no"?>
<svg
   xmlns:dc="http://purl.org/dc/elements/1.1/"
   xmlns:cc="http://creativecommons.org/ns#"
   xmlns:rdf="http://www.w3.org/1999/02/22-rdf-syntax-ns#"
   xmlns:svg="http://www.w3.org/2000/svg"
   xmlns="http://www.w3.org/2000/svg"
   xmlns:sodipodi="http://sodipodi.sourceforge.net/DTD/sodipodi-0.dtd"
   xmlns:inkscape="http://www.inkscape.org/namespaces/inkscape"
   viewBox="0 0 16 16"
   id="svg3197"
   version="1.1"
   inkscape:version="0.91 r13725"
   sodipodi:docname="address-book-new-symbolic.svg">
  <metadata
     id="metadata3205">
    <rdf:RDF>
      <cc:Work
         rdf:about="">
        <dc:format>image/svg+xml</dc:format>
        <dc:type
           rdf:resource="http://purl.org/dc/dcmitype/StillImage" />
      </cc:Work>
    </rdf:RDF>
  </metadata>
  <sodipodi:namedview
     pagecolor="#ffffff"
     bordercolor="#666666"
     borderopacity="1"
     objecttolerance="10"
     gridtolerance="10"
     guidetolerance="10"
     inkscape:pageopacity="0"
     inkscape:pageshadow="2"
     inkscape:window-width="640"
     inkscape:window-height="480"
     id="namedview3203"
     showgrid="false"
     inkscape:zoom="39.8125"
     inkscape:cx="3.0769231"
     inkscape:cy="6.9952904"
     inkscape:current-layer="svg3197" />
  <defs
     id="defs3051">
    <style
       type="text/css"
       id="current-color-scheme">
      .ColorScheme-Text {
        color:#bebebe;
      }
      </style>
  </defs>
  <path
     style="color:#bebebe;fill:currentColor;fill-opacity:1;stroke:none"
     class="ColorScheme-Text"
     d="M 8.8984777,8.7876425 C 8.8578277,8.7743675 8.6007275,8.6584625 8.76137,8.170145 l -0.00225,0 C 9.17786,7.738865 9.49787,7.0448825 9.49787,6.36164 c 0,-1.0505625 -0.698595,-1.6013025 -1.5105,-1.6013025 -0.812415,0 -1.50717,0.550485 -1.50717,1.6013025 0,0.686055 0.3182175,1.38285 0.7395225,1.81311 0.16422,0.4307625 -0.129435,0.59064 -0.19083,0.6128925 C 6.45647,8.97275 4.899275,9.89564 4.9239125,11.239662 l 6.1521145,0 C 11.103481,9.9557377 9.8717754,9.1220075 8.89853,8.7876425 Z M 14,8 A 5.9999993,5.9999997 0 0 1 8,14 5.9999993,5.9999997 0 0 1 2,8 5.9999993,5.9999997 0 0 1 8,2 5.9999993,5.9999997 0 0 1 14,8 Z"
     id="path3201"
     inkscape:connector-curvature="0" />
</svg>
