<svg viewBox="0 0 16 16" xmlns="http://www.w3.org/2000/svg"><path d="m8.8984777 8.7876425c-.04065-.013275-.2977502-.12918-.1371077-.6174975h-.00225c.41874-.43128.73875-1.1252625.73875-1.808505 0-1.0505625-.698595-1.6013025-1.5105-1.6013025-.812415 0-1.50717.550485-1.50717 1.6013025 0 .686055.3182175 1.38285.7395225 1.81311.16422.4307625-.129435.59064-.19083.6128925-.5724225.1851075-2.1296175 1.1079975-2.10498 2.4520195h6.1521145c.027454-1.2839243-1.2042516-2.1176545-2.177497-2.4520195zm5.1015223-.7876425a5.9999993 5.9999997 0 0 1 -6 6 5.9999993 5.9999997 0 0 1 -6-6 5.9999993 5.9999997 0 0 1 6-6 5.9999993 5.9999997 0 0 1 6 6z" fill="#bebebe"/></svg>