<svg xmlns="http://www.w3.org/2000/svg" viewBox="0 0 16 16">
  <defs id="defs3051">
    <style type="text/css" id="current-color-scheme">
      .ColorScheme-Text {
        color:#bebebe;
      }
      </style>
  </defs>
 <path 
           style="fill:currentColor;fill-opacity:1;stroke:none" 
           class="ColorScheme-Text"
        d="M 14.494343,4.1553187 C 13.823704,3.0063 12.913938,2.0965312 11.764923,1.4259 10.615669,0.7552594 9.361054,0.42 8.00024,0.42 6.6395455,0.42 5.3845711,0.7552594 4.2355564,1.4259 3.0864218,2.0964187 2.1766553,3.0061781 1.5060172,4.1553187 0.8352592,5.30445 0.5,6.559425 0.5,7.92 c 0,1.360697 0.335379,2.615428 1.0058973,3.764681 0.6706382,1.148897 1.5804047,2.058788 2.7295392,2.729419 1.1491346,0.670641 2.4039892,1.0059 3.7646835,1.0059 1.360694,0 2.615668,-0.335259 3.764683,-1.0059 1.149015,-0.670519 2.058781,-1.5804 2.72942,-2.729419 C 15.164741,10.53555 15.5,9.280575 15.5,7.92 15.5,6.559303 15.164741,5.3043281 14.494343,4.1553187 l 0,0 z M 11.535264,9.687516 c 0.123699,0.123572 0.185669,0.27029 0.185669,0.439537 0,0.175716 -0.06197,0.325547 -0.185669,0.449128 l -0.878842,0.878963 c -0.123699,0.123703 -0.273409,0.18555 -0.44925,0.18555 -0.169247,0 -0.315961,-0.06188 -0.43942,-0.18555 L 8.00012,9.687516 6.2324879,11.455144 c -0.1236995,0.123703 -0.2701731,0.18555 -0.4394208,0.18555 -0.1758403,0 -0.3255502,-0.06188 -0.4492497,-0.18555 L 4.464856,10.576181 C 4.3411564,10.4526 4.2793067,10.302769 4.2793067,10.127053 c 0,-0.169247 0.06185,-0.315966 0.1855493,-0.439537 L 6.2324879,7.92 4.464856,6.1523719 C 4.3411564,6.0287906 4.2793067,5.8821938 4.2793067,5.7129469 c 0,-0.1758375 0.06185,-0.3255469 0.1855493,-0.44925 L 5.3438174,4.3848563 C 5.4675169,4.2611531 5.6172268,4.1993062 5.7930671,4.1993062 c 0.1692477,0 0.3157213,0.061875 0.4394208,0.18555 L 8.00012,6.1523719 9.767752,4.3848563 c 0.123459,-0.1237032 0.270173,-0.18555 0.43942,-0.18555 0.175841,0 0.325551,0.061875 0.44925,0.18555 l 0.878842,0.8788406 c 0.123699,0.1237031 0.185669,0.2734125 0.185669,0.44925 0,0.1692469 -0.06197,0.3158437 -0.185669,0.439425 L 9.767752,7.92 l 1.767512,1.767516 0,0 z"
     />
</svg>
