<svg viewBox="0 0 16 16" xmlns="http://www.w3.org/2000/svg"><path d="m13.195474 4.988255c-.536511-.919215-1.264323-1.64703-2.183535-2.183535-.919404-.5365124-1.923096-.80472-3.011747-.80472-1.0885555 0-2.0925352.2682076-3.0117469.80472-.9193077.536415-1.6471209 1.2642224-2.1836314 2.183535-.5366064.919305-.8048137 1.923285-.8048137 3.011745 0 1.0885577.2683032 2.092343.8047178 3.011744.5365107.919119 1.2643239 1.647032 2.1836314 2.183536.9193076.536513 1.9231914.80472 3.0117468.80472 1.088555 0 2.092534-.268207 3.011747-.80472.919212-.536416 1.647024-1.26432 2.183535-2.183536.536415-.919304.804622-1.923284.804622-3.011744 0-1.0885577-.268207-2.0925376-.804526-3.011745zm-2.367262 4.4257578c.09896.098856.148534.2162316.148534.35163 0 .1405728-.04957.2604372-.148534.3593012l-.703075.703172c-.09896.09896-.218726.14844-.3594.14844-.135397 0-.252768-.04951-.351535-.14844l-1.414106-1.4141032-1.4141057 1.4141032c-.098959.09896-.2161385.14844-.3515366.14844-.1406723 0-.2604402-.04951-.3593998-.14844l-.703169-.703172c-.0989598-.098864-.1484395-.2187284-.1484395-.3593012 0-.1353984.049481-.2527728.1484395-.35163l1.4141054-1.4140128-1.4141054-1.4141024c-.0989604-.0988656-.1484395-.2161426-.1484395-.35154 0-.14067.049481-.2604376.1484395-.3594l.703169-.7030726c.098959-.098963.2187275-.14844.3593998-.14844.1353981 0 .2525771.0495.3515366.14844l1.4141057 1.4140126 1.414106-1.4140126c.09877-.098963.216138-.14844.351535-.14844.140674 0 .260442.0495.3594.14844l.703075.7030726c.09896.098963.148534.21873.148534.3594 0 .1353974-.04957.2526748-.148534.35154l-1.41401 1.4141024z" fill="#bebebe"/></svg>