<svg xmlns="http://www.w3.org/2000/svg" viewBox="0 0 16 16">
  <defs id="defs3051">
    <style type="text/css" id="current-color-scheme">
      .ColorScheme-Text {
        color:#bebebe;
      }
      </style>
  </defs>
 <path 
           style="fill:currentColor;fill-opacity:1;stroke:none" 
           class="ColorScheme-Text"
        d="M 2.375,6.75 C 1.33625,6.75 0.5,7.58625 0.5,8.625 0.5,9.66375 1.33625,10.5 2.375,10.5 3.41375,10.5 4.25,9.66375 4.25,8.625 4.25,7.58625 3.41375,6.75 2.375,6.75 Z M 8,6.75 C 6.96125,6.75 6.125,7.58625 6.125,8.625 6.125,9.66375 6.96125,10.5 8,10.5 9.03875,10.5 9.875,9.66375 9.875,8.625 9.875,7.58625 9.03875,6.75 8,6.75 Z m 5.625,0 c -1.03875,0 -1.875,0.83625 -1.875,1.875 0,1.03875 0.83625,1.875 1.875,1.875 1.03875,0 1.875,-0.83625 1.875,-1.875 0,-1.03875 -0.83625,-1.875 -1.875,-1.875 z"
     />
</svg>
