<?xml version="1.0" encoding="UTF-8" standalone="no"?>
<svg
   xmlns:dc="http://purl.org/dc/elements/1.1/"
   xmlns:cc="http://creativecommons.org/ns#"
   xmlns:rdf="http://www.w3.org/1999/02/22-rdf-syntax-ns#"
   xmlns:svg="http://www.w3.org/2000/svg"
   xmlns="http://www.w3.org/2000/svg"
   xmlns:sodipodi="http://sodipodi.sourceforge.net/DTD/sodipodi-0.dtd"
   xmlns:inkscape="http://www.inkscape.org/namespaces/inkscape"
   viewBox="0 0 16 16"
   id="svg3255"
   version="1.1"
   inkscape:version="0.91 r13725"
   sodipodi:docname="application-exit-symbolic.svg">
  <metadata
     id="metadata3263">
    <rdf:RDF>
      <cc:Work
         rdf:about="">
        <dc:format>image/svg+xml</dc:format>
        <dc:type
           rdf:resource="http://purl.org/dc/dcmitype/StillImage" />
      </cc:Work>
    </rdf:RDF>
  </metadata>
  <sodipodi:namedview
     pagecolor="#ffffff"
     bordercolor="#666666"
     borderopacity="1"
     objecttolerance="10"
     gridtolerance="10"
     guidetolerance="10"
     inkscape:pageopacity="0"
     inkscape:pageshadow="2"
     inkscape:window-width="640"
     inkscape:window-height="480"
     id="namedview3261"
     showgrid="false"
     inkscape:zoom="19.90625"
     inkscape:cx="8.564939"
     inkscape:cy="11.386794"
     inkscape:current-layer="svg3255" />
  <defs
     id="defs3051">
    <style
       type="text/css"
       id="current-color-scheme">
      .ColorScheme-Text {
        color:#bebebe;
      }
      </style>
  </defs>
  <path
     style="color:#bebebe;fill:currentColor;fill-opacity:1;stroke:none"
     class="ColorScheme-Text"
     d="M 13.195474,4.988255 C 12.658963,4.06904 11.931151,3.341225 11.011939,2.80472 10.092535,2.2682076 9.088843,2 8.000192,2 6.9116365,2 5.9076568,2.2682076 4.9884451,2.80472 4.0691374,3.341135 3.3413242,4.0689424 2.8048137,4.988255 2.2682073,5.90756 2,6.91154 2,8 2,9.0885577 2.2683032,10.092343 2.8047178,11.011744 3.3412285,11.930863 4.0690417,12.658776 4.9883492,13.19528 5.9076568,13.731793 6.9115406,14 8.000096,14 c 1.088555,0 2.092534,-0.268207 3.011747,-0.80472 0.919212,-0.536416 1.647024,-1.26432 2.183535,-2.183536 C 13.731793,10.09244 14,9.08846 14,8 14,6.9114423 13.731793,5.9074624 13.195474,4.988255 l 0,0 z m -2.367262,4.4257578 c 0.09896,0.098856 0.148534,0.2162316 0.148534,0.35163 0,0.1405728 -0.04957,0.2604372 -0.148534,0.3593012 l -0.703075,0.703172 c -0.09896,0.09896 -0.218726,0.14844 -0.3594,0.14844 -0.135397,0 -0.252768,-0.04951 -0.351535,-0.14844 L 8.000096,9.4140128 6.5859903,10.828116 c -0.098959,0.09896 -0.2161385,0.14844 -0.3515366,0.14844 -0.1406723,0 -0.2604402,-0.04951 -0.3593998,-0.14844 L 5.1718849,10.124944 C 5.0729251,10.02608 5.0234454,9.9062156 5.0234454,9.7656428 c 0,-0.1353984 0.049481,-0.2527728 0.1484395,-0.35163 L 6.5859903,8 5.1718849,6.5858976 C 5.0729245,6.487032 5.0234454,6.369755 5.0234454,6.2343576 c 0,-0.14067 0.049481,-0.2604376 0.1484395,-0.3594 L 5.8750539,5.171885 c 0.098959,-0.098963 0.2187275,-0.14844 0.3593998,-0.14844 0.1353981,0 0.2525771,0.0495 0.3515366,0.14844 L 8.000096,6.5858976 9.414202,5.171885 c 0.09877,-0.098963 0.216138,-0.14844 0.351535,-0.14844 0.140674,0 0.260442,0.0495 0.3594,0.14844 l 0.703075,0.7030726 c 0.09896,0.098963 0.148534,0.21873 0.148534,0.3594 0,0.1353974 -0.04957,0.2526748 -0.148534,0.35154 L 9.414202,8 l 1.41401,1.4140128 0,0 z"
     id="path3259"
     inkscape:connector-curvature="0" />
</svg>
