<svg xmlns="http://www.w3.org/2000/svg" viewBox="0 0 16 16">
  <path fill="#bebebe" d="M7.99 2c-.814 0-1.587.162-2.33.48-1.474.633-2.555 1.707-3.188 3.185A5.832 5.832 0 0 0 2 7.993c0 .814.154 1.595.472 2.336.633 1.478 1.714 2.557 3.189 3.19a5.902 5.902 0 0 0 4.666 0c1.486-.634 2.561-1.714 3.194-3.19A5.872 5.872 0 0 0 14 7.993c0-.814-.16-1.585-.479-2.328-.633-1.476-1.708-2.55-3.195-3.185A5.9 5.9 0 0 0 7.99 2zm-.37 2.202c.305 0 .554.25.554.556V8.57l2.161 1.689a.551.551 0 1 1-.675.871L7.276 9.276a.556.556 0 0 1-.213-.437V4.76c0-.307.25-.557.556-.557z"/>
</svg>
