<?xml version="1.0" encoding="UTF-8" standalone="no"?>
<svg
   xmlns:dc="http://purl.org/dc/elements/1.1/"
   xmlns:cc="http://creativecommons.org/ns#"
   xmlns:rdf="http://www.w3.org/1999/02/22-rdf-syntax-ns#"
   xmlns:svg="http://www.w3.org/2000/svg"
   xmlns="http://www.w3.org/2000/svg"
   xmlns:sodipodi="http://sodipodi.sourceforge.net/DTD/sodipodi-0.dtd"
   xmlns:inkscape="http://www.inkscape.org/namespaces/inkscape"
   viewBox="0 0 16 16"
   id="svg2"
   version="1.1"
   inkscape:version="0.91 r13725"
   sodipodi:docname="archive-symbolic.svg">
  <metadata
     id="metadata10">
    <rdf:RDF>
      <cc:Work
         rdf:about="">
        <dc:format>image/svg+xml</dc:format>
        <dc:type
           rdf:resource="http://purl.org/dc/dcmitype/StillImage" />
      </cc:Work>
    </rdf:RDF>
  </metadata>
  <sodipodi:namedview
     pagecolor="#ffffff"
     bordercolor="#666666"
     borderopacity="1"
     objecttolerance="10"
     gridtolerance="10"
     guidetolerance="10"
     inkscape:pageopacity="0"
     inkscape:pageshadow="2"
     inkscape:window-width="640"
     inkscape:window-height="480"
     id="namedview8"
     showgrid="false"
     inkscape:zoom="41.1875"
     inkscape:cx="3.6783005"
     inkscape:cy="8"
     inkscape:current-layer="svg2" />
  <defs
     id="defs3051">
    <style
       type="text/css"
       id="current-color-scheme">
      .ColorScheme-Text {
        color:#bebebe;
      }
      </style>
  </defs>
  <path
     style="color:#bebebe;fill:currentColor;fill-opacity:1;stroke:none"
     class="ColorScheme-Text"
     d="M 3.2003314,2 C 2.8679314,2 2.601,2.2686054 2.601,2.6010046 l 0,10.7979904 C 2.601,13.731395 2.8679314,14 3.2003314,14 l 9.5993316,0 c 0.3324,0 0.599331,-0.268605 0.599331,-0.601005 l 0,-10.7979904 C 13.398994,2.2686054 13.132063,2 12.799663,2 L 3.2003314,2 Z m 4.7963143,3 c 0.38172,0 0.6914057,0.3092263 0.6914057,0.6914066 0,0.382176 -0.3096857,0.6930797 -0.6914057,0.6930797 -0.3817114,0 -0.6897343,-0.3109037 -0.6897343,-0.6930797 C 7.3069114,5.3092263 7.6149343,5 7.9966457,5 Z m 0,1.9771209 c 0.38172,0 0.6914057,0.3092262 0.6914057,0.6914057 0,0.3821803 -0.3096857,0.6930805 -0.6914057,0.6930805 -0.3817114,0 -0.6897343,-0.3109002 -0.6897343,-0.6930805 0,-0.3821795 0.3080229,-0.6914057 0.6897343,-0.6914057 z M 6.0479829,8.0318077 c 0.10734,0 0.2143714,0.041734 0.2963228,0.1238846 L 7.9999971,9.9854909 9.65736,8.1556923 c 0.1639114,-0.1643006 0.428923,-0.1643006 0.592637,0 0.163697,0.1642997 0.163697,0.4300071 0,0.5943077 l -1.9285713,2.12779 c -0.088663,0.08874 -0.2055171,0.127864 -0.3214286,0.120536 -0.1161171,0.0073 -0.2344285,-0.03176 -0.3231,-0.120536 L 5.7516686,8.75 c -0.1639029,-0.1643006 -0.1639029,-0.430008 0,-0.5943077 0.081943,-0.082149 0.1889743,-0.1238846 0.2963143,-0.1238846 z"
     id="path6"
     inkscape:connector-curvature="0" />
</svg>
