<svg xmlns="http://www.w3.org/2000/svg" viewBox="0 0 16 16">
  <path fill="#bebebe" d="M3.2 2a.6.6 0 0 0-.599.601v10.798a.6.6 0 0 0 .6.601H12.8a.6.6 0 0 0 .599-.601V2.601a.599.599 0 0 0-.6-.601zm4.797 3a.691.691 0 1 1 0 1.383.691.691 0 0 1 0-1.383zm0 1.977a.691.691 0 1 1 0 1.383.691.691 0 0 1 0-1.383zM6.048 8.032c.107 0 .214.042.296.124L8 9.986l1.657-1.83a.418.418 0 0 1 .593 0 .421.421 0 0 1 0 .594l-1.929 2.128a.413.413 0 0 1-.321.12.417.417 0 0 1-.323-.12L5.752 8.75a.42.42 0 0 1 .296-.718z"/>
</svg>
