<svg xmlns="http://www.w3.org/2000/svg" viewBox="0 0 16 16">
  <defs id="defs3051">
    <style type="text/css" id="current-color-scheme">
      .ColorScheme-Text {
        color:#bebebe;
      }
      </style>
  </defs>
 <path 
           style="fill:currentColor;fill-opacity:1;stroke:none" 
           class="ColorScheme-Text"
        d="m 15.5,6.3127719 c 0,-0.2331844 -0.168178,-0.378075 -0.504975,-0.4348125 L 10.469975,5.1880437 8.44175,0.88747813 C 8.327675,0.62912188 8.1803,0.5 8.0000563,0.5 7.8198219,0.5 7.67255,0.62912188 7.5583625,0.88747813 L 5.530025,5.1880437 1.0047594,5.8779594 C 0.66829062,5.9346781 0.5,6.0795875 0.5,6.3127719 c 0,0.132375 0.0750937,0.28365 0.22538437,0.4537219 L 4.0066719,10.112394 3.2314906,14.838256 c -0.012094,0.08831 -0.018094,0.151397 -0.018094,0.189103 0,0.132375 0.031594,0.244088 0.094603,0.335616 0.063,0.09141 0.1576687,0.137025 0.2839125,0.137025 0.1082156,0 0.228375,-0.03759 0.3605906,-0.113353 l 4.0473938,-2.230781 4.0477125,2.230781 C 12.173966,15.462303 12.294134,15.5 12.408088,15.5 c 0.120496,0 0.211996,-0.04547 0.275071,-0.137025 0.06291,-0.09141 0.09449,-0.20325 0.09449,-0.335616 0,-0.08194 -0.0028,-0.14489 -0.0094,-0.189103 l -0.775258,-4.725862 3.272203,-3.3459002 c 0.15645,-0.1638001 0.23445,-0.3150938 0.23445,-0.4537219 l 0,0 z"
     />
</svg>
