<svg viewBox="0 0 16 16" xmlns="http://www.w3.org/2000/svg"><path d="m14 6.6502175c0-.1865475-.134542-.30246-.40398-.34785l-3.62004-.5519325-1.62258-3.4404525c-.09126-.206685-.20916-.3099825-.353355-.3099825-.1441875 0-.262005.1032975-.353355.3099825l-1.62267 3.4404525-3.6202125.5519325c-.269175.045375-.4038075.1613025-.4038075.34785 0 .1059.060075.22692.1803075.3629775l2.62503 2.67672-.620145 3.78069c-.00968.07064-.014476.121117-.014476.151282 0 .1059.025276.195271.075682.268493.0504.07313.126135.10962.22713.10962.086573 0 .1827-.03007.2884726-.09068l3.237915-1.784625 3.2381699 1.784625c.101087.060521.197221.09068.288384.09068.0964 0 .169597-.03638.220057-.10962.05033-.07313.07559-.1626.07559-.268493 0-.06555-.0022-.115912-.0075-.151282l-.620206-3.78069 2.617762-2.67672c.12516-.13104.18756-.252075.18756-.3629775z" fill="#bebebe"/></svg>