<svg xmlns="http://www.w3.org/2000/svg" viewBox="0 0 16 16">
  <path fill="#bebebe" d="M14 6.65c0-.186-.135-.302-.404-.348l-3.62-.552-1.623-3.44C8.263 2.103 8.144 2 8 2s-.262.103-.353.31L6.024 5.75l-3.62.552c-.27.046-.404.162-.404.348 0 .106.06.227.18.363L4.805 9.69l-.62 3.78c-.01.071-.014.122-.014.152 0 .106.025.195.075.268.05.074.127.11.228.11a.59.59 0 0 0 .288-.09L8 12.124l3.238 1.784c.101.06.197.091.288.091a.25.25 0 0 0 .22-.11.462.462 0 0 0 .076-.268c0-.066-.002-.116-.007-.151l-.62-3.781 2.617-2.677c.125-.13.188-.252.188-.363z"/>
</svg>
