<?xml version="1.0" encoding="UTF-8" standalone="no"?>
<!-- Created with Inkscape (http://www.inkscape.org/) -->

<svg
   xmlns:sketch="http://www.bohemiancoding.com/sketch/ns"
   xmlns:dc="http://purl.org/dc/elements/1.1/"
   xmlns:cc="http://creativecommons.org/ns#"
   xmlns:rdf="http://www.w3.org/1999/02/22-rdf-syntax-ns#"
   xmlns:svg="http://www.w3.org/2000/svg"
   xmlns="http://www.w3.org/2000/svg"
   xmlns:sodipodi="http://sodipodi.sourceforge.net/DTD/sodipodi-0.dtd"
   xmlns:inkscape="http://www.inkscape.org/namespaces/inkscape"
   id="svg7384"
   style="enable-background:new"
   height="16"
   width="16"
   version="1.1"
   inkscape:version="0.91 r13725"
   sodipodi:docname="bookmark-new-symbolic.svg">
  <sodipodi:namedview
     pagecolor="#ffffff"
     bordercolor="#666666"
     borderopacity="1"
     objecttolerance="10"
     gridtolerance="10"
     guidetolerance="10"
     inkscape:pageopacity="0"
     inkscape:pageshadow="2"
     inkscape:window-width="1366"
     inkscape:window-height="633"
     id="namedview10"
     showgrid="false"
     inkscape:zoom="14.75"
     inkscape:cx="8"
     inkscape:cy="8"
     inkscape:window-x="0"
     inkscape:window-y="33"
     inkscape:window-maximized="1"
     inkscape:current-layer="svg7384" />
  <metadata
     id="metadata90">
    <rdf:RDF>
      <cc:Work
         rdf:about="">
        <dc:format>image/svg+xml</dc:format>
        <dc:type
           rdf:resource="http://purl.org/dc/dcmitype/StillImage" />
        <dc:title>Paper Symbolic Icon Theme</dc:title>
      </cc:Work>
    </rdf:RDF>
  </metadata>
  <title
     id="title8473">Paper Symbolic Icon Theme</title>
  <defs
     id="defs7386">
    <filter
       id="filter7554"
       style="color-interpolation-filters:sRGB">
      <feBlend
         id="feBlend7556"
         in2="BackgroundImage"
         mode="darken" />
    </filter>
    <inkscape:perspective
       id="perspective4146"
       inkscape:persp3d-origin="12 : 8 : 1"
       inkscape:vp_z="24 : 12 : 1"
       inkscape:vp_y="0 : 1000 : 0"
       inkscape:vp_x="0 : 12 : 1"
       sodipodi:type="inkscape:persp3d" />
    <inkscape:perspective
       id="perspective4090"
       inkscape:persp3d-origin="12 : 8 : 1"
       inkscape:vp_z="24 : 12 : 1"
       inkscape:vp_y="0 : 1000 : 0"
       inkscape:vp_x="0 : 12 : 1"
       sodipodi:type="inkscape:persp3d" />
  </defs>
  <g
     transform="matrix(0.875,0,0,0.875,-286.875,-469.19193)"
     id="layer1"
     inkscape:label="Capa 1">
    <g
       inkscape:label="Capa 1"
       id="layer1-2"
       transform="matrix(0.69900566,0,0,0.69900566,56.998304,173.63239)">
      <g
         id="star60"
         sketch:type="MSLayerGroup"
         transform="matrix(0.17703162,0,0,0.17703162,388.53319,520.29086)"
         style="fill:#4d4d4d;fill-opacity:1">
        <path
           d="m 135.785,50.457 c 0,-2.01 -1.52,-3.259 -4.564,-3.748 L 90.324,40.762 71.993,3.692 c -1.031,-2.227 -2.363,-3.34 -3.992,-3.34 -1.629,0 -2.96,1.113 -3.992,3.34 L 45.677,40.762 4.778,46.709 c -3.041,0.489 -4.562,1.738 -4.562,3.748 0,1.141 0.679,2.445 2.037,3.911 l 29.656,28.841 -7.006,40.736 c -0.109,0.761 -0.163,1.305 -0.163,1.63 0,1.141 0.285,2.104 0.855,2.893 0.57,0.788 1.425,1.181 2.566,1.181 0.978,0 2.064,-0.324 3.259,-0.977 L 68,109.443 l 36.583,19.229 c 1.142,0.652 2.228,0.977 3.258,0.977 1.089,0 1.916,-0.392 2.486,-1.181 0.569,-0.788 0.854,-1.752 0.854,-2.893 0,-0.706 -0.027,-1.249 -0.082,-1.63 l -7.007,-40.736 29.574,-28.841 c 1.414,-1.412 2.119,-2.716 2.119,-3.911 l 0,0 z"
           id="path2034"
           sketch:type="MSShapeGroup"
           inkscape:connector-curvature="0"
           style="fill:#4d4d4d;fill-opacity:1" />
      </g>
    </g>
  </g>
</svg>
