<svg viewBox="0 0 16 16" xmlns="http://www.w3.org/2000/svg"><path d="m12.622675 8.30966c-.33645-.3285975-.882306-.3285975-1.219155 0l-3.4033647 3.660076-3.4033798-3.660076c-.33684-.3285975-.8823-.3285975-1.2191399 0-.3368475.328605-.3368475.8608499 0 1.1894549l3.9589572 4.2579451c.182235.177555.4249275.255848.6635625.241215.2382224.01462.4813199-.06374.6635399-.241215l3.9589798-4.2579451c.336427-.328605.336427-.8608499 0-1.1894549zm-4.6275972-3.5416723c.784485 0 1.4204324-.6196349 1.4204324-1.3839899 0-.7643625-.6359474-1.3839975-1.4204324-1.3839975-.7844849 0-1.4204398.619635-1.4204398 1.3839975 0 .764355.6359549 1.3839899 1.4204398 1.3839899zm0 3.9542698c.784485 0 1.4204324-.6196351 1.4204324-1.3839974 0-.7643625-.6359474-1.38399-1.4204324-1.38399-.7844849 0-1.4204398.6196275-1.4204398 1.38399 0 .7643623.6359549 1.3839974 1.4204398 1.3839974z" fill="#bebebe"/></svg>