<svg viewBox="0 0 16 16" xmlns="http://www.w3.org/2000/svg"><path d="m8 2a6 6 0 0 0 -6 6 6 6 0 0 0 6 6 6 6 0 0 0 6-6 6 6 0 0 0 -6-6zm-.043942 4.4003907c2.602178-.00622 3.555633 1.1380533 3.596191 1.1879882.08701.1100843.157786.2272786.216798.3603519.06316.1432004.105976.2949524.124511.4438477h.0074l.0058.3925777c.000385.2859858-.223629.5188988-.499511.5200198l-1.387208.0029c-.2756547.000139-.5003335-.231184-.5009762-.5170652l-.0015-.6987308c-.03426-.009825-.070875-.0203175-.108399-.030765-.3430546-.0975308-.8130938-.2302912-1.44873-.2285152-.6372496.0015-1.1056375.1368742-1.4487309.2358397-.036297.010538-.071839.020048-.1054687.029295l.00147.46875v.2314456c.0006521.2863079-.2237859.5191829-.499516.5200189l-1.3857453.0029c-.2755374.000668-.5017848-.230757-.5024414-.5170645l.00147-.3925785h.010255c.0177132-.1491758.0586834-.3004252.1215736-.4453125.0610912-.136692.1316316-.2548057.2153319-.3603517.6653997-.8521571 1.7048509-1.2009667 3.5874225-1.2055511z" fill="#da4453"/></svg>