<svg xmlns="http://www.w3.org/2000/svg" viewBox="0 0 16 16">
  <path fill="#da4453" d="M8 2a6 6 0 0 0-6 6 6 6 0 0 0 6 6 6 6 0 0 0 6-6 6 6 0 0 0-6-6zm-.044 4.4c2.602-.006 3.556 1.138 3.596 1.188a1.651 1.651 0 0 1 .342.805h.007l.006.392a.511.511 0 0 1-.5.52l-1.387.003a.51.51 0 0 1-.5-.517l-.002-.699-.109-.03c-.343-.098-.813-.23-1.449-.229-.637.001-1.105.137-1.448.236l-.106.03.002.468v.231a.51.51 0 0 1-.5.52l-1.386.003a.51.51 0 0 1-.502-.517l.001-.392h.01a1.597 1.597 0 0 1 .338-.806c.665-.852 1.704-1.201 3.587-1.206z"/>
</svg>
