<?xml version="1.0" encoding="UTF-8" standalone="no"?>
<svg
   xmlns:dc="http://purl.org/dc/elements/1.1/"
   xmlns:cc="http://creativecommons.org/ns#"
   xmlns:rdf="http://www.w3.org/1999/02/22-rdf-syntax-ns#"
   xmlns:svg="http://www.w3.org/2000/svg"
   xmlns="http://www.w3.org/2000/svg"
   xmlns:sodipodi="http://sodipodi.sourceforge.net/DTD/sodipodi-0.dtd"
   xmlns:inkscape="http://www.inkscape.org/namespaces/inkscape"
   viewBox="0 0 16 16"
   id="svg2"
   version="1.1"
   inkscape:version="0.91 r13725"
   sodipodi:docname="call-start-symbolic.svg">
  <metadata
     id="metadata10">
    <rdf:RDF>
      <cc:Work
         rdf:about="">
        <dc:format>image/svg+xml</dc:format>
        <dc:type
           rdf:resource="http://purl.org/dc/dcmitype/StillImage" />
      </cc:Work>
    </rdf:RDF>
  </metadata>
  <sodipodi:namedview
     pagecolor="#ffffff"
     bordercolor="#666666"
     borderopacity="1"
     objecttolerance="10"
     gridtolerance="10"
     guidetolerance="10"
     inkscape:pageopacity="0"
     inkscape:pageshadow="2"
     inkscape:window-width="640"
     inkscape:window-height="480"
     id="namedview8"
     showgrid="false"
     inkscape:zoom="39.8125"
     inkscape:cx="3.5290424"
     inkscape:cy="8"
     inkscape:current-layer="svg2" />
  <defs
     id="defs3051">
    <style
       type="text/css"
       id="current-color-scheme">
      .ColorScheme-Text {
        color:#bebebe;
      }
      </style>
  </defs>
  <path
     style="color:#bebebe;fill:currentColor;fill-opacity:1;stroke:none"
     class="ColorScheme-Text"
     d="M 11.618268,10.436633 10.474276,9.2925274 C 10.246417,9.0655786 9.8690734,9.0724736 9.6332785,9.3083644 l -0.5763449,0.576223 c -0.0364,-0.02004 -0.074112,-0.04104 -0.1137324,-0.06326 C 8.5792538,9.6196634 8.0811164,9.3432594 7.5569303,8.8186887 7.0311954,8.2930151 6.754538,7.7941165 6.5522556,7.4299241 6.5309056,7.3913366 6.5104306,7.3541491 6.4903056,7.3188166 L 6.8771167,6.9325742 7.0672892,6.7421743 C 7.3034516,6.5059506 7.3099616,6.128712 7.0826017,5.901107 L 5.9386182,4.7568698 C 5.7112933,4.5295799 5.3337835,4.5364749 5.0976211,4.7727073 l -0.3224112,0.3242662 0.00884,0.00875 C 4.6759412,5.2436672 4.5855975,5.4027684 4.5183712,5.5743384 4.4564212,5.7376571 4.4178163,5.8934945 4.4001763,6.0496645 4.2491163,7.3019466 4.8213749,8.4464463 6.3744119,9.9995014 8.52118,12.14612 10.251195,11.983957 10.325832,11.976038 c 0.162549,-0.01942 0.318325,-0.05828 0.476639,-0.119753 0.170082,-0.06641 0.329078,-0.156651 0.466935,-0.26453 l 0.007,0.0061 0.326628,-0.319838 c 0.235673,-0.23618 0.242463,-0.613541 0.01523,-0.841514 z M 14.97223,7.3771004 A 6.999998,6.999998 0 0 1 8.6229075,14.972229 6.999998,6.999998 0 0 1 1.0277697,8.6229075 6.999998,6.999998 0 0 1 7.3771004,1.0277784 6.999998,6.999998 0 0 1 14.97223,7.3771004 Z"
     id="path6"
     inkscape:connector-curvature="0" />
</svg>
