<svg xmlns="http://www.w3.org/2000/svg" viewBox="0 0 16 16">
  <path fill="#bebebe" d="M11.101 10.089l-.98-.981a.511.511 0 0 0-.721.013l-.494.494a14.6 14.6 0 0 1-.098-.054c-.311-.173-.738-.41-1.188-.86s-.688-.877-.86-1.19c-.02-.033-.037-.065-.054-.095l.332-.33.163-.164a.51.51 0 0 0 .013-.721l-.98-.98a.51.51 0 0 0-.722.013l-.276.278.007.007a1.598 1.598 0 0 0-.329.81c-.129 1.073.361 2.054 1.693 3.385 1.84 1.84 3.323 1.7 3.387 1.694a1.657 1.657 0 0 0 .808-.33l.006.006.28-.274a.512.512 0 0 0 .013-.722zm2.875-2.623a6 6 0 0 1-5.442 6.51 6 6 0 0 1-6.51-5.442 6 6 0 0 1 5.442-6.51 6 6 0 0 1 6.51 5.442z"/>
</svg>
