<svg xmlns="http://www.w3.org/2000/svg" viewBox="0 0 16 16">
  <defs id="defs3051">
    <style type="text/css" id="current-color-scheme">
      .ColorScheme-Text {
        color:#bebebe;
      }
      </style>
  </defs>
 <path 
       style="fill:currentColor;fill-opacity:1;stroke:none"
	 class="ColorScheme-Text"
        d="M 8 1 A 7.0000003 7.0000009 0 0 0 1 8 A 7.0000003 7.0000009 0 0 0 8 15 A 7.0000003 7.0000009 0 0 0 15 8 A 7.0000003 7.0000009 0 0 0 8 1 z M 7.984375 4.2207031 C 8.9315996 4.2207031 9.7480469 4.8622285 9.7480469 6.0878906 C 9.7480469 6.8850036 9.3733036 7.6960612 8.8847656 8.1992188 L 8.8886719 8.1992188 C 8.7012563 8.768926 9.0013773 8.90245 9.0488281 8.9179688 C 10.184278 9.3080595 11.619924 10.281389 11.587891 11.779297 L 4.4121094 11.779297 C 4.3833664 10.211273 6.1993603 9.1339301 6.8671875 8.9179688 C 6.9388113 8.8920047 7.2814374 8.7056852 7.0898438 8.203125 C 6.5983254 7.7011617 6.2265625 6.8882864 6.2265625 6.0878906 C 6.2265625 4.8619301 7.0365536 4.2207031 7.984375 4.2207031 z "
     />
</svg>
