<?xml version="1.0" encoding="UTF-8" standalone="no"?>
<svg
   xmlns:dc="http://purl.org/dc/elements/1.1/"
   xmlns:cc="http://creativecommons.org/ns#"
   xmlns:rdf="http://www.w3.org/1999/02/22-rdf-syntax-ns#"
   xmlns:svg="http://www.w3.org/2000/svg"
   xmlns="http://www.w3.org/2000/svg"
   xmlns:sodipodi="http://sodipodi.sourceforge.net/DTD/sodipodi-0.dtd"
   xmlns:inkscape="http://www.inkscape.org/namespaces/inkscape"
   viewBox="0 0 16 16"
   id="svg2"
   version="1.1"
   inkscape:version="0.91 r13725"
   sodipodi:docname="document-print-symbolic.svg">
  <metadata
     id="metadata10">
    <rdf:RDF>
      <cc:Work
         rdf:about="">
        <dc:format>image/svg+xml</dc:format>
        <dc:type
           rdf:resource="http://purl.org/dc/dcmitype/StillImage" />
      </cc:Work>
    </rdf:RDF>
  </metadata>
  <sodipodi:namedview
     pagecolor="#ffffff"
     bordercolor="#666666"
     borderopacity="1"
     objecttolerance="10"
     gridtolerance="10"
     guidetolerance="10"
     inkscape:pageopacity="0"
     inkscape:pageshadow="2"
     inkscape:window-width="640"
     inkscape:window-height="480"
     id="namedview8"
     showgrid="false"
     inkscape:zoom="39.8125"
     inkscape:cx="4.0816327"
     inkscape:cy="9.0047096"
     inkscape:current-layer="svg2" />
  <defs
     id="defs3051">
    <style
       type="text/css"
       id="current-color-scheme">
      .ColorScheme-Text {
        color:#bebebe;
      }
      </style>
    <style
       id="current-color-scheme-7"
       type="text/css">
      .ColorScheme-Text {
        color:#4d4d4d
      }
      </style>
  </defs>
  <g
     id="g3205"
     transform="matrix(0.75,0,0,0.75,-0.25,-0.25)"
     style="fill:#bebebe;fill-opacity:1">
    <path
       id="path3233"
       d="M 7,3 C 6.4482907,3 6,3.4482577 6,4 l 0,2 1,0 0,-2 8,0 0,2 1,0 0,-2 C 16,3.4482577 15.552831,3 15,3 L 7,3 Z"
       style="fill:#bebebe;fill-opacity:1;stroke:none"
       inkscape:connector-curvature="0" />
    <path
       id="path3231"
       d="M 4,7 C 3.4482907,7 3,7.4482247 3,8 l 0,5 c 0,0.552798 0.4482577,1 1,1 l 2,0 0,4 c 0,0.552798 0.4482577,1 1,1 l 8,0 c 0.552831,0 1,-0.447202 1,-1 l 0,-4 2,0 c 0.552633,0 1,-0.447202 1,-1 L 19,8 C 19,7.4482247 18.5526,7 18,7 L 4,7 Z m 13,1 c 0.552831,0 1,0.4482577 1,1 3.3e-5,0.5527316 -0.447169,1 -1,1 -0.552798,0 -1,-0.4472354 -1,-1 0,-0.5517094 0.447202,-1 1,-1 z m -10,5 8,0 0,5 -8,0 0,-5 z"
       style="fill:#bebebe;fill-opacity:1;stroke:none"
       inkscape:connector-curvature="0" />
  </g>
</svg>
