<svg xmlns="http://www.w3.org/2000/svg" viewBox="0 0 16 16">
  <defs id="defs3051">
    <style type="text/css" id="current-color-scheme">
      .ColorScheme-Text {
        color:#bebebe;
      }
      </style>
  </defs>
 <path 
           style="fill:currentColor;fill-opacity:1;stroke:none" 
           class="ColorScheme-Text"
        d="M 4.25,0.5 C 3.7327725,0.5 3.3125,0.92024159 3.3125,1.4375 l 0,1.875 0.9375,0 0,-1.875 7.5,0 0,1.875 0.9375,0 0,-1.875 C 12.6875,0.92024159 12.268279,0.5 11.75,0.5 l -7.5,0 z M 1.4375,4.25 C 0.92027253,4.25 0.5,4.6702107 0.5,5.1875 l 0,4.6875 c 0,0.518248 0.42024159,0.9375 0.9375,0.9375 l 1.875,0 0,3.75 c 0,0.518248 0.4202416,0.9375 0.9375,0.9375 l 7.5,0 c 0.518279,0 0.9375,-0.419252 0.9375,-0.9375 l 0,-3.75 1.875,0 c 0.518093,0 0.9375,-0.419252 0.9375,-0.9375 l 0,-4.6875 C 15.5,4.6702107 15.080562,4.25 14.5625,4.25 l -13.125,0 z M 13.625,5.1875 c 0.518279,0 0.9375,0.4202416 0.9375,0.9375 3.1e-5,0.5181859 -0.419221,0.9375 -0.9375,0.9375 -0.518248,0 -0.9375,-0.4192832 -0.9375,-0.9375 0,-0.5172276 0.419252,-0.9375 0.9375,-0.9375 z M 4.25,8 l 7.5,0 0,6.5625 -7.5,0 L 4.25,8 Z m 0.9375,0.9375 0,0.9375 3.75,0 0,-0.9375 -3.75,0 z m 0,1.875 0,0.9375 5.625,0 0,-0.9375 -5.625,0 z m 0,1.875 0,0.9375 5.625,0 0,-0.9375 -5.625,0 z"
     />
</svg>
