<?xml version="1.0" encoding="UTF-8" standalone="no"?>
<svg
   xmlns:dc="http://purl.org/dc/elements/1.1/"
   xmlns:cc="http://creativecommons.org/ns#"
   xmlns:rdf="http://www.w3.org/1999/02/22-rdf-syntax-ns#"
   xmlns:svg="http://www.w3.org/2000/svg"
   xmlns="http://www.w3.org/2000/svg"
   xmlns:sodipodi="http://sodipodi.sourceforge.net/DTD/sodipodi-0.dtd"
   xmlns:inkscape="http://www.inkscape.org/namespaces/inkscape"
   viewBox="0 0 16 16"
   id="svg3429"
   version="1.1"
   inkscape:version="0.91 r13725"
   sodipodi:docname="document-import-symbolic.svg">
  <metadata
     id="metadata3437">
    <rdf:RDF>
      <cc:Work
         rdf:about="">
        <dc:format>image/svg+xml</dc:format>
        <dc:type
           rdf:resource="http://purl.org/dc/dcmitype/StillImage" />
      </cc:Work>
    </rdf:RDF>
  </metadata>
  <sodipodi:namedview
     pagecolor="#ffffff"
     bordercolor="#666666"
     borderopacity="1"
     objecttolerance="10"
     gridtolerance="10"
     guidetolerance="10"
     inkscape:pageopacity="0"
     inkscape:pageshadow="2"
     inkscape:window-width="640"
     inkscape:window-height="480"
     id="namedview3435"
     showgrid="false"
     inkscape:zoom="39.8125"
     inkscape:cx="-0.94191521"
     inkscape:cy="8"
     inkscape:current-layer="svg3429" />
  <defs
     id="defs3051">
    <style
       type="text/css"
       id="current-color-scheme">
      .ColorScheme-Text {
        color:#bebebe;
      }
      </style>
  </defs>
  <path
     style="color:#bebebe;fill:currentColor;fill-opacity:1;stroke:none"
     class="ColorScheme-Text"
     d="m 9.333394,2.0000002 c -0.2674856,0 -0.5342968,0.103509 -0.7385041,0.3105369 L 3.3030002,7.1824489 c -0.2205903,0.22426 -0.3190808,0.5241752 -0.3008719,0.817356 -0.018188,0.2936961 0.080191,0.5916097 0.3008719,0.8158913 l 5.2918897,4.8733768 c 0.4084152,0.414569 1.0700329,0.414569 1.4784471,0 0.408415,-0.414563 0.408415,-1.086855 0,-1.501417 L 5.5242696,7.9998049 10.073337,3.8104882 c 0.408415,-0.4145719 0.408415,-1.0858747 0,-1.4999511 C 9.8691301,2.1035092 9.6008796,2.0000002 9.333394,2.0000002 Z m 1.946311,4.2581622 c -0.950019,0 -1.7202982,0.7820153 -1.7202982,1.747501 0,0.9654872 0.7702792,1.7489671 1.7202982,1.7489671 C 12.229721,9.7546305 13,8.9711506 13,8.0056634 13,7.0401777 12.229721,6.2581624 11.279705,6.2581624 Z"
     id="path3433"
     inkscape:connector-curvature="0" />
</svg>
