<svg xmlns="http://www.w3.org/2000/svg" viewBox="0 0 16 16">
  <defs id="defs3051">
    <style type="text/css" id="current-color-scheme">
      .ColorScheme-Text {
        color:#bebebe;
      }
      </style>
  </defs>
 <path 
           style="fill:currentColor;fill-opacity:1;stroke:none" 
           class="ColorScheme-Text"
        d="M 0.57794655,5.3395283 1.5169183,6.1029992 0.63316529,7.8647939 C 0.19130287,8.6771835 0.95039648,9.4685638 1.4340526,9.7440572 1.9101807,10.015238 2.6491743,10.047479 3.3395961,10.03771 L 4.5823365,7.9235282 5.5212988,8.4520713 3.8919147,5.310194 0.57794655,5.3395377 Z m 0.1380656,4.3127384 2.01599965,3.8759673 c 0.4050468,0.538312 1.1691185,0.665558 1.9607903,0.645993 l 2.1264652,0 0,-3.670411 -4.0320086,-0.02934 C 2.1613088,10.513566 1.3419902,10.37655 0.71601215,9.6522761 Z M 13.399738,2.5093037 12.302873,2.9937938 11.250585,1.3353302 C 10.78206,0.53930933 9.7488793,0.84653707 9.2828954,1.1531929 8.8241674,1.4550863 8.4387799,2.1120761 8.1122862,2.7452159 L 9.2866454,4.9013039 8.3872081,5.4996813 11.817754,5.5399 13.399738,2.5093319 Z M 9.708145,0.54415619 5.4731863,0.5 C 4.8243989,0.60766237 4.347024,1.2413928 3.9796647,1.9714794 L 2.9487336,3.9069364 6.0335581,5.6864029 8.0129956,2.0307762 C 8.2835581,1.4420176 8.7959299,0.76276217 9.708145,0.54417494 Z M 9.8923637,15.499963 10.01692,14.266711 11.920963,14.113036 c 0.896147,-0.04059 1.138847,-1.129845 1.107028,-1.702657 -0.03131,-0.563896 -0.396665,-1.233177 -0.770512,-1.837292 L 9.8760605,10.596712 9.8091231,9.4879606 8.1121831,12.590866 9.8923074,15.5 Z M 13.33371,13.092719 15.423969,9.2596234 C 15.648041,8.616893 15.346906,7.8751439 14.911344,7.1868323 l -1.126856,-1.8766664 -2.991103,1.9450288 2.112722,3.5739233 c 0.363656,0.531675 0.686128,1.327321 0.427603,2.263601 z"
     />
</svg>
