<svg xmlns="http://www.w3.org/2000/svg" viewBox="0 0 16 16">
  <defs id="defs3051">
    <style type="text/css" id="current-color-scheme">
      .ColorScheme-Text {
        color:#bebebe;
      }
      </style>
  </defs>
 <path 
           style="fill:currentColor;fill-opacity:1;stroke:none" 
           class="ColorScheme-Text"
        d="M 6.8347468,0.50368765 C 6.1795774,0.52431269 5.5389432,0.63746917 4.9147864,0.84231333 4.0824693,1.1154076 3.3557944,1.5079397 2.7311475,2.0215032 2.1065007,2.5350667 1.5950462,3.1606617 1.197913,3.8982882 0.80065688,4.6360084 0.57217318,5.4215413 0.51430499,6.252918 0.45643381,7.0841071 0.57425623,7.888015 0.86587522,8.6679228 1.1573912,9.4475494 1.5775058,10.12977 2.1256661,10.714865 c 0.5481533,0.585376 1.2147109,1.065283 2.0019941,1.437471 0.7873982,0.372189 1.6244534,0.58472 2.5117706,0.638908 1.3653047,0.08344 2.6283016,-0.202125 3.7891392,-0.855002 l 2.986389,3.178507 c 0.207966,0.234563 0.479171,0.36225 0.814471,0.382688 0.322619,0.01969 0.608448,-0.07406 0.859393,-0.280126 0.251165,-0.206438 0.387171,-0.461344 0.408211,-0.763501 0.02155,-0.307876 -0.07429,-0.576564 -0.289069,-0.805596 L 12.223529,10.462302 C 13.065381,9.4687369 13.531017,8.3319222 13.620043,7.0529821 13.677914,6.2216991 13.562061,5.4158225 13.270425,4.6361959 12.978916,3.8563819 12.558795,3.1742555 12.010634,2.5891606 11.462473,2.0038781 10.793977,1.5256585 10.006686,1.153564 9.2191754,0.78146946 8.3822332,0.56706278 7.494917,0.51278142 7.2730874,0.49965639 7.0531369,0.49684389 6.8347468,0.5034064 Z m 0.50587,2.24287945 c 1.1479026,0.070313 2.1023602,0.5113136 2.8652922,1.3256277 0.762819,0.8142204 1.106134,1.7589411 1.031272,2.8342557 C 11.162309,7.9821402 10.69027,8.8778295 9.8211358,9.5925809 8.9518889,10.307239 7.9437002,10.629458 6.795684,10.559333 5.6477814,10.489021 4.6932098,10.046144 3.9303912,9.2318302 3.1675795,8.4175161 2.8222964,7.4730767 2.8971659,6.3975745 2.9720275,5.3220723 3.4440842,4.427883 4.313211,3.7133191 5.1823449,2.9986614 6.1927146,2.676442 7.3406168,2.7465671 Z"
     />
</svg>
