<?xml version="1.0" encoding="UTF-8" standalone="no"?>
<svg
   xmlns:dc="http://purl.org/dc/elements/1.1/"
   xmlns:cc="http://creativecommons.org/ns#"
   xmlns:rdf="http://www.w3.org/1999/02/22-rdf-syntax-ns#"
   xmlns:svg="http://www.w3.org/2000/svg"
   xmlns="http://www.w3.org/2000/svg"
   xmlns:sodipodi="http://sodipodi.sourceforge.net/DTD/sodipodi-0.dtd"
   xmlns:inkscape="http://www.inkscape.org/namespaces/inkscape"
   viewBox="0 0 16 16"
   id="svg3197"
   version="1.1"
   inkscape:version="0.91 r13725"
   sodipodi:docname="edit-cut-symbolic.svg">
  <metadata
     id="metadata3205">
    <rdf:RDF>
      <cc:Work
         rdf:about="">
        <dc:format>image/svg+xml</dc:format>
        <dc:type
           rdf:resource="http://purl.org/dc/dcmitype/StillImage" />
      </cc:Work>
    </rdf:RDF>
  </metadata>
  <sodipodi:namedview
     pagecolor="#ffffff"
     bordercolor="#666666"
     borderopacity="1"
     objecttolerance="10"
     gridtolerance="10"
     guidetolerance="10"
     inkscape:pageopacity="0"
     inkscape:pageshadow="2"
     inkscape:window-width="640"
     inkscape:window-height="480"
     id="namedview3203"
     showgrid="false"
     inkscape:zoom="39.8125"
     inkscape:cx="3.5290424"
     inkscape:cy="8"
     inkscape:current-layer="svg3197" />
  <defs
     id="defs3051">
    <style
       type="text/css"
       id="current-color-scheme">
      .ColorScheme-Text {
        color:#bebebe;
      }
      </style>
  </defs>
  <path
     style="color:#bebebe;fill:currentColor;fill-opacity:1;stroke:none"
     class="ColorScheme-Text"
     d="M 4.8998559,1 4.5610973,1.6030815 C 4.3511571,1.9774001 4.1691988,2.154362 4.071948,2.4871962 4.023322,2.6536132 4.024302,2.8526916 4.073468,3.032552 4.122637,3.2124127 4.2077346,3.3847284 4.3271574,3.5976563 L 6.9673496,8.3129345 5.6335822,10.664496 C 5.2848541,10.448693 4.9404447,10.204209 4.5018524,10.204209 3.2120741,10.204209 2.167,11.284523 2.167,12.602865 2.167,13.921204 3.2120738,15 4.5018524,15 c 1.2897788,0 2.3348525,-1.078796 2.3348525,-2.397135 0,-0.104187 -0.016319,-0.201727 -0.028862,-0.300782 0.3595264,-0.780554 0.6988652,-1.391154 1.4066842,-1.74848 0.00236,-0.0026 0.00229,-0.0035 0.00455,-0.0061 l 0.9752605,1.740886 c -0.013393,0.104249 -0.03038,0.206733 -0.03038,0.314453 10e-8,1.318329 1.0450734,2.397125 2.3348524,2.397125 1.289779,0 2.334853,-1.078796 2.334853,-2.397135 0,-1.318342 -1.045074,-2.398656 -2.334853,-2.398656 -0.436924,0 -0.781209,0.239978 -1.128689,0.454211 L 9.0409151,8.3129345 11.684144,3.5976563 l 0,-0.00152 c 0.118949,-0.2121928 0.203123,-0.3841753 0.25217,-0.5635851 0.04917,-0.1798605 0.0516,-0.3789389 0.0031,-0.5453558 -0.09737,-0.3327998 -0.279252,-0.509794 -0.489191,-0.8841126 L 11.111444,1 8.0048903,6.4824215 4.8998559,1 Z M 4.5018524,11.799262 c 0.4327616,0 0.7747396,0.348757 0.7747396,0.803603 0,0.454846 -0.341978,0.802083 -0.7747396,0.802083 -0.4327616,0 -0.7732204,-0.347237 -0.7732204,-0.802083 0,-0.454847 0.3404588,-0.803603 0.7732204,-0.803603 z m 6.9969616,0 c 0.432761,0 0.773221,0.348757 0.773221,0.803603 0,0.454846 -0.34046,0.802083 -0.773221,0.802083 -0.432763,0 -0.77474,-0.347237 -0.77474,-0.802083 0,-0.454847 0.341977,-0.803603 0.77474,-0.803603 z"
     id="path3201"
     inkscape:connector-curvature="0" />
</svg>
