<svg viewBox="0 0 16 16" xmlns="http://www.w3.org/2000/svg"><path d="m2.0623572 5.8716225.7511774.6107767-.7070024 1.4094359c-.3534899.6499117.2537849 1.2830159.6407099 1.5034109.3809024.216945.9720974.242737 1.5244348.234922l.9941923-1.6913455.7511699.4228344-1.3035073-2.5135018-2.6511746.023475zm.1104525 3.4501915 1.6127998 3.100773c.3240374.43065.9352948.532447 1.5686322.516795h1.7011722v-2.936329l-3.2256069-.02347c-.5007599.03127-1.1562148-.07834-1.6569973-.65776zm10.1469803-5.7143711-.877491.387592-.841831-1.3267708c-.37482-.6368167-1.2013645-.3910346-1.5741516-.1457099-.3669824.2415147-.6752924.7671066-.9364874 1.2736184l.9394874 1.7248705-.7195499.4787018 2.7444365.032175 1.265587-2.4244545zm-2.953274-1.5721181-3.3879669-.035325c-.51903.08613-.9009299.5931144-1.1948173 1.1771836l-.8247449 1.5483656 2.4678596 1.4235732 1.58355-2.9245014c.21645-.4710068.6263475-1.0144112 1.3561195-1.189281zm.147375 11.9646452.099645-.986601 1.523234-.12294c.716918-.03247.911078-.903876.885623-1.362126-.02504-.451116-.317332-.986541-.61641-1.469833l-1.9051345.0189-.0535499-.887002-1.3575521 2.482325 1.4240995 2.327307zm2.753077-1.925795 1.672208-3.066476c.179257-.5141847-.06166-1.1075839-.4101-1.6582332l-.901486-1.5013332-2.392882 1.5560231 1.690178 2.8591383c.290924.42534.548902 1.061857.342082 1.810881z" fill="#bebebe"/></svg>