<?xml version="1.0" encoding="UTF-8" standalone="no"?>
<svg
   xmlns:dc="http://purl.org/dc/elements/1.1/"
   xmlns:cc="http://creativecommons.org/ns#"
   xmlns:rdf="http://www.w3.org/1999/02/22-rdf-syntax-ns#"
   xmlns:svg="http://www.w3.org/2000/svg"
   xmlns="http://www.w3.org/2000/svg"
   xmlns:sodipodi="http://sodipodi.sourceforge.net/DTD/sodipodi-0.dtd"
   xmlns:inkscape="http://www.inkscape.org/namespaces/inkscape"
   viewBox="0 0 16 16"
   id="svg3371"
   version="1.1"
   inkscape:version="0.91 r13725"
   sodipodi:docname="edit-paste-symbolic.svg">
  <metadata
     id="metadata3379">
    <rdf:RDF>
      <cc:Work
         rdf:about="">
        <dc:format>image/svg+xml</dc:format>
        <dc:type
           rdf:resource="http://purl.org/dc/dcmitype/StillImage" />
      </cc:Work>
    </rdf:RDF>
  </metadata>
  <sodipodi:namedview
     pagecolor="#ffffff"
     bordercolor="#666666"
     borderopacity="1"
     objecttolerance="10"
     gridtolerance="10"
     guidetolerance="10"
     inkscape:pageopacity="0"
     inkscape:pageshadow="2"
     inkscape:window-width="640"
     inkscape:window-height="480"
     id="namedview3377"
     showgrid="false"
     inkscape:zoom="39.8125"
     inkscape:cx="3.0769231"
     inkscape:cy="8"
     inkscape:current-layer="svg3371" />
  <defs
     id="defs3051">
    <style
       type="text/css"
       id="current-color-scheme">
      .ColorScheme-Text {
        color:#bebebe;
      }
      </style>
  </defs>
  <path
     style="color:#bebebe;fill:currentColor;fill-opacity:1;stroke:none"
     class="ColorScheme-Text"
     d="m 10.083747,6.0034736 -0.6301334,0 0,-1.4862336 C 9.4536136,4.3619466 9.32818,4.2361067 9.17352,4.2361067 l -0.30182,0 L 8.2677736,2.20084 C 8.23244,2.0817 8.1232464,2 7.9993336,2 7.87548,2 7.7662466,2.0817 7.7308933,2.20084 l -0.6039267,2.0352667 -0.30182,0 c -0.15466,0 -0.2800933,0.1258399 -0.2800933,0.2811333 l 0,1.48628 -0.6301333,0 C 5.2262866,6.00352 4.666,6.56584 4.666,7.2570864 l 0,5.4893536 C 4.666,13.43768 5.2262334,14 5.91492,14 l 4.168827,0 c 0.688634,0 1.24892,-0.56232 1.24892,-1.25356 l 0,-5.4893536 c 0,-0.6913064 -0.560232,-1.2536128 -1.24892,-1.2536128 z"
     id="path3375"
     inkscape:connector-curvature="0" />
</svg>
