<svg viewBox="0 0 16 16" xmlns="http://www.w3.org/2000/svg"><path d="m4.7405701 1.9999978-2.4376749.0075c-.077528.0002548-.1478211.032699-.19849.083495-.050662.050774-.082564.120485-.08233.1977484l.00881 2.42866c.0004972.1545496.1257278.2803071.2808131.2797821.1550628-.000495.2812871-.1267325.2808203-.2812442l-.00753-2.1488858 2.1568547-.0075c.1550539-.0004871.2813081-.126762.2808189-.2812438-.0004216-.1545493-.1271276-.2788517-.2822882-.2783193zm6.5411439 0c-.155161-.0005326-.281867.1237699-.282288.2783192-.000497.1544818.124296.2807568.279343.2812442l2.158331.0075-.0075 2.1488782c-.000467.1545193.125757.2807492.28082.2812442.155085.000525.280323-.1252324.280813-.2797818l.0088-2.42866c.000233-.07726-.03169-.1469707-.08233-.1977446-.05066-.050774-.120962-.083241-.198482-.083496l-2.437652-.0075zm-.699842 1.504364c-.358295 0-.6883912.087733-.9909439.2636646-.3025902.1759089-.5423622.4148314-.7189541.7162953-.1766222.3014712-.2661187.630347-.2661187.9872872 0 .3569701.089557.6872483.2661187.9887496.1765919.3014038.4148959.5403564.7174788.7162953.3025906.1759313.6341242.2636645.9924192.2636645s.688392-.087733.990952-.2636645c.302553-.1759089.542361-.4148615.718954-.7162953.176554-.3014713.264643-.6318095.264643-.9887496 0-.3569702-.08812-.685846-.264643-.9872872-.176593-.3014339-.416401-.5403564-.718954-.7162953-.302621-.1759314-.632626-.2636646-.990952-.2636646zm-5.1635168.003c-.3582952 0-.6883992.087733-.9909518.2636646-.3025828.1759088-.5423622.4148239-.7189541.7162952-.1766221.3014638-.2646432.630347-.2646432.9872797 0 .3569701.088089.6857858.2646432.9872872.1765919.3014038.4163713.5403564.7189541.7162953.3025902.1759389.6326566.2636645.9909518.2636645s.6898596-.087726.9924197-.2636645c.3025527-.1759089.5408867-.4148615.7174787-.7162953.1765619-.3014638.2661187-.6303471.2661187-.9872872 0-.3569627-.0895869-.6858459-.2661187-.9872797-.176592-.3014413-.414926-.5403564-.7174787-.7162953-.3026203-.1759389-.6340945-.2636646-.9924197-.2636646zm.042607 5.0521437c-.3582952 0-.6883916.087726-.9909519.2636646-.3025832.1759088-.5423627.4148312-.7189546.7162952-.176622.301472-.2646432.6318097-.2646432.9887487 0 .356971.088089.685786.2646432.987288.1765919.301404.4163714.540357.7189541.716288.3025903.175939.6326567.263672.9909519.263672.3582951 0 .6883916-.08773.9909443-.263672.3025602-.175909.5423621-.414854.718954-.716295.176562-.301464.2646434-.630348.2646434-.987281 0-.356969-.088112-.6873147-.2646434-.9887487-.1765919-.301441-.4163938-.5403564-.718954-.7162953-.302613-.1759389-.6326191-.2636646-.9909443-.2636646zm5.1208808 0c-.358325 0-.6898372.087711-.9924201.2636646-.3026128.1759238-.5423472.4148012-.7189542.7162952-.1766372.301494-.2646433.6303167-.2646433.9872867 0 .356993.088074.687226.2646433.98875.176607.301426.4163414.540342.7189542.716288.3026129.175954.6340951.263672.9924201.263672s.68837-.08772.990953-.263672c.302583-.175916.542347-.414832.718954-.716288.176569-.301493.264643-.631787.264643-.98875 0-.357-.0881-.6858227-.264643-.9872867-.176609-.301464-.416373-.5403414-.718956-.7162953-.302643-.175954-.632596-.2636646-.990952-.2636646zm-8.2922116 2.4433075c-.1550929-.000526-.2803234.125232-.2808202.279774l-.00881 2.428667c-.0002258.07725.031691.146974.082338.197749.050661.05078.1209548.08324.1984825.08349l2.4376748.0075c.1551636.00055.2818696-.123745.2822911-.278294.0004968-.154482-.1242971-.280757-.2793448-.281244l-2.1583301-.0075.00753-2.14888c.0004566-.154538-.12576-.280775-.2808228-.281262zm11.3988556 0c-.155063.000494-.281287.126724-.28082.281243l.0075 2.148879-2.156862.0075c-.155047.000488-.281308.126762-.280812.281244.000422.154549.127127.278852.282288.278319l2.437675-.0075c.07752-.000254.14782-.0327.198482-.08349.05066-.05078.08256-.120493.08234-.197749l-.0088-2.42866c-.000497-.15455-.125727-.280308-.28082-.279782z" fill="#bebebe"/></svg>