<svg xmlns="http://www.w3.org/2000/svg" viewBox="0 0 16 16">
  <path fill="#bebebe" d="M5.342 2l-.29.517c-.18.32-.336.472-.42.758a.885.885 0 0 0 .002.467c.042.154.115.302.218.485l2.263 4.041-1.144 2.016c-.299-.185-.594-.395-.97-.395C3.896 9.89 3 10.815 3 11.945S3.896 14 5.001 14c1.106 0 2.002-.925 2.002-2.055 0-.089-.014-.173-.025-.258.308-.669.599-1.192 1.206-1.498l.003-.005.836 1.492c-.011.09-.026.177-.026.27C8.997 13.075 9.893 14 11 14c1.104 0 2-.925 2-2.055s-.896-2.056-2.001-2.056c-.375 0-.67.206-.968.39l-1.14-2.01 2.267-4.042v-.002a2.15 2.15 0 0 0 .216-.483.887.887 0 0 0 .002-.467c-.083-.286-.239-.437-.419-.758L10.667 2 8.004 6.7zm-.34 9.257c.37 0 .663.298.663.688s-.293.688-.664.688c-.37 0-.662-.298-.662-.688s.291-.688.662-.688zm5.997 0c.37 0 .662.298.662.688s-.291.688-.662.688a.667.667 0 0 1-.664-.688c0-.39.293-.688.664-.688z"/>
</svg>
