<svg viewBox="0 0 16 16" xmlns="http://www.w3.org/2000/svg"><path d="m7.1299439 2.0029511c-.4891931.0165001-.9675333.1070253-1.4335703.2709006-.6214634.2184754-1.1640473.5325011-1.6304503.9433518-.4664028.4108508-.8482889.9113268-1.1448149 1.5014279-.296618.5901761-.4672191 1.2186024-.5104274 1.8837037-.04321.6649513.044764 1.3080775.2625058 1.9320037.2176652.6237005.5313508 1.1694775.9406438 1.6375522.4092877.468301.9069841.852227 1.4948222 1.149977.5879239.297751 1.2129251.467776 1.8754552.511127 1.0194275.06675 1.9624651-.1617 2.829224-.684002l2.229837 2.542805c.155281.187651.357781.2898.608138.306151.240889.01575.454308-.05925.64168-.224101.187537-.16515.289088-.369075.304798-.610801.01609-.246301-.05547-.461251-.215839-.644476l-2.228378-2.5487297c.628583-.794852.976258-1.704303 1.04273-2.7274549.043211-.6650264-.043293-1.3097276-.261049-1.9334289-.217659-.6238511-.531349-1.1695522-.940643-1.6376281-.409293-.468226-.908437-.8508016-1.4962809-1.1484772-.5880079-.2976756-1.2129247-.469201-1.8754541-.5126261-.1656327-.0105-.3298624-.01275-.4929271-.0075zm.3777162 1.7943035c.8571006.05625 1.5697622.4090509 2.1394179 1.060502.569572.6513763.825913 1.4071528.770016 2.2674044-.0559.8605517-.40836 1.5771032-1.0573131 2.1489043-.6490377.571725-1.4018185.8295007-2.2590038.7734007-.8571006-.0562487-1.5698473-.4105507-2.1394185-1.0620013-.569566-.6514512-.8273773-1.4070027-.7714748-2.2674044.0558967-.8604017.4083655-1.5757531 1.0573136-2.1474042.6489532-.5717261 1.4033625-.8295016 2.2604627-.7734015z" fill="#bebebe"/></svg>