<svg xmlns="http://www.w3.org/2000/svg" viewBox="0 0 16 16">
  <defs id="defs3051">
    <style type="text/css" id="current-color-scheme">
      .ColorScheme-Text {
        color:#bebebe;
      }
      </style>
  </defs>
 <path 
           style="fill:currentColor;fill-opacity:1;stroke:none" 
           class="ColorScheme-Text"
        d="m 10.605517,5.504342 -0.7876665,0 0,-1.857792 c 0,-0.1941167 -0.156792,-0.3514167 -0.350117,-0.3514167 l -0.377275,0 L 8.3355505,0.75105 C 8.2913835,0.602125 8.1548915,0.5 8.0000005,0.5 7.8451835,0.5 7.7086418,0.602125 7.6644502,0.75105 l -0.7549084,2.5440833 -0.377275,0 c -0.193325,0 -0.3501166,0.1573 -0.3501166,0.3514167 l 0,1.85785 -0.7876667,0 c -0.8607917,0 -1.56115,0.7029 -1.56115,1.566958 l 0,6.861692 c 0,0.86405 0.7002917,1.56695 1.56115,1.56695 l 5.2110335,0 c 0.860792,0 1.56115,-0.7029 1.56115,-1.56695 l 0,-6.861692 c 0,-0.864133 -0.700291,-1.567016 -1.56115,-1.567016 z"
     />
</svg>
