<?xml version="1.0" encoding="UTF-8" standalone="no"?>
<svg
   xmlns:dc="http://purl.org/dc/elements/1.1/"
   xmlns:cc="http://creativecommons.org/ns#"
   xmlns:rdf="http://www.w3.org/1999/02/22-rdf-syntax-ns#"
   xmlns:svg="http://www.w3.org/2000/svg"
   xmlns="http://www.w3.org/2000/svg"
   xmlns:sodipodi="http://sodipodi.sourceforge.net/DTD/sodipodi-0.dtd"
   xmlns:inkscape="http://www.inkscape.org/namespaces/inkscape"
   viewBox="0 0 16 16"
   id="svg3313"
   version="1.1"
   inkscape:version="0.91 r13725"
   sodipodi:docname="edit-find-symbolic.svg">
  <metadata
     id="metadata3321">
    <rdf:RDF>
      <cc:Work
         rdf:about="">
        <dc:format>image/svg+xml</dc:format>
        <dc:type
           rdf:resource="http://purl.org/dc/dcmitype/StillImage" />
      </cc:Work>
    </rdf:RDF>
  </metadata>
  <sodipodi:namedview
     pagecolor="#ffffff"
     bordercolor="#666666"
     borderopacity="1"
     objecttolerance="10"
     gridtolerance="10"
     guidetolerance="10"
     inkscape:pageopacity="0"
     inkscape:pageshadow="2"
     inkscape:window-width="640"
     inkscape:window-height="480"
     id="namedview3319"
     showgrid="false"
     inkscape:zoom="22.627417"
     inkscape:cx="3.2567303"
     inkscape:cy="4.1297116"
     inkscape:current-layer="svg3313" />
  <defs
     id="defs3051">
    <style
       type="text/css"
       id="current-color-scheme">
      .ColorScheme-Text {
        color:#bebebe;
      }
      </style>
  </defs>
  <path
     style="color:#bebebe;fill:currentColor;fill-opacity:1;stroke:none"
     class="ColorScheme-Text"
     d="M 7.1299439,2.0029511 C 6.6407508,2.0194512 6.1624106,2.1099764 5.6963736,2.2738517 5.0749102,2.4923271 4.5323263,2.8063528 4.0659233,3.2172035 3.5995205,3.6280543 3.2176344,4.1285303 2.9211084,4.7186314 2.6244904,5.3088075 2.4538893,5.9372338 2.410681,6.6023351 2.367471,7.2672864 2.455445,7.9104126 2.6731868,8.5343388 2.890852,9.1580393 3.2045376,9.7038163 3.6138306,10.171891 c 0.4092877,0.468301 0.9069841,0.852227 1.4948222,1.149977 0.5879239,0.297751 1.2129251,0.467776 1.8754552,0.511127 1.0194275,0.06675 1.9624651,-0.1617 2.829224,-0.684002 l 2.229837,2.542805 c 0.155281,0.187651 0.357781,0.2898 0.608138,0.306151 0.240889,0.01575 0.454308,-0.05925 0.64168,-0.224101 0.187537,-0.16515 0.289088,-0.369075 0.304798,-0.610801 0.01609,-0.246301 -0.05547,-0.461251 -0.215839,-0.644476 L 11.153568,9.9698413 c 0.628583,-0.794852 0.976258,-1.704303 1.04273,-2.7274549 C 12.239509,6.57736 12.153005,5.9326588 11.935249,5.3089575 11.71759,4.6851064 11.4039,4.1394053 10.994606,3.6713294 10.585313,3.2031034 10.086169,2.8205278 9.4983251,2.5228522 8.9103172,2.2251766 8.2854004,2.0536512 7.622871,2.0102261 c -0.1656327,-0.0105 -0.3298624,-0.01275 -0.4929271,-0.0075 z m 0.3777162,1.7943035 c 0.8571006,0.05625 1.5697622,0.4090509 2.1394179,1.060502 0.569572,0.6513763 0.825913,1.4071528 0.770016,2.2674044 -0.0559,0.8605517 -0.40836,1.5771032 -1.0573131,2.1489043 C 8.7107432,9.8457903 7.9579624,10.103566 7.1007771,10.047466 6.2436765,9.9912173 5.5309298,9.6369153 4.9613586,8.9854647 4.3917926,8.3340135 4.1339813,7.578462 4.1898838,6.7180603 4.2457805,5.8576586 4.5982493,5.1423072 5.2471974,4.5706561 5.8961506,3.99893 6.6505599,3.7411545 7.5076601,3.7972546 Z"
     id="path3317"
     inkscape:connector-curvature="0" />
</svg>
