<svg viewBox="0 0 16 16" xmlns="http://www.w3.org/2000/svg"><path d="m5.3424479 1.999999-.2903645.516927c-.1799487.3208445-.335913.4725261-.4192708.7578126-.04168.1426431-.04084.3132818.0013.4674478.042145.1541663.1150857.3018655.2174481.4843751l2.2630247 4.0416671-1.1432292 2.0156244c-.2989098-.184974-.5941179-.394532-.9700541-.394532-1.1055243 0-2.0013021.925983-2.0013021 2.055991 0 1.130005.8957775 2.054687 2.0013021 2.054687s2.0013021-.924682 2.0013021-2.054687c0-.0893-.013988-.172909-.024739-.257813.3081655-.669047.5990274-1.192418 1.2057294-1.498697.00202-.0022.00196-.003.0039-.0052l.8359375 1.492188c-.01148.08936-.02604.1772-.02604.269531.0000001 1.129996.8957772 2.054679 2.0013019 2.054679 1.105525 0 2.001303-.924683 2.001303-2.054687 0-1.130008-.895778-2.055991-2.001303-2.055991-.374506 0-.669607.205695-.967447.389323l-1.1393198-2.0104164 2.2656248-4.0416671v-.0013c.101956-.1818796.174105-.3292931.216146-.483073.04214-.1541661.04423-.3248047.0027-.4674478-.08346-.285257-.239359-.4369663-.419307-.7578108l-.290425-.5169309-2.66276 4.6992184zm-.3411458 9.25651c.3709385 0 .6640625.298935.6640625.688803s-.293124.6875-.6640625.6875c-.3709386 0-.6627604-.297632-.6627604-.6875 0-.389869.2918218-.688803.6627604-.688803zm5.9973959 0c .370938 0 .662761.298935.662761.688803s-.291823.6875-.662761.6875c-.37094 0-.664063-.297632-.664063-.6875 0-.389869.293123-.688803.664063-.688803z" fill="#bebebe"/></svg>