<?xml version="1.0" encoding="UTF-8" standalone="no"?>
<!-- Created with Inkscape (http://www.inkscape.org/) -->

<svg
   xmlns:dc="http://purl.org/dc/elements/1.1/"
   xmlns:cc="http://creativecommons.org/ns#"
   xmlns:rdf="http://www.w3.org/1999/02/22-rdf-syntax-ns#"
   xmlns:svg="http://www.w3.org/2000/svg"
   xmlns="http://www.w3.org/2000/svg"
   xmlns:sodipodi="http://sodipodi.sourceforge.net/DTD/sodipodi-0.dtd"
   xmlns:inkscape="http://www.inkscape.org/namespaces/inkscape"
   id="svg7384"
   style="enable-background:new"
   height="16.003"
   width="16"
   version="1.1"
   inkscape:version="0.91 r13725"
   sodipodi:docname="edit-copy-symbolic.svg">
  <sodipodi:namedview
     pagecolor="#ffffff"
     bordercolor="#666666"
     borderopacity="1"
     objecttolerance="10"
     gridtolerance="10"
     guidetolerance="10"
     inkscape:pageopacity="0"
     inkscape:pageshadow="2"
     inkscape:window-width="1366"
     inkscape:window-height="633"
     id="namedview10"
     showgrid="false"
     inkscape:zoom="14.747235"
     inkscape:cx="8"
     inkscape:cy="8.0015001"
     inkscape:window-x="0"
     inkscape:window-y="33"
     inkscape:window-maximized="1"
     inkscape:current-layer="svg7384" />
  <metadata
     id="metadata90">
    <rdf:RDF>
      <cc:Work
         rdf:about="">
        <dc:format>image/svg+xml</dc:format>
        <dc:type
           rdf:resource="http://purl.org/dc/dcmitype/StillImage" />
        <dc:title>Paper Symbolic Icon Theme</dc:title>
      </cc:Work>
    </rdf:RDF>
  </metadata>
  <title
     id="title8473">Paper Symbolic Icon Theme</title>
  <defs
     id="defs7386">
    <filter
       id="filter7554"
       style="color-interpolation-filters:sRGB">
      <feBlend
         id="feBlend7556"
         in2="BackgroundImage"
         mode="darken" />
    </filter>
  </defs>
  <g
     transform="matrix(0.87499984,0,0,0.87499984,-286.87494,-469.19034)"
     id="layer1"
     inkscape:label="Capa 1">
    <g
       inkscape:label="Capa 1"
       id="layer1-9"
       transform="matrix(1.3409571,0,0,1.3409571,-483.62356,-163.95726)">
      <g
         style="fill:#4d4d4d;fill-opacity:1"
         transform="matrix(0.01949637,0,0,0.01949637,606.00265,522.99918)"
         id="g3">
        <g
           style="fill:#4d4d4d;fill-opacity:1"
           id="web_-_browser_tab">
          <g
             style="fill:#4d4d4d;fill-opacity:1"
             id="g6">
            <path
               sodipodi:nodetypes="ssssssssssssccssssssccssss"
               style="fill:#4d4d4d;fill-opacity:1"
               inkscape:connector-curvature="0"
               id="path8"
               d="m 459,114.75 -420.75,0 C 17.136,114.75 0,131.886 0,153 L 0,573.75 C 0,594.864 17.136,612 38.25,612 L 459,612 c 21.114,0 38.25,-17.136 38.25,-38.25 l 0,-420.75 c 0,-21.114 -17.136,-38.25 -38.25,-38.25 z M 573.75,0 191.25,0 C 170.136,0 153,17.136 153,38.25 l 0,38.25 38.25,0 0,-19.125 c 0,-10.557 8.568,-19.125 19.125,-19.125 l 344.25,0 c 10.557,0 19.125,8.568 19.125,19.125 l 0,344.25 c 0,10.557 -8.568,19.125 -19.125,19.125 l -19.125,0 0,38.25 38.25,0 C 594.864,459 612,441.864 612,420.75 l 0,-382.5 C 612,17.136 594.864,0 573.75,0 Z" />
          </g>
        </g>
      </g>
    </g>
  </g>
</svg>
