<?xml version="1.0" encoding="UTF-8" standalone="no"?>
<svg
   xmlns:dc="http://purl.org/dc/elements/1.1/"
   xmlns:cc="http://creativecommons.org/ns#"
   xmlns:rdf="http://www.w3.org/1999/02/22-rdf-syntax-ns#"
   xmlns:svg="http://www.w3.org/2000/svg"
   xmlns="http://www.w3.org/2000/svg"
   xmlns:sodipodi="http://sodipodi.sourceforge.net/DTD/sodipodi-0.dtd"
   xmlns:inkscape="http://www.inkscape.org/namespaces/inkscape"
   viewBox="0 0 16 16"
   id="svg3313"
   version="1.1"
   inkscape:version="0.91 r13725"
   sodipodi:docname="edit-symbolic.svg">
  <metadata
     id="metadata3321">
    <rdf:RDF>
      <cc:Work
         rdf:about="">
        <dc:format>image/svg+xml</dc:format>
        <dc:type
           rdf:resource="http://purl.org/dc/dcmitype/StillImage" />
      </cc:Work>
    </rdf:RDF>
  </metadata>
  <sodipodi:namedview
     pagecolor="#ffffff"
     bordercolor="#666666"
     borderopacity="1"
     objecttolerance="10"
     gridtolerance="10"
     guidetolerance="10"
     inkscape:pageopacity="0"
     inkscape:pageshadow="2"
     inkscape:window-width="640"
     inkscape:window-height="480"
     id="namedview3319"
     showgrid="false"
     inkscape:zoom="16"
     inkscape:cx="0.63879777"
     inkscape:cy="-2.7490638"
     inkscape:current-layer="svg3313" />
  <defs
     id="defs3051">
    <style
       type="text/css"
       id="current-color-scheme">
      .ColorScheme-Text {
        color:#bebebe;
      }
      </style>
  </defs>
  <path
     id="path3260"
     style="color:#bebebe;fill:currentColor;fill-opacity:1;stroke:none"
     d="m 13.880798,4.3480472 c 0.159604,-0.159624 0.158111,-0.4189654 -0.0015,-0.5785892 L 12.23261,2.121577 C 12.155923,2.0449502 12.05069,2 11.942529,2 c -0.108184,-2e-7 -0.211975,0.043486 -0.288616,0.1201122 l -1.065827,1.0641649 -0.462225,0.4650686 2.226884,2.2264703 0.46369,-0.4650687 z M 12.063883,6.1648761 9.8369994,3.9384059 9.3718454,4.4020097 2.9527074,10.819957 c -0.04471,0.04474 -0.07935,0.0999 -0.09963,0.15966 l -0.832152,2.481344 c -0.04907,0.147273 -0.01023,0.307657 0.09963,0.417463 0.07777,0.07793 0.182,0.121571 0.288615,0.121576 0.04348,-2.5e-5 0.0877,-0.0062 0.13039,-0.0205 l 2.48034,-0.833461 c 0.0602,-0.02035 0.115059,-0.05343 0.15969,-0.09815 L 11.598728,6.6292087 Z"
     inkscape:connector-curvature="0" />
</svg>
