<?xml version="1.0" encoding="UTF-8" standalone="no"?>
<svg
   xmlns:dc="http://purl.org/dc/elements/1.1/"
   xmlns:cc="http://creativecommons.org/ns#"
   xmlns:rdf="http://www.w3.org/1999/02/22-rdf-syntax-ns#"
   xmlns:svg="http://www.w3.org/2000/svg"
   xmlns="http://www.w3.org/2000/svg"
   xmlns:sodipodi="http://sodipodi.sourceforge.net/DTD/sodipodi-0.dtd"
   xmlns:inkscape="http://www.inkscape.org/namespaces/inkscape"
   viewBox="0 0 16 16"
   id="svg2"
   version="1.1"
   inkscape:version="0.91 r13725"
   sodipodi:docname="font-select-symbolic.svg">
  <metadata
     id="metadata10">
    <rdf:RDF>
      <cc:Work
         rdf:about="">
        <dc:format>image/svg+xml</dc:format>
        <dc:type
           rdf:resource="http://purl.org/dc/dcmitype/StillImage" />
      </cc:Work>
    </rdf:RDF>
  </metadata>
  <sodipodi:namedview
     pagecolor="#ffffff"
     bordercolor="#666666"
     borderopacity="1"
     objecttolerance="10"
     gridtolerance="10"
     guidetolerance="10"
     inkscape:pageopacity="0"
     inkscape:pageshadow="2"
     inkscape:window-width="640"
     inkscape:window-height="480"
     id="namedview8"
     showgrid="false"
     inkscape:zoom="39.8125"
     inkscape:cx="3.5290424"
     inkscape:cy="8"
     inkscape:current-layer="svg2" />
  <defs
     id="defs3051">
    <style
       type="text/css"
       id="current-color-scheme">
      .ColorScheme-Text {
        color:#bebebe;
      }
      </style>
  </defs>
  <path
     style="color:#bebebe;fill:currentColor;fill-opacity:1;stroke:none"
     class="ColorScheme-Text"
     d="m 6.25,3.9726562 0,1.75 2.5429687,0 c -0.0483,0 0.082031,0.1496574 0.082031,0.082031 l 0,0.8203125 -0.875,0 c -1.501395,0 -2.6581363,0.9711275 -2.6796875,2.1601563 C 5.30955,9.3796706 5.599875,9.969233 6.0859375,10.371094 6.572,10.772954 7.2318287,11 8,11 l 1.75,0 0.875,0 0,-0.875 0,-4.3203125 c 0,-1.015693 -0.7715663,-1.8180391 -1.8046875,-1.8320313 l -0.027344,0 -2.5429687,0 z M 1,5.7226562 1,10.972656 4.5,8.3476563 1,5.7226562 Z m 14,0 -3.5,2.6250001 3.5,2.6249997 0,-5.2499998 z M 8,8.375 l 0.875,0 0,0.875 L 8,9.25 C 7.5455163,9.25 7.3174038,9.1225003 7.2070312,9.03125 7.0966587,8.9399998 7.069175,8.8754676 7.0703125,8.8125 7.0729375,8.6865656 7.151425,8.375 8,8.375 Z"
     id="path6"
     inkscape:connector-curvature="0" />
</svg>
