<svg xmlns="http://www.w3.org/2000/svg" viewBox="0 0 16 16">
  <defs id="defs3051">
    <style type="text/css" id="current-color-scheme">
      .ColorScheme-Text {
        color:#bebebe;
      }
      </style>
  </defs>
 <path 
       style="fill:currentColor;fill-opacity:1;stroke:none"
	 class="ColorScheme-Text"
        d="M 6 3 L 6 5 L 8.90625 5 C 8.85105 5 9 5.171037 9 5.09375 L 9 6.03125 L 8 6.03125 C 6.28412 6.03125 4.96213 7.14111 4.9375 8.5 C 4.9252 9.179445 5.257 9.853231 5.8125 10.3125 C 6.368 10.771769 7.12209 11.03125 8 11.03125 L 10 11.03125 L 11 11.03125 L 11 10.03125 L 11 5.09375 C 11 3.932958 10.11821 3.015991 8.9375 3 L 8.90625 3 L 6 3 z M 0 5 L 0 11 L 4 8 L 0 5 z M 16 5 L 12 8 L 16 11 L 16 5 z M 8 8.03125 L 9 8.03125 L 9 9.03125 L 8 9.03125 C 7.48059 9.03125 7.21989 8.885536 7.09375 8.78125 C 6.96761 8.676964 6.9362 8.603213 6.9375 8.53125 C 6.9405 8.387325 7.0302 8.03125 8 8.03125 z "
     />
</svg>
