<svg viewBox="0 0 16 16" xmlns="http://www.w3.org/2000/svg"><path d="m6.8 2v1.6h4.8c.342528 0 .8.491312.8.8v.8h-4c-.735416 0-1.38848.307168-1.8.775s-.605112 1.04852-.6 1.625c.0048.576496.215144 1.1622.625 1.625.409856.462832 1.04836.775 1.775.775h4 .8.8v-.85-.75-4c .000072-1.30744-1.05584-2.4-2.4-2.4zm1.6 4.8h4v1.6h-4c-.318296 0-.453528-.087832-.575-.225s-.223016-.351496-.225-.575c-.0016-.223504.083736-.442832.2-.575s.262112-.225.6-.225zm-3.2 2.4-3.2 2.4 3.2 2.4v-1.610938h8.75v-1.6h-8.75z" fill="#bebebe"/></svg>