<svg xmlns="http://www.w3.org/2000/svg" viewBox="0 0 16 16">
  <path fill="#bebebe" d="M3.195 2L2 3.195l3.987 3.987c-.65.075-1.221.363-1.598.791A2.563 2.563 0 0 0 3.752 9.7c.005.612.229 1.234.664 1.726a2.516 2.516 0 0 0 1.885.823h4.752L12.805 14 14 12.805zm3.451 1.752l1.7 1.7h1.353c.364 0 .85.521.85.849v.85h-.505l2.204 2.203V6.301a2.548 2.548 0 0 0-2.549-2.549zM6.301 8.85h1.354l1.699 1.699H6.301c-.338 0-.482-.094-.61-.24a.972.972 0 0 1-.24-.61.953.953 0 0 1 .213-.61c.123-.14.278-.24.637-.24z"/>
</svg>
