<svg viewBox="0 0 16 16" xmlns="http://www.w3.org/2000/svg"><path d="m4.3333333 2v1.8461538h5.5000001c.3924796 0 .9166666.5668985.9166666.923077v.9230769h-4.5833333c-.8426641 0-1.5909667.3544246-2.0625.8942308-.4715334.5398061-.6933575 1.2098123-.6875 1.875.0055.6651875.2465191 1.3409635.7161458 1.8749995.4696266.534037 1.2012642.894231 2.0338542.894231h4.5833333.916667.916666v-.778846c.0143-.08649 0-.144231 0-.144231v-.923077-4.6153842c0-1.5086216-1.209817-2.7692308-2.7499996-2.7692308zm1.8333334 5.5384615h4.5833333v1.8461535h-4.5833333c-.3647142 0-.5196675-.101344-.6588541-.259615-.1391867-.1582708-.2555392-.4055723-.2578126-.6634615-.0018333-.2578893.0959475-.51096.2291667-.6634616.1332192-.1525015.3003366-.2596154.6875-.2596154zm-3.6666667 4.6153845v1.846154h11v-1.846154z" fill="#bebebe"/></svg>