<svg viewBox="0 0 16 16" xmlns="http://www.w3.org/2000/svg"><path d="m13.156159 3.0706338c-.215054.000777-.430218.083408-.593733.2480396l-4.5486944 4.5818965-4.5818965-4.5486944c-.3292403-.3268973-.8605647-.3253571-1.1874651.0039062-.3271904.3292433-.3257541.8623887.0039062 1.1894181l5.1775819 5.1404742c.1646353.163421.380602.244911.5956857.244133.2149737-.000777.4301974-.08341.5937325-.248039l5.1404737-5.1795356c.32703-.3294023.325594-.8605677-.003906-1.1874651-.164645-.1634482-.380631-.2449113-.595685-.2441335zm-5.1560989 7.9294542a1.4999558 1.4999558 0 0 0 -1.4999559 1.499956 1.4999558 1.4999558 0 0 0 1.4999559 1.499956 1.4999558 1.4999558 0 0 0 1.4999557-1.499956 1.4999558 1.4999558 0 0 0 -1.4999557-1.499956z" fill="#bebebe"/></svg>