<svg xmlns="http://www.w3.org/2000/svg" viewBox="0 0 16 16">
  <defs id="defs3051">
    <style type="text/css" id="current-color-scheme">
      .ColorScheme-Text {
        color:#bebebe;
      }
      </style>
  </defs>
 <path 
           style="fill:currentColor;fill-opacity:1;stroke:none" 
           class="ColorScheme-Text"
        d="m 15.5,5.9389883 c 6.5e-5,-0.3700171 -0.138666,-0.7399624 -0.416288,-1.0196106 -0.555103,-0.5593142 -1.46864,-0.5591162 -2.024053,2.7e-4 l -6.5e-5,0 L 7.9994187,10.018357 2.9407809,4.9211957 c -0.555056,-0.5593232 -1.468547,-0.5591882 -2.02387502,2.07e-4 -1.8e-5,1.8e-5 -2.8e-5,2.7e-5 -5.6e-5,6.3e-5 -2.8e-5,1.8e-5 -3.7e-5,2.7e-5 -6.6e-5,5.4e-5 -0.555637,0.5594313 -0.555693,1.4803029 -2.81e-4,2.0396531 L 6.9868999,13.077846 C 7.2644093,13.357413 7.6331562,13.500063 7.998828,13.5 c 0.3653907,-6.3e-5 0.734175,-0.142686 1.011825,-0.422307 l 6.57e-5,0 6.0726563,-6.1187792 C 15.361072,6.6791037 15.499944,6.3090235 15.5,5.9389883 Z"
     />
</svg>
