<svg viewBox="0 0 16 16" xmlns="http://www.w3.org/2000/svg"><path d="m4.6668527 2.6660895-2.6668527 5.3337054 2.6668527 5.3337051h9.3331473v-10.6674105zm3.6646206 2.1914063v.4503348c-.5415012 0-.5541295.1820301-.5541295.8420759v.7751116c0 .3165489-.09437.7873863-.5507813.9827008.4564114.1953146.5507813.6661598.5507813.982701v.7684151c0 .660046.012552.842076.5541295.842076v.452008c-.8122669 0-1.1584746-.268935-1.1584823-.955914v-.932478c0-.4243149-.031154-.9140625-.4720981-.9140625h-.2243304v-.4921875h.2243304c.4409448 0 .4721058-.4897493.4720981-.9140625v-.9324777c0-.6869789.3462154-.954241 1.1584823-.954241zm2.3906247 0c .812259 0 1.15346.2672621 1.15346.954241v.9324777c0 .4243122.01507.9140625.463728.9140625h.2327v.4921875h-.2327c-.448663 0-.463728.4897494-.463728.9140625v.932478c0 .686979-.341201.955914-1.15346.955914v-.452008c.548343 0 .549107-.18203.549107-.842076v-.7684151c0-.3165412.09437-.7873864.550781-.982701-.456411-.1953145-.550781-.666152-.550781-.9827008v-.7751116c0-.6600458-.0076-.8420759-.549107-.8420759z" fill="#bebebe"/></svg>