<svg viewBox="0 0 16 16" xmlns="http://www.w3.org/2000/svg"><path d="m8 2.5351562a1.5 1.5 0 0 0 -1.5 1.5 1.5 1.5 0 0 0 1.5 1.5 1.5 1.5 0 0 0 1.5-1.5 1.5 1.5 0 0 0 -1.5-1.5zm.0214844 4.0703126c-.21509-.0007781-.4310632.0807106-.5957032.2441406l-5.1777343 5.1406246c-.32958.327039-.3310163.860199-.0039063 1.189454.3269.329278.85824.330819 1.1875.003906l4.5820313-4.5488284 4.5488281 4.5820314c.32704.32928.860173.330819 1.189453.003906.32942-.326906.330856-.858087.003906-1.1875l-5.1406246-5.1796874c-.16353-.16464-.37876-.2472699-.59375-.2480468z" fill="#bebebe"/></svg>