<?xml version="1.0" encoding="UTF-8" standalone="no"?>
<svg
   xmlns:dc="http://purl.org/dc/elements/1.1/"
   xmlns:cc="http://creativecommons.org/ns#"
   xmlns:rdf="http://www.w3.org/1999/02/22-rdf-syntax-ns#"
   xmlns:svg="http://www.w3.org/2000/svg"
   xmlns="http://www.w3.org/2000/svg"
   xmlns:sodipodi="http://sodipodi.sourceforge.net/DTD/sodipodi-0.dtd"
   xmlns:inkscape="http://www.inkscape.org/namespaces/inkscape"
   viewBox="0 0 16 16"
   id="svg2"
   version="1.1"
   inkscape:version="0.91 r13725"
   sodipodi:docname="help-about-symbolic.svg">
  <metadata
     id="metadata10">
    <rdf:RDF>
      <cc:Work
         rdf:about="">
        <dc:format>image/svg+xml</dc:format>
        <dc:type
           rdf:resource="http://purl.org/dc/dcmitype/StillImage" />
      </cc:Work>
    </rdf:RDF>
  </metadata>
  <sodipodi:namedview
     pagecolor="#ffffff"
     bordercolor="#666666"
     borderopacity="1"
     objecttolerance="10"
     gridtolerance="10"
     guidetolerance="10"
     inkscape:pageopacity="0"
     inkscape:pageshadow="2"
     inkscape:window-width="640"
     inkscape:window-height="480"
     id="namedview8"
     showgrid="false"
     inkscape:zoom="41.1875"
     inkscape:cx="3.6783005"
     inkscape:cy="8"
     inkscape:current-layer="svg2" />
  <defs
     id="defs3051">
    <style
       type="text/css"
       id="current-color-scheme">
      .ColorScheme-Text {
        color:#bebebe;
      }
      </style>
  </defs>
  <path
     style="color:#bebebe;fill:currentColor;fill-opacity:1;stroke:none"
     class="ColorScheme-Text"
     d="M 8,2 A 6,6 0 0 0 2,8 6,6 0 0 0 8,14 6,6 0 0 0 14,8 6,6 0 0 0 8,2 Z M 7.99498,4.625 c 0.573057,0 1.0389309,0.1645934 1.3978794,0.4938616 0.3589475,0.3231707 0.5390623,0.7377641 0.5390623,1.2438617 0,0.2195122 -0.06115,0.4423589 -0.1808031,0.6679686 C 9.6314645,7.2563015 9.5258219,7.4169473 9.4313616,7.514509 9.3431991,7.6059722 9.2167436,7.7264264 9.0530134,7.8727679 l -0.046875,0.045201 c -0.3841377,0.3353657 -0.577567,0.670772 -0.577567,1.0061383 l 0,0.3649548 -0.8872767,0 0,-0.4285709 c 0,-0.2743897 0.061153,-0.5096767 0.1808035,-0.7047991 C 7.8417479,7.9544729 8.0526389,7.7191859 8.3549107,7.4508929 8.5249387,7.2984539 8.643899,7.1858939 8.7131696,7.1127233 8.7887374,7.033455 8.8615328,6.9271151 8.9308036,6.7929688 9.006372,6.6527249 9.0446429,6.5090647 9.0446429,6.3627233 9.0446429,6.0822354 8.9489645,5.8571157 8.7600447,5.6863839 8.577422,5.5156522 8.3224389,5.4285714 7.9949777,5.4285714 c -0.5415713,0 -0.9134406,0.2935404 -1.1149554,0.8789063 L 6.0680804,5.9793527 C 6.2003244,5.6317917 6.4282779,5.3195911 6.7494419,5.0452009 7.0769033,4.7647131 7.4911907,4.625 7.9949777,4.625 Z m -0.010045,5.506138 c 0.1826226,0 0.3340333,0.0622 0.453683,0.184152 0.1259459,0.121951 0.1891741,0.26621 0.1891741,0.436943 0,0.17073 -0.063232,0.318338 -0.1891741,0.440289 C 8.3189933,11.314473 8.1675558,11.375 7.9849331,11.375 7.8023103,11.375 7.6488263,11.31447 7.5228795,11.192522 7.4032305,11.070571 7.34375,10.922963 7.34375,10.752233 c 0,-0.170733 0.059481,-0.314992 0.1791295,-0.436943 0.1259468,-0.121951 0.2794308,-0.184152 0.4620536,-0.184152 z"
     id="path6"
     inkscape:connector-curvature="0" />
</svg>
