<?xml version="1.0" encoding="UTF-8" standalone="no"?>
<svg
   xmlns:dc="http://purl.org/dc/elements/1.1/"
   xmlns:cc="http://creativecommons.org/ns#"
   xmlns:rdf="http://www.w3.org/1999/02/22-rdf-syntax-ns#"
   xmlns:svg="http://www.w3.org/2000/svg"
   xmlns="http://www.w3.org/2000/svg"
   xmlns:sodipodi="http://sodipodi.sourceforge.net/DTD/sodipodi-0.dtd"
   xmlns:inkscape="http://www.inkscape.org/namespaces/inkscape"
   viewBox="0 0 16 16"
   id="svg3371"
   version="1.1"
   inkscape:version="0.91 r13725"
   sodipodi:docname="image-filter-symbolic.svg">
  <metadata
     id="metadata3381">
    <rdf:RDF>
      <cc:Work
         rdf:about="">
        <dc:format>image/svg+xml</dc:format>
        <dc:type
           rdf:resource="http://purl.org/dc/dcmitype/StillImage" />
      </cc:Work>
    </rdf:RDF>
  </metadata>
  <sodipodi:namedview
     pagecolor="#ffffff"
     bordercolor="#666666"
     borderopacity="1"
     objecttolerance="10"
     gridtolerance="10"
     guidetolerance="10"
     inkscape:pageopacity="0"
     inkscape:pageshadow="2"
     inkscape:window-width="640"
     inkscape:window-height="480"
     id="namedview3379"
     showgrid="false"
     inkscape:zoom="39.8125"
     inkscape:cx="3.0769231"
     inkscape:cy="6.9952904"
     inkscape:current-layer="svg3371" />
  <defs
     id="defs3051">
    <style
       type="text/css"
       id="current-color-scheme">
      .ColorScheme-Text {
        color:#bebebe;
      }
      </style>
  </defs>
  <path
     style="color:#bebebe;fill:currentColor;fill-opacity:1;stroke:none"
     d="m 2.0103093,2.0000003 0,10.2691417 0,1.200072 a 0.43832864,0.43799867 0 0 0 0,0.18887 l 0,0.322581 0.2994078,0 a 0.43832864,0.43799867 0 0 0 0.257591,0 l 1.1558143,0 10.2768776,0 0,-1.711523 -10.2768776,0 0,-1.350499 C 3.8288247,10.712725 3.9354887,10.506621 4.0710375,10.313593 4.7703277,9.3178283 5.8858914,8.4769141 8.0586802,8.0404756 10.348625,7.5804522 11.681794,6.7639355 12.394239,5.7406157 c 0.71247,-1.02332 0.764976,-2.2031589 0.749355,-3.262592 A 0.42824607,0.4279237 0 0 0 12.663538,2.0501428 l 0,0.00167 a 0.42824607,0.4279237 0 0 0 -0.37635,0.4529508 c 0.0149,1.0113407 -0.03657,1.9612791 -0.588779,2.7544847 -0.55222,0.793147 -1.636422,1.4907384 -3.800305,1.9254654 C 5.8869915,7.5887093 4.5761279,8.3727029 3.7231224,9.3358183 l 0,-7.335818 -1.7128131,0 z"
     class="ColorScheme-Text"
     id="path3375"
     inkscape:connector-curvature="0" />
  <path
     style="color:#bebebe;fill:currentColor;fill-opacity:0.5;stroke:none"
     d="m 13.140249,2.8524195 c -0.783184,2.013094 -0.66971,4.3171472 -5.1384394,5.134571 -4.4863711,0.9814732 -5.0765155,3.2604285 -5.563297,5.5741515 l 10.7017364,0.03844 0,-10.7471655 z"
     class="ColorScheme-Text"
     id="path3377"
     inkscape:connector-curvature="0" />
</svg>
