<?xml version="1.0" encoding="UTF-8" standalone="no"?>
<svg
   xmlns:dc="http://purl.org/dc/elements/1.1/"
   xmlns:cc="http://creativecommons.org/ns#"
   xmlns:rdf="http://www.w3.org/1999/02/22-rdf-syntax-ns#"
   xmlns:svg="http://www.w3.org/2000/svg"
   xmlns="http://www.w3.org/2000/svg"
   xmlns:sodipodi="http://sodipodi.sourceforge.net/DTD/sodipodi-0.dtd"
   xmlns:inkscape="http://www.inkscape.org/namespaces/inkscape"
   viewBox="0 0 16 16"
   id="svg2"
   version="1.1"
   inkscape:version="0.91 r13725"
   sodipodi:docname="image-straighten-symbolic.svg">
  <metadata
     id="metadata10">
    <rdf:RDF>
      <cc:Work
         rdf:about="">
        <dc:format>image/svg+xml</dc:format>
        <dc:type
           rdf:resource="http://purl.org/dc/dcmitype/StillImage" />
      </cc:Work>
    </rdf:RDF>
  </metadata>
  <sodipodi:namedview
     pagecolor="#ffffff"
     bordercolor="#666666"
     borderopacity="1"
     objecttolerance="10"
     gridtolerance="10"
     guidetolerance="10"
     inkscape:pageopacity="0"
     inkscape:pageshadow="2"
     inkscape:window-width="640"
     inkscape:window-height="480"
     id="namedview8"
     showgrid="false"
     inkscape:zoom="39.8125"
     inkscape:cx="3.5290424"
     inkscape:cy="8"
     inkscape:current-layer="svg2" />
  <defs
     id="defs3051">
    <style
       type="text/css"
       id="current-color-scheme">
      .ColorScheme-Text {
        color:#bebebe;
      }
      </style>
  </defs>
  <path
     style="color:#bebebe;fill:currentColor;fill-opacity:1;stroke:none"
     class="ColorScheme-Text"
     d="m 12.361314,1.8042271 c -0.08438,7.906e-4 -0.138786,0.027757 -0.138786,0.027757 L 1.731975,3.6639712 C 0.85724025,3.8182134 1.0102833,4.6909941 1.0102833,4.6909941 l 0.4163606,2.4148915 2.7479801,0 0.9992654,-1.7209572 2.1650752,1.7209572 2.0540457,0 0.8049637,-1.0825376 1.554413,1.0825376 2.303862,0 -0.804964,-4.5522094 C 13.13561,1.8976251 12.616303,1.8018555 12.363049,1.8042271 l -0.0018,0 z m -10.6848537,6.1916293 0,0.888236 0.8882359,0 0,-0.888236 -0.8882359,0 z m 1.7764719,0 0,0.888236 0.888236,0 0,-0.888236 -0.888236,0 z m 1.776472,0 0,0.888236 0.888236,0 0,-0.888236 -0.888236,0 z m 1.776472,0 0,0.888236 0.8882359,0 0,-0.888236 -0.8882359,0 z m 1.7764719,0 0,0.888236 0.888236,0 0,-0.888236 -0.888236,0 z m 1.7764719,0 0,0.888236 0.888236,0 0,-0.888236 -0.888236,0 z m 1.776472,0 0,0.888236 0.888236,0 0,-0.888236 -0.888236,0 z m 1.776472,0 0,0.888236 0.888236,0 0,-0.888236 -0.888236,0 z m -12.2115099,1.7747373 -0.00173,0.0017 0.6384196,3.6917313 c 0.1542333,0.874735 1.0270229,0.721692 1.0270229,0.721692 L 14.056252,12.326005 c 0,0 0.875925,-0.152324 0.721691,-1.027023 l -0.275839,-1.5283913 -1.776472,0 0.166545,0.9437513 -8.7435728,1.554413 -0.444118,-2.4981643 -1.8042294,0 z"
     id="path6"
     inkscape:connector-curvature="0" />
</svg>
