<svg viewBox="0 0 16 16" xmlns="http://www.w3.org/2000/svg"><path d="m2 2v1.7142857h1.7142857 1.7142857v1.7142857h1.7142857v-1.7142857-1.7142857h-1.7142857-1.7142857zm5.1428571 3.4285714v1.7142857h1.7142858 1.7142861v-1.7142857h-1.7142861zm3.4285719 0h1.714285v-1.7142857h-1.714285zm0-1.7142857v-1.7142857h-1.7142861v1.7142857zm-3.4285719 3.4285714h-1.7142857v1.7142858h1.7142857zm-1.7142857 1.7142858h-1.7142857v1.7142861h1.7142857zm-1.7142857 0v-1.7142858h-1.7142857v1.7142858zm0-1.7142858h1.7142857v-1.7142857h-1.7142857zm6.8571433 1.7142858v1.7142861h1.714285v-1.7142861zm1.714285 1.7142861v1.714285 1.714286h1.714286v-1.714286-1.714285zm-5.1428569 0v1.714285h1.7142858v-1.714285zm1.7142858 1.714285v1.714286h1.7142861v-1.714286zm-5.1428572 0v1.714286h1.7142857v-1.714286z" fill="#bebebe"/></svg>