<svg xmlns="http://www.w3.org/2000/svg" viewBox="0 0 16 16">
  <defs id="defs3051">
    <style type="text/css" id="current-color-scheme">
      .ColorScheme-NegativeText {
        color:#da4453;
      }
      </style>
  </defs>
        <path
           style="fill:currentColor;fill-opacity:1;stroke:none" 
           class="ColorScheme-NegativeText"
        d="M 8 3.1230469 C 6.532363 3.1230469 5.1381539 3.5160926 3.8183594 4.3007812 C 2.4985649 5.085366 1.4492016 6.1234772 0.66796875 7.4160156 C 0.55639341 7.6135647 0.5 7.8080625 0.5 8 C 0.5 8.1919375 0.55639341 8.3865392 0.66796875 8.5839844 C 1.4492016 9.8766267 2.4985649 10.914842 3.8183594 11.699219 C 5.1381539 12.483907 6.532363 12.876953 8 12.876953 C 9.467637 12.876953 10.861949 12.486753 12.181641 11.705078 C 13.501332 10.923403 14.550798 9.8822383 15.332031 8.5839844 C 15.443607 8.3865392 15.5 8.1920414 15.5 8 C 15.5 7.8080625 15.443607 7.6135647 15.332031 7.4160156 C 14.550696 6.1234772 13.501332 5.085366 12.181641 4.3007812 C 10.861846 3.5161965 9.467637 3.1230469 8 3.1230469 z M 4.7597656 5.0117188 C 4.4193889 5.5986505 4.25 6.2330632 4.25 6.9160156 C 4.25 7.9602927 4.6177954 8.8534132 5.3515625 9.5957031 C 6.0853296 10.337993 6.9676712 10.708984 8 10.708984 C 9.0324315 10.708984 9.9145676 10.337889 10.648438 9.5957031 C 11.38241 8.8535171 11.75 7.9602927 11.75 6.9160156 C 11.75 6.2330632 11.580714 5.5985466 11.240234 5.0117188 C 12.518111 5.672017 13.579515 6.6679726 14.427734 8 C 13.685748 9.1571326 12.755657 10.07781 11.636719 10.763672 C 10.517883 11.449326 9.3058219 11.792969 8 11.792969 C 6.6941781 11.792969 5.4821169 11.44943 4.3632812 10.763672 C 3.2444456 10.077914 2.3144574 9.1571326 1.5722656 8 C 2.4204848 6.6678686 3.4818889 5.672017 4.7597656 5.0117188 z "
     />
</svg>
