<svg xmlns="http://www.w3.org/2000/svg" viewBox="0 0 16 16">
  <defs id="defs3051">
    <style type="text/css" id="current-color-scheme">
      .ColorScheme-Text {
        color:#bebebe;
      }
      </style>
  </defs>
 <path 
    style="fill:currentColor;fill-opacity:1;stroke:none" 
	d="m 1,1 0,12 0,1.402344 a 0.5118231,0.5118231 0 0 0 0,0.220703 L 1,15 1.3496094,15 a 0.5118231,0.5118231 0 0 0 0.3007812,0 L 3,15 15,15 15,13 3,13 3,11.421875 C 3.1234254,11.18125 3.2479738,10.940407 3.40625,10.714844 4.22279,9.5512437 5.5254,8.5685938 8.0625,8.0585938 c 2.6739,-0.5375601 4.2306,-1.4917001 5.0625,-2.6875 0.83193,-1.1958 0.89324,-2.5745001 0.875,-3.8125 a 0.50005,0.50005 0 0 0 -0.560547,-0.5 l 0,0.00195 A 0.50005,0.50005 0 0 0 13,1.5898438 c 0.0174,1.1818 -0.0427,2.29185 -0.6875,3.21875 -0.64481,0.9268299 -1.9108,1.7419999 -4.4375,2.25 C 5.5266846,7.5306826 3.9960289,8.4468178 3,9.5722656 L 3,1 1,1 Z"
	class="ColorScheme-Text"
    />
 <path 
    style="fill:currentColor;fill-opacity:0.5;stroke:none" 
	d="m 13.996094,1.9960938 c -0.9145,2.3523999 -0.782,5.0448 -6.0000002,6 C 2.7574938,9.1429938 2.0684,11.806066 1.5,14.509766 l 12.496094,0.04492 0,-12.5585942 z"
       class="ColorScheme-Text"
    />
</svg>
