<?xml version="1.0" encoding="UTF-8" standalone="no"?>
<svg
   xmlns:dc="http://purl.org/dc/elements/1.1/"
   xmlns:cc="http://creativecommons.org/ns#"
   xmlns:rdf="http://www.w3.org/1999/02/22-rdf-syntax-ns#"
   xmlns:svg="http://www.w3.org/2000/svg"
   xmlns="http://www.w3.org/2000/svg"
   xmlns:sodipodi="http://sodipodi.sourceforge.net/DTD/sodipodi-0.dtd"
   xmlns:inkscape="http://www.inkscape.org/namespaces/inkscape"
   viewBox="0 0 16 16"
   id="svg3431"
   version="1.1"
   inkscape:version="0.91 r13725"
   sodipodi:docname="image-red-eye-symbolic.svg">
  <metadata
     id="metadata3439">
    <rdf:RDF>
      <cc:Work
         rdf:about="">
        <dc:format>image/svg+xml</dc:format>
        <dc:type
           rdf:resource="http://purl.org/dc/dcmitype/StillImage" />
      </cc:Work>
    </rdf:RDF>
  </metadata>
  <sodipodi:namedview
     pagecolor="#ffffff"
     bordercolor="#666666"
     borderopacity="1"
     objecttolerance="10"
     gridtolerance="10"
     guidetolerance="10"
     inkscape:pageopacity="0"
     inkscape:pageshadow="2"
     inkscape:window-width="640"
     inkscape:window-height="480"
     id="namedview3437"
     showgrid="false"
     inkscape:zoom="39.8125"
     inkscape:cx="7.0957614"
     inkscape:cy="8"
     inkscape:current-layer="svg3431" />
  <defs
     id="defs3051">
    <style
       type="text/css"
       id="current-color-scheme">
      .ColorScheme-NegativeText {
        color:#da4453;
      }
      </style>
  </defs>
  <path
     style="color:#da4453;fill:currentColor;fill-opacity:1;stroke:none"
     class="ColorScheme-NegativeText"
     d="m 8,4.0983751 c -1.1741096,0 -2.2894769,0.3144366 -3.3453125,0.9421875 C 3.5988519,5.6682304 2.7593613,6.4987193 2.134375,7.5327501 2.0451147,7.6907894 2,7.8463876 2,7.9999376 2,8.1534876 2.0451147,8.3091689 2.134375,8.4671251 2.7593613,9.501239 3.5988519,10.331811 4.6546875,10.959313 5.7105231,11.587063 6.8258904,11.9015 8,11.9015 c 1.1741096,0 2.289559,-0.31216 3.345313,-0.9375 1.055753,-0.62534 1.895325,-1.458272 2.520312,-2.4968749 C 13.954886,8.3091689 14,8.1535707 14,7.9999376 14,7.8463876 13.954886,7.6907894 13.865625,7.5327501 13.240557,6.4987193 12.401066,5.6682304 11.345313,5.0405626 10.289477,4.4128948 9.1741096,4.0983751 8,4.0983751 Z M 5.4078125,5.6093126 C 5.1355111,6.078858 5,6.5863882 5,7.1327501 5,7.9681718 5.2942363,8.6826682 5.88125,9.2765 6.4682637,9.870332 7.1741369,10.167125 8,10.167125 c 0.8259452,0 1.5316541,-0.296876 2.11875,-0.890625 C 10.705928,8.6827513 11,7.9681718 11,7.1327501 11,6.5863882 10.864571,6.0787749 10.592187,5.6093126 c 1.022302,0.5282386 1.871425,1.3250031 2.55,2.390625 C 12.548598,8.9256437 11.804525,9.662186 10.909375,10.210875 10.014306,10.759398 9.0446575,11.034313 8,11.034313 c -1.0446575,0 -2.0143065,-0.274832 -2.9093751,-0.823438 C 4.1955565,9.662269 3.4515659,8.9256437 2.8578125,7.9999376 c 0.6785754,-1.0657051 1.5276986,-1.8623864 2.55,-2.390625 z"
     id="path3435"
     inkscape:connector-curvature="0" />
</svg>
