<svg viewBox="0 0 16 16" xmlns="http://www.w3.org/2000/svg"><path d="m11.738264 2.6893941c-.07236.000672-.11892.024-.11892.024l-8.9919385 1.5702904c-.749775.1322405-.6185905.8803235-.6185905.8803235l.3568815 2.0699244h2.355421l.8565155-1.475118 1.8557858 1.475118h1.7606171l.6899668-.9279638 1.3323593.9279638h1.974747l-.689967-3.9019117c-.09912-.5623223-.544274-.6444026-.761343-.6423626h-.0015zm-9.1584819 5.3071293v.7612831h.7613431v-.7612831zm1.5226957 0v .7612831h.7613551v-.7612831zm1.522697 0v .7612831h.761343v-.7612831zm1.5226969 0v .7612831h.761343v-.7612831zm1.5226957 0v .7612831h.7613431v-.7612831zm1.5226966 0v .7612831h.761343v-.7612831zm1.522696 0v .7612831h.761343v-.7612831zm1.522697 0v .7612831h.761343v-.7612831zm-10.4670505 1.5212103-.00148.0015.5472142 3.1643533c.1322045.749763.8803115.618602.8803115.618602l8.9934238-1.59405s.750795-.130561.61859-.880324l-.236437-1.3100453h-1.522697l.142753.8089233-7.4945216 1.332365-.3806775-2.1412883h-1.5464882z" fill="#bebebe"/></svg>