<svg viewBox="0 0 16 16" xmlns="http://www.w3.org/2000/svg"><path d="m5.0644023 2-2.4499023 6.8590565h1.2257885l.5207926-1.4702763h2.387943l.5207927 1.4702763h1.3614289l-2.5872174-6.8590565zm.4906503 1.9592519.8573821 2.4499023h-1.7147641zm4.3974322.6128943v.8573821h2.1434552c.183548 0 .428691.2632763.428691.428691v.428691h-2.143455c-.3940872 0-.7440363.164596-.964555.4152945-.2205186.2506813-.3242618.5618553-.3215182.8707786.0025721.3089234.1152879.6227466.3349148.8707787.219627.2480149.5617868.4152944.9511584.4152944h2.143455.428691.428691v-.361708c.0069-.040211 0-.066983 0-.066983v-.428691-2.1434552c0-.7006269-.565786-1.2860731-1.286073-1.2860731zm.4286912 2.5721462h2.143455v.8573821h-2.143455c-.170568 0-.243029-.047075-.308122-.1205694-.065075-.0734776-.119506-.188354-.1205692-.3081217-.0008573-.1197677.0448411-.2373019.1071732-.3081216.062331-.0708198.140456-.1205694.321518-.1205694zm-4.7156015 3.4261796 2.5721462 3.429528 2.5721463-3.429528z" fill="#bebebe"/></svg>