<svg xmlns="http://www.w3.org/2000/svg" viewBox="0 0 16 16">
  <path fill="#bebebe" d="M8 2a6 6 0 1 0 0 12A6 6 0 0 0 8 2zM5.812 5.438c.56 0 1.12.51 1.493 1.533.036.103-.155.288-.25.187a1.652 1.652 0 0 0-1.242-.531c-.45 0-.88.151-1.24.531-.097.101-.29-.084-.253-.187.372-1.022.932-1.534 1.492-1.534zm4.375 0c.56 0 1.12.51 1.493 1.533.036.103-.156.288-.252.187-.36-.38-.79-.531-1.24-.531s-.882.151-1.243.531c-.095.101-.286-.084-.25-.187.372-1.022.932-1.534 1.492-1.534zm-4.841 4.18a.189.189 0 0 1 .136.038c1.613 1.125 3.414 1.131 5.036 0 .194-.135.368.098.236.315A3.239 3.239 0 0 1 8 11.502a3.238 3.238 0 0 1-2.754-1.531c-.099-.163-.025-.335.1-.354z"/>
</svg>
