<svg viewBox="0 0 16 16" xmlns="http://www.w3.org/2000/svg"><path d="m7.1352095 2.000008c-.2937769.0010646-.5856469.1135614-.8069073.3364904-.4425468.4457584-.4406532 1.1761921.0050223 1.6188368l4.0613215 4.0328624-4.0328622 4.0613214c-.4425438.44572-.4389767 1.177941.0067 1.620511.4457094.44282 1.1762662.439304 1.6188368-.0067l4.8397654-4.8749214c.2212-.2228404.3342-.5177193.333143-.8102555-.0011-.2923056-.115392-.5873062-.338165-.8085814l-4.874925-4.8397696c-.2229211-.2213151-.5181306-.3308587-.8119295-.3297941zm-1.9268678 4.106522c-1.036255 0-1.8833417.8454126-1.8833417 1.8816676 0 1.0362924.8470867 1.8833424 1.8833417 1.8833424 1.0362927 0 1.8833417-.84705 1.8833417-1.8833424 0-1.036255-.847049-1.8816676-1.8833417-1.8816676z" fill="#43be80"/></svg>