<svg xmlns="http://www.w3.org/2000/svg" viewBox="0 0 16 16">
  <defs id="defs3051">
    <style type="text/css" id="current-color-scheme">
      .ColorScheme-Text {
        color:#bebebe;
      }
      </style>
  </defs>
 <path 
       style="fill:currentColor;fill-opacity:1;stroke:none"
	 class="ColorScheme-Text"
        d="M 8 0.19921875 C 4.9237586 0.19921875 2.4296875 2.6932899 2.4296875 5.7695312 C 2.4296875 5.9617992 2.4459058 6.1389171 2.4648438 6.3261719 C 2.4801057 6.512491 2.5054123 6.7022565 2.5351562 6.8847656 C 3.1729078 10.799861 5.7719697 13.572751 8 15.800781 C 10.22803 13.572751 12.82707 10.799972 13.464844 6.8847656 C 13.494584 6.7022565 13.519886 6.512491 13.535156 6.3261719 C 13.554206 6.1389171 13.570313 5.9617992 13.570312 5.7695312 C 13.570312 2.6932899 11.076241 0.19921875 8 0.19921875 z M 8 3.5429688 C 9.2305412 3.5429688 10.228516 4.5390236 10.228516 5.7695312 C 10.228516 7.000039 9.2305078 7.9980469 8 7.9980469 C 6.7694923 7.9980469 5.7714844 7.000039 5.7714844 5.7695312 C 5.7714844 4.5390235 6.7694923 3.5429688 8 3.5429688 z "
     />
</svg>
