<?xml version="1.0" encoding="UTF-8" standalone="no"?>
<svg
   xmlns:dc="http://purl.org/dc/elements/1.1/"
   xmlns:cc="http://creativecommons.org/ns#"
   xmlns:rdf="http://www.w3.org/1999/02/22-rdf-syntax-ns#"
   xmlns:svg="http://www.w3.org/2000/svg"
   xmlns="http://www.w3.org/2000/svg"
   xmlns:sodipodi="http://sodipodi.sourceforge.net/DTD/sodipodi-0.dtd"
   xmlns:inkscape="http://www.inkscape.org/namespaces/inkscape"
   viewBox="0 0 16 16"
   id="svg3197"
   version="1.1"
   inkscape:version="0.91 r13725"
   sodipodi:docname="mark-location-symbolic.svg">
  <metadata
     id="metadata3205">
    <rdf:RDF>
      <cc:Work
         rdf:about="">
        <dc:format>image/svg+xml</dc:format>
        <dc:type
           rdf:resource="http://purl.org/dc/dcmitype/StillImage" />
      </cc:Work>
    </rdf:RDF>
  </metadata>
  <sodipodi:namedview
     pagecolor="#ffffff"
     bordercolor="#666666"
     borderopacity="1"
     objecttolerance="10"
     gridtolerance="10"
     guidetolerance="10"
     inkscape:pageopacity="0"
     inkscape:pageshadow="2"
     inkscape:window-width="640"
     inkscape:window-height="480"
     id="namedview3203"
     showgrid="false"
     inkscape:zoom="39.8125"
     inkscape:cx="4.0816327"
     inkscape:cy="8"
     inkscape:current-layer="svg3197" />
  <defs
     id="defs3051">
    <style
       type="text/css"
       id="current-color-scheme">
      .ColorScheme-Text {
        color:#bebebe;
      }
      </style>
  </defs>
  <path
     style="color:#bebebe;fill:currentColor;fill-opacity:1;stroke:none"
     class="ColorScheme-Text"
     d="M 7.9999267,2 C 5.6338241,2 3.7155,3.9183241 3.7155,6.2844267 c 0,0.1478836 0.012475,0.2841145 0.02704,0.4281422 C 3.754279,6.855877 3.773743,7.0018358 3.796621,7.1422134 4.2871508,10.153523 6.2862289,12.286302 7.9999267,14 9.7136245,12.286302 11.712686,10.153608 12.203232,7.1422134 c 0.02288,-0.1403776 0.04233,-0.2863364 0.05408,-0.4296445 0.01465,-0.1440277 0.02704,-0.2802586 0.02704,-0.4281422 C 12.284352,3.9183241 10.366028,2 7.9999259,2 Z m 0,2.5718578 c 0.9464754,0 1.7140715,0.7661194 1.7140715,1.7125689 0,0.9464497 -0.7676218,1.7140712 -1.7140715,1.7140712 -0.9464496,0 -1.7140711,-0.7676215 -1.7140711,-1.7140712 0,-0.9464496 0.7676215,-1.7125689 1.7140711,-1.7125689 z"
     id="path3201"
     inkscape:connector-curvature="0" />
</svg>
