<?xml version="1.0" encoding="UTF-8" standalone="no"?>
<svg
   xmlns:dc="http://purl.org/dc/elements/1.1/"
   xmlns:cc="http://creativecommons.org/ns#"
   xmlns:rdf="http://www.w3.org/1999/02/22-rdf-syntax-ns#"
   xmlns:svg="http://www.w3.org/2000/svg"
   xmlns="http://www.w3.org/2000/svg"
   xmlns:sodipodi="http://sodipodi.sourceforge.net/DTD/sodipodi-0.dtd"
   xmlns:inkscape="http://www.inkscape.org/namespaces/inkscape"
   viewBox="0 0 16 16"
   id="svg3197"
   version="1.1"
   inkscape:version="0.91 r13725"
   sodipodi:docname="find-location-symbolic.svg">
  <metadata
     id="metadata3205">
    <rdf:RDF>
      <cc:Work
         rdf:about="">
        <dc:format>image/svg+xml</dc:format>
        <dc:type
           rdf:resource="http://purl.org/dc/dcmitype/StillImage" />
      </cc:Work>
    </rdf:RDF>
  </metadata>
  <sodipodi:namedview
     pagecolor="#ffffff"
     bordercolor="#666666"
     borderopacity="1"
     objecttolerance="10"
     gridtolerance="10"
     guidetolerance="10"
     inkscape:pageopacity="0"
     inkscape:pageshadow="2"
     inkscape:window-width="640"
     inkscape:window-height="480"
     id="namedview3203"
     showgrid="false"
     inkscape:zoom="39.8125"
     inkscape:cx="3.5290424"
     inkscape:cy="8"
     inkscape:current-layer="svg3197" />
  <defs
     id="defs3051">
    <style
       type="text/css"
       id="current-color-scheme">
      .ColorScheme-Text {
        color:#bebebe;
      }
      </style>
  </defs>
  <path
     style="color:#bebebe;fill:currentColor;fill-opacity:1;stroke:none"
     class="ColorScheme-Text"
     d="M 7.9999978,1 C 5.2395448,1 3.0015,3.2380448 3.0015,5.9984978 c 0,0.1725309 0.014554,0.3314669 0.031547,0.4994993 C 3.046742,6.6651898 3.069451,6.8354751 3.096142,6.999249 3.6684259,10.512444 6.0006837,13.000686 7.9999978,15 9.9993119,13.000686 12.33155,10.512543 12.903854,6.999249 c 0.02669,-0.1637739 0.04939,-0.3340592 0.06309,-0.5012519 0.01709,-0.1680324 0.03155,-0.3269684 0.03155,-0.4994993 C 12.998494,3.2380448 10.760449,1 7.9999969,1 Z m 0,3.0005008 c 1.1042213,0 1.9997501,0.8938059 1.9997501,1.997997 0,1.1041913 -0.8955588,1.9997497 -1.9997501,1.9997497 -1.1041912,0 -1.9997496,-0.8955584 -1.9997496,-1.9997497 0,-1.1041912 0.8955584,-1.997997 1.9997496,-1.997997 z"
     id="path3201"
     inkscape:connector-curvature="0" />
</svg>
