<?xml version="1.0" encoding="UTF-8" standalone="no"?>
<svg
   xmlns:dc="http://purl.org/dc/elements/1.1/"
   xmlns:cc="http://creativecommons.org/ns#"
   xmlns:rdf="http://www.w3.org/1999/02/22-rdf-syntax-ns#"
   xmlns:svg="http://www.w3.org/2000/svg"
   xmlns="http://www.w3.org/2000/svg"
   xmlns:sodipodi="http://sodipodi.sourceforge.net/DTD/sodipodi-0.dtd"
   xmlns:inkscape="http://www.inkscape.org/namespaces/inkscape"
   viewBox="0 0 16 16"
   id="svg3193"
   version="1.1"
   inkscape:version="0.91 r13725"
   sodipodi:docname="media-eject-symbolic.svg">
  <metadata
     id="metadata3201">
    <rdf:RDF>
      <cc:Work
         rdf:about="">
        <dc:format>image/svg+xml</dc:format>
        <dc:type
           rdf:resource="http://purl.org/dc/dcmitype/StillImage" />
      </cc:Work>
    </rdf:RDF>
  </metadata>
  <sodipodi:namedview
     pagecolor="#ffffff"
     bordercolor="#666666"
     borderopacity="1"
     objecttolerance="10"
     gridtolerance="10"
     guidetolerance="10"
     inkscape:pageopacity="0"
     inkscape:pageshadow="2"
     inkscape:window-width="640"
     inkscape:window-height="480"
     id="namedview3199"
     showgrid="false"
     inkscape:zoom="41.1875"
     inkscape:cx="3.6783005"
     inkscape:cy="8"
     inkscape:current-layer="svg3193" />
  <defs
     id="defs3051">
    <style
       type="text/css"
       id="current-color-scheme">
      .ColorScheme-Text {
        color:#bebebe;
      }
      </style>
  </defs>
  <path
     style="color:#bebebe;fill:currentColor;fill-opacity:1;stroke:none"
     class="ColorScheme-Text"
     d="m 8.2096906,2.4188412 c -0.2217213,0 -0.4264189,0.1188648 -0.537212,0.3110174 L 2.2928192,9.1745172 c -0.1110923,0.1920233 -0.1110923,0.4301389 0,0.6220348 0.1107931,0.1923777 0.3154907,0.311018 0.5372119,0.311018 l 10.7593189,0 c 0.221683,0 0.426071,-0.1190264 0.537212,-0.311018 0.0552,-0.09651 0.08294,-0.2037942 0.08294,-0.3110174 0,-0.1075455 -0.02764,-0.2130378 -0.08294,-0.3091325 L 8.7469025,2.7298586 C 8.6361384,2.537706 8.4314408,2.4188412 8.2096906,2.4188412 Z M 2.4643501,11.453427 c -0.1371692,0 -0.248814,0.111673 -0.248814,0.248814 l 0,2.048946 C 2.2155361,13.888358 2.3271809,14 2.4643501,14 l 11.4906809,0 c 0.137333,1.93e-4 0.248814,-0.111641 0.248815,-0.248813 l 0,-2.048946 c 0,-0.137141 -0.111482,-0.248814 -0.248815,-0.248814 l -11.4906809,0 z"
     id="path3197"
     inkscape:connector-curvature="0" />
</svg>
