<?xml version="1.0" encoding="UTF-8" standalone="no"?>
<svg
   xmlns:osb="http://www.openswatchbook.org/uri/2009/osb"
   xmlns:dc="http://purl.org/dc/elements/1.1/"
   xmlns:cc="http://creativecommons.org/ns#"
   xmlns:rdf="http://www.w3.org/1999/02/22-rdf-syntax-ns#"
   xmlns:svg="http://www.w3.org/2000/svg"
   xmlns="http://www.w3.org/2000/svg"
   xmlns:sodipodi="http://sodipodi.sourceforge.net/DTD/sodipodi-0.dtd"
   xmlns:inkscape="http://www.inkscape.org/namespaces/inkscape"
   height="16"
   version="1.1"
   width="16"
   enable-background="new"
   id="svg2"
   inkscape:version="0.91 r13725"
   sodipodi:docname="media-eject-symbolic.svg">
  <sodipodi:namedview
     pagecolor="#ffffff"
     bordercolor="#666666"
     borderopacity="1"
     objecttolerance="10"
     gridtolerance="10"
     guidetolerance="10"
     inkscape:pageopacity="0"
     inkscape:pageshadow="2"
     inkscape:window-width="1366"
     inkscape:window-height="633"
     id="namedview12"
     showgrid="false"
     inkscape:zoom="14.75"
     inkscape:cx="8"
     inkscape:cy="8"
     inkscape:window-x="0"
     inkscape:window-y="33"
     inkscape:window-maximized="1"
     inkscape:current-layer="layer12" />
  <metadata
     id="metadata90">
    <rdf:RDF>
      <cc:Work
         rdf:about="">
        <dc:format>image/svg+xml</dc:format>
        <dc:type
           rdf:resource="http://purl.org/dc/dcmitype/StillImage" />
      </cc:Work>
    </rdf:RDF>
  </metadata>
  <defs
     id="defs7386">
    <linearGradient
       id="linearGradient5606"
       osb:paint="solid">
      <stop
         id="stop5608" />
    </linearGradient>
  </defs>
  <g
     inkscape:groupmode="layer"
     id="layer12"
     inkscape:label="actions"
     transform="translate(-401.0002,-9)">
    <g
       transform="matrix(0.75,0,0,0.75,156.2502,-392.02165)"
       id="layer1"
       inkscape:label="Capa 1">
      <g
         inkscape:label="Capa 1"
         id="layer1-1"
         transform="matrix(0.69076272,0,0,0.69076272,60.300192,178.01597)">
        <g
           id="g3"
           transform="matrix(0.06434183,0,0,0.06434183,388.57141,519.79799)"
           style="fill:#4d4d4d;fill-opacity:1">
          <g
             id="Layer_8_30_"
             style="fill:#4d4d4d;fill-opacity:1">
            <path
               d="m 353.703,245.49 -334.399,0 c -6.892,0 -13.27,-3.673 -16.714,-9.653 -3.453,-5.965 -3.453,-13.336 0,-19.305 L 169.787,16.161 c 3.444,-5.973 9.821,-9.655 16.713,-9.655 6.893,0 13.274,3.682 16.717,9.655 l 167.21,200.372 c 1.718,2.987 2.581,6.314 2.581,9.657 0,3.333 -0.863,6.659 -2.581,9.659 -3.455,5.968 -9.833,9.641 -16.724,9.641 z m 19.11,113.292 0,-63.705 c 0,-4.263 -3.46,-7.722 -7.729,-7.722 l -357.167,0 c -4.264,0 -7.721,3.459 -7.721,7.722 l 0,63.705 c 0,4.264 3.457,7.72 7.721,7.72 l 357.167,0 c 4.269,0.006 7.729,-3.456 7.729,-7.72 z"
               id="path6"
               inkscape:connector-curvature="0"
               style="fill:#4d4d4d;fill-opacity:1" />
          </g>
        </g>
      </g>
    </g>
  </g>
</svg>
