<svg viewBox="0 0 16 16" xmlns="http://www.w3.org/2000/svg"><path d="m12.203125 3.4003906c-.20648 0-.380951.0722969-.525391.2167969l-5.0781246 5.0878906-2.2773438-2.2851562c-.14454-.14453-.3189906-.2167969-.5253906-.2167969-.20648 0-.3828138.0722969-.5273438.2167969l-1.0527343 1.0527343c-.14454.1445301-.2167969.3208538-.2167969.5273438 0 .20639.0722969.3829138.2167969.5273438l2.8027343 2.8007812 1.0527344 1.054687c.14443.144532.3208538.216797.5273438.216797.20639 0 .3808606-.072395.5253906-.216797l1.0527344-1.054687 5.6054686-5.6035156c.14444-.14453.216797-.3208638.216797-.5273438.00009-.2064-.072397-.3808506-.216797-.5253906l-1.052734-1.0546875c-.14444-.14454-.320944-.2167969-.527344-.2167969z" fill="#bebebe"/></svg>