<svg xmlns="http://www.w3.org/2000/svg" viewBox="0 0 16 16">
  <defs id="defs3051">
    <style type="text/css" id="current-color-scheme">
      .ColorScheme-Text {
        color:#bebebe;
      }
      </style>
  </defs>
 <path 
       style="fill:currentColor;fill-opacity:1;stroke:none"
	 class="ColorScheme-Text"
        d="M 8 1 L 8 3 C 4.68629 3 2 5.68629 2 9 C 2 12.31371 4.68629 15 8 15 C 11.28006 15 13.940341 12.366829 13.994141 9.0996094 A 1 1 0 0 0 14 9 A 1 1 0 0 0 13 8 A 1 1 0 0 0 12 9 C 12 11.20914 10.20914 13 8 13 C 5.79086 13 4 11.20914 4 9 C 4 6.79086 5.79086 5 8 5 L 8 7 L 12 4 L 8 1 z "
     />
</svg>
