<svg xmlns="http://www.w3.org/2000/svg" viewBox="0 0 16 16">
  <defs id="defs3051">
    <style type="text/css" id="current-color-scheme">
      .ColorScheme-Text {
        color:#bebebe;
      }
      </style>
  </defs>
 <path 
       style="fill:currentColor;fill-opacity:1;stroke:none"
	 class="ColorScheme-Text"
        d="m 11.53125,1.2071321 c -0.0948,7.7e-4 -0.15625,0.0117 -0.15625,0.0117 l -9.84375,1.75 c -0.98481,0.17365 -0.8125,1.15625 -0.8125,1.15625 l 0.5,2.875 12.1875,0 -0.875,-4.96875 c -0.13024,-0.73861 -0.7155,-0.82652 -1,-0.82422 z M 0.5,8.0001021 l 0,1 1,0 0,-1 -1,0 z m 2,0 0,1 1,0 0,-1 -1,0 z m 2,0 0,1 1,0 0,-1 -1,0 z m 2,0 0,1 1,0 0,-1 -1,0 z m 2,0 0,1 1,0 0,-1 -1,0 z m 2,0 0,1 1,0 0,-1 -1,0 z m 2,0 0,1 1,0 0,-1 -1,0 z m 2,0 0,1 1,0 0,-1 -1,0 z m -12.75,1.9999999 0.71875,3.96875 c 0.17365,0.98481 1.15625,0.8125 1.15625,0.8125 l 9.84375,-1.75 c 0,0 0.98615,-0.17144 0.8125,-1.15625 l -0.34375,-1.875 -12.1875,0 z"
     />
</svg>
