<svg xmlns="http://www.w3.org/2000/svg" viewBox="0 0 16 16">
  <defs id="defs3051">
    <style type="text/css" id="current-color-scheme">
      .ColorScheme-Text {
        color:#bebebe;
      }
      </style>
  </defs>
 <path 
       style="fill:currentColor;fill-opacity:1;stroke:none"
	 class="ColorScheme-Text"
        d="M 12.203125 3.4003906 C 11.996645 3.4003906 11.822174 3.4726875 11.677734 3.6171875 L 6.5996094 8.7050781 L 4.3222656 6.4199219 C 4.1777256 6.2753919 4.003275 6.203125 3.796875 6.203125 C 3.590395 6.203125 3.4140612 6.2754219 3.2695312 6.4199219 L 2.2167969 7.4726562 C 2.0722569 7.6171863 2 7.79351 2 8 C 2 8.20639 2.0722969 8.3829138 2.2167969 8.5273438 L 5.0195312 11.328125 L 6.0722656 12.382812 C 6.2166956 12.527344 6.3931194 12.599609 6.5996094 12.599609 C 6.8059994 12.599609 6.98047 12.527214 7.125 12.382812 L 8.1777344 11.328125 L 13.783203 5.7246094 C 13.927643 5.5800794 14 5.4037456 14 5.1972656 C 14.00009 4.9908656 13.927603 4.816415 13.783203 4.671875 L 12.730469 3.6171875 C 12.586029 3.4726475 12.409525 3.4003906 12.203125 3.4003906 z "
     />
</svg>
