<svg xmlns="http://www.w3.org/2000/svg" viewBox="0 0 16 16">
  <defs id="defs3051">
    <style type="text/css" id="current-color-scheme">
      .ColorScheme-Text {
        color:#bebebe;
      }
      </style>
  </defs>
 <path 
       style="fill:currentColor;fill-opacity:1;stroke:none"
	 class="ColorScheme-Text"
        d="M 8 1 L 4 4 L 8 7 L 8 5 C 10.20914 5 12 6.79086 12 9 C 12 11.20914 10.20914 13 8 13 C 5.79086 13 4 11.20914 4 9 A 1 1 0 0 0 3 8 A 1 1 0 0 0 2 9 A 1 1 0 0 0 2.0058594 9.0996094 C 2.0596594 12.366829 4.71994 15 8 15 C 11.31371 15 14 12.31371 14 9 C 14 5.68629 11.31371 3 8 3 L 8 1 z "
     />
</svg>
