<?xml version="1.0" encoding="UTF-8" standalone="no"?>
<svg
   xmlns:dc="http://purl.org/dc/elements/1.1/"
   xmlns:cc="http://creativecommons.org/ns#"
   xmlns:rdf="http://www.w3.org/1999/02/22-rdf-syntax-ns#"
   xmlns:svg="http://www.w3.org/2000/svg"
   xmlns="http://www.w3.org/2000/svg"
   xmlns:sodipodi="http://sodipodi.sourceforge.net/DTD/sodipodi-0.dtd"
   xmlns:inkscape="http://www.inkscape.org/namespaces/inkscape"
   viewBox="0 0 16 16"
   version="1.1"
   id="svg6"
   sodipodi:docname="outline.svg"
   inkscape:version="0.92.3 (2405546, 2018-03-11)"
   width="16"
   height="16">
  <metadata
     id="metadata10">
    <rdf:RDF>
      <cc:Work
         rdf:about="">
        <dc:format>image/svg+xml</dc:format>
        <dc:type
           rdf:resource="http://purl.org/dc/dcmitype/StillImage" />
        <dc:title></dc:title>
      </cc:Work>
    </rdf:RDF>
  </metadata>
  <sodipodi:namedview
     pagecolor="#ffffff"
     bordercolor="#666666"
     borderopacity="1"
     objecttolerance="10"
     gridtolerance="10"
     guidetolerance="10"
     inkscape:pageopacity="0"
     inkscape:pageshadow="2"
     inkscape:window-width="1920"
     inkscape:window-height="1024"
     id="namedview8"
     showgrid="false"
     inkscape:zoom="15.170655"
     inkscape:cx="-3.2658386"
     inkscape:cy="4.2742198"
     inkscape:window-x="0"
     inkscape:window-y="27"
     inkscape:window-maximized="1"
     inkscape:current-layer="svg6" />
  <defs
     id="defs3051">
    <style
       type="text/css"
       id="current-color-scheme">
     .ColorScheme-Text {
       color:#4d4d4d;
     }
     </style>
    <style
       id="current-color-scheme-6"
       type="text/css">
     .ColorScheme-Text {
       color:#4d4d4d;
     }
     </style>
    <style
       id="current-color-scheme-67"
       type="text/css">
     .ColorScheme-Text {
       color:#f2f2f2;
     }
     </style>
  </defs>
  <path
     style="color:#4d4d4d;fill:#bebebe;fill-opacity:1;stroke:none;stroke-width:0.5766933"
     d="m 13.418371,4.7937197 c -0.08318,0 -0.16297,0.033441 -0.221891,0.092361 l -0.708477,0.7073505 1.713185,1.712058 0.707351,-0.7062231 C 15.031244,6.476522 15.030098,6.2770999 14.907439,6.1543554 L 13.641389,4.887207 C 13.582429,4.828285 13.501525,4.79372 13.418371,4.7937197 Z m -1.15226,1.0216029 -0.244418,0.2466717 1.712058,1.7120588 0.245546,-0.2466712 z M 11.7998,6.2838862 11.553128,6.5294313 13.265187,8.2414903 13.511859,7.9959452 Z M 11.331237,6.7513226 6.5070634,11.575498 c -0.034371,0.0344 -0.061014,0.07682 -0.076592,0.122772 l -0.63977,1.908045 c -0.037716,0.113247 -0.00787,0.236573 0.076592,0.321011 0.059791,0.05992 0.1399242,0.09348 0.2218907,0.09349 0.033433,-2e-5 0.06742,-0.0047 0.1002462,-0.01577 L 8.0963488,13.36415 c 0.04628,-0.01564 0.08846,-0.04108 0.122771,-0.07546 L 13.043294,8.4645164 Z"
     class="ColorScheme-Text"
     id="path4"
     inkscape:connector-curvature="0"
     sodipodi:nodetypes="sccccccsccccccccccccccccccccc" />
  <path
     id="path819"
     class="ColorScheme-Text"
     d="M 0.99999774,1.8486046 V 14.151395 H 4.6908348 V 12.921116 H 2.2302767 V 3.0788836 h 2.4605581 8.3043832 1.230278 v -1.230279 z"
     style="color:#4d4d4d;fill:#bebebe;fill-opacity:1;stroke:none;stroke-width:1.23027909"
     inkscape:connector-curvature="0"
     sodipodi:nodetypes="ccccccccccc" />
</svg>
