<?xml version="1.0" encoding="UTF-8" standalone="no"?>
<svg
   xmlns:dc="http://purl.org/dc/elements/1.1/"
   xmlns:cc="http://creativecommons.org/ns#"
   xmlns:rdf="http://www.w3.org/1999/02/22-rdf-syntax-ns#"
   xmlns:svg="http://www.w3.org/2000/svg"
   xmlns="http://www.w3.org/2000/svg"
   xmlns:sodipodi="http://sodipodi.sourceforge.net/DTD/sodipodi-0.dtd"
   xmlns:inkscape="http://www.inkscape.org/namespaces/inkscape"
   viewBox="0 0 16 16"
   version="1.1"
   id="svg4"
   sodipodi:docname="pane-show-symbolic.svg"
   inkscape:version="1.0.2 (e86c870879, 2021-01-15)">
  <metadata
     id="metadata10">
    <rdf:RDF>
      <cc:Work
         rdf:about="">
        <dc:format>image/svg+xml</dc:format>
        <dc:type
           rdf:resource="http://purl.org/dc/dcmitype/StillImage" />
        <dc:title></dc:title>
      </cc:Work>
    </rdf:RDF>
  </metadata>
  <defs
     id="defs8" />
  <sodipodi:namedview
     pagecolor="#ffffff"
     bordercolor="#666666"
     borderopacity="1"
     objecttolerance="10"
     gridtolerance="10"
     guidetolerance="10"
     inkscape:pageopacity="0"
     inkscape:pageshadow="2"
     inkscape:window-width="1920"
     inkscape:window-height="1146"
     id="namedview6"
     showgrid="false"
     inkscape:zoom="47.9375"
     inkscape:cx="8"
     inkscape:cy="8"
     inkscape:window-x="0"
     inkscape:window-y="0"
     inkscape:window-maximized="1"
     inkscape:current-layer="svg4" />
  <path
     style="color:#f2f2f2;fill:#bebebe;fill-opacity:1;stroke:none;stroke-width:0.89871"
     d="m 14,1.9846244 c -9.23e-4,0.2509011 -0.105139,0.5013559 -0.310266,0.6921282 L 7.9808132,7.9830361 13.64958,13.328624 c 0.407051,0.384126 0.40478,1.004575 -0.0055,1.385963 -0.410227,0.381483 -1.074523,0.379365 -1.48199,-0.0053 L 5.7577739,8.6681994 C 5.5541599,8.4761234 5.4520489,8.2253011 5.4529809,7.9743651 5.4539039,7.7235603 5.5581209,7.4730355 5.7632469,7.2822457 L 12.214981,1.2855402 c 0.410421,-0.38129959 1.072861,-0.37917339 1.480162,0.00525 0.203521,0.192076 0.305789,0.4429333 0.304792,0.6938343 z M 3.7374519,2.0888698 3.7064319,13.935301 c -0.0019,0.34183 -0.132962,0.664024 -0.350412,0.863021 -0.217635,0.199111 -0.500762,0.255101 -0.755597,0.148677 l -0.02003,-0.0087 c -0.349895,-0.146148 -0.582392,-0.55906 -0.58038,-1.02708 L 2.0291869,2.0647378 C 2.0310339,1.7230836 2.1617879,1.4012915 2.3796079,1.2017169 2.5972619,1.0025186 2.8802959,0.94657221 3.1352059,1.05304 l 0.02003,0.00875 c 0.350042,0.1461482 0.584218,0.5590609 0.582215,1.02708 z"
     class="ColorScheme-Text"
     id="path4" />
</svg>
