<svg xmlns="http://www.w3.org/2000/svg" viewBox="0 0 16 16">
  <path fill="#da4453" d="M13.195 4.988a5.974 5.974 0 0 0-2.183-2.183A5.869 5.869 0 0 0 8 2a5.869 5.869 0 0 0-3.012.805 5.972 5.972 0 0 0-2.183 2.183A5.868 5.868 0 0 0 2 8a5.87 5.87 0 0 0 .805 3.012 5.975 5.975 0 0 0 2.183 2.183C5.908 13.732 6.912 14 8 14a5.869 5.869 0 0 0 3.012-.805 5.974 5.974 0 0 0 2.183-2.183A5.87 5.87 0 0 0 14 8a5.87 5.87 0 0 0-.805-3.012zm-2.367 4.426a.48.48 0 0 1 .149.352c0 .14-.05.26-.149.359l-.703.703a.49.49 0 0 1-.36.149.48.48 0 0 1-.35-.149L8 9.414l-1.414 1.414a.48.48 0 0 1-.352.149.49.49 0 0 1-.359-.149l-.703-.703a.49.49 0 0 1-.149-.36.48.48 0 0 1 .149-.351L6.586 8 5.172 6.586a.48.48 0 0 1-.149-.352c0-.14.05-.26.149-.359l.703-.703a.49.49 0 0 1 .36-.149.48.48 0 0 1 .351.149L8 6.586l1.414-1.414a.48.48 0 0 1 .352-.149c.14 0 .26.05.36.149l.702.703a.49.49 0 0 1 .149.36.48.48 0 0 1-.149.35L9.414 8z"/>
</svg>
