<?xml version="1.0" encoding="UTF-8" standalone="no"?>
<svg
   xmlns:dc="http://purl.org/dc/elements/1.1/"
   xmlns:cc="http://creativecommons.org/ns#"
   xmlns:rdf="http://www.w3.org/1999/02/22-rdf-syntax-ns#"
   xmlns:svg="http://www.w3.org/2000/svg"
   xmlns="http://www.w3.org/2000/svg"
   xmlns:sodipodi="http://sodipodi.sourceforge.net/DTD/sodipodi-0.dtd"
   xmlns:inkscape="http://www.inkscape.org/namespaces/inkscape"
   viewBox="0 0 16 16"
   id="svg2"
   version="1.1"
   inkscape:version="0.91 r13725"
   sodipodi:docname="process-stop-symbolic.svg">
  <metadata
     id="metadata10">
    <rdf:RDF>
      <cc:Work
         rdf:about="">
        <dc:format>image/svg+xml</dc:format>
        <dc:type
           rdf:resource="http://purl.org/dc/dcmitype/StillImage" />
      </cc:Work>
    </rdf:RDF>
  </metadata>
  <sodipodi:namedview
     pagecolor="#ffffff"
     bordercolor="#666666"
     borderopacity="1"
     objecttolerance="10"
     gridtolerance="10"
     guidetolerance="10"
     inkscape:pageopacity="0"
     inkscape:pageshadow="2"
     inkscape:window-width="640"
     inkscape:window-height="480"
     id="namedview8"
     showgrid="false"
     inkscape:zoom="41.1875"
     inkscape:cx="3.6783005"
     inkscape:cy="8"
     inkscape:current-layer="svg2" />
  <defs
     id="defs3051">
    <style
       type="text/css"
       id="current-color-scheme">
      .ColorScheme-NegativeText {
        color:#da4453;
      }
      </style>
  </defs>
  <path
     style="color:#da4453;fill:currentColor;fill-opacity:1;stroke:none"
     class="ColorScheme-NegativeText"
     d="M 13.195474,4.988256 C 12.658963,4.06904 11.93115,3.341232 11.011938,2.80472 10.092535,2.268208 9.088843,2 8.0001918,2 6.9116364,2 5.9076569,2.268208 4.9884451,2.80472 4.0691374,3.341136 3.3413242,4.068944 2.8048138,4.988256 2.2682073,5.90756 2,6.911544 2,8 c 0,1.088552 0.2683032,2.092344 0.8047178,3.011744 0.5365106,0.91912 1.2643238,1.647024 2.1836314,2.183536 C 5.9076569,13.731792 6.9115405,14 8.0000959,14 9.0886513,14 10.09263,13.731792 11.011842,13.19528 11.931054,12.658864 12.658867,11.93096 13.195378,11.011744 13.731793,10.09244 14,9.088456 14,8 14,6.911448 13.731793,5.907464 13.195474,4.988256 l 0,0 z m -2.367263,4.425752 c 0.09896,0.09886 0.148535,0.21624 0.148535,0.351632 0,0.140576 -0.04958,0.26044 -0.148535,0.359304 l -0.703073,0.703168 c -0.09896,0.09896 -0.2187276,0.14844 -0.3593996,0.14844 -0.1353984,0 -0.2527691,-0.04952 -0.351537,-0.14844 L 8.0000959,9.414008 6.5859903,10.828112 c -0.09896,0.09896 -0.2161385,0.14844 -0.3515366,0.14844 -0.1406723,0 -0.2604402,-0.04952 -0.3593998,-0.14844 L 5.1718847,10.124944 C 5.0729247,10.026084 5.0234454,9.906216 5.0234454,9.76564 c 0,-0.135392 0.04948,-0.252768 0.1484393,-0.351632 L 6.5859903,8 5.1718847,6.585896 C 5.0729251,6.487032 5.0234454,6.369752 5.0234454,6.23436 c 0,-0.140672 0.04948,-0.26044 0.1484393,-0.3594 L 5.8750539,5.171888 c 0.09896,-0.09896 0.2187275,-0.14844 0.3593998,-0.14844 0.1353981,0 0.252577,0.04952 0.3515366,0.14844 L 8.0000959,6.585896 9.4142014,5.171888 c 0.098768,-0.09896 0.2161386,-0.14844 0.351537,-0.14844 0.140672,0 0.2604396,0.04952 0.3593996,0.14844 l 0.703073,0.703072 c 0.09896,0.09896 0.148535,0.218728 0.148535,0.3594 0,0.135392 -0.04958,0.252672 -0.148535,0.351536 L 9.4142014,8 l 1.4140096,1.414008 0,0 z"
     id="path6"
     inkscape:connector-curvature="0" />
</svg>
