<svg xmlns="http://www.w3.org/2000/svg" viewBox="0 0 16 16">
  <path fill="#bebebe" d="M11.701 1.943c-1.205 0-2.184.98-2.184 2.186 0 .198.036.384.085.566l-3.71 1.9a2.175 2.175 0 0 0-1.709-.84C2.976 5.755 2 6.735 2 7.943A2.176 2.176 0 1 0 5.924 9.25l3.693 1.892c-.058.196-.1.4-.1.615a2.185 2.185 0 1 0 4.37 0A2.185 2.185 0 0 0 11.7 9.57c-.694 0-1.306.33-1.706.837L6.284 8.51c.049-.181.084-.369.084-.566a2.15 2.15 0 0 0-.099-.614l3.693-1.89a2.17 2.17 0 0 0 1.74.875 2.185 2.185 0 1 0 0-4.371z"/>
</svg>
