<?xml version="1.0" encoding="UTF-8" standalone="no"?>
<svg
   xmlns:dc="http://purl.org/dc/elements/1.1/"
   xmlns:cc="http://creativecommons.org/ns#"
   xmlns:rdf="http://www.w3.org/1999/02/22-rdf-syntax-ns#"
   xmlns:svg="http://www.w3.org/2000/svg"
   xmlns="http://www.w3.org/2000/svg"
   xmlns:sodipodi="http://sodipodi.sourceforge.net/DTD/sodipodi-0.dtd"
   xmlns:inkscape="http://www.inkscape.org/namespaces/inkscape"
   viewBox="0 0 16 16"
   id="svg3255"
   version="1.1"
   inkscape:version="0.91 r13725"
   sodipodi:docname="send-to-symbolic.svg">
  <metadata
     id="metadata3263">
    <rdf:RDF>
      <cc:Work
         rdf:about="">
        <dc:format>image/svg+xml</dc:format>
        <dc:type
           rdf:resource="http://purl.org/dc/dcmitype/StillImage" />
      </cc:Work>
    </rdf:RDF>
  </metadata>
  <sodipodi:namedview
     pagecolor="#ffffff"
     bordercolor="#666666"
     borderopacity="1"
     objecttolerance="10"
     gridtolerance="10"
     guidetolerance="10"
     inkscape:pageopacity="0"
     inkscape:pageshadow="2"
     inkscape:window-width="640"
     inkscape:window-height="480"
     id="namedview3261"
     showgrid="false"
     inkscape:zoom="41.1875"
     inkscape:cx="3.6783005"
     inkscape:cy="8"
     inkscape:current-layer="svg3255" />
  <defs
     id="defs3051">
    <style
       type="text/css"
       id="current-color-scheme">
      .ColorScheme-Text {
        color:#bebebe;
      }
      </style>
  </defs>
  <path
     style="color:#bebebe;fill:currentColor;fill-opacity:1;stroke:none"
     class="ColorScheme-Text"
     d="m 11.701452,1.943 c -1.205368,0 -2.1847108,0.9793474 -2.1847108,2.186384 0,0.1977224 0.036284,0.3839757 0.08538,0.5658482 L 5.8922992,6.5953438 C 5.4917821,6.0879606 4.8782043,5.7549421 4.1830357,5.7549421 2.9760239,5.7549421 2.0000001,6.7354141 2,7.943 c 0,1.207595 0.9760239,2.186384 2.1830357,2.186384 0.7142728,0 1.3416484,-0.348581 1.7410715,-0.878906 l 3.6930804,1.891741 c -0.05783,0.196074 -0.1004464,0.39921 -0.1004464,0.614397 0,1.207595 0.9776608,2.186384 2.1830358,2.186384 1.208106,0 2.186384,-0.978789 2.186384,-2.186384 0,-1.208677 -0.978278,-2.186384 -2.186384,-2.186384 -0.694082,0 -1.305949,0.330203 -1.7059154,0.837054 L 6.2840402,8.5088483 C 6.3326272,8.3275252 6.3677452,8.140173 6.3677452,7.943 c 0,-0.2146374 -0.040934,-0.4177823 -0.098772,-0.6143973 l 3.6930806,-1.890067 c 0.3977952,0.5297845 1.0262192,0.8755581 1.7393982,0.8755581 1.208113,0 2.184709,-0.9765659 2.184709,-2.1847098 0,-1.2070366 -0.976596,-2.186384 -2.184709,-2.186384 z"
     id="path3259"
     inkscape:connector-curvature="0" />
</svg>
