<svg viewBox="0 0 16 16" xmlns="http://www.w3.org/2000/svg"><g fill="#bebebe"><path d="m8.0003719 3.2500002c-.1814469 0-.3488255.04445-.5020455.1338787-.1532354.0894129-.2750188.2112122-.3644477.3644479-.0894446.1532355-.1338787.3206145-.1338787.5020453 0 .1814469.044466.3487937.1338787.5020454.089429.1532038.2112123.2742753.3644477.3637041.153236.089429.3205986.1338787.5020455.1338787.1814471 0 .3488255-.04445.5020455-.1338787.1532196-.0894128.2742751-.2104843.3637036-.3637041.089413-.1532357.133879-.3206145.133879-.5020454 0-.1814468-.04448-.3488257-.133879-.5020453-.0894285-.1532198-.210484-.2750191-.3637036-.3644479-.1532515-.0894287-.3205824-.1338787-.5020455-.1338787z"/><path d="m4.2496282 3.2500003c-.1814468.0000012-.348082.0451782-.5013017.1345736-.1532356.0893795-.275019.2103899-.3644477.3635686-.0894448.1531786-.1338788.3204951-.1338788.5018584 0 .1813793.044466.3486639.1338788.5018584.089429.1531467.2104682.2741731.3637039.3635686.1532358.089395.3205987.1345724.5020455.1345724s.3488256-.045178.5020452-.1345724c.1532197-.0893795.2750191-.2104059.3644478-.3635686.0894128-.1531786.1338788-.3204951.1338788-.5018584 0-.1813793-.0444819-.3486958-.1338788-.5018584-.0894287-.1531627-.2112281-.2741731-.3644478-.3635686-.1532516-.0893954-.3205824-.1345724-.5020452-.1345724z"/><path d="m11.750372 3.2500003c-.181446 0-.348826.044454-.502046.1338787-.153236.0894127-.275019.2112127-.364448.364448-.089444.153236-.133878.3206147-.133878.5020453 0 .1814467.04446.3487934.133878.5020454.08943.1532033.211212.2742753.364448.363704.153236.089429.3206.1338786.502046.1338786s.348826-.044454.502046-.1338786c.153219-.089413.274275-.2104847.363704-.363704.089412-.153236.133878-.320614.133878-.5020454 0-.1814473-.04448-.348826-.133878-.5020453-.089429-.153218-.210485-.2750173-.363704-.3644467-.153252-.0894286-.320584-.1338786-.502046-.1338786z"/><path d="m4.2496281 10.75c-.1814468 0-.3488257.04446-.5020454.133879-.1532357.089412-.2742752.210468-.3637039.363704-.0894447.153235-.1338788.320615-.1338788.502044 0 .181447.044466.348794.1338788.502046.089429.153203.2104682.275018.3637039.364447.1532357.08943.3205986.13388.5020454.13388.1814469 0 .3488257-.04446.5020453-.133878.1532198-.08941.2750191-.211228.3644478-.364448.0894129-.153235.1338788-.320615.1338788-.502044 0-.181448-.044482-.348827-.1338788-.502046-.0894287-.15322-.211228-.274275-.3644478-.363704-.1532516-.089429-.3205824-.133878-.5020453-.133878z"/><path d="m8.0003719 10.75c-.1814469 0-.3488255.04445-.5020455.133879-.1532354.089412-.2750188.211212-.3644477.364448-.0894446.153235-.1338787.320614-.1338787.502045 0 .181447.044466.348794.1338787.502046.089429.153203.2112123.274275.3644477.363704.153236.089428.3205986.133878.5020455.133878.1814471 0 .3488255-.044448.5020455-.133878.1532196-.089413.2742751-.210485.3637036-.363704.089413-.153236.133879-.320615.133879-.502046 0-.181447-.04448-.348826-.133879-.502045-.0894285-.15322-.210484-.27502-.3637036-.364448-.1532515-.089429-.3205824-.133879-.5020455-.133879z"/><path d="m11.750372 10.75c-.181446 0-.348826.04446-.502046.133879-.153236.08941-.275019.211212-.364448.364448-.08944.153236-.133878.320615-.133878.502045 0 .181447.04446.348794.133878.502046.08943.153203.211212.274275.364448.363704.153236.08943.3206.133878.502046.133878s.348826-.04446.502046-.133878c.153219-.08941.274275-.210485.363704-.363704.08941-.153236.133878-.320615.133878-.502046 0-.181447-.04448-.348826-.133878-.502045-.08943-.153218-.210485-.275017-.363704-.364447-.153252-.08943-.320584-.133878-.502046-.133878z"/><path d="m4.249628 7.0000002c-.181446 0-.3488256.044454-.5020452.133878-.1532358.0894134-.2742752.210469-.363704.363705-.0894448.1532344-.1338788.3206144-.1338788.502044 0 .1814472.0444656.3487936.1338788.5020456.0894288.1532032.2104682.2750184.363704.3644472.1532356.0894296.3205984.13388.5020452.13388.181447 0 .3488258-.044456.5020454-.1338784.1532198-.0894128.275019-.211228.3644478-.3644472.0894128-.1532352.1338788-.3206152.1338788-.5020448 0-.1814472-.044482-.3488264-.1338788-.5020456-.0894288-.15322-.211228-.274275-.3644478-.3637038-.1532516-.0894286-.3205824-.1338786-.5020454-.1338786z"/><path d="m8.0003719 7.0000002c-.1814469 0-.3488255.044454-.5020455.1338788-.1532354.0894126-.2750188.2112122-.3644477.3644482-.0894446.1532352-.1338787.3206136-.1338787.5020448 0 .1814472.044466.3487936.1338787.5020456.089429.1532032.2112123.2742752.3644477.363704.153236.0894288.3205986.1338784.5020455.1338784.1814471 0 .3488255-.044448.5020455-.1338784.1532196-.0894128.2742751-.2104848.3637036-.363704.089413-.153236.133879-.3206144.133879-.5020456 0-.1814472-.04448-.3488256-.133879-.5020448-.0894285-.15322-.210484-.2750196-.3637036-.3644482-.1532515-.0894288-.3205824-.1338788-.5020455-.1338788z"/><path d="m11.750372 7.0000002c-.181446 0-.348826.044454-.502046.1338788-.153236.0894126-.275019.2112122-.364448.3644482-.089444.153236-.133878.3206144-.133878.5020448 0 .1814472.04446.3487936.133878.5020456.08943.1532032.211212.2742752.364448.363704.153236.089429.3206.1338784.502046.1338784s.348826-.044456.502046-.1338784c.153219-.089414.274275-.2104848.363704-.363704.089412-.153236.133878-.3206144.133878-.5020456 0-.1814472-.04448-.3488256-.133878-.5020448-.089429-.1532184-.210485-.2750176-.363704-.364447-.153252-.0894286-.320584-.1338786-.502046-.1338786z"/></g></svg>