<svg xmlns="http://www.w3.org/2000/svg" viewBox="0 0 16 16">
  <path fill="#bebebe" d="M14 6.713c0-.178-.135-.289-.404-.332l-3.62-.526-1.623-3.282c-.09-.197-.209-.295-.353-.295s-.262.098-.353.295L6.024 5.855l-3.62.526c-.27.043-.404.154-.404.332 0 .1.06.216.18.346l2.625 2.553-.62 3.606c-.01.067-.014.115-.014.144 0 .1.025.186.075.256s.127.104.228.104a.612.612 0 0 0 .288-.086L8 11.934l3.238 1.702a.584.584 0 0 0 .289.087c.096 0 .17-.035.22-.105a.426.426 0 0 0 .075-.256c0-.063-.002-.11-.007-.144l-.62-3.606 2.617-2.553c.126-.125.188-.24.188-.346z"/>
</svg>
