<?xml version="1.0" encoding="UTF-8" standalone="no"?>
<svg
   xmlns:dc="http://purl.org/dc/elements/1.1/"
   xmlns:cc="http://creativecommons.org/ns#"
   xmlns:rdf="http://www.w3.org/1999/02/22-rdf-syntax-ns#"
   xmlns:svg="http://www.w3.org/2000/svg"
   xmlns="http://www.w3.org/2000/svg"
   xmlns:sodipodi="http://sodipodi.sourceforge.net/DTD/sodipodi-0.dtd"
   xmlns:inkscape="http://www.inkscape.org/namespaces/inkscape"
   viewBox="0 0 16 16"
   id="svg2"
   version="1.1"
   inkscape:version="0.91 r13725"
   sodipodi:docname="system-upgrade-symbolic.svg">
  <metadata
     id="metadata10">
    <rdf:RDF>
      <cc:Work
         rdf:about="">
        <dc:format>image/svg+xml</dc:format>
        <dc:type
           rdf:resource="http://purl.org/dc/dcmitype/StillImage" />
        <dc:title></dc:title>
      </cc:Work>
    </rdf:RDF>
  </metadata>
  <sodipodi:namedview
     pagecolor="#ffffff"
     bordercolor="#666666"
     borderopacity="1"
     objecttolerance="10"
     gridtolerance="10"
     guidetolerance="10"
     inkscape:pageopacity="0"
     inkscape:pageshadow="2"
     inkscape:window-width="640"
     inkscape:window-height="480"
     id="namedview8"
     showgrid="false"
     inkscape:zoom="41.1875"
     inkscape:cx="3.6783005"
     inkscape:cy="8"
     inkscape:current-layer="svg2" />
  <defs
     id="defs3051">
    <style
       type="text/css"
       id="current-color-scheme">
      .ColorScheme-Text {
        color:#bebebe;
      }
      </style>
  </defs>
  <path
     style="color:#bebebe;fill:currentColor;fill-opacity:1;stroke:none"
     class="ColorScheme-Text"
     d="m 8.01378,13.737307 c 1.20899,0 2.19532,-0.988283 2.19532,-2.197266 0,-1.209026 -0.98633,-2.1972653 -2.19532,-2.1972653 -1.20902,0 -2.19726,0.9882393 -2.19726,2.1972653 0,1.208983 0.98824,2.197266 2.19726,2.197266 z m 5.64844,-3.117188 c 0.34272,0.0012 0.68528,-0.128562 0.94531,-0.386718 0.26009,-0.2581413 0.39134,-0.5986623 0.39258,-0.9414073 0.001,-0.34277 -0.12656,-0.687186 -0.38476,-0.947265 L 8.96886,2.6572294 c -0.25816,-0.25991 -0.60233,-0.3933 -0.94336,-0.39453 -0.3413,-10e-4 -0.68533,0.1306 -0.94531,0.38867 l -5.6875,5.6464843 c -0.52034004,0.51634 -0.52444004,1.368669 -0.008,1.8886723 0.51634,0.51996 1.37061,0.524121 1.89062,0.0078 l 4.73827,-4.7050766 4.70508,4.7382816 c 0.25821,0.259982 0.60064,0.391342 0.94336,0.392578 z"
     id="path6"
     inkscape:connector-curvature="0" />
</svg>
