<svg xmlns="http://www.w3.org/2000/svg" viewBox="0 0 16 16">
  <defs id="defs3051">
    <style type="text/css" id="current-color-scheme">
      .ColorScheme-Text {
        color:#bebebe;
      }
      </style>
  </defs>
 <path 
       style="fill:currentColor;fill-opacity:1;stroke:none"
	 class="ColorScheme-Text"
        d="M 6.9882812 1 C 6.81208 1 6.7026682 1.0856794 6.6601562 1.2558594 C 6.5811732 1.5595994 6.4937027 2.1247619 6.3964844 2.9511719 C 6.1108705 3.0424719 5.8337846 3.157145 5.5664062 3.296875 L 4.3085938 2.3222656 C 4.2296107 2.2615656 4.1512485 2.2304688 4.0722656 2.2304688 C 3.9385764 2.2304688 3.6514965 2.4483025 3.2109375 2.8828125 C 2.7703784 3.3173325 2.4705777 3.6426081 2.3125 3.8613281 C 2.257794 3.9403281 2.2304687 4.0115156 2.2304688 4.0722656 C 2.2304688 4.1451656 2.2615186 4.2181856 2.3222656 4.2910156 C 2.7293744 4.7832656 3.0537732 5.2023581 3.296875 5.5488281 C 3.1449504 5.8282881 3.0264303 6.1072587 2.9414062 6.3867188 L 1.2460938 6.6425781 C 1.1793048 6.6547781 1.1209307 6.6928856 1.0722656 6.7597656 C 1.0236026 6.8265656 1 6.8978731 1 6.9707031 L 1 8.9941406 C 1 9.0732406 1.0236005 9.1432612 1.0722656 9.2070312 C 1.1209306 9.2709313 1.184689 9.3101856 1.2636719 9.3222656 L 2.9316406 9.5683594 C 3.0166646 9.8660494 3.1425217 10.166963 3.3066406 10.470703 C 3.1973399 10.622623 3.0331664 10.836731 2.8144531 11.113281 C 2.5957398 11.389831 2.4406747 11.5911 2.3496094 11.71875 C 2.3009444 11.78575 2.2753906 11.854794 2.2753906 11.927734 C 2.2753906 12.006734 2.2973318 12.077922 2.3398438 12.138672 C 2.5767925 12.466912 3.0780856 12.977312 3.84375 13.669922 C 3.910651 13.736822 3.9872415 13.769531 4.0722656 13.769531 C 4.1634426 13.769531 4.2380807 13.7421 4.2988281 13.6875 L 5.5839844 12.712891 C 5.8332393 12.840541 6.1066007 12.951498 6.4042969 13.048828 L 6.6601562 14.726562 C 6.6663062 14.805563 6.7018572 14.870195 6.765625 14.921875 C 6.829393 14.973675 6.9032572 15 6.9882812 15 L 9.0117188 15 C 9.1881438 15 9.2972198 14.914321 9.3398438 14.744141 C 9.4187147 14.440291 9.5062973 13.875238 9.6035156 13.048828 C 9.8891294 12.957628 10.166327 12.842855 10.433594 12.703125 L 11.691406 13.6875 C 11.776426 13.7421 11.856858 13.769531 11.929688 13.769531 C 12.063265 13.769531 12.34773 13.554547 12.785156 13.123047 C 13.222806 12.691667 13.523605 12.363542 13.6875 12.138672 C 13.74221 12.077972 13.769531 12.006724 13.769531 11.927734 C 13.769531 11.848734 13.738594 11.773882 13.677734 11.701172 C 13.240307 11.166412 12.915909 10.747209 12.703125 10.443359 C 12.82462 10.218489 12.94314 9.9414013 13.058594 9.6132812 L 14.744141 9.3574219 C 14.816971 9.3452219 14.879181 9.3071244 14.927734 9.2402344 C 14.976284 9.1733344 15 9.1021269 15 9.0292969 L 15 7.0058594 C 15.000112 6.9268594 14.976514 6.8568488 14.927734 6.7929688 C 14.878954 6.7290687 14.815311 6.6898144 14.736328 6.6777344 L 13.068359 6.4238281 C 12.977179 6.1321781 12.851325 5.8331469 12.693359 5.5292969 C 12.80266 5.3773769 12.966834 5.1632688 13.185547 4.8867188 C 13.40426 4.6101687 13.559214 4.4089 13.650391 4.28125 C 13.699061 4.21435 13.724609 4.1452056 13.724609 4.0722656 C 13.724609 3.9872656 13.702776 3.9197537 13.660156 3.8710938 C 13.441442 3.5610937 12.94015 3.0454156 12.15625 2.3222656 C 12.08353 2.2615656 12.006605 2.2304687 11.927734 2.2304688 C 11.836554 2.2304688 11.76369 2.2579 11.708984 2.3125 L 10.416016 3.2871094 C 10.166761 3.1594594 9.8933993 3.0483919 9.5957031 2.9511719 L 9.3398438 1.2734375 C 9.3338037 1.1944375 9.2981427 1.129805 9.234375 1.078125 C 9.170495 1.026425 9.0969666 1 9.0117188 1 L 6.9882812 1 z M 8 5.6660156 C 8.6441694 5.6660156 9.1947286 5.8939494 9.6503906 6.3496094 C 10.106052 6.8053894 10.333984 7.35583 10.333984 8 C 10.333984 8.64417 10.106052 9.1947306 9.6503906 9.6503906 C 9.1947286 10.106161 8.6441694 10.333984 8 10.333984 C 7.3558306 10.333984 6.8053833 10.106161 6.3496094 9.6503906 C 5.8939474 9.1947306 5.6660156 8.64417 5.6660156 8 C 5.6660156 7.35583 5.8938355 6.8053894 6.3496094 6.3496094 C 6.8053833 5.8939494 7.3559425 5.6660156 8 5.6660156 z "
     />
</svg>
