<?xml version="1.0" encoding="UTF-8" standalone="no"?>
<svg
   xmlns:dc="http://purl.org/dc/elements/1.1/"
   xmlns:cc="http://creativecommons.org/ns#"
   xmlns:rdf="http://www.w3.org/1999/02/22-rdf-syntax-ns#"
   xmlns:svg="http://www.w3.org/2000/svg"
   xmlns="http://www.w3.org/2000/svg"
   xmlns:sodipodi="http://sodipodi.sourceforge.net/DTD/sodipodi-0.dtd"
   xmlns:inkscape="http://www.inkscape.org/namespaces/inkscape"
   height="16"
   viewBox="0 0 16 16"
   width="16"
   version="1.1"
   id="svg4"
   sodipodi:docname="system-suspend-symbolic.svg"
   inkscape:version="1.0.2 (e86c870879, 2021-01-15)">
  <path
     style="fill:#bebebe;stroke:none;stroke-width:0.153727"
     d="m 5.5,1.9999997 c -0.4061673,0 -0.7590549,0.1685539 -1.0558087,0.5078124 C 4.1474388,2.8469047 4,3.2506657 4,3.7148433 v 8.5703127 c 0,0.464178 0.147438,0.867938 0.4441913,1.20703 C 4.740945,13.831612 5.0939759,14 5.5,14 5.906023,14 6.2559263,13.83162 6.5523918,13.492186 6.8491455,13.153094 6.9999999,12.749334 7,12.285156 V 3.7148433 C 7,3.2505008 6.8492902,2.8469047 6.5523919,2.5078121 6.2559263,2.1683899 5.9061673,1.9999997 5.5,1.9999997 Z"
     id="path18" />
  <metadata
     id="metadata10">
    <rdf:RDF>
      <cc:Work
         rdf:about="">
        <dc:format>image/svg+xml</dc:format>
        <dc:type
           rdf:resource="http://purl.org/dc/dcmitype/StillImage" />
        <dc:title />
      </cc:Work>
    </rdf:RDF>
  </metadata>
  <defs
     id="defs8">
    <linearGradient
       id="b"
       gradientUnits="userSpaceOnUse"
       x1="294.42975"
       x2="290.33557"
       y1="182.5513"
       y2="30.59856"
       gradientTransform="matrix(0.31418367,0,0,0.31418367,-104.64235,-10.023919)">
      <stop
         offset="0"
         stop-color="#566069"
         id="stop7" />
      <stop
         offset="1"
         stop-color="#6c7884"
         id="stop9" />
    </linearGradient>
    <linearGradient
       id="a"
       gradientUnits="userSpaceOnUse"
       x1="399.57144"
       x2="399.57144"
       y1="545.79797"
       y2="517.79797">
      <stop
         offset="0"
         stop-color="#3889e9"
         id="stop2" />
      <stop
         offset="1"
         stop-color="#5ea5fb"
         id="stop4" />
    </linearGradient>
  </defs>
  <sodipodi:namedview
     pagecolor="#ffffff"
     bordercolor="#666666"
     borderopacity="1"
     objecttolerance="10"
     gridtolerance="10"
     guidetolerance="10"
     inkscape:pageopacity="0"
     inkscape:pageshadow="2"
     inkscape:window-width="1920"
     inkscape:window-height="1146"
     id="namedview6"
     showgrid="false"
     inkscape:zoom="17.553688"
     inkscape:cx="-0.2048725"
     inkscape:cy="13.923441"
     inkscape:window-x="0"
     inkscape:window-y="0"
     inkscape:window-maximized="1"
     inkscape:current-layer="svg4"
     inkscape:document-rotation="0" />
  <path
     style="fill:#bebebe;stroke:none;stroke-width:0.153729"
     d="m 10.5,1.9999997 c -0.406168,0 -0.759055,0.17246 -1.055808,0.5117187 C 9.147438,2.8508119 9,3.2506666 9,3.7148442 v 8.5703118 c 0,0.464177 0.147438,0.86794 0.444192,1.207031 C 9.740945,13.831612 10.093976,14 10.5,14 10.906023,14 11.255928,13.83162 11.552391,13.492187 11.849144,13.153096 12,12.749333 12,12.285156 V 3.7148439 C 12,3.2505015 11.849287,2.8508116 11.552391,2.5117189 11.255928,2.1722968 10.906168,2.0000002 10.5,1.9999997 Z"
     id="path839" />
</svg>
