<svg viewBox="0 0 16 16" xmlns="http://www.w3.org/2000/svg"><path d="m7.9994102 2c-.5078516 0-.9167823.4116128-.9167823.9227867v4.6175383c0 .511174.4089307.9227867.9167823.9227867.5078515 0 .9167821-.4116127.9167821-.9227867v-4.6175383c0-.5111739-.4089306-.9227867-.9167821-.9227867zm2.6948388 1.8383642a.91687396.92287901 0 0 0 -.497785 1.6689463c1.263207.9511034 1.779518 2.5988663 1.287435 4.107482-.492074 1.5086165-1.878378 2.5271035-3.4558395 2.5394665-1.5774613.012365-2.9798724-.984676-3.4952323-2.4853965-.51536-1.5007207-.0235636-3.1565206 1.2247637-4.127308a.91687396.92287901 0 1 0 -1.1209096-1.4598774c-1.8656335 1.4508422-2.6055622 3.9481332-1.8353551 6.1909619.7701981 2.242828 2.8835342 3.74567 5.2410581 3.727193 2.3575147-.01847 4.4483537-1.555471 5.1837587-3.8101.735416-2.2546289-.04419-4.7388965-1.932047-6.1603221a.91687396.92287901 0 0 0 -.599847-.1910457z" fill="#bebebe"/></svg>