<?xml version="1.0" encoding="UTF-8" standalone="no"?>
<svg
   xmlns:dc="http://purl.org/dc/elements/1.1/"
   xmlns:cc="http://creativecommons.org/ns#"
   xmlns:rdf="http://www.w3.org/1999/02/22-rdf-syntax-ns#"
   xmlns:svg="http://www.w3.org/2000/svg"
   xmlns="http://www.w3.org/2000/svg"
   xmlns:xlink="http://www.w3.org/1999/xlink"
   xmlns:sodipodi="http://sodipodi.sourceforge.net/DTD/sodipodi-0.dtd"
   xmlns:inkscape="http://www.inkscape.org/namespaces/inkscape"
   viewBox="0 0 16 16"
   version="1.1"
   id="svg4"
   sodipodi:docname="system-run-symbolic.svg"
   inkscape:version="1.0.2 (e86c870879, 2021-01-15)">
  <metadata
     id="metadata10">
    <rdf:RDF>
      <cc:Work
         rdf:about="">
        <dc:format>image/svg+xml</dc:format>
        <dc:type
           rdf:resource="http://purl.org/dc/dcmitype/StillImage" />
      </cc:Work>
    </rdf:RDF>
  </metadata>
  <defs
     id="defs8">
    <linearGradient
       id="b"
       gradientUnits="userSpaceOnUse"
       x1="274.25348"
       x2="271.00607"
       xlink:href="#a"
       y1="555.45978"
       y2="7.8800921"
       gradientTransform="matrix(0.0138413,0,0,0.0138413,4.133679,4.190173)" />
    <linearGradient
       id="a"
       gradientTransform="matrix(1.0523327,0,0,1.0276135,-21.151387,-14.039869)"
       gradientUnits="userSpaceOnUse"
       x1="409.57144"
       x2="409.57144"
       y1="542.79797"
       y2="507.798">
      <stop
         offset="0"
         stop-color="#42a603"
         id="stop2" />
      <stop
         offset="1"
         stop-color="#78da06"
         id="stop4" />
    </linearGradient>
  </defs>
  <sodipodi:namedview
     pagecolor="#ffffff"
     bordercolor="#666666"
     borderopacity="1"
     objecttolerance="10"
     gridtolerance="10"
     guidetolerance="10"
     inkscape:pageopacity="0"
     inkscape:pageshadow="2"
     inkscape:window-width="1920"
     inkscape:window-height="1146"
     id="namedview6"
     showgrid="false"
     inkscape:zoom="34.861412"
     inkscape:cx="5.2239417"
     inkscape:cy="6.6152962"
     inkscape:window-x="0"
     inkscape:window-y="0"
     inkscape:window-maximized="1"
     inkscape:current-layer="svg4"
     inkscape:document-rotation="0" />
  <path
     id="path6622"
     style="fill:#bebebe;fill-opacity:1;stroke:none;stroke-width:0.0138413"
     d="m 8.0000002,1.9999998 c -0.7019795,0 -1.5257644,0.1402271 -2.0292972,0.3359375 -0.5035329,0.195712 -0.1014988,1.3693932 0.421875,1.1640625 0.5233752,-0.2053354 1.0434393,-0.3183594 1.6074222,-0.3183594 2.6459188,10e-8 4.8183588,2.1722545 4.8183588,4.8183598 0,2.6461038 -2.17244,4.8183588 -4.8183588,4.8183588 -2.6459198,0 -4.8183598,-2.172255 -4.8183598,-4.8183588 10e-8,-0.564023 0.2060494,-1.126871 0.3183594,-1.6328129 C 3.6123066,5.8612455 2.5831764,5.5012881 2.3359373,5.9726561 2.0887026,6.4440224 1.9999998,7.2979715 1.9999998,8.0000002 1.9999998,11.324131 4.6761001,14 8.0000002,14 11.3239,14 14,11.324131 14,8.0000002 14,4.6758691 11.3239,1.9999998 8.0000002,1.9999998 Z M 3.3242186,2.751953 c -0.301628,-10e-8 -0.5722656,0.2706166 -0.5722656,0.5722656 0,0.324558 0.2706376,0.5859375 0.5722656,0.5859375 0.324535,0 0.5859375,-0.2613795 0.5859375,-0.5859375 0,-0.301649 -0.2614025,-0.5722656 -0.5859375,-0.5722656 z" />
  <g
     id="path6630"
     inkscape:transform-center-x="-0.065887116"
     inkscape:transform-center-y="-0.48004594"
     style="opacity:1"
     transform="matrix(0.54044186,0,0,0.59625239,0.00739911,7.1118336)">
    <path
       style="color:#000000;font-style:normal;font-variant:normal;font-weight:normal;font-stretch:normal;font-size:medium;line-height:normal;font-family:sans-serif;font-variant-ligatures:normal;font-variant-position:normal;font-variant-caps:normal;font-variant-numeric:normal;font-variant-alternates:normal;font-variant-east-asian:normal;font-feature-settings:normal;font-variation-settings:normal;text-indent:0;text-align:start;text-decoration:none;text-decoration-line:none;text-decoration-style:solid;text-decoration-color:#000000;letter-spacing:normal;word-spacing:normal;text-transform:none;writing-mode:lr-tb;direction:ltr;text-orientation:mixed;dominant-baseline:auto;baseline-shift:baseline;text-anchor:start;white-space:normal;shape-padding:0;shape-margin:0;inline-size:0;clip-rule:nonzero;display:inline;overflow:visible;visibility:visible;isolation:auto;mix-blend-mode:normal;color-interpolation:sRGB;color-interpolation-filters:linearRGB;solid-color:#000000;solid-opacity:1;vector-effect:none;fill:#bebebe;fill-opacity:1;fill-rule:nonzero;stroke:none;stroke-linecap:round;stroke-linejoin:round;stroke-miterlimit:10;stroke-dasharray:none;stroke-dashoffset:0;stroke-opacity:1;color-rendering:auto;image-rendering:auto;shape-rendering:auto;text-rendering:auto;enable-background:accumulate;stop-color:#000000;stop-opacity:1"
       d="m 12.534989,-2.7028048 c -0.28448,-0.012205 -0.521717,0.2152577 -0.521484,0.5 l 0.01172,7.3847656 c 2.51e-4,0.3857594 0.418716,0.6259693 0.751953,0.4316406 l 6.386719,-3.703125 c 0.334612,-0.192228 0.334612,-0.6749596 0,-0.8671875 l -6.402344,-3.6796875 c -0.06914,-0.039902 -0.146824,-0.062672 -0.226563,-0.066406 z"
       id="path6636"
       sodipodi:nodetypes="cccccccc" />
  </g>
</svg>
