<?xml version="1.0" encoding="UTF-8" standalone="no"?>
<svg
   xmlns:dc="http://purl.org/dc/elements/1.1/"
   xmlns:cc="http://creativecommons.org/ns#"
   xmlns:rdf="http://www.w3.org/1999/02/22-rdf-syntax-ns#"
   xmlns:svg="http://www.w3.org/2000/svg"
   xmlns="http://www.w3.org/2000/svg"
   xmlns:sodipodi="http://sodipodi.sourceforge.net/DTD/sodipodi-0.dtd"
   xmlns:inkscape="http://www.inkscape.org/namespaces/inkscape"
   height="16"
   viewBox="0 0 16 16"
   width="16"
   version="1.1"
   id="svg4"
   sodipodi:docname="system-switch-user-symbolic.svg"
   inkscape:version="1.0.2 (e86c870879, 2021-01-15)">
  <metadata
     id="metadata10">
    <rdf:RDF>
      <cc:Work
         rdf:about="">
        <dc:format>image/svg+xml</dc:format>
        <dc:type
           rdf:resource="http://purl.org/dc/dcmitype/StillImage" />
        <dc:title></dc:title>
      </cc:Work>
    </rdf:RDF>
  </metadata>
  <defs
     id="defs8" />
  <sodipodi:namedview
     pagecolor="#ffffff"
     bordercolor="#666666"
     borderopacity="1"
     objecttolerance="10"
     gridtolerance="10"
     guidetolerance="10"
     inkscape:pageopacity="0"
     inkscape:pageshadow="2"
     inkscape:window-width="1920"
     inkscape:window-height="1146"
     id="namedview6"
     showgrid="false"
     inkscape:zoom="31.958333"
     inkscape:cx="12"
     inkscape:cy="12"
     inkscape:window-x="0"
     inkscape:window-y="0"
     inkscape:window-maximized="1"
     inkscape:current-layer="svg4" />
  <path
     d="m 10.181818,7.9454548 c -0.158181,0 -0.3381812,0 -0.5290904,0.02727 0.6327274,0.4581822 1.0745444,1.0636368 1.0745444,1.8818182 v 2.563639 H 14 V 9.8545454 C 14,8.5836364 11.452728,7.9454548 10.181818,7.9454548 m -4.3636362,0 C 4.5472728,7.9454548 2,8.5836364 2,9.8545454 V 12.418182 H 9.6363632 V 9.8545454 c 0,-1.270909 -2.5472724,-1.9090906 -3.8181814,-1.9090906 m 0,-1.0909092 c 0.9037384,0 1.6363636,-0.732625 1.6363636,-1.6363635 0,-0.9037387 -0.7326252,-1.6363637 -1.6363636,-1.6363637 -0.9037387,0 -1.6363636,0.732625 -1.6363636,1.6363637 0,0.9037385 0.7326249,1.6363635 1.6363636,1.6363635 m 4.3636362,0 c 0.903739,6e-7 1.636364,-0.7326244 1.636364,-1.6363635 0,-0.903739 -0.732625,-1.6363641 -1.636364,-1.6363637 -0.9037388,2e-7 -1.6363634,0.7326251 -1.6363634,1.6363637 0,0.9037385 0.7326246,1.6363635 1.6363634,1.6363635 z"
     fill="#bebebe"
     stroke-width="0.545455"
     id="path2" />
</svg>
