<svg xmlns="http://www.w3.org/2000/svg" viewBox="0 0 16 16">
  <defs id="defs3051">
    <style type="text/css" id="current-color-scheme">
      .ColorScheme-Text {
        color:#bebebe;
      }
      </style>
  </defs>
 <path 
       style="fill:currentColor;fill-opacity:1;stroke:none"
	 class="ColorScheme-Text"
        d="m 8,1.640625 0,8.03125 0,1 1,0 2,0 c 0.93855,0 1.78249,-0.382302 2.3125,-0.96875 0.53001,-0.586448 0.75988,-1.33268 0.75,-2.0625 C 14.0525,6.910805 13.77684,6.186552 13.25,5.609375 12.72316,5.032198 11.92105,4.640625 11,4.640625 l -1,0 0,-3 -2,0 z m -6,1 0,2 2.90625,0 c -0.0552,0 0.0937,0.171037 0.0937,0.09375 l 0,0.9375 -1,0 c -1.71588,0 -3.03787,1.10986 -3.0625,2.46875 -0.0123,0.679445 0.3195,1.353231 0.875,1.8125 0.5555,0.459269 1.30959,0.71875 2.1875,0.71875 l 2,0 1,0 0,-1 0,-4.9375 c 0,-1.160792 -0.88179,-2.077759 -2.0625,-2.09375 l -0.0312,0 -2.90625,0 z m 8,4 1,0 c 0.42179,0 0.61965,0.135455 0.78125,0.3125 0.1616,0.177045 0.27751,0.44294 0.28125,0.71875 0.004,0.27581 -0.0984,0.519725 -0.25,0.6875 -0.15163,0.167775 -0.35374,0.3125 -0.8125,0.3125 l -1,0 0,-2.03125 z m -6,1.03125 1,0 0,1 -1,0 c -0.51941,0 -0.78011,-0.145714 -0.90625,-0.25 -0.12614,-0.104286 -0.15755,-0.178037 -0.15625,-0.25 0.003,-0.143925 0.0927,-0.5 1.0625,-0.5 z m -1,3.25 -0.34375,0.375 -2,2 a 0.50005,0.50005 0 1 0 0.6875,0.6875 L 3,12.328125 4.65625,13.984375 5,14.359375 5.34375,13.984375 7,12.328125 8.65625,13.984375 9,14.359375 9.34375,13.984375 11,12.328125 l 1.65625,1.65625 0.34375,0.375 0.34375,-0.375 2,-2 a 0.50005,0.50005 0 1 0 -0.6875,-0.6875 L 13,12.953125 11.34375,11.296875 11,10.921875 10.65625,11.296875 9,12.953125 7.34375,11.296875 7,10.921875 6.65625,11.296875 5,12.953125 3.34375,11.296875 3,10.921875 Z"
     />
</svg>
