<?xml version="1.0" encoding="UTF-8" standalone="no"?>
<!-- Created with Inkscape (http://www.inkscape.org/) -->

<svg
   xmlns:sketch="http://www.bohemiancoding.com/sketch/ns"
   xmlns:dc="http://purl.org/dc/elements/1.1/"
   xmlns:cc="http://creativecommons.org/ns#"
   xmlns:rdf="http://www.w3.org/1999/02/22-rdf-syntax-ns#"
   xmlns:svg="http://www.w3.org/2000/svg"
   xmlns="http://www.w3.org/2000/svg"
   xmlns:sodipodi="http://sodipodi.sourceforge.net/DTD/sodipodi-0.dtd"
   xmlns:inkscape="http://www.inkscape.org/namespaces/inkscape"
   id="svg7384"
   style="enable-background:new"
   height="16"
   width="16"
   version="1.1"
   inkscape:version="0.91 r13725"
   sodipodi:docname="view-list-compact-symbolic.svg">
  <sodipodi:namedview
     pagecolor="#ffffff"
     bordercolor="#666666"
     borderopacity="1"
     objecttolerance="10"
     gridtolerance="10"
     guidetolerance="10"
     inkscape:pageopacity="0"
     inkscape:pageshadow="2"
     inkscape:window-width="1366"
     inkscape:window-height="633"
     id="namedview10"
     showgrid="false"
     inkscape:zoom="14.75"
     inkscape:cx="-5.1864407"
     inkscape:cy="8"
     inkscape:window-x="0"
     inkscape:window-y="33"
     inkscape:window-maximized="1"
     inkscape:current-layer="svg7384" />
  <metadata
     id="metadata90">
    <rdf:RDF>
      <cc:Work
         rdf:about="">
        <dc:format>image/svg+xml</dc:format>
        <dc:type
           rdf:resource="http://purl.org/dc/dcmitype/StillImage" />
        <dc:title>Paper Symbolic Icon Theme</dc:title>
      </cc:Work>
    </rdf:RDF>
  </metadata>
  <title
     id="title8473">Paper Symbolic Icon Theme</title>
  <defs
     id="defs7386">
    <filter
       id="filter7554"
       color-interpolation-filters="sRGB">
      <feBlend
         id="feBlend7556"
         in2="BackgroundImage"
         mode="darken" />
    </filter>
    <linearGradient
       id="linearGradient3257">
      <stop
         id="stop3259"
         style="stop-color:#a50000;stop-opacity:1"
         offset="0" />
      <stop
         id="stop3261"
         style="stop-color:#e73800;stop-opacity:1"
         offset="1" />
    </linearGradient>
    <clipPath
       id="clipPath4210"
       clipPathUnits="userSpaceOnUse">
      <rect
         style="opacity:1;fill:#0000ff;fill-opacity:0.51376145;stroke:none;stroke-opacity:1"
         id="rect4212"
         width="34"
         height="34"
         x="-7"
         y="1024.3622" />
    </clipPath>
    <clipPath
       id="clipPath4160"
       clipPathUnits="userSpaceOnUse">
      <rect
         y="1028.3619"
         x="-6"
         height="32.000015"
         width="32"
         id="rect4162"
         style="opacity:1;fill:#aade87;fill-opacity:0.47247709;stroke:none;stroke-opacity:1" />
    </clipPath>
    <clipPath
       clipPathUnits="userSpaceOnUse"
       id="clipPath4160-4">
      <rect
         style="opacity:1;fill:#f2f2f2;fill-opacity:1;stroke:none;stroke-opacity:1"
         id="rect4162-5"
         width="1"
         height="1"
         x="7"
         y="1023.3622" />
    </clipPath>
    <clipPath
       id="clipPath16"
       clipPathUnits="userSpaceOnUse">
      <path
         inkscape:connector-curvature="0"
         id="path18"
         d="m 0,706.465 1490.926,0 L 1490.926,0 0,0 0,706.465 Z" />
    </clipPath>
    <clipPath
       id="clipPath24"
       clipPathUnits="userSpaceOnUse">
      <path
         inkscape:connector-curvature="0"
         id="path26"
         d="m 22.1953,686.117 1447.7347,0 0,-667.1902 -1447.7347,0 0,667.1902 z" />
    </clipPath>
  </defs>
  <g
     transform="matrix(0.75,0,0,0.75,-244.75,-401.02165)"
     id="layer1"
     inkscape:label="Capa 1">
    <g
       inkscape:label="Capa 1"
       id="layer1-9"
       transform="matrix(0.66754261,0,0,0.66754261,68.600187,191.36438)">
      <g
         transform="matrix(1.4991279,0,0,1.4991279,-246.91528,-274.3759)"
         id="layer1-8"
         inkscape:label="Capa 1">
        <rect
           y="529.79071"
           x="433.71429"
           height="1"
           width="7"
           id="rect4163"
           style="fill:#4d4d4d;fill-opacity:1;stroke:#4d4d4d;stroke-width:0.79941505;stroke-miterlimit:4;stroke-dasharray:none;stroke-opacity:1"
           ry="0.40000001" />
        <rect
           y="538.79071"
           x="433.71429"
           height="1"
           width="3.9999976"
           id="rect4165"
           style="fill:#4d4d4d;fill-opacity:1;stroke:#4d4d4d;stroke-width:0.79941505;stroke-miterlimit:4;stroke-dasharray:none;stroke-opacity:1"
           ry="0.40000001" />
        <rect
           y="542.79047"
           x="433.71429"
           height="1"
           width="4"
           id="rect4167"
           style="fill:#4d4d4d;fill-opacity:1;stroke:#4d4d4d;stroke-width:0.79941505;stroke-miterlimit:4;stroke-dasharray:none;stroke-opacity:1"
           ry="0.40000001" />
        <rect
           y="533.79047"
           x="433.71429"
           height="1"
           width="7.0000038"
           id="rect4169"
           style="fill:#4d4d4d;fill-opacity:1;stroke:#4d4d4d;stroke-width:0.79941505;stroke-miterlimit:4;stroke-dasharray:none;stroke-opacity:1"
           ry="0.40000001" />
        <g
           style="fill:#4d4d4d;fill-opacity:1"
           transform="matrix(0.05593646,0,0,0.05593646,424.72965,528.7445)"
           sketch:type="MSLayerGroup"
           id="circle33">
          <path
             style="fill:#4d4d4d;fill-opacity:1"
             inkscape:connector-curvature="0"
             sketch:type="MSShapeGroup"
             id="path285"
             d="M 117.18,31.592 C 111.585,22.006 103.995,14.416 94.409,8.821 84.821,3.226 74.354,0.429 63.001,0.429 51.649,0.429 41.179,3.226 31.593,8.821 22.006,14.415 14.416,22.005 8.821,31.592 3.225,41.179 0.428,51.649 0.428,63 c 0,11.352 2.798,21.82 8.392,31.408 5.595,9.585 13.185,17.176 22.772,22.771 9.587,5.595 20.056,8.392 31.408,8.392 11.352,0 21.822,-2.797 31.408,-8.392 9.586,-5.594 17.176,-13.185 22.771,-22.771 5.594,-9.587 8.391,-20.057 8.391,-31.408 0,-11.352 -2.797,-21.822 -8.39,-31.408 z"
             sodipodi:nodetypes="ccsccscssccscc" />
        </g>
        <g
           style="fill:#4d4d4d;fill-opacity:1"
           transform="matrix(0.05593646,0,0,0.05593646,424.68105,537.7328)"
           sketch:type="MSLayerGroup"
           id="circular56">
          <path
             style="fill:#4d4d4d;fill-opacity:1"
             inkscape:connector-curvature="0"
             sketch:type="MSShapeGroup"
             id="path291"
             d="M 117.18,31.592 C 111.585,22.006 103.995,14.416 94.409,8.821 84.821,3.226 74.354,0.429 63.001,0.429 51.649,0.429 41.179,3.226 31.593,8.821 22.006,14.415 14.416,22.005 8.821,31.592 3.225,41.179 0.428,51.649 0.428,63 c 0,11.352 2.798,21.82 8.392,31.408 5.595,9.585 13.185,17.176 22.772,22.771 9.587,5.595 20.056,8.392 31.408,8.392 11.352,0 21.822,-2.797 31.408,-8.392 9.586,-5.594 17.176,-13.185 22.771,-22.771 5.594,-9.587 8.391,-20.057 8.391,-31.408 0,-11.352 -2.797,-21.822 -8.39,-31.408 l 0,0 z" />
        </g>
      </g>
    </g>
  </g>
</svg>
