<?xml version="1.0" encoding="UTF-8" standalone="no"?>
<svg
   xmlns:dc="http://purl.org/dc/elements/1.1/"
   xmlns:cc="http://creativecommons.org/ns#"
   xmlns:rdf="http://www.w3.org/1999/02/22-rdf-syntax-ns#"
   xmlns:svg="http://www.w3.org/2000/svg"
   xmlns="http://www.w3.org/2000/svg"
   xmlns:sodipodi="http://sodipodi.sourceforge.net/DTD/sodipodi-0.dtd"
   xmlns:inkscape="http://www.inkscape.org/namespaces/inkscape"
   viewBox="0 0 16 16"
   id="svg3371"
   version="1.1"
   inkscape:version="0.91 r13725"
   sodipodi:docname="view-sort-descending-symbolic.svg">
  <metadata
     id="metadata3379">
    <rdf:RDF>
      <cc:Work
         rdf:about="">
        <dc:format>image/svg+xml</dc:format>
        <dc:type
           rdf:resource="http://purl.org/dc/dcmitype/StillImage" />
      </cc:Work>
    </rdf:RDF>
  </metadata>
  <sodipodi:namedview
     pagecolor="#ffffff"
     bordercolor="#666666"
     borderopacity="1"
     objecttolerance="10"
     gridtolerance="10"
     guidetolerance="10"
     inkscape:pageopacity="0"
     inkscape:pageshadow="2"
     inkscape:window-width="640"
     inkscape:window-height="480"
     id="namedview3377"
     showgrid="false"
     inkscape:zoom="39.8125"
     inkscape:cx="8.100471"
     inkscape:cy="6.9952904"
     inkscape:current-layer="svg3371" />
  <defs
     id="defs3051">
    <style
       type="text/css"
       id="current-color-scheme">
      .ColorScheme-Text {
        color:#bebebe;
      }
      </style>
  </defs>
  <path
     style="color:#bebebe;fill:currentColor;fill-opacity:1;stroke:none"
     class="ColorScheme-Text"
     d="M 3.2687225,3.7710352 C 2.5731665,3.7710352 2,4.3442017 2,5.0397577 c 0,0.695556 0.5731665,1.2687225 1.2687225,1.2687225 0.6955559,0 1.2687224,-0.5731665 1.2687224,-1.2687225 0,-0.695556 -0.5731665,-1.2687225 -1.2687224,-1.2687225 z m 6.3436123,0 -4.2819383,5.9207049 2.5903084,0 0,3.3832599 3.3832601,0 0,-3.3832599 2.696035,0 L 9.6123348,3.7710352 Z M 3.2687225,7.1542951 C 2.5731665,7.1542951 2,7.7274617 2,8.4230176 c 0,0.695556 0.5731665,1.2687225 1.2687225,1.2687225 0.6955559,0 1.2687224,-0.5731665 1.2687224,-1.2687225 0,-0.6955559 -0.5731665,-1.2687225 -1.2687224,-1.2687225 z m 0,3.3832599 C 2.5731665,10.537555 2,11.110722 2,11.806278 2,12.501834 2.5731665,13.075 3.2687225,13.075 c 0.6955559,0 1.2687224,-0.573166 1.2687224,-1.268722 0,-0.695556 -0.5731665,-1.268723 -1.2687224,-1.268723 z"
     id="path3375"
     inkscape:connector-curvature="0" />
</svg>
