<svg viewBox="0 0 16 16" xmlns="http://www.w3.org/2000/svg"><path d="m3.2687225 3.7710352c-.695556 0-1.2687225.5731665-1.2687225 1.2687225s.5731665 1.2687225 1.2687225 1.2687225c.6955559 0 1.2687224-.5731665 1.2687224-1.2687225s-.5731665-1.2687225-1.2687224-1.2687225zm6.3436123 0-4.2819383 5.9207049h2.5903084v3.3832599h3.3832601v-3.3832599h2.696035zm-6.3436123 3.3832599c-.695556 0-1.2687225.5731666-1.2687225 1.2687225 0 .695556.5731665 1.2687225 1.2687225 1.2687225.6955559 0 1.2687224-.5731665 1.2687224-1.2687225 0-.6955559-.5731665-1.2687225-1.2687224-1.2687225zm0 3.3832599c-.695556 0-1.2687225.573167-1.2687225 1.268723s.5731665 1.268722 1.2687225 1.268722c.6955559 0 1.2687224-.573166 1.2687224-1.268722s-.5731665-1.268723-1.2687224-1.268723z" fill="#bebebe"/></svg>