<svg xmlns="http://www.w3.org/2000/svg" viewBox="0 0 16 16">
  <defs id="defs3051">
    <style type="text/css" id="current-color-scheme">
      .ColorScheme-Text {
        color:#bebebe;
      }
      </style>
  </defs>
 <path 
       style="fill:currentColor;fill-opacity:1;stroke:none"
	 class="ColorScheme-Text"
        d="M 7.9980469 1.015625 C 4.1320569 1.015625 0.99804688 4.149635 0.99804688 8.015625 C 0.99804688 11.881615 4.1320569 15.015625 7.9980469 15.015625 C 11.172867 15.015625 13.859587 12.912455 14.716797 10.015625 L 12.560547 10.015625 C 11.786277 11.775145 10.043737 13.015625 7.9980469 13.015625 C 5.2366269 13.015625 2.9980469 10.777045 2.9980469 8.015625 C 2.9980469 5.254205 5.2366269 3.015625 7.9980469 3.015625 C 9.3792869 3.015625 10.613562 3.591025 11.513672 4.5 L 8.9980469 7.015625 L 14.998047 7.015625 L 14.998047 1.015625 L 12.945312 3.0683594 C 11.676873 1.8040734 9.9315169 1.015625 7.9980469 1.015625 z "
     />
</svg>
