<svg xmlns="http://www.w3.org/2000/svg" viewBox="0 0 16 16">
  <defs id="defs3051">
    <style type="text/css" id="current-color-scheme">
      .ColorScheme-Text {
        color:#bebebe;
      }
      </style>
  </defs>
 <path 
       style="fill:currentColor;fill-opacity:1;stroke:none"
	 class="ColorScheme-Text"
        d="M 1 1.71875 L 1 5.3085938 L 4.2949219 5.3085938 L 4.2949219 1.71875 L 1 1.71875 z M 5.1171875 1.71875 L 5.1171875 5.3085938 L 15 5.3085938 L 15 1.71875 L 5.1171875 1.71875 z M 1 6.2050781 L 1 9.7949219 L 4.2949219 9.7949219 L 4.2949219 6.2050781 L 1 6.2050781 z M 5.1171875 6.2050781 L 5.1171875 9.7949219 L 15 9.7949219 L 15 6.2050781 L 5.1171875 6.2050781 z M 1 10.691406 L 1 14.28125 L 4.2949219 14.28125 L 4.2949219 10.691406 L 1 10.691406 z M 5.1171875 10.691406 L 5.1171875 14.28125 L 15 14.28125 L 15 10.691406 L 5.1171875 10.691406 z "
     />
</svg>
