<svg xmlns="http://www.w3.org/2000/svg" viewBox="0 0 16 16">
  <path fill="#bebebe" d="M2.8 2.638a1.3 1.3 0 1 0 0 2.599 1.3 1.3 0 0 0 0-2.6zm2.763.487a.82.82 0 0 0-.813.812c0 .443.37.813.813.813h8.125a.82.82 0 0 0 .812-.813.82.82 0 0 0-.813-.812zM2.8 6.7a1.3 1.3 0 1 0 0 2.599 1.3 1.3 0 0 0 0-2.599zm2.763.487A.82.82 0 0 0 4.75 8c0 .443.37.812.813.812h8.125A.82.82 0 0 0 14.5 8a.82.82 0 0 0-.813-.813zM2.8 10.763a1.3 1.3 0 1 0 0 2.599 1.3 1.3 0 0 0 0-2.6zm2.763.487a.82.82 0 0 0-.813.812c0 .443.37.813.813.813h8.125a.82.82 0 0 0 .812-.813.82.82 0 0 0-.813-.812z"/>
</svg>
