<?xml version="1.0" encoding="UTF-8" standalone="no"?>
<svg
   xmlns:dc="http://purl.org/dc/elements/1.1/"
   xmlns:cc="http://creativecommons.org/ns#"
   xmlns:rdf="http://www.w3.org/1999/02/22-rdf-syntax-ns#"
   xmlns:svg="http://www.w3.org/2000/svg"
   xmlns="http://www.w3.org/2000/svg"
   xmlns:sodipodi="http://sodipodi.sourceforge.net/DTD/sodipodi-0.dtd"
   xmlns:inkscape="http://www.inkscape.org/namespaces/inkscape"
   viewBox="0 0 16 16"
   id="svg2"
   version="1.1"
   inkscape:version="0.91 r13725"
   sodipodi:docname="view-list-symbolic.svg">
  <metadata
     id="metadata10">
    <rdf:RDF>
      <cc:Work
         rdf:about="">
        <dc:format>image/svg+xml</dc:format>
        <dc:type
           rdf:resource="http://purl.org/dc/dcmitype/StillImage" />
      </cc:Work>
    </rdf:RDF>
  </metadata>
  <sodipodi:namedview
     pagecolor="#ffffff"
     bordercolor="#666666"
     borderopacity="1"
     objecttolerance="10"
     gridtolerance="10"
     guidetolerance="10"
     inkscape:pageopacity="0"
     inkscape:pageshadow="2"
     inkscape:window-width="640"
     inkscape:window-height="480"
     id="namedview8"
     showgrid="false"
     inkscape:zoom="28.151689"
     inkscape:cx="-0.55564284"
     inkscape:cy="6.0393277"
     inkscape:current-layer="svg2" />
  <defs
     id="defs3051">
    <style
       type="text/css"
       id="current-color-scheme">
      .ColorScheme-Text {
        color:#bebebe;
      }
      </style>
    <style
       id="current-color-scheme-3"
       type="text/css">
      .ColorScheme-Text {
        color:#4d4d4d
      }
      </style>
  </defs>
  <g
     transform="matrix(0.875,0,0,0.875,-1.625,-1.098)"
     id="g3209"
     style="fill:#bebebe;fill-opacity:1">
    <path
       style="fill:#bebebe;fill-opacity:1;stroke:none"
       d="M 4.5996094,3.8007812 C 3.7159594,3.8007812 3.00001,4.5167306 3,5.4003906 3.00001,6.2840506 3.7159594,7 4.5996094,7 5.4832594,7 6.1992087,6.2840506 6.1992188,5.4003906 6.1992088,4.5167306 5.4832594,3.8007812 4.5996094,3.8007812 Z"
       id="path3207"
       inkscape:connector-curvature="0" />
    <path
       style="fill:#bebebe;fill-opacity:1;stroke:none"
       d="m 8,4.4003906 c -0.54535,0 -1,0.45465 -1,1 0,0.54536 0.45465,1 1,1 l 10,0 c 0.54536,0 1,-0.45464 1,-1 0,-0.54535 -0.45464,-0.99999 -1,-1 l -10,0 z"
       id="path3205"
       inkscape:connector-curvature="0" />
    <path
       style="fill:#bebebe;fill-opacity:1;stroke:none"
       d="M 4.5996094,8.8007816 C 3.7159494,8.8007816 3,9.516731 3,10.400391 3,11.284051 3.7159494,12 4.5996094,12 c 0.88366,0 1.5996094,-0.715949 1.5996094,-1.599609 0,-0.88366 -0.7159494,-1.5996094 -1.5996094,-1.5996094 z"
       id="path3203"
       inkscape:connector-curvature="0" />
    <path
       style="fill:#bebebe;fill-opacity:1;stroke:none"
       d="m 8,9.400391 c -0.54535,0 -1,0.45464 -1,1 0,0.54535 0.45465,1 1,1 l 10,0 c 0.54536,0 1,-0.45465 1,-1 0,-0.54536 -0.45464,-1 -1,-1 l -10,0 z"
       id="path3201"
       inkscape:connector-curvature="0" />
    <path
       style="fill:#bebebe;fill-opacity:1;stroke:none"
       d="M 4.5996094,13.800781 C 3.7159494,13.800781 3,14.516731 3,15.400391 3,16.284051 3.7159494,17 4.5996094,17 c 0.88366,0 1.5996094,-0.715949 1.5996094,-1.599609 0,-0.88366 -0.7159494,-1.59961 -1.5996094,-1.59961 z"
       id="path3199"
       inkscape:connector-curvature="0" />
    <path
       style="fill:#bebebe;fill-opacity:1;stroke:none"
       d="m 8,14.400391 c -0.54535,0 -1,0.45464 -1,1 0,0.54535 0.45465,1 1,1 l 10,0 c 0.54536,0 1,-0.45465 1,-1 0,-0.54536 -0.45464,-1 -1,-1 l -10,0 z"
       id="path6-5"
       inkscape:connector-curvature="0" />
  </g>
</svg>
