<svg xmlns="http://www.w3.org/2000/svg" viewBox="0 0 16 16">
  <defs id="defs3051">
    <style type="text/css" id="current-color-scheme">
      .ColorScheme-Text {
        color:#bebebe;
      }
      </style>
  </defs>
 <path 
       style="fill:currentColor;fill-opacity:1;stroke:none"
	 class="ColorScheme-Text"
        d="M 11.433594,2 C 10.957118,2 10.517586,2.1167247 10.115234,2.3515625 9.7128415,2.5863584 9.393041,2.9062005 9.1582031,3.3085938 8.9233233,3.7109869 8.8066406,4.1505198 8.8066406,4.6269531 c 0,0.4764753 0.1167667,0.9159241 0.3515625,1.3183594 0.2348379,0.4023093 0.5546384,0.7202403 0.9570309,0.9550781 0.402394,0.2348379 0.841884,0.3515625 1.31836,0.3515625 0.476475,0 0.916008,-0.1167246 1.318359,-0.3515625 0.402351,-0.2347958 0.72024,-0.5527268 0.955078,-0.9550781 0.234796,-0.4023933 0.351563,-0.8419261 0.351563,-1.3183594 0,-0.4764753 -0.116809,-0.9160081 -0.351563,-1.3183593 C 13.472193,2.9062424 13.154304,2.5864003 12.751953,2.3515625 12.349518,2.1167247 11.910111,2 11.433594,2 Z M 4.5664062,2.00195 C 4.0899311,2.0019531 3.6523513,2.1206309 3.25,2.3554688 2.8476067,2.5902645 2.5278065,2.9081536 2.2929688,3.3105469 2.0580889,3.7129402 1.9414062,4.152473 1.9414062,4.6289062 c 0,0.4764753 0.1167667,0.9159242 0.3515626,1.3183594 0.2348377,0.4023094 0.5526848,0.7202403 0.9550781,0.9550782 0.4023933,0.2348377 0.8418842,0.3535156 1.3183593,0.3535156 0.4764753,0 0.9160081,-0.1186779 1.3183594,-0.3535156 C 6.2871169,6.6675479 6.606959,6.3496169 6.8417969,5.9472656 7.0765927,5.5448723 7.1933594,5.1053396 7.1933594,4.6289062 7.1933594,4.1524311 7.0765508,3.7128982 6.8417969,3.3105469 6.606959,2.9081956 6.2871169,2.5903065 5.8847656,2.3554688 5.4823304,2.1206309 5.0429235,2.0019531 4.5664062,2.0019531 Z m 6.7968748,6.7089844 c -0.476475,0 -0.916008,0.1167247 -1.318359,0.3515625 -0.4023935,0.2347959 -0.7221935,0.5546383 -0.9570314,0.9570311 -0.2348798,0.402394 -0.3515625,0.841926 -0.3515625,1.31836 0,0.476475 0.1167667,0.915924 0.3515625,1.318359 0.2348379,0.402309 0.5546379,0.72024 0.9570314,0.955078 0.402393,0.234838 0.841884,0.351563 1.318359,0.351563 0.476476,0 0.916008,-0.116725 1.31836,-0.351563 0.402351,-0.234796 0.72024,-0.552727 0.955078,-0.955078 0.234796,-0.402393 0.351562,-0.841926 0.351562,-1.318359 0,-0.476476 -0.116808,-0.916008 -0.351562,-1.31836 C 13.401881,9.6171802 13.083992,9.2973378 12.681641,9.0625 12.279205,8.8276622 11.839799,8.7109375 11.363281,8.7109375 Z m -6.7402341,0.037109 c -0.4764753,0 -0.9160081,0.1167246 -1.3183594,0.3515625 -0.4023933,0.2347958 -0.7202403,0.5526843 -0.9550781,0.9550781 -0.2348798,0.402392 -0.3515625,0.841926 -0.3515625,1.318359 0,0.476475 0.1167666,0.915924 0.3515625,1.318359 0.2348378,0.40231 0.5526848,0.722194 0.9550781,0.957032 C 3.7070808,13.883274 4.1465716,14 4.6230469,14 5.0995222,14 5.539055,13.883274 5.9414062,13.648438 6.3437576,13.413642 6.6635997,13.093758 6.8984375,12.691406 7.1332334,12.289013 7.25,11.84948 7.25,11.373047 7.25,10.896572 7.1331914,10.457038 6.8984375,10.054688 6.6635997,9.6523357 6.3437576,9.3344472 5.9414062,9.0996094 5.5389711,8.8647715 5.0995641,8.7480469 4.6230469,8.7480469 Z"
     />
</svg>
