<svg xmlns="http://www.w3.org/2000/svg" viewBox="0 0 16 16">
  <defs id="defs3051">
    <style type="text/css" id="current-color-scheme">
      .ColorScheme-Text {
        color:#bebebe;
      }
      </style>
  </defs>
 <path 
       style="fill:currentColor;fill-opacity:1;stroke:none"
	 class="ColorScheme-Text"
        d="M 6.1054688 2 C 5.843929 2 5.5890344 2.0852349 5.3398438 2.2558594 C 5.0906706 2.4265975 4.917972 2.6296996 4.8242188 2.8652344 L 4.4472656 3.8457031 L 2.7890625 3.8457031 C 2.2659744 3.8457031 1.8193149 4.0262125 1.4492188 4.3867188 C 1.0792104 4.7473299 0.89453125 5.1817434 0.89453125 5.6914062 L 0.89453125 12.154297 C 0.89453125 12.66396 1.0792103 13.098565 1.4492188 13.458984 C 1.8193149 13.819595 2.2659744 14 2.7890625 14 L 13.210938 14 C 13.734008 14 14.180676 13.819595 14.550781 13.458984 C 14.920781 13.098565 15.105469 12.66396 15.105469 12.154297 L 15.105469 5.6914062 C 15.10553 5.1817433 14.920789 4.7473298 14.550781 4.3867188 C 14.180676 4.0262126 13.734026 3.8457031 13.210938 3.8457031 L 11.552734 3.8457031 L 11.175781 2.8652344 C 11.082028 2.6296996 10.909444 2.4265975 10.660156 2.2558594 C 10.410974 2.0851913 10.156071 2 9.8945312 2 L 6.1054688 2 z M 8 5.6933594 C 8.9128866 5.6933594 9.6929041 6.0084547 10.341797 6.640625 C 10.990699 7.2727866 11.316406 8.034358 11.316406 8.9238281 C 11.316406 9.8132195 10.990612 10.57282 10.341797 11.205078 C 9.6929918 11.837335 8.9128866 12.154297 8 12.154297 C 7.0871045 12.154297 6.3071048 11.837335 5.6582031 11.205078 C 5.0092927 10.572907 4.6835937 9.8132195 4.6835938 8.9238281 C 4.6835938 8.034358 5.0093891 7.272874 5.6582031 6.640625 C 6.3070084 6.0083673 7.0871045 5.6933594 8 5.6933594 z M 8 6.8457031 C 7.4127824 6.8457031 6.9111176 7.0487878 6.4941406 7.4550781 C 6.0771635 7.861351 5.8691406 8.3516664 5.8691406 8.9238281 C 5.8691406 9.4959723 6.0771635 9.9843524 6.4941406 10.390625 C 6.9111176 10.79682 7.4127824 11 8 11 C 8.5871211 11 9.0888823 10.79682 9.5058594 10.390625 C 9.9228277 9.9843524 10.130859 9.4959723 10.130859 8.9238281 C 10.130859 8.3516664 9.9228277 7.861351 9.5058594 7.4550781 C 9.0888823 7.0487878 8.5871211 6.8457031 8 6.8457031 z "
     />
</svg>
