<?xml version="1.0" encoding="UTF-8" standalone="no"?>
<svg
   xmlns:dc="http://purl.org/dc/elements/1.1/"
   xmlns:cc="http://creativecommons.org/ns#"
   xmlns:rdf="http://www.w3.org/1999/02/22-rdf-syntax-ns#"
   xmlns:svg="http://www.w3.org/2000/svg"
   xmlns="http://www.w3.org/2000/svg"
   xmlns:sodipodi="http://sodipodi.sourceforge.net/DTD/sodipodi-0.dtd"
   xmlns:inkscape="http://www.inkscape.org/namespaces/inkscape"
   viewBox="0 0 16 16"
   id="svg3365"
   version="1.1"
   inkscape:version="0.91 r13725"
   sodipodi:docname="view-filter-symbolic.svg">
  <metadata
     id="metadata3373">
    <rdf:RDF>
      <cc:Work
         rdf:about="">
        <dc:format>image/svg+xml</dc:format>
        <dc:type
           rdf:resource="http://purl.org/dc/dcmitype/StillImage" />
      </cc:Work>
    </rdf:RDF>
  </metadata>
  <sodipodi:namedview
     pagecolor="#ffffff"
     bordercolor="#666666"
     borderopacity="1"
     objecttolerance="10"
     gridtolerance="10"
     guidetolerance="10"
     inkscape:pageopacity="0"
     inkscape:pageshadow="2"
     inkscape:window-width="640"
     inkscape:window-height="480"
     id="namedview3371"
     showgrid="false"
     inkscape:zoom="41.1875"
     inkscape:cx="3.6783005"
     inkscape:cy="8"
     inkscape:current-layer="svg3365" />
  <defs
     id="defs3051">
    <style
       type="text/css"
       id="current-color-scheme">
      .ColorScheme-Text {
        color:#bebebe;
      }
      </style>
  </defs>
  <path
     style="color:#bebebe;fill:currentColor;fill-opacity:1;stroke:none"
     class="ColorScheme-Text"
     d="m 5.6923077,2.5 0,11 0.9230769,0 0,-11 -0.9230769,0 z M 2,3.4166666 l 0,0.9166668 1.8461538,0 0,-0.9166668 -1.8461538,0 z m 6.4615385,0 0,1.8333334 1.8461535,0 0,-1.8333334 -1.8461535,0 z m 3.6923075,0 0,1.8333334 1.846154,0 0,-1.8333334 -1.846154,0 z M 2,6.1666667 l 0,0.9166666 1.8461538,0 0,-0.9166666 -1.8461538,0 z m 6.4615385,0.9166666 0,1.8333334 1.8461535,0 0,-1.8333334 -1.8461535,0 z m 3.6923075,0 0,1.8333334 1.846154,0 0,-1.8333334 -1.846154,0 z M 2,8.9166667 2,9.833333 l 1.8461538,0 0,-0.9166663 -1.8461538,0 z M 8.4615385,10.75 l 0,1.833333 1.8461535,0 0,-1.833333 -1.8461535,0 z m 3.6923075,0 0,1.833333 1.846154,0 0,-1.833333 -1.846154,0 z M 2,11.666667 l 0,0.916666 1.8461538,0 0,-0.916666 -1.8461538,0 z"
     id="path3369"
     inkscape:connector-curvature="0" />
</svg>
