<?xml version="1.0" encoding="UTF-8" standalone="no"?>
<svg
   xmlns:dc="http://purl.org/dc/elements/1.1/"
   xmlns:cc="http://creativecommons.org/ns#"
   xmlns:rdf="http://www.w3.org/1999/02/22-rdf-syntax-ns#"
   xmlns:svg="http://www.w3.org/2000/svg"
   xmlns="http://www.w3.org/2000/svg"
   xmlns:sodipodi="http://sodipodi.sourceforge.net/DTD/sodipodi-0.dtd"
   xmlns:inkscape="http://www.inkscape.org/namespaces/inkscape"
   viewBox="0 0 16 16"
   id="svg2"
   version="1.1"
   inkscape:version="0.91 r13725"
   sodipodi:docname="view-list-symbolic.svg">
  <metadata
     id="metadata10">
    <rdf:RDF>
      <cc:Work
         rdf:about="">
        <dc:format>image/svg+xml</dc:format>
        <dc:type
           rdf:resource="http://purl.org/dc/dcmitype/StillImage" />
      </cc:Work>
    </rdf:RDF>
  </metadata>
  <sodipodi:namedview
     pagecolor="#ffffff"
     bordercolor="#666666"
     borderopacity="1"
     objecttolerance="10"
     gridtolerance="10"
     guidetolerance="10"
     inkscape:pageopacity="0"
     inkscape:pageshadow="2"
     inkscape:window-width="640"
     inkscape:window-height="480"
     id="namedview8"
     showgrid="false"
     inkscape:zoom="28.151689"
     inkscape:cx="2.4281924"
     inkscape:cy="5.9860449"
     inkscape:current-layer="svg2" />
  <defs
     id="defs3051">
    <style
       type="text/css"
       id="current-color-scheme">
      .ColorScheme-Text {
        color:#bebebe;
      }
      </style>
    <style
       id="current-color-scheme-3"
       type="text/css">
      .ColorScheme-Text {
        color:#4d4d4d
      }
      </style>
    <style
       id="current-color-scheme-35"
       type="text/css">
      .ColorScheme-Text {
        color:#4d4d4d
      }
      </style>
  </defs>
  <path
     inkscape:connector-curvature="0"
     id="path3207"
     d="M 2.7996827,2.6376347 C 2.0817171,2.6376347 1.5000081,3.2193437 1.5,3.9373173 1.5000081,4.6552911 2.0817171,5.237 2.7996827,5.237 3.5176482,5.237 4.099357,4.6552911 4.0993653,3.9373173 4.0993571,3.2193437 3.5176482,2.6376347 2.7996827,2.6376347 Z"
     style="fill:#bebebe;fill-opacity:1;stroke:none" />
  <path
     inkscape:connector-curvature="0"
     id="path3205"
     d="m 5.5625,3.1248173 c -0.4430969,0 -0.8125,0.3694032 -0.8125,0.8125 0,0.443105 0.3694031,0.8125 0.8125,0.8125 l 8.125,0 c 0.443105,0 0.8125,-0.369395 0.8125,-0.8125 0,-0.4430968 -0.369395,-0.8124919 -0.8125,-0.8125 l -8.125,0 z"
     style="fill:#bebebe;fill-opacity:1;stroke:none" />
  <path
     inkscape:connector-curvature="0"
     id="path3203"
     d="M 2.7996827,6.7001351 C 2.0817089,6.7001351 1.5,7.281844 1.5,7.9998177 1.5,8.7177915 2.0817089,9.2995 2.7996827,9.2995 c 0.7179737,0 1.2996826,-0.5817085 1.2996826,-1.2996824 0,-0.7179737 -0.5817089,-1.2996825 -1.2996826,-1.2996825 z"
     style="fill:#bebebe;fill-opacity:1;stroke:none" />
  <path
     inkscape:connector-curvature="0"
     id="path3201"
     d="m 5.5625,7.1873177 c -0.4430969,0 -0.8125,0.3693949 -0.8125,0.8125 0,0.4430969 0.3694031,0.8125 0.8125,0.8125 l 8.125,0 c 0.443105,0 0.8125,-0.3694031 0.8125,-0.8125 0,-0.4431051 -0.369395,-0.8125 -0.8125,-0.8125 l -8.125,0 z"
     style="fill:#bebebe;fill-opacity:1;stroke:none" />
  <path
     inkscape:connector-curvature="0"
     id="path3199"
     d="M 2.7996827,10.762635 C 2.0817089,10.762635 1.5,11.344344 1.5,12.062317 1.5,12.780291 2.0817089,13.362 2.7996827,13.362 c 0.7179737,0 1.2996826,-0.581709 1.2996826,-1.299683 0,-0.717973 -0.5817089,-1.299682 -1.2996826,-1.299682 z"
     style="fill:#bebebe;fill-opacity:1;stroke:none" />
  <path
     inkscape:connector-curvature="0"
     id="path6-5"
     d="m 5.5625,11.249817 c -0.4430969,0 -0.8125,0.369395 -0.8125,0.8125 0,0.443098 0.3694031,0.8125 0.8125,0.8125 l 8.125,0 c 0.443105,0 0.8125,-0.369402 0.8125,-0.8125 0,-0.443105 -0.369395,-0.8125 -0.8125,-0.8125 l -8.125,0 z"
     style="fill:#bebebe;fill-opacity:1;stroke:none" />
</svg>
