<svg xmlns="http://www.w3.org/2000/svg" viewBox="0 0 16 16">
  <path fill="#bebebe" d="M6.4 3c-.22 0-.436.071-.646.213a1.13 1.13 0 0 0-.436.508L5 4.538H3.6c-.442 0-.82.15-1.132.45A1.46 1.46 0 0 0 2 6.077v5.386c0 .425.156.787.468 1.087.313.3.69.451 1.132.451h8.8c.442 0 .82-.15 1.132-.45.312-.301.468-.663.468-1.088V6.076c0-.425-.156-.787-.468-1.087-.313-.3-.69-.45-1.132-.45H11l-.318-.818a1.129 1.129 0 0 0-.436-.508A1.141 1.141 0 0 0 9.6 3zM8 6.078c.77 0 1.43.262 1.977.79.548.526.823 1.16.823 1.902 0 .741-.275 1.374-.823 1.9A2.75 2.75 0 0 1 8 11.463a2.75 2.75 0 0 1-1.977-.791C5.475 10.144 5.2 9.51 5.2 8.77c0-.741.275-1.376.823-1.903A2.75 2.75 0 0 1 8 6.077zm0 .96c-.496 0-.92.17-1.272.508a1.637 1.637 0 0 0-.527 1.224c0 .477.175.884.527 1.222.353.339.776.508 1.272.508s.92-.17 1.272-.508.527-.745.527-1.222-.175-.886-.527-1.224A1.768 1.768 0 0 0 8 7.038z"/>
</svg>
