<svg xmlns="http://www.w3.org/2000/svg" viewBox="0 0 16 16">
  <path fill="#bebebe" d="M8 2a1.497 1.497 0 0 0-1.5 1.5A1.495 1.495 0 0 0 8 5a1.491 1.491 0 0 0 1.5-1.5A1.495 1.495 0 0 0 8 2zM3.5 2A1.494 1.494 0 0 0 2 3.5 1.491 1.491 0 0 0 3.5 5 1.494 1.494 0 0 0 5 3.5 1.494 1.494 0 0 0 3.5 2zM12.5 2A1.497 1.497 0 0 0 11 3.5 1.495 1.495 0 0 0 12.5 5 1.492 1.492 0 0 0 14 3.5 1.495 1.495 0 0 0 12.5 2zM3.5 11A1.491 1.491 0 0 0 2 12.5 1.495 1.495 0 0 0 3.5 14 1.497 1.497 0 0 0 5 12.5 1.495 1.495 0 0 0 3.5 11zM8 11a1.497 1.497 0 0 0-1.5 1.5A1.495 1.495 0 0 0 8 14a1.491 1.491 0 0 0 1.5-1.5A1.495 1.495 0 0 0 8 11zM12.5 11a1.497 1.497 0 0 0-1.5 1.5 1.495 1.495 0 0 0 1.5 1.5 1.492 1.492 0 0 0 1.5-1.5 1.495 1.495 0 0 0-1.5-1.5zM3.5 6.5A1.491 1.491 0 0 0 2 8a1.495 1.495 0 0 0 1.5 1.5A1.497 1.497 0 0 0 5 8a1.495 1.495 0 0 0-1.5-1.5zM8 6.5A1.497 1.497 0 0 0 6.5 8 1.495 1.495 0 0 0 8 9.5 1.491 1.491 0 0 0 9.5 8 1.495 1.495 0 0 0 8 6.5zM12.5 6.5A1.497 1.497 0 0 0 11 8a1.495 1.495 0 0 0 1.5 1.5A1.492 1.492 0 0 0 14 8a1.495 1.495 0 0 0-1.5-1.5z"/>
</svg>
