<?xml version="1.0" encoding="UTF-8" standalone="no"?>
<svg
   xmlns:dc="http://purl.org/dc/elements/1.1/"
   xmlns:cc="http://creativecommons.org/ns#"
   xmlns:rdf="http://www.w3.org/1999/02/22-rdf-syntax-ns#"
   xmlns:svg="http://www.w3.org/2000/svg"
   xmlns="http://www.w3.org/2000/svg"
   xmlns:sodipodi="http://sodipodi.sourceforge.net/DTD/sodipodi-0.dtd"
   xmlns:inkscape="http://www.inkscape.org/namespaces/inkscape"
   viewBox="0 0 16 16"
   id="svg3313"
   version="1.1"
   inkscape:version="0.91 r13725"
   sodipodi:docname="view-sort-ascending-symbolic.svg">
  <metadata
     id="metadata3321">
    <rdf:RDF>
      <cc:Work
         rdf:about="">
        <dc:format>image/svg+xml</dc:format>
        <dc:type
           rdf:resource="http://purl.org/dc/dcmitype/StillImage" />
      </cc:Work>
    </rdf:RDF>
  </metadata>
  <sodipodi:namedview
     pagecolor="#ffffff"
     bordercolor="#666666"
     borderopacity="1"
     objecttolerance="10"
     gridtolerance="10"
     guidetolerance="10"
     inkscape:pageopacity="0"
     inkscape:pageshadow="2"
     inkscape:window-width="640"
     inkscape:window-height="480"
     id="namedview3319"
     showgrid="false"
     inkscape:zoom="39.8125"
     inkscape:cx="6.0910518"
     inkscape:cy="8"
     inkscape:current-layer="svg3313" />
  <defs
     id="defs3051">
    <style
       type="text/css"
       id="current-color-scheme">
      .ColorScheme-Text {
        color:#bebebe;
      }
      </style>
  </defs>
  <path
     style="color:#bebebe;fill:currentColor;fill-opacity:1;stroke:none"
     class="ColorScheme-Text"
     d="M 3.2687225,2.9252203 C 2.5731665,2.9252203 2,3.4983868 2,4.1939427 c 0,0.695556 0.5731665,1.2687225 1.2687225,1.2687225 0.6955559,0 1.2687224,-0.5731665 1.2687224,-1.2687225 0,-0.6955559 -0.5731665,-1.2687224 -1.2687224,-1.2687224 z m 4.6519824,0.8458149 0,3.3832599 -2.5903084,0 L 9.6123348,13.075 14,7.1542951 l -2.696035,0 0,-3.3832599 -3.3832601,0 z M 3.2687225,6.3084802 C 2.5731665,6.3084802 2,6.8816467 2,7.5772027 c 0,0.6955559 0.5731665,1.2687224 1.2687225,1.2687224 0.6955559,0 1.2687224,-0.5731665 1.2687224,-1.2687224 0,-0.695556 -0.5731665,-1.2687225 -1.2687224,-1.2687225 z m 0,3.3832598 C 2.5731665,9.69174 2,10.264907 2,10.960463 c 0,0.695556 0.5731665,1.268722 1.2687225,1.268722 0.6955559,0 1.2687224,-0.573166 1.2687224,-1.268722 0,-0.695556 -0.5731665,-1.268723 -1.2687224,-1.268723 z"
     id="path3317"
     inkscape:connector-curvature="0" />
</svg>
