<?xml version="1.0" encoding="UTF-8" standalone="no"?>
<svg
   xmlns:dc="http://purl.org/dc/elements/1.1/"
   xmlns:cc="http://creativecommons.org/ns#"
   xmlns:rdf="http://www.w3.org/1999/02/22-rdf-syntax-ns#"
   xmlns:svg="http://www.w3.org/2000/svg"
   xmlns="http://www.w3.org/2000/svg"
   xmlns:sodipodi="http://sodipodi.sourceforge.net/DTD/sodipodi-0.dtd"
   xmlns:inkscape="http://www.inkscape.org/namespaces/inkscape"
   viewBox="0 0 16 16"
   id="svg2"
   version="1.1"
   inkscape:version="0.91 r13725"
   sodipodi:docname="window-close.svg"
   width="16"
   height="16">
  <metadata
     id="metadata10">
    <rdf:RDF>
      <cc:Work
         rdf:about="">
        <dc:format>image/svg+xml</dc:format>
        <dc:type
           rdf:resource="http://purl.org/dc/dcmitype/StillImage" />
        <dc:title></dc:title>
      </cc:Work>
    </rdf:RDF>
  </metadata>
  <sodipodi:namedview
     pagecolor="#ffffff"
     bordercolor="#666666"
     borderopacity="1"
     objecttolerance="10"
     gridtolerance="10"
     guidetolerance="10"
     inkscape:pageopacity="0"
     inkscape:pageshadow="2"
     inkscape:window-width="640"
     inkscape:window-height="480"
     id="namedview8"
     showgrid="false"
     inkscape:zoom="29.954545"
     inkscape:cx="5.0576631"
     inkscape:cy="11"
     inkscape:current-layer="svg2" />
  <defs
     id="defs3051">
    <style
       type="text/css"
       id="current-color-scheme">
      .ColorScheme-NegativeText {
        color:#da4453;
      }
      </style>
    <style
       id="current-color-scheme-6"
       type="text/css">
      .ColorScheme-Text {
        color:#bebebe;
      }
      </style>
  </defs>
  <path
     inkscape:connector-curvature="0"
     id="path3433"
     d="M 7.9999997,1.9999995 A 5.9999998,5.9999998 0 0 0 2,7.9999995 5.9999998,5.9999998 0 0 0 7.9999997,14 5.9999998,5.9999998 0 0 0 14,7.9999995 a 5.9999998,5.9999998 0 0 0 -6.0000003,-6 z m -2.0428428,3 C 6.6535721,5.6577897 7.3194078,6.3476777 7.9999997,7.0216729 8.6805857,6.3476432 9.3464337,5.6578517 10.042843,4.9999995 L 11,5.9571567 C 10.342183,6.6535991 9.6523347,7.319394 8.9783263,7.9999995 9.6523547,8.6805855 10.342148,9.346434 11,10.042843 L 10.042843,11 C 9.3463987,10.342182 8.680606,9.652335 7.9999997,8.978327 7.3194147,9.652355 6.6535659,10.342148 5.9571569,11 L 4.9999997,10.042843 C 5.6578176,9.346399 6.3476643,8.6806055 7.0216731,7.9999995 6.3476438,7.3194144 5.6578515,6.6535655 4.9999997,5.9571567 L 5.9571569,4.9999995 Z"
     class="ColorScheme-Text"
     style="color:#bebebe;fill:#da4453;fill-opacity:1;stroke:none" />
</svg>
