<svg xmlns="http://www.w3.org/2000/svg" viewBox="0 0 16 16">
  <path fill="#bebebe" d="M13.316 4.351c.503-.672.804-1.37.805-1.87a.691.691 0 0 0-.095-.381.305.305 0 0 0-.055-.072.32.32 0 0 0-.065-.05.68.68 0 0 0-.387-.098c-.498 0-1.197.301-1.87.805-.543.407-1.087.98-1.84 1.773l-.404.425c-2.714-.794-2.74-.822-5.38-1.612a.393.393 0 0 0-.38.096l-.52.521a.307.307 0 0 0-.092.215.3.3 0 0 0 .159.268l3.117 1.742a.47.47 0 0 1 .076.057l.889.889a35.217 35.217 0 0 0-2.15 2.462l-.155.202-2.411-.22a.445.445 0 0 0-.34.121l-.244.244a.296.296 0 0 0 .082.488l1.697.805a.396.396 0 0 1 .065.047l.141.14a1.03 1.03 0 0 0-.068.326c0 .126.04.234.119.312l.006.005.001.002a.43.43 0 0 0 .312.117c.093-.002.2-.024.324-.068l.143.143a.387.387 0 0 1 .044.064l.804 1.693a.3.3 0 0 0 .27.178h.003c.08 0 .156-.032.214-.09l.249-.25a.444.444 0 0 0 .118-.329l-.22-2.42.202-.155a35.159 35.159 0 0 0 2.461-2.15l.89.891a.477.477 0 0 1 .058.076l1.738 3.113a.302.302 0 0 0 .485.07l.525-.524a.398.398 0 0 0 .094-.376c-.865-2.919-.866-2.886-1.613-5.38.15-.145.294-.281.43-.41.792-.75 1.363-1.292 1.768-1.835z"/>
</svg>
