<svg enable-background="new" height="16" width="16" xmlns="http://www.w3.org/2000/svg">
  <path d="m2.5175781 4.4902344c-.2858733 0-.5175781.2325481-.5175781.5175781v5.9843755c0 .286304.2317048.517578.5175781.517578h10.0410159c.28628 0 .517578-.231704.517578-.517578v-1.0625005h.40625c.286289 0 .517578-.2304501.517578-.5175781v-2.7792969c.000446-.286285-.231291-.5195312-.517578-.5195313h-.40625v-1.1054687c0-.28503-.231275-.5175781-.517578-.5175781zm4.6621094 1.7285156h.0175781l1.1035156 2.0800781 2.9414068-1.2460937-3.1894536 2.9160156-1.1054688-2.0820312-2.9414062 1.2460937z" fill="#bebebe" stroke-width=".70935" />
</svg>
