<svg enable-background="new" height="16" width="16" xmlns="http://www.w3.org/2000/svg">
  <g fill="#bebebe">
    <path d="m3.3476551 5.3300778h8.1093759c.251831 0 .457032.201294.457031.4531251v4.4335941c0 .25183-.2052.453125-.457031.453125h-8.1093759c-.2518312 0-.4531243-.201295-.4531252-.453125v-4.4335941c0-.2518311.201294-.4531251.4531252-.4531251z" fill-opacity=".156863" stroke-width=".857143" />
    <g enable-background="new">
      <path d="m7.1796857 6.2195155h.01758l1.103516 2.080078 2.9414073-1.246094-3.1894543 2.916016-1.105469-2.082031-2.9414057 1.246093z" fill-opacity=".666667" stroke-width=".70935" />
      <path d="m2.5175771 4.4902341c-.2858733 0-.5175781.2325481-.5175781.5175781v5.9843758c0 .286305.2317048.517578.5175781.517578h10.0410169c.286279 0 .517578-.231703.517578-.517578v-1.0625007h.40625c.286289 0 .517578-.23045.517578-.517578v-2.7792968c.000446-.2862852-.231292-.5195313-.517578-.5195313h-.40625v-1.105469c0-.28503-.231276-.5175781-.517578-.5175781zm.830078.8398437h8.1093759c.251831 0 .457032.201294.457031.4531251v4.4335941c0 .25183-.2052.453125-.457031.453125h-8.1093759c-.2518312 0-.4531243-.201295-.4531252-.453125v-4.4335941c0-.2518311.201294-.4531251.4531252-.4531251z" stroke-width=".857143" />
    </g>
    <path d="m7.1796857 6.2195155h.01758l1.103516 2.080078 2.9414073-1.246094-3.1894543 2.916016-1.105469-2.082031-2.9414057 1.246093z" fill-opacity=".666667" stroke-width=".70935" />
  </g>
</svg>
