<svg enable-background="new" height="16" width="16" xmlns="http://www.w3.org/2000/svg">
  <g fill="#bebebe">
    <path d="m3.1607716 5.2334331h8.4110894c.261201 0 .474037.2085226.474036.469397v4.5928089c0 .260873-.212835.469397-.474036.469397h-8.4110894c-.2612006 0-.4699829-.208524-.4699838-.469397v-4.5928089c0-.2608744.2087832-.469397.4699838-.469397z" fill-opacity=".156863" stroke-width=".888478" />
    <path d="m5.8125 5.328125v.00195l1.59375-.00195z" fill-opacity=".666667" stroke-width=".709339" />
    <path d="m2.5175776 4.489469c-.2858733 0-.5175781.232548-.5175781.517578v5.984376c0 .286305.2317048.517577.5175781.517577h10.0410174c.28628 0 .517578-.231702.517578-.517577v-1.062501h.40625c.286289 0 .517579-.23045.517579-.517578v-2.779297c.000446-.286285-.231292-.519531-.517579-.519531h-.40625v-1.105469c0-.28503-.231275-.517578-.517578-.517578zm.8300779.839843h8.1093765c.251831 0 .457033.201294.457032.453125v4.433595c0 .251829-.205201.453125-.457032.453125h-8.1093765c-.2518311 0-.4531242-.201296-.4531251-.453125v-4.433595c0-.251831.201294-.453125.4531251-.453125z" stroke-width=".857143" />
  </g>
</svg>
