<svg enable-background="new" height="16" width="16" xmlns="http://www.w3.org/2000/svg">
  <g enable-background="new" fill="#bebebe" transform="translate(-2.98305 -10.238054)">
    <path d="m5.5006276 14.727523c-.2858733 0-.5175781.232548-.5175781.517578v5.984376c0 .286305.2317048.517577.5175781.517577h10.0410174c.28628 0 .517578-.231702.517578-.517577v-1.062501h.40625c.286289 0 .517579-.23045.517579-.517578v-2.779297c.000446-.286285-.231292-.519531-.517579-.519531h-.40625v-1.105469c0-.28503-.231275-.517578-.517578-.517578zm.8300779.839843h8.1093765c.251831 0 .457033.201294.457032.453125v4.433595c0 .251829-.205201.453125-.457032.453125h-8.1093765c-.2518311 0-.4531242-.201296-.4531251-.453125v-4.433595c0-.251831.201294-.453125.4531251-.453125z" stroke-width=".857143" />
    <path d="m10.376953 15.56621-4.2711368.002c-.1271082 0-.2288631.201293-.2288631.453125v4.433594c.0000002.251832.1017568.453131.2288631.453125h4.2711368z" fill-opacity=".666667" stroke-width=".608955" />
    <path d="m10.348226 15.568132v5.339844h4.068258c.26911.000006.484534-.201298.484534-.453125v-4.433594c0-.251829-.215433-.453125-.484534-.453125z" fill-opacity=".156863" stroke-width=".886038" />
    <path d="m5.8125 5.328125v.0019531l1.59375-.0019531z" fill-opacity=".666667" stroke-width=".709339" transform="translate(2.98305 10.238054)" />
  </g>
</svg>
