<svg enable-background="new" height="16" width="16" xmlns="http://www.w3.org/2000/svg">
  <g enable-background="new" transform="translate(-2.98305 -10.238054)">
    <path d="m7.6769526 15.566406-1.708454.002c-.050842 0-.091546.201293-.091546.453125v4.433594c.0000002.251832.040702.453131.091546.453125h1.708454z" fill="#d33636" fill-opacity=".666667" stroke-width=".385137" />
    <g fill="#bebebe">
      <path d="m7.6754351 15.568132v5.339844h6.4565949c.427096.000006.768988-.201298.768988-.453125v-4.433594c0-.251829-.341907-.453125-.768988-.453125z" fill-opacity=".156863" stroke-width="1.116221" />
      <path d="m5.5006276 14.727523c-.2858733 0-.5175781.232548-.5175781.517578v5.984376c0 .286305.2317048.517577.5175781.517577h10.0410174c.28628 0 .517578-.231702.517578-.517577v-1.062501h.40625c.286289 0 .517579-.23045.517579-.517578v-2.779297c.000446-.286285-.231292-.519531-.517579-.519531h-.40625v-1.105469c0-.28503-.231275-.517578-.517578-.517578zm.8300779.839843h8.1093765c.251831 0 .457033.201294.457032.453125v4.433595c0 .251829-.205201.453125-.457032.453125h-8.1093765c-.2518311 0-.4531242-.201296-.4531251-.453125v-4.433595c0-.251831.201294-.453125.4531251-.453125z" stroke-width=".857143" />
      <path d="m5.8125 5.328125v.0019531l1.59375-.0019531z" fill-opacity=".666667" stroke-width=".709339" transform="translate(2.98305 10.238054)" />
    </g>
  </g>
</svg>
