<svg enable-background="new" height="16" width="16" xmlns="http://www.w3.org/2000/svg">
  <path d="m12 5.328125-8.794922.0019c-.172474 0-.310547.201293-.310547.453125v4.433594c0 .251832.138073.453131.310547.453125h8.794922zm-4.820312.890625h.01758l1.103513 2.080079 2.941407-1.246094-3.189454 2.916015-1.105468-2.082031-2.941407 1.246094z" fill="#d33636" fill-opacity=".666667" stroke-width=".70935" />
  <path d="m2.517578 4.489469c-.285873 0-.517578.232548-.517578.517578v5.984376c0 .286305.231705.517577.517578.517577h10.041017c.28628 0 .517578-.231702.517578-.517577v-1.062501h.40625c.286289 0 .517579-.23045.517579-.517578v-2.779297c.000446-.286285-.231292-.519531-.517579-.519531h-.40625v-1.105469c0-.28503-.231275-.517578-.517578-.517578zm.830078.839843h8.109376c.251831 0 .457033.201294.457032.453125v4.433595c0 .251829-.205201.453125-.457032.453125h-8.109376c-.251831 0-.453124-.201296-.453125-.453125v-4.433595c0-.251831.201294-.453125.453125-.453125z" fill="#bebebe" stroke-width=".857143" />
</svg>
