<svg enable-background="new" height="16" width="16" xmlns="http://www.w3.org/2000/svg">
  <g fill="#bebebe">
    <path d="m12 5.328125-8.7949219.0019531c-.1724744 0-.3105469.201293-.3105469.453125v4.4335939c.0000001.251832.1380725.453131.3105469.453125h8.7949219zm-4.8203125.890625h.0175781l1.1035156 2.0800781 2.9414068-1.2460937-3.1894536 2.9160156-1.1054688-2.0820312-2.9414062 1.2460937z" fill-opacity=".666667" stroke-width=".70935" />
    <path d="m2.5175781 4.489469c-.2858733 0-.5175781.232548-.5175781.517578v5.984376c0 .286305.2317048.517577.5175781.517577h10.0410169c.28628 0 .517578-.231702.517578-.517577v-1.062501h.40625c.286289 0 .517579-.23045.517579-.517578v-2.779297c.000446-.286285-.231292-.519531-.517579-.519531h-.40625v-1.105469c0-.28503-.231275-.517578-.517578-.517578zm.8300779.839843h8.109376c.251831 0 .457033.201294.457032.453125v4.433595c0 .251829-.205201.453125-.457032.453125h-8.109376c-.2518311 0-.4531242-.201296-.4531251-.453125v-4.433595c0-.251831.201294-.453125.4531251-.453125z" stroke-width=".857143" />
  </g>
</svg>
