<svg enable-background="new" height="16" width="16" xmlns="http://www.w3.org/2000/svg">
  <g fill="#bebebe" transform="matrix(.44667783 0 0 .44667783 18.943601 5.724589)">
    <path d="m5 5.3300781v5.3398439h6.457031c.251831 0 .457031-.201295.457031-.453125v-4.4335939c.000001-.2518311-.2052-.453125-.457031-.453125z" fill-opacity=".156863" stroke-width=".857143" transform="matrix(2.23875 0 0 2.23875 -42.409987 -12.815923)" />
    <path d="m-35.235387-.88539005 4.01915-.00068319v11.95582424l-4.01915.000683c-.386127.000066-.695622-.451896-.695622-1.015683v-9.92445705c0-.563787.309495-1.015684.695622-1.015684z" fill-opacity=".666667" stroke-width="1.588058" />
    <path d="m-36.773759-2.765126c-.639999 0-1.158728.520617-1.158728 1.158728v13.397522c0 .640965.518729 1.158727 1.158728 1.158727h22.479327c.640907 0 1.158727-.518725 1.158727-1.158727v-2.378674h.909493c.640929 0 1.158727-.51592 1.158727-1.1587278v-6.2221507c.001-.640921-.517805-1.16310085-1.158727-1.16310085h-.909493v-2.47486865c0-.638111-.517769-1.158728-1.158727-1.158728zm1.858337 1.88019995h18.154865c.563787 0 1.023181.450647 1.023179 1.014434v9.92570905c0 .563784-.459392 1.014434-1.023179 1.014434h-18.154865c-.563787 0-1.014432-.45065-1.014434-1.014434v-9.92570905c0-.563787.450647-1.014434 1.014434-1.014434z" stroke-width="1.918929" />
  </g>
</svg>
