<svg enable-background="new" height="16" width="16" xmlns="http://www.w3.org/2000/svg">
  <g enable-background="new" transform="translate(-2.98305 -10.238054)">
    <path d="m6.7769529 15.566406-.8542273.002c-.025421 0-.045773.201293-.045773.453125v4.433594c.0000001.251832.020351.453131.045773.453125h.8542273z" fill="#d33636" fill-opacity=".666667" stroke-width=".272333" />
    <g fill="#bebebe">
      <path d="m6.7694545 15.568132v5.339844h7.2661555c.480648.000006.865408-.201298.865408-.453125v-4.433594c0-.251829-.384777-.453125-.865408-.453125z" fill-opacity=".156863" stroke-width="1.184133" />
      <path d="m5.5006276 14.727523c-.2858733 0-.5175781.232548-.5175781.517578v5.984376c0 .286305.2317048.517577.5175781.517577h10.0410174c.28628 0 .517578-.231702.517578-.517577v-1.062501h.40625c.286289 0 .517579-.23045.517579-.517578v-2.779297c.000446-.286285-.231292-.519531-.517579-.519531h-.40625v-1.105469c0-.28503-.231275-.517578-.517578-.517578zm.8300779.839843h8.1093765c.251831 0 .457033.201294.457032.453125v4.433595c0 .251829-.205201.453125-.457032.453125h-8.1093765c-.2518311 0-.4531242-.201296-.4531251-.453125v-4.433595c0-.251831.201294-.453125.4531251-.453125z" stroke-width=".857143" />
      <path d="m5.8125 5.328125v.0019531l1.59375-.0019531z" fill-opacity=".666667" stroke-width=".709339" transform="translate(2.98305 10.238054)" />
    </g>
  </g>
</svg>
