<svg enable-background="new" height="16" width="16" xmlns="http://www.w3.org/2000/svg">
  <g fill="#bebebe">
    <path d="m2.517577 4.4902343c-.285873 0-.517578.232548-.517578.517578v5.9843767c0 .286305.231705.517577.517578.517577h10.041017c.28628 0 .517578-.231702.517578-.517577v-1.0625017h.40625c.286289 0 .517579-.23045.517579-.517578v-2.779297c.000446-.286285-.231292-.519531-.517579-.519531h-.40625v-1.105469c0-.28503-.231275-.517578-.517578-.517578zm.830078.839843h8.109376c.251831 0 .457033.201294.457032.453125v4.4335947c0 .25183-.205201.453126-.457032.453126h-8.109376c-.251831 0-.453124-.201296-.453125-.453126v-4.4335947c0-.251831.201294-.453125.453125-.453125z" stroke-width=".857143" />
    <g fill-rule="evenodd" transform="matrix(.59259259 0 0 .59259259 2.706526 3.259056)">
      <path d="m7.99559 4.624985c.573057 0 1.0385123.164384 1.3974607.4936523.3589478.3231707.5390625.7375548.5390625 1.2436523 0 .2195123-.060525.442359-.1801754.6679688-.1196548.2256096-.226346.3873021-.3208063.4848636-.0881625.0914632-.2141992.21108-.3779295.3574215l-.046875.0454125c-.3841372.3353655-.5771483.6709815-.5771483 1.0063477v.364746h-.8876955v-.4291995c0-.2743897.060525-.5094675.1801755-.7045897.1196498-.201219.3305408-.4362968.6328126-.7045898.1700279-.152439.2896162-.2652081.3588869-.3383788.0755678-.0792683.1475258-.1851896.2167966-.3193359.0755684-.1402439.1142579-.2843226.1142579-.4306641 0-.2804878-.0952597-.5060261-.2841795-.6767578-.1826227-.1707317-.437187-.2563477-.7646482-.2563477-.5415713 0-.9132317.2935404-1.1147464.8789063l-.8129575-.3295921c.132244-.3475609.3599883-.6587152.6811523-.9331054.3274614-.2804879.7427953-.4204102 1.2465824-.4204102z" />
      <path d="m7.985338 10.131333c.1826227 0 .334452.06116.4541018.183106.1259459.12195.1889647.267256.1889647.437988 0 .170731-.063023.317502-.1889647.439452-.1196205.121952-.2714498.183106-.4540726.183106-.1826227 0-.3369442-.06115-.462891-.183106-.1196545-.12195-.1787162-.268721-.1787162-.439452 0-.170732.059063-.316038.1787107-.437988.1259468-.121952.2802683-.183106.4628911-.183106z" />
    </g>
  </g>
</svg>
