<svg enable-background="new" height="16" width="16" xmlns="http://www.w3.org/2000/svg">
  <g fill="#bebebe">
    <path d="m3.1156371 4.9571961h8.8103619c.273599 0 .49654.2268511.496539.5106555v4.9964994c0 .283802-.22294.510656-.496539.510656h-8.8103619c-.2735997 0-.4922929-.226854-.4922938-.510656v-4.9964994c0-.2838044.2186941-.5106555.4922938-.5106555z" fill-opacity=".352941" stroke-width=".948443" />
    <path d="m2.5175769 4.4902345c-.2858733 0-.5175781.232548-.5175781.517578v5.9843765c0 .286305.2317048.517577.5175781.517577h10.0410171c.28628 0 .517578-.231702.517578-.517577v-1.0625015h.40625c.286289 0 .517579-.23045.517579-.517578v-2.779297c.000446-.286285-.231292-.519531-.517579-.519531h-.40625v-1.105469c0-.28503-.231275-.517578-.517578-.517578zm.8300779.839843h8.1093762c.251831 0 .457033.201294.457032.453125v4.4335945c0 .251829-.205201.453125-.457032.453125h-8.1093762c-.2518311 0-.4531242-.201296-.4531251-.453125v-4.4335945c0-.251831.201294-.453125.4531251-.453125z" stroke-width=".857143" />
  </g>
</svg>
