<svg enable-background="new" height="16.000004" width="16" xmlns="http://www.w3.org/2000/svg" xmlns:xlink="http://www.w3.org/1999/xlink">
  <filter id="a" color-interpolation-filters="sRGB">
    <feBlend in2="BackgroundImage" mode="darken" />
  </filter>
  <g fill="#bebebe" transform="matrix(.03188843312 0 0 .03188843312 2.0000143392 2.00000466644)">
    <path d="m299.022 161.265h-185.845v-46.285c0-41.344 33.635-74.979 74.979-74.979 33.758 0 63.513 22.716 72.359 55.241 2.898 10.657 13.888 16.946 24.547 14.05 10.659-2.898 16.949-13.889 14.05-24.548-13.57-49.896-59.196-84.744-110.956-84.744-63.4 0-114.979 51.58-114.979 114.979v46.715c-9.061 1.902-15.888 9.952-15.888 19.571v175.047c0 11.028 8.972 20 20 20h221.733c11.028 0 20-8.972 20-20v-175.047c0-11.029-8.972-20-20-20z" />
    <path d="m215.018 310.912c.408 2.162-1.058 3.931-3.258 3.931h-46.677c-2.2 0-3.666-1.769-3.258-3.931l7.432-39.387c-5.626-5.131-9.157-12.52-9.157-20.734 0-15.495 12.561-28.056 28.056-28.056s28.056 12.561 28.056 28.056c0 7.991-3.346 15.195-8.707 20.305z" />
  </g>
  <g filter="url(#a)" transform="translate(-364.99759 251)" />
</svg>
