<svg xmlns="http://www.w3.org/2000/svg" viewBox="0 0 16 16">
  <path fill="#bebebe" d="M10.283 7.292H5.501V5.816a2.393 2.393 0 0 1 2.39-2.39 2.393 2.393 0 0 1 2.392 2.39zm1.276.014v-1.49A3.671 3.671 0 0 0 7.892 2.15a3.671 3.671 0 0 0-3.667 3.667v1.49a.639.639 0 0 0-.507.624v5.582c0 .352.286.638.638.638h7.07a.639.639 0 0 0 .639-.638V7.93a.639.639 0 0 0-.507-.624zm-2.811 4.759c.013.07-.033.125-.103.125H7.156a.102.102 0 0 1-.104-.125l.237-1.256a.893.893 0 0 1 .603-1.556.894.894 0 0 1 .617 1.542z"/>
</svg>
