<svg xmlns="http://www.w3.org/2000/svg" viewBox="0 0 16 16">
  <path fill="#bebebe" d="M8 1.998A6.002 6.002 0 0 0 1.998 8 6.002 6.002 0 0 0 8 14.002 6.002 6.002 0 0 0 14.002 8 6.002 6.002 0 0 0 8 1.998zm-.005 2.626c.573 0 1.04.164 1.398.493.36.324.54.738.54 1.244 0 .22-.062.443-.18.669-.12.225-.227.387-.322.484a7.2 7.2 0 0 1-.378.358l-.047.046c-.384.335-.578.671-.578 1.007v.364H7.54V8.86c0-.274.06-.51.18-.704.12-.201.33-.437.633-.705.17-.152.29-.265.36-.338.075-.08.147-.185.216-.32a.898.898 0 0 0 .114-.43.868.868 0 0 0-.284-.677c-.182-.173-.436-.258-.764-.258-.542 0-.914.293-1.115.88l-.813-.33a2.3 2.3 0 0 1 .681-.934c.328-.28.743-.42 1.247-.42zm-.01 5.508c.182 0 .334.061.454.183.126.122.189.267.189.438s-.063.317-.19.44a.61.61 0 0 1-.453.183.643.643 0 0 1-.463-.183c-.12-.123-.179-.269-.179-.44s.06-.316.179-.438a.64.64 0 0 1 .463-.183z"/>
</svg>
