<svg enable-background="new" height="16.000004" width="16" xmlns="http://www.w3.org/2000/svg" xmlns:xlink="http://www.w3.org/1999/xlink">
  <filter id="a" color-interpolation-filters="sRGB">
    <feBlend in2="BackgroundImage" mode="darken" />
  </filter>
  <path d="m11 3a8 8 0 0 0 -8 8 8 8 0 0 0 8 8 8 8 0 0 0 8-8 8 8 0 0 0 -8-8zm-.199219 3.5a1 1 0 0 1 1 1 1 1 0 0 1 -1 1 1 1 0 0 1 -.9999998-1 1 1 0 0 1 .9999998-1zm-.107422 3h.212891c.356143 0 .644531.2864351.644531.642578v4.714844c0 .356143-.288388.642578-.644531.642578h-.212891c-.356143 0-.642578-.286435-.642578-.642578v-4.714844c0-.3561429.286435-.642578.642578-.642578z" fill="#bebebe" fill-rule="evenodd" transform="matrix(.7499999975 0 0 -.7499999975 -.25000470679 16.25000477158)" />
  <g filter="url(#a)" transform="translate(-364.99759 251)" />
</svg>
