<svg xmlns="http://www.w3.org/2000/svg" viewBox="0 0 16 16">
  <path fill="#bebebe" d="M7.983 0C6.934.024 5.751.086 4.759.746a.414.414 0 0 0-.073.058c-1.031 1.158-.844 2.693-1.006 3.87l-.012.023c-.186 3.018-.176 6.077.303 9.092v.012c.156.798.673 1.645 1.624 1.865.009.002.015.01.024.012v-.012c1.444.426 3.003.426 4.449.105.749-.166 1.524-.612 1.794-1.422v-.012c.352-.967.345-1.963.448-2.867l.012-.012c.193-2.901.18-5.83-.205-8.73-.054-.412-.14-.864-.352-1.282a2.029 2.029 0 0 0-1.054-.991c-.002-.001.002-.011 0-.012h-.012C9.819.063 8.858.033 8.007 0z"/>
</svg>
