<?xml version="1.0" encoding="UTF-8" standalone="no"?>
<!-- Created with Inkscape (http://www.inkscape.org/) -->

<svg
   xmlns:dc="http://purl.org/dc/elements/1.1/"
   xmlns:cc="http://creativecommons.org/ns#"
   xmlns:rdf="http://www.w3.org/1999/02/22-rdf-syntax-ns#"
   xmlns:svg="http://www.w3.org/2000/svg"
   xmlns="http://www.w3.org/2000/svg"
   xmlns:inkscape="http://www.inkscape.org/namespaces/inkscape"
   version="1.1"
   width="16"
   height="16"
   id="svg3791">
  <defs
     id="defs3793" />
  <metadata
     id="metadata3796">
    <rdf:RDF>
      <cc:Work
         rdf:about="">
        <dc:format>image/svg+xml</dc:format>
        <dc:type
           rdf:resource="http://purl.org/dc/dcmitype/StillImage" />
        <dc:title />
      </cc:Work>
    </rdf:RDF>
  </metadata>
  <g
     id="layer1">
    <g
       transform="translate(-301,-257)"
       id="layer9"
       style="color:#bebebe;fill:#bebebe;fill-opacity:1;fill-rule:nonzero;stroke:none;stroke-width:1;marker:none;visibility:visible;display:inline;overflow:visible;enable-background:accumulate">
      <path
         d="m 308.92,257.09 c -0.5255,-0.0286 -1.0382,0.28305 -1.4375,0.96875 l -6.25,11.594 c -0.53,0.97 0.05,2.35 1.1,2.35 h 13.156 c 0.98172,0 1.9031,-1.1594 1.2188,-2.3438 l -6.32,-11.54 c -0.39872,-0.64617 -0.94325,-1.0026 -1.4688,-1.0312 z m -0.0313,3.9375 c 0.54448,-0.0172 1.0485,0.48677 1.0312,1.0312 v 3.9375 c 0.007,0.52831 -0.47163,1.0142 -1,1.0142 -0.52836,0 -1.0075,-0.48593 -1,-1.0142 v -3.9375 c -0.008,-0.4666 0.3541,-0.91253 0.8125,-1 0.0511,-0.0145 0.10345,-0.025 0.15625,-0.0313 z m -0.9687,6.9688 h 2 v 2 h -2 v -2 z"
         inkscape:connector-curvature="0"
         id="path18112"
         style="color:#bebebe;fill:#bebebe;fill-opacity:1;fill-rule:nonzero;stroke:none;stroke-width:1;marker:none;visibility:visible;display:inline;overflow:visible;enable-background:accumulate" />
    </g>
  </g>
</svg>
