<svg xmlns="http://www.w3.org/2000/svg" viewBox="0 0 16 16">
  <path fill="#bebebe" d="M7.99 2a5.786 5.786 0 0 0-2.324.48c-1.471.633-2.549 1.705-3.181 3.184a5.842 5.842 0 0 0-.471 2.329c0 .814.153 1.597.47 2.336.633 1.479 1.711 2.557 3.182 3.19a5.861 5.861 0 0 0 4.653 0c1.485-.633 2.556-1.714 3.188-3.19.317-.742.479-1.521.479-2.336s-.16-1.586-.48-2.328c-.631-1.476-1.702-2.55-3.186-3.185A5.856 5.856 0 0 0 7.99 2zm.565 2.013v3.812l2.156 1.689c.637.441-.087 1.376-.674.871L7.659 8.531a.56.56 0 0 1-.214-.437V4.013c0-.306.25-.556.555-.556s.555.25.555.556z"/>
</svg>
