<?xml version="1.0" encoding="UTF-8" standalone="no"?>
<!-- Created with Inkscape (http://www.inkscape.org/) -->
<svg id="svg7384" xmlns:rdf="http://www.w3.org/1999/02/22-rdf-syntax-ns#" style="enable-background:new" xmlns="http://www.w3.org/2000/svg" xmlns:osb="http://www.openswatchbook.org/uri/2009/osb" height="16" width="16" version="1.1" xmlns:cc="http://creativecommons.org/ns#" xmlns:dc="http://purl.org/dc/elements/1.1/">
 <metadata id="metadata90">
  <rdf:RDF>
   <cc:Work rdf:about="">
    <dc:format>image/svg+xml</dc:format>
    <dc:type rdf:resource="http://purl.org/dc/dcmitype/StillImage"/>
    <dc:title>Paper Symbolic Icon Theme</dc:title>
   </cc:Work>
  </rdf:RDF>
 </metadata>
 <title id="title8473">Paper Symbolic Icon Theme</title>
 <defs id="defs7386">
  <filter id="filter7554" style="color-interpolation-filters:sRGB">
   <feBlend id="feBlend7556" in2="BackgroundImage" mode="darken"/>
  </filter>
 </defs>
 <g id="layer9" transform="translate(-485 295)">
  <path id="path5064" style="color:#bebebe;text-indent:0;block-progression:tb;text-transform:none;fill:#555" d="m500-292v0.9375 1.0625h-4c-0.5713 0-1 0.4287-1 1v4c0 1.6447-1.3553 3-3 3h-5v-2h5c0.5713 0 1-0.4287 1-1v-4c0-1.6447 1.3553-3 3-3z"/>
  <path id="path5066" style="color:#bebebe;fill:#555;text-transform:none;text-indent:0pt" d="m492-292c0.22957 0 0.44085 0.0438 0.65625 0.0937-0.4813 0.5511-0.86125 1.1776-1.0312 1.9062h-4.625v-2h5zm8 10h-4c-0.22957 0-0.44085-0.0438-0.65625-0.0937 0.4813-0.55115 0.86125-1.1777 1.0312-1.9063h3.625z"/>
  <path id="path5068" style="fill:#555" d="m489-294v6l-4-3z"/>
  <path id="path5070" style="fill:#555" d="m489-286v6l-4-3z"/>
 </g>
</svg>
