<svg enable-background="new" height="16.001" width="16.001" xmlns="http://www.w3.org/2000/svg">
  <g fill="#bebebe" transform="matrix(.08851047057 0 0 .08851047057 3.84046290791 1.9820176625)">
    <path d="m8 1.5c-.6875313 0-1.2760106.2448565-1.765625.734375s-.734375 1.0780937-.734375 1.765625v4c0 .6875313.2448565 1.2762024.734375 1.765625.4895185.489423 1.0780937.734375 1.765625.734375s1.2761065-.244952 1.765625-.734375c.489518-.4894226.734375-1.0780937.734375-1.765625v-4c0-.6875313-.244665-1.2760106-.734375-1.765625-.4895185-.4895185-1.0780937-.734375-1.765625-.734375zm0 .7753906c.4633855 0 .861478.1545861 1.1914062.4628906.3300572.3083651.4941407.6802659.4941407 1.1132813v4.3613281c0 .4330155-.1642131.8030843-.4941407 1.1113282-.3299283.3082431-.7280207.4628906-1.1914062.4628906-.4633856 0-.8595252-.1546475-1.1894531-.4628906-.3299281-.3082439-.4941407-.6783127-.4941407-1.1113282v-4.3613281c0-.4330154.164148-.8049766.4941407-1.1132813.3299926-.3083045.7260675-.4628906 1.1894531-.4628906z" transform="matrix(10.428615 0 0 10.428615 -36.433635 -15.434102)" />
    <path d="m92.38 53.905c-1.03-1.032-2.254-1.548-3.666-1.548s-2.634.516-3.666 1.548-1.548 2.254-1.548 3.666v10.429c0 10.049-3.572 18.643-10.714 25.786-7.141 7.143-15.737 10.714-25.786 10.714s-18.644-3.571-25.787-10.714c-7.142-7.141-10.713-15.737-10.713-25.786v-10.429c0-1.412-.516-2.634-1.548-3.666s-2.253-1.548-3.666-1.548-2.635.516-3.667 1.548-1.548 2.254-1.548 3.666v10.429c0 12.004 4.006 22.446 12.017 31.326s17.91 13.972 29.697 15.275v10.756h-20.857c-1.412 0-2.634.516-3.666 1.548s-1.548 2.254-1.548 3.666c0 1.411.516 2.635 1.548 3.666 1.032 1.032 2.254 1.549 3.666 1.549h52.142c1.412 0 2.636-.517 3.666-1.549 1.033-1.031 1.55-2.255 1.55-3.666 0-1.412-.517-2.634-1.55-3.666-1.03-1.032-2.254-1.548-3.666-1.548h-20.855v-10.756c11.785-1.303 21.684-6.395 29.696-15.275s12.019-19.322 12.019-31.326v-10.429c0-1.412-.517-2.633-1.55-3.666z" />
  </g>
</svg>
