<svg enable-background="new" height="16.001" width="16.001" xmlns="http://www.w3.org/2000/svg">
  <path d="m8 2c-.6346444 0-1.1769544.2258712-1.6289062.6777344-.4519518.4518633-.6777344.996215-.6777344 1.6308594v3.6914062c0 .6346444.2258711 1.1790846.6777344 1.6308594.4518633.4517746.9942618.6777346 1.6289062.6777346s1.1789962-.22596 1.6308594-.6777346c.4518636-.4517748.6777346-.996215.6777346-1.6308594v-3.6914062c0-.6346444-.225694-1.1789076-.6777346-1.6308594-.4518632-.4518632-.996215-.6777344-1.6308594-.6777344zm-3.6914062 4.6152344c-.1250702 0-.2328725.0473255-.3242188.1386718-.091346.091346-.1386719.1992373-.1386719.3242188v.921875c0 1.0625204.3553686 1.9874344 1.0644531 2.773438.7090846.786002 1.5855935 1.236229 2.6289063 1.351562v.953125h-1.8457031c-.1249816 0-.2328725.045369-.3242188.136719-.091346.09135-.1386719.199237-.1386718.324218 0 .124894.0473253.232962.1386718.324219.091346.09135.1992372.136719.3242188.136719h4.6152346c.124981 0 .233049-.045371.324218-.136719.091431-.09126.136719-.199325.136719-.324219 0-.124981-.045283-.232872-.136719-.324218-.091169-.09135-.199237-.136719-.324218-.136719h-1.8457034v-.953125c1.0431358-.115333 1.9177804-.565559 2.6269534-1.351562.709173-.7860036 1.064453-1.7109176 1.064453-2.773438v-.921875c0-.1249815-.045282-.2327839-.136719-.3242188-.09117-.0913459-.199238-.1386718-.324219-.1386718-.124982 0-.232872.0473255-.324218.1386718-.09135.091346-.138672.1992373-.138672.3242188v.921875c0 .8894758-.3151 1.6509488-.947266 2.283203-.6320775.632255-1.3937272.947266-2.283203.947266s-1.6489955-.315011-2.28125-.947266c-.632166-.6320772-.9492187-1.3937272-.9492188-2.283203v-.921875c0-.1249815-.0453723-.2328725-.1367187-.3242188-.091346-.0913459-.1991487-.1386718-.3242187-.1386718z" fill="#bebebe" />
</svg>
