<svg height="16" width="16" xmlns="http://www.w3.org/2000/svg">
  <g fill="#bebebe" transform="translate(-283.00021 -629)">
    <path d="m295.66688 637h-1.33334v-2h1.33334zm0-3.33333h-10.66667v6.66666c0 1.47276 1.19391 2.66667 2.66667 2.66667h4c1.47274 0 2.66666-1.19391 2.66666-2.66667v-2h1.33334c.73637 0 1.33333-.59696 1.33333-1.33333v-2c0-.74-.6-1.33333-1.33333-1.33333z" />
    <path d="m286.60282 630.482s-.1458.10908-.2912.27273c-.14524.16348-.31893.38933-.32139.69986-.002.30445.15695.51985.26266.6772.1057.15735.16404.25422.15944.38182-.009.24106-.36504.47832-.36504.47832l.26769.49007s.63208-.30182.65539-.94825c.0114-.31566-.1435-.54965-.25343-.71329s-.16942-.26-.16867-.36168c.00033-.0661.0767-.21546.18126-.33314.10456-.11769.20811-.19637.20811-.19637z" />
    <path d="m288.60282 630.482s-.1458.10908-.2912.27273c-.14524.16348-.31893.38933-.32139.69986-.002.30445.15695.51985.26266.6772.1057.15735.16404.25422.15944.38182-.009.24106-.36504.47832-.36504.47832l.26769.49007s.63208-.30182.65539-.94825c.0114-.31566-.1435-.54965-.25343-.71329s-.16942-.26-.16867-.36168c.00033-.0661.0767-.21546.18126-.33314.10456-.11769.20811-.19637.20811-.19637z" />
    <path d="m290.60282 630.482s-.1458.10908-.2912.27273c-.14524.16348-.31893.38933-.32139.69986-.002.30445.15695.51985.26266.6772.1057.15735.16404.25422.15944.38182-.009.24106-.36504.47832-.36504.47832l.26769.49007s.63208-.30182.65539-.94825c.0114-.31566-.1435-.54965-.25343-.71329s-.16942-.26-.16867-.36168c.00033-.0661.0767-.21546.18126-.33314.10456-.11769.20811-.19637.20811-.19637z" />
    <path d="m292.60282 630.482s-.1458.10908-.2912.27273c-.14524.16348-.31893.38933-.32139.69986-.002.30445.15695.51985.26266.6772.1057.15735.16404.25422.15944.38182-.009.24106-.36504.47832-.36504.47832l.26769.49007s.63208-.30182.65539-.94825c.0114-.31566-.1435-.54965-.25343-.71329s-.16942-.26-.16867-.36168c.00033-.0661.0767-.21546.18126-.33314.10456-.11769.20811-.19637.20811-.19637z" />
  </g>
</svg>
