<svg height="16" viewBox="0 0 16 16" width="16" xmlns="http://www.w3.org/2000/svg">
  <g fill="#bebebe">
    <circle cx="-21.385248" cy="-12.870956" r="0" transform="matrix(-.06432929 -.99792873 .99792873 -.06432929 0 0)" />
    <text font-family="sans-serif" font-size="35.826031" letter-spacing="0" word-spacing="0" x="-16.888233" xml:space="preserve" y="35.451305">
 
<tspan fill="#bebebe" x="-16.888233" y="35.451305" /> 
</text>
    <circle cx="-7.992786" cy="-50.05843" r="0" transform="matrix(-.06432929 -.99792873 .99792873 -.06432929 0 0)" />
    <text font-family="sans-serif" font-size="20.898512" letter-spacing="0" word-spacing="0" x="-52.602039" xml:space="preserve" y="18.944498">
 
<tspan fill="#bebebe" x="-52.602039" y="18.944498" /> 
</text>
    <path d="m1.1244768 8.3344012 2.623429 3.0206738c.166882.19225.438434.193373.606445.0025.168025-.190696.169007-.501108.0022-.693172l-2.32133-2.6728246 2.338108-2.6534839c.168025-.190773.169006-.5011543.0022-.6932338-.166814-.1921569-.438352-.1932792-.606445-.00251l-2.642468 2.9989558c-.08401.095394-.126216.2205668-.126613.3459742-.00039698.1254693.04109.2510807.124489.3471204z" />
    <path d="m14.875495 7.6655986-2.623429-3.0206737c-.166882-.1922502-.438434-.1933726-.606445-.00251-.168025.1906956-.169007.5011078-.0022.6931718l2.32133 2.6728347-2.338108 2.6534836c-.168025.190773-.169006.501155-.0022.693234.166814.192157.438352.193279.606445.0025l2.642468-2.9989557c.08401-.095394.126216-.2205668.126613-.3459742.000397-.1254693-.04109-.2510807-.124489-.3471204z" />
    <path d="m7.9999858 11.5a3.4999984 3.4999984 0 0 1 -3.5-3.5000001 3.4999984 3.4999984 0 0 1 3.5-3.5 3.4999984 3.4999984 0 0 1 3.5000002 3.5 3.4999984 3.4999984 0 0 1 -3.5000002 3.5000001zm-.0872-1.5312601a.4374998.4374998 0 0 0 .4375-.43749.4374998.4374998 0 0 0 -.4375-.4375.4374998.4374998 0 0 0 -.4375.4375.4374998.4374998 0 0 0 .4375.43749zm-.047-1.31249h.0932c.15581 0 .28198-.12532.28198-.28113v-2.06275c0-.15581-.12617-.28112-.28198-.28112h-.0932c-.15581 0-.28113.12531-.28113.28112v2.06275c0 .15581.12532.28113.28113.28113z" fill-rule="evenodd" />
  </g>
</svg>
