<?xml version="1.0" encoding="UTF-8" standalone="no"?>
<svg
   xmlns:dc="http://purl.org/dc/elements/1.1/"
   xmlns:cc="http://creativecommons.org/ns#"
   xmlns:rdf="http://www.w3.org/1999/02/22-rdf-syntax-ns#"
   xmlns:svg="http://www.w3.org/2000/svg"
   xmlns="http://www.w3.org/2000/svg"
   xmlns:sodipodi="http://sodipodi.sourceforge.net/DTD/sodipodi-0.dtd"
   xmlns:inkscape="http://www.inkscape.org/namespaces/inkscape"
   enable-background="new"
   height="16.000004"
   width="16"
   version="1.1"
   id="svg25"
   sodipodi:docname="network-error-symbolic.svg"
   inkscape:version="1.0.2 (e86c870879, 2021-01-15)">
  <metadata
     id="metadata31">
    <rdf:RDF>
      <cc:Work
         rdf:about="">
        <dc:format>image/svg+xml</dc:format>
        <dc:type
           rdf:resource="http://purl.org/dc/dcmitype/StillImage" />
      </cc:Work>
    </rdf:RDF>
  </metadata>
  <defs
     id="defs29" />
  <sodipodi:namedview
     pagecolor="#ffffff"
     bordercolor="#666666"
     borderopacity="1"
     objecttolerance="10"
     gridtolerance="10"
     guidetolerance="10"
     inkscape:pageopacity="0"
     inkscape:pageshadow="2"
     inkscape:window-width="1920"
     inkscape:window-height="1146"
     id="namedview27"
     showgrid="false"
     inkscape:zoom="47.937489"
     inkscape:cx="5.5298916"
     inkscape:cy="8.1822964"
     inkscape:window-x="0"
     inkscape:window-y="0"
     inkscape:window-maximized="1"
     inkscape:current-layer="svg25" />
  <filter
     id="a"
     color-interpolation-filters="sRGB">
    <feBlend
       in2="BackgroundImage"
       mode="darken"
       id="feBlend2" />
  </filter>
  <path
     d="m 1.12449,8.3343989 2.6234293,3.0206741 c 0.1668814,0.19225 0.4384334,0.193372 0.6064452,0.0025 0.1680249,-0.190696 0.1690066,-0.501108 0.00219,-0.693172 L 2.035227,7.9915726 4.3733346,5.3380886 C 4.5413597,5.1473156 4.5423413,4.8369344 4.375527,4.6448549 4.208713,4.4526979 3.9371746,4.4515756 3.7690818,4.6423484 L 1.1266143,7.6413043 C 1.0426017,7.7366985 1.0003978,7.8618711 1.0000012,7.9872784 0.99960439,8.1127477 1.0410964,8.2383592 1.12449,8.3343989 Z"
     id="path5"
     style="fill:#bebebe;stroke-width:0.0144896" />
  <path
     d="M 14.87551,7.6656011 12.252081,4.6449274 c -0.166882,-0.1922502 -0.438434,-0.1933725 -0.606446,-0.00251 -0.168024,0.1906956 -0.169006,0.5011078 -0.0022,0.6931718 l 2.32133,2.6728346 -2.338108,2.6534832 c -0.168025,0.190773 -0.169006,0.501155 -0.0022,0.693234 0.166814,0.192157 0.438352,0.193279 0.606445,0.0025 L 14.87337,8.3586851 c 0.08401,-0.095394 0.126216,-0.2205668 0.126613,-0.3459741 3.97e-4,-0.1254693 -0.0411,-0.2510808 -0.124489,-0.3471205 z"
     id="path7"
     style="fill:#bebebe;stroke-width:0.0144896" />
  <path
     d="M 8,11.5 A 3.4999984,3.4999984 0 0 1 4.5,8 3.4999984,3.4999984 0 0 1 8,4.5 3.4999984,3.4999984 0 0 1 11.5,8 3.4999984,3.4999984 0 0 1 8,11.5 Z M 7.9128,9.96874 A 0.4374998,0.4374998 0 0 0 8.3503,9.53125 0.4374998,0.4374998 0 0 0 7.9128,9.09375 0.4374998,0.4374998 0 0 0 7.4753,9.53125 0.4374998,0.4374998 0 0 0 7.9128,9.96874 Z M 7.8658,8.65625 H 7.959 c 0.15581,0 0.28198,-0.12532 0.28198,-0.28113 V 6.31237 C 8.24098,6.15656 8.11481,6.03125 7.959,6.03125 H 7.8658 c -0.15581,0 -0.28113,0.12531 -0.28113,0.28112 v 2.06275 c 0,0.15581 0.12532,0.28113 0.28113,0.28113 z"
     fill="#e74c3c"
     fill-rule="evenodd"
     id="path17"
     style="fill:#bebebe" />
</svg>
