<svg enable-background="new" height="16.000004" width="16" xmlns="http://www.w3.org/2000/svg" xmlns:xlink="http://www.w3.org/1999/xlink">
  <filter id="a" color-interpolation-filters="sRGB">
    <feBlend in2="BackgroundImage" mode="darken" />
  </filter>
  <g fill="#bebebe" transform="matrix(.74542958625 0 0 .74542958625 -.20584279738 -768.21824697773)">
    <path d="m12.157347 1046.5548c.01745.093-.04526.1682-.139371.1682h-1.996764c-.094111 0-.1568262-.076-.1393725-.1682l.3179295-1.6849c-.2406715-.2195-.3917217-.5357-.3917217-.887 0-.6628.5373387-1.2002 1.2001897-1.2002.66285 0 1.200189.5374 1.200189 1.2002 0 .3418-.143137.6499-.372472.8686z" />
    <path d="m14.215713 1040.1532h-6.4149539v-1.9801c0-1.7686 1.4388492-3.2074 3.2074779-3.2074 1.768626 0 3.207476 1.4389 3.207476 3.2074zm1.711133.018v-1.9983c0-2.7121-2.206463-4.9187-4.918609-4.9187-2.7121476 0-4.9186118 2.2066-4.9186118 4.9187v1.9983c-.387614.081-.6796621.4259-.6796621.8373v7.4883c0 .4717.3838071.8555.8555666.8555h9.4853693c.471759 0 .855566-.3838.855566-.8555v-7.4883c0-.4114-.292003-.7559-.679619-.8373z" />
  </g>
  <g filter="url(#a)" transform="translate(-364.99759 251)" />
</svg>
