<svg xmlns="http://www.w3.org/2000/svg" viewBox="0 0 16 16">
  <path fill="#bebebe" d="M8 2a3.671 3.671 0 0 0-3.666 3.666v1.49a.639.639 0 0 0-.508.625v5.582c0 .352.287.637.639.637h7.07a.639.639 0 0 0 .639-.637V7.779a.639.639 0 0 0-.506-.623v-1.49A3.671 3.671 0 0 0 8 2zm0 1.275a2.393 2.393 0 0 1 2.391 2.391v1.475H5.609V5.666A2.393 2.393 0 0 1 8 3.275zM8 9c.808-.001 1.203.986.617 1.543l.238 1.27c.013.07-.031.125-.101.125h-1.49a.102.102 0 0 1-.104-.125l.236-1.256C6.788 10.007 7.18 8.996 8 9z"/>
</svg>
