<svg xmlns="http://www.w3.org/2000/svg" viewBox="0 0 16 16">
  <path fill="none" stroke="#bebebe" stroke-linecap="round" stroke-linejoin="round" d="M12 5l2.5 3-2.5 3M4 5L1.5 8 4 11"/>
  <path fill="#bebebe" d="M8 4.5A3.5 3.5 0 0 0 4.5 8 3.5 3.5 0 0 0 8 11.5 3.5 3.5 0 0 0 11.5 8 3.5 3.5 0 0 0 8 4.5zm-.003 1.531c.334 0 .606.096.815.288.209.189.314.43.314.725 0 .128-.035.258-.105.39s-.132.226-.187.283a4.303 4.303 0 0 1-.22.208l-.027.026c-.224.197-.337.393-.337.588v.213h-.518v-.25a.77.77 0 0 1 .105-.411 1.9 1.9 0 0 1 .369-.411 4.22 4.22 0 0 0 .209-.197.79.79 0 0 0 .126-.186.528.528 0 0 0 .067-.251.508.508 0 0 0-.166-.395c-.105-.101-.254-.151-.445-.151-.316 0-.533.171-.65.513l-.474-.192c.077-.203.21-.384.397-.545.191-.163.434-.245.727-.245zm-.006 3.212c.107 0 .195.036.265.107.073.071.11.156.11.255 0 .1-.037.185-.11.256-.07.071-.158.107-.265.107s-.197-.036-.27-.107a.352.352 0 0 1-.104-.256c0-.1.034-.184.104-.255a.373.373 0 0 1 .27-.107z"/>
</svg>
