<svg enable-background="new" height="16" width="16" xmlns="http://www.w3.org/2000/svg" xmlns:xlink="http://www.w3.org/1999/xlink">
  <filter id="a" color-interpolation-filters="sRGB">
    <feBlend in2="BackgroundImage" mode="darken" />
  </filter>
  <g transform="translate(-465.0004 435.00336)">
    <g fill="#bebebe">
      <path d="m470.15102-430.50336c-.89601 0-1.70821.31961-2.35721.83333h4.71934c-.65692-.52121-1.47978-.8321-2.36213-.83333zm-3.15062 5.83333c.68048 1.00426 1.83624 1.66667 3.15062 1.66667 1.28203-.002 2.44393-.64718 3.1358-1.66667zm9.4716 0v.83008h2.5284v-.83008z" opacity=".35" />
      <path d="m468.5004-428.53175c-.831 0-1.5.669-1.5 1.5s.669 1.49999 1.5 1.49999 1.5-.66899 1.5-1.49999-.669-1.5-1.5-1.5z" />
      <path d="m473.0004-428.53175c-.831 0-1.5.669-1.5 1.5s.669 1.49999 1.5 1.49999 1.5-.66899 1.5-1.49999-.669-1.5-1.5-1.5z" />
      <path d="m477.5004-428.53176c-.831 0-1.5.669-1.5 1.5s.669 1.5 1.5 1.5 1.5-.669 1.5-1.5-.669-1.5-1.5-1.5z" />
    </g>
    <g filter="url(#a)" />
  </g>
</svg>
