<svg height="16" viewBox="0 0 16 16" width="16" xmlns="http://www.w3.org/2000/svg">
  <g fill="#bebebe">
    <path d="m345.441 248.292-194.287 194.281c-12.359 12.365-32.397 12.365-44.75 0-12.354-12.354-12.354-32.391 0-44.744l171.914-171.909-171.909-171.903c-12.354-12.359-12.354-32.394 0-44.748 12.354-12.359 32.391-12.359 44.75 0l194.287 194.284c6.177 6.18 9.262 14.271 9.262 22.366 0 8.099-3.091 16.196-9.267 22.373z" transform="matrix(-.01355184598 -.00005601062 -.00004899624 .01549195037 5.81802196769 4.50721868075)" />
    <path d="m345.441 248.292-194.287 194.281c-12.359 12.365-32.397 12.365-44.75 0-12.354-12.354-12.354-32.391 0-44.744l171.914-171.909-171.909-171.903c-12.354-12.359-12.354-32.394 0-44.748 12.354-12.359 32.391-12.359 44.75 0l194.287 194.284c6.177 6.18 9.262 14.271 9.262 22.366 0 8.099-3.091 16.196-9.267 22.373z" transform="matrix(.01355184598 .00005601062 .00004899624 -.01549195037 10.18198803231 11.49277131925)" />
    <circle cx="5.083339" cy="7.999995" r=".875" />
    <circle cx="8.000005" cy="7.999995" r=".875" />
    <circle cx="10.916671" cy="7.999995" r=".875" />
  </g>
</svg>
