<svg enable-background="new" height="16" width="16.000004" xmlns="http://www.w3.org/2000/svg" xmlns:xlink="http://www.w3.org/1999/xlink">
  <filter id="a" color-interpolation-filters="sRGB">
    <feBlend in2="BackgroundImage" mode="darken" />
  </filter>
  <g transform="translate(-445.0004 435.00336)">
    <path d="m457.19594-427.96942a.76190475.76190475 0 0 0 .7619-.76191c0-.42286-.34286-.76191-.7619-.76191a.76190475.76190475 0 0 0 -.76191.76191.76190475.76190475 0 0 0 .76191.76191m2.28571-3.42857a.76190475.76190475 0 0 1 .76191.7619v3.80953a.76190475.76190475 0 0 1 -.76191.7619h-4.57143a.76190475.76190475 0 0 1 -.7619-.7619v-3.80953c0-.42285.34285-.7619.7619-.7619h.38095v-.76191a1.9047619 1.9047619 0 0 1 1.90477-1.90476 1.9047619 1.9047619 0 0 1 1.90476 1.90476v.76191zm-2.28571-1.90476a1.1428571 1.1428571 0 0 0 -1.14286 1.14285v.76191h2.28571v-.76191a1.1428571 1.1428571 0 0 0 -1.14285-1.14285z" fill="#bebebe" stroke-width=".380952" />
    <g filter="url(#a)" />
  </g>
</svg>
