<svg height="16" width="16" xmlns="http://www.w3.org/2000/svg">
  <g font-family="Bitstream Vera Sans">
    <text font-size="12.246201" opacity=".8" x="833.07202" xml:space="preserve" y="-1.885525">
 
<tspan x="833.07202" y="-1.885525" /> 
</text>
    <text font-size="12.246201" opacity=".8" x="856.23792" xml:space="preserve" y="-41.275402">
 
<tspan x="856.23792" y="-41.275402" /> 
</text>
    <text font-size="12.246201" opacity=".8" x="-565.52661" xml:space="preserve" y="-70.355537">
 
<tspan x="-565.52661" y="-70.355537" /> 
</text>
    <text font-size="12.246201" opacity=".8" x="-2328.7019" xml:space="preserve" y="650.46014">
 
<tspan x="-2328.7019" y="650.46014" /> 
</text>
    <text font-size="12.246201" opacity=".8" x="-454.83438" xml:space="preserve" y="-442.89136">
 
<tspan x="-454.83438" y="-442.89136" /> 
</text>
    <text font-size="12.246201" opacity=".8" x="325.97113" xml:space="preserve" y="-842.64233">
 
<tspan x="325.97113" y="-842.64233" /> 
</text>
    <text font-size="12.246201" opacity=".8" x="349.13702" xml:space="preserve" y="-882.03217">
 
<tspan x="349.13702" y="-882.03217" /> 
</text>
    <text font-size="12.246201" opacity=".8" x="-1092.8387" xml:space="preserve" y="-889.00287">
 
<tspan x="-1092.8387" y="-889.00287" /> 
</text>
    <text font-size="12.246201" opacity=".8" x="319.24255" xml:space="preserve" y="-1153.171">
 
<tspan x="319.24255" y="-1153.171" /> 
</text>
    <text font-size="12.246201" opacity=".8" x="1756.0557" xml:space="preserve" y="-547.2735">
 
<tspan x="1756.0557" y="-547.2735" /> 
</text>
    <text font-size="12.246201" opacity=".8" x="1779.2214" xml:space="preserve" y="-586.66345">
 
<tspan x="1779.2214" y="-586.66345" /> 
</text>
    <text font-size="12.246201" opacity=".8" x="337.24585" xml:space="preserve" y="-593.63416">
 
<tspan x="337.24585" y="-593.63416" /> 
</text>
    <text font-size="12.246201" opacity=".8" x="1749.3271" xml:space="preserve" y="-857.80212">
 
<tspan x="1749.3271" y="-857.80212" /> 
</text>
    <text font-size="12.246201" opacity=".8" x="-569.45325" xml:space="preserve" y="-640.12976">
 
<tspan x="-569.45325" y="-640.12976" /> 
</text>
    <text font-size="12.246201" opacity=".8" x="-2332.6282" xml:space="preserve" y="80.685951">
 
<tspan x="-2332.6282" y="80.685951" /> 
</text>
    <text font-size="12.246201" opacity=".8" x="-674.7691" xml:space="preserve" y="170.47653">
 
<tspan x="-674.7691" y="170.47653" /> 
</text>
    <text font-size="12.246201" opacity=".8" x="397.45721" xml:space="preserve" y="-2.760254">
 
<tspan x="397.45721" y="-2.760254" /> 
</text>
    <text font-size="12.246201" opacity=".8" x="420.62314" xml:space="preserve" y="-42.150131">
 
<tspan x="420.62314" y="-42.150131" /> 
</text>
    <text font-size="12.246201" opacity=".8" x="-1021.3526" xml:space="preserve" y="-49.120876">
 
<tspan x="-1021.3526" y="-49.120876" /> 
</text>
    <text font-size="12.246201" opacity=".8" x="390.72867" xml:space="preserve" y="-313.28888">
 
<tspan x="390.72867" y="-313.28888" /> 
</text>
    <text font-size="12.246201" opacity=".8" x="-602.90521" xml:space="preserve" y="-51.74506">
 
<tspan x="-602.90521" y="-51.74506" /> 
</text>
    <text font-size="12.246201" opacity=".8" x="-2366.0806" xml:space="preserve" y="669.07062">
 
<tspan x="-2366.0806" y="669.07062" /> 
</text>
    <text font-size="12.246201" opacity=".8" x="-456.82547" xml:space="preserve" y="-884.68951">
 
<tspan x="-456.82547" y="-884.68951" /> 
</text>
    <text font-size="12.246201" opacity=".8" x="323.98004" xml:space="preserve" y="-1284.4406">
 
<tspan x="323.98004" y="-1284.4406" /> 
</text>
    <text font-size="12.246201" opacity=".8" x="347.1459" xml:space="preserve" y="-1323.8304">
 
<tspan x="347.1459" y="-1323.8304" /> 
</text>
    <text font-size="12.246201" opacity=".8" x="-1094.8298" xml:space="preserve" y="-1330.8011">
 
<tspan x="-1094.8298" y="-1330.8011" /> 
</text>
    <text font-size="12.246201" opacity=".8" x="317.25143" xml:space="preserve" y="-1594.9692">
 
<tspan x="317.25143" y="-1594.9692" /> 
</text>
    <text font-size="12.246201" opacity=".8" x="1754.0645" xml:space="preserve" y="-989.07178">
 
<tspan x="1754.0645" y="-989.07178" /> 
</text>
    <text font-size="12.246201" opacity=".8" x="1777.2302" xml:space="preserve" y="-1028.4617">
 
<tspan x="1777.2302" y="-1028.4617" /> 
</text>
    <text font-size="12.246201" opacity=".8" x="335.25473" xml:space="preserve" y="-1035.4324">
 
<tspan x="335.25473" y="-1035.4324" /> 
</text>
    <text font-size="12.246201" opacity=".8" x="1747.3359" xml:space="preserve" y="-1299.6005">
 
<tspan x="1747.3359" y="-1299.6005" /> 
</text>
    <text font-size="12.246201" opacity=".8" x="-571.4444" xml:space="preserve" y="-1081.928">
 
<tspan x="-571.4444" y="-1081.928" /> 
</text>
    <text font-size="12.246201" opacity=".8" x="-2334.6194" xml:space="preserve" y="-361.11237">
 
<tspan x="-2334.6194" y="-361.11237" /> 
</text>
    <text font-size="12.246201" opacity=".8" x="-676.76025" xml:space="preserve" y="-271.32175">
 
<tspan x="-676.76025" y="-271.32175" /> 
</text>
    <text font-size="12.246201" opacity=".8" x="135.38219" xml:space="preserve" y="-38.401215">
 
<tspan x="135.38219" y="-38.401215" /> 
</text>
    <text font-size="12.246201" opacity=".8" x="158.5481" xml:space="preserve" y="-77.7911">
 
<tspan x="158.5481" y="-77.7911" /> 
</text>
    <text font-size="12.246201" opacity=".8" x="-1069.1355" xml:space="preserve" y="-265.38177">
 
<tspan x="-1069.1355" y="-265.38177" /> 
</text>
    <text font-size="12.246201" opacity=".8" x="-288.33005" xml:space="preserve" y="-665.13275">
 
<tspan x="-288.33005" y="-665.13275" /> 
</text>
    <text font-size="12.246201" opacity=".8" x="-265.16415" xml:space="preserve" y="-704.52264">
 
<tspan x="-265.16415" y="-704.52264" /> 
</text>
    <text font-size="12.246201" opacity=".8" x="-1707.1398" xml:space="preserve" y="-711.49329">
 
<tspan x="-1707.1398" y="-711.49329" /> 
</text>
    <text font-size="12.246201" opacity=".8" x="-295.05856" xml:space="preserve" y="-975.66144">
 
<tspan x="-295.05856" y="-975.66144" /> 
</text>
    <text font-size="12.246201" opacity=".8" x="1141.7545" xml:space="preserve" y="-369.76395">
 
<tspan x="1141.7545" y="-369.76395" /> 
</text>
    <text font-size="12.246201" opacity=".8" x="1164.9203" xml:space="preserve" y="-409.15384">
 
<tspan x="1164.9203" y="-409.15384" /> 
</text>
    <text font-size="12.246201" opacity=".8" x="-277.05533" xml:space="preserve" y="-416.12457">
 
<tspan x="-277.05533" y="-416.12457" /> 
</text>
    <text font-size="12.246201" opacity=".8" x="1135.026" xml:space="preserve" y="-680.2926">
 
<tspan x="1135.026" y="-680.2926" /> 
</text>
    <text font-size="12.246201" opacity=".8" x="-1183.7545" xml:space="preserve" y="-462.62018">
 
<tspan x="-1183.7545" y="-462.62018" /> 
</text>
    <text font-size="12.246201" opacity=".8" x="-2946.9294" xml:space="preserve" y="258.19556">
 
<tspan x="-2946.9294" y="258.19556" /> 
</text>
    <text font-size="14" opacity=".8" transform="matrix(.8747286 0 0 .8747286 -708.01098 -666.1877)" x="-664.2738" xml:space="preserve" y="1159.4154">
 
<tspan x="-664.2738" y="1159.4154" /> 
</text>
    <text font-size="12.246201" opacity=".8" x="833.07202" xml:space="preserve" y="5.112303">
 
<tspan x="833.07202" y="5.112303" /> 
</text>
    <text font-size="12.246201" opacity=".8" x="856.23792" xml:space="preserve" y="-34.277576">
 
<tspan x="856.23792" y="-34.277576" /> 
</text>
    <text font-size="12.246201" opacity=".8" x="-565.52661" xml:space="preserve" y="-63.357712">
 
<tspan x="-565.52661" y="-63.357712" /> 
</text>
    <text font-size="12.246201" opacity=".8" x="-2328.7019" xml:space="preserve" y="657.45795">
 
<tspan x="-2328.7019" y="657.45795" /> 
</text>
    <text font-size="12.246201" opacity=".8" x="-454.83438" xml:space="preserve" y="-435.89352">
 
<tspan x="-454.83438" y="-435.89352" /> 
</text>
    <text font-size="12.246201" opacity=".8" x="325.97113" xml:space="preserve" y="-835.64447">
 
<tspan x="325.97113" y="-835.64447" /> 
</text>
    <text font-size="12.246201" opacity=".8" x="349.13702" xml:space="preserve" y="-875.03436">
 
<tspan x="349.13702" y="-875.03436" /> 
</text>
    <text font-size="12.246201" opacity=".8" x="-1092.8387" xml:space="preserve" y="-882.00507">
 
<tspan x="-1092.8387" y="-882.00507" /> 
</text>
    <text font-size="12.246201" opacity=".8" x="319.24255" xml:space="preserve" y="-1146.1731">
 
<tspan x="319.24255" y="-1146.1731" /> 
</text>
    <text font-size="12.246201" opacity=".8" x="1756.0557" xml:space="preserve" y="-540.2757">
 
<tspan x="1756.0557" y="-540.2757" /> 
</text>
    <text font-size="12.246201" opacity=".8" x="1779.2214" xml:space="preserve" y="-579.66565">
 
<tspan x="1779.2214" y="-579.66565" /> 
</text>
    <text font-size="12.246201" opacity=".8" x="337.24585" xml:space="preserve" y="-586.63629">
 
<tspan x="337.24585" y="-586.63629" /> 
</text>
    <text font-size="12.246201" opacity=".8" x="1749.3271" xml:space="preserve" y="-850.8042">
 
<tspan x="1749.3271" y="-850.8042" /> 
</text>
    <text font-size="12.246201" opacity=".8" x="-569.45325" xml:space="preserve" y="-633.1319">
 
<tspan x="-569.45325" y="-633.1319" /> 
</text>
    <text font-size="12.246201" opacity=".8" x="-2332.6282" xml:space="preserve" y="87.683777">
 
<tspan x="-2332.6282" y="87.683777" /> 
</text>
    <text font-size="12.246201" opacity=".8" x="-674.7691" xml:space="preserve" y="177.47437">
 
<tspan x="-674.7691" y="177.47437" /> 
</text>
    <text font-size="12.246201" opacity=".8" x="397.45721" xml:space="preserve" y="4.237574">
 
<tspan x="397.45721" y="4.237574" /> 
</text>
    <text font-size="12.246201" opacity=".8" x="420.62314" xml:space="preserve" y="-35.152302">
 
<tspan x="420.62314" y="-35.152302" /> 
</text>
    <text font-size="12.246201" opacity=".8" x="-1021.3526" xml:space="preserve" y="-42.123043">
 
<tspan x="-1021.3526" y="-42.123043" /> 
</text>
    <text font-size="12.246201" opacity=".8" x="390.72867" xml:space="preserve" y="-306.29105">
 
<tspan x="390.72867" y="-306.29105" /> 
</text>
    <text font-size="12.246201" opacity=".8" x="-602.90521" xml:space="preserve" y="-44.747231">
 
<tspan x="-602.90521" y="-44.747231" /> 
</text>
    <text font-size="12.246201" opacity=".8" x="-2366.0806" xml:space="preserve" y="676.06848">
 
<tspan x="-2366.0806" y="676.06848" /> 
</text>
    <text font-size="12.246201" opacity=".8" x="-456.82547" xml:space="preserve" y="-877.69171">
 
<tspan x="-456.82547" y="-877.69171" /> 
</text>
    <text font-size="12.246201" opacity=".8" x="323.98004" xml:space="preserve" y="-1277.4427">
 
<tspan x="323.98004" y="-1277.4427" /> 
</text>
    <text font-size="12.246201" opacity=".8" x="347.1459" xml:space="preserve" y="-1316.8328">
 
<tspan x="347.1459" y="-1316.8328" /> 
</text>
    <text font-size="12.246201" opacity=".8" x="-1094.8298" xml:space="preserve" y="-1323.8033">
 
<tspan x="-1094.8298" y="-1323.8033" /> 
</text>
    <text font-size="12.246201" opacity=".8" x="317.25143" xml:space="preserve" y="-1587.9714">
 
<tspan x="317.25143" y="-1587.9714" /> 
</text>
    <text font-size="12.246201" opacity=".8" x="1754.0645" xml:space="preserve" y="-982.07404">
 
<tspan x="1754.0645" y="-982.07404" /> 
</text>
    <text font-size="12.246201" opacity=".8" x="1777.2302" xml:space="preserve" y="-1021.4639">
 
<tspan x="1777.2302" y="-1021.4639" /> 
</text>
    <text font-size="12.246201" opacity=".8" x="335.25473" xml:space="preserve" y="-1028.4346">
 
<tspan x="335.25473" y="-1028.4346" /> 
</text>
    <text font-size="12.246201" opacity=".8" x="1747.3359" xml:space="preserve" y="-1292.6027">
 
<tspan x="1747.3359" y="-1292.6027" /> 
</text>
    <text font-size="12.246201" opacity=".8" x="-571.4444" xml:space="preserve" y="-1074.9302">
 
<tspan x="-571.4444" y="-1074.9302" /> 
</text>
    <text font-size="12.246201" opacity=".8" x="-2334.6194" xml:space="preserve" y="-354.1145">
 
<tspan x="-2334.6194" y="-354.1145" /> 
</text>
    <text font-size="12.246201" opacity=".8" x="-676.76025" xml:space="preserve" y="-264.32388">
 
<tspan x="-676.76025" y="-264.32388" /> 
</text>
    <text font-size="12.246201" opacity=".8" x="135.38219" xml:space="preserve" y="-31.403385">
 
<tspan x="135.38219" y="-31.403385" /> 
</text>
    <text font-size="12.246201" opacity=".8" x="158.5481" xml:space="preserve" y="-70.793274">
 
<tspan x="158.5481" y="-70.793274" /> 
</text>
    <text font-size="12.246201" opacity=".8" x="-1069.1355" xml:space="preserve" y="-258.38391">
 
<tspan x="-1069.1355" y="-258.38391" /> 
</text>
    <text font-size="12.246201" opacity=".8" x="-288.33005" xml:space="preserve" y="-658.13495">
 
<tspan x="-288.33005" y="-658.13495" /> 
</text>
    <text font-size="12.246201" opacity=".8" x="-265.16415" xml:space="preserve" y="-697.52478">
 
<tspan x="-265.16415" y="-697.52478" /> 
</text>
    <text font-size="12.246201" opacity=".8" x="-1707.1398" xml:space="preserve" y="-704.49554">
 
<tspan x="-1707.1398" y="-704.49554" /> 
</text>
    <text font-size="12.246201" opacity=".8" x="-295.05856" xml:space="preserve" y="-968.66351">
 
<tspan x="-295.05856" y="-968.66351" /> 
</text>
    <text font-size="12.246201" opacity=".8" x="1141.7545" xml:space="preserve" y="-362.76614">
 
<tspan x="1141.7545" y="-362.76614" /> 
</text>
    <text font-size="12.246201" opacity=".8" x="1164.9203" xml:space="preserve" y="-402.15604">
 
<tspan x="1164.9203" y="-402.15604" /> 
</text>
    <text font-size="12.246201" opacity=".8" x="-277.05533" xml:space="preserve" y="-409.12674">
 
<tspan x="-277.05533" y="-409.12674" /> 
</text>
    <text font-size="12.246201" opacity=".8" x="1135.026" xml:space="preserve" y="-673.29474">
 
<tspan x="1135.026" y="-673.29474" /> 
</text>
    <text font-size="12.246201" opacity=".8" x="-1183.7545" xml:space="preserve" y="-455.62231">
 
<tspan x="-1183.7545" y="-455.62231" /> 
</text>
    <text font-size="12.246201" opacity=".8" x="-2946.9294" xml:space="preserve" y="265.19339">
 
<tspan x="-2946.9294" y="265.19339" /> 
</text>
    <text font-size="14" opacity=".8" transform="matrix(.8747286 0 0 .8747286 -708.01098 -659.18987)" x="-664.2738" xml:space="preserve" y="1159.4154">
 
<tspan x="-664.2738" y="1159.4154" /> 
</text>
  </g>
  <text font-family="Droid Sans" font-size="12.246201" x="406.39328" xml:space="preserve" y="-361.57919">
 
<tspan x="406.39328" y="-361.57919" /> 
<tspan x="406.39328" y="-346.27145" /> 
</text>
  <text font-family="Bitstream Vera Sans" font-size="12.246201" opacity=".8" x="856.14221" xml:space="preserve" y="-827.62921">
 
<tspan x="856.14221" y="-827.62921" /> 
</text>
  <text font-family="Bitstream Vera Sans" font-size="12.246201" opacity=".8" x="-907.03302" xml:space="preserve" y="-106.81362">
 
<tspan x="-907.03302" y="-106.81362" /> 
</text>
  <text font-family="Bitstream Vera Sans" font-size="12.246201" opacity=".8" x="1559.0968" xml:space="preserve" y="-1103.1688">
 
<tspan x="1559.0968" y="-1103.1688" /> 
</text>
  <text font-family="Bitstream Vera Sans" font-size="12.246201" opacity=".8" x="1582.2626" xml:space="preserve" y="-1142.5586">
 
<tspan x="1582.2626" y="-1142.5586" /> 
</text>
  <text font-family="Bitstream Vera Sans" font-size="12.246201" opacity=".8" x="140.28699" xml:space="preserve" y="-1149.5294">
 
<tspan x="140.28699" y="-1149.5294" /> 
</text>
  <text font-family="Bitstream Vera Sans" font-size="12.246201" opacity=".8" x="1552.3683" xml:space="preserve" y="-1413.6975">
 
<tspan x="1552.3683" y="-1413.6975" /> 
</text>
  <path d="m13.223092 2.0000005-2.295119 2.2951174c-.442297-.6015866-1.0760139-1.0487101-1.8192596-1.2414352.0002812-.00893 0-.016894 0-.025897 0-.4591012-.3696017-.8287025-.8287028-.8287025-.4591012 0-.828702.3696013-.828702.8287025 0 .009-.000282.016966 0 .025897-1.4319927.3713185-2.4861077 1.6682841-2.4861077 3.2371189 0 .017644-.0002652.034215 0 .051794 0 1.6617465.0005725 4.9722144-1.4761262 4.9722144-.098379 0-.1812787.0924-.1812787.207175v.39331l-1.307796 1.307797.77529.776908 11.22471-11.2247097-.776908-.77529zm-1.628272 4.287564-5.8575662 5.8559485h5.8575662 1.476126c.09838 0 .181279-.0924.181279-.207176v-.414352c0-.114774-.0829-.207175-.181279-.207175-1.482476 0-1.476126-3.3107672-1.476126-4.9722144.000266-.017577 0-.034151 0-.051794v-.00324zm-4.8686264 6.6846505c.2264327.484311.8307304.828702 1.553817.828702.7230865 0 1.3273851-.344391 1.5538174-.828702z" fill="#bebebe" opacity=".4" />
</svg>
