<svg xmlns="http://www.w3.org/2000/svg" viewBox="0 0 16 16">
  <path fill="#bebebe" d="M13.223 2l-2.295 2.295a3.28 3.28 0 0 0-1.819-1.241v-.026c0-.459-.37-.829-.829-.829s-.829.37-.829.829v.026a3.326 3.326 0 0 0-2.486 3.237v.052c0 1.662.001 4.972-1.476 4.972-.098 0-.181.092-.181.207v.393L2 13.223l.775.777L14 2.775zm-1.628 4.288l-5.858 5.856h7.334c.098 0 .181-.092.181-.207v-.414c0-.115-.083-.207-.181-.207-1.482 0-1.476-3.311-1.476-4.972v-.055zm-4.869 6.684c.226.484.831.829 1.554.829s1.327-.344 1.554-.829z" opacity=".4"/>
</svg>
