<svg height="16" width="16" xmlns="http://www.w3.org/2000/svg">
  <g transform="matrix(.8 0 0 .8 -1.782553 -1.2)">
    <path d="m13.59377 5.125c-.25424.11867-.45328.33403-.53125.625-.003.0105.002.0208 0 .0312-1.78508-.0144-3.41627 1.17138-3.90625 3-.006.0206-.0261.0419-.0312.0625-.51898 1.93691-1.52877 5.80495-3.25 5.34375-.11466-.0307-.2454.0537-.28125.1875l-.125.46875c-.0358.13378.0103.28177.125.3125l11.1875 2.96875c.11467.0307.24541-.0225.28125-.15625l.125-.5c.0358-.13378-.0416-.25052-.15625-.28125-1.72795-.463-.67515-4.34469-.15625-6.28125.006-.0204-.005-.0419 0-.0625.12115-.45213.15537-.90892.125-1.34375-1.93948 0-3.5-1.56051-3.5-3.5 0-.29885.0235-.59799.0937-.875zm-2.59375 12.5c.0827.77146.95012 1.375 2 1.375.57062 0 1.07313-.18127 1.4375-.46875z" fill="#bebebe" />
    <path d="m19.00002 6a2 2 0 0 1 -4 0 2 2 0 1 1 4 0z" fill="#009dff" />
  </g>
</svg>
