<svg enable-background="new" height="16" width="16" xmlns="http://www.w3.org/2000/svg">
  <path d="m7.9999997.9999997c-.738306.728548-1.442704 1.5656639-2.1931326 2.2813872h-2.5254799v2.5254799c-.7158579.7504577-1.5527431 1.4548079-2.2813872 2.1931331.7286057.7383636 1.5655774 1.4726606 2.2813872 2.2231761v2.497321h2.5254799c.7504576.715858 1.4548076 1.550859 2.1931326 2.279503.738364-.728606 1.472661-1.563693 2.2231763-2.279503l2.495437-.0019v-2.495437c.715858-.7504899 1.552743-1.4848734 2.281387-2.2231986-.728605-.7383636-1.565577-1.4426273-2.281387-2.1931331v-2.5273642l-2.495437.00192c-.7504673-.7158551-1.4848513-1.5527403-2.2231763-2.2813844zm0 3.3009621 2.4635203 3.6952791h-.06009-1.4420603v3.9055791l-1.922747-.03v-3.8755361h-1.4420601-.060086c1.1210769-1.6366468 2.1584659-3.2261912 2.4635189-3.6952741z" fill="#bebebe" />
</svg>
