<svg enable-background="new" height="16" width="16" xmlns="http://www.w3.org/2000/svg">
  <g fill="#bebebe">
    <circle cx="-13.670144" cy="12.540429" r="0" transform="matrix(-.06432929 -.99792873 .99792873 -.06432929 0 0)" />
    <text font-family="sans-serif" font-size="20.898512" letter-spacing="0" word-spacing="0" x="10.232381" xml:space="preserve" y="20.583155">
 
<tspan fill="#bebebe" x="10.232381" y="20.583155" /> 
</text>
    <path d="m2.75 4.999715c-.41378 0-.75.33617-.75.75v3.75c0 .4146.33619.75.75.75h1.5v3.000002c0 .414599.33619.75.75.75h6c.41462 0 .75-.335401.75-.75v-3.000002h1.5c.41447 0 .75-.3354.75-.75v-3.75c0-.41383-.33555-.75-.75-.75zm9.75.75c.41462 0 .75.33619.75.75.00002.41455-.33538.75-.75.75-.4146 0-.75-.33543-.75-.75 0-.41378.3354-.75.75-.75zm-7.5 3.75h5.80257v3.750002h-5.80257zm0-7.5c-.41378 0-.75.33619-.75.75v1.5h.75v-1.5h6v1.5h.75v-1.5c0-.41381-.33538-.75-.75-.75z" />
  </g>
  <path d="m11.35188 14.559a3.4999984 3.4999984 0 0 1 -3.5-3.500005 3.4999984 3.4999984 0 0 1 3.5-3.5 3.4999984 3.4999984 0 0 1 3.5 3.5 3.4999984 3.4999984 0 0 1 -3.5 3.500005zm-.0872-1.53126a.4374998.4374998 0 0 0 .4375-.43749.4374998.4374998 0 0 0 -.4375-.4375.4374998.4374998 0 0 0 -.4375.4375.4374998.4374998 0 0 0 .4375.43749zm-.047-1.31249h.0932c.15581 0 .28198-.12532.28198-.28113v-2.062755c0-.15581-.12617-.28112-.28198-.28112h-.0932c-.15581 0-.28113.12531-.28113.28112v2.062755c0 .15581.12532.28113.28113.28113z" fill="#f67d42" fill-rule="evenodd" />
</svg>
