<svg enable-background="new" height="16" width="16" xmlns="http://www.w3.org/2000/svg">
  <g fill="#bebebe">
    <circle cx="-13.670425" cy="12.540413" r="0" transform="matrix(-.06432929 -.99792873 .99792873 -.06432929 0 0)" />
    <text font-family="sans-serif" font-size="20.898512" letter-spacing="0" word-spacing="0" x="10.232385" xml:space="preserve" y="20.583439">
 
<tspan fill="#bebebe" x="10.232385" y="20.583439" /> 
</text>
    <path d="m2.75 5c-.413782 0-.75.3361685-.75.75v3.75c0 .4145985.3361933.75.75.75h1.5v3c0 .414599.3361933.75.75.75h6c.414623 0 .75-.335401.75-.75v-3h1.5c.414475 0 .75-.3354015.75-.75v-3.75c0-.4138315-.33555-.75-.75-.75zm9.75.75c.414623 0 .75.3361933.75.75.000025.4145487-.335377.75-.75.75-.414598 0-.75-.3354266-.75-.75 0-.4137821.335402-.75.75-.75zm-7.5 3.75h5.802568v3.75h-5.802568zm0-7.5c-.413782 0-.75.3361933-.75.75v1.5h.75v-1.5h6v1.5h.75v-1.5c0-.4138067-.335377-.75-.75-.75z" />
  </g>
  <path d="m11.351877 14.559283a3.4999984 3.4999984 0 0 1 -3.5-3.5 3.4999984 3.4999984 0 0 1 3.5-3.5000006 3.4999984 3.4999984 0 0 1 3.5 3.5000006 3.4999984 3.4999984 0 0 1 -3.5 3.5zm-.0872-1.53126a.4374998.4374998 0 0 0 .4375-.43749.4374998.4374998 0 0 0 -.4375-.4375.4374998.4374998 0 0 0 -.4375.4375.4374998.4374998 0 0 0 .4375.43749zm-.047-1.31249h.0932c.15581 0 .28198-.12532.28198-.28113v-2.0627506c0-.15581-.12617-.28112-.28198-.28112h-.0932c-.15581 0-.28113.12531-.28113.28112v2.0627506c0 .15581.12532.28113.28113.28113z" fill="#e74c3c" fill-rule="evenodd" />
</svg>
