<svg xmlns="http://www.w3.org/2000/svg" viewBox="0 0 16 16">
  <path fill="#bebebe" d="M2.75 5a.75.75 0 0 0-.75.75V9.5c0 .415.336.75.75.75h1.5v3c0 .415.336.75.75.75h6c.415 0 .75-.335.75-.75v-3h1.5A.75.75 0 0 0 14 9.5V5.75a.75.75 0 0 0-.75-.75zm9.75.75a.75.75 0 1 1 0 1.5.75.75 0 0 1 0-1.5zM5 9.5h5.803v3.75H5zM5 2a.75.75 0 0 0-.75.75v1.5H5v-1.5h6v1.5h.75v-1.5A.75.75 0 0 0 11 2z"/>
  <path fill="#f67d42" d="M11.352 14.559a3.5 3.5 0 0 1-3.5-3.5 3.5 3.5 0 0 1 3.5-3.5 3.5 3.5 0 0 1 3.5 3.5 3.5 3.5 0 0 1-3.5 3.5zm-.087-1.531a.437.437 0 0 0 .438-.437.437.437 0 0 0-.438-.438.437.437 0 0 0-.438.438.437.437 0 0 0 .438.437zm-.047-1.312h.093a.28.28 0 0 0 .282-.281V9.372a.28.28 0 0 0-.282-.281h-.093a.28.28 0 0 0-.281.281v2.063a.28.28 0 0 0 .281.281z"/>
</svg>
