<?xml version="1.0" encoding="UTF-8" standalone="no"?>
<!-- Created with Inkscape (http://www.inkscape.org/) -->
<svg id="svg7384" xmlns:rdf="http://www.w3.org/1999/02/22-rdf-syntax-ns#" style="enable-background:new" xmlns="http://www.w3.org/2000/svg" xmlns:osb="http://www.openswatchbook.org/uri/2009/osb" height="16" width="16" version="1.1" xmlns:cc="http://creativecommons.org/ns#" xmlns:dc="http://purl.org/dc/elements/1.1/">
 <metadata id="metadata90">
  <rdf:RDF>
   <cc:Work rdf:about="">
    <dc:format>image/svg+xml</dc:format>
    <dc:type rdf:resource="http://purl.org/dc/dcmitype/StillImage"/>
    <dc:title>Paper Symbolic Icon Theme</dc:title>
   </cc:Work>
  </rdf:RDF>
 </metadata>
 <title id="title8473">Paper Symbolic Icon Theme</title>
 <defs id="defs7386">
  <filter id="filter7554" color-interpolation-filters="sRGB">
   <feBlend id="feBlend7556" in2="BackgroundImage" mode="darken"/>
  </filter>
 </defs>
 <g id="layer9" transform="translate(-465 351)">
  <path id="path6505" style="fill:#555" d="m469-350v2h8v-2h-8zm-2 3c-0.5 0-1 0.5-1 1v4c0 0.5 0.5 1 1 1h1v-2h7v-2h4v4c0.5 0 1-0.5 1-1v-4c0-0.5-0.5-1-1-1h-12zm2 5v5h6v-5h-6z"/>
  <path id="path5140" style="color:#555555;enable-background:accumulate;fill:#f67d42" d="m476-344 0.00001 4 0.25 2h1.5l0.25-2-0.00001-4zm0 7v2h2v-2z" class="warning"/>
 </g>
</svg>
