<svg enable-background="new" height="16" width="16" xmlns="http://www.w3.org/2000/svg">
  <circle cx="-11.076592" cy="-.893684" fill="#bebebe" r="0" transform="matrix(-.06432929 -.99792873 .99792873 -.06432929 0 0)" />
  <text fill="#bebebe" font-family="sans-serif" font-size="20.898512" letter-spacing="0" word-spacing="0" x="-3.340746" xml:space="preserve" y="18.859184">
 
<tspan fill="#bebebe" x="-3.340746" y="18.859184" /> 
</text>
  <path d="m8 14a5.9999973 5.9999973 0 0 1 -6-6 5.9999973 5.9999973 0 0 1 6-6 5.9999973 5.9999973 0 0 1 6 6 5.9999973 5.9999973 0 0 1 -6 6zm-.149484-2.625018a.74999964.74999964 0 0 0 .75-.749982.74999964.74999964 0 0 0 -.75-.75.74999964.74999964 0 0 0 -.75.75.74999964.74999964 0 0 0 .75.749982zm-.080574-2.249982h.159774c.267102 0 .483396-.21486.483396-.48192v-3.536142c0-.26712-.216288-.48192-.483396-.48192h-.159774c-.267102 0-.481938.2148-.481938.48192v3.536142c0 .26712.214836.48192.481938.48192z" fill="#e74c3c" fill-rule="evenodd" />
</svg>
