<svg enable-background="new" height="16" width="16" xmlns="http://www.w3.org/2000/svg">
  <g fill="#bebebe" transform="translate(-560.0002 201)">
    <path d="m568.0002-195.57143c-1.41904 0-2.57143 1.15238-2.57143 2.57143 0 1.41904 1.15239 2.57143 2.57143 2.57143s2.57143-1.15239 2.57143-2.57143c0-1.41905-1.15239-2.57143-2.57143-2.57143z" stroke-width="1.781" />
    <path d="m568.0002-199c-3.30662 0-6 2.69338-6 6s2.69338 6 6 6 6-2.69337 6-6-2.69339-6-6-6zm0 .85714c2.84257 0 5.14286 2.30029 5.14286 5.14286s-2.3003 5.14286-5.14286 5.14286c-2.84258 0-5.14286-2.30028-5.14286-5.14286s2.30028-5.14286 5.14286-5.14286z" />
  </g>
</svg>
