<svg enable-background="new" height="16" width="16" xmlns="http://www.w3.org/2000/svg">
  <path d="m5.9502 12.67797c-1.7292-.82493-2.96662-2.506549-3.15698-4.4948695h-.79322c.26441 3.2574595 2.99306 5.8168995 6.31927 5.8168995l.34901-.0159-2.01476-2.02005-.70332.71389m1.45952-10.4439795c-.31199-.312-.81437-.312-1.12108 0l-3.36322 3.36322c-.312.312-.312.81437 0 1.12107l6.35628 6.3562895c.312.312.81437.312 1.12108 0l3.36322-3.3632195c.312-.312.312-.81437 0-1.12108-2.11877-2.11875-4.23753-4.23751-6.35628-6.35628zm5.43087 6.91682-2.99835 2.9983495-5.9914-5.9914095 2.99834-2.99835c1.99324 2.00103 3.99252 3.99602 5.99141 5.99141z" fill="#bebebe" />
</svg>
