<svg xmlns="http://www.w3.org/2000/svg" viewBox="0 0 16 16">
  <path fill="#bebebe" d="M11.254 1.837A1.322 1.322 0 0 0 9.932 3.16v.264a.529.529 0 0 0-.53.529v2.115a.529.529 0 0 0 .529.529h2.645a.529.529 0 0 0 .529-.529V3.953a.529.529 0 0 0-.529-.53v-.264a1.322 1.322 0 0 0-1.322-1.322zm0 .424c.497 0 .898.401.898.898v.264h-1.797v-.264c0-.497.401-.898.898-.898z"/>
  <path fill="#bebebe" d="M13.766 8.59l-1.359-1.359-.746.746 1.18 1.174-2.999 2.998-5.991-5.991 2.998-2.999L7.96 4.275l.745-.745L7.41 2.234a.788.788 0 0 0-1.121 0L2.925 5.597a.788.788 0 0 0 0 1.121l6.356 6.356a.788.788 0 0 0 1.121 0l3.364-3.363a.788.788 0 0 0 0-1.121zM5.95 12.678a5.58 5.58 0 0 1-3.157-4.495H2A6.338 6.338 0 0 0 8.319 14l.349-.016-2.014-2.02z" opacity=".35"/>
</svg>
