<svg enable-background="new" height="16" width="16.001" xmlns="http://www.w3.org/2000/svg">
  <g fill="#bebebe">
    <path d="m11.253962 1.8374491a1.3220229 1.3220229 0 0 0 -1.322265 1.3222657v.2636718a.52880915.52880915 0 0 0 -.529297.5292969v2.1152344a.52880915.52880915 0 0 0 .529297.5292968h2.644531a.52880915.52880915 0 0 0 .529297-.5292968v-2.1152344a.52880915.52880915 0 0 0 -.529297-.5292969v-.2636718a1.3220229 1.3220229 0 0 0 -1.322266-1.3222657zm0 .4238281c.49708 0 .898438.4013575.898438.8984376v.2636718h-1.796875v-.2636718c0-.49708.401357-.8984376.898437-.8984376z" />
    <path d="m13.766 8.59024-1.35904-1.35904-.74562.74562 1.17925 1.17396-2.99835 2.99835-5.9914-5.99141 2.99834-2.99835 1.1105 1.11579.74562-.74562-1.29558-1.29558c-.31199-.312-.81437-.312-1.12108 0l-3.36322 3.36322c-.312.312-.312.81437 0 1.12107l6.35628 6.35629c.312.312.81437.312 1.12108 0l3.36322-3.36322c.312-.312.312-.81437 0-1.12108zm-7.8158 4.08773c-1.7292-.824929-2.96662-2.50655-3.15698-4.49487h-.79322c.26441 3.257461 2.99306 5.8169 6.31927 5.8169l.34901-.0159-2.01476-2.02005-.70332.71389" opacity=".35" />
  </g>
</svg>
