<svg enable-background="new" height="16.000002" width="16.00025" xmlns="http://www.w3.org/2000/svg" xmlns:xlink="http://www.w3.org/1999/xlink">
  <filter id="a" color-interpolation-filters="sRGB">
    <feBlend in2="BackgroundImage" mode="darken" />
  </filter>
  <filter id="b" color-interpolation-filters="sRGB">
    <feBlend in2="BackgroundImage" mode="darken" />
  </filter>
  <g transform="translate(-425.0004 375.00336)">
    <g>
      <path d="m433.0004-373.00336c-.63283.62447-1.2366 1.34199-1.87983 1.95547h-2.1647v2.1647c-.61359.64325-1.33092 1.24698-1.95547 1.87983.62452.63288 1.34192 1.26228 1.95547 1.90558v2.14055h2.1647c.64325.6136 1.24698 1.32931 1.87983 1.95387.63288-.62452 1.26228-1.34032 1.90558-1.95387l2.13895-.002v-2.13894c.61359-.64326 1.33092-1.27273 1.95547-1.90558-.62452-.63289-1.34192-1.23654-1.95547-1.87983v-2.16631l-2.13895.002c-.64326-.61359-1.27273-1.33092-1.90558-1.95547zm-.066 3.21888h.13037c.2201 0 .39914.17582.39914.39592v2.9147c0 .2201-.17904.39753-.39914.39753h-.13037c-.2201 0-.39753-.17743-.39753-.39753v-2.9147c0-.2201.17743-.39592.39753-.39592zm.066 4.32618c.34132 0 .61803.2767.61803.61803 0 .34132-.27671.61802-.61803.61802s-.61803-.2767-.61803-.61802c0-.34133.27671-.61803.61803-.61803z" fill="#f67d42" />
      <g filter="url(#b)" transform="translate(254.06411 -242.50336)" />
    </g>
    <g filter="url(#a)" />
  </g>
</svg>
