<svg enable-background="new" height="16" width="16" xmlns="http://www.w3.org/2000/svg">
  <path d="m8 2c-.63283.62447-1.2366 1.342-1.87983 1.95547h-2.1647v2.1647c-.61359.64325-1.33092 1.24698-1.95547 1.87983.62452.63288 1.34192 1.26228 1.95547 1.90558v2.14056h2.1647c.64325.61359 1.24698 1.32931 1.87983 1.95386.63288-.62452 1.26228-1.34031 1.90558-1.95386l2.13895-.002v-2.13894c.61359-.64326 1.33092-1.27273 1.95547-1.90558-.62452-.63289-1.34192-1.23654-1.95547-1.87983v-2.16631l-2.13895.002c-.64326-.61359-1.27273-1.33092-1.90558-1.95547zm0 2.8294 2.11159 3.16738h-.0515-1.23606v3.34764l-1.64806-.0257v-3.32189h-1.23606-.0515c.96092-1.40285 1.85012-2.76531 2.11159-3.16738z" fill="#bebebe" />
</svg>
