<svg height="16" width="16" xmlns="http://www.w3.org/2000/svg">
  <path d="m345.0004 25c-.554 0-1 .446-1 1v4c0 .554.446 1 1 1s1-.446 1-1v-4c0-.554-.446-1-1-1zm-3 2c-.23384 0-.45573.084-.625.21875-.16288.13731-.21487.18641-.28125.25-1.27878 1.0966-2.09375 2.71205-2.09375 4.53125 0 3.31371 2.68629 6 6 6s6-2.68629 6-6c0-1.8192-.81497-3.43465-2.09375-4.53125-.0664-.0636-.11837-.11269-.28125-.25-.16927-.13471-.39116-.21875-.625-.21875-.55229 0-1 .44772-1 1 0 .31104.14829.57085.375.75.0403.0378.0534.0594.125.125.9241.72905 1.5 1.85348 1.5 3.125 0 2.20914-1.79086 4-4 4s-4-1.79086-4-4c0-1.27152.5759-2.39595 1.5-3.125.0716-.0656.0847-.0872.125-.125.22671-.17915.375-.43896.375-.75 0-.55228-.44772-1-1-1z" fill="#bebebe" transform="matrix(.91666667 0 0 .92307692 -308.25037 -21.076923)" />
</svg>
