<svg xmlns="http://www.w3.org/2000/svg" viewBox="0 0 16 16">
  <path fill="#bebebe" d="M8.115 1.998a.918.918 0 0 0-.917.923v3.692a.918.918 0 1 0 1.834 0V2.921a.918.918 0 0 0-.917-.923zM5.364 3.844a.922.922 0 0 0-.573.202 4.11 4.11 0 0 0-.258.23 5.503 5.503 0 0 0-1.92 4.183c0 3.059 2.463 5.538 5.502 5.538s5.502-2.48 5.502-5.538c0-1.679-.747-3.17-1.92-4.182a4.11 4.11 0 0 0-.258-.23.922.922 0 0 0-.573-.203.92.92 0 0 0-.917.923c0 .287.136.527.344.692.037.035.048.055.115.116a3.654 3.654 0 0 1 1.375 2.884c0 2.039-1.642 3.692-3.668 3.692s-3.668-1.653-3.668-3.692a3.65 3.65 0 0 1 1.376-2.884c.066-.061.077-.08.114-.116a.873.873 0 0 0 .344-.692.92.92 0 0 0-.917-.923z"/>
</svg>
