<svg enable-background="new" height="16.003281" width="16" xmlns="http://www.w3.org/2000/svg" xmlns:xlink="http://www.w3.org/1999/xlink">
  <filter id="a" color-interpolation-filters="sRGB">
    <feBlend in2="BackgroundImage" mode="darken" />
  </filter>
  <g transform="translate(-385.03166 235.00328)">
    <g>
      <g fill="#bebebe">
        <circle cx="197.24068" cy="394.25452" r="0" transform="matrix(-.06432929 -.99792873 .99792873 -.06432929 0 0)" />
        <text font-family="sans-serif" font-size="20.898512" letter-spacing="0" word-spacing="0" x="377.5881" xml:space="preserve" y="-214.44621">
 
<tspan fill="#bebebe" x="377.5881" y="-214.44621" /> 
</text>
        <path d="m396.03166-228.2h-6v-1.2h6m0 3.6h-6v-1.2h6m-1.8 3.6h-4.2v-1.2h4.2m-1.2-7.2a.6.6 0 0 1 .6.6.6.6 0 0 1 -.6.6.6.6 0 0 1 -.6-.6.6.6 0 0 1 .6-.6m4.2 0h-2.508c-.252-.696-.912-1.2-1.692-1.2s-1.44.504-1.692 1.2h-2.508a1.2 1.2 0 0 0 -1.2 1.2v8.4a1.2 1.2 0 0 0 1.2 1.2h8.4a1.2 1.2 0 0 0 1.2-1.2v-8.4a1.2 1.2 0 0 0 -1.2-1.2z" />
      </g>
      <path d="m396.45359-219.46874a3.4999984 3.4999984 0 0 1 -3.5-3.5 3.4999984 3.4999984 0 0 1 3.5-3.5 3.4999984 3.4999984 0 0 1 3.5 3.5 3.4999984 3.4999984 0 0 1 -3.5 3.5zm-.0872-1.53126a.4374998.4374998 0 0 0 .4375-.43749.4374998.4374998 0 0 0 -.4375-.4375.4374998.4374998 0 0 0 -.4375.4375.4374998.4374998 0 0 0 .4375.43749zm-.047-1.31249h.0932c.15581 0 .28198-.12532.28198-.28113v-2.06275c0-.15581-.12617-.28112-.28198-.28112h-.0932c-.15581 0-.28113.12531-.28113.28112v2.06275c0 .15581.12532.28113.28113.28113z" fill="#f67d42" fill-rule="evenodd" />
    </g>
    <g filter="url(#a)" />
  </g>
</svg>
