<svg xmlns="http://www.w3.org/2000/svg" width="16" height="16.003">
  <path fill="#bebebe" d="M11 6.803H5v-1.2h6m0 3.6H5v-1.2h6m-1.8 3.6H5v-1.2h4.2M8 3.203a.6.6 0 0 1 .6.6.6.6 0 0 1-.6.6.6.6 0 0 1-.6-.6.6.6 0 0 1 .6-.6m4.2 0H9.692c-.252-.696-.912-1.2-1.692-1.2s-1.44.504-1.692 1.2H3.8a1.2 1.2 0 0 0-1.2 1.2v8.4a1.2 1.2 0 0 0 1.2 1.2h8.4a1.2 1.2 0 0 0 1.2-1.2v-8.4a1.2 1.2 0 0 0-1.2-1.2z"/>
  <path fill="#e74c3c" d="M11.422 15.534a3.5 3.5 0 0 1-3.5-3.5 3.5 3.5 0 0 1 3.5-3.5 3.5 3.5 0 0 1 3.5 3.5 3.5 3.5 0 0 1-3.5 3.5zm-.088-1.531a.437.437 0 0 0 .438-.437.437.437 0 0 0-.438-.438.437.437 0 0 0-.438.438.437.437 0 0 0 .438.437zm-.047-1.312h.093a.28.28 0 0 0 .282-.281v-2.063a.28.28 0 0 0-.282-.281h-.093a.28.28 0 0 0-.281.281v2.063a.28.28 0 0 0 .281.281z"/>
</svg>
