<svg enable-background="new" height="16" width="16" xmlns="http://www.w3.org/2000/svg">
  <g fill="#bebebe">
    <path d="m12.285714 2.5s1.714286 0 1.714286 1.6923077h-12c0-1.6923077 1.6875429-1.6923077 1.6875429-1.6923077zm1.714286 6.76923c0 1.692308-1.714286 1.692308-1.714286 1.692308h-.857143l-1.7142853 2.538462-1.7142857-2.538462h-4.2857142c-.9497144 0-1.7142858-.75477-1.7142858-1.692308z" opacity=".35" />
    <path d="m3.7142858 5.0714286c-.9497144 0-1.7142858.7645714-1.7142858 1.7142856 0 .9497144.7645714 1.7142858 1.7142858 1.7142858.9497142 0 1.7142856-.7645714 1.7142856-1.7142858 0-.9497142-.7645714-1.7142856-1.7142856-1.7142856zm4.2857142 0c-.9497143 0-1.7142858.7645714-1.7142858 1.7142856 0 .9497144.7645715 1.7142858 1.7142858 1.7142858s1.7142854-.7645714 1.7142854-1.7142858c0-.9497142-.7645711-1.7142856-1.7142854-1.7142856zm4.285714 0c-.949714 0-1.714286.7645714-1.714286 1.7142856 0 .9497144.764572 1.7142858 1.714286 1.7142858s1.714286-.7645714 1.714286-1.7142858c0-.9497142-.764572-1.7142856-1.714286-1.7142856z" />
  </g>
</svg>
