<svg xmlns="http://www.w3.org/2000/svg" viewBox="0 0 16 16">
  <path fill="#bebebe" d="M12.286 2.5S14 2.5 14 4.192H2C2 2.5 3.688 2.5 3.688 2.5zM14 9.269c0 1.692-1.714 1.692-1.714 1.692h-.857L9.714 13.5 8 10.962H3.714A1.7 1.7 0 0 1 2 9.269z" opacity=".35"/>
  <path fill="#bebebe" d="M3.714 5.071C2.765 5.071 2 5.836 2 6.786 2 7.735 2.765 8.5 3.714 8.5c.95 0 1.715-.765 1.715-1.714 0-.95-.765-1.715-1.715-1.715zm4.286 0a1.71 1.71 0 0 0-1.714 1.715C6.286 7.735 7.05 8.5 8 8.5s1.714-.765 1.714-1.714A1.71 1.71 0 0 0 8 5.071zm4.286 0c-.95 0-1.715.765-1.715 1.715 0 .949.765 1.714 1.715 1.714.949 0 1.714-.765 1.714-1.714 0-.95-.765-1.715-1.714-1.715z"/>
</svg>
