<?xml version="1.0" encoding="UTF-8" standalone="no"?>
<!-- Created with Inkscape (http://www.inkscape.org/) -->
<svg id="svg7384" xmlns:rdf="http://www.w3.org/1999/02/22-rdf-syntax-ns#" style="enable-background:new" xmlns="http://www.w3.org/2000/svg" xmlns:osb="http://www.openswatchbook.org/uri/2009/osb" height="16" width="16" version="1.1" xmlns:cc="http://creativecommons.org/ns#" xmlns:dc="http://purl.org/dc/elements/1.1/">
 <metadata id="metadata90">
  <rdf:RDF>
   <cc:Work rdf:about="">
    <dc:format>image/svg+xml</dc:format>
    <dc:type rdf:resource="http://purl.org/dc/dcmitype/StillImage"/>
    <dc:title>Paper Symbolic Icon Theme</dc:title>
   </cc:Work>
  </rdf:RDF>
 </metadata>
 <title id="title8473">Paper Symbolic Icon Theme</title>
 <defs id="defs7386">
  <filter id="filter7554" style="color-interpolation-filters:sRGB">
   <feBlend id="feBlend7556" in2="BackgroundImage" mode="darken"/>
  </filter>
 </defs>
 <g id="layer9" transform="translate(-365 315)">
  <g id="g6221" style="fill:#bebebe" transform="matrix(0 1 1 0 88 -356)">
   <path id="path6223" style="color:#000000;text-indent:0;block-progression:tb;text-transform:none;fill:#555" transform="matrix(0 -1 1 0 -123 393)" d="m106 165c-1.6447 0-3 1.3553-3 3v1 0.65625 3.3438 3c0 1.6447 1.3553 3 3 3h3v-2h-3c-0.5713 0-1-0.4287-1-1v-3-3.3438-0.65625-1c0-0.5713 0.4287-1 1-1h4c0.5713 0 1 0.4287 1 1v3h2v-3c0-1.6447-1.3553-3-3-3h-4z"/>
  </g>
  <path id="path6225" style="fill:#555" d="m369-305-3-4h6z"/>
 </g>
</svg>
