<svg enable-background="new" height="16" width="16" xmlns="http://www.w3.org/2000/svg">
  <path d="m7.3999134 2.0276843c-2.210253.0811338-4.2470158 1.4433403-5.0500663 3.6491817-1.0110772 2.777249.2949398 5.858343 2.9500388 7.04842-.074561-.269907-.1175056-.565409-.1000013-.84981.0221602-.80082.4671821-1.509557 1.1000144-1.974557-1.2535205-1.386241-1.7084944-3.3964066-1.0250135-5.2738176.4113334-1.1298666 1.1795675-2.0062381 2.1250279-2.5994171zm.1500019 8.8980057c-.3336523.137417-.6063759.38908-.7000091.749832-.2121388.659827.2684835 1.403317.9500124 1.499663 1.4368351-.05919 2.7996454-.64835 3.8000504-1.674625v-.124971c-1.024742.299605-2.1453884.317872-3.2250429-.074943-.2896038-.105385-.5669994-.226062-.8250108-.374916z" fill="#bebebe" />
  <ellipse cx="9.741002" cy="4.541849" fill="#8c5f5f" opacity="0" rx="5.599918" ry="5.5989" transform="matrix(.9397187 .34194848 -.34209182 .93966653 0 0)" />
  <path d="m9.9999477 8.401256c-1.049358 0-1.9238815.68659-2.2500298 1.624635-.9846769.124749-1.7500229.956241-1.7500229 1.974558 0 1.104319.8954438 1.999551 2.0000262 1.999551h4.4000578c.883668 0 1.600021-.716183 1.600021-1.599641 0-.883459-.716353-1.599642-1.600021-1.599642 0-1.325182-1.074534-2.399461-2.4000313-2.399461z" fill="#bebebe" />
</svg>
