<svg enable-background="new" height="16" width="16" xmlns="http://www.w3.org/2000/svg">
  <path d="m369.0032-238c1.65685 0 3 1.34315 3 3s-1.34315 3-3 3-3-1.34315-3-3 1.34315-3 3-3m0-3 1.434 2.052c-.444-.162-.93-.252-1.434-.252s-.99.09-1.434.252zm-5.196 3 2.496-.21c-.36.306-.684.678-.936 1.11-.264.444-.414.9-.498 1.374zm.012 6 1.056-2.262c.084.462.246.93.498 1.362.252.444.576.816.93 1.122zm10.374-6-1.062 2.274c-.084-.474-.246-.936-.498-1.374-.252-.432-.57-.81-.93-1.116zm-.006 6-2.484.216c.354-.306.672-.684.924-1.116.252-.438.414-.9.498-1.374zm-5.184 3-1.446-2.064c.444.162.93.264 1.446.264.492 0 .978-.102 1.422-.264z" fill="#bebebe" transform="translate(-361.0002 243)" />
</svg>
