<svg xmlns="http://www.w3.org/2000/svg" viewBox="0 0 16 16">
  <g fill="#bebebe">
    <path d="M7.668 12.313l-.719-1.244-.719 1.244c-.323.508-.403 1.025 0 1.432.21.219.464.255.719.255s.51-.036.719-.255c.403-.408.369-.862 0-1.432z"/>
    <path d="M4.727 10.857a.545.571 0 0 1 .546.572.545.571 0 0 1-.546.571A2.727 2.857 0 0 1 2 9.143a2.727 2.857 0 0 1 2.727-2.857C5.273 4.943 6.527 4 8 4c1.871 0 3.404 1.52 3.545 3.446l.273-.017A2.182 2.286 0 0 1 14 9.714 2.182 2.286 0 0 1 11.818 12h-.545a.545.571 0 0 1-.545-.571.545.571 0 0 1 .545-.571h.545a1.091 1.143 0 0 0 1.091-1.144 1.091 1.143 0 0 0-1.091-1.143h-1.091V8A2.727 2.857 0 0 0 8 5.143c-1.364 0-2.482 1.04-2.695 2.394a1.618 1.618 0 0 0-.578-.109 1.636 1.714 0 0 0-1.636 1.715 1.636 1.714 0 0 0 1.636 1.714"/>
    <path d="M9.668 10.875l-.719-1.244-.718 1.244c-.323.508-.403 1.025 0 1.432.209.219.464.255.719.255s.51-.036.719-.255c.403-.408.369-.862 0-1.432z"/>
  </g>
</svg>
