<svg xmlns="http://www.w3.org/2000/svg" viewBox="0 0 16 16">
  <linearGradient id="a" x1="308.328" x2="320.487" y1="491.519" y2="492.261" gradientUnits="userSpaceOnUse">
    <stop offset="0" stop-color="red"/>
    <stop offset="1" stop-color="#ff2a2a"/>
  </linearGradient>
  <path fill="#bebebe" d="M8 1.723c-1.574 0-2.886 1.03-3.375 2.437A2.993 2.993 0 0 0 2 7.123a3 3 0 0 0 3 3h6.6a2.4 2.4 0 1 0 0-4.8 3.6 3.6 0 0 0-3.6-3.6z"/>
  <g transform="matrix(.583 0 0 .583 -266.059 211.76)">
    <ellipse cx="314.327" cy="491.238" fill="url(#a)" rx="6" ry="6" transform="rotate(-93.67)"/>
    <path fill="#fff" d="M469.998-348.549a.542.542 0 0 0-.543.543v3.822c0 .301.242.543.543.543h.004a.542.542 0 0 0 .543-.543v-3.822a.542.542 0 0 0-.543-.543zm.002 6c-.302 0-.545.243-.545.545s.243.545.545.545.545-.243.545-.545-.243-.545-.545-.545z"/>
  </g>
</svg>
