<?xml version="1.0" encoding="UTF-8" standalone="no"?>
<!-- Created with Inkscape (http://www.inkscape.org/) -->

<svg
   xmlns:osb="http://www.openswatchbook.org/uri/2009/osb"
   xmlns:dc="http://purl.org/dc/elements/1.1/"
   xmlns:cc="http://creativecommons.org/ns#"
   xmlns:rdf="http://www.w3.org/1999/02/22-rdf-syntax-ns#"
   xmlns:svg="http://www.w3.org/2000/svg"
   xmlns="http://www.w3.org/2000/svg"
   xmlns:sodipodi="http://sodipodi.sourceforge.net/DTD/sodipodi-0.dtd"
   xmlns:inkscape="http://www.inkscape.org/namespaces/inkscape"
   sodipodi:docname="weather-few-clouds-symbolic.svg"
   inkscape:export-filename="/home/sam/source-symbolic.png"
   inkscape:export-xdpi="270"
   inkscape:export-ydpi="270"
   height="16"
   id="svg7384"
   style="enable-background:new"
   version="1.1"
   inkscape:version="0.91 r13725"
   width="16">
  <sodipodi:namedview
     inkscape:bbox-nodes="true"
     inkscape:bbox-paths="true"
     bordercolor="#666666"
     borderlayer="false"
     borderopacity="1"
     inkscape:current-layer="svg7384"
     inkscape:cx="18.451108"
     inkscape:cy="-9.9894008"
     gridtolerance="10"
     inkscape:guide-bbox="true"
     guidetolerance="10"
     id="namedview88"
     inkscape:object-nodes="true"
     inkscape:object-paths="true"
     objecttolerance="10"
     pagecolor="#f7f7f7"
     inkscape:pageopacity="1"
     inkscape:pageshadow="2"
     showborder="true"
     showgrid="false"
     showguides="true"
     inkscape:showpageshadow="false"
     inkscape:snap-bbox="true"
     inkscape:snap-bbox-edge-midpoints="false"
     inkscape:snap-bbox-midpoints="false"
     inkscape:snap-center="false"
     inkscape:snap-global="true"
     inkscape:snap-grids="true"
     inkscape:snap-intersection-paths="true"
     inkscape:snap-midpoints="true"
     inkscape:snap-nodes="true"
     inkscape:snap-object-midpoints="true"
     inkscape:snap-others="true"
     inkscape:snap-page="false"
     inkscape:snap-smooth-nodes="true"
     inkscape:snap-to-guides="true"
     inkscape:window-height="701"
     inkscape:window-maximized="0"
     inkscape:window-width="1362"
     inkscape:window-x="0"
     inkscape:window-y="28"
     inkscape:zoom="16">
    <inkscape:grid
       color="#000000"
       dotted="false"
       empcolor="#0800ff"
       empopacity="0.4627451"
       empspacing="4"
       enabled="true"
       id="grid4866"
       opacity="0.16470588"
       originx="-164px"
       originy="-548px"
       snapvisiblegridlinesonly="true"
       spacingx="0.25px"
       spacingy="0.25px"
       type="xygrid"
       visible="true" />
  </sodipodi:namedview>
  <metadata
     id="metadata90">
    <rdf:RDF>
      <cc:Work
         rdf:about="">
        <dc:format>image/svg+xml</dc:format>
        <dc:type
           rdf:resource="http://purl.org/dc/dcmitype/StillImage" />
        <dc:title>Paper Symbolic Icon Theme</dc:title>
      </cc:Work>
    </rdf:RDF>
  </metadata>
  <title
     id="title8473">Paper Symbolic Icon Theme</title>
  <defs
     id="defs7386">
    <linearGradient
       id="linearGradient5606"
       osb:paint="solid">
      <stop
         id="stop5608"
         offset="0"
         style="stop-color:#000000;stop-opacity:1;" />
    </linearGradient>
  </defs>
  <path
     inkscape:connector-curvature="0"
     d="M 7,0 6.5,1.03125 C 6.66191,1.01795 6.8348,1.00005 7,1.00005 l 0.5,0 -0.5,-1 z M 7,2 C 4.23858,2 2,4.23859 2,7 2,9.254 3.51261,11.12577 5.5625,11.75 6.03135,11.07257 6.74225,10.54467 7.53125,10.3125 8.15098,8.99047 9.50599,7.9742 11,8 11.30449,7.995 11.58708,8.056 11.875,8.125 11.9595,7.76065 12,7.39005 12,7 12,4.23859 9.76142,2 7,2 Z M 2.0625,2.0625 2.40625,3.125 C 2.6253,2.86578 2.86578,2.6253 3.125,2.40625 L 2.0625,2.0625 Z m 9.875,0 -1.09375,0.375 -0.0625,0 c 0.13917,0.11095 0.27498,0.22511 0.40625,0.34375 0.13127,0.11864 0.25799,0.24175 0.375,0.375 L 11.9375,2.0625 Z M 1,6.5 0,7 1.03125,7.5 C 1.01645,7.33069 1.00005,7.1736 1.00005,7 c 0,-0.0275 -0.002,-0.0836 0,-0.15625 C 1.00605,6.72792 1.02235,6.61151 1.03125,6.5 l -0.0312,0 z m 11.96875,0 c 0.0148,0.16931 0.0312,0.3264 0.0312,0.5 0,0.0275 0.002,0.0836 0,0.15625 -0.006,0.11583 -0.0223,0.23224 -0.0312,0.34375 l 0.0312,0 1,-0.5 -1.03125,-0.5 z m -10.53125,4.34375 -0.375,1.09375 1.09375,-0.375 0.0625,0 C 3.07958,11.45155 2.94377,11.33739 2.8125,11.21875 2.68123,11.10011 2.55451,10.977 2.4375,10.84375 Z"
     id="path6096"
     style="color:#bebebe;display:inline;overflow:visible;visibility:visible;fill:#bebebe;fill-opacity:1;fill-rule:nonzero;stroke:none;stroke-width:2;marker:none;enable-background:accumulate" />
  <path
     inkscape:connector-curvature="0"
     d="M 11,9 C 9.68832,9 8.59518,9.85843 8.1875,11.03125 6.95667,11.18722 6,12.22682 6,13.5 6,14.88071 7.11929,16 8.5,16 l 5.5,0 c 1.10457,0 2,-0.89543 2,-2 0,-1.10457 -0.89543,-2 -2,-2 0,-1.65685 -1.34315,-3 -3,-3 z"
     id="path6304"
     style="display:inline;fill:#bebebe;fill-opacity:1;stroke:none;enable-background:new" />
</svg>
