<svg xmlns="http://www.w3.org/2000/svg" viewBox="0 0 16 16">
  <path fill="#bebebe" d="M7.737 8h1.636l-1.091 2.182h1.091L7.328 14l.409-2.727H6.373z"/>
  <path fill="#bebebe" d="M4.727 8.857a.545.571 0 0 1 .546.572.545.571 0 0 1-.546.571A2.727 2.857 0 0 1 2 7.143a2.727 2.857 0 0 1 2.727-2.857C5.272 2.943 6.527 2 8 2c1.871 0 3.404 1.52 3.545 3.446l.273-.017A2.182 2.286 0 0 1 14 7.714 2.182 2.286 0 0 1 11.818 10h-.545a.545.571 0 0 1-.546-.571.545.571 0 0 1 .546-.572h.545a1.091 1.143 0 0 0 1.091-1.143 1.091 1.143 0 0 0-1.091-1.143h-1.091V6A2.727 2.857 0 0 0 8 3.143c-1.364 0-2.482 1.04-2.695 2.394a1.618 1.618 0 0 0-.578-.109 1.636 1.714 0 0 0-1.636 1.715 1.636 1.714 0 0 0 1.636 1.714"/>
</svg>
