<svg enable-background="new" height="16" width="16" xmlns="http://www.w3.org/2000/svg">
  <g fill="#bebebe">
    <path d="m4.727273 8.857143a.54545455.57142856 0 0 1 .545454.571428.54545455.57142856 0 0 1 -.545454.571429 2.7272727 2.8571428 0 0 1 -2.727273-2.857143 2.7272727 2.8571428 0 0 1 2.727273-2.8571427c.545454-1.3428572 1.8-2.2857143 3.272727-2.2857143 1.8709091 0 3.403637 1.52 3.545455 3.4457142l.272727-.0171432a2.1818182 2.2857143 0 0 1 2.181818 2.285714 2.1818182 2.2857143 0 0 1 -2.181818 2.285714h-.545455a.54545455.57142856 0 0 1 -.545454-.571428.54545455.57142856 0 0 1 .545454-.571428h.545455a1.0909091 1.1428571 0 0 0 1.090909-1.142857 1.0909091 1.1428571 0 0 0 -1.090909-1.1428576h-1.090909v-.5714285a2.7272727 2.8571428 0 0 0 -2.727273-2.8571428c-1.363636 0-2.481818 1.0399999-2.694545 2.3942856-.18-.068572-.376364-.1085713-.578182-.1085713a1.6363636 1.7142856 0 0 0 -1.636364 1.7142856 1.6363636 1.7142856 0 0 0 1.636364 1.714286" />
    <path d="m5.3880015 10.709977.5628597-.146498-.4137923-.416363c-.1002375-.09766-.1002375-.2621535 0-.3649597.1002374-.1002374.2672949-.1002374.3649598 0l.4163623.4137927.1464987-.5628613c.035975-.1387875.1773399-.2184612.3135573-.18248.1387875.035987.2184612.17734.1824799.3161274l-.1516386.5628609.5628609-.151639c.1387875-.03597.2801449.04369.3161274.18248.035975.136218-.043687.277577-.1824799.313558l-.562861.146499.4137923.416362c.1002375.09766.1002375.264725 0 .36496-.1002374.100238-.2672949.100238-.3649598 0l-.4163623-.413792-.1464987.56286c-.035988.138788-.1773387.218462-.3135561.182481-.1387887-.03599-.2184624-.17734-.1824799-.316128l.1516374-.562861-.562861.151639c-.1387874.03597-.2801448-.04369-.3161273-.18248-.035988-.136218.043687-.277576.1824812-.313558z" opacity=".5" />
    <path d="m8.4180811 12.09193.5628597-.146499-.4137923-.416362c-.1002375-.09766-.1002375-.262154 0-.36496.1002374-.100237.2672949-.100237.3649598 0l.4163623.413792.1464987-.562861c.035975-.138787.1773399-.218461.3135578-.18248.138787.03599.2184609.17734.182479.316128l-.151638.562861.5628609-.151639c.138787-.03598.280145.04369.316127.18248.03597.136217-.04369.277576-.18248.313557l-.5628609.146499.4137929.416362c.100237.09766.100237.264725 0 .36496-.100238.100238-.267295.100238-.36496 0l-.4163625-.413792-.1464987.56286c-.0359875.138788-.1773387.218462-.3135561.182481-.1387887-.035988-.2184624-.17734-.1824799-.316128l.1516374-.562861-.562861.151639c-.1387874.03597-.2801448-.04369-.3161273-.18248-.035987-.136217.043688-.277576.1824812-.313557z" opacity=".5" />
    <path d="m7.9030413 8.9846652.5628593-.1464987-.4137919-.4163623c-.1002375-.097662-.1002375-.2621536 0-.3649598.1002375-.1002375.2672945-.1002375.3649595 0l.4163623.4137923.1464987-.562861c.035975-.1387874.1773399-.2184612.3135573-.1824799.1387875.035988.2184607.1773399.18248.3161273l-.1516387.562861.5628614-.1516386c.1387868-.035975.2801448.043687.3161268.1824799.03598.1362174-.04369.2775761-.18248.3135573l-.5628608.1464987.413792.4163624c.100238.097662.100238.2647248 0 .3649598-.100237.1002374-.267295.1002374-.36496 0l-.4163618-.4137923-.1464987.5628597c-.0359875.138789-.1773387.218462-.3135561.182481-.1387887-.035987-.2184624-.17734-.1824799-.3161272l.1516374-.562861-.5628606.1516387c-.1387875.035975-.2801449-.0436875-.3161274-.1824799-.0359875-.1362174.0436875-.2775761.1824812-.3135574z" opacity=".5" />
  </g>
</svg>
