<?xml version="1.0" encoding="UTF-8" standalone="no"?>
<!-- Created with Inkscape (http://www.inkscape.org/) -->
<svg id="svg7384" xmlns:rdf="http://www.w3.org/1999/02/22-rdf-syntax-ns#" style="enable-background:new" xmlns="http://www.w3.org/2000/svg" xmlns:osb="http://www.openswatchbook.org/uri/2009/osb" height="16" width="16" version="1.1" xmlns:cc="http://creativecommons.org/ns#" xmlns:dc="http://purl.org/dc/elements/1.1/">
 <metadata id="metadata90">
  <rdf:RDF>
   <cc:Work rdf:about="">
    <dc:format>image/svg+xml</dc:format>
    <dc:type rdf:resource="http://purl.org/dc/dcmitype/StillImage"/>
    <dc:title>Paper Symbolic Icon Theme</dc:title>
   </cc:Work>
  </rdf:RDF>
 </metadata>
 <title id="title8473">Paper Symbolic Icon Theme</title>
 <defs id="defs7386">
  <filter id="filter7554" style="color-interpolation-filters:sRGB">
   <feBlend id="feBlend7556" in2="BackgroundImage" mode="darken"/>
  </filter>
 </defs>
 <g id="layer9" transform="translate(-525 335)">
  <path id="path6913" style="fill:#555" d="m533-335c-2.0711 0-3.8347 1.2679-4.5938 3.0625-1.9278 0.2866-3.4062 1.9299-3.4062 3.9375 0 2.2091 1.7909 4 4 4h8.5c1.933 0 3.5-1.567 3.5-3.5 0-1.7965-1.3508-3.2687-3.0938-3.4688-0.46-2.29-2.48-4.03-4.91-4.03z"/>
  <path id="rect6932" style="opacity:.35;fill:#555" d="m528-323v1.1328l-0.98242-0.5664-0.5 0.86718 0.98047 0.56641-0.98047 0.56641 0.5 0.86718 0.98242-0.5664v1.1328h1v-1.1328l0.98242 0.5664 0.5-0.86718-0.98047-0.56641 0.98047-0.56641-0.5-0.86718-0.98242 0.5664v-1.1328h-1z"/>
  <path id="path6939" style="opacity:.35;fill:#555" d="m533-323v1.1328l-0.98242-0.5664-0.5 0.86718 0.98047 0.56641-0.98047 0.56641 0.5 0.86718 0.98242-0.5664v1.1328h1v-1.1328l0.98242 0.5664 0.5-0.86718-0.98047-0.56641 0.98047-0.56641-0.5-0.86718-0.98242 0.5664v-1.1328h-1z"/>
  <path id="path6941" style="opacity:.35;fill:#555" d="m538-323v1.1328l-0.98242-0.5664-0.5 0.86718 0.98047 0.56641-0.98047 0.56641 0.5 0.86718 0.98242-0.5664v1.1328h1v-1.1328l0.98242 0.5664 0.5-0.86718-0.98047-0.56641 0.98047-0.56641-0.5-0.86718-0.98242 0.5664v-1.1328h-1z"/>
 </g>
</svg>
