<svg enable-background="new" height="16" width="16.000196" xmlns="http://www.w3.org/2000/svg">
  <g fill="#bebebe">
    <path d="m6.2124588 9.8823298c.2890909.07636.4636363.3763642.3872727.6654552l-.7090909 2.634545c-.076364.294546-.3763637.463636-.6654546.387273-.2945454-.07636-.4636363-.376364-.3763636-.665455l.6981818-2.634545c.076364-.2945462.3763637-.4636372.6654546-.3872732" />
    <path d="m8.3942769 9.8823298c.289091.07636.4636364.3763642.3872728.6654552l-1.1290909 4.216363c-.076364.3-.3763637.463637-.6709091.387273-.2890909-.08727-.4636364-.376364-.3872727-.670909l1.1345454-4.210909c.076364-.2945462.3763636-.4636372.6654545-.3872732" />
    <path d="m10.576095 9.8823298c.289091.07636.463637.3763642.387273.6654552l-.709091 2.634545c-.07636.294546-.3763642.463636-.6654546.387273-.2945455-.07636-.4636364-.376364-.3763636-.665455l.698182-2.634545c.07636-.2945462.3763632-.4636372.6654542-.3872732" />
    <path d="m10.727273 8.7090701v-.588634a2.7272727 2.9431699 0 0 0 -2.727273-2.943169c-1.3636363 0-2.4818182 1.071313-2.6945456 2.466375-.1799999-.07063-.3763635-.111839-.5781817-.111839a1.6363636 1.7659019 0 0 0 -1.6363636 1.765902c0 .653384.3272727 1.2243579.8181818 1.5304469v-.006c.2727273.164818.3490909.535658.2018182.80643-.1527273.276657-.4745455.376725-.7472727.211908v.006c-.8181819-.506226-1.3636364-1.459813-1.3636364-2.5487849a2.7272727 2.9431699 0 0 1 2.7272727-2.94317c.5454546-1.383289 1.8-2.354536 3.2727273-2.354536 1.870909 0 3.403636 1.565767 3.545454 3.549464l.272728-.01765a2.1818181 2.3545359 0 0 1 2.181818 2.354536c0 .8829519-.436363 1.6305169-1.090909 2.0366739-.272728.158928-.594546.06474-.747273-.217799-.147273-.282545-.07091-.64161.201818-.806428v.006c.327273-.200202.545455-.582815.545455-1.0184029a1.0909091 1.177268 0 0 0 -1.090909-1.177323z" />
  </g>
</svg>
