<svg height="48" width="48" xmlns="http://www.w3.org/2000/svg" xmlns:xlink="http://www.w3.org/1999/xlink"><linearGradient id="a" gradientUnits="userSpaceOnUse" x1="399.57144" x2="399.57144" y1="545.79797" y2="517.79797"><stop offset="0" stop-color="#3889e9"/><stop offset="1" stop-color="#5ea5fb"/></linearGradient><linearGradient id="b" gradientUnits="userSpaceOnUse" x1="399.9939" x2="399.9939" y1="545.13873" y2="518.13873"><stop offset="0" stop-color="#54b60f"/><stop offset="1" stop-color="#92dc41"/></linearGradient><linearGradient gradientUnits="userSpaceOnUse" x1="25.425438" x2="23.118587" y1="1043.0168" y2="1015.5552"><stop offset="0" stop-color="#dfe2e3"/><stop offset="1" stop-color="#fdfdfe"/></linearGradient><g stroke-width="1.299897" transform="matrix(1.571433274563 0 0 1.571433274563 -605.471196597222 -811.684935025106)"><circle cx="400.57138" cy="531.79791" fill="url(#b)" r="13.999958"/><circle cx="400.57138" cy="531.79791" fill="url(#a)" r="0"/></g><path d="m421.30089 504.82281v11.46505h4.71658v2.30117l.007 9.0238c0 7.43147 6.45455 13.06987 13.8927 13.06987h21.38374v-22.68255c0-7.43816-6.44787-13.06988-13.8927-13.06988l-6.22077-.0136zm3.03694 3.05055 16.84395.0735v.0136h6.22622c6.00001 0 10.86392 4.49462 10.86392 10.03974v16.59778c0 1.84635-1.66078 3.04782-3.55784 3.04784h-14.79711c-5.99332 0-10.85576-4.49461-10.85576-10.03973l-.0136-11.37801c0-1.76646-1.54114-2.9703-2.82207-2.9703h-1.88772zm7.62704 3.37424v16.48491c0 1.74904.63991 3.28318 1.885 4.52345 1.06422 1.05044 2.34423 1.73121 3.78224 1.885h4.06921v-3.23007l-3.49392-.0136c-1.69775 0-3.14846-1.65178-3.14846-3.77544v-15.87425zm11.66089 2.70782c-1.40544 0-2.6551.52189-3.65847 1.53547-1.00287 1.01304-1.52868 2.27746-1.52868 3.70472v7.21495h3.27224v-7.21495c0-.54705.1779-.975.56848-1.36956.39188-.39581.80762-.57392 1.34643-.57392.55011 0 .95914.1772 1.35187.57392.3906.39456.56849.82251.56849 1.36956v7.21495h3.27224v-7.21495c0-.54705.17789-.975.56848-1.36956.39274-.39672.80175-.57392 1.35187-.57392.53883 0 .95456.17811 1.34643.57392.39059.39456.5685.82251.5685 1.36956-.007.68632.0204 7.17143.0204 7.17143h3.26137l-.009-7.17143c0-1.42726-.52579-2.69168-1.52867-3.70472-1.00337-1.01358-2.25304-1.53547-3.65848-1.53547-1.37956 0-2.58583.51313-3.56191 1.4525-.97374-.93781-2.17225-1.4525-3.55124-1.4525z" fill="#eaf7df" fill-rule="evenodd" transform="matrix(.67811093 0 0 .67811093 -275.72366 -330.01097)"/></svg>