<?xml version="1.0" encoding="UTF-8" standalone="no"?>
<!-- Created with Inkscape (http://www.inkscape.org/) -->

<svg
   xmlns:sketch="http://www.bohemiancoding.com/sketch/ns"
   xmlns:dc="http://purl.org/dc/elements/1.1/"
   xmlns:cc="http://creativecommons.org/ns#"
   xmlns:rdf="http://www.w3.org/1999/02/22-rdf-syntax-ns#"
   xmlns:svg="http://www.w3.org/2000/svg"
   xmlns="http://www.w3.org/2000/svg"
   xmlns:sodipodi="http://sodipodi.sourceforge.net/DTD/sodipodi-0.dtd"
   xmlns:inkscape="http://www.inkscape.org/namespaces/inkscape"
   width="16"
   height="16"
   id="svg2"
   version="1.1"
   inkscape:version="0.91 r13725"
   viewBox="0 0 16 16"
   sodipodi:docname="favorites.svg">
  <defs
     id="defs4">
    <linearGradient
       id="linearGradient5263">
      <stop
         id="stop5265"
         style="stop-color:#a0d5ff;stop-opacity:1"
         offset="0" />
      <stop
         id="stop5267"
         style="stop-color:#a0d5ff;stop-opacity:1"
         offset="1" />
    </linearGradient>
  </defs>
  <sodipodi:namedview
     id="base"
     pagecolor="#ffffff"
     bordercolor="#666666"
     borderopacity="1.0"
     inkscape:pageopacity="0.0"
     inkscape:pageshadow="2"
     inkscape:zoom="19.501328"
     inkscape:cx="-7.9032995"
     inkscape:cy="8.544523"
     inkscape:document-units="px"
     inkscape:current-layer="layer1-0"
     showgrid="true"
     inkscape:showpageshadow="false"
     borderlayer="true"
     units="px"
     inkscape:window-width="1366"
     inkscape:window-height="712"
     inkscape:window-x="0"
     inkscape:window-y="28"
     inkscape:window-maximized="1"
     inkscape:snap-global="true"
     inkscape:snap-bbox="true">
    <inkscape:grid
       type="xygrid"
       id="grid4062" />
    <sodipodi:guide
       position="2,2.0000174"
       orientation="0,12"
       id="guide4068" />
    <sodipodi:guide
       position="14,2.0000174"
       orientation="-12,0"
       id="guide4070" />
    <sodipodi:guide
       position="14,14.000017"
       orientation="0,-12"
       id="guide4072" />
  </sodipodi:namedview>
  <metadata
     id="metadata7">
    <rdf:RDF>
      <cc:Work
         rdf:about="">
        <dc:format>image/svg+xml</dc:format>
        <dc:type
           rdf:resource="http://purl.org/dc/dcmitype/StillImage" />
        <dc:title />
      </cc:Work>
    </rdf:RDF>
  </metadata>
  <g
     inkscape:label="Capa 1"
     inkscape:groupmode="layer"
     id="layer1"
     transform="translate(0,-1036.3622)">
    <g
       transform="translate(-403.69551,511.9911)"
       id="layer1-0"
       inkscape:label="Capa 1">
      <path
         inkscape:connector-curvature="0"
         d="m 418.47901,526.84045 c -0.74271,-0.7321 -1.76898,-1.09802 -3.07907,-1.09802 -0.36251,0 -0.73245,0.0635 -1.10961,0.19031 -0.37728,0.12694 -0.72816,0.29821 -1.05255,0.51362 -0.32463,0.21541 -0.60369,0.41767 -0.83776,0.60655 -0.23386,0.1889 -0.45608,0.38963 -0.66656,0.6021 -0.2106,-0.21247 -0.43282,-0.4132 -0.66667,-0.6021 -0.23397,-0.18888 -0.51315,-0.39103 -0.83777,-0.60655 -0.32461,-0.21551 -0.67549,-0.38668 -1.05266,-0.51362 -0.37715,-0.12684 -0.74709,-0.19031 -1.10962,-0.19031 -1.30997,0 -2.33625,0.36604 -3.07895,1.09802 -0.74268,0.73195 -1.11402,1.74728 -1.11402,3.04591 0,0.3955 0.0688,0.80294 0.20619,1.22191 0.13738,0.41908 0.29393,0.77632 0.46932,1.07139 0.17537,0.29508 0.37425,0.58295 0.59647,0.86336 0.22222,0.2804 0.38459,0.47364 0.48686,0.57994 0.10224,0.10622 0.18273,0.1829 0.24118,0.23007 l 5.47367,5.33051 c 0.10531,0.10645 0.23397,0.15956 0.386,0.15956 0.15202,0 0.28069,-0.0531 0.38598,-0.15933 l 5.46495,-5.31291 c 1.33917,-1.35169 2.00875,-2.67988 2.00875,-3.9845 0,-1.29863 -0.37145,-2.31396 -1.11413,-3.04591 l 0,0 z"
         id="Favourites"
         sketch:type="MSShapeGroup"
         style="fill-opacity:1;fill:#555555" />
    </g>
  </g>
</svg>
