<svg xmlns="http://www.w3.org/2000/svg" viewBox="0 0 16 16">
  <defs id="defs3051">
    <style type="text/css" id="current-color-scheme">
      .ColorScheme-Text {
        color:#4d4d4d;
      }
      </style>
  </defs>
 <path 
     style="fill:currentColor;fill-opacity:1;stroke:none" 
     class="ColorScheme-Text"
     d="M 12.904297 0.18359375 C 11.33033 0.18359375 10.052734 1.4629153 10.052734 3.0390625 C 10.052734 3.2972482 10.098 3.5418079 10.162109 3.7792969 L 5.3183594 6.2597656 C 4.7953645 5.597225 3.9956412 5.1640625 3.0878906 5.1640625 C 1.5117753 5.1640625 0.23632812 6.4426666 0.23632812 8.0195312 C 0.23632812 9.596407 1.5117753 10.873047 3.0878906 10.873047 C 4.0205874 10.873047 4.8397616 10.421014 5.3613281 9.7285156 L 10.181641 12.195312 C 10.106127 12.451346 10.052734 12.719009 10.052734 13 C 10.052734 14.576876 11.330319 15.853516 12.904297 15.853516 C 14.481841 15.853516 15.757812 14.576876 15.757812 13 C 15.757812 11.421711 14.481841 10.144531 12.904297 10.144531 L 12.902344 10.144531 C 11.99601 10.144531 11.198056 10.576436 10.675781 11.238281 L 5.8300781 8.7578125 C 5.8935231 8.5210411 5.9394531 8.2769995 5.9394531 8.0195312 C 5.9394531 7.7392579 5.8860719 7.4754897 5.8105469 7.21875 L 10.632812 4.75 C 11.152253 5.4417921 11.973028 5.8945312 12.904297 5.8945312 C 14.481852 5.8945312 15.757812 4.6166557 15.757812 3.0390625 C 15.757812 1.4629153 14.481852 0.18359375 12.904297 0.18359375 z "
     />
</svg>
