<?xml version="1.0" encoding="UTF-8" standalone="no"?>
<svg
   xmlns:dc="http://purl.org/dc/elements/1.1/"
   xmlns:cc="http://creativecommons.org/ns#"
   xmlns:rdf="http://www.w3.org/1999/02/22-rdf-syntax-ns#"
   xmlns:svg="http://www.w3.org/2000/svg"
   xmlns="http://www.w3.org/2000/svg"
   xmlns:sodipodi="http://sodipodi.sourceforge.net/DTD/sodipodi-0.dtd"
   xmlns:inkscape="http://www.inkscape.org/namespaces/inkscape"
   version="1.1"
   width="24"
   height="24"
   viewBox="0 0 24 24"
   id="svg5449"
   inkscape:version="0.91 r13725"
   sodipodi:docname="folder-games.svg">
  <metadata
     id="metadata5457">
    <rdf:RDF>
      <cc:Work
         rdf:about="">
        <dc:format>image/svg+xml</dc:format>
        <dc:type
           rdf:resource="http://purl.org/dc/dcmitype/StillImage" />
      </cc:Work>
    </rdf:RDF>
  </metadata>
  <defs
     id="defs5455" />
  <sodipodi:namedview
     pagecolor="#ffffff"
     bordercolor="#666666"
     borderopacity="1"
     objecttolerance="10"
     gridtolerance="10"
     guidetolerance="10"
     inkscape:pageopacity="0"
     inkscape:pageshadow="2"
     inkscape:window-width="640"
     inkscape:window-height="480"
     id="namedview5453"
     showgrid="false"
     inkscape:zoom="9.8333333"
     inkscape:cx="12"
     inkscape:cy="12"
     inkscape:window-x="0"
     inkscape:window-y="28"
     inkscape:window-maximized="0"
     inkscape:current-layer="svg5449" />
  <path
     d="M7,6H17A6,6 0 0,1 23,12A6,6 0 0,1 17,18C15.22,18 13.63,17.23 12.53,16H11.47C10.37,17.23 8.78,18 7,18A6,6 0 0,1 1,12A6,6 0 0,1 7,6M6,9V11H4V13H6V15H8V13H10V11H8V9H6M15.5,12A1.5,1.5 0 0,0 14,13.5A1.5,1.5 0 0,0 15.5,15A1.5,1.5 0 0,0 17,13.5A1.5,1.5 0 0,0 15.5,12M18.5,9A1.5,1.5 0 0,0 17,10.5A1.5,1.5 0 0,0 18.5,12A1.5,1.5 0 0,0 20,10.5A1.5,1.5 0 0,0 18.5,9Z"
     id="path5451"
     style="fill:#555555" />
</svg>
