<svg xmlns="http://www.w3.org/2000/svg" viewBox="0 0 16 16">
  <defs id="defs3051">
    <style type="text/css" id="current-color-scheme">
      .ColorScheme-Text {
        color:#4d4d4d;
      }
      </style>
  </defs>
 <path 
           style="fill:currentColor;fill-opacity:1;stroke:none" 
           class="ColorScheme-Text"
     d="M 8.0585938 0.21875 C 7.9772756 0.21875 7.8971199 0.22071219 7.8164062 0.22265625 C 7.0235357 0.24676263 6.2597474 0.3883181 5.5429688 0.63085938 C 5.4214791 0.6719763 5.3003903 0.71685883 5.1816406 0.76367188 C 5.1448817 0.77815514 5.1087222 0.79362447 5.0722656 0.80859375 C 4.9907526 0.84212883 4.9101384 0.8759498 4.8300781 0.91210938 C 4.7142048 0.96459907 4.6010248 1.020328 4.4882812 1.078125 C 4.3755085 1.1358637 4.2638032 1.1948346 4.1542969 1.2578125 C 3.7137266 1.5111822 3.2993836 1.8075883 2.9179688 2.1386719 C 2.8727269 2.1779419 2.8294913 2.2174829 2.7851562 2.2578125 C 2.6922353 2.3421848 2.6003886 2.4288803 2.5117188 2.5175781 C 2.4230878 2.6063246 2.3363523 2.6961655 2.2519531 2.7890625 C 2.1253349 2.9283449 2.0031674 3.0724781 1.8867188 3.2207031 C 1.6538019 3.5170463 1.442849 3.8316291 1.2539062 4.1601562 C 1.1909189 4.2696362 1.129978 4.3794416 1.0722656 4.4921875 C 1.0434045 4.5485653 1.0158748 4.6049637 0.98828125 4.6621094 C 0.90559814 4.8336146 0.82811264 5.009385 0.7578125 5.1875 C 0.73441162 5.2468911 0.71148896 5.307116 0.68945312 5.3671875 C 0.60140732 5.6074834 0.52548493 5.8528773 0.4609375 6.1035156 C 0.4290538 6.2286258 0.39917786 6.3548136 0.37304688 6.4824219 L 0.37304688 6.484375 C 0.34691588 6.612061 0.32448074 6.7393453 0.3046875 6.8691406 C 0.28489426 6.9990235 0.26931488 7.129814 0.25585938 7.2617188 C 0.22904586 7.5254114 0.21484375 7.7936063 0.21484375 8.0644531 C 0.21484375 8.3352611 0.22904586 8.6034462 0.25585938 8.8671875 C 0.26921738 8.9990436 0.28479675 9.129912 0.3046875 9.2597656 C 0.32448074 9.3895707 0.34701339 9.5188761 0.37304688 9.6464844 C 0.39917786 9.7740927 0.42876129 9.9001148 0.4609375 10.025391 C 0.52548493 10.276029 0.60143657 10.521423 0.68945312 10.761719 C 0.73342729 10.881833 0.78048776 10.999911 0.83007812 11.117188 C 0.87961 11.234453 0.93325993 11.350513 0.98828125 11.464844 C 1.0157773 11.521999 1.0434045 11.580321 1.0722656 11.636719 C 1.1299878 11.749436 1.1908896 11.859241 1.2539062 11.96875 C 1.4428392 12.297277 1.6538214 12.611782 1.8867188 12.908203 C 2.0031869 13.05638 2.1253349 13.200503 2.2519531 13.339844 C 2.3363913 13.43277 2.4229416 13.52263 2.5117188 13.611328 C 2.6004471 13.700075 2.692284 13.786663 2.7851562 13.871094 C 3.2030668 14.250944 3.6614744 14.585745 4.1542969 14.869141 C 4.263813 14.932031 4.3755085 14.993062 4.4882812 15.050781 C 4.7137976 15.166297 4.9441119 15.271511 5.1816406 15.365234 C 5.3003611 15.412086 5.4214791 15.45694 5.5429688 15.498047 C 6.3327387 15.765326 7.1785646 15.910156 8.0585938 15.910156 C 8.6585631 15.910156 9.2432906 15.842326 9.8046875 15.714844 C 10.066719 15.655258 10.322845 15.5831 10.574219 15.498047 C 10.695738 15.457027 10.816719 15.412018 10.935547 15.365234 C 11.173046 15.271628 11.405343 15.166346 11.630859 15.050781 C 11.743632 14.993043 11.853433 14.934043 11.962891 14.871094 C 12.455742 14.587747 12.916074 14.250896 13.333984 13.871094 C 13.426905 13.786624 13.51677 13.700026 13.605469 13.611328 C 13.694197 13.522679 13.780816 13.432712 13.865234 13.339844 C 13.991823 13.200561 14.114049 13.056428 14.230469 12.908203 C 14.414751 12.673739 14.585167 12.428627 14.742188 12.173828 C 14.783724 12.106466 14.825745 12.037521 14.865234 11.96875 C 14.928222 11.859299 14.987209 11.749494 15.044922 11.636719 C 15.073783 11.580341 15.103266 11.521989 15.130859 11.464844 C 15.186046 11.350562 15.237509 11.234512 15.287109 11.117188 C 15.336739 10.999862 15.383799 10.881901 15.427734 10.761719 C 15.51578 10.521423 15.591712 10.27599 15.65625 10.025391 C 15.688524 9.9000273 15.71801 9.7740927 15.744141 9.6464844 C 15.770174 9.5187692 15.794562 9.3895901 15.814453 9.2597656 C 15.834246 9.129912 15.849826 8.9990727 15.863281 8.8671875 C 15.890095 8.6035046 15.904297 8.3352999 15.904297 8.0644531 C 15.904297 7.7936452 15.890095 7.5254017 15.863281 7.2617188 C 15.849826 7.1298043 15.834344 6.9990235 15.814453 6.8691406 C 15.79466 6.7393356 15.770272 6.6119833 15.744141 6.484375 C 15.71801 6.3567667 15.688524 6.2287619 15.65625 6.1035156 C 15.591703 5.8529065 15.515722 5.6074834 15.427734 5.3671875 C 15.405796 5.307116 15.382678 5.2469203 15.359375 5.1875 C 15.289172 5.009385 15.213503 4.8355677 15.130859 4.6640625 C 15.103363 4.6069071 15.073783 4.5505379 15.044922 4.4941406 C 14.9872 4.3813947 14.928241 4.269646 14.865234 4.1601562 C 14.676292 3.8315999 14.463366 3.5171241 14.230469 3.2207031 C 14.114001 3.0725364 13.991882 2.9284032 13.865234 2.7890625 C 13.780894 2.6962335 13.694217 2.606276 13.605469 2.5175781 C 13.516838 2.4288317 13.426857 2.342214 13.333984 2.2578125 C 13.15409 2.0942877 12.966053 1.9393567 12.771484 1.7929688 C 12.514055 1.5992622 12.243545 1.4211714 11.962891 1.2597656 C 11.853384 1.1968752 11.743583 1.1358345 11.630859 1.078125 C 11.579572 1.0518802 11.528435 1.0270315 11.476562 1.0019531 C 11.414258 0.97182017 11.350282 0.94058989 11.287109 0.91210938 C 11.260686 0.90015338 11.233552 0.89057063 11.207031 0.87890625 C 11.117035 0.83934457 11.027288 0.79983144 10.935547 0.76367188 C 10.934572 0.76314697 10.932616 0.76272966 10.931641 0.76171875 C 10.833922 0.72332351 10.734375 0.68701611 10.634766 0.65234375 C 10.61468 0.64553953 10.5945 0.63766359 10.574219 0.63085938 C 10.341946 0.55222203 10.104759 0.48452045 9.8632812 0.42773438 C 9.7878134 0.40994619 9.7129764 0.39455595 9.6367188 0.37890625 C 9.5817266 0.36763069 9.526056 0.35571506 9.4707031 0.34570312 C 9.0580774 0.2706623 8.635544 0.2284405 8.203125 0.22070312 C 8.1554457 0.2198283 8.1065168 0.21875 8.0585938 0.21875 z M 8.0585938 0.640625 C 8.5659151 0.640625 9.0619606 0.69162608 9.5410156 0.7890625 C 9.5209299 0.84194101 9.4557045 0.81818558 9.4003906 0.84375 C 9.3485187 0.86785638 9.3285856 0.91733363 9.2734375 0.92773438 C 9.1201617 0.95660371 8.9939819 0.88967109 8.8613281 0.89453125 C 8.8554779 0.9518811 8.9253389 0.98545714 8.9609375 1.0039062 C 9.0811693 1.066894 9.180109 1.0584784 9.3496094 1.0546875 C 9.4364851 1.0527434 9.5366891 1.0806201 9.6113281 1.0292969 C 9.6586174 0.9970254 9.655726 0.92426899 9.6953125 0.88476562 C 9.7121806 0.86804669 9.7357858 0.8521795 9.7636719 0.83789062 C 9.84694 0.85752567 9.9294644 0.8779367 10.011719 0.90039062 C 9.9978729 0.95715727 9.9074298 0.94354761 9.90625 1.0195312 C 9.9648497 1.0547189 10.101596 1.0013806 10.154297 0.94140625 C 10.174675 0.94723844 10.194563 0.95286057 10.214844 0.95898438 C 10.334061 0.99524114 10.451716 1.0342093 10.568359 1.0761719 C 10.734623 1.136049 10.898034 1.2022848 11.058594 1.2734375 C 11.027783 1.2916145 10.993903 1.3145503 10.966797 1.3144531 C 10.897082 1.3140157 10.868716 1.2214495 10.791016 1.2558594 C 10.78419 1.3459667 10.886498 1.3822057 10.951172 1.4238281 C 11.02118 1.4689304 11.094248 1.5134123 11.119141 1.5917969 C 11.050596 1.7371156 10.940582 1.5849564 10.832031 1.5839844 C 10.712404 1.583129 10.53945 1.8103081 10.4375 1.625 C 10.462851 1.5268151 10.571194 1.5109935 10.597656 1.4140625 C 10.574353 1.4179506 10.551723 1.426507 10.529297 1.4355469 C 10.489223 1.451391 10.449086 1.4721727 10.408203 1.4941406 C 10.354576 1.52301 10.298259 1.5521174 10.234375 1.5664062 C 10.17558 1.5793344 10.118931 1.576536 10.066406 1.5917969 C 9.9655584 1.6213466 9.8937979 1.6950272 9.7871094 1.734375 C 9.7454753 1.7496359 9.6956841 1.7452824 9.6523438 1.7597656 C 9.5505888 1.7936895 9.4291814 1.8552747 9.3242188 1.9121094 C 9.2169061 1.9700424 9.0959309 2.0300936 9.0292969 2.0878906 C 8.993318 2.1188984 8.8991065 2.228601 8.9023438 2.2636719 C 8.9062439 2.3137315 9.0015467 2.3316253 9.0039062 2.3828125 C 9.0019562 2.4138203 8.9483992 2.4803467 8.9863281 2.5253906 C 9.0208444 2.5664103 9.0907982 2.5339288 9.1640625 2.5429688 C 9.2928453 2.5589101 9.3777718 2.6642482 9.4765625 2.71875 C 9.5512503 2.7599641 9.661753 2.809659 9.7460938 2.8203125 C 9.8618794 2.8347958 9.9920272 2.7862717 10.007812 2.8789062 C 10.023122 2.9679444 9.897613 2.9988151 9.8886719 3.0546875 C 9.9510742 3.1369214 9.8473637 3.175961 9.8476562 3.2480469 C 9.8479294 3.3063688 9.9196393 3.3951028 9.9824219 3.4003906 C 10.067348 3.4071948 10.191276 3.3171344 10.226562 3.2324219 C 10.26849 3.1314861 10.251087 2.9934269 10.328125 2.9199219 C 10.72087 2.9307114 11.052656 2.7422161 11.027344 2.3398438 C 11.024419 2.3000876 11.00138 2.2487515 11.009766 2.2050781 C 11.022051 2.1400492 11.13402 2.0861402 11.119141 2.0039062 C 11.161457 1.990881 11.187339 1.9564612 11.208984 1.9179688 C 11.241258 1.8606188 11.26611 1.7950652 11.326172 1.7734375 C 11.330072 1.7714934 11.333308 1.7705034 11.337891 1.7695312 C 11.372212 1.761755 11.409512 1.7681866 11.447266 1.7792969 C 11.514543 1.7991263 11.587684 1.8335684 11.667969 1.828125 C 11.708823 1.8252089 11.761676 1.7890897 11.802734 1.7949219 C 11.885125 1.8063918 11.934189 1.9061273 11.996094 1.953125 C 12.050793 1.9949223 12.109084 1.981412 12.123047 2.0371094 C 12.106861 2.1305216 12.04161 2.1349505 12.046875 2.2207031 L 12.046875 2.2226562 C 12.052725 2.2997384 12.133793 2.3595571 12.173828 2.3671875 C 12.235255 2.3786575 12.323436 2.3455673 12.384766 2.3164062 C 12.450971 2.2851068 12.51053 2.2169196 12.568359 2.1699219 C 12.650945 2.2332983 12.732605 2.2986308 12.8125 2.3652344 C 12.821275 2.4026576 12.827153 2.4361416 12.830078 2.4589844 C 12.841876 2.5499665 12.818755 2.6193845 12.822266 2.703125 C 12.833089 2.8449833 13.011505 2.8299656 13.099609 2.9042969 C 13.12613 2.926848 13.136167 2.9843748 13.158203 3.0136719 C 13.201007 3.0706329 13.253126 3.0720605 13.259766 3.1328125 C 13.275561 3.2781312 13.128781 3.2889982 13.142578 3.4511719 C 13.112157 3.5140623 13.034814 3.5118363 13.041016 3.5957031 C 13.050766 3.7285215 13.241068 3.6268209 13.292969 3.7304688 C 13.32105 3.7861661 13.288054 3.826835 13.267578 3.90625 C 13.333003 3.9840125 13.334097 4.1072566 13.21875 4.1074219 C 13.148645 4.1074219 13.129479 4.0331216 13.058594 4.015625 C 13.019202 4.0058075 12.964249 4.0070868 12.914062 3.9980469 C 12.871161 3.9902706 12.819946 3.9775165 12.779297 3.9726562 C 12.675251 3.9603115 12.563478 3.9915178 12.501953 3.9316406 C 12.602245 3.798657 12.734333 3.6672591 12.863281 3.5527344 C 12.9016 3.5185189 12.984364 3.4943193 12.964844 3.4257812 C 12.893081 3.3628908 12.805978 3.4306464 12.738281 3.46875 C 12.667201 3.5087005 12.58216 3.5662273 12.501953 3.578125 C 12.362562 3.5987321 12.176394 3.5370649 12.0625 3.6113281 C 12.046802 3.6748018 12.192136 3.6502902 12.171875 3.7460938 C 12.116103 3.754842 12.064415 3.7596816 12.021484 3.7207031 C 11.982288 3.6855156 12.003867 3.6325573 11.978516 3.6113281 C 11.935322 3.5755574 11.773724 3.566169 11.701172 3.578125 C 11.612639 3.5925111 11.533666 3.6451082 11.523438 3.7207031 C 11.629794 3.7704711 11.805168 3.6698305 11.84375 3.796875 C 11.785443 3.9015822 11.649541 3.9592189 11.667969 4.0996094 C 11.674794 4.1538487 11.738774 4.2263169 11.785156 4.234375 C 11.831763 4.2421513 11.857307 4.1968949 11.902344 4.2011719 C 11.950023 4.206032 11.940127 4.2582623 11.996094 4.25 C 12.077217 4.2153957 12.121894 4.102134 12.214844 4.1074219 C 12.326378 4.2425926 12.114375 4.3086862 11.996094 4.3515625 C 11.861188 4.4003585 11.6848 4.4274963 11.582031 4.4707031 C 11.528112 4.493157 11.325697 4.6891837 11.296875 4.5371094 C 11.276302 4.4274351 11.396349 4.4594035 11.421875 4.3691406 C 11.291415 4.3437706 11.171455 4.4256106 11.052734 4.4707031 C 10.883341 4.5346628 10.595571 4.5737175 10.554688 4.7636719 C 10.546886 4.8016783 10.570273 4.8730966 10.544922 4.8984375 C 10.524739 4.9188502 10.404371 4.9235209 10.351562 4.9414062 C 10.270244 4.9693037 10.198671 5.0274752 10.148438 5.0410156 C 10.110508 5.0514164 10.055285 5.0493594 10.03125 5.0585938 C 9.964265 5.084547 9.9401337 5.174216 9.8632812 5.234375 C 9.8317876 5.2589674 9.7613866 5.2779476 9.7363281 5.3027344 C 9.6926465 5.346087 9.6863639 5.454441 9.609375 5.4707031 C 9.5604282 5.4745913 9.5206896 5.4348961 9.4746094 5.4628906 C 9.4687592 5.5702029 9.5135011 5.7157205 9.4667969 5.8242188 C 9.3669629 5.9054806 9.2566167 5.9615547 9.1289062 6.0332031 C 9.0583136 6.0729592 8.9954623 6.0842809 8.9101562 6.1269531 C 8.8496065 6.1570861 8.794227 6.2285212 8.7246094 6.2695312 C 8.5636893 6.36411 8.3698554 6.475374 8.3710938 6.7148438 C 8.3713668 6.766653 8.3976666 6.8241984 8.4042969 6.8847656 C 8.408197 6.9204392 8.4003967 6.9552108 8.4042969 6.9941406 C 8.4143398 7.0821095 8.4781071 7.1931543 8.4042969 7.2539062 C 8.2908416 7.2074432 8.1457548 7.1919776 8.0664062 7.1113281 C 8.0446629 7.0283166 8.1116054 6.9603897 8.1015625 6.8847656 C 8.0937622 6.8240137 8.006807 6.7148173 7.9570312 6.7070312 C 7.9057443 6.699255 7.8595851 6.7542769 7.8066406 6.75 C 7.7436533 6.7451398 7.6844047 6.6577982 7.6035156 6.6484375 C 7.4849609 6.6346347 7.3969332 6.6745242 7.265625 6.65625 C 7.1385095 6.7240006 7.103057 6.8459112 6.9472656 6.8339844 C 6.8923711 6.8300962 6.8407601 6.7884158 6.7773438 6.7753906 C 6.7086036 6.761199 6.6047708 6.735277 6.5332031 6.7402344 C 6.3897265 6.7499547 6.285354 6.8540576 6.1621094 6.9179688 C 6.0533635 6.974541 5.8994807 7.0449213 5.8671875 7.1621094 C 5.8494418 7.2251942 5.8642227 7.3127134 5.8417969 7.3710938 C 5.8268788 7.409489 5.7953789 7.44393 5.7753906 7.4804688 C 5.6809096 7.6527905 5.6021044 7.8810383 5.6738281 8.1289062 C 5.684456 8.1656491 5.7777168 8.3741211 5.8164062 8.4160156 C 5.859893 8.4625759 5.9875654 8.53192 6.0605469 8.5332031 C 6.1222667 8.5341752 6.1960311 8.5009267 6.2558594 8.4902344 C 6.3251845 8.4778896 6.4116025 8.4771524 6.4746094 8.4570312 C 6.656834 8.3988066 6.6203148 8.1532073 6.8027344 8.0703125 C 6.8823949 8.0343473 6.9752094 8.0267244 7.1152344 8.0195312 C 7.159696 8.0568574 7.1799709 8.1227945 7.1738281 8.1796875 C 7.1689529 8.2226513 7.1274071 8.2610082 7.1054688 8.3222656 C 7.0863579 8.3759218 7.0833688 8.4391082 7.0644531 8.4824219 C 7.0393947 8.5390913 6.9829861 8.58144 6.9628906 8.6347656 C 6.9497276 8.6694671 6.958186 8.7128218 6.9472656 8.7441406 C 6.9278624 8.7995464 6.8522999 8.8375216 6.8867188 8.8945312 C 7.0671883 8.9661701 7.2858715 8.8751359 7.4433594 8.9042969 C 7.5098569 8.9163501 7.6477227 8.9953791 7.6464844 9.0976562 C 7.6456653 9.1741552 7.5864128 9.2228807 7.578125 9.3066406 C 7.5678871 9.4119311 7.5242115 9.541706 7.5195312 9.6269531 C 7.511731 9.766566 7.7242173 10.007774 7.8730469 10.005859 C 8.0332746 10.003915 8.127265 9.8461997 8.3203125 9.9296875 C 8.3843724 9.9572932 8.4526986 10.061773 8.5234375 10.056641 C 8.5817447 10.052752 8.6680493 9.9494855 8.7070312 9.8789062 C 8.7545156 9.7928815 8.7579535 9.7211161 8.8417969 9.6777344 C 8.9322803 9.6309797 9.0053275 9.652436 9.1210938 9.609375 C 9.1727707 9.590226 9.2170944 9.5575649 9.2636719 9.5253906 C 9.3045259 9.4973961 9.3474918 9.4236847 9.3984375 9.4746094 C 9.465715 9.5416795 9.3160072 9.58053 9.3730469 9.6523438 C 9.4899635 9.7141649 9.5501032 9.5378489 9.6347656 9.5351562 C 9.6617741 9.5343106 9.7546748 9.5874524 9.8027344 9.6191406 C 9.8684518 9.6622016 9.8909622 9.722292 9.9628906 9.7363281 C 10.009107 9.7450764 10.08348 9.7196701 10.148438 9.7285156 C 10.234436 9.7407632 10.286391 9.8144441 10.351562 9.8125 C 10.430931 9.8105559 10.46914 9.723535 10.537109 9.7109375 C 10.68588 9.6837206 10.741138 9.7275321 10.806641 9.8203125 C 10.880061 9.8330461 10.882009 9.7351213 10.949219 9.7695312 C 10.912362 9.8428225 10.962643 9.8763301 10.992188 9.9375 C 11.011298 9.9767701 11.007547 10.004474 11.025391 10.021484 C 11.065562 10.059782 11.144174 10.060427 11.203125 10.097656 C 11.265332 10.136732 11.299731 10.209171 11.371094 10.291016 C 11.444514 10.374708 11.567966 10.462636 11.666016 10.46875 C 11.758644 10.474582 11.833577 10.441743 11.910156 10.451172 C 12.084512 10.472557 12.192466 10.55862 12.314453 10.652344 C 12.382608 10.704639 12.444917 10.742039 12.466797 10.804688 C 12.482202 10.848429 12.474636 10.906029 12.492188 10.955078 C 12.529434 11.059873 12.682306 11.11187 12.626953 11.292969 C 12.652304 11.346139 12.708426 11.365173 12.769531 11.402344 C 12.818381 11.432088 12.861138 11.493438 12.914062 11.501953 C 12.948287 11.507785 12.985984 11.492488 13.015625 11.494141 C 13.111471 11.500945 13.176712 11.538235 13.259766 11.570312 C 13.311248 11.590143 13.375884 11.597862 13.410156 11.621094 C 13.45296 11.649963 13.45896 11.74593 13.511719 11.771484 C 13.546235 11.788203 13.624201 11.76468 13.681641 11.771484 C 13.772124 11.781885 13.894835 11.838288 13.976562 11.839844 C 14.026193 11.840816 14.067315 11.818864 14.111328 11.822266 C 14.213658 11.830042 14.293669 11.894633 14.373047 11.966797 C 13.357712 13.603659 11.724109 14.818951 9.8007812 15.283203 C 9.793956 15.209426 9.772749 15.134052 9.7695312 15.060547 C 9.762706 14.900638 9.7882397 14.788383 9.7617188 14.640625 C 9.7421204 14.528861 9.7161479 14.357436 9.6757812 14.287109 C 9.6306371 14.208861 9.4545672 14.077053 9.3652344 14.027344 C 9.3062447 13.994683 9.2361202 13.982763 9.171875 13.951172 C 9.0346191 13.883907 8.7672789 13.741223 8.7070312 13.605469 C 8.6895781 13.566393 8.6925488 13.514328 8.6738281 13.470703 C 8.6372643 13.384484 8.5605394 13.309721 8.5058594 13.226562 C 8.4017547 13.067888 8.317782 12.868924 8.2109375 12.705078 C 8.1569205 12.621872 8.1100051 12.527211 8.0507812 12.460938 C 8.0160699 12.421861 7.90488 12.38498 7.890625 12.326172 C 7.8716118 12.248312 7.8131003 12.141588 7.8222656 12.082031 C 7.8344536 12.001741 7.9904781 11.938506 7.9902344 11.865234 C 7.9899614 11.803024 7.9080879 11.76573 7.890625 11.712891 C 7.8481134 11.58433 7.9140442 11.509413 7.9648438 11.402344 C 7.9816144 11.367156 7.9981718 11.309147 8.015625 11.283203 C 8.0465337 11.236934 8.1092343 11.223936 8.1503906 11.173828 C 8.1734015 11.145736 8.1887189 11.088555 8.21875 11.048828 C 8.2828099 10.963873 8.3857541 10.932152 8.4121094 10.855469 C 8.4335602 10.792967 8.4471284 10.479523 8.421875 10.375 C 8.4072495 10.314442 8.3496733 10.264332 8.328125 10.207031 C 8.2900011 10.105503 8.2824533 9.9939066 8.1777344 9.9960938 C 8.1130894 9.9970658 8.0669272 10.070132 8.0253906 10.115234 C 8.0154453 10.175209 8.0196287 10.239499 7.9570312 10.257812 C 7.8611851 10.2861 7.8246786 10.156883 7.7128906 10.123047 C 7.668429 10.109536 7.59814 10.110098 7.5703125 10.097656 C 7.4887019 10.061108 7.4629611 9.9427919 7.3769531 9.8964844 C 7.3049954 9.8580891 7.2428126 9.8715023 7.1992188 9.8125 C 7.181083 9.7718691 7.1943283 9.6970022 7.1894531 9.6425781 C 7.0971172 9.5886304 7.0196754 9.3873275 6.9121094 9.3398438 C 6.8408342 9.3081554 6.7317745 9.3114802 6.6425781 9.28125 C 6.6006515 9.2670583 6.5672556 9.2496631 6.5234375 9.2402344 C 6.4694205 9.2281812 6.4148857 9.226074 6.3730469 9.2050781 C 6.2061694 9.1224555 6.1168154 8.8556029 5.9101562 8.8613281 C 5.8220129 8.8632722 5.736125 8.9457985 5.65625 8.9453125 C 5.576882 8.9448751 5.4433402 8.8820604 5.34375 8.8359375 C 5.2402986 8.7879192 5.1263411 8.762297 5.0410156 8.71875 C 4.9720805 8.6835625 4.9235191 8.6184986 4.8632812 8.5917969 C 4.817162 8.5713842 4.7507318 8.5686667 4.7128906 8.5507812 C 4.6590686 8.525314 4.6021609 8.4703593 4.5351562 8.4238281 C 4.4715839 8.3798923 4.4028867 8.3127815 4.4003906 8.2558594 C 4.3974655 8.1899556 4.4619247 8.1336501 4.46875 8.0703125 C 4.4904933 7.8699671 4.3411044 7.7257861 4.2480469 7.6074219 C 4.1791118 7.519453 4.0984465 7.444689 4.0292969 7.3632812 C 4.033197 7.3092363 4.033197 7.3000318 4.0292969 7.2460938 C 3.9769374 7.1953536 3.9322865 7.1189719 3.8769531 7.0429688 C 3.8269337 6.9744404 3.731328 6.9010967 3.71875 6.8242188 C 3.7032469 6.72964 3.7547289 6.6484101 3.71875 6.5566406 C 3.6587852 6.4043525 3.445404 6.4724621 3.4726562 6.6738281 C 3.4804566 6.7293311 3.5583574 6.8043483 3.5820312 6.859375 C 3.6063098 6.9154612 3.6023791 6.9851685 3.625 7.0527344 C 3.6467433 7.1174717 3.7117737 7.1731621 3.734375 7.2460938 C 3.7701588 7.3612795 3.7698756 7.4846423 3.8027344 7.5566406 C 3.831693 7.6206003 3.9367716 7.6823336 3.8769531 7.7597656 C 3.7971951 7.7762902 3.7683501 7.6967079 3.71875 7.6503906 C 3.691059 7.6246318 3.5894683 7.5755605 3.5742188 7.515625 C 3.5614457 7.4661486 3.6065199 7.3984579 3.5917969 7.3378906 C 3.5628383 7.2191667 3.3231139 7.2159246 3.3222656 7.09375 C 3.3218269 7.0170567 3.4209682 7.00775 3.421875 6.9335938 C 3.4225283 6.852429 3.311105 6.7836636 3.2871094 6.7148438 C 3.2651711 6.6517588 3.2620967 6.5516468 3.2539062 6.4628906 C 3.246106 6.3795875 3.2553413 6.2830207 3.2363281 6.21875 C 3.21907 6.1609141 3.1319635 6.0818183 3.0761719 6.0507812 C 3.0023616 6.0097615 2.944338 6.0268684 2.9082031 5.9667969 C 2.8768069 5.9143072 2.8564346 5.8046191 2.8496094 5.7480469 C 2.8374214 5.6468779 2.845694 5.5357076 2.8398438 5.4277344 C 2.8339934 5.3195959 2.823268 5.2158157 2.8398438 5.0996094 C 2.8815753 5.0182504 2.9594318 4.9790481 3.0019531 4.8984375 C 3.0315942 4.8423513 3.0349156 4.7725539 3.0683594 4.7128906 C 3.1300792 4.6030025 3.2650438 4.5028545 3.3554688 4.3945312 C 3.4529724 4.2778389 3.5425502 4.1646419 3.5996094 4.03125 C 3.6200851 3.9839121 3.6739134 3.8803153 3.6660156 3.8222656 C 3.6549002 3.7413926 3.5035638 3.6744436 3.515625 3.578125 C 3.5234253 3.5184423 3.6074908 3.5178798 3.6328125 3.4589844 C 3.6457805 3.4285598 3.6575206 3.3448991 3.6582031 3.3085938 C 3.6591782 3.227429 3.6164319 3.1433069 3.6328125 3.0566406 C 3.646658 2.982669 3.757802 2.9522778 3.7011719 2.8710938 C 3.6450098 2.7907067 3.5426273 2.913429 3.4804688 2.8613281 C 3.423429 2.8135042 3.4927817 2.755957 3.4980469 2.6679688 C 3.4999969 2.6329755 3.4767635 2.5942737 3.4804688 2.5683594 C 3.4853439 2.5307418 3.5605164 2.4666597 3.5410156 2.4414062 C 3.5105945 2.4029138 3.477357 2.3257458 3.4296875 2.2636719 C 4.3697691 1.511689 5.4966836 0.98141859 6.7285156 0.7578125 L 6.7304688 0.7578125 C 6.7457768 0.78386294 6.757383 0.8147991 6.7949219 0.82617188 C 6.8683421 0.78816544 6.9425485 0.82908797 7.0234375 0.82617188 C 7.1022205 0.82325577 7.1729289 0.78717281 7.2597656 0.80078125 C 7.4132266 0.82479042 7.6271326 0.97591944 7.7480469 0.89453125 C 7.778468 0.87392419 7.7713321 0.83651906 7.7988281 0.78320312 C 7.8206689 0.74053095 7.8540367 0.69514559 7.875 0.64257812 C 7.9361348 0.64063406 7.9971761 0.640625 8.0585938 0.640625 z "
     />
</svg>
