<svg xmlns="http://www.w3.org/2000/svg" viewBox="0 0 16 16">
  <defs id="defs3051">
    <style type="text/css" id="current-color-scheme">
      .ColorScheme-Text {
        color:#4d4d4d;
      }
      </style>
  </defs>
 <path 
     style="fill:currentColor;fill-opacity:1;stroke:none" 
     class="ColorScheme-Text"
     d="M 8.015625 1.8164062 C 5.1897235 1.8164062 2.515495 2.9493734 0.484375 5.0078125 C 0.10239232 5.3950349 0.089715068 6.037278 0.45703125 6.4414062 C 0.8243467 6.8455097 1.4324189 6.8579313 1.8144531 6.4707031 C 3.4859303 4.7758351 5.6882263 3.84375 8.015625 3.84375 C 10.338547 3.84375 12.540836 4.7764323 14.216797 6.4726562 C 14.403011 6.6605144 14.642169 6.7558594 14.880859 6.7558594 C 15.132982 6.7558594 15.385443 6.6508236 15.574219 6.4433594 C 15.940848 6.0392377 15.927603 5.3970055 15.544922 5.0097656 C 13.50997 2.9506577 10.835764 1.8164062 8.015625 1.8164062 z M 8.0175781 5.1953125 C 5.9704645 5.1953125 4.0458343 6.0316196 2.5996094 7.5507812 C 2.2231287 7.9454463 2.2219818 8.5876909 2.5957031 8.984375 C 2.9694119 9.3810459 3.5774944 9.3829412 3.953125 8.9882812 C 5.0378036 7.8495864 6.4791716 7.2226562 8.015625 7.2226562 C 9.5488825 7.2226562 10.991536 7.8507851 12.078125 8.9921875 C 12.264979 9.1888333 12.510771 9.2871094 12.755859 9.2871094 C 13.00223 9.2871094 13.250005 9.1862947 13.4375 8.9882812 C 13.811018 8.5909218 13.809871 7.9493526 13.433594 7.5546875 C 11.984813 6.0328264 10.061496 5.1953125 8.0175781 5.1953125 z M 8.015625 8.5742188 C 6.7517826 8.5742188 5.543243 9.1390254 4.6972656 10.125 C 4.3408025 10.539248 4.3707603 11.180226 4.7636719 11.556641 C 5.1572282 11.93373 5.7633465 11.901938 6.1191406 11.486328 C 6.609318 10.915293 7.2822741 10.601562 8.015625 10.601562 C 8.7368202 10.601562 9.4303209 10.923925 9.9160156 11.490234 C 10.105432 11.710542 10.365858 11.824219 10.626953 11.824219 C 10.857323 11.824219 11.086514 11.736924 11.269531 11.560547 C 11.662413 11.184133 11.694324 10.54384 11.337891 10.128906 C 10.489351 9.1409113 9.2775527 8.5742188 8.015625 8.5742188 z M 7.8964844 11.953125 C 7.2560905 11.953125 6.7363281 12.473635 6.7363281 13.115234 C 6.7363281 13.756841 7.2560905 14.275391 7.8964844 14.275391 C 8.536874 14.275391 9.0546875 13.756841 9.0546875 13.115234 C 9.0546875 12.473635 8.536874 11.953125 7.8964844 11.953125 z "
     />
</svg>
