<svg xmlns="http://www.w3.org/2000/svg" viewBox="0 0 22 22">
 <defs id="defs3051">
   <style type="text/css" id="current-color-scheme">
     .ColorScheme-Text {
       color:#d24d57;
     }
     </style>
 </defs>
   <path
      style="fill:currentColor;fill-opacity:1;stroke:none"
      d="m15.814425 11.948804c-.190636-.187821-.613433-.287296-1.256796-.295747-.435512-.0051-.959684.0336-1.511033.110747-.246882-.142446-.501299-.297466-.701059-.484135-.537285-.501732-.985776-1.198144-1.265246-1.963945.0182-.07153.03371-.1344.04815-.198552 0 0 .30264-1.718991.222526-2.30019-.01101-.07971-.01781-.10283-.03922-.164785l-.02629-.06753c-.08232-.189865-.243719-.391046-.496765-.380073l-.148396-.0045-.0045-.000079c-.282177 0-.512165.144317-.572536.360039-.1835053.676568.0058 1.688712.348988 2.999637l-.08783.213514c-.245703.598948-.553602 1.202167-.8252676 1.734334l-.03534.06923c-.2857961.55931-.5451234 1.034112-.7802013 1.436334l-.242719.128338c-.017698.0093-.4336637.229336-.5312345.288369-.8277225.494215-1.3762282 1.055272-1.467231 1.500487-.028991.14207-.00742.323856.1398725.408049l.234752.11814c.1018353.05102.2092272.07687.319243.07687.5895376 0 1.2739659-.734394 2.2168058-2.379821 1.0885841-.354403 2.3279731-.64897 3.4142031-.811451.827778.466116 1.845878.789837 2.488466.789837.114094 0 .212446-.0109.292369-.03203.123242-.03259.227111-.10293.290437-.198304.124658-.187608.149952-.446047.116106-.710662-.01011-.0785-.07282-.175589-.14067-.241887zm-8.8055099 3.136958c.1074931-.293948.5330549-.875064 1.1622591-1.390684.0395542-.032082.1369958-.1234.2262287-.208183-.6579821 1.049429-1.0986127 1.467692-1.3884878 1.598867zm3.7267319-8.581961c.189517 0 .297303.477673.306264.92549.0089.447845-.0958.762149-.225717.99471-.107606-.344318-.159605-.887031-.159605-1.24189 0 0-.0079-.67831.07906-.67831zm-1.1116982 6.1157c.1320122-.236309.2693563-.485528.4097062-.749817.342122-.646986.558187-1.153247.719106-1.569358.320052.582267.718622 1.07729 1.187177 1.473911.05844.04944.120365.09918.18541.148767-.952824.188523-1.776343.417808-2.5013992.696497zm6.0074032-.05366c-.05804.0363-.224268.05726-.331205.05726-.345099 0-.772077-.157784-1.370655-.414404.229988-.01702.440873-.02568.629986-.02568.346144 0 .448676-.0017.787151.08484.338469.08633.342734.261682.284723.297971zm3.368648-1.565838a8.0000006 8.0000006 0 0 1 -8.000003 7.999997 8.0000006 8.0000006 0 0 1 -7.999997-7.999997 8.0000006 8.0000006 0 0 1 7.999997-8.000003 8.0000006 8.0000006 0 0 1 8.000003 8.000003z"
      class="ColorScheme-Text" />
</svg> 
