<svg height="22" viewBox="0 0 22 22" width="22" xmlns="http://www.w3.org/2000/svg"><g transform="translate(0 -1030.3622)"><path d="m12.036204 1040.5832c-.03169-.041-.07297-.066-.124202-.074l-1.082179-.1645c-.05918-.1882-.140018-.3801-.242505-.5761.07091-.098.177323-.2361.319228-.4145.141905-.1783.242436-.3086.301593-.3909.03159-.043.04724-.089.04724-.1352 0-.055-.01369-.098-.04137-.1293-.141907-.1999-.46717-.533-.975772-.9994-.04715-.039-.09654-.059-.147715-.059-.05918 0-.106478.018-.141974.053l-.839675.629c-.161722-.083-.339114-.1548-.532273-.2176l-.165566-1.0815c-.0039-.051-.0266-.093-.06798-.1264-.04147-.034-.0896-.05-.144957-.05h-1.312781c-.114322 0-.185314.055-.212897.1646-.05125.1959-.108444.5603-.171513 1.0933-.185314.059-.364672.1333-.538151.2235l-.816082-.629c-.05125-.039-.102488-.059-.153741-.059-.08676 0-.272993.1401-.558828.4203-.285845.2802-.479943.4909-.582499.6319-.03551.051-.05321.096-.05321.1352 0 .047.01966.094.05908.1411.264131.3175.475072.5878.632794.8113-.09856.1802-.175435.3605-.230601.5407l-1.099962.1647c-.04333.01-.08079.034-.112366.077-.03159.043-.04734.088-.04734.1349v1.3051c0 .051.01575.097.04734.138s.07297.066.124201.074l1.082249.1586c.05517.1921.135948.386.242436.5819-.07091.098-.177401.2361-.319307.4145-.141905.1783-.242504.3086-.301593.3909-.03159.043-.04734.088-.04734.1352 0 .051.01379.096.04137.1351.153731.2117.478985.5409.975761.9877.04343.043.09273.065.147862.065.05918 0 .108444-.018.147853-.053l.833865-.629c.161722.082.339123.1547.532272.2176l.165566 1.0815c.0039.051.0266.093.06798.1264.04137.034.08969.05.144879.05h1.312849c.114469 0 .185393-.055.213044-.1646.05116-.1959.108297-.5603.171376-1.0933.185305-.059.36474-.1333.538151-.2235l.816151.635c.05517.035.106478.053.153731.053.08666 0 .271985-.1391.555796-.4173.283947-.2782.479062-.49.585394-.635.03551-.039.05331-.084.05331-.1351 0-.051-.01966-.1001-.05918-.147-.283811-.3449-.494742-.6152-.632793-.8112.07884-.1451.155765-.3233.230669-.5349l1.094015-.1646c.04724-.01.08686-.034.118313-.077.0315-.043.04715-.088.04715-.1352v-1.305c.000068-.051-.01565-.097-.04724-.138zm-3.423941 1.8428c-.295636.294-.652473.441-1.070423.441-.41794 0-.774699-.147-1.070414-.441-.295645-.2939-.443498-.6485-.443498-1.064 0-.4154.147784-.7701.443498-1.064.295715-.2939.652542-.4409 1.070414-.4409.41795 0 .774787.147 1.070423.4409.295646.2939.443498.6486.443498 1.064 0 .4155-.147852.7701-.443498 1.064z" fill="#da4453"/><path d="m18.962193 1036.8498c-.02533-.033-.05839-.053-.09936-.059l-.865739-.1316c-.04734-.1505-.112014-.3041-.194009-.4609.05673-.079.141866-.1889.255386-.3315.113521-.1427.193951-.2469.241273-.3128.02524-.035.03776-.071.03776-.1081 0-.044-.01095-.079-.03306-.1035-.11352-.1599-.373729-.4263-.780606-.7995-.03776-.032-.07727-.047-.118176-.047-.04734 0-.08519.014-.113579.043l-.671748.5033c-.129376-.066-.271291-.1239-.425814-.174l-.132457-.8653c-.0029-.041-.02132-.075-.05438-.1011-.03316-.027-.0717-.04-.115956-.04h-1.050235c-.09145 0-.148243.044-.17031.1317-.04098.1567-.08676.4482-.13722.8747-.148243.047-.291733.1066-.430519.1787l-.652857-.5032c-.04098-.032-.08197-.047-.122989-.047-.06935 0-.218394.112-.447068.3363-.228674.2241-.38395.3926-.466005.5054-.02836.041-.04255.077-.04255.1083 0 .038.01575.076.04724.1128.211313.254.380058.4703.506245.649-.07884.1443-.14036.2885-.184483.4326l-.879969.1317c-.03463.01-.06465.027-.08989.062s-.03785.071-.03785.1081v1.0439c0 .041.01262.078.03785.1106.02524.033.05839.053.09936.059l.865801.127c.04411.1536.108757.3087.193941.4655-.05673.079-.141915.1888-.255435.3315-.11353.1427-.19401.2469-.241282.3127-.02524.035-.03785.071-.03785.1083 0 .041.01105.076.03306.108.122988.1694.383187.4328.780606.7902.03472.035.07414.052.118294.052.04734 0 .08676-.014.118284-.043l.667081-.5034c.129376.066.271301.124.425814.1742l.132457.8652c.0029.041.02132.075.05438.1012.03306.027.07179.04.115907.04h1.050284c.09155 0 .148302-.044.170427-.1317.04088-.1568.08666-.4483.137103-.8747.148243-.047.291792-.1067.430518-.1787l.652923.5079c.04411.028.08519.043.122989.043.06935 0 .217582-.1113.444633-.3338.227158-.2227.383246-.392.468323-.5081.02837-.031.04265-.068.04265-.108 0-.041-.01575-.081-.04734-.1176-.227053-.276-.395798-.4922-.506247-.649.06309-.116.124612-.2587.184542-.428l.87521-.1316c.03776-.01.06945-.027.09468-.062s.03776-.071.03776-.1082v-1.0439c.000059-.041-.01252-.078-.03776-.1105zm-2.73915 1.4742c-.236509.2352-.521973.3528-.856333.3528s-.619765-.1176-.856342-.3528c-.236509-.2351-.354793-.5188-.354793-.8512 0-.3323.118225-.616.354793-.8512.236577-.235.522041-.3526.856342-.3526.33436 0 .619824.1176.856333.3526.236509.2352.354802.5189.354802.8512 0 .3324-.118293.6161-.354802.8512z" fill="#5fb2f1"/><path d="m18.962184 1044.6281c-.02533-.033-.05839-.053-.09936-.059l-.865742-.1318c-.04734-.1504-.112014-.304-.194009-.4608.05673-.079.141856-.1889.255386-.3315.113521-.1427.193951-.2469.241273-.3128.02524-.035.03776-.071.03776-.1082 0-.044-.01095-.079-.03306-.1034-.113521-.1599-.373729-.4264-.780617-.7995-.03776-.032-.07727-.047-.118166-.047-.04734 0-.08519.014-.113579.043l-.671742.5031c-.129376-.066-.271291-.1238-.425814-.174l-.132457-.8652c-.0029-.041-.02132-.075-.05438-.1011-.03316-.027-.0717-.04-.115956-.04h-1.050235c-.09145 0-.148243.044-.17031.1316-.04098.1568-.08676.4484-.13722.8747-.148243.048-.291733.1067-.430518.1788l-.652865-.5033c-.04098-.032-.08197-.047-.122988-.047-.06935 0-.218394.112-.447069.3362-.228674.2243-.38395.3927-.465995.5056-.02837.041-.04255.076-.04255.1081 0 .038.01575.076.04724.1128.211303.254.380058.4703.506235.6491-.07884.1442-.14035.2884-.184483.4327l-.879965.1303c-.03463.01-.06465.027-.08989.062-.02523.035-.03785.071-.03785.1081v1.044c0 .041.01262.077.03785.1104.02524.033.05839.053.09936.059l.8658.127c.04411.1536.108767.3088.193951.4654-.05673.078-.141915.1889-.255445.3316-.11352.1427-.194.2468-.241272.3128-.02524.035-.03785.071-.03785.1081 0 .041.01105.077.03306.1082.122988.1692.383197.4327.780616.79.03472.035.07414.052.118284.052.04734 0 .08676-.014.118284-.043l.667096-.5033c.129376.066.271291.1238.425814.174l.132456.8653c.0029.041.02132.075.05438.1011.03306.027.07179.04.115907.04h1.050283c.09155 0 .148303-.044.170428-.1317.04098-.1568.08666-.4482.137102-.8747.148244-.047.291793-.1066.430519-.1787l.652923.508c.04411.028.08519.043.122989.043.06935 0 .217582-.1112.444632-.3339.227159-.2226.383247-.3919.468323-.5079.02837-.032.04265-.068.04265-.1082 0-.041-.01575-.081-.04734-.1176-.22705-.2758-.395795-.4921-.506244-.6489.06309-.116.124612-.2586.184541-.4279l.875211-.1316c.03776-.01.06945-.027.09468-.062s.03775-.071.03775-.1081v-1.044c.000058-.041-.01252-.077-.03776-.1105zm-2.739151 1.4743c-.236519.2351-.521983.3526-.856333.3526-.334359 0-.619774-.1175-.856342-.3526-.236509-.2351-.354802-.5188-.354802-.8512s.118234-.6161.354802-.8512.522041-.3527.856342-.3527c.33435 0 .619814.1176.856333.3527.236509.2351.354793.5188.354793.8512s-.118284.6161-.354793.8512z" fill="#74e09b"/></g></svg>