<svg xmlns="http://www.w3.org/2000/svg" viewBox="0 0 22 22">
 <defs id="defs3051">
   <style type="text/css" id="current-color-scheme">
     .ColorScheme-Text {
       color:#4d4d4d;
     }
     </style>
 </defs>
   <path
      style="fill:currentColor;fill-opacity:1;stroke:none"
      d="m4 3v6 1 3.460938 1.414062.125 1 1h-1v1h1v1h1v-1h13.292969.707031v-.707031-.292969h-.292969-1.414062-12.292969v-1.568359-.007813-.423828-1.125l3.9980469-3.9980469 2.1230471 2.1230469.005859-.003906.003906.003906 7.869141-7.875v-1.125h-.289062c.0072-.012362-7.583985 7.589844-7.583985 7.589844l-2.126953-2.1250002-.0019531.0019531-.0019531-.0019531-3.9960938 3.9960942v-.03711-1-.423828-1-1-3-.0078125-.9921875-2z"
      class="ColorScheme-Text" />
    <path
      style="fill:currentColor;fill-opacity:.5;stroke:none"
      d="m19 4.125-7.869141 7.875-.003906-.003906-.005859.003906-2.1230471-2.1230469-3.9980469 3.9980469v3.125h14z"
      class="ColorScheme-Text" />
   
</svg> 
