<svg xmlns="http://www.w3.org/2000/svg" viewBox="0 0 22 22">
 <defs id="defs3051">
   <style type="text/css" id="current-color-scheme">
     .ColorScheme-Text {
       color:#4d4d4d;
     }
     </style>
 </defs>
   <path
      style="fill:currentColor;fill-opacity:1;stroke:none"
      d="m11.098624 1041.3622q-.894496 0-1.5022937-.5173-.5963303-.5172-.5963303-1.3678 0-.9195.7110092-1.4368.7110088-.5287 1.7545868-.5287.9289 0 1.52523.3448v-.1609q0-.6207-.424313-.9885-.424311-.3793-1.043578-.3793-.458715 0-.837155.2184-.366973.2184-.504587.5977l-.9633031-.4138q.1949541-.5058.7683487-.931.5733944-.4368 1.5137614-.4368 1.077982 0 1.78899.6321.71101.6323.71101 1.7817v3.4023h-1.009174v-.7816h-.04587q-.630734.9655-1.84633.9655zm.172018-.9655q.653669 0 1.181193-.4828.538991-.4943.538991-1.1609-.447248-.3679-1.341744-.3679-.768349 0-1.158256.3334-.389909.3333-.389909.7816 0 .4138.355505.6552.355505.2414.81422.2414z"
      class="ColorScheme-Text" transform="translate(1 -1031.3622)" />
   <path
      style="fill:currentColor;fill-opacity:1;stroke:none"
      d="m10.867347 1049.3622h-.9693878l1.1632658-2.4491-2.061225-4.5509h1.020408l1.489796 3.49h.02041l1.44898-3.49h1.020408l-3.132653 7z"
      class="ColorScheme-Text" transform="translate(1 -1031.3622)" />
   <path
      style="fill:currentColor;fill-opacity:1;stroke:none"
      d="m11.098624 1041.3622q-.894496 0-1.5022937-.5173-.5963303-.5172-.5963303-1.3678 0-.9195.7110092-1.4368.7110088-.5287 1.7545868-.5287.9289 0 1.52523.3448v-.1609q0-.6207-.424313-.9885-.424311-.3793-1.043578-.3793-.458715 0-.837155.2184-.366973.2184-.504587.5977l-.9633031-.4138q.1949541-.5058.7683487-.931.5733944-.4368 1.5137614-.4368 1.077982 0 1.78899.6321.71101.6323.71101 1.7817v3.4023h-1.009174v-.7816h-.04587q-.630734.9655-1.84633.9655zm.172018-.9655q.653669 0 1.181193-.4828.538991-.4943.538991-1.1609-.447248-.3679-1.341744-.3679-.768349 0-1.158256.3334-.389909.3333-.389909.7816 0 .4138.355505.6552.355505.2414.81422.2414z"
      class="ColorScheme-Text" transform="translate(1 -1031.3622)" />
   <path
      style="fill:currentColor;fill-opacity:1;stroke:none"
      d="M 6.5,3 H 7 c 0.277,0 0.5,0.223 0.5,0.5 v 15 C 7.5,18.777 7.277,19 7,19 H 6.5 C 6.223,19 6,18.777 6,18.5 V 3.5 C 6,3.223 6.223,3 6.5,3 Z"
      class="ColorScheme-Text" />
</svg> 
