<svg xmlns="http://www.w3.org/2000/svg" viewBox="0 0 22 22">
 <defs id="defs3051">
   <style type="text/css" id="current-color-scheme">
     .ColorScheme-Text {
       color:#4d4d4d;
     }
     </style>
 </defs>
   <path
      style="fill:currentColor;fill-opacity:1;stroke:none"
      d="m 13.5,3 h 5 C 18.777,3 19,3.223 19,3.5 v 5 C 19,8.777 18.777,9 18.5,9 h -5 C 13.223,9 13,8.777 13,8.5 v -5 C 13,3.223 13.223,3 13.5,3 Z"
      class="ColorScheme-Text" />
   <path
      style="fill:currentColor;fill-opacity:1;stroke:none"
      d="m 3.5,3 h 5 C 8.777,3 9,3.223 9,3.5 v 7 C 9,10.777 8.777,11 8.5,11 h -5 C 3.223,11 3,10.777 3,10.5 v -7 C 3,3.223 3.223,3 3.5,3 Z"
      class="ColorScheme-Text" />
   <path
      style="fill:currentColor;fill-opacity:1;stroke:none"
      d="m 3.5,12.5 h 15 c 0.277,0 0.5,0.223 0.5,0.5 v 0.5 C 19,13.777 18.777,14 18.5,14 H 3.5 C 3.223,14 3,13.777 3,13.5 V 13 c 0,-0.277 0.223,-0.5 0.5,-0.5 z"
      class="ColorScheme-Text" />
   <path
      style="fill:currentColor;fill-opacity:1;stroke:none"
      d="m 13.375,16 h 5.25 C 18.83275,16 19,16.16725 19,16.375 v 2.25 C 19,18.83275 18.83275,19 18.625,19 h -5.25 C 13.16725,19 13,18.83275 13,18.625 v -2.25 C 13,16.16725 13.16725,16 13.375,16 Z"
      class="ColorScheme-Text" />
</svg> 
