<svg xmlns="http://www.w3.org/2000/svg" viewBox="0 0 22 22">
 <defs id="defs3051">
   <style type="text/css" id="current-color-scheme">
     .ColorScheme-Text {
       color:#4d4d4d;
     }
     </style>
 </defs>
   <path
      style="fill:currentColor;fill-opacity:1;stroke:none"
      d="m -1049.8622,-18 h 5 c 0.277,0 0.5,0.223 0.5,0.5 v 7 c 0,0.277 -0.223,0.5 -0.5,0.5 h -5 c -0.277,0 -0.5,-0.223 -0.5,-0.5 v -7 c 0,-0.277 0.223,-0.5 0.5,-0.5 z"
      class="ColorScheme-Text" transform="matrix(0 -1 -1 0 1 -1031.3622)"/>
   <path
      style="fill:currentColor;fill-opacity:1;stroke:none"
      d="m -1039.8622,-18 h 5.0001 c 0.277,0 0.5,0.223 0.5,0.5 v 5 c 0,0.277 -0.223,0.5 -0.5,0.5 h -5.0001 c -0.277,0 -0.5,-0.223 -0.5,-0.5 v -5 c 0,-0.277 0.223,-0.5 0.5,-0.5 z"
      class="ColorScheme-Text" transform="matrix(0 -1 -1 0 1 -1031.3622)"/>
   <path
      style="fill:currentColor;fill-opacity:1;stroke:none"
      d="m -1039.8622,-5 h 5.0001 c 0.277,0 0.5,0.223 0.5,0.5 v 2 c 0,0.277 -0.223,0.5 -0.5,0.5 h -5.0001 c -0.277,0 -0.5,-0.223 -0.5,-0.5 v -2 c 0,-0.277 0.223,-0.5 0.5,-0.5 z"
      class="ColorScheme-Text" transform="matrix(0 -1 -1 0 1 -1031.3622)"/>
   <path
      style="fill:currentColor;fill-opacity:1;stroke:none"
      d="m -1049.8622,-8.5 h 15.0001 c 0.277,0 0.5,0.223 0.5,0.5 v 0.5 c 0,0.277 -0.223,0.5 -0.5,0.5 h -15.0001 c -0.277,0 -0.5,-0.223 -0.5,-0.5 V -8 c 0,-0.277 0.223,-0.5 0.5,-0.5 z"
      class="ColorScheme-Text" transform="matrix(0 -1 -1 0 1 -1031.3622)"/>
</svg> 
