<svg xmlns="http://www.w3.org/2000/svg" viewBox="0 0 22 22">
 <defs id="defs3051">
   <style type="text/css" id="current-color-scheme">
     .ColorScheme-Text {
       color:#4d4d4d;
     }
     </style>
 </defs>
   <path
      style="fill:currentColor;fill-opacity:1;stroke:none"
      d="m13.308486 1044.3622q-.983945 0-1.652523-.6036-.655963-.6033-.655963-1.5956 0-1.0729.782111-1.6764.782109-.6168 1.930045-.6168 1.021789 0 1.677752.4023v-.1877q0-.7242-.466742-1.1533-.466744-.4425-1.147937-.4425-.504586 0-.920871.2547-.40367.2549-.555046.6974l-1.059633-.4827q.21445-.5901.845183-1.0862.630734-.5096 1.665138-.5096 1.18578 0 1.96789.7375.78211.7376.78211 2.0785v3.9694h-1.110092v-.9119h-.05046q-.693808 1.1265-2.030964 1.1265zm.189221-1.1265q.719036 0 1.299311-.5631.59289-.5767.59289-1.3545-.491973-.4292-1.475917-.4292-.845183 0-1.274082.389-.428899.3888-.428899.9118 0 .4829.391055.7644.391054.2816.895642.2816z"
      class="ColorScheme-Text" transform="translate(1 -1031.3622)"/>
   <path
      style="fill:currentColor;fill-opacity:1;stroke:none"
      d="m6.0538278 1045.3622h-1.0663266l1.2795919-2.7989-2.267347-5.2011h1.1224491l1.6387756 3.9887h.022449l1.5938776-3.9887h1.122449l-3.4459185 8z"
      class="ColorScheme-Text" transform="translate(1 -1031.3622)"/>
   <path
      style="fill:currentColor;fill-opacity:1;stroke:none"
      d="m 2.5,1046.3622 h 15 c 0.277,0 0.5,0.223 0.5,0.5 v 0.5 c 0,0.277 -0.223,0.5 -0.5,0.5 h -15 c -0.277,0 -0.5,-0.223 -0.5,-0.5 v -0.5 c 0,-0.277 0.223,-0.5 0.5,-0.5 z"
      class="ColorScheme-Text" transform="translate(1 -1031.3622)"/>
</svg> 
