<svg xmlns="http://www.w3.org/2000/svg" viewBox="0 0 22 22">
  <defs id="defs3051">
    <style type="text/css" id="current-color-scheme">
      .ColorScheme-Text {
        color:#4d4d4d
      }
      </style>
  </defs>
 <path 
     style="fill:currentColor;fill-opacity:1;stroke:none"      
	 class="ColorScheme-Text"
        d="m 4.1826755,3 c -1.66677,0 -1.709744,1.412398 -1.709744,1.412398 l 0,10.344542 c 0,0 0.02035,1.254303 1.594329,1.181563 l 7.2047935,0 L 12.310813,19 17.91541,19 c 1.906428,0 1.59237,-1.424133 1.59237,-1.424133 l 0,-10.41888 c 0,0 -0.20485,-1.264623 -2.005136,-1.191344 l -6.731387,0 L 9.7755377,3 4.1826755,3 Z m 2.2809669,3.478175 1.3850069,0 c 0.1093792,0 0.2061895,0.07159 0.2386636,0.17606 l 1.6784443,5.414844 c 0.023562,0.07571 0.00995,0.159115 -0.037179,0.223011 -0.046952,0.06365 -0.1220667,0.09977 -0.2014924,0.09977 l -0.9135588,0 c -0.1101289,0 -0.2070654,-0.07241 -0.2386598,-0.178014 l -0.4029848,-1.340018 -1.6940961,0 -0.3716811,1.336105 C 5.8760792,12.31774 5.7794103,12.39186 5.6674454,12.39186 l -0.8607434,0 c -0.079173,0 -0.1544031,-0.03626 -0.2014924,-0.09977 -0.047085,-0.06375 -0.060385,-0.147365 -0.037179,-0.223011 L 6.2249555,6.654235 c 0.032092,-0.104843 0.1289707,-0.17606 0.2386636,-0.17606 z m 0.6299057,1.001591 -0.6240382,2.394423 1.3087177,0 -0.6670731,-2.394423 -0.017595,0 z m 8.3452739,2.083383 0.543832,0 c 0.120277,0 0.21714,0.09687 0.21714,0.217141 l 0,0.297346 1.696051,0 c 0.120277,0 0.217144,0.09692 0.217144,0.217144 l 0,0.581 c 0,0.120276 -0.09692,0.21714 -0.217144,0.21714 l -0.172147,0 c -0.09764,0.841102 -0.540665,1.728655 -1.318498,2.638955 0.354289,0.381695 0.788642,0.676651 1.019193,0.819659 0.09029,0.05586 0.126278,0.167798 0.08608,0.266047 l -0.199534,0.489058 c -0.02536,0.06173 -0.07844,0.108813 -0.142806,0.127154 -0.06442,0.01817 -0.131855,0.006 -0.18584,-0.03324 -0.353849,-0.257356 -0.951032,-0.721227 -1.205038,-0.985943 -0.6865,0.657672 -1.343598,1.111341 -1.596284,1.277422 -0.03576,0.02345 -0.07709,0.03523 -0.119331,0.03523 -0.0052,0 -0.01044,-0.0015 -0.01564,-0.0019 l -0.297346,-0.880305 c 0.274041,-0.18659 0.842571,-0.593167 1.439784,-1.173738 -0.539043,-0.795187 -0.830009,-1.577181 -0.956597,-1.97579 -0.021,-0.06629 -0.0097,-0.139551 0.03129,-0.195625 0.04102,-0.05602 0.106641,-0.08998 0.17606,-0.08998 l 0.534052,0 c 0.09215,0 0.174538,0.05978 0.205402,0.146719 0.122143,0.344512 0.335994,0.861298 0.669031,1.394791 0.522512,-0.647015 0.8338,-1.272147 0.925298,-1.858417 l -3.247341,0 c -0.12022,0 -0.217198,-0.0972 -0.217141,-0.217141 l 0,-0.581003 c 0,-0.120273 0.09692,-0.217141 0.217141,-0.217141 l 1.69605,0 0,-0.297346 c 0,-0.12033 0.09693,-0.21714 0.217141,-0.21714 z"
     />
</svg>
