<svg xmlns="http://www.w3.org/2000/svg" viewBox="0 0 22 22">
 <defs id="defs3051">
   <style type="text/css" id="current-color-scheme">
     .ColorScheme-Text {
       color:#4d4d4d;
     }
     </style>
 </defs>
   <path
      style="fill:currentColor;fill-opacity:1;stroke:none"
      d="m6.2 3a3.2 3.2 0 0 1 3.2 3.2v1.6h3.2v-1.6a3.2 3.2 0 0 1 3.2-3.2 3.2 3.2 0 0 1 3.2 3.2 3.2 3.2 0 0 1 -3.2 3.2h-1.6v3.2h1.6a3.2 3.2 0 0 1 3.2 3.2 3.2 3.2 0 0 1 -3.2 3.2 3.2 3.2 0 0 1 -3.2-3.2v-1.6h-3.2v1.6a3.2 3.2 0 0 1 -3.2 3.2 3.2 3.2 0 0 1 -3.2-3.2 3.2 3.2 0 0 1 3.2-3.2h1.6v-3.2h-1.6a3.2 3.2 0 0 1 -3.2-3.2 3.2 3.2 0 0 1 3.2-3.2m8 12.8a1.6 1.6 0 0 0 1.6 1.6 1.6 1.6 0 0 0 1.6-1.6 1.6 1.6 0 0 0 -1.6-1.6h-1.6zm-1.6-6.4h-3.2v3.2h3.2zm-6.4 4.8a1.6 1.6 0 0 0 -1.6 1.6 1.6 1.6 0 0 0 1.6 1.6 1.6 1.6 0 0 0 1.6-1.6v-1.6zm1.6-8a1.6 1.6 0 0 0 -1.6-1.6 1.6 1.6 0 0 0 -1.6 1.6 1.6 1.6 0 0 0 1.6 1.6h1.6zm8 1.6a1.6 1.6 0 0 0 1.6-1.6 1.6 1.6 0 0 0 -1.6-1.6 1.6 1.6 0 0 0 -1.6 1.6v1.6z"
      class="ColorScheme-Text" />
</svg> 
