<svg xmlns="http://www.w3.org/2000/svg" viewBox="0 0 22 22">
  <defs id="defs3051">
    <style type="text/css" id="current-color-scheme">
      .ColorScheme-Text {
        color:#4d4d4d
      }
      </style>
  </defs>
 <path 
     style="fill:currentColor;fill-opacity:1;stroke:none"      
	 class="ColorScheme-Text"
        d="m 15.135165,13.78472 -1.30742,-1.30756 c -0.26041,-0.25936 -0.69166,-0.25148 -0.96114,0.0181 l -0.65868,0.65853 c -0.0416,-0.0229 -0.0847,-0.0469 -0.12998,-0.0723 -0.41594,-0.23048 -0.98524,-0.54637 -1.58431,-1.14587 -0.60084,-0.60077 -0.91702,-1.17094 -1.1482,-1.58716 -0.0244,-0.0441 -0.0478,-0.0866 -0.0708,-0.12699 l 0.44207,-0.4414104 0.21734,-0.21761 c 0.2699,-0.26997 0.27734,-0.70109 0.0175,-0.96121 l -1.30743,-1.30771 c -0.2598,-0.25975 -0.69124,-0.25187 -0.96114,0.0181 l -0.36847,0.37059 0.0101,0.01 c -0.12355,0.15765 -0.2268,0.33948 -0.30363,0.53556 -0.0708,0.18664 -0.11492,0.36475 -0.13508,0.54322 -0.17264,1.4311904 0.48137,2.7391804 2.25627,4.5141104 2.45345,2.45328 4.43061,2.26794 4.51591,2.2589 0.18577,-0.0222 0.3638,-0.0666 0.54473,-0.13686 0.19438,-0.0759 0.37609,-0.17903 0.53364,-0.30232 l 0.008,0.007 0.37329,-0.36553 c 0.26934,-0.26992 0.2771,-0.70119 0.0174,-0.96173 z m 3.8331,-3.49661 a 8.0000001,7.9999996 0 0 1 -7.25637,8.68015 8.0000001,7.9999996 0 0 1 -8.68016,-7.25637 8.0000001,7.9999996 0 0 1 7.25638,-8.6801504 8.0000001,7.9999996 0 0 1 8.68015,7.2563704 z"
     />
</svg>
