<?xml version="1.0" encoding="UTF-8" standalone="no"?>
<svg
   xmlns:dc="http://purl.org/dc/elements/1.1/"
   xmlns:cc="http://creativecommons.org/ns#"
   xmlns:rdf="http://www.w3.org/1999/02/22-rdf-syntax-ns#"
   xmlns:svg="http://www.w3.org/2000/svg"
   xmlns="http://www.w3.org/2000/svg"
   xmlns:sodipodi="http://sodipodi.sourceforge.net/DTD/sodipodi-0.dtd"
   xmlns:inkscape="http://www.inkscape.org/namespaces/inkscape"
   viewBox="0 0 22 22"
   id="svg3197"
   version="1.1"
   inkscape:version="0.91 r13725"
   sodipodi:docname="camera-on.svg">
  <metadata
     id="metadata3205">
    <rdf:RDF>
      <cc:Work
         rdf:about="">
        <dc:format>image/svg+xml</dc:format>
        <dc:type
           rdf:resource="http://purl.org/dc/dcmitype/StillImage" />
      </cc:Work>
    </rdf:RDF>
  </metadata>
  <sodipodi:namedview
     pagecolor="#ffffff"
     bordercolor="#666666"
     borderopacity="1"
     objecttolerance="10"
     gridtolerance="10"
     guidetolerance="10"
     inkscape:pageopacity="0"
     inkscape:pageshadow="2"
     inkscape:window-width="640"
     inkscape:window-height="480"
     id="namedview3203"
     showgrid="false"
     inkscape:zoom="28.954545"
     inkscape:cx="4.8524333"
     inkscape:cy="11"
     inkscape:current-layer="svg3197" />
  <defs
     id="defs3051">
    <style
       type="text/css"
       id="current-color-scheme">
      .ColorScheme-Text {
        color:#4d4d4d
      }
      </style>
  </defs>
  <path
     style="color:#4d4d4d;fill:currentColor;fill-opacity:1;stroke:none"
     class="ColorScheme-Text"
     d="M 11,2.9999998 A 8.0005029,8.0005038 0 0 0 3,11 a 8.0005029,8.0005038 0 0 0 8,8 8.0005029,8.0005038 0 0 0 8,-8 8.0005029,8.0005038 0 0 0 -8,-8.0000002 z m 0,0.8829629 c 0.418253,0 0.758519,0.34039 0.758519,0.7585186 0,0.4182 -0.340266,0.7585185 -0.758519,0.7585185 -0.4182,0 -0.758537,-0.3403185 -0.758519,-0.7585185 0,-0.4181464 0.340319,-0.7585186 0.758519,-0.7585186 z m -0.002,2.060247 c 2.788357,0 5.058766,2.2692663 5.058766,5.0567903 0,2.788 -2.270409,5.05679 -5.058766,5.05679 -2.7879995,0 -5.0549337,-2.26879 -5.0548146,-5.05679 0,-2.7876429 2.2668151,-5.0567903 5.0548146,-5.0567903 z M 11,7.4602468 C 9.0484003,7.4602468 7.460247,9.04865 7.460247,11 7.4601637,12.9516 9.0484003,14.539753 11,14.539753 12.95185,14.539753 14.539753,12.9516 14.539753,11 14.539753,9.0487332 12.95185,7.4602468 11,7.4602468 Z"
     id="path3201"
     inkscape:connector-curvature="0" />
</svg>
