<svg xmlns="http://www.w3.org/2000/svg" viewBox="0 0 22 22">
 <defs id="defs3051">
   <style type="text/css" id="current-color-scheme">
     .ColorScheme-Text {
       color:#4d4d4d;
     }
     </style>
 </defs>
   <path
      style="fill:currentColor;fill-opacity:1;stroke:none"
      d="m11 3a8.0005028 8.0005037 0 0 0 -8 8 8.0005028 8.0005037 0 0 0 8 8 8.0005028 8.0005037 0 0 0 8-8 8.0005028 8.0005037 0 0 0 -8-8zm0 .8829629c.418253 0 .758518.3403899.758518.7585185 0 .4182-.340265.7585186-.758518.7585186-.4182 0-.758537-.3403186-.758519-.7585186 0-.4181464.340319-.7585185.758519-.7585185zm-.002 2.060247c2.788356 0 5.058765 2.2692662 5.058765 5.0567901 0 2.788-2.270409 5.05679-5.058765 5.05679-2.7880002 0-5.0549342-2.26879-5.0548151-5.05679 0-2.7876428 2.2668149-5.0567901 5.0548151-5.0567901zm.002 1.517037c-1.9515998 0-3.5397531 1.5884032-3.5397531 3.5397531-.0000833 1.951601 1.5881533 3.539753 3.5397531 3.539753 1.95185 0 3.539753-1.588152 3.539753-3.539753 0-1.9512667-1.587903-3.5397531-3.539753-3.5397531zm-1.2325925 1.5190124c.090824 0 .1675797.031243.2311117.094815l1.0014808 1.0014817 1.001481-1.0014817c.06357-.063572.140246-.094815.231112-.094815.09078 0 .167538.031243.231111.094815l.464197.4641976c.06353.063572.09482.1402875.09482.2311111 0 .090824-.03124.1675803-.09482.231111l-1.001481 1.001481 1.001481 1.001482c.06357.06357.09482.140288.09482.231111 0 .09082-.03124.169556-.09482.233087l-.464197.462222c-.06353.06353-.14033.09481-.231111.09481-.09091 0-.167539-.03124-.231112-.09481l-1.001481-1.001482-1.0014808 1.001482c-.06357.06353-.1402881.09481-.2311117.09481-.090782 0-.1675388-.03124-.2311111-.09481l-.4641976-.462222c-.063572-.06357-.094815-.142263-.094815-.233087 0-.09082.031284-.167539.094815-.231111l1.0014812-1.001482-1.0014812-1.001481c-.063572-.063573-.094815-.1402876-.094815-.2311112 0-.090824.031284-.1675805.094815-.2311111l.4641976-.4641976c.063572-.063572.1403293-.094815.2311111-.094815z"
      class="ColorScheme-Text" />
</svg>
