<svg xmlns="http://www.w3.org/2000/svg" viewBox="0 0 22 22">
 <defs id="defs3051">
   <style type="text/css" id="current-color-scheme">
     .ColorScheme-Text {
       color:#4d4d4d;
     }
     </style>
 </defs>
   <path
      style="fill:currentColor;fill-opacity:1;stroke:none"
      d="m9.3691406 3c-.2532478 0-.4609375.2035431-.4609375.4609375v.3808594c0 .2570276.2076897.4648437.4609375.4648437h.1601563v.2675782c.0002538.3861056.2448511.4183646.3671875.4101562.020789-.0030746.0416896-.006832.0644531-.0097656h.0039063c.4343122-.0594616 1.1534152-.1167075 1.9785152-.0117188 0 0 .528783.0974015.527344-.3886718v-.2695313h.162109c.253502 0 .458985-.2054963.458985-.4628906v-.3808594c-.000028-.2571687-.207436-.4609375-.460938-.4609375zm5.2402344 1.7011719c-.042668.0086103-.075386.0355972-.097656.0605469l-.03711.0527343-.314453.4511719c-.001495.0017207-.178842.2804343.103516.4277344.403228.1984404 1.142677.6175095 1.851562 1.2929687v-.0019531s.254476.2568088.433594.0019531l.341797-.4902343c.119177-.172151-.034844-.2909719-.050781-.3027344l-2.070313-1.4472656h-.001953c-.063749-.0443565-.115535-.0535323-.158203-.0449219zm-3.609375.8613281c-3.7104277 0-6.71875 3.0079838-6.71875 6.71875 0 3.709835 3.0082941 6.71875 6.71875 6.71875 3.710399 0 6.71875-3.008943 6.71875-6.71875 0-3.7107662-3.008351-6.71875-6.71875-6.71875zm.099609 2.9375c.541653 0 1.059667.1065057 1.552735.3183594.493132.2118536.91772.4959087 1.27539.8535156.357607.357607.643743.782323.855469 1.275391.21179.493068.316406 1.011018.316406 1.552734 0 .541588-.104616 1.059666-.316406 1.552734-.211854.493068-.497862.917656-.855469 1.275391-.357734.357543-.782322.641726-1.27539.853516-.493068.211789-1.011082.318359-1.552735.318359-.597204 0-1.1649243-.125273-1.7031246-.376953s-.996489-.608051-1.375-1.066406c-.0242922-.034713-.0349292-.073718-.0332032-.117188.0017262-.043406.0171777-.077597.0449219-.105469l.7128907-.71875c.0347122-.03126.0787589-.046875.1308593-.046875.0555525.006968.0948483.027788.1191407.0625.25347.329927.5636136.585096.9316406.765625.3680906.18053.7586516.269532 1.1718746.269532.361059 0 .70702-.070299 1.035157-.210938.328072-.140575.611964-.330714.851562-.570312s.429674-.523426.570313-.851563c.140575-.328136.210937-.672016.210937-1.033203s-.070362-.705067-.210937-1.033203c-.140639-.328137-.330715-.612029-.570313-.851563-.239598-.239598-.523426-.429673-.851562-.570312-.328137-.1405754-.674034-.2109376-1.035157-.2109376-.340282 0-.665977.0603428-.978515.1835936-.3124751.123315-.5908707.300119-.8339846.529297l.7148436.71875c.107653.104201.13127.223978.072266.359375-.059005.138913-.1607598.208984-.3066409.208984h-2.3339843c-.0902649 0-.1683386-.033636-.234375-.099609-.0659727-.065973-.0996094-.14411-.0996094-.234375v-2.3339844c0-.1458172.0700712-.2475722.2089844-.3066406.135461-.0590045.2551741-.0353872.359375.0722656l.6777343.671875c.371543-.3507028.7960317-.6217136 1.2734375-.8144531.4774694-.1927395.9700764-.2890625 1.4804684-.2890625z"
      class="ColorScheme-Text" />
</svg> 
