<svg xmlns="http://www.w3.org/2000/svg" viewBox="0 0 22 22">
 <defs id="defs3051">
   <style type="text/css" id="current-color-scheme">
     .ColorScheme-Text {
       color:#4d4d4d;
     }
     </style>
 </defs>
   <path
      style="fill:currentColor;fill-opacity:1;stroke:none"
      d="m4 4.0156241v3.9609377c0 .0234382-.0085915 1.0234382 1.0156253 1.0234382h.9843747v4h-1.9531248s-1.0468752-.022924-1.0468752 1.015625v3.9375c0 .046875-.0229233 1.046875 1.0156252 1.046875h4.0000002s.9843746-.015948.9843746-1.015625v-3.984375s-.00603-1-1.0156246-1h-.9843754v-4h3.984376c.015624 0 1.015624.0085616 1.015624-1.0078132v-.9921868h4v7h-.999999c-.000001 0-1.000001.00603-1.000001 1.015625v2.96875c0 .015625-.008562 1.015625 1.007813 1.015625h3.007813s.984374-.001211.984374-.992188v-3.023437c0 .015625-.00609-.984375-.999999-.984375h-1.000001v-7s .0037-1-.999999-1h-4.000001v-2.0078134c0 .0078134-.006061-.9921866-1.007812-.9921866h-5.9843752c-.0078128 0-1.0078128.0011232-1.0078128 1.0156241z"
      class="ColorScheme-Text" />
</svg> 
