<svg viewBox="0 0 22 22" xmlns="http://www.w3.org/2000/svg">
 <defs id="defs3051">
   <style type="text/css" id="current-color-scheme">
     .ColorScheme-Text {
       color:#4d4d4d;
     }
     </style>
 </defs>
 <path style="fill:currentColor;fill-opacity:1;stroke:none" d="m11.102876 3.9489959c-.737607.2442724-1.284469.6399347-1.643693 1.1859563-.359201.5412307-.543084 1.252499-.547898 2.1337948v1.4795551c0 1.154308-.410683 1.7315419-1.234504 1.7315409v1.042625c.823821 0 1.234504.577233 1.234504 1.731541v1.486491c.0048.886086.190819 1.599501.554833 2.140731.368803.541231.91352.93029 1.636758 1.169773l.251986-.825315c-.756765-.296958-1.148136-1.085972-1.172084-2.369599v-1.574339c0-1.087252-.350105-1.846058-1.054183-2.277127.704078-.43107 1.054183-1.1877299 1.054183-2.2701929v-1.553532c.01916-1.3027877.412675-2.1048414 1.17902-2.4065889zm4.468718 0-.258922.8253142c.780713.3065377 1.176376 1.1259236 1.185955 2.457449v1.488801c0 1.13036.380477 1.8913119 1.142032 2.2840639-.761555.397541-1.142032 1.14991-1.142032 2.256321v1.585898c-.02395 1.283628-.41961 2.077098-1.185955 2.378846l.258922.825315c1.460845-.478965 2.191591-1.590188 2.191591-3.333622v-1.463373c0-1.154308.412994-1.731541 1.236815-1.731541v-1.042625c-.799873 0-1.212867-.5382769-1.236815-1.6159509v-1.6968651c-.019159-.8525582-.209314-1.5422024-.573328-2.0690636-.359224-.5316527-.899814-.9142743-1.618263-1.1489675zm-9.32582 1.4587484c-.70408 0-1.248795.222673-1.636758.6681113-.383172.4406494-.582076 1.0568395-.596445 1.8471325v.89698h-1.012571v1.026441h1.012571v6.7481579h1.271493v-6.7481579h1.329287v-1.026441h-1.329287v-.732842c0-1.0297761.360997-1.5442849 1.084236-1.5442849.205954 0 .400567.021622.582574.06473l.06473-1.0773008c-.258641-.081424-.515978-.122526-.76983-.1225261z" class="ColorScheme-Text"/>
</svg>
