<svg xmlns="http://www.w3.org/2000/svg" viewBox="0 0 22 22">
 <defs id="defs3051">
   <style type="text/css" id="current-color-scheme">
     .ColorScheme-Text {
       color:#4d4d4d;
     }
     </style>
 </defs>
   <path
      style="fill:currentColor;fill-opacity:1;stroke:none"
      d="m8 3.9965v4.05037s0 .95313 1 .95313h4.01563c-.0156 0 .98437-.006.98437-1v-3.98438c0-1.01562-.96875-1.01562-.96875-1.01562h-4.05441c.0232 0-.97684.009-.97684.9965zm-5 10.02103v3.96643s0 1.01604 1.02709 1.01604h3.99957c-.0267 0 .97334-.0304.97334-1.02709v-3.99957s-.003-.97334-.98439-.97334h-4.03272c.0171 0-.98289.0181-.98289 1.01753zm10-.0332v4.01062c0 1.005 1.03707 1.005 1.03707 1.005h3.96643c-.004 0 .9965.0121.9965-.9829v-4.04377c0-.97333-1.00756-.97333-1.00756-.97333h-3.98852s-1.00392 0-1.00392.98438z"
      class="ColorScheme-Text" />
</svg> 
