<svg xmlns="http://www.w3.org/2000/svg" viewBox="0 0 22 22">
  <defs id="defs3051">
    <style type="text/css" id="current-color-scheme">
      .ColorScheme-Text {
        color:#4d4d4d
      }
      </style>
  </defs>
    <path
       style="fill:currentColor;fill-opacity:1;stroke:none"
       class="ColorScheme-Text"
       d="M 9.7070312 3 C 9.5795105 3 9.4514529 3.0629165 9.3789062 3.1894531 L 4.9863281 10.851562 C 4.0632149 12.471236 3.9919149 14.529432 4.9863281 16.263672 C 6.4811947 18.870705 9.8070165 19.77223 12.414062 18.277344 C 15.021102 16.782484 15.922621 13.458629 14.427734 10.851562 L 10.035156 3.1894531 C 9.9625999 3.0629165 9.8345521 3 9.7070312 3 z M 15.400391 3.0410156 C 14.112764 3.0410156 13.066406 4.0873734 13.066406 5.375 C 13.066406 6.6626199 14.112764 7.7089844 15.400391 7.7089844 C 16.688011 7.7089844 17.734375 6.6626199 17.734375 5.375 C 17.734375 4.0873734 16.688011 3.0410156 15.400391 3.0410156 z M 15.400391 3.625 C 16.374931 3.625 17.150391 4.4004534 17.150391 5.375 C 17.150391 6.3495399 16.374931 7.125 15.400391 7.125 C 14.425844 7.125 13.650391 6.3495399 13.650391 5.375 C 13.650391 4.4004534 14.425844 3.625 15.400391 3.625 z "
        />
</svg>
