<svg xmlns="http://www.w3.org/2000/svg" viewBox="0 0 22 22">
 <defs id="defs3051">
   <style type="text/css" id="current-color-scheme">
     .ColorScheme-Text {
       color:#4d4d4d;
     }
     </style>
 </defs>
   <path
      style="fill:currentColor;fill-opacity:1;stroke:none"
      d="m9.7070312 3c-.1275207 0-.2555783.0629165-.328125.1894531l-4.3925781 7.6621089c-.9231132 1.619674-.9944132 3.67787 0 5.41211 1.4948666 2.607033 4.8206884 3.508558 7.4277339 2.013672 2.60704-1.49486 3.508559-4.818715 2.013672-7.425782l-4.392578-7.6621089c-.0725561-.1265366-.2006039-.1894531-.3281248-.1894531zm5.6933598.0410156c-1.287627 0-2.333985 1.0463578-2.333985 2.3339844 0 1.2876199 1.046358 2.3339844 2.333985 2.3339844 1.28762 0 2.333984-1.0463645 2.333984-2.3339844 0-1.2876266-1.046364-2.3339844-2.333984-2.3339844zm0 .5839844c.97454 0 1.75.7754534 1.75 1.75 0 .9745399-.77546 1.75-1.75 1.75-.974547 0-1.75-.7754601-1.75-1.75 0-.9745466.775453-1.75 1.75-1.75z"
      class="ColorScheme-Text" />
</svg> 
