<svg xmlns="http://www.w3.org/2000/svg" viewBox="0 0 22 22">
 <defs id="defs3051">
   <style type="text/css" id="current-color-scheme">
     .ColorScheme-Text {
       color:#4d4d4d;
     }
     </style>
 </defs>
   <path
      style="fill:currentColor;fill-opacity:1;stroke:none"
      d="m 1034.8622,2 h 5 c 0.277,0 0.5,0.223 0.5,0.5 v 12.000001 c 0,0.277 -0.223,0.5 -0.5,0.5 h -5 c -0.277,0 -0.5,-0.223 -0.5,-0.5 V 2.5 c 0,-0.277 0.223,-0.5 0.5,-0.5 z"
      class="ColorScheme-Text" transform="matrix(0 .9975184 -1 0 21 -1028.795335653384)"/>
   <path
      style="fill:currentColor;fill-opacity:1;stroke:none"
      d="m 1044.8622,9 h 5.0398 c 0.277,0 0.5,0.223 0.5,0.5 v 5 c 0,0.277 -0.223,0.5 -0.5,0.5 h -5.0398 c -0.277,0 -0.5,-0.223 -0.5,-0.5 v -5 c 0,-0.277 0.223,-0.5 0.5,-0.5 z"
      class="ColorScheme-Text" transform="matrix(0 .9975184 -1 0 21 -1028.795335653384)"/>
   <path
      style="fill:currentColor;fill-opacity:1;stroke:none"
      d="m 1034.8624,16.5 h 14.9998 c 0.277,0 0.5,0.223 0.5,0.5 v 0.5 c 0,0.277 -0.223,0.5 -0.5,0.5 h -14.9998 c -0.277,0 -0.5,-0.223 -0.5,-0.5 V 17 c 0,-0.277 0.223,-0.5 0.5,-0.5 z"
      class="ColorScheme-Text" transform="matrix(0 .9975184 -1 0 21 -1028.795335653384)"/>
</svg> 
