<svg xmlns="http://www.w3.org/2000/svg" viewBox="0 0 22 22">
 <defs id="defs3051">
   <style type="text/css" id="current-color-scheme">
     .ColorScheme-Text {
       color:#4d4d4d;
     }
     </style>
 </defs>
   <path
      style="fill:currentColor;fill-opacity:1;stroke:none"
      d="m2.000005 10.10164c0-3.91588 4.03745-7.10164 8.99994-7.10164 4.96262 0 9.00005 3.18579 9.00005 7.10164 0 3.91586-4.03743 7.10165-9.00005 7.10165-.41725 0-.83595-.0228-1.24759-.0676-1.91143 1.14253-3.32248 1.76789-4.19705 1.85931-.0304.003-.061.005-.091.005-.28091 0-.54092-.13172-.69576-.35259-.17305-.24709-.18435-.56055-.0301-.81649.008-.0122.68209-1.17081.48738-2.27755-2.05337-1.35233-3.22577-3.32814-3.22577-5.45174z"
      class="ColorScheme-Text" />
</svg> 
