<svg xmlns="http://www.w3.org/2000/svg" viewBox="0 0 22 22">
  <defs id="defs3051">
    <style type="text/css" id="current-color-scheme">
      .ColorScheme-Text {
        color:#4d4d4d
      }
      </style>
  </defs>
    <path
       style="fill:currentColor;fill-opacity:1;stroke:none"
	 class="ColorScheme-Text"
       d="m 14.999993,6.0000017 -10.999988,0 C 3.4480002,6.0000017 3,6.4480019 3,6.9999933 L 3,17.999995 C 3,18.552 3.4480002,19 4.000005,19 l 10.999988,0 c 0.552005,0 1.000005,-0.448 1.000005,-1.000005 l 0,-11.0000017 c 0,-0.5519914 -0.448,-0.9999916 -1.000005,-0.9999916 z M 17.999995,3 7.9999983,3 C 7.4479935,3 6.9999933,3.4480002 6.9999933,4.000005 l 0,0.9999916 1.000005,0 0,-0.5000025 c 0,-0.2759957 0.2240068,-0.4999891 0.5000025,-0.4999891 l 8.9999912,0 c 0.27601,0 0.500003,0.2239934 0.500003,0.4999891 l 0,9.0000049 c 0,0.275996 -0.223993,0.500003 -0.500003,0.500003 l -0.499989,0 0,0.999991 0.999992,0 C 18.552,14.999993 19,14.551993 19,14.000002 L 19,4.000005 C 19,3.4480002 18.552,3 17.999995,3 Z"
        />
</svg>
