<svg xmlns="http://www.w3.org/2000/svg" viewBox="0 0 22 22">
 <defs id="defs3051">
   <style type="text/css" id="current-color-scheme">
     .ColorScheme-Text {
       color:#4d4d4d;
     }
     </style>
 </defs>
   <path
      style="fill:currentColor;fill-opacity:1;stroke:none"
      d="m3.4444444 4.5555556c-.2462222 0-.4444444.1982222-.4444444.4444444v1.7430556.9236111 8.9236103c0 .22729.1824405.409723.4097222.409723h15.1805548c.227282 0 .409723-.182433.409723-.409723v-9.8472214c0-.2272889-.182441-.4097223-.409723-.4097223h-7.272569c-.506546.0151111-.752287-.1166111-.975694-.3263889l-1.0555557-1.0763888c-.1493778-.1957334-.2624583-.375-.5086805-.375zm7.5555556 3.5555555c1.601861 0 3.120173.6476029 4.276042 1.8229169.217366.221031.225612.58704.01736.817708-.107226.118419-.249153.177084-.392361.177084-.135578 0-.272701-.0525-.378472-.159723-.951958-.968184-2.203132-1.5-3.52257-1.5-1.3219816 0-2.5731567.530855-3.5225694 1.498264-.2169967.221026-.5621942.213296-.7708324-.017361-.2086385-.230672-.199608-.596687.0173611-.817708 1.1536925-1.1749319 2.6709065-1.8211809 4.2760417-1.8211809zm0 1.9288199c1.160962 0 2.25347.476826 3.076389 1.345486.213728.225271.215673.592637.0035.819444-.106526.113024-.245504.170139-.385445.170139h-.0017c-.139213 0-.279282-.05616-.385416-.168403-.617228-.651499-1.436425-1.010417-2.307328-1.010417-.872718 0-1.691186.356993-2.3072916 1.006945-.213362.225269-.5585638.224696-.7708334-.0017-.2122571-.226482-.2121042-.592475.0017361-.817744.8214673-.86712 1.9136117-1.34375 3.0763889-1.34375zm0 1.927083c.716785 0 1.405176.324953 1.887153.888889.202457.236839.184962.601119-.03819.815972-.103956.100674-.23373.151041-.364583.151041-.148304 0-.296923-.0635-.404514-.189235-.275884-.323243-.670222-.508681-1.079866-.508681-.416549 0-.7997.179268-1.078125.505208-.2020945.237225-.5455542.255173-.7690972.03993-.2231783-.214851-.2406694-.579524-.0381945-.815971.4805223-.562784 1.1675437-.887153 1.8854167-.887153zm-.06771 1.928819c.363745 0 .659722.298713.659722.664931 0 .366221-.295977.661458-.659722.661458-.363749 0-.657986-.295237-.657986-.661458 0-.366218.294237-.664931.657986-.664931z"
      class="ColorScheme-Text" />
</svg> 
