<svg xmlns="http://www.w3.org/2000/svg" viewBox="0 0 22 22">
  <defs id="defs3051">
    <style type="text/css" id="current-color-scheme">
      .ColorScheme-Text {
        color:#4d4d4d
      }
      </style>
  </defs>
  <path
     style="fill:currentColor;fill-opacity:1;stroke:none"
	 class="ColorScheme-Text"
     d="m 9.199919,3.0000001 c 0.361105,0 0.7213,0.1380119 0.99698,0.414049 l 7.144051,6.4958813 c 0.297797,0.2990136 0.430759,0.6989006 0.406177,1.0898086 0.02455,0.391595 -0.108258,0.788813 -0.406177,1.087855 l -7.144051,6.497835 c -0.55136,0.552761 -1.444544,0.552761 -1.995903,0 -0.551361,-0.552749 -0.551361,-1.44914 0,-2.001889 l 6.14124,-5.583801 -6.14124,-5.5857553 c -0.551361,-0.5527625 -0.551361,-1.4478329 0,-1.9999346 0.275679,-0.2760371 0.637817,-0.414049 0.998923,-0.414049 z m -2.62752,5.6775488 c 1.282525,0 2.322402,1.0426868 2.322402,2.3300011 0,1.287316 -1.039877,2.331956 -2.322402,2.331956 C 5.289877,13.339506 4.25,12.294866 4.25,11.00755 4.25,9.7202357 5.289877,8.6775489 6.572399,8.6775489 Z"
     id="path4230" />
</svg>
