
<svg xmlns="http://www.w3.org/2000/svg" viewBox="0 0 22 22">
 <defs id="defs3051">
   <style type="text/css" id="current-color-scheme">
     .ColorScheme-Text {
       color:#4d4d4d;
     }
     </style>
 </defs>
   <path
      style="fill:currentColor;fill-opacity:1;stroke:none"
      d="m4.77672 3c-.43093 0-.77672.35758-.77672.80078v14.39844c0 .4432.34579.80078.77672.80078h12.44656c.43093 0 .77672-.35758.77672-.80078v-14.39844c0-.4432-.34579-.80078-.77672-.80078zm.87737.73633a.88559081.91079472 0 0 1  .88687.91015.88559081.91079472 0 0 1 -.88687.91211.88559081.91079472 0 0 1 -.88496-.91211.88559081.91079472 0 0 1  .88496-.91015zm2.15356 0a .88559081.91079472 0 0 1  .88686.91015.88559081.91079472 0 0 1 -.88686.91211.88559081.91079472 0 0 1 -.88497-.91211.88559081.91079472 0 0 1  .88497-.91015zm2.17065 0a .88559081.91079472 0 0 1  .88687.91015.88559081.91079472 0 0 1 -.88687.91211.88559081.91079472 0 0 1 -.88498-.91211.88559081.91079472 0 0 1  .88498-.91015zm2.14785 0a .88559081.91079472 0 0 1  .88687.91015.88559081.91079472 0 0 1 -.88687.91211.88559081.91079472 0 0 1 -.88496-.91211.88559081.91079472 0 0 1  .88496-.91015zm2.11367 0a .88559081.91079472 0 0 1  .88498.91015.88559081.91079472 0 0 1 -.88498.91016.88559081.91079472 0 0 1 -.88687-.91016.88559081.91079472 0 0 1  .88687-.91015zm2.10609 0a .88559081.91079472 0 0 1  .88496.91015.88559081.91079472 0 0 1 -.88496.91211.88559081.91079472 0 0 1 -.88687-.91211.88559081.91079472 0 0 1  .88687-.91015zm-9.63782 2.17773a.88559081.91079472 0 0 1  .88496.91211.88559081.91079472 0 0 1 -.88496.91016.88559081.91079472 0 0 1 -.88498-.91016.88559081.91079472 0 0 1  .88498-.91211zm2.15355 0a .88559081.91079472 0 0 1  .88497.91016.88559081.91079472 0 0 1 -.88497.91211.88559081.91079472 0 0 1 -.88687-.91211.88559081.91079472 0 0 1  .88687-.91016zm2.17064 0a .88559081.91079472 0 0 1  .88497.91016.88559081.91079472 0 0 1 -.88497.91211.88559081.91079472 0 0 1 -.88496-.91211.88559081.91079472 0 0 1  .88496-.91016zm2.14786 0a .88559081.91079472 0 0 1  .88497.91016.88559081.91079472 0 0 1 -.88497.91211.88559081.91079472 0 0 1 -.88687-.91211.88559081.91079472 0 0 1  .88687-.91016zm2.11177 0a .88559081.91079472 0 0 1  .88498.91016.88559081.91079472 0 0 1 -.88498.91211.88559081.91079472 0 0 1 -.88497-.91211.88559081.91079472 0 0 1  .88497-.91016zm-9.63782 2.19727a.88559081.91079472 0 0 1  .88687.91211.88559081.91079472 0 0 1 -.88687.91015.88559081.91079472 0 0 1 -.88496-.91015.88559081.91079472 0 0 1  .88496-.91211zm2.15356 0a .88559081.91079472 0 0 1  .88686.91015.88559081.91079472 0 0 1 -.88686.91211.88559081.91079472 0 0 1 -.88497-.91211.88559081.91079472 0 0 1  .88497-.91015zm2.17065 0a .88559081.91079472 0 0 1  .88687.91015.88559081.91079472 0 0 1 -.88687.91211.88559081.91079472 0 0 1 -.88498-.91211.88559081.91079472 0 0 1  .88498-.91015zm2.14785 0a .88559081.91079472 0 0 1  .88687.91015.88559081.91079472 0 0 1 -.88687.91211.88559081.91079472 0 0 1 -.88496-.91211.88559081.91079472 0 0 1  .88496-.91015zm2.11367 0a .88559081.91079472 0 0 1  .88498.91015.88559081.91079472 0 0 1 -.88498.91211.88559081.91079472 0 0 1 -.88687-.91211.88559081.91079472 0 0 1  .88687-.91015zm2.10609 0a .88559081.91079472 0 0 1  .88496.91015.88559081.91079472 0 0 1 -.88496.91211.88559081.91079472 0 0 1 -.88687-.91211.88559081.91079472 0 0 1  .88687-.91015zm-5.34591 3.26172c1.09209 0 1.98074.91395 1.98074 2.03711v.82617c.15608.0337.27347.17728.27347.34765v3.10157c0 .19534-.15378.35351-.34374.35351h-3.82095c-.18995 0-.34373-.15817-.34373-.35351v-3.10157c0-.17037.11739-.31411.27347-.34765v-.82617c0-1.12316.88864-2.03711 1.98074-2.03711zm0 .70898c-.71217 0-1.29138.5957-1.29138 1.32813v.82031h2.58275v-.82031c0-.73239-.5792-1.32813-1.29137-1.32813zm0 3.23633c-.26691 0-.48237.22356-.48237.49805 0 .14548.0607.27628.15762.36718l-.12913.69727c-.007.0382.0191.0703.057.0703h.8033c.0379 0 .064-.0318.057-.0703l-.12912-.70508c.0924-.0906.14812-.21783.14812-.35937 0-.27449-.21546-.49805-.48236-.49805z"
      class="ColorScheme-Text" />
</svg> 
