<svg xmlns="http://www.w3.org/2000/svg" viewBox="0 0 22 22">
 <defs id="defs3051">
   <style type="text/css" id="current-color-scheme">
     .ColorScheme-Text {
       color:#4d4d4d;
     }
     </style>
 </defs>
   <path
      style="fill:currentColor;fill-opacity:1;stroke:none"
      d="m4.77672 3c-.43093 0-.77672.35758-.77672.80078v14.39844c0 .4432.34579.80078.77672.80078h12.44656c.43093 0 .77672-.35758.77672-.80078v-14.39844c0-.4432-.34579-.80078-.77672-.80078zm.87737.73633a.88559081.91079472 0 0 1  .88687.91015.88559081.91079472 0 0 1 -.88687.91211.88559081.91079472 0 0 1 -.88496-.91211.88559081.91079472 0 0 1  .88496-.91015zm2.15356 0a .88559081.91079472 0 0 1  .88686.91015.88559081.91079472 0 0 1 -.88686.91211.88559081.91079472 0 0 1 -.88497-.91211.88559081.91079472 0 0 1  .88497-.91015zm2.17065 0a .88559081.91079472 0 0 1  .88687.91015.88559081.91079472 0 0 1 -.88687.91211.88559081.91079472 0 0 1 -.88498-.91211.88559081.91079472 0 0 1  .88498-.91015zm2.14785 0a .88559081.91079472 0 0 1  .88687.91015.88559081.91079472 0 0 1 -.88687.91211.88559081.91079472 0 0 1 -.88496-.91211.88559081.91079472 0 0 1  .88496-.91015zm2.11367 0a .88559081.91079472 0 0 1  .88498.91015.88559081.91079472 0 0 1 -.88498.91016.88559081.91079472 0 0 1 -.88687-.91016.88559081.91079472 0 0 1  .88687-.91015zm2.10609 0a .88559081.91079472 0 0 1  .88496.91015.88559081.91079472 0 0 1 -.88496.91211.88559081.91079472 0 0 1 -.88687-.91211.88559081.91079472 0 0 1  .88687-.91015zm-9.63782 2.17773a.88559081.91079472 0 0 1  .88496.91211.88559081.91079472 0 0 1 -.88496.91016.88559081.91079472 0 0 1 -.88498-.91016.88559081.91079472 0 0 1  .88498-.91211zm2.15355 0a .88559081.91079472 0 0 1  .88497.91016.88559081.91079472 0 0 1 -.88497.91211.88559081.91079472 0 0 1 -.88687-.91211.88559081.91079472 0 0 1  .88687-.91016zm2.17064 0a .88559081.91079472 0 0 1  .88497.91016.88559081.91079472 0 0 1 -.88497.91211.88559081.91079472 0 0 1 -.88496-.91211.88559081.91079472 0 0 1  .88496-.91016zm2.14786 0a .88559081.91079472 0 0 1  .88497.91016.88559081.91079472 0 0 1 -.88497.91211.88559081.91079472 0 0 1 -.88687-.91211.88559081.91079472 0 0 1  .88687-.91016zm2.11177 0a .88559081.91079472 0 0 1  .88498.91016.88559081.91079472 0 0 1 -.88498.91211.88559081.91079472 0 0 1 -.88497-.91211.88559081.91079472 0 0 1  .88497-.91016zm-9.63782 2.19727a.88559081.91079472 0 0 1  .88687.91211.88559081.91079472 0 0 1 -.88687.91015.88559081.91079472 0 0 1 -.88496-.91015.88559081.91079472 0 0 1  .88496-.91211zm2.15356 0a .88559081.91079472 0 0 1  .88686.91015.88559081.91079472 0 0 1 -.88686.91211.88559081.91079472 0 0 1 -.88497-.91211.88559081.91079472 0 0 1  .88497-.91015zm2.17065 0a .88559081.91079472 0 0 1  .88687.91015.88559081.91079472 0 0 1 -.88687.91211.88559081.91079472 0 0 1 -.88498-.91211.88559081.91079472 0 0 1  .88498-.91015zm2.14785 0a .88559081.91079472 0 0 1  .88687.91015.88559081.91079472 0 0 1 -.88687.91211.88559081.91079472 0 0 1 -.88496-.91211.88559081.91079472 0 0 1  .88496-.91015zm2.11367 0a .88559081.91079472 0 0 1  .88498.91015.88559081.91079472 0 0 1 -.88498.91211.88559081.91079472 0 0 1 -.88687-.91211.88559081.91079472 0 0 1  .88687-.91015zm2.10609 0a .88559081.91079472 0 0 1  .88496.91015.88559081.91079472 0 0 1 -.88496.91211.88559081.91079472 0 0 1 -.88687-.91211.88559081.91079472 0 0 1  .88687-.91015zm-5.55101 3.41406c.35926.0241.69905.11778 1.01791.2832.31876.16537.58896.37857.8109.63868.22194.2601.39092.56357.50895.91015.11808.34654.16586.70473.14243 1.07422-.0361.56843-.22506 1.07403-.56592 1.51563l1.20971 1.41601c.0869.10181.12457.22056.11584.35742-.009.13434-.0635.24811-.16522.33985-.10159.0918-.2169.13181-.34753.12304-.13575-.009-.24624-.0657-.33044-.16992l-1.20781-1.41211c-.47001.29023-.98166.41794-1.53446.38086-.35925-.0241-.69909-.11973-1.0179-.28515-.31875-.16542-.58896-.37657-.81091-.63672-.22194-.26011-.39091-.56362-.50894-.91016-.11808-.34663-.16587-.70473-.14244-1.07422.0234-.36948.11643-.71899.27727-1.04687.16079-.32784.36619-.60573.6191-.83399.2529-.22826.54797-.40205.88496-.52343.33695-.12144.68524-.17059 1.0445-.14649zm-.0626.99219c-.46477-.0312-.873.11204-1.22491.42969-.35189.31759-.54321.71536-.57352 1.19336-.0303.47804.10895.8978.4178 1.25976.30885.36191.69557.55867 1.16034.58984.46481.0312.87295-.11204 1.2249-.42968.3519-.31765.54321-.71532.57352-1.19336.0303-.478-.10894-.89785-.41779-1.25977-.3089-.36192-.69558-.55867-1.16034-.58984z"
      class="ColorScheme-Text" />
</svg> 
