<svg xmlns="http://www.w3.org/2000/svg" viewBox="0 0 22 22">
 <defs id="defs3051">
   <style type="text/css" id="current-color-scheme">
     .ColorScheme-Text {
       color:#4d4d4d;
     }
     </style>
 </defs>
   <path
      style="fill:currentColor;fill-opacity:1;stroke:none"
      d="m9.84375 3c-.2013728 0-.3264148.096547-.375.2910156-.0902662.3471285-.1916277.9930294-.3027344 1.9375-.3264158.1043303-.6416903.2367925-.9472656.3964844l-1.4375-1.1152344c-.0902662-.0694257-.1812182-.1035156-.2714844-.1035156-.1527876 0-.4808789.2475488-.984375.7441406-.503496.4965919-.8447304.8711357-1.0253906 1.1210938-.0625215.0902662-.09375.1688555-.09375.2382812 0 .083362.03409.1667659.1035156.25.4652672.5625654.8374038 1.0415307 1.1152344 1.4375-.1736281.3193838-.3090796.6396007-.40625.9589844l-1.9375.2910156c-.0763299.0139363-.1416484.060261-.1972656.1367188-.0556173.0763299-.0839844.1550471-.0839844.2382812v2.3125004c0 .09039.0283674.173216.0839844.246093.055617.07301.1284838.115098.21875.128907l1.90625.28125c.09717.340224.2382168.684121.4257812 1.03125-.1249151.173628-.3125419.418315-.5625.734375-.249958.316059-.4271754.547476-.53125.693359-.055617.07659-.0820312.156872-.0820312.240234 0 .09027.0236796.168856.0722656.238282.2707985.375128.8437051.958445 1.71875 1.75.076458.07646.1625952.115234.2597656.115234.1042025 0 .1922931-.03136.2617188-.09375l1.46875-1.115234c.2848626.145883.5972758.275484.9375.386718l.2910156 1.916016c.00703.09027.046263.16554.1191406.224609.0728778.059198.158689.087891.2558594.087891h2.3125c.201629 0 .326287-.09655.375-.291016.09014-.347256.191628-.993029.302734-1.9375.326416-.104202.641819-.236792.947266-.396484l1.4375 1.125c.09717.06239.18825.09375.271484.09375.15266 0 .4786-.247095.978516-.740234.500172-.493012.843941-.86801 1.03125-1.125.06252-.06943.09375-.148015.09375-.238282 0-.09027-.03396-.178612-.103516-.261718-.499916-.611151-.872052-1.090244-1.115234-1.4375.138851-.25699.274303-.572265.40625-.947266l1.927734-.291016c.08323-.01394.151542-.06026.207032-.136718.055489-.076458.083984-.155048.083984-.238282v-2.3124996c.000128-.090266-.028244-.1730881-.083984-.2460938-.05574-.073006-.128484-.1150978-.21875-.1289062l-1.90625-.2929688c-.104203-.33332-.245249-.6722749-.425782-1.0195312.124915-.1736282.312542-.4183155.5625-.734375s.427048-.547476.53125-.6933594c.05562-.076458.082032-.1568724.082032-.2402344 0-.09717-.023546-.1728983-.072266-.2285156-.249956-.3542884-.822865-.9450245-1.71875-1.7714844-.083106-.0694257-.169627-.1035156-.259766-.1035156-.104202 0-.187478.031356-.25.09375l-1.480468 1.1152344c-.284863-.1458835-.597276-.2756121-.9375-.3867188l-.291016-1.9160156c-.006904-.0902662-.046263-.16554-.119141-.2246094-.073005-.0590693-.158433-.0878906-.255859-.0878906zm1.15625 5.3339844c.736194 0 1.364009.2604934 1.884766.78125.520756.5208844.78125 1.1485716.78125 1.8847656s-.260494 1.364009-.78125 1.884766c-.520757.520884-1.148572.78125-1.884766.78125s-1.3638812-.260366-1.8847656-.78125c-.5207566-.520757-.78125-1.148572-.78125-1.884766s.2603655-1.3638812.78125-1.8847656c.5208844-.5207566 1.1486996-.78125 1.8847656-.78125z"
      class="ColorScheme-Text" 
       transform="matrix(.999999997526 0 0 .999999997526 .000000051123 .000000166601)"/>
</svg> 
