<svg xmlns="http://www.w3.org/2000/svg" viewBox="0 0 22 22">
 <defs id="defs3051">
   <style type="text/css" id="current-color-scheme">
     .ColorScheme-Text {
       color:#4d4d4d;
     }
     </style>
 </defs>
   <path
      style="fill:currentColor;fill-opacity:1;stroke:none"
      d="m11 .41210938c-.7415.47059999-.007-.00001875-.78125.48828124l-8.21875 5.46874998v1.21875 7.5937504.40625c1.14882.7517.22209.1443.75.5l7.34375 4.90625c.89535.5962.008-.00005.90625.59375 8.02331-5.3242 6.05377-4.0138 8.375-5.5625.63161-.4616.11719-.09495.625-.46875v-.34375-.03125-7.5937504-1.21875c-2.3238-1.5467-.33991-.2266-.5625-.375l-7.65625-5.09374998-.40625-.25c-.28276-.182 1.22337.79081878-.375-.23828124zm-.5 1.51953122v7.75l-.0625.09375-.21875.125-7.21875 4.8125004v-7.7812504zm1 0 7.5 5v7.6250004l-7.5-5.0000004zm-.375 8.5937504 7.3125 4.875-7.4375 4.96875-7.34375-4.875 7.125-4.75z"
      class="ColorScheme-Text" />
   <path
      style="fill:currentColor;fill-opacity:.2;stroke:none"
      d="m10.582031 1.875c-.01267 0-1.7493747 1.1472281-3.8593748 2.5488281l-3.8359374 2.5488281v3.9570318c0 2.1774.0112906 3.958984.0253906 3.958984.01408 0 1.750785-1.148535 3.859375-2.552734l3.8339846-2.5527349v-3.9550781c0-2.1748-.010738-3.953125-.023438-3.953125z"
      class="ColorScheme-Text" />
   <path
      style="fill:currentColor;fill-opacity:.4;stroke:none"
      d="m11.089844 10.394531c-.11473.0047-7.6829721 5.111297-7.6386721 5.154297.02192.0211 1.7215437 1.164563 3.7773437 2.539063s3.7494714 2.492421 3.7636724 2.482421c.64001-.4148 7.602374-5.125437 7.609374-5.148437.015031-.0498-7.427418-5.027344-7.511718-5.027344z"
      class="ColorScheme-Text" />
   <path
      style="fill:currentColor;fill-opacity:.6;stroke:none"
      d="m11.427734 1.8125c-.0126 0-.024157 1.751125-.023437 3.890625l.001953 3.8886719 3.832031 2.5644531c2.10711 1.41 3.835797 2.566406 3.841797 2.566406.0064.0017.011719-1.752737.011719-3.898437v-3.9003909l-3.820313-2.5566406c-2.10146-1.4055-3.83115-2.5546875-3.84375-2.5546875z"
      class="ColorScheme-Text" />
</svg> 
