<svg xmlns="http://www.w3.org/2000/svg" viewBox="0 0 22 22">
  <defs id="defs3051">
    <style type="text/css" id="current-color-scheme">
      .ColorScheme-Text {
        color:#4d4d4d
      }
      </style>
  </defs>
 <path 
     style="fill:currentColor;fill-opacity:1;stroke:none"      
	 class="ColorScheme-Text"
        d="m 11.03714,3.0020835 c -4.0983968,0.095 -7.5048748,3.5815 -7.4042967,7.7226995 0.019268,0.7933 0.1732815,1.5576 0.4316406,2.2754 l 1.1230469,-0.3672 c -0.2215213,-0.6016 -0.3561582,-1.2423 -0.3769531,-1.9082 C 4.7011894,7.2216835 7.575605,4.2660835 11.03714,4.1641835 c 3.649645,-0.1074 6.724685,2.9177 6.824219,6.5605995 0.104589,3.8281 -3.038229,7.0521 -6.824219,7.1504 -3.172705,0.082 -5.9406186,-2.0079 -6.9726561,-4.875 l -1.0644531,0.3476 c 1.171463,3.3888 4.4591782,5.7254 8.0371092,5.6504 4.400439,-0.092 8.058078,-3.8294 7.960938,-8.2734 C 18.904718,6.4536835 15.310367,2.9030835 11.03714,3.0020835 Z M 5.1875308,12.632983 c 0.8795094,2.3885 3.1980549,4.1252 5.8496092,4.0351 3.122757,-0.106 5.710966,-2.7795 5.595703,-5.9433 -0.107879,-2.9612995 -2.622067,-5.4161995 -5.595703,-5.2968995 -2.7665691,0.111 -5.0582668,2.4896 -4.9355467,5.2968995 0.023055,0.5273 0.151568,1.0269 0.3339844,1.5019 l 1.3964843,-0.455 c -0.1387263,-0.3297 -0.2387979,-0.6787 -0.265625,-1.0469 -0.1473257,-2.0219995 1.4897559,-3.7520995 3.470703,-3.8769995 2.219057,-0.14 4.11028,1.6775 4.230469,3.8769995 0.13274,2.429 -1.842095,4.4942 -4.230469,4.6113 -2.0781678,0.102 -3.8870197,-1.2487 -4.6015623,-3.1094 l -1.2480469,0.4063 z m 2.6445312,-0.8613 c 0.5285788,1.256 1.7828663,2.1528 3.205078,2.0273 1.531309,-0.1352 2.793055,-1.5008 2.621094,-3.0742 C 13.517345,9.4356835 12.35671,8.3685835 11.03714,8.5626835 c -1.010115,0.1486 -1.8572362,1.1085 -1.626953,2.1620995 0.035679,0.1632 0.1065733,0.3218 0.1992188,0.4668 l 1.4277342,-0.4668 c 0.694605,0 0.433377,0.8204 0,1.0117 -0.557771,0.2462 -1.1240777,-0.07 -1.4277342,-0.5449 l -1.7773438,0.5801 z"
     />
</svg>
