<svg xmlns="http://www.w3.org/2000/svg" viewBox="0 0 22 22">
 <defs id="defs3051">
   <style type="text/css" id="current-color-scheme">
     .ColorScheme-Text {
       color:#4d4d4d;
     }
     </style>
 </defs>
   <path
      style="fill:currentColor;fill-opacity:1;stroke:none"
      d="m3.0546873 3.0508v2.9785h.9921875v7.9434 3.9804h3.9804688 7.9394544v.9961h2.978515v-2.9785h-2.978515v.9922h-6.9492201-3.3652343l2.3671874-.9199c.062369-.024.1173356-.062.1621094-.1113l6.2949226-6.918-2.455079-2.2344-6.2949217 6.918c-.04485.049-.077325.1079-.095703.1719l-.5898438 2.0761v-2.9629-6.9492h.9921875v-2.9785h-2.9785156zm11.6992197.9121c-.113902.01-.221934.056-.298828.1406l-.921875 1.0157 2.455078 2.2343.921875-1.0136c.160129-.176.148611-.4492-.02734-.6094l-1.818363-1.6543c-.08454-.077-.196671-.1187-.310547-.1133zm-1.511718 1.4746-.320314.3516 2.455079 2.2344.322265-.3516zm-.609377.6699-.320312.3536 2.455079 2.2343.320313-.3535z"
      class="ColorScheme-Text" />
</svg> 
