<svg xmlns="http://www.w3.org/2000/svg" viewBox="0 0 22 22">
  <defs id="defs3051">
    <style type="text/css" id="current-color-scheme">
      .ColorScheme-Text {
        color:#4d4d4d
      }
      </style>
  </defs>
 <path 
     style="fill:currentColor;fill-opacity:1;stroke:none"      
	 class="ColorScheme-Text"
        d="m 6.6700649,2.99984 -3.23828,0.01 c -0.10299,3.4e-4 -0.19637,0.0436 -0.26368,0.11133 -0.0673,0.0677 -0.10968,0.16065 -0.10937,0.26367 l 0.0117,3.23828 c 6.6e-4,0.20607 0.16702,0.37375 0.37304,0.37305 0.20599,-6.6e-4 0.37367,-0.16898 0.37305,-0.375 l -0.01,-2.86524 2.86523,-0.01 c 0.20598,-6.5e-4 0.3737,-0.16902 0.37305,-0.375 -5.6e-4,-0.20607 -0.16888,-0.37181 -0.375,-0.3711 z m 8.6894501,0 c -0.20612,-7.1e-4 -0.37444,0.16503 -0.375,0.3711 -6.6e-4,0.20598 0.16512,0.37435 0.37109,0.375 l 2.86719,0.01 -0.01,2.86523 c -6.2e-4,0.20603 0.16706,0.37434 0.37305,0.375 0.20602,7e-4 0.37239,-0.16698 0.37304,-0.37305 l 0.0117,-3.23828 c 3.1e-4,-0.10302 -0.0421,-0.19597 -0.10937,-0.26367 -0.0673,-0.0677 -0.16069,-0.11099 -0.26367,-0.11133 l -3.23825,-0.01 z m -0.92969,2.00586 c -0.47597,0 -0.91448,0.11698 -1.3164,0.35156 -0.40197,0.23455 -0.72049,0.55312 -0.95508,0.95508 -0.23463,0.40197 -0.35352,0.84048 -0.35352,1.31641 0,0.47597 0.11897,0.91635 0.35352,1.31836 0.23459,0.40188 0.55116,0.72049 0.95312,0.95508 0.40197,0.23458 0.84239,0.35156 1.31836,0.35156 0.47597,0 0.91448,-0.11698 1.31641,-0.35156 0.40192,-0.23455 0.72049,-0.55316 0.95508,-0.95508 0.23454,-0.40197 0.35156,-0.84243 0.35156,-1.31836 0,-0.47597 -0.11706,-0.91448 -0.35156,-1.31641 -0.23459,-0.40192 -0.55316,-0.72049 -0.95508,-0.95508 -0.40201,-0.23458 -0.8404,-0.35156 -1.31641,-0.35156 z m -6.8593701,0.004 c -0.47597,0 -0.91449,0.11698 -1.31641,0.35156 -0.40196,0.23455 -0.72049,0.55311 -0.95508,0.95508 -0.23463,0.40196 -0.35156,0.84048 -0.35156,1.3164 0,0.47597 0.11702,0.9144 0.35156,1.31641 0.23459,0.40188 0.55312,0.72049 0.95508,0.95508 0.40197,0.23459 0.84044,0.35156 1.31641,0.35156 0.47597,0 0.91643,-0.11697 1.31836,-0.35156 0.40192,-0.23455 0.71853,-0.55316 0.95312,-0.95508 0.2345501,-0.40196 0.3535201,-0.84048 0.3535201,-1.31641 0,-0.47596 -0.11901,-0.91448 -0.3535201,-1.3164 -0.23459,-0.40193 -0.5512,-0.72049 -0.95312,-0.95508 -0.40201,-0.23459 -0.84235,-0.35156 -1.31836,-0.35156 z m 0.0566,6.73633 c -0.47597,0 -0.91448,0.11697 -1.31641,0.35156 -0.40196,0.23455 -0.72049,0.55312 -0.95508,0.95508 -0.23463,0.40197 -0.35156,0.84243 -0.35156,1.31836 0,0.47597 0.11702,0.9144 0.35156,1.31641 0.23459,0.40188 0.55312,0.72049 0.95508,0.95507 0.40197,0.23459 0.84044,0.35157 1.31641,0.35157 0.47597,0 0.91448,-0.11698 1.3164,-0.35157 0.40193,-0.23455 0.72049,-0.55315 0.95508,-0.95508 0.2345501,-0.40196 0.3515601,-0.84048 0.3515601,-1.3164 0,-0.47597 -0.11705,-0.91644 -0.3515601,-1.31836 -0.23459,-0.40193 -0.55315,-0.72049 -0.95508,-0.95508 -0.402,-0.23459 -0.84039,-0.35156 -1.3164,-0.35156 z m 6.8027301,0 c -0.47601,0 -0.9164,0.11695 -1.31836,0.35156 -0.402,0.23457 -0.72047,0.55308 -0.95508,0.95508 -0.23465,0.402 -0.35156,0.84044 -0.35156,1.31641 0,0.476 0.117,0.91632 0.35156,1.31836 0.23461,0.40191 0.55308,0.72047 0.95508,0.95507 0.402,0.23461 0.84235,0.35157 1.31836,0.35157 0.47601,0 0.91445,-0.11696 1.31641,-0.35157 0.40196,-0.23456 0.72047,-0.55312 0.95508,-0.95507 0.23456,-0.402 0.35156,-0.8424 0.35156,-1.31836 0,-0.47601 -0.11704,-0.91445 -0.35156,-1.31641 -0.23461,-0.40196 -0.55312,-0.72047 -0.95508,-0.95508 -0.40204,-0.23461 -0.84036,-0.35156 -1.31641,-0.35156 z M 3.4141649,15.00384 c -0.20603,-7e-4 -0.37239,0.16698 -0.37305,0.37304 l -0.0117,3.23829 c -3e-4,0.10301 0.0421,0.19597 0.10938,0.26367 0.0673,0.0677 0.16068,0.11099 0.26367,0.11133 l 3.23828,0.01 c 0.20612,7e-4 0.37444,-0.16503 0.375,-0.3711 6.6e-4,-0.20598 -0.16512,-0.37435 -0.37109,-0.375 l -2.86719,-0.01 0.01,-2.86523 c 6.1e-4,-0.20603 -0.16706,-0.37435 -0.37305,-0.375 z m 15.1425801,0 c -0.20599,6.6e-4 -0.37367,0.16897 -0.37305,0.375 l 0.01,2.86523 -2.86524,0.01 c -0.20597,6.5e-4 -0.3737,0.16902 -0.37304,0.375 5.6e-4,0.20607 0.16888,0.37181 0.375,0.3711 l 3.23828,-0.01 c 0.10298,-3.4e-4 0.19637,-0.0436 0.26367,-0.11133 0.0673,-0.0677 0.10968,-0.16066 0.10938,-0.26367 l -0.0117,-3.23828 c -6.6e-4,-0.20607 -0.16702,-0.37375 -0.37305,-0.37305 z"
     />
</svg>
