<svg xmlns="http://www.w3.org/2000/svg" viewBox="0 0 22 22">
 <defs id="defs3051">
   <style type="text/css" id="current-color-scheme">
     .ColorScheme-Text {
       color:#4d4d4d;
     }
     </style>
 </defs>
   <path
      style="fill:currentColor;fill-opacity:1;stroke:none"
      d="m11.083984 3c-4.780983 0-8.5253903 2.2669583-8.5253902 5.1601562 0 1.0673488.5121584 2.0473148 1.3945312 2.8613278-.2756201.178513-.5446623.415626-.7460938.751954-.4144808.691885-.4244571 1.551286-.0273437 2.552734.374036.943357.283344 1.29101.2265625 1.396484-.1329923.250679-.7178469.377793-1.2832031.5-.1382264.030056-.2792768.060443-.4199219.09375-.3760582.08882-.6096701.465104-.5214844.841797.0754179.321616.3645844.539063.6816406.539063.0531335 0 .1062694-.005405.1601563-.017578.1316442-.031365.2646318-.061731.3945313-.089844.8370904-.180971 1.7841066-.386605 2.2226562-1.208985.3364857-.630544.2849755-1.446816-.1601562-2.570312-.2270069-.572375-.2521469-1.013763-.0761719-1.3125.1968715-.335098.6390521-.483242.8789062-.533203 1.4157697.789151 3.2856347 1.281724 5.3769529 1.341797l-.416015-1.416016c-3.4840904-.228315-6.2871097-1.84197-6.2871098-3.7304688.0000397-2.0381452 3.2637121-3.7617187 7.1269528-3.7617187 3.863281 0 7.126954 1.7236131 7.126954 3.7617187 0 .4936261-.195609.9694452-.541016 1.40625l1.404297.4121094c.341521-.564127.537109-1.1744131.537109-1.8183594 0-2.8931979-3.74636-5.1601562-8.527344-5.1601562zm.47461 6.2480469c-.123436 0-.243737.0485432-.333985.1386719-.122762.1221277-.170262.3012107-.121093.4667968l2.58789 8.8066404c.053134.182914.212372.317351.402344.337891.017962.001864.035644.001953.052734.001953.17086 0 .329525-.092512.414063-.244141l2.144531-3.888671 3.886719-2.144532c.167529-.092071.263163-.275466.242187-.464844-.020381-.189813-.154381-.347981-.33789-.402343l-8.804688-2.589844c-.044212-.0134023-.088045-.0175781-.132812-.0175781z"
      class="ColorScheme-Text" />
</svg> 
