<svg xmlns="http://www.w3.org/2000/svg" viewBox="0 0 22 22">
  <defs id="defs3051">
    <style type="text/css" id="current-color-scheme">
      .ColorScheme-Text {
        color:#4d4d4d
      }
      </style>
  </defs>
    <path
       style="fill:currentColor;fill-opacity:1;stroke:none"
       class="ColorScheme-Text"
       d="m 17.16357,11.41288 c -0.4486,-0.43813 -1.17641,-0.43813 -1.62554,0 l -4.53782,4.8801 -4.53784,-4.8801 c -0.44912,-0.43813 -1.1764,-0.43813 -1.62552,0 -0.44913,0.43814 -0.44913,1.1478 0,1.58594 l 5.27861,5.67726 c 0.24298,0.23674 0.56657,0.34113 0.88475,0.32162 0.31763,0.0195 0.64176,-0.085 0.88472,-0.32162 l 5.27864,-5.67726 c 0.44857,-0.43814 0.44857,-1.1478 0,-1.58594 z M 10.99344,6.69065 c 1.04598,0 1.89391,-0.82618 1.89391,-1.84532 C 12.88735,3.82618 12.03942,3 10.99344,3 9.94746,3 9.09952,3.82618 9.09952,4.84533 c 0,1.01914 0.84794,1.84532 1.89392,1.84532 z m 0,5.27236 c 1.04598,0 1.89391,-0.82618 1.89391,-1.84533 0,-1.01915 -0.84793,-1.84532 -1.89391,-1.84532 -1.04598,0 -1.89392,0.82617 -1.89392,1.84532 0,1.01915 0.84794,1.84533 1.89392,1.84533 z"
        />
</svg>
