<svg xmlns="http://www.w3.org/2000/svg" viewBox="0 0 22 22">
 <defs id="defs3051">
   <style type="text/css" id="current-color-scheme">
     .ColorScheme-Text {
       color:#4d4d4d;
     }
     </style>
 </defs>
   <path
      style="fill:currentColor;fill-opacity:1;stroke:none"
      d="m3 3v5h1v-4h2v3 1h1v-1-3h2v4h1v-4h2v4h1v-4h2v3 1h1v-1-3h2v4h1v-4-1h-15zm11 6 2.5 5 2.5-5zm-11 5v5h1 8 1 2 1 2 1v-1-4h-1v4h-2v-4h-1v4h-2v-4h-1v4h-2v-4h-1v4h-2v-4h-1v4h-2v-4z"
      class="ColorScheme-Text" />
   
 <defs id="defs3051">
   <style type="text/css" id="current-color-scheme">
     .ColorScheme-Text {
       color:#3daee9;
     }
     </style>
 </defs>
   <path
      style="fill:currentColor;fill-opacity:1;stroke:none"
      d="m3 8v1h1 3.28125l-3.28125 3.28125v.011719l-.707031.707031h-.292969v1h1 7 2v-1h-.28125l.28125-.28125v-1.4375l-1.71875 1.71875h-.28125-2.28125l2.28125-2.28125 1.71875-1.71875h.28125v-1h-2-2.707031-4.292969zm5.71875 1h2.28125.28125l-.28125.28125-3.71875 3.71875h-2.5625z"
      class="ColorScheme-Text" />
   </svg> 
