<svg xmlns="http://www.w3.org/2000/svg" viewBox="0 0 22 22">
 <defs id="defs3051">
   <style type="text/css" id="current-color-scheme">
     .ColorScheme-Text {
       color:#4d4d4d;
     }
     </style>
 </defs>
   <path
      style="fill:currentColor;fill-opacity:1;stroke:none"
      d="m3 3v15 1h16v-1-15h-1-14zm1 1h4v2h-4zm5 0h4v2h-4zm5 0h4v2h-3-1v-1.0996094zm-10 3h4v1h1v-1h4v1h1v-1h1 3v1 1 1 2 1 1 1h-3-1v-1h-1v1h-4v-1h-1v1h-4v-1-1-1-2-1-1zm0 9h3 1v1 1h-4zm5 0h4v1 1h-4v-1zm5 0h1 3v2h-4v-1z"
      class="ColorScheme-Text" />
   
 <defs id="defs3051">
   <style type="text/css" id="current-color-scheme">
     .ColorScheme-Text {
       color:#da4453;
     }
     </style>
 </defs>
   <path
      style="fill:currentColor;fill-opacity:1;stroke:none"
      d="m4 14h5.29297 4 4 .70703v-.70703-.29297h-.29297l-4-4h4.29297v-1h-14v1h .29297l4 4h-4.29297zm1.70703-5h2.58594l4 4h-2.58594zm4 0h2.58594l4 4h-2.58594z"
      class="ColorScheme-Text" />
   </svg> 
