<svg xmlns="http://www.w3.org/2000/svg" viewBox="0 0 22 22">
  <defs id="defs3051">
    <style type="text/css" id="current-color-scheme">
      .ColorScheme-Text {
        color:#4d4d4d
      }
      </style>
  </defs>
 <path 
     style="fill:currentColor;fill-opacity:1;stroke:none"      
	 class="ColorScheme-Text"
        d="M 4,3 C 3.446,3 3,3.446 3,4 l 0,14 c 0,0.554 0.446,1 1,1 l 14,0 c 0.554,0 1,-0.446 1,-1 L 19,4 C 19,3.446 18.554,3 18,3 L 4,3 Z m 4.43555,3.40039 c 0.64582,0 1.16992,0.52391 1.16992,1.16992 0,0.64639 -0.5241,1.16992 -1.16992,1.16992 -0.64621,0 -1.16993,-0.52372 -1.16993,-1.16992 0,-0.64601 0.52372,-1.16992 1.16993,-1.16992 z m 5.30664,0 c 0.64582,0 1.16992,0.52391 1.16992,1.16992 0,0.64639 -0.52391,1.16992 -1.16992,1.16992 -0.64583,0 -1.17188,-0.52372 -1.17188,-1.16992 0,-0.64601 0.52605,-1.16992 1.17188,-1.16992 z m -6.9668,5.31445 c 0.15922,-0.0127 0.35023,0.006 0.57813,0.0664 0,0 3.23519,1.75371 7.29296,0 1.82314,-0.48356 1.26563,1.67383 1.26563,1.67383 C 14.87007,16.65476 11,16.39452 11,16.39452 c 0,0 -3.87045,0.26024 -4.91211,-2.93945 0,0 -0.42704,-1.65138 0.6875,-1.74024 z"
     />
</svg>
