<svg height="22" width="22" xmlns="http://www.w3.org/2000/svg"><g fill="#4d4d4d" transform="matrix(.67604148 0 0 .67604148 -259.80291 -348.51753)"><circle cx="389.57144" cy="-509.56406" fill="#4d4d4d" r="0"/><path d="m3.18 201.694 38.31 29.933-36.057 69.073c-18.028 31.851 12.943 62.878 32.676 73.679 19.426 10.632 49.577 11.896 77.746 11.513l50.704-82.889 38.31 20.722-66.479-123.181zm5.633 169.086 82.253 151.962c16.526 21.105 47.7 26.094 80 25.327h86.76v-143.903l-164.506-1.151c-25.539 1.533-58.967-3.839-84.507-32.235zm517.496-280.048-44.752 18.995-42.933-65.022c-19.116-31.209-61.27-19.164-80.282-7.141-18.716 11.836-34.44 37.594-47.761 62.417l47.914 84.532-36.697 23.46 139.966 1.576zm-150.617-77.046-172.786-1.732c-26.471 4.221-45.948 29.067-60.936 57.691l-42.062 75.882 125.861 69.766 80.761-143.323c11.039-23.083 31.944-49.714 69.162-58.284zm7.516 586.36 5.082-48.351 77.685-6.025c36.563-1.59 46.465-44.297 45.167-66.755-1.277-22.108-16.184-48.348-31.437-72.033l-97.162.925-2.729-43.47-69.235 121.653zm140.407-94.379 85.283-150.281c9.142-25.199-3.146-54.28-20.915-81.266l-45.976-73.577-122.037 76.257 86.199 140.12c14.837 20.845 27.994 52.039 17.446 88.747z" fill="#4d4d4d" transform="matrix(.039215690986 0 0 .040244021294 388.571441459056 519.483362639159)"/></g></svg>
