<svg xmlns="http://www.w3.org/2000/svg" viewBox="0 0 22 22">
 <defs id="defs3051">
   <style type="text/css" id="current-color-scheme">
     .ColorScheme-Text {
       color:#4d4d4d;
     }
     </style>
 </defs>
   <path
      style="fill:currentColor;fill-opacity:1;stroke:none"
      d="m3.3847656 2c-.76432 0-1.3847656.6204556-1.3847656 1.3847656v15.2304684c0 .76432.6204456 1.384766 1.3847656 1.384766h15.2304684c.76432 0 1.384766-.620446 1.384766-1.384766v-15.2304684c0-.76431-.620446-1.3847656-1.384766-1.3847656zm6.2011719 3.0019531h2.8300785c-.002994 1.2847345 0 4.6582031 0 4.6582031h4.583984v2.6777348h-4.583984s-.000907 3.372859-.003907 4.662109h-2.8281246c.003-1.28925.0019531-4.662109.0019531-4.662109s-3.0678575.000906-4.5859375.003906v-2.6777345c1.51808-.003 4.5859375-.0019531 4.5859375-.0019531s-.003-3.3767263 0-4.6601563z"
      class="ColorScheme-Text" />
</svg> 
