<svg xmlns="http://www.w3.org/2000/svg" viewBox="0 0 22 22">
 <defs id="defs3051">
   <style type="text/css" id="current-color-scheme">
     .ColorScheme-Text {
       color:#4d4d4d;
     }
     </style>
 </defs>
   <path
      style="fill:currentColor;fill-opacity:1;stroke:none"
      d="m4.5996094 3c-.4431994 0-.7988282.3575818-.7988282.8007812v14.3984378c0 .443199.3556288.800781.7988282.800781h12.8007816c.443199 0 .798828-.357582.798828-.800781v-14.3984378c0-.4431994-.355629-.8007812-.798828-.8007812zm6.4003906 4.0019531c.15455-.0097669.311469.0418354.429688.1601563l2.570312 2.8378906c.218269.219067.218269.573902 0 .792969-.21828.219067-.572474.219067-.791016 0l-2.208984-2.4394534-2.2070312 2.4394534c-.2185358.219067-.5724799.219067-.7910157 0-.2185412-.219067-.2185412-.573902 0-.792969l2.5683589-2.8378906c.11823-.1183698.274866-.1699124.429688-.1601563zm-.003906 3.5156249c.508955 0 .921875.414255.921875.923828s-.41292.921875-.921875.921875-.919922-.412302-.919922-.921875.410967-.923828.919922-.923828zm0 2.636719c.508955 0 .921875.41426.921875.923828 0 .509573-.41292.921875-.921875.921875s-.919922-.412302-.919922-.921875c0-.509568.410967-.923828.919922-.923828z"
      class="ColorScheme-Text" />
</svg> 
