<svg xmlns="http://www.w3.org/2000/svg" viewBox="0 0 22 22">
 <defs id="defs3051">
   <style type="text/css" id="current-color-scheme">
     .ColorScheme-Text {
       color:#4d4d4d;
     }
     </style>
 </defs>
   <path
      style="fill:currentColor;fill-opacity:1;stroke:none"
      d="m11.000326 3c-2.0366799 0-3.9094399.43876-5.2762499 1.32812-1.3668.88936-2.22569 2.23737-2.22396 4.02865.009 2.02438 1.32046 4.63644 2.90315 6.77083.79133 1.06719 1.65119 2.01513 2.45568 2.70573.80446.6906 1.5489199 1.12954 2.1360599 1.16667h.005.005c.58714-.0372 1.33159-.47607 2.13605-1.16667.80447-.6906 1.66434-1.63854 2.45569-2.70573 1.5827-2.13439 2.89346-4.74645 2.90314-6.77083.00073-1.79128-.85718-3.13929-2.22397-4.02865-1.3668-.88936-3.23958-1.32812-5.27626-1.32812z"
      class="ColorScheme-Text" />
</svg> 
