<?xml version="1.0" encoding="UTF-8" standalone="no"?>
<svg
   xmlns:dc="http://purl.org/dc/elements/1.1/"
   xmlns:cc="http://creativecommons.org/ns#"
   xmlns:rdf="http://www.w3.org/1999/02/22-rdf-syntax-ns#"
   xmlns:svg="http://www.w3.org/2000/svg"
   xmlns="http://www.w3.org/2000/svg"
   xmlns:sodipodi="http://sodipodi.sourceforge.net/DTD/sodipodi-0.dtd"
   xmlns:inkscape="http://www.inkscape.org/namespaces/inkscape"
   viewBox="0 0 22 22"
   id="svg2"
   version="1.1"
   inkscape:version="0.91 r13725"
   sodipodi:docname="filename-moodbar.svg">
  <metadata
     id="metadata15">
    <rdf:RDF>
      <cc:Work
         rdf:about="">
        <dc:format>image/svg+xml</dc:format>
        <dc:type
           rdf:resource="http://purl.org/dc/dcmitype/StillImage" />
      </cc:Work>
    </rdf:RDF>
  </metadata>
  <sodipodi:namedview
     pagecolor="#ffffff"
     bordercolor="#666666"
     borderopacity="1"
     objecttolerance="10"
     gridtolerance="10"
     guidetolerance="10"
     inkscape:pageopacity="0"
     inkscape:pageshadow="2"
     inkscape:window-width="2560"
     inkscape:window-height="1373"
     id="namedview13"
     showgrid="false"
     inkscape:zoom="21.454545"
     inkscape:cx="8.6816217"
     inkscape:cy="4.8049637"
     inkscape:window-x="0"
     inkscape:window-y="38"
     inkscape:window-maximized="1"
     inkscape:current-layer="svg2" />
  <defs
     id="defs3051">
    <style
       type="text/css"
       id="current-color-scheme">
      .ColorScheme-Text {
        color:#4d4d4d
      }
      </style>
  </defs>
  <path
     inkscape:connector-curvature="0"
     style="fill:#ff9051;fill-opacity:1;stroke:none"
     d="m 5.94688,4.92812 0,11.55 2.526568,0 0,-11.55 -2.526568,0 z"
     id="rect4752" />
  <path
     inkscape:connector-curvature="0"
     style="fill:#00ab83;fill-opacity:1;stroke:none"
     d="m 11.000008,4.92812 0,11.55 2.52656,0 0,-11.55 -2.52656,0 z"
     id="rect4752-5" />
  <path
     inkscape:connector-curvature="0"
     style="fill:#4f71d4;fill-opacity:1;stroke:none"
     d="m 16.053128,4.92812 0,11.55 2.526568,0 0,-11.55 -2.526568,0 z"
     id="rect4752-3" />
  <path
     inkscape:connector-curvature="0"
     style="fill:#ffd68c;fill-opacity:1;stroke:none"
     d="m 3.42032,4.92812 0,11.55 2.52656,0 0,-11.55 -2.52656,0 z"
     id="rect4752-31" />
  <path
     inkscape:connector-curvature="0"
     style="fill:#4bb4ff;fill-opacity:1;stroke:none"
     d="m 13.526568,4.92812 0,11.55 2.52656,0 0,-11.55 -2.52656,0 z"
     id="rect4752-4" />
  <path
     inkscape:connector-curvature="0"
     style="fill:#7fcc74;fill-opacity:1;stroke:none"
     d="m 8.473448,4.92812 0,11.55 2.52656,0 0,-11.55 -2.52656,0 z"
     id="rect4752-9-4" />
  <path
     style="color:#4d4d4d;fill:currentColor;fill-opacity:1;stroke:none"
     class="ColorScheme-Text"
     d="M 3.706248,4.407808 C 3.321088,4.407808 3,4.727344 3,5.112496 L 3,16.293744 C 3,16.678904 3.321088,17 3.706248,17 l 14.589064,0 C 18.680472,17 19,16.678904 19,16.293744 L 19,5.112496 C 19,4.727344 18.680472,4.407808 18.295312,4.407808 l -14.589064,0 z m 0,0.665624 14.589064,0 c 0.0276,0 0.03904,0.01152 0.03904,0.03904 l 0,11.181248 c 0,0.02768 -0.01152,0.03904 -0.03904,0.03904 l -14.589064,0 c -0.02768,0 -0.04064,-0.01152 -0.04064,-0.03904 l 0,-11.181248 c 0,-0.0276 0.01296,-0.03904 0.04064,-0.03904 z"
     id="rect4403"
     inkscape:connector-curvature="0" />
</svg>
