<svg xmlns="http://www.w3.org/2000/svg" viewBox="0 0 22 22">
  <defs id="defs3051">
    <style type="text/css" id="current-color-scheme">
      .ColorScheme-Text {
        color:#4d4d4d
      }
      </style>
  </defs>
 <path 
     style="fill:currentColor;fill-opacity:1;stroke:none"      
	 class="ColorScheme-Text"
        d="M 18.179068,10.5444 C 17.650307,9.607 16.813302,8.764 15.781447,8.1176 l 0,-1.704 c 0,-1.0145 -0.725211,-1.923 -2.042361,-2.5581 C 12.594876,3.3038 11.089789,3 9.5016886,3 7.9131992,3 6.408458,3.3038 5.2642047,3.8555 3.9470969,4.4906 3.2215404,5.3991 3.2215404,6.4136 l 0,9.1728 c 0,0.295 0.06188,0.5808 0.1809786,0.8537 0.1486118,0.36 0.3826566,0.6756 0.677287,0.9212 0.3143358,0.2912 0.7108639,0.5548 1.1843555,0.7832 C 6.4084147,18.6962 7.913156,19 9.5016449,19 c 1.5881001,0 3.0931871,-0.3038 4.2374411,-0.8555 0.47293,-0.2282 0.869241,-0.4917 1.183578,-0.7825 0.294933,-0.2458 0.529194,-0.5617 0.677892,-0.9221 0.07255,-0.1658 0.123375,-0.3365 0.152629,-0.511 1.254363,-0.2326 2.203636,-0.8826 2.690178,-1.8524 0.524656,-1.0456 0.430753,-2.3 -0.264295,-3.5321 z M 4.7107248,6.4136 c 0,-0.3994 0.4488598,-0.8542 1.200042,-1.2166 0.9328954,-0.4497 2.2418796,-0.7076 3.5909218,-0.7076 1.3489994,0 2.6575934,0.2579 3.5905324,0.7076 0.751571,0.3624 1.200085,0.8172 1.200085,1.2166 0,0.3993 -0.448514,0.8541 -1.200085,1.2163 C 12.159282,8.0797 10.850688,8.3378 9.5016886,8.3378 8.1526464,8.3378 6.8436622,8.0797 5.9107668,7.6299 5.1595846,7.2677 4.7107248,6.8129 4.7107248,6.4136 Z m 12.4253832,7.007 c -0.658057,1.3119 -3.006803,1.5211 -5.128764,0.4566 -0.457374,-0.2296 -0.88104,-0.5057 -1.256523,-0.8162 -0.150513,0.1147 -0.337757,0.1833 -0.541899,0.1833 -0.4951847,0 -0.896552,-0.4013 -0.896552,-0.8965 0,-0.4952 0.4013673,-0.8968 0.896552,-0.8968 0.495229,0 0.896942,0.4016 0.896942,0.8968 0,0.05 -0.0053,0.099 -0.01314,0.1463 0.321726,0.2438 0.673311,0.4636 1.048233,0.6515 1.26914,0.6367 2.61935,0.8174 3.640487,0.5792 l 0,-3.7934 c 1.255183,1.0829 1.856717,2.4884 1.354661,3.4892 z"
     />
</svg>
