<?xml version="1.0" encoding="UTF-8" standalone="no"?>
<svg
   xmlns:dc="http://purl.org/dc/elements/1.1/"
   xmlns:cc="http://creativecommons.org/ns#"
   xmlns:rdf="http://www.w3.org/1999/02/22-rdf-syntax-ns#"
   xmlns:svg="http://www.w3.org/2000/svg"
   xmlns="http://www.w3.org/2000/svg"
   xmlns:sodipodi="http://sodipodi.sourceforge.net/DTD/sodipodi-0.dtd"
   xmlns:inkscape="http://www.inkscape.org/namespaces/inkscape"
   viewBox="0 0 22 22"
   id="svg3197"
   version="1.1"
   inkscape:version="0.91 r13725"
   sodipodi:docname="folder-sync.svg">
  <metadata
     id="metadata3205">
    <rdf:RDF>
      <cc:Work
         rdf:about="">
        <dc:format>image/svg+xml</dc:format>
        <dc:type
           rdf:resource="http://purl.org/dc/dcmitype/StillImage" />
      </cc:Work>
    </rdf:RDF>
  </metadata>
  <sodipodi:namedview
     pagecolor="#ffffff"
     bordercolor="#666666"
     borderopacity="1"
     objecttolerance="10"
     gridtolerance="10"
     guidetolerance="10"
     inkscape:pageopacity="0"
     inkscape:pageshadow="2"
     inkscape:window-width="640"
     inkscape:window-height="480"
     id="namedview3203"
     showgrid="false"
     inkscape:zoom="28.954545"
     inkscape:cx="4.8524333"
     inkscape:cy="11"
     inkscape:current-layer="svg3197" />
  <defs
     id="defs3051">
    <style
       type="text/css"
       id="current-color-scheme">
      .ColorScheme-Text {
        color:#4d4d4d
      }
      </style>
  </defs>
  <path
     style="color:#4d4d4d;fill:currentColor;fill-opacity:1;stroke:none"
     class="ColorScheme-Text"
     d="M 3.28772,4.2010398 C 3.128008,4.2010398 3,4.3366078 3,4.5057438 L 3,16.96408 19,17 19,6.3089278 c 0,-0.169136 -0.129488,-0.306264 -0.2892,-0.306264 l -8.672808,0 C 9.744168,6.0301838 9.706616,5.9891438 9.561416,5.7839038 9.355504,5.4920798 9.044096,4.7060158 8.841384,4.4213438 8.67868,4.1721118 8.65236,4.2010238 8.382512,4.2010238 l -5.094792,0 z M 11,8.373096 c 0.397616,0 0.783968,0.08058 1.15972,0.240632 0.3758,0.16004 0.710432,0.38528 1.00184,0.676592 l 0.531176,-0.55784 c 0.05184,-0.05472 0.11216,-0.08126 0.182952,-0.08126 0.0708,0 0.132744,0.02648 0.184432,0.08126 0.05184,0.0548 0.07672,0.120344 0.07672,0.19532 l 0,1.937584 c 0,0.07496 -0.02496,0.14052 -0.07672,0.19532 -0.05176,0.0548 -0.113632,0.08125 -0.184432,0.08125 l -1.829584,0 c -0.0708,0 -0.13264,-0.02648 -0.184432,-0.08125 -0.05168,-0.0548 -0.07672,-0.120344 -0.07672,-0.19532 0,-0.07496 0.02512,-0.13896 0.07672,-0.19376 l 0.563632,-0.598456 C 12.022232,9.678048 11.547432,9.480952 11,9.480952 c -0.36492,0 -0.705096,0.09382 -1.021024,0.281256 -0.315936,0.187496 -0.569232,0.446248 -0.759872,0.775032 -0.03,0.04904 -0.10252,0.217888 -0.216896,0.50628 -0.02184,0.06632 -0.06256,0.09843 -0.122464,0.09843 l -0.812984,0 c -0.03544,0 -0.0656,-0.0132 -0.091472,-0.04064 -0.02584,-0.02736 -0.0384,-0.05936 -0.0384,-0.09687 l 0,-0.03128 c 0.17704,-0.772992 0.543864,-1.399592 1.102168,-1.879768 0.55832,-0.48024 1.21196,-0.720344 1.960904,-0.720344 z m -2.875696,3.87672 1.829592,0 c 0.0708,0 0.13268,0.02792 0.184432,0.08282 0.05176,0.05472 0.07672,0.118768 0.07672,0.193752 0,0.07496 -0.02504,0.140568 -0.07672,0.19532 l -0.559208,0.59222 c 0.193344,0.19036 0.411504,0.338344 0.656584,0.4422 C 10.480792,13.86 10.735856,13.910824 11,13.910824 c 0.36492,0 0.705088,-0.09377 1.021024,-0.281264 0.31588,-0.187448 0.569184,-0.444776 0.759872,-0.773472 0.02992,-0.04904 0.102576,-0.217832 0.216888,-0.506264 0.02176,-0.0664 0.06264,-0.100008 0.122464,-0.100008 l 0.783472,0 c 0.03544,0 0.06704,0.01336 0.09296,0.04064 0.02584,0.02744 0.0384,0.06096 0.0384,0.09845 0,0.0144 -0.0016,0.02392 -0.0048,0.02968 -0.174336,0.77292 -0.53924,1.399576 -1.0948,1.879768 -0.555552,0.480232 -1.2058,0.720344 -1.95204,0.720344 -0.397616,0 -0.78208,-0.0788 -1.153824,-0.23752 -0.371736,-0.1586 -0.703048,-0.385544 -0.994464,-0.679712 l -0.528216,0.55784 c -0.05176,0.05472 -0.11216,0.08281 -0.18296,0.08281 -0.0708,0 -0.13264,-0.02808 -0.184432,-0.08281 -0.05176,-0.05472 -0.07672,-0.11884 -0.07672,-0.19376 l 0,-1.939144 c 0,-0.07496 0.02504,-0.139016 0.07672,-0.19376 0.05176,-0.05488 0.113584,-0.08282 0.184432,-0.08282 z"
     id="path3201"
     inkscape:connector-curvature="0" />
</svg>
