<svg xmlns="http://www.w3.org/2000/svg" viewBox="0 0 22 22">
 <defs id="defs3051">
   <style type="text/css" id="current-color-scheme">
     .ColorScheme-Text {
       color:#4d4d4d;
     }
     </style>
 </defs>
   <path
      style="fill:currentColor;fill-opacity:1;stroke:none"
      d="m3.28772 4.20104c-.159712 0-.28772.135568-.28772.304704v12.458336l16 .03592v-10.691072c0-.169144-.12948-.306264-.2892-.306264h-8.672808c-.293832.02752-.331376-.01352-.476576-.21876-.205912-.291832-.51732-1.077888-.720032-1.36256-.162704-.249232-.189024-.22032-.458872-.22032h-5.094792zm7.15308 4.84708h1.11988c-.0016.5686 0 2.065712 0 2.065712h1.816304v1.185984h-1.816304s-.000656 1.494576-.0016 2.065712h-1.11988c.000752-.571136.0016-2.065712.0016-2.065712s-1.216416-.0008-1.817784 0v-1.184424c.601368-.0016 1.817784-.0016 1.817784-.0016s-.00076-1.497152 0-2.065712z"
      class="ColorScheme-Text" />
</svg> 
