<svg xmlns="http://www.w3.org/2000/svg" viewBox="0 0 22 22">
 <defs id="defs3051">
   <style type="text/css" id="current-color-scheme">
     .ColorScheme-Text {
       color:#4d4d4d;
     }
     </style>
 </defs>
   <path
      style="fill:currentColor;fill-opacity:1;stroke:none"
      d="m16.675786 3.0091598-6.03516.56055h-6.2246103c-.76942-.0565-1.08203.014-1.08203.70507v13.2851602c-.0483.75836.27134.74219 1.01953.74219h6.3554703l6.01758.69726c.50601 0 .65366-.17763.68555-.53515h.83398c.055 0 .10919.006.1836-.0156.0744-.0216.15558-.0971.1875-.17578.0635-.15637.0562-.33894.0488-.7168v-.006-13.2832002c0-.26035-.003-.43293-.0215-.56446-.009-.0657-.0204-.12414-.0527-.18164-.0324-.0577-.0987-.1111-.16407-.1289v.002c-.0844-.0229-.15197-.006-.2207.01l.0391-.006h-.81055c-.0505-.32604-.21375-.42999-.75977-.38863zm1.63477.70508v.006c.003.0108.005.01.008.0312.0128.0892.0156.25958.0156.51758v13.2890602c.007.36378-.0132.53627-.0234.57031h-.0644-.82813c-.003-.0769-.002-.14048-.008-.22851l.0508-14.0527402c0-.0487-.005-.0771-.006-.12109h.81055l.0195-.006c.0217-.006.015.00015.0254-.006zm-2.85352 3.7832v1.23047h-.62109v-.61523h-3.98828l-2.7597703 4.7382802-.35742.61328-1.32422-2.27344h-.88672v-.61523h1.24219.002l.96484 1.6582 2.7597703-4.7343802 4.96875-.002zm-3.10547 1.84961c.48026 0 .91247.18278 1.24219.47656v-.47656h.62109v1.8457002 1.84766h-.62109v-.47656c-.32972.29379-.76193.47656-1.24219.47656-1.03222 0-1.86328-.82443-1.86328-1.84766 0-1.02319.83106-1.8457002 1.86328-1.8457002zm0 .61523c-.68816 0-1.24219.5483602-1.24219 1.2304702 0 .68217.55403 1.23242 1.24219 1.23242.68813 0 1.24219-.55025 1.24219-1.23242 0-.68211-.55406-1.2304702-1.24219-1.2304702zm-6.8261703 3.6875002h9.9257803c.004 0 .006.13802.006.3086 0 .17053-.002.30664-.006.30664h-9.9257803c-.004 0-.006-.13611-.006-.30664 0-.17058.002-.3086.006-.3086zm4.34766 1.23243h1.2304603c.004 0 .006.13607.006.30664 0 .17052-.002.30859-.006.30859h-1.2304603c-.004 0-.006-.13807-.006-.30859 0-.17057.002-.30664.006-.30664z"
      class="ColorScheme-Text" />
</svg> 
