<svg xmlns="http://www.w3.org/2000/svg" viewBox="0 0 22 22">
 <defs id="defs3051">
   <style type="text/css" id="current-color-scheme">
     .ColorScheme-Text {
       color:#4d4d4d;
     }
     </style>
 </defs>
   <path
      style="fill:currentColor;fill-opacity:1;stroke:none"
      d="m4 3c-.5522847 0-1 .4477153-1 1s .4477153 1 1 1 1-.4477153 1-1-.4477153-1-1-1zm6 0v1h9v-1zm0 2v1h6v-1zm-6 4c-.5522847 0-1 .4477153-1 1 0 .552285.4477153 1 1 1s1-.447715 1-1c0-.5522847-.4477153-1-1-1zm6 0v1h9v-1zm0 2v1h2v-1zm-6 4c-.5522847 0-1 .447715-1 1s .4477153 1 1 1 1-.447715 1-1-.4477153-1-1-1zm6 0v1h9v-1zm0 2v1h6v-1zm7 1v1h2v-1z"
      class="ColorScheme-Text" />
</svg> 
