<svg xmlns="http://www.w3.org/2000/svg" viewBox="0 0 22 22">
 <defs id="defs3051">
   <style type="text/css" id="current-color-scheme">
     .ColorScheme-Text {
       color:#4d4d4d;
     }
     </style>
 </defs>
   <path
      style="fill:currentColor;fill-opacity:1;stroke:none"
      d="m8.7363281 3-5.6425781 14.966797h2.1308594l1.4628906-4.056641h6.292969 1.990234l-4.060547-10.910156zm1.0449219 2.3613281h.0839844l2.4453126 6.7519529h-4.9746095zm5.511719 9.4902339c-.130066-.00047-.261771.049614-.361328.148438l-3.13086 3.109375c-.199292.19776-.19981.51965-.001953.71875.197681.199115.519651.199634.71875.001953l2.769531-2.75 2.751953 2.769531c.197762.199116.519635.199634.71875.001953.199196-.19768.199714-.5176.001954-.716796l-3.109375-3.132813c-.098889-.099558-.227421-.14992-.357422-.150391z"
      class="ColorScheme-Text" />
</svg> 
