<svg xmlns="http://www.w3.org/2000/svg" viewBox="0 0 22 22">
 <defs id="defs3051">
   <style type="text/css" id="current-color-scheme">
     .ColorScheme-Text {
       color:#4d4d4d;
     }
     </style>
 </defs>
   <path
      style="fill:currentColor;fill-opacity:1;stroke:none"
      d="m11.000033 2.999975c-.29336 0-.53125.23803-.53125.53125v1.23438c.00004.29313.23792.53125.53125.53125.29365 0 .53125-.23812.53125-.53125v-1.23438c0-.29322-.23757-.53125-.53125-.53125zm-3.6953099 1.23438c-.13411-.0214-.27759.009-.39649.0957-.2369.17204-.28931.5031-.11718.74023l.72656 1c .10425.14313.26527.21875.42969.21875.10778 0 .21624-.0332.31054-.10156.23697-.17213.29127-.50309.11914-.74023l-.72656-1c-.0863-.11847-.21159-.19151-.3457-.21289zm7.3906199 0c-.13401.0214-.25941.0942-.3457.21289l-.72461 1c-.17213.23713-.11982.56813.11719.74023.0943.0684.20279.10156.31054.10156.16442 0 .32759-.0756.43164-.21875l.72461-1c .1721-.23714.11982-.5682-.11718-.74023-.11917-.0865-.26247-.11709-.39649-.0957zm-3.69531 1.9121c-2.1179099 0-3.8339799 1.71624-3.8339799 3.83399 0 .89336.30702 1.714.82031 2.36523.4498.5707.87496 1.19336 1.24414 1.82032v1.27343h3.5156199v-1.24023c.36578-.60979.84036-1.31149 1.26758-1.85352.51373-.65142.82031-1.47129.82031-2.36523 0-2.11775-1.71649-3.83399-3.83398-3.83399zm-6.1601599 1.29688c-.20648.0177-.39089.15604-.45898.36523-.0908.27858.061.57923.33984.66993l1.17578.38086c.0549.0176.10966.0273.16407.0273.22391 0 .43074-.14272.5039-.36719.0908-.27858-.061-.57925-.33984-.66992l-1.17578-.38086c-.0704-.0227-.14016-.0313-.20899-.0254zm12.3203199.002c-.0686-.006-.13966.0009-.20899.0234l-1.17383.38086c-.27881.0907-.43255.39111-.34179.66992.073.22427.28195.36719.50586.36719.0545 0 .10757-.0101.16211-.0273l1.17578-.38086c.27894-.0907.43044-.38919.33984-.66797-.0681-.209-.25321-.34737-.45898-.36523zm-11.0527399 3.5918c-.0688-.006-.14059.00092-.21094.0234l-1.17578.38086c-.27881.0904-.43067.39095-.33984.66992.0725.22446.28.36719.50391.36719.0541 0 .10962-.01.16406-.0273l1.17578-.38086c.27904-.0905.4306-.38913.33984-.66797-.0676-.209-.2505-.3473-.45703-.36524zm9.7871099 0c-.20609.0179-.39101.15624-.45898.36523-.0908.27888.0631.57731.34179.66797l1.17383.38282c.0545.0177.10959.0254.16406.0254.22388 0 .43074-.14305.50391-.36719.0906-.279-.0608-.57727-.33984-.66797l-1.17578-.38281c-.0698-.0225-.14029-.0294-.20899-.0234zm-8.0312499 2.60156c-.13432.0213-.26.0943-.3457.21289l-.72656.99805c-.17259.23713-.12022.5698.11718.74219.0938.0687.20235.10156.31055.10156.16442 0 .32606-.0759.42969-.21875l.72656-1c .17258-.23707.1202-.56781-.11719-.74023-.11816-.0867-.26021-.11697-.39453-.0957zm6.2734399 0c-.13414-.0212-.27769.01-.39649.0957-.23674.1723-.28784.50314-.11523.74024l.72461 1c .10357.14281.26518.21875.42969.21875.10817 0 .2182-.0332.3125-.10157.23694-.17236.28966-.50502.11718-.74218l-.72656-.99805c-.0861-.11847-.21156-.19165-.3457-.21289zm-4.5566399 2.40821c-.21974 0-.39844.17872-.39844.39843 0 .21986.1787.39844.39844.39844h2.8378899c.21973 0 .39844-.17858.39844-.39844.00004-.21971-.17864-.39843-.39844-.39843zm-.1875 1.39648c0 .49474.38686.89564.8749999.92383.054.35729.35977.63281.73242.63281.37226 0 .67866-.27539.73242-.63281.48726-.0288.875-.42938.875-.92383z"
      class="ColorScheme-Text" />
</svg> 
