<svg xmlns="http://www.w3.org/2000/svg" viewBox="0 0 22 22">
 <defs id="defs3051">
   <style type="text/css" id="current-color-scheme">
     .ColorScheme-Text {
       color:#4d4d4d;
     }
     </style>
 </defs>
   <path
      style="fill:currentColor;fill-opacity:1;stroke:none"
      d="m3 7.5988775c-.00007-.41113.14791-.82218.44404-1.1329.59211-.62146 1.56655-.62124 2.15899.0003h.00007l5.39752 5.6652295 5.39588-5.6635095c.59206-.62147 1.56645-.62132 2.1588.00023.00002.00002.00003.00003.00006.00007.00003.00002.00004.00003.00007.00006.59268.62159.59274 1.64478.0003 2.26628l-6.47509 6.7962995c-.29601.31063-.68934.46913-1.07939.46906-.38975-.00007-.78312-.15854-1.07928-.46923h-.00007l-6.4775-6.7986395c-.29621-.3109-.44434-.7221-.4444-1.13325z"
      class="ColorScheme-Text" />
</svg> 
