<svg xmlns="http://www.w3.org/2000/svg" viewBox="0 0 22 22">
 <defs id="defs3051">
   <style type="text/css" id="current-color-scheme">
     .ColorScheme-Text {
       color:#4d4d4d;
     }
     </style>
 </defs>
   <path
      style="fill:currentColor;fill-opacity:1;stroke:none"
      d="m4.500038 4.1251423c.001.28675.1139.57299.33612.79102l6.18463 6.0644497-6.14113 6.10937c-.44097.43901-.43851 1.14811.006 1.58399.44441.43599 1.16406.43357 1.60548-.006l6.93793-6.9043c.22058-.21952.3312-.50618.33019-.79297-.001-.28664-.1139-.57296-.33612-.79101l-6.98934-6.8535197c-.44462-.43578-1.16226-.43335-1.6035.006-.22048.21952-.33127.50622-.33019.79297zm11.1177.11914.0336 13.5390597c.002.39067.14404.7589.37961.98633.23577.22756.54249.29155.81856.16992l.0217-.01c.37905-.16703.63092-.63894.62874-1.17383l-.0316-13.5390597c-.002-.39047-.14365-.75824-.37962-.98633-.23579-.22766-.54241-.2916-.81856-.16992l-.0217.01c-.37921.16703-.6329.63894-.63073 1.17383z"
      class="ColorScheme-Text" />
</svg> 
