<svg xmlns="http://www.w3.org/2000/svg" viewBox="0 0 22 22">
 <defs id="defs3051">
   <style type="text/css" id="current-color-scheme">
     .ColorScheme-Text {
       color:#4d4d4d;
     }
     </style>
 </defs>
   <path
      style="fill:currentColor;fill-opacity:1;stroke:none"
      d="m5.3847656 3.9238281a.94223107.94223107 0 0 0 -.9433594.9433594.94223107.94223107 0 0 0  .9433594.9414063.94223107.94223107 0 0 0  .9414063-.9414063.94223107.94223107 0 0 0 -.9414063-.9433594zm.9414063 2.828125.0058593 12.2480469 3.6699218-4.427734 5.746094-.283204z" fill="#4d4d4d"/><path d="m15.203125 3c-.427363 0-.822715.1057742-1.183594.3164062-.360917.2105944-.64679.4965052-.857422.8574219-.210669.3609168-.314453.7543155-.314453 1.1816407 0 .4273627.103859.8206862.314453 1.1816406.210632.3608415.496505.6467898.857422.8574218.360917.2106321.756231.3164063 1.183594.3164063s.820762-.1057742 1.181641-.3164063c.360879-.2105943.646789-.4965427.857422-.8574218.210594-.3609168.316406-.7543155.316406-1.1816406 0-.4273628-.10585-.8207616-.316406-1.1816407-.210633-.3608791-.496543-.6467898-.857422-.8574219-.360955-.210632-.754241-.3164062-1.181641-.3164062zm-.693359 1.1875c.053156 0 .097867.0197426.136718.0585938l.556641.5546874.554687-.5546874c.038776-.0388512.085516-.0585938.138672-.0585938.055228 0 .101774.0197426.140625.0585938l.275391.2753906c.038851.0388511.058594.0853976.058594.140625 0 .0531568-.019743.0998583-.058594.1386718l-.554688.5546876.554688.5546874c.038851.0388136.058594.0855151.058594.1386719 0 .0551898-.019743.1018115-.058594.140625l-.275391.2773438c-.038851.0388511-.085397.0566406-.140625.0566406-.053156 0-.099896-.0177895-.138672-.0566406l-.554687-.5566407-.556641.5566407c-.038851.0388511-.083562.0566406-.136718.0566406-.055228 0-.101774-.0177895-.140625-.0566406l-.277344-.2773438c-.038851-.0388135-.058594-.0854352-.058594-.140625 0-.0531568.019743-.0998583.058594-.1386719l.554687-.5546874-.554687-.5546876c-.038851-.0388135-.058594-.085515-.058594-.1386718 0-.0552274.019743-.1017739.058594-.140625l.277344-.2753906c.038851-.0388512.085397-.0585938.140625-.0585938z"
      class="ColorScheme-Text" />
</svg> 
