<svg xmlns="http://www.w3.org/2000/svg" viewBox="0 0 22 22">
 <defs id="defs3051">
   <style type="text/css" id="current-color-scheme">
     .ColorScheme-Text {
       color:#4d4d4d;
     }
     </style>
 </defs>
   <path
      style="fill:currentColor;fill-opacity:1;stroke:none"
      d="m13.92383 3.5c-.13397 0-.23812.0587-.3125.17773l-.60156 1.08399c-.67699-.12644-1.34758-.18945-2.00977-.18945-2.00151 0-3.84612.50566-5.53516 1.51757-1.68904 1.01206-3.10369 2.39214-4.24218 4.14063-.14891.23082-.22266.48679-.22266.76953s.0738.53898.22266.76953c.65465 1.01932 1.43155 1.93095 2.32812 2.73438.89658.80369 1.87548 1.4478 2.93945 1.93164-.32739.55794-.49023.88139-.49023.9707 0 .13397.0587.23812.17773.3125.90768.52096 1.40678.78125 1.4961.78125.13383 0 .23811-.0587.3125-.17773l.54687-.99414c.78877-1.40617 1.96474-3.51566 3.52735-6.32813 1.56246-2.81247 2.73439-4.91764 3.51562-6.31641.007-.0148.01-.0495.01-.10156 0-.12657-.0584-.22599-.17773-.30078-.0222-.0148-.0939-.0581-.2168-.12891-.12277-.0705-.24009-.14004-.3516-.20703-.1115-.067-.23503-.13439-.36914-.20508-.13397-.0707-.24913-.12917-.3457-.17382-.0969-.0447-.16405-.0664-.20117-.0664zm3.20312 2.96875-.70312 1.25c1.24246.85562 2.29282 1.94947 3.14844 3.28125-.90014 1.39877-2.0225 2.54044-3.36524 3.42578-1.34315.88576-2.80346 1.39546-4.38086 1.5293l-.82617 1.47265c1.65192 0 3.21219-.35174 4.68164-1.05859 1.46945-.70658 2.76288-1.70074 3.87891-2.98047.52082-.60274.92652-1.14297 1.21679-1.61914.14877-.25301.22266-.50926.22266-.76953 0-.26041-.0738-.51638-.22266-.76953-.42424-.70671-.96246-1.3925-1.61328-2.05469s-1.33026-1.23073-2.03711-1.70703zm-10.44531.5918c-.45384.7737-.68164 1.61144-.68164 2.51172 0 .79616.18222 1.55124.54687 2.26562.36466.71425.87019 1.30467 1.51758 1.77344l-.87109 1.57422c-1.93452-.87055-3.52316-2.26596-4.76563-4.18555 1.13096-1.75603 2.55007-3.06904 4.25391-3.93945zm9.22852 1.57422-3.125 5.60156c.96712-.37192 1.74422-.98416 2.33203-1.83594.58781-.85192.88281-1.79402.88281-2.82812 0-.29014-.0303-.60257-.0898-.9375z"
      class="ColorScheme-Text" />
</svg> 
