<svg xmlns="http://www.w3.org/2000/svg" viewBox="0 0 22 22">
 <defs id="defs3051">
   <style type="text/css" id="current-color-scheme">
     .ColorScheme-Text {
       color:#4d4d4d;
     }
     </style>
 </defs>
   <path
      style="fill:currentColor;fill-opacity:1;stroke:none"
      d="m11 3a8 8 0 0 0 -8 8 8 8 0 0 0 8 8 8 8 0 0 0 8-8 8 8 0 0 0 -8-8zm3.181641 5.3007812h.783203v4.9062498h-.783203zm-7.0781254.3007813h.6953125l1.9785157 4.6054685h-.9335938l-.4277344-1.050781h-1.9882812l-.4179688 1.050781h-.9082031zm.3144532.9824219c-.06544.2301-.1384032.4438646-.2207032.6464846l-.4941406 1.220703h1.4277344l-.4960938-1.242188c-.0781-.19631-.1513968-.4033596-.2167968-.6249996zm4.3476562.40625c.25964 0 .49923.0443596.71875.1308596.22163.08656.412149.219007.568359.398437.15619.17941.268191.386774.337891.621094.0443.14772.066406.346476.066406.597656 0 .12455-.028937.286102-.085937.482422-.05489.19416-.155141.37243-.300782.537109-.143529.164611-.323438.297285-.542968.396485-.2174.09715-.482532.146484-.794922.146484-.50027 0-.904878-.154847-1.210938-.460937-.30607-.30603-.458984-.705259-.458984-1.199219 0-.49814.164861-.897516.494141-1.197266.32928-.30181.731954-.4531246 1.208984-.4531246zm0 .6914066c-.26173 0-.479264.090121-.652344.269531-.17313.17731-.257812.411678-.257812.705078 0 .29342.08324.529721.25.707031.16886.17513.379355.263672.634765.263672.18364 0 .346705-.046212.490235-.132812.14565-.08651.256325-.200064.328125-.345703.07176-.145651.105468-.302127.105468-.466797 0-.28706-.074582-.524914-.226562-.714844-.14987-.19004-.374245-.285156-.671875-.285156zm4.617187 1.533203c.14354 0 .264082.04908.363282.15039.10135.10132.152344.223658.152344.367188 0 .14142-.051034.263924-.152344.365234-.10132.10135-.221851.152344-.363282.152344-.143529 0-.265867-.051191-.367187-.150391-.10135-.10132-.152344-.223657-.152344-.367187 0-.14354.049238-.265878.148438-.367188.10133-.10131.225453-.15039.371093-.15039z"
      class="ColorScheme-Text" />
</svg> 
