<svg xmlns="http://www.w3.org/2000/svg" viewBox="0 0 22 22">
  <defs id="defs3051">
    <style type="text/css" id="current-color-scheme">
      .ColorScheme-Text {
        color:#4d4d4d
      }
      </style>
  </defs>
 <path 
     style="fill:currentColor;fill-opacity:1;stroke:none"      
	 class="ColorScheme-Text"
        d="M 11 3 C 6.5888182 3 3 6.5888182 3 11 C 3 15.41086 6.5888182 19 11 19 C 15.41086 19 19 15.41086 19 11 C 19 6.5888182 15.411504 3 11 3 z M 11.705078 6.6347656 L 13.134766 6.640625 L 13.134766 8.2324219 L 12.097656 8.2324219 C 11.928801 8.2324219 11.689453 8.3174866 11.689453 8.6796875 L 11.689453 9.6425781 L 13.158203 9.6425781 L 12.990234 11.28125 L 11.6875 11.28125 L 11.6875 15.919922 L 9.7597656 15.919922 L 9.7597656 11.28125 L 8.8417969 11.28125 L 8.8417969 9.6425781 L 9.7597656 9.6425781 L 9.7597656 8.5820312 C 9.7597656 7.8225049 10.119644 6.6347656 11.705078 6.6347656 z "
     />
</svg>
