<svg xmlns="http://www.w3.org/2000/svg" viewBox="0 0 22 22">
 <defs id="defs3051">
   <style type="text/css" id="current-color-scheme">
     .ColorScheme-Text {
       color:#4d4d4d;
     }
     </style>
 </defs>
   <path
      style="fill:currentColor;fill-opacity:1;stroke:none"
      d="m11 3a8 8 0 0 0 -8 8 8 8 0 0 0 8 8 8 8 0 0 0 8-8 8 8 0 0 0 -8-8zm .136719 3.0566406c.705833 0 1.379817.1371094 2.021484.4121094s1.156016.6432292 1.541016 1.1015625l-.867188.8652344c-.650833-.7791667-1.549479-1.1679688-2.695312-1.1679688-1.035834 0-1.9344794.3662761-2.6953128 1.0996094-.7516666.7241667-1.1269531 1.6678645-1.1269531 2.8320315 0 1.164166.3752865 2.11237 1.1269531 2.845703.7608334.724167 1.6594788 1.08789 2.6953128 1.08789 1.1 0 2.016666-.368229 2.75-1.101562.476666-.476667.752838-1.139688.826172-1.992188h-3.576172v-1.183593h4.771484c.045867.256666.068359.503854.068359.742187 0 1.375-.406822 2.471276-1.222656 3.28711-.925833.971666-2.132187 1.457031-3.617187 1.457031-1.4208336 0-2.6297398-.48987-3.6289065-1.470703-.99-.99-1.4863281-2.214375-1.4863281-3.671875 0-1.4575002.4963281-2.6754169 1.4863281-3.6562502.9991667-.9900001 2.2080729-1.4863282 3.6289065-1.4863282z"
      class="ColorScheme-Text" />
</svg> 
