<svg xmlns="http://www.w3.org/2000/svg" viewBox="0 0 22 22">
  <defs id="defs3051">
    <style type="text/css" id="current-color-scheme">
      .ColorScheme-Text {
        color:#4d4d4d
      }
      </style>
  </defs>
    <path
       style="fill:currentColor;fill-opacity:1;stroke:none"
       class="ColorScheme-Text"
       d="M 10.967958,3 C 9.8816235,3 8.8551302,3.353107 8.1026706,4.052741 7.3502112,4.752375 6.8864514,5.792593 6.8864514,7.107707 c 0,1.680218 0.7941391,3.32977 1.8673643,4.417477 0.1757864,0.441108 0.1003111,0.667883 0,0.820117 -0.1006012,0.152674 -0.2872324,0.239858 -0.2869029,0.239745 l 0.00997,-0.0036 c -0.7817674,0.240577 -2.12191,0.909672 -3.3043692,1.946482 -1.182459,1.036811 -2.2047713,2.459204 -2.1717309,4.174171 L 3.0057727,19 l 15.9867333,0 0.0063,-0.297901 c 0.03649,-1.623523 -0.769973,-2.96648 -1.878591,-3.983087 -1.108618,-1.016607 -2.520433,-1.725584 -3.773398,-2.135153 l -0.0013,-0.0012 -0.0025,0 c 0.02068,0.0064 -0.10405,-0.03458 -0.178378,-0.166159 -0.07433,-0.131584 -0.142481,-0.389898 0.03992,-0.91744 1.059938,-1.08872 1.85489,-2.722976 1.85489,-4.391365 0,-1.315197 -0.46779,-2.355472 -1.222456,-3.054967 C 13.082322,3.353246 12.053733,3 10.967958,3 Z m 0,0.60767 c 0.941367,0 1.799484,0.300873 2.423707,0.87946 0.624224,0.578588 1.029109,1.440073 1.029109,2.620577 0,1.528217 -0.772218,3.121993 -1.755098,4.085157 -0.0068,0.0023 -0.09148,0.343397 -0.137215,0.515095 -0.07291,0.415997 -0.05643,0.766778 0.0736,0.996959 0.171715,0.303964 0.420385,0.416529 0.542621,0.454566 l -0.0049,-0.0012 c 1.176997,0.384736 2.518253,1.062697 3.53764,1.997478 0.941807,0.863641 1.544737,1.954319 1.615389,3.236555 l -14.572178,0 c 0.093971,-1.342055 0.8614898,-2.520945 1.8847424,-3.41816 1.1034416,-0.967526 2.4211799,-1.614311 3.0686148,-1.813515 l 0.00499,-0.0024 0.00499,-0.0012 c 0.1536018,-0.05297 0.4094103,-0.182701 0.6112197,-0.48897 0.2018092,-0.306268 0.2871529,-0.781647 0.054887,-1.361323 l -0.023701,-0.05935 -0.046157,-0.0451 C 8.2926733,10.24278 7.5251224,8.643526 7.5251224,7.107707 c 0,-1.181194 0.4021584,-2.042281 1.024119,-2.620577 C 9.1712022,3.908834 10.025874,3.60767 10.967958,3.60767 Z"
       />
</svg>
