<svg xmlns="http://www.w3.org/2000/svg" viewBox="0 0 22 22">
 <defs id="defs3051">
   <style type="text/css" id="current-color-scheme">
     .ColorScheme-Text {
       color:#4d4d4d;
     }
     </style>
 </defs>
   <path
      style="fill:currentColor;fill-opacity:1;stroke:none"
      d="m11 3a8 8 0 0 0 -8 8 8 8 0 0 0 8 8 8 8 0 0 0 8-8 8 8 0 0 0 -8-8zm-3.9628906 3.5c.5448717.1238547.772367.1164431 1.3183594 0 .6886002 1.2203509 1.7458202 2.9274848 2.6386722 4.40625.880339-1.4474011 2.263648-3.7077226 2.638671-4.40625.425559.1113902.854824.1078071 1.330079 0-.49864.6736015-2.3141 3.822103-3.414063 5.751953l.080078 4.248047s-.351122-.064453-.632812-.064453c-.25417 0-.634766.064453-.634766.064453l.080078-4.248047c-.5894853-1.018855-2.3229292-4.1225019-3.4042966-5.751953z"
      class="ColorScheme-Text" />
</svg> 
