<svg xmlns="http://www.w3.org/2000/svg" viewBox="0 0 22 22">
  <defs id="defs3051">
    <style type="text/css" id="current-color-scheme">
      .ColorScheme-Text {
        color:#4d4d4d
      }
      </style>
  </defs>
 <path 
     style="fill:currentColor;fill-opacity:1;stroke:none"      
	 class="ColorScheme-Text"
        d="M 4.3212448,3 3.1470227,3.5469 3.3508943,4 4.129135,3.6621 l 0,3.3164 0.535163,0 0,-3.9785 -0.3430532,0 z m 3.1443274,0.9785 c -0.2778237,0 -0.5018378,0.2232 -0.5018378,0.5 0,0.2768 0.2240141,0.5 0.5018378,0.5 l 9.0271988,0 c 0.277824,0 0.501838,-0.2232 0.501838,-0.5 0,-0.2768 -0.224014,-0.5 -0.501838,-0.5 l -9.0271988,0 z m 0,2 c -0.2778237,0 -0.5018378,0.2232 -0.5018378,0.5 0,0.2768 0.2240141,0.4981 0.5018378,0.4981 l 5.0144568,0 c 0.277824,0 0.501838,-0.2213 0.501838,-0.4981 0,-0.2768 -0.224014,-0.5 -0.501838,-0.5 l -5.0144568,0 z m 7.0218078,0 c -0.277823,0 -0.501838,0.2232 -0.501838,0.5 0,0.2768 0.224015,0.4981 0.501838,0.4981 0.277825,0 0.501838,-0.2213 0.501838,-0.4981 0,-0.2768 -0.224013,-0.5 -0.501838,-0.5 z m 2.005391,0 c -0.277823,0 -0.501838,0.2232 -0.501838,0.5 0,0.2768 0.224015,0.4981 0.501838,0.4981 0.277824,0 0.501838,-0.2213 0.501838,-0.4981 0,-0.2768 -0.224014,-0.5 -0.501838,-0.5 z m 2.005391,0 c -0.277823,0 -0.501838,0.2232 -0.501838,0.5 0,0.2768 0.224015,0.4981 0.501838,0.4981 C 18.775986,6.9766 19,6.7553 19,6.4785 c 0,-0.2768 -0.224014,-0.5 -0.501838,-0.5 z M 4.1879441,9.0957 C 3.8674118,9.0957 3.6070474,9.1847 3.405783,9.3633 3.2045186,9.5415 3.0712027,9.7311 3.0078412,9.9316 l 0.4704729,0.1895 c 0.033544,-0.13 0.1100877,-0.25 0.2293556,-0.3613 0.1192678,-0.1152 0.2747023,-0.1739 0.4685126,-0.1739 0.2124459,0 0.3829569,0.061 0.509679,0.1836 0.1267221,0.1226 0.1901495,0.2641 0.1901495,0.4239 0,0.1559 -0.032694,0.2868 -0.096055,0.3945 -0.063361,0.104 -0.1859082,0.2586 -0.3685371,0.4629 -0.2049917,0.2227 -0.6730619,0.7 -1.4035777,1.4316 l 0,0.5117 2.438618,0 0,-0.4902 -1.7721147,0 1.1173732,-1.1191 C 5.1979737,10.9615 5.401372,10.5647 5.401372,10.1934 5.401372,9.8926 5.2876335,9.6353 5.0602791,9.4199 4.8329247,9.2045 4.5420205,9.0957 4.1879439,9.0957 Z m 3.277628,0.8789 c -0.2778237,0 -0.5018378,0.2232 -0.5018378,0.5 0,0.2768 0.2240141,0.5 0.5018378,0.5 l 7.0218079,0 c 0.277825,0 0.501838,-0.2232 0.501838,-0.5 0,-0.2768 -0.224013,-0.5 -0.501838,-0.5 l -7.0218078,0 z m 0,2 c -0.2778237,0 -0.5018378,0.2213 -0.5018378,0.4981 0,0.2768 0.2240141,0.5 0.5018378,0.5 l 3.0090659,0 c 0.277825,0 0.501838,-0.2232 0.501838,-0.5 0,-0.2768 -0.224013,-0.4981 -0.501838,-0.4981 l -3.0090659,0 z m 5.0144569,0 c -0.277823,0 -0.499878,0.2213 -0.499878,0.4981 1e-6,0.2768 0.222055,0.5 0.499878,0.5 0.277824,0 0.501838,-0.2232 0.501838,-0.5 0,-0.2768 -0.224014,-0.4981 -0.501838,-0.4981 z m 2.007351,0 c -0.277823,0 -0.501838,0.2213 -0.501838,0.4981 0,0.2768 0.224015,0.5 0.501838,0.5 0.277825,0 0.501838,-0.2232 0.501838,-0.5 0,-0.2768 -0.224013,-0.4981 -0.501838,-0.4981 z m 2.005391,0 c -0.277823,0 -0.501838,0.2213 -0.501838,0.4981 0,0.2768 0.224015,0.5 0.501838,0.5 0.277824,0 0.501838,-0.2232 0.501838,-0.5 0,-0.2768 -0.224014,-0.4981 -0.501838,-0.4981 z M 4.2879195,14.7813 c -0.3232282,0 -0.5850496,0.085 -0.7860817,0.2539 -0.2010323,0.1688 -0.3406689,0.362 -0.4195051,0.5781 l 0.5018378,0.2109 c 0.1221961,-0.3495 0.35687,-0.5234 0.703749,-0.5234 0.2010323,0 0.3697768,0.052 0.5037982,0.1582 0.1379633,0.1061 0.2058319,0.251 0.2058319,0.4355 0,0.1964 -0.069808,0.3549 -0.2117128,0.4727 C 4.6478735,16.485 4.4713727,16.543 4.258515,16.543 l -0.3058074,0 0,0.5058 0.3469739,0 c 0.2286247,0 0.4245165,0.07 0.5861308,0.2071 0.165556,0.1375 0.2489586,0.3056 0.2489586,0.5058 0,0.2042 -0.081463,0.3762 -0.2430778,0.5137 -0.1576723,0.1375 -0.3457865,0.2051 -0.5665277,0.2051 -0.1970905,0 -0.3697129,-0.06 -0.5155599,-0.1817 C 3.6637586,18.177 3.5590258,18.0051 3.4959569,17.7852 L 3,17.9922 c 0.098545,0.3338 0.2750248,0.585 0.5312424,0.7539 C 3.7874599,18.915 4.0531806,19 4.3251654,19 c 0.3823554,0 0.7042889,-0.1159 0.9683901,-0.3477 0.2641011,-0.2356 0.3959814,-0.5312 0.3959814,-0.8886 0,-0.2318 -0.06399,-0.4327 -0.1940702,-0.6016 C 5.3693289,16.9932 5.2064019,16.8677 5.0093113,16.7852 l 0,-0.024 c 0.3626464,-0.1884 0.5449646,-0.4783 0.5449646,-0.8672 0,-0.322 -0.1202457,-0.5868 -0.3606958,-0.7949 C 4.9531295,14.887 4.650566,14.7808 4.2879196,14.7808 Z m 3.1776526,1.1894 c -0.2778237,0 -0.5018378,0.2232 -0.5018378,0.5 0,0.2768 0.2240141,0.5 0.5018378,0.5 l 6.0181329,0 c 0.277824,0 0.501837,-0.2232 0.501837,-0.5 0,-0.2768 -0.224013,-0.5 -0.501837,-0.5 l -6.0181329,0 z m 0,1.9981 c -0.2778237,0 -0.5018378,0.2231 -0.5018378,0.5 0,0.2768 0.2240141,0.5 0.5018378,0.5 l 1.0036756,0 c 0.2778238,0 0.5018378,-0.2232 0.5018378,-0.5 0,-0.2769 -0.224014,-0.5 -0.5018378,-0.5 l -1.0036756,0 z m 3.0090659,0 c -0.277823,0 -0.5018373,0.2231 -0.5018373,0.5 0,0.2768 0.2240143,0.5 0.5018373,0.5 0.277824,0 0.501838,-0.2232 0.501838,-0.5 0,-0.2769 -0.224014,-0.5 -0.501838,-0.5 z m 2.005391,0 c -0.277823,0 -0.499878,0.2231 -0.499878,0.5 1e-6,0.2768 0.222055,0.5 0.499878,0.5 0.277824,0 0.501838,-0.2232 0.501838,-0.5 0,-0.2769 -0.224014,-0.5 -0.501838,-0.5 z m 2.007351,0 c -0.277823,0 -0.501838,0.2231 -0.501838,0.5 0,0.2768 0.224015,0.5 0.501838,0.5 0.277825,0 0.501838,-0.2232 0.501838,-0.5 0,-0.2769 -0.224013,-0.5 -0.501838,-0.5 z"
     />
</svg>
