<svg xmlns="http://www.w3.org/2000/svg" viewBox="0 0 22 22">
 <defs id="defs3051">
   <style type="text/css" id="current-color-scheme">
     .ColorScheme-Text {
       color:#4d4d4d;
     }
     </style>
 </defs>
   <path
      style="fill:currentColor;fill-opacity:1;stroke:none"
      d="m4 3c-.55402 0-1 .44599-1 1v14c0 .55402.44598 1 1 1h14c .55401 0 1-.44598 1-1v-14c0-.55401-.44599-1-1-1zm3.11914 3a1.2697625 1.2697625 0 0 1 1.26953 1.26953 1.2697625 1.2697625 0 0 1 -1.26953 1.27149 1.2697625 1.2697625 0 0 1 -1.26953-1.27149 1.2697625 1.2697625 0 0 1 1.26953-1.26953zm3.87305 0a1.2697625 1.2697625 0 0 1 1.26953 1.26953 1.2697625 1.2697625 0 0 1 -1.26953 1.27149 1.2697625 1.2697625 0 0 1 -1.26954-1.27149 1.2697625 1.2697625 0 0 1 1.26954-1.26953zm3.88867 0a1.2697625 1.2697625 0 0 1 1.26953 1.26953 1.2697625 1.2697625 0 0 1 -1.26953 1.26953 1.2697625 1.2697625 0 0 1 -1.26953-1.26953 1.2697625 1.2697625 0 0 1 1.26953-1.26953zm0 3.69727a1.2697625 1.2697625 0 0 1 1.26953 1.27148 1.2697625 1.2697625 0 0 1 -1.26953 1.26953 1.2697625 1.2697625 0 0 1 -1.26953-1.26953 1.2697625 1.2697625 0 0 1 1.26953-1.27148zm-7.76172.002a1.2697625 1.2697625 0 0 1 1.26953 1.26953 1.2697625 1.2697625 0 0 1 -1.26953 1.26953 1.2697625 1.2697625 0 0 1 -1.26953-1.26953 1.2697625 1.2697625 0 0 1 1.26953-1.26953zm3.87305 0a1.2697625 1.2697625 0 0 1 1.26953 1.26953 1.2697625 1.2697625 0 0 1 -1.26953 1.26953 1.2697625 1.2697625 0 0 1 -1.26954-1.26953 1.2697625 1.2697625 0 0 1 1.26954-1.26953zm-3.87305 3.76172a1.2697625 1.2697625 0 0 1 1.26953 1.26953 1.2697625 1.2697625 0 0 1 -1.26953 1.26953 1.2697625 1.2697625 0 0 1 -1.26953-1.26953 1.2697625 1.2697625 0 0 1 1.26953-1.26953z"
      class="ColorScheme-Text" />
</svg> 
