<svg xmlns="http://www.w3.org/2000/svg" viewBox="0 0 22 22">
 <defs id="defs3051">
   <style type="text/css" id="current-color-scheme">
     .ColorScheme-Text {
       color:#4d4d4d;
     }
     </style>
 </defs>
   <path
      style="fill:currentColor;fill-opacity:1;stroke:none"
      d="m 3.5,11 h 5 C 8.777,11 9,11.223 9,11.5 v 5 C 9,16.777 8.777,17 8.5,17 h -5 C 3.223,17 3,16.777 3,16.5 v -5 C 3,11.223 3.223,11 3.5,11 Z"
      class="ColorScheme-Text" />
   <path
      style="fill:currentColor;fill-opacity:1;stroke:none"
      d="m 6.5,3 h 12 C 18.777,3 19,3.223 19,3.5 v 4.9999971 c 0,0.277 -0.223,0.5 -0.5,0.5 h -12 c -0.277,0 -0.5,-0.223 -0.5,-0.5 V 3.5 C 6,3.223 6.223,3 6.5,3 Z"
      class="ColorScheme-Text" />
   <path
      style="fill:currentColor;fill-opacity:1;stroke:none"
      d="m 13.5,13 h 5.000004 c 0.277,0 0.5,0.223 0.5,0.5 v 5 c 0,0.277 -0.223,0.5 -0.5,0.5 H 13.5 C 13.223,19 13,18.777 13,18.5 v -5 C 13,13.223 13.223,13 13.5,13 Z"
      class="ColorScheme-Text" />
</svg> 
