<svg xmlns="http://www.w3.org/2000/svg" viewBox="0 0 22 22">
  <defs id="defs3051">
    <style type="text/css" id="current-color-scheme">
      .ColorScheme-Text {
        color:#4d4d4d
      }
      </style>
  </defs>
 <path 
     style="fill:currentColor;fill-opacity:1;stroke:none"      
	 class="ColorScheme-Text"
        d="m 14.894041,3.0000782 c -0.18133,-0.009 -0.35944,0.0896 -0.44336,0.26171 l -0.45508,0.9336 c -0.11177,0.22951 -0.0148,0.50644 0.2168,0.61719 0.23171,0.11068 0.51127,0.0147 0.62305,-0.21485 l 0.45508,-0.93554 c 0.11172,-0.22951 0.0149,-0.50449 -0.2168,-0.61524 -0.058,-0.0277 -0.11925,-0.0439 -0.17969,-0.0469 z m -7.6738299,1.01367 c -0.0603,0.005 -0.12256,0.0215 -0.17968,0.0508 -0.22839,0.11726 -0.31746,0.3947 -0.19922,0.62109 l 0.48242,0.92188 c 0.1183,0.22633 0.40046,0.31447 0.62891,0.19726 0.22833,-0.11714 0.3174,-0.39487 0.19921,-0.62109 l -0.48242,-0.92188 c -0.0888,-0.16966 -0.26825,-0.26202 -0.44922,-0.24804 z m 6.4609399,1.69336 c -0.0551,0.0131 -0.11465,0.043 -0.17773,0.0918 l -2.9668,2.29297 c -0.25232,0.19519 -0.7082599,0.27705 -1.0136699,0.18164 l -3.58789,-1.12109 c -0.30536,-0.0953 -0.46682,0.071 -0.35742,0.36914 l 1.28515,3.5039098 c 0.10928,0.2982 0.0473,0.75343 -0.13867,1.01171 l -2.18555,3.03321 c -0.18589,0.25823 -0.0759,0.46006 0.24414,0.44922 l 3.75977,-0.12696 c 0.32002,-0.011 0.7373,0.18836 0.92773,0.44336 l 2.2382799,2.9961 c 0.19049,0.25506 0.41927,0.21505 0.50782,-0.0898 l 1.03906,-3.58203 c 0.0883,-0.30484 0.40911,-0.63769 0.71289,-0.73829 l 3.56641,-1.18164 c 0.3036,-0.10065 0.33578,-0.32832 0.0703,-0.50586 l -3.11719,-2.08594 c -0.26536,-0.17759 -0.4856,-0.58315 -0.48828,-0.9003898 l -0.0332,-3.72656 c -0.002,-0.23793 -0.11983,-0.35384 -0.28516,-0.31445 z m 5.23438,3.93359 -1.02735,0.19922 c -0.25249,0.049 -0.41857,0.2909698 -0.36914,0.5410098 0.0497,0.25011 0.29433,0.41433 0.54688,0.36524 l 1.02929,-0.20117 c 0.25238,-0.0491 0.41656,-0.29092 0.36719,-0.54102 -0.0496,-0.2500998 -0.29444,-0.4123098 -0.54687,-0.3632798 z M 4.5600611,11.572338 c -0.0597,-0.01 -0.12307,-0.009 -0.18555,0.006 l -1.01758,0.2461 c -0.24987,0.0602 -0.40441,0.30902 -0.34375,0.55664 0.061,0.24773 0.31251,0.39994 0.5625,0.33984 l 1.01953,-0.24614 c 0.24999,-0.0603 0.40252,-0.30896 0.3418,-0.55663 -0.0455,-0.18572 -0.1978,-0.31682 -0.37695,-0.34571 z m 10.1835899,4.90821 c -0.0605,0.002 -0.12131,0.0143 -0.17969,0.041 -0.23351,0.10693 -0.33444,0.38192 -0.22656,0.61328 l 0.43945,0.94336 c 0.10794,0.23135 0.3835,0.33149 0.61719,0.22461 0.23346,-0.10694 0.33651,-0.38199 0.22852,-0.61329 l -0.43946,-0.9414 c -0.0809,-0.17352 -0.2581,-0.27347 -0.43945,-0.26758 z"
     />
</svg>
