<svg xmlns="http://www.w3.org/2000/svg" viewBox="0 0 22 22">
  <defs id="defs3051">
    <style type="text/css" id="current-color-scheme">
      .ColorScheme-Text {
        color:#4d4d4d
      }
      </style>
  </defs>
 <path 
     style="fill:currentColor;fill-opacity:1;stroke:none"      
	 class="ColorScheme-Text"
        d="M 11 3 C 6.568 3 3 6.568 3 11 C 3 15.432 6.568 19 11 19 C 15.432 19 19 15.432 19 11 C 19 6.568 15.432 3 11 3 z M 9.859375 7.0019531 L 12.140625 7.0019531 C 12.49491 7.0019531 12.78125 7.2882933 12.78125 7.6425781 C 12.78125 7.9968629 12.49491 8.2851562 12.140625 8.2851562 L 10.501953 8.2851562 L 10.501953 13.714844 L 12.140625 13.714844 C 12.49491 13.714844 12.78125 14.003137 12.78125 14.357422 C 12.78125 14.711707 12.494931 14.998047 12.140625 14.998047 L 9.859375 14.998047 C 9.5050902 14.998047 9.21875 14.711707 9.21875 14.357422 L 9.21875 7.6425781 C 9.21875 7.2882933 9.5050902 7.0019531 9.859375 7.0019531 z "
     />
</svg>
