<svg xmlns="http://www.w3.org/2000/svg" viewBox="0 0 22 22">
 <defs id="defs3051">
   <style type="text/css" id="current-color-scheme">
     .ColorScheme-Text {
       color:#4d4d4d;
     }
     </style>
 </defs>
   <path
      style="fill:currentColor;fill-opacity:1;stroke:none"
      d="m15.460938 3.0019531c-.033378.0049815-.072597.0208987-.115235.046875-.085563.0523835-.161594.1290144-.230469.2324219l-1.15625 1.734375h-6.2929684c-.1406568 0-.2558594.1135392-.2558594.2539062v.3164063c0 .1407588-.113244.2558594-.2539062.2558594h-.5527344c-.1406461 0-.2539062-.1155031-.2539062-.2558594v-.3164063c0-.1405656-.1151918-.2539062-.2558594-.2539062h-.5722656c-.1406676 0-.2539063.1135392-.2539063.2539062v11.4609378c0 .140565.1132387.253906.2539063.253906h.4648437l-.5234375.787109c-.0687776.103262-.1099022.203838-.125.302735-.0150985.098896.0007727.165261.0488282.197265l1.0664062.710938c.0481881.032095.1156669.020752.2011719-.03125.0853698-.052092.1616911-.12916.2304687-.232422l1.15625-1.734375h6.2734374c.140668 0 .255859-.113539.255859-.253906v-.232422c0-.140764.113245-.255859.253907-.255859h.552734c.140657 0 .253906.115497.253906.255859v.232422c0 .140565.115187.253906.25586.253906h.591797c.140656 0 .253906-.113539.253906-.253906v-11.4609378c0-.1405656-.11325-.2539062-.253906-.2539062h-.464844l.523437-.7871094c.068874-.1034059.109737-.2037376.125-.3027344.015028-.0989378-.00064-.1651702-.048828-.1972656l-1.066406-.7109375c-.024026-.0160022-.05256-.0206064-.085937-.015625zm.166015 2.5917969c-.003268.0908751-.058597.1567909-.132812.1992188zm-6.8398436.5136719h4.4257816c.005978 0 .009749.0054532.015625.0058593l-1.697266 2.5488282h-2.7441406c-.1406676 0-.2558594-.1136412-.2558594-.2539063v-2.046875c0-.1405656.1151864-.2539062.2558594-.2539062zm-2.1835938.9804687h.5527344c.1406622 0 .2539062.1153957.2539062.2558594v.5527344c0 .1407642-.113244.2539062-.2539062.2539062h-.5527344c-.1406461 0-.2539062-.1135445-.2539062-.2539062v-.5527344c0-.1407588.1132601-.2558594.2539062-.2558594zm8.2207034 0h .552734c.140657 0 .253906.1153957.253906.2558594v.5527344c0 .1407642-.113249.2539062-.253906.2539062h-.552734c-.140652 0-.253907-.1135445-.253907-.2539062v-.5527344c0-.1407588.113255-.2558594.253907-.2558594zm-8.2207034 2.2890625h.5527344c.1406622 0 .2539062.1154923.2539062.2558594v.5507815c0 .140764-.113244.255859-.2539062.255859h-.5527344c-.1406461 0-.2539062-.115498-.2539062-.255859v-.5507815c0-.1406676.1132601-.2558594.2539062-.2558594zm8.2207034 0h .552734c.140657 0 .253906.1154923.253906.2558594v.5507815c0 .140764-.113249.255859-.253906.255859h-.552734c-.140652 0-.253907-.115498-.253907-.255859v-.5507815c0-.1406676.113255-.2558594.253907-.2558594zm-6.0371096.3457031h2.0371096l-1.7011721 2.5546878h-.3359375c-.1406676 0-.2558594-.113448-.2558594-.253906v-2.0468755c0-.1407588.1151864-.2539063.2558594-.2539063zm4.0898436 0h .335938c.140656 0 .255859.11355.255859.2539063v2.0468755c0 .140656-.115203.253906-.255859.253906h-2.03711zm-6.2734374 1.9433598h.5527344c.1406622 0 .2539062.113641.2539062.253906v.552734c0 .140764-.113244.253906-.2539062.253906h-.5527344c-.1406461 0-.2539062-.113544-.2539062-.253906v-.552734c0-.140668.1132601-.253906.2539062-.253906zm8.2207034 0h .552734c.140657 0 .253906.113641.253906.253906v.552734c0 .140764-.113249.253906-.253906.253906h-.552734c-.140652 0-.253907-.113544-.253907-.253906v-.552734c0-.140668.113255-.253906.253907-.253906zm-4.355469 1.671875h2.744141c.140656 0 .255859.113442.255859.253906v2.046875c0 .140667-.115203.253906-.255859.253906h-4.4257816c-.0059791 0-.009749-.005453-.015625-.005859zm-3.8652344.617187h.5527344c.1406622 0 .2539062.113641.2539062.253906v.552735c0 .14056-.113244.253906-.2539062.253906h-.5527344c-.1406461 0-.2539062-.113743-.2539062-.253906v-.552735c0-.140667.1132601-.253906.2539062-.253906zm8.2207034 0h .552734c.140657 0 .253906.113641.253906.253906v.552735c0 .14056-.113249.253906-.253906.253906h-.552734c-.140652 0-.253907-.113743-.253907-.253906v-.552735c0-.140667.113255-.253906.253907-.253906zm-8.3906252 2.359375-.0214844.03125c.008369-.010592.0115639-.022118.0214844-.03125z"
      class="ColorScheme-Text" />
</svg> 
