<svg xmlns="http://www.w3.org/2000/svg" viewBox="0 0 22 22">
 <defs id="defs3051">
   <style type="text/css" id="current-color-scheme">
     .ColorScheme-Text {
       color:#4d4d4d;
     }
     </style>
 </defs>
   <path
      style="fill:currentColor;fill-opacity:1;stroke:none"
      d="m17.438295 3.8366787-12.8539395.0501364c-.9570004-.0587348-1.0355762.8696075-1.0355763.8696075l-.5169237 11.0196374-.0276614.563603c-.015691.207051.014567.358771.058781.489262.034556.703949.1526877 1.176226.8004537 1.170426h14.1557582c.862732.0262.965944-.745348.962964-1.464329.0074-.06344.02074-.120934.01729-.195359l-.034579-.679435-.548044-10.9418399s-.07483-.8851067-.978523-.8817094zm-2.89754 2.6555011h.885167v6.9049942.765878h-4.425834v1.535211l-2.6555015-1.919015 2.6555015-1.917286v1.535212h3.540667z"
      class="ColorScheme-Text" />
</svg>
