<svg xmlns="http://www.w3.org/2000/svg" viewBox="0 0 22 22">
 <defs id="defs3051">
   <style type="text/css" id="current-color-scheme">
     .ColorScheme-Text {
       color:#4d4d4d;
     }
     </style>
 </defs>
   <path
      style="fill:currentColor;fill-opacity:1;stroke:none"
      d="m6.5 3a1.500015 1.500015 0 0 0 -1.5 1.5 1.500015 1.500015 0 0 0 1 1.4121094v9.0878906a2 2 0 0 0 2 2h1v2l3-2.5-3-2.5v2h-1a1 1 0 0 1 -1-1v-9.0878906a1.500015 1.500015 0 0 0 1-1.4121094 1.500015 1.500015 0 0 0 -1.5-1.5zm6.5 0-3 2.5 3 2.5v-2h1a1 1 0 0 1 1 1v9.087891a1.500015 1.500015 0 0 0 -1 1.412109 1.500015 1.500015 0 0 0 1.5 1.5 1.500015 1.500015 0 0 0 1.5-1.5 1.500015 1.500015 0 0 0 -1-1.412109v-9.087891a2 2 0 0 0 -2-2h-1zm-6.5 1a .5.5 0 0 1  .5.5.5.5 0 0 1 -.5.5.5.5 0 0 1 -.5-.5.5.5 0 0 1  .5-.5zm9 13a .5.5 0 0 1  .5.5.5.5 0 0 1 -.5.5.5.5 0 0 1 -.5-.5.5.5 0 0 1  .5-.5z"
      class="ColorScheme-Text" />
</svg> 
