<?xml version="1.0" encoding="UTF-8" standalone="no"?>
<svg
   xmlns:dc="http://purl.org/dc/elements/1.1/"
   xmlns:cc="http://creativecommons.org/ns#"
   xmlns:rdf="http://www.w3.org/1999/02/22-rdf-syntax-ns#"
   xmlns:svg="http://www.w3.org/2000/svg"
   xmlns="http://www.w3.org/2000/svg"
   xmlns:sodipodi="http://sodipodi.sourceforge.net/DTD/sodipodi-0.dtd"
   xmlns:inkscape="http://www.inkscape.org/namespaces/inkscape"
   viewBox="0 0 22 22"
   id="svg2"
   version="1.1"
   inkscape:version="0.91 r13725"
   sodipodi:docname="kr_mountman.svg">
  <metadata
     id="metadata14">
    <rdf:RDF>
      <cc:Work
         rdf:about="">
        <dc:format>image/svg+xml</dc:format>
        <dc:type
           rdf:resource="http://purl.org/dc/dcmitype/StillImage" />
      </cc:Work>
    </rdf:RDF>
  </metadata>
  <sodipodi:namedview
     pagecolor="#ffffff"
     bordercolor="#666666"
     borderopacity="1"
     objecttolerance="10"
     gridtolerance="10"
     guidetolerance="10"
     inkscape:pageopacity="0"
     inkscape:pageshadow="2"
     inkscape:window-width="640"
     inkscape:window-height="480"
     id="namedview12"
     showgrid="false"
     inkscape:zoom="29.954545"
     inkscape:cx="6.3930197"
     inkscape:cy="11"
     inkscape:current-layer="svg2" />
  <defs
     id="defs3051">
    <style
       type="text/css"
       id="current-color-scheme">
      .ColorScheme-Text {
        color:#4d4d4d;
      }
      .ColorScheme-Highlight {
        color:#3daee9;
      }
      </style>
    <style
       id="current-color-scheme-6"
       type="text/css">
      .ColorScheme-Text {
        color:#4d4d4d;
      }
      </style>
  </defs>
  <path
     style="color:#4d4d4d;fill:currentColor;fill-opacity:1;stroke:none"
     d="M 5.640625,3 C 5.2674838,3 4.9104987,3.1466748 4.6699219,3.3984375 4.4293451,3.6502002 4.3057266,3.979844 4.2714844,4.3222656 l 0,-0.011719 -1.3730469,10.8378911 c -0.00258,0.02073 -0.00389,0.04161 -0.00391,0.0625 l 0,0.0098 c 3.24e-4,0.02355 0.00228,0.04704 0.00586,0.07031 l 0.00195,0.0098 0.2441406,2.921875 c 0.050883,0.418115 0.3564055,0.751953 0.8652344,0.751953 l 14.0996092,0 c 0.508829,0 0.812398,-0.333838 0.863281,-0.751953 l 0.195313,-2.93164 0.002,-0.0078 c 0.003,-0.02397 0.0043,-0.04811 0.0039,-0.07226 -1.8e-5,-0.02089 -0.0013,-0.04177 -0.0039,-0.0625 L 17.798828,4.3105469 c -0.0015,-0.012438 -0.0035,-0.024816 -0.0059,-0.037109 C 17.730679,3.9619921 17.619171,3.6582931 17.390625,3.4082031 17.162079,3.1581132 16.804782,3 16.431641,3 Z m 0,1.0175781 10.791016,0 c 0.135687,0 0.156579,0.020965 0.207031,0.076172 0.04979,0.054487 0.114666,0.1819952 0.154297,0.375 l 1.347656,10.632812 -0.06641,0.109376 -3.476563,0 -0.509765,0 -10.166016,0 -0.00391,-0.01758 L 5.28125,4.4375 5.2832031,4.4238281 C 5.299842,4.2574211 5.3531409,4.1550971 5.4042969,4.1015625 5.4554528,4.048028 5.5049373,4.0175781 5.640625,4.0175781 Z"
     class="ColorScheme-Text"
     id="path6"
     inkscape:connector-curvature="0"
     sodipodi:nodetypes="ssccccccccsscccccccsssssscccccccccss" />
  <path
     style="opacity:1;fill:#32c671;fill-opacity:1;stroke:none"
     d="M 6.8164062 11.011719 C 4.6038797 11.011719 2.8242188 12.793333 2.8242188 15.005859 C 2.8242188 17.218386 4.6038797 19 6.8164062 19 C 9.0289328 19 10.810547 17.218386 10.810547 15.005859 C 10.810547 12.793333 9.0289328 11.011719 6.8164062 11.011719 z "
     id="path8" />
  <path
     style="fill:#ffffff;fill-opacity:1;stroke:none;stroke-opacity:1"
     d="M 8.6660156 13.349609 C 8.5714114 13.349609 8.4900032 13.383 8.4238281 13.449219 L 6.0976562 15.779297 L 5.0546875 14.734375 C 4.9884689 14.668156 4.9090139 14.634766 4.8144531 14.634766 C 4.7198489 14.634766 4.6384843 14.668156 4.5722656 14.734375 L 4.0898438 15.216797 C 4.0236251 15.283016 3.9902344 15.362427 3.9902344 15.457031 C 3.9902344 15.551592 4.0236251 15.633044 4.0898438 15.699219 L 5.375 16.982422 L 5.8574219 17.464844 C 5.923597 17.531062 6.003052 17.564453 6.0976562 17.564453 C 6.192217 17.564453 6.2736251 17.531019 6.3398438 17.464844 L 6.8222656 16.982422 L 9.3886719 14.414062 C 9.454847 14.347844 9.4882813 14.268432 9.4882812 14.173828 C 9.4883248 14.079267 9.454847 13.997859 9.3886719 13.931641 L 8.90625 13.449219 C 8.8400749 13.383 8.7605764 13.349609 8.6660156 13.349609 z "
     id="path10" />
  <path
     style="color:#4d4d4d;fill:currentColor;fill-opacity:1;stroke:none"
     d="m 10.966699,6.1032252 c -2.3364398,0 -4.2578124,1.1096275 -4.2578124,2.4609375 0,1.3513101 1.9213725,2.4628903 4.2578124,2.4628903 2.33645,0 4.255859,-1.1115802 4.255859,-2.4628903 0,-1.35131 -1.919409,-2.4609375 -4.255859,-2.4609375 z m 0,1.7578125 c 0.66808,0 1.214844,0.316735 1.214844,0.703125 0,0.3863801 -0.546764,0.703125 -1.214844,0.703125 -0.66806,0 -1.2167968,-0.3167449 -1.2167968,-0.703125 0,-0.38639 0.5487368,-0.703125 1.2167968,-0.703125 z"
     id="path3233"
     inkscape:connector-curvature="0" />
</svg>
