<svg xmlns="http://www.w3.org/2000/svg" viewBox="0 0 22 22">
 <defs id="defs3051">
   <style type="text/css" id="current-color-scheme">
     .ColorScheme-Text {
       color:#4d4d4d;
     }
     </style>
 </defs>
   <path
      style="fill:currentColor;fill-opacity:1;stroke:none"
      d="m4.59961 3c-.4432 0-.79883.35758-.79883.80078v14.39844c0 .4432.35563.80078.79883.80078h12.80078c.4432 0 .79883-.35758.79883-.80078v-14.39844c0-.4432-.35563-.80078-.79883-.80078zm7.76172 4.86719c.15121 0 .30253.0569.41797.17187.23088.23006.23088.60366 0 .83399l-2.57227 2.32617 2.57227 2.32812c.23088.23033.23088.60367 0 .83399-.23087.23032-.60507.23032-.83594 0l-2.99219-2.70703c-.12475-.12461-.17825-.29192-.16797-.45508-.0103-.16289.0433-.32853.16797-.45313l2.99219-2.70703c.11543-.11502.26675-.17187.41797-.17187z"
      class="ColorScheme-Text" />
</svg> 
