<svg xmlns="http://www.w3.org/2000/svg" viewBox="0 0 22 22">
 <defs id="defs3051">
   <style type="text/css" id="current-color-scheme">
     .ColorScheme-Text {
       color:#4d4d4d;
     }
     </style>
 </defs>
   <path
      style="fill:currentColor;fill-opacity:1;stroke:none"
      d="m11 1.7011719-8.4335938 4.2167969 8.4335938 4.2167972 8.433594-4.2167972zm-6.0839844 13.2050781-2.3496094 1.175781 8.4335938 4.216797 8.433594-4.216797-2.34961-1.175781-6.083984 3.042969z"
      class="ColorScheme-Text" />
 <defs id="defs3051">
   <style type="text/css" id="current-color-scheme">
     .ColorScheme-Text {
       color:#3daee9;
     }
     </style>
 </defs>
   <path
      style="fill:currentColor;fill-opacity:1;stroke:none"
      d="m10.996094 11.117188c-.176006.000636-.354872.068812-.488282.203124l-2.9980464 3.021485c-.2663262.268259-.2646641.708077.0039063.974609.2686935.266758.709471.265014.9765625-.003906l2.5117186-2.529297 2.529297 2.511719c.268704.266788.70951.26508.976562-.003906.266976-.268652.265226-.709503-.003906-.976563l-3.021484-2.998047c-.133551-.132566-.309688-.199857-.486328-.199218z"
      class="ColorScheme-Text" />
</svg> 
