<svg xmlns="http://www.w3.org/2000/svg" viewBox="0 0 22 22">
 <defs id="defs3051">
   <style type="text/css" id="current-color-scheme">
     .ColorScheme-Text {
       color:#4d4d4d;
     }
     </style>
 </defs>
   <path
      style="fill:currentColor;fill-opacity:1;stroke:none"
      d="m3 3v3.8886719 1.1210937 2.9902344 2.990234 1.009766.111328 3.888672h16v-3.892578-.107422-1.009766-2.990234-2.9902344-1.1171875-3.8925781zm1 1h14v2.3867188a11 6 0 0 0 -7-1.3867188 11 6 0 0 0 -7 1.3808594zm7 2a10 5 0 0 1 7 1.4414062v2.1074219a8 3 0 0 0 -7-1.5488281 8 3 0 0 0 -7 1.5546875v-2.109375a10 5 0 0 1 7-1.4453125zm0 3a7 2 0 0 1 7 2 7 2 0 0 1 -7 2 7 2 0 0 1 -7-2 7 2 0 0 1 7-2zm7 3.445312v2.113282a10 5 0 0 1 -7 1.441406 10 5 0 0 1 -7-1.445312v-2.103516a8 3 0 0 0 7 1.548828 8 3 0 0 0 7-1.554688zm0 3.167969v2.386719h-14v-2.380859a11 6 0 0 0 7 1.380859 11 6 0 0 0 7-1.386719z"
      class="ColorScheme-Text" />
</svg> 
