<svg xmlns="http://www.w3.org/2000/svg" viewBox="0 0 22 22">
 <defs id="defs3051">
   <style type="text/css" id="current-color-scheme">
     .ColorScheme-Text {
       color:#4d4d4d;
     }
     </style>
 </defs>
   <path
      style="fill:currentColor;fill-opacity:1;stroke:none"
      d="m11 3c-4.41828 0-8 3.58172-8 8 0 2.0276.75669 3.87132 2 5.28125.2080306.267242.4988118.505096.71875.71875 1.40993 1.24331 3.25365 2 5.28125 2 4.41828 0 8-3.58172 8-8 0-2.0276-.75669-3.87132-2-5.28125-.11136-.12621-.22478-.25603-.34375-.375l-.375-.34375c-1.40993-1.24331-3.25365-2-5.28125-2zm4.949219 3.0507812c.697363.700308 1.238529 1.5403474 1.58789 2.4648438.00097.002.002907.0028594.003907.0058594.0066.019502.013111.0390337.019531.0585937.283874.6848394.357738 1.3830865.423828 2.0957029.005.10821.013672.214619.013672.324219v.042969c-.06847 3.545269-2.592827 6.180701-5.953125 6.871093-.12834.019201-.256209.040535-.386719.052735-.135849.01048-.271974.017001-.408203.019531-.083694.003-.16557.013672-.25.013672-.0149 0-.030022-.003906-.044922-.003906-.82235.01319-1.5967671-.192715-2.3574218-.431641-.0456-.017-.091599-.032781-.1367187-.050781-.1707978-.06694-.3388942-.140561-.5039063-.220703-.7060893-.338166-1.3504477-.792386-1.90625-1.34375z"
      class="ColorScheme-Text" />
</svg> 
