<svg xmlns="http://www.w3.org/2000/svg" viewBox="0 0 22 22">
 <defs id="defs3051">
   <style type="text/css" id="current-color-scheme">
     .ColorScheme-Text {
       color:#4d4d4d;
     }
     </style>
 </defs>
   <path
      style="fill:currentColor;fill-opacity:1;stroke:none"
      d="m15.734237 3.0044903c-1.200797-.0551972-2.465531.3998734-3.168017 1.2890022l-5.2438177 6.6383335-.7505403.949166c-.7493132.948393-.5383961 2.637775.4207017 3.378738.9590844.740976 2.6675354.53436 3.4168763-.414033l5.243817-6.6402935-.957911-.7402029-5.2457999 6.6383474c-.374657.474189-1.228895.577477-1.7084378.207016-.4795421-.370488-.5840231-1.215179-.209353-1.689369l.7485448-.947219 4.4972409-5.6911146.748559-.9472193c.749326-.9484059 2.457778-1.1569555 3.416876-.4159925.959084.7409496 1.168046 2.4303451.41872 3.3787243l-.748559.9491792-5.994344 7.5875129c-1.1239979 1.422582-3.6866608 1.7325-5.1253142.621062-1.4386265-1.111451-1.7540381-3.645524-.6300547-5.068106l5.9943579-7.5875131-.9579109-.740203-5.9943447 7.5875131c-1.4986671 1.896785-1.0807565 5.275536.8374256 6.757475 1.918182 1.481926 5.335085 1.06676 6.833752-.830038l5.996313-7.587514.748559-.9472052c1.123996-1.4225822.808598-3.9566688-.630042-5.0681065-.539502-.4167925-1.236824-.6348483-1.957297-.66794z"
      class="ColorScheme-Text" />
</svg> 
