<svg xmlns="http://www.w3.org/2000/svg" viewBox="0 0 22 22">
 <defs id="defs3051">
   <style type="text/css" id="current-color-scheme">
     .ColorScheme-Text {
       color:#4d4d4d;
     }
     </style>
 </defs>
   <path
      style="fill:currentColor;fill-opacity:1;stroke:none"
      d="m11 2.65c-3.06331 0-5.56531 2.3782-5.56531 5.29214v1.7124c-.39194.23559-.69719.58969-.69719 1.05802v7.31441c0 .7258.63079 1.32303 1.39234 1.32303h9.74031c.76155 0 1.39235-.59723 1.39235-1.32303v-7.31441c0-.46833-.30549-.82243-.6972-1.05802v-1.7124c0-2.91394-2.50201-5.29214-5.5653-5.29214zm0 .97852c2.50666 0 4.53786 1.92965 4.53786 4.31362v2.34844l.40772.0815c.1637.0332.28744.16863.28744.34044v7.3144c0 .19574-.15557.34452-.36287.34452h-9.74031c-.2073 0-.36286-.14878-.36286-.34452v-7.3144c0-.17181.12446-.30802.28743-.34044l.40772-.0795v-2.35047c0-2.38398 2.0312-4.31363 4.53787-4.31363zm0 .69311c-2.09429 0-3.80806 1.62811-3.80806 3.62051v2.42387h7.61611v-2.42387c0-1.99231-1.71375-3.62051-3.80805-3.62051zm0 .97852c1.53794 0 2.78061 1.17965 2.78061 2.64199v1.44535h-5.56123v-1.44535c0-1.46244 1.24265-2.64199 2.78062-2.64199z"
      class="ColorScheme-Text" />
</svg> 
