<svg xmlns="http://www.w3.org/2000/svg" viewBox="0 0 22 22">
 <defs id="defs3051">
   <style type="text/css" id="current-color-scheme">
     .ColorScheme-Text {
       color:#4d4d4d;
     }
     </style>
 </defs>
   <path
      style="fill:currentColor;fill-opacity:1;stroke:none"
      d="m8.539065 3c-.15474 0-.28749.0551-.39844.16602l-.33008.33007c-.10811.10811-.16211.23779-.16211.39258 0 .15485.0569.28949.16797.40039l2.84766 2.85157c.11386.1081.24655.1621.39843.1621.15485 0 .28643-.054.39453-.1621l2.85352-2.85157c.11101-.11095.16602-.24554.16602-.40039 0-.15775-.0551-.28743-.16602-.39258l-.33008-.33007c-.1052-.11101-.23678-.16602-.39453-.16602s-.28738.0551-.39258.16602l-2.13086 2.125-2.1289-2.125c-.10515-.11096-.23668-.16602-.39453-.16602zm-1.24805 4.58984c-.1545 0-.30935.0493-.4668.15039-.15745.101-.26676.22631-.32617.375l-2.12109 4.91993c-.14859.3625-.22266.72924-.22266 1.09765v4.29688c0 .1545.055.28747.16797.40039.11303.11292.24784.16992.40234.16992h12.55078c.1545 0 .28943-.057.40235-.16992.11281-.11292.16797-.24589.16797-.40039v-4.29688c0-.36841-.074-.73515-.22266-1.09765l-2.12109-4.91993c-.0594-.14869-.16862-.274-.32618-.375-.15745-.1011-.3123-.15039-.46679-.15039h-.93555-4.0957zm.55273 1.71094h1.79102 4.13867.38281l1.88867 4.42188c.006.0178.0147.0408.0234.0703.009.0296.0154.0544.0215.0723h-2.8164l-.84766 1.71093h-2.85156l-.84766-1.71093h-2.8164c.006-.0118.0125-.0366.0215-.0723.009-.0356.0175-.0585.0234-.0703l1.88867-4.42188z"
      class="ColorScheme-Text" />
</svg> 
