<svg xmlns="http://www.w3.org/2000/svg" viewBox="0 0 22 22">
 <defs id="defs3051">
   <style type="text/css" id="current-color-scheme">
     .ColorScheme-Text {
       color:#4d4d4d;
     }
     </style>
 </defs>
   <path
      style="fill:currentColor;fill-opacity:1;stroke:none"
      d="m7.5988775 3c-.41113-.00007-.82218.14791-1.1329.44404-.62146.59211-.62124 1.56655.0003 2.15899v.00007l5.6652295 5.39752-5.6635095 5.39588c-.62147.59206-.62132 1.56645.00023 2.1588.00002.00002.00003.00003.00007.00006.00002.00003.00003.00004.00006.00007.62159.59268 1.64478.59274 2.26628.0003l6.7962995-6.47509c.31063-.29601.46913-.68934.46906-1.07939-.00007-.38975-.15854-.78312-.46923-1.07928v-.00007l-6.7986395-6.4775c-.3109-.29621-.7221-.44434-1.13325-.4444z"
      class="ColorScheme-Text" />
</svg> 
