<svg xmlns="http://www.w3.org/2000/svg" viewBox="0 0 22 22">
  <defs id="defs3051">
    <style type="text/css" id="current-color-scheme">
      .ColorScheme-Text {
        color:#4d4d4d
      }
      </style>
  </defs>
 <path 
     style="fill:currentColor;fill-opacity:1;stroke:none"      
	 class="ColorScheme-Text"
        d="M 1.87471,5 C 1.389303,5 0.99999997,5.394 0.99999997,5.8828 c 0,0.4888 0.38930303,0.8828 0.87471003,0.8828 l 15.771915,0 c 0.485408,0 0.876649,-0.394 0.876649,-0.8828 C 18.523274,5.394 18.132033,5 17.646625,5 L 1.87471,5 Z m 0,3.5293 c -0.485407,0 -0.87471003,0.394 -0.87471003,0.8828 0,0.4888 0.38930303,0.8828 0.87471003,0.8828 l 12.267261,0 c 0.485407,0 0.876649,-0.394 0.876649,-0.8828 0,-0.4888 -0.391242,-0.8828 -0.876649,-0.8828 l -12.267261,0 z m 18.099301,1.3594 c -0.118026,0 -0.218062,0.042 -0.30062,0.125 l -2.903413,2.9277 -1.301397,-1.3144 c -0.08261,-0.083 -0.182647,-0.125 -0.30062,-0.125 -0.118027,0 -0.218007,0.042 -0.300621,0.125 l -0.601242,0.6054 c -0.08261,0.083 -0.124127,0.1839 -0.124127,0.3028 0,0.1188 0.04152,0.2196 0.124127,0.3027 l 1.602018,1.6133 0.601241,0.6074 c 0.08256,0.083 0.182594,0.125 0.300621,0.125 0.117972,0 0.218006,-0.042 0.300619,-0.125 l 0.603181,-0.6074 3.204035,-3.2266 C 20.960373,11.1416 21,11.0407 21,10.9219 c 5.5e-5,-0.1188 -0.03963,-0.2196 -0.122187,-0.3027 l -0.603181,-0.6055 c -0.08256,-0.083 -0.182648,-0.125 -0.300621,-0.125 z M 1.87471,12.0586 c -0.485407,0 -0.87471003,0.394 -0.87471003,0.8828 0,0.4888 0.38930303,0.8828 0.87471003,0.8828 l 10.513965,0 c 0.485407,0 0.876648,-0.394 0.876648,-0.8828 0,-0.4888 -0.391242,-0.8828 -0.876648,-0.8828 l -10.513965,0 z m 1.753297,3.1758 c -0.485407,0 -0.876649,0.394 -0.876649,0.8828 C 2.751358,16.606 3.1426,17 3.628007,17 l 10.513964,0 c 0.485407,0 0.876649,-0.394 0.876649,-0.8828 0,-0.4888 -0.391242,-0.8828 -0.876649,-0.8828 l -10.513964,0 z"
     />
</svg>
