<svg xmlns="http://www.w3.org/2000/svg" viewBox="0 0 22 22">
  <defs id="defs3051">
    <style type="text/css" id="current-color-scheme">
      .ColorScheme-Text {
        color:#4d4d4d
      }
      </style>
  </defs>
 <path 
     style="fill:currentColor;fill-opacity:1;stroke:none"      
	 class="ColorScheme-Text"
        d="m 11,2.65 c -3.06331,0 -5.56531,2.3782 -5.56531,5.29214 l 0,1.7124 C 5.04275,9.89013 4.7375,10.24423 4.7375,10.71256 l 0,7.31441 c 0,0.7258 0.63079,1.32303 1.39234,1.32303 l 9.74031,0 c 0.76155,0 1.39235,-0.59723 1.39235,-1.32303 l 0,-7.31441 c 0,-0.46833 -0.30549,-0.82243 -0.6972,-1.05802 l 0,-1.7124 C 16.5653,5.0282 14.06329,2.65 11,2.65 Z m 0,0.97852 c 2.50666,0 4.53786,1.92965 4.53786,4.31362 l 0,2.34844 0.40772,0.0815 c 0.1637,0.0332 0.28744,0.16863 0.28744,0.34044 l 0,7.3144 c 0,0.19574 -0.15557,0.34452 -0.36287,0.34452 l -9.74031,0 c -0.2073,0 -0.36286,-0.14878 -0.36286,-0.34452 l 0,-7.3144 c 0,-0.17181 0.12446,-0.30802 0.28743,-0.34044 l 0.40772,-0.0795 0,-2.35047 C 6.46213,5.55813 8.49333,3.62848 11,3.62848 Z m 0,0.69311 c -2.09429,0 -3.80806,1.62811 -3.80806,3.62051 l 0,2.42387 7.61611,0 0,-2.42387 C 14.80805,5.94983 13.0943,4.32163 11,4.32163 Z m 0,0.97852 c 1.53794,0 2.78061,1.17965 2.78061,2.64199 l 0,1.44535 -5.56123,0 0,-1.44535 C 8.21938,6.4797 9.46203,5.30015 11,5.30015 Z"
     />
</svg>
