<svg xmlns="http://www.w3.org/2000/svg" viewBox="0 0 22 22">
 <defs id="defs3051">
   <style type="text/css" id="current-color-scheme">
     .ColorScheme-Text {
       color:#4d4d4d;
     }
     </style>
 </defs>
   <path
      style="fill:currentColor;fill-opacity:1;stroke:none"
      d="m11.92144 3.0000495v.002c.40285.001.80405.15043 1.11371.44695.62014.59266.61591 1.59942-.008 2.18792l-5.6682 5.3497495 5.62717 5.38685c.62019.59265.61797 1.59954-.006 2.18791-.6235.58935-1.61385.58361-2.23328-.01l-6.63538-6.35101-.14068-.13467h-.002c-.30959-.29637-.47041-.69645-.46893-1.09493.002-.39819.16505-.79685.47674-1.0910295l6.82686-6.44079v.002c.31189-.29443.71482-.44236 1.11766-.44105zm4.07775 5.50785c1.37656 0 2.50097 1.12318 2.50097 2.4982395 0 1.37506-1.12441 2.49825-2.50097 2.49825s-2.50097-1.12319-2.50097-2.49825c0-1.3750595 1.12441-2.4982395 2.50097-2.4982395z"
      class="ColorScheme-Text" />
</svg> 
