<svg xmlns="http://www.w3.org/2000/svg" viewBox="0 0 22 22">
 <defs id="defs3051">
   <style type="text/css" id="current-color-scheme">
     .ColorScheme-Text {
       color:#4d4d4d;
     }
     </style>
 </defs>
   <path
      style="fill:currentColor;fill-opacity:1;stroke:none"
      d="m1.87471 5c-.485407 0-.87471003.394-.87471003.8828s.38930303.8828.87471003.8828h15.771915c.485408 0 .876649-.394.876649-.8828s-.391241-.8828-.876649-.8828zm0 3.5293c-.485407 0-.87471003.394-.87471003.8828s.38930303.8828.87471003.8828h12.267261c.485407 0 .876649-.394.876649-.8828s-.391242-.8828-.876649-.8828zm18.099301 1.3594c-.118026 0-.218062.042-.30062.125l-2.903413 2.9277-1.301397-1.3144c-.08261-.083-.182647-.125-.30062-.125-.118027 0-.218007.042-.300621.125l-.601242.6054c-.08261.083-.124127.1839-.124127.3028 0 .1188.04152.2196.124127.3027l1.602018 1.6133.601241.6074c.08256.083.182594.125.300621.125.117972 0 .218006-.042.300619-.125l.603181-.6074 3.204035-3.2266c.08256-.083.122187-.1839.122187-.3027.000055-.1188-.03963-.2196-.122187-.3027l-.603181-.6055c-.08256-.083-.182648-.125-.300621-.125zm-18.099301 2.1699c-.485407 0-.87471003.394-.87471003.8828s.38930303.8828.87471003.8828h10.513965c.485407 0 .876648-.394.876648-.8828s-.391242-.8828-.876648-.8828zm1.753297 3.1758c-.485407 0-.876649.394-.876649.8828s.391242.8828.876649.8828h10.513964c.485407 0 .876649-.394.876649-.8828s-.391242-.8828-.876649-.8828z"
      class="ColorScheme-Text" />
</svg> 
