<svg xmlns="http://www.w3.org/2000/svg" viewBox="0 0 22 22">
 <defs id="defs3051">
   <style type="text/css" id="current-color-scheme">
     .ColorScheme-Text {
       color:#4d4d4d;
     }
     </style>
 </defs>
   <path
      style="fill:currentColor;fill-opacity:1;stroke:none"
      d="m10.999584 3.4999976c1.37607 0 2.50013 1.124 2.50013 2.5 0 1.37605-1.12406 2.5-2.50013 2.5-1.3761201 0-2.5001301-1.12395-2.5001301-2.5 0-1.376 1.12401-2.5 2.5001301-2.5zm6.47104 5c .3917-.001.7849.15202 1.08209.46094.29726.3089.44629.71876.44729 1.1289004.001.41016-.14437.81965-.43948 1.13086l-6.45346 6.80664c-.29505.31102-.68841.47166-1.07818.47266-.39007.001-.78495-.15602-1.0820801-.46484l-6.49839-6.75586c-.59483-.61787-.59827-1.6394704-.008-2.2617204.59013-.62215 1.56398-.62563 2.15831-.008l5.4163001 5.6308604 5.37723-5.6718804c.29512-.31105.68649-.46728 1.07818-.46875z"
      class="ColorScheme-Text" />
</svg> 
