<svg xmlns="http://www.w3.org/2000/svg" viewBox="0 0 22 22">
 <defs id="defs3051">
   <style type="text/css" id="current-color-scheme">
     .ColorScheme-Text {
       color:#4d4d4d;
     }
     </style>
 </defs>
   <path
      style="fill:currentColor;fill-opacity:1;stroke:none"
      d="m4.5 3c-.8284213 0-1.4999917.6715704-1.5 1.5.0000083.8284296.6715787 1.5 1.5 1.5s1.4999917-.6715704 1.5-1.5c-.0000083-.8284296-.6715787-1.5-1.5-1.5zm2.5 1v1h1v-1zm2 0v1h10v-1zm0 2v1h3v-1zm-4.5 3c-.8284268-.0000012-1.5.6715721-1.5 1.5 0 .828428.6715732 1.500001 1.5 1.5.8284268.000001 1.5-.671572 1.5-1.5 0-.8284279-.6715732-1.5000012-1.5-1.5zm2.5 1v1h1v-1zm2 0v1h10v-1zm3 2-2 1.5 2 1.5v-1h5c .554 0 1 .446 1 1h1c0-1.10801-.89199-2-2-2h-5zm-7.5 3c-.8284268-.000001-1.5.671572-1.5 1.5s.6715732 1.500001 1.5 1.5c.8284268.000001 1.5-.671572 1.5-1.5s-.6715732-1.500001-1.5-1.5zm2.5 1v1h1v-1zm3 0c0 1.10801.89199 2 2 2h5v1l2-1.5-2-1.5v1h-5c-.554 0-1-.446-1-1z"
      class="ColorScheme-Text" />
</svg> 
