<svg xmlns="http://www.w3.org/2000/svg" viewBox="0 0 22 22">
 <defs id="defs3051">
   <style type="text/css" id="current-color-scheme">
     .ColorScheme-Text {
       color:#4d4d4d;
     }
     </style>
 </defs>
   <path
      style="fill:currentColor;fill-opacity:1;stroke:none"
      d="m3.88867 3c-.49244 0-.88867.35758-.88867.80078v14.39844c0 .4432.39623.80078.88867.80078h14.22266c.49244 0 .88867-.35758.88867-.80078v-14.39844c0-.4432-.39623-.80078-.88867-.80078zm9.96289 3.5c.19284.034.33594.21514.33594.45703l-.0156 6.28906c-.0636.46938-.46283.91496-1.04102 1.07227-.72472.19717-1.43839-.13202-1.59375-.7207-.15535-.58869.2987-1.22471 1.02344-1.42188.40161-.10921.78823-.0442 1.08985.1211v-3.8125l-3.75781 1.05468-.0176 4.83203c-.0636.46931-.46088.91503-1.03906 1.07227-.72473.19717-1.43841-.13209-1.59375-.7207-.15536-.58876.2987-1.22666 1.02343-1.42383.40163-.10922.78821-.0423 1.08985.12305v-5.11133c0-.32251.23966-.65479.53711-.73828l3.95898-1.07227zm.21485 9.16602h4v2 .5h-1.5v.5l-1.5-.75 1.5-.75v.5h1v-1.5h-3v2h-.5z"
      class="ColorScheme-Text" />
</svg> 
