<svg xmlns="http://www.w3.org/2000/svg" viewBox="0 0 22 22">
 <defs id="defs3051">
   <style type="text/css" id="current-color-scheme">
     .ColorScheme-Text {
       color:#4d4d4d;
     }
     </style>
 </defs>
   <path
      style="fill:currentColor;fill-opacity:1;stroke:none"
      d="m4.30664 3.000015c-.69013 0-1.30664.52539-1.30664 1.22267v13.55468c0 .69728.61654 1.22262 1.30664 1.22262h13.38672c.6901 0 1.30664-.52534 1.30664-1.22262v-13.55468c0-.69728-.61651-1.22267-1.30664-1.22267zm3.19336 2.47069c1.12639 0 2.0293.90293 2.0293 2.0293 0 1.12641-.90291 2.0293-2.0293 2.0293s-2.0293-.90289-2.0293-2.0293c0-1.12637.90291-2.0293 2.0293-2.0293zm5 0h4c .0244 0 .0293.005.0293.0295v4c0 .0243-.005.0295-.0293.0295h-4c-.0244 0-.0293-.005-.0293-.0295v-4c0-.0243.005-.0295.0293-.0295zm-6 7h2c .0244 0 .0293.005.0293.0295v3.99999c0 .0243-.005.0295-.0293.0295h-2c-.0244 0-.0293-.005-.0293-.0295v-3.99999c0-.0243.005-.0295.0293-.0295zm8 .58399 1.73828 3.4746h-3.47656z"
      class="ColorScheme-Text" />
</svg> 
