<svg xmlns="http://www.w3.org/2000/svg" viewBox="0 0 22 22">
 <defs id="defs3051">
   <style type="text/css" id="current-color-scheme">
     .ColorScheme-Text {
       color:#4d4d4d;
     }
     </style>
 </defs>
   <path
      style="fill:currentColor;fill-opacity:1;stroke:none"
      d="m10 3.0683594c-3.9556719.4900599-7 3.8391046-7 7.9316406s3.0443281 7.441581 7 7.931641v-1.009766c-3.3993571-.483816-6-3.38466-6-6.921875 0-3.5372148 2.6006429-6.4380585 6-6.921875zm2 0v1.0097656c3.399357.4838165 6 3.3846602 6 6.921875 0 3.537215-2.600643 6.438059-6 6.921875v1.009766c3.955672-.49006 7-3.839105 7-7.931641s-3.044328-7.4415807-7-7.9316406zm-1 1.9316406c-3.324 0-6 2.676-6 6s2.676 6 6 6 6-2.676 6-6c0-.881776-.192482-1.716033-.53125-2.46875l-.78125.78125c.189728.5292746.3125 1.091357.3125 1.6875 0 2.77-2.23 5-5 5s-5-2.23-5-5 2.23-5 5-5c1.641573 0 3.079708.7951359 3.990234 2.0097656l.722657-.7226562c-1.096887-1.3923979-2.79483-2.2871094-4.712891-2.2871094zm0 2c-1.108 0-2.1070781.4469219-2.8300781 1.1699219l.7070312.7070312c.54225-.54225 1.2920469-.8769531 2.1230469-.8769531 1.662 0 3 1.338 3 3s-1.338 3-3 3-3-1.338-3-3c0-.301851.0564772-.586926.1386719-.861328l-.78125-.7812501c-.225587.5015744-.3574219 1.0550841-.3574219 1.6425781 0 2.216 1.784 4 4 4s4-1.784 4-4-1.784-4-4-4z"
      class="ColorScheme-Text" />
</svg> 
