<svg xmlns="http://www.w3.org/2000/svg" viewBox="0 0 22 22">
 <defs id="defs3051">
   <style type="text/css" id="current-color-scheme">
     .ColorScheme-Text {
       color:#4d4d4d;
     }
     </style>
 </defs>
   <path
      style="fill:currentColor;fill-opacity:1;stroke:none"
      d="m8 3c-.552005 0-1 .447995-1 1v1h1v-.5c0-.2759958.2240042-.5.5-.5h9c .276009 0 .5.2240042.5.5v9c0 .275996-.223991.5-.5.5h-.5v1h1c .552005 0 1-.448008 1-1v-10c0-.552005-.447995-1-1-1zm-4 3c-.552005 0-1 .4480084-1 1v11c0 .552005.447995 1 1 1h11c .552005 0 1-.447995 1-1v-11c0-.5519916-.447995-1-1-1zm5.5 1a2.9999986 2.9999986 0 0 1 3 3c0 1.304979-.835017 2.414221-2 2.824219v5.175781h-2v-1h-2v-2h2v-2.175781c-1.1649967-.409998-2-1.51924-2-2.824219a2.9999986 2.9999986 0 0 1 3-3zm0 2a .99999957.99999957 0 0 0 -1 1 .99999957.99999957 0 0 0 1 1 .99999957.99999957 0 0 0 1-1 .99999957.99999957 0 0 0 -1-1z"
      class="ColorScheme-Text" transform="matrix(.999999997335 0 0 .999999997335 -.000006497376 .000001081487)"/>
</svg> 
