<svg xmlns="http://www.w3.org/2000/svg" viewBox="0 0 22 22">
  <defs id="defs3051">
    <style type="text/css" id="current-color-scheme">
      .ColorScheme-Text {
        color:#4d4d4d;
      }
      .ColorScheme-Highlight {
        color:#3daee9;
      }
      </style>
  </defs>
 <path 
     style="fill:currentColor;fill-opacity:1;stroke:none" 
     d="m 12.357701,3.0000016 a 6.0156652,6.0156652 0 0 0 -1.738903,0.4648 l 0.673632,1.1670398 a 4.6788507,4.6788507 0 0 1 1.065279,-0.2846399 l 0,-1.3471999 z m 1.336816,0.00261 0,1.3471999 a 4.6788507,4.6788507 0 0 1 1.06528,0.2819199 l 0.671024,-1.1619198 a 6.0156652,6.0156652 0 0 0 -1.736292,-0.46736 z M 9.4621418,4.1357295 A 6.0156652,6.0156652 0 0 0 8.1879819,5.4098094 L 9.3550858,6.0808493 A 4.6788507,4.6788507 0 0 1 10.130542,5.2974894 L 9.4621418,4.1355695 Z m 7.1279372,0 -0.671024,1.1670399 a 4.6788507,4.6788507 0 0 1 0.783296,0.7755199 L 17.864223,5.4098094 A 6.0156652,6.0156652 0 0 0 16.590079,4.1357295 Z m 1.945169,2.4307997 -1.167104,0.6736 a 4.6788507,4.6788507 0 0 1 0.284592,1.0652799 l 1.347264,0 A 6.0156652,6.0156652 0 0 0 18.535246,6.5665772 Z M 7.5221947,6.5691372 A 6.0156652,6.0156652 0 0 0 7.0548348,8.3054411 L 3,8.3054891 3,19 l 10.694516,0 0,-4.052224 a 6.0156652,6.0156652 0 0 0 1.738904,-0.4648 l -0.673632,-1.167039 a 4.6788507,4.6788507 0 0 1 -1.127936,0.28976 4.6788507,4.6788507 0 0 1 -0.34464,0.0368 4.6788507,4.6788507 0 0 1 -0.261104,0.01043 4.6788507,4.6788507 0 0 1 -0.6684,-0.0544 A 4.6788507,4.6788507 0 0 1 8.3994843,9.6429289 4.6788507,4.6788507 0 0 1 8.3473243,8.974449 4.6788507,4.6788507 0 0 1 8.4022043,8.3061291 4.6788507,4.6788507 0 0 1 8.6841882,7.2408492 l -1.1618719,-0.67104 z m -3.1853788,3.0731197 2.7154045,0 A 6.0156652,6.0156652 0 0 0 12.357703,14.94512 l 0,2.718016 -8.0208871,0 0,-8.0208791 z m 13.3133141,0 a 4.6788507,4.6788507 0 0 1 -0.281984,1.0652801 l 1.161888,0.67104 a 6.0156652,6.0156652 0 0 0 0.46736,-1.7362881 l -1.347264,0 z m -0.953008,2.2245441 a 4.6788507,4.6788507 0 0 1 -0.775456,0.7832 l 0.6684,1.161919 a 6.0156652,6.0156652 0 0 0 1.274144,-1.274079 l -1.167104,-0.67104 z"
     class="ColorScheme-Text"
     />
 <path 
     style="fill:currentColor;fill-opacity:0.6;stroke:naone" 
     class="ColorScheme-Text"
     d="m 4.3368143,9.6423049 0,8.0208791 8.0208867,0 0,-4.065279 A 4.6788507,4.6788507 0 0 1 8.3994779,9.6423049 l -4.0626636,0 z"
     />
</svg>
