<svg xmlns="http://www.w3.org/2000/svg" viewBox="0 0 22 22">
 <defs id="defs3051">
   <style type="text/css" id="current-color-scheme">
     .ColorScheme-Text {
       color:#4d4d4d;
     }
     </style>
 </defs>
   <path
      style="fill:currentColor;fill-opacity:1;stroke:none"
      d="m6.4414062 3c-1.0428305 0-1.9433484.3808485-2.703125 1.140625-.7448789.7597765-1.1191406 1.6517546-1.1191406 2.6796875s.3742617 1.9218641 1.1191406 2.6816406c.7597766.7597769 1.6602945 1.1406249 2.703125 1.1406249 1.0428306 0 1.9367617-.380848 2.6816407-1.1406249.7597765-.7597765 1.1386721-1.6537077 1.1386721-2.6816406s-.3788956-1.919911-1.1386721-2.6796875c-.744879-.7597765-1.6388101-1.140625-2.6816407-1.140625zm8.8945318.1796875-9.945313 14.8144535 1.2734375.826171 9.9218755-14.7929682zm.222656 8.1777345c-1.042831 0-1.943349.380848-2.703125 1.140625-.744879.759776-1.117188 1.653708-1.117188 2.681641 0 1.027932.372309 1.91991 1.117188 2.679687.759776.759777 1.660294 1.140625 2.703125 1.140625 1.04283 0 1.936761-.380848 2.68164-1.140625.759777-.759777 1.140625-1.651755 1.140625-2.679687 0-1.027933-.380848-1.921865-1.140625-2.681641-.744879-.759777-1.63881-1.140625-2.68164-1.140625z"
      class="ColorScheme-Text" />
</svg> 
