<svg xmlns="http://www.w3.org/2000/svg" viewBox="0 0 22 22">
 <defs id="defs3051">
   <style type="text/css" id="current-color-scheme">
     .ColorScheme-Text {
       color:#4d4d4d;
     }
     </style>
 </defs>
   <path
      style="fill:currentColor;fill-opacity:1;stroke:none"
      d="m11 3c-.228034 0-.425132.0834965-.591797.25l-4.3808592 4.3808594h-3.4492188c-.2281954 0-.4251319.0834965-.5917969.25-.166665.166665-.25.3657161-.25.59375v5.0507816c0 .228033.083335.427246.25.59375.1668265.166665.363763.25.5917969.25h3.4472656l4.3828124 4.380859c.166665.166503.363763.25.591797.25.228195 0 .425132-.083497.591797-.25s.25-.363763.25-.591797v-14.3164061c0-.2280339-.083497-.4251319-.25-.5917969-.166827-.1665035-.363602-.25-.591797-.25zm4.841797 1.7363281c-.228034 0-.424971.083335-.591797.25-.166503.166665-.25.363763-.25.5917969 0 .3422123.17146.6017964.513672.7773438.491112.2543578.824614.4466663 1 .578125.649218.4738324 1.155517 1.0682555 1.519531 1.7832031.364015.7149475.544922 1.4762021.544922 2.2832031s-.180907 1.568256-.544922 2.283203c-.364014.715109-.870474 1.309532-1.519531 1.783203-.175386.13162-.508888.323767-1 .578125-.342212.175548-.513672.433179-.513672.775391 0 .228034.083497.427246.25.59375.166826.166826.368553.25.605469.25.105296 0 .214269-.022802.328125-.066406 1.227862-.51776 2.215305-1.344499 2.960937-2.480469.745632-1.135809 1.119141-2.374595 1.119141-3.716797 0-1.3422022-.373509-2.580342-1.119141-3.7167969-.745632-1.1358089-1.733075-1.9628706-2.960937-2.4804687-.113856-.0437657-.227942-.0664063-.341797-.0664063zm-1.316406 3.1054688c-.228034 0-.425294.0800444-.591797.2421875-.166504.1623045-.25.3628546-.25.5996094 0 .1842681.052745.3395371.158203.4667968.105296.1272597.233589.2380248.382812.3300782.148901.0920533.298043.1930778.447266.3027343s.275563.2650869.380859.4667969c.104973.201871.158204.451715.158204.75s-.053069.548129-.158204.75c-.105296.201871-.231636.356979-.380859.466797-.149223.109656-.298365.210681-.447266.302734-.149223.091892-.277516.201027-.382812.328125-.105296.127421-.158203.284482-.158203.46875 0 .236916.083496.435352.25.597656.166503.162305.363763.244141.591797.244141.131458 0 .242385-.022802.330078-.066406.614173-.24596 1.107572-.655862 1.480469-1.230469.372896-.574445.558593-1.194668.558593-1.861328s-.185697-1.2901736-.558593-1.8691406c-.373059-.578967-.866296-.9857401-1.480469-1.2226563-.087693-.0437657-.19862-.0664062-.330078-.0664062z"
      class="ColorScheme-Text" />
</svg> 
