<svg xmlns="http://www.w3.org/2000/svg" viewBox="0 0 22 22">
 <defs id="defs3051">
   <style type="text/css" id="current-color-scheme">
     .ColorScheme-Text {
       color:#4d4d4d;
     }
     </style>
 </defs>
   <path
      style="fill:currentColor;fill-opacity:1;stroke:none"
      d="m4.77672 3c-.4309333 0-.77672.35758-.77672.80078v14.39844c0 .4432.3457867.80078.77672.80078h12.446553c.430934 0 .776727-.35758.776727-.80078v-14.39844c0-.4432-.345793-.80078-.776727-.80078zm8.889587 5c .130913 0 .24262.04633.334233.140627l.668473.6875c.09161.09429.136794.209106.136734.343746 0 .134707-.04513.249467-.136734.343754l-3.556966 3.656246-.66658.6875c-.091674.094227-.20332.140627-.33424.140627-.1309803 0-.2426137-.046333-.3342337-.140627l-.6684733-.6875-1.77754-1.82812c-.09168-.094226-.1367333-.209113-.1367333-.343753 0-.134707.045067-.24946.1367333-.343747l.6684733-.6875c.09168-.09429.2032667-.140626.33424-.140626.13092 0 .24256.04633.33424.140626l1.4432937 1.490234 3.220833-3.31836c.09162-.094287.203267-.140627.334247-.140627z"
      class="ColorScheme-Text" />
</svg> 
