<svg xmlns="http://www.w3.org/2000/svg" viewBox="0 0 22 22">
 <defs id="defs3051">
   <style type="text/css" id="current-color-scheme">
     .ColorScheme-Text {
       color:#4d4d4d;
     }
     </style>
 </defs>
   <path
      style="fill:currentColor;fill-opacity:1;stroke:none"
      d="m14.984371 2.9999996s-1 .006-1 1.01563v.98437h-3v1 11.0000004h1 2v .99414s-.00057 1.00586 1.00977 1.00586h3.0039s.98633.006.98633-.98242v-3.01758s.0123-1-.98633-1h-3.0039c-.009 0-1.00977.0109-1.00977 1.0332v.9668h-2v-10.0000004h2v1.01367s.0106.98633 1.00977.98633h2.9707s1.01953.0363 1.01953-.96484v-3.03907c0 .004-.011-.99609-1.01953-.99609h-2.98047zm-7.0546896.043-4.91406 5.97851 3.31641 1.7949304-.85938 4.18359 4.9160196-5.9785204-3.3164096-1.79492.85742-4.18359z"
      class="ColorScheme-Text" />
</svg> 
