<svg xmlns="http://www.w3.org/2000/svg" viewBox="0 0 22 22">
 <defs id="defs3051">
   <style type="text/css" id="current-color-scheme">
     .ColorScheme-Text {
       color:#4d4d4d;
     }
     </style>
 </defs>
   <path
      style="fill:currentColor;fill-opacity:.4;stroke:none"
      d="m8.1679688 3c-2.0061811 0-3.7226563 1.3601815-3.7226563 3.9550781 0 1.6941365.7858129 3.4140949 1.8261719 4.4765629.4055315 1.06373-.3191026 1.458716-.4707032 1.513671-1.4135385.457109-5.25810375 2.735774-5.19726558 6.054688h9.39843738 5.792969 5.601562c.050852-2.377879-2.230712-3.921759-4.033203-4.541016-.075326-.024635-.551422-.240139-.253906-1.144531h-.003906c.775531-.798745 1.36914-2.084218 1.36914-3.3496092 0-1.9456988-1.295139-2.9648438-2.798828-2.9648438-1.504636 0-2.791015 1.0186713-2.791015 2.9648438 0 1.2706022.588871 2.5625242 1.36914 3.3593752.304149.797798-.239815 1.093549-.353515 1.134765-.117722.038069-.263732.09896-.419922.169922-.95343-.76626-2.058696-1.338731-3.0625-1.683594-.100436-.032846-.7345791-.319534-.337891-1.52539h-.005859c1.034042-1.064994 1.824218-2.7776557 1.824219-4.4648439 0-2.5942649-1.725552-3.9550781-3.7304692-3.9550781z"
      class="ColorScheme-Text" />
</svg> 
