<svg xmlns="http://www.w3.org/2000/svg" viewBox="0 0 22 22">
 <defs id="defs3051">
   <style type="text/css" id="current-color-scheme">
     .ColorScheme-Text {
       color:#4d4d4d;
     }
     </style>
 </defs>
   <path
      style="fill:currentColor;fill-opacity:1;stroke:none"
      d="m11 14.45849a2.4 2.4 0 0 1 -2.4-2.4c0-.896.488-1.68 1.2-2.0879997l7.768-4.4959996-4.424 7.6639993c-.4.784-1.208 1.32-2.144 1.32m0-10.3999993c1.448 0 2.8.4 3.976 1.056l-1.68.968c-.696-.272-1.496-.424-2.296-.424a6.4 6.4 0 0 0 -6.4 6.3999993c0 1.768.712 3.368 1.872 4.52h.008c.312.312.312.816 0 1.128s-.824.312-1.136.008c-1.448-1.448-2.344-3.448-2.344-5.656a8 8 0 0 1 8-7.9999993m8 7.9999993c0 2.208-.896 4.208-2.344 5.656-.312.304-.816.304-1.128-.008s-.312-.816 0-1.128c1.16-1.16 1.872-2.752 1.872-4.52 0-.8-.152-1.6-.432-2.3199997l.968-1.6799996c.664 1.2 1.064 2.5439993 1.064 3.9999993z"
      class="ColorScheme-Text" />
</svg> 
