<svg height="22" width="22" xmlns="http://www.w3.org/2000/svg" xmlns:xlink="http://www.w3.org/1999/xlink">
  <linearGradient id="a" gradientUnits="userSpaceOnUse" x1="399.57144" x2="399.57144" y1="545.79797" y2="517.79797">
    <stop offset="0" stop-color="#3889e9" />
    <stop offset="1" stop-color="#5ea5fb" />
  </linearGradient>
  <linearGradient id="b" gradientUnits="userSpaceOnUse" x1="11.22431701558" x2="10.77567971899" y1="19.22431701706" y2="2.57344517384">
    <stop offset="0" stop-color="#566069" />
    <stop offset="1" stop-color="#6c7884" />
  </linearGradient>
  <g stroke-width="1.3" transform="matrix(1.6383893 0 0 1.6383893 -632.27226 -847.22949)">
    <circle cx="400.57144" cy="531.79797" fill="none" r="13.999958" />
    <circle cx="400.57138" cy="531.79791" fill="url(#a)" r="0" />
  </g>
  <path d="m10.771375 15.170857c.309452 0 .577483-.112976.803435-.339257.226172-.226062.339477-.493984.339477-.803436v-5.7139016c0-.3095614-.113196-.577373-.339477-.8034352-.225952-.2262814-.493873-.3393673-.803435-.3393673-.309561 0-.577373.1131957-.8035451.3393673-.2261716.2260622-.3392574.4939832-.3392574.8034352v5.7139016c0 .309452.1130858.577374.3392574.803436.2261721.226281.4940931.339257.8035451.339257zm8.228625-4.170857c0 4.418275-3.58172 8-7.999994 8-4.418281.000007-8.0000059-3.581719-8.0000059-8 0-4.4182797 3.5817249-8.0000053 8.0000059-7.9999996 4.418274 0 7.999994 3.5817257 7.999994 7.9999996z" fill="url(#b)" stroke-width=".109579" />
</svg>
