<svg height="22" viewBox="0 0 22 22" width="22" xmlns="http://www.w3.org/2000/svg" xmlns:xlink="http://www.w3.org/1999/xlink">
  <linearGradient id="a" gradientUnits="userSpaceOnUse" x1="10.80061615503" x2="10.95005324369" y1="15.23728731675" y2="6.8460956924">
    <stop offset="0" stop-color="#566069" />
    <stop offset="1" stop-color="#6c7884" />
  </linearGradient>
  <path d="m10.345807 11.003523 2.474502-2.474564c.125678-.1256157.188423-.2792291.188423-.4608404 0-.1816115-.06275-.3351624-.188423-.4607781l-.381847-.3819088c-.125553-.1255531-.279166-.1883607-.460715-.1883607-.181611 0-.335162.062807-.46084.1883607l-3.3197513 3.3146883c-.1256156.125616-.1884232.27923-.1884232.460841 0 .181612.062808.335163.1884232.460778l3.3197503 3.314689c.125679.125616.27923.188424.460841.188424.181549 0 .335162-.06281.460715-.188424l.381847-.381846c.125677-.125553.188423-.278354.188423-.458278 0-.179861-.06275-.33435-.188423-.46334zm8.654193-.003527a8.0000008 8.0000008 0 0 1 -8 7.999999 8.0000008 8.0000008 0 0 1 -8-7.99999 8.0000008 8.0000008 0 0 1 8-8.0000005 8.0000008 8.0000008 0 0 1 8 8.0000005z" fill="url(#a)" stroke-width=".062495" />
</svg>
