<svg xmlns="http://www.w3.org/2000/svg" viewBox="0 0 22 22">
  <defs id="defs3051">
    <style type="text/css" id="current-color-scheme">
      .ColorScheme-Text {
        color:#4d4d4d
      }
      </style>
  </defs>
    <path
       style="fill:currentColor;fill-opacity:1;stroke:none"
       class="ColorScheme-Text"
       d="m 11,3 a 7.9999991,7.9999998 0 0 0 -8,8 7.9999991,7.9999998 0 0 0 8,8 7.9999991,7.9999998 0 0 0 8,-8 7.9999991,7.9999998 0 0 0 -8,-8 z m -0.0176,3.67969 c 1.08254,0 2.01562,0.73596 2.01562,2.13672 0,0.91098 -0.428,1.83512 -0.98632,2.41015 l 0.004,0 c -0.21419,0.6511 0.12741,0.80649 0.18164,0.82422 1.29765,0.44582 2.9409,1.55764 2.90429,3.26953 l -8.20312,0 c -0.0328,-1.79202 2.04341,-3.02272 2.80664,-3.26953 0.0819,-0.0297 0.47287,-0.244 0.25391,-0.81836 C 9.39732,10.65875 8.97273,9.73114 8.97273,8.81641 c 0,-1.4011 0.92654,-2.13672 2.00976,-2.13672 z"
       />
</svg>
