<svg height="22" width="22" xmlns="http://www.w3.org/2000/svg" xmlns:xlink="http://www.w3.org/1999/xlink">
  <linearGradient id="a" gradientUnits="userSpaceOnUse" x1="10.90627217114" x2="10.84634099227" y1="16.17128012208" y2="6.06565864947">
    <stop offset="0" stop-color="#42a603" />
    <stop offset="1" stop-color="#78da06" />
  </linearGradient>
  <path d="m11 3a8.0000149 8.0000149 0 0 0 -8 8 8.0000149 8.0000149 0 0 0 8 8 8.0000149 8.0000149 0 0 0 8-8 8.0000149 8.0000149 0 0 0 -8-8zm0 2.9090909c2.820278 0 5.090909 2.2704342 5.090909 5.0909091 0 2.820475-2.270631 5.090909-5.090909 5.090909-2.8202782 0-5.0909091-2.270434-5.0909091-5.090909 0-.59566.075023-1.3209335.2848011-1.7208807.2097782-.399948 1.0832171-.0933466.9879262.3359374-.0952909.4292843-.2698866.9063783-.2698866 1.3849433 0 2.245179 1.8430455 4.088779 4.0880684 4.088779 2.245023 0 4.088068-1.8436 4.088068-4.088779 0-2.2451796-1.843045-4.0887785-4.088068-4.0887785-.478531 0-.920271.096377-1.3643465.2705967-.4440753.17422-.7844844-.821868-.3572444-.9879262.42724-.1660578 1.1259729-.2848011 1.7215909-.2848011zm-3.3245738 1.0021306c.4327142 0 .7791193.3620069.7791193.7642047 0 .4327443-.3464051.7791193-.7791193.7791193-.4021698 0-.7634942-.346375-.7634946-.7791193.0000004-.4021978.3613248-.7642047.7634946-.7642047zm2.306108 1.7975854 3.0546868 2.2911931-3.0546868 2.291193z" fill="url(#a)" />
</svg>
