<svg xmlns="http://www.w3.org/2000/svg" viewBox="0 0 22 22">
  <defs id="defs3051">
    <style type="text/css" id="current-color-scheme">
      .ColorScheme-Text {
        color:#4d4d4d
      }
      </style>
  </defs>
 <path 
     style="fill:currentColor;fill-opacity:1;stroke:none"      
	 class="ColorScheme-Text"
        d="m 15.19013,11.32936 -0.809,0 c -0.2047,0 -0.36989,0.16377 -0.37696,0.36565 -0.16801,1.56146 -1.48945,2.77703 -3.09749,2.77703 -1.72099,0 -3.11446,-1.39204 -3.11446,-3.1102 0,-1.70263 1.40334,-3.08622 3.10176,-3.11021 l 0,0.50543 c 0,0.23013 0.16377,0.33318 0.36425,0.23013 l 2.59632,-1.3285 c 0.20048,-0.10307 0.20048,-0.26967 0,-0.37272 L 11.25823,5.96025 c -0.20048,-0.10305 -0.36425,0 -0.36425,0.22872 l 0,0.50965 c -2.55962,0.024 -4.65897,2.10502 -4.65897,4.66604 0,2.57654 2.09088,4.66602 4.67169,4.66602 2.46786,0 4.48955,-1.91017 4.65895,-4.33283 10e-4,-0.2033 -0.16942,-0.36849 -0.37552,-0.36849 z M 19,11 a 7.9999988,7.9999988 0 0 1 -8,8 7.9999988,7.9999988 0 0 1 -8,-8 7.9999988,7.9999988 0 0 1 8,-8 7.9999988,7.9999988 0 0 1 8,8 z"
     />
</svg>
