<svg xmlns="http://www.w3.org/2000/svg" viewBox="0 0 22 22">
 <defs id="defs3051">
   <style type="text/css" id="current-color-scheme">
     .ColorScheme-Text {
       color:#4d4d4d;
     }
     </style>
 </defs>
   <path
      style="fill:currentColor;fill-opacity:1;stroke:none"
      d="m19 11a7.9999977 7.9999977 0 0 1 -7.999994 8 7.9999977 7.9999977 0 0 1 -8.000006-8 7.9999977 7.9999977 0 0 1 8.000006-8 7.9999977 7.9999977 0 0 1 7.999994 8zm-3.67212-1.756251c-.337874-.675583-.81304-1.242155-1.425737-1.699549-.176229-.134286-.375572-.186749-.598012-.157389-.222445.02937-.398685.134286-.528794.314698-.134286.176222-.185657.374491-.154217.59484.03131.22044.135366.397668.3116.531948.41112.310532.729206.690354.953577 1.139406.224526.448977.33672.927463.33672 1.43516 0 .436526-.08499.852977-.254897 1.249577-.169977.396583-.39976.739634-.689337 1.029217-.289583.289497-.632554.519274-1.029143.689263-.396594.169977-.813114.25504-1.249571.25504-.436383 0-.852903-.08506-1.2494976-.25504-.3965885-.169983-.7396343-.39976-1.0292228-.689263-.2895029-.289583-.51928-.63264-.6892572-1.029217-.1699828-.396589-.2549714-.813046-.2549714-1.249577 0-.507697.1122629-.986109.3367943-1.43516.2245257-.448972.5423828-.828794.9536571-1.139406.1762343-.134354.2800743-.311577.3116-.531948.0314286-.220275-.0199428-.418618-.1542171-.59484-.1301086-.180418-.3052629-.285338-.5256229-.314698-.2203543-.029371-.4207714.023086-.6011828.157389-.6127715.457394-1.0879372 1.02396-1.4258057 1.699549-.3378743.675668-.5067715 1.395377-.5067715 2.159114 0 .65472.1280286 1.279931.3839943 1.875868.2560514.595938.6001086 1.109955 1.0323886 1.542252.4322114.432206.94632.776406 1.5422457 1.032234.5959371.256046 1.221223.384149 1.875869.384149.654645 0 1.279937-.128103 1.875868-.384149.595926-.255897 1.110034-.600028 1.54224-1.032234.432206-.432212.776263-.94632 1.032309-1.542252.255977-.595931.383925-1.221217.383925-1.875868 0-.763737-.168668-1.483446-.506537-2.159114zm-4.327926 2.159194c.218189 0 .407177-.07966.566492-.239206.159463-.159394.23936-.348303.23936-.566486v-4.0288c0-.218274-.07981-.407102-.23936-.566491-.15932-.159549-.348223-.23928-.566492-.23928-.218263 0-.407097.07981-.566565.23928-.159469.159394-.2392.348297-.2392.566491v4.0288c0 .218178.07973.407098.2392.566486.159468.159554.348377.239206.566565.239206z"
      class="ColorScheme-Text" />
</svg> 
