<svg xmlns="http://www.w3.org/2000/svg" viewBox="0 0 22 22">
 <defs id="defs3051">
   <style type="text/css" id="current-color-scheme">
     .ColorScheme-Text {
       color:#4d4d4d;
     }
     </style>
 </defs>
   <path
      style="fill:currentColor;fill-opacity:1;stroke:none"
      d="m13.61028 10.25893h-4.4944v-1.11933c0-.99985.81342-1.81326 1.81326-1.81326.81639 0 1.53597.54935 1.7499 1.33592.0701.25773.33586.40982.59364.33978.25777-.0701.40988-.33588.33977-.59366-.32817-1.20666-1.43157-2.04941-2.68331-2.04941-1.53324 0-2.7806 1.24739-2.7806 2.7806v1.12974c-.21913.046-.38423.24067-.38423.47329v4.23327c0 .26669.21698.48367.48367.48367h5.3623c.26669 0 .48367-.21698.48367-.48367v-4.23327c0-.26672-.21698-.48367-.48367-.48367zm5.38972.74107c0 4.41828-3.58172 8-8 8s-8-3.58172-8-8 3.58172-8 8-8 8 3.58172 8 8z"
      class="ColorScheme-Text" />
</svg> 
