<svg height="22" width="22" xmlns="http://www.w3.org/2000/svg" xmlns:xlink="http://www.w3.org/1999/xlink">
  <linearGradient id="a" gradientUnits="userSpaceOnUse" x1="10.906573" x2="10.846711" xlink:href="#c" y1="16.165311" y2="6.071353" />
  <linearGradient id="b" gradientUnits="userSpaceOnUse" x1="11.151042" x2="11.03941" xlink:href="#c" y1="19.046598" y2="3.001014" />
  <linearGradient id="c">
    <stop offset="0" stop-color="#566069" />
    <stop offset="1" stop-color="#6c7884" />
  </linearGradient>
  <path d="m15.1853 11.328976h-.808063c-.204468 0-.369468.163581-.376528.365228-.167821 1.559663-1.487735 2.77384-3.093924 2.77384-1.7190044 0-3.1108648-1.390441-3.1108648-3.106624 0-1.7006628 1.4017222-3.0826614 3.0981818-3.1066254v.5048458c0 .2298691.163582.3328037.363828.2298691l2.593336-1.3269731c.200246-.1029527.200246-.2693546 0-.3722887l-2.593336-1.3241895c-.200246-.1029345-.363828 0-.363828.2284494v.509067c-2.5566712.023982-4.6536044 2.1025927-4.6536044 4.6606654 0 2.573575 2.0884717 4.660647 4.6663054 4.660647 2.465019 0 4.484384-1.907969 4.653587-4.327844.0014-.203066-.169222-.368067-.37509-.368067zm3.805483-.328976a7.990782 7.990782 0 0 1 -7.990783 7.990783 7.990782 7.990782 0 0 1 -7.9907829-7.990783 7.990782 7.990782 0 0 1 7.9907829-7.9907833 7.990782 7.990782 0 0 1 7.990783 7.9907833z" fill="url(#a)" stroke="url(#b)" stroke-width=".018434" />
</svg>
