<?xml version="1.0" encoding="UTF-8" standalone="no"?>
<svg
   xmlns:dc="http://purl.org/dc/elements/1.1/"
   xmlns:cc="http://creativecommons.org/ns#"
   xmlns:rdf="http://www.w3.org/1999/02/22-rdf-syntax-ns#"
   xmlns:svg="http://www.w3.org/2000/svg"
   xmlns="http://www.w3.org/2000/svg"
   xmlns:sodipodi="http://sodipodi.sourceforge.net/DTD/sodipodi-0.dtd"
   xmlns:inkscape="http://www.inkscape.org/namespaces/inkscape"
   viewBox="0 0 22 22"
   id="svg3197"
   version="1.1"
   inkscape:version="0.91 r13725"
   sodipodi:docname="tab-new-background.svg">
  <metadata
     id="metadata3205">
    <rdf:RDF>
      <cc:Work
         rdf:about="">
        <dc:format>image/svg+xml</dc:format>
        <dc:type
           rdf:resource="http://purl.org/dc/dcmitype/StillImage" />
      </cc:Work>
    </rdf:RDF>
  </metadata>
  <sodipodi:namedview
     pagecolor="#ffffff"
     bordercolor="#666666"
     borderopacity="1"
     objecttolerance="10"
     gridtolerance="10"
     guidetolerance="10"
     inkscape:pageopacity="0"
     inkscape:pageshadow="2"
     inkscape:window-width="640"
     inkscape:window-height="480"
     id="namedview3203"
     showgrid="false"
     inkscape:zoom="28.954545"
     inkscape:cx="4.8524333"
     inkscape:cy="11"
     inkscape:current-layer="svg3197" />
  <defs
     id="defs3051">
    <style
       type="text/css"
       id="current-color-scheme">
      .ColorScheme-Text {
        color:#4d4d4d
      }
      </style>
  </defs>
  <path
     style="color:#4d4d4d;fill:currentColor;fill-opacity:1;stroke:none"
     d="M 5.6660156 5.5546875 C 4.8075 6.4883586 3.9238222 7.9853192 3 9.1113281 L 3 9.4667969 L 3 9.6445312 L 3 10.888672 L 3 17.644531 C 3 17.841509 3.158491 18 3.3554688 18 L 18.644531 18 C 18.841509 18 19 17.841509 19 17.644531 L 19 9.4667969 L 19 9.1113281 C 18.076178 7.9853192 17.1925 6.4883586 16.333984 5.5546875 L 14.554688 5.5546875 L 14.134766 5.5546875 L 12.777344 5.5546875 C 12.198428 6.1842786 11.606587 7.0687526 11 7.9238281 C 10.393413 7.0687526 9.8015719 6.1842786 9.2226562 5.5546875 L 7.8652344 5.5546875 L 7.4453125 5.5546875 L 5.6660156 5.5546875 z M 14.726562 12.224609 C 14.759963 12.234609 14.790559 12.256409 14.818359 12.287109 L 15.205078 12.699219 L 15.591797 12.287109 C 15.647197 12.227609 15.714519 12.206716 15.792969 12.228516 C 15.871369 12.248416 15.920323 12.301567 15.939453 12.382812 L 16.076172 12.939453 L 16.611328 12.783203 C 16.689728 12.759403 16.755127 12.777804 16.810547 12.839844 C 16.869847 12.897344 16.888234 12.967528 16.865234 13.048828 L 16.712891 13.601562 L 17.253906 13.744141 C 17.330406 13.764041 17.379414 13.815101 17.402344 13.896484 C 17.421444 13.979784 17.403103 14.049919 17.345703 14.105469 L 16.949219 14.505859 L 17.345703 14.908203 C 17.403103 14.963703 17.421444 15.033857 17.402344 15.117188 C 17.379444 15.198488 17.330473 15.247738 17.253906 15.267578 L 16.712891 15.410156 L 16.865234 15.962891 C 16.888134 16.044191 16.870237 16.114315 16.810547 16.171875 C 16.755047 16.233375 16.689788 16.252316 16.611328 16.228516 L 16.076172 16.070312 L 15.939453 16.630859 C 15.920453 16.710159 15.871354 16.761346 15.792969 16.785156 C 15.770069 16.789156 15.751681 16.791016 15.738281 16.791016 C 15.679081 16.791016 15.630047 16.770163 15.591797 16.726562 L 15.205078 16.314453 L 14.818359 16.726562 C 14.764859 16.786062 14.697508 16.805056 14.617188 16.785156 C 14.538787 16.763456 14.489823 16.712276 14.470703 16.630859 L 14.332031 16.070312 L 13.798828 16.228516 C 13.720428 16.252316 13.653116 16.235818 13.597656 16.173828 C 13.538356 16.116328 13.522022 16.046174 13.544922 15.964844 L 13.695312 15.410156 L 13.158203 15.267578 C 13.081703 15.247778 13.030733 15.198577 13.007812 15.117188 C 12.988812 15.033888 13.009016 14.963763 13.066406 14.908203 L 13.460938 14.505859 L 13.066406 14.105469 C 13.009006 14.049969 12.988713 13.979784 13.007812 13.896484 C 13.030712 13.815184 13.081732 13.763961 13.158203 13.744141 L 13.695312 13.601562 L 13.544922 13.048828 C 13.522022 12.967528 13.537616 12.897364 13.597656 12.839844 C 13.653156 12.778344 13.720418 12.759403 13.798828 12.783203 L 14.332031 12.941406 L 14.470703 12.382812 C 14.489703 12.301512 14.538813 12.248346 14.617188 12.228516 C 14.656387 12.216616 14.693078 12.215399 14.726562 12.224609 z "
     id="path3201" />
</svg>
