<svg xmlns="http://www.w3.org/2000/svg" viewBox="0 0 22 22">
 <defs id="defs3051">
   <style type="text/css" id="current-color-scheme">
     .ColorScheme-Text {
       color:#4d4d4d;
     }
     </style>
 </defs>
   <path
      style="fill:currentColor;fill-opacity:1;stroke:none"
      d="m12.002504 3.090475c-.73757 0-1.76766.41876-2.2891403.93019l-6.23177 6.11129c-.52149.5114-.52149 1.34703 0 1.85844l4.80798 4.71503c.52149.51143 1.37555.51143 1.8970603 0l1.37229-1.34577c.0324 1.97051 1.656 3.54987 3.67332 3.54987 2.0377 0 3.67728-1.60982 3.67728-3.60813 0-1.97898-1.60959-3.56967-3.61985-3.60035l1.12675-1.10497c.52148-.51143.94853-1.52165.94853-2.24488v-3.94602c-.00003-.72326-.6031-1.3147-1.34062-1.3147h-4.02183zm2.23963 1.74969c.73912 0 1.33863.58792 1.33863 1.31275s-.59951 1.31275-1.33863 1.31275-1.33863-.58789-1.33863-1.31275c0-.72483.59951-1.31275 1.33863-1.31275zm1.51289 8.02022.004.002c.077.0174.12743.0886.11485.16507l-.33862 2.05651c.0492.0629.0809.13878.0911.22138l1.13269.88553c.0624.0487.0771.13642.0337.20196l-.002.002c-.0434.0656-.12927.0885-.20001.0524l-1.28516-.65638c-.0433.0131-.089.0233-.13664.0233-.25561 0-.46337-.20374-.46337-.45442 0-.17754.10577-.33108.25743-.40586l.61387-1.99243c.0229-.0742.10125-.11844.17822-.10098z"
      class="ColorScheme-Text" />
</svg> 
