<svg xmlns="http://www.w3.org/2000/svg" viewBox="0 0 22 22">
  <defs id="defs3051">
    <style type="text/css" id="current-color-scheme">
      .ColorScheme-Text {
        color:#4d4d4d
      }
      </style>
  </defs>
 <path 
     style="fill:currentColor;fill-opacity:1;stroke:none"      
	 class="ColorScheme-Text"
        d="M 11 3.3417969 A 7.6575441 7.6575437 0 0 0 3.3417969 11 A 7.6575441 7.6575437 0 0 0 11 18.658203 A 7.6575441 7.6575437 0 0 0 18.658203 11 A 7.6575441 7.6575437 0 0 0 11 3.3417969 z M 8.3359375 7.1113281 C 8.9814315 7.1113281 9.5058594 7.63545 9.5058594 8.28125 C 9.5058594 8.92735 8.9814315 9.4511719 8.3359375 9.4511719 C 7.6902555 9.4511719 7.1660156 8.92735 7.1660156 8.28125 C 7.1660156 7.63555 7.6902555 7.1113281 8.3359375 7.1113281 z M 13.638672 7.1113281 C 14.284165 7.1113281 14.806641 7.63545 14.806641 8.28125 C 14.806641 8.92735 14.284354 9.4511719 13.638672 9.4511719 C 12.99299 9.4511719 12.46875 8.92735 12.46875 8.28125 C 12.46875 7.63555 12.99299 7.1113281 13.638672 7.1113281 z M 10.998047 11.568359 C 12.89964 11.568359 14.597571 12.652325 15.322266 14.328125 C 15.446348 14.614825 15.313979 14.946013 15.027344 15.070312 C 14.74071 15.194513 14.407286 15.062191 14.283203 14.775391 C 13.737843 13.513891 12.448191 12.699219 10.998047 12.699219 C 9.5143346 12.699219 8.2170334 13.514591 7.6933594 14.775391 C 7.6030314 14.993191 7.39364 15.123047 7.171875 15.123047 C 7.099462 15.123047 7.0259781 15.109078 6.9550781 15.080078 C 6.6663661 14.960178 6.5285035 14.630097 6.6484375 14.341797 C 7.3480525 12.657397 9.0555316 11.568359 10.998047 11.568359 z "
     />
</svg>
