<svg xmlns="http://www.w3.org/2000/svg" viewBox="0 0 22 22">
 <defs id="defs3051">
   <style type="text/css" id="current-color-scheme">
     .ColorScheme-Text {
       color:#4d4d4d;
     }
     </style>
 </defs>
   <path
      style="fill:currentColor;fill-opacity:1;stroke:none"
      d="m4 3a1 .99999851 0 0 0 -1 1 1 .99999851 0 0 0 1 1 1 .99999851 0 0 0 1-1 1 .99999851 0 0 0 -1-1zm4 0a1 1 0 0 0 -1 1 1 1 0 0 0 1 1 1 1 0 0 0 1-1 1 1 0 0 0 -1-1zm4 1a1 1 0 0 0 -1 1 1 1 0 0 0 1 1 1 1 0 0 0 1-1 1 1 0 0 0 -1-1zm3.5 0a1.5 1.5 0 0 0 -1.5 1.5v1.5h-1v2h-1v10h7v-10h-1v-2h-1v-1.5a1.5 1.5 0 0 0 -1.5-1.5zm-11.5 2a .99999791 1 0 0 0 -1 1 .99999791 1 0 0 0 1 1 .99999791 1 0 0 0 1-1 .99999791 1 0 0 0 -1-1zm4 0a1 1 0 0 0 -1 1 1 1 0 0 0 1 1 1 1 0 0 0 1-1 1 1 0 0 0 -1-1zm-4 3a .99999791 1 0 0 0 -1 1 .99999791 1 0 0 0 1 1 .99999791 1 0 0 0 1-1 .99999791 1 0 0 0 -1-1z"
      class="ColorScheme-Text" />
</svg> 
