<svg xmlns="http://www.w3.org/2000/svg" viewBox="0 0 22 22">
 <defs id="defs3051">
   <style type="text/css" id="current-color-scheme">
     .ColorScheme-Text {
       color:#4d4d4d;
     }
     </style>
 </defs>
   <path
      style="fill:currentColor;fill-opacity:1;stroke:none"
      d="m15.576172 3c-.635301 0-1.219391.1556329-1.75586.46875-.536524.3130612-.962273.7388662-1.27539 1.2753906-.313173.5365244-.46875 1.1225681-.46875 1.7578125 0 .6353004.155689 1.2212322.46875 1.7578125.313117.5364125.738866.9603204 1.27539 1.2734375.536525.3131172 1.120559.4707029 1.75586.4707029.6353 0 1.221344-.1575857 1.757812-.4707029.536469-.3130611.962274-.7369691 1.275391-1.2734375.313061-.5365244.46875-1.1225681.46875-1.7578125 0-.6353004-.155745-1.2213441-.46875-1.7578125-.313117-.5364684-.738922-.9622735-1.275391-1.2753906-.53658-.3131171-1.122456-.46875-1.757812-.46875zm-9.1523439.0039062c-.6353004 0-1.2213441.1556329-1.7578125.46875-.5365244.3130612-.9622735.7388663-1.2753906 1.2753907-.3131731.5365244-.46875 1.1225681-.46875 1.7578125 0 .6353004.1556888 1.2212321.46875 1.7578125.3131171.5364124.7388662.9603203 1.2753906 1.2734375.5365244.3131171 1.1225121.4707026 1.7578125.4707026s1.2213441-.1575855 1.7578125-.4707026c.5364684-.3130612.9603204-.7369691 1.2734375-1.2734375.3130612-.5365244.46875-1.1225681.46875-1.7578125 0-.6353004-.1557448-1.2213441-.46875-1.7578125-.3131171-.5364684-.7369691-.9622735-1.2734375-1.2753907-.5365803-.3131171-1.1224561-.4687499-1.7578125-.46875zm9.0605469 8.9433598c-.6353 0-1.221344.157586-1.757813.470703-.536524.313061-.962273.736913-1.27539 1.273437-.313173.536525-.46875 1.122568-.46875 1.757813 0 .6353.155689 1.221232.46875 1.757812.313117.536413.738866.962274 1.27539 1.275391.536525.313117 1.120559.46875 1.75586.46875.6353 0 1.221344-.155633 1.757812-.46875.536469-.313061.962274-.738922 1.275391-1.275391.313061-.536524.46875-1.122568.46875-1.757812 0-.635301-.155745-1.221344-.46875-1.757813-.313117-.536468-.738922-.96032-1.275391-1.273437-.53658-.313117-1.120503-.470703-1.755859-.470703zm-8.9863281.048828c-.6353004 0-1.2213441.157586-1.7578125.470703-.5365244.313061-.9603204.736913-1.2734375 1.273437-.3131731.536525-.4707032 1.122568-.4707031 1.757813 0 .6353.1576419 1.221232.4707031 1.757812.3131171.536413.7369131.962274 1.2734375 1.275391s1.1225121.46875 1.7578125.46875 1.2213441-.155633 1.7578125-.46875c.5364684-.313061.9603203-.738922 1.2734375-1.275391.3130611-.536524.4707031-1.122568.4707031-1.757812 0-.635301-.1576979-1.221344-.4707031-1.757813-.3131172-.536468-.7369691-.96032-1.2734375-1.273437-.5365804-.313117-1.1224562-.470703-1.7578125-.470703z"
      class="ColorScheme-Text" />
</svg> 
