<svg xmlns="http://www.w3.org/2000/svg" viewBox="0 0 22 22">
 <defs id="defs3051">
   <style type="text/css" id="current-color-scheme">
     .ColorScheme-Text {
       color:#4d4d4d;
     }
     </style>
 </defs>
   <path
      style="fill:currentColor;fill-opacity:1;stroke:none"
      d="m6.459971 3c-.619206 0-1.1899818.1575067-1.7128547.4706978-.522933.3131377-.9356814.7367803-1.2408753 1.273438-.3052273.5366511-.458662 1.1224132-.458662 1.7578142 0 .635454.1535348 1.221102.458662 1.757813.3051872.536545.7179423.962203 1.2408753 1.275394.5229263.313198 1.0936554.470698 1.7128547.470698.6192061 0 1.1918911-.1575 1.714764-.470698.5228729-.313137.9356881-.738796 1.2408753-1.275394.3051272-.536657.458662-1.122413.458662-1.757813 0-.6354544-.1535949-1.2212165-.458662-1.7578142-.3051939-.5366042-.7179957-.9602403-1.2408753-1.273438-.5229864-.3131911-1.0955045-.4706978-1.714764-.4706978zm5.717144.6230444c-.425278 0-.782207.3643249-.782207.8007777v.1992215c0 .4364461.356929.7988284.782207.7988284h6.044494c.425277 0 .778394-.3623823.778394-.7988284v-.1992215c0-.4364528-.353117-.8007777-.778394-.8007777zm0 4.0019526c-.425278 0-.782207.366281-.782207.802734v.199221c0 .436446.356929.798829.782207.798829h6.044494c.425277 0 .778394-.362383.778394-.798829v-.199221c0-.436453-.353117-.802734-.778394-.802734zm-5.7628172 4.369141c-.6192061 0-1.1918844.157514-1.714764.470705-.522933.313137-.9356814.738736-1.2408686 1.275394-.305234.536651-.4586687 1.122406-.4586687 1.757813 0 .635454.1535415 1.221096.4586687 1.757807.3051805.536545.7179356.960247 1.2408686 1.273439.5229264.313197 1.0955579.470704 1.714764.470704.619206 0 1.1899818-.157507 1.7128614-.470704.522873-.313138.9356881-.736841 1.2408687-1.273439.3051271-.536657.4586686-1.122406.4586686-1.757807 0-.635454-.1535949-1.221216-.4586686-1.757813-.3051873-.536605-.7179891-.962197-1.2408687-1.275394-.5229864-.313191-1.0936087-.470705-1.7128614-.470705zm5.7628172.634767c-.425278 0-.782207.364331-.782207.800784v.201171c0 .436446.356929.798828.782207.798828h3.119308c.425291 0 .7784-.362382.7784-.798828v-.201171c0-.436453-.353109-.800784-.7784-.800784zm0 4.003908c-.425278 0-.782207.364332-.782207.800784v.199215c0 .436446.356929.798829.782207.798829h3.119308c.425291 0 .7784-.362383.7784-.798829v-.199215c0-.436452-.353109-.800784-.7784-.800784z"
      class="ColorScheme-Text" />
</svg> 
