<svg xmlns="http://www.w3.org/2000/svg" viewBox="0 0 22 22">
 <defs id="defs3051">
   <style type="text/css" id="current-color-scheme">
     .ColorScheme-Text {
       color:#4d4d4d;
     }
     </style>
 </defs>
   <path
      style="fill:currentColor;fill-opacity:1;stroke:none"
      d="m4 3c-.55402 0-1 .44598-1 1v14c0 .55402.44598 1 1 1h14c .55402 0 1-.44598 1-1v-14c0-.55402-.44598-1-1-1zm10.28516 3c .0901 0 .17633.0358.24023.0996l1.375 1.375c.133.13304.133.34743 0 .48047l-.76758.76758-1.85547-1.85547.76758-.76758c.0639-.0639.15009-.0996.24024-.0996zm-1.24805 1.10742 1.85547 1.85547-.26563.26758-1.85547-1.85742zm-.50781.50781 1.85742 1.85547-.26758.26563-1.85547-1.85547zm-.50782.50586 1.85743 1.85743-5.22852 5.22851c-.0372.0373-.0827.0651-.13281.082l-2.06836.69336c-.0356.012-.0712.0176-.10742.0176-.0888 0-.17739-.0347-.24219-.0996-.0915-.0915-.12292-.22686-.082-.34961l.69336-2.06836c.0169-.0498.0448-.0955.082-.13281z"
      class="ColorScheme-Text" />
</svg> 
