<svg xmlns="http://www.w3.org/2000/svg" viewBox="0 0 22 22">
 <defs id="defs3051">
   <style type="text/css" id="current-color-scheme">
     .ColorScheme-Text {
       color:#4d4d4d;
     }
     </style>
 </defs>
   <path
      style="fill:currentColor;fill-opacity:1;stroke:none"
      d="m4.67882 3.88889c-.43772 0-.78993.31785-.78993.71181v12.79861c0 .39395.35221.7118.78993.7118h12.64236c.43773 0 .78993-.31785.78993-.7118v-12.79861c0-.39396-.3522-.71181-.78993-.71181zm6.00174 3.55556c.15236.0269.26562.16998.26562.36111l-.0139 4.96875c-.0502.37087-.36608.72293-.82292.84722-.57262.15579-1.13593-.10431-1.25868-.56944-.12275-.46514.2364-.96748.80903-1.12327.31732-.0863.6228-.0334.86111.0972v-3.01216l-2.96875.8316-.0139 3.81771c-.0502.37081-.36434.72298-.82118.84722-.57262.15579-1.13767-.10436-1.26041-.56944-.12276-.46519.23639-.96922.80902-1.125.31734-.0863.62278-.0334.86111.0972v-4.0382c0-.25481.19033-.51736.42535-.58333l3.12848-.84722zm1.60069.88889h4c .15829 0 .28646.16916.28646.38021 0 .21104-.12817.38194-.28646.38194h-4c-.15828 0-.28472-.1709-.28472-.38194 0-.21105.12644-.38021.28472-.38021zm0 1.5243h4c .15829 0 .28646.16916.28646.38021s-.12817.38195-.28646.38195h-4c-.15828 0-.28472-.1709-.28472-.38195s.12644-.38021.28472-.38021zm0 1.52257h4c .15829 0 .28646.1709.28646.38195 0 .21104-.12817.3802-.28646.3802h-4c-.15828 0-.28472-.16916-.28472-.3802 0-.21105.12644-.38195.28472-.38195zm0 1.52431h4c .15829 0 .28646.17089.28646.38194s-.12817.38021-.28646.38021h-4c-.15828 0-.28472-.16916-.28472-.38021s.12644-.38194.28472-.38194z"
      class="ColorScheme-Text" />
</svg> 
