<svg xmlns="http://www.w3.org/2000/svg" viewBox="0 0 22 22">
 <defs id="defs3051">
   <style type="text/css" id="current-color-scheme">
     .ColorScheme-Text {
       color:#4d4d4d;
     }
     </style>
 </defs>
   <path
      style="fill:currentColor;fill-opacity:1;stroke:none"
      d="m4 3c-.5540164 0-1 .4459836-1 1v14c0 .554016.4459836 1 1 1h14c .554016 0 1-.445984 1-1v-14c0-.5540164-.445984-1-1-1zm6.998047 3.2539062c.351569 0 .634765.3027272.634765.6777344v5.1152344c0 .375007-.283196.675781-.634765.675781s-.634766-.300774-.634766-.675781v-5.1152344c0-.3750072.283197-.6777344.634766-.6777344zm.001953 7.6699218c.252438 0 .466886.08798.644531.265625.177625.177645.267578.392093.267578.644531 0 .252439-.089933.46884-.267578.646485-.177645.177624-.392093.265625-.644531.265625s-.466886-.08798-.644531-.265625c-.177625-.177645-.267578-.394046-.267578-.646485 0-.252438.089933-.466886.267578-.644531.177645-.177625.392093-.265625.644531-.265625z"
      class="ColorScheme-Text" />
</svg> 
