<svg xmlns="http://www.w3.org/2000/svg" viewBox="0 0 22 22">
 <defs id="defs3051">
   <style type="text/css" id="current-color-scheme">
     .ColorScheme-Text {
       color:#4d4d4d;
     }
     </style>
 </defs>
   <path
      style="fill:currentColor;fill-opacity:1;stroke:none"
      d="m16.32422 2.99987c-.50824 0-.97708.12451-1.40625.375-.42922.25045-.76904.59031-1.01953 1.01953-.25054.42922-.375.89806-.375 1.40625 0 .50824.12455.97699.375 1.40625.25049.42913.59031.76904 1.01953 1.01953.42922.2505.89801.37696 1.40625.37696s.97707-.12646 1.40625-.37696c.42917-.25045.76904-.59035 1.01953-1.01953.25045-.42922.375-.89805.375-1.40625 0-.50824-.1246-.97707-.375-1.40625-.25049-.42917-.59036-.76904-1.01953-1.01953-.42927-.25049-.89797-.375-1.40625-.375zm-10.52344.004c-.50824 0-.97707.12451-1.40625.375-.42922.25045-.76904.59031-1.01953 1.01953-.25054.42922-.375.89805-.375 1.40625 0 .50824.12455.97698.375 1.40625.25049.42913.59031.76903 1.01953 1.01953.42922.25049.89801.375 1.40625.375s.97708-.12451 1.40625-.375c.42918-.25045.76904-.59036 1.01953-1.01953.25045-.42922.375-.89806.375-1.40625 0-.50824-.12459-.97708-.375-1.40625-.25049-.42918-.59035-.76904-1.01953-1.01953-.42926-.2505-.89796-.375-1.40625-.375zm5.26172 5.19531c-.50824 0-.97708.1245-1.40625.375-.42922.25045-.76904.59031-1.01953 1.01953-.25054.42922-.375.89805-.375 1.40625 0 .50824.12455.97699.375 1.40625.25049.42913.59031.76904 1.01953 1.01953.42922.2505.89801.375 1.40625.375s.97708-.1245 1.40625-.375c.42917-.25045.76904-.59035 1.01953-1.01953.25045-.42922.375-.89805.375-1.40625 0-.50824-.1246-.97707-.375-1.40625-.25049-.42917-.59036-.76904-1.01953-1.01953-.42926-.2505-.89797-.375-1.40625-.375zm5.1875 5.1582c-.50824 0-.97708.12646-1.40625.37696-.42922.25044-.76904.59031-1.01953 1.01953-.25054.42922-.37695.89805-.37695 1.40625 0 .50824.1265.97698.37695 1.40625.25049.42913.59031.76903 1.01953 1.01953.42922.25049.89801.375 1.40625.375s.97708-.12451 1.40625-.375c.42917-.25045.76904-.59036 1.01953-1.01953.25045-.42922.375-.89806.375-1.40625 0-.50824-.1246-.97708-.375-1.40625-.25049-.42918-.59036-.76904-1.01953-1.01953-.42926-.2505-.89797-.37696-1.40625-.37696zm-10.38867.0391c-.50824 0-.97708.12646-1.40625.37696-.42922.25044-.76904.59031-1.01953 1.01953-.25054.42922-.37696.89805-.37696 1.40625 0 .50824.12651.97698.37696 1.40625.25049.42913.59031.76903 1.01953 1.01953.42922.25049.89801.375 1.40625.375s.97707-.12451 1.40625-.375c.42917-.25045.76904-.59036 1.01953-1.01953.25045-.42922.375-.89806.375-1.40625 0-.50824-.1246-.97708-.375-1.40625-.25049-.42918-.59036-.76904-1.01953-1.01953-.42927-.2505-.89797-.37696-1.40625-.37696z"
      class="ColorScheme-Text" />
</svg> 
