<svg xmlns="http://www.w3.org/2000/svg" viewBox="0 0 22 22">
  <defs id="defs3051">
    <style type="text/css" id="current-color-scheme">
      .ColorScheme-Text {
        color:#4d4d4d
      }
      </style>
  </defs>
    <path
       style="fill:currentColor;fill-opacity:1;stroke:none"
       class="ColorScheme-Text"
       d="m 11,4.5 c -4.4116446,0 -8.2131073,2.5869016 -9.9597315,6.319331 -0.053692,0.113081 -0.053692,0.2461 0,0.361338 C 2.7868928,14.913068 6.5883864,17.5 11,17.5 c 4.411615,0 8.213093,-2.586917 9.959733,-6.319331 0.05369,-0.113081 0.05369,-0.2461 0,-0.361338 C 19.213093,7.0869016 15.41163,4.5 11,4.5 Z m 0,2.0183764 c 2.491192,0 4.508153,2.0080782 4.508153,4.4835666 0,2.475474 -2.0191,4.483567 -4.508153,4.483567 -2.4912046,0 -4.5081517,-2.008093 -4.5081517,-4.483567 0,-2.4776154 2.0191001,-4.4835666 4.5081517,-4.4835666 z m 0,1.6104288 A 2.8860171,2.8702778 0 0 0 8.1130574,10.998057 2.8860171,2.8702778 0 0 0 11,13.869252 2.8860171,2.8702778 0 0 0 13.886928,10.998057 2.8860171,2.8702778 0 0 0 11,8.1288052 Z"
        />
</svg>
