<svg xmlns="http://www.w3.org/2000/svg" viewBox="0 0 22 22">
 <defs id="defs3051">
   <style type="text/css" id="current-color-scheme">
     .ColorScheme-Text {
       color:#4d4d4d;
     }
     </style>
 </defs>
   <path
      style="fill:currentColor;fill-opacity:1;stroke:none"
      d="m11 4.5c-4.4116446 0-8.2131073 2.5869016-9.9597315 6.319331-.053692.113081-.053692.2461 0 .361338 1.7466243 3.732399 5.5481179 6.319331 9.9597315 6.319331 4.411615 0 8.213093-2.586917 9.959733-6.319331.05369-.113081.05369-.2461 0-.361338-1.74664-3.7324294-5.548103-6.319331-9.959733-6.319331zm0 2.0183764c2.491192 0 4.508153 2.0080782 4.508153 4.4835666 0 2.475474-2.0191 4.483567-4.508153 4.483567-2.4912046 0-4.5081517-2.008093-4.5081517-4.483567 0-2.4776154 2.0191001-4.4835666 4.5081517-4.4835666zm0 1.6104288a2.8860171 2.8702778 0 0 0 -2.8869426 2.8692518 2.8860171 2.8702778 0 0 0 2.8869426 2.871195 2.8860171 2.8702778 0 0 0 2.886928-2.871195 2.8860171 2.8702778 0 0 0 -2.886928-2.8692518z"
      class="ColorScheme-Text" />
</svg> 
