<svg xmlns="http://www.w3.org/2000/svg" viewBox="0 0 22 22">
 <defs id="defs3051">
   <style type="text/css" id="current-color-scheme">
     .ColorScheme-Text {
       color:#4d4d4d;
     }
     </style>
 </defs>
   <path
      style="fill:currentColor;fill-opacity:1;stroke:none"
      d="m-2.3134141-.5863423c-.2721705 0-.5232383.066675-.7530683.2008181-.2298531.1341193-.4125282.3168183-.5466715.5466718-.134167.2298533-.2008181.4809217-.2008181.753068 0 .2721704.066699.5231906.2008181.7530681.1341433.2298056.3168184.4114129.5466715.5455561.229854.1341431.4808978.2008181.7530683.2008181s.5232383-.066675.7530683-.2008181c.2298293-.1341192.4114125-.3157265.5455553-.5455561.1341195-.2298535.2008185-.4809217.2008185-.7530681 0-.2721703-.06672-.5232386-.2008185-.753068-.1341428-.2298297-.315726-.4125286-.5455553-.5466718-.2298773-.1341431-.4808738-.2008181-.7530683-.2008181z"
      class="ColorScheme-Text" transform="matrix(1.3333333 0 0 1.3333333 14.085296 3.78179)"/>
   <path
      style="fill:currentColor;fill-opacity:1;stroke:none"
      d="m-6.8145298-.5863421c-.2721702.0000018-.5221229.0677672-.7519525.2018604-.2298534.1340692-.4125284.3155849-.5466715.5453528-.1341672.229768-.2008182.4807427-.2008182.7527876 0 .272069.066699.5229959.2008182.7527877.1341431.22972.3157024.4112596.5455559.5453529.2298536.1340931.4808979.2018586.7530681.2018586.2721703 0 .5232385-.067766.753068-.2018586.2298295-.1340693.4125285-.3156089.5466716-.5453529.1341192-.2297679.2008182-.4807426.2008182-.7527877 0-.2720689-.066723-.5230436-.2008182-.7527876-.1341431-.2297439-.3168421-.4112596-.5466716-.5453528-.2298774-.1340932-.4808737-.2018586-.753068-.2018586z"
      class="ColorScheme-Text" transform="matrix(1.3333333 0 0 1.3333333 14.085296 3.78179)"/>
   <path
      style="fill:currentColor;fill-opacity:1;stroke:none"
      d="m2.186586-.5863421c-.27217 0-.523239.06668-.753068.200818-.229854.134119-.412529.316819-.546672.546672-.134167.229854-.200818.480922-.200818.753068 0 .27217.0667.52319.200818.753068.134143.229805.316818.411413.546672.545556s.480898.200818.753068.200818.523238-.06668.753068-.200818c.229829-.13412.411413-.315727.545556-.545556.134119-.229854.200818-.480921.200818-.753068 0-.272171-.06672-.523239-.200818-.753068-.134143-.229827-.315727-.412526-.545556-.54667-.229878-.134143-.480874-.200818-.753068-.200818z"
      class="ColorScheme-Text" transform="matrix(1.3333333 0 0 1.3333333 14.085296 3.78179)"/>
   <path
      style="fill:currentColor;fill-opacity:1;stroke:none"
      d="m-6.8145299 8.4136579c-.2721702 0-.5232385.06668-.753068.200818-.2298535.134119-.4114128.315702-.5455559.545556-.1341671.229852-.2008182.480922-.2008182.753067 0 .2721701.066699.5231901.2008182.7530681.1341431.229805.3157024.412528.5455559.546671.2298535.134144.4808978.20082.753068.20082.2721704 0 .5232386-.06668.7530681-.200818.2298296-.134119.4125285-.316842.5466716-.546671.1341193-.229853.2008182-.480922.2008182-.7530671 0-.272171-.066723-.523239-.2008182-.753068-.1341431-.22983-.316842-.411413-.5466716-.545556-.2298774-.134143-.4808738-.200818-.7530681-.200818z"
      class="ColorScheme-Text" transform="matrix(1.3333333 0 0 1.3333333 14.085296 3.78179)"/>
   <path
      style="fill:currentColor;fill-opacity:1;stroke:none"
      d="m-2.3134141 8.4136579c-.2721705 0-.5232383.066675-.7530683.200818-.2298531.134119-.4125282.316818-.5466715.546672-.134167.229853-.2008181.480921-.2008181.753068 0 .2721701.066699.5231901.2008181.7530681.1341433.229805.3168184.411413.5466715.545556.229854.134143.4808978.200818.7530683.200818s.5232383-.06668.7530683-.200818c.2298293-.134119.4114125-.315727.5455553-.545556.1341195-.229854.2008185-.480922.2008185-.7530681 0-.272171-.06672-.523239-.2008185-.753068-.1341428-.22983-.315726-.412529-.5455553-.546672-.2298773-.134143-.4808738-.200818-.7530683-.200818z"
      class="ColorScheme-Text" transform="matrix(1.3333333 0 0 1.3333333 14.085296 3.78179)"/>
   <path
      style="fill:currentColor;fill-opacity:1;stroke:none"
      d="m2.186586 8.4136579c-.27217 0-.523239.06668-.753068.200818-.229854.134119-.412529.316819-.546672.546672-.134167.229854-.200818.480922-.200818.753068 0 .2721701.0667.5231901.200818.7530681.134143.229805.316818.411413.546672.545556s.480898.200818.753068.200818.523238-.06668.753068-.200818c.229829-.13412.411413-.315727.545556-.545556.134119-.229854.200818-.480921.200818-.7530681 0-.272171-.06672-.523239-.200818-.753068-.134143-.229827-.315727-.412526-.545556-.54667-.229878-.134143-.480874-.200818-.753068-.200818z"
      class="ColorScheme-Text" transform="matrix(1.3333333 0 0 1.3333333 14.085296 3.78179)"/>
   <path
      style="fill:currentColor;fill-opacity:1;stroke:none"
      d="m-6.8145299 3.9136579c-.2721702 0-.5232385.06668-.753068.200818-.2298535.134119-.4114128.315702-.5455559.545556-.1341671.229852-.2008182.480922-.2008182.753067 0 .27217.066699.52319.2008182.753068.1341431.229805.3157024.412528.5455559.546671.2298535.134144.4808978.20082.753068.20082.2721704 0 .5232386-.06668.7530681-.200818.2298296-.134119.4125285-.316842.5466716-.546671.1341193-.229853.2008182-.480922.2008182-.753067 0-.272171-.066723-.523239-.2008182-.753068-.1341431-.22983-.316842-.411413-.5466716-.545556-.2298774-.134143-.4808738-.200818-.7530681-.200818z"
      class="ColorScheme-Text" transform="matrix(1.3333333 0 0 1.3333333 14.085296 3.78179)"/>
   <path
      style="fill:currentColor;fill-opacity:1;stroke:none"
      d="m-2.3134141 3.9136579c-.2721705 0-.5232383.06668-.7530683.200818-.2298531.134119-.4125282.316818-.5466715.546672-.134167.229853-.2008181.480921-.2008181.753068 0 .27217.066699.52319.2008181.753068.1341433.229805.3168184.411413.5466715.545556.229854.134143.4808978.200818.7530683.200818s.5232383-.066675.7530683-.200818c.2298293-.134119.4114125-.315727.5455553-.545556.1341195-.229854.2008185-.480922.2008185-.753068 0-.272171-.06672-.523239-.2008185-.753068-.1341428-.22983-.315726-.412529-.5455553-.546672-.2298773-.134143-.4808738-.200818-.7530683-.200818z"
      class="ColorScheme-Text" transform="matrix(1.3333333 0 0 1.3333333 14.085296 3.78179)"/>
   <path
      style="fill:currentColor;fill-opacity:1;stroke:none"
      d="m2.186586 3.9136579c-.27217 0-.523239.06668-.753068.200818-.229854.134119-.412529.316819-.546672.546672-.134167.229854-.200818.480922-.200818.753068 0 .27217.0667.52319.200818.753068.134143.229805.316818.411413.546672.545556s.480898.200818.753068.200818.523238-.06668.753068-.200818c.229829-.13412.411413-.315727.545556-.545556.134119-.229854.200818-.480921.200818-.753068 0-.272171-.06672-.523239-.200818-.753068-.134143-.229827-.315727-.412526-.545556-.54667-.229878-.134143-.480874-.200818-.753068-.200818z"
      class="ColorScheme-Text" transform="matrix(1.3333333 0 0 1.3333333 14.085296 3.78179)"/>
</svg> 
