<svg xmlns="http://www.w3.org/2000/svg" viewBox="0 0 22 22">
  <defs id="defs3051">
    <style type="text/css" id="current-color-scheme">
      .ColorScheme-Text {
        color:#4d4d4d
      }
      </style>
  </defs>
 <path 
     style="fill:currentColor;fill-opacity:1;stroke:none"      
	 class="ColorScheme-Text"
        d="M 1.70928,3 C 1.31583,3 1,3.3368 1,3.75391 L 1,18.24609 C 1,18.6632 1.31583,19 1.70928,19 l 18.58144,0 C 20.68418,19 21,18.6632 21,18.24609 L 21,3.75391 C 21,3.3368 20.68418,3 20.29072,3 L 1.70928,3 Z m 0.88983,1.34766 5.99116,0 c 0.23889,0 0.43111,0.20378 0.43111,0.45703 l 0,12.39062 c 0,0.25326 -0.19222,0.45703 -0.43111,0.45703 l -5.99116,0 c -0.23888,0 -0.43109,-0.20377 -0.43109,-0.45703 l 0,-12.39062 c 0,-0.25325 0.19221,-0.45703 0.43109,-0.45703 z m 11.66176,3.31836 1.40383,0 c -0.002,0.71306 0,2.58984 0,2.58984 l 2.27524,0 0,1.48828 -2.27524,0 c 0,0 -8.1e-4,1.8736 -0.002,2.58984 l -1.40383,0 c 9.5e-4,-0.71624 0.002,-2.58984 0.002,-2.58984 0,0 -1.52372,-10e-4 -2.27708,0 l 0,-1.48633 c 0.75336,-0.002 2.27708,-0.002 2.27708,-0.002 0,0 -9.4e-4,-1.87683 0,-2.58984 z"
     />
</svg>
