<svg xmlns="http://www.w3.org/2000/svg" viewBox="0 0 22 22">
 <defs id="defs3051">
   <style type="text/css" id="current-color-scheme">
     .ColorScheme-Text {
       color:#4d4d4d;
     }
     </style>
 </defs>
   <path
      style="fill:currentColor;fill-opacity:1;stroke:none"
      d="m4.77672 3c-.43093 0-.77672.35758-.77672.80078v14.39844c0 .4432.34579.80078.77672.80078h12.44656c.43093 0 .77672-.35758.77672-.80078v-14.39844c0-.4432-.34579-.80078-.77672-.80078zm6.19669 5.5h4.65084c.13518 0 .24498.11282.24498.25195v4.45508c0 .13901-.10971.25195-.24498.25195h-4.65084c-.13517 0-.24498-.11282-.24498-.25195v-4.45508c0-.139.10972-.25195.24498-.25195zm-4.58437.041h3.61584c.14313 0 .25828.15724.25828.35351s-.11515.35352-.25828.35352h-3.61584c-.14313 0-.25827-.15725-.25827-.35352s.11514-.35351.25827-.35351zm7.66467.84961c-.31019 0-.56212.25896-.56212.57812s.25193.57813.56212.57813c.31011 0 .56024-.25897.56024-.57813s-.25013-.57812-.56024-.57812zm-7.66467.5664h3.61584c.14313 0 .25828.1592.25828.35547s-.11515.35352-.25828.35352h-3.61584c-.14313 0-.25827-.15725-.25827-.35352s.11514-.35547.25827-.35547zm6.13212.61133c-.0538.005-.10372.044-.13864.11523l-.96472 1.96485c-.0699.14248.00062.25781.15572.25781h1.72626 1.80602c.15511 0 .20838-.10541.11964-.23633l-.6134-.90234c-.089-.13074-.24997-.14483-.35892-.0312l-.23739.24609c-.10904.11356-.27226.10334-.36652-.0234l-.97043-1.30273c-.0472-.0634-.10383-.093-.15762-.0879zm-6.13212.80664h3.61584c.14313 0 .25828.15725.25828.35352 0 .19626-.11515.35351-.25828.35351h-3.61584c-.14313 0-.25827-.15725-.25827-.35351 0-.19627.11514-.35352.25827-.35352zm0 1.41602h3.61584c.14313 0 .25828.1592.25828.35546 0 .19627-.11515.35352-.25828.35352h-3.61584c-.14313 0-.25827-.15725-.25827-.35352 0-.19626.11514-.35546.25827-.35546z"
      class="ColorScheme-Text" />
</svg> 
