<svg viewBox="0 0 22 22" xmlns="http://www.w3.org/2000/svg">
  <g fill="#4d4d4d">
    <path d="m11 4.5c-4.4116446 0-8.2123602 2.58593-9.9589844 6.318359-.05369197.113081-.05369197.248044 0 .363282 1.7466243 3.732399 5.5473708 6.318359 9.9589844 6.318359 4.411615 0 8.212344-2.585945 9.958984-6.318359.05369-.113081.05369-.248044 0-.363282-1.74664-3.732429-5.547354-6.318359-9.958984-6.318359zm0 1.5a5 5 0 0 1 5 5 5 5 0 0 1 -5 5 5 5 0 0 1 -5-5 5 5 0 0 1 5-5z" />
    <path d="m10.999999 6.9999999a4 4 0 0 0 -.824219.089844 2.25 2.25 0 0 1 .324219 1.1601562 2.25 2.25 0 0 1 -2.25 2.2499999 2.25 2.25 0 0 1 -1.1621094-.326172 4 4 0 0 0 -.087891.826172 4 4 0 0 0 4.0000004 4 4 4 0 0 0 4-4 4 4 0 0 0 -4-4.0000001z" />
  </g>
</svg>
