<svg xmlns="http://www.w3.org/2000/svg" viewBox="0 0 22 22">
  <defs id="defs3051">
    <style type="text/css" id="current-color-scheme">
      .ColorScheme-Text {
        color:#4d4d4d
      }
      </style>
  </defs>
 <path 
     style="fill:currentColor;fill-opacity:1;stroke:none"      
	 class="ColorScheme-Text"
        d="M 4.776724,3 C 4.345788,3 4,3.3576 4,3.8008 L 4,18.1992 C 4,18.6424 4.345788,19 4.776724,19 l 12.446553,0 C 17.654212,19 18,18.6424 18,18.1992 L 18,3.8008 C 18,3.3576 17.654212,3 17.223277,3 L 4.776724,3 Z m 3.463917,4 c 0.939768,0 1.701573,0.7835 1.701573,1.75 0,0.9665 -0.761805,1.75 -1.701573,1.75 C 7.300872,10.5 6.539068,9.7165 6.539068,8.75 6.539068,7.7835 7.300872,7 8.240641,7 Z m 5.615572,0.125 0,3.375 2.187737,0 -3.281606,4.5 0,-3.375 -2.187737,0.094 3.281606,-4.5938 z m -7.317145,4.25 3.403146,0 0,2.625 0,0.875 -0.850786,0 -2.55236,0 0,-3.5 z"
     />
</svg>
