<svg xmlns="http://www.w3.org/2000/svg" viewBox="0 0 22 22">
 <defs id="defs3051">
   <style type="text/css" id="current-color-scheme">
     .ColorScheme-Text {
       color:#4d4d4d;
     }
     </style>
 </defs>
   <path
      style="fill:currentColor;fill-opacity:1;stroke:none"
      d="m4 3c-.5540164 0-1 .4459836-1 1v14c0 .554016.4459836 1 1 1h14c .554016 0 1-.445984 1-1v-14c0-.5540164-.445984-1-1-1zm3.4824219 3.5449219h2.3554687c.1120652 0 .2154424.0560005.2753904.1503906l.445313.7070313c.079479.1258534.064519.2896266-.03711.3984374l-1.3105465 1.4003907-.3144531.3378906c-.0638306.0694816-.1522748.1035156-.2382813.1035156-.0859935 0-.1724844-.035345-.2363281-.1035156l-1.6230469-1.7382813c-.1029316-.1088108-.1165882-.272584-.0371093-.3984374l.4453124-.7070313c.0599349-.0943901.1646415-.1503906.2753907-.1503906zm5.8593751 1.5507812c.977199 0 1.897337.3813557 2.587891 1.0761719.690553.6948162 1.070312 1.620285 1.070312 2.603516 0 .98323-.379759 1.906746-1.070312 2.601562-.690554.694816-1.610692 1.078125-2.587891 1.078125-.032573 0-.06248-.000642-.09375-.001953-.835179-.022287-1.659731-.34134-2.292969-.890625-.799987-.692207-1.2714842-1.728498-1.2714842-2.789062 0-.613536.14892-1.203458.4277342-1.730469.177212.150762.33195.330029.457031.529297.104235.169115.184872.348329.242188.537109-.054723.212378-.083985.436595-.083985.666016 0 .718413.30435 1.423089.824219 1.916015.480795.454921 1.131732.714844 1.791016.714844 1.442345 0 2.617187-1.179611 2.617187-2.630859 0-1.451249-1.174842-2.6328129-2.617187-2.6328129-.491205 0-.948312.1377137-1.341797.375-.198046-.2962801-.435374-.5661436-.701172-.796875.599349-.4077129 1.30422-.625 2.042969-.625zm-6.3808595.4160157.7539063.8085937c-.9771988.3814934-1.671875 1.3381285-1.671875 2.4550785-.0000001 1.451248 1.1728889 2.630872 2.6152343 2.630859.4820848 0 .933992-.129955 1.3222657-.359375.1368082.203201.2915542.395913.4648432.574219.076873.078658.155547.153817.236329.224609-.594137.397225-1.291843.609375-2.0214848.609375-.9771987 0-1.897987-.382627-2.5898437-1.080078-.6905538-.694816-1.0703125-1.618332-1.0703125-2.601562 0-.983231.3797587-1.9067468 1.0703125-2.601563.2657981-.2674387.566195-.4897296.890625-.6601562zm3.3945315.0019531c.175896.0917682.341695.1990607.498047.3183593.901628.6895723 1.465494 1.7923238 1.466796 2.9433598 0 .12192-.007817.245253-.019531.367187-.046918.471951-.180197.925576-.396484 1.339844-.27101-.233353-.487555-.530936-.623047-.865234l-.082031-.203126c.155062-.626645.071798-1.308632-.230469-1.878906-.281446-.530944-.745735-.9541464-1.296875-1.1874998-.0221498-.0091768-.0462095-.0181669-.0683594-.0273437z"
      class="ColorScheme-Text" />
</svg> 
