<svg xmlns="http://www.w3.org/2000/svg" viewBox="0 0 22 22">
 <defs id="defs3051">
   <style type="text/css" id="current-color-scheme">
     .ColorScheme-Text {
       color:#4d4d4d;
     }
     </style>
 </defs>
   <path
      style="fill:currentColor;fill-opacity:1;stroke:none"
      d="m18.364565 7.895905c-.42345-.98617-.99292-1.83692-1.70813-2.55215-.71534-.71523-1.56595-1.28458-2.55222-1.7083-.98613-.42372-2.02072-.63544-3.10403-.63544-1.02078 0-2.00858.19254-2.96352.57803-.95481.38549-1.80376.92889-2.54685 1.63031l-1.35435-1.3439c-.2084-.21531-.44787-.2639-.71879-.14588-.27783.11812-.41668.32309-.41668.61472v4.66677c0 .18054.066.33678.19792.46874.13207.13194.28831.19791.46884.19791h4.66666c.29176 0 .49658-.13885.61459-.41669.11801-.2708.0694-.5104-.14588-.71881l-1.4271-1.43749c.48622-.45836 1.04175-.81074 1.6667-1.05737.62508-.2465 1.27777-.3699 1.95833-.3699.72225 0 1.41151.14077 2.06778.42193.65628.28129 1.22382.66153 1.70301 1.14074.4792.47908.85944 1.04676 1.14072 1.70305.28115.65629.42178 1.34544.42178 2.06783s-.14063 1.41141-.42178 2.0677c-.28128.65629-.66152 1.22397-1.14072 1.70318-.47919.47921-1.04686.85945-1.70301 1.14061-.65627.28129-1.34566.42193-2.06778.42193-.82644 0-1.60763-.18054-2.34381-.5416-.73605-.36107-1.35755-.87147-1.86449-1.53134-.0486-.0694-.12849-.11124-.2396-.12518-.1042 0-.19101.0312-.26044.0937l-1.4271 1.43763c-.0555.0557-.085.1267-.0885.21352-.003.0869.0192.16493.0678.23436.75702.91673 1.6736 1.62685 2.75 2.13022s2.21187.75525 3.40628.75525c1.08331 0 2.11803-.21186 3.10416-.63545.98614-.42359 1.83662-.99319 2.55209-1.70829.71521-.71549 1.28455-1.56599 1.70825-2.55215.42358-.98616.63531-2.02104.63531-3.10424 0-1.08346-.21185-2.11782-.63543-3.10398z"
      class="ColorScheme-Text" />
</svg> 
