<svg viewBox="0 0 22 22" xmlns="http://www.w3.org/2000/svg"><path d="m4 3c-.55402 0-1 .44598-1 1v14c0 .55402.44598 1 1 1h14c .55402 0 1-.44598 1-1v-14c0-.55402-.44598-1-1-1zm3.11914 3a1.2697625 1.2697625 0 0 1 1.26953 1.26953 1.2697625 1.2697625 0 0 1 -1.26953 1.27149 1.2697625 1.2697625 0 0 1 -1.26953-1.27149 1.2697625 1.2697625 0 0 1 1.26953-1.26953zm3.87305 0a1.2697625 1.2697625 0 0 1 1.26953 1.26953 1.2697625 1.2697625 0 0 1 -1.26953 1.27149 1.2697625 1.2697625 0 0 1 -1.26953-1.27149 1.2697625 1.2697625 0 0 1 1.26953-1.26953zm3.88867 0a1.2697625 1.2697625 0 0 1 1.26953 1.26953 1.2697625 1.2697625 0 0 1 -1.26953 1.26953 1.2697625 1.2697625 0 0 1 -1.26953-1.26953 1.2697625 1.2697625 0 0 1 1.26953-1.26953zm-7.76172 7.46094a1.2697625 1.2697625 0 0 1 1.26953 1.26953 1.2697625 1.2697625 0 0 1 -1.26953 1.26953 1.2697625 1.2697625 0 0 1 -1.26953-1.26953 1.2697625 1.2697625 0 0 1 1.26953-1.26953z" fill="#4d4d4d"/><path d="m14.880849 9.729465a1.2697625 1.2697625 0 0 0 -1.26953 1.27149 1.2697625 1.2697625 0 0 0 1.26953 1.26953 1.2697625 1.2697625 0 0 0 1.26954-1.26953 1.2697625 1.2697625 0 0 0 -1.26954-1.27149zm-7.7617096.002a1.2697625 1.2697625 0 0 0 -1.26953 1.26954 1.2697625 1.2697625 0 0 0 1.26953 1.26953 1.2697625 1.2697625 0 0 0 1.26953-1.26953 1.2697625 1.2697625 0 0 0 -1.26953-1.26954zm3.8730396 0a1.2697625 1.2697625 0 0 0 -1.2695296 1.26954 1.2697625 1.2697625 0 0 0 1.2695296 1.26953 1.2697625 1.2697625 0 0 0 1.26953-1.26953 1.2697625 1.2697625 0 0 0 -1.26953-1.26954z" fill="#2ecc71"/></svg>