<svg xmlns="http://www.w3.org/2000/svg" viewBox="0 0 22 22">
 <defs id="defs3051">
   <style type="text/css" id="current-color-scheme">
     .ColorScheme-Text {
       color:#4d4d4d;
     }
     </style>
 </defs>
   <path
      style="fill:currentColor;fill-opacity:1;stroke:none"
      d="m3.88867 3c-.49244 0-.88867.35758-.88867.80078v14.39844c0 .4432.39623.80078.88867.80078h14.22266c.49244 0 .88867-.35758.88867-.80078v-14.39844c0-.4432-.39623-.80078-.88867-.80078zm7.11133 2c1.23422 0 2.37835.37181 3.33008 1.00586.2378.15842.45981.33548.67187.52539 0 0 .002.002.002.002.0728.0653.1473.13049.2168.19922.15139.14972.29492.30752.42969.47265.13507.16552.25994.33796.37695.51758.0465.0714.0893.14525.13281.21875.001.002.003.004.004.006.0843.1427.16191.28941.23438.43946.0193.04.0401.0806.0586.12109.001.003.003.005.004.008.002.004.002.008.004.0117.0482.1068.0927.21611.13476.32617.0333.0874.0664.17439.0957.26367.01.0281.0223.0535.0312.082.0491.15746.0868.3196.12305.48243.0473.21234.0871.4281.11133.64843.0242.21996.039.44331.039.66993 0 .28208-.0252.55662-.0625.82813-.008.06-.0192.12027-.0293.17968-.0282.16783-.0731.32893-.11328.49219h-2.01367c-.0117-.0353-.0262-.0736-.0391-.10156-.0507-.11052-.081-.21116-.1543-.29492-.0399-.0458-.094-.0789-.12695-.1211-.0268-.0344-.0601-.0987-.0605-.125-.00045-.0286.023-.0475.0312-.0762.0105-.037.0116-.10564.0254-.16406.006-.0268.0365-.0913.0312-.13477-.005-.0419-.0702-.12171-.12305-.13476-.0699-.0173-.14014.0212-.22852.0137-.0761-.0482-.0718-.17348-.18164-.18945-.14424-.0211-.28992.0371-.38867.0801-.057.0249-.11576.0615-.16601.0645-.0475.002-.0948-.0248-.14063-.0293-.0597-.006-.13606-.00066-.19531.01-.0575.0102-.10953.0529-.16016.0566-.0971.007-.18902-.089-.25-.13672-.0373-.029-.0764-.0529-.11133-.0801-.0374-.0293-.0841-.0462-.11328-.0742-.0394-.0382-.0399-.10563-.0606-.15625-.0244-.0597-.0977-.10354-.15429-.16016-.0423-.0423-.1417-.10563-.15235-.16016-.005-.0278.0132-.0597.0117-.0898-.003-.0439-.0359-.0683-.0352-.0996.0009-.0441.0522-.0781.0645-.11523.006-.0189.003-.046.01-.0703.014-.0508.0485-.0819.041-.15625-.003-.0296-.0305-.0573-.0312-.0957-.001-.0263.0186-.0403.0156-.0645-.004-.0427-.0592-.0505-.0644-.0996-.006-.0507.0483-.0927.0801-.15039.0143-.0259.0223-.0643.0352-.084.0281-.0426.0743-.0635.0957-.10547.0156-.031.0209-.0764.0352-.0996.0185-.0299.0529-.0468.0879-.0859.0284-.032.0406-.0696.0606-.084.0251-.0182.0643-.0227.0918-.0352.0927-.0422.16031-.0988.20508-.1875-.0136-.0805.006-.11427.0391-.16992.0306-.0515.0533-.0993.10547-.1289.0626-.0355.12222-.0391.16601-.10547.022-.0333.0523-.0904.0527-.125.00047-.0495-.0495-.1136-.0937-.1211-.0453-.007-.11512.0356-.14062-.0137-.008-.0158.004-.0528 0-.0703-.006-.0327-.0337-.0559-.0352-.0801-.002-.047.0468-.0962.0605-.15039.0188-.0738-.00061-.13183-.006-.2168.07-.11047.22584-.0535.38086-.043.0233.002.0511-.006.0762-.006.0919.002.16434.0291.19531-.0508.0116-.0301.0231-.14157.0156-.16992-.008-.0335-.0742-.12097-.10547-.14062-.0497-.0317-.12196-.0169-.15039-.0742.0231-.0989.13285-.0155.19922-.0391.034-.012.0324-.0706.0625-.0801.0204-.007.0457.02.0742.0195.0243-.00045.11174-.0449.13477-.0605.0319-.0216.0422-.0653.0703-.084.019-.0122.0437-.0123.0645-.0215.0426-.0184.0963-.0533.125-.0879.0413-.0495.0611-.11382.11133-.12305.002-.00039.005.00032.008 0-.20721-.15746-.42244-.30206-.65235-.42773-.007.009-.016.0186-.0176.0332.006.0455.0865.0177.0957.0606-.008.0467-.0484.0538-.0488.0879-.00018.0297.0604.0879.0898.12695.022.029.0603.0484.0801.0781.0172.0259.0211.057.0352.0703.0263.0249.0853.0303.0898.0664.006.0478-.0602.0675-.0508.12109-.0688.054-.18291.0251-.29492.0391-.0507.007-.10653.0555-.16016.0137-.0124-.0337.0436-.0384.0488-.0703-.004-.0296-.0396-.0241-.0488-.0488.0146-.0389.0592-.0472.0547-.10547.0279-.0305.0816-.0195.0899-.0606.006-.0286-.0163-.0639-.0449-.0801-.0164-.01-.0421-.006-.0606-.0156-.0488-.0268-.0652-.0813-.0937-.0937.004-.0549-.0151-.0932 0-.12891.009-.0216.074-.0833.10938-.0957.0299-.0105.0533-.0158.0781-.0234-.73691-.39318-1.57787-.61722-2.47459-.61722-.19502 0-.38679.0127-.57617.0332-.005.003-.009.008-.0117.01-.0171.008-.10236.0494-.13086.0449-.0126-.002-.0213-.0184-.0312-.0293-.045.006-.0901.014-.13477.0215.0214.0289.0542.0468.0547.0879.002.0681-.0358.0729-.0937.11524-.0415-.0168-.077-.0404-.13086-.0449-.0319.038.053.0512.0254.0996-.0804.0169-.14329-.0226-.21679-.0449-.023-.007-.0553-.005-.0742-.0156-.0284-.0165-.0372-.0628-.0605-.0879-.12457.0337-.24653.0709-.36719.11328.0378.0119.0724.0242.11719.0215.0243-.002.0557-.0252.0801-.0215.0489.007.0785.0677.11523.0957.0324.0248.0679.0158.0762.0488-.01.0561-.0494.0587-.0449.11133.004.0459.0505.0795.0742.084.0365.007.0885-.012.125-.0293.067-.0317.12577-.12738.18164-.11523.0442.01.0772.1507.084.20117.007.0541-.007.0947-.004.14453.006.0845.11171.0749.16406.11914.0158.0134.022.0489.0352.0664.0254.0339.056.0321.0605.0684.009.0865-.0786.0949-.0703.1914-.0181.0374-.0643.034-.0605.084.006.0789.11957.0203.15039.082.0166.0331-.001.0582-.0137.10547.0388.0463.0372.11901-.0312.11914-.0416 0-.0535-.0443-.0957-.0547-.0234-.005-.0541-.005-.084-.01-.0256-.005-.0579-.0126-.082-.0156-.0618-.007-.12746.0103-.16406-.0254.0596-.0791.1402-.15644.2168-.22461.0227-.0204.0703-.0354.0586-.0762-.0426-.0374-.0946.003-.13477.0254-.0422.0239-.093.0589-.14063.0664-.0828.0119-.19219-.0247-.25976.0195-.009.0378.0765.0231.0645.0801-.0332.005-.0643.007-.0898-.0156-.0237-.0209-.0104-.0519-.0254-.0645-.0257-.021-.12102-.027-.16407-.0195-.0526.009-.0987.0389-.10546.084.0632.0295.16657-.0287.18945.0469-.0346.0623-.1165.0942-.10547.17773.004.0322.0428.0756.0703.0801.0277.005.0435-.021.0703-.0195.0284.003.0214.0358.0547.0312.0482-.0206.0756-.0897.13086-.0859.0663.0804-.0605.11904-.13086.14454-.0801.0291-.18309.0447-.24414.0703-.032.0134-.15282.13158-.16992.041-.0123-.0652.0591-.0459.0742-.0996-.0775-.0151-.15021.0318-.22071.0586-.10065.038-.27062.0627-.29492.17578-.004.0226.0109.0651-.004.0801-.012.0121-.0858.0147-.11719.0254-.0483.0165-.0894.0503-.11914.0586-.0225.007-.0561.006-.0703.0117-.0398.0154-.0539.0697-.0996.10547-.0187.0147-.0592.0243-.0742.0391-.0259.0258-.0303.0918-.0762.10157-.0291.003-.0526-.0227-.0801-.006-.003.0638.0236.15027-.004.21484-.0593.0483-.12531.0824-.20117.125-.0419.0237-.0802.0313-.13086.0566-.0359.0179-.068.0595-.10937.084-.0956.0563-.2114.12313-.21094.26562.00015.0309.017.0635.0215.0996.003.0212-.002.0432 0 .0664.007.0524.0439.11807 0 .15429-.0674-.0276-.154-.036-.20118-.084-.0128-.0494.0248-.0918.0195-.13672-.005-.0361-.0544-.10097-.084-.10547-.0304-.005-.0602.0289-.0918.0274-.0375-.003-.0711-.0573-.11914-.0625-.0704-.008-.12124.0168-.19922.006-.0755.0403-.0989.11297-.1914.10547-.0326-.002-.0619-.0277-.0996-.0352-.0408-.008-.10404-.0225-.14649-.0195-.0823.006-.14102.0613-.21093.0996-.10277.26557-.18913.54143-.24805.82617.0149.0298.0256.06.0351.0703.0258.0277.10126.0696.14454.0703.0367.00068.0797-.0186.11523-.0254.0412-.007.0915-.009.12891-.0215.10822-.0346.0889-.17924.19726-.22851.0473-.0218.10038-.0248.1836-.0293.0268.0223.0389.0599.0351.0937-.003.0255-.0261.0476-.0391.084-.0114.032-.0141.07-.0254.0957-.0149.0338-.0468.0581-.0586.0898-.007.0206-.005.0477-.0117.0664-.0115.0329-.0555.056-.0351.0898.10722.0423.23847-.0133.33203.004.0394.007.11989.0564.11914.11719-.00045.0455-.0365.0732-.041.12304-.006.0627-.0322.14078-.0351.19141-.004.0831.12257.22536.21094.22461.0952-.001.15095-.0946.26562-.0449.038.0165.0792.0792.12109.0762.0346-.002.0862-.0635.10938-.10547.0282-.0512.0302-.0933.0801-.11914.0537-.0277.0972-.0154.16601-.041.0307-.0113.0563-.0317.084-.0508.0243-.0167.0498-.0597.0801-.0293.04.0399-.0494.0608-.0156.10351.0694.0368.10593-.0696.15625-.0703.0161-.00045.0711.0339.0996.0527.0391.0257.053.0621.0957.0703.0274.006.0727-.0111.11133-.006.0511.007.0804.0496.11914.0488.0472-.001.069-.053.10938-.0606.0884-.0162.12115.0111.16015.0664.0437.008.046-.0497.0859-.0293-.022.0436.006.0632.0234.0996.0109.0233.0109.0407.0215.0508.0239.0227.0704.0226.10547.0449.037.0233.0572.0646.0996.11329.0436.0498.1175.10171.17578.10546.055.004.099-.015.14453-.01.10356.0128.16778.0654.24023.1211.0405.0311.0788.0525.0918.0898.01.026.003.0607.0137.0898.0221.0623.11301.0933.0801.20117.0151.0317.0477.0424.084.0645.0292.0177.0544.0541.0859.0586.0203.003.041-.005.0586-.004.0569.004.0972.0258.14648.0449.0306.0118.0695.0155.0898.0293.0254.0172.0292.0766.0605.0918.0205.01.0674-.004.10156 0 .0537.006.12531.0383.17383.0391.0294.0006.054-.0113.0801-.01.12263.009.1922.15504.31055.19922.0367.0146.0958.005.12109.0156.0444.0192.0802.15462.084.21484.0101.18194-.12834.24096-.20898.36133-.0169.0252-.0269.0645-.0508.0996-.048.0707-.10246.0869-.0957.2168.002.0358.0195.0698.0195.10937 0 .0483-.003.11103-.0137.1543-.008.0332-.0365.0598-.041.0898-.005.0306.008.0541.004.0801-.004.0288-.0307.0709-.0527.11133-.0463.0855-.0585.18643-.15235.2207-.0551.0203-.12915.008-.18945.0293-.0244.009-.0559.031-.0859.0449-.0871.0406-.21038.0956-.23438.18555-.0215.0801.0304.14297.0156.23437-.0155.0272-.037.0551-.0605.0859-.0216.0283-.0319.0615-.0547.0898-.0301.0376-.0775.0546-.0957.10547-.006.0172-.002.0371-.01.0644-.003.01-.022.0275-.0312.0469-.008.0178-.006.0382-.0137.0527-.0229.0463-.0914.15214-.14062.16602-.10394.0292-.21331-.0434-.28516-.0293.0104.0502.0468.045.0703.0801.0136.0208.0202.0484.0391.0703.0224.026.0419.0369.0449.0664.006.0617-.0415.12308-.0742.14453-.03.0196-.0914.0298-.14453.0391-.037.006-.13284.008-.15039.0312-.0253.0349.0128.11972-.006.1543-.0374.0731-.13726-.003-.18946.0195-.004.0378.009.0779.0391.0957.0314.0184.0807-.005.10156.0312-.0102.0498-.0649.0546-.0762.10351.002.0476.0165.0601.01.0898-.003.0151-.0191.0198-.0293.0293.56306.20536 1.16896.32436 1.80471.32436.52277 0 1.02439-.0833 1.5-.22461v.7793c-.47967.12363-.98033.19531-1.5.19531-.47784 0-.94169-.0615-1.38672-.16602-.003-.00067-.005-.001-.008-.002-.2635-.0623-.51899-.14262-.76758-.23828-.005-.002-.0109-.002-.0156-.004-.002-.00075-.002-.001-.004-.002-2.23823-.86916-3.81881-3.03452-3.81881-5.58713 0-.35847.036-.70797.0957-1.04883.09-.51367.24596-1.0037.45703-1.46289.003-.006.005-.0112.008-.0176.0995-.21455.21271-.42133.33594-.62109.0114-.0185.0216-.0383.0332-.0566.26213-.41474.57089-.7956.92383-1.13281.009-.008.0188-.0154.0273-.0234.16361-.1545.33728-.29819.51758-.43359.0244-.0183.0476-.0348.0723-.0527.39387-.28653.82242-.53013 1.28125-.71484.001-.00057.002.00057.004 0 .0789-.0317.15971-.0575.24024-.0859.19932-.0703.40282-.13236.61132-.18164.44735-.10574.91201-.16797 1.39258-.16797zm-1.88672 1.10352c-.35651.13672-.69597.30645-1.00976.51367.0406.0194.0863.0417.125.0469.0687.009.14492-.02.15429.0352.009.053-.0651.0722-.0703.10547.0371.0489-.0236.0724-.0234.11523.00009.0348.0408.0869.0781.0899.0504.004.12548-.0491.14648-.0996.0248-.0601.0128-.14175.0586-.18555.23327.006.43101-.10623.41601-.3457-.002-.0237-.0123-.0541-.008-.0801.007-.0387.0737-.0702.0645-.11914.0348-.0107.0512-.0436.0683-.0762zm4.05469.56445c.0614-.006.12831.0193.13281.0566.005.0376-.0343.0418-.0488.084-.0138.0383-.0001.0849-.0176.11133-.0153.0226-.0537.0211-.082.0293-.063.0191-.1857.0945-.23633.0117.007-.0444.0497-.055.0644-.0918.00098-.0289-.0299-.0434-.0254-.0742.006-.0373.0355-.0237.0762-.0391.0294-.0113.042-.0471.0801-.0703.0167-.0104.0362-.0146.0566-.0176zm-5.50586.58203c-.0812-.0212-.19524.0604-.28906.0859-.0528.0143-.10316.0141-.11524.0586.0474.0785.14179-.0161.21094-.004.035.006.0553.0553.0898.0605.0237.004.16048-.0111.16993-.0156.0998-.0425-.021-.1737-.0664-.18555zm.19141.24219c-.0399-.003-.081.0145-.0957.0332-.002.0299.023.036.0215.0664-.0487.0348-.0245.14979.0234.15429.0508.004.0785-.12892.14649-.14062.0247-.004.0376.0155.0703.0117.0395-.031.0204-.0944-.0215-.10547-.0164-.004-.0377.0113-.0645.01-.0283-.002-.0566-.0278-.0801-.0293zm-.22657.0137c-.0418-.002-.11054.0185-.13476.0352-.022.0153-.0357.0544-.0586.082-.0236.0284-.0504.0495-.0703.0742-.0181.0222-.12046.16694-.041.18359.0339.007.10458-.061.11133-.0879.0226-.0918.0636-.1582.13477-.20117.0412-.0249.0831-.0209.0898-.0742-.005-.006-.0174-.0113-.0312-.0117zm7.13086.0312c-.0189-.006-.0467.019-.0586.0352-.0244.1092.0648.11764.10547.16601.0279.0333.04.0816.0684.10352.0302.0233.0726.0193.11133.0352.0268.0109.0426.0448.0684.0606.0478.0291.12561.0338.13086.0898-.0297.0203-.0961-.03-.11914.0195-.006.0324.0239.0493.0234.0801-.001.0493-.0543.10396-.10352.0957-.005-.0293.0269-.0522.0254-.084-.002-.0637-.13224-.16223-.19726-.1914-.0305-.0138-.0661-.0157-.0937-.0312-.0492-.0277-.13407-.0953-.16407-.13477-.0358-.0475-.0677-.13341-.14649-.12891-.0321.002-.0595.0312-.0859.0449-.024.0122-.0497.0247-.0742.041-.0292.0194-.0529.0376-.0801.0391-.0628.003-.11592-.0469-.16992-.0352-.0182.004-.0329.0192-.0547.0391-.00075.0291.008.048.004.0801-.0163.0282-.0662.0282-.10156.0469-.0518.0273-.0965.0834-.13867.125-.0272.0268-.0509.0492-.0547.0703-.003.0165.0143.048.01.0703-.004.0241-.0497.0729-.0801.0937-.0177.0122-.0417.0141-.0605.0254-.0394.0234-.0568.0538-.0898.0606-.0875.0163-.24685-.0185-.2461.0742.00069.0616.0859.0635.13672.0605.0708-.003.13077.014.16992.004.027-.007.0556-.0359.084-.0488.0179-.008.0373-.009.0508-.0156.0299-.0151.0471-.0402.0703-.0508.0458-.0208.13049-.0361.17969-.0391.0675-.005.1393.007.22656 0 .0311-.002.0604-.0224.0937-.0254.0545-.004.1259.0203.16992.0195.0305-.0009.0639-.0298.0996-.0293.0403.00075.0843.0288.0918.0547.005.0146-.008.0386-.004.0605.006.0364.0367.0506.0351.0742-.003.0314-.081.0725-.0703.10938.007.0237.0607.0498.0879.0664.0284.0173.0777.0412.11133.0449.0283.004.0532-.009.0801-.006.0431.005.11333.0336.14063.0527.047.0331.0411.0847.0957.10351.0233.008.0638.003.0937.01.0729.0158.12839.0771.18164.0703.0839-.01.0452-.0881.0547-.14453.0214-.12783.27104-.12206.32031-.0352.0221.006.0441.006.0664.008-.0681-.14558-.14198-.28598-.22265-.42383-.0434-.0172-.0689-.0533-.0684-.11523-.0426-.0647-.098-.11074-.13672-.16407-.0143-.0198-.0346-.0523-.0391-.082-.0009-.006.001-.0128.002-.0195-.0362-.0511-.0754-.10069-.11328-.15039-.0137-.006-.0273-.0139-.0391-.0195-.0591-.0282-.13379-.0545-.17579-.0898-.0297-.025-.044-.0674-.0703-.084-.0224-.014-.0504-.0115-.0703-.0254-.0271-.0189-.0229-.0509-.0586-.0606h-.002zm-6.53711.15039c-.0255 0-.055.004-.0781.006-.0327.003-.0712.0103-.0742.0352.0521.0238.19466.0388.21094-.0274-.0105-.01-.0332-.0132-.0586-.0137zm-.32422.12109c-.0513.002-.0988.028-.14257.0332-.0348.005-.10005-.007-.0918.0449.006.0425.0732.0277.11133.0156.0792-.025.12958-.0473.17578-.0859-.0178-.007-.0356-.008-.0527-.008zm6.52539 0c .0107-.004.0225-.00005.0352.0137.006.0423-.0121.0624-.0352.0762-.0494-.009-.0325-.0792 0-.0898zm-.0137.14063c.0481-.0131.0838.0344.0644.13867-.0165.0421-.0869.0969-.11913.0352.0112-.0486.005-.0847.004-.14063.0172-.018.0347-.0287.0508-.0332zm.42579.27539h.002c.0441.002.0934.008.1289.008-.0135.0383-.0173.0872-.0469.10937-.0821-.0148-.15864-.0337-.19531-.0937.0257-.0215.0673-.0248.11133-.0234zm-8.88282 2.03516c-.0523.001-.10487.051-.15234.0508-.0296.22641-.0488.45472-.0488.68945 0 1.95787 1.06377 3.65586 2.64453 4.55859-.006-.0187-.0149-.0361-.0156-.0566-.00075-.0218.01-.0477.006-.0703-.0106-.0675-.0854-.1239-.0899-.1914-.002-.0326.0209-.0607.0254-.0957.004-.0234-.003-.0492 0-.0742.004-.0317.0197-.0609.0234-.0898.006-.0551.00013-.14927-.01-.19532-.0125-.0578-.0597-.10669-.0664-.16992-.003-.0228.007-.0625.006-.0918-.002-.0272-.0165-.051-.0195-.082-.003-.0286.007-.0576.01-.0918.005-.0628-.0113-.13291-.01-.19531.00068-.0185.01-.0328.01-.0508-.00067-.0516-.0185-.10277-.0215-.1543-.004-.0952.0115-.16404-.004-.25195-.0117-.0665-.0248-.16714-.0488-.20898-.0268-.0466-.13447-.12468-.1875-.1543-.035-.0196-.0751-.0281-.11328-.0469-.0816-.0401-.23962-.12425-.27539-.20508-.0104-.0233-.0105-.0541-.0215-.0801-.0218-.0513-.0671-.095-.0996-.14453-.0618-.0944-.11233-.21306-.17579-.31055-.0321-.0496-.0587-.10508-.0937-.14453-.0206-.0233-.0874-.045-.0957-.0801-.0112-.0463-.0443-.11108-.0391-.14648.007-.0478.0997-.0872.0996-.13086-.00015-.037-.0502-.0565-.0605-.0879-.0253-.0765.0148-.1218.0449-.18555.01-.0209.0189-.0549.0293-.0703.0183-.0276.0557-.0366.0801-.0664.0136-.0167.0232-.0506.041-.0742.0381-.0506.0995-.0696.11524-.11523.0127-.0372.0193-.22291.004-.28516-.009-.036-.042-.0655-.0547-.0996-.0227-.0605-.0276-.12575-.0898-.125-.0385.00075-.0671.0435-.0918.0703-.006.0357-.002.0731-.0391.084-.0569.0168-.0782-.06-.14453-.0801-.0264-.008-.0694-.006-.0859-.0137-.0484-.0217-.0642-.0935-.11524-.12109-.0427-.023-.0795-.0157-.10546-.0508-.01-.0242-.00091-.0672-.004-.0996-.0549-.0321-.10024-.15134-.16407-.17969-.0423-.0188-.10915-.0172-.1621-.0352-.0249-.008-.0443-.0201-.0703-.0254-.0321-.007-.0631-.007-.0879-.0195-.0991-.0492-.15261-.20882-.27539-.20507zm2.03711.5664c-.0363.0168-.0179.0814.0195.0762.0395-.006.0285-.0982-.0195-.0762zm5.47852 2.24805c.19911 0 .38262.0484.55078.14648.16812.0981.30031.23227.39844.40039.0931.15954.13977.33406.14453.52149v-.13086h.6289v.14453c.003-.19284.051-.37159.14649-.53516.0981-.16813.2303-.30228.39843-.40039.16812-.0981.35169-.14648.55079-.14648.19911 0 .38262.0484.55078.14648.16812.0981.30226.23227.40039.40039.0981.16812.14648.35169.14648.55079 0 .19907-.0484.38264-.14648.55078-.0981.16812-.23227.30033-.40039.39843s-.35169.14844-.55078.14844c-.1991 0-.38265-.0503-.55079-.14844-.16813-.0981-.30031-.23033-.39843-.39843-.0954-.16359-.14389-.3423-.14649-.53516v.13867h-.6289v.62696 1.88085h.64062v.14258c0-.19907.0483-.38264.14649-.55078.0981-.16814.23225-.30033.40039-.39844.16812-.0981.35168-.14843.55078-.14843.19911 0 .38262.0503.55078.14843.16812.0981.30031.23032.39844.39844.0981.16812.14843.35169.14843.55078 0 .19908-.0503.38265-.14843.55078-.0981.16812-.23032.30229-.39844.40039s-.35169.14649-.55078.14649c-.1991 0-.38265-.0484-.55078-.14649-.16814-.0981-.30227-.23228-.40039-.40039-.0981-.16815-.14649-.35168-.14649-.55078v.17188h-.64062v-.002h-.3125v-2.19336c.0688-.0691.11986-.14957.16797-.23047-.0981.16812-.23032.30033-.39844.39844-.16812.0981-.35169.14844-.55078.14844-.1991 0-.38265-.0503-.55078-.14844-.16814-.0981-.30227-.23034-.4004-.39844-.0981-.16816-.14648-.35169-.14648-.55078 0-.19908.0483-.38264.14648-.55078.0981-.16814.23226-.30228.4004-.40039.16812-.0981.35168-.14649.55078-.14649zm.94922 1.64844c.0377-.0635.0623-.13356.0859-.20508-.0233.07-.0478.13976-.0859.20508zm.0859-.20508c.011-.033.0236-.0656.0312-.0996-.008.0349-.0203.0666-.0312.0996zm.0312-.0996c.007-.032.023-.0582.0273-.0918v-.125c-.002.0745-.0115.14666-.0273.21679zm.0273-.2168c.00025-.0101.004-.0191.004-.0293s-.004-.0192-.004-.0293zm.6289-.0137v-.0312c-.00007.005-.002.0102-.002.0156 0 .005.002.0102.002.0156z"
      class="ColorScheme-Text" />
</svg> 
