<svg xmlns="http://www.w3.org/2000/svg" viewBox="0 0 22 22">
 <defs id="defs3051">
   <style type="text/css" id="current-color-scheme">
     .ColorScheme-Text {
       color:#4d4d4d;
     }
     </style>
 </defs>
   <path
      style="fill:currentColor;fill-opacity:1;stroke:none"
      d="m4 3c-.5540164 0-1 .4459836-1 1v14c0 .554016.4459836 1 1 1h14c .554016 0 1-.445984 1-1v-14c0-.5540164-.445984-1-1-1z"
      class="ColorScheme-Text" />
 <defs id="defs3051">
   <style type="text/css" id="current-color-scheme">
     .ColorScheme-Text {
       color:#32c671;
     }
     </style>
 </defs>
   <path
      style="fill:currentColor;fill-opacity:1;stroke:none"
      d="m7.1191406 6a1.2697625 1.2697625 0 0 0 -1.2695312 1.2695312 1.2697625 1.2697625 0 0 0 1.2695312 1.2714844 1.2697625 1.2697625 0 0 0 1.2695313-1.2714844 1.2697625 1.2697625 0 0 0 -1.2695313-1.2695312zm3.8730474 0a1.2697625 1.2697625 0 0 0 -1.2695318 1.2695312 1.2697625 1.2697625 0 0 0 1.2695318 1.2714844 1.2697625 1.2697625 0 0 0 1.269531-1.2714844 1.2697625 1.2697625 0 0 0 -1.269531-1.2695312zm3.888671 0a1.2697625 1.2697625 0 0 0 -1.269531 1.2695312 1.2697625 1.2697625 0 0 0 1.269531 1.2695313 1.2697625 1.2697625 0 0 0 1.269532-1.2695313 1.2697625 1.2697625 0 0 0 -1.269532-1.2695312zm0 3.6972656a1.2697625 1.2697625 0 0 0 -1.269531 1.2714844 1.2697625 1.2697625 0 0 0 1.269531 1.269531 1.2697625 1.2697625 0 0 0 1.269532-1.269531 1.2697625 1.2697625 0 0 0 -1.269532-1.2714844zm-7.7617184.0019532a1.2697625 1.2697625 0 0 0 -1.2695312 1.2695312 1.2697625 1.2697625 0 0 0 1.2695312 1.269531 1.2697625 1.2697625 0 0 0 1.2695313-1.269531 1.2697625 1.2697625 0 0 0 -1.2695313-1.2695312zm3.8730474 0a1.2697625 1.2697625 0 0 0 -1.2695318 1.2695312 1.2697625 1.2697625 0 0 0 1.2695318 1.269531 1.2697625 1.2697625 0 0 0 1.269531-1.269531 1.2697625 1.2697625 0 0 0 -1.269531-1.2695312zm-3.8730474 3.7617192a1.2697625 1.2697625 0 0 0 -1.2695312 1.269531 1.2697625 1.2697625 0 0 0 1.2695312 1.269531 1.2697625 1.2697625 0 0 0 1.2695313-1.269531 1.2697625 1.2697625 0 0 0 -1.2695313-1.269531z"
      class="ColorScheme-Text" />
</svg> 
