<svg xmlns="http://www.w3.org/2000/svg" viewBox="0 0 22 22">
 <defs id="defs3051">
   <style type="text/css" id="current-color-scheme">
     .ColorScheme-Text {
       color:#4d4d4d;
     }
     </style>
 </defs>
   <path
      style="fill:currentColor;fill-opacity:1;stroke:none"
      d="m3.56744 4.2c-.314768 0-.56744.269424-.56744.60312v11.593752c0 .333704.252672.603128.56744.603128h14.865144c.314752 0 .567416-.269424.567416-.603128v-11.593752c0-.333696-.252664-.60312-.567416-.60312zm5.46648 3.559376c.919488 0 1.66248.789248 1.66248 1.764056 0 .974816-.742992 1.762504-1.66248 1.762504-.2152 0-.410504-.04088-.5866-.103128l-.87988.932816h-.588064v.621872h-.586576v.62188h-.97864v-1.035944l2.05452-2.17812c-.05872-.207408-.097272-.414472-.097272-.62188 0-.974808.743-1.764056 1.662496-1.764056zm4.834184.440624h.906416v1.920312h1.811344v.959376h-1.811344v1.920312h-.906416v-1.920312h-1.809888v-.959376h1.809888zm-4.344888.182808c-.332592 0-.586592.26928-.586592.62188 0 .352592.254.621872.586592.621872.332584 0 .586584-.26928.586584-.621872 0-.3526-.254-.62188-.586584-.62188z"
      class="ColorScheme-Text" />
</svg>
