<svg xmlns="http://www.w3.org/2000/svg" viewBox="0 0 22 22">
  <defs id="defs3051">
    <style type="text/css" id="current-color-scheme">
      .ColorScheme-Text {
        color:#4d4d4d
      }
      </style>
  </defs>
 <path 
     style="fill:currentColor;fill-opacity:1;stroke:none"      
	 class="ColorScheme-Text"
        d="M 3.640625 3 C 3.2915946 3 3 3.291601 3 3.640625 C 3 3.989649 3.2915946 4.28125 3.640625 4.28125 L 18.361328 4.28125 C 18.710352 4.28125 19 3.989649 19 3.640625 C 19 3.291601 18.710352 3 18.361328 3 L 3.640625 3 z M 3.640625 4.9199219 C 3.2915946 4.9199219 3 5.2115229 3 5.5605469 C 3 5.9095709 3.2915946 6.2011719 3.640625 6.2011719 L 11.320312 6.2011719 C 11.669337 6.2011719 11.960937 5.9095709 11.960938 5.5605469 C 11.960938 5.2115229 11.669337 4.9199219 11.320312 4.9199219 L 3.640625 4.9199219 z M 3.640625 8.7597656 C 3.2915946 8.7597656 3 9.0513666 3 9.4003906 C 3 9.7494146 3.2915946 10.041016 3.640625 10.041016 L 18.361328 10.041016 C 18.710352 10.041016 19 9.7494146 19 9.4003906 C 19 9.0513666 18.710352 8.7597656 18.361328 8.7597656 L 3.640625 8.7597656 z M 3.640625 10.679688 C 3.2915946 10.679688 3 10.97129 3 11.320312 C 3 11.669337 3.2915946 11.960937 3.640625 11.960938 L 12.599609 11.960938 C 12.948633 11.960938 13.240234 11.669337 13.240234 11.320312 C 13.240234 10.97129 12.948633 10.679687 12.599609 10.679688 L 3.640625 10.679688 z M 3.640625 14.521484 C 3.2915946 14.521484 3 14.811132 3 15.160156 C 3 15.50918 3.2915946 15.800781 3.640625 15.800781 L 18.361328 15.800781 C 18.710352 15.800781 19 15.50918 19 15.160156 C 19 14.811132 18.710352 14.521484 18.361328 14.521484 L 3.640625 14.521484 z M 3.640625 16.441406 C 3.2915946 16.441406 3 16.731054 3 17.080078 C 3 17.429102 3.2915946 17.720703 3.640625 17.720703 L 15.160156 17.720703 C 15.50918 17.720703 15.800781 17.429102 15.800781 17.080078 C 15.800781 16.731054 15.50918 16.441406 15.160156 16.441406 L 3.640625 16.441406 z M 16.441406 17.720703 C 16.092376 17.720703 15.800781 18.012304 15.800781 18.361328 C 15.800781 18.710352 16.092376 19 16.441406 19 L 18.361328 19 C 18.710352 19 19 18.710352 19 18.361328 C 19 18.012304 18.710352 17.720703 18.361328 17.720703 L 16.441406 17.720703 z "
     />
</svg>
