<svg xmlns="http://www.w3.org/2000/svg" viewBox="0 0 22 22">
 <defs id="defs3051">
   <style type="text/css" id="current-color-scheme">
     .ColorScheme-Text {
       color:#4d4d4d;
     }
     </style>
 </defs>
   <path
      style="fill:currentColor;fill-opacity:1;stroke:none"
      d="m3.5674267 4.2c-.3147665 0-.5674267.2694441-.5674267.6031279v11.5937501c0 .333684.2526602.603122.5674267.603122h14.8651473c.314771 0 .567426-.269438.567426-.603122v-11.5937501c0-.3336838-.252655-.6031279-.567426-.6031279zm6.7590303 3.2000016h1.347086c-.0022.6845454 0 2.4859404 0 2.4859404h2.184235v1.428121h-2.184235s.001 1.798344 0 2.485941h-1.347086c.001-.687597 0-2.485941 0-2.485941s-1.4610017-.001-2.1842356 0v-1.426558c.7232339-.0022 2.1842356-.0016 2.1842356-.0016s-.001-1.801443 0-2.485941z"
      class="ColorScheme-Text" />
</svg>
