<svg xmlns="http://www.w3.org/2000/svg" viewBox="0 0 22 22">
 <defs id="defs3051">
   <style type="text/css" id="current-color-scheme">
     .ColorScheme-Text {
       color:#4d4d4d;
     }
     </style>
 </defs>
   <path
      style="fill:currentColor;fill-opacity:1;stroke:none"
      d="m12.776875 3.9154473c-.0868.0352-.15513.10277-.19155.18902l-5.54988 13.1236297c-.076.17957.009.38527.18903.46123l.93002.39318c.0439.0187.0893.0277.1361.0277.0451 0 .091-.008.13358-.0252.0868-.0352.15503-.10277.19155-.18903l5.54988-13.1236197c.0759-.17957-.009-.38527-.18903-.46123l-.9275-.39318c-.0861-.0365-.18534-.0376-.2722-.003zm-6.43454 2.42712c-.0894-.0129-.18403.01-.26212.068l-5.26255 3.9343197c-.0891.0666-.14115.17091-.14115.28228 0 .11138.0521.2157.14115.28229l5.26255 3.93683c.0634.0475.13817.0706.21171.0706.10755 0 .21298-.0509.28229-.14367l.60489-.80652c.0561-.0752.0788-.16941.0655-.26212-.0134-.0927-.0637-.17578-.13862-.23187l-3.80326-2.84552 3.80326-2.8429897c.0749-.0561.1252-.13916.13862-.23187.0133-.0927-.009-.18697-.0655-.26212l-.60489-.80905c-.0585-.0781-.14246-.12572-.23188-.13862zm8.51889 0c-.0894.0129-.17598.0606-.23439.13862l-.60237.80905c-.0561.075-.0814.16941-.0681.26212.0134.0926.0636.17578.13862.23187l3.80326 2.8429897-3.80326 2.84551c-.0751.0561-.12521.13927-.13862.23188-.0133.0927.0119.18706.0681.26212l.60237.80652c.0694.0927.17726.14366.2848.14366.0735 0 .14574-.0231.20919-.0706l5.26256-3.93684c.0891-.0666.14114-.17091.14114-.28228 0-.11138-.0521-.2157-.14114-.28228l-5.26256-3.9343197c-.0781-.0584-.17019-.081-.2596-.068zm3.7957 7.3242297v1.77687h-1.77687v.8897h1.77687v1.77687h.88969v-1.77687h1.77687v-.8897h-1.77687v-1.77687z"
      class="ColorScheme-Text" />
</svg> 
