<svg xmlns="http://www.w3.org/2000/svg" viewBox="0 0 22 22">
  <defs id="defs3051">
    <style type="text/css" id="current-color-scheme">
      .ColorScheme-Text {
        color:#4d4d4d
      }
      </style>
  </defs>
 <path 
     style="fill:currentColor;fill-opacity:1;stroke:none"      
	 class="ColorScheme-Text"
        d="m 12.776875,3.9154473 c -0.0868,0.0352 -0.15513,0.10277 -0.19155,0.18902 L 7.035445,17.228097 c -0.076,0.17957 0.009,0.38527 0.18903,0.46123 l 0.93002,0.39318 c 0.0439,0.0187 0.0893,0.0277 0.1361,0.0277 0.0451,0 0.091,-0.008 0.13358,-0.0252 0.0868,-0.0352 0.15503,-0.10277 0.19155,-0.18903 l 5.54988,-13.1236197 c 0.0759,-0.17957 -0.009,-0.38527 -0.18903,-0.46123 l -0.9275,-0.39318 c -0.0861,-0.0365 -0.18534,-0.0376 -0.2722,-0.003 z m -6.43454,2.42712 c -0.0894,-0.0129 -0.18403,0.01 -0.26212,0.068 l -5.26255,3.9343197 c -0.0891,0.0666 -0.14115,0.17091 -0.14115,0.28228 0,0.11138 0.0521,0.2157 0.14115,0.28229 l 5.26255,3.93683 c 0.0634,0.0475 0.13817,0.0706 0.21171,0.0706 0.10755,0 0.21298,-0.0509 0.28229,-0.14367 l 0.60489,-0.80652 c 0.0561,-0.0752 0.0788,-0.16941 0.0655,-0.26212 -0.0134,-0.0927 -0.0637,-0.17578 -0.13862,-0.23187 l -3.80326,-2.84552 3.80326,-2.8429897 c 0.0749,-0.0561 0.1252,-0.13916 0.13862,-0.23187 0.0133,-0.0927 -0.009,-0.18697 -0.0655,-0.26212 l -0.60489,-0.80905 c -0.0585,-0.0781 -0.14246,-0.12572 -0.23188,-0.13862 z m 8.51889,0 c -0.0894,0.0129 -0.17598,0.0606 -0.23439,0.13862 l -0.60237,0.80905 c -0.0561,0.075 -0.0814,0.16941 -0.0681,0.26212 0.0134,0.0926 0.0636,0.17578 0.13862,0.23187 l 3.80326,2.8429897 -3.80326,2.84551 c -0.0751,0.0561 -0.12521,0.13927 -0.13862,0.23188 -0.0133,0.0927 0.0119,0.18706 0.0681,0.26212 l 0.60237,0.80652 c 0.0694,0.0927 0.17726,0.14366 0.2848,0.14366 0.0735,0 0.14574,-0.0231 0.20919,-0.0706 l 5.26256,-3.93684 c 0.0891,-0.0666 0.14114,-0.17091 0.14114,-0.28228 0,-0.11138 -0.0521,-0.2157 -0.14114,-0.28228 l -5.26256,-3.9343197 c -0.0781,-0.0584 -0.17019,-0.081 -0.2596,-0.068 z m 3.7957,7.3242297 0,1.77687 -1.77687,0 0,0.8897 1.77687,0 0,1.77687 0.88969,0 0,-1.77687 1.77687,0 0,-0.8897 -1.77687,0 0,-1.77687 -0.88969,0 z"
     />
</svg>
