<svg xmlns="http://www.w3.org/2000/svg" viewBox="0 0 22 22">
 <defs id="defs3051">
   <style type="text/css" id="current-color-scheme">
     .ColorScheme-Text {
       color:#4d4d4d;
     }
     </style>
 </defs>
   <path
      style="fill:currentColor;fill-opacity:1;stroke:none"
      d="m6.70325 3.126835-3.18593.01c-.10129.00033-.19346.0427-.25963.10937-.0662.0666-.10767.15839-.10737.25977l.0117 3.1875c.00065.20279.16437.36592.36701.36523.20261-.00064.36762-.16443.36701-.36718l-.01-2.82032 2.81891-.01c.2026-.00064.36766-.16643.36701-.36914-.00055-.20278-.16622-.36594-.36895-.36524zm8.54654 0c-.20273-.0007-.36841.16246-.36896.36524-.00064.20271.16246.3685.36506.36914l2.82087.01-.01 2.82032c-.00061.20275.16244.36654.36505.36718.20264.00069.36831-.16244.36896-.36523l.01-3.1875c.0003-.10138-.0412-.19315-.10736-.25977-.0662-.0667-.15641-.10904-.2577-.10937zm-7.72468 3.94922c-.26128 0-.47243.2093-.47243.4707v6.92188c0 .2614.21115.4707.47243.4707h6.91649c.26127 0 .47243-.2093.47243-.4707v-6.92188c0-.2614-.21116-.4707-.47243-.4707zm-2.40506 1.82422c-.10847-.00039-.21847.0395-.30063.12109l-1.69448 1.68555c-.0822.0816-.12455.19092-.12494.29883-.00039.10799.0395.21663.12104.29883l1.68471 1.69726c.16318.16434.43299.16532.59736.002.16424-.16329.16516-.4332.002-.59766l-1.38603-1.39844 1.39579-1.38672c.16418-.1633.16512-.43318.002-.59765-.0816-.0822-.18824-.12266-.29672-.12305zm11.75979 0c-.10847.00039-.21512.0408-.29672.12305-.16317.16447-.16223.43435.002.59765l1.39579 1.38672-1.38602 1.39844c-.16321.16446-.16229.43437.002.59766.16437.16336.43418.16238.59737-.002l1.6847-1.69726c.0816-.0822.12143-.19084.12104-.29883-.00039-.10791-.0428-.2172-.12493-.29883l-1.69448-1.68555c-.0822-.0816-.19217-.12148-.30064-.12109zm-13.37813 6.03906c-.20264-.00069-.36831.1644-.36896.36719l-.01 3.1875c-.0003.10138.0393.19314.10542.25977.0662.0667.15834.10709.25963.10742l3.18592.01c.20273.0007.36841-.16245.36896-.36523.00065-.20271-.16245-.36655-.36505-.36719l-2.82087-.01.01-2.82032c.00061-.20275-.16244-.3685-.36505-.36914zm14.89301 0c-.20261.00064-.36761.16639-.367.36914l.01 2.82032-2.81892.01c-.2026.00064-.36765.16448-.367.36719.00055.20278.16623.36789.36896.36719l3.18592-.0117c.10129-.00033.19346-.0407.25963-.10742.0662-.0666.10767-.15839.10737-.25977l-.0117-3.1875c-.00065-.20279-.16436-.36788-.367-.36719z"
      class="ColorScheme-Text" />
</svg> 
