<svg xmlns="http://www.w3.org/2000/svg" viewBox="0 0 22 22">
 <defs id="defs3051">
   <style type="text/css" id="current-color-scheme">
     .ColorScheme-Text {
       color:#4d4d4d;
     }
     </style>
 </defs>
   <path
      style="fill:currentColor;fill-opacity:1;stroke:none"
      d="m6.625 3-3.2519531.0097656c-.10335.00033-.1961719.0435281-.2636719.1113282-.06759.0677699-.109675.1605318-.109375.2636718l.0097656 3.2421875c.00066.2063.1702031.3737469.3769532.3730469.2067299-.00066.3736568-.16875.3730468-.375l-.0097656-2.8691406 2.8769531-.0097656c.20671-.0006501.3736969-.1668269.3730469-.3730469-.00057-.20629-.16813-.3737569-.375-.3730469zm8.75 0c-.20686-.00071-.37444.1667569-.375.3730469-.00065.20622.166337.3723968.373047.3730469l2.876953.0097656-.009766 2.8691406c-.00061.20625.166327.37434.373047.375.20676.0007.376293-.1667469.376953-.3730469l.009766-3.2421875c.0003-.10314-.041785-.1959019-.109375-.2636718-.0675-.0678001-.160322-.1109982-.263672-.1113282zm-1.974609 2c-.2216 0-.400391.1787905-.400391.4003906v11.1992184c0 .2216.178791.400391.400391.400391h3.199218c.2216 0 .400391-.178791.400391-.400391v-11.1992184c0-.2216001-.178791-.4003906-.400391-.4003906zm-8.0000004 3c-.2215998 0-.4003906.1787908-.4003906.4003906v5.1992184c0 .2216.1787908.400391.4003906.400391h2.1992188c.2215998 0 .4003906-.178791.4003906-.400391v-5.1992184c0-.2215998-.1787908-.4003906-.4003906-.4003906zm5.0097654.9941406c-.104731-.00008-.208777.0393575-.289062.1171875h-.001953c-.1610304.15543-.1596572.4197688.001953.5742188l1.36914 1.3085941-1.359375 1.316406c-.1610596.15546-.1597565.419819.001953.574219.16162.15499.419419.153796.580079-.001954l1.615234-1.564453.042969-.041015c.08-.0777.12539-.18273.125-.28711-.00032-.10422-.044-.207926-.125-.285156l-1.671875-1.5937499c-.08086-.07751-.184331-.1171075-.289063-.1171875zm-7.0234372 6.0058594c-.2067501-.0007-.3762932.166757-.3769532.373047l-.0097656 3.242187c-.0003.10313.041785.195892.109375.263672.0675.0678.1603219.110998.2636719.111328l3.2519531.009766c.20686.00071.37443-.166747.375-.373047.00065-.20621-.1663469-.372397-.3730469-.373047l-2.8769531-.009765.0097656-2.869141c.00062-.20624-.1663169-.37433-.3730468-.375zm15.2265622 0c-.20672.00067-.373657.16876-.373047.375l.009766 2.869141-2.876953.009765c-.20671.00065-.373697.166837-.373047.373047.00056.2063.16814.373757.375.373047l3.251953-.009766c.10335-.00033.196172-.043528.263672-.111328.06759-.06778.109675-.160542.109375-.263672l-.009766-3.242187c-.00066-.20629-.170193-.373747-.376953-.373047z"
      class="ColorScheme-Text" />
</svg> 
