<svg viewBox="0 0 16 16" xmlns="http://www.w3.org/2000/svg"><path d="m7.9999513 2c3.3084887 0 6.0000487 2.6915624 6.0000487 6 0 3.308438-2.691532 6-6.0000187 6-3.3084569 0-5.9999813-2.691562-5.9999813-6 0-3.3084376 2.6915244-6 5.9999513-6zm0 2.028165c-.7278135 0-1.410394.1969574-1.9976413.54009l5.429422 5.4293694c.343166-.5872188.540124-1.2698244.540124-1.9976244 0-2.1900976-1.781819-3.971835-3.9719047-3.971835zm0 7.943677c.7278284 0 1.4103867-.196956 1.9976417-.540089l-5.4294221-5.4293706c-.3431353.587235-.5400945 1.2698176-.5400945 1.9976176 0 2.190098 1.781827 3.971842 3.9718749 3.971842z" fill="#bebebe"/></svg>