<svg viewBox="0 0 16 16" xmlns="http://www.w3.org/2000/svg"><path d="m8 2a6.0000003 6.0000008 0 0 0 -6 6 6.0000003 6.0000008 0 0 0 6 6 6.0000003 6.0000008 0 0 0 6-6 6.0000003 6.0000008 0 0 0 -6-6zm-.013393 2.7606027c.8119068 0 1.5117188.5498789 1.5117188 1.6004464 0 .6832397-.3212085 1.3784319-.7399554 1.8097099h.00335c-.160642.4883204.096605.6027696.1372767.6160714.9732428.3343636 2.2037969 1.1686456 2.1763399 2.4525666h-6.1506702c-.0246385-1.34402 1.5319277-2.2674569 2.1043511-2.4525666.0613918-.0222549.3550713-.1819574.1908482-.6127233-.4213015-.4302542-.7399554-1.1270045-.7399554-1.813058 0-1.0508233.6942781-1.6004464 1.5066964-1.6004464z" fill="#bebebe"/></svg>