<svg viewBox="0 0 16 16" xmlns="http://www.w3.org/2000/svg"><path d="m9.333394 2.0000002c-.2674856 0-.5342968.103509-.7385041.3105369l-5.2918897 4.8719118c-.2205903.22426-.3190808.5241752-.3008719.817356-.018188.2936961.080191.5916097.3008719.8158913l5.2918897 4.8733768c.4084152.414569 1.0700329.414569 1.4784471 0 .408415-.414563.408415-1.086855 0-1.501417l-4.5490674-4.1878511 4.5490674-4.1893167c.408415-.4145719.408415-1.0858747 0-1.4999511-.2042069-.2070279-.4724574-.3105369-.739943-.3105369zm1.946311 4.2581622c-.950019 0-1.7202982.7820153-1.7202982 1.747501 0 .9654872.7702792 1.7489671 1.7202982 1.7489671.950016 0 1.720295-.7834799 1.720295-1.7489671 0-.9654857-.770279-1.747501-1.720295-1.747501z" fill="#bebebe"/></svg>