<svg viewBox="0 0 16 16" xmlns="http://www.w3.org/2000/svg"><path d="m6.6666069 2.0000002c.2674852 0 .5342963.103509.7385037.3105369l5.2918894 4.8719113c.220591.2242601.31908.5241753.300873.8173561.01819.293696-.08019.5916096-.300873.8158913l-5.2918894 4.8733772c-.4084149.41457-1.0700327.41457-1.4784468 0-.4084155-.414563-.4084155-1.086855 0-1.501417l4.5490662-4.1878515-4.5490662-4.1893163c-.4084155-.4145719-.4084155-1.0858748 0-1.4999511.2042068-.2070279.4724572-.3105369.7399431-.3105369zm-1.9463112 4.2581622c.9500185 0 1.7202977.7820148 1.7202977 1.7475005 0 .9654873-.7702792 1.7489676-1.7202977 1.7489676-.9500165 0-1.7202957-.7834803-1.7202957-1.7489676 0-.9654857.7702792-1.7475005 1.7202957-1.7475005z" fill="#bebebe"/></svg>