<svg viewBox="0 0 16 16" xmlns="http://www.w3.org/2000/svg"><path d="m2.846473 2.0003983v1.5999469h4.7800831c.3411066 0 .7966805.4912957.7966805.7999734v.7999735h-3.9834026c-.7323644 0-1.3827186.3071578-1.7925311.7749743-.4098124.4678165-.6026012 1.0484692-.5975104 1.6249461.00478.5764768.2142513 1.1621293.6224067 1.6249455.4081554.462817 1.0440258.774975 1.7676348.774975h3.9834026.7966804.796681v-.799974-.7999731-3.9998673c.000072-1.3074285-1.0514594-2.3999203-2.3900419-2.3999203zm1.593361 4.7998407h3.9834026v1.5999469h-3.9834026c-.3169753 0-.4516461-.087829-.5726141-.2249925s-.2220905-.3514844-.2240664-.5749809c-.0015933-.2234967.0833886-.4428174.1991701-.574981.1157816-.1321636.2610245-.2249925.5975104-.2249925zm6.373444 2.39992s.000017.888864 0 1.599947h-8.813278v1.599947h8.813278c-.000003.711089-.00004 1.599929 0 1.599947l3.186722-2.39992z" fill="#bebebe"/></svg>