<svg viewBox="0 0 16 16" xmlns="http://www.w3.org/2000/svg"><path d="m2.0103093 2.0000003v10.2691417 1.200072a.43832864.43799867 0 0 0 0 .18887v.322581h.2994078a.43832864.43799867 0 0 0  .257591 0h1.1558143 10.2768776v-1.711523h-10.2768776v-1.350499c.1057023-.205918.2123663-.412022.3479151-.60505.6992902-.9957647 1.8148539-1.8366789 3.9876427-2.2731174 2.2899448-.4600234 3.6231138-1.2765401 4.3355588-2.2998599.71247-1.02332.764976-2.2031589.749355-3.262592a.42824607.4279237 0 0 0 -.480056-.4278809v.00167a.42824607.4279237 0 0 0 -.37635.4529508c.0149 1.0113407-.03657 1.9612791-.588779 2.7544847-.55222.793147-1.636422 1.4907384-3.800305 1.9254654-2.0111125.4039956-3.3219761 1.1879892-4.1749816 2.1511046v-7.335818z" fill="#bebebe"/><path d="m13.140249 2.8524195c-.783184 2.013094-.66971 4.3171472-5.1384394 5.134571-4.4863711.9814732-5.0765155 3.2604285-5.563297 5.5741515l10.7017364.03844v-10.7471655z" fill="#bebebe" fill-opacity=".5"/></svg>