<svg viewBox="0 0 16 16" xmlns="http://www.w3.org/2000/svg"><path d="m5.7500001 2c-2.0775001 0-3.7500001 1.6714797-3.7500001 3.7477125s1.6725 3.7477125 3.7500001 3.7477125h1.5v-1.499085h-1.5c-1.2465001 0-2.2500001-1.0028879-2.2500001-2.2486275 0-1.2457398 1.0035-2.2486275 2.2500001-2.2486275h1.5v-1.499085zm3 0v1.499085h1.4999999c1.2465 0 2.250001 1.0028877 2.250001 2.2486275 0 1.2457396-1.003501 2.2486275-2.250001 2.2486275h-1.4999999v1.499085h1.4999999c2.0775 0 3.75-1.6714797 3.75-3.7477125s-1.6725-3.7477125-3.75-3.7477125zm-3 2.9981699v1.499085h4.4999999v-1.499085zm0 6.0036601 2.2499999 2.99817 2.25-2.99817z" fill="#bebebe"/></svg>