<svg viewBox="0 0 16 16" xmlns="http://www.w3.org/2000/svg"><path d="m8 2c-3.313714 0-6 2.6862857-6 6 0 3.313714 2.686286 6 6 6s6-2.686286 6-6c0-3.3137143-2.686286-6-6-6zm-2.1875 3.4375c.5602 0 1.1203875.5110031 1.4921875 1.5332031.0368.1028-.1542.2885-.25.1875-.3604-.3802-.7923875-.53125-1.2421875-.53125-.45 0-.8798344.15105-1.2402344.53125-.096.101-.2887531-.0845-.2519531-.1875.3716-1.0222.9319875-1.5332031 1.4921875-1.5332031zm4.375 0c .56 0 1.120188.5108031 1.492188 1.5332031.036799.1028-.156154.2885-.251954.1875-.3606-.3802-.790234-.53125-1.240234-.53125s-.8815875.15105-1.2421875.53125c-.0958.101-.2868-.0845-.25-.1875.3718-1.0222.9319875-1.5332031 1.4921875-1.5332031zm-4.8417969 4.1796875c.0416313-.0063188.0882188.0052125.1367188.0390625 1.6124 1.1246 3.4131562 1.1312 5.0351561 0 .194-.1352.367928.0978531.236328.3144531-.4916.8091999-1.483106 1.5312499-2.753906 1.5312499s-2.2623062-.72185-2.7539062-1.5312499c-.0987001-.16245-.0252844-.3345593.0996093-.3535156z" fill="#bebebe"/></svg>