<svg viewBox="0 0 16 16" xmlns="http://www.w3.org/2000/svg"><path d="m7.9998571 2v1.7142857c-2.8403228 0-5.1428571 2.3025343-5.1428571 5.1428572 0 2.8403231 2.3025343 5.1428571 5.1428571 5.1428571 2.8114799 0 5.0917209-2.257004 5.1378349-5.0574777a.85714286.85714286 0 0 0  .005-.085379.85714286.85714286 0 0 0 -.857121-.8571433.85714286.85714286 0 0 0 -.857142.8571429c0 1.8935481-1.5350233 3.4285711-3.4285719 3.4285711-1.8935485 0-3.4285714-1.535023-3.4285714-3.4285711 0-1.8935486 1.5350229-3.4285715 3.4285714-3.4285715v1.7142857l3.4285719-2.5714285z" fill="#bebebe"/></svg>