<svg viewBox="0 0 16 16" xmlns="http://www.w3.org/2000/svg"><path d="m8.0118116 12.9175c1.03626 0 1.8816718-.847086 1.8816718-1.88334 0-1.036291-.8454118-1.8833388-1.8816718-1.8833388-1.0362857 0-1.8833345.8470478-1.8833345 1.8833388 0 1.036254.8470488 1.88334 1.8833345 1.88334zm4.8414394-2.671831c.293755.001.587373-.110194.810253-.331467.22293-.221261.335428-.513131.336491-.8069075.000857-.293798-.108478-.5890068-.329789-.811928l-4.8397679-4.8749188c-.2212763-.2227763-.5162743-.3371087-.8085809-.3381629-.292538-.0008572-.587416.111941-.8102523.3331402l-4.8749194 4.8397636c-.4459984.4425698-.4495126 1.1731254-.00686 1.6188354.4425698.445672 1.1747891.449239 1.6205046.0067l4.0613101-4.0328707 4.0328588 4.0613167c.221319.222838.514826.335431.808581.33649z" fill="#bebebe"/></svg>