<svg viewBox="0 0 16 16" xmlns="http://www.w3.org/2000/svg"><path d="m7.1328122 2.0000007c-.1510296 0-.2448112.073439-.28125.219308-.0676997.2603485-.1426744.7447735-.2260044 1.4531249-.2448119.0782572-.4823141.1765484-.7114956.296317l-1.0781248-.8353795c-.0677-.052028-.1348674-.078683-.202567-.078683-.1145908 0-.3606592.1867145-.7382812.5591517-.3776221.3724458-.6345941.6512534-.7700892.8387277-.046891.067715-.070312.1287321-.070312.1808036 0 .062486.026614.1250743.078683.1874999.34895.4219286.6270061.7811507.8353791 1.0781249-.1302213.2395372-.23181.4786548-.3046877.7181921l-1.4531249.2193079c-.0572477.0104572-.1072826.0431208-.1489956.1004464-.0417111.0572572-.0619419.1183779-.0619419.1808036v1.7343749c0 .0678.020229.1278176.061942.1824772.041713.05477.096363.08842.1640625.09877l1.4296874.210937c.072878.255163.1807552.513089.3214285.773437-.093686.130218-.2344064.313739-.4218749.550781-.1874686.237044-.3203815.40956-.3984374.518975-.041713.05743-.063616.116608-.063616.179128 0 .06772.018806.128733.055246.180804.203099.281349.6327787.718835 1.2890624 1.312501.057344.05734.1229928.08538.1958706.08538.078152 0 .1421272-.02352.1941963-.07032l1.1015614-.835371c.2136471.109414.4479568.204519.703125.287945l.219308 1.438058c.00527.06772.035744.123114.090402.167411.0546585.044402.1179706.066966.1908484.066966h1.7343749c.1512215 0 .2447152-.07344.2812501-.219307.067604-.260443.1426744-.744775.2260043-1.453126.2448119-.07817.4824098-.176549.7114955-.296317l1.078125.84375c.07287.0468.141816.07032.204241.07032.114495 0 .358322-.184272.733259-.554129.375128-.369755.632956-.651005.773438-.843751.04689-.05203.07031-.113097.07031-.180803 0-.06772-.02652-.131873-.07868-.194197-.374937-.458365-.652993-.817682-.835379-1.078124.104138-.192746.205727-.43025.304688-.711496l1.444756-.219312c.06243-.01046.11575-.04311.157366-.100447.04161-.057346.061939-.1183805.061939-.1808063v-1.7343749c.000095-.067714-.02013-.1277233-.06194-.1824776-.04181-.054772-.09636-.088418-.164062-.098772l-1.429688-.217634c-.07816-.2499857-.186029-.5062981-.321428-.766741.09369-.1302171.234406-.3137383.421875-.5507812.187468-.2370429.320286-.4095589.398438-.5189732.04171-.057343.06362-.1166094.06362-.1791294 0-.072857-.01872-.1307246-.05524-.172433-.187469-.2657144-.617148-.7077242-1.289062-1.327567-.06233-.052028-.128267-.078683-.195871-.078683-.07816 0-.140609.023512-.1875.070312l-1.108272.8353796c-.2136466-.1094142-.4479567-.2046149-.7031249-.2879464l-.2193079-1.4380579c-.0051773-.0677144-.0357439-.1231136-.0904019-.1674107-.0547543-.0443144-.1177786-.0669643-.1908482-.0669643zm.8671875 3.9994417c.5521452 0 1.024053.1953718 1.4146204.5859375.3905673.3906686.5859369.8624747.5859369 1.4146204 0 .5521458-.1953696 1.0240547-.5859369 1.4146207-.3905674.39066-.8624752.585937-1.4146204.585937s-1.0239572-.195277-1.4146204-.585937c-.3905675-.390566-.5859376-.8624749-.5859376-1.4146207 0-.5521457.1952742-1.0239518.5859376-1.4146204.3906632-.3905657.8625711-.5859375 1.4146204-.5859375z" fill="#bebebe"/></svg>