<svg viewBox="0 0 16 16" xmlns="http://www.w3.org/2000/svg"><path d="m7.9999995 4.3999991v6.0619169.754792h.7912561 1.5825124c.742633 0 1.410406-.288559 1.82978-.731205.419374-.442645.601259-1.0058948.593442-1.5567565-.00792-.5508617-.226031-1.0975215-.642896-1.5331697s-1.05154-.731204-1.780326-.731204h-.7912563v-2.2643737zm-4.7475365.7547912v1.5095825h2.299588c-.043678 0 .074141.1290972.074141.070762v.7076168h-.7912561c-1.3577005 0-2.4037331.8377125-2.4232218 1.8633908-.00973.5128386.2528064 1.0214066.6923491 1.3680586s1.0362211.542507 1.7308727.542507h1.5825121.7912561v-.754792-3.7267812c0-.8761556-.6977217-1.5682742-1.6319657-1.5803442h-.024687-2.299588zm6.3300487 3.0191649h.7912563c.333744 0 .490301.1022403.618168.2358723.127868.133632.219582.3343272.222541.5425062.0032.208179-.07786.3922839-.197813.5189189-.119979.1266352-.2799.2358724-.642896.2358724h-.7912563zm-4.7475365.7783785h.7912561v.7547913h-.7912561c-.4109863 0-.6172668-.1099837-.7170758-.1886979-.0998091-.0787142-.1246624-.1343807-.1236338-.1886978.002376-.1086333.0733496-.3773956.8407096-.3773956zm-.7912561 2.4530713-.2719943.283047-1.5825122 1.509582a.3956676.37743335 0 1 0  .5439886.51892l1.3105179-1.250124 1.3105179 1.250124.2719943.283046.2719943-.283046 1.3105178-1.250124 1.3105179 1.250124.2719943.283046.2719942-.283046 1.3105182-1.250124 1.310518 1.250124.271994.283046.271994-.283046 1.582513-1.509583a.3956676.37743335 0 1 0 -.543989-.518919l-1.310518 1.250123-1.310518-1.250123-.271994-.283047-.271995.283047-1.3105174 1.250123-1.3105179-1.250123-.2719943-.283047-.2719942.283047-1.3105179 1.250123-1.3105179-1.250123z" fill="#bebebe"/></svg>