<svg height="16" viewBox="0 0 16 16" width="16" xmlns="http://www.w3.org/2000/svg"><path d="m7.9999997 1.9999995a5.9999998 5.9999998 0 0 0 -5.9999997 6 5.9999998 5.9999998 0 0 0 5.9999997 6.0000005 5.9999998 5.9999998 0 0 0 6.0000003-6.0000005 5.9999998 5.9999998 0 0 0 -6.0000003-6zm-2.0428428 3c .6964152.6577902 1.3622509 1.3476782 2.0428428 2.0216734.680586-.6740297 1.346434-1.3638212 2.0428433-2.0216734l.957157.9571572c-.657817.6964424-1.3476653 1.3622373-2.0216737 2.0428428.6740284.680586 1.3638217 1.3464345 2.0216737 2.0428435l-.957157.957157c-.6964443-.657818-1.362237-1.347665-2.0428433-2.021673-.680585.674028-1.3464338 1.363821-2.0428428 2.021673l-.9571572-.957157c.6578179-.696444 1.3476646-1.3622375 2.0216734-2.0428435-.6740293-.6805851-1.3638216-1.346434-2.0216734-2.0428428z" fill="#da4453"/></svg>