<svg viewBox="0 0 16 16" xmlns="http://www.w3.org/2000/svg"><path d="m8 2a6.0000003 6.0000003 0 0 0 -6 6 6.0000003 6.0000003 0 0 0 6 6 6.0000003 6.0000003 0 0 0 6-6 6.0000003 6.0000003 0 0 0 -6-6zm2.791332 2.9122988c.200238-.011025.353025.1414957.341733.341733l-.185988 3.5761087c-.0108.1997483-.181283.3735487-.381048.3840735v-.003c-.096.0077-.19231-.019837-.261594-.089214l-3.38256-3.388608c-.0678375-.0679275-.0980632-.159504-.0907252-.2540318v-.00757c.010327-.2002168.18081-.370997.381048-.3810432l3.5625002-.1723786.01664-.00608zm-5.3573602 1.876512v.003c.096001-.00772.1923082.01983.2615924.089213l3.3825612 3.388611c.067838.06793.098078.159503.090725.254031l.00146.006c-.010331.200222-.1823238.371002-.38256.381048l-3.5609878.173891-.018142.003c-.2002334.0110392-.3530211-.1414858-.3417291-.3417228l.1860263-3.5761088c.0108-.1997497.1812824-.3705224.381048-.381048z" fill="#bebebe"/></svg>