<svg enable-background="new" height="16.000008" width="16.000183" xmlns="http://www.w3.org/2000/svg" xmlns:xlink="http://www.w3.org/1999/xlink"><filter id="a" color-interpolation-filters="sRGB"><feBlend in2="BackgroundImage" mode="darken"/></filter><g filter="url(#a)" transform="translate(-745.00017 139.00336)"/><path d="m753.0002-138.00391c-3.86599 0-7 3.13401-7 7s3.13401 7 7 7 7-3.13401 7-7-3.13401-7-7-7zm-3 4.00391c.55407 0 1 .44945 1 1 0 .55064-.44593 1-1 1-.55424 0-1-.44936-1-1 0-.55055.44576-1 1-1zm6 0c .55415 0 1 .44945 1 1 0 .55064-.44585 1-1 1-.55407 0-1-.44936-1-1 0-.55055.44593-1 1-1zm-7 3.99609 4 1 4-1c .0206.14762.0192.27798 0 .40625-.0576.38481-.27337.6646-.65625.75l-1.34375.34375 1.3125.3125c.53601.14363.6606.49922.6875.84375.009.11484 0 .23785 0 .34375l-4-1-4 1c-.0655-.63125.0484-.97818.53125-1.125l1.46875-.375-1.5-.34375c-.4745-.12796-.5831-.67248-.5-1.15625z" fill="#bebebe" transform="translate(-745.00017 139.00336)"/></svg>