<svg enable-background="new" height="16" width="16" xmlns="http://www.w3.org/2000/svg" xmlns:xlink="http://www.w3.org/1999/xlink"><filter id="a" color-interpolation-filters="sRGB"><feBlend in2="BackgroundImage" mode="darken"/></filter><g filter="url(#a)" transform="translate(-765.00019 139.00335)"/><path d="m773.0002-138.00391c-3.86599 0-7 3.13401-7 7s3.13401 7 7 7 7-3.13401 7-7-3.13401-7-7-7zm-3 4.00391c.55407 0 1 .44945 1 1 0 .55064-.44593 1-1 1-.55424 0-1-.44936-1-1 0-.55055.44576-1 1-1zm6 0c .55415 0 1 .44945 1 1 0 .55064-.44585 1-1 1-.55407 0-1-.44936-1-1 0-.55055.44593-1 1-1zm-4.9375 4.49609c.755-.1008 1.6036.19715 2.375.96875.5861.5855.9858.64875 1.375.59375.389-.0549.81685-.2948 1.21875-.625.61464-.79126 1.64225.45043.75.90625-.4692.3853-1.0575.79975-1.8125.90625-.7548.1067-1.63055-.1618-2.40625-.9375-.5901-.5906-.96425-.676-1.34375-.625-.3795.0507-.8294.30655-1.25.65625-.61464.79126-1.64225-.45043-.75-.90625.4882-.406 1.08875-.8368 1.84375-.9375z" fill="#bebebe" transform="translate(-765.00019 139.00335)"/></svg>