<svg height="48" width="48" xmlns="http://www.w3.org/2000/svg" xmlns:xlink="http://www.w3.org/1999/xlink"><linearGradient id="a" gradientUnits="userSpaceOnUse" x1="399.57144" x2="399.57144" y1="545.79797" y2="517.79797"><stop offset="0" stop-color="#3889e9"/><stop offset="1" stop-color="#5ea5fb"/></linearGradient><linearGradient id="b" gradientUnits="userSpaceOnUse" x1="399.9939" x2="399.9939" y1="545.13873" y2="518.13873"><stop offset="0" stop-color="#ff6835"/><stop offset="1" stop-color="#ff956f"/></linearGradient><g stroke-width="1.299897" transform="matrix(1.571433279788 0 0 1.571433279788 -605.471198616592 -811.684938439713)"><circle cx="400.57138" cy="531.79791" fill="url(#b)" r="13.999958"/><circle cx="400.57138" cy="531.79791" fill="url(#a)" r="0"/></g><path d="m681.42688 785.06074c-.14737-.01-.29263-.008-.43574.002-.95408.0674-1.83761.59592-2.35216 1.48696-.82028 1.42414-.32925 3.23372 1.09784 4.05701 1.42413.82027 3.23674.34348 4.05701-1.08516.82318-1.4197.35174-3.26286-1.07242-4.08452-.40135-.23084-.85244-.34884-1.2945-.37651zm-7.81577 3.15596c-2.05878 0-3.98423.4863-5.71107 1.34314l2.06873 3.73546c1.11418-.52027 2.33527-.82704 3.64245-.82704 4.55031 0 8.30593 3.48193 8.69776 7.93425l4.22412-.0529c-.21058-3.28115-1.64616-6.23264-3.84973-8.39961-1.13465.42562-2.42331.36038-3.55353-.29613-1.13021-.65359-1.84521-1.74601-2.04123-2.94651-1.10249-.3027-2.27992-.49072-3.47739-.49072zm-7.17063 2.18289c-2.6085 1.74146-4.52953 4.41407-5.33669 7.53441.94458.76763 1.51241 1.91539 1.51241 3.22993 0 1.30566-.56635 2.49608-1.51241 3.26805.80715 3.11881 2.72819 5.78028 5.33669 7.52173l2.18223-3.67027c-2.23853-1.57327-3.69527-4.17506-3.69527-7.11984 0-2.9478 1.45674-5.54646 3.69527-7.11983zm-7.99977 7.79249c-1.64788 0-2.97185 1.32396-2.97185 2.97185 0 1.64204 1.32397 2.97185 2.97185 2.97185 1.64929 0 2.98668-1.32981 2.98668-2.97185 0-1.64789-1.33739-2.97185-2.98668-2.97185zm23.86816 3.76092c-.39186 4.44505-4.14743 7.93425-8.69776 7.93425-1.30868 0-2.52826-.29376-3.64244-.81436l-2.06875 3.70796c1.72684.85979 3.65241 1.33046 5.71107 1.33046 1.19758 0 2.37491-.15984 3.4774-.46535.19594-1.19898.90949-2.28794 2.04125-2.94445 1.13323-.65348 2.41896-.71691 3.55351-.28555 2.20357-2.16989 3.63898-5.11554 3.84973-8.39961zm-1.30513 9.39369c-.4312.0367-.86646.18017-1.26699.41248-1.42696.81744-1.91809 2.62312-1.09784 4.04433.82325 1.42859 2.65681 1.90749 4.08236 1.08722 1.42587-.82177 1.89557-2.63492 1.07242-4.05906-.51451-.89099-1.4106-1.41776-2.36483-1.4849-.14329-.0119-.28156-.0119-.42515 0z" fill="#fff" fill-opacity=".85" stroke-width=".946083" transform="matrix(1.00000000118 0 0 1.00000000118 -649.429083551637 -776.744127526038)"/></svg>