<svg height="48" viewBox="0 0 48 48" width="48" xmlns="http://www.w3.org/2000/svg" xmlns:xlink="http://www.w3.org/1999/xlink"><filter id="a" color-interpolation-filters="sRGB" height="1.099489" width="1.056413" x="-.028207" y="-.049744"><feGaussianBlur stdDeviation="5.8998423"/></filter><linearGradient id="b" gradientUnits="userSpaceOnUse" x1="13.921029831273" x2="13.524684385606" xlink:href="#c" y1="39.852323748937" y2="8.305117441259"/><linearGradient id="c"><stop offset="0" stop-color="#00d4aa"/><stop offset="1" stop-color="#13ffaf"/></linearGradient><linearGradient id="d"><stop offset="0" stop-color="#ccc"/><stop offset="1" stop-color="#e6e6e6"/></linearGradient><linearGradient id="e" gradientUnits="userSpaceOnUse" x1="22.09865138425" x2="22.003916697133" xlink:href="#d" y1="39.567831542419" y2="11.944369840691"/><linearGradient id="f" gradientTransform="matrix(.82970355 0 0 .87402304 44.868948 7.045139)" gradientUnits="userSpaceOnUse" x1="-33.88871" x2="-34.502491" y1="37.608711" y2="2.822808"><stop offset="0" stop-color="#ccc"/><stop offset="1" stop-color="#f5f2f5"/></linearGradient><linearGradient id="g" gradientTransform="matrix(.85071011 0 0 .87172595 45.339098 8.461861)" gradientUnits="userSpaceOnUse" x1="-28.57406" x2="-28.685703" xlink:href="#c" y1="36.068886" y2="3.671537"/><linearGradient id="h" gradientUnits="userSpaceOnUse" x1="18.02523" x2="17.593777" xlink:href="#d" y1="39.75425" y2="9.648277"/><linearGradient id="i"><stop offset="0" stop-color="#3889e9"/><stop offset="1" stop-color="#5ea5fb"/></linearGradient><linearGradient id="j" gradientUnits="userSpaceOnUse" x1="-53.904202151312" x2="-53.904202151312" xlink:href="#i" y1="37.308015311794" y2="-3.131270288206"/><linearGradient id="k" gradientUnits="userSpaceOnUse" x1="-.264741399888" x2="-.264741399888" xlink:href="#i" y1="34.057533970106" y2="-7.802740429894"/><linearGradient id="l" gradientUnits="userSpaceOnUse" x1="-140.271003565256" x2="-140.271003565256" xlink:href="#i" y1="37.170842246097" y2="-10.199280553903"/><linearGradient id="m" gradientUnits="userSpaceOnUse" x1="42.606418600112" x2="42.606418600112" xlink:href="#i" y1="36.467973970106" y2="-5.392300429894"/><linearGradient id="n" gradientUnits="userSpaceOnUse" x1="-11.561331399888" x2="-11.561331399888" xlink:href="#i" y1="39.968683970106" y2="-1.891590429894"/><path d="m6.5439662 11.656278c-.7351528 0-1.3263212.592871-1.3263212 1.328021v25.543597c0 .735152.5911684 1.328023 1.3263212 1.328023h17.2064738 1.205593 17.206474c.735152 0 1.326322-.592871 1.326322-1.328023v-25.543597c0-.73515-.59117-1.328021-1.326322-1.328021h-17.206474-1.205593z" fill="url(#e)"/><path d="m18.474468 8.0205511c-.102628-.00269-.226588.00157-.387735.00157h-12.1689132c-.3815126 0-.6891325.3097891-.6891325.6938416v4.2289813c-.0005648.016-.00471.03095-.00471.04709v25.576381c0 .736091.5935103 1.329602 1.3296009 1.329602h35.6983098c.736093 0 1.328033-.593511 1.328033-1.329602v-25.576378c0-.736092-.59194-1.329602-1.328033-1.329602h-21.316008c-.01268-.0169-.02114-.02595-.03454-.04395-.491861-.662668-1.234682-2.4492081-1.718902-3.0956048-.2915-.4244578-.400085-.4942592-.707971-.5023288z" fill="url(#b)"/><path d="m7.499159 9.4566879h9.738435c.277 0 .5.223.5.5v1.1090001c0 .277-.223.5-.5.5h-9.738435c-.2770001 0-.5-.223-.5-.5v-1.1090001c0-.277.2229999-.5.5-.5z" fill="url(#h)"/><path d="m5.5804566 12.850769c-.6383882 0-1.1951591.543892-1.1517441 1.21482l1.5120334 23.366264c.043421.670931.5133569 1.214822 1.1517441 1.214822h14.94167 4.377195 14.941671c.638388 0 1.108331-.543891 1.151746-1.214822l1.512033-23.366264c.0434-.670928-.513358-1.21482-1.151744-1.21482h-16.453706-4.377195z" fill="url(#f)"/><path d="m28.241425 148.07206c-12.87594 0-23.24141 9.6069-23.24141 21.54052l16 244.76159v7.4003c0 6.06398 5.26673 10.94526 11.80953 10.94526h446.379045c6.54281 0 11.81139-4.88128 11.81139-10.94526l15.998-252.16189c0-11.93362-10.36547-21.54052-23.24141-21.54052h-455.515295z" fill-rule="evenodd" filter="url(#a)" opacity=".3" transform="matrix(.07561882 0 0 .07969348 4.839513 2.856494)"/><path d="m5.1236901 14.591215c-.6545516 0-1.2143558.541818-1.1809047 1.211627l1.1469427 22.96587c.033451.669811.526354 1.211629 1.1809047 1.211629h15.6555402 4.488019l16.039057-.04794c.654549-.002 1.154618-.541498 1.180906-1.211629l.89902-22.917931c.02629-.670129-.526354-1.211627-1.180904-1.211627h-16.870282-4.488019z" fill="url(#g)"/><circle cx="-52.460045" cy="17.088257" fill="url(#j)" r="0"/><g stroke-width=".073986"><text opacity=".8" x="534.47894" y="3.384629"><tspan stroke-width=".073986" x="534.47894" y="3.384629"/></text><text opacity=".8" x="555.61273" y="-32.549938"><tspan stroke-width=".073986" x="555.61273" y="-32.549938"/></text><text opacity=".8" x="-741.4328" y="-59.079132"><tspan stroke-width=".073986" x="-741.4328" y="-59.079132"/></text><text opacity=".8" x="-2349.9402" y="598.50562"><tspan stroke-width=".073986" x="-2349.9402" y="598.50562"/></text><text opacity=".8" x="-640.45068" y="-398.9357"><tspan stroke-width=".073986" x="-640.45068" y="-398.9357"/></text><text opacity=".8" x="71.861641" y="-763.62006"><tspan stroke-width=".073986" x="71.861641" y="-763.62006"/></text><text opacity=".8" x="92.995415" y="-799.55469"><tspan stroke-width=".073986" x="92.995415" y="-799.55469"/></text><text opacity=".8" x="-1222.4885" y="-805.91382"><tspan stroke-width=".073986" x="-1222.4885" y="-805.91382"/></text><text opacity=".8" x="65.723335" y="-1046.9088"><tspan stroke-width=".073986" x="65.723335" y="-1046.9088"/></text><text opacity=".8" x="1376.4977" y="-494.16135"><tspan stroke-width=".073986" x="1376.4977" y="-494.16135"/></text><text opacity=".8" x="1397.6312" y="-530.09589"><tspan stroke-width=".073986" x="1397.6312" y="-530.09589"/></text><text opacity=".8" x="82.147362" y="-536.45514"><tspan stroke-width=".073986" x="82.147362" y="-536.45514"/></text><text opacity=".8" x="1370.3593" y="-777.44995"><tspan stroke-width=".073986" x="1370.3593" y="-777.44995"/></text><text opacity=".8" x="-745.01495" y="-578.87213"><tspan stroke-width=".073986" x="-745.01495" y="-578.87213"/></text><text opacity=".8" x="-2353.522" y="78.712845"><tspan stroke-width=".073986" x="-2353.522" y="78.712845"/></text><text opacity=".8" x="-841.09247" y="160.62686"><tspan stroke-width=".073986" x="-841.09247" y="160.62686"/></text><text opacity=".8" x="137.0769" y="2.586625"><tspan stroke-width=".073986" x="137.0769" y="2.586625"/></text><text opacity=".8" x="158.21068" y="-33.347912"><tspan stroke-width=".073986" x="158.21068" y="-33.347912"/></text><text opacity=".8" x="-1157.2732" y="-39.707184"><tspan stroke-width=".073986" x="-1157.2732" y="-39.707184"/></text><text opacity=".8" x="130.9386" y="-280.70206"><tspan stroke-width=".073986" x="130.9386" y="-280.70206"/></text><text opacity=".8" x="-775.53253" y="-42.101189"><tspan stroke-width=".073986" x="-775.53253" y="-42.101189"/></text><text opacity=".8" x="-2384.04" y="615.4837"><tspan stroke-width=".073986" x="-2384.04" y="615.4837"/></text><text opacity=".8" x="-642.26715" y="-801.97882"><tspan stroke-width=".073986" x="-642.26715" y="-801.97882"/></text><text opacity=".8" x="70.045204" y="-1166.6633"><tspan stroke-width=".073986" x="70.045204" y="-1166.6633"/></text><text opacity=".8" x="91.17894" y="-1202.5978"><tspan stroke-width=".073986" x="91.17894" y="-1202.5978"/></text><text opacity=".8" x="-1224.3048" y="-1208.957"><tspan stroke-width=".073986" x="-1224.3048" y="-1208.957"/></text><text opacity=".8" x="63.906841" y="-1449.9519"><tspan stroke-width=".073986" x="63.906841" y="-1449.9519"/></text><text opacity=".8" x="1374.681" y="-897.20465"><tspan stroke-width=".073986" x="1374.681" y="-897.20465"/></text><text opacity=".8" x="1395.8148" y="-933.1391"><tspan stroke-width=".073986" x="1395.8148" y="-933.1391"/></text><text opacity=".8" x="80.330864" y="-939.49847"><tspan stroke-width=".073986" x="80.330864" y="-939.49847"/></text><text opacity=".8" x="1368.5428" y="-1180.4933"><tspan stroke-width=".073986" x="1368.5428" y="-1180.4933"/></text><text opacity=".8" x="-746.83148" y="-981.91534"><tspan stroke-width=".073986" x="-746.83148" y="-981.91534"/></text><text opacity=".8" x="-2355.3386" y="-324.33041"><tspan stroke-width=".073986" x="-2355.3386" y="-324.33041"/></text><text opacity=".8" x="-842.909" y="-242.41629"><tspan stroke-width=".073986" x="-842.909" y="-242.41629"/></text><text opacity=".8" x="-102.00859" y="-29.927858"><tspan stroke-width=".073986" x="-102.00859" y="-29.927858"/></text><text opacity=".8" x="-80.874825" y="-65.862427"><tspan stroke-width=".073986" x="-80.874825" y="-65.862427"/></text><text opacity=".8" x="-1200.8645" y="-236.99742"><tspan stroke-width=".073986" x="-1200.8645" y="-236.99742"/></text><text opacity=".8" x="-488.55231" y="-601.68176"><tspan stroke-width=".073986" x="-488.55231" y="-601.68176"/></text><text opacity=".8" x="-467.41852" y="-637.61633"><tspan stroke-width=".073986" x="-467.41852" y="-637.61633"/></text><text opacity=".8" x="-1782.9023" y="-643.97552"><tspan stroke-width=".073986" x="-1782.9023" y="-643.97552"/></text><text opacity=".8" x="-494.69061" y="-884.97052"><tspan stroke-width=".073986" x="-494.69061" y="-884.97052"/></text><text opacity=".8" x="816.0835" y="-332.22305"><tspan stroke-width=".073986" x="816.0835" y="-332.22305"/></text><text opacity=".8" x="837.21716" y="-368.15765"><tspan stroke-width=".073986" x="837.21716" y="-368.15765"/></text><text opacity=".8" x="-478.2666" y="-374.51691"><tspan stroke-width=".073986" x="-478.2666" y="-374.51691"/></text><text opacity=".8" x="809.94531" y="-615.51178"><tspan stroke-width=".073986" x="809.94531" y="-615.51178"/></text><text opacity=".8" x="-1305.429" y="-416.93384"><tspan stroke-width=".073986" x="-1305.429" y="-416.93384"/></text><text opacity=".8" x="-2913.936" y="240.65112"><tspan stroke-width=".073986" x="-2913.936" y="240.65112"/></text><text opacity=".8" x="-1401.5114" y="322.5647"><tspan stroke-width=".073986" x="-1401.5114" y="322.5647"/></text><text opacity=".8" x="534.47894" y="9.768588"><tspan stroke-width=".073986" x="534.47894" y="9.768588"/></text><text opacity=".8" x="555.61273" y="-26.165953"><tspan stroke-width=".073986" x="555.61273" y="-26.165953"/></text><text opacity=".8" x="-741.4328" y="-52.695145"><tspan stroke-width=".073986" x="-741.4328" y="-52.695145"/></text><text opacity=".8" x="-2349.9402" y="604.88971"><tspan stroke-width=".073986" x="-2349.9402" y="604.88971"/></text><text opacity=".8" x="-640.45068" y="-392.55167"><tspan stroke-width=".073986" x="-640.45068" y="-392.55167"/></text><text opacity=".8" x="71.861641" y="-757.23608"><tspan stroke-width=".073986" x="71.861641" y="-757.23608"/></text><text opacity=".8" x="92.995415" y="-793.17065"><tspan stroke-width=".073986" x="92.995415" y="-793.17065"/></text><text opacity=".8" x="-1222.4885" y="-799.52985"><tspan stroke-width=".073986" x="-1222.4885" y="-799.52985"/></text><text opacity=".8" x="65.723335" y="-1040.5247"><tspan stroke-width=".073986" x="65.723335" y="-1040.5247"/></text><text opacity=".8" x="1376.4977" y="-487.77737"><tspan stroke-width=".073986" x="1376.4977" y="-487.77737"/></text><text opacity=".8" x="1397.6312" y="-523.71198"><tspan stroke-width=".073986" x="1397.6312" y="-523.71198"/></text><text opacity=".8" x="82.147362" y="-530.07117"><tspan stroke-width=".073986" x="82.147362" y="-530.07117"/></text><text opacity=".8" x="1370.3593" y="-771.06592"><tspan stroke-width=".073986" x="1370.3593" y="-771.06592"/></text><text opacity=".8" x="-745.01495" y="-572.48816"><tspan stroke-width=".073986" x="-745.01495" y="-572.48816"/></text><text opacity=".8" x="-2353.522" y="85.096809"><tspan stroke-width=".073986" x="-2353.522" y="85.096809"/></text><text opacity=".8" x="-841.09247" y="167.01089"><tspan stroke-width=".073986" x="-841.09247" y="167.01089"/></text><text opacity=".8" x="137.0769" y="8.970585"><tspan stroke-width=".073986" x="137.0769" y="8.970585"/></text><text opacity=".8" x="158.21068" y="-26.963955"><tspan stroke-width=".073986" x="158.21068" y="-26.963955"/></text><text opacity=".8" x="-1157.2732" y="-33.323223"><tspan stroke-width=".073986" x="-1157.2732" y="-33.323223"/></text><text opacity=".8" x="130.9386" y="-274.31805"><tspan stroke-width=".073986" x="130.9386" y="-274.31805"/></text><text opacity=".8" x="-775.53253" y="-35.717197"><tspan stroke-width=".073986" x="-775.53253" y="-35.717197"/></text><text opacity=".8" x="-2384.04" y="621.86768"><tspan stroke-width=".073986" x="-2384.04" y="621.86768"/></text><text opacity=".8" x="-642.26715" y="-795.59485"><tspan stroke-width=".073986" x="-642.26715" y="-795.59485"/></text><text opacity=".8" x="70.045204" y="-1160.2792"><tspan stroke-width=".073986" x="70.045204" y="-1160.2792"/></text><text opacity=".8" x="91.17894" y="-1196.2139"><tspan stroke-width=".073986" x="91.17894" y="-1196.2139"/></text><text opacity=".8" x="-1224.3048" y="-1202.573"><tspan stroke-width=".073986" x="-1224.3048" y="-1202.573"/></text><text opacity=".8" x="63.906841" y="-1443.568"><tspan stroke-width=".073986" x="63.906841" y="-1443.568"/></text><text opacity=".8" x="1374.681" y="-890.82074"><tspan stroke-width=".073986" x="1374.681" y="-890.82074"/></text><text opacity=".8" x="1395.8148" y="-926.75525"><tspan stroke-width=".073986" x="1395.8148" y="-926.75525"/></text><text opacity=".8" x="80.330864" y="-933.11438"><tspan stroke-width=".073986" x="80.330864" y="-933.11438"/></text><text opacity=".8" x="1368.5428" y="-1174.1094"><tspan stroke-width=".073986" x="1368.5428" y="-1174.1094"/></text><text opacity=".8" x="-746.83148" y="-975.53137"><tspan stroke-width=".073986" x="-746.83148" y="-975.53137"/></text><text opacity=".8" x="-2355.3386" y="-317.94641"><tspan stroke-width=".073986" x="-2355.3386" y="-317.94641"/></text><text opacity=".8" x="-842.909" y="-236.0323"><tspan stroke-width=".073986" x="-842.909" y="-236.0323"/></text><text opacity=".8" x="-102.00859" y="-23.543901"><tspan stroke-width=".073986" x="-102.00859" y="-23.543901"/></text><text opacity=".8" x="-80.874825" y="-59.47847"><tspan stroke-width=".073986" x="-80.874825" y="-59.47847"/></text><text opacity=".8" x="-1200.8645" y="-230.6134"><tspan stroke-width=".073986" x="-1200.8645" y="-230.6134"/></text><text opacity=".8" x="-488.55231" y="-595.29779"><tspan stroke-width=".073986" x="-488.55231" y="-595.29779"/></text><text opacity=".8" x="-467.41852" y="-631.23236"><tspan stroke-width=".073986" x="-467.41852" y="-631.23236"/></text><text opacity=".8" x="-1782.9023" y="-637.59161"><tspan stroke-width=".073986" x="-1782.9023" y="-637.59161"/></text><text opacity=".8" x="-494.69061" y="-878.58655"><tspan stroke-width=".073986" x="-494.69061" y="-878.58655"/></text><text opacity=".8" x="816.0835" y="-325.83908"><tspan stroke-width=".073986" x="816.0835" y="-325.83908"/></text><text opacity=".8" x="837.21716" y="-361.77371"><tspan stroke-width=".073986" x="837.21716" y="-361.77371"/></text><text opacity=".8" x="-478.2666" y="-368.1329"><tspan stroke-width=".073986" x="-478.2666" y="-368.1329"/></text><text opacity=".8" x="809.94531" y="-609.12787"><tspan stroke-width=".073986" x="809.94531" y="-609.12787"/></text><text opacity=".8" x="-1305.429" y="-410.5499"><tspan stroke-width=".073986" x="-1305.429" y="-410.5499"/></text><text opacity=".8" x="-2913.936" y="247.0351"><tspan stroke-width=".073986" x="-2913.936" y="247.0351"/></text><text opacity=".8" x="-1401.5114" y="328.95041"><tspan stroke-width=".073986" x="-1401.5114" y="328.95041"/></text><text x="145.22906" y="-324.75629"><tspan stroke-width=".073986" x="145.22906" y="-324.75629"/><tspan stroke-width=".073986" x="145.22906" y="-310.79135"/></text><text opacity=".8" x="555.52545" y="-749.92395"><tspan stroke-width=".073986" x="555.52545" y="-749.92395"/></text><text opacity=".8" x="-1052.9818" y="-92.339073"><tspan stroke-width=".073986" x="-1052.9818" y="-92.339073"/></text><text opacity=".8" x="1196.8162" y="-1001.2928"><tspan stroke-width=".073986" x="1196.8162" y="-1001.2928"/></text><text opacity=".8" x="1217.9498" y="-1037.2274"><tspan stroke-width=".073986" x="1217.9498" y="-1037.2274"/></text><text opacity=".8" x="-97.534065" y="-1043.5867"><tspan stroke-width=".073986" x="-97.534065" y="-1043.5867"/></text><text opacity=".8" x="1190.6777" y="-1284.5817"><tspan stroke-width=".073986" x="1190.6777" y="-1284.5817"/></text></g><circle cx="-138.57928" cy="13.485741" fill="url(#l)" r="0"/><circle cx="-10.066393" cy="19.038456" fill="url(#n)" r="0"/><text opacity=".8" stroke-width=".073986" x="597.49701" y="4.853335"><tspan stroke-width=".073986" x="597.49701" y="4.853335"/></text><text opacity=".8" stroke-width=".073986" x="619.37329" y="-32.34391"><tspan stroke-width=".073986" x="619.37329" y="-32.34391"/></text><text opacity=".8" stroke-width=".073986" x="-723.24884" y="-59.805309"><tspan stroke-width=".073986" x="-723.24884" y="-59.805309"/></text><text opacity=".8" stroke-width=".073986" x="-2388.2773" y="620.88629"><tspan stroke-width=".073986" x="-2388.2773" y="620.88629"/></text><text opacity=".8" stroke-width=".073986" x="-618.71838" y="-411.60397"><tspan stroke-width=".073986" x="-618.71838" y="-411.60397"/></text><text opacity=".8" stroke-width=".073986" x="118.6238" y="-789.10297"><tspan stroke-width=".073986" x="118.6238" y="-789.10297"/></text><text opacity=".8" stroke-width=".073986" x="140.50017" y="-826.30023"><tspan stroke-width=".073986" x="140.50017" y="-826.30023"/></text><text opacity=".8" stroke-width=".073986" x="-1221.2081" y="-832.88293"><tspan stroke-width=".073986" x="-1221.2081" y="-832.88293"/></text><text opacity=".8" stroke-width=".073986" x="112.26981" y="-1082.3461"><tspan stroke-width=".073986" x="112.26981" y="-1082.3461"/></text><text opacity=".8" stroke-width=".073986" x="1469.1029" y="-510.17578"><tspan stroke-width=".073986" x="1469.1029" y="-510.17578"/></text><text opacity=".8" stroke-width=".073986" x="1490.9791" y="-547.37311"><tspan stroke-width=".073986" x="1490.9791" y="-547.37311"/></text><text opacity=".8" stroke-width=".073986" x="129.27094" y="-553.95575"><tspan stroke-width=".073986" x="129.27094" y="-553.95575"/></text><text opacity=".8" stroke-width=".073986" x="1462.749" y="-803.41895"><tspan stroke-width=".073986" x="1462.749" y="-803.41895"/></text><text opacity=".8" stroke-width=".073986" x="-726.95697" y="-597.86316"><tspan stroke-width=".073986" x="-726.95697" y="-597.86316"/></text><text opacity=".8" stroke-width=".073986" x="-2391.9849" y="82.828506"><tspan stroke-width=".073986" x="-2391.9849" y="82.828506"/></text><text opacity=".8" stroke-width=".073986" x="-826.41034" y="167.62088"><tspan stroke-width=".073986" x="-826.41034" y="167.62088"/></text><text opacity=".8" stroke-width=".073986" x="186.13063" y="4.027292"><tspan stroke-width=".073986" x="186.13063" y="4.027292"/></text><text opacity=".8" stroke-width=".073986" x="208.00708" y="-33.169926"><tspan stroke-width=".073986" x="208.00708" y="-33.169926"/></text><text opacity=".8" stroke-width=".073986" x="-1153.7013" y="-39.752666"><tspan stroke-width=".073986" x="-1153.7013" y="-39.752666"/></text><text opacity=".8" stroke-width=".073986" x="179.77666" y="-289.21582"><tspan stroke-width=".073986" x="179.77666" y="-289.21582"/></text><text opacity=".8" stroke-width=".073986" x="-758.54681" y="-42.230789"><tspan stroke-width=".073986" x="-758.54681" y="-42.230789"/></text><text opacity=".8" stroke-width=".073986" x="-2423.5752" y="638.46075"><tspan stroke-width=".073986" x="-2423.5752" y="638.46075"/></text><text opacity=".8" stroke-width=".073986" x="-620.59863" y="-828.80957"><tspan stroke-width=".073986" x="-620.59863" y="-828.80957"/></text><text opacity=".8" stroke-width=".073986" x="116.74354" y="-1206.3086"><tspan stroke-width=".073986" x="116.74354" y="-1206.3086"/></text><text opacity=".8" stroke-width=".073986" x="138.61986" y="-1243.5059"><tspan stroke-width=".073986" x="138.61986" y="-1243.5059"/></text><text opacity=".8" stroke-width=".073986" x="-1223.0885" y="-1250.0885"><tspan stroke-width=".073986" x="-1223.0885" y="-1250.0885"/></text><text opacity=".8" stroke-width=".073986" x="110.38949" y="-1499.5515"><tspan stroke-width=".073986" x="110.38949" y="-1499.5515"/></text><text opacity=".8" stroke-width=".073986" x="1467.2225" y="-927.38159"><tspan stroke-width=".073986" x="1467.2225" y="-927.38159"/></text><text opacity=".8" stroke-width=".073986" x="1489.0989" y="-964.57861"><tspan stroke-width=".073986" x="1489.0989" y="-964.57861"/></text><text opacity=".8" stroke-width=".073986" x="127.39062" y="-971.16138"><tspan stroke-width=".073986" x="127.39062" y="-971.16138"/></text><text opacity=".8" stroke-width=".073986" x="1460.8684" y="-1220.6246"><tspan stroke-width=".073986" x="1460.8684" y="-1220.6246"/></text><text opacity=".8" stroke-width=".073986" x="-728.83716" y="-1015.069"><tspan stroke-width=".073986" x="-728.83716" y="-1015.069"/></text><text opacity=".8" stroke-width=".073986" x="-2393.8655" y="-334.3772"><tspan stroke-width=".073986" x="-2393.8655" y="-334.3772"/></text><text opacity=".8" stroke-width=".073986" x="-828.29071" y="-249.58473"><tspan stroke-width=".073986" x="-828.29071" y="-249.58473"/></text><text opacity=".8" stroke-width=".073986" x="-61.356041" y="-29.629713"><tspan stroke-width=".073986" x="-61.356041" y="-29.629713"/></text><text opacity=".8" stroke-width=".073986" x="-39.479637" y="-66.826958"><tspan stroke-width=".073986" x="-39.479637" y="-66.826958"/></text><text opacity=".8" stroke-width=".073986" x="-1198.8245" y="-243.97543"><tspan stroke-width=".073986" x="-1198.8245" y="-243.97543"/></text><text opacity=".8" stroke-width=".073986" x="-461.48242" y="-621.47443"><tspan stroke-width=".073986" x="-461.48242" y="-621.47443"/></text><text opacity=".8" stroke-width=".073986" x="-439.60608" y="-658.67157"><tspan stroke-width=".073986" x="-439.60608" y="-658.67157"/></text><text opacity=".8" stroke-width=".073986" x="-1801.3145" y="-665.25427"><tspan stroke-width=".073986" x="-1801.3145" y="-665.25427"/></text><text opacity=".8" stroke-width=".073986" x="-467.83643" y="-914.71753"><tspan stroke-width=".073986" x="-467.83643" y="-914.71753"/></text><text opacity=".8" stroke-width=".073986" x="888.99677" y="-342.54721"><tspan stroke-width=".073986" x="888.99677" y="-342.54721"/></text><text opacity=".8" stroke-width=".073986" x="910.87311" y="-379.74451"><tspan stroke-width=".073986" x="910.87311" y="-379.74451"/></text><text opacity=".8" stroke-width=".073986" x="-450.83527" y="-386.32715"><tspan stroke-width=".073986" x="-450.83527" y="-386.32715"/></text><text opacity=".8" stroke-width=".073986" x="882.64282" y="-635.79034"><tspan stroke-width=".073986" x="882.64282" y="-635.79034"/></text><text opacity=".8" stroke-width=".073986" x="-1307.0631" y="-430.23459"><tspan stroke-width=".073986" x="-1307.0631" y="-430.23459"/></text><text opacity=".8" stroke-width=".073986" x="-2972.0911" y="250.45708"><tspan stroke-width=".073986" x="-2972.0911" y="250.45708"/></text><text opacity=".8" stroke-width=".073986" x="-1406.5216" y="335.24899"><tspan stroke-width=".073986" x="-1406.5216" y="335.24899"/></text><text opacity=".8" stroke-width=".073986" x="597.49701" y="11.461629"><tspan stroke-width=".073986" x="597.49701" y="11.461629"/></text><text opacity=".8" stroke-width=".073986" x="619.37329" y="-25.735619"><tspan stroke-width=".073986" x="619.37329" y="-25.735619"/></text><text opacity=".8" stroke-width=".073986" x="-723.24884" y="-53.197018"><tspan stroke-width=".073986" x="-723.24884" y="-53.197018"/></text><text opacity=".8" stroke-width=".073986" x="-2388.2773" y="627.49457"><tspan stroke-width=".073986" x="-2388.2773" y="627.49457"/></text><text opacity=".8" stroke-width=".073986" x="-618.71838" y="-404.9957"><tspan stroke-width=".073986" x="-618.71838" y="-404.9957"/></text><text opacity=".8" stroke-width=".073986" x="118.6238" y="-782.49463"><tspan stroke-width=".073986" x="118.6238" y="-782.49463"/></text><text opacity=".8" stroke-width=".073986" x="140.50017" y="-819.69196"><tspan stroke-width=".073986" x="140.50017" y="-819.69196"/></text><text opacity=".8" stroke-width=".073986" x="-1221.2081" y="-826.27454"><tspan stroke-width=".073986" x="-1221.2081" y="-826.27454"/></text><text opacity=".8" stroke-width=".073986" x="112.26981" y="-1075.7378"><tspan stroke-width=".073986" x="112.26981" y="-1075.7378"/></text><text opacity=".8" stroke-width=".073986" x="1469.1029" y="-503.56747"><tspan stroke-width=".073986" x="1469.1029" y="-503.56747"/></text><text opacity=".8" stroke-width=".073986" x="1490.9791" y="-540.76477"><tspan stroke-width=".073986" x="1490.9791" y="-540.76477"/></text><text opacity=".8" stroke-width=".073986" x="129.27094" y="-547.34741"><tspan stroke-width=".073986" x="129.27094" y="-547.34741"/></text><text opacity=".8" stroke-width=".073986" x="1462.749" y="-796.81049"><tspan stroke-width=".073986" x="1462.749" y="-796.81049"/></text><text opacity=".8" stroke-width=".073986" x="-726.95697" y="-591.25488"><tspan stroke-width=".073986" x="-726.95697" y="-591.25488"/></text><text opacity=".8" stroke-width=".073986" x="-2391.9849" y="89.436783"><tspan stroke-width=".073986" x="-2391.9849" y="89.436783"/></text><text opacity=".8" stroke-width=".073986" x="-826.41034" y="174.22926"><tspan stroke-width=".073986" x="-826.41034" y="174.22926"/></text><text opacity=".8" stroke-width=".073986" x="186.13063" y="10.635585"><tspan stroke-width=".073986" x="186.13063" y="10.635585"/></text><text opacity=".8" stroke-width=".073986" x="208.00708" y="-26.561659"><tspan stroke-width=".073986" x="208.00708" y="-26.561659"/></text><text opacity=".8" stroke-width=".073986" x="-1153.7013" y="-33.144371"><tspan stroke-width=".073986" x="-1153.7013" y="-33.144371"/></text><text opacity=".8" stroke-width=".073986" x="179.77666" y="-282.60751"><tspan stroke-width=".073986" x="179.77666" y="-282.60751"/></text><text opacity=".8" stroke-width=".073986" x="-758.54681" y="-35.622463"><tspan stroke-width=".073986" x="-758.54681" y="-35.622463"/></text><text opacity=".8" stroke-width=".073986" x="-2423.5752" y="645.06921"><tspan stroke-width=".073986" x="-2423.5752" y="645.06921"/></text><text opacity=".8" stroke-width=".073986" x="-620.59863" y="-822.20135"><tspan stroke-width=".073986" x="-620.59863" y="-822.20135"/></text><text opacity=".8" stroke-width=".073986" x="116.74354" y="-1199.7003"><tspan stroke-width=".073986" x="116.74354" y="-1199.7003"/></text><text opacity=".8" stroke-width=".073986" x="138.61986" y="-1236.8977"><tspan stroke-width=".073986" x="138.61986" y="-1236.8977"/></text><text opacity=".8" stroke-width=".073986" x="-1223.0885" y="-1243.4802"><tspan stroke-width=".073986" x="-1223.0885" y="-1243.4802"/></text><text opacity=".8" stroke-width=".073986" x="110.38949" y="-1492.9435"><tspan stroke-width=".073986" x="110.38949" y="-1492.9435"/></text><text opacity=".8" stroke-width=".073986" x="1467.2225" y="-920.77332"><tspan stroke-width=".073986" x="1467.2225" y="-920.77332"/></text><text opacity=".8" stroke-width=".073986" x="1489.0989" y="-957.97052"><tspan stroke-width=".073986" x="1489.0989" y="-957.97052"/></text><text opacity=".8" stroke-width=".073986" x="127.39062" y="-964.55316"><tspan stroke-width=".073986" x="127.39062" y="-964.55316"/></text><text opacity=".8" stroke-width=".073986" x="1460.8684" y="-1214.0164"><tspan stroke-width=".073986" x="1460.8684" y="-1214.0164"/></text><text opacity=".8" stroke-width=".073986" x="-728.83716" y="-1008.4605"><tspan stroke-width=".073986" x="-728.83716" y="-1008.4605"/></text><text opacity=".8" stroke-width=".073986" x="-2393.8655" y="-327.76886"><tspan stroke-width=".073986" x="-2393.8655" y="-327.76886"/></text><text opacity=".8" stroke-width=".073986" x="-828.29071" y="-242.97644"><tspan stroke-width=".073986" x="-828.29071" y="-242.97644"/></text><text opacity=".8" stroke-width=".073986" x="-61.356041" y="-23.02142"><tspan stroke-width=".073986" x="-61.356041" y="-23.02142"/></text><text opacity=".8" stroke-width=".073986" x="-39.479637" y="-60.218693"><tspan stroke-width=".073986" x="-39.479637" y="-60.218693"/></text><text opacity=".8" stroke-width=".073986" x="-1198.8245" y="-237.3671"><tspan stroke-width=".073986" x="-1198.8245" y="-237.3671"/></text><text opacity=".8" stroke-width=".073986" x="-461.48242" y="-614.86615"><tspan stroke-width=".073986" x="-461.48242" y="-614.86615"/></text><text opacity=".8" stroke-width=".073986" x="-439.60608" y="-652.06342"><tspan stroke-width=".073986" x="-439.60608" y="-652.06342"/></text><text opacity=".8" stroke-width=".073986" x="-1801.3145" y="-658.64606"><tspan stroke-width=".073986" x="-1801.3145" y="-658.64606"/></text><text opacity=".8" stroke-width=".073986" x="-467.83643" y="-908.10925"><tspan stroke-width=".073986" x="-467.83643" y="-908.10925"/></text><text opacity=".8" stroke-width=".073986" x="888.99677" y="-335.9389"><tspan stroke-width=".073986" x="888.99677" y="-335.9389"/></text><text opacity=".8" stroke-width=".073986" x="910.87311" y="-373.1362"><tspan stroke-width=".073986" x="910.87311" y="-373.1362"/></text><text opacity=".8" stroke-width=".073986" x="-450.83527" y="-379.71887"><tspan stroke-width=".073986" x="-450.83527" y="-379.71887"/></text><text opacity=".8" stroke-width=".073986" x="882.64282" y="-629.18201"><tspan stroke-width=".073986" x="882.64282" y="-629.18201"/></text><text opacity=".8" stroke-width=".073986" x="-1307.0631" y="-423.62628"><tspan stroke-width=".073986" x="-1307.0631" y="-423.62628"/></text><text opacity=".8" stroke-width=".073986" x="-2972.0911" y="257.06534"><tspan stroke-width=".073986" x="-2972.0911" y="257.06534"/></text><text opacity=".8" stroke-width=".073986" x="-1406.5216" y="341.8591"><tspan stroke-width=".073986" x="-1406.5216" y="341.8591"/></text><text stroke-width=".073986" x="194.56926" y="-334.81805"><tspan stroke-width=".073986" x="194.56926" y="-334.81805"/><tspan stroke-width=".073986" x="194.56926" y="-320.3624"/></text><text opacity=".8" stroke-width=".073986" x="619.28302" y="-774.92554"><tspan stroke-width=".073986" x="619.28302" y="-774.92554"/></text><text opacity=".8" stroke-width=".073986" x="-1045.7454" y="-94.233978"><tspan stroke-width=".073986" x="-1045.7454" y="-94.233978"/></text><text opacity=".8" stroke-width=".073986" x="1283.1078" y="-1035.1272"><tspan stroke-width=".073986" x="1283.1078" y="-1035.1272"/></text><text opacity=".8" stroke-width=".073986" x="1304.9841" y="-1072.3246"><tspan stroke-width=".073986" x="1304.9841" y="-1072.3246"/></text><text opacity=".8" stroke-width=".073986" x="-56.724258" y="-1078.9072"><tspan stroke-width=".073986" x="-56.724258" y="-1078.9072"/></text><text opacity=".8" stroke-width=".073986" x="1276.7539" y="-1328.3704"><tspan stroke-width=".073986" x="1276.7539" y="-1328.3704"/></text><circle cx="44.101337" cy="15.537764" fill="url(#m)" r="0"/><circle cx="1.230179" cy="13.127307" fill="url(#k)" r="0"/><text opacity=".8" stroke-width=".073986" x="860.77142" y="-13.280101"><tspan stroke-width=".073986" x="860.77142" y="-13.280101"/></text><text opacity=".8" stroke-width=".073986" x="885.01202" y="-54.497387"><tspan stroke-width=".073986" x="885.01202" y="-54.497387"/></text><text opacity=".8" stroke-width=".073986" x="-602.71204" y="-84.926636"><tspan stroke-width=".073986" x="-602.71204" y="-84.926636"/></text><text opacity=".8" stroke-width=".073986" x="-2447.6858" y="669.32959"><tspan stroke-width=".073986" x="-2447.6858" y="669.32959"/></text><text opacity=".8" stroke-width=".073986" x="-486.88455" y="-474.74539"><tspan stroke-width=".073986" x="-486.88455" y="-474.74539"/></text><text opacity=".8" stroke-width=".073986" x="330.14471" y="-893.04193"><tspan stroke-width=".073986" x="330.14471" y="-893.04193"/></text><text opacity=".8" stroke-width=".073986" x="354.38538" y="-934.25934"><tspan stroke-width=".073986" x="354.38538" y="-934.25934"/></text><text opacity=".8" stroke-width=".073986" x="-1154.4875" y="-941.55328"><tspan stroke-width=".073986" x="-1154.4875" y="-941.55328"/></text><text opacity=".8" stroke-width=".073986" x="323.104" y="-1217.9769"><tspan stroke-width=".073986" x="323.104" y="-1217.9769"/></text><text opacity=".8" stroke-width=".073986" x="1826.5748" y="-583.97021"><tspan stroke-width=".073986" x="1826.5748" y="-583.97021"/></text><text opacity=".8" stroke-width=".073986" x="1850.8153" y="-625.18756"><tspan stroke-width=".073986" x="1850.8153" y="-625.18756"/></text><text opacity=".8" stroke-width=".073986" x="341.9425" y="-632.48157"><tspan stroke-width=".073986" x="341.9425" y="-632.48157"/></text><text opacity=".8" stroke-width=".073986" x="1819.5342" y="-908.90497"><tspan stroke-width=".073986" x="1819.5342" y="-908.90497"/></text><text opacity=".8" stroke-width=".073986" x="-606.82086" y="-681.13428"><tspan stroke-width=".073986" x="-606.82086" y="-681.13428"/></text><text opacity=".8" stroke-width=".073986" x="-2451.7942" y="73.122078"><tspan stroke-width=".073986" x="-2451.7942" y="73.122078"/></text><text opacity=".8" stroke-width=".073986" x="-717.02258" y="167.07831"><tspan stroke-width=".073986" x="-717.02258" y="167.07831"/></text><text opacity=".8" stroke-width=".073986" x="404.94727" y="-14.195409"><tspan stroke-width=".073986" x="404.94727" y="-14.195409"/></text><text opacity=".8" stroke-width=".073986" x="429.1879" y="-55.412693"><tspan stroke-width=".073986" x="429.1879" y="-55.412693"/></text><text opacity=".8" stroke-width=".073986" x="-1079.6849" y="-62.706829"><tspan stroke-width=".073986" x="-1079.6849" y="-62.706829"/></text><text opacity=".8" stroke-width=".073986" x="397.90656" y="-339.13031"><tspan stroke-width=".073986" x="397.90656" y="-339.13031"/></text><text opacity=".8" stroke-width=".073986" x="-641.82471" y="-65.452759"><tspan stroke-width=".073986" x="-641.82471" y="-65.452759"/></text><text opacity=".8" stroke-width=".073986" x="-2486.7986" y="688.80347"><tspan stroke-width=".073986" x="-2486.7986" y="688.80347"/></text><text opacity=".8" stroke-width=".073986" x="-488.96796" y="-937.03998"><tspan stroke-width=".073986" x="-488.96796" y="-937.03998"/></text><text opacity=".8" stroke-width=".073986" x="328.06125" y="-1355.3365"><tspan stroke-width=".073986" x="328.06125" y="-1355.3365"/></text><text opacity=".8" stroke-width=".073986" x="352.30185" y="-1396.5537"><tspan stroke-width=".073986" x="352.30185" y="-1396.5537"/></text><text opacity=".8" stroke-width=".073986" x="-1156.571" y="-1403.8479"><tspan stroke-width=".073986" x="-1156.571" y="-1403.8479"/></text><text opacity=".8" stroke-width=".073986" x="321.02054" y="-1680.2714"><tspan stroke-width=".073986" x="321.02054" y="-1680.2714"/></text><text opacity=".8" stroke-width=".073986" x="1824.4913" y="-1046.2649"><tspan stroke-width=".073986" x="1824.4913" y="-1046.2649"/></text><text opacity=".8" stroke-width=".073986" x="1848.7318" y="-1087.4821"><tspan stroke-width=".073986" x="1848.7318" y="-1087.4821"/></text><text opacity=".8" stroke-width=".073986" x="339.85907" y="-1094.7761"><tspan stroke-width=".073986" x="339.85907" y="-1094.7761"/></text><text opacity=".8" stroke-width=".073986" x="1817.4508" y="-1371.1996"><tspan stroke-width=".073986" x="1817.4508" y="-1371.1996"/></text><text opacity=".8" stroke-width=".073986" x="-608.90436" y="-1143.4288"><tspan stroke-width=".073986" x="-608.90436" y="-1143.4288"/></text><text opacity=".8" stroke-width=".073986" x="-2453.8777" y="-389.17245"><tspan stroke-width=".073986" x="-2453.8777" y="-389.17245"/></text><text opacity=".8" stroke-width=".073986" x="-719.10602" y="-295.21619"><tspan stroke-width=".073986" x="-719.10602" y="-295.21619"/></text><text opacity=".8" stroke-width=".073986" x="130.71387" y="-51.489853"><tspan stroke-width=".073986" x="130.71387" y="-51.489853"/></text><text opacity=".8" stroke-width=".073986" x="154.95448" y="-92.707161"><tspan stroke-width=".073986" x="154.95448" y="-92.707161"/></text><text opacity=".8" stroke-width=".073986" x="-1129.6846" y="-289.00061"><tspan stroke-width=".073986" x="-1129.6846" y="-289.00061"/></text><text opacity=".8" stroke-width=".073986" x="-312.65555" y="-707.29724"><tspan stroke-width=".073986" x="-312.65555" y="-707.29724"/></text><text opacity=".8" stroke-width=".073986" x="-288.41489" y="-748.51453"><tspan stroke-width=".073986" x="-288.41489" y="-748.51453"/></text><text opacity=".8" stroke-width=".073986" x="-1797.2876" y="-755.80859"><tspan stroke-width=".073986" x="-1797.2876" y="-755.80859"/></text><text opacity=".8" stroke-width=".073986" x="-319.6962" y="-1032.2322"><tspan stroke-width=".073986" x="-319.6962" y="-1032.2322"/></text><text opacity=".8" stroke-width=".073986" x="1183.7747" y="-398.22543"><tspan stroke-width=".073986" x="1183.7747" y="-398.22543"/></text><text opacity=".8" stroke-width=".073986" x="1208.0151" y="-439.44272"><tspan stroke-width=".073986" x="1208.0151" y="-439.44272"/></text><text opacity=".8" stroke-width=".073986" x="-300.8577" y="-446.73688"><tspan stroke-width=".073986" x="-300.8577" y="-446.73688"/></text><text opacity=".8" stroke-width=".073986" x="1176.7339" y="-723.1604"><tspan stroke-width=".073986" x="1176.7339" y="-723.1604"/></text><text opacity=".8" stroke-width=".073986" x="-1249.6211" y="-495.38953"><tspan stroke-width=".073986" x="-1249.6211" y="-495.38953"/></text><text opacity=".8" stroke-width=".073986" x="-3094.5945" y="258.86688"><tspan stroke-width=".073986" x="-3094.5945" y="258.86688"/></text><text opacity=".8" stroke-width=".073986" x="-1359.8282" y="352.82257"><tspan stroke-width=".073986" x="-1359.8282" y="352.82257"/></text><text opacity=".8" stroke-width=".073986" x="860.77142" y="-5.957634"><tspan stroke-width=".073986" x="860.77142" y="-5.957634"/></text><text opacity=".8" stroke-width=".073986" x="885.01202" y="-47.174919"><tspan stroke-width=".073986" x="885.01202" y="-47.174919"/></text><text opacity=".8" stroke-width=".073986" x="-602.71204" y="-77.604134"><tspan stroke-width=".073986" x="-602.71204" y="-77.604134"/></text><text opacity=".8" stroke-width=".073986" x="-2447.6858" y="676.65198"><tspan stroke-width=".073986" x="-2447.6858" y="676.65198"/></text><text opacity=".8" stroke-width=".073986" x="-486.88455" y="-467.42291"><tspan stroke-width=".073986" x="-486.88455" y="-467.42291"/></text><text opacity=".8" stroke-width=".073986" x="330.14471" y="-885.71942"><tspan stroke-width=".073986" x="330.14471" y="-885.71942"/></text><text opacity=".8" stroke-width=".073986" x="354.38538" y="-926.93671"><tspan stroke-width=".073986" x="354.38538" y="-926.93671"/></text><text opacity=".8" stroke-width=".073986" x="-1154.4875" y="-934.23083"><tspan stroke-width=".073986" x="-1154.4875" y="-934.23083"/></text><text opacity=".8" stroke-width=".073986" x="323.104" y="-1210.6544"><tspan stroke-width=".073986" x="323.104" y="-1210.6544"/></text><text opacity=".8" stroke-width=".073986" x="1826.5748" y="-576.64771"><tspan stroke-width=".073986" x="1826.5748" y="-576.64771"/></text><text opacity=".8" stroke-width=".073986" x="1850.8153" y="-617.86505"><tspan stroke-width=".073986" x="1850.8153" y="-617.86505"/></text><text opacity=".8" stroke-width=".073986" x="341.9425" y="-625.15912"><tspan stroke-width=".073986" x="341.9425" y="-625.15912"/></text><text opacity=".8" stroke-width=".073986" x="1819.5342" y="-901.58246"><tspan stroke-width=".073986" x="1819.5342" y="-901.58246"/></text><text opacity=".8" stroke-width=".073986" x="-606.82086" y="-673.81183"><tspan stroke-width=".073986" x="-606.82086" y="-673.81183"/></text><text opacity=".8" stroke-width=".073986" x="-2451.7942" y="80.44455"><tspan stroke-width=".073986" x="-2451.7942" y="80.44455"/></text><text opacity=".8" stroke-width=".073986" x="-717.02258" y="174.4008"><tspan stroke-width=".073986" x="-717.02258" y="174.4008"/></text><text opacity=".8" stroke-width=".073986" x="404.94727" y="-6.872943"><tspan stroke-width=".073986" x="404.94727" y="-6.872943"/></text><text opacity=".8" stroke-width=".073986" x="429.1879" y="-48.090229"><tspan stroke-width=".073986" x="429.1879" y="-48.090229"/></text><text opacity=".8" stroke-width=".073986" x="-1079.6849" y="-55.384342"><tspan stroke-width=".073986" x="-1079.6849" y="-55.384342"/></text><text opacity=".8" stroke-width=".073986" x="397.90656" y="-331.8078"><tspan stroke-width=".073986" x="397.90656" y="-331.8078"/></text><text opacity=".8" stroke-width=".073986" x="-641.82471" y="-58.130264"><tspan stroke-width=".073986" x="-641.82471" y="-58.130264"/></text><text opacity=".8" stroke-width=".073986" x="-2486.7986" y="696.12598"><tspan stroke-width=".073986" x="-2486.7986" y="696.12598"/></text><text opacity=".8" stroke-width=".073986" x="-488.96796" y="-929.71735"><tspan stroke-width=".073986" x="-488.96796" y="-929.71735"/></text><text opacity=".8" stroke-width=".073986" x="328.06125" y="-1348.0139"><tspan stroke-width=".073986" x="328.06125" y="-1348.0139"/></text><text opacity=".8" stroke-width=".073986" x="352.30185" y="-1389.2313"><tspan stroke-width=".073986" x="352.30185" y="-1389.2313"/></text><text opacity=".8" stroke-width=".073986" x="-1156.571" y="-1396.5254"><tspan stroke-width=".073986" x="-1156.571" y="-1396.5254"/></text><text opacity=".8" stroke-width=".073986" x="321.02054" y="-1672.949"><tspan stroke-width=".073986" x="321.02054" y="-1672.949"/></text><text opacity=".8" stroke-width=".073986" x="1824.4913" y="-1038.9424"><tspan stroke-width=".073986" x="1824.4913" y="-1038.9424"/></text><text opacity=".8" stroke-width=".073986" x="1848.7318" y="-1080.1595"><tspan stroke-width=".073986" x="1848.7318" y="-1080.1595"/></text><text opacity=".8" stroke-width=".073986" x="339.85907" y="-1087.4536"><tspan stroke-width=".073986" x="339.85907" y="-1087.4536"/></text><text opacity=".8" stroke-width=".073986" x="1817.4508" y="-1363.8772"><tspan stroke-width=".073986" x="1817.4508" y="-1363.8772"/></text><text opacity=".8" stroke-width=".073986" x="-608.90436" y="-1136.1063"><tspan stroke-width=".073986" x="-608.90436" y="-1136.1063"/></text><text opacity=".8" stroke-width=".073986" x="-2453.8777" y="-381.84998"><tspan stroke-width=".073986" x="-2453.8777" y="-381.84998"/></text><text opacity=".8" stroke-width=".073986" x="-719.10602" y="-287.89368"><tspan stroke-width=".073986" x="-719.10602" y="-287.89368"/></text><text opacity=".8" stroke-width=".073986" x="130.71387" y="-44.167389"><tspan stroke-width=".073986" x="130.71387" y="-44.167389"/></text><text opacity=".8" stroke-width=".073986" x="154.95448" y="-85.384674"><tspan stroke-width=".073986" x="154.95448" y="-85.384674"/></text><text opacity=".8" stroke-width=".073986" x="-1129.6846" y="-281.67813"><tspan stroke-width=".073986" x="-1129.6846" y="-281.67813"/></text><text opacity=".8" stroke-width=".073986" x="-312.65555" y="-699.97479"><tspan stroke-width=".073986" x="-312.65555" y="-699.97479"/></text><text opacity=".8" stroke-width=".073986" x="-288.41489" y="-741.19208"><tspan stroke-width=".073986" x="-288.41489" y="-741.19208"/></text><text opacity=".8" stroke-width=".073986" x="-1797.2876" y="-748.48621"><tspan stroke-width=".073986" x="-1797.2876" y="-748.48621"/></text><text opacity=".8" stroke-width=".073986" x="-319.6962" y="-1024.9097"><tspan stroke-width=".073986" x="-319.6962" y="-1024.9097"/></text><text opacity=".8" stroke-width=".073986" x="1183.7747" y="-390.90298"><tspan stroke-width=".073986" x="1183.7747" y="-390.90298"/></text><text opacity=".8" stroke-width=".073986" x="1208.0151" y="-432.12027"><tspan stroke-width=".073986" x="1208.0151" y="-432.12027"/></text><text opacity=".8" stroke-width=".073986" x="-300.8577" y="-439.41434"><tspan stroke-width=".073986" x="-300.8577" y="-439.41434"/></text><text opacity=".8" stroke-width=".073986" x="1176.7339" y="-715.83801"><tspan stroke-width=".073986" x="1176.7339" y="-715.83801"/></text><text opacity=".8" stroke-width=".073986" x="-1249.6211" y="-488.06699"><tspan stroke-width=".073986" x="-1249.6211" y="-488.06699"/></text><text opacity=".8" stroke-width=".073986" x="-3094.5945" y="266.1893"><tspan stroke-width=".073986" x="-3094.5945" y="266.1893"/></text><text opacity=".8" stroke-width=".073986" x="-1359.8282" y="360.14703"><tspan stroke-width=".073986" x="-1359.8282" y="360.14703"/></text><text stroke-width=".073986" x="414.29788" y="-389.66092"><tspan stroke-width=".073986" x="414.29788" y="-389.66092"/><tspan stroke-width=".073986" x="414.29788" y="-373.64304"/></text><text opacity=".8" stroke-width=".073986" x="884.91193" y="-877.33228"><tspan stroke-width=".073986" x="884.91193" y="-877.33228"/></text><text opacity=".8" stroke-width=".073986" x="-960.06189" y="-123.07611"><tspan stroke-width=".073986" x="-960.06189" y="-123.07611"/></text><text opacity=".8" stroke-width=".073986" x="1620.4788" y="-1165.6549"><tspan stroke-width=".073986" x="1620.4788" y="-1165.6549"/></text><text opacity=".8" stroke-width=".073986" x="1644.7191" y="-1206.8723"><tspan stroke-width=".073986" x="1644.7191" y="-1206.8723"/></text><text opacity=".8" stroke-width=".073986" x="135.84624" y="-1214.1664"><tspan stroke-width=".073986" x="135.84624" y="-1214.1664"/></text><text opacity=".8" stroke-width=".073986" x="1613.4381" y="-1490.59"><tspan stroke-width=".073986" x="1613.4381" y="-1490.59"/></text></svg>