<svg height="48" viewBox="0 0 48 48" width="48" xmlns="http://www.w3.org/2000/svg"><g transform="matrix(.09777778 0 0 .09777778 -1.031112 -1.031112)"><path d="m236.83498 480.5103c-49.22934-3.37491-89.30865-16.81931-106.62587-35.7671-6.16601-6.74658-7.83487-10.35967-9.66213-20.91849-5.04287-29.14008-54.592259-295.72862-55.887949-300.69166-8.87147-33.981369 27.3269-64.759097 95.995349-81.620217 15.726-3.86142 39.62135-7.685376 58.58322-9.375036 17.02485-1.51706 56.5397-1.51706 73.56454 0 83.07117 7.402326 145.25639 36.036866 154.62669 71.201223 1.80936 6.79012 1.65516 11.98-.63493 21.36921-2.47721 10.15641-55.9057 299.75001-55.9057 303.02065 0 1.32759-1.35327 5.12192-3.00727 8.43186-8.39357 16.79703-36.53718 31.68245-74.54624 39.4282-21.15552 4.31122-54.29844 6.44337-76.49971 4.92136z" fill="#ececec" stroke-width=".784688"/><path d="m233.863 170.88645c-59.90883-2.98665-115.26934-19.57846-139.175839-41.71167-6.06681-5.61678-10.90309-13.62866-10.88624-18.03433.0285-7.45624 9.1972-18.598159 22.059779-26.807429 55.04782-35.133068 168.96243-44.488868 252.46814-20.735208 28.84467 8.20503 50.63946 19.384798 62.67902 32.151598 8.14001 8.631689 9.67486 14.108749 6.13729 21.900669-8.31182 18.30778-45.32409 36.94796-91.89452 46.28004-18.74518 3.75629-36.59101 5.88895-58.70104 7.01503-19.35318.98568-21.80506.98231-42.68659-.0586z" fill="#ccc" stroke-width=".784688"/><path d="m143.64853 147.39848c-24.08669-7.65668-24.51536-8.76649-24.80342-19.2843-.12814-4.67895-.30289-9.2888-.38832-10.2441-.19872-2.22219 48.67922-36.900598 52.16644-37.011564 1.43941-.04584 4.48962.628657 6.77826 1.498787l4.16114 1.582073-4.04296 5.019333c-16.48089 20.460941-25.82289 33.659461-25.82289 36.482941 0 1.82208 2.45555 8.70123 5.45678 15.287 3.00124 6.58577 5.26759 12.16332 5.03633 12.39457-.23124.23125-8.87622-2.65239-18.54136-5.72474z" fill="#f9de69"/><path d="m376.14438 140.17274c0-3.10589-3.16641-7.91904-11.49567-17.4743-12.91771-14.81899-13.11238-13.97791 3.77355-16.30032 7.38702-1.01597 8.33718-.76547 12.65723 3.33701 8.39595 7.973 21.22259 23.80435 19.21755 24.98579-1.8165 1.45735-25.08341 11.33459-27.25851 11.33459-.88007 0 3.10585-3.52515 3.10585-5.88277z" fill="#1ba39c" fill-opacity=".996078"/><path d="m215.79867 162.05699c-17.54981-2.01918-48.9583-7.84785-53.5161-8.8542-4.23143-.93431-5.28751-4.34832-9.47892-14.75898-2.7795-6.90379-5.05366-13.20208-5.05366-13.9962 0-1.42161 20.95466-28.33087 37.98066-48.773453 4.78715-5.747771 9.83072-10.465557 11.20795-10.483963 3.56104-.04759 66.37909 7.547344 70.80294 8.560341 2.45901.563077 4.72368 3.166846 6.8414 7.865778 1.74108 3.863243 4.16068 7.398865 5.37687 7.856942 1.2162.45807 11.02915-.981411 21.80656-3.198851 10.7774-2.217441 21.01867-4.031713 22.75836-4.031713 3.94149 0 54.27428 51.824819 54.27428 55.883159 0 3.29742-.24493 6.30271-4.50339 7.71147-4.03674 1.33541-10.7816 3.97842-20.02578 6.2174-32.80169 7.94469-48.95478 10.92727-92.85247 11.42115-22.19494.2497-42.57234-1.06839-45.6187-1.41888z" fill="#fff"/></g></svg>