<svg viewBox="0 0 22 22" xmlns="http://www.w3.org/2000/svg"><path d="m5.3945312 3c-.559076 0-1.0203346.1715782-1.3828124.515625-.3624779.3379031-.5429688.7615579-.5429688 1.2714844 0 .2580351.0768764.5084428.2304688.7480468.1535923.2334604.3502397.4264859.5898437.5800782v.0371094c-.3071846.1535923-.5556393.3644431-.7460937.6347656-.1904545.2641788-.2871094.5716845-.2871094.921875 0 .5345013.2075132.9832252.6191406 1.3457031s.9174493.5429687 1.5195312.5429687c.602082 0 1.109857-.1804908 1.5214844-.5429687.4116275-.3624779.6171875-.8112018.6171875-1.3457031 0-.3501905-.0966549-.6576962-.2871093-.921875-.1904545-.2703225-.4389092-.4811733-.7460938-.6347656v-.0371094c.239604-.1535923.4362514-.3466178.5898438-.5800782.1535923-.239604.2304687-.4900117.2304687-.7480468 0-.5099265-.1804909-.9335813-.5429687-1.2714844-.3624779-.3440468-.8237365-.515625-1.3828126-.515625zm0 .8105469c.3071847 0 .5592613.0857891.7558594.2578125.2027419.1720234.3046875.4062746.3046875.7011718 0 .2948973-.1019456.5344393-.3046875.71875-.1965981.1781671-.4486747.2675782-.7558594.2675782-.3071846 0-.5628831-.0894111-.765625-.2675782-.1965981-.1843107-.2949218-.4238527-.2949218-.71875 0-.2948972.0983237-.5291484.2949218-.7011718.2027419-.1720234.4584404-.2578125.765625-.2578125zm0 2.7382812c.3563342 0 .6565961.1036145.9023438.3125.2457477.2088856.3691406.4751656.3691406.8007813 0 .3317594-.1233929.6036144-.3691406.8125-.2457477.2088855-.5460096.3125-.9023438.3125-.3563341 0-.656596-.1036145-.9023437-.3125-.2457477-.2088856-.3691406-.4807406-.3691406-.8125 0-.3256157.1233929-.5918957.3691406-.8007813.2457477-.2088855.5460096-.3125.9023437-.3125z" fill="#da4453" transform="matrix(1.000000000556 0 0 1.000000000556 .000001848168 -.000001331005)"/><path d="m16.873047 12.402344-1.714844 2.533203c-.491495.718812-.736328 1.369474-.736328 1.953125 0 .552932.201938 1.044551.607422 1.474609.411627.423915.931937.636719 1.558594.636719.58365 0 1.08585-.212804 1.509765-.636719.430059-.423915.646485-.915533.646485-1.474609 0-.571364-.207514-1.055738-.619141-1.455078-.411627-.405484-.86202-.607422-1.353516-.607422-.313328 0-.547579.048185-.701172.146484l-.017578-.017578 1.501954-2.083984zm-4.199219.146484-1.851562.867188.322265.71875 1.22461-.535157v5.253907h.847656v-6.304688zm3.914063 3.06836c.356334 0 .660218.127014.912109.378906.258035.245747.386719.546009.386719.902344 0 .362477-.128684.666361-.386719.912109-.251891.245748-.555775.369141-.912109.369141-.362478 0-.673606-.123393-.931641-.369141-.251891-.245748-.376953-.549632-.376953-.912109 0-.356335.128684-.656597.386719-.902344.258035-.251892.56554-.378906.921875-.378906z" fill="#1d99f3" transform="matrix(1.000000000556 0 0 1.000000000556 .000000276638 .000003761322)"/><path d="m10.685547 3.9570312c-.614468.086892-.8697497.8697409-.109375 1.1582032 1.398732.1780888 2.705015.9686995 3.490234 2.2695312.228915.3792153.393973.779156.507813 1.1855469l-.611328.0058594c-.318181.0028278-.43451.2286542-.261719.5058593l1.189453 1.9042968c.173159.277705.438557.277677.59375 0l1.080078-1.9316405c.155306-.2778084.023334-.5008087-.294922-.4980469v-.0019531l-1.183593.0117187.714843-.015625c-.136962-.613616-.367919-1.2149458-.710937-1.7832031-.935615-1.549975-2.46531-2.5230219-4.121094-2.8027343-.100504-.0194251-.195422-.0202257-.283203-.0078126zm-5.5039064 6.8222658c-.1076752.000201-.2134193.070146-.2910156.208984l-1.0800781 1.931641c-.1553058.277808-.0233343.500809.2949219.498047v.001953l1.1835937-.011719-.7148437.013672c.1369623.613616.3698719 1.216899.7128906 1.785156.9356143 1.549975 2.4633567 2.521069 4.1191406 2.800781.804034.155401 1.261578-.818766.3925781-1.148437-1.398732-.178089-2.7050147-.9687-3.4902343-2.269531-.2289148-.379215-.3939726-.779156-.5078126-1.185547l.6113282-.005859c.3181807-.002828.43451-.228655.2617187-.50586l-1.1894531-1.904297c-.0865795-.138852-.1950591-.209186-.3027344-.208984z" fill="#f2f2f2" transform="matrix(.999999975621 0 0 .999999975621 -.000003010548 -.00000383525)"/></svg>