<svg viewBox="0 0 22 22" xmlns="http://www.w3.org/2000/svg"><path d="m5.94688 4.92812v11.55h2.526568v-11.55z" fill="#ff9051"/><path d="m11.000008 4.92812v11.55h2.52656v-11.55z" fill="#00ab83"/><path d="m16.053128 4.92812v11.55h2.526568v-11.55z" fill="#4f71d4"/><path d="m3.42032 4.92812v11.55h2.52656v-11.55z" fill="#ffd68c"/><path d="m13.526568 4.92812v11.55h2.52656v-11.55z" fill="#4bb4ff"/><path d="m8.473448 4.92812v11.55h2.52656v-11.55z" fill="#7fcc74"/><path d="m3.706248 4.407808c-.38516 0-.706248.319536-.706248.704688v11.181248c0 .38516.321088.706256.706248.706256h14.589064c.38516 0 .704688-.321096.704688-.706256v-11.181248c0-.385152-.319528-.704688-.704688-.704688zm0 .665624h14.589064c.0276 0 .03904.01152.03904.03904v11.181248c0 .02768-.01152.03904-.03904.03904h-14.589064c-.02768 0-.04064-.01152-.04064-.03904v-11.181248c0-.0276.01296-.03904.04064-.03904z" fill="#f2f2f2"/></svg>