<svg viewBox="0 0 22 22" xmlns="http://www.w3.org/2000/svg"><path d="m13.910156 3.8769531c-.175413-.0532306-.380156-.0030849-.5.1835938-1.556238 2.4259082-3.088956 3.5410156-9.6074216 3.5410156-1.5475331 0-2.8027344 1.2591165-2.8027344 2.8066405 0 1.503706 1.1869783 2.732661 2.6738281 2.800781l1.5175781 4.933594h2.2421876l-1.5-4.878906c4.7533502.237313 6.1061682 1.358292 7.4765622 3.49414.239474.373599.822266.195815.822266-.248046v-6.101563-6.0996092c0-.2219352-.146853-.3784101-.322266-.4316407zm3.964844 3.7304688c-.566916 0-1.089637.1405091-1.568359.4199219-.478772.2793628-.857306.6579466-1.136719 1.1367187-.279463.4787721-.419922 1.0014935-.419922 1.5683595 0 .566916.140559 1.089537.419922 1.568359.279413.478672.657947.857306 1.136719 1.136719s1.001443.419922 1.568359.419922 1.089637-.140509 1.568359-.419922c.478723-.279363.857306-.657997 1.136719-1.136719.279363-.478772.419922-1.001493.419922-1.568359 0-.566916-.140609-1.0896373-.419922-1.5683595-.279413-.4787222-.657996-.857306-1.136719-1.1367187-.478822-.2794128-1.001393-.4199219-1.568359-.4199219zm-.919922 1.5742187c.070515 0 .132056.0265872.183594.078125l.736328.7363282.736328-.7363282c.051438-.0515378.113079-.078125.183594-.078125.073261 0 .135962.0265872.1875.078125l.365234.3652344c.051538.0515378.078125.1142384.078125.1875 0 .0705149-.026587.1321059-.078125.1835938l-.736328.7363282.736328.736328c.051538.051488.078125.113079.078125.183594 0 .073211-.026587.134059-.078125.185547l-.365234.367187c-.051538.051538-.114239.078125-.1875.078125-.070515 0-.132156-.026587-.183594-.078125l-.736328-.736328-.736328.736328c-.051538.051538-.113079.078125-.183594.078125-.073261 0-.134009-.026587-.185547-.078125l-.367187-.367187c-.051538-.051488-.078125-.112336-.078125-.185547 0-.070515.026587-.132106.078125-.183594l.736328-.736328-.736328-.7363282c-.051538-.0514879-.078125-.1130789-.078125-.1835938 0-.0732616.026587-.1359622.078125-.1875l.367187-.3652344c.051538-.0515378.112286-.078125.185547-.078125z" fill="#da4453"/></svg>