<svg viewBox="0 0 22 22" xmlns="http://www.w3.org/2000/svg"><path d="m11 3c-4.4182741 0-8 3.5817259-8 8 0 4.418274 3.5817259 8 8 8 4.418274 0 8-3.581726 8-8 0-4.4182741-3.581726-8-8-8zm .109375 3.4277344s-.109654.0013951.392578.0214844c2.362463.2037772 4.178088 2.1795471 4.179688 4.5507812 0 2.52473-2.047536 4.572266-4.572266 4.572266-2.5247302 0-4.5722656-2.047536-4.5722656-4.572266 0-2.5247302 2.0475354-4.5722655 4.5722656-4.5722656zm0 1.1445312c-1.8935476.0000001-3.4277344 1.5341868-3.4277344 3.4277344 0 1.893547 1.5341868 3.427734 3.4277344 3.427734 1.893547 0 3.427734-1.534187 3.427734-3.427734 0-1.8935476-1.534187-3.4277344-3.427734-3.4277344zm0 1.1425782c.234069-.0000002.45565.0445904.667969.109375-.39282.1804363-.667969.5711264-.667969 1.0332031 0 .6331431.509435 1.1425781 1.142578 1.1425781.462077 0 .85276-.275149 1.033203-.667969.064777.212319.109375.4339.109375.667969 0 1.266286-1.01887 2.285156-2.285156 2.285156-1.2662856 0-2.2851562-1.01887-2.2851562-2.285156 0-1.2662857 1.0188706-2.2851562 2.2851562-2.2851562z" fill="#3daee9"/></svg>