<svg viewBox="0 0 22 22" xmlns="http://www.w3.org/2000/svg"><path d="m10.576172 2.9882812v.0019532c-.40269.001-.8037314.1505356-1.1132814.4472656-.6199.59308-.6156675 1.6005431.0078125 2.1894531l5.6660159 5.3535159-5.6250002 5.390625c-.6199501.59307-.6177307 1.600663.0058593 2.189453.6232599.58976 1.6132319.584014 2.2324219-.009766l6.632812-6.355469.140626-.134765h.001953c.30947-.29658.47023-.696943.46875-1.095703-.002-.39847-.164993-.797407-.476563-1.0917971l-6.824219-6.4453125v.0019531c-.31173-.29468-.714497-.4427162-1.117187-.4414063zm-4.076172 5.5117188c-1.37603 0-2.5 1.12397-2.5 2.5 0 1.37602 1.12397 2.5 2.5 2.5s2.5-1.12398 2.5-2.5c0-1.37603-1.12397-2.5-2.5-2.5z" fill="#2ecc71"/></svg>