<svg viewBox="0 0 22 22" xmlns="http://www.w3.org/2000/svg"><path d="m4.5234375 3c-.4201313 0-.7786075.1497012-1.0761719.4472656-.297593.297593-.4472656.6560406-.4472656 1.0761719s.1496726.7785789.4472656 1.0761719c.297593.2975928.6560406.4472656 1.0761719.4472656 1.0503282 0 2.0626382.1359039 3.0371094.4101562.9744711.2742524 1.884371.6602617 2.7304691 1.15625.846126.4959884 1.616134 1.0907727 2.310546 1.7851563.69447.6943835 1.289168 1.4644205 1.785157 2.3105465.495988.846098.881997 1.756112 1.15625 2.730469.274252.974557.412109 1.986695.412109 3.037109 0 .420132.147777.778579.445313 1.076172.297678.297622.656012.447266 1.076171.447266.420132 0 .778579-.149587 1.076172-.447266.297593-.297678.447266-.65604.447266-1.076172 0-1.33053-.171322-2.610607-.515625-3.841796-.34436-1.231247-.83278-2.383277-1.462891-3.457032-.630225-1.0736685-1.384545-2.0524847-2.265625-2.9335934-.881194-.8811086-1.859896-1.6354281-2.933593-2.265625-1.073641-.6301969-2.2258136-1.1186164-3.4570316-1.4628906-1.2312181-.3442742-2.5113815-.515625-3.8417969-.515625zm0 5.7597656c-.4201313 0-.7785789.1476623-1.0761719.4453125-.297593.297593-.4472656.6579937-.4472656 1.0781249 0 .420131.1496726.77855.4472656 1.076172.297593.297593.6560406.445313 1.0761719.445313.781911-.000001 1.5165296.149729 2.2050781.447265.6885485.297593 1.2892406.703275 1.8027344 1.216797.5134938.513465.9192039 1.114186 1.2167969 1.802734.2975931.688549.4472651 1.42311.4472651 2.205078.000001.420132.14772.778579.445313 1.076172.297593.297622.656041.447266 1.076172.447266.420246 0 .780532-.149673 1.078125-.447266.297564-.297678.445312-.65604.445312-1.076172 0-1.202156-.2304-2.33044-.691406-3.386718-.460949-1.056106-1.085272-1.97785-1.873047-2.765625-.7877459-.787746-1.7094614-1.4120697-2.7656248-1.8730471-1.0561633-.4609774-2.1846764-.6914063-3.3867187-.6914063zm.6640625 5.8632814c-.3034281 0-.5830969.055176-.8398438.166015-.2567468.110897-.4812679.264472-.6738281.457032-.1925601.192503-.3442101.418944-.4550781.68164-.110868.262497-.1660156.54036-.1660156.832032 0 .303456.0551476.583068.1660156.839843.110868.256776.262518.481268.4550781.673829.1925602.192445.4170813.344238.6738281.455078.2567469.110782.5364157.166015.8398438.166015.2917578 0 .5694495-.055176.8320312-.166015.2625821-.110897.4910336-.262604.6835938-.455078.1925602-.192589.3442101-.416996.4550781-.673829.110868-.256775.1660157-.536387.1660157-.839843 0-.29173-.0551477-.569507-.1660157-.832032-.110868-.26261-.2625179-.489137-.4550781-.68164-.1925602-.19256-.4210117-.346135-.6835938-.457032-.2625817-.110839-.5402734-.166015-.8320312-.166015z" fill="#da4453"/></svg>