<svg viewBox="0 0 22 22" xmlns="http://www.w3.org/2000/svg"><path d="m13 4.3333333a4.6666667 4.6666667 0 0 0 -4.6666667 4.6666667 4.6666667 4.6666667 0 0 0  .052083.6666667h3.9479167v3.9453123a4.6666667 4.6666667 0 0 0  .666667.054688 4.6666667 4.6666667 0 0 0 4.666667-4.666667 4.6666667 4.6666667 0 0 0 -4.666667-4.6666667zm-.666667 9.2786457a4.6666667 4.6666667 0 0 1 -3.9479163-3.9453123h-4.0520834v8.0000003h7.9999997z" fill="#f2f2f2" fill-opacity=".6"/><path d="m13 3a6 6 0 0 0 -5.9557292 5.3333333h-4.0442708v10.6666667h10.666667v-4.041667a6 6 0 0 0 5.333333-5.958333 6 6 0 0 0 -6-6zm0 1.3333333a4.6666667 4.6666667 0 0 1 4.666667 4.6666667 4.6666667 4.6666667 0 0 1 -4 4.614584v-5.2812507h-5.2786462a4.6666667 4.6666667 0 0 1 4.6119792-4zm-8.6666667 5.3333334h2.7083334a6 6 0 0 0 5.2916663 5.2890623v2.710938h-7.9999997zm4.0520834 0h3.9479163v3.9453123a4.6666667 4.6666667 0 0 1 -3.9479163-3.9453123z" fill="#1d99f3"/></svg>