<svg viewBox="0 0 22 22" xmlns="http://www.w3.org/2000/svg"><path d="m11 4.4980469c-1.9568493 0-3.8144927.5221078-5.5742188 1.5683593-1.759726 1.046113-3.1614811 2.4309124-4.203125 4.1542968-.1487671.263399-.2226562.52338-.2226562.779297s.0738891.516037.2226562.779297c1.0416439 1.723523 2.443399 3.108461 4.203125 4.154297 1.7597261 1.046251 3.6173695 1.568359 5.5742188 1.568359 1.956849 0 3.81463-.520267 5.574219-1.5625s3.161481-2.429151 4.203125-4.160156c.148767-.26326.222656-.523242.222656-.779297 0-.255917-.073889-.515898-.222656-.779297-1.041781-1.7233844-2.443536-3.1081838-4.203125-4.1542968-1.759726-1.0461129-3.61737-1.5683593-5.574219-1.5683593zm-4.3183594 2.5175781c-.4538356.7825756-.6816406 1.6284593-.6816406 2.5390625 0 1.3923695.4884407 2.5844985 1.4667969 3.5742185.9783561.98972 2.1567648 1.484375 3.5332031 1.484375 1.376575 0 2.55471-.494793 3.533203-1.484375.97863-.989581 1.466797-2.181849 1.466797-3.5742185 0-.9106032-.227668-1.7566254-.681641-2.5390625 1.703836.8803976 3.120995 2.2083384 4.251953 3.984375-.989315 1.542843-2.228785 2.771064-3.720703 3.685547-1.49178.914206-3.108513 1.371094-4.849609 1.371094-1.7410959 0-3.3578286-.45675-4.8496094-1.371094s-2.7330672-2.142704-3.7226562-3.685547c1.1309589-1.7761751 2.5500706-3.1039774 4.2539062-3.984375z" fill="#da4453"/></svg>