<svg viewBox="0 0 22 22" xmlns="http://www.w3.org/2000/svg"><g fill="#4d4d4d"><path d="m14 9a4.9999981 4.9999981 0 0 0 -5 5 4.9999981 4.9999981 0 0 0 5 5 4.9999981 4.9999981 0 0 0 5-5 4.9999981 4.9999981 0 0 0 -5-5z" fill-opacity=".8"/><path d="m8 9a4.9999981 4.9999981 0 0 0 -5 5 4.9999981 4.9999981 0 0 0 5 5 4.9999981 4.9999981 0 0 0 5-5 4.9999981 4.9999981 0 0 0 -5-5z" fill-opacity=".4"/><path d="m11 3a4.9999981 4.9999981 0 0 0 -5 5 4.9999981 4.9999981 0 0 0 5 5 4.9999981 4.9999981 0 0 0 5-5 4.9999981 4.9999981 0 0 0 -5-5z" fill-opacity=".6"/></g></svg>