<svg height="22" width="22" xmlns="http://www.w3.org/2000/svg" xmlns:xlink="http://www.w3.org/1999/xlink"><linearGradient id="a" gradientUnits="userSpaceOnUse" x1="383.53833" x2="416.79535" y1="531.66302" y2="531.39801"><stop offset="0" stop-color="#ac92ec"/><stop offset=".20237894" stop-color="#64a9ff"/><stop offset=".32345149" stop-color="#4cdbb7"/><stop offset=".53399092" stop-color="#aee672"/><stop offset=".76312304" stop-color="#ffce53"/><stop offset=".89940798" stop-color="#fb6e51"/><stop offset="1" stop-color="#ed5565"/></linearGradient><linearGradient id="b" gradientUnits="userSpaceOnUse" x1="2.895125973322" x2="18.777627123653" y1="10.952482897699" y2="10.865420560267"><stop offset="0" stop-color="#ac92ec"/><stop offset=".1366801" stop-color="#64a9ff"/><stop offset=".26767892" stop-color="#4cdbb7"/><stop offset=".49417827" stop-color="#aee672"/><stop offset=".74118012" stop-color="#ffce53"/><stop offset=".93032265" stop-color="#fb6e51"/><stop offset="1" stop-color="#ed5565"/></linearGradient><linearGradient id="c" gradientUnits="userSpaceOnUse" x1="400.355637364059" x2="400.40303455671" y1="546.679033762206" y2="516.781498750875"><stop offset="0" stop-color="#d8d8d8"/><stop offset="1" stop-color="#fff"/></linearGradient><g stroke-width="1.079655" transform="matrix(-.160103506976 .029803661378 -.029803661378 -.160103506976 5.204288122194 -10.049405564875)"><circle cx="235.78929" cy="426.28171" fill="none" r="67.570946" transform="matrix(-.596773725366 -.111090891165 .111090891165 -.596773725366 80.811448706061 146.641989140801)"/><circle cx="400.61902" cy="531.72919" fill="url(#c)" r="0" stroke="url(#a)" stroke-linecap="round" stroke-linejoin="round" stroke-width="1.759135" transform="matrix(-3.06547218122 -.570645175746 .570645175746 -3.06547218122 913.404953134824 1724.654570717852)"/><g stroke-width="1.079655" transform="matrix(.999999993845 .00000000499 -.00000000499 .999999993845 -.080103005952 .374398114954)"><circle cx="235.78929" cy="426.28171" fill="none" r="67.570946" transform="matrix(-.596773725366 -.111090891165 .111090891165 -.596773725366 80.811448706061 146.641989140801)"/><path d="m11 3c-4.4129865 0-7.9999999 3.5870088-8 8 .0000002 4.412988 3.5870135 8 8 8 4.412986 0 8-3.587014 8-8 0-4.4129909-3.587013-7.9999999-8-8zm0 .8925781c3.930221 0 7.105469 3.1772018 7.105469 7.1074219 0 3.930217-3.175248 7.107422-7.105469 7.107422-3.9302159-.000001-7.1074221-3.177207-7.1074219-7.107422-.0000002-3.9302217 3.177206-7.107422 7.1074219-7.1074219z" fill="url(#b)" transform="matrix(-6.036768854684 -1.123759372736 1.123759372736 -6.036768854684 42.790299084297 -55.191968947342)"/><path d="m11 3.8339844a7.1666663 7.1666663 0 0 0 -7.1660156 7.1660156 7.1666663 7.1666663 0 0 0 7.1660156 7.166016 7.1666663 7.1666663 0 0 0 7.166016-7.166016 7.1666663 7.1666663 0 0 0 -7.166016-7.1660156zm-.068359 3.2675781c.066385 0 .134105.0337368.171875.0996094l2.287109 3.9882811c.778204 1.357183.308345 3.08704-1.048828 3.865235-1.357174.778203-3.0889933.310288-3.8671876-1.046876-.5176724-.902812-.480556-1.975191 0-2.818359l2.2871096-3.9882811c.037765-.0658726.103537-.0996094.169922-.0996094z" fill="#4d4d4d" opacity=".9" transform="matrix(-6.036768706286 -1.123759302318 1.123759302318 -6.036768706286 42.79029889505 -55.191968925573)"/></g></g></svg>