<svg xmlns="http://www.w3.org/2000/svg" viewBox="0 0 22 22">
  <defs id="defs3051">
    <style type="text/css" id="current-color-scheme">
      .ColorScheme-Text {
        color:#4d4d4d;
      }
      .ColorScheme-Highlight {
        color:#3daee9;
      }
      </style>
  </defs>
 <path 
     style="fill:currentColor;fill-opacity:1;stroke:none" 
     d="M 11 3 C 10.771966 3 10.574868 3.0834965 10.408203 3.25 L 6.0273438 7.6308594 L 2.578125 7.6308594 C 2.3499296 7.6308594 2.1529931 7.7143559 1.9863281 7.8808594 C 1.8196631 8.0475244 1.7363281 8.2465755 1.7363281 8.4746094 L 1.7363281 13.525391 C 1.7363281 13.753424 1.8196631 13.952637 1.9863281 14.119141 C 2.1531546 14.285806 2.3500911 14.369141 2.578125 14.369141 L 6.0253906 14.369141 L 10.408203 18.75 C 10.574868 18.916503 10.771966 19 11 19 C 11.228195 19 11.425132 18.916503 11.591797 18.75 C 11.758462 18.583497 11.841797 18.386237 11.841797 18.158203 L 11.841797 3.8417969 C 11.841797 3.613763 11.7583 3.416665 11.591797 3.25 C 11.42497 3.0834965 11.228195 3 11 3 z M 14.525391 7.8417969 C 14.297357 7.8417969 14.100097 7.9218413 13.933594 8.0839844 C 13.76709 8.2462889 13.683594 8.446839 13.683594 8.6835938 C 13.683594 8.8678619 13.736339 9.0231309 13.841797 9.1503906 C 13.947093 9.2776503 14.075386 9.3884154 14.224609 9.4804688 C 14.37351 9.5725221 14.522652 9.6735466 14.671875 9.7832031 C 14.821098 9.8928596 14.947438 10.04829 15.052734 10.25 C 15.157707 10.451871 15.210938 10.701715 15.210938 11 C 15.210938 11.298285 15.157869 11.548129 15.052734 11.75 C 14.947438 11.951871 14.821098 12.106979 14.671875 12.216797 C 14.522652 12.326453 14.37351 12.427478 14.224609 12.519531 C 14.075386 12.611423 13.947093 12.720558 13.841797 12.847656 C 13.736501 12.975077 13.683594 13.132138 13.683594 13.316406 C 13.683594 13.553322 13.76709 13.751758 13.933594 13.914062 C 14.100097 14.076367 14.297357 14.158203 14.525391 14.158203 C 14.656849 14.158203 14.767776 14.135401 14.855469 14.091797 C 15.469642 13.845837 15.963041 13.435935 16.335938 12.861328 C 16.708834 12.286883 16.894531 11.66666 16.894531 11 C 16.894531 10.33334 16.708834 9.7098264 16.335938 9.1308594 C 15.962879 8.5518924 15.469642 8.1451193 14.855469 7.9082031 C 14.767776 7.8644374 14.656849 7.8417969 14.525391 7.8417969 z "
     class="ColorScheme-Text"
     />
 <path 
     style="fill:currentColor;fill-opacity:0.6;stroke:naone" 
     class="ColorScheme-Text"
     d="M 15.841797 4.7363281 C 15.613763 4.7363281 15.416826 4.8196631 15.25 4.9863281 C 15.083497 5.1529931 15 5.3500911 15 5.578125 C 15 5.9203373 15.17146 6.1799214 15.513672 6.3554688 C 16.004784 6.6098266 16.338286 6.8021351 16.513672 6.9335938 C 17.16289 7.4074262 17.669189 8.0018493 18.033203 8.7167969 C 18.397218 9.4317444 18.578125 10.192999 18.578125 11 C 18.578125 11.807001 18.397218 12.568256 18.033203 13.283203 C 17.669189 13.998312 17.162729 14.592735 16.513672 15.066406 C 16.338286 15.198026 16.004784 15.390173 15.513672 15.644531 C 15.17146 15.820079 15 16.07771 15 16.419922 C 15 16.647956 15.083497 16.847168 15.25 17.013672 C 15.416826 17.180498 15.618553 17.263672 15.855469 17.263672 C 15.960765 17.263672 16.069738 17.24087 16.183594 17.197266 C 17.411456 16.679506 18.398899 15.852767 19.144531 14.716797 C 19.890163 13.580988 20.263672 12.342202 20.263672 11 C 20.263672 9.6577978 19.890163 8.419658 19.144531 7.2832031 C 18.398899 6.1473942 17.411456 5.3203325 16.183594 4.8027344 C 16.069738 4.7589687 15.955652 4.7363281 15.841797 4.7363281 z "
     />
</svg>
