<svg viewBox="0 0 22 22" xmlns="http://www.w3.org/2000/svg"><path d="m7 3v1h12v-1zm0 2v1h5v-1zm0 4v1h12v-1zm0 2v1h6v-1zm0 4v1h12v-1zm0 2v1h9v-1z" fill="#4d4d4d"/><path d="m4.5 3c-.82842 0-1.49999.67157-1.5 1.5.00001.82843.67158 1.5 1.5 1.5s1.49999-.67157 1.5-1.5c-.00001-.82843-.67158-1.5-1.5-1.5zm0 6c-.82843 0-1.5.67157-1.5 1.5s.67157 1.5 1.5 1.5 1.5-.67157 1.5-1.5-.67157-1.5-1.5-1.5z" fill="#2ecc71"/><path d="m4.5 15c-.82843 0-1.5.67157-1.5 1.5s.67157 1.5 1.5 1.5 1.5-.67157 1.5-1.5-.67157-1.5-1.5-1.5zm12.5 3v1h2v-1z" fill="#da4453"/></svg>