<svg enable-background="new" height="24" width="24" xmlns="http://www.w3.org/2000/svg"><g enable-background="new" transform="matrix(.17959182 0 0 .17959182 -6.302633 -26.993096)"><path d="m101.91239 155.87066a61.250003 61.250003 0 0 0 -61.250001 61.25001 61.250003 61.250003 0 0 0 61.250001 61.25 61.250003 61.250003 0 0 0 61.25001-61.25 61.250003 61.250003 0 0 0 -61.25001-61.25001zm-20.855304 30.62501c7.109238 6.71494 13.907593 13.75562 20.855304 20.63599 6.94765-6.88072 13.74614-13.92042 20.85532-20.63599l9.76968 9.76969c-6.71522 7.10952-13.75548 13.90746-20.63598 20.85531 6.88071 6.94765 13.92042 13.74614 20.63598 20.85531l-9.76968 9.76969c-7.10953-6.71522-13.90746-13.75548-20.85532-20.63598-6.947639 6.88071-13.746129 13.9204-20.855304 20.63598l-9.769695-9.76969c6.715225-7.10953 13.755484-13.90746 20.635991-20.85531-6.880716-6.94764-13.920419-13.74613-20.635991-20.85531z" fill="#da4453" fill-rule="evenodd"/><path d="m81.057086 186.49567c7.109238 6.71494 13.907593 13.75562 20.855304 20.63599 6.94765-6.88072 13.74614-13.92042 20.85532-20.63599l9.76968 9.76969c-6.71522 7.10952-13.75548 13.90746-20.63598 20.85531 6.88071 6.94765 13.92042 13.74614 20.63598 20.85531l-9.76968 9.76969c-7.10953-6.71522-13.90746-13.75548-20.85532-20.63598-6.947639 6.88071-13.746129 13.9204-20.855304 20.63598l-9.769695-9.76969c6.715225-7.10953 13.755484-13.90746 20.635991-20.85531-6.880716-6.94764-13.920419-13.74613-20.635991-20.85531z" fill="#fff" fill-rule="evenodd"/></g></svg>