<svg enable-background="new" height="16" width="16" xmlns="http://www.w3.org/2000/svg" xmlns:xlink="http://www.w3.org/1999/xlink"><filter id="a" color-interpolation-filters="sRGB"><feBlend in2="BackgroundImage" mode="darken"/></filter><g filter="url(#a)" transform="translate(-805.00043 351.03455)"/><path d="m807.42562-347.56226c-.23607 0-.42519.19062-.42519.42669v8.20333c0 .23607.18912.42519.42519.42519h11.14812c.23607 0 .42669-.18912.42669-.42519v-8.20333c0-.23607-.19062-.42669-.42669-.42669zm4.84237 2.24765c.10694 0 .19613.0374.26744.11268l1.93664 1.93364c.0732.0733.10968.16251.10968.26744 0 .10292-.0364.19174-.10968.26894l-1.93664 1.93364c-.0732.0733-.1625.10968-.26744.10968-.10489 0-.1942-.0365-.26743-.10968l-.22537-.22236c-.0733-.0772-.10968-.16752-.10968-.27044 0-.10494.0364-.1942.10968-.26744l1.44385-1.44234-1.44385-1.44084c-.0733-.0772-.10968-.16752-.10968-.27044 0-.10493.0364-.1942.10968-.26744l.22537-.22236c.0713-.0752.16049-.11268.26743-.11268z" fill="#bebebe" transform="translate(-805.00043 351.03455)"/></svg>