<svg xmlns="http://www.w3.org/2000/svg" viewBox="0 0 16 16">
  <path fill="#bebebe" d="M8.835 4.277a.259.259 0 0 0-.356-.01c-.526.473-3.294 2.876-6.09 3.726l-.031.009a.259.259 0 0 0-.157.362l.014.028v.001c.01.02.413.862.466 2.048a5.405 5.405 0 0 1-.317 2.108.378.378 0 1 0 .405.331l2.709-2.709a.259.259 0 0 0 .064-.258.89.89 0 0 1 .854-1.15.886.886 0 0 1 .892.892.886.886 0 0 1-.26.63.886.886 0 0 1-.89.224.259.259 0 0 0-.258.064l-2.71 2.71a.377.377 0 0 0-.312.642.378.378 0 0 0 .644-.237 5.352 5.352 0 0 1 2.092-.318c1.19.05 2.058.463 2.066.467l.028.013a.258.258 0 0 0 .361-.157l.01-.03c.849-2.797 3.252-5.565 3.725-6.091a.259.259 0 0 0-.01-.356zm5.149.795l-3.005-3.005a.259.259 0 0 0-.366 0L9.327 3.353a.259.259 0 0 0 0 .366l3.005 3.005a.258.258 0 0 0 .366 0l1.286-1.286a.259.259 0 0 0 0-.366z"/>
</svg>
