<svg xmlns="http://www.w3.org/2000/svg" viewBox="0 0 16 16">
  <path fill="#bebebe" d="M2.426 3.473a.425.425 0 0 0-.425.427v8.203c0 .236.189.425.425.425h11.148a.425.425 0 0 0 .427-.425V3.9a.427.427 0 0 0-.427-.427zm4.842 2.248a.35.35 0 0 1 .267.113l1.937 1.934c.073.073.11.163.11.267a.374.374 0 0 1-.11.269l-1.937 1.934a.365.365 0 0 1-.267.11.364.364 0 0 1-.267-.11l-.225-.222a.382.382 0 0 1-.11-.27.36.36 0 0 1 .11-.267L8.22 8.037 6.776 6.596a.382.382 0 0 1-.11-.27.36.36 0 0 1 .11-.267l.225-.222a.353.353 0 0 1 .267-.113z"/>
</svg>
