<svg height="16" viewBox="0 0 16 16" width="16" xmlns="http://www.w3.org/2000/svg"><path d="m61.978321 6.5527772c46.511989 0 91.289989 6.0180008 134.333989 18.0539998 43.044 12.036 83.334 29.07 120.869 51.102 37.537 22.032 71.707 48.449993 102.514 79.253993 30.803 30.804 57.221 64.974 79.254 102.51 22.029 37.539 39.063 77.828 51.102 120.873 12.037 43.043 18.055 87.818 18.055 134.334 0 14.688-5.201 27.23-15.605 37.637s-22.949 15.604-37.637 15.604c-14.689 0-27.234-5.199-37.641-15.604-10.402-10.404-15.604-22.949-15.604-37.637 0-36.723-4.795-72.115-14.383-106.186-9.588-34.064-23.055-65.891-40.395-95.471-17.34-29.581-38.145-56.509-62.424-80.785-24.277-24.276-51.203-45.084-80.784-62.424-29.58-17.34-61.404-30.804-95.472-40.392s-69.461989-14.382-106.181989-14.382c-14.688 0-27.234-5.202-37.638-15.605993-10.404001-10.404-15.6060006-22.95-15.6060006-37.638s5.2019996-27.234 15.6060006-37.637999c10.403-10.403 22.949-15.6050008 37.637-15.6050008zm0 201.3479928c42.023999 0 81.497989 8.058 118.421989 24.174s69.156 37.944 96.696 65.484c27.541 27.541 49.369 59.771 65.484 96.693 16.117 36.928 24.174 76.398 24.174 118.426 0 14.688-5.201 27.23-15.604 37.637-10.404 10.404-22.949 15.604-37.641 15.604-14.688 0-27.233-5.199-37.637-15.604-10.404-10.404-15.606-22.949-15.606-37.637 0-27.338-5.202-53.041-15.606-77.113s-24.582-45.084-42.534-63.035c-17.952-17.953-38.964-32.131-63.036-42.535-24.072-10.402-49.775989-15.604-77.111989-15.604-14.688 0-27.234-5.201-37.638-15.605-10.404001-10.405-15.6060006-22.951-15.6060006-37.639s5.2019996-27.234 15.6060006-37.638c10.404-10.406 22.95-15.608 37.638-15.608zm97.919989 279.683c0 10.609-1.938 20.4-5.814 29.377-3.876 8.979-9.18 16.83-15.912 23.563-6.732 6.729-14.688 12.035-23.868 15.912-9.17999 3.875-18.869989 5.811-29.069989 5.811-10.608 0-20.4-1.938-29.376-5.811-8.976-3.875-16.83-9.184-23.562-15.912-6.732-6.732-12.036-14.586-15.912001-23.563-3.876-8.977-5.814-18.768-5.814-29.377 0-10.197 1.938-19.889 5.814-29.066 3.876001-9.184 9.180001-17.139 15.912001-23.869 6.732-6.732 14.586-12.035 23.562-15.912 8.976-3.875 18.768-5.814 29.376-5.814 10.2 0 19.889999 1.939 29.069989 5.814 9.18 3.877 17.136 9.18 23.868 15.912 6.732 6.73 12.036 14.688 15.912 23.869 3.876 9.178 5.814 18.867 5.814 29.066z" fill="#bebebe" transform="matrix(.02145262948 0 0 .02145262948 1.812622577787 1.859506746259)"/></svg>