<svg xmlns="http://www.w3.org/2000/svg" viewBox="0 0 16 16">
  <path fill="#bebebe" d="M12.499 7.677h-.852v-2.27c0-.625-.51-1.136-1.135-1.136h-2.27v-.85c0-.796-.625-1.42-1.42-1.42s-1.418.624-1.418 1.42v.85h-2.27a1.14 1.14 0 0 0-1.136 1.136v2.156h.852c.851 0 1.532.681 1.532 1.533s-.68 1.532-1.532 1.532h-.852v2.157c0 .624.511 1.135 1.136 1.135H5.29v-.851c0-.852.681-1.533 1.533-1.533s1.532.681 1.532 1.533v.851h2.157c.624 0 1.135-.51 1.135-1.135v-2.27h.852c.794 0 1.418-.625 1.418-1.42s-.624-1.418-1.418-1.418z"/>
</svg>
