<svg xmlns="http://www.w3.org/2000/svg" viewBox="0 0 16 16">
  <path fill="#bebebe" d="M10.616 9.2c.048-.396.084-.792.084-1.2s-.036-.804-.084-1.2h2.028c.096.384.156.786.156 1.2s-.06.816-.156 1.2m-3.09 3.336a9.39 9.39 0 0 0 .828-2.136h1.77a4.818 4.818 0 0 1-2.598 2.136M9.404 9.2H6.596C6.536 8.804 6.5 8.408 6.5 8s.036-.81.096-1.2h2.808c.054.39.096.792.096 1.2s-.042.804-.096 1.2M8 12.776A8.138 8.138 0 0 1 6.854 10.4h2.292A8.138 8.138 0 0 1 8 12.776M5.6 5.6H3.848A4.754 4.754 0 0 1 6.44 3.464 10.34 10.34 0 0 0 5.6 5.6m-1.752 4.8H5.6c.21.75.48 1.47.84 2.136A4.805 4.805 0 0 1 3.848 10.4m-.492-1.2C3.26 8.816 3.2 8.414 3.2 8s.06-.816.156-1.2h2.028c-.048.396-.084.792-.084 1.2s.036.804.084 1.2M8 3.218c.498.72.9 1.524 1.146 2.382H6.854A8.171 8.171 0 0 1 8 3.218M12.152 5.6h-1.77a9.39 9.39 0 0 0-.828-2.136A4.792 4.792 0 0 1 12.152 5.6M8 2C4.682 2 2 4.7 2 8a6 6 0 0 0 6 6 6 6 0 0 0 6-6 6 6 0 0 0-6-6z"/>
</svg>
