<?xml version="1.0" encoding="UTF-8" standalone="no"?>
<!-- Created with Inkscape (http://www.inkscape.org/) -->

<svg
   xmlns:osb="http://www.openswatchbook.org/uri/2009/osb"
   xmlns:dc="http://purl.org/dc/elements/1.1/"
   xmlns:cc="http://creativecommons.org/ns#"
   xmlns:rdf="http://www.w3.org/1999/02/22-rdf-syntax-ns#"
   xmlns:svg="http://www.w3.org/2000/svg"
   xmlns="http://www.w3.org/2000/svg"
   xmlns:sodipodi="http://sodipodi.sourceforge.net/DTD/sodipodi-0.dtd"
   xmlns:inkscape="http://www.inkscape.org/namespaces/inkscape"
   sodipodi:docname="x-office-presentation-symbolic.svg"
   inkscape:export-filename="/home/sam/source-symbolic.png"
   inkscape:export-xdpi="270"
   inkscape:export-ydpi="270"
   height="16"
   id="svg7384"
   style="enable-background:new"
   version="1.1"
   inkscape:version="0.91 r13725"
   width="16">
  <sodipodi:namedview
     inkscape:bbox-nodes="true"
     inkscape:bbox-paths="false"
     bordercolor="#666666"
     borderlayer="false"
     borderopacity="1"
     inkscape:current-layer="svg7384"
     inkscape:cx="0.57436213"
     inkscape:cy="10.147587"
     gridtolerance="10"
     inkscape:guide-bbox="true"
     guidetolerance="10"
     id="namedview88"
     inkscape:object-nodes="true"
     inkscape:object-paths="true"
     objecttolerance="10"
     pagecolor="#f7f7f7"
     inkscape:pageopacity="1"
     inkscape:pageshadow="2"
     showborder="true"
     showgrid="false"
     showguides="true"
     inkscape:showpageshadow="false"
     inkscape:snap-bbox="true"
     inkscape:snap-bbox-edge-midpoints="false"
     inkscape:snap-bbox-midpoints="true"
     inkscape:snap-center="false"
     inkscape:snap-global="true"
     inkscape:snap-grids="true"
     inkscape:snap-intersection-paths="true"
     inkscape:snap-midpoints="true"
     inkscape:snap-nodes="true"
     inkscape:snap-object-midpoints="true"
     inkscape:snap-others="true"
     inkscape:snap-page="false"
     inkscape:snap-smooth-nodes="true"
     inkscape:snap-to-guides="true"
     inkscape:window-height="642"
     inkscape:window-maximized="1"
     inkscape:window-width="1366"
     inkscape:window-x="0"
     inkscape:window-y="33"
     inkscape:zoom="31.999999">
    <inkscape:grid
       color="#000000"
       dotted="false"
       empcolor="#0800ff"
       empopacity="0.4627451"
       empspacing="4"
       enabled="true"
       id="grid4866"
       opacity="0.16470588"
       originx="-463.99998"
       originy="-548.00336"
       snapvisiblegridlinesonly="true"
       spacingx="0.25px"
       spacingy="0.25px"
       type="xygrid"
       visible="true" />
  </sodipodi:namedview>
  <metadata
     id="metadata90">
    <rdf:RDF>
      <cc:Work
         rdf:about="">
        <dc:format>image/svg+xml</dc:format>
        <dc:type
           rdf:resource="http://purl.org/dc/dcmitype/StillImage" />
        <dc:title>Paper Symbolic Icon Theme</dc:title>
      </cc:Work>
    </rdf:RDF>
  </metadata>
  <title
     id="title8473">Paper Symbolic Icon Theme</title>
  <defs
     id="defs7386">
    <linearGradient
       id="linearGradient5606"
       osb:paint="solid">
      <stop
         id="stop5608"
         offset="0"
         style="stop-color:#000000;stop-opacity:1;" />
    </linearGradient>
    <linearGradient
       id="linearGradient4207"
       osb:paint="gradient">
      <stop
         style="stop-color:#3498db;stop-opacity:1;"
         offset="0"
         id="stop3371" />
      <stop
         style="stop-color:#3498db;stop-opacity:0;"
         offset="1"
         id="stop3373" />
    </linearGradient>
    <linearGradient
       id="linearGradient4422-1">
      <stop
         id="stop4424-78"
         offset="0"
         style="stop-color:#8798a9;stop-opacity:1" />
      <stop
         id="stop4426-8"
         offset="1"
         style="stop-color:#aeb6be;stop-opacity:1" />
    </linearGradient>
  </defs>
  <path
     inkscape:connector-curvature="0"
     style="display:inline;opacity:1;fill:#bebebe;fill-opacity:1;fill-rule:evenodd;stroke:none;stroke-width:1px;stroke-linecap:butt;stroke-linejoin:miter;stroke-opacity:1;enable-background:new"
     d="m 12.189492,2.0058592 -4.4863282,0.421875 -4.6289064,0 c -0.572,-0.0424 -0.8027344,0.00903 -0.8027344,0.5273438 l 0,9.964844 c -0.0359,0.56873 0.2015826,0.55664 0.7578126,0.55664 l 4.7246094,0 L 12.226601,14 c 0.346033,0 0.461244,-0.118362 0.498047,-0.34375 l 0.40625,0 c 0.092,0 0.17019,0.0032 0.25,-0.0078 0.0798,-0.0107 0.174878,-0.04261 0.242188,-0.11914 0.0673,-0.0766 0.09101,-0.168665 0.101562,-0.265625 0.0103,-0.0948 0.008,-0.204723 0.002,-0.345703 l 0,-0.0078 0,-9.9570311 c 0,-0.26274 0.02119,-0.4278575 -0.09961,-0.5859375 -0.0604,-0.079 -0.162207,-0.1220825 -0.248047,-0.1328125 -0.0858,-0.0107 -0.167518,-0.00123 -0.267578,0.00977 l 0.01953,-0.00391 -0.394531,0 C 12.684902,2.04886 12.555893,1.9778575 12.189492,2.0058592 Z m 1.146484,0.5839844 c -0.01,-0.0127 0.02539,0.1077913 0.02539,0.3632813 l 0,9.9687501 0,0.0039 c 0.006,0.13871 0.005,0.238098 -0.002,0.298828 -0.007,0.0607 -0.01922,0.071 -0.01172,0.0625 0.007,-0.008 0.02067,-0.007 -0.01563,-0.002 -0.0363,0.005 -0.107152,0.0059 -0.201172,0.0059 l -0.390625,0 c -0.002,-0.0406 -0.0012,-0.07084 -0.0039,-0.115235 l 0.03906,-10.5410155 c 0,-0.011007 -0.0019,-0.016665 -0.002,-0.027344 l 0.367188,0 0.0098,-0.00195 c 0.0913,-0.0101 0.156044,-0.010913 0.183594,-0.00781 0.0276,0.003 0.007,-6.225e-4 0.002,-0.00781 z M 5.6328513,5.9218749 c 1.01378,0 1.8359375,0.8202543 1.8359375,1.8339843 l -1.8359375,0 c 3.8e-4,0 3.8e-4,-1.8339843 0,-1.8339843 z m -0.515625,0.5 0,1.8359375 1.8359375,0 c 0,1.01492 -0.8217775,1.8359376 -1.8359375,1.8359376 -1.01416,0 -1.8359375,-0.8210176 -1.8359375,-1.8359376 0,-1.01416 0.8221575,-1.8359375 1.8359375,-1.8359375 z m 3.078125,0.4882812 1.1484375,0 0.3652343,0 1.6503909,0 c 0.0485,0 0.08789,0.039391 0.08789,0.087891 l 0,0.4511718 c 0,0.0485 -0.03939,0.087891 -0.08789,0.087891 l -1.6503909,0 -0.3652343,0 -1.1484375,0 c -0.0485,0 -0.087891,-0.039391 -0.087891,-0.087891 l 0,-0.4511718 c 0,-0.0485 0.039391,-0.087891 0.087891,-0.087891 z m 0.00391,1.0878907 1.1445313,0 0.3652343,0 1.6542971,0 c 0.0485,0 0.08594,0.039391 0.08594,0.087891 l 0,0.4492187 c 0,0.0485 -0.03744,0.087891 -0.08594,0.087891 l -1.6542971,0 -0.3652343,0 -1.1445313,0 c -0.0485,0 -0.087891,-0.039391 -0.087891,-0.087891 l 0,-0.4492187 c 0,-0.0485 0.039391,-0.087891 0.087891,-0.087891 z m 0.00391,1.0078124 1.140625,0 0.3652343,0 1.6582034,0 c 0.0485,0 0.08789,0.039391 0.08789,0.087891 l 0,0.4511719 c 0,0.0485 -0.03939,0.087891 -0.08789,0.087891 l -1.6582034,0 -0.3652343,0 -1.140625,0 c -0.0485,0 -0.087891,-0.039391 -0.087891,-0.087891 l 0,-0.4511719 c 0,-0.0485 0.039391,-0.087891 0.087891,-0.087891 z"
     id="path4248" />
</svg>
