<?xml version="1.0" encoding="UTF-8" standalone="no"?>
<!-- Created with Inkscape (http://www.inkscape.org/) -->

<svg
   xmlns:osb="http://www.openswatchbook.org/uri/2009/osb"
   xmlns:dc="http://purl.org/dc/elements/1.1/"
   xmlns:cc="http://creativecommons.org/ns#"
   xmlns:rdf="http://www.w3.org/1999/02/22-rdf-syntax-ns#"
   xmlns:svg="http://www.w3.org/2000/svg"
   xmlns="http://www.w3.org/2000/svg"
   xmlns:sodipodi="http://sodipodi.sourceforge.net/DTD/sodipodi-0.dtd"
   xmlns:inkscape="http://www.inkscape.org/namespaces/inkscape"
   sodipodi:docname="x-office-drawing-symbolic.svg"
   inkscape:export-filename="/home/sam/source-symbolic.png"
   inkscape:export-xdpi="270"
   inkscape:export-ydpi="270"
   height="16"
   id="svg7384"
   style="enable-background:new"
   version="1.1"
   inkscape:version="0.91 r13725"
   width="16">
  <sodipodi:namedview
     inkscape:bbox-nodes="true"
     inkscape:bbox-paths="false"
     bordercolor="#666666"
     borderlayer="false"
     borderopacity="1"
     inkscape:current-layer="svg7384"
     inkscape:cx="-32.346719"
     inkscape:cy="4.2699611"
     gridtolerance="10"
     inkscape:guide-bbox="true"
     guidetolerance="10"
     id="namedview88"
     inkscape:object-nodes="true"
     inkscape:object-paths="true"
     objecttolerance="10"
     pagecolor="#f7f7f7"
     inkscape:pageopacity="1"
     inkscape:pageshadow="2"
     showborder="true"
     showgrid="false"
     showguides="true"
     inkscape:showpageshadow="false"
     inkscape:snap-bbox="true"
     inkscape:snap-bbox-edge-midpoints="false"
     inkscape:snap-bbox-midpoints="true"
     inkscape:snap-center="false"
     inkscape:snap-global="true"
     inkscape:snap-grids="true"
     inkscape:snap-intersection-paths="true"
     inkscape:snap-midpoints="true"
     inkscape:snap-nodes="true"
     inkscape:snap-object-midpoints="true"
     inkscape:snap-others="true"
     inkscape:snap-page="false"
     inkscape:snap-smooth-nodes="true"
     inkscape:snap-to-guides="true"
     inkscape:window-height="642"
     inkscape:window-maximized="1"
     inkscape:window-width="1366"
     inkscape:window-x="0"
     inkscape:window-y="33"
     inkscape:zoom="11.313708">
    <inkscape:grid
       color="#000000"
       dotted="false"
       empcolor="#0800ff"
       empopacity="0.4627451"
       empspacing="4"
       enabled="true"
       id="grid4866"
       opacity="0.16470588"
       originx="-463.99998"
       originy="-548.00336"
       snapvisiblegridlinesonly="true"
       spacingx="0.25px"
       spacingy="0.25px"
       type="xygrid"
       visible="true" />
  </sodipodi:namedview>
  <metadata
     id="metadata90">
    <rdf:RDF>
      <cc:Work
         rdf:about="">
        <dc:format>image/svg+xml</dc:format>
        <dc:type
           rdf:resource="http://purl.org/dc/dcmitype/StillImage" />
        <dc:title>Paper Symbolic Icon Theme</dc:title>
      </cc:Work>
    </rdf:RDF>
  </metadata>
  <title
     id="title8473">Paper Symbolic Icon Theme</title>
  <defs
     id="defs7386">
    <linearGradient
       id="linearGradient5606"
       osb:paint="solid">
      <stop
         id="stop5608"
         offset="0"
         style="stop-color:#000000;stop-opacity:1;" />
    </linearGradient>
    <linearGradient
       id="linearGradient4207"
       osb:paint="gradient">
      <stop
         style="stop-color:#3498db;stop-opacity:1;"
         offset="0"
         id="stop3371" />
      <stop
         style="stop-color:#3498db;stop-opacity:0;"
         offset="1"
         id="stop3373" />
    </linearGradient>
  </defs>
  <path
     d="m 2.5819359,3.4078877 -0.0056,3.8707098 -0.5010494,0 -0.00209,1.4075655 0.5010503,0 -0.00569,3.887557 -0.5663781,0 L 2,13.981191 l 1.4028816,0 7.713e-4,-0.519509 3.9233927,0.0095 -7.564e-4,0.502661 1.4029376,0 7.564e-4,-0.502661 3.6423328,0.0095 -7.63e-4,0.519318 1.402904,0 0.0021,-1.407566 -0.285344,0 0.0057,-3.8874618 0.501021,0 L 14,7.2974438 l -0.501029,0 0.0057,-3.8709002 0.350729,0 0.0021,-1.4074703 -1.402912,0 -7.32e-4,0.5027563 -3.7077214,-0.00952 7.563e-4,-0.5026611 -1.4029035,0 -7.564e-4,0.5026611 -3.8580134,-0.00952 7.571e-4,-0.5027563 -1.4029338,0 -0.00209,1.4075655 0.5010504,0 z m 5.891e-4,-0.4020528 -0.1002618,-1.903e-4 9.487e-4,-0.6031744 0.6012354,0 -8.35e-5,0.1005132 -5.892e-4,0.402148 -1.1e-4,0.1006083 -0.1002628,-9.51e-5 -0.4007866,0 z m 10.915858,4.6910917 0.100255,0 -8.72e-4,0.6031744 -0.100262,0 -0.209459,7.614e-4 -0.191256,8.567e-4 -0.100239,0 8.88e-4,-0.6033647 0.100224,9.51e-5 0.191264,-8.566e-4 0.209458,0 z M 2.5748007,8.284015 l -0.1002619,-9.51e-5 9.487e-4,-0.6031744 0.100261,0 0.2094595,-7.615e-4 0.1912341,-7.614e-4 0.1002542,9.52e-5 -9.487e-4,0.6031743 -0.1002542,0 -0.1912331,7.615e-4 -0.209729,9.52e-5 z m 5.2357563,0.075195 c -0.039261,0.039025 -0.1025473,0.039025 -0.1416408,4.759e-4 -0.019678,-0.019988 -0.029161,-0.045688 -0.029335,-0.071387 -2.07e-5,-0.025699 0.00966,-0.051399 0.030057,-0.070435 L 7.8954378,7.9919938 7.670312,7.7653632 c -0.019607,-0.019989 -0.02916,-0.04664 -0.029248,-0.070435 1.68e-4,-0.026651 0.00965,-0.051399 0.030057,-0.070435 0.039262,-0.039025 0.1025331,-0.039025 0.141641,-4.759e-4 L 8.037888,7.8506471 8.2636996,7.6246828 c 0.03919,-0.039025 0.1026369,-0.039025 0.1416631,-5.711e-4 0.039055,0.039025 0.038968,0.1030831 -1.673e-4,0.1422033 l -0.2258299,0.2261547 0.225171,0.2264402 c 0.039127,0.039025 0.038889,0.1028928 -1.942e-4,0.1421082 -0.039111,0.039025 -0.10287,0.039977 -0.1416702,5.711e-4 L 8.0375193,8.1350537 7.8117148,8.3611132 Z m -5.4090854,5.2200234 9.487e-4,-0.60327 0.1655203,-5.71e-4 0.4008018,0 0.034647,4.76e-4 -2.581e-4,0.08376 -5.891e-4,0.402053 -1.699e-4,0.117265 -0.601204,0 z m 1.0035095,-1.003895 -0.4356799,0 0.00455,-3.1491276 C 3.4672834,11.18205 4.8430881,12.566486 6.591897,13.066673 l -3.1876758,-0.0095 6.622e-4,-0.486004 z m 4.3227744,0.995043 1.11e-4,-0.100608 2.989e-4,-0.21026 2.902e-4,-0.191793 1.11e-4,-0.100609 0.6012346,0 -8.4e-5,0.100418 -2.903e-4,0.191889 -2.989e-4,0.210355 -8.4e-5,0.100513 -0.6012615,0 z m 5.6473735,-0.578141 -7.1e-4,0.485909 -1.69e-4,0.117265 -0.601235,0 1.43e-4,-0.11717 5.97e-4,-0.402148 2.58e-4,-0.08471 0.315891,0 0.285363,0 z m -0.284775,-0.402624 -0.716685,0 -7.18e-4,0.486004 -2.9066365,-0.0095 C 11.216693,12.57115 12.59639,11.190712 13.095003,9.4364902 l -0.0046,3.1490328 z m 0.365679,-10.170584 -1.1e-4,0.1006084 -7.33e-4,0.5026612 -0.350721,0 -0.25054,0 1.1e-4,-0.1005132 5.97e-4,-0.4022432 1.11e-4,-0.1006083 0.601226,0 z m -1.003562,1.0038946 0.651302,0 -0.0046,3.1322805 C 12.605689,4.7992721 11.230022,3.4151216 9.4813167,2.91484 l 2.9718223,0.00952 -7.32e-4,0.5026612 z m -4.1070683,-1.011414 -1.101e-4,0.1006084 -2.989e-4,0.2101639 -2.903e-4,0.1918888 -1.11e-4,0.1006084 -0.6012345,0 1.11e-4,-0.1006084 2.901e-4,-0.1917936 2.99e-4,-0.2103543 1.102e-4,-0.1005132 0.6012354,0 z M 6.6068192,2.9116038 C 4.8565691,3.4067455 3.4767069,4.7868983 2.9781374,6.5414056 l 0.00455,-3.1324709 0.5010494,0 7.561e-4,-0.5027563 3.1222968,0.00952 z"
     id="path7-7"
     inkscape:connector-curvature="0"
     style="opacity:1;fill:#bebebe;fill-opacity:1" />
</svg>
