<?xml version="1.0" encoding="UTF-8" standalone="no"?>
<!-- Created with Inkscape (http://www.inkscape.org/) -->

<svg
   xmlns:osb="http://www.openswatchbook.org/uri/2009/osb"
   xmlns:dc="http://purl.org/dc/elements/1.1/"
   xmlns:cc="http://creativecommons.org/ns#"
   xmlns:rdf="http://www.w3.org/1999/02/22-rdf-syntax-ns#"
   xmlns:svg="http://www.w3.org/2000/svg"
   xmlns="http://www.w3.org/2000/svg"
   xmlns:sodipodi="http://sodipodi.sourceforge.net/DTD/sodipodi-0.dtd"
   xmlns:inkscape="http://www.inkscape.org/namespaces/inkscape"
   sodipodi:docname="x-office-drawing-symbolic.svg"
   inkscape:export-filename="/home/sam/source-symbolic.png"
   inkscape:export-xdpi="270"
   inkscape:export-ydpi="270"
   height="16"
   id="svg7384"
   style="enable-background:new"
   version="1.1"
   inkscape:version="0.91 r13725"
   width="16">
  <sodipodi:namedview
     inkscape:bbox-nodes="true"
     inkscape:bbox-paths="false"
     bordercolor="#666666"
     borderlayer="false"
     borderopacity="1"
     inkscape:current-layer="layer14"
     inkscape:cx="-0.88046539"
     inkscape:cy="4.2699611"
     gridtolerance="10"
     inkscape:guide-bbox="true"
     guidetolerance="10"
     id="namedview88"
     inkscape:object-nodes="true"
     inkscape:object-paths="true"
     objecttolerance="10"
     pagecolor="#f7f7f7"
     inkscape:pageopacity="1"
     inkscape:pageshadow="2"
     showborder="true"
     showgrid="false"
     showguides="true"
     inkscape:showpageshadow="false"
     inkscape:snap-bbox="true"
     inkscape:snap-bbox-edge-midpoints="false"
     inkscape:snap-bbox-midpoints="true"
     inkscape:snap-center="false"
     inkscape:snap-global="true"
     inkscape:snap-grids="true"
     inkscape:snap-intersection-paths="true"
     inkscape:snap-midpoints="true"
     inkscape:snap-nodes="true"
     inkscape:snap-object-midpoints="true"
     inkscape:snap-others="true"
     inkscape:snap-page="false"
     inkscape:snap-smooth-nodes="true"
     inkscape:snap-to-guides="true"
     inkscape:window-height="642"
     inkscape:window-maximized="1"
     inkscape:window-width="1366"
     inkscape:window-x="0"
     inkscape:window-y="33"
     inkscape:zoom="11.313708">
    <inkscape:grid
       color="#000000"
       dotted="false"
       empcolor="#0800ff"
       empopacity="0.4627451"
       empspacing="4"
       enabled="true"
       id="grid4866"
       opacity="0.16470588"
       originx="-463.99998"
       originy="-548.00336"
       snapvisiblegridlinesonly="true"
       spacingx="0.25px"
       spacingy="0.25px"
       type="xygrid"
       visible="true" />
  </sodipodi:namedview>
  <metadata
     id="metadata90">
    <rdf:RDF>
      <cc:Work
         rdf:about="">
        <dc:format>image/svg+xml</dc:format>
        <dc:type
           rdf:resource="http://purl.org/dc/dcmitype/StillImage" />
        <dc:title>Paper Symbolic Icon Theme</dc:title>
      </cc:Work>
    </rdf:RDF>
  </metadata>
  <title
     id="title8473">Paper Symbolic Icon Theme</title>
  <defs
     id="defs7386">
    <linearGradient
       id="linearGradient5606"
       osb:paint="solid">
      <stop
         id="stop5608"
         offset="0"
         style="stop-color:#000000;stop-opacity:1;" />
    </linearGradient>
    <filter
       inkscape:collect="always"
       id="filter7554"
       style="color-interpolation-filters:sRGB">
      <feBlend
         inkscape:collect="always"
         id="feBlend7556"
         in2="BackgroundImage"
         mode="darken" />
    </filter>
    <linearGradient
       id="linearGradient4207"
       osb:paint="gradient">
      <stop
         style="stop-color:#3498db;stop-opacity:1;"
         offset="0"
         id="stop3371" />
      <stop
         style="stop-color:#3498db;stop-opacity:0;"
         offset="1"
         id="stop3373" />
    </linearGradient>
  </defs>
  <g
     inkscape:groupmode="layer"
     id="layer9"
     inkscape:label="status"
     style="display:inline"
     transform="translate(-705.00018,331.00336)" />
  <g
     inkscape:groupmode="layer"
     id="layer10"
     inkscape:label="devices"
     style="display:inline;filter:url(#filter7554)"
     transform="translate(-705.00018,331.00336)" />
  <g
     inkscape:groupmode="layer"
     id="layer1"
     inkscape:label="places"
     style="display:inline"
     transform="translate(-463.99998,-285.99664)" />
  <g
     inkscape:groupmode="layer"
     id="layer14"
     inkscape:label="mimetypes"
     style="display:inline"
     transform="translate(-705.00018,331.00336)">
    <g
       transform="matrix(1.245381,0,0,1.245381,702.91281,-1623.6542)"
       id="layer1-8"
       inkscape:label="Capa 1"
       style="fill:#555555;fill-opacity:1">
      <path
         style="opacity:1;fill:#555555;fill-opacity:1"
         inkscape:connector-curvature="0"
         id="path7-7"
         d="m 2.4019035,1039.556 -0.0059,4.0666 -0.528141,0 -0.0022,1.4788 0.528142,0 -0.006,4.0843 -0.597002,0 -0.0023,1.4787 1.478735,0 8.13e-4,-0.5458 4.1355294,0.01 -7.973e-4,0.5281 1.478794,0 7.973e-4,-0.5281 3.8392731,0.01 -8.05e-4,0.5456 1.478759,0 0.0022,-1.4788 -0.300773,0 0.006,-4.0842 0.528111,0 0.0022,-1.4788 -0.528119,0 0.006,-4.0668 0.369693,0 0.0022,-1.4787 -1.478767,0 -7.72e-4,0.5282 -3.9081965,-0.01 7.972e-4,-0.5281 -1.478758,0 -7.973e-4,0.5281 -4.0666151,-0.01 7.98e-4,-0.5282 -1.47879,0 -0.0022,1.4788 0.528142,0 z m 6.21e-4,-0.4224 -0.105683,-2e-4 10e-4,-0.6337 0.633744,0 -8.8e-5,0.1056 -6.21e-4,0.4225 -1.16e-4,0.1057 -0.105684,-10e-5 -0.422457,0 z m 11.5060755,4.9285 0.105675,0 -9.19e-4,0.6337 -0.105683,0 -0.220784,8e-4 -0.201597,9e-4 -0.105659,0 9.36e-4,-0.6339 0.105643,10e-5 0.201605,-9e-4 0.220784,0 z m -11.5142175,0.6168 -0.105683,-1e-4 0.001,-0.6337 0.105682,0 0.220785,-8e-4 0.201574,-8e-4 0.105675,10e-5 -10e-4,0.6337 -0.105675,0 -0.201573,8e-4 -0.221069,10e-5 z m 5.5188521,0.079 c -0.041384,0.041 -0.108092,0.041 -0.1492993,5e-4 -0.020742,-0.021 -0.030738,-0.048 -0.030921,-0.075 -2.18e-5,-0.027 0.010179,-0.054 0.031682,-0.074 l 0.2380086,-0.2373 -0.2372983,-0.2381 c -0.020667,-0.021 -0.030737,-0.049 -0.030829,-0.074 1.771e-4,-0.028 0.010171,-0.054 0.031682,-0.074 0.041385,-0.041 0.108077,-0.041 0.1492994,-5e-4 l 0.2372983,0.2381 0.2380212,-0.2374 c 0.041309,-0.041 0.1081864,-0.041 0.1493228,-6e-4 0.041167,0.041 0.041075,0.1083 -1.764e-4,0.1494 l -0.2380404,0.2376 0.2373459,0.2379 c 0.041243,0.041 0.040992,0.1081 -2.047e-4,0.1493 -0.041226,0.041 -0.1084321,0.042 -0.1493303,6e-4 l -0.2373267,-0.238 -0.2380137,0.2375 z m -5.7015531,5.4842 10e-4,-0.6338 0.17447,-6e-4 0.422473,0 0.03652,5e-4 -2.72e-4,0.088 -6.21e-4,0.4224 -1.79e-4,0.1232 -0.633711,0 z m 1.057769,-1.0547 -0.459237,0 0.0048,-3.3085 c 0.520108,1.8447 1.970302,3.2992 3.8136685,3.8247 l -3.3600325,-0.01 6.98e-4,-0.5106 z m 4.5565056,1.0454 1.17e-4,-0.1057 3.15e-4,-0.2209 3.059e-4,-0.2015 1.17e-4,-0.1057 0.6337432,0 -8.86e-5,0.1055 -3.059e-4,0.2016 -3.151e-4,0.221 -8.85e-5,0.1056 -0.6337716,0 z m 5.9527249,-0.6074 -7.48e-4,0.5105 -1.78e-4,0.1232 -0.633744,0 1.51e-4,-0.1231 6.29e-4,-0.4225 2.72e-4,-0.089 0.332971,0 0.300793,0 z m -0.300172,-0.423 -0.755436,0 -7.57e-4,0.5106 -3.0637976,-0.01 c 1.8450206,-0.52 3.2993176,-1.9703 3.8248906,-3.8133 l -0.0049,3.3084 z m 0.385451,-10.6853 -1.16e-4,0.1057 -7.73e-4,0.5281 -0.369684,0 -0.264087,0 1.16e-4,-0.1056 6.29e-4,-0.4226 1.17e-4,-0.1057 0.633735,0 z m -1.057824,1.0547 0.686517,0 -0.0049,3.2908 c -0.520115,-1.8448 -1.970164,-3.299 -3.8134212,-3.8246 l 3.1325082,0.01 -7.72e-4,0.5281 z m -4.3291367,-1.0626 -1.161e-4,0.1057 -3.151e-4,0.2208 -3.059e-4,0.2016 -1.17e-4,0.1057 -0.6337431,0 1.17e-4,-0.1057 3.058e-4,-0.2015 3.151e-4,-0.221 1.162e-4,-0.1056 0.633744,0 z m -1.8325882,0.5254 c -1.8448856,0.5202 -3.2993566,1.9702 -3.8248836,3.8135 l 0.0048,-3.291 0.528141,0 7.97e-4,-0.5282 3.2911185,0.01 z" />
    </g>
  </g>
  <g
     inkscape:groupmode="layer"
     id="layer15"
     inkscape:label="emblems"
     style="display:inline"
     transform="translate(-705.00018,331.00336)" />
  <g
     inkscape:groupmode="layer"
     id="g71291"
     inkscape:label="emotes"
     style="display:inline"
     transform="translate(-705.00018,331.00336)" />
  <g
     inkscape:groupmode="layer"
     id="layer2"
     inkscape:label="categories"
     style="display:inline"
     transform="translate(-463.99998,-135.99664)" />
  <g
     inkscape:groupmode="layer"
     id="g6058"
     inkscape:label="apps"
     style="display:inline"
     transform="translate(-463.99998,-135.99664)" />
  <g
     inkscape:groupmode="layer"
     id="layer12"
     inkscape:label="actions"
     style="display:inline"
     transform="translate(-705.00018,331.00336)" />
</svg>
