<svg xmlns="http://www.w3.org/2000/svg" viewBox="0 0 16 16">
  <path fill="#bebebe" d="M3.08 2.539c-.569-.036-.557.202-.557.758v4.726L2 12.496c0 .346.118.463.344.5v.402c0 .092-.003.171.008.25.01.08.042.177.119.245a.45.45 0 0 0 .265.099c.096.011.206.01.348.004h9.963c.263 0 .428.019.586-.101a.379.379 0 0 0 .133-.247c.01-.085.003-.169-.008-.269l.002.019v-.394c.191-.051.262-.178.234-.545l-.422-4.486V3.344c.043-.572-.011-.805-.529-.805zm6.498 3.016c.395-.002.722.114.985.349.262.231.394.526.396.885.002.434-.194.759-.588.971v.025c.215.091.391.23.529.418.143.188.214.412.215.67.002.399-.139.73-.426.994-.286.26-.636.391-1.052.393h-.002a1.515 1.515 0 0 1-.862-.28c-.279-.187-.475-.465-.584-.837l.54-.233c.069.245.184.435.343.57a.83.83 0 0 0 .561.202.897.897 0 0 0 .617-.233.731.731 0 0 0 .262-.574.711.711 0 0 0-.274-.562.931.931 0 0 0-.636-.229l-.381.002-.002-.565.334-.001a.846.846 0 0 0 .572-.2.658.658 0 0 0 .229-.527.585.585 0 0 0-.227-.486.834.834 0 0 0-.547-.174c-.377.001-.632.197-.764.588l-.546-.235c.084-.241.235-.457.453-.646.218-.19.503-.284.855-.285zm-3.363.013c.407-.001.743.124 1.006.377.262.253.395.558.396.912.002.439-.23.909-.695 1.411L5.641 9.594l2.039-.01.002.58-2.803.012-.004-.606a74.051 74.051 0 0 0 1.607-1.695c.21-.242.35-.424.422-.547a.922.922 0 0 0 .108-.469c-.001-.188-.075-.354-.221-.498s-.341-.214-.586-.213a.732.732 0 0 0-.539.206.893.893 0 0 0-.262.427l-.541-.22c.072-.237.223-.461.453-.672.231-.212.53-.319.899-.321zm-3.391 7.438l10.541.037.028-.002v.367l.002.012c.01.091.011.154.007.182-.003.027.002.006.008.002.013-.01-.108.025-.363.025H3.076c-.139.006-.24.007-.301 0-.06-.007-.071-.019-.062-.012.008.008.007.019.002-.017a1.946 1.946 0 0 1-.006-.202v-.388c.041-.002.071-.001.115-.004z"/>
</svg>
