<svg xmlns="http://www.w3.org/2000/svg" viewBox="0 0 16 16">
  <path fill="#bebebe" d="M7.999 2A6 6 0 0 0 2 8.001 6 6 0 0 0 7.999 14 6 6 0 0 0 14 8.001 6 6 0 0 0 7.999 2zm.246 2.227c1.056 0 1.944.363 2.665 1.091.721.727 1.082 1.607 1.082 2.637 0 .579-.125 1.059-.376 1.439-.245.38-.603.57-1.073.57-.483 0-.842-.236-1.08-.706-.315.47-.767.706-1.353.706-.528 0-.972-.184-1.333-.551-.36-.374-.541-.847-.541-1.42 0-.567.18-1.036.541-1.409s.792-.56 1.294-.56c.496 0 .908.189 1.237.569h.038v-.435h.696v2.521a.8.8 0 0 0 .134.454c.097.135.242.203.435.203.457 0 .685-.461.685-1.381 0-.85-.295-1.568-.887-2.154-.592-.585-1.314-.878-2.164-.878s-1.57.293-2.162.879c-.592.585-.889 1.303-.889 2.153s.297 1.568.889 2.154 1.313.879 2.162.879c.457 0 .866-.089 1.226-.27l.271.656a3.57 3.57 0 0 1-1.497.309c-1.068 0-1.967-.361-2.694-1.082-.728-.728-1.091-1.609-1.091-2.646 0-1.03.363-1.91 1.091-2.637.734-.727 1.632-1.091 2.695-1.091zm-.068 2.531c-.322 0-.598.112-.83.338-.225.225-.338.524-.338.898 0 .373.112.672.338.898.232.225.508.339.83.339s.596-.114.821-.339c.232-.226.349-.525.349-.899 0-.373-.117-.672-.348-.897a1.116 1.116 0 0 0-.821-.338z"/>
</svg>
