<svg xmlns="http://www.w3.org/2000/svg" viewBox="0 0 16 16">
  <path fill="#bebebe" d="M12.189 2.006l-4.486.422H3.076c-.572-.043-.805.011-.805.529v9.963c-.035.569.202.557.758.557h4.725l4.475.523c.346 0 .461-.118.498-.344h.404c.092 0 .17.003.25-.008a.38.38 0 0 0 .242-.119.46.46 0 0 0 .102-.265c.01-.096.007-.206.002-.348V2.953c0-.263.021-.428-.1-.586a.379.379 0 0 0-.248-.133 1.167 1.167 0 0 0-.268.008l.02-.002h-.395c-.051-.191-.18-.262-.547-.234zm1.147.584c-.01-.013.025.108.025.363v9.971c.006.139.005.24-.002.301-.006.06-.017.071-.009.062.007-.008.018-.007-.018-.002s-.107.006-.201.006h-.391c-.002-.041-.001-.071-.004-.115l.039-10.541-.002-.028h.368l.009-.002a.913.913 0 0 1 .184-.007c.028.003.007-.002.002-.008zM9.125 5.287h1.135c.122 0 .222.099.222.221l.004 5.138a.22.22 0 0 1-.22.221l-1.135.002a.222.222 0 0 1-.223-.221l-.004-5.14c0-.122.099-.221.221-.221zM6.818 6.725h1.137a.22.22 0 0 1 .221.22l.004 3.692c0 .122-.097.22-.219.22H6.824a.22.22 0 0 1-.22-.22L6.6 6.945a.217.217 0 0 1 .218-.22zm-2.22 1.459h1.134c.123 0 .223.098.223.22l.004 2.242a.22.22 0 0 1-.221.221H4.602a.22.22 0 0 1-.221-.221l-.004-2.242a.22.22 0 0 1 .221-.22z"/>
</svg>
