<svg xmlns="http://www.w3.org/2000/svg" viewBox="0 0 16 16">
  <defs id="defs3051">
    <style type="text/css" id="current-color-scheme">
      .ColorScheme-Text {
        color:#4d4d4d;
      }
      </style>
  </defs>
 <path 
           style="fill:currentColor;fill-opacity:1;stroke:none" 
           class="ColorScheme-Text"
        d="m 8,2.5275e-4 c -0.4083062,0 -0.8166721,0.1583722 -1.1289062,0.4746094 L 6.2382812,1.0998622 7.5996094,2.4514248 C 7.9198496,2.3633588 8.280742,2.3955948 8.625,2.5236908 c 0.744559,0.312233 1.1280779,1.128487 0.9199219,1.873046 l 2.0585941,2.058594 c 0.12009,-0.05604 0.256282,-0.05664 0.40039,-0.05664 a 1.6012009,1.6012009 0 0 1 1.59961,1.601562 1.6012009,1.6012009 0 0 1 -1.59961,1.601562 1.6012009,1.6012009 0 0 1 -1.601562,-1.601562 c 0,-0.144108 -0.0014,-0.280301 0.05469,-0.400391 l -1.6562498,-1.673828 0,3.890625 c 0.480361,0.2722042 0.8007813,0.7942742 0.8007813,1.3867192 A 1.6012009,1.6012009 0 0 1 8,12.802987 1.6012009,1.6012009 0 0 1 6.3984375,11.203378 c 0,-0.592445 0.3204211,-1.114515 0.8007813,-1.3867192 l 0,-4.433594 C 6.5747504,5.0227948 6.262934,4.2784198 6.4550781,3.5979088 L 5.1015625,2.2365808 0.47460938,6.8713468 c -0.6324744,0.624469 -0.6324744,1.633343 0,2.257812 L 6.8710938,15.525644 c 0.6244682,0.632475 1.6333435,0.632475 2.2578124,0 L 15.525391,9.1291588 c 0.632475,-0.624469 0.632475,-1.633343 0,-2.257812 L 9.1289062,0.47486215 C 8.8166717,0.15862495 8.4083062,2.5275e-4 8,2.5275e-4 Z"
     />
</svg>
