<svg xmlns="http://www.w3.org/2000/svg" viewBox="0 0 16 16">
  <defs id="defs3051">
    <style type="text/css" id="current-color-scheme">
      .ColorScheme-Text {
        color:#4d4d4d;
      }
      </style>
  </defs>
 <path 
     style="fill:#bebebe;fill-opacity:1;stroke:none" 
     class="ColorScheme-Text"
     d="M 8 1 C 4.122 1 1 4.122 1 8 L 1 12.666016 C 1 12.666016 1.0006544 15 3.3339844 15 L 5.6660156 15 L 5.6660156 9.1660156 L 3.3339844 9.1660156 L 3.3339844 8 C 3.3339844 5.41466 5.41467 3.3339844 8 3.3339844 C 10.58533 3.3339844 12.666016 5.41466 12.666016 8 L 12.666016 9.1660156 L 10.333984 9.1660156 L 10.333984 15 L 12.666016 15 C 12.666016 15 15 14.999356 15 12.666016 L 15 11.5 L 15 10.916016 L 15 8 C 15 4.122 11.878 1 8 1 z "
     />
</svg>
