<svg xmlns="http://www.w3.org/2000/svg" viewBox="0 0 16 16">
  <defs id="defs3051">
    <style type="text/css" id="current-color-scheme">
      .ColorScheme-Text {
        color:#4d4d4d;
      }
      </style>
  </defs>
 <path 
     style="fill:#bebebe;fill-opacity:1;stroke:none" 
     class="ColorScheme-Text"
     d="M 1.5 1.5 C 0.5 1.5 0.5 2.5 0.5 2.5 L 0.5 13.5 C 0.5 13.5 0.5 14.5 1.5 14.5 L 14.5 14.5 C 14.5 14.5 15.5 14.5 15.5 13.5 L 15.5 2.5 C 15.5 1.5 14.5 1.5 14.5 1.5 L 1.5 1.5 z M 2.5 3.5 L 13.5 3.5 L 13.5 9.5 L 2.5 9.5 L 2.5 3.5 z M 2.5 10.5 L 7.5 10.5 L 7.5 12.5 L 2.5 12.5 L 2.5 10.5 z M 8.5 10.5 L 13.5 10.5 L 13.5 12.5 L 8.5 12.5 L 8.5 10.5 z "
     />
</svg>
