<svg xmlns="http://www.w3.org/2000/svg" viewBox="0 0 16 16">
  <defs id="defs3051">
    <style type="text/css" id="current-color-scheme">
      .ColorScheme-Text {
        color:#4d4d4d;
      }
      </style>
  </defs>
 <path 
     style="fill:#bebebe;fill-opacity:1;stroke:none" 
     class="ColorScheme-Text"
     d="M 8,0.5 C 3.8450001,0.5 0.5,3.8450001 0.5,8 c 0,4.155 3.3450001,7.5 7.5,7.5 4.155,0 7.5,-3.345 7.5,-7.5 C 15.5,3.8450001 12.155,0.5 8,0.5 Z M 9.6790775,3.2191162 C 9.7393213,3.7685235 9.5192075,4.318134 9.1920163,4.7150879 8.8644781,5.1111446 8.32655,5.4208129 7.8004147,5.3797607 7.7292397,4.8413397 7.9950566,4.2809078 8.2984616,3.9295654 8.6366028,3.5335088 9.2077822,3.2383057 9.6790775,3.2191162 Z M 9.66989,5.4859619 c 0.3056944,0.012762 1.163178,0.1224986 1.713867,0.9283448 -0.04378,0.02829 -1.024401,0.5980055 -1.012573,1.7852786 0.01234,1.4181319 1.243744,1.8904907 1.257935,1.8969717 -0.01099,0.03283 -0.196033,0.672291 -0.648193,1.333008 -0.39104,0.571271 -0.79673,1.139869 -1.4355473,1.151734 -0.6282159,0.01179 -0.8295421,-0.371705 -1.5472415,-0.371705 -0.7177181,0 -0.9426095,0.358997 -1.536255,0.382692 C 5.8454536,12.615136 5.3761714,11.977123 4.9824219,11.407593 4.1766123,10.244087 3.5624034,8.1181016 4.3891602,6.6834717 4.7988947,5.9708078 5.5325082,5.5197631 6.3282471,5.5079346 c 0.6054741,-0.011004 1.1758304,0.4083252 1.5454098,0.4083252 0.370514,0 1.0662056,-0.5042175 1.796265,-0.4302979 z"
     />
</svg>
